<REAPER_PROJECT 0.1 "4.22"
  RIPPLE 0
  GROUPOVERRIDE 0 0 0
  AUTOXFADE 1
  ENVATTACH 1
  MIXERUIFLAGS 11 48
  PEAKGAIN 1.00000000000000
  FEEDBACK 0
  PANLAW 1.00000000000000
  PROJOFFS 0.00000000000000 0
  MAXPROJLEN 0 600.00000000000000
  GRID 1151 8 1.00000000000000 8 1.00000000000000 0
  TIMEMODE 1 0 -1
  CURSOR 5.38461400000032
  ZOOM 2.14920259157757 0 0
  VZOOMEX 0
  USE_REC_CFG 0
  RECMODE 1
  SMPTESYNC 0 30.000000 100 40 1000 300 0 0.000000 0
  LOOP 0
  LOOPGRAN 0 4.00000000000000
  RECORD_PATH "" ""
  <RECORD_CFG
    ZXZhdxgA
  >
  <APPLYFX_CFG
  >
  RENDER_FILE "C:\Users\AJFOne23\Downloads\RB3\Metal\Mastodon\2004 Leviathan\Aqua Dementia\Aqua Dementia-FINAL.wav"
  RENDER_FMT 0 2 44100
  RENDER_1X 0
  RENDER_RANGE 1 0.00000000000000 0.00000000000000
  RENDER_RESAMPLE 3 0 1
  RENDER_ADDTOPROJ 0
  RENDER_STEMS 0
  RENDER_DITHER 0
  TIMELOCKMODE 0
  ITEMMIX 0
  DEFPITCHMODE 0
  TAKELANE 1
  SAMPLERATE 44100 0 0
  <RENDER_CFG
    ZXZhdxAA
  >
  LOCK 1
  <METRONOME 6 2.000000
    VOL 0.752735 0.723913
    FREQ 800 1600 0
    BEATLEN 4
    SAMPLES "" ""
  >
  GLOBAL_AUTO -1
  TEMPO 120.00000000000000 4 4
  PLAYRATE 1.00000000000000 0 0.25000 4.00000
  SELECTION 225.42124230715689 225.42124230715689
  SELECTION2 225.42124230715689 225.42124230715689
  MASTERAUTOMODE 0
  MASTERTRACKHEIGHT 0
  MASTERPEAKCOL 16576
  MASTERMUTESOLO 0
  MASTERTRACKVIEW 1 0.666700 0.500000 0.500000 -1 -1 -1
  MASTERHWOUT 0 0 1.00000000000000 0.00000000000000 0 0 0 -1.00000000000000
  MASTER_NCH 2 2
  MASTER_VOLUME 1.00000000000000 0.00000000000000 -1.00000000000000 -1.00000000000000 1.00000000000000
  MASTER_FX 1
  MASTER_SEL 0
  <MASTERFXLIST
    SHOW 0
    LASTSEL 0
    DOCKED 0
    BYPASS 0 0
    <VST "VST: W1 Limiter (George Yohng)" "George Yohng's W1 Limiter.dll" 0 ""
      THdGNO5e7f4CAAAAAQAAAAAAAAACAAAAAAAAAAIAAAABAAAAAAAAAA==
      AgAAAAAAAABMAAAAAQAAAAAAEAAMAACBdGhyZXNoAAD+1Hg/DAAAgQ==
      Y2VpbGluZwD+1Hg/DAAAgXJlbGVhc2UAMEAfPxQAAIFhZGFwdFJlbA==
      ZWFzZQAAAAAAAAAAAAAAgAAAEAAAAA==
    >
    FLOATPOS 24 24 481 152
    FXID {69D45D23-FE06-4141-B0BB-1A6D9443AFA8}
    WAK 0
  >
  <MASTERPLAYSPEEDENV
    ACT 0
    VIS 0 1 1.000000
    LANEHEIGHT 0 0
    ARM 0
    DEFSHAPE 0 -1 -1
  >
  <TEMPOENVEX
    ACT 1
    VIS 1 0 1.000000
    LANEHEIGHT 0 0
    ARM 0
    DEFSHAPE 1 -1 -1
    PT 0.000000000000 120.0000000000 1
    PT 4.000000000000 130.0001300001 1
    PT 5.846152000000 136.7989056088 1
    PT 10.232152000000 140.0000000000 1
    PT 10.660723428570 134.0000000000 1
    PT 11.668186115138 132.0000000000 1
    PT 12.463640660592 140.0000000000 1
    PT 13.106497803449 143.0000000000 1
    PT 14.043631000000 145.0676982592 1
    PT 14.567455075277 143.0000000000 1
    PT 16.245776753599 148.0000000000 1
    PT 17.157938915761 144.0000000000 1
    PT 18.178631000000 146.8428781204 1
    PT 19.118549514512 145.0000000000 1
    PT 20.221631000000 147.2031403337 1
    PT 21.784458967411 143.0000000000 1
    PT 22.413829596780 148.0000000000 1
    PT 24.312631000000 147.9289940828 1
    PT 24.440918172108 148.0000000000 1
    PT 25.251728982919 144.0000000000 1
    PT 26.501728982919 149.0312965723 1
    PT 28.353631000000 146.4843750000 1
    PT 28.927129991067 151.0000000000 1
    PT 29.225143236100 153.0000000000 1
    PT 29.519260883159 146.0000000000 1
    PT 29.930219787268 142.0000000000 1
    PT 30.564022603826 150.0000000000 1
    PT 30.964022604152 148.0000000000 1
    PT 31.977536117665 144.0000000000 1
    PT 32.602536117665 146.4843750000 1
    PT 33.012136117665 149.0000000000 1
    PT 34.018847527061 144.0000000000 1
    PT 34.643847527061 149.0000000000 1
    PT 35.046532090819 146.0000000000 1
    PT 35.457490994929 144.0000000000 1
    PT 36.082490994929 145.0000000000 1
    PT 36.707490994929 154.0000000000 1
    PT 37.093042942981 150.0000000000 1
    PT 38.093042942981 148.0000000000 1
    PT 38.701151051089 144.0000000000 1
    PT 41.044901051089 146.0000000000 1
    PT 42.020928448349 144.0000000000 1
    PT 42.437595115016 129.0000000000 1
    PT 43.367827673156 136.0000000000 1
    PT 44.250180614332 142.0454545455 1
    PT 45.306180614332 164.0000000000 1
    PT 45.672034272868 136.0000000000 1
    PT 46.554387214045 140.0000000000 1
    PT 47.197244356902 142.0000000000 1
    PT 47.619779568170 160.0000000000 1
    PT 48.369779568170 132.0000000000 1
    PT 48.824325022715 138.0000000000 1
    PT 49.259107631411 140.0000000000 1
    PT 51.830536202839 142.0000000000 1
    PT 54.365747470445 138.0000000000 1
    PT 55.235312687836 142.0000000000 1
    PT 57.770523955442 137.0000000000 1
    PT 58.646436364193 141.1349603058 1
    PT 62.047436364200 140.8864103317 1
    PT 65.454436364200 141.0934744268 1
    PT 67.155436364200 142.0000000000 1
    PT 68.845577209270 146.0000000000 1
    PT 70.489412825709 139.0000000000 1
    PT 71.352722178227 134.0000000000 1
    PT 72.248244566286 135.0000000000 1
    PT 73.137133455175 144.0000000000 1
    PT 73.970466788509 138.0000000000 1
    PT 76.579162440682 140.0000000000 1
    PT 78.293448154968 138.0000000000 1
    PT 79.163013372359 137.0000000000 1
    PT 80.257903883308 140.0000000000 1
    PT 81.972189597594 144.0000000000 1
    PT 82.597189597594 134.0000000000 1
    PT 83.268831388639 139.0000000000 1
    PT 83.700486064898 141.0000000000 1
    PT 84.338783937238 139.0000000000 1
    PT 86.065402642274 138.0000000000 1
    PT 86.934967859666 141.0000000000 1
    PT 88.637061868177 147.7832512315 1
    PT 89.449093974656 138.0000000000 1
    PT 91.188224409439 135.0000000000 1
    PT 91.854891076106 138.0000000000 1
    PT 92.941847597845 136.0000000000 1
    PT 94.706553480198 139.0000000000 1
    PT 97.728136214011 136.0000000000 1
    PT 98.169228635904 166.0000000000 1
    PT 98.711466169774 170.0000000000 1
    PT 99.240877934480 166.0000000000 1
    PT 99.963769500745 180.0000000000 1
    PT 100.630436167412 176.4705882353 1
    PT 100.800436167412 181.0000000000 1
    PT 101.463419592826 176.0000000000 1
    PT 102.315692320099 168.0000000000 1
    PT 102.851406605813 176.0000000000 1
    PT 104.044588423995 184.0000000000 1
    PT 104.696762337039 176.0000000000 1
    PT 106.401307791584 138.0000000000 1
    PT 107.270873008976 141.0000000000 1
    PT 108.121936838763 136.0000000000 1
    PT 109.004289779939 139.0000000000 1
    PT 109.867599132457 134.0000000000 1
    PT 110.763121520517 138.0000000000 1
    PT 111.632686737908 135.0000000000 1
    PT 112.521575626797 138.0000000000 1
    PT 113.391140844188 171.0000000000 1
    PT 114.443772423136 174.0000000000 1
    PT 115.133427595550 184.0000000000 1
    PT 115.785601508593 176.0000000000 1
    PT 116.467419690411 180.0000000000 1
    PT 117.134086357078 163.0000000000 1
    PT 117.502184516587 137.0000000000 1
    PT 118.159118823156 140.0000000000 1
    PT 119.230547394585 136.0000000000 1
    PT 120.112900308017 166.0000000000 1
    PT 121.558683463266 176.6784452297 1
    PT 121.898283463277 184.0000000000 1
    PT 122.224370419799 180.0000000000 1
    PT 124.224370419799 186.0000000000 1
    PT 124.869531710121 184.0000000000 1
    PT 126.499966492730 177.0000000000 1
    PT 127.177932594425 175.0000000000 1
    PT 128.206504022996 142.0000000000 1
    PT 128.840306839898 178.0000000000 1
    PT 130.632092000000 171.1840228245 1
    PT 132.799713927440 176.0000000000 1
    PT 133.481532109258 170.0000000000 1
    PT 134.187414462199 174.0000000000 1
    PT 135.566724807027 168.0000000000 1
    PT 136.281010521313 143.0000000000 1
    PT 136.700590940893 108.1732069390 1
    PT 137.809922940893 110.0000000000 1
    PT 139.991741122711 109.0000000000 1
    PT 141.092658553903 105.0000000000 1
    PT 142.235515696761 108.5000000000 1
    PT 143.341506480171 110.0000000000 1
    PT 144.432415571080 111.0000000000 1
    PT 145.513496652161 108.0000000000 1
    PT 146.624607763272 108.5972850679 1
    PT 147.729607763272 109.0909090909 1
    PT 148.829607763272 113.0000000000 1
    PT 149.360581214599 118.0000000000 1
    PT 149.869055790870 108.0000000000 1
    PT 152.091278013093 103.1814273431 1
    PT 153.254278013092 116.0000000000 1
    PT 153.771519392403 124.0000000000 1
    PT 154.255390360145 103.0000000000 1
    PT 155.420438903773 107.0000000000 1
    PT 156.541934230935 108.7941976428 1
    PT 157.644934230935 108.0000000000 1
    PT 158.756045342046 108.0000000000 1
    PT 160.978267564268 108.6301198733 1
    PT 162.082933564268 114.0000000000 1
    PT 163.135565143216 108.0000000000 1
    PT 169.802231809882 115.0000000000 1
    PT 170.323970940317 116.0000000000 1
    PT 170.841212319627 114.0000000000 1
    PT 171.367528109101 113.0000000000 1
    PT 171.898501560429 108.5000000000 1
    PT 173.004492343839 112.0000000000 1
    PT 174.075920915267 115.0000000000 1
    PT 175.119399176137 113.0000000000 1
    PT 176.181346078792 109.0000000000 1
    PT 177.282263509984 115.0000000000 1
    PT 178.325741770854 112.0000000000 1
    PT 179.397170342282 110.5000000000 1
    PT 180.483143192961 108.0000000000 1
    PT 181.594254304072 113.0000000000 1
    PT 182.656201206727 112.3332553241 1
    PT 184.258576206728 105.0000000000 1
    PT 184.830004778156 111.5000000000 1
    PT 185.368121370084 114.0000000000 1
    PT 186.947068738505 111.0000000000 1
    PT 187.487609279046 110.0000000000 1
    PT 188.578518369955 112.0000000000 1
    PT 189.114232655669 111.0000000000 1
    PT 190.195313736750 109.0000000000 1
    PT 191.296231167943 111.0000000000 1
    PT 193.998933870646 112.0000597334 1
    PT 194.534647870646 108.0000000000 1
    PT 195.645758981757 108.0000000000 1
    PT 196.201314537312 114.0000000000 1
    PT 196.727630326786 116.0000000000 1
    PT 197.244871706096 108.0000000000 1
    PT 197.800427261652 110.0000000000 1
    PT 198.891336352561 112.0000000000 1
    PT 201.569907781132 107.0000000000 1
    PT 202.691403108235 110.0000000000 1
    PT 204.327766744599 116.0000000000 1
    PT 205.362249503220 108.0000000000 1
    PT 206.473360614331 107.0000000000 1
    PT 207.594855941433 104.0000000000 1
    PT 208.748702095280 102.0000000000 1
    PT 209.925172683515 103.0000000000 1
    PT 211.090221227204 107.0000000000 1
    PT 212.211716554307 102.0000000000 1
    PT 213.388187142542 111.0000000000 1
    PT 214.108907863263 110.0000000000 1
    PT 216.654362408718 104.0000000000 1 0 1
    PT 217.808208562564 102.0000000000 1
    PT 218.984679150799 103.0000000000 1
    PT 220.149727694488 101.0000000000 1
    PT 222.525965318251 122.0000000000 1
    PT 223.017768596939 110.0000000000 1
    PT 224.290495869667 94.0000000000 1
    PT 224.716027784560 100.0000000000 1
  >
  <PROJBAY
  >
  <TRACK '{4D889F49-FE1F-4D1D-9FB8-BFD5BA06901A}'
    NAME "SONG AUDIO"
    PEAKCOL 16576
    BEAT -1
    AUTOMODE 0
    VOLPAN 1.00000000000000 -0.06400000000000 -1.00000000000000 -1.00000000000000 1.00000000000000
    MUTESOLO 0 0 0
    IPHASE 0
    ISBUS 0 0
    BUSCOMP 0 0
    SHOWINMIX 1 0.666700 0.500000 1 0.500000 -1 -1 -1
    FREEMODE 0
    SEL 0
    REC 0 0 0 0 0 0 0
    TRACKHEIGHT 155 0
    INQ 0 0 0 0.5000000000 100 0 0 100
    NCHAN 2
    FX 1
    TRACKID {4D889F49-FE1F-4D1D-9FB8-BFD5BA06901A}
    PERF 0
    MIDIOUT -1
    MAINSEND 1 0
    <FXCHAIN
      SHOW 0
      LASTSEL 0
      DOCKED 0
      BYPASS 0 0
      <VST "VST: W1 Limiter (George Yohng)" "George Yohng's W1 Limiter.dll" 0 ""
        THdGNO5e7f4CAAAAAQAAAAAAAAACAAAAAAAAAAIAAAABAAAAAAAAAA==
        AgAAAAAAAABMAAAAAQAAAAAAEAAMAACBdGhyZXNoAAD+1Hg/DAAAgQ==
        Y2VpbGluZwD+1Hg/DAAAgXJlbGVhc2UAMEAfPxQAAIFhZGFwdFJlbA==
        ZWFzZQAAAAAAAAAAAAAAgAAAEAAAAA==
      >
      FLOATPOS 24 24 481 152
      FXID {D32BE511-3942-4A83-B6D7-DF2FE763A2B4}
      WAK 0
    >
    <ITEM
      POSITION 3.72636036422423
      SNAPOFFS 0.00000000000000
      LENGTH 228.78966742033595
      LOOP 0
      ALLTAKES 0
      SEL 0
      FADEIN 1 0.000000 0.000000 1 0
      FADEOUT 1 0.000000 0.000000 1 0
      MUTE 0
      IGUID {43369A58-C791-455A-9FE1-7CFE4AE94562}
      IID 1
      NAME "guitar.ogg"
      VOLPAN 1.000000 0.000000 1.000000 -1.000000
      SOFFS 0.00000000000000
      PLAYRATE 1.00000000000000 1 0.00000000000000 -1
      CHANMODE 0
      GUID {CE2B4B37-F2BA-4561-9933-49E18849E50A}
      <SOURCE VORBIS
        FILE "guitar.ogg"
      >
    >
    <ITEM
      POSITION 232.51602778456018
      SNAPOFFS 0.00000000000000
      LENGTH 15.59999999999999
      LOOP 0
      ALLTAKES 0
      SEL 0
      FADEIN 1 0.000000 0.000000 1 0
      FADEOUT 1 15.600000 0.000000 1 0
      MUTE 0
      IGUID {890ABF97-70B9-4B44-AC21-F57E67C9EA59}
      IID 2
      NAME "guitar.ogg"
      VOLPAN 1.000000 0.000000 1.000000 -1.000000
      SOFFS 228.78966742033595
      PLAYRATE 1.00000000000000 1 0.00000000000000 -1
      CHANMODE 0
      GUID {D7E60FD7-7C40-4DDB-88BC-737BFDBA30D6}
      <SOURCE VORBIS
        FILE "guitar.ogg"
      >
    >
  >
  <TRACK '{BDCFF37A-71AC-4D17-AF26-EA560B308842}'
    NAME "COUNTIN"
    PEAKCOL 16576
    BEAT -1
    AUTOMODE 0
    VOLPAN 1.00000000000000 0.00000000000000 -1.00000000000000 -1.00000000000000 1.00000000000000
    MUTESOLO 0 0 0
    IPHASE 0
    ISBUS 0 0
    BUSCOMP 0 0
    SHOWINMIX 1 0.666700 0.500000 1 0.500000 -1 -1 -1
    FREEMODE 0
    SEL 0
    REC 0 0 0 0 0 0 0
    TRACKHEIGHT 0 0
    INQ 0 0 0 0.5000000000 100 0 0 100
    NCHAN 2
    FX 1
    TRACKID {BDCFF37A-71AC-4D17-AF26-EA560B308842}
    PERF 0
    MIDIOUT -1
    MAINSEND 1 0
    <ITEM
      POSITION 2.00000000000000
      SNAPOFFS 0.00000000000000
      LENGTH 0.28216019417451
      LOOP 0
      ALLTAKES 0
      SEL 0
      FADEIN 1 0.000000 0.000000 1 0
      FADEOUT 1 0.000000 0.000000 1 0
      MUTE 0
      IGUID {D829F3DA-0BE5-4277-954B-C2D10DB114A6}
      IID 10
      NAME "stick.wav"
      VOLPAN 1.000000 0.000000 1.000000 -1.000000
      SOFFS 0.00000000000000
      PLAYRATE 1.00000000000052 1 0.00000000000000 -1
      CHANMODE 0
      GUID {3A242298-C3E5-4DC8-9A3C-2EE82D8D2134}
      <SOURCE WAVE
        FILE "stick.wav"
      >
    >
    <ITEM
      POSITION 3.00000000000000
      SNAPOFFS 0.00000000000000
      LENGTH 0.28216019417451
      LOOP 0
      ALLTAKES 0
      SEL 0
      FADEIN 1 0.000000 0.000000 1 0
      FADEOUT 1 0.000000 0.000000 1 0
      MUTE 0
      IGUID {5AEC5162-2B2C-4FF2-BB3B-E29ADC0916FE}
      IID 11
      NAME "stick.wav"
      VOLPAN 1.000000 0.000000 1.000000 -1.000000
      SOFFS 0.00000000000000
      PLAYRATE 1.00000000000052 1 0.00000000000000 -1
      CHANMODE 0
      GUID {16E29BEE-96F5-48F0-9FB0-3F04A1AF90D5}
      <SOURCE WAVE
        FILE "stick.wav"
      >
    >
    <ITEM
      POSITION 4.00000000000000
      SNAPOFFS 0.00000000000000
      LENGTH 0.28216019417451
      LOOP 0
      ALLTAKES 0
      SEL 0
      FADEIN 1 0.000000 0.000000 1 0
      FADEOUT 1 0.000000 0.000000 1 0
      MUTE 0
      IGUID {1FA8F8C4-F448-4E02-B340-4A6644F6D8AB}
      IID 12
      NAME "stick.wav"
      VOLPAN 1.000000 0.000000 1.000000 -1.000000
      SOFFS 0.00000000000000
      PLAYRATE 1.00000000000052 1 0.00000000000000 -1
      CHANMODE 0
      GUID {8D594F7C-8B39-4D29-A27D-55F46BC65189}
      <SOURCE WAVE
        FILE "stick.wav"
      >
    >
    <ITEM
      POSITION 4.46153800000011
      SNAPOFFS 0.00000000000000
      LENGTH 0.28216019417451
      LOOP 0
      ALLTAKES 0
      SEL 0
      FADEIN 1 0.000000 0.000000 1 0
      FADEOUT 1 0.000000 0.000000 1 0
      MUTE 0
      IGUID {1D23FF37-8166-4C8E-915E-19EFDB52B4D8}
      IID 13
      NAME "stick.wav"
      VOLPAN 1.000000 0.000000 1.000000 -1.000000
      SOFFS 0.00000000000000
      PLAYRATE 1.00000000000052 1 0.00000000000000 -1
      CHANMODE 0
      GUID {1D91F480-CA0B-4E03-8204-02893D660CDF}
      <SOURCE WAVE
        FILE "stick.wav"
      >
    >
    <ITEM
      POSITION 4.92307600000021
      SNAPOFFS 0.00000000000000
      LENGTH 0.28216019417451
      LOOP 0
      ALLTAKES 0
      SEL 0
      FADEIN 1 0.000000 0.000000 1 0
      FADEOUT 1 0.000000 0.000000 1 0
      MUTE 0
      IGUID {A6BA2F37-4089-4BF2-A73E-A602F32B7614}
      IID 14
      NAME "stick.wav"
      VOLPAN 1.000000 0.000000 1.000000 -1.000000
      SOFFS 0.00000000000000
      PLAYRATE 1.00000000000050 1 0.00000000000000 -1
      CHANMODE 0
      GUID {ABD24FE2-95CA-428E-ADD9-9A13921FCC29}
      <SOURCE WAVE
        FILE "stick.wav"
      >
    >
    <ITEM
      POSITION 5.38461400000032
      SNAPOFFS 0.00000000000000
      LENGTH 0.28216019417451
      LOOP 0
      ALLTAKES 0
      SEL 0
      FADEIN 1 0.000000 0.000000 1 0
      FADEOUT 1 0.000000 0.000000 1 0
      MUTE 0
      IGUID {49CCEEAD-12F1-472E-8B9C-48A90BF6E20A}
      IID 15
      NAME "stick.wav"
      VOLPAN 1.000000 0.000000 1.000000 -1.000000
      SOFFS 0.00000000000000
      PLAYRATE 1.00000000000052 1 0.00000000000000 -1
      CHANMODE 0
      GUID {3DFEA1C1-AD72-4DF8-A1BD-3977672F4D80}
      <SOURCE WAVE
        FILE "stick.wav"
      >
    >
  >
  <TRACK '{8F33A645-3DF2-48FA-99BC-10992A4F8042}'
    NAME "PART DRUMS"
    PEAKCOL 16842751
    BEAT -1
    AUTOMODE 0
    VOLPAN 1.00000000000000 0.00000000000000 -1.00000000000000 -1.00000000000000 1.00000000000000
    MUTESOLO 0 0 0
    IPHASE 0
    ISBUS 0 0
    BUSCOMP 1 0
    SHOWINMIX 1 0.666700 0.500000 1 0.500000 -1 -1 -1
    FREEMODE 0
    SEL 0
    REC 0 4096 1 7 0 0 0
    TRACKHEIGHT 52 0
    INQ 0 0 0 0.5000000000 100 0 0 100
    NCHAN 2
    FX 1
    TRACKID {8F33A645-3DF2-48FA-99BC-10992A4F8042}
    PERF 0
    MIDIOUT -1
    <MIDINOTENAMES
      0 84 "HARD Kick"
      0 96 "EXPERT Kick"
      0 72 "MEDIUM Kick"
      0 60 "EASY Kick"
      0 97 "EXPERT Red"
      0 98 "EXPERT Yellow"
      0 99 "EXPERT Blue"
      0 100 "EXPERT Green"
      0 85 "HARD Red"
      0 86 "HARD Yellow"
      0 87 "HARD Blue"
      0 88 "HARD Green"
      0 73 "MEDIUM Red"
      0 74 "MEDIUM Yellow"
      0 75 "MEDIUM Blue"
      0 76 "MEDIUM Green"
      0 61 "EASY Red"
      0 62 "EASY Yellow"
      0 63 "EASY Blue"
      0 64 "EASY Green"
      0 101 " "
      0 92 "----"
      0 80 "----"
      0 68 "----"
      0 120 "DRUM FILL (use all 5)"
      0 121 "DRUM FILL"
      0 122 "DRUM FILL"
      0 123 "DRUM FILL"
      0 124 "DRUM FILL"
      0 114 "----"
      0 116 "OVERDRIVE"
      0 118 "----"
      0 24 "KICK RF"
      0 25 "HI-HAT OPEN"
      0 26 "SNARE HARD LH"
      0 27 "SNARE HARD RH"
      0 30 "HI-HAT LH"
      0 31 "HI-HAT RH"
      0 32 "PERCUSSION RH"
      0 34 "CRASH1 HARD LH"
      0 35 "CRASH1 SOFT LH"
      0 36 "CRASH1 HARD RH"
      0 37 "CRASH1 SOFT RH"
      0 38 "CRASH2 HARD RH"
      0 39 "CRASH2 SOFT RH"
      0 40 "CRASH1 CHOKE"
      0 41 "CRASH2 CHOKE"
      0 42 "RIDE CYM RH"
      0 46 "TOM1 LH"
      0 47 "TOM1 RH"
      0 48 "TOM2 LH"
      0 49 "TOM2 RH"
      0 50 "FLOOR TOM LH"
      0 51 "FLOOR TOM RH"
      0 52 "--DRUM ANIMATION--"
      0 56 "----"
      0 103 "Solo Marker"
      0 102 "----"
      0 110 "PRO Yellow Tom"
      0 111 "PRO Blue Tom"
      0 112 "PRO Green Tom"
      0 108 "----"
      0 127 "Roll Marker 2-Lane / Cym"
      0 126 "Roll Marker 1-Lane"
      0 125 "----"
      0 28 "SNARE SOFT LH"
      0 29 "SNARE SOFT RH"
      0 43 "RIDE CYM LH"
      0 44 "CRASH2 HARD LH"
      0 45 "CRASH2 SOFT LH"
    >
    MAINSEND 1 0
    <FXCHAIN
      WNDRECT 0 38 870 574
      SHOW 0
      LASTSEL 1
      DOCKED 0
      BYPASS 1 0
      <VST "VSTi: ReaSynth (Cockos)" "reasynth.dll" 0 ""
        eXNlcu9e7f4AAAAAAgAAAAEAAAAAAAAAAgAAAAAAAAA4AAAAAAAAAA==
        AAAAAO++rd4N8K3eAAAAAAAAAAAAAAAAAAAAADm0SD59y9s+tbSxOQ==
        AAAAALbz/T5VpCs6AAAAAAAAAAAAAAAAAAA=
      >
      FLOATPOS 0 0 0 0
      FXID {58F55556-9407-4062-A048-6AFCC0B53535}
      WAK 0
      BYPASS 0 0
      <VST "VSTi: RBN Preview (RBN)" "rbprev_vst.dll" 0 ""
        dnBicu5e7f4AAAAAAgAAAAEAAAAAAAAAAgAAAAAAAAAEAAAAAQAAAA==
        AAAAAAMBqgAAAAAAAAA=
      >
      FLOATPOS 32 32 659 497
      FXID {D7126437-AB1E-4109-A0FA-F2D5D0AC68DC}
      WAK 0
    >
    <ITEM
      POSITION 0.00000000000000
      SNAPOFFS 0.00000000000000
      LENGTH 249.91602778456030
      LOOP 0
      ALLTAKES 0
      COLOR 19150555
      SEL 0
      FADEIN 1 0.000000 0.000000 1 0
      FADEOUT 1 0.000000 0.000000 1 0
      MUTE 0
      IGUID {9FF11F36-E94F-4396-9C0E-8449C916EC21}
      IID 3
      NAME "PART DRUMS"
      VOLPAN 1.000000 0.000000 1.000000 -1.000000
      SOFFS 0.00000000000000 0.00000000000000
      PLAYRATE 1.00000000000000 1 0.00000000000000 -65536
      CHANMODE 0
      GUID {70A79ADF-E70C-430A-913F-E16D0CC85517}
      <SOURCE MIDI
        HASDATA 1 480 QN
        POOLEDEVTS {EB70BC2C-D0B8-4AA5-88DE-27D70E13E436}
        <X 0 0
          /wNQQVJUIERSVU1T
        >
        <X 300 0
          /wFbbWl4IDEgZHJ1bXMwXQ==
        >
        <X 0 0
          /wFbbWl4IDAgZHJ1bXMwXQ==
        >
        <X 60 0
          /wFbbWl4IDIgZHJ1bXMwXQ==
        >
        <X 60 0
          /wFbbWl4IDMgZHJ1bXMwXQ==
        >
        <X 3420 0
          /wFbcGxheV0=
        >
        E 1840 90 1e 60
        E 0 90 62 60
        E 80 80 1e 00
        E 0 80 62 00
        E 0 90 1f 60
        E 0 90 3e 60
        E 0 90 4a 60
        E 0 90 56 60
        E 0 90 62 60
        E 30 80 1f 00
        E 0 80 3e 00
        E 0 80 4a 00
        E 0 80 56 00
        E 0 80 62 00
        E 50 90 1e 60
        E 0 90 62 60
        E 30 80 1e 00
        E 0 80 62 00
        E 50 90 1f 60
        E 0 90 62 60
        E 30 80 1f 00
        E 0 80 62 00
        E 50 90 1e 60
        E 0 90 56 60
        E 0 90 62 60
        E 30 80 1e 00
        E 0 80 56 00
        E 0 80 62 00
        E 90 90 1f 60
        E 0 90 62 60
        E 30 80 1f 00
        E 0 80 62 00
        E 90 90 1e 60
        E 0 90 3e 60
        E 0 90 4a 60
        E 0 90 56 60
        E 0 90 62 60
        E 30 80 1e 00
        E 0 80 3e 00
        E 0 80 4a 00
        E 0 80 56 00
        E 0 80 62 00
        E 90 90 1f 60
        E 0 90 62 60
        E 30 80 1f 00
        E 0 80 62 00
        E 90 90 1e 60
        E 0 90 56 60
        E 0 90 62 60
        E 30 80 1e 00
        E 0 80 56 00
        E 0 80 62 00
        E 89 90 1f 60
        E 0 90 62 60
        E 30 80 1f 00
        E 0 80 62 00
        E 91 90 1e 60
        E 0 90 3e 60
        E 0 90 4a 60
        E 0 90 56 60
        E 0 90 62 60
        E 30 80 1e 00
        E 0 80 3e 00
        E 0 80 4a 00
        E 0 80 56 00
        E 0 80 62 00
        E 90 90 1f 60
        E 0 90 62 60
        E 30 80 1f 00
        E 0 80 62 00
        E 90 90 18 60
        E 0 90 22 60
        E 0 90 54 60
        E 0 90 58 60
        E 0 90 60 60
        E 0 90 64 60
        E 30 80 18 00
        E 0 80 22 00
        E 0 80 54 00
        E 0 80 58 00
        E 0 80 60 00
        E 0 80 64 00
        E 210 90 1f 60
        E 0 90 3e 60
        E 0 90 4a 60
        E 0 90 56 60
        E 0 90 62 60
        E 30 80 1f 00
        E 0 80 3e 00
        E 0 80 4a 00
        E 0 80 56 00
        E 0 80 62 00
        E 90 90 18 60
        E 0 90 2a 60
        E 0 90 60 60
        E 0 90 63 60
        E 30 80 18 00
        E 0 80 2a 00
        E 0 80 60 00
        E 0 80 63 00
        E 209 90 1e 60
        E 0 90 62 60
        E 30 80 1e 00
        E 0 80 62 00
        E 91 90 18 60
        E 0 90 24 60
        E 0 90 40 60
        E 0 90 48 60
        E 0 90 4c 60
        E 0 90 54 60
        E 0 90 58 60
        E 0 90 60 60
        E 0 90 64 60
        E 30 80 18 00
        E 0 80 24 00
        E 0 80 40 00
        E 0 80 48 00
        E 0 80 4c 00
        E 0 80 54 00
        E 0 80 58 00
        E 0 80 60 00
        E 0 80 64 00
        E 330 90 1e 60
        E 0 90 62 60
        E 30 80 1e 00
        E 0 80 62 00
        E 90 90 1f 60
        E 0 90 3e 60
        E 0 90 4a 60
        E 0 90 56 60
        E 0 90 62 60
        E 30 80 1f 00
        E 0 80 3e 00
        E 0 80 4a 00
        E 0 80 56 00
        E 0 80 62 00
        E 90 90 1e 60
        E 0 90 62 60
        E 30 80 1e 00
        E 0 80 62 00
        E 90 90 1f 60
        E 0 90 56 60
        E 0 90 62 60
        E 30 80 1f 00
        E 0 80 56 00
        E 0 80 62 00
        E 29 90 1e 60
        E 0 90 62 60
        E 30 80 1e 00
        E 0 80 62 00
        E 30 90 1f 60
        E 0 90 62 60
        E 30 80 1f 00
        E 0 80 62 00
        E 30 90 1e 60
        E 0 90 62 60
        E 30 80 1e 00
        E 0 80 62 00
        E 31 90 1f 60
        E 0 90 3e 60
        E 0 90 4a 60
        E 0 90 56 60
        E 0 90 62 60
        E 30 80 1f 00
        E 0 80 3e 00
        E 0 80 4a 00
        E 0 80 56 00
        E 0 80 62 00
        E 89 90 1e 60
        E 0 90 62 60
        E 30 80 1e 00
        E 0 80 62 00
        E 90 90 1f 60
        E 0 90 56 60
        E 0 90 62 60
        E 30 80 1f 00
        E 0 80 56 00
        E 0 80 62 00
        E 30 90 1e 60
        E 0 90 62 60
        E 30 80 1e 00
        E 0 80 62 00
        E 31 90 1f 60
        E 0 90 62 60
        E 30 80 1f 00
        E 0 80 62 00
        E 30 90 1e 60
        E 0 90 62 60
        E 30 80 1e 00
        E 0 80 62 00
        E 30 90 1f 60
        E 0 90 3e 60
        E 0 90 4a 60
        E 0 90 56 60
        E 0 90 62 60
        E 30 80 1f 00
        E 0 80 3e 00
        E 0 80 4a 00
        E 0 80 56 00
        E 0 80 62 00
        E 89 90 1e 60
        E 0 90 62 60
        E 30 80 1e 00
        E 0 80 62 00
        E 91 90 18 60
        E 0 90 24 60
        E 0 90 54 60
        E 0 90 58 60
        E 0 90 60 60
        E 0 90 64 60
        E 30 80 18 00
        E 0 80 24 00
        E 0 80 54 00
        E 0 80 58 00
        E 0 80 60 00
        E 0 80 64 00
        E 210 90 1f 60
        E 0 90 3e 60
        E 0 90 4a 60
        E 0 90 56 60
        E 0 90 62 60
        E 30 80 1f 00
        E 0 80 3e 00
        E 0 80 4a 00
        E 0 80 56 00
        E 0 80 62 00
        E 90 90 18 60
        E 0 90 2a 60
        E 0 90 60 60
        E 0 90 63 60
        E 30 80 18 00
        E 0 80 2a 00
        E 0 80 60 00
        E 0 80 63 00
        E 209 90 1e 60
        E 0 90 62 60
        E 30 80 1e 00
        E 0 80 62 00
        E 91 90 18 60
        E 0 90 24 60
        E 0 90 40 60
        E 0 90 48 60
        E 0 90 4c 60
        E 0 90 54 60
        E 0 90 58 60
        E 0 90 60 60
        E 0 90 64 60
        E 30 80 18 00
        E 0 80 24 00
        E 0 80 40 00
        E 0 80 48 00
        E 0 80 4c 00
        E 0 80 54 00
        E 0 80 58 00
        E 0 80 60 00
        E 0 80 64 00
        E 330 90 1e 60
        E 0 90 62 60
        E 30 80 1e 00
        E 0 80 62 00
        E 90 90 1f 60
        E 0 90 3e 60
        E 0 90 4a 60
        E 0 90 56 60
        E 0 90 62 60
        E 30 80 1f 00
        E 0 80 3e 00
        E 0 80 4a 00
        E 0 80 56 00
        E 0 80 62 00
        E 90 90 1e 60
        E 0 90 62 60
        E 30 80 1e 00
        E 0 80 62 00
        E 90 90 1f 60
        E 0 90 56 60
        E 0 90 62 60
        E 30 80 1f 00
        E 0 80 56 00
        E 0 80 62 00
        E 29 90 1e 60
        E 0 90 62 60
        E 30 80 1e 00
        E 0 80 62 00
        E 30 90 1f 60
        E 0 90 62 60
        E 30 80 1f 00
        E 0 80 62 00
        E 30 90 1e 60
        E 0 90 62 60
        E 30 80 1e 00
        E 0 80 62 00
        E 31 90 1f 60
        E 0 90 3e 60
        E 0 90 4a 60
        E 0 90 56 60
        E 0 90 62 60
        E 30 80 1f 00
        E 0 80 3e 00
        E 0 80 4a 00
        E 0 80 56 00
        E 0 80 62 00
        E 89 90 1e 60
        E 0 90 62 60
        E 30 80 1e 00
        E 0 80 62 00
        E 90 90 1f 60
        E 0 90 56 60
        E 0 90 62 60
        E 30 80 1f 00
        E 0 80 56 00
        E 0 80 62 00
        E 91 90 1e 60
        E 0 90 62 60
        E 30 80 1e 00
        E 0 80 62 00
        E 90 90 1f 60
        E 0 90 3e 60
        E 0 90 4a 60
        E 0 90 56 60
        E 0 90 62 60
        E 30 80 1f 00
        E 0 80 3e 00
        E 0 80 4a 00
        E 0 80 56 00
        E 0 80 62 00
        E 89 90 1e 60
        E 0 90 62 60
        E 30 80 1e 00
        E 0 80 62 00
        E 91 90 18 60
        E 0 90 24 60
        E 0 90 54 60
        E 0 90 58 60
        E 0 90 60 60
        E 0 90 64 60
        E 30 80 18 00
        E 0 80 24 00
        E 0 80 54 00
        E 0 80 58 00
        E 0 80 60 00
        E 0 80 64 00
        E 210 90 1f 60
        E 0 90 3e 60
        E 0 90 4a 60
        E 0 90 56 60
        E 0 90 62 60
        E 30 80 1f 00
        E 0 80 3e 00
        E 0 80 4a 00
        E 0 80 56 00
        E 0 80 62 00
        E 90 90 18 60
        E 0 90 2a 60
        E 0 90 60 60
        E 0 90 63 60
        E 30 80 18 00
        E 0 80 2a 00
        E 0 80 60 00
        E 0 80 63 00
        E 209 90 1e 60
        E 0 90 62 60
        E 30 80 1e 00
        E 0 80 62 00
        E 91 90 18 60
        E 0 90 24 60
        E 0 90 40 60
        E 0 90 48 60
        E 0 90 4c 60
        E 0 90 54 60
        E 0 90 58 60
        E 0 90 60 60
        E 0 90 64 60
        E 30 80 18 00
        E 0 80 24 00
        E 0 80 40 00
        E 0 80 48 00
        E 0 80 4c 00
        E 0 80 54 00
        E 0 80 58 00
        E 0 80 60 00
        E 0 80 64 00
        E 329 90 1e 60
        E 0 90 62 60
        E 30 80 1e 00
        E 0 80 62 00
        E 91 90 1f 60
        E 0 90 3e 60
        E 0 90 4a 60
        E 0 90 56 60
        E 0 90 62 60
        E 60 80 1f 00
        E 0 80 3e 00
        E 0 80 4a 00
        E 0 80 56 00
        E 0 80 62 00
        E 60 90 1e 60
        E 0 90 62 60
        E 30 80 1e 00
        E 0 80 62 00
        E 90 90 1f 60
        E 0 90 56 60
        E 0 90 62 60
        E 30 80 1f 00
        E 0 80 56 00
        E 0 80 62 00
        E 90 90 1e 60
        E 0 90 62 60
        E 30 80 1e 00
        E 0 80 62 00
        E 90 90 1f 60
        E 0 90 3e 60
        E 0 90 4a 60
        E 0 90 56 60
        E 0 90 62 60
        E 30 80 1f 00
        E 0 80 3e 00
        E 0 80 4a 00
        E 0 80 56 00
        E 0 80 62 00
        E 89 90 1e 60
        E 0 90 62 60
        E 30 80 1e 00
        E 0 80 62 00
        E 91 90 1b 60
        E 0 90 55 60
        E 0 90 61 60
        E 60 80 1b 00
        E 0 80 55 00
        E 0 80 61 00
        E 60 90 1a 60
        E 0 90 61 60
        E 60 80 1a 00
        E 0 80 61 00
        E 180 90 1a 60
        E 0 90 61 60
        E 60 80 1a 00
        E 0 80 61 00
        E 60 90 18 60
        E 0 90 24 60
        E 0 90 54 60
        E 0 90 58 60
        E 0 90 60 60
        E 0 90 64 60
        E 30 80 18 00
        E 0 80 24 00
        E 0 80 54 00
        E 0 80 58 00
        E 0 80 60 00
        E 0 80 64 00
        E 210 90 18 60
        E 0 90 24 60
        E 0 90 40 60
        E 0 90 48 60
        E 0 90 4c 60
        E 0 90 54 60
        E 0 90 58 60
        E 0 90 60 60
        E 0 90 64 60
        E 30 80 18 00
        E 0 80 24 00
        E 0 80 40 00
        E 0 80 48 00
        E 0 80 4c 00
        E 0 80 54 00
        E 0 80 58 00
        E 0 80 60 00
        E 0 80 64 00
        E 89 90 1a 60
        E 0 90 61 60
        E 30 80 1a 00
        E 0 80 61 00
        E 90 90 24 60
        E 0 90 58 60
        E 0 90 64 60
        E 30 80 24 00
        E 0 80 58 00
        E 0 80 64 00
        E 50 90 18 60
        E 0 90 60 60
        E 30 80 18 00
        E 0 80 60 00
        E 51 90 18 60
        E 0 90 60 60
        E 30 80 18 00
        E 0 80 60 00
        E 50 90 1a 60
        E 0 90 24 60
        E 0 90 3d 60
        E 0 90 49 60
        E 0 90 4c 60
        E 0 90 55 60
        E 0 90 58 60
        E 0 90 61 60
        E 0 90 64 60
        E 30 80 1a 00
        E 0 80 24 00
        E 0 80 3d 00
        E 0 80 49 00
        E 0 80 4c 00
        E 0 80 55 00
        E 0 80 58 00
        E 0 80 61 00
        E 0 80 64 00
        E 210 90 2a 60
        E 0 90 57 60
        E 0 90 63 60
        E 30 80 2a 00
        E 0 80 57 00
        E 0 80 63 00
        E 90 90 1a 60
        E 0 90 61 60
        E 30 80 1a 00
        E 0 80 61 00
        E 90 90 18 60
        E 0 90 24 60
        E 0 90 40 60
        E 0 90 48 60
        E 0 90 4c 60
        E 0 90 54 60
        E 0 90 58 60
        E 0 90 60 60
        E 0 90 64 60
        E 30 80 18 00
        E 0 80 24 00
        E 0 80 40 00
        E 0 80 48 00
        E 0 80 4c 00
        E 0 80 54 00
        E 0 80 58 00
        E 0 80 60 00
        E 0 80 64 00
        E 209 90 1b 60
        E 0 90 55 60
        E 0 90 61 60
        E 30 80 1b 00
        E 0 80 55 00
        E 0 80 61 00
        E 50 90 1a 60
        E 0 90 61 60
        E 30 80 1a 00
        E 0 80 61 00
        E 50 90 1b 60
        E 0 90 61 60
        E 30 80 1b 00
        E 0 80 61 00
        E 50 90 1a 60
        E 0 90 3d 60
        E 0 90 49 60
        E 0 90 55 60
        E 0 90 61 60
        E 30 80 1a 00
        E 0 80 3d 00
        E 0 80 49 00
        E 0 80 55 00
        E 0 80 61 00
        E 91 90 1b 60
        E 0 90 61 60
        E 30 80 1b 00
        E 0 80 61 00
        E 90 90 2e 60
        E 0 90 56 60
        E 0 90 62 60
        E 0 90 6e 60
        E 30 80 2e 00
        E 0 80 56 00
        E 0 80 62 00
        E 0 80 6e 00
        E 90 90 1b 60
        E 0 90 61 60
        E 30 80 1b 00
        E 0 80 61 00
        E 90 90 1a 60
        E 0 90 3d 60
        E 0 90 49 60
        E 0 90 55 60
        E 0 90 61 60
        E 30 80 1a 00
        E 0 80 3d 00
        E 0 80 49 00
        E 0 80 55 00
        E 0 80 61 00
        E 90 90 1b 60
        E 0 90 61 60
        E 30 80 1b 00
        E 0 80 61 00
        E 90 90 18 60
        E 0 90 22 60
        E 0 90 54 60
        E 0 90 58 60
        E 0 90 60 60
        E 0 90 64 60
        E 0 90 74 60
        E 30 80 18 00
        E 0 80 54 00
        E 0 80 60 00
        E 30 80 22 00
        E 0 80 58 00
        E 0 80 64 00
        E 180 90 18 60
        E 0 90 2a 60
        E 0 90 3f 60
        E 0 90 48 60
        E 0 90 4b 60
        E 0 90 54 60
        E 0 90 57 60
        E 0 90 60 60
        E 0 90 63 60
        E 30 80 18 00
        E 0 80 2a 00
        E 0 80 3f 00
        E 0 80 48 00
        E 0 80 4b 00
        E 0 80 54 00
        E 0 80 57 00
        E 0 80 60 00
        E 0 80 63 00
        E 90 90 1a 60
        E 0 90 61 60
        E 30 80 1a 00
        E 0 80 61 00
        E 89 90 2a 60
        E 0 90 57 60
        E 0 90 63 60
        E 30 80 2a 00
        E 0 80 57 00
        E 0 80 63 00
        E 51 90 18 60
        E 0 90 60 60
        E 30 80 18 00
        E 0 80 60 00
        E 50 90 18 60
        E 0 90 60 60
        E 30 80 18 00
        E 0 80 60 00
        E 50 90 1a 60
        E 0 90 24 60
        E 0 90 3d 60
        E 0 90 49 60
        E 0 90 4c 60
        E 0 90 55 60
        E 0 90 58 60
        E 0 90 61 60
        E 0 90 64 60
        E 30 80 1a 00
        E 0 80 24 00
        E 0 80 3d 00
        E 0 80 49 00
        E 0 80 4c 00
        E 0 80 55 00
        E 0 80 58 00
        E 0 80 61 00
        E 0 80 64 00
        E 329 90 1a 60
        E 0 90 61 60
        E 30 80 1a 00
        E 0 80 61 00
        E 91 90 18 60
        E 0 90 24 60
        E 0 90 40 60
        E 0 90 48 60
        E 0 90 4c 60
        E 0 90 54 60
        E 0 90 58 60
        E 0 90 60 60
        E 0 90 64 60
        E 30 80 18 00
        E 0 80 24 00
        E 0 80 40 00
        E 0 80 48 00
        E 0 80 4c 00
        E 0 80 54 00
        E 0 80 58 00
        E 0 80 60 00
        E 0 80 64 00
        E 90 90 1a 60
        E 0 90 61 60
        E 30 80 1a 00
        E 0 80 61 00
        E 89 90 1b 60
        E 0 90 55 60
        E 0 90 61 60
        E 30 80 1b 00
        E 0 80 55 00
        E 0 80 61 00
        E 90 90 1a 60
        E 0 90 61 60
        E 30 80 1a 00
        E 0 80 61 00
        E 211 90 1a 60
        E 0 90 61 60
        E 60 80 1a 00
        E 0 80 61 00
        E 60 90 1b 60
        E 0 90 55 60
        E 0 90 61 60
        E 30 80 1b 00
        E 0 80 55 00
        E 0 80 61 00
        E 89 90 1a 60
        E 0 90 61 60
        E 30 80 1a 00
        E 0 80 61 00
        E 91 90 31 60
        E 0 90 3f 60
        E 0 90 4b 60
        E 0 90 57 60
        E 0 90 63 60
        E 0 90 6f 60
        E 30 80 31 00
        E 0 80 3f 00
        E 0 80 4b 00
        E 0 80 57 00
        E 0 80 63 00
        E 0 80 6f 00
        E 89 90 1e 60
        E 0 90 62 60
        E 30 80 1e 00
        E 0 80 62 00
        E 91 90 18 60
        E 0 90 24 60
        E 0 90 54 60
        E 0 90 58 60
        E 0 90 60 60
        E 0 90 64 60
        E 30 80 18 00
        E 0 80 24 00
        E 0 80 54 00
        E 0 80 58 00
        E 0 80 60 00
        E 0 80 64 00
        E 210 90 18 60
        E 0 90 24 60
        E 0 90 40 60
        E 0 90 48 60
        E 0 90 4c 60
        E 0 90 54 60
        E 0 90 58 60
        E 0 90 60 60
        E 0 90 64 60
        E 30 80 18 00
        E 0 80 24 00
        E 0 80 40 00
        E 0 80 48 00
        E 0 80 4c 00
        E 0 80 54 00
        E 0 80 58 00
        E 0 80 60 00
        E 0 80 64 00
        E 90 90 1a 60
        E 0 90 61 60
        E 30 80 1a 00
        E 0 80 61 00
        E 90 90 2a 60
        E 0 90 57 60
        E 0 90 63 60
        E 30 80 2a 00
        E 0 80 57 00
        E 0 80 63 00
        E 50 90 18 60
        E 0 90 60 60
        E 30 80 18 00
        E 0 80 60 00
        E 50 90 18 60
        E 0 90 60 60
        E 30 80 18 00
        E 0 80 60 00
        E 50 90 1a 60
        E 0 90 24 60
        E 0 90 3d 60
        E 0 90 49 60
        E 0 90 4c 60
        E 0 90 55 60
        E 0 90 58 60
        E 0 90 61 60
        E 0 90 64 60
        E 30 80 1a 00
        E 0 80 24 00
        E 0 80 3d 00
        E 0 80 49 00
        E 0 80 4c 00
        E 0 80 55 00
        E 0 80 58 00
        E 0 80 61 00
        E 0 80 64 00
        E 210 90 2a 60
        E 0 90 57 60
        E 0 90 63 60
        E 60 80 2a 00
        E 0 80 57 00
        E 0 80 63 00
        E 179 90 18 60
        E 0 90 24 60
        E 0 90 40 60
        E 0 90 48 60
        E 0 90 4c 60
        E 0 90 54 60
        E 0 90 58 60
        E 0 90 60 60
        E 0 90 64 60
        E 30 80 18 00
        E 0 80 24 00
        E 0 80 40 00
        E 0 80 48 00
        E 0 80 4c 00
        E 0 80 54 00
        E 0 80 58 00
        E 0 80 60 00
        E 0 80 64 00
        E 90 90 1a 60
        E 0 90 61 60
        E 30 80 1a 00
        E 0 80 61 00
        E 91 90 18 60
        E 0 90 24 60
        E 0 90 54 60
        E 0 90 58 60
        E 0 90 60 60
        E 0 90 64 60
        E 30 80 18 00
        E 0 80 24 00
        E 0 80 54 00
        E 0 80 58 00
        E 0 80 60 00
        E 0 80 64 00
        E 50 90 1a 60
        E 0 90 61 60
        E 30 80 1a 00
        E 0 80 61 00
        E 50 90 1b 60
        E 0 90 61 60
        E 30 80 1b 00
        E 0 80 61 00
        E 50 90 1a 60
        E 0 90 3d 60
        E 0 90 49 60
        E 0 90 55 60
        E 0 90 61 60
        E 30 80 1a 00
        E 0 80 3d 00
        E 0 80 49 00
        E 0 80 55 00
        E 0 80 61 00
        E 49 90 1b 60
        E 0 90 61 60
        E 30 80 1b 00
        E 0 80 61 00
        E 50 90 1a 60
        E 0 90 61 60
        E 30 80 1a 00
        E 0 80 61 00
        E 50 90 1b 60
        E 0 90 55 60
        E 0 90 61 60
        E 30 80 1b 00
        E 0 80 55 00
        E 0 80 61 00
        E 50 90 1a 60
        E 0 90 61 60
        E 30 80 1a 00
        E 0 80 61 00
        E 51 90 2f 60
        E 0 90 62 60
        E 0 90 6e 60
        E 30 80 2f 00
        E 0 80 62 00
        E 0 80 6e 00
        E 50 90 2e 60
        E 0 90 3e 60
        E 0 90 4a 60
        E 0 90 56 60
        E 0 90 62 60
        E 0 90 6e 60
        E 30 80 2e 00
        E 0 80 3e 00
        E 0 80 4a 00
        E 0 80 56 00
        E 0 80 62 00
        E 0 80 6e 00
        E 50 90 31 60
        E 0 90 63 60
        E 0 90 6f 60
        E 30 80 31 00
        E 0 80 63 00
        E 0 80 6f 00
        E 50 90 30 60
        E 0 90 63 60
        E 0 90 6f 60
        E 30 80 30 00
        E 0 80 63 00
        E 0 80 6f 00
        E 50 80 74 00
        E 0 90 18 60
        E 0 90 24 60
        E 0 90 54 60
        E 0 90 58 60
        E 0 90 60 60
        E 0 90 64 60
        E 30 80 18 00
        E 0 80 24 00
        E 0 80 54 00
        E 0 80 58 00
        E 0 80 60 00
        E 0 80 64 00
        E 210 90 18 60
        E 0 90 24 60
        E 0 90 40 60
        E 0 90 48 60
        E 0 90 4c 60
        E 0 90 54 60
        E 0 90 58 60
        E 0 90 60 60
        E 0 90 64 60
        E 30 80 18 00
        E 0 80 24 00
        E 0 80 40 00
        E 0 80 48 00
        E 0 80 4c 00
        E 0 80 54 00
        E 0 80 58 00
        E 0 80 60 00
        E 0 80 64 00
        E 90 90 1a 60
        E 0 90 61 60
        E 30 80 1a 00
        E 0 80 61 00
        E 90 90 2a 60
        E 0 90 57 60
        E 0 90 63 60
        E 30 80 2a 00
        E 0 80 57 00
        E 0 80 63 00
        E 50 90 18 60
        E 0 90 60 60
        E 30 80 18 00
        E 0 80 60 00
        E 50 90 18 60
        E 0 90 60 60
        E 30 80 18 00
        E 0 80 60 00
        E 50 90 1a 60
        E 0 90 24 60
        E 0 90 3d 60
        E 0 90 49 60
        E 0 90 4c 60
        E 0 90 55 60
        E 0 90 58 60
        E 0 90 61 60
        E 0 90 64 60
        E 30 80 1a 00
        E 0 80 24 00
        E 0 80 3d 00
        E 0 80 49 00
        E 0 80 4c 00
        E 0 80 55 00
        E 0 80 58 00
        E 0 80 61 00
        E 0 80 64 00
        E 210 90 2a 60
        E 0 90 57 60
        E 0 90 63 60
        E 60 80 2a 00
        E 0 80 57 00
        E 0 80 63 00
        E 59 90 1a 60
        E 0 90 61 60
        E 30 80 1a 00
        E 0 80 61 00
        E 91 90 18 60
        E 0 90 24 60
        E 0 90 40 60
        E 0 90 48 60
        E 0 90 4c 60
        E 0 90 54 60
        E 0 90 58 60
        E 0 90 60 60
        E 0 90 64 60
        E 30 80 18 00
        E 0 80 24 00
        E 0 80 40 00
        E 0 80 48 00
        E 0 80 4c 00
        E 0 80 54 00
        E 0 80 58 00
        E 0 80 60 00
        E 0 80 64 00
        E 90 90 1a 60
        E 0 90 61 60
        E 30 80 1a 00
        E 0 80 61 00
        E 90 90 1b 60
        E 0 90 55 60
        E 0 90 61 60
        E 30 80 1b 00
        E 0 80 55 00
        E 0 80 61 00
        E 90 90 1a 60
        E 0 90 61 60
        E 30 80 1a 00
        E 0 80 61 00
        E 89 90 1b 60
        E 0 90 3d 60
        E 0 90 49 60
        E 0 90 55 60
        E 0 90 61 60
        E 30 80 1b 00
        E 0 80 3d 00
        E 0 80 49 00
        E 0 80 55 00
        E 0 80 61 00
        E 90 90 1a 60
        E 0 90 61 60
        E 30 80 1a 00
        E 0 80 61 00
        E 90 90 2f 60
        E 0 90 56 60
        E 0 90 62 60
        E 0 90 6e 60
        E 30 80 2f 00
        E 0 80 56 00
        E 0 80 62 00
        E 0 80 6e 00
        E 90 90 2e 60
        E 0 90 62 60
        E 0 90 6e 60
        E 30 80 2e 00
        E 0 80 62 00
        E 0 80 6e 00
        E 91 90 31 60
        E 0 90 3f 60
        E 0 90 4b 60
        E 0 90 57 60
        E 0 90 63 60
        E 0 90 6f 60
        E 30 80 31 00
        E 0 80 3f 00
        E 0 80 4b 00
        E 0 80 57 00
        E 0 80 63 00
        E 0 80 6f 00
        E 90 90 30 60
        E 0 90 63 60
        E 0 90 6f 60
        E 30 80 30 00
        E 0 80 63 00
        E 0 80 6f 00
        E 90 90 18 60
        E 0 90 24 60
        E 0 90 54 60
        E 0 90 58 60
        E 0 90 60 60
        E 0 90 64 60
        E 30 80 18 00
        E 0 80 24 00
        E 0 80 54 00
        E 0 80 58 00
        E 0 80 60 00
        E 0 80 64 00
        E 210 90 18 60
        E 0 90 24 60
        E 0 90 40 60
        E 0 90 48 60
        E 0 90 4c 60
        E 0 90 54 60
        E 0 90 58 60
        E 0 90 60 60
        E 0 90 64 60
        E 30 80 18 00
        E 0 80 24 00
        E 0 80 40 00
        E 0 80 48 00
        E 0 80 4c 00
        E 0 80 54 00
        E 0 80 58 00
        E 0 80 60 00
        E 0 80 64 00
        E 89 90 1a 60
        E 0 90 61 60
        E 30 80 1a 00
        E 0 80 61 00
        E 90 90 2a 60
        E 0 90 57 60
        E 0 90 63 60
        E 30 80 2a 00
        E 0 80 57 00
        E 0 80 63 00
        E 51 90 18 60
        E 0 90 60 60
        E 30 80 18 00
        E 0 80 60 00
        E 50 90 18 60
        E 0 90 60 60
        E 30 80 18 00
        E 0 80 60 00
        E 50 90 1a 60
        E 0 90 24 60
        E 0 90 3d 60
        E 0 90 49 60
        E 0 90 4c 60
        E 0 90 55 60
        E 0 90 58 60
        E 0 90 61 60
        E 0 90 64 60
        E 30 80 1a 00
        E 0 80 24 00
        E 0 80 3d 00
        E 0 80 49 00
        E 0 80 4c 00
        E 0 80 55 00
        E 0 80 58 00
        E 0 80 61 00
        E 0 80 64 00
        E 210 90 2a 60
        E 0 90 57 60
        E 0 90 63 60
        E 30 80 2a 00
        E 0 80 57 00
        E 0 80 63 00
        E 90 90 1a 60
        E 0 90 61 60
        E 30 80 1a 00
        E 0 80 61 00
        E 90 90 18 60
        E 0 90 24 60
        E 0 90 40 60
        E 0 90 48 60
        E 0 90 4c 60
        E 0 90 54 60
        E 0 90 58 60
        E 0 90 60 60
        E 0 90 64 60
        E 30 80 18 00
        E 0 80 24 00
        E 0 80 40 00
        E 0 80 48 00
        E 0 80 4c 00
        E 0 80 54 00
        E 0 80 58 00
        E 0 80 60 00
        E 0 80 64 00
        E 89 90 1a 60
        E 0 90 61 60
        E 30 80 1a 00
        E 0 80 61 00
        E 90 90 1b 60
        E 0 90 55 60
        E 0 90 61 60
        E 30 80 1b 00
        E 0 80 55 00
        E 0 80 61 00
        E 90 90 1a 60
        E 0 90 61 60
        E 30 80 1a 00
        E 0 80 61 00
        E 211 90 1a 60
        E 0 90 61 60
        E 30 80 1a 00
        E 0 80 61 00
        E 90 90 1b 60
        E 0 90 55 60
        E 0 90 61 60
        E 30 80 1b 00
        E 0 80 55 00
        E 0 80 61 00
        E 90 90 1a 60
        E 0 90 61 60
        E 30 80 1a 00
        E 0 80 61 00
        E 90 90 1b 60
        E 0 90 3d 60
        E 0 90 49 60
        E 0 90 55 60
        E 0 90 61 60
        E 30 80 1b 00
        E 0 80 3d 00
        E 0 80 49 00
        E 0 80 55 00
        E 0 80 61 00
        E 90 90 1a 60
        E 0 90 61 60
        E 30 80 1a 00
        E 0 80 61 00
        E 90 90 18 60
        E 0 90 24 60
        E 0 90 54 60
        E 0 90 58 60
        E 0 90 60 60
        E 0 90 64 60
        E 30 80 18 00
        E 0 80 24 00
        E 0 80 54 00
        E 0 80 58 00
        E 0 80 60 00
        E 0 80 64 00
        E 210 90 18 60
        E 0 90 2a 60
        E 0 90 3f 60
        E 0 90 48 60
        E 0 90 4b 60
        E 0 90 54 60
        E 0 90 57 60
        E 0 90 60 60
        E 0 90 63 60
        E 30 80 18 00
        E 0 80 2a 00
        E 0 80 3f 00
        E 0 80 48 00
        E 0 80 4b 00
        E 0 80 54 00
        E 0 80 57 00
        E 0 80 60 00
        E 0 80 63 00
        E 90 90 1a 60
        E 0 90 61 60
        E 30 80 1a 00
        E 0 80 61 00
        E 90 90 2a 60
        E 0 90 57 60
        E 0 90 63 60
        E 30 80 2a 00
        E 0 80 57 00
        E 0 80 63 00
        E 50 90 18 60
        E 0 90 60 60
        E 30 80 18 00
        E 0 80 60 00
        E 49 90 18 60
        E 0 90 60 60
        E 30 80 18 00
        E 0 80 60 00
        E 51 90 1a 60
        E 0 90 24 60
        E 0 90 3d 60
        E 0 90 49 60
        E 0 90 4c 60
        E 0 90 55 60
        E 0 90 58 60
        E 0 90 61 60
        E 0 90 64 60
        E 30 80 1a 00
        E 0 80 24 00
        E 0 80 3d 00
        E 0 80 49 00
        E 0 80 4c 00
        E 0 80 55 00
        E 0 80 58 00
        E 0 80 61 00
        E 0 80 64 00
        E 210 90 2a 60
        E 0 90 57 60
        E 0 90 63 60
        E 60 80 2a 00
        E 0 80 57 00
        E 0 80 63 00
        E 60 90 1a 60
        E 0 90 61 60
        E 30 80 1a 00
        E 0 80 61 00
        E 90 90 18 60
        E 0 90 24 60
        E 0 90 40 60
        E 0 90 48 60
        E 0 90 4c 60
        E 0 90 54 60
        E 0 90 58 60
        E 0 90 60 60
        E 0 90 64 60
        E 30 80 18 00
        E 0 80 24 00
        E 0 80 40 00
        E 0 80 48 00
        E 0 80 4c 00
        E 0 80 54 00
        E 0 80 58 00
        E 0 80 60 00
        E 0 80 64 00
        E 210 90 2f 60
        E 0 90 56 60
        E 0 90 62 60
        E 0 90 6e 60
        E 30 80 2f 00
        E 0 80 56 00
        E 0 80 62 00
        E 0 80 6e 00
        E 49 90 2e 60
        E 0 90 62 60
        E 0 90 6e 60
        E 30 80 2e 00
        E 0 80 62 00
        E 0 80 6e 00
        E 50 90 2f 60
        E 0 90 62 60
        E 0 90 6e 60
        E 30 80 2f 00
        E 0 80 62 00
        E 0 80 6e 00
        E 50 90 2e 60
        E 0 90 3e 60
        E 0 90 4a 60
        E 0 90 56 60
        E 0 90 62 60
        E 0 90 6e 60
        E 30 80 2e 00
        E 0 80 3e 00
        E 0 80 4a 00
        E 0 80 56 00
        E 0 80 62 00
        E 0 80 6e 00
        E 131 90 31 60
        E 0 90 63 60
        E 0 90 6f 60
        E 30 80 31 00
        E 0 80 63 00
        E 0 80 6f 00
        E 49 90 30 60
        E 0 90 57 60
        E 0 90 63 60
        E 0 90 6f 60
        E 30 80 30 00
        E 0 80 57 00
        E 0 80 63 00
        E 0 80 6f 00
        E 51 90 31 60
        E 0 90 63 60
        E 0 90 6f 60
        E 30 80 31 00
        E 0 80 63 00
        E 0 80 6f 00
        E 49 90 30 60
        E 0 90 63 60
        E 0 90 6f 60
        E 30 80 30 00
        E 0 80 63 00
        E 0 80 6f 00
        E 131 90 2a 60
        E 0 90 63 60
        E 80 80 2a 00
        E 0 80 63 00
        E 80 90 18 60
        E 0 90 22 60
        E 0 90 54 60
        E 0 90 58 60
        E 0 90 60 60
        E 0 90 64 60
        E 30 80 18 00
        E 0 80 22 00
        E 0 80 54 00
        E 0 80 58 00
        E 0 80 60 00
        E 0 80 64 00
        E 210 90 18 60
        E 0 90 2a 60
        E 0 90 3f 60
        E 0 90 48 60
        E 0 90 4b 60
        E 0 90 54 60
        E 0 90 57 60
        E 0 90 60 60
        E 0 90 63 60
        E 30 80 18 00
        E 0 80 2a 00
        E 0 80 3f 00
        E 0 80 48 00
        E 0 80 4b 00
        E 0 80 54 00
        E 0 80 57 00
        E 0 80 60 00
        E 0 80 63 00
        E 90 90 1a 60
        E 0 90 61 60
        E 30 80 1a 00
        E 0 80 61 00
        E 89 90 2a 60
        E 0 90 57 60
        E 0 90 63 60
        E 30 80 2a 00
        E 0 80 57 00
        E 0 80 63 00
        E 51 90 18 60
        E 0 90 60 60
        E 30 80 18 00
        E 0 80 60 00
        E 49 90 18 60
        E 0 90 60 60
        E 30 80 18 00
        E 0 80 60 00
        E 51 90 1a 60
        E 0 90 24 60
        E 0 90 3d 60
        E 0 90 49 60
        E 0 90 4c 60
        E 0 90 55 60
        E 0 90 58 60
        E 0 90 61 60
        E 0 90 64 60
        E 30 80 1a 00
        E 0 80 24 00
        E 0 80 3d 00
        E 0 80 49 00
        E 0 80 4c 00
        E 0 80 55 00
        E 0 80 58 00
        E 0 80 61 00
        E 0 80 64 00
        E 210 90 2a 60
        E 0 90 57 60
        E 0 90 63 60
        E 60 80 2a 00
        E 0 80 57 00
        E 0 80 63 00
        E 59 90 1a 60
        E 0 90 61 60
        E 30 80 1a 00
        E 0 80 61 00
        E 91 90 18 60
        E 0 90 24 60
        E 0 90 40 60
        E 0 90 48 60
        E 0 90 4c 60
        E 0 90 54 60
        E 0 90 58 60
        E 0 90 60 60
        E 0 90 64 60
        E 30 80 18 00
        E 0 80 24 00
        E 0 80 40 00
        E 0 80 48 00
        E 0 80 4c 00
        E 0 80 54 00
        E 0 80 58 00
        E 0 80 60 00
        E 0 80 64 00
        E 210 90 1b 60
        E 0 90 55 60
        E 0 90 61 60
        E 60 80 1b 00
        E 0 80 55 00
        E 0 80 61 00
        E 59 90 1a 60
        E 0 90 61 60
        E 30 80 1a 00
        E 0 80 61 00
        E 210 90 1a 60
        E 0 90 61 60
        E 30 80 1a 00
        E 0 80 61 00
        E 91 90 2f 60
        E 0 90 56 60
        E 0 90 62 60
        E 0 90 6e 60
        E 30 80 2f 00
        E 0 80 56 00
        E 0 80 62 00
        E 0 80 6e 00
        E 89 90 2e 60
        E 0 90 62 60
        E 0 90 6e 60
        E 30 80 2e 00
        E 0 80 62 00
        E 0 80 6e 00
        E 91 90 31 60
        E 0 90 3f 60
        E 0 90 4b 60
        E 0 90 57 60
        E 0 90 63 60
        E 0 90 6f 60
        E 30 80 31 00
        E 0 80 3f 00
        E 0 80 4b 00
        E 0 80 57 00
        E 0 80 63 00
        E 0 80 6f 00
        E 89 90 30 60
        E 0 90 63 60
        E 0 90 6f 60
        E 30 80 30 00
        E 0 80 63 00
        E 0 80 6f 00
        E 91 90 18 60
        E 0 90 24 60
        E 0 90 54 60
        E 0 90 58 60
        E 0 90 60 60
        E 0 90 64 60
        E 30 80 18 00
        E 0 80 24 00
        E 0 80 54 00
        E 0 80 58 00
        E 0 80 60 00
        E 0 80 64 00
        E 210 90 18 60
        E 0 90 24 60
        E 0 90 40 60
        E 0 90 48 60
        E 0 90 4c 60
        E 0 90 54 60
        E 0 90 58 60
        E 0 90 60 60
        E 0 90 64 60
        E 30 80 18 00
        E 0 80 24 00
        E 0 80 40 00
        E 0 80 48 00
        E 0 80 4c 00
        E 0 80 54 00
        E 0 80 58 00
        E 0 80 60 00
        E 0 80 64 00
        E 90 90 1a 60
        E 0 90 61 60
        E 30 80 1a 00
        E 0 80 61 00
        E 90 90 2a 60
        E 0 90 57 60
        E 0 90 63 60
        E 30 80 2a 00
        E 0 80 57 00
        E 0 80 63 00
        E 50 90 18 60
        E 0 90 60 60
        E 30 80 18 00
        E 0 80 60 00
        E 50 90 18 60
        E 0 90 60 60
        E 30 80 18 00
        E 0 80 60 00
        E 50 90 1a 60
        E 0 90 24 60
        E 0 90 3d 60
        E 0 90 49 60
        E 0 90 4c 60
        E 0 90 55 60
        E 0 90 58 60
        E 0 90 61 60
        E 0 90 64 60
        E 30 80 1a 00
        E 0 80 24 00
        E 0 80 3d 00
        E 0 80 49 00
        E 0 80 4c 00
        E 0 80 55 00
        E 0 80 58 00
        E 0 80 61 00
        E 0 80 64 00
        E 209 90 2a 60
        E 0 90 57 60
        E 0 90 63 60
        E 30 80 2a 00
        E 0 80 57 00
        E 0 80 63 00
        E 91 90 1a 60
        E 0 90 61 60
        E 30 80 1a 00
        E 0 80 61 00
        E 90 90 18 60
        E 0 90 24 60
        E 0 90 40 60
        E 0 90 48 60
        E 0 90 4c 60
        E 0 90 54 60
        E 0 90 58 60
        E 0 90 60 60
        E 0 90 64 60
        E 30 80 18 00
        E 0 80 24 00
        E 0 80 40 00
        E 0 80 48 00
        E 0 80 4c 00
        E 0 80 54 00
        E 0 80 58 00
        E 0 80 60 00
        E 0 80 64 00
        E 89 90 1a 60
        E 0 90 61 60
        E 30 80 1a 00
        E 0 80 61 00
        E 91 90 1b 60
        E 0 90 55 60
        E 0 90 61 60
        E 30 80 1b 00
        E 0 80 55 00
        E 0 80 61 00
        E 89 90 1a 60
        E 0 90 61 60
        E 30 80 1a 00
        E 0 80 61 00
        E 210 90 1a 60
        E 0 90 61 60
        E 30 80 1a 00
        E 0 80 61 00
        E 91 90 18 60
        E 0 90 24 60
        E 0 90 54 60
        E 0 90 58 60
        E 0 90 60 60
        E 0 90 64 60
        E 60 80 18 00
        E 0 80 24 00
        E 0 80 54 00
        E 0 80 58 00
        E 0 80 60 00
        E 0 80 64 00
        E 180 90 18 60
        E 0 90 24 60
        E 0 90 40 60
        E 0 90 48 60
        E 0 90 4c 60
        E 0 90 54 60
        E 0 90 58 60
        E 0 90 60 60
        E 0 90 64 60
        E 30 80 18 00
        E 0 80 24 00
        E 0 80 40 00
        E 0 80 48 00
        E 0 80 4c 00
        E 0 80 54 00
        E 0 80 58 00
        E 0 80 60 00
        E 0 80 64 00
        E 210 90 18 60
        E 0 90 24 60
        E 0 90 54 60
        E 0 90 58 60
        E 0 90 60 60
        E 0 90 64 60
        E 30 80 18 00
        E 0 80 24 00
        E 0 80 54 00
        E 0 80 58 00
        E 0 80 60 00
        E 0 80 64 00
        E 210 90 18 60
        E 0 90 24 60
        E 0 90 40 60
        E 0 90 48 60
        E 0 90 4c 60
        E 0 90 54 60
        E 0 90 58 60
        E 0 90 60 60
        E 0 90 64 60
        E 30 80 18 00
        E 0 80 24 00
        E 0 80 40 00
        E 0 80 48 00
        E 0 80 4c 00
        E 0 80 54 00
        E 0 80 58 00
        E 0 80 60 00
        E 0 80 64 00
        E 90 90 1a 60
        E 0 90 61 60
        E 30 80 1a 00
        E 0 80 61 00
        E 89 90 2a 60
        E 0 90 57 60
        E 0 90 63 60
        E 30 80 2a 00
        E 0 80 57 00
        E 0 80 63 00
        E 50 90 18 60
        E 0 90 60 60
        E 30 80 18 00
        E 0 80 60 00
        E 50 90 18 60
        E 0 90 60 60
        E 30 80 18 00
        E 0 80 60 00
        E 51 90 1a 60
        E 0 90 24 60
        E 0 90 3d 60
        E 0 90 49 60
        E 0 90 4c 60
        E 0 90 55 60
        E 0 90 58 60
        E 0 90 61 60
        E 0 90 64 60
        E 30 80 1a 00
        E 0 80 24 00
        E 0 80 3d 00
        E 0 80 49 00
        E 0 80 4c 00
        E 0 80 55 00
        E 0 80 58 00
        E 0 80 61 00
        E 0 80 64 00
        E 210 90 2a 60
        E 0 90 57 60
        E 0 90 63 60
        E 30 80 2a 00
        E 0 80 57 00
        E 0 80 63 00
        E 89 90 1a 60
        E 0 90 61 60
        E 30 80 1a 00
        E 0 80 61 00
        E 91 90 18 60
        E 0 90 24 60
        E 0 90 40 60
        E 0 90 48 60
        E 0 90 4c 60
        E 0 90 54 60
        E 0 90 58 60
        E 0 90 60 60
        E 0 90 64 60
        E 30 80 18 00
        E 0 80 24 00
        E 0 80 40 00
        E 0 80 48 00
        E 0 80 4c 00
        E 0 80 54 00
        E 0 80 58 00
        E 0 80 60 00
        E 0 80 64 00
        E 209 90 1b 60
        E 0 90 55 60
        E 0 90 61 60
        E 30 80 1b 00
        E 0 80 55 00
        E 0 80 61 00
        E 50 90 1a 60
        E 0 90 61 60
        E 30 80 1a 00
        E 0 80 61 00
        E 50 90 1b 60
        E 0 90 61 60
        E 30 80 1b 00
        E 0 80 61 00
        E 50 90 1a 60
        E 0 90 3d 60
        E 0 90 49 60
        E 0 90 55 60
        E 0 90 61 60
        E 30 80 1a 00
        E 0 80 3d 00
        E 0 80 49 00
        E 0 80 55 00
        E 0 80 61 00
        E 90 90 1b 60
        E 0 90 61 60
        E 30 80 1b 00
        E 0 80 61 00
        E 91 90 2e 60
        E 0 90 56 60
        E 0 90 62 60
        E 0 90 6e 60
        E 30 80 2e 00
        E 0 80 56 00
        E 0 80 62 00
        E 0 80 6e 00
        E 89 90 1b 60
        E 0 90 61 60
        E 30 80 1b 00
        E 0 80 61 00
        E 91 90 1a 60
        E 0 90 3d 60
        E 0 90 49 60
        E 0 90 55 60
        E 0 90 61 60
        E 30 80 1a 00
        E 0 80 3d 00
        E 0 80 49 00
        E 0 80 55 00
        E 0 80 61 00
        E 89 90 1b 60
        E 0 90 61 60
        E 30 80 1b 00
        E 0 80 61 00
        E 91 90 18 60
        E 0 90 22 60
        E 0 90 54 60
        E 0 90 58 60
        E 0 90 60 60
        E 0 90 64 60
        E 30 80 18 00
        E 0 80 22 00
        E 0 80 54 00
        E 0 80 58 00
        E 0 80 60 00
        E 0 80 64 00
        E 210 90 18 60
        E 0 90 24 60
        E 0 90 40 60
        E 0 90 48 60
        E 0 90 4c 60
        E 0 90 54 60
        E 0 90 58 60
        E 0 90 60 60
        E 0 90 64 60
        E 30 80 18 00
        E 0 80 24 00
        E 0 80 40 00
        E 0 80 48 00
        E 0 80 4c 00
        E 0 80 54 00
        E 0 80 58 00
        E 0 80 60 00
        E 0 80 64 00
        E 90 90 1a 60
        E 0 90 61 60
        E 30 80 1a 00
        E 0 80 61 00
        E 90 90 2a 60
        E 0 90 57 60
        E 0 90 63 60
        E 30 80 2a 00
        E 0 80 57 00
        E 0 80 63 00
        E 50 90 18 60
        E 0 90 60 60
        E 30 80 18 00
        E 0 80 60 00
        E 50 90 18 60
        E 0 90 60 60
        E 30 80 18 00
        E 0 80 60 00
        E 50 90 1a 60
        E 0 90 24 60
        E 0 90 3d 60
        E 0 90 49 60
        E 0 90 4c 60
        E 0 90 55 60
        E 0 90 58 60
        E 0 90 61 60
        E 0 90 64 60
        E 30 80 1a 00
        E 0 80 24 00
        E 0 80 3d 00
        E 0 80 49 00
        E 0 80 4c 00
        E 0 80 55 00
        E 0 80 58 00
        E 0 80 61 00
        E 0 80 64 00
        E 210 90 2a 60
        E 0 90 57 60
        E 0 90 63 60
        E 30 80 2a 00
        E 0 80 57 00
        E 0 80 63 00
        E 89 90 1a 60
        E 0 90 61 60
        E 30 80 1a 00
        E 0 80 61 00
        E 91 90 18 60
        E 0 90 24 60
        E 0 90 40 60
        E 0 90 48 60
        E 0 90 4c 60
        E 0 90 54 60
        E 0 90 58 60
        E 0 90 60 60
        E 0 90 64 60
        E 30 80 18 00
        E 0 80 24 00
        E 0 80 40 00
        E 0 80 48 00
        E 0 80 4c 00
        E 0 80 54 00
        E 0 80 58 00
        E 0 80 60 00
        E 0 80 64 00
        E 210 90 18 60
        E 0 90 24 60
        E 0 90 54 60
        E 0 90 58 60
        E 0 90 60 60
        E 0 90 64 60
        E 30 80 18 00
        E 0 80 24 00
        E 0 80 54 00
        E 0 80 58 00
        E 0 80 60 00
        E 0 80 64 00
        E 90 90 1a 60
        E 0 90 61 60
        E 30 80 1a 00
        E 0 80 61 00
        E 89 90 1b 60
        E 0 90 3d 60
        E 0 90 49 60
        E 0 90 55 60
        E 0 90 61 60
        E 30 80 1b 00
        E 0 80 3d 00
        E 0 80 49 00
        E 0 80 55 00
        E 0 80 61 00
        E 90 90 1a 60
        E 0 90 61 60
        E 30 80 1a 00
        E 0 80 61 00
        E 90 90 2f 60
        E 0 90 56 60
        E 0 90 62 60
        E 0 90 6e 60
        E 30 80 2f 00
        E 0 80 56 00
        E 0 80 62 00
        E 0 80 6e 00
        E 90 90 2e 60
        E 0 90 62 60
        E 0 90 6e 60
        E 30 80 2e 00
        E 0 80 62 00
        E 0 80 6e 00
        E 91 90 31 60
        E 0 90 3f 60
        E 0 90 4b 60
        E 0 90 57 60
        E 0 90 63 60
        E 0 90 6f 60
        E 30 80 31 00
        E 0 80 3f 00
        E 0 80 4b 00
        E 0 80 57 00
        E 0 80 63 00
        E 0 80 6f 00
        E 90 90 30 60
        E 0 90 63 60
        E 0 90 6f 60
        E 30 80 30 00
        E 0 80 63 00
        E 0 80 6f 00
        E 90 90 18 60
        E 0 90 24 60
        E 0 90 54 60
        E 0 90 58 60
        E 0 90 60 60
        E 0 90 64 60
        E 30 80 18 00
        E 0 80 24 00
        E 0 80 54 00
        E 0 80 58 00
        E 0 80 60 00
        E 0 80 64 00
        E 210 90 18 60
        E 0 90 2a 60
        E 0 90 3f 60
        E 0 90 48 60
        E 0 90 4b 60
        E 0 90 54 60
        E 0 90 57 60
        E 0 90 60 60
        E 0 90 63 60
        E 30 80 18 00
        E 0 80 2a 00
        E 0 80 3f 00
        E 0 80 48 00
        E 0 80 4b 00
        E 0 80 54 00
        E 0 80 57 00
        E 0 80 60 00
        E 0 80 63 00
        E 90 90 1a 60
        E 0 90 61 60
        E 30 80 1a 00
        E 0 80 61 00
        E 90 90 2a 60
        E 0 90 57 60
        E 0 90 63 60
        E 60 80 2a 00
        E 0 80 57 00
        E 0 80 63 00
        E 19 90 18 60
        E 0 90 60 60
        E 30 80 18 00
        E 0 80 60 00
        E 50 90 18 60
        E 0 90 60 60
        E 30 80 18 00
        E 0 80 60 00
        E 51 90 1a 60
        E 0 90 24 60
        E 0 90 3d 60
        E 0 90 49 60
        E 0 90 4c 60
        E 0 90 55 60
        E 0 90 58 60
        E 0 90 61 60
        E 0 90 64 60
        E 30 80 1a 00
        E 0 80 24 00
        E 0 80 3d 00
        E 0 80 49 00
        E 0 80 4c 00
        E 0 80 55 00
        E 0 80 58 00
        E 0 80 61 00
        E 0 80 64 00
        E 210 90 2a 60
        E 0 90 57 60
        E 0 90 63 60
        E 60 80 2a 00
        E 0 80 57 00
        E 0 80 63 00
        E 59 90 1a 60
        E 0 90 61 60
        E 30 80 1a 00
        E 0 80 61 00
        E 91 90 18 60
        E 0 90 24 60
        E 0 90 40 60
        E 0 90 48 60
        E 0 90 4c 60
        E 0 90 54 60
        E 0 90 58 60
        E 0 90 60 60
        E 0 90 64 60
        E 30 80 18 00
        E 0 80 24 00
        E 0 80 40 00
        E 0 80 48 00
        E 0 80 4c 00
        E 0 80 54 00
        E 0 80 58 00
        E 0 80 60 00
        E 0 80 64 00
        E 209 90 2f 60
        E 0 90 56 60
        E 0 90 62 60
        E 0 90 6e 60
        E 30 80 2f 00
        E 0 80 56 00
        E 0 80 62 00
        E 0 80 6e 00
        E 50 90 2e 60
        E 0 90 62 60
        E 0 90 6e 60
        E 30 80 2e 00
        E 0 80 62 00
        E 0 80 6e 00
        E 50 90 2f 60
        E 0 90 62 60
        E 0 90 6e 60
        E 30 80 2f 00
        E 0 80 62 00
        E 0 80 6e 00
        E 50 90 2e 60
        E 0 90 3e 60
        E 0 90 4a 60
        E 0 90 56 60
        E 0 90 62 60
        E 0 90 6e 60
        E 30 80 2e 00
        E 0 80 3e 00
        E 0 80 4a 00
        E 0 80 56 00
        E 0 80 62 00
        E 0 80 6e 00
        E 130 90 31 60
        E 0 90 63 60
        E 0 90 6f 60
        E 30 80 31 00
        E 0 80 63 00
        E 0 80 6f 00
        E 51 90 30 60
        E 0 90 57 60
        E 0 90 63 60
        E 0 90 6f 60
        E 30 80 30 00
        E 0 80 57 00
        E 0 80 63 00
        E 0 80 6f 00
        E 49 90 31 60
        E 0 90 63 60
        E 0 90 6f 60
        E 30 80 31 00
        E 0 80 63 00
        E 0 80 6f 00
        E 50 90 30 60
        E 0 90 63 60
        E 0 90 6f 60
        E 30 80 30 00
        E 0 80 63 00
        E 0 80 6f 00
        E 131 90 2a 60
        E 0 90 63 60
        E 80 80 2a 00
        E 0 80 63 00
        E 80 90 18 60
        E 0 90 22 60
        E 0 90 54 60
        E 0 90 58 60
        E 0 90 60 60
        E 0 90 64 60
        E 30 80 18 00
        E 0 80 22 00
        E 0 80 54 00
        E 0 80 58 00
        E 0 80 60 00
        E 0 80 64 00
        E 210 90 18 60
        E 0 90 2a 60
        E 0 90 3f 60
        E 0 90 48 60
        E 0 90 4b 60
        E 0 90 54 60
        E 0 90 57 60
        E 0 90 60 60
        E 0 90 63 60
        E 30 80 18 00
        E 0 80 2a 00
        E 0 80 3f 00
        E 0 80 48 00
        E 0 80 4b 00
        E 0 80 54 00
        E 0 80 57 00
        E 0 80 60 00
        E 0 80 63 00
        E 90 90 1a 60
        E 0 90 61 60
        E 30 80 1a 00
        E 0 80 61 00
        E 90 90 2a 60
        E 0 90 57 60
        E 0 90 63 60
        E 30 80 2a 00
        E 0 80 57 00
        E 0 80 63 00
        E 49 90 18 60
        E 0 90 60 60
        E 30 80 18 00
        E 0 80 60 00
        E 50 90 18 60
        E 0 90 60 60
        E 30 80 18 00
        E 0 80 60 00
        E 51 90 1a 60
        E 0 90 24 60
        E 0 90 3d 60
        E 0 90 49 60
        E 0 90 4c 60
        E 0 90 55 60
        E 0 90 58 60
        E 0 90 61 60
        E 0 90 64 60
        E 30 80 1a 00
        E 0 80 24 00
        E 0 80 3d 00
        E 0 80 49 00
        E 0 80 4c 00
        E 0 80 55 00
        E 0 80 58 00
        E 0 80 61 00
        E 0 80 64 00
        E 210 90 2a 60
        E 0 90 57 60
        E 0 90 63 60
        E 60 80 2a 00
        E 0 80 57 00
        E 0 80 63 00
        E 180 90 18 60
        E 0 90 24 60
        E 0 90 40 60
        E 0 90 48 60
        E 0 90 4c 60
        E 0 90 54 60
        E 0 90 58 60
        E 0 90 60 60
        E 0 90 64 60
        E 30 80 18 00
        E 0 80 24 00
        E 0 80 40 00
        E 0 80 48 00
        E 0 80 4c 00
        E 0 80 54 00
        E 0 80 58 00
        E 0 80 60 00
        E 0 80 64 00
        E 89 90 1a 60
        E 0 90 61 60
        E 30 80 1a 00
        E 0 80 61 00
        E 91 90 1b 60
        E 0 90 55 60
        E 0 90 61 60
        E 30 80 1b 00
        E 0 80 55 00
        E 0 80 61 00
        E 89 90 1a 60
        E 0 90 61 60
        E 30 80 1a 00
        E 0 80 61 00
        E 210 90 1a 60
        E 0 90 61 60
        E 30 80 1a 00
        E 0 80 61 00
        E 90 90 1b 60
        E 0 90 55 60
        E 0 90 61 60
        E 30 80 1b 00
        E 0 80 55 00
        E 0 80 61 00
        E 91 90 1a 60
        E 0 90 61 60
        E 30 80 1a 00
        E 0 80 61 00
        E 90 90 1b 60
        E 0 90 3d 60
        E 0 90 49 60
        E 0 90 55 60
        E 0 90 61 60
        E 30 80 1b 00
        E 0 80 3d 00
        E 0 80 49 00
        E 0 80 55 00
        E 0 80 61 00
        E 89 90 1a 60
        E 0 90 61 60
        E 30 80 1a 00
        E 0 80 61 00
        E 91 90 18 60
        E 0 90 24 60
        E 0 90 54 60
        E 0 90 58 60
        E 0 90 60 60
        E 0 90 64 60
        E 30 80 18 00
        E 0 80 24 00
        E 0 80 54 00
        E 0 80 58 00
        E 0 80 60 00
        E 0 80 64 00
        E 210 90 18 60
        E 0 90 2a 60
        E 0 90 3f 60
        E 0 90 48 60
        E 0 90 4b 60
        E 0 90 54 60
        E 0 90 57 60
        E 0 90 60 60
        E 0 90 63 60
        E 30 80 18 00
        E 0 80 2a 00
        E 0 80 3f 00
        E 0 80 48 00
        E 0 80 4b 00
        E 0 80 54 00
        E 0 80 57 00
        E 0 80 60 00
        E 0 80 63 00
        E 90 90 1a 60
        E 0 90 61 60
        E 30 80 1a 00
        E 0 80 61 00
        E 90 90 2a 60
        E 0 90 57 60
        E 0 90 63 60
        E 30 80 2a 00
        E 0 80 57 00
        E 0 80 63 00
        E 49 90 18 60
        E 0 90 60 60
        E 30 80 18 00
        E 0 80 60 00
        E 50 90 18 60
        E 0 90 60 60
        E 30 80 18 00
        E 0 80 60 00
        E 51 90 1a 60
        E 0 90 24 60
        E 0 90 3d 60
        E 0 90 49 60
        E 0 90 4c 60
        E 0 90 55 60
        E 0 90 58 60
        E 0 90 61 60
        E 0 90 64 60
        E 30 80 1a 00
        E 0 80 24 00
        E 0 80 3d 00
        E 0 80 49 00
        E 0 80 4c 00
        E 0 80 55 00
        E 0 80 58 00
        E 0 80 61 00
        E 0 80 64 00
        E 210 90 2a 60
        E 0 90 57 60
        E 0 90 63 60
        E 60 80 2a 00
        E 0 80 57 00
        E 0 80 63 00
        E 59 90 1a 60
        E 0 90 61 60
        E 30 80 1a 00
        E 0 80 61 00
        E 90 90 1b 60
        E 0 90 3d 60
        E 0 90 49 60
        E 0 90 55 60
        E 0 90 61 60
        E 30 80 1b 00
        E 0 80 3d 00
        E 0 80 49 00
        E 0 80 55 00
        E 0 80 61 00
        E 50 90 1a 60
        E 0 90 61 60
        E 30 80 1a 00
        E 0 80 61 00
        E 50 90 1b 60
        E 0 90 61 60
        E 30 80 1b 00
        E 0 80 61 00
        E 51 90 1a 60
        E 0 90 55 60
        E 0 90 61 60
        E 30 80 1a 00
        E 0 80 55 00
        E 0 80 61 00
        E 129 90 2f 60
        E 0 90 62 60
        E 0 90 6e 60
        E 30 80 2f 00
        E 0 80 62 00
        E 0 80 6e 00
        E 51 90 2e 60
        E 0 90 3e 60
        E 0 90 4a 60
        E 0 90 56 60
        E 0 90 62 60
        E 0 90 6e 60
        E 30 80 2e 00
        E 0 80 3e 00
        E 0 80 4a 00
        E 0 80 56 00
        E 0 80 62 00
        E 0 80 6e 00
        E 50 90 2f 60
        E 0 90 62 60
        E 0 90 6e 60
        E 30 80 2f 00
        E 0 80 62 00
        E 0 80 6e 00
        E 50 90 2e 60
        E 0 90 62 60
        E 0 90 6e 60
        E 30 80 2e 00
        E 0 80 62 00
        E 0 80 6e 00
        E 49 90 31 60
        E 0 90 57 60
        E 0 90 63 60
        E 0 90 6f 60
        E 30 80 31 00
        E 0 80 57 00
        E 0 80 63 00
        E 0 80 6f 00
        E 50 90 30 60
        E 0 90 63 60
        E 0 90 6f 60
        E 30 80 30 00
        E 0 80 63 00
        E 0 80 6f 00
        E 50 90 31 60
        E 0 90 63 60
        E 0 90 6f 60
        E 30 80 31 00
        E 0 80 63 00
        E 0 80 6f 00
        E 51 90 30 60
        E 0 90 3f 60
        E 0 90 4b 60
        E 0 90 57 60
        E 0 90 63 60
        E 0 90 6f 60
        E 30 80 30 00
        E 0 80 3f 00
        E 0 80 4b 00
        E 0 80 57 00
        E 0 80 63 00
        E 0 80 6f 00
        E 49 90 31 60
        E 0 90 63 60
        E 0 90 6f 60
        E 30 80 31 00
        E 0 80 63 00
        E 0 80 6f 00
        E 50 90 30 60
        E 0 90 63 60
        E 0 90 6f 60
        E 30 80 30 00
        E 0 80 63 00
        E 0 80 6f 00
        E 51 90 18 60
        E 0 90 24 60
        E 0 90 54 60
        E 0 90 58 60
        E 0 90 60 60
        E 0 90 64 60
        E 0 90 74 60
        E 30 80 18 00
        E 0 80 24 00
        E 0 80 54 00
        E 0 80 58 00
        E 0 80 60 00
        E 0 80 64 00
        E 210 90 18 60
        E 0 90 2a 60
        E 0 90 3f 60
        E 0 90 48 60
        E 0 90 4b 60
        E 0 90 54 60
        E 0 90 57 60
        E 0 90 60 60
        E 0 90 63 60
        E 30 80 18 00
        E 0 80 2a 00
        E 0 80 3f 00
        E 0 80 48 00
        E 0 80 4b 00
        E 0 80 54 00
        E 0 80 57 00
        E 0 80 60 00
        E 0 80 63 00
        E 210 90 18 60
        E 0 90 24 60
        E 0 90 54 60
        E 0 90 58 60
        E 0 90 60 60
        E 0 90 64 60
        E 30 80 18 00
        E 0 80 24 00
        E 0 80 54 00
        E 0 80 58 00
        E 0 80 60 00
        E 0 80 64 00
        E 210 90 1a 60
        E 0 90 3d 60
        E 0 90 49 60
        E 0 90 55 60
        E 0 90 61 60
        E 30 80 1a 00
        E 0 80 3d 00
        E 0 80 49 00
        E 0 80 55 00
        E 0 80 61 00
        E 210 90 18 60
        E 0 90 24 60
        E 0 90 54 60
        E 0 90 58 60
        E 0 90 60 60
        E 0 90 64 60
        E 30 80 18 00
        E 0 80 24 00
        E 0 80 54 00
        E 0 80 58 00
        E 0 80 60 00
        E 0 80 64 00
        E 210 90 1b 60
        E 0 90 3d 60
        E 0 90 49 60
        E 0 90 55 60
        E 0 90 61 60
        E 30 80 1b 00
        E 0 80 3d 00
        E 0 80 49 00
        E 0 80 55 00
        E 0 80 61 00
        E 90 90 18 60
        E 0 90 22 60
        E 0 90 60 60
        E 0 90 64 60
        E 30 80 18 00
        E 0 80 22 00
        E 0 80 60 00
        E 0 80 64 00
        E 210 90 18 60
        E 0 90 60 60
        E 30 80 18 00
        E 0 80 60 00
        E 90 90 1a 60
        E 0 90 24 60
        E 0 90 3d 60
        E 0 90 49 60
        E 0 90 4c 60
        E 0 90 55 60
        E 0 90 58 60
        E 0 90 61 60
        E 0 90 64 60
        E 30 80 1a 00
        E 0 80 24 00
        E 0 80 3d 00
        E 0 80 49 00
        E 0 80 4c 00
        E 0 80 55 00
        E 0 80 58 00
        E 0 80 61 00
        E 0 80 64 00
        E 90 90 18 60
        E 0 90 60 60
        E 30 80 18 00
        E 0 80 60 00
        E 90 90 1b 60
        E 0 90 55 60
        E 0 90 61 60
        E 30 80 1b 00
        E 0 80 55 00
        E 0 80 61 00
        E 50 90 1a 60
        E 0 90 61 60
        E 30 80 1a 00
        E 0 80 61 00
        E 50 90 1b 60
        E 0 90 61 60
        E 30 80 1b 00
        E 0 80 61 00
        E 50 90 1a 60
        E 0 90 3d 60
        E 0 90 49 60
        E 0 90 55 60
        E 0 90 61 60
        E 30 80 1a 00
        E 0 80 3d 00
        E 0 80 49 00
        E 0 80 55 00
        E 0 80 61 00
        E 130 90 2f 60
        E 0 90 62 60
        E 0 90 6e 60
        E 30 80 2f 00
        E 0 80 62 00
        E 0 80 6e 00
        E 50 90 2e 60
        E 0 90 56 60
        E 0 90 62 60
        E 0 90 6e 60
        E 30 80 2e 00
        E 0 80 56 00
        E 0 80 62 00
        E 0 80 6e 00
        E 50 90 2f 60
        E 0 90 62 60
        E 0 90 6e 60
        E 30 80 2f 00
        E 0 80 62 00
        E 0 80 6e 00
        E 50 90 2e 60
        E 0 90 62 60
        E 0 90 6e 60
        E 30 80 2e 00
        E 0 80 62 00
        E 0 80 6e 00
        E 50 90 31 60
        E 0 90 3f 60
        E 0 90 4b 60
        E 0 90 57 60
        E 0 90 63 60
        E 0 90 6f 60
        E 30 80 31 00
        E 0 80 3f 00
        E 0 80 4b 00
        E 0 80 57 00
        E 0 80 63 00
        E 0 80 6f 00
        E 49 90 30 60
        E 0 90 63 60
        E 0 90 6f 60
        E 30 80 30 00
        E 0 80 63 00
        E 0 80 6f 00
        E 51 90 31 60
        E 0 90 63 60
        E 0 90 6f 60
        E 30 80 31 00
        E 0 80 63 00
        E 0 80 6f 00
        E 50 90 30 60
        E 0 90 57 60
        E 0 90 63 60
        E 0 90 6f 60
        E 30 80 30 00
        E 0 80 57 00
        E 0 80 63 00
        E 0 80 6f 00
        E 50 90 31 60
        E 0 90 63 60
        E 0 90 6f 60
        E 30 80 31 00
        E 0 80 63 00
        E 0 80 6f 00
        E 50 90 30 60
        E 0 90 63 60
        E 0 90 6f 60
        E 30 80 30 00
        E 0 80 63 00
        E 0 80 6f 00
        E 50 80 74 00
        E 0 90 18 60
        E 0 90 24 60
        E 0 90 40 60
        E 0 90 48 60
        E 0 90 4c 60
        E 0 90 54 60
        E 0 90 58 60
        E 0 90 60 60
        E 0 90 64 60
        E 30 80 18 00
        E 0 80 24 00
        E 0 80 40 00
        E 0 80 48 00
        E 0 80 4c 00
        E 0 80 54 00
        E 0 80 58 00
        E 0 80 60 00
        E 0 80 64 00
        E 210 90 18 60
        E 0 90 2a 60
        E 0 90 54 60
        E 0 90 57 60
        E 0 90 60 60
        E 0 90 63 60
        E 30 80 18 00
        E 0 80 2a 00
        E 0 80 54 00
        E 0 80 57 00
        E 0 80 60 00
        E 0 80 63 00
        E 210 90 18 60
        E 0 90 24 60
        E 0 90 40 60
        E 0 90 48 60
        E 0 90 4c 60
        E 0 90 54 60
        E 0 90 58 60
        E 0 90 60 60
        E 0 90 64 60
        E 30 80 18 00
        E 0 80 24 00
        E 0 80 40 00
        E 0 80 48 00
        E 0 80 4c 00
        E 0 80 54 00
        E 0 80 58 00
        E 0 80 60 00
        E 0 80 64 00
        E 210 90 1a 60
        E 0 90 55 60
        E 0 90 61 60
        E 30 80 1a 00
        E 0 80 55 00
        E 0 80 61 00
        E 210 90 18 60
        E 0 90 24 60
        E 0 90 40 60
        E 0 90 48 60
        E 0 90 4c 60
        E 0 90 54 60
        E 0 90 58 60
        E 0 90 60 60
        E 0 90 64 60
        E 30 80 18 00
        E 0 80 24 00
        E 0 80 40 00
        E 0 80 48 00
        E 0 80 4c 00
        E 0 80 54 00
        E 0 80 58 00
        E 0 80 60 00
        E 0 80 64 00
        E 210 90 1b 60
        E 0 90 55 60
        E 0 90 61 60
        E 30 80 1b 00
        E 0 80 55 00
        E 0 80 61 00
        E 90 90 18 60
        E 0 90 22 60
        E 0 90 60 60
        E 0 90 64 60
        E 30 80 18 00
        E 0 80 22 00
        E 0 80 60 00
        E 0 80 64 00
        E 210 90 18 60
        E 0 90 60 60
        E 30 80 18 00
        E 0 80 60 00
        E 90 90 1a 60
        E 0 90 24 60
        E 0 90 55 60
        E 0 90 58 60
        E 0 90 61 60
        E 0 90 64 60
        E 30 80 1a 00
        E 0 80 24 00
        E 0 80 55 00
        E 0 80 58 00
        E 0 80 61 00
        E 0 80 64 00
        E 90 90 18 60
        E 0 90 60 60
        E 30 80 18 00
        E 0 80 60 00
        E 90 90 1b 60
        E 0 90 3d 60
        E 0 90 49 60
        E 0 90 55 60
        E 0 90 61 60
        E 0 90 78 60
        E 0 90 79 60
        E 0 90 7a 60
        E 0 90 7b 60
        E 0 90 7c 60
        E 30 80 1b 00
        E 0 80 3d 00
        E 0 80 49 00
        E 0 80 55 00
        E 0 80 61 00
        E 50 90 1a 60
        E 0 90 61 60
        E 30 80 1a 00
        E 0 80 61 00
        E 50 90 1b 60
        E 0 90 61 60
        E 30 80 1b 00
        E 0 80 61 00
        E 50 90 1a 60
        E 0 90 55 60
        E 0 90 61 60
        E 30 80 1a 00
        E 0 80 55 00
        E 0 80 61 00
        E 130 90 2f 60
        E 0 90 62 60
        E 0 90 6e 60
        E 30 80 2f 00
        E 0 80 62 00
        E 0 80 6e 00
        E 50 90 2e 60
        E 0 90 3e 60
        E 0 90 4a 60
        E 0 90 56 60
        E 0 90 62 60
        E 0 90 6e 60
        E 30 80 2e 00
        E 0 80 3e 00
        E 0 80 4a 00
        E 0 80 56 00
        E 0 80 62 00
        E 0 80 6e 00
        E 50 90 2f 60
        E 0 90 62 60
        E 0 90 6e 60
        E 30 80 2f 00
        E 0 80 62 00
        E 0 80 6e 00
        E 50 90 2e 60
        E 0 90 62 60
        E 0 90 6e 60
        E 30 80 2e 00
        E 0 80 62 00
        E 0 80 6e 00
        E 50 90 31 60
        E 0 90 57 60
        E 0 90 63 60
        E 0 90 6f 60
        E 30 80 31 00
        E 0 80 57 00
        E 0 80 63 00
        E 0 80 6f 00
        E 50 90 30 60
        E 0 90 63 60
        E 0 90 6f 60
        E 30 80 30 00
        E 0 80 63 00
        E 0 80 6f 00
        E 50 90 31 60
        E 0 90 63 60
        E 0 90 6f 60
        E 30 80 31 00
        E 0 80 63 00
        E 0 80 6f 00
        E 50 90 30 60
        E 0 90 3f 60
        E 0 90 4b 60
        E 0 90 57 60
        E 0 90 63 60
        E 0 90 6f 60
        E 30 80 30 00
        E 0 80 3f 00
        E 0 80 4b 00
        E 0 80 57 00
        E 0 80 63 00
        E 0 80 6f 00
        E 50 90 31 60
        E 0 90 63 60
        E 0 90 6f 60
        E 30 80 31 00
        E 0 80 63 00
        E 0 80 6f 00
        E 50 90 30 60
        E 0 90 63 60
        E 0 90 6f 60
        E 30 80 30 00
        E 0 80 63 00
        E 0 80 6f 00
        E 50 80 78 00
        E 0 80 79 00
        E 0 80 7a 00
        E 0 80 7b 00
        E 0 80 7c 00
        E 0 90 18 60
        E 0 90 24 60
        E 0 90 54 60
        E 0 90 58 60
        E 0 90 60 60
        E 0 90 64 60
        E 30 80 18 00
        E 0 80 24 00
        E 0 80 54 00
        E 0 80 58 00
        E 0 80 60 00
        E 0 80 64 00
        E 210 90 18 60
        E 0 90 2a 60
        E 0 90 3f 60
        E 0 90 48 60
        E 0 90 4b 60
        E 0 90 54 60
        E 0 90 57 60
        E 0 90 60 60
        E 0 90 63 60
        E 30 80 18 00
        E 0 80 2a 00
        E 0 80 3f 00
        E 0 80 48 00
        E 0 80 4b 00
        E 0 80 54 00
        E 0 80 57 00
        E 0 80 60 00
        E 0 80 63 00
        E 210 90 18 60
        E 0 90 24 60
        E 0 90 54 60
        E 0 90 58 60
        E 0 90 60 60
        E 0 90 64 60
        E 30 80 18 00
        E 0 80 24 00
        E 0 80 54 00
        E 0 80 58 00
        E 0 80 60 00
        E 0 80 64 00
        E 210 90 1a 60
        E 0 90 3d 60
        E 0 90 49 60
        E 0 90 55 60
        E 0 90 61 60
        E 30 80 1a 00
        E 0 80 3d 00
        E 0 80 49 00
        E 0 80 55 00
        E 0 80 61 00
        E 210 90 18 60
        E 0 90 24 60
        E 0 90 54 60
        E 0 90 58 60
        E 0 90 60 60
        E 0 90 64 60
        E 30 80 18 00
        E 0 80 24 00
        E 0 80 54 00
        E 0 80 58 00
        E 0 80 60 00
        E 0 80 64 00
        E 210 90 1b 60
        E 0 90 3d 60
        E 0 90 49 60
        E 0 90 55 60
        E 0 90 61 60
        E 30 80 1b 00
        E 0 80 3d 00
        E 0 80 49 00
        E 0 80 55 00
        E 0 80 61 00
        E 89 90 18 60
        E 0 90 22 60
        E 0 90 60 60
        E 0 90 64 60
        E 30 80 18 00
        E 0 80 22 00
        E 0 80 60 00
        E 0 80 64 00
        E 211 90 18 60
        E 0 90 60 60
        E 30 80 18 00
        E 0 80 60 00
        E 90 90 1a 60
        E 0 90 24 60
        E 0 90 3d 60
        E 0 90 49 60
        E 0 90 4c 60
        E 0 90 55 60
        E 0 90 58 60
        E 0 90 61 60
        E 0 90 64 60
        E 30 80 1a 00
        E 0 80 24 00
        E 0 80 3d 00
        E 0 80 49 00
        E 0 80 4c 00
        E 0 80 55 00
        E 0 80 58 00
        E 0 80 61 00
        E 0 80 64 00
        E 90 90 18 60
        E 0 90 60 60
        E 30 80 18 00
        E 0 80 60 00
        E 90 90 1b 60
        E 0 90 55 60
        E 0 90 61 60
        E 30 80 1b 00
        E 0 80 55 00
        E 0 80 61 00
        E 50 90 1a 60
        E 0 90 61 60
        E 30 80 1a 00
        E 0 80 61 00
        E 49 90 1b 60
        E 0 90 61 60
        E 30 80 1b 00
        E 0 80 61 00
        E 51 90 1a 60
        E 0 90 3d 60
        E 0 90 49 60
        E 0 90 55 60
        E 0 90 61 60
        E 30 80 1a 00
        E 0 80 3d 00
        E 0 80 49 00
        E 0 80 55 00
        E 0 80 61 00
        E 130 90 2f 60
        E 0 90 62 60
        E 0 90 6e 60
        E 30 80 2f 00
        E 0 80 62 00
        E 0 80 6e 00
        E 50 90 2e 60
        E 0 90 56 60
        E 0 90 62 60
        E 0 90 6e 60
        E 30 80 2e 00
        E 0 80 56 00
        E 0 80 62 00
        E 0 80 6e 00
        E 50 90 2f 60
        E 0 90 62 60
        E 0 90 6e 60
        E 30 80 2f 00
        E 0 80 62 00
        E 0 80 6e 00
        E 50 90 2e 60
        E 0 90 62 60
        E 0 90 6e 60
        E 30 80 2e 00
        E 0 80 62 00
        E 0 80 6e 00
        E 50 90 31 60
        E 0 90 3f 60
        E 0 90 4b 60
        E 0 90 57 60
        E 0 90 63 60
        E 0 90 6f 60
        E 30 80 31 00
        E 0 80 3f 00
        E 0 80 4b 00
        E 0 80 57 00
        E 0 80 63 00
        E 0 80 6f 00
        E 50 90 30 60
        E 0 90 63 60
        E 0 90 6f 60
        E 30 80 30 00
        E 0 80 63 00
        E 0 80 6f 00
        E 50 90 31 60
        E 0 90 63 60
        E 0 90 6f 60
        E 30 80 31 00
        E 0 80 63 00
        E 0 80 6f 00
        E 50 90 30 60
        E 0 90 57 60
        E 0 90 63 60
        E 0 90 6f 60
        E 30 80 30 00
        E 0 80 57 00
        E 0 80 63 00
        E 0 80 6f 00
        E 50 90 31 60
        E 0 90 63 60
        E 0 90 6f 60
        E 30 80 31 00
        E 0 80 63 00
        E 0 80 6f 00
        E 49 90 30 60
        E 0 90 63 60
        E 0 90 6f 60
        E 30 80 30 00
        E 0 80 63 00
        E 0 80 6f 00
        E 51 90 18 60
        E 0 90 24 60
        E 0 90 40 60
        E 0 90 48 60
        E 0 90 4c 60
        E 0 90 54 60
        E 0 90 58 60
        E 0 90 60 60
        E 0 90 64 60
        E 30 80 18 00
        E 0 80 24 00
        E 0 80 40 00
        E 0 80 48 00
        E 0 80 4c 00
        E 0 80 54 00
        E 0 80 58 00
        E 0 80 60 00
        E 0 80 64 00
        E 210 90 18 60
        E 0 90 2a 60
        E 0 90 54 60
        E 0 90 57 60
        E 0 90 60 60
        E 0 90 63 60
        E 30 80 18 00
        E 0 80 2a 00
        E 0 80 54 00
        E 0 80 57 00
        E 0 80 60 00
        E 0 80 63 00
        E 210 90 18 60
        E 0 90 24 60
        E 0 90 40 60
        E 0 90 48 60
        E 0 90 4c 60
        E 0 90 54 60
        E 0 90 58 60
        E 0 90 60 60
        E 0 90 64 60
        E 30 80 18 00
        E 0 80 24 00
        E 0 80 40 00
        E 0 80 48 00
        E 0 80 4c 00
        E 0 80 54 00
        E 0 80 58 00
        E 0 80 60 00
        E 0 80 64 00
        E 209 90 1a 60
        E 0 90 55 60
        E 0 90 61 60
        E 30 80 1a 00
        E 0 80 55 00
        E 0 80 61 00
        E 211 90 18 60
        E 0 90 24 60
        E 0 90 40 60
        E 0 90 48 60
        E 0 90 4c 60
        E 0 90 54 60
        E 0 90 58 60
        E 0 90 60 60
        E 0 90 64 60
        E 30 80 18 00
        E 0 80 24 00
        E 0 80 40 00
        E 0 80 48 00
        E 0 80 4c 00
        E 0 80 54 00
        E 0 80 58 00
        E 0 80 60 00
        E 0 80 64 00
        E 210 90 1b 60
        E 0 90 55 60
        E 0 90 61 60
        E 30 80 1b 00
        E 0 80 55 00
        E 0 80 61 00
        E 89 90 18 60
        E 0 90 22 60
        E 0 90 60 60
        E 0 90 64 60
        E 30 80 18 00
        E 0 80 22 00
        E 0 80 60 00
        E 0 80 64 00
        E 210 90 18 60
        E 0 90 60 60
        E 30 80 18 00
        E 0 80 60 00
        E 91 90 1a 60
        E 0 90 24 60
        E 0 90 55 60
        E 0 90 58 60
        E 0 90 61 60
        E 0 90 64 60
        E 30 80 1a 00
        E 0 80 24 00
        E 0 80 55 00
        E 0 80 58 00
        E 0 80 61 00
        E 0 80 64 00
        E 210 90 18 60
        E 0 90 24 60
        E 0 90 40 60
        E 0 90 48 60
        E 0 90 4c 60
        E 0 90 54 60
        E 0 90 58 60
        E 0 90 60 60
        E 0 90 64 60
        E 30 80 18 00
        E 0 80 24 00
        E 0 80 40 00
        E 0 80 48 00
        E 0 80 4c 00
        E 0 80 54 00
        E 0 80 58 00
        E 0 80 60 00
        E 0 80 64 00
        E 209 90 1a 60
        E 0 90 1f 60
        E 0 90 55 60
        E 0 90 56 60
        E 0 90 61 60
        E 0 90 62 60
        E 30 80 1a 00
        E 0 80 1f 00
        E 0 80 55 00
        E 0 80 56 00
        E 0 80 61 00
        E 0 80 62 00
        E 211 90 1f 60
        E 0 90 3e 60
        E 0 90 4a 60
        E 0 90 56 60
        E 0 90 62 60
        E 30 80 1f 00
        E 0 80 3e 00
        E 0 80 4a 00
        E 0 80 56 00
        E 0 80 62 00
        E 50 90 18 60
        E 0 90 60 60
        E 30 80 18 00
        E 0 80 60 00
        E 50 90 18 60
        E 0 90 60 60
        E 30 80 18 00
        E 0 80 60 00
        E 50 90 1a 60
        E 0 90 1f 60
        E 0 90 55 60
        E 0 90 56 60
        E 0 90 61 60
        E 0 90 62 60
        E 30 80 1a 00
        E 0 80 1f 00
        E 0 80 55 00
        E 0 80 56 00
        E 0 80 61 00
        E 0 80 62 00
        E 210 90 18 60
        E 0 90 1f 60
        E 0 90 3e 60
        E 0 90 48 60
        E 0 90 4a 60
        E 0 90 54 60
        E 0 90 56 60
        E 0 90 60 60
        E 0 90 62 60
        E 30 80 18 00
        E 0 80 1f 00
        E 0 80 3e 00
        E 0 80 48 00
        E 0 80 4a 00
        E 0 80 54 00
        E 0 80 56 00
        E 0 80 60 00
        E 0 80 62 00
        E 210 90 1a 60
        E 0 90 1f 60
        E 0 90 55 60
        E 0 90 56 60
        E 0 90 61 60
        E 0 90 62 60
        E 30 80 1a 00
        E 0 80 1f 00
        E 0 80 55 00
        E 0 80 56 00
        E 0 80 61 00
        E 0 80 62 00
        E 89 90 18 60
        E 0 90 60 60
        E 30 80 18 00
        E 0 80 60 00
        E 91 90 1f 60
        E 0 90 3e 60
        E 0 90 4a 60
        E 0 90 56 60
        E 0 90 62 60
        E 30 80 1f 00
        E 0 80 3e 00
        E 0 80 4a 00
        E 0 80 56 00
        E 0 80 62 00
        E 90 90 18 60
        E 0 90 60 60
        E 30 80 18 00
        E 0 80 60 00
        E 90 90 1a 60
        E 0 90 1f 60
        E 0 90 55 60
        E 0 90 56 60
        E 0 90 61 60
        E 0 90 62 60
        E 30 80 1a 00
        E 0 80 1f 00
        E 0 80 55 00
        E 0 80 56 00
        E 0 80 61 00
        E 0 80 62 00
        E 210 90 18 60
        E 0 90 1f 60
        E 0 90 3e 60
        E 0 90 48 60
        E 0 90 4a 60
        E 0 90 54 60
        E 0 90 56 60
        E 0 90 60 60
        E 0 90 62 60
        E 30 80 18 00
        E 0 80 1f 00
        E 0 80 3e 00
        E 0 80 48 00
        E 0 80 4a 00
        E 0 80 54 00
        E 0 80 56 00
        E 0 80 60 00
        E 0 80 62 00
        E 209 90 1a 60
        E 0 90 1f 60
        E 0 90 55 60
        E 0 90 56 60
        E 0 90 61 60
        E 0 90 62 60
        E 30 80 1a 00
        E 0 80 1f 00
        E 0 80 55 00
        E 0 80 56 00
        E 0 80 61 00
        E 0 80 62 00
        E 211 90 1f 60
        E 0 90 3e 60
        E 0 90 4a 60
        E 0 90 56 60
        E 0 90 62 60
        E 30 80 1f 00
        E 0 80 3e 00
        E 0 80 4a 00
        E 0 80 56 00
        E 0 80 62 00
        E 50 90 18 60
        E 0 90 60 60
        E 30 80 18 00
        E 0 80 60 00
        E 50 90 18 60
        E 0 90 60 60
        E 30 80 18 00
        E 0 80 60 00
        E 50 90 1a 60
        E 0 90 1f 60
        E 0 90 55 60
        E 0 90 56 60
        E 0 90 61 60
        E 0 90 62 60
        E 0 90 78 60
        E 0 90 79 60
        E 0 90 7a 60
        E 0 90 7b 60
        E 0 90 7c 60
        E 30 80 1a 00
        E 0 80 1f 00
        E 0 80 55 00
        E 0 80 56 00
        E 0 80 61 00
        E 0 80 62 00
        E 210 90 18 60
        E 0 90 1f 60
        E 0 90 3e 60
        E 0 90 48 60
        E 0 90 4a 60
        E 0 90 54 60
        E 0 90 56 60
        E 0 90 60 60
        E 0 90 62 60
        E 30 80 18 00
        E 0 80 1f 00
        E 0 80 3e 00
        E 0 80 48 00
        E 0 80 4a 00
        E 0 80 54 00
        E 0 80 56 00
        E 0 80 60 00
        E 0 80 62 00
        E 210 90 1a 60
        E 0 90 1f 60
        E 0 90 55 60
        E 0 90 56 60
        E 0 90 61 60
        E 0 90 62 60
        E 30 80 1a 00
        E 0 80 1f 00
        E 0 80 55 00
        E 0 80 56 00
        E 0 80 61 00
        E 0 80 62 00
        E 89 90 18 60
        E 0 90 60 60
        E 30 80 18 00
        E 0 80 60 00
        E 91 90 1f 60
        E 0 90 3e 60
        E 0 90 4a 60
        E 0 90 56 60
        E 0 90 62 60
        E 30 80 1f 00
        E 0 80 3e 00
        E 0 80 4a 00
        E 0 80 56 00
        E 0 80 62 00
        E 90 90 18 60
        E 0 90 60 60
        E 30 80 18 00
        E 0 80 60 00
        E 90 90 1b 60
        E 0 90 55 60
        E 0 90 61 60
        E 30 80 1b 00
        E 0 80 55 00
        E 0 80 61 00
        E 90 90 1a 60
        E 0 90 61 60
        E 30 80 1a 00
        E 0 80 61 00
        E 90 80 78 00
        E 0 80 79 00
        E 0 80 7a 00
        E 0 80 7b 00
        E 0 80 7c 00
        E 0 90 18 60
        E 0 90 24 60
        E 0 90 40 60
        E 0 90 48 60
        E 0 90 4c 60
        E 0 90 54 60
        E 0 90 58 60
        E 0 90 60 60
        E 0 90 64 60
        E 30 80 18 00
        E 0 80 24 00
        E 0 80 40 00
        E 0 80 48 00
        E 0 80 4c 00
        E 0 80 54 00
        E 0 80 58 00
        E 0 80 60 00
        E 0 80 64 00
        E 210 90 1a 60
        E 0 90 1f 60
        E 0 90 55 60
        E 0 90 56 60
        E 0 90 61 60
        E 0 90 62 60
        E 30 80 1a 00
        E 0 80 1f 00
        E 0 80 55 00
        E 0 80 56 00
        E 0 80 61 00
        E 0 80 62 00
        E 211 90 1f 60
        E 0 90 3e 60
        E 0 90 4a 60
        E 0 90 56 60
        E 0 90 62 60
        E 30 80 1f 00
        E 0 80 3e 00
        E 0 80 4a 00
        E 0 80 56 00
        E 0 80 62 00
        E 48 90 18 60
        E 0 90 60 60
        E 30 80 18 00
        E 0 80 60 00
        E 50 90 18 60
        E 0 90 60 60
        E 30 80 18 00
        E 0 80 60 00
        E 51 90 1a 60
        E 0 90 1f 60
        E 0 90 55 60
        E 0 90 56 60
        E 0 90 61 60
        E 0 90 62 60
        E 30 80 1a 00
        E 0 80 1f 00
        E 0 80 55 00
        E 0 80 56 00
        E 0 80 61 00
        E 0 80 62 00
        E 210 90 18 60
        E 0 90 1f 60
        E 0 90 3e 60
        E 0 90 48 60
        E 0 90 4a 60
        E 0 90 54 60
        E 0 90 56 60
        E 0 90 60 60
        E 0 90 62 60
        E 30 80 18 00
        E 0 80 1f 00
        E 0 80 3e 00
        E 0 80 48 00
        E 0 80 4a 00
        E 0 80 54 00
        E 0 80 56 00
        E 0 80 60 00
        E 0 80 62 00
        E 210 90 1a 60
        E 0 90 1f 60
        E 0 90 55 60
        E 0 90 56 60
        E 0 90 61 60
        E 0 90 62 60
        E 30 80 1a 00
        E 0 80 1f 00
        E 0 80 55 00
        E 0 80 56 00
        E 0 80 61 00
        E 0 80 62 00
        E 89 90 18 60
        E 0 90 60 60
        E 30 80 18 00
        E 0 80 60 00
        E 91 90 1f 60
        E 0 90 3e 60
        E 0 90 4a 60
        E 0 90 56 60
        E 0 90 62 60
        E 30 80 1f 00
        E 0 80 3e 00
        E 0 80 4a 00
        E 0 80 56 00
        E 0 80 62 00
        E 89 90 18 60
        E 0 90 60 60
        E 30 80 18 00
        E 0 80 60 00
        E 91 90 1a 60
        E 0 90 1f 60
        E 0 90 55 60
        E 0 90 56 60
        E 0 90 61 60
        E 0 90 62 60
        E 30 80 1a 00
        E 0 80 1f 00
        E 0 80 55 00
        E 0 80 56 00
        E 0 80 61 00
        E 0 80 62 00
        E 210 90 18 60
        E 0 90 1f 60
        E 0 90 3e 60
        E 0 90 48 60
        E 0 90 4a 60
        E 0 90 54 60
        E 0 90 56 60
        E 0 90 60 60
        E 0 90 62 60
        E 30 80 18 00
        E 0 80 1f 00
        E 0 80 3e 00
        E 0 80 48 00
        E 0 80 4a 00
        E 0 80 54 00
        E 0 80 56 00
        E 0 80 60 00
        E 0 80 62 00
        E 210 90 1a 60
        E 0 90 1f 60
        E 0 90 55 60
        E 0 90 56 60
        E 0 90 61 60
        E 0 90 62 60
        E 30 80 1a 00
        E 0 80 1f 00
        E 0 80 55 00
        E 0 80 56 00
        E 0 80 61 00
        E 0 80 62 00
        E 210 90 1f 60
        E 0 90 3e 60
        E 0 90 4a 60
        E 0 90 56 60
        E 0 90 62 60
        E 30 80 1f 00
        E 0 80 3e 00
        E 0 80 4a 00
        E 0 80 56 00
        E 0 80 62 00
        E 50 90 18 60
        E 0 90 60 60
        E 30 80 18 00
        E 0 80 60 00
        E 50 90 18 60
        E 0 90 60 60
        E 30 80 18 00
        E 0 80 60 00
        E 50 90 1a 60
        E 0 90 1f 60
        E 0 90 55 60
        E 0 90 56 60
        E 0 90 61 60
        E 0 90 62 60
        E 30 80 1a 00
        E 0 80 1f 00
        E 0 80 55 00
        E 0 80 56 00
        E 0 80 61 00
        E 0 80 62 00
        E 210 90 18 60
        E 0 90 1f 60
        E 0 90 3e 60
        E 0 90 48 60
        E 0 90 4a 60
        E 0 90 54 60
        E 0 90 56 60
        E 0 90 60 60
        E 0 90 62 60
        E 30 80 18 00
        E 0 80 1f 00
        E 0 80 3e 00
        E 0 80 48 00
        E 0 80 4a 00
        E 0 80 54 00
        E 0 80 56 00
        E 0 80 60 00
        E 0 80 62 00
        E 210 90 1a 60
        E 0 90 1f 60
        E 0 90 55 60
        E 0 90 56 60
        E 0 90 61 60
        E 0 90 62 60
        E 30 80 1a 00
        E 0 80 1f 00
        E 0 80 55 00
        E 0 80 56 00
        E 0 80 61 00
        E 0 80 62 00
        E 210 90 18 60
        E 0 90 1f 60
        E 0 90 3e 60
        E 0 90 48 60
        E 0 90 4a 60
        E 0 90 54 60
        E 0 90 56 60
        E 0 90 60 60
        E 0 90 62 60
        E 30 80 18 00
        E 0 80 1f 00
        E 0 80 3e 00
        E 0 80 48 00
        E 0 80 4a 00
        E 0 80 54 00
        E 0 80 56 00
        E 0 80 60 00
        E 0 80 62 00
        E 90 90 1a 60
        E 0 90 61 60
        E 30 80 1a 00
        E 0 80 61 00
        E 90 90 1b 60
        E 0 90 55 60
        E 0 90 61 60
        E 30 80 1b 00
        E 0 80 55 00
        E 0 80 61 00
        E 90 90 1a 60
        E 0 90 61 60
        E 30 80 1a 00
        E 0 80 61 00
        E 90 90 18 60
        E 0 90 24 60
        E 0 90 40 60
        E 0 90 48 60
        E 0 90 4c 60
        E 0 90 54 60
        E 0 90 58 60
        E 0 90 60 60
        E 0 90 64 60
        E 30 80 18 00
        E 0 80 24 00
        E 0 80 40 00
        E 0 80 48 00
        E 0 80 4c 00
        E 0 80 54 00
        E 0 80 58 00
        E 0 80 60 00
        E 0 80 64 00
        E 210 90 1a 60
        E 0 90 1f 60
        E 0 90 55 60
        E 0 90 56 60
        E 0 90 61 60
        E 0 90 62 60
        E 30 80 1a 00
        E 0 80 1f 00
        E 0 80 55 00
        E 0 80 56 00
        E 0 80 61 00
        E 0 80 62 00
        E 211 90 1f 60
        E 0 90 3e 60
        E 0 90 4a 60
        E 0 90 56 60
        E 0 90 62 60
        E 30 80 1f 00
        E 0 80 3e 00
        E 0 80 4a 00
        E 0 80 56 00
        E 0 80 62 00
        E 48 90 18 60
        E 0 90 60 60
        E 30 80 18 00
        E 0 80 60 00
        E 50 90 18 60
        E 0 90 60 60
        E 30 80 18 00
        E 0 80 60 00
        E 51 90 1a 60
        E 0 90 1f 60
        E 0 90 55 60
        E 0 90 56 60
        E 0 90 61 60
        E 0 90 62 60
        E 30 80 1a 00
        E 0 80 1f 00
        E 0 80 55 00
        E 0 80 56 00
        E 0 80 61 00
        E 0 80 62 00
        E 210 90 18 60
        E 0 90 1f 60
        E 0 90 3e 60
        E 0 90 48 60
        E 0 90 4a 60
        E 0 90 54 60
        E 0 90 56 60
        E 0 90 60 60
        E 0 90 62 60
        E 30 80 18 00
        E 0 80 1f 00
        E 0 80 3e 00
        E 0 80 48 00
        E 0 80 4a 00
        E 0 80 54 00
        E 0 80 56 00
        E 0 80 60 00
        E 0 80 62 00
        E 210 90 1a 60
        E 0 90 1f 60
        E 0 90 55 60
        E 0 90 56 60
        E 0 90 61 60
        E 0 90 62 60
        E 30 80 1a 00
        E 0 80 1f 00
        E 0 80 55 00
        E 0 80 56 00
        E 0 80 61 00
        E 0 80 62 00
        E 89 90 18 60
        E 0 90 60 60
        E 30 80 18 00
        E 0 80 60 00
        E 91 90 1f 60
        E 0 90 3e 60
        E 0 90 4a 60
        E 0 90 56 60
        E 0 90 62 60
        E 30 80 1f 00
        E 0 80 3e 00
        E 0 80 4a 00
        E 0 80 56 00
        E 0 80 62 00
        E 89 90 18 60
        E 0 90 60 60
        E 30 80 18 00
        E 0 80 60 00
        E 91 90 1a 60
        E 0 90 1f 60
        E 0 90 55 60
        E 0 90 56 60
        E 0 90 61 60
        E 0 90 62 60
        E 30 80 1a 00
        E 0 80 1f 00
        E 0 80 55 00
        E 0 80 56 00
        E 0 80 61 00
        E 0 80 62 00
        E 210 90 18 60
        E 0 90 1f 60
        E 0 90 3e 60
        E 0 90 48 60
        E 0 90 4a 60
        E 0 90 54 60
        E 0 90 56 60
        E 0 90 60 60
        E 0 90 62 60
        E 30 80 18 00
        E 0 80 1f 00
        E 0 80 3e 00
        E 0 80 48 00
        E 0 80 4a 00
        E 0 80 54 00
        E 0 80 56 00
        E 0 80 60 00
        E 0 80 62 00
        E 210 90 1a 60
        E 0 90 1f 60
        E 0 90 55 60
        E 0 90 56 60
        E 0 90 61 60
        E 0 90 62 60
        E 30 80 1a 00
        E 0 80 1f 00
        E 0 80 55 00
        E 0 80 56 00
        E 0 80 61 00
        E 0 80 62 00
        E 210 90 1f 60
        E 0 90 3e 60
        E 0 90 4a 60
        E 0 90 56 60
        E 0 90 62 60
        E 30 80 1f 00
        E 0 80 3e 00
        E 0 80 4a 00
        E 0 80 56 00
        E 0 80 62 00
        E 50 90 18 60
        E 0 90 60 60
        E 30 80 18 00
        E 0 80 60 00
        E 50 90 18 60
        E 0 90 60 60
        E 30 80 18 00
        E 0 80 60 00
        E 50 90 1a 60
        E 0 90 1f 60
        E 0 90 55 60
        E 0 90 56 60
        E 0 90 61 60
        E 0 90 62 60
        E 30 80 1a 00
        E 0 80 1f 00
        E 0 80 55 00
        E 0 80 56 00
        E 0 80 61 00
        E 0 80 62 00
        E 210 90 18 60
        E 0 90 1f 60
        E 0 90 3e 60
        E 0 90 48 60
        E 0 90 4a 60
        E 0 90 54 60
        E 0 90 56 60
        E 0 90 60 60
        E 0 90 62 60
        E 30 80 18 00
        E 0 80 1f 00
        E 0 80 3e 00
        E 0 80 48 00
        E 0 80 4a 00
        E 0 80 54 00
        E 0 80 56 00
        E 0 80 60 00
        E 0 80 62 00
        E 210 90 1a 60
        E 0 90 1f 60
        E 0 90 55 60
        E 0 90 56 60
        E 0 90 61 60
        E 0 90 62 60
        E 30 80 1a 00
        E 0 80 1f 00
        E 0 80 55 00
        E 0 80 56 00
        E 0 80 61 00
        E 0 80 62 00
        E 90 90 18 60
        E 0 90 60 60
        E 30 80 18 00
        E 0 80 60 00
        E 90 90 1f 60
        E 0 90 3e 60
        E 0 90 4a 60
        E 0 90 56 60
        E 0 90 62 60
        E 30 80 1f 00
        E 0 80 3e 00
        E 0 80 4a 00
        E 0 80 56 00
        E 0 80 62 00
        E 90 90 18 60
        E 0 90 60 60
        E 30 80 18 00
        E 0 80 60 00
        E 90 90 1b 60
        E 0 90 55 60
        E 0 90 61 60
        E 30 80 1b 00
        E 0 80 55 00
        E 0 80 61 00
        E 90 90 1a 60
        E 0 90 61 60
        E 30 80 1a 00
        E 0 80 61 00
        E 90 90 18 60
        E 0 90 24 60
        E 0 90 40 60
        E 0 90 48 60
        E 0 90 4c 60
        E 0 90 54 60
        E 0 90 58 60
        E 0 90 60 60
        E 0 90 64 60
        E 30 80 18 00
        E 0 80 24 00
        E 0 80 40 00
        E 0 80 48 00
        E 0 80 4c 00
        E 0 80 54 00
        E 0 80 58 00
        E 0 80 60 00
        E 0 80 64 00
        E 210 90 1a 60
        E 0 90 1f 60
        E 0 90 55 60
        E 0 90 56 60
        E 0 90 61 60
        E 0 90 62 60
        E 30 80 1a 00
        E 0 80 1f 00
        E 0 80 55 00
        E 0 80 56 00
        E 0 80 61 00
        E 0 80 62 00
        E 210 90 1f 60
        E 0 90 3e 60
        E 0 90 4a 60
        E 0 90 56 60
        E 0 90 62 60
        E 30 80 1f 00
        E 0 80 3e 00
        E 0 80 4a 00
        E 0 80 56 00
        E 0 80 62 00
        E 49 90 18 60
        E 0 90 60 60
        E 30 80 18 00
        E 0 80 60 00
        E 50 90 18 60
        E 0 90 60 60
        E 30 80 18 00
        E 0 80 60 00
        E 51 90 1a 60
        E 0 90 1f 60
        E 0 90 55 60
        E 0 90 56 60
        E 0 90 61 60
        E 0 90 62 60
        E 30 80 1a 00
        E 0 80 1f 00
        E 0 80 55 00
        E 0 80 56 00
        E 0 80 61 00
        E 0 80 62 00
        E 210 90 18 60
        E 0 90 1f 60
        E 0 90 3e 60
        E 0 90 48 60
        E 0 90 4a 60
        E 0 90 54 60
        E 0 90 56 60
        E 0 90 60 60
        E 0 90 62 60
        E 30 80 18 00
        E 0 80 1f 00
        E 0 80 3e 00
        E 0 80 48 00
        E 0 80 4a 00
        E 0 80 54 00
        E 0 80 56 00
        E 0 80 60 00
        E 0 80 62 00
        E 209 90 1a 60
        E 0 90 1f 60
        E 0 90 55 60
        E 0 90 56 60
        E 0 90 61 60
        E 0 90 62 60
        E 30 80 1a 00
        E 0 80 1f 00
        E 0 80 55 00
        E 0 80 56 00
        E 0 80 61 00
        E 0 80 62 00
        E 90 90 18 60
        E 0 90 60 60
        E 30 80 18 00
        E 0 80 60 00
        E 91 90 1f 60
        E 0 90 3e 60
        E 0 90 4a 60
        E 0 90 56 60
        E 0 90 62 60
        E 30 80 1f 00
        E 0 80 3e 00
        E 0 80 4a 00
        E 0 80 56 00
        E 0 80 62 00
        E 90 90 18 60
        E 0 90 60 60
        E 30 80 18 00
        E 0 80 60 00
        E 89 90 1a 60
        E 0 90 1f 60
        E 0 90 55 60
        E 0 90 56 60
        E 0 90 61 60
        E 0 90 62 60
        E 30 80 1a 00
        E 0 80 1f 00
        E 0 80 55 00
        E 0 80 56 00
        E 0 80 61 00
        E 0 80 62 00
        E 211 90 18 60
        E 0 90 1f 60
        E 0 90 3e 60
        E 0 90 48 60
        E 0 90 4a 60
        E 0 90 54 60
        E 0 90 56 60
        E 0 90 60 60
        E 0 90 62 60
        E 30 80 18 00
        E 0 80 1f 00
        E 0 80 3e 00
        E 0 80 48 00
        E 0 80 4a 00
        E 0 80 54 00
        E 0 80 56 00
        E 0 80 60 00
        E 0 80 62 00
        E 209 90 1a 60
        E 0 90 1f 60
        E 0 90 55 60
        E 0 90 56 60
        E 0 90 61 60
        E 0 90 62 60
        E 30 80 1a 00
        E 0 80 1f 00
        E 0 80 55 00
        E 0 80 56 00
        E 0 80 61 00
        E 0 80 62 00
        E 211 90 1f 60
        E 0 90 3e 60
        E 0 90 4a 60
        E 0 90 56 60
        E 0 90 62 60
        E 30 80 1f 00
        E 0 80 3e 00
        E 0 80 4a 00
        E 0 80 56 00
        E 0 80 62 00
        E 49 90 18 60
        E 0 90 60 60
        E 30 80 18 00
        E 0 80 60 00
        E 50 90 18 60
        E 0 90 60 60
        E 30 80 18 00
        E 0 80 60 00
        E 50 90 1a 60
        E 0 90 1f 60
        E 0 90 55 60
        E 0 90 56 60
        E 0 90 61 60
        E 0 90 62 60
        E 30 80 1a 00
        E 0 80 1f 00
        E 0 80 55 00
        E 0 80 56 00
        E 0 80 61 00
        E 0 80 62 00
        E 211 90 18 60
        E 0 90 1f 60
        E 0 90 3e 60
        E 0 90 48 60
        E 0 90 4a 60
        E 0 90 54 60
        E 0 90 56 60
        E 0 90 60 60
        E 0 90 62 60
        E 30 80 18 00
        E 0 80 1f 00
        E 0 80 3e 00
        E 0 80 48 00
        E 0 80 4a 00
        E 0 80 54 00
        E 0 80 56 00
        E 0 80 60 00
        E 0 80 62 00
        E 210 90 1a 60
        E 0 90 1f 60
        E 0 90 55 60
        E 0 90 56 60
        E 0 90 61 60
        E 0 90 62 60
        E 30 80 1a 00
        E 0 80 1f 00
        E 0 80 55 00
        E 0 80 56 00
        E 0 80 61 00
        E 0 80 62 00
        E 211 90 1b 60
        E 0 90 3d 60
        E 0 90 49 60
        E 0 90 55 60
        E 0 90 61 60
        E 30 80 1b 00
        E 0 80 3d 00
        E 0 80 49 00
        E 0 80 55 00
        E 0 80 61 00
        E 49 90 1a 60
        E 0 90 61 60
        E 30 80 1a 00
        E 0 80 61 00
        E 50 90 1b 60
        E 0 90 61 60
        E 30 80 1b 00
        E 0 80 61 00
        E 50 90 1a 60
        E 0 90 55 60
        E 0 90 61 60
        E 30 80 1a 00
        E 0 80 55 00
        E 0 80 61 00
        E 50 90 1b 60
        E 0 90 61 60
        E 30 80 1b 00
        E 0 80 61 00
        E 50 90 1a 60
        E 0 90 61 60
        E 30 80 1a 00
        E 0 80 61 00
        E 50 90 18 60
        E 0 90 24 60
        E 0 90 40 60
        E 0 90 48 60
        E 0 90 4c 60
        E 0 90 54 60
        E 0 90 58 60
        E 0 90 60 60
        E 0 90 64 60
        E 0 90 74 60
        E 30 80 18 00
        E 0 80 24 00
        E 0 80 40 00
        E 0 80 48 00
        E 0 80 4c 00
        E 0 80 54 00
        E 0 80 58 00
        E 0 80 60 00
        E 0 80 64 00
        E 210 90 1b 60
        E 0 90 55 60
        E 0 90 61 60
        E 30 80 1b 00
        E 0 80 55 00
        E 0 80 61 00
        E 90 90 18 60
        E 0 90 22 60
        E 0 90 60 60
        E 0 90 64 60
        E 30 80 18 00
        E 0 80 22 00
        E 0 80 60 00
        E 0 80 64 00
        E 210 90 18 60
        E 0 90 60 60
        E 30 80 18 00
        E 0 80 60 00
        E 90 90 1a 60
        E 0 90 24 60
        E 0 90 55 60
        E 0 90 58 60
        E 0 90 61 60
        E 0 90 64 60
        E 30 80 1a 00
        E 0 80 24 00
        E 0 80 55 00
        E 0 80 58 00
        E 0 80 61 00
        E 0 80 64 00
        E 210 90 24 60
        E 0 90 40 60
        E 0 90 4c 60
        E 0 90 58 60
        E 0 90 64 60
        E 30 80 24 00
        E 0 80 40 00
        E 0 80 4c 00
        E 0 80 58 00
        E 0 80 64 00
        E 50 90 18 60
        E 0 90 60 60
        E 30 80 18 00
        E 0 80 60 00
        E 50 90 18 60
        E 0 90 60 60
        E 30 80 18 00
        E 0 80 60 00
        E 50 90 1a 60
        E 0 90 24 60
        E 0 90 55 60
        E 0 90 58 60
        E 0 90 61 60
        E 0 90 64 60
        E 30 80 1a 00
        E 0 80 24 00
        E 0 80 55 00
        E 0 80 58 00
        E 0 80 61 00
        E 0 80 64 00
        E 210 90 18 60
        E 0 90 24 60
        E 0 90 40 60
        E 0 90 48 60
        E 0 90 4c 60
        E 0 90 54 60
        E 0 90 58 60
        E 0 90 60 60
        E 0 90 64 60
        E 30 80 18 00
        E 0 80 24 00
        E 0 80 40 00
        E 0 80 48 00
        E 0 80 4c 00
        E 0 80 54 00
        E 0 80 58 00
        E 0 80 60 00
        E 0 80 64 00
        E 210 90 1a 60
        E 0 90 24 60
        E 0 90 55 60
        E 0 90 58 60
        E 0 90 61 60
        E 0 90 64 60
        E 30 80 1a 00
        E 0 80 24 00
        E 0 80 55 00
        E 0 80 58 00
        E 0 80 61 00
        E 0 80 64 00
        E 210 90 18 60
        E 0 90 24 60
        E 0 90 40 60
        E 0 90 48 60
        E 0 90 4c 60
        E 0 90 54 60
        E 0 90 58 60
        E 0 90 60 60
        E 0 90 64 60
        E 30 80 18 00
        E 0 80 24 00
        E 0 80 40 00
        E 0 80 48 00
        E 0 80 4c 00
        E 0 80 54 00
        E 0 80 58 00
        E 0 80 60 00
        E 0 80 64 00
        E 210 90 1b 60
        E 0 90 55 60
        E 0 90 61 60
        E 30 80 1b 00
        E 0 80 55 00
        E 0 80 61 00
        E 89 90 18 60
        E 0 90 22 60
        E 0 90 60 60
        E 0 90 64 60
        E 30 80 18 00
        E 0 80 22 00
        E 0 80 60 00
        E 0 80 64 00
        E 210 90 18 60
        E 0 90 60 60
        E 30 80 18 00
        E 0 80 60 00
        E 91 90 1a 60
        E 0 90 24 60
        E 0 90 55 60
        E 0 90 58 60
        E 0 90 61 60
        E 0 90 64 60
        E 30 80 1a 00
        E 0 80 24 00
        E 0 80 55 00
        E 0 80 58 00
        E 0 80 61 00
        E 0 80 64 00
        E 210 90 24 60
        E 0 90 40 60
        E 0 90 4c 60
        E 0 90 58 60
        E 0 90 64 60
        E 30 80 24 00
        E 0 80 40 00
        E 0 80 4c 00
        E 0 80 58 00
        E 0 80 64 00
        E 50 90 18 60
        E 0 90 60 60
        E 30 80 18 00
        E 0 80 60 00
        E 50 90 18 60
        E 0 90 60 60
        E 30 80 18 00
        E 0 80 60 00
        E 50 90 1a 60
        E 0 90 24 60
        E 0 90 55 60
        E 0 90 58 60
        E 0 90 61 60
        E 0 90 64 60
        E 30 80 1a 00
        E 0 80 24 00
        E 0 80 55 00
        E 0 80 58 00
        E 0 80 61 00
        E 0 80 64 00
        E 210 90 18 60
        E 0 90 24 60
        E 0 90 40 60
        E 0 90 48 60
        E 0 90 4c 60
        E 0 90 54 60
        E 0 90 58 60
        E 0 90 60 60
        E 0 90 64 60
        E 30 80 18 00
        E 0 80 24 00
        E 0 80 40 00
        E 0 80 48 00
        E 0 80 4c 00
        E 0 80 54 00
        E 0 80 58 00
        E 0 80 60 00
        E 0 80 64 00
        E 90 90 1a 60
        E 0 90 61 60
        E 30 80 1a 00
        E 0 80 61 00
        E 90 90 1b 60
        E 0 90 55 60
        E 0 90 61 60
        E 30 80 1b 00
        E 0 80 55 00
        E 0 80 61 00
        E 90 90 1a 60
        E 0 90 61 60
        E 30 80 1a 00
        E 0 80 61 00
        E 90 80 74 00
        E 0 90 18 60
        E 0 90 24 60
        E 0 90 40 60
        E 0 90 48 60
        E 0 90 4c 60
        E 0 90 54 60
        E 0 90 58 60
        E 0 90 60 60
        E 0 90 64 60
        E 30 80 18 00
        E 0 80 24 00
        E 0 80 40 00
        E 0 80 48 00
        E 0 80 4c 00
        E 0 80 54 00
        E 0 80 58 00
        E 0 80 60 00
        E 0 80 64 00
        E 210 90 1b 60
        E 0 90 55 60
        E 0 90 61 60
        E 30 80 1b 00
        E 0 80 55 00
        E 0 80 61 00
        E 90 90 18 60
        E 0 90 22 60
        E 0 90 60 60
        E 0 90 64 60
        E 30 80 18 00
        E 0 80 22 00
        E 0 80 60 00
        E 0 80 64 00
        E 210 90 18 60
        E 0 90 60 60
        E 30 80 18 00
        E 0 80 60 00
        E 90 90 1a 60
        E 0 90 24 60
        E 0 90 55 60
        E 0 90 58 60
        E 0 90 61 60
        E 0 90 64 60
        E 30 80 1a 00
        E 0 80 24 00
        E 0 80 55 00
        E 0 80 58 00
        E 0 80 61 00
        E 0 80 64 00
        E 210 90 24 60
        E 0 90 40 60
        E 0 90 4c 60
        E 0 90 58 60
        E 0 90 64 60
        E 30 80 24 00
        E 0 80 40 00
        E 0 80 4c 00
        E 0 80 58 00
        E 0 80 64 00
        E 49 90 18 60
        E 0 90 60 60
        E 30 80 18 00
        E 0 80 60 00
        E 50 90 18 60
        E 0 90 60 60
        E 30 80 18 00
        E 0 80 60 00
        E 50 90 1a 60
        E 0 90 24 60
        E 0 90 55 60
        E 0 90 58 60
        E 0 90 61 60
        E 0 90 64 60
        E 30 80 1a 00
        E 0 80 24 00
        E 0 80 55 00
        E 0 80 58 00
        E 0 80 61 00
        E 0 80 64 00
        E 211 90 18 60
        E 0 90 24 60
        E 0 90 40 60
        E 0 90 48 60
        E 0 90 4c 60
        E 0 90 54 60
        E 0 90 58 60
        E 0 90 60 60
        E 0 90 64 60
        E 30 80 18 00
        E 0 80 24 00
        E 0 80 40 00
        E 0 80 48 00
        E 0 80 4c 00
        E 0 80 54 00
        E 0 80 58 00
        E 0 80 60 00
        E 0 80 64 00
        E 210 90 1a 60
        E 0 90 24 60
        E 0 90 55 60
        E 0 90 58 60
        E 0 90 61 60
        E 0 90 64 60
        E 30 80 1a 00
        E 0 80 24 00
        E 0 80 55 00
        E 0 80 58 00
        E 0 80 61 00
        E 0 80 64 00
        E 210 90 18 60
        E 0 90 24 60
        E 0 90 40 60
        E 0 90 48 60
        E 0 90 4c 60
        E 0 90 54 60
        E 0 90 58 60
        E 0 90 60 60
        E 0 90 64 60
        E 0 90 78 60
        E 0 90 79 60
        E 0 90 7a 60
        E 0 90 7b 60
        E 0 90 7c 60
        E 30 80 18 00
        E 0 80 24 00
        E 0 80 40 00
        E 0 80 48 00
        E 0 80 4c 00
        E 0 80 54 00
        E 0 80 58 00
        E 0 80 60 00
        E 0 80 64 00
        E 210 90 18 60
        E 0 90 1b 60
        E 0 90 54 60
        E 0 90 55 60
        E 0 90 60 60
        E 0 90 61 60
        E 30 80 18 00
        E 0 80 1b 00
        E 0 80 54 00
        E 0 80 55 00
        E 0 80 60 00
        E 0 80 61 00
        E 90 90 1a 60
        E 0 90 61 60
        E 30 80 1a 00
        E 0 80 61 00
        E 90 90 18 60
        E 0 90 1b 60
        E 0 90 3d 60
        E 0 90 49 60
        E 0 90 54 60
        E 0 90 55 60
        E 0 90 60 60
        E 0 90 61 60
        E 30 80 18 00
        E 0 80 1b 00
        E 0 80 3d 00
        E 0 80 49 00
        E 0 80 54 00
        E 0 80 55 00
        E 0 80 60 00
        E 0 80 61 00
        E 89 90 1a 60
        E 0 90 61 60
        E 30 80 1a 00
        E 0 80 61 00
        E 90 90 18 60
        E 0 90 1b 60
        E 0 90 54 60
        E 0 90 55 60
        E 0 90 60 60
        E 0 90 61 60
        E 30 80 18 00
        E 0 80 1b 00
        E 0 80 54 00
        E 0 80 55 00
        E 0 80 60 00
        E 0 80 61 00
        E 91 90 1a 60
        E 0 90 61 60
        E 30 80 1a 00
        E 0 80 61 00
        E 90 90 18 60
        E 0 90 1b 60
        E 0 90 3d 60
        E 0 90 49 60
        E 0 90 54 60
        E 0 90 55 60
        E 0 90 60 60
        E 0 90 61 60
        E 30 80 18 00
        E 0 80 1b 00
        E 0 80 3d 00
        E 0 80 49 00
        E 0 80 54 00
        E 0 80 55 00
        E 0 80 60 00
        E 0 80 61 00
        E 89 90 1a 60
        E 0 90 61 60
        E 30 80 1a 00
        E 0 80 61 00
        E 90 90 18 60
        E 0 90 1b 60
        E 0 90 54 60
        E 0 90 55 60
        E 0 90 60 60
        E 0 90 61 60
        E 30 80 18 00
        E 0 80 1b 00
        E 0 80 54 00
        E 0 80 55 00
        E 0 80 60 00
        E 0 80 61 00
        E 90 90 1a 60
        E 0 90 61 60
        E 30 80 1a 00
        E 0 80 61 00
        E 91 90 18 60
        E 0 90 1b 60
        E 0 90 3d 60
        E 0 90 49 60
        E 0 90 54 60
        E 0 90 55 60
        E 0 90 60 60
        E 0 90 61 60
        E 30 80 18 00
        E 0 80 1b 00
        E 0 80 3d 00
        E 0 80 49 00
        E 0 80 54 00
        E 0 80 55 00
        E 0 80 60 00
        E 0 80 61 00
        E 90 90 1a 60
        E 0 90 61 60
        E 30 80 1a 00
        E 0 80 61 00
        E 90 90 18 60
        E 0 90 1b 60
        E 0 90 54 60
        E 0 90 55 60
        E 0 90 60 60
        E 0 90 61 60
        E 30 80 18 00
        E 0 80 1b 00
        E 0 80 54 00
        E 0 80 55 00
        E 0 80 60 00
        E 0 80 61 00
        E 90 90 1a 60
        E 0 90 61 60
        E 30 80 1a 00
        E 0 80 61 00
        E 90 80 78 00
        E 0 80 79 00
        E 0 80 7a 00
        E 0 80 7b 00
        E 0 80 7c 00
        E 0 90 18 60
        E 0 90 24 60
        E 0 90 40 60
        E 0 90 48 60
        E 0 90 4c 60
        E 0 90 54 60
        E 0 90 58 60
        E 0 90 60 60
        E 0 90 64 60
        E 30 80 18 00
        E 0 80 24 00
        E 0 80 40 00
        E 0 80 48 00
        E 0 80 4c 00
        E 0 80 54 00
        E 0 80 58 00
        E 0 80 60 00
        E 0 80 64 00
        E 210 90 1a 60
        E 0 90 1f 60
        E 0 90 55 60
        E 0 90 56 60
        E 0 90 61 60
        E 0 90 62 60
        E 30 80 1a 00
        E 0 80 1f 00
        E 0 80 55 00
        E 0 80 56 00
        E 0 80 61 00
        E 0 80 62 00
        E 210 90 1f 60
        E 0 90 3e 60
        E 0 90 4a 60
        E 0 90 56 60
        E 0 90 62 60
        E 30 80 1f 00
        E 0 80 3e 00
        E 0 80 4a 00
        E 0 80 56 00
        E 0 80 62 00
        E 49 90 18 60
        E 0 90 60 60
        E 30 80 18 00
        E 0 80 60 00
        E 50 90 18 60
        E 0 90 60 60
        E 30 80 18 00
        E 0 80 60 00
        E 51 90 1a 60
        E 0 90 1f 60
        E 0 90 55 60
        E 0 90 56 60
        E 0 90 61 60
        E 0 90 62 60
        E 30 80 1a 00
        E 0 80 1f 00
        E 0 80 55 00
        E 0 80 56 00
        E 0 80 61 00
        E 0 80 62 00
        E 210 90 18 60
        E 0 90 1f 60
        E 0 90 3e 60
        E 0 90 48 60
        E 0 90 4a 60
        E 0 90 54 60
        E 0 90 56 60
        E 0 90 60 60
        E 0 90 62 60
        E 30 80 18 00
        E 0 80 1f 00
        E 0 80 3e 00
        E 0 80 48 00
        E 0 80 4a 00
        E 0 80 54 00
        E 0 80 56 00
        E 0 80 60 00
        E 0 80 62 00
        E 209 90 1a 60
        E 0 90 1f 60
        E 0 90 55 60
        E 0 90 56 60
        E 0 90 61 60
        E 0 90 62 60
        E 30 80 1a 00
        E 0 80 1f 00
        E 0 80 55 00
        E 0 80 56 00
        E 0 80 61 00
        E 0 80 62 00
        E 90 90 18 60
        E 0 90 60 60
        E 30 80 18 00
        E 0 80 60 00
        E 91 90 1f 60
        E 0 90 3e 60
        E 0 90 4a 60
        E 0 90 56 60
        E 0 90 62 60
        E 30 80 1f 00
        E 0 80 3e 00
        E 0 80 4a 00
        E 0 80 56 00
        E 0 80 62 00
        E 90 90 18 60
        E 0 90 60 60
        E 30 80 18 00
        E 0 80 60 00
        E 90 90 1a 60
        E 0 90 1f 60
        E 0 90 55 60
        E 0 90 56 60
        E 0 90 61 60
        E 0 90 62 60
        E 30 80 1a 00
        E 0 80 1f 00
        E 0 80 55 00
        E 0 80 56 00
        E 0 80 61 00
        E 0 80 62 00
        E 210 90 18 60
        E 0 90 1f 60
        E 0 90 3e 60
        E 0 90 48 60
        E 0 90 4a 60
        E 0 90 54 60
        E 0 90 56 60
        E 0 90 60 60
        E 0 90 62 60
        E 30 80 18 00
        E 0 80 1f 00
        E 0 80 3e 00
        E 0 80 48 00
        E 0 80 4a 00
        E 0 80 54 00
        E 0 80 56 00
        E 0 80 60 00
        E 0 80 62 00
        E 210 90 1a 60
        E 0 90 1f 60
        E 0 90 55 60
        E 0 90 56 60
        E 0 90 61 60
        E 0 90 62 60
        E 30 80 1a 00
        E 0 80 1f 00
        E 0 80 55 00
        E 0 80 56 00
        E 0 80 61 00
        E 0 80 62 00
        E 211 90 1f 60
        E 0 90 3e 60
        E 0 90 4a 60
        E 0 90 56 60
        E 0 90 62 60
        E 30 80 1f 00
        E 0 80 3e 00
        E 0 80 4a 00
        E 0 80 56 00
        E 0 80 62 00
        E 49 90 18 60
        E 0 90 60 60
        E 30 80 18 00
        E 0 80 60 00
        E 50 90 18 60
        E 0 90 60 60
        E 30 80 18 00
        E 0 80 60 00
        E 50 90 1a 60
        E 0 90 1f 60
        E 0 90 55 60
        E 0 90 56 60
        E 0 90 61 60
        E 0 90 62 60
        E 30 80 1a 00
        E 0 80 1f 00
        E 0 80 55 00
        E 0 80 56 00
        E 0 80 61 00
        E 0 80 62 00
        E 210 90 18 60
        E 0 90 1f 60
        E 0 90 3e 60
        E 0 90 48 60
        E 0 90 4a 60
        E 0 90 54 60
        E 0 90 56 60
        E 0 90 60 60
        E 0 90 62 60
        E 30 80 18 00
        E 0 80 1f 00
        E 0 80 3e 00
        E 0 80 48 00
        E 0 80 4a 00
        E 0 80 54 00
        E 0 80 56 00
        E 0 80 60 00
        E 0 80 62 00
        E 210 90 1a 60
        E 0 90 1f 60
        E 0 90 55 60
        E 0 90 56 60
        E 0 90 61 60
        E 0 90 62 60
        E 30 80 1a 00
        E 0 80 1f 00
        E 0 80 55 00
        E 0 80 56 00
        E 0 80 61 00
        E 0 80 62 00
        E 90 90 18 60
        E 0 90 60 60
        E 30 80 18 00
        E 0 80 60 00
        E 90 90 1f 60
        E 0 90 3e 60
        E 0 90 4a 60
        E 0 90 56 60
        E 0 90 62 60
        E 30 80 1f 00
        E 0 80 3e 00
        E 0 80 4a 00
        E 0 80 56 00
        E 0 80 62 00
        E 90 90 18 60
        E 0 90 60 60
        E 30 80 18 00
        E 0 80 60 00
        E 90 90 1b 60
        E 0 90 55 60
        E 0 90 61 60
        E 30 80 1b 00
        E 0 80 55 00
        E 0 80 61 00
        E 89 90 1a 60
        E 0 90 61 60
        E 30 80 1a 00
        E 0 80 61 00
        E 91 90 18 60
        E 0 90 24 60
        E 0 90 40 60
        E 0 90 48 60
        E 0 90 4c 60
        E 0 90 54 60
        E 0 90 58 60
        E 0 90 60 60
        E 0 90 64 60
        E 30 80 18 00
        E 0 80 24 00
        E 0 80 40 00
        E 0 80 48 00
        E 0 80 4c 00
        E 0 80 54 00
        E 0 80 58 00
        E 0 80 60 00
        E 0 80 64 00
        E 210 90 1a 60
        E 0 90 1f 60
        E 0 90 55 60
        E 0 90 56 60
        E 0 90 61 60
        E 0 90 62 60
        E 30 80 1a 00
        E 0 80 1f 00
        E 0 80 55 00
        E 0 80 56 00
        E 0 80 61 00
        E 0 80 62 00
        E 210 90 1f 60
        E 0 90 3e 60
        E 0 90 4a 60
        E 0 90 56 60
        E 0 90 62 60
        E 30 80 1f 00
        E 0 80 3e 00
        E 0 80 4a 00
        E 0 80 56 00
        E 0 80 62 00
        E 50 90 18 60
        E 0 90 60 60
        E 30 80 18 00
        E 0 80 60 00
        E 50 90 18 60
        E 0 90 60 60
        E 30 80 18 00
        E 0 80 60 00
        E 50 90 1a 60
        E 0 90 1f 60
        E 0 90 55 60
        E 0 90 56 60
        E 0 90 61 60
        E 0 90 62 60
        E 30 80 1a 00
        E 0 80 1f 00
        E 0 80 55 00
        E 0 80 56 00
        E 0 80 61 00
        E 0 80 62 00
        E 210 90 18 60
        E 0 90 1f 60
        E 0 90 3e 60
        E 0 90 48 60
        E 0 90 4a 60
        E 0 90 54 60
        E 0 90 56 60
        E 0 90 60 60
        E 0 90 62 60
        E 30 80 18 00
        E 0 80 1f 00
        E 0 80 3e 00
        E 0 80 48 00
        E 0 80 4a 00
        E 0 80 54 00
        E 0 80 56 00
        E 0 80 60 00
        E 0 80 62 00
        E 210 90 1a 60
        E 0 90 1f 60
        E 0 90 55 60
        E 0 90 56 60
        E 0 90 61 60
        E 0 90 62 60
        E 30 80 1a 00
        E 0 80 1f 00
        E 0 80 55 00
        E 0 80 56 00
        E 0 80 61 00
        E 0 80 62 00
        E 90 90 18 60
        E 0 90 60 60
        E 30 80 18 00
        E 0 80 60 00
        E 90 90 1f 60
        E 0 90 3e 60
        E 0 90 4a 60
        E 0 90 56 60
        E 0 90 62 60
        E 30 80 1f 00
        E 0 80 3e 00
        E 0 80 4a 00
        E 0 80 56 00
        E 0 80 62 00
        E 90 90 18 60
        E 0 90 60 60
        E 30 80 18 00
        E 0 80 60 00
        E 90 90 1a 60
        E 0 90 1f 60
        E 0 90 55 60
        E 0 90 56 60
        E 0 90 61 60
        E 0 90 62 60
        E 30 80 1a 00
        E 0 80 1f 00
        E 0 80 55 00
        E 0 80 56 00
        E 0 80 61 00
        E 0 80 62 00
        E 210 90 18 60
        E 0 90 1f 60
        E 0 90 3e 60
        E 0 90 48 60
        E 0 90 4a 60
        E 0 90 54 60
        E 0 90 56 60
        E 0 90 60 60
        E 0 90 62 60
        E 30 80 18 00
        E 0 80 1f 00
        E 0 80 3e 00
        E 0 80 48 00
        E 0 80 4a 00
        E 0 80 54 00
        E 0 80 56 00
        E 0 80 60 00
        E 0 80 62 00
        E 210 90 1a 60
        E 0 90 1f 60
        E 0 90 55 60
        E 0 90 56 60
        E 0 90 61 60
        E 0 90 62 60
        E 30 80 1a 00
        E 0 80 1f 00
        E 0 80 55 00
        E 0 80 56 00
        E 0 80 61 00
        E 0 80 62 00
        E 210 90 1f 60
        E 0 90 3e 60
        E 0 90 4a 60
        E 0 90 56 60
        E 0 90 62 60
        E 30 80 1f 00
        E 0 80 3e 00
        E 0 80 4a 00
        E 0 80 56 00
        E 0 80 62 00
        E 50 90 18 60
        E 0 90 60 60
        E 30 80 18 00
        E 0 80 60 00
        E 50 90 18 60
        E 0 90 60 60
        E 30 80 18 00
        E 0 80 60 00
        E 50 90 1a 60
        E 0 90 1f 60
        E 0 90 55 60
        E 0 90 56 60
        E 0 90 61 60
        E 0 90 62 60
        E 0 90 78 60
        E 0 90 79 60
        E 0 90 7a 60
        E 0 90 7b 60
        E 0 90 7c 60
        E 30 80 1a 00
        E 0 80 1f 00
        E 0 80 55 00
        E 0 80 56 00
        E 0 80 61 00
        E 0 80 62 00
        E 210 90 18 60
        E 0 90 1f 60
        E 0 90 3e 60
        E 0 90 48 60
        E 0 90 4a 60
        E 0 90 54 60
        E 0 90 56 60
        E 0 90 60 60
        E 0 90 62 60
        E 30 80 18 00
        E 0 80 1f 00
        E 0 80 3e 00
        E 0 80 48 00
        E 0 80 4a 00
        E 0 80 54 00
        E 0 80 56 00
        E 0 80 60 00
        E 0 80 62 00
        E 210 90 1a 60
        E 0 90 1f 60
        E 0 90 55 60
        E 0 90 56 60
        E 0 90 61 60
        E 0 90 62 60
        E 30 80 1a 00
        E 0 80 1f 00
        E 0 80 55 00
        E 0 80 56 00
        E 0 80 61 00
        E 0 80 62 00
        E 211 90 1b 60
        E 0 90 3d 60
        E 0 90 49 60
        E 0 90 55 60
        E 0 90 61 60
        E 30 80 1b 00
        E 0 80 3d 00
        E 0 80 49 00
        E 0 80 55 00
        E 0 80 61 00
        E 50 90 1a 60
        E 0 90 61 60
        E 30 80 1a 00
        E 0 80 61 00
        E 50 90 1b 60
        E 0 90 61 60
        E 30 80 1b 00
        E 0 80 61 00
        E 49 90 1a 60
        E 0 90 55 60
        E 0 90 61 60
        E 30 80 1a 00
        E 0 80 55 00
        E 0 80 61 00
        E 50 90 1b 60
        E 0 90 61 60
        E 30 80 1b 00
        E 0 80 61 00
        E 50 90 1a 60
        E 0 90 61 60
        E 30 80 1a 00
        E 0 80 61 00
        E 50 80 78 00
        E 0 80 79 00
        E 0 80 7a 00
        E 0 80 7b 00
        E 0 80 7c 00
        E 0 90 18 60
        E 0 90 24 60
        E 0 90 40 60
        E 0 90 48 60
        E 0 90 4c 60
        E 0 90 54 60
        E 0 90 58 60
        E 0 90 60 60
        E 0 90 64 60
        E 30 80 18 00
        E 0 80 24 00
        E 0 80 40 00
        E 0 80 48 00
        E 0 80 4c 00
        E 0 80 54 00
        E 0 80 58 00
        E 0 80 60 00
        E 0 80 64 00
        E 210 90 1b 60
        E 0 90 55 60
        E 0 90 61 60
        E 30 80 1b 00
        E 0 80 55 00
        E 0 80 61 00
        E 90 90 18 60
        E 0 90 22 60
        E 0 90 60 60
        E 0 90 64 60
        E 30 80 18 00
        E 0 80 22 00
        E 0 80 60 00
        E 0 80 64 00
        E 210 90 18 60
        E 0 90 60 60
        E 30 80 18 00
        E 0 80 60 00
        E 90 90 1a 60
        E 0 90 24 60
        E 0 90 55 60
        E 0 90 58 60
        E 0 90 61 60
        E 0 90 64 60
        E 30 80 1a 00
        E 0 80 24 00
        E 0 80 55 00
        E 0 80 58 00
        E 0 80 61 00
        E 0 80 64 00
        E 210 90 24 60
        E 0 90 40 60
        E 0 90 4c 60
        E 0 90 58 60
        E 0 90 64 60
        E 30 80 24 00
        E 0 80 40 00
        E 0 80 4c 00
        E 0 80 58 00
        E 0 80 64 00
        E 50 90 18 60
        E 0 90 60 60
        E 30 80 18 00
        E 0 80 60 00
        E 50 90 18 60
        E 0 90 60 60
        E 30 80 18 00
        E 0 80 60 00
        E 50 90 1a 60
        E 0 90 24 60
        E 0 90 55 60
        E 0 90 58 60
        E 0 90 61 60
        E 0 90 64 60
        E 30 80 1a 00
        E 0 80 24 00
        E 0 80 55 00
        E 0 80 58 00
        E 0 80 61 00
        E 0 80 64 00
        E 210 90 18 60
        E 0 90 24 60
        E 0 90 40 60
        E 0 90 48 60
        E 0 90 4c 60
        E 0 90 54 60
        E 0 90 58 60
        E 0 90 60 60
        E 0 90 64 60
        E 30 80 18 00
        E 0 80 24 00
        E 0 80 40 00
        E 0 80 48 00
        E 0 80 4c 00
        E 0 80 54 00
        E 0 80 58 00
        E 0 80 60 00
        E 0 80 64 00
        E 210 90 1a 60
        E 0 90 24 60
        E 0 90 55 60
        E 0 90 58 60
        E 0 90 61 60
        E 0 90 64 60
        E 30 80 1a 00
        E 0 80 24 00
        E 0 80 55 00
        E 0 80 58 00
        E 0 80 61 00
        E 0 80 64 00
        E 210 90 18 60
        E 0 90 24 60
        E 0 90 40 60
        E 0 90 48 60
        E 0 90 4c 60
        E 0 90 54 60
        E 0 90 58 60
        E 0 90 60 60
        E 0 90 64 60
        E 30 80 18 00
        E 0 80 24 00
        E 0 80 40 00
        E 0 80 48 00
        E 0 80 4c 00
        E 0 80 54 00
        E 0 80 58 00
        E 0 80 60 00
        E 0 80 64 00
        E 210 90 1b 60
        E 0 90 55 60
        E 0 90 61 60
        E 30 80 1b 00
        E 0 80 55 00
        E 0 80 61 00
        E 90 90 18 60
        E 0 90 22 60
        E 0 90 60 60
        E 0 90 64 60
        E 30 80 18 00
        E 0 80 22 00
        E 0 80 60 00
        E 0 80 64 00
        E 210 90 18 60
        E 0 90 60 60
        E 30 80 18 00
        E 0 80 60 00
        E 90 90 1a 60
        E 0 90 24 60
        E 0 90 55 60
        E 0 90 58 60
        E 0 90 61 60
        E 0 90 64 60
        E 30 80 1a 00
        E 0 80 24 00
        E 0 80 55 00
        E 0 80 58 00
        E 0 80 61 00
        E 0 80 64 00
        E 210 90 24 60
        E 0 90 40 60
        E 0 90 4c 60
        E 0 90 58 60
        E 0 90 64 60
        E 30 80 24 00
        E 0 80 40 00
        E 0 80 4c 00
        E 0 80 58 00
        E 0 80 64 00
        E 50 90 18 60
        E 0 90 60 60
        E 30 80 18 00
        E 0 80 60 00
        E 50 90 18 60
        E 0 90 60 60
        E 30 80 18 00
        E 0 80 60 00
        E 50 90 1a 60
        E 0 90 24 60
        E 0 90 55 60
        E 0 90 58 60
        E 0 90 61 60
        E 0 90 64 60
        E 30 80 1a 00
        E 0 80 24 00
        E 0 80 55 00
        E 0 80 58 00
        E 0 80 61 00
        E 0 80 64 00
        E 211 90 18 60
        E 0 90 24 60
        E 0 90 40 60
        E 0 90 48 60
        E 0 90 4c 60
        E 0 90 54 60
        E 0 90 58 60
        E 0 90 60 60
        E 0 90 64 60
        E 30 80 18 00
        E 0 80 24 00
        E 0 80 40 00
        E 0 80 48 00
        E 0 80 4c 00
        E 0 80 54 00
        E 0 80 58 00
        E 0 80 60 00
        E 0 80 64 00
        E 90 90 1a 60
        E 0 90 61 60
        E 30 80 1a 00
        E 0 80 61 00
        E 89 90 1b 60
        E 0 90 55 60
        E 0 90 61 60
        E 30 80 1b 00
        E 0 80 55 00
        E 0 80 61 00
        E 90 90 1a 60
        E 0 90 61 60
        E 30 80 1a 00
        E 0 80 61 00
        E 90 90 18 60
        E 0 90 24 60
        E 0 90 40 60
        E 0 90 48 60
        E 0 90 4c 60
        E 0 90 54 60
        E 0 90 58 60
        E 0 90 60 60
        E 0 90 64 60
        E 30 80 18 00
        E 0 80 24 00
        E 0 80 40 00
        E 0 80 48 00
        E 0 80 4c 00
        E 0 80 54 00
        E 0 80 58 00
        E 0 80 60 00
        E 0 80 64 00
        E 210 90 1b 60
        E 0 90 55 60
        E 0 90 61 60
        E 30 80 1b 00
        E 0 80 55 00
        E 0 80 61 00
        E 90 90 18 60
        E 0 90 22 60
        E 0 90 60 60
        E 0 90 64 60
        E 30 80 18 00
        E 0 80 22 00
        E 0 80 60 00
        E 0 80 64 00
        E 210 90 18 60
        E 0 90 60 60
        E 30 80 18 00
        E 0 80 60 00
        E 90 90 1a 60
        E 0 90 24 60
        E 0 90 55 60
        E 0 90 58 60
        E 0 90 61 60
        E 0 90 64 60
        E 30 80 1a 00
        E 0 80 24 00
        E 0 80 55 00
        E 0 80 58 00
        E 0 80 61 00
        E 0 80 64 00
        E 210 90 24 60
        E 0 90 40 60
        E 0 90 4c 60
        E 0 90 58 60
        E 0 90 64 60
        E 30 80 24 00
        E 0 80 40 00
        E 0 80 4c 00
        E 0 80 58 00
        E 0 80 64 00
        E 50 90 18 60
        E 0 90 60 60
        E 30 80 18 00
        E 0 80 60 00
        E 50 90 18 60
        E 0 90 60 60
        E 30 80 18 00
        E 0 80 60 00
        E 50 90 1a 60
        E 0 90 24 60
        E 0 90 55 60
        E 0 90 58 60
        E 0 90 61 60
        E 0 90 64 60
        E 30 80 1a 00
        E 0 80 24 00
        E 0 80 55 00
        E 0 80 58 00
        E 0 80 61 00
        E 0 80 64 00
        E 210 90 18 60
        E 0 90 24 60
        E 0 90 40 60
        E 0 90 48 60
        E 0 90 4c 60
        E 0 90 54 60
        E 0 90 58 60
        E 0 90 60 60
        E 0 90 64 60
        E 30 80 18 00
        E 0 80 24 00
        E 0 80 40 00
        E 0 80 48 00
        E 0 80 4c 00
        E 0 80 54 00
        E 0 80 58 00
        E 0 80 60 00
        E 0 80 64 00
        E 210 90 1a 60
        E 0 90 24 60
        E 0 90 55 60
        E 0 90 58 60
        E 0 90 61 60
        E 0 90 64 60
        E 30 80 1a 00
        E 0 80 24 00
        E 0 80 55 00
        E 0 80 58 00
        E 0 80 61 00
        E 0 80 64 00
        E 210 90 18 60
        E 0 90 24 60
        E 0 90 40 60
        E 0 90 48 60
        E 0 90 4c 60
        E 0 90 54 60
        E 0 90 58 60
        E 0 90 60 60
        E 0 90 64 60
        E 30 80 18 00
        E 0 80 24 00
        E 0 80 40 00
        E 0 80 48 00
        E 0 80 4c 00
        E 0 80 54 00
        E 0 80 58 00
        E 0 80 60 00
        E 0 80 64 00
        E 210 90 1b 60
        E 0 90 55 60
        E 0 90 61 60
        E 30 80 1b 00
        E 0 80 55 00
        E 0 80 61 00
        E 90 90 18 60
        E 0 90 22 60
        E 0 90 60 60
        E 0 90 64 60
        E 30 80 18 00
        E 0 80 22 00
        E 0 80 60 00
        E 0 80 64 00
        E 210 90 18 60
        E 0 90 60 60
        E 30 80 18 00
        E 0 80 60 00
        E 90 90 1a 60
        E 0 90 24 60
        E 0 90 55 60
        E 0 90 58 60
        E 0 90 61 60
        E 0 90 64 60
        E 30 80 1a 00
        E 0 80 24 00
        E 0 80 55 00
        E 0 80 58 00
        E 0 80 61 00
        E 0 80 64 00
        E 210 90 24 60
        E 0 90 40 60
        E 0 90 4c 60
        E 0 90 58 60
        E 0 90 64 60
        E 30 80 24 00
        E 0 80 40 00
        E 0 80 4c 00
        E 0 80 58 00
        E 0 80 64 00
        E 50 90 18 60
        E 0 90 60 60
        E 30 80 18 00
        E 0 80 60 00
        E 50 90 18 60
        E 0 90 60 60
        E 30 80 18 00
        E 0 80 60 00
        E 50 90 1a 60
        E 0 90 24 60
        E 0 90 55 60
        E 0 90 58 60
        E 0 90 61 60
        E 0 90 64 60
        E 30 80 1a 00
        E 0 80 24 00
        E 0 80 55 00
        E 0 80 58 00
        E 0 80 61 00
        E 0 80 64 00
        E 210 90 1b 60
        E 0 90 3d 60
        E 0 90 49 60
        E 0 90 55 60
        E 0 90 61 60
        E 30 80 1b 00
        E 0 80 3d 00
        E 0 80 49 00
        E 0 80 55 00
        E 0 80 61 00
        E 50 90 1a 60
        E 0 90 61 60
        E 30 80 1a 00
        E 0 80 61 00
        E 50 90 1b 60
        E 0 90 61 60
        E 30 80 1b 00
        E 0 80 61 00
        E 50 90 1a 60
        E 0 90 55 60
        E 0 90 61 60
        E 30 80 1a 00
        E 0 80 55 00
        E 0 80 61 00
        E 50 90 1b 60
        E 0 90 61 60
        E 30 80 1b 00
        E 0 80 61 00
        E 50 90 1a 60
        E 0 90 61 60
        E 30 80 1a 00
        E 0 80 61 00
        E 50 90 18 60
        E 0 90 24 60
        E 0 90 40 60
        E 0 90 48 60
        E 0 90 4c 60
        E 0 90 54 60
        E 0 90 58 60
        E 0 90 60 60
        E 0 90 64 60
        E 30 80 18 00
        E 0 80 24 00
        E 0 80 40 00
        E 0 80 48 00
        E 0 80 4c 00
        E 0 80 54 00
        E 0 80 58 00
        E 0 80 60 00
        E 0 80 64 00
        E 210 90 1a 60
        E 0 90 1f 60
        E 0 90 55 60
        E 0 90 56 60
        E 0 90 61 60
        E 0 90 62 60
        E 30 80 1a 00
        E 0 80 1f 00
        E 0 80 55 00
        E 0 80 56 00
        E 0 80 61 00
        E 0 80 62 00
        E 210 90 1f 60
        E 0 90 3e 60
        E 0 90 4a 60
        E 0 90 56 60
        E 0 90 62 60
        E 30 80 1f 00
        E 0 80 3e 00
        E 0 80 4a 00
        E 0 80 56 00
        E 0 80 62 00
        E 50 90 18 60
        E 0 90 60 60
        E 30 80 18 00
        E 0 80 60 00
        E 50 90 18 60
        E 0 90 60 60
        E 30 80 18 00
        E 0 80 60 00
        E 50 90 1a 60
        E 0 90 1f 60
        E 0 90 55 60
        E 0 90 56 60
        E 0 90 61 60
        E 0 90 62 60
        E 30 80 1a 00
        E 0 80 1f 00
        E 0 80 55 00
        E 0 80 56 00
        E 0 80 61 00
        E 0 80 62 00
        E 210 90 18 60
        E 0 90 1f 60
        E 0 90 3e 60
        E 0 90 48 60
        E 0 90 4a 60
        E 0 90 54 60
        E 0 90 56 60
        E 0 90 60 60
        E 0 90 62 60
        E 30 80 18 00
        E 0 80 1f 00
        E 0 80 3e 00
        E 0 80 48 00
        E 0 80 4a 00
        E 0 80 54 00
        E 0 80 56 00
        E 0 80 60 00
        E 0 80 62 00
        E 210 90 1a 60
        E 0 90 1f 60
        E 0 90 55 60
        E 0 90 56 60
        E 0 90 61 60
        E 0 90 62 60
        E 30 80 1a 00
        E 0 80 1f 00
        E 0 80 55 00
        E 0 80 56 00
        E 0 80 61 00
        E 0 80 62 00
        E 90 90 18 60
        E 0 90 60 60
        E 30 80 18 00
        E 0 80 60 00
        E 90 90 1f 60
        E 0 90 3e 60
        E 0 90 4a 60
        E 0 90 56 60
        E 0 90 62 60
        E 30 80 1f 00
        E 0 80 3e 00
        E 0 80 4a 00
        E 0 80 56 00
        E 0 80 62 00
        E 90 90 18 60
        E 0 90 60 60
        E 30 80 18 00
        E 0 80 60 00
        E 90 90 1a 60
        E 0 90 1f 60
        E 0 90 55 60
        E 0 90 56 60
        E 0 90 61 60
        E 0 90 62 60
        E 30 80 1a 00
        E 0 80 1f 00
        E 0 80 55 00
        E 0 80 56 00
        E 0 80 61 00
        E 0 80 62 00
        E 210 90 18 60
        E 0 90 1f 60
        E 0 90 3e 60
        E 0 90 48 60
        E 0 90 4a 60
        E 0 90 54 60
        E 0 90 56 60
        E 0 90 60 60
        E 0 90 62 60
        E 30 80 18 00
        E 0 80 1f 00
        E 0 80 3e 00
        E 0 80 48 00
        E 0 80 4a 00
        E 0 80 54 00
        E 0 80 56 00
        E 0 80 60 00
        E 0 80 62 00
        E 210 90 1a 60
        E 0 90 1f 60
        E 0 90 55 60
        E 0 90 56 60
        E 0 90 61 60
        E 0 90 62 60
        E 30 80 1a 00
        E 0 80 1f 00
        E 0 80 55 00
        E 0 80 56 00
        E 0 80 61 00
        E 0 80 62 00
        E 210 90 1f 60
        E 0 90 3e 60
        E 0 90 4a 60
        E 0 90 56 60
        E 0 90 62 60
        E 30 80 1f 00
        E 0 80 3e 00
        E 0 80 4a 00
        E 0 80 56 00
        E 0 80 62 00
        E 50 90 18 60
        E 0 90 60 60
        E 30 80 18 00
        E 0 80 60 00
        E 50 90 18 60
        E 0 90 60 60
        E 30 80 18 00
        E 0 80 60 00
        E 50 90 1a 60
        E 0 90 1f 60
        E 0 90 55 60
        E 0 90 56 60
        E 0 90 61 60
        E 0 90 62 60
        E 30 80 1a 00
        E 0 80 1f 00
        E 0 80 55 00
        E 0 80 56 00
        E 0 80 61 00
        E 0 80 62 00
        E 210 90 18 60
        E 0 90 1f 60
        E 0 90 3e 60
        E 0 90 48 60
        E 0 90 4a 60
        E 0 90 54 60
        E 0 90 56 60
        E 0 90 60 60
        E 0 90 62 60
        E 30 80 18 00
        E 0 80 1f 00
        E 0 80 3e 00
        E 0 80 48 00
        E 0 80 4a 00
        E 0 80 54 00
        E 0 80 56 00
        E 0 80 60 00
        E 0 80 62 00
        E 210 90 1a 60
        E 0 90 1f 60
        E 0 90 55 60
        E 0 90 56 60
        E 0 90 61 60
        E 0 90 62 60
        E 30 80 1a 00
        E 0 80 1f 00
        E 0 80 55 00
        E 0 80 56 00
        E 0 80 61 00
        E 0 80 62 00
        E 89 90 18 60
        E 0 90 60 60
        E 30 80 18 00
        E 0 80 60 00
        E 90 90 1f 60
        E 0 90 3e 60
        E 0 90 4a 60
        E 0 90 56 60
        E 0 90 62 60
        E 30 80 1f 00
        E 0 80 3e 00
        E 0 80 4a 00
        E 0 80 56 00
        E 0 80 62 00
        E 90 90 1a 60
        E 0 90 61 60
        E 30 80 1a 00
        E 0 80 61 00
        E 90 90 1b 60
        E 0 90 55 60
        E 0 90 61 60
        E 30 80 1b 00
        E 0 80 55 00
        E 0 80 61 00
        E 90 90 1a 60
        E 0 90 61 60
        E 30 80 1a 00
        E 0 80 61 00
        E 91 90 18 60
        E 0 90 24 60
        E 0 90 40 60
        E 0 90 48 60
        E 0 90 4c 60
        E 0 90 54 60
        E 0 90 58 60
        E 0 90 60 60
        E 0 90 64 60
        E 30 80 18 00
        E 0 80 24 00
        E 0 80 40 00
        E 0 80 48 00
        E 0 80 4c 00
        E 0 80 54 00
        E 0 80 58 00
        E 0 80 60 00
        E 0 80 64 00
        E 210 90 1a 60
        E 0 90 1f 60
        E 0 90 55 60
        E 0 90 56 60
        E 0 90 61 60
        E 0 90 62 60
        E 30 80 1a 00
        E 0 80 1f 00
        E 0 80 55 00
        E 0 80 56 00
        E 0 80 61 00
        E 0 80 62 00
        E 210 90 1f 60
        E 0 90 3e 60
        E 0 90 4a 60
        E 0 90 56 60
        E 0 90 62 60
        E 30 80 1f 00
        E 0 80 3e 00
        E 0 80 4a 00
        E 0 80 56 00
        E 0 80 62 00
        E 49 90 18 60
        E 0 90 60 60
        E 30 80 18 00
        E 0 80 60 00
        E 50 90 18 60
        E 0 90 60 60
        E 30 80 18 00
        E 0 80 60 00
        E 50 90 1a 60
        E 0 90 1f 60
        E 0 90 55 60
        E 0 90 56 60
        E 0 90 61 60
        E 0 90 62 60
        E 30 80 1a 00
        E 0 80 1f 00
        E 0 80 55 00
        E 0 80 56 00
        E 0 80 61 00
        E 0 80 62 00
        E 211 90 18 60
        E 0 90 1f 60
        E 0 90 3e 60
        E 0 90 48 60
        E 0 90 4a 60
        E 0 90 54 60
        E 0 90 56 60
        E 0 90 60 60
        E 0 90 62 60
        E 30 80 18 00
        E 0 80 1f 00
        E 0 80 3e 00
        E 0 80 48 00
        E 0 80 4a 00
        E 0 80 54 00
        E 0 80 56 00
        E 0 80 60 00
        E 0 80 62 00
        E 209 90 1a 60
        E 0 90 1f 60
        E 0 90 55 60
        E 0 90 56 60
        E 0 90 61 60
        E 0 90 62 60
        E 30 80 1a 00
        E 0 80 1f 00
        E 0 80 55 00
        E 0 80 56 00
        E 0 80 61 00
        E 0 80 62 00
        E 91 90 18 60
        E 0 90 60 60
        E 30 80 18 00
        E 0 80 60 00
        E 90 90 1f 60
        E 0 90 3e 60
        E 0 90 4a 60
        E 0 90 56 60
        E 0 90 62 60
        E 30 80 1f 00
        E 0 80 3e 00
        E 0 80 4a 00
        E 0 80 56 00
        E 0 80 62 00
        E 89 90 18 60
        E 0 90 60 60
        E 30 80 18 00
        E 0 80 60 00
        E 91 90 1a 60
        E 0 90 1f 60
        E 0 90 55 60
        E 0 90 56 60
        E 0 90 61 60
        E 0 90 62 60
        E 30 80 1a 00
        E 0 80 1f 00
        E 0 80 55 00
        E 0 80 56 00
        E 0 80 61 00
        E 0 80 62 00
        E 210 90 18 60
        E 0 90 1f 60
        E 0 90 3e 60
        E 0 90 48 60
        E 0 90 4a 60
        E 0 90 54 60
        E 0 90 56 60
        E 0 90 60 60
        E 0 90 62 60
        E 30 80 18 00
        E 0 80 1f 00
        E 0 80 3e 00
        E 0 80 48 00
        E 0 80 4a 00
        E 0 80 54 00
        E 0 80 56 00
        E 0 80 60 00
        E 0 80 62 00
        E 210 90 1a 60
        E 0 90 1f 60
        E 0 90 55 60
        E 0 90 56 60
        E 0 90 61 60
        E 0 90 62 60
        E 30 80 1a 00
        E 0 80 1f 00
        E 0 80 55 00
        E 0 80 56 00
        E 0 80 61 00
        E 0 80 62 00
        E 210 90 1f 60
        E 0 90 3e 60
        E 0 90 4a 60
        E 0 90 56 60
        E 0 90 62 60
        E 30 80 1f 00
        E 0 80 3e 00
        E 0 80 4a 00
        E 0 80 56 00
        E 0 80 62 00
        E 49 90 18 60
        E 0 90 60 60
        E 30 80 18 00
        E 0 80 60 00
        E 50 90 18 60
        E 0 90 60 60
        E 30 80 18 00
        E 0 80 60 00
        E 50 90 1a 60
        E 0 90 1f 60
        E 0 90 55 60
        E 0 90 56 60
        E 0 90 61 60
        E 0 90 62 60
        E 30 80 1a 00
        E 0 80 1f 00
        E 0 80 55 00
        E 0 80 56 00
        E 0 80 61 00
        E 0 80 62 00
        E 211 90 18 60
        E 0 90 1f 60
        E 0 90 3e 60
        E 0 90 48 60
        E 0 90 4a 60
        E 0 90 54 60
        E 0 90 56 60
        E 0 90 60 60
        E 0 90 62 60
        E 30 80 18 00
        E 0 80 1f 00
        E 0 80 3e 00
        E 0 80 48 00
        E 0 80 4a 00
        E 0 80 54 00
        E 0 80 56 00
        E 0 80 60 00
        E 0 80 62 00
        E 89 90 1a 60
        E 0 90 61 60
        E 30 80 1a 00
        E 0 80 61 00
        E 91 90 18 60
        E 0 90 1b 60
        E 0 90 54 60
        E 0 90 55 60
        E 0 90 60 60
        E 0 90 61 60
        E 30 80 18 00
        E 0 80 1b 00
        E 0 80 54 00
        E 0 80 55 00
        E 0 80 60 00
        E 0 80 61 00
        E 89 90 1a 60
        E 0 90 61 60
        E 30 80 1a 00
        E 0 80 61 00
        E 91 90 18 60
        E 0 90 1b 60
        E 0 90 3d 60
        E 0 90 49 60
        E 0 90 54 60
        E 0 90 55 60
        E 0 90 60 60
        E 0 90 61 60
        E 30 80 18 00
        E 0 80 1b 00
        E 0 80 3d 00
        E 0 80 49 00
        E 0 80 54 00
        E 0 80 55 00
        E 0 80 60 00
        E 0 80 61 00
        E 89 90 1a 60
        E 0 90 61 60
        E 30 80 1a 00
        E 0 80 61 00
        E 91 90 18 60
        E 0 90 1b 60
        E 0 90 54 60
        E 0 90 55 60
        E 0 90 60 60
        E 0 90 61 60
        E 30 80 18 00
        E 0 80 1b 00
        E 0 80 54 00
        E 0 80 55 00
        E 0 80 60 00
        E 0 80 61 00
        E 89 90 1a 60
        E 0 90 61 60
        E 30 80 1a 00
        E 0 80 61 00
        E 91 90 18 60
        E 0 90 24 60
        E 0 90 40 60
        E 0 90 48 60
        E 0 90 4c 60
        E 0 90 54 60
        E 0 90 58 60
        E 0 90 60 60
        E 0 90 64 60
        E 0 90 74 60
        E 30 80 18 00
        E 0 80 24 00
        E 0 80 40 00
        E 0 80 48 00
        E 0 80 4c 00
        E 0 80 54 00
        E 0 80 58 00
        E 0 80 60 00
        E 0 80 64 00
        E 210 90 1b 60
        E 0 90 55 60
        E 0 90 61 60
        E 30 80 1b 00
        E 0 80 55 00
        E 0 80 61 00
        E 89 90 18 60
        E 0 90 22 60
        E 0 90 60 60
        E 0 90 64 60
        E 30 80 18 00
        E 0 80 22 00
        E 0 80 60 00
        E 0 80 64 00
        E 210 90 18 60
        E 0 90 60 60
        E 30 80 18 00
        E 0 80 60 00
        E 91 90 1a 60
        E 0 90 24 60
        E 0 90 55 60
        E 0 90 58 60
        E 0 90 61 60
        E 0 90 64 60
        E 30 80 1a 00
        E 0 80 24 00
        E 0 80 55 00
        E 0 80 58 00
        E 0 80 61 00
        E 0 80 64 00
        E 210 90 24 60
        E 0 90 40 60
        E 0 90 4c 60
        E 0 90 58 60
        E 0 90 64 60
        E 30 80 24 00
        E 0 80 40 00
        E 0 80 4c 00
        E 0 80 58 00
        E 0 80 64 00
        E 50 90 18 60
        E 0 90 60 60
        E 30 80 18 00
        E 0 80 60 00
        E 50 90 18 60
        E 0 90 60 60
        E 30 80 18 00
        E 0 80 60 00
        E 50 90 1a 60
        E 0 90 24 60
        E 0 90 55 60
        E 0 90 58 60
        E 0 90 61 60
        E 0 90 64 60
        E 30 80 1a 00
        E 0 80 24 00
        E 0 80 55 00
        E 0 80 58 00
        E 0 80 61 00
        E 0 80 64 00
        E 210 90 18 60
        E 0 90 24 60
        E 0 90 40 60
        E 0 90 48 60
        E 0 90 4c 60
        E 0 90 54 60
        E 0 90 58 60
        E 0 90 60 60
        E 0 90 64 60
        E 30 80 18 00
        E 0 80 24 00
        E 0 80 40 00
        E 0 80 48 00
        E 0 80 4c 00
        E 0 80 54 00
        E 0 80 58 00
        E 0 80 60 00
        E 0 80 64 00
        E 210 90 1a 60
        E 0 90 24 60
        E 0 90 55 60
        E 0 90 58 60
        E 0 90 61 60
        E 0 90 64 60
        E 30 80 1a 00
        E 0 80 24 00
        E 0 80 55 00
        E 0 80 58 00
        E 0 80 61 00
        E 0 80 64 00
        E 210 90 18 60
        E 0 90 24 60
        E 0 90 40 60
        E 0 90 48 60
        E 0 90 4c 60
        E 0 90 54 60
        E 0 90 58 60
        E 0 90 60 60
        E 0 90 64 60
        E 30 80 18 00
        E 0 80 24 00
        E 0 80 40 00
        E 0 80 48 00
        E 0 80 4c 00
        E 0 80 54 00
        E 0 80 58 00
        E 0 80 60 00
        E 0 80 64 00
        E 210 90 1b 60
        E 0 90 55 60
        E 0 90 61 60
        E 30 80 1b 00
        E 0 80 55 00
        E 0 80 61 00
        E 90 90 18 60
        E 0 90 22 60
        E 0 90 60 60
        E 0 90 64 60
        E 30 80 18 00
        E 0 80 22 00
        E 0 80 60 00
        E 0 80 64 00
        E 209 90 18 60
        E 0 90 60 60
        E 30 80 18 00
        E 0 80 60 00
        E 91 90 1a 60
        E 0 90 24 60
        E 0 90 55 60
        E 0 90 58 60
        E 0 90 61 60
        E 0 90 64 60
        E 30 80 1a 00
        E 0 80 24 00
        E 0 80 55 00
        E 0 80 58 00
        E 0 80 61 00
        E 0 80 64 00
        E 210 90 24 60
        E 0 90 40 60
        E 0 90 4c 60
        E 0 90 58 60
        E 0 90 64 60
        E 30 80 24 00
        E 0 80 40 00
        E 0 80 4c 00
        E 0 80 58 00
        E 0 80 64 00
        E 50 90 18 60
        E 0 90 60 60
        E 30 80 18 00
        E 0 80 60 00
        E 49 90 18 60
        E 0 90 60 60
        E 30 80 18 00
        E 0 80 60 00
        E 50 90 1a 60
        E 0 90 24 60
        E 0 90 55 60
        E 0 90 58 60
        E 0 90 61 60
        E 0 90 64 60
        E 30 80 1a 00
        E 0 80 24 00
        E 0 80 55 00
        E 0 80 58 00
        E 0 80 61 00
        E 0 80 64 00
        E 211 90 18 60
        E 0 90 24 60
        E 0 90 40 60
        E 0 90 48 60
        E 0 90 4c 60
        E 0 90 54 60
        E 0 90 58 60
        E 0 90 60 60
        E 0 90 64 60
        E 30 80 18 00
        E 0 80 24 00
        E 0 80 40 00
        E 0 80 48 00
        E 0 80 4c 00
        E 0 80 54 00
        E 0 80 58 00
        E 0 80 60 00
        E 0 80 64 00
        E 90 90 1a 60
        E 0 90 61 60
        E 30 80 1a 00
        E 0 80 61 00
        E 90 90 1b 60
        E 0 90 55 60
        E 0 90 61 60
        E 30 80 1b 00
        E 0 80 55 00
        E 0 80 61 00
        E 89 90 1a 60
        E 0 90 61 60
        E 30 80 1a 00
        E 0 80 61 00
        E 91 80 74 00
        E 0 90 18 60
        E 0 90 24 60
        E 0 90 40 60
        E 0 90 48 60
        E 0 90 4c 60
        E 0 90 54 60
        E 0 90 58 60
        E 0 90 60 60
        E 0 90 64 60
        E 30 80 18 00
        E 0 80 24 00
        E 0 80 40 00
        E 0 80 48 00
        E 0 80 4c 00
        E 0 80 54 00
        E 0 80 58 00
        E 0 80 60 00
        E 0 80 64 00
        E 209 90 1b 60
        E 0 90 55 60
        E 0 90 61 60
        E 30 80 1b 00
        E 0 80 55 00
        E 0 80 61 00
        E 90 90 18 60
        E 0 90 22 60
        E 0 90 60 60
        E 0 90 64 60
        E 30 80 18 00
        E 0 80 22 00
        E 0 80 60 00
        E 0 80 64 00
        E 211 90 18 60
        E 0 90 60 60
        E 30 80 18 00
        E 0 80 60 00
        E 89 90 1a 60
        E 0 90 24 60
        E 0 90 55 60
        E 0 90 58 60
        E 0 90 61 60
        E 0 90 64 60
        E 30 80 1a 00
        E 0 80 24 00
        E 0 80 55 00
        E 0 80 58 00
        E 0 80 61 00
        E 0 80 64 00
        E 211 90 24 60
        E 0 90 40 60
        E 0 90 4c 60
        E 0 90 58 60
        E 0 90 64 60
        E 30 80 24 00
        E 0 80 40 00
        E 0 80 4c 00
        E 0 80 58 00
        E 0 80 64 00
        E 49 90 18 60
        E 0 90 60 60
        E 30 80 18 00
        E 0 80 60 00
        E 51 90 18 60
        E 0 90 60 60
        E 30 80 18 00
        E 0 80 60 00
        E 49 90 1a 60
        E 0 90 24 60
        E 0 90 55 60
        E 0 90 58 60
        E 0 90 61 60
        E 0 90 64 60
        E 30 80 1a 00
        E 0 80 24 00
        E 0 80 55 00
        E 0 80 58 00
        E 0 80 61 00
        E 0 80 64 00
        E 211 90 18 60
        E 0 90 24 60
        E 0 90 40 60
        E 0 90 48 60
        E 0 90 4c 60
        E 0 90 54 60
        E 0 90 58 60
        E 0 90 60 60
        E 0 90 64 60
        E 30 80 18 00
        E 0 80 24 00
        E 0 80 40 00
        E 0 80 48 00
        E 0 80 4c 00
        E 0 80 54 00
        E 0 80 58 00
        E 0 80 60 00
        E 0 80 64 00
        E 209 90 1a 60
        E 0 90 24 60
        E 0 90 55 60
        E 0 90 58 60
        E 0 90 61 60
        E 0 90 64 60
        E 30 80 1a 00
        E 0 80 24 00
        E 0 80 55 00
        E 0 80 58 00
        E 0 80 61 00
        E 0 80 64 00
        E 211 90 18 60
        E 0 90 24 60
        E 0 90 40 60
        E 0 90 48 60
        E 0 90 4c 60
        E 0 90 54 60
        E 0 90 58 60
        E 0 90 60 60
        E 0 90 64 60
        E 0 90 78 60
        E 0 90 79 60
        E 0 90 7a 60
        E 0 90 7b 60
        E 0 90 7c 60
        E 30 80 18 00
        E 0 80 24 00
        E 0 80 40 00
        E 0 80 48 00
        E 0 80 4c 00
        E 0 80 54 00
        E 0 80 58 00
        E 0 80 60 00
        E 0 80 64 00
        E 209 90 1b 60
        E 0 90 55 60
        E 0 90 61 60
        E 30 80 1b 00
        E 0 80 55 00
        E 0 80 61 00
        E 90 90 18 60
        E 0 90 22 60
        E 0 90 60 60
        E 0 90 64 60
        E 30 80 18 00
        E 0 80 22 00
        E 0 80 60 00
        E 0 80 64 00
        E 211 90 18 60
        E 0 90 60 60
        E 30 80 18 00
        E 0 80 60 00
        E 89 90 1a 60
        E 0 90 24 60
        E 0 90 55 60
        E 0 90 58 60
        E 0 90 61 60
        E 0 90 64 60
        E 30 80 1a 00
        E 0 80 24 00
        E 0 80 55 00
        E 0 80 58 00
        E 0 80 61 00
        E 0 80 64 00
        E 211 90 24 60
        E 0 90 40 60
        E 0 90 4c 60
        E 0 90 58 60
        E 0 90 64 60
        E 30 80 24 00
        E 0 80 40 00
        E 0 80 4c 00
        E 0 80 58 00
        E 0 80 64 00
        E 49 90 18 60
        E 0 90 60 60
        E 30 80 18 00
        E 0 80 60 00
        E 51 90 18 60
        E 0 90 60 60
        E 30 80 18 00
        E 0 80 60 00
        E 49 90 1a 60
        E 0 90 24 60
        E 0 90 55 60
        E 0 90 58 60
        E 0 90 61 60
        E 0 90 64 60
        E 30 80 1a 00
        E 0 80 24 00
        E 0 80 55 00
        E 0 80 58 00
        E 0 80 61 00
        E 0 80 64 00
        E 211 90 18 60
        E 0 90 24 60
        E 0 90 40 60
        E 0 90 48 60
        E 0 90 4c 60
        E 0 90 54 60
        E 0 90 58 60
        E 0 90 60 60
        E 0 90 64 60
        E 30 80 18 00
        E 0 80 24 00
        E 0 80 40 00
        E 0 80 48 00
        E 0 80 4c 00
        E 0 80 54 00
        E 0 80 58 00
        E 0 80 60 00
        E 0 80 64 00
        E 209 90 1a 60
        E 0 90 24 60
        E 0 90 55 60
        E 0 90 58 60
        E 0 90 61 60
        E 0 90 64 60
        E 30 80 1a 00
        E 0 80 24 00
        E 0 80 55 00
        E 0 80 58 00
        E 0 80 61 00
        E 0 80 64 00
        E 211 80 78 00
        E 0 80 79 00
        E 0 80 7a 00
        E 0 80 7b 00
        E 0 80 7c 00
        E 0 90 18 60
        E 0 90 24 60
        E 0 90 40 60
        E 0 90 48 60
        E 0 90 4c 60
        E 0 90 54 60
        E 0 90 58 60
        E 0 90 60 60
        E 0 90 64 60
        E 30 80 18 00
        E 0 80 24 00
        E 0 80 40 00
        E 0 80 48 00
        E 0 80 4c 00
        E 0 80 54 00
        E 0 80 58 00
        E 0 80 60 00
        E 0 80 64 00
        E 210 90 1f 60
        E 0 90 56 60
        E 0 90 62 60
        E 30 80 1f 00
        E 0 80 56 00
        E 0 80 62 00
        E 210 90 18 60
        E 0 90 1f 60
        E 0 90 3e 60
        E 0 90 48 60
        E 0 90 4a 60
        E 0 90 54 60
        E 0 90 56 60
        E 0 90 60 60
        E 0 90 62 60
        E 30 80 18 00
        E 0 80 1f 00
        E 0 80 3e 00
        E 0 80 48 00
        E 0 80 4a 00
        E 0 80 54 00
        E 0 80 56 00
        E 0 80 60 00
        E 0 80 62 00
        E 210 90 1a 60
        E 0 90 2a 60
        E 0 90 55 60
        E 0 90 57 60
        E 0 90 61 60
        E 0 90 63 60
        E 30 80 1a 00
        E 0 80 2a 00
        E 0 80 55 00
        E 0 80 57 00
        E 0 80 61 00
        E 0 80 63 00
        E 210 90 1f 60
        E 0 90 3e 60
        E 0 90 4a 60
        E 0 90 56 60
        E 0 90 62 60
        E 30 80 1f 00
        E 0 80 3e 00
        E 0 80 4a 00
        E 0 80 56 00
        E 0 80 62 00
        E 210 90 18 60
        E 0 90 1f 60
        E 0 90 54 60
        E 0 90 56 60
        E 0 90 60 60
        E 0 90 62 60
        E 30 80 18 00
        E 0 80 1f 00
        E 0 80 54 00
        E 0 80 56 00
        E 0 80 60 00
        E 0 80 62 00
        E 210 90 18 60
        E 0 90 2a 60
        E 0 90 3f 60
        E 0 90 48 60
        E 0 90 4b 60
        E 0 90 54 60
        E 0 90 57 60
        E 0 90 60 60
        E 0 90 63 60
        E 30 80 18 00
        E 0 80 2a 00
        E 0 80 3f 00
        E 0 80 48 00
        E 0 80 4b 00
        E 0 80 54 00
        E 0 80 57 00
        E 0 80 60 00
        E 0 80 63 00
        E 450 90 18 60
        E 0 90 2a 60
        E 0 90 3f 60
        E 0 90 48 60
        E 0 90 4b 60
        E 0 90 54 60
        E 0 90 57 60
        E 0 90 60 60
        E 0 90 63 60
        E 30 80 18 00
        E 0 80 2a 00
        E 0 80 3f 00
        E 0 80 48 00
        E 0 80 4b 00
        E 0 80 54 00
        E 0 80 57 00
        E 0 80 60 00
        E 0 80 63 00
        E 450 90 1a 60
        E 0 90 1f 60
        E 0 90 3d 60
        E 0 90 49 60
        E 0 90 4a 60
        E 0 90 55 60
        E 0 90 56 60
        E 0 90 61 60
        E 0 90 62 60
        E 30 80 1a 00
        E 0 80 1f 00
        E 0 80 3d 00
        E 0 80 49 00
        E 0 80 4a 00
        E 0 80 55 00
        E 0 80 56 00
        E 0 80 61 00
        E 0 80 62 00
        E 450 90 18 60
        E 0 90 1f 60
        E 0 90 3e 60
        E 0 90 48 60
        E 0 90 4a 60
        E 0 90 54 60
        E 0 90 56 60
        E 0 90 60 60
        E 0 90 62 60
        E 30 80 18 00
        E 0 80 1f 00
        E 0 80 3e 00
        E 0 80 48 00
        E 0 80 4a 00
        E 0 80 54 00
        E 0 80 56 00
        E 0 80 60 00
        E 0 80 62 00
        E 450 90 18 60
        E 0 90 1f 60
        E 0 90 3e 60
        E 0 90 48 60
        E 0 90 4a 60
        E 0 90 54 60
        E 0 90 56 60
        E 0 90 60 60
        E 0 90 62 60
        E 30 80 18 00
        E 0 80 1f 00
        E 0 80 3e 00
        E 0 80 48 00
        E 0 80 4a 00
        E 0 80 54 00
        E 0 80 56 00
        E 0 80 60 00
        E 0 80 62 00
        E 210 90 1a 60
        E 0 90 2a 60
        E 0 90 55 60
        E 0 90 57 60
        E 0 90 61 60
        E 0 90 63 60
        E 30 80 1a 00
        E 0 80 2a 00
        E 0 80 55 00
        E 0 80 57 00
        E 0 80 61 00
        E 0 80 63 00
        E 450 90 18 60
        E 0 90 1f 60
        E 0 90 54 60
        E 0 90 56 60
        E 0 90 60 60
        E 0 90 62 60
        E 30 80 18 00
        E 0 80 1f 00
        E 0 80 54 00
        E 0 80 56 00
        E 0 80 60 00
        E 0 80 62 00
        E 210 90 2a 60
        E 0 90 3f 60
        E 0 90 4b 60
        E 0 90 57 60
        E 0 90 63 60
        E 30 80 2a 00
        E 0 80 3f 00
        E 0 80 4b 00
        E 0 80 57 00
        E 0 80 63 00
        E 210 90 1b 60
        E 0 90 55 60
        E 0 90 61 60
        E 30 80 1b 00
        E 0 80 55 00
        E 0 80 61 00
        E 89 90 1a 60
        E 0 90 61 60
        E 30 80 1a 00
        E 0 80 61 00
        E 91 90 1b 60
        E 0 90 3d 60
        E 0 90 49 60
        E 0 90 55 60
        E 0 90 61 60
        E 30 80 1b 00
        E 0 80 3d 00
        E 0 80 49 00
        E 0 80 55 00
        E 0 80 61 00
        E 89 90 1a 60
        E 0 90 61 60
        E 30 80 1a 00
        E 0 80 61 00
        E 91 90 1b 60
        E 0 90 55 60
        E 0 90 61 60
        E 30 80 1b 00
        E 0 80 55 00
        E 0 80 61 00
        E 89 90 1a 60
        E 0 90 61 60
        E 30 80 1a 00
        E 0 80 61 00
        E 91 90 2f 60
        E 0 90 3e 60
        E 0 90 4a 60
        E 0 90 56 60
        E 0 90 62 60
        E 0 90 6e 60
        E 30 80 2f 00
        E 0 80 3e 00
        E 0 80 4a 00
        E 0 80 56 00
        E 0 80 62 00
        E 0 80 6e 00
        E 89 90 2e 60
        E 0 90 62 60
        E 0 90 6e 60
        E 30 80 2e 00
        E 0 80 62 00
        E 0 80 6e 00
        E 91 90 31 60
        E 0 90 57 60
        E 0 90 63 60
        E 0 90 6f 60
        E 30 80 31 00
        E 0 80 57 00
        E 0 80 63 00
        E 0 80 6f 00
        E 89 90 30 60
        E 0 90 63 60
        E 0 90 6f 60
        E 30 80 30 00
        E 0 80 63 00
        E 0 80 6f 00
        E 91 90 18 60
        E 0 90 24 60
        E 0 90 40 60
        E 0 90 48 60
        E 0 90 4c 60
        E 0 90 54 60
        E 0 90 58 60
        E 0 90 60 60
        E 0 90 64 60
        E 30 80 18 00
        E 0 80 24 00
        E 0 80 40 00
        E 0 80 48 00
        E 0 80 4c 00
        E 0 80 54 00
        E 0 80 58 00
        E 0 80 60 00
        E 0 80 64 00
        E 210 90 1b 60
        E 0 90 55 60
        E 0 90 61 60
        E 30 80 1b 00
        E 0 80 55 00
        E 0 80 61 00
        E 90 90 1a 60
        E 0 90 61 60
        E 30 80 1a 00
        E 0 80 61 00
        E 90 90 18 60
        E 0 90 3c 60
        E 0 90 48 60
        E 0 90 54 60
        E 0 90 60 60
        E 30 80 18 00
        E 0 80 3c 00
        E 0 80 48 00
        E 0 80 54 00
        E 0 80 60 00
        E 210 90 1a 60
        E 0 90 2a 60
        E 0 90 55 60
        E 0 90 57 60
        E 0 90 61 60
        E 0 90 63 60
        E 30 80 1a 00
        E 0 80 55 00
        E 0 80 61 00
        E 30 80 2a 00
        E 0 80 57 00
        E 0 80 63 00
        E 420 90 18 60
        E 0 90 1f 60
        E 0 90 54 60
        E 0 90 56 60
        E 0 90 60 60
        E 0 90 62 60
        E 30 80 18 00
        E 0 80 1f 00
        E 0 80 54 00
        E 0 80 56 00
        E 0 80 60 00
        E 0 80 62 00
        E 210 90 18 60
        E 0 90 2a 60
        E 0 90 3f 60
        E 0 90 48 60
        E 0 90 4b 60
        E 0 90 54 60
        E 0 90 57 60
        E 0 90 60 60
        E 0 90 63 60
        E 30 80 18 00
        E 0 80 2a 00
        E 0 80 3f 00
        E 0 80 48 00
        E 0 80 4b 00
        E 0 80 54 00
        E 0 80 57 00
        E 0 80 60 00
        E 0 80 63 00
        E 450 90 18 60
        E 0 90 2a 60
        E 0 90 3f 60
        E 0 90 48 60
        E 0 90 4b 60
        E 0 90 54 60
        E 0 90 57 60
        E 0 90 60 60
        E 0 90 63 60
        E 30 80 18 00
        E 0 80 2a 00
        E 0 80 3f 00
        E 0 80 48 00
        E 0 80 4b 00
        E 0 80 54 00
        E 0 80 57 00
        E 0 80 60 00
        E 0 80 63 00
        E 450 90 1a 60
        E 0 90 1f 60
        E 0 90 3d 60
        E 0 90 49 60
        E 0 90 4a 60
        E 0 90 55 60
        E 0 90 56 60
        E 0 90 61 60
        E 0 90 62 60
        E 30 80 1a 00
        E 0 80 1f 00
        E 0 80 3d 00
        E 0 80 49 00
        E 0 80 4a 00
        E 0 80 55 00
        E 0 80 56 00
        E 0 80 61 00
        E 0 80 62 00
        E 210 90 1b 60
        E 0 90 55 60
        E 0 90 61 60
        E 30 80 1b 00
        E 0 80 55 00
        E 0 80 61 00
        E 90 90 1a 60
        E 0 90 61 60
        E 30 80 1a 00
        E 0 80 61 00
        E 90 90 18 60
        E 0 90 2a 60
        E 0 90 3f 60
        E 0 90 48 60
        E 0 90 4b 60
        E 0 90 54 60
        E 0 90 57 60
        E 0 90 60 60
        E 0 90 63 60
        E 30 80 18 00
        E 0 80 2a 00
        E 0 80 3f 00
        E 0 80 48 00
        E 0 80 4b 00
        E 0 80 54 00
        E 0 80 57 00
        E 0 80 60 00
        E 0 80 63 00
        E 450 90 18 60
        E 0 90 1f 60
        E 0 90 3e 60
        E 0 90 48 60
        E 0 90 4a 60
        E 0 90 54 60
        E 0 90 56 60
        E 0 90 60 60
        E 0 90 62 60
        E 30 80 18 00
        E 0 80 1f 00
        E 0 80 3e 00
        E 0 80 48 00
        E 0 80 4a 00
        E 0 80 54 00
        E 0 80 56 00
        E 0 80 60 00
        E 0 80 62 00
        E 210 90 1a 60
        E 0 90 2a 60
        E 0 90 55 60
        E 0 90 57 60
        E 0 90 61 60
        E 0 90 63 60
        E 30 80 1a 00
        E 0 80 2a 00
        E 0 80 55 00
        E 0 80 57 00
        E 0 80 61 00
        E 0 80 63 00
        E 450 90 18 60
        E 0 90 1f 60
        E 0 90 54 60
        E 0 90 56 60
        E 0 90 60 60
        E 0 90 62 60
        E 30 80 18 00
        E 0 80 1f 00
        E 0 80 54 00
        E 0 80 56 00
        E 0 80 60 00
        E 0 80 62 00
        E 210 90 18 60
        E 0 90 1f 60
        E 0 90 3e 60
        E 0 90 48 60
        E 0 90 4a 60
        E 0 90 54 60
        E 0 90 56 60
        E 0 90 60 60
        E 0 90 62 60
        e 0 90 78 60
        e 0 90 79 60
        e 0 90 7a 60
        e 0 90 7b 60
        e 0 90 7c 60
        E 30 80 18 00
        E 0 80 1f 00
        E 0 80 3e 00
        E 0 80 48 00
        E 0 80 4a 00
        E 0 80 54 00
        E 0 80 56 00
        E 0 80 60 00
        E 0 80 62 00
        E 210 90 1a 60
        E 0 90 55 60
        E 0 90 61 60
        E 30 80 1a 00
        E 0 80 55 00
        E 0 80 61 00
        E 210 90 1b 60
        E 0 90 3d 60
        E 0 90 49 60
        E 0 90 55 60
        E 0 90 61 60
        E 30 80 1b 00
        E 0 80 3d 00
        E 0 80 49 00
        E 0 80 55 00
        E 0 80 61 00
        E 90 90 1a 60
        E 0 90 61 60
        E 30 80 1a 00
        E 0 80 61 00
        E 90 90 1f 60
        E 0 90 56 60
        E 0 90 62 60
        E 30 80 1f 00
        E 0 80 56 00
        E 0 80 62 00
        E 210 90 1b 60
        E 0 90 3d 60
        E 0 90 49 60
        E 0 90 55 60
        E 0 90 61 60
        E 30 80 1b 00
        E 0 80 3d 00
        E 0 80 49 00
        E 0 80 55 00
        E 0 80 61 00
        E 90 90 1a 60
        E 0 90 61 60
        E 30 80 1a 00
        E 0 80 61 00
        E 90 90 1b 60
        E 0 90 55 60
        E 0 90 61 60
        E 30 80 1b 00
        E 0 80 55 00
        E 0 80 61 00
        E 90 90 1a 60
        E 0 90 61 60
        E 30 80 1a 00
        E 0 80 61 00
        e 90 80 78 00
        e 0 80 79 00
        e 0 80 7a 00
        e 0 80 7b 00
        e 0 80 7c 00
        E 0 90 18 60
        E 0 90 24 60
        E 0 90 40 60
        E 0 90 48 60
        E 0 90 4c 60
        E 0 90 54 60
        E 0 90 58 60
        E 0 90 60 60
        E 0 90 64 60
        E 30 80 18 00
        E 0 80 24 00
        E 0 80 40 00
        E 0 80 48 00
        E 0 80 4c 00
        E 0 80 54 00
        E 0 80 58 00
        E 0 80 60 00
        E 0 80 64 00
        E 169 90 1a 60
        E 0 90 61 60
        E 30 80 1a 00
        E 0 80 61 00
        E 91 90 18 60
        E 0 90 24 60
        E 0 90 54 60
        E 0 90 58 60
        E 0 90 60 60
        E 0 90 64 60
        E 30 80 18 00
        E 0 80 24 00
        E 0 80 54 00
        E 0 80 58 00
        E 0 80 60 00
        E 0 80 64 00
        E 249 90 18 60
        E 0 90 60 60
        E 30 80 18 00
        E 0 80 60 00
        E 91 90 1a 60
        E 0 90 1f 60
        E 0 90 55 60
        E 0 90 56 60
        E 0 90 61 60
        E 0 90 62 60
        E 30 80 1a 00
        E 0 80 1f 00
        E 0 80 55 00
        E 0 80 56 00
        E 0 80 61 00
        E 0 80 62 00
        E 210 90 1f 60
        E 0 90 3e 60
        E 0 90 4a 60
        E 0 90 56 60
        E 0 90 62 60
        E 30 80 1f 00
        E 0 80 3e 00
        E 0 80 4a 00
        E 0 80 56 00
        E 0 80 62 00
        E 50 90 18 60
        E 0 90 60 60
        E 30 80 18 00
        E 0 80 60 00
        E 50 90 18 60
        E 0 90 60 60
        E 30 80 18 00
        E 0 80 60 00
        E 50 90 1a 60
        E 0 90 1f 60
        E 0 90 55 60
        E 0 90 56 60
        E 0 90 61 60
        E 0 90 62 60
        E 30 80 1a 00
        E 0 80 1f 00
        E 0 80 55 00
        E 0 80 56 00
        E 0 80 61 00
        E 0 80 62 00
        E 210 90 18 60
        E 0 90 1f 60
        E 0 90 3e 60
        E 0 90 48 60
        E 0 90 4a 60
        E 0 90 54 60
        E 0 90 56 60
        E 0 90 60 60
        E 0 90 62 60
        E 30 80 18 00
        E 0 80 1f 00
        E 0 80 3e 00
        E 0 80 48 00
        E 0 80 4a 00
        E 0 80 54 00
        E 0 80 56 00
        E 0 80 60 00
        E 0 80 62 00
        E 209 90 1a 60
        E 0 90 1f 60
        E 0 90 55 60
        E 0 90 56 60
        E 0 90 61 60
        E 0 90 62 60
        E 30 80 1a 00
        E 0 80 1f 00
        E 0 80 55 00
        E 0 80 56 00
        E 0 80 61 00
        E 0 80 62 00
        E 211 90 18 60
        E 0 90 24 60
        E 0 90 40 60
        E 0 90 48 60
        E 0 90 4c 60
        E 0 90 54 60
        E 0 90 58 60
        E 0 90 60 60
        E 0 90 64 60
        E 30 80 18 00
        E 0 80 24 00
        E 0 80 40 00
        E 0 80 48 00
        E 0 80 4c 00
        E 0 80 54 00
        E 0 80 58 00
        E 0 80 60 00
        E 0 80 64 00
        E 209 90 1b 60
        E 0 90 55 60
        E 0 90 61 60
        E 30 80 1b 00
        E 0 80 55 00
        E 0 80 61 00
        E 90 90 18 60
        E 0 90 1e 60
        E 0 90 60 60
        E 0 90 62 60
        E 30 80 18 00
        E 0 80 1e 00
        E 0 80 60 00
        E 0 80 62 00
        E 211 90 18 60
        E 0 90 60 60
        E 30 80 18 00
        E 0 80 60 00
        E 89 90 1a 60
        E 0 90 24 60
        E 0 90 55 60
        E 0 90 58 60
        E 0 90 61 60
        E 0 90 64 60
        E 30 80 1a 00
        E 0 80 24 00
        E 0 80 55 00
        E 0 80 58 00
        E 0 80 61 00
        E 0 80 64 00
        E 211 90 1f 60
        E 0 90 3e 60
        E 0 90 4a 60
        E 0 90 56 60
        E 0 90 62 60
        E 30 80 1f 00
        E 0 80 3e 00
        E 0 80 4a 00
        E 0 80 56 00
        E 0 80 62 00
        E 49 90 18 60
        E 0 90 60 60
        E 30 80 18 00
        E 0 80 60 00
        E 50 90 18 60
        E 0 90 60 60
        E 30 80 18 00
        E 0 80 60 00
        E 50 90 1a 60
        E 0 90 1f 60
        E 0 90 55 60
        E 0 90 56 60
        E 0 90 61 60
        E 0 90 62 60
        E 30 80 1a 00
        E 0 80 1f 00
        E 0 80 55 00
        E 0 80 56 00
        E 0 80 61 00
        E 0 80 62 00
        E 211 90 18 60
        E 0 90 1f 60
        E 0 90 3e 60
        E 0 90 48 60
        E 0 90 4a 60
        E 0 90 54 60
        E 0 90 56 60
        E 0 90 60 60
        E 0 90 62 60
        E 30 80 18 00
        E 0 80 1f 00
        E 0 80 3e 00
        E 0 80 48 00
        E 0 80 4a 00
        E 0 80 54 00
        E 0 80 56 00
        E 0 80 60 00
        E 0 80 62 00
        E 209 90 1a 60
        E 0 90 1f 60
        E 0 90 55 60
        E 0 90 56 60
        E 0 90 61 60
        E 0 90 62 60
        E 30 80 1a 00
        E 0 80 1f 00
        E 0 80 55 00
        E 0 80 56 00
        E 0 80 61 00
        E 0 80 62 00
        E 211 90 18 60
        E 0 90 24 60
        E 0 90 40 60
        E 0 90 48 60
        E 0 90 4c 60
        E 0 90 54 60
        E 0 90 58 60
        E 0 90 60 60
        E 0 90 64 60
        E 30 80 18 00
        E 0 80 24 00
        E 0 80 40 00
        E 0 80 48 00
        E 0 80 4c 00
        E 0 80 54 00
        E 0 80 58 00
        E 0 80 60 00
        E 0 80 64 00
        E 210 90 1b 60
        E 0 90 55 60
        E 0 90 61 60
        E 30 80 1b 00
        E 0 80 55 00
        E 0 80 61 00
        E 90 90 18 60
        E 0 90 22 60
        E 0 90 60 60
        E 0 90 64 60
        E 30 80 18 00
        E 0 80 22 00
        E 0 80 60 00
        E 0 80 64 00
        E 210 90 18 60
        E 0 90 60 60
        E 30 80 18 00
        E 0 80 60 00
        E 90 90 1a 60
        E 0 90 24 60
        E 0 90 55 60
        E 0 90 58 60
        E 0 90 61 60
        E 0 90 64 60
        E 30 80 1a 00
        E 0 80 24 00
        E 0 80 55 00
        E 0 80 58 00
        E 0 80 61 00
        E 0 80 64 00
        E 210 90 1f 60
        E 0 90 3e 60
        E 0 90 4a 60
        E 0 90 56 60
        E 0 90 62 60
        E 30 80 1f 00
        E 0 80 3e 00
        E 0 80 4a 00
        E 0 80 56 00
        E 0 80 62 00
        E 50 90 18 60
        E 0 90 60 60
        E 30 80 18 00
        E 0 80 60 00
        E 50 90 18 60
        E 0 90 60 60
        E 30 80 18 00
        E 0 80 60 00
        E 49 90 1a 60
        E 0 90 1f 60
        E 0 90 55 60
        E 0 90 56 60
        E 0 90 61 60
        E 0 90 62 60
        E 30 80 1a 00
        E 0 80 1f 00
        E 0 80 55 00
        E 0 80 56 00
        E 0 80 61 00
        E 0 80 62 00
        E 211 90 18 60
        E 0 90 1f 60
        E 0 90 3e 60
        E 0 90 48 60
        E 0 90 4a 60
        E 0 90 54 60
        E 0 90 56 60
        E 0 90 60 60
        E 0 90 62 60
        E 30 80 18 00
        E 0 80 1f 00
        E 0 80 3e 00
        E 0 80 48 00
        E 0 80 4a 00
        E 0 80 54 00
        E 0 80 56 00
        E 0 80 60 00
        E 0 80 62 00
        E 210 90 1a 60
        E 0 90 1f 60
        E 0 90 55 60
        E 0 90 56 60
        E 0 90 61 60
        E 0 90 62 60
        E 30 80 1a 00
        E 0 80 1f 00
        E 0 80 55 00
        E 0 80 56 00
        E 0 80 61 00
        E 0 80 62 00
        E 210 90 18 60
        E 0 90 24 60
        E 0 90 40 60
        E 0 90 48 60
        E 0 90 4c 60
        E 0 90 54 60
        E 0 90 58 60
        E 0 90 60 60
        E 0 90 64 60
        E 30 80 18 00
        E 0 80 24 00
        E 0 80 40 00
        E 0 80 48 00
        E 0 80 4c 00
        E 0 80 54 00
        E 0 80 58 00
        E 0 80 60 00
        E 0 80 64 00
        E 209 90 1b 60
        E 0 90 55 60
        E 0 90 61 60
        E 30 80 1b 00
        E 0 80 55 00
        E 0 80 61 00
        E 91 90 18 60
        E 0 90 22 60
        E 0 90 60 60
        E 0 90 64 60
        E 30 80 18 00
        E 0 80 22 00
        E 0 80 60 00
        E 0 80 64 00
        E 209 90 18 60
        E 0 90 60 60
        E 30 80 18 00
        E 0 80 60 00
        E 91 90 1a 60
        E 0 90 24 60
        E 0 90 55 60
        E 0 90 58 60
        E 0 90 61 60
        E 0 90 64 60
        E 30 80 1a 00
        E 0 80 24 00
        E 0 80 55 00
        E 0 80 58 00
        E 0 80 61 00
        E 0 80 64 00
        E 210 90 1f 60
        E 0 90 3e 60
        E 0 90 4a 60
        E 0 90 56 60
        E 0 90 62 60
        E 30 80 1f 00
        E 0 80 3e 00
        E 0 80 4a 00
        E 0 80 56 00
        E 0 80 62 00
        E 50 90 18 60
        E 0 90 60 60
        E 30 80 18 00
        E 0 80 60 00
        E 50 90 18 60
        E 0 90 60 60
        E 30 80 18 00
        E 0 80 60 00
        E 50 90 1a 60
        E 0 90 1f 60
        E 0 90 55 60
        E 0 90 56 60
        E 0 90 61 60
        E 0 90 62 60
        E 30 80 1a 00
        E 0 80 1f 00
        E 0 80 55 00
        E 0 80 56 00
        E 0 80 61 00
        E 0 80 62 00
        E 210 90 18 60
        E 0 90 1f 60
        E 0 90 3e 60
        E 0 90 48 60
        E 0 90 4a 60
        E 0 90 54 60
        E 0 90 56 60
        E 0 90 60 60
        E 0 90 62 60
        E 30 80 18 00
        E 0 80 1f 00
        E 0 80 3e 00
        E 0 80 48 00
        E 0 80 4a 00
        E 0 80 54 00
        E 0 80 56 00
        E 0 80 60 00
        E 0 80 62 00
        E 209 90 1a 60
        E 0 90 1f 60
        E 0 90 55 60
        E 0 90 56 60
        E 0 90 61 60
        E 0 90 62 60
        E 30 80 1a 00
        E 0 80 1f 00
        E 0 80 55 00
        E 0 80 56 00
        E 0 80 61 00
        E 0 80 62 00
        E 211 90 18 60
        E 0 90 1f 60
        E 0 90 3e 60
        E 0 90 48 60
        E 0 90 4a 60
        E 0 90 54 60
        E 0 90 56 60
        E 0 90 60 60
        E 0 90 62 60
        E 30 80 18 00
        E 0 80 1f 00
        E 0 80 3e 00
        E 0 80 48 00
        E 0 80 4a 00
        E 0 80 54 00
        E 0 80 56 00
        E 0 80 60 00
        E 0 80 62 00
        E 450 90 18 60
        E 0 90 1f 60
        E 0 90 3e 60
        E 0 90 48 60
        E 0 90 4a 60
        E 0 90 54 60
        E 0 90 56 60
        E 0 90 60 60
        E 0 90 62 60
        E 80 80 18 00
        E 0 80 1f 00
        E 0 80 3e 00
        E 0 80 48 00
        E 0 80 4a 00
        E 0 80 54 00
        E 0 80 56 00
        E 0 80 60 00
        E 0 80 62 00
        E 160 90 1a 60
        E 0 90 2a 60
        E 0 90 55 60
        E 0 90 57 60
        E 0 90 61 60
        E 0 90 63 60
        E 80 80 1a 00
        E 0 80 2a 00
        E 0 80 55 00
        E 0 80 57 00
        E 0 80 61 00
        E 0 80 63 00
        E 400 90 18 60
        E 0 90 1f 60
        E 0 90 54 60
        E 0 90 56 60
        E 0 90 60 60
        E 0 90 62 60
        E 30 80 18 00
        E 0 80 1f 00
        E 0 80 54 00
        E 0 80 56 00
        E 0 80 60 00
        E 0 80 62 00
        E 210 90 18 60
        E 0 90 2a 60
        E 0 90 3f 60
        E 0 90 48 60
        E 0 90 4b 60
        E 0 90 54 60
        E 0 90 57 60
        E 0 90 60 60
        E 0 90 63 60
        E 30 80 18 00
        E 0 80 2a 00
        E 0 80 3f 00
        E 0 80 48 00
        E 0 80 4b 00
        E 0 80 54 00
        E 0 80 57 00
        E 0 80 60 00
        E 0 80 63 00
        E 450 90 18 60
        E 0 90 2a 60
        E 0 90 3f 60
        E 0 90 48 60
        E 0 90 4b 60
        E 0 90 54 60
        E 0 90 57 60
        E 0 90 60 60
        E 0 90 63 60
        E 30 80 18 00
        E 0 80 2a 00
        E 0 80 3f 00
        E 0 80 48 00
        E 0 80 4b 00
        E 0 80 54 00
        E 0 80 57 00
        E 0 80 60 00
        E 0 80 63 00
        E 450 90 1a 60
        E 0 90 1f 60
        E 0 90 3d 60
        E 0 90 49 60
        E 0 90 4a 60
        E 0 90 55 60
        E 0 90 56 60
        E 0 90 61 60
        E 0 90 62 60
        E 30 80 1a 00
        E 0 80 1f 00
        E 0 80 3d 00
        E 0 80 49 00
        E 0 80 4a 00
        E 0 80 55 00
        E 0 80 56 00
        E 0 80 61 00
        E 0 80 62 00
        E 210 90 1b 60
        E 0 90 55 60
        E 0 90 61 60
        E 30 80 1b 00
        E 0 80 55 00
        E 0 80 61 00
        E 90 90 1a 60
        E 0 90 61 60
        E 30 80 1a 00
        E 0 80 61 00
        E 90 90 18 60
        E 0 90 1f 60
        E 0 90 3e 60
        E 0 90 48 60
        E 0 90 4a 60
        E 0 90 54 60
        E 0 90 56 60
        E 0 90 60 60
        E 0 90 62 60
        E 60 80 18 00
        E 0 80 1f 00
        E 0 80 3e 00
        E 0 80 48 00
        E 0 80 4a 00
        E 0 80 54 00
        E 0 80 56 00
        E 0 80 60 00
        E 0 80 62 00
        E 420 90 18 60
        E 0 90 2a 60
        E 0 90 3f 60
        E 0 90 48 60
        E 0 90 4b 60
        E 0 90 54 60
        E 0 90 57 60
        E 0 90 60 60
        E 0 90 63 60
        E 30 80 18 00
        E 0 80 2a 00
        E 0 80 3f 00
        E 0 80 48 00
        E 0 80 4b 00
        E 0 80 54 00
        E 0 80 57 00
        E 0 80 60 00
        E 0 80 63 00
        E 209 90 1a 60
        E 0 90 2a 60
        E 0 90 55 60
        E 0 90 57 60
        E 0 90 61 60
        E 0 90 63 60
        E 30 80 1a 00
        E 0 80 2a 00
        E 0 80 55 00
        E 0 80 57 00
        E 0 80 61 00
        E 0 80 63 00
        E 451 90 18 60
        E 0 90 2a 60
        E 0 90 54 60
        E 0 90 57 60
        E 0 90 60 60
        E 0 90 63 60
        E 30 80 18 00
        E 0 80 2a 00
        E 0 80 54 00
        E 0 80 57 00
        E 0 80 60 00
        E 0 80 63 00
        E 210 90 18 60
        E 0 90 2a 60
        E 0 90 3f 60
        E 0 90 48 60
        E 0 90 4b 60
        E 0 90 54 60
        E 0 90 57 60
        E 0 90 60 60
        E 0 90 63 60
        E 30 80 18 00
        E 0 80 2a 00
        E 0 80 3f 00
        E 0 80 48 00
        E 0 80 4b 00
        E 0 80 54 00
        E 0 80 57 00
        E 0 80 60 00
        E 0 80 63 00
        E 209 90 1a 60
        E 0 90 55 60
        E 0 90 61 60
        E 30 80 1a 00
        E 0 80 55 00
        E 0 80 61 00
        E 211 90 1b 60
        E 0 90 3d 60
        E 0 90 49 60
        E 0 90 55 60
        E 0 90 61 60
        E 30 80 1b 00
        E 0 80 3d 00
        E 0 80 49 00
        E 0 80 55 00
        E 0 80 61 00
        E 49 90 1a 60
        E 0 90 61 60
        E 30 80 1a 00
        E 0 80 61 00
        E 50 90 1b 60
        E 0 90 61 60
        E 30 80 1b 00
        E 0 80 61 00
        E 51 90 1a 60
        E 0 90 55 60
        E 0 90 61 60
        E 30 80 1a 00
        E 0 80 55 00
        E 0 80 61 00
        E 210 90 1b 60
        E 0 90 3d 60
        E 0 90 49 60
        E 0 90 55 60
        E 0 90 61 60
        E 30 80 1b 00
        E 0 80 3d 00
        E 0 80 49 00
        E 0 80 55 00
        E 0 80 61 00
        E 90 90 1a 60
        E 0 90 61 60
        E 30 80 1a 00
        E 0 80 61 00
        E 89 90 1b 60
        E 0 90 55 60
        E 0 90 61 60
        E 30 80 1b 00
        E 0 80 55 00
        E 0 80 61 00
        E 90 90 1a 60
        E 0 90 61 60
        E 30 80 1a 00
        E 0 80 61 00
        E 91 90 18 60
        E 0 90 24 60
        E 0 90 40 60
        E 0 90 48 60
        E 0 90 4c 60
        E 0 90 54 60
        E 0 90 58 60
        E 0 90 60 60
        E 0 90 64 60
        E 30 80 18 00
        E 0 80 24 00
        E 0 80 40 00
        E 0 80 48 00
        E 0 80 4c 00
        E 0 80 54 00
        E 0 80 58 00
        E 0 80 60 00
        E 0 80 64 00
        E 210 90 1b 60
        E 0 90 55 60
        E 0 90 61 60
        E 30 80 1b 00
        E 0 80 55 00
        E 0 80 61 00
        E 90 90 18 60
        E 0 90 22 60
        E 0 90 60 60
        E 0 90 64 60
        E 30 80 18 00
        E 0 80 22 00
        E 0 80 60 00
        E 0 80 64 00
        E 210 90 18 60
        E 0 90 60 60
        E 30 80 18 00
        E 0 80 60 00
        E 90 90 1a 60
        E 0 90 1f 60
        E 0 90 55 60
        E 0 90 56 60
        E 0 90 61 60
        E 0 90 62 60
        E 30 80 1a 00
        E 0 80 1f 00
        E 0 80 55 00
        E 0 80 56 00
        E 0 80 61 00
        E 0 80 62 00
        E 210 90 1f 60
        E 0 90 3e 60
        E 0 90 4a 60
        E 0 90 56 60
        E 0 90 62 60
        E 30 80 1f 00
        E 0 80 3e 00
        E 0 80 4a 00
        E 0 80 56 00
        E 0 80 62 00
        E 49 90 18 60
        E 0 90 60 60
        E 30 80 18 00
        E 0 80 60 00
        E 51 90 18 60
        E 0 90 60 60
        E 30 80 18 00
        E 0 80 60 00
        E 50 90 1a 60
        E 0 90 1f 60
        E 0 90 55 60
        E 0 90 56 60
        E 0 90 61 60
        E 0 90 62 60
        E 30 80 1a 00
        E 0 80 1f 00
        E 0 80 55 00
        E 0 80 56 00
        E 0 80 61 00
        E 0 80 62 00
        E 210 90 18 60
        E 0 90 1f 60
        E 0 90 3e 60
        E 0 90 48 60
        E 0 90 4a 60
        E 0 90 54 60
        E 0 90 56 60
        E 0 90 60 60
        E 0 90 62 60
        E 30 80 18 00
        E 0 80 1f 00
        E 0 80 3e 00
        E 0 80 48 00
        E 0 80 4a 00
        E 0 80 54 00
        E 0 80 56 00
        E 0 80 60 00
        E 0 80 62 00
        E 210 90 1a 60
        E 0 90 1f 60
        E 0 90 55 60
        E 0 90 56 60
        E 0 90 61 60
        E 0 90 62 60
        E 30 80 1a 00
        E 0 80 1f 00
        E 0 80 55 00
        E 0 80 56 00
        E 0 80 61 00
        E 0 80 62 00
        E 210 90 18 60
        E 0 90 1f 60
        E 0 90 3e 60
        E 0 90 48 60
        E 0 90 4a 60
        E 0 90 54 60
        E 0 90 56 60
        E 0 90 60 60
        E 0 90 62 60
        E 30 80 18 00
        E 0 80 1f 00
        E 0 80 3e 00
        E 0 80 48 00
        E 0 80 4a 00
        E 0 80 54 00
        E 0 80 56 00
        E 0 80 60 00
        E 0 80 62 00
        E 210 90 1b 60
        E 0 90 55 60
        E 0 90 61 60
        E 30 80 1b 00
        E 0 80 55 00
        E 0 80 61 00
        E 90 90 18 60
        E 0 90 1e 60
        E 0 90 60 60
        E 0 90 62 60
        E 30 80 18 00
        E 0 80 1e 00
        E 0 80 60 00
        E 0 80 62 00
        E 210 90 18 60
        E 0 90 60 60
        E 30 80 18 00
        E 0 80 60 00
        E 90 90 1a 60
        E 0 90 1f 60
        E 0 90 55 60
        E 0 90 56 60
        E 0 90 61 60
        E 0 90 62 60
        E 30 80 1a 00
        E 0 80 1f 00
        E 0 80 55 00
        E 0 80 56 00
        E 0 80 61 00
        E 0 80 62 00
        E 210 90 18 60
        E 0 90 1f 60
        E 0 90 3e 60
        E 0 90 48 60
        E 0 90 4a 60
        E 0 90 54 60
        E 0 90 56 60
        E 0 90 60 60
        E 0 90 62 60
        E 30 80 18 00
        E 0 80 1f 00
        E 0 80 3e 00
        E 0 80 48 00
        E 0 80 4a 00
        E 0 80 54 00
        E 0 80 56 00
        E 0 80 60 00
        E 0 80 62 00
        E 450 90 18 60
        E 0 90 1f 60
        E 0 90 3e 60
        E 0 90 48 60
        E 0 90 4a 60
        E 0 90 54 60
        E 0 90 56 60
        E 0 90 60 60
        E 0 90 62 60
        E 60 80 18 00
        E 0 80 1f 00
        E 0 80 3e 00
        E 0 80 48 00
        E 0 80 4a 00
        E 0 80 54 00
        E 0 80 56 00
        E 0 80 60 00
        E 0 80 62 00
        E 180 90 1a 60
        E 0 90 2a 60
        E 0 90 55 60
        E 0 90 57 60
        E 0 90 61 60
        E 0 90 63 60
        E 60 80 1a 00
        E 0 80 2a 00
        E 0 80 55 00
        E 0 80 57 00
        E 0 80 61 00
        E 0 80 63 00
        E 420 90 18 60
        E 0 90 1f 60
        E 0 90 54 60
        E 0 90 56 60
        E 0 90 60 60
        E 0 90 62 60
        E 60 80 18 00
        E 0 80 1f 00
        E 0 80 54 00
        E 0 80 56 00
        E 0 80 60 00
        E 0 80 62 00
        E 179 90 18 60
        E 0 90 2a 60
        E 0 90 3f 60
        E 0 90 48 60
        E 0 90 4b 60
        E 0 90 54 60
        E 0 90 57 60
        E 0 90 60 60
        E 0 90 63 60
        E 30 80 18 00
        E 0 80 2a 00
        E 0 80 3f 00
        E 0 80 48 00
        E 0 80 4b 00
        E 0 80 54 00
        E 0 80 57 00
        E 0 80 60 00
        E 0 80 63 00
        E 451 90 18 60
        E 0 90 2a 60
        E 0 90 3f 60
        E 0 90 48 60
        E 0 90 4b 60
        E 0 90 54 60
        E 0 90 57 60
        E 0 90 60 60
        E 0 90 63 60
        E 60 80 18 00
        E 0 80 2a 00
        E 0 80 3f 00
        E 0 80 48 00
        E 0 80 4b 00
        E 0 80 54 00
        E 0 80 57 00
        E 0 80 60 00
        E 0 80 63 00
        E 420 90 1a 60
        E 0 90 1f 60
        E 0 90 3d 60
        E 0 90 49 60
        E 0 90 4a 60
        E 0 90 55 60
        E 0 90 56 60
        E 0 90 61 60
        E 0 90 62 60
        E 30 80 1a 00
        E 0 80 1f 00
        E 0 80 3d 00
        E 0 80 49 00
        E 0 80 4a 00
        E 0 80 55 00
        E 0 80 56 00
        E 0 80 61 00
        E 0 80 62 00
        E 210 90 1b 60
        E 0 90 55 60
        E 0 90 61 60
        E 30 80 1b 00
        E 0 80 55 00
        E 0 80 61 00
        E 89 90 1a 60
        E 0 90 61 60
        E 30 80 1a 00
        E 0 80 61 00
        E 91 90 18 60
        E 0 90 1f 60
        E 0 90 3e 60
        E 0 90 48 60
        E 0 90 4a 60
        E 0 90 54 60
        E 0 90 56 60
        E 0 90 60 60
        E 0 90 62 60
        E 30 80 18 00
        E 0 80 1f 00
        E 0 80 3e 00
        E 0 80 48 00
        E 0 80 4a 00
        E 0 80 54 00
        E 0 80 56 00
        E 0 80 60 00
        E 0 80 62 00
        E 450 90 18 60
        E 0 90 1f 60
        E 0 90 3e 60
        E 0 90 48 60
        E 0 90 4a 60
        E 0 90 54 60
        E 0 90 56 60
        E 0 90 60 60
        E 0 90 62 60
        E 60 80 18 00
        E 0 80 1f 00
        E 0 80 3e 00
        E 0 80 48 00
        E 0 80 4a 00
        E 0 80 54 00
        E 0 80 56 00
        E 0 80 60 00
        E 0 80 62 00
        E 180 90 1a 60
        E 0 90 2a 60
        E 0 90 55 60
        E 0 90 57 60
        E 0 90 61 60
        E 0 90 63 60
        E 60 80 1a 00
        E 0 80 2a 00
        E 0 80 55 00
        E 0 80 57 00
        E 0 80 61 00
        E 0 80 63 00
        E 419 90 18 60
        E 0 90 1f 60
        E 0 90 54 60
        E 0 90 56 60
        E 0 90 60 60
        E 0 90 62 60
        E 30 80 18 00
        E 0 80 1f 00
        E 0 80 54 00
        E 0 80 56 00
        E 0 80 60 00
        E 0 80 62 00
        E 211 90 18 60
        E 0 90 1f 60
        E 0 90 3e 60
        E 0 90 48 60
        E 0 90 4a 60
        E 0 90 54 60
        E 0 90 56 60
        E 0 90 60 60
        E 0 90 62 60
        E 30 80 18 00
        E 0 80 1f 00
        E 0 80 3e 00
        E 0 80 48 00
        E 0 80 4a 00
        E 0 80 54 00
        E 0 80 56 00
        E 0 80 60 00
        E 0 80 62 00
        E 210 90 1b 60
        E 0 90 55 60
        E 0 90 61 60
        E 30 80 1b 00
        E 0 80 55 00
        E 0 80 61 00
        E 90 90 1a 60
        E 0 90 61 60
        E 30 80 1a 00
        E 0 80 61 00
        E 90 90 1b 60
        E 0 90 3d 60
        E 0 90 49 60
        E 0 90 55 60
        E 0 90 61 60
        E 30 80 1b 00
        E 0 80 3d 00
        E 0 80 49 00
        E 0 80 55 00
        E 0 80 61 00
        E 89 90 1a 60
        E 0 90 61 60
        E 30 80 1a 00
        E 0 80 61 00
        E 90 90 1b 60
        E 0 90 55 60
        E 0 90 61 60
        E 30 80 1b 00
        E 0 80 55 00
        E 0 80 61 00
        E 90 90 1a 60
        E 0 90 61 60
        E 30 80 1a 00
        E 0 80 61 00
        E 91 90 1b 60
        E 0 90 3d 60
        E 0 90 49 60
        E 0 90 55 60
        E 0 90 61 60
        E 30 80 1b 00
        E 0 80 3d 00
        E 0 80 49 00
        E 0 80 55 00
        E 0 80 61 00
        E 90 90 1a 60
        E 0 90 61 60
        E 30 80 1a 00
        E 0 80 61 00
        E 90 90 1b 60
        E 0 90 55 60
        E 0 90 61 60
        E 30 80 1b 00
        E 0 80 55 00
        E 0 80 61 00
        E 90 90 1a 60
        E 0 90 61 60
        E 30 80 1a 00
        E 0 80 61 00
        E 90 90 1b 60
        E 0 90 3d 60
        E 0 90 49 60
        E 0 90 55 60
        E 0 90 61 60
        E 30 80 1b 00
        E 0 80 3d 00
        E 0 80 49 00
        E 0 80 55 00
        E 0 80 61 00
        E 49 90 1a 60
        E 0 90 61 60
        E 30 80 1a 00
        E 0 80 61 00
        E 51 90 1b 60
        E 0 90 61 60
        E 30 80 1b 00
        E 0 80 61 00
        E 49 90 1a 60
        E 0 90 55 60
        E 0 90 61 60
        E 30 80 1a 00
        E 0 80 55 00
        E 0 80 61 00
        E 90 90 1b 60
        E 0 90 61 60
        E 30 80 1b 00
        E 0 80 61 00
        E 90 90 2e 60
        E 0 90 3e 60
        E 0 90 4a 60
        E 0 90 56 60
        E 0 90 62 60
        E 0 90 6e 60
        E 30 80 2e 00
        E 0 80 3e 00
        E 0 80 4a 00
        E 0 80 56 00
        E 0 80 62 00
        E 0 80 6e 00
        E 90 90 1b 60
        E 0 90 61 60
        E 30 80 1b 00
        E 0 80 61 00
        E 91 90 1a 60
        E 0 90 55 60
        E 0 90 61 60
        E 30 80 1a 00
        E 0 80 55 00
        E 0 80 61 00
        E 90 90 1b 60
        E 0 90 61 60
        E 30 80 1b 00
        E 0 80 61 00
        E 90 90 2e 60
        E 0 90 3e 60
        E 0 90 4a 60
        E 0 90 56 60
        E 0 90 62 60
        E 0 90 6e 60
        E 30 80 2e 00
        E 0 80 3e 00
        E 0 80 4a 00
        E 0 80 56 00
        E 0 80 62 00
        E 0 80 6e 00
        E 90 90 1b 60
        E 0 90 61 60
        E 30 80 1b 00
        E 0 80 61 00
        E 90 90 1a 60
        E 0 90 55 60
        E 0 90 61 60
        E 30 80 1a 00
        E 0 80 55 00
        E 0 80 61 00
        E 90 90 1b 60
        E 0 90 61 60
        E 30 80 1b 00
        E 0 80 61 00
        E 90 90 1a 60
        E 0 90 3d 60
        E 0 90 49 60
        E 0 90 55 60
        E 0 90 61 60
        E 30 80 1a 00
        E 0 80 3d 00
        E 0 80 49 00
        E 0 80 55 00
        E 0 80 61 00
        E 89 90 1b 60
        E 0 90 61 60
        E 30 80 1b 00
        E 0 80 61 00
        E 90 90 1a 60
        E 0 90 55 60
        E 0 90 61 60
        E 30 80 1a 00
        E 0 80 55 00
        E 0 80 61 00
        E 90 90 1b 60
        E 0 90 61 60
        E 30 80 1b 00
        E 0 80 61 00
        E 91 90 2e 60
        E 0 90 3e 60
        E 0 90 4a 60
        E 0 90 56 60
        E 0 90 62 60
        E 0 90 6e 60
        E 30 80 2e 00
        E 0 80 3e 00
        E 0 80 4a 00
        E 0 80 56 00
        E 0 80 62 00
        E 0 80 6e 00
        E 90 90 2f 60
        E 0 90 62 60
        E 0 90 6e 60
        E 30 80 2f 00
        E 0 80 62 00
        E 0 80 6e 00
        E 90 90 1a 60
        E 0 90 55 60
        E 0 90 61 60
        E 30 80 1a 00
        E 0 80 55 00
        E 0 80 61 00
        E 90 90 1b 60
        E 0 90 61 60
        E 30 80 1b 00
        E 0 80 61 00
        E 90 90 30 60
        E 0 90 3f 60
        E 0 90 4b 60
        E 0 90 57 60
        E 0 90 63 60
        E 0 90 6f 60
        E 30 80 30 00
        E 0 80 3f 00
        E 0 80 4b 00
        E 0 80 57 00
        E 0 80 63 00
        E 0 80 6f 00
        E 89 90 1b 60
        E 0 90 61 60
        E 30 80 1b 00
        E 0 80 61 00
        E 90 90 1a 60
        E 0 90 55 60
        E 0 90 61 60
        E 30 80 1a 00
        E 0 80 55 00
        E 0 80 61 00
        E 90 90 1b 60
        E 0 90 61 60
        E 30 80 1b 00
        E 0 80 61 00
        E 90 90 1a 60
        E 0 90 3d 60
        E 0 90 49 60
        E 0 90 55 60
        E 0 90 61 60
        E 30 80 1a 00
        E 0 80 3d 00
        E 0 80 49 00
        E 0 80 55 00
        E 0 80 61 00
        E 90 90 1b 60
        E 0 90 61 60
        E 30 80 1b 00
        E 0 80 61 00
        E 91 90 1a 60
        E 0 90 55 60
        E 0 90 61 60
        E 30 80 1a 00
        E 0 80 55 00
        E 0 80 61 00
        E 90 90 1b 60
        E 0 90 61 60
        E 30 80 1b 00
        E 0 80 61 00
        E 90 90 2e 60
        E 0 90 3e 60
        E 0 90 4a 60
        E 0 90 56 60
        E 0 90 62 60
        E 0 90 6e 60
        E 30 80 2e 00
        E 0 80 3e 00
        E 0 80 4a 00
        E 0 80 56 00
        E 0 80 62 00
        E 0 80 6e 00
        E 90 90 2f 60
        E 0 90 62 60
        E 0 90 6e 60
        E 30 80 2f 00
        E 0 80 62 00
        E 0 80 6e 00
        E 90 90 2e 60
        E 0 90 56 60
        E 0 90 62 60
        E 0 90 6e 60
        E 30 80 2e 00
        E 0 80 56 00
        E 0 80 62 00
        E 0 80 6e 00
        E 90 90 2f 60
        E 0 90 62 60
        E 0 90 6e 60
        E 30 80 2f 00
        E 0 80 62 00
        E 0 80 6e 00
        E 90 90 2e 60
        E 0 90 3e 60
        E 0 90 4a 60
        E 0 90 56 60
        E 0 90 62 60
        E 0 90 6e 60
        E 30 80 2e 00
        E 0 80 3e 00
        E 0 80 4a 00
        E 0 80 56 00
        E 0 80 62 00
        E 0 80 6e 00
        E 89 90 2f 60
        E 0 90 62 60
        E 0 90 6e 60
        E 30 80 2f 00
        E 0 80 62 00
        E 0 80 6e 00
        E 90 90 2e 60
        E 0 90 56 60
        E 0 90 62 60
        E 0 90 6e 60
        E 30 80 2e 00
        E 0 80 56 00
        E 0 80 62 00
        E 0 80 6e 00
        E 90 90 2f 60
        E 0 90 62 60
        E 0 90 6e 60
        E 30 80 2f 00
        E 0 80 62 00
        E 0 80 6e 00
        E 91 90 30 60
        E 0 90 3f 60
        E 0 90 4b 60
        E 0 90 57 60
        E 0 90 63 60
        E 0 90 6f 60
        E 30 80 30 00
        E 0 80 3f 00
        E 0 80 4b 00
        E 0 80 57 00
        E 0 80 63 00
        E 0 80 6f 00
        E 90 90 31 60
        E 0 90 63 60
        E 0 90 6f 60
        E 30 80 31 00
        E 0 80 63 00
        E 0 80 6f 00
        E 90 90 30 60
        E 0 90 57 60
        E 0 90 63 60
        E 0 90 6f 60
        E 30 80 30 00
        E 0 80 57 00
        E 0 80 63 00
        E 0 80 6f 00
        E 90 90 31 60
        E 0 90 63 60
        E 0 90 6f 60
        E 30 80 31 00
        E 0 80 63 00
        E 0 80 6f 00
        E 90 90 30 60
        E 0 90 3f 60
        E 0 90 4b 60
        E 0 90 57 60
        E 0 90 63 60
        E 0 90 6f 60
        E 30 80 30 00
        E 0 80 3f 00
        E 0 80 4b 00
        E 0 80 57 00
        E 0 80 63 00
        E 0 80 6f 00
        E 89 90 31 60
        E 0 90 63 60
        E 0 90 6f 60
        E 30 80 31 00
        E 0 80 63 00
        E 0 80 6f 00
        E 90 90 30 60
        E 0 90 57 60
        E 0 90 63 60
        E 0 90 6f 60
        E 30 80 30 00
        E 0 80 57 00
        E 0 80 63 00
        E 0 80 6f 00
        E 90 90 31 60
        E 0 90 63 60
        E 0 90 6f 60
        E 30 80 31 00
        E 0 80 63 00
        E 0 80 6f 00
        E 90 90 32 60
        E 0 90 40 60
        E 0 90 4c 60
        E 0 90 58 60
        E 0 90 64 60
        E 0 90 70 60
        E 30 80 32 00
        E 0 80 40 00
        E 0 80 4c 00
        E 0 80 58 00
        E 0 80 64 00
        E 0 80 70 00
        E 90 90 33 60
        E 0 90 64 60
        E 0 90 70 60
        E 30 80 33 00
        E 0 80 64 00
        E 0 80 70 00
        E 91 90 32 60
        E 0 90 58 60
        E 0 90 64 60
        E 0 90 70 60
        E 30 80 32 00
        E 0 80 58 00
        E 0 80 64 00
        E 0 80 70 00
        E 90 90 33 60
        E 0 90 64 60
        E 0 90 70 60
        E 30 80 33 00
        E 0 80 64 00
        E 0 80 70 00
        E 90 90 18 60
        E 0 90 22 60
        E 0 90 40 60
        E 0 90 48 60
        E 0 90 4c 60
        E 0 90 54 60
        E 0 90 58 60
        E 0 90 60 60
        E 0 90 64 60
        E 30 80 18 00
        E 0 80 22 00
        E 0 80 40 00
        E 0 80 48 00
        E 0 80 4c 00
        E 0 80 54 00
        E 0 80 58 00
        E 0 80 60 00
        E 0 80 64 00
        E 210 90 1b 60
        E 0 90 55 60
        E 0 90 61 60
        E 60 80 1b 00
        E 0 80 55 00
        E 0 80 61 00
        E 60 90 1a 60
        E 0 90 61 60
        E 60 80 1a 00
        E 0 80 61 00
        E 60 90 18 60
        E 0 90 2a 60
        E 0 90 3f 60
        E 0 90 48 60
        E 0 90 4b 60
        E 0 90 54 60
        E 0 90 57 60
        E 0 90 60 60
        E 0 90 63 60
        E 60 80 18 00
        E 0 80 2a 00
        E 0 80 3f 00
        E 0 80 48 00
        E 0 80 4b 00
        E 0 80 54 00
        E 0 80 57 00
        E 0 80 60 00
        E 0 80 63 00
        E 180 90 1a 60
        E 0 90 2a 60
        E 0 90 55 60
        E 0 90 57 60
        E 0 90 61 60
        E 0 90 63 60
        E 30 80 1a 00
        E 0 80 2a 00
        E 0 80 55 00
        E 0 80 57 00
        E 0 80 61 00
        E 0 80 63 00
        E 210 90 2a 60
        E 0 90 3f 60
        E 0 90 4b 60
        E 0 90 57 60
        E 0 90 63 60
        E 30 80 2a 00
        E 0 80 3f 00
        E 0 80 4b 00
        E 0 80 57 00
        E 0 80 63 00
        E 210 90 18 60
        E 0 90 2a 60
        E 0 90 54 60
        E 0 90 57 60
        E 0 90 60 60
        E 0 90 63 60
        E 60 80 18 00
        E 0 80 2a 00
        E 0 80 54 00
        E 0 80 57 00
        E 0 80 60 00
        E 0 80 63 00
        E 180 90 18 60
        E 0 90 2a 60
        E 0 90 3f 60
        E 0 90 48 60
        E 0 90 4b 60
        E 0 90 54 60
        E 0 90 57 60
        E 0 90 60 60
        E 0 90 63 60
        E 30 80 18 00
        E 0 80 2a 00
        E 0 80 3f 00
        E 0 80 48 00
        E 0 80 4b 00
        E 0 80 54 00
        E 0 80 57 00
        E 0 80 60 00
        E 0 80 63 00
        E 209 90 2a 60
        E 0 90 57 60
        E 0 90 63 60
        E 30 80 2a 00
        E 0 80 57 00
        E 0 80 63 00
        E 210 90 18 60
        E 0 90 2a 60
        E 0 90 3f 60
        E 0 90 48 60
        E 0 90 4b 60
        E 0 90 54 60
        E 0 90 57 60
        E 0 90 60 60
        E 0 90 63 60
        E 30 80 18 00
        E 0 80 2a 00
        E 0 80 3f 00
        E 0 80 48 00
        E 0 80 4b 00
        E 0 80 54 00
        E 0 80 57 00
        E 0 80 60 00
        E 0 80 63 00
        E 211 90 2a 60
        E 0 90 57 60
        E 0 90 63 60
        E 30 80 2a 00
        E 0 80 57 00
        E 0 80 63 00
        E 50 90 18 60
        E 0 90 60 60
        E 30 80 18 00
        E 0 80 60 00
        E 50 90 18 60
        E 0 90 60 60
        E 30 80 18 00
        E 0 80 60 00
        E 50 90 1a 60
        E 0 90 2a 60
        E 0 90 3d 60
        E 0 90 49 60
        E 0 90 4b 60
        E 0 90 55 60
        E 0 90 57 60
        E 0 90 61 60
        E 0 90 63 60
        E 30 80 1a 00
        E 0 80 2a 00
        E 0 80 3d 00
        E 0 80 49 00
        E 0 80 4b 00
        E 0 80 55 00
        E 0 80 57 00
        E 0 80 61 00
        E 0 80 63 00
        E 209 90 2a 60
        E 0 90 57 60
        E 0 90 63 60
        E 30 80 2a 00
        E 0 80 57 00
        E 0 80 63 00
        E 211 90 18 60
        E 0 90 2a 60
        E 0 90 3f 60
        E 0 90 48 60
        E 0 90 4b 60
        E 0 90 54 60
        E 0 90 57 60
        E 0 90 60 60
        E 0 90 63 60
        E 30 80 18 00
        E 0 80 2a 00
        E 0 80 3f 00
        E 0 80 48 00
        E 0 80 4b 00
        E 0 80 54 00
        E 0 80 57 00
        E 0 80 60 00
        E 0 80 63 00
        E 209 90 1b 60
        E 0 90 55 60
        E 0 90 61 60
        E 30 80 1b 00
        E 0 80 55 00
        E 0 80 61 00
        E 91 90 1a 60
        E 0 90 61 60
        E 30 80 1a 00
        E 0 80 61 00
        E 90 90 18 60
        E 0 90 2a 60
        E 0 90 3f 60
        E 0 90 48 60
        E 0 90 4b 60
        E 0 90 54 60
        E 0 90 57 60
        E 0 90 60 60
        E 0 90 63 60
        E 30 80 18 00
        E 0 80 2a 00
        E 0 80 3f 00
        E 0 80 48 00
        E 0 80 4b 00
        E 0 80 54 00
        E 0 80 57 00
        E 0 80 60 00
        E 0 80 63 00
        E 210 90 1a 60
        E 0 90 2a 60
        E 0 90 55 60
        E 0 90 57 60
        E 0 90 61 60
        E 0 90 63 60
        E 30 80 1a 00
        E 0 80 2a 00
        E 0 80 55 00
        E 0 80 57 00
        E 0 80 61 00
        E 0 80 63 00
        E 210 90 2a 60
        E 0 90 3f 60
        E 0 90 4b 60
        E 0 90 57 60
        E 0 90 63 60
        E 30 80 2a 00
        E 0 80 3f 00
        E 0 80 4b 00
        E 0 80 57 00
        E 0 80 63 00
        E 210 90 18 60
        E 0 90 2a 60
        E 0 90 54 60
        E 0 90 57 60
        E 0 90 60 60
        E 0 90 63 60
        E 30 80 18 00
        E 0 80 2a 00
        E 0 80 54 00
        E 0 80 57 00
        E 0 80 60 00
        E 0 80 63 00
        E 211 90 18 60
        E 0 90 2a 60
        E 0 90 3f 60
        E 0 90 48 60
        E 0 90 4b 60
        E 0 90 54 60
        E 0 90 57 60
        E 0 90 60 60
        E 0 90 63 60
        E 30 80 18 00
        E 0 80 2a 00
        E 0 80 3f 00
        E 0 80 48 00
        E 0 80 4b 00
        E 0 80 54 00
        E 0 80 57 00
        E 0 80 60 00
        E 0 80 63 00
        E 209 90 2a 60
        E 0 90 57 60
        E 0 90 63 60
        E 30 80 2a 00
        E 0 80 57 00
        E 0 80 63 00
        E 50 90 18 60
        E 0 90 60 60
        E 30 80 18 00
        E 0 80 60 00
        E 50 90 18 60
        E 0 90 60 60
        E 30 80 18 00
        E 0 80 60 00
        E 49 90 1a 60
        E 0 90 2a 60
        E 0 90 3d 60
        E 0 90 49 60
        E 0 90 4b 60
        E 0 90 55 60
        E 0 90 57 60
        E 0 90 61 60
        E 0 90 63 60
        E 30 80 1a 00
        E 0 80 2a 00
        E 0 80 3d 00
        E 0 80 49 00
        E 0 80 4b 00
        E 0 80 55 00
        E 0 80 57 00
        E 0 80 61 00
        E 0 80 63 00
        E 210 90 2a 60
        E 0 90 57 60
        E 0 90 63 60
        E 30 80 2a 00
        E 0 80 57 00
        E 0 80 63 00
        E 211 90 18 60
        E 0 90 2a 60
        E 0 90 3f 60
        E 0 90 48 60
        E 0 90 4b 60
        E 0 90 54 60
        E 0 90 57 60
        E 0 90 60 60
        E 0 90 63 60
        E 30 80 18 00
        E 0 80 2a 00
        E 0 80 3f 00
        E 0 80 48 00
        E 0 80 4b 00
        E 0 80 54 00
        E 0 80 57 00
        E 0 80 60 00
        E 0 80 63 00
        E 209 90 2a 60
        E 0 90 57 60
        E 0 90 63 60
        E 30 80 2a 00
        E 0 80 57 00
        E 0 80 63 00
        E 50 90 18 60
        E 0 90 60 60
        E 30 80 18 00
        E 0 80 60 00
        E 50 90 18 60
        E 0 90 60 60
        E 30 80 18 00
        E 0 80 60 00
        E 51 90 1a 60
        E 0 90 2a 60
        E 0 90 3d 60
        E 0 90 49 60
        E 0 90 4b 60
        E 0 90 55 60
        E 0 90 57 60
        E 0 90 61 60
        E 0 90 63 60
        E 30 80 1a 00
        E 0 80 2a 00
        E 0 80 3d 00
        E 0 80 49 00
        E 0 80 4b 00
        E 0 80 55 00
        E 0 80 57 00
        E 0 80 61 00
        E 0 80 63 00
        E 210 90 1b 60
        E 0 90 55 60
        E 0 90 61 60
        E 30 80 1b 00
        E 0 80 55 00
        E 0 80 61 00
        E 90 90 1a 60
        E 0 90 61 60
        E 30 80 1a 00
        E 0 80 61 00
        E 91 90 18 60
        E 0 90 2a 60
        E 0 90 3f 60
        E 0 90 48 60
        E 0 90 4b 60
        E 0 90 54 60
        E 0 90 57 60
        E 0 90 60 60
        E 0 90 63 60
        E 30 80 18 00
        E 0 80 2a 00
        E 0 80 3f 00
        E 0 80 48 00
        E 0 80 4b 00
        E 0 80 54 00
        E 0 80 57 00
        E 0 80 60 00
        E 0 80 63 00
        E 209 90 1a 60
        E 0 90 2a 60
        E 0 90 55 60
        E 0 90 57 60
        E 0 90 61 60
        E 0 90 63 60
        E 30 80 1a 00
        E 0 80 2a 00
        E 0 80 55 00
        E 0 80 57 00
        E 0 80 61 00
        E 0 80 63 00
        E 210 90 2a 60
        E 0 90 3f 60
        E 0 90 4b 60
        E 0 90 57 60
        E 0 90 63 60
        E 30 80 2a 00
        E 0 80 3f 00
        E 0 80 4b 00
        E 0 80 57 00
        E 0 80 63 00
        E 210 90 18 60
        E 0 90 2a 60
        E 0 90 54 60
        E 0 90 57 60
        E 0 90 60 60
        E 0 90 63 60
        E 30 80 18 00
        E 0 80 2a 00
        E 0 80 54 00
        E 0 80 57 00
        E 0 80 60 00
        E 0 80 63 00
        E 211 90 18 60
        E 0 90 2a 60
        E 0 90 3f 60
        E 0 90 48 60
        E 0 90 4b 60
        E 0 90 54 60
        E 0 90 57 60
        E 0 90 60 60
        E 0 90 63 60
        E 30 80 18 00
        E 0 80 2a 00
        E 0 80 3f 00
        E 0 80 48 00
        E 0 80 4b 00
        E 0 80 54 00
        E 0 80 57 00
        E 0 80 60 00
        E 0 80 63 00
        E 209 90 2a 60
        E 0 90 57 60
        E 0 90 63 60
        E 30 80 2a 00
        E 0 80 57 00
        E 0 80 63 00
        E 210 90 18 60
        E 0 90 2a 60
        E 0 90 3f 60
        E 0 90 48 60
        E 0 90 4b 60
        E 0 90 54 60
        E 0 90 57 60
        E 0 90 60 60
        E 0 90 63 60
        E 30 80 18 00
        E 0 80 2a 00
        E 0 80 3f 00
        E 0 80 48 00
        E 0 80 4b 00
        E 0 80 54 00
        E 0 80 57 00
        E 0 80 60 00
        E 0 80 63 00
        E 210 90 2a 60
        E 0 90 57 60
        E 0 90 63 60
        E 30 80 2a 00
        E 0 80 57 00
        E 0 80 63 00
        E 50 90 18 60
        E 0 90 60 60
        E 30 80 18 00
        E 0 80 60 00
        E 50 90 18 60
        E 0 90 60 60
        E 30 80 18 00
        E 0 80 60 00
        E 51 90 1a 60
        E 0 90 2a 60
        E 0 90 3d 60
        E 0 90 49 60
        E 0 90 4b 60
        E 0 90 55 60
        E 0 90 57 60
        E 0 90 61 60
        E 0 90 63 60
        E 30 80 1a 00
        E 0 80 2a 00
        E 0 80 3d 00
        E 0 80 49 00
        E 0 80 4b 00
        E 0 80 55 00
        E 0 80 57 00
        E 0 80 61 00
        E 0 80 63 00
        E 209 90 2a 60
        E 0 90 57 60
        E 0 90 63 60
        E 30 80 2a 00
        E 0 80 57 00
        E 0 80 63 00
        E 210 90 18 60
        E 0 90 2a 60
        E 0 90 3f 60
        E 0 90 48 60
        E 0 90 4b 60
        E 0 90 54 60
        E 0 90 57 60
        E 0 90 60 60
        E 0 90 63 60
        E 30 80 18 00
        E 0 80 2a 00
        E 0 80 3f 00
        E 0 80 48 00
        E 0 80 4b 00
        E 0 80 54 00
        E 0 80 57 00
        E 0 80 60 00
        E 0 80 63 00
        E 210 90 1b 60
        E 0 90 55 60
        E 0 90 61 60
        E 30 80 1b 00
        E 0 80 55 00
        E 0 80 61 00
        E 90 90 1a 60
        E 0 90 61 60
        E 30 80 1a 00
        E 0 80 61 00
        E 90 90 18 60
        E 0 90 2a 60
        E 0 90 3f 60
        E 0 90 48 60
        E 0 90 4b 60
        E 0 90 54 60
        E 0 90 57 60
        E 0 90 60 60
        E 0 90 63 60
        E 30 80 18 00
        E 0 80 2a 00
        E 0 80 3f 00
        E 0 80 48 00
        E 0 80 4b 00
        E 0 80 54 00
        E 0 80 57 00
        E 0 80 60 00
        E 0 80 63 00
        E 210 90 1a 60
        E 0 90 2a 60
        E 0 90 55 60
        E 0 90 57 60
        E 0 90 61 60
        E 0 90 63 60
        E 30 80 1a 00
        E 0 80 2a 00
        E 0 80 55 00
        E 0 80 57 00
        E 0 80 61 00
        E 0 80 63 00
        E 210 90 2a 60
        E 0 90 3f 60
        E 0 90 4b 60
        E 0 90 57 60
        E 0 90 63 60
        E 60 80 2a 00
        E 0 80 3f 00
        E 0 80 4b 00
        E 0 80 57 00
        E 0 80 63 00
        E 179 90 18 60
        E 0 90 2a 60
        E 0 90 54 60
        E 0 90 57 60
        E 0 90 60 60
        E 0 90 63 60
        E 30 80 18 00
        E 0 80 2a 00
        E 0 80 54 00
        E 0 80 57 00
        E 0 80 60 00
        E 0 80 63 00
        E 212 90 18 60
        E 0 90 2a 60
        E 0 90 3f 60
        E 0 90 48 60
        E 0 90 4b 60
        E 0 90 54 60
        E 0 90 57 60
        E 0 90 60 60
        E 0 90 63 60
        E 30 80 18 00
        E 0 80 2a 00
        E 0 80 3f 00
        E 0 80 48 00
        E 0 80 4b 00
        E 0 80 54 00
        E 0 80 57 00
        E 0 80 60 00
        E 0 80 63 00
        E 209 90 2a 60
        E 0 90 57 60
        E 0 90 63 60
        E 30 80 2a 00
        E 0 80 57 00
        E 0 80 63 00
        E 210 90 18 60
        E 0 90 2a 60
        E 0 90 3f 60
        E 0 90 48 60
        E 0 90 4b 60
        E 0 90 54 60
        E 0 90 57 60
        E 0 90 60 60
        E 0 90 63 60
        E 30 80 18 00
        E 0 80 2a 00
        E 0 80 3f 00
        E 0 80 48 00
        E 0 80 4b 00
        E 0 80 54 00
        E 0 80 57 00
        E 0 80 60 00
        E 0 80 63 00
        E 210 90 2a 60
        E 0 90 57 60
        E 0 90 63 60
        E 30 80 2a 00
        E 0 80 57 00
        E 0 80 63 00
        E 49 90 18 60
        E 0 90 60 60
        E 30 80 18 00
        E 0 80 60 00
        E 51 90 18 60
        E 0 90 60 60
        E 30 80 18 00
        E 0 80 60 00
        E 50 90 1a 60
        E 0 90 2a 60
        E 0 90 3d 60
        E 0 90 49 60
        E 0 90 4b 60
        E 0 90 55 60
        E 0 90 57 60
        E 0 90 61 60
        E 0 90 63 60
        E 30 80 1a 00
        E 0 80 2a 00
        E 0 80 3d 00
        E 0 80 49 00
        E 0 80 4b 00
        E 0 80 55 00
        E 0 80 57 00
        E 0 80 61 00
        E 0 80 63 00
        E 450 90 18 60
        E 0 90 24 60
        E 0 90 40 60
        E 0 90 48 60
        E 0 90 4c 60
        E 0 90 54 60
        E 0 90 58 60
        E 0 90 60 60
        E 0 90 64 60
        E 30 80 18 00
        E 0 80 24 00
        E 0 80 40 00
        E 0 80 48 00
        E 0 80 4c 00
        E 0 80 54 00
        E 0 80 58 00
        E 0 80 60 00
        E 0 80 64 00
        E 290 90 18 60
        E 0 90 22 60
        E 0 90 26 60
        E 0 90 54 60
        E 0 90 56 60
        E 0 90 58 60
        E 0 90 60 60
        E 0 90 62 60
        E 0 90 64 60
        E 80 80 18 00
        E 0 80 22 00
        E 0 80 26 00
        E 0 80 54 00
        E 0 80 56 00
        E 0 80 58 00
        E 0 80 60 00
        E 0 80 62 00
        E 0 80 64 00
        E 400 90 18 60
        E 0 90 60 60
        E 30 80 18 00
        E 0 80 60 00
        E 50 90 18 60
        E 0 90 60 60
        E 30 80 18 00
        E 0 80 60 00
        E 50 90 1a 60
        E 0 90 24 60
        E 0 90 3d 60
        E 0 90 49 60
        E 0 90 4c 60
        E 0 90 55 60
        E 0 90 58 60
        E 0 90 61 60
        E 0 90 64 60
        E 30 80 1a 00
        E 0 80 24 00
        E 0 80 3d 00
        E 0 80 49 00
        E 0 80 4c 00
        E 0 80 55 00
        E 0 80 58 00
        E 0 80 61 00
        E 0 80 64 00
        E 450 90 24 60
        E 0 90 40 60
        E 0 90 4c 60
        E 0 90 58 60
        E 0 90 64 60
        E 30 80 24 00
        E 0 80 40 00
        E 0 80 4c 00
        E 0 80 58 00
        E 0 80 64 00
        E 290 90 18 60
        E 0 90 60 60
        E 30 80 18 00
        E 0 80 60 00
        E 130 90 18 60
        E 0 90 24 60
        E 0 90 40 60
        E 0 90 48 60
        E 0 90 4c 60
        E 0 90 54 60
        E 0 90 58 60
        E 0 90 60 60
        E 0 90 64 60
        E 30 80 18 00
        E 0 80 24 00
        E 0 80 40 00
        E 0 80 48 00
        E 0 80 4c 00
        E 0 80 54 00
        E 0 80 58 00
        E 0 80 60 00
        E 0 80 64 00
        E 290 90 18 60
        E 0 90 22 60
        E 0 90 26 60
        E 0 90 54 60
        E 0 90 56 60
        E 0 90 58 60
        E 0 90 60 60
        E 0 90 62 60
        E 0 90 64 60
        E 30 80 18 00
        E 0 80 22 00
        E 0 80 26 00
        E 0 80 54 00
        E 0 80 56 00
        E 0 80 58 00
        E 0 80 60 00
        E 0 80 62 00
        E 0 80 64 00
        E 450 90 18 60
        E 0 90 60 60
        E 30 80 18 00
        E 0 80 60 00
        E 50 90 18 60
        E 0 90 60 60
        E 30 80 18 00
        E 0 80 60 00
        E 50 90 1a 60
        E 0 90 24 60
        E 0 90 3d 60
        E 0 90 49 60
        E 0 90 4c 60
        E 0 90 55 60
        E 0 90 58 60
        E 0 90 61 60
        E 0 90 64 60
        E 30 80 1a 00
        E 0 80 24 00
        E 0 80 3d 00
        E 0 80 49 00
        E 0 80 4c 00
        E 0 80 55 00
        E 0 80 58 00
        E 0 80 61 00
        E 0 80 64 00
        E 450 90 24 60
        E 0 90 40 60
        E 0 90 4c 60
        E 0 90 58 60
        E 0 90 64 60
        E 30 80 24 00
        E 0 80 40 00
        E 0 80 4c 00
        E 0 80 58 00
        E 0 80 64 00
        E 290 90 18 60
        E 0 90 60 60
        E 30 80 18 00
        E 0 80 60 00
        E 130 90 18 60
        E 0 90 24 60
        E 0 90 40 60
        E 0 90 48 60
        E 0 90 4c 60
        E 0 90 54 60
        E 0 90 58 60
        E 0 90 60 60
        E 0 90 64 60
        E 30 80 18 00
        E 0 80 24 00
        E 0 80 40 00
        E 0 80 48 00
        E 0 80 4c 00
        E 0 80 54 00
        E 0 80 58 00
        E 0 80 60 00
        E 0 80 64 00
        E 290 90 18 60
        E 0 90 22 60
        E 0 90 26 60
        E 0 90 54 60
        E 0 90 56 60
        E 0 90 58 60
        E 0 90 60 60
        E 0 90 62 60
        E 0 90 64 60
        E 80 80 18 00
        E 0 80 22 00
        E 0 80 26 00
        E 0 80 54 00
        E 0 80 56 00
        E 0 80 58 00
        E 0 80 60 00
        E 0 80 62 00
        E 0 80 64 00
        E 399 90 18 60
        E 0 90 60 60
        E 30 80 18 00
        E 0 80 60 00
        E 51 90 18 60
        E 0 90 60 60
        E 30 80 18 00
        E 0 80 60 00
        E 50 90 1a 60
        E 0 90 24 60
        E 0 90 3d 60
        E 0 90 49 60
        E 0 90 4c 60
        E 0 90 55 60
        E 0 90 58 60
        E 0 90 61 60
        E 0 90 64 60
        E 30 80 1a 00
        E 0 80 24 00
        E 0 80 3d 00
        E 0 80 49 00
        E 0 80 4c 00
        E 0 80 55 00
        E 0 80 58 00
        E 0 80 61 00
        E 0 80 64 00
        E 450 90 24 60
        E 0 90 40 60
        E 0 90 4c 60
        E 0 90 58 60
        E 0 90 64 60
        E 30 80 24 00
        E 0 80 40 00
        E 0 80 4c 00
        E 0 80 58 00
        E 0 80 64 00
        E 289 90 18 60
        E 0 90 60 60
        E 30 80 18 00
        E 0 80 60 00
        E 131 90 24 60
        E 0 90 40 60
        E 0 90 4c 60
        E 0 90 58 60
        E 0 90 64 60
        E 30 80 24 00
        E 0 80 40 00
        E 0 80 4c 00
        E 0 80 58 00
        E 0 80 64 00
        E 130 90 18 60
        E 0 90 60 60
        E 30 80 18 00
        E 0 80 60 00
        E 130 90 2e 60
        E 0 90 31 60
        E 0 90 62 60
        E 0 90 63 60
        E 0 90 6e 60
        E 0 90 6f 60
        E 30 80 2e 00
        E 0 80 31 00
        E 0 80 62 00
        E 0 80 63 00
        E 0 80 6e 00
        E 0 80 6f 00
        E 130 90 2e 60
        E 0 90 31 60
        E 0 90 3e 60
        E 0 90 3f 60
        E 0 90 4a 60
        E 0 90 4b 60
        E 0 90 56 60
        E 0 90 57 60
        E 0 90 62 60
        E 0 90 63 60
        E 0 90 6e 60
        E 0 90 6f 60
        E 30 80 2e 00
        E 0 80 31 00
        E 0 80 3e 00
        E 0 80 3f 00
        E 0 80 4a 00
        E 0 80 4b 00
        E 0 80 56 00
        E 0 80 57 00
        E 0 80 62 00
        E 0 80 63 00
        E 0 80 6e 00
        E 0 80 6f 00
        E 130 90 18 60
        E 0 90 60 60
        E 30 80 18 00
        E 0 80 60 00
        E 130 90 2e 60
        E 0 90 31 60
        E 0 90 62 60
        E 0 90 63 60
        E 0 90 6e 60
        E 0 90 6f 60
        E 30 80 2e 00
        E 0 80 31 00
        E 0 80 62 00
        E 0 80 63 00
        E 0 80 6e 00
        E 0 80 6f 00
        E 130 90 18 60
        E 0 90 3c 60
        E 0 90 48 60
        E 0 90 54 60
        E 0 90 60 60
        E 30 80 18 00
        E 0 80 3c 00
        E 0 80 48 00
        E 0 80 54 00
        E 0 80 60 00
        E 130 90 2e 60
        E 0 90 31 60
        E 0 90 62 60
        E 0 90 63 60
        E 0 90 6e 60
        E 0 90 6f 60
        E 30 80 2e 00
        E 0 80 31 00
        E 0 80 62 00
        E 0 80 63 00
        E 0 80 6e 00
        E 0 80 6f 00
        E 129 90 18 60
        E 0 90 60 60
        E 30 80 18 00
        E 0 80 60 00
        E 131 90 30 60
        E 0 90 33 60
        E 0 90 3f 60
        E 0 90 40 60
        E 0 90 4b 60
        E 0 90 4c 60
        E 0 90 57 60
        E 0 90 58 60
        E 0 90 63 60
        E 0 90 64 60
        E 0 90 6f 60
        E 0 90 70 60
        E 30 80 30 00
        E 0 80 33 00
        E 0 80 3f 00
        E 0 80 40 00
        E 0 80 4b 00
        E 0 80 4c 00
        E 0 80 57 00
        E 0 80 58 00
        E 0 80 63 00
        E 0 80 64 00
        E 0 80 6f 00
        E 0 80 70 00
        E 130 90 18 60
        E 0 90 60 60
        E 30 80 18 00
        E 0 80 60 00
        E 130 90 30 60
        E 0 90 33 60
        E 0 90 63 60
        E 0 90 64 60
        E 0 90 6f 60
        E 0 90 70 60
        E 30 80 30 00
        E 0 80 33 00
        E 0 80 63 00
        E 0 80 64 00
        E 0 80 6f 00
        E 0 80 70 00
        E 130 90 18 60
        E 0 90 24 60
        E 0 90 40 60
        E 0 90 48 60
        E 0 90 4c 60
        E 0 90 54 60
        E 0 90 58 60
        E 0 90 60 60
        E 0 90 64 60
        E 30 80 18 00
        E 0 80 24 00
        E 0 80 40 00
        E 0 80 48 00
        E 0 80 4c 00
        E 0 80 54 00
        E 0 80 58 00
        E 0 80 60 00
        E 0 80 64 00
        E 290 90 18 60
        E 0 90 22 60
        E 0 90 26 60
        E 0 90 54 60
        E 0 90 56 60
        E 0 90 58 60
        E 0 90 60 60
        E 0 90 62 60
        E 0 90 64 60
        E 80 80 18 00
        E 0 80 22 00
        E 0 80 26 00
        E 0 80 54 00
        E 0 80 56 00
        E 0 80 58 00
        E 0 80 60 00
        E 0 80 62 00
        E 0 80 64 00
        E 399 90 18 60
        E 0 90 60 60
        E 30 80 18 00
        E 0 80 60 00
        E 51 90 18 60
        E 0 90 60 60
        E 30 80 18 00
        E 0 80 60 00
        E 50 90 1a 60
        E 0 90 24 60
        E 0 90 3d 60
        E 0 90 49 60
        E 0 90 4c 60
        E 0 90 55 60
        E 0 90 58 60
        E 0 90 61 60
        E 0 90 64 60
        E 30 80 1a 00
        E 0 80 24 00
        E 0 80 3d 00
        E 0 80 49 00
        E 0 80 4c 00
        E 0 80 55 00
        E 0 80 58 00
        E 0 80 61 00
        E 0 80 64 00
        E 450 90 24 60
        E 0 90 40 60
        E 0 90 4c 60
        E 0 90 58 60
        E 0 90 64 60
        E 30 80 24 00
        E 0 80 40 00
        E 0 80 4c 00
        E 0 80 58 00
        E 0 80 64 00
        E 290 90 18 60
        E 0 90 60 60
        E 30 80 18 00
        E 0 80 60 00
        E 130 90 18 60
        E 0 90 24 60
        E 0 90 40 60
        E 0 90 48 60
        E 0 90 4c 60
        E 0 90 54 60
        E 0 90 58 60
        E 0 90 60 60
        E 0 90 64 60
        E 30 80 18 00
        E 0 80 24 00
        E 0 80 40 00
        E 0 80 48 00
        E 0 80 4c 00
        E 0 80 54 00
        E 0 80 58 00
        E 0 80 60 00
        E 0 80 64 00
        E 290 90 18 60
        E 0 90 22 60
        E 0 90 26 60
        E 0 90 54 60
        E 0 90 56 60
        E 0 90 58 60
        E 0 90 60 60
        E 0 90 62 60
        E 0 90 64 60
        E 80 80 18 00
        E 0 80 22 00
        E 0 80 26 00
        E 0 80 54 00
        E 0 80 56 00
        E 0 80 58 00
        E 0 80 60 00
        E 0 80 62 00
        E 0 80 64 00
        E 400 90 18 60
        E 0 90 60 60
        E 30 80 18 00
        E 0 80 60 00
        E 50 90 18 60
        E 0 90 60 60
        E 30 80 18 00
        E 0 80 60 00
        E 50 90 1a 60
        E 0 90 24 60
        E 0 90 3d 60
        E 0 90 49 60
        E 0 90 4c 60
        E 0 90 55 60
        E 0 90 58 60
        E 0 90 61 60
        E 0 90 64 60
        E 30 80 1a 00
        E 0 80 24 00
        E 0 80 3d 00
        E 0 80 49 00
        E 0 80 4c 00
        E 0 80 55 00
        E 0 80 58 00
        E 0 80 61 00
        E 0 80 64 00
        E 290 90 1a 60
        E 0 90 61 60
        E 30 80 1a 00
        E 0 80 61 00
        E 130 90 24 60
        E 0 90 40 60
        E 0 90 4c 60
        E 0 90 58 60
        E 0 90 64 60
        E 30 80 24 00
        E 0 80 40 00
        E 0 80 4c 00
        E 0 80 58 00
        E 0 80 64 00
        E 129 90 1a 60
        E 0 90 61 60
        E 30 80 1a 00
        E 0 80 61 00
        E 130 90 1b 60
        E 0 90 61 60
        E 30 80 1b 00
        E 0 80 61 00
        E 131 90 18 60
        E 0 90 22 60
        E 0 90 40 60
        E 0 90 48 60
        E 0 90 4c 60
        E 0 90 54 60
        E 0 90 58 60
        E 0 90 60 60
        E 0 90 64 60
        E 30 80 18 00
        E 0 80 48 00
        E 0 80 54 00
        E 0 80 60 00
        E 50 80 22 00
        E 0 80 40 00
        E 0 80 4c 00
        E 0 80 58 00
        E 0 80 64 00
        E 240 90 18 60
        E 0 90 22 60
        E 0 90 26 60
        E 0 90 54 60
        E 0 90 56 60
        E 0 90 58 60
        E 0 90 60 60
        E 0 90 62 60
        E 0 90 64 60
        E 80 80 18 00
        E 0 80 22 00
        E 0 80 26 00
        E 0 80 54 00
        E 0 80 56 00
        E 0 80 58 00
        E 0 80 60 00
        E 0 80 62 00
        E 0 80 64 00
        E 399 90 18 60
        E 0 90 60 60
        E 30 80 18 00
        E 0 80 60 00
        E 51 90 18 60
        E 0 90 60 60
        E 30 80 18 00
        E 0 80 60 00
        E 50 90 1a 60
        E 0 90 24 60
        E 0 90 3d 60
        E 0 90 49 60
        E 0 90 4c 60
        E 0 90 55 60
        E 0 90 58 60
        E 0 90 61 60
        E 0 90 64 60
        E 30 80 1a 00
        E 0 80 24 00
        E 0 80 3d 00
        E 0 80 49 00
        E 0 80 4c 00
        E 0 80 55 00
        E 0 80 58 00
        E 0 80 61 00
        E 0 80 64 00
        E 450 90 24 60
        E 0 90 40 60
        E 0 90 4c 60
        E 0 90 58 60
        E 0 90 64 60
        E 30 80 24 00
        E 0 80 40 00
        E 0 80 4c 00
        E 0 80 58 00
        E 0 80 64 00
        E 289 90 18 60
        E 0 90 60 60
        E 30 80 18 00
        E 0 80 60 00
        E 131 90 1a 60
        E 0 90 24 60
        E 0 90 3d 60
        E 0 90 49 60
        E 0 90 4c 60
        E 0 90 55 60
        E 0 90 58 60
        E 0 90 61 60
        E 0 90 64 60
        E 30 80 1a 00
        E 0 80 24 00
        E 0 80 3d 00
        E 0 80 49 00
        E 0 80 4c 00
        E 0 80 55 00
        E 0 80 58 00
        E 0 80 61 00
        E 0 80 64 00
        E 130 90 1a 60
        E 0 90 61 60
        E 30 80 1a 00
        E 0 80 61 00
        E 49 90 1b 60
        E 0 90 55 60
        E 0 90 61 60
        E 30 80 1b 00
        E 0 80 55 00
        E 0 80 61 00
        E 50 90 1a 60
        E 0 90 61 60
        E 30 80 1a 00
        E 0 80 61 00
        E 50 90 1b 60
        E 0 90 61 60
        E 30 80 1b 00
        E 0 80 61 00
        E 51 90 1a 60
        E 0 90 3d 60
        E 0 90 49 60
        E 0 90 55 60
        E 0 90 61 60
        E 30 80 1a 00
        E 0 80 3d 00
        E 0 80 49 00
        E 0 80 55 00
        E 0 80 61 00
        E 129 90 2f 60
        E 0 90 62 60
        E 0 90 6e 60
        E 30 80 2f 00
        E 0 80 62 00
        E 0 80 6e 00
        E 51 90 2e 60
        E 0 90 56 60
        E 0 90 62 60
        E 0 90 6e 60
        E 30 80 2e 00
        E 0 80 56 00
        E 0 80 62 00
        E 0 80 6e 00
        E 50 90 2f 60
        E 0 90 62 60
        E 0 90 6e 60
        E 30 80 2f 00
        E 0 80 62 00
        E 0 80 6e 00
        E 49 90 2e 60
        E 0 90 62 60
        E 0 90 6e 60
        E 30 80 2e 00
        E 0 80 62 00
        E 0 80 6e 00
        E 51 90 2f 60
        E 0 90 3e 60
        E 0 90 4a 60
        E 0 90 56 60
        E 0 90 62 60
        E 0 90 6e 60
        E 30 80 2f 00
        E 0 80 3e 00
        E 0 80 4a 00
        E 0 80 56 00
        E 0 80 62 00
        E 0 80 6e 00
        E 50 90 2e 60
        E 0 90 62 60
        E 0 90 6e 60
        E 30 80 2e 00
        E 0 80 62 00
        E 0 80 6e 00
        E 50 90 31 60
        E 0 90 63 60
        E 0 90 6f 60
        E 30 80 31 00
        E 0 80 63 00
        E 0 80 6f 00
        E 49 90 30 60
        E 0 90 57 60
        E 0 90 63 60
        E 0 90 6f 60
        E 30 80 30 00
        E 0 80 57 00
        E 0 80 63 00
        E 0 80 6f 00
        E 50 90 31 60
        E 0 90 63 60
        E 0 90 6f 60
        E 30 80 31 00
        E 0 80 63 00
        E 0 80 6f 00
        E 50 90 30 60
        E 0 90 63 60
        E 0 90 6f 60
        E 30 80 30 00
        E 0 80 63 00
        E 0 80 6f 00
        E 51 90 31 60
        E 0 90 3f 60
        E 0 90 4b 60
        E 0 90 57 60
        E 0 90 63 60
        E 0 90 6f 60
        E 30 80 31 00
        E 0 80 3f 00
        E 0 80 4b 00
        E 0 80 57 00
        E 0 80 63 00
        E 0 80 6f 00
        E 49 90 30 60
        E 0 90 63 60
        E 0 90 6f 60
        E 30 80 30 00
        E 0 80 63 00
        E 0 80 6f 00
        E 50 90 33 60
        E 0 90 64 60
        E 0 90 70 60
        E 30 80 33 00
        E 0 80 64 00
        E 0 80 70 00
        E 51 90 32 60
        E 0 90 58 60
        E 0 90 64 60
        E 0 90 70 60
        E 30 80 32 00
        E 0 80 58 00
        E 0 80 64 00
        E 0 80 70 00
        E 50 90 33 60
        E 0 90 64 60
        E 0 90 70 60
        E 30 80 33 00
        E 0 80 64 00
        E 0 80 70 00
        E 49 90 32 60
        E 0 90 64 60
        E 0 90 70 60
        E 30 80 32 00
        E 0 80 64 00
        E 0 80 70 00
        E 51 90 18 60
        E 0 90 24 60
        E 0 90 40 60
        E 0 90 48 60
        E 0 90 4c 60
        E 0 90 54 60
        E 0 90 58 60
        E 0 90 60 60
        E 0 90 64 60
        E 30 80 18 00
        E 0 80 24 00
        E 0 80 40 00
        E 0 80 48 00
        E 0 80 4c 00
        E 0 80 54 00
        E 0 80 58 00
        E 0 80 60 00
        E 0 80 64 00
        E 290 90 18 60
        E 0 90 22 60
        E 0 90 26 60
        E 0 90 54 60
        E 0 90 56 60
        E 0 90 58 60
        E 0 90 60 60
        E 0 90 62 60
        E 0 90 64 60
        E 80 80 18 00
        E 0 80 22 00
        E 0 80 26 00
        E 0 80 54 00
        E 0 80 56 00
        E 0 80 58 00
        E 0 80 60 00
        E 0 80 62 00
        E 0 80 64 00
        E 400 90 18 60
        E 0 90 60 60
        E 30 80 18 00
        E 0 80 60 00
        E 50 90 18 60
        E 0 90 60 60
        E 30 80 18 00
        E 0 80 60 00
        E 50 90 1a 60
        E 0 90 24 60
        E 0 90 3d 60
        E 0 90 49 60
        E 0 90 4c 60
        E 0 90 55 60
        E 0 90 58 60
        E 0 90 61 60
        E 0 90 64 60
        E 30 80 1a 00
        E 0 80 24 00
        E 0 80 3d 00
        E 0 80 49 00
        E 0 80 4c 00
        E 0 80 55 00
        E 0 80 58 00
        E 0 80 61 00
        E 0 80 64 00
        E 450 90 24 60
        E 0 90 40 60
        E 0 90 4c 60
        E 0 90 58 60
        E 0 90 64 60
        E 30 80 24 00
        E 0 80 40 00
        E 0 80 4c 00
        E 0 80 58 00
        E 0 80 64 00
        E 290 90 18 60
        E 0 90 60 60
        E 30 80 18 00
        E 0 80 60 00
        E 130 90 18 60
        E 0 90 24 60
        E 0 90 40 60
        E 0 90 48 60
        E 0 90 4c 60
        E 0 90 54 60
        E 0 90 58 60
        E 0 90 60 60
        E 0 90 64 60
        E 30 80 18 00
        E 0 80 24 00
        E 0 80 40 00
        E 0 80 48 00
        E 0 80 4c 00
        E 0 80 54 00
        E 0 80 58 00
        E 0 80 60 00
        E 0 80 64 00
        E 290 90 18 60
        E 0 90 22 60
        E 0 90 26 60
        E 0 90 54 60
        E 0 90 56 60
        E 0 90 58 60
        E 0 90 60 60
        E 0 90 62 60
        E 0 90 64 60
        E 60 80 18 00
        E 0 80 22 00
        E 0 80 26 00
        E 0 80 54 00
        E 0 80 56 00
        E 0 80 58 00
        E 0 80 60 00
        E 0 80 62 00
        E 0 80 64 00
        E 420 90 18 60
        E 0 90 60 60
        E 30 80 18 00
        E 0 80 60 00
        E 50 90 18 60
        E 0 90 60 60
        E 30 80 18 00
        E 0 80 60 00
        E 50 90 1a 60
        E 0 90 24 60
        E 0 90 3d 60
        E 0 90 49 60
        E 0 90 4c 60
        E 0 90 55 60
        E 0 90 58 60
        E 0 90 61 60
        E 0 90 64 60
        E 30 80 1a 00
        E 0 80 24 00
        E 0 80 3d 00
        E 0 80 49 00
        E 0 80 4c 00
        E 0 80 55 00
        E 0 80 58 00
        E 0 80 61 00
        E 0 80 64 00
        E 290 90 1a 60
        E 0 90 61 60
        E 30 80 1a 00
        E 0 80 61 00
        E 130 90 24 60
        E 0 90 40 60
        E 0 90 4c 60
        E 0 90 58 60
        E 0 90 64 60
        E 30 80 24 00
        E 0 80 40 00
        E 0 80 4c 00
        E 0 80 58 00
        E 0 80 64 00
        E 130 90 1a 60
        E 0 90 61 60
        E 30 80 1a 00
        E 0 80 61 00
        E 130 90 1b 60
        E 0 90 61 60
        E 30 80 1b 00
        E 0 80 61 00
        E 130 90 18 60
        E 0 90 22 60
        E 0 90 40 60
        E 0 90 48 60
        E 0 90 4c 60
        E 0 90 54 60
        E 0 90 58 60
        E 0 90 60 60
        E 0 90 64 60
        E 30 80 18 00
        E 0 80 22 00
        E 0 80 40 00
        E 0 80 48 00
        E 0 80 4c 00
        E 0 80 54 00
        E 0 80 58 00
        E 0 80 60 00
        E 0 80 64 00
        E 290 90 18 60
        E 0 90 22 60
        E 0 90 26 60
        E 0 90 54 60
        E 0 90 56 60
        E 0 90 58 60
        E 0 90 60 60
        E 0 90 62 60
        E 0 90 64 60
        E 60 80 18 00
        E 0 80 22 00
        E 0 80 26 00
        E 0 80 54 00
        E 0 80 56 00
        E 0 80 58 00
        E 0 80 60 00
        E 0 80 62 00
        E 0 80 64 00
        E 420 90 18 60
        E 0 90 60 60
        E 30 80 18 00
        E 0 80 60 00
        E 50 90 18 60
        E 0 90 60 60
        E 30 80 18 00
        E 0 80 60 00
        E 50 90 1a 60
        E 0 90 24 60
        E 0 90 3d 60
        E 0 90 49 60
        E 0 90 4c 60
        E 0 90 55 60
        E 0 90 58 60
        E 0 90 61 60
        E 0 90 64 60
        E 30 80 1a 00
        E 0 80 24 00
        E 0 80 3d 00
        E 0 80 49 00
        E 0 80 4c 00
        E 0 80 55 00
        E 0 80 58 00
        E 0 80 61 00
        E 0 80 64 00
        E 450 90 24 60
        E 0 90 40 60
        E 0 90 4c 60
        E 0 90 58 60
        E 0 90 64 60
        E 30 80 24 00
        E 0 80 40 00
        E 0 80 4c 00
        E 0 80 58 00
        E 0 80 64 00
        E 290 90 18 60
        E 0 90 60 60
        E 30 80 18 00
        E 0 80 60 00
        E 130 90 1a 60
        E 0 90 24 60
        E 0 90 3d 60
        E 0 90 49 60
        E 0 90 4c 60
        E 0 90 55 60
        E 0 90 58 60
        E 0 90 61 60
        E 0 90 64 60
        E 30 80 1a 00
        E 0 80 24 00
        E 0 80 3d 00
        E 0 80 49 00
        E 0 80 4c 00
        E 0 80 55 00
        E 0 80 58 00
        E 0 80 61 00
        E 0 80 64 00
        E 130 90 2e 60
        E 0 90 62 60
        E 0 90 6e 60
        E 30 80 2e 00
        E 0 80 62 00
        E 0 80 6e 00
        E 50 90 2f 60
        E 0 90 56 60
        E 0 90 62 60
        E 0 90 6e 60
        E 30 80 2f 00
        E 0 80 56 00
        E 0 80 62 00
        E 0 80 6e 00
        E 50 90 2e 60
        E 0 90 62 60
        E 0 90 6e 60
        E 30 80 2e 00
        E 0 80 62 00
        E 0 80 6e 00
        E 130 90 18 60
        E 0 90 3c 60
        E 0 90 48 60
        E 0 90 54 60
        E 0 90 60 60
        E 30 80 18 00
        E 0 80 3c 00
        E 0 80 48 00
        E 0 80 54 00
        E 0 80 60 00
        E 129 90 1a 60
        E 0 90 2a 60
        E 0 90 61 60
        E 0 90 63 60
        E 30 80 1a 00
        E 0 80 2a 00
        E 0 80 61 00
        E 0 80 63 00
        E 131 90 18 60
        E 0 90 60 60
        E 30 80 18 00
        E 0 80 60 00
        E 130 90 1a 60
        E 0 90 24 60
        E 0 90 3d 60
        E 0 90 49 60
        E 0 90 4c 60
        E 0 90 55 60
        E 0 90 58 60
        E 0 90 61 60
        E 0 90 64 60
        E 30 80 1a 00
        E 0 80 24 00
        E 0 80 3d 00
        E 0 80 49 00
        E 0 80 4c 00
        E 0 80 55 00
        E 0 80 58 00
        E 0 80 61 00
        E 0 80 64 00
        E 130 90 18 60
        E 0 90 60 60
        E 30 80 18 00
        E 0 80 60 00
        E 130 90 2e 60
        E 0 90 31 60
        E 0 90 62 60
        E 0 90 63 60
        E 0 90 6e 60
        E 0 90 6f 60
        E 30 80 2e 00
        E 0 80 31 00
        E 0 80 62 00
        E 0 80 63 00
        E 0 80 6e 00
        E 0 80 6f 00
        E 130 90 18 60
        E 0 90 3c 60
        E 0 90 48 60
        E 0 90 54 60
        E 0 90 60 60
        E 30 80 18 00
        E 0 80 3c 00
        E 0 80 48 00
        E 0 80 54 00
        E 0 80 60 00
        E 130 90 2e 60
        E 0 90 31 60
        E 0 90 62 60
        E 0 90 63 60
        E 0 90 6e 60
        E 0 90 6f 60
        E 30 80 2e 00
        E 0 80 31 00
        E 0 80 62 00
        E 0 80 63 00
        E 0 80 6e 00
        E 0 80 6f 00
        E 130 90 18 60
        E 0 90 60 60
        E 30 80 18 00
        E 0 80 60 00
        E 130 90 18 60
        E 0 90 24 60
        E 0 90 40 60
        E 0 90 48 60
        E 0 90 4c 60
        E 0 90 54 60
        E 0 90 58 60
        E 0 90 60 60
        E 0 90 64 60
        E 30 80 18 00
        E 0 80 24 00
        E 0 80 40 00
        E 0 80 48 00
        E 0 80 4c 00
        E 0 80 54 00
        E 0 80 58 00
        E 0 80 60 00
        E 0 80 64 00
        E 290 90 18 60
        E 0 90 22 60
        E 0 90 26 60
        E 0 90 54 60
        E 0 90 56 60
        E 0 90 58 60
        E 0 90 60 60
        E 0 90 62 60
        E 0 90 64 60
        E 60 80 18 00
        E 0 80 22 00
        E 0 80 26 00
        E 0 80 54 00
        E 0 80 56 00
        E 0 80 58 00
        E 0 80 60 00
        E 0 80 62 00
        E 0 80 64 00
        E 420 90 18 60
        E 0 90 60 60
        E 30 80 18 00
        E 0 80 60 00
        E 50 90 18 60
        E 0 90 60 60
        E 30 80 18 00
        E 0 80 60 00
        E 50 90 1a 60
        E 0 90 24 60
        E 0 90 3d 60
        E 0 90 49 60
        E 0 90 4c 60
        E 0 90 55 60
        E 0 90 58 60
        E 0 90 61 60
        E 0 90 64 60
        E 30 80 1a 00
        E 0 80 24 00
        E 0 80 3d 00
        E 0 80 49 00
        E 0 80 4c 00
        E 0 80 55 00
        E 0 80 58 00
        E 0 80 61 00
        E 0 80 64 00
        E 450 90 24 60
        E 0 90 40 60
        E 0 90 4c 60
        E 0 90 58 60
        E 0 90 64 60
        E 30 80 24 00
        E 0 80 40 00
        E 0 80 4c 00
        E 0 80 58 00
        E 0 80 64 00
        E 290 90 18 60
        E 0 90 60 60
        E 30 80 18 00
        E 0 80 60 00
        E 130 90 18 60
        E 0 90 24 60
        E 0 90 40 60
        E 0 90 48 60
        E 0 90 4c 60
        E 0 90 54 60
        E 0 90 58 60
        E 0 90 60 60
        E 0 90 64 60
        E 30 80 18 00
        E 0 80 24 00
        E 0 80 40 00
        E 0 80 48 00
        E 0 80 4c 00
        E 0 80 54 00
        E 0 80 58 00
        E 0 80 60 00
        E 0 80 64 00
        E 290 90 18 60
        E 0 90 22 60
        E 0 90 26 60
        E 0 90 54 60
        E 0 90 56 60
        E 0 90 58 60
        E 0 90 60 60
        E 0 90 62 60
        E 0 90 64 60
        E 60 80 18 00
        E 0 80 22 00
        E 0 80 26 00
        E 0 80 54 00
        E 0 80 56 00
        E 0 80 58 00
        E 0 80 60 00
        E 0 80 62 00
        E 0 80 64 00
        E 420 90 18 60
        E 0 90 60 60
        E 30 80 18 00
        E 0 80 60 00
        E 50 90 18 60
        E 0 90 60 60
        E 30 80 18 00
        E 0 80 60 00
        E 50 90 1a 60
        E 0 90 24 60
        E 0 90 3d 60
        E 0 90 49 60
        E 0 90 4c 60
        E 0 90 55 60
        E 0 90 58 60
        E 0 90 61 60
        E 0 90 64 60
        E 30 80 1a 00
        E 0 80 24 00
        E 0 80 3d 00
        E 0 80 49 00
        E 0 80 4c 00
        E 0 80 55 00
        E 0 80 58 00
        E 0 80 61 00
        E 0 80 64 00
        E 450 90 24 60
        E 0 90 40 60
        E 0 90 4c 60
        E 0 90 58 60
        E 0 90 64 60
        E 30 80 24 00
        E 0 80 40 00
        E 0 80 4c 00
        E 0 80 58 00
        E 0 80 64 00
        E 290 90 18 60
        E 0 90 60 60
        E 30 80 18 00
        E 0 80 60 00
        E 130 90 18 60
        E 0 90 24 60
        E 0 90 40 60
        E 0 90 48 60
        E 0 90 4c 60
        E 0 90 54 60
        E 0 90 58 60
        E 0 90 60 60
        E 0 90 64 60
        E 30 80 18 00
        E 0 80 24 00
        E 0 80 40 00
        E 0 80 48 00
        E 0 80 4c 00
        E 0 80 54 00
        E 0 80 58 00
        E 0 80 60 00
        E 0 80 64 00
        E 270 90 18 60
        E 0 90 22 60
        E 0 90 26 60
        E 0 90 54 60
        E 0 90 56 60
        E 0 90 58 60
        E 0 90 60 60
        E 0 90 62 60
        E 0 90 64 60
        E 60 80 18 00
        E 0 80 22 00
        E 0 80 26 00
        E 0 80 54 00
        E 0 80 56 00
        E 0 80 58 00
        E 0 80 60 00
        E 0 80 62 00
        E 0 80 64 00
        E 440 90 18 60
        E 0 90 60 60
        E 30 80 18 00
        E 0 80 60 00
        E 50 90 18 60
        E 0 90 60 60
        E 30 80 18 00
        E 0 80 60 00
        E 50 90 1a 60
        E 0 90 24 60
        E 0 90 3d 60
        E 0 90 49 60
        E 0 90 4c 60
        E 0 90 55 60
        E 0 90 58 60
        E 0 90 61 60
        E 0 90 64 60
        E 30 80 1a 00
        E 0 80 24 00
        E 0 80 3d 00
        E 0 80 49 00
        E 0 80 4c 00
        E 0 80 55 00
        E 0 80 58 00
        E 0 80 61 00
        E 0 80 64 00
        E 450 90 24 60
        E 0 90 40 60
        E 0 90 4c 60
        E 0 90 58 60
        E 0 90 64 60
        E 30 80 24 00
        E 0 80 40 00
        E 0 80 4c 00
        E 0 80 58 00
        E 0 80 64 00
        E 290 90 18 60
        E 0 90 60 60
        E 30 80 18 00
        E 0 80 60 00
        E 130 90 1a 60
        E 0 90 24 60
        E 0 90 3d 60
        E 0 90 49 60
        E 0 90 4c 60
        E 0 90 55 60
        E 0 90 58 60
        E 0 90 61 60
        E 0 90 64 60
        E 30 80 1a 00
        E 0 80 24 00
        E 0 80 3d 00
        E 0 80 49 00
        E 0 80 4c 00
        E 0 80 55 00
        E 0 80 58 00
        E 0 80 61 00
        E 0 80 64 00
        E 130 90 1a 60
        E 0 90 61 60
        E 30 80 1a 00
        E 0 80 61 00
        E 50 90 1b 60
        E 0 90 55 60
        E 0 90 61 60
        E 30 80 1b 00
        E 0 80 55 00
        E 0 80 61 00
        E 50 90 1a 60
        E 0 90 61 60
        E 30 80 1a 00
        E 0 80 61 00
        E 130 90 1b 60
        E 0 90 3d 60
        E 0 90 49 60
        E 0 90 55 60
        E 0 90 61 60
        E 30 80 1b 00
        E 0 80 3d 00
        E 0 80 49 00
        E 0 80 55 00
        E 0 80 61 00
        E 130 90 1a 60
        E 0 90 61 60
        E 30 80 1a 00
        E 0 80 61 00
        E 50 90 1b 60
        E 0 90 55 60
        E 0 90 61 60
        E 30 80 1b 00
        E 0 80 55 00
        E 0 80 61 00
        E 50 90 1a 60
        E 0 90 61 60
        E 30 80 1a 00
        E 0 80 61 00
        E 130 90 1b 60
        E 0 90 3d 60
        E 0 90 49 60
        E 0 90 55 60
        E 0 90 61 60
        E 30 80 1b 00
        E 0 80 3d 00
        E 0 80 49 00
        E 0 80 55 00
        E 0 80 61 00
        E 129 90 1a 60
        E 0 90 61 60
        E 30 80 1a 00
        E 0 80 61 00
        E 130 90 1b 60
        E 0 90 61 60
        E 30 80 1b 00
        E 0 80 61 00
        E 131 90 1a 60
        E 0 90 3d 60
        E 0 90 49 60
        E 0 90 55 60
        E 0 90 61 60
        E 30 80 1a 00
        E 0 80 3d 00
        E 0 80 49 00
        E 0 80 55 00
        E 0 80 61 00
        E 130 90 1b 60
        E 0 90 61 60
        E 30 80 1b 00
        E 0 80 61 00
        E 129 90 1a 60
        E 0 90 61 60
        E 30 80 1a 00
        E 0 80 61 00
        E 131 90 18 60
        E 0 90 22 60
        E 0 90 26 60
        E 0 90 3e 60
        E 0 90 40 60
        E 0 90 48 60
        E 0 90 4a 60
        E 0 90 4c 60
        E 0 90 54 60
        E 0 90 56 60
        E 0 90 58 60
        E 0 90 60 60
        E 0 90 62 60
        E 0 90 64 60
        E 60 80 18 00
        E 0 80 22 00
        E 0 80 26 00
        E 0 80 3e 00
        E 0 80 40 00
        E 0 80 48 00
        E 0 80 4a 00
        E 0 80 4c 00
        E 0 80 54 00
        E 0 80 56 00
        E 0 80 58 00
        E 0 80 60 00
        E 0 80 62 00
        E 0 80 64 00
        E 260 90 18 60
        E 0 90 60 60
        E 30 80 18 00
        E 0 80 60 00
        E 130 90 18 60
        E 0 90 24 60
        E 0 90 40 60
        E 0 90 48 60
        E 0 90 4c 60
        E 0 90 54 60
        E 0 90 58 60
        E 0 90 60 60
        E 0 90 64 60
        E 30 80 18 00
        E 0 80 24 00
        E 0 80 40 00
        E 0 80 48 00
        E 0 80 4c 00
        E 0 80 54 00
        E 0 80 58 00
        E 0 80 60 00
        E 0 80 64 00
        E 290 90 18 60
        E 0 90 60 60
        E 30 80 18 00
        E 0 80 60 00
        E 50 90 18 60
        E 0 90 60 60
        E 30 80 18 00
        E 0 80 60 00
        E 50 90 1a 60
        E 0 90 24 60
        E 0 90 3d 60
        E 0 90 49 60
        E 0 90 4c 60
        E 0 90 55 60
        E 0 90 58 60
        E 0 90 61 60
        E 0 90 64 60
        E 30 80 1a 00
        E 0 80 24 00
        E 0 80 3d 00
        E 0 80 49 00
        E 0 80 4c 00
        E 0 80 55 00
        E 0 80 58 00
        E 0 80 61 00
        E 0 80 64 00
        E 290 90 1a 60
        E 0 90 61 60
        E 30 80 1a 00
        E 0 80 61 00
        E 130 90 24 60
        E 0 90 40 60
        E 0 90 4c 60
        E 0 90 58 60
        E 0 90 64 60
        E 30 80 24 00
        E 0 80 40 00
        E 0 80 4c 00
        E 0 80 58 00
        E 0 80 64 00
        E 130 90 1a 60
        E 0 90 61 60
        E 30 80 1a 00
        E 0 80 61 00
        E 130 90 1b 60
        E 0 90 61 60
        E 30 80 1b 00
        E 0 80 61 00
        E 130 90 18 60
        E 0 90 22 60
        E 0 90 40 60
        E 0 90 48 60
        E 0 90 4c 60
        E 0 90 54 60
        E 0 90 58 60
        E 0 90 60 60
        E 0 90 64 60
        E 30 80 18 00
        E 0 80 22 00
        E 0 80 40 00
        E 0 80 48 00
        E 0 80 4c 00
        E 0 80 54 00
        E 0 80 58 00
        E 0 80 60 00
        E 0 80 64 00
        E 450 90 18 60
        E 0 90 24 60
        E 0 90 40 60
        E 0 90 48 60
        E 0 90 4c 60
        E 0 90 54 60
        E 0 90 58 60
        E 0 90 60 60
        E 0 90 64 60
        E 30 80 18 00
        E 0 80 24 00
        E 0 80 40 00
        E 0 80 48 00
        E 0 80 4c 00
        E 0 80 54 00
        E 0 80 58 00
        E 0 80 60 00
        E 0 80 64 00
        E 290 90 18 60
        E 0 90 60 60
        E 30 80 18 00
        E 0 80 60 00
        E 50 90 18 60
        E 0 90 60 60
        E 30 80 18 00
        E 0 80 60 00
        E 50 90 1a 60
        E 0 90 24 60
        E 0 90 3d 60
        E 0 90 49 60
        E 0 90 4c 60
        E 0 90 55 60
        E 0 90 58 60
        E 0 90 61 60
        E 0 90 64 60
        E 30 80 1a 00
        E 0 80 24 00
        E 0 80 3d 00
        E 0 80 49 00
        E 0 80 4c 00
        E 0 80 55 00
        E 0 80 58 00
        E 0 80 61 00
        E 0 80 64 00
        E 130 90 18 60
        E 0 90 60 60
        E 30 80 18 00
        E 0 80 60 00
        E 290 90 18 60
        E 0 90 24 60
        E 0 90 40 60
        E 0 90 48 60
        E 0 90 4c 60
        E 0 90 54 60
        E 0 90 58 60
        E 0 90 60 60
        E 0 90 64 60
        E 30 80 18 00
        E 0 80 24 00
        E 0 80 40 00
        E 0 80 48 00
        E 0 80 4c 00
        E 0 80 54 00
        E 0 80 58 00
        E 0 80 60 00
        E 0 80 64 00
        E 290 90 18 60
        E 0 90 60 60
        E 30 80 18 00
        E 0 80 60 00
        E 130 90 18 60
        E 0 90 22 60
        E 0 90 26 60
        E 0 90 3e 60
        E 0 90 40 60
        E 0 90 48 60
        E 0 90 4a 60
        E 0 90 4c 60
        E 0 90 54 60
        E 0 90 56 60
        E 0 90 58 60
        E 0 90 60 60
        E 0 90 62 60
        E 0 90 64 60
        E 30 80 18 00
        E 0 80 22 00
        E 0 80 26 00
        E 0 80 3e 00
        E 0 80 40 00
        E 0 80 48 00
        E 0 80 4a 00
        E 0 80 4c 00
        E 0 80 54 00
        E 0 80 56 00
        E 0 80 58 00
        E 0 80 60 00
        E 0 80 62 00
        E 0 80 64 00
        E 450 90 18 60
        E 0 90 24 60
        E 0 90 40 60
        E 0 90 48 60
        E 0 90 4c 60
        E 0 90 54 60
        E 0 90 58 60
        E 0 90 60 60
        E 0 90 64 60
        E 30 80 18 00
        E 0 80 24 00
        E 0 80 40 00
        E 0 80 48 00
        E 0 80 4c 00
        E 0 80 54 00
        E 0 80 58 00
        E 0 80 60 00
        E 0 80 64 00
        E 289 90 18 60
        E 0 90 60 60
        E 30 80 18 00
        E 0 80 60 00
        E 50 90 18 60
        E 0 90 60 60
        E 30 80 18 00
        E 0 80 60 00
        E 51 90 1a 60
        E 0 90 24 60
        E 0 90 3d 60
        E 0 90 49 60
        E 0 90 4c 60
        E 0 90 55 60
        E 0 90 58 60
        E 0 90 61 60
        E 0 90 64 60
        E 30 80 1a 00
        E 0 80 24 00
        E 0 80 3d 00
        E 0 80 49 00
        E 0 80 4c 00
        E 0 80 55 00
        E 0 80 58 00
        E 0 80 61 00
        E 0 80 64 00
        E 290 90 1a 60
        E 0 90 61 60
        E 30 80 1a 00
        E 0 80 61 00
        E 130 90 24 60
        E 0 90 40 60
        E 0 90 4c 60
        E 0 90 58 60
        E 0 90 64 60
        E 30 80 24 00
        E 0 80 40 00
        E 0 80 4c 00
        E 0 80 58 00
        E 0 80 64 00
        E 130 90 1a 60
        E 0 90 61 60
        E 30 80 1a 00
        E 0 80 61 00
        E 130 90 1b 60
        E 0 90 61 60
        E 30 80 1b 00
        E 0 80 61 00
        E 130 90 18 60
        E 0 90 22 60
        E 0 90 40 60
        E 0 90 48 60
        E 0 90 4c 60
        E 0 90 54 60
        E 0 90 58 60
        E 0 90 60 60
        E 0 90 64 60
        E 30 80 18 00
        E 0 80 22 00
        E 0 80 40 00
        E 0 80 48 00
        E 0 80 4c 00
        E 0 80 54 00
        E 0 80 58 00
        E 0 80 60 00
        E 0 80 64 00
        E 450 90 18 60
        E 0 90 24 60
        E 0 90 40 60
        E 0 90 48 60
        E 0 90 4c 60
        E 0 90 54 60
        E 0 90 58 60
        E 0 90 60 60
        E 0 90 64 60
        E 30 80 18 00
        E 0 80 24 00
        E 0 80 40 00
        E 0 80 48 00
        E 0 80 4c 00
        E 0 80 54 00
        E 0 80 58 00
        E 0 80 60 00
        E 0 80 64 00
        E 289 90 18 60
        E 0 90 60 60
        E 30 80 18 00
        E 0 80 60 00
        E 50 90 18 60
        E 0 90 60 60
        E 30 80 18 00
        E 0 80 60 00
        E 51 90 1a 60
        E 0 90 24 60
        E 0 90 3d 60
        E 0 90 49 60
        E 0 90 4c 60
        E 0 90 55 60
        E 0 90 58 60
        E 0 90 61 60
        E 0 90 64 60
        E 30 80 1a 00
        E 0 80 24 00
        E 0 80 3d 00
        E 0 80 49 00
        E 0 80 4c 00
        E 0 80 55 00
        E 0 80 58 00
        E 0 80 61 00
        E 0 80 64 00
        E 129 90 18 60
        E 0 90 60 60
        E 30 80 18 00
        E 0 80 60 00
        E 291 90 18 60
        E 0 90 24 60
        E 0 90 40 60
        E 0 90 48 60
        E 0 90 4c 60
        E 0 90 54 60
        E 0 90 58 60
        E 0 90 60 60
        E 0 90 64 60
        E 30 80 18 00
        E 0 80 24 00
        E 0 80 40 00
        E 0 80 48 00
        E 0 80 4c 00
        E 0 80 54 00
        E 0 80 58 00
        E 0 80 60 00
        E 0 80 64 00
        E 290 90 18 60
        E 0 90 60 60
        E 30 80 18 00
        E 0 80 60 00
        E 130 90 18 60
        E 0 90 22 60
        E 0 90 26 60
        E 0 90 3e 60
        E 0 90 40 60
        E 0 90 48 60
        E 0 90 4a 60
        E 0 90 4c 60
        E 0 90 54 60
        E 0 90 56 60
        E 0 90 58 60
        E 0 90 60 60
        E 0 90 62 60
        E 0 90 64 60
        E 30 80 18 00
        E 0 80 22 00
        E 0 80 26 00
        E 0 80 3e 00
        E 0 80 40 00
        E 0 80 48 00
        E 0 80 4a 00
        E 0 80 4c 00
        E 0 80 54 00
        E 0 80 56 00
        E 0 80 58 00
        E 0 80 60 00
        E 0 80 62 00
        E 0 80 64 00
        E 450 90 18 60
        E 0 90 24 60
        E 0 90 40 60
        E 0 90 48 60
        E 0 90 4c 60
        E 0 90 54 60
        E 0 90 58 60
        E 0 90 60 60
        E 0 90 64 60
        E 30 80 18 00
        E 0 80 24 00
        E 0 80 40 00
        E 0 80 48 00
        E 0 80 4c 00
        E 0 80 54 00
        E 0 80 58 00
        E 0 80 60 00
        E 0 80 64 00
        E 289 90 18 60
        E 0 90 60 60
        E 30 80 18 00
        E 0 80 60 00
        E 50 90 18 60
        E 0 90 60 60
        E 30 80 18 00
        E 0 80 60 00
        E 51 90 1a 60
        E 0 90 24 60
        E 0 90 3d 60
        E 0 90 49 60
        E 0 90 4c 60
        E 0 90 55 60
        E 0 90 58 60
        E 0 90 61 60
        E 0 90 64 60
        E 30 80 1a 00
        E 0 80 24 00
        E 0 80 3d 00
        E 0 80 49 00
        E 0 80 4c 00
        E 0 80 55 00
        E 0 80 58 00
        E 0 80 61 00
        E 0 80 64 00
        E 290 90 1a 60
        E 0 90 61 60
        E 30 80 1a 00
        E 0 80 61 00
        E 130 90 24 60
        E 0 90 40 60
        E 0 90 4c 60
        E 0 90 58 60
        E 0 90 64 60
        E 30 80 24 00
        E 0 80 40 00
        E 0 80 4c 00
        E 0 80 58 00
        E 0 80 64 00
        E 130 90 1a 60
        E 0 90 61 60
        E 30 80 1a 00
        E 0 80 61 00
        E 130 90 1b 60
        E 0 90 61 60
        E 30 80 1b 00
        E 0 80 61 00
        E 130 90 18 60
        E 0 90 22 60
        E 0 90 40 60
        E 0 90 48 60
        E 0 90 4c 60
        E 0 90 54 60
        E 0 90 58 60
        E 0 90 60 60
        E 0 90 64 60
        E 30 80 18 00
        E 0 80 22 00
        E 0 80 40 00
        E 0 80 48 00
        E 0 80 4c 00
        E 0 80 54 00
        E 0 80 58 00
        E 0 80 60 00
        E 0 80 64 00
        E 450 90 18 60
        E 0 90 24 60
        E 0 90 40 60
        E 0 90 48 60
        E 0 90 4c 60
        E 0 90 54 60
        E 0 90 58 60
        E 0 90 60 60
        E 0 90 64 60
        E 30 80 18 00
        E 0 80 24 00
        E 0 80 40 00
        E 0 80 48 00
        E 0 80 4c 00
        E 0 80 54 00
        E 0 80 58 00
        E 0 80 60 00
        E 0 80 64 00
        E 289 90 18 60
        E 0 90 60 60
        E 30 80 18 00
        E 0 80 60 00
        E 50 90 18 60
        E 0 90 60 60
        E 30 80 18 00
        E 0 80 60 00
        E 51 90 1a 60
        E 0 90 24 60
        E 0 90 3d 60
        E 0 90 49 60
        E 0 90 4c 60
        E 0 90 55 60
        E 0 90 58 60
        E 0 90 61 60
        E 0 90 64 60
        E 30 80 1a 00
        E 0 80 24 00
        E 0 80 3d 00
        E 0 80 49 00
        E 0 80 4c 00
        E 0 80 55 00
        E 0 80 58 00
        E 0 80 61 00
        E 0 80 64 00
        E 129 90 18 60
        E 0 90 60 60
        E 30 80 18 00
        E 0 80 60 00
        E 291 90 18 60
        E 0 90 24 60
        E 0 90 40 60
        E 0 90 48 60
        E 0 90 4c 60
        E 0 90 54 60
        E 0 90 58 60
        E 0 90 60 60
        E 0 90 64 60
        E 30 80 18 00
        E 0 80 24 00
        E 0 80 40 00
        E 0 80 48 00
        E 0 80 4c 00
        E 0 80 54 00
        E 0 80 58 00
        E 0 80 60 00
        E 0 80 64 00
        E 290 90 18 60
        E 0 90 60 60
        E 30 80 18 00
        E 0 80 60 00
        E 130 90 1a 60
        E 0 90 24 60
        E 0 90 3d 60
        E 0 90 49 60
        E 0 90 4c 60
        E 0 90 55 60
        E 0 90 58 60
        E 0 90 61 60
        E 0 90 64 60
        E 30 80 1a 00
        E 0 80 24 00
        E 0 80 3d 00
        E 0 80 49 00
        E 0 80 4c 00
        E 0 80 55 00
        E 0 80 58 00
        E 0 80 61 00
        E 0 80 64 00
        E 130 90 18 60
        E 0 90 60 60
        E 30 80 18 00
        E 0 80 60 00
        E 130 90 18 60
        E 0 90 60 60
        E 30 80 18 00
        E 0 80 60 00
        E 130 90 1a 60
        E 0 90 24 60
        E 0 90 3d 60
        E 0 90 49 60
        E 0 90 4c 60
        E 0 90 55 60
        E 0 90 58 60
        E 0 90 61 60
        E 0 90 64 60
        E 30 80 1a 00
        E 0 80 24 00
        E 0 80 3d 00
        E 0 80 49 00
        E 0 80 4c 00
        E 0 80 55 00
        E 0 80 58 00
        E 0 80 61 00
        E 0 80 64 00
        E 130 90 18 60
        E 0 90 60 60
        E 30 80 18 00
        E 0 80 60 00
        E 130 90 1a 60
        E 0 90 24 60
        E 0 90 61 60
        E 0 90 64 60
        E 30 80 1a 00
        E 0 80 24 00
        E 0 80 61 00
        E 0 80 64 00
        E 130 90 18 60
        E 0 90 3c 60
        E 0 90 48 60
        E 0 90 54 60
        E 0 90 60 60
        E 30 80 18 00
        E 0 80 3c 00
        E 0 80 48 00
        E 0 80 54 00
        E 0 80 60 00
        E 130 90 1a 60
        E 0 90 24 60
        E 0 90 61 60
        E 0 90 64 60
        E 30 80 1a 00
        E 0 80 24 00
        E 0 80 61 00
        E 0 80 64 00
        E 130 90 18 60
        E 0 90 60 60
        E 30 80 18 00
        E 0 80 60 00
        E 130 90 1a 60
        E 0 90 24 60
        E 0 90 3d 60
        E 0 90 49 60
        E 0 90 4c 60
        E 0 90 55 60
        E 0 90 58 60
        E 0 90 61 60
        E 0 90 64 60
        E 30 80 1a 00
        E 0 80 24 00
        E 0 80 3d 00
        E 0 80 49 00
        E 0 80 4c 00
        E 0 80 55 00
        E 0 80 58 00
        E 0 80 61 00
        E 0 80 64 00
        E 130 90 18 60
        E 0 90 60 60
        E 30 80 18 00
        E 0 80 60 00
        E 130 90 18 60
        E 0 90 60 60
        E 30 80 18 00
        E 0 80 60 00
        E 130 90 1a 60
        E 0 90 24 60
        E 0 90 3d 60
        E 0 90 49 60
        E 0 90 4c 60
        E 0 90 55 60
        E 0 90 58 60
        E 0 90 61 60
        E 0 90 64 60
        E 30 80 1a 00
        E 0 80 24 00
        E 0 80 3d 00
        E 0 80 49 00
        E 0 80 4c 00
        E 0 80 55 00
        E 0 80 58 00
        E 0 80 61 00
        E 0 80 64 00
        E 130 90 18 60
        E 0 90 60 60
        E 30 80 18 00
        E 0 80 60 00
        E 130 90 18 60
        E 0 90 60 60
        E 30 80 18 00
        E 0 80 60 00
        E 130 90 1a 60
        E 0 90 24 60
        E 0 90 3d 60
        E 0 90 49 60
        E 0 90 4c 60
        E 0 90 55 60
        E 0 90 58 60
        E 0 90 61 60
        E 0 90 64 60
        E 30 80 1a 00
        E 0 80 24 00
        E 0 80 3d 00
        E 0 80 49 00
        E 0 80 4c 00
        E 0 80 55 00
        E 0 80 58 00
        E 0 80 61 00
        E 0 80 64 00
        E 130 90 18 60
        E 0 90 60 60
        E 30 80 18 00
        E 0 80 60 00
        E 130 90 2e 60
        E 0 90 31 60
        E 0 90 62 60
        E 0 90 63 60
        E 0 90 6e 60
        E 0 90 6f 60
        E 30 80 2e 00
        E 0 80 31 00
        E 0 80 62 00
        E 0 80 63 00
        E 0 80 6e 00
        E 0 80 6f 00
        E 130 90 18 60
        E 0 90 3c 60
        E 0 90 48 60
        E 0 90 54 60
        E 0 90 60 60
        E 30 80 18 00
        E 0 80 3c 00
        E 0 80 48 00
        E 0 80 54 00
        E 0 80 60 00
        E 130 90 2e 60
        E 0 90 31 60
        E 0 90 62 60
        E 0 90 63 60
        E 0 90 6e 60
        E 0 90 6f 60
        E 30 80 2e 00
        E 0 80 31 00
        E 0 80 62 00
        E 0 80 63 00
        E 0 80 6e 00
        E 0 80 6f 00
        E 130 90 18 60
        E 0 90 60 60
        E 30 80 18 00
        E 0 80 60 00
        E 130 90 2e 60
        E 0 90 31 60
        E 0 90 3e 60
        E 0 90 3f 60
        E 0 90 4a 60
        E 0 90 4b 60
        E 0 90 56 60
        E 0 90 57 60
        E 0 90 62 60
        E 0 90 63 60
        E 0 90 6e 60
        E 0 90 6f 60
        E 30 80 2e 00
        E 0 80 31 00
        E 0 80 3e 00
        E 0 80 3f 00
        E 0 80 4a 00
        E 0 80 4b 00
        E 0 80 56 00
        E 0 80 57 00
        E 0 80 62 00
        E 0 80 63 00
        E 0 80 6e 00
        E 0 80 6f 00
        E 130 90 18 60
        E 0 90 60 60
        E 30 80 18 00
        E 0 80 60 00
        E 130 90 2e 60
        E 0 90 31 60
        E 0 90 62 60
        E 0 90 63 60
        E 0 90 6e 60
        E 0 90 6f 60
        E 30 80 2e 00
        E 0 80 31 00
        E 0 80 62 00
        E 0 80 63 00
        E 0 80 6e 00
        E 0 80 6f 00
        E 130 90 18 60
        E 0 90 24 60
        E 0 90 40 60
        E 0 90 48 60
        E 0 90 4c 60
        E 0 90 54 60
        E 0 90 58 60
        E 0 90 60 60
        E 0 90 64 60
        E 30 80 18 00
        E 0 80 24 00
        E 0 80 40 00
        E 0 80 48 00
        E 0 80 4c 00
        E 0 80 54 00
        E 0 80 58 00
        E 0 80 60 00
        E 0 80 64 00
        E 289 90 18 60
        E 0 90 60 60
        E 30 80 18 00
        E 0 80 60 00
        E 131 90 24 60
        E 0 90 40 60
        E 0 90 4c 60
        E 0 90 58 60
        E 0 90 64 60
        E 30 80 24 00
        E 0 80 40 00
        E 0 80 4c 00
        E 0 80 58 00
        E 0 80 64 00
        E 290 90 18 60
        E 0 90 60 60
        E 30 80 18 00
        E 0 80 60 00
        E 50 90 18 60
        E 0 90 60 60
        E 30 80 18 00
        E 0 80 60 00
        E 50 90 1a 60
        E 0 90 24 60
        E 0 90 3d 60
        E 0 90 49 60
        E 0 90 4c 60
        E 0 90 55 60
        E 0 90 58 60
        E 0 90 61 60
        E 0 90 64 60
        E 30 80 1a 00
        E 0 80 24 00
        E 0 80 3d 00
        E 0 80 49 00
        E 0 80 4c 00
        E 0 80 55 00
        E 0 80 58 00
        E 0 80 61 00
        E 0 80 64 00
        E 289 90 1a 60
        E 0 90 61 60
        E 30 80 1a 00
        E 0 80 61 00
        E 131 90 24 60
        E 0 90 40 60
        E 0 90 4c 60
        E 0 90 58 60
        E 0 90 64 60
        E 30 80 24 00
        E 0 80 40 00
        E 0 80 4c 00
        E 0 80 58 00
        E 0 80 64 00
        E 129 90 1a 60
        E 0 90 61 60
        E 30 80 1a 00
        E 0 80 61 00
        E 131 90 1b 60
        E 0 90 61 60
        E 30 80 1b 00
        E 0 80 61 00
        E 130 90 18 60
        E 0 90 22 60
        E 0 90 26 60
        E 0 90 3e 60
        E 0 90 40 60
        E 0 90 48 60
        E 0 90 4a 60
        E 0 90 4c 60
        E 0 90 54 60
        E 0 90 56 60
        E 0 90 58 60
        E 0 90 60 60
        E 0 90 62 60
        E 0 90 64 60
        E 80 80 18 00
        E 0 80 22 00
        E 0 80 26 00
        E 0 80 3e 00
        E 0 80 40 00
        E 0 80 48 00
        E 0 80 4a 00
        E 0 80 4c 00
        E 0 80 54 00
        E 0 80 56 00
        E 0 80 58 00
        E 0 80 60 00
        E 0 80 62 00
        E 0 80 64 00
        E 400 90 18 60
        E 0 90 22 60
        E 0 90 40 60
        E 0 90 48 60
        E 0 90 4c 60
        E 0 90 54 60
        E 0 90 58 60
        E 0 90 60 60
        E 0 90 64 60
        E 30 80 18 00
        E 0 80 22 00
        E 0 80 40 00
        E 0 80 48 00
        E 0 80 4c 00
        E 0 80 54 00
        E 0 80 58 00
        E 0 80 60 00
        E 0 80 64 00
        E 290 90 18 60
        E 0 90 60 60
        E 30 80 18 00
        E 0 80 60 00
        E 50 90 18 60
        E 0 90 60 60
        E 30 80 18 00
        E 0 80 60 00
        E 50 90 1a 60
        E 0 90 24 60
        E 0 90 3d 60
        E 0 90 49 60
        E 0 90 4c 60
        E 0 90 55 60
        E 0 90 58 60
        E 0 90 61 60
        E 0 90 64 60
        E 30 80 1a 00
        E 0 80 24 00
        E 0 80 3d 00
        E 0 80 49 00
        E 0 80 4c 00
        E 0 80 55 00
        E 0 80 58 00
        E 0 80 61 00
        E 0 80 64 00
        E 130 90 18 60
        E 0 90 60 60
        E 30 80 18 00
        E 0 80 60 00
        E 290 90 18 60
        E 0 90 22 60
        E 0 90 26 60
        E 0 90 3e 60
        E 0 90 40 60
        E 0 90 48 60
        E 0 90 4a 60
        E 0 90 4c 60
        E 0 90 54 60
        E 0 90 56 60
        E 0 90 58 60
        E 0 90 60 60
        E 0 90 62 60
        E 0 90 64 60
        E 30 80 18 00
        E 0 80 22 00
        E 0 80 26 00
        E 0 80 3e 00
        E 0 80 40 00
        E 0 80 48 00
        E 0 80 4a 00
        E 0 80 4c 00
        E 0 80 54 00
        E 0 80 56 00
        E 0 80 58 00
        E 0 80 60 00
        E 0 80 62 00
        E 0 80 64 00
        E 290 90 18 60
        E 0 90 60 60
        E 30 80 18 00
        E 0 80 60 00
        E 130 90 18 60
        E 0 90 22 60
        E 0 90 26 60
        E 0 90 3e 60
        E 0 90 40 60
        E 0 90 48 60
        E 0 90 4a 60
        E 0 90 4c 60
        E 0 90 54 60
        E 0 90 56 60
        E 0 90 58 60
        E 0 90 60 60
        E 0 90 62 60
        E 0 90 64 60
        E 30 80 18 00
        E 0 80 22 00
        E 0 80 26 00
        E 0 80 3e 00
        E 0 80 40 00
        E 0 80 48 00
        E 0 80 4a 00
        E 0 80 4c 00
        E 0 80 54 00
        E 0 80 56 00
        E 0 80 58 00
        E 0 80 60 00
        E 0 80 62 00
        E 0 80 64 00
        E 289 90 18 60
        E 0 90 22 60
        E 0 90 26 60
        E 0 90 54 60
        E 0 90 56 60
        E 0 90 58 60
        E 0 90 60 60
        E 0 90 62 60
        E 0 90 64 60
        E 30 80 18 00
        E 0 80 22 00
        E 0 80 26 00
        E 0 80 54 00
        E 0 80 56 00
        E 0 80 58 00
        E 0 80 60 00
        E 0 80 62 00
        E 0 80 64 00
        E 451 90 18 60
        E 0 90 60 60
        E 30 80 18 00
        E 0 80 60 00
        E 50 90 18 60
        E 0 90 60 60
        E 30 80 18 00
        E 0 80 60 00
        E 50 90 1a 60
        E 0 90 24 60
        E 0 90 3d 60
        E 0 90 49 60
        E 0 90 4c 60
        E 0 90 55 60
        E 0 90 58 60
        E 0 90 61 60
        E 0 90 64 60
        E 30 80 1a 00
        E 0 80 24 00
        E 0 80 3d 00
        E 0 80 49 00
        E 0 80 4c 00
        E 0 80 55 00
        E 0 80 58 00
        E 0 80 61 00
        E 0 80 64 00
        E 450 90 24 60
        E 0 90 40 60
        E 0 90 4c 60
        E 0 90 58 60
        E 0 90 64 60
        E 30 80 24 00
        E 0 80 40 00
        E 0 80 4c 00
        E 0 80 58 00
        E 0 80 64 00
        E 289 90 18 60
        E 0 90 60 60
        E 30 80 18 00
        E 0 80 60 00
        E 131 90 18 60
        E 0 90 24 60
        E 0 90 40 60
        E 0 90 48 60
        E 0 90 4c 60
        E 0 90 54 60
        E 0 90 58 60
        E 0 90 60 60
        E 0 90 64 60
        E 30 80 18 00
        E 0 80 24 00
        E 0 80 40 00
        E 0 80 48 00
        E 0 80 4c 00
        E 0 80 54 00
        E 0 80 58 00
        E 0 80 60 00
        E 0 80 64 00
        E 290 90 18 60
        E 0 90 60 60
        E 30 80 18 00
        E 0 80 60 00
        E 130 90 1a 60
        E 0 90 24 60
        E 0 90 3d 60
        E 0 90 49 60
        E 0 90 4c 60
        E 0 90 55 60
        E 0 90 58 60
        E 0 90 61 60
        E 0 90 64 60
        E 30 80 1a 00
        E 0 80 24 00
        E 0 80 3d 00
        E 0 80 49 00
        E 0 80 4c 00
        E 0 80 55 00
        E 0 80 58 00
        E 0 80 61 00
        E 0 80 64 00
        E 130 90 2e 60
        E 0 90 62 60
        E 0 90 6e 60
        E 30 80 2e 00
        E 0 80 62 00
        E 0 80 6e 00
        E 50 90 2f 60
        E 0 90 56 60
        E 0 90 62 60
        E 0 90 6e 60
        E 30 80 2f 00
        E 0 80 56 00
        E 0 80 62 00
        E 0 80 6e 00
        E 50 90 2e 60
        E 0 90 62 60
        E 0 90 6e 60
        E 30 80 2e 00
        E 0 80 62 00
        E 0 80 6e 00
        E 130 90 2f 60
        E 0 90 3e 60
        E 0 90 4a 60
        E 0 90 56 60
        E 0 90 62 60
        E 0 90 6e 60
        E 30 80 2f 00
        E 0 80 3e 00
        E 0 80 4a 00
        E 0 80 56 00
        E 0 80 62 00
        E 0 80 6e 00
        E 50 90 2e 60
        E 0 90 62 60
        E 0 90 6e 60
        E 30 80 2e 00
        E 0 80 62 00
        E 0 80 6e 00
        E 50 90 2f 60
        E 0 90 62 60
        E 0 90 6e 60
        E 30 80 2f 00
        E 0 80 62 00
        E 0 80 6e 00
        E 50 90 2e 60
        E 0 90 56 60
        E 0 90 62 60
        E 0 90 6e 60
        E 30 80 2e 00
        E 0 80 56 00
        E 0 80 62 00
        E 0 80 6e 00
        E 49 90 31 60
        E 0 90 63 60
        E 0 90 6f 60
        E 30 80 31 00
        E 0 80 63 00
        E 0 80 6f 00
        E 50 90 30 60
        E 0 90 63 60
        E 0 90 6f 60
        E 30 80 30 00
        E 0 80 63 00
        E 0 80 6f 00
        E 51 90 31 60
        E 0 90 3f 60
        E 0 90 4b 60
        E 0 90 57 60
        E 0 90 63 60
        E 0 90 6f 60
        E 30 80 31 00
        E 0 80 3f 00
        E 0 80 4b 00
        E 0 80 57 00
        E 0 80 63 00
        E 0 80 6f 00
        E 49 90 30 60
        E 0 90 63 60
        E 0 90 6f 60
        E 30 80 30 00
        E 0 80 63 00
        E 0 80 6f 00
        E 50 90 33 60
        E 0 90 64 60
        E 0 90 70 60
        E 30 80 33 00
        E 0 80 64 00
        E 0 80 70 00
        E 51 90 32 60
        E 0 90 58 60
        E 0 90 64 60
        E 0 90 70 60
        E 30 80 32 00
        E 0 80 58 00
        E 0 80 64 00
        E 0 80 70 00
        E 50 90 33 60
        E 0 90 64 60
        E 0 90 70 60
        E 30 80 33 00
        E 0 80 64 00
        E 0 80 70 00
        E 49 90 32 60
        E 0 90 64 60
        E 0 90 70 60
        E 30 80 32 00
        E 0 80 64 00
        E 0 80 70 00
        E 51 90 18 60
        E 0 90 24 60
        E 0 90 40 60
        E 0 90 48 60
        E 0 90 4c 60
        E 0 90 54 60
        E 0 90 58 60
        E 0 90 60 60
        E 0 90 64 60
        E 30 80 18 00
        E 0 80 24 00
        E 0 80 40 00
        E 0 80 48 00
        E 0 80 4c 00
        E 0 80 54 00
        E 0 80 58 00
        E 0 80 60 00
        E 0 80 64 00
        E 450 90 18 60
        E 0 90 22 60
        E 0 90 26 60
        E 0 90 3e 60
        E 0 90 40 60
        E 0 90 48 60
        E 0 90 4a 60
        E 0 90 4c 60
        E 0 90 54 60
        E 0 90 56 60
        E 0 90 58 60
        E 0 90 60 60
        E 0 90 62 60
        E 0 90 64 60
        E 30 80 18 00
        E 0 80 22 00
        E 0 80 40 00
        E 0 80 48 00
        E 0 80 4c 00
        E 0 80 54 00
        E 0 80 58 00
        E 0 80 60 00
        E 0 80 64 00
        E 50 80 26 00
        E 0 80 3e 00
        E 0 80 4a 00
        E 0 80 56 00
        E 0 80 62 00
        E 240 90 18 60
        E 0 90 60 60
        E 30 80 18 00
        E 0 80 60 00
        E 50 90 18 60
        E 0 90 60 60
        E 30 80 18 00
        E 0 80 60 00
        E 50 90 1a 60
        E 0 90 24 60
        E 0 90 3d 60
        E 0 90 49 60
        E 0 90 4c 60
        E 0 90 55 60
        E 0 90 58 60
        E 0 90 61 60
        E 0 90 64 60
        E 30 80 1a 00
        E 0 80 24 00
        E 0 80 3d 00
        E 0 80 49 00
        E 0 80 4c 00
        E 0 80 55 00
        E 0 80 58 00
        E 0 80 61 00
        E 0 80 64 00
        E 290 90 1a 60
        E 0 90 61 60
        E 30 80 1a 00
        E 0 80 61 00
        E 130 90 24 60
        E 0 90 40 60
        E 0 90 4c 60
        E 0 90 58 60
        E 0 90 64 60
        E 30 80 24 00
        E 0 80 40 00
        E 0 80 4c 00
        E 0 80 58 00
        E 0 80 64 00
        E 130 90 1a 60
        E 0 90 61 60
        E 30 80 1a 00
        E 0 80 61 00
        E 130 90 1b 60
        E 0 90 61 60
        E 30 80 1b 00
        E 0 80 61 00
        E 130 90 18 60
        E 0 90 22 60
        E 0 90 26 60
        E 0 90 3e 60
        E 0 90 40 60
        E 0 90 48 60
        E 0 90 4a 60
        E 0 90 4c 60
        E 0 90 54 60
        E 0 90 56 60
        E 0 90 58 60
        E 0 90 60 60
        E 0 90 62 60
        E 0 90 64 60
        E 30 80 18 00
        E 0 80 48 00
        E 0 80 54 00
        E 0 80 60 00
        E 50 80 22 00
        E 0 80 26 00
        E 0 80 3e 00
        E 0 80 40 00
        E 0 80 4a 00
        E 0 80 4c 00
        E 0 80 56 00
        E 0 80 58 00
        E 0 80 62 00
        E 0 80 64 00
        E 400 90 18 60
        E 0 90 22 60
        E 0 90 40 60
        E 0 90 48 60
        E 0 90 4c 60
        E 0 90 54 60
        E 0 90 58 60
        E 0 90 60 60
        E 0 90 64 60
        E 30 80 18 00
        E 0 80 22 00
        E 0 80 40 00
        E 0 80 48 00
        E 0 80 4c 00
        E 0 80 54 00
        E 0 80 58 00
        E 0 80 60 00
        E 0 80 64 00
        E 290 90 18 60
        E 0 90 60 60
        E 30 80 18 00
        E 0 80 60 00
        E 50 90 18 60
        E 0 90 60 60
        E 30 80 18 00
        E 0 80 60 00
        E 50 90 1a 60
        E 0 90 24 60
        E 0 90 3d 60
        E 0 90 49 60
        E 0 90 4c 60
        E 0 90 55 60
        E 0 90 58 60
        E 0 90 61 60
        E 0 90 64 60
        E 30 80 1a 00
        E 0 80 24 00
        E 0 80 3d 00
        E 0 80 49 00
        E 0 80 4c 00
        E 0 80 55 00
        E 0 80 58 00
        E 0 80 61 00
        E 0 80 64 00
        E 130 90 18 60
        E 0 90 60 60
        E 30 80 18 00
        E 0 80 60 00
        E 290 90 18 60
        E 0 90 22 60
        E 0 90 26 60
        E 0 90 3e 60
        E 0 90 40 60
        E 0 90 48 60
        E 0 90 4a 60
        E 0 90 4c 60
        E 0 90 54 60
        E 0 90 56 60
        E 0 90 58 60
        E 0 90 60 60
        E 0 90 62 60
        E 0 90 64 60
        E 30 80 18 00
        E 0 80 22 00
        E 0 80 26 00
        E 0 80 3e 00
        E 0 80 40 00
        E 0 80 48 00
        E 0 80 4a 00
        E 0 80 4c 00
        E 0 80 54 00
        E 0 80 56 00
        E 0 80 58 00
        E 0 80 60 00
        E 0 80 62 00
        E 0 80 64 00
        E 450 90 18 60
        E 0 90 22 60
        E 0 90 26 60
        E 0 90 3e 60
        E 0 90 40 60
        E 0 90 48 60
        E 0 90 4a 60
        E 0 90 4c 60
        E 0 90 54 60
        E 0 90 56 60
        E 0 90 58 60
        E 0 90 60 60
        E 0 90 62 60
        E 0 90 64 60
        E 30 80 18 00
        E 0 80 22 00
        E 0 80 26 00
        E 0 80 3e 00
        E 0 80 40 00
        E 0 80 48 00
        E 0 80 4a 00
        E 0 80 4c 00
        E 0 80 54 00
        E 0 80 56 00
        E 0 80 58 00
        E 0 80 60 00
        E 0 80 62 00
        E 0 80 64 00
        E 450 90 18 60
        E 0 90 24 60
        E 0 90 40 60
        E 0 90 48 60
        E 0 90 4c 60
        E 0 90 54 60
        E 0 90 58 60
        E 0 90 60 60
        E 0 90 64 60
        E 30 80 18 00
        E 0 80 24 00
        E 0 80 40 00
        E 0 80 48 00
        E 0 80 4c 00
        E 0 80 54 00
        E 0 80 58 00
        E 0 80 60 00
        E 0 80 64 00
        E 289 90 18 60
        E 0 90 60 60
        E 30 80 18 00
        E 0 80 60 00
        E 50 90 18 60
        E 0 90 60 60
        E 30 80 18 00
        E 0 80 60 00
        E 51 90 1a 60
        E 0 90 24 60
        E 0 90 3d 60
        E 0 90 49 60
        E 0 90 4c 60
        E 0 90 55 60
        E 0 90 58 60
        E 0 90 61 60
        E 0 90 64 60
        E 30 80 1a 00
        E 0 80 24 00
        E 0 80 3d 00
        E 0 80 49 00
        E 0 80 4c 00
        E 0 80 55 00
        E 0 80 58 00
        E 0 80 61 00
        E 0 80 64 00
        E 290 90 1a 60
        E 0 90 61 60
        E 30 80 1a 00
        E 0 80 61 00
        E 130 90 24 60
        E 0 90 40 60
        E 0 90 4c 60
        E 0 90 58 60
        E 0 90 64 60
        E 30 80 24 00
        E 0 80 40 00
        E 0 80 4c 00
        E 0 80 58 00
        E 0 80 64 00
        E 130 90 1a 60
        E 0 90 61 60
        E 30 80 1a 00
        E 0 80 61 00
        E 130 90 1b 60
        E 0 90 61 60
        E 30 80 1b 00
        E 0 80 61 00
        E 130 90 18 60
        E 0 90 22 60
        E 0 90 40 60
        E 0 90 48 60
        E 0 90 4c 60
        E 0 90 54 60
        E 0 90 58 60
        E 0 90 60 60
        E 0 90 64 60
        E 30 80 18 00
        E 0 80 22 00
        E 0 80 40 00
        E 0 80 48 00
        E 0 80 4c 00
        E 0 80 54 00
        E 0 80 58 00
        E 0 80 60 00
        E 0 80 64 00
        E 130 90 1b 60
        E 0 90 61 60
        E 30 80 1b 00
        E 0 80 61 00
        E 50 90 1a 60
        E 0 90 55 60
        E 0 90 61 60
        E 30 80 1a 00
        E 0 80 55 00
        E 0 80 61 00
        E 50 90 1b 60
        E 0 90 61 60
        E 30 80 1b 00
        E 0 80 61 00
        E 130 90 18 60
        E 0 90 3c 60
        E 0 90 48 60
        E 0 90 54 60
        E 0 90 60 60
        E 30 80 18 00
        E 0 80 3c 00
        E 0 80 48 00
        E 0 80 54 00
        E 0 80 60 00
        E 130 90 1a 60
        E 0 90 24 60
        E 0 90 61 60
        E 0 90 64 60
        E 30 80 1a 00
        E 0 80 24 00
        E 0 80 61 00
        E 0 80 64 00
        E 129 90 18 60
        E 0 90 60 60
        E 30 80 18 00
        E 0 80 60 00
        E 131 90 1a 60
        E 0 90 24 60
        E 0 90 3d 60
        E 0 90 49 60
        E 0 90 4c 60
        E 0 90 55 60
        E 0 90 58 60
        E 0 90 61 60
        E 0 90 64 60
        E 30 80 1a 00
        E 0 80 24 00
        E 0 80 3d 00
        E 0 80 49 00
        E 0 80 4c 00
        E 0 80 55 00
        E 0 80 58 00
        E 0 80 61 00
        E 0 80 64 00
        E 129 90 18 60
        E 0 90 60 60
        E 30 80 18 00
        E 0 80 60 00
        E 131 90 2e 60
        E 0 90 31 60
        E 0 90 62 60
        E 0 90 63 60
        E 0 90 6e 60
        E 0 90 6f 60
        E 30 80 2e 00
        E 0 80 31 00
        E 0 80 62 00
        E 0 80 63 00
        E 0 80 6e 00
        E 0 80 6f 00
        E 130 90 18 60
        E 0 90 3c 60
        E 0 90 48 60
        E 0 90 54 60
        E 0 90 60 60
        E 30 80 18 00
        E 0 80 3c 00
        E 0 80 48 00
        E 0 80 54 00
        E 0 80 60 00
        E 129 90 2e 60
        E 0 90 31 60
        E 0 90 62 60
        E 0 90 63 60
        E 0 90 6e 60
        E 0 90 6f 60
        E 30 80 2e 00
        E 0 80 31 00
        E 0 80 62 00
        E 0 80 63 00
        E 0 80 6e 00
        E 0 80 6f 00
        E 131 90 18 60
        E 0 90 60 60
        E 30 80 18 00
        E 0 80 60 00
        E 130 90 18 60
        E 0 90 24 60
        E 0 90 40 60
        E 0 90 48 60
        E 0 90 4c 60
        E 0 90 54 60
        E 0 90 58 60
        E 0 90 60 60
        E 0 90 64 60
        E 30 80 18 00
        E 0 80 24 00
        E 0 80 40 00
        E 0 80 48 00
        E 0 80 4c 00
        E 0 80 54 00
        E 0 80 58 00
        E 0 80 60 00
        E 0 80 64 00
        E 290 90 18 60
        E 0 90 22 60
        E 0 90 26 60
        E 0 90 54 60
        E 0 90 56 60
        E 0 90 58 60
        E 0 90 60 60
        E 0 90 62 60
        E 0 90 64 60
        E 30 80 18 00
        E 0 80 22 00
        E 0 80 26 00
        E 0 80 54 00
        E 0 80 56 00
        E 0 80 58 00
        E 0 80 60 00
        E 0 80 62 00
        E 0 80 64 00
        E 450 90 18 60
        E 0 90 60 60
        E 30 80 18 00
        E 0 80 60 00
        E 50 90 18 60
        E 0 90 60 60
        E 30 80 18 00
        E 0 80 60 00
        E 50 90 1a 60
        E 0 90 24 60
        E 0 90 3d 60
        E 0 90 49 60
        E 0 90 4c 60
        E 0 90 55 60
        E 0 90 58 60
        E 0 90 61 60
        E 0 90 64 60
        E 30 80 1a 00
        E 0 80 24 00
        E 0 80 3d 00
        E 0 80 49 00
        E 0 80 4c 00
        E 0 80 55 00
        E 0 80 58 00
        E 0 80 61 00
        E 0 80 64 00
        E 450 90 24 60
        E 0 90 40 60
        E 0 90 4c 60
        E 0 90 58 60
        E 0 90 64 60
        E 30 80 24 00
        E 0 80 40 00
        E 0 80 4c 00
        E 0 80 58 00
        E 0 80 64 00
        E 450 90 18 60
        E 0 90 24 60
        E 0 90 40 60
        E 0 90 48 60
        E 0 90 4c 60
        E 0 90 54 60
        E 0 90 58 60
        E 0 90 60 60
        E 0 90 64 60
        E 30 80 18 00
        E 0 80 24 00
        E 0 80 40 00
        E 0 80 48 00
        E 0 80 4c 00
        E 0 80 54 00
        E 0 80 58 00
        E 0 80 60 00
        E 0 80 64 00
        E 290 90 18 60
        E 0 90 22 60
        E 0 90 26 60
        E 0 90 54 60
        E 0 90 56 60
        E 0 90 58 60
        E 0 90 60 60
        E 0 90 62 60
        E 0 90 64 60
        E 30 80 18 00
        E 0 80 22 00
        E 0 80 26 00
        E 0 80 54 00
        E 0 80 56 00
        E 0 80 58 00
        E 0 80 60 00
        E 0 80 62 00
        E 0 80 64 00
        E 450 90 18 60
        E 0 90 60 60
        E 30 80 18 00
        E 0 80 60 00
        E 50 90 18 60
        E 0 90 60 60
        E 30 80 18 00
        E 0 80 60 00
        E 50 90 1a 60
        E 0 90 24 60
        E 0 90 3d 60
        E 0 90 49 60
        E 0 90 4c 60
        E 0 90 55 60
        E 0 90 58 60
        E 0 90 61 60
        E 0 90 64 60
        E 30 80 1a 00
        E 0 80 24 00
        E 0 80 3d 00
        E 0 80 49 00
        E 0 80 4c 00
        E 0 80 55 00
        E 0 80 58 00
        E 0 80 61 00
        E 0 80 64 00
        E 450 90 1f 60
        E 0 90 3e 60
        E 0 90 4a 60
        E 0 90 56 60
        E 0 90 62 60
        E 30 80 1f 00
        E 0 80 3e 00
        E 0 80 4a 00
        E 0 80 56 00
        E 0 80 62 00
        E 450 90 18 60
        E 0 90 24 60
        E 0 90 40 60
        E 0 90 48 60
        E 0 90 4c 60
        E 0 90 54 60
        E 0 90 58 60
        E 0 90 60 60
        E 0 90 64 60
        E 0 90 74 60
        E 30 80 18 00
        E 0 80 24 00
        E 0 80 40 00
        E 0 80 48 00
        E 0 80 4c 00
        E 0 80 54 00
        E 0 80 58 00
        E 0 80 60 00
        E 0 80 64 00
        E 290 90 18 60
        E 0 90 22 60
        E 0 90 26 60
        E 0 90 54 60
        E 0 90 56 60
        E 0 90 58 60
        E 0 90 60 60
        E 0 90 62 60
        E 0 90 64 60
        E 30 80 18 00
        E 0 80 22 00
        E 0 80 26 00
        E 0 80 54 00
        E 0 80 56 00
        E 0 80 58 00
        E 0 80 60 00
        E 0 80 62 00
        E 0 80 64 00
        E 450 90 18 60
        E 0 90 60 60
        E 30 80 18 00
        E 0 80 60 00
        E 50 90 18 60
        E 0 90 60 60
        E 30 80 18 00
        E 0 80 60 00
        E 50 90 1a 60
        E 0 90 24 60
        E 0 90 3d 60
        E 0 90 49 60
        E 0 90 4c 60
        E 0 90 55 60
        E 0 90 58 60
        E 0 90 61 60
        E 0 90 64 60
        E 30 80 1a 00
        E 0 80 24 00
        E 0 80 3d 00
        E 0 80 49 00
        E 0 80 4c 00
        E 0 80 55 00
        E 0 80 58 00
        E 0 80 61 00
        E 0 80 64 00
        E 450 80 74 00
        E 0 90 24 60
        E 0 90 40 60
        E 0 90 4c 60
        E 0 90 58 60
        E 0 90 64 60
        E 30 80 24 00
        E 0 80 40 00
        E 0 80 4c 00
        E 0 80 58 00
        E 0 80 64 00
        E 290 90 18 60
        E 0 90 60 60
        E 30 80 18 00
        E 0 80 60 00
        E 130 90 1a 60
        E 0 90 24 60
        E 0 90 3d 60
        E 0 90 49 60
        E 0 90 4c 60
        E 0 90 55 60
        E 0 90 58 60
        E 0 90 61 60
        E 0 90 64 60
        E 0 90 78 60
        E 0 90 79 60
        E 0 90 7a 60
        E 0 90 7b 60
        E 0 90 7c 60
        E 30 80 1a 00
        E 0 80 24 00
        E 0 80 3d 00
        E 0 80 49 00
        E 0 80 4c 00
        E 0 80 55 00
        E 0 80 58 00
        E 0 80 61 00
        E 0 80 64 00
        E 130 90 1a 60
        E 0 90 61 60
        E 30 80 1a 00
        E 0 80 61 00
        E 50 90 1b 60
        E 0 90 55 60
        E 0 90 61 60
        E 30 80 1b 00
        E 0 80 55 00
        E 0 80 61 00
        E 50 90 1a 60
        E 0 90 61 60
        E 30 80 1a 00
        E 0 80 61 00
        E 50 90 1b 60
        E 0 90 61 60
        E 30 80 1b 00
        E 0 80 61 00
        E 50 90 1a 60
        E 0 90 3d 60
        E 0 90 49 60
        E 0 90 55 60
        E 0 90 61 60
        E 30 80 1a 00
        E 0 80 3d 00
        E 0 80 49 00
        E 0 80 55 00
        E 0 80 61 00
        E 50 90 1b 60
        E 0 90 61 60
        E 30 80 1b 00
        E 0 80 61 00
        E 50 90 2e 60
        E 0 90 62 60
        E 0 90 6e 60
        E 30 80 2e 00
        E 0 80 62 00
        E 0 80 6e 00
        E 50 90 2f 60
        E 0 90 56 60
        E 0 90 62 60
        E 0 90 6e 60
        E 30 80 2f 00
        E 0 80 56 00
        E 0 80 62 00
        E 0 80 6e 00
        E 50 90 2e 60
        E 0 90 62 60
        E 0 90 6e 60
        E 30 80 2e 00
        E 0 80 62 00
        E 0 80 6e 00
        E 50 90 2f 60
        E 0 90 62 60
        E 0 90 6e 60
        E 30 80 2f 00
        E 0 80 62 00
        E 0 80 6e 00
        E 50 90 2e 60
        E 0 90 3e 60
        E 0 90 4a 60
        E 0 90 56 60
        E 0 90 62 60
        E 0 90 6e 60
        E 30 80 2e 00
        E 0 80 3e 00
        E 0 80 4a 00
        E 0 80 56 00
        E 0 80 62 00
        E 0 80 6e 00
        E 50 90 2f 60
        E 0 90 62 60
        E 0 90 6e 60
        E 30 80 2f 00
        E 0 80 62 00
        E 0 80 6e 00
        E 50 90 30 60
        E 0 90 63 60
        E 0 90 6f 60
        E 30 80 30 00
        E 0 80 63 00
        E 0 80 6f 00
        E 50 90 31 60
        E 0 90 57 60
        E 0 90 63 60
        E 0 90 6f 60
        E 30 80 31 00
        E 0 80 57 00
        E 0 80 63 00
        E 0 80 6f 00
        E 50 90 30 60
        E 0 90 63 60
        E 0 90 6f 60
        E 30 80 30 00
        E 0 80 63 00
        E 0 80 6f 00
        E 50 90 31 60
        E 0 90 63 60
        E 0 90 6f 60
        E 30 80 31 00
        E 0 80 63 00
        E 0 80 6f 00
        E 50 90 30 60
        E 0 90 3f 60
        E 0 90 4b 60
        E 0 90 57 60
        E 0 90 63 60
        E 0 90 6f 60
        E 30 80 30 00
        E 0 80 3f 00
        E 0 80 4b 00
        E 0 80 57 00
        E 0 80 63 00
        E 0 80 6f 00
        E 50 90 31 60
        E 0 90 63 60
        E 0 90 6f 60
        E 30 80 31 00
        E 0 80 63 00
        E 0 80 6f 00
        E 50 90 32 60
        E 0 90 64 60
        E 0 90 70 60
        E 30 80 32 00
        E 0 80 64 00
        E 0 80 70 00
        E 50 90 33 60
        E 0 90 58 60
        E 0 90 64 60
        E 0 90 70 60
        E 30 80 33 00
        E 0 80 58 00
        E 0 80 64 00
        E 0 80 70 00
        E 50 90 32 60
        E 0 90 64 60
        E 0 90 70 60
        E 30 80 32 00
        E 0 80 64 00
        E 0 80 70 00
        E 50 90 33 60
        E 0 90 64 60
        E 0 90 70 60
        E 30 80 33 00
        E 0 80 64 00
        E 0 80 70 00
        E 50 80 78 00
        E 0 80 79 00
        E 0 80 7a 00
        E 0 80 7b 00
        E 0 80 7c 00
        E 0 90 18 60
        E 0 90 22 60
        E 0 90 40 60
        E 0 90 48 60
        E 0 90 4c 60
        E 0 90 54 60
        E 0 90 58 60
        E 0 90 60 60
        E 0 90 64 60
        E 30 80 18 00
        E 0 80 22 00
        E 0 80 40 00
        E 0 80 48 00
        E 0 80 4c 00
        E 0 80 54 00
        E 0 80 58 00
        E 0 80 60 00
        E 0 80 64 00
        E 290 90 18 60
        E 0 90 22 60
        E 0 90 26 60
        E 0 90 54 60
        E 0 90 56 60
        E 0 90 58 60
        E 0 90 60 60
        E 0 90 62 60
        E 0 90 64 60
        E 30 80 18 00
        E 0 80 22 00
        E 0 80 26 00
        E 0 80 54 00
        E 0 80 56 00
        E 0 80 58 00
        E 0 80 60 00
        E 0 80 62 00
        E 0 80 64 00
        E 450 90 18 60
        E 0 90 60 60
        E 30 80 18 00
        E 0 80 60 00
        E 50 90 18 60
        E 0 90 60 60
        E 30 80 18 00
        E 0 80 60 00
        E 50 90 1a 60
        E 0 90 24 60
        E 0 90 3d 60
        E 0 90 49 60
        E 0 90 4c 60
        E 0 90 55 60
        E 0 90 58 60
        E 0 90 61 60
        E 0 90 64 60
        E 30 80 1a 00
        E 0 80 24 00
        E 0 80 3d 00
        E 0 80 49 00
        E 0 80 4c 00
        E 0 80 55 00
        E 0 80 58 00
        E 0 80 61 00
        E 0 80 64 00
        E 450 90 24 60
        E 0 90 40 60
        E 0 90 4c 60
        E 0 90 58 60
        E 0 90 64 60
        E 30 80 24 00
        E 0 80 40 00
        E 0 80 4c 00
        E 0 80 58 00
        E 0 80 64 00
        E 290 90 18 60
        E 0 90 60 60
        E 30 80 18 00
        E 0 80 60 00
        E 130 90 18 60
        E 0 90 24 60
        E 0 90 40 60
        E 0 90 48 60
        E 0 90 4c 60
        E 0 90 54 60
        E 0 90 58 60
        E 0 90 60 60
        E 0 90 64 60
        E 30 80 18 00
        E 0 80 24 00
        E 0 80 40 00
        E 0 80 48 00
        E 0 80 4c 00
        E 0 80 54 00
        E 0 80 58 00
        E 0 80 60 00
        E 0 80 64 00
        E 290 90 18 60
        E 0 90 22 60
        E 0 90 26 60
        E 0 90 54 60
        E 0 90 56 60
        E 0 90 58 60
        E 0 90 60 60
        E 0 90 62 60
        E 0 90 64 60
        E 30 80 18 00
        E 0 80 22 00
        E 0 80 26 00
        E 0 80 54 00
        E 0 80 56 00
        E 0 80 58 00
        E 0 80 60 00
        E 0 80 62 00
        E 0 80 64 00
        E 450 90 18 60
        E 0 90 60 60
        E 30 80 18 00
        E 0 80 60 00
        E 49 90 18 60
        E 0 90 60 60
        E 30 80 18 00
        E 0 80 60 00
        E 51 90 1a 60
        E 0 90 24 60
        E 0 90 3d 60
        E 0 90 49 60
        E 0 90 4c 60
        E 0 90 55 60
        E 0 90 58 60
        E 0 90 61 60
        E 0 90 64 60
        E 30 80 1a 00
        E 0 80 24 00
        E 0 80 3d 00
        E 0 80 49 00
        E 0 80 4c 00
        E 0 80 55 00
        E 0 80 58 00
        E 0 80 61 00
        E 0 80 64 00
        E 50 90 78 60
        E 0 90 79 60
        E 0 90 7a 60
        E 0 90 7b 60
        E 0 90 7c 60
        E 400 90 24 60
        E 0 90 40 60
        E 0 90 4c 60
        E 0 90 58 60
        E 0 90 64 60
        E 30 80 24 00
        E 0 80 40 00
        E 0 80 4c 00
        E 0 80 58 00
        E 0 80 64 00
        E 290 90 18 60
        E 0 90 60 60
        E 30 80 18 00
        E 0 80 60 00
        E 130 90 18 60
        E 0 90 24 60
        E 0 90 40 60
        E 0 90 48 60
        E 0 90 4c 60
        E 0 90 54 60
        E 0 90 58 60
        E 0 90 60 60
        E 0 90 64 60
        E 30 80 18 00
        E 0 80 24 00
        E 0 80 40 00
        E 0 80 48 00
        E 0 80 4c 00
        E 0 80 54 00
        E 0 80 58 00
        E 0 80 60 00
        E 0 80 64 00
        E 290 80 78 00
        E 0 80 79 00
        E 0 80 7a 00
        E 0 80 7b 00
        E 0 80 7c 00
        E 0 90 18 60
        E 0 90 22 60
        E 0 90 26 60
        E 0 90 54 60
        E 0 90 56 60
        E 0 90 58 60
        E 0 90 60 60
        E 0 90 62 60
        E 0 90 64 60
        E 30 80 18 00
        E 0 80 22 00
        E 0 80 26 00
        E 0 80 54 00
        E 0 80 56 00
        E 0 80 58 00
        E 0 80 60 00
        E 0 80 62 00
        E 0 80 64 00
        E 450 90 18 60
        E 0 90 60 60
        E 30 80 18 00
        E 0 80 60 00
        E 50 90 18 60
        E 0 90 60 60
        E 30 80 18 00
        E 0 80 60 00
        E 50 90 1a 60
        E 0 90 24 60
        E 0 90 3d 60
        E 0 90 49 60
        E 0 90 4c 60
        E 0 90 55 60
        E 0 90 58 60
        E 0 90 61 60
        E 0 90 64 60
        E 30 80 1a 00
        E 0 80 24 00
        E 0 80 3d 00
        E 0 80 49 00
        E 0 80 4c 00
        E 0 80 55 00
        E 0 80 58 00
        E 0 80 61 00
        E 0 80 64 00
        E 450 90 24 60
        E 0 90 40 60
        E 0 90 4c 60
        E 0 90 58 60
        E 0 90 64 60
        E 30 80 24 00
        E 0 80 40 00
        E 0 80 4c 00
        E 0 80 58 00
        E 0 80 64 00
        E 290 90 18 60
        E 0 90 60 60
        E 30 80 18 00
        E 0 80 60 00
        E 130 90 24 60
        E 0 90 40 60
        E 0 90 4c 60
        E 0 90 58 60
        E 0 90 64 60
        E 30 80 24 00
        E 0 80 40 00
        E 0 80 4c 00
        E 0 80 58 00
        E 0 80 64 00
        E 130 90 1a 60
        E 0 90 61 60
        E 30 80 1a 00
        E 0 80 61 00
        E 50 90 1b 60
        E 0 90 55 60
        E 0 90 61 60
        E 30 80 1b 00
        E 0 80 55 00
        E 0 80 61 00
        E 50 90 1a 60
        E 0 90 61 60
        E 30 80 1a 00
        E 0 80 61 00
        E 130 90 18 60
        E 0 90 3c 60
        E 0 90 48 60
        E 0 90 54 60
        E 0 90 60 60
        E 30 80 18 00
        E 0 80 3c 00
        E 0 80 48 00
        E 0 80 54 00
        E 0 80 60 00
        E 130 90 2e 60
        E 0 90 31 60
        E 0 90 62 60
        E 0 90 63 60
        E 0 90 6e 60
        E 0 90 6f 60
        E 30 80 2e 00
        E 0 80 31 00
        E 0 80 62 00
        E 0 80 63 00
        E 0 80 6e 00
        E 0 80 6f 00
        E 130 90 18 60
        E 0 90 60 60
        E 30 80 18 00
        E 0 80 60 00
        E 130 90 2e 60
        E 0 90 33 60
        E 0 90 3e 60
        E 0 90 40 60
        E 0 90 4a 60
        E 0 90 4c 60
        E 0 90 56 60
        E 0 90 58 60
        E 0 90 62 60
        E 0 90 64 60
        E 0 90 6e 60
        E 0 90 70 60
        E 30 80 2e 00
        E 0 80 33 00
        E 0 80 3e 00
        E 0 80 40 00
        E 0 80 4a 00
        E 0 80 4c 00
        E 0 80 56 00
        E 0 80 58 00
        E 0 80 62 00
        E 0 80 64 00
        E 0 80 6e 00
        E 0 80 70 00
        E 130 90 18 60
        E 0 90 60 60
        E 30 80 18 00
        E 0 80 60 00
        E 130 90 30 60
        E 0 90 33 60
        E 0 90 63 60
        E 0 90 64 60
        E 0 90 6f 60
        E 0 90 70 60
        E 30 80 30 00
        E 0 80 33 00
        E 0 80 63 00
        E 0 80 64 00
        E 0 80 6f 00
        E 0 80 70 00
        E 130 90 18 60
        E 0 90 3c 60
        E 0 90 48 60
        E 0 90 54 60
        E 0 90 60 60
        E 30 80 18 00
        E 0 80 3c 00
        E 0 80 48 00
        E 0 80 54 00
        E 0 80 60 00
        E 130 90 1a 60
        E 0 90 1b 60
        E 0 90 61 60
        E 0 90 62 60
        E 0 90 6e 60
        E 30 80 1a 00
        E 0 80 1b 00
        E 0 80 61 00
        E 0 80 62 00
        E 0 80 6e 00
        E 130 90 18 60
        E 0 90 60 60
        E 30 80 18 00
        E 0 80 60 00
        E 130 90 18 60
        E 0 90 24 60
        E 0 90 40 60
        E 0 90 48 60
        E 0 90 4c 60
        E 0 90 54 60
        E 0 90 58 60
        E 0 90 60 60
        E 0 90 64 60
        E 30 80 18 00
        E 0 80 24 00
        E 0 80 40 00
        E 0 80 48 00
        E 0 80 4c 00
        E 0 80 54 00
        E 0 80 58 00
        E 0 80 60 00
        E 0 80 64 00
        E 290 90 18 60
        E 0 90 22 60
        E 0 90 26 60
        E 0 90 54 60
        E 0 90 56 60
        E 0 90 58 60
        E 0 90 60 60
        E 0 90 62 60
        E 0 90 64 60
        E 30 80 18 00
        E 0 80 22 00
        E 0 80 26 00
        E 0 80 54 00
        E 0 80 56 00
        E 0 80 58 00
        E 0 80 60 00
        E 0 80 62 00
        E 0 80 64 00
        E 610 90 24 60
        E 0 90 40 60
        E 0 90 4c 60
        E 0 90 58 60
        E 0 90 64 60
        E 30 80 24 00
        E 0 80 40 00
        E 0 80 4c 00
        E 0 80 58 00
        E 0 80 64 00
        E 129 90 2b 60
        E 0 90 63 60
        E 30 80 2b 00
        E 0 80 63 00
        E 131 90 24 60
        E 0 90 64 60
        E 30 80 24 00
        E 0 80 64 00
        E 130 90 2b 60
        E 0 90 3f 60
        E 0 90 4b 60
        E 0 90 57 60
        E 0 90 63 60
        E 30 80 2b 00
        E 0 80 3f 00
        E 0 80 4b 00
        E 0 80 57 00
        E 0 80 63 00
        E 130 90 24 60
        E 0 90 64 60
        E 30 80 24 00
        E 0 80 64 00
        E 129 90 2b 60
        E 0 90 63 60
        E 30 80 2b 00
        E 0 80 63 00
        E 131 90 24 60
        E 0 90 40 60
        E 0 90 4c 60
        E 0 90 58 60
        E 0 90 64 60
        E 30 80 24 00
        E 0 80 40 00
        E 0 80 4c 00
        E 0 80 58 00
        E 0 80 64 00
        E 129 90 2b 60
        E 0 90 63 60
        E 30 80 2b 00
        E 0 80 63 00
        E 131 90 24 60
        E 0 90 64 60
        E 30 80 24 00
        E 0 80 64 00
        E 130 90 2b 60
        E 0 90 3f 60
        E 0 90 4b 60
        E 0 90 57 60
        E 0 90 63 60
        E 30 80 2b 00
        E 0 80 3f 00
        E 0 80 4b 00
        E 0 80 57 00
        E 0 80 63 00
        E 130 90 24 60
        E 0 90 64 60
        E 30 80 24 00
        E 0 80 64 00
        E 129 90 2b 60
        E 0 90 63 60
        E 30 80 2b 00
        E 0 80 63 00
        E 131 90 24 60
        E 0 90 40 60
        E 0 90 4c 60
        E 0 90 58 60
        E 0 90 64 60
        E 30 80 24 00
        E 0 80 40 00
        E 0 80 4c 00
        E 0 80 58 00
        E 0 80 64 00
        E 129 90 2b 60
        E 0 90 63 60
        E 30 80 2b 00
        E 0 80 63 00
        E 131 90 24 60
        E 0 90 64 60
        E 30 80 24 00
        E 0 80 64 00
        E 130 90 2b 60
        E 0 90 3f 60
        E 0 90 4b 60
        E 0 90 57 60
        E 0 90 63 60
        E 30 80 2b 00
        E 0 80 3f 00
        E 0 80 4b 00
        E 0 80 57 00
        E 0 80 63 00
        E 130 90 24 60
        E 0 90 64 60
        E 30 80 24 00
        E 0 80 64 00
        E 130 90 2b 60
        E 0 90 63 60
        E 30 80 2b 00
        E 0 80 63 00
        E 130 90 24 60
        E 0 90 40 60
        E 0 90 4c 60
        E 0 90 58 60
        E 0 90 64 60
        E 30 80 24 00
        E 0 80 40 00
        E 0 80 4c 00
        E 0 80 58 00
        E 0 80 64 00
        E 130 90 2b 60
        E 0 90 63 60
        E 30 80 2b 00
        E 0 80 63 00
        E 129 90 24 60
        E 0 90 64 60
        E 30 80 24 00
        E 0 80 64 00
        E 131 90 2b 60
        E 0 90 3f 60
        E 0 90 4b 60
        E 0 90 57 60
        E 0 90 63 60
        E 30 80 2b 00
        E 0 80 3f 00
        E 0 80 4b 00
        E 0 80 57 00
        E 0 80 63 00
        E 129 90 24 60
        E 0 90 64 60
        E 30 80 24 00
        E 0 80 64 00
        E 131 90 2b 60
        E 0 90 63 60
        E 30 80 2b 00
        E 0 80 63 00
        E 130 90 24 60
        E 0 90 40 60
        E 0 90 4c 60
        E 0 90 58 60
        E 0 90 64 60
        E 30 80 24 00
        E 0 80 40 00
        E 0 80 4c 00
        E 0 80 58 00
        E 0 80 64 00
        E 130 90 2b 60
        E 0 90 63 60
        E 30 80 2b 00
        E 0 80 63 00
        E 129 90 24 60
        E 0 90 64 60
        E 30 80 24 00
        E 0 80 64 00
        E 131 90 2b 60
        E 0 90 3f 60
        E 0 90 4b 60
        E 0 90 57 60
        E 0 90 63 60
        E 30 80 2b 00
        E 0 80 3f 00
        E 0 80 4b 00
        E 0 80 57 00
        E 0 80 63 00
        E 129 90 24 60
        E 0 90 64 60
        E 30 80 24 00
        E 0 80 64 00
        E 131 90 2b 60
        E 0 90 63 60
        E 30 80 2b 00
        E 0 80 63 00
        E 130 90 24 60
        E 0 90 40 60
        E 0 90 4c 60
        E 0 90 58 60
        E 0 90 64 60
        E 30 80 24 00
        E 0 80 40 00
        E 0 80 4c 00
        E 0 80 58 00
        E 0 80 64 00
        <X 480 0
          /wFbaWRsZV9yZWFsdGltZV0=
        >
        E 13890 b0 7b 00
        GUID {99C52F88-C54B-4CCD-B038-A5C950AC8E6E}
        IGNTEMPO 0 120.00000000 4 4
        SRCCOLOR 288
        VELLANE 132 38 60
        COLORMAP "C:\Program Files (x86)\REAPER\Data\color_maps\rockband_drums.png"
        BANKPROGRAMFILE "C:\Users\AJFOne23\AppData\Roaming\REAPER/Data/GM.reabank"
        TEXTSTRINGFILE "Text Events List.txt"
        CFGEDITVIEW 25035.005213 142.379025 1 12 0 0 0
        CFGEDIT 1 1 0 0 0 1 1 1 1 1 1 0.16666667 -8 -8 1370 736 1 2 1 2 0.00000000 0 0 0 0 0.500000 1 0 1.000000 64
        KEYSNAP 0 0 "102034050607" 0 "Major"
        EVTFILTER 0 -1 -1 -1 -1 0 1 0 0 -1.00000000 -1.00000000
      >
    >
  >
  <TRACK '{64D13622-56E3-4C88-BD7B-29F03F5AC010}'
    NAME "PART DRUMS_2X"
    PEAKCOL 16842751
    BEAT -1
    AUTOMODE 0
    VOLPAN 1.00000000000000 0.00000000000000 -1.00000000000000 -1.00000000000000 1.00000000000000
    MUTESOLO 0 0 0
    IPHASE 0
    ISBUS 0 0
    BUSCOMP 1 0
    SHOWINMIX 1 0.666700 0.500000 1 0.500000 -1 -1 -1
    FREEMODE 0
    SEL 0
    REC 0 4096 1 7 0 0 0
    TRACKHEIGHT 57 0
    INQ 0 0 0 0.5000000000 100 0 0 100
    NCHAN 2
    FX 1
    TRACKID {64D13622-56E3-4C88-BD7B-29F03F5AC010}
    PERF 0
    MIDIOUT -1
    <MIDINOTENAMES
      0 84 "HARD Kick"
      0 96 "EXPERT Kick"
      0 72 "MEDIUM Kick"
      0 60 "EASY Kick"
      0 97 "EXPERT Red"
      0 98 "EXPERT Yellow"
      0 99 "EXPERT Blue"
      0 100 "EXPERT Green"
      0 85 "HARD Red"
      0 86 "HARD Yellow"
      0 87 "HARD Blue"
      0 88 "HARD Green"
      0 73 "MEDIUM Red"
      0 74 "MEDIUM Yellow"
      0 75 "MEDIUM Blue"
      0 76 "MEDIUM Green"
      0 61 "EASY Red"
      0 62 "EASY Yellow"
      0 63 "EASY Blue"
      0 64 "EASY Green"
      0 101 " "
      0 92 "----"
      0 80 "----"
      0 68 "----"
      0 120 "DRUM FILL (use all 5)"
      0 121 "DRUM FILL"
      0 122 "DRUM FILL"
      0 123 "DRUM FILL"
      0 124 "DRUM FILL"
      0 114 "----"
      0 116 "OVERDRIVE"
      0 118 "----"
      0 24 "KICK RF"
      0 25 "HI-HAT OPEN"
      0 26 "SNARE HARD LH"
      0 27 "SNARE HARD RH"
      0 30 "HI-HAT LH"
      0 31 "HI-HAT RH"
      0 32 "PERCUSSION RH"
      0 34 "CRASH1 HARD LH"
      0 35 "CRASH1 SOFT LH"
      0 36 "CRASH1 HARD RH"
      0 37 "CRASH1 SOFT RH"
      0 38 "CRASH2 HARD RH"
      0 39 "CRASH2 SOFT RH"
      0 40 "CRASH1 CHOKE"
      0 41 "CRASH2 CHOKE"
      0 42 "RIDE CYM RH"
      0 46 "TOM1 LH"
      0 47 "TOM1 RH"
      0 48 "TOM2 LH"
      0 49 "TOM2 RH"
      0 50 "FLOOR TOM LH"
      0 51 "FLOOR TOM RH"
      0 52 "--DRUM ANIMATION--"
      0 56 "----"
      0 103 "Solo Marker"
      0 102 "----"
      0 110 "PRO Yellow Tom"
      0 111 "PRO Blue Tom"
      0 112 "PRO Green Tom"
      0 108 "----"
      0 127 "Roll Marker 2-Lane / Cym"
      0 126 "Roll Marker 1-Lane"
      0 125 "----"
      0 28 "SNARE SOFT LH"
      0 29 "SNARE SOFT RH"
      0 43 "RIDE CYM LH"
      0 44 "CRASH2 HARD LH"
      0 45 "CRASH2 SOFT LH"
    >
    MAINSEND 1 0
    <FXCHAIN
      WNDRECT 35 28 675 472
      SHOW 0
      LASTSEL 1
      DOCKED 0
      BYPASS 1 0
      <VST "VSTi: ReaSynth (Cockos)" "reasynth.dll" 0 ""
        eXNlcu9e7f4AAAAAAgAAAAEAAAAAAAAAAgAAAAAAAAA4AAAAAAAAAA==
        AAAAAO++rd4N8K3eAAAAAAAAAAAAAAAAAAAAADm0SD59y9s+tbSxOQ==
        AAAAALbz/T5VpCs6AAAAAAAAAAAAAAAAAAA=
      >
      FLOATPOS 0 0 0 0
      FXID {58F55556-9407-4062-A048-6AFCC0B53535}
      WAK 0
      BYPASS 0 0
      <VST "VSTi: RBN Preview (RBN)" "rbprev_vst.dll" 0 ""
        dnBicu5e7f4AAAAAAgAAAAEAAAAAAAAAAgAAAAAAAAAEAAAAAQAAAA==
        AAAAAAMBqgAAAAAAAAA=
      >
      FLOATPOS 32 32 659 497
      FXID {D7126437-AB1E-4109-A0FA-F2D5D0AC68DC}
      WAK 0
    >
    <ITEM
      POSITION 0.00000000000000
      SNAPOFFS 0.00000000000000
      LENGTH 249.91602778456030
      LOOP 0
      ALLTAKES 0
      COLOR 19150555
      SEL 0
      FADEIN 1 0.000000 0.000000 1 0
      FADEOUT 1 0.000000 0.000000 1 0
      MUTE 0
      IGUID {9FF11F36-E94F-4396-9C0E-8449C916EC21}
      IID 4
      NAME "PART DRUMS_2X"
      VOLPAN 1.000000 0.000000 1.000000 -1.000000
      SOFFS 0.00000000000000 0.00000000000000
      PLAYRATE 1.00000000000000 1 0.00000000000000 -65536
      CHANMODE 0
      GUID {70A79ADF-E70C-430A-913F-E16D0CC85517}
      <SOURCE MIDI
        HASDATA 1 480 QN
        POOLEDEVTS {BA3D22E9-616A-453B-A804-03BA61E461D6}
        <X 0 0
          /wNQQVJUIERSVU1TXzJY
        >
        <X 300 0
          /wFbbWl4IDEgZHJ1bXMwXQ==
        >
        <X 0 0
          /wFbbWl4IDAgZHJ1bXMwXQ==
        >
        <X 60 0
          /wFbbWl4IDIgZHJ1bXMwXQ==
        >
        <X 60 0
          /wFbbWl4IDMgZHJ1bXMwXQ==
        >
        <X 3420 0
          /wFbcGxheV0=
        >
        E 1840 90 1e 60
        E 0 90 62 60
        E 80 80 1e 00
        E 0 80 62 00
        E 0 90 1f 60
        E 0 90 62 60
        E 0 90 56 60
        E 0 90 4a 60
        E 0 90 3e 60
        E 30 80 1f 00
        E 0 80 62 00
        E 0 80 56 00
        E 0 80 4a 00
        E 0 80 3e 00
        E 50 90 1e 60
        E 0 90 62 60
        E 30 80 1e 00
        E 0 80 62 00
        E 50 90 1f 60
        E 0 90 62 60
        E 30 80 1f 00
        E 0 80 62 00
        E 50 90 1e 60
        E 0 90 62 60
        E 0 90 56 60
        E 30 80 1e 00
        E 0 80 62 00
        E 0 80 56 00
        E 90 90 1f 60
        E 0 90 62 60
        E 30 80 1f 00
        E 0 80 62 00
        E 90 90 1e 60
        E 0 90 62 60
        E 0 90 56 60
        E 0 90 4a 60
        E 0 90 3e 60
        E 30 80 1e 00
        E 0 80 62 00
        E 0 80 56 00
        E 0 80 4a 00
        E 0 80 3e 00
        E 90 90 1f 60
        E 0 90 62 60
        E 30 80 1f 00
        E 0 80 62 00
        E 90 90 1e 60
        E 0 90 62 60
        E 0 90 56 60
        E 30 80 1e 00
        E 0 80 62 00
        E 0 80 56 00
        E 89 90 1f 60
        E 0 90 62 60
        E 30 80 1f 00
        E 0 80 62 00
        E 91 90 1e 60
        E 0 90 62 60
        E 0 90 56 60
        E 0 90 4a 60
        E 0 90 3e 60
        E 30 80 1e 00
        E 0 80 62 00
        E 0 80 56 00
        E 0 80 4a 00
        E 0 80 3e 00
        E 90 90 1f 60
        E 0 90 62 60
        E 30 80 1f 00
        E 0 80 62 00
        E 90 90 18 60
        E 0 90 22 60
        E 0 90 60 60
        E 0 90 64 60
        E 0 90 54 60
        E 0 90 58 60
        E 30 80 18 00
        E 0 80 22 00
        E 0 80 60 00
        E 0 80 64 00
        E 0 80 54 00
        E 0 80 58 00
        E 210 90 1f 60
        E 0 90 62 60
        E 0 90 56 60
        E 0 90 4a 60
        E 0 90 3e 60
        E 30 80 1f 00
        E 0 80 62 00
        E 0 80 56 00
        E 0 80 4a 00
        E 0 80 3e 00
        E 90 90 18 60
        E 0 90 2a 60
        E 0 90 60 60
        E 0 90 63 60
        E 30 80 18 00
        E 0 80 2a 00
        E 0 80 60 00
        E 0 80 63 00
        E 209 90 1e 60
        E 0 90 62 60
        E 30 80 1e 00
        E 0 80 62 00
        E 91 90 18 60
        E 0 90 24 60
        E 0 90 60 60
        E 0 90 64 60
        E 0 90 54 60
        E 0 90 58 60
        E 0 90 48 60
        E 0 90 4c 60
        E 0 90 40 60
        E 30 80 18 00
        E 0 80 24 00
        E 0 80 60 00
        E 0 80 64 00
        E 0 80 54 00
        E 0 80 58 00
        E 0 80 48 00
        E 0 80 4c 00
        E 0 80 40 00
        E 330 90 1e 60
        E 0 90 62 60
        E 30 80 1e 00
        E 0 80 62 00
        E 90 90 1f 60
        E 0 90 62 60
        E 0 90 56 60
        E 0 90 4a 60
        E 0 90 3e 60
        E 30 80 1f 00
        E 0 80 62 00
        E 0 80 56 00
        E 0 80 4a 00
        E 0 80 3e 00
        E 90 90 1e 60
        E 0 90 62 60
        E 30 80 1e 00
        E 0 80 62 00
        E 90 90 1f 60
        E 0 90 62 60
        E 0 90 56 60
        E 30 80 1f 00
        E 0 80 62 00
        E 0 80 56 00
        E 29 90 1e 60
        E 0 90 62 60
        E 30 80 1e 00
        E 0 80 62 00
        E 30 90 1f 60
        E 0 90 62 60
        E 30 80 1f 00
        E 0 80 62 00
        E 30 90 1e 60
        E 0 90 62 60
        E 30 80 1e 00
        E 0 80 62 00
        E 31 90 1f 60
        E 0 90 62 60
        E 0 90 56 60
        E 0 90 4a 60
        E 0 90 3e 60
        E 30 80 1f 00
        E 0 80 62 00
        E 0 80 56 00
        E 0 80 4a 00
        E 0 80 3e 00
        E 89 90 1e 60
        E 0 90 62 60
        E 30 80 1e 00
        E 0 80 62 00
        E 90 90 1f 60
        E 0 90 62 60
        E 0 90 56 60
        E 30 80 1f 00
        E 0 80 62 00
        E 0 80 56 00
        E 30 90 1e 60
        E 0 90 62 60
        E 30 80 1e 00
        E 0 80 62 00
        E 31 90 1f 60
        E 0 90 62 60
        E 30 80 1f 00
        E 0 80 62 00
        E 30 90 1e 60
        E 0 90 62 60
        E 30 80 1e 00
        E 0 80 62 00
        E 30 90 1f 60
        E 0 90 62 60
        E 0 90 56 60
        E 0 90 4a 60
        E 0 90 3e 60
        E 30 80 1f 00
        E 0 80 62 00
        E 0 80 56 00
        E 0 80 4a 00
        E 0 80 3e 00
        E 89 90 1e 60
        E 0 90 62 60
        E 30 80 1e 00
        E 0 80 62 00
        E 91 90 18 60
        E 0 90 24 60
        E 0 90 60 60
        E 0 90 64 60
        E 0 90 54 60
        E 0 90 58 60
        E 30 80 18 00
        E 0 80 24 00
        E 0 80 60 00
        E 0 80 64 00
        E 0 80 54 00
        E 0 80 58 00
        E 210 90 1f 60
        E 0 90 62 60
        E 0 90 56 60
        E 0 90 4a 60
        E 0 90 3e 60
        E 30 80 1f 00
        E 0 80 62 00
        E 0 80 56 00
        E 0 80 4a 00
        E 0 80 3e 00
        E 90 90 18 60
        E 0 90 2a 60
        E 0 90 60 60
        E 0 90 63 60
        E 30 80 18 00
        E 0 80 2a 00
        E 0 80 60 00
        E 0 80 63 00
        E 209 90 1e 60
        E 0 90 62 60
        E 30 80 1e 00
        E 0 80 62 00
        E 91 90 18 60
        E 0 90 24 60
        E 0 90 60 60
        E 0 90 64 60
        E 0 90 54 60
        E 0 90 58 60
        E 0 90 48 60
        E 0 90 4c 60
        E 0 90 40 60
        E 30 80 18 00
        E 0 80 24 00
        E 0 80 60 00
        E 0 80 64 00
        E 0 80 54 00
        E 0 80 58 00
        E 0 80 48 00
        E 0 80 4c 00
        E 0 80 40 00
        E 330 90 1e 60
        E 0 90 62 60
        E 30 80 1e 00
        E 0 80 62 00
        E 90 90 1f 60
        E 0 90 62 60
        E 0 90 56 60
        E 0 90 4a 60
        E 0 90 3e 60
        E 30 80 1f 00
        E 0 80 62 00
        E 0 80 56 00
        E 0 80 4a 00
        E 0 80 3e 00
        E 90 90 1e 60
        E 0 90 62 60
        E 30 80 1e 00
        E 0 80 62 00
        E 90 90 1f 60
        E 0 90 62 60
        E 0 90 56 60
        E 30 80 1f 00
        E 0 80 62 00
        E 0 80 56 00
        E 29 90 1e 60
        E 0 90 62 60
        E 30 80 1e 00
        E 0 80 62 00
        E 30 90 1f 60
        E 0 90 62 60
        E 30 80 1f 00
        E 0 80 62 00
        E 30 90 1e 60
        E 0 90 62 60
        E 30 80 1e 00
        E 0 80 62 00
        E 31 90 1f 60
        E 0 90 62 60
        E 0 90 56 60
        E 0 90 4a 60
        E 0 90 3e 60
        E 30 80 1f 00
        E 0 80 62 00
        E 0 80 56 00
        E 0 80 4a 00
        E 0 80 3e 00
        E 89 90 1e 60
        E 0 90 62 60
        E 30 80 1e 00
        E 0 80 62 00
        E 90 90 1f 60
        E 0 90 62 60
        E 0 90 56 60
        E 30 80 1f 00
        E 0 80 62 00
        E 0 80 56 00
        E 91 90 1e 60
        E 0 90 62 60
        E 30 80 1e 00
        E 0 80 62 00
        E 90 90 1f 60
        E 0 90 62 60
        E 0 90 56 60
        E 0 90 4a 60
        E 0 90 3e 60
        E 30 80 1f 00
        E 0 80 62 00
        E 0 80 56 00
        E 0 80 4a 00
        E 0 80 3e 00
        E 89 90 1e 60
        E 0 90 62 60
        E 30 80 1e 00
        E 0 80 62 00
        E 91 90 18 60
        E 0 90 24 60
        E 0 90 60 60
        E 0 90 64 60
        E 0 90 54 60
        E 0 90 58 60
        E 30 80 18 00
        E 0 80 24 00
        E 0 80 60 00
        E 0 80 64 00
        E 0 80 54 00
        E 0 80 58 00
        E 210 90 1f 60
        E 0 90 62 60
        E 0 90 56 60
        E 0 90 4a 60
        E 0 90 3e 60
        E 30 80 1f 00
        E 0 80 62 00
        E 0 80 56 00
        E 0 80 4a 00
        E 0 80 3e 00
        E 90 90 18 60
        E 0 90 2a 60
        E 0 90 60 60
        E 0 90 63 60
        E 30 80 18 00
        E 0 80 2a 00
        E 0 80 60 00
        E 0 80 63 00
        E 209 90 1e 60
        E 0 90 62 60
        E 30 80 1e 00
        E 0 80 62 00
        E 91 90 18 60
        E 0 90 24 60
        E 0 90 60 60
        E 0 90 64 60
        E 0 90 54 60
        E 0 90 58 60
        E 0 90 48 60
        E 0 90 4c 60
        E 0 90 40 60
        E 30 80 18 00
        E 0 80 24 00
        E 0 80 60 00
        E 0 80 64 00
        E 0 80 54 00
        E 0 80 58 00
        E 0 80 48 00
        E 0 80 4c 00
        E 0 80 40 00
        E 329 90 1e 60
        E 0 90 62 60
        E 30 80 1e 00
        E 0 80 62 00
        E 91 90 1f 60
        E 0 90 62 60
        E 0 90 56 60
        E 0 90 4a 60
        E 0 90 3e 60
        E 60 80 1f 00
        E 0 80 62 00
        E 0 80 56 00
        E 0 80 4a 00
        E 0 80 3e 00
        E 60 90 1e 60
        E 0 90 62 60
        E 30 80 1e 00
        E 0 80 62 00
        E 90 90 1f 60
        E 0 90 62 60
        E 0 90 56 60
        E 30 80 1f 00
        E 0 80 62 00
        E 0 80 56 00
        E 90 90 1e 60
        E 0 90 62 60
        E 30 80 1e 00
        E 0 80 62 00
        E 90 90 1f 60
        E 0 90 62 60
        E 0 90 56 60
        E 0 90 4a 60
        E 0 90 3e 60
        E 30 80 1f 00
        E 0 80 62 00
        E 0 80 56 00
        E 0 80 4a 00
        E 0 80 3e 00
        E 89 90 1e 60
        E 0 90 62 60
        E 30 80 1e 00
        E 0 80 62 00
        E 91 90 1b 60
        E 0 90 61 60
        E 0 90 55 60
        E 60 80 1b 00
        E 0 80 61 00
        E 0 80 55 00
        E 60 90 1a 60
        E 0 90 61 60
        E 60 80 1a 00
        E 0 80 61 00
        E 180 90 1a 60
        E 0 90 61 60
        E 60 80 1a 00
        E 0 80 61 00
        E 60 90 18 60
        E 0 90 24 60
        E 0 90 60 60
        E 0 90 64 60
        E 0 90 54 60
        E 0 90 58 60
        E 30 80 18 00
        E 0 80 24 00
        E 0 80 60 00
        E 0 80 64 00
        E 0 80 54 00
        E 0 80 58 00
        E 210 90 18 60
        E 0 90 24 60
        E 0 90 60 60
        E 0 90 64 60
        E 0 90 54 60
        E 0 90 58 60
        E 0 90 48 60
        E 0 90 4c 60
        E 0 90 40 60
        E 30 80 18 00
        E 0 80 24 00
        E 0 80 60 00
        E 0 80 64 00
        E 0 80 54 00
        E 0 80 58 00
        E 0 80 48 00
        E 0 80 4c 00
        E 0 80 40 00
        E 89 90 1a 60
        E 0 90 61 60
        E 30 80 1a 00
        E 0 80 61 00
        E 90 90 24 60
        E 0 90 64 60
        E 0 90 58 60
        E 30 80 24 00
        E 0 80 64 00
        E 0 80 58 00
        E 50 90 18 60
        E 0 90 60 60
        E 30 80 18 00
        E 0 80 60 00
        E 51 90 18 60
        E 0 90 60 60
        E 30 80 18 00
        E 0 80 60 00
        E 50 90 1a 60
        E 0 90 24 60
        E 0 90 61 60
        E 0 90 64 60
        E 0 90 55 60
        E 0 90 58 60
        E 0 90 49 60
        E 0 90 4c 60
        E 0 90 3d 60
        E 30 80 1a 00
        E 0 80 24 00
        E 0 80 61 00
        E 0 80 64 00
        E 0 80 55 00
        E 0 80 58 00
        E 0 80 49 00
        E 0 80 4c 00
        E 0 80 3d 00
        E 210 90 2a 60
        E 0 90 63 60
        E 0 90 57 60
        E 30 80 2a 00
        E 0 80 63 00
        E 0 80 57 00
        E 90 90 1a 60
        E 0 90 61 60
        E 30 80 1a 00
        E 0 80 61 00
        E 90 90 18 60
        E 0 90 24 60
        E 0 90 60 60
        E 0 90 64 60
        E 0 90 54 60
        E 0 90 58 60
        E 0 90 48 60
        E 0 90 4c 60
        E 0 90 40 60
        E 30 80 18 00
        E 0 80 24 00
        E 0 80 60 00
        E 0 80 64 00
        E 0 80 54 00
        E 0 80 58 00
        E 0 80 48 00
        E 0 80 4c 00
        E 0 80 40 00
        E 209 90 1b 60
        E 0 90 61 60
        E 0 90 55 60
        E 30 80 1b 00
        E 0 80 61 00
        E 0 80 55 00
        E 50 90 1a 60
        E 0 90 61 60
        E 30 80 1a 00
        E 0 80 61 00
        E 50 90 1b 60
        E 0 90 61 60
        E 30 80 1b 00
        E 0 80 61 00
        E 50 90 1a 60
        E 0 90 61 60
        E 0 90 55 60
        E 0 90 49 60
        E 0 90 3d 60
        E 30 80 1a 00
        E 0 80 61 00
        E 0 80 55 00
        E 0 80 49 00
        E 0 80 3d 00
        E 91 90 1b 60
        E 0 90 61 60
        E 30 80 1b 00
        E 0 80 61 00
        E 90 90 2e 60
        E 0 90 62 60
        E 0 90 56 60
        E 0 90 6e 60
        E 30 80 2e 00
        E 0 80 62 00
        E 0 80 56 00
        E 0 80 6e 00
        E 90 90 1b 60
        E 0 90 61 60
        E 30 80 1b 00
        E 0 80 61 00
        E 90 90 1a 60
        E 0 90 61 60
        E 0 90 55 60
        E 0 90 49 60
        E 0 90 3d 60
        E 30 80 1a 00
        E 0 80 61 00
        E 0 80 55 00
        E 0 80 49 00
        E 0 80 3d 00
        E 90 90 1b 60
        E 0 90 61 60
        E 30 80 1b 00
        E 0 80 61 00
        E 90 90 18 60
        E 0 90 22 60
        E 0 90 60 60
        E 0 90 64 60
        E 0 90 74 60
        E 0 90 54 60
        E 0 90 58 60
        E 30 80 18 00
        E 0 80 60 00
        E 0 80 54 00
        E 30 80 22 00
        E 0 80 64 00
        E 0 80 58 00
        E 180 90 18 60
        E 0 90 2a 60
        E 0 90 60 60
        E 0 90 63 60
        E 0 90 54 60
        E 0 90 57 60
        E 0 90 48 60
        E 0 90 4b 60
        E 0 90 3f 60
        E 30 80 18 00
        E 0 80 2a 00
        E 0 80 60 00
        E 0 80 63 00
        E 0 80 54 00
        E 0 80 57 00
        E 0 80 48 00
        E 0 80 4b 00
        E 0 80 3f 00
        E 90 90 1a 60
        E 0 90 61 60
        E 30 80 1a 00
        E 0 80 61 00
        E 89 90 2a 60
        E 0 90 63 60
        E 0 90 57 60
        E 30 80 2a 00
        E 0 80 63 00
        E 0 80 57 00
        E 51 90 18 60
        E 0 90 60 60
        E 30 80 18 00
        E 0 80 60 00
        E 50 90 18 60
        E 0 90 60 60
        E 30 80 18 00
        E 0 80 60 00
        E 50 90 1a 60
        E 0 90 24 60
        E 0 90 61 60
        E 0 90 64 60
        E 0 90 55 60
        E 0 90 58 60
        E 0 90 49 60
        E 0 90 4c 60
        E 0 90 3d 60
        E 30 80 1a 00
        E 0 80 24 00
        E 0 80 61 00
        E 0 80 64 00
        E 0 80 55 00
        E 0 80 58 00
        E 0 80 49 00
        E 0 80 4c 00
        E 0 80 3d 00
        E 329 90 1a 60
        E 0 90 61 60
        E 30 80 1a 00
        E 0 80 61 00
        E 91 90 18 60
        E 0 90 24 60
        E 0 90 60 60
        E 0 90 64 60
        E 0 90 54 60
        E 0 90 58 60
        E 0 90 48 60
        E 0 90 4c 60
        E 0 90 40 60
        E 30 80 18 00
        E 0 80 24 00
        E 0 80 60 00
        E 0 80 64 00
        E 0 80 54 00
        E 0 80 58 00
        E 0 80 48 00
        E 0 80 4c 00
        E 0 80 40 00
        E 90 90 1a 60
        E 0 90 61 60
        E 30 80 1a 00
        E 0 80 61 00
        E 89 90 1b 60
        E 0 90 61 60
        E 0 90 55 60
        E 30 80 1b 00
        E 0 80 61 00
        E 0 80 55 00
        E 90 90 1a 60
        E 0 90 61 60
        E 30 80 1a 00
        E 0 80 61 00
        E 211 90 1a 60
        E 0 90 61 60
        E 60 80 1a 00
        E 0 80 61 00
        E 60 90 1b 60
        E 0 90 61 60
        E 0 90 55 60
        E 30 80 1b 00
        E 0 80 61 00
        E 0 80 55 00
        E 89 90 1a 60
        E 0 90 61 60
        E 30 80 1a 00
        E 0 80 61 00
        E 91 90 31 60
        E 0 90 63 60
        E 0 90 57 60
        E 0 90 4b 60
        E 0 90 6f 60
        E 0 90 3f 60
        E 30 80 31 00
        E 0 80 63 00
        E 0 80 57 00
        E 0 80 4b 00
        E 0 80 6f 00
        E 0 80 3f 00
        E 89 90 1e 60
        E 0 90 62 60
        E 30 80 1e 00
        E 0 80 62 00
        E 91 80 74 00
        E 0 90 18 60
        E 0 90 24 60
        E 0 90 60 60
        E 0 90 64 60
        E 0 90 54 60
        E 0 90 58 60
        E 30 80 18 00
        E 0 80 24 00
        E 0 80 60 00
        E 0 80 64 00
        E 0 80 54 00
        E 0 80 58 00
        E 210 90 18 60
        E 0 90 24 60
        E 0 90 60 60
        E 0 90 64 60
        E 0 90 54 60
        E 0 90 58 60
        E 0 90 48 60
        E 0 90 4c 60
        E 0 90 40 60
        E 30 80 18 00
        E 0 80 24 00
        E 0 80 60 00
        E 0 80 64 00
        E 0 80 54 00
        E 0 80 58 00
        E 0 80 48 00
        E 0 80 4c 00
        E 0 80 40 00
        E 90 90 1a 60
        E 0 90 61 60
        E 30 80 1a 00
        E 0 80 61 00
        E 90 90 2a 60
        E 0 90 63 60
        E 0 90 57 60
        E 30 80 2a 00
        E 0 80 63 00
        E 0 80 57 00
        E 50 90 18 60
        E 0 90 60 60
        E 30 80 18 00
        E 0 80 60 00
        E 50 90 18 60
        E 0 90 60 60
        E 30 80 18 00
        E 0 80 60 00
        E 50 90 1a 60
        E 0 90 24 60
        E 0 90 61 60
        E 0 90 64 60
        E 0 90 55 60
        E 0 90 58 60
        E 0 90 49 60
        E 0 90 4c 60
        E 0 90 3d 60
        E 30 80 1a 00
        E 0 80 24 00
        E 0 80 61 00
        E 0 80 64 00
        E 0 80 55 00
        E 0 80 58 00
        E 0 80 49 00
        E 0 80 4c 00
        E 0 80 3d 00
        E 210 90 2a 60
        E 0 90 63 60
        E 0 90 57 60
        E 60 80 2a 00
        E 0 80 63 00
        E 0 80 57 00
        E 179 90 18 60
        E 0 90 24 60
        E 0 90 60 60
        E 0 90 64 60
        E 0 90 54 60
        E 0 90 58 60
        E 0 90 48 60
        E 0 90 4c 60
        E 0 90 40 60
        E 30 80 18 00
        E 0 80 24 00
        E 0 80 60 00
        E 0 80 64 00
        E 0 80 54 00
        E 0 80 58 00
        E 0 80 48 00
        E 0 80 4c 00
        E 0 80 40 00
        E 90 90 1a 60
        E 0 90 61 60
        E 30 80 1a 00
        E 0 80 61 00
        E 91 90 18 60
        E 0 90 24 60
        E 0 90 60 60
        E 0 90 64 60
        E 0 90 54 60
        E 0 90 58 60
        E 30 80 18 00
        E 0 80 24 00
        E 0 80 60 00
        E 0 80 64 00
        E 0 80 54 00
        E 0 80 58 00
        E 50 90 1a 60
        E 0 90 61 60
        E 30 80 1a 00
        E 0 80 61 00
        E 50 90 1b 60
        E 0 90 61 60
        E 30 80 1b 00
        E 0 80 61 00
        E 50 90 1a 60
        E 0 90 61 60
        E 0 90 55 60
        E 0 90 49 60
        E 0 90 3d 60
        E 30 80 1a 00
        E 0 80 61 00
        E 0 80 55 00
        E 0 80 49 00
        E 0 80 3d 00
        E 49 90 1b 60
        E 0 90 61 60
        E 30 80 1b 00
        E 0 80 61 00
        E 50 90 1a 60
        E 0 90 61 60
        E 30 80 1a 00
        E 0 80 61 00
        E 50 90 1b 60
        E 0 90 61 60
        E 0 90 55 60
        E 30 80 1b 00
        E 0 80 61 00
        E 0 80 55 00
        E 50 90 1a 60
        E 0 90 61 60
        E 30 80 1a 00
        E 0 80 61 00
        E 51 90 2f 60
        E 0 90 62 60
        E 0 90 6e 60
        E 30 80 2f 00
        E 0 80 62 00
        E 0 80 6e 00
        E 50 90 2e 60
        E 0 90 62 60
        E 0 90 56 60
        E 0 90 4a 60
        E 0 90 6e 60
        E 0 90 3e 60
        E 30 80 2e 00
        E 0 80 62 00
        E 0 80 56 00
        E 0 80 4a 00
        E 0 80 6e 00
        E 0 80 3e 00
        E 50 90 31 60
        E 0 90 63 60
        E 0 90 6f 60
        E 30 80 31 00
        E 0 80 63 00
        E 0 80 6f 00
        E 50 90 30 60
        E 0 90 63 60
        E 0 90 6f 60
        E 30 80 30 00
        E 0 80 63 00
        E 0 80 6f 00
        E 50 90 18 60
        E 0 90 24 60
        E 0 90 60 60
        E 0 90 64 60
        E 0 90 54 60
        E 0 90 58 60
        E 30 80 18 00
        E 0 80 24 00
        E 0 80 60 00
        E 0 80 64 00
        E 0 80 54 00
        E 0 80 58 00
        E 210 90 18 60
        E 0 90 24 60
        E 0 90 60 60
        E 0 90 64 60
        E 0 90 54 60
        E 0 90 58 60
        E 0 90 48 60
        E 0 90 4c 60
        E 0 90 40 60
        E 30 80 18 00
        E 0 80 24 00
        E 0 80 60 00
        E 0 80 64 00
        E 0 80 54 00
        E 0 80 58 00
        E 0 80 48 00
        E 0 80 4c 00
        E 0 80 40 00
        E 90 90 1a 60
        E 0 90 61 60
        E 30 80 1a 00
        E 0 80 61 00
        E 90 90 2a 60
        E 0 90 63 60
        E 0 90 57 60
        E 30 80 2a 00
        E 0 80 63 00
        E 0 80 57 00
        E 50 90 18 60
        E 0 90 60 60
        E 30 80 18 00
        E 0 80 60 00
        E 50 90 18 60
        E 0 90 60 60
        E 30 80 18 00
        E 0 80 60 00
        E 50 90 1a 60
        E 0 90 24 60
        E 0 90 61 60
        E 0 90 64 60
        E 0 90 55 60
        E 0 90 58 60
        E 0 90 49 60
        E 0 90 4c 60
        E 0 90 3d 60
        E 30 80 1a 00
        E 0 80 24 00
        E 0 80 61 00
        E 0 80 64 00
        E 0 80 55 00
        E 0 80 58 00
        E 0 80 49 00
        E 0 80 4c 00
        E 0 80 3d 00
        E 210 90 2a 60
        E 0 90 63 60
        E 0 90 57 60
        E 60 80 2a 00
        E 0 80 63 00
        E 0 80 57 00
        E 59 90 1a 60
        E 0 90 61 60
        E 30 80 1a 00
        E 0 80 61 00
        E 91 90 18 60
        E 0 90 24 60
        E 0 90 60 60
        E 0 90 64 60
        E 0 90 54 60
        E 0 90 58 60
        E 0 90 48 60
        E 0 90 4c 60
        E 0 90 40 60
        E 30 80 18 00
        E 0 80 24 00
        E 0 80 60 00
        E 0 80 64 00
        E 0 80 54 00
        E 0 80 58 00
        E 0 80 48 00
        E 0 80 4c 00
        E 0 80 40 00
        E 90 90 1a 60
        E 0 90 61 60
        E 30 80 1a 00
        E 0 80 61 00
        E 90 90 1b 60
        E 0 90 61 60
        E 0 90 55 60
        E 30 80 1b 00
        E 0 80 61 00
        E 0 80 55 00
        E 90 90 1a 60
        E 0 90 61 60
        E 30 80 1a 00
        E 0 80 61 00
        E 89 90 1b 60
        E 0 90 61 60
        E 0 90 55 60
        E 0 90 49 60
        E 0 90 3d 60
        E 30 80 1b 00
        E 0 80 61 00
        E 0 80 55 00
        E 0 80 49 00
        E 0 80 3d 00
        E 90 90 1a 60
        E 0 90 61 60
        E 30 80 1a 00
        E 0 80 61 00
        E 90 90 2f 60
        E 0 90 62 60
        E 0 90 56 60
        E 0 90 6e 60
        E 30 80 2f 00
        E 0 80 62 00
        E 0 80 56 00
        E 0 80 6e 00
        E 90 90 2e 60
        E 0 90 62 60
        E 0 90 6e 60
        E 30 80 2e 00
        E 0 80 62 00
        E 0 80 6e 00
        E 91 90 31 60
        E 0 90 63 60
        E 0 90 57 60
        E 0 90 4b 60
        E 0 90 6f 60
        E 0 90 3f 60
        E 30 80 31 00
        E 0 80 63 00
        E 0 80 57 00
        E 0 80 4b 00
        E 0 80 6f 00
        E 0 80 3f 00
        E 90 90 30 60
        E 0 90 63 60
        E 0 90 6f 60
        E 30 80 30 00
        E 0 80 63 00
        E 0 80 6f 00
        E 90 90 18 60
        E 0 90 24 60
        E 0 90 60 60
        E 0 90 64 60
        E 0 90 54 60
        E 0 90 58 60
        E 30 80 18 00
        E 0 80 24 00
        E 0 80 60 00
        E 0 80 64 00
        E 0 80 54 00
        E 0 80 58 00
        E 210 90 18 60
        E 0 90 24 60
        E 0 90 60 60
        E 0 90 64 60
        E 0 90 54 60
        E 0 90 58 60
        E 0 90 48 60
        E 0 90 4c 60
        E 0 90 40 60
        E 30 80 18 00
        E 0 80 24 00
        E 0 80 60 00
        E 0 80 64 00
        E 0 80 54 00
        E 0 80 58 00
        E 0 80 48 00
        E 0 80 4c 00
        E 0 80 40 00
        E 89 90 1a 60
        E 0 90 61 60
        E 30 80 1a 00
        E 0 80 61 00
        E 90 90 2a 60
        E 0 90 63 60
        E 0 90 57 60
        E 30 80 2a 00
        E 0 80 63 00
        E 0 80 57 00
        E 51 90 18 60
        E 0 90 60 60
        E 30 80 18 00
        E 0 80 60 00
        E 50 90 18 60
        E 0 90 60 60
        E 30 80 18 00
        E 0 80 60 00
        E 50 90 1a 60
        E 0 90 24 60
        E 0 90 61 60
        E 0 90 64 60
        E 0 90 55 60
        E 0 90 58 60
        E 0 90 49 60
        E 0 90 4c 60
        E 0 90 3d 60
        E 30 80 1a 00
        E 0 80 24 00
        E 0 80 61 00
        E 0 80 64 00
        E 0 80 55 00
        E 0 80 58 00
        E 0 80 49 00
        E 0 80 4c 00
        E 0 80 3d 00
        E 210 90 2a 60
        E 0 90 63 60
        E 0 90 57 60
        E 30 80 2a 00
        E 0 80 63 00
        E 0 80 57 00
        E 90 90 1a 60
        E 0 90 61 60
        E 30 80 1a 00
        E 0 80 61 00
        E 90 90 18 60
        E 0 90 24 60
        E 0 90 60 60
        E 0 90 64 60
        E 0 90 54 60
        E 0 90 58 60
        E 0 90 48 60
        E 0 90 4c 60
        E 0 90 40 60
        E 30 80 18 00
        E 0 80 24 00
        E 0 80 60 00
        E 0 80 64 00
        E 0 80 54 00
        E 0 80 58 00
        E 0 80 48 00
        E 0 80 4c 00
        E 0 80 40 00
        E 89 90 1a 60
        E 0 90 61 60
        E 30 80 1a 00
        E 0 80 61 00
        E 90 90 1b 60
        E 0 90 61 60
        E 0 90 55 60
        E 30 80 1b 00
        E 0 80 61 00
        E 0 80 55 00
        E 90 90 1a 60
        E 0 90 61 60
        E 30 80 1a 00
        E 0 80 61 00
        E 211 90 1a 60
        E 0 90 61 60
        E 30 80 1a 00
        E 0 80 61 00
        E 90 90 1b 60
        E 0 90 61 60
        E 0 90 55 60
        E 30 80 1b 00
        E 0 80 61 00
        E 0 80 55 00
        E 90 90 1a 60
        E 0 90 61 60
        E 30 80 1a 00
        E 0 80 61 00
        E 90 90 1b 60
        E 0 90 61 60
        E 0 90 55 60
        E 0 90 49 60
        E 0 90 3d 60
        E 30 80 1b 00
        E 0 80 61 00
        E 0 80 55 00
        E 0 80 49 00
        E 0 80 3d 00
        E 90 90 1a 60
        E 0 90 61 60
        E 30 80 1a 00
        E 0 80 61 00
        E 90 90 18 60
        E 0 90 24 60
        E 0 90 60 60
        E 0 90 64 60
        E 0 90 54 60
        E 0 90 58 60
        E 30 80 18 00
        E 0 80 24 00
        E 0 80 60 00
        E 0 80 64 00
        E 0 80 54 00
        E 0 80 58 00
        E 210 90 18 60
        E 0 90 2a 60
        E 0 90 60 60
        E 0 90 63 60
        E 0 90 54 60
        E 0 90 57 60
        E 0 90 48 60
        E 0 90 4b 60
        E 0 90 3f 60
        E 30 80 18 00
        E 0 80 2a 00
        E 0 80 60 00
        E 0 80 63 00
        E 0 80 54 00
        E 0 80 57 00
        E 0 80 48 00
        E 0 80 4b 00
        E 0 80 3f 00
        E 90 90 1a 60
        E 0 90 61 60
        E 30 80 1a 00
        E 0 80 61 00
        E 90 90 2a 60
        E 0 90 63 60
        E 0 90 57 60
        E 30 80 2a 00
        E 0 80 63 00
        E 0 80 57 00
        E 50 90 18 60
        E 0 90 60 60
        E 30 80 18 00
        E 0 80 60 00
        E 49 90 18 60
        E 0 90 60 60
        E 30 80 18 00
        E 0 80 60 00
        E 51 90 1a 60
        E 0 90 24 60
        E 0 90 61 60
        E 0 90 64 60
        E 0 90 55 60
        E 0 90 58 60
        E 0 90 49 60
        E 0 90 4c 60
        E 0 90 3d 60
        E 30 80 1a 00
        E 0 80 24 00
        E 0 80 61 00
        E 0 80 64 00
        E 0 80 55 00
        E 0 80 58 00
        E 0 80 49 00
        E 0 80 4c 00
        E 0 80 3d 00
        E 210 90 2a 60
        E 0 90 63 60
        E 0 90 57 60
        E 60 80 2a 00
        E 0 80 63 00
        E 0 80 57 00
        E 60 90 1a 60
        E 0 90 61 60
        E 30 80 1a 00
        E 0 80 61 00
        E 90 90 18 60
        E 0 90 24 60
        E 0 90 60 60
        E 0 90 64 60
        E 0 90 54 60
        E 0 90 58 60
        E 0 90 48 60
        E 0 90 4c 60
        E 0 90 40 60
        E 30 80 18 00
        E 0 80 24 00
        E 0 80 60 00
        E 0 80 64 00
        E 0 80 54 00
        E 0 80 58 00
        E 0 80 48 00
        E 0 80 4c 00
        E 0 80 40 00
        E 210 90 2f 60
        E 0 90 62 60
        E 0 90 56 60
        E 0 90 6e 60
        E 30 80 2f 00
        E 0 80 62 00
        E 0 80 56 00
        E 0 80 6e 00
        E 49 90 2e 60
        E 0 90 62 60
        E 0 90 6e 60
        E 30 80 2e 00
        E 0 80 62 00
        E 0 80 6e 00
        E 50 90 2f 60
        E 0 90 62 60
        E 0 90 6e 60
        E 30 80 2f 00
        E 0 80 62 00
        E 0 80 6e 00
        E 50 90 2e 60
        E 0 90 62 60
        E 0 90 56 60
        E 0 90 4a 60
        E 0 90 6e 60
        E 0 90 3e 60
        E 30 80 2e 00
        E 0 80 62 00
        E 0 80 56 00
        E 0 80 4a 00
        E 0 80 6e 00
        E 0 80 3e 00
        E 131 90 31 60
        E 0 90 63 60
        E 0 90 6f 60
        E 30 80 31 00
        E 0 80 63 00
        E 0 80 6f 00
        E 49 90 30 60
        E 0 90 63 60
        E 0 90 57 60
        E 0 90 6f 60
        E 30 80 30 00
        E 0 80 63 00
        E 0 80 57 00
        E 0 80 6f 00
        E 51 90 31 60
        E 0 90 63 60
        E 0 90 6f 60
        E 30 80 31 00
        E 0 80 63 00
        E 0 80 6f 00
        E 49 90 30 60
        E 0 90 63 60
        E 0 90 6f 60
        E 30 80 30 00
        E 0 80 63 00
        E 0 80 6f 00
        E 131 90 2a 60
        E 0 90 63 60
        E 80 80 2a 00
        E 0 80 63 00
        E 80 90 18 60
        E 0 90 22 60
        E 0 90 60 60
        E 0 90 64 60
        E 0 90 54 60
        E 0 90 58 60
        E 30 80 18 00
        E 0 80 22 00
        E 0 80 60 00
        E 0 80 64 00
        E 0 80 54 00
        E 0 80 58 00
        E 210 90 18 60
        E 0 90 2a 60
        E 0 90 60 60
        E 0 90 63 60
        E 0 90 54 60
        E 0 90 57 60
        E 0 90 48 60
        E 0 90 4b 60
        E 0 90 3f 60
        E 30 80 18 00
        E 0 80 2a 00
        E 0 80 60 00
        E 0 80 63 00
        E 0 80 54 00
        E 0 80 57 00
        E 0 80 48 00
        E 0 80 4b 00
        E 0 80 3f 00
        E 90 90 1a 60
        E 0 90 61 60
        E 30 80 1a 00
        E 0 80 61 00
        E 89 90 2a 60
        E 0 90 63 60
        E 0 90 57 60
        E 30 80 2a 00
        E 0 80 63 00
        E 0 80 57 00
        E 51 90 18 60
        E 0 90 60 60
        E 30 80 18 00
        E 0 80 60 00
        E 49 90 18 60
        E 0 90 60 60
        E 30 80 18 00
        E 0 80 60 00
        E 51 90 1a 60
        E 0 90 24 60
        E 0 90 61 60
        E 0 90 64 60
        E 0 90 55 60
        E 0 90 58 60
        E 0 90 49 60
        E 0 90 4c 60
        E 0 90 3d 60
        E 30 80 1a 00
        E 0 80 24 00
        E 0 80 61 00
        E 0 80 64 00
        E 0 80 55 00
        E 0 80 58 00
        E 0 80 49 00
        E 0 80 4c 00
        E 0 80 3d 00
        E 210 90 2a 60
        E 0 90 63 60
        E 0 90 57 60
        E 60 80 2a 00
        E 0 80 63 00
        E 0 80 57 00
        E 59 90 1a 60
        E 0 90 61 60
        E 30 80 1a 00
        E 0 80 61 00
        E 91 90 18 60
        E 0 90 24 60
        E 0 90 60 60
        E 0 90 64 60
        E 0 90 54 60
        E 0 90 58 60
        E 0 90 48 60
        E 0 90 4c 60
        E 0 90 40 60
        E 30 80 18 00
        E 0 80 24 00
        E 0 80 60 00
        E 0 80 64 00
        E 0 80 54 00
        E 0 80 58 00
        E 0 80 48 00
        E 0 80 4c 00
        E 0 80 40 00
        E 210 90 1b 60
        E 0 90 61 60
        E 0 90 55 60
        E 60 80 1b 00
        E 0 80 61 00
        E 0 80 55 00
        E 59 90 1a 60
        E 0 90 61 60
        E 30 80 1a 00
        E 0 80 61 00
        E 210 90 1a 60
        E 0 90 61 60
        E 30 80 1a 00
        E 0 80 61 00
        E 91 90 2f 60
        E 0 90 62 60
        E 0 90 56 60
        E 0 90 6e 60
        E 30 80 2f 00
        E 0 80 62 00
        E 0 80 56 00
        E 0 80 6e 00
        E 89 90 2e 60
        E 0 90 62 60
        E 0 90 6e 60
        E 30 80 2e 00
        E 0 80 62 00
        E 0 80 6e 00
        E 91 90 31 60
        E 0 90 63 60
        E 0 90 57 60
        E 0 90 4b 60
        E 0 90 6f 60
        E 0 90 3f 60
        E 30 80 31 00
        E 0 80 63 00
        E 0 80 57 00
        E 0 80 4b 00
        E 0 80 6f 00
        E 0 80 3f 00
        E 89 90 30 60
        E 0 90 63 60
        E 0 90 6f 60
        E 30 80 30 00
        E 0 80 63 00
        E 0 80 6f 00
        E 91 90 18 60
        E 0 90 24 60
        E 0 90 60 60
        E 0 90 64 60
        E 0 90 54 60
        E 0 90 58 60
        E 30 80 18 00
        E 0 80 24 00
        E 0 80 60 00
        E 0 80 64 00
        E 0 80 54 00
        E 0 80 58 00
        E 210 90 18 60
        E 0 90 24 60
        E 0 90 60 60
        E 0 90 64 60
        E 0 90 54 60
        E 0 90 58 60
        E 0 90 48 60
        E 0 90 4c 60
        E 0 90 40 60
        E 30 80 18 00
        E 0 80 24 00
        E 0 80 60 00
        E 0 80 64 00
        E 0 80 54 00
        E 0 80 58 00
        E 0 80 48 00
        E 0 80 4c 00
        E 0 80 40 00
        E 90 90 1a 60
        E 0 90 61 60
        E 30 80 1a 00
        E 0 80 61 00
        E 90 90 2a 60
        E 0 90 63 60
        E 0 90 57 60
        E 30 80 2a 00
        E 0 80 63 00
        E 0 80 57 00
        E 50 90 18 60
        E 0 90 60 60
        E 30 80 18 00
        E 0 80 60 00
        E 50 90 18 60
        E 0 90 60 60
        E 30 80 18 00
        E 0 80 60 00
        E 50 90 1a 60
        E 0 90 24 60
        E 0 90 61 60
        E 0 90 64 60
        E 0 90 55 60
        E 0 90 58 60
        E 0 90 49 60
        E 0 90 4c 60
        E 0 90 3d 60
        E 30 80 1a 00
        E 0 80 24 00
        E 0 80 61 00
        E 0 80 64 00
        E 0 80 55 00
        E 0 80 58 00
        E 0 80 49 00
        E 0 80 4c 00
        E 0 80 3d 00
        E 209 90 2a 60
        E 0 90 63 60
        E 0 90 57 60
        E 30 80 2a 00
        E 0 80 63 00
        E 0 80 57 00
        E 91 90 1a 60
        E 0 90 61 60
        E 30 80 1a 00
        E 0 80 61 00
        E 90 90 18 60
        E 0 90 24 60
        E 0 90 60 60
        E 0 90 64 60
        E 0 90 54 60
        E 0 90 58 60
        E 0 90 48 60
        E 0 90 4c 60
        E 0 90 40 60
        E 30 80 18 00
        E 0 80 24 00
        E 0 80 60 00
        E 0 80 64 00
        E 0 80 54 00
        E 0 80 58 00
        E 0 80 48 00
        E 0 80 4c 00
        E 0 80 40 00
        E 89 90 1a 60
        E 0 90 61 60
        E 30 80 1a 00
        E 0 80 61 00
        E 91 90 1b 60
        E 0 90 61 60
        E 0 90 55 60
        E 30 80 1b 00
        E 0 80 61 00
        E 0 80 55 00
        E 89 90 1a 60
        E 0 90 61 60
        E 30 80 1a 00
        E 0 80 61 00
        E 210 90 1a 60
        E 0 90 61 60
        E 30 80 1a 00
        E 0 80 61 00
        E 91 90 18 60
        E 0 90 24 60
        E 0 90 60 60
        E 0 90 64 60
        E 0 90 54 60
        E 0 90 58 60
        E 60 80 18 00
        E 0 80 24 00
        E 0 80 60 00
        E 0 80 64 00
        E 0 80 54 00
        E 0 80 58 00
        E 180 90 18 60
        E 0 90 24 60
        E 0 90 60 60
        E 0 90 64 60
        E 0 90 54 60
        E 0 90 58 60
        E 0 90 48 60
        E 0 90 4c 60
        E 0 90 40 60
        E 30 80 18 00
        E 0 80 24 00
        E 0 80 60 00
        E 0 80 64 00
        E 0 80 54 00
        E 0 80 58 00
        E 0 80 48 00
        E 0 80 4c 00
        E 0 80 40 00
        E 210 90 18 60
        E 0 90 24 60
        E 0 90 60 60
        E 0 90 64 60
        E 0 90 54 60
        E 0 90 58 60
        E 30 80 18 00
        E 0 80 24 00
        E 0 80 60 00
        E 0 80 64 00
        E 0 80 54 00
        E 0 80 58 00
        E 210 90 18 60
        E 0 90 24 60
        E 0 90 60 60
        E 0 90 64 60
        E 0 90 54 60
        E 0 90 58 60
        E 0 90 48 60
        E 0 90 4c 60
        E 0 90 40 60
        E 30 80 18 00
        E 0 80 24 00
        E 0 80 60 00
        E 0 80 64 00
        E 0 80 54 00
        E 0 80 58 00
        E 0 80 48 00
        E 0 80 4c 00
        E 0 80 40 00
        E 90 90 1a 60
        E 0 90 61 60
        E 30 80 1a 00
        E 0 80 61 00
        E 89 90 2a 60
        E 0 90 63 60
        E 0 90 57 60
        E 30 80 2a 00
        E 0 80 63 00
        E 0 80 57 00
        E 50 90 18 60
        E 0 90 60 60
        E 30 80 18 00
        E 0 80 60 00
        E 50 90 18 60
        E 0 90 60 60
        E 30 80 18 00
        E 0 80 60 00
        E 51 90 1a 60
        E 0 90 24 60
        E 0 90 61 60
        E 0 90 64 60
        E 0 90 55 60
        E 0 90 58 60
        E 0 90 49 60
        E 0 90 4c 60
        E 0 90 3d 60
        E 30 80 1a 00
        E 0 80 24 00
        E 0 80 61 00
        E 0 80 64 00
        E 0 80 55 00
        E 0 80 58 00
        E 0 80 49 00
        E 0 80 4c 00
        E 0 80 3d 00
        E 210 90 2a 60
        E 0 90 63 60
        E 0 90 57 60
        E 30 80 2a 00
        E 0 80 63 00
        E 0 80 57 00
        E 89 90 1a 60
        E 0 90 61 60
        E 30 80 1a 00
        E 0 80 61 00
        E 91 90 18 60
        E 0 90 24 60
        E 0 90 60 60
        E 0 90 64 60
        E 0 90 74 60
        E 0 90 54 60
        E 0 90 58 60
        E 0 90 48 60
        E 0 90 4c 60
        E 0 90 40 60
        E 30 80 18 00
        E 0 80 24 00
        E 0 80 60 00
        E 0 80 64 00
        E 0 80 54 00
        E 0 80 58 00
        E 0 80 48 00
        E 0 80 4c 00
        E 0 80 40 00
        E 209 90 1b 60
        E 0 90 61 60
        E 0 90 55 60
        E 30 80 1b 00
        E 0 80 61 00
        E 0 80 55 00
        E 50 90 1a 60
        E 0 90 61 60
        E 30 80 1a 00
        E 0 80 61 00
        E 50 90 1b 60
        E 0 90 61 60
        E 30 80 1b 00
        E 0 80 61 00
        E 50 90 1a 60
        E 0 90 61 60
        E 0 90 55 60
        E 0 90 49 60
        E 0 90 3d 60
        E 30 80 1a 00
        E 0 80 61 00
        E 0 80 55 00
        E 0 80 49 00
        E 0 80 3d 00
        E 90 90 1b 60
        E 0 90 61 60
        E 30 80 1b 00
        E 0 80 61 00
        E 91 90 2e 60
        E 0 90 62 60
        E 0 90 56 60
        E 0 90 6e 60
        E 30 80 2e 00
        E 0 80 62 00
        E 0 80 56 00
        E 0 80 6e 00
        E 89 90 1b 60
        E 0 90 61 60
        E 30 80 1b 00
        E 0 80 61 00
        E 91 90 1a 60
        E 0 90 61 60
        E 0 90 55 60
        E 0 90 49 60
        E 0 90 3d 60
        E 30 80 1a 00
        E 0 80 61 00
        E 0 80 55 00
        E 0 80 49 00
        E 0 80 3d 00
        E 89 90 1b 60
        E 0 90 61 60
        E 30 80 1b 00
        E 0 80 61 00
        E 91 90 18 60
        E 0 90 22 60
        E 0 90 60 60
        E 0 90 64 60
        E 0 90 54 60
        E 0 90 58 60
        E 30 80 18 00
        E 0 80 22 00
        E 0 80 60 00
        E 0 80 64 00
        E 0 80 54 00
        E 0 80 58 00
        E 210 90 18 60
        E 0 90 24 60
        E 0 90 60 60
        E 0 90 64 60
        E 0 90 54 60
        E 0 90 58 60
        E 0 90 48 60
        E 0 90 4c 60
        E 0 90 40 60
        E 30 80 18 00
        E 0 80 24 00
        E 0 80 60 00
        E 0 80 64 00
        E 0 80 54 00
        E 0 80 58 00
        E 0 80 48 00
        E 0 80 4c 00
        E 0 80 40 00
        E 90 90 1a 60
        E 0 90 61 60
        E 30 80 1a 00
        E 0 80 61 00
        E 90 90 2a 60
        E 0 90 63 60
        E 0 90 57 60
        E 30 80 2a 00
        E 0 80 63 00
        E 0 80 57 00
        E 50 90 18 60
        E 0 90 60 60
        E 30 80 18 00
        E 0 80 60 00
        E 50 90 18 60
        E 0 90 60 60
        E 30 80 18 00
        E 0 80 60 00
        E 50 80 74 00
        E 0 90 1a 60
        E 0 90 24 60
        E 0 90 61 60
        E 0 90 64 60
        E 0 90 55 60
        E 0 90 58 60
        E 0 90 49 60
        E 0 90 4c 60
        E 0 90 3d 60
        E 30 80 1a 00
        E 0 80 24 00
        E 0 80 61 00
        E 0 80 64 00
        E 0 80 55 00
        E 0 80 58 00
        E 0 80 49 00
        E 0 80 4c 00
        E 0 80 3d 00
        E 210 90 2a 60
        E 0 90 63 60
        E 0 90 57 60
        E 30 80 2a 00
        E 0 80 63 00
        E 0 80 57 00
        E 89 90 1a 60
        E 0 90 61 60
        E 30 80 1a 00
        E 0 80 61 00
        E 91 90 18 60
        E 0 90 24 60
        E 0 90 60 60
        E 0 90 64 60
        E 0 90 54 60
        E 0 90 58 60
        E 0 90 48 60
        E 0 90 4c 60
        E 0 90 40 60
        E 30 80 18 00
        E 0 80 24 00
        E 0 80 60 00
        E 0 80 64 00
        E 0 80 54 00
        E 0 80 58 00
        E 0 80 48 00
        E 0 80 4c 00
        E 0 80 40 00
        E 210 90 18 60
        E 0 90 24 60
        E 0 90 60 60
        E 0 90 64 60
        E 0 90 54 60
        E 0 90 58 60
        E 30 80 18 00
        E 0 80 24 00
        E 0 80 60 00
        E 0 80 64 00
        E 0 80 54 00
        E 0 80 58 00
        E 90 90 1a 60
        E 0 90 61 60
        E 30 80 1a 00
        E 0 80 61 00
        E 89 90 1b 60
        E 0 90 61 60
        E 0 90 55 60
        E 0 90 49 60
        E 0 90 3d 60
        E 30 80 1b 00
        E 0 80 61 00
        E 0 80 55 00
        E 0 80 49 00
        E 0 80 3d 00
        E 90 90 1a 60
        E 0 90 61 60
        E 30 80 1a 00
        E 0 80 61 00
        E 90 90 2f 60
        E 0 90 62 60
        E 0 90 56 60
        E 0 90 6e 60
        E 30 80 2f 00
        E 0 80 62 00
        E 0 80 56 00
        E 0 80 6e 00
        E 90 90 2e 60
        E 0 90 62 60
        E 0 90 6e 60
        E 30 80 2e 00
        E 0 80 62 00
        E 0 80 6e 00
        E 91 90 31 60
        E 0 90 63 60
        E 0 90 57 60
        E 0 90 4b 60
        E 0 90 6f 60
        E 0 90 3f 60
        E 30 80 31 00
        E 0 80 63 00
        E 0 80 57 00
        E 0 80 4b 00
        E 0 80 6f 00
        E 0 80 3f 00
        E 90 90 30 60
        E 0 90 63 60
        E 0 90 6f 60
        E 30 80 30 00
        E 0 80 63 00
        E 0 80 6f 00
        E 90 90 18 60
        E 0 90 24 60
        E 0 90 60 60
        E 0 90 64 60
        E 0 90 54 60
        E 0 90 58 60
        E 30 80 18 00
        E 0 80 24 00
        E 0 80 60 00
        E 0 80 64 00
        E 0 80 54 00
        E 0 80 58 00
        E 210 90 18 60
        E 0 90 2a 60
        E 0 90 60 60
        E 0 90 63 60
        E 0 90 54 60
        E 0 90 57 60
        E 0 90 48 60
        E 0 90 4b 60
        E 0 90 3f 60
        E 30 80 18 00
        E 0 80 2a 00
        E 0 80 60 00
        E 0 80 63 00
        E 0 80 54 00
        E 0 80 57 00
        E 0 80 48 00
        E 0 80 4b 00
        E 0 80 3f 00
        E 90 90 1a 60
        E 0 90 61 60
        E 30 80 1a 00
        E 0 80 61 00
        E 90 90 2a 60
        E 0 90 63 60
        E 0 90 57 60
        E 60 80 2a 00
        E 0 80 63 00
        E 0 80 57 00
        E 19 90 18 60
        E 0 90 60 60
        E 30 80 18 00
        E 0 80 60 00
        E 50 90 18 60
        E 0 90 60 60
        E 30 80 18 00
        E 0 80 60 00
        E 51 90 1a 60
        E 0 90 24 60
        E 0 90 61 60
        E 0 90 64 60
        E 0 90 55 60
        E 0 90 58 60
        E 0 90 49 60
        E 0 90 4c 60
        E 0 90 3d 60
        E 30 80 1a 00
        E 0 80 24 00
        E 0 80 61 00
        E 0 80 64 00
        E 0 80 55 00
        E 0 80 58 00
        E 0 80 49 00
        E 0 80 4c 00
        E 0 80 3d 00
        E 210 90 2a 60
        E 0 90 63 60
        E 0 90 57 60
        E 60 80 2a 00
        E 0 80 63 00
        E 0 80 57 00
        E 59 90 1a 60
        E 0 90 61 60
        E 30 80 1a 00
        E 0 80 61 00
        E 91 90 18 60
        E 0 90 24 60
        E 0 90 60 60
        E 0 90 64 60
        E 0 90 78 60
        E 0 90 79 60
        E 0 90 7a 60
        E 0 90 7b 60
        E 0 90 7c 60
        E 0 90 54 60
        E 0 90 58 60
        E 0 90 48 60
        E 0 90 4c 60
        E 0 90 40 60
        E 30 80 18 00
        E 0 80 24 00
        E 0 80 60 00
        E 0 80 64 00
        E 0 80 54 00
        E 0 80 58 00
        E 0 80 48 00
        E 0 80 4c 00
        E 0 80 40 00
        E 209 90 2f 60
        E 0 90 62 60
        E 0 90 56 60
        E 0 90 6e 60
        E 30 80 2f 00
        E 0 80 62 00
        E 0 80 56 00
        E 0 80 6e 00
        E 50 90 2e 60
        E 0 90 62 60
        E 0 90 6e 60
        E 30 80 2e 00
        E 0 80 62 00
        E 0 80 6e 00
        E 50 90 2f 60
        E 0 90 62 60
        E 0 90 6e 60
        E 30 80 2f 00
        E 0 80 62 00
        E 0 80 6e 00
        E 50 90 2e 60
        E 0 90 62 60
        E 0 90 56 60
        E 0 90 4a 60
        E 0 90 6e 60
        E 0 90 3e 60
        E 30 80 2e 00
        E 0 80 62 00
        E 0 80 56 00
        E 0 80 4a 00
        E 0 80 6e 00
        E 0 80 3e 00
        E 130 90 31 60
        E 0 90 63 60
        E 0 90 6f 60
        E 30 80 31 00
        E 0 80 63 00
        E 0 80 6f 00
        E 51 90 30 60
        E 0 90 63 60
        E 0 90 57 60
        E 0 90 6f 60
        E 30 80 30 00
        E 0 80 63 00
        E 0 80 57 00
        E 0 80 6f 00
        E 49 90 31 60
        E 0 90 63 60
        E 0 90 6f 60
        E 30 80 31 00
        E 0 80 63 00
        E 0 80 6f 00
        E 50 90 30 60
        E 0 90 63 60
        E 0 90 6f 60
        E 30 80 30 00
        E 0 80 63 00
        E 0 80 6f 00
        E 131 90 2a 60
        E 0 90 63 60
        E 80 80 2a 00
        E 0 80 63 00
        E 80 80 78 00
        E 0 80 79 00
        E 0 80 7a 00
        E 0 80 7b 00
        E 0 80 7c 00
        E 0 90 18 60
        E 0 90 22 60
        E 0 90 60 60
        E 0 90 64 60
        E 0 90 54 60
        E 0 90 58 60
        E 30 80 18 00
        E 0 80 22 00
        E 0 80 60 00
        E 0 80 64 00
        E 0 80 54 00
        E 0 80 58 00
        E 210 90 18 60
        E 0 90 2a 60
        E 0 90 60 60
        E 0 90 63 60
        E 0 90 54 60
        E 0 90 57 60
        E 0 90 48 60
        E 0 90 4b 60
        E 0 90 3f 60
        E 30 80 18 00
        E 0 80 2a 00
        E 0 80 60 00
        E 0 80 63 00
        E 0 80 54 00
        E 0 80 57 00
        E 0 80 48 00
        E 0 80 4b 00
        E 0 80 3f 00
        E 90 90 1a 60
        E 0 90 61 60
        E 30 80 1a 00
        E 0 80 61 00
        E 90 90 2a 60
        E 0 90 63 60
        E 0 90 57 60
        E 30 80 2a 00
        E 0 80 63 00
        E 0 80 57 00
        E 49 90 18 60
        E 0 90 60 60
        E 30 80 18 00
        E 0 80 60 00
        E 50 90 18 60
        E 0 90 60 60
        E 30 80 18 00
        E 0 80 60 00
        E 51 90 1a 60
        E 0 90 24 60
        E 0 90 61 60
        E 0 90 64 60
        E 0 90 55 60
        E 0 90 58 60
        E 0 90 49 60
        E 0 90 4c 60
        E 0 90 3d 60
        E 30 80 1a 00
        E 0 80 24 00
        E 0 80 61 00
        E 0 80 64 00
        E 0 80 55 00
        E 0 80 58 00
        E 0 80 49 00
        E 0 80 4c 00
        E 0 80 3d 00
        E 210 90 2a 60
        E 0 90 63 60
        E 0 90 57 60
        E 60 80 2a 00
        E 0 80 63 00
        E 0 80 57 00
        E 180 90 18 60
        E 0 90 24 60
        E 0 90 60 60
        E 0 90 64 60
        E 0 90 54 60
        E 0 90 58 60
        E 0 90 48 60
        E 0 90 4c 60
        E 0 90 40 60
        E 30 80 18 00
        E 0 80 24 00
        E 0 80 60 00
        E 0 80 64 00
        E 0 80 54 00
        E 0 80 58 00
        E 0 80 48 00
        E 0 80 4c 00
        E 0 80 40 00
        E 89 90 1a 60
        E 0 90 61 60
        E 30 80 1a 00
        E 0 80 61 00
        E 91 90 1b 60
        E 0 90 61 60
        E 0 90 55 60
        E 30 80 1b 00
        E 0 80 61 00
        E 0 80 55 00
        E 89 90 1a 60
        E 0 90 61 60
        E 30 80 1a 00
        E 0 80 61 00
        E 210 90 1a 60
        E 0 90 61 60
        E 30 80 1a 00
        E 0 80 61 00
        E 90 90 1b 60
        E 0 90 61 60
        E 0 90 55 60
        E 30 80 1b 00
        E 0 80 61 00
        E 0 80 55 00
        E 91 90 1a 60
        E 0 90 61 60
        E 30 80 1a 00
        E 0 80 61 00
        E 90 90 1b 60
        E 0 90 61 60
        E 0 90 55 60
        E 0 90 49 60
        E 0 90 3d 60
        E 30 80 1b 00
        E 0 80 61 00
        E 0 80 55 00
        E 0 80 49 00
        E 0 80 3d 00
        E 89 90 1a 60
        E 0 90 61 60
        E 30 80 1a 00
        E 0 80 61 00
        E 91 90 18 60
        E 0 90 24 60
        E 0 90 60 60
        E 0 90 64 60
        E 0 90 54 60
        E 0 90 58 60
        E 30 80 18 00
        E 0 80 24 00
        E 0 80 60 00
        E 0 80 64 00
        E 0 80 54 00
        E 0 80 58 00
        E 210 90 18 60
        E 0 90 2a 60
        E 0 90 60 60
        E 0 90 63 60
        E 0 90 54 60
        E 0 90 57 60
        E 0 90 48 60
        E 0 90 4b 60
        E 0 90 3f 60
        E 30 80 18 00
        E 0 80 2a 00
        E 0 80 60 00
        E 0 80 63 00
        E 0 80 54 00
        E 0 80 57 00
        E 0 80 48 00
        E 0 80 4b 00
        E 0 80 3f 00
        E 90 90 1a 60
        E 0 90 61 60
        E 30 80 1a 00
        E 0 80 61 00
        E 90 90 2a 60
        E 0 90 63 60
        E 0 90 57 60
        E 30 80 2a 00
        E 0 80 63 00
        E 0 80 57 00
        E 49 90 18 60
        E 0 90 60 60
        E 30 80 18 00
        E 0 80 60 00
        E 50 90 18 60
        E 0 90 60 60
        E 30 80 18 00
        E 0 80 60 00
        E 51 90 1a 60
        E 0 90 24 60
        E 0 90 61 60
        E 0 90 64 60
        E 0 90 55 60
        E 0 90 58 60
        E 0 90 49 60
        E 0 90 4c 60
        E 0 90 3d 60
        E 30 80 1a 00
        E 0 80 24 00
        E 0 80 61 00
        E 0 80 64 00
        E 0 80 55 00
        E 0 80 58 00
        E 0 80 49 00
        E 0 80 4c 00
        E 0 80 3d 00
        E 210 90 2a 60
        E 0 90 63 60
        E 0 90 57 60
        E 60 80 2a 00
        E 0 80 63 00
        E 0 80 57 00
        E 59 90 1a 60
        E 0 90 61 60
        E 30 80 1a 00
        E 0 80 61 00
        E 90 90 1b 60
        E 0 90 61 60
        E 0 90 55 60
        E 0 90 49 60
        E 0 90 3d 60
        E 30 80 1b 00
        E 0 80 61 00
        E 0 80 55 00
        E 0 80 49 00
        E 0 80 3d 00
        E 50 90 1a 60
        E 0 90 61 60
        E 30 80 1a 00
        E 0 80 61 00
        E 50 90 1b 60
        E 0 90 61 60
        E 30 80 1b 00
        E 0 80 61 00
        E 51 90 1a 60
        E 0 90 61 60
        E 0 90 55 60
        E 30 80 1a 00
        E 0 80 61 00
        E 0 80 55 00
        E 129 90 2f 60
        E 0 90 62 60
        E 0 90 6e 60
        E 30 80 2f 00
        E 0 80 62 00
        E 0 80 6e 00
        E 51 90 2e 60
        E 0 90 62 60
        E 0 90 56 60
        E 0 90 4a 60
        E 0 90 6e 60
        E 0 90 3e 60
        E 30 80 2e 00
        E 0 80 62 00
        E 0 80 56 00
        E 0 80 4a 00
        E 0 80 6e 00
        E 0 80 3e 00
        E 50 90 2f 60
        E 0 90 62 60
        E 0 90 6e 60
        E 30 80 2f 00
        E 0 80 62 00
        E 0 80 6e 00
        E 50 90 2e 60
        E 0 90 62 60
        E 0 90 6e 60
        E 30 80 2e 00
        E 0 80 62 00
        E 0 80 6e 00
        E 49 90 31 60
        E 0 90 63 60
        E 0 90 57 60
        E 0 90 6f 60
        E 30 80 31 00
        E 0 80 63 00
        E 0 80 57 00
        E 0 80 6f 00
        E 50 90 30 60
        E 0 90 63 60
        E 0 90 6f 60
        E 30 80 30 00
        E 0 80 63 00
        E 0 80 6f 00
        E 50 90 31 60
        E 0 90 63 60
        E 0 90 6f 60
        E 30 80 31 00
        E 0 80 63 00
        E 0 80 6f 00
        E 51 90 30 60
        E 0 90 63 60
        E 0 90 57 60
        E 0 90 4b 60
        E 0 90 6f 60
        E 0 90 3f 60
        E 30 80 30 00
        E 0 80 63 00
        E 0 80 57 00
        E 0 80 4b 00
        E 0 80 6f 00
        E 0 80 3f 00
        E 49 90 31 60
        E 0 90 63 60
        E 0 90 6f 60
        E 30 80 31 00
        E 0 80 63 00
        E 0 80 6f 00
        E 50 90 30 60
        E 0 90 63 60
        E 0 90 6f 60
        E 30 80 30 00
        E 0 80 63 00
        E 0 80 6f 00
        E 51 90 18 60
        E 0 90 24 60
        E 0 90 60 60
        E 0 90 64 60
        E 0 90 54 60
        E 0 90 58 60
        E 30 80 18 00
        E 0 80 24 00
        E 0 80 60 00
        E 0 80 64 00
        E 0 80 54 00
        E 0 80 58 00
        E 210 90 18 60
        E 0 90 2a 60
        E 0 90 60 60
        E 0 90 63 60
        E 0 90 54 60
        E 0 90 57 60
        E 0 90 48 60
        E 0 90 4b 60
        E 0 90 3f 60
        E 30 80 18 00
        E 0 80 2a 00
        E 0 80 60 00
        E 0 80 63 00
        E 0 80 54 00
        E 0 80 57 00
        E 0 80 48 00
        E 0 80 4b 00
        E 0 80 3f 00
        E 210 90 18 60
        E 0 90 24 60
        E 0 90 60 60
        E 0 90 64 60
        E 0 90 54 60
        E 0 90 58 60
        E 30 80 18 00
        E 0 80 24 00
        E 0 80 60 00
        E 0 80 64 00
        E 0 80 54 00
        E 0 80 58 00
        E 210 90 1a 60
        E 0 90 61 60
        E 0 90 55 60
        E 0 90 49 60
        E 0 90 3d 60
        E 30 80 1a 00
        E 0 80 61 00
        E 0 80 55 00
        E 0 80 49 00
        E 0 80 3d 00
        E 210 90 18 60
        E 0 90 24 60
        E 0 90 60 60
        E 0 90 64 60
        E 0 90 54 60
        E 0 90 58 60
        E 30 80 18 00
        E 0 80 24 00
        E 0 80 60 00
        E 0 80 64 00
        E 0 80 54 00
        E 0 80 58 00
        E 210 90 1b 60
        E 0 90 61 60
        E 0 90 55 60
        E 0 90 49 60
        E 0 90 3d 60
        E 30 80 1b 00
        E 0 80 61 00
        E 0 80 55 00
        E 0 80 49 00
        E 0 80 3d 00
        E 90 90 18 60
        E 0 90 22 60
        E 0 90 60 60
        E 0 90 64 60
        E 30 80 18 00
        E 0 80 22 00
        E 0 80 60 00
        E 0 80 64 00
        E 210 90 18 60
        E 0 90 60 60
        E 30 80 18 00
        E 0 80 60 00
        E 90 90 1a 60
        E 0 90 24 60
        E 0 90 61 60
        E 0 90 64 60
        E 0 90 55 60
        E 0 90 58 60
        E 0 90 49 60
        E 0 90 4c 60
        E 0 90 3d 60
        E 30 80 1a 00
        E 0 80 24 00
        E 0 80 61 00
        E 0 80 64 00
        E 0 80 55 00
        E 0 80 58 00
        E 0 80 49 00
        E 0 80 4c 00
        E 0 80 3d 00
        E 90 90 18 60
        E 0 90 60 60
        E 30 80 18 00
        E 0 80 60 00
        E 90 90 1b 60
        E 0 90 61 60
        E 0 90 55 60
        E 30 80 1b 00
        E 0 80 61 00
        E 0 80 55 00
        E 50 90 1a 60
        E 0 90 61 60
        E 30 80 1a 00
        E 0 80 61 00
        E 50 90 1b 60
        E 0 90 61 60
        E 30 80 1b 00
        E 0 80 61 00
        E 50 90 1a 60
        E 0 90 61 60
        E 0 90 55 60
        E 0 90 49 60
        E 0 90 3d 60
        E 30 80 1a 00
        E 0 80 61 00
        E 0 80 55 00
        E 0 80 49 00
        E 0 80 3d 00
        E 130 90 2f 60
        E 0 90 62 60
        E 0 90 6e 60
        E 30 80 2f 00
        E 0 80 62 00
        E 0 80 6e 00
        E 50 90 2e 60
        E 0 90 62 60
        E 0 90 56 60
        E 0 90 6e 60
        E 30 80 2e 00
        E 0 80 62 00
        E 0 80 56 00
        E 0 80 6e 00
        E 50 90 2f 60
        E 0 90 62 60
        E 0 90 6e 60
        E 30 80 2f 00
        E 0 80 62 00
        E 0 80 6e 00
        E 50 90 2e 60
        E 0 90 62 60
        E 0 90 6e 60
        E 30 80 2e 00
        E 0 80 62 00
        E 0 80 6e 00
        E 50 90 31 60
        E 0 90 63 60
        E 0 90 57 60
        E 0 90 4b 60
        E 0 90 6f 60
        E 0 90 3f 60
        E 30 80 31 00
        E 0 80 63 00
        E 0 80 57 00
        E 0 80 4b 00
        E 0 80 6f 00
        E 0 80 3f 00
        E 49 90 30 60
        E 0 90 63 60
        E 0 90 6f 60
        E 30 80 30 00
        E 0 80 63 00
        E 0 80 6f 00
        E 51 90 31 60
        E 0 90 63 60
        E 0 90 6f 60
        E 30 80 31 00
        E 0 80 63 00
        E 0 80 6f 00
        E 50 90 30 60
        E 0 90 63 60
        E 0 90 57 60
        E 0 90 6f 60
        E 30 80 30 00
        E 0 80 63 00
        E 0 80 57 00
        E 0 80 6f 00
        E 50 90 31 60
        E 0 90 63 60
        E 0 90 6f 60
        E 30 80 31 00
        E 0 80 63 00
        E 0 80 6f 00
        E 50 90 30 60
        E 0 90 63 60
        E 0 90 6f 60
        E 30 80 30 00
        E 0 80 63 00
        E 0 80 6f 00
        E 50 90 18 60
        E 0 90 24 60
        E 0 90 60 60
        E 0 90 64 60
        E 0 90 54 60
        E 0 90 58 60
        E 0 90 48 60
        E 0 90 4c 60
        E 0 90 40 60
        E 30 80 18 00
        E 0 80 24 00
        E 0 80 60 00
        E 0 80 64 00
        E 0 80 54 00
        E 0 80 58 00
        E 0 80 48 00
        E 0 80 4c 00
        E 0 80 40 00
        E 210 90 18 60
        E 0 90 2a 60
        E 0 90 60 60
        E 0 90 63 60
        E 0 90 54 60
        E 0 90 57 60
        E 30 80 18 00
        E 0 80 2a 00
        E 0 80 60 00
        E 0 80 63 00
        E 0 80 54 00
        E 0 80 57 00
        E 210 90 18 60
        E 0 90 24 60
        E 0 90 60 60
        E 0 90 64 60
        E 0 90 54 60
        E 0 90 58 60
        E 0 90 48 60
        E 0 90 4c 60
        E 0 90 40 60
        E 30 80 18 00
        E 0 80 24 00
        E 0 80 60 00
        E 0 80 64 00
        E 0 80 54 00
        E 0 80 58 00
        E 0 80 48 00
        E 0 80 4c 00
        E 0 80 40 00
        E 210 90 1a 60
        E 0 90 61 60
        E 0 90 55 60
        E 30 80 1a 00
        E 0 80 61 00
        E 0 80 55 00
        E 210 90 18 60
        E 0 90 24 60
        E 0 90 60 60
        E 0 90 64 60
        E 0 90 54 60
        E 0 90 58 60
        E 0 90 48 60
        E 0 90 4c 60
        E 0 90 40 60
        E 30 80 18 00
        E 0 80 24 00
        E 0 80 60 00
        E 0 80 64 00
        E 0 80 54 00
        E 0 80 58 00
        E 0 80 48 00
        E 0 80 4c 00
        E 0 80 40 00
        E 210 90 1b 60
        E 0 90 61 60
        E 0 90 55 60
        E 30 80 1b 00
        E 0 80 61 00
        E 0 80 55 00
        E 90 90 18 60
        E 0 90 22 60
        E 0 90 60 60
        E 0 90 64 60
        E 30 80 18 00
        E 0 80 22 00
        E 0 80 60 00
        E 0 80 64 00
        E 210 90 18 60
        E 0 90 60 60
        E 30 80 18 00
        E 0 80 60 00
        E 90 90 1a 60
        E 0 90 24 60
        E 0 90 61 60
        E 0 90 64 60
        E 0 90 55 60
        E 0 90 58 60
        E 30 80 1a 00
        E 0 80 24 00
        E 0 80 61 00
        E 0 80 64 00
        E 0 80 55 00
        E 0 80 58 00
        E 90 90 18 60
        E 0 90 60 60
        E 30 80 18 00
        E 0 80 60 00
        E 90 90 1b 60
        E 0 90 61 60
        E 0 90 55 60
        E 0 90 49 60
        E 0 90 3d 60
        E 30 80 1b 00
        E 0 80 61 00
        E 0 80 55 00
        E 0 80 49 00
        E 0 80 3d 00
        E 50 90 1a 60
        E 0 90 61 60
        E 30 80 1a 00
        E 0 80 61 00
        E 50 90 1b 60
        E 0 90 61 60
        E 30 80 1b 00
        E 0 80 61 00
        E 50 90 1a 60
        E 0 90 61 60
        E 0 90 55 60
        E 30 80 1a 00
        E 0 80 61 00
        E 0 80 55 00
        E 130 90 2f 60
        E 0 90 62 60
        E 0 90 6e 60
        E 30 80 2f 00
        E 0 80 62 00
        E 0 80 6e 00
        E 50 90 2e 60
        E 0 90 62 60
        E 0 90 56 60
        E 0 90 4a 60
        E 0 90 6e 60
        E 0 90 3e 60
        E 30 80 2e 00
        E 0 80 62 00
        E 0 80 56 00
        E 0 80 4a 00
        E 0 80 6e 00
        E 0 80 3e 00
        E 50 90 2f 60
        E 0 90 62 60
        E 0 90 6e 60
        E 30 80 2f 00
        E 0 80 62 00
        E 0 80 6e 00
        E 50 90 2e 60
        E 0 90 62 60
        E 0 90 6e 60
        E 30 80 2e 00
        E 0 80 62 00
        E 0 80 6e 00
        E 50 90 31 60
        E 0 90 63 60
        E 0 90 57 60
        E 0 90 6f 60
        E 30 80 31 00
        E 0 80 63 00
        E 0 80 57 00
        E 0 80 6f 00
        E 50 90 30 60
        E 0 90 63 60
        E 0 90 6f 60
        E 30 80 30 00
        E 0 80 63 00
        E 0 80 6f 00
        E 50 90 31 60
        E 0 90 63 60
        E 0 90 6f 60
        E 30 80 31 00
        E 0 80 63 00
        E 0 80 6f 00
        E 50 90 30 60
        E 0 90 63 60
        E 0 90 57 60
        E 0 90 4b 60
        E 0 90 6f 60
        E 0 90 3f 60
        E 30 80 30 00
        E 0 80 63 00
        E 0 80 57 00
        E 0 80 4b 00
        E 0 80 6f 00
        E 0 80 3f 00
        E 50 90 31 60
        E 0 90 63 60
        E 0 90 6f 60
        E 30 80 31 00
        E 0 80 63 00
        E 0 80 6f 00
        E 50 90 30 60
        E 0 90 63 60
        E 0 90 6f 60
        E 30 80 30 00
        E 0 80 63 00
        E 0 80 6f 00
        E 50 90 18 60
        E 0 90 24 60
        E 0 90 60 60
        E 0 90 64 60
        E 0 90 54 60
        E 0 90 58 60
        E 30 80 18 00
        E 0 80 24 00
        E 0 80 60 00
        E 0 80 64 00
        E 0 80 54 00
        E 0 80 58 00
        E 210 90 18 60
        E 0 90 2a 60
        E 0 90 60 60
        E 0 90 63 60
        E 0 90 54 60
        E 0 90 57 60
        E 0 90 48 60
        E 0 90 4b 60
        E 0 90 3f 60
        E 30 80 18 00
        E 0 80 2a 00
        E 0 80 60 00
        E 0 80 63 00
        E 0 80 54 00
        E 0 80 57 00
        E 0 80 48 00
        E 0 80 4b 00
        E 0 80 3f 00
        E 210 90 18 60
        E 0 90 24 60
        E 0 90 60 60
        E 0 90 64 60
        E 0 90 54 60
        E 0 90 58 60
        E 30 80 18 00
        E 0 80 24 00
        E 0 80 60 00
        E 0 80 64 00
        E 0 80 54 00
        E 0 80 58 00
        E 210 90 1a 60
        E 0 90 61 60
        E 0 90 55 60
        E 0 90 49 60
        E 0 90 3d 60
        E 30 80 1a 00
        E 0 80 61 00
        E 0 80 55 00
        E 0 80 49 00
        E 0 80 3d 00
        E 210 90 18 60
        E 0 90 24 60
        E 0 90 60 60
        E 0 90 64 60
        E 0 90 54 60
        E 0 90 58 60
        E 30 80 18 00
        E 0 80 24 00
        E 0 80 60 00
        E 0 80 64 00
        E 0 80 54 00
        E 0 80 58 00
        E 210 90 1b 60
        E 0 90 61 60
        E 0 90 55 60
        E 0 90 49 60
        E 0 90 3d 60
        E 30 80 1b 00
        E 0 80 61 00
        E 0 80 55 00
        E 0 80 49 00
        E 0 80 3d 00
        E 89 90 18 60
        E 0 90 22 60
        E 0 90 60 60
        E 0 90 64 60
        E 30 80 18 00
        E 0 80 22 00
        E 0 80 60 00
        E 0 80 64 00
        E 211 90 18 60
        E 0 90 60 60
        E 30 80 18 00
        E 0 80 60 00
        E 90 90 1a 60
        E 0 90 24 60
        E 0 90 61 60
        E 0 90 64 60
        E 0 90 55 60
        E 0 90 58 60
        E 0 90 49 60
        E 0 90 4c 60
        E 0 90 3d 60
        E 30 80 1a 00
        E 0 80 24 00
        E 0 80 61 00
        E 0 80 64 00
        E 0 80 55 00
        E 0 80 58 00
        E 0 80 49 00
        E 0 80 4c 00
        E 0 80 3d 00
        E 90 90 18 60
        E 0 90 60 60
        E 30 80 18 00
        E 0 80 60 00
        E 90 90 1b 60
        E 0 90 61 60
        E 0 90 55 60
        E 30 80 1b 00
        E 0 80 61 00
        E 0 80 55 00
        E 50 90 1a 60
        E 0 90 61 60
        E 30 80 1a 00
        E 0 80 61 00
        E 49 90 1b 60
        E 0 90 61 60
        E 30 80 1b 00
        E 0 80 61 00
        E 51 90 1a 60
        E 0 90 61 60
        E 0 90 55 60
        E 0 90 49 60
        E 0 90 3d 60
        E 30 80 1a 00
        E 0 80 61 00
        E 0 80 55 00
        E 0 80 49 00
        E 0 80 3d 00
        E 130 90 2f 60
        E 0 90 62 60
        E 0 90 6e 60
        E 30 80 2f 00
        E 0 80 62 00
        E 0 80 6e 00
        E 50 90 2e 60
        E 0 90 62 60
        E 0 90 56 60
        E 0 90 6e 60
        E 30 80 2e 00
        E 0 80 62 00
        E 0 80 56 00
        E 0 80 6e 00
        E 50 90 2f 60
        E 0 90 62 60
        E 0 90 6e 60
        E 30 80 2f 00
        E 0 80 62 00
        E 0 80 6e 00
        E 50 90 2e 60
        E 0 90 62 60
        E 0 90 6e 60
        E 30 80 2e 00
        E 0 80 62 00
        E 0 80 6e 00
        E 50 90 31 60
        E 0 90 63 60
        E 0 90 57 60
        E 0 90 4b 60
        E 0 90 6f 60
        E 0 90 3f 60
        E 30 80 31 00
        E 0 80 63 00
        E 0 80 57 00
        E 0 80 4b 00
        E 0 80 6f 00
        E 0 80 3f 00
        E 50 90 30 60
        E 0 90 63 60
        E 0 90 6f 60
        E 30 80 30 00
        E 0 80 63 00
        E 0 80 6f 00
        E 50 90 31 60
        E 0 90 63 60
        E 0 90 6f 60
        E 30 80 31 00
        E 0 80 63 00
        E 0 80 6f 00
        E 50 90 30 60
        E 0 90 63 60
        E 0 90 57 60
        E 0 90 6f 60
        E 30 80 30 00
        E 0 80 63 00
        E 0 80 57 00
        E 0 80 6f 00
        E 50 90 31 60
        E 0 90 63 60
        E 0 90 6f 60
        E 30 80 31 00
        E 0 80 63 00
        E 0 80 6f 00
        E 49 90 30 60
        E 0 90 63 60
        E 0 90 6f 60
        E 30 80 30 00
        E 0 80 63 00
        E 0 80 6f 00
        E 51 90 18 60
        E 0 90 24 60
        E 0 90 60 60
        E 0 90 64 60
        E 0 90 74 60
        E 0 90 54 60
        E 0 90 58 60
        E 0 90 48 60
        E 0 90 4c 60
        E 0 90 40 60
        E 30 80 18 00
        E 0 80 24 00
        E 0 80 60 00
        E 0 80 64 00
        E 0 80 54 00
        E 0 80 58 00
        E 0 80 48 00
        E 0 80 4c 00
        E 0 80 40 00
        E 210 90 18 60
        E 0 90 2a 60
        E 0 90 60 60
        E 0 90 63 60
        E 0 90 54 60
        E 0 90 57 60
        E 30 80 18 00
        E 0 80 2a 00
        E 0 80 60 00
        E 0 80 63 00
        E 0 80 54 00
        E 0 80 57 00
        E 210 90 18 60
        E 0 90 24 60
        E 0 90 60 60
        E 0 90 64 60
        E 0 90 54 60
        E 0 90 58 60
        E 0 90 48 60
        E 0 90 4c 60
        E 0 90 40 60
        E 30 80 18 00
        E 0 80 24 00
        E 0 80 60 00
        E 0 80 64 00
        E 0 80 54 00
        E 0 80 58 00
        E 0 80 48 00
        E 0 80 4c 00
        E 0 80 40 00
        E 209 90 1a 60
        E 0 90 61 60
        E 0 90 55 60
        E 30 80 1a 00
        E 0 80 61 00
        E 0 80 55 00
        E 211 90 18 60
        E 0 90 24 60
        E 0 90 60 60
        E 0 90 64 60
        E 0 90 54 60
        E 0 90 58 60
        E 0 90 48 60
        E 0 90 4c 60
        E 0 90 40 60
        E 30 80 18 00
        E 0 80 24 00
        E 0 80 60 00
        E 0 80 64 00
        E 0 80 54 00
        E 0 80 58 00
        E 0 80 48 00
        E 0 80 4c 00
        E 0 80 40 00
        E 210 90 1b 60
        E 0 90 61 60
        E 0 90 55 60
        E 30 80 1b 00
        E 0 80 61 00
        E 0 80 55 00
        E 89 90 18 60
        E 0 90 22 60
        E 0 90 60 60
        E 0 90 64 60
        E 30 80 18 00
        E 0 80 22 00
        E 0 80 60 00
        E 0 80 64 00
        E 210 90 18 60
        E 0 90 60 60
        E 30 80 18 00
        E 0 80 60 00
        E 91 90 1a 60
        E 0 90 24 60
        E 0 90 61 60
        E 0 90 64 60
        E 0 90 55 60
        E 0 90 58 60
        E 30 80 1a 00
        E 0 80 24 00
        E 0 80 61 00
        E 0 80 64 00
        E 0 80 55 00
        E 0 80 58 00
        E 210 80 74 00
        E 0 90 18 60
        E 0 90 24 60
        E 0 90 60 60
        E 0 90 64 60
        E 0 90 54 60
        E 0 90 58 60
        E 0 90 48 60
        E 0 90 4c 60
        E 0 90 40 60
        E 30 80 18 00
        E 0 80 24 00
        E 0 80 60 00
        E 0 80 64 00
        E 0 80 54 00
        E 0 80 58 00
        E 0 80 48 00
        E 0 80 4c 00
        E 0 80 40 00
        E 209 90 1a 60
        E 0 90 1f 60
        E 0 90 61 60
        E 0 90 62 60
        E 0 90 55 60
        E 0 90 56 60
        E 30 80 1a 00
        E 0 80 1f 00
        E 0 80 61 00
        E 0 80 62 00
        E 0 80 55 00
        E 0 80 56 00
        E 211 90 1f 60
        E 0 90 62 60
        E 0 90 56 60
        E 0 90 4a 60
        E 0 90 3e 60
        E 30 80 1f 00
        E 0 80 62 00
        E 0 80 56 00
        E 0 80 4a 00
        E 0 80 3e 00
        E 50 90 18 60
        E 0 90 60 60
        E 30 80 18 00
        E 0 80 60 00
        E 50 90 18 60
        E 0 90 60 60
        E 30 80 18 00
        E 0 80 60 00
        E 50 90 1a 60
        E 0 90 1f 60
        E 0 90 61 60
        E 0 90 62 60
        E 0 90 55 60
        E 0 90 56 60
        E 30 80 1a 00
        E 0 80 1f 00
        E 0 80 61 00
        E 0 80 62 00
        E 0 80 55 00
        E 0 80 56 00
        E 210 90 18 60
        E 0 90 1f 60
        E 0 90 60 60
        E 0 90 62 60
        E 0 90 54 60
        E 0 90 56 60
        E 0 90 48 60
        E 0 90 4a 60
        E 0 90 3e 60
        E 30 80 18 00
        E 0 80 1f 00
        E 0 80 60 00
        E 0 80 62 00
        E 0 80 54 00
        E 0 80 56 00
        E 0 80 48 00
        E 0 80 4a 00
        E 0 80 3e 00
        E 210 90 1a 60
        E 0 90 1f 60
        E 0 90 61 60
        E 0 90 62 60
        E 0 90 55 60
        E 0 90 56 60
        E 30 80 1a 00
        E 0 80 1f 00
        E 0 80 61 00
        E 0 80 62 00
        E 0 80 55 00
        E 0 80 56 00
        E 89 90 18 60
        E 0 90 60 60
        E 30 80 18 00
        E 0 80 60 00
        E 91 90 1f 60
        E 0 90 62 60
        E 0 90 56 60
        E 0 90 4a 60
        E 0 90 3e 60
        E 30 80 1f 00
        E 0 80 62 00
        E 0 80 56 00
        E 0 80 4a 00
        E 0 80 3e 00
        E 90 90 18 60
        E 0 90 60 60
        E 30 80 18 00
        E 0 80 60 00
        E 90 90 1a 60
        E 0 90 1f 60
        E 0 90 61 60
        E 0 90 62 60
        E 0 90 55 60
        E 0 90 56 60
        E 30 80 1a 00
        E 0 80 1f 00
        E 0 80 61 00
        E 0 80 62 00
        E 0 80 55 00
        E 0 80 56 00
        E 210 90 18 60
        E 0 90 1f 60
        E 0 90 60 60
        E 0 90 62 60
        E 0 90 54 60
        E 0 90 56 60
        E 0 90 48 60
        E 0 90 4a 60
        E 0 90 3e 60
        E 30 80 18 00
        E 0 80 1f 00
        E 0 80 60 00
        E 0 80 62 00
        E 0 80 54 00
        E 0 80 56 00
        E 0 80 48 00
        E 0 80 4a 00
        E 0 80 3e 00
        E 209 90 1a 60
        E 0 90 1f 60
        E 0 90 61 60
        E 0 90 62 60
        E 0 90 55 60
        E 0 90 56 60
        E 30 80 1a 00
        E 0 80 1f 00
        E 0 80 61 00
        E 0 80 62 00
        E 0 80 55 00
        E 0 80 56 00
        E 211 90 1f 60
        E 0 90 62 60
        E 0 90 56 60
        E 0 90 4a 60
        E 0 90 3e 60
        E 30 80 1f 00
        E 0 80 62 00
        E 0 80 56 00
        E 0 80 4a 00
        E 0 80 3e 00
        E 50 90 18 60
        E 0 90 60 60
        E 30 80 18 00
        E 0 80 60 00
        E 50 90 18 60
        E 0 90 60 60
        E 30 80 18 00
        E 0 80 60 00
        E 50 90 1a 60
        E 0 90 1f 60
        E 0 90 61 60
        E 0 90 62 60
        E 0 90 55 60
        E 0 90 56 60
        E 30 80 1a 00
        E 0 80 1f 00
        E 0 80 61 00
        E 0 80 62 00
        E 0 80 55 00
        E 0 80 56 00
        E 210 90 18 60
        E 0 90 1f 60
        E 0 90 60 60
        E 0 90 62 60
        E 0 90 78 60
        E 0 90 79 60
        E 0 90 7a 60
        E 0 90 7b 60
        E 0 90 7c 60
        E 0 90 54 60
        E 0 90 56 60
        E 0 90 48 60
        E 0 90 4a 60
        E 0 90 3e 60
        E 30 80 18 00
        E 0 80 1f 00
        E 0 80 60 00
        E 0 80 62 00
        E 0 80 54 00
        E 0 80 56 00
        E 0 80 48 00
        E 0 80 4a 00
        E 0 80 3e 00
        E 210 90 1a 60
        E 0 90 1f 60
        E 0 90 61 60
        E 0 90 62 60
        E 0 90 55 60
        E 0 90 56 60
        E 30 80 1a 00
        E 0 80 1f 00
        E 0 80 61 00
        E 0 80 62 00
        E 0 80 55 00
        E 0 80 56 00
        E 89 90 18 60
        E 0 90 60 60
        E 30 80 18 00
        E 0 80 60 00
        E 91 90 1f 60
        E 0 90 62 60
        E 0 90 56 60
        E 0 90 4a 60
        E 0 90 3e 60
        E 30 80 1f 00
        E 0 80 62 00
        E 0 80 56 00
        E 0 80 4a 00
        E 0 80 3e 00
        E 90 90 18 60
        E 0 90 60 60
        E 30 80 18 00
        E 0 80 60 00
        E 90 90 1b 60
        E 0 90 61 60
        E 0 90 55 60
        E 30 80 1b 00
        E 0 80 61 00
        E 0 80 55 00
        E 90 90 1a 60
        E 0 90 61 60
        E 30 80 1a 00
        E 0 80 61 00
        E 90 80 78 00
        E 0 80 79 00
        E 0 80 7a 00
        E 0 80 7b 00
        E 0 80 7c 00
        E 0 90 18 60
        E 0 90 24 60
        E 0 90 60 60
        E 0 90 64 60
        E 0 90 54 60
        E 0 90 58 60
        E 0 90 48 60
        E 0 90 4c 60
        E 0 90 40 60
        E 30 80 18 00
        E 0 80 24 00
        E 0 80 60 00
        E 0 80 64 00
        E 0 80 54 00
        E 0 80 58 00
        E 0 80 48 00
        E 0 80 4c 00
        E 0 80 40 00
        E 210 90 1a 60
        E 0 90 1f 60
        E 0 90 61 60
        E 0 90 62 60
        E 0 90 55 60
        E 0 90 56 60
        E 30 80 1a 00
        E 0 80 1f 00
        E 0 80 61 00
        E 0 80 62 00
        E 0 80 55 00
        E 0 80 56 00
        E 211 90 1f 60
        E 0 90 62 60
        E 0 90 56 60
        E 0 90 4a 60
        E 0 90 3e 60
        E 30 80 1f 00
        E 0 80 62 00
        E 0 80 56 00
        E 0 80 4a 00
        E 0 80 3e 00
        E 48 90 18 60
        E 0 90 60 60
        E 30 80 18 00
        E 0 80 60 00
        E 50 90 18 60
        E 0 90 60 60
        E 30 80 18 00
        E 0 80 60 00
        E 51 90 1a 60
        E 0 90 1f 60
        E 0 90 61 60
        E 0 90 62 60
        E 0 90 55 60
        E 0 90 56 60
        E 30 80 1a 00
        E 0 80 1f 00
        E 0 80 61 00
        E 0 80 62 00
        E 0 80 55 00
        E 0 80 56 00
        E 210 90 18 60
        E 0 90 1f 60
        E 0 90 60 60
        E 0 90 62 60
        E 0 90 54 60
        E 0 90 56 60
        E 0 90 48 60
        E 0 90 4a 60
        E 0 90 3e 60
        E 30 80 18 00
        E 0 80 1f 00
        E 0 80 60 00
        E 0 80 62 00
        E 0 80 54 00
        E 0 80 56 00
        E 0 80 48 00
        E 0 80 4a 00
        E 0 80 3e 00
        E 210 90 1a 60
        E 0 90 1f 60
        E 0 90 61 60
        E 0 90 62 60
        E 0 90 55 60
        E 0 90 56 60
        E 30 80 1a 00
        E 0 80 1f 00
        E 0 80 61 00
        E 0 80 62 00
        E 0 80 55 00
        E 0 80 56 00
        E 89 90 18 60
        E 0 90 60 60
        E 30 80 18 00
        E 0 80 60 00
        E 91 90 1f 60
        E 0 90 62 60
        E 0 90 56 60
        E 0 90 4a 60
        E 0 90 3e 60
        E 30 80 1f 00
        E 0 80 62 00
        E 0 80 56 00
        E 0 80 4a 00
        E 0 80 3e 00
        E 89 90 18 60
        E 0 90 60 60
        E 30 80 18 00
        E 0 80 60 00
        E 91 90 1a 60
        E 0 90 1f 60
        E 0 90 61 60
        E 0 90 62 60
        E 0 90 55 60
        E 0 90 56 60
        E 30 80 1a 00
        E 0 80 1f 00
        E 0 80 61 00
        E 0 80 62 00
        E 0 80 55 00
        E 0 80 56 00
        E 210 90 18 60
        E 0 90 1f 60
        E 0 90 60 60
        E 0 90 62 60
        E 0 90 54 60
        E 0 90 56 60
        E 0 90 48 60
        E 0 90 4a 60
        E 0 90 3e 60
        E 30 80 18 00
        E 0 80 1f 00
        E 0 80 60 00
        E 0 80 62 00
        E 0 80 54 00
        E 0 80 56 00
        E 0 80 48 00
        E 0 80 4a 00
        E 0 80 3e 00
        E 210 90 1a 60
        E 0 90 1f 60
        E 0 90 61 60
        E 0 90 62 60
        E 0 90 55 60
        E 0 90 56 60
        E 30 80 1a 00
        E 0 80 1f 00
        E 0 80 61 00
        E 0 80 62 00
        E 0 80 55 00
        E 0 80 56 00
        E 210 90 1f 60
        E 0 90 62 60
        E 0 90 56 60
        E 0 90 4a 60
        E 0 90 3e 60
        E 30 80 1f 00
        E 0 80 62 00
        E 0 80 56 00
        E 0 80 4a 00
        E 0 80 3e 00
        E 50 90 18 60
        E 0 90 60 60
        E 30 80 18 00
        E 0 80 60 00
        E 50 90 18 60
        E 0 90 60 60
        E 30 80 18 00
        E 0 80 60 00
        E 50 90 1a 60
        E 0 90 1f 60
        E 0 90 61 60
        E 0 90 62 60
        E 0 90 55 60
        E 0 90 56 60
        E 30 80 1a 00
        E 0 80 1f 00
        E 0 80 61 00
        E 0 80 62 00
        E 0 80 55 00
        E 0 80 56 00
        E 210 90 18 60
        E 0 90 1f 60
        E 0 90 60 60
        E 0 90 62 60
        E 0 90 54 60
        E 0 90 56 60
        E 0 90 48 60
        E 0 90 4a 60
        E 0 90 3e 60
        E 30 80 18 00
        E 0 80 1f 00
        E 0 80 60 00
        E 0 80 62 00
        E 0 80 54 00
        E 0 80 56 00
        E 0 80 48 00
        E 0 80 4a 00
        E 0 80 3e 00
        E 210 90 1a 60
        E 0 90 1f 60
        E 0 90 61 60
        E 0 90 62 60
        E 0 90 55 60
        E 0 90 56 60
        E 30 80 1a 00
        E 0 80 1f 00
        E 0 80 61 00
        E 0 80 62 00
        E 0 80 55 00
        E 0 80 56 00
        E 210 90 18 60
        E 0 90 1f 60
        E 0 90 60 60
        E 0 90 62 60
        E 0 90 54 60
        E 0 90 56 60
        E 0 90 48 60
        E 0 90 4a 60
        E 0 90 3e 60
        E 30 80 18 00
        E 0 80 1f 00
        E 0 80 60 00
        E 0 80 62 00
        E 0 80 54 00
        E 0 80 56 00
        E 0 80 48 00
        E 0 80 4a 00
        E 0 80 3e 00
        E 90 90 1a 60
        E 0 90 61 60
        E 30 80 1a 00
        E 0 80 61 00
        E 90 90 1b 60
        E 0 90 61 60
        E 0 90 55 60
        E 30 80 1b 00
        E 0 80 61 00
        E 0 80 55 00
        E 90 90 1a 60
        E 0 90 61 60
        E 30 80 1a 00
        E 0 80 61 00
        E 90 90 18 60
        E 0 90 24 60
        E 0 90 60 60
        E 0 90 64 60
        E 0 90 54 60
        E 0 90 58 60
        E 0 90 48 60
        E 0 90 4c 60
        E 0 90 40 60
        E 30 80 18 00
        E 0 80 24 00
        E 0 80 60 00
        E 0 80 64 00
        E 0 80 54 00
        E 0 80 58 00
        E 0 80 48 00
        E 0 80 4c 00
        E 0 80 40 00
        E 210 90 1a 60
        E 0 90 1f 60
        E 0 90 61 60
        E 0 90 62 60
        E 0 90 55 60
        E 0 90 56 60
        E 30 80 1a 00
        E 0 80 1f 00
        E 0 80 61 00
        E 0 80 62 00
        E 0 80 55 00
        E 0 80 56 00
        E 211 90 1f 60
        E 0 90 62 60
        E 0 90 56 60
        E 0 90 4a 60
        E 0 90 3e 60
        E 30 80 1f 00
        E 0 80 62 00
        E 0 80 56 00
        E 0 80 4a 00
        E 0 80 3e 00
        E 48 90 18 60
        E 0 90 60 60
        E 30 80 18 00
        E 0 80 60 00
        E 50 90 18 60
        E 0 90 60 60
        E 30 80 18 00
        E 0 80 60 00
        E 51 90 1a 60
        E 0 90 1f 60
        E 0 90 61 60
        E 0 90 62 60
        E 0 90 55 60
        E 0 90 56 60
        E 30 80 1a 00
        E 0 80 1f 00
        E 0 80 61 00
        E 0 80 62 00
        E 0 80 55 00
        E 0 80 56 00
        E 210 90 18 60
        E 0 90 1f 60
        E 0 90 60 60
        E 0 90 62 60
        E 0 90 54 60
        E 0 90 56 60
        E 0 90 48 60
        E 0 90 4a 60
        E 0 90 3e 60
        E 30 80 18 00
        E 0 80 1f 00
        E 0 80 60 00
        E 0 80 62 00
        E 0 80 54 00
        E 0 80 56 00
        E 0 80 48 00
        E 0 80 4a 00
        E 0 80 3e 00
        E 210 90 1a 60
        E 0 90 1f 60
        E 0 90 61 60
        E 0 90 62 60
        E 0 90 55 60
        E 0 90 56 60
        E 30 80 1a 00
        E 0 80 1f 00
        E 0 80 61 00
        E 0 80 62 00
        E 0 80 55 00
        E 0 80 56 00
        E 89 90 18 60
        E 0 90 60 60
        E 30 80 18 00
        E 0 80 60 00
        E 91 90 1f 60
        E 0 90 62 60
        E 0 90 56 60
        E 0 90 4a 60
        E 0 90 3e 60
        E 30 80 1f 00
        E 0 80 62 00
        E 0 80 56 00
        E 0 80 4a 00
        E 0 80 3e 00
        E 89 90 18 60
        E 0 90 60 60
        E 30 80 18 00
        E 0 80 60 00
        E 91 90 1a 60
        E 0 90 1f 60
        E 0 90 61 60
        E 0 90 62 60
        E 0 90 55 60
        E 0 90 56 60
        E 30 80 1a 00
        E 0 80 1f 00
        E 0 80 61 00
        E 0 80 62 00
        E 0 80 55 00
        E 0 80 56 00
        E 210 90 18 60
        E 0 90 1f 60
        E 0 90 60 60
        E 0 90 62 60
        E 0 90 54 60
        E 0 90 56 60
        E 0 90 48 60
        E 0 90 4a 60
        E 0 90 3e 60
        E 30 80 18 00
        E 0 80 1f 00
        E 0 80 60 00
        E 0 80 62 00
        E 0 80 54 00
        E 0 80 56 00
        E 0 80 48 00
        E 0 80 4a 00
        E 0 80 3e 00
        E 210 90 1a 60
        E 0 90 1f 60
        E 0 90 61 60
        E 0 90 62 60
        E 0 90 55 60
        E 0 90 56 60
        E 30 80 1a 00
        E 0 80 1f 00
        E 0 80 61 00
        E 0 80 62 00
        E 0 80 55 00
        E 0 80 56 00
        E 210 90 1f 60
        E 0 90 62 60
        E 0 90 56 60
        E 0 90 4a 60
        E 0 90 3e 60
        E 30 80 1f 00
        E 0 80 62 00
        E 0 80 56 00
        E 0 80 4a 00
        E 0 80 3e 00
        E 50 90 18 60
        E 0 90 60 60
        E 30 80 18 00
        E 0 80 60 00
        E 50 90 18 60
        E 0 90 60 60
        E 30 80 18 00
        E 0 80 60 00
        E 50 90 1a 60
        E 0 90 1f 60
        E 0 90 61 60
        E 0 90 62 60
        E 0 90 55 60
        E 0 90 56 60
        E 30 80 1a 00
        E 0 80 1f 00
        E 0 80 61 00
        E 0 80 62 00
        E 0 80 55 00
        E 0 80 56 00
        E 210 90 18 60
        E 0 90 1f 60
        E 0 90 60 60
        E 0 90 62 60
        E 0 90 54 60
        E 0 90 56 60
        E 0 90 48 60
        E 0 90 4a 60
        E 0 90 3e 60
        E 30 80 18 00
        E 0 80 1f 00
        E 0 80 60 00
        E 0 80 62 00
        E 0 80 54 00
        E 0 80 56 00
        E 0 80 48 00
        E 0 80 4a 00
        E 0 80 3e 00
        E 210 90 1a 60
        E 0 90 1f 60
        E 0 90 61 60
        E 0 90 62 60
        E 0 90 55 60
        E 0 90 56 60
        E 30 80 1a 00
        E 0 80 1f 00
        E 0 80 61 00
        E 0 80 62 00
        E 0 80 55 00
        E 0 80 56 00
        E 90 90 18 60
        E 0 90 60 60
        E 30 80 18 00
        E 0 80 60 00
        E 90 90 1f 60
        E 0 90 62 60
        E 0 90 56 60
        E 0 90 4a 60
        E 0 90 3e 60
        E 30 80 1f 00
        E 0 80 62 00
        E 0 80 56 00
        E 0 80 4a 00
        E 0 80 3e 00
        E 90 90 18 60
        E 0 90 60 60
        E 30 80 18 00
        E 0 80 60 00
        E 90 90 1b 60
        E 0 90 61 60
        E 0 90 55 60
        E 30 80 1b 00
        E 0 80 61 00
        E 0 80 55 00
        E 90 90 1a 60
        E 0 90 61 60
        E 30 80 1a 00
        E 0 80 61 00
        E 90 90 18 60
        E 0 90 24 60
        E 0 90 60 60
        E 0 90 64 60
        E 0 90 54 60
        E 0 90 58 60
        E 0 90 48 60
        E 0 90 4c 60
        E 0 90 40 60
        E 30 80 18 00
        E 0 80 24 00
        E 0 80 60 00
        E 0 80 64 00
        E 0 80 54 00
        E 0 80 58 00
        E 0 80 48 00
        E 0 80 4c 00
        E 0 80 40 00
        E 210 90 1a 60
        E 0 90 1f 60
        E 0 90 61 60
        E 0 90 62 60
        E 0 90 55 60
        E 0 90 56 60
        E 30 80 1a 00
        E 0 80 1f 00
        E 0 80 61 00
        E 0 80 62 00
        E 0 80 55 00
        E 0 80 56 00
        E 210 90 1f 60
        E 0 90 62 60
        E 0 90 56 60
        E 0 90 4a 60
        E 0 90 3e 60
        E 30 80 1f 00
        E 0 80 62 00
        E 0 80 56 00
        E 0 80 4a 00
        E 0 80 3e 00
        E 49 90 18 60
        E 0 90 60 60
        E 30 80 18 00
        E 0 80 60 00
        E 50 90 18 60
        E 0 90 60 60
        E 30 80 18 00
        E 0 80 60 00
        E 51 90 1a 60
        E 0 90 1f 60
        E 0 90 61 60
        E 0 90 62 60
        E 0 90 55 60
        E 0 90 56 60
        E 30 80 1a 00
        E 0 80 1f 00
        E 0 80 61 00
        E 0 80 62 00
        E 0 80 55 00
        E 0 80 56 00
        E 210 90 18 60
        E 0 90 1f 60
        E 0 90 60 60
        E 0 90 62 60
        E 0 90 54 60
        E 0 90 56 60
        E 0 90 48 60
        E 0 90 4a 60
        E 0 90 3e 60
        E 30 80 18 00
        E 0 80 1f 00
        E 0 80 60 00
        E 0 80 62 00
        E 0 80 54 00
        E 0 80 56 00
        E 0 80 48 00
        E 0 80 4a 00
        E 0 80 3e 00
        E 209 90 1a 60
        E 0 90 1f 60
        E 0 90 61 60
        E 0 90 62 60
        E 0 90 55 60
        E 0 90 56 60
        E 30 80 1a 00
        E 0 80 1f 00
        E 0 80 61 00
        E 0 80 62 00
        E 0 80 55 00
        E 0 80 56 00
        E 90 90 18 60
        E 0 90 60 60
        E 30 80 18 00
        E 0 80 60 00
        E 91 90 1f 60
        E 0 90 62 60
        E 0 90 56 60
        E 0 90 4a 60
        E 0 90 3e 60
        E 30 80 1f 00
        E 0 80 62 00
        E 0 80 56 00
        E 0 80 4a 00
        E 0 80 3e 00
        E 90 90 18 60
        E 0 90 60 60
        E 30 80 18 00
        E 0 80 60 00
        E 89 90 1a 60
        E 0 90 1f 60
        E 0 90 61 60
        E 0 90 62 60
        E 0 90 55 60
        E 0 90 56 60
        E 30 80 1a 00
        E 0 80 1f 00
        E 0 80 61 00
        E 0 80 62 00
        E 0 80 55 00
        E 0 80 56 00
        E 211 90 18 60
        E 0 90 1f 60
        E 0 90 60 60
        E 0 90 62 60
        E 0 90 54 60
        E 0 90 56 60
        E 0 90 48 60
        E 0 90 4a 60
        E 0 90 3e 60
        E 30 80 18 00
        E 0 80 1f 00
        E 0 80 60 00
        E 0 80 62 00
        E 0 80 54 00
        E 0 80 56 00
        E 0 80 48 00
        E 0 80 4a 00
        E 0 80 3e 00
        E 209 90 1a 60
        E 0 90 1f 60
        E 0 90 61 60
        E 0 90 62 60
        E 0 90 55 60
        E 0 90 56 60
        E 30 80 1a 00
        E 0 80 1f 00
        E 0 80 61 00
        E 0 80 62 00
        E 0 80 55 00
        E 0 80 56 00
        E 211 90 1f 60
        E 0 90 62 60
        E 0 90 56 60
        E 0 90 4a 60
        E 0 90 3e 60
        E 30 80 1f 00
        E 0 80 62 00
        E 0 80 56 00
        E 0 80 4a 00
        E 0 80 3e 00
        E 49 90 18 60
        E 0 90 60 60
        E 30 80 18 00
        E 0 80 60 00
        E 50 90 18 60
        E 0 90 60 60
        E 30 80 18 00
        E 0 80 60 00
        E 50 90 1a 60
        E 0 90 1f 60
        E 0 90 61 60
        E 0 90 62 60
        E 0 90 55 60
        E 0 90 56 60
        E 30 80 1a 00
        E 0 80 1f 00
        E 0 80 61 00
        E 0 80 62 00
        E 0 80 55 00
        E 0 80 56 00
        E 211 90 18 60
        E 0 90 1f 60
        E 0 90 60 60
        E 0 90 62 60
        E 0 90 54 60
        E 0 90 56 60
        E 0 90 48 60
        E 0 90 4a 60
        E 0 90 3e 60
        E 30 80 18 00
        E 0 80 1f 00
        E 0 80 60 00
        E 0 80 62 00
        E 0 80 54 00
        E 0 80 56 00
        E 0 80 48 00
        E 0 80 4a 00
        E 0 80 3e 00
        E 210 90 1a 60
        E 0 90 1f 60
        E 0 90 61 60
        E 0 90 62 60
        E 0 90 55 60
        E 0 90 56 60
        E 30 80 1a 00
        E 0 80 1f 00
        E 0 80 61 00
        E 0 80 62 00
        E 0 80 55 00
        E 0 80 56 00
        E 211 90 1b 60
        E 0 90 61 60
        E 0 90 55 60
        E 0 90 49 60
        E 0 90 3d 60
        E 30 80 1b 00
        E 0 80 61 00
        E 0 80 55 00
        E 0 80 49 00
        E 0 80 3d 00
        E 49 90 1a 60
        E 0 90 61 60
        E 30 80 1a 00
        E 0 80 61 00
        E 50 90 1b 60
        E 0 90 61 60
        E 30 80 1b 00
        E 0 80 61 00
        E 50 90 1a 60
        E 0 90 61 60
        E 0 90 55 60
        E 30 80 1a 00
        E 0 80 61 00
        E 0 80 55 00
        E 50 90 1b 60
        E 0 90 61 60
        E 30 80 1b 00
        E 0 80 61 00
        E 50 90 1a 60
        E 0 90 61 60
        E 30 80 1a 00
        E 0 80 61 00
        E 50 90 18 60
        E 0 90 24 60
        E 0 90 60 60
        E 0 90 64 60
        E 0 90 54 60
        E 0 90 58 60
        E 0 90 48 60
        E 0 90 4c 60
        E 0 90 40 60
        E 30 80 18 00
        E 0 80 24 00
        E 0 80 60 00
        E 0 80 64 00
        E 0 80 54 00
        E 0 80 58 00
        E 0 80 48 00
        E 0 80 4c 00
        E 0 80 40 00
        E 210 90 1b 60
        E 0 90 61 60
        E 0 90 55 60
        E 30 80 1b 00
        E 0 80 61 00
        E 0 80 55 00
        E 90 90 18 60
        E 0 90 22 60
        E 0 90 60 60
        E 0 90 64 60
        E 30 80 18 00
        E 0 80 22 00
        E 0 80 60 00
        E 0 80 64 00
        E 210 90 18 60
        E 0 90 60 60
        E 30 80 18 00
        E 0 80 60 00
        E 90 90 1a 60
        E 0 90 24 60
        E 0 90 61 60
        E 0 90 64 60
        E 0 90 55 60
        E 0 90 58 60
        E 30 80 1a 00
        E 0 80 24 00
        E 0 80 61 00
        E 0 80 64 00
        E 0 80 55 00
        E 0 80 58 00
        E 210 90 24 60
        E 0 90 64 60
        E 0 90 58 60
        E 0 90 4c 60
        E 0 90 40 60
        E 30 80 24 00
        E 0 80 64 00
        E 0 80 58 00
        E 0 80 4c 00
        E 0 80 40 00
        E 50 90 18 60
        E 0 90 60 60
        E 30 80 18 00
        E 0 80 60 00
        E 50 90 18 60
        E 0 90 60 60
        E 30 80 18 00
        E 0 80 60 00
        E 50 90 1a 60
        E 0 90 24 60
        E 0 90 61 60
        E 0 90 64 60
        E 0 90 55 60
        E 0 90 58 60
        E 30 80 1a 00
        E 0 80 24 00
        E 0 80 61 00
        E 0 80 64 00
        E 0 80 55 00
        E 0 80 58 00
        E 210 90 18 60
        E 0 90 24 60
        E 0 90 60 60
        E 0 90 64 60
        E 0 90 54 60
        E 0 90 58 60
        E 0 90 48 60
        E 0 90 4c 60
        E 0 90 40 60
        E 30 80 18 00
        E 0 80 24 00
        E 0 80 60 00
        E 0 80 64 00
        E 0 80 54 00
        E 0 80 58 00
        E 0 80 48 00
        E 0 80 4c 00
        E 0 80 40 00
        E 210 90 1a 60
        E 0 90 24 60
        E 0 90 61 60
        E 0 90 64 60
        E 0 90 55 60
        E 0 90 58 60
        E 30 80 1a 00
        E 0 80 24 00
        E 0 80 61 00
        E 0 80 64 00
        E 0 80 55 00
        E 0 80 58 00
        E 210 90 18 60
        E 0 90 24 60
        E 0 90 60 60
        E 0 90 64 60
        E 0 90 74 60
        E 0 90 54 60
        E 0 90 58 60
        E 0 90 48 60
        E 0 90 4c 60
        E 0 90 40 60
        E 30 80 18 00
        E 0 80 24 00
        E 0 80 60 00
        E 0 80 64 00
        E 0 80 54 00
        E 0 80 58 00
        E 0 80 48 00
        E 0 80 4c 00
        E 0 80 40 00
        E 210 90 1b 60
        E 0 90 61 60
        E 0 90 55 60
        E 30 80 1b 00
        E 0 80 61 00
        E 0 80 55 00
        E 89 90 18 60
        E 0 90 22 60
        E 0 90 60 60
        E 0 90 64 60
        E 30 80 18 00
        E 0 80 22 00
        E 0 80 60 00
        E 0 80 64 00
        E 210 90 18 60
        E 0 90 60 60
        E 30 80 18 00
        E 0 80 60 00
        E 91 90 1a 60
        E 0 90 24 60
        E 0 90 61 60
        E 0 90 64 60
        E 0 90 55 60
        E 0 90 58 60
        E 30 80 1a 00
        E 0 80 24 00
        E 0 80 61 00
        E 0 80 64 00
        E 0 80 55 00
        E 0 80 58 00
        E 210 90 24 60
        E 0 90 64 60
        E 0 90 58 60
        E 0 90 4c 60
        E 0 90 40 60
        E 30 80 24 00
        E 0 80 64 00
        E 0 80 58 00
        E 0 80 4c 00
        E 0 80 40 00
        E 50 90 18 60
        E 0 90 60 60
        E 30 80 18 00
        E 0 80 60 00
        E 50 90 18 60
        E 0 90 60 60
        E 30 80 18 00
        E 0 80 60 00
        E 50 90 1a 60
        E 0 90 24 60
        E 0 90 61 60
        E 0 90 64 60
        E 0 90 55 60
        E 0 90 58 60
        E 30 80 1a 00
        E 0 80 24 00
        E 0 80 61 00
        E 0 80 64 00
        E 0 80 55 00
        E 0 80 58 00
        E 210 90 18 60
        E 0 90 24 60
        E 0 90 60 60
        E 0 90 64 60
        E 0 90 54 60
        E 0 90 58 60
        E 0 90 48 60
        E 0 90 4c 60
        E 0 90 40 60
        E 30 80 18 00
        E 0 80 24 00
        E 0 80 60 00
        E 0 80 64 00
        E 0 80 54 00
        E 0 80 58 00
        E 0 80 48 00
        E 0 80 4c 00
        E 0 80 40 00
        E 90 90 1a 60
        E 0 90 61 60
        E 30 80 1a 00
        E 0 80 61 00
        E 90 90 1b 60
        E 0 90 61 60
        E 0 90 55 60
        E 30 80 1b 00
        E 0 80 61 00
        E 0 80 55 00
        E 90 90 1a 60
        E 0 90 61 60
        E 30 80 1a 00
        E 0 80 61 00
        E 90 80 74 00
        E 0 90 18 60
        E 0 90 24 60
        E 0 90 60 60
        E 0 90 64 60
        E 0 90 54 60
        E 0 90 58 60
        E 0 90 48 60
        E 0 90 4c 60
        E 0 90 40 60
        E 30 80 18 00
        E 0 80 24 00
        E 0 80 60 00
        E 0 80 64 00
        E 0 80 54 00
        E 0 80 58 00
        E 0 80 48 00
        E 0 80 4c 00
        E 0 80 40 00
        E 210 90 1b 60
        E 0 90 61 60
        E 0 90 55 60
        E 30 80 1b 00
        E 0 80 61 00
        E 0 80 55 00
        E 90 90 18 60
        E 0 90 22 60
        E 0 90 60 60
        E 0 90 64 60
        E 30 80 18 00
        E 0 80 22 00
        E 0 80 60 00
        E 0 80 64 00
        E 210 90 18 60
        E 0 90 60 60
        E 30 80 18 00
        E 0 80 60 00
        E 90 90 1a 60
        E 0 90 24 60
        E 0 90 61 60
        E 0 90 64 60
        E 0 90 55 60
        E 0 90 58 60
        E 30 80 1a 00
        E 0 80 24 00
        E 0 80 61 00
        E 0 80 64 00
        E 0 80 55 00
        E 0 80 58 00
        E 210 90 24 60
        E 0 90 64 60
        E 0 90 58 60
        E 0 90 4c 60
        E 0 90 40 60
        E 30 80 24 00
        E 0 80 64 00
        E 0 80 58 00
        E 0 80 4c 00
        E 0 80 40 00
        E 49 90 18 60
        E 0 90 60 60
        E 30 80 18 00
        E 0 80 60 00
        E 50 90 18 60
        E 0 90 60 60
        E 30 80 18 00
        E 0 80 60 00
        E 50 90 1a 60
        E 0 90 24 60
        E 0 90 61 60
        E 0 90 64 60
        E 0 90 55 60
        E 0 90 58 60
        E 30 80 1a 00
        E 0 80 24 00
        E 0 80 61 00
        E 0 80 64 00
        E 0 80 55 00
        E 0 80 58 00
        E 211 90 18 60
        E 0 90 24 60
        E 0 90 60 60
        E 0 90 64 60
        E 0 90 54 60
        E 0 90 58 60
        E 0 90 48 60
        E 0 90 4c 60
        E 0 90 40 60
        E 30 80 18 00
        E 0 80 24 00
        E 0 80 60 00
        E 0 80 64 00
        E 0 80 54 00
        E 0 80 58 00
        E 0 80 48 00
        E 0 80 4c 00
        E 0 80 40 00
        E 210 90 1a 60
        E 0 90 24 60
        E 0 90 61 60
        E 0 90 64 60
        E 0 90 55 60
        E 0 90 58 60
        E 30 80 1a 00
        E 0 80 24 00
        E 0 80 61 00
        E 0 80 64 00
        E 0 80 55 00
        E 0 80 58 00
        E 210 90 18 60
        E 0 90 24 60
        E 0 90 60 60
        E 0 90 64 60
        E 0 90 78 60
        E 0 90 79 60
        E 0 90 7a 60
        E 0 90 7b 60
        E 0 90 7c 60
        E 0 90 54 60
        E 0 90 58 60
        E 0 90 48 60
        E 0 90 4c 60
        E 0 90 40 60
        E 30 80 18 00
        E 0 80 24 00
        E 0 80 60 00
        E 0 80 64 00
        E 0 80 54 00
        E 0 80 58 00
        E 0 80 48 00
        E 0 80 4c 00
        E 0 80 40 00
        E 210 90 18 60
        E 0 90 1b 60
        E 0 90 60 60
        E 0 90 61 60
        E 0 90 54 60
        E 0 90 55 60
        E 30 80 18 00
        E 0 80 1b 00
        E 0 80 60 00
        E 0 80 61 00
        E 0 80 54 00
        E 0 80 55 00
        E 90 90 1a 60
        E 0 90 61 60
        E 30 80 1a 00
        E 0 80 61 00
        E 90 90 18 60
        E 0 90 1b 60
        E 0 90 60 60
        E 0 90 61 60
        E 0 90 54 60
        E 0 90 55 60
        E 0 90 49 60
        E 0 90 3d 60
        E 30 80 18 00
        E 0 80 1b 00
        E 0 80 60 00
        E 0 80 61 00
        E 0 80 54 00
        E 0 80 55 00
        E 0 80 49 00
        E 0 80 3d 00
        E 89 90 1a 60
        E 0 90 61 60
        E 30 80 1a 00
        E 0 80 61 00
        E 90 90 18 60
        E 0 90 1b 60
        E 0 90 60 60
        E 0 90 61 60
        E 0 90 54 60
        E 0 90 55 60
        E 30 80 18 00
        E 0 80 1b 00
        E 0 80 60 00
        E 0 80 61 00
        E 0 80 54 00
        E 0 80 55 00
        E 91 90 1a 60
        E 0 90 61 60
        E 30 80 1a 00
        E 0 80 61 00
        E 90 90 18 60
        E 0 90 1b 60
        E 0 90 60 60
        E 0 90 61 60
        E 0 90 54 60
        E 0 90 55 60
        E 0 90 49 60
        E 0 90 3d 60
        E 30 80 18 00
        E 0 80 1b 00
        E 0 80 60 00
        E 0 80 61 00
        E 0 80 54 00
        E 0 80 55 00
        E 0 80 49 00
        E 0 80 3d 00
        E 89 90 1a 60
        E 0 90 61 60
        E 30 80 1a 00
        E 0 80 61 00
        E 90 90 18 60
        E 0 90 1b 60
        E 0 90 60 60
        E 0 90 61 60
        E 0 90 54 60
        E 0 90 55 60
        E 30 80 18 00
        E 0 80 1b 00
        E 0 80 60 00
        E 0 80 61 00
        E 0 80 54 00
        E 0 80 55 00
        E 90 90 1a 60
        E 0 90 61 60
        E 30 80 1a 00
        E 0 80 61 00
        E 91 90 18 60
        E 0 90 1b 60
        E 0 90 60 60
        E 0 90 61 60
        E 0 90 54 60
        E 0 90 55 60
        E 0 90 49 60
        E 0 90 3d 60
        E 30 80 18 00
        E 0 80 1b 00
        E 0 80 60 00
        E 0 80 61 00
        E 0 80 54 00
        E 0 80 55 00
        E 0 80 49 00
        E 0 80 3d 00
        E 90 90 1a 60
        E 0 90 61 60
        E 30 80 1a 00
        E 0 80 61 00
        E 90 90 18 60
        E 0 90 1b 60
        E 0 90 60 60
        E 0 90 61 60
        E 0 90 54 60
        E 0 90 55 60
        E 30 80 18 00
        E 0 80 1b 00
        E 0 80 60 00
        E 0 80 61 00
        E 0 80 54 00
        E 0 80 55 00
        E 90 90 1a 60
        E 0 90 61 60
        E 30 80 1a 00
        E 0 80 61 00
        E 90 80 78 00
        E 0 80 79 00
        E 0 80 7a 00
        E 0 80 7b 00
        E 0 80 7c 00
        E 0 90 18 60
        E 0 90 24 60
        E 0 90 60 60
        E 0 90 64 60
        E 0 90 54 60
        E 0 90 58 60
        E 0 90 48 60
        E 0 90 4c 60
        E 0 90 40 60
        E 30 80 18 00
        E 0 80 24 00
        E 0 80 60 00
        E 0 80 64 00
        E 0 80 54 00
        E 0 80 58 00
        E 0 80 48 00
        E 0 80 4c 00
        E 0 80 40 00
        E 210 90 1a 60
        E 0 90 1f 60
        E 0 90 61 60
        E 0 90 62 60
        E 0 90 55 60
        E 0 90 56 60
        E 30 80 1a 00
        E 0 80 1f 00
        E 0 80 61 00
        E 0 80 62 00
        E 0 80 55 00
        E 0 80 56 00
        E 210 90 1f 60
        E 0 90 62 60
        E 0 90 56 60
        E 0 90 4a 60
        E 0 90 3e 60
        E 30 80 1f 00
        E 0 80 62 00
        E 0 80 56 00
        E 0 80 4a 00
        E 0 80 3e 00
        E 49 90 18 60
        E 0 90 60 60
        E 30 80 18 00
        E 0 80 60 00
        E 50 90 18 60
        E 0 90 60 60
        E 30 80 18 00
        E 0 80 60 00
        E 51 90 1a 60
        E 0 90 1f 60
        E 0 90 61 60
        E 0 90 62 60
        E 0 90 55 60
        E 0 90 56 60
        E 30 80 1a 00
        E 0 80 1f 00
        E 0 80 61 00
        E 0 80 62 00
        E 0 80 55 00
        E 0 80 56 00
        E 210 90 18 60
        E 0 90 1f 60
        E 0 90 60 60
        E 0 90 62 60
        E 0 90 54 60
        E 0 90 56 60
        E 0 90 48 60
        E 0 90 4a 60
        E 0 90 3e 60
        E 30 80 18 00
        E 0 80 1f 00
        E 0 80 60 00
        E 0 80 62 00
        E 0 80 54 00
        E 0 80 56 00
        E 0 80 48 00
        E 0 80 4a 00
        E 0 80 3e 00
        E 209 90 1a 60
        E 0 90 1f 60
        E 0 90 61 60
        E 0 90 62 60
        E 0 90 55 60
        E 0 90 56 60
        E 30 80 1a 00
        E 0 80 1f 00
        E 0 80 61 00
        E 0 80 62 00
        E 0 80 55 00
        E 0 80 56 00
        E 90 90 18 60
        E 0 90 60 60
        E 30 80 18 00
        E 0 80 60 00
        E 91 90 1f 60
        E 0 90 62 60
        E 0 90 56 60
        E 0 90 4a 60
        E 0 90 3e 60
        E 30 80 1f 00
        E 0 80 62 00
        E 0 80 56 00
        E 0 80 4a 00
        E 0 80 3e 00
        E 90 90 18 60
        E 0 90 60 60
        E 30 80 18 00
        E 0 80 60 00
        E 90 90 1a 60
        E 0 90 1f 60
        E 0 90 61 60
        E 0 90 62 60
        E 0 90 55 60
        E 0 90 56 60
        E 30 80 1a 00
        E 0 80 1f 00
        E 0 80 61 00
        E 0 80 62 00
        E 0 80 55 00
        E 0 80 56 00
        E 210 90 18 60
        E 0 90 1f 60
        E 0 90 60 60
        E 0 90 62 60
        E 0 90 54 60
        E 0 90 56 60
        E 0 90 48 60
        E 0 90 4a 60
        E 0 90 3e 60
        E 30 80 18 00
        E 0 80 1f 00
        E 0 80 60 00
        E 0 80 62 00
        E 0 80 54 00
        E 0 80 56 00
        E 0 80 48 00
        E 0 80 4a 00
        E 0 80 3e 00
        E 210 90 1a 60
        E 0 90 1f 60
        E 0 90 61 60
        E 0 90 62 60
        E 0 90 55 60
        E 0 90 56 60
        E 30 80 1a 00
        E 0 80 1f 00
        E 0 80 61 00
        E 0 80 62 00
        E 0 80 55 00
        E 0 80 56 00
        E 211 90 1f 60
        E 0 90 62 60
        E 0 90 56 60
        E 0 90 4a 60
        E 0 90 3e 60
        E 30 80 1f 00
        E 0 80 62 00
        E 0 80 56 00
        E 0 80 4a 00
        E 0 80 3e 00
        E 49 90 18 60
        E 0 90 60 60
        E 30 80 18 00
        E 0 80 60 00
        E 50 90 18 60
        E 0 90 60 60
        E 30 80 18 00
        E 0 80 60 00
        E 50 90 1a 60
        E 0 90 1f 60
        E 0 90 61 60
        E 0 90 62 60
        E 0 90 55 60
        E 0 90 56 60
        E 30 80 1a 00
        E 0 80 1f 00
        E 0 80 61 00
        E 0 80 62 00
        E 0 80 55 00
        E 0 80 56 00
        E 210 90 18 60
        E 0 90 1f 60
        E 0 90 60 60
        E 0 90 62 60
        E 0 90 54 60
        E 0 90 56 60
        E 0 90 48 60
        E 0 90 4a 60
        E 0 90 3e 60
        E 30 80 18 00
        E 0 80 1f 00
        E 0 80 60 00
        E 0 80 62 00
        E 0 80 54 00
        E 0 80 56 00
        E 0 80 48 00
        E 0 80 4a 00
        E 0 80 3e 00
        E 210 90 1a 60
        E 0 90 1f 60
        E 0 90 61 60
        E 0 90 62 60
        E 0 90 55 60
        E 0 90 56 60
        E 30 80 1a 00
        E 0 80 1f 00
        E 0 80 61 00
        E 0 80 62 00
        E 0 80 55 00
        E 0 80 56 00
        E 90 90 18 60
        E 0 90 60 60
        E 30 80 18 00
        E 0 80 60 00
        E 90 90 1f 60
        E 0 90 62 60
        E 0 90 56 60
        E 0 90 4a 60
        E 0 90 3e 60
        E 30 80 1f 00
        E 0 80 62 00
        E 0 80 56 00
        E 0 80 4a 00
        E 0 80 3e 00
        E 90 90 18 60
        E 0 90 60 60
        E 30 80 18 00
        E 0 80 60 00
        E 90 90 1b 60
        E 0 90 61 60
        E 0 90 55 60
        E 30 80 1b 00
        E 0 80 61 00
        E 0 80 55 00
        E 89 90 1a 60
        E 0 90 61 60
        E 30 80 1a 00
        E 0 80 61 00
        E 91 90 18 60
        E 0 90 24 60
        E 0 90 60 60
        E 0 90 64 60
        E 0 90 54 60
        E 0 90 58 60
        E 0 90 48 60
        E 0 90 4c 60
        E 0 90 40 60
        E 30 80 18 00
        E 0 80 24 00
        E 0 80 60 00
        E 0 80 64 00
        E 0 80 54 00
        E 0 80 58 00
        E 0 80 48 00
        E 0 80 4c 00
        E 0 80 40 00
        E 210 90 1a 60
        E 0 90 1f 60
        E 0 90 61 60
        E 0 90 62 60
        E 0 90 55 60
        E 0 90 56 60
        E 30 80 1a 00
        E 0 80 1f 00
        E 0 80 61 00
        E 0 80 62 00
        E 0 80 55 00
        E 0 80 56 00
        E 210 90 1f 60
        E 0 90 62 60
        E 0 90 56 60
        E 0 90 4a 60
        E 0 90 3e 60
        E 30 80 1f 00
        E 0 80 62 00
        E 0 80 56 00
        E 0 80 4a 00
        E 0 80 3e 00
        E 50 90 18 60
        E 0 90 60 60
        E 30 80 18 00
        E 0 80 60 00
        E 50 90 18 60
        E 0 90 60 60
        E 30 80 18 00
        E 0 80 60 00
        E 50 90 1a 60
        E 0 90 1f 60
        E 0 90 61 60
        E 0 90 62 60
        E 0 90 55 60
        E 0 90 56 60
        E 30 80 1a 00
        E 0 80 1f 00
        E 0 80 61 00
        E 0 80 62 00
        E 0 80 55 00
        E 0 80 56 00
        E 210 90 18 60
        E 0 90 1f 60
        E 0 90 60 60
        E 0 90 62 60
        E 0 90 54 60
        E 0 90 56 60
        E 0 90 48 60
        E 0 90 4a 60
        E 0 90 3e 60
        E 30 80 18 00
        E 0 80 1f 00
        E 0 80 60 00
        E 0 80 62 00
        E 0 80 54 00
        E 0 80 56 00
        E 0 80 48 00
        E 0 80 4a 00
        E 0 80 3e 00
        E 210 90 1a 60
        E 0 90 1f 60
        E 0 90 61 60
        E 0 90 62 60
        E 0 90 55 60
        E 0 90 56 60
        E 30 80 1a 00
        E 0 80 1f 00
        E 0 80 61 00
        E 0 80 62 00
        E 0 80 55 00
        E 0 80 56 00
        E 90 90 18 60
        E 0 90 60 60
        E 30 80 18 00
        E 0 80 60 00
        E 90 90 1f 60
        E 0 90 62 60
        E 0 90 56 60
        E 0 90 4a 60
        E 0 90 3e 60
        E 30 80 1f 00
        E 0 80 62 00
        E 0 80 56 00
        E 0 80 4a 00
        E 0 80 3e 00
        E 90 90 18 60
        E 0 90 60 60
        E 30 80 18 00
        E 0 80 60 00
        E 90 90 1a 60
        E 0 90 1f 60
        E 0 90 61 60
        E 0 90 62 60
        E 0 90 55 60
        E 0 90 56 60
        E 30 80 1a 00
        E 0 80 1f 00
        E 0 80 61 00
        E 0 80 62 00
        E 0 80 55 00
        E 0 80 56 00
        E 210 90 18 60
        E 0 90 1f 60
        E 0 90 60 60
        E 0 90 62 60
        E 0 90 54 60
        E 0 90 56 60
        E 0 90 48 60
        E 0 90 4a 60
        E 0 90 3e 60
        E 30 80 18 00
        E 0 80 1f 00
        E 0 80 60 00
        E 0 80 62 00
        E 0 80 54 00
        E 0 80 56 00
        E 0 80 48 00
        E 0 80 4a 00
        E 0 80 3e 00
        E 210 90 1a 60
        E 0 90 1f 60
        E 0 90 61 60
        E 0 90 62 60
        E 0 90 55 60
        E 0 90 56 60
        E 30 80 1a 00
        E 0 80 1f 00
        E 0 80 61 00
        E 0 80 62 00
        E 0 80 55 00
        E 0 80 56 00
        E 210 90 1f 60
        E 0 90 62 60
        E 0 90 56 60
        E 0 90 4a 60
        E 0 90 3e 60
        E 30 80 1f 00
        E 0 80 62 00
        E 0 80 56 00
        E 0 80 4a 00
        E 0 80 3e 00
        E 50 90 18 60
        E 0 90 60 60
        E 30 80 18 00
        E 0 80 60 00
        E 50 90 18 60
        E 0 90 60 60
        E 30 80 18 00
        E 0 80 60 00
        E 50 90 1a 60
        E 0 90 1f 60
        E 0 90 61 60
        E 0 90 62 60
        E 0 90 55 60
        E 0 90 56 60
        E 30 80 1a 00
        E 0 80 1f 00
        E 0 80 61 00
        E 0 80 62 00
        E 0 80 55 00
        E 0 80 56 00
        E 210 90 18 60
        E 0 90 1f 60
        E 0 90 60 60
        E 0 90 62 60
        E 0 90 54 60
        E 0 90 56 60
        E 0 90 48 60
        E 0 90 4a 60
        E 0 90 3e 60
        E 30 80 18 00
        E 0 80 1f 00
        E 0 80 60 00
        E 0 80 62 00
        E 0 80 54 00
        E 0 80 56 00
        E 0 80 48 00
        E 0 80 4a 00
        E 0 80 3e 00
        E 210 90 1a 60
        E 0 90 1f 60
        E 0 90 61 60
        E 0 90 62 60
        E 0 90 55 60
        E 0 90 56 60
        E 30 80 1a 00
        E 0 80 1f 00
        E 0 80 61 00
        E 0 80 62 00
        E 0 80 55 00
        E 0 80 56 00
        E 211 90 1b 60
        E 0 90 61 60
        E 0 90 55 60
        E 0 90 49 60
        E 0 90 3d 60
        E 30 80 1b 00
        E 0 80 61 00
        E 0 80 55 00
        E 0 80 49 00
        E 0 80 3d 00
        E 50 90 1a 60
        E 0 90 61 60
        E 30 80 1a 00
        E 0 80 61 00
        E 50 90 1b 60
        E 0 90 61 60
        E 30 80 1b 00
        E 0 80 61 00
        E 49 90 1a 60
        E 0 90 61 60
        E 0 90 55 60
        E 30 80 1a 00
        E 0 80 61 00
        E 0 80 55 00
        E 50 90 1b 60
        E 0 90 61 60
        E 30 80 1b 00
        E 0 80 61 00
        E 50 90 1a 60
        E 0 90 61 60
        E 30 80 1a 00
        E 0 80 61 00
        E 50 90 18 60
        E 0 90 24 60
        E 0 90 60 60
        E 0 90 64 60
        E 0 90 54 60
        E 0 90 58 60
        E 0 90 48 60
        E 0 90 4c 60
        E 0 90 40 60
        E 30 80 18 00
        E 0 80 24 00
        E 0 80 60 00
        E 0 80 64 00
        E 0 80 54 00
        E 0 80 58 00
        E 0 80 48 00
        E 0 80 4c 00
        E 0 80 40 00
        E 210 90 1b 60
        E 0 90 61 60
        E 0 90 55 60
        E 30 80 1b 00
        E 0 80 61 00
        E 0 80 55 00
        E 90 90 18 60
        E 0 90 22 60
        E 0 90 60 60
        E 0 90 64 60
        E 30 80 18 00
        E 0 80 22 00
        E 0 80 60 00
        E 0 80 64 00
        E 210 90 18 60
        E 0 90 60 60
        E 30 80 18 00
        E 0 80 60 00
        E 90 90 1a 60
        E 0 90 24 60
        E 0 90 61 60
        E 0 90 64 60
        E 0 90 55 60
        E 0 90 58 60
        E 30 80 1a 00
        E 0 80 24 00
        E 0 80 61 00
        E 0 80 64 00
        E 0 80 55 00
        E 0 80 58 00
        E 210 90 24 60
        E 0 90 64 60
        E 0 90 58 60
        E 0 90 4c 60
        E 0 90 40 60
        E 30 80 24 00
        E 0 80 64 00
        E 0 80 58 00
        E 0 80 4c 00
        E 0 80 40 00
        E 50 90 18 60
        E 0 90 60 60
        E 30 80 18 00
        E 0 80 60 00
        E 50 90 18 60
        E 0 90 60 60
        E 30 80 18 00
        E 0 80 60 00
        E 50 90 1a 60
        E 0 90 24 60
        E 0 90 61 60
        E 0 90 64 60
        E 0 90 55 60
        E 0 90 58 60
        E 30 80 1a 00
        E 0 80 24 00
        E 0 80 61 00
        E 0 80 64 00
        E 0 80 55 00
        E 0 80 58 00
        E 210 90 18 60
        E 0 90 24 60
        E 0 90 60 60
        E 0 90 64 60
        E 0 90 54 60
        E 0 90 58 60
        E 0 90 48 60
        E 0 90 4c 60
        E 0 90 40 60
        E 30 80 18 00
        E 0 80 24 00
        E 0 80 60 00
        E 0 80 64 00
        E 0 80 54 00
        E 0 80 58 00
        E 0 80 48 00
        E 0 80 4c 00
        E 0 80 40 00
        E 210 90 1a 60
        E 0 90 24 60
        E 0 90 61 60
        E 0 90 64 60
        E 0 90 55 60
        E 0 90 58 60
        E 30 80 1a 00
        E 0 80 24 00
        E 0 80 61 00
        E 0 80 64 00
        E 0 80 55 00
        E 0 80 58 00
        E 210 90 18 60
        E 0 90 24 60
        E 0 90 60 60
        E 0 90 64 60
        E 0 90 54 60
        E 0 90 58 60
        E 0 90 48 60
        E 0 90 4c 60
        E 0 90 40 60
        E 30 80 18 00
        E 0 80 24 00
        E 0 80 60 00
        E 0 80 64 00
        E 0 80 54 00
        E 0 80 58 00
        E 0 80 48 00
        E 0 80 4c 00
        E 0 80 40 00
        E 210 90 1b 60
        E 0 90 61 60
        E 0 90 55 60
        E 30 80 1b 00
        E 0 80 61 00
        E 0 80 55 00
        E 90 90 18 60
        E 0 90 22 60
        E 0 90 60 60
        E 0 90 64 60
        E 30 80 18 00
        E 0 80 22 00
        E 0 80 60 00
        E 0 80 64 00
        E 210 90 18 60
        E 0 90 60 60
        E 30 80 18 00
        E 0 80 60 00
        E 90 90 1a 60
        E 0 90 24 60
        E 0 90 61 60
        E 0 90 64 60
        E 0 90 55 60
        E 0 90 58 60
        E 30 80 1a 00
        E 0 80 24 00
        E 0 80 61 00
        E 0 80 64 00
        E 0 80 55 00
        E 0 80 58 00
        E 210 90 24 60
        E 0 90 64 60
        E 0 90 58 60
        E 0 90 4c 60
        E 0 90 40 60
        E 30 80 24 00
        E 0 80 64 00
        E 0 80 58 00
        E 0 80 4c 00
        E 0 80 40 00
        E 50 90 18 60
        E 0 90 60 60
        E 30 80 18 00
        E 0 80 60 00
        E 50 90 18 60
        E 0 90 60 60
        E 30 80 18 00
        E 0 80 60 00
        E 50 90 1a 60
        E 0 90 24 60
        E 0 90 61 60
        E 0 90 64 60
        E 0 90 55 60
        E 0 90 58 60
        E 30 80 1a 00
        E 0 80 24 00
        E 0 80 61 00
        E 0 80 64 00
        E 0 80 55 00
        E 0 80 58 00
        E 211 90 18 60
        E 0 90 24 60
        E 0 90 60 60
        E 0 90 64 60
        E 0 90 54 60
        E 0 90 58 60
        E 0 90 48 60
        E 0 90 4c 60
        E 0 90 40 60
        E 30 80 18 00
        E 0 80 24 00
        E 0 80 60 00
        E 0 80 64 00
        E 0 80 54 00
        E 0 80 58 00
        E 0 80 48 00
        E 0 80 4c 00
        E 0 80 40 00
        E 90 90 1a 60
        E 0 90 61 60
        E 30 80 1a 00
        E 0 80 61 00
        E 89 90 1b 60
        E 0 90 61 60
        E 0 90 55 60
        E 30 80 1b 00
        E 0 80 61 00
        E 0 80 55 00
        E 90 90 1a 60
        E 0 90 61 60
        E 30 80 1a 00
        E 0 80 61 00
        E 90 90 18 60
        E 0 90 24 60
        E 0 90 60 60
        E 0 90 64 60
        E 0 90 54 60
        E 0 90 58 60
        E 0 90 48 60
        E 0 90 4c 60
        E 0 90 40 60
        E 30 80 18 00
        E 0 80 24 00
        E 0 80 60 00
        E 0 80 64 00
        E 0 80 54 00
        E 0 80 58 00
        E 0 80 48 00
        E 0 80 4c 00
        E 0 80 40 00
        E 210 90 1b 60
        E 0 90 61 60
        E 0 90 55 60
        E 30 80 1b 00
        E 0 80 61 00
        E 0 80 55 00
        E 90 90 18 60
        E 0 90 22 60
        E 0 90 60 60
        E 0 90 64 60
        E 30 80 18 00
        E 0 80 22 00
        E 0 80 60 00
        E 0 80 64 00
        E 210 90 18 60
        E 0 90 60 60
        E 30 80 18 00
        E 0 80 60 00
        E 90 90 1a 60
        E 0 90 24 60
        E 0 90 61 60
        E 0 90 64 60
        E 0 90 55 60
        E 0 90 58 60
        E 30 80 1a 00
        E 0 80 24 00
        E 0 80 61 00
        E 0 80 64 00
        E 0 80 55 00
        E 0 80 58 00
        E 210 90 24 60
        E 0 90 64 60
        E 0 90 58 60
        E 0 90 4c 60
        E 0 90 40 60
        E 30 80 24 00
        E 0 80 64 00
        E 0 80 58 00
        E 0 80 4c 00
        E 0 80 40 00
        E 50 90 18 60
        E 0 90 60 60
        E 30 80 18 00
        E 0 80 60 00
        E 50 90 18 60
        E 0 90 60 60
        E 30 80 18 00
        E 0 80 60 00
        E 50 90 1a 60
        E 0 90 24 60
        E 0 90 61 60
        E 0 90 64 60
        E 0 90 55 60
        E 0 90 58 60
        E 30 80 1a 00
        E 0 80 24 00
        E 0 80 61 00
        E 0 80 64 00
        E 0 80 55 00
        E 0 80 58 00
        E 210 90 18 60
        E 0 90 24 60
        E 0 90 60 60
        E 0 90 64 60
        E 0 90 54 60
        E 0 90 58 60
        E 0 90 48 60
        E 0 90 4c 60
        E 0 90 40 60
        E 30 80 18 00
        E 0 80 24 00
        E 0 80 60 00
        E 0 80 64 00
        E 0 80 54 00
        E 0 80 58 00
        E 0 80 48 00
        E 0 80 4c 00
        E 0 80 40 00
        E 210 90 1a 60
        E 0 90 24 60
        E 0 90 61 60
        E 0 90 64 60
        E 0 90 55 60
        E 0 90 58 60
        E 30 80 1a 00
        E 0 80 24 00
        E 0 80 61 00
        E 0 80 64 00
        E 0 80 55 00
        E 0 80 58 00
        E 210 90 18 60
        E 0 90 24 60
        E 0 90 60 60
        E 0 90 64 60
        E 0 90 74 60
        E 0 90 54 60
        E 0 90 58 60
        E 0 90 48 60
        E 0 90 4c 60
        E 0 90 40 60
        E 30 80 18 00
        E 0 80 24 00
        E 0 80 60 00
        E 0 80 64 00
        E 0 80 54 00
        E 0 80 58 00
        E 0 80 48 00
        E 0 80 4c 00
        E 0 80 40 00
        E 210 90 1b 60
        E 0 90 61 60
        E 0 90 55 60
        E 30 80 1b 00
        E 0 80 61 00
        E 0 80 55 00
        E 90 90 18 60
        E 0 90 22 60
        E 0 90 60 60
        E 0 90 64 60
        E 30 80 18 00
        E 0 80 22 00
        E 0 80 60 00
        E 0 80 64 00
        E 210 90 18 60
        E 0 90 60 60
        E 30 80 18 00
        E 0 80 60 00
        E 90 90 1a 60
        E 0 90 24 60
        E 0 90 61 60
        E 0 90 64 60
        E 0 90 55 60
        E 0 90 58 60
        E 30 80 1a 00
        E 0 80 24 00
        E 0 80 61 00
        E 0 80 64 00
        E 0 80 55 00
        E 0 80 58 00
        E 210 90 24 60
        E 0 90 64 60
        E 0 90 58 60
        E 0 90 4c 60
        E 0 90 40 60
        E 30 80 24 00
        E 0 80 64 00
        E 0 80 58 00
        E 0 80 4c 00
        E 0 80 40 00
        E 50 90 18 60
        E 0 90 60 60
        E 30 80 18 00
        E 0 80 60 00
        E 50 90 18 60
        E 0 90 60 60
        E 30 80 18 00
        E 0 80 60 00
        E 50 90 1a 60
        E 0 90 24 60
        E 0 90 61 60
        E 0 90 64 60
        E 0 90 55 60
        E 0 90 58 60
        E 30 80 1a 00
        E 0 80 24 00
        E 0 80 61 00
        E 0 80 64 00
        E 0 80 55 00
        E 0 80 58 00
        E 210 90 1b 60
        E 0 90 61 60
        E 0 90 55 60
        E 0 90 49 60
        E 0 90 3d 60
        E 30 80 1b 00
        E 0 80 61 00
        E 0 80 55 00
        E 0 80 49 00
        E 0 80 3d 00
        E 50 90 1a 60
        E 0 90 61 60
        E 30 80 1a 00
        E 0 80 61 00
        E 50 90 1b 60
        E 0 90 61 60
        E 30 80 1b 00
        E 0 80 61 00
        E 50 90 1a 60
        E 0 90 61 60
        E 0 90 55 60
        E 30 80 1a 00
        E 0 80 61 00
        E 0 80 55 00
        E 50 90 1b 60
        E 0 90 61 60
        E 30 80 1b 00
        E 0 80 61 00
        E 50 90 1a 60
        E 0 90 61 60
        E 30 80 1a 00
        E 0 80 61 00
        E 50 80 74 00
        E 0 90 18 60
        E 0 90 24 60
        E 0 90 60 60
        E 0 90 64 60
        E 0 90 54 60
        E 0 90 58 60
        E 0 90 48 60
        E 0 90 4c 60
        E 0 90 40 60
        E 30 80 18 00
        E 0 80 24 00
        E 0 80 60 00
        E 0 80 64 00
        E 0 80 54 00
        E 0 80 58 00
        E 0 80 48 00
        E 0 80 4c 00
        E 0 80 40 00
        E 210 90 1a 60
        E 0 90 1f 60
        E 0 90 61 60
        E 0 90 62 60
        E 0 90 55 60
        E 0 90 56 60
        E 30 80 1a 00
        E 0 80 1f 00
        E 0 80 61 00
        E 0 80 62 00
        E 0 80 55 00
        E 0 80 56 00
        E 210 90 1f 60
        E 0 90 62 60
        E 0 90 56 60
        E 0 90 4a 60
        E 0 90 3e 60
        E 30 80 1f 00
        E 0 80 62 00
        E 0 80 56 00
        E 0 80 4a 00
        E 0 80 3e 00
        E 50 90 18 60
        E 0 90 60 60
        E 30 80 18 00
        E 0 80 60 00
        E 50 90 18 60
        E 0 90 60 60
        E 30 80 18 00
        E 0 80 60 00
        E 50 90 1a 60
        E 0 90 1f 60
        E 0 90 61 60
        E 0 90 62 60
        E 0 90 55 60
        E 0 90 56 60
        E 30 80 1a 00
        E 0 80 1f 00
        E 0 80 61 00
        E 0 80 62 00
        E 0 80 55 00
        E 0 80 56 00
        E 210 90 18 60
        E 0 90 1f 60
        E 0 90 60 60
        E 0 90 62 60
        E 0 90 54 60
        E 0 90 56 60
        E 0 90 48 60
        E 0 90 4a 60
        E 0 90 3e 60
        E 30 80 18 00
        E 0 80 1f 00
        E 0 80 60 00
        E 0 80 62 00
        E 0 80 54 00
        E 0 80 56 00
        E 0 80 48 00
        E 0 80 4a 00
        E 0 80 3e 00
        E 210 90 1a 60
        E 0 90 1f 60
        E 0 90 61 60
        E 0 90 62 60
        E 0 90 55 60
        E 0 90 56 60
        E 30 80 1a 00
        E 0 80 1f 00
        E 0 80 61 00
        E 0 80 62 00
        E 0 80 55 00
        E 0 80 56 00
        E 90 90 18 60
        E 0 90 60 60
        E 30 80 18 00
        E 0 80 60 00
        E 90 90 1f 60
        E 0 90 62 60
        E 0 90 56 60
        E 0 90 4a 60
        E 0 90 3e 60
        E 30 80 1f 00
        E 0 80 62 00
        E 0 80 56 00
        E 0 80 4a 00
        E 0 80 3e 00
        E 90 90 18 60
        E 0 90 60 60
        E 30 80 18 00
        E 0 80 60 00
        E 90 90 1a 60
        E 0 90 1f 60
        E 0 90 61 60
        E 0 90 62 60
        E 0 90 55 60
        E 0 90 56 60
        E 30 80 1a 00
        E 0 80 1f 00
        E 0 80 61 00
        E 0 80 62 00
        E 0 80 55 00
        E 0 80 56 00
        E 210 90 18 60
        E 0 90 1f 60
        E 0 90 60 60
        E 0 90 62 60
        E 0 90 54 60
        E 0 90 56 60
        E 0 90 48 60
        E 0 90 4a 60
        E 0 90 3e 60
        E 30 80 18 00
        E 0 80 1f 00
        E 0 80 60 00
        E 0 80 62 00
        E 0 80 54 00
        E 0 80 56 00
        E 0 80 48 00
        E 0 80 4a 00
        E 0 80 3e 00
        E 210 90 1a 60
        E 0 90 1f 60
        E 0 90 61 60
        E 0 90 62 60
        E 0 90 55 60
        E 0 90 56 60
        E 30 80 1a 00
        E 0 80 1f 00
        E 0 80 61 00
        E 0 80 62 00
        E 0 80 55 00
        E 0 80 56 00
        E 210 90 1f 60
        E 0 90 62 60
        E 0 90 56 60
        E 0 90 4a 60
        E 0 90 3e 60
        E 30 80 1f 00
        E 0 80 62 00
        E 0 80 56 00
        E 0 80 4a 00
        E 0 80 3e 00
        E 50 90 18 60
        E 0 90 60 60
        E 30 80 18 00
        E 0 80 60 00
        E 50 90 18 60
        E 0 90 60 60
        E 30 80 18 00
        E 0 80 60 00
        E 50 90 1a 60
        E 0 90 1f 60
        E 0 90 61 60
        E 0 90 62 60
        E 0 90 55 60
        E 0 90 56 60
        E 30 80 1a 00
        E 0 80 1f 00
        E 0 80 61 00
        E 0 80 62 00
        E 0 80 55 00
        E 0 80 56 00
        E 210 90 18 60
        E 0 90 1f 60
        E 0 90 60 60
        E 0 90 62 60
        E 0 90 78 60
        E 0 90 79 60
        E 0 90 7a 60
        E 0 90 7b 60
        E 0 90 7c 60
        E 0 90 54 60
        E 0 90 56 60
        E 0 90 48 60
        E 0 90 4a 60
        E 0 90 3e 60
        E 30 80 18 00
        E 0 80 1f 00
        E 0 80 60 00
        E 0 80 62 00
        E 0 80 54 00
        E 0 80 56 00
        E 0 80 48 00
        E 0 80 4a 00
        E 0 80 3e 00
        E 210 90 1a 60
        E 0 90 1f 60
        E 0 90 61 60
        E 0 90 62 60
        E 0 90 55 60
        E 0 90 56 60
        E 30 80 1a 00
        E 0 80 1f 00
        E 0 80 61 00
        E 0 80 62 00
        E 0 80 55 00
        E 0 80 56 00
        E 89 90 18 60
        E 0 90 60 60
        E 30 80 18 00
        E 0 80 60 00
        E 90 90 1f 60
        E 0 90 62 60
        E 0 90 56 60
        E 0 90 4a 60
        E 0 90 3e 60
        E 30 80 1f 00
        E 0 80 62 00
        E 0 80 56 00
        E 0 80 4a 00
        E 0 80 3e 00
        E 90 90 1a 60
        E 0 90 61 60
        E 30 80 1a 00
        E 0 80 61 00
        E 90 90 1b 60
        E 0 90 61 60
        E 0 90 55 60
        E 30 80 1b 00
        E 0 80 61 00
        E 0 80 55 00
        E 90 90 1a 60
        E 0 90 61 60
        E 30 80 1a 00
        E 0 80 61 00
        E 91 80 78 00
        E 0 80 79 00
        E 0 80 7a 00
        E 0 80 7b 00
        E 0 80 7c 00
        E 0 90 18 60
        E 0 90 24 60
        E 0 90 60 60
        E 0 90 64 60
        E 0 90 54 60
        E 0 90 58 60
        E 0 90 48 60
        E 0 90 4c 60
        E 0 90 40 60
        E 30 80 18 00
        E 0 80 24 00
        E 0 80 60 00
        E 0 80 64 00
        E 0 80 54 00
        E 0 80 58 00
        E 0 80 48 00
        E 0 80 4c 00
        E 0 80 40 00
        E 210 90 1a 60
        E 0 90 1f 60
        E 0 90 61 60
        E 0 90 62 60
        E 0 90 55 60
        E 0 90 56 60
        E 30 80 1a 00
        E 0 80 1f 00
        E 0 80 61 00
        E 0 80 62 00
        E 0 80 55 00
        E 0 80 56 00
        E 210 90 1f 60
        E 0 90 62 60
        E 0 90 56 60
        E 0 90 4a 60
        E 0 90 3e 60
        E 30 80 1f 00
        E 0 80 62 00
        E 0 80 56 00
        E 0 80 4a 00
        E 0 80 3e 00
        E 49 90 18 60
        E 0 90 60 60
        E 30 80 18 00
        E 0 80 60 00
        E 50 90 18 60
        E 0 90 60 60
        E 30 80 18 00
        E 0 80 60 00
        E 50 90 1a 60
        E 0 90 1f 60
        E 0 90 61 60
        E 0 90 62 60
        E 0 90 55 60
        E 0 90 56 60
        E 30 80 1a 00
        E 0 80 1f 00
        E 0 80 61 00
        E 0 80 62 00
        E 0 80 55 00
        E 0 80 56 00
        E 211 90 18 60
        E 0 90 1f 60
        E 0 90 60 60
        E 0 90 62 60
        E 0 90 54 60
        E 0 90 56 60
        E 0 90 48 60
        E 0 90 4a 60
        E 0 90 3e 60
        E 30 80 18 00
        E 0 80 1f 00
        E 0 80 60 00
        E 0 80 62 00
        E 0 80 54 00
        E 0 80 56 00
        E 0 80 48 00
        E 0 80 4a 00
        E 0 80 3e 00
        E 209 90 1a 60
        E 0 90 1f 60
        E 0 90 61 60
        E 0 90 62 60
        E 0 90 55 60
        E 0 90 56 60
        E 30 80 1a 00
        E 0 80 1f 00
        E 0 80 61 00
        E 0 80 62 00
        E 0 80 55 00
        E 0 80 56 00
        E 91 90 18 60
        E 0 90 60 60
        E 30 80 18 00
        E 0 80 60 00
        E 90 90 1f 60
        E 0 90 62 60
        E 0 90 56 60
        E 0 90 4a 60
        E 0 90 3e 60
        E 30 80 1f 00
        E 0 80 62 00
        E 0 80 56 00
        E 0 80 4a 00
        E 0 80 3e 00
        E 89 90 18 60
        E 0 90 60 60
        E 30 80 18 00
        E 0 80 60 00
        E 91 90 1a 60
        E 0 90 1f 60
        E 0 90 61 60
        E 0 90 62 60
        E 0 90 55 60
        E 0 90 56 60
        E 30 80 1a 00
        E 0 80 1f 00
        E 0 80 61 00
        E 0 80 62 00
        E 0 80 55 00
        E 0 80 56 00
        E 210 90 18 60
        E 0 90 1f 60
        E 0 90 60 60
        E 0 90 62 60
        E 0 90 54 60
        E 0 90 56 60
        E 0 90 48 60
        E 0 90 4a 60
        E 0 90 3e 60
        E 30 80 18 00
        E 0 80 1f 00
        E 0 80 60 00
        E 0 80 62 00
        E 0 80 54 00
        E 0 80 56 00
        E 0 80 48 00
        E 0 80 4a 00
        E 0 80 3e 00
        E 210 90 1a 60
        E 0 90 1f 60
        E 0 90 61 60
        E 0 90 62 60
        E 0 90 55 60
        E 0 90 56 60
        E 30 80 1a 00
        E 0 80 1f 00
        E 0 80 61 00
        E 0 80 62 00
        E 0 80 55 00
        E 0 80 56 00
        E 210 90 1f 60
        E 0 90 62 60
        E 0 90 56 60
        E 0 90 4a 60
        E 0 90 3e 60
        E 30 80 1f 00
        E 0 80 62 00
        E 0 80 56 00
        E 0 80 4a 00
        E 0 80 3e 00
        E 49 90 18 60
        E 0 90 60 60
        E 30 80 18 00
        E 0 80 60 00
        E 50 90 18 60
        E 0 90 60 60
        E 30 80 18 00
        E 0 80 60 00
        E 50 90 1a 60
        E 0 90 1f 60
        E 0 90 61 60
        E 0 90 62 60
        E 0 90 55 60
        E 0 90 56 60
        E 30 80 1a 00
        E 0 80 1f 00
        E 0 80 61 00
        E 0 80 62 00
        E 0 80 55 00
        E 0 80 56 00
        E 211 90 18 60
        E 0 90 1f 60
        E 0 90 60 60
        E 0 90 62 60
        E 0 90 54 60
        E 0 90 56 60
        E 0 90 48 60
        E 0 90 4a 60
        E 0 90 3e 60
        E 30 80 18 00
        E 0 80 1f 00
        E 0 80 60 00
        E 0 80 62 00
        E 0 80 54 00
        E 0 80 56 00
        E 0 80 48 00
        E 0 80 4a 00
        E 0 80 3e 00
        E 89 90 18 60
        E 0 90 1a 60
        E 0 90 60 60
        E 0 90 61 60
        E 30 80 18 00
        E 0 80 1a 00
        E 0 80 60 00
        E 0 80 61 00
        E 91 90 18 60
        E 0 90 1b 60
        E 0 90 60 60
        E 0 90 61 60
        E 0 90 54 60
        E 0 90 55 60
        E 30 80 18 00
        E 0 80 1b 00
        E 0 80 60 00
        E 0 80 61 00
        E 0 80 54 00
        E 0 80 55 00
        E 89 90 18 60
        E 0 90 1a 60
        E 0 90 60 60
        E 0 90 61 60
        E 30 80 18 00
        E 0 80 1a 00
        E 0 80 60 00
        E 0 80 61 00
        E 91 90 18 60
        E 0 90 1b 60
        E 0 90 60 60
        E 0 90 61 60
        E 0 90 54 60
        E 0 90 55 60
        E 0 90 49 60
        E 0 90 3d 60
        E 30 80 18 00
        E 0 80 1b 00
        E 0 80 60 00
        E 0 80 61 00
        E 0 80 54 00
        E 0 80 55 00
        E 0 80 49 00
        E 0 80 3d 00
        E 89 90 18 60
        E 0 90 1a 60
        E 0 90 60 60
        E 0 90 61 60
        E 30 80 18 00
        E 0 80 1a 00
        E 0 80 60 00
        E 0 80 61 00
        E 91 90 18 60
        E 0 90 1b 60
        E 0 90 60 60
        E 0 90 61 60
        E 0 90 54 60
        E 0 90 55 60
        E 30 80 18 00
        E 0 80 1b 00
        E 0 80 60 00
        E 0 80 61 00
        E 0 80 54 00
        E 0 80 55 00
        E 89 90 18 60
        E 0 90 1a 60
        E 0 90 60 60
        E 0 90 61 60
        E 30 80 18 00
        E 0 80 1a 00
        E 0 80 60 00
        E 0 80 61 00
        E 91 90 18 60
        E 0 90 24 60
        E 0 90 60 60
        E 0 90 64 60
        E 0 90 54 60
        E 0 90 58 60
        E 0 90 48 60
        E 0 90 4c 60
        E 0 90 40 60
        E 30 80 18 00
        E 0 80 24 00
        E 0 80 60 00
        E 0 80 64 00
        E 0 80 54 00
        E 0 80 58 00
        E 0 80 48 00
        E 0 80 4c 00
        E 0 80 40 00
        E 210 90 1b 60
        E 0 90 61 60
        E 0 90 55 60
        E 30 80 1b 00
        E 0 80 61 00
        E 0 80 55 00
        E 89 90 18 60
        E 0 90 22 60
        E 0 90 60 60
        E 0 90 64 60
        E 30 80 18 00
        E 0 80 22 00
        E 0 80 60 00
        E 0 80 64 00
        E 210 90 18 60
        E 0 90 60 60
        E 30 80 18 00
        E 0 80 60 00
        E 91 90 1a 60
        E 0 90 24 60
        E 0 90 61 60
        E 0 90 64 60
        E 0 90 55 60
        E 0 90 58 60
        E 30 80 1a 00
        E 0 80 24 00
        E 0 80 61 00
        E 0 80 64 00
        E 0 80 55 00
        E 0 80 58 00
        E 210 90 24 60
        E 0 90 64 60
        E 0 90 58 60
        E 0 90 4c 60
        E 0 90 40 60
        E 30 80 24 00
        E 0 80 64 00
        E 0 80 58 00
        E 0 80 4c 00
        E 0 80 40 00
        E 50 90 18 60
        E 0 90 60 60
        E 30 80 18 00
        E 0 80 60 00
        E 50 90 18 60
        E 0 90 60 60
        E 30 80 18 00
        E 0 80 60 00
        E 50 90 1a 60
        E 0 90 24 60
        E 0 90 61 60
        E 0 90 64 60
        E 0 90 55 60
        E 0 90 58 60
        E 30 80 1a 00
        E 0 80 24 00
        E 0 80 61 00
        E 0 80 64 00
        E 0 80 55 00
        E 0 80 58 00
        E 210 90 18 60
        E 0 90 24 60
        E 0 90 60 60
        E 0 90 64 60
        E 0 90 54 60
        E 0 90 58 60
        E 0 90 48 60
        E 0 90 4c 60
        E 0 90 40 60
        E 30 80 18 00
        E 0 80 24 00
        E 0 80 60 00
        E 0 80 64 00
        E 0 80 54 00
        E 0 80 58 00
        E 0 80 48 00
        E 0 80 4c 00
        E 0 80 40 00
        E 210 90 1a 60
        E 0 90 24 60
        E 0 90 61 60
        E 0 90 64 60
        E 0 90 55 60
        E 0 90 58 60
        E 30 80 1a 00
        E 0 80 24 00
        E 0 80 61 00
        E 0 80 64 00
        E 0 80 55 00
        E 0 80 58 00
        E 210 90 18 60
        E 0 90 24 60
        E 0 90 60 60
        E 0 90 64 60
        E 0 90 54 60
        E 0 90 58 60
        E 0 90 48 60
        E 0 90 4c 60
        E 0 90 40 60
        E 30 80 18 00
        E 0 80 24 00
        E 0 80 60 00
        E 0 80 64 00
        E 0 80 54 00
        E 0 80 58 00
        E 0 80 48 00
        E 0 80 4c 00
        E 0 80 40 00
        E 210 90 1b 60
        E 0 90 61 60
        E 0 90 55 60
        E 30 80 1b 00
        E 0 80 61 00
        E 0 80 55 00
        E 90 90 18 60
        E 0 90 22 60
        E 0 90 60 60
        E 0 90 64 60
        E 30 80 18 00
        E 0 80 22 00
        E 0 80 60 00
        E 0 80 64 00
        E 209 90 18 60
        E 0 90 60 60
        E 30 80 18 00
        E 0 80 60 00
        E 91 90 1a 60
        E 0 90 24 60
        E 0 90 61 60
        E 0 90 64 60
        E 0 90 55 60
        E 0 90 58 60
        E 30 80 1a 00
        E 0 80 24 00
        E 0 80 61 00
        E 0 80 64 00
        E 0 80 55 00
        E 0 80 58 00
        E 210 90 24 60
        E 0 90 64 60
        E 0 90 58 60
        E 0 90 4c 60
        E 0 90 40 60
        E 30 80 24 00
        E 0 80 64 00
        E 0 80 58 00
        E 0 80 4c 00
        E 0 80 40 00
        E 50 90 18 60
        E 0 90 60 60
        E 30 80 18 00
        E 0 80 60 00
        E 49 90 18 60
        E 0 90 60 60
        E 30 80 18 00
        E 0 80 60 00
        E 50 90 1a 60
        E 0 90 24 60
        E 0 90 61 60
        E 0 90 64 60
        E 0 90 55 60
        E 0 90 58 60
        E 30 80 1a 00
        E 0 80 24 00
        E 0 80 61 00
        E 0 80 64 00
        E 0 80 55 00
        E 0 80 58 00
        E 211 90 18 60
        E 0 90 24 60
        E 0 90 60 60
        E 0 90 64 60
        E 0 90 54 60
        E 0 90 58 60
        E 0 90 48 60
        E 0 90 4c 60
        E 0 90 40 60
        E 30 80 18 00
        E 0 80 24 00
        E 0 80 60 00
        E 0 80 64 00
        E 0 80 54 00
        E 0 80 58 00
        E 0 80 48 00
        E 0 80 4c 00
        E 0 80 40 00
        E 90 90 1a 60
        E 0 90 61 60
        E 30 80 1a 00
        E 0 80 61 00
        E 90 90 1b 60
        E 0 90 61 60
        E 0 90 55 60
        E 30 80 1b 00
        E 0 80 61 00
        E 0 80 55 00
        E 89 90 1a 60
        E 0 90 61 60
        E 30 80 1a 00
        E 0 80 61 00
        E 91 90 18 60
        E 0 90 24 60
        E 0 90 60 60
        E 0 90 64 60
        E 0 90 54 60
        E 0 90 58 60
        E 0 90 48 60
        E 0 90 4c 60
        E 0 90 40 60
        E 30 80 18 00
        E 0 80 24 00
        E 0 80 60 00
        E 0 80 64 00
        E 0 80 54 00
        E 0 80 58 00
        E 0 80 48 00
        E 0 80 4c 00
        E 0 80 40 00
        E 209 90 1b 60
        E 0 90 61 60
        E 0 90 55 60
        E 30 80 1b 00
        E 0 80 61 00
        E 0 80 55 00
        E 90 90 18 60
        E 0 90 22 60
        E 0 90 60 60
        E 0 90 64 60
        E 30 80 18 00
        E 0 80 22 00
        E 0 80 60 00
        E 0 80 64 00
        E 211 90 18 60
        E 0 90 60 60
        E 30 80 18 00
        E 0 80 60 00
        E 89 90 1a 60
        E 0 90 24 60
        E 0 90 61 60
        E 0 90 64 60
        E 0 90 55 60
        E 0 90 58 60
        E 30 80 1a 00
        E 0 80 24 00
        E 0 80 61 00
        E 0 80 64 00
        E 0 80 55 00
        E 0 80 58 00
        E 211 90 24 60
        E 0 90 64 60
        E 0 90 58 60
        E 0 90 4c 60
        E 0 90 40 60
        E 30 80 24 00
        E 0 80 64 00
        E 0 80 58 00
        E 0 80 4c 00
        E 0 80 40 00
        E 49 90 18 60
        E 0 90 60 60
        E 30 80 18 00
        E 0 80 60 00
        E 51 90 18 60
        E 0 90 60 60
        E 30 80 18 00
        E 0 80 60 00
        E 49 90 1a 60
        E 0 90 24 60
        E 0 90 61 60
        E 0 90 64 60
        E 0 90 55 60
        E 0 90 58 60
        E 30 80 1a 00
        E 0 80 24 00
        E 0 80 61 00
        E 0 80 64 00
        E 0 80 55 00
        E 0 80 58 00
        E 211 90 18 60
        E 0 90 24 60
        E 0 90 60 60
        E 0 90 64 60
        E 0 90 54 60
        E 0 90 58 60
        E 0 90 48 60
        E 0 90 4c 60
        E 0 90 40 60
        E 30 80 18 00
        E 0 80 24 00
        E 0 80 60 00
        E 0 80 64 00
        E 0 80 54 00
        E 0 80 58 00
        E 0 80 48 00
        E 0 80 4c 00
        E 0 80 40 00
        E 209 90 1a 60
        E 0 90 24 60
        E 0 90 61 60
        E 0 90 64 60
        E 0 90 55 60
        E 0 90 58 60
        E 30 80 1a 00
        E 0 80 24 00
        E 0 80 61 00
        E 0 80 64 00
        E 0 80 55 00
        E 0 80 58 00
        E 211 90 18 60
        E 0 90 24 60
        E 0 90 60 60
        E 0 90 64 60
        E 0 90 54 60
        E 0 90 58 60
        E 0 90 48 60
        E 0 90 4c 60
        E 0 90 40 60
        E 30 80 18 00
        E 0 80 24 00
        E 0 80 60 00
        E 0 80 64 00
        E 0 80 54 00
        E 0 80 58 00
        E 0 80 48 00
        E 0 80 4c 00
        E 0 80 40 00
        E 209 90 1b 60
        E 0 90 61 60
        E 0 90 55 60
        E 30 80 1b 00
        E 0 80 61 00
        E 0 80 55 00
        E 90 90 18 60
        E 0 90 22 60
        E 0 90 60 60
        E 0 90 64 60
        E 30 80 18 00
        E 0 80 22 00
        E 0 80 60 00
        E 0 80 64 00
        E 211 90 18 60
        E 0 90 60 60
        E 30 80 18 00
        E 0 80 60 00
        E 89 90 1a 60
        E 0 90 24 60
        E 0 90 61 60
        E 0 90 64 60
        E 0 90 55 60
        E 0 90 58 60
        E 30 80 1a 00
        E 0 80 24 00
        E 0 80 61 00
        E 0 80 64 00
        E 0 80 55 00
        E 0 80 58 00
        E 211 90 24 60
        E 0 90 64 60
        E 0 90 58 60
        E 0 90 4c 60
        E 0 90 40 60
        E 30 80 24 00
        E 0 80 64 00
        E 0 80 58 00
        E 0 80 4c 00
        E 0 80 40 00
        E 49 90 18 60
        E 0 90 60 60
        E 30 80 18 00
        E 0 80 60 00
        E 51 90 18 60
        E 0 90 60 60
        E 30 80 18 00
        E 0 80 60 00
        E 49 90 1a 60
        E 0 90 24 60
        E 0 90 61 60
        E 0 90 64 60
        E 0 90 55 60
        E 0 90 58 60
        E 30 80 1a 00
        E 0 80 24 00
        E 0 80 61 00
        E 0 80 64 00
        E 0 80 55 00
        E 0 80 58 00
        E 211 90 18 60
        E 0 90 24 60
        E 0 90 60 60
        E 0 90 64 60
        E 0 90 54 60
        E 0 90 58 60
        E 0 90 48 60
        E 0 90 4c 60
        E 0 90 40 60
        E 30 80 18 00
        E 0 80 24 00
        E 0 80 60 00
        E 0 80 64 00
        E 0 80 54 00
        E 0 80 58 00
        E 0 80 48 00
        E 0 80 4c 00
        E 0 80 40 00
        E 209 90 1a 60
        E 0 90 24 60
        E 0 90 61 60
        E 0 90 64 60
        E 0 90 55 60
        E 0 90 58 60
        E 30 80 1a 00
        E 0 80 24 00
        E 0 80 61 00
        E 0 80 64 00
        E 0 80 55 00
        E 0 80 58 00
        E 211 90 18 60
        E 0 90 24 60
        E 0 90 60 60
        E 0 90 64 60
        E 0 90 74 60
        E 0 90 54 60
        E 0 90 58 60
        E 0 90 48 60
        E 0 90 4c 60
        E 0 90 40 60
        E 30 80 18 00
        E 0 80 24 00
        E 0 80 60 00
        E 0 80 64 00
        E 0 80 54 00
        E 0 80 58 00
        E 0 80 48 00
        E 0 80 4c 00
        E 0 80 40 00
        E 210 90 1f 60
        E 0 90 62 60
        E 0 90 56 60
        E 30 80 1f 00
        E 0 80 62 00
        E 0 80 56 00
        E 210 90 18 60
        E 0 90 1f 60
        E 0 90 60 60
        E 0 90 62 60
        E 0 90 54 60
        E 0 90 56 60
        E 0 90 48 60
        E 0 90 4a 60
        E 0 90 3e 60
        E 30 80 18 00
        E 0 80 1f 00
        E 0 80 60 00
        E 0 80 62 00
        E 0 80 54 00
        E 0 80 56 00
        E 0 80 48 00
        E 0 80 4a 00
        E 0 80 3e 00
        E 210 90 1a 60
        E 0 90 2a 60
        E 0 90 61 60
        E 0 90 63 60
        E 0 90 55 60
        E 0 90 57 60
        E 30 80 1a 00
        E 0 80 2a 00
        E 0 80 61 00
        E 0 80 63 00
        E 0 80 55 00
        E 0 80 57 00
        E 210 90 1f 60
        E 0 90 62 60
        E 0 90 56 60
        E 0 90 4a 60
        E 0 90 3e 60
        E 30 80 1f 00
        E 0 80 62 00
        E 0 80 56 00
        E 0 80 4a 00
        E 0 80 3e 00
        E 210 90 18 60
        E 0 90 1f 60
        E 0 90 60 60
        E 0 90 62 60
        E 0 90 54 60
        E 0 90 56 60
        E 30 80 18 00
        E 0 80 1f 00
        E 0 80 60 00
        E 0 80 62 00
        E 0 80 54 00
        E 0 80 56 00
        E 210 90 18 60
        E 0 90 2a 60
        E 0 90 60 60
        E 0 90 63 60
        E 0 90 54 60
        E 0 90 57 60
        E 0 90 48 60
        E 0 90 4b 60
        E 0 90 3f 60
        E 30 80 18 00
        E 0 80 2a 00
        E 0 80 60 00
        E 0 80 63 00
        E 0 80 54 00
        E 0 80 57 00
        E 0 80 48 00
        E 0 80 4b 00
        E 0 80 3f 00
        E 450 80 74 00
        E 0 90 18 60
        E 0 90 2a 60
        E 0 90 60 60
        E 0 90 63 60
        E 0 90 54 60
        E 0 90 57 60
        E 0 90 48 60
        E 0 90 4b 60
        E 0 90 3f 60
        E 30 80 18 00
        E 0 80 2a 00
        E 0 80 60 00
        E 0 80 63 00
        E 0 80 54 00
        E 0 80 57 00
        E 0 80 48 00
        E 0 80 4b 00
        E 0 80 3f 00
        E 450 90 1a 60
        E 0 90 1f 60
        E 0 90 61 60
        E 0 90 62 60
        E 0 90 55 60
        E 0 90 56 60
        E 0 90 49 60
        E 0 90 4a 60
        E 0 90 3d 60
        E 30 80 1a 00
        E 0 80 1f 00
        E 0 80 61 00
        E 0 80 62 00
        E 0 80 55 00
        E 0 80 56 00
        E 0 80 49 00
        E 0 80 4a 00
        E 0 80 3d 00
        E 450 90 18 60
        E 0 90 1f 60
        E 0 90 60 60
        E 0 90 62 60
        E 0 90 54 60
        E 0 90 56 60
        E 0 90 48 60
        E 0 90 4a 60
        E 0 90 3e 60
        E 30 80 18 00
        E 0 80 1f 00
        E 0 80 60 00
        E 0 80 62 00
        E 0 80 54 00
        E 0 80 56 00
        E 0 80 48 00
        E 0 80 4a 00
        E 0 80 3e 00
        E 450 90 18 60
        E 0 90 1f 60
        E 0 90 60 60
        E 0 90 62 60
        E 0 90 54 60
        E 0 90 56 60
        E 0 90 48 60
        E 0 90 4a 60
        E 0 90 3e 60
        E 30 80 18 00
        E 0 80 1f 00
        E 0 80 60 00
        E 0 80 62 00
        E 0 80 54 00
        E 0 80 56 00
        E 0 80 48 00
        E 0 80 4a 00
        E 0 80 3e 00
        E 210 90 1a 60
        E 0 90 2a 60
        E 0 90 61 60
        E 0 90 63 60
        E 0 90 55 60
        E 0 90 57 60
        E 30 80 1a 00
        E 0 80 2a 00
        E 0 80 61 00
        E 0 80 63 00
        E 0 80 55 00
        E 0 80 57 00
        E 450 90 18 60
        E 0 90 1f 60
        E 0 90 60 60
        E 0 90 62 60
        E 0 90 54 60
        E 0 90 56 60
        E 30 80 18 00
        E 0 80 1f 00
        E 0 80 60 00
        E 0 80 62 00
        E 0 80 54 00
        E 0 80 56 00
        E 210 90 2a 60
        E 0 90 63 60
        E 0 90 78 60
        E 0 90 79 60
        E 0 90 7a 60
        E 0 90 7b 60
        E 0 90 7c 60
        E 0 90 57 60
        E 0 90 4b 60
        E 0 90 3f 60
        E 30 80 2a 00
        E 0 80 63 00
        E 0 80 57 00
        E 0 80 4b 00
        E 0 80 3f 00
        E 210 90 1b 60
        E 0 90 61 60
        E 0 90 55 60
        E 30 80 1b 00
        E 0 80 61 00
        E 0 80 55 00
        E 89 90 1a 60
        E 0 90 61 60
        E 30 80 1a 00
        E 0 80 61 00
        E 91 90 1b 60
        E 0 90 61 60
        E 0 90 55 60
        E 0 90 49 60
        E 0 90 3d 60
        E 30 80 1b 00
        E 0 80 61 00
        E 0 80 55 00
        E 0 80 49 00
        E 0 80 3d 00
        E 89 90 1a 60
        E 0 90 61 60
        E 30 80 1a 00
        E 0 80 61 00
        E 91 90 1b 60
        E 0 90 61 60
        E 0 90 55 60
        E 30 80 1b 00
        E 0 80 61 00
        E 0 80 55 00
        E 89 90 1a 60
        E 0 90 61 60
        E 30 80 1a 00
        E 0 80 61 00
        E 91 90 2f 60
        E 0 90 62 60
        E 0 90 56 60
        E 0 90 4a 60
        E 0 90 6e 60
        E 0 90 3e 60
        E 30 80 2f 00
        E 0 80 62 00
        E 0 80 56 00
        E 0 80 4a 00
        E 0 80 6e 00
        E 0 80 3e 00
        E 89 90 2e 60
        E 0 90 62 60
        E 0 90 6e 60
        E 30 80 2e 00
        E 0 80 62 00
        E 0 80 6e 00
        E 91 90 31 60
        E 0 90 63 60
        E 0 90 57 60
        E 0 90 6f 60
        E 30 80 31 00
        E 0 80 63 00
        E 0 80 57 00
        E 0 80 6f 00
        E 89 90 30 60
        E 0 90 63 60
        E 0 90 6f 60
        E 30 80 30 00
        E 0 80 63 00
        E 0 80 6f 00
        E 91 80 78 00
        E 0 80 79 00
        E 0 80 7a 00
        E 0 80 7b 00
        E 0 80 7c 00
        E 0 90 18 60
        E 0 90 24 60
        E 0 90 60 60
        E 0 90 64 60
        E 0 90 54 60
        E 0 90 58 60
        E 0 90 48 60
        E 0 90 4c 60
        E 0 90 40 60
        E 30 80 18 00
        E 0 80 24 00
        E 0 80 60 00
        E 0 80 64 00
        E 0 80 54 00
        E 0 80 58 00
        E 0 80 48 00
        E 0 80 4c 00
        E 0 80 40 00
        E 210 90 1b 60
        E 0 90 61 60
        E 0 90 55 60
        E 30 80 1b 00
        E 0 80 61 00
        E 0 80 55 00
        E 90 90 1a 60
        E 0 90 61 60
        E 30 80 1a 00
        E 0 80 61 00
        E 90 90 18 60
        E 0 90 60 60
        E 0 90 54 60
        E 0 90 48 60
        E 0 90 3c 60
        E 30 80 18 00
        E 0 80 60 00
        E 0 80 54 00
        E 0 80 48 00
        E 0 80 3c 00
        E 210 90 1a 60
        E 0 90 2a 60
        E 0 90 61 60
        E 0 90 63 60
        E 0 90 55 60
        E 0 90 57 60
        E 30 80 1a 00
        E 0 80 61 00
        E 0 80 55 00
        E 30 80 2a 00
        E 0 80 63 00
        E 0 80 57 00
        E 420 90 18 60
        E 0 90 1f 60
        E 0 90 60 60
        E 0 90 62 60
        E 0 90 54 60
        E 0 90 56 60
        E 30 80 18 00
        E 0 80 1f 00
        E 0 80 60 00
        E 0 80 62 00
        E 0 80 54 00
        E 0 80 56 00
        E 210 90 18 60
        E 0 90 2a 60
        E 0 90 60 60
        E 0 90 63 60
        E 0 90 54 60
        E 0 90 57 60
        E 0 90 48 60
        E 0 90 4b 60
        E 0 90 3f 60
        E 30 80 18 00
        E 0 80 2a 00
        E 0 80 60 00
        E 0 80 63 00
        E 0 80 54 00
        E 0 80 57 00
        E 0 80 48 00
        E 0 80 4b 00
        E 0 80 3f 00
        E 450 90 18 60
        E 0 90 2a 60
        E 0 90 60 60
        E 0 90 63 60
        E 0 90 54 60
        E 0 90 57 60
        E 0 90 48 60
        E 0 90 4b 60
        E 0 90 3f 60
        E 30 80 18 00
        E 0 80 2a 00
        E 0 80 60 00
        E 0 80 63 00
        E 0 80 54 00
        E 0 80 57 00
        E 0 80 48 00
        E 0 80 4b 00
        E 0 80 3f 00
        E 450 90 1a 60
        E 0 90 1f 60
        E 0 90 61 60
        E 0 90 62 60
        E 0 90 55 60
        E 0 90 56 60
        E 0 90 49 60
        E 0 90 4a 60
        E 0 90 3d 60
        E 30 80 1a 00
        E 0 80 1f 00
        E 0 80 61 00
        E 0 80 62 00
        E 0 80 55 00
        E 0 80 56 00
        E 0 80 49 00
        E 0 80 4a 00
        E 0 80 3d 00
        E 210 90 1b 60
        E 0 90 61 60
        E 0 90 55 60
        E 30 80 1b 00
        E 0 80 61 00
        E 0 80 55 00
        E 90 90 1a 60
        E 0 90 61 60
        E 30 80 1a 00
        E 0 80 61 00
        E 90 90 18 60
        E 0 90 2a 60
        E 0 90 60 60
        E 0 90 63 60
        E 0 90 54 60
        E 0 90 57 60
        E 0 90 48 60
        E 0 90 4b 60
        E 0 90 3f 60
        E 30 80 18 00
        E 0 80 2a 00
        E 0 80 60 00
        E 0 80 63 00
        E 0 80 54 00
        E 0 80 57 00
        E 0 80 48 00
        E 0 80 4b 00
        E 0 80 3f 00
        E 450 90 18 60
        E 0 90 1f 60
        E 0 90 60 60
        E 0 90 62 60
        E 0 90 54 60
        E 0 90 56 60
        E 0 90 48 60
        E 0 90 4a 60
        E 0 90 3e 60
        E 30 80 18 00
        E 0 80 1f 00
        E 0 80 60 00
        E 0 80 62 00
        E 0 80 54 00
        E 0 80 56 00
        E 0 80 48 00
        E 0 80 4a 00
        E 0 80 3e 00
        E 210 90 1a 60
        E 0 90 2a 60
        E 0 90 61 60
        E 0 90 63 60
        E 0 90 55 60
        E 0 90 57 60
        E 30 80 1a 00
        E 0 80 2a 00
        E 0 80 61 00
        E 0 80 63 00
        E 0 80 55 00
        E 0 80 57 00
        E 450 90 18 60
        E 0 90 1f 60
        E 0 90 60 60
        E 0 90 62 60
        E 0 90 54 60
        E 0 90 56 60
        E 30 80 18 00
        E 0 80 1f 00
        E 0 80 60 00
        E 0 80 62 00
        E 0 80 54 00
        E 0 80 56 00
        E 210 90 18 60
        E 0 90 1f 60
        E 0 90 60 60
        E 0 90 62 60
        E 0 90 54 60
        E 0 90 56 60
        E 0 90 48 60
        E 0 90 4a 60
        E 0 90 3e 60
        E 30 80 18 00
        E 0 80 1f 00
        E 0 80 60 00
        E 0 80 62 00
        E 0 80 54 00
        E 0 80 56 00
        E 0 80 48 00
        E 0 80 4a 00
        E 0 80 3e 00
        E 210 90 1a 60
        E 0 90 61 60
        E 0 90 55 60
        E 30 80 1a 00
        E 0 80 61 00
        E 0 80 55 00
        E 210 90 1b 60
        E 0 90 61 60
        E 0 90 55 60
        E 0 90 49 60
        E 0 90 3d 60
        E 30 80 1b 00
        E 0 80 61 00
        E 0 80 55 00
        E 0 80 49 00
        E 0 80 3d 00
        E 90 90 1a 60
        E 0 90 61 60
        E 30 80 1a 00
        E 0 80 61 00
        E 90 90 1f 60
        E 0 90 62 60
        E 0 90 56 60
        E 30 80 1f 00
        E 0 80 62 00
        E 0 80 56 00
        E 210 90 1b 60
        E 0 90 61 60
        E 0 90 55 60
        E 0 90 49 60
        E 0 90 3d 60
        E 30 80 1b 00
        E 0 80 61 00
        E 0 80 55 00
        E 0 80 49 00
        E 0 80 3d 00
        E 90 90 1a 60
        E 0 90 61 60
        E 30 80 1a 00
        E 0 80 61 00
        E 90 90 1b 60
        E 0 90 61 60
        E 0 90 55 60
        E 30 80 1b 00
        E 0 80 61 00
        E 0 80 55 00
        E 90 90 1a 60
        E 0 90 61 60
        E 30 80 1a 00
        E 0 80 61 00
        E 90 90 18 60
        E 0 90 24 60
        E 0 90 60 60
        E 0 90 64 60
        E 0 90 54 60
        E 0 90 58 60
        E 0 90 48 60
        E 0 90 4c 60
        E 0 90 40 60
        E 30 80 18 00
        E 0 80 24 00
        E 0 80 60 00
        E 0 80 64 00
        E 0 80 54 00
        E 0 80 58 00
        E 0 80 48 00
        E 0 80 4c 00
        E 0 80 40 00
        E 169 90 1a 60
        E 0 90 61 60
        E 30 80 1a 00
        E 0 80 61 00
        E 91 90 18 60
        E 0 90 24 60
        E 0 90 60 60
        E 0 90 64 60
        E 0 90 54 60
        E 0 90 58 60
        E 30 80 18 00
        E 0 80 24 00
        E 0 80 60 00
        E 0 80 64 00
        E 0 80 54 00
        E 0 80 58 00
        E 249 90 18 60
        E 0 90 60 60
        E 30 80 18 00
        E 0 80 60 00
        E 91 90 1a 60
        E 0 90 1f 60
        E 0 90 61 60
        E 0 90 62 60
        E 0 90 55 60
        E 0 90 56 60
        E 30 80 1a 00
        E 0 80 1f 00
        E 0 80 61 00
        E 0 80 62 00
        E 0 80 55 00
        E 0 80 56 00
        E 210 90 1f 60
        E 0 90 62 60
        E 0 90 56 60
        E 0 90 4a 60
        E 0 90 3e 60
        E 30 80 1f 00
        E 0 80 62 00
        E 0 80 56 00
        E 0 80 4a 00
        E 0 80 3e 00
        E 50 90 18 60
        E 0 90 60 60
        E 30 80 18 00
        E 0 80 60 00
        E 50 90 18 60
        E 0 90 60 60
        E 30 80 18 00
        E 0 80 60 00
        E 50 90 1a 60
        E 0 90 1f 60
        E 0 90 61 60
        E 0 90 62 60
        E 0 90 55 60
        E 0 90 56 60
        E 30 80 1a 00
        E 0 80 1f 00
        E 0 80 61 00
        E 0 80 62 00
        E 0 80 55 00
        E 0 80 56 00
        E 210 90 18 60
        E 0 90 1f 60
        E 0 90 60 60
        E 0 90 62 60
        E 0 90 54 60
        E 0 90 56 60
        E 0 90 48 60
        E 0 90 4a 60
        E 0 90 3e 60
        E 30 80 18 00
        E 0 80 1f 00
        E 0 80 60 00
        E 0 80 62 00
        E 0 80 54 00
        E 0 80 56 00
        E 0 80 48 00
        E 0 80 4a 00
        E 0 80 3e 00
        E 209 90 1a 60
        E 0 90 1f 60
        E 0 90 61 60
        E 0 90 62 60
        E 0 90 55 60
        E 0 90 56 60
        E 30 80 1a 00
        E 0 80 1f 00
        E 0 80 61 00
        E 0 80 62 00
        E 0 80 55 00
        E 0 80 56 00
        E 211 90 18 60
        E 0 90 24 60
        E 0 90 60 60
        E 0 90 64 60
        E 0 90 54 60
        E 0 90 58 60
        E 0 90 48 60
        E 0 90 4c 60
        E 0 90 40 60
        E 30 80 18 00
        E 0 80 24 00
        E 0 80 60 00
        E 0 80 64 00
        E 0 80 54 00
        E 0 80 58 00
        E 0 80 48 00
        E 0 80 4c 00
        E 0 80 40 00
        E 209 90 1b 60
        E 0 90 61 60
        E 0 90 55 60
        E 30 80 1b 00
        E 0 80 61 00
        E 0 80 55 00
        E 90 90 18 60
        E 0 90 1e 60
        E 0 90 60 60
        E 0 90 62 60
        E 30 80 18 00
        E 0 80 1e 00
        E 0 80 60 00
        E 0 80 62 00
        E 211 90 18 60
        E 0 90 60 60
        E 30 80 18 00
        E 0 80 60 00
        E 89 90 1a 60
        E 0 90 24 60
        E 0 90 61 60
        E 0 90 64 60
        E 0 90 55 60
        E 0 90 58 60
        E 30 80 1a 00
        E 0 80 24 00
        E 0 80 61 00
        E 0 80 64 00
        E 0 80 55 00
        E 0 80 58 00
        E 211 90 1f 60
        E 0 90 62 60
        E 0 90 56 60
        E 0 90 4a 60
        E 0 90 3e 60
        E 30 80 1f 00
        E 0 80 62 00
        E 0 80 56 00
        E 0 80 4a 00
        E 0 80 3e 00
        E 49 90 18 60
        E 0 90 60 60
        E 30 80 18 00
        E 0 80 60 00
        E 50 90 18 60
        E 0 90 60 60
        E 30 80 18 00
        E 0 80 60 00
        E 50 90 1a 60
        E 0 90 1f 60
        E 0 90 61 60
        E 0 90 62 60
        E 0 90 55 60
        E 0 90 56 60
        E 30 80 1a 00
        E 0 80 1f 00
        E 0 80 61 00
        E 0 80 62 00
        E 0 80 55 00
        E 0 80 56 00
        E 211 90 18 60
        E 0 90 1f 60
        E 0 90 60 60
        E 0 90 62 60
        E 0 90 54 60
        E 0 90 56 60
        E 0 90 48 60
        E 0 90 4a 60
        E 0 90 3e 60
        E 30 80 18 00
        E 0 80 1f 00
        E 0 80 60 00
        E 0 80 62 00
        E 0 80 54 00
        E 0 80 56 00
        E 0 80 48 00
        E 0 80 4a 00
        E 0 80 3e 00
        E 209 90 1a 60
        E 0 90 1f 60
        E 0 90 61 60
        E 0 90 62 60
        E 0 90 55 60
        E 0 90 56 60
        E 30 80 1a 00
        E 0 80 1f 00
        E 0 80 61 00
        E 0 80 62 00
        E 0 80 55 00
        E 0 80 56 00
        E 211 90 18 60
        E 0 90 24 60
        E 0 90 60 60
        E 0 90 64 60
        E 0 90 54 60
        E 0 90 58 60
        E 0 90 48 60
        E 0 90 4c 60
        E 0 90 40 60
        E 30 80 18 00
        E 0 80 24 00
        E 0 80 60 00
        E 0 80 64 00
        E 0 80 54 00
        E 0 80 58 00
        E 0 80 48 00
        E 0 80 4c 00
        E 0 80 40 00
        E 210 90 1b 60
        E 0 90 61 60
        E 0 90 55 60
        E 30 80 1b 00
        E 0 80 61 00
        E 0 80 55 00
        E 90 90 18 60
        E 0 90 22 60
        E 0 90 60 60
        E 0 90 64 60
        E 30 80 18 00
        E 0 80 22 00
        E 0 80 60 00
        E 0 80 64 00
        E 210 90 18 60
        E 0 90 60 60
        E 30 80 18 00
        E 0 80 60 00
        E 90 90 1a 60
        E 0 90 24 60
        E 0 90 61 60
        E 0 90 64 60
        E 0 90 55 60
        E 0 90 58 60
        E 30 80 1a 00
        E 0 80 24 00
        E 0 80 61 00
        E 0 80 64 00
        E 0 80 55 00
        E 0 80 58 00
        E 210 90 1f 60
        E 0 90 62 60
        E 0 90 56 60
        E 0 90 4a 60
        E 0 90 3e 60
        E 30 80 1f 00
        E 0 80 62 00
        E 0 80 56 00
        E 0 80 4a 00
        E 0 80 3e 00
        E 50 90 18 60
        E 0 90 60 60
        E 30 80 18 00
        E 0 80 60 00
        E 50 90 18 60
        E 0 90 60 60
        E 30 80 18 00
        E 0 80 60 00
        E 49 90 1a 60
        E 0 90 1f 60
        E 0 90 61 60
        E 0 90 62 60
        E 0 90 55 60
        E 0 90 56 60
        E 30 80 1a 00
        E 0 80 1f 00
        E 0 80 61 00
        E 0 80 62 00
        E 0 80 55 00
        E 0 80 56 00
        E 211 90 18 60
        E 0 90 1f 60
        E 0 90 60 60
        E 0 90 62 60
        E 0 90 54 60
        E 0 90 56 60
        E 0 90 48 60
        E 0 90 4a 60
        E 0 90 3e 60
        E 30 80 18 00
        E 0 80 1f 00
        E 0 80 60 00
        E 0 80 62 00
        E 0 80 54 00
        E 0 80 56 00
        E 0 80 48 00
        E 0 80 4a 00
        E 0 80 3e 00
        E 210 90 1a 60
        E 0 90 1f 60
        E 0 90 61 60
        E 0 90 62 60
        E 0 90 55 60
        E 0 90 56 60
        E 30 80 1a 00
        E 0 80 1f 00
        E 0 80 61 00
        E 0 80 62 00
        E 0 80 55 00
        E 0 80 56 00
        E 210 90 18 60
        E 0 90 24 60
        E 0 90 60 60
        E 0 90 64 60
        E 0 90 54 60
        E 0 90 58 60
        E 0 90 48 60
        E 0 90 4c 60
        E 0 90 40 60
        E 30 80 18 00
        E 0 80 24 00
        E 0 80 60 00
        E 0 80 64 00
        E 0 80 54 00
        E 0 80 58 00
        E 0 80 48 00
        E 0 80 4c 00
        E 0 80 40 00
        E 209 90 1b 60
        E 0 90 61 60
        E 0 90 55 60
        E 30 80 1b 00
        E 0 80 61 00
        E 0 80 55 00
        E 91 90 18 60
        E 0 90 22 60
        E 0 90 60 60
        E 0 90 64 60
        E 30 80 18 00
        E 0 80 22 00
        E 0 80 60 00
        E 0 80 64 00
        E 209 90 18 60
        E 0 90 60 60
        E 30 80 18 00
        E 0 80 60 00
        E 91 90 1a 60
        E 0 90 24 60
        E 0 90 61 60
        E 0 90 64 60
        E 0 90 55 60
        E 0 90 58 60
        E 30 80 1a 00
        E 0 80 24 00
        E 0 80 61 00
        E 0 80 64 00
        E 0 80 55 00
        E 0 80 58 00
        E 210 90 1f 60
        E 0 90 62 60
        E 0 90 56 60
        E 0 90 4a 60
        E 0 90 3e 60
        E 30 80 1f 00
        E 0 80 62 00
        E 0 80 56 00
        E 0 80 4a 00
        E 0 80 3e 00
        E 50 90 18 60
        E 0 90 60 60
        E 30 80 18 00
        E 0 80 60 00
        E 50 90 18 60
        E 0 90 60 60
        E 30 80 18 00
        E 0 80 60 00
        E 50 90 1a 60
        E 0 90 1f 60
        E 0 90 61 60
        E 0 90 62 60
        E 0 90 55 60
        E 0 90 56 60
        E 30 80 1a 00
        E 0 80 1f 00
        E 0 80 61 00
        E 0 80 62 00
        E 0 80 55 00
        E 0 80 56 00
        E 210 90 18 60
        E 0 90 1f 60
        E 0 90 60 60
        E 0 90 62 60
        E 0 90 54 60
        E 0 90 56 60
        E 0 90 48 60
        E 0 90 4a 60
        E 0 90 3e 60
        E 30 80 18 00
        E 0 80 1f 00
        E 0 80 60 00
        E 0 80 62 00
        E 0 80 54 00
        E 0 80 56 00
        E 0 80 48 00
        E 0 80 4a 00
        E 0 80 3e 00
        E 209 90 1a 60
        E 0 90 1f 60
        E 0 90 61 60
        E 0 90 62 60
        E 0 90 55 60
        E 0 90 56 60
        E 30 80 1a 00
        E 0 80 1f 00
        E 0 80 61 00
        E 0 80 62 00
        E 0 80 55 00
        E 0 80 56 00
        E 211 90 18 60
        E 0 90 1f 60
        E 0 90 60 60
        E 0 90 62 60
        E 0 90 74 60
        E 0 90 54 60
        E 0 90 56 60
        E 0 90 48 60
        E 0 90 4a 60
        E 0 90 3e 60
        E 30 80 18 00
        E 0 80 1f 00
        E 0 80 60 00
        E 0 80 62 00
        E 0 80 54 00
        E 0 80 56 00
        E 0 80 48 00
        E 0 80 4a 00
        E 0 80 3e 00
        E 450 90 18 60
        E 0 90 1f 60
        E 0 90 60 60
        E 0 90 62 60
        E 0 90 54 60
        E 0 90 56 60
        E 0 90 48 60
        E 0 90 4a 60
        E 0 90 3e 60
        E 80 80 18 00
        E 0 80 1f 00
        E 0 80 60 00
        E 0 80 62 00
        E 0 80 54 00
        E 0 80 56 00
        E 0 80 48 00
        E 0 80 4a 00
        E 0 80 3e 00
        E 160 90 1a 60
        E 0 90 2a 60
        E 0 90 61 60
        E 0 90 63 60
        E 0 90 55 60
        E 0 90 57 60
        E 80 80 1a 00
        E 0 80 2a 00
        E 0 80 61 00
        E 0 80 63 00
        E 0 80 55 00
        E 0 80 57 00
        E 400 90 18 60
        E 0 90 1f 60
        E 0 90 60 60
        E 0 90 62 60
        E 0 90 54 60
        E 0 90 56 60
        E 30 80 18 00
        E 0 80 1f 00
        E 0 80 60 00
        E 0 80 62 00
        E 0 80 54 00
        E 0 80 56 00
        E 210 90 18 60
        E 0 90 2a 60
        E 0 90 60 60
        E 0 90 63 60
        E 0 90 54 60
        E 0 90 57 60
        E 0 90 48 60
        E 0 90 4b 60
        E 0 90 3f 60
        E 30 80 18 00
        E 0 80 2a 00
        E 0 80 60 00
        E 0 80 63 00
        E 0 80 54 00
        E 0 80 57 00
        E 0 80 48 00
        E 0 80 4b 00
        E 0 80 3f 00
        E 450 80 74 00
        E 0 90 18 60
        E 0 90 2a 60
        E 0 90 60 60
        E 0 90 63 60
        E 0 90 54 60
        E 0 90 57 60
        E 0 90 48 60
        E 0 90 4b 60
        E 0 90 3f 60
        E 30 80 18 00
        E 0 80 2a 00
        E 0 80 60 00
        E 0 80 63 00
        E 0 80 54 00
        E 0 80 57 00
        E 0 80 48 00
        E 0 80 4b 00
        E 0 80 3f 00
        E 450 90 1a 60
        E 0 90 1f 60
        E 0 90 61 60
        E 0 90 62 60
        E 0 90 55 60
        E 0 90 56 60
        E 0 90 49 60
        E 0 90 4a 60
        E 0 90 3d 60
        E 30 80 1a 00
        E 0 80 1f 00
        E 0 80 61 00
        E 0 80 62 00
        E 0 80 55 00
        E 0 80 56 00
        E 0 80 49 00
        E 0 80 4a 00
        E 0 80 3d 00
        E 210 90 1b 60
        E 0 90 61 60
        E 0 90 55 60
        E 30 80 1b 00
        E 0 80 61 00
        E 0 80 55 00
        E 90 90 1a 60
        E 0 90 61 60
        E 30 80 1a 00
        E 0 80 61 00
        E 90 90 18 60
        E 0 90 1f 60
        E 0 90 60 60
        E 0 90 62 60
        E 0 90 54 60
        E 0 90 56 60
        E 0 90 48 60
        E 0 90 4a 60
        E 0 90 3e 60
        E 60 80 18 00
        E 0 80 1f 00
        E 0 80 60 00
        E 0 80 62 00
        E 0 80 54 00
        E 0 80 56 00
        E 0 80 48 00
        E 0 80 4a 00
        E 0 80 3e 00
        E 420 90 18 60
        E 0 90 2a 60
        E 0 90 60 60
        E 0 90 63 60
        E 0 90 54 60
        E 0 90 57 60
        E 0 90 48 60
        E 0 90 4b 60
        E 0 90 3f 60
        E 30 80 18 00
        E 0 80 2a 00
        E 0 80 60 00
        E 0 80 63 00
        E 0 80 54 00
        E 0 80 57 00
        E 0 80 48 00
        E 0 80 4b 00
        E 0 80 3f 00
        E 209 90 1a 60
        E 0 90 2a 60
        E 0 90 61 60
        E 0 90 63 60
        E 0 90 55 60
        E 0 90 57 60
        E 30 80 1a 00
        E 0 80 2a 00
        E 0 80 61 00
        E 0 80 63 00
        E 0 80 55 00
        E 0 80 57 00
        E 451 90 18 60
        E 0 90 2a 60
        E 0 90 60 60
        E 0 90 63 60
        E 0 90 54 60
        E 0 90 57 60
        E 30 80 18 00
        E 0 80 2a 00
        E 0 80 60 00
        E 0 80 63 00
        E 0 80 54 00
        E 0 80 57 00
        E 210 90 18 60
        E 0 90 2a 60
        E 0 90 60 60
        E 0 90 63 60
        E 0 90 78 60
        E 0 90 79 60
        E 0 90 7a 60
        E 0 90 7b 60
        E 0 90 7c 60
        E 0 90 54 60
        E 0 90 57 60
        E 0 90 48 60
        E 0 90 4b 60
        E 0 90 3f 60
        E 30 80 18 00
        E 0 80 2a 00
        E 0 80 60 00
        E 0 80 63 00
        E 0 80 54 00
        E 0 80 57 00
        E 0 80 48 00
        E 0 80 4b 00
        E 0 80 3f 00
        E 209 90 1a 60
        E 0 90 61 60
        E 0 90 55 60
        E 30 80 1a 00
        E 0 80 61 00
        E 0 80 55 00
        E 211 90 1b 60
        E 0 90 61 60
        E 0 90 55 60
        E 0 90 49 60
        E 0 90 3d 60
        E 30 80 1b 00
        E 0 80 61 00
        E 0 80 55 00
        E 0 80 49 00
        E 0 80 3d 00
        E 49 90 1a 60
        E 0 90 61 60
        E 30 80 1a 00
        E 0 80 61 00
        E 50 90 1b 60
        E 0 90 61 60
        E 30 80 1b 00
        E 0 80 61 00
        E 51 90 1a 60
        E 0 90 61 60
        E 0 90 55 60
        E 30 80 1a 00
        E 0 80 61 00
        E 0 80 55 00
        E 210 90 1b 60
        E 0 90 61 60
        E 0 90 55 60
        E 0 90 49 60
        E 0 90 3d 60
        E 30 80 1b 00
        E 0 80 61 00
        E 0 80 55 00
        E 0 80 49 00
        E 0 80 3d 00
        E 90 90 1a 60
        E 0 90 61 60
        E 30 80 1a 00
        E 0 80 61 00
        E 89 90 1b 60
        E 0 90 61 60
        E 0 90 55 60
        E 30 80 1b 00
        E 0 80 61 00
        E 0 80 55 00
        E 90 90 1a 60
        E 0 90 61 60
        E 30 80 1a 00
        E 0 80 61 00
        E 91 80 78 00
        E 0 80 79 00
        E 0 80 7a 00
        E 0 80 7b 00
        E 0 80 7c 00
        E 0 90 18 60
        E 0 90 24 60
        E 0 90 60 60
        E 0 90 64 60
        E 0 90 54 60
        E 0 90 58 60
        E 0 90 48 60
        E 0 90 4c 60
        E 0 90 40 60
        E 30 80 18 00
        E 0 80 24 00
        E 0 80 60 00
        E 0 80 64 00
        E 0 80 54 00
        E 0 80 58 00
        E 0 80 48 00
        E 0 80 4c 00
        E 0 80 40 00
        E 210 90 1b 60
        E 0 90 61 60
        E 0 90 55 60
        E 30 80 1b 00
        E 0 80 61 00
        E 0 80 55 00
        E 90 90 18 60
        E 0 90 22 60
        E 0 90 60 60
        E 0 90 64 60
        E 30 80 18 00
        E 0 80 22 00
        E 0 80 60 00
        E 0 80 64 00
        E 210 90 18 60
        E 0 90 60 60
        E 30 80 18 00
        E 0 80 60 00
        E 90 90 1a 60
        E 0 90 1f 60
        E 0 90 61 60
        E 0 90 62 60
        E 0 90 55 60
        E 0 90 56 60
        E 30 80 1a 00
        E 0 80 1f 00
        E 0 80 61 00
        E 0 80 62 00
        E 0 80 55 00
        E 0 80 56 00
        E 210 90 1f 60
        E 0 90 62 60
        E 0 90 56 60
        E 0 90 4a 60
        E 0 90 3e 60
        E 30 80 1f 00
        E 0 80 62 00
        E 0 80 56 00
        E 0 80 4a 00
        E 0 80 3e 00
        E 49 90 18 60
        E 0 90 60 60
        E 30 80 18 00
        E 0 80 60 00
        E 51 90 18 60
        E 0 90 60 60
        E 30 80 18 00
        E 0 80 60 00
        E 50 90 1a 60
        E 0 90 1f 60
        E 0 90 61 60
        E 0 90 62 60
        E 0 90 55 60
        E 0 90 56 60
        E 30 80 1a 00
        E 0 80 1f 00
        E 0 80 61 00
        E 0 80 62 00
        E 0 80 55 00
        E 0 80 56 00
        E 210 90 18 60
        E 0 90 1f 60
        E 0 90 60 60
        E 0 90 62 60
        E 0 90 54 60
        E 0 90 56 60
        E 0 90 48 60
        E 0 90 4a 60
        E 0 90 3e 60
        E 30 80 18 00
        E 0 80 1f 00
        E 0 80 60 00
        E 0 80 62 00
        E 0 80 54 00
        E 0 80 56 00
        E 0 80 48 00
        E 0 80 4a 00
        E 0 80 3e 00
        E 210 90 1a 60
        E 0 90 1f 60
        E 0 90 61 60
        E 0 90 62 60
        E 0 90 55 60
        E 0 90 56 60
        E 30 80 1a 00
        E 0 80 1f 00
        E 0 80 61 00
        E 0 80 62 00
        E 0 80 55 00
        E 0 80 56 00
        E 210 90 18 60
        E 0 90 1f 60
        E 0 90 60 60
        E 0 90 62 60
        E 0 90 54 60
        E 0 90 56 60
        E 0 90 48 60
        E 0 90 4a 60
        E 0 90 3e 60
        E 30 80 18 00
        E 0 80 1f 00
        E 0 80 60 00
        E 0 80 62 00
        E 0 80 54 00
        E 0 80 56 00
        E 0 80 48 00
        E 0 80 4a 00
        E 0 80 3e 00
        E 210 90 1b 60
        E 0 90 61 60
        E 0 90 55 60
        E 30 80 1b 00
        E 0 80 61 00
        E 0 80 55 00
        E 90 90 18 60
        E 0 90 1e 60
        E 0 90 60 60
        E 0 90 62 60
        E 30 80 18 00
        E 0 80 1e 00
        E 0 80 60 00
        E 0 80 62 00
        E 210 90 18 60
        E 0 90 60 60
        E 30 80 18 00
        E 0 80 60 00
        E 90 90 1a 60
        E 0 90 1f 60
        E 0 90 61 60
        E 0 90 62 60
        E 0 90 55 60
        E 0 90 56 60
        E 30 80 1a 00
        E 0 80 1f 00
        E 0 80 61 00
        E 0 80 62 00
        E 0 80 55 00
        E 0 80 56 00
        E 210 90 18 60
        E 0 90 1f 60
        E 0 90 60 60
        E 0 90 62 60
        E 0 90 54 60
        E 0 90 56 60
        E 0 90 48 60
        E 0 90 4a 60
        E 0 90 3e 60
        E 30 80 18 00
        E 0 80 1f 00
        E 0 80 60 00
        E 0 80 62 00
        E 0 80 54 00
        E 0 80 56 00
        E 0 80 48 00
        E 0 80 4a 00
        E 0 80 3e 00
        E 450 90 18 60
        E 0 90 1f 60
        E 0 90 60 60
        E 0 90 62 60
        E 0 90 54 60
        E 0 90 56 60
        E 0 90 48 60
        E 0 90 4a 60
        E 0 90 3e 60
        E 60 80 18 00
        E 0 80 1f 00
        E 0 80 60 00
        E 0 80 62 00
        E 0 80 54 00
        E 0 80 56 00
        E 0 80 48 00
        E 0 80 4a 00
        E 0 80 3e 00
        E 180 90 1a 60
        E 0 90 2a 60
        E 0 90 61 60
        E 0 90 63 60
        E 0 90 55 60
        E 0 90 57 60
        E 60 80 1a 00
        E 0 80 2a 00
        E 0 80 61 00
        E 0 80 63 00
        E 0 80 55 00
        E 0 80 57 00
        E 420 90 18 60
        E 0 90 1f 60
        E 0 90 60 60
        E 0 90 62 60
        E 0 90 54 60
        E 0 90 56 60
        E 60 80 18 00
        E 0 80 1f 00
        E 0 80 60 00
        E 0 80 62 00
        E 0 80 54 00
        E 0 80 56 00
        E 179 90 18 60
        E 0 90 2a 60
        E 0 90 60 60
        E 0 90 63 60
        E 0 90 54 60
        E 0 90 57 60
        E 0 90 48 60
        E 0 90 4b 60
        E 0 90 3f 60
        E 30 80 18 00
        E 0 80 2a 00
        E 0 80 60 00
        E 0 80 63 00
        E 0 80 54 00
        E 0 80 57 00
        E 0 80 48 00
        E 0 80 4b 00
        E 0 80 3f 00
        E 451 90 18 60
        E 0 90 2a 60
        E 0 90 60 60
        E 0 90 63 60
        E 0 90 54 60
        E 0 90 57 60
        E 0 90 48 60
        E 0 90 4b 60
        E 0 90 3f 60
        E 60 80 18 00
        E 0 80 2a 00
        E 0 80 60 00
        E 0 80 63 00
        E 0 80 54 00
        E 0 80 57 00
        E 0 80 48 00
        E 0 80 4b 00
        E 0 80 3f 00
        E 420 90 1a 60
        E 0 90 1f 60
        E 0 90 61 60
        E 0 90 62 60
        E 0 90 55 60
        E 0 90 56 60
        E 0 90 49 60
        E 0 90 4a 60
        E 0 90 3d 60
        E 30 80 1a 00
        E 0 80 1f 00
        E 0 80 61 00
        E 0 80 62 00
        E 0 80 55 00
        E 0 80 56 00
        E 0 80 49 00
        E 0 80 4a 00
        E 0 80 3d 00
        E 210 90 1b 60
        E 0 90 61 60
        E 0 90 55 60
        E 30 80 1b 00
        E 0 80 61 00
        E 0 80 55 00
        E 89 90 1a 60
        E 0 90 61 60
        E 30 80 1a 00
        E 0 80 61 00
        E 91 90 18 60
        E 0 90 1f 60
        E 0 90 60 60
        E 0 90 62 60
        E 0 90 54 60
        E 0 90 56 60
        E 0 90 48 60
        E 0 90 4a 60
        E 0 90 3e 60
        E 30 80 18 00
        E 0 80 1f 00
        E 0 80 60 00
        E 0 80 62 00
        E 0 80 54 00
        E 0 80 56 00
        E 0 80 48 00
        E 0 80 4a 00
        E 0 80 3e 00
        E 450 90 18 60
        E 0 90 1f 60
        E 0 90 60 60
        E 0 90 62 60
        E 0 90 54 60
        E 0 90 56 60
        E 0 90 48 60
        E 0 90 4a 60
        E 0 90 3e 60
        E 60 80 18 00
        E 0 80 1f 00
        E 0 80 60 00
        E 0 80 62 00
        E 0 80 54 00
        E 0 80 56 00
        E 0 80 48 00
        E 0 80 4a 00
        E 0 80 3e 00
        E 180 90 1a 60
        E 0 90 2a 60
        E 0 90 61 60
        E 0 90 63 60
        E 0 90 55 60
        E 0 90 57 60
        E 60 80 1a 00
        E 0 80 2a 00
        E 0 80 61 00
        E 0 80 63 00
        E 0 80 55 00
        E 0 80 57 00
        E 419 90 18 60
        E 0 90 1f 60
        E 0 90 60 60
        E 0 90 62 60
        E 0 90 54 60
        E 0 90 56 60
        E 30 80 18 00
        E 0 80 1f 00
        E 0 80 60 00
        E 0 80 62 00
        E 0 80 54 00
        E 0 80 56 00
        E 211 90 18 60
        E 0 90 1f 60
        E 0 90 60 60
        E 0 90 62 60
        E 0 90 54 60
        E 0 90 56 60
        E 0 90 48 60
        E 0 90 4a 60
        E 0 90 3e 60
        E 30 80 18 00
        E 0 80 1f 00
        E 0 80 60 00
        E 0 80 62 00
        E 0 80 54 00
        E 0 80 56 00
        E 0 80 48 00
        E 0 80 4a 00
        E 0 80 3e 00
        E 210 90 1b 60
        E 0 90 61 60
        E 0 90 55 60
        E 30 80 1b 00
        E 0 80 61 00
        E 0 80 55 00
        E 90 90 1a 60
        E 0 90 61 60
        E 30 80 1a 00
        E 0 80 61 00
        E 90 90 1b 60
        E 0 90 61 60
        E 0 90 55 60
        E 0 90 49 60
        E 0 90 3d 60
        E 30 80 1b 00
        E 0 80 61 00
        E 0 80 55 00
        E 0 80 49 00
        E 0 80 3d 00
        E 89 90 1a 60
        E 0 90 61 60
        E 30 80 1a 00
        E 0 80 61 00
        E 90 90 1b 60
        E 0 90 61 60
        E 0 90 55 60
        E 30 80 1b 00
        E 0 80 61 00
        E 0 80 55 00
        E 90 90 1a 60
        E 0 90 61 60
        E 30 80 1a 00
        E 0 80 61 00
        E 91 90 1b 60
        E 0 90 61 60
        E 0 90 55 60
        E 0 90 49 60
        E 0 90 3d 60
        E 30 80 1b 00
        E 0 80 61 00
        E 0 80 55 00
        E 0 80 49 00
        E 0 80 3d 00
        E 90 90 1a 60
        E 0 90 61 60
        E 30 80 1a 00
        E 0 80 61 00
        E 90 90 1b 60
        E 0 90 61 60
        E 0 90 55 60
        E 30 80 1b 00
        E 0 80 61 00
        E 0 80 55 00
        E 90 90 1a 60
        E 0 90 61 60
        E 30 80 1a 00
        E 0 80 61 00
        E 90 90 1b 60
        E 0 90 61 60
        E 0 90 55 60
        E 0 90 49 60
        E 0 90 3d 60
        E 30 80 1b 00
        E 0 80 61 00
        E 0 80 55 00
        E 0 80 49 00
        E 0 80 3d 00
        E 49 90 1a 60
        E 0 90 61 60
        E 30 80 1a 00
        E 0 80 61 00
        E 51 90 1b 60
        E 0 90 61 60
        E 30 80 1b 00
        E 0 80 61 00
        E 49 90 1a 60
        E 0 90 61 60
        E 0 90 55 60
        E 30 80 1a 00
        E 0 80 61 00
        E 0 80 55 00
        E 90 90 1b 60
        E 0 90 61 60
        E 30 80 1b 00
        E 0 80 61 00
        E 90 90 2e 60
        E 0 90 62 60
        E 0 90 56 60
        E 0 90 4a 60
        E 0 90 6e 60
        E 0 90 3e 60
        E 30 80 2e 00
        E 0 80 62 00
        E 0 80 56 00
        E 0 80 4a 00
        E 0 80 6e 00
        E 0 80 3e 00
        E 90 90 1b 60
        E 0 90 61 60
        E 30 80 1b 00
        E 0 80 61 00
        E 91 90 1a 60
        E 0 90 61 60
        E 0 90 55 60
        E 30 80 1a 00
        E 0 80 61 00
        E 0 80 55 00
        E 90 90 1b 60
        E 0 90 61 60
        E 30 80 1b 00
        E 0 80 61 00
        E 90 90 2e 60
        E 0 90 62 60
        E 0 90 56 60
        E 0 90 4a 60
        E 0 90 6e 60
        E 0 90 3e 60
        E 30 80 2e 00
        E 0 80 62 00
        E 0 80 56 00
        E 0 80 4a 00
        E 0 80 6e 00
        E 0 80 3e 00
        E 90 90 1b 60
        E 0 90 61 60
        E 30 80 1b 00
        E 0 80 61 00
        E 90 90 1a 60
        E 0 90 61 60
        E 0 90 55 60
        E 30 80 1a 00
        E 0 80 61 00
        E 0 80 55 00
        E 90 90 1b 60
        E 0 90 61 60
        E 30 80 1b 00
        E 0 80 61 00
        E 90 90 1a 60
        E 0 90 61 60
        E 0 90 55 60
        E 0 90 49 60
        E 0 90 3d 60
        E 30 80 1a 00
        E 0 80 61 00
        E 0 80 55 00
        E 0 80 49 00
        E 0 80 3d 00
        E 89 90 1b 60
        E 0 90 61 60
        E 30 80 1b 00
        E 0 80 61 00
        E 90 90 1a 60
        E 0 90 61 60
        E 0 90 55 60
        E 30 80 1a 00
        E 0 80 61 00
        E 0 80 55 00
        E 90 90 1b 60
        E 0 90 61 60
        E 30 80 1b 00
        E 0 80 61 00
        E 91 90 2e 60
        E 0 90 62 60
        E 0 90 56 60
        E 0 90 4a 60
        E 0 90 6e 60
        E 0 90 3e 60
        E 30 80 2e 00
        E 0 80 62 00
        E 0 80 56 00
        E 0 80 4a 00
        E 0 80 6e 00
        E 0 80 3e 00
        E 90 90 2f 60
        E 0 90 62 60
        E 0 90 6e 60
        E 30 80 2f 00
        E 0 80 62 00
        E 0 80 6e 00
        E 90 90 1a 60
        E 0 90 61 60
        E 0 90 55 60
        E 30 80 1a 00
        E 0 80 61 00
        E 0 80 55 00
        E 90 90 1b 60
        E 0 90 61 60
        E 30 80 1b 00
        E 0 80 61 00
        E 90 90 30 60
        E 0 90 63 60
        E 0 90 57 60
        E 0 90 4b 60
        E 0 90 6f 60
        E 0 90 3f 60
        E 30 80 30 00
        E 0 80 63 00
        E 0 80 57 00
        E 0 80 4b 00
        E 0 80 6f 00
        E 0 80 3f 00
        E 89 90 1b 60
        E 0 90 61 60
        E 30 80 1b 00
        E 0 80 61 00
        E 90 90 1a 60
        E 0 90 61 60
        E 0 90 55 60
        E 30 80 1a 00
        E 0 80 61 00
        E 0 80 55 00
        E 90 90 1b 60
        E 0 90 61 60
        E 30 80 1b 00
        E 0 80 61 00
        E 90 90 1a 60
        E 0 90 61 60
        E 0 90 55 60
        E 0 90 49 60
        E 0 90 3d 60
        E 30 80 1a 00
        E 0 80 61 00
        E 0 80 55 00
        E 0 80 49 00
        E 0 80 3d 00
        E 90 90 1b 60
        E 0 90 61 60
        E 30 80 1b 00
        E 0 80 61 00
        E 91 90 1a 60
        E 0 90 61 60
        E 0 90 55 60
        E 30 80 1a 00
        E 0 80 61 00
        E 0 80 55 00
        E 90 90 1b 60
        E 0 90 61 60
        E 30 80 1b 00
        E 0 80 61 00
        E 90 90 2e 60
        E 0 90 62 60
        E 0 90 56 60
        E 0 90 4a 60
        E 0 90 6e 60
        E 0 90 3e 60
        E 30 80 2e 00
        E 0 80 62 00
        E 0 80 56 00
        E 0 80 4a 00
        E 0 80 6e 00
        E 0 80 3e 00
        E 90 90 2f 60
        E 0 90 62 60
        E 0 90 6e 60
        E 30 80 2f 00
        E 0 80 62 00
        E 0 80 6e 00
        E 90 90 2e 60
        E 0 90 62 60
        E 0 90 56 60
        E 0 90 6e 60
        E 30 80 2e 00
        E 0 80 62 00
        E 0 80 56 00
        E 0 80 6e 00
        E 90 90 2f 60
        E 0 90 62 60
        E 0 90 6e 60
        E 30 80 2f 00
        E 0 80 62 00
        E 0 80 6e 00
        E 90 90 2e 60
        E 0 90 62 60
        E 0 90 56 60
        E 0 90 4a 60
        E 0 90 6e 60
        E 0 90 3e 60
        E 30 80 2e 00
        E 0 80 62 00
        E 0 80 56 00
        E 0 80 4a 00
        E 0 80 6e 00
        E 0 80 3e 00
        E 89 90 2f 60
        E 0 90 62 60
        E 0 90 6e 60
        E 30 80 2f 00
        E 0 80 62 00
        E 0 80 6e 00
        E 90 90 2e 60
        E 0 90 62 60
        E 0 90 56 60
        E 0 90 6e 60
        E 30 80 2e 00
        E 0 80 62 00
        E 0 80 56 00
        E 0 80 6e 00
        E 90 90 2f 60
        E 0 90 62 60
        E 0 90 6e 60
        E 30 80 2f 00
        E 0 80 62 00
        E 0 80 6e 00
        E 91 90 30 60
        E 0 90 63 60
        E 0 90 57 60
        E 0 90 4b 60
        E 0 90 6f 60
        E 0 90 3f 60
        E 30 80 30 00
        E 0 80 63 00
        E 0 80 57 00
        E 0 80 4b 00
        E 0 80 6f 00
        E 0 80 3f 00
        E 90 90 31 60
        E 0 90 63 60
        E 0 90 6f 60
        E 30 80 31 00
        E 0 80 63 00
        E 0 80 6f 00
        E 90 90 30 60
        E 0 90 63 60
        E 0 90 57 60
        E 0 90 6f 60
        E 30 80 30 00
        E 0 80 63 00
        E 0 80 57 00
        E 0 80 6f 00
        E 90 90 31 60
        E 0 90 63 60
        E 0 90 6f 60
        E 30 80 31 00
        E 0 80 63 00
        E 0 80 6f 00
        E 90 90 30 60
        E 0 90 63 60
        E 0 90 57 60
        E 0 90 4b 60
        E 0 90 6f 60
        E 0 90 3f 60
        E 30 80 30 00
        E 0 80 63 00
        E 0 80 57 00
        E 0 80 4b 00
        E 0 80 6f 00
        E 0 80 3f 00
        E 89 90 31 60
        E 0 90 63 60
        E 0 90 6f 60
        E 30 80 31 00
        E 0 80 63 00
        E 0 80 6f 00
        E 90 90 30 60
        E 0 90 63 60
        E 0 90 57 60
        E 0 90 6f 60
        E 30 80 30 00
        E 0 80 63 00
        E 0 80 57 00
        E 0 80 6f 00
        E 90 90 31 60
        E 0 90 63 60
        E 0 90 6f 60
        E 30 80 31 00
        E 0 80 63 00
        E 0 80 6f 00
        E 90 90 32 60
        E 0 90 64 60
        E 0 90 58 60
        E 0 90 4c 60
        E 0 90 70 60
        E 0 90 40 60
        E 30 80 32 00
        E 0 80 64 00
        E 0 80 58 00
        E 0 80 4c 00
        E 0 80 70 00
        E 0 80 40 00
        E 90 90 33 60
        E 0 90 64 60
        E 0 90 70 60
        E 30 80 33 00
        E 0 80 64 00
        E 0 80 70 00
        E 91 90 32 60
        E 0 90 64 60
        E 0 90 58 60
        E 0 90 70 60
        E 30 80 32 00
        E 0 80 64 00
        E 0 80 58 00
        E 0 80 70 00
        E 90 90 33 60
        E 0 90 64 60
        E 0 90 70 60
        E 30 80 33 00
        E 0 80 64 00
        E 0 80 70 00
        E 90 90 18 60
        E 0 90 22 60
        E 0 90 60 60
        E 0 90 64 60
        E 0 90 74 60
        E 0 90 54 60
        E 0 90 58 60
        E 0 90 48 60
        E 0 90 4c 60
        E 0 90 40 60
        E 30 80 18 00
        E 0 80 22 00
        E 0 80 60 00
        E 0 80 64 00
        E 0 80 54 00
        E 0 80 58 00
        E 0 80 48 00
        E 0 80 4c 00
        E 0 80 40 00
        E 210 90 1b 60
        E 0 90 61 60
        E 0 90 55 60
        E 60 80 1b 00
        E 0 80 61 00
        E 0 80 55 00
        E 60 90 1a 60
        E 0 90 61 60
        E 60 80 1a 00
        E 0 80 61 00
        E 60 90 18 60
        E 0 90 2a 60
        E 0 90 60 60
        E 0 90 63 60
        E 0 90 54 60
        E 0 90 57 60
        E 0 90 48 60
        E 0 90 4b 60
        E 0 90 3f 60
        E 60 80 18 00
        E 0 80 2a 00
        E 0 80 60 00
        E 0 80 63 00
        E 0 80 54 00
        E 0 80 57 00
        E 0 80 48 00
        E 0 80 4b 00
        E 0 80 3f 00
        E 180 90 1a 60
        E 0 90 2a 60
        E 0 90 61 60
        E 0 90 63 60
        E 0 90 55 60
        E 0 90 57 60
        E 30 80 1a 00
        E 0 80 2a 00
        E 0 80 61 00
        E 0 80 63 00
        E 0 80 55 00
        E 0 80 57 00
        E 210 90 2a 60
        E 0 90 63 60
        E 0 90 57 60
        E 0 90 4b 60
        E 0 90 3f 60
        E 30 80 2a 00
        E 0 80 63 00
        E 0 80 57 00
        E 0 80 4b 00
        E 0 80 3f 00
        E 210 90 18 60
        E 0 90 2a 60
        E 0 90 60 60
        E 0 90 63 60
        E 0 90 54 60
        E 0 90 57 60
        E 60 80 18 00
        E 0 80 2a 00
        E 0 80 60 00
        E 0 80 63 00
        E 0 80 54 00
        E 0 80 57 00
        E 180 90 18 60
        E 0 90 2a 60
        E 0 90 60 60
        E 0 90 63 60
        E 0 90 54 60
        E 0 90 57 60
        E 0 90 48 60
        E 0 90 4b 60
        E 0 90 3f 60
        E 30 80 18 00
        E 0 80 2a 00
        E 0 80 60 00
        E 0 80 63 00
        E 0 80 54 00
        E 0 80 57 00
        E 0 80 48 00
        E 0 80 4b 00
        E 0 80 3f 00
        E 209 90 2a 60
        E 0 90 63 60
        E 0 90 57 60
        E 30 80 2a 00
        E 0 80 63 00
        E 0 80 57 00
        E 210 90 18 60
        E 0 90 2a 60
        E 0 90 60 60
        E 0 90 63 60
        E 0 90 54 60
        E 0 90 57 60
        E 0 90 48 60
        E 0 90 4b 60
        E 0 90 3f 60
        E 1 80 74 00
        E 29 80 18 00
        E 0 80 2a 00
        E 0 80 60 00
        E 0 80 63 00
        E 0 80 54 00
        E 0 80 57 00
        E 0 80 48 00
        E 0 80 4b 00
        E 0 80 3f 00
        E 211 90 2a 60
        E 0 90 63 60
        E 0 90 57 60
        E 30 80 2a 00
        E 0 80 63 00
        E 0 80 57 00
        E 50 90 18 60
        E 0 90 60 60
        E 30 80 18 00
        E 0 80 60 00
        E 50 90 18 60
        E 0 90 60 60
        E 30 80 18 00
        E 0 80 60 00
        E 50 90 1a 60
        E 0 90 2a 60
        E 0 90 61 60
        E 0 90 63 60
        E 0 90 55 60
        E 0 90 57 60
        E 0 90 49 60
        E 0 90 4b 60
        E 0 90 3d 60
        E 30 80 1a 00
        E 0 80 2a 00
        E 0 80 61 00
        E 0 80 63 00
        E 0 80 55 00
        E 0 80 57 00
        E 0 80 49 00
        E 0 80 4b 00
        E 0 80 3d 00
        E 209 90 2a 60
        E 0 90 63 60
        E 0 90 57 60
        E 30 80 2a 00
        E 0 80 63 00
        E 0 80 57 00
        E 211 90 18 60
        E 0 90 2a 60
        E 0 90 60 60
        E 0 90 63 60
        E 0 90 54 60
        E 0 90 57 60
        E 0 90 48 60
        E 0 90 4b 60
        E 0 90 3f 60
        E 30 80 18 00
        E 0 80 2a 00
        E 0 80 60 00
        E 0 80 63 00
        E 0 80 54 00
        E 0 80 57 00
        E 0 80 48 00
        E 0 80 4b 00
        E 0 80 3f 00
        E 209 90 1b 60
        E 0 90 61 60
        E 0 90 55 60
        E 30 80 1b 00
        E 0 80 61 00
        E 0 80 55 00
        E 91 90 1a 60
        E 0 90 61 60
        E 30 80 1a 00
        E 0 80 61 00
        E 90 90 18 60
        E 0 90 2a 60
        E 0 90 60 60
        E 0 90 63 60
        E 0 90 54 60
        E 0 90 57 60
        E 0 90 48 60
        E 0 90 4b 60
        E 0 90 3f 60
        E 30 80 18 00
        E 0 80 2a 00
        E 0 80 60 00
        E 0 80 63 00
        E 0 80 54 00
        E 0 80 57 00
        E 0 80 48 00
        E 0 80 4b 00
        E 0 80 3f 00
        E 210 90 1a 60
        E 0 90 2a 60
        E 0 90 61 60
        E 0 90 63 60
        E 0 90 55 60
        E 0 90 57 60
        E 30 80 1a 00
        E 0 80 2a 00
        E 0 80 61 00
        E 0 80 63 00
        E 0 80 55 00
        E 0 80 57 00
        E 210 90 2a 60
        E 0 90 63 60
        E 0 90 57 60
        E 0 90 4b 60
        E 0 90 3f 60
        E 30 80 2a 00
        E 0 80 63 00
        E 0 80 57 00
        E 0 80 4b 00
        E 0 80 3f 00
        E 210 90 18 60
        E 0 90 2a 60
        E 0 90 60 60
        E 0 90 63 60
        E 0 90 54 60
        E 0 90 57 60
        E 30 80 18 00
        E 0 80 2a 00
        E 0 80 60 00
        E 0 80 63 00
        E 0 80 54 00
        E 0 80 57 00
        E 210 90 78 60
        E 0 90 79 60
        E 0 90 7a 60
        E 0 90 7b 60
        E 0 90 7c 60
        E 1 90 18 60
        E 0 90 2a 60
        E 0 90 60 60
        E 0 90 63 60
        E 0 90 54 60
        E 0 90 57 60
        E 0 90 48 60
        E 0 90 4b 60
        E 0 90 3f 60
        E 30 80 18 00
        E 0 80 2a 00
        E 0 80 60 00
        E 0 80 63 00
        E 0 80 54 00
        E 0 80 57 00
        E 0 80 48 00
        E 0 80 4b 00
        E 0 80 3f 00
        E 209 90 2a 60
        E 0 90 63 60
        E 0 90 57 60
        E 30 80 2a 00
        E 0 80 63 00
        E 0 80 57 00
        E 50 90 18 60
        E 0 90 60 60
        E 30 80 18 00
        E 0 80 60 00
        E 50 90 18 60
        E 0 90 60 60
        E 30 80 18 00
        E 0 80 60 00
        E 49 90 1a 60
        E 0 90 2a 60
        E 0 90 61 60
        E 0 90 63 60
        E 0 90 55 60
        E 0 90 57 60
        E 0 90 49 60
        E 0 90 4b 60
        E 0 90 3d 60
        E 30 80 1a 00
        E 0 80 2a 00
        E 0 80 61 00
        E 0 80 63 00
        E 0 80 55 00
        E 0 80 57 00
        E 0 80 49 00
        E 0 80 4b 00
        E 0 80 3d 00
        E 210 90 2a 60
        E 0 90 63 60
        E 0 90 57 60
        E 30 80 2a 00
        E 0 80 63 00
        E 0 80 57 00
        E 211 90 18 60
        E 0 90 2a 60
        E 0 90 60 60
        E 0 90 63 60
        E 0 90 54 60
        E 0 90 57 60
        E 0 90 48 60
        E 0 90 4b 60
        E 0 90 3f 60
        E 30 80 18 00
        E 0 80 2a 00
        E 0 80 60 00
        E 0 80 63 00
        E 0 80 54 00
        E 0 80 57 00
        E 0 80 48 00
        E 0 80 4b 00
        E 0 80 3f 00
        E 209 90 2a 60
        E 0 90 63 60
        E 0 90 57 60
        E 30 80 2a 00
        E 0 80 63 00
        E 0 80 57 00
        E 50 90 18 60
        E 0 90 60 60
        E 30 80 18 00
        E 0 80 60 00
        E 50 90 18 60
        E 0 90 60 60
        E 30 80 18 00
        E 0 80 60 00
        E 51 80 78 00
        E 0 80 79 00
        E 0 80 7a 00
        E 0 80 7b 00
        E 0 80 7c 00
        E 0 90 1a 60
        E 0 90 2a 60
        E 0 90 61 60
        E 0 90 63 60
        E 0 90 55 60
        E 0 90 57 60
        E 0 90 49 60
        E 0 90 4b 60
        E 0 90 3d 60
        E 30 80 1a 00
        E 0 80 2a 00
        E 0 80 61 00
        E 0 80 63 00
        E 0 80 55 00
        E 0 80 57 00
        E 0 80 49 00
        E 0 80 4b 00
        E 0 80 3d 00
        E 210 90 1b 60
        E 0 90 61 60
        E 0 90 55 60
        E 30 80 1b 00
        E 0 80 61 00
        E 0 80 55 00
        E 90 90 1a 60
        E 0 90 61 60
        E 30 80 1a 00
        E 0 80 61 00
        E 91 90 18 60
        E 0 90 2a 60
        E 0 90 60 60
        E 0 90 63 60
        E 0 90 54 60
        E 0 90 57 60
        E 0 90 48 60
        E 0 90 4b 60
        E 0 90 3f 60
        E 30 80 18 00
        E 0 80 2a 00
        E 0 80 60 00
        E 0 80 63 00
        E 0 80 54 00
        E 0 80 57 00
        E 0 80 48 00
        E 0 80 4b 00
        E 0 80 3f 00
        E 209 90 1a 60
        E 0 90 2a 60
        E 0 90 61 60
        E 0 90 63 60
        E 0 90 55 60
        E 0 90 57 60
        E 30 80 1a 00
        E 0 80 2a 00
        E 0 80 61 00
        E 0 80 63 00
        E 0 80 55 00
        E 0 80 57 00
        E 210 90 2a 60
        E 0 90 63 60
        E 0 90 57 60
        E 0 90 4b 60
        E 0 90 3f 60
        E 30 80 2a 00
        E 0 80 63 00
        E 0 80 57 00
        E 0 80 4b 00
        E 0 80 3f 00
        E 210 90 18 60
        E 0 90 2a 60
        E 0 90 60 60
        E 0 90 63 60
        E 0 90 54 60
        E 0 90 57 60
        E 30 80 18 00
        E 0 80 2a 00
        E 0 80 60 00
        E 0 80 63 00
        E 0 80 54 00
        E 0 80 57 00
        E 211 90 18 60
        E 0 90 2a 60
        E 0 90 60 60
        E 0 90 63 60
        E 0 90 54 60
        E 0 90 57 60
        E 0 90 48 60
        E 0 90 4b 60
        E 0 90 3f 60
        E 30 80 18 00
        E 0 80 2a 00
        E 0 80 60 00
        E 0 80 63 00
        E 0 80 54 00
        E 0 80 57 00
        E 0 80 48 00
        E 0 80 4b 00
        E 0 80 3f 00
        E 209 90 2a 60
        E 0 90 63 60
        E 0 90 57 60
        E 30 80 2a 00
        E 0 80 63 00
        E 0 80 57 00
        E 210 90 18 60
        E 0 90 2a 60
        E 0 90 60 60
        E 0 90 63 60
        E 0 90 54 60
        E 0 90 57 60
        E 0 90 48 60
        E 0 90 4b 60
        E 0 90 3f 60
        E 30 80 18 00
        E 0 80 2a 00
        E 0 80 60 00
        E 0 80 63 00
        E 0 80 54 00
        E 0 80 57 00
        E 0 80 48 00
        E 0 80 4b 00
        E 0 80 3f 00
        E 210 90 2a 60
        E 0 90 63 60
        E 0 90 57 60
        E 30 80 2a 00
        E 0 80 63 00
        E 0 80 57 00
        E 50 90 18 60
        E 0 90 60 60
        E 30 80 18 00
        E 0 80 60 00
        E 50 90 18 60
        E 0 90 60 60
        E 30 80 18 00
        E 0 80 60 00
        E 51 90 1a 60
        E 0 90 2a 60
        E 0 90 61 60
        E 0 90 63 60
        E 0 90 55 60
        E 0 90 57 60
        E 0 90 49 60
        E 0 90 4b 60
        E 0 90 3d 60
        E 30 80 1a 00
        E 0 80 2a 00
        E 0 80 61 00
        E 0 80 63 00
        E 0 80 55 00
        E 0 80 57 00
        E 0 80 49 00
        E 0 80 4b 00
        E 0 80 3d 00
        E 209 90 2a 60
        E 0 90 63 60
        E 0 90 57 60
        E 30 80 2a 00
        E 0 80 63 00
        E 0 80 57 00
        E 210 90 18 60
        E 0 90 2a 60
        E 0 90 60 60
        E 0 90 63 60
        E 0 90 54 60
        E 0 90 57 60
        E 0 90 48 60
        E 0 90 4b 60
        E 0 90 3f 60
        E 30 80 18 00
        E 0 80 2a 00
        E 0 80 60 00
        E 0 80 63 00
        E 0 80 54 00
        E 0 80 57 00
        E 0 80 48 00
        E 0 80 4b 00
        E 0 80 3f 00
        E 210 90 1b 60
        E 0 90 61 60
        E 0 90 55 60
        E 30 80 1b 00
        E 0 80 61 00
        E 0 80 55 00
        E 90 90 1a 60
        E 0 90 61 60
        E 30 80 1a 00
        E 0 80 61 00
        E 90 90 18 60
        E 0 90 2a 60
        E 0 90 60 60
        E 0 90 63 60
        E 0 90 54 60
        E 0 90 57 60
        E 0 90 48 60
        E 0 90 4b 60
        E 0 90 3f 60
        E 30 80 18 00
        E 0 80 2a 00
        E 0 80 60 00
        E 0 80 63 00
        E 0 80 54 00
        E 0 80 57 00
        E 0 80 48 00
        E 0 80 4b 00
        E 0 80 3f 00
        E 210 90 1a 60
        E 0 90 2a 60
        E 0 90 61 60
        E 0 90 63 60
        E 0 90 55 60
        E 0 90 57 60
        E 30 80 1a 00
        E 0 80 2a 00
        E 0 80 61 00
        E 0 80 63 00
        E 0 80 55 00
        E 0 80 57 00
        E 210 90 2a 60
        E 0 90 63 60
        E 0 90 57 60
        E 0 90 4b 60
        E 0 90 3f 60
        E 60 80 2a 00
        E 0 80 63 00
        E 0 80 57 00
        E 0 80 4b 00
        E 0 80 3f 00
        E 179 90 18 60
        E 0 90 2a 60
        E 0 90 60 60
        E 0 90 63 60
        E 0 90 54 60
        E 0 90 57 60
        E 30 80 18 00
        E 0 80 2a 00
        E 0 80 60 00
        E 0 80 63 00
        E 0 80 54 00
        E 0 80 57 00
        E 212 90 18 60
        E 0 90 2a 60
        E 0 90 60 60
        E 0 90 63 60
        E 0 90 54 60
        E 0 90 57 60
        E 0 90 48 60
        E 0 90 4b 60
        E 0 90 3f 60
        E 30 80 18 00
        E 0 80 2a 00
        E 0 80 60 00
        E 0 80 63 00
        E 0 80 54 00
        E 0 80 57 00
        E 0 80 48 00
        E 0 80 4b 00
        E 0 80 3f 00
        E 209 90 2a 60
        E 0 90 63 60
        E 0 90 57 60
        E 30 80 2a 00
        E 0 80 63 00
        E 0 80 57 00
        E 210 90 18 60
        E 0 90 2a 60
        E 0 90 60 60
        E 0 90 63 60
        E 0 90 54 60
        E 0 90 57 60
        E 0 90 48 60
        E 0 90 4b 60
        E 0 90 3f 60
        E 30 80 18 00
        E 0 80 2a 00
        E 0 80 60 00
        E 0 80 63 00
        E 0 80 54 00
        E 0 80 57 00
        E 0 80 48 00
        E 0 80 4b 00
        E 0 80 3f 00
        E 210 90 2a 60
        E 0 90 63 60
        E 0 90 57 60
        E 30 80 2a 00
        E 0 80 63 00
        E 0 80 57 00
        E 49 90 18 60
        E 0 90 60 60
        E 30 80 18 00
        E 0 80 60 00
        E 51 90 18 60
        E 0 90 60 60
        E 30 80 18 00
        E 0 80 60 00
        E 50 90 1a 60
        E 0 90 2a 60
        E 0 90 61 60
        E 0 90 63 60
        E 0 90 55 60
        E 0 90 57 60
        E 0 90 49 60
        E 0 90 4b 60
        E 0 90 3d 60
        E 30 80 1a 00
        E 0 80 2a 00
        E 0 80 61 00
        E 0 80 63 00
        E 0 80 55 00
        E 0 80 57 00
        E 0 80 49 00
        E 0 80 4b 00
        E 0 80 3d 00
        E 450 90 18 60
        E 0 90 24 60
        E 0 90 60 60
        E 0 90 64 60
        E 0 90 54 60
        E 0 90 58 60
        E 0 90 48 60
        E 0 90 4c 60
        E 0 90 40 60
        E 30 80 18 00
        E 0 80 24 00
        E 0 80 60 00
        E 0 80 64 00
        E 0 80 54 00
        E 0 80 58 00
        E 0 80 48 00
        E 0 80 4c 00
        E 0 80 40 00
        E 290 90 18 60
        E 0 90 22 60
        E 0 90 26 60
        E 0 90 60 60
        E 0 90 62 60
        E 0 90 64 60
        E 0 90 54 60
        E 0 90 56 60
        E 0 90 58 60
        E 80 80 18 00
        E 0 80 22 00
        E 0 80 26 00
        E 0 80 60 00
        E 0 80 62 00
        E 0 80 64 00
        E 0 80 54 00
        E 0 80 56 00
        E 0 80 58 00
        E 400 90 18 60
        E 0 90 60 60
        E 30 80 18 00
        E 0 80 60 00
        E 50 90 18 60
        E 0 90 60 60
        E 30 80 18 00
        E 0 80 60 00
        E 50 90 1a 60
        E 0 90 24 60
        E 0 90 61 60
        E 0 90 64 60
        E 0 90 55 60
        E 0 90 58 60
        E 0 90 49 60
        E 0 90 4c 60
        E 0 90 3d 60
        E 30 80 1a 00
        E 0 80 24 00
        E 0 80 61 00
        E 0 80 64 00
        E 0 80 55 00
        E 0 80 58 00
        E 0 80 49 00
        E 0 80 4c 00
        E 0 80 3d 00
        E 450 90 24 60
        E 0 90 64 60
        E 0 90 58 60
        E 0 90 4c 60
        E 0 90 40 60
        E 30 80 24 00
        E 0 80 64 00
        E 0 80 58 00
        E 0 80 4c 00
        E 0 80 40 00
        E 290 90 18 60
        E 0 90 60 60
        E 30 80 18 00
        E 0 80 60 00
        E 130 90 18 60
        E 0 90 24 60
        E 0 90 60 60
        E 0 90 64 60
        E 0 90 54 60
        E 0 90 58 60
        E 0 90 48 60
        E 0 90 4c 60
        E 0 90 40 60
        E 30 80 18 00
        E 0 80 24 00
        E 0 80 60 00
        E 0 80 64 00
        E 0 80 54 00
        E 0 80 58 00
        E 0 80 48 00
        E 0 80 4c 00
        E 0 80 40 00
        E 290 90 18 60
        E 0 90 22 60
        E 0 90 26 60
        E 0 90 60 60
        E 0 90 62 60
        E 0 90 64 60
        E 0 90 54 60
        E 0 90 56 60
        E 0 90 58 60
        E 30 80 18 00
        E 0 80 22 00
        E 0 80 26 00
        E 0 80 60 00
        E 0 80 62 00
        E 0 80 64 00
        E 0 80 54 00
        E 0 80 56 00
        E 0 80 58 00
        E 450 90 18 60
        E 0 90 60 60
        E 30 80 18 00
        E 0 80 60 00
        E 50 90 18 60
        E 0 90 60 60
        E 30 80 18 00
        E 0 80 60 00
        E 50 90 1a 60
        E 0 90 24 60
        E 0 90 61 60
        E 0 90 64 60
        E 0 90 55 60
        E 0 90 58 60
        E 0 90 49 60
        E 0 90 4c 60
        E 0 90 3d 60
        E 30 80 1a 00
        E 0 80 24 00
        E 0 80 61 00
        E 0 80 64 00
        E 0 80 55 00
        E 0 80 58 00
        E 0 80 49 00
        E 0 80 4c 00
        E 0 80 3d 00
        E 450 90 24 60
        E 0 90 64 60
        E 0 90 58 60
        E 0 90 4c 60
        E 0 90 40 60
        E 30 80 24 00
        E 0 80 64 00
        E 0 80 58 00
        E 0 80 4c 00
        E 0 80 40 00
        E 290 90 18 60
        E 0 90 60 60
        E 30 80 18 00
        E 0 80 60 00
        E 130 90 18 60
        E 0 90 24 60
        E 0 90 60 60
        E 0 90 64 60
        E 0 90 54 60
        E 0 90 58 60
        E 0 90 48 60
        E 0 90 4c 60
        E 0 90 40 60
        E 30 80 18 00
        E 0 80 24 00
        E 0 80 60 00
        E 0 80 64 00
        E 0 80 54 00
        E 0 80 58 00
        E 0 80 48 00
        E 0 80 4c 00
        E 0 80 40 00
        E 290 90 18 60
        E 0 90 22 60
        E 0 90 26 60
        E 0 90 60 60
        E 0 90 62 60
        E 0 90 64 60
        E 0 90 54 60
        E 0 90 56 60
        E 0 90 58 60
        E 80 80 18 00
        E 0 80 22 00
        E 0 80 26 00
        E 0 80 60 00
        E 0 80 62 00
        E 0 80 64 00
        E 0 80 54 00
        E 0 80 56 00
        E 0 80 58 00
        E 399 90 18 60
        E 0 90 60 60
        E 30 80 18 00
        E 0 80 60 00
        E 51 90 18 60
        E 0 90 60 60
        E 30 80 18 00
        E 0 80 60 00
        E 50 90 1a 60
        E 0 90 24 60
        E 0 90 61 60
        E 0 90 64 60
        E 0 90 55 60
        E 0 90 58 60
        E 0 90 49 60
        E 0 90 4c 60
        E 0 90 3d 60
        E 30 80 1a 00
        E 0 80 24 00
        E 0 80 61 00
        E 0 80 64 00
        E 0 80 55 00
        E 0 80 58 00
        E 0 80 49 00
        E 0 80 4c 00
        E 0 80 3d 00
        E 450 90 24 60
        E 0 90 64 60
        E 0 90 58 60
        E 0 90 4c 60
        E 0 90 40 60
        E 30 80 24 00
        E 0 80 64 00
        E 0 80 58 00
        E 0 80 4c 00
        E 0 80 40 00
        E 289 90 18 60
        E 0 90 60 60
        E 30 80 18 00
        E 0 80 60 00
        E 131 90 24 60
        E 0 90 64 60
        E 0 90 58 60
        E 0 90 4c 60
        E 0 90 40 60
        E 30 80 24 00
        E 0 80 64 00
        E 0 80 58 00
        E 0 80 4c 00
        E 0 80 40 00
        E 130 90 18 60
        E 0 90 60 60
        E 30 80 18 00
        E 0 80 60 00
        E 130 90 2e 60
        E 0 90 31 60
        E 0 90 62 60
        E 0 90 63 60
        E 0 90 6e 60
        E 0 90 6f 60
        E 30 80 2e 00
        E 0 80 31 00
        E 0 80 62 00
        E 0 80 63 00
        E 0 80 6e 00
        E 0 80 6f 00
        E 130 90 2e 60
        E 0 90 31 60
        E 0 90 62 60
        E 0 90 63 60
        E 0 90 56 60
        E 0 90 57 60
        E 0 90 4a 60
        E 0 90 4b 60
        E 0 90 6e 60
        E 0 90 6f 60
        E 0 90 3e 60
        E 0 90 3f 60
        E 30 80 2e 00
        E 0 80 31 00
        E 0 80 62 00
        E 0 80 63 00
        E 0 80 56 00
        E 0 80 57 00
        E 0 80 4a 00
        E 0 80 4b 00
        E 0 80 6e 00
        E 0 80 6f 00
        E 0 80 3e 00
        E 0 80 3f 00
        E 130 90 18 60
        E 0 90 60 60
        E 30 80 18 00
        E 0 80 60 00
        E 130 90 2e 60
        E 0 90 31 60
        E 0 90 62 60
        E 0 90 63 60
        E 0 90 6e 60
        E 0 90 6f 60
        E 30 80 2e 00
        E 0 80 31 00
        E 0 80 62 00
        E 0 80 63 00
        E 0 80 6e 00
        E 0 80 6f 00
        E 130 90 18 60
        E 0 90 60 60
        E 0 90 54 60
        E 0 90 48 60
        E 0 90 3c 60
        E 30 80 18 00
        E 0 80 60 00
        E 0 80 54 00
        E 0 80 48 00
        E 0 80 3c 00
        E 130 90 2e 60
        E 0 90 31 60
        E 0 90 62 60
        E 0 90 63 60
        E 0 90 6e 60
        E 0 90 6f 60
        E 30 80 2e 00
        E 0 80 31 00
        E 0 80 62 00
        E 0 80 63 00
        E 0 80 6e 00
        E 0 80 6f 00
        E 129 90 18 60
        E 0 90 60 60
        E 30 80 18 00
        E 0 80 60 00
        E 131 90 30 60
        E 0 90 33 60
        E 0 90 63 60
        E 0 90 64 60
        E 0 90 57 60
        E 0 90 58 60
        E 0 90 4b 60
        E 0 90 4c 60
        E 0 90 6f 60
        E 0 90 70 60
        E 0 90 3f 60
        E 0 90 40 60
        E 30 80 30 00
        E 0 80 33 00
        E 0 80 63 00
        E 0 80 64 00
        E 0 80 57 00
        E 0 80 58 00
        E 0 80 4b 00
        E 0 80 4c 00
        E 0 80 6f 00
        E 0 80 70 00
        E 0 80 3f 00
        E 0 80 40 00
        E 130 90 18 60
        E 0 90 60 60
        E 30 80 18 00
        E 0 80 60 00
        E 130 90 30 60
        E 0 90 33 60
        E 0 90 63 60
        E 0 90 64 60
        E 0 90 6f 60
        E 0 90 70 60
        E 30 80 30 00
        E 0 80 33 00
        E 0 80 63 00
        E 0 80 64 00
        E 0 80 6f 00
        E 0 80 70 00
        E 130 90 18 60
        E 0 90 24 60
        E 0 90 60 60
        E 0 90 64 60
        E 0 90 74 60
        E 0 90 54 60
        E 0 90 58 60
        E 0 90 48 60
        E 0 90 4c 60
        E 0 90 40 60
        E 30 80 18 00
        E 0 80 24 00
        E 0 80 60 00
        E 0 80 64 00
        E 0 80 54 00
        E 0 80 58 00
        E 0 80 48 00
        E 0 80 4c 00
        E 0 80 40 00
        E 290 90 18 60
        E 0 90 22 60
        E 0 90 26 60
        E 0 90 60 60
        E 0 90 62 60
        E 0 90 64 60
        E 0 90 54 60
        E 0 90 56 60
        E 0 90 58 60
        E 80 80 18 00
        E 0 80 22 00
        E 0 80 26 00
        E 0 80 60 00
        E 0 80 62 00
        E 0 80 64 00
        E 0 80 54 00
        E 0 80 56 00
        E 0 80 58 00
        E 399 90 18 60
        E 0 90 60 60
        E 30 80 18 00
        E 0 80 60 00
        E 51 90 18 60
        E 0 90 60 60
        E 30 80 18 00
        E 0 80 60 00
        E 50 90 1a 60
        E 0 90 24 60
        E 0 90 61 60
        E 0 90 64 60
        E 0 90 55 60
        E 0 90 58 60
        E 0 90 49 60
        E 0 90 4c 60
        E 0 90 3d 60
        E 30 80 1a 00
        E 0 80 24 00
        E 0 80 61 00
        E 0 80 64 00
        E 0 80 55 00
        E 0 80 58 00
        E 0 80 49 00
        E 0 80 4c 00
        E 0 80 3d 00
        E 450 90 24 60
        E 0 90 64 60
        E 0 90 58 60
        E 0 90 4c 60
        E 0 90 40 60
        E 30 80 24 00
        E 0 80 64 00
        E 0 80 58 00
        E 0 80 4c 00
        E 0 80 40 00
        E 290 90 18 60
        E 0 90 60 60
        E 30 80 18 00
        E 0 80 60 00
        E 130 80 74 00
        E 0 90 18 60
        E 0 90 24 60
        E 0 90 60 60
        E 0 90 64 60
        E 0 90 54 60
        E 0 90 58 60
        E 0 90 48 60
        E 0 90 4c 60
        E 0 90 40 60
        E 30 80 18 00
        E 0 80 24 00
        E 0 80 60 00
        E 0 80 64 00
        E 0 80 54 00
        E 0 80 58 00
        E 0 80 48 00
        E 0 80 4c 00
        E 0 80 40 00
        E 290 90 18 60
        E 0 90 22 60
        E 0 90 26 60
        E 0 90 60 60
        E 0 90 62 60
        E 0 90 64 60
        E 0 90 54 60
        E 0 90 56 60
        E 0 90 58 60
        E 80 80 18 00
        E 0 80 22 00
        E 0 80 26 00
        E 0 80 60 00
        E 0 80 62 00
        E 0 80 64 00
        E 0 80 54 00
        E 0 80 56 00
        E 0 80 58 00
        E 400 90 18 60
        E 0 90 60 60
        E 30 80 18 00
        E 0 80 60 00
        E 50 90 18 60
        E 0 90 60 60
        E 30 80 18 00
        E 0 80 60 00
        E 50 90 1a 60
        E 0 90 24 60
        E 0 90 61 60
        E 0 90 64 60
        E 0 90 55 60
        E 0 90 58 60
        E 0 90 49 60
        E 0 90 4c 60
        E 0 90 3d 60
        E 30 80 1a 00
        E 0 80 24 00
        E 0 80 61 00
        E 0 80 64 00
        E 0 80 55 00
        E 0 80 58 00
        E 0 80 49 00
        E 0 80 4c 00
        E 0 80 3d 00
        E 290 90 1a 60
        E 0 90 61 60
        E 30 80 1a 00
        E 0 80 61 00
        E 130 90 24 60
        E 0 90 64 60
        E 0 90 58 60
        E 0 90 4c 60
        E 0 90 40 60
        E 30 80 24 00
        E 0 80 64 00
        E 0 80 58 00
        E 0 80 4c 00
        E 0 80 40 00
        E 129 90 1a 60
        E 0 90 61 60
        E 30 80 1a 00
        E 0 80 61 00
        E 130 90 1b 60
        E 0 90 61 60
        E 30 80 1b 00
        E 0 80 61 00
        E 131 90 18 60
        E 0 90 22 60
        E 0 90 60 60
        E 0 90 64 60
        E 0 90 54 60
        E 0 90 58 60
        E 0 90 48 60
        E 0 90 4c 60
        E 0 90 40 60
        E 30 80 18 00
        E 0 80 60 00
        E 0 80 54 00
        E 0 80 48 00
        E 50 80 22 00
        E 0 80 64 00
        E 0 80 58 00
        E 0 80 4c 00
        E 0 80 40 00
        E 240 90 18 60
        E 0 90 22 60
        E 0 90 26 60
        E 0 90 60 60
        E 0 90 62 60
        E 0 90 64 60
        E 0 90 54 60
        E 0 90 56 60
        E 0 90 58 60
        E 80 80 18 00
        E 0 80 22 00
        E 0 80 26 00
        E 0 80 60 00
        E 0 80 62 00
        E 0 80 64 00
        E 0 80 54 00
        E 0 80 56 00
        E 0 80 58 00
        E 399 90 18 60
        E 0 90 60 60
        E 30 80 18 00
        E 0 80 60 00
        E 51 90 18 60
        E 0 90 60 60
        E 30 80 18 00
        E 0 80 60 00
        E 50 90 1a 60
        E 0 90 24 60
        E 0 90 61 60
        E 0 90 64 60
        E 0 90 55 60
        E 0 90 58 60
        E 0 90 49 60
        E 0 90 4c 60
        E 0 90 3d 60
        E 30 80 1a 00
        E 0 80 24 00
        E 0 80 61 00
        E 0 80 64 00
        E 0 80 55 00
        E 0 80 58 00
        E 0 80 49 00
        E 0 80 4c 00
        E 0 80 3d 00
        E 450 90 24 60
        E 0 90 64 60
        E 0 90 58 60
        E 0 90 4c 60
        E 0 90 40 60
        E 30 80 24 00
        E 0 80 64 00
        E 0 80 58 00
        E 0 80 4c 00
        E 0 80 40 00
        E 289 90 18 60
        E 0 90 60 60
        E 30 80 18 00
        E 0 80 60 00
        E 131 90 1a 60
        E 0 90 24 60
        E 0 90 61 60
        E 0 90 64 60
        E 0 90 78 60
        E 0 90 79 60
        E 0 90 7a 60
        E 0 90 7b 60
        E 0 90 7c 60
        E 0 90 55 60
        E 0 90 58 60
        E 0 90 49 60
        E 0 90 4c 60
        E 0 90 3d 60
        E 30 80 1a 00
        E 0 80 24 00
        E 0 80 61 00
        E 0 80 64 00
        E 0 80 55 00
        E 0 80 58 00
        E 0 80 49 00
        E 0 80 4c 00
        E 0 80 3d 00
        E 130 90 1a 60
        E 0 90 61 60
        E 30 80 1a 00
        E 0 80 61 00
        E 49 90 1b 60
        E 0 90 61 60
        E 0 90 55 60
        E 30 80 1b 00
        E 0 80 61 00
        E 0 80 55 00
        E 50 90 1a 60
        E 0 90 61 60
        E 30 80 1a 00
        E 0 80 61 00
        E 50 90 1b 60
        E 0 90 61 60
        E 30 80 1b 00
        E 0 80 61 00
        E 51 90 1a 60
        E 0 90 61 60
        E 0 90 55 60
        E 0 90 49 60
        E 0 90 3d 60
        E 30 80 1a 00
        E 0 80 61 00
        E 0 80 55 00
        E 0 80 49 00
        E 0 80 3d 00
        E 129 90 2f 60
        E 0 90 62 60
        E 0 90 6e 60
        E 30 80 2f 00
        E 0 80 62 00
        E 0 80 6e 00
        E 51 90 2e 60
        E 0 90 62 60
        E 0 90 56 60
        E 0 90 6e 60
        E 30 80 2e 00
        E 0 80 62 00
        E 0 80 56 00
        E 0 80 6e 00
        E 50 90 2f 60
        E 0 90 62 60
        E 0 90 6e 60
        E 30 80 2f 00
        E 0 80 62 00
        E 0 80 6e 00
        E 49 90 2e 60
        E 0 90 62 60
        E 0 90 6e 60
        E 30 80 2e 00
        E 0 80 62 00
        E 0 80 6e 00
        E 51 90 2f 60
        E 0 90 62 60
        E 0 90 56 60
        E 0 90 4a 60
        E 0 90 6e 60
        E 0 90 3e 60
        E 30 80 2f 00
        E 0 80 62 00
        E 0 80 56 00
        E 0 80 4a 00
        E 0 80 6e 00
        E 0 80 3e 00
        E 50 90 2e 60
        E 0 90 62 60
        E 0 90 6e 60
        E 30 80 2e 00
        E 0 80 62 00
        E 0 80 6e 00
        E 50 90 31 60
        E 0 90 63 60
        E 0 90 6f 60
        E 30 80 31 00
        E 0 80 63 00
        E 0 80 6f 00
        E 49 90 30 60
        E 0 90 63 60
        E 0 90 57 60
        E 0 90 6f 60
        E 30 80 30 00
        E 0 80 63 00
        E 0 80 57 00
        E 0 80 6f 00
        E 50 90 31 60
        E 0 90 63 60
        E 0 90 6f 60
        E 30 80 31 00
        E 0 80 63 00
        E 0 80 6f 00
        E 50 90 30 60
        E 0 90 63 60
        E 0 90 6f 60
        E 30 80 30 00
        E 0 80 63 00
        E 0 80 6f 00
        E 51 90 31 60
        E 0 90 63 60
        E 0 90 57 60
        E 0 90 4b 60
        E 0 90 6f 60
        E 0 90 3f 60
        E 30 80 31 00
        E 0 80 63 00
        E 0 80 57 00
        E 0 80 4b 00
        E 0 80 6f 00
        E 0 80 3f 00
        E 49 90 30 60
        E 0 90 63 60
        E 0 90 6f 60
        E 30 80 30 00
        E 0 80 63 00
        E 0 80 6f 00
        E 50 90 33 60
        E 0 90 64 60
        E 0 90 70 60
        E 30 80 33 00
        E 0 80 64 00
        E 0 80 70 00
        E 51 90 32 60
        E 0 90 64 60
        E 0 90 58 60
        E 0 90 70 60
        E 30 80 32 00
        E 0 80 64 00
        E 0 80 58 00
        E 0 80 70 00
        E 50 90 33 60
        E 0 90 64 60
        E 0 90 70 60
        E 30 80 33 00
        E 0 80 64 00
        E 0 80 70 00
        E 49 90 32 60
        E 0 90 64 60
        E 0 90 70 60
        E 30 80 32 00
        E 0 80 64 00
        E 0 80 70 00
        E 51 80 78 00
        E 0 80 79 00
        E 0 80 7a 00
        E 0 80 7b 00
        E 0 80 7c 00
        E 0 90 18 60
        E 0 90 24 60
        E 0 90 60 60
        E 0 90 64 60
        E 0 90 54 60
        E 0 90 58 60
        E 0 90 48 60
        E 0 90 4c 60
        E 0 90 40 60
        E 30 80 18 00
        E 0 80 24 00
        E 0 80 60 00
        E 0 80 64 00
        E 0 80 54 00
        E 0 80 58 00
        E 0 80 48 00
        E 0 80 4c 00
        E 0 80 40 00
        E 290 90 18 60
        E 0 90 22 60
        E 0 90 26 60
        E 0 90 60 60
        E 0 90 62 60
        E 0 90 64 60
        E 0 90 54 60
        E 0 90 56 60
        E 0 90 58 60
        E 80 80 18 00
        E 0 80 22 00
        E 0 80 26 00
        E 0 80 60 00
        E 0 80 62 00
        E 0 80 64 00
        E 0 80 54 00
        E 0 80 56 00
        E 0 80 58 00
        E 400 90 18 60
        E 0 90 60 60
        E 30 80 18 00
        E 0 80 60 00
        E 50 90 18 60
        E 0 90 60 60
        E 30 80 18 00
        E 0 80 60 00
        E 50 90 1a 60
        E 0 90 24 60
        E 0 90 61 60
        E 0 90 64 60
        E 0 90 55 60
        E 0 90 58 60
        E 0 90 49 60
        E 0 90 4c 60
        E 0 90 3d 60
        E 30 80 1a 00
        E 0 80 24 00
        E 0 80 61 00
        E 0 80 64 00
        E 0 80 55 00
        E 0 80 58 00
        E 0 80 49 00
        E 0 80 4c 00
        E 0 80 3d 00
        E 450 90 24 60
        E 0 90 64 60
        E 0 90 58 60
        E 0 90 4c 60
        E 0 90 40 60
        E 30 80 24 00
        E 0 80 64 00
        E 0 80 58 00
        E 0 80 4c 00
        E 0 80 40 00
        E 290 90 18 60
        E 0 90 60 60
        E 30 80 18 00
        E 0 80 60 00
        E 130 90 18 60
        E 0 90 24 60
        E 0 90 60 60
        E 0 90 64 60
        E 0 90 54 60
        E 0 90 58 60
        E 0 90 48 60
        E 0 90 4c 60
        E 0 90 40 60
        E 30 80 18 00
        E 0 80 24 00
        E 0 80 60 00
        E 0 80 64 00
        E 0 80 54 00
        E 0 80 58 00
        E 0 80 48 00
        E 0 80 4c 00
        E 0 80 40 00
        E 290 90 18 60
        E 0 90 22 60
        E 0 90 26 60
        E 0 90 60 60
        E 0 90 62 60
        E 0 90 64 60
        E 0 90 54 60
        E 0 90 56 60
        E 0 90 58 60
        E 60 80 18 00
        E 0 80 22 00
        E 0 80 26 00
        E 0 80 60 00
        E 0 80 62 00
        E 0 80 64 00
        E 0 80 54 00
        E 0 80 56 00
        E 0 80 58 00
        E 420 90 18 60
        E 0 90 60 60
        E 30 80 18 00
        E 0 80 60 00
        E 50 90 18 60
        E 0 90 60 60
        E 30 80 18 00
        E 0 80 60 00
        E 50 90 1a 60
        E 0 90 24 60
        E 0 90 61 60
        E 0 90 64 60
        E 0 90 55 60
        E 0 90 58 60
        E 0 90 49 60
        E 0 90 4c 60
        E 0 90 3d 60
        E 30 80 1a 00
        E 0 80 24 00
        E 0 80 61 00
        E 0 80 64 00
        E 0 80 55 00
        E 0 80 58 00
        E 0 80 49 00
        E 0 80 4c 00
        E 0 80 3d 00
        E 290 90 1a 60
        E 0 90 61 60
        E 30 80 1a 00
        E 0 80 61 00
        E 130 90 24 60
        E 0 90 64 60
        E 0 90 58 60
        E 0 90 4c 60
        E 0 90 40 60
        E 30 80 24 00
        E 0 80 64 00
        E 0 80 58 00
        E 0 80 4c 00
        E 0 80 40 00
        E 130 90 1a 60
        E 0 90 61 60
        E 30 80 1a 00
        E 0 80 61 00
        E 130 90 1b 60
        E 0 90 61 60
        E 30 80 1b 00
        E 0 80 61 00
        E 130 90 18 60
        E 0 90 22 60
        E 0 90 60 60
        E 0 90 64 60
        E 0 90 54 60
        E 0 90 58 60
        E 0 90 48 60
        E 0 90 4c 60
        E 0 90 40 60
        E 30 80 18 00
        E 0 80 22 00
        E 0 80 60 00
        E 0 80 64 00
        E 0 80 54 00
        E 0 80 58 00
        E 0 80 48 00
        E 0 80 4c 00
        E 0 80 40 00
        E 290 90 18 60
        E 0 90 22 60
        E 0 90 26 60
        E 0 90 60 60
        E 0 90 62 60
        E 0 90 64 60
        E 0 90 54 60
        E 0 90 56 60
        E 0 90 58 60
        E 60 80 18 00
        E 0 80 22 00
        E 0 80 26 00
        E 0 80 60 00
        E 0 80 62 00
        E 0 80 64 00
        E 0 80 54 00
        E 0 80 56 00
        E 0 80 58 00
        E 420 90 18 60
        E 0 90 60 60
        E 30 80 18 00
        E 0 80 60 00
        E 50 90 18 60
        E 0 90 60 60
        E 30 80 18 00
        E 0 80 60 00
        E 50 90 1a 60
        E 0 90 24 60
        E 0 90 61 60
        E 0 90 64 60
        E 0 90 55 60
        E 0 90 58 60
        E 0 90 49 60
        E 0 90 4c 60
        E 0 90 3d 60
        E 30 80 1a 00
        E 0 80 24 00
        E 0 80 61 00
        E 0 80 64 00
        E 0 80 55 00
        E 0 80 58 00
        E 0 80 49 00
        E 0 80 4c 00
        E 0 80 3d 00
        E 450 90 24 60
        E 0 90 64 60
        E 0 90 58 60
        E 0 90 4c 60
        E 0 90 40 60
        E 30 80 24 00
        E 0 80 64 00
        E 0 80 58 00
        E 0 80 4c 00
        E 0 80 40 00
        E 290 90 18 60
        E 0 90 60 60
        E 30 80 18 00
        E 0 80 60 00
        E 130 90 1a 60
        E 0 90 24 60
        E 0 90 61 60
        E 0 90 64 60
        E 0 90 55 60
        E 0 90 58 60
        E 0 90 49 60
        E 0 90 4c 60
        E 0 90 3d 60
        E 30 80 1a 00
        E 0 80 24 00
        E 0 80 61 00
        E 0 80 64 00
        E 0 80 55 00
        E 0 80 58 00
        E 0 80 49 00
        E 0 80 4c 00
        E 0 80 3d 00
        E 130 90 2e 60
        E 0 90 62 60
        E 0 90 6e 60
        E 30 80 2e 00
        E 0 80 62 00
        E 0 80 6e 00
        E 50 90 2f 60
        E 0 90 62 60
        E 0 90 56 60
        E 0 90 6e 60
        E 30 80 2f 00
        E 0 80 62 00
        E 0 80 56 00
        E 0 80 6e 00
        E 50 90 2e 60
        E 0 90 62 60
        E 0 90 6e 60
        E 30 80 2e 00
        E 0 80 62 00
        E 0 80 6e 00
        E 130 90 18 60
        E 0 90 60 60
        E 0 90 54 60
        E 0 90 48 60
        E 0 90 3c 60
        E 30 80 18 00
        E 0 80 60 00
        E 0 80 54 00
        E 0 80 48 00
        E 0 80 3c 00
        E 129 90 1a 60
        E 0 90 2a 60
        E 0 90 61 60
        E 0 90 63 60
        E 30 80 1a 00
        E 0 80 2a 00
        E 0 80 61 00
        E 0 80 63 00
        E 131 90 18 60
        E 0 90 60 60
        E 30 80 18 00
        E 0 80 60 00
        E 130 90 1a 60
        E 0 90 24 60
        E 0 90 61 60
        E 0 90 64 60
        E 0 90 55 60
        E 0 90 58 60
        E 0 90 49 60
        E 0 90 4c 60
        E 0 90 3d 60
        E 30 80 1a 00
        E 0 80 24 00
        E 0 80 61 00
        E 0 80 64 00
        E 0 80 55 00
        E 0 80 58 00
        E 0 80 49 00
        E 0 80 4c 00
        E 0 80 3d 00
        E 130 90 18 60
        E 0 90 60 60
        E 30 80 18 00
        E 0 80 60 00
        E 130 90 2e 60
        E 0 90 31 60
        E 0 90 62 60
        E 0 90 63 60
        E 0 90 6e 60
        E 0 90 6f 60
        E 30 80 2e 00
        E 0 80 31 00
        E 0 80 62 00
        E 0 80 63 00
        E 0 80 6e 00
        E 0 80 6f 00
        E 130 90 18 60
        E 0 90 60 60
        E 0 90 54 60
        E 0 90 48 60
        E 0 90 3c 60
        E 30 80 18 00
        E 0 80 60 00
        E 0 80 54 00
        E 0 80 48 00
        E 0 80 3c 00
        E 130 90 2e 60
        E 0 90 31 60
        E 0 90 62 60
        E 0 90 63 60
        E 0 90 6e 60
        E 0 90 6f 60
        E 30 80 2e 00
        E 0 80 31 00
        E 0 80 62 00
        E 0 80 63 00
        E 0 80 6e 00
        E 0 80 6f 00
        E 130 90 18 60
        E 0 90 60 60
        E 30 80 18 00
        E 0 80 60 00
        E 130 90 18 60
        E 0 90 24 60
        E 0 90 60 60
        E 0 90 64 60
        E 0 90 54 60
        E 0 90 58 60
        E 0 90 48 60
        E 0 90 4c 60
        E 0 90 40 60
        E 30 80 18 00
        E 0 80 24 00
        E 0 80 60 00
        E 0 80 64 00
        E 0 80 54 00
        E 0 80 58 00
        E 0 80 48 00
        E 0 80 4c 00
        E 0 80 40 00
        E 290 90 18 60
        E 0 90 22 60
        E 0 90 26 60
        E 0 90 60 60
        E 0 90 62 60
        E 0 90 64 60
        E 0 90 54 60
        E 0 90 56 60
        E 0 90 58 60
        E 60 80 18 00
        E 0 80 22 00
        E 0 80 26 00
        E 0 80 60 00
        E 0 80 62 00
        E 0 80 64 00
        E 0 80 54 00
        E 0 80 56 00
        E 0 80 58 00
        E 420 90 18 60
        E 0 90 60 60
        E 30 80 18 00
        E 0 80 60 00
        E 50 90 18 60
        E 0 90 60 60
        E 30 80 18 00
        E 0 80 60 00
        E 50 90 1a 60
        E 0 90 24 60
        E 0 90 61 60
        E 0 90 64 60
        E 0 90 55 60
        E 0 90 58 60
        E 0 90 49 60
        E 0 90 4c 60
        E 0 90 3d 60
        E 30 80 1a 00
        E 0 80 24 00
        E 0 80 61 00
        E 0 80 64 00
        E 0 80 55 00
        E 0 80 58 00
        E 0 80 49 00
        E 0 80 4c 00
        E 0 80 3d 00
        E 450 90 24 60
        E 0 90 64 60
        E 0 90 58 60
        E 0 90 4c 60
        E 0 90 40 60
        E 30 80 24 00
        E 0 80 64 00
        E 0 80 58 00
        E 0 80 4c 00
        E 0 80 40 00
        E 290 90 18 60
        E 0 90 60 60
        E 30 80 18 00
        E 0 80 60 00
        E 130 90 18 60
        E 0 90 24 60
        E 0 90 60 60
        E 0 90 64 60
        E 0 90 54 60
        E 0 90 58 60
        E 0 90 48 60
        E 0 90 4c 60
        E 0 90 40 60
        E 30 80 18 00
        E 0 80 24 00
        E 0 80 60 00
        E 0 80 64 00
        E 0 80 54 00
        E 0 80 58 00
        E 0 80 48 00
        E 0 80 4c 00
        E 0 80 40 00
        E 290 90 18 60
        E 0 90 22 60
        E 0 90 26 60
        E 0 90 60 60
        E 0 90 62 60
        E 0 90 64 60
        E 0 90 54 60
        E 0 90 56 60
        E 0 90 58 60
        E 60 80 18 00
        E 0 80 22 00
        E 0 80 26 00
        E 0 80 60 00
        E 0 80 62 00
        E 0 80 64 00
        E 0 80 54 00
        E 0 80 56 00
        E 0 80 58 00
        E 420 90 18 60
        E 0 90 60 60
        E 30 80 18 00
        E 0 80 60 00
        E 50 90 18 60
        E 0 90 60 60
        E 30 80 18 00
        E 0 80 60 00
        E 50 90 1a 60
        E 0 90 24 60
        E 0 90 61 60
        E 0 90 64 60
        E 0 90 55 60
        E 0 90 58 60
        E 0 90 49 60
        E 0 90 4c 60
        E 0 90 3d 60
        E 30 80 1a 00
        E 0 80 24 00
        E 0 80 61 00
        E 0 80 64 00
        E 0 80 55 00
        E 0 80 58 00
        E 0 80 49 00
        E 0 80 4c 00
        E 0 80 3d 00
        E 450 90 24 60
        E 0 90 64 60
        E 0 90 58 60
        E 0 90 4c 60
        E 0 90 40 60
        E 30 80 24 00
        E 0 80 64 00
        E 0 80 58 00
        E 0 80 4c 00
        E 0 80 40 00
        E 290 90 18 60
        E 0 90 60 60
        E 30 80 18 00
        E 0 80 60 00
        E 130 90 18 60
        E 0 90 24 60
        E 0 90 60 60
        E 0 90 64 60
        E 0 90 74 60
        E 0 90 54 60
        E 0 90 58 60
        E 0 90 48 60
        E 0 90 4c 60
        E 0 90 40 60
        E 30 80 18 00
        E 0 80 24 00
        E 0 80 60 00
        E 0 80 64 00
        E 0 80 54 00
        E 0 80 58 00
        E 0 80 48 00
        E 0 80 4c 00
        E 0 80 40 00
        E 270 90 18 60
        E 0 90 22 60
        E 0 90 26 60
        E 0 90 60 60
        E 0 90 62 60
        E 0 90 64 60
        E 0 90 54 60
        E 0 90 56 60
        E 0 90 58 60
        E 60 80 18 00
        E 0 80 22 00
        E 0 80 26 00
        E 0 80 60 00
        E 0 80 62 00
        E 0 80 64 00
        E 0 80 54 00
        E 0 80 56 00
        E 0 80 58 00
        E 440 90 18 60
        E 0 90 60 60
        E 30 80 18 00
        E 0 80 60 00
        E 50 90 18 60
        E 0 90 60 60
        E 30 80 18 00
        E 0 80 60 00
        E 50 90 1a 60
        E 0 90 24 60
        E 0 90 61 60
        E 0 90 64 60
        E 0 90 55 60
        E 0 90 58 60
        E 0 90 49 60
        E 0 90 4c 60
        E 0 90 3d 60
        E 30 80 1a 00
        E 0 80 24 00
        E 0 80 61 00
        E 0 80 64 00
        E 0 80 55 00
        E 0 80 58 00
        E 0 80 49 00
        E 0 80 4c 00
        E 0 80 3d 00
        E 450 90 24 60
        E 0 90 64 60
        E 0 90 58 60
        E 0 90 4c 60
        E 0 90 40 60
        E 30 80 24 00
        E 0 80 64 00
        E 0 80 58 00
        E 0 80 4c 00
        E 0 80 40 00
        E 290 90 18 60
        E 0 90 60 60
        E 30 80 18 00
        E 0 80 60 00
        E 130 80 74 00
        E 0 90 1a 60
        E 0 90 24 60
        E 0 90 61 60
        E 0 90 64 60
        E 0 90 55 60
        E 0 90 58 60
        E 0 90 49 60
        E 0 90 4c 60
        E 0 90 3d 60
        E 30 80 1a 00
        E 0 80 24 00
        E 0 80 61 00
        E 0 80 64 00
        E 0 80 55 00
        E 0 80 58 00
        E 0 80 49 00
        E 0 80 4c 00
        E 0 80 3d 00
        E 130 90 1a 60
        E 0 90 61 60
        E 30 80 1a 00
        E 0 80 61 00
        E 50 90 1b 60
        E 0 90 61 60
        E 0 90 55 60
        E 30 80 1b 00
        E 0 80 61 00
        E 0 80 55 00
        E 50 90 1a 60
        E 0 90 61 60
        E 30 80 1a 00
        E 0 80 61 00
        E 130 90 1b 60
        E 0 90 61 60
        E 0 90 55 60
        E 0 90 49 60
        E 0 90 3d 60
        E 30 80 1b 00
        E 0 80 61 00
        E 0 80 55 00
        E 0 80 49 00
        E 0 80 3d 00
        E 130 90 1a 60
        E 0 90 61 60
        E 30 80 1a 00
        E 0 80 61 00
        E 50 90 1b 60
        E 0 90 61 60
        E 0 90 55 60
        E 30 80 1b 00
        E 0 80 61 00
        E 0 80 55 00
        E 50 90 1a 60
        E 0 90 61 60
        E 30 80 1a 00
        E 0 80 61 00
        E 130 90 1b 60
        E 0 90 61 60
        E 0 90 55 60
        E 0 90 49 60
        E 0 90 3d 60
        E 30 80 1b 00
        E 0 80 61 00
        E 0 80 55 00
        E 0 80 49 00
        E 0 80 3d 00
        E 129 90 1a 60
        E 0 90 61 60
        E 30 80 1a 00
        E 0 80 61 00
        E 130 90 1b 60
        E 0 90 61 60
        E 30 80 1b 00
        E 0 80 61 00
        E 131 90 1a 60
        E 0 90 61 60
        E 0 90 55 60
        E 0 90 49 60
        E 0 90 3d 60
        E 30 80 1a 00
        E 0 80 61 00
        E 0 80 55 00
        E 0 80 49 00
        E 0 80 3d 00
        E 130 90 1b 60
        E 0 90 61 60
        E 30 80 1b 00
        E 0 80 61 00
        E 129 90 1a 60
        E 0 90 61 60
        E 30 80 1a 00
        E 0 80 61 00
        E 131 90 18 60
        E 0 90 22 60
        E 0 90 26 60
        E 0 90 60 60
        E 0 90 62 60
        E 0 90 64 60
        E 0 90 54 60
        E 0 90 56 60
        E 0 90 58 60
        E 0 90 48 60
        E 0 90 4a 60
        E 0 90 4c 60
        E 0 90 3e 60
        E 0 90 40 60
        E 60 80 18 00
        E 0 80 22 00
        E 0 80 26 00
        E 0 80 60 00
        E 0 80 62 00
        E 0 80 64 00
        E 0 80 54 00
        E 0 80 56 00
        E 0 80 58 00
        E 0 80 48 00
        E 0 80 4a 00
        E 0 80 4c 00
        E 0 80 3e 00
        E 0 80 40 00
        E 260 90 18 60
        E 0 90 60 60
        E 30 80 18 00
        E 0 80 60 00
        E 130 90 18 60
        E 0 90 24 60
        E 0 90 60 60
        E 0 90 64 60
        E 0 90 54 60
        E 0 90 58 60
        E 0 90 48 60
        E 0 90 4c 60
        E 0 90 40 60
        E 30 80 18 00
        E 0 80 24 00
        E 0 80 60 00
        E 0 80 64 00
        E 0 80 54 00
        E 0 80 58 00
        E 0 80 48 00
        E 0 80 4c 00
        E 0 80 40 00
        E 290 90 18 60
        E 0 90 60 60
        E 30 80 18 00
        E 0 80 60 00
        E 50 90 18 60
        E 0 90 60 60
        E 30 80 18 00
        E 0 80 60 00
        E 50 90 1a 60
        E 0 90 24 60
        E 0 90 61 60
        E 0 90 64 60
        E 0 90 78 60
        E 0 90 79 60
        E 0 90 7a 60
        E 0 90 7b 60
        E 0 90 7c 60
        E 0 90 55 60
        E 0 90 58 60
        E 0 90 49 60
        E 0 90 4c 60
        E 0 90 3d 60
        E 30 80 1a 00
        E 0 80 24 00
        E 0 80 61 00
        E 0 80 64 00
        E 0 80 55 00
        E 0 80 58 00
        E 0 80 49 00
        E 0 80 4c 00
        E 0 80 3d 00
        E 290 90 1a 60
        E 0 90 61 60
        E 30 80 1a 00
        E 0 80 61 00
        E 130 90 24 60
        E 0 90 64 60
        E 0 90 58 60
        E 0 90 4c 60
        E 0 90 40 60
        E 30 80 24 00
        E 0 80 64 00
        E 0 80 58 00
        E 0 80 4c 00
        E 0 80 40 00
        E 130 90 1a 60
        E 0 90 61 60
        E 30 80 1a 00
        E 0 80 61 00
        E 130 90 1b 60
        E 0 90 61 60
        E 30 80 1b 00
        E 0 80 61 00
        E 130 80 78 00
        E 0 80 79 00
        E 0 80 7a 00
        E 0 80 7b 00
        E 0 80 7c 00
        E 0 90 18 60
        E 0 90 22 60
        E 0 90 60 60
        E 0 90 64 60
        E 0 90 54 60
        E 0 90 58 60
        E 0 90 48 60
        E 0 90 4c 60
        E 0 90 40 60
        E 30 80 18 00
        E 0 80 22 00
        E 0 80 60 00
        E 0 80 64 00
        E 0 80 54 00
        E 0 80 58 00
        E 0 80 48 00
        E 0 80 4c 00
        E 0 80 40 00
        E 450 90 18 60
        E 0 90 24 60
        E 0 90 60 60
        E 0 90 64 60
        E 0 90 54 60
        E 0 90 58 60
        E 0 90 48 60
        E 0 90 4c 60
        E 0 90 40 60
        E 30 80 18 00
        E 0 80 24 00
        E 0 80 60 00
        E 0 80 64 00
        E 0 80 54 00
        E 0 80 58 00
        E 0 80 48 00
        E 0 80 4c 00
        E 0 80 40 00
        E 290 90 18 60
        E 0 90 60 60
        E 30 80 18 00
        E 0 80 60 00
        E 50 90 18 60
        E 0 90 60 60
        E 30 80 18 00
        E 0 80 60 00
        E 50 90 1a 60
        E 0 90 24 60
        E 0 90 61 60
        E 0 90 64 60
        E 0 90 55 60
        E 0 90 58 60
        E 0 90 49 60
        E 0 90 4c 60
        E 0 90 3d 60
        E 30 80 1a 00
        E 0 80 24 00
        E 0 80 61 00
        E 0 80 64 00
        E 0 80 55 00
        E 0 80 58 00
        E 0 80 49 00
        E 0 80 4c 00
        E 0 80 3d 00
        E 130 90 18 60
        E 0 90 60 60
        E 30 80 18 00
        E 0 80 60 00
        E 290 90 18 60
        E 0 90 24 60
        E 0 90 60 60
        E 0 90 64 60
        E 0 90 54 60
        E 0 90 58 60
        E 0 90 48 60
        E 0 90 4c 60
        E 0 90 40 60
        E 30 80 18 00
        E 0 80 24 00
        E 0 80 60 00
        E 0 80 64 00
        E 0 80 54 00
        E 0 80 58 00
        E 0 80 48 00
        E 0 80 4c 00
        E 0 80 40 00
        E 290 90 18 60
        E 0 90 60 60
        E 30 80 18 00
        E 0 80 60 00
        E 130 90 18 60
        E 0 90 22 60
        E 0 90 26 60
        E 0 90 60 60
        E 0 90 62 60
        E 0 90 64 60
        E 0 90 54 60
        E 0 90 56 60
        E 0 90 58 60
        E 0 90 48 60
        E 0 90 4a 60
        E 0 90 4c 60
        E 0 90 3e 60
        E 0 90 40 60
        E 30 80 18 00
        E 0 80 22 00
        E 0 80 26 00
        E 0 80 60 00
        E 0 80 62 00
        E 0 80 64 00
        E 0 80 54 00
        E 0 80 56 00
        E 0 80 58 00
        E 0 80 48 00
        E 0 80 4a 00
        E 0 80 4c 00
        E 0 80 3e 00
        E 0 80 40 00
        E 450 90 18 60
        E 0 90 24 60
        E 0 90 60 60
        E 0 90 64 60
        E 0 90 54 60
        E 0 90 58 60
        E 0 90 48 60
        E 0 90 4c 60
        E 0 90 40 60
        E 30 80 18 00
        E 0 80 24 00
        E 0 80 60 00
        E 0 80 64 00
        E 0 80 54 00
        E 0 80 58 00
        E 0 80 48 00
        E 0 80 4c 00
        E 0 80 40 00
        E 289 90 18 60
        E 0 90 60 60
        E 30 80 18 00
        E 0 80 60 00
        E 50 90 18 60
        E 0 90 60 60
        E 30 80 18 00
        E 0 80 60 00
        E 51 90 1a 60
        E 0 90 24 60
        E 0 90 61 60
        E 0 90 64 60
        E 0 90 55 60
        E 0 90 58 60
        E 0 90 49 60
        E 0 90 4c 60
        E 0 90 3d 60
        E 30 80 1a 00
        E 0 80 24 00
        E 0 80 61 00
        E 0 80 64 00
        E 0 80 55 00
        E 0 80 58 00
        E 0 80 49 00
        E 0 80 4c 00
        E 0 80 3d 00
        E 290 90 1a 60
        E 0 90 61 60
        E 30 80 1a 00
        E 0 80 61 00
        E 130 90 24 60
        E 0 90 64 60
        E 0 90 58 60
        E 0 90 4c 60
        E 0 90 40 60
        E 30 80 24 00
        E 0 80 64 00
        E 0 80 58 00
        E 0 80 4c 00
        E 0 80 40 00
        E 130 90 1a 60
        E 0 90 61 60
        E 30 80 1a 00
        E 0 80 61 00
        E 130 90 1b 60
        E 0 90 61 60
        E 30 80 1b 00
        E 0 80 61 00
        E 130 90 18 60
        E 0 90 22 60
        E 0 90 60 60
        E 0 90 64 60
        E 0 90 54 60
        E 0 90 58 60
        E 0 90 48 60
        E 0 90 4c 60
        E 0 90 40 60
        E 30 80 18 00
        E 0 80 22 00
        E 0 80 60 00
        E 0 80 64 00
        E 0 80 54 00
        E 0 80 58 00
        E 0 80 48 00
        E 0 80 4c 00
        E 0 80 40 00
        E 450 90 18 60
        E 0 90 24 60
        E 0 90 60 60
        E 0 90 64 60
        E 0 90 54 60
        E 0 90 58 60
        E 0 90 48 60
        E 0 90 4c 60
        E 0 90 40 60
        E 30 80 18 00
        E 0 80 24 00
        E 0 80 60 00
        E 0 80 64 00
        E 0 80 54 00
        E 0 80 58 00
        E 0 80 48 00
        E 0 80 4c 00
        E 0 80 40 00
        E 289 90 18 60
        E 0 90 60 60
        E 30 80 18 00
        E 0 80 60 00
        E 50 90 18 60
        E 0 90 60 60
        E 30 80 18 00
        E 0 80 60 00
        E 51 90 1a 60
        E 0 90 24 60
        E 0 90 61 60
        E 0 90 64 60
        E 0 90 55 60
        E 0 90 58 60
        E 0 90 49 60
        E 0 90 4c 60
        E 0 90 3d 60
        E 30 80 1a 00
        E 0 80 24 00
        E 0 80 61 00
        E 0 80 64 00
        E 0 80 55 00
        E 0 80 58 00
        E 0 80 49 00
        E 0 80 4c 00
        E 0 80 3d 00
        E 129 90 18 60
        E 0 90 60 60
        E 30 80 18 00
        E 0 80 60 00
        E 291 90 18 60
        E 0 90 24 60
        E 0 90 60 60
        E 0 90 64 60
        E 0 90 54 60
        E 0 90 58 60
        E 0 90 48 60
        E 0 90 4c 60
        E 0 90 40 60
        E 30 80 18 00
        E 0 80 24 00
        E 0 80 60 00
        E 0 80 64 00
        E 0 80 54 00
        E 0 80 58 00
        E 0 80 48 00
        E 0 80 4c 00
        E 0 80 40 00
        E 290 90 18 60
        E 0 90 60 60
        E 30 80 18 00
        E 0 80 60 00
        E 130 90 18 60
        E 0 90 22 60
        E 0 90 26 60
        E 0 90 60 60
        E 0 90 62 60
        E 0 90 64 60
        E 0 90 54 60
        E 0 90 56 60
        E 0 90 58 60
        E 0 90 48 60
        E 0 90 4a 60
        E 0 90 4c 60
        E 0 90 3e 60
        E 0 90 40 60
        E 30 80 18 00
        E 0 80 22 00
        E 0 80 26 00
        E 0 80 60 00
        E 0 80 62 00
        E 0 80 64 00
        E 0 80 54 00
        E 0 80 56 00
        E 0 80 58 00
        E 0 80 48 00
        E 0 80 4a 00
        E 0 80 4c 00
        E 0 80 3e 00
        E 0 80 40 00
        E 450 90 18 60
        E 0 90 24 60
        E 0 90 60 60
        E 0 90 64 60
        E 0 90 54 60
        E 0 90 58 60
        E 0 90 48 60
        E 0 90 4c 60
        E 0 90 40 60
        E 30 80 18 00
        E 0 80 24 00
        E 0 80 60 00
        E 0 80 64 00
        E 0 80 54 00
        E 0 80 58 00
        E 0 80 48 00
        E 0 80 4c 00
        E 0 80 40 00
        E 289 90 18 60
        E 0 90 60 60
        E 30 80 18 00
        E 0 80 60 00
        E 50 90 18 60
        E 0 90 60 60
        E 30 80 18 00
        E 0 80 60 00
        E 51 90 1a 60
        E 0 90 24 60
        E 0 90 61 60
        E 0 90 64 60
        E 0 90 55 60
        E 0 90 58 60
        E 0 90 49 60
        E 0 90 4c 60
        E 0 90 3d 60
        E 30 80 1a 00
        E 0 80 24 00
        E 0 80 61 00
        E 0 80 64 00
        E 0 80 55 00
        E 0 80 58 00
        E 0 80 49 00
        E 0 80 4c 00
        E 0 80 3d 00
        E 290 90 1a 60
        E 0 90 61 60
        E 30 80 1a 00
        E 0 80 61 00
        E 130 90 24 60
        E 0 90 64 60
        E 0 90 58 60
        E 0 90 4c 60
        E 0 90 40 60
        E 30 80 24 00
        E 0 80 64 00
        E 0 80 58 00
        E 0 80 4c 00
        E 0 80 40 00
        E 130 90 1a 60
        E 0 90 61 60
        E 30 80 1a 00
        E 0 80 61 00
        E 130 90 1b 60
        E 0 90 61 60
        E 30 80 1b 00
        E 0 80 61 00
        E 130 90 18 60
        E 0 90 22 60
        E 0 90 60 60
        E 0 90 64 60
        E 0 90 54 60
        E 0 90 58 60
        E 0 90 48 60
        E 0 90 4c 60
        E 0 90 40 60
        E 30 80 18 00
        E 0 80 22 00
        E 0 80 60 00
        E 0 80 64 00
        E 0 80 54 00
        E 0 80 58 00
        E 0 80 48 00
        E 0 80 4c 00
        E 0 80 40 00
        E 450 90 18 60
        E 0 90 24 60
        E 0 90 60 60
        E 0 90 64 60
        E 0 90 54 60
        E 0 90 58 60
        E 0 90 48 60
        E 0 90 4c 60
        E 0 90 40 60
        E 30 80 18 00
        E 0 80 24 00
        E 0 80 60 00
        E 0 80 64 00
        E 0 80 54 00
        E 0 80 58 00
        E 0 80 48 00
        E 0 80 4c 00
        E 0 80 40 00
        E 289 90 18 60
        E 0 90 60 60
        E 30 80 18 00
        E 0 80 60 00
        E 50 90 18 60
        E 0 90 60 60
        E 30 80 18 00
        E 0 80 60 00
        E 51 90 1a 60
        E 0 90 24 60
        E 0 90 61 60
        E 0 90 64 60
        E 0 90 55 60
        E 0 90 58 60
        E 0 90 49 60
        E 0 90 4c 60
        E 0 90 3d 60
        E 30 80 1a 00
        E 0 80 24 00
        E 0 80 61 00
        E 0 80 64 00
        E 0 80 55 00
        E 0 80 58 00
        E 0 80 49 00
        E 0 80 4c 00
        E 0 80 3d 00
        E 129 90 18 60
        E 0 90 60 60
        E 30 80 18 00
        E 0 80 60 00
        E 291 90 18 60
        E 0 90 24 60
        E 0 90 60 60
        E 0 90 64 60
        E 0 90 54 60
        E 0 90 58 60
        E 0 90 48 60
        E 0 90 4c 60
        E 0 90 40 60
        E 30 80 18 00
        E 0 80 24 00
        E 0 80 60 00
        E 0 80 64 00
        E 0 80 54 00
        E 0 80 58 00
        E 0 80 48 00
        E 0 80 4c 00
        E 0 80 40 00
        E 290 90 18 60
        E 0 90 60 60
        E 30 80 18 00
        E 0 80 60 00
        E 130 90 1a 60
        E 0 90 24 60
        E 0 90 61 60
        E 0 90 64 60
        E 0 90 55 60
        E 0 90 58 60
        E 0 90 49 60
        E 0 90 4c 60
        E 0 90 3d 60
        E 30 80 1a 00
        E 0 80 24 00
        E 0 80 61 00
        E 0 80 64 00
        E 0 80 55 00
        E 0 80 58 00
        E 0 80 49 00
        E 0 80 4c 00
        E 0 80 3d 00
        E 130 90 18 60
        E 0 90 60 60
        E 30 80 18 00
        E 0 80 60 00
        E 130 90 18 60
        E 0 90 60 60
        E 30 80 18 00
        E 0 80 60 00
        E 130 90 1a 60
        E 0 90 24 60
        E 0 90 61 60
        E 0 90 64 60
        E 0 90 55 60
        E 0 90 58 60
        E 0 90 49 60
        E 0 90 4c 60
        E 0 90 3d 60
        E 30 80 1a 00
        E 0 80 24 00
        E 0 80 61 00
        E 0 80 64 00
        E 0 80 55 00
        E 0 80 58 00
        E 0 80 49 00
        E 0 80 4c 00
        E 0 80 3d 00
        E 130 90 18 60
        E 0 90 60 60
        E 30 80 18 00
        E 0 80 60 00
        E 130 90 1a 60
        E 0 90 24 60
        E 0 90 61 60
        E 0 90 64 60
        E 30 80 1a 00
        E 0 80 24 00
        E 0 80 61 00
        E 0 80 64 00
        E 130 90 18 60
        E 0 90 60 60
        E 0 90 54 60
        E 0 90 48 60
        E 0 90 3c 60
        E 30 80 18 00
        E 0 80 60 00
        E 0 80 54 00
        E 0 80 48 00
        E 0 80 3c 00
        E 130 90 1a 60
        E 0 90 24 60
        E 0 90 61 60
        E 0 90 64 60
        E 30 80 1a 00
        E 0 80 24 00
        E 0 80 61 00
        E 0 80 64 00
        E 130 90 18 60
        E 0 90 60 60
        E 30 80 18 00
        E 0 80 60 00
        E 130 90 1a 60
        E 0 90 24 60
        E 0 90 61 60
        E 0 90 64 60
        E 0 90 55 60
        E 0 90 58 60
        E 0 90 49 60
        E 0 90 4c 60
        E 0 90 3d 60
        E 30 80 1a 00
        E 0 80 24 00
        E 0 80 61 00
        E 0 80 64 00
        E 0 80 55 00
        E 0 80 58 00
        E 0 80 49 00
        E 0 80 4c 00
        E 0 80 3d 00
        E 130 90 18 60
        E 0 90 60 60
        E 30 80 18 00
        E 0 80 60 00
        E 130 90 18 60
        E 0 90 60 60
        E 30 80 18 00
        E 0 80 60 00
        E 130 90 1a 60
        E 0 90 24 60
        E 0 90 61 60
        E 0 90 64 60
        E 0 90 55 60
        E 0 90 58 60
        E 0 90 49 60
        E 0 90 4c 60
        E 0 90 3d 60
        E 30 80 1a 00
        E 0 80 24 00
        E 0 80 61 00
        E 0 80 64 00
        E 0 80 55 00
        E 0 80 58 00
        E 0 80 49 00
        E 0 80 4c 00
        E 0 80 3d 00
        E 130 90 18 60
        E 0 90 60 60
        E 30 80 18 00
        E 0 80 60 00
        E 130 90 18 60
        E 0 90 60 60
        E 30 80 18 00
        E 0 80 60 00
        E 130 90 1a 60
        E 0 90 24 60
        E 0 90 61 60
        E 0 90 64 60
        E 0 90 55 60
        E 0 90 58 60
        E 0 90 49 60
        E 0 90 4c 60
        E 0 90 3d 60
        E 30 80 1a 00
        E 0 80 24 00
        E 0 80 61 00
        E 0 80 64 00
        E 0 80 55 00
        E 0 80 58 00
        E 0 80 49 00
        E 0 80 4c 00
        E 0 80 3d 00
        E 130 90 18 60
        E 0 90 60 60
        E 30 80 18 00
        E 0 80 60 00
        E 130 90 2e 60
        E 0 90 31 60
        E 0 90 62 60
        E 0 90 63 60
        E 0 90 6e 60
        E 0 90 6f 60
        E 30 80 2e 00
        E 0 80 31 00
        E 0 80 62 00
        E 0 80 63 00
        E 0 80 6e 00
        E 0 80 6f 00
        E 130 90 18 60
        E 0 90 60 60
        E 0 90 54 60
        E 0 90 48 60
        E 0 90 3c 60
        E 30 80 18 00
        E 0 80 60 00
        E 0 80 54 00
        E 0 80 48 00
        E 0 80 3c 00
        E 130 90 2e 60
        E 0 90 31 60
        E 0 90 62 60
        E 0 90 63 60
        E 0 90 6e 60
        E 0 90 6f 60
        E 30 80 2e 00
        E 0 80 31 00
        E 0 80 62 00
        E 0 80 63 00
        E 0 80 6e 00
        E 0 80 6f 00
        E 130 90 18 60
        E 0 90 60 60
        E 30 80 18 00
        E 0 80 60 00
        E 130 90 2e 60
        E 0 90 31 60
        E 0 90 62 60
        E 0 90 63 60
        E 0 90 56 60
        E 0 90 57 60
        E 0 90 4a 60
        E 0 90 4b 60
        E 0 90 6e 60
        E 0 90 6f 60
        E 0 90 3e 60
        E 0 90 3f 60
        E 30 80 2e 00
        E 0 80 31 00
        E 0 80 62 00
        E 0 80 63 00
        E 0 80 56 00
        E 0 80 57 00
        E 0 80 4a 00
        E 0 80 4b 00
        E 0 80 6e 00
        E 0 80 6f 00
        E 0 80 3e 00
        E 0 80 3f 00
        E 130 90 18 60
        E 0 90 60 60
        E 30 80 18 00
        E 0 80 60 00
        E 130 90 2e 60
        E 0 90 31 60
        E 0 90 62 60
        E 0 90 63 60
        E 0 90 6e 60
        E 0 90 6f 60
        E 30 80 2e 00
        E 0 80 31 00
        E 0 80 62 00
        E 0 80 63 00
        E 0 80 6e 00
        E 0 80 6f 00
        E 130 90 18 60
        E 0 90 24 60
        E 0 90 60 60
        E 0 90 64 60
        E 0 90 74 60
        E 0 90 54 60
        E 0 90 58 60
        E 0 90 48 60
        E 0 90 4c 60
        E 0 90 40 60
        E 30 80 18 00
        E 0 80 24 00
        E 0 80 60 00
        E 0 80 64 00
        E 0 80 54 00
        E 0 80 58 00
        E 0 80 48 00
        E 0 80 4c 00
        E 0 80 40 00
        E 289 90 18 60
        E 0 90 60 60
        E 30 80 18 00
        E 0 80 60 00
        E 131 90 24 60
        E 0 90 64 60
        E 0 90 58 60
        E 0 90 4c 60
        E 0 90 40 60
        E 30 80 24 00
        E 0 80 64 00
        E 0 80 58 00
        E 0 80 4c 00
        E 0 80 40 00
        E 290 90 18 60
        E 0 90 60 60
        E 30 80 18 00
        E 0 80 60 00
        E 50 90 18 60
        E 0 90 60 60
        E 30 80 18 00
        E 0 80 60 00
        E 50 90 1a 60
        E 0 90 24 60
        E 0 90 61 60
        E 0 90 64 60
        E 0 90 55 60
        E 0 90 58 60
        E 0 90 49 60
        E 0 90 4c 60
        E 0 90 3d 60
        E 30 80 1a 00
        E 0 80 24 00
        E 0 80 61 00
        E 0 80 64 00
        E 0 80 55 00
        E 0 80 58 00
        E 0 80 49 00
        E 0 80 4c 00
        E 0 80 3d 00
        E 289 90 1a 60
        E 0 90 61 60
        E 30 80 1a 00
        E 0 80 61 00
        E 131 90 24 60
        E 0 90 64 60
        E 0 90 58 60
        E 0 90 4c 60
        E 0 90 40 60
        E 30 80 24 00
        E 0 80 64 00
        E 0 80 58 00
        E 0 80 4c 00
        E 0 80 40 00
        E 129 90 1a 60
        E 0 90 61 60
        E 30 80 1a 00
        E 0 80 61 00
        E 131 90 1b 60
        E 0 90 61 60
        E 30 80 1b 00
        E 0 80 61 00
        E 130 80 74 00
        E 0 90 18 60
        E 0 90 22 60
        E 0 90 26 60
        E 0 90 60 60
        E 0 90 62 60
        E 0 90 64 60
        E 0 90 54 60
        E 0 90 56 60
        E 0 90 58 60
        E 0 90 48 60
        E 0 90 4a 60
        E 0 90 4c 60
        E 0 90 3e 60
        E 0 90 40 60
        E 80 80 18 00
        E 0 80 22 00
        E 0 80 26 00
        E 0 80 60 00
        E 0 80 62 00
        E 0 80 64 00
        E 0 80 54 00
        E 0 80 56 00
        E 0 80 58 00
        E 0 80 48 00
        E 0 80 4a 00
        E 0 80 4c 00
        E 0 80 3e 00
        E 0 80 40 00
        E 400 90 18 60
        E 0 90 22 60
        E 0 90 60 60
        E 0 90 64 60
        E 0 90 54 60
        E 0 90 58 60
        E 0 90 48 60
        E 0 90 4c 60
        E 0 90 40 60
        E 30 80 18 00
        E 0 80 22 00
        E 0 80 60 00
        E 0 80 64 00
        E 0 80 54 00
        E 0 80 58 00
        E 0 80 48 00
        E 0 80 4c 00
        E 0 80 40 00
        E 290 90 18 60
        E 0 90 60 60
        E 30 80 18 00
        E 0 80 60 00
        E 50 90 18 60
        E 0 90 60 60
        E 30 80 18 00
        E 0 80 60 00
        E 50 90 1a 60
        E 0 90 24 60
        E 0 90 61 60
        E 0 90 64 60
        E 0 90 55 60
        E 0 90 58 60
        E 0 90 49 60
        E 0 90 4c 60
        E 0 90 3d 60
        E 30 80 1a 00
        E 0 80 24 00
        E 0 80 61 00
        E 0 80 64 00
        E 0 80 55 00
        E 0 80 58 00
        E 0 80 49 00
        E 0 80 4c 00
        E 0 80 3d 00
        E 130 90 18 60
        E 0 90 60 60
        E 30 80 18 00
        E 0 80 60 00
        E 290 90 18 60
        E 0 90 22 60
        E 0 90 26 60
        E 0 90 60 60
        E 0 90 62 60
        E 0 90 64 60
        E 0 90 54 60
        E 0 90 56 60
        E 0 90 58 60
        E 0 90 48 60
        E 0 90 4a 60
        E 0 90 4c 60
        E 0 90 3e 60
        E 0 90 40 60
        E 30 80 18 00
        E 0 80 22 00
        E 0 80 26 00
        E 0 80 60 00
        E 0 80 62 00
        E 0 80 64 00
        E 0 80 54 00
        E 0 80 56 00
        E 0 80 58 00
        E 0 80 48 00
        E 0 80 4a 00
        E 0 80 4c 00
        E 0 80 3e 00
        E 0 80 40 00
        E 290 90 18 60
        E 0 90 60 60
        E 30 80 18 00
        E 0 80 60 00
        E 130 90 18 60
        E 0 90 22 60
        E 0 90 26 60
        E 0 90 60 60
        E 0 90 62 60
        E 0 90 64 60
        E 0 90 54 60
        E 0 90 56 60
        E 0 90 58 60
        E 0 90 48 60
        E 0 90 4a 60
        E 0 90 4c 60
        E 0 90 3e 60
        E 0 90 40 60
        E 30 80 18 00
        E 0 80 22 00
        E 0 80 26 00
        E 0 80 60 00
        E 0 80 62 00
        E 0 80 64 00
        E 0 80 54 00
        E 0 80 56 00
        E 0 80 58 00
        E 0 80 48 00
        E 0 80 4a 00
        E 0 80 4c 00
        E 0 80 3e 00
        E 0 80 40 00
        E 289 90 18 60
        E 0 90 22 60
        E 0 90 26 60
        E 0 90 60 60
        E 0 90 62 60
        E 0 90 64 60
        E 0 90 54 60
        E 0 90 56 60
        E 0 90 58 60
        E 30 80 18 00
        E 0 80 22 00
        E 0 80 26 00
        E 0 80 60 00
        E 0 80 62 00
        E 0 80 64 00
        E 0 80 54 00
        E 0 80 56 00
        E 0 80 58 00
        E 451 90 18 60
        E 0 90 60 60
        E 30 80 18 00
        E 0 80 60 00
        E 50 90 18 60
        E 0 90 60 60
        E 30 80 18 00
        E 0 80 60 00
        E 50 90 1a 60
        E 0 90 24 60
        E 0 90 61 60
        E 0 90 64 60
        E 0 90 55 60
        E 0 90 58 60
        E 0 90 49 60
        E 0 90 4c 60
        E 0 90 3d 60
        E 30 80 1a 00
        E 0 80 24 00
        E 0 80 61 00
        E 0 80 64 00
        E 0 80 55 00
        E 0 80 58 00
        E 0 80 49 00
        E 0 80 4c 00
        E 0 80 3d 00
        E 450 90 24 60
        E 0 90 64 60
        E 0 90 58 60
        E 0 90 4c 60
        E 0 90 40 60
        E 30 80 24 00
        E 0 80 64 00
        E 0 80 58 00
        E 0 80 4c 00
        E 0 80 40 00
        E 289 90 18 60
        E 0 90 60 60
        E 30 80 18 00
        E 0 80 60 00
        E 131 90 18 60
        E 0 90 24 60
        E 0 90 60 60
        E 0 90 64 60
        E 0 90 54 60
        E 0 90 58 60
        E 0 90 48 60
        E 0 90 4c 60
        E 0 90 40 60
        E 30 80 18 00
        E 0 80 24 00
        E 0 80 60 00
        E 0 80 64 00
        E 0 80 54 00
        E 0 80 58 00
        E 0 80 48 00
        E 0 80 4c 00
        E 0 80 40 00
        E 290 90 18 60
        E 0 90 60 60
        E 30 80 18 00
        E 0 80 60 00
        E 130 90 1a 60
        E 0 90 24 60
        E 0 90 61 60
        E 0 90 64 60
        E 0 90 78 60
        E 0 90 79 60
        E 0 90 7a 60
        E 0 90 7b 60
        E 0 90 7c 60
        E 0 90 55 60
        E 0 90 58 60
        E 0 90 49 60
        E 0 90 4c 60
        E 0 90 3d 60
        E 30 80 1a 00
        E 0 80 24 00
        E 0 80 61 00
        E 0 80 64 00
        E 0 80 55 00
        E 0 80 58 00
        E 0 80 49 00
        E 0 80 4c 00
        E 0 80 3d 00
        E 130 90 2e 60
        E 0 90 62 60
        E 0 90 6e 60
        E 30 80 2e 00
        E 0 80 62 00
        E 0 80 6e 00
        E 50 90 2f 60
        E 0 90 62 60
        E 0 90 56 60
        E 0 90 6e 60
        E 30 80 2f 00
        E 0 80 62 00
        E 0 80 56 00
        E 0 80 6e 00
        E 50 90 2e 60
        E 0 90 62 60
        E 0 90 6e 60
        E 30 80 2e 00
        E 0 80 62 00
        E 0 80 6e 00
        E 130 90 2f 60
        E 0 90 62 60
        E 0 90 56 60
        E 0 90 4a 60
        E 0 90 6e 60
        E 0 90 3e 60
        E 30 80 2f 00
        E 0 80 62 00
        E 0 80 56 00
        E 0 80 4a 00
        E 0 80 6e 00
        E 0 80 3e 00
        E 50 90 2e 60
        E 0 90 62 60
        E 0 90 6e 60
        E 30 80 2e 00
        E 0 80 62 00
        E 0 80 6e 00
        E 50 90 2f 60
        E 0 90 62 60
        E 0 90 6e 60
        E 30 80 2f 00
        E 0 80 62 00
        E 0 80 6e 00
        E 50 90 2e 60
        E 0 90 62 60
        E 0 90 56 60
        E 0 90 6e 60
        E 30 80 2e 00
        E 0 80 62 00
        E 0 80 56 00
        E 0 80 6e 00
        E 49 90 31 60
        E 0 90 63 60
        E 0 90 6f 60
        E 30 80 31 00
        E 0 80 63 00
        E 0 80 6f 00
        E 50 90 30 60
        E 0 90 63 60
        E 0 90 6f 60
        E 30 80 30 00
        E 0 80 63 00
        E 0 80 6f 00
        E 51 90 31 60
        E 0 90 63 60
        E 0 90 57 60
        E 0 90 4b 60
        E 0 90 6f 60
        E 0 90 3f 60
        E 30 80 31 00
        E 0 80 63 00
        E 0 80 57 00
        E 0 80 4b 00
        E 0 80 6f 00
        E 0 80 3f 00
        E 49 90 30 60
        E 0 90 63 60
        E 0 90 6f 60
        E 30 80 30 00
        E 0 80 63 00
        E 0 80 6f 00
        E 50 90 33 60
        E 0 90 64 60
        E 0 90 70 60
        E 30 80 33 00
        E 0 80 64 00
        E 0 80 70 00
        E 51 90 32 60
        E 0 90 64 60
        E 0 90 58 60
        E 0 90 70 60
        E 30 80 32 00
        E 0 80 64 00
        E 0 80 58 00
        E 0 80 70 00
        E 50 90 33 60
        E 0 90 64 60
        E 0 90 70 60
        E 30 80 33 00
        E 0 80 64 00
        E 0 80 70 00
        E 49 90 32 60
        E 0 90 64 60
        E 0 90 70 60
        E 30 80 32 00
        E 0 80 64 00
        E 0 80 70 00
        E 51 80 78 00
        E 0 80 79 00
        E 0 80 7a 00
        E 0 80 7b 00
        E 0 80 7c 00
        E 0 90 18 60
        E 0 90 24 60
        E 0 90 60 60
        E 0 90 64 60
        E 0 90 54 60
        E 0 90 58 60
        E 0 90 48 60
        E 0 90 4c 60
        E 0 90 40 60
        E 30 80 18 00
        E 0 80 24 00
        E 0 80 60 00
        E 0 80 64 00
        E 0 80 54 00
        E 0 80 58 00
        E 0 80 48 00
        E 0 80 4c 00
        E 0 80 40 00
        E 450 90 18 60
        E 0 90 22 60
        E 0 90 26 60
        E 0 90 60 60
        E 0 90 62 60
        E 0 90 64 60
        E 0 90 54 60
        E 0 90 56 60
        E 0 90 58 60
        E 0 90 48 60
        E 0 90 4a 60
        E 0 90 4c 60
        E 0 90 3e 60
        E 0 90 40 60
        E 30 80 18 00
        E 0 80 22 00
        E 0 80 60 00
        E 0 80 64 00
        E 0 80 54 00
        E 0 80 58 00
        E 0 80 48 00
        E 0 80 4c 00
        E 0 80 40 00
        E 50 80 26 00
        E 0 80 62 00
        E 0 80 56 00
        E 0 80 4a 00
        E 0 80 3e 00
        E 240 90 18 60
        E 0 90 60 60
        E 30 80 18 00
        E 0 80 60 00
        E 50 90 18 60
        E 0 90 60 60
        E 30 80 18 00
        E 0 80 60 00
        E 50 90 1a 60
        E 0 90 24 60
        E 0 90 61 60
        E 0 90 64 60
        E 0 90 55 60
        E 0 90 58 60
        E 0 90 49 60
        E 0 90 4c 60
        E 0 90 3d 60
        E 30 80 1a 00
        E 0 80 24 00
        E 0 80 61 00
        E 0 80 64 00
        E 0 80 55 00
        E 0 80 58 00
        E 0 80 49 00
        E 0 80 4c 00
        E 0 80 3d 00
        E 290 90 1a 60
        E 0 90 61 60
        E 30 80 1a 00
        E 0 80 61 00
        E 130 90 24 60
        E 0 90 64 60
        E 0 90 58 60
        E 0 90 4c 60
        E 0 90 40 60
        E 30 80 24 00
        E 0 80 64 00
        E 0 80 58 00
        E 0 80 4c 00
        E 0 80 40 00
        E 130 90 1a 60
        E 0 90 61 60
        E 30 80 1a 00
        E 0 80 61 00
        E 130 90 1b 60
        E 0 90 61 60
        E 30 80 1b 00
        E 0 80 61 00
        E 130 90 18 60
        E 0 90 22 60
        E 0 90 26 60
        E 0 90 60 60
        E 0 90 62 60
        E 0 90 64 60
        E 0 90 54 60
        E 0 90 56 60
        E 0 90 58 60
        E 0 90 48 60
        E 0 90 4a 60
        E 0 90 4c 60
        E 0 90 3e 60
        E 0 90 40 60
        E 30 80 18 00
        E 0 80 60 00
        E 0 80 54 00
        E 0 80 48 00
        E 50 80 22 00
        E 0 80 26 00
        E 0 80 62 00
        E 0 80 64 00
        E 0 80 56 00
        E 0 80 58 00
        E 0 80 4a 00
        E 0 80 4c 00
        E 0 80 3e 00
        E 0 80 40 00
        E 400 90 18 60
        E 0 90 22 60
        E 0 90 60 60
        E 0 90 64 60
        E 0 90 54 60
        E 0 90 58 60
        E 0 90 48 60
        E 0 90 4c 60
        E 0 90 40 60
        E 30 80 18 00
        E 0 80 22 00
        E 0 80 60 00
        E 0 80 64 00
        E 0 80 54 00
        E 0 80 58 00
        E 0 80 48 00
        E 0 80 4c 00
        E 0 80 40 00
        E 290 90 18 60
        E 0 90 60 60
        E 30 80 18 00
        E 0 80 60 00
        E 50 90 18 60
        E 0 90 60 60
        E 30 80 18 00
        E 0 80 60 00
        E 50 90 1a 60
        E 0 90 24 60
        E 0 90 61 60
        E 0 90 64 60
        E 0 90 55 60
        E 0 90 58 60
        E 0 90 49 60
        E 0 90 4c 60
        E 0 90 3d 60
        E 30 80 1a 00
        E 0 80 24 00
        E 0 80 61 00
        E 0 80 64 00
        E 0 80 55 00
        E 0 80 58 00
        E 0 80 49 00
        E 0 80 4c 00
        E 0 80 3d 00
        E 130 90 18 60
        E 0 90 60 60
        E 30 80 18 00
        E 0 80 60 00
        E 290 90 18 60
        E 0 90 22 60
        E 0 90 26 60
        E 0 90 60 60
        E 0 90 62 60
        E 0 90 64 60
        E 0 90 54 60
        E 0 90 56 60
        E 0 90 58 60
        E 0 90 48 60
        E 0 90 4a 60
        E 0 90 4c 60
        E 0 90 3e 60
        E 0 90 40 60
        E 30 80 18 00
        E 0 80 22 00
        E 0 80 26 00
        E 0 80 60 00
        E 0 80 62 00
        E 0 80 64 00
        E 0 80 54 00
        E 0 80 56 00
        E 0 80 58 00
        E 0 80 48 00
        E 0 80 4a 00
        E 0 80 4c 00
        E 0 80 3e 00
        E 0 80 40 00
        E 450 90 18 60
        E 0 90 22 60
        E 0 90 26 60
        E 0 90 60 60
        E 0 90 62 60
        E 0 90 64 60
        E 0 90 54 60
        E 0 90 56 60
        E 0 90 58 60
        E 0 90 48 60
        E 0 90 4a 60
        E 0 90 4c 60
        E 0 90 3e 60
        E 0 90 40 60
        E 30 80 18 00
        E 0 80 22 00
        E 0 80 26 00
        E 0 80 60 00
        E 0 80 62 00
        E 0 80 64 00
        E 0 80 54 00
        E 0 80 56 00
        E 0 80 58 00
        E 0 80 48 00
        E 0 80 4a 00
        E 0 80 4c 00
        E 0 80 3e 00
        E 0 80 40 00
        E 450 90 18 60
        E 0 90 24 60
        E 0 90 60 60
        E 0 90 64 60
        E 0 90 54 60
        E 0 90 58 60
        E 0 90 48 60
        E 0 90 4c 60
        E 0 90 40 60
        E 30 80 18 00
        E 0 80 24 00
        E 0 80 60 00
        E 0 80 64 00
        E 0 80 54 00
        E 0 80 58 00
        E 0 80 48 00
        E 0 80 4c 00
        E 0 80 40 00
        E 289 90 18 60
        E 0 90 60 60
        E 30 80 18 00
        E 0 80 60 00
        E 50 90 18 60
        E 0 90 60 60
        E 30 80 18 00
        E 0 80 60 00
        E 51 90 1a 60
        E 0 90 24 60
        E 0 90 61 60
        E 0 90 64 60
        E 0 90 55 60
        E 0 90 58 60
        E 0 90 49 60
        E 0 90 4c 60
        E 0 90 3d 60
        E 30 80 1a 00
        E 0 80 24 00
        E 0 80 61 00
        E 0 80 64 00
        E 0 80 55 00
        E 0 80 58 00
        E 0 80 49 00
        E 0 80 4c 00
        E 0 80 3d 00
        E 290 90 1a 60
        E 0 90 61 60
        E 30 80 1a 00
        E 0 80 61 00
        E 130 90 24 60
        E 0 90 64 60
        E 0 90 58 60
        E 0 90 4c 60
        E 0 90 40 60
        E 30 80 24 00
        E 0 80 64 00
        E 0 80 58 00
        E 0 80 4c 00
        E 0 80 40 00
        E 130 90 1a 60
        E 0 90 61 60
        E 30 80 1a 00
        E 0 80 61 00
        E 130 90 1b 60
        E 0 90 61 60
        E 30 80 1b 00
        E 0 80 61 00
        E 130 90 18 60
        E 0 90 22 60
        E 0 90 60 60
        E 0 90 64 60
        E 0 90 54 60
        E 0 90 58 60
        E 0 90 48 60
        E 0 90 4c 60
        E 0 90 40 60
        E 30 80 18 00
        E 0 80 22 00
        E 0 80 60 00
        E 0 80 64 00
        E 0 80 54 00
        E 0 80 58 00
        E 0 80 48 00
        E 0 80 4c 00
        E 0 80 40 00
        E 130 90 1b 60
        E 0 90 61 60
        E 30 80 1b 00
        E 0 80 61 00
        E 50 90 1a 60
        E 0 90 61 60
        E 0 90 55 60
        E 30 80 1a 00
        E 0 80 61 00
        E 0 80 55 00
        E 50 90 1b 60
        E 0 90 61 60
        E 30 80 1b 00
        E 0 80 61 00
        E 130 90 18 60
        E 0 90 60 60
        E 0 90 54 60
        E 0 90 48 60
        E 0 90 3c 60
        E 30 80 18 00
        E 0 80 60 00
        E 0 80 54 00
        E 0 80 48 00
        E 0 80 3c 00
        E 130 90 1a 60
        E 0 90 24 60
        E 0 90 61 60
        E 0 90 64 60
        E 30 80 1a 00
        E 0 80 24 00
        E 0 80 61 00
        E 0 80 64 00
        E 129 90 18 60
        E 0 90 60 60
        E 30 80 18 00
        E 0 80 60 00
        E 131 90 1a 60
        E 0 90 24 60
        E 0 90 61 60
        E 0 90 64 60
        E 0 90 55 60
        E 0 90 58 60
        E 0 90 49 60
        E 0 90 4c 60
        E 0 90 3d 60
        E 30 80 1a 00
        E 0 80 24 00
        E 0 80 61 00
        E 0 80 64 00
        E 0 80 55 00
        E 0 80 58 00
        E 0 80 49 00
        E 0 80 4c 00
        E 0 80 3d 00
        E 129 90 18 60
        E 0 90 60 60
        E 30 80 18 00
        E 0 80 60 00
        E 131 90 2e 60
        E 0 90 31 60
        E 0 90 62 60
        E 0 90 63 60
        E 0 90 6e 60
        E 0 90 6f 60
        E 30 80 2e 00
        E 0 80 31 00
        E 0 80 62 00
        E 0 80 63 00
        E 0 80 6e 00
        E 0 80 6f 00
        E 130 90 18 60
        E 0 90 60 60
        E 0 90 54 60
        E 0 90 48 60
        E 0 90 3c 60
        E 30 80 18 00
        E 0 80 60 00
        E 0 80 54 00
        E 0 80 48 00
        E 0 80 3c 00
        E 129 90 2e 60
        E 0 90 31 60
        E 0 90 62 60
        E 0 90 63 60
        E 0 90 6e 60
        E 0 90 6f 60
        E 30 80 2e 00
        E 0 80 31 00
        E 0 80 62 00
        E 0 80 63 00
        E 0 80 6e 00
        E 0 80 6f 00
        E 131 90 18 60
        E 0 90 60 60
        E 30 80 18 00
        E 0 80 60 00
        E 130 90 18 60
        E 0 90 22 60
        E 0 90 26 60
        E 0 90 60 60
        E 0 90 62 60
        E 0 90 64 60
        E 0 90 54 60
        E 0 90 56 60
        E 0 90 58 60
        E 0 90 48 60
        E 0 90 4a 60
        E 0 90 4c 60
        E 0 90 3e 60
        E 0 90 40 60
        E 30 80 18 00
        E 0 80 22 00
        E 0 80 26 00
        E 0 80 60 00
        E 0 80 62 00
        E 0 80 64 00
        E 0 80 54 00
        E 0 80 56 00
        E 0 80 58 00
        E 0 80 48 00
        E 0 80 4a 00
        E 0 80 4c 00
        E 0 80 3e 00
        E 0 80 40 00
        E 290 90 18 60
        E 0 90 22 60
        E 0 90 26 60
        E 0 90 60 60
        E 0 90 62 60
        E 0 90 64 60
        E 0 90 54 60
        E 0 90 56 60
        E 0 90 58 60
        E 30 80 18 00
        E 0 80 22 00
        E 0 80 26 00
        E 0 80 60 00
        E 0 80 62 00
        E 0 80 64 00
        E 0 80 54 00
        E 0 80 56 00
        E 0 80 58 00
        E 450 90 18 60
        E 0 90 60 60
        E 30 80 18 00
        E 0 80 60 00
        E 50 90 18 60
        E 0 90 60 60
        E 30 80 18 00
        E 0 80 60 00
        E 50 90 1a 60
        E 0 90 24 60
        E 0 90 61 60
        E 0 90 64 60
        E 0 90 55 60
        E 0 90 58 60
        E 0 90 49 60
        E 0 90 4c 60
        E 0 90 3d 60
        E 30 80 1a 00
        E 0 80 24 00
        E 0 80 61 00
        E 0 80 64 00
        E 0 80 55 00
        E 0 80 58 00
        E 0 80 49 00
        E 0 80 4c 00
        E 0 80 3d 00
        E 450 90 24 60
        E 0 90 64 60
        E 0 90 58 60
        E 0 90 4c 60
        E 0 90 40 60
        E 30 80 24 00
        E 0 80 64 00
        E 0 80 58 00
        E 0 80 4c 00
        E 0 80 40 00
        E 450 90 18 60
        E 0 90 22 60
        E 0 90 26 60
        E 0 90 60 60
        E 0 90 62 60
        E 0 90 64 60
        E 0 90 54 60
        E 0 90 56 60
        E 0 90 58 60
        E 0 90 48 60
        E 0 90 4a 60
        E 0 90 4c 60
        E 0 90 3e 60
        E 0 90 40 60
        E 30 80 18 00
        E 0 80 22 00
        E 0 80 26 00
        E 0 80 60 00
        E 0 80 62 00
        E 0 80 64 00
        E 0 80 54 00
        E 0 80 56 00
        E 0 80 58 00
        E 0 80 48 00
        E 0 80 4a 00
        E 0 80 4c 00
        E 0 80 3e 00
        E 0 80 40 00
        E 290 90 18 60
        E 0 90 22 60
        E 0 90 26 60
        E 0 90 60 60
        E 0 90 62 60
        E 0 90 64 60
        E 0 90 54 60
        E 0 90 56 60
        E 0 90 58 60
        E 30 80 18 00
        E 0 80 22 00
        E 0 80 26 00
        E 0 80 60 00
        E 0 80 62 00
        E 0 80 64 00
        E 0 80 54 00
        E 0 80 56 00
        E 0 80 58 00
        E 450 90 18 60
        E 0 90 60 60
        E 30 80 18 00
        E 0 80 60 00
        E 50 90 18 60
        E 0 90 60 60
        E 30 80 18 00
        E 0 80 60 00
        E 50 90 1a 60
        E 0 90 24 60
        E 0 90 61 60
        E 0 90 64 60
        E 0 90 55 60
        E 0 90 58 60
        E 0 90 49 60
        E 0 90 4c 60
        E 0 90 3d 60
        E 30 80 1a 00
        E 0 80 24 00
        E 0 80 61 00
        E 0 80 64 00
        E 0 80 55 00
        E 0 80 58 00
        E 0 80 49 00
        E 0 80 4c 00
        E 0 80 3d 00
        E 450 90 1f 60
        E 0 90 62 60
        E 0 90 56 60
        E 0 90 4a 60
        E 0 90 3e 60
        E 30 80 1f 00
        E 0 80 62 00
        E 0 80 56 00
        E 0 80 4a 00
        E 0 80 3e 00
        E 450 90 18 60
        E 0 90 22 60
        E 0 90 26 60
        E 0 90 60 60
        E 0 90 62 60
        E 0 90 64 60
        E 0 90 74 60
        E 0 90 54 60
        E 0 90 56 60
        E 0 90 58 60
        E 0 90 48 60
        E 0 90 4a 60
        E 0 90 4c 60
        E 0 90 3e 60
        E 0 90 40 60
        E 30 80 18 00
        E 0 80 22 00
        E 0 80 26 00
        E 0 80 60 00
        E 0 80 62 00
        E 0 80 64 00
        E 0 80 54 00
        E 0 80 56 00
        E 0 80 58 00
        E 0 80 48 00
        E 0 80 4a 00
        E 0 80 4c 00
        E 0 80 3e 00
        E 0 80 40 00
        E 290 90 18 60
        E 0 90 22 60
        E 0 90 26 60
        E 0 90 60 60
        E 0 90 62 60
        E 0 90 64 60
        E 0 90 54 60
        E 0 90 56 60
        E 0 90 58 60
        E 30 80 18 00
        E 0 80 22 00
        E 0 80 26 00
        E 0 80 60 00
        E 0 80 62 00
        E 0 80 64 00
        E 0 80 54 00
        E 0 80 56 00
        E 0 80 58 00
        E 450 90 18 60
        E 0 90 60 60
        E 30 80 18 00
        E 0 80 60 00
        E 50 90 18 60
        E 0 90 60 60
        E 30 80 18 00
        E 0 80 60 00
        E 50 90 1a 60
        E 0 90 24 60
        E 0 90 61 60
        E 0 90 64 60
        E 0 90 55 60
        E 0 90 58 60
        E 0 90 49 60
        E 0 90 4c 60
        E 0 90 3d 60
        E 30 80 1a 00
        E 0 80 24 00
        E 0 80 61 00
        E 0 80 64 00
        E 0 80 55 00
        E 0 80 58 00
        E 0 80 49 00
        E 0 80 4c 00
        E 0 80 3d 00
        E 450 80 74 00
        E 0 90 24 60
        E 0 90 64 60
        E 0 90 58 60
        E 0 90 4c 60
        E 0 90 40 60
        E 30 80 24 00
        E 0 80 64 00
        E 0 80 58 00
        E 0 80 4c 00
        E 0 80 40 00
        E 290 90 18 60
        E 0 90 60 60
        E 30 80 18 00
        E 0 80 60 00
        E 130 90 1a 60
        E 0 90 24 60
        E 0 90 61 60
        E 0 90 64 60
        E 0 90 78 60
        E 0 90 79 60
        E 0 90 7a 60
        E 0 90 7b 60
        E 0 90 7c 60
        E 0 90 55 60
        E 0 90 58 60
        E 0 90 49 60
        E 0 90 4c 60
        E 0 90 3d 60
        E 30 80 1a 00
        E 0 80 24 00
        E 0 80 61 00
        E 0 80 64 00
        E 0 80 55 00
        E 0 80 58 00
        E 0 80 49 00
        E 0 80 4c 00
        E 0 80 3d 00
        E 130 90 1a 60
        E 0 90 61 60
        E 30 80 1a 00
        E 0 80 61 00
        E 50 90 1b 60
        E 0 90 61 60
        E 0 90 55 60
        E 30 80 1b 00
        E 0 80 61 00
        E 0 80 55 00
        E 50 90 1a 60
        E 0 90 61 60
        E 30 80 1a 00
        E 0 80 61 00
        E 50 90 1b 60
        E 0 90 61 60
        E 30 80 1b 00
        E 0 80 61 00
        E 50 90 1a 60
        E 0 90 61 60
        E 0 90 55 60
        E 0 90 49 60
        E 0 90 3d 60
        E 30 80 1a 00
        E 0 80 61 00
        E 0 80 55 00
        E 0 80 49 00
        E 0 80 3d 00
        E 50 90 1b 60
        E 0 90 61 60
        E 30 80 1b 00
        E 0 80 61 00
        E 50 90 2e 60
        E 0 90 62 60
        E 0 90 6e 60
        E 30 80 2e 00
        E 0 80 62 00
        E 0 80 6e 00
        E 50 90 2f 60
        E 0 90 62 60
        E 0 90 56 60
        E 0 90 6e 60
        E 30 80 2f 00
        E 0 80 62 00
        E 0 80 56 00
        E 0 80 6e 00
        E 50 90 2e 60
        E 0 90 62 60
        E 0 90 6e 60
        E 30 80 2e 00
        E 0 80 62 00
        E 0 80 6e 00
        E 50 90 2f 60
        E 0 90 62 60
        E 0 90 6e 60
        E 30 80 2f 00
        E 0 80 62 00
        E 0 80 6e 00
        E 50 90 2e 60
        E 0 90 62 60
        E 0 90 56 60
        E 0 90 4a 60
        E 0 90 6e 60
        E 0 90 3e 60
        E 30 80 2e 00
        E 0 80 62 00
        E 0 80 56 00
        E 0 80 4a 00
        E 0 80 6e 00
        E 0 80 3e 00
        E 50 90 2f 60
        E 0 90 62 60
        E 0 90 6e 60
        E 30 80 2f 00
        E 0 80 62 00
        E 0 80 6e 00
        E 50 90 30 60
        E 0 90 63 60
        E 0 90 6f 60
        E 30 80 30 00
        E 0 80 63 00
        E 0 80 6f 00
        E 50 90 31 60
        E 0 90 63 60
        E 0 90 57 60
        E 0 90 6f 60
        E 30 80 31 00
        E 0 80 63 00
        E 0 80 57 00
        E 0 80 6f 00
        E 50 90 30 60
        E 0 90 63 60
        E 0 90 6f 60
        E 30 80 30 00
        E 0 80 63 00
        E 0 80 6f 00
        E 50 90 31 60
        E 0 90 63 60
        E 0 90 6f 60
        E 30 80 31 00
        E 0 80 63 00
        E 0 80 6f 00
        E 50 90 30 60
        E 0 90 63 60
        E 0 90 57 60
        E 0 90 4b 60
        E 0 90 6f 60
        E 0 90 3f 60
        E 30 80 30 00
        E 0 80 63 00
        E 0 80 57 00
        E 0 80 4b 00
        E 0 80 6f 00
        E 0 80 3f 00
        E 50 90 31 60
        E 0 90 63 60
        E 0 90 6f 60
        E 30 80 31 00
        E 0 80 63 00
        E 0 80 6f 00
        E 50 90 32 60
        E 0 90 64 60
        E 0 90 70 60
        E 30 80 32 00
        E 0 80 64 00
        E 0 80 70 00
        E 50 90 33 60
        E 0 90 64 60
        E 0 90 58 60
        E 0 90 70 60
        E 30 80 33 00
        E 0 80 64 00
        E 0 80 58 00
        E 0 80 70 00
        E 50 90 32 60
        E 0 90 64 60
        E 0 90 70 60
        E 30 80 32 00
        E 0 80 64 00
        E 0 80 70 00
        E 50 90 33 60
        E 0 90 64 60
        E 0 90 70 60
        E 30 80 33 00
        E 0 80 64 00
        E 0 80 70 00
        E 50 80 78 00
        E 0 80 79 00
        E 0 80 7a 00
        E 0 80 7b 00
        E 0 80 7c 00
        E 0 90 18 60
        E 0 90 22 60
        E 0 90 60 60
        E 0 90 64 60
        E 0 90 54 60
        E 0 90 58 60
        E 0 90 48 60
        E 0 90 4c 60
        E 0 90 40 60
        E 30 80 18 00
        E 0 80 22 00
        E 0 80 60 00
        E 0 80 64 00
        E 0 80 54 00
        E 0 80 58 00
        E 0 80 48 00
        E 0 80 4c 00
        E 0 80 40 00
        E 290 90 18 60
        E 0 90 22 60
        E 0 90 26 60
        E 0 90 60 60
        E 0 90 62 60
        E 0 90 64 60
        E 0 90 54 60
        E 0 90 56 60
        E 0 90 58 60
        E 30 80 18 00
        E 0 80 22 00
        E 0 80 26 00
        E 0 80 60 00
        E 0 80 62 00
        E 0 80 64 00
        E 0 80 54 00
        E 0 80 56 00
        E 0 80 58 00
        E 450 90 18 60
        E 0 90 60 60
        E 30 80 18 00
        E 0 80 60 00
        E 50 90 18 60
        E 0 90 60 60
        E 30 80 18 00
        E 0 80 60 00
        E 50 90 1a 60
        E 0 90 24 60
        E 0 90 61 60
        E 0 90 64 60
        E 0 90 55 60
        E 0 90 58 60
        E 0 90 49 60
        E 0 90 4c 60
        E 0 90 3d 60
        E 30 80 1a 00
        E 0 80 24 00
        E 0 80 61 00
        E 0 80 64 00
        E 0 80 55 00
        E 0 80 58 00
        E 0 80 49 00
        E 0 80 4c 00
        E 0 80 3d 00
        E 450 90 24 60
        E 0 90 64 60
        E 0 90 58 60
        E 0 90 4c 60
        E 0 90 40 60
        E 30 80 24 00
        E 0 80 64 00
        E 0 80 58 00
        E 0 80 4c 00
        E 0 80 40 00
        E 290 90 18 60
        E 0 90 60 60
        E 30 80 18 00
        E 0 80 60 00
        E 130 90 18 60
        E 0 90 24 60
        E 0 90 60 60
        E 0 90 64 60
        E 0 90 54 60
        E 0 90 58 60
        E 0 90 48 60
        E 0 90 4c 60
        E 0 90 40 60
        E 30 80 18 00
        E 0 80 24 00
        E 0 80 60 00
        E 0 80 64 00
        E 0 80 54 00
        E 0 80 58 00
        E 0 80 48 00
        E 0 80 4c 00
        E 0 80 40 00
        E 290 90 18 60
        E 0 90 22 60
        E 0 90 26 60
        E 0 90 60 60
        E 0 90 62 60
        E 0 90 64 60
        E 0 90 54 60
        E 0 90 56 60
        E 0 90 58 60
        E 30 80 18 00
        E 0 80 22 00
        E 0 80 26 00
        E 0 80 60 00
        E 0 80 62 00
        E 0 80 64 00
        E 0 80 54 00
        E 0 80 56 00
        E 0 80 58 00
        E 450 90 18 60
        E 0 90 60 60
        E 30 80 18 00
        E 0 80 60 00
        E 49 90 18 60
        E 0 90 60 60
        E 30 80 18 00
        E 0 80 60 00
        E 51 90 1a 60
        E 0 90 24 60
        E 0 90 61 60
        E 0 90 64 60
        E 0 90 55 60
        E 0 90 58 60
        E 0 90 49 60
        E 0 90 4c 60
        E 0 90 3d 60
        E 30 80 1a 00
        E 0 80 24 00
        E 0 80 61 00
        E 0 80 64 00
        E 0 80 55 00
        E 0 80 58 00
        E 0 80 49 00
        E 0 80 4c 00
        E 0 80 3d 00
        E 50 90 78 60
        E 0 90 79 60
        E 0 90 7a 60
        E 0 90 7b 60
        E 0 90 7c 60
        E 400 90 24 60
        E 0 90 64 60
        E 0 90 58 60
        E 0 90 4c 60
        E 0 90 40 60
        E 30 80 24 00
        E 0 80 64 00
        E 0 80 58 00
        E 0 80 4c 00
        E 0 80 40 00
        E 290 90 18 60
        E 0 90 60 60
        E 30 80 18 00
        E 0 80 60 00
        E 130 90 18 60
        E 0 90 24 60
        E 0 90 60 60
        E 0 90 64 60
        E 0 90 54 60
        E 0 90 58 60
        E 0 90 48 60
        E 0 90 4c 60
        E 0 90 40 60
        E 30 80 18 00
        E 0 80 24 00
        E 0 80 60 00
        E 0 80 64 00
        E 0 80 54 00
        E 0 80 58 00
        E 0 80 48 00
        E 0 80 4c 00
        E 0 80 40 00
        E 290 80 78 00
        E 0 80 79 00
        E 0 80 7a 00
        E 0 80 7b 00
        E 0 80 7c 00
        E 0 90 18 60
        E 0 90 22 60
        E 0 90 26 60
        E 0 90 60 60
        E 0 90 62 60
        E 0 90 64 60
        E 0 90 54 60
        E 0 90 56 60
        E 0 90 58 60
        E 30 80 18 00
        E 0 80 22 00
        E 0 80 26 00
        E 0 80 60 00
        E 0 80 62 00
        E 0 80 64 00
        E 0 80 54 00
        E 0 80 56 00
        E 0 80 58 00
        E 450 90 18 60
        E 0 90 60 60
        E 30 80 18 00
        E 0 80 60 00
        E 50 90 18 60
        E 0 90 60 60
        E 30 80 18 00
        E 0 80 60 00
        E 50 90 1a 60
        E 0 90 24 60
        E 0 90 61 60
        E 0 90 64 60
        E 0 90 55 60
        E 0 90 58 60
        E 0 90 49 60
        E 0 90 4c 60
        E 0 90 3d 60
        E 30 80 1a 00
        E 0 80 24 00
        E 0 80 61 00
        E 0 80 64 00
        E 0 80 55 00
        E 0 80 58 00
        E 0 80 49 00
        E 0 80 4c 00
        E 0 80 3d 00
        E 450 90 24 60
        E 0 90 64 60
        E 0 90 58 60
        E 0 90 4c 60
        E 0 90 40 60
        E 30 80 24 00
        E 0 80 64 00
        E 0 80 58 00
        E 0 80 4c 00
        E 0 80 40 00
        E 290 90 18 60
        E 0 90 60 60
        E 30 80 18 00
        E 0 80 60 00
        E 130 90 24 60
        E 0 90 64 60
        E 0 90 58 60
        E 0 90 4c 60
        E 0 90 40 60
        E 30 80 24 00
        E 0 80 64 00
        E 0 80 58 00
        E 0 80 4c 00
        E 0 80 40 00
        E 130 90 1a 60
        E 0 90 61 60
        E 30 80 1a 00
        E 0 80 61 00
        E 50 90 1b 60
        E 0 90 61 60
        E 0 90 55 60
        E 30 80 1b 00
        E 0 80 61 00
        E 0 80 55 00
        E 50 90 1a 60
        E 0 90 61 60
        E 30 80 1a 00
        E 0 80 61 00
        E 130 90 18 60
        E 0 90 60 60
        E 0 90 54 60
        E 0 90 48 60
        E 0 90 3c 60
        E 30 80 18 00
        E 0 80 60 00
        E 0 80 54 00
        E 0 80 48 00
        E 0 80 3c 00
        E 130 90 2e 60
        E 0 90 31 60
        E 0 90 62 60
        E 0 90 63 60
        E 0 90 6e 60
        E 0 90 6f 60
        E 30 80 2e 00
        E 0 80 31 00
        E 0 80 62 00
        E 0 80 63 00
        E 0 80 6e 00
        E 0 80 6f 00
        E 130 90 18 60
        E 0 90 60 60
        E 30 80 18 00
        E 0 80 60 00
        E 130 90 2e 60
        E 0 90 33 60
        E 0 90 62 60
        E 0 90 64 60
        E 0 90 56 60
        E 0 90 58 60
        E 0 90 4a 60
        E 0 90 4c 60
        E 0 90 6e 60
        E 0 90 70 60
        E 0 90 3e 60
        E 0 90 40 60
        E 30 80 2e 00
        E 0 80 33 00
        E 0 80 62 00
        E 0 80 64 00
        E 0 80 56 00
        E 0 80 58 00
        E 0 80 4a 00
        E 0 80 4c 00
        E 0 80 6e 00
        E 0 80 70 00
        E 0 80 3e 00
        E 0 80 40 00
        E 130 90 18 60
        E 0 90 60 60
        E 30 80 18 00
        E 0 80 60 00
        E 130 90 30 60
        E 0 90 33 60
        E 0 90 63 60
        E 0 90 64 60
        E 0 90 6f 60
        E 0 90 70 60
        E 30 80 30 00
        E 0 80 33 00
        E 0 80 63 00
        E 0 80 64 00
        E 0 80 6f 00
        E 0 80 70 00
        E 130 90 18 60
        E 0 90 60 60
        E 0 90 54 60
        E 0 90 48 60
        E 0 90 3c 60
        E 30 80 18 00
        E 0 80 60 00
        E 0 80 54 00
        E 0 80 48 00
        E 0 80 3c 00
        E 130 90 1a 60
        E 0 90 1b 60
        E 0 90 61 60
        E 0 90 62 60
        E 0 90 6e 60
        E 30 80 1a 00
        E 0 80 1b 00
        E 0 80 61 00
        E 0 80 62 00
        E 0 80 6e 00
        E 130 90 18 60
        E 0 90 60 60
        E 30 80 18 00
        E 0 80 60 00
        E 130 90 18 60
        E 0 90 24 60
        E 0 90 60 60
        E 0 90 64 60
        E 0 90 54 60
        E 0 90 58 60
        E 0 90 48 60
        E 0 90 4c 60
        E 0 90 40 60
        E 30 80 18 00
        E 0 80 24 00
        E 0 80 60 00
        E 0 80 64 00
        E 0 80 54 00
        E 0 80 58 00
        E 0 80 48 00
        E 0 80 4c 00
        E 0 80 40 00
        E 290 90 18 60
        E 0 90 22 60
        E 0 90 26 60
        E 0 90 60 60
        E 0 90 62 60
        E 0 90 64 60
        E 0 90 54 60
        E 0 90 56 60
        E 0 90 58 60
        E 30 80 18 00
        E 0 80 22 00
        E 0 80 26 00
        E 0 80 60 00
        E 0 80 62 00
        E 0 80 64 00
        E 0 80 54 00
        E 0 80 56 00
        E 0 80 58 00
        E 610 90 24 60
        E 0 90 64 60
        E 0 90 58 60
        E 0 90 4c 60
        E 0 90 40 60
        E 30 80 24 00
        E 0 80 64 00
        E 0 80 58 00
        E 0 80 4c 00
        E 0 80 40 00
        E 129 90 2b 60
        E 0 90 63 60
        E 30 80 2b 00
        E 0 80 63 00
        E 131 90 24 60
        E 0 90 64 60
        E 30 80 24 00
        E 0 80 64 00
        E 130 90 2b 60
        E 0 90 63 60
        E 0 90 57 60
        E 0 90 4b 60
        E 0 90 3f 60
        E 30 80 2b 00
        E 0 80 63 00
        E 0 80 57 00
        E 0 80 4b 00
        E 0 80 3f 00
        E 130 90 24 60
        E 0 90 64 60
        E 30 80 24 00
        E 0 80 64 00
        E 129 90 2b 60
        E 0 90 63 60
        E 30 80 2b 00
        E 0 80 63 00
        E 131 90 24 60
        E 0 90 64 60
        E 0 90 58 60
        E 0 90 4c 60
        E 0 90 40 60
        E 30 80 24 00
        E 0 80 64 00
        E 0 80 58 00
        E 0 80 4c 00
        E 0 80 40 00
        E 129 90 2b 60
        E 0 90 63 60
        E 30 80 2b 00
        E 0 80 63 00
        E 131 90 24 60
        E 0 90 64 60
        E 30 80 24 00
        E 0 80 64 00
        E 130 90 2b 60
        E 0 90 63 60
        E 0 90 57 60
        E 0 90 4b 60
        E 0 90 3f 60
        E 30 80 2b 00
        E 0 80 63 00
        E 0 80 57 00
        E 0 80 4b 00
        E 0 80 3f 00
        E 130 90 24 60
        E 0 90 64 60
        E 30 80 24 00
        E 0 80 64 00
        E 129 90 2b 60
        E 0 90 63 60
        E 30 80 2b 00
        E 0 80 63 00
        E 131 90 24 60
        E 0 90 64 60
        E 0 90 58 60
        E 0 90 4c 60
        E 0 90 40 60
        E 30 80 24 00
        E 0 80 64 00
        E 0 80 58 00
        E 0 80 4c 00
        E 0 80 40 00
        E 129 90 2b 60
        E 0 90 63 60
        E 30 80 2b 00
        E 0 80 63 00
        E 131 90 24 60
        E 0 90 64 60
        E 30 80 24 00
        E 0 80 64 00
        E 130 90 2b 60
        E 0 90 63 60
        E 0 90 57 60
        E 0 90 4b 60
        E 0 90 3f 60
        E 30 80 2b 00
        E 0 80 63 00
        E 0 80 57 00
        E 0 80 4b 00
        E 0 80 3f 00
        E 130 90 24 60
        E 0 90 64 60
        E 30 80 24 00
        E 0 80 64 00
        E 130 90 2b 60
        E 0 90 63 60
        E 30 80 2b 00
        E 0 80 63 00
        E 130 90 24 60
        E 0 90 64 60
        E 0 90 58 60
        E 0 90 4c 60
        E 0 90 40 60
        E 30 80 24 00
        E 0 80 64 00
        E 0 80 58 00
        E 0 80 4c 00
        E 0 80 40 00
        E 130 90 2b 60
        E 0 90 63 60
        E 30 80 2b 00
        E 0 80 63 00
        E 129 90 24 60
        E 0 90 64 60
        E 30 80 24 00
        E 0 80 64 00
        E 131 90 2b 60
        E 0 90 63 60
        E 0 90 57 60
        E 0 90 4b 60
        E 0 90 3f 60
        E 30 80 2b 00
        E 0 80 63 00
        E 0 80 57 00
        E 0 80 4b 00
        E 0 80 3f 00
        E 129 90 24 60
        E 0 90 64 60
        E 30 80 24 00
        E 0 80 64 00
        E 131 90 2b 60
        E 0 90 63 60
        E 30 80 2b 00
        E 0 80 63 00
        E 130 90 24 60
        E 0 90 64 60
        E 0 90 58 60
        E 0 90 4c 60
        E 0 90 40 60
        E 30 80 24 00
        E 0 80 64 00
        E 0 80 58 00
        E 0 80 4c 00
        E 0 80 40 00
        E 130 90 2b 60
        E 0 90 63 60
        E 30 80 2b 00
        E 0 80 63 00
        E 129 90 24 60
        E 0 90 64 60
        E 30 80 24 00
        E 0 80 64 00
        E 131 90 2b 60
        E 0 90 63 60
        E 0 90 57 60
        E 0 90 4b 60
        E 0 90 3f 60
        E 30 80 2b 00
        E 0 80 63 00
        E 0 80 57 00
        E 0 80 4b 00
        E 0 80 3f 00
        E 129 90 24 60
        E 0 90 64 60
        E 30 80 24 00
        E 0 80 64 00
        E 131 90 2b 60
        E 0 90 63 60
        E 30 80 2b 00
        E 0 80 63 00
        E 130 90 24 60
        E 0 90 64 60
        E 0 90 58 60
        E 0 90 4c 60
        E 0 90 40 60
        E 30 80 24 00
        E 0 80 64 00
        E 0 80 58 00
        E 0 80 4c 00
        E 0 80 40 00
        <X 480 0
          /wFbaWRsZV9yZWFsdGltZV0=
        >
        E 13890 b0 7b 00
        GUID {99C52F88-C54B-4CCD-B038-A5C950AC8E6E}
        IGNTEMPO 0 120.00000000 4 4
        SRCCOLOR 289
        VELLANE 132 38 60
        COLORMAP "C:\Program Files (x86)\REAPER\Data\color_maps\rockband_drums.png"
        BANKPROGRAMFILE "C:\Users\AJFOne23\AppData\Roaming\REAPER/Data/GM.reabank"
        TEXTSTRINGFILE "Text Events List.txt"
        CFGEDITVIEW -176884.208818 1.492502 37 12 0 0 0
        CFGEDIT 1 1 0 0 0 1 1 1 1 1 1 0.16666667 -8 -8 1370 736 1 2 1 2 0.00000000 0 0 0 0 0.500000 1 0 1.000000 64
        KEYSNAP 0 0 "102034050607" 0 "Major"
        EVTFILTER 0 -1 -1 -1 -1 0 1 0 0 -1.00000000 -1.00000000
      >
    >
  >
  <TRACK '{6B7F9B4B-FF4E-4CE6-9E2D-4C9BD5DAED77}'
    NAME "PART GUITAR"
    PEAKCOL 33488896
    BEAT -1
    AUTOMODE 0
    VOLPAN 1.00000000000000 0.00000000000000 -1.00000000000000 -1.00000000000000 1.00000000000000
    MUTESOLO 0 0 0
    IPHASE 0
    ISBUS 0 0
    BUSCOMP 1 0
    SHOWINMIX 1 0.666700 0.500000 1 0.500000 -1 -1 -1
    FREEMODE 0
    SEL 0
    REC 0 4096 1 7 0 0 0
    TRACKHEIGHT 71 0
    INQ 0 0 0 0.5000000000 100 0 0 100
    NCHAN 2
    FX 1
    TRACKID {6B7F9B4B-FF4E-4CE6-9E2D-4C9BD5DAED77}
    PERF 0
    MIDIOUT -1
    <MIDINOTENAMES
      0 116 "OVERDRIVE"
      0 102 "Force HOPO Off"
      0 101 "Force HOPO On"
      0 100 "EXPERT Orange"
      0 99 "EXPERT Blue"
      0 98 "EXPERT Yellow"
      0 97 "EXPERT Red"
      0 96 "EXPERT Green"
      0 88 "HARD Orange"
      0 87 "HARD Blue"
      0 86 "HARD Yellow"
      0 85 "HARD Red"
      0 84 "HARD Green"
      0 76 "MEDIUM Orange"
      0 75 "MEDIUM Blue"
      0 74 "MEDIUM Yellow"
      0 73 "MEDIUM Red"
      0 72 "MEDIUM Green"
      0 64 "EASY Orange"
      0 63 "EASY Blue"
      0 62 "EASY Yellow"
      0 61 "EASY Red"
      0 60 "EASY Green"
      0 59 "Left Hand Highest"
      0 40 "Left Hand Lowest"
      0 58 "-"
      0 57 "-"
      0 56 "-"
      0 55 "-"
      0 54 "-"
      0 53 "-"
      0 52 "-"
      0 51 "-"
      0 50 "-"
      0 49 "-"
      0 48 "-"
      0 47 "-"
      0 46 "-"
      0 45 "-"
      0 44 "-"
      0 43 "-"
      0 42 "-"
      0 41 "-"
      0 115 "----"
      0 95 "----"
      0 89 "Force HOPO On"
      0 77 "----"
      0 65 "----"
      0 119 "----"
      0 120 "BRE (use all 5)"
      0 121 "BRE"
      0 122 "BRE"
      0 123 "BRE"
      0 124 "BRE"
      0 90 "Force HOPO Off"
      0 103 "Solo Marker"
      0 127 "Trill Marker"
      0 125 "----"
    >
    MAINSEND 1 0
    <FXCHAIN
      WNDRECT 0 38 878 585
      SHOW 0
      LASTSEL 1
      DOCKED 0
      BYPASS 1 0
      <VST "VSTi: ReaSynth (Cockos)" "reasynth.dll" 0 ""
        eXNlcu9e7f4AAAAAAgAAAAEAAAAAAAAAAgAAAAAAAAA4AAAAAAAAAA==
        AAAAAO++rd4N8K3eAAAAAAAAAAAAAAAAAAAAADm0SD59y9s+tbSxOQ==
        AAAAALbz/T5VpCs6AAAAAAAAAAAAAAAAAAA=
      >
      FLOATPOS 0 0 0 0
      FXID {52B28C73-185B-48E4-B8F4-1FD7A8848B0F}
      WAK 0
      BYPASS 0 0
      <VST "VSTi: RBN Preview (RBN)" "rbprev_vst.dll" 0 ""
        dnBicu5e7f4AAAAAAgAAAAEAAAAAAAAAAgAAAAAAAAAEAAAAAQAAAA==
        AAAAAAMAqgAAAAAAAAA=
      >
      FLOATPOS 32 32 659 497
      FXID {190BBB08-7A86-476B-BD07-5F71F5CD6F7C}
      WAK 0
    >
    <ITEM
      POSITION 0.00000000000000
      SNAPOFFS 0.00000000000000
      LENGTH 249.91602778456021
      LOOP 0
      ALLTAKES 0
      SEL 0
      FADEIN 1 0.000000 0.000000 1 0
      FADEOUT 1 0.000000 0.000000 1 0
      MUTE 0
      IGUID {81210F06-DA35-41E7-BA75-C6E1C5689733}
      IID 5
      NAME "PART GUITAR"
      VOLPAN 1.000000 0.000000 1.000000 -1.000000
      SOFFS 0.00000000000000 0.00000000000000
      PLAYRATE 1.00000000000000 1 0.00000000000000 -65536
      CHANMODE 0
      GUID {61757875-B3D4-49E4-8483-EE351B7D2386}
      <SOURCE MIDI
        HASDATA 1 480 QN
        POOLEDEVTS {6EB23DB0-3477-445B-BFF9-FD53167C51FD}
        <X 0 0
          /wNQQVJUIEdVSVRBUg==
        >
        <X 3840 0
          /wFbcGxheV0=
        >
        E 1800 90 62 60
        E 120 80 62 00
        E 0 90 3e 60
        E 0 90 4b 60
        E 0 90 57 60
        E 0 90 63 60
        E 120 80 3e 00
        E 0 80 4b 00
        E 0 80 57 00
        E 0 80 63 00
        E 0 90 63 60
        E 120 80 63 00
        E 0 90 4b 60
        E 0 90 58 60
        E 0 90 64 60
        E 120 80 4b 00
        E 0 80 58 00
        E 0 80 64 00
        E 0 90 63 60
        E 120 80 63 00
        E 0 90 4b 60
        E 0 90 57 60
        E 0 90 63 60
        E 120 80 4b 00
        E 0 80 57 00
        E 0 80 63 00
        E 0 90 63 60
        E 120 80 63 00
        E 0 90 56 60
        E 0 90 62 60
        E 120 80 56 00
        E 0 80 62 00
        E 0 90 61 60
        E 120 80 61 00
        E 0 90 3c 60
        E 0 90 48 60
        E 0 90 54 60
        E 0 90 60 60
        E 120 80 3c 00
        E 0 80 48 00
        E 0 80 54 00
        E 0 80 60 00
        E 0 90 61 60
        E 120 80 61 00
        E 0 90 56 60
        E 0 90 62 60
        E 120 80 56 00
        E 0 80 62 00
        E 0 90 64 60
        E 120 80 64 00
        E 0 90 49 60
        E 0 90 55 60
        E 0 90 61 60
        E 120 80 49 00
        E 0 80 55 00
        E 0 80 61 00
        E 0 90 63 60
        E 120 80 63 00
        E 0 90 58 60
        E 0 90 64 60
        E 120 80 58 00
        E 0 80 64 00
        E 0 90 61 60
        E 120 80 61 00
        E 0 90 3e 60
        E 0 90 4b 60
        E 0 90 58 60
        E 0 90 64 60
        E 120 80 3e 00
        E 0 80 4b 00
        E 0 80 58 00
        E 0 80 64 00
        E 0 90 64 60
        E 120 80 64 00
        E 0 90 56 60
        E 0 90 62 60
        E 120 80 56 00
        E 0 80 62 00
        E 0 90 63 60
        E 120 80 63 00
        E 0 90 3e 60
        E 0 90 4b 60
        E 0 90 57 60
        E 0 90 63 60
        E 120 80 3e 00
        E 0 80 4b 00
        E 0 80 57 00
        E 0 80 63 00
        E 0 90 63 60
        E 120 80 63 00
        E 0 90 4b 60
        E 0 90 58 60
        E 0 90 64 60
        E 120 80 4b 00
        E 0 80 58 00
        E 0 80 64 00
        E 0 90 63 60
        E 120 80 63 00
        E 0 90 3e 60
        E 0 90 4b 60
        E 0 90 57 60
        E 0 90 63 60
        E 120 80 3e 00
        E 0 80 4b 00
        E 0 80 57 00
        E 0 80 63 00
        E 0 90 63 60
        E 120 80 63 00
        E 0 90 56 60
        E 0 90 62 60
        E 120 80 56 00
        E 0 80 62 00
        E 0 90 61 60
        E 120 80 61 00
        E 0 90 48 60
        E 0 90 54 60
        E 0 90 60 60
        E 120 80 48 00
        E 0 80 54 00
        E 0 80 60 00
        E 0 90 61 60
        E 120 80 61 00
        E 0 90 56 60
        E 0 90 62 60
        E 120 80 56 00
        E 0 80 62 00
        E 0 90 64 60
        E 120 80 64 00
        E 0 90 3d 60
        E 0 90 49 60
        E 0 90 55 60
        E 0 90 61 60
        E 120 80 3d 00
        E 0 80 49 00
        E 0 80 55 00
        E 0 80 61 00
        E 0 90 64 60
        E 120 80 64 00
        E 0 90 58 60
        E 0 90 64 60
        E 120 80 58 00
        E 0 80 64 00
        E 0 90 61 60
        E 120 80 61 00
        E 0 90 4b 60
        E 0 90 57 60
        E 0 90 63 60
        E 120 80 4b 00
        E 0 80 57 00
        E 0 80 63 00
        E 0 90 64 60
        E 120 80 64 00
        E 0 90 58 60
        E 0 90 64 60
        E 120 80 58 00
        E 0 80 64 00
        E 0 90 62 60
        E 120 80 62 00
        E 0 90 3d 60
        E 0 90 4a 60
        E 0 90 56 60
        E 0 90 62 60
        E 120 80 3d 00
        E 0 80 4a 00
        E 0 80 56 00
        E 0 80 62 00
        E 0 90 63 60
        E 120 80 63 00
        E 0 90 58 60
        E 0 90 64 60
        E 120 80 58 00
        E 0 80 64 00
        E 0 90 63 60
        E 120 80 63 00
        E 0 90 4b 60
        E 0 90 57 60
        E 0 90 63 60
        E 120 80 4b 00
        E 0 80 57 00
        E 0 80 63 00
        E 0 90 63 60
        E 120 80 63 00
        E 0 90 56 60
        E 0 90 62 60
        E 120 80 56 00
        E 0 80 62 00
        E 0 90 61 60
        E 120 80 61 00
        E 0 90 3c 60
        E 0 90 48 60
        E 0 90 54 60
        E 0 90 60 60
        E 120 80 3c 00
        E 0 80 48 00
        E 0 80 54 00
        E 0 80 60 00
        E 0 90 61 60
        E 120 80 61 00
        E 0 90 56 60
        E 0 90 62 60
        E 120 80 56 00
        E 0 80 62 00
        E 0 90 64 60
        E 120 80 64 00
        E 0 90 49 60
        E 0 90 55 60
        E 0 90 61 60
        E 120 80 49 00
        E 0 80 55 00
        E 0 80 61 00
        E 0 90 63 60
        E 120 80 63 00
        E 0 90 58 60
        E 0 90 64 60
        E 120 80 58 00
        E 0 80 64 00
        E 0 90 61 60
        E 120 80 61 00
        E 0 90 3e 60
        E 0 90 4b 60
        E 0 90 58 60
        E 0 90 64 60
        E 120 80 3e 00
        E 0 80 4b 00
        E 0 80 58 00
        E 0 80 64 00
        E 0 90 64 60
        E 120 80 64 00
        E 0 90 56 60
        E 0 90 62 60
        E 120 80 56 00
        E 0 80 62 00
        E 0 90 63 60
        E 120 80 63 00
        E 0 90 3e 60
        E 0 90 4b 60
        E 0 90 57 60
        E 0 90 63 60
        E 120 80 3e 00
        E 0 80 4b 00
        E 0 80 57 00
        E 0 80 63 00
        E 0 90 63 60
        E 120 80 63 00
        E 0 90 4b 60
        E 0 90 58 60
        E 0 90 64 60
        E 120 80 4b 00
        E 0 80 58 00
        E 0 80 64 00
        E 0 90 63 60
        E 120 80 63 00
        E 0 90 3e 60
        E 0 90 4b 60
        E 0 90 57 60
        E 0 90 63 60
        E 120 80 3e 00
        E 0 80 4b 00
        E 0 80 57 00
        E 0 80 63 00
        E 0 90 63 60
        E 120 80 63 00
        E 0 90 56 60
        E 0 90 62 60
        E 120 80 56 00
        E 0 80 62 00
        E 0 90 61 60
        E 120 80 61 00
        E 0 90 48 60
        E 0 90 54 60
        E 0 90 60 60
        E 120 80 48 00
        E 0 80 54 00
        E 0 80 60 00
        E 0 90 61 60
        E 120 80 61 00
        E 0 90 56 60
        E 0 90 62 60
        E 120 80 56 00
        E 0 80 62 00
        E 0 90 64 60
        E 120 80 64 00
        E 0 90 3d 60
        E 0 90 49 60
        E 0 90 55 60
        E 0 90 61 60
        E 120 80 3d 00
        E 0 80 49 00
        E 0 80 55 00
        E 0 80 61 00
        E 0 90 64 60
        E 120 80 64 00
        E 0 90 58 60
        E 0 90 64 60
        E 120 80 58 00
        E 0 80 64 00
        E 0 90 61 60
        E 120 80 61 00
        E 0 90 4b 60
        E 0 90 57 60
        E 0 90 63 60
        E 120 80 4b 00
        E 0 80 57 00
        E 0 80 63 00
        E 0 90 64 60
        E 120 80 64 00
        E 120 90 61 60
        E 120 80 61 00
        E 0 90 3d 60
        E 0 90 4a 60
        E 0 90 56 60
        E 0 90 62 60
        E 120 80 3d 00
        E 0 80 4a 00
        E 0 80 56 00
        E 0 80 62 00
        E 0 90 63 60
        E 120 80 63 00
        E 0 90 58 60
        E 0 90 64 60
        E 120 80 58 00
        E 0 80 64 00
        E 0 90 62 60
        E 120 80 62 00
        E 0 90 4b 60
        E 0 90 57 60
        E 0 90 63 60
        E 120 80 4b 00
        E 0 80 57 00
        E 0 80 63 00
        E 0 90 63 60
        E 120 80 63 00
        E 0 90 57 60
        E 0 90 63 60
        E 120 80 57 00
        E 0 80 63 00
        E 0 90 62 60
        E 120 80 62 00
        E 0 90 3d 60
        E 0 90 49 60
        E 0 90 55 60
        E 0 90 61 60
        E 120 80 3d 00
        E 0 80 49 00
        E 0 80 55 00
        E 0 80 61 00
        E 0 90 60 60
        E 120 80 60 00
        E 0 90 54 60
        E 0 90 60 60
        E 120 80 54 00
        E 0 80 60 00
        E 0 90 61 60
        E 120 80 61 00
        E 0 90 4b 60
        E 0 90 58 60
        E 0 90 64 60
        E 120 80 4b 00
        E 0 80 58 00
        E 0 80 64 00
        E 0 90 60 60
        E 120 80 60 00
        E 0 90 56 60
        E 0 90 62 60
        E 120 80 56 00
        E 0 80 62 00
        E 0 90 64 60
        E 120 80 64 00
        E 0 90 3c 60
        E 0 90 48 60
        E 0 90 54 60
        E 0 90 60 60
        E 120 80 3c 00
        E 0 80 48 00
        E 0 80 54 00
        E 0 80 60 00
        E 0 90 63 60
        E 120 80 63 00
        E 0 90 58 60
        E 0 90 64 60
        E 120 80 58 00
        E 0 80 64 00
        E 0 90 61 60
        E 120 80 61 00
        E 0 90 4a 60
        E 0 90 56 60
        E 0 90 62 60
        E 120 80 4a 00
        E 0 80 56 00
        E 0 80 62 00
        E 0 90 63 60
        E 120 80 63 00
        E 0 90 58 60
        E 0 90 64 60
        E 120 80 58 00
        E 0 80 64 00
        E 0 90 62 60
        E 120 80 62 00
        E 0 90 3e 60
        E 0 90 4b 60
        E 0 90 57 60
        E 0 90 63 60
        E 120 80 3e 00
        E 0 80 4b 00
        E 0 80 57 00
        E 0 80 63 00
        E 0 90 63 60
        E 120 80 63 00
        E 0 90 56 60
        E 0 90 62 60
        E 120 80 56 00
        E 0 80 62 00
        E 0 90 61 60
        E 120 80 61 00
        E 0 90 48 60
        E 0 90 54 60
        E 0 90 60 60
        E 120 80 48 00
        E 0 80 54 00
        E 0 80 60 00
        E 0 90 60 60
        E 120 80 60 00
        E 0 90 55 60
        E 0 90 61 60
        E 120 80 55 00
        E 0 80 61 00
        E 0 90 64 60
        E 120 80 64 00
        E 0 90 3c 60
        E 0 90 48 60
        E 0 90 54 60
        E 0 90 60 60
        E 120 80 3c 00
        E 0 80 48 00
        E 0 80 54 00
        E 0 80 60 00
        E 0 90 63 60
        E 120 80 63 00
        E 0 90 58 60
        E 0 90 64 60
        E 120 80 58 00
        E 0 80 64 00
        E 0 90 60 60
        E 120 80 60 00
        E 0 90 4a 60
        E 0 90 56 60
        E 0 90 62 60
        E 120 80 4a 00
        E 0 80 56 00
        E 0 80 62 00
        E 0 90 64 60
        E 120 80 64 00
        E 120 90 61 60
        E 120 80 61 00
        E 0 90 3d 60
        E 0 90 4a 60
        E 0 90 56 60
        E 0 90 62 60
        E 120 80 3d 00
        E 0 80 4a 00
        E 0 80 56 00
        E 0 80 62 00
        E 0 90 63 60
        E 120 80 63 00
        E 0 90 58 60
        E 0 90 64 60
        E 120 80 58 00
        E 0 80 64 00
        E 0 90 62 60
        E 120 80 62 00
        E 0 90 4b 60
        E 0 90 57 60
        E 0 90 63 60
        E 120 80 4b 00
        E 0 80 57 00
        E 0 80 63 00
        E 0 90 63 60
        E 120 80 63 00
        E 0 90 56 60
        E 0 90 62 60
        E 120 80 56 00
        E 0 80 62 00
        E 0 90 61 60
        E 120 80 61 00
        E 0 90 3c 60
        E 0 90 48 60
        E 0 90 54 60
        E 0 90 60 60
        E 120 80 3c 00
        E 0 80 48 00
        E 0 80 54 00
        E 0 80 60 00
        E 0 90 60 60
        E 120 80 60 00
        E 0 90 55 60
        E 0 90 61 60
        E 120 80 55 00
        E 0 80 61 00
        E 0 90 64 60
        E 120 80 64 00
        E 0 90 48 60
        E 0 90 54 60
        E 0 90 60 60
        E 120 80 48 00
        E 0 80 54 00
        E 0 80 60 00
        E 0 90 62 60
        E 120 80 62 00
        E 0 90 58 60
        E 0 90 64 60
        E 120 80 58 00
        E 0 80 64 00
        E 0 90 60 60
        E 120 80 60 00
        E 0 90 3e 60
        E 0 90 4b 60
        E 0 90 57 60
        E 0 90 63 60
        E 120 80 3e 00
        E 0 80 4b 00
        E 0 80 57 00
        E 0 80 63 00
        E 0 90 64 60
        E 120 80 64 00
        E 120 90 61 60
        E 120 80 61 00
        E 0 90 4a 60
        E 0 90 56 60
        E 0 90 62 60
        E 120 80 4a 00
        E 0 80 56 00
        E 0 80 62 00
        E 0 90 63 60
        E 120 80 63 00
        E 0 90 58 60
        E 0 90 64 60
        E 120 80 58 00
        E 0 80 64 00
        E 0 90 62 60
        E 120 80 62 00
        E 0 90 3e 60
        E 0 90 4b 60
        E 0 90 57 60
        E 0 90 63 60
        E 120 80 3e 00
        E 0 80 4b 00
        E 0 80 57 00
        E 0 80 63 00
        E 0 90 63 60
        E 120 80 63 00
        E 0 90 56 60
        E 0 90 62 60
        E 120 80 56 00
        E 0 80 62 00
        E 0 90 61 60
        E 120 80 61 00
        E 0 90 48 60
        E 0 90 54 60
        E 0 90 60 60
        E 120 80 48 00
        E 0 80 54 00
        E 0 80 60 00
        E 0 90 60 60
        E 120 80 60 00
        E 0 90 55 60
        E 0 90 61 60
        E 120 80 55 00
        E 0 80 61 00
        E 0 90 64 60
        E 120 80 64 00
        E 0 90 3c 60
        E 0 90 48 60
        E 0 90 54 60
        E 0 90 60 60
        E 120 80 3c 00
        E 0 80 48 00
        E 0 80 54 00
        E 0 80 60 00
        E 0 90 63 60
        E 120 80 63 00
        E 0 90 58 60
        E 0 90 64 60
        E 120 80 58 00
        E 0 80 64 00
        E 0 90 60 60
        E 120 80 60 00
        E 0 90 4a 60
        E 0 90 56 60
        E 0 90 62 60
        E 120 80 4a 00
        E 0 80 56 00
        E 0 80 62 00
        E 0 90 64 60
        E 120 80 64 00
        E 0 90 56 60
        E 0 90 62 60
        E 120 80 56 00
        E 0 80 62 00
        E 0 90 62 60
        E 120 80 62 00
        E 0 90 3e 60
        E 0 90 4b 60
        E 0 90 57 60
        E 0 90 63 60
        E 120 80 3e 00
        E 0 80 4b 00
        E 0 80 57 00
        E 0 80 63 00
        E 0 90 63 60
        E 120 80 63 00
        E 0 90 4b 60
        E 0 90 58 60
        E 0 90 64 60
        E 120 80 4b 00
        E 0 80 58 00
        E 0 80 64 00
        E 0 90 63 60
        E 120 80 63 00
        E 0 90 4b 60
        E 0 90 57 60
        E 0 90 63 60
        E 120 80 4b 00
        E 0 80 57 00
        E 0 80 63 00
        E 0 90 63 60
        E 120 80 63 00
        E 0 90 56 60
        E 0 90 62 60
        E 120 80 56 00
        E 0 80 62 00
        E 0 90 61 60
        E 120 80 61 00
        E 0 90 3c 60
        E 0 90 48 60
        E 0 90 54 60
        E 0 90 60 60
        E 120 80 3c 00
        E 0 80 48 00
        E 0 80 54 00
        E 0 80 60 00
        E 0 90 61 60
        E 120 80 61 00
        E 0 90 56 60
        E 0 90 62 60
        E 120 80 56 00
        E 0 80 62 00
        E 0 90 64 60
        E 120 80 64 00
        E 0 90 49 60
        E 0 90 55 60
        E 0 90 61 60
        E 120 80 49 00
        E 0 80 55 00
        E 0 80 61 00
        E 0 90 63 60
        E 120 80 63 00
        E 0 90 58 60
        E 0 90 64 60
        E 120 80 58 00
        E 0 80 64 00
        E 0 90 61 60
        E 120 80 61 00
        E 0 90 3e 60
        E 0 90 4b 60
        E 0 90 58 60
        E 0 90 64 60
        E 120 80 3e 00
        E 0 80 4b 00
        E 0 80 58 00
        E 0 80 64 00
        E 0 90 64 60
        E 120 80 64 00
        E 0 90 56 60
        E 0 90 62 60
        E 120 80 56 00
        E 0 80 62 00
        E 0 90 63 60
        E 120 80 63 00
        E 0 90 3e 60
        E 0 90 4b 60
        E 0 90 57 60
        E 0 90 63 60
        E 120 80 3e 00
        E 0 80 4b 00
        E 0 80 57 00
        E 0 80 63 00
        E 0 90 63 60
        E 120 80 63 00
        E 0 90 4b 60
        E 0 90 58 60
        E 0 90 64 60
        E 120 80 4b 00
        E 0 80 58 00
        E 0 80 64 00
        E 0 90 63 60
        E 120 80 63 00
        E 0 90 3e 60
        E 0 90 4b 60
        E 0 90 57 60
        E 0 90 63 60
        E 120 80 3e 00
        E 0 80 4b 00
        E 0 80 57 00
        E 0 80 63 00
        E 0 90 63 60
        E 120 80 63 00
        E 0 90 56 60
        E 0 90 62 60
        E 120 80 56 00
        E 0 80 62 00
        E 0 90 61 60
        E 120 80 61 00
        E 0 90 48 60
        E 0 90 54 60
        E 0 90 60 60
        E 120 80 48 00
        E 0 80 54 00
        E 0 80 60 00
        E 0 90 61 60
        E 120 80 61 00
        E 0 90 56 60
        E 0 90 62 60
        E 120 80 56 00
        E 0 80 62 00
        E 0 90 64 60
        E 120 80 64 00
        E 0 90 3d 60
        E 0 90 49 60
        E 0 90 55 60
        E 0 90 61 60
        E 120 80 3d 00
        E 0 80 49 00
        E 0 80 55 00
        E 0 80 61 00
        E 0 90 64 60
        E 120 80 64 00
        E 0 90 64 60
        E 0 90 58 60
        E 120 80 64 00
        E 0 80 58 00
        E 0 90 61 60
        E 120 80 61 00
        E 0 90 4b 60
        E 0 90 57 60
        E 0 90 63 60
        E 120 80 4b 00
        E 0 80 57 00
        E 0 80 63 00
        E 0 90 64 60
        E 120 80 64 00
        E 0 90 64 60
        E 0 90 58 60
        E 120 80 64 00
        E 0 80 58 00
        E 0 90 62 60
        E 120 80 62 00
        E 0 90 3d 60
        E 0 90 4a 60
        E 0 90 56 60
        E 0 90 62 60
        E 120 80 3d 00
        E 0 80 4a 00
        E 0 80 56 00
        E 0 80 62 00
        E 0 90 63 60
        E 120 80 63 00
        E 0 90 64 60
        E 0 90 58 60
        E 120 80 64 00
        E 0 80 58 00
        E 0 90 63 60
        E 120 80 63 00
        E 0 90 4b 60
        E 0 90 57 60
        E 0 90 63 60
        E 120 80 4b 00
        E 0 80 57 00
        E 0 80 63 00
        E 0 90 63 60
        E 120 80 63 00
        E 0 90 62 60
        E 0 90 56 60
        E 120 80 62 00
        E 0 80 56 00
        E 0 90 61 60
        E 120 80 61 00
        E 0 90 3c 60
        E 0 90 48 60
        E 0 90 54 60
        E 0 90 60 60
        E 120 80 3c 00
        E 0 80 48 00
        E 0 80 54 00
        E 0 80 60 00
        E 0 90 61 60 -1
        E 120 80 61 00 -1
        E 0 90 56 60
        E 0 90 62 60
        E 120 80 56 00
        E 0 80 62 00
        E 0 90 64 60
        E 120 80 64 00
        E 0 90 49 60
        E 0 90 55 60
        E 0 90 61 60
        E 120 80 49 00
        E 0 80 55 00
        E 0 80 61 00
        E 0 90 63 60
        E 120 80 63 00
        E 0 90 58 60
        E 0 90 64 60
        E 120 80 58 00
        E 0 80 64 00
        E 0 90 61 60
        E 120 80 61 00
        E 0 90 3e 60
        E 0 90 4b 60
        E 0 90 58 60
        E 0 90 64 60
        E 120 80 3e 00
        E 0 80 4b 00
        E 0 80 58 00
        E 0 80 64 00
        E 0 90 64 60
        E 120 80 64 00
        E 0 90 56 60
        E 0 90 62 60
        E 120 80 56 00
        E 0 80 62 00
        E 0 90 63 60
        E 120 80 63 00
        E 0 90 3e 60
        E 0 90 4b 60
        E 0 90 57 60
        E 0 90 63 60
        E 120 80 3e 00
        E 0 80 4b 00
        E 0 80 57 00
        E 0 80 63 00
        E 0 90 63 60
        E 120 80 63 00
        E 0 90 4b 60
        E 0 90 58 60
        E 0 90 64 60
        E 120 80 4b 00
        E 0 80 58 00
        E 0 80 64 00
        E 0 90 63 60
        E 120 80 63 00
        E 0 90 3e 60
        E 0 90 4b 60
        E 0 90 57 60
        E 0 90 63 60
        E 120 80 3e 00
        E 0 80 4b 00
        E 0 80 57 00
        E 0 80 63 00
        E 0 90 63 60
        E 120 80 63 00
        E 0 90 56 60
        E 0 90 62 60
        E 120 80 56 00
        E 0 80 62 00
        E 0 90 61 60
        E 120 80 61 00
        E 0 90 48 60
        E 0 90 54 60
        E 0 90 60 60
        E 120 80 48 00
        E 0 80 54 00
        E 0 80 60 00
        E 0 90 61 60
        E 120 80 61 00
        E 0 90 56 60
        E 0 90 62 60
        E 120 80 56 00
        E 0 80 62 00
        E 0 90 64 60
        E 120 80 64 00
        E 0 90 3d 60
        E 0 90 49 60
        E 0 90 55 60
        E 0 90 61 60
        E 120 80 3d 00
        E 0 80 49 00
        E 0 80 55 00
        E 0 80 61 00
        E 0 90 64 60
        E 120 80 64 00
        E 0 90 58 60
        E 0 90 64 60
        E 120 80 58 00
        E 0 80 64 00
        E 0 90 61 60
        E 119 90 4b 60
        E 0 90 57 60
        E 1 80 61 00
        E 0 90 63 60 -1
        E 119 80 4b 00
        E 0 80 57 00
        E 1 80 63 00 -1
        E 0 90 64 60
        E 120 80 64 00
        E 120 90 61 60
        E 120 80 61 00
        E 0 90 3d 60
        E 0 90 4a 60
        E 0 90 56 60
        E 0 90 62 60
        E 120 80 3d 00
        E 0 80 4a 00
        E 0 80 56 00
        E 0 80 62 00
        E 0 90 63 60
        E 120 80 63 00
        E 0 90 58 60
        E 0 90 64 60
        E 120 80 58 00
        E 0 80 64 00
        E 0 90 62 60
        E 120 80 62 00
        E 0 90 4b 60
        E 0 90 57 60
        E 0 90 63 60
        E 120 80 4b 00
        E 0 80 57 00
        E 0 80 63 00
        E 0 90 63 60
        E 120 80 63 00
        E 0 90 57 60
        E 0 90 63 60
        E 120 80 57 00
        E 0 80 63 00
        E 0 90 62 60
        E 120 80 62 00
        E 0 90 3d 60
        E 0 90 49 60
        E 0 90 55 60
        E 0 90 61 60
        E 120 80 3d 00
        E 0 80 49 00
        E 0 80 55 00
        E 0 80 61 00
        E 0 90 60 60
        E 120 80 60 00
        E 0 90 54 60
        E 0 90 60 60
        E 120 80 54 00
        E 0 80 60 00
        E 0 90 61 60
        E 120 80 61 00
        E 0 90 4b 60
        E 0 90 58 60
        E 0 90 64 60
        E 120 80 4b 00
        E 0 80 58 00
        E 0 80 64 00
        E 0 90 60 60
        E 120 80 60 00
        E 0 90 56 60
        E 0 90 62 60
        E 120 80 56 00
        E 0 80 62 00
        E 0 90 64 60
        E 120 80 64 00
        E 0 90 3c 60
        E 0 90 48 60
        E 0 90 54 60
        E 0 90 60 60
        E 120 80 3c 00
        E 0 80 48 00
        E 0 80 54 00
        E 0 80 60 00
        E 0 90 63 60
        E 120 80 63 00
        E 0 90 58 60
        E 0 90 64 60
        E 120 80 58 00
        E 0 80 64 00
        E 0 90 61 60
        E 120 80 61 00
        E 0 90 4a 60
        E 0 90 56 60
        E 0 90 62 60
        E 120 80 4a 00
        E 0 80 56 00
        E 0 80 62 00
        E 0 90 63 60
        E 120 80 63 00
        E 0 90 58 60
        E 0 90 64 60
        E 120 80 58 00
        E 0 80 64 00
        E 0 90 62 60
        E 120 80 62 00
        E 0 90 3e 60
        E 0 90 4b 60
        E 0 90 57 60
        E 0 90 63 60
        E 120 80 3e 00
        E 0 80 4b 00
        E 0 80 57 00
        E 0 80 63 00
        E 0 90 63 60
        E 120 80 63 00
        E 0 90 56 60
        E 0 90 62 60
        E 120 80 56 00
        E 0 80 62 00
        E 0 90 61 60
        E 120 80 61 00
        E 0 90 48 60
        E 0 90 54 60
        E 0 90 60 60
        E 120 80 48 00
        E 0 80 54 00
        E 0 80 60 00
        E 0 90 60 60
        E 120 80 60 00
        E 0 90 55 60
        E 0 90 61 60
        E 120 80 55 00
        E 0 80 61 00
        E 0 90 64 60
        E 120 80 64 00
        E 0 90 3c 60
        E 0 90 48 60
        E 0 90 54 60
        E 0 90 60 60
        E 120 80 3c 00
        E 0 80 48 00
        E 0 80 54 00
        E 0 80 60 00
        E 0 90 63 60
        E 120 80 63 00
        E 0 90 58 60
        E 0 90 64 60
        E 120 80 58 00
        E 0 80 64 00
        E 0 90 60 60
        E 120 80 60 00
        E 0 90 4a 60
        E 0 90 56 60
        E 0 90 62 60
        E 120 80 4a 00
        E 0 80 56 00
        E 0 80 62 00
        E 0 90 64 60
        E 120 80 64 00
        E 120 90 61 60
        E 120 80 61 00
        E 0 90 3d 60
        E 0 90 4a 60
        E 0 90 56 60
        E 0 90 62 60
        E 120 80 3d 00
        E 0 80 4a 00
        E 0 80 56 00
        E 0 80 62 00
        E 0 90 63 60
        E 120 80 63 00
        E 0 90 58 60
        E 0 90 64 60
        E 120 80 58 00
        E 0 80 64 00
        E 0 90 62 60
        E 120 80 62 00
        E 0 90 4b 60
        E 0 90 57 60
        E 0 90 63 60
        E 120 80 4b 00
        E 0 80 57 00
        E 0 80 63 00
        E 0 90 63 60
        E 120 80 63 00
        E 0 90 56 60
        E 0 90 62 60
        E 120 80 56 00
        E 0 80 62 00
        E 0 90 61 60
        E 120 80 61 00
        E 0 90 3c 60
        E 0 90 48 60
        E 0 90 54 60
        E 0 90 60 60
        E 120 80 3c 00
        E 0 80 48 00
        E 0 80 54 00
        E 0 80 60 00
        E 0 90 60 60
        E 120 80 60 00
        E 0 90 55 60
        E 0 90 61 60
        E 120 80 55 00
        E 0 80 61 00
        E 0 90 64 60
        E 120 80 64 00
        E 0 90 48 60
        E 0 90 54 60
        E 0 90 60 60
        E 120 80 48 00
        E 0 80 54 00
        E 0 80 60 00
        E 0 90 62 60
        E 120 80 62 00
        E 0 90 58 60
        E 0 90 64 60
        E 120 80 58 00
        E 0 80 64 00
        E 0 90 60 60
        E 120 80 60 00
        E 0 90 3e 60
        E 0 90 4b 60
        E 0 90 57 60
        E 0 90 63 60
        E 120 80 3e 00
        E 0 80 4b 00
        E 0 80 57 00
        E 0 80 63 00
        E 0 90 64 60
        E 120 80 64 00
        E 120 90 61 60
        E 120 80 61 00
        E 0 90 4a 60
        E 0 90 56 60
        E 0 90 62 60
        E 120 80 4a 00
        E 0 80 56 00
        E 0 80 62 00
        E 0 90 63 60
        E 120 80 63 00
        E 0 90 58 60
        E 0 90 64 60
        E 120 80 58 00
        E 0 80 64 00
        E 0 90 62 60
        E 120 80 62 00
        E 0 90 3e 60
        E 0 90 4b 60
        E 0 90 57 60
        E 0 90 63 60
        E 120 80 3e 00
        E 0 80 4b 00
        E 0 80 57 00
        E 0 80 63 00
        E 0 90 63 60
        E 120 80 63 00
        E 0 90 56 60
        E 0 90 62 60
        E 120 80 56 00
        E 0 80 62 00
        E 0 90 61 60
        E 120 80 61 00
        E 0 90 48 60
        E 0 90 54 60
        E 0 90 60 60
        E 120 80 48 00
        E 0 80 54 00
        E 0 80 60 00
        E 0 90 60 60
        E 120 80 60 00
        E 0 90 55 60
        E 0 90 61 60
        E 120 80 55 00
        E 0 80 61 00
        E 0 90 64 60
        E 120 80 64 00
        E 0 90 3c 60
        E 0 90 48 60
        E 0 90 54 60
        E 0 90 60 60
        E 120 80 3c 00
        E 0 80 48 00
        E 0 80 54 00
        E 0 80 60 00
        E 0 90 63 60
        E 120 80 63 00
        E 0 90 58 60
        E 0 90 64 60
        E 120 80 58 00
        E 0 80 64 00
        E 0 90 60 60
        E 120 80 60 00
        E 0 90 4a 60
        E 0 90 56 60
        E 0 90 62 60
        E 120 80 4a 00
        E 0 80 56 00
        E 0 80 62 00
        E 0 90 64 60
        E 120 80 64 00
        E 120 90 63 60
        E 60 80 63 00
        E 60 90 3e 60
        E 0 90 4b 60
        E 0 90 58 60
        E 0 90 64 60
        E 60 80 3e 00
        E 0 80 4b 00
        E 0 80 58 00
        E 0 80 64 00
        E 60 90 63 60
        E 60 80 63 00
        E 60 90 56 60
        E 0 90 62 60
        E 60 80 56 00
        E 0 80 62 00
        E 60 90 62 60
        E 60 80 62 00
        E 60 90 4b 60
        E 0 90 57 60
        E 0 90 63 60
        E 60 80 4b 00
        E 0 80 57 00
        E 0 80 63 00
        E 60 90 62 60
        E 60 80 62 00
        E 60 90 55 60
        E 0 90 61 60
        E 60 80 55 00
        E 0 80 61 00
        E 0 90 62 60
        E 60 80 62 00
        E 0 90 63 60
        E 0 90 65 60
        E 60 80 63 00
        E 0 90 62 60
        E 60 80 65 00
        E 0 80 62 00
        E 0 90 3d 60
        E 0 90 49 60
        E 0 90 55 60
        E 0 90 61 60
        E 60 80 3d 00
        E 0 80 49 00
        E 0 80 55 00
        E 0 80 61 00
        E 120 90 60 60
        E 60 80 60 00
        E 240 90 4a 60
        E 0 90 4b 60
        E 0 90 56 60
        E 0 90 58 60
        E 0 90 62 60
        E 0 90 64 60
        E 60 80 4a 00
        E 0 80 4b 00
        E 0 80 56 00
        E 0 80 58 00
        E 0 80 62 00
        E 0 80 64 00
        E 180 90 4a 60
        E 0 90 4b 60
        E 0 90 55 60
        E 0 90 58 60
        E 0 90 61 60
        E 0 90 64 60
        E 60 80 4a 00
        E 0 80 4b 00
        E 0 80 55 00
        E 0 80 58 00
        E 0 80 61 00
        E 0 80 64 00
        E 180 90 3f 60
        E 0 90 4a 60
        E 0 90 4b 60
        E 0 90 56 60
        E 0 90 58 60
        E 0 90 62 60
        E 0 90 64 60
        E 60 80 3f 00
        E 0 80 4a 00
        E 0 80 4b 00
        E 0 80 56 00
        E 0 80 58 00
        E 0 80 62 00
        E 0 80 64 00
        E 180 90 57 60
        E 0 90 58 60
        E 0 90 63 60
        E 0 90 64 60
        E 60 80 57 00
        E 0 80 58 00
        E 0 80 63 00
        E 0 80 64 00
        E 180 90 4b 60
        E 0 90 57 60
        E 0 90 63 60
        E 60 80 4b 00
        E 0 80 57 00
        E 0 80 63 00
        E 120 90 63 60
        E 0 90 64 60
        E 60 80 63 00
        E 0 80 64 00
        E 240 90 40 60
        E 0 90 4b 60
        E 0 90 4c 60
        E 0 90 57 60
        E 0 90 58 60
        E 0 90 63 60
        E 0 90 64 60
        E 60 80 40 00
        E 0 80 4b 00
        E 0 80 4c 00
        E 0 80 57 00
        E 0 80 58 00
        E 0 80 63 00
        E 0 80 64 00
        E 180 90 57 60
        E 0 90 63 60
        E 60 80 57 00
        E 0 80 63 00
        E 59 90 64 60
        E 60 80 64 00
        E 61 90 4b 60
        E 0 90 57 60
        E 0 90 63 60
        E 60 80 4b 00
        E 0 80 57 00
        E 0 80 63 00
        E 60 90 62 60
        E 59 80 62 00
        E 60 90 56 60
        E 0 90 62 60
        E 60 80 56 00
        E 0 80 62 00
        E 61 90 63 60
        E 60 80 63 00
        E 60 90 3d 60
        E 0 90 4a 60
        E 0 90 56 60
        E 0 90 62 60
        E 60 80 3d 00
        E 0 80 4a 00
        E 0 80 56 00
        E 0 80 62 00
        E 0 90 61 60
        E 59 80 61 00
        E 1 90 62 60
        E 0 90 65 60
        E 60 80 62 00
        E 0 90 63 60
        E 60 80 63 00
        E 0 90 4a 60
        E 0 90 56 60
        E 0 90 62 60
        E 60 80 4a 00
        E 0 80 56 00
        E 0 80 62 00
        E 0 90 61 60
        E 60 80 65 00
        E 0 80 61 00
        E 60 90 60 60
        E 60 80 60 00
        E 180 90 56 60
        E 0 90 58 60
        E 0 90 62 60
        E 0 90 64 60
        E 60 80 56 00
        E 0 80 58 00
        E 0 80 62 00
        E 0 80 64 00
        E 180 90 4a 60
        E 0 90 4b 60
        E 0 90 55 60
        E 0 90 58 60
        E 0 90 61 60
        E 0 90 64 60
        E 60 80 4a 00
        E 0 80 4b 00
        E 0 80 55 00
        E 0 80 58 00
        E 0 80 61 00
        E 0 80 64 00
        E 180 90 57 60
        E 0 90 58 60
        E 0 90 63 60
        E 0 90 64 60
        E 60 80 57 00
        E 0 80 58 00
        E 0 80 63 00
        E 0 80 64 00
        E 180 90 3f 60
        E 0 90 4a 60
        E 0 90 4b 60
        E 0 90 56 60
        E 0 90 58 60
        E 0 90 62 60
        E 0 90 64 60
        E 60 80 3f 00
        E 0 80 4a 00
        E 0 80 4b 00
        E 0 80 56 00
        E 0 80 58 00
        E 0 80 62 00
        E 0 80 64 00
        E 300 90 56 60
        E 0 90 58 60
        E 0 90 62 60
        E 0 90 64 60
        E 60 80 56 00
        E 0 80 58 00
        E 0 80 62 00
        E 0 80 64 00
        E 240 90 56 60
        E 0 90 58 60
        E 0 90 62 60
        E 0 90 64 60
        E 60 80 56 00
        E 0 80 58 00
        E 0 80 62 00
        E 0 80 64 00
        E 180 90 63 60
        E 60 80 63 00
        E 60 90 3e 60
        E 0 90 4b 60
        E 0 90 58 60
        E 0 90 64 60
        E 60 80 3e 00
        E 0 80 4b 00
        E 0 80 58 00
        E 0 80 64 00
        E 60 90 63 60
        E 60 80 63 00
        E 60 90 56 60
        E 0 90 62 60
        E 60 80 56 00
        E 0 80 62 00
        E 60 90 62 60
        E 60 80 62 00
        E 0 90 63 60
        E 0 90 65 60
        E 60 80 63 00
        E 0 90 3e 60
        E 0 90 4b 60
        E 0 90 58 60
        E 0 90 64 60
        E 60 80 3e 00
        E 0 80 4b 00
        E 0 80 58 00
        E 0 80 64 00
        E 0 90 63 60
        E 60 80 63 00
        E 0 90 62 60
        E 60 80 62 00
        E 59 90 55 60
        E 0 90 61 60
        E 60 80 55 00
        E 0 80 61 00
        E 1 90 62 60
        E 60 80 62 00
        E 0 90 63 60
        E 60 80 63 00
        E 0 90 62 60
        E 60 80 65 00
        E 0 80 62 00
        E 0 90 49 60
        E 0 90 55 60
        E 0 90 61 60
        E 60 80 49 00
        E 0 80 55 00
        E 0 80 61 00
        E 120 90 60 60
        E 60 80 60 00
        E 240 90 3f 60
        E 0 90 4a 60
        E 0 90 4b 60
        E 0 90 56 60
        E 0 90 58 60
        E 0 90 62 60
        E 0 90 64 60
        E 60 80 3f 00
        E 0 80 4a 00
        E 0 80 4b 00
        E 0 80 56 00
        E 0 80 58 00
        E 0 80 62 00
        E 0 80 64 00
        E 180 90 4a 60
        E 0 90 4b 60
        E 0 90 55 60
        E 0 90 58 60
        E 0 90 61 60
        E 0 90 64 60
        E 60 80 4a 00
        E 0 80 4b 00
        E 0 80 55 00
        E 0 80 58 00
        E 0 80 61 00
        E 0 80 64 00
        E 180 90 3f 60
        E 0 90 4a 60
        E 0 90 4b 60
        E 0 90 56 60
        E 0 90 58 60
        E 0 90 62 60
        E 0 90 64 60
        E 60 80 3f 00
        E 0 80 4a 00
        E 0 80 4b 00
        E 0 80 56 00
        E 0 80 58 00
        E 0 80 62 00
        E 0 80 64 00
        E 180 90 57 60
        E 0 90 58 60
        E 0 90 63 60
        E 0 90 64 60
        E 60 80 57 00
        E 0 80 58 00
        E 0 80 63 00
        E 0 80 64 00
        E 240 90 4b 60
        E 0 90 4c 60
        E 0 90 57 60
        E 0 90 58 60
        E 0 90 63 60
        E 0 90 64 60
        E 60 80 4b 00
        E 0 80 4c 00
        E 0 80 57 00
        E 0 80 58 00
        E 0 80 63 00
        E 0 80 64 00
        E 300 90 57 60
        E 0 90 58 60
        E 0 90 63 60
        E 0 90 64 60
        E 60 80 57 00
        E 0 80 58 00
        E 0 80 63 00
        E 0 80 64 00
        E 180 90 3e 60
        E 0 90 4b 60
        E 0 90 57 60
        E 0 90 63 60
        E 60 80 3e 00
        E 0 80 4b 00
        E 0 80 57 00
        E 0 80 63 00
        E 60 90 64 60
        E 60 80 64 00
        E 60 90 57 60
        E 0 90 63 60
        E 60 80 57 00
        E 0 80 63 00
        E 60 90 62 60
        E 60 80 62 00
        E 60 90 4a 60
        E 0 90 56 60
        E 0 90 62 60
        E 60 80 4a 00
        E 0 80 56 00
        E 0 80 62 00
        E 60 90 63 60
        E 60 80 63 00
        E 60 90 56 60
        E 0 90 62 60
        E 60 80 56 00
        E 0 80 62 00
        E 59 90 61 60
        E 60 80 61 00
        E 1 90 62 60
        E 60 80 62 00
        E 0 90 63 60
        E 0 90 65 60
        E 60 80 63 00
        E 0 90 56 60
        E 0 90 62 60
        E 60 80 65 00
        E 0 80 56 00
        E 0 80 62 00
        E 0 90 61 60
        E 60 80 61 00
        E 120 90 3c 60
        E 0 90 48 60
        E 0 90 54 60
        E 0 90 60 60
        E 120 80 3c 00
        E 0 80 48 00
        E 0 80 54 00
        E 0 80 60 00
        E 120 90 56 60
        E 0 90 58 60
        E 0 90 62 60
        E 0 90 64 60
        E 120 80 56 00
        E 0 80 58 00
        E 0 80 62 00
        E 0 80 64 00
        E 120 90 4a 60
        E 0 90 4b 60
        E 0 90 55 60
        E 0 90 58 60
        E 0 90 61 60
        E 0 90 64 60
        E 120 80 4a 00
        E 0 80 4b 00
        E 0 80 55 00
        E 0 80 58 00
        E 0 80 61 00
        E 0 80 64 00
        E 120 90 57 60
        E 0 90 58 60
        E 0 90 63 60
        E 0 90 64 60
        E 120 80 57 00
        E 0 80 58 00
        E 0 80 63 00
        E 0 80 64 00
        E 120 90 3f 60
        E 0 90 4a 60
        E 0 90 4b 60
        E 0 90 56 60
        E 0 90 58 60
        E 0 90 62 60
        E 0 90 64 60
        E 120 80 3f 00
        E 0 80 4a 00
        E 0 80 4b 00
        E 0 80 56 00
        E 0 80 58 00
        E 0 80 62 00
        E 0 80 64 00
        E 240 90 56 60
        E 0 90 58 60
        E 0 90 62 60
        E 0 90 64 60
        E 120 80 56 00
        E 0 80 58 00
        E 0 80 62 00
        E 0 80 64 00
        E 240 90 56 60
        E 0 90 58 60
        E 0 90 62 60
        E 0 90 64 60
        E 120 80 56 00
        E 0 80 58 00
        E 0 80 62 00
        E 0 80 64 00
        E 120 90 3c 60
        E 0 90 48 60
        E 0 90 4a 60
        E 0 90 55 60
        E 0 90 56 60
        E 0 90 61 60
        E 0 90 62 60
        E 120 80 3c 00
        E 0 80 48 00
        E 0 80 4a 00
        E 0 80 55 00
        E 0 80 56 00
        E 0 80 61 00
        E 0 80 62 00
        E 120 90 54 60
        E 0 90 60 60
        E 120 80 54 00
        E 0 80 60 00
        E 120 90 48 60
        E 0 90 54 60
        E 0 90 60 60
        E 120 80 48 00
        E 0 80 54 00
        E 0 80 60 00
        E 120 90 55 60
        E 0 90 56 60
        E 0 90 61 60
        E 0 90 62 60
        E 120 80 55 00
        E 0 80 56 00
        E 0 80 61 00
        E 0 80 62 00
        E 120 90 3e 60
        E 0 90 49 60
        E 0 90 4b 60
        E 0 90 56 60
        E 0 90 57 60
        E 0 90 62 60
        E 0 90 63 60
        E 120 80 3e 00
        E 0 80 49 00
        E 0 80 4b 00
        E 0 80 56 00
        E 0 80 57 00
        E 0 80 62 00
        E 0 80 63 00
        E 240 90 56 60
        E 0 90 57 60
        E 0 90 62 60
        E 0 90 63 60
        E 120 80 56 00
        E 0 80 57 00
        E 0 80 62 00
        E 0 80 63 00
        E 240 90 56 60
        E 0 90 57 60
        E 0 90 62 60
        E 0 90 63 60
        E 120 80 56 00
        E 0 80 57 00
        E 0 80 62 00
        E 0 80 63 00
        E 120 90 3c 60
        E 0 90 48 60
        E 0 90 4a 60
        E 0 90 55 60
        E 0 90 56 60
        E 0 90 61 60
        E 0 90 62 60
        E 120 80 3c 00
        E 0 80 48 00
        E 0 80 4a 00
        E 0 80 55 00
        E 0 80 56 00
        E 0 80 61 00
        E 0 80 62 00
        E 120 90 54 60
        E 0 90 60 60
        E 120 80 54 00
        E 0 80 60 00
        E 120 90 3c 60
        E 0 90 48 60
        E 0 90 54 60
        E 0 90 60 60
        E 120 80 3c 00
        E 0 80 48 00
        E 0 80 54 00
        E 0 80 60 00
        E 120 90 56 60
        E 0 90 57 60
        E 0 90 62 60
        E 0 90 63 60
        E 120 80 56 00
        E 0 80 57 00
        E 0 80 62 00
        E 0 80 63 00
        E 120 90 3c 60
        E 0 90 48 60
        E 0 90 4a 60
        E 0 90 55 60
        E 0 90 56 60
        E 0 90 61 60
        E 0 90 62 60
        E 120 80 3c 00
        E 0 80 48 00
        E 0 80 4a 00
        E 0 80 55 00
        E 0 80 56 00
        E 0 80 61 00
        E 0 80 62 00
        E 240 90 55 60
        E 0 90 56 60
        E 0 90 61 60
        E 0 90 62 60
        E 120 80 55 00
        E 0 80 56 00
        E 0 80 61 00
        E 0 80 62 00
        E 240 90 48 60
        E 0 90 4a 60
        E 0 90 55 60
        E 0 90 56 60
        E 0 90 61 60
        E 0 90 62 60
        E 120 80 48 00
        E 0 80 4a 00
        E 0 80 55 00
        E 0 80 56 00
        E 0 80 61 00
        E 0 80 62 00
        E 120 90 3c 60
        E 0 90 48 60
        E 0 90 4a 60
        E 0 90 55 60
        E 0 90 56 60
        E 0 90 61 60
        E 0 90 62 60
        E 120 80 3c 00
        E 0 80 48 00
        E 0 80 4a 00
        E 0 80 55 00
        E 0 80 56 00
        E 0 80 61 00
        E 0 80 62 00
        E 120 90 54 60
        E 0 90 60 60
        E 120 80 54 00
        E 0 80 60 00
        E 120 90 48 60
        E 0 90 54 60
        E 0 90 60 60
        E 120 80 48 00
        E 0 80 54 00
        E 0 80 60 00
        E 120 90 55 60
        E 0 90 56 60
        E 0 90 61 60
        E 0 90 62 60
        E 120 80 55 00
        E 0 80 56 00
        E 0 80 61 00
        E 0 80 62 00
        E 120 90 3e 60
        E 0 90 49 60
        E 0 90 4b 60
        E 0 90 56 60
        E 0 90 57 60
        E 0 90 62 60
        E 0 90 63 60
        E 120 80 3e 00
        E 0 80 49 00
        E 0 80 4b 00
        E 0 80 56 00
        E 0 80 57 00
        E 0 80 62 00
        E 0 80 63 00
        E 240 90 56 60
        E 0 90 57 60
        E 0 90 62 60
        E 0 90 63 60
        E 120 80 56 00
        E 0 80 57 00
        E 0 80 62 00
        E 0 80 63 00
        E 240 90 56 60
        E 0 90 57 60
        E 0 90 62 60
        E 0 90 63 60
        E 120 80 56 00
        E 0 80 57 00
        E 0 80 62 00
        E 0 80 63 00
        E 120 90 3c 60
        E 0 90 48 60
        E 0 90 4a 60
        E 0 90 55 60
        E 0 90 56 60
        E 0 90 61 60
        E 0 90 62 60
        E 120 80 3c 00
        E 0 80 48 00
        E 0 80 4a 00
        E 0 80 55 00
        E 0 80 56 00
        E 0 80 61 00
        E 0 80 62 00
        E 120 90 54 60
        E 0 90 60 60
        E 120 80 54 00
        E 0 80 60 00
        E 120 90 3c 60
        E 0 90 48 60
        E 0 90 54 60
        E 0 90 60 60
        E 120 80 3c 00
        E 0 80 48 00
        E 0 80 54 00
        E 0 80 60 00
        E 120 90 56 60
        E 0 90 57 60
        E 0 90 62 60
        E 0 90 63 60
        E 120 80 56 00
        E 0 80 57 00
        E 0 80 62 00
        E 0 80 63 00
        E 120 90 3c 60
        E 0 90 48 60
        E 0 90 4a 60
        E 0 90 55 60
        E 0 90 56 60
        E 0 90 61 60
        E 0 90 62 60
        E 120 80 3c 00
        E 0 80 48 00
        E 0 80 4a 00
        E 0 80 55 00
        E 0 80 56 00
        E 0 80 61 00
        E 0 80 62 00
        E 240 90 55 60
        E 0 90 56 60
        E 0 90 61 60
        E 0 90 62 60
        E 120 80 55 00
        E 0 80 56 00
        E 0 80 61 00
        E 0 80 62 00
        E 240 90 55 60
        E 0 90 56 60
        E 0 90 61 60
        E 0 90 62 60
        E 120 80 55 00
        E 0 80 56 00
        E 0 80 61 00
        E 0 80 62 00
        E 120 90 3d 60
        E 0 90 49 60
        E 0 90 4a 60
        E 0 90 55 60
        E 0 90 57 60
        E 0 90 61 60
        E 0 90 63 60
        E 120 80 3d 00
        E 0 80 49 00
        E 0 80 4a 00
        E 0 80 55 00
        E 0 80 57 00
        E 0 80 61 00
        E 0 80 63 00
        E 120 90 54 60
        E 0 90 60 60
        E 120 80 54 00
        E 0 80 60 00
        E 120 90 48 60
        E 0 90 49 60
        E 0 90 54 60
        E 0 90 55 60
        E 0 90 60 60
        E 0 90 61 60
        E 120 80 48 00
        E 0 80 49 00
        E 0 80 54 00
        E 0 80 55 00
        E 0 80 60 00
        E 0 80 61 00
        E 120 90 55 60
        E 0 90 57 60
        E 0 90 61 60
        E 0 90 63 60
        E 0 90 65 60
        E 120 80 55 00
        E 0 80 57 00
        E 0 80 61 00
        E 0 80 63 00
        E 0 80 65 00
        E 120 90 40 60
        E 0 90 4b 60
        E 0 90 4c 60
        E 0 90 57 60
        E 0 90 58 60
        E 0 90 63 60
        E 0 90 64 60
        E 120 80 40 00
        E 0 80 4b 00
        E 0 80 4c 00
        E 0 80 57 00
        E 0 80 58 00
        E 0 80 63 00
        E 0 80 64 00
        E 240 90 57 60
        E 0 90 58 60
        E 0 90 63 60
        E 0 90 64 60
        E 120 80 57 00
        E 0 80 58 00
        E 0 80 63 00
        E 0 80 64 00
        E 240 90 57 60
        E 0 90 58 60
        E 0 90 63 60
        E 0 90 64 60
        E 120 80 57 00
        E 0 80 58 00
        E 0 80 63 00
        E 0 80 64 00
        E 120 90 3d 60
        E 0 90 49 60
        E 0 90 4a 60
        E 0 90 55 60
        E 0 90 57 60
        E 0 90 61 60
        E 0 90 63 60
        E 120 80 3d 00
        E 0 80 49 00
        E 0 80 4a 00
        E 0 80 55 00
        E 0 80 57 00
        E 0 80 61 00
        E 0 80 63 00
        E 120 90 54 60
        E 0 90 60 60
        E 120 80 54 00
        E 0 80 60 00
        E 120 90 48 60
        E 0 90 49 60
        E 0 90 54 60
        E 0 90 55 60
        E 0 90 60 60
        E 0 90 61 60
        E 120 80 48 00
        E 0 80 49 00
        E 0 80 54 00
        E 0 80 55 00
        E 0 80 60 00
        E 0 80 61 00
        E 120 90 57 60
        E 0 90 58 60
        E 0 90 63 60
        E 0 90 64 60
        E 0 90 65 60
        E 120 80 57 00
        E 0 80 58 00
        E 0 80 63 00
        E 0 80 64 00
        E 0 80 65 00
        E 120 90 3d 60
        E 0 90 49 60
        E 0 90 4a 60
        E 0 90 55 60
        E 0 90 57 60
        E 0 90 61 60
        E 0 90 63 60
        E 120 80 3d 00
        E 0 80 49 00
        E 0 80 4a 00
        E 0 80 55 00
        E 0 80 57 00
        E 0 80 61 00
        E 0 80 63 00
        E 240 90 55 60
        E 0 90 57 60
        E 0 90 61 60
        E 0 90 63 60
        E 120 80 55 00
        E 0 80 57 00
        E 0 80 61 00
        E 0 80 63 00
        E 240 90 49 60
        E 0 90 4a 60
        E 0 90 55 60
        E 0 90 57 60
        E 0 90 61 60
        E 0 90 63 60
        E 120 80 49 00
        E 0 80 4a 00
        E 0 80 55 00
        E 0 80 57 00
        E 0 80 61 00
        E 0 80 63 00
        E 120 90 3d 60
        E 0 90 49 60
        E 0 90 4a 60
        E 0 90 55 60
        E 0 90 57 60
        E 0 90 61 60
        E 0 90 63 60
        E 120 80 3d 00
        E 0 80 49 00
        E 0 80 4a 00
        E 0 80 55 00
        E 0 80 57 00
        E 0 80 61 00
        E 0 80 63 00
        E 120 90 54 60
        E 0 90 60 60
        E 120 80 54 00
        E 0 80 60 00
        E 120 90 48 60
        E 0 90 49 60
        E 0 90 54 60
        E 0 90 55 60
        E 0 90 60 60
        E 0 90 61 60
        E 120 80 48 00
        E 0 80 49 00
        E 0 80 54 00
        E 0 80 55 00
        E 0 80 60 00
        E 0 80 61 00
        E 120 90 55 60
        E 0 90 57 60
        E 0 90 61 60
        E 0 90 63 60
        E 0 90 65 60
        E 120 80 55 00
        E 0 80 57 00
        E 0 80 61 00
        E 0 80 63 00
        E 0 80 65 00
        E 120 90 40 60
        E 0 90 4b 60
        E 0 90 4c 60
        E 0 90 57 60
        E 0 90 58 60
        E 0 90 63 60
        E 0 90 64 60
        E 120 80 40 00
        E 0 80 4b 00
        E 0 80 4c 00
        E 0 80 57 00
        E 0 80 58 00
        E 0 80 63 00
        E 0 80 64 00
        E 240 90 57 60
        E 0 90 58 60
        E 0 90 63 60
        E 0 90 64 60
        E 120 80 57 00
        E 0 80 58 00
        E 0 80 63 00
        E 0 80 64 00
        E 240 90 57 60
        E 0 90 58 60
        E 0 90 63 60
        E 0 90 64 60
        E 120 80 57 00
        E 0 80 58 00
        E 0 80 63 00
        E 0 80 64 00
        E 120 90 3d 60
        E 0 90 49 60
        E 0 90 4a 60
        E 0 90 55 60
        E 0 90 57 60
        E 0 90 61 60
        E 0 90 63 60
        E 120 80 3d 00
        E 0 80 49 00
        E 0 80 4a 00
        E 0 80 55 00
        E 0 80 57 00
        E 0 80 61 00
        E 0 80 63 00
        E 120 90 54 60
        E 0 90 60 60
        E 120 80 54 00
        E 0 80 60 00
        E 120 90 48 60
        E 0 90 49 60
        E 0 90 54 60
        E 0 90 55 60
        E 0 90 60 60
        E 0 90 61 60
        E 120 80 48 00
        E 0 80 49 00
        E 0 80 54 00
        E 0 80 55 00
        E 0 80 60 00
        E 0 80 61 00
        E 120 90 57 60
        E 0 90 58 60
        E 0 90 63 60
        E 0 90 64 60
        E 0 90 65 60
        E 120 80 57 00
        E 0 80 58 00
        E 0 80 63 00
        E 0 80 64 00
        E 0 80 65 00
        E 120 90 3d 60
        E 0 90 49 60
        E 0 90 4a 60
        E 0 90 55 60
        E 0 90 57 60
        E 0 90 61 60
        E 0 90 63 60
        E 120 80 3d 00
        E 0 80 49 00
        E 0 80 4a 00
        E 0 80 55 00
        E 0 80 57 00
        E 0 80 61 00
        E 0 80 63 00
        E 240 90 55 60
        E 0 90 57 60
        E 0 90 61 60
        E 0 90 63 60
        E 120 80 55 00
        E 0 80 57 00
        E 0 80 61 00
        E 0 80 63 00
        E 240 90 55 60
        E 0 90 57 60
        E 0 90 61 60
        E 0 90 63 60
        E 120 80 55 00
        E 0 80 57 00
        E 0 80 61 00
        E 0 80 63 00
        E 120 90 3c 60
        E 0 90 48 60
        E 0 90 54 60
        E 0 90 60 60
        E 120 80 3c 00
        E 0 80 48 00
        E 0 80 54 00
        E 0 80 60 00
        E 240 90 54 60
        E 0 90 56 60
        E 0 90 60 60
        E 0 90 62 60
        E 120 80 54 00
        E 0 80 56 00
        E 0 80 60 00
        E 0 80 62 00
        E 240 90 48 60
        E 0 90 4a 60
        E 0 90 54 60
        E 0 90 57 60
        E 0 90 60 60
        E 0 90 62 60
        E 0 90 63 60
        E 120 80 48 00
        E 0 80 4a 00
        E 0 80 54 00
        E 0 80 57 00
        E 0 80 60 00
        E 0 80 62 00
        E 0 80 63 00
        E 360 90 56 60
        E 0 90 57 60
        E 0 90 62 60
        E 0 90 63 60
        E 120 80 56 00
        E 0 80 57 00
        E 0 80 62 00
        E 0 80 63 00
        E 120 90 48 60
        E 0 90 4a 60
        E 0 90 55 60
        E 0 90 56 60
        E 0 90 61 60
        E 0 90 62 60
        E 120 80 48 00
        E 0 80 4a 00
        E 0 80 55 00
        E 0 80 56 00
        E 0 80 61 00
        E 0 80 62 00
        E 120 90 56 60
        E 0 90 57 60
        E 0 90 62 60
        E 0 90 63 60
        E 120 80 56 00
        E 0 80 57 00
        E 0 80 62 00
        E 0 80 63 00
        E 120 90 40 60
        E 0 90 4b 60
        E 0 90 4c 60
        E 0 90 57 60
        E 0 90 58 60
        E 0 90 63 60
        E 0 90 64 60
        E 120 80 40 00
        E 0 80 4b 00
        E 0 80 4c 00
        E 0 80 57 00
        E 0 80 58 00
        E 0 80 63 00
        E 0 80 64 00
        E 240 90 57 60
        E 0 90 58 60
        E 0 90 63 60
        E 0 90 64 60
        E 120 80 57 00
        E 0 80 58 00
        E 0 80 63 00
        E 0 80 64 00
        E 240 90 4b 60
        E 0 90 4c 60
        E 0 90 57 60
        E 0 90 58 60
        E 0 90 63 60
        E 0 90 64 60
        E 120 80 4b 00
        E 0 80 4c 00
        E 0 80 57 00
        E 0 80 58 00
        E 0 80 63 00
        E 0 80 64 00
        E 240 90 61 60
        E 120 80 61 00
        E 0 90 48 60
        E 0 90 4a 60
        E 0 90 55 60
        E 0 90 56 60
        E 0 90 61 60
        E 0 90 62 60
        E 120 80 48 00
        E 0 80 4a 00
        E 0 80 55 00
        E 0 80 56 00
        E 0 80 61 00
        E 0 80 62 00
        E 360 90 55 60
        E 0 90 56 60
        E 0 90 61 60
        E 0 90 62 60
        E 120 80 55 00
        E 0 80 56 00
        E 0 80 61 00
        E 0 80 62 00
        E 120 90 3e 60
        E 0 90 49 60
        E 0 90 4b 60
        E 0 90 56 60
        E 0 90 57 60
        E 0 90 62 60
        E 0 90 63 60
        E 120 80 3e 00
        E 0 80 49 00
        E 0 80 4b 00
        E 0 80 56 00
        E 0 80 57 00
        E 0 80 62 00
        E 0 80 63 00
        E 240 90 56 60
        E 0 90 57 60
        E 0 90 62 60
        E 0 90 63 60
        E 120 80 56 00
        E 0 80 57 00
        E 0 80 62 00
        E 0 80 63 00
        E 240 90 49 60
        E 0 90 4b 60
        E 0 90 56 60
        E 0 90 57 60
        E 0 90 62 60
        E 0 90 63 60
        E 120 80 49 00
        E 0 80 4b 00
        E 0 80 56 00
        E 0 80 57 00
        E 0 80 62 00
        E 0 80 63 00
        E 360 90 48 60
        E 0 90 4a 60
        E 0 90 55 60
        E 0 90 56 60
        E 0 90 61 60
        E 0 90 62 60
        E 120 80 48 00
        E 0 80 4a 00
        E 0 80 55 00
        E 0 80 56 00
        E 0 80 61 00
        E 0 80 62 00
        E 120 90 48 60
        E 0 90 4a 60
        E 0 90 55 60
        E 0 90 56 60
        E 0 90 61 60
        E 0 90 62 60
        E 120 80 48 00
        E 0 80 4a 00
        E 0 80 55 00
        E 0 80 56 00
        E 0 80 61 00
        E 0 80 62 00
        E 120 90 56 60
        E 0 90 57 60
        E 0 90 62 60
        E 0 90 63 60
        E 120 80 56 00
        E 0 80 57 00
        E 0 80 62 00
        E 0 80 63 00
        E 120 90 40 60
        E 0 90 4b 60
        E 0 90 4c 60
        E 0 90 57 60
        E 0 90 58 60
        E 0 90 63 60
        E 0 90 64 60
        E 120 80 40 00
        E 0 80 4b 00
        E 0 80 4c 00
        E 0 80 57 00
        E 0 80 58 00
        E 0 80 63 00
        E 0 80 64 00
        E 240 90 57 60
        E 0 90 58 60
        E 0 90 63 60
        E 0 90 64 60
        E 120 80 57 00
        E 0 80 58 00
        E 0 80 63 00
        E 0 80 64 00
        E 240 90 4b 60
        E 0 90 4c 60
        E 0 90 57 60
        E 0 90 58 60
        E 0 90 63 60
        E 0 90 64 60
        E 120 80 4b 00
        E 0 80 4c 00
        E 0 80 57 00
        E 0 80 58 00
        E 0 80 63 00
        E 0 80 64 00
        E 360 90 3c 60
        E 0 90 48 60
        E 0 90 4a 60
        E 0 90 55 60
        E 0 90 56 60
        E 0 90 61 60
        E 0 90 62 60
        E 120 80 3c 00
        E 0 80 48 00
        E 0 80 4a 00
        E 480 80 55 00
        E 0 80 56 00
        E 0 80 61 00
        E 0 80 62 00
        E 120 90 3c 60
        E 0 90 48 60
        E 0 90 4a 60
        E 0 90 55 60
        E 0 90 56 60
        E 0 90 61 60
        E 0 90 62 60
        E 120 80 3c 00
        E 0 80 48 00
        E 0 80 4a 00
        E 0 80 55 00
        E 0 80 56 00
        E 0 80 61 00
        E 0 80 62 00
        E 120 90 54 60
        E 0 90 60 60
        E 120 80 54 00
        E 0 80 60 00
        E 120 90 48 60
        E 0 90 54 60
        E 0 90 60 60
        E 120 80 48 00
        E 0 80 54 00
        E 0 80 60 00
        E 120 90 55 60
        E 0 90 56 60
        E 0 90 61 60
        E 0 90 62 60
        E 120 80 55 00
        E 0 80 56 00
        E 0 80 61 00
        E 0 80 62 00
        E 120 90 3e 60
        E 0 90 49 60
        E 0 90 4b 60
        E 0 90 56 60
        E 0 90 57 60
        E 0 90 62 60
        E 0 90 63 60
        E 120 80 3e 00
        E 0 80 49 00
        E 0 80 4b 00
        E 0 80 56 00
        E 0 80 57 00
        E 0 80 62 00
        E 0 80 63 00
        E 240 90 56 60
        E 0 90 57 60
        E 0 90 62 60
        E 0 90 63 60
        E 120 80 56 00
        E 0 80 57 00
        E 0 80 62 00
        E 0 80 63 00
        E 240 90 56 60
        E 0 90 57 60
        E 0 90 62 60
        E 0 90 63 60
        E 120 80 56 00
        E 0 80 57 00
        E 0 80 62 00
        E 0 80 63 00
        E 120 90 3c 60
        E 0 90 48 60
        E 0 90 4a 60
        E 0 90 55 60
        E 0 90 56 60
        E 0 90 61 60
        E 0 90 62 60
        E 120 80 3c 00
        E 0 80 48 00
        E 0 80 4a 00
        E 0 80 55 00
        E 0 80 56 00
        E 0 80 61 00
        E 0 80 62 00
        E 120 90 54 60
        E 0 90 60 60
        E 120 80 54 00
        E 0 80 60 00
        E 120 90 3c 60
        E 0 90 48 60
        E 0 90 54 60
        E 0 90 60 60
        E 120 80 3c 00
        E 0 80 48 00
        E 0 80 54 00
        E 0 80 60 00
        E 120 90 56 60
        E 0 90 57 60
        E 0 90 62 60
        E 0 90 63 60
        E 120 80 56 00
        E 0 80 57 00
        E 0 80 62 00
        E 0 80 63 00
        E 120 90 3c 60
        E 0 90 48 60
        E 0 90 4a 60
        E 0 90 55 60
        E 0 90 56 60
        E 0 90 61 60
        E 0 90 62 60
        E 120 80 3c 00
        E 0 80 48 00
        E 0 80 4a 00
        E 0 80 55 00
        E 0 80 56 00
        E 0 80 61 00
        E 0 80 62 00
        E 240 90 55 60
        E 0 90 56 60
        E 0 90 61 60
        E 0 90 62 60
        E 120 80 55 00
        E 0 80 56 00
        E 0 80 61 00
        E 0 80 62 00
        E 240 90 48 60
        E 0 90 4a 60
        E 0 90 55 60
        E 0 90 56 60
        E 0 90 61 60
        E 0 90 62 60
        E 120 80 48 00
        E 0 80 4a 00
        E 0 80 55 00
        E 0 80 56 00
        E 0 80 61 00
        E 0 80 62 00
        E 120 90 3c 60
        E 0 90 48 60
        E 0 90 4a 60
        E 0 90 55 60
        E 0 90 56 60
        E 0 90 61 60
        E 0 90 62 60
        E 120 80 3c 00
        E 0 80 48 00
        E 0 80 4a 00
        E 0 80 55 00
        E 0 80 56 00
        E 0 80 61 00
        E 0 80 62 00
        E 120 90 54 60
        E 0 90 60 60
        E 120 80 54 00
        E 0 80 60 00
        E 120 90 48 60
        E 0 90 54 60
        E 0 90 60 60
        E 120 80 48 00
        E 0 80 54 00
        E 0 80 60 00
        E 120 90 55 60
        E 0 90 56 60
        E 0 90 61 60
        E 0 90 62 60
        E 120 80 55 00
        E 0 80 56 00
        E 0 80 61 00
        E 0 80 62 00
        E 120 90 3e 60
        E 0 90 49 60
        E 0 90 4b 60
        E 0 90 56 60
        E 0 90 57 60
        E 0 90 62 60
        E 0 90 63 60
        E 120 80 3e 00
        E 0 80 49 00
        E 0 80 4b 00
        E 0 80 56 00
        E 0 80 57 00
        E 0 80 62 00
        E 0 80 63 00
        E 240 90 56 60
        E 0 90 57 60
        E 0 90 62 60
        E 0 90 63 60
        E 120 80 56 00
        E 0 80 57 00
        E 0 80 62 00
        E 0 80 63 00
        E 240 90 56 60
        E 0 90 57 60
        E 0 90 62 60
        E 0 90 63 60
        E 120 80 56 00
        E 0 80 57 00
        E 0 80 62 00
        E 0 80 63 00
        E 120 90 3c 60
        E 0 90 48 60
        E 0 90 4a 60
        E 0 90 55 60
        E 0 90 56 60
        E 0 90 61 60
        E 0 90 62 60
        E 120 80 3c 00
        E 0 80 48 00
        E 0 80 4a 00
        E 0 80 55 00
        E 0 80 56 00
        E 0 80 61 00
        E 0 80 62 00
        E 120 90 54 60
        E 0 90 60 60
        E 120 80 54 00
        E 0 80 60 00
        E 120 90 3c 60
        E 0 90 48 60
        E 0 90 54 60
        E 0 90 60 60
        E 120 80 3c 00
        E 0 80 48 00
        E 0 80 54 00
        E 0 80 60 00
        E 120 90 56 60
        E 0 90 57 60
        E 0 90 62 60
        E 0 90 63 60
        E 120 80 56 00
        E 0 80 57 00
        E 0 80 62 00
        E 0 80 63 00
        E 120 90 3c 60
        E 0 90 48 60
        E 0 90 4a 60
        E 0 90 55 60
        E 0 90 56 60
        E 0 90 61 60
        E 0 90 62 60
        E 120 80 3c 00
        E 0 80 48 00
        E 0 80 4a 00
        E 0 80 55 00
        E 0 80 56 00
        E 0 80 61 00
        E 0 80 62 00
        E 240 90 55 60
        E 0 90 56 60
        E 0 90 61 60
        E 0 90 62 60
        E 120 80 55 00
        E 0 80 56 00
        E 0 80 61 00
        E 0 80 62 00
        E 240 90 55 60
        E 0 90 56 60
        E 0 90 61 60
        E 0 90 62 60
        E 120 80 55 00
        E 0 80 56 00
        E 0 80 61 00
        E 0 80 62 00
        E 120 90 3c 60
        E 0 90 48 60
        E 0 90 54 60
        E 0 90 60 60
        E 120 80 3c 00
        E 0 80 48 00
        E 0 80 54 00
        E 0 80 60 00
        E 240 90 54 60
        E 0 90 56 60
        E 0 90 60 60
        E 0 90 62 60
        E 120 80 54 00
        E 0 80 56 00
        E 0 80 60 00
        E 0 80 62 00
        E 240 90 48 60
        E 0 90 4a 60
        E 0 90 54 60
        E 0 90 57 60
        E 0 90 60 60
        E 0 90 62 60
        E 0 90 63 60
        E 120 80 48 00
        E 0 80 4a 00
        E 0 80 54 00
        E 0 80 57 00
        E 0 80 60 00
        E 0 80 62 00
        E 0 80 63 00
        E 360 90 56 60
        E 0 90 57 60
        E 0 90 62 60
        E 0 90 63 60
        E 120 80 56 00
        E 0 80 57 00
        E 0 80 62 00
        E 0 80 63 00
        E 120 90 48 60
        E 0 90 4a 60
        E 0 90 55 60
        E 0 90 56 60
        E 0 90 61 60
        E 0 90 62 60
        E 120 80 48 00
        E 0 80 4a 00
        E 0 80 55 00
        E 0 80 56 00
        E 0 80 61 00
        E 0 80 62 00
        E 120 90 56 60
        E 0 90 57 60
        E 0 90 62 60
        E 0 90 63 60
        E 120 80 56 00
        E 0 80 57 00
        E 0 80 62 00
        E 0 80 63 00
        E 120 90 40 60
        E 0 90 4b 60
        E 0 90 4c 60
        E 0 90 57 60
        E 0 90 58 60
        E 0 90 63 60
        E 0 90 64 60
        E 120 80 40 00
        E 0 80 4b 00
        E 0 80 4c 00
        E 0 80 57 00
        E 0 80 58 00
        E 0 80 63 00
        E 0 80 64 00
        E 240 90 57 60
        E 0 90 58 60
        E 0 90 63 60
        E 0 90 64 60
        E 120 80 57 00
        E 0 80 58 00
        E 0 80 63 00
        E 0 80 64 00
        E 240 90 4b 60
        E 0 90 4c 60
        E 0 90 57 60
        E 0 90 58 60
        E 0 90 63 60
        E 0 90 64 60
        E 120 80 4b 00
        E 0 80 4c 00
        E 0 80 57 00
        E 0 80 58 00
        E 0 80 63 00
        E 0 80 64 00
        E 240 90 61 60
        E 120 80 61 00
        E 0 90 48 60
        E 0 90 4a 60
        E 0 90 55 60
        E 0 90 56 60
        E 0 90 61 60
        E 0 90 62 60
        E 120 80 48 00
        E 0 80 4a 00
        E 0 80 55 00
        E 0 80 56 00
        E 0 80 61 00
        E 0 80 62 00
        E 360 90 55 60
        E 0 90 56 60
        E 0 90 61 60
        E 0 90 62 60
        E 120 80 55 00
        E 0 80 56 00
        E 0 80 61 00
        E 0 80 62 00
        E 120 90 3e 60
        E 0 90 49 60
        E 0 90 4b 60
        E 0 90 56 60
        E 0 90 57 60
        E 0 90 62 60
        E 0 90 63 60
        E 120 80 3e 00
        E 0 80 49 00
        E 0 80 4b 00
        E 0 80 56 00
        E 0 80 57 00
        E 0 80 62 00
        E 0 80 63 00
        E 240 90 56 60
        E 0 90 57 60
        E 0 90 62 60
        E 0 90 63 60
        E 120 80 56 00
        E 0 80 57 00
        E 0 80 62 00
        E 0 80 63 00
        E 240 90 49 60
        E 0 90 4b 60
        E 0 90 56 60
        E 0 90 57 60
        E 0 90 62 60
        E 0 90 63 60
        E 120 80 49 00
        E 0 80 4b 00
        E 0 80 56 00
        E 0 80 57 00
        E 0 80 62 00
        E 0 80 63 00
        E 360 90 48 60
        E 0 90 4a 60
        E 0 90 55 60
        E 0 90 56 60
        E 0 90 61 60
        E 0 90 62 60
        E 120 80 48 00
        E 0 80 4a 00
        E 0 80 55 00
        E 0 80 56 00
        E 0 80 61 00
        E 0 80 62 00
        E 120 90 48 60
        E 0 90 4a 60
        E 0 90 55 60
        E 0 90 56 60
        E 0 90 61 60
        E 0 90 62 60
        E 120 80 48 00
        E 0 80 4a 00
        E 0 80 55 00
        E 0 80 56 00
        E 0 80 61 00
        E 0 80 62 00
        E 120 90 56 60
        E 0 90 57 60
        E 0 90 62 60
        E 0 90 63 60
        E 120 80 56 00
        E 0 80 57 00
        E 0 80 62 00
        E 0 80 63 00
        E 120 90 40 60
        E 0 90 4b 60
        E 0 90 4c 60
        E 0 90 57 60
        E 0 90 58 60
        E 0 90 63 60
        E 0 90 64 60
        E 120 80 40 00
        E 0 80 4b 00
        E 0 80 4c 00
        E 0 80 57 00
        E 0 80 58 00
        E 0 80 63 00
        E 0 80 64 00
        E 240 90 57 60
        E 0 90 58 60
        E 0 90 63 60
        E 0 90 64 60
        E 120 80 57 00
        E 0 80 58 00
        E 0 80 63 00
        E 0 80 64 00
        E 240 90 4b 60
        E 0 90 4c 60
        E 0 90 57 60
        E 0 90 58 60
        E 0 90 63 60
        E 0 90 64 60
        E 120 80 4b 00
        E 0 80 4c 00
        E 0 80 57 00
        E 0 80 58 00
        E 0 80 63 00
        E 0 80 64 00
        E 360 90 3c 60
        E 0 90 48 60
        E 0 90 4a 60
        E 0 90 55 60
        E 0 90 56 60
        E 0 90 61 60
        E 0 90 62 60
        E 120 80 3c 00
        E 0 80 48 00
        E 0 80 4a 00
        E 480 80 55 00
        E 0 80 56 00
        E 0 80 61 00
        E 0 80 62 00
        E 120 90 3c 60
        E 0 90 48 60
        E 0 90 4a 60
        E 0 90 55 60
        E 0 90 56 60
        E 0 90 61 60
        E 0 90 62 60
        E 120 80 3c 00
        E 0 80 48 00
        E 0 80 4a 00
        E 0 80 55 00
        E 0 80 56 00
        E 0 80 61 00
        E 0 80 62 00
        E 120 90 54 60
        E 0 90 60 60
        E 120 80 54 00
        E 0 80 60 00
        E 120 90 48 60
        E 0 90 54 60
        E 0 90 60 60
        E 120 80 48 00
        E 0 80 54 00
        E 0 80 60 00
        E 120 90 55 60
        E 0 90 56 60
        E 0 90 61 60
        E 0 90 62 60
        E 120 80 55 00
        E 0 80 56 00
        E 0 80 61 00
        E 0 80 62 00
        E 120 90 3e 60
        E 0 90 49 60
        E 0 90 4b 60
        E 0 90 56 60
        E 0 90 57 60
        E 0 90 62 60
        E 0 90 63 60
        E 120 80 3e 00
        E 0 80 49 00
        E 0 80 4b 00
        E 0 80 56 00
        E 0 80 57 00
        E 0 80 62 00
        E 0 80 63 00
        E 240 90 56 60
        E 0 90 57 60
        E 0 90 62 60
        E 0 90 63 60
        E 120 80 56 00
        E 0 80 57 00
        E 0 80 62 00
        E 0 80 63 00
        E 240 90 56 60
        E 0 90 57 60
        E 0 90 62 60
        E 0 90 63 60
        E 120 80 56 00
        E 0 80 57 00
        E 0 80 62 00
        E 0 80 63 00
        E 120 90 3c 60
        E 0 90 48 60
        E 0 90 4a 60
        E 0 90 55 60
        E 0 90 56 60
        E 0 90 61 60
        E 0 90 62 60
        E 120 80 3c 00
        E 0 80 48 00
        E 0 80 4a 00
        E 0 80 55 00
        E 0 80 56 00
        E 0 80 61 00
        E 0 80 62 00
        E 120 90 54 60
        E 0 90 60 60
        E 120 80 54 00
        E 0 80 60 00
        E 120 90 3c 60
        E 0 90 48 60
        E 0 90 54 60
        E 0 90 60 60
        E 120 80 3c 00
        E 0 80 48 00
        E 0 80 54 00
        E 0 80 60 00
        E 120 90 56 60
        E 0 90 57 60
        E 0 90 62 60
        E 0 90 63 60
        E 120 80 56 00
        E 0 80 57 00
        E 0 80 62 00
        E 0 80 63 00
        E 120 90 3c 60
        E 0 90 48 60
        E 0 90 4a 60
        E 0 90 55 60
        E 0 90 56 60
        E 0 90 61 60
        E 0 90 62 60
        E 120 80 3c 00
        E 0 80 48 00
        E 0 80 4a 00
        E 0 80 55 00
        E 0 80 56 00
        E 0 80 61 00
        E 0 80 62 00
        E 240 90 55 60
        E 0 90 56 60
        E 0 90 61 60
        E 0 90 62 60
        E 120 80 55 00
        E 0 80 56 00
        E 0 80 61 00
        E 0 80 62 00
        E 240 90 48 60
        E 0 90 4a 60
        E 0 90 55 60
        E 0 90 56 60
        E 0 90 61 60
        E 0 90 62 60
        E 120 80 48 00
        E 0 80 4a 00
        E 0 80 55 00
        E 0 80 56 00
        E 0 80 61 00
        E 0 80 62 00
        E 120 90 3c 60
        E 0 90 48 60
        E 0 90 4a 60
        E 0 90 55 60
        E 0 90 56 60
        E 0 90 61 60
        E 0 90 62 60
        E 120 80 3c 00
        E 0 80 48 00
        E 0 80 4a 00
        E 0 80 55 00
        E 0 80 56 00
        E 0 80 61 00
        E 0 80 62 00
        E 120 90 54 60
        E 0 90 60 60
        E 120 80 54 00
        E 0 80 60 00
        E 120 90 48 60
        E 0 90 54 60
        E 0 90 60 60
        E 120 80 48 00
        E 0 80 54 00
        E 0 80 60 00
        E 120 90 55 60
        E 0 90 56 60
        E 0 90 61 60
        E 0 90 62 60
        E 120 80 55 00
        E 0 80 56 00
        E 0 80 61 00
        E 0 80 62 00
        E 120 90 3e 60
        E 0 90 49 60
        E 0 90 4b 60
        E 0 90 56 60
        E 0 90 57 60
        E 0 90 62 60
        E 0 90 63 60
        E 120 80 3e 00
        E 0 80 49 00
        E 0 80 4b 00
        E 0 80 56 00
        E 0 80 57 00
        E 0 80 62 00
        E 0 80 63 00
        E 240 90 56 60
        E 0 90 57 60
        E 0 90 62 60
        E 0 90 63 60
        E 120 80 56 00
        E 0 80 57 00
        E 0 80 62 00
        E 0 80 63 00
        E 240 90 56 60
        E 0 90 57 60
        E 0 90 62 60
        E 0 90 63 60
        E 120 80 56 00
        E 0 80 57 00
        E 0 80 62 00
        E 0 80 63 00
        E 120 90 3c 60
        E 0 90 48 60
        E 0 90 4a 60
        E 0 90 55 60
        E 0 90 56 60
        E 0 90 61 60
        E 0 90 62 60
        E 120 80 3c 00
        E 0 80 48 00
        E 0 80 4a 00
        E 0 80 55 00
        E 0 80 56 00
        E 0 80 61 00
        E 0 80 62 00
        E 120 90 54 60
        E 0 90 60 60
        E 120 80 54 00
        E 0 80 60 00
        E 120 90 3c 60
        E 0 90 48 60
        E 0 90 54 60
        E 0 90 60 60
        E 120 80 3c 00
        E 0 80 48 00
        E 0 80 54 00
        E 0 80 60 00
        E 120 90 56 60
        E 0 90 57 60
        E 0 90 62 60
        E 0 90 63 60
        E 120 80 56 00
        E 0 80 57 00
        E 0 80 62 00
        E 0 80 63 00
        E 120 90 3c 60
        E 0 90 48 60
        E 0 90 4a 60
        E 0 90 55 60
        E 0 90 56 60
        E 0 90 61 60
        E 0 90 62 60
        E 120 80 3c 00
        E 0 80 48 00
        E 0 80 4a 00
        E 0 80 55 00
        E 0 80 56 00
        E 0 80 61 00
        E 0 80 62 00
        E 240 90 55 60
        E 0 90 56 60
        E 0 90 61 60
        E 0 90 62 60
        E 120 80 55 00
        E 0 80 56 00
        E 0 80 61 00
        E 0 80 62 00
        E 240 90 55 60
        E 0 90 56 60
        E 0 90 61 60
        E 0 90 62 60
        E 120 80 55 00
        E 0 80 56 00
        E 0 80 61 00
        E 0 80 62 00
        E 120 90 3c 60
        E 0 90 48 60
        E 0 90 54 60
        E 0 90 60 60
        E 120 80 3c 00
        E 0 80 48 00
        E 0 80 54 00
        E 0 80 60 00
        E 240 90 54 60
        E 0 90 56 60
        E 0 90 60 60
        E 0 90 62 60
        E 120 80 54 00
        E 0 80 56 00
        E 0 80 60 00
        E 0 80 62 00
        E 240 90 48 60
        E 0 90 4a 60
        E 0 90 54 60
        E 0 90 57 60
        E 0 90 60 60
        E 0 90 62 60
        E 0 90 63 60
        E 120 80 48 00
        E 0 80 4a 00
        E 0 80 54 00
        E 0 80 57 00
        E 0 80 60 00
        E 0 80 62 00
        E 0 80 63 00
        E 360 90 56 60
        E 0 90 57 60
        E 0 90 62 60
        E 0 90 63 60
        E 120 80 56 00
        E 0 80 57 00
        E 0 80 62 00
        E 0 80 63 00
        E 120 90 48 60
        E 0 90 4a 60
        E 0 90 55 60
        E 0 90 56 60
        E 0 90 61 60
        E 0 90 62 60
        E 120 80 48 00
        E 0 80 4a 00
        E 0 80 55 00
        E 0 80 56 00
        E 0 80 61 00
        E 0 80 62 00
        E 120 90 56 60
        E 0 90 57 60
        E 0 90 62 60
        E 0 90 63 60
        E 120 80 56 00
        E 0 80 57 00
        E 0 80 62 00
        E 0 80 63 00
        E 120 90 40 60
        E 0 90 4b 60
        E 0 90 4c 60
        E 0 90 57 60
        E 0 90 58 60
        E 0 90 63 60
        E 0 90 64 60
        E 120 80 40 00
        E 0 80 4b 00
        E 0 80 4c 00
        E 0 80 57 00
        E 0 80 58 00
        E 0 80 63 00
        E 0 80 64 00
        E 240 90 57 60
        E 0 90 58 60
        E 0 90 63 60
        E 0 90 64 60
        E 120 80 57 00
        E 0 80 58 00
        E 0 80 63 00
        E 0 80 64 00
        E 240 90 4b 60
        E 0 90 4c 60
        E 0 90 57 60
        E 0 90 58 60
        E 0 90 63 60
        E 0 90 64 60
        E 120 80 4b 00
        E 0 80 4c 00
        E 0 80 57 00
        E 0 80 58 00
        E 0 80 63 00
        E 0 80 64 00
        E 240 90 61 60
        E 120 80 61 00
        E 0 90 48 60
        E 0 90 4a 60
        E 0 90 55 60
        E 0 90 56 60
        E 0 90 61 60
        E 0 90 62 60
        E 120 80 48 00
        E 0 80 4a 00
        E 0 80 55 00
        E 0 80 56 00
        E 0 80 61 00
        E 0 80 62 00
        E 360 90 55 60
        E 0 90 56 60
        E 0 90 61 60
        E 0 90 62 60
        E 120 80 55 00
        E 0 80 56 00
        E 0 80 61 00
        E 0 80 62 00
        E 120 90 3e 60
        E 0 90 49 60
        E 0 90 4b 60
        E 0 90 56 60
        E 0 90 57 60
        E 0 90 62 60
        E 0 90 63 60
        E 120 80 3e 00
        E 0 80 49 00
        E 0 80 4b 00
        E 0 80 56 00
        E 0 80 57 00
        E 0 80 62 00
        E 0 80 63 00
        E 240 90 56 60
        E 0 90 57 60
        E 0 90 62 60
        E 0 90 63 60
        E 120 80 56 00
        E 0 80 57 00
        E 0 80 62 00
        E 0 80 63 00
        E 240 90 49 60
        E 0 90 4b 60
        E 0 90 56 60
        E 0 90 57 60
        E 0 90 62 60
        E 0 90 63 60
        E 120 80 49 00
        E 0 80 4b 00
        E 0 80 56 00
        E 0 80 57 00
        E 0 80 62 00
        E 0 80 63 00
        E 360 90 48 60
        E 0 90 4a 60
        E 0 90 55 60
        E 0 90 56 60
        E 0 90 61 60
        E 0 90 62 60
        E 120 80 48 00
        E 0 80 4a 00
        E 0 80 55 00
        E 0 80 56 00
        E 0 80 61 00
        E 0 80 62 00
        E 120 90 48 60
        E 0 90 4a 60
        E 0 90 55 60
        E 0 90 56 60
        E 0 90 61 60
        E 0 90 62 60
        E 120 80 48 00
        E 0 80 4a 00
        E 0 80 55 00
        E 0 80 56 00
        E 0 80 61 00
        E 0 80 62 00
        E 120 90 56 60
        E 0 90 57 60
        E 0 90 62 60
        E 0 90 63 60
        E 120 80 56 00
        E 0 80 57 00
        E 0 80 62 00
        E 0 80 63 00
        E 120 90 40 60
        E 0 90 4b 60
        E 0 90 4c 60
        E 0 90 57 60
        E 0 90 58 60
        E 0 90 63 60
        E 0 90 64 60
        E 120 80 40 00
        E 0 80 4b 00
        E 0 80 4c 00
        E 0 80 57 00
        E 0 80 58 00
        E 0 80 63 00
        E 0 80 64 00
        E 240 90 57 60
        E 0 90 58 60
        E 0 90 63 60
        E 0 90 64 60
        E 120 80 57 00
        E 0 80 58 00
        E 0 80 63 00
        E 0 80 64 00
        E 240 90 4b 60
        E 0 90 4c 60
        E 0 90 57 60
        E 0 90 58 60
        E 0 90 63 60
        E 0 90 64 60
        E 120 80 4b 00
        E 0 80 4c 00
        E 0 80 57 00
        E 0 80 58 00
        E 0 80 63 00
        E 0 80 64 00
        E 360 90 48 60
        E 0 90 4a 60
        E 0 90 55 60
        E 0 90 56 60
        E 0 90 61 60
        E 0 90 62 60
        E 120 80 48 00
        E 0 80 4a 00
        E 480 80 55 00
        E 0 80 56 00
        E 0 80 61 00
        E 0 80 62 00
        E 120 90 40 60
        E 0 90 4b 60
        E 0 90 4c 60
        E 0 90 57 60
        E 0 90 58 60
        E 0 90 63 60
        E 0 90 64 60
        E 120 80 40 00
        E 0 80 4b 00
        E 0 80 4c 00
        E 0 80 57 00
        E 0 80 58 00
        E 0 80 63 00
        E 0 80 64 00
        E 120 90 54 60
        E 0 90 60 60
        E 0 90 65 60
        E 120 80 54 00
        E 0 80 60 00
        E 0 80 65 00
        E 120 90 48 60
        E 0 90 54 60
        E 0 90 60 60
        E 120 80 48 00
        E 0 80 54 00
        E 0 80 60 00
        E 120 90 55 60
        E 0 90 57 60
        E 0 90 61 60
        E 0 90 63 60
        E 120 80 55 00
        E 0 80 57 00
        E 0 80 61 00
        E 0 80 63 00
        E 120 90 3c 60
        E 0 90 48 60
        E 0 90 54 60
        E 0 90 60 60
        E 0 90 65 60
        E 120 80 3c 00
        E 0 80 48 00
        E 0 80 54 00
        E 0 80 60 00
        E 0 80 65 00
        E 120 90 54 60
        E 0 90 60 60
        E 120 80 54 00
        E 0 80 60 00
        E 120 90 48 60
        E 0 90 4a 60
        E 0 90 55 60
        E 0 90 56 60
        E 0 90 61 60
        E 0 90 62 60
        E 120 80 48 00
        E 0 80 4a 00
        E 0 80 55 00
        E 0 80 56 00
        E 0 80 61 00
        E 0 80 62 00
        E 120 90 54 60
        E 0 90 60 60
        E 0 90 65 60
        E 120 80 54 00
        E 0 80 60 00
        E 0 80 65 00
        E 120 90 3d 60
        E 0 90 49 60
        E 0 90 4a 60
        E 0 90 55 60
        E 0 90 57 60
        E 0 90 61 60
        E 0 90 63 60
        E 120 80 3d 00
        E 0 80 49 00
        E 0 80 4a 00
        E 0 80 55 00
        E 0 80 57 00
        E 0 80 61 00
        E 0 80 63 00
        E 120 90 54 60
        E 0 90 60 60
        E 0 90 65 60
        E 120 80 54 00
        E 0 80 60 00
        E 0 80 65 00
        E 120 90 49 60
        E 0 90 4b 60
        E 0 90 56 60
        E 0 90 57 60
        E 0 90 62 60
        E 0 90 63 60
        E 120 80 49 00
        E 0 80 4b 00
        E 0 80 56 00
        E 0 80 57 00
        E 0 80 62 00
        E 0 80 63 00
        E 120 90 54 60
        E 0 90 60 60
        E 0 90 65 60
        E 120 80 54 00
        E 0 80 60 00
        E 0 80 65 00
        E 120 90 40 60
        E 0 90 4b 60
        E 0 90 4c 60
        E 0 90 57 60
        E 0 90 58 60
        E 0 90 63 60
        E 0 90 64 60
        E 120 80 40 00
        E 0 80 4b 00
        E 0 80 4c 00
        E 0 80 57 00
        E 0 80 58 00
        E 0 80 63 00
        E 0 80 64 00
        E 120 90 54 60
        E 0 90 60 60
        E 0 90 65 60
        E 120 80 54 00
        E 0 80 60 00
        E 0 80 65 00
        E 120 90 48 60
        E 0 90 54 60
        E 0 90 60 60
        E 120 80 48 00
        E 0 80 54 00
        E 0 80 60 00
        E 120 90 55 60
        E 0 90 57 60
        E 0 90 61 60
        E 0 90 63 60
        E 120 80 55 00
        E 0 80 57 00
        E 0 80 61 00
        E 0 80 63 00
        E 120 90 3c 60
        E 0 90 48 60
        E 0 90 54 60
        E 0 90 60 60
        E 0 90 65 60
        E 120 80 3c 00
        E 0 80 48 00
        E 0 80 54 00
        E 0 80 60 00
        E 0 80 65 00
        E 120 90 54 60
        E 0 90 60 60
        E 120 80 54 00
        E 0 80 60 00
        E 120 90 48 60
        E 0 90 4a 60
        E 0 90 55 60
        E 0 90 56 60
        E 0 90 61 60
        E 0 90 62 60
        E 120 80 48 00
        E 0 80 4a 00
        E 0 80 55 00
        E 0 80 56 00
        E 0 80 61 00
        E 0 80 62 00
        E 120 90 54 60
        E 0 90 60 60
        E 0 90 65 60
        E 120 80 54 00
        E 0 80 60 00
        E 0 80 65 00
        E 120 90 3e 60
        E 0 90 49 60
        E 0 90 4b 60
        E 0 90 56 60
        E 0 90 57 60
        E 0 90 62 60
        E 0 90 63 60
        E 120 80 3e 00
        E 0 80 49 00
        E 0 80 4b 00
        E 0 80 56 00
        E 0 80 57 00
        E 0 80 62 00
        E 0 80 63 00
        E 120 90 54 60
        E 0 90 60 60
        E 0 90 65 60
        E 120 80 54 00
        E 0 80 60 00
        E 0 80 65 00
        E 120 90 49 60
        E 0 90 4a 60
        E 0 90 55 60
        E 0 90 57 60
        E 0 90 61 60
        E 0 90 63 60
        E 120 80 49 00
        E 0 80 4a 00
        E 0 80 55 00
        E 0 80 57 00
        E 0 80 61 00
        E 0 80 63 00
        E 120 90 54 60
        E 0 90 60 60
        E 0 90 65 60
        E 120 80 54 00
        E 0 80 60 00
        E 0 80 65 00
        E 120 90 40 60
        E 0 90 4b 60
        E 0 90 4c 60
        E 0 90 57 60
        E 0 90 58 60
        E 0 90 63 60
        E 0 90 64 60
        E 120 80 40 00
        E 0 80 4b 00
        E 0 80 4c 00
        E 0 80 57 00
        E 0 80 58 00
        E 0 80 63 00
        E 0 80 64 00
        E 120 90 54 60
        E 0 90 60 60
        E 0 90 65 60
        E 120 80 54 00
        E 0 80 60 00
        E 0 80 65 00
        E 120 90 48 60
        E 0 90 54 60
        E 0 90 60 60
        E 120 80 48 00
        E 0 80 54 00
        E 0 80 60 00
        E 120 90 55 60
        E 0 90 57 60
        E 0 90 61 60
        E 0 90 63 60
        E 120 80 55 00
        E 0 80 57 00
        E 0 80 61 00
        E 0 80 63 00
        E 0 90 65 60
        E 119 90 3c 60
        E 0 90 48 60
        E 0 90 54 60
        E 0 90 60 60
        E 60 80 3c 00
        E 0 80 48 00
        E 0 80 54 00
        E 0 80 60 00
        E 1 80 65 00
        E 180 90 54 60
        E 0 90 60 60
        E 120 80 54 00
        E 0 80 60 00
        E 120 90 48 60
        E 0 90 4a 60
        E 0 90 55 60
        E 0 90 56 60
        E 0 90 61 60
        E 0 90 62 60
        E 120 80 48 00
        E 0 80 4a 00
        E 0 80 55 00
        E 0 80 56 00
        E 0 80 61 00
        E 0 80 62 00
        E 60 90 65 60
        E 60 90 54 60
        E 0 90 60 60
        E 60 80 65 00
        E 60 80 54 00
        E 0 80 60 00
        E 120 90 3d 60
        E 0 90 49 60
        E 0 90 4a 60
        E 0 90 55 60
        E 0 90 57 60
        E 0 90 61 60
        E 0 90 63 60
        E 120 80 3d 00
        E 0 80 49 00
        E 0 80 4a 00
        E 0 80 55 00
        E 0 80 57 00
        E 0 80 61 00
        E 0 80 63 00
        E 60 90 65 60
        E 60 90 54 60
        E 0 90 60 60
        E 60 80 65 00
        E 60 80 54 00
        E 0 80 60 00
        E 120 90 49 60
        E 0 90 4b 60
        E 0 90 56 60
        E 0 90 57 60
        E 0 90 62 60
        E 0 90 63 60
        E 120 80 49 00
        E 0 80 4b 00
        E 0 80 56 00
        E 0 80 57 00
        E 0 80 62 00
        E 0 80 63 00
        E 60 90 65 60
        E 60 90 54 60
        E 0 90 60 60
        E 60 80 65 00
        E 60 80 54 00
        E 0 80 60 00
        E 120 90 40 60
        E 0 90 4b 60
        E 0 90 4c 60
        E 0 90 57 60
        E 0 90 58 60
        E 0 90 63 60
        E 0 90 64 60
        E 120 80 40 00
        E 0 80 4b 00
        E 0 80 4c 00
        E 0 80 57 00
        E 0 80 58 00
        E 0 80 63 00
        E 0 80 64 00
        E 120 90 54 60
        E 0 90 60 60
        E 0 90 65 60
        E 60 80 65 00
        E 60 80 54 00
        E 0 80 60 00
        E 120 90 48 60
        E 0 90 54 60
        E 0 90 60 60
        E 120 80 48 00
        E 0 80 54 00
        E 0 80 60 00
        E 120 90 55 60
        E 0 90 57 60
        E 0 90 61 60
        E 0 90 63 60
        E 120 80 55 00
        E 0 80 57 00
        E 0 80 61 00
        E 0 80 63 00
        E 120 90 3c 60
        E 0 90 48 60
        E 0 90 54 60
        E 0 90 60 60
        E 0 90 65 60
        E 60 80 65 00
        E 60 80 3c 00
        E 0 80 48 00
        E 0 80 54 00
        E 0 80 60 00
        E 120 90 54 60
        E 0 90 60 60
        E 120 80 54 00
        E 0 80 60 00
        E 120 90 48 60
        E 0 90 4a 60
        E 0 90 55 60
        E 0 90 56 60
        E 0 90 61 60
        E 0 90 62 60
        E 120 80 48 00
        E 0 80 4a 00
        E 0 80 55 00
        E 0 80 56 00
        E 0 80 61 00
        E 0 80 62 00
        E 120 90 54 60
        E 0 90 60 60
        E 0 90 65 60
        E 60 80 65 00
        E 60 80 54 00
        E 0 80 60 00
        E 120 90 3e 60
        E 0 90 49 60
        E 0 90 4b 60
        E 0 90 56 60
        E 0 90 57 60
        E 0 90 62 60
        E 0 90 63 60
        E 120 80 3e 00
        E 0 80 49 00
        E 0 80 4b 00
        E 0 80 56 00
        E 0 80 57 00
        E 0 80 62 00
        E 0 80 63 00
        E 120 90 54 60
        E 0 90 60 60
        E 0 90 65 60
        E 60 80 65 00
        E 60 80 54 00
        E 0 80 60 00
        E 120 90 49 60
        E 0 90 4a 60
        E 0 90 55 60
        E 0 90 57 60
        E 0 90 61 60
        E 0 90 63 60
        E 120 80 49 00
        E 0 80 4a 00
        E 0 80 55 00
        E 0 80 57 00
        E 0 80 61 00
        E 0 80 63 00
        E 60 90 65 60
        E 60 90 54 60
        E 0 90 60 60
        E 60 80 65 00
        E 60 80 54 00
        E 0 80 60 00
        E 120 90 3e 60
        E 0 90 49 60
        E 0 90 4b 60
        E 0 90 56 60
        E 0 90 57 60
        E 0 90 62 60
        E 0 90 63 60
        E 120 80 3e 00
        E 0 80 49 00
        E 0 80 4b 00
        E 0 80 56 00
        E 0 80 57 00
        E 0 80 62 00
        E 0 80 63 00
        E 240 90 56 60
        E 0 90 57 60
        E 0 90 62 60
        E 0 90 63 60
        E 120 80 56 00
        E 0 80 57 00
        E 0 80 62 00
        E 0 80 63 00
        E 240 90 49 60
        E 0 90 4b 60
        E 0 90 56 60
        E 0 90 57 60
        E 0 90 62 60
        E 0 90 63 60
        E 120 80 49 00
        E 0 80 4b 00
        E 0 80 56 00
        E 0 80 57 00
        E 0 80 62 00
        E 0 80 63 00
        E 360 90 56 60
        E 0 90 57 60
        E 0 90 62 60
        E 0 90 63 60
        E 120 80 56 00
        E 0 80 57 00
        E 0 80 62 00
        E 0 80 63 00
        E 120 90 48 60
        E 0 90 4a 60
        E 0 90 55 60
        E 0 90 56 60
        E 0 90 61 60
        E 0 90 62 60
        E 120 80 48 00
        E 0 80 4a 00
        E 0 80 55 00
        E 0 80 56 00
        E 0 80 61 00
        E 0 80 62 00
        E 120 90 56 60
        E 0 90 57 60
        E 0 90 62 60
        E 0 90 63 60
        E 120 80 56 00
        E 0 80 57 00
        E 0 80 62 00
        E 0 80 63 00
        E 120 90 40 60
        E 0 90 4b 60
        E 0 90 4c 60
        E 0 90 57 60
        E 0 90 58 60
        E 0 90 63 60
        E 0 90 64 60
        E 120 80 40 00
        E 0 80 4b 00
        E 0 80 4c 00
        E 0 80 57 00
        E 0 80 58 00
        E 0 80 63 00
        E 0 80 64 00
        E 240 90 57 60
        E 0 90 58 60
        E 0 90 63 60
        E 0 90 64 60
        E 120 80 57 00
        E 0 80 58 00
        E 0 80 63 00
        E 0 80 64 00
        E 240 90 4b 60
        E 0 90 4c 60
        E 0 90 57 60
        E 0 90 58 60
        E 0 90 63 60
        E 0 90 64 60
        E 120 80 4b 00
        E 0 80 4c 00
        E 0 80 57 00
        E 0 80 58 00
        E 0 80 63 00
        E 0 80 64 00
        E 240 90 61 60
        E 120 80 61 00
        E 0 90 48 60
        E 0 90 4a 60
        E 0 90 55 60
        E 0 90 56 60
        E 0 90 61 60
        E 0 90 62 60
        E 120 80 48 00
        E 0 80 4a 00
        E 0 80 55 00
        E 0 80 56 00
        E 0 80 61 00
        E 0 80 62 00
        E 360 90 55 60
        E 0 90 56 60
        E 0 90 61 60
        E 0 90 62 60
        E 120 80 55 00
        E 0 80 56 00
        E 0 80 61 00
        E 0 80 62 00
        E 120 90 3e 60
        E 0 90 49 60
        E 0 90 4b 60
        E 0 90 56 60
        E 0 90 57 60
        E 0 90 62 60
        E 0 90 63 60
        E 120 80 3e 00
        E 0 80 49 00
        E 0 80 4b 00
        E 0 80 56 00
        E 0 80 57 00
        E 0 80 62 00
        E 0 80 63 00
        E 240 90 56 60
        E 0 90 57 60
        E 0 90 62 60
        E 0 90 63 60
        E 120 80 56 00
        E 0 80 57 00
        E 0 80 62 00
        E 0 80 63 00
        E 240 90 49 60
        E 0 90 4b 60
        E 0 90 56 60
        E 0 90 57 60
        E 0 90 62 60
        E 0 90 63 60
        E 120 80 49 00
        E 0 80 4b 00
        E 0 80 56 00
        E 0 80 57 00
        E 0 80 62 00
        E 0 80 63 00
        E 360 90 48 60
        E 0 90 4a 60
        E 0 90 55 60
        E 0 90 56 60
        E 0 90 61 60
        E 0 90 62 60
        E 120 80 48 00
        E 0 80 4a 00
        E 0 80 55 00
        E 0 80 56 00
        E 0 80 61 00
        E 0 80 62 00
        E 120 90 48 60
        E 0 90 4a 60
        E 0 90 55 60
        E 0 90 56 60
        E 0 90 61 60
        E 0 90 62 60
        E 120 80 48 00
        E 0 80 4a 00
        E 0 80 55 00
        E 0 80 56 00
        E 0 80 61 00
        E 0 80 62 00
        E 120 90 56 60
        E 0 90 57 60
        E 0 90 62 60
        E 0 90 63 60
        E 120 80 56 00
        E 0 80 57 00
        E 0 80 62 00
        E 0 80 63 00
        E 120 90 40 60
        E 0 90 4b 60
        E 0 90 4c 60
        E 0 90 57 60
        E 0 90 58 60
        E 0 90 63 60
        E 0 90 64 60
        E 120 80 40 00
        E 0 80 4b 00
        E 0 80 4c 00
        E 0 80 57 00
        E 0 80 58 00
        E 0 80 63 00
        E 0 80 64 00
        E 240 90 57 60
        E 0 90 58 60
        E 0 90 63 60
        E 0 90 64 60
        E 120 80 57 00
        E 0 80 58 00
        E 0 80 63 00
        E 0 80 64 00
        E 240 90 4b 60
        E 0 90 4c 60
        E 0 90 57 60
        E 0 90 58 60
        E 0 90 63 60
        E 0 90 64 60
        E 120 80 4b 00
        E 0 80 4c 00
        E 0 80 57 00
        E 0 80 58 00
        E 0 80 63 00
        E 0 80 64 00
        E 360 90 48 60
        E 0 90 4a 60
        E 0 90 55 60
        E 0 90 56 60
        E 0 90 61 60
        E 0 90 62 60
        E 120 80 48 00
        E 0 80 4a 00
        E 0 80 55 00
        E 0 80 56 00
        E 0 80 61 00
        E 0 80 62 00
        E 360 90 55 60
        E 0 90 56 60
        E 0 90 61 60
        E 0 90 62 60
        E 120 80 55 00
        E 0 80 56 00
        E 0 80 61 00
        E 0 80 62 00
        E 120 90 40 60
        E 0 90 4b 60
        E 0 90 4c 60
        E 0 90 57 60
        E 0 90 58 60
        E 0 90 63 60
        E 0 90 64 60
        E 120 80 40 00
        E 0 80 4b 00
        E 0 80 4c 00
        E 0 80 57 00
        E 0 80 58 00
        E 0 80 63 00
        E 0 80 64 00
        E 120 90 54 60
        E 0 90 60 60
        E 0 90 65 60
        E 60 80 65 00
        E 60 80 54 00
        E 0 80 60 00
        E 120 90 48 60
        E 0 90 54 60
        E 0 90 60 60
        E 120 80 48 00
        E 0 80 54 00
        E 0 80 60 00
        E 120 90 55 60
        E 0 90 57 60
        E 0 90 61 60
        E 0 90 63 60
        E 120 80 55 00
        E 0 80 57 00
        E 0 80 61 00
        E 0 80 63 00
        E 120 90 3c 60
        E 0 90 48 60
        E 0 90 54 60
        E 0 90 60 60
        E 0 90 65 60
        E 60 80 65 00
        E 60 80 3c 00
        E 0 80 48 00
        E 0 80 54 00
        E 0 80 60 00
        E 120 90 54 60
        E 0 90 60 60
        E 120 80 54 00
        E 0 80 60 00
        E 120 90 48 60
        E 0 90 4a 60
        E 0 90 55 60
        E 0 90 56 60
        E 0 90 61 60
        E 0 90 62 60
        E 120 80 48 00
        E 0 80 4a 00
        E 0 80 55 00
        E 0 80 56 00
        E 0 80 61 00
        E 0 80 62 00
        E 120 90 54 60
        E 0 90 60 60
        E 0 90 65 60
        E 60 80 65 00
        E 60 80 54 00
        E 0 80 60 00
        E 120 90 3d 60
        E 0 90 49 60
        E 0 90 4a 60
        E 0 90 55 60
        E 0 90 57 60
        E 0 90 61 60
        E 0 90 63 60
        E 120 80 3d 00
        E 0 80 49 00
        E 0 80 4a 00
        E 0 80 55 00
        E 0 80 57 00
        E 0 80 61 00
        E 0 80 63 00
        E 120 90 54 60
        E 0 90 60 60
        E 0 90 65 60
        E 60 80 65 00
        E 60 80 54 00
        E 0 80 60 00
        E 120 90 49 60
        E 0 90 4b 60
        E 0 90 56 60
        E 0 90 57 60
        E 0 90 62 60
        E 0 90 63 60
        E 120 80 49 00
        E 0 80 4b 00
        E 0 80 56 00
        E 0 80 57 00
        E 0 80 62 00
        E 0 80 63 00
        E 120 90 54 60
        E 0 90 60 60
        E 0 90 65 60
        E 60 80 65 00
        E 60 80 54 00
        E 0 80 60 00
        E 120 90 40 60
        E 0 90 4b 60
        E 0 90 4c 60
        E 0 90 57 60
        E 0 90 58 60
        E 0 90 63 60
        E 0 90 64 60
        E 120 80 40 00
        E 0 80 4b 00
        E 0 80 4c 00
        E 0 80 57 00
        E 0 80 58 00
        E 0 80 63 00
        E 0 80 64 00
        E 120 90 54 60
        E 0 90 60 60
        E 0 90 65 60
        E 60 80 65 00
        E 60 80 54 00
        E 0 80 60 00
        E 120 90 48 60
        E 0 90 54 60
        E 0 90 60 60
        E 120 80 48 00
        E 0 80 54 00
        E 0 80 60 00
        E 120 90 55 60
        E 0 90 57 60
        E 0 90 61 60
        E 0 90 63 60
        E 120 80 55 00
        E 0 80 57 00
        E 0 80 61 00
        E 0 80 63 00
        E 120 90 3c 60
        E 0 90 48 60
        E 0 90 54 60
        E 0 90 60 60
        E 0 90 65 60
        E 60 80 65 00
        E 60 80 3c 00
        E 0 80 48 00
        E 0 80 54 00
        E 0 80 60 00
        E 120 90 54 60
        E 0 90 60 60
        E 120 80 54 00
        E 0 80 60 00
        E 120 90 48 60
        E 0 90 4a 60
        E 0 90 55 60
        E 0 90 56 60
        E 0 90 61 60
        E 0 90 62 60
        E 120 80 48 00
        E 0 80 4a 00
        E 0 80 55 00
        E 0 80 56 00
        E 0 80 61 00
        E 0 80 62 00
        E 120 90 54 60
        E 0 90 60 60
        E 0 90 65 60
        E 60 80 65 00
        E 60 80 54 00
        E 0 80 60 00
        E 120 90 3e 60
        E 0 90 49 60
        E 0 90 4b 60
        E 0 90 56 60
        E 0 90 57 60
        E 0 90 62 60
        E 0 90 63 60
        E 120 80 3e 00
        E 0 80 49 00
        E 0 80 4b 00
        E 0 80 56 00
        E 0 80 57 00
        E 0 80 62 00
        E 0 80 63 00
        E 120 90 54 60
        E 0 90 60 60
        E 0 90 65 60
        E 60 80 65 00
        E 60 80 54 00
        E 0 80 60 00
        E 120 90 49 60
        E 0 90 4a 60
        E 0 90 55 60
        E 0 90 57 60
        E 0 90 61 60
        E 0 90 63 60
        E 120 80 49 00
        E 0 80 4a 00
        E 0 80 55 00
        E 0 80 57 00
        E 0 80 61 00
        E 0 80 63 00
        E 120 90 54 60
        E 0 90 60 60
        E 0 90 65 60
        E 60 80 65 00
        E 60 80 54 00
        E 0 80 60 00
        E 120 90 3e 60
        E 0 90 49 60
        E 0 90 4b 60
        E 0 90 56 60
        E 0 90 57 60
        E 0 90 62 60
        E 0 90 63 60
        E 120 80 3e 00
        E 0 80 49 00
        E 0 80 4b 00
        E 0 80 56 00
        E 0 80 57 00
        E 0 80 62 00
        E 0 80 63 00
        E 240 90 56 60
        E 0 90 57 60
        E 0 90 62 60
        E 0 90 63 60
        E 120 80 56 00
        E 0 80 57 00
        E 0 80 62 00
        E 0 80 63 00
        E 240 90 49 60
        E 0 90 4b 60
        E 0 90 56 60
        E 0 90 57 60
        E 0 90 62 60
        E 0 90 63 60
        E 120 80 49 00
        E 0 80 4b 00
        E 0 80 56 00
        E 0 80 57 00
        E 0 80 62 00
        E 0 80 63 00
        E 360 90 48 60
        E 0 90 4a 60
        E 0 90 55 60
        E 0 90 56 60
        E 0 90 61 60
        E 0 90 62 60
        E 120 80 48 00
        E 0 80 4a 00
        E 0 80 55 00
        E 0 80 56 00
        E 0 80 61 00
        E 0 80 62 00
        E 120 90 48 60
        E 0 90 4a 60
        E 0 90 55 60
        E 0 90 56 60
        E 0 90 61 60
        E 0 90 62 60
        E 120 80 48 00
        E 0 80 4a 00
        E 0 80 55 00
        E 0 80 56 00
        E 0 80 61 00
        E 0 80 62 00
        E 120 90 56 60
        E 0 90 57 60
        E 0 90 62 60
        E 0 90 63 60
        E 120 80 56 00
        E 0 80 57 00
        E 0 80 62 00
        E 0 80 63 00
        E 120 90 40 60
        E 0 90 4b 60
        E 0 90 4c 60
        E 0 90 57 60
        E 0 90 58 60
        E 0 90 63 60
        E 0 90 64 60
        E 120 80 40 00
        E 0 80 4b 00
        E 0 80 4c 00
        E 0 80 57 00
        E 0 80 58 00
        E 0 80 63 00
        E 0 80 64 00
        E 240 90 57 60
        E 0 90 58 60
        E 0 90 63 60
        E 0 90 64 60
        E 120 80 57 00
        E 0 80 58 00
        E 0 80 63 00
        E 0 80 64 00
        E 240 90 4b 60
        E 0 90 4c 60
        E 0 90 57 60
        E 0 90 58 60
        E 0 90 63 60
        E 0 90 64 60
        E 120 80 4b 00
        E 0 80 4c 00
        E 0 80 57 00
        E 0 80 58 00
        E 0 80 63 00
        E 0 80 64 00
        E 120 90 40 60
        E 0 90 4b 60
        E 0 90 4c 60
        E 0 90 57 60
        E 0 90 58 60
        E 0 90 63 60
        E 0 90 64 60
        E 120 80 40 00
        E 0 80 4b 00
        E 0 80 4c 00
        E 0 80 57 00
        E 0 80 58 00
        E 0 80 63 00
        E 0 80 64 00
        E 120 90 54 60
        E 0 90 60 60
        E 0 90 65 60
        E 60 80 65 00
        E 60 80 54 00
        E 0 80 60 00
        E 120 90 48 60
        E 0 90 54 60
        E 0 90 60 60
        E 120 80 48 00
        E 0 80 54 00
        E 0 80 60 00
        E 120 90 55 60
        E 0 90 57 60
        E 0 90 61 60
        E 0 90 63 60
        E 120 80 55 00
        E 0 80 57 00
        E 0 80 61 00
        E 0 80 63 00
        E 120 90 3c 60
        E 0 90 48 60
        E 0 90 54 60
        E 0 90 60 60
        E 0 90 65 60
        E 60 80 65 00
        E 60 80 3c 00
        E 0 80 48 00
        E 0 80 54 00
        E 0 80 60 00
        E 120 90 54 60
        E 0 90 60 60
        E 120 80 54 00
        E 0 80 60 00
        E 120 90 48 60
        E 0 90 4a 60
        E 0 90 55 60
        E 0 90 56 60
        E 0 90 61 60
        E 0 90 62 60
        E 120 80 48 00
        E 0 80 4a 00
        E 0 80 55 00
        E 0 80 56 00
        E 0 80 61 00
        E 0 80 62 00
        E 120 90 54 60
        E 0 90 60 60
        E 0 90 65 60
        E 60 80 65 00
        E 60 80 54 00
        E 0 80 60 00
        E 120 90 3d 60
        E 0 90 49 60
        E 0 90 4a 60
        E 0 90 55 60
        E 0 90 57 60
        E 0 90 61 60
        E 0 90 63 60
        E 120 80 3d 00
        E 0 80 49 00
        E 0 80 4a 00
        E 0 80 55 00
        E 0 80 57 00
        E 0 80 61 00
        E 0 80 63 00
        E 120 90 54 60
        E 0 90 60 60
        E 0 90 65 60
        E 60 80 65 00
        E 60 80 54 00
        E 0 80 60 00
        E 120 90 49 60
        E 0 90 4b 60
        E 0 90 56 60
        E 0 90 57 60
        E 0 90 62 60
        E 0 90 63 60
        E 120 80 49 00
        E 0 80 4b 00
        E 0 80 56 00
        E 0 80 57 00
        E 0 80 62 00
        E 0 80 63 00
        E 120 90 54 60
        E 0 90 60 60
        E 0 90 65 60
        E 60 80 65 00
        E 60 80 54 00
        E 0 80 60 00
        E 120 90 40 60
        E 0 90 4b 60
        E 0 90 4c 60
        E 0 90 57 60
        E 0 90 58 60
        E 0 90 63 60
        E 0 90 64 60
        E 120 80 40 00
        E 0 80 4b 00
        E 0 80 4c 00
        E 0 80 57 00
        E 0 80 58 00
        E 0 80 63 00
        E 0 80 64 00
        E 120 90 54 60
        E 0 90 60 60
        E 0 90 65 60
        E 60 80 65 00
        E 60 80 54 00
        E 0 80 60 00
        E 120 90 48 60
        E 0 90 54 60
        E 0 90 60 60
        E 120 80 48 00
        E 0 80 54 00
        E 0 80 60 00
        E 120 90 55 60
        E 0 90 57 60
        E 0 90 61 60
        E 0 90 63 60
        E 120 80 55 00
        E 0 80 57 00
        E 0 80 61 00
        E 0 80 63 00
        E 120 90 3c 60
        E 0 90 48 60
        E 0 90 54 60
        E 0 90 60 60
        E 0 90 65 60
        E 60 80 65 00
        E 60 80 3c 00
        E 0 80 48 00
        E 0 80 54 00
        E 0 80 60 00
        E 120 90 54 60
        E 0 90 60 60
        E 120 80 54 00
        E 0 80 60 00
        E 120 90 48 60
        E 0 90 4a 60
        E 0 90 55 60
        E 0 90 56 60
        E 0 90 61 60
        E 0 90 62 60
        E 120 80 48 00
        E 0 80 4a 00
        E 0 80 55 00
        E 0 80 56 00
        E 0 80 61 00
        E 0 80 62 00
        E 120 90 54 60
        E 0 90 60 60
        E 0 90 65 60
        E 60 80 65 00
        E 60 80 54 00
        E 0 80 60 00
        E 120 90 3e 60
        E 0 90 49 60
        E 0 90 4b 60
        E 0 90 56 60
        E 0 90 57 60
        E 0 90 62 60
        E 0 90 63 60
        E 120 80 3e 00
        E 0 80 49 00
        E 0 80 4b 00
        E 0 80 56 00
        E 0 80 57 00
        E 0 80 62 00
        E 0 80 63 00
        E 120 90 54 60
        E 0 90 60 60
        E 0 90 65 60
        E 60 80 65 00
        E 60 80 54 00
        E 0 80 60 00
        E 120 90 49 60
        E 0 90 4a 60
        E 0 90 55 60
        E 0 90 57 60
        E 0 90 61 60
        E 0 90 63 60
        E 120 80 49 00
        E 0 80 4a 00
        E 0 80 55 00
        E 0 80 57 00
        E 0 80 61 00
        E 0 80 63 00
        E 120 90 54 60
        E 0 90 60 60
        E 0 90 65 60
        E 60 80 65 00
        E 60 80 54 00
        E 0 80 60 00
        E 120 90 40 60
        E 0 90 4b 60
        E 0 90 4c 60
        E 0 90 57 60
        E 0 90 58 60
        E 0 90 63 60
        E 0 90 64 60
        E 120 80 40 00
        E 0 80 4b 00
        E 0 80 4c 00
        E 0 80 57 00
        E 0 80 58 00
        E 0 80 63 00
        E 0 80 64 00
        E 120 90 54 60
        E 0 90 60 60
        E 0 90 65 60
        E 60 80 65 00
        E 60 80 54 00
        E 0 80 60 00
        E 120 90 48 60
        E 0 90 54 60
        E 0 90 60 60
        E 120 80 48 00
        E 0 80 54 00
        E 0 80 60 00
        E 120 90 55 60
        E 0 90 57 60
        E 0 90 61 60
        E 0 90 63 60
        E 120 80 55 00
        E 0 80 57 00
        E 0 80 61 00
        E 0 80 63 00
        E 120 90 3c 60
        E 0 90 48 60
        E 0 90 54 60
        E 0 90 60 60
        E 0 90 65 60
        E 60 80 65 00
        E 60 80 3c 00
        E 0 80 48 00
        E 0 80 54 00
        E 0 80 60 00
        E 120 90 54 60
        E 0 90 60 60
        E 120 80 54 00
        E 0 80 60 00
        E 120 90 48 60
        E 0 90 4a 60
        E 0 90 55 60
        E 0 90 56 60
        E 0 90 61 60
        E 0 90 62 60
        E 120 80 48 00
        E 0 80 4a 00
        E 0 80 55 00
        E 0 80 56 00
        E 0 80 61 00
        E 0 80 62 00
        E 120 90 54 60
        E 0 90 60 60
        E 0 90 65 60
        E 60 80 65 00
        E 60 80 54 00
        E 0 80 60 00
        E 120 90 3d 60
        E 0 90 49 60
        E 0 90 4a 60
        E 0 90 55 60
        E 0 90 57 60
        E 0 90 61 60
        E 0 90 63 60
        E 120 80 3d 00
        E 0 80 49 00
        E 0 80 4a 00
        E 0 80 55 00
        E 0 80 57 00
        E 0 80 61 00
        E 0 80 63 00
        E 120 90 54 60
        E 0 90 60 60
        E 0 90 65 60
        E 60 80 65 00
        E 60 80 54 00
        E 0 80 60 00
        E 120 90 49 60
        E 0 90 4b 60
        E 0 90 56 60
        E 0 90 57 60
        E 0 90 62 60
        E 0 90 63 60
        E 120 80 49 00
        E 0 80 4b 00
        E 0 80 56 00
        E 0 80 57 00
        E 0 80 62 00
        E 0 80 63 00
        E 120 90 54 60
        E 0 90 60 60
        E 0 90 65 60
        E 60 80 65 00
        E 60 80 54 00
        E 0 80 60 00
        E 120 90 40 60
        E 0 90 4b 60
        E 0 90 4c 60
        E 0 90 57 60
        E 0 90 58 60
        E 0 90 63 60
        E 0 90 64 60
        E 120 80 40 00
        E 0 80 4b 00
        E 0 80 4c 00
        E 0 80 57 00
        E 0 80 58 00
        E 0 80 63 00
        E 0 80 64 00
        E 120 90 54 60
        E 0 90 60 60
        E 0 90 65 60
        E 60 80 65 00
        E 60 80 54 00
        E 0 80 60 00
        E 120 90 48 60
        E 0 90 54 60
        E 0 90 60 60
        E 120 80 48 00
        E 0 80 54 00
        E 0 80 60 00
        E 120 90 55 60
        E 0 90 57 60
        E 0 90 61 60
        E 0 90 63 60
        E 120 80 55 00
        E 0 80 57 00
        E 0 80 61 00
        E 0 80 63 00
        E 120 90 3c 60
        E 0 90 48 60
        E 0 90 54 60
        E 0 90 60 60
        E 0 90 65 60
        E 60 80 65 00
        E 60 80 3c 00
        E 0 80 48 00
        E 0 80 54 00
        E 0 80 60 00
        E 120 90 54 60
        E 0 90 60 60
        E 120 80 54 00
        E 0 80 60 00
        E 120 90 48 60
        E 0 90 4a 60
        E 0 90 55 60
        E 0 90 56 60
        E 0 90 61 60
        E 0 90 62 60
        E 120 80 48 00
        E 0 80 4a 00
        E 0 80 55 00
        E 0 80 56 00
        E 0 80 61 00
        E 0 80 62 00
        E 120 90 54 60
        E 0 90 60 60
        E 0 90 65 60
        E 60 80 65 00
        E 60 80 54 00
        E 0 80 60 00
        E 120 90 3e 60
        E 0 90 49 60
        E 0 90 4b 60
        E 0 90 56 60
        E 0 90 57 60
        E 0 90 62 60
        E 0 90 63 60
        E 120 80 3e 00
        E 0 80 49 00
        E 0 80 4b 00
        E 0 80 56 00
        E 0 80 57 00
        E 0 80 62 00
        E 0 80 63 00
        E 120 90 54 60
        E 0 90 60 60
        E 0 90 65 60
        E 60 80 65 00
        E 60 80 54 00
        E 0 80 60 00
        E 120 90 49 60
        E 0 90 4a 60
        E 0 90 55 60
        E 0 90 57 60
        E 0 90 61 60
        E 0 90 63 60
        E 120 80 49 00
        E 0 80 4a 00
        E 0 80 55 00
        E 0 80 57 00
        E 0 80 61 00
        E 0 80 63 00
        E 120 90 54 60
        E 0 90 60 60
        E 0 90 65 60
        E 60 80 65 00
        E 60 80 54 00
        E 0 80 60 00
        E 120 90 40 60
        E 0 90 4b 60
        E 0 90 4c 60
        E 0 90 57 60
        E 0 90 58 60
        E 0 90 63 60
        E 0 90 64 60
        E 120 80 40 00
        E 0 80 4b 00
        E 0 80 4c 00
        E 0 80 57 00
        E 0 80 58 00
        E 0 80 63 00
        E 0 80 64 00
        E 120 90 4b 60
        E 0 90 4c 60
        E 0 90 57 60
        E 0 90 58 60
        E 0 90 63 60
        E 0 90 64 60
        E 120 80 4b 00
        E 0 80 4c 00
        E 0 80 57 00
        E 0 80 58 00
        E 0 80 63 00
        E 0 80 64 00
        E 120 90 4b 60
        E 0 90 4c 60
        E 0 90 57 60
        E 0 90 58 60
        E 0 90 63 60
        E 0 90 64 60
        E 120 80 4b 00
        E 0 80 4c 00
        E 0 80 57 00
        E 0 80 58 00
        E 0 80 63 00
        E 0 80 64 00
        E 120 90 55 60
        E 0 90 57 60
        E 0 90 61 60
        E 0 90 63 60
        E 120 80 55 00
        E 0 80 57 00
        E 0 80 61 00
        E 0 80 63 00
        E 120 90 3d 60
        E 0 90 49 60
        E 0 90 4a 60
        E 0 90 55 60
        E 0 90 57 60
        E 0 90 61 60
        E 0 90 63 60
        E 120 80 3d 00
        E 0 80 49 00
        E 0 80 4a 00
        E 0 80 55 00
        E 0 80 57 00
        E 0 80 61 00
        E 0 80 63 00
        E 120 90 55 60
        E 0 90 57 60
        E 0 90 61 60
        E 0 90 63 60
        E 120 80 55 00
        E 0 80 57 00
        E 0 80 61 00
        E 0 80 63 00
        E 120 90 48 60
        E 0 90 4a 60
        E 0 90 55 60
        E 0 90 56 60
        E 0 90 61 60
        E 0 90 62 60
        E 120 80 48 00
        E 0 80 4a 00
        E 0 80 55 00
        E 0 80 56 00
        E 0 80 61 00
        E 0 80 62 00
        E 120 90 55 60
        E 0 90 56 60
        E 0 90 61 60
        E 0 90 62 60
        E 120 80 55 00
        E 0 80 56 00
        E 0 80 61 00
        E 0 80 62 00
        E 120 90 3d 60
        E 0 90 49 60
        E 0 90 4a 60
        E 0 90 55 60
        E 0 90 57 60
        E 0 90 61 60
        E 0 90 63 60
        E 120 80 3d 00
        E 0 80 49 00
        E 0 80 4a 00
        E 0 80 55 00
        E 0 80 57 00
        E 0 80 61 00
        E 0 80 63 00
        E 120 90 55 60
        E 0 90 57 60
        E 0 90 61 60
        E 0 90 63 60
        E 120 80 55 00
        E 0 80 57 00
        E 0 80 61 00
        E 0 80 63 00
        E 120 90 49 60
        E 0 90 4b 60
        E 0 90 56 60
        E 0 90 57 60
        E 0 90 62 60
        E 0 90 63 60
        E 120 80 49 00
        E 0 80 4b 00
        E 0 80 56 00
        E 0 80 57 00
        E 0 80 62 00
        E 0 80 63 00
        E 120 90 56 60
        E 0 90 57 60
        E 0 90 62 60
        E 0 90 63 60
        E 120 80 56 00
        E 0 80 57 00
        E 0 80 62 00
        E 0 80 63 00
        E 120 90 40 60
        E 0 90 4b 60
        E 0 90 4c 60
        E 0 90 57 60
        E 0 90 58 60
        E 0 90 63 60
        E 0 90 64 60
        E 120 80 40 00
        E 0 80 4b 00
        E 0 80 4c 00
        E 0 80 57 00
        E 0 80 58 00
        E 0 80 63 00
        E 0 80 64 00
        E 120 90 4b 60
        E 0 90 4c 60
        E 0 90 57 60
        E 0 90 58 60
        E 0 90 63 60
        E 0 90 64 60
        E 120 80 4b 00
        E 0 80 4c 00
        E 0 80 57 00
        E 0 80 58 00
        E 0 80 63 00
        E 0 80 64 00
        E 120 90 4b 60
        E 0 90 4c 60
        E 0 90 57 60
        E 0 90 58 60
        E 0 90 63 60
        E 0 90 64 60
        E 120 80 4b 00
        E 0 80 4c 00
        E 0 80 57 00
        E 0 80 58 00
        E 0 80 63 00
        E 0 80 64 00
        E 120 90 55 60
        E 0 90 57 60
        E 0 90 61 60
        E 0 90 63 60
        E 120 80 55 00
        E 0 80 57 00
        E 0 80 61 00
        E 0 80 63 00
        E 120 90 3d 60
        E 0 90 49 60
        E 0 90 4a 60
        E 0 90 55 60
        E 0 90 57 60
        E 0 90 61 60
        E 0 90 63 60
        E 120 80 3d 00
        E 0 80 49 00
        E 0 80 4a 00
        E 0 80 55 00
        E 0 80 57 00
        E 0 80 61 00
        E 0 80 63 00
        E 120 90 55 60
        E 0 90 57 60
        E 0 90 61 60
        E 0 90 63 60
        E 120 80 55 00
        E 0 80 57 00
        E 0 80 61 00
        E 0 80 63 00
        E 120 90 48 60
        E 0 90 4a 60
        E 0 90 55 60
        E 0 90 56 60
        E 0 90 61 60
        E 0 90 62 60
        E 120 80 48 00
        E 0 80 4a 00
        E 0 80 55 00
        E 0 80 56 00
        E 0 80 61 00
        E 0 80 62 00
        E 120 90 55 60
        E 0 90 56 60
        E 0 90 61 60
        E 0 90 62 60
        E 120 80 55 00
        E 0 80 56 00
        E 0 80 61 00
        E 0 80 62 00
        E 120 90 3e 60
        E 0 90 49 60
        E 0 90 4b 60
        E 0 90 56 60
        E 0 90 57 60
        E 0 90 62 60
        E 0 90 63 60
        E 120 80 3e 00
        E 0 80 49 00
        E 0 80 4b 00
        E 0 80 56 00
        E 0 80 57 00
        E 0 80 62 00
        E 0 80 63 00
        E 120 90 56 60
        E 0 90 57 60
        E 0 90 62 60
        E 0 90 63 60
        E 120 80 56 00
        E 0 80 57 00
        E 0 80 62 00
        E 0 80 63 00
        E 120 90 49 60
        E 0 90 4a 60
        E 0 90 55 60
        E 0 90 57 60
        E 0 90 61 60
        E 0 90 63 60
        E 120 80 49 00
        E 0 80 4a 00
        E 0 80 55 00
        E 0 80 57 00
        E 0 80 61 00
        E 0 80 63 00
        E 120 90 55 60
        E 0 90 57 60
        E 0 90 61 60
        E 0 90 63 60
        E 120 80 55 00
        E 0 80 57 00
        E 0 80 61 00
        E 0 80 63 00
        E 120 90 40 60
        E 0 90 4b 60
        E 0 90 4c 60
        E 0 90 57 60
        E 0 90 58 60
        E 0 90 63 60
        E 0 90 64 60
        E 120 80 40 00
        E 0 80 4b 00
        E 0 80 4c 00
        E 0 80 57 00
        E 0 80 58 00
        E 0 80 63 00
        E 0 80 64 00
        E 120 90 4b 60
        E 0 90 4c 60
        E 0 90 57 60
        E 0 90 58 60
        E 0 90 63 60
        E 0 90 64 60
        E 120 80 4b 00
        E 0 80 4c 00
        E 0 80 57 00
        E 0 80 58 00
        E 0 80 63 00
        E 0 80 64 00
        E 120 90 4b 60
        E 0 90 4c 60
        E 0 90 57 60
        E 0 90 58 60
        E 0 90 63 60
        E 0 90 64 60
        E 120 80 4b 00
        E 0 80 4c 00
        E 0 80 57 00
        E 0 80 58 00
        E 0 80 63 00
        E 0 80 64 00
        E 120 90 55 60
        E 0 90 57 60
        E 0 90 61 60
        E 0 90 63 60
        E 120 80 55 00
        E 0 80 57 00
        E 0 80 61 00
        E 0 80 63 00
        E 120 90 3d 60
        E 0 90 49 60
        E 0 90 4a 60
        E 0 90 55 60
        E 0 90 57 60
        E 0 90 61 60
        E 0 90 63 60
        E 120 80 3d 00
        E 0 80 49 00
        E 0 80 4a 00
        E 0 80 55 00
        E 0 80 57 00
        E 0 80 61 00
        E 0 80 63 00
        E 120 90 55 60
        E 0 90 57 60
        E 0 90 61 60
        E 0 90 63 60
        E 120 80 55 00
        E 0 80 57 00
        E 0 80 61 00
        E 0 80 63 00
        E 120 90 48 60
        E 0 90 4a 60
        E 0 90 55 60
        E 0 90 56 60
        E 0 90 61 60
        E 0 90 62 60
        E 120 80 48 00
        E 0 80 4a 00
        E 0 80 55 00
        E 0 80 56 00
        E 0 80 61 00
        E 0 80 62 00
        E 120 90 55 60
        E 0 90 56 60
        E 0 90 61 60
        E 0 90 62 60
        E 120 80 55 00
        E 0 80 56 00
        E 0 80 61 00
        E 0 80 62 00
        E 120 90 3d 60
        E 0 90 49 60
        E 0 90 4a 60
        E 0 90 55 60
        E 0 90 57 60
        E 0 90 61 60
        E 0 90 63 60
        E 120 80 3d 00
        E 0 80 49 00
        E 0 80 4a 00
        E 0 80 55 00
        E 0 80 57 00
        E 0 80 61 00
        E 0 80 63 00
        E 120 90 55 60
        E 0 90 57 60
        E 0 90 61 60
        E 0 90 63 60
        E 120 80 55 00
        E 0 80 57 00
        E 0 80 61 00
        E 0 80 63 00
        E 120 90 49 60
        E 0 90 4b 60
        E 0 90 56 60
        E 0 90 57 60
        E 0 90 62 60
        E 0 90 63 60
        E 120 80 49 00
        E 0 80 4b 00
        E 0 80 56 00
        E 0 80 57 00
        E 0 80 62 00
        E 0 80 63 00
        E 120 90 56 60
        E 0 90 57 60
        E 0 90 62 60
        E 0 90 63 60
        E 120 80 56 00
        E 0 80 57 00
        E 0 80 62 00
        E 0 80 63 00
        E 120 90 40 60
        E 0 90 4b 60
        E 0 90 4c 60
        E 0 90 57 60
        E 0 90 58 60
        E 0 90 63 60
        E 0 90 64 60
        E 120 80 40 00
        E 0 80 4b 00
        E 0 80 4c 00
        E 0 80 57 00
        E 0 80 58 00
        E 0 80 63 00
        E 0 80 64 00
        E 120 90 4b 60
        E 0 90 4c 60
        E 0 90 57 60
        E 0 90 58 60
        E 0 90 63 60
        E 0 90 64 60
        E 120 80 4b 00
        E 0 80 4c 00
        E 0 80 57 00
        E 0 80 58 00
        E 0 80 63 00
        E 0 80 64 00
        E 120 90 4b 60
        E 0 90 4c 60
        E 0 90 57 60
        E 0 90 58 60
        E 0 90 63 60
        E 0 90 64 60
        E 120 80 4b 00
        E 0 80 4c 00
        E 0 80 57 00
        E 0 80 58 00
        E 0 80 63 00
        E 0 80 64 00
        E 120 90 55 60
        E 0 90 57 60
        E 0 90 61 60
        E 0 90 63 60
        E 120 80 55 00
        E 0 80 57 00
        E 0 80 61 00
        E 0 80 63 00
        E 120 90 3d 60
        E 0 90 49 60
        E 0 90 4a 60
        E 0 90 55 60
        E 0 90 57 60
        E 0 90 61 60
        E 0 90 63 60
        E 120 80 3d 00
        E 0 80 49 00
        E 0 80 4a 00
        E 0 80 55 00
        E 0 80 57 00
        E 0 80 61 00
        E 0 80 63 00
        E 120 90 55 60
        E 0 90 57 60
        E 0 90 61 60
        E 0 90 63 60
        E 120 80 55 00
        E 0 80 57 00
        E 0 80 61 00
        E 0 80 63 00
        E 120 90 48 60
        E 0 90 4a 60
        E 0 90 55 60
        E 0 90 56 60
        E 0 90 61 60
        E 0 90 62 60
        E 120 80 48 00
        E 0 80 4a 00
        E 0 80 55 00
        E 0 80 56 00
        E 0 80 61 00
        E 0 80 62 00
        E 120 90 55 60
        E 0 90 56 60
        E 0 90 61 60
        E 0 90 62 60
        E 120 80 55 00
        E 0 80 56 00
        E 0 80 61 00
        E 0 80 62 00
        E 120 90 3e 60
        E 0 90 49 60
        E 0 90 4b 60
        E 0 90 56 60
        E 0 90 57 60
        E 0 90 62 60
        E 0 90 63 60
        E 120 80 3e 00
        E 0 80 49 00
        E 0 80 4b 00
        E 0 80 56 00
        E 0 80 57 00
        E 0 80 62 00
        E 0 80 63 00
        E 120 90 56 60
        E 0 90 57 60
        E 0 90 62 60
        E 0 90 63 60
        E 120 80 56 00
        E 0 80 57 00
        E 0 80 62 00
        E 0 80 63 00
        E 120 90 49 60
        E 0 90 4a 60
        E 0 90 55 60
        E 0 90 57 60
        E 0 90 61 60
        E 0 90 63 60
        E 120 80 49 00
        E 0 80 4a 00
        E 0 80 55 00
        E 0 80 57 00
        E 0 80 61 00
        E 0 80 63 00
        E 120 90 55 60
        E 0 90 57 60
        E 0 90 61 60
        E 0 90 63 60
        E 120 80 55 00
        E 0 80 57 00
        E 0 80 61 00
        E 0 80 63 00
        E 120 90 3d 60
        E 0 90 49 60
        E 0 90 55 60
        E 0 90 61 60
        E 120 80 3d 00
        E 0 80 49 00
        E 0 80 55 00
        E 0 80 61 00
        E 120 90 54 60
        E 0 90 60 60
        E 600 80 54 00
        E 0 80 60 00
        E 120 90 3c 60
        E 0 90 48 60
        E 0 90 49 60
        E 0 90 54 60
        E 0 90 56 60
        E 0 90 60 60
        E 0 90 61 60
        E 0 90 63 60
        E 480 80 3c 00
        E 0 80 48 00
        E 0 80 49 00
        E 360 80 54 00
        E 0 80 56 00
        E 0 80 60 00
        E 0 80 61 00
        E 0 80 63 00
        E 120 90 3d 60
        E 0 90 49 60
        E 0 90 4a 60
        E 0 90 55 60
        E 0 90 57 60
        E 0 90 61 60
        E 0 90 63 60
        E 120 80 3d 00
        E 0 80 49 00
        E 0 80 4a 00
        E 0 80 55 00
        E 0 80 57 00
        E 0 80 61 00
        E 0 80 63 00
        E 120 90 56 60
        E 0 90 57 60
        E 0 90 62 60
        E 0 90 63 60
        E 600 80 56 00
        E 0 80 57 00
        E 0 80 62 00
        E 0 80 63 00
        E 120 90 3c 60
        E 0 90 48 60
        E 0 90 4a 60
        E 0 90 54 60
        E 0 90 57 60
        E 0 90 60 60
        E 0 90 62 60
        E 0 90 63 60
        E 480 80 3c 00
        E 0 80 48 00
        E 0 80 4a 00
        E 360 80 54 00
        E 0 80 57 00
        E 0 80 60 00
        E 0 80 62 00
        E 0 80 63 00
        E 120 90 3d 60
        E 0 90 4a 60
        E 0 90 56 60
        E 0 90 62 60
        E 60 80 3d 00
        E 0 80 4a 00
        E 0 80 56 00
        E 0 80 62 00
        E 180 90 55 60
        E 0 90 61 60
        E 600 80 55 00
        E 0 80 61 00
        E 120 90 3f 60
        E 0 90 4a 60
        E 0 90 4b 60
        E 0 90 55 60
        E 0 90 58 60
        E 0 90 61 60
        E 0 90 62 60
        E 0 90 64 60
        E 480 80 3f 00
        E 0 80 4a 00
        E 0 80 4b 00
        E 360 80 55 00
        E 0 80 58 00
        E 0 80 61 00
        E 0 80 62 00
        E 0 80 64 00
        E 120 90 3d 60
        E 0 90 4a 60
        E 0 90 56 60
        E 0 90 62 60
        E 60 80 3d 00
        E 0 80 4a 00
        E 0 80 56 00
        E 0 80 62 00
        E 180 90 55 60
        E 0 90 61 60
        E 600 80 55 00
        E 0 80 61 00
        E 120 90 3f 60
        E 0 90 4a 60
        E 0 90 4b 60
        E 0 90 55 60
        E 0 90 58 60
        E 0 90 61 60
        E 0 90 62 60
        E 0 90 64 60
        E 480 80 3f 00
        E 0 80 4a 00
        E 0 80 4b 00
        E 360 80 55 00
        E 0 80 58 00
        E 0 80 61 00
        E 0 80 62 00
        E 0 80 64 00
        E 120 90 3e 60
        E 0 90 4b 60
        E 0 90 57 60
        E 0 90 63 60
        E 60 80 3e 00
        E 0 80 4b 00
        E 0 80 57 00
        E 0 80 63 00
        E 180 90 55 60
        E 0 90 61 60
        E 600 80 55 00
        E 0 80 61 00
        E 120 90 3f 60
        E 0 90 4a 60
        E 0 90 4b 60
        E 0 90 56 60
        E 0 90 58 60
        E 0 90 61 60
        E 0 90 63 60
        E 0 90 64 60
        E 480 80 3f 00
        E 0 80 4a 00
        E 0 80 4b 00
        E 360 80 56 00
        E 0 80 58 00
        E 0 80 61 00
        E 0 80 63 00
        E 0 80 64 00
        E 120 90 3e 60
        E 0 90 4b 60
        E 0 90 57 60
        E 0 90 63 60
        E 60 80 3e 00
        E 0 80 4b 00
        E 0 80 57 00
        E 0 80 63 00
        E 180 90 55 60
        E 0 90 61 60
        E 600 80 55 00
        E 0 80 61 00
        E 120 90 3f 60
        E 0 90 4a 60
        E 0 90 4b 60
        E 0 90 56 60
        E 0 90 58 60
        E 0 90 61 60
        E 0 90 63 60
        E 0 90 64 60
        E 480 80 3f 00
        E 0 80 4a 00
        E 0 80 4b 00
        E 360 80 56 00
        E 0 80 58 00
        E 0 80 61 00
        E 0 80 63 00
        E 0 80 64 00
        E 120 90 3e 60
        E 0 90 4b 60
        E 0 90 57 60
        E 0 90 63 60
        E 60 80 3e 00
        E 0 80 4b 00
        E 0 80 57 00
        E 0 80 63 00
        E 180 90 56 60
        E 0 90 62 60
        E 600 80 56 00
        E 0 80 62 00
        E 120 90 40 60
        E 0 90 4b 60
        E 0 90 4c 60
        E 0 90 57 60
        E 0 90 58 60
        E 0 90 62 60
        E 0 90 63 60
        E 0 90 64 60
        E 480 80 40 00
        E 0 80 4b 00
        E 0 80 4c 00
        E 360 80 57 00
        E 0 80 58 00
        E 0 80 62 00
        E 0 80 63 00
        E 0 80 64 00
        E 120 90 3e 60
        E 0 90 4b 60
        E 0 90 57 60
        E 0 90 63 60
        E 60 80 3e 00
        E 0 80 4b 00
        E 0 80 57 00
        E 0 80 63 00
        E 180 90 56 60
        E 0 90 62 60
        E 600 80 56 00
        E 0 80 62 00
        E 120 90 40 60
        E 0 90 4b 60
        E 0 90 4c 60
        E 0 90 57 60
        E 0 90 58 60
        E 0 90 62 60
        E 0 90 63 60
        E 0 90 64 60
        E 480 80 40 00
        E 0 80 4b 00
        E 0 80 4c 00
        E 360 80 57 00
        E 0 80 58 00
        E 0 80 62 00
        E 0 80 63 00
        E 0 80 64 00
        E 120 90 3d 60
        E 0 90 49 60
        E 0 90 55 60
        E 0 90 61 60
        E 60 80 3d 00
        E 0 80 49 00
        E 0 80 55 00
        E 0 80 61 00
        E 179 90 54 60
        E 0 90 60 60
        E 600 80 54 00
        E 0 80 60 00
        E 120 90 3d 60
        E 0 90 49 60
        E 0 90 55 60
        E 0 90 60 60
        E 0 90 63 60
        E 1 90 61 60
        E 0 90 66 60
        E 60 80 66 00
        E 419 80 3d 00
        E 0 80 49 00
        E 360 80 55 00
        E 0 80 60 00
        E 0 80 63 00
        E 0 80 61 00
        E 120 90 3d 60
        E 0 90 49 60
        E 0 90 4a 60
        E 0 90 55 60
        E 0 90 57 60
        E 0 90 61 60
        E 0 90 63 60
        E 60 80 3d 00
        E 0 80 49 00
        E 0 80 4a 00
        E 0 80 55 00
        E 0 80 57 00
        E 0 80 61 00
        E 0 80 63 00
        E 180 90 56 60
        E 0 90 57 60
        E 0 90 62 60
        E 0 90 63 60
        E 600 80 56 00
        E 0 80 57 00
        E 0 80 62 00
        E 0 80 63 00
        E 120 90 3c 60
        E 0 90 48 60
        E 0 90 4a 60
        E 0 90 54 60
        E 0 90 57 60
        E 0 90 60 60
        E 0 90 62 60
        E 0 90 63 60
        E 480 80 3c 00
        E 0 80 48 00
        E 0 80 4a 00
        E 360 80 54 00
        E 0 80 57 00
        E 0 80 60 00
        E 0 80 62 00
        E 0 80 63 00
        E 120 90 3d 60
        E 0 90 4a 60
        E 0 90 56 60
        E 0 90 62 60
        E 60 80 3d 00
        E 0 80 4a 00
        E 0 80 56 00
        E 0 80 62 00
        E 180 90 55 60
        E 0 90 61 60
        E 600 80 55 00
        E 0 80 61 00
        E 120 90 3f 60
        E 0 90 4a 60
        E 0 90 4b 60
        E 0 90 55 60
        E 0 90 58 60
        E 0 90 61 60
        E 0 90 62 60
        E 0 90 64 60
        E 480 80 3f 00
        E 0 80 4a 00
        E 0 80 4b 00
        E 360 80 55 00
        E 0 80 58 00
        E 0 80 61 00
        E 0 80 62 00
        E 0 80 64 00
        E 120 90 3d 60
        E 0 90 4a 60
        E 0 90 56 60
        E 0 90 62 60
        E 60 80 3d 00
        E 0 80 4a 00
        E 0 80 56 00
        E 0 80 62 00
        E 180 90 55 60
        E 0 90 61 60
        E 600 80 55 00
        E 0 80 61 00
        E 120 90 3f 60
        E 0 90 4a 60
        E 0 90 4b 60
        E 0 90 55 60
        E 0 90 58 60
        E 0 90 61 60
        E 0 90 62 60
        E 0 90 64 60
        E 480 80 3f 00
        E 0 80 4a 00
        E 0 80 4b 00
        E 360 80 55 00
        E 0 80 58 00
        E 0 80 61 00
        E 0 80 62 00
        E 0 80 64 00
        E 120 90 3e 60
        E 0 90 4b 60
        E 0 90 57 60
        E 0 90 63 60
        E 60 80 3e 00
        E 0 80 4b 00
        E 0 80 57 00
        E 0 80 63 00
        E 180 90 55 60
        E 0 90 61 60
        E 600 80 55 00
        E 0 80 61 00
        E 120 90 3f 60
        E 0 90 4a 60
        E 0 90 4b 60
        E 0 90 56 60
        E 0 90 58 60
        E 0 90 61 60
        E 0 90 63 60
        E 0 90 64 60
        E 481 80 3f 00
        E 0 80 4a 00
        E 0 80 4b 00
        E 359 80 56 00
        E 0 80 58 00
        E 0 80 61 00
        E 0 80 63 00
        E 0 80 64 00
        E 121 90 3e 60
        E 0 90 4b 60
        E 0 90 57 60
        E 0 90 63 60
        E 120 80 3e 00
        E 0 80 4b 00
        E 0 80 57 00
        E 0 80 63 00
        E 119 90 55 60
        E 0 90 61 60
        E 600 80 55 00
        E 0 80 61 00
        E 120 90 3f 60
        E 0 90 4a 60
        E 0 90 4b 60
        E 0 90 56 60
        E 0 90 58 60
        E 0 90 61 60
        E 0 90 63 60
        E 0 90 64 60
        E 480 80 3f 00
        E 0 80 4a 00
        E 0 80 4b 00
        E 360 80 56 00
        E 0 80 58 00
        E 0 80 61 00
        E 0 80 63 00
        E 0 80 64 00
        E 120 90 3e 60
        E 0 90 4b 60
        E 0 90 57 60
        E 0 90 63 60
        E 60 80 3e 00
        E 0 80 4b 00
        E 0 80 57 00
        E 0 80 63 00
        E 180 90 56 60
        E 0 90 62 60
        E 600 80 56 00
        E 0 80 62 00
        E 120 90 40 60
        E 0 90 4b 60
        E 0 90 4c 60
        E 0 90 57 60
        E 0 90 58 60
        E 0 90 62 60
        E 0 90 63 60
        E 0 90 64 60
        E 480 80 40 00
        E 0 80 4b 00
        E 0 80 4c 00
        E 360 80 57 00
        E 0 80 58 00
        E 0 80 62 00
        E 0 80 63 00
        E 0 80 64 00
        E 120 90 3e 60
        E 0 90 4b 60
        E 0 90 57 60
        E 0 90 63 60
        E 60 80 3e 00
        E 0 80 4b 00
        E 0 80 57 00
        E 0 80 63 00
        E 180 90 56 60
        E 0 90 62 60
        E 600 80 56 00
        E 0 80 62 00
        E 120 90 40 60
        E 0 90 4b 60
        E 0 90 4c 60
        E 0 90 57 60
        E 0 90 58 60
        E 0 90 62 60
        E 0 90 63 60
        E 0 90 64 60
        E 481 80 40 00
        E 0 80 4b 00
        E 0 80 4c 00
        E 359 80 57 00
        E 0 80 58 00
        E 0 80 62 00
        E 0 80 63 00
        E 0 80 64 00
        E 121 90 3d 60
        E 0 90 49 60
        E 0 90 55 60
        E 0 90 61 60
        E 80 80 3d 00
        E 0 80 49 00
        E 0 80 55 00
        E 0 80 61 00
        E 80 90 60 60
        E 0 90 66 60
        E 80 80 60 00
        E 0 80 66 00
        E 80 90 60 60
        E 80 80 60 00
        E 80 90 48 60
        E 0 90 54 60
        E 0 90 60 60
        E 80 80 48 00
        E 0 80 54 00
        E 0 80 60 00
        E 80 90 60 60
        E 80 80 60 00
        E 80 90 60 60
        E 80 80 60 00
        E 80 90 3c 60
        E 0 90 48 60
        E 0 90 4a 60
        E 0 90 54 60
        E 0 90 57 60
        E 0 90 60 60
        E 0 90 62 60
        E 0 90 63 60
        E 80 80 3c 00
        E 0 80 48 00
        E 0 80 4a 00
        E 0 80 54 00
        E 0 80 57 00
        E 0 80 60 00
        E 0 80 62 00
        E 0 80 63 00
        E 80 90 60 60
        E 0 90 62 60
        E 0 90 63 60
        E 80 80 60 00
        E 0 80 62 00
        E 0 80 63 00
        E 80 90 60 60
        E 0 90 62 60
        E 0 90 63 60
        E 80 80 60 00
        E 0 80 62 00
        E 0 80 63 00
        E 80 90 3c 60
        E 0 90 48 60
        E 0 90 4a 60
        E 0 90 54 60
        E 0 90 57 60
        E 0 90 60 60
        E 0 90 62 60
        E 0 90 63 60
        E 80 80 3c 00
        E 0 80 48 00
        E 0 80 4a 00
        E 0 80 54 00
        E 0 80 57 00
        E 0 80 60 00
        E 0 80 62 00
        E 0 80 63 00
        E 80 90 60 60
        E 0 90 62 60
        E 0 90 63 60
        E 80 80 60 00
        E 0 80 62 00
        E 0 80 63 00
        E 80 90 60 60
        E 0 90 62 60
        E 0 90 63 60
        E 80 80 60 00
        E 0 80 62 00
        E 0 80 63 00
        E 80 90 3c 60
        E 0 90 48 60
        E 0 90 4a 60
        E 0 90 54 60
        E 0 90 57 60
        E 0 90 60 60
        E 0 90 62 60
        E 0 90 63 60
        E 80 80 3c 00
        E 0 80 48 00
        E 0 80 4a 00
        E 0 80 54 00
        E 0 80 57 00
        E 0 80 60 00
        E 0 80 62 00
        E 0 80 63 00
        E 80 90 60 60
        E 0 90 66 60
        E 80 80 60 00
        E 0 80 66 00
        E 80 90 60 60
        E 80 80 60 00
        E 80 90 3c 60
        E 0 90 48 60
        E 0 90 54 60
        E 0 90 60 60
        E 80 80 3c 00
        E 0 80 48 00
        E 0 80 54 00
        E 0 80 60 00
        E 80 90 60 60
        E 80 80 60 00
        E 80 90 60 60
        E 80 80 60 00
        E 80 90 3c 60
        E 0 90 48 60
        E 0 90 49 60
        E 0 90 54 60
        E 0 90 56 60
        E 0 90 60 60
        E 0 90 61 60
        E 0 90 63 60
        E 80 80 3c 00
        E 0 80 48 00
        E 0 80 49 00
        E 0 80 54 00
        E 0 80 56 00
        E 0 80 60 00
        E 0 80 61 00
        E 0 80 63 00
        E 80 90 60 60
        E 0 90 61 60
        E 0 90 63 60
        E 80 80 60 00
        E 0 80 61 00
        E 0 80 63 00
        E 80 90 60 60
        E 0 90 61 60
        E 0 90 63 60
        E 80 80 60 00
        E 0 80 61 00
        E 0 80 63 00
        E 80 90 48 60
        E 0 90 49 60
        E 0 90 54 60
        E 0 90 56 60
        E 0 90 60 60
        E 0 90 61 60
        E 0 90 63 60
        E 80 80 48 00
        E 0 80 49 00
        E 0 80 54 00
        E 0 80 56 00
        E 0 80 60 00
        E 0 80 61 00
        E 0 80 63 00
        E 80 90 60 60
        E 0 90 61 60
        E 0 90 63 60
        E 80 80 60 00
        E 0 80 61 00
        E 0 80 63 00
        E 80 90 60 60
        E 0 90 61 60
        E 0 90 63 60
        E 80 80 60 00
        E 0 80 61 00
        E 0 80 63 00
        E 80 90 3d 60
        E 0 90 4a 60
        E 0 90 56 60
        E 0 90 62 60
        E 0 90 66 60
        E 80 80 3d 00
        E 0 80 4a 00
        E 0 80 56 00
        E 0 80 62 00
        E 0 80 66 00
        E 80 90 61 60
        E 0 90 66 60
        E 80 80 61 00
        E 0 80 66 00
        E 80 90 61 60
        E 80 80 61 00
        E 80 90 49 60
        E 0 90 55 60
        E 0 90 61 60
        E 80 80 49 00
        E 0 80 55 00
        E 0 80 61 00
        E 80 90 61 60
        E 80 80 61 00
        E 80 90 61 60
        E 80 80 61 00
        E 80 90 3f 60
        E 0 90 4a 60
        E 0 90 4b 60
        E 0 90 55 60
        E 0 90 58 60
        E 0 90 61 60
        E 0 90 62 60
        E 0 90 64 60
        E 80 80 3f 00
        E 0 80 4a 00
        E 0 80 4b 00
        E 0 80 55 00
        E 0 80 58 00
        E 0 80 61 00
        E 0 80 62 00
        E 0 80 64 00
        E 80 90 61 60
        E 0 90 62 60
        E 0 90 64 60
        E 80 80 61 00
        E 0 80 62 00
        E 0 80 64 00
        E 80 90 61 60
        E 0 90 62 60
        E 0 90 64 60
        E 80 80 61 00
        E 0 80 62 00
        E 0 80 64 00
        E 80 90 4a 60
        E 0 90 4b 60
        E 0 90 55 60
        E 0 90 58 60
        E 0 90 61 60
        E 0 90 62 60
        E 0 90 64 60
        E 80 80 4a 00
        E 0 80 4b 00
        E 0 80 55 00
        E 0 80 58 00
        E 0 80 61 00
        E 0 80 62 00
        E 0 80 64 00
        E 80 90 61 60
        E 0 90 62 60
        E 0 90 64 60
        E 80 80 61 00
        E 0 80 62 00
        E 0 80 64 00
        E 80 90 61 60
        E 0 90 62 60
        E 0 90 64 60
        E 80 80 61 00
        E 0 80 62 00
        E 0 80 64 00
        E 80 90 3d 60
        E 0 90 4a 60
        E 0 90 56 60
        E 0 90 62 60
        E 0 90 66 60
        E 80 80 3d 00
        E 0 80 4a 00
        E 0 80 56 00
        E 0 80 62 00
        E 0 80 66 00
        E 80 90 61 60
        E 0 90 66 60
        E 80 80 61 00
        E 0 80 66 00
        E 80 90 61 60
        E 80 80 61 00
        E 80 90 49 60
        E 0 90 55 60
        E 0 90 61 60
        E 80 80 49 00
        E 0 80 55 00
        E 0 80 61 00
        E 80 90 61 60
        E 80 80 61 00
        E 80 90 61 60
        E 80 80 61 00
        E 80 90 3f 60
        E 0 90 4a 60
        E 0 90 4b 60
        E 0 90 55 60
        E 0 90 58 60
        E 0 90 61 60
        E 0 90 62 60
        E 0 90 64 60
        E 80 80 3f 00
        E 0 80 4a 00
        E 0 80 4b 00
        E 0 80 55 00
        E 0 80 58 00
        E 0 80 61 00
        E 0 80 62 00
        E 0 80 64 00
        E 80 90 61 60
        E 0 90 62 60
        E 0 90 64 60
        E 80 80 61 00
        E 0 80 62 00
        E 0 80 64 00
        E 80 90 61 60
        E 0 90 62 60
        E 0 90 64 60
        E 80 80 61 00
        E 0 80 62 00
        E 0 80 64 00
        E 80 90 4a 60
        E 0 90 4b 60
        E 0 90 55 60
        E 0 90 58 60
        E 0 90 61 60
        E 0 90 62 60
        E 0 90 64 60
        E 80 80 4a 00
        E 0 80 4b 00
        E 0 80 55 00
        E 0 80 58 00
        E 0 80 61 00
        E 0 80 62 00
        E 0 80 64 00
        E 80 90 61 60
        E 0 90 62 60
        E 0 90 64 60
        E 80 80 61 00
        E 0 80 62 00
        E 0 80 64 00
        E 80 90 61 60
        E 0 90 62 60
        E 0 90 64 60
        E 80 80 61 00
        E 0 80 62 00
        E 0 80 64 00
        E 80 90 3d 60
        E 0 90 49 60
        E 0 90 55 60
        E 0 90 61 60
        E 80 80 3d 00
        E 0 80 49 00
        E 0 80 55 00
        E 0 80 61 00
        E 80 90 60 60
        E 0 90 66 60
        E 80 80 60 00
        E 0 80 66 00
        E 80 90 60 60
        E 80 80 60 00
        E 80 90 48 60
        E 0 90 54 60
        E 0 90 60 60
        E 80 80 48 00
        E 0 80 54 00
        E 0 80 60 00
        E 80 90 60 60
        E 80 80 60 00
        E 80 90 60 60
        E 80 80 60 00
        E 80 90 3f 60
        E 0 90 4a 60
        E 0 90 4b 60
        E 0 90 56 60
        E 0 90 58 60
        E 0 90 61 60
        E 0 90 63 60
        E 0 90 64 60
        E 80 80 3f 00
        E 0 80 4a 00
        E 0 80 4b 00
        E 0 80 56 00
        E 0 80 58 00
        E 0 80 61 00
        E 0 80 63 00
        E 0 80 64 00
        E 80 90 61 60
        E 0 90 63 60
        E 0 90 64 60
        E 0 90 66 60
        E 80 80 61 00
        E 0 80 63 00
        E 0 80 64 00
        E 0 80 66 00
        E 80 90 61 60
        E 0 90 63 60
        E 0 90 64 60
        E 80 80 61 00
        E 0 80 63 00
        E 0 80 64 00
        E 80 90 3f 60
        E 0 90 4a 60
        E 0 90 4b 60
        E 0 90 56 60
        E 0 90 58 60
        E 0 90 61 60
        E 0 90 63 60
        E 0 90 64 60
        E 80 80 3f 00
        E 0 80 4a 00
        E 0 80 4b 00
        E 0 80 56 00
        E 0 80 58 00
        E 0 80 61 00
        E 0 80 63 00
        E 0 80 64 00
        E 80 90 61 60
        E 0 90 63 60
        E 0 90 64 60
        E 80 80 61 00
        E 0 80 63 00
        E 0 80 64 00
        E 80 90 61 60
        E 0 90 63 60
        E 0 90 64 60
        E 80 80 61 00
        E 0 80 63 00
        E 0 80 64 00
        E 80 90 3f 60
        E 0 90 4a 60
        E 0 90 4b 60
        E 0 90 56 60
        E 0 90 58 60
        E 0 90 61 60
        E 0 90 63 60
        E 0 90 64 60
        E 80 80 3f 00
        E 0 80 4a 00
        E 0 80 4b 00
        E 0 80 56 00
        E 0 80 58 00
        E 0 80 61 00
        E 0 80 63 00
        E 0 80 64 00
        E 80 90 60 60
        E 0 90 66 60
        E 80 80 60 00
        E 0 80 66 00
        E 80 90 60 60
        E 80 80 60 00
        E 80 90 48 60
        E 0 90 54 60
        E 0 90 60 60
        E 80 80 48 00
        E 0 80 54 00
        E 0 80 60 00
        E 80 90 60 60
        E 80 80 60 00
        E 80 90 60 60
        E 80 80 60 00
        E 80 90 3f 60
        E 0 90 4a 60
        E 0 90 4b 60
        E 0 90 56 60
        E 0 90 58 60
        E 0 90 61 60
        E 0 90 63 60
        E 0 90 64 60
        E 80 80 3f 00
        E 0 80 4a 00
        E 0 80 4b 00
        E 0 80 56 00
        E 0 80 58 00
        E 0 80 61 00
        E 0 80 63 00
        E 0 80 64 00
        E 80 90 61 60
        E 0 90 63 60
        E 0 90 64 60
        E 80 80 61 00
        E 0 80 63 00
        E 0 80 64 00
        E 80 90 61 60
        E 0 90 63 60
        E 0 90 64 60
        E 80 80 61 00
        E 0 80 63 00
        E 0 80 64 00
        E 80 90 4a 60
        E 0 90 4b 60
        E 0 90 56 60
        E 0 90 58 60
        E 0 90 61 60
        E 0 90 63 60
        E 0 90 64 60
        E 80 80 4a 00
        E 0 80 4b 00
        E 0 80 56 00
        E 0 80 58 00
        E 0 80 61 00
        E 0 80 63 00
        E 0 80 64 00
        E 80 90 61 60
        E 0 90 63 60
        E 0 90 64 60
        E 80 80 61 00
        E 0 80 63 00
        E 0 80 64 00
        E 80 90 61 60
        E 0 90 63 60
        E 0 90 64 60
        E 80 80 61 00
        E 0 80 63 00
        E 0 80 64 00
        E 80 90 3e 60
        E 0 90 4b 60
        E 0 90 57 60
        E 0 90 63 60
        E 80 80 3e 00
        E 0 80 4b 00
        E 0 80 57 00
        E 0 80 63 00
        E 80 90 62 60
        E 0 90 66 60
        E 80 80 62 00
        E 0 80 66 00
        E 80 90 62 60
        E 80 80 62 00
        E 80 90 4a 60
        E 0 90 56 60
        E 0 90 62 60
        E 80 80 4a 00
        E 0 80 56 00
        E 0 80 62 00
        E 80 90 62 60
        E 80 80 62 00
        E 80 90 62 60
        E 80 80 62 00
        E 80 90 40 60
        E 0 90 4b 60
        E 0 90 4c 60
        E 0 90 57 60
        E 0 90 58 60
        E 0 90 62 60
        E 0 90 63 60
        E 0 90 64 60
        E 80 80 40 00
        E 0 80 4b 00
        E 0 80 4c 00
        E 0 80 57 00
        E 0 80 58 00
        E 0 80 62 00
        E 0 80 63 00
        E 0 80 64 00
        E 80 90 62 60
        E 0 90 63 60
        E 0 90 64 60
        E 80 80 62 00
        E 0 80 63 00
        E 0 80 64 00
        E 80 90 62 60
        E 0 90 63 60
        E 0 90 64 60
        E 80 80 62 00
        E 0 80 63 00
        E 0 80 64 00
        E 80 90 40 60
        E 0 90 4b 60
        E 0 90 4c 60
        E 0 90 57 60
        E 0 90 58 60
        E 0 90 62 60
        E 0 90 63 60
        E 0 90 64 60
        E 80 80 40 00
        E 0 80 4b 00
        E 0 80 4c 00
        E 0 80 57 00
        E 0 80 58 00
        E 0 80 62 00
        E 0 80 63 00
        E 0 80 64 00
        E 80 90 62 60
        E 0 90 63 60
        E 0 90 64 60
        E 80 80 62 00
        E 0 80 63 00
        E 0 80 64 00
        E 80 90 62 60
        E 0 90 63 60
        E 0 90 64 60
        E 80 80 62 00
        E 0 80 63 00
        E 0 80 64 00
        E 80 90 40 60
        E 0 90 4b 60
        E 0 90 4c 60
        E 0 90 57 60
        E 0 90 58 60
        E 0 90 62 60
        E 0 90 63 60
        E 0 90 64 60
        E 80 80 40 00
        E 0 80 4b 00
        E 0 80 4c 00
        E 0 80 57 00
        E 0 80 58 00
        E 0 80 62 00
        E 0 80 63 00
        E 0 80 64 00
        E 80 90 62 60
        E 80 80 62 00
        E 80 90 62 60
        E 80 80 62 00
        E 80 90 4a 60
        E 0 90 56 60
        E 0 90 62 60
        E 80 80 4a 00
        E 0 80 56 00
        E 0 80 62 00
        E 80 90 62 60
        E 80 80 62 00
        E 80 90 62 60
        E 80 80 62 00
        E 80 90 40 60
        E 0 90 4b 60
        E 0 90 4c 60
        E 0 90 57 60
        E 0 90 58 60
        E 0 90 62 60
        E 0 90 63 60
        E 0 90 64 60
        E 80 80 40 00
        E 0 80 4b 00
        E 0 80 4c 00
        E 0 80 57 00
        E 0 80 58 00
        E 0 80 62 00
        E 0 80 63 00
        E 0 80 64 00
        E 80 90 62 60
        E 0 90 63 60
        E 0 90 64 60
        E 80 80 62 00
        E 0 80 63 00
        E 0 80 64 00
        E 80 90 62 60
        E 0 90 63 60
        E 0 90 64 60
        E 80 80 62 00
        E 0 80 63 00
        E 0 80 64 00
        E 80 90 4b 60
        E 0 90 4c 60
        E 0 90 57 60
        E 0 90 58 60
        E 0 90 62 60
        E 0 90 63 60
        E 0 90 64 60
        E 80 80 4b 00
        E 0 80 4c 00
        E 0 80 57 00
        E 0 80 58 00
        E 0 80 62 00
        E 0 80 63 00
        E 0 80 64 00
        E 80 90 63 60
        E 80 80 63 00
        E 80 90 62 60
        E 80 80 62 00
        E 80 90 3d 60
        E 0 90 49 60
        E 0 90 55 60
        E 0 90 61 60
        E 80 80 3d 00
        E 0 80 49 00
        E 0 80 55 00
        E 0 80 61 00
        E 80 90 60 60
        E 0 90 66 60
        E 80 80 60 00
        E 0 80 66 00
        E 80 90 60 60
        E 80 80 60 00
        E 80 90 48 60
        E 0 90 54 60
        E 0 90 60 60
        E 80 80 48 00
        E 0 80 54 00
        E 0 80 60 00
        E 80 90 60 60
        E 80 80 60 00
        E 80 90 60 60
        E 80 80 60 00
        E 80 90 3c 60
        E 0 90 48 60
        E 0 90 4a 60
        E 0 90 54 60
        E 0 90 57 60
        E 0 90 60 60
        E 0 90 62 60
        E 0 90 63 60
        E 80 80 3c 00
        E 0 80 48 00
        E 0 80 4a 00
        E 0 80 54 00
        E 0 80 57 00
        E 0 80 60 00
        E 0 80 62 00
        E 0 80 63 00
        E 80 90 60 60
        E 0 90 62 60
        E 0 90 63 60
        E 80 80 60 00
        E 0 80 62 00
        E 0 80 63 00
        E 80 90 60 60
        E 0 90 62 60
        E 0 90 63 60
        E 80 80 60 00
        E 0 80 62 00
        E 0 80 63 00
        E 80 90 3c 60
        E 0 90 48 60
        E 0 90 4a 60
        E 0 90 54 60
        E 0 90 57 60
        E 0 90 60 60
        E 0 90 62 60
        E 0 90 63 60
        E 80 80 3c 00
        E 0 80 48 00
        E 0 80 4a 00
        E 0 80 54 00
        E 0 80 57 00
        E 0 80 60 00
        E 0 80 62 00
        E 0 80 63 00
        E 80 90 60 60
        E 0 90 62 60
        E 0 90 63 60
        E 80 80 60 00
        E 0 80 62 00
        E 0 80 63 00
        E 80 90 60 60
        E 0 90 62 60
        E 0 90 63 60
        E 80 80 60 00
        E 0 80 62 00
        E 0 80 63 00
        E 80 90 3c 60
        E 0 90 48 60
        E 0 90 4a 60
        E 0 90 54 60
        E 0 90 57 60
        E 0 90 60 60
        E 0 90 62 60
        E 0 90 63 60
        E 80 80 3c 00
        E 0 80 48 00
        E 0 80 4a 00
        E 0 80 54 00
        E 0 80 57 00
        E 0 80 60 00
        E 0 80 62 00
        E 0 80 63 00
        E 80 90 60 60
        E 0 90 66 60
        E 80 80 60 00
        E 0 80 66 00
        E 80 90 60 60
        E 80 80 60 00
        E 80 90 3c 60
        E 0 90 48 60
        E 0 90 54 60
        E 0 90 60 60
        E 80 80 3c 00
        E 0 80 48 00
        E 0 80 54 00
        E 0 80 60 00
        E 80 90 60 60
        E 80 80 60 00
        E 80 90 60 60
        E 80 80 60 00
        E 80 90 3c 60
        E 0 90 48 60
        E 0 90 49 60
        E 0 90 54 60
        E 0 90 56 60
        E 0 90 60 60
        E 0 90 61 60
        E 0 90 63 60
        E 80 80 3c 00
        E 0 80 48 00
        E 0 80 49 00
        E 0 80 54 00
        E 0 80 56 00
        E 0 80 60 00
        E 0 80 61 00
        E 0 80 63 00
        E 80 90 60 60
        E 0 90 61 60
        E 0 90 63 60
        E 80 80 60 00
        E 0 80 61 00
        E 0 80 63 00
        E 80 90 60 60
        E 0 90 61 60
        E 0 90 63 60
        E 80 80 60 00
        E 0 80 61 00
        E 0 80 63 00
        E 80 90 48 60
        E 0 90 49 60
        E 0 90 54 60
        E 0 90 56 60
        E 0 90 60 60
        E 0 90 61 60
        E 0 90 63 60
        E 80 80 48 00
        E 0 80 49 00
        E 0 80 54 00
        E 0 80 56 00
        E 0 80 60 00
        E 0 80 61 00
        E 0 80 63 00
        E 80 90 60 60
        E 0 90 61 60
        E 0 90 63 60
        E 80 80 60 00
        E 0 80 61 00
        E 0 80 63 00
        E 80 90 60 60
        E 0 90 61 60
        E 0 90 63 60
        E 80 80 60 00
        E 0 80 61 00
        E 0 80 63 00
        E 80 90 3d 60
        E 0 90 4a 60
        E 0 90 56 60
        E 0 90 62 60
        E 0 90 66 60
        E 80 80 3d 00
        E 0 80 4a 00
        E 0 80 56 00
        E 0 80 62 00
        E 0 80 66 00
        E 80 90 61 60
        E 0 90 66 60
        E 80 80 61 00
        E 0 80 66 00
        E 80 90 61 60
        E 80 80 61 00
        E 80 90 49 60
        E 0 90 55 60
        E 0 90 61 60
        E 80 80 49 00
        E 0 80 55 00
        E 0 80 61 00
        E 80 90 61 60
        E 80 80 61 00
        E 80 90 61 60
        E 80 80 61 00
        E 80 90 3f 60
        E 0 90 4a 60
        E 0 90 4b 60
        E 0 90 55 60
        E 0 90 58 60
        E 0 90 61 60
        E 0 90 62 60
        E 0 90 64 60
        E 80 80 3f 00
        E 0 80 4a 00
        E 0 80 4b 00
        E 0 80 55 00
        E 0 80 58 00
        E 0 80 61 00
        E 0 80 62 00
        E 0 80 64 00
        E 80 90 61 60
        E 0 90 62 60
        E 0 90 64 60
        E 80 80 61 00
        E 0 80 62 00
        E 0 80 64 00
        E 80 90 61 60
        E 0 90 62 60
        E 0 90 64 60
        E 80 80 61 00
        E 0 80 62 00
        E 0 80 64 00
        E 80 90 4a 60
        E 0 90 4b 60
        E 0 90 55 60
        E 0 90 58 60
        E 0 90 61 60
        E 0 90 62 60
        E 0 90 64 60
        E 80 80 4a 00
        E 0 80 4b 00
        E 0 80 55 00
        E 0 80 58 00
        E 0 80 61 00
        E 0 80 62 00
        E 0 80 64 00
        E 80 90 61 60
        E 0 90 62 60
        E 0 90 64 60
        E 80 80 61 00
        E 0 80 62 00
        E 0 80 64 00
        E 80 90 61 60
        E 0 90 62 60
        E 0 90 64 60
        E 80 80 61 00
        E 0 80 62 00
        E 0 80 64 00
        E 80 90 3d 60
        E 0 90 4a 60
        E 0 90 56 60
        E 0 90 62 60
        E 0 90 66 60
        E 80 80 3d 00
        E 0 80 4a 00
        E 0 80 56 00
        E 0 80 62 00
        E 0 80 66 00
        E 80 90 61 60
        E 0 90 66 60
        E 80 80 61 00
        E 0 80 66 00
        E 80 90 61 60
        E 80 80 61 00
        E 80 90 49 60
        E 0 90 55 60
        E 0 90 61 60
        E 80 80 49 00
        E 0 80 55 00
        E 0 80 61 00
        E 80 90 61 60
        E 80 80 61 00
        E 80 90 61 60
        E 80 80 61 00
        E 80 90 3f 60
        E 0 90 4a 60
        E 0 90 4b 60
        E 0 90 55 60
        E 0 90 58 60
        E 0 90 61 60
        E 0 90 62 60
        E 0 90 64 60
        E 80 80 3f 00
        E 0 80 4a 00
        E 0 80 4b 00
        E 0 80 55 00
        E 0 80 58 00
        E 0 80 61 00
        E 0 80 62 00
        E 0 80 64 00
        E 80 90 61 60
        E 0 90 62 60
        E 0 90 64 60
        E 80 80 61 00
        E 0 80 62 00
        E 0 80 64 00
        E 80 90 61 60
        E 0 90 62 60
        E 0 90 64 60
        E 80 80 61 00
        E 0 80 62 00
        E 0 80 64 00
        E 80 90 4a 60
        E 0 90 4b 60
        E 0 90 55 60
        E 0 90 58 60
        E 0 90 61 60
        E 0 90 62 60
        E 0 90 64 60
        E 80 80 4a 00
        E 0 80 4b 00
        E 0 80 55 00
        E 0 80 58 00
        E 0 80 61 00
        E 0 80 62 00
        E 0 80 64 00
        E 80 90 61 60
        E 0 90 62 60
        E 0 90 64 60
        E 80 80 61 00
        E 0 80 62 00
        E 0 80 64 00
        E 80 90 61 60
        E 0 90 62 60
        E 0 90 64 60
        E 80 80 61 00
        E 0 80 62 00
        E 0 80 64 00
        E 80 90 3d 60
        E 0 90 49 60
        E 0 90 55 60
        E 0 90 61 60
        E 80 80 3d 00
        E 0 80 49 00
        E 0 80 55 00
        E 0 80 61 00
        E 80 90 60 60
        E 0 90 66 60
        E 80 80 60 00
        E 0 80 66 00
        E 80 90 60 60
        E 80 80 60 00
        E 80 90 48 60
        E 0 90 54 60
        E 0 90 60 60
        E 80 80 48 00
        E 0 80 54 00
        E 0 80 60 00
        E 80 90 60 60
        E 80 80 60 00
        E 80 90 60 60
        E 80 80 60 00
        E 80 90 3f 60
        E 0 90 4a 60
        E 0 90 4b 60
        E 0 90 56 60
        E 0 90 58 60
        E 0 90 61 60
        E 0 90 63 60
        E 0 90 64 60
        E 80 80 3f 00
        E 0 80 4a 00
        E 0 80 4b 00
        E 0 80 56 00
        E 0 80 58 00
        E 0 80 61 00
        E 0 80 63 00
        E 0 80 64 00
        E 80 90 61 60
        E 0 90 63 60
        E 0 90 64 60
        E 0 90 66 60
        E 80 80 61 00
        E 0 80 63 00
        E 0 80 64 00
        E 0 80 66 00
        E 80 90 61 60
        E 0 90 63 60
        E 0 90 64 60
        E 80 80 61 00
        E 0 80 63 00
        E 0 80 64 00
        E 80 90 3f 60
        E 0 90 4a 60
        E 0 90 4b 60
        E 0 90 56 60
        E 0 90 58 60
        E 0 90 61 60
        E 0 90 63 60
        E 0 90 64 60
        E 80 80 3f 00
        E 0 80 4a 00
        E 0 80 4b 00
        E 0 80 56 00
        E 0 80 58 00
        E 0 80 61 00
        E 0 80 63 00
        E 0 80 64 00
        E 80 90 61 60
        E 0 90 63 60
        E 0 90 64 60
        E 80 80 61 00
        E 0 80 63 00
        E 0 80 64 00
        E 80 90 61 60
        E 0 90 63 60
        E 0 90 64 60
        E 80 80 61 00
        E 0 80 63 00
        E 0 80 64 00
        E 80 90 3f 60
        E 0 90 4a 60
        E 0 90 4b 60
        E 0 90 56 60
        E 0 90 58 60
        E 0 90 61 60
        E 0 90 63 60
        E 0 90 64 60
        E 80 80 3f 00
        E 0 80 4a 00
        E 0 80 4b 00
        E 0 80 56 00
        E 0 80 58 00
        E 0 80 61 00
        E 0 80 63 00
        E 0 80 64 00
        E 80 90 60 60
        E 0 90 66 60
        E 80 80 60 00
        E 0 80 66 00
        E 80 90 60 60
        E 80 80 60 00
        E 80 90 48 60
        E 0 90 54 60
        E 0 90 60 60
        E 80 80 48 00
        E 0 80 54 00
        E 0 80 60 00
        E 80 90 60 60
        E 80 80 60 00
        E 80 90 60 60
        E 80 80 60 00
        E 80 90 3f 60
        E 0 90 4a 60
        E 0 90 4b 60
        E 0 90 56 60
        E 0 90 58 60
        E 0 90 61 60
        E 0 90 63 60
        E 0 90 64 60
        E 80 80 3f 00
        E 0 80 4a 00
        E 0 80 4b 00
        E 0 80 56 00
        E 0 80 58 00
        E 0 80 61 00
        E 0 80 63 00
        E 0 80 64 00
        E 80 90 61 60
        E 0 90 63 60
        E 0 90 64 60
        E 80 80 61 00
        E 0 80 63 00
        E 0 80 64 00
        E 80 90 61 60
        E 0 90 63 60
        E 0 90 64 60
        E 80 80 61 00
        E 0 80 63 00
        E 0 80 64 00
        E 80 90 4a 60
        E 0 90 4b 60
        E 0 90 56 60
        E 0 90 58 60
        E 0 90 61 60
        E 0 90 63 60
        E 0 90 64 60
        E 80 80 4a 00
        E 0 80 4b 00
        E 0 80 56 00
        E 0 80 58 00
        E 0 80 61 00
        E 0 80 63 00
        E 0 80 64 00
        E 80 90 61 60
        E 0 90 63 60
        E 0 90 64 60
        E 80 80 61 00
        E 0 80 63 00
        E 0 80 64 00
        E 80 90 61 60
        E 0 90 63 60
        E 0 90 64 60
        E 80 80 61 00
        E 0 80 63 00
        E 0 80 64 00
        E 80 90 3e 60
        E 0 90 4b 60
        E 0 90 57 60
        E 0 90 63 60
        E 80 80 3e 00
        E 0 80 4b 00
        E 0 80 57 00
        E 0 80 63 00
        E 80 90 62 60
        E 0 90 66 60
        E 80 80 62 00
        E 0 80 66 00
        E 80 90 62 60
        E 80 80 62 00
        E 80 90 4a 60
        E 0 90 56 60
        E 0 90 62 60
        E 80 80 4a 00
        E 0 80 56 00
        E 0 80 62 00
        E 80 90 62 60
        E 80 80 62 00
        E 80 90 62 60
        E 80 80 62 00
        E 80 90 40 60
        E 0 90 4b 60
        E 0 90 4c 60
        E 0 90 57 60
        E 0 90 58 60
        E 0 90 62 60
        E 0 90 63 60
        E 0 90 64 60
        E 80 80 40 00
        E 0 80 4b 00
        E 0 80 4c 00
        E 0 80 57 00
        E 0 80 58 00
        E 0 80 62 00
        E 0 80 63 00
        E 0 80 64 00
        E 80 90 62 60
        E 0 90 63 60
        E 0 90 64 60
        E 80 80 62 00
        E 0 80 63 00
        E 0 80 64 00
        E 80 90 62 60
        E 0 90 63 60
        E 0 90 64 60
        E 80 80 62 00
        E 0 80 63 00
        E 0 80 64 00
        E 80 90 40 60
        E 0 90 4b 60
        E 0 90 4c 60
        E 0 90 57 60
        E 0 90 58 60
        E 0 90 62 60
        E 0 90 63 60
        E 0 90 64 60
        E 80 80 40 00
        E 0 80 4b 00
        E 0 80 4c 00
        E 0 80 57 00
        E 0 80 58 00
        E 0 80 62 00
        E 0 80 63 00
        E 0 80 64 00
        E 80 90 62 60
        E 0 90 63 60
        E 0 90 64 60
        E 80 80 62 00
        E 0 80 63 00
        E 0 80 64 00
        E 80 90 62 60
        E 0 90 63 60
        E 0 90 64 60
        E 80 80 62 00
        E 0 80 63 00
        E 0 80 64 00
        E 80 90 40 60
        E 0 90 4b 60
        E 0 90 4c 60
        E 0 90 57 60
        E 0 90 58 60
        E 0 90 62 60
        E 0 90 63 60
        E 0 90 64 60
        E 80 80 40 00
        E 0 80 4b 00
        E 0 80 4c 00
        E 0 80 57 00
        E 0 80 58 00
        E 0 80 62 00
        E 0 80 63 00
        E 0 80 64 00
        E 80 90 62 60
        E 80 80 62 00
        E 80 90 62 60
        E 80 80 62 00
        E 80 90 4a 60
        E 0 90 56 60
        E 0 90 62 60
        E 80 80 4a 00
        E 0 80 56 00
        E 0 80 62 00
        E 80 90 62 60
        E 80 80 62 00
        E 80 90 62 60
        E 80 80 62 00
        E 80 90 40 60
        E 0 90 4b 60
        E 0 90 4c 60
        E 0 90 57 60
        E 0 90 58 60
        E 0 90 62 60
        E 0 90 63 60
        E 0 90 64 60
        E 80 80 40 00
        E 0 80 4b 00
        E 0 80 4c 00
        E 0 80 57 00
        E 0 80 58 00
        E 0 80 62 00
        E 0 80 63 00
        E 0 80 64 00
        E 80 90 62 60
        E 0 90 63 60
        E 0 90 64 60
        E 80 80 62 00
        E 0 80 63 00
        E 0 80 64 00
        E 80 90 62 60
        E 0 90 63 60
        E 0 90 64 60
        E 80 80 62 00
        E 0 80 63 00
        E 0 80 64 00
        E 80 90 4b 60
        E 0 90 4c 60
        E 0 90 57 60
        E 0 90 58 60
        E 0 90 62 60
        E 0 90 63 60
        E 0 90 64 60
        E 80 80 4b 00
        E 0 80 4c 00
        E 0 80 57 00
        E 0 80 58 00
        E 0 80 62 00
        E 0 80 63 00
        E 0 80 64 00
        E 80 90 62 60
        E 0 90 63 60
        E 0 90 64 60
        E 80 80 62 00
        E 0 80 63 00
        E 0 80 64 00
        E 80 90 62 60
        E 80 80 62 00
        E 80 90 3d 60
        E 0 90 49 60
        E 0 90 55 60
        E 0 90 61 60
        E 0 90 66 60
        E 80 80 3d 00
        E 0 80 49 00
        E 0 80 55 00
        E 0 80 61 00
        E 0 80 66 00
        E 160 90 54 60
        E 0 90 60 60
        E 600 80 54 00
        E 0 80 60 00
        E 120 90 3c 60
        E 0 90 48 60
        E 0 90 49 60
        E 0 90 54 60
        E 0 90 56 60
        E 0 90 60 60
        E 0 90 61 60
        E 0 90 63 60
        E 480 80 3c 00
        E 0 80 48 00
        E 0 80 49 00
        E 360 80 54 00
        E 0 80 56 00
        E 0 80 60 00
        E 0 80 61 00
        E 0 80 63 00
        E 120 90 3d 60
        E 0 90 49 60
        E 0 90 4a 60
        E 0 90 55 60
        E 0 90 57 60
        E 0 90 61 60
        E 0 90 63 60
        E 60 80 3d 00
        E 0 80 49 00
        E 0 80 4a 00
        E 0 80 55 00
        E 0 80 57 00
        E 0 80 61 00
        E 0 80 63 00
        E 180 90 56 60
        E 0 90 57 60
        E 0 90 62 60
        E 0 90 63 60
        E 600 80 56 00
        E 0 80 57 00
        E 0 80 62 00
        E 0 80 63 00
        E 120 90 3c 60
        E 0 90 48 60
        E 0 90 4a 60
        E 0 90 54 60
        E 0 90 57 60
        E 0 90 60 60
        E 0 90 62 60
        E 0 90 63 60
        E 480 80 3c 00
        E 0 80 48 00
        E 0 80 4a 00
        E 360 80 54 00
        E 0 80 57 00
        E 0 80 60 00
        E 0 80 62 00
        E 0 80 63 00
        E 120 90 3d 60
        E 0 90 4a 60
        E 0 90 56 60
        E 0 90 62 60
        E 60 80 3d 00
        E 0 80 4a 00
        E 0 80 56 00
        E 0 80 62 00
        E 180 90 55 60
        E 0 90 61 60
        E 600 80 55 00
        E 0 80 61 00
        E 120 90 3f 60
        E 0 90 4a 60
        E 0 90 4b 60
        E 0 90 55 60
        E 0 90 58 60
        E 0 90 61 60
        E 0 90 62 60
        E 0 90 64 60
        E 480 80 3f 00
        E 0 80 4a 00
        E 0 80 4b 00
        E 360 80 55 00
        E 0 80 58 00
        E 0 80 61 00
        E 0 80 62 00
        E 0 80 64 00
        E 120 90 3d 60
        E 0 90 4a 60
        E 0 90 56 60
        E 0 90 62 60
        E 60 80 3d 00
        E 0 80 4a 00
        E 0 80 56 00
        E 0 80 62 00
        E 180 90 55 60
        E 0 90 61 60
        E 600 80 55 00
        E 0 80 61 00
        E 120 90 3f 60
        E 0 90 4a 60
        E 0 90 4b 60
        E 0 90 55 60
        E 0 90 58 60
        E 0 90 61 60
        E 0 90 62 60
        E 0 90 64 60
        E 480 80 3f 00
        E 0 80 4a 00
        E 0 80 4b 00
        E 360 80 55 00
        E 0 80 58 00
        E 0 80 61 00
        E 0 80 62 00
        E 0 80 64 00
        E 120 90 3e 60
        E 0 90 4b 60
        E 0 90 57 60
        E 0 90 63 60
        E 60 80 3e 00
        E 0 80 4b 00
        E 0 80 57 00
        E 0 80 63 00
        E 180 90 55 60
        E 0 90 61 60
        E 600 80 55 00
        E 0 80 61 00
        E 120 90 3f 60
        E 0 90 4a 60
        E 0 90 4b 60
        E 0 90 56 60
        E 0 90 58 60
        E 0 90 61 60
        E 0 90 63 60
        E 0 90 64 60
        E 480 80 3f 00
        E 0 80 4a 00
        E 0 80 4b 00
        E 360 80 56 00
        E 0 80 58 00
        E 0 80 61 00
        E 0 80 63 00
        E 0 80 64 00
        E 120 90 3e 60
        E 0 90 4b 60
        E 0 90 57 60
        E 0 90 63 60
        E 60 80 3e 00
        E 0 80 4b 00
        E 0 80 57 00
        E 0 80 63 00
        E 180 90 55 60
        E 0 90 61 60
        E 600 80 55 00
        E 0 80 61 00
        E 120 90 3f 60
        E 0 90 4a 60
        E 0 90 4b 60
        E 0 90 56 60
        E 0 90 58 60
        E 0 90 61 60
        E 0 90 63 60
        E 0 90 64 60
        E 480 80 3f 00
        E 0 80 4a 00
        E 0 80 4b 00
        E 360 80 56 00
        E 0 80 58 00
        E 0 80 61 00
        E 0 80 63 00
        E 0 80 64 00
        E 120 90 3e 60
        E 0 90 4b 60
        E 0 90 57 60
        E 0 90 63 60
        E 60 80 3e 00
        E 0 80 4b 00
        E 0 80 57 00
        E 0 80 63 00
        E 180 90 56 60
        E 0 90 62 60
        E 600 80 56 00
        E 0 80 62 00
        E 120 90 40 60
        E 0 90 4b 60
        E 0 90 4c 60
        E 0 90 57 60
        E 0 90 58 60
        E 0 90 62 60
        E 0 90 63 60
        E 0 90 64 60
        E 480 80 40 00
        E 0 80 4b 00
        E 0 80 4c 00
        E 360 80 57 00
        E 0 80 58 00
        E 0 80 62 00
        E 0 80 63 00
        E 0 80 64 00
        E 120 90 3e 60
        E 0 90 4b 60
        E 0 90 57 60
        E 0 90 63 60
        E 60 80 3e 00
        E 0 80 4b 00
        E 0 80 57 00
        E 0 80 63 00
        E 180 90 56 60
        E 0 90 62 60
        E 600 80 56 00
        E 0 80 62 00
        E 120 90 40 60
        E 0 90 4b 60
        E 0 90 4c 60
        E 0 90 57 60
        E 0 90 58 60
        E 0 90 62 60
        E 0 90 63 60
        E 0 90 64 60
        E 480 80 40 00
        E 0 80 4b 00
        E 0 80 4c 00
        E 360 80 57 00
        E 0 80 58 00
        E 0 80 62 00
        E 0 80 63 00
        E 0 80 64 00
        E 120 90 3d 60
        E 0 90 49 60
        E 0 90 4a 60
        E 0 90 55 60
        E 0 90 57 60
        E 0 90 61 60
        E 0 90 63 60
        E 60 80 3d 00
        E 0 80 49 00
        E 0 80 4a 00
        E 0 80 55 00
        E 0 80 57 00
        E 0 80 61 00
        E 0 80 63 00
        E 240 90 54 60
        E 0 90 60 60
        E 540 80 54 00
        E 60 80 60 00
        e 60 90 60 60
        E 0 90 3d 60
        E 0 90 49 60
        E 0 90 55 60
        e 80 80 60 00
        E 0 90 61 60
        E 80 80 61 00
        E 0 90 60 60
        E 0 90 61 60
        E 0 90 63 60
        E 11360 80 3d 00
        E 0 80 49 00
        E 0 80 55 00
        E 0 80 60 00
        E 0 80 61 00
        E 0 80 63 00
        <X 480 0
          /wFbaWRsZV9yZWFsdGltZV0=
        >
        E 7200 b0 7b 00
        GUID {14D9E950-FB92-4048-8603-8FD02AE3B865}
        IGNTEMPO 0 120.00000000 4 4
        SRCCOLOR 290
        VELLANE 132 38 60
        COLORMAP "C:\Users\AJFOne23\AppData\Roaming\REAPER\Data\color_maps\rockband_guitarbass.png"
        BANKPROGRAMFILE "C:\Users\AJFOne23\AppData\Roaming\REAPER/Data/GM.reabank"
        TEXTSTRINGFILE "Text Events List.txt"
        CFGEDITVIEW 25035.005213 142.379025 10 12 0 0 0
        CFGEDIT 1 1 0 0 0 1 1 1 1 1 1 0.16666667 -8 -8 1370 736 1 2 1 2 0.00000000 0 0 0 0 0.500000 1 0 1.000000 64
        KEYSNAP 0 0 "102034050607" 0 "Major"
        EVTFILTER 0 -1 -1 -1 -1 0 1 0 0 -1.00000000 -1.00000000
      >
    >
  >
  <TRACK '{70C3FE4D-3BC3-4146-95C4-8AC455A2D0F5}'
    NAME "PART BASS"
    PEAKCOL 16777471
    BEAT -1
    AUTOMODE 0
    VOLPAN 1.00000000000000 0.00000000000000 -1.00000000000000 -1.00000000000000 1.00000000000000
    MUTESOLO 0 0 0
    IPHASE 0
    ISBUS 0 0
    BUSCOMP 1 0
    SHOWINMIX 1 0.666700 0.500000 1 0.500000 -1 -1 -1
    FREEMODE 0
    SEL 1
    REC 0 4096 1 0 0 0 0
    TRACKHEIGHT 55 0
    INQ 0 0 0 0.5000000000 100 0 0 100
    NCHAN 2
    FX 1
    TRACKID {70C3FE4D-3BC3-4146-95C4-8AC455A2D0F5}
    PERF 0
    MIDIOUT -1
    <MIDINOTENAMES
      0 96 "EXPERT Green"
      0 97 "EXPERT Red"
      0 98 "EXPERT Yellow"
      0 99 "EXPERT Blue"
      0 100 "EXPERT Orange"
      0 84 "HARD Green"
      0 85 "HARD Red"
      0 86 "HARD Yellow"
      0 87 "HARD Blue"
      0 88 "HARD Orange"
      0 91 "----"
      0 116 "OVERDRIVE"
      0 40 "Left Hand Lowest"
      0 59 "Left Hand Highest"
      0 58 "-"
      0 57 "-"
      0 56 "-"
      0 55 "-"
      0 54 "-"
      0 53 "-"
      0 52 "-"
      0 51 "-"
      0 50 "-"
      0 49 "-"
      0 47 "-"
      0 48 "-"
      0 46 "-"
      0 45 "-"
      0 44 "-"
      0 43 "-"
      0 42 "-"
      0 41 "-"
      0 111 "----"
      0 72 "MEDIUM Green"
      0 73 "MEDIUM Red"
      0 74 "MEDIUM Yellow"
      0 75 "MEDIUM Blue"
      0 76 "MEDIUM Orange"
      0 60 "EASY Green"
      0 61 "EASY Red"
      0 62 "EASY Yellow"
      0 63 "EASY Blue"
      0 64 "EASY Orange"
      0 68 "----"
      0 80 "----"
      0 102 "Force HOPO Off"
      0 101 "Force HOPO On"
      0 120 "BRE (use all 5)"
      0 121 "BRE"
      0 122 "BRE"
      0 123 "BRE"
      0 124 "BRE"
      0 119 "----"
      0 90 "Force HOPO Off"
      0 89 "Force HOPO On"
      0 127 "Trill Marker"
      0 125 "----"
      0 103 "Solo Marker"
    >
    MAINSEND 1 0
    <FXCHAIN
      WNDRECT 0 38 878 585
      SHOW 0
      LASTSEL 1
      DOCKED 0
      BYPASS 1 0
      <VST "VSTi: ReaSynth (Cockos)" "reasynth.dll" 0 ""
        eXNlcu9e7f4AAAAAAgAAAAEAAAAAAAAAAgAAAAAAAAA4AAAAAAAAAA==
        AAAAAO++rd4N8K3eAAAAAAAAAAAAAAAAAAAAADm0SD59y9s+tbSxOQ==
        AAAAALbz/T5VpCs6AAAAAAAAAAAAAAAAAAA=
      >
      FLOATPOS 0 0 0 0
      FXID {D4EC3C58-478E-4D1F-A0FC-2252BD344989}
      WAK 0
      BYPASS 0 0
      <VST "VSTi: RBN Preview (RBN)" "rbprev_vst.dll" 0 ""
        dnBicu5e7f4AAAAAAgAAAAEAAAAAAAAAAgAAAAAAAAAEAAAAAQAAAA==
        AAAAAAMAqgAAAAAAAAA=
      >
      FLOATPOS 32 32 659 497
      FXID {72D22271-4F4F-4081-90C4-66415E7AEC47}
      WAK 0
    >
    <ITEM
      POSITION 0.00000000000000
      SNAPOFFS 0.00000000000000
      LENGTH 249.91602778456021
      LOOP 0
      ALLTAKES 0
      SEL 1
      FADEIN 1 0.000000 0.000000 1 0
      FADEOUT 1 0.000000 0.000000 1 0
      MUTE 0
      IGUID {A1B24BBF-93B7-476C-BC6D-33F5621C633F}
      IID 6
      NAME "PART BASS"
      VOLPAN 1.000000 0.000000 1.000000 -1.000000
      SOFFS 0.00000000000000 0.00000000000000
      PLAYRATE 1.00000000000000 1 0.00000000000000 -65536
      CHANMODE 0
      GUID {344A7487-35C3-41F9-8B1E-12A4F3D7F336}
      <SOURCE MIDI
        HASDATA 1 480 QN
        POOLEDEVTS {F37CA427-C5CA-4021-8AF2-246D162192F3}
        <X 0 0
          /wNQQVJUIEJBU1M=
        >
        <X 3840 0
          /wFbcGxheV0=
        >
        e 1800 90 62 60
        e 120 80 62 00
        e 0 90 3e 60
        e 0 90 4b 60
        e 0 90 57 60
        e 0 90 63 60
        e 120 80 3e 00
        e 0 80 4b 00
        e 0 80 57 00
        e 0 80 63 00
        e 0 90 63 60
        e 120 80 63 00
        e 0 90 4b 60
        e 0 90 58 60
        e 0 90 64 60
        e 120 80 4b 00
        e 0 80 58 00
        e 0 80 64 00
        e 0 90 63 60
        e 120 80 63 00
        e 0 90 4b 60
        e 0 90 57 60
        e 0 90 63 60
        e 120 80 4b 00
        e 0 80 57 00
        e 0 80 63 00
        e 0 90 63 60
        e 120 80 63 00
        e 0 90 56 60
        e 0 90 62 60
        e 120 80 56 00
        e 0 80 62 00
        e 0 90 61 60
        e 120 80 61 00
        e 0 90 3c 60
        e 0 90 48 60
        e 0 90 54 60
        e 0 90 60 60
        e 120 80 3c 00
        e 0 80 48 00
        e 0 80 54 00
        e 0 80 60 00
        e 0 90 61 60
        e 120 80 61 00
        e 0 90 56 60
        e 0 90 62 60
        e 120 80 56 00
        e 0 80 62 00
        e 0 90 64 60
        e 120 80 64 00
        e 0 90 49 60
        e 0 90 55 60
        e 0 90 61 60
        e 120 80 49 00
        e 0 80 55 00
        e 0 80 61 00
        e 0 90 63 60
        e 120 80 63 00
        e 0 90 58 60
        e 0 90 64 60
        e 120 80 58 00
        e 0 80 64 00
        e 0 90 61 60
        e 120 80 61 00
        e 0 90 3e 60
        e 0 90 4b 60
        e 0 90 58 60
        e 0 90 64 60
        e 120 80 3e 00
        e 0 80 4b 00
        e 0 80 58 00
        e 0 80 64 00
        e 0 90 64 60
        e 120 80 64 00
        e 0 90 56 60
        e 0 90 62 60
        e 120 80 56 00
        e 0 80 62 00
        e 0 90 63 60
        e 120 80 63 00
        e 0 90 3e 60
        e 0 90 4b 60
        e 0 90 57 60
        e 0 90 63 60
        e 120 80 3e 00
        e 0 80 4b 00
        e 0 80 57 00
        e 0 80 63 00
        e 0 90 63 60
        e 120 80 63 00
        e 0 90 4b 60
        e 0 90 58 60
        e 0 90 64 60
        e 120 80 4b 00
        e 0 80 58 00
        e 0 80 64 00
        e 0 90 63 60
        e 120 80 63 00
        e 0 90 3e 60
        e 0 90 4b 60
        e 0 90 57 60
        e 0 90 63 60
        e 120 80 3e 00
        e 0 80 4b 00
        e 0 80 57 00
        e 0 80 63 00
        e 0 90 63 60
        e 120 80 63 00
        e 0 90 56 60
        e 0 90 62 60
        e 120 80 56 00
        e 0 80 62 00
        e 0 90 61 60
        e 120 80 61 00
        e 0 90 48 60
        e 0 90 54 60
        e 0 90 60 60
        e 120 80 48 00
        e 0 80 54 00
        e 0 80 60 00
        e 0 90 61 60
        e 120 80 61 00
        e 0 90 56 60
        e 0 90 62 60
        e 120 80 56 00
        e 0 80 62 00
        e 0 90 64 60
        e 120 80 64 00
        e 0 90 3d 60
        e 0 90 49 60
        e 0 90 55 60
        e 0 90 61 60
        e 120 80 3d 00
        e 0 80 49 00
        e 0 80 55 00
        e 0 80 61 00
        e 0 90 64 60
        e 120 80 64 00
        e 0 90 58 60
        e 0 90 64 60
        e 120 80 58 00
        e 0 80 64 00
        e 0 90 61 60
        e 120 80 61 00
        e 0 90 4b 60
        e 0 90 57 60
        e 0 90 63 60
        e 120 80 4b 00
        e 0 80 57 00
        e 0 80 63 00
        e 0 90 64 60
        e 120 80 64 00
        e 0 90 58 60
        e 0 90 64 60
        e 120 80 58 00
        e 0 80 64 00
        e 0 90 62 60
        e 120 80 62 00
        e 0 90 3d 60
        e 0 90 4a 60
        e 0 90 56 60
        e 0 90 62 60
        e 120 80 3d 00
        e 0 80 4a 00
        e 0 80 56 00
        e 0 80 62 00
        e 0 90 63 60
        e 120 80 63 00
        e 0 90 58 60
        e 0 90 64 60
        e 120 80 58 00
        e 0 80 64 00
        e 0 90 63 60
        e 120 80 63 00
        e 0 90 4b 60
        e 0 90 57 60
        e 0 90 63 60
        e 120 80 4b 00
        e 0 80 57 00
        e 0 80 63 00
        e 0 90 63 60
        e 120 80 63 00
        e 0 90 56 60
        e 0 90 62 60
        e 120 80 56 00
        e 0 80 62 00
        e 0 90 61 60
        e 120 80 61 00
        e 0 90 3c 60
        e 0 90 48 60
        e 0 90 54 60
        e 0 90 60 60
        e 120 80 3c 00
        e 0 80 48 00
        e 0 80 54 00
        e 0 80 60 00
        e 0 90 61 60
        e 120 80 61 00
        e 0 90 56 60
        e 0 90 62 60
        e 120 80 56 00
        e 0 80 62 00
        e 0 90 64 60
        e 120 80 64 00
        e 0 90 49 60
        e 0 90 55 60
        e 0 90 61 60
        e 120 80 49 00
        e 0 80 55 00
        e 0 80 61 00
        e 0 90 63 60
        e 120 80 63 00
        e 0 90 58 60
        e 0 90 64 60
        e 120 80 58 00
        e 0 80 64 00
        e 0 90 61 60
        e 120 80 61 00
        e 0 90 3e 60
        e 0 90 4b 60
        e 0 90 58 60
        e 0 90 64 60
        e 120 80 3e 00
        e 0 80 4b 00
        e 0 80 58 00
        e 0 80 64 00
        e 0 90 64 60
        e 120 80 64 00
        e 0 90 56 60
        e 0 90 62 60
        e 120 80 56 00
        e 0 80 62 00
        e 0 90 63 60
        e 120 80 63 00
        e 0 90 3e 60
        e 0 90 4b 60
        e 0 90 57 60
        e 0 90 63 60
        e 120 80 3e 00
        e 0 80 4b 00
        e 0 80 57 00
        e 0 80 63 00
        e 0 90 63 60
        e 120 80 63 00
        e 0 90 4b 60
        e 0 90 58 60
        e 0 90 64 60
        e 120 80 4b 00
        e 0 80 58 00
        e 0 80 64 00
        e 0 90 63 60
        e 120 80 63 00
        e 0 90 3e 60
        e 0 90 4b 60
        e 0 90 57 60
        e 0 90 63 60
        e 120 80 3e 00
        e 0 80 4b 00
        e 0 80 57 00
        e 0 80 63 00
        e 0 90 63 60
        e 120 80 63 00
        e 0 90 56 60
        e 0 90 62 60
        e 120 80 56 00
        e 0 80 62 00
        e 0 90 61 60
        e 120 80 61 00
        e 0 90 48 60
        e 0 90 54 60
        e 0 90 60 60
        e 120 80 48 00
        e 0 80 54 00
        e 0 80 60 00
        e 0 90 61 60
        e 120 80 61 00
        e 0 90 56 60
        e 0 90 62 60
        e 120 80 56 00
        e 0 80 62 00
        e 0 90 64 60
        e 120 80 64 00
        e 0 90 3d 60
        e 0 90 49 60
        e 0 90 55 60
        e 0 90 61 60
        e 120 80 3d 00
        e 0 80 49 00
        e 0 80 55 00
        e 0 80 61 00
        e 0 90 64 60
        e 120 80 64 00
        e 0 90 58 60
        e 0 90 64 60
        e 120 80 58 00
        e 0 80 64 00
        e 0 90 61 60
        e 120 80 61 00
        e 0 90 4b 60
        e 0 90 57 60
        e 0 90 63 60
        e 120 80 4b 00
        e 0 80 57 00
        e 0 80 63 00
        e 0 90 64 60
        e 120 80 64 00
        e 120 90 61 60
        e 120 80 61 00
        e 0 90 3d 60
        e 0 90 4a 60
        e 0 90 56 60
        e 0 90 62 60
        e 120 80 3d 00
        e 0 80 4a 00
        e 0 80 56 00
        e 0 80 62 00
        e 0 90 63 60
        e 120 80 63 00
        e 0 90 58 60
        e 0 90 64 60
        e 120 80 58 00
        e 0 80 64 00
        e 0 90 62 60
        e 120 80 62 00
        e 0 90 4b 60
        e 0 90 57 60
        e 0 90 63 60
        e 120 80 4b 00
        e 0 80 57 00
        e 0 80 63 00
        e 0 90 63 60
        e 120 80 63 00
        e 0 90 57 60
        e 0 90 63 60
        e 120 80 57 00
        e 0 80 63 00
        e 0 90 62 60
        e 120 80 62 00
        e 0 90 3d 60
        e 0 90 49 60
        e 0 90 55 60
        e 0 90 61 60
        e 120 80 3d 00
        e 0 80 49 00
        e 0 80 55 00
        e 0 80 61 00
        e 0 90 60 60
        e 120 80 60 00
        e 0 90 54 60
        e 0 90 60 60
        e 120 80 54 00
        e 0 80 60 00
        e 0 90 61 60
        e 120 80 61 00
        e 0 90 4b 60
        e 0 90 58 60
        e 0 90 64 60
        e 120 80 4b 00
        e 0 80 58 00
        e 0 80 64 00
        e 0 90 60 60
        e 120 80 60 00
        e 0 90 56 60
        e 0 90 62 60
        e 120 80 56 00
        e 0 80 62 00
        e 0 90 64 60
        e 120 80 64 00
        e 0 90 3c 60
        e 0 90 48 60
        e 0 90 54 60
        e 0 90 60 60
        e 120 80 3c 00
        e 0 80 48 00
        e 0 80 54 00
        e 0 80 60 00
        e 0 90 63 60
        e 120 80 63 00
        e 0 90 58 60
        e 0 90 64 60
        e 120 80 58 00
        e 0 80 64 00
        e 0 90 61 60
        e 120 80 61 00
        e 0 90 4a 60
        e 0 90 56 60
        e 0 90 62 60
        e 120 80 4a 00
        e 0 80 56 00
        e 0 80 62 00
        e 0 90 63 60
        e 120 80 63 00
        e 0 90 58 60
        e 0 90 64 60
        e 120 80 58 00
        e 0 80 64 00
        e 0 90 62 60
        e 120 80 62 00
        e 0 90 3e 60
        e 0 90 4b 60
        e 0 90 57 60
        e 0 90 63 60
        e 120 80 3e 00
        e 0 80 4b 00
        e 0 80 57 00
        e 0 80 63 00
        e 0 90 63 60
        e 120 80 63 00
        e 0 90 56 60
        e 0 90 62 60
        e 120 80 56 00
        e 0 80 62 00
        e 0 90 61 60
        e 120 80 61 00
        e 0 90 48 60
        e 0 90 54 60
        e 0 90 60 60
        e 120 80 48 00
        e 0 80 54 00
        e 0 80 60 00
        e 0 90 60 60
        e 120 80 60 00
        e 0 90 55 60
        e 0 90 61 60
        e 120 80 55 00
        e 0 80 61 00
        e 0 90 64 60
        e 120 80 64 00
        e 0 90 3c 60
        e 0 90 48 60
        e 0 90 54 60
        e 0 90 60 60
        e 120 80 3c 00
        e 0 80 48 00
        e 0 80 54 00
        e 0 80 60 00
        e 0 90 63 60
        e 120 80 63 00
        e 0 90 58 60
        e 0 90 64 60
        e 120 80 58 00
        e 0 80 64 00
        e 0 90 60 60
        e 120 80 60 00
        e 0 90 4a 60
        e 0 90 56 60
        e 0 90 62 60
        e 120 80 4a 00
        e 0 80 56 00
        e 0 80 62 00
        e 0 90 64 60
        e 120 80 64 00
        e 120 90 61 60
        e 120 80 61 00
        e 0 90 3d 60
        e 0 90 4a 60
        e 0 90 56 60
        e 0 90 62 60
        e 120 80 3d 00
        e 0 80 4a 00
        e 0 80 56 00
        e 0 80 62 00
        e 0 90 63 60
        e 120 80 63 00
        e 0 90 58 60
        e 0 90 64 60
        e 120 80 58 00
        e 0 80 64 00
        e 0 90 62 60
        e 120 80 62 00
        e 0 90 4b 60
        e 0 90 57 60
        e 0 90 63 60
        e 120 80 4b 00
        e 0 80 57 00
        e 0 80 63 00
        e 0 90 63 60
        e 120 80 63 00
        e 0 90 56 60
        e 0 90 62 60
        e 120 80 56 00
        e 0 80 62 00
        e 0 90 61 60
        e 120 80 61 00
        e 0 90 3c 60
        e 0 90 48 60
        e 0 90 54 60
        e 0 90 60 60
        e 120 80 3c 00
        e 0 80 48 00
        e 0 80 54 00
        e 0 80 60 00
        e 0 90 60 60
        e 120 80 60 00
        e 0 90 55 60
        e 0 90 61 60
        e 120 80 55 00
        e 0 80 61 00
        e 0 90 64 60
        e 120 80 64 00
        e 0 90 48 60
        e 0 90 54 60
        e 0 90 60 60
        e 120 80 48 00
        e 0 80 54 00
        e 0 80 60 00
        e 0 90 62 60
        e 120 80 62 00
        e 0 90 58 60
        e 0 90 64 60
        e 120 80 58 00
        e 0 80 64 00
        e 0 90 60 60
        e 120 80 60 00
        e 0 90 3e 60
        e 0 90 4b 60
        e 0 90 57 60
        e 0 90 63 60
        e 120 80 3e 00
        e 0 80 4b 00
        e 0 80 57 00
        e 0 80 63 00
        e 0 90 64 60
        e 120 80 64 00
        e 120 90 61 60
        e 120 80 61 00
        e 0 90 4a 60
        e 0 90 56 60
        e 0 90 62 60
        e 120 80 4a 00
        e 0 80 56 00
        e 0 80 62 00
        e 0 90 63 60
        e 120 80 63 00
        e 0 90 58 60
        e 0 90 64 60
        e 120 80 58 00
        e 0 80 64 00
        e 0 90 62 60
        e 120 80 62 00
        e 0 90 3e 60
        e 0 90 4b 60
        e 0 90 57 60
        e 0 90 63 60
        e 120 80 3e 00
        e 0 80 4b 00
        e 0 80 57 00
        e 0 80 63 00
        e 0 90 63 60
        e 120 80 63 00
        e 0 90 56 60
        e 0 90 62 60
        e 120 80 56 00
        e 0 80 62 00
        e 0 90 61 60
        e 120 80 61 00
        e 0 90 48 60
        e 0 90 54 60
        e 0 90 60 60
        e 120 80 48 00
        e 0 80 54 00
        e 0 80 60 00
        e 0 90 60 60
        e 120 80 60 00
        e 0 90 55 60
        e 0 90 61 60
        e 120 80 55 00
        e 0 80 61 00
        e 0 90 64 60
        e 120 80 64 00
        e 0 90 3c 60
        e 0 90 48 60
        e 0 90 54 60
        e 0 90 60 60
        e 120 80 3c 00
        e 0 80 48 00
        e 0 80 54 00
        e 0 80 60 00
        e 0 90 63 60
        e 120 80 63 00
        e 0 90 58 60
        e 0 90 64 60
        e 120 80 58 00
        e 0 80 64 00
        e 0 90 60 60
        e 120 80 60 00
        e 0 90 4a 60
        e 0 90 56 60
        e 0 90 62 60
        e 120 80 4a 00
        e 0 80 56 00
        e 0 80 62 00
        e 0 90 64 60
        e 120 80 64 00
        e 0 90 56 60
        e 0 90 62 60
        e 120 80 56 00
        e 0 80 62 00
        e 0 90 62 60
        e 120 80 62 00
        e 0 90 3e 60
        e 0 90 4b 60
        e 0 90 57 60
        e 0 90 63 60
        e 120 80 3e 00
        e 0 80 4b 00
        e 0 80 57 00
        e 0 80 63 00
        e 0 90 63 60
        e 120 80 63 00
        e 0 90 4b 60
        e 0 90 58 60
        e 0 90 64 60
        e 120 80 4b 00
        e 0 80 58 00
        e 0 80 64 00
        e 0 90 63 60
        e 120 80 63 00
        e 0 90 4b 60
        e 0 90 57 60
        e 0 90 63 60
        e 120 80 4b 00
        e 0 80 57 00
        e 0 80 63 00
        e 0 90 63 60
        e 120 80 63 00
        e 0 90 56 60
        e 0 90 62 60
        e 120 80 56 00
        e 0 80 62 00
        e 0 90 61 60
        e 120 80 61 00
        e 0 90 3c 60
        e 0 90 48 60
        e 0 90 54 60
        e 0 90 60 60
        e 120 80 3c 00
        e 0 80 48 00
        e 0 80 54 00
        e 0 80 60 00
        e 0 90 61 60
        e 120 80 61 00
        e 0 90 56 60
        e 0 90 62 60
        e 120 80 56 00
        e 0 80 62 00
        e 0 90 64 60
        e 120 80 64 00
        e 0 90 49 60
        e 0 90 55 60
        e 0 90 61 60
        e 120 80 49 00
        e 0 80 55 00
        e 0 80 61 00
        e 0 90 63 60
        e 120 80 63 00
        e 0 90 58 60
        e 0 90 64 60
        e 120 80 58 00
        e 0 80 64 00
        e 0 90 61 60
        e 120 80 61 00
        e 0 90 3e 60
        e 0 90 4b 60
        e 0 90 58 60
        e 0 90 64 60
        e 120 80 3e 00
        e 0 80 4b 00
        e 0 80 58 00
        e 0 80 64 00
        e 0 90 64 60
        e 120 80 64 00
        e 0 90 56 60
        e 0 90 62 60
        e 120 80 56 00
        e 0 80 62 00
        e 0 90 63 60
        e 120 80 63 00
        e 0 90 3e 60
        e 0 90 4b 60
        e 0 90 57 60
        e 0 90 63 60
        e 120 80 3e 00
        e 0 80 4b 00
        e 0 80 57 00
        e 0 80 63 00
        e 0 90 63 60
        e 120 80 63 00
        e 0 90 4b 60
        e 0 90 58 60
        e 0 90 64 60
        e 120 80 4b 00
        e 0 80 58 00
        e 0 80 64 00
        e 0 90 63 60
        e 120 80 63 00
        e 0 90 3e 60
        e 0 90 4b 60
        e 0 90 57 60
        e 0 90 63 60
        e 120 80 3e 00
        e 0 80 4b 00
        e 0 80 57 00
        e 0 80 63 00
        e 0 90 63 60
        e 120 80 63 00
        e 0 90 56 60
        e 0 90 62 60
        e 120 80 56 00
        e 0 80 62 00
        e 0 90 61 60
        e 120 80 61 00
        e 0 90 48 60
        e 0 90 54 60
        e 0 90 60 60
        e 120 80 48 00
        e 0 80 54 00
        e 0 80 60 00
        e 0 90 61 60
        e 120 80 61 00
        e 0 90 56 60
        e 0 90 62 60
        e 120 80 56 00
        e 0 80 62 00
        e 0 90 64 60
        e 120 80 64 00
        e 0 90 3d 60
        e 0 90 49 60
        e 0 90 55 60
        e 0 90 61 60
        e 120 80 3d 00
        e 0 80 49 00
        e 0 80 55 00
        e 0 80 61 00
        e 0 90 64 60
        e 120 80 64 00
        e 0 90 58 60
        e 0 90 64 60
        e 120 80 58 00
        e 0 80 64 00
        e 0 90 61 60
        e 120 80 61 00
        e 0 90 4b 60
        e 0 90 57 60
        e 0 90 63 60
        e 120 80 4b 00
        e 0 80 57 00
        e 0 80 63 00
        e 0 90 64 60
        e 120 80 64 00
        e 0 90 58 60
        e 0 90 64 60
        e 120 80 58 00
        e 0 80 64 00
        e 0 90 62 60
        e 120 80 62 00
        e 0 90 3d 60
        e 0 90 4a 60
        e 0 90 56 60
        e 0 90 62 60
        e 120 80 3d 00
        e 0 80 4a 00
        e 0 80 56 00
        e 0 80 62 00
        e 0 90 63 60
        e 120 80 63 00
        e 0 90 58 60
        e 0 90 64 60
        e 120 80 58 00
        e 0 80 64 00
        e 0 90 63 60
        e 120 80 63 00
        e 0 90 4b 60
        e 0 90 57 60
        e 0 90 63 60
        e 120 80 4b 00
        e 0 80 57 00
        e 0 80 63 00
        e 0 90 63 60
        e 120 80 63 00
        e 0 90 56 60
        e 0 90 62 60
        e 120 80 56 00
        e 0 80 62 00
        e 0 90 61 60
        e 120 80 61 00
        e 0 90 3c 60
        e 0 90 48 60
        e 0 90 54 60
        e 0 90 60 60
        e 120 80 3c 00
        e 0 80 48 00
        e 0 80 54 00
        e 0 80 60 00
        e 0 90 61 60 -1
        e 120 80 61 00 -1
        e 0 90 56 60
        e 0 90 62 60
        e 120 80 56 00
        e 0 80 62 00
        e 0 90 64 60
        e 120 80 64 00
        e 0 90 49 60
        e 0 90 55 60
        e 0 90 61 60
        e 120 80 49 00
        e 0 80 55 00
        e 0 80 61 00
        e 0 90 63 60
        e 120 80 63 00
        e 0 90 58 60
        e 0 90 64 60
        e 120 80 58 00
        e 0 80 64 00
        e 0 90 61 60
        e 120 80 61 00
        e 0 90 3e 60
        e 0 90 4b 60
        e 0 90 58 60
        e 0 90 64 60
        e 120 80 3e 00
        e 0 80 4b 00
        e 0 80 58 00
        e 0 80 64 00
        e 0 90 64 60
        e 120 80 64 00
        e 0 90 56 60
        e 0 90 62 60
        e 120 80 56 00
        e 0 80 62 00
        e 0 90 63 60
        e 120 80 63 00
        e 0 90 3e 60
        e 0 90 4b 60
        e 0 90 57 60
        e 0 90 63 60
        e 120 80 3e 00
        e 0 80 4b 00
        e 0 80 57 00
        e 0 80 63 00
        e 0 90 63 60
        e 120 80 63 00
        e 0 90 4b 60
        e 0 90 58 60
        e 0 90 64 60
        e 120 80 4b 00
        e 0 80 58 00
        e 0 80 64 00
        e 0 90 63 60
        e 120 80 63 00
        e 0 90 3e 60
        e 0 90 4b 60
        e 0 90 57 60
        e 0 90 63 60
        e 120 80 3e 00
        e 0 80 4b 00
        e 0 80 57 00
        e 0 80 63 00
        e 0 90 63 60
        e 120 80 63 00
        e 0 90 56 60
        e 0 90 62 60
        e 120 80 56 00
        e 0 80 62 00
        e 0 90 61 60
        e 120 80 61 00
        e 0 90 48 60
        e 0 90 54 60
        e 0 90 60 60
        e 120 80 48 00
        e 0 80 54 00
        e 0 80 60 00
        e 0 90 61 60
        e 120 80 61 00
        e 0 90 56 60
        e 0 90 62 60
        e 120 80 56 00
        e 0 80 62 00
        e 0 90 64 60
        e 120 80 64 00
        e 0 90 3d 60
        e 0 90 49 60
        e 0 90 55 60
        e 0 90 61 60
        e 120 80 3d 00
        e 0 80 49 00
        e 0 80 55 00
        e 0 80 61 00
        e 0 90 64 60
        e 120 80 64 00
        e 0 90 58 60
        e 0 90 64 60
        e 120 80 58 00
        e 0 80 64 00
        e 0 90 61 60
        e 119 90 4b 60
        e 0 90 57 60
        e 1 80 61 00
        e 0 90 63 60 -1
        e 119 80 4b 00
        e 0 80 57 00
        e 1 80 63 00 -1
        e 0 90 64 60
        e 120 80 64 00
        e 120 90 61 60
        e 120 80 61 00
        e 0 90 3d 60
        e 0 90 4a 60
        e 0 90 56 60
        e 0 90 62 60
        e 120 80 3d 00
        e 0 80 4a 00
        e 0 80 56 00
        e 0 80 62 00
        e 0 90 63 60
        e 120 80 63 00
        e 0 90 58 60
        e 0 90 64 60
        e 120 80 58 00
        e 0 80 64 00
        e 0 90 62 60
        e 120 80 62 00
        e 0 90 4b 60
        e 0 90 57 60
        e 0 90 63 60
        e 120 80 4b 00
        e 0 80 57 00
        e 0 80 63 00
        e 0 90 63 60
        e 120 80 63 00
        e 0 90 57 60
        e 0 90 63 60
        e 120 80 57 00
        e 0 80 63 00
        e 0 90 62 60
        e 120 80 62 00
        e 0 90 3d 60
        e 0 90 49 60
        e 0 90 55 60
        e 0 90 61 60
        e 120 80 3d 00
        e 0 80 49 00
        e 0 80 55 00
        e 0 80 61 00
        e 0 90 60 60
        e 120 80 60 00
        e 0 90 54 60
        e 0 90 60 60
        e 120 80 54 00
        e 0 80 60 00
        e 0 90 61 60
        e 120 80 61 00
        e 0 90 4b 60
        e 0 90 58 60
        e 0 90 64 60
        e 120 80 4b 00
        e 0 80 58 00
        e 0 80 64 00
        e 0 90 60 60
        e 120 80 60 00
        e 0 90 56 60
        e 0 90 62 60
        e 120 80 56 00
        e 0 80 62 00
        e 0 90 64 60
        e 120 80 64 00
        e 0 90 3c 60
        e 0 90 48 60
        e 0 90 54 60
        e 0 90 60 60
        e 120 80 3c 00
        e 0 80 48 00
        e 0 80 54 00
        e 0 80 60 00
        e 0 90 63 60
        e 120 80 63 00
        e 0 90 58 60
        e 0 90 64 60
        e 120 80 58 00
        e 0 80 64 00
        e 0 90 61 60
        e 120 80 61 00
        e 0 90 4a 60
        e 0 90 56 60
        e 0 90 62 60
        e 120 80 4a 00
        e 0 80 56 00
        e 0 80 62 00
        e 0 90 63 60
        e 120 80 63 00
        e 0 90 58 60
        e 0 90 64 60
        e 120 80 58 00
        e 0 80 64 00
        e 0 90 62 60
        e 120 80 62 00
        e 0 90 3e 60
        e 0 90 4b 60
        e 0 90 57 60
        e 0 90 63 60
        e 120 80 3e 00
        e 0 80 4b 00
        e 0 80 57 00
        e 0 80 63 00
        e 0 90 63 60
        e 120 80 63 00
        e 0 90 56 60
        e 0 90 62 60
        e 120 80 56 00
        e 0 80 62 00
        e 0 90 61 60
        e 120 80 61 00
        e 0 90 48 60
        e 0 90 54 60
        e 0 90 60 60
        e 120 80 48 00
        e 0 80 54 00
        e 0 80 60 00
        e 0 90 60 60
        e 120 80 60 00
        e 0 90 55 60
        e 0 90 61 60
        e 120 80 55 00
        e 0 80 61 00
        e 0 90 64 60
        e 120 80 64 00
        e 0 90 3c 60
        e 0 90 48 60
        e 0 90 54 60
        e 0 90 60 60
        e 120 80 3c 00
        e 0 80 48 00
        e 0 80 54 00
        e 0 80 60 00
        e 0 90 63 60
        e 120 80 63 00
        e 0 90 58 60
        e 0 90 64 60
        e 120 80 58 00
        e 0 80 64 00
        e 0 90 60 60
        e 120 80 60 00
        e 0 90 4a 60
        e 0 90 56 60
        e 0 90 62 60
        e 120 80 4a 00
        e 0 80 56 00
        e 0 80 62 00
        e 0 90 64 60
        e 120 80 64 00
        e 120 90 61 60
        e 120 80 61 00
        e 0 90 3d 60
        e 0 90 4a 60
        e 0 90 56 60
        e 0 90 62 60
        e 120 80 3d 00
        e 0 80 4a 00
        e 0 80 56 00
        e 0 80 62 00
        e 0 90 63 60
        e 120 80 63 00
        e 0 90 58 60
        e 0 90 64 60
        e 120 80 58 00
        e 0 80 64 00
        e 0 90 62 60
        e 120 80 62 00
        e 0 90 4b 60
        e 0 90 57 60
        e 0 90 63 60
        e 120 80 4b 00
        e 0 80 57 00
        e 0 80 63 00
        e 0 90 63 60
        e 120 80 63 00
        e 0 90 56 60
        e 0 90 62 60
        e 120 80 56 00
        e 0 80 62 00
        e 0 90 61 60
        e 120 80 61 00
        e 0 90 3c 60
        e 0 90 48 60
        e 0 90 54 60
        e 0 90 60 60
        e 120 80 3c 00
        e 0 80 48 00
        e 0 80 54 00
        e 0 80 60 00
        e 0 90 60 60
        e 120 80 60 00
        e 0 90 55 60
        e 0 90 61 60
        e 120 80 55 00
        e 0 80 61 00
        e 0 90 64 60
        e 120 80 64 00
        e 0 90 48 60
        e 0 90 54 60
        e 0 90 60 60
        e 120 80 48 00
        e 0 80 54 00
        e 0 80 60 00
        e 0 90 62 60
        e 120 80 62 00
        e 0 90 58 60
        e 0 90 64 60
        e 120 80 58 00
        e 0 80 64 00
        e 0 90 60 60
        e 120 80 60 00
        e 0 90 3e 60
        e 0 90 4b 60
        e 0 90 57 60
        e 0 90 63 60
        e 120 80 3e 00
        e 0 80 4b 00
        e 0 80 57 00
        e 0 80 63 00
        e 0 90 64 60
        e 120 80 64 00
        e 120 90 61 60
        e 120 80 61 00
        e 0 90 4a 60
        e 0 90 56 60
        e 0 90 62 60
        e 120 80 4a 00
        e 0 80 56 00
        e 0 80 62 00
        e 0 90 63 60
        e 120 80 63 00
        e 0 90 58 60
        e 0 90 64 60
        e 120 80 58 00
        e 0 80 64 00
        e 0 90 62 60
        e 120 80 62 00
        e 0 90 3e 60
        e 0 90 4b 60
        e 0 90 57 60
        e 0 90 63 60
        e 120 80 3e 00
        e 0 80 4b 00
        e 0 80 57 00
        e 0 80 63 00
        e 0 90 63 60
        e 120 80 63 00
        e 0 90 56 60
        e 0 90 62 60
        e 120 80 56 00
        e 0 80 62 00
        e 0 90 61 60
        e 120 80 61 00
        e 0 90 48 60
        e 0 90 54 60
        e 0 90 60 60
        e 120 80 48 00
        e 0 80 54 00
        e 0 80 60 00
        e 0 90 60 60
        e 120 80 60 00
        e 0 90 55 60
        e 0 90 61 60
        e 120 80 55 00
        e 0 80 61 00
        e 0 90 64 60
        e 120 80 64 00
        e 0 90 3c 60
        e 0 90 48 60
        e 0 90 54 60
        e 0 90 60 60
        e 120 80 3c 00
        e 0 80 48 00
        e 0 80 54 00
        e 0 80 60 00
        e 0 90 63 60
        e 120 80 63 00
        e 0 90 58 60
        e 0 90 64 60
        e 120 80 58 00
        e 0 80 64 00
        e 0 90 60 60
        e 120 80 60 00
        e 0 90 4a 60
        e 0 90 56 60
        e 0 90 62 60
        e 120 80 4a 00
        e 0 80 56 00
        e 0 80 62 00
        e 0 90 64 60
        e 120 80 64 00
        e 120 90 63 60
        e 60 80 63 00
        e 60 90 3e 60
        e 0 90 4b 60
        e 0 90 58 60
        e 0 90 64 60
        e 60 80 3e 00
        e 0 80 4b 00
        e 0 80 58 00
        e 0 80 64 00
        e 60 90 63 60
        e 60 80 63 00
        e 60 90 56 60
        e 0 90 62 60
        e 60 80 56 00
        e 0 80 62 00
        e 60 90 62 60
        e 60 80 62 00
        e 60 90 4b 60
        e 0 90 57 60
        e 0 90 63 60
        e 60 80 4b 00
        e 0 80 57 00
        e 0 80 63 00
        e 60 90 62 60
        e 60 80 62 00
        e 60 90 55 60
        e 0 90 61 60
        e 60 80 55 00
        e 0 80 61 00
        e 0 90 62 60
        e 60 80 62 00
        e 0 90 63 60
        e 60 80 63 00
        e 0 90 62 60
        e 60 80 62 00
        e 0 90 3d 60
        e 0 90 49 60
        e 0 90 55 60
        e 0 90 61 60
        e 60 80 3d 00
        e 0 80 49 00
        e 0 80 55 00
        e 0 80 61 00
        e 120 90 60 60
        e 60 80 60 00
        e 240 90 4a 60
        e 0 90 4b 60
        e 0 90 56 60
        e 0 90 58 60
        e 0 90 62 60
        e 0 90 64 60
        e 60 80 4a 00
        e 0 80 4b 00
        e 0 80 56 00
        e 0 80 58 00
        e 0 80 62 00
        e 0 80 64 00
        e 180 90 4a 60
        e 0 90 4b 60
        e 0 90 55 60
        e 0 90 58 60
        e 0 90 61 60
        e 0 90 64 60
        e 60 80 4a 00
        e 0 80 4b 00
        e 0 80 55 00
        e 0 80 58 00
        e 0 80 61 00
        e 0 80 64 00
        e 180 90 3f 60
        e 0 90 4a 60
        e 0 90 4b 60
        e 0 90 56 60
        e 0 90 58 60
        e 0 90 62 60
        e 0 90 64 60
        e 60 80 3f 00
        e 0 80 4a 00
        e 0 80 4b 00
        e 0 80 56 00
        e 0 80 58 00
        e 0 80 62 00
        e 0 80 64 00
        e 180 90 57 60
        e 0 90 58 60
        e 0 90 63 60
        e 0 90 64 60
        e 60 80 57 00
        e 0 80 58 00
        e 0 80 63 00
        e 0 80 64 00
        e 180 90 4b 60
        e 0 90 57 60
        e 0 90 63 60
        e 60 80 4b 00
        e 0 80 57 00
        e 0 80 63 00
        e 120 90 63 60
        e 0 90 64 60
        e 60 80 63 00
        e 0 80 64 00
        e 240 90 40 60
        e 0 90 4b 60
        e 0 90 4c 60
        e 0 90 57 60
        e 0 90 58 60
        e 0 90 63 60
        e 0 90 64 60
        e 60 80 40 00
        e 0 80 4b 00
        e 0 80 4c 00
        e 0 80 57 00
        e 0 80 58 00
        e 0 80 63 00
        e 0 80 64 00
        e 180 90 57 60
        e 0 90 63 60
        e 60 80 57 00
        e 0 80 63 00
        e 59 90 64 60
        e 60 80 64 00
        e 61 90 4b 60
        e 0 90 57 60
        e 0 90 63 60
        e 60 80 4b 00
        e 0 80 57 00
        e 0 80 63 00
        e 60 90 62 60
        e 59 80 62 00
        e 60 90 56 60
        e 0 90 62 60
        e 60 80 56 00
        e 0 80 62 00
        e 61 90 63 60
        e 60 80 63 00
        e 60 90 3d 60
        e 0 90 4a 60
        e 0 90 56 60
        e 0 90 62 60
        e 60 80 3d 00
        e 0 80 4a 00
        e 0 80 56 00
        e 0 80 62 00
        e 0 90 61 60
        e 59 80 61 00
        e 1 90 62 60
        e 60 80 62 00
        e 0 90 63 60
        e 60 80 63 00
        e 0 90 4a 60
        e 0 90 56 60
        e 0 90 62 60
        e 60 80 4a 00
        e 0 80 56 00
        e 0 80 62 00
        e 0 90 61 60
        e 60 80 61 00
        e 60 90 60 60
        e 60 80 60 00
        e 180 90 56 60
        e 0 90 58 60
        e 0 90 62 60
        e 0 90 64 60
        e 60 80 56 00
        e 0 80 58 00
        e 0 80 62 00
        e 0 80 64 00
        e 180 90 4a 60
        e 0 90 4b 60
        e 0 90 55 60
        e 0 90 58 60
        e 0 90 61 60
        e 0 90 64 60
        e 60 80 4a 00
        e 0 80 4b 00
        e 0 80 55 00
        e 0 80 58 00
        e 0 80 61 00
        e 0 80 64 00
        e 180 90 57 60
        e 0 90 58 60
        e 0 90 63 60
        e 0 90 64 60
        e 60 80 57 00
        e 0 80 58 00
        e 0 80 63 00
        e 0 80 64 00
        e 180 90 3f 60
        e 0 90 4a 60
        e 0 90 4b 60
        e 0 90 56 60
        e 0 90 58 60
        e 0 90 62 60
        e 0 90 64 60
        e 60 80 3f 00
        e 0 80 4a 00
        e 0 80 4b 00
        e 0 80 56 00
        e 0 80 58 00
        e 0 80 62 00
        e 0 80 64 00
        e 300 90 56 60
        e 0 90 58 60
        e 0 90 62 60
        e 0 90 64 60
        e 60 80 56 00
        e 0 80 58 00
        e 0 80 62 00
        e 0 80 64 00
        e 240 90 56 60
        e 0 90 58 60
        e 0 90 62 60
        e 0 90 64 60
        e 60 80 56 00
        e 0 80 58 00
        e 0 80 62 00
        e 0 80 64 00
        e 180 90 63 60
        e 60 80 63 00
        e 60 90 3e 60
        e 0 90 4b 60
        e 0 90 58 60
        e 0 90 64 60
        e 60 80 3e 00
        e 0 80 4b 00
        e 0 80 58 00
        e 0 80 64 00
        e 60 90 63 60
        e 60 80 63 00
        e 60 90 56 60
        e 0 90 62 60
        e 60 80 56 00
        e 0 80 62 00
        e 60 90 62 60
        e 60 80 62 00
        e 0 90 63 60
        e 60 80 63 00
        e 0 90 3e 60
        e 0 90 4b 60
        e 0 90 58 60
        e 0 90 64 60
        e 60 80 3e 00
        e 0 80 4b 00
        e 0 80 58 00
        e 0 80 64 00
        e 0 90 63 60
        e 60 80 63 00
        e 0 90 62 60
        e 60 80 62 00
        e 59 90 55 60
        e 0 90 61 60
        e 60 80 55 00
        e 0 80 61 00
        e 1 90 62 60
        e 60 80 62 00
        e 0 90 63 60
        e 60 80 63 00
        e 0 90 62 60
        e 60 80 62 00
        e 0 90 49 60
        e 0 90 55 60
        e 0 90 61 60
        e 60 80 49 00
        e 0 80 55 00
        e 0 80 61 00
        e 120 90 60 60
        e 60 80 60 00
        e 240 90 3f 60
        e 0 90 4a 60
        e 0 90 4b 60
        e 0 90 56 60
        e 0 90 58 60
        e 0 90 62 60
        e 0 90 64 60
        e 60 80 3f 00
        e 0 80 4a 00
        e 0 80 4b 00
        e 0 80 56 00
        e 0 80 58 00
        e 0 80 62 00
        e 0 80 64 00
        e 180 90 4a 60
        e 0 90 4b 60
        e 0 90 55 60
        e 0 90 58 60
        e 0 90 61 60
        e 0 90 64 60
        e 60 80 4a 00
        e 0 80 4b 00
        e 0 80 55 00
        e 0 80 58 00
        e 0 80 61 00
        e 0 80 64 00
        e 180 90 3f 60
        e 0 90 4a 60
        e 0 90 4b 60
        e 0 90 56 60
        e 0 90 58 60
        e 0 90 62 60
        e 0 90 64 60
        e 60 80 3f 00
        e 0 80 4a 00
        e 0 80 4b 00
        e 0 80 56 00
        e 0 80 58 00
        e 0 80 62 00
        e 0 80 64 00
        e 180 90 57 60
        e 0 90 58 60
        e 0 90 63 60
        e 0 90 64 60
        e 60 80 57 00
        e 0 80 58 00
        e 0 80 63 00
        e 0 80 64 00
        e 240 90 4b 60
        e 0 90 4c 60
        e 0 90 57 60
        e 0 90 58 60
        e 0 90 63 60
        e 0 90 64 60
        e 60 80 4b 00
        e 0 80 4c 00
        e 0 80 57 00
        e 0 80 58 00
        e 0 80 63 00
        e 0 80 64 00
        e 300 90 57 60
        e 0 90 58 60
        e 0 90 63 60
        e 0 90 64 60
        e 60 80 57 00
        e 0 80 58 00
        e 0 80 63 00
        e 0 80 64 00
        e 180 90 3e 60
        e 0 90 4b 60
        e 0 90 57 60
        e 0 90 63 60
        e 60 80 3e 00
        e 0 80 4b 00
        e 0 80 57 00
        e 0 80 63 00
        e 60 90 64 60
        e 60 80 64 00
        e 60 90 57 60
        e 0 90 63 60
        e 60 80 57 00
        e 0 80 63 00
        e 60 90 62 60
        e 60 80 62 00
        e 60 90 4a 60
        e 0 90 56 60
        e 0 90 62 60
        e 60 80 4a 00
        e 0 80 56 00
        e 0 80 62 00
        e 60 90 63 60
        e 60 80 63 00
        e 60 90 56 60
        e 0 90 62 60
        e 60 80 56 00
        e 0 80 62 00
        e 59 90 61 60
        e 60 80 61 00
        e 1 90 62 60
        e 60 80 62 00
        e 0 90 63 60
        e 60 80 63 00
        e 0 90 56 60
        e 0 90 62 60
        e 60 80 56 00
        e 0 80 62 00
        e 0 90 61 60
        e 60 80 61 00
        e 120 90 3c 60
        e 0 90 48 60
        e 0 90 54 60
        e 0 90 60 60
        e 120 80 3c 00
        e 0 80 48 00
        e 0 80 54 00
        e 0 80 60 00
        e 120 90 56 60
        e 0 90 58 60
        e 0 90 62 60
        e 0 90 64 60
        e 120 80 56 00
        e 0 80 58 00
        e 0 80 62 00
        e 0 80 64 00
        e 120 90 4a 60
        e 0 90 4b 60
        e 0 90 55 60
        e 0 90 58 60
        e 0 90 61 60
        e 0 90 64 60
        e 120 80 4a 00
        e 0 80 4b 00
        e 0 80 55 00
        e 0 80 58 00
        e 0 80 61 00
        e 0 80 64 00
        e 120 90 57 60
        e 0 90 58 60
        e 0 90 63 60
        e 0 90 64 60
        e 120 80 57 00
        e 0 80 58 00
        e 0 80 63 00
        e 0 80 64 00
        e 120 90 3f 60
        e 0 90 4a 60
        e 0 90 4b 60
        e 0 90 56 60
        e 0 90 58 60
        e 0 90 62 60
        e 0 90 64 60
        e 120 80 3f 00
        e 0 80 4a 00
        e 0 80 4b 00
        e 0 80 56 00
        e 0 80 58 00
        e 0 80 62 00
        e 0 80 64 00
        e 240 90 56 60
        e 0 90 58 60
        e 0 90 62 60
        e 0 90 64 60
        e 120 80 56 00
        e 0 80 58 00
        e 0 80 62 00
        e 0 80 64 00
        e 240 90 56 60
        e 0 90 58 60
        e 0 90 62 60
        e 0 90 64 60
        e 120 80 56 00
        e 0 80 58 00
        e 0 80 62 00
        e 0 80 64 00
        e 120 90 3c 60
        e 0 90 48 60
        e 0 90 4a 60
        e 0 90 55 60
        e 0 90 56 60
        e 0 90 61 60
        e 0 90 62 60
        e 120 80 3c 00
        e 0 80 48 00
        e 0 80 4a 00
        e 0 80 55 00
        e 0 80 56 00
        e 0 80 61 00
        e 0 80 62 00
        e 120 90 54 60
        e 0 90 60 60
        e 120 80 54 00
        e 0 80 60 00
        e 120 90 48 60
        e 0 90 54 60
        e 0 90 60 60
        e 120 80 48 00
        e 0 80 54 00
        e 0 80 60 00
        e 120 90 55 60
        e 0 90 56 60
        e 0 90 61 60
        e 0 90 62 60
        e 120 80 55 00
        e 0 80 56 00
        e 0 80 61 00
        e 0 80 62 00
        e 120 90 3e 60
        e 0 90 49 60
        e 0 90 4b 60
        e 0 90 56 60
        e 0 90 57 60
        e 0 90 62 60
        e 0 90 63 60
        e 120 80 3e 00
        e 0 80 49 00
        e 0 80 4b 00
        e 0 80 56 00
        e 0 80 57 00
        e 0 80 62 00
        e 0 80 63 00
        e 240 90 56 60
        e 0 90 57 60
        e 0 90 62 60
        e 0 90 63 60
        e 120 80 56 00
        e 0 80 57 00
        e 0 80 62 00
        e 0 80 63 00
        e 240 90 56 60
        e 0 90 57 60
        e 0 90 62 60
        e 0 90 63 60
        e 120 80 56 00
        e 0 80 57 00
        e 0 80 62 00
        e 0 80 63 00
        e 120 90 3c 60
        e 0 90 48 60
        e 0 90 4a 60
        e 0 90 55 60
        e 0 90 56 60
        e 0 90 61 60
        e 0 90 62 60
        e 120 80 3c 00
        e 0 80 48 00
        e 0 80 4a 00
        e 0 80 55 00
        e 0 80 56 00
        e 0 80 61 00
        e 0 80 62 00
        e 120 90 54 60
        e 0 90 60 60
        e 120 80 54 00
        e 0 80 60 00
        e 120 90 3c 60
        e 0 90 48 60
        e 0 90 54 60
        e 0 90 60 60
        e 120 80 3c 00
        e 0 80 48 00
        e 0 80 54 00
        e 0 80 60 00
        e 120 90 56 60
        e 0 90 57 60
        e 0 90 62 60
        e 0 90 63 60
        e 120 80 56 00
        e 0 80 57 00
        e 0 80 62 00
        e 0 80 63 00
        e 120 90 3c 60
        e 0 90 48 60
        e 0 90 4a 60
        e 0 90 55 60
        e 0 90 56 60
        e 0 90 61 60
        e 0 90 62 60
        e 120 80 3c 00
        e 0 80 48 00
        e 0 80 4a 00
        e 0 80 55 00
        e 0 80 56 00
        e 0 80 61 00
        e 0 80 62 00
        e 240 90 55 60
        e 0 90 56 60
        e 0 90 61 60
        e 0 90 62 60
        e 120 80 55 00
        e 0 80 56 00
        e 0 80 61 00
        e 0 80 62 00
        e 240 90 48 60
        e 0 90 4a 60
        e 0 90 55 60
        e 0 90 56 60
        e 0 90 61 60
        e 0 90 62 60
        e 120 80 48 00
        e 0 80 4a 00
        e 0 80 55 00
        e 0 80 56 00
        e 0 80 61 00
        e 0 80 62 00
        e 120 90 3c 60
        e 0 90 48 60
        e 0 90 4a 60
        e 0 90 55 60
        e 0 90 56 60
        e 0 90 61 60
        e 0 90 62 60
        e 120 80 3c 00
        e 0 80 48 00
        e 0 80 4a 00
        e 0 80 55 00
        e 0 80 56 00
        e 0 80 61 00
        e 0 80 62 00
        e 120 90 54 60
        e 0 90 60 60
        e 120 80 54 00
        e 0 80 60 00
        e 120 90 48 60
        e 0 90 54 60
        e 0 90 60 60
        e 120 80 48 00
        e 0 80 54 00
        e 0 80 60 00
        e 120 90 55 60
        e 0 90 56 60
        e 0 90 61 60
        e 0 90 62 60
        e 120 80 55 00
        e 0 80 56 00
        e 0 80 61 00
        e 0 80 62 00
        e 120 90 3e 60
        e 0 90 49 60
        e 0 90 4b 60
        e 0 90 56 60
        e 0 90 57 60
        e 0 90 62 60
        e 0 90 63 60
        e 120 80 3e 00
        e 0 80 49 00
        e 0 80 4b 00
        e 0 80 56 00
        e 0 80 57 00
        e 0 80 62 00
        e 0 80 63 00
        e 240 90 56 60
        e 0 90 57 60
        e 0 90 62 60
        e 0 90 63 60
        e 120 80 56 00
        e 0 80 57 00
        e 0 80 62 00
        e 0 80 63 00
        e 240 90 56 60
        e 0 90 57 60
        e 0 90 62 60
        e 0 90 63 60
        e 120 80 56 00
        e 0 80 57 00
        e 0 80 62 00
        e 0 80 63 00
        e 120 90 3c 60
        e 0 90 48 60
        e 0 90 4a 60
        e 0 90 55 60
        e 0 90 56 60
        e 0 90 61 60
        e 0 90 62 60
        e 120 80 3c 00
        e 0 80 48 00
        e 0 80 4a 00
        e 0 80 55 00
        e 0 80 56 00
        e 0 80 61 00
        e 0 80 62 00
        e 120 90 54 60
        e 0 90 60 60
        e 120 80 54 00
        e 0 80 60 00
        e 120 90 3c 60
        e 0 90 48 60
        e 0 90 54 60
        e 0 90 60 60
        e 120 80 3c 00
        e 0 80 48 00
        e 0 80 54 00
        e 0 80 60 00
        e 120 90 56 60
        e 0 90 57 60
        e 0 90 62 60
        e 0 90 63 60
        e 120 80 56 00
        e 0 80 57 00
        e 0 80 62 00
        e 0 80 63 00
        e 120 90 3c 60
        e 0 90 48 60
        e 0 90 4a 60
        e 0 90 55 60
        e 0 90 56 60
        e 0 90 61 60
        e 0 90 62 60
        e 120 80 3c 00
        e 0 80 48 00
        e 0 80 4a 00
        e 0 80 55 00
        e 0 80 56 00
        e 0 80 61 00
        e 0 80 62 00
        e 240 90 55 60
        e 0 90 56 60
        e 0 90 61 60
        e 0 90 62 60
        e 120 80 55 00
        e 0 80 56 00
        e 0 80 61 00
        e 0 80 62 00
        e 240 90 55 60
        e 0 90 56 60
        e 0 90 61 60
        e 0 90 62 60
        e 120 80 55 00
        e 0 80 56 00
        e 0 80 61 00
        e 0 80 62 00
        e 120 90 3d 60
        e 0 90 49 60
        e 0 90 4a 60
        e 0 90 55 60
        e 0 90 57 60
        e 0 90 61 60
        e 0 90 63 60
        e 120 80 3d 00
        e 0 80 49 00
        e 0 80 4a 00
        e 0 80 55 00
        e 0 80 57 00
        e 0 80 61 00
        e 0 80 63 00
        e 120 90 54 60
        e 0 90 60 60
        e 120 80 54 00
        e 0 80 60 00
        e 120 90 48 60
        e 0 90 49 60
        e 0 90 54 60
        e 0 90 55 60
        e 0 90 60 60
        e 0 90 61 60
        e 120 80 48 00
        e 0 80 49 00
        e 0 80 54 00
        e 0 80 55 00
        e 0 80 60 00
        e 0 80 61 00
        e 120 90 55 60
        e 0 90 57 60
        e 0 90 61 60
        e 0 90 63 60
        e 120 80 55 00
        e 0 80 57 00
        e 0 80 61 00
        e 0 80 63 00
        e 120 90 40 60
        e 0 90 4b 60
        e 0 90 4c 60
        e 0 90 57 60
        e 0 90 58 60
        e 0 90 63 60
        e 0 90 64 60
        e 120 80 40 00
        e 0 80 4b 00
        e 0 80 4c 00
        e 0 80 57 00
        e 0 80 58 00
        e 0 80 63 00
        e 0 80 64 00
        e 240 90 57 60
        e 0 90 58 60
        e 0 90 63 60
        e 0 90 64 60
        e 120 80 57 00
        e 0 80 58 00
        e 0 80 63 00
        e 0 80 64 00
        e 240 90 57 60
        e 0 90 58 60
        e 0 90 63 60
        e 0 90 64 60
        e 120 80 57 00
        e 0 80 58 00
        e 0 80 63 00
        e 0 80 64 00
        e 120 90 3d 60
        e 0 90 49 60
        e 0 90 4a 60
        e 0 90 55 60
        e 0 90 57 60
        e 0 90 61 60
        e 0 90 63 60
        e 120 80 3d 00
        e 0 80 49 00
        e 0 80 4a 00
        e 0 80 55 00
        e 0 80 57 00
        e 0 80 61 00
        e 0 80 63 00
        e 120 90 54 60
        e 0 90 60 60
        e 120 80 54 00
        e 0 80 60 00
        e 120 90 48 60
        e 0 90 49 60
        e 0 90 54 60
        e 0 90 55 60
        e 0 90 60 60
        e 0 90 61 60
        e 120 80 48 00
        e 0 80 49 00
        e 0 80 54 00
        e 0 80 55 00
        e 0 80 60 00
        e 0 80 61 00
        e 120 90 57 60
        e 0 90 58 60
        e 0 90 63 60
        e 0 90 64 60
        e 120 80 57 00
        e 0 80 58 00
        e 0 80 63 00
        e 0 80 64 00
        e 120 90 3d 60
        e 0 90 49 60
        e 0 90 4a 60
        e 0 90 55 60
        e 0 90 57 60
        e 0 90 61 60
        e 0 90 63 60
        e 120 80 3d 00
        e 0 80 49 00
        e 0 80 4a 00
        e 0 80 55 00
        e 0 80 57 00
        e 0 80 61 00
        e 0 80 63 00
        e 240 90 55 60
        e 0 90 57 60
        e 0 90 61 60
        e 0 90 63 60
        e 120 80 55 00
        e 0 80 57 00
        e 0 80 61 00
        e 0 80 63 00
        e 240 90 49 60
        e 0 90 4a 60
        e 0 90 55 60
        e 0 90 57 60
        e 0 90 61 60
        e 0 90 63 60
        e 120 80 49 00
        e 0 80 4a 00
        e 0 80 55 00
        e 0 80 57 00
        e 0 80 61 00
        e 0 80 63 00
        e 120 90 3d 60
        e 0 90 49 60
        e 0 90 4a 60
        e 0 90 55 60
        e 0 90 57 60
        e 0 90 61 60
        e 0 90 63 60
        e 120 80 3d 00
        e 0 80 49 00
        e 0 80 4a 00
        e 0 80 55 00
        e 0 80 57 00
        e 0 80 61 00
        e 0 80 63 00
        e 120 90 54 60
        e 0 90 60 60
        e 120 80 54 00
        e 0 80 60 00
        e 120 90 48 60
        e 0 90 49 60
        e 0 90 54 60
        e 0 90 55 60
        e 0 90 60 60
        e 0 90 61 60
        e 120 80 48 00
        e 0 80 49 00
        e 0 80 54 00
        e 0 80 55 00
        e 0 80 60 00
        e 0 80 61 00
        e 120 90 55 60
        e 0 90 57 60
        e 0 90 61 60
        e 0 90 63 60
        e 120 80 55 00
        e 0 80 57 00
        e 0 80 61 00
        e 0 80 63 00
        e 120 90 40 60
        e 0 90 4b 60
        e 0 90 4c 60
        e 0 90 57 60
        e 0 90 58 60
        e 0 90 63 60
        e 0 90 64 60
        e 120 80 40 00
        e 0 80 4b 00
        e 0 80 4c 00
        e 0 80 57 00
        e 0 80 58 00
        e 0 80 63 00
        e 0 80 64 00
        e 240 90 57 60
        e 0 90 58 60
        e 0 90 63 60
        e 0 90 64 60
        e 120 80 57 00
        e 0 80 58 00
        e 0 80 63 00
        e 0 80 64 00
        e 240 90 57 60
        e 0 90 58 60
        e 0 90 63 60
        e 0 90 64 60
        e 120 80 57 00
        e 0 80 58 00
        e 0 80 63 00
        e 0 80 64 00
        e 120 90 3d 60
        e 0 90 49 60
        e 0 90 4a 60
        e 0 90 55 60
        e 0 90 57 60
        e 0 90 61 60
        e 0 90 63 60
        e 120 80 3d 00
        e 0 80 49 00
        e 0 80 4a 00
        e 0 80 55 00
        e 0 80 57 00
        e 0 80 61 00
        e 0 80 63 00
        e 120 90 54 60
        e 0 90 60 60
        e 120 80 54 00
        e 0 80 60 00
        e 120 90 48 60
        e 0 90 49 60
        e 0 90 54 60
        e 0 90 55 60
        e 0 90 60 60
        e 0 90 61 60
        e 120 80 48 00
        e 0 80 49 00
        e 0 80 54 00
        e 0 80 55 00
        e 0 80 60 00
        e 0 80 61 00
        e 120 90 57 60
        e 0 90 58 60
        e 0 90 63 60
        e 0 90 64 60
        e 120 80 57 00
        e 0 80 58 00
        e 0 80 63 00
        e 0 80 64 00
        e 120 90 3d 60
        e 0 90 49 60
        e 0 90 4a 60
        e 0 90 55 60
        e 0 90 57 60
        e 0 90 61 60
        e 0 90 63 60
        e 120 80 3d 00
        e 0 80 49 00
        e 0 80 4a 00
        e 0 80 55 00
        e 0 80 57 00
        e 0 80 61 00
        e 0 80 63 00
        e 240 90 55 60
        e 0 90 57 60
        e 0 90 61 60
        e 0 90 63 60
        e 120 80 55 00
        e 0 80 57 00
        e 0 80 61 00
        e 0 80 63 00
        e 240 90 55 60
        e 0 90 57 60
        e 0 90 61 60
        e 0 90 63 60
        e 120 80 55 00
        e 0 80 57 00
        e 0 80 61 00
        e 0 80 63 00
        e 120 90 3c 60
        e 0 90 48 60
        e 0 90 54 60
        e 0 90 60 60
        e 120 80 3c 00
        e 0 80 48 00
        e 0 80 54 00
        e 0 80 60 00
        e 240 90 54 60
        e 0 90 56 60
        e 0 90 60 60
        e 0 90 62 60
        e 120 80 54 00
        e 0 80 56 00
        e 0 80 60 00
        e 0 80 62 00
        e 240 90 48 60
        e 0 90 4a 60
        e 0 90 54 60
        e 0 90 57 60
        e 0 90 60 60
        e 0 90 62 60
        e 0 90 63 60
        e 120 80 48 00
        e 0 80 4a 00
        e 0 80 54 00
        e 0 80 57 00
        e 0 80 60 00
        e 0 80 62 00
        e 0 80 63 00
        e 360 90 56 60
        e 0 90 57 60
        e 0 90 62 60
        e 0 90 63 60
        e 120 80 56 00
        e 0 80 57 00
        e 0 80 62 00
        e 0 80 63 00
        e 120 90 48 60
        e 0 90 4a 60
        e 0 90 55 60
        e 0 90 56 60
        e 0 90 61 60
        e 0 90 62 60
        e 120 80 48 00
        e 0 80 4a 00
        e 0 80 55 00
        e 0 80 56 00
        e 0 80 61 00
        e 0 80 62 00
        e 120 90 56 60
        e 0 90 57 60
        e 0 90 62 60
        e 0 90 63 60
        e 120 80 56 00
        e 0 80 57 00
        e 0 80 62 00
        e 0 80 63 00
        e 120 90 40 60
        e 0 90 4b 60
        e 0 90 4c 60
        e 0 90 57 60
        e 0 90 58 60
        e 0 90 63 60
        e 0 90 64 60
        e 120 80 40 00
        e 0 80 4b 00
        e 0 80 4c 00
        e 0 80 57 00
        e 0 80 58 00
        e 0 80 63 00
        e 0 80 64 00
        e 240 90 57 60
        e 0 90 58 60
        e 0 90 63 60
        e 0 90 64 60
        e 120 80 57 00
        e 0 80 58 00
        e 0 80 63 00
        e 0 80 64 00
        e 240 90 4b 60
        e 0 90 4c 60
        e 0 90 57 60
        e 0 90 58 60
        e 0 90 63 60
        e 0 90 64 60
        e 120 80 4b 00
        e 0 80 4c 00
        e 0 80 57 00
        e 0 80 58 00
        e 0 80 63 00
        e 0 80 64 00
        e 240 90 61 60
        e 120 80 61 00
        e 0 90 48 60
        e 0 90 4a 60
        e 0 90 55 60
        e 0 90 56 60
        e 0 90 61 60
        e 0 90 62 60
        e 120 80 48 00
        e 0 80 4a 00
        e 0 80 55 00
        e 0 80 56 00
        e 0 80 61 00
        e 0 80 62 00
        e 360 90 55 60
        e 0 90 56 60
        e 0 90 61 60
        e 0 90 62 60
        e 120 80 55 00
        e 0 80 56 00
        e 0 80 61 00
        e 0 80 62 00
        e 120 90 3e 60
        e 0 90 49 60
        e 0 90 4b 60
        e 0 90 56 60
        e 0 90 57 60
        e 0 90 62 60
        e 0 90 63 60
        e 120 80 3e 00
        e 0 80 49 00
        e 0 80 4b 00
        e 0 80 56 00
        e 0 80 57 00
        e 0 80 62 00
        e 0 80 63 00
        e 240 90 56 60
        e 0 90 57 60
        e 0 90 62 60
        e 0 90 63 60
        e 120 80 56 00
        e 0 80 57 00
        e 0 80 62 00
        e 0 80 63 00
        e 240 90 49 60
        e 0 90 4b 60
        e 0 90 56 60
        e 0 90 57 60
        e 0 90 62 60
        e 0 90 63 60
        e 120 80 49 00
        e 0 80 4b 00
        e 0 80 56 00
        e 0 80 57 00
        e 0 80 62 00
        e 0 80 63 00
        e 360 90 48 60
        e 0 90 4a 60
        e 0 90 55 60
        e 0 90 56 60
        e 0 90 61 60
        e 0 90 62 60
        e 120 80 48 00
        e 0 80 4a 00
        e 0 80 55 00
        e 0 80 56 00
        e 0 80 61 00
        e 0 80 62 00
        e 120 90 48 60
        e 0 90 4a 60
        e 0 90 55 60
        e 0 90 56 60
        e 0 90 61 60
        e 0 90 62 60
        e 120 80 48 00
        e 0 80 4a 00
        e 0 80 55 00
        e 0 80 56 00
        e 0 80 61 00
        e 0 80 62 00
        e 120 90 56 60
        e 0 90 57 60
        e 0 90 62 60
        e 0 90 63 60
        e 120 80 56 00
        e 0 80 57 00
        e 0 80 62 00
        e 0 80 63 00
        e 120 90 40 60
        e 0 90 4b 60
        e 0 90 4c 60
        e 0 90 57 60
        e 0 90 58 60
        e 0 90 63 60
        e 0 90 64 60
        e 120 80 40 00
        e 0 80 4b 00
        e 0 80 4c 00
        e 0 80 57 00
        e 0 80 58 00
        e 0 80 63 00
        e 0 80 64 00
        e 240 90 57 60
        e 0 90 58 60
        e 0 90 63 60
        e 0 90 64 60
        e 120 80 57 00
        e 0 80 58 00
        e 0 80 63 00
        e 0 80 64 00
        e 240 90 4b 60
        e 0 90 4c 60
        e 0 90 57 60
        e 0 90 58 60
        e 0 90 63 60
        e 0 90 64 60
        e 120 80 4b 00
        e 0 80 4c 00
        e 0 80 57 00
        e 0 80 58 00
        e 0 80 63 00
        e 0 80 64 00
        e 360 90 3c 60
        e 0 90 48 60
        e 0 90 4a 60
        e 0 90 55 60
        e 0 90 56 60
        e 0 90 61 60
        e 0 90 62 60
        e 120 80 3c 00
        e 0 80 48 00
        e 0 80 4a 00
        e 480 80 55 00
        e 0 80 56 00
        e 0 80 61 00
        e 0 80 62 00
        e 120 90 3c 60
        e 0 90 48 60
        e 0 90 4a 60
        e 0 90 55 60
        e 0 90 56 60
        e 0 90 61 60
        e 0 90 62 60
        e 120 80 3c 00
        e 0 80 48 00
        e 0 80 4a 00
        e 0 80 55 00
        e 0 80 56 00
        e 0 80 61 00
        e 0 80 62 00
        e 120 90 54 60
        e 0 90 60 60
        e 120 80 54 00
        e 0 80 60 00
        e 120 90 48 60
        e 0 90 54 60
        e 0 90 60 60
        e 120 80 48 00
        e 0 80 54 00
        e 0 80 60 00
        e 120 90 55 60
        e 0 90 56 60
        e 0 90 61 60
        e 0 90 62 60
        e 120 80 55 00
        e 0 80 56 00
        e 0 80 61 00
        e 0 80 62 00
        e 120 90 3e 60
        e 0 90 49 60
        e 0 90 4b 60
        e 0 90 56 60
        e 0 90 57 60
        e 0 90 62 60
        e 0 90 63 60
        e 120 80 3e 00
        e 0 80 49 00
        e 0 80 4b 00
        e 0 80 56 00
        e 0 80 57 00
        e 0 80 62 00
        e 0 80 63 00
        e 240 90 56 60
        e 0 90 57 60
        e 0 90 62 60
        e 0 90 63 60
        e 120 80 56 00
        e 0 80 57 00
        e 0 80 62 00
        e 0 80 63 00
        e 240 90 56 60
        e 0 90 57 60
        e 0 90 62 60
        e 0 90 63 60
        e 120 80 56 00
        e 0 80 57 00
        e 0 80 62 00
        e 0 80 63 00
        e 120 90 3c 60
        e 0 90 48 60
        e 0 90 4a 60
        e 0 90 55 60
        e 0 90 56 60
        e 0 90 61 60
        e 0 90 62 60
        e 120 80 3c 00
        e 0 80 48 00
        e 0 80 4a 00
        e 0 80 55 00
        e 0 80 56 00
        e 0 80 61 00
        e 0 80 62 00
        e 120 90 54 60
        e 0 90 60 60
        e 120 80 54 00
        e 0 80 60 00
        e 120 90 3c 60
        e 0 90 48 60
        e 0 90 54 60
        e 0 90 60 60
        e 120 80 3c 00
        e 0 80 48 00
        e 0 80 54 00
        e 0 80 60 00
        e 120 90 56 60
        e 0 90 57 60
        e 0 90 62 60
        e 0 90 63 60
        e 120 80 56 00
        e 0 80 57 00
        e 0 80 62 00
        e 0 80 63 00
        e 120 90 3c 60
        e 0 90 48 60
        e 0 90 4a 60
        e 0 90 55 60
        e 0 90 56 60
        e 0 90 61 60
        e 0 90 62 60
        e 120 80 3c 00
        e 0 80 48 00
        e 0 80 4a 00
        e 0 80 55 00
        e 0 80 56 00
        e 0 80 61 00
        e 0 80 62 00
        e 240 90 55 60
        e 0 90 56 60
        e 0 90 61 60
        e 0 90 62 60
        e 120 80 55 00
        e 0 80 56 00
        e 0 80 61 00
        e 0 80 62 00
        e 240 90 48 60
        e 0 90 4a 60
        e 0 90 55 60
        e 0 90 56 60
        e 0 90 61 60
        e 0 90 62 60
        e 120 80 48 00
        e 0 80 4a 00
        e 0 80 55 00
        e 0 80 56 00
        e 0 80 61 00
        e 0 80 62 00
        e 120 90 3c 60
        e 0 90 48 60
        e 0 90 4a 60
        e 0 90 55 60
        e 0 90 56 60
        e 0 90 61 60
        e 0 90 62 60
        e 120 80 3c 00
        e 0 80 48 00
        e 0 80 4a 00
        e 0 80 55 00
        e 0 80 56 00
        e 0 80 61 00
        e 0 80 62 00
        e 120 90 54 60
        e 0 90 60 60
        e 120 80 54 00
        e 0 80 60 00
        e 120 90 48 60
        e 0 90 54 60
        e 0 90 60 60
        e 120 80 48 00
        e 0 80 54 00
        e 0 80 60 00
        e 120 90 55 60
        e 0 90 56 60
        e 0 90 61 60
        e 0 90 62 60
        e 120 80 55 00
        e 0 80 56 00
        e 0 80 61 00
        e 0 80 62 00
        e 120 90 3e 60
        e 0 90 49 60
        e 0 90 4b 60
        e 0 90 56 60
        e 0 90 57 60
        e 0 90 62 60
        e 0 90 63 60
        e 120 80 3e 00
        e 0 80 49 00
        e 0 80 4b 00
        e 0 80 56 00
        e 0 80 57 00
        e 0 80 62 00
        e 0 80 63 00
        e 240 90 56 60
        e 0 90 57 60
        e 0 90 62 60
        e 0 90 63 60
        e 120 80 56 00
        e 0 80 57 00
        e 0 80 62 00
        e 0 80 63 00
        e 240 90 56 60
        e 0 90 57 60
        e 0 90 62 60
        e 0 90 63 60
        e 120 80 56 00
        e 0 80 57 00
        e 0 80 62 00
        e 0 80 63 00
        e 120 90 3c 60
        e 0 90 48 60
        e 0 90 4a 60
        e 0 90 55 60
        e 0 90 56 60
        e 0 90 61 60
        e 0 90 62 60
        e 120 80 3c 00
        e 0 80 48 00
        e 0 80 4a 00
        e 0 80 55 00
        e 0 80 56 00
        e 0 80 61 00
        e 0 80 62 00
        e 120 90 54 60
        e 0 90 60 60
        e 120 80 54 00
        e 0 80 60 00
        e 120 90 3c 60
        e 0 90 48 60
        e 0 90 54 60
        e 0 90 60 60
        e 120 80 3c 00
        e 0 80 48 00
        e 0 80 54 00
        e 0 80 60 00
        e 120 90 56 60
        e 0 90 57 60
        e 0 90 62 60
        e 0 90 63 60
        e 120 80 56 00
        e 0 80 57 00
        e 0 80 62 00
        e 0 80 63 00
        e 120 90 3c 60
        e 0 90 48 60
        e 0 90 4a 60
        e 0 90 55 60
        e 0 90 56 60
        e 0 90 61 60
        e 0 90 62 60
        e 120 80 3c 00
        e 0 80 48 00
        e 0 80 4a 00
        e 0 80 55 00
        e 0 80 56 00
        e 0 80 61 00
        e 0 80 62 00
        e 240 90 55 60
        e 0 90 56 60
        e 0 90 61 60
        e 0 90 62 60
        e 120 80 55 00
        e 0 80 56 00
        e 0 80 61 00
        e 0 80 62 00
        e 240 90 55 60
        e 0 90 56 60
        e 0 90 61 60
        e 0 90 62 60
        e 120 80 55 00
        e 0 80 56 00
        e 0 80 61 00
        e 0 80 62 00
        e 120 90 3c 60
        e 0 90 48 60
        e 0 90 54 60
        e 0 90 60 60
        e 120 80 3c 00
        e 0 80 48 00
        e 0 80 54 00
        e 0 80 60 00
        e 240 90 54 60
        e 0 90 56 60
        e 0 90 60 60
        e 0 90 62 60
        e 120 80 54 00
        e 0 80 56 00
        e 0 80 60 00
        e 0 80 62 00
        e 240 90 48 60
        e 0 90 4a 60
        e 0 90 54 60
        e 0 90 57 60
        e 0 90 60 60
        e 0 90 62 60
        e 0 90 63 60
        e 120 80 48 00
        e 0 80 4a 00
        e 0 80 54 00
        e 0 80 57 00
        e 0 80 60 00
        e 0 80 62 00
        e 0 80 63 00
        e 360 90 56 60
        e 0 90 57 60
        e 0 90 62 60
        e 0 90 63 60
        e 120 80 56 00
        e 0 80 57 00
        e 0 80 62 00
        e 0 80 63 00
        e 120 90 48 60
        e 0 90 4a 60
        e 0 90 55 60
        e 0 90 56 60
        e 0 90 61 60
        e 0 90 62 60
        e 120 80 48 00
        e 0 80 4a 00
        e 0 80 55 00
        e 0 80 56 00
        e 0 80 61 00
        e 0 80 62 00
        e 120 90 56 60
        e 0 90 57 60
        e 0 90 62 60
        e 0 90 63 60
        e 120 80 56 00
        e 0 80 57 00
        e 0 80 62 00
        e 0 80 63 00
        e 120 90 40 60
        e 0 90 4b 60
        e 0 90 4c 60
        e 0 90 57 60
        e 0 90 58 60
        e 0 90 63 60
        e 0 90 64 60
        e 120 80 40 00
        e 0 80 4b 00
        e 0 80 4c 00
        e 0 80 57 00
        e 0 80 58 00
        e 0 80 63 00
        e 0 80 64 00
        e 240 90 57 60
        e 0 90 58 60
        e 0 90 63 60
        e 0 90 64 60
        e 120 80 57 00
        e 0 80 58 00
        e 0 80 63 00
        e 0 80 64 00
        e 240 90 4b 60
        e 0 90 4c 60
        e 0 90 57 60
        e 0 90 58 60
        e 0 90 63 60
        e 0 90 64 60
        e 120 80 4b 00
        e 0 80 4c 00
        e 0 80 57 00
        e 0 80 58 00
        e 0 80 63 00
        e 0 80 64 00
        e 240 90 61 60
        e 120 80 61 00
        e 0 90 48 60
        e 0 90 4a 60
        e 0 90 55 60
        e 0 90 56 60
        e 0 90 61 60
        e 0 90 62 60
        e 120 80 48 00
        e 0 80 4a 00
        e 0 80 55 00
        e 0 80 56 00
        e 0 80 61 00
        e 0 80 62 00
        e 360 90 55 60
        e 0 90 56 60
        e 0 90 61 60
        e 0 90 62 60
        e 120 80 55 00
        e 0 80 56 00
        e 0 80 61 00
        e 0 80 62 00
        e 120 90 3e 60
        e 0 90 49 60
        e 0 90 4b 60
        e 0 90 56 60
        e 0 90 57 60
        e 0 90 62 60
        e 0 90 63 60
        e 120 80 3e 00
        e 0 80 49 00
        e 0 80 4b 00
        e 0 80 56 00
        e 0 80 57 00
        e 0 80 62 00
        e 0 80 63 00
        e 240 90 56 60
        e 0 90 57 60
        e 0 90 62 60
        e 0 90 63 60
        e 120 80 56 00
        e 0 80 57 00
        e 0 80 62 00
        e 0 80 63 00
        e 240 90 49 60
        e 0 90 4b 60
        e 0 90 56 60
        e 0 90 57 60
        e 0 90 62 60
        e 0 90 63 60
        e 120 80 49 00
        e 0 80 4b 00
        e 0 80 56 00
        e 0 80 57 00
        e 0 80 62 00
        e 0 80 63 00
        e 360 90 48 60
        e 0 90 4a 60
        e 0 90 55 60
        e 0 90 56 60
        e 0 90 61 60
        e 0 90 62 60
        e 120 80 48 00
        e 0 80 4a 00
        e 0 80 55 00
        e 0 80 56 00
        e 0 80 61 00
        e 0 80 62 00
        e 120 90 48 60
        e 0 90 4a 60
        e 0 90 55 60
        e 0 90 56 60
        e 0 90 61 60
        e 0 90 62 60
        e 120 80 48 00
        e 0 80 4a 00
        e 0 80 55 00
        e 0 80 56 00
        e 0 80 61 00
        e 0 80 62 00
        e 120 90 56 60
        e 0 90 57 60
        e 0 90 62 60
        e 0 90 63 60
        e 120 80 56 00
        e 0 80 57 00
        e 0 80 62 00
        e 0 80 63 00
        e 120 90 40 60
        e 0 90 4b 60
        e 0 90 4c 60
        e 0 90 57 60
        e 0 90 58 60
        e 0 90 63 60
        e 0 90 64 60
        e 120 80 40 00
        e 0 80 4b 00
        e 0 80 4c 00
        e 0 80 57 00
        e 0 80 58 00
        e 0 80 63 00
        e 0 80 64 00
        e 240 90 57 60
        e 0 90 58 60
        e 0 90 63 60
        e 0 90 64 60
        e 120 80 57 00
        e 0 80 58 00
        e 0 80 63 00
        e 0 80 64 00
        e 240 90 4b 60
        e 0 90 4c 60
        e 0 90 57 60
        e 0 90 58 60
        e 0 90 63 60
        e 0 90 64 60
        e 120 80 4b 00
        e 0 80 4c 00
        e 0 80 57 00
        e 0 80 58 00
        e 0 80 63 00
        e 0 80 64 00
        e 360 90 3c 60
        e 0 90 48 60
        e 0 90 4a 60
        e 0 90 55 60
        e 0 90 56 60
        e 0 90 61 60
        e 0 90 62 60
        e 120 80 3c 00
        e 0 80 48 00
        e 0 80 4a 00
        e 480 80 55 00
        e 0 80 56 00
        e 0 80 61 00
        e 0 80 62 00
        e 120 90 3c 60
        e 0 90 48 60
        e 0 90 4a 60
        e 0 90 55 60
        e 0 90 56 60
        e 0 90 61 60
        e 0 90 62 60
        e 120 80 3c 00
        e 0 80 48 00
        e 0 80 4a 00
        e 0 80 55 00
        e 0 80 56 00
        e 0 80 61 00
        e 0 80 62 00
        e 120 90 54 60
        e 0 90 60 60
        e 120 80 54 00
        e 0 80 60 00
        e 120 90 48 60
        e 0 90 54 60
        e 0 90 60 60
        e 120 80 48 00
        e 0 80 54 00
        e 0 80 60 00
        e 120 90 55 60
        e 0 90 56 60
        e 0 90 61 60
        e 0 90 62 60
        e 120 80 55 00
        e 0 80 56 00
        e 0 80 61 00
        e 0 80 62 00
        e 120 90 3e 60
        e 0 90 49 60
        e 0 90 4b 60
        e 0 90 56 60
        e 0 90 57 60
        e 0 90 62 60
        e 0 90 63 60
        e 120 80 3e 00
        e 0 80 49 00
        e 0 80 4b 00
        e 0 80 56 00
        e 0 80 57 00
        e 0 80 62 00
        e 0 80 63 00
        e 240 90 56 60
        e 0 90 57 60
        e 0 90 62 60
        e 0 90 63 60
        e 120 80 56 00
        e 0 80 57 00
        e 0 80 62 00
        e 0 80 63 00
        e 240 90 56 60
        e 0 90 57 60
        e 0 90 62 60
        e 0 90 63 60
        e 120 80 56 00
        e 0 80 57 00
        e 0 80 62 00
        e 0 80 63 00
        e 120 90 3c 60
        e 0 90 48 60
        e 0 90 4a 60
        e 0 90 55 60
        e 0 90 56 60
        e 0 90 61 60
        e 0 90 62 60
        e 120 80 3c 00
        e 0 80 48 00
        e 0 80 4a 00
        e 0 80 55 00
        e 0 80 56 00
        e 0 80 61 00
        e 0 80 62 00
        e 120 90 54 60
        e 0 90 60 60
        e 120 80 54 00
        e 0 80 60 00
        e 120 90 3c 60
        e 0 90 48 60
        e 0 90 54 60
        e 0 90 60 60
        e 120 80 3c 00
        e 0 80 48 00
        e 0 80 54 00
        e 0 80 60 00
        e 120 90 56 60
        e 0 90 57 60
        e 0 90 62 60
        e 0 90 63 60
        e 120 80 56 00
        e 0 80 57 00
        e 0 80 62 00
        e 0 80 63 00
        e 120 90 3c 60
        e 0 90 48 60
        e 0 90 4a 60
        e 0 90 55 60
        e 0 90 56 60
        e 0 90 61 60
        e 0 90 62 60
        e 120 80 3c 00
        e 0 80 48 00
        e 0 80 4a 00
        e 0 80 55 00
        e 0 80 56 00
        e 0 80 61 00
        e 0 80 62 00
        e 240 90 55 60
        e 0 90 56 60
        e 0 90 61 60
        e 0 90 62 60
        e 120 80 55 00
        e 0 80 56 00
        e 0 80 61 00
        e 0 80 62 00
        e 240 90 48 60
        e 0 90 4a 60
        e 0 90 55 60
        e 0 90 56 60
        e 0 90 61 60
        e 0 90 62 60
        e 120 80 48 00
        e 0 80 4a 00
        e 0 80 55 00
        e 0 80 56 00
        e 0 80 61 00
        e 0 80 62 00
        e 120 90 3c 60
        e 0 90 48 60
        e 0 90 4a 60
        e 0 90 55 60
        e 0 90 56 60
        e 0 90 61 60
        e 0 90 62 60
        e 120 80 3c 00
        e 0 80 48 00
        e 0 80 4a 00
        e 0 80 55 00
        e 0 80 56 00
        e 0 80 61 00
        e 0 80 62 00
        e 120 90 54 60
        e 0 90 60 60
        e 120 80 54 00
        e 0 80 60 00
        e 120 90 48 60
        e 0 90 54 60
        e 0 90 60 60
        e 120 80 48 00
        e 0 80 54 00
        e 0 80 60 00
        e 120 90 55 60
        e 0 90 56 60
        e 0 90 61 60
        e 0 90 62 60
        e 120 80 55 00
        e 0 80 56 00
        e 0 80 61 00
        e 0 80 62 00
        e 120 90 3e 60
        e 0 90 49 60
        e 0 90 4b 60
        e 0 90 56 60
        e 0 90 57 60
        e 0 90 62 60
        e 0 90 63 60
        e 120 80 3e 00
        e 0 80 49 00
        e 0 80 4b 00
        e 0 80 56 00
        e 0 80 57 00
        e 0 80 62 00
        e 0 80 63 00
        e 240 90 56 60
        e 0 90 57 60
        e 0 90 62 60
        e 0 90 63 60
        e 120 80 56 00
        e 0 80 57 00
        e 0 80 62 00
        e 0 80 63 00
        e 240 90 56 60
        e 0 90 57 60
        e 0 90 62 60
        e 0 90 63 60
        e 120 80 56 00
        e 0 80 57 00
        e 0 80 62 00
        e 0 80 63 00
        e 120 90 3c 60
        e 0 90 48 60
        e 0 90 4a 60
        e 0 90 55 60
        e 0 90 56 60
        e 0 90 61 60
        e 0 90 62 60
        e 120 80 3c 00
        e 0 80 48 00
        e 0 80 4a 00
        e 0 80 55 00
        e 0 80 56 00
        e 0 80 61 00
        e 0 80 62 00
        e 120 90 54 60
        e 0 90 60 60
        e 120 80 54 00
        e 0 80 60 00
        e 120 90 3c 60
        e 0 90 48 60
        e 0 90 54 60
        e 0 90 60 60
        e 120 80 3c 00
        e 0 80 48 00
        e 0 80 54 00
        e 0 80 60 00
        e 120 90 56 60
        e 0 90 57 60
        e 0 90 62 60
        e 0 90 63 60
        e 120 80 56 00
        e 0 80 57 00
        e 0 80 62 00
        e 0 80 63 00
        e 120 90 3c 60
        e 0 90 48 60
        e 0 90 4a 60
        e 0 90 55 60
        e 0 90 56 60
        e 0 90 61 60
        e 0 90 62 60
        e 120 80 3c 00
        e 0 80 48 00
        e 0 80 4a 00
        e 0 80 55 00
        e 0 80 56 00
        e 0 80 61 00
        e 0 80 62 00
        e 240 90 55 60
        e 0 90 56 60
        e 0 90 61 60
        e 0 90 62 60
        e 120 80 55 00
        e 0 80 56 00
        e 0 80 61 00
        e 0 80 62 00
        e 240 90 55 60
        e 0 90 56 60
        e 0 90 61 60
        e 0 90 62 60
        e 120 80 55 00
        e 0 80 56 00
        e 0 80 61 00
        e 0 80 62 00
        e 120 90 3c 60
        e 0 90 48 60
        e 0 90 54 60
        e 0 90 60 60
        e 120 80 3c 00
        e 0 80 48 00
        e 0 80 54 00
        e 0 80 60 00
        e 240 90 54 60
        e 0 90 56 60
        e 0 90 60 60
        e 0 90 62 60
        e 120 80 54 00
        e 0 80 56 00
        e 0 80 60 00
        e 0 80 62 00
        e 240 90 48 60
        e 0 90 4a 60
        e 0 90 54 60
        e 0 90 57 60
        e 0 90 60 60
        e 0 90 62 60
        e 0 90 63 60
        e 120 80 48 00
        e 0 80 4a 00
        e 0 80 54 00
        e 0 80 57 00
        e 0 80 60 00
        e 0 80 62 00
        e 0 80 63 00
        e 360 90 56 60
        e 0 90 57 60
        e 0 90 62 60
        e 0 90 63 60
        e 120 80 56 00
        e 0 80 57 00
        e 0 80 62 00
        e 0 80 63 00
        e 120 90 48 60
        e 0 90 4a 60
        e 0 90 55 60
        e 0 90 56 60
        e 0 90 61 60
        e 0 90 62 60
        e 120 80 48 00
        e 0 80 4a 00
        e 0 80 55 00
        e 0 80 56 00
        e 0 80 61 00
        e 0 80 62 00
        e 120 90 56 60
        e 0 90 57 60
        e 0 90 62 60
        e 0 90 63 60
        e 120 80 56 00
        e 0 80 57 00
        e 0 80 62 00
        e 0 80 63 00
        e 120 90 40 60
        e 0 90 4b 60
        e 0 90 4c 60
        e 0 90 57 60
        e 0 90 58 60
        e 0 90 63 60
        e 0 90 64 60
        e 120 80 40 00
        e 0 80 4b 00
        e 0 80 4c 00
        e 0 80 57 00
        e 0 80 58 00
        e 0 80 63 00
        e 0 80 64 00
        e 240 90 57 60
        e 0 90 58 60
        e 0 90 63 60
        e 0 90 64 60
        e 120 80 57 00
        e 0 80 58 00
        e 0 80 63 00
        e 0 80 64 00
        e 240 90 4b 60
        e 0 90 4c 60
        e 0 90 57 60
        e 0 90 58 60
        e 0 90 63 60
        e 0 90 64 60
        e 120 80 4b 00
        e 0 80 4c 00
        e 0 80 57 00
        e 0 80 58 00
        e 0 80 63 00
        e 0 80 64 00
        e 240 90 61 60
        e 120 80 61 00
        e 0 90 48 60
        e 0 90 4a 60
        e 0 90 55 60
        e 0 90 56 60
        e 0 90 61 60
        e 0 90 62 60
        e 120 80 48 00
        e 0 80 4a 00
        e 0 80 55 00
        e 0 80 56 00
        e 0 80 61 00
        e 0 80 62 00
        e 360 90 55 60
        e 0 90 56 60
        e 0 90 61 60
        e 0 90 62 60
        e 120 80 55 00
        e 0 80 56 00
        e 0 80 61 00
        e 0 80 62 00
        e 120 90 3e 60
        e 0 90 49 60
        e 0 90 4b 60
        e 0 90 56 60
        e 0 90 57 60
        e 0 90 62 60
        e 0 90 63 60
        e 120 80 3e 00
        e 0 80 49 00
        e 0 80 4b 00
        e 0 80 56 00
        e 0 80 57 00
        e 0 80 62 00
        e 0 80 63 00
        e 240 90 56 60
        e 0 90 57 60
        e 0 90 62 60
        e 0 90 63 60
        e 120 80 56 00
        e 0 80 57 00
        e 0 80 62 00
        e 0 80 63 00
        e 240 90 49 60
        e 0 90 4b 60
        e 0 90 56 60
        e 0 90 57 60
        e 0 90 62 60
        e 0 90 63 60
        e 120 80 49 00
        e 0 80 4b 00
        e 0 80 56 00
        e 0 80 57 00
        e 0 80 62 00
        e 0 80 63 00
        e 360 90 48 60
        e 0 90 4a 60
        e 0 90 55 60
        e 0 90 56 60
        e 0 90 61 60
        e 0 90 62 60
        e 120 80 48 00
        e 0 80 4a 00
        e 0 80 55 00
        e 0 80 56 00
        e 0 80 61 00
        e 0 80 62 00
        e 120 90 48 60
        e 0 90 4a 60
        e 0 90 55 60
        e 0 90 56 60
        e 0 90 61 60
        e 0 90 62 60
        e 120 80 48 00
        e 0 80 4a 00
        e 0 80 55 00
        e 0 80 56 00
        e 0 80 61 00
        e 0 80 62 00
        e 120 90 56 60
        e 0 90 57 60
        e 0 90 62 60
        e 0 90 63 60
        e 120 80 56 00
        e 0 80 57 00
        e 0 80 62 00
        e 0 80 63 00
        e 120 90 40 60
        e 0 90 4b 60
        e 0 90 4c 60
        e 0 90 57 60
        e 0 90 58 60
        e 0 90 63 60
        e 0 90 64 60
        e 120 80 40 00
        e 0 80 4b 00
        e 0 80 4c 00
        e 0 80 57 00
        e 0 80 58 00
        e 0 80 63 00
        e 0 80 64 00
        e 240 90 57 60
        e 0 90 58 60
        e 0 90 63 60
        e 0 90 64 60
        e 120 80 57 00
        e 0 80 58 00
        e 0 80 63 00
        e 0 80 64 00
        e 240 90 4b 60
        e 0 90 4c 60
        e 0 90 57 60
        e 0 90 58 60
        e 0 90 63 60
        e 0 90 64 60
        e 120 80 4b 00
        e 0 80 4c 00
        e 0 80 57 00
        e 0 80 58 00
        e 0 80 63 00
        e 0 80 64 00
        e 360 90 48 60
        e 0 90 4a 60
        e 0 90 55 60
        e 0 90 56 60
        e 0 90 61 60
        e 0 90 62 60
        e 120 80 48 00
        e 0 80 4a 00
        e 480 80 55 00
        e 0 80 56 00
        e 0 80 61 00
        e 0 80 62 00
        e 120 90 40 60
        e 0 90 4b 60
        e 0 90 4c 60
        e 0 90 57 60
        e 0 90 58 60
        e 0 90 63 60
        e 0 90 64 60
        e 120 80 40 00
        e 0 80 4b 00
        e 0 80 4c 00
        e 0 80 57 00
        e 0 80 58 00
        e 0 80 63 00
        e 0 80 64 00
        e 120 90 54 60
        e 0 90 60 60
        e 120 80 54 00
        e 0 80 60 00
        e 120 90 48 60
        e 0 90 54 60
        e 0 90 60 60
        e 120 80 48 00
        e 0 80 54 00
        e 0 80 60 00
        e 120 90 55 60
        e 0 90 57 60
        e 0 90 61 60
        e 0 90 63 60
        e 120 80 55 00
        e 0 80 57 00
        e 0 80 61 00
        e 0 80 63 00
        e 120 90 3c 60
        e 0 90 48 60
        e 0 90 54 60
        e 0 90 60 60
        e 120 80 3c 00
        e 0 80 48 00
        e 0 80 54 00
        e 0 80 60 00
        e 120 90 54 60
        e 0 90 60 60
        e 120 80 54 00
        e 0 80 60 00
        e 120 90 48 60
        e 0 90 4a 60
        e 0 90 55 60
        e 0 90 56 60
        e 0 90 61 60
        e 0 90 62 60
        e 120 80 48 00
        e 0 80 4a 00
        e 0 80 55 00
        e 0 80 56 00
        e 0 80 61 00
        e 0 80 62 00
        e 120 90 54 60
        e 0 90 60 60
        e 120 80 54 00
        e 0 80 60 00
        e 120 90 3d 60
        e 0 90 49 60
        e 0 90 4a 60
        e 0 90 55 60
        e 0 90 57 60
        e 0 90 61 60
        e 0 90 63 60
        e 120 80 3d 00
        e 0 80 49 00
        e 0 80 4a 00
        e 0 80 55 00
        e 0 80 57 00
        e 0 80 61 00
        e 0 80 63 00
        e 120 90 54 60
        e 0 90 60 60
        e 120 80 54 00
        e 0 80 60 00
        e 120 90 49 60
        e 0 90 4b 60
        e 0 90 56 60
        e 0 90 57 60
        e 0 90 62 60
        e 0 90 63 60
        e 120 80 49 00
        e 0 80 4b 00
        e 0 80 56 00
        e 0 80 57 00
        e 0 80 62 00
        e 0 80 63 00
        e 120 90 54 60
        e 0 90 60 60
        e 120 80 54 00
        e 0 80 60 00
        e 120 90 40 60
        e 0 90 4b 60
        e 0 90 4c 60
        e 0 90 57 60
        e 0 90 58 60
        e 0 90 63 60
        e 0 90 64 60
        e 120 80 40 00
        e 0 80 4b 00
        e 0 80 4c 00
        e 0 80 57 00
        e 0 80 58 00
        e 0 80 63 00
        e 0 80 64 00
        e 120 90 54 60
        e 0 90 60 60
        e 120 80 54 00
        e 0 80 60 00
        e 120 90 48 60
        e 0 90 54 60
        e 0 90 60 60
        e 120 80 48 00
        e 0 80 54 00
        e 0 80 60 00
        e 120 90 55 60
        e 0 90 57 60
        e 0 90 61 60
        e 0 90 63 60
        e 120 80 55 00
        e 0 80 57 00
        e 0 80 61 00
        e 0 80 63 00
        e 120 90 3c 60
        e 0 90 48 60
        e 0 90 54 60
        e 0 90 60 60
        e 120 80 3c 00
        e 0 80 48 00
        e 0 80 54 00
        e 0 80 60 00
        e 120 90 54 60
        e 0 90 60 60
        e 120 80 54 00
        e 0 80 60 00
        e 120 90 48 60
        e 0 90 4a 60
        e 0 90 55 60
        e 0 90 56 60
        e 0 90 61 60
        e 0 90 62 60
        e 120 80 48 00
        e 0 80 4a 00
        e 0 80 55 00
        e 0 80 56 00
        e 0 80 61 00
        e 0 80 62 00
        e 120 90 54 60
        e 0 90 60 60
        e 120 80 54 00
        e 0 80 60 00
        e 120 90 3e 60
        e 0 90 49 60
        e 0 90 4b 60
        e 0 90 56 60
        e 0 90 57 60
        e 0 90 62 60
        e 0 90 63 60
        e 120 80 3e 00
        e 0 80 49 00
        e 0 80 4b 00
        e 0 80 56 00
        e 0 80 57 00
        e 0 80 62 00
        e 0 80 63 00
        e 120 90 54 60
        e 0 90 60 60
        e 120 80 54 00
        e 0 80 60 00
        e 120 90 49 60
        e 0 90 4a 60
        e 0 90 55 60
        e 0 90 57 60
        e 0 90 61 60
        e 0 90 63 60
        e 120 80 49 00
        e 0 80 4a 00
        e 0 80 55 00
        e 0 80 57 00
        e 0 80 61 00
        e 0 80 63 00
        e 120 90 54 60
        e 0 90 60 60
        e 120 80 54 00
        e 0 80 60 00
        e 120 90 40 60
        e 0 90 4b 60
        e 0 90 4c 60
        e 0 90 57 60
        e 0 90 58 60
        e 0 90 63 60
        e 0 90 64 60
        e 120 80 40 00
        e 0 80 4b 00
        e 0 80 4c 00
        e 0 80 57 00
        e 0 80 58 00
        e 0 80 63 00
        e 0 80 64 00
        e 120 90 54 60
        e 0 90 60 60
        e 120 80 54 00
        e 0 80 60 00
        e 120 90 48 60
        e 0 90 54 60
        e 0 90 60 60
        e 120 80 48 00
        e 0 80 54 00
        e 0 80 60 00
        e 120 90 55 60
        e 0 90 57 60
        e 0 90 61 60
        e 0 90 63 60
        e 120 80 55 00
        e 0 80 57 00
        e 0 80 61 00
        e 0 80 63 00
        e 119 90 3c 60
        e 0 90 48 60
        e 0 90 54 60
        e 0 90 60 60
        e 60 80 3c 00
        e 0 80 48 00
        e 0 80 54 00
        e 0 80 60 00
        e 181 90 54 60
        e 0 90 60 60
        e 120 80 54 00
        e 0 80 60 00
        e 120 90 48 60
        e 0 90 4a 60
        e 0 90 55 60
        e 0 90 56 60
        e 0 90 61 60
        e 0 90 62 60
        e 120 80 48 00
        e 0 80 4a 00
        e 0 80 55 00
        e 0 80 56 00
        e 0 80 61 00
        e 0 80 62 00
        e 120 90 54 60
        e 0 90 60 60
        e 120 80 54 00
        e 0 80 60 00
        e 120 90 3d 60
        e 0 90 49 60
        e 0 90 4a 60
        e 0 90 55 60
        e 0 90 57 60
        e 0 90 61 60
        e 0 90 63 60
        e 120 80 3d 00
        e 0 80 49 00
        e 0 80 4a 00
        e 0 80 55 00
        e 0 80 57 00
        e 0 80 61 00
        e 0 80 63 00
        e 120 90 54 60
        e 0 90 60 60
        e 120 80 54 00
        e 0 80 60 00
        e 120 90 49 60
        e 0 90 4b 60
        e 0 90 56 60
        e 0 90 57 60
        e 0 90 62 60
        e 0 90 63 60
        e 120 80 49 00
        e 0 80 4b 00
        e 0 80 56 00
        e 0 80 57 00
        e 0 80 62 00
        e 0 80 63 00
        e 120 90 54 60
        e 0 90 60 60
        e 120 80 54 00
        e 0 80 60 00
        e 120 90 40 60
        e 0 90 4b 60
        e 0 90 4c 60
        e 0 90 57 60
        e 0 90 58 60
        e 0 90 63 60
        e 0 90 64 60
        e 120 80 40 00
        e 0 80 4b 00
        e 0 80 4c 00
        e 0 80 57 00
        e 0 80 58 00
        e 0 80 63 00
        e 0 80 64 00
        e 120 90 54 60
        e 0 90 60 60
        e 120 80 54 00
        e 0 80 60 00
        e 120 90 48 60
        e 0 90 54 60
        e 0 90 60 60
        e 120 80 48 00
        e 0 80 54 00
        e 0 80 60 00
        e 120 90 55 60
        e 0 90 57 60
        e 0 90 61 60
        e 0 90 63 60
        e 120 80 55 00
        e 0 80 57 00
        e 0 80 61 00
        e 0 80 63 00
        e 120 90 3c 60
        e 0 90 48 60
        e 0 90 54 60
        e 0 90 60 60
        e 120 80 3c 00
        e 0 80 48 00
        e 0 80 54 00
        e 0 80 60 00
        e 120 90 54 60
        e 0 90 60 60
        e 120 80 54 00
        e 0 80 60 00
        e 120 90 48 60
        e 0 90 4a 60
        e 0 90 55 60
        e 0 90 56 60
        e 0 90 61 60
        e 0 90 62 60
        e 120 80 48 00
        e 0 80 4a 00
        e 0 80 55 00
        e 0 80 56 00
        e 0 80 61 00
        e 0 80 62 00
        e 120 90 54 60
        e 0 90 60 60
        e 120 80 54 00
        e 0 80 60 00
        e 120 90 3e 60
        e 0 90 49 60
        e 0 90 4b 60
        e 0 90 56 60
        e 0 90 57 60
        e 0 90 62 60
        e 0 90 63 60
        e 120 80 3e 00
        e 0 80 49 00
        e 0 80 4b 00
        e 0 80 56 00
        e 0 80 57 00
        e 0 80 62 00
        e 0 80 63 00
        e 120 90 54 60
        e 0 90 60 60
        e 120 80 54 00
        e 0 80 60 00
        e 120 90 49 60
        e 0 90 4a 60
        e 0 90 55 60
        e 0 90 57 60
        e 0 90 61 60
        e 0 90 63 60
        e 120 80 49 00
        e 0 80 4a 00
        e 0 80 55 00
        e 0 80 57 00
        e 0 80 61 00
        e 0 80 63 00
        e 120 90 54 60
        e 0 90 60 60
        e 120 80 54 00
        e 0 80 60 00
        e 120 90 3e 60
        e 0 90 49 60
        e 0 90 4b 60
        e 0 90 56 60
        e 0 90 57 60
        e 0 90 62 60
        e 0 90 63 60
        e 120 80 3e 00
        e 0 80 49 00
        e 0 80 4b 00
        e 0 80 56 00
        e 0 80 57 00
        e 0 80 62 00
        e 0 80 63 00
        e 240 90 56 60
        e 0 90 57 60
        e 0 90 62 60
        e 0 90 63 60
        e 120 80 56 00
        e 0 80 57 00
        e 0 80 62 00
        e 0 80 63 00
        e 240 90 49 60
        e 0 90 4b 60
        e 0 90 56 60
        e 0 90 57 60
        e 0 90 62 60
        e 0 90 63 60
        e 120 80 49 00
        e 0 80 4b 00
        e 0 80 56 00
        e 0 80 57 00
        e 0 80 62 00
        e 0 80 63 00
        e 360 90 56 60
        e 0 90 57 60
        e 0 90 62 60
        e 0 90 63 60
        e 120 80 56 00
        e 0 80 57 00
        e 0 80 62 00
        e 0 80 63 00
        e 120 90 48 60
        e 0 90 4a 60
        e 0 90 55 60
        e 0 90 56 60
        e 0 90 61 60
        e 0 90 62 60
        e 120 80 48 00
        e 0 80 4a 00
        e 0 80 55 00
        e 0 80 56 00
        e 0 80 61 00
        e 0 80 62 00
        e 120 90 56 60
        e 0 90 57 60
        e 0 90 62 60
        e 0 90 63 60
        e 120 80 56 00
        e 0 80 57 00
        e 0 80 62 00
        e 0 80 63 00
        e 120 90 40 60
        e 0 90 4b 60
        e 0 90 4c 60
        e 0 90 57 60
        e 0 90 58 60
        e 0 90 63 60
        e 0 90 64 60
        e 120 80 40 00
        e 0 80 4b 00
        e 0 80 4c 00
        e 0 80 57 00
        e 0 80 58 00
        e 0 80 63 00
        e 0 80 64 00
        e 240 90 57 60
        e 0 90 58 60
        e 0 90 63 60
        e 0 90 64 60
        e 120 80 57 00
        e 0 80 58 00
        e 0 80 63 00
        e 0 80 64 00
        e 240 90 4b 60
        e 0 90 4c 60
        e 0 90 57 60
        e 0 90 58 60
        e 0 90 63 60
        e 0 90 64 60
        e 120 80 4b 00
        e 0 80 4c 00
        e 0 80 57 00
        e 0 80 58 00
        e 0 80 63 00
        e 0 80 64 00
        e 240 90 61 60
        e 120 80 61 00
        e 0 90 48 60
        e 0 90 4a 60
        e 0 90 55 60
        e 0 90 56 60
        e 0 90 61 60
        e 0 90 62 60
        e 120 80 48 00
        e 0 80 4a 00
        e 0 80 55 00
        e 0 80 56 00
        e 0 80 61 00
        e 0 80 62 00
        e 360 90 55 60
        e 0 90 56 60
        e 0 90 61 60
        e 0 90 62 60
        e 120 80 55 00
        e 0 80 56 00
        e 0 80 61 00
        e 0 80 62 00
        e 120 90 3e 60
        e 0 90 49 60
        e 0 90 4b 60
        e 0 90 56 60
        e 0 90 57 60
        e 0 90 62 60
        e 0 90 63 60
        e 120 80 3e 00
        e 0 80 49 00
        e 0 80 4b 00
        e 0 80 56 00
        e 0 80 57 00
        e 0 80 62 00
        e 0 80 63 00
        e 240 90 56 60
        e 0 90 57 60
        e 0 90 62 60
        e 0 90 63 60
        e 120 80 56 00
        e 0 80 57 00
        e 0 80 62 00
        e 0 80 63 00
        e 240 90 49 60
        e 0 90 4b 60
        e 0 90 56 60
        e 0 90 57 60
        e 0 90 62 60
        e 0 90 63 60
        e 120 80 49 00
        e 0 80 4b 00
        e 0 80 56 00
        e 0 80 57 00
        e 0 80 62 00
        e 0 80 63 00
        e 360 90 48 60
        e 0 90 4a 60
        e 0 90 55 60
        e 0 90 56 60
        e 0 90 61 60
        e 0 90 62 60
        e 120 80 48 00
        e 0 80 4a 00
        e 0 80 55 00
        e 0 80 56 00
        e 0 80 61 00
        e 0 80 62 00
        e 120 90 48 60
        e 0 90 4a 60
        e 0 90 55 60
        e 0 90 56 60
        e 0 90 61 60
        e 0 90 62 60
        e 120 80 48 00
        e 0 80 4a 00
        e 0 80 55 00
        e 0 80 56 00
        e 0 80 61 00
        e 0 80 62 00
        e 120 90 56 60
        e 0 90 57 60
        e 0 90 62 60
        e 0 90 63 60
        e 120 80 56 00
        e 0 80 57 00
        e 0 80 62 00
        e 0 80 63 00
        e 120 90 40 60
        e 0 90 4b 60
        e 0 90 4c 60
        e 0 90 57 60
        e 0 90 58 60
        e 0 90 63 60
        e 0 90 64 60
        e 120 80 40 00
        e 0 80 4b 00
        e 0 80 4c 00
        e 0 80 57 00
        e 0 80 58 00
        e 0 80 63 00
        e 0 80 64 00
        e 240 90 57 60
        e 0 90 58 60
        e 0 90 63 60
        e 0 90 64 60
        e 120 80 57 00
        e 0 80 58 00
        e 0 80 63 00
        e 0 80 64 00
        e 240 90 4b 60
        e 0 90 4c 60
        e 0 90 57 60
        e 0 90 58 60
        e 0 90 63 60
        e 0 90 64 60
        e 120 80 4b 00
        e 0 80 4c 00
        e 0 80 57 00
        e 0 80 58 00
        e 0 80 63 00
        e 0 80 64 00
        e 360 90 48 60
        e 0 90 4a 60
        e 0 90 55 60
        e 0 90 56 60
        e 0 90 61 60
        e 0 90 62 60
        e 120 80 48 00
        e 0 80 4a 00
        e 0 80 55 00
        e 0 80 56 00
        e 0 80 61 00
        e 0 80 62 00
        e 360 90 55 60
        e 0 90 56 60
        e 0 90 61 60
        e 0 90 62 60
        e 120 80 55 00
        e 0 80 56 00
        e 0 80 61 00
        e 0 80 62 00
        e 120 90 40 60
        e 0 90 4b 60
        e 0 90 4c 60
        e 0 90 57 60
        e 0 90 58 60
        e 0 90 63 60
        e 0 90 64 60
        e 120 80 40 00
        e 0 80 4b 00
        e 0 80 4c 00
        e 0 80 57 00
        e 0 80 58 00
        e 0 80 63 00
        e 0 80 64 00
        e 120 90 54 60
        e 0 90 60 60
        e 120 80 54 00
        e 0 80 60 00
        e 120 90 48 60
        e 0 90 54 60
        e 0 90 60 60
        e 120 80 48 00
        e 0 80 54 00
        e 0 80 60 00
        e 120 90 55 60
        e 0 90 57 60
        e 0 90 61 60
        e 0 90 63 60
        e 120 80 55 00
        e 0 80 57 00
        e 0 80 61 00
        e 0 80 63 00
        e 120 90 3c 60
        e 0 90 48 60
        e 0 90 54 60
        e 0 90 60 60
        e 120 80 3c 00
        e 0 80 48 00
        e 0 80 54 00
        e 0 80 60 00
        e 120 90 54 60
        e 0 90 60 60
        e 120 80 54 00
        e 0 80 60 00
        e 120 90 48 60
        e 0 90 4a 60
        e 0 90 55 60
        e 0 90 56 60
        e 0 90 61 60
        e 0 90 62 60
        e 120 80 48 00
        e 0 80 4a 00
        e 0 80 55 00
        e 0 80 56 00
        e 0 80 61 00
        e 0 80 62 00
        e 120 90 54 60
        e 0 90 60 60
        e 120 80 54 00
        e 0 80 60 00
        e 120 90 3d 60
        e 0 90 49 60
        e 0 90 4a 60
        e 0 90 55 60
        e 0 90 57 60
        e 0 90 61 60
        e 0 90 63 60
        e 120 80 3d 00
        e 0 80 49 00
        e 0 80 4a 00
        e 0 80 55 00
        e 0 80 57 00
        e 0 80 61 00
        e 0 80 63 00
        e 120 90 54 60
        e 0 90 60 60
        e 120 80 54 00
        e 0 80 60 00
        e 120 90 49 60
        e 0 90 4b 60
        e 0 90 56 60
        e 0 90 57 60
        e 0 90 62 60
        e 0 90 63 60
        e 120 80 49 00
        e 0 80 4b 00
        e 0 80 56 00
        e 0 80 57 00
        e 0 80 62 00
        e 0 80 63 00
        e 120 90 54 60
        e 0 90 60 60
        e 120 80 54 00
        e 0 80 60 00
        e 120 90 40 60
        e 0 90 4b 60
        e 0 90 4c 60
        e 0 90 57 60
        e 0 90 58 60
        e 0 90 63 60
        e 0 90 64 60
        e 120 80 40 00
        e 0 80 4b 00
        e 0 80 4c 00
        e 0 80 57 00
        e 0 80 58 00
        e 0 80 63 00
        e 0 80 64 00
        e 120 90 54 60
        e 0 90 60 60
        e 120 80 54 00
        e 0 80 60 00
        e 120 90 48 60
        e 0 90 54 60
        e 0 90 60 60
        e 120 80 48 00
        e 0 80 54 00
        e 0 80 60 00
        e 120 90 55 60
        e 0 90 57 60
        e 0 90 61 60
        e 0 90 63 60
        e 120 80 55 00
        e 0 80 57 00
        e 0 80 61 00
        e 0 80 63 00
        e 120 90 3c 60
        e 0 90 48 60
        e 0 90 54 60
        e 0 90 60 60
        e 120 80 3c 00
        e 0 80 48 00
        e 0 80 54 00
        e 0 80 60 00
        e 120 90 54 60
        e 0 90 60 60
        e 120 80 54 00
        e 0 80 60 00
        e 120 90 48 60
        e 0 90 4a 60
        e 0 90 55 60
        e 0 90 56 60
        e 0 90 61 60
        e 0 90 62 60
        e 120 80 48 00
        e 0 80 4a 00
        e 0 80 55 00
        e 0 80 56 00
        e 0 80 61 00
        e 0 80 62 00
        e 120 90 54 60
        e 0 90 60 60
        e 120 80 54 00
        e 0 80 60 00
        e 120 90 3e 60
        e 0 90 49 60
        e 0 90 4b 60
        e 0 90 56 60
        e 0 90 57 60
        e 0 90 62 60
        e 0 90 63 60
        e 120 80 3e 00
        e 0 80 49 00
        e 0 80 4b 00
        e 0 80 56 00
        e 0 80 57 00
        e 0 80 62 00
        e 0 80 63 00
        e 120 90 54 60
        e 0 90 60 60
        e 120 80 54 00
        e 0 80 60 00
        e 120 90 49 60
        e 0 90 4a 60
        e 0 90 55 60
        e 0 90 57 60
        e 0 90 61 60
        e 0 90 63 60
        e 120 80 49 00
        e 0 80 4a 00
        e 0 80 55 00
        e 0 80 57 00
        e 0 80 61 00
        e 0 80 63 00
        e 120 90 54 60
        e 0 90 60 60
        e 120 80 54 00
        e 0 80 60 00
        e 120 90 3e 60
        e 0 90 49 60
        e 0 90 4b 60
        e 0 90 56 60
        e 0 90 57 60
        e 0 90 62 60
        e 0 90 63 60
        e 120 80 3e 00
        e 0 80 49 00
        e 0 80 4b 00
        e 0 80 56 00
        e 0 80 57 00
        e 0 80 62 00
        e 0 80 63 00
        e 240 90 56 60
        e 0 90 57 60
        e 0 90 62 60
        e 0 90 63 60
        e 120 80 56 00
        e 0 80 57 00
        e 0 80 62 00
        e 0 80 63 00
        e 240 90 49 60
        e 0 90 4b 60
        e 0 90 56 60
        e 0 90 57 60
        e 0 90 62 60
        e 0 90 63 60
        e 120 80 49 00
        e 0 80 4b 00
        e 0 80 56 00
        e 0 80 57 00
        e 0 80 62 00
        e 0 80 63 00
        e 360 90 48 60
        e 0 90 4a 60
        e 0 90 55 60
        e 0 90 56 60
        e 0 90 61 60
        e 0 90 62 60
        e 120 80 48 00
        e 0 80 4a 00
        e 0 80 55 00
        e 0 80 56 00
        e 0 80 61 00
        e 0 80 62 00
        e 120 90 48 60
        e 0 90 4a 60
        e 0 90 55 60
        e 0 90 56 60
        e 0 90 61 60
        e 0 90 62 60
        e 120 80 48 00
        e 0 80 4a 00
        e 0 80 55 00
        e 0 80 56 00
        e 0 80 61 00
        e 0 80 62 00
        e 120 90 56 60
        e 0 90 57 60
        e 0 90 62 60
        e 0 90 63 60
        e 120 80 56 00
        e 0 80 57 00
        e 0 80 62 00
        e 0 80 63 00
        e 120 90 40 60
        e 0 90 4b 60
        e 0 90 4c 60
        e 0 90 57 60
        e 0 90 58 60
        e 0 90 63 60
        e 0 90 64 60
        e 120 80 40 00
        e 0 80 4b 00
        e 0 80 4c 00
        e 0 80 57 00
        e 0 80 58 00
        e 0 80 63 00
        e 0 80 64 00
        e 240 90 57 60
        e 0 90 58 60
        e 0 90 63 60
        e 0 90 64 60
        e 120 80 57 00
        e 0 80 58 00
        e 0 80 63 00
        e 0 80 64 00
        e 240 90 4b 60
        e 0 90 4c 60
        e 0 90 57 60
        e 0 90 58 60
        e 0 90 63 60
        e 0 90 64 60
        e 120 80 4b 00
        e 0 80 4c 00
        e 0 80 57 00
        e 0 80 58 00
        e 0 80 63 00
        e 0 80 64 00
        e 120 90 40 60
        e 0 90 4b 60
        e 0 90 4c 60
        e 0 90 57 60
        e 0 90 58 60
        e 0 90 63 60
        e 0 90 64 60
        e 120 80 40 00
        e 0 80 4b 00
        e 0 80 4c 00
        e 0 80 57 00
        e 0 80 58 00
        e 0 80 63 00
        e 0 80 64 00
        e 120 90 54 60
        e 0 90 60 60
        e 120 80 54 00
        e 0 80 60 00
        e 120 90 48 60
        e 0 90 54 60
        e 0 90 60 60
        e 120 80 48 00
        e 0 80 54 00
        e 0 80 60 00
        e 120 90 55 60
        e 0 90 57 60
        e 0 90 61 60
        e 0 90 63 60
        e 120 80 55 00
        e 0 80 57 00
        e 0 80 61 00
        e 0 80 63 00
        e 120 90 3c 60
        e 0 90 48 60
        e 0 90 54 60
        e 0 90 60 60
        e 120 80 3c 00
        e 0 80 48 00
        e 0 80 54 00
        e 0 80 60 00
        e 120 90 54 60
        e 0 90 60 60
        e 120 80 54 00
        e 0 80 60 00
        e 120 90 48 60
        e 0 90 4a 60
        e 0 90 55 60
        e 0 90 56 60
        e 0 90 61 60
        e 0 90 62 60
        e 120 80 48 00
        e 0 80 4a 00
        e 0 80 55 00
        e 0 80 56 00
        e 0 80 61 00
        e 0 80 62 00
        e 120 90 54 60
        e 0 90 60 60
        e 120 80 54 00
        e 0 80 60 00
        e 120 90 3d 60
        e 0 90 49 60
        e 0 90 4a 60
        e 0 90 55 60
        e 0 90 57 60
        e 0 90 61 60
        e 0 90 63 60
        e 120 80 3d 00
        e 0 80 49 00
        e 0 80 4a 00
        e 0 80 55 00
        e 0 80 57 00
        e 0 80 61 00
        e 0 80 63 00
        e 120 90 54 60
        e 0 90 60 60
        e 120 80 54 00
        e 0 80 60 00
        e 120 90 49 60
        e 0 90 4b 60
        e 0 90 56 60
        e 0 90 57 60
        e 0 90 62 60
        e 0 90 63 60
        e 120 80 49 00
        e 0 80 4b 00
        e 0 80 56 00
        e 0 80 57 00
        e 0 80 62 00
        e 0 80 63 00
        e 120 90 54 60
        e 0 90 60 60
        e 120 80 54 00
        e 0 80 60 00
        e 120 90 40 60
        e 0 90 4b 60
        e 0 90 4c 60
        e 0 90 57 60
        e 0 90 58 60
        e 0 90 63 60
        e 0 90 64 60
        e 120 80 40 00
        e 0 80 4b 00
        e 0 80 4c 00
        e 0 80 57 00
        e 0 80 58 00
        e 0 80 63 00
        e 0 80 64 00
        e 120 90 54 60
        e 0 90 60 60
        e 120 80 54 00
        e 0 80 60 00
        e 120 90 48 60
        e 0 90 54 60
        e 0 90 60 60
        e 120 80 48 00
        e 0 80 54 00
        e 0 80 60 00
        e 120 90 55 60
        e 0 90 57 60
        e 0 90 61 60
        e 0 90 63 60
        e 120 80 55 00
        e 0 80 57 00
        e 0 80 61 00
        e 0 80 63 00
        e 120 90 3c 60
        e 0 90 48 60
        e 0 90 54 60
        e 0 90 60 60
        e 120 80 3c 00
        e 0 80 48 00
        e 0 80 54 00
        e 0 80 60 00
        e 120 90 54 60
        e 0 90 60 60
        e 120 80 54 00
        e 0 80 60 00
        e 120 90 48 60
        e 0 90 4a 60
        e 0 90 55 60
        e 0 90 56 60
        e 0 90 61 60
        e 0 90 62 60
        e 120 80 48 00
        e 0 80 4a 00
        e 0 80 55 00
        e 0 80 56 00
        e 0 80 61 00
        e 0 80 62 00
        e 120 90 54 60
        e 0 90 60 60
        e 120 80 54 00
        e 0 80 60 00
        e 120 90 3e 60
        e 0 90 49 60
        e 0 90 4b 60
        e 0 90 56 60
        e 0 90 57 60
        e 0 90 62 60
        e 0 90 63 60
        e 120 80 3e 00
        e 0 80 49 00
        e 0 80 4b 00
        e 0 80 56 00
        e 0 80 57 00
        e 0 80 62 00
        e 0 80 63 00
        e 120 90 54 60
        e 0 90 60 60
        e 120 80 54 00
        e 0 80 60 00
        e 120 90 49 60
        e 0 90 4a 60
        e 0 90 55 60
        e 0 90 57 60
        e 0 90 61 60
        e 0 90 63 60
        e 120 80 49 00
        e 0 80 4a 00
        e 0 80 55 00
        e 0 80 57 00
        e 0 80 61 00
        e 0 80 63 00
        e 120 90 54 60
        e 0 90 60 60
        e 120 80 54 00
        e 0 80 60 00
        e 120 90 40 60
        e 0 90 4b 60
        e 0 90 4c 60
        e 0 90 57 60
        e 0 90 58 60
        e 0 90 63 60
        e 0 90 64 60
        e 120 80 40 00
        e 0 80 4b 00
        e 0 80 4c 00
        e 0 80 57 00
        e 0 80 58 00
        e 0 80 63 00
        e 0 80 64 00
        e 120 90 54 60
        e 0 90 60 60
        e 120 80 54 00
        e 0 80 60 00
        e 120 90 48 60
        e 0 90 54 60
        e 0 90 60 60
        e 120 80 48 00
        e 0 80 54 00
        e 0 80 60 00
        e 120 90 55 60
        e 0 90 57 60
        e 0 90 61 60
        e 0 90 63 60
        e 120 80 55 00
        e 0 80 57 00
        e 0 80 61 00
        e 0 80 63 00
        e 120 90 3c 60
        e 0 90 48 60
        e 0 90 54 60
        e 0 90 60 60
        e 120 80 3c 00
        e 0 80 48 00
        e 0 80 54 00
        e 0 80 60 00
        e 120 90 54 60
        e 0 90 60 60
        e 120 80 54 00
        e 0 80 60 00
        e 120 90 48 60
        e 0 90 4a 60
        e 0 90 55 60
        e 0 90 56 60
        e 0 90 61 60
        e 0 90 62 60
        e 120 80 48 00
        e 0 80 4a 00
        e 0 80 55 00
        e 0 80 56 00
        e 0 80 61 00
        e 0 80 62 00
        e 120 90 54 60
        e 0 90 60 60
        e 120 80 54 00
        e 0 80 60 00
        e 120 90 3d 60
        e 0 90 49 60
        e 0 90 4a 60
        e 0 90 55 60
        e 0 90 57 60
        e 0 90 61 60
        e 0 90 63 60
        e 120 80 3d 00
        e 0 80 49 00
        e 0 80 4a 00
        e 0 80 55 00
        e 0 80 57 00
        e 0 80 61 00
        e 0 80 63 00
        e 120 90 54 60
        e 0 90 60 60
        e 120 80 54 00
        e 0 80 60 00
        e 120 90 49 60
        e 0 90 4b 60
        e 0 90 56 60
        e 0 90 57 60
        e 0 90 62 60
        e 0 90 63 60
        e 120 80 49 00
        e 0 80 4b 00
        e 0 80 56 00
        e 0 80 57 00
        e 0 80 62 00
        e 0 80 63 00
        e 120 90 54 60
        e 0 90 60 60
        e 120 80 54 00
        e 0 80 60 00
        e 120 90 40 60
        e 0 90 4b 60
        e 0 90 4c 60
        e 0 90 57 60
        e 0 90 58 60
        e 0 90 63 60
        e 0 90 64 60
        e 120 80 40 00
        e 0 80 4b 00
        e 0 80 4c 00
        e 0 80 57 00
        e 0 80 58 00
        e 0 80 63 00
        e 0 80 64 00
        e 120 90 54 60
        e 0 90 60 60
        e 120 80 54 00
        e 0 80 60 00
        e 120 90 48 60
        e 0 90 54 60
        e 0 90 60 60
        e 120 80 48 00
        e 0 80 54 00
        e 0 80 60 00
        e 120 90 55 60
        e 0 90 57 60
        e 0 90 61 60
        e 0 90 63 60
        e 120 80 55 00
        e 0 80 57 00
        e 0 80 61 00
        e 0 80 63 00
        e 120 90 3c 60
        e 0 90 48 60
        e 0 90 54 60
        e 0 90 60 60
        e 120 80 3c 00
        e 0 80 48 00
        e 0 80 54 00
        e 0 80 60 00
        e 120 90 54 60
        e 0 90 60 60
        e 120 80 54 00
        e 0 80 60 00
        e 120 90 48 60
        e 0 90 4a 60
        e 0 90 55 60
        e 0 90 56 60
        e 0 90 61 60
        e 0 90 62 60
        e 120 80 48 00
        e 0 80 4a 00
        e 0 80 55 00
        e 0 80 56 00
        e 0 80 61 00
        e 0 80 62 00
        e 120 90 54 60
        e 0 90 60 60
        e 120 80 54 00
        e 0 80 60 00
        e 120 90 3e 60
        e 0 90 49 60
        e 0 90 4b 60
        e 0 90 56 60
        e 0 90 57 60
        e 0 90 62 60
        e 0 90 63 60
        e 120 80 3e 00
        e 0 80 49 00
        e 0 80 4b 00
        e 0 80 56 00
        e 0 80 57 00
        e 0 80 62 00
        e 0 80 63 00
        e 120 90 54 60
        e 0 90 60 60
        e 120 80 54 00
        e 0 80 60 00
        e 120 90 49 60
        e 0 90 4a 60
        e 0 90 55 60
        e 0 90 57 60
        e 0 90 61 60
        e 0 90 63 60
        e 120 80 49 00
        e 0 80 4a 00
        e 0 80 55 00
        e 0 80 57 00
        e 0 80 61 00
        e 0 80 63 00
        e 120 90 54 60
        e 0 90 60 60
        e 120 80 54 00
        e 0 80 60 00
        e 120 90 40 60
        e 0 90 4b 60
        e 0 90 4c 60
        e 0 90 57 60
        e 0 90 58 60
        e 0 90 63 60
        e 0 90 64 60
        e 120 80 40 00
        e 0 80 4b 00
        e 0 80 4c 00
        e 0 80 57 00
        e 0 80 58 00
        e 0 80 63 00
        e 0 80 64 00
        e 120 90 4b 60
        e 0 90 4c 60
        e 0 90 57 60
        e 0 90 58 60
        e 0 90 63 60
        e 0 90 64 60
        e 120 80 4b 00
        e 0 80 4c 00
        e 0 80 57 00
        e 0 80 58 00
        e 0 80 63 00
        e 0 80 64 00
        e 120 90 4b 60
        e 0 90 4c 60
        e 0 90 57 60
        e 0 90 58 60
        e 0 90 63 60
        e 0 90 64 60
        e 120 80 4b 00
        e 0 80 4c 00
        e 0 80 57 00
        e 0 80 58 00
        e 0 80 63 00
        e 0 80 64 00
        e 120 90 55 60
        e 0 90 57 60
        e 0 90 61 60
        e 0 90 63 60
        e 120 80 55 00
        e 0 80 57 00
        e 0 80 61 00
        e 0 80 63 00
        e 120 90 3d 60
        e 0 90 49 60
        e 0 90 4a 60
        e 0 90 55 60
        e 0 90 57 60
        e 0 90 61 60
        e 0 90 63 60
        e 120 80 3d 00
        e 0 80 49 00
        e 0 80 4a 00
        e 0 80 55 00
        e 0 80 57 00
        e 0 80 61 00
        e 0 80 63 00
        e 120 90 55 60
        e 0 90 57 60
        e 0 90 61 60
        e 0 90 63 60
        e 120 80 55 00
        e 0 80 57 00
        e 0 80 61 00
        e 0 80 63 00
        e 120 90 48 60
        e 0 90 4a 60
        e 0 90 55 60
        e 0 90 56 60
        e 0 90 61 60
        e 0 90 62 60
        e 120 80 48 00
        e 0 80 4a 00
        e 0 80 55 00
        e 0 80 56 00
        e 0 80 61 00
        e 0 80 62 00
        e 120 90 55 60
        e 0 90 56 60
        e 0 90 61 60
        e 0 90 62 60
        e 120 80 55 00
        e 0 80 56 00
        e 0 80 61 00
        e 0 80 62 00
        e 120 90 3d 60
        e 0 90 49 60
        e 0 90 4a 60
        e 0 90 55 60
        e 0 90 57 60
        e 0 90 61 60
        e 0 90 63 60
        e 120 80 3d 00
        e 0 80 49 00
        e 0 80 4a 00
        e 0 80 55 00
        e 0 80 57 00
        e 0 80 61 00
        e 0 80 63 00
        e 120 90 55 60
        e 0 90 57 60
        e 0 90 61 60
        e 0 90 63 60
        e 120 80 55 00
        e 0 80 57 00
        e 0 80 61 00
        e 0 80 63 00
        e 120 90 49 60
        e 0 90 4b 60
        e 0 90 56 60
        e 0 90 57 60
        e 0 90 62 60
        e 0 90 63 60
        e 120 80 49 00
        e 0 80 4b 00
        e 0 80 56 00
        e 0 80 57 00
        e 0 80 62 00
        e 0 80 63 00
        e 120 90 56 60
        e 0 90 57 60
        e 0 90 62 60
        e 0 90 63 60
        e 120 80 56 00
        e 0 80 57 00
        e 0 80 62 00
        e 0 80 63 00
        e 120 90 40 60
        e 0 90 4b 60
        e 0 90 4c 60
        e 0 90 57 60
        e 0 90 58 60
        e 0 90 63 60
        e 0 90 64 60
        e 120 80 40 00
        e 0 80 4b 00
        e 0 80 4c 00
        e 0 80 57 00
        e 0 80 58 00
        e 0 80 63 00
        e 0 80 64 00
        e 120 90 4b 60
        e 0 90 4c 60
        e 0 90 57 60
        e 0 90 58 60
        e 0 90 63 60
        e 0 90 64 60
        e 120 80 4b 00
        e 0 80 4c 00
        e 0 80 57 00
        e 0 80 58 00
        e 0 80 63 00
        e 0 80 64 00
        e 120 90 4b 60
        e 0 90 4c 60
        e 0 90 57 60
        e 0 90 58 60
        e 0 90 63 60
        e 0 90 64 60
        e 120 80 4b 00
        e 0 80 4c 00
        e 0 80 57 00
        e 0 80 58 00
        e 0 80 63 00
        e 0 80 64 00
        e 120 90 55 60
        e 0 90 57 60
        e 0 90 61 60
        e 0 90 63 60
        e 120 80 55 00
        e 0 80 57 00
        e 0 80 61 00
        e 0 80 63 00
        e 120 90 3d 60
        e 0 90 49 60
        e 0 90 4a 60
        e 0 90 55 60
        e 0 90 57 60
        e 0 90 61 60
        e 0 90 63 60
        e 120 80 3d 00
        e 0 80 49 00
        e 0 80 4a 00
        e 0 80 55 00
        e 0 80 57 00
        e 0 80 61 00
        e 0 80 63 00
        e 120 90 55 60
        e 0 90 57 60
        e 0 90 61 60
        e 0 90 63 60
        e 120 80 55 00
        e 0 80 57 00
        e 0 80 61 00
        e 0 80 63 00
        e 120 90 48 60
        e 0 90 4a 60
        e 0 90 55 60
        e 0 90 56 60
        e 0 90 61 60
        e 0 90 62 60
        e 120 80 48 00
        e 0 80 4a 00
        e 0 80 55 00
        e 0 80 56 00
        e 0 80 61 00
        e 0 80 62 00
        e 120 90 55 60
        e 0 90 56 60
        e 0 90 61 60
        e 0 90 62 60
        e 120 80 55 00
        e 0 80 56 00
        e 0 80 61 00
        e 0 80 62 00
        e 120 90 3e 60
        e 0 90 49 60
        e 0 90 4b 60
        e 0 90 56 60
        e 0 90 57 60
        e 0 90 62 60
        e 0 90 63 60
        e 120 80 3e 00
        e 0 80 49 00
        e 0 80 4b 00
        e 0 80 56 00
        e 0 80 57 00
        e 0 80 62 00
        e 0 80 63 00
        e 120 90 56 60
        e 0 90 57 60
        e 0 90 62 60
        e 0 90 63 60
        e 120 80 56 00
        e 0 80 57 00
        e 0 80 62 00
        e 0 80 63 00
        e 120 90 49 60
        e 0 90 4a 60
        e 0 90 55 60
        e 0 90 57 60
        e 0 90 61 60
        e 0 90 63 60
        e 120 80 49 00
        e 0 80 4a 00
        e 0 80 55 00
        e 0 80 57 00
        e 0 80 61 00
        e 0 80 63 00
        e 120 90 55 60
        e 0 90 57 60
        e 0 90 61 60
        e 0 90 63 60
        e 120 80 55 00
        e 0 80 57 00
        e 0 80 61 00
        e 0 80 63 00
        e 120 90 40 60
        e 0 90 4b 60
        e 0 90 4c 60
        e 0 90 57 60
        e 0 90 58 60
        e 0 90 63 60
        e 0 90 64 60
        e 120 80 40 00
        e 0 80 4b 00
        e 0 80 4c 00
        e 0 80 57 00
        e 0 80 58 00
        e 0 80 63 00
        e 0 80 64 00
        e 120 90 4b 60
        e 0 90 4c 60
        e 0 90 57 60
        e 0 90 58 60
        e 0 90 63 60
        e 0 90 64 60
        e 120 80 4b 00
        e 0 80 4c 00
        e 0 80 57 00
        e 0 80 58 00
        e 0 80 63 00
        e 0 80 64 00
        e 120 90 4b 60
        e 0 90 4c 60
        e 0 90 57 60
        e 0 90 58 60
        e 0 90 63 60
        e 0 90 64 60
        e 120 80 4b 00
        e 0 80 4c 00
        e 0 80 57 00
        e 0 80 58 00
        e 0 80 63 00
        e 0 80 64 00
        e 120 90 55 60
        e 0 90 57 60
        e 0 90 61 60
        e 0 90 63 60
        e 120 80 55 00
        e 0 80 57 00
        e 0 80 61 00
        e 0 80 63 00
        e 120 90 3d 60
        e 0 90 49 60
        e 0 90 4a 60
        e 0 90 55 60
        e 0 90 57 60
        e 0 90 61 60
        e 0 90 63 60
        e 120 80 3d 00
        e 0 80 49 00
        e 0 80 4a 00
        e 0 80 55 00
        e 0 80 57 00
        e 0 80 61 00
        e 0 80 63 00
        e 120 90 55 60
        e 0 90 57 60
        e 0 90 61 60
        e 0 90 63 60
        e 120 80 55 00
        e 0 80 57 00
        e 0 80 61 00
        e 0 80 63 00
        e 120 90 48 60
        e 0 90 4a 60
        e 0 90 55 60
        e 0 90 56 60
        e 0 90 61 60
        e 0 90 62 60
        e 120 80 48 00
        e 0 80 4a 00
        e 0 80 55 00
        e 0 80 56 00
        e 0 80 61 00
        e 0 80 62 00
        e 120 90 55 60
        e 0 90 56 60
        e 0 90 61 60
        e 0 90 62 60
        e 120 80 55 00
        e 0 80 56 00
        e 0 80 61 00
        e 0 80 62 00
        e 120 90 3d 60
        e 0 90 49 60
        e 0 90 4a 60
        e 0 90 55 60
        e 0 90 57 60
        e 0 90 61 60
        e 0 90 63 60
        e 120 80 3d 00
        e 0 80 49 00
        e 0 80 4a 00
        e 0 80 55 00
        e 0 80 57 00
        e 0 80 61 00
        e 0 80 63 00
        e 120 90 55 60
        e 0 90 57 60
        e 0 90 61 60
        e 0 90 63 60
        e 120 80 55 00
        e 0 80 57 00
        e 0 80 61 00
        e 0 80 63 00
        e 120 90 49 60
        e 0 90 4b 60
        e 0 90 56 60
        e 0 90 57 60
        e 0 90 62 60
        e 0 90 63 60
        e 120 80 49 00
        e 0 80 4b 00
        e 0 80 56 00
        e 0 80 57 00
        e 0 80 62 00
        e 0 80 63 00
        e 120 90 56 60
        e 0 90 57 60
        e 0 90 62 60
        e 0 90 63 60
        e 120 80 56 00
        e 0 80 57 00
        e 0 80 62 00
        e 0 80 63 00
        e 120 90 40 60
        e 0 90 4b 60
        e 0 90 4c 60
        e 0 90 57 60
        e 0 90 58 60
        e 0 90 63 60
        e 0 90 64 60
        e 120 80 40 00
        e 0 80 4b 00
        e 0 80 4c 00
        e 0 80 57 00
        e 0 80 58 00
        e 0 80 63 00
        e 0 80 64 00
        e 120 90 4b 60
        e 0 90 4c 60
        e 0 90 57 60
        e 0 90 58 60
        e 0 90 63 60
        e 0 90 64 60
        e 120 80 4b 00
        e 0 80 4c 00
        e 0 80 57 00
        e 0 80 58 00
        e 0 80 63 00
        e 0 80 64 00
        e 120 90 4b 60
        e 0 90 4c 60
        e 0 90 57 60
        e 0 90 58 60
        e 0 90 63 60
        e 0 90 64 60
        e 120 80 4b 00
        e 0 80 4c 00
        e 0 80 57 00
        e 0 80 58 00
        e 0 80 63 00
        e 0 80 64 00
        e 120 90 55 60
        e 0 90 57 60
        e 0 90 61 60
        e 0 90 63 60
        e 120 80 55 00
        e 0 80 57 00
        e 0 80 61 00
        e 0 80 63 00
        e 120 90 3d 60
        e 0 90 49 60
        e 0 90 4a 60
        e 0 90 55 60
        e 0 90 57 60
        e 0 90 61 60
        e 0 90 63 60
        e 120 80 3d 00
        e 0 80 49 00
        e 0 80 4a 00
        e 0 80 55 00
        e 0 80 57 00
        e 0 80 61 00
        e 0 80 63 00
        e 120 90 55 60
        e 0 90 57 60
        e 0 90 61 60
        e 0 90 63 60
        e 120 80 55 00
        e 0 80 57 00
        e 0 80 61 00
        e 0 80 63 00
        e 120 90 48 60
        e 0 90 4a 60
        e 0 90 55 60
        e 0 90 56 60
        e 0 90 61 60
        e 0 90 62 60
        e 120 80 48 00
        e 0 80 4a 00
        e 0 80 55 00
        e 0 80 56 00
        e 0 80 61 00
        e 0 80 62 00
        e 120 90 55 60
        e 0 90 56 60
        e 0 90 61 60
        e 0 90 62 60
        e 120 80 55 00
        e 0 80 56 00
        e 0 80 61 00
        e 0 80 62 00
        e 120 90 3e 60
        e 0 90 49 60
        e 0 90 4b 60
        e 0 90 56 60
        e 0 90 57 60
        e 0 90 62 60
        e 0 90 63 60
        e 120 80 3e 00
        e 0 80 49 00
        e 0 80 4b 00
        e 0 80 56 00
        e 0 80 57 00
        e 0 80 62 00
        e 0 80 63 00
        e 120 90 56 60
        e 0 90 57 60
        e 0 90 62 60
        e 0 90 63 60
        e 120 80 56 00
        e 0 80 57 00
        e 0 80 62 00
        e 0 80 63 00
        e 120 90 49 60
        e 0 90 4a 60
        e 0 90 55 60
        e 0 90 57 60
        e 0 90 61 60
        e 0 90 63 60
        e 120 80 49 00
        e 0 80 4a 00
        e 0 80 55 00
        e 0 80 57 00
        e 0 80 61 00
        e 0 80 63 00
        e 120 90 55 60
        e 0 90 57 60
        e 0 90 61 60
        e 0 90 63 60
        e 120 80 55 00
        e 0 80 57 00
        e 0 80 61 00
        e 0 80 63 00
        e 120 90 3d 60
        e 0 90 49 60
        e 0 90 55 60
        e 0 90 61 60
        e 120 80 3d 00
        e 0 80 49 00
        e 0 80 55 00
        e 0 80 61 00
        e 120 90 54 60
        e 0 90 60 60
        e 600 80 54 00
        e 0 80 60 00
        e 120 90 3c 60
        e 0 90 48 60
        e 0 90 49 60
        e 0 90 54 60
        e 0 90 56 60
        e 0 90 60 60
        e 0 90 61 60
        e 0 90 63 60
        e 480 80 3c 00
        e 0 80 48 00
        e 0 80 49 00
        e 360 80 54 00
        e 0 80 56 00
        e 0 80 60 00
        e 0 80 61 00
        e 0 80 63 00
        e 120 90 3d 60
        e 0 90 49 60
        e 0 90 4a 60
        e 0 90 55 60
        e 0 90 57 60
        e 0 90 61 60
        e 0 90 63 60
        e 120 80 3d 00
        e 0 80 49 00
        e 0 80 4a 00
        e 0 80 55 00
        e 0 80 57 00
        e 0 80 61 00
        e 0 80 63 00
        e 120 90 56 60
        e 0 90 57 60
        e 0 90 62 60
        e 0 90 63 60
        e 600 80 56 00
        e 0 80 57 00
        e 0 80 62 00
        e 0 80 63 00
        e 120 90 3c 60
        e 0 90 48 60
        e 0 90 4a 60
        e 0 90 54 60
        e 0 90 57 60
        e 0 90 60 60
        e 0 90 62 60
        e 0 90 63 60
        e 480 80 3c 00
        e 0 80 48 00
        e 0 80 4a 00
        e 360 80 54 00
        e 0 80 57 00
        e 0 80 60 00
        e 0 80 62 00
        e 0 80 63 00
        e 120 90 3d 60
        e 0 90 4a 60
        e 0 90 56 60
        e 0 90 62 60
        e 60 80 3d 00
        e 0 80 4a 00
        e 0 80 56 00
        e 0 80 62 00
        e 180 90 55 60
        e 0 90 61 60
        e 600 80 55 00
        e 0 80 61 00
        e 120 90 3f 60
        e 0 90 4a 60
        e 0 90 4b 60
        e 0 90 55 60
        e 0 90 58 60
        e 0 90 61 60
        e 0 90 62 60
        e 0 90 64 60
        e 480 80 3f 00
        e 0 80 4a 00
        e 0 80 4b 00
        e 360 80 55 00
        e 0 80 58 00
        e 0 80 61 00
        e 0 80 62 00
        e 0 80 64 00
        e 120 90 3d 60
        e 0 90 4a 60
        e 0 90 56 60
        e 0 90 62 60
        e 60 80 3d 00
        e 0 80 4a 00
        e 0 80 56 00
        e 0 80 62 00
        e 180 90 55 60
        e 0 90 61 60
        e 600 80 55 00
        e 0 80 61 00
        e 120 90 3f 60
        e 0 90 4a 60
        e 0 90 4b 60
        e 0 90 55 60
        e 0 90 58 60
        e 0 90 61 60
        e 0 90 62 60
        e 0 90 64 60
        e 480 80 3f 00
        e 0 80 4a 00
        e 0 80 4b 00
        e 360 80 55 00
        e 0 80 58 00
        e 0 80 61 00
        e 0 80 62 00
        e 0 80 64 00
        e 120 90 3e 60
        e 0 90 4b 60
        e 0 90 57 60
        e 0 90 63 60
        e 60 80 3e 00
        e 0 80 4b 00
        e 0 80 57 00
        e 0 80 63 00
        e 180 90 55 60
        e 0 90 61 60
        e 600 80 55 00
        e 0 80 61 00
        e 120 90 3f 60
        e 0 90 4a 60
        e 0 90 4b 60
        e 0 90 56 60
        e 0 90 58 60
        e 0 90 61 60
        e 0 90 63 60
        e 0 90 64 60
        e 480 80 3f 00
        e 0 80 4a 00
        e 0 80 4b 00
        e 360 80 56 00
        e 0 80 58 00
        e 0 80 61 00
        e 0 80 63 00
        e 0 80 64 00
        e 120 90 3e 60
        e 0 90 4b 60
        e 0 90 57 60
        e 0 90 63 60
        e 60 80 3e 00
        e 0 80 4b 00
        e 0 80 57 00
        e 0 80 63 00
        e 180 90 55 60
        e 0 90 61 60
        e 600 80 55 00
        e 0 80 61 00
        e 120 90 3f 60
        e 0 90 4a 60
        e 0 90 4b 60
        e 0 90 56 60
        e 0 90 58 60
        e 0 90 61 60
        e 0 90 63 60
        e 0 90 64 60
        e 480 80 3f 00
        e 0 80 4a 00
        e 0 80 4b 00
        e 360 80 56 00
        e 0 80 58 00
        e 0 80 61 00
        e 0 80 63 00
        e 0 80 64 00
        e 120 90 3e 60
        e 0 90 4b 60
        e 0 90 57 60
        e 0 90 63 60
        e 60 80 3e 00
        e 0 80 4b 00
        e 0 80 57 00
        e 0 80 63 00
        e 180 90 56 60
        e 0 90 62 60
        e 600 80 56 00
        e 0 80 62 00
        e 120 90 40 60
        e 0 90 4b 60
        e 0 90 4c 60
        e 0 90 57 60
        e 0 90 58 60
        e 0 90 62 60
        e 0 90 63 60
        e 0 90 64 60
        e 480 80 40 00
        e 0 80 4b 00
        e 0 80 4c 00
        e 360 80 57 00
        e 0 80 58 00
        e 0 80 62 00
        e 0 80 63 00
        e 0 80 64 00
        e 120 90 3e 60
        e 0 90 4b 60
        e 0 90 57 60
        e 0 90 63 60
        e 60 80 3e 00
        e 0 80 4b 00
        e 0 80 57 00
        e 0 80 63 00
        e 180 90 56 60
        e 0 90 62 60
        e 600 80 56 00
        e 0 80 62 00
        e 120 90 40 60
        e 0 90 4b 60
        e 0 90 4c 60
        e 0 90 57 60
        e 0 90 58 60
        e 0 90 62 60
        e 0 90 63 60
        e 0 90 64 60
        e 480 80 40 00
        e 0 80 4b 00
        e 0 80 4c 00
        e 360 80 57 00
        e 0 80 58 00
        e 0 80 62 00
        e 0 80 63 00
        e 0 80 64 00
        e 120 90 3d 60
        e 0 90 49 60
        e 0 90 55 60
        e 0 90 61 60
        e 60 80 3d 00
        e 0 80 49 00
        e 0 80 55 00
        e 0 80 61 00
        e 179 90 54 60
        e 0 90 60 60
        e 600 80 54 00
        e 0 80 60 00
        e 120 90 3d 60
        e 0 90 49 60
        e 0 90 55 60
        e 0 90 60 60
        e 0 90 63 60
        e 1 90 61 60
        e 479 80 3d 00
        e 0 80 49 00
        e 360 80 55 00
        e 0 80 60 00
        e 0 80 63 00
        e 0 80 61 00
        e 120 90 3d 60
        e 0 90 49 60
        e 0 90 4a 60
        e 0 90 55 60
        e 0 90 57 60
        e 0 90 61 60
        e 0 90 63 60
        e 60 80 3d 00
        e 0 80 49 00
        e 0 80 4a 00
        e 0 80 55 00
        e 0 80 57 00
        e 0 80 61 00
        e 0 80 63 00
        e 180 90 56 60
        e 0 90 57 60
        e 0 90 62 60
        e 0 90 63 60
        e 600 80 56 00
        e 0 80 57 00
        e 0 80 62 00
        e 0 80 63 00
        e 120 90 3c 60
        e 0 90 48 60
        e 0 90 4a 60
        e 0 90 54 60
        e 0 90 57 60
        e 0 90 60 60
        e 0 90 62 60
        e 0 90 63 60
        e 480 80 3c 00
        e 0 80 48 00
        e 0 80 4a 00
        e 360 80 54 00
        e 0 80 57 00
        e 0 80 60 00
        e 0 80 62 00
        e 0 80 63 00
        e 120 90 3d 60
        e 0 90 4a 60
        e 0 90 56 60
        e 0 90 62 60
        e 60 80 3d 00
        e 0 80 4a 00
        e 0 80 56 00
        e 0 80 62 00
        e 180 90 55 60
        e 0 90 61 60
        e 600 80 55 00
        e 0 80 61 00
        e 120 90 3f 60
        e 0 90 4a 60
        e 0 90 4b 60
        e 0 90 55 60
        e 0 90 58 60
        e 0 90 61 60
        e 0 90 62 60
        e 0 90 64 60
        e 480 80 3f 00
        e 0 80 4a 00
        e 0 80 4b 00
        e 360 80 55 00
        e 0 80 58 00
        e 0 80 61 00
        e 0 80 62 00
        e 0 80 64 00
        e 120 90 3d 60
        e 0 90 4a 60
        e 0 90 56 60
        e 0 90 62 60
        e 60 80 3d 00
        e 0 80 4a 00
        e 0 80 56 00
        e 0 80 62 00
        e 180 90 55 60
        e 0 90 61 60
        e 600 80 55 00
        e 0 80 61 00
        e 120 90 3f 60
        e 0 90 4a 60
        e 0 90 4b 60
        e 0 90 55 60
        e 0 90 58 60
        e 0 90 61 60
        e 0 90 62 60
        e 0 90 64 60
        e 480 80 3f 00
        e 0 80 4a 00
        e 0 80 4b 00
        e 360 80 55 00
        e 0 80 58 00
        e 0 80 61 00
        e 0 80 62 00
        e 0 80 64 00
        e 120 90 3e 60
        e 0 90 4b 60
        e 0 90 57 60
        e 0 90 63 60
        e 60 80 3e 00
        e 0 80 4b 00
        e 0 80 57 00
        e 0 80 63 00
        e 180 90 55 60
        e 0 90 61 60
        e 600 80 55 00
        e 0 80 61 00
        e 120 90 3f 60
        e 0 90 4a 60
        e 0 90 4b 60
        e 0 90 56 60
        e 0 90 58 60
        e 0 90 61 60
        e 0 90 63 60
        e 0 90 64 60
        e 481 80 3f 00
        e 0 80 4a 00
        e 0 80 4b 00
        e 359 80 56 00
        e 0 80 58 00
        e 0 80 61 00
        e 0 80 63 00
        e 0 80 64 00
        e 121 90 3e 60
        e 0 90 4b 60
        e 0 90 57 60
        e 0 90 63 60
        e 120 80 3e 00
        e 0 80 4b 00
        e 0 80 57 00
        e 0 80 63 00
        e 119 90 55 60
        e 0 90 61 60
        e 600 80 55 00
        e 0 80 61 00
        e 120 90 3f 60
        e 0 90 4a 60
        e 0 90 4b 60
        e 0 90 56 60
        e 0 90 58 60
        e 0 90 61 60
        e 0 90 63 60
        e 0 90 64 60
        e 480 80 3f 00
        e 0 80 4a 00
        e 0 80 4b 00
        e 360 80 56 00
        e 0 80 58 00
        e 0 80 61 00
        e 0 80 63 00
        e 0 80 64 00
        e 120 90 3e 60
        e 0 90 4b 60
        e 0 90 57 60
        e 0 90 63 60
        e 60 80 3e 00
        e 0 80 4b 00
        e 0 80 57 00
        e 0 80 63 00
        e 180 90 56 60
        e 0 90 62 60
        e 600 80 56 00
        e 0 80 62 00
        e 120 90 40 60
        e 0 90 4b 60
        e 0 90 4c 60
        e 0 90 57 60
        e 0 90 58 60
        e 0 90 62 60
        e 0 90 63 60
        e 0 90 64 60
        e 480 80 40 00
        e 0 80 4b 00
        e 0 80 4c 00
        e 360 80 57 00
        e 0 80 58 00
        e 0 80 62 00
        e 0 80 63 00
        e 0 80 64 00
        e 120 90 3e 60
        e 0 90 4b 60
        e 0 90 57 60
        e 0 90 63 60
        e 60 80 3e 00
        e 0 80 4b 00
        e 0 80 57 00
        e 0 80 63 00
        e 180 90 56 60
        e 0 90 62 60
        e 600 80 56 00
        e 0 80 62 00
        e 120 90 40 60
        e 0 90 4b 60
        e 0 90 4c 60
        e 0 90 57 60
        e 0 90 58 60
        e 0 90 62 60
        e 0 90 63 60
        e 0 90 64 60
        e 481 80 40 00
        e 0 80 4b 00
        e 0 80 4c 00
        e 359 80 57 00
        e 0 80 58 00
        e 0 80 62 00
        e 0 80 63 00
        e 0 80 64 00
        e 121 90 3d 60
        e 0 90 49 60
        e 0 90 55 60
        e 0 90 61 60
        e 80 80 3d 00
        e 0 80 49 00
        e 0 80 55 00
        e 0 80 61 00
        e 80 90 60 60
        e 80 80 60 00
        e 80 90 60 60
        e 80 80 60 00
        e 80 90 48 60
        e 0 90 54 60
        e 0 90 60 60
        e 80 80 48 00
        e 0 80 54 00
        e 0 80 60 00
        e 80 90 60 60
        e 80 80 60 00
        e 80 90 60 60
        e 80 80 60 00
        e 80 90 3c 60
        e 0 90 48 60
        e 0 90 4a 60
        e 0 90 54 60
        e 0 90 57 60
        e 0 90 60 60
        e 0 90 62 60
        e 0 90 63 60
        e 80 80 3c 00
        e 0 80 48 00
        e 0 80 4a 00
        e 0 80 54 00
        e 0 80 57 00
        e 0 80 60 00
        e 0 80 62 00
        e 0 80 63 00
        e 80 90 60 60
        e 0 90 62 60
        e 0 90 63 60
        e 80 80 60 00
        e 0 80 62 00
        e 0 80 63 00
        e 80 90 60 60
        e 0 90 62 60
        e 0 90 63 60
        e 80 80 60 00
        e 0 80 62 00
        e 0 80 63 00
        e 80 90 3c 60
        e 0 90 48 60
        e 0 90 4a 60
        e 0 90 54 60
        e 0 90 57 60
        e 0 90 60 60
        e 0 90 62 60
        e 0 90 63 60
        e 80 80 3c 00
        e 0 80 48 00
        e 0 80 4a 00
        e 0 80 54 00
        e 0 80 57 00
        e 0 80 60 00
        e 0 80 62 00
        e 0 80 63 00
        e 80 90 60 60
        e 0 90 62 60
        e 0 90 63 60
        e 80 80 60 00
        e 0 80 62 00
        e 0 80 63 00
        e 80 90 60 60
        e 0 90 62 60
        e 0 90 63 60
        e 80 80 60 00
        e 0 80 62 00
        e 0 80 63 00
        e 80 90 3c 60
        e 0 90 48 60
        e 0 90 4a 60
        e 0 90 54 60
        e 0 90 57 60
        e 0 90 60 60
        e 0 90 62 60
        e 0 90 63 60
        e 80 80 3c 00
        e 0 80 48 00
        e 0 80 4a 00
        e 0 80 54 00
        e 0 80 57 00
        e 0 80 60 00
        e 0 80 62 00
        e 0 80 63 00
        e 80 90 60 60
        e 80 80 60 00
        e 80 90 60 60
        e 80 80 60 00
        e 80 90 3c 60
        e 0 90 48 60
        e 0 90 54 60
        e 0 90 60 60
        e 80 80 3c 00
        e 0 80 48 00
        e 0 80 54 00
        e 0 80 60 00
        e 80 90 60 60
        e 80 80 60 00
        e 80 90 60 60
        e 80 80 60 00
        e 80 90 3c 60
        e 0 90 48 60
        e 0 90 49 60
        e 0 90 54 60
        e 0 90 56 60
        e 0 90 60 60
        e 0 90 61 60
        e 0 90 63 60
        e 80 80 3c 00
        e 0 80 48 00
        e 0 80 49 00
        e 0 80 54 00
        e 0 80 56 00
        e 0 80 60 00
        e 0 80 61 00
        e 0 80 63 00
        e 80 90 60 60
        e 0 90 61 60
        e 0 90 63 60
        e 80 80 60 00
        e 0 80 61 00
        e 0 80 63 00
        e 80 90 60 60
        e 0 90 61 60
        e 0 90 63 60
        e 80 80 60 00
        e 0 80 61 00
        e 0 80 63 00
        e 80 90 48 60
        e 0 90 49 60
        e 0 90 54 60
        e 0 90 56 60
        e 0 90 60 60
        e 0 90 61 60
        e 0 90 63 60
        e 80 80 48 00
        e 0 80 49 00
        e 0 80 54 00
        e 0 80 56 00
        e 0 80 60 00
        e 0 80 61 00
        e 0 80 63 00
        e 80 90 60 60
        e 0 90 61 60
        e 0 90 63 60
        e 80 80 60 00
        e 0 80 61 00
        e 0 80 63 00
        e 80 90 60 60
        e 0 90 61 60
        e 0 90 63 60
        e 80 80 60 00
        e 0 80 61 00
        e 0 80 63 00
        e 80 90 3d 60
        e 0 90 4a 60
        e 0 90 56 60
        e 0 90 62 60
        e 80 80 3d 00
        e 0 80 4a 00
        e 0 80 56 00
        e 0 80 62 00
        e 80 90 61 60
        e 80 80 61 00
        e 80 90 61 60
        e 80 80 61 00
        e 80 90 49 60
        e 0 90 55 60
        e 0 90 61 60
        e 80 80 49 00
        e 0 80 55 00
        e 0 80 61 00
        e 80 90 61 60
        e 80 80 61 00
        e 80 90 61 60
        e 80 80 61 00
        e 80 90 3f 60
        e 0 90 4a 60
        e 0 90 4b 60
        e 0 90 55 60
        e 0 90 58 60
        e 0 90 61 60
        e 0 90 62 60
        e 0 90 64 60
        e 80 80 3f 00
        e 0 80 4a 00
        e 0 80 4b 00
        e 0 80 55 00
        e 0 80 58 00
        e 0 80 61 00
        e 0 80 62 00
        e 0 80 64 00
        e 80 90 61 60
        e 0 90 62 60
        e 0 90 64 60
        e 80 80 61 00
        e 0 80 62 00
        e 0 80 64 00
        e 80 90 61 60
        e 0 90 62 60
        e 0 90 64 60
        e 80 80 61 00
        e 0 80 62 00
        e 0 80 64 00
        e 80 90 4a 60
        e 0 90 4b 60
        e 0 90 55 60
        e 0 90 58 60
        e 0 90 61 60
        e 0 90 62 60
        e 0 90 64 60
        e 80 80 4a 00
        e 0 80 4b 00
        e 0 80 55 00
        e 0 80 58 00
        e 0 80 61 00
        e 0 80 62 00
        e 0 80 64 00
        e 80 90 61 60
        e 0 90 62 60
        e 0 90 64 60
        e 80 80 61 00
        e 0 80 62 00
        e 0 80 64 00
        e 80 90 61 60
        e 0 90 62 60
        e 0 90 64 60
        e 80 80 61 00
        e 0 80 62 00
        e 0 80 64 00
        e 80 90 3d 60
        e 0 90 4a 60
        e 0 90 56 60
        e 0 90 62 60
        e 80 80 3d 00
        e 0 80 4a 00
        e 0 80 56 00
        e 0 80 62 00
        e 80 90 61 60
        e 80 80 61 00
        e 80 90 61 60
        e 80 80 61 00
        e 80 90 49 60
        e 0 90 55 60
        e 0 90 61 60
        e 80 80 49 00
        e 0 80 55 00
        e 0 80 61 00
        e 80 90 61 60
        e 80 80 61 00
        e 80 90 61 60
        e 80 80 61 00
        e 80 90 3f 60
        e 0 90 4a 60
        e 0 90 4b 60
        e 0 90 55 60
        e 0 90 58 60
        e 0 90 61 60
        e 0 90 62 60
        e 0 90 64 60
        e 80 80 3f 00
        e 0 80 4a 00
        e 0 80 4b 00
        e 0 80 55 00
        e 0 80 58 00
        e 0 80 61 00
        e 0 80 62 00
        e 0 80 64 00
        e 80 90 61 60
        e 0 90 62 60
        e 0 90 64 60
        e 80 80 61 00
        e 0 80 62 00
        e 0 80 64 00
        e 80 90 61 60
        e 0 90 62 60
        e 0 90 64 60
        e 80 80 61 00
        e 0 80 62 00
        e 0 80 64 00
        e 80 90 4a 60
        e 0 90 4b 60
        e 0 90 55 60
        e 0 90 58 60
        e 0 90 61 60
        e 0 90 62 60
        e 0 90 64 60
        e 80 80 4a 00
        e 0 80 4b 00
        e 0 80 55 00
        e 0 80 58 00
        e 0 80 61 00
        e 0 80 62 00
        e 0 80 64 00
        e 80 90 61 60
        e 0 90 62 60
        e 0 90 64 60
        e 80 80 61 00
        e 0 80 62 00
        e 0 80 64 00
        e 80 90 61 60
        e 0 90 62 60
        e 0 90 64 60
        e 80 80 61 00
        e 0 80 62 00
        e 0 80 64 00
        e 80 90 3d 60
        e 0 90 49 60
        e 0 90 55 60
        e 0 90 61 60
        e 80 80 3d 00
        e 0 80 49 00
        e 0 80 55 00
        e 0 80 61 00
        e 80 90 60 60
        e 80 80 60 00
        e 80 90 60 60
        e 80 80 60 00
        e 80 90 48 60
        e 0 90 54 60
        e 0 90 60 60
        e 80 80 48 00
        e 0 80 54 00
        e 0 80 60 00
        e 80 90 60 60
        e 80 80 60 00
        e 80 90 60 60
        e 80 80 60 00
        e 80 90 3f 60
        e 0 90 4a 60
        e 0 90 4b 60
        e 0 90 56 60
        e 0 90 58 60
        e 0 90 61 60
        e 0 90 63 60
        e 0 90 64 60
        e 80 80 3f 00
        e 0 80 4a 00
        e 0 80 4b 00
        e 0 80 56 00
        e 0 80 58 00
        e 0 80 61 00
        e 0 80 63 00
        e 0 80 64 00
        e 80 90 61 60
        e 0 90 63 60
        e 0 90 64 60
        e 80 80 61 00
        e 0 80 63 00
        e 0 80 64 00
        e 80 90 61 60
        e 0 90 63 60
        e 0 90 64 60
        e 80 80 61 00
        e 0 80 63 00
        e 0 80 64 00
        e 80 90 3f 60
        e 0 90 4a 60
        e 0 90 4b 60
        e 0 90 56 60
        e 0 90 58 60
        e 0 90 61 60
        e 0 90 63 60
        e 0 90 64 60
        e 80 80 3f 00
        e 0 80 4a 00
        e 0 80 4b 00
        e 0 80 56 00
        e 0 80 58 00
        e 0 80 61 00
        e 0 80 63 00
        e 0 80 64 00
        e 80 90 61 60
        e 0 90 63 60
        e 0 90 64 60
        e 80 80 61 00
        e 0 80 63 00
        e 0 80 64 00
        e 80 90 61 60
        e 0 90 63 60
        e 0 90 64 60
        e 80 80 61 00
        e 0 80 63 00
        e 0 80 64 00
        e 80 90 3f 60
        e 0 90 4a 60
        e 0 90 4b 60
        e 0 90 56 60
        e 0 90 58 60
        e 0 90 61 60
        e 0 90 63 60
        e 0 90 64 60
        e 80 80 3f 00
        e 0 80 4a 00
        e 0 80 4b 00
        e 0 80 56 00
        e 0 80 58 00
        e 0 80 61 00
        e 0 80 63 00
        e 0 80 64 00
        e 80 90 60 60
        e 80 80 60 00
        e 80 90 60 60
        e 80 80 60 00
        e 80 90 48 60
        e 0 90 54 60
        e 0 90 60 60
        e 80 80 48 00
        e 0 80 54 00
        e 0 80 60 00
        e 80 90 60 60
        e 80 80 60 00
        e 80 90 60 60
        e 80 80 60 00
        e 80 90 3f 60
        e 0 90 4a 60
        e 0 90 4b 60
        e 0 90 56 60
        e 0 90 58 60
        e 0 90 61 60
        e 0 90 63 60
        e 0 90 64 60
        e 80 80 3f 00
        e 0 80 4a 00
        e 0 80 4b 00
        e 0 80 56 00
        e 0 80 58 00
        e 0 80 61 00
        e 0 80 63 00
        e 0 80 64 00
        e 80 90 61 60
        e 0 90 63 60
        e 0 90 64 60
        e 80 80 61 00
        e 0 80 63 00
        e 0 80 64 00
        e 80 90 61 60
        e 0 90 63 60
        e 0 90 64 60
        e 80 80 61 00
        e 0 80 63 00
        e 0 80 64 00
        e 80 90 4a 60
        e 0 90 4b 60
        e 0 90 56 60
        e 0 90 58 60
        e 0 90 61 60
        e 0 90 63 60
        e 0 90 64 60
        e 80 80 4a 00
        e 0 80 4b 00
        e 0 80 56 00
        e 0 80 58 00
        e 0 80 61 00
        e 0 80 63 00
        e 0 80 64 00
        e 80 90 61 60
        e 0 90 63 60
        e 0 90 64 60
        e 80 80 61 00
        e 0 80 63 00
        e 0 80 64 00
        e 80 90 61 60
        e 0 90 63 60
        e 0 90 64 60
        e 80 80 61 00
        e 0 80 63 00
        e 0 80 64 00
        e 80 90 3e 60
        e 0 90 4b 60
        e 0 90 57 60
        e 0 90 63 60
        e 80 80 3e 00
        e 0 80 4b 00
        e 0 80 57 00
        e 0 80 63 00
        e 80 90 62 60
        e 80 80 62 00
        e 80 90 62 60
        e 80 80 62 00
        e 80 90 4a 60
        e 0 90 56 60
        e 0 90 62 60
        e 80 80 4a 00
        e 0 80 56 00
        e 0 80 62 00
        e 80 90 62 60
        e 80 80 62 00
        e 80 90 62 60
        e 80 80 62 00
        e 80 90 40 60
        e 0 90 4b 60
        e 0 90 4c 60
        e 0 90 57 60
        e 0 90 58 60
        e 0 90 62 60
        e 0 90 63 60
        e 0 90 64 60
        e 80 80 40 00
        e 0 80 4b 00
        e 0 80 4c 00
        e 0 80 57 00
        e 0 80 58 00
        e 0 80 62 00
        e 0 80 63 00
        e 0 80 64 00
        e 80 90 62 60
        e 0 90 63 60
        e 0 90 64 60
        e 80 80 62 00
        e 0 80 63 00
        e 0 80 64 00
        e 80 90 62 60
        e 0 90 63 60
        e 0 90 64 60
        e 80 80 62 00
        e 0 80 63 00
        e 0 80 64 00
        e 80 90 40 60
        e 0 90 4b 60
        e 0 90 4c 60
        e 0 90 57 60
        e 0 90 58 60
        e 0 90 62 60
        e 0 90 63 60
        e 0 90 64 60
        e 80 80 40 00
        e 0 80 4b 00
        e 0 80 4c 00
        e 0 80 57 00
        e 0 80 58 00
        e 0 80 62 00
        e 0 80 63 00
        e 0 80 64 00
        e 80 90 62 60
        e 0 90 63 60
        e 0 90 64 60
        e 80 80 62 00
        e 0 80 63 00
        e 0 80 64 00
        e 80 90 62 60
        e 0 90 63 60
        e 0 90 64 60
        e 80 80 62 00
        e 0 80 63 00
        e 0 80 64 00
        e 80 90 40 60
        e 0 90 4b 60
        e 0 90 4c 60
        e 0 90 57 60
        e 0 90 58 60
        e 0 90 62 60
        e 0 90 63 60
        e 0 90 64 60
        e 80 80 40 00
        e 0 80 4b 00
        e 0 80 4c 00
        e 0 80 57 00
        e 0 80 58 00
        e 0 80 62 00
        e 0 80 63 00
        e 0 80 64 00
        e 80 90 62 60
        e 80 80 62 00
        e 80 90 62 60
        e 80 80 62 00
        e 80 90 4a 60
        e 0 90 56 60
        e 0 90 62 60
        e 80 80 4a 00
        e 0 80 56 00
        e 0 80 62 00
        e 80 90 62 60
        e 80 80 62 00
        e 80 90 62 60
        e 80 80 62 00
        e 80 90 40 60
        e 0 90 4b 60
        e 0 90 4c 60
        e 0 90 57 60
        e 0 90 58 60
        e 0 90 62 60
        e 0 90 63 60
        e 0 90 64 60
        e 80 80 40 00
        e 0 80 4b 00
        e 0 80 4c 00
        e 0 80 57 00
        e 0 80 58 00
        e 0 80 62 00
        e 0 80 63 00
        e 0 80 64 00
        e 80 90 62 60
        e 0 90 63 60
        e 0 90 64 60
        e 80 80 62 00
        e 0 80 63 00
        e 0 80 64 00
        e 80 90 62 60
        e 0 90 63 60
        e 0 90 64 60
        e 80 80 62 00
        e 0 80 63 00
        e 0 80 64 00
        e 80 90 4b 60
        e 0 90 4c 60
        e 0 90 57 60
        e 0 90 58 60
        e 0 90 62 60
        e 0 90 63 60
        e 0 90 64 60
        e 80 80 4b 00
        e 0 80 4c 00
        e 0 80 57 00
        e 0 80 58 00
        e 0 80 62 00
        e 0 80 63 00
        e 0 80 64 00
        e 80 90 63 60
        e 80 80 63 00
        e 80 90 62 60
        e 80 80 62 00
        e 80 90 3d 60
        e 0 90 49 60
        e 0 90 55 60
        e 0 90 61 60
        e 80 80 3d 00
        e 0 80 49 00
        e 0 80 55 00
        e 0 80 61 00
        e 80 90 60 60
        e 80 80 60 00
        e 80 90 60 60
        e 80 80 60 00
        e 80 90 48 60
        e 0 90 54 60
        e 0 90 60 60
        e 80 80 48 00
        e 0 80 54 00
        e 0 80 60 00
        e 80 90 60 60
        e 80 80 60 00
        e 80 90 60 60
        e 80 80 60 00
        e 80 90 3c 60
        e 0 90 48 60
        e 0 90 4a 60
        e 0 90 54 60
        e 0 90 57 60
        e 0 90 60 60
        e 0 90 62 60
        e 0 90 63 60
        e 80 80 3c 00
        e 0 80 48 00
        e 0 80 4a 00
        e 0 80 54 00
        e 0 80 57 00
        e 0 80 60 00
        e 0 80 62 00
        e 0 80 63 00
        e 80 90 60 60
        e 0 90 62 60
        e 0 90 63 60
        e 80 80 60 00
        e 0 80 62 00
        e 0 80 63 00
        e 80 90 60 60
        e 0 90 62 60
        e 0 90 63 60
        e 80 80 60 00
        e 0 80 62 00
        e 0 80 63 00
        e 80 90 3c 60
        e 0 90 48 60
        e 0 90 4a 60
        e 0 90 54 60
        e 0 90 57 60
        e 0 90 60 60
        e 0 90 62 60
        e 0 90 63 60
        e 80 80 3c 00
        e 0 80 48 00
        e 0 80 4a 00
        e 0 80 54 00
        e 0 80 57 00
        e 0 80 60 00
        e 0 80 62 00
        e 0 80 63 00
        e 80 90 60 60
        e 0 90 62 60
        e 0 90 63 60
        e 80 80 60 00
        e 0 80 62 00
        e 0 80 63 00
        e 80 90 60 60
        e 0 90 62 60
        e 0 90 63 60
        e 80 80 60 00
        e 0 80 62 00
        e 0 80 63 00
        e 80 90 3c 60
        e 0 90 48 60
        e 0 90 4a 60
        e 0 90 54 60
        e 0 90 57 60
        e 0 90 60 60
        e 0 90 62 60
        e 0 90 63 60
        e 80 80 3c 00
        e 0 80 48 00
        e 0 80 4a 00
        e 0 80 54 00
        e 0 80 57 00
        e 0 80 60 00
        e 0 80 62 00
        e 0 80 63 00
        e 80 90 60 60
        e 80 80 60 00
        e 80 90 60 60
        e 80 80 60 00
        e 80 90 3c 60
        e 0 90 48 60
        e 0 90 54 60
        e 0 90 60 60
        e 80 80 3c 00
        e 0 80 48 00
        e 0 80 54 00
        e 0 80 60 00
        e 80 90 60 60
        e 80 80 60 00
        e 80 90 60 60
        e 80 80 60 00
        e 80 90 3c 60
        e 0 90 48 60
        e 0 90 49 60
        e 0 90 54 60
        e 0 90 56 60
        e 0 90 60 60
        e 0 90 61 60
        e 0 90 63 60
        e 80 80 3c 00
        e 0 80 48 00
        e 0 80 49 00
        e 0 80 54 00
        e 0 80 56 00
        e 0 80 60 00
        e 0 80 61 00
        e 0 80 63 00
        e 80 90 60 60
        e 0 90 61 60
        e 0 90 63 60
        e 80 80 60 00
        e 0 80 61 00
        e 0 80 63 00
        e 80 90 60 60
        e 0 90 61 60
        e 0 90 63 60
        e 80 80 60 00
        e 0 80 61 00
        e 0 80 63 00
        e 80 90 48 60
        e 0 90 49 60
        e 0 90 54 60
        e 0 90 56 60
        e 0 90 60 60
        e 0 90 61 60
        e 0 90 63 60
        e 80 80 48 00
        e 0 80 49 00
        e 0 80 54 00
        e 0 80 56 00
        e 0 80 60 00
        e 0 80 61 00
        e 0 80 63 00
        e 80 90 60 60
        e 0 90 61 60
        e 0 90 63 60
        e 80 80 60 00
        e 0 80 61 00
        e 0 80 63 00
        e 80 90 60 60
        e 0 90 61 60
        e 0 90 63 60
        e 80 80 60 00
        e 0 80 61 00
        e 0 80 63 00
        e 80 90 3d 60
        e 0 90 4a 60
        e 0 90 56 60
        e 0 90 62 60
        e 80 80 3d 00
        e 0 80 4a 00
        e 0 80 56 00
        e 0 80 62 00
        e 80 90 61 60
        e 80 80 61 00
        e 80 90 61 60
        e 80 80 61 00
        e 80 90 49 60
        e 0 90 55 60
        e 0 90 61 60
        e 80 80 49 00
        e 0 80 55 00
        e 0 80 61 00
        e 80 90 61 60
        e 80 80 61 00
        e 80 90 61 60
        e 80 80 61 00
        e 80 90 3f 60
        e 0 90 4a 60
        e 0 90 4b 60
        e 0 90 55 60
        e 0 90 58 60
        e 0 90 61 60
        e 0 90 62 60
        e 0 90 64 60
        e 80 80 3f 00
        e 0 80 4a 00
        e 0 80 4b 00
        e 0 80 55 00
        e 0 80 58 00
        e 0 80 61 00
        e 0 80 62 00
        e 0 80 64 00
        e 80 90 61 60
        e 0 90 62 60
        e 0 90 64 60
        e 80 80 61 00
        e 0 80 62 00
        e 0 80 64 00
        e 80 90 61 60
        e 0 90 62 60
        e 0 90 64 60
        e 80 80 61 00
        e 0 80 62 00
        e 0 80 64 00
        e 80 90 4a 60
        e 0 90 4b 60
        e 0 90 55 60
        e 0 90 58 60
        e 0 90 61 60
        e 0 90 62 60
        e 0 90 64 60
        e 80 80 4a 00
        e 0 80 4b 00
        e 0 80 55 00
        e 0 80 58 00
        e 0 80 61 00
        e 0 80 62 00
        e 0 80 64 00
        e 80 90 61 60
        e 0 90 62 60
        e 0 90 64 60
        e 80 80 61 00
        e 0 80 62 00
        e 0 80 64 00
        e 80 90 61 60
        e 0 90 62 60
        e 0 90 64 60
        e 80 80 61 00
        e 0 80 62 00
        e 0 80 64 00
        e 80 90 3d 60
        e 0 90 4a 60
        e 0 90 56 60
        e 0 90 62 60
        e 80 80 3d 00
        e 0 80 4a 00
        e 0 80 56 00
        e 0 80 62 00
        e 80 90 61 60
        e 80 80 61 00
        e 80 90 61 60
        e 80 80 61 00
        e 80 90 49 60
        e 0 90 55 60
        e 0 90 61 60
        e 80 80 49 00
        e 0 80 55 00
        e 0 80 61 00
        e 80 90 61 60
        e 80 80 61 00
        e 80 90 61 60
        e 80 80 61 00
        e 80 90 3f 60
        e 0 90 4a 60
        e 0 90 4b 60
        e 0 90 55 60
        e 0 90 58 60
        e 0 90 61 60
        e 0 90 62 60
        e 0 90 64 60
        e 80 80 3f 00
        e 0 80 4a 00
        e 0 80 4b 00
        e 0 80 55 00
        e 0 80 58 00
        e 0 80 61 00
        e 0 80 62 00
        e 0 80 64 00
        e 80 90 61 60
        e 0 90 62 60
        e 0 90 64 60
        e 80 80 61 00
        e 0 80 62 00
        e 0 80 64 00
        e 80 90 61 60
        e 0 90 62 60
        e 0 90 64 60
        e 80 80 61 00
        e 0 80 62 00
        e 0 80 64 00
        e 80 90 4a 60
        e 0 90 4b 60
        e 0 90 55 60
        e 0 90 58 60
        e 0 90 61 60
        e 0 90 62 60
        e 0 90 64 60
        e 80 80 4a 00
        e 0 80 4b 00
        e 0 80 55 00
        e 0 80 58 00
        e 0 80 61 00
        e 0 80 62 00
        e 0 80 64 00
        e 80 90 61 60
        e 0 90 62 60
        e 0 90 64 60
        e 80 80 61 00
        e 0 80 62 00
        e 0 80 64 00
        e 80 90 61 60
        e 0 90 62 60
        e 0 90 64 60
        e 80 80 61 00
        e 0 80 62 00
        e 0 80 64 00
        e 80 90 3d 60
        e 0 90 49 60
        e 0 90 55 60
        e 0 90 61 60
        e 80 80 3d 00
        e 0 80 49 00
        e 0 80 55 00
        e 0 80 61 00
        e 80 90 60 60
        e 80 80 60 00
        e 80 90 60 60
        e 80 80 60 00
        e 80 90 48 60
        e 0 90 54 60
        e 0 90 60 60
        e 80 80 48 00
        e 0 80 54 00
        e 0 80 60 00
        e 80 90 60 60
        e 80 80 60 00
        e 80 90 60 60
        e 80 80 60 00
        e 80 90 3f 60
        e 0 90 4a 60
        e 0 90 4b 60
        e 0 90 56 60
        e 0 90 58 60
        e 0 90 61 60
        e 0 90 63 60
        e 0 90 64 60
        e 80 80 3f 00
        e 0 80 4a 00
        e 0 80 4b 00
        e 0 80 56 00
        e 0 80 58 00
        e 0 80 61 00
        e 0 80 63 00
        e 0 80 64 00
        e 80 90 61 60
        e 0 90 63 60
        e 0 90 64 60
        e 80 80 61 00
        e 0 80 63 00
        e 0 80 64 00
        e 80 90 61 60
        e 0 90 63 60
        e 0 90 64 60
        e 80 80 61 00
        e 0 80 63 00
        e 0 80 64 00
        e 80 90 3f 60
        e 0 90 4a 60
        e 0 90 4b 60
        e 0 90 56 60
        e 0 90 58 60
        e 0 90 61 60
        e 0 90 63 60
        e 0 90 64 60
        e 80 80 3f 00
        e 0 80 4a 00
        e 0 80 4b 00
        e 0 80 56 00
        e 0 80 58 00
        e 0 80 61 00
        e 0 80 63 00
        e 0 80 64 00
        e 80 90 61 60
        e 0 90 63 60
        e 0 90 64 60
        e 80 80 61 00
        e 0 80 63 00
        e 0 80 64 00
        e 80 90 61 60
        e 0 90 63 60
        e 0 90 64 60
        e 80 80 61 00
        e 0 80 63 00
        e 0 80 64 00
        e 80 90 3f 60
        e 0 90 4a 60
        e 0 90 4b 60
        e 0 90 56 60
        e 0 90 58 60
        e 0 90 61 60
        e 0 90 63 60
        e 0 90 64 60
        e 80 80 3f 00
        e 0 80 4a 00
        e 0 80 4b 00
        e 0 80 56 00
        e 0 80 58 00
        e 0 80 61 00
        e 0 80 63 00
        e 0 80 64 00
        e 80 90 60 60
        e 80 80 60 00
        e 80 90 60 60
        e 80 80 60 00
        e 80 90 48 60
        e 0 90 54 60
        e 0 90 60 60
        e 80 80 48 00
        e 0 80 54 00
        e 0 80 60 00
        e 80 90 60 60
        e 80 80 60 00
        e 80 90 60 60
        e 80 80 60 00
        e 80 90 3f 60
        e 0 90 4a 60
        e 0 90 4b 60
        e 0 90 56 60
        e 0 90 58 60
        e 0 90 61 60
        e 0 90 63 60
        e 0 90 64 60
        e 80 80 3f 00
        e 0 80 4a 00
        e 0 80 4b 00
        e 0 80 56 00
        e 0 80 58 00
        e 0 80 61 00
        e 0 80 63 00
        e 0 80 64 00
        e 80 90 61 60
        e 0 90 63 60
        e 0 90 64 60
        e 80 80 61 00
        e 0 80 63 00
        e 0 80 64 00
        e 80 90 61 60
        e 0 90 63 60
        e 0 90 64 60
        e 80 80 61 00
        e 0 80 63 00
        e 0 80 64 00
        e 80 90 4a 60
        e 0 90 4b 60
        e 0 90 56 60
        e 0 90 58 60
        e 0 90 61 60
        e 0 90 63 60
        e 0 90 64 60
        e 80 80 4a 00
        e 0 80 4b 00
        e 0 80 56 00
        e 0 80 58 00
        e 0 80 61 00
        e 0 80 63 00
        e 0 80 64 00
        e 80 90 61 60
        e 0 90 63 60
        e 0 90 64 60
        e 80 80 61 00
        e 0 80 63 00
        e 0 80 64 00
        e 80 90 61 60
        e 0 90 63 60
        e 0 90 64 60
        e 80 80 61 00
        e 0 80 63 00
        e 0 80 64 00
        e 80 90 3e 60
        e 0 90 4b 60
        e 0 90 57 60
        e 0 90 63 60
        e 80 80 3e 00
        e 0 80 4b 00
        e 0 80 57 00
        e 0 80 63 00
        e 80 90 62 60
        e 80 80 62 00
        e 80 90 62 60
        e 80 80 62 00
        e 80 90 4a 60
        e 0 90 56 60
        e 0 90 62 60
        e 80 80 4a 00
        e 0 80 56 00
        e 0 80 62 00
        e 80 90 62 60
        e 80 80 62 00
        e 80 90 62 60
        e 80 80 62 00
        e 80 90 40 60
        e 0 90 4b 60
        e 0 90 4c 60
        e 0 90 57 60
        e 0 90 58 60
        e 0 90 62 60
        e 0 90 63 60
        e 0 90 64 60
        e 80 80 40 00
        e 0 80 4b 00
        e 0 80 4c 00
        e 0 80 57 00
        e 0 80 58 00
        e 0 80 62 00
        e 0 80 63 00
        e 0 80 64 00
        e 80 90 62 60
        e 0 90 63 60
        e 0 90 64 60
        e 80 80 62 00
        e 0 80 63 00
        e 0 80 64 00
        e 80 90 62 60
        e 0 90 63 60
        e 0 90 64 60
        e 80 80 62 00
        e 0 80 63 00
        e 0 80 64 00
        e 80 90 40 60
        e 0 90 4b 60
        e 0 90 4c 60
        e 0 90 57 60
        e 0 90 58 60
        e 0 90 62 60
        e 0 90 63 60
        e 0 90 64 60
        e 80 80 40 00
        e 0 80 4b 00
        e 0 80 4c 00
        e 0 80 57 00
        e 0 80 58 00
        e 0 80 62 00
        e 0 80 63 00
        e 0 80 64 00
        e 80 90 62 60
        e 0 90 63 60
        e 0 90 64 60
        e 80 80 62 00
        e 0 80 63 00
        e 0 80 64 00
        e 80 90 62 60
        e 0 90 63 60
        e 0 90 64 60
        e 80 80 62 00
        e 0 80 63 00
        e 0 80 64 00
        e 80 90 40 60
        e 0 90 4b 60
        e 0 90 4c 60
        e 0 90 57 60
        e 0 90 58 60
        e 0 90 62 60
        e 0 90 63 60
        e 0 90 64 60
        e 80 80 40 00
        e 0 80 4b 00
        e 0 80 4c 00
        e 0 80 57 00
        e 0 80 58 00
        e 0 80 62 00
        e 0 80 63 00
        e 0 80 64 00
        e 80 90 62 60
        e 80 80 62 00
        e 80 90 62 60
        e 80 80 62 00
        e 80 90 4a 60
        e 0 90 56 60
        e 0 90 62 60
        e 80 80 4a 00
        e 0 80 56 00
        e 0 80 62 00
        e 80 90 62 60
        e 80 80 62 00
        e 80 90 62 60
        e 80 80 62 00
        e 80 90 40 60
        e 0 90 4b 60
        e 0 90 4c 60
        e 0 90 57 60
        e 0 90 58 60
        e 0 90 62 60
        e 0 90 63 60
        e 0 90 64 60
        e 80 80 40 00
        e 0 80 4b 00
        e 0 80 4c 00
        e 0 80 57 00
        e 0 80 58 00
        e 0 80 62 00
        e 0 80 63 00
        e 0 80 64 00
        e 80 90 62 60
        e 0 90 63 60
        e 0 90 64 60
        e 80 80 62 00
        e 0 80 63 00
        e 0 80 64 00
        e 80 90 62 60
        e 0 90 63 60
        e 0 90 64 60
        e 80 80 62 00
        e 0 80 63 00
        e 0 80 64 00
        e 80 90 4b 60
        e 0 90 4c 60
        e 0 90 57 60
        e 0 90 58 60
        e 0 90 62 60
        e 0 90 63 60
        e 0 90 64 60
        e 80 80 4b 00
        e 0 80 4c 00
        e 0 80 57 00
        e 0 80 58 00
        e 0 80 62 00
        e 0 80 63 00
        e 0 80 64 00
        e 80 90 62 60
        e 0 90 63 60
        e 0 90 64 60
        e 80 80 62 00
        e 0 80 63 00
        e 0 80 64 00
        e 80 90 62 60
        e 80 80 62 00
        e 80 90 3d 60
        e 0 90 49 60
        e 0 90 55 60
        e 0 90 61 60
        e 80 80 3d 00
        e 0 80 49 00
        e 0 80 55 00
        e 0 80 61 00
        e 160 90 54 60
        e 0 90 60 60
        e 600 80 54 00
        e 0 80 60 00
        e 120 90 3c 60
        e 0 90 48 60
        e 0 90 49 60
        e 0 90 54 60
        e 0 90 56 60
        e 0 90 60 60
        e 0 90 61 60
        e 0 90 63 60
        e 480 80 3c 00
        e 0 80 48 00
        e 0 80 49 00
        e 360 80 54 00
        e 0 80 56 00
        e 0 80 60 00
        e 0 80 61 00
        e 0 80 63 00
        e 120 90 3d 60
        e 0 90 49 60
        e 0 90 4a 60
        e 0 90 55 60
        e 0 90 57 60
        e 0 90 61 60
        e 0 90 63 60
        e 60 80 3d 00
        e 0 80 49 00
        e 0 80 4a 00
        e 0 80 55 00
        e 0 80 57 00
        e 0 80 61 00
        e 0 80 63 00
        e 180 90 56 60
        e 0 90 57 60
        e 0 90 62 60
        e 0 90 63 60
        e 600 80 56 00
        e 0 80 57 00
        e 0 80 62 00
        e 0 80 63 00
        e 120 90 3c 60
        e 0 90 48 60
        e 0 90 4a 60
        e 0 90 54 60
        e 0 90 57 60
        e 0 90 60 60
        e 0 90 62 60
        e 0 90 63 60
        e 480 80 3c 00
        e 0 80 48 00
        e 0 80 4a 00
        e 360 80 54 00
        e 0 80 57 00
        e 0 80 60 00
        e 0 80 62 00
        e 0 80 63 00
        e 120 90 3d 60
        e 0 90 4a 60
        e 0 90 56 60
        e 0 90 62 60
        e 60 80 3d 00
        e 0 80 4a 00
        e 0 80 56 00
        e 0 80 62 00
        e 180 90 55 60
        e 0 90 61 60
        e 600 80 55 00
        e 0 80 61 00
        e 120 90 3f 60
        e 0 90 4a 60
        e 0 90 4b 60
        e 0 90 55 60
        e 0 90 58 60
        e 0 90 61 60
        e 0 90 62 60
        e 0 90 64 60
        e 480 80 3f 00
        e 0 80 4a 00
        e 0 80 4b 00
        e 360 80 55 00
        e 0 80 58 00
        e 0 80 61 00
        e 0 80 62 00
        e 0 80 64 00
        e 120 90 3d 60
        e 0 90 4a 60
        e 0 90 56 60
        e 0 90 62 60
        e 60 80 3d 00
        e 0 80 4a 00
        e 0 80 56 00
        e 0 80 62 00
        e 180 90 55 60
        e 0 90 61 60
        e 600 80 55 00
        e 0 80 61 00
        e 120 90 3f 60
        e 0 90 4a 60
        e 0 90 4b 60
        e 0 90 55 60
        e 0 90 58 60
        e 0 90 61 60
        e 0 90 62 60
        e 0 90 64 60
        e 480 80 3f 00
        e 0 80 4a 00
        e 0 80 4b 00
        e 360 80 55 00
        e 0 80 58 00
        e 0 80 61 00
        e 0 80 62 00
        e 0 80 64 00
        e 120 90 3e 60
        e 0 90 4b 60
        e 0 90 57 60
        e 0 90 63 60
        e 60 80 3e 00
        e 0 80 4b 00
        e 0 80 57 00
        e 0 80 63 00
        e 180 90 55 60
        e 0 90 61 60
        e 600 80 55 00
        e 0 80 61 00
        e 120 90 3f 60
        e 0 90 4a 60
        e 0 90 4b 60
        e 0 90 56 60
        e 0 90 58 60
        e 0 90 61 60
        e 0 90 63 60
        e 0 90 64 60
        e 480 80 3f 00
        e 0 80 4a 00
        e 0 80 4b 00
        e 360 80 56 00
        e 0 80 58 00
        e 0 80 61 00
        e 0 80 63 00
        e 0 80 64 00
        e 120 90 3e 60
        e 0 90 4b 60
        e 0 90 57 60
        e 0 90 63 60
        e 60 80 3e 00
        e 0 80 4b 00
        e 0 80 57 00
        e 0 80 63 00
        e 180 90 55 60
        e 0 90 61 60
        e 600 80 55 00
        e 0 80 61 00
        e 120 90 3f 60
        e 0 90 4a 60
        e 0 90 4b 60
        e 0 90 56 60
        e 0 90 58 60
        e 0 90 61 60
        e 0 90 63 60
        e 0 90 64 60
        e 480 80 3f 00
        e 0 80 4a 00
        e 0 80 4b 00
        e 360 80 56 00
        e 0 80 58 00
        e 0 80 61 00
        e 0 80 63 00
        e 0 80 64 00
        e 120 90 3e 60
        e 0 90 4b 60
        e 0 90 57 60
        e 0 90 63 60
        e 60 80 3e 00
        e 0 80 4b 00
        e 0 80 57 00
        e 0 80 63 00
        e 180 90 56 60
        e 0 90 62 60
        e 600 80 56 00
        e 0 80 62 00
        e 120 90 40 60
        e 0 90 4b 60
        e 0 90 4c 60
        e 0 90 57 60
        e 0 90 58 60
        e 0 90 62 60
        e 0 90 63 60
        e 0 90 64 60
        e 480 80 40 00
        e 0 80 4b 00
        e 0 80 4c 00
        e 360 80 57 00
        e 0 80 58 00
        e 0 80 62 00
        e 0 80 63 00
        e 0 80 64 00
        e 120 90 3e 60
        e 0 90 4b 60
        e 0 90 57 60
        e 0 90 63 60
        e 60 80 3e 00
        e 0 80 4b 00
        e 0 80 57 00
        e 0 80 63 00
        e 180 90 56 60
        e 0 90 62 60
        e 600 80 56 00
        e 0 80 62 00
        e 120 90 40 60
        e 0 90 4b 60
        e 0 90 4c 60
        e 0 90 57 60
        e 0 90 58 60
        e 0 90 62 60
        e 0 90 63 60
        e 0 90 64 60
        e 480 80 40 00
        e 0 80 4b 00
        e 0 80 4c 00
        e 360 80 57 00
        e 0 80 58 00
        e 0 80 62 00
        e 0 80 63 00
        e 0 80 64 00
        e 120 90 3d 60
        e 0 90 49 60
        e 0 90 4a 60
        e 0 90 55 60
        e 0 90 57 60
        e 0 90 61 60
        e 0 90 63 60
        e 60 80 3d 00
        e 0 80 49 00
        e 0 80 4a 00
        e 0 80 55 00
        e 0 80 57 00
        e 0 80 61 00
        e 0 80 63 00
        e 240 90 54 60
        e 0 90 60 60
        e 540 80 54 00
        e 60 80 60 00
        e 60 90 3d 60
        e 0 90 49 60
        e 0 90 55 60
        e 0 90 60 60
        e 80 80 60 00
        e 0 90 61 60
        e 80 80 61 00
        e 0 90 60 60
        e 0 90 61 60
        e 0 90 63 60
        e 11360 80 3d 00
        e 0 80 49 00
        e 0 80 55 00
        e 0 80 60 00
        e 0 80 61 00
        e 0 80 63 00
        <X 480 0
          /wFbaWRsZV9yZWFsdGltZV0=
        >
        E 7200 b0 7b 00
        GUID {54A57D35-811F-42A6-AB75-F5706122F903}
        IGNTEMPO 0 120.00000000 4 4
        SRCCOLOR 291
        VELLANE 132 128 60
        COLORMAP "C:\Program Files (x86)\REAPER\Data\color_maps\rockband_guitarbass.png"
        BANKPROGRAMFILE "C:\Users\AJFOne23\AppData\Roaming\REAPER/Data/GM.reabank"
        TEXTSTRINGFILE "Text Events List.txt"
        CFGEDITVIEW -122836.256123 2.149203 25 12 0 0 0
        CFGEDIT 1 1 0 0 0 1 1 1 1 1 1 0.25000000 -8 -8 1370 736 1 2 1 2 0.00000000 0 0 0 0 0.500000 1 0 1.000000 64
        KEYSNAP 0 0 "102034050607" 0 "Major"
        EVTFILTER 0 -1 -1 -1 -1 0 1 0 0 -1.00000000 -1.00000000
      >
    >
  >
  <TRACK '{C298A11E-8E06-44B8-AA31-429ECCE3F0AF}'
    NAME "PART VOCALS"
    PEAKCOL 16810239
    BEAT -1
    AUTOMODE 0
    VOLPAN 1.00000000000000 0.00000000000000 -1.00000000000000 -1.00000000000000 1.00000000000000
    MUTESOLO 0 0 0
    IPHASE 0
    ISBUS 0 0
    BUSCOMP 1 0
    SHOWINMIX 1 0.666700 0.500000 1 0.500000 -1 -1 -1
    FREEMODE 0
    SEL 0
    REC 0 4096 1 7 0 0 0
    TRACKHEIGHT 51 0
    INQ 0 0 0 0.5000000000 100 0 0 100
    NCHAN 2
    FX 1
    TRACKID {C298A11E-8E06-44B8-AA31-429ECCE3F0AF}
    PERF 0
    MIDIOUT -1
    <MIDINOTENAMES
      0 105 "Phrase Marker"
      0 84 "C5"
      0 36 "C1"
      0 83 "B"
      0 82 "Bb"
      0 81 "A"
      0 80 "G#"
      0 79 "G"
      0 78 "F#"
      0 77 "F"
      0 76 "E"
      0 75 "Eb"
      0 74 "D"
      0 73 "C#"
      0 72 "C4"
      0 71 "B"
      0 70 "Bb"
      0 69 "A"
      0 68 "G#"
      0 67 "G"
      0 66 "F#"
      0 65 "F"
      0 64 "E"
      0 63 "Eb"
      0 62 "D"
      0 61 "C#"
      0 60 "C3"
      0 59 "B"
      0 58 "Bb"
      0 57 "A"
      0 56 "G#"
      0 55 "G"
      0 54 "F#"
      0 53 "F"
      0 52 "E"
      0 51 "Eb"
      0 50 "D"
      0 49 "C#"
      0 48 "C2"
      0 47 "B"
      0 46 "Bb"
      0 45 "A"
      0 44 "G#"
      0 43 "G"
      0 42 "F#"
      0 41 "F"
      0 40 "E"
      0 39 "Eb"
      0 38 "D"
      0 37 "C#"
      0 97 "Not Displayed Percussion"
      0 96 "Displayed Percussion"
      0 104 "----"
      0 95 "----"
      0 116 "OVERDRIVE"
      0 115 "----"
      0 0 "Range Shift"
      0 1 "Lyric Shift"
    >
    MAINSEND 1 0
    <FXCHAIN
      WNDRECT 581 377 716 493
      SHOW 0
      LASTSEL 1
      DOCKED 0
      BYPASS 0 0
      <JS "IX/MIDI_Tool II" ""
        0.000000 85.000000 127.000000 0.000000 0.000000 0.000000 100.000000 0.000000 0.000000 127.000000 0.000000 0.000000 1.000000 0.000000 0.000000 - - - - - - - - - - - - - - - - - - - - - - - - - - - - - - - - - - - - - - - - - - - - - - - - - 
      >
      FLOATPOS 0 0 0 0
      FXID {CA785021-0433-497E-9A6C-EE23A1BC21B0}
      WAK 0
      BYPASS 0 0
      <VST "VSTi: ReaSynth (Cockos)" "reasynth.dll" 0 ""
        eXNlcu9e7f4AAAAAAgAAAAEAAAAAAAAAAgAAAAAAAAA4AAAAAAAAAA==
        AAAAAO++rd4N8K3eppvEOxe30TqcxKA+c2jRPgAAAADMm4A+6WeIPQ==
        AAAAAAAAAD8AAIA/6SaxPgAAAD8AAAAAAAA=
      >
      FLOATPOS 32 32 338 405
      FXID {F124DD19-73B4-4CD5-B659-E246F2A3D0B3}
      WAK 0
    >
    <ITEM
      POSITION 0.00000000000000
      SNAPOFFS 0.00000000000000
      LENGTH 249.91602778456021
      LOOP 0
      ALLTAKES 0
      SEL 0
      FADEIN 1 0.000000 0.000000 1 0
      FADEOUT 1 0.000000 0.000000 1 0
      MUTE 0
      IGUID {9C9617EC-369A-41B9-80F6-31F4222F13F6}
      IID 16
      NAME "PART VOCALS"
      VOLPAN 1.000000 0.000000 1.000000 -1.000000
      SOFFS 0.00000000000000 0.00000000000000
      PLAYRATE 1.00000000000000 1 0.00000000000000 -65536
      CHANMODE 0
      GUID {8E872349-00D8-4243-95D7-0B92852E4EE5}
      <SOURCE MIDI
        HASDATA 1 480 QN
        POOLEDEVTS {5E63A374-B331-4627-8007-B1499CAB4C65}
        <X 0 0
          /wNQQVJUIFZPQ0FMUw==
        >
        <X 5760 0
          /wFbaWRsZV0=
        >
        <X 1937 0
          /wFbcGxheV0=
        >
        E 250543 b0 7b 00
        GUID {C9A1A4CA-4224-4672-91C0-075BEB2A8650}
        IGNTEMPO 0 120.00000000 4 4
        SRCCOLOR 295
        VELLANE 132 128 128
        COLORMAP "C:\Users\me\AppData\Roaming\REAPER\Data\color_maps\rockband_vox-other.png"
        BANKPROGRAMFILE "C:\Users\AJFOne23\AppData\Roaming\REAPER/Data/GM.reabank"
        TEXTSTRINGFILE "Text Events List.txt"
        CFGEDITVIEW -2125.170558 82.395269 0 12 0 0 0
        CFGEDIT 1 1 0 0 1 1 1 1 1 1 1 0.06250000 75 0 1611 691 1 2 1 2 0.00000000 0 0 0 0 0.500000 1 0 1.000000 64
        KEYSNAP 0 0 "102034050607" 0 "Major"
        EVTFILTER 0 -1 -1 -1 -1 0 1 0 0 -1.00000000 -1.00000000
      >
    >
  >
  <TRACK '{4BCC1CF3-63A3-43C4-A155-D3593AD88A10}'
    NAME "EVENTS"
    PEAKCOL 29393024
    BEAT -1
    AUTOMODE 0
    VOLPAN 1.00000000000000 0.00000000000000 -1.00000000000000 -1.00000000000000 1.00000000000000
    MUTESOLO 0 0 0
    IPHASE 0
    ISBUS 1 1
    BUSCOMP 0 0
    SHOWINMIX 1 0.666700 0.500000 1 0.500000 -1 -1 -1
    FREEMODE 0
    SEL 0
    REC 0 0 0 0 0 0 0
    TRACKHEIGHT 43 0
    INQ 0 0 0 0.5000000000 100 0 0 100
    NCHAN 2
    FX 1
    TRACKID {4BCC1CF3-63A3-43C4-A155-D3593AD88A10}
    PERF 0
    MIDIOUT -1
    MAINSEND 1 0
    <FXCHAIN
      SHOW 0
      LASTSEL 0
      DOCKED 0
    >
    <ITEM
      POSITION 0.00000000000000
      SNAPOFFS 0.00000000000000
      LENGTH 249.91602778456030
      LOOP 0
      ALLTAKES 0
      SEL 0
      FADEIN 1 0.000000 0.000000 1 0
      FADEOUT 1 0.000000 0.000000 1 0
      MUTE 0
      IGUID {86A06D27-867C-4398-9CE6-8F0526B3B594}
      IID 7
      NAME "EVENTS"
      VOLPAN 1.000000 0.000000 1.000000 -1.000000
      SOFFS 0.00000000000000 0.00000000000000
      PLAYRATE 1.00000000000000 1 0.00000000000000 -65536
      CHANMODE 0
      GUID {584C8192-4FF3-4E29-8138-2E6BD568B61A}
      <SOURCE MIDI
        HASDATA 1 480 QN
        POOLEDEVTS {DB702D54-7AFD-4063-8639-2DA3502B271D}
        <X 0 0
          /wNFVkVOVFM=
        >
        <X 0 0
          /wFbY3Jvd2Rfbm9ybWFsXQ==
        >
        <X 0 0
          /wFbcHJjX2ludHJvXQ==
        >
        <X 3840 0
          /wFbbXVzaWNfc3RhcnRd
        >
        <X 14880 0
          /wFbcHJjX3ZlcnNlXzFhXQ==
        >
        <X 15360 0
          /wFbcHJjX3ZlcnNlXzFiXQ==
        >
        <X 23040 0
          /wFbcHJjX2JyaWRnZV9hXQ==
        >
        <X 7680 0
          /wFbcHJjX3ZlcnNlXzJhXQ==
        >
        <X 23040 0
          /wFbcHJjX3ZlcnNlXzJiXQ==
        >
        <X 15360 0
          /wFbcHJjX2Nob3J1c18xYV0=
        >
        <X 10080 0
          /wFbcHJjX2d0cl9zb2xvXQ==
        >
        <X 8160 0
          /wFbcHJjX3ZlcnNlXzNhXQ==
        >
        <X 15360 0
          /wFbcHJjX3ZlcnNlXzNiXQ==
        >
        <X 9600 0
          /wFbcHJjX3ZlcnNlXzNjXQ==
        >
        <X 15360 0
          /wFbcHJjX2Nob3J1c18yYV0=
        >
        <X 6720 0
          /wFbcHJjX291dHJvXQ==
        >
        <X 84960 0
          /wFbbXVzaWNfZW5kXQ==
        >
        <X 3360 0
          /wFbZW5kXQ==
        >
        E 1440 b0 7b 00
        GUID {40AD7956-A22A-434A-8513-4D3792B9DF69}
        IGNTEMPO 0 120.00000000 4 4
        SRCCOLOR 292
        VELLANE 132 100 100
        COLORMAP "C:\Users\AJFOne23\AppData\Roaming\REAPER\Data\color_maps\rockband_vox-other.png"
        BANKPROGRAMFILE "C:\Users\AJFOne23\AppData\Roaming\REAPER/Data/GM.reabank"
        TEXTSTRINGFILE "Text Events List.txt"
        CFGEDITVIEW -176884.208818 1.492502 0 48 0 0 0
        CFGEDIT 1 1 0 0 0 1 1 1 1 1 1 1.00000000 44 63 1223 847 1 2 1 2 0.00000000 0 0 0 0 0.500000 1 0 1.000000 64
        KEYSNAP 0 0 "102034050607" 0 "Major"
        EVTFILTER 0 -1 -1 -1 -1 0 1 0 0 -1.00000000 -1.00000000
      >
    >
  >
  <TRACK '{1529008F-97D2-43EB-8634-7C5A7418AD90}'
    NAME "VENUE"
    PEAKCOL 16842496
    BEAT -1
    AUTOMODE 0
    VOLPAN 1.00000000000000 0.00000000000000 -1.00000000000000 -1.00000000000000 1.00000000000000
    MUTESOLO 0 0 0
    IPHASE 0
    ISBUS 0 0
    BUSCOMP 0 0
    SHOWINMIX 1 0.666700 0.500000 1 0.500000 -1 -1 -1
    FREEMODE 0
    SEL 0
    REC 0 0 0 0 0 0 0
    TRACKHEIGHT 0 0
    INQ 0 0 0 0.5000000000 100 0 0 100
    NCHAN 2
    FX 1
    TRACKID {1529008F-97D2-43EB-8634-7C5A7418AD90}
    PERF 0
    MIDIOUT -1
    <MIDINOTENAMES
      0 87 "Guitarist Sing Along"
      0 86 "Drummer Sing Along"
      0 85 "Bassist Sing Along"
      0 40 "Spotlight on Vocals"
      0 39 "Spotlight on Guitar"
      0 38 "Spotlight on Drums"
      0 37 "Spotlight on Bass"
      0 41 "Spotlight on Keys"
    >
    MAINSEND 1 0
    <FXCHAIN
      SHOW 0
      LASTSEL 0
      DOCKED 0
    >
    <ITEM
      POSITION 0.00000000000000
      SNAPOFFS 0.00000000000000
      LENGTH 249.91602778456021
      LOOP 0
      ALLTAKES 0
      SEL 0
      FADEIN 1 0.000000 0.000000 1 0
      FADEOUT 1 0.000000 0.000000 1 0
      MUTE 0
      IGUID {71027329-E0AB-447D-A192-4839733334E7}
      IID 8
      NAME "VENUE"
      VOLPAN 1.000000 0.000000 1.000000 -1.000000
      SOFFS 0.00000000000000 0.00000000000000
      PLAYRATE 1.00000000000000 1 0.00000000000000 -65536
      CHANMODE 0
      GUID {44F0FFD1-5109-4A47-8BED-262AA04D3B23}
      <SOURCE MIDI
        HASDATA 1 480 QN
        POOLEDEVTS {D4D8E5F1-980F-4DD5-91CC-2ED694494F03}
        <X 0 0
          /wNWRU5VRQ==
        >
        <X 0 0
          /wFbbGlnaHRpbmcgKCld
        >
        E 258240 b0 7b 00
        GUID {30097062-47C5-4B33-B665-170EF09D70D9}
        IGNTEMPO 0 120.00000000 4 4
        SRCCOLOR 293
        VELLANE 132 230 230
        COLORMAP "M:\RGS Documents\ColorMaps\rockband_vox-other.png"
        BANKPROGRAMFILE "C:\Users\AJFOne23\AppData\Roaming\REAPER/Data/GM.reabank"
        TEXTSTRINGFILE "Text Events List.txt"
        CFGEDITVIEW -4718.717521 82.395269 79 12 0 0 0
        CFGEDIT 1 1 0 0 0 1 1 1 1 1 1 0.25000000 133 19 1300 803 1 0 1 2 0.00000000 0 0 0 0 0.500000 1 0 1.000000 64
        KEYSNAP 0 0 "102034050607" 0 "Major"
        EVTFILTER 0 -1 -1 -1 -1 0 1 0 0 -1.00000000 -1.00000000
      >
    >
  >
  <TRACK '{7BC63EFC-0ABC-4D0D-8204-E9893AE9FFFA}'
    NAME "BEAT"
    PEAKCOL 23514346
    BEAT -1
    AUTOMODE 0
    VOLPAN 1.00000000000000 0.00000000000000 -1.00000000000000 -1.00000000000000 1.00000000000000
    MUTESOLO 0 0 0
    IPHASE 0
    ISBUS 2 -1
    BUSCOMP 1 0
    SHOWINMIX 1 0.666700 0.500000 1 0.500000 -1 -1 -1
    FREEMODE 0
    SEL 0
    REC 0 0 0 0 0 0 0
    TRACKHEIGHT 0 0
    INQ 0 0 0 0.5000000000 100 0 0 100
    NCHAN 2
    FX 1
    TRACKID {7BC63EFC-0ABC-4D0D-8204-E9893AE9FFFA}
    PERF 0
    MIDIOUT -1
    <MIDINOTENAMES
      0 12 "Downbeat"
      0 13 "Up Beats"
    >
    MAINSEND 1 0
    <FXCHAIN
      SHOW 0
      LASTSEL 0
      DOCKED 0
    >
    <ITEM
      POSITION 0.00000000000000
      SNAPOFFS 0.00000000000000
      LENGTH 249.91602778456030
      LOOP 0
      ALLTAKES 0
      SEL 0
      FADEIN 1 0.000000 0.000000 1 0
      FADEOUT 1 0.000000 0.000000 1 0
      MUTE 0
      IGUID {9960CDFD-BF2E-4E67-97CD-4F13D0A3F2ED}
      IID 9
      NAME "BEAT"
      VOLPAN 1.000000 0.000000 1.000000 -1.000000
      SOFFS 0.00000000000000 0.00000000000000
      PLAYRATE 1.00000000000000 1 0.00000000000000 -65536
      CHANMODE 0
      GUID {CEBFDCF1-B2BD-47E1-A085-C26E1C9E9ED2}
      <SOURCE MIDI
        HASDATA 1 480 QN
        POOLEDEVTS {AD02CF3E-CB73-4295-BF39-8F383B2CE72F}
        <X 0 0
          /wNCRUFU
        >
        e 0 96 0c 64
        e 120 86 0c 00
        e 360 96 0d 64
        e 120 86 0d 00
        e 360 96 0d 64
        e 120 86 0d 00
        e 360 96 0d 64
        e 120 86 0d 00
        e 360 96 0c 64
        e 120 86 0c 00
        e 360 96 0d 64
        e 120 86 0d 00
        e 360 96 0d 64
        e 120 86 0d 00
        e 360 96 0d 64
        e 120 86 0d 00
        e 360 96 0c 64
        e 120 86 0c 00
        e 360 96 0d 64
        e 120 86 0d 00
        e 360 96 0d 64
        e 120 86 0d 00
        e 360 96 0d 64
        e 120 86 0d 00
        e 360 96 0c 64
        e 120 86 0c 00
        e 360 96 0d 64
        e 120 86 0d 00
        e 360 96 0d 64
        e 120 86 0d 00
        e 360 96 0d 64
        e 120 86 0d 00
        e 360 96 0c 64
        e 120 86 0c 00
        e 360 96 0d 64
        e 120 86 0d 00
        e 360 96 0d 64
        e 120 86 0d 00
        e 360 96 0d 64
        e 120 86 0d 00
        e 360 96 0c 64
        e 120 86 0c 00
        e 360 96 0d 64
        e 120 86 0d 00
        e 360 96 0d 64
        e 120 86 0d 00
        e 360 96 0d 64
        e 120 86 0d 00
        e 360 96 0c 64
        e 120 86 0c 00
        e 360 96 0d 64
        e 120 86 0d 00
        e 360 96 0d 64
        e 120 86 0d 00
        e 360 96 0d 64
        e 120 86 0d 00
        e 360 96 0c 64
        e 120 86 0c 00
        e 360 96 0d 64
        e 120 86 0d 00
        e 360 96 0d 64
        e 120 86 0d 00
        e 360 96 0d 64
        e 120 86 0d 00
        e 360 96 0c 64
        e 120 86 0c 00
        e 360 96 0d 64
        e 120 86 0d 00
        e 360 96 0d 64
        e 120 86 0d 00
        e 360 96 0d 64
        e 120 86 0d 00
        e 360 96 0c 64
        e 120 86 0c 00
        e 360 96 0d 64
        e 120 86 0d 00
        e 360 96 0d 64
        e 120 86 0d 00
        e 360 96 0d 64
        e 120 86 0d 00
        e 360 96 0c 64
        e 120 86 0c 00
        e 360 96 0d 64
        e 120 86 0d 00
        e 360 96 0d 64
        e 120 86 0d 00
        e 360 96 0d 64
        e 120 86 0d 00
        e 360 96 0c 64
        e 120 86 0c 00
        e 360 96 0d 64
        e 120 86 0d 00
        e 360 96 0d 64
        e 120 86 0d 00
        e 360 96 0d 64
        e 120 86 0d 00
        e 360 96 0c 64
        e 120 86 0c 00
        e 360 96 0d 64
        e 120 86 0d 00
        e 360 96 0d 64
        e 120 86 0d 00
        e 360 96 0d 64
        e 120 86 0d 00
        e 360 96 0c 64
        e 120 86 0c 00
        e 360 96 0d 64
        e 120 86 0d 00
        e 360 96 0d 64
        e 120 86 0d 00
        e 360 96 0d 64
        e 120 86 0d 00
        e 360 96 0c 64
        e 120 86 0c 00
        e 360 96 0d 64
        e 120 86 0d 00
        e 360 96 0d 64
        e 120 86 0d 00
        e 360 96 0d 64
        e 120 86 0d 00
        e 360 96 0c 64
        e 120 86 0c 00
        e 360 96 0d 64
        e 120 86 0d 00
        e 360 96 0d 64
        e 120 86 0d 00
        e 360 96 0d 64
        e 120 86 0d 00
        e 360 96 0c 64
        e 120 86 0c 00
        e 360 96 0d 64
        e 120 86 0d 00
        e 360 96 0d 64
        e 120 86 0d 00
        e 360 96 0d 64
        e 120 86 0d 00
        e 360 96 0c 64
        e 120 86 0c 00
        e 360 96 0d 64
        e 120 86 0d 00
        e 360 96 0d 64
        e 120 86 0d 00
        e 360 96 0d 64
        e 120 86 0d 00
        e 360 96 0c 64
        e 120 86 0c 00
        e 360 96 0d 64
        e 120 86 0d 00
        e 360 96 0d 64
        e 120 86 0d 00
        e 360 96 0d 64
        e 120 86 0d 00
        e 360 96 0c 64
        e 120 86 0c 00
        e 360 96 0d 64
        e 120 86 0d 00
        e 360 96 0d 64
        e 120 86 0d 00
        e 360 96 0d 64
        e 120 86 0d 00
        e 360 96 0c 64
        e 120 86 0c 00
        e 360 96 0d 64
        e 120 86 0d 00
        e 360 96 0d 64
        e 120 86 0d 00
        e 360 96 0d 64
        e 120 86 0d 00
        e 360 96 0c 64
        e 120 86 0c 00
        e 360 96 0d 64
        e 120 86 0d 00
        e 360 96 0d 64
        e 120 86 0d 00
        e 360 96 0d 64
        e 120 86 0d 00
        e 360 96 0c 64
        e 120 86 0c 00
        e 360 96 0d 64
        e 120 86 0d 00
        e 360 96 0d 64
        e 120 86 0d 00
        e 360 96 0d 64
        e 120 86 0d 00
        e 360 96 0c 64
        e 120 86 0c 00
        e 360 96 0d 64
        e 120 86 0d 00
        e 360 96 0d 64
        e 120 86 0d 00
        e 360 96 0d 64
        e 120 86 0d 00
        e 360 96 0c 64
        e 120 86 0c 00
        e 360 96 0d 64
        e 120 86 0d 00
        e 360 96 0d 64
        e 120 86 0d 00
        e 360 96 0d 64
        e 120 86 0d 00
        e 360 96 0c 64
        e 120 86 0c 00
        e 360 96 0d 64
        e 120 86 0d 00
        e 360 96 0d 64
        e 120 86 0d 00
        e 360 96 0d 64
        e 120 86 0d 00
        e 360 96 0c 64
        e 120 86 0c 00
        e 360 96 0d 64
        e 120 86 0d 00
        e 360 96 0d 64
        e 120 86 0d 00
        e 360 96 0d 64
        e 120 86 0d 00
        e 360 96 0c 64
        e 120 86 0c 00
        e 360 96 0d 64
        e 120 86 0d 00
        e 360 96 0d 64
        e 120 86 0d 00
        e 360 96 0d 64
        e 120 86 0d 00
        e 360 96 0c 64
        e 120 86 0c 00
        e 360 96 0d 64
        e 120 86 0d 00
        e 360 96 0d 64
        e 120 86 0d 00
        e 360 96 0d 64
        e 120 86 0d 00
        e 360 96 0c 64
        e 120 86 0c 00
        e 360 96 0d 64
        e 120 86 0d 00
        e 360 96 0d 64
        e 120 86 0d 00
        e 360 96 0d 64
        e 120 86 0d 00
        e 360 96 0c 64
        e 120 86 0c 00
        e 360 96 0d 64
        e 120 86 0d 00
        e 360 96 0d 64
        e 120 86 0d 00
        e 360 96 0d 64
        e 120 86 0d 00
        e 360 96 0c 64
        e 120 86 0c 00
        e 360 96 0d 64
        e 120 86 0d 00
        e 360 96 0d 64
        e 120 86 0d 00
        e 360 96 0d 64
        e 120 86 0d 00
        e 360 96 0c 64
        e 120 86 0c 00
        e 360 96 0d 64
        e 120 86 0d 00
        e 360 96 0d 64
        e 120 86 0d 00
        e 360 96 0d 64
        e 120 86 0d 00
        e 360 96 0c 64
        e 120 86 0c 00
        e 360 96 0d 64
        e 120 86 0d 00
        e 360 96 0d 64
        e 120 86 0d 00
        e 360 96 0d 64
        e 120 86 0d 00
        e 360 96 0c 64
        e 120 86 0c 00
        e 360 96 0d 64
        e 120 86 0d 00
        e 360 96 0d 64
        e 120 86 0d 00
        e 360 96 0d 64
        e 120 86 0d 00
        e 360 96 0c 64
        e 120 86 0c 00
        e 360 96 0d 64
        e 120 86 0d 00
        e 360 96 0d 64
        e 120 86 0d 00
        e 360 96 0d 64
        e 120 86 0d 00
        e 360 96 0c 64
        e 120 86 0c 00
        e 360 96 0d 64
        e 120 86 0d 00
        e 360 96 0d 64
        e 120 86 0d 00
        e 360 96 0d 64
        e 120 86 0d 00
        e 360 96 0c 64
        e 120 86 0c 00
        e 360 96 0d 64
        e 120 86 0d 00
        e 360 96 0d 64
        e 120 86 0d 00
        e 360 96 0d 64
        e 120 86 0d 00
        e 360 96 0c 64
        e 120 86 0c 00
        e 360 96 0d 64
        e 120 86 0d 00
        e 360 96 0d 64
        e 120 86 0d 00
        e 360 96 0d 64
        e 120 86 0d 00
        e 360 96 0c 64
        e 120 86 0c 00
        e 360 96 0d 64
        e 120 86 0d 00
        e 360 96 0d 64
        e 120 86 0d 00
        e 360 96 0d 64
        e 120 86 0d 00
        e 360 96 0c 64
        e 120 86 0c 00
        e 360 96 0d 64
        e 120 86 0d 00
        e 360 96 0d 64
        e 120 86 0d 00
        e 360 96 0d 64
        e 120 86 0d 00
        e 360 96 0c 64
        e 120 86 0c 00
        e 360 96 0d 64
        e 120 86 0d 00
        e 360 96 0d 64
        e 120 86 0d 00
        e 360 96 0d 64
        e 120 86 0d 00
        e 360 96 0c 64
        e 120 86 0c 00
        e 360 96 0d 64
        e 120 86 0d 00
        e 360 96 0d 64
        e 120 86 0d 00
        e 360 96 0d 64
        e 120 86 0d 00
        e 360 96 0c 64
        e 120 86 0c 00
        e 360 96 0d 64
        e 120 86 0d 00
        e 360 96 0d 64
        e 120 86 0d 00
        e 360 96 0d 64
        e 120 86 0d 00
        e 360 96 0c 64
        e 120 86 0c 00
        e 360 96 0d 64
        e 120 86 0d 00
        e 360 96 0d 64
        e 120 86 0d 00
        e 360 96 0d 64
        e 120 86 0d 00
        e 360 96 0c 64
        e 120 86 0c 00
        e 360 96 0d 64
        e 120 86 0d 00
        e 360 96 0d 64
        e 120 86 0d 00
        e 360 96 0d 64
        e 120 86 0d 00
        e 360 96 0c 64
        e 120 86 0c 00
        e 360 96 0d 64
        e 120 86 0d 00
        e 360 96 0d 64
        e 120 86 0d 00
        e 360 96 0d 64
        e 120 86 0d 00
        e 360 96 0c 64
        e 120 86 0c 00
        e 360 96 0d 64
        e 120 86 0d 00
        e 360 96 0d 64
        e 120 86 0d 00
        e 360 96 0d 64
        e 120 86 0d 00
        e 360 96 0c 64
        e 120 86 0c 00
        e 360 96 0d 64
        e 120 86 0d 00
        e 360 96 0d 64
        e 120 86 0d 00
        e 360 96 0d 64
        e 120 86 0d 00
        e 360 96 0c 64
        e 120 86 0c 00
        e 360 96 0d 64
        e 120 86 0d 00
        e 360 96 0d 64
        e 120 86 0d 00
        e 360 96 0d 64
        e 120 86 0d 00
        e 360 96 0c 64
        e 120 86 0c 00
        e 360 96 0d 64
        e 120 86 0d 00
        e 360 96 0d 64
        e 120 86 0d 00
        e 360 96 0d 64
        e 120 86 0d 00
        e 360 96 0c 64
        e 120 86 0c 00
        e 360 96 0d 64
        e 120 86 0d 00
        e 360 96 0d 64
        e 120 86 0d 00
        e 360 96 0d 64
        e 120 86 0d 00
        e 360 96 0c 64
        e 120 86 0c 00
        e 360 96 0d 64
        e 120 86 0d 00
        e 360 96 0d 64
        e 120 86 0d 00
        e 360 96 0d 64
        e 120 86 0d 00
        e 360 96 0c 64
        e 120 86 0c 00
        e 360 96 0d 64
        e 120 86 0d 00
        e 360 96 0d 64
        e 120 86 0d 00
        e 360 96 0d 64
        e 120 86 0d 00
        e 360 96 0c 64
        e 120 86 0c 00
        e 360 96 0d 64
        e 120 86 0d 00
        e 360 96 0d 64
        e 120 86 0d 00
        e 360 96 0d 64
        e 120 86 0d 00
        e 360 96 0c 64
        e 120 86 0c 00
        e 360 96 0d 64
        e 120 86 0d 00
        e 360 96 0d 64
        e 120 86 0d 00
        e 360 96 0d 64
        e 120 86 0d 00
        e 360 96 0c 64
        e 120 86 0c 00
        e 360 96 0d 64
        e 120 86 0d 00
        e 360 96 0d 64
        e 120 86 0d 00
        e 360 96 0d 64
        e 120 86 0d 00
        e 360 96 0c 64
        e 120 86 0c 00
        e 360 96 0d 64
        e 120 86 0d 00
        e 360 96 0d 64
        e 120 86 0d 00
        e 360 96 0d 64
        e 120 86 0d 00
        e 360 96 0c 64
        e 120 86 0c 00
        e 360 96 0d 64
        e 120 86 0d 00
        e 360 96 0d 64
        e 120 86 0d 00
        e 360 96 0d 64
        e 120 86 0d 00
        e 360 96 0c 64
        e 120 86 0c 00
        e 360 96 0d 64
        e 120 86 0d 00
        e 360 96 0d 64
        e 120 86 0d 00
        e 360 96 0d 64
        e 120 86 0d 00
        e 360 96 0c 64
        e 120 86 0c 00
        e 360 96 0d 64
        e 120 86 0d 00
        e 360 96 0d 64
        e 120 86 0d 00
        e 360 96 0d 64
        e 120 86 0d 00
        e 360 96 0c 64
        e 120 86 0c 00
        e 360 96 0d 64
        e 120 86 0d 00
        e 360 96 0d 64
        e 120 86 0d 00
        e 360 96 0d 64
        e 120 86 0d 00
        e 360 96 0c 64
        e 120 86 0c 00
        e 360 96 0d 64
        e 120 86 0d 00
        e 360 96 0d 64
        e 120 86 0d 00
        e 360 96 0d 64
        e 120 86 0d 00
        e 360 96 0c 64
        e 120 86 0c 00
        e 360 96 0d 64
        e 120 86 0d 00
        e 360 96 0d 64
        e 120 86 0d 00
        e 360 96 0d 64
        e 120 86 0d 00
        e 360 96 0c 64
        e 120 86 0c 00
        e 360 96 0d 64
        e 120 86 0d 00
        e 360 96 0d 64
        e 120 86 0d 00
        e 360 96 0d 64
        e 120 86 0d 00
        e 360 96 0c 64
        e 120 86 0c 00
        e 360 96 0d 64
        e 120 86 0d 00
        e 360 96 0d 64
        e 120 86 0d 00
        e 360 96 0d 64
        e 120 86 0d 00
        e 360 96 0c 64
        e 120 86 0c 00
        e 360 96 0d 64
        e 120 86 0d 00
        e 360 96 0d 64
        e 120 86 0d 00
        e 360 96 0d 64
        e 120 86 0d 00
        e 360 96 0c 64
        e 120 86 0c 00
        e 360 96 0d 64
        e 120 86 0d 00
        e 360 96 0d 64
        e 120 86 0d 00
        e 360 96 0d 64
        e 120 86 0d 00
        e 360 96 0c 64
        e 120 86 0c 00
        e 360 96 0d 64
        e 120 86 0d 00
        e 360 96 0d 64
        e 120 86 0d 00
        e 360 96 0d 64
        e 120 86 0d 00
        e 360 96 0c 64
        e 120 86 0c 00
        e 360 96 0d 64
        e 120 86 0d 00
        e 360 96 0d 64
        e 120 86 0d 00
        e 360 96 0d 64
        e 120 86 0d 00
        e 360 96 0c 64
        e 120 86 0c 00
        e 360 96 0d 64
        e 120 86 0d 00
        e 360 96 0d 64
        e 120 86 0d 00
        e 360 96 0d 64
        e 120 86 0d 00
        e 360 96 0c 64
        e 120 86 0c 00
        e 360 96 0d 64
        e 120 86 0d 00
        e 360 96 0d 64
        e 120 86 0d 00
        e 360 96 0d 64
        e 120 86 0d 00
        e 360 96 0c 64
        e 120 86 0c 00
        e 360 96 0d 64
        e 120 86 0d 00
        e 360 96 0d 64
        e 120 86 0d 00
        e 360 96 0d 64
        e 120 86 0d 00
        e 360 96 0c 64
        e 120 86 0c 00
        e 360 96 0d 64
        e 120 86 0d 00
        e 360 96 0d 64
        e 120 86 0d 00
        e 360 96 0d 64
        e 120 86 0d 00
        e 360 96 0c 64
        e 120 86 0c 00
        e 360 96 0d 64
        e 120 86 0d 00
        e 360 96 0d 64
        e 120 86 0d 00
        e 360 96 0d 64
        e 120 86 0d 00
        e 360 96 0c 64
        e 120 86 0c 00
        e 360 96 0d 64
        e 120 86 0d 00
        e 360 96 0d 64
        e 120 86 0d 00
        e 360 96 0d 64
        e 120 86 0d 00
        e 360 96 0c 64
        e 120 86 0c 00
        e 360 96 0d 64
        e 120 86 0d 00
        e 360 96 0d 64
        e 120 86 0d 00
        e 360 96 0d 64
        e 120 86 0d 00
        e 360 96 0c 64
        e 120 86 0c 00
        e 360 96 0d 64
        e 120 86 0d 00
        e 360 96 0d 64
        e 120 86 0d 00
        e 360 96 0d 64
        e 120 86 0d 00
        e 360 96 0c 64
        e 120 86 0c 00
        e 360 96 0d 64
        e 120 86 0d 00
        e 360 96 0d 64
        e 120 86 0d 00
        e 360 96 0d 64
        e 120 86 0d 00
        e 360 96 0c 64
        e 120 86 0c 00
        e 360 96 0d 64
        e 120 86 0d 00
        e 360 96 0d 64
        e 120 86 0d 00
        e 360 96 0d 64
        e 120 86 0d 00
        e 360 96 0c 64
        e 120 86 0c 00
        e 360 96 0d 64
        e 120 86 0d 00
        e 360 96 0d 64
        e 120 86 0d 00
        e 360 96 0d 64
        e 120 86 0d 00
        e 360 96 0c 64
        e 120 86 0c 00
        e 360 96 0d 64
        e 120 86 0d 00
        e 360 96 0d 64
        e 120 86 0d 00
        e 360 96 0d 64
        e 120 86 0d 00
        e 360 96 0c 64
        e 120 86 0c 00
        e 360 96 0d 64
        e 120 86 0d 00
        e 360 96 0d 64
        e 120 86 0d 00
        e 360 96 0d 64
        e 120 86 0d 00
        e 360 96 0c 64
        e 120 86 0c 00
        e 360 96 0d 64
        e 120 86 0d 00
        e 360 96 0d 64
        e 120 86 0d 00
        e 360 96 0d 64
        e 120 86 0d 00
        e 360 96 0c 64
        e 120 86 0c 00
        e 360 96 0d 64
        e 120 86 0d 00
        e 360 96 0d 64
        e 120 86 0d 00
        e 360 96 0d 64
        e 120 86 0d 00
        e 360 96 0c 64
        e 120 86 0c 00
        e 360 96 0d 64
        e 120 86 0d 00
        e 360 96 0d 64
        e 120 86 0d 00
        e 360 96 0d 64
        e 120 86 0d 00
        e 360 96 0c 64
        e 120 86 0c 00
        e 360 96 0d 64
        e 120 86 0d 00
        e 360 96 0d 64
        e 120 86 0d 00
        e 360 96 0d 64
        e 120 86 0d 00
        e 360 96 0c 64
        e 120 86 0c 00
        e 360 96 0d 64
        e 120 86 0d 00
        e 360 96 0d 64
        e 120 86 0d 00
        e 360 96 0d 64
        e 120 86 0d 00
        e 360 96 0c 64
        e 120 86 0c 00
        e 360 96 0d 64
        e 120 86 0d 00
        e 360 96 0d 64
        e 120 86 0d 00
        e 360 96 0d 64
        e 120 86 0d 00
        e 360 96 0c 64
        e 120 86 0c 00
        e 360 96 0d 64
        e 120 86 0d 00
        e 360 96 0d 64
        e 120 86 0d 00
        e 360 96 0d 64
        e 120 86 0d 00
        e 360 96 0c 64
        e 120 86 0c 00
        e 360 96 0d 64
        e 120 86 0d 00
        e 360 96 0d 64
        e 120 86 0d 00
        e 360 96 0d 64
        e 120 86 0d 00
        e 360 96 0c 64
        e 120 86 0c 00
        e 360 96 0d 64
        e 120 86 0d 00
        e 360 96 0d 64
        e 120 86 0d 00
        e 360 96 0d 64
        e 120 86 0d 00
        e 360 96 0c 64
        e 120 86 0c 00
        e 360 96 0d 64
        e 120 86 0d 00
        e 360 96 0d 64
        e 120 86 0d 00
        e 360 96 0d 64
        e 120 86 0d 00
        e 360 96 0c 64
        e 120 86 0c 00
        e 360 96 0d 64
        e 120 86 0d 00
        e 360 96 0d 64
        e 120 86 0d 00
        e 360 96 0d 64
        e 120 86 0d 00
        e 360 96 0c 64
        e 120 86 0c 00
        e 360 96 0d 64
        e 120 86 0d 00
        e 360 96 0d 64
        e 120 86 0d 00
        e 360 96 0d 64
        e 120 86 0d 00
        e 360 96 0c 64
        e 120 86 0c 00
        e 360 96 0d 64
        e 120 86 0d 00
        e 360 96 0d 64
        e 120 86 0d 00
        e 360 96 0d 64
        e 120 86 0d 00
        e 360 96 0c 64
        e 120 86 0c 00
        e 360 96 0d 64
        e 120 86 0d 00
        e 360 96 0d 64
        e 120 86 0d 00
        e 360 96 0d 64
        e 120 86 0d 00
        e 360 96 0c 64
        e 120 86 0c 00
        e 360 96 0d 64
        e 120 86 0d 00
        e 360 96 0d 64
        e 120 86 0d 00
        e 360 96 0d 64
        e 120 86 0d 00
        e 360 96 0c 64
        e 120 86 0c 00
        e 360 96 0d 64
        e 120 86 0d 00
        e 360 96 0d 64
        e 120 86 0d 00
        e 360 96 0d 64
        e 120 86 0d 00
        e 360 96 0c 64
        e 120 86 0c 00
        e 360 96 0d 64
        e 120 86 0d 00
        e 360 96 0d 64
        e 120 86 0d 00
        e 360 96 0d 64
        e 120 86 0d 00
        e 360 96 0c 64
        e 120 86 0c 00
        e 360 96 0d 64
        e 120 86 0d 00
        e 360 96 0d 64
        e 120 86 0d 00
        e 360 96 0d 64
        e 120 86 0d 00
        e 360 96 0c 64
        e 120 86 0c 00
        e 360 96 0d 64
        e 120 86 0d 00
        e 360 96 0d 64
        e 120 86 0d 00
        e 360 96 0d 64
        e 120 86 0d 00
        e 360 96 0c 64
        e 120 86 0c 00
        e 360 96 0d 64
        e 120 86 0d 00
        e 360 96 0d 64
        e 120 86 0d 00
        e 360 96 0d 64
        e 120 86 0d 00
        e 360 96 0c 64
        e 120 86 0c 00
        e 360 96 0d 64
        e 120 86 0d 00
        e 360 96 0d 64
        e 120 86 0d 00
        e 360 96 0d 64
        e 120 86 0d 00
        e 360 96 0c 64
        e 120 86 0c 00
        e 360 96 0d 64
        e 120 86 0d 00
        e 360 96 0d 64
        e 120 86 0d 00
        e 360 96 0d 64
        e 120 86 0d 00
        e 360 96 0c 64
        e 120 86 0c 00
        e 360 96 0d 64
        e 120 86 0d 00
        e 360 96 0d 64
        e 120 86 0d 00
        e 360 96 0d 64
        e 120 86 0d 00
        e 360 96 0c 64
        e 120 86 0c 00
        e 360 96 0d 64
        e 120 86 0d 00
        e 360 96 0d 64
        e 120 86 0d 00
        e 360 96 0d 64
        e 120 86 0d 00
        e 360 96 0c 64
        e 120 86 0c 00
        e 360 96 0d 64
        e 120 86 0d 00
        e 360 96 0d 64
        e 120 86 0d 00
        e 360 96 0d 64
        e 120 86 0d 00
        e 360 96 0c 64
        e 120 86 0c 00
        e 360 96 0d 64
        e 120 86 0d 00
        e 360 96 0d 64
        e 120 86 0d 00
        e 360 96 0d 64
        e 120 86 0d 00
        e 360 96 0c 64
        e 120 86 0c 00
        e 360 96 0d 64
        e 120 86 0d 00
        e 360 96 0d 64
        e 120 86 0d 00
        e 360 96 0d 64
        e 120 86 0d 00
        e 360 96 0c 64
        e 120 86 0c 00
        e 360 96 0d 64
        e 120 86 0d 00
        e 360 96 0d 64
        e 120 86 0d 00
        e 360 96 0d 64
        e 120 86 0d 00
        e 360 96 0c 64
        e 120 86 0c 00
        e 360 96 0d 64
        e 120 86 0d 00
        e 360 96 0d 64
        e 120 86 0d 00
        e 360 96 0d 64
        e 120 86 0d 00
        e 360 96 0c 64
        e 120 86 0c 00
        e 360 96 0d 64
        e 120 86 0d 00
        e 360 96 0d 64
        e 120 86 0d 00
        e 360 96 0d 64
        e 120 86 0d 00
        e 360 96 0c 64
        e 120 86 0c 00
        e 360 96 0d 64
        e 120 86 0d 00
        e 360 96 0d 64
        e 120 86 0d 00
        e 360 96 0d 64
        e 120 86 0d 00
        e 360 96 0c 64
        e 120 86 0c 00
        e 360 96 0d 64
        e 120 86 0d 00
        e 360 96 0d 64
        e 120 86 0d 00
        e 360 96 0d 64
        e 120 86 0d 00
        e 360 96 0c 64
        e 120 86 0c 00
        e 360 96 0d 64
        e 120 86 0d 00
        e 360 96 0d 64
        e 120 86 0d 00
        e 360 96 0d 64
        e 120 86 0d 00
        e 360 96 0c 64
        e 120 86 0c 00
        e 360 96 0d 64
        e 120 86 0d 00
        e 360 96 0d 64
        e 120 86 0d 00
        e 360 96 0d 64
        e 120 86 0d 00
        e 360 96 0c 64
        e 120 86 0c 00
        e 360 96 0d 64
        e 120 86 0d 00
        e 360 96 0d 64
        e 120 86 0d 00
        e 360 96 0d 64
        e 120 86 0d 00
        e 360 96 0c 64
        e 120 86 0c 00
        e 360 96 0d 64
        e 120 86 0d 00
        e 360 96 0d 64
        e 120 86 0d 00
        e 360 96 0d 64
        e 120 86 0d 00
        e 360 96 0c 64
        e 120 86 0c 00
        e 360 96 0d 64
        e 120 86 0d 00
        e 360 96 0d 64
        e 120 86 0d 00
        e 360 96 0d 64
        e 120 86 0d 00
        e 360 96 0c 64
        e 120 86 0c 00
        e 360 96 0d 64
        e 120 86 0d 00
        e 360 96 0d 64
        e 120 86 0d 00
        e 360 96 0d 64
        e 120 86 0d 00
        e 360 96 0c 64
        e 120 86 0c 00
        e 360 96 0d 64
        e 120 86 0d 00
        e 360 96 0d 64
        e 120 86 0d 00
        e 360 96 0d 64
        e 120 86 0d 00
        e 360 96 0c 64
        e 120 86 0c 00
        e 360 96 0d 64
        e 120 86 0d 00
        e 360 96 0d 64
        e 120 86 0d 00
        e 360 96 0d 64
        e 120 86 0d 00
        e 360 96 0c 64
        e 120 86 0c 00
        e 360 96 0d 64
        e 120 86 0d 00
        e 360 96 0d 64
        e 120 86 0d 00
        e 360 96 0d 64
        e 120 86 0d 00
        e 360 96 0c 64
        e 120 86 0c 00
        e 360 96 0d 64
        e 120 86 0d 00
        e 360 96 0d 64
        e 120 86 0d 00
        e 360 96 0d 64
        e 120 86 0d 00
        e 360 96 0c 64
        e 120 86 0c 00
        e 360 96 0d 64
        e 120 86 0d 00
        e 360 96 0d 64
        e 120 86 0d 00
        e 360 96 0d 64
        e 120 86 0d 00
        e 360 96 0c 64
        e 120 86 0c 00
        e 360 96 0d 64
        e 120 86 0d 00
        e 360 96 0d 64
        e 120 86 0d 00
        e 360 96 0d 64
        e 120 86 0d 00
        e 360 96 0c 64
        e 120 86 0c 00
        e 360 96 0d 64
        e 120 86 0d 00
        e 360 96 0d 64
        e 120 86 0d 00
        e 360 96 0d 64
        e 120 86 0d 00
        e 360 96 0c 64
        e 120 86 0c 00
        e 360 96 0d 64
        e 120 86 0d 00
        e 360 96 0d 64
        e 120 86 0d 00
        e 360 96 0d 64
        e 120 86 0d 00
        e 360 96 0c 64
        e 120 86 0c 00
        e 360 96 0d 64
        e 120 86 0d 00
        e 360 96 0d 64
        e 120 86 0d 00
        e 360 96 0d 64
        e 120 86 0d 00
        e 360 96 0c 64
        e 120 86 0c 00
        e 360 96 0d 64
        e 120 86 0d 00
        e 360 96 0d 64
        e 120 86 0d 00
        e 360 96 0d 64
        e 120 86 0d 00
        e 360 96 0c 64
        e 120 86 0c 00
        e 360 96 0d 64
        e 120 86 0d 00
        e 360 96 0d 64
        e 120 86 0d 00
        e 360 96 0d 64
        e 120 86 0d 00
        e 360 96 0c 64
        e 120 86 0c 00
        e 360 96 0d 64
        e 120 86 0d 00
        e 360 96 0d 64
        e 120 86 0d 00
        e 360 96 0d 64
        e 120 86 0d 00
        e 360 96 0c 64
        e 120 86 0c 00
        e 360 96 0d 64
        e 120 86 0d 00
        e 360 96 0d 64
        e 120 86 0d 00
        E 1800 b0 7b 00
        GUID {8CB930E8-B6A0-4CAD-825A-9F47FB66C1D0}
        IGNTEMPO 0 120.00000000 4 4
        SRCCOLOR 294
        VELLANE 132 100 100
        COLORMAP "C:\Users\AJFOne23\AppData\Roaming\REAPER\Data\color_maps\rockband_vox-other.png"
        BANKPROGRAMFILE "C:\Users\AJFOne23\AppData\Roaming\REAPER/Data/GM.reabank"
        TEXTSTRINGFILE "Text Events List.txt"
        CFGEDITVIEW -176884.208818 1.492502 0 48 0 0 0
        CFGEDIT 1 1 0 0 0 1 1 1 1 1 1 1.00000000 44 63 1223 847 1 2 1 2 0.00000000 0 0 0 0 0.500000 1 0 1.000000 64
        KEYSNAP 0 0 "102034050607" 0 "Major"
        EVTFILTER 0 -1 -1 -1 -1 0 1 0 0 -1.00000000 -1.00000000
      >
    >
  >
>
