<REAPER_PROJECT 0.1 "4.22"
  RIPPLE 0
  GROUPOVERRIDE 0 0 0
  AUTOXFADE 1
  ENVATTACH 1
  MIXERUIFLAGS 11 48
  PEAKGAIN 1.00000000000000
  FEEDBACK 0
  PANLAW 1.00000000000000
  PROJOFFS 0.00000000000000 0
  MAXPROJLEN 0 600.00000000000000
  GRID 1151 8 1.00000000000000 8 1.00000000000000 0
  TIMEMODE 1 0 -1
  CURSOR 84.88408484176665
  ZOOM 1.95463082001571 0 0
  VZOOMEX 0
  USE_REC_CFG 0
  RECMODE 1
  SMPTESYNC 0 30.000000 100 40 1000 300 0 0.000000 0
  LOOP 0
  LOOPGRAN 0 4.00000000000000
  RECORD_PATH "" ""
  <RECORD_CFG
    ZXZhdxgA
  >
  <APPLYFX_CFG
  >
  RENDER_FILE "C:\Users\AJFOne23\Downloads\RB3\Metal\Mastodon\2004 Leviathan\Iron Tusk\Iron Tusk-FINAL.wav"
  RENDER_FMT 0 2 44100
  RENDER_1X 0
  RENDER_RANGE 1 0.00000000000000 0.00000000000000
  RENDER_RESAMPLE 3 0 1
  RENDER_ADDTOPROJ 0
  RENDER_STEMS 0
  RENDER_DITHER 0
  TIMELOCKMODE 0
  ITEMMIX 0
  DEFPITCHMODE 0
  TAKELANE 1
  SAMPLERATE 44100 0 0
  <RENDER_CFG
    ZXZhdxAA
  >
  LOCK 1
  <METRONOME 6 2.000000
    VOL 0.752735 0.723913
    FREQ 800 1600 0
    BEATLEN 4
    SAMPLES "" ""
  >
  GLOBAL_AUTO -1
  TEMPO 120.00000000000000 4 4
  PLAYRATE 1.00000000000000 0 0.25000 4.00000
  SELECTION 0.00000000000000 0.00000000000000
  SELECTION2 0.00000000000000 0.00000000000000
  MASTERAUTOMODE 0
  MASTERTRACKHEIGHT 0
  MASTERPEAKCOL 16576
  MASTERMUTESOLO 0
  MASTERTRACKVIEW 1 0.666700 0.500000 0.500000 -1 -1 -1
  MASTERHWOUT 0 0 1.00000000000000 0.00000000000000 0 0 0 -1.00000000000000
  MASTER_NCH 2 2
  MASTER_VOLUME 1.00000000000000 0.00000000000000 -1.00000000000000 -1.00000000000000 1.00000000000000
  MASTER_FX 1
  MASTER_SEL 0
  <MASTERFXLIST
    SHOW 0
    LASTSEL 0
    DOCKED 0
    BYPASS 0 0
    <VST "VST: W1 Limiter (George Yohng)" "George Yohng's W1 Limiter.dll" 0 ""
      THdGNO5e7f4CAAAAAQAAAAAAAAACAAAAAAAAAAIAAAABAAAAAAAAAA==
      AgAAAAAAAABMAAAAAQAAAAAAEAAMAACBdGhyZXNoAAD+1Hg/DAAAgQ==
      Y2VpbGluZwD+1Hg/DAAAgXJlbGVhc2UAMEAfPxQAAIFhZGFwdFJlbA==
      ZWFzZQAAAAAAAAAAAAAAgAAAEAAAAA==
    >
    FLOATPOS 24 24 481 152
    FXID {69D45D23-FE06-4141-B0BB-1A6D9443AFA8}
    WAK 0
  >
  <MASTERPLAYSPEEDENV
    ACT 0
    VIS 0 1 1.000000
    LANEHEIGHT 0 0
    ARM 0
    DEFSHAPE 0 -1 -1
  >
  <TEMPOENVEX
    ACT 1
    VIS 1 0 1.000000
    LANEHEIGHT 0 0
    ARM 0
    DEFSHAPE 1 -1 -1
    PT 0.000000000000 140.0000000000 1
    PT 3.428571428571 139.0000000000 1
    PT 5.155190133607 121.0000000000 1
    PT 5.651057902202 134.0000000000 1
    PT 6.098819096232 124.5000000000 1
    PT 6.580746807076 128.0000000000 1
    PT 6.736996807076 132.0000000000 1
    PT 7.343057413136 130.0000000000 1
    PT 7.958442028521 125.0000000000 1
    PT 8.438442028521 128.0000000000 1
    PT 8.750942028521 131.0000000000 1
    PT 9.361629051422 134.0000000000 1
    PT 9.809390245452 129.0000000000 1
    PT 10.119467764831 125.0000000000 1
    PT 10.599467764831 131.0000000000 1
    PT 11.210154787732 130.0000000000 1
    PT 11.902462480040 134.0000000000 1
    PT 12.126343077055 137.0000000000 1
    PT 12.564299281434 123.0000000000 1
    PT 13.052104159483 124.5000000000 1
    PT 14.497887292013 125.5000000000 1
    PT 15.454062590818 127.0000000000 1
    PT 15.926503535700 133.0000000000 1
    PT 16.377631355249 125.0000000000 1
    PT 16.857631355249 128.0000000000 1
    PT 17.795131355249 130.0000000000 1
    PT 18.564362124480 124.0000000000 1
    PT 19.209523414802 129.0000000000 1
    PT 19.674639693872 138.0000000000 1
    PT 19.964494766336 118.0000000000 1
    PT 20.133986291759 128.0000000000 1
    PT 20.602736291759 121.0000000000 1
    PT 21.429182572751 131.0000000000 1
    PT 22.039869595652 127.0000000000 1
    PT 23.457192430298 121.0000000000 1
    PT 23.953060198893 120.0000000000 1
    PT 24.453060198893 125.0000000000 1
    PT 24.933060198893 130.0000000000 1
    PT 25.240752506585 125.0000000000 1
    PT 25.560752506585 135.0000000000 1
    PT 25.857048802881 131.0000000000 1
    PT 26.315064070057 126.0000000000 1
    PT 27.267445022438 131.0000000000 1
    PT 27.725460289613 125.0000000000 1
    PT 28.205460289613 128.0000000000 1
    PT 29.142960289613 127.0000000000 1
    PT 29.615401234495 125.0000000000 1
    PT 32.015401234495 131.0000000000 1
    PT 32.320744745946 122.0000000000 1
    PT 32.484679172175 125.0000000000 1
    PT 33.284679172175 132.0000000000 1
    PT 33.890739778236 124.0000000000 1
    PT 34.374610745978 126.0000000000 1
    PT 34.850801222168 127.5000000000 1
    PT 35.791977692756 125.0000000000 1
    PT 36.271977692756 133.0000000000 1
    PT 36.723105512305 124.0000000000 1
    PT 37.045686157466 132.0000000000 1
    PT 37.651746763527 126.5000000000 1
    PT 38.126055063922 124.0000000000 1
    PT 38.609926031664 123.0000000000 1
    PT 39.097730909713 129.0000000000 1
    PT 39.562847188783 127.0000000000 1
    PT 40.035288133665 125.5000000000 1
    PT 40.991463432469 121.5000000000 1
    PT 41.485290592963 135.0000000000 1
    PT 41.929735037408 127.0000000000 1
    PT 42.244695667329 122.0000000000 1
    PT 42.736498946018 132.0000000000 1
    PT 42.888014097533 128.0000000000 1
    PT 43.356764097533 130.0000000000 1
    PT 43.818302559071 128.0000000000 1
    PT 45.068302559071 120.0000000000 1
    PT 45.234969225738 134.0000000000 1
    PT 45.533476688424 128.0000000000 1
    PT 47.877226688424 134.0000000000 1
    PT 48.474241613798 118.0000000000 1
    PT 48.982716190069 127.0000000000 1
    PT 49.927598079832 125.5000000000 1
    PT 51.361861028040 132.0000000000 1
    PT 52.270951937131 120.0000000000 1
    PT 52.770951937131 130.0000000000 1
    PT 53.232490398669 123.0000000000 1
    PT 53.720295276718 135.0000000000 1
    PT 54.164739721162 128.0000000000 1
    PT 55.570989721162 132.0000000000 1
    PT 56.025535175708 123.5000000000 1
    PT 57.644968374088 135.0000000000 1
    PT 57.941264670385 127.0000000000 1
    PT 58.413705615266 121.0000000000 1
    PT 58.909573383861 128.0000000000 1
    PT 59.847073383861 120.0000000000 1
    PT 60.347073383861 125.0000000000 1
    PT 60.827073383861 130.0000000000 1
    PT 61.134765691554 128.0000000000 1
    PT 61.447265691554 130.0000000000 1
    PT 62.216496460785 123.5500000000 1
    PT 63.673396501254 130.0000000000 1
    PT 64.134934962792 133.0000000000 1
    PT 64.435686842492 128.0000000000 1
    PT 65.060686842492 123.0000000000 1
    PT 65.385890094524 133.0000000000 1
    PT 65.536266034374 127.0000000000 1
    PT 66.008706979256 125.5000000000 1
    PT 66.964882278061 127.0000000000 1
    PT 67.909764167824 127.5000000000 1
    PT 68.850940638413 128.0000000000 1
    PT 69.163440638413 146.0000000000 1
    PT 69.300426939782 126.0000000000 1
    PT 69.776617415973 123.0000000000 1
    PT 70.264422294022 125.0000000000 1
    PT 70.744422294022 123.0000000000 1
    PT 71.232227172070 128.0000000000 1
    PT 71.700977172070 129.0000000000 1
    PT 72.166093451140 126.0000000000 1
    PT 72.801014086061 132.0000000000 1
    PT 72.952529237576 148.0000000000 1
    PT 73.087664372711 118.0000000000 1
    PT 73.596138948982 126.0000000000 1
    PT 74.072329425173 123.0000000000 1
    PT 74.560134303222 125.0000000000 1
    PT 75.040134303222 129.0000000000 1
    PT 75.505250582291 126.5000000000 1
    PT 75.979558882687 129.0000000000 1
    PT 76.909791440826 123.0000000000 1
    PT 77.397596318875 140.0000000000 1
    PT 77.683310604589 125.0000000000 1
    PT 77.843310604589 120.0000000000 1
    PT 78.343310604589 132.0000000000 1
    PT 78.797856059135 135.0000000000 1
    PT 79.242300503579 130.0000000000 1
    PT 79.703838965118 116.0000000000 1
    PT 80.221080344428 125.0000000000 1
    PT 81.181080344428 130.0000000000 1
    PT 81.642618805966 124.0000000000 1
    PT 82.126489773708 127.0000000000 1
    PT 82.598930718590 125.0000000000 1
    PT 83.558930718590 127.0000000000 1
    PT 84.031371663472 129.0000000000 1
    PT 84.961604221612 131.0000000000 1
    PT 85.419619488787 127.0000000000 1
    PT 85.892060433669 129.0000000000 1
    PT 86.357176712739 126.5000000000 1
    PT 87.305793313529 129.0000000000 1
    PT 87.615870832909 131.0000000000 1
    PT 89.142588390161 126.0000000000 1
    PT 89.460048707621 124.0000000000 1
    PT 90.105209997944 129.0000000000 1
    PT 90.570326277014 124.0000000000 1
    PT 90.892906922175 131.0000000000 1
    PT 91.503593945076 129.0000000000 1
    PT 91.968710224146 125.0000000000 1
    PT 92.448710224146 117.0000000000 1
    PT 92.961530736966 125.0000000000 1
    PT 93.121530736966 121.0000000000 1
    PT 93.452109249363 126.0000000000 1
    PT 93.928299725553 119.0000000000 1
    PT 94.432501406226 122.0000000000 1
    PT 94.760370258685 125.0000000000 1
    PT 95.400370258685 129.0000000000 1
    PT 95.865486537754 133.0000000000 1
    PT 97.217901171901 119.9999999920 1
    PT 97.717901171901 122.9999999920 1
    PT 98.205706049950 123.5000000080 1
    PT 98.691536009464 133.0000000000 1
    PT 99.142663829013 127.0000000000 1
    PT 99.615104773895 125.9999999920 1
    PT 100.091295250085 122.9999999920 1
    PT 101.066905006183 127.0000000000 1
    PT 101.536402964451 122.0000000080 1
    PT 102.031269843959 131.0000000080 1
    PT 102.866138341092 131.9999999920 1
    PT 103.401230968937 128.9999999920 1
    PT 103.709477870742 131.9999999920 1
    PT 103.933791618048 126.5000000080 1
    PT 104.724305452040 128.9999999920 1
    PT 105.189421731110 127.0000000000 1
    PT 105.745537754911 125.9999999920 1
    PT 106.697918707292 115.0000000000 1
    PT 107.219657837727 155.0000000080 1
    PT 107.606754611920 118.0000000000 1
    PT 108.115229188192 131.9999999920 1
    PT 108.569774642737 117.0000000000 1
    PT 109.569774614230 131.0000000080 1
    PT 110.492886638179 128.9999999920 1
    PT 110.876696196313 124.0000000000 1
    PT 111.199276841475 128.0000000080 1
    PT 111.588880835702 121.0000000000 1
    PT 111.916910446559 133.0000000000 1
    PT 112.368038274449 127.0000000000 1
    PT 112.763603033070 118.0000000000 1
    PT 113.354817233537 125.9999999920 1
    PT 114.307198185918 136.0000000000 1
    PT 114.748374656507 131.0000000080 1
    PT 115.206389923682 116.9999999920 1
    PT 115.719210436503 145.0000000000 1
    PT 115.857141470985 113.9999999920 1
    PT 116.208018663968 133.0000000000 1
    PT 116.659146483517 118.0000000000 1
    PT 117.167621059788 122.9999999920 1
    PT 117.497067369471 116.9999999920 1
    PT 117.663546890061 122.0000000080 1
    PT 118.155350168749 146.0000000080 1
    PT 118.566309072859 122.0000000080 1
    PT 119.058112351547 125.9999999920 1
    PT 119.534302827738 128.0000000080 1
    PT 120.003052827738 126.5000000080 1
    PT 120.477361128133 128.9999999920 1
    PT 120.942477407203 127.0000000000 1
    PT 121.414918352084 130.0000000000 1
    PT 121.876456813623 134.9999999920 1
    PT 122.320901258067 125.0000000080 1
    PT 122.800901258067 132.5000000080 1
    PT 123.253731446747 125.9999999920 1
    PT 123.729921922937 130.0000000000 1
    PT 124.191460384476 124.0000000000 1
    PT 124.675331352217 126.5000000080 1
    PT 125.149639652613 128.9999999920 1
    PT 126.079872210752 127.0000000000 1
    PT 126.552313155634 131.9999999920 1
    PT 127.006858610180 122.0000000080 1
    PT 127.498661888868 128.0000000080 1
    PT 127.967411888868 125.9999999920 1
    PT 128.443602365059 124.4999999920 1
    PT 128.925530075902 130.0000000000 1
    PT 129.848606998979 134.0000000080 1
    PT 130.744129387039 131.9999999920 1
    PT 131.198674841584 130.4999999920 1
    PT 131.658444956527 130.0000000000 1
    PT 133.504598802680 131.9999999920 1
    PT 133.959144257226 131.0000000080 1
    PT 134.417159524401 129.5000000080 1
    PT 135.343800451043 132.5000000080 1
    PT 135.796630639722 131.0000000080 1
    PT 136.712661174073 134.0000000080 1
    PT 137.160422368103 122.5000000000 1
    PT 137.650218286470 136.0000000000 1
    PT 138.091394757058 124.0000000000 1
    PT 138.575265724800 136.0000000000 1
    PT 139.016442195388 122.0000000080 1
    PT 139.508245474077 125.9999999920 1
    PT 139.984435950267 134.0000000080 1
    PT 140.879958338327 128.9999999920 1
    PT 141.345074617397 131.9999999920 1
    PT 141.799620071942 123.5000000080 1
    PT 142.285450031457 130.0000000000 1
    PT 143.670065416072 128.9999999920 1
    PT 144.600297974211 116.9999999920 1
    PT 145.113118487032 130.0000000000 1
    PT 145.574656948570 125.0000000080 1
    PT 146.054656948570 131.9999999920 1
    PT 146.509202403116 125.9999999920 1
    PT 146.985392879306 128.5000000000 1
    PT 147.919245019384 130.0000000000 1
    PT 148.380783480923 122.9999999920 1
    PT 148.868588358972 134.9999999920 1
    PT 149.313032803416 125.0000000080 1
    PT 150.273032803416 128.5000000000 1
    PT 151.206884943494 127.0000000000 1
    PT 151.679325888376 131.9999999920 1
    PT 152.133871342921 130.0000000000 1
    PT 152.595409804460 124.0000000000 1
    PT 153.079280772201 131.0000000080 1
    PT 153.537296039377 130.0000000000 1
    PT 153.998834500915 128.9999999920 1
    PT 154.463950779985 118.4999999920 1
    PT 154.970279893909 134.9999999920 1
    PT 155.118428042057 125.0000000080 1
    PT 155.438428042057 131.9999999920 1
    PT 155.892973496603 128.0000000080 1
    PT 156.361723496603 122.0000000080 1
    PT 156.853526775291 127.0000000000 1
    PT 157.168487405213 136.0000000000 1
    PT 157.756722699330 131.9999999920 1
    PT 158.211268153876 119.9999999920 1
    PT 158.733941006013 128.0000000000 1
    PT 159.205879375845 133.0000000000 1
    PT 159.657007195394 137.9999999920 1
    PT 160.091789804115 121.0000000000 1
    PT 160.587656792071 154.0000000000 1
    PT 160.717527535300 125.0000000080 1
    PT 161.037527535280 127.4999999920 1
    PT 161.978704005927 119.9999999920 1
    PT 162.531494533168 130.0000000000 1 0 1
    PT 162.839186840860 134.0000000080 1 0 1
    PT 163.436201766233 131.9999999920 1 0 1
    PT 163.890747220779 125.0000000080 1 0 1
    PT 164.370747220779 118.0000000000 1 0 1
    PT 164.879221797050 125.0000000080 1 0 1
    PT 165.359221797050 128.9999999920 1 0 1
    PT 165.824338076120 131.0000000080 1 0 1
    PT 167.198383877646 122.0000000080 1 0 1
    PT 167.690187156335 131.5000000000 1 0 1
    PT 168.146460920594 124.4999999920 1 0 1
    PT 168.628388631437 128.0000000080 1 0 1
    PT 169.565888631437 131.0000000080 1 0 1
    PT 170.023903898613 125.9999999920 1 0 1
    PT 170.500094374803 128.0000000080 1 0 1
    PT 170.968844374803 125.5000000000 1 0 1
    PT 171.446932024205 131.9999999920 1 0 1
    PT 171.901477478751 125.0000000080 1 0 1
    PT 172.381477478751 133.0000000000 1 0 1
    PT 172.832605298300 128.0000000080 1 0 1
    PT 173.770105298300 131.9999999920 1 0 1
    PT 173.921620449815 133.0000000000 1 0 1
    PT 174.222372329514 134.5000000000 1 0 1
    PT 174.668468983789 125.0000000080 1 0 1
    PT 175.148468983789 130.0000000000 1 0 1
    PT 175.610007445328 127.0000000000 1 0 1
    PT 176.554889335091 125.5000000000 1 0 1
    PT 177.511064633896 128.0000000080 1 0 1
    PT 177.979814633896 140.0000000080 1 0 1
    PT 178.408386062467 122.0000000080 1 0 1
    PT 178.900189341156 128.9999999920 1 0 1
    PT 179.365305620226 125.9999999920 1 0 1
    PT 179.841496096416 128.9999999920 1 0 1
    PT 180.306612375486 133.0000000000 1 0 1
    PT 180.757740195035 128.9999999920 1 0 1
    PT 181.222856474105 119.9999999920 1 0 1
    PT 181.722856474105 134.9999999920 1 0 1
    PT 182.167300918549 125.9999999920 1 0 1
    PT 182.643491394740 128.9999999920 1 0 1
    PT 183.108607673809 125.9999999920 1 0 1
  >
  <PROJBAY
  >
  <TRACK '{4D889F49-FE1F-4D1D-9FB8-BFD5BA06901A}'
    NAME "SONG AUDIO"
    PEAKCOL 16576
    BEAT -1
    AUTOMODE 0
    VOLPAN 1.00000000000000 0.00000000000000 -1.00000000000000 -1.00000000000000 1.00000000000000
    MUTESOLO 0 0 0
    IPHASE 0
    ISBUS 0 0
    BUSCOMP 0 0
    SHOWINMIX 1 0.666700 0.500000 1 0.500000 -1 -1 -1
    FREEMODE 0
    SEL 0
    REC 0 0 0 0 0 0 0
    TRACKHEIGHT 458 0
    INQ 0 0 0 0.5000000000 100 0 0 100
    NCHAN 2
    FX 1
    TRACKID {4D889F49-FE1F-4D1D-9FB8-BFD5BA06901A}
    PERF 0
    MIDIOUT -1
    MAINSEND 1 0
    <FXCHAIN
      SHOW 0
      LASTSEL 0
      DOCKED 0
      BYPASS 0 0
      <VST "VST: W1 Limiter (George Yohng)" "George Yohng's W1 Limiter.dll" 0 ""
        THdGNO5e7f4CAAAAAQAAAAAAAAACAAAAAAAAAAIAAAABAAAAAAAAAA==
        AgAAAAAAAABMAAAAAQAAAAAAEAAMAACBdGhyZXNoAAD+1Hg/DAAAgQ==
        Y2VpbGluZwD+1Hg/DAAAgXJlbGVhc2UAMEAfPxQAAIFhZGFwdFJlbA==
        ZWFzZQAAAAAAAAAAAAAAgAAAEAAAAA==
      >
      FLOATPOS 24 24 481 152
      FXID {D32BE511-3942-4A83-B6D7-DF2FE763A2B4}
      WAK 0
    >
    <ITEM
      POSITION 3.42857142857143
      SNAPOFFS 0.00000000000000
      LENGTH 182.72378684807256
      LOOP 0
      ALLTAKES 0
      SEL 0
      FADEIN 1 0.000000 0.000000 1 0
      FADEOUT 1 0.000000 0.000000 1 0
      MUTE 0
      IGUID {637919FE-1640-4AE1-A60C-3396D62C54C8}
      IID 22
      NAME "Iron Tusk.wav"
      VOLPAN 1.000000 0.000000 1.000000 -1.000000
      SOFFS 0.00136120260292
      PLAYRATE 1.00000000000000 1 0.00000000000000 -1
      CHANMODE 0
      GUID {C1BF7F4A-EEEF-456F-A915-1042143AF50A}
      <SOURCE WAVE
        FILE "Iron Tusk.wav"
      >
    >
  >
  <TRACK '{BDCFF37A-71AC-4D17-AF26-EA560B308842}'
    NAME "COUNTIN"
    PEAKCOL 16576
    BEAT -1
    AUTOMODE 0
    VOLPAN 1.00000000000000 0.00000000000000 -1.00000000000000 -1.00000000000000 1.00000000000000
    MUTESOLO 0 0 0
    IPHASE 0
    ISBUS 0 0
    BUSCOMP 0 0
    SHOWINMIX 1 0.666700 0.500000 1 0.500000 -1 -1 -1
    FREEMODE 0
    SEL 0
    REC 0 0 0 0 0 0 0
    TRACKHEIGHT 0 0
    INQ 0 0 0 0.5000000000 100 0 0 100
    NCHAN 2
    FX 1
    TRACKID {BDCFF37A-71AC-4D17-AF26-EA560B308842}
    PERF 0
    MIDIOUT -1
    MAINSEND 1 0
    <ITEM
      POSITION 1.71428571428571
      SNAPOFFS 0.00000000000000
      LENGTH 0.28216019417451
      LOOP 0
      ALLTAKES 0
      SEL 0
      FADEIN 1 0.000000 0.000000 1 0
      FADEOUT 1 0.000000 0.000000 1 0
      MUTE 0
      IGUID {1FA8F8C4-F448-4E02-B340-4A6644F6D8AB}
      IID 9
      NAME "stick.wav"
      VOLPAN 1.000000 0.000000 1.000000 -1.000000
      SOFFS 0.00000000000000
      PLAYRATE 1.00000000000052 1 0.00000000000000 -1
      CHANMODE 0
      GUID {8D594F7C-8B39-4D29-A27D-55F46BC65189}
      <SOURCE WAVE
        FILE "stick.wav"
      >
    >
    <ITEM
      POSITION 2.57142857142857
      SNAPOFFS 0.00000000000000
      LENGTH 0.28216019417451
      LOOP 0
      ALLTAKES 0
      SEL 0
      FADEIN 1 0.000000 0.000000 1 0
      FADEOUT 1 0.000000 0.000000 1 0
      MUTE 0
      IGUID {A6BA2F37-4089-4BF2-A73E-A602F32B7614}
      IID 11
      NAME "stick.wav"
      VOLPAN 1.000000 0.000000 1.000000 -1.000000
      SOFFS 0.00000000000000
      PLAYRATE 1.00000000000050 1 0.00000000000000 -1
      CHANMODE 0
      GUID {ABD24FE2-95CA-428E-ADD9-9A13921FCC29}
      <SOURCE WAVE
        FILE "stick.wav"
      >
    >
  >
  <TRACK '{8F33A645-3DF2-48FA-99BC-10992A4F8042}'
    NAME "PART DRUMS"
    PEAKCOL 16842751
    BEAT -1
    AUTOMODE 0
    VOLPAN 1.00000000000000 0.00000000000000 -1.00000000000000 -1.00000000000000 1.00000000000000
    MUTESOLO 0 0 0
    IPHASE 0
    ISBUS 0 0
    BUSCOMP 1 0
    SHOWINMIX 1 0.666700 0.500000 1 0.500000 -1 -1 -1
    FREEMODE 0
    SEL 0
    REC 0 4096 1 7 0 0 0
    TRACKHEIGHT 57 0
    INQ 0 0 0 0.5000000000 100 0 0 100
    NCHAN 2
    FX 1
    TRACKID {8F33A645-3DF2-48FA-99BC-10992A4F8042}
    PERF 0
    MIDIOUT -1
    <MIDINOTENAMES
      0 84 "HARD Kick"
      0 96 "EXPERT Kick"
      0 72 "MEDIUM Kick"
      0 60 "EASY Kick"
      0 97 "EXPERT Red"
      0 98 "EXPERT Yellow"
      0 99 "EXPERT Blue"
      0 100 "EXPERT Green"
      0 85 "HARD Red"
      0 86 "HARD Yellow"
      0 87 "HARD Blue"
      0 88 "HARD Green"
      0 73 "MEDIUM Red"
      0 74 "MEDIUM Yellow"
      0 75 "MEDIUM Blue"
      0 76 "MEDIUM Green"
      0 61 "EASY Red"
      0 62 "EASY Yellow"
      0 63 "EASY Blue"
      0 64 "EASY Green"
      0 101 " "
      0 92 "----"
      0 80 "----"
      0 68 "----"
      0 120 "DRUM FILL (use all 5)"
      0 121 "DRUM FILL"
      0 122 "DRUM FILL"
      0 123 "DRUM FILL"
      0 124 "DRUM FILL"
      0 114 "----"
      0 116 "OVERDRIVE"
      0 118 "----"
      0 24 "KICK RF"
      0 25 "HI-HAT OPEN"
      0 26 "SNARE HARD LH"
      0 27 "SNARE HARD RH"
      0 30 "HI-HAT LH"
      0 31 "HI-HAT RH"
      0 32 "PERCUSSION RH"
      0 34 "CRASH1 HARD LH"
      0 35 "CRASH1 SOFT LH"
      0 36 "CRASH1 HARD RH"
      0 37 "CRASH1 SOFT RH"
      0 38 "CRASH2 HARD RH"
      0 39 "CRASH2 SOFT RH"
      0 40 "CRASH1 CHOKE"
      0 41 "CRASH2 CHOKE"
      0 42 "RIDE CYM RH"
      0 46 "TOM1 LH"
      0 47 "TOM1 RH"
      0 48 "TOM2 LH"
      0 49 "TOM2 RH"
      0 50 "FLOOR TOM LH"
      0 51 "FLOOR TOM RH"
      0 52 "--DRUM ANIMATION--"
      0 56 "----"
      0 103 "Solo Marker"
      0 102 "----"
      0 110 "PRO Yellow Tom"
      0 111 "PRO Blue Tom"
      0 112 "PRO Green Tom"
      0 108 "----"
      0 127 "Roll Marker 2-Lane / Cym"
      0 126 "Roll Marker 1-Lane"
      0 125 "----"
      0 28 "SNARE SOFT LH"
      0 29 "SNARE SOFT RH"
      0 43 "RIDE CYM LH"
      0 44 "CRASH2 HARD LH"
      0 45 "CRASH2 SOFT LH"
    >
    MAINSEND 1 0
    <FXCHAIN
      WNDRECT 194 23 870 574
      SHOW 0
      LASTSEL 1
      DOCKED 0
      BYPASS 1 0
      <VST "VSTi: ReaSynth (Cockos)" "reasynth.dll" 0 ""
        eXNlcu9e7f4AAAAAAgAAAAEAAAAAAAAAAgAAAAAAAAA4AAAAAAAAAA==
        AAAAAO++rd4N8K3eAAAAAAAAAAAAAAAAAAAAADm0SD59y9s+tbSxOQ==
        AAAAALbz/T5VpCs6AAAAAAAAAAAAAAAAAAA=
      >
      FLOATPOS 0 0 0 0
      FXID {58F55556-9407-4062-A048-6AFCC0B53535}
      WAK 0
      BYPASS 0 0
      <VST "VSTi: RBN Preview (RBN)" "rbprev_vst.dll" 0 ""
        dnBicu5e7f4AAAAAAgAAAAEAAAAAAAAAAgAAAAAAAAAEAAAAAQAAAA==
        AAAAAAMBqgAAAAAAAAA=
      >
      FLOATPOS 32 32 659 497
      FXID {D7126437-AB1E-4109-A0FA-F2D5D0AC68DC}
      WAK 0
    >
    <ITEM
      POSITION 0.00000000000000
      SNAPOFFS 0.00000000000000
      LENGTH 187.82023574328986
      LOOP 0
      ALLTAKES 0
      COLOR 19150555
      SEL 0
      FADEIN 1 0.000000 0.000000 1 0
      FADEOUT 1 0.000000 0.000000 1 0
      MUTE 0
      IGUID {9FF11F36-E94F-4396-9C0E-8449C916EC21}
      IID 1
      NAME "PART DRUMS"
      VOLPAN 1.000000 0.000000 1.000000 -1.000000
      SOFFS 0.00000000000000 0.00000000000000
      PLAYRATE 1.00000000000000 1 0.00000000000000 -65536
      CHANMODE 0
      GUID {70A79ADF-E70C-430A-913F-E16D0CC85517}
      <SOURCE MIDI
        HASDATA 1 480 QN
        POOLEDEVTS {C2FE3004-75FD-4800-801B-30100D141496}
        <X 0 0
          /wNQQVJUIERSVU1T
        >
        <X 300 0
          /wFbbWl4IDEgZHJ1bXMwXQ==
        >
        <X 0 0
          /wFbbWl4IDAgZHJ1bXMwXQ==
        >
        <X 60 0
          /wFbbWl4IDIgZHJ1bXMwXQ==
        >
        <X 60 0
          /wFbbWl4IDMgZHJ1bXMwXQ==
        >
        <X 3420 0
          /wFbcGxheV0=
        >
        E 0 90 1b 60
        E 0 90 3d 60
        E 0 90 49 60
        E 0 90 55 60
        E 0 90 61 60
        E 80 80 1b 00
        E 0 80 3d 00
        E 0 80 49 00
        E 0 80 55 00
        E 0 80 61 00
        E 0 90 1a 60
        E 0 90 61 60
        E 80 80 1a 00
        E 0 80 61 00
        E 0 90 1b 60
        E 0 90 61 60
        E 80 80 1b 00
        E 0 80 61 00
        E 0 90 1a 60
        E 0 90 55 60
        E 0 90 61 60
        E 80 80 1a 00
        E 0 80 55 00
        E 0 80 61 00
        E 0 90 1b 60
        E 0 90 61 60
        E 80 80 1b 00
        E 0 80 61 00
        E 0 90 1a 60
        E 0 90 61 60
        E 80 80 1a 00
        E 0 80 61 00
        E 0 90 1b 60
        E 0 90 3d 60
        E 0 90 49 60
        E 0 90 55 60
        E 0 90 61 60
        E 80 80 1b 00
        E 0 80 3d 00
        E 0 80 49 00
        E 0 80 55 00
        E 0 80 61 00
        E 0 90 1a 60
        E 0 90 61 60
        E 80 80 1a 00
        E 0 80 61 00
        E 0 90 2f 60
        E 0 90 62 60
        E 0 90 6e 60
        E 80 80 2f 00
        E 0 80 62 00
        E 0 80 6e 00
        E 0 90 2e 60
        E 0 90 56 60
        E 0 90 62 60
        E 0 90 6e 60
        E 80 80 2e 00
        E 0 80 56 00
        E 0 80 62 00
        E 0 80 6e 00
        E 0 90 2f 60
        E 0 90 62 60
        E 0 90 6e 60
        E 80 80 2f 00
        E 0 80 62 00
        E 0 80 6e 00
        E 0 90 2e 60
        E 0 90 62 60
        E 0 90 6e 60
        E 80 80 2e 00
        E 0 80 62 00
        E 0 80 6e 00
        E 0 90 1b 60
        E 0 90 3d 60
        E 0 90 49 60
        E 0 90 55 60
        E 0 90 61 60
        E 80 80 1b 00
        E 0 80 3d 00
        E 0 80 49 00
        E 0 80 55 00
        E 0 80 61 00
        E 0 90 1a 60
        E 0 90 61 60
        E 80 80 1a 00
        E 0 80 61 00
        E 0 90 2f 60
        E 0 90 62 60
        E 0 90 6e 60
        E 80 80 2f 00
        E 0 80 62 00
        E 0 80 6e 00
        E 0 90 2e 60
        E 0 90 56 60
        E 0 90 62 60
        E 0 90 6e 60
        E 80 80 2e 00
        E 0 80 56 00
        E 0 80 62 00
        E 0 80 6e 00
        E 0 90 2f 60
        E 0 90 62 60
        E 0 90 6e 60
        E 80 80 2f 00
        E 0 80 62 00
        E 0 80 6e 00
        E 0 90 2e 60
        E 0 90 62 60
        E 0 90 6e 60
        E 80 80 2e 00
        E 0 80 62 00
        E 0 80 6e 00
        E 0 90 1b 60
        E 0 90 3d 60
        E 0 90 49 60
        E 0 90 55 60
        E 0 90 61 60
        E 80 80 1b 00
        E 0 80 3d 00
        E 0 80 49 00
        E 0 80 55 00
        E 0 80 61 00
        E 0 90 1a 60
        E 0 90 61 60
        E 80 80 1a 00
        E 0 80 61 00
        E 0 90 31 60
        E 0 90 63 60
        E 0 90 6f 60
        E 80 80 31 00
        E 0 80 63 00
        E 0 80 6f 00
        E 0 90 30 60
        E 0 90 57 60
        E 0 90 63 60
        E 0 90 6f 60
        E 80 80 30 00
        E 0 80 57 00
        E 0 80 63 00
        E 0 80 6f 00
        E 0 90 31 60
        E 0 90 63 60
        E 0 90 6f 60
        E 80 80 31 00
        E 0 80 63 00
        E 0 80 6f 00
        E 0 90 30 60
        E 0 90 63 60
        E 0 90 6f 60
        E 80 80 30 00
        E 0 80 63 00
        E 0 80 6f 00
        E 0 90 18 60
        E 0 90 26 60
        E 0 90 40 60
        E 0 90 48 60
        E 0 90 4c 60
        E 0 90 54 60
        E 0 90 58 60
        E 0 90 60 60
        E 0 90 64 60
        E 80 80 18 00
        E 0 80 26 00
        E 0 80 40 00
        E 0 80 48 00
        E 0 80 4c 00
        E 0 80 54 00
        E 0 80 58 00
        E 0 80 60 00
        E 0 80 64 00
        E 240 90 18 60
        E 0 90 2b 60
        E 0 90 60 60
        E 0 90 63 60
        E 80 80 18 00
        E 0 80 2b 00
        E 0 80 60 00
        E 0 80 63 00
        E 80 90 1a 60
        E 0 90 2a 60
        E 0 90 3d 60
        E 0 90 49 60
        E 0 90 4b 60
        E 0 90 55 60
        E 0 90 57 60
        E 0 90 61 60
        E 0 90 63 60
        E 80 80 1a 00
        E 0 80 2a 00
        E 0 80 3d 00
        E 0 80 49 00
        E 0 80 4b 00
        E 0 80 55 00
        E 0 80 57 00
        E 0 80 61 00
        E 0 80 63 00
        E 80 90 2b 60
        E 0 90 63 60
        E 80 80 2b 00
        E 0 80 63 00
        E 0 90 2a 60
        E 0 90 57 60
        E 0 90 63 60
        E 80 80 2a 00
        E 0 80 57 00
        E 0 80 63 00
        E 0 90 18 60
        E 0 90 2b 60
        E 0 90 60 60
        E 0 90 63 60
        E 80 80 18 00
        E 0 80 2b 00
        E 0 80 60 00
        E 0 80 63 00
        E 80 90 18 60
        E 0 90 2a 60
        E 0 90 3f 60
        E 0 90 48 60
        E 0 90 4b 60
        E 0 90 54 60
        E 0 90 57 60
        E 0 90 60 60
        E 0 90 63 60
        E 80 80 18 00
        E 0 80 2a 00
        E 0 80 3f 00
        E 0 80 48 00
        E 0 80 4b 00
        E 0 80 54 00
        E 0 80 57 00
        E 0 80 60 00
        E 0 80 63 00
        E 80 90 2b 60
        E 0 90 63 60
        E 80 80 2b 00
        E 0 80 63 00
        E 80 90 18 60
        E 0 90 2a 60
        E 0 90 60 60
        E 0 90 63 60
        E 80 80 18 00
        E 0 80 2a 00
        E 0 80 60 00
        E 0 80 63 00
        E 80 90 1a 60
        E 0 90 2a 60
        E 0 90 3d 60
        E 0 90 49 60
        E 0 90 4b 60
        E 0 90 55 60
        E 0 90 57 60
        E 0 90 61 60
        E 0 90 63 60
        E 80 80 1a 00
        E 0 80 2a 00
        E 0 80 3d 00
        E 0 80 49 00
        E 0 80 4b 00
        E 0 80 55 00
        E 0 80 57 00
        E 0 80 61 00
        E 0 80 63 00
        E 80 90 18 60
        E 0 90 2b 60
        E 0 90 60 60
        E 0 90 63 60
        E 80 80 18 00
        E 0 80 2b 00
        E 0 80 60 00
        E 0 80 63 00
        E 80 90 1a 60
        E 0 90 2a 60
        E 0 90 61 60
        E 0 90 63 60
        E 80 80 1a 00
        E 0 80 2a 00
        E 0 80 61 00
        E 0 80 63 00
        E 80 90 18 60
        E 0 90 2a 60
        E 0 90 3f 60
        E 0 90 48 60
        E 0 90 4b 60
        E 0 90 54 60
        E 0 90 57 60
        E 0 90 60 60
        E 0 90 63 60
        E 80 80 18 00
        E 0 80 2a 00
        E 0 80 3f 00
        E 0 80 48 00
        E 0 80 4b 00
        E 0 80 54 00
        E 0 80 57 00
        E 0 80 60 00
        E 0 80 63 00
        E 80 90 2b 60
        E 0 90 63 60
        E 80 80 2b 00
        E 0 80 63 00
        E 80 90 18 60
        E 0 90 2a 60
        E 0 90 60 60
        E 0 90 63 60
        E 80 80 18 00
        E 0 80 2a 00
        E 0 80 60 00
        E 0 80 63 00
        E 80 90 1a 60
        E 0 90 2a 60
        E 0 90 3d 60
        E 0 90 49 60
        E 0 90 4b 60
        E 0 90 55 60
        E 0 90 57 60
        E 0 90 61 60
        E 0 90 63 60
        E 80 80 1a 00
        E 0 80 2a 00
        E 0 80 3d 00
        E 0 80 49 00
        E 0 80 4b 00
        E 0 80 55 00
        E 0 80 57 00
        E 0 80 61 00
        E 0 80 63 00
        E 80 90 2b 60
        E 0 90 63 60
        E 80 80 2b 00
        E 0 80 63 00
        E 0 90 2a 60
        E 0 90 57 60
        E 0 90 63 60
        E 80 80 2a 00
        E 0 80 57 00
        E 0 80 63 00
        E 0 90 18 60
        E 0 90 2b 60
        E 0 90 60 60
        E 0 90 63 60
        E 80 80 18 00
        E 0 80 2b 00
        E 0 80 60 00
        E 0 80 63 00
        E 80 90 18 60
        E 0 90 2a 60
        E 0 90 3f 60
        E 0 90 48 60
        E 0 90 4b 60
        E 0 90 54 60
        E 0 90 57 60
        E 0 90 60 60
        E 0 90 63 60
        E 80 80 18 00
        E 0 80 2a 00
        E 0 80 3f 00
        E 0 80 48 00
        E 0 80 4b 00
        E 0 80 54 00
        E 0 80 57 00
        E 0 80 60 00
        E 0 80 63 00
        E 80 90 2b 60
        E 0 90 63 60
        E 80 80 2b 00
        E 0 80 63 00
        E 80 90 18 60
        E 0 90 2a 60
        E 0 90 60 60
        E 0 90 63 60
        E 80 80 18 00
        E 0 80 2a 00
        E 0 80 60 00
        E 0 80 63 00
        E 80 90 1a 60
        E 0 90 2a 60
        E 0 90 3d 60
        E 0 90 49 60
        E 0 90 4b 60
        E 0 90 55 60
        E 0 90 57 60
        E 0 90 61 60
        E 0 90 63 60
        E 80 80 1a 00
        E 0 80 2a 00
        E 0 80 3d 00
        E 0 80 49 00
        E 0 80 4b 00
        E 0 80 55 00
        E 0 80 57 00
        E 0 80 61 00
        E 0 80 63 00
        E 80 90 18 60
        E 0 90 2b 60
        E 0 90 60 60
        E 0 90 63 60
        E 80 80 18 00
        E 0 80 2b 00
        E 0 80 60 00
        E 0 80 63 00
        E 80 90 1a 60
        E 0 90 2a 60
        E 0 90 61 60
        E 0 90 63 60
        E 80 80 1a 00
        E 0 80 2a 00
        E 0 80 61 00
        E 0 80 63 00
        E 80 90 18 60
        E 0 90 2a 60
        E 0 90 3f 60
        E 0 90 48 60
        E 0 90 4b 60
        E 0 90 54 60
        E 0 90 57 60
        E 0 90 60 60
        E 0 90 63 60
        E 80 80 18 00
        E 0 80 2a 00
        E 0 80 3f 00
        E 0 80 48 00
        E 0 80 4b 00
        E 0 80 54 00
        E 0 80 57 00
        E 0 80 60 00
        E 0 80 63 00
        E 80 90 2b 60
        E 0 90 63 60
        E 80 80 2b 00
        E 0 80 63 00
        E 80 90 18 60
        E 0 90 2a 60
        E 0 90 60 60
        E 0 90 63 60
        E 80 80 18 00
        E 0 80 2a 00
        E 0 80 60 00
        E 0 80 63 00
        E 80 90 1a 60
        E 0 90 2a 60
        E 0 90 3d 60
        E 0 90 49 60
        E 0 90 4b 60
        E 0 90 55 60
        E 0 90 57 60
        E 0 90 61 60
        E 0 90 63 60
        E 80 80 1a 00
        E 0 80 2a 00
        E 0 80 3d 00
        E 0 80 49 00
        E 0 80 4b 00
        E 0 80 55 00
        E 0 80 57 00
        E 0 80 61 00
        E 0 80 63 00
        E 80 90 2b 60
        E 0 90 63 60
        E 80 80 2b 00
        E 0 80 63 00
        E 80 90 18 60
        E 0 90 2a 60
        E 0 90 60 60
        E 0 90 63 60
        E 80 80 18 00
        E 0 80 2a 00
        E 0 80 60 00
        E 0 80 63 00
        E 80 90 18 60
        E 0 90 2b 60
        E 0 90 3f 60
        E 0 90 48 60
        E 0 90 4b 60
        E 0 90 54 60
        E 0 90 57 60
        E 0 90 60 60
        E 0 90 63 60
        E 80 80 18 00
        E 0 80 2b 00
        E 0 80 3f 00
        E 0 80 48 00
        E 0 80 4b 00
        E 0 80 54 00
        E 0 80 57 00
        E 0 80 60 00
        E 0 80 63 00
        E 80 90 2a 60
        E 0 90 63 60
        E 80 80 2a 00
        E 0 80 63 00
        E 80 90 18 60
        E 0 90 2b 60
        E 0 90 60 60
        E 0 90 63 60
        E 80 80 18 00
        E 0 80 2b 00
        E 0 80 60 00
        E 0 80 63 00
        E 80 90 1a 60
        E 0 90 2a 60
        E 0 90 3d 60
        E 0 90 49 60
        E 0 90 4b 60
        E 0 90 55 60
        E 0 90 57 60
        E 0 90 61 60
        E 0 90 63 60
        E 80 80 1a 00
        E 0 80 2a 00
        E 0 80 3d 00
        E 0 80 49 00
        E 0 80 4b 00
        E 0 80 55 00
        E 0 80 57 00
        E 0 80 61 00
        E 0 80 63 00
        E 80 90 18 60
        E 0 90 2b 60
        E 0 90 60 60
        E 0 90 63 60
        E 80 80 18 00
        E 0 80 2b 00
        E 0 80 60 00
        E 0 80 63 00
        E 80 90 1a 60
        E 0 90 2a 60
        E 0 90 61 60
        E 0 90 63 60
        E 80 80 1a 00
        E 0 80 2a 00
        E 0 80 61 00
        E 0 80 63 00
        E 80 90 18 60
        E 0 90 2a 60
        E 0 90 3f 60
        E 0 90 48 60
        E 0 90 4b 60
        E 0 90 54 60
        E 0 90 57 60
        E 0 90 60 60
        E 0 90 63 60
        E 80 80 18 00
        E 0 80 2a 00
        E 0 80 3f 00
        E 0 80 48 00
        E 0 80 4b 00
        E 0 80 54 00
        E 0 80 57 00
        E 0 80 60 00
        E 0 80 63 00
        E 80 90 2b 60
        E 0 90 63 60
        E 80 80 2b 00
        E 0 80 63 00
        E 80 90 18 60
        E 0 90 2a 60
        E 0 90 60 60
        E 0 90 63 60
        E 80 80 18 00
        E 0 80 2a 00
        E 0 80 60 00
        E 0 80 63 00
        E 80 90 1a 60
        E 0 90 2a 60
        E 0 90 3d 60
        E 0 90 49 60
        E 0 90 4b 60
        E 0 90 55 60
        E 0 90 57 60
        E 0 90 61 60
        E 0 90 63 60
        E 80 80 1a 00
        E 0 80 2a 00
        E 0 80 3d 00
        E 0 80 49 00
        E 0 80 4b 00
        E 0 80 55 00
        E 0 80 57 00
        E 0 80 61 00
        E 0 80 63 00
        E 80 90 2b 60
        E 0 90 63 60
        E 80 80 2b 00
        E 0 80 63 00
        E 80 90 18 60
        E 0 90 2a 60
        E 0 90 60 60
        E 0 90 63 60
        E 80 80 18 00
        E 0 80 2a 00
        E 0 80 60 00
        E 0 80 63 00
        E 80 90 1a 60
        E 0 90 2a 60
        E 0 90 3d 60
        E 0 90 49 60
        E 0 90 4b 60
        E 0 90 55 60
        E 0 90 57 60
        E 0 90 61 60
        E 0 90 63 60
        E 80 80 1a 00
        E 0 80 2a 00
        E 0 80 3d 00
        E 0 80 49 00
        E 0 80 4b 00
        E 0 80 55 00
        E 0 80 57 00
        E 0 80 61 00
        E 0 80 63 00
        E 80 90 2b 60
        E 0 90 63 60
        E 80 80 2b 00
        E 0 80 63 00
        E 0 90 1b 60
        E 0 90 55 60
        E 0 90 61 60
        E 80 80 1b 00
        E 0 80 55 00
        E 0 80 61 00
        E 0 90 1a 60
        E 0 90 61 60
        E 80 80 1a 00
        E 0 80 61 00
        E 80 90 1b 60
        E 0 90 3d 60
        E 0 90 49 60
        E 0 90 55 60
        E 0 90 61 60
        E 80 80 1b 00
        E 0 80 3d 00
        E 0 80 49 00
        E 0 80 55 00
        E 0 80 61 00
        E 0 90 1a 60
        E 0 90 61 60
        E 80 80 1a 00
        E 0 80 61 00
        E 0 90 2f 60
        E 0 90 62 60
        E 0 90 6e 60
        E 80 80 2f 00
        E 0 80 62 00
        E 0 80 6e 00
        E 0 90 2e 60
        E 0 90 56 60
        E 0 90 62 60
        E 0 90 6e 60
        E 80 80 2e 00
        E 0 80 56 00
        E 0 80 62 00
        E 0 80 6e 00
        E 0 90 31 60
        E 0 90 63 60
        E 0 90 6f 60
        E 80 80 31 00
        E 0 80 63 00
        E 0 80 6f 00
        E 0 90 30 60
        E 0 90 63 60
        E 0 90 6f 60
        E 80 80 30 00
        E 0 80 63 00
        E 0 80 6f 00
        E 0 90 18 60
        E 0 90 26 60
        E 0 90 40 60
        E 0 90 48 60
        E 0 90 4c 60
        E 0 90 54 60
        E 0 90 58 60
        E 0 90 60 60
        E 0 90 64 60
        E 80 80 18 00
        E 0 80 26 00
        E 0 80 40 00
        E 0 80 48 00
        E 0 80 4c 00
        E 0 80 54 00
        E 0 80 58 00
        E 0 80 60 00
        E 0 80 64 00
        E 0 90 18 60
        E 80 80 18 00
        E 0 90 18 60
        E 0 90 60 60
        E 80 80 18 00
        E 0 80 60 00
        E 0 90 18 60
        E 0 90 54 60
        E 80 80 18 00
        E 0 80 54 00
        E 0 90 18 60
        E 0 90 60 60
        E 80 80 18 00
        E 0 80 60 00
        E 0 90 18 60
        E 80 80 18 00
        E 0 90 18 60
        E 0 90 1a 60
        E 0 90 2a 60
        E 0 90 3d 60
        E 0 90 49 60
        E 0 90 4b 60
        E 0 90 54 60
        E 0 90 55 60
        E 0 90 57 60
        E 0 90 60 60
        E 0 90 61 60
        E 0 90 63 60
        E 80 80 18 00
        E 0 80 1a 00
        E 0 80 2a 00
        E 0 80 3d 00
        E 0 80 49 00
        E 0 80 4b 00
        E 0 80 54 00
        E 0 80 55 00
        E 0 80 57 00
        E 0 80 60 00
        E 0 80 61 00
        E 0 80 63 00
        E 0 90 18 60
        E 80 80 18 00
        E 0 90 18 60
        E 0 90 2a 60
        E 0 90 60 60
        E 0 90 63 60
        E 80 80 18 00
        E 0 80 2a 00
        E 0 80 60 00
        E 0 80 63 00
        E 0 90 18 60
        E 0 90 54 60
        E 80 80 18 00
        E 0 80 54 00
        E 0 90 18 60
        E 0 90 2a 60
        E 0 90 60 60
        E 0 90 63 60
        E 80 80 18 00
        E 0 80 2a 00
        E 0 80 60 00
        E 0 80 63 00
        E 0 90 18 60
        E 80 80 18 00
        E 0 90 18 60
        E 0 90 1a 60
        E 0 90 2a 60
        E 0 90 3d 60
        E 0 90 49 60
        E 0 90 4b 60
        E 0 90 54 60
        E 0 90 55 60
        E 0 90 57 60
        E 0 90 60 60
        E 0 90 61 60
        E 0 90 63 60
        E 80 80 18 00
        E 0 80 1a 00
        E 0 80 2a 00
        E 0 80 3d 00
        E 0 80 49 00
        E 0 80 4b 00
        E 0 80 54 00
        E 0 80 55 00
        E 0 80 57 00
        E 0 80 60 00
        E 0 80 61 00
        E 0 80 63 00
        E 0 90 18 60
        E 80 80 18 00
        E 0 90 18 60
        E 0 90 60 60
        E 80 80 18 00
        E 0 80 60 00
        E 0 90 18 60
        E 0 90 54 60
        E 80 80 18 00
        E 0 80 54 00
        E 0 90 18 60
        E 0 90 60 60
        E 80 80 18 00
        E 0 80 60 00
        E 0 90 18 60
        E 80 80 18 00
        E 0 90 18 60
        E 0 90 1a 60
        E 0 90 2a 60
        E 0 90 3d 60
        E 0 90 49 60
        E 0 90 4b 60
        E 0 90 54 60
        E 0 90 55 60
        E 0 90 57 60
        E 0 90 60 60
        E 0 90 61 60
        E 0 90 63 60
        E 80 80 18 00
        E 0 80 1a 00
        E 0 80 2a 00
        E 0 80 3d 00
        E 0 80 49 00
        E 0 80 4b 00
        E 0 80 54 00
        E 0 80 55 00
        E 0 80 57 00
        E 0 80 60 00
        E 0 80 61 00
        E 0 80 63 00
        E 0 90 18 60
        E 80 80 18 00
        E 0 90 18 60
        E 0 90 60 60
        E 80 80 18 00
        E 0 80 60 00
        E 0 90 18 60
        E 0 90 54 60
        E 80 80 18 00
        E 0 80 54 00
        E 0 90 18 60
        E 0 90 60 60
        E 80 80 18 00
        E 0 80 60 00
        E 0 90 18 60
        E 80 80 18 00
        E 0 90 18 60
        E 0 90 1a 60
        E 0 90 2a 60
        E 0 90 3d 60
        E 0 90 49 60
        E 0 90 4b 60
        E 0 90 54 60
        E 0 90 55 60
        E 0 90 57 60
        E 0 90 60 60
        E 0 90 61 60
        E 0 90 63 60
        E 80 80 18 00
        E 0 80 1a 00
        E 0 80 2a 00
        E 0 80 3d 00
        E 0 80 49 00
        E 0 80 4b 00
        E 0 80 54 00
        E 0 80 55 00
        E 0 80 57 00
        E 0 80 60 00
        E 0 80 61 00
        E 0 80 63 00
        E 0 90 18 60
        E 80 80 18 00
        E 0 90 18 60
        E 0 90 60 60
        E 80 80 18 00
        E 0 80 60 00
        E 0 90 18 60
        E 0 90 54 60
        E 80 80 18 00
        E 0 80 54 00
        E 0 90 18 60
        E 0 90 60 60
        E 80 80 18 00
        E 0 80 60 00
        E 0 90 18 60
        E 80 80 18 00
        E 0 90 18 60
        E 0 90 1a 60
        E 0 90 2a 60
        E 0 90 3d 60
        E 0 90 49 60
        E 0 90 4b 60
        E 0 90 54 60
        E 0 90 55 60
        E 0 90 57 60
        E 0 90 60 60
        E 0 90 61 60
        E 0 90 63 60
        E 80 80 18 00
        E 0 80 1a 00
        E 0 80 2a 00
        E 0 80 3d 00
        E 0 80 49 00
        E 0 80 4b 00
        E 0 80 54 00
        E 0 80 55 00
        E 0 80 57 00
        E 0 80 60 00
        E 0 80 61 00
        E 0 80 63 00
        E 0 90 18 60
        E 80 80 18 00
        E 0 90 18 60
        E 0 90 60 60
        E 80 80 18 00
        E 0 80 60 00
        E 0 90 18 60
        E 0 90 54 60
        E 80 80 18 00
        E 0 80 54 00
        E 0 90 18 60
        E 0 90 60 60
        E 80 80 18 00
        E 0 80 60 00
        E 0 90 18 60
        E 80 80 18 00
        E 0 90 18 60
        E 0 90 1a 60
        E 0 90 2a 60
        E 0 90 3d 60
        E 0 90 49 60
        E 0 90 4b 60
        E 0 90 54 60
        E 0 90 55 60
        E 0 90 57 60
        E 0 90 60 60
        E 0 90 61 60
        E 0 90 63 60
        E 80 80 18 00
        E 0 80 1a 00
        E 0 80 2a 00
        E 0 80 3d 00
        E 0 80 49 00
        E 0 80 4b 00
        E 0 80 54 00
        E 0 80 55 00
        E 0 80 57 00
        E 0 80 60 00
        E 0 80 61 00
        E 0 80 63 00
        E 0 90 18 60
        E 80 80 18 00
        E 0 90 18 60
        E 0 90 60 60
        E 80 80 18 00
        E 0 80 60 00
        E 0 90 18 60
        E 0 90 54 60
        E 80 80 18 00
        E 0 80 54 00
        E 0 90 18 60
        E 0 90 60 60
        E 80 80 18 00
        E 0 80 60 00
        E 0 90 18 60
        E 80 80 18 00
        E 0 90 18 60
        E 0 90 2f 60
        E 0 90 3e 60
        E 0 90 4a 60
        E 0 90 54 60
        E 0 90 56 60
        E 0 90 60 60
        E 0 90 62 60
        E 0 90 6e 60
        E 80 80 18 00
        E 0 80 2f 00
        E 0 80 3e 00
        E 0 80 4a 00
        E 0 80 54 00
        E 0 80 56 00
        E 0 80 60 00
        E 0 80 62 00
        E 0 80 6e 00
        E 0 90 18 60
        E 0 90 2e 60
        E 0 90 62 60
        E 0 90 6e 60
        E 80 80 18 00
        E 0 80 2e 00
        E 0 80 62 00
        E 0 80 6e 00
        E 0 90 18 60
        E 0 90 31 60
        E 0 90 60 60
        E 0 90 63 60
        E 0 90 6f 60
        E 80 80 18 00
        E 0 80 31 00
        E 0 80 60 00
        E 0 80 63 00
        E 0 80 6f 00
        E 0 90 18 60
        E 0 90 30 60
        E 0 90 54 60
        E 0 90 57 60
        E 0 90 63 60
        E 0 90 6f 60
        E 80 80 18 00
        E 0 80 30 00
        E 0 80 54 00
        E 0 80 57 00
        E 0 80 63 00
        E 0 80 6f 00
        E 0 90 18 60
        E 0 90 33 60
        E 0 90 60 60
        E 0 90 64 60
        E 0 90 70 60
        E 80 80 18 00
        E 0 80 33 00
        E 0 80 60 00
        E 0 80 64 00
        E 0 80 70 00
        E 0 90 18 60
        E 0 90 32 60
        E 0 90 64 60
        E 0 90 70 60
        E 80 80 18 00
        E 0 80 32 00
        E 0 80 64 00
        E 0 80 70 00
        E 0 90 18 60
        E 0 90 26 60
        E 0 90 40 60
        E 0 90 48 60
        E 0 90 4c 60
        E 0 90 54 60
        E 0 90 58 60
        E 0 90 60 60
        E 0 90 64 60
        E 0 90 74 60
        E 80 80 18 00
        E 0 80 26 00
        E 0 80 40 00
        E 0 80 48 00
        E 0 80 4c 00
        E 0 80 54 00
        E 0 80 58 00
        E 0 80 60 00
        E 0 80 64 00
        E 240 90 18 60
        E 0 90 2b 60
        E 0 90 60 60
        E 0 90 63 60
        E 80 80 18 00
        E 0 80 2b 00
        E 0 80 60 00
        E 0 80 63 00
        E 80 90 1a 60
        E 0 90 2a 60
        E 0 90 3d 60
        E 0 90 49 60
        E 0 90 4b 60
        E 0 90 55 60
        E 0 90 57 60
        E 0 90 61 60
        E 0 90 63 60
        E 80 80 1a 00
        E 0 80 2a 00
        E 0 80 3d 00
        E 0 80 49 00
        E 0 80 4b 00
        E 0 80 55 00
        E 0 80 57 00
        E 0 80 61 00
        E 0 80 63 00
        E 80 90 2b 60
        E 0 90 63 60
        E 80 80 2b 00
        E 0 80 63 00
        E 80 90 18 60
        E 0 90 2a 60
        E 0 90 60 60
        E 0 90 63 60
        E 80 80 18 00
        E 0 80 2a 00
        E 0 80 60 00
        E 0 80 63 00
        E 80 90 18 60
        E 0 90 2b 60
        E 0 90 3f 60
        E 0 90 48 60
        E 0 90 4b 60
        E 0 90 54 60
        E 0 90 57 60
        E 0 90 60 60
        E 0 90 63 60
        E 80 80 18 00
        E 0 80 2b 00
        E 0 80 3f 00
        E 0 80 48 00
        E 0 80 4b 00
        E 0 80 54 00
        E 0 80 57 00
        E 0 80 60 00
        E 0 80 63 00
        E 80 90 2a 60
        E 0 90 63 60
        E 80 80 2a 00
        E 0 80 63 00
        E 80 90 18 60
        E 0 90 2b 60
        E 0 90 60 60
        E 0 90 63 60
        E 80 80 18 00
        E 0 80 2b 00
        E 0 80 60 00
        E 0 80 63 00
        E 80 90 1a 60
        E 0 90 2a 60
        E 0 90 3d 60
        E 0 90 49 60
        E 0 90 4b 60
        E 0 90 55 60
        E 0 90 57 60
        E 0 90 61 60
        E 0 90 63 60
        E 80 80 1a 00
        E 0 80 2a 00
        E 0 80 3d 00
        E 0 80 49 00
        E 0 80 4b 00
        E 0 80 55 00
        E 0 80 57 00
        E 0 80 61 00
        E 0 80 63 00
        E 80 90 18 60
        E 0 90 2b 60
        E 0 90 60 60
        E 0 90 63 60
        E 80 80 18 00
        E 0 80 2b 00
        E 0 80 60 00
        E 0 80 63 00
        E 80 90 1a 60
        E 0 90 2a 60
        E 0 90 61 60
        E 0 90 63 60
        E 80 80 1a 00
        E 0 80 2a 00
        E 0 80 61 00
        E 0 80 63 00
        E 80 90 18 60
        E 0 90 2a 60
        E 0 90 3f 60
        E 0 90 48 60
        E 0 90 4b 60
        E 0 90 54 60
        E 0 90 57 60
        E 0 90 60 60
        E 0 90 63 60
        E 80 80 18 00
        E 0 80 2a 00
        E 0 80 3f 00
        E 0 80 48 00
        E 0 80 4b 00
        E 0 80 54 00
        E 0 80 57 00
        E 0 80 60 00
        E 0 80 63 00
        E 80 90 2b 60
        E 0 90 63 60
        E 80 80 2b 00
        E 0 80 63 00
        E 80 90 18 60
        E 0 90 2a 60
        E 0 90 60 60
        E 0 90 63 60
        E 80 80 18 00
        E 0 80 2a 00
        E 0 80 60 00
        E 0 80 63 00
        E 80 90 1a 60
        E 0 90 2a 60
        E 0 90 3d 60
        E 0 90 49 60
        E 0 90 4b 60
        E 0 90 55 60
        E 0 90 57 60
        E 0 90 61 60
        E 0 90 63 60
        E 80 80 1a 00
        E 0 80 2a 00
        E 0 80 3d 00
        E 0 80 49 00
        E 0 80 4b 00
        E 0 80 55 00
        E 0 80 57 00
        E 0 80 61 00
        E 0 80 63 00
        E 80 90 2b 60
        E 0 90 63 60
        E 80 80 2b 00
        E 0 80 63 00
        E 80 90 18 60
        E 0 90 2a 60
        E 0 90 60 60
        E 0 90 63 60
        E 80 80 18 00
        E 0 80 2a 00
        E 0 80 60 00
        E 0 80 63 00
        E 80 90 1a 60
        E 0 90 2a 60
        E 0 90 3d 60
        E 0 90 49 60
        E 0 90 4b 60
        E 0 90 55 60
        E 0 90 57 60
        E 0 90 61 60
        E 0 90 63 60
        E 80 80 1a 00
        E 0 80 2a 00
        E 0 80 3d 00
        E 0 80 49 00
        E 0 80 4b 00
        E 0 80 55 00
        E 0 80 57 00
        E 0 80 61 00
        E 0 80 63 00
        E 80 90 2b 60
        E 0 90 63 60
        E 80 80 2b 00
        E 0 80 63 00
        E 0 90 1b 60
        E 0 90 55 60
        E 0 90 61 60
        E 80 80 1b 00
        E 0 80 55 00
        E 0 80 61 00
        E 0 90 1a 60
        E 0 90 61 60
        E 80 80 1a 00
        E 0 80 61 00
        E 80 90 1b 60
        E 0 90 3d 60
        E 0 90 49 60
        E 0 90 55 60
        E 0 90 61 60
        E 80 80 1b 00
        E 0 80 3d 00
        E 0 80 49 00
        E 0 80 55 00
        E 0 80 61 00
        E 80 90 1a 60
        E 0 90 61 60
        E 80 80 1a 00
        E 0 80 61 00
        E 80 90 18 60
        E 0 90 60 60
        E 80 80 18 00
        E 0 80 60 00
        E 80 80 74 00
        E 0 90 18 60
        E 0 90 26 60
        E 0 90 40 60
        E 0 90 48 60
        E 0 90 4c 60
        E 0 90 54 60
        E 0 90 58 60
        E 0 90 60 60
        E 0 90 64 60
        E 80 80 18 00
        E 0 80 26 00
        E 0 80 40 00
        E 0 80 48 00
        E 0 80 4c 00
        E 0 80 54 00
        E 0 80 58 00
        E 0 80 60 00
        E 0 80 64 00
        E 80 90 18 60
        E 0 90 60 60
        E 80 80 18 00
        E 0 80 60 00
        E 80 90 18 60
        E 0 90 60 60
        E 80 80 18 00
        E 0 80 60 00
        E 80 90 18 60
        E 0 90 26 60
        E 0 90 40 60
        E 0 90 48 60
        E 0 90 4c 60
        E 0 90 54 60
        E 0 90 58 60
        E 0 90 60 60
        E 0 90 64 60
        E 80 80 18 00
        E 0 80 26 00
        E 0 80 40 00
        E 0 80 48 00
        E 0 80 4c 00
        E 0 80 54 00
        E 0 80 58 00
        E 0 80 60 00
        E 0 80 64 00
        E 80 90 18 60
        E 0 90 60 60
        E 80 80 18 00
        E 0 80 60 00
        E 80 90 18 60
        E 0 90 60 60
        E 80 80 18 00
        E 0 80 60 00
        E 80 90 1a 60
        E 0 90 26 60
        E 0 90 3d 60
        E 0 90 49 60
        E 0 90 4c 60
        E 0 90 55 60
        E 0 90 58 60
        E 0 90 61 60
        E 0 90 64 60
        E 80 80 1a 00
        E 0 80 26 00
        E 0 80 3d 00
        E 0 80 49 00
        E 0 80 4c 00
        E 0 80 55 00
        E 0 80 58 00
        E 0 80 61 00
        E 0 80 64 00
        E 80 90 18 60
        E 0 90 60 60
        E 80 80 18 00
        E 0 80 60 00
        E 80 90 1a 60
        E 0 90 26 60
        E 0 90 61 60
        E 0 90 64 60
        E 80 80 1a 00
        E 0 80 26 00
        E 0 80 61 00
        E 0 80 64 00
        E 80 90 18 60
        E 0 90 3c 60
        E 0 90 48 60
        E 0 90 54 60
        E 0 90 60 60
        E 80 80 18 00
        E 0 80 3c 00
        E 0 80 48 00
        E 0 80 54 00
        E 0 80 60 00
        E 80 90 1a 60
        E 0 90 26 60
        E 0 90 61 60
        E 0 90 64 60
        E 80 80 1a 00
        E 0 80 26 00
        E 0 80 61 00
        E 0 80 64 00
        E 80 90 1a 60
        E 0 90 26 60
        E 0 90 61 60
        E 0 90 64 60
        E 80 80 1a 00
        E 0 80 26 00
        E 0 80 61 00
        E 0 80 64 00
        E 80 90 18 60
        E 0 90 22 60
        E 0 90 26 60
        E 0 90 3e 60
        E 0 90 40 60
        E 0 90 48 60
        E 0 90 4a 60
        E 0 90 4c 60
        E 0 90 54 60
        E 0 90 56 60
        E 0 90 58 60
        E 0 90 60 60
        E 0 90 62 60
        E 0 90 64 60
        E 80 80 18 00
        E 0 80 22 00
        E 0 80 26 00
        E 0 80 3e 00
        E 0 80 40 00
        E 0 80 48 00
        E 0 80 4a 00
        E 0 80 4c 00
        E 0 80 54 00
        E 0 80 56 00
        E 0 80 58 00
        E 0 80 60 00
        E 0 80 62 00
        E 0 80 64 00
        E 240 90 18 60
        E 0 90 60 60
        E 80 80 18 00
        E 0 80 60 00
        E 80 90 1a 60
        E 0 90 26 60
        E 0 90 3d 60
        E 0 90 49 60
        E 0 90 4c 60
        E 0 90 55 60
        E 0 90 58 60
        E 0 90 61 60
        E 0 90 64 60
        E 80 80 1a 00
        E 0 80 26 00
        E 0 80 3d 00
        E 0 80 49 00
        E 0 80 4c 00
        E 0 80 55 00
        E 0 80 58 00
        E 0 80 61 00
        E 0 80 64 00
        E 80 90 26 60
        E 0 90 64 60
        E 80 80 26 00
        E 0 80 64 00
        E 80 90 18 60
        E 0 90 60 60
        E 80 80 18 00
        E 0 80 60 00
        E 80 90 1a 60
        E 0 90 26 60
        E 0 90 3d 60
        E 0 90 49 60
        E 0 90 4c 60
        E 0 90 55 60
        E 0 90 58 60
        E 0 90 61 60
        E 0 90 64 60
        E 80 80 1a 00
        E 0 80 26 00
        E 0 80 3d 00
        E 0 80 49 00
        E 0 80 4c 00
        E 0 80 55 00
        E 0 80 58 00
        E 0 80 61 00
        E 0 80 64 00
        E 160 90 2f 60
        E 0 90 56 60
        E 0 90 62 60
        E 0 90 6e 60
        E 80 80 2f 00
        E 0 80 56 00
        E 0 80 62 00
        E 0 80 6e 00
        E 0 90 2e 60
        E 0 90 62 60
        E 0 90 6e 60
        E 80 80 2e 00
        E 0 80 62 00
        E 0 80 6e 00
        E 80 90 31 60
        E 0 90 3f 60
        E 0 90 4b 60
        E 0 90 57 60
        E 0 90 63 60
        E 0 90 6f 60
        E 80 80 31 00
        E 0 80 3f 00
        E 0 80 4b 00
        E 0 80 57 00
        E 0 80 63 00
        E 0 80 6f 00
        E 0 90 30 60
        E 0 90 63 60
        E 0 90 6f 60
        E 80 80 30 00
        E 0 80 63 00
        E 0 80 6f 00
        E 160 90 30 60
        E 0 90 63 60
        E 0 90 6f 60
        E 80 80 30 00
        E 0 80 63 00
        E 0 80 6f 00
        E 0 90 31 60
        E 0 90 63 60
        E 0 90 6f 60
        E 80 80 31 00
        E 0 80 63 00
        E 0 80 6f 00
        E 0 90 18 60
        E 0 90 26 60
        E 0 90 40 60
        E 0 90 48 60
        E 0 90 4c 60
        E 0 90 54 60
        E 0 90 58 60
        E 0 90 60 60
        E 0 90 64 60
        E 80 80 18 00
        E 0 80 26 00
        E 0 80 40 00
        E 0 80 48 00
        E 0 80 4c 00
        E 0 80 54 00
        E 0 80 58 00
        E 0 80 60 00
        E 0 80 64 00
        E 80 90 18 60
        E 0 90 60 60
        E 80 80 18 00
        E 0 80 60 00
        E 80 90 18 60
        E 0 90 60 60
        E 80 80 18 00
        E 0 80 60 00
        E 80 90 1a 60
        E 0 90 2a 60
        E 0 90 3d 60
        E 0 90 49 60
        E 0 90 4b 60
        E 0 90 55 60
        E 0 90 57 60
        E 0 90 61 60
        E 0 90 63 60
        E 80 80 1a 00
        E 0 80 2a 00
        E 0 80 3d 00
        E 0 80 49 00
        E 0 80 4b 00
        E 0 80 55 00
        E 0 80 57 00
        E 0 80 61 00
        E 0 80 63 00
        E 80 90 26 60
        E 0 90 64 60
        E 80 80 26 00
        E 0 80 64 00
        E 80 90 18 60
        E 0 90 60 60
        E 80 80 18 00
        E 0 80 60 00
        E 80 90 1a 60
        E 0 90 26 60
        E 0 90 3d 60
        E 0 90 49 60
        E 0 90 4c 60
        E 0 90 55 60
        E 0 90 58 60
        E 0 90 61 60
        E 0 90 64 60
        E 80 80 1a 00
        E 0 80 26 00
        E 0 80 3d 00
        E 0 80 49 00
        E 0 80 4c 00
        E 0 80 55 00
        E 0 80 58 00
        E 0 80 61 00
        E 0 80 64 00
        E 80 90 18 60
        E 0 90 60 60
        E 80 80 18 00
        E 0 80 60 00
        E 80 90 1a 60
        E 0 90 26 60
        E 0 90 61 60
        E 0 90 64 60
        E 80 80 1a 00
        E 0 80 26 00
        E 0 80 61 00
        E 0 80 64 00
        E 80 90 18 60
        E 0 90 3c 60
        E 0 90 48 60
        E 0 90 54 60
        E 0 90 60 60
        E 80 80 18 00
        E 0 80 3c 00
        E 0 80 48 00
        E 0 80 54 00
        E 0 80 60 00
        E 80 90 1a 60
        E 0 90 26 60
        E 0 90 61 60
        E 0 90 64 60
        E 80 80 1a 00
        E 0 80 26 00
        E 0 80 61 00
        E 0 80 64 00
        E 80 90 1a 60
        E 0 90 61 60
        E 80 80 1a 00
        E 0 80 61 00
        E 80 90 18 60
        E 0 90 26 60
        E 0 90 40 60
        E 0 90 48 60
        E 0 90 4c 60
        E 0 90 54 60
        E 0 90 58 60
        E 0 90 60 60
        E 0 90 64 60
        E 80 80 18 00
        E 0 80 26 00
        E 0 80 40 00
        E 0 80 48 00
        E 0 80 4c 00
        E 0 80 54 00
        E 0 80 58 00
        E 0 80 60 00
        E 0 80 64 00
        E 240 90 18 60
        E 0 90 60 60
        E 80 80 18 00
        E 0 80 60 00
        E 80 90 1a 60
        E 0 90 26 60
        E 0 90 3d 60
        E 0 90 49 60
        E 0 90 4c 60
        E 0 90 55 60
        E 0 90 58 60
        E 0 90 61 60
        E 0 90 64 60
        E 80 80 1a 00
        E 0 80 26 00
        E 0 80 3d 00
        E 0 80 49 00
        E 0 80 4c 00
        E 0 80 55 00
        E 0 80 58 00
        E 0 80 61 00
        E 0 80 64 00
        E 240 90 18 60
        E 0 90 60 60
        E 80 80 18 00
        E 0 80 60 00
        E 80 90 1a 60
        E 0 90 26 60
        E 0 90 3d 60
        E 0 90 49 60
        E 0 90 4c 60
        E 0 90 55 60
        E 0 90 58 60
        E 0 90 61 60
        E 0 90 64 60
        E 80 80 1a 00
        E 0 80 26 00
        E 0 80 3d 00
        E 0 80 49 00
        E 0 80 4c 00
        E 0 80 55 00
        E 0 80 58 00
        E 0 80 61 00
        E 0 80 64 00
        E 160 90 2f 60
        E 0 90 56 60
        E 0 90 62 60
        E 0 90 6e 60
        E 80 80 2f 00
        E 0 80 56 00
        E 0 80 62 00
        E 0 80 6e 00
        E 0 90 2e 60
        E 0 90 62 60
        E 0 90 6e 60
        E 80 80 2e 00
        E 0 80 62 00
        E 0 80 6e 00
        E 80 90 18 60
        E 0 90 26 60
        E 0 90 40 60
        E 0 90 48 60
        E 0 90 4c 60
        E 0 90 54 60
        E 0 90 58 60
        E 0 90 60 60
        E 0 90 64 60
        E 80 80 18 00
        E 0 80 26 00
        E 0 80 40 00
        E 0 80 48 00
        E 0 80 4c 00
        E 0 80 54 00
        E 0 80 58 00
        E 0 80 60 00
        E 0 80 64 00
        E 80 90 2e 60
        E 0 90 62 60
        E 0 90 6e 60
        E 80 80 2e 00
        E 0 80 62 00
        E 0 80 6e 00
        E 0 90 2f 60
        E 0 90 56 60
        E 0 90 62 60
        E 0 90 6e 60
        E 80 80 2f 00
        E 0 80 56 00
        E 0 80 62 00
        E 0 80 6e 00
        E 0 90 30 60
        E 0 90 63 60
        E 0 90 6f 60
        E 80 80 30 00
        E 0 80 63 00
        E 0 80 6f 00
        E 80 90 18 60
        E 0 90 26 60
        E 0 90 40 60
        E 0 90 48 60
        E 0 90 4c 60
        E 0 90 54 60
        E 0 90 58 60
        E 0 90 60 60
        E 0 90 64 60
        E 80 80 18 00
        E 0 80 26 00
        E 0 80 40 00
        E 0 80 48 00
        E 0 80 4c 00
        E 0 80 54 00
        E 0 80 58 00
        E 0 80 60 00
        E 0 80 64 00
        E 240 90 18 60
        E 0 90 60 60
        E 80 80 18 00
        E 0 80 60 00
        E 80 90 1a 60
        E 0 90 26 60
        E 0 90 3d 60
        E 0 90 49 60
        E 0 90 4c 60
        E 0 90 55 60
        E 0 90 58 60
        E 0 90 61 60
        E 0 90 64 60
        E 80 80 1a 00
        E 0 80 26 00
        E 0 80 3d 00
        E 0 80 49 00
        E 0 80 4c 00
        E 0 80 55 00
        E 0 80 58 00
        E 0 80 61 00
        E 0 80 64 00
        E 240 90 18 60
        E 0 90 60 60
        E 80 80 18 00
        E 0 80 60 00
        E 80 90 1a 60
        E 0 90 26 60
        E 0 90 3d 60
        E 0 90 49 60
        E 0 90 4c 60
        E 0 90 55 60
        E 0 90 58 60
        E 0 90 61 60
        E 0 90 64 60
        E 80 80 1a 00
        E 0 80 26 00
        E 0 80 3d 00
        E 0 80 49 00
        E 0 80 4c 00
        E 0 80 55 00
        E 0 80 58 00
        E 0 80 61 00
        E 0 80 64 00
        E 80 90 18 60
        E 0 90 60 60
        E 80 80 18 00
        E 0 80 60 00
        E 80 90 1a 60
        E 0 90 26 60
        E 0 90 61 60
        E 0 90 64 60
        E 80 80 1a 00
        E 0 80 26 00
        E 0 80 61 00
        E 0 80 64 00
        E 80 90 18 60
        E 0 90 3c 60
        E 0 90 48 60
        E 0 90 54 60
        E 0 90 60 60
        E 80 80 18 00
        E 0 80 3c 00
        E 0 80 48 00
        E 0 80 54 00
        E 0 80 60 00
        E 80 90 1a 60
        E 0 90 26 60
        E 0 90 61 60
        E 0 90 64 60
        E 80 80 1a 00
        E 0 80 26 00
        E 0 80 61 00
        E 0 80 64 00
        E 80 90 1a 60
        E 0 90 26 60
        E 0 90 61 60
        E 0 90 64 60
        E 80 80 1a 00
        E 0 80 26 00
        E 0 80 61 00
        E 0 80 64 00
        E 80 90 18 60
        E 0 90 22 60
        E 0 90 26 60
        E 0 90 3e 60
        E 0 90 40 60
        E 0 90 48 60
        E 0 90 4a 60
        E 0 90 4c 60
        E 0 90 54 60
        E 0 90 56 60
        E 0 90 58 60
        E 0 90 60 60
        E 0 90 62 60
        E 0 90 64 60
        E 80 80 18 00
        E 0 80 22 00
        E 0 80 26 00
        E 0 80 3e 00
        E 0 80 40 00
        E 0 80 48 00
        E 0 80 4a 00
        E 0 80 4c 00
        E 0 80 54 00
        E 0 80 56 00
        E 0 80 58 00
        E 0 80 60 00
        E 0 80 62 00
        E 0 80 64 00
        E 240 90 18 60
        E 0 90 60 60
        E 80 80 18 00
        E 0 80 60 00
        E 80 90 1a 60
        E 0 90 26 60
        E 0 90 3d 60
        E 0 90 49 60
        E 0 90 4c 60
        E 0 90 55 60
        E 0 90 58 60
        E 0 90 61 60
        E 0 90 64 60
        E 80 80 1a 00
        E 0 80 26 00
        E 0 80 3d 00
        E 0 80 49 00
        E 0 80 4c 00
        E 0 80 55 00
        E 0 80 58 00
        E 0 80 61 00
        E 0 80 64 00
        E 240 90 18 60
        E 0 90 60 60
        E 80 80 18 00
        E 0 80 60 00
        E 80 90 1a 60
        E 0 90 26 60
        E 0 90 3d 60
        E 0 90 49 60
        E 0 90 4c 60
        E 0 90 55 60
        E 0 90 58 60
        E 0 90 61 60
        E 0 90 64 60
        E 80 80 1a 00
        E 0 80 26 00
        E 0 80 3d 00
        E 0 80 49 00
        E 0 80 4c 00
        E 0 80 55 00
        E 0 80 58 00
        E 0 80 61 00
        E 0 80 64 00
        E 80 90 2e 60
        E 0 90 62 60
        E 0 90 6e 60
        E 80 80 2e 00
        E 0 80 62 00
        E 0 80 6e 00
        E 0 90 2f 60
        E 0 90 56 60
        E 0 90 62 60
        E 0 90 6e 60
        E 80 80 2f 00
        E 0 80 56 00
        E 0 80 62 00
        E 0 80 6e 00
        E 0 90 2e 60
        E 0 90 62 60
        E 0 90 6e 60
        E 80 80 2e 00
        E 0 80 62 00
        E 0 80 6e 00
        E 0 90 2f 60
        E 0 90 62 60
        E 0 90 6e 60
        E 80 80 2f 00
        E 0 80 62 00
        E 0 80 6e 00
        E 0 90 30 60
        E 0 90 3f 60
        E 0 90 4b 60
        E 0 90 57 60
        E 0 90 63 60
        E 0 90 6f 60
        E 80 80 30 00
        E 0 80 3f 00
        E 0 80 4b 00
        E 0 80 57 00
        E 0 80 63 00
        E 0 80 6f 00
        E 0 90 31 60
        E 0 90 63 60
        E 0 90 6f 60
        E 80 80 31 00
        E 0 80 63 00
        E 0 80 6f 00
        E 0 90 30 60
        E 0 90 63 60
        E 0 90 6f 60
        E 80 80 30 00
        E 0 80 63 00
        E 0 80 6f 00
        E 0 90 33 60
        E 0 90 58 60
        E 0 90 64 60
        E 0 90 70 60
        E 80 80 33 00
        E 0 80 58 00
        E 0 80 64 00
        E 0 80 70 00
        E 0 90 32 60
        E 0 90 64 60
        E 0 90 70 60
        E 80 80 32 00
        E 0 80 64 00
        E 0 80 70 00
        E 0 90 33 60
        E 0 90 64 60
        E 0 90 70 60
        E 80 80 33 00
        E 0 80 64 00
        E 0 80 70 00
        E 0 90 18 60
        E 0 90 2c 60
        E 0 90 40 60
        E 0 90 48 60
        E 0 90 4c 60
        E 0 90 54 60
        E 0 90 58 60
        E 0 90 60 60
        E 0 90 64 60
        E 80 80 18 00
        E 0 80 2c 00
        E 0 80 40 00
        E 0 80 48 00
        E 0 80 4c 00
        E 0 80 54 00
        E 0 80 58 00
        E 0 80 60 00
        E 0 80 64 00
        E 80 90 18 60
        E 0 90 60 60
        E 80 80 18 00
        E 0 80 60 00
        E 80 90 18 60
        E 0 90 60 60
        E 80 80 18 00
        E 0 80 60 00
        E 80 90 1a 60
        E 0 90 2a 60
        E 0 90 3d 60
        E 0 90 49 60
        E 0 90 4b 60
        E 0 90 55 60
        E 0 90 57 60
        E 0 90 61 60
        E 0 90 63 60
        E 80 80 1a 00
        E 0 80 2a 00
        E 0 80 3d 00
        E 0 80 49 00
        E 0 80 4b 00
        E 0 80 55 00
        E 0 80 57 00
        E 0 80 61 00
        E 0 80 63 00
        E 240 90 18 60
        E 0 90 60 60
        E 80 80 18 00
        E 0 80 60 00
        E 80 90 1a 60
        E 0 90 26 60
        E 0 90 3d 60
        E 0 90 49 60
        E 0 90 4c 60
        E 0 90 55 60
        E 0 90 58 60
        E 0 90 61 60
        E 0 90 64 60
        E 80 80 1a 00
        E 0 80 26 00
        E 0 80 3d 00
        E 0 80 49 00
        E 0 80 4c 00
        E 0 80 55 00
        E 0 80 58 00
        E 0 80 61 00
        E 0 80 64 00
        E 80 90 18 60
        E 0 90 60 60
        E 80 80 18 00
        E 0 80 60 00
        E 80 90 1a 60
        E 0 90 26 60
        E 0 90 61 60
        E 0 90 64 60
        E 80 80 1a 00
        E 0 80 26 00
        E 0 80 61 00
        E 0 80 64 00
        E 80 90 18 60
        E 0 90 3c 60
        E 0 90 48 60
        E 0 90 54 60
        E 0 90 60 60
        E 80 80 18 00
        E 0 80 3c 00
        E 0 80 48 00
        E 0 80 54 00
        E 0 80 60 00
        E 80 90 1a 60
        E 0 90 26 60
        E 0 90 61 60
        E 0 90 64 60
        E 80 80 1a 00
        E 0 80 26 00
        E 0 80 61 00
        E 0 80 64 00
        E 80 90 1a 60
        E 0 90 61 60
        E 80 80 1a 00
        E 0 80 61 00
        E 80 90 18 60
        E 0 90 26 60
        E 0 90 40 60
        E 0 90 48 60
        E 0 90 4c 60
        E 0 90 54 60
        E 0 90 58 60
        E 0 90 60 60
        E 0 90 64 60
        E 80 80 18 00
        E 0 80 26 00
        E 0 80 40 00
        E 0 80 48 00
        E 0 80 4c 00
        E 0 80 54 00
        E 0 80 58 00
        E 0 80 60 00
        E 0 80 64 00
        E 80 90 1a 60
        E 0 90 61 60
        E 80 80 1a 00
        E 0 80 61 00
        E 0 90 1b 60
        E 0 90 55 60
        E 0 90 61 60
        E 80 80 1b 00
        E 0 80 55 00
        E 0 80 61 00
        E 0 90 1a 60
        E 0 90 61 60
        E 80 80 1a 00
        E 0 80 61 00
        E 80 90 18 60
        E 0 90 26 60
        E 0 90 40 60
        E 0 90 48 60
        E 0 90 4c 60
        E 0 90 54 60
        E 0 90 58 60
        E 0 90 60 60
        E 0 90 64 60
        E 80 80 18 00
        E 0 80 26 00
        E 0 80 40 00
        E 0 80 48 00
        E 0 80 4c 00
        E 0 80 54 00
        E 0 80 58 00
        E 0 80 60 00
        E 0 80 64 00
        E 80 90 1a 60
        E 0 90 61 60
        E 80 80 1a 00
        E 0 80 61 00
        E 80 90 18 60
        E 0 90 60 60
        E 80 80 18 00
        E 0 80 60 00
        E 80 90 1a 60
        E 0 90 26 60
        E 0 90 3d 60
        E 0 90 49 60
        E 0 90 4c 60
        E 0 90 55 60
        E 0 90 58 60
        E 0 90 61 60
        E 0 90 64 60
        E 80 80 1a 00
        E 0 80 26 00
        E 0 80 3d 00
        E 0 80 49 00
        E 0 80 4c 00
        E 0 80 55 00
        E 0 80 58 00
        E 0 80 61 00
        E 0 80 64 00
        E 160 90 2f 60
        E 0 90 56 60
        E 0 90 62 60
        E 0 90 6e 60
        E 80 80 2f 00
        E 0 80 56 00
        E 0 80 62 00
        E 0 80 6e 00
        E 0 90 2e 60
        E 0 90 62 60
        E 0 90 6e 60
        E 80 80 2e 00
        E 0 80 62 00
        E 0 80 6e 00
        E 0 90 2f 60
        E 0 90 62 60
        E 0 90 6e 60
        E 80 80 2f 00
        E 0 80 62 00
        E 0 80 6e 00
        E 0 90 2e 60
        E 0 90 3e 60
        E 0 90 4a 60
        E 0 90 56 60
        E 0 90 62 60
        E 0 90 6e 60
        E 80 80 2e 00
        E 0 80 3e 00
        E 0 80 4a 00
        E 0 80 56 00
        E 0 80 62 00
        E 0 80 6e 00
        E 80 90 31 60
        E 0 90 63 60
        E 0 90 6f 60
        E 80 80 31 00
        E 0 80 63 00
        E 0 80 6f 00
        E 0 90 30 60
        E 0 90 57 60
        E 0 90 63 60
        E 0 90 6f 60
        E 80 80 30 00
        E 0 80 57 00
        E 0 80 63 00
        E 0 80 6f 00
        E 0 90 33 60
        E 0 90 64 60
        E 0 90 70 60
        E 80 80 33 00
        E 0 80 64 00
        E 0 80 70 00
        E 0 90 32 60
        E 0 90 64 60
        E 0 90 70 60
        E 80 80 32 00
        E 0 80 64 00
        E 0 80 70 00
        E 0 90 18 60
        E 0 90 26 60
        E 0 90 40 60
        E 0 90 48 60
        E 0 90 4c 60
        E 0 90 54 60
        E 0 90 58 60
        E 0 90 60 60
        E 0 90 64 60
        E 80 80 18 00
        E 0 80 26 00
        E 0 80 40 00
        E 0 80 48 00
        E 0 80 4c 00
        E 0 80 54 00
        E 0 80 58 00
        E 0 80 60 00
        E 0 80 64 00
        E 80 90 18 60
        E 0 90 60 60
        E 80 80 18 00
        E 0 80 60 00
        E 80 90 18 60
        E 0 90 2a 60
        E 0 90 60 60
        E 0 90 63 60
        E 80 80 18 00
        E 0 80 2a 00
        E 0 80 60 00
        E 0 80 63 00
        E 80 90 1a 60
        E 0 90 26 60
        E 0 90 3d 60
        E 0 90 49 60
        E 0 90 4c 60
        E 0 90 55 60
        E 0 90 58 60
        E 0 90 61 60
        E 0 90 64 60
        E 80 80 1a 00
        E 0 80 26 00
        E 0 80 3d 00
        E 0 80 49 00
        E 0 80 4c 00
        E 0 80 55 00
        E 0 80 58 00
        E 0 80 61 00
        E 0 80 64 00
        E 80 90 18 60
        E 0 90 60 60
        E 80 80 18 00
        E 0 80 60 00
        E 80 90 18 60
        E 0 90 60 60
        E 80 80 18 00
        E 0 80 60 00
        E 80 90 1a 60
        E 0 90 26 60
        E 0 90 3d 60
        E 0 90 49 60
        E 0 90 4c 60
        E 0 90 55 60
        E 0 90 58 60
        E 0 90 61 60
        E 0 90 64 60
        E 80 80 1a 00
        E 0 80 26 00
        E 0 80 3d 00
        E 0 80 49 00
        E 0 80 4c 00
        E 0 80 55 00
        E 0 80 58 00
        E 0 80 61 00
        E 0 80 64 00
        E 80 90 18 60
        E 0 90 60 60
        E 80 80 18 00
        E 0 80 60 00
        E 80 90 1a 60
        E 0 90 26 60
        E 0 90 61 60
        E 0 90 64 60
        E 80 80 1a 00
        E 0 80 26 00
        E 0 80 61 00
        E 0 80 64 00
        E 80 90 18 60
        E 0 90 3c 60
        E 0 90 48 60
        E 0 90 54 60
        E 0 90 60 60
        E 80 80 18 00
        E 0 80 3c 00
        E 0 80 48 00
        E 0 80 54 00
        E 0 80 60 00
        E 80 90 1a 60
        E 0 90 26 60
        E 0 90 61 60
        E 0 90 64 60
        E 80 80 1a 00
        E 0 80 26 00
        E 0 80 61 00
        E 0 80 64 00
        E 80 90 1a 60
        E 0 90 61 60
        E 80 80 1a 00
        E 0 80 61 00
        E 80 90 18 60
        E 0 90 26 60
        E 0 90 40 60
        E 0 90 48 60
        E 0 90 4c 60
        E 0 90 54 60
        E 0 90 58 60
        E 0 90 60 60
        E 0 90 64 60
        E 80 80 18 00
        E 0 80 26 00
        E 0 80 40 00
        E 0 80 48 00
        E 0 80 4c 00
        E 0 80 54 00
        E 0 80 58 00
        E 0 80 60 00
        E 0 80 64 00
        E 240 90 18 60
        E 0 90 60 60
        E 80 80 18 00
        E 0 80 60 00
        E 80 90 1a 60
        E 0 90 26 60
        E 0 90 3d 60
        E 0 90 49 60
        E 0 90 4c 60
        E 0 90 55 60
        E 0 90 58 60
        E 0 90 61 60
        E 0 90 64 60
        E 80 80 1a 00
        E 0 80 26 00
        E 0 80 3d 00
        E 0 80 49 00
        E 0 80 4c 00
        E 0 80 55 00
        E 0 80 58 00
        E 0 80 61 00
        E 0 80 64 00
        E 80 90 26 60
        E 0 90 64 60
        E 80 80 26 00
        E 0 80 64 00
        E 80 90 18 60
        E 0 90 60 60
        E 80 80 18 00
        E 0 80 60 00
        E 80 90 1a 60
        E 0 90 26 60
        E 0 90 3d 60
        E 0 90 49 60
        E 0 90 4c 60
        E 0 90 55 60
        E 0 90 58 60
        E 0 90 61 60
        E 0 90 64 60
        E 80 80 1a 00
        E 0 80 26 00
        E 0 80 3d 00
        E 0 80 49 00
        E 0 80 4c 00
        E 0 80 55 00
        E 0 80 58 00
        E 0 80 61 00
        E 0 80 64 00
        E 80 90 18 60
        E 0 90 60 60
        E 80 80 18 00
        E 0 80 60 00
        E 80 90 18 60
        E 0 90 60 60
        E 80 80 18 00
        E 0 80 60 00
        E 80 90 1a 60
        E 0 90 26 60
        E 0 90 3d 60
        E 0 90 49 60
        E 0 90 4c 60
        E 0 90 55 60
        E 0 90 58 60
        E 0 90 61 60
        E 0 90 64 60
        E 80 80 1a 00
        E 0 80 26 00
        E 0 80 3d 00
        E 0 80 49 00
        E 0 80 4c 00
        E 0 80 55 00
        E 0 80 58 00
        E 0 80 61 00
        E 0 80 64 00
        E 80 90 18 60
        E 0 90 60 60
        E 80 80 18 00
        E 0 80 60 00
        E 80 90 18 60
        E 0 90 60 60
        E 80 80 18 00
        E 0 80 60 00
        E 80 90 1a 60
        E 0 90 26 60
        E 0 90 3d 60
        E 0 90 49 60
        E 0 90 4c 60
        E 0 90 55 60
        E 0 90 58 60
        E 0 90 61 60
        E 0 90 64 60
        E 80 80 1a 00
        E 0 80 26 00
        E 0 80 3d 00
        E 0 80 49 00
        E 0 80 4c 00
        E 0 80 55 00
        E 0 80 58 00
        E 0 80 61 00
        E 0 80 64 00
        E 160 90 1b 60
        E 0 90 55 60
        E 0 90 61 60
        E 80 80 1b 00
        E 0 80 55 00
        E 0 80 61 00
        E 0 90 1a 60
        E 0 90 61 60
        E 80 80 1a 00
        E 0 80 61 00
        E 80 90 1b 60
        E 0 90 3d 60
        E 0 90 49 60
        E 0 90 55 60
        E 0 90 61 60
        E 80 80 1b 00
        E 0 80 3d 00
        E 0 80 49 00
        E 0 80 55 00
        E 0 80 61 00
        E 0 90 1a 60
        E 0 90 61 60
        E 80 80 1a 00
        E 0 80 61 00
        E 0 90 2f 60
        E 0 90 62 60
        E 0 90 6e 60
        E 80 80 2f 00
        E 0 80 62 00
        E 0 80 6e 00
        E 0 90 2e 60
        E 0 90 56 60
        E 0 90 62 60
        E 0 90 6e 60
        E 80 80 2e 00
        E 0 80 56 00
        E 0 80 62 00
        E 0 80 6e 00
        E 0 90 2f 60
        E 0 90 62 60
        E 0 90 6e 60
        E 80 80 2f 00
        E 0 80 62 00
        E 0 80 6e 00
        E 0 90 2e 60
        E 0 90 62 60
        E 0 90 6e 60
        E 80 80 2e 00
        E 0 80 62 00
        E 0 80 6e 00
        E 0 90 1b 60
        E 0 90 3d 60
        E 0 90 49 60
        E 0 90 55 60
        E 0 90 61 60
        E 80 80 1b 00
        E 0 80 3d 00
        E 0 80 49 00
        E 0 80 55 00
        E 0 80 61 00
        E 0 90 1a 60
        E 0 90 61 60
        E 80 80 1a 00
        E 0 80 61 00
        E 0 90 31 60
        E 0 90 63 60
        E 0 90 6f 60
        E 80 80 31 00
        E 0 80 63 00
        E 0 80 6f 00
        E 0 90 30 60
        E 0 90 57 60
        E 0 90 63 60
        E 0 90 6f 60
        E 80 80 30 00
        E 0 80 57 00
        E 0 80 63 00
        E 0 80 6f 00
        E 0 90 31 60
        E 0 90 63 60
        E 0 90 6f 60
        E 80 80 31 00
        E 0 80 63 00
        E 0 80 6f 00
        E 0 90 30 60
        E 0 90 63 60
        E 0 90 6f 60
        E 80 80 30 00
        E 0 80 63 00
        E 0 80 6f 00
        E 0 90 1b 60
        E 0 90 3d 60
        E 0 90 49 60
        E 0 90 55 60
        E 0 90 61 60
        E 80 80 1b 00
        E 0 80 3d 00
        E 0 80 49 00
        E 0 80 55 00
        E 0 80 61 00
        E 0 90 1a 60
        E 0 90 61 60
        E 80 80 1a 00
        E 0 80 61 00
        E 0 90 33 60
        E 0 90 64 60
        E 0 90 70 60
        E 80 80 33 00
        E 0 80 64 00
        E 0 80 70 00
        E 0 90 32 60
        E 0 90 58 60
        E 0 90 64 60
        E 0 90 70 60
        E 80 80 32 00
        E 0 80 58 00
        E 0 80 64 00
        E 0 80 70 00
        E 0 90 33 60
        E 0 90 64 60
        E 0 90 70 60
        E 80 80 33 00
        E 0 80 64 00
        E 0 80 70 00
        E 0 90 32 60
        E 0 90 64 60
        E 0 90 70 60
        E 80 80 32 00
        E 0 80 64 00
        E 0 80 70 00
        E 0 90 18 60
        E 0 90 26 60
        E 0 90 40 60
        E 0 90 48 60
        E 0 90 4c 60
        E 0 90 54 60
        E 0 90 58 60
        E 0 90 60 60
        E 0 90 64 60
        E 0 90 74 60
        E 80 80 18 00
        E 0 80 26 00
        E 0 80 40 00
        E 0 80 48 00
        E 0 80 4c 00
        E 0 80 54 00
        E 0 80 58 00
        E 0 80 60 00
        E 0 80 64 00
        E 240 90 18 60
        E 0 90 2b 60
        E 0 90 60 60
        E 0 90 63 60
        E 80 80 18 00
        E 0 80 2b 00
        E 0 80 60 00
        E 0 80 63 00
        E 80 90 1a 60
        E 0 90 2a 60
        E 0 90 3d 60
        E 0 90 49 60
        E 0 90 4b 60
        E 0 90 55 60
        E 0 90 57 60
        E 0 90 61 60
        E 0 90 63 60
        E 80 80 1a 00
        E 0 80 2a 00
        E 0 80 3d 00
        E 0 80 49 00
        E 0 80 4b 00
        E 0 80 55 00
        E 0 80 57 00
        E 0 80 61 00
        E 0 80 63 00
        E 80 90 2b 60
        E 0 90 63 60
        E 80 80 2b 00
        E 0 80 63 00
        E 80 90 18 60
        E 0 90 2a 60
        E 0 90 60 60
        E 0 90 63 60
        E 80 80 18 00
        E 0 80 2a 00
        E 0 80 60 00
        E 0 80 63 00
        E 80 90 18 60
        E 0 90 2b 60
        E 0 90 3f 60
        E 0 90 48 60
        E 0 90 4b 60
        E 0 90 54 60
        E 0 90 57 60
        E 0 90 60 60
        E 0 90 63 60
        E 80 80 18 00
        E 0 80 2b 00
        E 0 80 3f 00
        E 0 80 48 00
        E 0 80 4b 00
        E 0 80 54 00
        E 0 80 57 00
        E 0 80 60 00
        E 0 80 63 00
        E 80 90 2a 60
        E 0 90 63 60
        E 80 80 2a 00
        E 0 80 63 00
        E 80 90 18 60
        E 0 90 2b 60
        E 0 90 60 60
        E 0 90 63 60
        E 80 80 18 00
        E 0 80 2b 00
        E 0 80 60 00
        E 0 80 63 00
        E 80 90 1a 60
        E 0 90 2a 60
        E 0 90 3d 60
        E 0 90 49 60
        E 0 90 4b 60
        E 0 90 55 60
        E 0 90 57 60
        E 0 90 61 60
        E 0 90 63 60
        E 80 80 1a 00
        E 0 80 2a 00
        E 0 80 3d 00
        E 0 80 49 00
        E 0 80 4b 00
        E 0 80 55 00
        E 0 80 57 00
        E 0 80 61 00
        E 0 80 63 00
        E 80 90 18 60
        E 0 90 2b 60
        E 0 90 60 60
        E 0 90 63 60
        E 80 80 18 00
        E 0 80 2b 00
        E 0 80 60 00
        E 0 80 63 00
        E 80 90 1a 60
        E 0 90 2a 60
        E 0 90 61 60
        E 0 90 63 60
        E 80 80 1a 00
        E 0 80 2a 00
        E 0 80 61 00
        E 0 80 63 00
        E 80 90 18 60
        E 0 90 2a 60
        E 0 90 3f 60
        E 0 90 48 60
        E 0 90 4b 60
        E 0 90 54 60
        E 0 90 57 60
        E 0 90 60 60
        E 0 90 63 60
        E 80 80 18 00
        E 0 80 2a 00
        E 0 80 3f 00
        E 0 80 48 00
        E 0 80 4b 00
        E 0 80 54 00
        E 0 80 57 00
        E 0 80 60 00
        E 0 80 63 00
        E 80 90 2b 60
        E 0 90 63 60
        E 80 80 2b 00
        E 0 80 63 00
        E 80 90 18 60
        E 0 90 2a 60
        E 0 90 60 60
        E 0 90 63 60
        E 80 80 18 00
        E 0 80 2a 00
        E 0 80 60 00
        E 0 80 63 00
        E 80 90 1a 60
        E 0 90 2a 60
        E 0 90 3d 60
        E 0 90 49 60
        E 0 90 4b 60
        E 0 90 55 60
        E 0 90 57 60
        E 0 90 61 60
        E 0 90 63 60
        E 80 80 1a 00
        E 0 80 2a 00
        E 0 80 3d 00
        E 0 80 49 00
        E 0 80 4b 00
        E 0 80 55 00
        E 0 80 57 00
        E 0 80 61 00
        E 0 80 63 00
        E 80 90 2b 60
        E 0 90 63 60
        E 80 80 2b 00
        E 0 80 63 00
        E 80 90 18 60
        E 0 90 2a 60
        E 0 90 60 60
        E 0 90 63 60
        E 80 80 18 00
        E 0 80 2a 00
        E 0 80 60 00
        E 0 80 63 00
        E 80 90 18 60
        E 0 90 2b 60
        E 0 90 3f 60
        E 0 90 48 60
        E 0 90 4b 60
        E 0 90 54 60
        E 0 90 57 60
        E 0 90 60 60
        E 0 90 63 60
        E 80 80 18 00
        E 0 80 2b 00
        E 0 80 3f 00
        E 0 80 48 00
        E 0 80 4b 00
        E 0 80 54 00
        E 0 80 57 00
        E 0 80 60 00
        E 0 80 63 00
        E 80 90 2a 60
        E 0 90 63 60
        E 80 80 2a 00
        E 0 80 63 00
        E 80 90 18 60
        E 0 90 2b 60
        E 0 90 60 60
        E 0 90 63 60
        E 80 80 18 00
        E 0 80 2b 00
        E 0 80 60 00
        E 0 80 63 00
        E 80 90 1a 60
        E 0 90 2a 60
        E 0 90 3d 60
        E 0 90 49 60
        E 0 90 4b 60
        E 0 90 55 60
        E 0 90 57 60
        E 0 90 61 60
        E 0 90 63 60
        E 80 80 1a 00
        E 0 80 2a 00
        E 0 80 3d 00
        E 0 80 49 00
        E 0 80 4b 00
        E 0 80 55 00
        E 0 80 57 00
        E 0 80 61 00
        E 0 80 63 00
        E 80 90 18 60
        E 0 90 2b 60
        E 0 90 60 60
        E 0 90 63 60
        E 80 80 18 00
        E 0 80 2b 00
        E 0 80 60 00
        E 0 80 63 00
        E 80 90 1a 60
        E 0 90 2a 60
        E 0 90 61 60
        E 0 90 63 60
        E 80 80 1a 00
        E 0 80 2a 00
        E 0 80 61 00
        E 0 80 63 00
        E 80 80 74 00
        E 0 90 18 60
        E 0 90 2a 60
        E 0 90 3f 60
        E 0 90 48 60
        E 0 90 4b 60
        E 0 90 54 60
        E 0 90 57 60
        E 0 90 60 60
        E 0 90 63 60
        E 80 80 18 00
        E 0 80 2a 00
        E 0 80 3f 00
        E 0 80 48 00
        E 0 80 4b 00
        E 0 80 54 00
        E 0 80 57 00
        E 0 80 60 00
        E 0 80 63 00
        E 80 90 2b 60
        E 0 90 63 60
        E 80 80 2b 00
        E 0 80 63 00
        E 80 90 18 60
        E 0 90 2a 60
        E 0 90 60 60
        E 0 90 63 60
        E 80 80 18 00
        E 0 80 2a 00
        E 0 80 60 00
        E 0 80 63 00
        E 80 90 1a 60
        E 0 90 2a 60
        E 0 90 3d 60
        E 0 90 49 60
        E 0 90 4b 60
        E 0 90 55 60
        E 0 90 57 60
        E 0 90 61 60
        E 0 90 63 60
        E 80 80 1a 00
        E 0 80 2a 00
        E 0 80 3d 00
        E 0 80 49 00
        E 0 80 4b 00
        E 0 80 55 00
        E 0 80 57 00
        E 0 80 61 00
        E 0 80 63 00
        E 80 90 2b 60
        E 0 90 63 60
        E 80 80 2b 00
        E 0 80 63 00
        E 80 90 18 60
        E 0 90 2a 60
        E 0 90 60 60
        E 0 90 63 60
        E 80 80 18 00
        E 0 80 2a 00
        E 0 80 60 00
        E 0 80 63 00
        E 80 90 18 60
        E 0 90 2b 60
        E 0 90 3f 60
        E 0 90 48 60
        E 0 90 4b 60
        E 0 90 54 60
        E 0 90 57 60
        E 0 90 60 60
        E 0 90 63 60
        E 80 80 18 00
        E 0 80 2b 00
        E 0 80 3f 00
        E 0 80 48 00
        E 0 80 4b 00
        E 0 80 54 00
        E 0 80 57 00
        E 0 80 60 00
        E 0 80 63 00
        E 80 90 2a 60
        E 0 90 63 60
        E 80 80 2a 00
        E 0 80 63 00
        E 80 90 18 60
        E 0 90 2b 60
        E 0 90 60 60
        E 0 90 63 60
        E 80 80 18 00
        E 0 80 2b 00
        E 0 80 60 00
        E 0 80 63 00
        E 80 90 1a 60
        E 0 90 2a 60
        E 0 90 3d 60
        E 0 90 49 60
        E 0 90 4b 60
        E 0 90 55 60
        E 0 90 57 60
        E 0 90 61 60
        E 0 90 63 60
        E 80 80 1a 00
        E 0 80 2a 00
        E 0 80 3d 00
        E 0 80 49 00
        E 0 80 4b 00
        E 0 80 55 00
        E 0 80 57 00
        E 0 80 61 00
        E 0 80 63 00
        E 80 90 18 60
        E 0 90 2b 60
        E 0 90 60 60
        E 0 90 63 60
        E 80 80 18 00
        E 0 80 2b 00
        E 0 80 60 00
        E 0 80 63 00
        E 80 90 18 60
        E 0 90 2a 60
        E 0 90 60 60
        E 0 90 63 60
        E 80 80 18 00
        E 0 80 2a 00
        E 0 80 60 00
        E 0 80 63 00
        E 80 90 1a 60
        E 0 90 2a 60
        E 0 90 3d 60
        E 0 90 49 60
        E 0 90 4b 60
        E 0 90 55 60
        E 0 90 57 60
        E 0 90 61 60
        E 0 90 63 60
        E 80 80 1a 00
        E 0 80 2a 00
        E 0 80 3d 00
        E 0 80 49 00
        E 0 80 4b 00
        E 0 80 55 00
        E 0 80 57 00
        E 0 80 61 00
        E 0 80 63 00
        E 80 90 18 60
        E 0 90 2b 60
        E 0 90 60 60
        E 0 90 63 60
        E 80 80 18 00
        E 0 80 2b 00
        E 0 80 60 00
        E 0 80 63 00
        E 80 90 18 60
        E 0 90 2a 60
        E 0 90 60 60
        E 0 90 63 60
        E 80 80 18 00
        E 0 80 2a 00
        E 0 80 60 00
        E 0 80 63 00
        E 80 90 1a 60
        E 0 90 2a 60
        E 0 90 3d 60
        E 0 90 49 60
        E 0 90 4b 60
        E 0 90 55 60
        E 0 90 57 60
        E 0 90 61 60
        E 0 90 63 60
        E 80 80 1a 00
        E 0 80 2a 00
        E 0 80 3d 00
        E 0 80 49 00
        E 0 80 4b 00
        E 0 80 55 00
        E 0 80 57 00
        E 0 80 61 00
        E 0 80 63 00
        E 80 90 18 60
        E 0 90 2b 60
        E 0 90 60 60
        E 0 90 63 60
        E 80 80 18 00
        E 0 80 2b 00
        E 0 80 60 00
        E 0 80 63 00
        E 80 90 18 60
        E 0 90 2a 60
        E 0 90 60 60
        E 0 90 63 60
        E 80 80 18 00
        E 0 80 2a 00
        E 0 80 60 00
        E 0 80 63 00
        E 80 90 1a 60
        E 0 90 2a 60
        E 0 90 3d 60
        E 0 90 49 60
        E 0 90 4b 60
        E 0 90 55 60
        E 0 90 57 60
        E 0 90 61 60
        E 0 90 63 60
        E 0 90 78 60
        E 0 90 79 60
        E 0 90 7a 60
        E 0 90 7b 60
        E 0 90 7c 60
        E 80 80 1a 00
        E 0 80 2a 00
        E 0 80 3d 00
        E 0 80 49 00
        E 0 80 4b 00
        E 0 80 55 00
        E 0 80 57 00
        E 0 80 61 00
        E 0 80 63 00
        E 80 90 1a 60
        E 0 90 61 60
        E 80 80 1a 00
        E 0 80 61 00
        E 0 90 1b 60
        E 0 90 55 60
        E 0 90 61 60
        E 80 80 1b 00
        E 0 80 55 00
        E 0 80 61 00
        E 0 90 1a 60
        E 0 90 61 60
        E 80 80 1a 00
        E 0 80 61 00
        E 80 90 1b 60
        E 0 90 3d 60
        E 0 90 49 60
        E 0 90 55 60
        E 0 90 61 60
        E 80 80 1b 00
        E 0 80 3d 00
        E 0 80 49 00
        E 0 80 55 00
        E 0 80 61 00
        E 0 90 1a 60
        E 0 90 61 60
        E 80 80 1a 00
        E 0 80 61 00
        E 0 90 2f 60
        E 0 90 62 60
        E 0 90 6e 60
        E 80 80 2f 00
        E 0 80 62 00
        E 0 80 6e 00
        E 0 90 2e 60
        E 0 90 56 60
        E 0 90 62 60
        E 0 90 6e 60
        E 80 80 2e 00
        E 0 80 56 00
        E 0 80 62 00
        E 0 80 6e 00
        E 0 90 31 60
        E 0 90 63 60
        E 0 90 6f 60
        E 80 80 31 00
        E 0 80 63 00
        E 0 80 6f 00
        E 0 90 30 60
        E 0 90 63 60
        E 0 90 6f 60
        E 80 80 78 00
        E 0 80 79 00
        E 0 80 7a 00
        E 0 80 7b 00
        E 0 80 7c 00
        E 0 80 30 00
        E 0 80 63 00
        E 0 80 6f 00
        E 0 90 18 60
        E 0 90 26 60
        E 0 90 40 60
        E 0 90 48 60
        E 0 90 4c 60
        E 0 90 54 60
        E 0 90 58 60
        E 0 90 60 60
        E 0 90 64 60
        E 80 80 18 00
        E 0 80 26 00
        E 0 80 40 00
        E 0 80 48 00
        E 0 80 4c 00
        E 0 80 54 00
        E 0 80 58 00
        E 0 80 60 00
        E 0 80 64 00
        E 0 90 18 60
        E 80 80 18 00
        E 0 90 18 60
        E 0 90 60 60
        E 80 80 18 00
        E 0 80 60 00
        E 0 90 18 60
        E 0 90 54 60
        E 80 80 18 00
        E 0 80 54 00
        E 0 90 18 60
        E 0 90 60 60
        E 80 80 18 00
        E 0 80 60 00
        E 0 90 18 60
        E 80 80 18 00
        E 0 90 18 60
        E 0 90 1a 60
        E 0 90 2a 60
        E 0 90 3d 60
        E 0 90 49 60
        E 0 90 4b 60
        E 0 90 54 60
        E 0 90 55 60
        E 0 90 57 60
        E 0 90 60 60
        E 0 90 61 60
        E 0 90 63 60
        E 80 80 18 00
        E 0 80 1a 00
        E 0 80 2a 00
        E 0 80 3d 00
        E 0 80 49 00
        E 0 80 4b 00
        E 0 80 54 00
        E 0 80 55 00
        E 0 80 57 00
        E 0 80 60 00
        E 0 80 61 00
        E 0 80 63 00
        E 0 90 18 60
        E 80 80 18 00
        E 0 90 18 60
        E 0 90 60 60
        E 80 80 18 00
        E 0 80 60 00
        E 0 90 18 60
        E 0 90 54 60
        E 80 80 18 00
        E 0 80 54 00
        E 0 90 18 60
        E 0 90 60 60
        E 80 80 18 00
        E 0 80 60 00
        E 0 90 18 60
        E 80 80 18 00
        E 0 90 18 60
        E 0 90 1a 60
        E 0 90 2a 60
        E 0 90 3d 60
        E 0 90 49 60
        E 0 90 4b 60
        E 0 90 54 60
        E 0 90 55 60
        E 0 90 57 60
        E 0 90 60 60
        E 0 90 61 60
        E 0 90 63 60
        E 80 80 18 00
        E 0 80 1a 00
        E 0 80 2a 00
        E 0 80 3d 00
        E 0 80 49 00
        E 0 80 4b 00
        E 0 80 54 00
        E 0 80 55 00
        E 0 80 57 00
        E 0 80 60 00
        E 0 80 61 00
        E 0 80 63 00
        E 0 90 18 60
        E 80 80 18 00
        E 0 90 18 60
        E 0 90 60 60
        E 80 80 18 00
        E 0 80 60 00
        E 0 90 18 60
        E 0 90 54 60
        E 80 80 18 00
        E 0 80 54 00
        E 0 90 18 60
        E 0 90 60 60
        E 80 80 18 00
        E 0 80 60 00
        E 0 90 18 60
        E 80 80 18 00
        E 0 90 18 60
        E 0 90 1a 60
        E 0 90 2a 60
        E 0 90 3d 60
        E 0 90 49 60
        E 0 90 4b 60
        E 0 90 54 60
        E 0 90 55 60
        E 0 90 57 60
        E 0 90 60 60
        E 0 90 61 60
        E 0 90 63 60
        E 80 80 18 00
        E 0 80 1a 00
        E 0 80 2a 00
        E 0 80 3d 00
        E 0 80 49 00
        E 0 80 4b 00
        E 0 80 54 00
        E 0 80 55 00
        E 0 80 57 00
        E 0 80 60 00
        E 0 80 61 00
        E 0 80 63 00
        E 0 90 18 60
        E 80 80 18 00
        E 0 90 18 60
        E 0 90 60 60
        E 80 80 18 00
        E 0 80 60 00
        E 0 90 18 60
        E 0 90 54 60
        E 80 80 18 00
        E 0 80 54 00
        E 0 90 18 60
        E 0 90 60 60
        E 80 80 18 00
        E 0 80 60 00
        E 0 90 18 60
        E 80 80 18 00
        E 0 90 18 60
        E 0 90 1a 60
        E 0 90 2a 60
        E 0 90 3d 60
        E 0 90 49 60
        E 0 90 4b 60
        E 0 90 54 60
        E 0 90 55 60
        E 0 90 57 60
        E 0 90 60 60
        E 0 90 61 60
        E 0 90 63 60
        E 80 80 18 00
        E 0 80 1a 00
        E 0 80 2a 00
        E 0 80 3d 00
        E 0 80 49 00
        E 0 80 4b 00
        E 0 80 54 00
        E 0 80 55 00
        E 0 80 57 00
        E 0 80 60 00
        E 0 80 61 00
        E 0 80 63 00
        E 0 90 18 60
        E 80 80 18 00
        E 0 90 18 60
        E 0 90 60 60
        E 80 80 18 00
        E 0 80 60 00
        E 0 90 18 60
        E 0 90 54 60
        E 80 80 18 00
        E 0 80 54 00
        E 0 90 18 60
        E 0 90 60 60
        E 80 80 18 00
        E 0 80 60 00
        E 0 90 18 60
        E 80 80 18 00
        E 0 90 18 60
        E 0 90 1a 60
        E 0 90 2a 60
        E 0 90 3d 60
        E 0 90 49 60
        E 0 90 4b 60
        E 0 90 54 60
        E 0 90 55 60
        E 0 90 57 60
        E 0 90 60 60
        E 0 90 61 60
        E 0 90 63 60
        E 80 80 18 00
        E 0 80 1a 00
        E 0 80 2a 00
        E 0 80 3d 00
        E 0 80 49 00
        E 0 80 4b 00
        E 0 80 54 00
        E 0 80 55 00
        E 0 80 57 00
        E 0 80 60 00
        E 0 80 61 00
        E 0 80 63 00
        E 0 90 18 60
        E 80 80 18 00
        E 0 90 18 60
        E 0 90 60 60
        E 80 80 18 00
        E 0 80 60 00
        E 0 90 18 60
        E 0 90 54 60
        E 80 80 18 00
        E 0 80 54 00
        E 0 90 18 60
        E 0 90 60 60
        E 80 80 18 00
        E 0 80 60 00
        E 0 90 18 60
        E 80 80 18 00
        E 0 90 18 60
        E 0 90 1a 60
        E 0 90 26 60
        E 0 90 3d 60
        E 0 90 49 60
        E 0 90 4c 60
        E 0 90 54 60
        E 0 90 55 60
        E 0 90 58 60
        E 0 90 60 60
        E 0 90 61 60
        E 0 90 64 60
        E 0 90 78 60
        E 0 90 79 60
        E 0 90 7a 60
        E 0 90 7b 60
        E 0 90 7c 60
        E 80 80 18 00
        E 0 80 1a 00
        E 0 80 26 00
        E 0 80 3d 00
        E 0 80 49 00
        E 0 80 4c 00
        E 0 80 54 00
        E 0 80 55 00
        E 0 80 58 00
        E 0 80 60 00
        E 0 80 61 00
        E 0 80 64 00
        E 0 90 18 60
        E 80 80 18 00
        E 0 90 18 60
        E 0 90 60 60
        E 80 80 18 00
        E 0 80 60 00
        E 0 90 18 60
        E 0 90 54 60
        E 80 80 18 00
        E 0 80 54 00
        E 0 90 18 60
        E 0 90 2e 60
        E 0 90 60 60
        E 0 90 62 60
        E 0 90 6e 60
        E 80 80 18 00
        E 0 80 2e 00
        E 0 80 60 00
        E 0 80 62 00
        E 0 80 6e 00
        E 0 90 18 60
        E 0 90 2f 60
        E 0 90 62 60
        E 0 90 6e 60
        E 80 80 18 00
        E 0 80 2f 00
        E 0 80 62 00
        E 0 80 6e 00
        E 0 90 18 60
        E 0 90 2e 60
        E 0 90 3e 60
        E 0 90 4a 60
        E 0 90 54 60
        E 0 90 56 60
        E 0 90 60 60
        E 0 90 62 60
        E 0 90 6e 60
        E 80 80 18 00
        E 0 80 2e 00
        E 0 80 3e 00
        E 0 80 4a 00
        E 0 80 54 00
        E 0 80 56 00
        E 0 80 60 00
        E 0 80 62 00
        E 0 80 6e 00
        E 0 90 18 60
        E 0 90 2f 60
        E 0 90 62 60
        E 0 90 6e 60
        E 80 80 18 00
        E 0 80 2f 00
        E 0 80 62 00
        E 0 80 6e 00
        E 0 90 18 60
        E 0 90 30 60
        E 0 90 60 60
        E 0 90 63 60
        E 0 90 6f 60
        E 80 80 18 00
        E 0 80 30 00
        E 0 80 60 00
        E 0 80 63 00
        E 0 80 6f 00
        E 0 90 18 60
        E 0 90 31 60
        E 0 90 54 60
        E 0 90 57 60
        E 0 90 63 60
        E 0 90 6f 60
        E 80 80 18 00
        E 0 80 31 00
        E 0 80 54 00
        E 0 80 57 00
        E 0 80 63 00
        E 0 80 6f 00
        E 0 90 18 60
        E 0 90 32 60
        E 0 90 60 60
        E 0 90 64 60
        E 0 90 70 60
        E 80 80 18 00
        E 0 80 32 00
        E 0 80 60 00
        E 0 80 64 00
        E 0 80 70 00
        E 0 90 18 60
        E 0 90 33 60
        E 0 90 64 60
        E 0 90 70 60
        E 80 80 18 00
        E 0 80 33 00
        E 0 80 64 00
        E 0 80 70 00
        E 0 90 18 60
        E 0 90 2c 60
        E 0 90 40 60
        E 0 90 48 60
        E 0 90 4c 60
        E 0 90 54 60
        E 0 90 58 60
        E 0 90 60 60
        E 0 90 64 60
        E 1 80 78 00
        E 0 80 79 00
        E 0 80 7a 00
        E 0 80 7b 00
        E 0 80 7c 00
        E 79 80 18 00
        E 0 80 2c 00
        E 0 80 40 00
        E 0 80 48 00
        E 0 80 4c 00
        E 0 80 54 00
        E 0 80 58 00
        E 0 80 60 00
        E 0 80 64 00
        E 240 90 18 60
        E 0 90 2b 60
        E 0 90 60 60
        E 0 90 63 60
        E 80 80 18 00
        E 0 80 2b 00
        E 0 80 60 00
        E 0 80 63 00
        E 80 90 1a 60
        E 0 90 2a 60
        E 0 90 3d 60
        E 0 90 49 60
        E 0 90 4b 60
        E 0 90 55 60
        E 0 90 57 60
        E 0 90 61 60
        E 0 90 63 60
        E 80 80 1a 00
        E 0 80 2a 00
        E 0 80 3d 00
        E 0 80 49 00
        E 0 80 4b 00
        E 0 80 55 00
        E 0 80 57 00
        E 0 80 61 00
        E 0 80 63 00
        E 80 90 2b 60
        E 0 90 63 60
        E 80 80 2b 00
        E 0 80 63 00
        E 80 90 18 60
        E 0 90 2a 60
        E 0 90 60 60
        E 0 90 63 60
        E 80 80 18 00
        E 0 80 2a 00
        E 0 80 60 00
        E 0 80 63 00
        E 80 90 18 60
        E 0 90 2b 60
        E 0 90 3f 60
        E 0 90 48 60
        E 0 90 4b 60
        E 0 90 54 60
        E 0 90 57 60
        E 0 90 60 60
        E 0 90 63 60
        E 80 80 18 00
        E 0 80 2b 00
        E 0 80 3f 00
        E 0 80 48 00
        E 0 80 4b 00
        E 0 80 54 00
        E 0 80 57 00
        E 0 80 60 00
        E 0 80 63 00
        E 80 90 2a 60
        E 0 90 63 60
        E 80 80 2a 00
        E 0 80 63 00
        E 80 90 18 60
        E 0 90 2b 60
        E 0 90 60 60
        E 0 90 63 60
        E 80 80 18 00
        E 0 80 2b 00
        E 0 80 60 00
        E 0 80 63 00
        E 80 90 1a 60
        E 0 90 2a 60
        E 0 90 3d 60
        E 0 90 49 60
        E 0 90 4b 60
        E 0 90 55 60
        E 0 90 57 60
        E 0 90 61 60
        E 0 90 63 60
        E 80 80 1a 00
        E 0 80 2a 00
        E 0 80 3d 00
        E 0 80 49 00
        E 0 80 4b 00
        E 0 80 55 00
        E 0 80 57 00
        E 0 80 61 00
        E 0 80 63 00
        E 80 90 2b 60
        E 0 90 63 60
        E 80 80 2b 00
        E 0 80 63 00
        E 80 90 18 60
        E 0 90 2a 60
        E 0 90 60 60
        E 0 90 63 60
        E 80 80 18 00
        E 0 80 2a 00
        E 0 80 60 00
        E 0 80 63 00
        E 80 90 18 60
        E 0 90 2b 60
        E 0 90 3f 60
        E 0 90 48 60
        E 0 90 4b 60
        E 0 90 54 60
        E 0 90 57 60
        E 0 90 60 60
        E 0 90 63 60
        E 80 80 18 00
        E 0 80 2b 00
        E 0 80 3f 00
        E 0 80 48 00
        E 0 80 4b 00
        E 0 80 54 00
        E 0 80 57 00
        E 0 80 60 00
        E 0 80 63 00
        E 80 90 2a 60
        E 0 90 63 60
        E 80 80 2a 00
        E 0 80 63 00
        E 80 90 18 60
        E 0 90 2b 60
        E 0 90 60 60
        E 0 90 63 60
        E 80 80 18 00
        E 0 80 2b 00
        E 0 80 60 00
        E 0 80 63 00
        E 80 90 1a 60
        E 0 90 2a 60
        E 0 90 3d 60
        E 0 90 49 60
        E 0 90 4b 60
        E 0 90 55 60
        E 0 90 57 60
        E 0 90 61 60
        E 0 90 63 60
        E 80 80 1a 00
        E 0 80 2a 00
        E 0 80 3d 00
        E 0 80 49 00
        E 0 80 4b 00
        E 0 80 55 00
        E 0 80 57 00
        E 0 80 61 00
        E 0 80 63 00
        E 80 90 2b 60
        E 0 90 63 60
        E 80 80 2b 00
        E 0 80 63 00
        E 0 90 1b 60
        E 0 90 55 60
        E 0 90 61 60
        E 80 80 1b 00
        E 0 80 55 00
        E 0 80 61 00
        E 0 90 1a 60
        E 0 90 61 60
        E 80 80 1a 00
        E 0 80 61 00
        E 80 90 1b 60
        E 0 90 3d 60
        E 0 90 49 60
        E 0 90 55 60
        E 0 90 61 60
        E 80 80 1b 00
        E 0 80 3d 00
        E 0 80 49 00
        E 0 80 55 00
        E 0 80 61 00
        E 0 90 1a 60
        E 0 90 61 60
        E 80 80 1a 00
        E 0 80 61 00
        E 0 90 2f 60
        E 0 90 62 60
        E 0 90 6e 60
        E 80 80 2f 00
        E 0 80 62 00
        E 0 80 6e 00
        E 0 90 2e 60
        E 0 90 56 60
        E 0 90 62 60
        E 0 90 6e 60
        E 80 80 2e 00
        E 0 80 56 00
        E 0 80 62 00
        E 0 80 6e 00
        E 0 90 2f 60
        E 0 90 62 60
        E 0 90 6e 60
        E 80 80 2f 00
        E 0 80 62 00
        E 0 80 6e 00
        E 0 90 2e 60
        E 0 90 62 60
        E 0 90 6e 60
        E 80 80 2e 00
        E 0 80 62 00
        E 0 80 6e 00
        E 0 90 1b 60
        E 0 90 3d 60
        E 0 90 49 60
        E 0 90 55 60
        E 0 90 61 60
        E 80 80 1b 00
        E 0 80 3d 00
        E 0 80 49 00
        E 0 80 55 00
        E 0 80 61 00
        E 0 90 1a 60
        E 0 90 61 60
        E 80 80 1a 00
        E 0 80 61 00
        E 0 90 1b 60
        E 0 90 61 60
        E 80 80 1b 00
        E 0 80 61 00
        E 0 90 1a 60
        E 0 90 55 60
        E 0 90 61 60
        E 80 80 1a 00
        E 0 80 55 00
        E 0 80 61 00
        E 0 90 1b 60
        E 0 90 61 60
        E 80 80 1b 00
        E 0 80 61 00
        E 0 90 1a 60
        E 0 90 61 60
        E 80 80 1a 00
        E 0 80 61 00
        E 0 90 18 60
        E 0 90 26 60
        E 0 90 40 60
        E 0 90 48 60
        E 0 90 4c 60
        E 0 90 54 60
        E 0 90 58 60
        E 0 90 60 60
        E 0 90 64 60
        E 80 80 18 00
        E 0 80 26 00
        E 0 80 40 00
        E 0 80 48 00
        E 0 80 4c 00
        E 0 80 54 00
        E 0 80 58 00
        E 0 80 60 00
        E 0 80 64 00
        E 80 90 18 60
        E 0 90 60 60
        E 80 80 18 00
        E 0 80 60 00
        E 80 90 18 60
        E 0 90 60 60
        E 80 80 18 00
        E 0 80 60 00
        E 80 90 18 60
        E 0 90 26 60
        E 0 90 40 60
        E 0 90 48 60
        E 0 90 4c 60
        E 0 90 54 60
        E 0 90 58 60
        E 0 90 60 60
        E 0 90 64 60
        E 80 80 18 00
        E 0 80 26 00
        E 0 80 40 00
        E 0 80 48 00
        E 0 80 4c 00
        E 0 80 54 00
        E 0 80 58 00
        E 0 80 60 00
        E 0 80 64 00
        E 80 90 18 60
        E 0 90 60 60
        E 80 80 18 00
        E 0 80 60 00
        E 80 90 18 60
        E 0 90 60 60
        E 80 80 18 00
        E 0 80 60 00
        E 80 90 1a 60
        E 0 90 26 60
        E 0 90 3d 60
        E 0 90 49 60
        E 0 90 4c 60
        E 0 90 55 60
        E 0 90 58 60
        E 0 90 61 60
        E 0 90 64 60
        E 80 80 1a 00
        E 0 80 26 00
        E 0 80 3d 00
        E 0 80 49 00
        E 0 80 4c 00
        E 0 80 55 00
        E 0 80 58 00
        E 0 80 61 00
        E 0 80 64 00
        E 80 90 18 60
        E 0 90 60 60
        E 80 80 18 00
        E 0 80 60 00
        E 80 90 1a 60
        E 0 90 26 60
        E 0 90 61 60
        E 0 90 64 60
        E 80 80 1a 00
        E 0 80 26 00
        E 0 80 61 00
        E 0 80 64 00
        E 80 90 18 60
        E 0 90 3c 60
        E 0 90 48 60
        E 0 90 54 60
        E 0 90 60 60
        E 80 80 18 00
        E 0 80 3c 00
        E 0 80 48 00
        E 0 80 54 00
        E 0 80 60 00
        E 80 90 1a 60
        E 0 90 26 60
        E 0 90 61 60
        E 0 90 64 60
        E 80 80 1a 00
        E 0 80 26 00
        E 0 80 61 00
        E 0 80 64 00
        E 80 90 1a 60
        E 0 90 26 60
        E 0 90 61 60
        E 0 90 64 60
        E 80 80 1a 00
        E 0 80 26 00
        E 0 80 61 00
        E 0 80 64 00
        E 80 90 18 60
        E 0 90 22 60
        E 0 90 26 60
        E 0 90 3e 60
        E 0 90 40 60
        E 0 90 48 60
        E 0 90 4a 60
        E 0 90 4c 60
        E 0 90 54 60
        E 0 90 56 60
        E 0 90 58 60
        E 0 90 60 60
        E 0 90 62 60
        E 0 90 64 60
        E 80 80 18 00
        E 0 80 22 00
        E 0 80 26 00
        E 0 80 3e 00
        E 0 80 40 00
        E 0 80 48 00
        E 0 80 4a 00
        E 0 80 4c 00
        E 0 80 54 00
        E 0 80 56 00
        E 0 80 58 00
        E 0 80 60 00
        E 0 80 62 00
        E 0 80 64 00
        E 240 90 18 60
        E 0 90 60 60
        E 80 80 18 00
        E 0 80 60 00
        E 80 90 1a 60
        E 0 90 26 60
        E 0 90 3d 60
        E 0 90 49 60
        E 0 90 4c 60
        E 0 90 55 60
        E 0 90 58 60
        E 0 90 61 60
        E 0 90 64 60
        E 80 80 1a 00
        E 0 80 26 00
        E 0 80 3d 00
        E 0 80 49 00
        E 0 80 4c 00
        E 0 80 55 00
        E 0 80 58 00
        E 0 80 61 00
        E 0 80 64 00
        E 80 90 26 60
        E 0 90 64 60
        E 80 80 26 00
        E 0 80 64 00
        E 80 90 18 60
        E 0 90 60 60
        E 80 80 18 00
        E 0 80 60 00
        E 80 90 1a 60
        E 0 90 26 60
        E 0 90 3d 60
        E 0 90 49 60
        E 0 90 4c 60
        E 0 90 55 60
        E 0 90 58 60
        E 0 90 61 60
        E 0 90 64 60
        E 80 80 1a 00
        E 0 80 26 00
        E 0 80 3d 00
        E 0 80 49 00
        E 0 80 4c 00
        E 0 80 55 00
        E 0 80 58 00
        E 0 80 61 00
        E 0 80 64 00
        E 160 90 2f 60
        E 0 90 56 60
        E 0 90 62 60
        E 0 90 6e 60
        E 80 80 2f 00
        E 0 80 56 00
        E 0 80 62 00
        E 0 80 6e 00
        E 0 90 2e 60
        E 0 90 62 60
        E 0 90 6e 60
        E 80 80 2e 00
        E 0 80 62 00
        E 0 80 6e 00
        E 80 90 18 60
        E 0 90 31 60
        E 0 90 3f 60
        E 0 90 4b 60
        E 0 90 54 60
        E 0 90 57 60
        E 0 90 60 60
        E 0 90 63 60
        E 0 90 6f 60
        E 80 80 18 00
        E 0 80 31 00
        E 0 80 3f 00
        E 0 80 4b 00
        E 0 80 54 00
        E 0 80 57 00
        E 0 80 60 00
        E 0 80 63 00
        E 0 80 6f 00
        E 80 90 30 60
        E 0 90 63 60
        E 0 90 6f 60
        E 80 80 30 00
        E 0 80 63 00
        E 0 80 6f 00
        E 0 90 31 60
        E 0 90 57 60
        E 0 90 63 60
        E 0 90 6f 60
        E 80 80 31 00
        E 0 80 57 00
        E 0 80 63 00
        E 0 80 6f 00
        E 0 90 32 60
        E 0 90 64 60
        E 0 90 70 60
        E 80 80 32 00
        E 0 80 64 00
        E 0 80 70 00
        E 80 90 18 60
        E 0 90 26 60
        E 0 90 40 60
        E 0 90 48 60
        E 0 90 4c 60
        E 0 90 54 60
        E 0 90 58 60
        E 0 90 60 60
        E 0 90 64 60
        E 80 80 18 00
        E 0 80 26 00
        E 0 80 40 00
        E 0 80 48 00
        E 0 80 4c 00
        E 0 80 54 00
        E 0 80 58 00
        E 0 80 60 00
        E 0 80 64 00
        E 80 90 18 60
        E 0 90 60 60
        E 80 80 18 00
        E 0 80 60 00
        E 80 90 18 60
        E 0 90 60 60
        E 80 80 18 00
        E 0 80 60 00
        E 80 90 1a 60
        E 0 90 2a 60
        E 0 90 3d 60
        E 0 90 49 60
        E 0 90 4b 60
        E 0 90 55 60
        E 0 90 57 60
        E 0 90 61 60
        E 0 90 63 60
        E 80 80 1a 00
        E 0 80 2a 00
        E 0 80 3d 00
        E 0 80 49 00
        E 0 80 4b 00
        E 0 80 55 00
        E 0 80 57 00
        E 0 80 61 00
        E 0 80 63 00
        E 80 90 26 60
        E 0 90 64 60
        E 80 80 26 00
        E 0 80 64 00
        E 80 90 18 60
        E 0 90 60 60
        E 80 80 18 00
        E 0 80 60 00
        E 80 90 1a 60
        E 0 90 26 60
        E 0 90 3d 60
        E 0 90 49 60
        E 0 90 4c 60
        E 0 90 55 60
        E 0 90 58 60
        E 0 90 61 60
        E 0 90 64 60
        E 80 80 1a 00
        E 0 80 26 00
        E 0 80 3d 00
        E 0 80 49 00
        E 0 80 4c 00
        E 0 80 55 00
        E 0 80 58 00
        E 0 80 61 00
        E 0 80 64 00
        E 80 90 18 60
        E 0 90 60 60
        E 80 80 18 00
        E 0 80 60 00
        E 80 90 1a 60
        E 0 90 26 60
        E 0 90 61 60
        E 0 90 64 60
        E 80 80 1a 00
        E 0 80 26 00
        E 0 80 61 00
        E 0 80 64 00
        E 80 90 18 60
        E 0 90 3c 60
        E 0 90 48 60
        E 0 90 54 60
        E 0 90 60 60
        E 80 80 18 00
        E 0 80 3c 00
        E 0 80 48 00
        E 0 80 54 00
        E 0 80 60 00
        E 80 90 1a 60
        E 0 90 26 60
        E 0 90 61 60
        E 0 90 64 60
        E 80 80 1a 00
        E 0 80 26 00
        E 0 80 61 00
        E 0 80 64 00
        E 80 90 1a 60
        E 0 90 61 60
        E 80 80 1a 00
        E 0 80 61 00
        E 80 90 18 60
        E 0 90 26 60
        E 0 90 40 60
        E 0 90 48 60
        E 0 90 4c 60
        E 0 90 54 60
        E 0 90 58 60
        E 0 90 60 60
        E 0 90 64 60
        E 80 80 18 00
        E 0 80 26 00
        E 0 80 40 00
        E 0 80 48 00
        E 0 80 4c 00
        E 0 80 54 00
        E 0 80 58 00
        E 0 80 60 00
        E 0 80 64 00
        E 240 90 18 60
        E 0 90 60 60
        E 80 80 18 00
        E 0 80 60 00
        E 80 90 1a 60
        E 0 90 26 60
        E 0 90 3d 60
        E 0 90 49 60
        E 0 90 4c 60
        E 0 90 55 60
        E 0 90 58 60
        E 0 90 61 60
        E 0 90 64 60
        E 80 80 1a 00
        E 0 80 26 00
        E 0 80 3d 00
        E 0 80 49 00
        E 0 80 4c 00
        E 0 80 55 00
        E 0 80 58 00
        E 0 80 61 00
        E 0 80 64 00
        E 240 90 18 60
        E 0 90 60 60
        E 80 80 18 00
        E 0 80 60 00
        E 80 90 1a 60
        E 0 90 26 60
        E 0 90 3d 60
        E 0 90 49 60
        E 0 90 4c 60
        E 0 90 55 60
        E 0 90 58 60
        E 0 90 61 60
        E 0 90 64 60
        E 80 80 1a 00
        E 0 80 26 00
        E 0 80 3d 00
        E 0 80 49 00
        E 0 80 4c 00
        E 0 80 55 00
        E 0 80 58 00
        E 0 80 61 00
        E 0 80 64 00
        E 160 90 2f 60
        E 0 90 56 60
        E 0 90 62 60
        E 0 90 6e 60
        E 80 80 2f 00
        E 0 80 56 00
        E 0 80 62 00
        E 0 80 6e 00
        E 0 90 2e 60
        E 0 90 62 60
        E 0 90 6e 60
        E 80 80 2e 00
        E 0 80 62 00
        E 0 80 6e 00
        E 80 90 2f 60
        E 0 90 3e 60
        E 0 90 4a 60
        E 0 90 56 60
        E 0 90 62 60
        E 0 90 6e 60
        E 80 80 2f 00
        E 0 80 3e 00
        E 0 80 4a 00
        E 0 80 56 00
        E 0 80 62 00
        E 0 80 6e 00
        E 0 90 2e 60
        E 0 90 62 60
        E 0 90 6e 60
        E 80 80 2e 00
        E 0 80 62 00
        E 0 80 6e 00
        E 80 90 2f 60
        E 0 90 56 60
        E 0 90 62 60
        E 0 90 6e 60
        E 80 80 2f 00
        E 0 80 56 00
        E 0 80 62 00
        E 0 80 6e 00
        E 0 90 30 60
        E 0 90 63 60
        E 0 90 6f 60
        E 80 80 30 00
        E 0 80 63 00
        E 0 80 6f 00
        E 80 90 18 60
        E 0 90 26 60
        E 0 90 40 60
        E 0 90 48 60
        E 0 90 4c 60
        E 0 90 54 60
        E 0 90 58 60
        E 0 90 60 60
        E 0 90 64 60
        E 0 90 74 60
        E 80 80 18 00
        E 0 80 26 00
        E 0 80 40 00
        E 0 80 48 00
        E 0 80 4c 00
        E 0 80 54 00
        E 0 80 58 00
        E 0 80 60 00
        E 0 80 64 00
        E 80 90 18 60
        E 0 90 60 60
        E 80 80 18 00
        E 0 80 60 00
        E 80 90 18 60
        E 0 90 60 60
        E 80 80 18 00
        E 0 80 60 00
        E 80 90 1a 60
        E 0 90 26 60
        E 0 90 3d 60
        E 0 90 49 60
        E 0 90 4c 60
        E 0 90 55 60
        E 0 90 58 60
        E 0 90 61 60
        E 0 90 64 60
        E 80 80 1a 00
        E 0 80 26 00
        E 0 80 3d 00
        E 0 80 49 00
        E 0 80 4c 00
        E 0 80 55 00
        E 0 80 58 00
        E 0 80 61 00
        E 0 80 64 00
        E 240 90 18 60
        E 0 90 60 60
        E 80 80 18 00
        E 0 80 60 00
        E 80 90 1a 60
        E 0 90 26 60
        E 0 90 3d 60
        E 0 90 49 60
        E 0 90 4c 60
        E 0 90 55 60
        E 0 90 58 60
        E 0 90 61 60
        E 0 90 64 60
        E 80 80 1a 00
        E 0 80 26 00
        E 0 80 3d 00
        E 0 80 49 00
        E 0 80 4c 00
        E 0 80 55 00
        E 0 80 58 00
        E 0 80 61 00
        E 0 80 64 00
        E 80 90 18 60
        E 0 90 60 60
        E 80 80 18 00
        E 0 80 60 00
        E 80 90 1a 60
        E 0 90 26 60
        E 0 90 61 60
        E 0 90 64 60
        E 80 80 1a 00
        E 0 80 26 00
        E 0 80 61 00
        E 0 80 64 00
        E 80 90 18 60
        E 0 90 3c 60
        E 0 90 48 60
        E 0 90 54 60
        E 0 90 60 60
        E 80 80 18 00
        E 0 80 3c 00
        E 0 80 48 00
        E 0 80 54 00
        E 0 80 60 00
        E 80 90 1a 60
        E 0 90 26 60
        E 0 90 61 60
        E 0 90 64 60
        E 80 80 1a 00
        E 0 80 26 00
        E 0 80 61 00
        E 0 80 64 00
        E 80 90 1a 60
        E 0 90 61 60
        E 80 80 1a 00
        E 0 80 61 00
        E 80 90 18 60
        E 0 90 22 60
        E 0 90 26 60
        E 0 90 3e 60
        E 0 90 40 60
        E 0 90 48 60
        E 0 90 4a 60
        E 0 90 4c 60
        E 0 90 54 60
        E 0 90 56 60
        E 0 90 58 60
        E 0 90 60 60
        E 0 90 62 60
        E 0 90 64 60
        E 80 80 18 00
        E 0 80 22 00
        E 0 80 26 00
        E 0 80 3e 00
        E 0 80 40 00
        E 0 80 48 00
        E 0 80 4a 00
        E 0 80 4c 00
        E 0 80 54 00
        E 0 80 56 00
        E 0 80 58 00
        E 0 80 60 00
        E 0 80 62 00
        E 0 80 64 00
        E 240 90 18 60
        E 0 90 60 60
        E 80 80 18 00
        E 0 80 60 00
        E 80 90 1a 60
        E 0 90 26 60
        E 0 90 3d 60
        E 0 90 49 60
        E 0 90 4c 60
        E 0 90 55 60
        E 0 90 58 60
        E 0 90 61 60
        E 0 90 64 60
        E 80 80 1a 00
        E 0 80 26 00
        E 0 80 3d 00
        E 0 80 49 00
        E 0 80 4c 00
        E 0 80 55 00
        E 0 80 58 00
        E 0 80 61 00
        E 0 80 64 00
        E 240 90 18 60
        E 0 90 60 60
        E 80 80 18 00
        E 0 80 60 00
        E 80 90 1a 60
        E 0 90 26 60
        E 0 90 3d 60
        E 0 90 49 60
        E 0 90 4c 60
        E 0 90 55 60
        E 0 90 58 60
        E 0 90 61 60
        E 0 90 64 60
        E 80 80 1a 00
        E 0 80 26 00
        E 0 80 3d 00
        E 0 80 49 00
        E 0 80 4c 00
        E 0 80 55 00
        E 0 80 58 00
        E 0 80 61 00
        E 0 80 64 00
        E 80 90 2e 60
        E 0 90 62 60
        E 0 90 6e 60
        E 80 80 2e 00
        E 0 80 62 00
        E 0 80 6e 00
        E 0 90 2f 60
        E 0 90 56 60
        E 0 90 62 60
        E 0 90 6e 60
        E 80 80 2f 00
        E 0 80 56 00
        E 0 80 62 00
        E 0 80 6e 00
        E 0 90 2e 60
        E 0 90 62 60
        E 0 90 6e 60
        E 80 80 2e 00
        E 0 80 62 00
        E 0 80 6e 00
        E 80 90 18 60
        E 0 90 31 60
        E 0 90 3f 60
        E 0 90 4b 60
        E 0 90 54 60
        E 0 90 57 60
        E 0 90 60 60
        E 0 90 63 60
        E 0 90 6f 60
        E 80 80 18 00
        E 0 80 31 00
        E 0 80 3f 00
        E 0 80 4b 00
        E 0 80 54 00
        E 0 80 57 00
        E 0 80 60 00
        E 0 80 63 00
        E 0 80 6f 00
        E 80 90 30 60
        E 0 90 63 60
        E 0 90 6f 60
        E 80 80 30 00
        E 0 80 63 00
        E 0 80 6f 00
        E 0 90 31 60
        E 0 90 57 60
        E 0 90 63 60
        E 0 90 6f 60
        E 80 80 31 00
        E 0 80 57 00
        E 0 80 63 00
        E 0 80 6f 00
        E 0 90 32 60
        E 0 90 64 60
        E 0 90 70 60
        E 80 80 32 00
        E 0 80 64 00
        E 0 80 70 00
        E 80 80 74 00
        E 0 90 18 60
        E 0 90 26 60
        E 0 90 40 60
        E 0 90 48 60
        E 0 90 4c 60
        E 0 90 54 60
        E 0 90 58 60
        E 0 90 60 60
        E 0 90 64 60
        E 80 80 18 00
        E 0 80 26 00
        E 0 80 40 00
        E 0 80 48 00
        E 0 80 4c 00
        E 0 80 54 00
        E 0 80 58 00
        E 0 80 60 00
        E 0 80 64 00
        E 80 90 18 60
        E 0 90 60 60
        E 80 80 18 00
        E 0 80 60 00
        E 80 90 18 60
        E 0 90 60 60
        E 80 80 18 00
        E 0 80 60 00
        E 80 90 1a 60
        E 0 90 2a 60
        E 0 90 3d 60
        E 0 90 49 60
        E 0 90 4b 60
        E 0 90 55 60
        E 0 90 57 60
        E 0 90 61 60
        E 0 90 63 60
        E 80 80 1a 00
        E 0 80 2a 00
        E 0 80 3d 00
        E 0 80 49 00
        E 0 80 4b 00
        E 0 80 55 00
        E 0 80 57 00
        E 0 80 61 00
        E 0 80 63 00
        E 240 90 18 60
        E 0 90 60 60
        E 80 80 18 00
        E 0 80 60 00
        E 80 90 1a 60
        E 0 90 26 60
        E 0 90 3d 60
        E 0 90 49 60
        E 0 90 4c 60
        E 0 90 55 60
        E 0 90 58 60
        E 0 90 61 60
        E 0 90 64 60
        E 80 80 1a 00
        E 0 80 26 00
        E 0 80 3d 00
        E 0 80 49 00
        E 0 80 4c 00
        E 0 80 55 00
        E 0 80 58 00
        E 0 80 61 00
        E 0 80 64 00
        E 80 90 18 60
        E 0 90 60 60
        E 80 80 18 00
        E 0 80 60 00
        E 80 90 1a 60
        E 0 90 26 60
        E 0 90 61 60
        E 0 90 64 60
        E 80 80 1a 00
        E 0 80 26 00
        E 0 80 61 00
        E 0 80 64 00
        E 80 90 18 60
        E 0 90 3c 60
        E 0 90 48 60
        E 0 90 54 60
        E 0 90 60 60
        E 80 80 18 00
        E 0 80 3c 00
        E 0 80 48 00
        E 0 80 54 00
        E 0 80 60 00
        E 80 90 1a 60
        E 0 90 26 60
        E 0 90 61 60
        E 0 90 64 60
        E 80 80 1a 00
        E 0 80 26 00
        E 0 80 61 00
        E 0 80 64 00
        E 80 90 1a 60
        E 0 90 61 60
        E 80 80 1a 00
        E 0 80 61 00
        E 80 90 18 60
        E 0 90 26 60
        E 0 90 40 60
        E 0 90 48 60
        E 0 90 4c 60
        E 0 90 54 60
        E 0 90 58 60
        E 0 90 60 60
        E 0 90 64 60
        E 80 80 18 00
        E 0 80 26 00
        E 0 80 40 00
        E 0 80 48 00
        E 0 80 4c 00
        E 0 80 54 00
        E 0 80 58 00
        E 0 80 60 00
        E 0 80 64 00
        E 80 90 18 60
        E 0 90 60 60
        E 80 80 18 00
        E 0 80 60 00
        E 80 90 18 60
        E 0 90 60 60
        E 80 80 18 00
        E 0 80 60 00
        E 80 90 1a 60
        E 0 90 26 60
        E 0 90 3d 60
        E 0 90 49 60
        E 0 90 4c 60
        E 0 90 55 60
        E 0 90 58 60
        E 0 90 61 60
        E 0 90 64 60
        E 80 80 1a 00
        E 0 80 26 00
        E 0 80 3d 00
        E 0 80 49 00
        E 0 80 4c 00
        E 0 80 55 00
        E 0 80 58 00
        E 0 80 61 00
        E 0 80 64 00
        E 80 90 18 60
        E 0 90 60 60
        E 80 80 18 00
        E 0 80 60 00
        E 80 90 18 60
        E 0 90 60 60
        E 80 80 18 00
        E 0 80 60 00
        E 80 90 1a 60
        E 0 90 26 60
        E 0 90 3d 60
        E 0 90 49 60
        E 0 90 4c 60
        E 0 90 55 60
        E 0 90 58 60
        E 0 90 61 60
        E 0 90 64 60
        E 0 90 78 60
        E 0 90 79 60
        E 0 90 7a 60
        E 0 90 7b 60
        E 0 90 7c 60
        E 80 80 1a 00
        E 0 80 26 00
        E 0 80 3d 00
        E 0 80 49 00
        E 0 80 4c 00
        E 0 80 55 00
        E 0 80 58 00
        E 0 80 61 00
        E 0 80 64 00
        E 160 90 2f 60
        E 0 90 56 60
        E 0 90 62 60
        E 0 90 6e 60
        E 80 80 2f 00
        E 0 80 56 00
        E 0 80 62 00
        E 0 80 6e 00
        E 0 90 2e 60
        E 0 90 62 60
        E 0 90 6e 60
        E 80 80 2e 00
        E 0 80 62 00
        E 0 80 6e 00
        E 80 90 18 60
        E 0 90 31 60
        E 0 90 3f 60
        E 0 90 4b 60
        E 0 90 54 60
        E 0 90 57 60
        E 0 90 60 60
        E 0 90 63 60
        E 0 90 6f 60
        E 80 80 18 00
        E 0 80 31 00
        E 0 80 3f 00
        E 0 80 4b 00
        E 0 80 54 00
        E 0 80 57 00
        E 0 80 60 00
        E 0 80 63 00
        E 0 80 6f 00
        E 80 90 2e 60
        E 0 90 62 60
        E 0 90 6e 60
        E 80 80 2e 00
        E 0 80 62 00
        E 0 80 6e 00
        E 0 90 2f 60
        E 0 90 56 60
        E 0 90 62 60
        E 0 90 6e 60
        E 80 80 2f 00
        E 0 80 56 00
        E 0 80 62 00
        E 0 80 6e 00
        E 0 90 30 60
        E 0 90 63 60
        E 0 90 6f 60
        E 80 80 30 00
        E 0 80 63 00
        E 0 80 6f 00
        E 0 90 31 60
        E 0 90 63 60
        E 0 90 6f 60
        E 80 80 78 00
        E 0 80 79 00
        E 0 80 7a 00
        E 0 80 7b 00
        E 0 80 7c 00
        E 0 80 31 00
        E 0 80 63 00
        E 0 80 6f 00
        E 0 90 18 60
        E 0 90 2c 60
        E 0 90 40 60
        E 0 90 48 60
        E 0 90 4c 60
        E 0 90 54 60
        E 0 90 58 60
        E 0 90 60 60
        E 0 90 64 60
        E 80 80 18 00
        E 0 80 2c 00
        E 0 80 40 00
        E 0 80 48 00
        E 0 80 4c 00
        E 0 80 54 00
        E 0 80 58 00
        E 0 80 60 00
        E 0 80 64 00
        E 80 90 18 60
        E 0 90 60 60
        E 80 80 18 00
        E 0 80 60 00
        E 80 90 18 60
        E 0 90 2a 60
        E 0 90 60 60
        E 0 90 63 60
        E 80 80 18 00
        E 0 80 2a 00
        E 0 80 60 00
        E 0 80 63 00
        E 80 90 1a 60
        E 0 90 26 60
        E 0 90 3d 60
        E 0 90 49 60
        E 0 90 4c 60
        E 0 90 55 60
        E 0 90 58 60
        E 0 90 61 60
        E 0 90 64 60
        E 80 80 1a 00
        E 0 80 26 00
        E 0 80 3d 00
        E 0 80 49 00
        E 0 80 4c 00
        E 0 80 55 00
        E 0 80 58 00
        E 0 80 61 00
        E 0 80 64 00
        E 80 90 18 60
        E 0 90 60 60
        E 80 80 18 00
        E 0 80 60 00
        E 80 90 18 60
        E 0 90 60 60
        E 80 80 18 00
        E 0 80 60 00
        E 80 90 1a 60
        E 0 90 26 60
        E 0 90 3d 60
        E 0 90 49 60
        E 0 90 4c 60
        E 0 90 55 60
        E 0 90 58 60
        E 0 90 61 60
        E 0 90 64 60
        E 80 80 1a 00
        E 0 80 26 00
        E 0 80 3d 00
        E 0 80 49 00
        E 0 80 4c 00
        E 0 80 55 00
        E 0 80 58 00
        E 0 80 61 00
        E 0 80 64 00
        E 80 90 18 60
        E 0 90 60 60
        E 80 80 18 00
        E 0 80 60 00
        E 80 90 1a 60
        E 0 90 26 60
        E 0 90 61 60
        E 0 90 64 60
        E 80 80 1a 00
        E 0 80 26 00
        E 0 80 61 00
        E 0 80 64 00
        E 80 90 18 60
        E 0 90 3c 60
        E 0 90 48 60
        E 0 90 54 60
        E 0 90 60 60
        E 80 80 18 00
        E 0 80 3c 00
        E 0 80 48 00
        E 0 80 54 00
        E 0 80 60 00
        E 80 90 1a 60
        E 0 90 26 60
        E 0 90 61 60
        E 0 90 64 60
        E 80 80 1a 00
        E 0 80 26 00
        E 0 80 61 00
        E 0 80 64 00
        E 80 90 1a 60
        E 0 90 61 60
        E 80 80 1a 00
        E 0 80 61 00
        E 80 90 18 60
        E 0 90 26 60
        E 0 90 40 60
        E 0 90 48 60
        E 0 90 4c 60
        E 0 90 54 60
        E 0 90 58 60
        E 0 90 60 60
        E 0 90 64 60
        E 80 80 18 00
        E 0 80 26 00
        E 0 80 40 00
        E 0 80 48 00
        E 0 80 4c 00
        E 0 80 54 00
        E 0 80 58 00
        E 0 80 60 00
        E 0 80 64 00
        E 80 90 18 60
        E 0 90 60 60
        E 80 80 18 00
        E 0 80 60 00
        E 80 90 18 60
        E 0 90 60 60
        E 80 80 18 00
        E 0 80 60 00
        E 80 90 1a 60
        E 0 90 26 60
        E 0 90 3d 60
        E 0 90 49 60
        E 0 90 4c 60
        E 0 90 55 60
        E 0 90 58 60
        E 0 90 61 60
        E 0 90 64 60
        E 80 80 1a 00
        E 0 80 26 00
        E 0 80 3d 00
        E 0 80 49 00
        E 0 80 4c 00
        E 0 80 55 00
        E 0 80 58 00
        E 0 80 61 00
        E 0 80 64 00
        E 80 90 18 60
        E 0 90 60 60
        E 80 80 18 00
        E 0 80 60 00
        E 80 90 18 60
        E 0 90 60 60
        E 80 80 18 00
        E 0 80 60 00
        E 80 90 1a 60
        E 0 90 26 60
        E 0 90 3d 60
        E 0 90 49 60
        E 0 90 4c 60
        E 0 90 55 60
        E 0 90 58 60
        E 0 90 61 60
        E 0 90 64 60
        E 80 80 1a 00
        E 0 80 26 00
        E 0 80 3d 00
        E 0 80 49 00
        E 0 80 4c 00
        E 0 80 55 00
        E 0 80 58 00
        E 0 80 61 00
        E 0 80 64 00
        E 80 90 18 60
        E 0 90 60 60
        E 80 80 18 00
        E 0 80 60 00
        E 80 90 18 60
        E 0 90 60 60
        E 80 80 18 00
        E 0 80 60 00
        E 80 90 1a 60
        E 0 90 26 60
        E 0 90 3d 60
        E 0 90 49 60
        E 0 90 4c 60
        E 0 90 55 60
        E 0 90 58 60
        E 0 90 61 60
        E 0 90 64 60
        E 80 80 1a 00
        E 0 80 26 00
        E 0 80 3d 00
        E 0 80 49 00
        E 0 80 4c 00
        E 0 80 55 00
        E 0 80 58 00
        E 0 80 61 00
        E 0 80 64 00
        E 80 90 18 60
        E 0 90 60 60
        E 80 80 18 00
        E 0 80 60 00
        E 80 90 18 60
        E 0 90 60 60
        E 80 80 18 00
        E 0 80 60 00
        E 80 90 1a 60
        E 0 90 26 60
        E 0 90 3d 60
        E 0 90 49 60
        E 0 90 4c 60
        E 0 90 55 60
        E 0 90 58 60
        E 0 90 61 60
        E 0 90 64 60
        E 0 90 78 60
        E 0 90 79 60
        E 0 90 7a 60
        E 0 90 7b 60
        E 0 90 7c 60
        E 80 80 1a 00
        E 0 80 26 00
        E 0 80 3d 00
        E 0 80 49 00
        E 0 80 4c 00
        E 0 80 55 00
        E 0 80 58 00
        E 0 80 61 00
        E 0 80 64 00
        E 160 90 1b 60
        E 0 90 55 60
        E 0 90 61 60
        E 80 80 1b 00
        E 0 80 55 00
        E 0 80 61 00
        E 0 90 1a 60
        E 0 90 61 60
        E 80 80 1a 00
        E 0 80 61 00
        E 0 90 1b 60
        E 0 90 61 60
        E 80 80 1b 00
        E 0 80 61 00
        E 0 90 1a 60
        E 0 90 3d 60
        E 0 90 49 60
        E 0 90 55 60
        E 0 90 61 60
        E 80 80 1a 00
        E 0 80 3d 00
        E 0 80 49 00
        E 0 80 55 00
        E 0 80 61 00
        E 0 90 1b 60
        E 0 90 61 60
        E 80 80 1b 00
        E 0 80 61 00
        E 0 90 2e 60
        E 0 90 62 60
        E 0 90 6e 60
        E 80 80 2e 00
        E 0 80 62 00
        E 0 80 6e 00
        E 0 90 2f 60
        E 0 90 56 60
        E 0 90 62 60
        E 0 90 6e 60
        E 80 80 2f 00
        E 0 80 56 00
        E 0 80 62 00
        E 0 80 6e 00
        E 0 90 2e 60
        E 0 90 62 60
        E 0 90 6e 60
        E 80 80 2e 00
        E 0 80 62 00
        E 0 80 6e 00
        E 0 90 2f 60
        E 0 90 62 60
        E 0 90 6e 60
        E 80 80 2f 00
        E 0 80 62 00
        E 0 80 6e 00
        E 0 90 1a 60
        E 0 90 3d 60
        E 0 90 49 60
        E 0 90 55 60
        E 0 90 61 60
        E 80 80 1a 00
        E 0 80 3d 00
        E 0 80 49 00
        E 0 80 55 00
        E 0 80 61 00
        E 0 90 1b 60
        E 0 90 61 60
        E 80 80 1b 00
        E 0 80 61 00
        E 0 90 2e 60
        E 0 90 62 60
        E 0 90 6e 60
        E 80 80 2e 00
        E 0 80 62 00
        E 0 80 6e 00
        E 0 90 2f 60
        E 0 90 56 60
        E 0 90 62 60
        E 0 90 6e 60
        E 80 80 2f 00
        E 0 80 56 00
        E 0 80 62 00
        E 0 80 6e 00
        E 0 90 2e 60
        E 0 90 62 60
        E 0 90 6e 60
        E 80 80 2e 00
        E 0 80 62 00
        E 0 80 6e 00
        E 0 90 2f 60
        E 0 90 62 60
        E 0 90 6e 60
        E 80 80 2f 00
        E 0 80 62 00
        E 0 80 6e 00
        E 0 90 1a 60
        E 0 90 3d 60
        E 0 90 49 60
        E 0 90 55 60
        E 0 90 61 60
        E 80 80 1a 00
        E 0 80 3d 00
        E 0 80 49 00
        E 0 80 55 00
        E 0 80 61 00
        E 0 90 1b 60
        E 0 90 61 60
        E 80 80 1b 00
        E 0 80 61 00
        E 0 90 30 60
        E 0 90 63 60
        E 0 90 6f 60
        E 80 80 30 00
        E 0 80 63 00
        E 0 80 6f 00
        E 0 90 31 60
        E 0 90 57 60
        E 0 90 63 60
        E 0 90 6f 60
        E 80 80 31 00
        E 0 80 57 00
        E 0 80 63 00
        E 0 80 6f 00
        E 0 90 30 60
        E 0 90 63 60
        E 0 90 6f 60
        E 80 80 30 00
        E 0 80 63 00
        E 0 80 6f 00
        E 0 90 31 60
        E 0 90 63 60
        E 0 90 6f 60
        E 80 80 78 00
        E 0 80 79 00
        E 0 80 7a 00
        E 0 80 7b 00
        E 0 80 7c 00
        E 0 80 31 00
        E 0 80 63 00
        E 0 80 6f 00
        E 0 90 18 60
        E 0 90 2c 60
        E 0 90 40 60
        E 0 90 48 60
        E 0 90 4c 60
        E 0 90 54 60
        E 0 90 58 60
        E 0 90 60 60
        E 0 90 64 60
        E 80 80 18 00
        E 0 80 2c 00
        E 0 80 40 00
        E 0 80 48 00
        E 0 80 4c 00
        E 0 80 54 00
        E 0 80 58 00
        E 0 80 60 00
        E 0 80 64 00
        E 80 90 1f 60
        E 0 90 62 60
        E 80 80 1f 00
        E 0 80 62 00
        E 80 90 18 60
        E 0 90 1e 60
        E 0 90 60 60
        E 0 90 62 60
        E 80 80 18 00
        E 0 80 1e 00
        E 0 80 60 00
        E 0 80 62 00
        E 0 90 18 60
        E 0 90 60 60
        E 80 80 18 00
        E 0 80 60 00
        E 0 90 1a 60
        E 0 90 1f 60
        E 0 90 3d 60
        E 0 90 49 60
        E 0 90 4a 60
        E 0 90 55 60
        E 0 90 56 60
        E 0 90 61 60
        E 0 90 62 60
        E 80 80 1a 00
        E 0 80 1f 00
        E 0 80 3d 00
        E 0 80 49 00
        E 0 80 4a 00
        E 0 80 55 00
        E 0 80 56 00
        E 0 80 61 00
        E 0 80 62 00
        E 80 90 1e 60
        E 0 90 62 60
        E 80 80 1e 00
        E 0 80 62 00
        E 80 90 18 60
        E 0 90 1f 60
        E 0 90 60 60
        E 0 90 62 60
        E 80 80 18 00
        E 0 80 1f 00
        E 0 80 60 00
        E 0 80 62 00
        E 80 90 18 60
        E 0 90 1e 60
        E 0 90 3e 60
        E 0 90 48 60
        E 0 90 4a 60
        E 0 90 54 60
        E 0 90 56 60
        E 0 90 60 60
        E 0 90 62 60
        E 80 80 18 00
        E 0 80 1e 00
        E 0 80 3e 00
        E 0 80 48 00
        E 0 80 4a 00
        E 0 80 54 00
        E 0 80 56 00
        E 0 80 60 00
        E 0 80 62 00
        E 80 90 1f 60
        E 0 90 62 60
        E 80 80 1f 00
        E 0 80 62 00
        E 80 90 18 60
        E 0 90 1e 60
        E 0 90 60 60
        E 0 90 62 60
        E 80 80 18 00
        E 0 80 1e 00
        E 0 80 60 00
        E 0 80 62 00
        E 0 90 18 60
        E 0 90 60 60
        E 80 80 18 00
        E 0 80 60 00
        E 0 90 1a 60
        E 0 90 1f 60
        E 0 90 3d 60
        E 0 90 49 60
        E 0 90 4a 60
        E 0 90 55 60
        E 0 90 56 60
        E 0 90 61 60
        E 0 90 62 60
        E 80 80 1a 00
        E 0 80 1f 00
        E 0 80 3d 00
        E 0 80 49 00
        E 0 80 4a 00
        E 0 80 55 00
        E 0 80 56 00
        E 0 80 61 00
        E 0 80 62 00
        E 80 90 1e 60
        E 0 90 62 60
        E 80 80 1e 00
        E 0 80 62 00
        E 80 90 18 60
        E 0 90 1f 60
        E 0 90 60 60
        E 0 90 62 60
        E 80 80 18 00
        E 0 80 1f 00
        E 0 80 60 00
        E 0 80 62 00
        E 80 90 18 60
        E 0 90 1e 60
        E 0 90 3e 60
        E 0 90 48 60
        E 0 90 4a 60
        E 0 90 54 60
        E 0 90 56 60
        E 0 90 60 60
        E 0 90 62 60
        E 80 80 18 00
        E 0 80 1e 00
        E 0 80 3e 00
        E 0 80 48 00
        E 0 80 4a 00
        E 0 80 54 00
        E 0 80 56 00
        E 0 80 60 00
        E 0 80 62 00
        E 80 90 18 60
        E 0 90 1f 60
        E 0 90 60 60
        E 0 90 62 60
        E 80 80 18 00
        E 0 80 1f 00
        E 0 80 60 00
        E 0 80 62 00
        E 80 90 18 60
        E 0 90 1e 60
        E 0 90 60 60
        E 0 90 62 60
        E 80 80 18 00
        E 0 80 1e 00
        E 0 80 60 00
        E 0 80 62 00
        E 0 90 18 60
        E 0 90 60 60
        E 80 80 18 00
        E 0 80 60 00
        E 0 90 1a 60
        E 0 90 1f 60
        E 0 90 3d 60
        E 0 90 49 60
        E 0 90 4a 60
        E 0 90 55 60
        E 0 90 56 60
        E 0 90 61 60
        E 0 90 62 60
        E 80 80 1a 00
        E 0 80 1f 00
        E 0 80 3d 00
        E 0 80 49 00
        E 0 80 4a 00
        E 0 80 55 00
        E 0 80 56 00
        E 0 80 61 00
        E 0 80 62 00
        E 80 90 1e 60
        E 0 90 62 60
        E 80 80 1e 00
        E 0 80 62 00
        E 80 90 18 60
        E 0 90 1f 60
        E 0 90 60 60
        E 0 90 62 60
        E 80 80 18 00
        E 0 80 1f 00
        E 0 80 60 00
        E 0 80 62 00
        E 80 90 18 60
        E 0 90 1e 60
        E 0 90 3e 60
        E 0 90 48 60
        E 0 90 4a 60
        E 0 90 54 60
        E 0 90 56 60
        E 0 90 60 60
        E 0 90 62 60
        E 80 80 18 00
        E 0 80 1e 00
        E 0 80 3e 00
        E 0 80 48 00
        E 0 80 4a 00
        E 0 80 54 00
        E 0 80 56 00
        E 0 80 60 00
        E 0 80 62 00
        E 0 90 1b 60
        E 0 90 61 60
        E 80 80 1b 00
        E 0 80 61 00
        E 0 90 18 60
        E 0 90 1e 60
        E 0 90 60 60
        E 0 90 62 60
        E 80 80 18 00
        E 0 80 1e 00
        E 0 80 60 00
        E 0 80 62 00
        E 80 90 18 60
        E 0 90 1f 60
        E 0 90 60 60
        E 0 90 62 60
        E 80 80 18 00
        E 0 80 1f 00
        E 0 80 60 00
        E 0 80 62 00
        E 80 90 1a 60
        E 0 90 1f 60
        E 0 90 3d 60
        E 0 90 49 60
        E 0 90 4a 60
        E 0 90 55 60
        E 0 90 56 60
        E 0 90 61 60
        E 0 90 62 60
        E 80 80 1a 00
        E 0 80 1f 00
        E 0 80 3d 00
        E 0 80 49 00
        E 0 80 4a 00
        E 0 80 55 00
        E 0 80 56 00
        E 0 80 61 00
        E 0 80 62 00
        E 80 90 18 60
        E 0 90 1e 60
        E 0 90 60 60
        E 0 90 62 60
        E 80 80 18 00
        E 0 80 1e 00
        E 0 80 60 00
        E 0 80 62 00
        E 0 90 1b 60
        E 0 90 55 60
        E 0 90 61 60
        E 80 80 1b 00
        E 0 80 55 00
        E 0 80 61 00
        E 0 90 1a 60
        E 0 90 61 60
        E 80 80 1a 00
        E 0 80 61 00
        E 0 90 1b 60
        E 0 90 61 60
        E 80 80 1b 00
        E 0 80 61 00
        E 0 90 18 60
        E 0 90 2c 60
        E 0 90 40 60
        E 0 90 48 60
        E 0 90 4c 60
        E 0 90 54 60
        E 0 90 58 60
        E 0 90 60 60
        E 0 90 64 60
        E 80 80 18 00
        E 0 80 2c 00
        E 0 80 40 00
        E 0 80 48 00
        E 0 80 4c 00
        E 0 80 54 00
        E 0 80 58 00
        E 0 80 60 00
        E 0 80 64 00
        E 80 90 18 60
        E 0 90 1f 60
        E 0 90 60 60
        E 0 90 62 60
        E 80 80 18 00
        E 0 80 1f 00
        E 0 80 60 00
        E 0 80 62 00
        E 80 90 18 60
        E 0 90 1e 60
        E 0 90 60 60
        E 0 90 62 60
        E 80 80 18 00
        E 0 80 1e 00
        E 0 80 60 00
        E 0 80 62 00
        E 0 90 18 60
        E 0 90 60 60
        E 80 80 18 00
        E 0 80 60 00
        E 0 90 1a 60
        E 0 90 1f 60
        E 0 90 3d 60
        E 0 90 49 60
        E 0 90 4a 60
        E 0 90 55 60
        E 0 90 56 60
        E 0 90 61 60
        E 0 90 62 60
        E 80 80 1a 00
        E 0 80 1f 00
        E 0 80 3d 00
        E 0 80 49 00
        E 0 80 4a 00
        E 0 80 55 00
        E 0 80 56 00
        E 0 80 61 00
        E 0 80 62 00
        E 80 90 1e 60
        E 0 90 62 60
        E 80 80 1e 00
        E 0 80 62 00
        E 80 90 18 60
        E 0 90 1f 60
        E 0 90 60 60
        E 0 90 62 60
        E 80 80 18 00
        E 0 80 1f 00
        E 0 80 60 00
        E 0 80 62 00
        E 80 90 18 60
        E 0 90 1e 60
        E 0 90 3e 60
        E 0 90 48 60
        E 0 90 4a 60
        E 0 90 54 60
        E 0 90 56 60
        E 0 90 60 60
        E 0 90 62 60
        E 80 80 18 00
        E 0 80 1e 00
        E 0 80 3e 00
        E 0 80 48 00
        E 0 80 4a 00
        E 0 80 54 00
        E 0 80 56 00
        E 0 80 60 00
        E 0 80 62 00
        E 80 90 18 60
        E 0 90 1f 60
        E 0 90 60 60
        E 0 90 62 60
        E 80 80 18 00
        E 0 80 1f 00
        E 0 80 60 00
        E 0 80 62 00
        E 80 90 1e 60
        E 0 90 62 60
        E 80 80 1e 00
        E 0 80 62 00
        E 0 90 18 60
        E 0 90 60 60
        E 80 80 18 00
        E 0 80 60 00
        E 0 90 1a 60
        E 0 90 1f 60
        E 0 90 3d 60
        E 0 90 49 60
        E 0 90 4a 60
        E 0 90 55 60
        E 0 90 56 60
        E 0 90 61 60
        E 0 90 62 60
        E 80 80 1a 00
        E 0 80 1f 00
        E 0 80 3d 00
        E 0 80 49 00
        E 0 80 4a 00
        E 0 80 55 00
        E 0 80 56 00
        E 0 80 61 00
        E 0 80 62 00
        E 80 90 1e 60
        E 0 90 62 60
        E 80 80 1e 00
        E 0 80 62 00
        E 80 90 18 60
        E 0 90 1f 60
        E 0 90 60 60
        E 0 90 62 60
        E 80 80 18 00
        E 0 80 1f 00
        E 0 80 60 00
        E 0 80 62 00
        E 80 90 1e 60
        E 0 90 3e 60
        E 0 90 4a 60
        E 0 90 56 60
        E 0 90 62 60
        E 80 80 1e 00
        E 0 80 3e 00
        E 0 80 4a 00
        E 0 80 56 00
        E 0 80 62 00
        E 80 90 1b 60
        E 0 90 61 60
        E 80 80 1b 00
        E 0 80 61 00
        E 0 90 1a 60
        E 0 90 55 60
        E 0 90 61 60
        E 80 80 1a 00
        E 0 80 55 00
        E 0 80 61 00
        E 0 90 1b 60
        E 0 90 61 60
        E 80 80 1b 00
        E 0 80 61 00
        E 80 90 18 60
        E 0 90 3c 60
        E 0 90 48 60
        E 0 90 54 60
        E 0 90 60 60
        E 80 80 18 00
        E 0 80 3c 00
        E 0 80 48 00
        E 0 80 54 00
        E 0 80 60 00
        E 80 90 1a 60
        E 0 90 1b 60
        E 0 90 61 60
        E 0 90 62 60
        E 0 90 6e 60
        E 80 80 1a 00
        E 0 80 1b 00
        E 0 80 61 00
        E 0 80 62 00
        E 0 80 6e 00
        E 80 90 18 60
        E 0 90 60 60
        E 80 80 18 00
        E 0 80 60 00
        E 80 90 1a 60
        E 0 90 1b 60
        E 0 90 3d 60
        E 0 90 49 60
        E 0 90 4a 60
        E 0 90 55 60
        E 0 90 56 60
        E 0 90 61 60
        E 0 90 62 60
        E 0 90 6e 60
        E 80 80 1a 00
        E 0 80 1b 00
        E 0 80 3d 00
        E 0 80 49 00
        E 0 80 4a 00
        E 0 80 55 00
        E 0 80 56 00
        E 0 80 61 00
        E 0 80 62 00
        E 0 80 6e 00
        E 80 90 1a 60
        E 0 90 61 60
        E 80 80 1a 00
        E 0 80 61 00
        E 0 90 1b 60
        E 0 90 55 60
        E 0 90 61 60
        E 80 80 1b 00
        E 0 80 55 00
        E 0 80 61 00
        E 0 90 1a 60
        E 0 90 61 60
        E 80 80 1a 00
        E 0 80 61 00
        E 80 90 18 60
        E 0 90 1f 60
        E 0 90 3e 60
        E 0 90 48 60
        E 0 90 4a 60
        E 0 90 54 60
        E 0 90 56 60
        E 0 90 60 60
        E 0 90 62 60
        E 80 80 18 00
        E 0 80 1f 00
        E 0 80 3e 00
        E 0 80 48 00
        E 0 80 4a 00
        E 0 80 54 00
        E 0 80 56 00
        E 0 80 60 00
        E 0 80 62 00
        E 80 90 1a 60
        E 0 90 61 60
        E 80 80 1a 00
        E 0 80 61 00
        E 80 90 18 60
        E 0 90 2a 60
        E 0 90 60 60
        E 0 90 63 60
        E 80 80 18 00
        E 0 80 2a 00
        E 0 80 60 00
        E 0 80 63 00
        E 80 90 18 60
        E 0 90 2c 60
        E 0 90 40 60
        E 0 90 48 60
        E 0 90 4c 60
        E 0 90 54 60
        E 0 90 58 60
        E 0 90 60 60
        E 0 90 64 60
        E 80 80 18 00
        E 0 80 2c 00
        E 0 80 40 00
        E 0 80 48 00
        E 0 80 4c 00
        E 0 80 54 00
        E 0 80 58 00
        E 0 80 60 00
        E 0 80 64 00
        E 80 90 1f 60
        E 0 90 62 60
        E 80 80 1f 00
        E 0 80 62 00
        E 80 90 18 60
        E 0 90 1e 60
        E 0 90 60 60
        E 0 90 62 60
        E 80 80 18 00
        E 0 80 1e 00
        E 0 80 60 00
        E 0 80 62 00
        E 80 90 1a 60
        E 0 90 1f 60
        E 0 90 3d 60
        E 0 90 49 60
        E 0 90 4a 60
        E 0 90 55 60
        E 0 90 56 60
        E 0 90 61 60
        E 0 90 62 60
        E 80 80 1a 00
        E 0 80 1f 00
        E 0 80 3d 00
        E 0 80 49 00
        E 0 80 4a 00
        E 0 80 55 00
        E 0 80 56 00
        E 0 80 61 00
        E 0 80 62 00
        E 80 90 1e 60
        E 0 90 62 60
        E 80 80 1e 00
        E 0 80 62 00
        E 80 90 18 60
        E 0 90 1f 60
        E 0 90 60 60
        E 0 90 62 60
        E 80 80 18 00
        E 0 80 1f 00
        E 0 80 60 00
        E 0 80 62 00
        E 80 90 18 60
        E 0 90 1e 60
        E 0 90 3e 60
        E 0 90 48 60
        E 0 90 4a 60
        E 0 90 54 60
        E 0 90 56 60
        E 0 90 60 60
        E 0 90 62 60
        E 80 80 18 00
        E 0 80 1e 00
        E 0 80 3e 00
        E 0 80 48 00
        E 0 80 4a 00
        E 0 80 54 00
        E 0 80 56 00
        E 0 80 60 00
        E 0 80 62 00
        E 80 90 18 60
        E 0 90 1f 60
        E 0 90 60 60
        E 0 90 62 60
        E 80 80 18 00
        E 0 80 1f 00
        E 0 80 60 00
        E 0 80 62 00
        E 80 90 18 60
        E 0 90 1e 60
        E 0 90 60 60
        E 0 90 62 60
        E 80 80 18 00
        E 0 80 1e 00
        E 0 80 60 00
        E 0 80 62 00
        E 0 90 18 60
        E 0 90 60 60
        E 80 80 18 00
        E 0 80 60 00
        E 0 90 1a 60
        E 0 90 1f 60
        E 0 90 3d 60
        E 0 90 49 60
        E 0 90 4a 60
        E 0 90 55 60
        E 0 90 56 60
        E 0 90 61 60
        E 0 90 62 60
        E 80 80 1a 00
        E 0 80 1f 00
        E 0 80 3d 00
        E 0 80 49 00
        E 0 80 4a 00
        E 0 80 55 00
        E 0 80 56 00
        E 0 80 61 00
        E 0 80 62 00
        E 80 90 1e 60
        E 0 90 62 60
        E 80 80 1e 00
        E 0 80 62 00
        E 80 90 18 60
        E 0 90 1f 60
        E 0 90 60 60
        E 0 90 62 60
        E 80 80 18 00
        E 0 80 1f 00
        E 0 80 60 00
        E 0 80 62 00
        E 80 90 18 60
        E 0 90 1e 60
        E 0 90 3e 60
        E 0 90 48 60
        E 0 90 4a 60
        E 0 90 54 60
        E 0 90 56 60
        E 0 90 60 60
        E 0 90 62 60
        E 80 80 18 00
        E 0 80 1e 00
        E 0 80 3e 00
        E 0 80 48 00
        E 0 80 4a 00
        E 0 80 54 00
        E 0 80 56 00
        E 0 80 60 00
        E 0 80 62 00
        E 80 90 18 60
        E 0 90 1f 60
        E 0 90 60 60
        E 0 90 62 60
        E 80 80 18 00
        E 0 80 1f 00
        E 0 80 60 00
        E 0 80 62 00
        E 80 90 18 60
        E 0 90 1e 60
        E 0 90 60 60
        E 0 90 62 60
        E 80 80 18 00
        E 0 80 1e 00
        E 0 80 60 00
        E 0 80 62 00
        E 0 90 18 60
        E 0 90 60 60
        E 80 80 18 00
        E 0 80 60 00
        E 0 90 1a 60
        E 0 90 1f 60
        E 0 90 3d 60
        E 0 90 49 60
        E 0 90 4a 60
        E 0 90 55 60
        E 0 90 56 60
        E 0 90 61 60
        E 0 90 62 60
        E 80 80 1a 00
        E 0 80 1f 00
        E 0 80 3d 00
        E 0 80 49 00
        E 0 80 4a 00
        E 0 80 55 00
        E 0 80 56 00
        E 0 80 61 00
        E 0 80 62 00
        E 80 90 1e 60
        E 0 90 62 60
        E 80 80 1e 00
        E 0 80 62 00
        E 80 90 18 60
        E 0 90 1f 60
        E 0 90 60 60
        E 0 90 62 60
        E 80 80 18 00
        E 0 80 1f 00
        E 0 80 60 00
        E 0 80 62 00
        E 80 90 18 60
        E 0 90 1e 60
        E 0 90 3e 60
        E 0 90 48 60
        E 0 90 4a 60
        E 0 90 54 60
        E 0 90 56 60
        E 0 90 60 60
        E 0 90 62 60
        E 80 80 18 00
        E 0 80 1e 00
        E 0 80 3e 00
        E 0 80 48 00
        E 0 80 4a 00
        E 0 80 54 00
        E 0 80 56 00
        E 0 80 60 00
        E 0 80 62 00
        E 80 90 1b 60
        E 0 90 61 60
        E 80 80 1b 00
        E 0 80 61 00
        E 0 90 1a 60
        E 0 90 55 60
        E 0 90 61 60
        E 80 80 1a 00
        E 0 80 55 00
        E 0 80 61 00
        E 0 90 1b 60
        E 0 90 61 60
        E 80 80 1b 00
        E 0 80 61 00
        E 0 90 1a 60
        E 0 90 61 60
        E 80 80 1a 00
        E 0 80 61 00
        E 0 90 2f 60
        E 0 90 3e 60
        E 0 90 4a 60
        E 0 90 56 60
        E 0 90 62 60
        E 0 90 6e 60
        E 80 80 2f 00
        E 0 80 3e 00
        E 0 80 4a 00
        E 0 80 56 00
        E 0 80 62 00
        E 0 80 6e 00
        E 0 90 2e 60
        E 0 90 62 60
        E 0 90 6e 60
        E 80 80 2e 00
        E 0 80 62 00
        E 0 80 6e 00
        E 0 90 2f 60
        E 0 90 62 60
        E 0 90 6e 60
        E 80 80 2f 00
        E 0 80 62 00
        E 0 80 6e 00
        E 0 90 2e 60
        E 0 90 56 60
        E 0 90 62 60
        E 0 90 6e 60
        E 80 80 2e 00
        E 0 80 56 00
        E 0 80 62 00
        E 0 80 6e 00
        E 0 90 31 60
        E 0 90 63 60
        E 0 90 6f 60
        E 80 80 31 00
        E 0 80 63 00
        E 0 80 6f 00
        E 0 90 30 60
        E 0 90 63 60
        E 0 90 6f 60
        E 80 80 30 00
        E 0 80 63 00
        E 0 80 6f 00
        E 0 90 18 60
        E 0 90 26 60
        E 0 90 40 60
        E 0 90 48 60
        E 0 90 4c 60
        E 0 90 54 60
        E 0 90 58 60
        E 0 90 60 60
        E 0 90 64 60
        E 80 80 18 00
        E 0 80 26 00
        E 0 80 40 00
        E 0 80 48 00
        E 0 80 4c 00
        E 0 80 54 00
        E 0 80 58 00
        E 0 80 60 00
        E 0 80 64 00
        E 80 90 1e 60
        E 0 90 62 60
        E 80 80 1e 00
        E 0 80 62 00
        E 80 90 18 60
        E 0 90 1f 60
        E 0 90 60 60
        E 0 90 62 60
        E 80 80 18 00
        E 0 80 1f 00
        E 0 80 60 00
        E 0 80 62 00
        E 80 90 1a 60
        E 0 90 1f 60
        E 0 90 3d 60
        E 0 90 49 60
        E 0 90 4a 60
        E 0 90 55 60
        E 0 90 56 60
        E 0 90 61 60
        E 0 90 62 60
        E 80 80 1a 00
        E 0 80 1f 00
        E 0 80 3d 00
        E 0 80 49 00
        E 0 80 4a 00
        E 0 80 55 00
        E 0 80 56 00
        E 0 80 61 00
        E 0 80 62 00
        E 80 90 1e 60
        E 0 90 62 60
        E 80 80 1e 00
        E 0 80 62 00
        E 80 90 18 60
        E 0 90 1f 60
        E 0 90 60 60
        E 0 90 62 60
        E 80 80 18 00
        E 0 80 1f 00
        E 0 80 60 00
        E 0 80 62 00
        E 80 90 18 60
        E 0 90 1f 60
        E 0 90 3e 60
        E 0 90 48 60
        E 0 90 4a 60
        E 0 90 54 60
        E 0 90 56 60
        E 0 90 60 60
        E 0 90 62 60
        E 80 80 18 00
        E 0 80 1f 00
        E 0 80 3e 00
        E 0 80 48 00
        E 0 80 4a 00
        E 0 80 54 00
        E 0 80 56 00
        E 0 80 60 00
        E 0 80 62 00
        E 240 90 18 60
        E 0 90 1f 60
        E 0 90 60 60
        E 0 90 62 60
        E 80 80 18 00
        E 0 80 1f 00
        E 0 80 60 00
        E 0 80 62 00
        E 80 90 1a 60
        E 0 90 1f 60
        E 0 90 3d 60
        E 0 90 49 60
        E 0 90 4a 60
        E 0 90 55 60
        E 0 90 56 60
        E 0 90 61 60
        E 0 90 62 60
        E 80 80 1a 00
        E 0 80 1f 00
        E 0 80 3d 00
        E 0 80 49 00
        E 0 80 4a 00
        E 0 80 55 00
        E 0 80 56 00
        E 0 80 61 00
        E 0 80 62 00
        E 240 90 18 60
        E 0 90 1f 60
        E 0 90 60 60
        E 0 90 62 60
        E 80 80 18 00
        E 0 80 1f 00
        E 0 80 60 00
        E 0 80 62 00
        E 80 90 1a 60
        E 0 90 1f 60
        E 0 90 3d 60
        E 0 90 49 60
        E 0 90 4a 60
        E 0 90 55 60
        E 0 90 56 60
        E 0 90 61 60
        E 0 90 62 60
        E 80 80 1a 00
        E 0 80 1f 00
        E 0 80 3d 00
        E 0 80 49 00
        E 0 80 4a 00
        E 0 80 55 00
        E 0 80 56 00
        E 0 80 61 00
        E 0 80 62 00
        E 80 90 62 60
        E 80 80 62 00
        E 80 90 18 60
        E 0 90 60 60
        E 0 90 62 60
        E 80 80 18 00
        E 0 80 60 00
        E 0 80 62 00
        E 80 90 1a 60
        E 0 90 1b 60
        E 0 90 3d 60
        E 0 90 49 60
        E 0 90 4a 60
        E 0 90 55 60
        E 0 90 56 60
        E 0 90 61 60
        E 0 90 62 60
        E 0 90 6e 60
        E 80 80 1a 00
        E 0 80 1b 00
        E 0 80 3d 00
        E 0 80 49 00
        E 0 80 4a 00
        E 0 80 55 00
        E 0 80 56 00
        E 0 80 61 00
        E 0 80 62 00
        E 0 80 6e 00
        E 80 90 18 60
        E 0 90 60 60
        E 80 80 18 00
        E 0 80 60 00
        E 80 90 1a 60
        E 0 90 1b 60
        E 0 90 61 60
        E 0 90 62 60
        E 0 90 6e 60
        E 80 80 1a 00
        E 0 80 1b 00
        E 0 80 61 00
        E 0 80 62 00
        E 0 80 6e 00
        E 80 90 18 60
        E 0 90 3c 60
        E 0 90 48 60
        E 0 90 54 60
        E 0 90 60 60
        E 80 80 18 00
        E 0 80 3c 00
        E 0 80 48 00
        E 0 80 54 00
        E 0 80 60 00
        E 80 90 1a 60
        E 0 90 1b 60
        E 0 90 61 60
        E 0 90 62 60
        E 0 90 6e 60
        E 80 80 1a 00
        E 0 80 1b 00
        E 0 80 61 00
        E 0 80 62 00
        E 0 80 6e 00
        E 240 90 1b 60
        E 0 90 3d 60
        E 0 90 49 60
        E 0 90 55 60
        E 0 90 61 60
        E 80 80 1b 00
        E 0 80 3d 00
        E 0 80 49 00
        E 0 80 55 00
        E 0 80 61 00
        E 80 90 1a 60
        E 0 90 61 60
        E 80 80 1a 00
        E 0 80 61 00
        E 80 90 1b 60
        E 0 90 61 60
        E 80 80 1b 00
        E 0 80 61 00
        E 80 90 18 60
        E 0 90 2c 60
        E 0 90 40 60
        E 0 90 48 60
        E 0 90 4c 60
        E 0 90 54 60
        E 0 90 58 60
        E 0 90 60 60
        E 0 90 64 60
        E 0 90 74 60
        E 80 80 18 00
        E 0 80 2c 00
        E 0 80 40 00
        E 0 80 48 00
        E 0 80 4c 00
        E 0 80 54 00
        E 0 80 58 00
        E 0 80 60 00
        E 0 80 64 00
        E 400 90 18 60
        E 0 90 26 60
        E 0 90 40 60
        E 0 90 48 60
        E 0 90 4c 60
        E 0 90 54 60
        E 0 90 58 60
        E 0 90 60 60
        E 0 90 64 60
        E 80 80 18 00
        E 0 80 26 00
        E 0 80 40 00
        E 0 80 48 00
        E 0 80 4c 00
        E 0 80 54 00
        E 0 80 58 00
        E 0 80 60 00
        E 0 80 64 00
        E 240 90 18 60
        E 0 90 60 60
        E 80 80 18 00
        E 0 80 60 00
        E 0 90 18 60
        E 0 90 60 60
        E 80 80 18 00
        E 0 80 60 00
        E 0 90 1a 60
        E 0 90 2a 60
        E 0 90 3d 60
        E 0 90 49 60
        E 0 90 4b 60
        E 0 90 55 60
        E 0 90 57 60
        E 0 90 61 60
        E 0 90 63 60
        E 80 80 1a 00
        E 0 80 2a 00
        E 0 80 3d 00
        E 0 80 49 00
        E 0 80 4b 00
        E 0 80 55 00
        E 0 80 57 00
        E 0 80 61 00
        E 0 80 63 00
        E 80 90 18 60
        E 0 90 26 60
        E 0 90 60 60
        E 0 90 64 60
        E 80 80 18 00
        E 0 80 26 00
        E 0 80 60 00
        E 0 80 64 00
        E 240 90 18 60
        E 0 90 22 60
        E 0 90 26 60
        E 0 90 3e 60
        E 0 90 40 60
        E 0 90 48 60
        E 0 90 4a 60
        E 0 90 4c 60
        E 0 90 54 60
        E 0 90 56 60
        E 0 90 58 60
        E 0 90 60 60
        E 0 90 62 60
        E 0 90 64 60
        E 80 80 18 00
        E 0 80 22 00
        E 0 80 26 00
        E 0 80 3e 00
        E 0 80 40 00
        E 0 80 48 00
        E 0 80 4a 00
        E 0 80 4c 00
        E 0 80 54 00
        E 0 80 56 00
        E 0 80 58 00
        E 0 80 60 00
        E 0 80 62 00
        E 0 80 64 00
        E 240 90 18 60
        E 0 90 60 60
        E 80 80 18 00
        E 0 80 60 00
        E 80 90 18 60
        E 0 90 1f 60
        E 0 90 3e 60
        E 0 90 48 60
        E 0 90 4a 60
        E 0 90 54 60
        E 0 90 56 60
        E 0 90 60 60
        E 0 90 62 60
        E 80 80 18 00
        E 0 80 1f 00
        E 0 80 3e 00
        E 0 80 48 00
        E 0 80 4a 00
        E 0 80 54 00
        E 0 80 56 00
        E 0 80 60 00
        E 0 80 62 00
        E 400 90 18 60
        E 0 90 2a 60
        E 0 90 3f 60
        E 0 90 48 60
        E 0 90 4b 60
        E 0 90 54 60
        E 0 90 57 60
        E 0 90 60 60
        E 0 90 63 60
        E 80 80 18 00
        E 0 80 2a 00
        E 0 80 3f 00
        E 0 80 48 00
        E 0 80 4b 00
        E 0 80 54 00
        E 0 80 57 00
        E 0 80 60 00
        E 0 80 63 00
        E 240 90 18 60
        E 0 90 60 60
        E 80 80 18 00
        E 0 80 60 00
        E 0 90 18 60
        E 0 90 60 60
        E 80 80 18 00
        E 0 80 60 00
        E 0 90 1a 60
        E 0 90 2a 60
        E 0 90 3d 60
        E 0 90 49 60
        E 0 90 4b 60
        E 0 90 55 60
        E 0 90 57 60
        E 0 90 61 60
        E 0 90 63 60
        E 80 80 1a 00
        E 0 80 2a 00
        E 0 80 3d 00
        E 0 80 49 00
        E 0 80 4b 00
        E 0 80 55 00
        E 0 80 57 00
        E 0 80 61 00
        E 0 80 63 00
        E 80 90 2e 60
        E 0 90 62 60
        E 0 90 6e 60
        E 80 80 2e 00
        E 0 80 62 00
        E 0 80 6e 00
        E 0 90 2f 60
        E 0 90 56 60
        E 0 90 62 60
        E 0 90 6e 60
        E 80 80 2f 00
        E 0 80 56 00
        E 0 80 62 00
        E 0 80 6e 00
        E 0 90 2e 60
        E 0 90 62 60
        E 0 90 6e 60
        E 80 80 2e 00
        E 0 80 62 00
        E 0 80 6e 00
        E 0 90 2f 60
        E 0 90 62 60
        E 0 90 6e 60
        E 80 80 2f 00
        E 0 80 62 00
        E 0 80 6e 00
        E 0 90 2e 60
        E 0 90 3e 60
        E 0 90 4a 60
        E 0 90 56 60
        E 0 90 62 60
        E 0 90 6e 60
        E 80 80 2e 00
        E 0 80 3e 00
        E 0 80 4a 00
        E 0 80 56 00
        E 0 80 62 00
        E 0 80 6e 00
        E 80 90 31 60
        E 0 90 63 60
        E 0 90 6f 60
        E 80 80 31 00
        E 0 80 63 00
        E 0 80 6f 00
        E 0 90 30 60
        E 0 90 57 60
        E 0 90 63 60
        E 0 90 6f 60
        E 80 80 30 00
        E 0 80 57 00
        E 0 80 63 00
        E 0 80 6f 00
        E 0 90 31 60
        E 0 90 63 60
        E 0 90 6f 60
        E 80 80 31 00
        E 0 80 63 00
        E 0 80 6f 00
        E 0 90 30 60
        E 0 90 63 60
        E 0 90 6f 60
        E 80 80 74 00
        E 0 80 30 00
        E 0 80 63 00
        E 0 80 6f 00
        E 0 90 18 60
        E 0 90 2a 60
        E 0 90 3f 60
        E 0 90 48 60
        E 0 90 4b 60
        E 0 90 54 60
        E 0 90 57 60
        E 0 90 60 60
        E 0 90 63 60
        E 80 80 18 00
        E 0 80 2a 00
        E 0 80 3f 00
        E 0 80 48 00
        E 0 80 4b 00
        E 0 80 54 00
        E 0 80 57 00
        E 0 80 60 00
        E 0 80 63 00
        E 240 90 18 60
        E 0 90 60 60
        E 80 80 18 00
        E 0 80 60 00
        E 80 90 2a 60
        E 0 90 3f 60
        E 0 90 4b 60
        E 0 90 57 60
        E 0 90 63 60
        E 80 80 2a 00
        E 0 80 3f 00
        E 0 80 4b 00
        E 0 80 57 00
        E 0 80 63 00
        E 80 90 18 60
        E 0 90 60 60
        E 80 80 18 00
        E 0 80 60 00
        E 80 90 18 60
        E 0 90 60 60
        E 80 80 18 00
        E 0 80 60 00
        E 80 90 1a 60
        E 0 90 2a 60
        E 0 90 3d 60
        E 0 90 49 60
        E 0 90 4b 60
        E 0 90 55 60
        E 0 90 57 60
        E 0 90 61 60
        E 0 90 63 60
        E 80 80 1a 00
        E 0 80 2a 00
        E 0 80 3d 00
        E 0 80 49 00
        E 0 80 4b 00
        E 0 80 55 00
        E 0 80 57 00
        E 0 80 61 00
        E 0 80 63 00
        E 80 90 18 60
        E 0 90 60 60
        E 80 80 18 00
        E 0 80 60 00
        E 80 90 18 60
        E 0 90 60 60
        E 80 80 18 00
        E 0 80 60 00
        E 80 90 18 60
        E 0 90 26 60
        E 0 90 40 60
        E 0 90 48 60
        E 0 90 4c 60
        E 0 90 54 60
        E 0 90 58 60
        E 0 90 60 60
        E 0 90 64 60
        E 80 80 18 00
        E 0 80 26 00
        E 0 80 40 00
        E 0 80 48 00
        E 0 80 4c 00
        E 0 80 54 00
        E 0 80 58 00
        E 0 80 60 00
        E 0 80 64 00
        E 240 90 18 60
        E 0 90 60 60
        E 80 80 18 00
        E 0 80 60 00
        E 80 90 18 60
        E 0 90 2a 60
        E 0 90 3f 60
        E 0 90 48 60
        E 0 90 4b 60
        E 0 90 54 60
        E 0 90 57 60
        E 0 90 60 60
        E 0 90 63 60
        E 80 80 18 00
        E 0 80 2a 00
        E 0 80 3f 00
        E 0 80 48 00
        E 0 80 4b 00
        E 0 80 54 00
        E 0 80 57 00
        E 0 80 60 00
        E 0 80 63 00
        E 400 90 18 60
        E 0 90 2a 60
        E 0 90 3f 60
        E 0 90 48 60
        E 0 90 4b 60
        E 0 90 54 60
        E 0 90 57 60
        E 0 90 60 60
        E 0 90 63 60
        E 80 80 18 00
        E 0 80 2a 00
        E 0 80 3f 00
        E 0 80 48 00
        E 0 80 4b 00
        E 0 80 54 00
        E 0 80 57 00
        E 0 80 60 00
        E 0 80 63 00
        E 240 90 18 60
        E 0 90 60 60
        E 80 80 18 00
        E 0 80 60 00
        E 0 90 18 60
        E 0 90 60 60
        E 80 80 18 00
        E 0 80 60 00
        E 0 90 1a 60
        E 0 90 26 60
        E 0 90 3d 60
        E 0 90 49 60
        E 0 90 4c 60
        E 0 90 55 60
        E 0 90 58 60
        E 0 90 61 60
        E 0 90 64 60
        E 0 90 78 60
        E 0 90 79 60
        E 0 90 7a 60
        E 0 90 7b 60
        E 0 90 7c 60
        E 80 80 1a 00
        E 0 80 26 00
        E 0 80 3d 00
        E 0 80 49 00
        E 0 80 4c 00
        E 0 80 55 00
        E 0 80 58 00
        E 0 80 61 00
        E 0 80 64 00
        E 160 90 2f 60
        E 0 90 56 60
        E 0 90 62 60
        E 0 90 6e 60
        E 80 80 2f 00
        E 0 80 56 00
        E 0 80 62 00
        E 0 80 6e 00
        E 0 90 2e 60
        E 0 90 62 60
        E 0 90 6e 60
        E 80 80 2e 00
        E 0 80 62 00
        E 0 80 6e 00
        E 80 90 18 60
        E 0 90 2f 60
        E 0 90 3e 60
        E 0 90 4a 60
        E 0 90 54 60
        E 0 90 56 60
        E 0 90 60 60
        E 0 90 62 60
        E 0 90 6e 60
        E 80 80 18 00
        E 0 80 2f 00
        E 0 80 3e 00
        E 0 80 4a 00
        E 0 80 54 00
        E 0 80 56 00
        E 0 80 60 00
        E 0 80 62 00
        E 0 80 6e 00
        E 80 90 30 60
        E 0 90 63 60
        E 0 90 6f 60
        E 80 80 30 00
        E 0 80 63 00
        E 0 80 6f 00
        E 0 90 31 60
        E 0 90 57 60
        E 0 90 63 60
        E 0 90 6f 60
        E 80 80 31 00
        E 0 80 57 00
        E 0 80 63 00
        E 0 80 6f 00
        E 0 90 30 60
        E 0 90 63 60
        E 0 90 6f 60
        E 80 80 30 00
        E 0 80 63 00
        E 0 80 6f 00
        E 80 80 78 00
        E 0 80 79 00
        E 0 80 7a 00
        E 0 80 7b 00
        E 0 80 7c 00
        E 0 90 18 60
        E 0 90 2a 60
        E 0 90 3f 60
        E 0 90 48 60
        E 0 90 4b 60
        E 0 90 54 60
        E 0 90 57 60
        E 0 90 60 60
        E 0 90 63 60
        E 80 80 18 00
        E 0 80 2a 00
        E 0 80 3f 00
        E 0 80 48 00
        E 0 80 4b 00
        E 0 80 54 00
        E 0 80 57 00
        E 0 80 60 00
        E 0 80 63 00
        E 400 90 18 60
        E 0 90 2a 60
        E 0 90 3f 60
        E 0 90 48 60
        E 0 90 4b 60
        E 0 90 54 60
        E 0 90 57 60
        E 0 90 60 60
        E 0 90 63 60
        E 80 80 18 00
        E 0 80 2a 00
        E 0 80 3f 00
        E 0 80 48 00
        E 0 80 4b 00
        E 0 80 54 00
        E 0 80 57 00
        E 0 80 60 00
        E 0 80 63 00
        E 240 90 18 60
        E 0 90 60 60
        E 80 80 18 00
        E 0 80 60 00
        E 0 90 18 60
        E 0 90 60 60
        E 80 80 18 00
        E 0 80 60 00
        E 0 90 1a 60
        E 0 90 2a 60
        E 0 90 3d 60
        E 0 90 49 60
        E 0 90 4b 60
        E 0 90 55 60
        E 0 90 57 60
        E 0 90 61 60
        E 0 90 63 60
        E 80 80 1a 00
        E 0 80 2a 00
        E 0 80 3d 00
        E 0 80 49 00
        E 0 80 4b 00
        E 0 80 55 00
        E 0 80 57 00
        E 0 80 61 00
        E 0 80 63 00
        E 80 90 18 60
        E 0 90 60 60
        E 80 80 18 00
        E 0 80 60 00
        E 240 90 18 60
        E 0 90 26 60
        E 0 90 40 60
        E 0 90 48 60
        E 0 90 4c 60
        E 0 90 54 60
        E 0 90 58 60
        E 0 90 60 60
        E 0 90 64 60
        E 80 80 18 00
        E 0 80 26 00
        E 0 80 40 00
        E 0 80 48 00
        E 0 80 4c 00
        E 0 80 54 00
        E 0 80 58 00
        E 0 80 60 00
        E 0 80 64 00
        E 240 90 18 60
        E 0 90 60 60
        E 80 80 18 00
        E 0 80 60 00
        E 80 90 18 60
        E 0 90 1f 60
        E 0 90 3e 60
        E 0 90 48 60
        E 0 90 4a 60
        E 0 90 54 60
        E 0 90 56 60
        E 0 90 60 60
        E 0 90 62 60
        E 80 80 18 00
        E 0 80 1f 00
        E 0 80 3e 00
        E 0 80 48 00
        E 0 80 4a 00
        E 0 80 54 00
        E 0 80 56 00
        E 0 80 60 00
        E 0 80 62 00
        E 240 90 18 60
        E 0 90 60 60
        E 80 80 18 00
        E 0 80 60 00
        E 0 90 18 60
        E 0 90 60 60
        E 80 80 18 00
        E 0 80 60 00
        E 0 90 1a 60
        E 0 90 26 60
        E 0 90 3d 60
        E 0 90 49 60
        E 0 90 4c 60
        E 0 90 55 60
        E 0 90 58 60
        E 0 90 61 60
        E 0 90 64 60
        E 80 80 1a 00
        E 0 80 26 00
        E 0 80 3d 00
        E 0 80 49 00
        E 0 80 4c 00
        E 0 80 55 00
        E 0 80 58 00
        E 0 80 61 00
        E 0 80 64 00
        E 80 90 2e 60
        E 0 90 62 60
        E 0 90 6e 60
        E 80 80 2e 00
        E 0 80 62 00
        E 0 80 6e 00
        E 0 90 2f 60
        E 0 90 56 60
        E 0 90 62 60
        E 0 90 6e 60
        E 80 80 2f 00
        E 0 80 56 00
        E 0 80 62 00
        E 0 80 6e 00
        E 0 90 2e 60
        E 0 90 62 60
        E 0 90 6e 60
        E 80 80 2e 00
        E 0 80 62 00
        E 0 80 6e 00
        E 0 90 2f 60
        E 0 90 62 60
        E 0 90 6e 60
        E 80 80 2f 00
        E 0 80 62 00
        E 0 80 6e 00
        E 0 90 78 60
        E 0 90 79 60
        E 0 90 7a 60
        E 0 90 7b 60
        E 0 90 7c 60
        E 0 90 18 60
        E 0 90 2c 60
        E 0 90 40 60
        E 0 90 48 60
        E 0 90 4c 60
        E 0 90 54 60
        E 0 90 58 60
        E 0 90 60 60
        E 0 90 64 60
        E 80 80 18 00
        E 0 80 2c 00
        E 0 80 40 00
        E 0 80 48 00
        E 0 80 4c 00
        E 0 80 54 00
        E 0 80 58 00
        E 0 80 60 00
        E 0 80 64 00
        E 80 90 2f 60
        E 0 90 62 60
        E 0 90 6e 60
        E 80 80 2f 00
        E 0 80 62 00
        E 0 80 6e 00
        E 0 90 2e 60
        E 0 90 56 60
        E 0 90 62 60
        E 0 90 6e 60
        E 80 80 2e 00
        E 0 80 56 00
        E 0 80 62 00
        E 0 80 6e 00
        E 0 90 2f 60
        E 0 90 62 60
        E 0 90 6e 60
        E 80 80 2f 00
        E 0 80 62 00
        E 0 80 6e 00
        E 0 90 2e 60
        E 0 90 62 60
        E 0 90 6e 60
        E 80 80 2e 00
        E 0 80 62 00
        E 0 80 6e 00
        E 0 90 31 60
        E 0 90 3f 60
        E 0 90 4b 60
        E 0 90 57 60
        E 0 90 63 60
        E 0 90 6f 60
        E 80 80 31 00
        E 0 80 3f 00
        E 0 80 4b 00
        E 0 80 57 00
        E 0 80 63 00
        E 0 80 6f 00
        E 0 90 30 60
        E 0 90 63 60
        E 0 90 6f 60
        E 80 80 30 00
        E 0 80 63 00
        E 0 80 6f 00
        E 0 90 31 60
        E 0 90 63 60
        E 0 90 6f 60
        E 80 80 31 00
        E 0 80 63 00
        E 0 80 6f 00
        E 0 90 32 60
        E 0 90 58 60
        E 0 90 64 60
        E 0 90 70 60
        E 80 80 32 00
        E 0 80 58 00
        E 0 80 64 00
        E 0 80 70 00
        E 0 90 33 60
        E 0 90 64 60
        E 0 90 70 60
        E 80 80 33 00
        E 0 80 64 00
        E 0 80 70 00
        E 0 90 32 60
        E 0 90 64 60
        E 0 90 70 60
        E 80 80 32 00
        E 0 80 64 00
        E 0 80 70 00
        E 0 90 18 60
        E 0 90 26 60
        E 0 90 40 60
        E 0 90 48 60
        E 0 90 4c 60
        E 0 90 54 60
        E 0 90 58 60
        E 0 90 60 60
        E 0 90 64 60
        E 1 80 78 00
        E 0 80 79 00
        E 0 80 7a 00
        E 0 80 7b 00
        E 0 80 7c 00
        E 79 80 18 00
        E 0 80 26 00
        E 0 80 40 00
        E 0 80 48 00
        E 0 80 4c 00
        E 0 80 54 00
        E 0 80 58 00
        E 0 80 60 00
        E 0 80 64 00
        E 240 90 18 60
        E 0 90 60 60
        E 80 80 18 00
        E 0 80 60 00
        E 80 90 2a 60
        E 0 90 3f 60
        E 0 90 4b 60
        E 0 90 57 60
        E 0 90 63 60
        E 80 80 2a 00
        E 0 80 3f 00
        E 0 80 4b 00
        E 0 80 57 00
        E 0 80 63 00
        E 80 90 18 60
        E 0 90 60 60
        E 80 80 18 00
        E 0 80 60 00
        E 80 90 18 60
        E 0 90 60 60
        E 80 80 18 00
        E 0 80 60 00
        E 80 90 1a 60
        E 0 90 2a 60
        E 0 90 3d 60
        E 0 90 49 60
        E 0 90 4b 60
        E 0 90 55 60
        E 0 90 57 60
        E 0 90 61 60
        E 0 90 63 60
        E 80 80 1a 00
        E 0 80 2a 00
        E 0 80 3d 00
        E 0 80 49 00
        E 0 80 4b 00
        E 0 80 55 00
        E 0 80 57 00
        E 0 80 61 00
        E 0 80 63 00
        E 80 90 18 60
        E 0 90 60 60
        E 80 80 18 00
        E 0 80 60 00
        E 80 90 18 60
        E 0 90 60 60
        E 80 80 18 00
        E 0 80 60 00
        E 80 90 1a 60
        E 0 90 2a 60
        E 0 90 3d 60
        E 0 90 49 60
        E 0 90 4b 60
        E 0 90 55 60
        E 0 90 57 60
        E 0 90 61 60
        E 0 90 63 60
        E 80 80 1a 00
        E 0 80 2a 00
        E 0 80 3d 00
        E 0 80 49 00
        E 0 80 4b 00
        E 0 80 55 00
        E 0 80 57 00
        E 0 80 61 00
        E 0 80 63 00
        E 80 90 18 60
        E 0 90 60 60
        E 80 80 18 00
        E 0 80 60 00
        E 80 90 18 60
        E 0 90 60 60
        E 80 80 18 00
        E 0 80 60 00
        E 80 90 1a 60
        E 0 90 26 60
        E 0 90 3d 60
        E 0 90 49 60
        E 0 90 4c 60
        E 0 90 55 60
        E 0 90 58 60
        E 0 90 61 60
        E 0 90 64 60
        E 80 80 1a 00
        E 0 80 26 00
        E 0 80 3d 00
        E 0 80 49 00
        E 0 80 4c 00
        E 0 80 55 00
        E 0 80 58 00
        E 0 80 61 00
        E 0 80 64 00
        E 80 90 2e 60
        E 0 90 62 60
        E 0 90 6e 60
        E 80 80 2e 00
        E 0 80 62 00
        E 0 80 6e 00
        E 0 90 2f 60
        E 0 90 56 60
        E 0 90 62 60
        E 0 90 6e 60
        E 80 80 2f 00
        E 0 80 56 00
        E 0 80 62 00
        E 0 80 6e 00
        E 0 90 2e 60
        E 0 90 62 60
        E 0 90 6e 60
        E 80 80 2e 00
        E 0 80 62 00
        E 0 80 6e 00
        E 0 90 2f 60
        E 0 90 62 60
        E 0 90 6e 60
        E 80 80 2f 00
        E 0 80 62 00
        E 0 80 6e 00
        E 0 90 18 60
        E 0 90 2c 60
        E 0 90 40 60
        E 0 90 48 60
        E 0 90 4c 60
        E 0 90 54 60
        E 0 90 58 60
        E 0 90 60 60
        E 0 90 64 60
        E 80 80 18 00
        E 0 80 2c 00
        E 0 80 40 00
        E 0 80 48 00
        E 0 80 4c 00
        E 0 80 54 00
        E 0 80 58 00
        E 0 80 60 00
        E 0 80 64 00
        E 80 90 31 60
        E 0 90 63 60
        E 0 90 6f 60
        E 80 80 31 00
        E 0 80 63 00
        E 0 80 6f 00
        E 0 90 30 60
        E 0 90 57 60
        E 0 90 63 60
        E 0 90 6f 60
        E 80 80 30 00
        E 0 80 57 00
        E 0 80 63 00
        E 0 80 6f 00
        E 0 90 31 60
        E 0 90 63 60
        E 0 90 6f 60
        E 80 80 31 00
        E 0 80 63 00
        E 0 80 6f 00
        E 0 90 30 60
        E 0 90 63 60
        E 0 90 6f 60
        E 80 80 30 00
        E 0 80 63 00
        E 0 80 6f 00
        E 0 90 18 60
        E 0 90 26 60
        E 0 90 40 60
        E 0 90 48 60
        E 0 90 4c 60
        E 0 90 54 60
        E 0 90 58 60
        E 0 90 60 60
        E 0 90 64 60
        E 80 80 18 00
        E 0 80 26 00
        E 0 80 40 00
        E 0 80 48 00
        E 0 80 4c 00
        E 0 80 54 00
        E 0 80 58 00
        E 0 80 60 00
        E 0 80 64 00
        E 80 90 2e 60
        E 0 90 62 60
        E 0 90 6e 60
        E 80 80 2e 00
        E 0 80 62 00
        E 0 80 6e 00
        E 0 90 2f 60
        E 0 90 56 60
        E 0 90 62 60
        E 0 90 6e 60
        E 80 80 2f 00
        E 0 80 56 00
        E 0 80 62 00
        E 0 80 6e 00
        E 0 90 2e 60
        E 0 90 62 60
        E 0 90 6e 60
        E 80 80 2e 00
        E 0 80 62 00
        E 0 80 6e 00
        E 0 90 2f 60
        E 0 90 62 60
        E 0 90 6e 60
        E 80 80 2f 00
        E 0 80 62 00
        E 0 80 6e 00
        E 0 90 30 60
        E 0 90 3f 60
        E 0 90 4b 60
        E 0 90 57 60
        E 0 90 63 60
        E 0 90 6f 60
        E 80 80 30 00
        E 0 80 3f 00
        E 0 80 4b 00
        E 0 80 57 00
        E 0 80 63 00
        E 0 80 6f 00
        E 0 90 31 60
        E 0 90 63 60
        E 0 90 6f 60
        E 80 80 31 00
        E 0 80 63 00
        E 0 80 6f 00
        E 0 90 30 60
        E 0 90 63 60
        E 0 90 6f 60
        E 80 80 30 00
        E 0 80 63 00
        E 0 80 6f 00
        E 0 90 33 60
        E 0 90 58 60
        E 0 90 64 60
        E 0 90 70 60
        E 80 80 33 00
        E 0 80 58 00
        E 0 80 64 00
        E 0 80 70 00
        E 0 90 32 60
        E 0 90 64 60
        E 0 90 70 60
        E 80 80 32 00
        E 0 80 64 00
        E 0 80 70 00
        E 0 90 33 60
        E 0 90 64 60
        E 0 90 70 60
        E 80 80 33 00
        E 0 80 64 00
        E 0 80 70 00
        E 0 90 18 60
        E 0 90 2c 60
        E 0 90 40 60
        E 0 90 48 60
        E 0 90 4c 60
        E 0 90 54 60
        E 0 90 58 60
        E 0 90 60 60
        E 0 90 64 60
        E 80 80 18 00
        E 0 80 2c 00
        E 0 80 40 00
        E 0 80 48 00
        E 0 80 4c 00
        E 0 80 54 00
        E 0 80 58 00
        E 0 80 60 00
        E 0 80 64 00
        E 400 90 18 60
        E 0 90 2a 60
        E 0 90 3f 60
        E 0 90 48 60
        E 0 90 4b 60
        E 0 90 54 60
        E 0 90 57 60
        E 0 90 60 60
        E 0 90 63 60
        E 80 80 18 00
        E 0 80 2a 00
        E 0 80 3f 00
        E 0 80 48 00
        E 0 80 4b 00
        E 0 80 54 00
        E 0 80 57 00
        E 0 80 60 00
        E 0 80 63 00
        E 240 90 18 60
        E 0 90 60 60
        E 80 80 18 00
        E 0 80 60 00
        E 0 90 18 60
        E 0 90 60 60
        E 80 80 18 00
        E 0 80 60 00
        E 0 90 1a 60
        E 0 90 2a 60
        E 0 90 3d 60
        E 0 90 49 60
        E 0 90 4b 60
        E 0 90 55 60
        E 0 90 57 60
        E 0 90 61 60
        E 0 90 63 60
        E 80 80 1a 00
        E 0 80 2a 00
        E 0 80 3d 00
        E 0 80 49 00
        E 0 80 4b 00
        E 0 80 55 00
        E 0 80 57 00
        E 0 80 61 00
        E 0 80 63 00
        E 80 90 18 60
        E 0 90 2c 60
        E 0 90 60 60
        E 0 90 64 60
        E 80 80 18 00
        E 0 80 2c 00
        E 0 80 60 00
        E 0 80 64 00
        E 80 90 18 60
        E 0 90 1f 60
        E 0 90 60 60
        E 0 90 62 60
        E 80 80 18 00
        E 0 80 1f 00
        E 0 80 60 00
        E 0 80 62 00
        E 80 90 18 60
        E 0 90 2c 60
        E 0 90 40 60
        E 0 90 48 60
        E 0 90 4c 60
        E 0 90 54 60
        E 0 90 58 60
        E 0 90 60 60
        E 0 90 64 60
        E 80 80 18 00
        E 0 80 2c 00
        E 0 80 40 00
        E 0 80 48 00
        E 0 80 4c 00
        E 0 80 54 00
        E 0 80 58 00
        E 0 80 60 00
        E 0 80 64 00
        E 80 90 18 60
        E 0 90 2a 60
        E 0 90 60 60
        E 0 90 63 60
        E 80 80 18 00
        E 0 80 2a 00
        E 0 80 60 00
        E 0 80 63 00
        E 80 90 18 60
        E 0 90 2c 60
        E 0 90 60 60
        E 0 90 64 60
        E 80 80 18 00
        E 0 80 2c 00
        E 0 80 60 00
        E 0 80 64 00
        E 80 90 18 60
        E 0 90 1f 60
        E 0 90 3e 60
        E 0 90 48 60
        E 0 90 4a 60
        E 0 90 54 60
        E 0 90 56 60
        E 0 90 60 60
        E 0 90 62 60
        E 80 80 18 00
        E 0 80 1f 00
        E 0 80 3e 00
        E 0 80 48 00
        E 0 80 4a 00
        E 0 80 54 00
        E 0 80 56 00
        E 0 80 60 00
        E 0 80 62 00
        E 240 90 18 60
        E 0 90 60 60
        E 80 80 18 00
        E 0 80 60 00
        E 80 90 1a 60
        E 0 90 26 60
        E 0 90 3d 60
        E 0 90 49 60
        E 0 90 4c 60
        E 0 90 55 60
        E 0 90 58 60
        E 0 90 61 60
        E 0 90 64 60
        E 80 80 1a 00
        E 0 80 26 00
        E 0 80 3d 00
        E 0 80 49 00
        E 0 80 4c 00
        E 0 80 55 00
        E 0 80 58 00
        E 0 80 61 00
        E 0 80 64 00
        E 80 90 2e 60
        E 0 90 62 60
        E 0 90 6e 60
        E 80 80 2e 00
        E 0 80 62 00
        E 0 80 6e 00
        E 0 90 2f 60
        E 0 90 56 60
        E 0 90 62 60
        E 0 90 6e 60
        E 80 80 2f 00
        E 0 80 56 00
        E 0 80 62 00
        E 0 80 6e 00
        E 0 90 2e 60
        E 0 90 62 60
        E 0 90 6e 60
        E 80 80 2e 00
        E 0 80 62 00
        E 0 80 6e 00
        E 0 90 2f 60
        E 0 90 62 60
        E 0 90 6e 60
        E 80 80 2f 00
        E 0 80 62 00
        E 0 80 6e 00
        E 0 90 18 60
        E 0 90 2c 60
        E 0 90 40 60
        E 0 90 48 60
        E 0 90 4c 60
        E 0 90 54 60
        E 0 90 58 60
        E 0 90 60 60
        E 0 90 64 60
        E 80 80 18 00
        E 0 80 2c 00
        E 0 80 40 00
        E 0 80 48 00
        E 0 80 4c 00
        E 0 80 54 00
        E 0 80 58 00
        E 0 80 60 00
        E 0 80 64 00
        E 80 90 2f 60
        E 0 90 62 60
        E 0 90 6e 60
        E 80 80 2f 00
        E 0 80 62 00
        E 0 80 6e 00
        E 0 90 2e 60
        E 0 90 56 60
        E 0 90 62 60
        E 0 90 6e 60
        E 80 80 2e 00
        E 0 80 56 00
        E 0 80 62 00
        E 0 80 6e 00
        E 0 90 2f 60
        E 0 90 62 60
        E 0 90 6e 60
        E 80 80 2f 00
        E 0 80 62 00
        E 0 80 6e 00
        E 0 90 2e 60
        E 0 90 62 60
        E 0 90 6e 60
        E 80 80 2e 00
        E 0 80 62 00
        E 0 80 6e 00
        E 0 90 31 60
        E 0 90 3f 60
        E 0 90 4b 60
        E 0 90 57 60
        E 0 90 63 60
        E 0 90 6f 60
        E 80 80 31 00
        E 0 80 3f 00
        E 0 80 4b 00
        E 0 80 57 00
        E 0 80 63 00
        E 0 80 6f 00
        E 0 90 30 60
        E 0 90 63 60
        E 0 90 6f 60
        E 80 80 30 00
        E 0 80 63 00
        E 0 80 6f 00
        E 0 90 31 60
        E 0 90 63 60
        E 0 90 6f 60
        E 80 80 31 00
        E 0 80 63 00
        E 0 80 6f 00
        E 0 90 32 60
        E 0 90 58 60
        E 0 90 64 60
        E 0 90 70 60
        E 80 80 32 00
        E 0 80 58 00
        E 0 80 64 00
        E 0 80 70 00
        E 0 90 33 60
        E 0 90 64 60
        E 0 90 70 60
        E 80 80 33 00
        E 0 80 64 00
        E 0 80 70 00
        E 0 90 32 60
        E 0 90 64 60
        E 0 90 70 60
        E 80 80 32 00
        E 0 80 64 00
        E 0 80 70 00
        E 0 90 18 60
        E 0 90 26 60
        E 0 90 40 60
        E 0 90 48 60
        E 0 90 4c 60
        E 0 90 54 60
        E 0 90 58 60
        E 0 90 60 60
        E 0 90 64 60
        E 80 80 18 00
        E 0 80 26 00
        E 0 80 40 00
        E 0 80 48 00
        E 0 80 4c 00
        E 0 80 54 00
        E 0 80 58 00
        E 0 80 60 00
        E 0 80 64 00
        E 240 90 18 60
        E 0 90 60 60
        E 80 80 18 00
        E 0 80 60 00
        E 80 90 2a 60
        E 0 90 3f 60
        E 0 90 4b 60
        E 0 90 57 60
        E 0 90 63 60
        E 80 80 2a 00
        E 0 80 3f 00
        E 0 80 4b 00
        E 0 80 57 00
        E 0 80 63 00
        E 80 90 18 60
        E 0 90 60 60
        E 80 80 18 00
        E 0 80 60 00
        E 80 90 18 60
        E 0 90 60 60
        E 80 80 18 00
        E 0 80 60 00
        E 80 90 1a 60
        E 0 90 2a 60
        E 0 90 3d 60
        E 0 90 49 60
        E 0 90 4b 60
        E 0 90 55 60
        E 0 90 57 60
        E 0 90 61 60
        E 0 90 63 60
        E 80 80 1a 00
        E 0 80 2a 00
        E 0 80 3d 00
        E 0 80 49 00
        E 0 80 4b 00
        E 0 80 55 00
        E 0 80 57 00
        E 0 80 61 00
        E 0 80 63 00
        E 80 90 18 60
        E 0 90 26 60
        E 0 90 60 60
        E 0 90 64 60
        E 80 80 18 00
        E 0 80 26 00
        E 0 80 60 00
        E 0 80 64 00
        E 240 90 18 60
        E 0 90 26 60
        E 0 90 40 60
        E 0 90 48 60
        E 0 90 4c 60
        E 0 90 54 60
        E 0 90 58 60
        E 0 90 60 60
        E 0 90 64 60
        E 80 80 18 00
        E 0 80 26 00
        E 0 80 40 00
        E 0 80 48 00
        E 0 80 4c 00
        E 0 80 54 00
        E 0 80 58 00
        E 0 80 60 00
        E 0 80 64 00
        E 240 90 18 60
        E 0 90 60 60
        E 80 80 18 00
        E 0 80 60 00
        E 80 90 18 60
        E 0 90 2a 60
        E 0 90 3f 60
        E 0 90 48 60
        E 0 90 4b 60
        E 0 90 54 60
        E 0 90 57 60
        E 0 90 60 60
        E 0 90 63 60
        E 80 80 18 00
        E 0 80 2a 00
        E 0 80 3f 00
        E 0 80 48 00
        E 0 80 4b 00
        E 0 80 54 00
        E 0 80 57 00
        E 0 80 60 00
        E 0 80 63 00
        E 240 90 18 60
        E 0 90 60 60
        E 80 80 18 00
        E 0 80 60 00
        E 0 90 18 60
        E 0 90 60 60
        E 80 80 18 00
        E 0 80 60 00
        E 0 90 1a 60
        E 0 90 2a 60
        E 0 90 3d 60
        E 0 90 49 60
        E 0 90 4b 60
        E 0 90 55 60
        E 0 90 57 60
        E 0 90 61 60
        E 0 90 63 60
        E 80 80 1a 00
        E 0 80 2a 00
        E 0 80 3d 00
        E 0 80 49 00
        E 0 80 4b 00
        E 0 80 55 00
        E 0 80 57 00
        E 0 80 61 00
        E 0 80 63 00
        E 240 90 18 60
        E 0 90 60 60
        E 80 80 18 00
        E 0 80 60 00
        E 80 90 1a 60
        E 0 90 26 60
        E 0 90 3d 60
        E 0 90 49 60
        E 0 90 4c 60
        E 0 90 55 60
        E 0 90 58 60
        E 0 90 61 60
        E 0 90 64 60
        E 80 80 1a 00
        E 0 80 26 00
        E 0 80 3d 00
        E 0 80 49 00
        E 0 80 4c 00
        E 0 80 55 00
        E 0 80 58 00
        E 0 80 61 00
        E 0 80 64 00
        E 160 90 2f 60
        E 0 90 56 60
        E 0 90 62 60
        E 0 90 6e 60
        E 80 80 2f 00
        E 0 80 56 00
        E 0 80 62 00
        E 0 80 6e 00
        E 0 90 2e 60
        E 0 90 62 60
        E 0 90 6e 60
        E 80 80 2e 00
        E 0 80 62 00
        E 0 80 6e 00
        E 80 90 18 60
        E 0 90 2f 60
        E 0 90 3e 60
        E 0 90 4a 60
        E 0 90 54 60
        E 0 90 56 60
        E 0 90 60 60
        E 0 90 62 60
        E 0 90 6e 60
        E 80 80 18 00
        E 0 80 2f 00
        E 0 80 3e 00
        E 0 80 4a 00
        E 0 80 54 00
        E 0 80 56 00
        E 0 80 60 00
        E 0 80 62 00
        E 0 80 6e 00
        E 0 90 30 60
        E 0 90 63 60
        E 0 90 6f 60
        E 80 80 30 00
        E 0 80 63 00
        E 0 80 6f 00
        E 160 90 30 60
        E 0 90 63 60
        E 0 90 6f 60
        E 80 80 30 00
        E 0 80 63 00
        E 0 80 6f 00
        E 0 90 31 60
        E 0 90 63 60
        E 0 90 6f 60
        E 80 80 31 00
        E 0 80 63 00
        E 0 80 6f 00
        E 0 90 18 60
        E 0 90 2c 60
        E 0 90 40 60
        E 0 90 48 60
        E 0 90 4c 60
        E 0 90 54 60
        E 0 90 58 60
        E 0 90 60 60
        E 0 90 64 60
        E 0 90 74 60
        E 80 80 18 00
        E 0 80 2c 00
        E 0 80 40 00
        E 0 80 48 00
        E 0 80 4c 00
        E 0 80 54 00
        E 0 80 58 00
        E 0 80 60 00
        E 0 80 64 00
        E 400 90 18 60
        E 0 90 2a 60
        E 0 90 3f 60
        E 0 90 48 60
        E 0 90 4b 60
        E 0 90 54 60
        E 0 90 57 60
        E 0 90 60 60
        E 0 90 63 60
        E 80 80 18 00
        E 0 80 2a 00
        E 0 80 3f 00
        E 0 80 48 00
        E 0 80 4b 00
        E 0 80 54 00
        E 0 80 57 00
        E 0 80 60 00
        E 0 80 63 00
        E 240 90 18 60
        E 0 90 60 60
        E 80 80 18 00
        E 0 80 60 00
        E 0 90 18 60
        E 0 90 60 60
        E 80 80 18 00
        E 0 80 60 00
        E 0 90 1a 60
        E 0 90 2a 60
        E 0 90 3d 60
        E 0 90 49 60
        E 0 90 4b 60
        E 0 90 55 60
        E 0 90 57 60
        E 0 90 61 60
        E 0 90 63 60
        E 80 80 1a 00
        E 0 80 2a 00
        E 0 80 3d 00
        E 0 80 49 00
        E 0 80 4b 00
        E 0 80 55 00
        E 0 80 57 00
        E 0 80 61 00
        E 0 80 63 00
        E 80 90 18 60
        E 0 90 26 60
        E 0 90 60 60
        E 0 90 64 60
        E 80 80 18 00
        E 0 80 26 00
        E 0 80 60 00
        E 0 80 64 00
        E 240 90 18 60
        E 0 90 26 60
        E 0 90 40 60
        E 0 90 48 60
        E 0 90 4c 60
        E 0 90 54 60
        E 0 90 58 60
        E 0 90 60 60
        E 0 90 64 60
        E 80 80 18 00
        E 0 80 26 00
        E 0 80 40 00
        E 0 80 48 00
        E 0 80 4c 00
        E 0 80 54 00
        E 0 80 58 00
        E 0 80 60 00
        E 0 80 64 00
        E 240 90 18 60
        E 0 90 60 60
        E 80 80 18 00
        E 0 80 60 00
        E 80 90 18 60
        E 0 90 26 60
        E 0 90 40 60
        E 0 90 48 60
        E 0 90 4c 60
        E 0 90 54 60
        E 0 90 58 60
        E 0 90 60 60
        E 0 90 64 60
        E 80 80 18 00
        E 0 80 26 00
        E 0 80 40 00
        E 0 80 48 00
        E 0 80 4c 00
        E 0 80 54 00
        E 0 80 58 00
        E 0 80 60 00
        E 0 80 64 00
        E 400 90 18 60
        E 0 90 2a 60
        E 0 90 3f 60
        E 0 90 48 60
        E 0 90 4b 60
        E 0 90 54 60
        E 0 90 57 60
        E 0 90 60 60
        E 0 90 63 60
        E 80 80 18 00
        E 0 80 2a 00
        E 0 80 3f 00
        E 0 80 48 00
        E 0 80 4b 00
        E 0 80 54 00
        E 0 80 57 00
        E 0 80 60 00
        E 0 80 63 00
        E 240 90 18 60
        E 0 90 60 60
        E 80 80 18 00
        E 0 80 60 00
        E 0 90 18 60
        E 0 90 60 60
        E 80 80 18 00
        E 0 80 60 00
        E 0 90 1a 60
        E 0 90 2a 60
        E 0 90 3d 60
        E 0 90 49 60
        E 0 90 4b 60
        E 0 90 55 60
        E 0 90 57 60
        E 0 90 61 60
        E 0 90 63 60
        E 80 80 1a 00
        E 0 80 2a 00
        E 0 80 3d 00
        E 0 80 49 00
        E 0 80 4b 00
        E 0 80 55 00
        E 0 80 57 00
        E 0 80 61 00
        E 0 80 63 00
        E 80 90 2e 60
        E 0 90 62 60
        E 0 90 6e 60
        E 80 80 2e 00
        E 0 80 62 00
        E 0 80 6e 00
        E 0 90 2f 60
        E 0 90 56 60
        E 0 90 62 60
        E 0 90 6e 60
        E 80 80 2f 00
        E 0 80 56 00
        E 0 80 62 00
        E 0 80 6e 00
        E 0 90 2e 60
        E 0 90 62 60
        E 0 90 6e 60
        E 80 80 2e 00
        E 0 80 62 00
        E 0 80 6e 00
        E 0 90 2f 60
        E 0 90 62 60
        E 0 90 6e 60
        E 80 80 2f 00
        E 0 80 62 00
        E 0 80 6e 00
        E 0 90 30 60
        E 0 90 3f 60
        E 0 90 4b 60
        E 0 90 57 60
        E 0 90 63 60
        E 0 90 6f 60
        E 80 80 30 00
        E 0 80 3f 00
        E 0 80 4b 00
        E 0 80 57 00
        E 0 80 63 00
        E 0 80 6f 00
        E 0 90 31 60
        E 0 90 63 60
        E 0 90 6f 60
        E 80 80 31 00
        E 0 80 63 00
        E 0 80 6f 00
        E 0 90 30 60
        E 0 90 63 60
        E 0 90 6f 60
        E 80 80 30 00
        E 0 80 63 00
        E 0 80 6f 00
        E 0 90 33 60
        E 0 90 58 60
        E 0 90 64 60
        E 0 90 70 60
        E 80 80 33 00
        E 0 80 58 00
        E 0 80 64 00
        E 0 80 70 00
        E 0 90 32 60
        E 0 90 64 60
        E 0 90 70 60
        E 80 80 32 00
        E 0 80 64 00
        E 0 80 70 00
        E 0 90 33 60
        E 0 90 64 60
        E 0 90 70 60
        E 80 80 74 00
        E 0 80 33 00
        E 0 80 64 00
        E 0 80 70 00
        E 0 90 18 60
        E 0 90 2c 60
        E 0 90 40 60
        E 0 90 48 60
        E 0 90 4c 60
        E 0 90 54 60
        E 0 90 58 60
        E 0 90 60 60
        E 0 90 64 60
        E 80 80 18 00
        E 0 80 2c 00
        E 0 80 40 00
        E 0 80 48 00
        E 0 80 4c 00
        E 0 80 54 00
        E 0 80 58 00
        E 0 80 60 00
        E 0 80 64 00
        E 240 90 18 60
        E 0 90 60 60
        E 80 80 18 00
        E 0 80 60 00
        E 80 90 1a 60
        E 0 90 2a 60
        E 0 90 3d 60
        E 0 90 49 60
        E 0 90 4b 60
        E 0 90 55 60
        E 0 90 57 60
        E 0 90 61 60
        E 0 90 63 60
        E 80 80 1a 00
        E 0 80 2a 00
        E 0 80 3d 00
        E 0 80 49 00
        E 0 80 4b 00
        E 0 80 55 00
        E 0 80 57 00
        E 0 80 61 00
        E 0 80 63 00
        E 80 90 18 60
        E 0 90 60 60
        E 80 80 18 00
        E 0 80 60 00
        E 80 90 18 60
        E 0 90 60 60
        E 80 80 18 00
        E 0 80 60 00
        E 80 90 1a 60
        E 0 90 2a 60
        E 0 90 3d 60
        E 0 90 49 60
        E 0 90 4b 60
        E 0 90 55 60
        E 0 90 57 60
        E 0 90 61 60
        E 0 90 63 60
        E 80 80 1a 00
        E 0 80 2a 00
        E 0 80 3d 00
        E 0 80 49 00
        E 0 80 4b 00
        E 0 80 55 00
        E 0 80 57 00
        E 0 80 61 00
        E 0 80 63 00
        E 80 90 18 60
        E 0 90 60 60
        E 80 80 18 00
        E 0 80 60 00
        E 80 90 18 60
        E 0 90 60 60
        E 80 80 18 00
        E 0 80 60 00
        E 80 90 1a 60
        E 0 90 26 60
        E 0 90 3d 60
        E 0 90 49 60
        E 0 90 4c 60
        E 0 90 55 60
        E 0 90 58 60
        E 0 90 61 60
        E 0 90 64 60
        E 80 80 1a 00
        E 0 80 26 00
        E 0 80 3d 00
        E 0 80 49 00
        E 0 80 4c 00
        E 0 80 55 00
        E 0 80 58 00
        E 0 80 61 00
        E 0 80 64 00
        E 80 90 18 60
        E 0 90 60 60
        E 80 80 18 00
        E 0 80 60 00
        E 80 90 18 60
        E 0 90 60 60
        E 80 80 18 00
        E 0 80 60 00
        E 80 90 1a 60
        E 0 90 26 60
        E 0 90 3d 60
        E 0 90 49 60
        E 0 90 4c 60
        E 0 90 55 60
        E 0 90 58 60
        E 0 90 61 60
        E 0 90 64 60
        E 0 90 78 60
        E 0 90 79 60
        E 0 90 7a 60
        E 0 90 7b 60
        E 0 90 7c 60
        E 80 80 1a 00
        E 0 80 26 00
        E 0 80 3d 00
        E 0 80 49 00
        E 0 80 4c 00
        E 0 80 55 00
        E 0 80 58 00
        E 0 80 61 00
        E 0 80 64 00
        E 80 90 1a 60
        E 0 90 61 60
        E 80 80 1a 00
        E 0 80 61 00
        E 0 90 1b 60
        E 0 90 55 60
        E 0 90 61 60
        E 80 80 1b 00
        E 0 80 55 00
        E 0 80 61 00
        E 0 90 1a 60
        E 0 90 61 60
        E 80 80 1a 00
        E 0 80 61 00
        E 0 90 1b 60
        E 0 90 61 60
        E 80 80 1b 00
        E 0 80 61 00
        E 0 90 1a 60
        E 0 90 3d 60
        E 0 90 49 60
        E 0 90 55 60
        E 0 90 61 60
        E 80 80 1a 00
        E 0 80 3d 00
        E 0 80 49 00
        E 0 80 55 00
        E 0 80 61 00
        E 0 90 1b 60
        E 0 90 61 60
        E 80 80 1b 00
        E 0 80 61 00
        E 0 90 2e 60
        E 0 90 62 60
        E 0 90 6e 60
        E 80 80 2e 00
        E 0 80 62 00
        E 0 80 6e 00
        E 0 90 2f 60
        E 0 90 56 60
        E 0 90 62 60
        E 0 90 6e 60
        E 80 80 2f 00
        E 0 80 56 00
        E 0 80 62 00
        E 0 80 6e 00
        E 0 90 2e 60
        E 0 90 62 60
        E 0 90 6e 60
        E 80 80 2e 00
        E 0 80 62 00
        E 0 80 6e 00
        E 0 90 2f 60
        E 0 90 62 60
        E 0 90 6e 60
        E 80 80 2f 00
        E 0 80 62 00
        E 0 80 6e 00
        E 0 90 18 60
        E 0 90 1a 60
        E 0 90 3d 60
        E 0 90 49 60
        E 0 90 54 60
        E 0 90 55 60
        E 0 90 60 60
        E 0 90 61 60
        E 80 80 18 00
        E 0 80 1a 00
        E 0 80 3d 00
        E 0 80 49 00
        E 0 80 54 00
        E 0 80 55 00
        E 0 80 60 00
        E 0 80 61 00
        E 0 90 1b 60
        E 0 90 61 60
        E 80 80 1b 00
        E 0 80 61 00
        E 0 90 1a 60
        E 0 90 61 60
        E 80 80 1a 00
        E 0 80 61 00
        E 0 90 1b 60
        E 0 90 55 60
        E 0 90 61 60
        E 80 80 1b 00
        E 0 80 55 00
        E 0 80 61 00
        E 0 90 1a 60
        E 0 90 61 60
        E 80 80 1a 00
        E 0 80 61 00
        E 0 90 1b 60
        E 0 90 61 60
        E 80 80 1b 00
        E 0 80 61 00
        E 0 90 18 60
        E 0 90 1a 60
        E 0 90 3d 60
        E 0 90 49 60
        E 0 90 54 60
        E 0 90 55 60
        E 0 90 60 60
        E 0 90 61 60
        E 80 80 18 00
        E 0 80 1a 00
        E 0 80 3d 00
        E 0 80 49 00
        E 0 80 54 00
        E 0 80 55 00
        E 0 80 60 00
        E 0 80 61 00
        E 0 90 1b 60
        E 0 90 61 60
        E 80 80 1b 00
        E 0 80 61 00
        E 0 90 1a 60
        E 0 90 61 60
        E 80 80 1a 00
        E 0 80 61 00
        E 0 90 1b 60
        E 0 90 55 60
        E 0 90 61 60
        E 80 80 1b 00
        E 0 80 55 00
        E 0 80 61 00
        E 0 90 1a 60
        E 0 90 61 60
        E 80 80 1a 00
        E 0 80 61 00
        E 0 90 1b 60
        E 0 90 61 60
        E 80 80 78 00
        E 0 80 79 00
        E 0 80 7a 00
        E 0 80 7b 00
        E 0 80 7c 00
        E 0 80 1b 00
        E 0 80 61 00
        E 0 90 18 60
        E 0 90 2c 60
        E 0 90 40 60
        E 0 90 48 60
        E 0 90 4c 60
        E 0 90 54 60
        E 0 90 58 60
        E 0 90 60 60
        E 0 90 64 60
        E 80 80 18 00
        E 0 80 2c 00
        E 0 80 40 00
        E 0 80 48 00
        E 0 80 4c 00
        E 0 80 54 00
        E 0 80 58 00
        E 0 80 60 00
        E 0 80 64 00
        E 80 90 18 60
        E 0 90 1f 60
        E 0 90 60 60
        E 0 90 62 60
        E 80 80 18 00
        E 0 80 1f 00
        E 0 80 60 00
        E 0 80 62 00
        E 80 90 18 60
        E 0 90 1e 60
        E 0 90 60 60
        E 0 90 62 60
        E 80 80 18 00
        E 0 80 1e 00
        E 0 80 60 00
        E 0 80 62 00
        E 0 90 18 60
        E 0 90 60 60
        E 80 80 18 00
        E 0 80 60 00
        E 0 90 1a 60
        E 0 90 1f 60
        E 0 90 3d 60
        E 0 90 49 60
        E 0 90 4a 60
        E 0 90 55 60
        E 0 90 56 60
        E 0 90 61 60
        E 0 90 62 60
        E 80 80 1a 00
        E 0 80 1f 00
        E 0 80 3d 00
        E 0 80 49 00
        E 0 80 4a 00
        E 0 80 55 00
        E 0 80 56 00
        E 0 80 61 00
        E 0 80 62 00
        E 80 90 1e 60
        E 0 90 62 60
        E 80 80 1e 00
        E 0 80 62 00
        E 80 90 18 60
        E 0 90 1f 60
        E 0 90 60 60
        E 0 90 62 60
        E 80 80 18 00
        E 0 80 1f 00
        E 0 80 60 00
        E 0 80 62 00
        E 80 90 18 60
        E 0 90 1e 60
        E 0 90 3e 60
        E 0 90 48 60
        E 0 90 4a 60
        E 0 90 54 60
        E 0 90 56 60
        E 0 90 60 60
        E 0 90 62 60
        E 80 80 18 00
        E 0 80 1e 00
        E 0 80 3e 00
        E 0 80 48 00
        E 0 80 4a 00
        E 0 80 54 00
        E 0 80 56 00
        E 0 80 60 00
        E 0 80 62 00
        E 80 90 18 60
        E 0 90 1f 60
        E 0 90 60 60
        E 0 90 62 60
        E 80 80 18 00
        E 0 80 1f 00
        E 0 80 60 00
        E 0 80 62 00
        E 80 90 18 60
        E 0 90 1e 60
        E 0 90 60 60
        E 0 90 62 60
        E 80 80 18 00
        E 0 80 1e 00
        E 0 80 60 00
        E 0 80 62 00
        E 0 90 18 60
        E 0 90 60 60
        E 80 80 18 00
        E 0 80 60 00
        E 0 90 1a 60
        E 0 90 1f 60
        E 0 90 3d 60
        E 0 90 49 60
        E 0 90 4a 60
        E 0 90 55 60
        E 0 90 56 60
        E 0 90 61 60
        E 0 90 62 60
        E 80 80 1a 00
        E 0 80 1f 00
        E 0 80 3d 00
        E 0 80 49 00
        E 0 80 4a 00
        E 0 80 55 00
        E 0 80 56 00
        E 0 80 61 00
        E 0 80 62 00
        E 80 90 1e 60
        E 0 90 62 60
        E 80 80 1e 00
        E 0 80 62 00
        E 80 90 18 60
        E 0 90 1f 60
        E 0 90 60 60
        E 0 90 62 60
        E 80 80 18 00
        E 0 80 1f 00
        E 0 80 60 00
        E 0 80 62 00
        E 80 90 18 60
        E 0 90 1e 60
        E 0 90 3e 60
        E 0 90 48 60
        E 0 90 4a 60
        E 0 90 54 60
        E 0 90 56 60
        E 0 90 60 60
        E 0 90 62 60
        E 80 80 18 00
        E 0 80 1e 00
        E 0 80 3e 00
        E 0 80 48 00
        E 0 80 4a 00
        E 0 80 54 00
        E 0 80 56 00
        E 0 80 60 00
        E 0 80 62 00
        E 80 90 18 60
        E 0 90 1f 60
        E 0 90 60 60
        E 0 90 62 60
        E 80 80 18 00
        E 0 80 1f 00
        E 0 80 60 00
        E 0 80 62 00
        E 80 90 18 60
        E 0 90 1e 60
        E 0 90 60 60
        E 0 90 62 60
        E 80 80 18 00
        E 0 80 1e 00
        E 0 80 60 00
        E 0 80 62 00
        E 0 90 18 60
        E 0 90 60 60
        E 80 80 18 00
        E 0 80 60 00
        E 0 90 1a 60
        E 0 90 1f 60
        E 0 90 3d 60
        E 0 90 49 60
        E 0 90 4a 60
        E 0 90 55 60
        E 0 90 56 60
        E 0 90 61 60
        E 0 90 62 60
        E 80 80 1a 00
        E 0 80 1f 00
        E 0 80 3d 00
        E 0 80 49 00
        E 0 80 4a 00
        E 0 80 55 00
        E 0 80 56 00
        E 0 80 61 00
        E 0 80 62 00
        E 80 90 1e 60
        E 0 90 62 60
        E 80 80 1e 00
        E 0 80 62 00
        E 80 90 18 60
        E 0 90 1f 60
        E 0 90 60 60
        E 0 90 62 60
        E 80 80 18 00
        E 0 80 1f 00
        E 0 80 60 00
        E 0 80 62 00
        E 80 90 18 60
        E 0 90 1e 60
        E 0 90 3e 60
        E 0 90 48 60
        E 0 90 4a 60
        E 0 90 54 60
        E 0 90 56 60
        E 0 90 60 60
        E 0 90 62 60
        E 80 80 18 00
        E 0 80 1e 00
        E 0 80 3e 00
        E 0 80 48 00
        E 0 80 4a 00
        E 0 80 54 00
        E 0 80 56 00
        E 0 80 60 00
        E 0 80 62 00
        E 80 90 18 60
        E 0 90 1f 60
        E 0 90 60 60
        E 0 90 62 60
        E 80 80 18 00
        E 0 80 1f 00
        E 0 80 60 00
        E 0 80 62 00
        E 80 90 18 60
        E 0 90 1e 60
        E 0 90 60 60
        E 0 90 62 60
        E 80 80 18 00
        E 0 80 1e 00
        E 0 80 60 00
        E 0 80 62 00
        E 80 90 1a 60
        E 0 90 1f 60
        E 0 90 3d 60
        E 0 90 49 60
        E 0 90 4a 60
        E 0 90 55 60
        E 0 90 56 60
        E 0 90 61 60
        E 0 90 62 60
        E 80 80 1a 00
        E 0 80 1f 00
        E 0 80 3d 00
        E 0 80 49 00
        E 0 80 4a 00
        E 0 80 55 00
        E 0 80 56 00
        E 0 80 61 00
        E 0 80 62 00
        E 80 90 1a 60
        E 0 90 61 60
        E 80 80 1a 00
        E 0 80 61 00
        E 0 90 1b 60
        E 0 90 55 60
        E 0 90 61 60
        E 80 80 1b 00
        E 0 80 55 00
        E 0 80 61 00
        E 0 90 1a 60
        E 0 90 61 60
        E 80 80 1a 00
        E 0 80 61 00
        E 0 90 1b 60
        E 0 90 61 60
        E 80 80 1b 00
        E 0 80 61 00
        E 0 90 18 60
        E 0 90 2c 60
        E 0 90 40 60
        E 0 90 48 60
        E 0 90 4c 60
        E 0 90 54 60
        E 0 90 58 60
        E 0 90 60 60
        E 0 90 64 60
        E 80 80 18 00
        E 0 80 2c 00
        E 0 80 40 00
        E 0 80 48 00
        E 0 80 4c 00
        E 0 80 54 00
        E 0 80 58 00
        E 0 80 60 00
        E 0 80 64 00
        E 80 90 18 60
        E 0 90 1f 60
        E 0 90 60 60
        E 0 90 62 60
        E 80 80 18 00
        E 0 80 1f 00
        E 0 80 60 00
        E 0 80 62 00
        E 80 90 18 60
        E 0 90 1e 60
        E 0 90 60 60
        E 0 90 62 60
        E 80 80 18 00
        E 0 80 1e 00
        E 0 80 60 00
        E 0 80 62 00
        E 0 90 18 60
        E 0 90 60 60
        E 80 80 18 00
        E 0 80 60 00
        E 0 90 1a 60
        E 0 90 1f 60
        E 0 90 3d 60
        E 0 90 49 60
        E 0 90 4a 60
        E 0 90 55 60
        E 0 90 56 60
        E 0 90 61 60
        E 0 90 62 60
        E 80 80 1a 00
        E 0 80 1f 00
        E 0 80 3d 00
        E 0 80 49 00
        E 0 80 4a 00
        E 0 80 55 00
        E 0 80 56 00
        E 0 80 61 00
        E 0 80 62 00
        E 80 90 1e 60
        E 0 90 62 60
        E 80 80 1e 00
        E 0 80 62 00
        E 80 90 18 60
        E 0 90 1f 60
        E 0 90 60 60
        E 0 90 62 60
        E 80 80 18 00
        E 0 80 1f 00
        E 0 80 60 00
        E 0 80 62 00
        E 80 90 18 60
        E 0 90 1e 60
        E 0 90 3e 60
        E 0 90 48 60
        E 0 90 4a 60
        E 0 90 54 60
        E 0 90 56 60
        E 0 90 60 60
        E 0 90 62 60
        E 80 80 18 00
        E 0 80 1e 00
        E 0 80 3e 00
        E 0 80 48 00
        E 0 80 4a 00
        E 0 80 54 00
        E 0 80 56 00
        E 0 80 60 00
        E 0 80 62 00
        E 80 90 18 60
        E 0 90 1f 60
        E 0 90 60 60
        E 0 90 62 60
        E 80 80 18 00
        E 0 80 1f 00
        E 0 80 60 00
        E 0 80 62 00
        E 80 90 1e 60
        E 0 90 62 60
        E 80 80 1e 00
        E 0 80 62 00
        E 0 90 18 60
        E 0 90 60 60
        E 80 80 18 00
        E 0 80 60 00
        E 0 90 1a 60
        E 0 90 1f 60
        E 0 90 3d 60
        E 0 90 49 60
        E 0 90 4a 60
        E 0 90 55 60
        E 0 90 56 60
        E 0 90 61 60
        E 0 90 62 60
        E 80 80 1a 00
        E 0 80 1f 00
        E 0 80 3d 00
        E 0 80 49 00
        E 0 80 4a 00
        E 0 80 55 00
        E 0 80 56 00
        E 0 80 61 00
        E 0 80 62 00
        E 80 90 1e 60
        E 0 90 62 60
        E 80 80 1e 00
        E 0 80 62 00
        E 80 90 18 60
        E 0 90 1f 60
        E 0 90 60 60
        E 0 90 62 60
        E 80 80 18 00
        E 0 80 1f 00
        E 0 80 60 00
        E 0 80 62 00
        E 80 90 18 60
        E 0 90 1e 60
        E 0 90 3e 60
        E 0 90 48 60
        E 0 90 4a 60
        E 0 90 54 60
        E 0 90 56 60
        E 0 90 60 60
        E 0 90 62 60
        E 80 80 18 00
        E 0 80 1e 00
        E 0 80 3e 00
        E 0 80 48 00
        E 0 80 4a 00
        E 0 80 54 00
        E 0 80 56 00
        E 0 80 60 00
        E 0 80 62 00
        E 80 90 18 60
        E 0 90 1f 60
        E 0 90 60 60
        E 0 90 62 60
        E 80 80 18 00
        E 0 80 1f 00
        E 0 80 60 00
        E 0 80 62 00
        E 80 90 1e 60
        E 0 90 62 60
        E 80 80 1e 00
        E 0 80 62 00
        E 0 90 18 60
        E 0 90 60 60
        E 80 80 18 00
        E 0 80 60 00
        E 0 90 1a 60
        E 0 90 1f 60
        E 0 90 3d 60
        E 0 90 49 60
        E 0 90 4a 60
        E 0 90 55 60
        E 0 90 56 60
        E 0 90 61 60
        E 0 90 62 60
        E 80 80 1a 00
        E 0 80 1f 00
        E 0 80 3d 00
        E 0 80 49 00
        E 0 80 4a 00
        E 0 80 55 00
        E 0 80 56 00
        E 0 80 61 00
        E 0 80 62 00
        E 80 90 1e 60
        E 0 90 62 60
        E 80 80 1e 00
        E 0 80 62 00
        E 80 90 18 60
        E 0 90 1f 60
        E 0 90 60 60
        E 0 90 62 60
        E 80 80 18 00
        E 0 80 1f 00
        E 0 80 60 00
        E 0 80 62 00
        E 80 90 18 60
        E 0 90 1e 60
        E 0 90 3e 60
        E 0 90 48 60
        E 0 90 4a 60
        E 0 90 54 60
        E 0 90 56 60
        E 0 90 60 60
        E 0 90 62 60
        E 0 90 78 60
        E 0 90 79 60
        E 0 90 7a 60
        E 0 90 7b 60
        E 0 90 7c 60
        E 80 80 18 00
        E 0 80 1e 00
        E 0 80 3e 00
        E 0 80 48 00
        E 0 80 4a 00
        E 0 80 54 00
        E 0 80 56 00
        E 0 80 60 00
        E 0 80 62 00
        E 80 90 1b 60
        E 0 90 61 60
        E 80 80 1b 00
        E 0 80 61 00
        E 0 90 1a 60
        E 0 90 55 60
        E 0 90 61 60
        E 80 80 1a 00
        E 0 80 55 00
        E 0 80 61 00
        E 0 90 1b 60
        E 0 90 61 60
        E 80 80 1b 00
        E 0 80 61 00
        E 0 90 1a 60
        E 0 90 61 60
        E 80 80 1a 00
        E 0 80 61 00
        E 0 90 1b 60
        E 0 90 3d 60
        E 0 90 49 60
        E 0 90 55 60
        E 0 90 61 60
        E 80 80 1b 00
        E 0 80 3d 00
        E 0 80 49 00
        E 0 80 55 00
        E 0 80 61 00
        E 0 90 1a 60
        E 0 90 61 60
        E 80 80 1a 00
        E 0 80 61 00
        E 0 90 1b 60
        E 0 90 61 60
        E 80 80 1b 00
        E 0 80 61 00
        E 0 90 1a 60
        E 0 90 55 60
        E 0 90 61 60
        E 80 80 1a 00
        E 0 80 55 00
        E 0 80 61 00
        E 0 90 1b 60
        E 0 90 61 60
        E 80 80 1b 00
        E 0 80 61 00
        E 0 90 1a 60
        E 0 90 61 60
        E 80 80 1a 00
        E 0 80 61 00
        E 0 90 18 60
        E 0 90 26 60
        E 0 90 40 60
        E 0 90 48 60
        E 0 90 4c 60
        E 0 90 54 60
        E 0 90 58 60
        E 0 90 60 60
        E 0 90 64 60
        E 1 80 78 00
        E 0 80 79 00
        E 0 80 7a 00
        E 0 80 7b 00
        E 0 80 7c 00
        E 79 80 18 00
        E 0 80 26 00
        E 0 80 40 00
        E 0 80 48 00
        E 0 80 4c 00
        E 0 80 54 00
        E 0 80 58 00
        E 0 80 60 00
        E 0 80 64 00
        E 80 90 18 60
        E 0 90 1a 60
        E 0 90 61 60
        E 0 90 7e 60
        E 80 80 18 00
        E 0 80 1a 00
        E 0 80 61 00
        E 0 90 1b 60
        E 0 90 55 60
        E 0 90 61 60
        E 80 80 1b 00
        E 0 80 55 00
        E 0 80 61 00
        E 0 90 18 60
        E 0 90 1a 60
        E 0 90 61 60
        E 80 80 18 00
        E 0 80 1a 00
        E 0 80 61 00
        E 0 90 1b 60
        E 0 90 61 60
        E 80 80 1b 00
        E 0 80 61 00
        E 0 90 18 60
        E 0 90 1a 60
        E 0 90 3d 60
        E 0 90 49 60
        E 0 90 54 60
        E 0 90 55 60
        E 0 90 60 60
        E 0 90 61 60
        E 80 80 18 00
        E 0 80 1a 00
        E 0 80 3d 00
        E 0 80 49 00
        E 0 80 54 00
        E 0 80 55 00
        E 0 80 60 00
        E 0 80 61 00
        E 0 90 1b 60
        E 0 90 61 60
        E 80 80 1b 00
        E 0 80 61 00
        E 0 90 18 60
        E 0 90 1a 60
        E 0 90 61 60
        E 80 80 18 00
        E 0 80 1a 00
        E 0 80 61 00
        E 0 90 1b 60
        E 0 90 55 60
        E 0 90 61 60
        E 80 80 1b 00
        E 0 80 55 00
        E 0 80 61 00
        E 0 90 18 60
        E 0 90 1a 60
        E 0 90 61 60
        E 80 80 18 00
        E 0 80 1a 00
        E 0 80 61 00
        E 0 90 1b 60
        E 0 90 61 60
        E 80 80 1b 00
        E 0 80 61 00
        E 0 90 18 60
        E 0 90 1a 60
        E 0 90 3d 60
        E 0 90 49 60
        E 0 90 54 60
        E 0 90 55 60
        E 0 90 60 60
        E 0 90 61 60
        E 80 80 18 00
        E 0 80 1a 00
        E 0 80 3d 00
        E 0 80 49 00
        E 0 80 54 00
        E 0 80 55 00
        E 0 80 60 00
        E 0 80 61 00
        E 0 90 1b 60
        E 0 90 61 60
        E 80 80 1b 00
        E 0 80 61 00
        E 0 90 18 60
        E 0 90 1a 60
        E 0 90 61 60
        E 80 80 18 00
        E 0 80 1a 00
        E 0 80 61 00
        E 0 90 1b 60
        E 0 90 55 60
        E 0 90 61 60
        E 80 80 1b 00
        E 0 80 55 00
        E 0 80 61 00
        E 0 90 18 60
        E 0 90 1a 60
        E 0 90 61 60
        E 80 80 18 00
        E 0 80 1a 00
        E 0 80 61 00
        E 0 90 1b 60
        E 0 90 61 60
        E 80 80 1b 00
        E 0 80 61 00
        E 0 90 18 60
        E 0 90 1a 60
        E 0 90 3d 60
        E 0 90 49 60
        E 0 90 54 60
        E 0 90 55 60
        E 0 90 60 60
        E 0 90 61 60
        E 80 80 18 00
        E 0 80 1a 00
        E 0 80 3d 00
        E 0 80 49 00
        E 0 80 54 00
        E 0 80 55 00
        E 0 80 60 00
        E 0 80 61 00
        E 0 90 1b 60
        E 0 90 61 60
        E 80 80 1b 00
        E 0 80 61 00
        E 0 90 18 60
        E 0 90 1a 60
        E 0 90 61 60
        E 80 80 18 00
        E 0 80 1a 00
        E 0 80 61 00
        E 0 90 1b 60
        E 0 90 55 60
        E 0 90 61 60
        E 80 80 1b 00
        E 0 80 55 00
        E 0 80 61 00
        E 0 90 18 60
        E 0 90 1a 60
        E 0 90 61 60
        E 80 80 18 00
        E 0 80 1a 00
        E 0 80 61 00
        E 0 90 1b 60
        E 0 90 61 60
        E 80 80 1b 00
        E 0 80 61 00
        E 0 90 18 60
        E 0 90 1a 60
        E 0 90 3d 60
        E 0 90 49 60
        E 0 90 54 60
        E 0 90 55 60
        E 0 90 60 60
        E 0 90 61 60
        E 80 80 18 00
        E 0 80 1a 00
        E 0 80 3d 00
        E 0 80 49 00
        E 0 80 54 00
        E 0 80 55 00
        E 0 80 60 00
        E 0 80 61 00
        E 0 90 1b 60
        E 0 90 61 60
        E 80 80 1b 00
        E 0 80 61 00
        E 0 90 18 60
        E 0 90 1a 60
        E 0 90 61 60
        E 80 80 18 00
        E 0 80 1a 00
        E 0 80 61 00
        E 0 90 1b 60
        E 0 90 55 60
        E 0 90 61 60
        E 80 80 1b 00
        E 0 80 55 00
        E 0 80 61 00
        E 0 90 18 60
        E 0 90 1a 60
        E 0 90 61 60
        E 80 80 18 00
        E 0 80 1a 00
        E 0 80 61 00
        E 0 90 1b 60
        E 0 90 61 60
        E 80 80 1b 00
        E 0 80 61 00
        E 0 90 18 60
        E 0 90 1a 60
        E 0 90 3d 60
        E 0 90 49 60
        E 0 90 54 60
        E 0 90 55 60
        E 0 90 60 60
        E 0 90 61 60
        E 80 80 18 00
        E 0 80 1a 00
        E 0 80 3d 00
        E 0 80 49 00
        E 0 80 54 00
        E 0 80 55 00
        E 0 80 60 00
        E 0 80 61 00
        E 0 90 1b 60
        E 0 90 61 60
        E 80 80 1b 00
        E 0 80 61 00
        E 0 90 18 60
        E 0 90 1a 60
        E 0 90 61 60
        E 80 80 18 00
        E 0 80 1a 00
        E 0 80 61 00
        E 0 90 1b 60
        E 0 90 55 60
        E 0 90 61 60
        E 80 80 1b 00
        E 0 80 55 00
        E 0 80 61 00
        E 0 90 18 60
        E 0 90 1a 60
        E 0 90 61 60
        E 80 80 18 00
        E 0 80 1a 00
        E 0 80 61 00
        E 0 90 1b 60
        E 0 90 61 60
        E 80 80 1b 00
        E 0 80 61 00
        E 0 90 18 60
        E 0 90 1a 60
        E 0 90 3d 60
        E 0 90 49 60
        E 0 90 54 60
        E 0 90 55 60
        E 0 90 60 60
        E 0 90 61 60
        E 80 80 18 00
        E 0 80 1a 00
        E 0 80 3d 00
        E 0 80 49 00
        E 0 80 54 00
        E 0 80 55 00
        E 0 80 60 00
        E 0 80 61 00
        E 0 90 1b 60
        E 0 90 61 60
        E 80 80 1b 00
        E 0 80 61 00
        E 0 90 18 60
        E 0 90 1a 60
        E 0 90 61 60
        E 80 80 18 00
        E 0 80 1a 00
        E 0 80 61 00
        E 0 90 1b 60
        E 0 90 55 60
        E 0 90 61 60
        E 80 80 1b 00
        E 0 80 55 00
        E 0 80 61 00
        E 0 90 18 60
        E 0 90 1a 60
        E 0 90 61 60
        E 80 80 18 00
        E 0 80 1a 00
        E 0 80 61 00
        E 0 90 1b 60
        E 0 90 61 60
        E 80 80 1b 00
        E 0 80 61 00
        E 0 90 18 60
        E 0 90 1a 60
        E 0 90 3d 60
        E 0 90 49 60
        E 0 90 54 60
        E 0 90 55 60
        E 0 90 60 60
        E 0 90 61 60
        E 80 80 18 00
        E 0 80 1a 00
        E 0 80 3d 00
        E 0 80 49 00
        E 0 80 54 00
        E 0 80 55 00
        E 0 80 60 00
        E 0 80 61 00
        E 0 90 1b 60
        E 0 90 61 60
        E 80 80 1b 00
        E 0 80 61 00
        E 0 90 18 60
        E 0 90 1a 60
        E 0 90 61 60
        E 80 80 18 00
        E 0 80 1a 00
        E 0 80 61 00
        E 0 90 1b 60
        E 0 90 55 60
        E 0 90 61 60
        E 80 80 1b 00
        E 0 80 55 00
        E 0 80 61 00
        E 0 90 18 60
        E 0 90 1a 60
        E 0 90 61 60
        E 80 80 18 00
        E 0 80 1a 00
        E 0 80 61 00
        E 0 90 1b 60
        E 0 90 61 60
        E 80 80 7e 00
        E 0 80 1b 00
        E 0 80 61 00
        E 0 90 18 60
        E 0 90 2e 60
        E 0 90 3e 60
        E 0 90 4a 60
        E 0 90 54 60
        E 0 90 56 60
        E 0 90 60 60
        E 0 90 62 60
        E 0 90 6e 60
        E 80 80 18 00
        E 0 80 2e 00
        E 0 80 3e 00
        E 0 80 4a 00
        E 0 80 54 00
        E 0 80 56 00
        E 0 80 60 00
        E 0 80 62 00
        E 0 80 6e 00
        E 0 90 1b 60
        E 0 90 61 60
        E 80 80 1b 00
        E 0 80 61 00
        E 0 90 1a 60
        E 0 90 61 60
        E 80 80 1a 00
        E 0 80 61 00
        E 0 90 1b 60
        E 0 90 55 60
        E 0 90 61 60
        E 80 80 1b 00
        E 0 80 55 00
        E 0 80 61 00
        E 0 90 1a 60
        E 0 90 61 60
        E 80 80 1a 00
        E 0 80 61 00
        E 0 90 1b 60
        E 0 90 61 60
        E 80 80 1b 00
        E 0 80 61 00
        E 0 90 2e 60
        E 0 90 3e 60
        E 0 90 4a 60
        E 0 90 56 60
        E 0 90 62 60
        E 0 90 6e 60
        E 80 80 2e 00
        E 0 80 3e 00
        E 0 80 4a 00
        E 0 80 56 00
        E 0 80 62 00
        E 0 80 6e 00
        E 0 90 1b 60
        E 0 90 61 60
        E 80 80 1b 00
        E 0 80 61 00
        E 0 90 1a 60
        E 0 90 61 60
        E 80 80 1a 00
        E 0 80 61 00
        E 0 90 1b 60
        E 0 90 55 60
        E 0 90 61 60
        E 80 80 1b 00
        E 0 80 55 00
        E 0 80 61 00
        E 0 90 1a 60
        E 0 90 61 60
        E 80 80 1a 00
        E 0 80 61 00
        E 0 90 1b 60
        E 0 90 61 60
        E 80 80 1b 00
        E 0 80 61 00
        E 0 90 2e 60
        E 0 90 3e 60
        E 0 90 4a 60
        E 0 90 56 60
        E 0 90 62 60
        E 0 90 6e 60
        E 80 80 2e 00
        E 0 80 3e 00
        E 0 80 4a 00
        E 0 80 56 00
        E 0 80 62 00
        E 0 80 6e 00
        E 0 90 1b 60
        E 0 90 61 60
        E 80 80 1b 00
        E 0 80 61 00
        E 0 90 1a 60
        E 0 90 61 60
        E 80 80 1a 00
        E 0 80 61 00
        E 0 90 1b 60
        E 0 90 55 60
        E 0 90 61 60
        E 80 80 1b 00
        E 0 80 55 00
        E 0 80 61 00
        E 0 90 1a 60
        E 0 90 61 60
        E 80 80 1a 00
        E 0 80 61 00
        E 0 90 1b 60
        E 0 90 61 60
        E 80 80 1b 00
        E 0 80 61 00
        E 0 90 2e 60
        E 0 90 3e 60
        E 0 90 4a 60
        E 0 90 56 60
        E 0 90 62 60
        E 0 90 6e 60
        E 80 80 2e 00
        E 0 80 3e 00
        E 0 80 4a 00
        E 0 80 56 00
        E 0 80 62 00
        E 0 80 6e 00
        E 0 90 1b 60
        E 0 90 61 60
        E 80 80 1b 00
        E 0 80 61 00
        E 0 90 1a 60
        E 0 90 61 60
        E 80 80 1a 00
        E 0 80 61 00
        E 0 90 1b 60
        E 0 90 55 60
        E 0 90 61 60
        E 80 80 1b 00
        E 0 80 55 00
        E 0 80 61 00
        E 0 90 1a 60
        E 0 90 61 60
        E 80 80 1a 00
        E 0 80 61 00
        E 0 90 1b 60
        E 0 90 61 60
        E 80 80 1b 00
        E 0 80 61 00
        E 0 90 1a 60
        E 0 90 3d 60
        E 0 90 49 60
        E 0 90 55 60
        E 0 90 61 60
        E 80 80 1a 00
        E 0 80 3d 00
        E 0 80 49 00
        E 0 80 55 00
        E 0 80 61 00
        E 0 90 1b 60
        E 0 90 61 60
        E 80 80 1b 00
        E 0 80 61 00
        E 0 90 2e 60
        E 0 90 62 60
        E 0 90 6e 60
        E 80 80 2e 00
        E 0 80 62 00
        E 0 80 6e 00
        E 0 90 2f 60
        E 0 90 56 60
        E 0 90 62 60
        E 0 90 6e 60
        E 80 80 2f 00
        E 0 80 56 00
        E 0 80 62 00
        E 0 80 6e 00
        E 0 90 2e 60
        E 0 90 62 60
        E 0 90 6e 60
        E 80 80 2e 00
        E 0 80 62 00
        E 0 80 6e 00
        E 0 90 2f 60
        E 0 90 62 60
        E 0 90 6e 60
        E 80 80 2f 00
        E 0 80 62 00
        E 0 80 6e 00
        E 0 90 1a 60
        E 0 90 3d 60
        E 0 90 49 60
        E 0 90 55 60
        E 0 90 61 60
        E 80 80 1a 00
        E 0 80 3d 00
        E 0 80 49 00
        E 0 80 55 00
        E 0 80 61 00
        E 0 90 1b 60
        E 0 90 61 60
        E 80 80 1b 00
        E 0 80 61 00
        E 0 90 2e 60
        E 0 90 62 60
        E 0 90 6e 60
        E 80 80 2e 00
        E 0 80 62 00
        E 0 80 6e 00
        E 0 90 2f 60
        E 0 90 56 60
        E 0 90 62 60
        E 0 90 6e 60
        E 80 80 2f 00
        E 0 80 56 00
        E 0 80 62 00
        E 0 80 6e 00
        E 0 90 2e 60
        E 0 90 62 60
        E 0 90 6e 60
        E 80 80 2e 00
        E 0 80 62 00
        E 0 80 6e 00
        E 0 90 2f 60
        E 0 90 62 60
        E 0 90 6e 60
        E 80 80 2f 00
        E 0 80 62 00
        E 0 80 6e 00
        E 0 90 1a 60
        E 0 90 3d 60
        E 0 90 49 60
        E 0 90 55 60
        E 0 90 61 60
        E 80 80 1a 00
        E 0 80 3d 00
        E 0 80 49 00
        E 0 80 55 00
        E 0 80 61 00
        E 0 90 1b 60
        E 0 90 61 60
        E 80 80 1b 00
        E 0 80 61 00
        E 0 90 1a 60
        E 0 90 61 60
        E 80 80 1a 00
        E 0 80 61 00
        E 0 90 1b 60
        E 0 90 55 60
        E 0 90 61 60
        E 80 80 1b 00
        E 0 80 55 00
        E 0 80 61 00
        E 0 90 1a 60
        E 0 90 61 60
        E 80 80 1a 00
        E 0 80 61 00
        E 0 90 1b 60
        E 0 90 61 60
        E 80 80 1b 00
        E 0 80 61 00
        E 0 90 1a 60
        E 0 90 3d 60
        E 0 90 49 60
        E 0 90 55 60
        E 0 90 61 60
        E 80 80 1a 00
        E 0 80 3d 00
        E 0 80 49 00
        E 0 80 55 00
        E 0 80 61 00
        E 0 90 1b 60
        E 0 90 61 60
        E 80 80 1b 00
        E 0 80 61 00
        E 0 90 2e 60
        E 0 90 62 60
        E 0 90 6e 60
        E 80 80 2e 00
        E 0 80 62 00
        E 0 80 6e 00
        E 0 90 2f 60
        E 0 90 56 60
        E 0 90 62 60
        E 0 90 6e 60
        E 80 80 2f 00
        E 0 80 56 00
        E 0 80 62 00
        E 0 80 6e 00
        E 0 90 2e 60
        E 0 90 62 60
        E 0 90 6e 60
        E 80 80 2e 00
        E 0 80 62 00
        E 0 80 6e 00
        E 0 90 2f 60
        E 0 90 62 60
        E 0 90 6e 60
        E 80 80 2f 00
        E 0 80 62 00
        E 0 80 6e 00
        E 0 90 18 60
        E 0 90 2c 60
        E 0 90 40 60
        E 0 90 48 60
        E 0 90 4c 60
        E 0 90 54 60
        E 0 90 58 60
        E 0 90 60 60
        E 0 90 64 60
        E 80 80 18 00
        E 0 80 2c 00
        E 0 80 40 00
        E 0 80 48 00
        E 0 80 4c 00
        E 0 80 54 00
        E 0 80 58 00
        E 0 80 60 00
        E 0 80 64 00
        E 240 90 18 60
        E 0 90 60 60
        E 80 80 18 00
        E 0 80 60 00
        E 80 90 1a 60
        E 0 90 2a 60
        E 0 90 3d 60
        E 0 90 49 60
        E 0 90 4b 60
        E 0 90 55 60
        E 0 90 57 60
        E 0 90 61 60
        E 0 90 63 60
        E 80 80 1a 00
        E 0 80 2a 00
        E 0 80 3d 00
        E 0 80 49 00
        E 0 80 4b 00
        E 0 80 55 00
        E 0 80 57 00
        E 0 80 61 00
        E 0 80 63 00
        E 240 90 18 60
        E 0 90 60 60
        E 80 80 18 00
        E 0 80 60 00
        E 80 90 18 60
        E 0 90 2a 60
        E 0 90 3f 60
        E 0 90 48 60
        E 0 90 4b 60
        E 0 90 54 60
        E 0 90 57 60
        E 0 90 60 60
        E 0 90 63 60
        E 80 80 18 00
        E 0 80 2a 00
        E 0 80 3f 00
        E 0 80 48 00
        E 0 80 4b 00
        E 0 80 54 00
        E 0 80 57 00
        E 0 80 60 00
        E 0 80 63 00
        E 240 90 18 60
        E 0 90 60 60
        E 80 80 18 00
        E 0 80 60 00
        E 80 90 1a 60
        E 0 90 2a 60
        E 0 90 3d 60
        E 0 90 49 60
        E 0 90 4b 60
        E 0 90 55 60
        E 0 90 57 60
        E 0 90 61 60
        E 0 90 63 60
        E 80 80 1a 00
        E 0 80 2a 00
        E 0 80 3d 00
        E 0 80 49 00
        E 0 80 4b 00
        E 0 80 55 00
        E 0 80 57 00
        E 0 80 61 00
        E 0 80 63 00
        E 240 90 18 60
        E 0 90 60 60
        E 80 80 18 00
        E 0 80 60 00
        E 80 90 18 60
        E 0 90 2a 60
        E 0 90 3f 60
        E 0 90 48 60
        E 0 90 4b 60
        E 0 90 54 60
        E 0 90 57 60
        E 0 90 60 60
        E 0 90 63 60
        E 80 80 18 00
        E 0 80 2a 00
        E 0 80 3f 00
        E 0 80 48 00
        E 0 80 4b 00
        E 0 80 54 00
        E 0 80 57 00
        E 0 80 60 00
        E 0 80 63 00
        E 240 90 18 60
        E 0 90 60 60
        E 80 80 18 00
        E 0 80 60 00
        E 80 90 1a 60
        E 0 90 2a 60
        E 0 90 3d 60
        E 0 90 49 60
        E 0 90 4b 60
        E 0 90 55 60
        E 0 90 57 60
        E 0 90 61 60
        E 0 90 63 60
        E 80 80 1a 00
        E 0 80 2a 00
        E 0 80 3d 00
        E 0 80 49 00
        E 0 80 4b 00
        E 0 80 55 00
        E 0 80 57 00
        E 0 80 61 00
        E 0 80 63 00
        E 240 90 18 60
        E 0 90 60 60
        E 80 80 18 00
        E 0 80 60 00
        E 80 90 18 60
        E 0 90 2a 60
        E 0 90 3f 60
        E 0 90 48 60
        E 0 90 4b 60
        E 0 90 54 60
        E 0 90 57 60
        E 0 90 60 60
        E 0 90 63 60
        E 80 80 18 00
        E 0 80 2a 00
        E 0 80 3f 00
        E 0 80 48 00
        E 0 80 4b 00
        E 0 80 54 00
        E 0 80 57 00
        E 0 80 60 00
        E 0 80 63 00
        E 80 90 1a 60
        E 0 90 61 60
        E 80 80 1a 00
        E 0 80 61 00
        E 80 90 1b 60
        E 0 90 61 60
        E 80 80 1b 00
        E 0 80 61 00
        E 0 90 1a 60
        E 0 90 61 60
        E 80 80 1a 00
        E 0 80 61 00
        E 0 90 1b 60
        E 0 90 3d 60
        E 0 90 49 60
        E 0 90 55 60
        E 0 90 61 60
        E 80 80 1b 00
        E 0 80 3d 00
        E 0 80 49 00
        E 0 80 55 00
        E 0 80 61 00
        E 0 90 1a 60
        E 0 90 61 60
        E 80 80 1a 00
        E 0 80 61 00
        E 0 90 1b 60
        E 0 90 61 60
        E 80 80 1b 00
        E 0 80 61 00
        E 0 90 1a 60
        E 0 90 55 60
        E 0 90 61 60
        E 80 80 1a 00
        E 0 80 55 00
        E 0 80 61 00
        E 0 90 1b 60
        E 0 90 61 60
        E 80 80 1b 00
        E 0 80 61 00
        E 0 90 1a 60
        E 0 90 61 60
        E 80 80 1a 00
        E 0 80 61 00
        E 0 90 18 60
        E 0 90 26 60
        E 0 90 40 60
        E 0 90 48 60
        E 0 90 4c 60
        E 0 90 54 60
        E 0 90 58 60
        E 0 90 60 60
        E 0 90 64 60
        E 0 90 74 60
        E 80 80 18 00
        E 0 80 26 00
        E 0 80 40 00
        E 0 80 48 00
        E 0 80 4c 00
        E 0 80 54 00
        E 0 80 58 00
        E 0 80 60 00
        E 0 80 64 00
        E 240 90 18 60
        E 0 90 60 60
        E 80 80 18 00
        E 0 80 60 00
        E 80 90 1a 60
        E 0 90 2a 60
        E 0 90 3d 60
        E 0 90 49 60
        E 0 90 4b 60
        E 0 90 55 60
        E 0 90 57 60
        E 0 90 61 60
        E 0 90 63 60
        E 80 80 1a 00
        E 0 80 2a 00
        E 0 80 3d 00
        E 0 80 49 00
        E 0 80 4b 00
        E 0 80 55 00
        E 0 80 57 00
        E 0 80 61 00
        E 0 80 63 00
        E 240 90 18 60
        E 0 90 60 60
        E 80 80 18 00
        E 0 80 60 00
        E 80 90 18 60
        E 0 90 2a 60
        E 0 90 3f 60
        E 0 90 48 60
        E 0 90 4b 60
        E 0 90 54 60
        E 0 90 57 60
        E 0 90 60 60
        E 0 90 63 60
        E 80 80 18 00
        E 0 80 2a 00
        E 0 80 3f 00
        E 0 80 48 00
        E 0 80 4b 00
        E 0 80 54 00
        E 0 80 57 00
        E 0 80 60 00
        E 0 80 63 00
        E 240 90 18 60
        E 0 90 60 60
        E 80 80 18 00
        E 0 80 60 00
        E 80 90 1a 60
        E 0 90 2a 60
        E 0 90 3d 60
        E 0 90 49 60
        E 0 90 4b 60
        E 0 90 55 60
        E 0 90 57 60
        E 0 90 61 60
        E 0 90 63 60
        E 80 80 1a 00
        E 0 80 2a 00
        E 0 80 3d 00
        E 0 80 49 00
        E 0 80 4b 00
        E 0 80 55 00
        E 0 80 57 00
        E 0 80 61 00
        E 0 80 63 00
        E 240 90 18 60
        E 0 90 60 60
        E 80 80 18 00
        E 0 80 60 00
        E 80 90 18 60
        E 0 90 2a 60
        E 0 90 3f 60
        E 0 90 48 60
        E 0 90 4b 60
        E 0 90 54 60
        E 0 90 57 60
        E 0 90 60 60
        E 0 90 63 60
        E 80 80 18 00
        E 0 80 2a 00
        E 0 80 3f 00
        E 0 80 48 00
        E 0 80 4b 00
        E 0 80 54 00
        E 0 80 57 00
        E 0 80 60 00
        E 0 80 63 00
        E 80 90 1a 60
        E 0 90 61 60
        E 80 80 1a 00
        E 0 80 61 00
        E 0 90 1b 60
        E 0 90 55 60
        E 0 90 61 60
        E 80 80 1b 00
        E 0 80 55 00
        E 0 80 61 00
        E 0 90 1a 60
        E 0 90 61 60
        E 80 80 1a 00
        E 0 80 61 00
        E 80 90 18 60
        E 0 90 2a 60
        E 0 90 3f 60
        E 0 90 48 60
        E 0 90 4b 60
        E 0 90 54 60
        E 0 90 57 60
        E 0 90 60 60
        E 0 90 63 60
        E 80 80 18 00
        E 0 80 2a 00
        E 0 80 3f 00
        E 0 80 48 00
        E 0 80 4b 00
        E 0 80 54 00
        E 0 80 57 00
        E 0 80 60 00
        E 0 80 63 00
        E 80 90 1a 60
        E 0 90 61 60
        E 80 80 1a 00
        E 0 80 61 00
        E 0 90 1b 60
        E 0 90 55 60
        E 0 90 61 60
        E 80 80 1b 00
        E 0 80 55 00
        E 0 80 61 00
        E 0 90 1a 60
        E 0 90 61 60
        E 80 80 1a 00
        E 0 80 61 00
        E 80 90 18 60
        E 0 90 26 60
        E 0 90 40 60
        E 0 90 48 60
        E 0 90 4c 60
        E 0 90 54 60
        E 0 90 58 60
        E 0 90 60 60
        E 0 90 64 60
        E 80 80 18 00
        E 0 80 26 00
        E 0 80 40 00
        E 0 80 48 00
        E 0 80 4c 00
        E 0 80 54 00
        E 0 80 58 00
        E 0 80 60 00
        E 0 80 64 00
        E 160 90 1b 60
        E 0 90 55 60
        E 0 90 61 60
        E 80 80 1b 00
        E 0 80 55 00
        E 0 80 61 00
        E 0 90 1a 60
        E 0 90 61 60
        E 80 80 1a 00
        E 0 80 61 00
        E 80 90 18 60
        E 0 90 26 60
        E 0 90 40 60
        E 0 90 48 60
        E 0 90 4c 60
        E 0 90 54 60
        E 0 90 58 60
        E 0 90 60 60
        E 0 90 64 60
        E 80 80 18 00
        E 0 80 26 00
        E 0 80 40 00
        E 0 80 48 00
        E 0 80 4c 00
        E 0 80 54 00
        E 0 80 58 00
        E 0 80 60 00
        E 0 80 64 00
        E 160 90 1b 60
        E 0 90 55 60
        E 0 90 61 60
        E 80 80 1b 00
        E 0 80 55 00
        E 0 80 61 00
        E 0 90 1a 60
        E 0 90 61 60
        E 80 80 1a 00
        E 0 80 61 00
        E 80 80 74 00
        E 0 90 2f 60
        E 0 90 3e 60
        E 0 90 4a 60
        E 0 90 56 60
        E 0 90 62 60
        E 0 90 6e 60
        E 80 80 2f 00
        E 0 80 3e 00
        E 0 80 4a 00
        E 0 80 56 00
        E 0 80 62 00
        E 0 80 6e 00
        E 0 90 2e 60
        E 0 90 62 60
        E 0 90 6e 60
        E 80 80 2e 00
        E 0 80 62 00
        E 0 80 6e 00
        E 0 90 31 60
        E 0 90 63 60
        E 0 90 6f 60
        E 80 80 31 00
        E 0 80 63 00
        E 0 80 6f 00
        E 0 90 30 60
        E 0 90 57 60
        E 0 90 63 60
        E 0 90 6f 60
        E 80 80 30 00
        E 0 80 57 00
        E 0 80 63 00
        E 0 80 6f 00
        E 0 90 18 60
        E 0 90 60 60
        E 80 80 18 00
        E 0 80 60 00
        E 80 90 1a 60
        E 0 90 26 60
        E 0 90 3d 60
        E 0 90 49 60
        E 0 90 4c 60
        E 0 90 55 60
        E 0 90 58 60
        E 0 90 61 60
        E 0 90 64 60
        E 80 80 1a 00
        E 0 80 26 00
        E 0 80 3d 00
        E 0 80 49 00
        E 0 80 4c 00
        E 0 80 55 00
        E 0 80 58 00
        E 0 80 61 00
        E 0 80 64 00
        E 240 90 18 60
        E 0 90 60 60
        E 80 80 18 00
        E 0 80 60 00
        E 80 90 18 60
        E 0 90 2a 60
        E 0 90 3f 60
        E 0 90 48 60
        E 0 90 4b 60
        E 0 90 54 60
        E 0 90 57 60
        E 0 90 60 60
        E 0 90 63 60
        E 80 80 18 00
        E 0 80 2a 00
        E 0 80 3f 00
        E 0 80 48 00
        E 0 80 4b 00
        E 0 80 54 00
        E 0 80 57 00
        E 0 80 60 00
        E 0 80 63 00
        E 240 90 18 60
        E 0 90 60 60
        E 80 80 18 00
        E 0 80 60 00
        E 80 90 1a 60
        E 0 90 2a 60
        E 0 90 3d 60
        E 0 90 49 60
        E 0 90 4b 60
        E 0 90 55 60
        E 0 90 57 60
        E 0 90 61 60
        E 0 90 63 60
        E 80 80 1a 00
        E 0 80 2a 00
        E 0 80 3d 00
        E 0 80 49 00
        E 0 80 4b 00
        E 0 80 55 00
        E 0 80 57 00
        E 0 80 61 00
        E 0 80 63 00
        E 240 90 2e 60
        E 0 90 62 60
        E 0 90 6e 60
        E 80 80 2e 00
        E 0 80 62 00
        E 0 80 6e 00
        E 80 90 18 60
        E 0 90 2a 60
        E 0 90 3f 60
        E 0 90 48 60
        E 0 90 4b 60
        E 0 90 54 60
        E 0 90 57 60
        E 0 90 60 60
        E 0 90 63 60
        E 80 80 18 00
        E 0 80 2a 00
        E 0 80 3f 00
        E 0 80 48 00
        E 0 80 4b 00
        E 0 80 54 00
        E 0 80 57 00
        E 0 80 60 00
        E 0 80 63 00
        E 80 90 18 60
        E 0 90 60 60
        E 80 80 18 00
        E 0 80 60 00
        E 80 90 18 60
        E 0 90 60 60
        E 80 80 18 00
        E 0 80 60 00
        E 0 90 18 60
        E 0 90 60 60
        E 80 80 18 00
        E 0 80 60 00
        E 0 90 1a 60
        E 0 90 26 60
        E 0 90 3d 60
        E 0 90 49 60
        E 0 90 4c 60
        E 0 90 55 60
        E 0 90 58 60
        E 0 90 61 60
        E 0 90 64 60
        E 80 80 1a 00
        E 0 80 26 00
        E 0 80 3d 00
        E 0 80 49 00
        E 0 80 4c 00
        E 0 80 55 00
        E 0 80 58 00
        E 0 80 61 00
        E 0 80 64 00
        E 240 90 18 60
        E 0 90 60 60
        E 80 80 18 00
        E 0 80 60 00
        E 80 90 18 60
        E 0 90 2a 60
        E 0 90 3f 60
        E 0 90 48 60
        E 0 90 4b 60
        E 0 90 54 60
        E 0 90 57 60
        E 0 90 60 60
        E 0 90 63 60
        E 0 90 78 60
        E 0 90 79 60
        E 0 90 7a 60
        E 0 90 7b 60
        E 0 90 7c 60
        E 80 80 18 00
        E 0 80 2a 00
        E 0 80 3f 00
        E 0 80 48 00
        E 0 80 4b 00
        E 0 80 54 00
        E 0 80 57 00
        E 0 80 60 00
        E 0 80 63 00
        E 240 90 18 60
        E 0 90 60 60
        E 80 80 18 00
        E 0 80 60 00
        E 0 90 18 60
        E 0 90 60 60
        E 80 80 18 00
        E 0 80 60 00
        E 0 90 1a 60
        E 0 90 26 60
        E 0 90 3d 60
        E 0 90 49 60
        E 0 90 4c 60
        E 0 90 55 60
        E 0 90 58 60
        E 0 90 61 60
        E 0 90 64 60
        E 80 80 1a 00
        E 0 80 26 00
        E 0 80 3d 00
        E 0 80 49 00
        E 0 80 4c 00
        E 0 80 55 00
        E 0 80 58 00
        E 0 80 61 00
        E 0 80 64 00
        E 80 90 1a 60
        E 0 90 61 60
        E 80 80 1a 00
        E 0 80 61 00
        E 0 90 1b 60
        E 0 90 55 60
        E 0 90 61 60
        E 80 80 1b 00
        E 0 80 55 00
        E 0 80 61 00
        E 0 90 1a 60
        E 0 90 61 60
        E 80 80 1a 00
        E 0 80 61 00
        E 0 90 1b 60
        E 0 90 61 60
        E 80 80 78 00
        E 0 80 79 00
        E 0 80 7a 00
        E 0 80 7b 00
        E 0 80 7c 00
        E 0 80 1b 00
        E 0 80 61 00
        E 0 90 18 60
        E 0 90 2c 60
        E 0 90 40 60
        E 0 90 48 60
        E 0 90 4c 60
        E 0 90 54 60
        E 0 90 58 60
        E 0 90 60 60
        E 0 90 64 60
        E 80 80 18 00
        E 0 80 2c 00
        E 0 80 40 00
        E 0 80 48 00
        E 0 80 4c 00
        E 0 80 54 00
        E 0 80 58 00
        E 0 80 60 00
        E 0 80 64 00
        E 240 90 18 60
        E 0 90 60 60
        E 80 80 18 00
        E 0 80 60 00
        E 80 90 1a 60
        E 0 90 2a 60
        E 0 90 3d 60
        E 0 90 49 60
        E 0 90 4b 60
        E 0 90 55 60
        E 0 90 57 60
        E 0 90 61 60
        E 0 90 63 60
        E 80 80 1a 00
        E 0 80 2a 00
        E 0 80 3d 00
        E 0 80 49 00
        E 0 80 4b 00
        E 0 80 55 00
        E 0 80 57 00
        E 0 80 61 00
        E 0 80 63 00
        E 240 90 18 60
        E 0 90 60 60
        E 80 80 18 00
        E 0 80 60 00
        E 80 90 18 60
        E 0 90 2a 60
        E 0 90 3f 60
        E 0 90 48 60
        E 0 90 4b 60
        E 0 90 54 60
        E 0 90 57 60
        E 0 90 60 60
        E 0 90 63 60
        E 80 80 18 00
        E 0 80 2a 00
        E 0 80 3f 00
        E 0 80 48 00
        E 0 80 4b 00
        E 0 80 54 00
        E 0 80 57 00
        E 0 80 60 00
        E 0 80 63 00
        E 80 90 18 60
        E 0 90 60 60
        E 80 80 18 00
        E 0 80 60 00
        E 80 90 18 60
        E 0 90 60 60
        E 80 80 18 00
        E 0 80 60 00
        E 80 90 1a 60
        E 0 90 2a 60
        E 0 90 3d 60
        E 0 90 49 60
        E 0 90 4b 60
        E 0 90 55 60
        E 0 90 57 60
        E 0 90 61 60
        E 0 90 63 60
        E 80 80 1a 00
        E 0 80 2a 00
        E 0 80 3d 00
        E 0 80 49 00
        E 0 80 4b 00
        E 0 80 55 00
        E 0 80 57 00
        E 0 80 61 00
        E 0 80 63 00
        E 240 90 18 60
        E 0 90 60 60
        E 80 80 18 00
        E 0 80 60 00
        E 80 90 1a 60
        E 0 90 2a 60
        E 0 90 3d 60
        E 0 90 49 60
        E 0 90 4b 60
        E 0 90 55 60
        E 0 90 57 60
        E 0 90 61 60
        E 0 90 63 60
        E 80 80 1a 00
        E 0 80 2a 00
        E 0 80 3d 00
        E 0 80 49 00
        E 0 80 4b 00
        E 0 80 55 00
        E 0 80 57 00
        E 0 80 61 00
        E 0 80 63 00
        E 80 90 18 60
        E 0 90 60 60
        E 80 80 18 00
        E 0 80 60 00
        E 80 90 18 60
        E 0 90 60 60
        E 80 80 18 00
        E 0 80 60 00
        E 80 90 1a 60
        E 0 90 2a 60
        E 0 90 3d 60
        E 0 90 49 60
        E 0 90 4b 60
        E 0 90 55 60
        E 0 90 57 60
        E 0 90 61 60
        E 0 90 63 60
        E 80 80 1a 00
        E 0 80 2a 00
        E 0 80 3d 00
        E 0 80 49 00
        E 0 80 4b 00
        E 0 80 55 00
        E 0 80 57 00
        E 0 80 61 00
        E 0 80 63 00
        E 80 90 18 60
        E 0 90 60 60
        E 80 80 18 00
        E 0 80 60 00
        E 80 90 18 60
        E 0 90 60 60
        E 80 80 18 00
        E 0 80 60 00
        E 80 90 1a 60
        E 0 90 26 60
        E 0 90 3d 60
        E 0 90 49 60
        E 0 90 4c 60
        E 0 90 55 60
        E 0 90 58 60
        E 0 90 61 60
        E 0 90 64 60
        E 0 90 78 60
        E 0 90 79 60
        E 0 90 7a 60
        E 0 90 7b 60
        E 0 90 7c 60
        E 80 80 1a 00
        E 0 80 26 00
        E 0 80 3d 00
        E 0 80 49 00
        E 0 80 4c 00
        E 0 80 55 00
        E 0 80 58 00
        E 0 80 61 00
        E 0 80 64 00
        E 80 90 18 60
        E 0 90 60 60
        E 80 80 18 00
        E 0 80 60 00
        E 80 90 18 60
        E 0 90 60 60
        E 80 80 18 00
        E 0 80 60 00
        E 80 90 18 60
        E 0 90 2a 60
        E 0 90 3f 60
        E 0 90 48 60
        E 0 90 4b 60
        E 0 90 54 60
        E 0 90 57 60
        E 0 90 60 60
        E 0 90 63 60
        E 80 80 18 00
        E 0 80 2a 00
        E 0 80 3f 00
        E 0 80 48 00
        E 0 80 4b 00
        E 0 80 54 00
        E 0 80 57 00
        E 0 80 60 00
        E 0 80 63 00
        E 80 90 1a 60
        E 0 90 61 60
        E 80 80 1a 00
        E 0 80 61 00
        E 80 90 1b 60
        E 0 90 61 60
        E 80 80 1b 00
        E 0 80 61 00
        E 80 90 18 60
        E 0 90 2c 60
        E 0 90 40 60
        E 0 90 48 60
        E 0 90 4c 60
        E 0 90 54 60
        E 0 90 58 60
        E 0 90 60 60
        E 0 90 64 60
        E 1 80 78 00
        E 0 80 79 00
        E 0 80 7a 00
        E 0 80 7b 00
        E 0 80 7c 00
        E 79 80 18 00
        E 0 80 2c 00
        E 0 80 40 00
        E 0 80 48 00
        E 0 80 4c 00
        E 0 80 54 00
        E 0 80 58 00
        E 0 80 60 00
        E 0 80 64 00
        E 240 90 18 60
        E 0 90 60 60
        E 80 80 18 00
        E 0 80 60 00
        E 80 90 18 60
        E 0 90 2a 60
        E 0 90 3f 60
        E 0 90 48 60
        E 0 90 4b 60
        E 0 90 54 60
        E 0 90 57 60
        E 0 90 60 60
        E 0 90 63 60
        E 80 80 18 00
        E 0 80 2a 00
        E 0 80 3f 00
        E 0 80 48 00
        E 0 80 4b 00
        E 0 80 54 00
        E 0 80 57 00
        E 0 80 60 00
        E 0 80 63 00
        E 240 90 18 60
        E 0 90 60 60
        E 80 80 18 00
        E 0 80 60 00
        E 0 90 18 60
        E 0 90 60 60
        E 80 80 18 00
        E 0 80 60 00
        E 0 90 1a 60
        E 0 90 26 60
        E 0 90 3d 60
        E 0 90 49 60
        E 0 90 4c 60
        E 0 90 55 60
        E 0 90 58 60
        E 0 90 61 60
        E 0 90 64 60
        E 80 80 1a 00
        E 0 80 26 00
        E 0 80 3d 00
        E 0 80 49 00
        E 0 80 4c 00
        E 0 80 55 00
        E 0 80 58 00
        E 0 80 61 00
        E 0 80 64 00
        E 400 90 18 60
        E 0 90 22 60
        E 0 90 26 60
        E 0 90 3e 60
        E 0 90 40 60
        E 0 90 48 60
        E 0 90 4a 60
        E 0 90 4c 60
        E 0 90 54 60
        E 0 90 56 60
        E 0 90 58 60
        E 0 90 60 60
        E 0 90 62 60
        E 0 90 64 60
        E 80 80 18 00
        E 0 80 22 00
        E 0 80 26 00
        E 0 80 3e 00
        E 0 80 40 00
        E 0 80 48 00
        E 0 80 4a 00
        E 0 80 4c 00
        E 0 80 54 00
        E 0 80 56 00
        E 0 80 58 00
        E 0 80 60 00
        E 0 80 62 00
        E 0 80 64 00
        E 400 90 18 60
        E 0 90 2a 60
        E 0 90 3f 60
        E 0 90 48 60
        E 0 90 4b 60
        E 0 90 54 60
        E 0 90 57 60
        E 0 90 60 60
        E 0 90 63 60
        E 80 80 18 00
        E 0 80 2a 00
        E 0 80 3f 00
        E 0 80 48 00
        E 0 80 4b 00
        E 0 80 54 00
        E 0 80 57 00
        E 0 80 60 00
        E 0 80 63 00
        E 240 90 18 60
        E 0 90 60 60
        E 80 80 18 00
        E 0 80 60 00
        E 80 90 18 60
        E 0 90 26 60
        E 0 90 40 60
        E 0 90 48 60
        E 0 90 4c 60
        E 0 90 54 60
        E 0 90 58 60
        E 0 90 60 60
        E 0 90 64 60
        E 80 80 18 00
        E 0 80 26 00
        E 0 80 40 00
        E 0 80 48 00
        E 0 80 4c 00
        E 0 80 54 00
        E 0 80 58 00
        E 0 80 60 00
        E 0 80 64 00
        E 80 90 18 60
        E 0 90 60 60
        E 80 80 18 00
        E 0 80 60 00
        E 80 90 18 60
        E 0 90 60 60
        E 80 80 18 00
        E 0 80 60 00
        E 80 90 1a 60
        E 0 90 2a 60
        E 0 90 3d 60
        E 0 90 49 60
        E 0 90 4b 60
        E 0 90 55 60
        E 0 90 57 60
        E 0 90 61 60
        E 0 90 63 60
        E 80 80 1a 00
        E 0 80 2a 00
        E 0 80 3d 00
        E 0 80 49 00
        E 0 80 4b 00
        E 0 80 55 00
        E 0 80 57 00
        E 0 80 61 00
        E 0 80 63 00
        E 80 90 18 60
        E 0 90 26 60
        E 0 90 60 60
        E 0 90 64 60
        E 80 80 18 00
        E 0 80 26 00
        E 0 80 60 00
        E 0 80 64 00
        E 240 90 18 60
        E 0 90 2a 60
        E 0 90 3f 60
        E 0 90 48 60
        E 0 90 4b 60
        E 0 90 54 60
        E 0 90 57 60
        E 0 90 60 60
        E 0 90 63 60
        E 80 80 18 00
        E 0 80 2a 00
        E 0 80 3f 00
        E 0 80 48 00
        E 0 80 4b 00
        E 0 80 54 00
        E 0 80 57 00
        E 0 80 60 00
        E 0 80 63 00
        E 240 90 18 60
        E 0 90 60 60
        E 80 80 18 00
        E 0 80 60 00
        E 0 90 18 60
        E 80 80 18 00
        E 0 90 18 60
        E 0 90 26 60
        E 0 90 40 60
        E 0 90 48 60
        E 0 90 4c 60
        E 0 90 54 60
        E 0 90 58 60
        E 0 90 60 60
        E 0 90 64 60
        E 80 80 18 00
        E 0 80 26 00
        E 0 80 40 00
        E 0 80 48 00
        E 0 80 4c 00
        E 0 80 54 00
        E 0 80 58 00
        E 0 80 60 00
        E 0 80 64 00
        E 400 90 18 60
        E 0 90 2a 60
        E 0 90 3f 60
        E 0 90 48 60
        E 0 90 4b 60
        E 0 90 54 60
        E 0 90 57 60
        E 0 90 60 60
        E 0 90 63 60
        E 80 80 18 00
        E 0 80 2a 00
        E 0 80 3f 00
        E 0 80 48 00
        E 0 80 4b 00
        E 0 80 54 00
        E 0 80 57 00
        E 0 80 60 00
        E 0 80 63 00
        E 240 90 18 60
        E 0 90 60 60
        E 80 80 18 00
        E 0 80 60 00
        E 80 90 1a 60
        E 0 90 26 60
        E 0 90 3d 60
        E 0 90 49 60
        E 0 90 4c 60
        E 0 90 55 60
        E 0 90 58 60
        E 0 90 61 60
        E 0 90 64 60
        E 80 80 1a 00
        E 0 80 26 00
        E 0 80 3d 00
        E 0 80 49 00
        E 0 80 4c 00
        E 0 80 55 00
        E 0 80 58 00
        E 0 80 61 00
        E 0 80 64 00
        E 240 90 1a 60
        E 0 90 26 60
        E 0 90 61 60
        E 0 90 64 60
        E 80 80 1a 00
        E 0 80 26 00
        E 0 80 61 00
        E 0 80 64 00
        E 80 90 18 60
        E 0 90 2a 60
        E 0 90 3f 60
        E 0 90 48 60
        E 0 90 4b 60
        E 0 90 54 60
        E 0 90 57 60
        E 0 90 60 60
        E 0 90 63 60
        E 80 80 18 00
        E 0 80 2a 00
        E 0 80 3f 00
        E 0 80 48 00
        E 0 80 4b 00
        E 0 80 54 00
        E 0 80 57 00
        E 0 80 60 00
        E 0 80 63 00
        E 80 90 1a 60
        E 0 90 61 60
        E 80 80 1a 00
        E 0 80 61 00
        E 80 90 1b 60
        E 0 90 61 60
        E 80 80 1b 00
        E 0 80 61 00
        E 80 90 18 60
        E 0 90 2c 60
        E 0 90 40 60
        E 0 90 48 60
        E 0 90 4c 60
        E 0 90 54 60
        E 0 90 58 60
        E 0 90 60 60
        E 0 90 64 60
        E 80 80 18 00
        E 0 80 2c 00
        E 0 80 40 00
        E 0 80 48 00
        E 0 80 4c 00
        E 0 80 54 00
        E 0 80 58 00
        E 0 80 60 00
        E 0 80 64 00
        E 400 90 18 60
        E 0 90 2a 60
        E 0 90 3f 60
        E 0 90 48 60
        E 0 90 4b 60
        E 0 90 54 60
        E 0 90 57 60
        E 0 90 60 60
        E 0 90 63 60
        E 80 80 18 00
        E 0 80 2a 00
        E 0 80 3f 00
        E 0 80 48 00
        E 0 80 4b 00
        E 0 80 54 00
        E 0 80 57 00
        E 0 80 60 00
        E 0 80 63 00
        E 240 90 18 60
        E 0 90 60 60
        E 80 80 18 00
        E 0 80 60 00
        E 0 90 18 60
        E 0 90 60 60
        E 80 80 18 00
        E 0 80 60 00
        E 0 90 1a 60
        E 0 90 26 60
        E 0 90 3d 60
        E 0 90 49 60
        E 0 90 4c 60
        E 0 90 55 60
        E 0 90 58 60
        E 0 90 61 60
        E 0 90 64 60
        E 80 80 1a 00
        E 0 80 26 00
        E 0 80 3d 00
        E 0 80 49 00
        E 0 80 4c 00
        E 0 80 55 00
        E 0 80 58 00
        E 0 80 61 00
        E 0 80 64 00
        E 80 90 18 60
        E 0 90 1e 60
        E 0 90 60 60
        E 0 90 62 60
        E 80 80 18 00
        E 0 80 1e 00
        E 0 80 60 00
        E 0 80 62 00
        E 80 90 1b 60
        E 0 90 61 60
        E 80 80 1b 00
        E 0 80 61 00
        E 0 90 1a 60
        E 0 90 61 60
        E 80 80 1a 00
        E 0 80 61 00
        E 0 90 1b 60
        E 0 90 3d 60
        E 0 90 49 60
        E 0 90 55 60
        E 0 90 61 60
        E 80 80 1b 00
        E 0 80 3d 00
        E 0 80 49 00
        E 0 80 55 00
        E 0 80 61 00
        E 0 90 1a 60
        E 0 90 61 60
        E 80 80 1a 00
        E 0 80 61 00
        E 0 90 18 60
        E 0 90 2a 60
        E 0 90 60 60
        E 0 90 63 60
        E 80 80 18 00
        E 0 80 2a 00
        E 0 80 60 00
        E 0 80 63 00
        E 0 90 18 60
        E 0 90 54 60
        E 80 80 18 00
        E 0 80 54 00
        E 0 90 18 60
        E 0 90 2a 60
        E 0 90 60 60
        E 0 90 63 60
        E 80 80 18 00
        E 0 80 2a 00
        E 0 80 60 00
        E 0 80 63 00
        E 0 90 18 60
        E 80 80 18 00
        E 0 90 18 60
        E 0 90 26 60
        E 0 90 40 60
        E 0 90 48 60
        E 0 90 4c 60
        E 0 90 54 60
        E 0 90 58 60
        E 0 90 60 60
        E 0 90 64 60
        E 0 90 74 60
        E 80 80 18 00
        E 0 80 26 00
        E 0 80 40 00
        E 0 80 48 00
        E 0 80 4c 00
        E 0 80 54 00
        E 0 80 58 00
        E 0 80 60 00
        E 0 80 64 00
        E 400 90 18 60
        E 0 90 1f 60
        E 0 90 3e 60
        E 0 90 48 60
        E 0 90 4a 60
        E 0 90 54 60
        E 0 90 56 60
        E 0 90 60 60
        E 0 90 62 60
        E 80 80 18 00
        E 0 80 1f 00
        E 0 80 3e 00
        E 0 80 48 00
        E 0 80 4a 00
        E 0 80 54 00
        E 0 80 56 00
        E 0 80 60 00
        E 0 80 62 00
        E 240 90 18 60
        E 0 90 60 60
        E 80 80 18 00
        E 0 80 60 00
        E 0 90 18 60
        E 0 90 60 60
        E 80 80 18 00
        E 0 80 60 00
        E 0 90 1a 60
        E 0 90 2a 60
        E 0 90 3d 60
        E 0 90 49 60
        E 0 90 4b 60
        E 0 90 55 60
        E 0 90 57 60
        E 0 90 61 60
        E 0 90 63 60
        E 80 80 1a 00
        E 0 80 2a 00
        E 0 80 3d 00
        E 0 80 49 00
        E 0 80 4b 00
        E 0 80 55 00
        E 0 80 57 00
        E 0 80 61 00
        E 0 80 63 00
        E 80 90 18 60
        E 0 90 26 60
        E 0 90 60 60
        E 0 90 64 60
        E 80 80 18 00
        E 0 80 26 00
        E 0 80 60 00
        E 0 80 64 00
        E 80 90 18 60
        E 0 90 60 60
        E 80 80 18 00
        E 0 80 60 00
        E 80 90 18 60
        E 0 90 26 60
        E 0 90 40 60
        E 0 90 48 60
        E 0 90 4c 60
        E 0 90 54 60
        E 0 90 58 60
        E 0 90 60 60
        E 0 90 64 60
        E 80 80 18 00
        E 0 80 26 00
        E 0 80 40 00
        E 0 80 48 00
        E 0 80 4c 00
        E 0 80 54 00
        E 0 80 58 00
        E 0 80 60 00
        E 0 80 64 00
        E 240 90 18 60
        E 0 90 60 60
        E 80 80 18 00
        E 0 80 60 00
        E 80 90 18 60
        E 0 90 1f 60
        E 0 90 3e 60
        E 0 90 48 60
        E 0 90 4a 60
        E 0 90 54 60
        E 0 90 56 60
        E 0 90 60 60
        E 0 90 62 60
        E 80 80 18 00
        E 0 80 1f 00
        E 0 80 3e 00
        E 0 80 48 00
        E 0 80 4a 00
        E 0 80 54 00
        E 0 80 56 00
        E 0 80 60 00
        E 0 80 62 00
        E 400 90 18 60
        E 0 90 26 60
        E 0 90 40 60
        E 0 90 48 60
        E 0 90 4c 60
        E 0 90 54 60
        E 0 90 58 60
        E 0 90 60 60
        E 0 90 64 60
        E 80 80 18 00
        E 0 80 26 00
        E 0 80 40 00
        E 0 80 48 00
        E 0 80 4c 00
        E 0 80 54 00
        E 0 80 58 00
        E 0 80 60 00
        E 0 80 64 00
        E 240 90 18 60
        E 0 90 60 60
        E 80 80 18 00
        E 0 80 60 00
        E 0 90 18 60
        E 0 90 60 60
        E 80 80 18 00
        E 0 80 60 00
        E 0 90 1a 60
        E 0 90 26 60
        E 0 90 3d 60
        E 0 90 49 60
        E 0 90 4c 60
        E 0 90 55 60
        E 0 90 58 60
        E 0 90 61 60
        E 0 90 64 60
        E 80 80 1a 00
        E 0 80 26 00
        E 0 80 3d 00
        E 0 80 49 00
        E 0 80 4c 00
        E 0 80 55 00
        E 0 80 58 00
        E 0 80 61 00
        E 0 80 64 00
        E 80 90 18 60
        E 0 90 60 60
        E 80 80 18 00
        E 0 80 60 00
        E 80 90 1a 60
        E 0 90 2a 60
        E 0 90 55 60
        E 0 90 57 60
        E 0 90 61 60
        E 0 90 63 60
        E 80 80 1a 00
        E 0 80 2a 00
        E 0 80 55 00
        E 0 80 57 00
        E 0 80 61 00
        E 0 80 63 00
        E 240 90 1a 60
        E 0 90 55 60
        E 0 90 61 60
        E 80 80 1a 00
        E 0 80 55 00
        E 0 80 61 00
        E 80 90 1b 60
        E 0 90 61 60
        E 80 80 1b 00
        E 0 80 61 00
        E 80 80 74 00
        E 0 90 18 60
        E 0 90 2c 60
        E 0 90 40 60
        E 0 90 48 60
        E 0 90 4c 60
        E 0 90 54 60
        E 0 90 58 60
        E 0 90 60 60
        E 0 90 64 60
        E 80 80 18 00
        E 0 80 2c 00
        E 0 80 40 00
        E 0 80 48 00
        E 0 80 4c 00
        E 0 80 54 00
        E 0 80 58 00
        E 0 80 60 00
        E 0 80 64 00
        E 400 90 18 60
        E 0 90 2a 60
        E 0 90 3f 60
        E 0 90 48 60
        E 0 90 4b 60
        E 0 90 54 60
        E 0 90 57 60
        E 0 90 60 60
        E 0 90 63 60
        E 80 80 18 00
        E 0 80 2a 00
        E 0 80 3f 00
        E 0 80 48 00
        E 0 80 4b 00
        E 0 80 54 00
        E 0 80 57 00
        E 0 80 60 00
        E 0 80 63 00
        E 240 90 18 60
        E 0 90 60 60
        E 80 80 18 00
        E 0 80 60 00
        E 0 90 18 60
        E 0 90 60 60
        E 80 80 18 00
        E 0 80 60 00
        E 0 90 1a 60
        E 0 90 26 60
        E 0 90 3d 60
        E 0 90 49 60
        E 0 90 4c 60
        E 0 90 55 60
        E 0 90 58 60
        E 0 90 61 60
        E 0 90 64 60
        E 80 80 1a 00
        E 0 80 26 00
        E 0 80 3d 00
        E 0 80 49 00
        E 0 80 4c 00
        E 0 80 55 00
        E 0 80 58 00
        E 0 80 61 00
        E 0 80 64 00
        E 240 90 18 60
        E 0 90 60 60
        E 80 80 18 00
        E 0 80 60 00
        E 80 90 1a 60
        E 0 90 26 60
        E 0 90 3d 60
        E 0 90 49 60
        E 0 90 4c 60
        E 0 90 55 60
        E 0 90 58 60
        E 0 90 61 60
        E 0 90 64 60
        E 80 80 1a 00
        E 0 80 26 00
        E 0 80 3d 00
        E 0 80 49 00
        E 0 80 4c 00
        E 0 80 55 00
        E 0 80 58 00
        E 0 80 61 00
        E 0 80 64 00
        E 240 90 18 60
        E 0 90 60 60
        E 80 80 18 00
        E 0 80 60 00
        E 80 90 1a 60
        E 0 90 2a 60
        E 0 90 3d 60
        E 0 90 49 60
        E 0 90 4b 60
        E 0 90 55 60
        E 0 90 57 60
        E 0 90 61 60
        E 0 90 63 60
        E 80 80 1a 00
        E 0 80 2a 00
        E 0 80 3d 00
        E 0 80 49 00
        E 0 80 4b 00
        E 0 80 55 00
        E 0 80 57 00
        E 0 80 61 00
        E 0 80 63 00
        E 240 90 1a 60
        E 0 90 61 60
        E 80 80 1a 00
        E 0 80 61 00
        E 0 90 1b 60
        E 0 90 61 60
        E 80 80 1b 00
        E 0 80 61 00
        E 0 90 1a 60
        E 0 90 3d 60
        E 0 90 49 60
        E 0 90 55 60
        E 0 90 61 60
        E 80 80 1a 00
        E 0 80 3d 00
        E 0 80 49 00
        E 0 80 55 00
        E 0 80 61 00
        E 0 90 1b 60
        E 0 90 61 60
        E 80 80 1b 00
        E 0 80 61 00
        E 0 90 2e 60
        E 0 90 62 60
        E 0 90 6e 60
        E 80 80 2e 00
        E 0 80 62 00
        E 0 80 6e 00
        E 0 90 2f 60
        E 0 90 56 60
        E 0 90 62 60
        E 0 90 6e 60
        E 80 80 2f 00
        E 0 80 56 00
        E 0 80 62 00
        E 0 80 6e 00
        E 0 90 2e 60
        E 0 90 62 60
        E 0 90 6e 60
        E 80 80 2e 00
        E 0 80 62 00
        E 0 80 6e 00
        E 0 90 2f 60
        E 0 90 62 60
        E 0 90 6e 60
        E 80 80 2f 00
        E 0 80 62 00
        E 0 80 6e 00
        E 0 90 1a 60
        E 0 90 3d 60
        E 0 90 49 60
        E 0 90 55 60
        E 0 90 61 60
        E 0 90 78 60
        E 0 90 79 60
        E 0 90 7a 60
        E 0 90 7b 60
        E 0 90 7c 60
        E 80 80 1a 00
        E 0 80 3d 00
        E 0 80 49 00
        E 0 80 55 00
        E 0 80 61 00
        E 0 90 1b 60
        E 0 90 61 60
        E 80 80 1b 00
        E 0 80 61 00
        E 0 90 30 60
        E 0 90 63 60
        E 0 90 6f 60
        E 80 80 30 00
        E 0 80 63 00
        E 0 80 6f 00
        E 0 90 31 60
        E 0 90 57 60
        E 0 90 63 60
        E 0 90 6f 60
        E 80 80 31 00
        E 0 80 57 00
        E 0 80 63 00
        E 0 80 6f 00
        E 0 90 30 60
        E 0 90 63 60
        E 0 90 6f 60
        E 80 80 30 00
        E 0 80 63 00
        E 0 80 6f 00
        E 0 90 31 60
        E 0 90 63 60
        E 0 90 6f 60
        E 80 80 31 00
        E 0 80 63 00
        E 0 80 6f 00
        E 0 90 1a 60
        E 0 90 3d 60
        E 0 90 49 60
        E 0 90 55 60
        E 0 90 61 60
        E 80 80 1a 00
        E 0 80 3d 00
        E 0 80 49 00
        E 0 80 55 00
        E 0 80 61 00
        E 0 90 1b 60
        E 0 90 61 60
        E 80 80 1b 00
        E 0 80 61 00
        E 0 90 32 60
        E 0 90 64 60
        E 0 90 70 60
        E 80 80 32 00
        E 0 80 64 00
        E 0 80 70 00
        E 0 90 33 60
        E 0 90 58 60
        E 0 90 64 60
        E 0 90 70 60
        E 80 80 33 00
        E 0 80 58 00
        E 0 80 64 00
        E 0 80 70 00
        E 0 90 32 60
        E 0 90 64 60
        E 0 90 70 60
        E 80 80 32 00
        E 0 80 64 00
        E 0 80 70 00
        E 0 90 33 60
        E 0 90 64 60
        E 0 90 70 60
        E 80 80 78 00
        E 0 80 79 00
        E 0 80 7a 00
        E 0 80 7b 00
        E 0 80 7c 00
        E 0 80 33 00
        E 0 80 64 00
        E 0 80 70 00
        E 0 90 18 60
        E 0 90 2c 60
        E 0 90 40 60
        E 0 90 48 60
        E 0 90 4c 60
        E 0 90 54 60
        E 0 90 58 60
        E 0 90 60 60
        E 0 90 64 60
        E 80 80 18 00
        E 0 80 2c 00
        E 0 80 40 00
        E 0 80 48 00
        E 0 80 4c 00
        E 0 80 54 00
        E 0 80 58 00
        E 0 80 60 00
        E 0 80 64 00
        E 240 90 18 60
        E 0 90 2a 60
        E 0 90 60 60
        E 0 90 63 60
        E 80 80 18 00
        E 0 80 2a 00
        E 0 80 60 00
        E 0 80 63 00
        E 80 90 1a 60
        E 0 90 2a 60
        E 0 90 3d 60
        E 0 90 49 60
        E 0 90 4b 60
        E 0 90 55 60
        E 0 90 57 60
        E 0 90 61 60
        E 0 90 63 60
        E 80 80 1a 00
        E 0 80 2a 00
        E 0 80 3d 00
        E 0 80 49 00
        E 0 80 4b 00
        E 0 80 55 00
        E 0 80 57 00
        E 0 80 61 00
        E 0 80 63 00
        E 240 90 18 60
        E 0 90 2a 60
        E 0 90 60 60
        E 0 90 63 60
        E 80 80 18 00
        E 0 80 2a 00
        E 0 80 60 00
        E 0 80 63 00
        E 80 90 18 60
        E 0 90 2a 60
        E 0 90 3f 60
        E 0 90 48 60
        E 0 90 4b 60
        E 0 90 54 60
        E 0 90 57 60
        E 0 90 60 60
        E 0 90 63 60
        E 80 80 18 00
        E 0 80 2a 00
        E 0 80 3f 00
        E 0 80 48 00
        E 0 80 4b 00
        E 0 80 54 00
        E 0 80 57 00
        E 0 80 60 00
        E 0 80 63 00
        E 240 90 18 60
        E 0 90 2b 60
        E 0 90 60 60
        E 0 90 63 60
        E 80 80 18 00
        E 0 80 2b 00
        E 0 80 60 00
        E 0 80 63 00
        E 80 90 1a 60
        E 0 90 2a 60
        E 0 90 3d 60
        E 0 90 49 60
        E 0 90 4b 60
        E 0 90 55 60
        E 0 90 57 60
        E 0 90 61 60
        E 0 90 63 60
        E 80 80 1a 00
        E 0 80 2a 00
        E 0 80 3d 00
        E 0 80 49 00
        E 0 80 4b 00
        E 0 80 55 00
        E 0 80 57 00
        E 0 80 61 00
        E 0 80 63 00
        E 80 90 18 60
        E 0 90 2b 60
        E 0 90 60 60
        E 0 90 63 60
        E 80 80 18 00
        E 0 80 2b 00
        E 0 80 60 00
        E 0 80 63 00
        E 80 90 1b 60
        E 0 90 61 60
        E 80 80 1b 00
        E 0 80 61 00
        E 80 90 18 60
        E 0 90 2b 60
        E 0 90 3f 60
        E 0 90 48 60
        E 0 90 4b 60
        E 0 90 54 60
        E 0 90 57 60
        E 0 90 60 60
        E 0 90 63 60
        E 80 80 18 00
        E 0 80 2b 00
        E 0 80 3f 00
        E 0 80 48 00
        E 0 80 4b 00
        E 0 80 54 00
        E 0 80 57 00
        E 0 80 60 00
        E 0 80 63 00
        E 80 90 2a 60
        E 0 90 63 60
        E 80 80 2a 00
        E 0 80 63 00
        E 80 90 18 60
        E 0 90 2b 60
        E 0 90 60 60
        E 0 90 63 60
        E 80 80 18 00
        E 0 80 2b 00
        E 0 80 60 00
        E 0 80 63 00
        E 80 90 1a 60
        E 0 90 2a 60
        E 0 90 3d 60
        E 0 90 49 60
        E 0 90 4b 60
        E 0 90 55 60
        E 0 90 57 60
        E 0 90 61 60
        E 0 90 63 60
        E 80 80 1a 00
        E 0 80 2a 00
        E 0 80 3d 00
        E 0 80 49 00
        E 0 80 4b 00
        E 0 80 55 00
        E 0 80 57 00
        E 0 80 61 00
        E 0 80 63 00
        E 240 90 18 60
        E 0 90 2b 60
        E 0 90 60 60
        E 0 90 63 60
        E 80 80 18 00
        E 0 80 2b 00
        E 0 80 60 00
        E 0 80 63 00
        E 80 90 18 60
        E 0 90 2a 60
        E 0 90 3f 60
        E 0 90 48 60
        E 0 90 4b 60
        E 0 90 54 60
        E 0 90 57 60
        E 0 90 60 60
        E 0 90 63 60
        E 80 80 18 00
        E 0 80 2a 00
        E 0 80 3f 00
        E 0 80 48 00
        E 0 80 4b 00
        E 0 80 54 00
        E 0 80 57 00
        E 0 80 60 00
        E 0 80 63 00
        E 80 90 2a 60
        E 0 90 63 60
        E 80 80 2a 00
        E 0 80 63 00
        E 80 90 18 60
        E 0 90 2a 60
        E 0 90 60 60
        E 0 90 63 60
        E 80 80 18 00
        E 0 80 2a 00
        E 0 80 60 00
        E 0 80 63 00
        E 80 90 1a 60
        E 0 90 2a 60
        E 0 90 3d 60
        E 0 90 49 60
        E 0 90 4b 60
        E 0 90 55 60
        E 0 90 57 60
        E 0 90 61 60
        E 0 90 63 60
        E 80 80 1a 00
        E 0 80 2a 00
        E 0 80 3d 00
        E 0 80 49 00
        E 0 80 4b 00
        E 0 80 55 00
        E 0 80 57 00
        E 0 80 61 00
        E 0 80 63 00
        E 80 90 18 60
        E 0 90 2b 60
        E 0 90 60 60
        E 0 90 63 60
        E 80 80 18 00
        E 0 80 2b 00
        E 0 80 60 00
        E 0 80 63 00
        E 80 90 1a 60
        E 0 90 2a 60
        E 0 90 61 60
        E 0 90 63 60
        E 80 80 1a 00
        E 0 80 2a 00
        E 0 80 61 00
        E 0 80 63 00
        E 80 90 18 60
        E 0 90 2a 60
        E 0 90 3f 60
        E 0 90 48 60
        E 0 90 4b 60
        E 0 90 54 60
        E 0 90 57 60
        E 0 90 60 60
        E 0 90 63 60
        E 80 80 18 00
        E 0 80 2a 00
        E 0 80 3f 00
        E 0 80 48 00
        E 0 80 4b 00
        E 0 80 54 00
        E 0 80 57 00
        E 0 80 60 00
        E 0 80 63 00
        E 80 90 2b 60
        E 0 90 63 60
        E 80 80 2b 00
        E 0 80 63 00
        E 80 90 18 60
        E 0 90 2a 60
        E 0 90 60 60
        E 0 90 63 60
        E 80 80 18 00
        E 0 80 2a 00
        E 0 80 60 00
        E 0 80 63 00
        E 80 90 1a 60
        E 0 90 2a 60
        E 0 90 3d 60
        E 0 90 49 60
        E 0 90 4b 60
        E 0 90 55 60
        E 0 90 57 60
        E 0 90 61 60
        E 0 90 63 60
        E 80 80 1a 00
        E 0 80 2a 00
        E 0 80 3d 00
        E 0 80 49 00
        E 0 80 4b 00
        E 0 80 55 00
        E 0 80 57 00
        E 0 80 61 00
        E 0 80 63 00
        E 80 90 2b 60
        E 0 90 63 60
        E 80 80 2b 00
        E 0 80 63 00
        E 80 90 18 60
        E 0 90 2a 60
        E 0 90 60 60
        E 0 90 63 60
        E 80 80 18 00
        E 0 80 2a 00
        E 0 80 60 00
        E 0 80 63 00
        E 80 90 18 60
        E 0 90 2b 60
        E 0 90 3f 60
        E 0 90 48 60
        E 0 90 4b 60
        E 0 90 54 60
        E 0 90 57 60
        E 0 90 60 60
        E 0 90 63 60
        E 80 80 18 00
        E 0 80 2b 00
        E 0 80 3f 00
        E 0 80 48 00
        E 0 80 4b 00
        E 0 80 54 00
        E 0 80 57 00
        E 0 80 60 00
        E 0 80 63 00
        E 80 90 2a 60
        E 0 90 63 60
        E 80 80 2a 00
        E 0 80 63 00
        E 80 90 18 60
        E 0 90 2b 60
        E 0 90 60 60
        E 0 90 63 60
        E 80 80 18 00
        E 0 80 2b 00
        E 0 80 60 00
        E 0 80 63 00
        E 80 90 1a 60
        E 0 90 2a 60
        E 0 90 3d 60
        E 0 90 49 60
        E 0 90 4b 60
        E 0 90 55 60
        E 0 90 57 60
        E 0 90 61 60
        E 0 90 63 60
        E 80 80 1a 00
        E 0 80 2a 00
        E 0 80 3d 00
        E 0 80 49 00
        E 0 80 4b 00
        E 0 80 55 00
        E 0 80 57 00
        E 0 80 61 00
        E 0 80 63 00
        E 80 90 18 60
        E 0 90 2b 60
        E 0 90 60 60
        E 0 90 63 60
        E 80 80 18 00
        E 0 80 2b 00
        E 0 80 60 00
        E 0 80 63 00
        E 80 90 1a 60
        E 0 90 2a 60
        E 0 90 61 60
        E 0 90 63 60
        E 80 80 1a 00
        E 0 80 2a 00
        E 0 80 61 00
        E 0 80 63 00
        E 80 90 18 60
        E 0 90 2a 60
        E 0 90 3f 60
        E 0 90 48 60
        E 0 90 4b 60
        E 0 90 54 60
        E 0 90 57 60
        E 0 90 60 60
        E 0 90 63 60
        E 80 80 18 00
        E 0 80 2a 00
        E 0 80 3f 00
        E 0 80 48 00
        E 0 80 4b 00
        E 0 80 54 00
        E 0 80 57 00
        E 0 80 60 00
        E 0 80 63 00
        E 80 90 2b 60
        E 0 90 63 60
        E 80 80 2b 00
        E 0 80 63 00
        E 80 90 18 60
        E 0 90 2a 60
        E 0 90 60 60
        E 0 90 63 60
        E 80 80 18 00
        E 0 80 2a 00
        E 0 80 60 00
        E 0 80 63 00
        E 80 90 1a 60
        E 0 90 2a 60
        E 0 90 3d 60
        E 0 90 49 60
        E 0 90 4b 60
        E 0 90 55 60
        E 0 90 57 60
        E 0 90 61 60
        E 0 90 63 60
        E 80 80 1a 00
        E 0 80 2a 00
        E 0 80 3d 00
        E 0 80 49 00
        E 0 80 4b 00
        E 0 80 55 00
        E 0 80 57 00
        E 0 80 61 00
        E 0 80 63 00
        E 80 90 2b 60
        E 0 90 63 60
        E 80 80 2b 00
        E 0 80 63 00
        E 80 90 18 60
        E 0 90 2a 60
        E 0 90 60 60
        E 0 90 63 60
        E 80 80 18 00
        E 0 80 2a 00
        E 0 80 60 00
        E 0 80 63 00
        E 80 90 18 60
        E 0 90 2b 60
        E 0 90 3f 60
        E 0 90 48 60
        E 0 90 4b 60
        E 0 90 54 60
        E 0 90 57 60
        E 0 90 60 60
        E 0 90 63 60
        E 0 90 78 60
        E 0 90 79 60
        E 0 90 7a 60
        E 0 90 7b 60
        E 0 90 7c 60
        E 80 80 18 00
        E 0 80 2b 00
        E 0 80 3f 00
        E 0 80 48 00
        E 0 80 4b 00
        E 0 80 54 00
        E 0 80 57 00
        E 0 80 60 00
        E 0 80 63 00
        E 80 90 1b 60
        E 0 90 61 60
        E 80 80 1b 00
        E 0 80 61 00
        E 0 90 1a 60
        E 0 90 55 60
        E 0 90 61 60
        E 80 80 1a 00
        E 0 80 55 00
        E 0 80 61 00
        E 0 90 1b 60
        E 0 90 61 60
        E 80 80 1b 00
        E 0 80 61 00
        E 0 90 1a 60
        E 0 90 61 60
        E 80 80 1a 00
        E 0 80 61 00
        E 0 90 2f 60
        E 0 90 3e 60
        E 0 90 4a 60
        E 0 90 56 60
        E 0 90 62 60
        E 0 90 6e 60
        E 80 80 2f 00
        E 0 80 3e 00
        E 0 80 4a 00
        E 0 80 56 00
        E 0 80 62 00
        E 0 80 6e 00
        E 0 90 2e 60
        E 0 90 62 60
        E 0 90 6e 60
        E 80 80 2e 00
        E 0 80 62 00
        E 0 80 6e 00
        E 0 90 2f 60
        E 0 90 62 60
        E 0 90 6e 60
        E 80 80 2f 00
        E 0 80 62 00
        E 0 80 6e 00
        E 0 90 2e 60
        E 0 90 56 60
        E 0 90 62 60
        E 0 90 6e 60
        E 80 80 2e 00
        E 0 80 56 00
        E 0 80 62 00
        E 0 80 6e 00
        E 0 90 31 60
        E 0 90 63 60
        E 0 90 6f 60
        E 80 80 31 00
        E 0 80 63 00
        E 0 80 6f 00
        E 0 90 30 60
        E 0 90 63 60
        E 0 90 6f 60
        E 80 80 30 00
        E 0 80 63 00
        E 0 80 6f 00
        E 0 90 18 60
        E 0 90 26 60
        E 0 90 40 60
        E 0 90 48 60
        E 0 90 4c 60
        E 0 90 54 60
        E 0 90 58 60
        E 0 90 60 60
        E 0 90 64 60
        E 1 80 78 00
        E 0 80 79 00
        E 0 80 7a 00
        E 0 80 7b 00
        E 0 80 7c 00
        E 79 80 18 00
        E 0 80 26 00
        E 0 80 40 00
        E 0 80 48 00
        E 0 80 4c 00
        E 0 80 54 00
        E 0 80 58 00
        E 0 80 60 00
        E 0 80 64 00
        E 0 90 18 60
        E 80 80 18 00
        E 0 90 18 60
        E 0 90 60 60
        E 80 80 18 00
        E 0 80 60 00
        E 0 90 18 60
        E 0 90 54 60
        E 80 80 18 00
        E 0 80 54 00
        E 0 90 18 60
        E 0 90 60 60
        E 80 80 18 00
        E 0 80 60 00
        E 0 90 18 60
        E 80 80 18 00
        E 0 90 18 60
        E 0 90 1a 60
        E 0 90 2a 60
        E 0 90 3d 60
        E 0 90 49 60
        E 0 90 4b 60
        E 0 90 54 60
        E 0 90 55 60
        E 0 90 57 60
        E 0 90 60 60
        E 0 90 61 60
        E 0 90 63 60
        E 80 80 18 00
        E 0 80 1a 00
        E 0 80 2a 00
        E 0 80 3d 00
        E 0 80 49 00
        E 0 80 4b 00
        E 0 80 54 00
        E 0 80 55 00
        E 0 80 57 00
        E 0 80 60 00
        E 0 80 61 00
        E 0 80 63 00
        E 0 90 18 60
        E 80 80 18 00
        E 0 90 18 60
        E 0 90 60 60
        E 80 80 18 00
        E 0 80 60 00
        E 0 90 18 60
        E 0 90 54 60
        E 80 80 18 00
        E 0 80 54 00
        E 0 90 18 60
        E 0 90 60 60
        E 80 80 18 00
        E 0 80 60 00
        E 0 90 18 60
        E 80 80 18 00
        E 0 90 18 60
        E 0 90 1a 60
        E 0 90 2a 60
        E 0 90 3d 60
        E 0 90 49 60
        E 0 90 4b 60
        E 0 90 54 60
        E 0 90 55 60
        E 0 90 57 60
        E 0 90 60 60
        E 0 90 61 60
        E 0 90 63 60
        E 80 80 18 00
        E 0 80 1a 00
        E 0 80 2a 00
        E 0 80 3d 00
        E 0 80 49 00
        E 0 80 4b 00
        E 0 80 54 00
        E 0 80 55 00
        E 0 80 57 00
        E 0 80 60 00
        E 0 80 61 00
        E 0 80 63 00
        E 0 90 18 60
        E 80 80 18 00
        E 0 90 18 60
        E 0 90 60 60
        E 80 80 18 00
        E 0 80 60 00
        E 0 90 18 60
        E 0 90 54 60
        E 80 80 18 00
        E 0 80 54 00
        E 0 90 18 60
        E 0 90 60 60
        E 80 80 18 00
        E 0 80 60 00
        E 0 90 18 60
        E 80 80 18 00
        E 0 90 18 60
        E 0 90 1a 60
        E 0 90 2a 60
        E 0 90 3d 60
        E 0 90 49 60
        E 0 90 4b 60
        E 0 90 54 60
        E 0 90 55 60
        E 0 90 57 60
        E 0 90 60 60
        E 0 90 61 60
        E 0 90 63 60
        E 80 80 18 00
        E 0 80 1a 00
        E 0 80 2a 00
        E 0 80 3d 00
        E 0 80 49 00
        E 0 80 4b 00
        E 0 80 54 00
        E 0 80 55 00
        E 0 80 57 00
        E 0 80 60 00
        E 0 80 61 00
        E 0 80 63 00
        E 0 90 18 60
        E 80 80 18 00
        E 0 90 18 60
        E 0 90 60 60
        E 80 80 18 00
        E 0 80 60 00
        E 0 90 18 60
        E 0 90 54 60
        E 80 80 18 00
        E 0 80 54 00
        E 0 90 18 60
        E 0 90 60 60
        E 80 80 18 00
        E 0 80 60 00
        E 0 90 18 60
        E 80 80 18 00
        E 0 90 18 60
        E 0 90 1a 60
        E 0 90 2a 60
        E 0 90 3d 60
        E 0 90 49 60
        E 0 90 4b 60
        E 0 90 54 60
        E 0 90 55 60
        E 0 90 57 60
        E 0 90 60 60
        E 0 90 61 60
        E 0 90 63 60
        E 80 80 18 00
        E 0 80 1a 00
        E 0 80 2a 00
        E 0 80 3d 00
        E 0 80 49 00
        E 0 80 4b 00
        E 0 80 54 00
        E 0 80 55 00
        E 0 80 57 00
        E 0 80 60 00
        E 0 80 61 00
        E 0 80 63 00
        E 0 90 18 60
        E 80 80 18 00
        E 0 90 18 60
        E 0 90 60 60
        E 80 80 18 00
        E 0 80 60 00
        E 0 90 18 60
        E 0 90 54 60
        E 80 80 18 00
        E 0 80 54 00
        E 0 90 18 60
        E 0 90 60 60
        E 80 80 18 00
        E 0 80 60 00
        E 0 90 18 60
        E 80 80 18 00
        E 0 90 18 60
        E 0 90 1a 60
        E 0 90 2a 60
        E 0 90 3d 60
        E 0 90 49 60
        E 0 90 4b 60
        E 0 90 54 60
        E 0 90 55 60
        E 0 90 57 60
        E 0 90 60 60
        E 0 90 61 60
        E 0 90 63 60
        E 80 80 18 00
        E 0 80 1a 00
        E 0 80 2a 00
        E 0 80 3d 00
        E 0 80 49 00
        E 0 80 4b 00
        E 0 80 54 00
        E 0 80 55 00
        E 0 80 57 00
        E 0 80 60 00
        E 0 80 61 00
        E 0 80 63 00
        E 0 90 18 60
        E 80 80 18 00
        E 0 90 18 60
        E 0 90 60 60
        E 80 80 18 00
        E 0 80 60 00
        E 0 90 18 60
        E 0 90 54 60
        E 80 80 18 00
        E 0 80 54 00
        E 0 90 18 60
        E 0 90 60 60
        E 80 80 18 00
        E 0 80 60 00
        E 0 90 18 60
        E 80 80 18 00
        E 0 90 18 60
        E 0 90 1a 60
        E 0 90 2a 60
        E 0 90 3d 60
        E 0 90 49 60
        E 0 90 4b 60
        E 0 90 54 60
        E 0 90 55 60
        E 0 90 57 60
        E 0 90 60 60
        E 0 90 61 60
        E 0 90 63 60
        E 80 80 18 00
        E 0 80 1a 00
        E 0 80 2a 00
        E 0 80 3d 00
        E 0 80 49 00
        E 0 80 4b 00
        E 0 80 54 00
        E 0 80 55 00
        E 0 80 57 00
        E 0 80 60 00
        E 0 80 61 00
        E 0 80 63 00
        E 0 90 18 60
        E 80 80 18 00
        E 0 90 18 60
        E 0 90 60 60
        E 80 80 18 00
        E 0 80 60 00
        E 0 90 18 60
        E 0 90 54 60
        E 80 80 18 00
        E 0 80 54 00
        E 0 90 18 60
        E 0 90 60 60
        E 80 80 18 00
        E 0 80 60 00
        E 0 90 18 60
        E 80 80 18 00
        E 0 90 18 60
        E 0 90 1a 60
        E 0 90 2a 60
        E 0 90 3d 60
        E 0 90 49 60
        E 0 90 4b 60
        E 0 90 54 60
        E 0 90 55 60
        E 0 90 57 60
        E 0 90 60 60
        E 0 90 61 60
        E 0 90 63 60
        E 80 80 18 00
        E 0 80 1a 00
        E 0 80 2a 00
        E 0 80 3d 00
        E 0 80 49 00
        E 0 80 4b 00
        E 0 80 54 00
        E 0 80 55 00
        E 0 80 57 00
        E 0 80 60 00
        E 0 80 61 00
        E 0 80 63 00
        E 0 90 18 60
        E 80 80 18 00
        E 0 90 18 60
        E 0 90 30 60
        E 0 90 60 60
        E 0 90 63 60
        E 0 90 6f 60
        E 80 80 18 00
        E 0 80 30 00
        E 0 80 60 00
        E 0 80 63 00
        E 0 80 6f 00
        E 0 90 18 60
        E 0 90 31 60
        E 0 90 54 60
        E 0 90 57 60
        E 0 90 63 60
        E 0 90 6f 60
        E 80 80 18 00
        E 0 80 31 00
        E 0 80 54 00
        E 0 80 57 00
        E 0 80 63 00
        E 0 80 6f 00
        E 0 90 18 60
        E 0 90 32 60
        E 0 90 60 60
        E 0 90 64 60
        E 0 90 70 60
        E 80 80 18 00
        E 0 80 32 00
        E 0 80 60 00
        E 0 80 64 00
        E 0 80 70 00
        E 0 90 18 60
        E 0 90 33 60
        E 0 90 64 60
        E 0 90 70 60
        E 80 80 18 00
        E 0 80 33 00
        E 0 80 64 00
        E 0 80 70 00
        E 0 90 18 60
        E 0 90 2c 60
        E 0 90 40 60
        E 0 90 48 60
        E 0 90 4c 60
        E 0 90 54 60
        E 0 90 58 60
        E 0 90 60 60
        E 0 90 64 60
        E 80 80 18 00
        E 0 80 2c 00
        E 0 80 40 00
        E 0 80 48 00
        E 0 80 4c 00
        E 0 80 54 00
        E 0 80 58 00
        E 0 80 60 00
        E 0 80 64 00
        E 240 90 18 60
        E 0 90 2b 60
        E 0 90 60 60
        E 0 90 63 60
        E 80 80 18 00
        E 0 80 2b 00
        E 0 80 60 00
        E 0 80 63 00
        E 80 90 1a 60
        E 0 90 2a 60
        E 0 90 3d 60
        E 0 90 49 60
        E 0 90 4b 60
        E 0 90 55 60
        E 0 90 57 60
        E 0 90 61 60
        E 0 90 63 60
        E 80 80 1a 00
        E 0 80 2a 00
        E 0 80 3d 00
        E 0 80 49 00
        E 0 80 4b 00
        E 0 80 55 00
        E 0 80 57 00
        E 0 80 61 00
        E 0 80 63 00
        E 80 90 2b 60
        E 0 90 63 60
        E 80 80 2b 00
        E 0 80 63 00
        E 80 90 18 60
        E 0 90 2a 60
        E 0 90 60 60
        E 0 90 63 60
        E 80 80 18 00
        E 0 80 2a 00
        E 0 80 60 00
        E 0 80 63 00
        E 80 90 18 60
        E 0 90 2b 60
        E 0 90 3f 60
        E 0 90 48 60
        E 0 90 4b 60
        E 0 90 54 60
        E 0 90 57 60
        E 0 90 60 60
        E 0 90 63 60
        E 80 80 18 00
        E 0 80 2b 00
        E 0 80 3f 00
        E 0 80 48 00
        E 0 80 4b 00
        E 0 80 54 00
        E 0 80 57 00
        E 0 80 60 00
        E 0 80 63 00
        E 80 90 2a 60
        E 0 90 63 60
        E 80 80 2a 00
        E 0 80 63 00
        E 80 90 18 60
        E 0 90 2b 60
        E 0 90 60 60
        E 0 90 63 60
        E 80 80 18 00
        E 0 80 2b 00
        E 0 80 60 00
        E 0 80 63 00
        E 80 90 1a 60
        E 0 90 2a 60
        E 0 90 3d 60
        E 0 90 49 60
        E 0 90 4b 60
        E 0 90 55 60
        E 0 90 57 60
        E 0 90 61 60
        E 0 90 63 60
        E 80 80 1a 00
        E 0 80 2a 00
        E 0 80 3d 00
        E 0 80 49 00
        E 0 80 4b 00
        E 0 80 55 00
        E 0 80 57 00
        E 0 80 61 00
        E 0 80 63 00
        E 80 90 18 60
        E 0 90 2b 60
        E 0 90 60 60
        E 0 90 63 60
        E 80 80 18 00
        E 0 80 2b 00
        E 0 80 60 00
        E 0 80 63 00
        E 80 90 1a 60
        E 0 90 2a 60
        E 0 90 61 60
        E 0 90 63 60
        E 80 80 1a 00
        E 0 80 2a 00
        E 0 80 61 00
        E 0 80 63 00
        E 80 90 18 60
        E 0 90 2a 60
        E 0 90 3f 60
        E 0 90 48 60
        E 0 90 4b 60
        E 0 90 54 60
        E 0 90 57 60
        E 0 90 60 60
        E 0 90 63 60
        E 80 80 18 00
        E 0 80 2a 00
        E 0 80 3f 00
        E 0 80 48 00
        E 0 80 4b 00
        E 0 80 54 00
        E 0 80 57 00
        E 0 80 60 00
        E 0 80 63 00
        E 80 90 2b 60
        E 0 90 63 60
        E 80 80 2b 00
        E 0 80 63 00
        E 80 90 18 60
        E 0 90 2a 60
        E 0 90 60 60
        E 0 90 63 60
        E 80 80 18 00
        E 0 80 2a 00
        E 0 80 60 00
        E 0 80 63 00
        E 80 90 1a 60
        E 0 90 2a 60
        E 0 90 3d 60
        E 0 90 49 60
        E 0 90 4b 60
        E 0 90 55 60
        E 0 90 57 60
        E 0 90 61 60
        E 0 90 63 60
        E 80 80 1a 00
        E 0 80 2a 00
        E 0 80 3d 00
        E 0 80 49 00
        E 0 80 4b 00
        E 0 80 55 00
        E 0 80 57 00
        E 0 80 61 00
        E 0 80 63 00
        E 80 90 2b 60
        E 0 90 63 60
        E 80 80 2b 00
        E 0 80 63 00
        E 80 90 18 60
        E 0 90 2a 60
        E 0 90 60 60
        E 0 90 63 60
        E 80 80 18 00
        E 0 80 2a 00
        E 0 80 60 00
        E 0 80 63 00
        E 80 90 18 60
        E 0 90 2b 60
        E 0 90 3f 60
        E 0 90 48 60
        E 0 90 4b 60
        E 0 90 54 60
        E 0 90 57 60
        E 0 90 60 60
        E 0 90 63 60
        E 80 80 18 00
        E 0 80 2b 00
        E 0 80 3f 00
        E 0 80 48 00
        E 0 80 4b 00
        E 0 80 54 00
        E 0 80 57 00
        E 0 80 60 00
        E 0 80 63 00
        E 80 90 2a 60
        E 0 90 63 60
        E 80 80 2a 00
        E 0 80 63 00
        E 80 90 18 60
        E 0 90 2b 60
        E 0 90 60 60
        E 0 90 63 60
        E 80 80 18 00
        E 0 80 2b 00
        E 0 80 60 00
        E 0 80 63 00
        E 0 90 18 60
        E 0 90 60 60
        E 80 80 18 00
        E 0 80 60 00
        E 0 90 1a 60
        E 0 90 2a 60
        E 0 90 3d 60
        E 0 90 49 60
        E 0 90 4b 60
        E 0 90 55 60
        E 0 90 57 60
        E 0 90 61 60
        E 0 90 63 60
        E 80 80 1a 00
        E 0 80 2a 00
        E 0 80 3d 00
        E 0 80 49 00
        E 0 80 4b 00
        E 0 80 55 00
        E 0 80 57 00
        E 0 80 61 00
        E 0 80 63 00
        E 240 90 18 60
        E 0 90 60 60
        E 80 80 18 00
        E 0 80 60 00
        E 0 90 18 60
        E 0 90 60 60
        E 80 80 18 00
        E 0 80 60 00
        E 0 90 1a 60
        E 0 90 26 60
        E 0 90 3d 60
        E 0 90 49 60
        E 0 90 4c 60
        E 0 90 55 60
        E 0 90 58 60
        E 0 90 61 60
        E 0 90 64 60
        E 80 80 1a 00
        E 0 80 26 00
        E 0 80 3d 00
        E 0 80 49 00
        E 0 80 4c 00
        E 0 80 55 00
        E 0 80 58 00
        E 0 80 61 00
        E 0 80 64 00
        E 80 90 18 60
        E 0 90 60 60
        E 80 80 18 00
        E 0 80 60 00
        E 80 90 18 60
        E 0 90 60 60
        E 80 80 18 00
        E 0 80 60 00
        E 80 90 1a 60
        E 0 90 26 60
        E 0 90 3d 60
        E 0 90 49 60
        E 0 90 4c 60
        E 0 90 55 60
        E 0 90 58 60
        E 0 90 61 60
        E 0 90 64 60
        E 80 80 1a 00
        E 0 80 26 00
        E 0 80 3d 00
        E 0 80 49 00
        E 0 80 4c 00
        E 0 80 55 00
        E 0 80 58 00
        E 0 80 61 00
        E 0 80 64 00
        E 80 90 18 60
        E 0 90 60 60
        E 80 80 18 00
        E 0 80 60 00
        E 80 90 18 60
        E 0 90 60 60
        E 80 80 18 00
        E 0 80 60 00
        E 80 90 1a 60
        E 0 90 26 60
        E 0 90 3d 60
        E 0 90 49 60
        E 0 90 4c 60
        E 0 90 55 60
        E 0 90 58 60
        E 0 90 61 60
        E 0 90 64 60
        E 80 80 1a 00
        E 0 80 26 00
        E 0 80 3d 00
        E 0 80 49 00
        E 0 80 4c 00
        E 0 80 55 00
        E 0 80 58 00
        E 0 80 61 00
        E 0 80 64 00
        E 80 90 18 60
        E 0 90 60 60
        E 80 80 18 00
        E 0 80 60 00
        E 80 90 1a 60
        E 0 90 26 60
        E 0 90 61 60
        E 0 90 64 60
        E 80 80 1a 00
        E 0 80 26 00
        E 0 80 61 00
        E 0 80 64 00
        E 80 90 18 60
        E 0 90 3c 60
        E 0 90 48 60
        E 0 90 54 60
        E 0 90 60 60
        E 80 80 18 00
        E 0 80 3c 00
        E 0 80 48 00
        E 0 80 54 00
        E 0 80 60 00
        E 80 90 1a 60
        E 0 90 26 60
        E 0 90 61 60
        E 0 90 64 60
        E 80 80 1a 00
        E 0 80 26 00
        E 0 80 61 00
        E 0 80 64 00
        E 80 90 1a 60
        E 0 90 61 60
        E 80 80 1a 00
        E 0 80 61 00
        E 80 90 18 60
        E 0 90 1a 60
        E 0 90 26 60
        E 0 90 3d 60
        E 0 90 49 60
        E 0 90 4c 60
        E 0 90 54 60
        E 0 90 55 60
        E 0 90 58 60
        E 0 90 60 60
        E 0 90 61 60
        E 0 90 64 60
        E 80 80 18 00
        E 0 80 1a 00
        E 0 80 26 00
        E 0 80 3d 00
        E 0 80 49 00
        E 0 80 4c 00
        E 0 80 54 00
        E 0 80 55 00
        E 0 80 58 00
        E 0 80 60 00
        E 0 80 61 00
        E 0 80 64 00
        <X 480 0
          /wFbaWRsZV9yZWFsdGltZV0=
        >
        E 3280 b0 7b 00
        GUID {99C52F88-C54B-4CCD-B038-A5C950AC8E6E}
        IGNTEMPO 0 120.00000000 4 4
        SRCCOLOR 19
        VELLANE 132 38 60
        COLORMAP "C:\Program Files (x86)\REAPER\Data\color_maps\rockband_drums.png"
        BANKPROGRAMFILE "C:\Users\AJFOne23\AppData\Roaming\REAPER/Data/GM.reabank"
        TEXTSTRINGFILE "Text Events List.txt"
        CFGEDITVIEW 101575.006468 268.278351 0 12 0 0 0
        CFGEDIT 1 1 0 0 0 1 1 1 1 1 1 0.16666667 -8 -8 1370 736 1 2 1 2 0.00000000 0 0 0 0 0.500000 1 0 1.000000 64
        KEYSNAP 0 0 "102034050607" 0 "Major"
        EVTFILTER 0 -1 -1 -1 -1 0 1 0 0 -1.00000000 -1.00000000
      >
    >
  >
  <TRACK '{01D14533-C832-4FE5-9F36-5F2F3CA816B6}'
    NAME "PART DRUMS_2X"
    PEAKCOL 16842751
    BEAT -1
    AUTOMODE 0
    VOLPAN 1.00000000000000 0.00000000000000 -1.00000000000000 -1.00000000000000 1.00000000000000
    MUTESOLO 0 0 0
    IPHASE 0
    ISBUS 0 0
    BUSCOMP 1 0
    SHOWINMIX 1 0.666700 0.500000 1 0.500000 -1 -1 -1
    FREEMODE 0
    SEL 0
    REC 0 4096 1 7 0 0 0
    TRACKHEIGHT 57 0
    INQ 0 0 0 0.5000000000 100 0 0 100
    NCHAN 2
    FX 1
    TRACKID {01D14533-C832-4FE5-9F36-5F2F3CA816B6}
    PERF 0
    MIDIOUT -1
    <MIDINOTENAMES
      0 84 "HARD Kick"
      0 96 "EXPERT Kick"
      0 72 "MEDIUM Kick"
      0 60 "EASY Kick"
      0 97 "EXPERT Red"
      0 98 "EXPERT Yellow"
      0 99 "EXPERT Blue"
      0 100 "EXPERT Green"
      0 85 "HARD Red"
      0 86 "HARD Yellow"
      0 87 "HARD Blue"
      0 88 "HARD Green"
      0 73 "MEDIUM Red"
      0 74 "MEDIUM Yellow"
      0 75 "MEDIUM Blue"
      0 76 "MEDIUM Green"
      0 61 "EASY Red"
      0 62 "EASY Yellow"
      0 63 "EASY Blue"
      0 64 "EASY Green"
      0 101 " "
      0 92 "----"
      0 80 "----"
      0 68 "----"
      0 120 "DRUM FILL (use all 5)"
      0 121 "DRUM FILL"
      0 122 "DRUM FILL"
      0 123 "DRUM FILL"
      0 124 "DRUM FILL"
      0 114 "----"
      0 116 "OVERDRIVE"
      0 118 "----"
      0 24 "KICK RF"
      0 25 "HI-HAT OPEN"
      0 26 "SNARE HARD LH"
      0 27 "SNARE HARD RH"
      0 30 "HI-HAT LH"
      0 31 "HI-HAT RH"
      0 32 "PERCUSSION RH"
      0 34 "CRASH1 HARD LH"
      0 35 "CRASH1 SOFT LH"
      0 36 "CRASH1 HARD RH"
      0 37 "CRASH1 SOFT RH"
      0 38 "CRASH2 HARD RH"
      0 39 "CRASH2 SOFT RH"
      0 40 "CRASH1 CHOKE"
      0 41 "CRASH2 CHOKE"
      0 42 "RIDE CYM RH"
      0 46 "TOM1 LH"
      0 47 "TOM1 RH"
      0 48 "TOM2 LH"
      0 49 "TOM2 RH"
      0 50 "FLOOR TOM LH"
      0 51 "FLOOR TOM RH"
      0 52 "--DRUM ANIMATION--"
      0 56 "----"
      0 103 "Solo Marker"
      0 102 "----"
      0 110 "PRO Yellow Tom"
      0 111 "PRO Blue Tom"
      0 112 "PRO Green Tom"
      0 108 "----"
      0 127 "Roll Marker 2-Lane / Cym"
      0 126 "Roll Marker 1-Lane"
      0 125 "----"
      0 28 "SNARE SOFT LH"
      0 29 "SNARE SOFT RH"
      0 43 "RIDE CYM LH"
      0 44 "CRASH2 HARD LH"
      0 45 "CRASH2 SOFT LH"
    >
    MAINSEND 1 0
    <FXCHAIN
      WNDRECT 0 38 870 574
      SHOW 0
      LASTSEL 1
      DOCKED 0
      BYPASS 1 0
      <VST "VSTi: ReaSynth (Cockos)" "reasynth.dll" 0 ""
        eXNlcu9e7f4AAAAAAgAAAAEAAAAAAAAAAgAAAAAAAAA4AAAAAAAAAA==
        AAAAAO++rd4N8K3eAAAAAAAAAAAAAAAAAAAAADm0SD59y9s+tbSxOQ==
        AAAAALbz/T5VpCs6AAAAAAAAAAAAAAAAAAA=
      >
      FLOATPOS 0 0 0 0
      FXID {58F55556-9407-4062-A048-6AFCC0B53535}
      WAK 0
      BYPASS 0 0
      <VST "VSTi: RBN Preview (RBN)" "rbprev_vst.dll" 0 ""
        dnBicu5e7f4AAAAAAgAAAAEAAAAAAAAAAgAAAAAAAAAEAAAAAQAAAA==
        AAAAAAMBqgAAAAAAAAA=
      >
      FLOATPOS 32 32 659 497
      FXID {D7126437-AB1E-4109-A0FA-F2D5D0AC68DC}
      WAK 0
    >
    <ITEM
      POSITION 0.00000000000000
      SNAPOFFS 0.00000000000000
      LENGTH 187.82023574328986
      LOOP 0
      ALLTAKES 0
      COLOR 19150555
      SEL 0
      FADEIN 1 0.000000 0.000000 1 0
      FADEOUT 1 0.000000 0.000000 1 0
      MUTE 0
      IGUID {9FF11F36-E94F-4396-9C0E-8449C916EC21}
      IID 1
      NAME "PART DRUMS_2X"
      VOLPAN 1.000000 0.000000 1.000000 -1.000000
      SOFFS 0.00000000000000 0.00000000000000
      PLAYRATE 1.00000000000000 1 0.00000000000000 -65536
      CHANMODE 0
      GUID {70A79ADF-E70C-430A-913F-E16D0CC85517}
      <SOURCE MIDI
        HASDATA 1 480 QN
        POOLEDEVTS {933652A6-ECE2-4CCB-81B6-6B8AB921404C}
        <X 0 0
          /wNQQVJUIERSVU1TXzJY
        >
        <X 300 0
          /wFbbWl4IDEgZHJ1bXMwXQ==
        >
        <X 0 0
          /wFbbWl4IDAgZHJ1bXMwXQ==
        >
        <X 60 0
          /wFbbWl4IDIgZHJ1bXMwXQ==
        >
        <X 60 0
          /wFbbWl4IDMgZHJ1bXMwXQ==
        >
        <X 3420 0
          /wFbcGxheV0=
        >
        E 0 90 1b 60
        E 0 90 3d 60
        E 0 90 49 60
        E 0 90 55 60
        E 0 90 61 60
        E 80 80 1b 00
        E 0 80 3d 00
        E 0 80 49 00
        E 0 80 55 00
        E 0 80 61 00
        E 0 90 1a 60
        E 0 90 61 60
        E 80 80 1a 00
        E 0 80 61 00
        E 0 90 1b 60
        E 0 90 61 60
        E 80 80 1b 00
        E 0 80 61 00
        E 0 90 1a 60
        E 0 90 55 60
        E 0 90 61 60
        E 80 80 1a 00
        E 0 80 55 00
        E 0 80 61 00
        E 0 90 1b 60
        E 0 90 61 60
        E 80 80 1b 00
        E 0 80 61 00
        E 0 90 1a 60
        E 0 90 61 60
        E 80 80 1a 00
        E 0 80 61 00
        E 0 90 1b 60
        E 0 90 3d 60
        E 0 90 49 60
        E 0 90 55 60
        E 0 90 61 60
        E 80 80 1b 00
        E 0 80 3d 00
        E 0 80 49 00
        E 0 80 55 00
        E 0 80 61 00
        E 0 90 1a 60
        E 0 90 61 60
        E 80 80 1a 00
        E 0 80 61 00
        E 0 90 2f 60
        E 0 90 62 60
        E 0 90 6e 60
        E 80 80 2f 00
        E 0 80 62 00
        E 0 80 6e 00
        E 0 90 2e 60
        E 0 90 56 60
        E 0 90 62 60
        E 0 90 6e 60
        E 80 80 2e 00
        E 0 80 56 00
        E 0 80 62 00
        E 0 80 6e 00
        E 0 90 2f 60
        E 0 90 62 60
        E 0 90 6e 60
        E 80 80 2f 00
        E 0 80 62 00
        E 0 80 6e 00
        E 0 90 2e 60
        E 0 90 62 60
        E 0 90 6e 60
        E 80 80 2e 00
        E 0 80 62 00
        E 0 80 6e 00
        E 0 90 1b 60
        E 0 90 3d 60
        E 0 90 49 60
        E 0 90 55 60
        E 0 90 61 60
        E 80 80 1b 00
        E 0 80 3d 00
        E 0 80 49 00
        E 0 80 55 00
        E 0 80 61 00
        E 0 90 1a 60
        E 0 90 61 60
        E 80 80 1a 00
        E 0 80 61 00
        E 0 90 2f 60
        E 0 90 62 60
        E 0 90 6e 60
        E 80 80 2f 00
        E 0 80 62 00
        E 0 80 6e 00
        E 0 90 2e 60
        E 0 90 56 60
        E 0 90 62 60
        E 0 90 6e 60
        E 80 80 2e 00
        E 0 80 56 00
        E 0 80 62 00
        E 0 80 6e 00
        E 0 90 2f 60
        E 0 90 62 60
        E 0 90 6e 60
        E 80 80 2f 00
        E 0 80 62 00
        E 0 80 6e 00
        E 0 90 2e 60
        E 0 90 62 60
        E 0 90 6e 60
        E 80 80 2e 00
        E 0 80 62 00
        E 0 80 6e 00
        E 0 90 1b 60
        E 0 90 3d 60
        E 0 90 49 60
        E 0 90 55 60
        E 0 90 61 60
        E 80 80 1b 00
        E 0 80 3d 00
        E 0 80 49 00
        E 0 80 55 00
        E 0 80 61 00
        E 0 90 1a 60
        E 0 90 61 60
        E 80 80 1a 00
        E 0 80 61 00
        E 0 90 31 60
        E 0 90 63 60
        E 0 90 6f 60
        E 80 80 31 00
        E 0 80 63 00
        E 0 80 6f 00
        E 0 90 30 60
        E 0 90 57 60
        E 0 90 63 60
        E 0 90 6f 60
        E 80 80 30 00
        E 0 80 57 00
        E 0 80 63 00
        E 0 80 6f 00
        E 0 90 31 60
        E 0 90 63 60
        E 0 90 6f 60
        E 80 80 31 00
        E 0 80 63 00
        E 0 80 6f 00
        E 0 90 30 60
        E 0 90 63 60
        E 0 90 6f 60
        E 80 80 30 00
        E 0 80 63 00
        E 0 80 6f 00
        E 0 90 18 60
        E 0 90 26 60
        E 0 90 40 60
        E 0 90 48 60
        E 0 90 4c 60
        E 0 90 54 60
        E 0 90 58 60
        E 0 90 60 60
        E 0 90 64 60
        E 80 80 18 00
        E 0 80 26 00
        E 0 80 40 00
        E 0 80 48 00
        E 0 80 4c 00
        E 0 80 54 00
        E 0 80 58 00
        E 0 80 60 00
        E 0 80 64 00
        E 240 90 18 60
        E 0 90 2b 60
        E 0 90 60 60
        E 0 90 63 60
        E 80 80 18 00
        E 0 80 2b 00
        E 0 80 60 00
        E 0 80 63 00
        E 80 90 1a 60
        E 0 90 2a 60
        E 0 90 3d 60
        E 0 90 49 60
        E 0 90 4b 60
        E 0 90 55 60
        E 0 90 57 60
        E 0 90 61 60
        E 0 90 63 60
        E 80 80 1a 00
        E 0 80 2a 00
        E 0 80 3d 00
        E 0 80 49 00
        E 0 80 4b 00
        E 0 80 55 00
        E 0 80 57 00
        E 0 80 61 00
        E 0 80 63 00
        E 80 90 2b 60
        E 0 90 63 60
        E 80 80 2b 00
        E 0 80 63 00
        E 0 90 2a 60
        E 0 90 57 60
        E 0 90 63 60
        E 80 80 2a 00
        E 0 80 57 00
        E 0 80 63 00
        E 0 90 18 60
        E 0 90 2b 60
        E 0 90 60 60
        E 0 90 63 60
        E 80 80 18 00
        E 0 80 2b 00
        E 0 80 60 00
        E 0 80 63 00
        E 80 90 18 60
        E 0 90 2a 60
        E 0 90 3f 60
        E 0 90 48 60
        E 0 90 4b 60
        E 0 90 54 60
        E 0 90 57 60
        E 0 90 60 60
        E 0 90 63 60
        E 80 80 18 00
        E 0 80 2a 00
        E 0 80 3f 00
        E 0 80 48 00
        E 0 80 4b 00
        E 0 80 54 00
        E 0 80 57 00
        E 0 80 60 00
        E 0 80 63 00
        E 80 90 2b 60
        E 0 90 63 60
        E 80 80 2b 00
        E 0 80 63 00
        E 80 90 18 60
        E 0 90 2a 60
        E 0 90 60 60
        E 0 90 63 60
        E 80 80 18 00
        E 0 80 2a 00
        E 0 80 60 00
        E 0 80 63 00
        E 80 90 1a 60
        E 0 90 2a 60
        E 0 90 3d 60
        E 0 90 49 60
        E 0 90 4b 60
        E 0 90 55 60
        E 0 90 57 60
        E 0 90 61 60
        E 0 90 63 60
        E 80 80 1a 00
        E 0 80 2a 00
        E 0 80 3d 00
        E 0 80 49 00
        E 0 80 4b 00
        E 0 80 55 00
        E 0 80 57 00
        E 0 80 61 00
        E 0 80 63 00
        E 80 90 18 60
        E 0 90 2b 60
        E 0 90 60 60
        E 0 90 63 60
        E 80 80 18 00
        E 0 80 2b 00
        E 0 80 60 00
        E 0 80 63 00
        E 80 90 1a 60
        E 0 90 2a 60
        E 0 90 61 60
        E 0 90 63 60
        E 80 80 1a 00
        E 0 80 2a 00
        E 0 80 61 00
        E 0 80 63 00
        E 80 90 18 60
        E 0 90 2a 60
        E 0 90 3f 60
        E 0 90 48 60
        E 0 90 4b 60
        E 0 90 54 60
        E 0 90 57 60
        E 0 90 60 60
        E 0 90 63 60
        E 80 80 18 00
        E 0 80 2a 00
        E 0 80 3f 00
        E 0 80 48 00
        E 0 80 4b 00
        E 0 80 54 00
        E 0 80 57 00
        E 0 80 60 00
        E 0 80 63 00
        E 80 90 2b 60
        E 0 90 63 60
        E 80 80 2b 00
        E 0 80 63 00
        E 80 90 18 60
        E 0 90 2a 60
        E 0 90 60 60
        E 0 90 63 60
        E 80 80 18 00
        E 0 80 2a 00
        E 0 80 60 00
        E 0 80 63 00
        E 80 90 1a 60
        E 0 90 2a 60
        E 0 90 3d 60
        E 0 90 49 60
        E 0 90 4b 60
        E 0 90 55 60
        E 0 90 57 60
        E 0 90 61 60
        E 0 90 63 60
        E 80 80 1a 00
        E 0 80 2a 00
        E 0 80 3d 00
        E 0 80 49 00
        E 0 80 4b 00
        E 0 80 55 00
        E 0 80 57 00
        E 0 80 61 00
        E 0 80 63 00
        E 80 90 2b 60
        E 0 90 63 60
        E 80 80 2b 00
        E 0 80 63 00
        E 0 90 2a 60
        E 0 90 57 60
        E 0 90 63 60
        E 80 80 2a 00
        E 0 80 57 00
        E 0 80 63 00
        E 0 90 18 60
        E 0 90 2b 60
        E 0 90 60 60
        E 0 90 63 60
        E 80 80 18 00
        E 0 80 2b 00
        E 0 80 60 00
        E 0 80 63 00
        E 80 90 18 60
        E 0 90 2a 60
        E 0 90 3f 60
        E 0 90 48 60
        E 0 90 4b 60
        E 0 90 54 60
        E 0 90 57 60
        E 0 90 60 60
        E 0 90 63 60
        E 80 80 18 00
        E 0 80 2a 00
        E 0 80 3f 00
        E 0 80 48 00
        E 0 80 4b 00
        E 0 80 54 00
        E 0 80 57 00
        E 0 80 60 00
        E 0 80 63 00
        E 80 90 2b 60
        E 0 90 63 60
        E 80 80 2b 00
        E 0 80 63 00
        E 80 90 18 60
        E 0 90 2a 60
        E 0 90 60 60
        E 0 90 63 60
        E 80 80 18 00
        E 0 80 2a 00
        E 0 80 60 00
        E 0 80 63 00
        E 80 90 1a 60
        E 0 90 2a 60
        E 0 90 3d 60
        E 0 90 49 60
        E 0 90 4b 60
        E 0 90 55 60
        E 0 90 57 60
        E 0 90 61 60
        E 0 90 63 60
        E 80 80 1a 00
        E 0 80 2a 00
        E 0 80 3d 00
        E 0 80 49 00
        E 0 80 4b 00
        E 0 80 55 00
        E 0 80 57 00
        E 0 80 61 00
        E 0 80 63 00
        E 80 90 18 60
        E 0 90 2b 60
        E 0 90 60 60
        E 0 90 63 60
        E 80 80 18 00
        E 0 80 2b 00
        E 0 80 60 00
        E 0 80 63 00
        E 80 90 1a 60
        E 0 90 2a 60
        E 0 90 61 60
        E 0 90 63 60
        E 80 80 1a 00
        E 0 80 2a 00
        E 0 80 61 00
        E 0 80 63 00
        E 80 90 18 60
        E 0 90 2a 60
        E 0 90 3f 60
        E 0 90 48 60
        E 0 90 4b 60
        E 0 90 54 60
        E 0 90 57 60
        E 0 90 60 60
        E 0 90 63 60
        E 80 80 18 00
        E 0 80 2a 00
        E 0 80 3f 00
        E 0 80 48 00
        E 0 80 4b 00
        E 0 80 54 00
        E 0 80 57 00
        E 0 80 60 00
        E 0 80 63 00
        E 80 90 2b 60
        E 0 90 63 60
        E 80 80 2b 00
        E 0 80 63 00
        E 80 90 18 60
        E 0 90 2a 60
        E 0 90 60 60
        E 0 90 63 60
        E 80 80 18 00
        E 0 80 2a 00
        E 0 80 60 00
        E 0 80 63 00
        E 80 90 1a 60
        E 0 90 2a 60
        E 0 90 3d 60
        E 0 90 49 60
        E 0 90 4b 60
        E 0 90 55 60
        E 0 90 57 60
        E 0 90 61 60
        E 0 90 63 60
        E 80 80 1a 00
        E 0 80 2a 00
        E 0 80 3d 00
        E 0 80 49 00
        E 0 80 4b 00
        E 0 80 55 00
        E 0 80 57 00
        E 0 80 61 00
        E 0 80 63 00
        E 80 90 2b 60
        E 0 90 63 60
        E 80 80 2b 00
        E 0 80 63 00
        E 80 90 18 60
        E 0 90 2a 60
        E 0 90 60 60
        E 0 90 63 60
        E 80 80 18 00
        E 0 80 2a 00
        E 0 80 60 00
        E 0 80 63 00
        E 80 90 18 60
        E 0 90 2b 60
        E 0 90 3f 60
        E 0 90 48 60
        E 0 90 4b 60
        E 0 90 54 60
        E 0 90 57 60
        E 0 90 60 60
        E 0 90 63 60
        E 80 80 18 00
        E 0 80 2b 00
        E 0 80 3f 00
        E 0 80 48 00
        E 0 80 4b 00
        E 0 80 54 00
        E 0 80 57 00
        E 0 80 60 00
        E 0 80 63 00
        E 80 90 2a 60
        E 0 90 63 60
        E 80 80 2a 00
        E 0 80 63 00
        E 80 90 18 60
        E 0 90 2b 60
        E 0 90 60 60
        E 0 90 63 60
        E 80 80 18 00
        E 0 80 2b 00
        E 0 80 60 00
        E 0 80 63 00
        E 80 90 1a 60
        E 0 90 2a 60
        E 0 90 3d 60
        E 0 90 49 60
        E 0 90 4b 60
        E 0 90 55 60
        E 0 90 57 60
        E 0 90 61 60
        E 0 90 63 60
        E 80 80 1a 00
        E 0 80 2a 00
        E 0 80 3d 00
        E 0 80 49 00
        E 0 80 4b 00
        E 0 80 55 00
        E 0 80 57 00
        E 0 80 61 00
        E 0 80 63 00
        E 80 90 18 60
        E 0 90 2b 60
        E 0 90 60 60
        E 0 90 63 60
        E 80 80 18 00
        E 0 80 2b 00
        E 0 80 60 00
        E 0 80 63 00
        E 80 90 1a 60
        E 0 90 2a 60
        E 0 90 61 60
        E 0 90 63 60
        E 80 80 1a 00
        E 0 80 2a 00
        E 0 80 61 00
        E 0 80 63 00
        E 80 90 18 60
        E 0 90 2a 60
        E 0 90 3f 60
        E 0 90 48 60
        E 0 90 4b 60
        E 0 90 54 60
        E 0 90 57 60
        E 0 90 60 60
        E 0 90 63 60
        E 80 80 18 00
        E 0 80 2a 00
        E 0 80 3f 00
        E 0 80 48 00
        E 0 80 4b 00
        E 0 80 54 00
        E 0 80 57 00
        E 0 80 60 00
        E 0 80 63 00
        E 80 90 2b 60
        E 0 90 63 60
        E 80 80 2b 00
        E 0 80 63 00
        E 80 90 18 60
        E 0 90 2a 60
        E 0 90 60 60
        E 0 90 63 60
        E 80 80 18 00
        E 0 80 2a 00
        E 0 80 60 00
        E 0 80 63 00
        E 80 90 1a 60
        E 0 90 2a 60
        E 0 90 3d 60
        E 0 90 49 60
        E 0 90 4b 60
        E 0 90 55 60
        E 0 90 57 60
        E 0 90 61 60
        E 0 90 63 60
        E 80 80 1a 00
        E 0 80 2a 00
        E 0 80 3d 00
        E 0 80 49 00
        E 0 80 4b 00
        E 0 80 55 00
        E 0 80 57 00
        E 0 80 61 00
        E 0 80 63 00
        E 80 90 2b 60
        E 0 90 63 60
        E 80 80 2b 00
        E 0 80 63 00
        E 80 90 18 60
        E 0 90 2a 60
        E 0 90 60 60
        E 0 90 63 60
        E 80 80 18 00
        E 0 80 2a 00
        E 0 80 60 00
        E 0 80 63 00
        E 80 90 1a 60
        E 0 90 2a 60
        E 0 90 3d 60
        E 0 90 49 60
        E 0 90 4b 60
        E 0 90 55 60
        E 0 90 57 60
        E 0 90 61 60
        E 0 90 63 60
        E 80 80 1a 00
        E 0 80 2a 00
        E 0 80 3d 00
        E 0 80 49 00
        E 0 80 4b 00
        E 0 80 55 00
        E 0 80 57 00
        E 0 80 61 00
        E 0 80 63 00
        E 80 90 2b 60
        E 0 90 63 60
        E 80 80 2b 00
        E 0 80 63 00
        E 0 90 1b 60
        E 0 90 55 60
        E 0 90 61 60
        E 80 80 1b 00
        E 0 80 55 00
        E 0 80 61 00
        E 0 90 1a 60
        E 0 90 61 60
        E 80 80 1a 00
        E 0 80 61 00
        E 80 90 1b 60
        E 0 90 3d 60
        E 0 90 49 60
        E 0 90 55 60
        E 0 90 61 60
        E 80 80 1b 00
        E 0 80 3d 00
        E 0 80 49 00
        E 0 80 55 00
        E 0 80 61 00
        E 0 90 1a 60
        E 0 90 61 60
        E 80 80 1a 00
        E 0 80 61 00
        E 0 90 2f 60
        E 0 90 62 60
        E 0 90 6e 60
        E 80 80 2f 00
        E 0 80 62 00
        E 0 80 6e 00
        E 0 90 2e 60
        E 0 90 56 60
        E 0 90 62 60
        E 0 90 6e 60
        E 80 80 2e 00
        E 0 80 56 00
        E 0 80 62 00
        E 0 80 6e 00
        E 0 90 31 60
        E 0 90 63 60
        E 0 90 6f 60
        E 80 80 31 00
        E 0 80 63 00
        E 0 80 6f 00
        E 0 90 30 60
        E 0 90 63 60
        E 0 90 6f 60
        E 80 80 30 00
        E 0 80 63 00
        E 0 80 6f 00
        E 0 90 18 60
        E 0 90 26 60
        E 0 90 40 60
        E 0 90 48 60
        E 0 90 4c 60
        E 0 90 54 60
        E 0 90 58 60
        E 0 90 60 60
        E 0 90 64 60
        E 80 80 18 00
        E 0 80 26 00
        E 0 80 40 00
        E 0 80 48 00
        E 0 80 4c 00
        E 0 80 54 00
        E 0 80 58 00
        E 0 80 60 00
        E 0 80 64 00
        E 0 90 18 60
        E 0 90 60 60
        E 80 80 18 00
        E 0 80 60 00
        E 0 90 18 60
        E 0 90 60 60
        E 80 80 18 00
        E 0 80 60 00
        E 0 90 18 60
        E 0 90 54 60
        E 0 90 60 60
        E 80 80 18 00
        E 0 80 54 00
        E 0 80 60 00
        E 0 90 18 60
        E 0 90 60 60
        E 80 80 18 00
        E 0 80 60 00
        E 0 90 18 60
        E 0 90 60 60
        E 80 80 18 00
        E 0 80 60 00
        E 0 90 18 60
        E 0 90 1a 60
        E 0 90 2a 60
        E 0 90 3d 60
        E 0 90 49 60
        E 0 90 4b 60
        E 0 90 54 60
        E 0 90 55 60
        E 0 90 57 60
        E 0 90 60 60
        E 0 90 61 60
        E 0 90 63 60
        E 80 80 18 00
        E 0 80 1a 00
        E 0 80 2a 00
        E 0 80 3d 00
        E 0 80 49 00
        E 0 80 4b 00
        E 0 80 54 00
        E 0 80 55 00
        E 0 80 57 00
        E 0 80 60 00
        E 0 80 61 00
        E 0 80 63 00
        E 0 90 18 60
        E 0 90 60 60
        E 80 80 18 00
        E 0 80 60 00
        E 0 90 18 60
        E 0 90 2a 60
        E 0 90 60 60
        E 0 90 63 60
        E 80 80 18 00
        E 0 80 2a 00
        E 0 80 60 00
        E 0 80 63 00
        E 0 90 18 60
        E 0 90 54 60
        E 0 90 60 60
        E 80 80 18 00
        E 0 80 54 00
        E 0 80 60 00
        E 0 90 18 60
        E 0 90 2a 60
        E 0 90 60 60
        E 0 90 63 60
        E 80 80 18 00
        E 0 80 2a 00
        E 0 80 60 00
        E 0 80 63 00
        E 0 90 18 60
        E 0 90 60 60
        E 80 80 18 00
        E 0 80 60 00
        E 0 90 18 60
        E 0 90 1a 60
        E 0 90 2a 60
        E 0 90 3d 60
        E 0 90 49 60
        E 0 90 4b 60
        E 0 90 54 60
        E 0 90 55 60
        E 0 90 57 60
        E 0 90 60 60
        E 0 90 61 60
        E 0 90 63 60
        E 80 80 18 00
        E 0 80 1a 00
        E 0 80 2a 00
        E 0 80 3d 00
        E 0 80 49 00
        E 0 80 4b 00
        E 0 80 54 00
        E 0 80 55 00
        E 0 80 57 00
        E 0 80 60 00
        E 0 80 61 00
        E 0 80 63 00
        E 0 90 18 60
        E 0 90 60 60
        E 80 80 18 00
        E 0 80 60 00
        E 0 90 18 60
        E 0 90 60 60
        E 80 80 18 00
        E 0 80 60 00
        E 0 90 18 60
        E 0 90 54 60
        E 0 90 60 60
        E 80 80 18 00
        E 0 80 54 00
        E 0 80 60 00
        E 0 90 18 60
        E 0 90 60 60
        E 80 80 18 00
        E 0 80 60 00
        E 0 90 18 60
        E 0 90 60 60
        E 80 80 18 00
        E 0 80 60 00
        E 0 90 18 60
        E 0 90 1a 60
        E 0 90 2a 60
        E 0 90 3d 60
        E 0 90 49 60
        E 0 90 4b 60
        E 0 90 54 60
        E 0 90 55 60
        E 0 90 57 60
        E 0 90 60 60
        E 0 90 61 60
        E 0 90 63 60
        E 80 80 18 00
        E 0 80 1a 00
        E 0 80 2a 00
        E 0 80 3d 00
        E 0 80 49 00
        E 0 80 4b 00
        E 0 80 54 00
        E 0 80 55 00
        E 0 80 57 00
        E 0 80 60 00
        E 0 80 61 00
        E 0 80 63 00
        E 0 90 18 60
        E 0 90 60 60
        E 80 80 18 00
        E 0 80 60 00
        E 0 90 18 60
        E 0 90 60 60
        E 80 80 18 00
        E 0 80 60 00
        E 0 90 18 60
        E 0 90 54 60
        E 0 90 60 60
        E 80 80 18 00
        E 0 80 54 00
        E 0 80 60 00
        E 0 90 18 60
        E 0 90 60 60
        E 80 80 18 00
        E 0 80 60 00
        E 0 90 18 60
        E 0 90 60 60
        E 80 80 18 00
        E 0 80 60 00
        E 0 90 18 60
        E 0 90 1a 60
        E 0 90 2a 60
        E 0 90 3d 60
        E 0 90 49 60
        E 0 90 4b 60
        E 0 90 54 60
        E 0 90 55 60
        E 0 90 57 60
        E 0 90 60 60
        E 0 90 61 60
        E 0 90 63 60
        E 80 80 18 00
        E 0 80 1a 00
        E 0 80 2a 00
        E 0 80 3d 00
        E 0 80 49 00
        E 0 80 4b 00
        E 0 80 54 00
        E 0 80 55 00
        E 0 80 57 00
        E 0 80 60 00
        E 0 80 61 00
        E 0 80 63 00
        E 0 90 18 60
        E 0 90 60 60
        E 80 80 18 00
        E 0 80 60 00
        E 0 90 18 60
        E 0 90 60 60
        E 80 80 18 00
        E 0 80 60 00
        E 0 90 18 60
        E 0 90 54 60
        E 0 90 60 60
        E 80 80 18 00
        E 0 80 54 00
        E 0 80 60 00
        E 0 90 18 60
        E 0 90 60 60
        E 80 80 18 00
        E 0 80 60 00
        E 0 90 18 60
        E 0 90 60 60
        E 80 80 18 00
        E 0 80 60 00
        E 0 90 18 60
        E 0 90 1a 60
        E 0 90 2a 60
        E 0 90 3d 60
        E 0 90 49 60
        E 0 90 4b 60
        E 0 90 54 60
        E 0 90 55 60
        E 0 90 57 60
        E 0 90 60 60
        E 0 90 61 60
        E 0 90 63 60
        E 80 80 18 00
        E 0 80 1a 00
        E 0 80 2a 00
        E 0 80 3d 00
        E 0 80 49 00
        E 0 80 4b 00
        E 0 80 54 00
        E 0 80 55 00
        E 0 80 57 00
        E 0 80 60 00
        E 0 80 61 00
        E 0 80 63 00
        E 0 90 18 60
        E 0 90 60 60
        E 80 80 18 00
        E 0 80 60 00
        E 0 90 18 60
        E 0 90 60 60
        E 80 80 18 00
        E 0 80 60 00
        E 0 90 18 60
        E 0 90 54 60
        E 0 90 60 60
        E 80 80 18 00
        E 0 80 54 00
        E 0 80 60 00
        E 0 90 18 60
        E 0 90 60 60
        E 80 80 18 00
        E 0 80 60 00
        E 0 90 18 60
        E 0 90 60 60
        E 80 80 18 00
        E 0 80 60 00
        E 0 90 18 60
        E 0 90 1a 60
        E 0 90 2a 60
        E 0 90 3d 60
        E 0 90 49 60
        E 0 90 4b 60
        E 0 90 54 60
        E 0 90 55 60
        E 0 90 57 60
        E 0 90 60 60
        E 0 90 61 60
        E 0 90 63 60
        E 80 80 18 00
        E 0 80 1a 00
        E 0 80 2a 00
        E 0 80 3d 00
        E 0 80 49 00
        E 0 80 4b 00
        E 0 80 54 00
        E 0 80 55 00
        E 0 80 57 00
        E 0 80 60 00
        E 0 80 61 00
        E 0 80 63 00
        E 0 90 18 60
        E 0 90 60 60
        E 80 80 18 00
        E 0 80 60 00
        E 0 90 18 60
        E 0 90 60 60
        E 80 80 18 00
        E 0 80 60 00
        E 0 90 18 60
        E 0 90 54 60
        E 0 90 60 60
        E 80 80 18 00
        E 0 80 54 00
        E 0 80 60 00
        E 0 90 18 60
        E 0 90 60 60
        E 80 80 18 00
        E 0 80 60 00
        E 0 90 18 60
        E 0 90 60 60
        E 80 80 18 00
        E 0 80 60 00
        E 0 90 18 60
        E 0 90 2f 60
        E 0 90 3e 60
        E 0 90 4a 60
        E 0 90 54 60
        E 0 90 56 60
        E 0 90 60 60
        E 0 90 62 60
        E 0 90 6e 60
        E 80 80 18 00
        E 0 80 2f 00
        E 0 80 3e 00
        E 0 80 4a 00
        E 0 80 54 00
        E 0 80 56 00
        E 0 80 60 00
        E 0 80 62 00
        E 0 80 6e 00
        E 0 90 18 60
        E 0 90 2e 60
        E 0 90 60 60
        E 0 90 62 60
        E 0 90 6e 60
        E 80 80 18 00
        E 0 80 2e 00
        E 0 80 60 00
        E 0 80 62 00
        E 0 80 6e 00
        E 0 90 18 60
        E 0 90 31 60
        E 0 90 60 60
        E 0 90 63 60
        E 0 90 6f 60
        E 80 80 18 00
        E 0 80 31 00
        E 0 80 60 00
        E 0 80 63 00
        E 0 80 6f 00
        E 0 90 18 60
        E 0 90 30 60
        E 0 90 54 60
        E 0 90 57 60
        E 0 90 60 60
        E 0 90 63 60
        E 0 90 6f 60
        E 80 80 18 00
        E 0 80 30 00
        E 0 80 54 00
        E 0 80 57 00
        E 0 80 60 00
        E 0 80 63 00
        E 0 80 6f 00
        E 0 90 18 60
        E 0 90 33 60
        E 0 90 60 60
        E 0 90 64 60
        E 0 90 70 60
        E 80 80 18 00
        E 0 80 33 00
        E 0 80 60 00
        E 0 80 64 00
        E 0 80 70 00
        E 0 90 18 60
        E 0 90 32 60
        E 0 90 60 60
        E 0 90 64 60
        E 0 90 70 60
        E 80 80 18 00
        E 0 80 32 00
        E 0 80 60 00
        E 0 80 64 00
        E 0 80 70 00
        E 0 90 18 60
        E 0 90 26 60
        E 0 90 40 60
        E 0 90 48 60
        E 0 90 4c 60
        E 0 90 54 60
        E 0 90 58 60
        E 0 90 60 60
        E 0 90 64 60
        E 0 90 74 60
        E 80 80 18 00
        E 0 80 26 00
        E 0 80 40 00
        E 0 80 48 00
        E 0 80 4c 00
        E 0 80 54 00
        E 0 80 58 00
        E 0 80 60 00
        E 0 80 64 00
        E 240 90 18 60
        E 0 90 2b 60
        E 0 90 60 60
        E 0 90 63 60
        E 80 80 18 00
        E 0 80 2b 00
        E 0 80 60 00
        E 0 80 63 00
        E 80 90 1a 60
        E 0 90 2a 60
        E 0 90 3d 60
        E 0 90 49 60
        E 0 90 4b 60
        E 0 90 55 60
        E 0 90 57 60
        E 0 90 61 60
        E 0 90 63 60
        E 80 80 1a 00
        E 0 80 2a 00
        E 0 80 3d 00
        E 0 80 49 00
        E 0 80 4b 00
        E 0 80 55 00
        E 0 80 57 00
        E 0 80 61 00
        E 0 80 63 00
        E 80 90 2b 60
        E 0 90 63 60
        E 80 80 2b 00
        E 0 80 63 00
        E 80 90 18 60
        E 0 90 2a 60
        E 0 90 60 60
        E 0 90 63 60
        E 80 80 18 00
        E 0 80 2a 00
        E 0 80 60 00
        E 0 80 63 00
        E 80 90 18 60
        E 0 90 2b 60
        E 0 90 3f 60
        E 0 90 48 60
        E 0 90 4b 60
        E 0 90 54 60
        E 0 90 57 60
        E 0 90 60 60
        E 0 90 63 60
        E 80 80 18 00
        E 0 80 2b 00
        E 0 80 3f 00
        E 0 80 48 00
        E 0 80 4b 00
        E 0 80 54 00
        E 0 80 57 00
        E 0 80 60 00
        E 0 80 63 00
        E 80 90 2a 60
        E 0 90 63 60
        E 80 80 2a 00
        E 0 80 63 00
        E 80 90 18 60
        E 0 90 2b 60
        E 0 90 60 60
        E 0 90 63 60
        E 80 80 18 00
        E 0 80 2b 00
        E 0 80 60 00
        E 0 80 63 00
        E 80 90 1a 60
        E 0 90 2a 60
        E 0 90 3d 60
        E 0 90 49 60
        E 0 90 4b 60
        E 0 90 55 60
        E 0 90 57 60
        E 0 90 61 60
        E 0 90 63 60
        E 80 80 1a 00
        E 0 80 2a 00
        E 0 80 3d 00
        E 0 80 49 00
        E 0 80 4b 00
        E 0 80 55 00
        E 0 80 57 00
        E 0 80 61 00
        E 0 80 63 00
        E 80 90 18 60
        E 0 90 2b 60
        E 0 90 60 60
        E 0 90 63 60
        E 80 80 18 00
        E 0 80 2b 00
        E 0 80 60 00
        E 0 80 63 00
        E 80 90 1a 60
        E 0 90 2a 60
        E 0 90 61 60
        E 0 90 63 60
        E 80 80 1a 00
        E 0 80 2a 00
        E 0 80 61 00
        E 0 80 63 00
        E 80 90 18 60
        E 0 90 2a 60
        E 0 90 3f 60
        E 0 90 48 60
        E 0 90 4b 60
        E 0 90 54 60
        E 0 90 57 60
        E 0 90 60 60
        E 0 90 63 60
        E 80 80 18 00
        E 0 80 2a 00
        E 0 80 3f 00
        E 0 80 48 00
        E 0 80 4b 00
        E 0 80 54 00
        E 0 80 57 00
        E 0 80 60 00
        E 0 80 63 00
        E 80 90 2b 60
        E 0 90 63 60
        E 80 80 2b 00
        E 0 80 63 00
        E 80 90 18 60
        E 0 90 2a 60
        E 0 90 60 60
        E 0 90 63 60
        E 80 80 18 00
        E 0 80 2a 00
        E 0 80 60 00
        E 0 80 63 00
        E 80 90 1a 60
        E 0 90 2a 60
        E 0 90 3d 60
        E 0 90 49 60
        E 0 90 4b 60
        E 0 90 55 60
        E 0 90 57 60
        E 0 90 61 60
        E 0 90 63 60
        E 80 80 1a 00
        E 0 80 2a 00
        E 0 80 3d 00
        E 0 80 49 00
        E 0 80 4b 00
        E 0 80 55 00
        E 0 80 57 00
        E 0 80 61 00
        E 0 80 63 00
        E 80 90 2b 60
        E 0 90 63 60
        E 80 80 2b 00
        E 0 80 63 00
        E 80 90 18 60
        E 0 90 2a 60
        E 0 90 60 60
        E 0 90 63 60
        E 80 80 18 00
        E 0 80 2a 00
        E 0 80 60 00
        E 0 80 63 00
        E 80 90 1a 60
        E 0 90 2a 60
        E 0 90 3d 60
        E 0 90 49 60
        E 0 90 4b 60
        E 0 90 55 60
        E 0 90 57 60
        E 0 90 61 60
        E 0 90 63 60
        E 80 80 1a 00
        E 0 80 2a 00
        E 0 80 3d 00
        E 0 80 49 00
        E 0 80 4b 00
        E 0 80 55 00
        E 0 80 57 00
        E 0 80 61 00
        E 0 80 63 00
        E 80 90 2b 60
        E 0 90 63 60
        E 80 80 2b 00
        E 0 80 63 00
        E 0 90 1b 60
        E 0 90 55 60
        E 0 90 61 60
        E 80 80 1b 00
        E 0 80 55 00
        E 0 80 61 00
        E 0 90 1a 60
        E 0 90 61 60
        E 80 80 1a 00
        E 0 80 61 00
        E 80 90 1b 60
        E 0 90 3d 60
        E 0 90 49 60
        E 0 90 55 60
        E 0 90 61 60
        E 80 80 1b 00
        E 0 80 3d 00
        E 0 80 49 00
        E 0 80 55 00
        E 0 80 61 00
        E 80 90 1a 60
        E 0 90 61 60
        E 80 80 1a 00
        E 0 80 61 00
        E 80 90 18 60
        E 0 90 60 60
        E 80 80 18 00
        E 0 80 60 00
        E 80 80 74 00
        E 0 90 18 60
        E 0 90 26 60
        E 0 90 40 60
        E 0 90 48 60
        E 0 90 4c 60
        E 0 90 54 60
        E 0 90 58 60
        E 0 90 60 60
        E 0 90 64 60
        E 80 80 18 00
        E 0 80 26 00
        E 0 80 40 00
        E 0 80 48 00
        E 0 80 4c 00
        E 0 80 54 00
        E 0 80 58 00
        E 0 80 60 00
        E 0 80 64 00
        E 80 90 18 60
        E 0 90 60 60
        E 80 80 18 00
        E 0 80 60 00
        E 80 90 18 60
        E 0 90 60 60
        E 80 80 18 00
        E 0 80 60 00
        E 80 90 18 60
        E 0 90 26 60
        E 0 90 40 60
        E 0 90 48 60
        E 0 90 4c 60
        E 0 90 54 60
        E 0 90 58 60
        E 0 90 60 60
        E 0 90 64 60
        E 80 80 18 00
        E 0 80 26 00
        E 0 80 40 00
        E 0 80 48 00
        E 0 80 4c 00
        E 0 80 54 00
        E 0 80 58 00
        E 0 80 60 00
        E 0 80 64 00
        E 80 90 18 60
        E 0 90 60 60
        E 80 80 18 00
        E 0 80 60 00
        E 80 90 18 60
        E 0 90 60 60
        E 80 80 18 00
        E 0 80 60 00
        E 80 90 1a 60
        E 0 90 26 60
        E 0 90 3d 60
        E 0 90 49 60
        E 0 90 4c 60
        E 0 90 55 60
        E 0 90 58 60
        E 0 90 61 60
        E 0 90 64 60
        E 80 80 1a 00
        E 0 80 26 00
        E 0 80 3d 00
        E 0 80 49 00
        E 0 80 4c 00
        E 0 80 55 00
        E 0 80 58 00
        E 0 80 61 00
        E 0 80 64 00
        E 80 90 18 60
        E 0 90 60 60
        E 80 80 18 00
        E 0 80 60 00
        E 80 90 1a 60
        E 0 90 26 60
        E 0 90 61 60
        E 0 90 64 60
        E 80 80 1a 00
        E 0 80 26 00
        E 0 80 61 00
        E 0 80 64 00
        E 80 90 18 60
        E 0 90 3c 60
        E 0 90 48 60
        E 0 90 54 60
        E 0 90 60 60
        E 80 80 18 00
        E 0 80 3c 00
        E 0 80 48 00
        E 0 80 54 00
        E 0 80 60 00
        E 80 90 1a 60
        E 0 90 26 60
        E 0 90 61 60
        E 0 90 64 60
        E 80 80 1a 00
        E 0 80 26 00
        E 0 80 61 00
        E 0 80 64 00
        E 80 90 1a 60
        E 0 90 26 60
        E 0 90 61 60
        E 0 90 64 60
        E 80 80 1a 00
        E 0 80 26 00
        E 0 80 61 00
        E 0 80 64 00
        E 80 90 18 60
        E 0 90 22 60
        E 0 90 26 60
        E 0 90 3e 60
        E 0 90 40 60
        E 0 90 48 60
        E 0 90 4a 60
        E 0 90 4c 60
        E 0 90 54 60
        E 0 90 56 60
        E 0 90 58 60
        E 0 90 60 60
        E 0 90 62 60
        E 0 90 64 60
        E 80 80 18 00
        E 0 80 22 00
        E 0 80 26 00
        E 0 80 3e 00
        E 0 80 40 00
        E 0 80 48 00
        E 0 80 4a 00
        E 0 80 4c 00
        E 0 80 54 00
        E 0 80 56 00
        E 0 80 58 00
        E 0 80 60 00
        E 0 80 62 00
        E 0 80 64 00
        E 240 90 18 60
        E 0 90 60 60
        E 80 80 18 00
        E 0 80 60 00
        E 80 90 1a 60
        E 0 90 26 60
        E 0 90 3d 60
        E 0 90 49 60
        E 0 90 4c 60
        E 0 90 55 60
        E 0 90 58 60
        E 0 90 61 60
        E 0 90 64 60
        E 80 80 1a 00
        E 0 80 26 00
        E 0 80 3d 00
        E 0 80 49 00
        E 0 80 4c 00
        E 0 80 55 00
        E 0 80 58 00
        E 0 80 61 00
        E 0 80 64 00
        E 80 90 26 60
        E 0 90 64 60
        E 80 80 26 00
        E 0 80 64 00
        E 80 90 18 60
        E 0 90 60 60
        E 80 80 18 00
        E 0 80 60 00
        E 80 90 1a 60
        E 0 90 26 60
        E 0 90 3d 60
        E 0 90 49 60
        E 0 90 4c 60
        E 0 90 55 60
        E 0 90 58 60
        E 0 90 61 60
        E 0 90 64 60
        E 80 80 1a 00
        E 0 80 26 00
        E 0 80 3d 00
        E 0 80 49 00
        E 0 80 4c 00
        E 0 80 55 00
        E 0 80 58 00
        E 0 80 61 00
        E 0 80 64 00
        E 160 90 2f 60
        E 0 90 56 60
        E 0 90 62 60
        E 0 90 6e 60
        E 80 80 2f 00
        E 0 80 56 00
        E 0 80 62 00
        E 0 80 6e 00
        E 0 90 2e 60
        E 0 90 62 60
        E 0 90 6e 60
        E 80 80 2e 00
        E 0 80 62 00
        E 0 80 6e 00
        E 80 90 31 60
        E 0 90 3f 60
        E 0 90 4b 60
        E 0 90 57 60
        E 0 90 63 60
        E 0 90 6f 60
        E 80 80 31 00
        E 0 80 3f 00
        E 0 80 4b 00
        E 0 80 57 00
        E 0 80 63 00
        E 0 80 6f 00
        E 0 90 30 60
        E 0 90 63 60
        E 0 90 6f 60
        E 80 80 30 00
        E 0 80 63 00
        E 0 80 6f 00
        E 160 90 30 60
        E 0 90 63 60
        E 0 90 6f 60
        E 80 80 30 00
        E 0 80 63 00
        E 0 80 6f 00
        E 0 90 31 60
        E 0 90 63 60
        E 0 90 6f 60
        E 80 80 31 00
        E 0 80 63 00
        E 0 80 6f 00
        E 0 90 18 60
        E 0 90 26 60
        E 0 90 40 60
        E 0 90 48 60
        E 0 90 4c 60
        E 0 90 54 60
        E 0 90 58 60
        E 0 90 60 60
        E 0 90 64 60
        E 80 80 18 00
        E 0 80 26 00
        E 0 80 40 00
        E 0 80 48 00
        E 0 80 4c 00
        E 0 80 54 00
        E 0 80 58 00
        E 0 80 60 00
        E 0 80 64 00
        E 80 90 18 60
        E 0 90 60 60
        E 80 80 18 00
        E 0 80 60 00
        E 80 90 18 60
        E 0 90 60 60
        E 80 80 18 00
        E 0 80 60 00
        E 80 90 1a 60
        E 0 90 2a 60
        E 0 90 3d 60
        E 0 90 49 60
        E 0 90 4b 60
        E 0 90 55 60
        E 0 90 57 60
        E 0 90 61 60
        E 0 90 63 60
        E 80 80 1a 00
        E 0 80 2a 00
        E 0 80 3d 00
        E 0 80 49 00
        E 0 80 4b 00
        E 0 80 55 00
        E 0 80 57 00
        E 0 80 61 00
        E 0 80 63 00
        E 80 90 26 60
        E 0 90 64 60
        E 80 80 26 00
        E 0 80 64 00
        E 80 90 18 60
        E 0 90 60 60
        E 80 80 18 00
        E 0 80 60 00
        E 80 90 1a 60
        E 0 90 26 60
        E 0 90 3d 60
        E 0 90 49 60
        E 0 90 4c 60
        E 0 90 55 60
        E 0 90 58 60
        E 0 90 61 60
        E 0 90 64 60
        E 80 80 1a 00
        E 0 80 26 00
        E 0 80 3d 00
        E 0 80 49 00
        E 0 80 4c 00
        E 0 80 55 00
        E 0 80 58 00
        E 0 80 61 00
        E 0 80 64 00
        E 80 90 18 60
        E 0 90 60 60
        E 80 80 18 00
        E 0 80 60 00
        E 80 90 1a 60
        E 0 90 26 60
        E 0 90 61 60
        E 0 90 64 60
        E 80 80 1a 00
        E 0 80 26 00
        E 0 80 61 00
        E 0 80 64 00
        E 80 90 18 60
        E 0 90 3c 60
        E 0 90 48 60
        E 0 90 54 60
        E 0 90 60 60
        E 80 80 18 00
        E 0 80 3c 00
        E 0 80 48 00
        E 0 80 54 00
        E 0 80 60 00
        E 80 90 1a 60
        E 0 90 26 60
        E 0 90 61 60
        E 0 90 64 60
        E 80 80 1a 00
        E 0 80 26 00
        E 0 80 61 00
        E 0 80 64 00
        E 80 90 1a 60
        E 0 90 61 60
        E 80 80 1a 00
        E 0 80 61 00
        E 80 90 18 60
        E 0 90 26 60
        E 0 90 40 60
        E 0 90 48 60
        E 0 90 4c 60
        E 0 90 54 60
        E 0 90 58 60
        E 0 90 60 60
        E 0 90 64 60
        E 80 80 18 00
        E 0 80 26 00
        E 0 80 40 00
        E 0 80 48 00
        E 0 80 4c 00
        E 0 80 54 00
        E 0 80 58 00
        E 0 80 60 00
        E 0 80 64 00
        E 240 90 18 60
        E 0 90 60 60
        E 80 80 18 00
        E 0 80 60 00
        E 80 90 1a 60
        E 0 90 26 60
        E 0 90 3d 60
        E 0 90 49 60
        E 0 90 4c 60
        E 0 90 55 60
        E 0 90 58 60
        E 0 90 61 60
        E 0 90 64 60
        E 80 80 1a 00
        E 0 80 26 00
        E 0 80 3d 00
        E 0 80 49 00
        E 0 80 4c 00
        E 0 80 55 00
        E 0 80 58 00
        E 0 80 61 00
        E 0 80 64 00
        E 240 90 18 60
        E 0 90 60 60
        E 80 80 18 00
        E 0 80 60 00
        E 80 90 1a 60
        E 0 90 26 60
        E 0 90 3d 60
        E 0 90 49 60
        E 0 90 4c 60
        E 0 90 55 60
        E 0 90 58 60
        E 0 90 61 60
        E 0 90 64 60
        E 80 80 1a 00
        E 0 80 26 00
        E 0 80 3d 00
        E 0 80 49 00
        E 0 80 4c 00
        E 0 80 55 00
        E 0 80 58 00
        E 0 80 61 00
        E 0 80 64 00
        E 160 90 2f 60
        E 0 90 56 60
        E 0 90 62 60
        E 0 90 6e 60
        E 80 80 2f 00
        E 0 80 56 00
        E 0 80 62 00
        E 0 80 6e 00
        E 0 90 2e 60
        E 0 90 62 60
        E 0 90 6e 60
        E 80 80 2e 00
        E 0 80 62 00
        E 0 80 6e 00
        E 80 90 18 60
        E 0 90 26 60
        E 0 90 40 60
        E 0 90 48 60
        E 0 90 4c 60
        E 0 90 54 60
        E 0 90 58 60
        E 0 90 60 60
        E 0 90 64 60
        E 80 80 18 00
        E 0 80 26 00
        E 0 80 40 00
        E 0 80 48 00
        E 0 80 4c 00
        E 0 80 54 00
        E 0 80 58 00
        E 0 80 60 00
        E 0 80 64 00
        E 80 90 2e 60
        E 0 90 62 60
        E 0 90 6e 60
        E 80 80 2e 00
        E 0 80 62 00
        E 0 80 6e 00
        E 0 90 2f 60
        E 0 90 56 60
        E 0 90 62 60
        E 0 90 6e 60
        E 80 80 2f 00
        E 0 80 56 00
        E 0 80 62 00
        E 0 80 6e 00
        E 0 90 30 60
        E 0 90 63 60
        E 0 90 6f 60
        E 80 80 30 00
        E 0 80 63 00
        E 0 80 6f 00
        E 80 90 18 60
        E 0 90 26 60
        E 0 90 40 60
        E 0 90 48 60
        E 0 90 4c 60
        E 0 90 54 60
        E 0 90 58 60
        E 0 90 60 60
        E 0 90 64 60
        E 80 80 18 00
        E 0 80 26 00
        E 0 80 40 00
        E 0 80 48 00
        E 0 80 4c 00
        E 0 80 54 00
        E 0 80 58 00
        E 0 80 60 00
        E 0 80 64 00
        E 240 90 18 60
        E 0 90 60 60
        E 80 80 18 00
        E 0 80 60 00
        E 80 90 1a 60
        E 0 90 26 60
        E 0 90 3d 60
        E 0 90 49 60
        E 0 90 4c 60
        E 0 90 55 60
        E 0 90 58 60
        E 0 90 61 60
        E 0 90 64 60
        E 80 80 1a 00
        E 0 80 26 00
        E 0 80 3d 00
        E 0 80 49 00
        E 0 80 4c 00
        E 0 80 55 00
        E 0 80 58 00
        E 0 80 61 00
        E 0 80 64 00
        E 240 90 18 60
        E 0 90 60 60
        E 80 80 18 00
        E 0 80 60 00
        E 80 90 1a 60
        E 0 90 26 60
        E 0 90 3d 60
        E 0 90 49 60
        E 0 90 4c 60
        E 0 90 55 60
        E 0 90 58 60
        E 0 90 61 60
        E 0 90 64 60
        E 80 80 1a 00
        E 0 80 26 00
        E 0 80 3d 00
        E 0 80 49 00
        E 0 80 4c 00
        E 0 80 55 00
        E 0 80 58 00
        E 0 80 61 00
        E 0 80 64 00
        E 80 90 18 60
        E 0 90 60 60
        E 80 80 18 00
        E 0 80 60 00
        E 80 90 1a 60
        E 0 90 26 60
        E 0 90 61 60
        E 0 90 64 60
        E 80 80 1a 00
        E 0 80 26 00
        E 0 80 61 00
        E 0 80 64 00
        E 80 90 18 60
        E 0 90 3c 60
        E 0 90 48 60
        E 0 90 54 60
        E 0 90 60 60
        E 80 80 18 00
        E 0 80 3c 00
        E 0 80 48 00
        E 0 80 54 00
        E 0 80 60 00
        E 80 90 1a 60
        E 0 90 26 60
        E 0 90 61 60
        E 0 90 64 60
        E 80 80 1a 00
        E 0 80 26 00
        E 0 80 61 00
        E 0 80 64 00
        E 80 90 1a 60
        E 0 90 26 60
        E 0 90 61 60
        E 0 90 64 60
        E 80 80 1a 00
        E 0 80 26 00
        E 0 80 61 00
        E 0 80 64 00
        E 80 90 18 60
        E 0 90 22 60
        E 0 90 26 60
        E 0 90 3e 60
        E 0 90 40 60
        E 0 90 48 60
        E 0 90 4a 60
        E 0 90 4c 60
        E 0 90 54 60
        E 0 90 56 60
        E 0 90 58 60
        E 0 90 60 60
        E 0 90 62 60
        E 0 90 64 60
        E 80 80 18 00
        E 0 80 22 00
        E 0 80 26 00
        E 0 80 3e 00
        E 0 80 40 00
        E 0 80 48 00
        E 0 80 4a 00
        E 0 80 4c 00
        E 0 80 54 00
        E 0 80 56 00
        E 0 80 58 00
        E 0 80 60 00
        E 0 80 62 00
        E 0 80 64 00
        E 240 90 18 60
        E 0 90 60 60
        E 80 80 18 00
        E 0 80 60 00
        E 80 90 1a 60
        E 0 90 26 60
        E 0 90 3d 60
        E 0 90 49 60
        E 0 90 4c 60
        E 0 90 55 60
        E 0 90 58 60
        E 0 90 61 60
        E 0 90 64 60
        E 80 80 1a 00
        E 0 80 26 00
        E 0 80 3d 00
        E 0 80 49 00
        E 0 80 4c 00
        E 0 80 55 00
        E 0 80 58 00
        E 0 80 61 00
        E 0 80 64 00
        E 240 90 18 60
        E 0 90 60 60
        E 80 80 18 00
        E 0 80 60 00
        E 80 90 1a 60
        E 0 90 26 60
        E 0 90 3d 60
        E 0 90 49 60
        E 0 90 4c 60
        E 0 90 55 60
        E 0 90 58 60
        E 0 90 61 60
        E 0 90 64 60
        E 80 80 1a 00
        E 0 80 26 00
        E 0 80 3d 00
        E 0 80 49 00
        E 0 80 4c 00
        E 0 80 55 00
        E 0 80 58 00
        E 0 80 61 00
        E 0 80 64 00
        E 80 90 2e 60
        E 0 90 62 60
        E 0 90 6e 60
        E 80 80 2e 00
        E 0 80 62 00
        E 0 80 6e 00
        E 0 90 2f 60
        E 0 90 56 60
        E 0 90 62 60
        E 0 90 6e 60
        E 80 80 2f 00
        E 0 80 56 00
        E 0 80 62 00
        E 0 80 6e 00
        E 0 90 2e 60
        E 0 90 62 60
        E 0 90 6e 60
        E 80 80 2e 00
        E 0 80 62 00
        E 0 80 6e 00
        E 0 90 2f 60
        E 0 90 62 60
        E 0 90 6e 60
        E 80 80 2f 00
        E 0 80 62 00
        E 0 80 6e 00
        E 0 90 30 60
        E 0 90 3f 60
        E 0 90 4b 60
        E 0 90 57 60
        E 0 90 63 60
        E 0 90 6f 60
        E 80 80 30 00
        E 0 80 3f 00
        E 0 80 4b 00
        E 0 80 57 00
        E 0 80 63 00
        E 0 80 6f 00
        E 0 90 31 60
        E 0 90 63 60
        E 0 90 6f 60
        E 80 80 31 00
        E 0 80 63 00
        E 0 80 6f 00
        E 0 90 30 60
        E 0 90 63 60
        E 0 90 6f 60
        E 80 80 30 00
        E 0 80 63 00
        E 0 80 6f 00
        E 0 90 33 60
        E 0 90 58 60
        E 0 90 64 60
        E 0 90 70 60
        E 80 80 33 00
        E 0 80 58 00
        E 0 80 64 00
        E 0 80 70 00
        E 0 90 32 60
        E 0 90 64 60
        E 0 90 70 60
        E 80 80 32 00
        E 0 80 64 00
        E 0 80 70 00
        E 0 90 33 60
        E 0 90 64 60
        E 0 90 70 60
        E 80 80 33 00
        E 0 80 64 00
        E 0 80 70 00
        E 0 90 18 60
        E 0 90 2c 60
        E 0 90 40 60
        E 0 90 48 60
        E 0 90 4c 60
        E 0 90 54 60
        E 0 90 58 60
        E 0 90 60 60
        E 0 90 64 60
        E 80 80 18 00
        E 0 80 2c 00
        E 0 80 40 00
        E 0 80 48 00
        E 0 80 4c 00
        E 0 80 54 00
        E 0 80 58 00
        E 0 80 60 00
        E 0 80 64 00
        E 80 90 18 60
        E 0 90 60 60
        E 80 80 18 00
        E 0 80 60 00
        E 80 90 18 60
        E 0 90 60 60
        E 80 80 18 00
        E 0 80 60 00
        E 80 90 1a 60
        E 0 90 2a 60
        E 0 90 3d 60
        E 0 90 49 60
        E 0 90 4b 60
        E 0 90 55 60
        E 0 90 57 60
        E 0 90 61 60
        E 0 90 63 60
        E 80 80 1a 00
        E 0 80 2a 00
        E 0 80 3d 00
        E 0 80 49 00
        E 0 80 4b 00
        E 0 80 55 00
        E 0 80 57 00
        E 0 80 61 00
        E 0 80 63 00
        E 240 90 18 60
        E 0 90 60 60
        E 80 80 18 00
        E 0 80 60 00
        E 80 90 1a 60
        E 0 90 26 60
        E 0 90 3d 60
        E 0 90 49 60
        E 0 90 4c 60
        E 0 90 55 60
        E 0 90 58 60
        E 0 90 61 60
        E 0 90 64 60
        E 80 80 1a 00
        E 0 80 26 00
        E 0 80 3d 00
        E 0 80 49 00
        E 0 80 4c 00
        E 0 80 55 00
        E 0 80 58 00
        E 0 80 61 00
        E 0 80 64 00
        E 80 90 18 60
        E 0 90 60 60
        E 80 80 18 00
        E 0 80 60 00
        E 80 90 1a 60
        E 0 90 26 60
        E 0 90 61 60
        E 0 90 64 60
        E 80 80 1a 00
        E 0 80 26 00
        E 0 80 61 00
        E 0 80 64 00
        E 80 90 18 60
        E 0 90 3c 60
        E 0 90 48 60
        E 0 90 54 60
        E 0 90 60 60
        E 80 80 18 00
        E 0 80 3c 00
        E 0 80 48 00
        E 0 80 54 00
        E 0 80 60 00
        E 80 90 1a 60
        E 0 90 26 60
        E 0 90 61 60
        E 0 90 64 60
        E 80 80 1a 00
        E 0 80 26 00
        E 0 80 61 00
        E 0 80 64 00
        E 80 90 1a 60
        E 0 90 61 60
        E 80 80 1a 00
        E 0 80 61 00
        E 80 90 18 60
        E 0 90 26 60
        E 0 90 40 60
        E 0 90 48 60
        E 0 90 4c 60
        E 0 90 54 60
        E 0 90 58 60
        E 0 90 60 60
        E 0 90 64 60
        E 80 80 18 00
        E 0 80 26 00
        E 0 80 40 00
        E 0 80 48 00
        E 0 80 4c 00
        E 0 80 54 00
        E 0 80 58 00
        E 0 80 60 00
        E 0 80 64 00
        E 80 90 1a 60
        E 0 90 61 60
        E 80 80 1a 00
        E 0 80 61 00
        E 0 90 1b 60
        E 0 90 55 60
        E 0 90 61 60
        E 80 80 1b 00
        E 0 80 55 00
        E 0 80 61 00
        E 0 90 1a 60
        E 0 90 61 60
        E 80 80 1a 00
        E 0 80 61 00
        E 80 90 18 60
        E 0 90 26 60
        E 0 90 40 60
        E 0 90 48 60
        E 0 90 4c 60
        E 0 90 54 60
        E 0 90 58 60
        E 0 90 60 60
        E 0 90 64 60
        E 80 80 18 00
        E 0 80 26 00
        E 0 80 40 00
        E 0 80 48 00
        E 0 80 4c 00
        E 0 80 54 00
        E 0 80 58 00
        E 0 80 60 00
        E 0 80 64 00
        E 80 90 1a 60
        E 0 90 61 60
        E 80 80 1a 00
        E 0 80 61 00
        E 80 90 18 60
        E 0 90 60 60
        E 80 80 18 00
        E 0 80 60 00
        E 80 90 1a 60
        E 0 90 26 60
        E 0 90 3d 60
        E 0 90 49 60
        E 0 90 4c 60
        E 0 90 55 60
        E 0 90 58 60
        E 0 90 61 60
        E 0 90 64 60
        E 80 80 1a 00
        E 0 80 26 00
        E 0 80 3d 00
        E 0 80 49 00
        E 0 80 4c 00
        E 0 80 55 00
        E 0 80 58 00
        E 0 80 61 00
        E 0 80 64 00
        E 160 90 2f 60
        E 0 90 56 60
        E 0 90 62 60
        E 0 90 6e 60
        E 80 80 2f 00
        E 0 80 56 00
        E 0 80 62 00
        E 0 80 6e 00
        E 0 90 2e 60
        E 0 90 62 60
        E 0 90 6e 60
        E 80 80 2e 00
        E 0 80 62 00
        E 0 80 6e 00
        E 0 90 2f 60
        E 0 90 62 60
        E 0 90 6e 60
        E 80 80 2f 00
        E 0 80 62 00
        E 0 80 6e 00
        E 0 90 2e 60
        E 0 90 3e 60
        E 0 90 4a 60
        E 0 90 56 60
        E 0 90 62 60
        E 0 90 6e 60
        E 80 80 2e 00
        E 0 80 3e 00
        E 0 80 4a 00
        E 0 80 56 00
        E 0 80 62 00
        E 0 80 6e 00
        E 80 90 31 60
        E 0 90 63 60
        E 0 90 6f 60
        E 80 80 31 00
        E 0 80 63 00
        E 0 80 6f 00
        E 0 90 30 60
        E 0 90 57 60
        E 0 90 63 60
        E 0 90 6f 60
        E 80 80 30 00
        E 0 80 57 00
        E 0 80 63 00
        E 0 80 6f 00
        E 0 90 33 60
        E 0 90 64 60
        E 0 90 70 60
        E 80 80 33 00
        E 0 80 64 00
        E 0 80 70 00
        E 0 90 32 60
        E 0 90 64 60
        E 0 90 70 60
        E 80 80 32 00
        E 0 80 64 00
        E 0 80 70 00
        E 0 90 18 60
        E 0 90 26 60
        E 0 90 40 60
        E 0 90 48 60
        E 0 90 4c 60
        E 0 90 54 60
        E 0 90 58 60
        E 0 90 60 60
        E 0 90 64 60
        E 80 80 18 00
        E 0 80 26 00
        E 0 80 40 00
        E 0 80 48 00
        E 0 80 4c 00
        E 0 80 54 00
        E 0 80 58 00
        E 0 80 60 00
        E 0 80 64 00
        E 80 90 18 60
        E 0 90 60 60
        E 80 80 18 00
        E 0 80 60 00
        E 80 90 18 60
        E 0 90 2a 60
        E 0 90 60 60
        E 0 90 63 60
        E 80 80 18 00
        E 0 80 2a 00
        E 0 80 60 00
        E 0 80 63 00
        E 80 90 1a 60
        E 0 90 26 60
        E 0 90 3d 60
        E 0 90 49 60
        E 0 90 4c 60
        E 0 90 55 60
        E 0 90 58 60
        E 0 90 61 60
        E 0 90 64 60
        E 80 80 1a 00
        E 0 80 26 00
        E 0 80 3d 00
        E 0 80 49 00
        E 0 80 4c 00
        E 0 80 55 00
        E 0 80 58 00
        E 0 80 61 00
        E 0 80 64 00
        E 80 90 18 60
        E 0 90 60 60
        E 80 80 18 00
        E 0 80 60 00
        E 80 90 18 60
        E 0 90 60 60
        E 80 80 18 00
        E 0 80 60 00
        E 80 90 1a 60
        E 0 90 26 60
        E 0 90 3d 60
        E 0 90 49 60
        E 0 90 4c 60
        E 0 90 55 60
        E 0 90 58 60
        E 0 90 61 60
        E 0 90 64 60
        E 80 80 1a 00
        E 0 80 26 00
        E 0 80 3d 00
        E 0 80 49 00
        E 0 80 4c 00
        E 0 80 55 00
        E 0 80 58 00
        E 0 80 61 00
        E 0 80 64 00
        E 80 90 18 60
        E 0 90 60 60
        E 80 80 18 00
        E 0 80 60 00
        E 80 90 1a 60
        E 0 90 26 60
        E 0 90 61 60
        E 0 90 64 60
        E 80 80 1a 00
        E 0 80 26 00
        E 0 80 61 00
        E 0 80 64 00
        E 80 90 18 60
        E 0 90 3c 60
        E 0 90 48 60
        E 0 90 54 60
        E 0 90 60 60
        E 80 80 18 00
        E 0 80 3c 00
        E 0 80 48 00
        E 0 80 54 00
        E 0 80 60 00
        E 80 90 1a 60
        E 0 90 26 60
        E 0 90 61 60
        E 0 90 64 60
        E 80 80 1a 00
        E 0 80 26 00
        E 0 80 61 00
        E 0 80 64 00
        E 80 90 1a 60
        E 0 90 61 60
        E 80 80 1a 00
        E 0 80 61 00
        E 80 90 18 60
        E 0 90 26 60
        E 0 90 40 60
        E 0 90 48 60
        E 0 90 4c 60
        E 0 90 54 60
        E 0 90 58 60
        E 0 90 60 60
        E 0 90 64 60
        E 80 80 18 00
        E 0 80 26 00
        E 0 80 40 00
        E 0 80 48 00
        E 0 80 4c 00
        E 0 80 54 00
        E 0 80 58 00
        E 0 80 60 00
        E 0 80 64 00
        E 240 90 18 60
        E 0 90 60 60
        E 80 80 18 00
        E 0 80 60 00
        E 80 90 1a 60
        E 0 90 26 60
        E 0 90 3d 60
        E 0 90 49 60
        E 0 90 4c 60
        E 0 90 55 60
        E 0 90 58 60
        E 0 90 61 60
        E 0 90 64 60
        E 80 80 1a 00
        E 0 80 26 00
        E 0 80 3d 00
        E 0 80 49 00
        E 0 80 4c 00
        E 0 80 55 00
        E 0 80 58 00
        E 0 80 61 00
        E 0 80 64 00
        E 80 90 26 60
        E 0 90 64 60
        E 80 80 26 00
        E 0 80 64 00
        E 80 90 18 60
        E 0 90 60 60
        E 80 80 18 00
        E 0 80 60 00
        E 80 90 1a 60
        E 0 90 26 60
        E 0 90 3d 60
        E 0 90 49 60
        E 0 90 4c 60
        E 0 90 55 60
        E 0 90 58 60
        E 0 90 61 60
        E 0 90 64 60
        E 80 80 1a 00
        E 0 80 26 00
        E 0 80 3d 00
        E 0 80 49 00
        E 0 80 4c 00
        E 0 80 55 00
        E 0 80 58 00
        E 0 80 61 00
        E 0 80 64 00
        E 80 90 18 60
        E 0 90 60 60
        E 80 80 18 00
        E 0 80 60 00
        E 80 90 18 60
        E 0 90 60 60
        E 80 80 18 00
        E 0 80 60 00
        E 80 90 1a 60
        E 0 90 26 60
        E 0 90 3d 60
        E 0 90 49 60
        E 0 90 4c 60
        E 0 90 55 60
        E 0 90 58 60
        E 0 90 61 60
        E 0 90 64 60
        E 80 80 1a 00
        E 0 80 26 00
        E 0 80 3d 00
        E 0 80 49 00
        E 0 80 4c 00
        E 0 80 55 00
        E 0 80 58 00
        E 0 80 61 00
        E 0 80 64 00
        E 80 90 18 60
        E 0 90 60 60
        E 80 80 18 00
        E 0 80 60 00
        E 80 90 18 60
        E 0 90 60 60
        E 80 80 18 00
        E 0 80 60 00
        E 80 90 1a 60
        E 0 90 26 60
        E 0 90 3d 60
        E 0 90 49 60
        E 0 90 4c 60
        E 0 90 55 60
        E 0 90 58 60
        E 0 90 61 60
        E 0 90 64 60
        E 80 80 1a 00
        E 0 80 26 00
        E 0 80 3d 00
        E 0 80 49 00
        E 0 80 4c 00
        E 0 80 55 00
        E 0 80 58 00
        E 0 80 61 00
        E 0 80 64 00
        E 160 90 1b 60
        E 0 90 55 60
        E 0 90 61 60
        E 80 80 1b 00
        E 0 80 55 00
        E 0 80 61 00
        E 0 90 1a 60
        E 0 90 61 60
        E 80 80 1a 00
        E 0 80 61 00
        E 80 90 1b 60
        E 0 90 3d 60
        E 0 90 49 60
        E 0 90 55 60
        E 0 90 61 60
        E 80 80 1b 00
        E 0 80 3d 00
        E 0 80 49 00
        E 0 80 55 00
        E 0 80 61 00
        E 0 90 1a 60
        E 0 90 61 60
        E 80 80 1a 00
        E 0 80 61 00
        E 0 90 2f 60
        E 0 90 62 60
        E 0 90 6e 60
        E 80 80 2f 00
        E 0 80 62 00
        E 0 80 6e 00
        E 0 90 2e 60
        E 0 90 56 60
        E 0 90 62 60
        E 0 90 6e 60
        E 80 80 2e 00
        E 0 80 56 00
        E 0 80 62 00
        E 0 80 6e 00
        E 0 90 2f 60
        E 0 90 62 60
        E 0 90 6e 60
        E 80 80 2f 00
        E 0 80 62 00
        E 0 80 6e 00
        E 0 90 2e 60
        E 0 90 62 60
        E 0 90 6e 60
        E 80 80 2e 00
        E 0 80 62 00
        E 0 80 6e 00
        E 0 90 1b 60
        E 0 90 3d 60
        E 0 90 49 60
        E 0 90 55 60
        E 0 90 61 60
        E 80 80 1b 00
        E 0 80 3d 00
        E 0 80 49 00
        E 0 80 55 00
        E 0 80 61 00
        E 0 90 1a 60
        E 0 90 61 60
        E 80 80 1a 00
        E 0 80 61 00
        E 0 90 31 60
        E 0 90 63 60
        E 0 90 6f 60
        E 80 80 31 00
        E 0 80 63 00
        E 0 80 6f 00
        E 0 90 30 60
        E 0 90 57 60
        E 0 90 63 60
        E 0 90 6f 60
        E 80 80 30 00
        E 0 80 57 00
        E 0 80 63 00
        E 0 80 6f 00
        E 0 90 31 60
        E 0 90 63 60
        E 0 90 6f 60
        E 80 80 31 00
        E 0 80 63 00
        E 0 80 6f 00
        E 0 90 30 60
        E 0 90 63 60
        E 0 90 6f 60
        E 80 80 30 00
        E 0 80 63 00
        E 0 80 6f 00
        E 0 90 1b 60
        E 0 90 3d 60
        E 0 90 49 60
        E 0 90 55 60
        E 0 90 61 60
        E 80 80 1b 00
        E 0 80 3d 00
        E 0 80 49 00
        E 0 80 55 00
        E 0 80 61 00
        E 0 90 1a 60
        E 0 90 61 60
        E 80 80 1a 00
        E 0 80 61 00
        E 0 90 33 60
        E 0 90 64 60
        E 0 90 70 60
        E 80 80 33 00
        E 0 80 64 00
        E 0 80 70 00
        E 0 90 32 60
        E 0 90 58 60
        E 0 90 64 60
        E 0 90 70 60
        E 80 80 32 00
        E 0 80 58 00
        E 0 80 64 00
        E 0 80 70 00
        E 0 90 33 60
        E 0 90 64 60
        E 0 90 70 60
        E 80 80 33 00
        E 0 80 64 00
        E 0 80 70 00
        E 0 90 32 60
        E 0 90 64 60
        E 0 90 70 60
        E 80 80 32 00
        E 0 80 64 00
        E 0 80 70 00
        E 0 90 18 60
        E 0 90 26 60
        E 0 90 40 60
        E 0 90 48 60
        E 0 90 4c 60
        E 0 90 54 60
        E 0 90 58 60
        E 0 90 60 60
        E 0 90 64 60
        E 0 90 74 60
        E 80 80 18 00
        E 0 80 26 00
        E 0 80 40 00
        E 0 80 48 00
        E 0 80 4c 00
        E 0 80 54 00
        E 0 80 58 00
        E 0 80 60 00
        E 0 80 64 00
        E 240 90 18 60
        E 0 90 2b 60
        E 0 90 60 60
        E 0 90 63 60
        E 80 80 18 00
        E 0 80 2b 00
        E 0 80 60 00
        E 0 80 63 00
        E 80 90 1a 60
        E 0 90 2a 60
        E 0 90 3d 60
        E 0 90 49 60
        E 0 90 4b 60
        E 0 90 55 60
        E 0 90 57 60
        E 0 90 61 60
        E 0 90 63 60
        E 80 80 1a 00
        E 0 80 2a 00
        E 0 80 3d 00
        E 0 80 49 00
        E 0 80 4b 00
        E 0 80 55 00
        E 0 80 57 00
        E 0 80 61 00
        E 0 80 63 00
        E 80 90 2b 60
        E 0 90 63 60
        E 80 80 2b 00
        E 0 80 63 00
        E 80 90 18 60
        E 0 90 2a 60
        E 0 90 60 60
        E 0 90 63 60
        E 80 80 18 00
        E 0 80 2a 00
        E 0 80 60 00
        E 0 80 63 00
        E 80 90 18 60
        E 0 90 2b 60
        E 0 90 3f 60
        E 0 90 48 60
        E 0 90 4b 60
        E 0 90 54 60
        E 0 90 57 60
        E 0 90 60 60
        E 0 90 63 60
        E 80 80 18 00
        E 0 80 2b 00
        E 0 80 3f 00
        E 0 80 48 00
        E 0 80 4b 00
        E 0 80 54 00
        E 0 80 57 00
        E 0 80 60 00
        E 0 80 63 00
        E 80 90 2a 60
        E 0 90 63 60
        E 80 80 2a 00
        E 0 80 63 00
        E 80 90 18 60
        E 0 90 2b 60
        E 0 90 60 60
        E 0 90 63 60
        E 80 80 18 00
        E 0 80 2b 00
        E 0 80 60 00
        E 0 80 63 00
        E 80 90 1a 60
        E 0 90 2a 60
        E 0 90 3d 60
        E 0 90 49 60
        E 0 90 4b 60
        E 0 90 55 60
        E 0 90 57 60
        E 0 90 61 60
        E 0 90 63 60
        E 80 80 1a 00
        E 0 80 2a 00
        E 0 80 3d 00
        E 0 80 49 00
        E 0 80 4b 00
        E 0 80 55 00
        E 0 80 57 00
        E 0 80 61 00
        E 0 80 63 00
        E 80 90 18 60
        E 0 90 2b 60
        E 0 90 60 60
        E 0 90 63 60
        E 80 80 18 00
        E 0 80 2b 00
        E 0 80 60 00
        E 0 80 63 00
        E 80 90 1a 60
        E 0 90 2a 60
        E 0 90 61 60
        E 0 90 63 60
        E 80 80 1a 00
        E 0 80 2a 00
        E 0 80 61 00
        E 0 80 63 00
        E 80 90 18 60
        E 0 90 2a 60
        E 0 90 3f 60
        E 0 90 48 60
        E 0 90 4b 60
        E 0 90 54 60
        E 0 90 57 60
        E 0 90 60 60
        E 0 90 63 60
        E 80 80 18 00
        E 0 80 2a 00
        E 0 80 3f 00
        E 0 80 48 00
        E 0 80 4b 00
        E 0 80 54 00
        E 0 80 57 00
        E 0 80 60 00
        E 0 80 63 00
        E 80 90 2b 60
        E 0 90 63 60
        E 80 80 2b 00
        E 0 80 63 00
        E 80 90 18 60
        E 0 90 2a 60
        E 0 90 60 60
        E 0 90 63 60
        E 80 80 18 00
        E 0 80 2a 00
        E 0 80 60 00
        E 0 80 63 00
        E 80 90 1a 60
        E 0 90 2a 60
        E 0 90 3d 60
        E 0 90 49 60
        E 0 90 4b 60
        E 0 90 55 60
        E 0 90 57 60
        E 0 90 61 60
        E 0 90 63 60
        E 80 80 1a 00
        E 0 80 2a 00
        E 0 80 3d 00
        E 0 80 49 00
        E 0 80 4b 00
        E 0 80 55 00
        E 0 80 57 00
        E 0 80 61 00
        E 0 80 63 00
        E 80 90 2b 60
        E 0 90 63 60
        E 80 80 2b 00
        E 0 80 63 00
        E 80 90 18 60
        E 0 90 2a 60
        E 0 90 60 60
        E 0 90 63 60
        E 80 80 18 00
        E 0 80 2a 00
        E 0 80 60 00
        E 0 80 63 00
        E 80 90 18 60
        E 0 90 2b 60
        E 0 90 3f 60
        E 0 90 48 60
        E 0 90 4b 60
        E 0 90 54 60
        E 0 90 57 60
        E 0 90 60 60
        E 0 90 63 60
        E 80 80 18 00
        E 0 80 2b 00
        E 0 80 3f 00
        E 0 80 48 00
        E 0 80 4b 00
        E 0 80 54 00
        E 0 80 57 00
        E 0 80 60 00
        E 0 80 63 00
        E 80 90 2a 60
        E 0 90 63 60
        E 80 80 2a 00
        E 0 80 63 00
        E 80 90 18 60
        E 0 90 2b 60
        E 0 90 60 60
        E 0 90 63 60
        E 80 80 18 00
        E 0 80 2b 00
        E 0 80 60 00
        E 0 80 63 00
        E 80 90 1a 60
        E 0 90 2a 60
        E 0 90 3d 60
        E 0 90 49 60
        E 0 90 4b 60
        E 0 90 55 60
        E 0 90 57 60
        E 0 90 61 60
        E 0 90 63 60
        E 80 80 1a 00
        E 0 80 2a 00
        E 0 80 3d 00
        E 0 80 49 00
        E 0 80 4b 00
        E 0 80 55 00
        E 0 80 57 00
        E 0 80 61 00
        E 0 80 63 00
        E 80 90 18 60
        E 0 90 2b 60
        E 0 90 60 60
        E 0 90 63 60
        E 80 80 18 00
        E 0 80 2b 00
        E 0 80 60 00
        E 0 80 63 00
        E 80 90 1a 60
        E 0 90 2a 60
        E 0 90 61 60
        E 0 90 63 60
        E 80 80 1a 00
        E 0 80 2a 00
        E 0 80 61 00
        E 0 80 63 00
        E 80 80 74 00
        E 0 90 18 60
        E 0 90 2a 60
        E 0 90 3f 60
        E 0 90 48 60
        E 0 90 4b 60
        E 0 90 54 60
        E 0 90 57 60
        E 0 90 60 60
        E 0 90 63 60
        E 80 80 18 00
        E 0 80 2a 00
        E 0 80 3f 00
        E 0 80 48 00
        E 0 80 4b 00
        E 0 80 54 00
        E 0 80 57 00
        E 0 80 60 00
        E 0 80 63 00
        E 80 90 2b 60
        E 0 90 63 60
        E 80 80 2b 00
        E 0 80 63 00
        E 80 90 18 60
        E 0 90 2a 60
        E 0 90 60 60
        E 0 90 63 60
        E 80 80 18 00
        E 0 80 2a 00
        E 0 80 60 00
        E 0 80 63 00
        E 80 90 1a 60
        E 0 90 2a 60
        E 0 90 3d 60
        E 0 90 49 60
        E 0 90 4b 60
        E 0 90 55 60
        E 0 90 57 60
        E 0 90 61 60
        E 0 90 63 60
        E 80 80 1a 00
        E 0 80 2a 00
        E 0 80 3d 00
        E 0 80 49 00
        E 0 80 4b 00
        E 0 80 55 00
        E 0 80 57 00
        E 0 80 61 00
        E 0 80 63 00
        E 80 90 2b 60
        E 0 90 63 60
        E 80 80 2b 00
        E 0 80 63 00
        E 80 90 18 60
        E 0 90 2a 60
        E 0 90 60 60
        E 0 90 63 60
        E 80 80 18 00
        E 0 80 2a 00
        E 0 80 60 00
        E 0 80 63 00
        E 80 90 18 60
        E 0 90 2b 60
        E 0 90 3f 60
        E 0 90 48 60
        E 0 90 4b 60
        E 0 90 54 60
        E 0 90 57 60
        E 0 90 60 60
        E 0 90 63 60
        E 80 80 18 00
        E 0 80 2b 00
        E 0 80 3f 00
        E 0 80 48 00
        E 0 80 4b 00
        E 0 80 54 00
        E 0 80 57 00
        E 0 80 60 00
        E 0 80 63 00
        E 80 90 2a 60
        E 0 90 63 60
        E 80 80 2a 00
        E 0 80 63 00
        E 80 90 18 60
        E 0 90 2b 60
        E 0 90 60 60
        E 0 90 63 60
        E 80 80 18 00
        E 0 80 2b 00
        E 0 80 60 00
        E 0 80 63 00
        E 80 90 1a 60
        E 0 90 2a 60
        E 0 90 3d 60
        E 0 90 49 60
        E 0 90 4b 60
        E 0 90 55 60
        E 0 90 57 60
        E 0 90 61 60
        E 0 90 63 60
        E 80 80 1a 00
        E 0 80 2a 00
        E 0 80 3d 00
        E 0 80 49 00
        E 0 80 4b 00
        E 0 80 55 00
        E 0 80 57 00
        E 0 80 61 00
        E 0 80 63 00
        E 80 90 18 60
        E 0 90 2b 60
        E 0 90 60 60
        E 0 90 63 60
        E 80 80 18 00
        E 0 80 2b 00
        E 0 80 60 00
        E 0 80 63 00
        E 80 90 18 60
        E 0 90 2a 60
        E 0 90 60 60
        E 0 90 63 60
        E 80 80 18 00
        E 0 80 2a 00
        E 0 80 60 00
        E 0 80 63 00
        E 80 90 1a 60
        E 0 90 2a 60
        E 0 90 3d 60
        E 0 90 49 60
        E 0 90 4b 60
        E 0 90 55 60
        E 0 90 57 60
        E 0 90 61 60
        E 0 90 63 60
        E 80 80 1a 00
        E 0 80 2a 00
        E 0 80 3d 00
        E 0 80 49 00
        E 0 80 4b 00
        E 0 80 55 00
        E 0 80 57 00
        E 0 80 61 00
        E 0 80 63 00
        E 80 90 18 60
        E 0 90 2b 60
        E 0 90 60 60
        E 0 90 63 60
        E 80 80 18 00
        E 0 80 2b 00
        E 0 80 60 00
        E 0 80 63 00
        E 80 90 18 60
        E 0 90 2a 60
        E 0 90 60 60
        E 0 90 63 60
        E 80 80 18 00
        E 0 80 2a 00
        E 0 80 60 00
        E 0 80 63 00
        E 80 90 1a 60
        E 0 90 2a 60
        E 0 90 3d 60
        E 0 90 49 60
        E 0 90 4b 60
        E 0 90 55 60
        E 0 90 57 60
        E 0 90 61 60
        E 0 90 63 60
        E 80 80 1a 00
        E 0 80 2a 00
        E 0 80 3d 00
        E 0 80 49 00
        E 0 80 4b 00
        E 0 80 55 00
        E 0 80 57 00
        E 0 80 61 00
        E 0 80 63 00
        E 80 90 18 60
        E 0 90 2b 60
        E 0 90 60 60
        E 0 90 63 60
        E 80 80 18 00
        E 0 80 2b 00
        E 0 80 60 00
        E 0 80 63 00
        E 80 90 18 60
        E 0 90 2a 60
        E 0 90 60 60
        E 0 90 63 60
        E 80 80 18 00
        E 0 80 2a 00
        E 0 80 60 00
        E 0 80 63 00
        E 80 90 1a 60
        E 0 90 2a 60
        E 0 90 3d 60
        E 0 90 49 60
        E 0 90 4b 60
        E 0 90 55 60
        E 0 90 57 60
        E 0 90 61 60
        E 0 90 63 60
        E 0 90 78 60
        E 0 90 79 60
        E 0 90 7a 60
        E 0 90 7b 60
        E 0 90 7c 60
        E 80 80 1a 00
        E 0 80 2a 00
        E 0 80 3d 00
        E 0 80 49 00
        E 0 80 4b 00
        E 0 80 55 00
        E 0 80 57 00
        E 0 80 61 00
        E 0 80 63 00
        E 80 90 1a 60
        E 0 90 61 60
        E 80 80 1a 00
        E 0 80 61 00
        E 0 90 1b 60
        E 0 90 55 60
        E 0 90 61 60
        E 80 80 1b 00
        E 0 80 55 00
        E 0 80 61 00
        E 0 90 1a 60
        E 0 90 61 60
        E 80 80 1a 00
        E 0 80 61 00
        E 80 90 1b 60
        E 0 90 3d 60
        E 0 90 49 60
        E 0 90 55 60
        E 0 90 61 60
        E 80 80 1b 00
        E 0 80 3d 00
        E 0 80 49 00
        E 0 80 55 00
        E 0 80 61 00
        E 0 90 1a 60
        E 0 90 61 60
        E 80 80 1a 00
        E 0 80 61 00
        E 0 90 2f 60
        E 0 90 62 60
        E 0 90 6e 60
        E 80 80 2f 00
        E 0 80 62 00
        E 0 80 6e 00
        E 0 90 2e 60
        E 0 90 56 60
        E 0 90 62 60
        E 0 90 6e 60
        E 80 80 2e 00
        E 0 80 56 00
        E 0 80 62 00
        E 0 80 6e 00
        E 0 90 31 60
        E 0 90 63 60
        E 0 90 6f 60
        E 80 80 31 00
        E 0 80 63 00
        E 0 80 6f 00
        E 0 90 30 60
        E 0 90 63 60
        E 0 90 6f 60
        E 80 80 78 00
        E 0 80 79 00
        E 0 80 7a 00
        E 0 80 7b 00
        E 0 80 7c 00
        E 0 80 30 00
        E 0 80 63 00
        E 0 80 6f 00
        E 0 90 18 60
        E 0 90 26 60
        E 0 90 40 60
        E 0 90 48 60
        E 0 90 4c 60
        E 0 90 54 60
        E 0 90 58 60
        E 0 90 60 60
        E 0 90 64 60
        E 80 80 18 00
        E 0 80 26 00
        E 0 80 40 00
        E 0 80 48 00
        E 0 80 4c 00
        E 0 80 54 00
        E 0 80 58 00
        E 0 80 60 00
        E 0 80 64 00
        E 0 90 18 60
        E 0 90 60 60
        E 80 80 18 00
        E 0 80 60 00
        E 0 90 18 60
        E 0 90 60 60
        E 80 80 18 00
        E 0 80 60 00
        E 0 90 18 60
        E 0 90 54 60
        E 0 90 60 60
        E 80 80 18 00
        E 0 80 54 00
        E 0 80 60 00
        E 0 90 18 60
        E 0 90 60 60
        E 80 80 18 00
        E 0 80 60 00
        E 0 90 18 60
        E 0 90 60 60
        E 80 80 18 00
        E 0 80 60 00
        E 0 90 18 60
        E 0 90 1a 60
        E 0 90 2a 60
        E 0 90 3d 60
        E 0 90 49 60
        E 0 90 4b 60
        E 0 90 54 60
        E 0 90 55 60
        E 0 90 57 60
        E 0 90 60 60
        E 0 90 61 60
        E 0 90 63 60
        E 80 80 18 00
        E 0 80 1a 00
        E 0 80 2a 00
        E 0 80 3d 00
        E 0 80 49 00
        E 0 80 4b 00
        E 0 80 54 00
        E 0 80 55 00
        E 0 80 57 00
        E 0 80 60 00
        E 0 80 61 00
        E 0 80 63 00
        E 0 90 18 60
        E 0 90 60 60
        E 80 80 18 00
        E 0 80 60 00
        E 0 90 18 60
        E 0 90 60 60
        E 80 80 18 00
        E 0 80 60 00
        E 0 90 18 60
        E 0 90 54 60
        E 0 90 60 60
        E 80 80 18 00
        E 0 80 54 00
        E 0 80 60 00
        E 0 90 18 60
        E 0 90 60 60
        E 80 80 18 00
        E 0 80 60 00
        E 0 90 18 60
        E 0 90 60 60
        E 80 80 18 00
        E 0 80 60 00
        E 0 90 18 60
        E 0 90 1a 60
        E 0 90 2a 60
        E 0 90 3d 60
        E 0 90 49 60
        E 0 90 4b 60
        E 0 90 54 60
        E 0 90 55 60
        E 0 90 57 60
        E 0 90 60 60
        E 0 90 61 60
        E 0 90 63 60
        E 80 80 18 00
        E 0 80 1a 00
        E 0 80 2a 00
        E 0 80 3d 00
        E 0 80 49 00
        E 0 80 4b 00
        E 0 80 54 00
        E 0 80 55 00
        E 0 80 57 00
        E 0 80 60 00
        E 0 80 61 00
        E 0 80 63 00
        E 0 90 18 60
        E 0 90 60 60
        E 80 80 18 00
        E 0 80 60 00
        E 0 90 18 60
        E 0 90 60 60
        E 80 80 18 00
        E 0 80 60 00
        E 0 90 18 60
        E 0 90 54 60
        E 0 90 60 60
        E 80 80 18 00
        E 0 80 54 00
        E 0 80 60 00
        E 0 90 18 60
        E 0 90 60 60
        E 80 80 18 00
        E 0 80 60 00
        E 0 90 18 60
        E 0 90 60 60
        E 80 80 18 00
        E 0 80 60 00
        E 0 90 18 60
        E 0 90 1a 60
        E 0 90 2a 60
        E 0 90 3d 60
        E 0 90 49 60
        E 0 90 4b 60
        E 0 90 54 60
        E 0 90 55 60
        E 0 90 57 60
        E 0 90 60 60
        E 0 90 61 60
        E 0 90 63 60
        E 80 80 18 00
        E 0 80 1a 00
        E 0 80 2a 00
        E 0 80 3d 00
        E 0 80 49 00
        E 0 80 4b 00
        E 0 80 54 00
        E 0 80 55 00
        E 0 80 57 00
        E 0 80 60 00
        E 0 80 61 00
        E 0 80 63 00
        E 0 90 18 60
        E 0 90 60 60
        E 80 80 18 00
        E 0 80 60 00
        E 0 90 18 60
        E 0 90 60 60
        E 80 80 18 00
        E 0 80 60 00
        E 0 90 18 60
        E 0 90 54 60
        E 0 90 60 60
        E 80 80 18 00
        E 0 80 54 00
        E 0 80 60 00
        E 0 90 18 60
        E 0 90 60 60
        E 80 80 18 00
        E 0 80 60 00
        E 0 90 18 60
        E 0 90 60 60
        E 80 80 18 00
        E 0 80 60 00
        E 0 90 18 60
        E 0 90 1a 60
        E 0 90 2a 60
        E 0 90 3d 60
        E 0 90 49 60
        E 0 90 4b 60
        E 0 90 54 60
        E 0 90 55 60
        E 0 90 57 60
        E 0 90 60 60
        E 0 90 61 60
        E 0 90 63 60
        E 80 80 18 00
        E 0 80 1a 00
        E 0 80 2a 00
        E 0 80 3d 00
        E 0 80 49 00
        E 0 80 4b 00
        E 0 80 54 00
        E 0 80 55 00
        E 0 80 57 00
        E 0 80 60 00
        E 0 80 61 00
        E 0 80 63 00
        E 0 90 18 60
        E 0 90 60 60
        E 80 80 18 00
        E 0 80 60 00
        E 0 90 18 60
        E 0 90 60 60
        E 80 80 18 00
        E 0 80 60 00
        E 0 90 18 60
        E 0 90 54 60
        E 0 90 60 60
        E 80 80 18 00
        E 0 80 54 00
        E 0 80 60 00
        E 0 90 18 60
        E 0 90 60 60
        E 80 80 18 00
        E 0 80 60 00
        E 0 90 18 60
        E 0 90 60 60
        E 80 80 18 00
        E 0 80 60 00
        E 0 90 18 60
        E 0 90 1a 60
        E 0 90 2a 60
        E 0 90 3d 60
        E 0 90 49 60
        E 0 90 4b 60
        E 0 90 54 60
        E 0 90 55 60
        E 0 90 57 60
        E 0 90 60 60
        E 0 90 61 60
        E 0 90 63 60
        E 80 80 18 00
        E 0 80 1a 00
        E 0 80 2a 00
        E 0 80 3d 00
        E 0 80 49 00
        E 0 80 4b 00
        E 0 80 54 00
        E 0 80 55 00
        E 0 80 57 00
        E 0 80 60 00
        E 0 80 61 00
        E 0 80 63 00
        E 0 90 18 60
        E 0 90 60 60
        E 80 80 18 00
        E 0 80 60 00
        E 0 90 18 60
        E 0 90 60 60
        E 80 80 18 00
        E 0 80 60 00
        E 0 90 18 60
        E 0 90 54 60
        E 0 90 60 60
        E 80 80 18 00
        E 0 80 54 00
        E 0 80 60 00
        E 0 90 18 60
        E 0 90 60 60
        E 80 80 18 00
        E 0 80 60 00
        E 0 90 18 60
        E 0 90 60 60
        E 80 80 18 00
        E 0 80 60 00
        E 0 90 18 60
        E 0 90 1a 60
        E 0 90 26 60
        E 0 90 3d 60
        E 0 90 49 60
        E 0 90 4c 60
        E 0 90 54 60
        E 0 90 55 60
        E 0 90 58 60
        E 0 90 60 60
        E 0 90 61 60
        E 0 90 64 60
        E 0 90 78 60
        E 0 90 79 60
        E 0 90 7a 60
        E 0 90 7b 60
        E 0 90 7c 60
        E 80 80 18 00
        E 0 80 1a 00
        E 0 80 26 00
        E 0 80 3d 00
        E 0 80 49 00
        E 0 80 4c 00
        E 0 80 54 00
        E 0 80 55 00
        E 0 80 58 00
        E 0 80 60 00
        E 0 80 61 00
        E 0 80 64 00
        E 0 90 18 60
        E 0 90 60 60
        E 80 80 18 00
        E 0 80 60 00
        E 0 90 18 60
        E 0 90 60 60
        E 80 80 18 00
        E 0 80 60 00
        E 0 90 18 60
        E 0 90 54 60
        E 0 90 60 60
        E 80 80 18 00
        E 0 80 54 00
        E 0 80 60 00
        E 0 90 18 60
        E 0 90 2e 60
        E 0 90 60 60
        E 0 90 62 60
        E 0 90 6e 60
        E 80 80 18 00
        E 0 80 2e 00
        E 0 80 60 00
        E 0 80 62 00
        E 0 80 6e 00
        E 0 90 18 60
        E 0 90 2f 60
        E 0 90 60 60
        E 0 90 62 60
        E 0 90 6e 60
        E 80 80 18 00
        E 0 80 2f 00
        E 0 80 60 00
        E 0 80 62 00
        E 0 80 6e 00
        E 0 90 18 60
        E 0 90 2e 60
        E 0 90 3e 60
        E 0 90 4a 60
        E 0 90 54 60
        E 0 90 56 60
        E 0 90 60 60
        E 0 90 62 60
        E 0 90 6e 60
        E 80 80 18 00
        E 0 80 2e 00
        E 0 80 3e 00
        E 0 80 4a 00
        E 0 80 54 00
        E 0 80 56 00
        E 0 80 60 00
        E 0 80 62 00
        E 0 80 6e 00
        E 0 90 18 60
        E 0 90 2f 60
        E 0 90 60 60
        E 0 90 62 60
        E 0 90 6e 60
        E 80 80 18 00
        E 0 80 2f 00
        E 0 80 60 00
        E 0 80 62 00
        E 0 80 6e 00
        E 0 90 18 60
        E 0 90 30 60
        E 0 90 60 60
        E 0 90 63 60
        E 0 90 6f 60
        E 80 80 18 00
        E 0 80 30 00
        E 0 80 60 00
        E 0 80 63 00
        E 0 80 6f 00
        E 0 90 18 60
        E 0 90 31 60
        E 0 90 54 60
        E 0 90 57 60
        E 0 90 60 60
        E 0 90 63 60
        E 0 90 6f 60
        E 80 80 18 00
        E 0 80 31 00
        E 0 80 54 00
        E 0 80 57 00
        E 0 80 60 00
        E 0 80 63 00
        E 0 80 6f 00
        E 0 90 18 60
        E 0 90 32 60
        E 0 90 60 60
        E 0 90 64 60
        E 0 90 70 60
        E 80 80 18 00
        E 0 80 32 00
        E 0 80 60 00
        E 0 80 64 00
        E 0 80 70 00
        E 0 90 18 60
        E 0 90 33 60
        E 0 90 60 60
        E 0 90 64 60
        E 0 90 70 60
        E 80 80 18 00
        E 0 80 33 00
        E 0 80 60 00
        E 0 80 64 00
        E 0 80 70 00
        E 0 90 18 60
        E 0 90 2c 60
        E 0 90 40 60
        E 0 90 48 60
        E 0 90 4c 60
        E 0 90 54 60
        E 0 90 58 60
        E 0 90 60 60
        E 0 90 64 60
        E 1 80 78 00
        E 0 80 79 00
        E 0 80 7a 00
        E 0 80 7b 00
        E 0 80 7c 00
        E 79 80 18 00
        E 0 80 2c 00
        E 0 80 40 00
        E 0 80 48 00
        E 0 80 4c 00
        E 0 80 54 00
        E 0 80 58 00
        E 0 80 60 00
        E 0 80 64 00
        E 240 90 18 60
        E 0 90 2b 60
        E 0 90 60 60
        E 0 90 63 60
        E 80 80 18 00
        E 0 80 2b 00
        E 0 80 60 00
        E 0 80 63 00
        E 80 90 1a 60
        E 0 90 2a 60
        E 0 90 3d 60
        E 0 90 49 60
        E 0 90 4b 60
        E 0 90 55 60
        E 0 90 57 60
        E 0 90 61 60
        E 0 90 63 60
        E 80 80 1a 00
        E 0 80 2a 00
        E 0 80 3d 00
        E 0 80 49 00
        E 0 80 4b 00
        E 0 80 55 00
        E 0 80 57 00
        E 0 80 61 00
        E 0 80 63 00
        E 80 90 2b 60
        E 0 90 63 60
        E 80 80 2b 00
        E 0 80 63 00
        E 80 90 18 60
        E 0 90 2a 60
        E 0 90 60 60
        E 0 90 63 60
        E 80 80 18 00
        E 0 80 2a 00
        E 0 80 60 00
        E 0 80 63 00
        E 80 90 18 60
        E 0 90 2b 60
        E 0 90 3f 60
        E 0 90 48 60
        E 0 90 4b 60
        E 0 90 54 60
        E 0 90 57 60
        E 0 90 60 60
        E 0 90 63 60
        E 80 80 18 00
        E 0 80 2b 00
        E 0 80 3f 00
        E 0 80 48 00
        E 0 80 4b 00
        E 0 80 54 00
        E 0 80 57 00
        E 0 80 60 00
        E 0 80 63 00
        E 80 90 2a 60
        E 0 90 63 60
        E 80 80 2a 00
        E 0 80 63 00
        E 80 90 18 60
        E 0 90 2b 60
        E 0 90 60 60
        E 0 90 63 60
        E 80 80 18 00
        E 0 80 2b 00
        E 0 80 60 00
        E 0 80 63 00
        E 80 90 1a 60
        E 0 90 2a 60
        E 0 90 3d 60
        E 0 90 49 60
        E 0 90 4b 60
        E 0 90 55 60
        E 0 90 57 60
        E 0 90 61 60
        E 0 90 63 60
        E 80 80 1a 00
        E 0 80 2a 00
        E 0 80 3d 00
        E 0 80 49 00
        E 0 80 4b 00
        E 0 80 55 00
        E 0 80 57 00
        E 0 80 61 00
        E 0 80 63 00
        E 80 90 2b 60
        E 0 90 63 60
        E 80 80 2b 00
        E 0 80 63 00
        E 80 90 18 60
        E 0 90 2a 60
        E 0 90 60 60
        E 0 90 63 60
        E 80 80 18 00
        E 0 80 2a 00
        E 0 80 60 00
        E 0 80 63 00
        E 80 90 18 60
        E 0 90 2b 60
        E 0 90 3f 60
        E 0 90 48 60
        E 0 90 4b 60
        E 0 90 54 60
        E 0 90 57 60
        E 0 90 60 60
        E 0 90 63 60
        E 80 80 18 00
        E 0 80 2b 00
        E 0 80 3f 00
        E 0 80 48 00
        E 0 80 4b 00
        E 0 80 54 00
        E 0 80 57 00
        E 0 80 60 00
        E 0 80 63 00
        E 80 90 2a 60
        E 0 90 63 60
        E 80 80 2a 00
        E 0 80 63 00
        E 80 90 18 60
        E 0 90 2b 60
        E 0 90 60 60
        E 0 90 63 60
        E 80 80 18 00
        E 0 80 2b 00
        E 0 80 60 00
        E 0 80 63 00
        E 80 90 1a 60
        E 0 90 2a 60
        E 0 90 3d 60
        E 0 90 49 60
        E 0 90 4b 60
        E 0 90 55 60
        E 0 90 57 60
        E 0 90 61 60
        E 0 90 63 60
        E 80 80 1a 00
        E 0 80 2a 00
        E 0 80 3d 00
        E 0 80 49 00
        E 0 80 4b 00
        E 0 80 55 00
        E 0 80 57 00
        E 0 80 61 00
        E 0 80 63 00
        E 80 90 2b 60
        E 0 90 63 60
        E 80 80 2b 00
        E 0 80 63 00
        E 0 90 1b 60
        E 0 90 55 60
        E 0 90 61 60
        E 80 80 1b 00
        E 0 80 55 00
        E 0 80 61 00
        E 0 90 1a 60
        E 0 90 61 60
        E 80 80 1a 00
        E 0 80 61 00
        E 80 90 1b 60
        E 0 90 3d 60
        E 0 90 49 60
        E 0 90 55 60
        E 0 90 61 60
        E 80 80 1b 00
        E 0 80 3d 00
        E 0 80 49 00
        E 0 80 55 00
        E 0 80 61 00
        E 0 90 1a 60
        E 0 90 61 60
        E 80 80 1a 00
        E 0 80 61 00
        E 0 90 2f 60
        E 0 90 62 60
        E 0 90 6e 60
        E 80 80 2f 00
        E 0 80 62 00
        E 0 80 6e 00
        E 0 90 2e 60
        E 0 90 56 60
        E 0 90 62 60
        E 0 90 6e 60
        E 80 80 2e 00
        E 0 80 56 00
        E 0 80 62 00
        E 0 80 6e 00
        E 0 90 2f 60
        E 0 90 62 60
        E 0 90 6e 60
        E 80 80 2f 00
        E 0 80 62 00
        E 0 80 6e 00
        E 0 90 2e 60
        E 0 90 62 60
        E 0 90 6e 60
        E 80 80 2e 00
        E 0 80 62 00
        E 0 80 6e 00
        E 0 90 1b 60
        E 0 90 3d 60
        E 0 90 49 60
        E 0 90 55 60
        E 0 90 61 60
        E 80 80 1b 00
        E 0 80 3d 00
        E 0 80 49 00
        E 0 80 55 00
        E 0 80 61 00
        E 0 90 1a 60
        E 0 90 61 60
        E 80 80 1a 00
        E 0 80 61 00
        E 0 90 1b 60
        E 0 90 61 60
        E 80 80 1b 00
        E 0 80 61 00
        E 0 90 1a 60
        E 0 90 55 60
        E 0 90 61 60
        E 80 80 1a 00
        E 0 80 55 00
        E 0 80 61 00
        E 0 90 1b 60
        E 0 90 61 60
        E 80 80 1b 00
        E 0 80 61 00
        E 0 90 1a 60
        E 0 90 61 60
        E 80 80 1a 00
        E 0 80 61 00
        E 0 90 18 60
        E 0 90 26 60
        E 0 90 40 60
        E 0 90 48 60
        E 0 90 4c 60
        E 0 90 54 60
        E 0 90 58 60
        E 0 90 60 60
        E 0 90 64 60
        E 80 80 18 00
        E 0 80 26 00
        E 0 80 40 00
        E 0 80 48 00
        E 0 80 4c 00
        E 0 80 54 00
        E 0 80 58 00
        E 0 80 60 00
        E 0 80 64 00
        E 80 90 18 60
        E 0 90 60 60
        E 80 80 18 00
        E 0 80 60 00
        E 80 90 18 60
        E 0 90 60 60
        E 80 80 18 00
        E 0 80 60 00
        E 80 90 18 60
        E 0 90 26 60
        E 0 90 40 60
        E 0 90 48 60
        E 0 90 4c 60
        E 0 90 54 60
        E 0 90 58 60
        E 0 90 60 60
        E 0 90 64 60
        E 80 80 18 00
        E 0 80 26 00
        E 0 80 40 00
        E 0 80 48 00
        E 0 80 4c 00
        E 0 80 54 00
        E 0 80 58 00
        E 0 80 60 00
        E 0 80 64 00
        E 80 90 18 60
        E 0 90 60 60
        E 80 80 18 00
        E 0 80 60 00
        E 80 90 18 60
        E 0 90 60 60
        E 80 80 18 00
        E 0 80 60 00
        E 80 90 1a 60
        E 0 90 26 60
        E 0 90 3d 60
        E 0 90 49 60
        E 0 90 4c 60
        E 0 90 55 60
        E 0 90 58 60
        E 0 90 61 60
        E 0 90 64 60
        E 80 80 1a 00
        E 0 80 26 00
        E 0 80 3d 00
        E 0 80 49 00
        E 0 80 4c 00
        E 0 80 55 00
        E 0 80 58 00
        E 0 80 61 00
        E 0 80 64 00
        E 80 90 18 60
        E 0 90 60 60
        E 80 80 18 00
        E 0 80 60 00
        E 80 90 1a 60
        E 0 90 26 60
        E 0 90 61 60
        E 0 90 64 60
        E 80 80 1a 00
        E 0 80 26 00
        E 0 80 61 00
        E 0 80 64 00
        E 80 90 18 60
        E 0 90 3c 60
        E 0 90 48 60
        E 0 90 54 60
        E 0 90 60 60
        E 80 80 18 00
        E 0 80 3c 00
        E 0 80 48 00
        E 0 80 54 00
        E 0 80 60 00
        E 80 90 1a 60
        E 0 90 26 60
        E 0 90 61 60
        E 0 90 64 60
        E 80 80 1a 00
        E 0 80 26 00
        E 0 80 61 00
        E 0 80 64 00
        E 80 90 1a 60
        E 0 90 26 60
        E 0 90 61 60
        E 0 90 64 60
        E 80 80 1a 00
        E 0 80 26 00
        E 0 80 61 00
        E 0 80 64 00
        E 80 90 18 60
        E 0 90 22 60
        E 0 90 26 60
        E 0 90 3e 60
        E 0 90 40 60
        E 0 90 48 60
        E 0 90 4a 60
        E 0 90 4c 60
        E 0 90 54 60
        E 0 90 56 60
        E 0 90 58 60
        E 0 90 60 60
        E 0 90 62 60
        E 0 90 64 60
        E 80 80 18 00
        E 0 80 22 00
        E 0 80 26 00
        E 0 80 3e 00
        E 0 80 40 00
        E 0 80 48 00
        E 0 80 4a 00
        E 0 80 4c 00
        E 0 80 54 00
        E 0 80 56 00
        E 0 80 58 00
        E 0 80 60 00
        E 0 80 62 00
        E 0 80 64 00
        E 240 90 18 60
        E 0 90 60 60
        E 80 80 18 00
        E 0 80 60 00
        E 80 90 1a 60
        E 0 90 26 60
        E 0 90 3d 60
        E 0 90 49 60
        E 0 90 4c 60
        E 0 90 55 60
        E 0 90 58 60
        E 0 90 61 60
        E 0 90 64 60
        E 80 80 1a 00
        E 0 80 26 00
        E 0 80 3d 00
        E 0 80 49 00
        E 0 80 4c 00
        E 0 80 55 00
        E 0 80 58 00
        E 0 80 61 00
        E 0 80 64 00
        E 80 90 26 60
        E 0 90 64 60
        E 80 80 26 00
        E 0 80 64 00
        E 80 90 18 60
        E 0 90 60 60
        E 80 80 18 00
        E 0 80 60 00
        E 80 90 1a 60
        E 0 90 26 60
        E 0 90 3d 60
        E 0 90 49 60
        E 0 90 4c 60
        E 0 90 55 60
        E 0 90 58 60
        E 0 90 61 60
        E 0 90 64 60
        E 80 80 1a 00
        E 0 80 26 00
        E 0 80 3d 00
        E 0 80 49 00
        E 0 80 4c 00
        E 0 80 55 00
        E 0 80 58 00
        E 0 80 61 00
        E 0 80 64 00
        E 160 90 2f 60
        E 0 90 56 60
        E 0 90 62 60
        E 0 90 6e 60
        E 80 80 2f 00
        E 0 80 56 00
        E 0 80 62 00
        E 0 80 6e 00
        E 0 90 2e 60
        E 0 90 62 60
        E 0 90 6e 60
        E 80 80 2e 00
        E 0 80 62 00
        E 0 80 6e 00
        E 80 90 18 60
        E 0 90 31 60
        E 0 90 3f 60
        E 0 90 4b 60
        E 0 90 54 60
        E 0 90 57 60
        E 0 90 60 60
        E 0 90 63 60
        E 0 90 6f 60
        E 80 80 18 00
        E 0 80 31 00
        E 0 80 3f 00
        E 0 80 4b 00
        E 0 80 54 00
        E 0 80 57 00
        E 0 80 60 00
        E 0 80 63 00
        E 0 80 6f 00
        E 80 90 30 60
        E 0 90 63 60
        E 0 90 6f 60
        E 80 80 30 00
        E 0 80 63 00
        E 0 80 6f 00
        E 0 90 31 60
        E 0 90 57 60
        E 0 90 63 60
        E 0 90 6f 60
        E 80 80 31 00
        E 0 80 57 00
        E 0 80 63 00
        E 0 80 6f 00
        E 0 90 32 60
        E 0 90 64 60
        E 0 90 70 60
        E 80 80 32 00
        E 0 80 64 00
        E 0 80 70 00
        E 80 90 18 60
        E 0 90 26 60
        E 0 90 40 60
        E 0 90 48 60
        E 0 90 4c 60
        E 0 90 54 60
        E 0 90 58 60
        E 0 90 60 60
        E 0 90 64 60
        E 80 80 18 00
        E 0 80 26 00
        E 0 80 40 00
        E 0 80 48 00
        E 0 80 4c 00
        E 0 80 54 00
        E 0 80 58 00
        E 0 80 60 00
        E 0 80 64 00
        E 80 90 18 60
        E 0 90 60 60
        E 80 80 18 00
        E 0 80 60 00
        E 80 90 18 60
        E 0 90 60 60
        E 80 80 18 00
        E 0 80 60 00
        E 80 90 1a 60
        E 0 90 2a 60
        E 0 90 3d 60
        E 0 90 49 60
        E 0 90 4b 60
        E 0 90 55 60
        E 0 90 57 60
        E 0 90 61 60
        E 0 90 63 60
        E 80 80 1a 00
        E 0 80 2a 00
        E 0 80 3d 00
        E 0 80 49 00
        E 0 80 4b 00
        E 0 80 55 00
        E 0 80 57 00
        E 0 80 61 00
        E 0 80 63 00
        E 80 90 26 60
        E 0 90 64 60
        E 80 80 26 00
        E 0 80 64 00
        E 80 90 18 60
        E 0 90 60 60
        E 80 80 18 00
        E 0 80 60 00
        E 80 90 1a 60
        E 0 90 26 60
        E 0 90 3d 60
        E 0 90 49 60
        E 0 90 4c 60
        E 0 90 55 60
        E 0 90 58 60
        E 0 90 61 60
        E 0 90 64 60
        E 80 80 1a 00
        E 0 80 26 00
        E 0 80 3d 00
        E 0 80 49 00
        E 0 80 4c 00
        E 0 80 55 00
        E 0 80 58 00
        E 0 80 61 00
        E 0 80 64 00
        E 80 90 18 60
        E 0 90 60 60
        E 80 80 18 00
        E 0 80 60 00
        E 80 90 1a 60
        E 0 90 26 60
        E 0 90 61 60
        E 0 90 64 60
        E 80 80 1a 00
        E 0 80 26 00
        E 0 80 61 00
        E 0 80 64 00
        E 80 90 18 60
        E 0 90 3c 60
        E 0 90 48 60
        E 0 90 54 60
        E 0 90 60 60
        E 80 80 18 00
        E 0 80 3c 00
        E 0 80 48 00
        E 0 80 54 00
        E 0 80 60 00
        E 80 90 1a 60
        E 0 90 26 60
        E 0 90 61 60
        E 0 90 64 60
        E 80 80 1a 00
        E 0 80 26 00
        E 0 80 61 00
        E 0 80 64 00
        E 80 90 1a 60
        E 0 90 61 60
        E 80 80 1a 00
        E 0 80 61 00
        E 80 90 18 60
        E 0 90 26 60
        E 0 90 40 60
        E 0 90 48 60
        E 0 90 4c 60
        E 0 90 54 60
        E 0 90 58 60
        E 0 90 60 60
        E 0 90 64 60
        E 80 80 18 00
        E 0 80 26 00
        E 0 80 40 00
        E 0 80 48 00
        E 0 80 4c 00
        E 0 80 54 00
        E 0 80 58 00
        E 0 80 60 00
        E 0 80 64 00
        E 240 90 18 60
        E 0 90 60 60
        E 80 80 18 00
        E 0 80 60 00
        E 80 90 1a 60
        E 0 90 26 60
        E 0 90 3d 60
        E 0 90 49 60
        E 0 90 4c 60
        E 0 90 55 60
        E 0 90 58 60
        E 0 90 61 60
        E 0 90 64 60
        E 80 80 1a 00
        E 0 80 26 00
        E 0 80 3d 00
        E 0 80 49 00
        E 0 80 4c 00
        E 0 80 55 00
        E 0 80 58 00
        E 0 80 61 00
        E 0 80 64 00
        E 240 90 18 60
        E 0 90 60 60
        E 80 80 18 00
        E 0 80 60 00
        E 80 90 1a 60
        E 0 90 26 60
        E 0 90 3d 60
        E 0 90 49 60
        E 0 90 4c 60
        E 0 90 55 60
        E 0 90 58 60
        E 0 90 61 60
        E 0 90 64 60
        E 80 80 1a 00
        E 0 80 26 00
        E 0 80 3d 00
        E 0 80 49 00
        E 0 80 4c 00
        E 0 80 55 00
        E 0 80 58 00
        E 0 80 61 00
        E 0 80 64 00
        E 160 90 2f 60
        E 0 90 56 60
        E 0 90 62 60
        E 0 90 6e 60
        E 80 80 2f 00
        E 0 80 56 00
        E 0 80 62 00
        E 0 80 6e 00
        E 0 90 2e 60
        E 0 90 62 60
        E 0 90 6e 60
        E 80 80 2e 00
        E 0 80 62 00
        E 0 80 6e 00
        E 80 90 2f 60
        E 0 90 3e 60
        E 0 90 4a 60
        E 0 90 56 60
        E 0 90 62 60
        E 0 90 6e 60
        E 80 80 2f 00
        E 0 80 3e 00
        E 0 80 4a 00
        E 0 80 56 00
        E 0 80 62 00
        E 0 80 6e 00
        E 0 90 2e 60
        E 0 90 62 60
        E 0 90 6e 60
        E 80 80 2e 00
        E 0 80 62 00
        E 0 80 6e 00
        E 80 90 2f 60
        E 0 90 56 60
        E 0 90 62 60
        E 0 90 6e 60
        E 80 80 2f 00
        E 0 80 56 00
        E 0 80 62 00
        E 0 80 6e 00
        E 0 90 30 60
        E 0 90 63 60
        E 0 90 6f 60
        E 80 80 30 00
        E 0 80 63 00
        E 0 80 6f 00
        E 80 90 18 60
        E 0 90 26 60
        E 0 90 40 60
        E 0 90 48 60
        E 0 90 4c 60
        E 0 90 54 60
        E 0 90 58 60
        E 0 90 60 60
        E 0 90 64 60
        E 0 90 74 60
        E 80 80 18 00
        E 0 80 26 00
        E 0 80 40 00
        E 0 80 48 00
        E 0 80 4c 00
        E 0 80 54 00
        E 0 80 58 00
        E 0 80 60 00
        E 0 80 64 00
        E 80 90 18 60
        E 0 90 60 60
        E 80 80 18 00
        E 0 80 60 00
        E 80 90 18 60
        E 0 90 60 60
        E 80 80 18 00
        E 0 80 60 00
        E 80 90 1a 60
        E 0 90 26 60
        E 0 90 3d 60
        E 0 90 49 60
        E 0 90 4c 60
        E 0 90 55 60
        E 0 90 58 60
        E 0 90 61 60
        E 0 90 64 60
        E 80 80 1a 00
        E 0 80 26 00
        E 0 80 3d 00
        E 0 80 49 00
        E 0 80 4c 00
        E 0 80 55 00
        E 0 80 58 00
        E 0 80 61 00
        E 0 80 64 00
        E 240 90 18 60
        E 0 90 60 60
        E 80 80 18 00
        E 0 80 60 00
        E 80 90 1a 60
        E 0 90 26 60
        E 0 90 3d 60
        E 0 90 49 60
        E 0 90 4c 60
        E 0 90 55 60
        E 0 90 58 60
        E 0 90 61 60
        E 0 90 64 60
        E 80 80 1a 00
        E 0 80 26 00
        E 0 80 3d 00
        E 0 80 49 00
        E 0 80 4c 00
        E 0 80 55 00
        E 0 80 58 00
        E 0 80 61 00
        E 0 80 64 00
        E 80 90 18 60
        E 0 90 60 60
        E 80 80 18 00
        E 0 80 60 00
        E 80 90 1a 60
        E 0 90 26 60
        E 0 90 61 60
        E 0 90 64 60
        E 80 80 1a 00
        E 0 80 26 00
        E 0 80 61 00
        E 0 80 64 00
        E 80 90 18 60
        E 0 90 3c 60
        E 0 90 48 60
        E 0 90 54 60
        E 0 90 60 60
        E 80 80 18 00
        E 0 80 3c 00
        E 0 80 48 00
        E 0 80 54 00
        E 0 80 60 00
        E 80 90 1a 60
        E 0 90 26 60
        E 0 90 61 60
        E 0 90 64 60
        E 80 80 1a 00
        E 0 80 26 00
        E 0 80 61 00
        E 0 80 64 00
        E 80 90 1a 60
        E 0 90 61 60
        E 80 80 1a 00
        E 0 80 61 00
        E 80 90 18 60
        E 0 90 22 60
        E 0 90 26 60
        E 0 90 3e 60
        E 0 90 40 60
        E 0 90 48 60
        E 0 90 4a 60
        E 0 90 4c 60
        E 0 90 54 60
        E 0 90 56 60
        E 0 90 58 60
        E 0 90 60 60
        E 0 90 62 60
        E 0 90 64 60
        E 80 80 18 00
        E 0 80 22 00
        E 0 80 26 00
        E 0 80 3e 00
        E 0 80 40 00
        E 0 80 48 00
        E 0 80 4a 00
        E 0 80 4c 00
        E 0 80 54 00
        E 0 80 56 00
        E 0 80 58 00
        E 0 80 60 00
        E 0 80 62 00
        E 0 80 64 00
        E 240 90 18 60
        E 0 90 60 60
        E 80 80 18 00
        E 0 80 60 00
        E 80 90 1a 60
        E 0 90 26 60
        E 0 90 3d 60
        E 0 90 49 60
        E 0 90 4c 60
        E 0 90 55 60
        E 0 90 58 60
        E 0 90 61 60
        E 0 90 64 60
        E 80 80 1a 00
        E 0 80 26 00
        E 0 80 3d 00
        E 0 80 49 00
        E 0 80 4c 00
        E 0 80 55 00
        E 0 80 58 00
        E 0 80 61 00
        E 0 80 64 00
        E 240 90 18 60
        E 0 90 60 60
        E 80 80 18 00
        E 0 80 60 00
        E 80 90 1a 60
        E 0 90 26 60
        E 0 90 3d 60
        E 0 90 49 60
        E 0 90 4c 60
        E 0 90 55 60
        E 0 90 58 60
        E 0 90 61 60
        E 0 90 64 60
        E 80 80 1a 00
        E 0 80 26 00
        E 0 80 3d 00
        E 0 80 49 00
        E 0 80 4c 00
        E 0 80 55 00
        E 0 80 58 00
        E 0 80 61 00
        E 0 80 64 00
        E 80 90 2e 60
        E 0 90 62 60
        E 0 90 6e 60
        E 80 80 2e 00
        E 0 80 62 00
        E 0 80 6e 00
        E 0 90 2f 60
        E 0 90 56 60
        E 0 90 62 60
        E 0 90 6e 60
        E 80 80 2f 00
        E 0 80 56 00
        E 0 80 62 00
        E 0 80 6e 00
        E 0 90 2e 60
        E 0 90 62 60
        E 0 90 6e 60
        E 80 80 2e 00
        E 0 80 62 00
        E 0 80 6e 00
        E 80 90 18 60
        E 0 90 31 60
        E 0 90 3f 60
        E 0 90 4b 60
        E 0 90 54 60
        E 0 90 57 60
        E 0 90 60 60
        E 0 90 63 60
        E 0 90 6f 60
        E 80 80 18 00
        E 0 80 31 00
        E 0 80 3f 00
        E 0 80 4b 00
        E 0 80 54 00
        E 0 80 57 00
        E 0 80 60 00
        E 0 80 63 00
        E 0 80 6f 00
        E 80 90 30 60
        E 0 90 63 60
        E 0 90 6f 60
        E 80 80 30 00
        E 0 80 63 00
        E 0 80 6f 00
        E 0 90 31 60
        E 0 90 57 60
        E 0 90 63 60
        E 0 90 6f 60
        E 80 80 31 00
        E 0 80 57 00
        E 0 80 63 00
        E 0 80 6f 00
        E 0 90 32 60
        E 0 90 64 60
        E 0 90 70 60
        E 80 80 32 00
        E 0 80 64 00
        E 0 80 70 00
        E 80 80 74 00
        E 0 90 18 60
        E 0 90 26 60
        E 0 90 40 60
        E 0 90 48 60
        E 0 90 4c 60
        E 0 90 54 60
        E 0 90 58 60
        E 0 90 60 60
        E 0 90 64 60
        E 80 80 18 00
        E 0 80 26 00
        E 0 80 40 00
        E 0 80 48 00
        E 0 80 4c 00
        E 0 80 54 00
        E 0 80 58 00
        E 0 80 60 00
        E 0 80 64 00
        E 80 90 18 60
        E 0 90 60 60
        E 80 80 18 00
        E 0 80 60 00
        E 80 90 18 60
        E 0 90 60 60
        E 80 80 18 00
        E 0 80 60 00
        E 80 90 1a 60
        E 0 90 2a 60
        E 0 90 3d 60
        E 0 90 49 60
        E 0 90 4b 60
        E 0 90 55 60
        E 0 90 57 60
        E 0 90 61 60
        E 0 90 63 60
        E 80 80 1a 00
        E 0 80 2a 00
        E 0 80 3d 00
        E 0 80 49 00
        E 0 80 4b 00
        E 0 80 55 00
        E 0 80 57 00
        E 0 80 61 00
        E 0 80 63 00
        E 240 90 18 60
        E 0 90 60 60
        E 80 80 18 00
        E 0 80 60 00
        E 80 90 1a 60
        E 0 90 26 60
        E 0 90 3d 60
        E 0 90 49 60
        E 0 90 4c 60
        E 0 90 55 60
        E 0 90 58 60
        E 0 90 61 60
        E 0 90 64 60
        E 80 80 1a 00
        E 0 80 26 00
        E 0 80 3d 00
        E 0 80 49 00
        E 0 80 4c 00
        E 0 80 55 00
        E 0 80 58 00
        E 0 80 61 00
        E 0 80 64 00
        E 80 90 18 60
        E 0 90 60 60
        E 80 80 18 00
        E 0 80 60 00
        E 80 90 1a 60
        E 0 90 26 60
        E 0 90 61 60
        E 0 90 64 60
        E 80 80 1a 00
        E 0 80 26 00
        E 0 80 61 00
        E 0 80 64 00
        E 80 90 18 60
        E 0 90 3c 60
        E 0 90 48 60
        E 0 90 54 60
        E 0 90 60 60
        E 80 80 18 00
        E 0 80 3c 00
        E 0 80 48 00
        E 0 80 54 00
        E 0 80 60 00
        E 80 90 1a 60
        E 0 90 26 60
        E 0 90 61 60
        E 0 90 64 60
        E 80 80 1a 00
        E 0 80 26 00
        E 0 80 61 00
        E 0 80 64 00
        E 80 90 1a 60
        E 0 90 61 60
        E 80 80 1a 00
        E 0 80 61 00
        E 80 90 18 60
        E 0 90 26 60
        E 0 90 40 60
        E 0 90 48 60
        E 0 90 4c 60
        E 0 90 54 60
        E 0 90 58 60
        E 0 90 60 60
        E 0 90 64 60
        E 80 80 18 00
        E 0 80 26 00
        E 0 80 40 00
        E 0 80 48 00
        E 0 80 4c 00
        E 0 80 54 00
        E 0 80 58 00
        E 0 80 60 00
        E 0 80 64 00
        E 80 90 18 60
        E 0 90 60 60
        E 80 80 18 00
        E 0 80 60 00
        E 80 90 18 60
        E 0 90 60 60
        E 80 80 18 00
        E 0 80 60 00
        E 80 90 1a 60
        E 0 90 26 60
        E 0 90 3d 60
        E 0 90 49 60
        E 0 90 4c 60
        E 0 90 55 60
        E 0 90 58 60
        E 0 90 61 60
        E 0 90 64 60
        E 80 80 1a 00
        E 0 80 26 00
        E 0 80 3d 00
        E 0 80 49 00
        E 0 80 4c 00
        E 0 80 55 00
        E 0 80 58 00
        E 0 80 61 00
        E 0 80 64 00
        E 80 90 18 60
        E 0 90 60 60
        E 80 80 18 00
        E 0 80 60 00
        E 80 90 18 60
        E 0 90 60 60
        E 80 80 18 00
        E 0 80 60 00
        E 80 90 1a 60
        E 0 90 26 60
        E 0 90 3d 60
        E 0 90 49 60
        E 0 90 4c 60
        E 0 90 55 60
        E 0 90 58 60
        E 0 90 61 60
        E 0 90 64 60
        E 0 90 78 60
        E 0 90 79 60
        E 0 90 7a 60
        E 0 90 7b 60
        E 0 90 7c 60
        E 80 80 1a 00
        E 0 80 26 00
        E 0 80 3d 00
        E 0 80 49 00
        E 0 80 4c 00
        E 0 80 55 00
        E 0 80 58 00
        E 0 80 61 00
        E 0 80 64 00
        E 160 90 2f 60
        E 0 90 56 60
        E 0 90 62 60
        E 0 90 6e 60
        E 80 80 2f 00
        E 0 80 56 00
        E 0 80 62 00
        E 0 80 6e 00
        E 0 90 2e 60
        E 0 90 62 60
        E 0 90 6e 60
        E 80 80 2e 00
        E 0 80 62 00
        E 0 80 6e 00
        E 80 90 18 60
        E 0 90 31 60
        E 0 90 3f 60
        E 0 90 4b 60
        E 0 90 54 60
        E 0 90 57 60
        E 0 90 60 60
        E 0 90 63 60
        E 0 90 6f 60
        E 80 80 18 00
        E 0 80 31 00
        E 0 80 3f 00
        E 0 80 4b 00
        E 0 80 54 00
        E 0 80 57 00
        E 0 80 60 00
        E 0 80 63 00
        E 0 80 6f 00
        E 80 90 2e 60
        E 0 90 62 60
        E 0 90 6e 60
        E 80 80 2e 00
        E 0 80 62 00
        E 0 80 6e 00
        E 0 90 2f 60
        E 0 90 56 60
        E 0 90 62 60
        E 0 90 6e 60
        E 80 80 2f 00
        E 0 80 56 00
        E 0 80 62 00
        E 0 80 6e 00
        E 0 90 30 60
        E 0 90 63 60
        E 0 90 6f 60
        E 80 80 30 00
        E 0 80 63 00
        E 0 80 6f 00
        E 0 90 31 60
        E 0 90 63 60
        E 0 90 6f 60
        E 80 80 78 00
        E 0 80 79 00
        E 0 80 7a 00
        E 0 80 7b 00
        E 0 80 7c 00
        E 0 80 31 00
        E 0 80 63 00
        E 0 80 6f 00
        E 0 90 18 60
        E 0 90 2c 60
        E 0 90 40 60
        E 0 90 48 60
        E 0 90 4c 60
        E 0 90 54 60
        E 0 90 58 60
        E 0 90 60 60
        E 0 90 64 60
        E 80 80 18 00
        E 0 80 2c 00
        E 0 80 40 00
        E 0 80 48 00
        E 0 80 4c 00
        E 0 80 54 00
        E 0 80 58 00
        E 0 80 60 00
        E 0 80 64 00
        E 80 90 18 60
        E 0 90 60 60
        E 80 80 18 00
        E 0 80 60 00
        E 80 90 18 60
        E 0 90 2a 60
        E 0 90 60 60
        E 0 90 63 60
        E 80 80 18 00
        E 0 80 2a 00
        E 0 80 60 00
        E 0 80 63 00
        E 80 90 1a 60
        E 0 90 26 60
        E 0 90 3d 60
        E 0 90 49 60
        E 0 90 4c 60
        E 0 90 55 60
        E 0 90 58 60
        E 0 90 61 60
        E 0 90 64 60
        E 80 80 1a 00
        E 0 80 26 00
        E 0 80 3d 00
        E 0 80 49 00
        E 0 80 4c 00
        E 0 80 55 00
        E 0 80 58 00
        E 0 80 61 00
        E 0 80 64 00
        E 80 90 18 60
        E 0 90 60 60
        E 80 80 18 00
        E 0 80 60 00
        E 80 90 18 60
        E 0 90 60 60
        E 80 80 18 00
        E 0 80 60 00
        E 80 90 1a 60
        E 0 90 26 60
        E 0 90 3d 60
        E 0 90 49 60
        E 0 90 4c 60
        E 0 90 55 60
        E 0 90 58 60
        E 0 90 61 60
        E 0 90 64 60
        E 80 80 1a 00
        E 0 80 26 00
        E 0 80 3d 00
        E 0 80 49 00
        E 0 80 4c 00
        E 0 80 55 00
        E 0 80 58 00
        E 0 80 61 00
        E 0 80 64 00
        E 80 90 18 60
        E 0 90 60 60
        E 80 80 18 00
        E 0 80 60 00
        E 80 90 1a 60
        E 0 90 26 60
        E 0 90 61 60
        E 0 90 64 60
        E 80 80 1a 00
        E 0 80 26 00
        E 0 80 61 00
        E 0 80 64 00
        E 80 90 18 60
        E 0 90 3c 60
        E 0 90 48 60
        E 0 90 54 60
        E 0 90 60 60
        E 80 80 18 00
        E 0 80 3c 00
        E 0 80 48 00
        E 0 80 54 00
        E 0 80 60 00
        E 80 90 1a 60
        E 0 90 26 60
        E 0 90 61 60
        E 0 90 64 60
        E 80 80 1a 00
        E 0 80 26 00
        E 0 80 61 00
        E 0 80 64 00
        E 80 90 1a 60
        E 0 90 61 60
        E 80 80 1a 00
        E 0 80 61 00
        E 80 90 18 60
        E 0 90 26 60
        E 0 90 40 60
        E 0 90 48 60
        E 0 90 4c 60
        E 0 90 54 60
        E 0 90 58 60
        E 0 90 60 60
        E 0 90 64 60
        E 80 80 18 00
        E 0 80 26 00
        E 0 80 40 00
        E 0 80 48 00
        E 0 80 4c 00
        E 0 80 54 00
        E 0 80 58 00
        E 0 80 60 00
        E 0 80 64 00
        E 80 90 18 60
        E 0 90 60 60
        E 80 80 18 00
        E 0 80 60 00
        E 80 90 18 60
        E 0 90 60 60
        E 80 80 18 00
        E 0 80 60 00
        E 80 90 1a 60
        E 0 90 26 60
        E 0 90 3d 60
        E 0 90 49 60
        E 0 90 4c 60
        E 0 90 55 60
        E 0 90 58 60
        E 0 90 61 60
        E 0 90 64 60
        E 80 80 1a 00
        E 0 80 26 00
        E 0 80 3d 00
        E 0 80 49 00
        E 0 80 4c 00
        E 0 80 55 00
        E 0 80 58 00
        E 0 80 61 00
        E 0 80 64 00
        E 80 90 18 60
        E 0 90 60 60
        E 80 80 18 00
        E 0 80 60 00
        E 80 90 18 60
        E 0 90 60 60
        E 80 80 18 00
        E 0 80 60 00
        E 80 90 1a 60
        E 0 90 26 60
        E 0 90 3d 60
        E 0 90 49 60
        E 0 90 4c 60
        E 0 90 55 60
        E 0 90 58 60
        E 0 90 61 60
        E 0 90 64 60
        E 80 80 1a 00
        E 0 80 26 00
        E 0 80 3d 00
        E 0 80 49 00
        E 0 80 4c 00
        E 0 80 55 00
        E 0 80 58 00
        E 0 80 61 00
        E 0 80 64 00
        E 80 90 18 60
        E 0 90 60 60
        E 80 80 18 00
        E 0 80 60 00
        E 80 90 18 60
        E 0 90 60 60
        E 80 80 18 00
        E 0 80 60 00
        E 80 90 1a 60
        E 0 90 26 60
        E 0 90 3d 60
        E 0 90 49 60
        E 0 90 4c 60
        E 0 90 55 60
        E 0 90 58 60
        E 0 90 61 60
        E 0 90 64 60
        E 80 80 1a 00
        E 0 80 26 00
        E 0 80 3d 00
        E 0 80 49 00
        E 0 80 4c 00
        E 0 80 55 00
        E 0 80 58 00
        E 0 80 61 00
        E 0 80 64 00
        E 80 90 18 60
        E 0 90 60 60
        E 80 80 18 00
        E 0 80 60 00
        E 80 90 18 60
        E 0 90 60 60
        E 80 80 18 00
        E 0 80 60 00
        E 80 90 1a 60
        E 0 90 26 60
        E 0 90 3d 60
        E 0 90 49 60
        E 0 90 4c 60
        E 0 90 55 60
        E 0 90 58 60
        E 0 90 61 60
        E 0 90 64 60
        E 0 90 78 60
        E 0 90 79 60
        E 0 90 7a 60
        E 0 90 7b 60
        E 0 90 7c 60
        E 80 80 1a 00
        E 0 80 26 00
        E 0 80 3d 00
        E 0 80 49 00
        E 0 80 4c 00
        E 0 80 55 00
        E 0 80 58 00
        E 0 80 61 00
        E 0 80 64 00
        E 160 90 1b 60
        E 0 90 55 60
        E 0 90 61 60
        E 80 80 1b 00
        E 0 80 55 00
        E 0 80 61 00
        E 0 90 1a 60
        E 0 90 61 60
        E 80 80 1a 00
        E 0 80 61 00
        E 0 90 1b 60
        E 0 90 61 60
        E 80 80 1b 00
        E 0 80 61 00
        E 0 90 1a 60
        E 0 90 3d 60
        E 0 90 49 60
        E 0 90 55 60
        E 0 90 61 60
        E 80 80 1a 00
        E 0 80 3d 00
        E 0 80 49 00
        E 0 80 55 00
        E 0 80 61 00
        E 0 90 1b 60
        E 0 90 61 60
        E 80 80 1b 00
        E 0 80 61 00
        E 0 90 2e 60
        E 0 90 62 60
        E 0 90 6e 60
        E 80 80 2e 00
        E 0 80 62 00
        E 0 80 6e 00
        E 0 90 2f 60
        E 0 90 56 60
        E 0 90 62 60
        E 0 90 6e 60
        E 80 80 2f 00
        E 0 80 56 00
        E 0 80 62 00
        E 0 80 6e 00
        E 0 90 2e 60
        E 0 90 62 60
        E 0 90 6e 60
        E 80 80 2e 00
        E 0 80 62 00
        E 0 80 6e 00
        E 0 90 2f 60
        E 0 90 62 60
        E 0 90 6e 60
        E 80 80 2f 00
        E 0 80 62 00
        E 0 80 6e 00
        E 0 90 1a 60
        E 0 90 3d 60
        E 0 90 49 60
        E 0 90 55 60
        E 0 90 61 60
        E 80 80 1a 00
        E 0 80 3d 00
        E 0 80 49 00
        E 0 80 55 00
        E 0 80 61 00
        E 0 90 1b 60
        E 0 90 61 60
        E 80 80 1b 00
        E 0 80 61 00
        E 0 90 2e 60
        E 0 90 62 60
        E 0 90 6e 60
        E 80 80 2e 00
        E 0 80 62 00
        E 0 80 6e 00
        E 0 90 2f 60
        E 0 90 56 60
        E 0 90 62 60
        E 0 90 6e 60
        E 80 80 2f 00
        E 0 80 56 00
        E 0 80 62 00
        E 0 80 6e 00
        E 0 90 2e 60
        E 0 90 62 60
        E 0 90 6e 60
        E 80 80 2e 00
        E 0 80 62 00
        E 0 80 6e 00
        E 0 90 2f 60
        E 0 90 62 60
        E 0 90 6e 60
        E 80 80 2f 00
        E 0 80 62 00
        E 0 80 6e 00
        E 0 90 1a 60
        E 0 90 3d 60
        E 0 90 49 60
        E 0 90 55 60
        E 0 90 61 60
        E 80 80 1a 00
        E 0 80 3d 00
        E 0 80 49 00
        E 0 80 55 00
        E 0 80 61 00
        E 0 90 1b 60
        E 0 90 61 60
        E 80 80 1b 00
        E 0 80 61 00
        E 0 90 30 60
        E 0 90 63 60
        E 0 90 6f 60
        E 80 80 30 00
        E 0 80 63 00
        E 0 80 6f 00
        E 0 90 31 60
        E 0 90 57 60
        E 0 90 63 60
        E 0 90 6f 60
        E 80 80 31 00
        E 0 80 57 00
        E 0 80 63 00
        E 0 80 6f 00
        E 0 90 30 60
        E 0 90 63 60
        E 0 90 6f 60
        E 80 80 30 00
        E 0 80 63 00
        E 0 80 6f 00
        E 0 90 31 60
        E 0 90 63 60
        E 0 90 6f 60
        E 80 80 78 00
        E 0 80 79 00
        E 0 80 7a 00
        E 0 80 7b 00
        E 0 80 7c 00
        E 0 80 31 00
        E 0 80 63 00
        E 0 80 6f 00
        E 0 90 18 60
        E 0 90 2c 60
        E 0 90 40 60
        E 0 90 48 60
        E 0 90 4c 60
        E 0 90 54 60
        E 0 90 58 60
        E 0 90 60 60
        E 0 90 64 60
        E 80 80 18 00
        E 0 80 2c 00
        E 0 80 40 00
        E 0 80 48 00
        E 0 80 4c 00
        E 0 80 54 00
        E 0 80 58 00
        E 0 80 60 00
        E 0 80 64 00
        E 80 90 1f 60
        E 0 90 62 60
        E 80 80 1f 00
        E 0 80 62 00
        E 80 90 18 60
        E 0 90 1e 60
        E 0 90 60 60
        E 0 90 62 60
        E 80 80 18 00
        E 0 80 1e 00
        E 0 80 60 00
        E 0 80 62 00
        E 0 90 18 60
        E 0 90 60 60
        E 80 80 18 00
        E 0 80 60 00
        E 0 90 1a 60
        E 0 90 1f 60
        E 0 90 3d 60
        E 0 90 49 60
        E 0 90 4a 60
        E 0 90 55 60
        E 0 90 56 60
        E 0 90 61 60
        E 0 90 62 60
        E 80 80 1a 00
        E 0 80 1f 00
        E 0 80 3d 00
        E 0 80 49 00
        E 0 80 4a 00
        E 0 80 55 00
        E 0 80 56 00
        E 0 80 61 00
        E 0 80 62 00
        E 80 90 1e 60
        E 0 90 62 60
        E 80 80 1e 00
        E 0 80 62 00
        E 80 90 18 60
        E 0 90 1f 60
        E 0 90 60 60
        E 0 90 62 60
        E 80 80 18 00
        E 0 80 1f 00
        E 0 80 60 00
        E 0 80 62 00
        E 80 90 18 60
        E 0 90 1e 60
        E 0 90 3e 60
        E 0 90 48 60
        E 0 90 4a 60
        E 0 90 54 60
        E 0 90 56 60
        E 0 90 60 60
        E 0 90 62 60
        E 80 80 18 00
        E 0 80 1e 00
        E 0 80 3e 00
        E 0 80 48 00
        E 0 80 4a 00
        E 0 80 54 00
        E 0 80 56 00
        E 0 80 60 00
        E 0 80 62 00
        E 80 90 1f 60
        E 0 90 62 60
        E 80 80 1f 00
        E 0 80 62 00
        E 80 90 18 60
        E 0 90 1e 60
        E 0 90 60 60
        E 0 90 62 60
        E 80 80 18 00
        E 0 80 1e 00
        E 0 80 60 00
        E 0 80 62 00
        E 0 90 18 60
        E 0 90 60 60
        E 80 80 18 00
        E 0 80 60 00
        E 0 90 1a 60
        E 0 90 1f 60
        E 0 90 3d 60
        E 0 90 49 60
        E 0 90 4a 60
        E 0 90 55 60
        E 0 90 56 60
        E 0 90 61 60
        E 0 90 62 60
        E 80 80 1a 00
        E 0 80 1f 00
        E 0 80 3d 00
        E 0 80 49 00
        E 0 80 4a 00
        E 0 80 55 00
        E 0 80 56 00
        E 0 80 61 00
        E 0 80 62 00
        E 80 90 1e 60
        E 0 90 62 60
        E 80 80 1e 00
        E 0 80 62 00
        E 80 90 18 60
        E 0 90 1f 60
        E 0 90 60 60
        E 0 90 62 60
        E 80 80 18 00
        E 0 80 1f 00
        E 0 80 60 00
        E 0 80 62 00
        E 80 90 18 60
        E 0 90 1e 60
        E 0 90 3e 60
        E 0 90 48 60
        E 0 90 4a 60
        E 0 90 54 60
        E 0 90 56 60
        E 0 90 60 60
        E 0 90 62 60
        E 80 80 18 00
        E 0 80 1e 00
        E 0 80 3e 00
        E 0 80 48 00
        E 0 80 4a 00
        E 0 80 54 00
        E 0 80 56 00
        E 0 80 60 00
        E 0 80 62 00
        E 80 90 18 60
        E 0 90 1f 60
        E 0 90 60 60
        E 0 90 62 60
        E 80 80 18 00
        E 0 80 1f 00
        E 0 80 60 00
        E 0 80 62 00
        E 80 90 18 60
        E 0 90 1e 60
        E 0 90 60 60
        E 0 90 62 60
        E 80 80 18 00
        E 0 80 1e 00
        E 0 80 60 00
        E 0 80 62 00
        E 0 90 18 60
        E 0 90 60 60
        E 80 80 18 00
        E 0 80 60 00
        E 0 90 1a 60
        E 0 90 1f 60
        E 0 90 3d 60
        E 0 90 49 60
        E 0 90 4a 60
        E 0 90 55 60
        E 0 90 56 60
        E 0 90 61 60
        E 0 90 62 60
        E 80 80 1a 00
        E 0 80 1f 00
        E 0 80 3d 00
        E 0 80 49 00
        E 0 80 4a 00
        E 0 80 55 00
        E 0 80 56 00
        E 0 80 61 00
        E 0 80 62 00
        E 80 90 1e 60
        E 0 90 62 60
        E 80 80 1e 00
        E 0 80 62 00
        E 80 90 18 60
        E 0 90 1f 60
        E 0 90 60 60
        E 0 90 62 60
        E 80 80 18 00
        E 0 80 1f 00
        E 0 80 60 00
        E 0 80 62 00
        E 80 90 18 60
        E 0 90 1e 60
        E 0 90 3e 60
        E 0 90 48 60
        E 0 90 4a 60
        E 0 90 54 60
        E 0 90 56 60
        E 0 90 60 60
        E 0 90 62 60
        E 80 80 18 00
        E 0 80 1e 00
        E 0 80 3e 00
        E 0 80 48 00
        E 0 80 4a 00
        E 0 80 54 00
        E 0 80 56 00
        E 0 80 60 00
        E 0 80 62 00
        E 0 90 1b 60
        E 0 90 61 60
        E 80 80 1b 00
        E 0 80 61 00
        E 0 90 18 60
        E 0 90 1e 60
        E 0 90 60 60
        E 0 90 62 60
        E 80 80 18 00
        E 0 80 1e 00
        E 0 80 60 00
        E 0 80 62 00
        E 80 90 18 60
        E 0 90 1f 60
        E 0 90 60 60
        E 0 90 62 60
        E 80 80 18 00
        E 0 80 1f 00
        E 0 80 60 00
        E 0 80 62 00
        E 80 90 1a 60
        E 0 90 1f 60
        E 0 90 3d 60
        E 0 90 49 60
        E 0 90 4a 60
        E 0 90 55 60
        E 0 90 56 60
        E 0 90 61 60
        E 0 90 62 60
        E 80 80 1a 00
        E 0 80 1f 00
        E 0 80 3d 00
        E 0 80 49 00
        E 0 80 4a 00
        E 0 80 55 00
        E 0 80 56 00
        E 0 80 61 00
        E 0 80 62 00
        E 80 90 18 60
        E 0 90 1e 60
        E 0 90 60 60
        E 0 90 62 60
        E 80 80 18 00
        E 0 80 1e 00
        E 0 80 60 00
        E 0 80 62 00
        E 0 90 1b 60
        E 0 90 55 60
        E 0 90 61 60
        E 80 80 1b 00
        E 0 80 55 00
        E 0 80 61 00
        E 0 90 1a 60
        E 0 90 61 60
        E 80 80 1a 00
        E 0 80 61 00
        E 0 90 1b 60
        E 0 90 61 60
        E 80 80 1b 00
        E 0 80 61 00
        E 0 90 18 60
        E 0 90 2c 60
        E 0 90 40 60
        E 0 90 48 60
        E 0 90 4c 60
        E 0 90 54 60
        E 0 90 58 60
        E 0 90 60 60
        E 0 90 64 60
        E 80 80 18 00
        E 0 80 2c 00
        E 0 80 40 00
        E 0 80 48 00
        E 0 80 4c 00
        E 0 80 54 00
        E 0 80 58 00
        E 0 80 60 00
        E 0 80 64 00
        E 80 90 18 60
        E 0 90 1f 60
        E 0 90 60 60
        E 0 90 62 60
        E 80 80 18 00
        E 0 80 1f 00
        E 0 80 60 00
        E 0 80 62 00
        E 80 90 18 60
        E 0 90 1e 60
        E 0 90 60 60
        E 0 90 62 60
        E 80 80 18 00
        E 0 80 1e 00
        E 0 80 60 00
        E 0 80 62 00
        E 0 90 18 60
        E 0 90 60 60
        E 80 80 18 00
        E 0 80 60 00
        E 0 90 1a 60
        E 0 90 1f 60
        E 0 90 3d 60
        E 0 90 49 60
        E 0 90 4a 60
        E 0 90 55 60
        E 0 90 56 60
        E 0 90 61 60
        E 0 90 62 60
        E 80 80 1a 00
        E 0 80 1f 00
        E 0 80 3d 00
        E 0 80 49 00
        E 0 80 4a 00
        E 0 80 55 00
        E 0 80 56 00
        E 0 80 61 00
        E 0 80 62 00
        E 80 90 1e 60
        E 0 90 62 60
        E 80 80 1e 00
        E 0 80 62 00
        E 80 90 18 60
        E 0 90 1f 60
        E 0 90 60 60
        E 0 90 62 60
        E 80 80 18 00
        E 0 80 1f 00
        E 0 80 60 00
        E 0 80 62 00
        E 80 90 18 60
        E 0 90 1e 60
        E 0 90 3e 60
        E 0 90 48 60
        E 0 90 4a 60
        E 0 90 54 60
        E 0 90 56 60
        E 0 90 60 60
        E 0 90 62 60
        E 80 80 18 00
        E 0 80 1e 00
        E 0 80 3e 00
        E 0 80 48 00
        E 0 80 4a 00
        E 0 80 54 00
        E 0 80 56 00
        E 0 80 60 00
        E 0 80 62 00
        E 80 90 18 60
        E 0 90 1f 60
        E 0 90 60 60
        E 0 90 62 60
        E 80 80 18 00
        E 0 80 1f 00
        E 0 80 60 00
        E 0 80 62 00
        E 80 90 1e 60
        E 0 90 62 60
        E 80 80 1e 00
        E 0 80 62 00
        E 0 90 18 60
        E 0 90 60 60
        E 80 80 18 00
        E 0 80 60 00
        E 0 90 1a 60
        E 0 90 1f 60
        E 0 90 3d 60
        E 0 90 49 60
        E 0 90 4a 60
        E 0 90 55 60
        E 0 90 56 60
        E 0 90 61 60
        E 0 90 62 60
        E 80 80 1a 00
        E 0 80 1f 00
        E 0 80 3d 00
        E 0 80 49 00
        E 0 80 4a 00
        E 0 80 55 00
        E 0 80 56 00
        E 0 80 61 00
        E 0 80 62 00
        E 80 90 1e 60
        E 0 90 62 60
        E 80 80 1e 00
        E 0 80 62 00
        E 80 90 18 60
        E 0 90 1f 60
        E 0 90 60 60
        E 0 90 62 60
        E 80 80 18 00
        E 0 80 1f 00
        E 0 80 60 00
        E 0 80 62 00
        E 80 90 1e 60
        E 0 90 3e 60
        E 0 90 4a 60
        E 0 90 56 60
        E 0 90 62 60
        E 80 80 1e 00
        E 0 80 3e 00
        E 0 80 4a 00
        E 0 80 56 00
        E 0 80 62 00
        E 80 90 1b 60
        E 0 90 61 60
        E 80 80 1b 00
        E 0 80 61 00
        E 0 90 1a 60
        E 0 90 55 60
        E 0 90 61 60
        E 80 80 1a 00
        E 0 80 55 00
        E 0 80 61 00
        E 0 90 1b 60
        E 0 90 61 60
        E 80 80 1b 00
        E 0 80 61 00
        E 80 90 18 60
        E 0 90 3c 60
        E 0 90 48 60
        E 0 90 54 60
        E 0 90 60 60
        E 80 80 18 00
        E 0 80 3c 00
        E 0 80 48 00
        E 0 80 54 00
        E 0 80 60 00
        E 80 90 1a 60
        E 0 90 1b 60
        E 0 90 61 60
        E 0 90 62 60
        E 0 90 6e 60
        E 80 80 1a 00
        E 0 80 1b 00
        E 0 80 61 00
        E 0 80 62 00
        E 0 80 6e 00
        E 80 90 18 60
        E 0 90 60 60
        E 80 80 18 00
        E 0 80 60 00
        E 80 90 1a 60
        E 0 90 1b 60
        E 0 90 3d 60
        E 0 90 49 60
        E 0 90 4a 60
        E 0 90 55 60
        E 0 90 56 60
        E 0 90 61 60
        E 0 90 62 60
        E 0 90 6e 60
        E 80 80 1a 00
        E 0 80 1b 00
        E 0 80 3d 00
        E 0 80 49 00
        E 0 80 4a 00
        E 0 80 55 00
        E 0 80 56 00
        E 0 80 61 00
        E 0 80 62 00
        E 0 80 6e 00
        E 80 90 1a 60
        E 0 90 61 60
        E 80 80 1a 00
        E 0 80 61 00
        E 0 90 1b 60
        E 0 90 55 60
        E 0 90 61 60
        E 80 80 1b 00
        E 0 80 55 00
        E 0 80 61 00
        E 0 90 1a 60
        E 0 90 61 60
        E 80 80 1a 00
        E 0 80 61 00
        E 80 90 18 60
        E 0 90 1f 60
        E 0 90 3e 60
        E 0 90 48 60
        E 0 90 4a 60
        E 0 90 54 60
        E 0 90 56 60
        E 0 90 60 60
        E 0 90 62 60
        E 80 80 18 00
        E 0 80 1f 00
        E 0 80 3e 00
        E 0 80 48 00
        E 0 80 4a 00
        E 0 80 54 00
        E 0 80 56 00
        E 0 80 60 00
        E 0 80 62 00
        E 80 90 1a 60
        E 0 90 61 60
        E 80 80 1a 00
        E 0 80 61 00
        E 80 90 18 60
        E 0 90 2a 60
        E 0 90 60 60
        E 0 90 63 60
        E 80 80 18 00
        E 0 80 2a 00
        E 0 80 60 00
        E 0 80 63 00
        E 80 90 18 60
        E 0 90 2c 60
        E 0 90 40 60
        E 0 90 48 60
        E 0 90 4c 60
        E 0 90 54 60
        E 0 90 58 60
        E 0 90 60 60
        E 0 90 64 60
        E 80 80 18 00
        E 0 80 2c 00
        E 0 80 40 00
        E 0 80 48 00
        E 0 80 4c 00
        E 0 80 54 00
        E 0 80 58 00
        E 0 80 60 00
        E 0 80 64 00
        E 80 90 1f 60
        E 0 90 62 60
        E 80 80 1f 00
        E 0 80 62 00
        E 80 90 18 60
        E 0 90 1e 60
        E 0 90 60 60
        E 0 90 62 60
        E 80 80 18 00
        E 0 80 1e 00
        E 0 80 60 00
        E 0 80 62 00
        E 80 90 1a 60
        E 0 90 1f 60
        E 0 90 3d 60
        E 0 90 49 60
        E 0 90 4a 60
        E 0 90 55 60
        E 0 90 56 60
        E 0 90 61 60
        E 0 90 62 60
        E 80 80 1a 00
        E 0 80 1f 00
        E 0 80 3d 00
        E 0 80 49 00
        E 0 80 4a 00
        E 0 80 55 00
        E 0 80 56 00
        E 0 80 61 00
        E 0 80 62 00
        E 80 90 1e 60
        E 0 90 62 60
        E 80 80 1e 00
        E 0 80 62 00
        E 80 90 18 60
        E 0 90 1f 60
        E 0 90 60 60
        E 0 90 62 60
        E 80 80 18 00
        E 0 80 1f 00
        E 0 80 60 00
        E 0 80 62 00
        E 80 90 18 60
        E 0 90 1e 60
        E 0 90 3e 60
        E 0 90 48 60
        E 0 90 4a 60
        E 0 90 54 60
        E 0 90 56 60
        E 0 90 60 60
        E 0 90 62 60
        E 80 80 18 00
        E 0 80 1e 00
        E 0 80 3e 00
        E 0 80 48 00
        E 0 80 4a 00
        E 0 80 54 00
        E 0 80 56 00
        E 0 80 60 00
        E 0 80 62 00
        E 80 90 18 60
        E 0 90 1f 60
        E 0 90 60 60
        E 0 90 62 60
        E 80 80 18 00
        E 0 80 1f 00
        E 0 80 60 00
        E 0 80 62 00
        E 80 90 18 60
        E 0 90 1e 60
        E 0 90 60 60
        E 0 90 62 60
        E 80 80 18 00
        E 0 80 1e 00
        E 0 80 60 00
        E 0 80 62 00
        E 0 90 18 60
        E 0 90 60 60
        E 80 80 18 00
        E 0 80 60 00
        E 0 90 1a 60
        E 0 90 1f 60
        E 0 90 3d 60
        E 0 90 49 60
        E 0 90 4a 60
        E 0 90 55 60
        E 0 90 56 60
        E 0 90 61 60
        E 0 90 62 60
        E 80 80 1a 00
        E 0 80 1f 00
        E 0 80 3d 00
        E 0 80 49 00
        E 0 80 4a 00
        E 0 80 55 00
        E 0 80 56 00
        E 0 80 61 00
        E 0 80 62 00
        E 80 90 1e 60
        E 0 90 62 60
        E 80 80 1e 00
        E 0 80 62 00
        E 80 90 18 60
        E 0 90 1f 60
        E 0 90 60 60
        E 0 90 62 60
        E 80 80 18 00
        E 0 80 1f 00
        E 0 80 60 00
        E 0 80 62 00
        E 80 90 18 60
        E 0 90 1e 60
        E 0 90 3e 60
        E 0 90 48 60
        E 0 90 4a 60
        E 0 90 54 60
        E 0 90 56 60
        E 0 90 60 60
        E 0 90 62 60
        E 80 80 18 00
        E 0 80 1e 00
        E 0 80 3e 00
        E 0 80 48 00
        E 0 80 4a 00
        E 0 80 54 00
        E 0 80 56 00
        E 0 80 60 00
        E 0 80 62 00
        E 80 90 18 60
        E 0 90 1f 60
        E 0 90 60 60
        E 0 90 62 60
        E 80 80 18 00
        E 0 80 1f 00
        E 0 80 60 00
        E 0 80 62 00
        E 80 90 18 60
        E 0 90 1e 60
        E 0 90 60 60
        E 0 90 62 60
        E 80 80 18 00
        E 0 80 1e 00
        E 0 80 60 00
        E 0 80 62 00
        E 0 90 18 60
        E 0 90 60 60
        E 80 80 18 00
        E 0 80 60 00
        E 0 90 1a 60
        E 0 90 1f 60
        E 0 90 3d 60
        E 0 90 49 60
        E 0 90 4a 60
        E 0 90 55 60
        E 0 90 56 60
        E 0 90 61 60
        E 0 90 62 60
        E 80 80 1a 00
        E 0 80 1f 00
        E 0 80 3d 00
        E 0 80 49 00
        E 0 80 4a 00
        E 0 80 55 00
        E 0 80 56 00
        E 0 80 61 00
        E 0 80 62 00
        E 80 90 1e 60
        E 0 90 62 60
        E 80 80 1e 00
        E 0 80 62 00
        E 80 90 18 60
        E 0 90 1f 60
        E 0 90 60 60
        E 0 90 62 60
        E 80 80 18 00
        E 0 80 1f 00
        E 0 80 60 00
        E 0 80 62 00
        E 80 90 18 60
        E 0 90 1e 60
        E 0 90 3e 60
        E 0 90 48 60
        E 0 90 4a 60
        E 0 90 54 60
        E 0 90 56 60
        E 0 90 60 60
        E 0 90 62 60
        E 80 80 18 00
        E 0 80 1e 00
        E 0 80 3e 00
        E 0 80 48 00
        E 0 80 4a 00
        E 0 80 54 00
        E 0 80 56 00
        E 0 80 60 00
        E 0 80 62 00
        E 80 90 1b 60
        E 0 90 61 60
        E 80 80 1b 00
        E 0 80 61 00
        E 0 90 1a 60
        E 0 90 55 60
        E 0 90 61 60
        E 80 80 1a 00
        E 0 80 55 00
        E 0 80 61 00
        E 0 90 1b 60
        E 0 90 61 60
        E 80 80 1b 00
        E 0 80 61 00
        E 0 90 1a 60
        E 0 90 61 60
        E 80 80 1a 00
        E 0 80 61 00
        E 0 90 2f 60
        E 0 90 3e 60
        E 0 90 4a 60
        E 0 90 56 60
        E 0 90 62 60
        E 0 90 6e 60
        E 80 80 2f 00
        E 0 80 3e 00
        E 0 80 4a 00
        E 0 80 56 00
        E 0 80 62 00
        E 0 80 6e 00
        E 0 90 2e 60
        E 0 90 62 60
        E 0 90 6e 60
        E 80 80 2e 00
        E 0 80 62 00
        E 0 80 6e 00
        E 0 90 2f 60
        E 0 90 62 60
        E 0 90 6e 60
        E 80 80 2f 00
        E 0 80 62 00
        E 0 80 6e 00
        E 0 90 2e 60
        E 0 90 56 60
        E 0 90 62 60
        E 0 90 6e 60
        E 80 80 2e 00
        E 0 80 56 00
        E 0 80 62 00
        E 0 80 6e 00
        E 0 90 31 60
        E 0 90 63 60
        E 0 90 6f 60
        E 80 80 31 00
        E 0 80 63 00
        E 0 80 6f 00
        E 0 90 30 60
        E 0 90 63 60
        E 0 90 6f 60
        E 80 80 30 00
        E 0 80 63 00
        E 0 80 6f 00
        E 0 90 18 60
        E 0 90 26 60
        E 0 90 40 60
        E 0 90 48 60
        E 0 90 4c 60
        E 0 90 54 60
        E 0 90 58 60
        E 0 90 60 60
        E 0 90 64 60
        E 80 80 18 00
        E 0 80 26 00
        E 0 80 40 00
        E 0 80 48 00
        E 0 80 4c 00
        E 0 80 54 00
        E 0 80 58 00
        E 0 80 60 00
        E 0 80 64 00
        E 80 90 1e 60
        E 0 90 62 60
        E 80 80 1e 00
        E 0 80 62 00
        E 80 90 18 60
        E 0 90 1f 60
        E 0 90 60 60
        E 0 90 62 60
        E 80 80 18 00
        E 0 80 1f 00
        E 0 80 60 00
        E 0 80 62 00
        E 80 90 1a 60
        E 0 90 1f 60
        E 0 90 3d 60
        E 0 90 49 60
        E 0 90 4a 60
        E 0 90 55 60
        E 0 90 56 60
        E 0 90 61 60
        E 0 90 62 60
        E 80 80 1a 00
        E 0 80 1f 00
        E 0 80 3d 00
        E 0 80 49 00
        E 0 80 4a 00
        E 0 80 55 00
        E 0 80 56 00
        E 0 80 61 00
        E 0 80 62 00
        E 80 90 1e 60
        E 0 90 62 60
        E 80 80 1e 00
        E 0 80 62 00
        E 80 90 18 60
        E 0 90 1f 60
        E 0 90 60 60
        E 0 90 62 60
        E 80 80 18 00
        E 0 80 1f 00
        E 0 80 60 00
        E 0 80 62 00
        E 80 90 18 60
        E 0 90 1f 60
        E 0 90 3e 60
        E 0 90 48 60
        E 0 90 4a 60
        E 0 90 54 60
        E 0 90 56 60
        E 0 90 60 60
        E 0 90 62 60
        E 80 80 18 00
        E 0 80 1f 00
        E 0 80 3e 00
        E 0 80 48 00
        E 0 80 4a 00
        E 0 80 54 00
        E 0 80 56 00
        E 0 80 60 00
        E 0 80 62 00
        E 240 90 18 60
        E 0 90 1f 60
        E 0 90 60 60
        E 0 90 62 60
        E 80 80 18 00
        E 0 80 1f 00
        E 0 80 60 00
        E 0 80 62 00
        E 80 90 1a 60
        E 0 90 1f 60
        E 0 90 3d 60
        E 0 90 49 60
        E 0 90 4a 60
        E 0 90 55 60
        E 0 90 56 60
        E 0 90 61 60
        E 0 90 62 60
        E 80 80 1a 00
        E 0 80 1f 00
        E 0 80 3d 00
        E 0 80 49 00
        E 0 80 4a 00
        E 0 80 55 00
        E 0 80 56 00
        E 0 80 61 00
        E 0 80 62 00
        E 240 90 18 60
        E 0 90 1f 60
        E 0 90 60 60
        E 0 90 62 60
        E 80 80 18 00
        E 0 80 1f 00
        E 0 80 60 00
        E 0 80 62 00
        E 80 90 1a 60
        E 0 90 1f 60
        E 0 90 3d 60
        E 0 90 49 60
        E 0 90 4a 60
        E 0 90 55 60
        E 0 90 56 60
        E 0 90 61 60
        E 0 90 62 60
        E 80 80 1a 00
        E 0 80 1f 00
        E 0 80 3d 00
        E 0 80 49 00
        E 0 80 4a 00
        E 0 80 55 00
        E 0 80 56 00
        E 0 80 61 00
        E 0 80 62 00
        E 240 90 18 60
        E 0 90 60 60
        E 80 80 18 00
        E 0 80 60 00
        E 80 90 1a 60
        E 0 90 1b 60
        E 0 90 3d 60
        E 0 90 49 60
        E 0 90 4a 60
        E 0 90 55 60
        E 0 90 56 60
        E 0 90 61 60
        E 0 90 62 60
        E 0 90 6e 60
        E 80 80 1a 00
        E 0 80 1b 00
        E 0 80 3d 00
        E 0 80 49 00
        E 0 80 4a 00
        E 0 80 55 00
        E 0 80 56 00
        E 0 80 61 00
        E 0 80 62 00
        E 0 80 6e 00
        E 80 90 18 60
        E 0 90 60 60
        E 80 80 18 00
        E 0 80 60 00
        E 80 90 1a 60
        E 0 90 1b 60
        E 0 90 61 60
        E 0 90 62 60
        E 0 90 6e 60
        E 80 80 1a 00
        E 0 80 1b 00
        E 0 80 61 00
        E 0 80 62 00
        E 0 80 6e 00
        E 80 90 18 60
        E 0 90 3c 60
        E 0 90 48 60
        E 0 90 54 60
        E 0 90 60 60
        E 80 80 18 00
        E 0 80 3c 00
        E 0 80 48 00
        E 0 80 54 00
        E 0 80 60 00
        E 80 90 1a 60
        E 0 90 1b 60
        E 0 90 61 60
        E 0 90 62 60
        E 0 90 6e 60
        E 80 80 1a 00
        E 0 80 1b 00
        E 0 80 61 00
        E 0 80 62 00
        E 0 80 6e 00
        E 240 90 1b 60
        E 0 90 3d 60
        E 0 90 49 60
        E 0 90 55 60
        E 0 90 61 60
        E 80 80 1b 00
        E 0 80 3d 00
        E 0 80 49 00
        E 0 80 55 00
        E 0 80 61 00
        E 80 90 1a 60
        E 0 90 61 60
        E 80 80 1a 00
        E 0 80 61 00
        E 80 90 1b 60
        E 0 90 61 60
        E 80 80 1b 00
        E 0 80 61 00
        E 80 90 18 60
        E 0 90 2c 60
        E 0 90 40 60
        E 0 90 48 60
        E 0 90 4c 60
        E 0 90 54 60
        E 0 90 58 60
        E 0 90 60 60
        E 0 90 64 60
        E 0 90 74 60
        E 80 80 18 00
        E 0 80 2c 00
        E 0 80 40 00
        E 0 80 48 00
        E 0 80 4c 00
        E 0 80 54 00
        E 0 80 58 00
        E 0 80 60 00
        E 0 80 64 00
        E 400 90 18 60
        E 0 90 26 60
        E 0 90 40 60
        E 0 90 48 60
        E 0 90 4c 60
        E 0 90 54 60
        E 0 90 58 60
        E 0 90 60 60
        E 0 90 64 60
        E 80 80 18 00
        E 0 80 26 00
        E 0 80 40 00
        E 0 80 48 00
        E 0 80 4c 00
        E 0 80 54 00
        E 0 80 58 00
        E 0 80 60 00
        E 0 80 64 00
        E 240 90 18 60
        E 0 90 60 60
        E 80 80 18 00
        E 0 80 60 00
        E 0 90 18 60
        E 0 90 60 60
        E 80 80 18 00
        E 0 80 60 00
        E 0 90 1a 60
        E 0 90 2a 60
        E 0 90 3d 60
        E 0 90 49 60
        E 0 90 4b 60
        E 0 90 55 60
        E 0 90 57 60
        E 0 90 61 60
        E 0 90 63 60
        E 80 80 1a 00
        E 0 80 2a 00
        E 0 80 3d 00
        E 0 80 49 00
        E 0 80 4b 00
        E 0 80 55 00
        E 0 80 57 00
        E 0 80 61 00
        E 0 80 63 00
        E 80 90 18 60
        E 0 90 26 60
        E 0 90 60 60
        E 0 90 64 60
        E 80 80 18 00
        E 0 80 26 00
        E 0 80 60 00
        E 0 80 64 00
        E 240 90 18 60
        E 0 90 22 60
        E 0 90 26 60
        E 0 90 3e 60
        E 0 90 40 60
        E 0 90 48 60
        E 0 90 4a 60
        E 0 90 4c 60
        E 0 90 54 60
        E 0 90 56 60
        E 0 90 58 60
        E 0 90 60 60
        E 0 90 62 60
        E 0 90 64 60
        E 80 80 18 00
        E 0 80 22 00
        E 0 80 26 00
        E 0 80 3e 00
        E 0 80 40 00
        E 0 80 48 00
        E 0 80 4a 00
        E 0 80 4c 00
        E 0 80 54 00
        E 0 80 56 00
        E 0 80 58 00
        E 0 80 60 00
        E 0 80 62 00
        E 0 80 64 00
        E 240 90 18 60
        E 0 90 60 60
        E 80 80 18 00
        E 0 80 60 00
        E 80 90 18 60
        E 0 90 1f 60
        E 0 90 3e 60
        E 0 90 48 60
        E 0 90 4a 60
        E 0 90 54 60
        E 0 90 56 60
        E 0 90 60 60
        E 0 90 62 60
        E 80 80 18 00
        E 0 80 1f 00
        E 0 80 3e 00
        E 0 80 48 00
        E 0 80 4a 00
        E 0 80 54 00
        E 0 80 56 00
        E 0 80 60 00
        E 0 80 62 00
        E 400 90 18 60
        E 0 90 2a 60
        E 0 90 3f 60
        E 0 90 48 60
        E 0 90 4b 60
        E 0 90 54 60
        E 0 90 57 60
        E 0 90 60 60
        E 0 90 63 60
        E 80 80 18 00
        E 0 80 2a 00
        E 0 80 3f 00
        E 0 80 48 00
        E 0 80 4b 00
        E 0 80 54 00
        E 0 80 57 00
        E 0 80 60 00
        E 0 80 63 00
        E 240 90 18 60
        E 0 90 60 60
        E 80 80 18 00
        E 0 80 60 00
        E 0 90 18 60
        E 0 90 60 60
        E 80 80 18 00
        E 0 80 60 00
        E 0 90 1a 60
        E 0 90 2a 60
        E 0 90 3d 60
        E 0 90 49 60
        E 0 90 4b 60
        E 0 90 55 60
        E 0 90 57 60
        E 0 90 61 60
        E 0 90 63 60
        E 80 80 1a 00
        E 0 80 2a 00
        E 0 80 3d 00
        E 0 80 49 00
        E 0 80 4b 00
        E 0 80 55 00
        E 0 80 57 00
        E 0 80 61 00
        E 0 80 63 00
        E 80 90 2e 60
        E 0 90 62 60
        E 0 90 6e 60
        E 80 80 2e 00
        E 0 80 62 00
        E 0 80 6e 00
        E 0 90 2f 60
        E 0 90 56 60
        E 0 90 62 60
        E 0 90 6e 60
        E 80 80 2f 00
        E 0 80 56 00
        E 0 80 62 00
        E 0 80 6e 00
        E 0 90 2e 60
        E 0 90 62 60
        E 0 90 6e 60
        E 80 80 2e 00
        E 0 80 62 00
        E 0 80 6e 00
        E 0 90 2f 60
        E 0 90 62 60
        E 0 90 6e 60
        E 80 80 2f 00
        E 0 80 62 00
        E 0 80 6e 00
        E 0 90 2e 60
        E 0 90 3e 60
        E 0 90 4a 60
        E 0 90 56 60
        E 0 90 62 60
        E 0 90 6e 60
        E 80 80 2e 00
        E 0 80 3e 00
        E 0 80 4a 00
        E 0 80 56 00
        E 0 80 62 00
        E 0 80 6e 00
        E 80 90 31 60
        E 0 90 63 60
        E 0 90 6f 60
        E 80 80 31 00
        E 0 80 63 00
        E 0 80 6f 00
        E 0 90 30 60
        E 0 90 57 60
        E 0 90 63 60
        E 0 90 6f 60
        E 80 80 30 00
        E 0 80 57 00
        E 0 80 63 00
        E 0 80 6f 00
        E 0 90 31 60
        E 0 90 63 60
        E 0 90 6f 60
        E 80 80 31 00
        E 0 80 63 00
        E 0 80 6f 00
        E 0 90 30 60
        E 0 90 63 60
        E 0 90 6f 60
        E 80 80 74 00
        E 0 80 30 00
        E 0 80 63 00
        E 0 80 6f 00
        E 0 90 18 60
        E 0 90 2a 60
        E 0 90 3f 60
        E 0 90 48 60
        E 0 90 4b 60
        E 0 90 54 60
        E 0 90 57 60
        E 0 90 60 60
        E 0 90 63 60
        E 80 80 18 00
        E 0 80 2a 00
        E 0 80 3f 00
        E 0 80 48 00
        E 0 80 4b 00
        E 0 80 54 00
        E 0 80 57 00
        E 0 80 60 00
        E 0 80 63 00
        E 240 90 18 60
        E 0 90 60 60
        E 80 80 18 00
        E 0 80 60 00
        E 80 90 2a 60
        E 0 90 3f 60
        E 0 90 4b 60
        E 0 90 57 60
        E 0 90 63 60
        E 80 80 2a 00
        E 0 80 3f 00
        E 0 80 4b 00
        E 0 80 57 00
        E 0 80 63 00
        E 80 90 18 60
        E 0 90 60 60
        E 80 80 18 00
        E 0 80 60 00
        E 80 90 18 60
        E 0 90 60 60
        E 80 80 18 00
        E 0 80 60 00
        E 80 90 1a 60
        E 0 90 2a 60
        E 0 90 3d 60
        E 0 90 49 60
        E 0 90 4b 60
        E 0 90 55 60
        E 0 90 57 60
        E 0 90 61 60
        E 0 90 63 60
        E 80 80 1a 00
        E 0 80 2a 00
        E 0 80 3d 00
        E 0 80 49 00
        E 0 80 4b 00
        E 0 80 55 00
        E 0 80 57 00
        E 0 80 61 00
        E 0 80 63 00
        E 80 90 18 60
        E 0 90 60 60
        E 80 80 18 00
        E 0 80 60 00
        E 80 90 18 60
        E 0 90 60 60
        E 80 80 18 00
        E 0 80 60 00
        E 80 90 18 60
        E 0 90 26 60
        E 0 90 40 60
        E 0 90 48 60
        E 0 90 4c 60
        E 0 90 54 60
        E 0 90 58 60
        E 0 90 60 60
        E 0 90 64 60
        E 80 80 18 00
        E 0 80 26 00
        E 0 80 40 00
        E 0 80 48 00
        E 0 80 4c 00
        E 0 80 54 00
        E 0 80 58 00
        E 0 80 60 00
        E 0 80 64 00
        E 240 90 18 60
        E 0 90 60 60
        E 80 80 18 00
        E 0 80 60 00
        E 80 90 18 60
        E 0 90 2a 60
        E 0 90 3f 60
        E 0 90 48 60
        E 0 90 4b 60
        E 0 90 54 60
        E 0 90 57 60
        E 0 90 60 60
        E 0 90 63 60
        E 80 80 18 00
        E 0 80 2a 00
        E 0 80 3f 00
        E 0 80 48 00
        E 0 80 4b 00
        E 0 80 54 00
        E 0 80 57 00
        E 0 80 60 00
        E 0 80 63 00
        E 400 90 18 60
        E 0 90 2a 60
        E 0 90 3f 60
        E 0 90 48 60
        E 0 90 4b 60
        E 0 90 54 60
        E 0 90 57 60
        E 0 90 60 60
        E 0 90 63 60
        E 80 80 18 00
        E 0 80 2a 00
        E 0 80 3f 00
        E 0 80 48 00
        E 0 80 4b 00
        E 0 80 54 00
        E 0 80 57 00
        E 0 80 60 00
        E 0 80 63 00
        E 240 90 18 60
        E 0 90 60 60
        E 80 80 18 00
        E 0 80 60 00
        E 0 90 18 60
        E 0 90 60 60
        E 80 80 18 00
        E 0 80 60 00
        E 0 90 1a 60
        E 0 90 26 60
        E 0 90 3d 60
        E 0 90 49 60
        E 0 90 4c 60
        E 0 90 55 60
        E 0 90 58 60
        E 0 90 61 60
        E 0 90 64 60
        E 0 90 78 60
        E 0 90 79 60
        E 0 90 7a 60
        E 0 90 7b 60
        E 0 90 7c 60
        E 80 80 1a 00
        E 0 80 26 00
        E 0 80 3d 00
        E 0 80 49 00
        E 0 80 4c 00
        E 0 80 55 00
        E 0 80 58 00
        E 0 80 61 00
        E 0 80 64 00
        E 160 90 2f 60
        E 0 90 56 60
        E 0 90 62 60
        E 0 90 6e 60
        E 80 80 2f 00
        E 0 80 56 00
        E 0 80 62 00
        E 0 80 6e 00
        E 0 90 2e 60
        E 0 90 62 60
        E 0 90 6e 60
        E 80 80 2e 00
        E 0 80 62 00
        E 0 80 6e 00
        E 80 90 18 60
        E 0 90 2f 60
        E 0 90 3e 60
        E 0 90 4a 60
        E 0 90 54 60
        E 0 90 56 60
        E 0 90 60 60
        E 0 90 62 60
        E 0 90 6e 60
        E 80 80 18 00
        E 0 80 2f 00
        E 0 80 3e 00
        E 0 80 4a 00
        E 0 80 54 00
        E 0 80 56 00
        E 0 80 60 00
        E 0 80 62 00
        E 0 80 6e 00
        E 80 90 30 60
        E 0 90 63 60
        E 0 90 6f 60
        E 80 80 30 00
        E 0 80 63 00
        E 0 80 6f 00
        E 0 90 31 60
        E 0 90 57 60
        E 0 90 63 60
        E 0 90 6f 60
        E 80 80 31 00
        E 0 80 57 00
        E 0 80 63 00
        E 0 80 6f 00
        E 0 90 30 60
        E 0 90 63 60
        E 0 90 6f 60
        E 80 80 30 00
        E 0 80 63 00
        E 0 80 6f 00
        E 80 80 78 00
        E 0 80 79 00
        E 0 80 7a 00
        E 0 80 7b 00
        E 0 80 7c 00
        E 0 90 18 60
        E 0 90 2a 60
        E 0 90 3f 60
        E 0 90 48 60
        E 0 90 4b 60
        E 0 90 54 60
        E 0 90 57 60
        E 0 90 60 60
        E 0 90 63 60
        E 80 80 18 00
        E 0 80 2a 00
        E 0 80 3f 00
        E 0 80 48 00
        E 0 80 4b 00
        E 0 80 54 00
        E 0 80 57 00
        E 0 80 60 00
        E 0 80 63 00
        E 400 90 18 60
        E 0 90 2a 60
        E 0 90 3f 60
        E 0 90 48 60
        E 0 90 4b 60
        E 0 90 54 60
        E 0 90 57 60
        E 0 90 60 60
        E 0 90 63 60
        E 80 80 18 00
        E 0 80 2a 00
        E 0 80 3f 00
        E 0 80 48 00
        E 0 80 4b 00
        E 0 80 54 00
        E 0 80 57 00
        E 0 80 60 00
        E 0 80 63 00
        E 240 90 18 60
        E 0 90 60 60
        E 80 80 18 00
        E 0 80 60 00
        E 0 90 18 60
        E 0 90 60 60
        E 80 80 18 00
        E 0 80 60 00
        E 0 90 1a 60
        E 0 90 2a 60
        E 0 90 3d 60
        E 0 90 49 60
        E 0 90 4b 60
        E 0 90 55 60
        E 0 90 57 60
        E 0 90 61 60
        E 0 90 63 60
        E 80 80 1a 00
        E 0 80 2a 00
        E 0 80 3d 00
        E 0 80 49 00
        E 0 80 4b 00
        E 0 80 55 00
        E 0 80 57 00
        E 0 80 61 00
        E 0 80 63 00
        E 80 90 18 60
        E 0 90 60 60
        E 80 80 18 00
        E 0 80 60 00
        E 240 90 18 60
        E 0 90 26 60
        E 0 90 40 60
        E 0 90 48 60
        E 0 90 4c 60
        E 0 90 54 60
        E 0 90 58 60
        E 0 90 60 60
        E 0 90 64 60
        E 80 80 18 00
        E 0 80 26 00
        E 0 80 40 00
        E 0 80 48 00
        E 0 80 4c 00
        E 0 80 54 00
        E 0 80 58 00
        E 0 80 60 00
        E 0 80 64 00
        E 240 90 18 60
        E 0 90 60 60
        E 80 80 18 00
        E 0 80 60 00
        E 80 90 18 60
        E 0 90 1f 60
        E 0 90 3e 60
        E 0 90 48 60
        E 0 90 4a 60
        E 0 90 54 60
        E 0 90 56 60
        E 0 90 60 60
        E 0 90 62 60
        E 80 80 18 00
        E 0 80 1f 00
        E 0 80 3e 00
        E 0 80 48 00
        E 0 80 4a 00
        E 0 80 54 00
        E 0 80 56 00
        E 0 80 60 00
        E 0 80 62 00
        E 240 90 18 60
        E 0 90 60 60
        E 80 80 18 00
        E 0 80 60 00
        E 0 90 18 60
        E 0 90 60 60
        E 80 80 18 00
        E 0 80 60 00
        E 0 90 1a 60
        E 0 90 26 60
        E 0 90 3d 60
        E 0 90 49 60
        E 0 90 4c 60
        E 0 90 55 60
        E 0 90 58 60
        E 0 90 61 60
        E 0 90 64 60
        E 80 80 1a 00
        E 0 80 26 00
        E 0 80 3d 00
        E 0 80 49 00
        E 0 80 4c 00
        E 0 80 55 00
        E 0 80 58 00
        E 0 80 61 00
        E 0 80 64 00
        E 80 90 2e 60
        E 0 90 62 60
        E 0 90 6e 60
        E 80 80 2e 00
        E 0 80 62 00
        E 0 80 6e 00
        E 0 90 2f 60
        E 0 90 56 60
        E 0 90 62 60
        E 0 90 6e 60
        E 80 80 2f 00
        E 0 80 56 00
        E 0 80 62 00
        E 0 80 6e 00
        E 0 90 2e 60
        E 0 90 62 60
        E 0 90 6e 60
        E 80 80 2e 00
        E 0 80 62 00
        E 0 80 6e 00
        E 0 90 2f 60
        E 0 90 62 60
        E 0 90 6e 60
        E 80 80 2f 00
        E 0 80 62 00
        E 0 80 6e 00
        e 0 90 78 60
        e 0 90 79 60
        e 0 90 7a 60
        e 0 90 7b 60
        e 0 90 7c 60
        E 0 90 18 60
        E 0 90 2c 60
        E 0 90 40 60
        E 0 90 48 60
        E 0 90 4c 60
        E 0 90 54 60
        E 0 90 58 60
        E 0 90 60 60
        E 0 90 64 60
        E 80 80 18 00
        E 0 80 2c 00
        E 0 80 40 00
        E 0 80 48 00
        E 0 80 4c 00
        E 0 80 54 00
        E 0 80 58 00
        E 0 80 60 00
        E 0 80 64 00
        E 80 90 2f 60
        E 0 90 62 60
        E 0 90 6e 60
        E 80 80 2f 00
        E 0 80 62 00
        E 0 80 6e 00
        E 0 90 2e 60
        E 0 90 56 60
        E 0 90 62 60
        E 0 90 6e 60
        E 80 80 2e 00
        E 0 80 56 00
        E 0 80 62 00
        E 0 80 6e 00
        E 0 90 2f 60
        E 0 90 62 60
        E 0 90 6e 60
        E 80 80 2f 00
        E 0 80 62 00
        E 0 80 6e 00
        E 0 90 2e 60
        E 0 90 62 60
        E 0 90 6e 60
        E 80 80 2e 00
        E 0 80 62 00
        E 0 80 6e 00
        E 0 90 31 60
        E 0 90 3f 60
        E 0 90 4b 60
        E 0 90 57 60
        E 0 90 63 60
        E 0 90 6f 60
        E 80 80 31 00
        E 0 80 3f 00
        E 0 80 4b 00
        E 0 80 57 00
        E 0 80 63 00
        E 0 80 6f 00
        E 0 90 30 60
        E 0 90 63 60
        E 0 90 6f 60
        E 80 80 30 00
        E 0 80 63 00
        E 0 80 6f 00
        E 0 90 31 60
        E 0 90 63 60
        E 0 90 6f 60
        E 80 80 31 00
        E 0 80 63 00
        E 0 80 6f 00
        E 0 90 32 60
        E 0 90 58 60
        E 0 90 64 60
        E 0 90 70 60
        E 80 80 32 00
        E 0 80 58 00
        E 0 80 64 00
        E 0 80 70 00
        E 0 90 33 60
        E 0 90 64 60
        E 0 90 70 60
        E 80 80 33 00
        E 0 80 64 00
        E 0 80 70 00
        E 0 90 32 60
        E 0 90 64 60
        E 0 90 70 60
        E 80 80 32 00
        E 0 80 64 00
        E 0 80 70 00
        E 0 90 18 60
        E 0 90 26 60
        E 0 90 40 60
        E 0 90 48 60
        E 0 90 4c 60
        E 0 90 54 60
        E 0 90 58 60
        E 0 90 60 60
        E 0 90 64 60
        e 1 80 78 00
        e 0 80 79 00
        e 0 80 7a 00
        e 0 80 7b 00
        e 0 80 7c 00
        E 79 80 18 00
        E 0 80 26 00
        E 0 80 40 00
        E 0 80 48 00
        E 0 80 4c 00
        E 0 80 54 00
        E 0 80 58 00
        E 0 80 60 00
        E 0 80 64 00
        E 240 90 18 60
        E 0 90 60 60
        E 80 80 18 00
        E 0 80 60 00
        E 80 90 2a 60
        E 0 90 3f 60
        E 0 90 4b 60
        E 0 90 57 60
        E 0 90 63 60
        E 80 80 2a 00
        E 0 80 3f 00
        E 0 80 4b 00
        E 0 80 57 00
        E 0 80 63 00
        E 80 90 18 60
        E 0 90 60 60
        E 80 80 18 00
        E 0 80 60 00
        E 80 90 18 60
        E 0 90 60 60
        E 80 80 18 00
        E 0 80 60 00
        E 80 90 1a 60
        E 0 90 2a 60
        E 0 90 3d 60
        E 0 90 49 60
        E 0 90 4b 60
        E 0 90 55 60
        E 0 90 57 60
        E 0 90 61 60
        E 0 90 63 60
        E 80 80 1a 00
        E 0 80 2a 00
        E 0 80 3d 00
        E 0 80 49 00
        E 0 80 4b 00
        E 0 80 55 00
        E 0 80 57 00
        E 0 80 61 00
        E 0 80 63 00
        E 80 90 18 60
        E 0 90 60 60
        E 80 80 18 00
        E 0 80 60 00
        E 80 90 18 60
        E 0 90 60 60
        E 80 80 18 00
        E 0 80 60 00
        E 80 90 1a 60
        E 0 90 2a 60
        E 0 90 3d 60
        E 0 90 49 60
        E 0 90 4b 60
        E 0 90 55 60
        E 0 90 57 60
        E 0 90 61 60
        E 0 90 63 60
        E 80 80 1a 00
        E 0 80 2a 00
        E 0 80 3d 00
        E 0 80 49 00
        E 0 80 4b 00
        E 0 80 55 00
        E 0 80 57 00
        E 0 80 61 00
        E 0 80 63 00
        E 80 90 18 60
        E 0 90 60 60
        E 80 80 18 00
        E 0 80 60 00
        E 80 90 18 60
        E 0 90 60 60
        E 80 80 18 00
        E 0 80 60 00
        E 80 90 1a 60
        E 0 90 26 60
        E 0 90 3d 60
        E 0 90 49 60
        E 0 90 4c 60
        E 0 90 55 60
        E 0 90 58 60
        E 0 90 61 60
        E 0 90 64 60
        E 80 80 1a 00
        E 0 80 26 00
        E 0 80 3d 00
        E 0 80 49 00
        E 0 80 4c 00
        E 0 80 55 00
        E 0 80 58 00
        E 0 80 61 00
        E 0 80 64 00
        E 80 90 2e 60
        E 0 90 62 60
        E 0 90 6e 60
        E 80 80 2e 00
        E 0 80 62 00
        E 0 80 6e 00
        E 0 90 2f 60
        E 0 90 56 60
        E 0 90 62 60
        E 0 90 6e 60
        E 80 80 2f 00
        E 0 80 56 00
        E 0 80 62 00
        E 0 80 6e 00
        E 0 90 2e 60
        E 0 90 62 60
        E 0 90 6e 60
        E 80 80 2e 00
        E 0 80 62 00
        E 0 80 6e 00
        E 0 90 2f 60
        E 0 90 62 60
        E 0 90 6e 60
        E 80 80 2f 00
        E 0 80 62 00
        E 0 80 6e 00
        E 0 90 18 60
        E 0 90 2c 60
        E 0 90 40 60
        E 0 90 48 60
        E 0 90 4c 60
        E 0 90 54 60
        E 0 90 58 60
        E 0 90 60 60
        E 0 90 64 60
        E 80 80 18 00
        E 0 80 2c 00
        E 0 80 40 00
        E 0 80 48 00
        E 0 80 4c 00
        E 0 80 54 00
        E 0 80 58 00
        E 0 80 60 00
        E 0 80 64 00
        E 80 90 31 60
        E 0 90 63 60
        E 0 90 6f 60
        E 80 80 31 00
        E 0 80 63 00
        E 0 80 6f 00
        E 0 90 30 60
        E 0 90 57 60
        E 0 90 63 60
        E 0 90 6f 60
        E 80 80 30 00
        E 0 80 57 00
        E 0 80 63 00
        E 0 80 6f 00
        E 0 90 31 60
        E 0 90 63 60
        E 0 90 6f 60
        E 80 80 31 00
        E 0 80 63 00
        E 0 80 6f 00
        E 0 90 30 60
        E 0 90 63 60
        E 0 90 6f 60
        E 80 80 30 00
        E 0 80 63 00
        E 0 80 6f 00
        E 0 90 18 60
        E 0 90 26 60
        E 0 90 40 60
        E 0 90 48 60
        E 0 90 4c 60
        E 0 90 54 60
        E 0 90 58 60
        E 0 90 60 60
        E 0 90 64 60
        E 80 80 18 00
        E 0 80 26 00
        E 0 80 40 00
        E 0 80 48 00
        E 0 80 4c 00
        E 0 80 54 00
        E 0 80 58 00
        E 0 80 60 00
        E 0 80 64 00
        E 80 90 2e 60
        E 0 90 62 60
        E 0 90 6e 60
        E 80 80 2e 00
        E 0 80 62 00
        E 0 80 6e 00
        E 0 90 2f 60
        E 0 90 56 60
        E 0 90 62 60
        E 0 90 6e 60
        E 80 80 2f 00
        E 0 80 56 00
        E 0 80 62 00
        E 0 80 6e 00
        E 0 90 2e 60
        E 0 90 62 60
        E 0 90 6e 60
        E 80 80 2e 00
        E 0 80 62 00
        E 0 80 6e 00
        E 0 90 2f 60
        E 0 90 62 60
        E 0 90 6e 60
        E 80 80 2f 00
        E 0 80 62 00
        E 0 80 6e 00
        E 0 90 30 60
        E 0 90 3f 60
        E 0 90 4b 60
        E 0 90 57 60
        E 0 90 63 60
        E 0 90 6f 60
        E 80 80 30 00
        E 0 80 3f 00
        E 0 80 4b 00
        E 0 80 57 00
        E 0 80 63 00
        E 0 80 6f 00
        E 0 90 31 60
        E 0 90 63 60
        E 0 90 6f 60
        E 80 80 31 00
        E 0 80 63 00
        E 0 80 6f 00
        E 0 90 30 60
        E 0 90 63 60
        E 0 90 6f 60
        E 80 80 30 00
        E 0 80 63 00
        E 0 80 6f 00
        E 0 90 33 60
        E 0 90 58 60
        E 0 90 64 60
        E 0 90 70 60
        E 80 80 33 00
        E 0 80 58 00
        E 0 80 64 00
        E 0 80 70 00
        E 0 90 32 60
        E 0 90 64 60
        E 0 90 70 60
        E 80 80 32 00
        E 0 80 64 00
        E 0 80 70 00
        E 0 90 33 60
        E 0 90 64 60
        E 0 90 70 60
        E 80 80 33 00
        E 0 80 64 00
        E 0 80 70 00
        E 0 90 18 60
        E 0 90 2c 60
        E 0 90 40 60
        E 0 90 48 60
        E 0 90 4c 60
        E 0 90 54 60
        E 0 90 58 60
        E 0 90 60 60
        E 0 90 64 60
        E 80 80 18 00
        E 0 80 2c 00
        E 0 80 40 00
        E 0 80 48 00
        E 0 80 4c 00
        E 0 80 54 00
        E 0 80 58 00
        E 0 80 60 00
        E 0 80 64 00
        E 400 90 18 60
        E 0 90 2a 60
        E 0 90 3f 60
        E 0 90 48 60
        E 0 90 4b 60
        E 0 90 54 60
        E 0 90 57 60
        E 0 90 60 60
        E 0 90 63 60
        E 80 80 18 00
        E 0 80 2a 00
        E 0 80 3f 00
        E 0 80 48 00
        E 0 80 4b 00
        E 0 80 54 00
        E 0 80 57 00
        E 0 80 60 00
        E 0 80 63 00
        E 240 90 18 60
        E 0 90 60 60
        E 80 80 18 00
        E 0 80 60 00
        E 0 90 18 60
        E 0 90 60 60
        E 80 80 18 00
        E 0 80 60 00
        E 0 90 1a 60
        E 0 90 2a 60
        E 0 90 3d 60
        E 0 90 49 60
        E 0 90 4b 60
        E 0 90 55 60
        E 0 90 57 60
        E 0 90 61 60
        E 0 90 63 60
        E 80 80 1a 00
        E 0 80 2a 00
        E 0 80 3d 00
        E 0 80 49 00
        E 0 80 4b 00
        E 0 80 55 00
        E 0 80 57 00
        E 0 80 61 00
        E 0 80 63 00
        E 80 90 18 60
        E 0 90 2c 60
        E 0 90 60 60
        E 0 90 64 60
        E 80 80 18 00
        E 0 80 2c 00
        E 0 80 60 00
        E 0 80 64 00
        E 80 90 18 60
        E 0 90 1f 60
        E 0 90 60 60
        E 0 90 62 60
        E 80 80 18 00
        E 0 80 1f 00
        E 0 80 60 00
        E 0 80 62 00
        E 80 90 18 60
        E 0 90 2c 60
        E 0 90 40 60
        E 0 90 48 60
        E 0 90 4c 60
        E 0 90 54 60
        E 0 90 58 60
        E 0 90 60 60
        E 0 90 64 60
        E 80 80 18 00
        E 0 80 2c 00
        E 0 80 40 00
        E 0 80 48 00
        E 0 80 4c 00
        E 0 80 54 00
        E 0 80 58 00
        E 0 80 60 00
        E 0 80 64 00
        E 80 90 18 60
        E 0 90 2a 60
        E 0 90 60 60
        E 0 90 63 60
        E 80 80 18 00
        E 0 80 2a 00
        E 0 80 60 00
        E 0 80 63 00
        E 80 90 18 60
        E 0 90 2c 60
        E 0 90 60 60
        E 0 90 64 60
        E 80 80 18 00
        E 0 80 2c 00
        E 0 80 60 00
        E 0 80 64 00
        E 80 90 18 60
        E 0 90 1f 60
        E 0 90 3e 60
        E 0 90 48 60
        E 0 90 4a 60
        E 0 90 54 60
        E 0 90 56 60
        E 0 90 60 60
        E 0 90 62 60
        E 80 80 18 00
        E 0 80 1f 00
        E 0 80 3e 00
        E 0 80 48 00
        E 0 80 4a 00
        E 0 80 54 00
        E 0 80 56 00
        E 0 80 60 00
        E 0 80 62 00
        E 240 90 18 60
        E 0 90 60 60
        E 80 80 18 00
        E 0 80 60 00
        E 80 90 1a 60
        E 0 90 26 60
        E 0 90 3d 60
        E 0 90 49 60
        E 0 90 4c 60
        E 0 90 55 60
        E 0 90 58 60
        E 0 90 61 60
        E 0 90 64 60
        E 80 80 1a 00
        E 0 80 26 00
        E 0 80 3d 00
        E 0 80 49 00
        E 0 80 4c 00
        E 0 80 55 00
        E 0 80 58 00
        E 0 80 61 00
        E 0 80 64 00
        E 80 90 2e 60
        E 0 90 62 60
        E 0 90 6e 60
        E 80 80 2e 00
        E 0 80 62 00
        E 0 80 6e 00
        E 0 90 2f 60
        E 0 90 56 60
        E 0 90 62 60
        E 0 90 6e 60
        E 80 80 2f 00
        E 0 80 56 00
        E 0 80 62 00
        E 0 80 6e 00
        E 0 90 2e 60
        E 0 90 62 60
        E 0 90 6e 60
        E 80 80 2e 00
        E 0 80 62 00
        E 0 80 6e 00
        E 0 90 2f 60
        E 0 90 62 60
        E 0 90 6e 60
        E 80 80 2f 00
        E 0 80 62 00
        E 0 80 6e 00
        E 0 90 18 60
        E 0 90 2c 60
        E 0 90 40 60
        E 0 90 48 60
        E 0 90 4c 60
        E 0 90 54 60
        E 0 90 58 60
        E 0 90 60 60
        E 0 90 64 60
        E 80 80 18 00
        E 0 80 2c 00
        E 0 80 40 00
        E 0 80 48 00
        E 0 80 4c 00
        E 0 80 54 00
        E 0 80 58 00
        E 0 80 60 00
        E 0 80 64 00
        E 80 90 2f 60
        E 0 90 62 60
        E 0 90 6e 60
        E 80 80 2f 00
        E 0 80 62 00
        E 0 80 6e 00
        E 0 90 2e 60
        E 0 90 56 60
        E 0 90 62 60
        E 0 90 6e 60
        E 80 80 2e 00
        E 0 80 56 00
        E 0 80 62 00
        E 0 80 6e 00
        E 0 90 2f 60
        E 0 90 62 60
        E 0 90 6e 60
        E 80 80 2f 00
        E 0 80 62 00
        E 0 80 6e 00
        E 0 90 2e 60
        E 0 90 62 60
        E 0 90 6e 60
        E 80 80 2e 00
        E 0 80 62 00
        E 0 80 6e 00
        E 0 90 31 60
        E 0 90 3f 60
        E 0 90 4b 60
        E 0 90 57 60
        E 0 90 63 60
        E 0 90 6f 60
        E 80 80 31 00
        E 0 80 3f 00
        E 0 80 4b 00
        E 0 80 57 00
        E 0 80 63 00
        E 0 80 6f 00
        E 0 90 30 60
        E 0 90 63 60
        E 0 90 6f 60
        E 80 80 30 00
        E 0 80 63 00
        E 0 80 6f 00
        E 0 90 31 60
        E 0 90 63 60
        E 0 90 6f 60
        E 80 80 31 00
        E 0 80 63 00
        E 0 80 6f 00
        E 0 90 32 60
        E 0 90 58 60
        E 0 90 64 60
        E 0 90 70 60
        E 80 80 32 00
        E 0 80 58 00
        E 0 80 64 00
        E 0 80 70 00
        E 0 90 33 60
        E 0 90 64 60
        E 0 90 70 60
        E 80 80 33 00
        E 0 80 64 00
        E 0 80 70 00
        E 0 90 32 60
        E 0 90 64 60
        E 0 90 70 60
        E 80 80 32 00
        E 0 80 64 00
        E 0 80 70 00
        E 0 90 18 60
        E 0 90 26 60
        E 0 90 40 60
        E 0 90 48 60
        E 0 90 4c 60
        E 0 90 54 60
        E 0 90 58 60
        E 0 90 60 60
        E 0 90 64 60
        E 80 80 18 00
        E 0 80 26 00
        E 0 80 40 00
        E 0 80 48 00
        E 0 80 4c 00
        E 0 80 54 00
        E 0 80 58 00
        E 0 80 60 00
        E 0 80 64 00
        E 240 90 18 60
        E 0 90 60 60
        E 80 80 18 00
        E 0 80 60 00
        E 80 90 2a 60
        E 0 90 3f 60
        E 0 90 4b 60
        E 0 90 57 60
        E 0 90 63 60
        E 80 80 2a 00
        E 0 80 3f 00
        E 0 80 4b 00
        E 0 80 57 00
        E 0 80 63 00
        E 80 90 18 60
        E 0 90 60 60
        E 80 80 18 00
        E 0 80 60 00
        E 80 90 18 60
        E 0 90 60 60
        E 80 80 18 00
        E 0 80 60 00
        E 80 90 1a 60
        E 0 90 2a 60
        E 0 90 3d 60
        E 0 90 49 60
        E 0 90 4b 60
        E 0 90 55 60
        E 0 90 57 60
        E 0 90 61 60
        E 0 90 63 60
        E 80 80 1a 00
        E 0 80 2a 00
        E 0 80 3d 00
        E 0 80 49 00
        E 0 80 4b 00
        E 0 80 55 00
        E 0 80 57 00
        E 0 80 61 00
        E 0 80 63 00
        E 80 90 18 60
        E 0 90 26 60
        E 0 90 60 60
        E 0 90 64 60
        E 80 80 18 00
        E 0 80 26 00
        E 0 80 60 00
        E 0 80 64 00
        E 240 90 18 60
        E 0 90 26 60
        E 0 90 40 60
        E 0 90 48 60
        E 0 90 4c 60
        E 0 90 54 60
        E 0 90 58 60
        E 0 90 60 60
        E 0 90 64 60
        E 80 80 18 00
        E 0 80 26 00
        E 0 80 40 00
        E 0 80 48 00
        E 0 80 4c 00
        E 0 80 54 00
        E 0 80 58 00
        E 0 80 60 00
        E 0 80 64 00
        E 240 90 18 60
        E 0 90 60 60
        E 80 80 18 00
        E 0 80 60 00
        E 80 90 18 60
        E 0 90 2a 60
        E 0 90 3f 60
        E 0 90 48 60
        E 0 90 4b 60
        E 0 90 54 60
        E 0 90 57 60
        E 0 90 60 60
        E 0 90 63 60
        E 80 80 18 00
        E 0 80 2a 00
        E 0 80 3f 00
        E 0 80 48 00
        E 0 80 4b 00
        E 0 80 54 00
        E 0 80 57 00
        E 0 80 60 00
        E 0 80 63 00
        E 240 90 18 60
        E 0 90 60 60
        E 80 80 18 00
        E 0 80 60 00
        E 0 90 18 60
        E 0 90 60 60
        E 80 80 18 00
        E 0 80 60 00
        E 0 90 1a 60
        E 0 90 2a 60
        E 0 90 3d 60
        E 0 90 49 60
        E 0 90 4b 60
        E 0 90 55 60
        E 0 90 57 60
        E 0 90 61 60
        E 0 90 63 60
        E 80 80 1a 00
        E 0 80 2a 00
        E 0 80 3d 00
        E 0 80 49 00
        E 0 80 4b 00
        E 0 80 55 00
        E 0 80 57 00
        E 0 80 61 00
        E 0 80 63 00
        E 240 90 18 60
        E 0 90 60 60
        E 80 80 18 00
        E 0 80 60 00
        E 80 90 1a 60
        E 0 90 26 60
        E 0 90 3d 60
        E 0 90 49 60
        E 0 90 4c 60
        E 0 90 55 60
        E 0 90 58 60
        E 0 90 61 60
        E 0 90 64 60
        E 80 80 1a 00
        E 0 80 26 00
        E 0 80 3d 00
        E 0 80 49 00
        E 0 80 4c 00
        E 0 80 55 00
        E 0 80 58 00
        E 0 80 61 00
        E 0 80 64 00
        E 160 90 2f 60
        E 0 90 56 60
        E 0 90 62 60
        E 0 90 6e 60
        E 80 80 2f 00
        E 0 80 56 00
        E 0 80 62 00
        E 0 80 6e 00
        E 0 90 2e 60
        E 0 90 62 60
        E 0 90 6e 60
        E 80 80 2e 00
        E 0 80 62 00
        E 0 80 6e 00
        E 80 90 18 60
        E 0 90 2f 60
        E 0 90 3e 60
        E 0 90 4a 60
        E 0 90 54 60
        E 0 90 56 60
        E 0 90 60 60
        E 0 90 62 60
        E 0 90 6e 60
        E 80 80 18 00
        E 0 80 2f 00
        E 0 80 3e 00
        E 0 80 4a 00
        E 0 80 54 00
        E 0 80 56 00
        E 0 80 60 00
        E 0 80 62 00
        E 0 80 6e 00
        E 0 90 30 60
        E 0 90 63 60
        E 0 90 6f 60
        E 80 80 30 00
        E 0 80 63 00
        E 0 80 6f 00
        E 160 90 30 60
        E 0 90 63 60
        E 0 90 6f 60
        E 80 80 30 00
        E 0 80 63 00
        E 0 80 6f 00
        E 0 90 31 60
        E 0 90 63 60
        E 0 90 6f 60
        E 80 80 31 00
        E 0 80 63 00
        E 0 80 6f 00
        E 0 90 18 60
        E 0 90 2c 60
        E 0 90 40 60
        E 0 90 48 60
        E 0 90 4c 60
        E 0 90 54 60
        E 0 90 58 60
        E 0 90 60 60
        E 0 90 64 60
        E 0 90 74 60
        E 80 80 18 00
        E 0 80 2c 00
        E 0 80 40 00
        E 0 80 48 00
        E 0 80 4c 00
        E 0 80 54 00
        E 0 80 58 00
        E 0 80 60 00
        E 0 80 64 00
        E 400 90 18 60
        E 0 90 2a 60
        E 0 90 3f 60
        E 0 90 48 60
        E 0 90 4b 60
        E 0 90 54 60
        E 0 90 57 60
        E 0 90 60 60
        E 0 90 63 60
        E 80 80 18 00
        E 0 80 2a 00
        E 0 80 3f 00
        E 0 80 48 00
        E 0 80 4b 00
        E 0 80 54 00
        E 0 80 57 00
        E 0 80 60 00
        E 0 80 63 00
        E 240 90 18 60
        E 0 90 60 60
        E 80 80 18 00
        E 0 80 60 00
        E 0 90 18 60
        E 0 90 60 60
        E 80 80 18 00
        E 0 80 60 00
        E 0 90 1a 60
        E 0 90 2a 60
        E 0 90 3d 60
        E 0 90 49 60
        E 0 90 4b 60
        E 0 90 55 60
        E 0 90 57 60
        E 0 90 61 60
        E 0 90 63 60
        E 80 80 1a 00
        E 0 80 2a 00
        E 0 80 3d 00
        E 0 80 49 00
        E 0 80 4b 00
        E 0 80 55 00
        E 0 80 57 00
        E 0 80 61 00
        E 0 80 63 00
        E 80 90 18 60
        E 0 90 26 60
        E 0 90 60 60
        E 0 90 64 60
        E 80 80 18 00
        E 0 80 26 00
        E 0 80 60 00
        E 0 80 64 00
        E 240 90 18 60
        E 0 90 26 60
        E 0 90 40 60
        E 0 90 48 60
        E 0 90 4c 60
        E 0 90 54 60
        E 0 90 58 60
        E 0 90 60 60
        E 0 90 64 60
        E 80 80 18 00
        E 0 80 26 00
        E 0 80 40 00
        E 0 80 48 00
        E 0 80 4c 00
        E 0 80 54 00
        E 0 80 58 00
        E 0 80 60 00
        E 0 80 64 00
        E 240 90 18 60
        E 0 90 60 60
        E 80 80 18 00
        E 0 80 60 00
        E 80 90 18 60
        E 0 90 26 60
        E 0 90 40 60
        E 0 90 48 60
        E 0 90 4c 60
        E 0 90 54 60
        E 0 90 58 60
        E 0 90 60 60
        E 0 90 64 60
        E 80 80 18 00
        E 0 80 26 00
        E 0 80 40 00
        E 0 80 48 00
        E 0 80 4c 00
        E 0 80 54 00
        E 0 80 58 00
        E 0 80 60 00
        E 0 80 64 00
        E 400 90 18 60
        E 0 90 2a 60
        E 0 90 3f 60
        E 0 90 48 60
        E 0 90 4b 60
        E 0 90 54 60
        E 0 90 57 60
        E 0 90 60 60
        E 0 90 63 60
        E 80 80 18 00
        E 0 80 2a 00
        E 0 80 3f 00
        E 0 80 48 00
        E 0 80 4b 00
        E 0 80 54 00
        E 0 80 57 00
        E 0 80 60 00
        E 0 80 63 00
        E 240 90 18 60
        E 0 90 60 60
        E 80 80 18 00
        E 0 80 60 00
        E 0 90 18 60
        E 0 90 60 60
        E 80 80 18 00
        E 0 80 60 00
        E 0 90 1a 60
        E 0 90 2a 60
        E 0 90 3d 60
        E 0 90 49 60
        E 0 90 4b 60
        E 0 90 55 60
        E 0 90 57 60
        E 0 90 61 60
        E 0 90 63 60
        E 80 80 1a 00
        E 0 80 2a 00
        E 0 80 3d 00
        E 0 80 49 00
        E 0 80 4b 00
        E 0 80 55 00
        E 0 80 57 00
        E 0 80 61 00
        E 0 80 63 00
        E 80 90 2e 60
        E 0 90 62 60
        E 0 90 6e 60
        E 80 80 2e 00
        E 0 80 62 00
        E 0 80 6e 00
        E 0 90 2f 60
        E 0 90 56 60
        E 0 90 62 60
        E 0 90 6e 60
        E 80 80 2f 00
        E 0 80 56 00
        E 0 80 62 00
        E 0 80 6e 00
        E 0 90 2e 60
        E 0 90 62 60
        E 0 90 6e 60
        E 80 80 2e 00
        E 0 80 62 00
        E 0 80 6e 00
        E 0 90 2f 60
        E 0 90 62 60
        E 0 90 6e 60
        E 80 80 2f 00
        E 0 80 62 00
        E 0 80 6e 00
        E 0 90 30 60
        E 0 90 3f 60
        E 0 90 4b 60
        E 0 90 57 60
        E 0 90 63 60
        E 0 90 6f 60
        E 80 80 30 00
        E 0 80 3f 00
        E 0 80 4b 00
        E 0 80 57 00
        E 0 80 63 00
        E 0 80 6f 00
        E 0 90 31 60
        E 0 90 63 60
        E 0 90 6f 60
        E 80 80 31 00
        E 0 80 63 00
        E 0 80 6f 00
        E 0 90 30 60
        E 0 90 63 60
        E 0 90 6f 60
        E 80 80 30 00
        E 0 80 63 00
        E 0 80 6f 00
        E 0 90 33 60
        E 0 90 58 60
        E 0 90 64 60
        E 0 90 70 60
        E 80 80 33 00
        E 0 80 58 00
        E 0 80 64 00
        E 0 80 70 00
        E 0 90 32 60
        E 0 90 64 60
        E 0 90 70 60
        E 80 80 32 00
        E 0 80 64 00
        E 0 80 70 00
        E 0 90 33 60
        E 0 90 64 60
        E 0 90 70 60
        E 80 80 74 00
        E 0 80 33 00
        E 0 80 64 00
        E 0 80 70 00
        E 0 90 18 60
        E 0 90 2c 60
        E 0 90 40 60
        E 0 90 48 60
        E 0 90 4c 60
        E 0 90 54 60
        E 0 90 58 60
        E 0 90 60 60
        E 0 90 64 60
        E 80 80 18 00
        E 0 80 2c 00
        E 0 80 40 00
        E 0 80 48 00
        E 0 80 4c 00
        E 0 80 54 00
        E 0 80 58 00
        E 0 80 60 00
        E 0 80 64 00
        E 240 90 18 60
        E 0 90 60 60
        E 80 80 18 00
        E 0 80 60 00
        E 80 90 1a 60
        E 0 90 2a 60
        E 0 90 3d 60
        E 0 90 49 60
        E 0 90 4b 60
        E 0 90 55 60
        E 0 90 57 60
        E 0 90 61 60
        E 0 90 63 60
        E 80 80 1a 00
        E 0 80 2a 00
        E 0 80 3d 00
        E 0 80 49 00
        E 0 80 4b 00
        E 0 80 55 00
        E 0 80 57 00
        E 0 80 61 00
        E 0 80 63 00
        E 80 90 18 60
        E 0 90 60 60
        E 80 80 18 00
        E 0 80 60 00
        E 80 90 18 60
        E 0 90 60 60
        E 80 80 18 00
        E 0 80 60 00
        E 80 90 1a 60
        E 0 90 2a 60
        E 0 90 3d 60
        E 0 90 49 60
        E 0 90 4b 60
        E 0 90 55 60
        E 0 90 57 60
        E 0 90 61 60
        E 0 90 63 60
        E 80 80 1a 00
        E 0 80 2a 00
        E 0 80 3d 00
        E 0 80 49 00
        E 0 80 4b 00
        E 0 80 55 00
        E 0 80 57 00
        E 0 80 61 00
        E 0 80 63 00
        E 80 90 18 60
        E 0 90 60 60
        E 80 80 18 00
        E 0 80 60 00
        E 80 90 18 60
        E 0 90 60 60
        E 80 80 18 00
        E 0 80 60 00
        E 80 90 1a 60
        E 0 90 26 60
        E 0 90 3d 60
        E 0 90 49 60
        E 0 90 4c 60
        E 0 90 55 60
        E 0 90 58 60
        E 0 90 61 60
        E 0 90 64 60
        E 80 80 1a 00
        E 0 80 26 00
        E 0 80 3d 00
        E 0 80 49 00
        E 0 80 4c 00
        E 0 80 55 00
        E 0 80 58 00
        E 0 80 61 00
        E 0 80 64 00
        E 80 90 18 60
        E 0 90 60 60
        E 80 80 18 00
        E 0 80 60 00
        E 80 90 18 60
        E 0 90 60 60
        E 80 80 18 00
        E 0 80 60 00
        E 80 90 1a 60
        E 0 90 26 60
        E 0 90 3d 60
        E 0 90 49 60
        E 0 90 4c 60
        E 0 90 55 60
        E 0 90 58 60
        E 0 90 61 60
        E 0 90 64 60
        E 0 90 78 60
        E 0 90 79 60
        E 0 90 7a 60
        E 0 90 7b 60
        E 0 90 7c 60
        E 80 80 1a 00
        E 0 80 26 00
        E 0 80 3d 00
        E 0 80 49 00
        E 0 80 4c 00
        E 0 80 55 00
        E 0 80 58 00
        E 0 80 61 00
        E 0 80 64 00
        E 80 90 1a 60
        E 0 90 61 60
        E 80 80 1a 00
        E 0 80 61 00
        E 0 90 1b 60
        E 0 90 55 60
        E 0 90 61 60
        E 80 80 1b 00
        E 0 80 55 00
        E 0 80 61 00
        E 0 90 1a 60
        E 0 90 61 60
        E 80 80 1a 00
        E 0 80 61 00
        E 0 90 1b 60
        E 0 90 61 60
        E 80 80 1b 00
        E 0 80 61 00
        E 0 90 1a 60
        E 0 90 3d 60
        E 0 90 49 60
        E 0 90 55 60
        E 0 90 61 60
        E 80 80 1a 00
        E 0 80 3d 00
        E 0 80 49 00
        E 0 80 55 00
        E 0 80 61 00
        E 0 90 1b 60
        E 0 90 61 60
        E 80 80 1b 00
        E 0 80 61 00
        E 0 90 2e 60
        E 0 90 62 60
        E 0 90 6e 60
        E 80 80 2e 00
        E 0 80 62 00
        E 0 80 6e 00
        E 0 90 2f 60
        E 0 90 56 60
        E 0 90 62 60
        E 0 90 6e 60
        E 80 80 2f 00
        E 0 80 56 00
        E 0 80 62 00
        E 0 80 6e 00
        E 0 90 2e 60
        E 0 90 62 60
        E 0 90 6e 60
        E 80 80 2e 00
        E 0 80 62 00
        E 0 80 6e 00
        E 0 90 2f 60
        E 0 90 62 60
        E 0 90 6e 60
        E 80 80 2f 00
        E 0 80 62 00
        E 0 80 6e 00
        E 0 90 18 60
        E 0 90 1a 60
        E 0 90 3d 60
        E 0 90 49 60
        E 0 90 54 60
        E 0 90 55 60
        E 0 90 60 60
        E 0 90 61 60
        E 80 80 18 00
        E 0 80 1a 00
        E 0 80 3d 00
        E 0 80 49 00
        E 0 80 54 00
        E 0 80 55 00
        E 0 80 60 00
        E 0 80 61 00
        E 0 90 1b 60
        E 0 90 61 60
        E 80 80 1b 00
        E 0 80 61 00
        E 0 90 1a 60
        E 0 90 61 60
        E 80 80 1a 00
        E 0 80 61 00
        E 0 90 1b 60
        E 0 90 55 60
        E 0 90 61 60
        E 80 80 1b 00
        E 0 80 55 00
        E 0 80 61 00
        E 0 90 1a 60
        E 0 90 61 60
        E 80 80 1a 00
        E 0 80 61 00
        E 0 90 1b 60
        E 0 90 61 60
        E 80 80 1b 00
        E 0 80 61 00
        E 0 90 18 60
        E 0 90 1a 60
        E 0 90 3d 60
        E 0 90 49 60
        E 0 90 54 60
        E 0 90 55 60
        E 0 90 60 60
        E 0 90 61 60
        E 80 80 18 00
        E 0 80 1a 00
        E 0 80 3d 00
        E 0 80 49 00
        E 0 80 54 00
        E 0 80 55 00
        E 0 80 60 00
        E 0 80 61 00
        E 0 90 1b 60
        E 0 90 61 60
        E 80 80 1b 00
        E 0 80 61 00
        E 0 90 1a 60
        E 0 90 61 60
        E 80 80 1a 00
        E 0 80 61 00
        E 0 90 1b 60
        E 0 90 55 60
        E 0 90 61 60
        E 80 80 1b 00
        E 0 80 55 00
        E 0 80 61 00
        E 0 90 1a 60
        E 0 90 61 60
        E 80 80 1a 00
        E 0 80 61 00
        E 0 90 1b 60
        E 0 90 61 60
        E 80 80 78 00
        E 0 80 79 00
        E 0 80 7a 00
        E 0 80 7b 00
        E 0 80 7c 00
        E 0 80 1b 00
        E 0 80 61 00
        E 0 90 18 60
        E 0 90 2c 60
        E 0 90 40 60
        E 0 90 48 60
        E 0 90 4c 60
        E 0 90 54 60
        E 0 90 58 60
        E 0 90 60 60
        E 0 90 64 60
        E 80 80 18 00
        E 0 80 2c 00
        E 0 80 40 00
        E 0 80 48 00
        E 0 80 4c 00
        E 0 80 54 00
        E 0 80 58 00
        E 0 80 60 00
        E 0 80 64 00
        E 80 90 18 60
        E 0 90 1f 60
        E 0 90 60 60
        E 0 90 62 60
        E 80 80 18 00
        E 0 80 1f 00
        E 0 80 60 00
        E 0 80 62 00
        E 80 90 18 60
        E 0 90 1e 60
        E 0 90 60 60
        E 0 90 62 60
        E 80 80 18 00
        E 0 80 1e 00
        E 0 80 60 00
        E 0 80 62 00
        E 0 90 18 60
        E 0 90 60 60
        E 80 80 18 00
        E 0 80 60 00
        E 0 90 1a 60
        E 0 90 1f 60
        E 0 90 3d 60
        E 0 90 49 60
        E 0 90 4a 60
        E 0 90 55 60
        E 0 90 56 60
        E 0 90 61 60
        E 0 90 62 60
        E 80 80 1a 00
        E 0 80 1f 00
        E 0 80 3d 00
        E 0 80 49 00
        E 0 80 4a 00
        E 0 80 55 00
        E 0 80 56 00
        E 0 80 61 00
        E 0 80 62 00
        E 80 90 1e 60
        E 0 90 62 60
        E 80 80 1e 00
        E 0 80 62 00
        E 80 90 18 60
        E 0 90 1f 60
        E 0 90 60 60
        E 0 90 62 60
        E 80 80 18 00
        E 0 80 1f 00
        E 0 80 60 00
        E 0 80 62 00
        E 80 90 18 60
        E 0 90 1e 60
        E 0 90 3e 60
        E 0 90 48 60
        E 0 90 4a 60
        E 0 90 54 60
        E 0 90 56 60
        E 0 90 60 60
        E 0 90 62 60
        E 80 80 18 00
        E 0 80 1e 00
        E 0 80 3e 00
        E 0 80 48 00
        E 0 80 4a 00
        E 0 80 54 00
        E 0 80 56 00
        E 0 80 60 00
        E 0 80 62 00
        E 80 90 18 60
        E 0 90 1f 60
        E 0 90 60 60
        E 0 90 62 60
        E 80 80 18 00
        E 0 80 1f 00
        E 0 80 60 00
        E 0 80 62 00
        E 80 90 18 60
        E 0 90 1e 60
        E 0 90 60 60
        E 0 90 62 60
        E 80 80 18 00
        E 0 80 1e 00
        E 0 80 60 00
        E 0 80 62 00
        E 0 90 18 60
        E 0 90 60 60
        E 80 80 18 00
        E 0 80 60 00
        E 0 90 1a 60
        E 0 90 1f 60
        E 0 90 3d 60
        E 0 90 49 60
        E 0 90 4a 60
        E 0 90 55 60
        E 0 90 56 60
        E 0 90 61 60
        E 0 90 62 60
        E 80 80 1a 00
        E 0 80 1f 00
        E 0 80 3d 00
        E 0 80 49 00
        E 0 80 4a 00
        E 0 80 55 00
        E 0 80 56 00
        E 0 80 61 00
        E 0 80 62 00
        E 80 90 1e 60
        E 0 90 62 60
        E 80 80 1e 00
        E 0 80 62 00
        E 80 90 18 60
        E 0 90 1f 60
        E 0 90 60 60
        E 0 90 62 60
        E 80 80 18 00
        E 0 80 1f 00
        E 0 80 60 00
        E 0 80 62 00
        E 80 90 18 60
        E 0 90 1e 60
        E 0 90 3e 60
        E 0 90 48 60
        E 0 90 4a 60
        E 0 90 54 60
        E 0 90 56 60
        E 0 90 60 60
        E 0 90 62 60
        E 80 80 18 00
        E 0 80 1e 00
        E 0 80 3e 00
        E 0 80 48 00
        E 0 80 4a 00
        E 0 80 54 00
        E 0 80 56 00
        E 0 80 60 00
        E 0 80 62 00
        E 80 90 18 60
        E 0 90 1f 60
        E 0 90 60 60
        E 0 90 62 60
        E 80 80 18 00
        E 0 80 1f 00
        E 0 80 60 00
        E 0 80 62 00
        E 80 90 18 60
        E 0 90 1e 60
        E 0 90 60 60
        E 0 90 62 60
        E 80 80 18 00
        E 0 80 1e 00
        E 0 80 60 00
        E 0 80 62 00
        E 0 90 18 60
        E 0 90 60 60
        E 80 80 18 00
        E 0 80 60 00
        E 0 90 1a 60
        E 0 90 1f 60
        E 0 90 3d 60
        E 0 90 49 60
        E 0 90 4a 60
        E 0 90 55 60
        E 0 90 56 60
        E 0 90 61 60
        E 0 90 62 60
        E 80 80 1a 00
        E 0 80 1f 00
        E 0 80 3d 00
        E 0 80 49 00
        E 0 80 4a 00
        E 0 80 55 00
        E 0 80 56 00
        E 0 80 61 00
        E 0 80 62 00
        E 80 90 1e 60
        E 0 90 62 60
        E 80 80 1e 00
        E 0 80 62 00
        E 80 90 18 60
        E 0 90 1f 60
        E 0 90 60 60
        E 0 90 62 60
        E 80 80 18 00
        E 0 80 1f 00
        E 0 80 60 00
        E 0 80 62 00
        E 80 90 18 60
        E 0 90 1e 60
        E 0 90 3e 60
        E 0 90 48 60
        E 0 90 4a 60
        E 0 90 54 60
        E 0 90 56 60
        E 0 90 60 60
        E 0 90 62 60
        E 80 80 18 00
        E 0 80 1e 00
        E 0 80 3e 00
        E 0 80 48 00
        E 0 80 4a 00
        E 0 80 54 00
        E 0 80 56 00
        E 0 80 60 00
        E 0 80 62 00
        E 80 90 18 60
        E 0 90 1f 60
        E 0 90 60 60
        E 0 90 62 60
        E 80 80 18 00
        E 0 80 1f 00
        E 0 80 60 00
        E 0 80 62 00
        E 80 90 18 60
        E 0 90 1e 60
        E 0 90 60 60
        E 0 90 62 60
        E 80 80 18 00
        E 0 80 1e 00
        E 0 80 60 00
        E 0 80 62 00
        E 80 90 1a 60
        E 0 90 1f 60
        E 0 90 3d 60
        E 0 90 49 60
        E 0 90 4a 60
        E 0 90 55 60
        E 0 90 56 60
        E 0 90 61 60
        E 0 90 62 60
        E 80 80 1a 00
        E 0 80 1f 00
        E 0 80 3d 00
        E 0 80 49 00
        E 0 80 4a 00
        E 0 80 55 00
        E 0 80 56 00
        E 0 80 61 00
        E 0 80 62 00
        E 80 90 1a 60
        E 0 90 61 60
        E 80 80 1a 00
        E 0 80 61 00
        E 0 90 1b 60
        E 0 90 55 60
        E 0 90 61 60
        E 80 80 1b 00
        E 0 80 55 00
        E 0 80 61 00
        E 0 90 1a 60
        E 0 90 61 60
        E 80 80 1a 00
        E 0 80 61 00
        E 0 90 1b 60
        E 0 90 61 60
        E 80 80 1b 00
        E 0 80 61 00
        E 0 90 18 60
        E 0 90 2c 60
        E 0 90 40 60
        E 0 90 48 60
        E 0 90 4c 60
        E 0 90 54 60
        E 0 90 58 60
        E 0 90 60 60
        E 0 90 64 60
        E 80 80 18 00
        E 0 80 2c 00
        E 0 80 40 00
        E 0 80 48 00
        E 0 80 4c 00
        E 0 80 54 00
        E 0 80 58 00
        E 0 80 60 00
        E 0 80 64 00
        E 80 90 18 60
        E 0 90 1f 60
        E 0 90 60 60
        E 0 90 62 60
        E 80 80 18 00
        E 0 80 1f 00
        E 0 80 60 00
        E 0 80 62 00
        E 80 90 18 60
        E 0 90 1e 60
        E 0 90 60 60
        E 0 90 62 60
        E 80 80 18 00
        E 0 80 1e 00
        E 0 80 60 00
        E 0 80 62 00
        E 0 90 18 60
        E 0 90 60 60
        E 80 80 18 00
        E 0 80 60 00
        E 0 90 1a 60
        E 0 90 1f 60
        E 0 90 3d 60
        E 0 90 49 60
        E 0 90 4a 60
        E 0 90 55 60
        E 0 90 56 60
        E 0 90 61 60
        E 0 90 62 60
        E 80 80 1a 00
        E 0 80 1f 00
        E 0 80 3d 00
        E 0 80 49 00
        E 0 80 4a 00
        E 0 80 55 00
        E 0 80 56 00
        E 0 80 61 00
        E 0 80 62 00
        E 80 90 1e 60
        E 0 90 62 60
        E 80 80 1e 00
        E 0 80 62 00
        E 80 90 18 60
        E 0 90 1f 60
        E 0 90 60 60
        E 0 90 62 60
        E 80 80 18 00
        E 0 80 1f 00
        E 0 80 60 00
        E 0 80 62 00
        E 80 90 18 60
        E 0 90 1e 60
        E 0 90 3e 60
        E 0 90 48 60
        E 0 90 4a 60
        E 0 90 54 60
        E 0 90 56 60
        E 0 90 60 60
        E 0 90 62 60
        E 80 80 18 00
        E 0 80 1e 00
        E 0 80 3e 00
        E 0 80 48 00
        E 0 80 4a 00
        E 0 80 54 00
        E 0 80 56 00
        E 0 80 60 00
        E 0 80 62 00
        E 80 90 18 60
        E 0 90 1f 60
        E 0 90 60 60
        E 0 90 62 60
        E 80 80 18 00
        E 0 80 1f 00
        E 0 80 60 00
        E 0 80 62 00
        E 80 90 1e 60
        E 0 90 62 60
        E 80 80 1e 00
        E 0 80 62 00
        E 0 90 18 60
        E 0 90 60 60
        E 80 80 18 00
        E 0 80 60 00
        E 0 90 1a 60
        E 0 90 1f 60
        E 0 90 3d 60
        E 0 90 49 60
        E 0 90 4a 60
        E 0 90 55 60
        E 0 90 56 60
        E 0 90 61 60
        E 0 90 62 60
        E 80 80 1a 00
        E 0 80 1f 00
        E 0 80 3d 00
        E 0 80 49 00
        E 0 80 4a 00
        E 0 80 55 00
        E 0 80 56 00
        E 0 80 61 00
        E 0 80 62 00
        E 80 90 1e 60
        E 0 90 62 60
        E 80 80 1e 00
        E 0 80 62 00
        E 80 90 18 60
        E 0 90 1f 60
        E 0 90 60 60
        E 0 90 62 60
        E 80 80 18 00
        E 0 80 1f 00
        E 0 80 60 00
        E 0 80 62 00
        E 80 90 18 60
        E 0 90 1e 60
        E 0 90 3e 60
        E 0 90 48 60
        E 0 90 4a 60
        E 0 90 54 60
        E 0 90 56 60
        E 0 90 60 60
        E 0 90 62 60
        E 80 80 18 00
        E 0 80 1e 00
        E 0 80 3e 00
        E 0 80 48 00
        E 0 80 4a 00
        E 0 80 54 00
        E 0 80 56 00
        E 0 80 60 00
        E 0 80 62 00
        E 80 90 18 60
        E 0 90 1f 60
        E 0 90 60 60
        E 0 90 62 60
        E 80 80 18 00
        E 0 80 1f 00
        E 0 80 60 00
        E 0 80 62 00
        E 80 90 1e 60
        E 0 90 62 60
        E 80 80 1e 00
        E 0 80 62 00
        E 0 90 18 60
        E 0 90 60 60
        E 80 80 18 00
        E 0 80 60 00
        E 0 90 1a 60
        E 0 90 1f 60
        E 0 90 3d 60
        E 0 90 49 60
        E 0 90 4a 60
        E 0 90 55 60
        E 0 90 56 60
        E 0 90 61 60
        E 0 90 62 60
        E 80 80 1a 00
        E 0 80 1f 00
        E 0 80 3d 00
        E 0 80 49 00
        E 0 80 4a 00
        E 0 80 55 00
        E 0 80 56 00
        E 0 80 61 00
        E 0 80 62 00
        E 80 90 1e 60
        E 0 90 62 60
        E 80 80 1e 00
        E 0 80 62 00
        E 80 90 18 60
        E 0 90 1f 60
        E 0 90 60 60
        E 0 90 62 60
        E 80 80 18 00
        E 0 80 1f 00
        E 0 80 60 00
        E 0 80 62 00
        E 80 90 18 60
        E 0 90 1e 60
        E 0 90 3e 60
        E 0 90 48 60
        E 0 90 4a 60
        E 0 90 54 60
        E 0 90 56 60
        E 0 90 60 60
        E 0 90 62 60
        E 0 90 78 60
        E 0 90 79 60
        E 0 90 7a 60
        E 0 90 7b 60
        E 0 90 7c 60
        E 80 80 18 00
        E 0 80 1e 00
        E 0 80 3e 00
        E 0 80 48 00
        E 0 80 4a 00
        E 0 80 54 00
        E 0 80 56 00
        E 0 80 60 00
        E 0 80 62 00
        E 80 90 1b 60
        E 0 90 61 60
        E 80 80 1b 00
        E 0 80 61 00
        E 0 90 1a 60
        E 0 90 55 60
        E 0 90 61 60
        E 80 80 1a 00
        E 0 80 55 00
        E 0 80 61 00
        E 0 90 1b 60
        E 0 90 61 60
        E 80 80 1b 00
        E 0 80 61 00
        E 0 90 1a 60
        E 0 90 61 60
        E 80 80 1a 00
        E 0 80 61 00
        E 0 90 1b 60
        E 0 90 3d 60
        E 0 90 49 60
        E 0 90 55 60
        E 0 90 61 60
        E 80 80 1b 00
        E 0 80 3d 00
        E 0 80 49 00
        E 0 80 55 00
        E 0 80 61 00
        E 0 90 1a 60
        E 0 90 61 60
        E 80 80 1a 00
        E 0 80 61 00
        E 0 90 1b 60
        E 0 90 61 60
        E 80 80 1b 00
        E 0 80 61 00
        E 0 90 1a 60
        E 0 90 55 60
        E 0 90 61 60
        E 80 80 1a 00
        E 0 80 55 00
        E 0 80 61 00
        E 0 90 1b 60
        E 0 90 61 60
        E 80 80 1b 00
        E 0 80 61 00
        E 0 90 1a 60
        E 0 90 61 60
        E 80 80 1a 00
        E 0 80 61 00
        E 0 90 18 60
        E 0 90 26 60
        E 0 90 40 60
        E 0 90 48 60
        E 0 90 4c 60
        E 0 90 54 60
        E 0 90 58 60
        E 0 90 60 60
        E 0 90 64 60
        E 1 80 78 00
        E 0 80 79 00
        E 0 80 7a 00
        E 0 80 7b 00
        E 0 80 7c 00
        E 79 80 18 00
        E 0 80 26 00
        E 0 80 40 00
        E 0 80 48 00
        E 0 80 4c 00
        E 0 80 54 00
        E 0 80 58 00
        E 0 80 60 00
        E 0 80 64 00
        E 80 90 18 60
        E 0 90 1a 60
        E 0 90 60 60
        E 0 90 61 60
        E 0 90 7e 60
        E 80 80 18 00
        E 0 80 1a 00
        E 0 80 60 00
        E 0 80 61 00
        E 0 90 1b 60
        E 0 90 55 60
        E 0 90 61 60
        E 80 80 1b 00
        E 0 80 55 00
        E 0 80 61 00
        E 0 90 18 60
        E 0 90 1a 60
        E 0 90 60 60
        E 0 90 61 60
        E 80 80 18 00
        E 0 80 1a 00
        E 0 80 60 00
        E 0 80 61 00
        E 0 90 1b 60
        E 0 90 61 60
        E 80 80 1b 00
        E 0 80 61 00
        E 0 90 18 60
        E 0 90 1a 60
        E 0 90 3d 60
        E 0 90 49 60
        E 0 90 54 60
        E 0 90 55 60
        E 0 90 60 60
        E 0 90 61 60
        E 80 80 18 00
        E 0 80 1a 00
        E 0 80 3d 00
        E 0 80 49 00
        E 0 80 54 00
        E 0 80 55 00
        E 0 80 60 00
        E 0 80 61 00
        E 0 90 1b 60
        E 0 90 61 60
        E 80 80 1b 00
        E 0 80 61 00
        E 0 90 18 60
        E 0 90 1a 60
        E 0 90 60 60
        E 0 90 61 60
        E 80 80 18 00
        E 0 80 1a 00
        E 0 80 60 00
        E 0 80 61 00
        E 0 90 1b 60
        E 0 90 55 60
        E 0 90 61 60
        E 80 80 1b 00
        E 0 80 55 00
        E 0 80 61 00
        E 0 90 18 60
        E 0 90 1a 60
        E 0 90 60 60
        E 0 90 61 60
        E 80 80 18 00
        E 0 80 1a 00
        E 0 80 60 00
        E 0 80 61 00
        E 0 90 1b 60
        E 0 90 61 60
        E 80 80 1b 00
        E 0 80 61 00
        E 0 90 18 60
        E 0 90 1a 60
        E 0 90 3d 60
        E 0 90 49 60
        E 0 90 54 60
        E 0 90 55 60
        E 0 90 60 60
        E 0 90 61 60
        E 80 80 18 00
        E 0 80 1a 00
        E 0 80 3d 00
        E 0 80 49 00
        E 0 80 54 00
        E 0 80 55 00
        E 0 80 60 00
        E 0 80 61 00
        E 0 90 1b 60
        E 0 90 61 60
        E 80 80 1b 00
        E 0 80 61 00
        E 0 90 18 60
        E 0 90 1a 60
        E 0 90 60 60
        E 0 90 61 60
        E 80 80 18 00
        E 0 80 1a 00
        E 0 80 60 00
        E 0 80 61 00
        E 0 90 1b 60
        E 0 90 55 60
        E 0 90 61 60
        E 80 80 1b 00
        E 0 80 55 00
        E 0 80 61 00
        E 0 90 18 60
        E 0 90 1a 60
        E 0 90 60 60
        E 0 90 61 60
        E 80 80 18 00
        E 0 80 1a 00
        E 0 80 60 00
        E 0 80 61 00
        E 0 90 1b 60
        E 0 90 61 60
        E 80 80 1b 00
        E 0 80 61 00
        E 0 90 18 60
        E 0 90 1a 60
        E 0 90 3d 60
        E 0 90 49 60
        E 0 90 54 60
        E 0 90 55 60
        E 0 90 60 60
        E 0 90 61 60
        E 80 80 18 00
        E 0 80 1a 00
        E 0 80 3d 00
        E 0 80 49 00
        E 0 80 54 00
        E 0 80 55 00
        E 0 80 60 00
        E 0 80 61 00
        E 0 90 1b 60
        E 0 90 61 60
        E 80 80 1b 00
        E 0 80 61 00
        E 0 90 18 60
        E 0 90 1a 60
        E 0 90 60 60
        E 0 90 61 60
        E 80 80 18 00
        E 0 80 1a 00
        E 0 80 60 00
        E 0 80 61 00
        E 0 90 1b 60
        E 0 90 55 60
        E 0 90 61 60
        E 80 80 1b 00
        E 0 80 55 00
        E 0 80 61 00
        E 0 90 18 60
        E 0 90 1a 60
        E 0 90 60 60
        E 0 90 61 60
        E 80 80 18 00
        E 0 80 1a 00
        E 0 80 60 00
        E 0 80 61 00
        E 0 90 1b 60
        E 0 90 61 60
        E 80 80 1b 00
        E 0 80 61 00
        E 0 90 18 60
        E 0 90 1a 60
        E 0 90 3d 60
        E 0 90 49 60
        E 0 90 54 60
        E 0 90 55 60
        E 0 90 60 60
        E 0 90 61 60
        E 80 80 18 00
        E 0 80 1a 00
        E 0 80 3d 00
        E 0 80 49 00
        E 0 80 54 00
        E 0 80 55 00
        E 0 80 60 00
        E 0 80 61 00
        E 0 90 1b 60
        E 0 90 61 60
        E 80 80 1b 00
        E 0 80 61 00
        E 0 90 18 60
        E 0 90 1a 60
        E 0 90 60 60
        E 0 90 61 60
        E 80 80 18 00
        E 0 80 1a 00
        E 0 80 60 00
        E 0 80 61 00
        E 0 90 1b 60
        E 0 90 55 60
        E 0 90 61 60
        E 80 80 1b 00
        E 0 80 55 00
        E 0 80 61 00
        E 0 90 18 60
        E 0 90 1a 60
        E 0 90 60 60
        E 0 90 61 60
        E 80 80 18 00
        E 0 80 1a 00
        E 0 80 60 00
        E 0 80 61 00
        E 0 90 1b 60
        E 0 90 61 60
        E 80 80 1b 00
        E 0 80 61 00
        E 0 90 18 60
        E 0 90 1a 60
        E 0 90 3d 60
        E 0 90 49 60
        E 0 90 54 60
        E 0 90 55 60
        E 0 90 60 60
        E 0 90 61 60
        E 80 80 18 00
        E 0 80 1a 00
        E 0 80 3d 00
        E 0 80 49 00
        E 0 80 54 00
        E 0 80 55 00
        E 0 80 60 00
        E 0 80 61 00
        E 0 90 1b 60
        E 0 90 61 60
        E 80 80 1b 00
        E 0 80 61 00
        E 0 90 18 60
        E 0 90 1a 60
        E 0 90 60 60
        E 0 90 61 60
        E 80 80 18 00
        E 0 80 1a 00
        E 0 80 60 00
        E 0 80 61 00
        E 0 90 1b 60
        E 0 90 55 60
        E 0 90 61 60
        E 80 80 1b 00
        E 0 80 55 00
        E 0 80 61 00
        E 0 90 18 60
        E 0 90 1a 60
        E 0 90 60 60
        E 0 90 61 60
        E 80 80 18 00
        E 0 80 1a 00
        E 0 80 60 00
        E 0 80 61 00
        E 0 90 1b 60
        E 0 90 61 60
        E 80 80 1b 00
        E 0 80 61 00
        E 0 90 18 60
        E 0 90 1a 60
        E 0 90 3d 60
        E 0 90 49 60
        E 0 90 54 60
        E 0 90 55 60
        E 0 90 60 60
        E 0 90 61 60
        E 80 80 18 00
        E 0 80 1a 00
        E 0 80 3d 00
        E 0 80 49 00
        E 0 80 54 00
        E 0 80 55 00
        E 0 80 60 00
        E 0 80 61 00
        E 0 90 1b 60
        E 0 90 61 60
        E 80 80 1b 00
        E 0 80 61 00
        E 0 90 18 60
        E 0 90 1a 60
        E 0 90 60 60
        E 0 90 61 60
        E 80 80 18 00
        E 0 80 1a 00
        E 0 80 60 00
        E 0 80 61 00
        E 0 90 1b 60
        E 0 90 55 60
        E 0 90 61 60
        E 80 80 1b 00
        E 0 80 55 00
        E 0 80 61 00
        E 0 90 18 60
        E 0 90 1a 60
        E 0 90 60 60
        E 0 90 61 60
        E 80 80 18 00
        E 0 80 1a 00
        E 0 80 60 00
        E 0 80 61 00
        E 0 90 1b 60
        E 0 90 61 60
        E 80 80 1b 00
        E 0 80 61 00
        E 0 90 18 60
        E 0 90 1a 60
        E 0 90 3d 60
        E 0 90 49 60
        E 0 90 54 60
        E 0 90 55 60
        E 0 90 60 60
        E 0 90 61 60
        E 80 80 18 00
        E 0 80 1a 00
        E 0 80 3d 00
        E 0 80 49 00
        E 0 80 54 00
        E 0 80 55 00
        E 0 80 60 00
        E 0 80 61 00
        E 0 90 1b 60
        E 0 90 61 60
        E 80 80 1b 00
        E 0 80 61 00
        E 0 90 18 60
        E 0 90 1a 60
        E 0 90 60 60
        E 0 90 61 60
        E 80 80 18 00
        E 0 80 1a 00
        E 0 80 60 00
        E 0 80 61 00
        E 0 90 1b 60
        E 0 90 55 60
        E 0 90 61 60
        E 80 80 1b 00
        E 0 80 55 00
        E 0 80 61 00
        E 0 90 18 60
        E 0 90 1a 60
        E 0 90 60 60
        E 0 90 61 60
        E 80 80 18 00
        E 0 80 1a 00
        E 0 80 60 00
        E 0 80 61 00
        E 0 90 1b 60
        E 0 90 61 60
        E 80 80 7e 00
        E 0 80 1b 00
        E 0 80 61 00
        E 0 90 18 60
        E 0 90 2e 60
        E 0 90 3e 60
        E 0 90 4a 60
        E 0 90 54 60
        E 0 90 56 60
        E 0 90 60 60
        E 0 90 62 60
        E 0 90 6e 60
        E 80 80 18 00
        E 0 80 2e 00
        E 0 80 3e 00
        E 0 80 4a 00
        E 0 80 54 00
        E 0 80 56 00
        E 0 80 60 00
        E 0 80 62 00
        E 0 80 6e 00
        E 0 90 1b 60
        E 0 90 61 60
        E 80 80 1b 00
        E 0 80 61 00
        E 0 90 1a 60
        E 0 90 61 60
        E 80 80 1a 00
        E 0 80 61 00
        E 0 90 1b 60
        E 0 90 55 60
        E 0 90 61 60
        E 80 80 1b 00
        E 0 80 55 00
        E 0 80 61 00
        E 0 90 1a 60
        E 0 90 61 60
        E 80 80 1a 00
        E 0 80 61 00
        E 0 90 1b 60
        E 0 90 61 60
        E 80 80 1b 00
        E 0 80 61 00
        E 0 90 2e 60
        E 0 90 3e 60
        E 0 90 4a 60
        E 0 90 56 60
        E 0 90 62 60
        E 0 90 6e 60
        E 80 80 2e 00
        E 0 80 3e 00
        E 0 80 4a 00
        E 0 80 56 00
        E 0 80 62 00
        E 0 80 6e 00
        E 0 90 1b 60
        E 0 90 61 60
        E 80 80 1b 00
        E 0 80 61 00
        E 0 90 1a 60
        E 0 90 61 60
        E 80 80 1a 00
        E 0 80 61 00
        E 0 90 1b 60
        E 0 90 55 60
        E 0 90 61 60
        E 80 80 1b 00
        E 0 80 55 00
        E 0 80 61 00
        E 0 90 1a 60
        E 0 90 61 60
        E 80 80 1a 00
        E 0 80 61 00
        E 0 90 1b 60
        E 0 90 61 60
        E 80 80 1b 00
        E 0 80 61 00
        E 0 90 2e 60
        E 0 90 3e 60
        E 0 90 4a 60
        E 0 90 56 60
        E 0 90 62 60
        E 0 90 6e 60
        E 80 80 2e 00
        E 0 80 3e 00
        E 0 80 4a 00
        E 0 80 56 00
        E 0 80 62 00
        E 0 80 6e 00
        E 0 90 1b 60
        E 0 90 61 60
        E 80 80 1b 00
        E 0 80 61 00
        E 0 90 1a 60
        E 0 90 61 60
        E 80 80 1a 00
        E 0 80 61 00
        E 0 90 1b 60
        E 0 90 55 60
        E 0 90 61 60
        E 80 80 1b 00
        E 0 80 55 00
        E 0 80 61 00
        E 0 90 1a 60
        E 0 90 61 60
        E 80 80 1a 00
        E 0 80 61 00
        E 0 90 1b 60
        E 0 90 61 60
        E 80 80 1b 00
        E 0 80 61 00
        E 0 90 2e 60
        E 0 90 3e 60
        E 0 90 4a 60
        E 0 90 56 60
        E 0 90 62 60
        E 0 90 6e 60
        E 80 80 2e 00
        E 0 80 3e 00
        E 0 80 4a 00
        E 0 80 56 00
        E 0 80 62 00
        E 0 80 6e 00
        E 0 90 1b 60
        E 0 90 61 60
        E 80 80 1b 00
        E 0 80 61 00
        E 0 90 1a 60
        E 0 90 61 60
        E 80 80 1a 00
        E 0 80 61 00
        E 0 90 1b 60
        E 0 90 55 60
        E 0 90 61 60
        E 80 80 1b 00
        E 0 80 55 00
        E 0 80 61 00
        E 0 90 1a 60
        E 0 90 61 60
        E 80 80 1a 00
        E 0 80 61 00
        E 0 90 1b 60
        E 0 90 61 60
        E 80 80 1b 00
        E 0 80 61 00
        E 0 90 1a 60
        E 0 90 3d 60
        E 0 90 49 60
        E 0 90 55 60
        E 0 90 61 60
        E 80 80 1a 00
        E 0 80 3d 00
        E 0 80 49 00
        E 0 80 55 00
        E 0 80 61 00
        E 0 90 1b 60
        E 0 90 61 60
        E 80 80 1b 00
        E 0 80 61 00
        E 0 90 2e 60
        E 0 90 62 60
        E 0 90 6e 60
        E 80 80 2e 00
        E 0 80 62 00
        E 0 80 6e 00
        E 0 90 2f 60
        E 0 90 56 60
        E 0 90 62 60
        E 0 90 6e 60
        E 80 80 2f 00
        E 0 80 56 00
        E 0 80 62 00
        E 0 80 6e 00
        E 0 90 2e 60
        E 0 90 62 60
        E 0 90 6e 60
        E 80 80 2e 00
        E 0 80 62 00
        E 0 80 6e 00
        E 0 90 2f 60
        E 0 90 62 60
        E 0 90 6e 60
        E 80 80 2f 00
        E 0 80 62 00
        E 0 80 6e 00
        E 0 90 1a 60
        E 0 90 3d 60
        E 0 90 49 60
        E 0 90 55 60
        E 0 90 61 60
        E 80 80 1a 00
        E 0 80 3d 00
        E 0 80 49 00
        E 0 80 55 00
        E 0 80 61 00
        E 0 90 1b 60
        E 0 90 61 60
        E 80 80 1b 00
        E 0 80 61 00
        E 0 90 2e 60
        E 0 90 62 60
        E 0 90 6e 60
        E 80 80 2e 00
        E 0 80 62 00
        E 0 80 6e 00
        E 0 90 2f 60
        E 0 90 56 60
        E 0 90 62 60
        E 0 90 6e 60
        E 80 80 2f 00
        E 0 80 56 00
        E 0 80 62 00
        E 0 80 6e 00
        E 0 90 2e 60
        E 0 90 62 60
        E 0 90 6e 60
        E 80 80 2e 00
        E 0 80 62 00
        E 0 80 6e 00
        E 0 90 2f 60
        E 0 90 62 60
        E 0 90 6e 60
        E 80 80 2f 00
        E 0 80 62 00
        E 0 80 6e 00
        E 0 90 1a 60
        E 0 90 3d 60
        E 0 90 49 60
        E 0 90 55 60
        E 0 90 61 60
        E 80 80 1a 00
        E 0 80 3d 00
        E 0 80 49 00
        E 0 80 55 00
        E 0 80 61 00
        E 0 90 1b 60
        E 0 90 61 60
        E 80 80 1b 00
        E 0 80 61 00
        E 0 90 1a 60
        E 0 90 61 60
        E 80 80 1a 00
        E 0 80 61 00
        E 0 90 1b 60
        E 0 90 55 60
        E 0 90 61 60
        E 80 80 1b 00
        E 0 80 55 00
        E 0 80 61 00
        E 0 90 1a 60
        E 0 90 61 60
        E 80 80 1a 00
        E 0 80 61 00
        E 0 90 1b 60
        E 0 90 61 60
        E 80 80 1b 00
        E 0 80 61 00
        E 0 90 1a 60
        E 0 90 3d 60
        E 0 90 49 60
        E 0 90 55 60
        E 0 90 61 60
        E 80 80 1a 00
        E 0 80 3d 00
        E 0 80 49 00
        E 0 80 55 00
        E 0 80 61 00
        E 0 90 1b 60
        E 0 90 61 60
        E 80 80 1b 00
        E 0 80 61 00
        E 0 90 2e 60
        E 0 90 62 60
        E 0 90 6e 60
        E 80 80 2e 00
        E 0 80 62 00
        E 0 80 6e 00
        E 0 90 2f 60
        E 0 90 56 60
        E 0 90 62 60
        E 0 90 6e 60
        E 80 80 2f 00
        E 0 80 56 00
        E 0 80 62 00
        E 0 80 6e 00
        E 0 90 2e 60
        E 0 90 62 60
        E 0 90 6e 60
        E 80 80 2e 00
        E 0 80 62 00
        E 0 80 6e 00
        E 0 90 2f 60
        E 0 90 62 60
        E 0 90 6e 60
        E 80 80 2f 00
        E 0 80 62 00
        E 0 80 6e 00
        E 0 90 18 60
        E 0 90 2c 60
        E 0 90 40 60
        E 0 90 48 60
        E 0 90 4c 60
        E 0 90 54 60
        E 0 90 58 60
        E 0 90 60 60
        E 0 90 64 60
        E 80 80 18 00
        E 0 80 2c 00
        E 0 80 40 00
        E 0 80 48 00
        E 0 80 4c 00
        E 0 80 54 00
        E 0 80 58 00
        E 0 80 60 00
        E 0 80 64 00
        E 240 90 18 60
        E 0 90 60 60
        E 80 80 18 00
        E 0 80 60 00
        E 80 90 1a 60
        E 0 90 2a 60
        E 0 90 3d 60
        E 0 90 49 60
        E 0 90 4b 60
        E 0 90 55 60
        E 0 90 57 60
        E 0 90 61 60
        E 0 90 63 60
        E 80 80 1a 00
        E 0 80 2a 00
        E 0 80 3d 00
        E 0 80 49 00
        E 0 80 4b 00
        E 0 80 55 00
        E 0 80 57 00
        E 0 80 61 00
        E 0 80 63 00
        E 240 90 18 60
        E 0 90 60 60
        E 80 80 18 00
        E 0 80 60 00
        E 80 90 18 60
        E 0 90 2a 60
        E 0 90 3f 60
        E 0 90 48 60
        E 0 90 4b 60
        E 0 90 54 60
        E 0 90 57 60
        E 0 90 60 60
        E 0 90 63 60
        E 80 80 18 00
        E 0 80 2a 00
        E 0 80 3f 00
        E 0 80 48 00
        E 0 80 4b 00
        E 0 80 54 00
        E 0 80 57 00
        E 0 80 60 00
        E 0 80 63 00
        E 240 90 18 60
        E 0 90 60 60
        E 80 80 18 00
        E 0 80 60 00
        E 80 90 1a 60
        E 0 90 2a 60
        E 0 90 3d 60
        E 0 90 49 60
        E 0 90 4b 60
        E 0 90 55 60
        E 0 90 57 60
        E 0 90 61 60
        E 0 90 63 60
        E 80 80 1a 00
        E 0 80 2a 00
        E 0 80 3d 00
        E 0 80 49 00
        E 0 80 4b 00
        E 0 80 55 00
        E 0 80 57 00
        E 0 80 61 00
        E 0 80 63 00
        E 240 90 18 60
        E 0 90 60 60
        E 80 80 18 00
        E 0 80 60 00
        E 80 90 18 60
        E 0 90 2a 60
        E 0 90 3f 60
        E 0 90 48 60
        E 0 90 4b 60
        E 0 90 54 60
        E 0 90 57 60
        E 0 90 60 60
        E 0 90 63 60
        E 80 80 18 00
        E 0 80 2a 00
        E 0 80 3f 00
        E 0 80 48 00
        E 0 80 4b 00
        E 0 80 54 00
        E 0 80 57 00
        E 0 80 60 00
        E 0 80 63 00
        E 240 90 18 60
        E 0 90 60 60
        E 80 80 18 00
        E 0 80 60 00
        E 80 90 1a 60
        E 0 90 2a 60
        E 0 90 3d 60
        E 0 90 49 60
        E 0 90 4b 60
        E 0 90 55 60
        E 0 90 57 60
        E 0 90 61 60
        E 0 90 63 60
        E 80 80 1a 00
        E 0 80 2a 00
        E 0 80 3d 00
        E 0 80 49 00
        E 0 80 4b 00
        E 0 80 55 00
        E 0 80 57 00
        E 0 80 61 00
        E 0 80 63 00
        E 240 90 18 60
        E 0 90 60 60
        E 80 80 18 00
        E 0 80 60 00
        E 80 90 18 60
        E 0 90 2a 60
        E 0 90 3f 60
        E 0 90 48 60
        E 0 90 4b 60
        E 0 90 54 60
        E 0 90 57 60
        E 0 90 60 60
        E 0 90 63 60
        E 80 80 18 00
        E 0 80 2a 00
        E 0 80 3f 00
        E 0 80 48 00
        E 0 80 4b 00
        E 0 80 54 00
        E 0 80 57 00
        E 0 80 60 00
        E 0 80 63 00
        E 80 90 1a 60
        E 0 90 61 60
        E 80 80 1a 00
        E 0 80 61 00
        E 80 90 1b 60
        E 0 90 61 60
        E 80 80 1b 00
        E 0 80 61 00
        E 0 90 1a 60
        E 0 90 61 60
        E 80 80 1a 00
        E 0 80 61 00
        E 0 90 1b 60
        E 0 90 3d 60
        E 0 90 49 60
        E 0 90 55 60
        E 0 90 61 60
        E 80 80 1b 00
        E 0 80 3d 00
        E 0 80 49 00
        E 0 80 55 00
        E 0 80 61 00
        E 0 90 1a 60
        E 0 90 61 60
        E 80 80 1a 00
        E 0 80 61 00
        E 0 90 1b 60
        E 0 90 61 60
        E 80 80 1b 00
        E 0 80 61 00
        E 0 90 1a 60
        E 0 90 55 60
        E 0 90 61 60
        E 80 80 1a 00
        E 0 80 55 00
        E 0 80 61 00
        E 0 90 1b 60
        E 0 90 61 60
        E 80 80 1b 00
        E 0 80 61 00
        E 0 90 1a 60
        E 0 90 61 60
        E 80 80 1a 00
        E 0 80 61 00
        E 0 90 18 60
        E 0 90 26 60
        E 0 90 40 60
        E 0 90 48 60
        E 0 90 4c 60
        E 0 90 54 60
        E 0 90 58 60
        E 0 90 60 60
        E 0 90 64 60
        E 0 90 74 60
        E 80 80 18 00
        E 0 80 26 00
        E 0 80 40 00
        E 0 80 48 00
        E 0 80 4c 00
        E 0 80 54 00
        E 0 80 58 00
        E 0 80 60 00
        E 0 80 64 00
        E 240 90 18 60
        E 0 90 60 60
        E 80 80 18 00
        E 0 80 60 00
        E 80 90 1a 60
        E 0 90 2a 60
        E 0 90 3d 60
        E 0 90 49 60
        E 0 90 4b 60
        E 0 90 55 60
        E 0 90 57 60
        E 0 90 61 60
        E 0 90 63 60
        E 80 80 1a 00
        E 0 80 2a 00
        E 0 80 3d 00
        E 0 80 49 00
        E 0 80 4b 00
        E 0 80 55 00
        E 0 80 57 00
        E 0 80 61 00
        E 0 80 63 00
        E 240 90 18 60
        E 0 90 60 60
        E 80 80 18 00
        E 0 80 60 00
        E 80 90 18 60
        E 0 90 2a 60
        E 0 90 3f 60
        E 0 90 48 60
        E 0 90 4b 60
        E 0 90 54 60
        E 0 90 57 60
        E 0 90 60 60
        E 0 90 63 60
        E 80 80 18 00
        E 0 80 2a 00
        E 0 80 3f 00
        E 0 80 48 00
        E 0 80 4b 00
        E 0 80 54 00
        E 0 80 57 00
        E 0 80 60 00
        E 0 80 63 00
        E 240 90 18 60
        E 0 90 60 60
        E 80 80 18 00
        E 0 80 60 00
        E 80 90 1a 60
        E 0 90 2a 60
        E 0 90 3d 60
        E 0 90 49 60
        E 0 90 4b 60
        E 0 90 55 60
        E 0 90 57 60
        E 0 90 61 60
        E 0 90 63 60
        E 80 80 1a 00
        E 0 80 2a 00
        E 0 80 3d 00
        E 0 80 49 00
        E 0 80 4b 00
        E 0 80 55 00
        E 0 80 57 00
        E 0 80 61 00
        E 0 80 63 00
        E 240 90 18 60
        E 0 90 60 60
        E 80 80 18 00
        E 0 80 60 00
        E 80 90 18 60
        E 0 90 2a 60
        E 0 90 3f 60
        E 0 90 48 60
        E 0 90 4b 60
        E 0 90 54 60
        E 0 90 57 60
        E 0 90 60 60
        E 0 90 63 60
        E 80 80 18 00
        E 0 80 2a 00
        E 0 80 3f 00
        E 0 80 48 00
        E 0 80 4b 00
        E 0 80 54 00
        E 0 80 57 00
        E 0 80 60 00
        E 0 80 63 00
        E 80 90 1a 60
        E 0 90 61 60
        E 80 80 1a 00
        E 0 80 61 00
        E 0 90 1b 60
        E 0 90 55 60
        E 0 90 61 60
        E 80 80 1b 00
        E 0 80 55 00
        E 0 80 61 00
        E 0 90 1a 60
        E 0 90 61 60
        E 80 80 1a 00
        E 0 80 61 00
        E 80 90 18 60
        E 0 90 2a 60
        E 0 90 3f 60
        E 0 90 48 60
        E 0 90 4b 60
        E 0 90 54 60
        E 0 90 57 60
        E 0 90 60 60
        E 0 90 63 60
        E 80 80 18 00
        E 0 80 2a 00
        E 0 80 3f 00
        E 0 80 48 00
        E 0 80 4b 00
        E 0 80 54 00
        E 0 80 57 00
        E 0 80 60 00
        E 0 80 63 00
        E 80 90 1a 60
        E 0 90 61 60
        E 80 80 1a 00
        E 0 80 61 00
        E 0 90 1b 60
        E 0 90 55 60
        E 0 90 61 60
        E 80 80 1b 00
        E 0 80 55 00
        E 0 80 61 00
        E 0 90 1a 60
        E 0 90 61 60
        E 80 80 1a 00
        E 0 80 61 00
        E 80 90 18 60
        E 0 90 26 60
        E 0 90 40 60
        E 0 90 48 60
        E 0 90 4c 60
        E 0 90 54 60
        E 0 90 58 60
        E 0 90 60 60
        E 0 90 64 60
        E 80 80 18 00
        E 0 80 26 00
        E 0 80 40 00
        E 0 80 48 00
        E 0 80 4c 00
        E 0 80 54 00
        E 0 80 58 00
        E 0 80 60 00
        E 0 80 64 00
        E 160 90 1b 60
        E 0 90 55 60
        E 0 90 61 60
        E 80 80 1b 00
        E 0 80 55 00
        E 0 80 61 00
        E 0 90 1a 60
        E 0 90 61 60
        E 80 80 1a 00
        E 0 80 61 00
        E 80 90 18 60
        E 0 90 26 60
        E 0 90 40 60
        E 0 90 48 60
        E 0 90 4c 60
        E 0 90 54 60
        E 0 90 58 60
        E 0 90 60 60
        E 0 90 64 60
        E 80 80 18 00
        E 0 80 26 00
        E 0 80 40 00
        E 0 80 48 00
        E 0 80 4c 00
        E 0 80 54 00
        E 0 80 58 00
        E 0 80 60 00
        E 0 80 64 00
        E 160 90 1b 60
        E 0 90 55 60
        E 0 90 61 60
        E 80 80 1b 00
        E 0 80 55 00
        E 0 80 61 00
        E 0 90 1a 60
        E 0 90 61 60
        E 80 80 1a 00
        E 0 80 61 00
        E 80 80 74 00
        E 0 90 2f 60
        E 0 90 3e 60
        E 0 90 4a 60
        E 0 90 56 60
        E 0 90 62 60
        E 0 90 6e 60
        E 80 80 2f 00
        E 0 80 3e 00
        E 0 80 4a 00
        E 0 80 56 00
        E 0 80 62 00
        E 0 80 6e 00
        E 0 90 2e 60
        E 0 90 62 60
        E 0 90 6e 60
        E 80 80 2e 00
        E 0 80 62 00
        E 0 80 6e 00
        E 0 90 31 60
        E 0 90 63 60
        E 0 90 6f 60
        E 80 80 31 00
        E 0 80 63 00
        E 0 80 6f 00
        E 0 90 30 60
        E 0 90 57 60
        E 0 90 63 60
        E 0 90 6f 60
        E 80 80 30 00
        E 0 80 57 00
        E 0 80 63 00
        E 0 80 6f 00
        E 0 90 18 60
        E 0 90 60 60
        E 80 80 18 00
        E 0 80 60 00
        E 80 90 1a 60
        E 0 90 26 60
        E 0 90 3d 60
        E 0 90 49 60
        E 0 90 4c 60
        E 0 90 55 60
        E 0 90 58 60
        E 0 90 61 60
        E 0 90 64 60
        E 80 80 1a 00
        E 0 80 26 00
        E 0 80 3d 00
        E 0 80 49 00
        E 0 80 4c 00
        E 0 80 55 00
        E 0 80 58 00
        E 0 80 61 00
        E 0 80 64 00
        E 240 90 18 60
        E 0 90 60 60
        E 80 80 18 00
        E 0 80 60 00
        E 80 90 18 60
        E 0 90 2a 60
        E 0 90 3f 60
        E 0 90 48 60
        E 0 90 4b 60
        E 0 90 54 60
        E 0 90 57 60
        E 0 90 60 60
        E 0 90 63 60
        E 80 80 18 00
        E 0 80 2a 00
        E 0 80 3f 00
        E 0 80 48 00
        E 0 80 4b 00
        E 0 80 54 00
        E 0 80 57 00
        E 0 80 60 00
        E 0 80 63 00
        E 240 90 18 60
        E 0 90 60 60
        E 80 80 18 00
        E 0 80 60 00
        E 80 90 1a 60
        E 0 90 2a 60
        E 0 90 3d 60
        E 0 90 49 60
        E 0 90 4b 60
        E 0 90 55 60
        E 0 90 57 60
        E 0 90 61 60
        E 0 90 63 60
        E 80 80 1a 00
        E 0 80 2a 00
        E 0 80 3d 00
        E 0 80 49 00
        E 0 80 4b 00
        E 0 80 55 00
        E 0 80 57 00
        E 0 80 61 00
        E 0 80 63 00
        E 240 90 2e 60
        E 0 90 62 60
        E 0 90 6e 60
        E 80 80 2e 00
        E 0 80 62 00
        E 0 80 6e 00
        E 80 90 18 60
        E 0 90 2a 60
        E 0 90 3f 60
        E 0 90 48 60
        E 0 90 4b 60
        E 0 90 54 60
        E 0 90 57 60
        E 0 90 60 60
        E 0 90 63 60
        E 80 80 18 00
        E 0 80 2a 00
        E 0 80 3f 00
        E 0 80 48 00
        E 0 80 4b 00
        E 0 80 54 00
        E 0 80 57 00
        E 0 80 60 00
        E 0 80 63 00
        E 80 90 18 60
        E 0 90 60 60
        E 80 80 18 00
        E 0 80 60 00
        E 80 90 18 60
        E 0 90 60 60
        E 80 80 18 00
        E 0 80 60 00
        E 0 90 18 60
        E 0 90 60 60
        E 80 80 18 00
        E 0 80 60 00
        E 0 90 1a 60
        E 0 90 26 60
        E 0 90 3d 60
        E 0 90 49 60
        E 0 90 4c 60
        E 0 90 55 60
        E 0 90 58 60
        E 0 90 61 60
        E 0 90 64 60
        E 80 80 1a 00
        E 0 80 26 00
        E 0 80 3d 00
        E 0 80 49 00
        E 0 80 4c 00
        E 0 80 55 00
        E 0 80 58 00
        E 0 80 61 00
        E 0 80 64 00
        E 240 90 18 60
        E 0 90 60 60
        E 80 80 18 00
        E 0 80 60 00
        E 80 90 18 60
        E 0 90 2a 60
        E 0 90 3f 60
        E 0 90 48 60
        E 0 90 4b 60
        E 0 90 54 60
        E 0 90 57 60
        E 0 90 60 60
        E 0 90 63 60
        E 0 90 78 60
        E 0 90 79 60
        E 0 90 7a 60
        E 0 90 7b 60
        E 0 90 7c 60
        E 80 80 18 00
        E 0 80 2a 00
        E 0 80 3f 00
        E 0 80 48 00
        E 0 80 4b 00
        E 0 80 54 00
        E 0 80 57 00
        E 0 80 60 00
        E 0 80 63 00
        E 240 90 18 60
        E 0 90 60 60
        E 80 80 18 00
        E 0 80 60 00
        E 0 90 18 60
        E 0 90 60 60
        E 80 80 18 00
        E 0 80 60 00
        E 0 90 1a 60
        E 0 90 26 60
        E 0 90 3d 60
        E 0 90 49 60
        E 0 90 4c 60
        E 0 90 55 60
        E 0 90 58 60
        E 0 90 61 60
        E 0 90 64 60
        E 80 80 1a 00
        E 0 80 26 00
        E 0 80 3d 00
        E 0 80 49 00
        E 0 80 4c 00
        E 0 80 55 00
        E 0 80 58 00
        E 0 80 61 00
        E 0 80 64 00
        E 80 90 1a 60
        E 0 90 61 60
        E 80 80 1a 00
        E 0 80 61 00
        E 0 90 1b 60
        E 0 90 55 60
        E 0 90 61 60
        E 80 80 1b 00
        E 0 80 55 00
        E 0 80 61 00
        E 0 90 1a 60
        E 0 90 61 60
        E 80 80 1a 00
        E 0 80 61 00
        E 0 90 1b 60
        E 0 90 61 60
        E 80 80 78 00
        E 0 80 79 00
        E 0 80 7a 00
        E 0 80 7b 00
        E 0 80 7c 00
        E 0 80 1b 00
        E 0 80 61 00
        E 0 90 18 60
        E 0 90 2c 60
        E 0 90 40 60
        E 0 90 48 60
        E 0 90 4c 60
        E 0 90 54 60
        E 0 90 58 60
        E 0 90 60 60
        E 0 90 64 60
        E 80 80 18 00
        E 0 80 2c 00
        E 0 80 40 00
        E 0 80 48 00
        E 0 80 4c 00
        E 0 80 54 00
        E 0 80 58 00
        E 0 80 60 00
        E 0 80 64 00
        E 240 90 18 60
        E 0 90 60 60
        E 80 80 18 00
        E 0 80 60 00
        E 80 90 1a 60
        E 0 90 2a 60
        E 0 90 3d 60
        E 0 90 49 60
        E 0 90 4b 60
        E 0 90 55 60
        E 0 90 57 60
        E 0 90 61 60
        E 0 90 63 60
        E 80 80 1a 00
        E 0 80 2a 00
        E 0 80 3d 00
        E 0 80 49 00
        E 0 80 4b 00
        E 0 80 55 00
        E 0 80 57 00
        E 0 80 61 00
        E 0 80 63 00
        E 240 90 18 60
        E 0 90 60 60
        E 80 80 18 00
        E 0 80 60 00
        E 80 90 18 60
        E 0 90 2a 60
        E 0 90 3f 60
        E 0 90 48 60
        E 0 90 4b 60
        E 0 90 54 60
        E 0 90 57 60
        E 0 90 60 60
        E 0 90 63 60
        E 80 80 18 00
        E 0 80 2a 00
        E 0 80 3f 00
        E 0 80 48 00
        E 0 80 4b 00
        E 0 80 54 00
        E 0 80 57 00
        E 0 80 60 00
        E 0 80 63 00
        E 80 90 18 60
        E 0 90 60 60
        E 80 80 18 00
        E 0 80 60 00
        E 80 90 18 60
        E 0 90 60 60
        E 80 80 18 00
        E 0 80 60 00
        E 80 90 1a 60
        E 0 90 2a 60
        E 0 90 3d 60
        E 0 90 49 60
        E 0 90 4b 60
        E 0 90 55 60
        E 0 90 57 60
        E 0 90 61 60
        E 0 90 63 60
        E 80 80 1a 00
        E 0 80 2a 00
        E 0 80 3d 00
        E 0 80 49 00
        E 0 80 4b 00
        E 0 80 55 00
        E 0 80 57 00
        E 0 80 61 00
        E 0 80 63 00
        E 240 90 18 60
        E 0 90 60 60
        E 80 80 18 00
        E 0 80 60 00
        E 80 90 1a 60
        E 0 90 2a 60
        E 0 90 3d 60
        E 0 90 49 60
        E 0 90 4b 60
        E 0 90 55 60
        E 0 90 57 60
        E 0 90 61 60
        E 0 90 63 60
        E 80 80 1a 00
        E 0 80 2a 00
        E 0 80 3d 00
        E 0 80 49 00
        E 0 80 4b 00
        E 0 80 55 00
        E 0 80 57 00
        E 0 80 61 00
        E 0 80 63 00
        E 80 90 18 60
        E 0 90 60 60
        E 80 80 18 00
        E 0 80 60 00
        E 80 90 18 60
        E 0 90 60 60
        E 80 80 18 00
        E 0 80 60 00
        E 80 90 1a 60
        E 0 90 2a 60
        E 0 90 3d 60
        E 0 90 49 60
        E 0 90 4b 60
        E 0 90 55 60
        E 0 90 57 60
        E 0 90 61 60
        E 0 90 63 60
        E 80 80 1a 00
        E 0 80 2a 00
        E 0 80 3d 00
        E 0 80 49 00
        E 0 80 4b 00
        E 0 80 55 00
        E 0 80 57 00
        E 0 80 61 00
        E 0 80 63 00
        E 80 90 18 60
        E 0 90 60 60
        E 80 80 18 00
        E 0 80 60 00
        E 80 90 18 60
        E 0 90 60 60
        E 80 80 18 00
        E 0 80 60 00
        E 80 90 1a 60
        E 0 90 26 60
        E 0 90 3d 60
        E 0 90 49 60
        E 0 90 4c 60
        E 0 90 55 60
        E 0 90 58 60
        E 0 90 61 60
        E 0 90 64 60
        E 0 90 78 60
        E 0 90 79 60
        E 0 90 7a 60
        E 0 90 7b 60
        E 0 90 7c 60
        E 80 80 1a 00
        E 0 80 26 00
        E 0 80 3d 00
        E 0 80 49 00
        E 0 80 4c 00
        E 0 80 55 00
        E 0 80 58 00
        E 0 80 61 00
        E 0 80 64 00
        E 80 90 18 60
        E 0 90 60 60
        E 80 80 18 00
        E 0 80 60 00
        E 80 90 18 60
        E 0 90 60 60
        E 80 80 18 00
        E 0 80 60 00
        E 80 90 18 60
        E 0 90 2a 60
        E 0 90 3f 60
        E 0 90 48 60
        E 0 90 4b 60
        E 0 90 54 60
        E 0 90 57 60
        E 0 90 60 60
        E 0 90 63 60
        E 80 80 18 00
        E 0 80 2a 00
        E 0 80 3f 00
        E 0 80 48 00
        E 0 80 4b 00
        E 0 80 54 00
        E 0 80 57 00
        E 0 80 60 00
        E 0 80 63 00
        E 80 90 1a 60
        E 0 90 61 60
        E 80 80 1a 00
        E 0 80 61 00
        E 80 90 1b 60
        E 0 90 61 60
        E 80 80 1b 00
        E 0 80 61 00
        E 80 90 18 60
        E 0 90 2c 60
        E 0 90 40 60
        E 0 90 48 60
        E 0 90 4c 60
        E 0 90 54 60
        E 0 90 58 60
        E 0 90 60 60
        E 0 90 64 60
        E 1 80 78 00
        E 0 80 79 00
        E 0 80 7a 00
        E 0 80 7b 00
        E 0 80 7c 00
        E 79 80 18 00
        E 0 80 2c 00
        E 0 80 40 00
        E 0 80 48 00
        E 0 80 4c 00
        E 0 80 54 00
        E 0 80 58 00
        E 0 80 60 00
        E 0 80 64 00
        E 240 90 18 60
        E 0 90 60 60
        E 80 80 18 00
        E 0 80 60 00
        E 80 90 18 60
        E 0 90 2a 60
        E 0 90 3f 60
        E 0 90 48 60
        E 0 90 4b 60
        E 0 90 54 60
        E 0 90 57 60
        E 0 90 60 60
        E 0 90 63 60
        E 80 80 18 00
        E 0 80 2a 00
        E 0 80 3f 00
        E 0 80 48 00
        E 0 80 4b 00
        E 0 80 54 00
        E 0 80 57 00
        E 0 80 60 00
        E 0 80 63 00
        E 240 90 18 60
        E 0 90 60 60
        E 80 80 18 00
        E 0 80 60 00
        E 0 90 18 60
        E 0 90 60 60
        E 80 80 18 00
        E 0 80 60 00
        E 0 90 1a 60
        E 0 90 26 60
        E 0 90 3d 60
        E 0 90 49 60
        E 0 90 4c 60
        E 0 90 55 60
        E 0 90 58 60
        E 0 90 61 60
        E 0 90 64 60
        E 80 80 1a 00
        E 0 80 26 00
        E 0 80 3d 00
        E 0 80 49 00
        E 0 80 4c 00
        E 0 80 55 00
        E 0 80 58 00
        E 0 80 61 00
        E 0 80 64 00
        E 400 90 18 60
        E 0 90 22 60
        E 0 90 26 60
        E 0 90 3e 60
        E 0 90 40 60
        E 0 90 48 60
        E 0 90 4a 60
        E 0 90 4c 60
        E 0 90 54 60
        E 0 90 56 60
        E 0 90 58 60
        E 0 90 60 60
        E 0 90 62 60
        E 0 90 64 60
        E 80 80 18 00
        E 0 80 22 00
        E 0 80 26 00
        E 0 80 3e 00
        E 0 80 40 00
        E 0 80 48 00
        E 0 80 4a 00
        E 0 80 4c 00
        E 0 80 54 00
        E 0 80 56 00
        E 0 80 58 00
        E 0 80 60 00
        E 0 80 62 00
        E 0 80 64 00
        E 400 90 18 60
        E 0 90 2a 60
        E 0 90 3f 60
        E 0 90 48 60
        E 0 90 4b 60
        E 0 90 54 60
        E 0 90 57 60
        E 0 90 60 60
        E 0 90 63 60
        E 80 80 18 00
        E 0 80 2a 00
        E 0 80 3f 00
        E 0 80 48 00
        E 0 80 4b 00
        E 0 80 54 00
        E 0 80 57 00
        E 0 80 60 00
        E 0 80 63 00
        E 240 90 18 60
        E 0 90 60 60
        E 80 80 18 00
        E 0 80 60 00
        E 80 90 18 60
        E 0 90 26 60
        E 0 90 40 60
        E 0 90 48 60
        E 0 90 4c 60
        E 0 90 54 60
        E 0 90 58 60
        E 0 90 60 60
        E 0 90 64 60
        E 80 80 18 00
        E 0 80 26 00
        E 0 80 40 00
        E 0 80 48 00
        E 0 80 4c 00
        E 0 80 54 00
        E 0 80 58 00
        E 0 80 60 00
        E 0 80 64 00
        E 80 90 18 60
        E 0 90 60 60
        E 80 80 18 00
        E 0 80 60 00
        E 80 90 18 60
        E 0 90 60 60
        E 80 80 18 00
        E 0 80 60 00
        E 80 90 1a 60
        E 0 90 2a 60
        E 0 90 3d 60
        E 0 90 49 60
        E 0 90 4b 60
        E 0 90 55 60
        E 0 90 57 60
        E 0 90 61 60
        E 0 90 63 60
        E 80 80 1a 00
        E 0 80 2a 00
        E 0 80 3d 00
        E 0 80 49 00
        E 0 80 4b 00
        E 0 80 55 00
        E 0 80 57 00
        E 0 80 61 00
        E 0 80 63 00
        E 80 90 18 60
        E 0 90 26 60
        E 0 90 60 60
        E 0 90 64 60
        E 80 80 18 00
        E 0 80 26 00
        E 0 80 60 00
        E 0 80 64 00
        E 240 90 18 60
        E 0 90 2a 60
        E 0 90 3f 60
        E 0 90 48 60
        E 0 90 4b 60
        E 0 90 54 60
        E 0 90 57 60
        E 0 90 60 60
        E 0 90 63 60
        E 80 80 18 00
        E 0 80 2a 00
        E 0 80 3f 00
        E 0 80 48 00
        E 0 80 4b 00
        E 0 80 54 00
        E 0 80 57 00
        E 0 80 60 00
        E 0 80 63 00
        E 240 90 18 60
        E 0 90 60 60
        E 80 80 18 00
        E 0 80 60 00
        E 0 90 18 60
        E 0 90 60 60
        E 80 80 18 00
        E 0 80 60 00
        E 0 90 18 60
        E 0 90 26 60
        E 0 90 40 60
        E 0 90 48 60
        E 0 90 4c 60
        E 0 90 54 60
        E 0 90 58 60
        E 0 90 60 60
        E 0 90 64 60
        E 80 80 18 00
        E 0 80 26 00
        E 0 80 40 00
        E 0 80 48 00
        E 0 80 4c 00
        E 0 80 54 00
        E 0 80 58 00
        E 0 80 60 00
        E 0 80 64 00
        E 400 90 18 60
        E 0 90 2a 60
        E 0 90 3f 60
        E 0 90 48 60
        E 0 90 4b 60
        E 0 90 54 60
        E 0 90 57 60
        E 0 90 60 60
        E 0 90 63 60
        E 80 80 18 00
        E 0 80 2a 00
        E 0 80 3f 00
        E 0 80 48 00
        E 0 80 4b 00
        E 0 80 54 00
        E 0 80 57 00
        E 0 80 60 00
        E 0 80 63 00
        E 240 90 18 60
        E 0 90 60 60
        E 80 80 18 00
        E 0 80 60 00
        E 80 90 1a 60
        E 0 90 26 60
        E 0 90 3d 60
        E 0 90 49 60
        E 0 90 4c 60
        E 0 90 55 60
        E 0 90 58 60
        E 0 90 61 60
        E 0 90 64 60
        E 80 80 1a 00
        E 0 80 26 00
        E 0 80 3d 00
        E 0 80 49 00
        E 0 80 4c 00
        E 0 80 55 00
        E 0 80 58 00
        E 0 80 61 00
        E 0 80 64 00
        E 240 90 1a 60
        E 0 90 26 60
        E 0 90 61 60
        E 0 90 64 60
        E 80 80 1a 00
        E 0 80 26 00
        E 0 80 61 00
        E 0 80 64 00
        E 80 90 18 60
        E 0 90 2a 60
        E 0 90 3f 60
        E 0 90 48 60
        E 0 90 4b 60
        E 0 90 54 60
        E 0 90 57 60
        E 0 90 60 60
        E 0 90 63 60
        E 80 80 18 00
        E 0 80 2a 00
        E 0 80 3f 00
        E 0 80 48 00
        E 0 80 4b 00
        E 0 80 54 00
        E 0 80 57 00
        E 0 80 60 00
        E 0 80 63 00
        E 80 90 1a 60
        E 0 90 61 60
        E 80 80 1a 00
        E 0 80 61 00
        E 80 90 1b 60
        E 0 90 61 60
        E 80 80 1b 00
        E 0 80 61 00
        E 80 90 18 60
        E 0 90 2c 60
        E 0 90 40 60
        E 0 90 48 60
        E 0 90 4c 60
        E 0 90 54 60
        E 0 90 58 60
        E 0 90 60 60
        E 0 90 64 60
        E 80 80 18 00
        E 0 80 2c 00
        E 0 80 40 00
        E 0 80 48 00
        E 0 80 4c 00
        E 0 80 54 00
        E 0 80 58 00
        E 0 80 60 00
        E 0 80 64 00
        E 400 90 18 60
        E 0 90 2a 60
        E 0 90 3f 60
        E 0 90 48 60
        E 0 90 4b 60
        E 0 90 54 60
        E 0 90 57 60
        E 0 90 60 60
        E 0 90 63 60
        E 80 80 18 00
        E 0 80 2a 00
        E 0 80 3f 00
        E 0 80 48 00
        E 0 80 4b 00
        E 0 80 54 00
        E 0 80 57 00
        E 0 80 60 00
        E 0 80 63 00
        E 240 90 18 60
        E 0 90 60 60
        E 80 80 18 00
        E 0 80 60 00
        E 0 90 18 60
        E 0 90 60 60
        E 80 80 18 00
        E 0 80 60 00
        E 0 90 1a 60
        E 0 90 26 60
        E 0 90 3d 60
        E 0 90 49 60
        E 0 90 4c 60
        E 0 90 55 60
        E 0 90 58 60
        E 0 90 61 60
        E 0 90 64 60
        E 80 80 1a 00
        E 0 80 26 00
        E 0 80 3d 00
        E 0 80 49 00
        E 0 80 4c 00
        E 0 80 55 00
        E 0 80 58 00
        E 0 80 61 00
        E 0 80 64 00
        E 80 90 18 60
        E 0 90 1e 60
        E 0 90 60 60
        E 0 90 62 60
        E 80 80 18 00
        E 0 80 1e 00
        E 0 80 60 00
        E 0 80 62 00
        E 80 90 1b 60
        E 0 90 61 60
        E 80 80 1b 00
        E 0 80 61 00
        E 0 90 1a 60
        E 0 90 61 60
        E 80 80 1a 00
        E 0 80 61 00
        E 0 90 1b 60
        E 0 90 3d 60
        E 0 90 49 60
        E 0 90 55 60
        E 0 90 61 60
        E 80 80 1b 00
        E 0 80 3d 00
        E 0 80 49 00
        E 0 80 55 00
        E 0 80 61 00
        E 0 90 1a 60
        E 0 90 61 60
        E 80 80 1a 00
        E 0 80 61 00
        E 0 90 18 60
        E 0 90 2a 60
        E 0 90 60 60
        E 0 90 63 60
        E 80 80 18 00
        E 0 80 2a 00
        E 0 80 60 00
        E 0 80 63 00
        E 0 90 18 60
        E 0 90 54 60
        E 0 90 60 60
        E 80 80 18 00
        E 0 80 54 00
        E 0 80 60 00
        E 0 90 18 60
        E 0 90 2a 60
        E 0 90 60 60
        E 0 90 63 60
        E 80 80 18 00
        E 0 80 2a 00
        E 0 80 60 00
        E 0 80 63 00
        E 0 90 18 60
        E 0 90 60 60
        E 80 80 18 00
        E 0 80 60 00
        E 0 90 18 60
        E 0 90 26 60
        E 0 90 40 60
        E 0 90 48 60
        E 0 90 4c 60
        E 0 90 54 60
        E 0 90 58 60
        E 0 90 60 60
        E 0 90 64 60
        E 0 90 74 60
        E 80 80 18 00
        E 0 80 26 00
        E 0 80 40 00
        E 0 80 48 00
        E 0 80 4c 00
        E 0 80 54 00
        E 0 80 58 00
        E 0 80 60 00
        E 0 80 64 00
        E 400 90 18 60
        E 0 90 1f 60
        E 0 90 3e 60
        E 0 90 48 60
        E 0 90 4a 60
        E 0 90 54 60
        E 0 90 56 60
        E 0 90 60 60
        E 0 90 62 60
        E 80 80 18 00
        E 0 80 1f 00
        E 0 80 3e 00
        E 0 80 48 00
        E 0 80 4a 00
        E 0 80 54 00
        E 0 80 56 00
        E 0 80 60 00
        E 0 80 62 00
        E 240 90 18 60
        E 0 90 60 60
        E 80 80 18 00
        E 0 80 60 00
        E 0 90 18 60
        E 0 90 60 60
        E 80 80 18 00
        E 0 80 60 00
        E 0 90 1a 60
        E 0 90 2a 60
        E 0 90 3d 60
        E 0 90 49 60
        E 0 90 4b 60
        E 0 90 55 60
        E 0 90 57 60
        E 0 90 61 60
        E 0 90 63 60
        E 80 80 1a 00
        E 0 80 2a 00
        E 0 80 3d 00
        E 0 80 49 00
        E 0 80 4b 00
        E 0 80 55 00
        E 0 80 57 00
        E 0 80 61 00
        E 0 80 63 00
        E 80 90 18 60
        E 0 90 26 60
        E 0 90 60 60
        E 0 90 64 60
        E 80 80 18 00
        E 0 80 26 00
        E 0 80 60 00
        E 0 80 64 00
        E 80 90 18 60
        E 0 90 60 60
        E 80 80 18 00
        E 0 80 60 00
        E 80 90 18 60
        E 0 90 26 60
        E 0 90 40 60
        E 0 90 48 60
        E 0 90 4c 60
        E 0 90 54 60
        E 0 90 58 60
        E 0 90 60 60
        E 0 90 64 60
        E 80 80 18 00
        E 0 80 26 00
        E 0 80 40 00
        E 0 80 48 00
        E 0 80 4c 00
        E 0 80 54 00
        E 0 80 58 00
        E 0 80 60 00
        E 0 80 64 00
        E 240 90 18 60
        E 0 90 60 60
        E 80 80 18 00
        E 0 80 60 00
        E 80 90 18 60
        E 0 90 1f 60
        E 0 90 3e 60
        E 0 90 48 60
        E 0 90 4a 60
        E 0 90 54 60
        E 0 90 56 60
        E 0 90 60 60
        E 0 90 62 60
        E 80 80 18 00
        E 0 80 1f 00
        E 0 80 3e 00
        E 0 80 48 00
        E 0 80 4a 00
        E 0 80 54 00
        E 0 80 56 00
        E 0 80 60 00
        E 0 80 62 00
        E 400 90 18 60
        E 0 90 26 60
        E 0 90 40 60
        E 0 90 48 60
        E 0 90 4c 60
        E 0 90 54 60
        E 0 90 58 60
        E 0 90 60 60
        E 0 90 64 60
        E 80 80 18 00
        E 0 80 26 00
        E 0 80 40 00
        E 0 80 48 00
        E 0 80 4c 00
        E 0 80 54 00
        E 0 80 58 00
        E 0 80 60 00
        E 0 80 64 00
        E 240 90 18 60
        E 0 90 60 60
        E 80 80 18 00
        E 0 80 60 00
        E 0 90 18 60
        E 0 90 60 60
        E 80 80 18 00
        E 0 80 60 00
        E 0 90 1a 60
        E 0 90 26 60
        E 0 90 3d 60
        E 0 90 49 60
        E 0 90 4c 60
        E 0 90 55 60
        E 0 90 58 60
        E 0 90 61 60
        E 0 90 64 60
        E 80 80 1a 00
        E 0 80 26 00
        E 0 80 3d 00
        E 0 80 49 00
        E 0 80 4c 00
        E 0 80 55 00
        E 0 80 58 00
        E 0 80 61 00
        E 0 80 64 00
        E 80 90 18 60
        E 0 90 60 60
        E 80 80 18 00
        E 0 80 60 00
        E 80 90 1a 60
        E 0 90 2a 60
        E 0 90 55 60
        E 0 90 57 60
        E 0 90 61 60
        E 0 90 63 60
        E 80 80 1a 00
        E 0 80 2a 00
        E 0 80 55 00
        E 0 80 57 00
        E 0 80 61 00
        E 0 80 63 00
        E 240 90 1a 60
        E 0 90 55 60
        E 0 90 61 60
        E 80 80 1a 00
        E 0 80 55 00
        E 0 80 61 00
        E 80 90 1b 60
        E 0 90 61 60
        E 80 80 1b 00
        E 0 80 61 00
        E 80 80 74 00
        E 0 90 18 60
        E 0 90 2c 60
        E 0 90 40 60
        E 0 90 48 60
        E 0 90 4c 60
        E 0 90 54 60
        E 0 90 58 60
        E 0 90 60 60
        E 0 90 64 60
        E 80 80 18 00
        E 0 80 2c 00
        E 0 80 40 00
        E 0 80 48 00
        E 0 80 4c 00
        E 0 80 54 00
        E 0 80 58 00
        E 0 80 60 00
        E 0 80 64 00
        E 400 90 18 60
        E 0 90 2a 60
        E 0 90 3f 60
        E 0 90 48 60
        E 0 90 4b 60
        E 0 90 54 60
        E 0 90 57 60
        E 0 90 60 60
        E 0 90 63 60
        E 80 80 18 00
        E 0 80 2a 00
        E 0 80 3f 00
        E 0 80 48 00
        E 0 80 4b 00
        E 0 80 54 00
        E 0 80 57 00
        E 0 80 60 00
        E 0 80 63 00
        E 240 90 18 60
        E 0 90 60 60
        E 80 80 18 00
        E 0 80 60 00
        E 0 90 18 60
        E 0 90 60 60
        E 80 80 18 00
        E 0 80 60 00
        E 0 90 1a 60
        E 0 90 26 60
        E 0 90 3d 60
        E 0 90 49 60
        E 0 90 4c 60
        E 0 90 55 60
        E 0 90 58 60
        E 0 90 61 60
        E 0 90 64 60
        E 80 80 1a 00
        E 0 80 26 00
        E 0 80 3d 00
        E 0 80 49 00
        E 0 80 4c 00
        E 0 80 55 00
        E 0 80 58 00
        E 0 80 61 00
        E 0 80 64 00
        E 240 90 18 60
        E 0 90 60 60
        E 80 80 18 00
        E 0 80 60 00
        E 80 90 1a 60
        E 0 90 26 60
        E 0 90 3d 60
        E 0 90 49 60
        E 0 90 4c 60
        E 0 90 55 60
        E 0 90 58 60
        E 0 90 61 60
        E 0 90 64 60
        E 80 80 1a 00
        E 0 80 26 00
        E 0 80 3d 00
        E 0 80 49 00
        E 0 80 4c 00
        E 0 80 55 00
        E 0 80 58 00
        E 0 80 61 00
        E 0 80 64 00
        E 240 90 18 60
        E 0 90 60 60
        E 80 80 18 00
        E 0 80 60 00
        E 80 90 1a 60
        E 0 90 2a 60
        E 0 90 3d 60
        E 0 90 49 60
        E 0 90 4b 60
        E 0 90 55 60
        E 0 90 57 60
        E 0 90 61 60
        E 0 90 63 60
        E 80 80 1a 00
        E 0 80 2a 00
        E 0 80 3d 00
        E 0 80 49 00
        E 0 80 4b 00
        E 0 80 55 00
        E 0 80 57 00
        E 0 80 61 00
        E 0 80 63 00
        E 240 90 1a 60
        E 0 90 61 60
        E 80 80 1a 00
        E 0 80 61 00
        E 0 90 1b 60
        E 0 90 61 60
        E 80 80 1b 00
        E 0 80 61 00
        E 0 90 1a 60
        E 0 90 3d 60
        E 0 90 49 60
        E 0 90 55 60
        E 0 90 61 60
        E 80 80 1a 00
        E 0 80 3d 00
        E 0 80 49 00
        E 0 80 55 00
        E 0 80 61 00
        E 0 90 1b 60
        E 0 90 61 60
        E 80 80 1b 00
        E 0 80 61 00
        E 0 90 2e 60
        E 0 90 62 60
        E 0 90 6e 60
        E 80 80 2e 00
        E 0 80 62 00
        E 0 80 6e 00
        E 0 90 2f 60
        E 0 90 56 60
        E 0 90 62 60
        E 0 90 6e 60
        E 80 80 2f 00
        E 0 80 56 00
        E 0 80 62 00
        E 0 80 6e 00
        E 0 90 2e 60
        E 0 90 62 60
        E 0 90 6e 60
        E 80 80 2e 00
        E 0 80 62 00
        E 0 80 6e 00
        E 0 90 2f 60
        E 0 90 62 60
        E 0 90 6e 60
        E 80 80 2f 00
        E 0 80 62 00
        E 0 80 6e 00
        E 0 90 1a 60
        E 0 90 3d 60
        E 0 90 49 60
        E 0 90 55 60
        E 0 90 61 60
        E 0 90 78 60
        E 0 90 79 60
        E 0 90 7a 60
        E 0 90 7b 60
        E 0 90 7c 60
        E 80 80 1a 00
        E 0 80 3d 00
        E 0 80 49 00
        E 0 80 55 00
        E 0 80 61 00
        E 0 90 1b 60
        E 0 90 61 60
        E 80 80 1b 00
        E 0 80 61 00
        E 0 90 30 60
        E 0 90 63 60
        E 0 90 6f 60
        E 80 80 30 00
        E 0 80 63 00
        E 0 80 6f 00
        E 0 90 31 60
        E 0 90 57 60
        E 0 90 63 60
        E 0 90 6f 60
        E 80 80 31 00
        E 0 80 57 00
        E 0 80 63 00
        E 0 80 6f 00
        E 0 90 30 60
        E 0 90 63 60
        E 0 90 6f 60
        E 80 80 30 00
        E 0 80 63 00
        E 0 80 6f 00
        E 0 90 31 60
        E 0 90 63 60
        E 0 90 6f 60
        E 80 80 31 00
        E 0 80 63 00
        E 0 80 6f 00
        E 0 90 1a 60
        E 0 90 3d 60
        E 0 90 49 60
        E 0 90 55 60
        E 0 90 61 60
        E 80 80 1a 00
        E 0 80 3d 00
        E 0 80 49 00
        E 0 80 55 00
        E 0 80 61 00
        E 0 90 1b 60
        E 0 90 61 60
        E 80 80 1b 00
        E 0 80 61 00
        E 0 90 32 60
        E 0 90 64 60
        E 0 90 70 60
        E 80 80 32 00
        E 0 80 64 00
        E 0 80 70 00
        E 0 90 33 60
        E 0 90 58 60
        E 0 90 64 60
        E 0 90 70 60
        E 80 80 33 00
        E 0 80 58 00
        E 0 80 64 00
        E 0 80 70 00
        E 0 90 32 60
        E 0 90 64 60
        E 0 90 70 60
        E 80 80 32 00
        E 0 80 64 00
        E 0 80 70 00
        E 0 90 33 60
        E 0 90 64 60
        E 0 90 70 60
        E 80 80 78 00
        E 0 80 79 00
        E 0 80 7a 00
        E 0 80 7b 00
        E 0 80 7c 00
        E 0 80 33 00
        E 0 80 64 00
        E 0 80 70 00
        E 0 90 18 60
        E 0 90 2c 60
        E 0 90 40 60
        E 0 90 48 60
        E 0 90 4c 60
        E 0 90 54 60
        E 0 90 58 60
        E 0 90 60 60
        E 0 90 64 60
        E 80 80 18 00
        E 0 80 2c 00
        E 0 80 40 00
        E 0 80 48 00
        E 0 80 4c 00
        E 0 80 54 00
        E 0 80 58 00
        E 0 80 60 00
        E 0 80 64 00
        E 240 90 18 60
        E 0 90 2a 60
        E 0 90 60 60
        E 0 90 63 60
        E 80 80 18 00
        E 0 80 2a 00
        E 0 80 60 00
        E 0 80 63 00
        E 80 90 1a 60
        E 0 90 2a 60
        E 0 90 3d 60
        E 0 90 49 60
        E 0 90 4b 60
        E 0 90 55 60
        E 0 90 57 60
        E 0 90 61 60
        E 0 90 63 60
        E 80 80 1a 00
        E 0 80 2a 00
        E 0 80 3d 00
        E 0 80 49 00
        E 0 80 4b 00
        E 0 80 55 00
        E 0 80 57 00
        E 0 80 61 00
        E 0 80 63 00
        E 240 90 18 60
        E 0 90 2a 60
        E 0 90 60 60
        E 0 90 63 60
        E 80 80 18 00
        E 0 80 2a 00
        E 0 80 60 00
        E 0 80 63 00
        E 80 90 18 60
        E 0 90 2a 60
        E 0 90 3f 60
        E 0 90 48 60
        E 0 90 4b 60
        E 0 90 54 60
        E 0 90 57 60
        E 0 90 60 60
        E 0 90 63 60
        E 80 80 18 00
        E 0 80 2a 00
        E 0 80 3f 00
        E 0 80 48 00
        E 0 80 4b 00
        E 0 80 54 00
        E 0 80 57 00
        E 0 80 60 00
        E 0 80 63 00
        E 240 90 18 60
        E 0 90 2b 60
        E 0 90 60 60
        E 0 90 63 60
        E 80 80 18 00
        E 0 80 2b 00
        E 0 80 60 00
        E 0 80 63 00
        E 80 90 1a 60
        E 0 90 2a 60
        E 0 90 3d 60
        E 0 90 49 60
        E 0 90 4b 60
        E 0 90 55 60
        E 0 90 57 60
        E 0 90 61 60
        E 0 90 63 60
        E 80 80 1a 00
        E 0 80 2a 00
        E 0 80 3d 00
        E 0 80 49 00
        E 0 80 4b 00
        E 0 80 55 00
        E 0 80 57 00
        E 0 80 61 00
        E 0 80 63 00
        E 80 90 18 60
        E 0 90 2b 60
        E 0 90 60 60
        E 0 90 63 60
        E 80 80 18 00
        E 0 80 2b 00
        E 0 80 60 00
        E 0 80 63 00
        E 80 90 1b 60
        E 0 90 61 60
        E 80 80 1b 00
        E 0 80 61 00
        E 80 90 18 60
        E 0 90 2b 60
        E 0 90 3f 60
        E 0 90 48 60
        E 0 90 4b 60
        E 0 90 54 60
        E 0 90 57 60
        E 0 90 60 60
        E 0 90 63 60
        E 80 80 18 00
        E 0 80 2b 00
        E 0 80 3f 00
        E 0 80 48 00
        E 0 80 4b 00
        E 0 80 54 00
        E 0 80 57 00
        E 0 80 60 00
        E 0 80 63 00
        E 80 90 2a 60
        E 0 90 63 60
        E 80 80 2a 00
        E 0 80 63 00
        E 80 90 18 60
        E 0 90 2b 60
        E 0 90 60 60
        E 0 90 63 60
        E 80 80 18 00
        E 0 80 2b 00
        E 0 80 60 00
        E 0 80 63 00
        E 80 90 1a 60
        E 0 90 2a 60
        E 0 90 3d 60
        E 0 90 49 60
        E 0 90 4b 60
        E 0 90 55 60
        E 0 90 57 60
        E 0 90 61 60
        E 0 90 63 60
        E 80 80 1a 00
        E 0 80 2a 00
        E 0 80 3d 00
        E 0 80 49 00
        E 0 80 4b 00
        E 0 80 55 00
        E 0 80 57 00
        E 0 80 61 00
        E 0 80 63 00
        E 240 90 18 60
        E 0 90 2b 60
        E 0 90 60 60
        E 0 90 63 60
        E 80 80 18 00
        E 0 80 2b 00
        E 0 80 60 00
        E 0 80 63 00
        E 80 90 18 60
        E 0 90 2a 60
        E 0 90 3f 60
        E 0 90 48 60
        E 0 90 4b 60
        E 0 90 54 60
        E 0 90 57 60
        E 0 90 60 60
        E 0 90 63 60
        E 80 80 18 00
        E 0 80 2a 00
        E 0 80 3f 00
        E 0 80 48 00
        E 0 80 4b 00
        E 0 80 54 00
        E 0 80 57 00
        E 0 80 60 00
        E 0 80 63 00
        E 80 90 2a 60
        E 0 90 63 60
        E 80 80 2a 00
        E 0 80 63 00
        E 80 90 18 60
        E 0 90 2a 60
        E 0 90 60 60
        E 0 90 63 60
        E 80 80 18 00
        E 0 80 2a 00
        E 0 80 60 00
        E 0 80 63 00
        E 80 90 1a 60
        E 0 90 2a 60
        E 0 90 3d 60
        E 0 90 49 60
        E 0 90 4b 60
        E 0 90 55 60
        E 0 90 57 60
        E 0 90 61 60
        E 0 90 63 60
        E 80 80 1a 00
        E 0 80 2a 00
        E 0 80 3d 00
        E 0 80 49 00
        E 0 80 4b 00
        E 0 80 55 00
        E 0 80 57 00
        E 0 80 61 00
        E 0 80 63 00
        E 80 90 18 60
        E 0 90 2b 60
        E 0 90 60 60
        E 0 90 63 60
        E 80 80 18 00
        E 0 80 2b 00
        E 0 80 60 00
        E 0 80 63 00
        E 80 90 1a 60
        E 0 90 2a 60
        E 0 90 61 60
        E 0 90 63 60
        E 80 80 1a 00
        E 0 80 2a 00
        E 0 80 61 00
        E 0 80 63 00
        E 80 90 18 60
        E 0 90 2a 60
        E 0 90 3f 60
        E 0 90 48 60
        E 0 90 4b 60
        E 0 90 54 60
        E 0 90 57 60
        E 0 90 60 60
        E 0 90 63 60
        E 80 80 18 00
        E 0 80 2a 00
        E 0 80 3f 00
        E 0 80 48 00
        E 0 80 4b 00
        E 0 80 54 00
        E 0 80 57 00
        E 0 80 60 00
        E 0 80 63 00
        E 80 90 2b 60
        E 0 90 63 60
        E 80 80 2b 00
        E 0 80 63 00
        E 80 90 18 60
        E 0 90 2a 60
        E 0 90 60 60
        E 0 90 63 60
        E 80 80 18 00
        E 0 80 2a 00
        E 0 80 60 00
        E 0 80 63 00
        E 80 90 1a 60
        E 0 90 2a 60
        E 0 90 3d 60
        E 0 90 49 60
        E 0 90 4b 60
        E 0 90 55 60
        E 0 90 57 60
        E 0 90 61 60
        E 0 90 63 60
        E 80 80 1a 00
        E 0 80 2a 00
        E 0 80 3d 00
        E 0 80 49 00
        E 0 80 4b 00
        E 0 80 55 00
        E 0 80 57 00
        E 0 80 61 00
        E 0 80 63 00
        E 80 90 2b 60
        E 0 90 63 60
        E 80 80 2b 00
        E 0 80 63 00
        E 80 90 18 60
        E 0 90 2a 60
        E 0 90 60 60
        E 0 90 63 60
        E 80 80 18 00
        E 0 80 2a 00
        E 0 80 60 00
        E 0 80 63 00
        E 80 90 18 60
        E 0 90 2b 60
        E 0 90 3f 60
        E 0 90 48 60
        E 0 90 4b 60
        E 0 90 54 60
        E 0 90 57 60
        E 0 90 60 60
        E 0 90 63 60
        E 80 80 18 00
        E 0 80 2b 00
        E 0 80 3f 00
        E 0 80 48 00
        E 0 80 4b 00
        E 0 80 54 00
        E 0 80 57 00
        E 0 80 60 00
        E 0 80 63 00
        E 80 90 2a 60
        E 0 90 63 60
        E 80 80 2a 00
        E 0 80 63 00
        E 80 90 18 60
        E 0 90 2b 60
        E 0 90 60 60
        E 0 90 63 60
        E 80 80 18 00
        E 0 80 2b 00
        E 0 80 60 00
        E 0 80 63 00
        E 80 90 1a 60
        E 0 90 2a 60
        E 0 90 3d 60
        E 0 90 49 60
        E 0 90 4b 60
        E 0 90 55 60
        E 0 90 57 60
        E 0 90 61 60
        E 0 90 63 60
        E 80 80 1a 00
        E 0 80 2a 00
        E 0 80 3d 00
        E 0 80 49 00
        E 0 80 4b 00
        E 0 80 55 00
        E 0 80 57 00
        E 0 80 61 00
        E 0 80 63 00
        E 80 90 18 60
        E 0 90 2b 60
        E 0 90 60 60
        E 0 90 63 60
        E 80 80 18 00
        E 0 80 2b 00
        E 0 80 60 00
        E 0 80 63 00
        E 80 90 1a 60
        E 0 90 2a 60
        E 0 90 61 60
        E 0 90 63 60
        E 80 80 1a 00
        E 0 80 2a 00
        E 0 80 61 00
        E 0 80 63 00
        E 80 90 18 60
        E 0 90 2a 60
        E 0 90 3f 60
        E 0 90 48 60
        E 0 90 4b 60
        E 0 90 54 60
        E 0 90 57 60
        E 0 90 60 60
        E 0 90 63 60
        E 80 80 18 00
        E 0 80 2a 00
        E 0 80 3f 00
        E 0 80 48 00
        E 0 80 4b 00
        E 0 80 54 00
        E 0 80 57 00
        E 0 80 60 00
        E 0 80 63 00
        E 80 90 2b 60
        E 0 90 63 60
        E 80 80 2b 00
        E 0 80 63 00
        E 80 90 18 60
        E 0 90 2a 60
        E 0 90 60 60
        E 0 90 63 60
        E 80 80 18 00
        E 0 80 2a 00
        E 0 80 60 00
        E 0 80 63 00
        E 80 90 1a 60
        E 0 90 2a 60
        E 0 90 3d 60
        E 0 90 49 60
        E 0 90 4b 60
        E 0 90 55 60
        E 0 90 57 60
        E 0 90 61 60
        E 0 90 63 60
        E 80 80 1a 00
        E 0 80 2a 00
        E 0 80 3d 00
        E 0 80 49 00
        E 0 80 4b 00
        E 0 80 55 00
        E 0 80 57 00
        E 0 80 61 00
        E 0 80 63 00
        E 80 90 2b 60
        E 0 90 63 60
        E 80 80 2b 00
        E 0 80 63 00
        E 80 90 18 60
        E 0 90 2a 60
        E 0 90 60 60
        E 0 90 63 60
        E 80 80 18 00
        E 0 80 2a 00
        E 0 80 60 00
        E 0 80 63 00
        E 80 90 18 60
        E 0 90 2b 60
        E 0 90 3f 60
        E 0 90 48 60
        E 0 90 4b 60
        E 0 90 54 60
        E 0 90 57 60
        E 0 90 60 60
        E 0 90 63 60
        E 0 90 78 60
        E 0 90 79 60
        E 0 90 7a 60
        E 0 90 7b 60
        E 0 90 7c 60
        E 80 80 18 00
        E 0 80 2b 00
        E 0 80 3f 00
        E 0 80 48 00
        E 0 80 4b 00
        E 0 80 54 00
        E 0 80 57 00
        E 0 80 60 00
        E 0 80 63 00
        E 80 90 1b 60
        E 0 90 61 60
        E 80 80 1b 00
        E 0 80 61 00
        E 0 90 1a 60
        E 0 90 55 60
        E 0 90 61 60
        E 80 80 1a 00
        E 0 80 55 00
        E 0 80 61 00
        E 0 90 1b 60
        E 0 90 61 60
        E 80 80 1b 00
        E 0 80 61 00
        E 0 90 1a 60
        E 0 90 61 60
        E 80 80 1a 00
        E 0 80 61 00
        E 0 90 2f 60
        E 0 90 3e 60
        E 0 90 4a 60
        E 0 90 56 60
        E 0 90 62 60
        E 0 90 6e 60
        E 80 80 2f 00
        E 0 80 3e 00
        E 0 80 4a 00
        E 0 80 56 00
        E 0 80 62 00
        E 0 80 6e 00
        E 0 90 2e 60
        E 0 90 62 60
        E 0 90 6e 60
        E 80 80 2e 00
        E 0 80 62 00
        E 0 80 6e 00
        E 0 90 2f 60
        E 0 90 62 60
        E 0 90 6e 60
        E 80 80 2f 00
        E 0 80 62 00
        E 0 80 6e 00
        E 0 90 2e 60
        E 0 90 56 60
        E 0 90 62 60
        E 0 90 6e 60
        E 80 80 2e 00
        E 0 80 56 00
        E 0 80 62 00
        E 0 80 6e 00
        E 0 90 31 60
        E 0 90 63 60
        E 0 90 6f 60
        E 80 80 31 00
        E 0 80 63 00
        E 0 80 6f 00
        E 0 90 30 60
        E 0 90 63 60
        E 0 90 6f 60
        E 80 80 30 00
        E 0 80 63 00
        E 0 80 6f 00
        E 0 90 18 60
        E 0 90 26 60
        E 0 90 40 60
        E 0 90 48 60
        E 0 90 4c 60
        E 0 90 54 60
        E 0 90 58 60
        E 0 90 60 60
        E 0 90 64 60
        E 1 80 78 00
        E 0 80 79 00
        E 0 80 7a 00
        E 0 80 7b 00
        E 0 80 7c 00
        E 79 80 18 00
        E 0 80 26 00
        E 0 80 40 00
        E 0 80 48 00
        E 0 80 4c 00
        E 0 80 54 00
        E 0 80 58 00
        E 0 80 60 00
        E 0 80 64 00
        E 0 90 18 60
        E 0 90 60 60
        E 80 80 18 00
        E 0 80 60 00
        E 0 90 18 60
        E 0 90 60 60
        E 80 80 18 00
        E 0 80 60 00
        E 0 90 18 60
        E 0 90 54 60
        E 0 90 60 60
        E 80 80 18 00
        E 0 80 54 00
        E 0 80 60 00
        E 0 90 18 60
        E 0 90 60 60
        E 80 80 18 00
        E 0 80 60 00
        E 0 90 18 60
        E 0 90 60 60
        E 80 80 18 00
        E 0 80 60 00
        E 0 90 18 60
        E 0 90 1a 60
        E 0 90 2a 60
        E 0 90 3d 60
        E 0 90 49 60
        E 0 90 4b 60
        E 0 90 54 60
        E 0 90 55 60
        E 0 90 57 60
        E 0 90 60 60
        E 0 90 61 60
        E 0 90 63 60
        E 80 80 18 00
        E 0 80 1a 00
        E 0 80 2a 00
        E 0 80 3d 00
        E 0 80 49 00
        E 0 80 4b 00
        E 0 80 54 00
        E 0 80 55 00
        E 0 80 57 00
        E 0 80 60 00
        E 0 80 61 00
        E 0 80 63 00
        E 0 90 18 60
        E 0 90 60 60
        E 80 80 18 00
        E 0 80 60 00
        E 0 90 18 60
        E 0 90 60 60
        E 80 80 18 00
        E 0 80 60 00
        E 0 90 18 60
        E 0 90 54 60
        E 0 90 60 60
        E 80 80 18 00
        E 0 80 54 00
        E 0 80 60 00
        E 0 90 18 60
        E 0 90 60 60
        E 80 80 18 00
        E 0 80 60 00
        E 0 90 18 60
        E 0 90 60 60
        E 80 80 18 00
        E 0 80 60 00
        E 0 90 18 60
        E 0 90 1a 60
        E 0 90 2a 60
        E 0 90 3d 60
        E 0 90 49 60
        E 0 90 4b 60
        E 0 90 54 60
        E 0 90 55 60
        E 0 90 57 60
        E 0 90 60 60
        E 0 90 61 60
        E 0 90 63 60
        E 80 80 18 00
        E 0 80 1a 00
        E 0 80 2a 00
        E 0 80 3d 00
        E 0 80 49 00
        E 0 80 4b 00
        E 0 80 54 00
        E 0 80 55 00
        E 0 80 57 00
        E 0 80 60 00
        E 0 80 61 00
        E 0 80 63 00
        E 0 90 18 60
        E 0 90 60 60
        E 80 80 18 00
        E 0 80 60 00
        E 0 90 18 60
        E 0 90 60 60
        E 80 80 18 00
        E 0 80 60 00
        E 0 90 18 60
        E 0 90 54 60
        E 0 90 60 60
        E 80 80 18 00
        E 0 80 54 00
        E 0 80 60 00
        E 0 90 18 60
        E 0 90 60 60
        E 80 80 18 00
        E 0 80 60 00
        E 0 90 18 60
        E 0 90 60 60
        E 80 80 18 00
        E 0 80 60 00
        E 0 90 18 60
        E 0 90 1a 60
        E 0 90 2a 60
        E 0 90 3d 60
        E 0 90 49 60
        E 0 90 4b 60
        E 0 90 54 60
        E 0 90 55 60
        E 0 90 57 60
        E 0 90 60 60
        E 0 90 61 60
        E 0 90 63 60
        E 80 80 18 00
        E 0 80 1a 00
        E 0 80 2a 00
        E 0 80 3d 00
        E 0 80 49 00
        E 0 80 4b 00
        E 0 80 54 00
        E 0 80 55 00
        E 0 80 57 00
        E 0 80 60 00
        E 0 80 61 00
        E 0 80 63 00
        E 0 90 18 60
        E 0 90 60 60
        E 80 80 18 00
        E 0 80 60 00
        E 0 90 18 60
        E 0 90 60 60
        E 80 80 18 00
        E 0 80 60 00
        E 0 90 18 60
        E 0 90 54 60
        E 0 90 60 60
        E 80 80 18 00
        E 0 80 54 00
        E 0 80 60 00
        E 0 90 18 60
        E 0 90 60 60
        E 80 80 18 00
        E 0 80 60 00
        E 0 90 18 60
        E 0 90 60 60
        E 80 80 18 00
        E 0 80 60 00
        E 0 90 18 60
        E 0 90 1a 60
        E 0 90 2a 60
        E 0 90 3d 60
        E 0 90 49 60
        E 0 90 4b 60
        E 0 90 54 60
        E 0 90 55 60
        E 0 90 57 60
        E 0 90 60 60
        E 0 90 61 60
        E 0 90 63 60
        E 80 80 18 00
        E 0 80 1a 00
        E 0 80 2a 00
        E 0 80 3d 00
        E 0 80 49 00
        E 0 80 4b 00
        E 0 80 54 00
        E 0 80 55 00
        E 0 80 57 00
        E 0 80 60 00
        E 0 80 61 00
        E 0 80 63 00
        E 0 90 18 60
        E 0 90 60 60
        E 80 80 18 00
        E 0 80 60 00
        E 0 90 18 60
        E 0 90 60 60
        E 80 80 18 00
        E 0 80 60 00
        E 0 90 18 60
        E 0 90 54 60
        E 0 90 60 60
        E 80 80 18 00
        E 0 80 54 00
        E 0 80 60 00
        E 0 90 18 60
        E 0 90 60 60
        E 80 80 18 00
        E 0 80 60 00
        E 0 90 18 60
        E 0 90 60 60
        E 80 80 18 00
        E 0 80 60 00
        E 0 90 18 60
        E 0 90 1a 60
        E 0 90 2a 60
        E 0 90 3d 60
        E 0 90 49 60
        E 0 90 4b 60
        E 0 90 54 60
        E 0 90 55 60
        E 0 90 57 60
        E 0 90 60 60
        E 0 90 61 60
        E 0 90 63 60
        E 80 80 18 00
        E 0 80 1a 00
        E 0 80 2a 00
        E 0 80 3d 00
        E 0 80 49 00
        E 0 80 4b 00
        E 0 80 54 00
        E 0 80 55 00
        E 0 80 57 00
        E 0 80 60 00
        E 0 80 61 00
        E 0 80 63 00
        E 0 90 18 60
        E 0 90 60 60
        E 80 80 18 00
        E 0 80 60 00
        E 0 90 18 60
        E 0 90 60 60
        E 80 80 18 00
        E 0 80 60 00
        E 0 90 18 60
        E 0 90 54 60
        E 0 90 60 60
        E 80 80 18 00
        E 0 80 54 00
        E 0 80 60 00
        E 0 90 18 60
        E 0 90 60 60
        E 80 80 18 00
        E 0 80 60 00
        E 0 90 18 60
        E 0 90 60 60
        E 80 80 18 00
        E 0 80 60 00
        E 0 90 18 60
        E 0 90 1a 60
        E 0 90 2a 60
        E 0 90 3d 60
        E 0 90 49 60
        E 0 90 4b 60
        E 0 90 54 60
        E 0 90 55 60
        E 0 90 57 60
        E 0 90 60 60
        E 0 90 61 60
        E 0 90 63 60
        E 80 80 18 00
        E 0 80 1a 00
        E 0 80 2a 00
        E 0 80 3d 00
        E 0 80 49 00
        E 0 80 4b 00
        E 0 80 54 00
        E 0 80 55 00
        E 0 80 57 00
        E 0 80 60 00
        E 0 80 61 00
        E 0 80 63 00
        E 0 90 18 60
        E 0 90 60 60
        E 80 80 18 00
        E 0 80 60 00
        E 0 90 18 60
        E 0 90 60 60
        E 80 80 18 00
        E 0 80 60 00
        E 0 90 18 60
        E 0 90 54 60
        E 0 90 60 60
        E 80 80 18 00
        E 0 80 54 00
        E 0 80 60 00
        E 0 90 18 60
        E 0 90 60 60
        E 80 80 18 00
        E 0 80 60 00
        E 0 90 18 60
        E 0 90 60 60
        E 80 80 18 00
        E 0 80 60 00
        E 0 90 18 60
        E 0 90 1a 60
        E 0 90 2a 60
        E 0 90 3d 60
        E 0 90 49 60
        E 0 90 4b 60
        E 0 90 54 60
        E 0 90 55 60
        E 0 90 57 60
        E 0 90 60 60
        E 0 90 61 60
        E 0 90 63 60
        E 80 80 18 00
        E 0 80 1a 00
        E 0 80 2a 00
        E 0 80 3d 00
        E 0 80 49 00
        E 0 80 4b 00
        E 0 80 54 00
        E 0 80 55 00
        E 0 80 57 00
        E 0 80 60 00
        E 0 80 61 00
        E 0 80 63 00
        E 0 90 18 60
        E 0 90 60 60
        E 80 80 18 00
        E 0 80 60 00
        E 0 90 18 60
        E 0 90 30 60
        E 0 90 60 60
        E 0 90 63 60
        E 0 90 6f 60
        E 80 80 18 00
        E 0 80 30 00
        E 0 80 60 00
        E 0 80 63 00
        E 0 80 6f 00
        E 0 90 18 60
        E 0 90 31 60
        E 0 90 54 60
        E 0 90 57 60
        E 0 90 60 60
        E 0 90 63 60
        E 0 90 6f 60
        E 80 80 18 00
        E 0 80 31 00
        E 0 80 54 00
        E 0 80 57 00
        E 0 80 60 00
        E 0 80 63 00
        E 0 80 6f 00
        E 0 90 18 60
        E 0 90 32 60
        E 0 90 60 60
        E 0 90 64 60
        E 0 90 70 60
        E 80 80 18 00
        E 0 80 32 00
        E 0 80 60 00
        E 0 80 64 00
        E 0 80 70 00
        E 0 90 18 60
        E 0 90 33 60
        E 0 90 60 60
        E 0 90 64 60
        E 0 90 70 60
        E 80 80 18 00
        E 0 80 33 00
        E 0 80 60 00
        E 0 80 64 00
        E 0 80 70 00
        E 0 90 18 60
        E 0 90 2c 60
        E 0 90 40 60
        E 0 90 48 60
        E 0 90 4c 60
        E 0 90 54 60
        E 0 90 58 60
        E 0 90 60 60
        E 0 90 64 60
        E 80 80 18 00
        E 0 80 2c 00
        E 0 80 40 00
        E 0 80 48 00
        E 0 80 4c 00
        E 0 80 54 00
        E 0 80 58 00
        E 0 80 60 00
        E 0 80 64 00
        E 240 90 18 60
        E 0 90 2b 60
        E 0 90 60 60
        E 0 90 63 60
        E 80 80 18 00
        E 0 80 2b 00
        E 0 80 60 00
        E 0 80 63 00
        E 80 90 1a 60
        E 0 90 2a 60
        E 0 90 3d 60
        E 0 90 49 60
        E 0 90 4b 60
        E 0 90 55 60
        E 0 90 57 60
        E 0 90 61 60
        E 0 90 63 60
        E 80 80 1a 00
        E 0 80 2a 00
        E 0 80 3d 00
        E 0 80 49 00
        E 0 80 4b 00
        E 0 80 55 00
        E 0 80 57 00
        E 0 80 61 00
        E 0 80 63 00
        E 80 90 2b 60
        E 0 90 63 60
        E 80 80 2b 00
        E 0 80 63 00
        E 80 90 18 60
        E 0 90 2a 60
        E 0 90 60 60
        E 0 90 63 60
        E 80 80 18 00
        E 0 80 2a 00
        E 0 80 60 00
        E 0 80 63 00
        E 80 90 18 60
        E 0 90 2b 60
        E 0 90 3f 60
        E 0 90 48 60
        E 0 90 4b 60
        E 0 90 54 60
        E 0 90 57 60
        E 0 90 60 60
        E 0 90 63 60
        E 80 80 18 00
        E 0 80 2b 00
        E 0 80 3f 00
        E 0 80 48 00
        E 0 80 4b 00
        E 0 80 54 00
        E 0 80 57 00
        E 0 80 60 00
        E 0 80 63 00
        E 80 90 2a 60
        E 0 90 63 60
        E 80 80 2a 00
        E 0 80 63 00
        E 80 90 18 60
        E 0 90 2b 60
        E 0 90 60 60
        E 0 90 63 60
        E 80 80 18 00
        E 0 80 2b 00
        E 0 80 60 00
        E 0 80 63 00
        E 80 90 1a 60
        E 0 90 2a 60
        E 0 90 3d 60
        E 0 90 49 60
        E 0 90 4b 60
        E 0 90 55 60
        E 0 90 57 60
        E 0 90 61 60
        E 0 90 63 60
        E 80 80 1a 00
        E 0 80 2a 00
        E 0 80 3d 00
        E 0 80 49 00
        E 0 80 4b 00
        E 0 80 55 00
        E 0 80 57 00
        E 0 80 61 00
        E 0 80 63 00
        E 80 90 18 60
        E 0 90 2b 60
        E 0 90 60 60
        E 0 90 63 60
        E 80 80 18 00
        E 0 80 2b 00
        E 0 80 60 00
        E 0 80 63 00
        E 80 90 1a 60
        E 0 90 2a 60
        E 0 90 61 60
        E 0 90 63 60
        E 80 80 1a 00
        E 0 80 2a 00
        E 0 80 61 00
        E 0 80 63 00
        E 80 90 18 60
        E 0 90 2a 60
        E 0 90 3f 60
        E 0 90 48 60
        E 0 90 4b 60
        E 0 90 54 60
        E 0 90 57 60
        E 0 90 60 60
        E 0 90 63 60
        E 80 80 18 00
        E 0 80 2a 00
        E 0 80 3f 00
        E 0 80 48 00
        E 0 80 4b 00
        E 0 80 54 00
        E 0 80 57 00
        E 0 80 60 00
        E 0 80 63 00
        E 80 90 2b 60
        E 0 90 63 60
        E 80 80 2b 00
        E 0 80 63 00
        E 80 90 18 60
        E 0 90 2a 60
        E 0 90 60 60
        E 0 90 63 60
        E 80 80 18 00
        E 0 80 2a 00
        E 0 80 60 00
        E 0 80 63 00
        E 80 90 1a 60
        E 0 90 2a 60
        E 0 90 3d 60
        E 0 90 49 60
        E 0 90 4b 60
        E 0 90 55 60
        E 0 90 57 60
        E 0 90 61 60
        E 0 90 63 60
        E 80 80 1a 00
        E 0 80 2a 00
        E 0 80 3d 00
        E 0 80 49 00
        E 0 80 4b 00
        E 0 80 55 00
        E 0 80 57 00
        E 0 80 61 00
        E 0 80 63 00
        E 80 90 2b 60
        E 0 90 63 60
        E 80 80 2b 00
        E 0 80 63 00
        E 80 90 18 60
        E 0 90 2a 60
        E 0 90 60 60
        E 0 90 63 60
        E 80 80 18 00
        E 0 80 2a 00
        E 0 80 60 00
        E 0 80 63 00
        E 80 90 18 60
        E 0 90 2b 60
        E 0 90 3f 60
        E 0 90 48 60
        E 0 90 4b 60
        E 0 90 54 60
        E 0 90 57 60
        E 0 90 60 60
        E 0 90 63 60
        E 80 80 18 00
        E 0 80 2b 00
        E 0 80 3f 00
        E 0 80 48 00
        E 0 80 4b 00
        E 0 80 54 00
        E 0 80 57 00
        E 0 80 60 00
        E 0 80 63 00
        E 80 90 2a 60
        E 0 90 63 60
        E 80 80 2a 00
        E 0 80 63 00
        E 80 90 18 60
        E 0 90 2b 60
        E 0 90 60 60
        E 0 90 63 60
        E 80 80 18 00
        E 0 80 2b 00
        E 0 80 60 00
        E 0 80 63 00
        E 0 90 18 60
        E 0 90 60 60
        E 80 80 18 00
        E 0 80 60 00
        E 0 90 1a 60
        E 0 90 2a 60
        E 0 90 3d 60
        E 0 90 49 60
        E 0 90 4b 60
        E 0 90 55 60
        E 0 90 57 60
        E 0 90 61 60
        E 0 90 63 60
        E 80 80 1a 00
        E 0 80 2a 00
        E 0 80 3d 00
        E 0 80 49 00
        E 0 80 4b 00
        E 0 80 55 00
        E 0 80 57 00
        E 0 80 61 00
        E 0 80 63 00
        E 240 90 18 60
        E 0 90 60 60
        E 80 80 18 00
        E 0 80 60 00
        E 0 90 18 60
        E 0 90 60 60
        E 80 80 18 00
        E 0 80 60 00
        E 0 90 1a 60
        E 0 90 26 60
        E 0 90 3d 60
        E 0 90 49 60
        E 0 90 4c 60
        E 0 90 55 60
        E 0 90 58 60
        E 0 90 61 60
        E 0 90 64 60
        E 80 80 1a 00
        E 0 80 26 00
        E 0 80 3d 00
        E 0 80 49 00
        E 0 80 4c 00
        E 0 80 55 00
        E 0 80 58 00
        E 0 80 61 00
        E 0 80 64 00
        E 80 90 18 60
        E 0 90 60 60
        E 80 80 18 00
        E 0 80 60 00
        E 80 90 18 60
        E 0 90 60 60
        E 80 80 18 00
        E 0 80 60 00
        E 80 90 1a 60
        E 0 90 26 60
        E 0 90 3d 60
        E 0 90 49 60
        E 0 90 4c 60
        E 0 90 55 60
        E 0 90 58 60
        E 0 90 61 60
        E 0 90 64 60
        E 80 80 1a 00
        E 0 80 26 00
        E 0 80 3d 00
        E 0 80 49 00
        E 0 80 4c 00
        E 0 80 55 00
        E 0 80 58 00
        E 0 80 61 00
        E 0 80 64 00
        E 80 90 18 60
        E 0 90 60 60
        E 80 80 18 00
        E 0 80 60 00
        E 80 90 18 60
        E 0 90 60 60
        E 80 80 18 00
        E 0 80 60 00
        E 80 90 1a 60
        E 0 90 26 60
        E 0 90 3d 60
        E 0 90 49 60
        E 0 90 4c 60
        E 0 90 55 60
        E 0 90 58 60
        E 0 90 61 60
        E 0 90 64 60
        E 80 80 1a 00
        E 0 80 26 00
        E 0 80 3d 00
        E 0 80 49 00
        E 0 80 4c 00
        E 0 80 55 00
        E 0 80 58 00
        E 0 80 61 00
        E 0 80 64 00
        E 80 90 18 60
        E 0 90 60 60
        E 80 80 18 00
        E 0 80 60 00
        E 80 90 1a 60
        E 0 90 26 60
        E 0 90 61 60
        E 0 90 64 60
        E 80 80 1a 00
        E 0 80 26 00
        E 0 80 61 00
        E 0 80 64 00
        E 80 90 18 60
        E 0 90 3c 60
        E 0 90 48 60
        E 0 90 54 60
        E 0 90 60 60
        E 80 80 18 00
        E 0 80 3c 00
        E 0 80 48 00
        E 0 80 54 00
        E 0 80 60 00
        E 80 90 1a 60
        E 0 90 26 60
        E 0 90 61 60
        E 0 90 64 60
        E 80 80 1a 00
        E 0 80 26 00
        E 0 80 61 00
        E 0 80 64 00
        E 80 90 1a 60
        E 0 90 61 60
        E 80 80 1a 00
        E 0 80 61 00
        E 80 90 18 60
        E 0 90 1a 60
        E 0 90 26 60
        E 0 90 3d 60
        E 0 90 49 60
        E 0 90 4c 60
        E 0 90 54 60
        E 0 90 55 60
        E 0 90 58 60
        E 0 90 60 60
        E 0 90 61 60
        E 0 90 64 60
        E 80 80 18 00
        E 0 80 1a 00
        E 0 80 26 00
        E 0 80 3d 00
        E 0 80 49 00
        E 0 80 4c 00
        E 0 80 54 00
        E 0 80 55 00
        E 0 80 58 00
        E 0 80 60 00
        E 0 80 61 00
        E 0 80 64 00
        <X 480 0
          /wFbaWRsZV9yZWFsdGltZV0=
        >
        E 3280 b0 7b 00
        GUID {99C52F88-C54B-4CCD-B038-A5C950AC8E6E}
        IGNTEMPO 0 120.00000000 4 4
        SRCCOLOR 19
        VELLANE 132 38 60
        COLORMAP "C:\Program Files (x86)\REAPER\Data\color_maps\rockband_drums.png"
        BANKPROGRAMFILE "C:\Users\AJFOne23\AppData\Roaming\REAPER/Data/GM.reabank"
        TEXTSTRINGFILE "Text Events List.txt"
        CFGEDITVIEW 101575.006468 268.278351 0 12 0 0 0
        CFGEDIT 1 1 0 0 0 1 1 1 1 1 1 0.16666667 -8 -8 1370 736 1 2 1 2 0.00000000 0 0 0 0 0.500000 1 0 1.000000 64
        KEYSNAP 0 0 "102034050607" 0 "Major"
        EVTFILTER 0 -1 -1 -1 -1 0 1 0 0 -1.00000000 -1.00000000
      >
    >
  >
  <TRACK '{6B7F9B4B-FF4E-4CE6-9E2D-4C9BD5DAED77}'
    NAME "PART GUITAR"
    PEAKCOL 33488896
    BEAT -1
    AUTOMODE 0
    VOLPAN 1.00000000000000 0.00000000000000 -1.00000000000000 -1.00000000000000 1.00000000000000
    MUTESOLO 0 0 0
    IPHASE 0
    ISBUS 0 0
    BUSCOMP 1 0
    SHOWINMIX 1 0.666700 0.500000 1 0.500000 -1 -1 -1
    FREEMODE 0
    SEL 1
    REC 0 4096 1 7 0 0 0
    TRACKHEIGHT 55 0
    INQ 0 0 0 0.5000000000 100 0 0 100
    NCHAN 2
    FX 1
    TRACKID {6B7F9B4B-FF4E-4CE6-9E2D-4C9BD5DAED77}
    PERF 0
    MIDIOUT -1
    <MIDINOTENAMES
      0 116 "OVERDRIVE"
      0 102 "Force HOPO Off"
      0 101 "Force HOPO On"
      0 100 "EXPERT Orange"
      0 99 "EXPERT Blue"
      0 98 "EXPERT Yellow"
      0 97 "EXPERT Red"
      0 96 "EXPERT Green"
      0 88 "HARD Orange"
      0 87 "HARD Blue"
      0 86 "HARD Yellow"
      0 85 "HARD Red"
      0 84 "HARD Green"
      0 76 "MEDIUM Orange"
      0 75 "MEDIUM Blue"
      0 74 "MEDIUM Yellow"
      0 73 "MEDIUM Red"
      0 72 "MEDIUM Green"
      0 64 "EASY Orange"
      0 63 "EASY Blue"
      0 62 "EASY Yellow"
      0 61 "EASY Red"
      0 60 "EASY Green"
      0 59 "Left Hand Highest"
      0 40 "Left Hand Lowest"
      0 58 "-"
      0 57 "-"
      0 56 "-"
      0 55 "-"
      0 54 "-"
      0 53 "-"
      0 52 "-"
      0 51 "-"
      0 50 "-"
      0 49 "-"
      0 48 "-"
      0 47 "-"
      0 46 "-"
      0 45 "-"
      0 44 "-"
      0 43 "-"
      0 42 "-"
      0 41 "-"
      0 115 "----"
      0 95 "----"
      0 89 "Force HOPO On"
      0 77 "----"
      0 65 "----"
      0 119 "----"
      0 120 "BRE (use all 5)"
      0 121 "BRE"
      0 122 "BRE"
      0 123 "BRE"
      0 124 "BRE"
      0 90 "Force HOPO Off"
      0 103 "Solo Marker"
      0 127 "Trill Marker"
      0 125 "----"
    >
    MAINSEND 1 0
    <FXCHAIN
      WNDRECT 0 38 878 585
      SHOW 0
      LASTSEL 1
      DOCKED 0
      BYPASS 1 0
      <VST "VSTi: ReaSynth (Cockos)" "reasynth.dll" 0 ""
        eXNlcu9e7f4AAAAAAgAAAAEAAAAAAAAAAgAAAAAAAAA4AAAAAAAAAA==
        AAAAAO++rd4N8K3eAAAAAAAAAAAAAAAAAAAAADm0SD59y9s+tbSxOQ==
        AAAAALbz/T5VpCs6AAAAAAAAAAAAAAAAAAA=
      >
      FLOATPOS 0 0 0 0
      FXID {52B28C73-185B-48E4-B8F4-1FD7A8848B0F}
      WAK 0
      BYPASS 0 0
      <VST "VSTi: RBN Preview (RBN)" "rbprev_vst.dll" 0 ""
        dnBicu5e7f4AAAAAAgAAAAEAAAAAAAAAAgAAAAAAAAAEAAAAAQAAAA==
        AAAAAAMAqgAAAAAAAAA=
      >
      FLOATPOS 32 32 659 497
      FXID {190BBB08-7A86-476B-BD07-5F71F5CD6F7C}
      WAK 0
    >
    <ITEM
      POSITION 0.00000000000000
      SNAPOFFS 0.00000000000000
      LENGTH 187.82023574328986
      LOOP 0
      ALLTAKES 0
      SEL 1
      FADEIN 1 0.000000 0.000000 1 0
      FADEOUT 1 0.000000 0.000000 1 0
      MUTE 0
      IGUID {81210F06-DA35-41E7-BA75-C6E1C5689733}
      IID 2
      NAME "PART GUITAR"
      VOLPAN 1.000000 0.000000 1.000000 -1.000000
      SOFFS 0.00000000000000 0.00000000000000
      PLAYRATE 1.00000000000000 1 0.00000000000000 -65536
      CHANMODE 0
      GUID {61757875-B3D4-49E4-8483-EE351B7D2386}
      <SOURCE MIDI
        HASDATA 1 480 QN
        POOLEDEVTS {09BD4B27-7894-4B1E-AF28-5053C8CB1010}
        <X 0 0
          /wNQQVJUIEdVSVRBUg==
        >
        <X 3840 0
          /wFbaWRsZV0=
        >
        <X 1920 0
          /wFbcGxheV0=
        >
        E 0 90 60 60
        E 0 90 54 60
        E 0 90 48 60
        E 0 90 3c 60
        E 80 80 60 00
        E 0 80 54 00
        E 0 80 48 00
        E 0 80 3c 00
        E 80 90 60 60
        E 80 80 60 00
        E 80 90 60 60
        E 80 80 60 00
        E 80 90 61 60
        E 0 90 66 60
        E 0 90 55 60
        E 0 90 49 60
        E 80 80 61 00
        E 0 80 66 00
        E 0 80 55 00
        E 0 80 49 00
        E 80 90 61 60
        E 80 80 61 00
        E 80 90 61 60
        E 80 80 61 00
        E 80 90 60 60
        E 0 90 66 60
        E 0 90 54 60
        E 0 90 48 60
        E 0 90 3c 60
        E 80 80 60 00
        E 0 80 66 00
        E 0 80 54 00
        E 0 80 48 00
        E 0 80 3c 00
        E 80 90 60 60
        E 80 80 60 00
        E 80 90 60 60
        E 80 80 60 00
        E 80 90 62 60
        E 0 90 66 60
        E 0 90 56 60
        E 0 90 4a 60
        E 80 80 62 00
        E 0 80 66 00
        E 0 80 56 00
        E 0 80 4a 00
        E 80 90 62 60
        E 80 80 62 00
        E 80 90 61 60
        E 80 80 61 00
        E 80 90 63 60
        E 0 90 66 60
        E 0 90 57 60
        E 0 90 4b 60
        E 0 90 3e 60
        E 80 80 63 00
        E 0 80 66 00
        E 0 80 57 00
        E 0 80 4b 00
        E 0 80 3e 00
        E 80 90 63 60
        E 80 80 63 00
        E 80 90 62 60
        E 0 90 56 60
        E 120 80 56 00
        E 160 80 62 00
        E 120 90 62 60
        E 0 90 56 60
        E 120 80 62 00
        E 0 80 56 00
        E 0 90 62 60
        E 120 80 62 00
        E 0 90 61 60
        E 0 90 66 60
        E 0 90 55 60
        E 0 90 49 60
        E 0 90 3d 60
        E 80 80 61 00
        E 0 80 66 00
        E 0 80 55 00
        E 0 80 49 00
        E 0 80 3d 00
        E 240 90 60 60
        E 80 80 60 00
        E 80 90 64 60
        E 0 90 58 60
        E 0 90 4b 60
        E 120 80 4b 00
        E 240 80 64 00
        E 0 80 58 00
        E 120 90 60 60
        E 0 90 54 60
        E 0 90 48 60
        E 0 90 3c 60
        E 80 80 60 00
        E 0 80 54 00
        E 0 80 48 00
        E 0 80 3c 00
        E 80 90 60 60
        E 80 80 60 00
        E 80 90 60 60
        E 80 80 60 00
        E 80 90 61 60
        E 0 90 66 60
        E 0 90 55 60
        E 0 90 49 60
        E 80 80 61 00
        E 0 80 66 00
        E 0 80 55 00
        E 0 80 49 00
        E 80 90 61 60
        E 80 80 61 00
        E 80 90 61 60
        E 80 80 61 00
        E 80 90 60 60
        E 0 90 66 60
        E 0 90 54 60
        E 0 90 48 60
        E 0 90 3c 60
        E 80 80 60 00
        E 0 80 66 00
        E 0 80 54 00
        E 0 80 48 00
        E 0 80 3c 00
        E 80 90 60 60
        E 80 80 60 00
        E 80 90 60 60
        E 80 80 60 00
        E 80 90 62 60
        E 0 90 66 60
        E 0 90 56 60
        E 0 90 4a 60
        E 80 80 62 00
        E 0 80 66 00
        E 0 80 56 00
        E 0 80 4a 00
        E 80 90 62 60
        E 80 80 62 00
        E 80 90 61 60
        E 80 80 61 00
        E 80 90 63 60
        E 0 90 66 60
        E 0 90 57 60
        E 0 90 4b 60
        E 0 90 3e 60
        E 80 80 63 00
        E 0 80 66 00
        E 0 80 57 00
        E 0 80 4b 00
        E 0 80 3e 00
        E 80 90 63 60
        E 80 80 63 00
        E 80 90 62 60
        E 0 90 56 60
        E 120 80 56 00
        E 160 80 62 00
        E 120 90 62 60
        E 0 90 56 60
        E 120 80 62 00
        E 0 80 56 00
        E 0 90 62 60
        E 120 80 62 00
        E 0 90 61 60
        E 0 90 66 60
        E 0 90 55 60
        E 0 90 49 60
        E 0 90 3d 60
        E 80 80 61 00
        E 0 80 66 00
        E 0 80 55 00
        E 0 80 49 00
        E 0 80 3d 00
        E 240 90 60 60
        E 80 80 60 00
        E 80 90 64 60
        E 0 90 58 60
        E 0 90 4b 60
        E 120 80 4b 00
        E 240 80 64 00
        E 0 80 58 00
        E 120 90 60 60
        E 0 90 74 60
        E 0 90 54 60
        E 0 90 48 60
        E 0 90 3c 60
        E 80 80 60 00
        E 0 80 54 00
        E 0 80 48 00
        E 0 80 3c 00
        E 80 90 60 60
        E 80 80 60 00
        E 80 90 60 60
        E 80 80 60 00
        E 80 90 62 60
        E 0 90 66 60
        E 0 90 56 60
        E 0 90 4a 60
        E 80 80 62 00
        E 0 80 66 00
        E 0 80 56 00
        E 0 80 4a 00
        E 80 90 62 60
        E 80 80 62 00
        E 80 90 62 60
        E 80 80 62 00
        E 80 90 60 60
        E 0 90 66 60
        E 0 90 54 60
        E 0 90 48 60
        E 0 90 3c 60
        E 80 80 60 00
        E 0 80 66 00
        E 0 80 54 00
        E 0 80 48 00
        E 0 80 3c 00
        E 80 90 60 60
        E 80 80 60 00
        E 80 90 60 60
        E 80 80 60 00
        E 80 90 63 60
        E 0 90 66 60
        E 0 90 57 60
        E 0 90 4b 60
        E 80 80 63 00
        E 0 80 66 00
        E 0 80 57 00
        E 0 80 4b 00
        E 80 90 63 60
        E 80 80 63 00
        E 80 90 62 60
        E 80 80 62 00
        E 80 90 64 60
        E 0 90 66 60
        E 0 90 58 60
        E 0 90 4b 60
        E 0 90 3e 60
        E 80 80 64 00
        E 0 80 66 00
        E 0 80 58 00
        E 0 80 4b 00
        E 0 80 3e 00
        E 80 90 64 60
        E 80 80 64 00
        E 80 90 63 60
        E 0 90 57 60
        E 120 80 57 00
        E 160 80 63 00
        E 120 90 63 60
        E 0 90 57 60
        E 120 80 63 00
        E 0 80 57 00
        E 0 90 63 60
        E 120 80 63 00
        E 0 90 62 60
        E 0 90 66 60
        E 0 90 56 60
        E 0 90 4a 60
        E 0 90 3d 60
        E 80 80 62 00
        E 0 80 66 00
        E 0 80 56 00
        E 0 80 4a 00
        E 0 80 3d 00
        E 240 90 61 60
        E 80 80 61 00
        E 80 90 61 60
        E 0 90 55 60
        E 0 90 49 60
        E 120 80 49 00
        E 240 80 61 00
        E 0 80 55 00
        E 120 80 74 00
        E 0 90 60 60
        E 0 90 54 60
        E 0 90 48 60
        E 0 90 3c 60
        E 80 80 60 00
        E 0 80 54 00
        E 0 80 48 00
        E 0 80 3c 00
        E 80 90 60 60
        E 80 80 60 00
        E 80 90 60 60
        E 80 80 60 00
        E 80 90 62 60
        E 0 90 66 60
        E 0 90 56 60
        E 0 90 4a 60
        E 80 80 62 00
        E 0 80 66 00
        E 0 80 56 00
        E 0 80 4a 00
        E 80 90 62 60
        E 80 80 62 00
        E 80 90 62 60
        E 80 80 62 00
        E 80 90 60 60
        E 0 90 66 60
        E 0 90 54 60
        E 0 90 48 60
        E 0 90 3c 60
        E 80 80 60 00
        E 0 80 66 00
        E 0 80 54 00
        E 0 80 48 00
        E 0 80 3c 00
        E 80 90 60 60
        E 80 80 60 00
        E 80 90 60 60
        E 80 80 60 00
        E 80 90 63 60
        E 0 90 66 60
        E 0 90 57 60
        E 0 90 4b 60
        E 80 80 63 00
        E 0 80 66 00
        E 0 80 57 00
        E 0 80 4b 00
        E 80 90 63 60
        E 80 80 63 00
        E 80 90 62 60
        E 80 80 62 00
        E 80 90 64 60
        E 0 90 66 60
        E 0 90 58 60
        E 0 90 4b 60
        E 0 90 3e 60
        E 80 80 64 00
        E 0 80 66 00
        E 0 80 58 00
        E 0 80 4b 00
        E 0 80 3e 00
        E 80 90 64 60
        E 80 80 64 00
        E 80 90 63 60
        E 0 90 57 60
        E 120 80 57 00
        E 160 80 63 00
        E 120 90 63 60
        E 0 90 57 60
        E 120 80 63 00
        E 0 80 57 00
        E 0 90 63 60
        E 120 80 63 00
        E 0 90 62 60
        E 0 90 66 60
        E 0 90 56 60
        E 0 90 4a 60
        E 0 90 3d 60
        E 80 80 62 00
        E 0 80 66 00
        E 0 80 56 00
        E 0 80 4a 00
        E 0 80 3d 00
        E 240 90 61 60
        E 80 80 61 00
        E 80 90 64 60
        E 0 90 58 60
        E 0 90 4b 60
        E 120 80 4b 00
        E 240 80 64 00
        E 0 80 58 00
        E 120 90 60 60
        E 0 90 61 60
        E 0 90 54 60
        E 0 90 55 60
        E 0 90 48 60
        E 0 90 49 60
        E 0 90 3c 60
        E 80 80 60 00
        E 0 80 61 00
        E 0 80 54 00
        E 0 80 55 00
        E 0 80 48 00
        E 0 80 49 00
        E 0 80 3c 00
        E 80 90 60 60
        E 80 80 60 00
        E 80 90 60 60
        E 80 80 60 00
        E 80 90 60 60
        E 0 90 54 60
        E 0 90 48 60
        E 0 90 3c 60
        E 80 80 60 00
        E 0 80 54 00
        E 0 80 48 00
        E 0 80 3c 00
        E 80 90 60 60
        E 80 80 60 00
        E 80 90 60 60
        E 80 80 60 00
        E 80 90 60 60
        E 0 90 61 60
        E 0 90 54 60
        E 0 90 55 60
        E 0 90 48 60
        E 0 90 49 60
        E 0 90 3c 60
        E 80 80 60 00
        E 0 80 61 00
        E 0 80 54 00
        E 0 80 55 00
        E 0 80 48 00
        E 0 80 49 00
        E 0 80 3c 00
        E 80 90 60 60
        E 80 80 60 00
        E 80 90 60 60
        E 80 80 60 00
        E 80 90 60 60
        E 0 90 54 60
        E 0 90 48 60
        E 80 80 60 00
        E 0 80 54 00
        E 0 80 48 00
        E 80 90 61 60
        E 0 90 63 60
        E 80 80 61 00
        E 0 80 63 00
        E 80 90 61 60
        E 0 90 62 60
        E 0 90 65 60
        E 80 80 61 00
        E 0 80 62 00
        E 0 80 65 00
        E 80 90 61 60
        E 0 90 63 60
        E 0 90 65 60
        E 0 90 55 60
        E 0 90 57 60
        E 0 90 49 60
        E 0 90 4a 60
        E 0 90 3e 60
        E 80 80 61 00
        E 0 80 63 00
        E 0 80 65 00
        E 0 80 55 00
        E 0 80 57 00
        E 0 80 49 00
        E 0 80 4a 00
        E 0 80 3e 00
        E 80 90 60 60
        E 80 80 60 00
        E 80 90 60 60
        E 80 80 60 00
        E 80 90 60 60
        E 0 90 54 60
        E 0 90 48 60
        E 80 80 60 00
        E 0 80 54 00
        E 0 80 48 00
        E 80 90 60 60
        E 80 80 60 00
        E 80 90 60 60
        E 80 80 60 00
        E 80 90 63 60
        E 0 90 66 60
        E 0 90 57 60
        E 0 90 4b 60
        E 0 90 3e 60
        E 80 80 63 00
        E 0 80 66 00
        E 0 80 57 00
        E 0 80 4b 00
        E 0 80 3e 00
        E 80 90 63 60
        E 80 80 63 00
        E 80 90 63 60
        E 80 80 63 00
        E 80 90 62 60
        E 0 90 56 60
        E 0 90 4a 60
        E 80 80 62 00
        E 0 80 56 00
        E 0 80 4a 00
        E 80 90 63 60
        E 80 80 63 00
        E 80 90 62 60
        E 80 80 62 00
        E 80 90 60 60
        E 0 90 61 60
        E 0 90 54 60
        E 0 90 55 60
        E 0 90 48 60
        E 0 90 49 60
        E 0 90 3c 60
        E 80 80 60 00
        E 0 80 61 00
        E 0 80 54 00
        E 0 80 55 00
        E 0 80 48 00
        E 0 80 49 00
        E 0 80 3c 00
        E 80 90 60 60
        E 80 80 60 00
        E 80 90 60 60
        E 80 80 60 00
        E 80 90 60 60
        E 0 90 54 60
        E 0 90 48 60
        E 0 90 3c 60
        E 80 80 60 00
        E 0 80 54 00
        E 0 80 48 00
        E 0 80 3c 00
        E 80 90 60 60
        E 80 80 60 00
        E 80 90 60 60
        E 80 80 60 00
        E 80 90 60 60
        E 0 90 61 60
        E 0 90 54 60
        E 0 90 55 60
        E 0 90 48 60
        E 0 90 49 60
        E 0 90 3c 60
        E 80 80 60 00
        E 0 80 61 00
        E 0 80 54 00
        E 0 80 55 00
        E 0 80 48 00
        E 0 80 49 00
        E 0 80 3c 00
        E 80 90 60 60
        E 80 80 60 00
        E 80 90 60 60
        E 80 80 60 00
        E 80 90 60 60
        E 0 90 54 60
        E 0 90 48 60
        E 80 80 60 00
        E 0 80 54 00
        E 0 80 48 00
        E 80 90 61 60
        E 0 90 63 60
        E 80 80 61 00
        E 0 80 63 00
        E 80 90 61 60
        E 0 90 62 60
        E 0 90 65 60
        E 80 80 61 00
        E 0 80 62 00
        E 0 80 65 00
        E 80 90 61 60
        E 0 90 66 60
        E 0 90 55 60
        E 0 90 49 60
        E 0 90 3d 60
        E 80 80 61 00
        E 0 80 66 00
        E 0 80 55 00
        E 0 80 49 00
        E 0 80 3d 00
        E 80 90 61 60
        E 80 80 61 00
        E 80 90 61 60
        E 80 80 61 00
        E 80 90 62 60
        E 0 90 66 60
        E 0 90 56 60
        E 0 90 4a 60
        E 80 80 62 00
        E 0 80 66 00
        E 0 80 56 00
        E 0 80 4a 00
        E 80 90 62 60
        E 80 80 62 00
        E 80 90 62 60
        E 80 80 62 00
        E 80 90 64 60
        E 0 90 66 60
        E 0 90 58 60
        E 0 90 4b 60
        E 0 90 3e 60
        E 80 80 64 00
        E 0 80 66 00
        E 0 80 58 00
        E 0 80 4b 00
        E 0 80 3e 00
        E 80 90 64 60
        E 80 80 64 00
        E 80 90 64 60
        E 80 80 64 00
        E 80 90 63 60
        E 0 90 57 60
        E 0 90 4b 60
        E 80 80 63 00
        E 0 80 57 00
        E 0 80 4b 00
        E 80 90 64 60
        E 80 80 64 00
        E 80 90 63 60
        E 80 80 63 00
        E 80 90 60 60
        E 0 90 61 60
        E 0 90 54 60
        E 0 90 55 60
        E 0 90 48 60
        E 0 90 49 60
        E 0 90 3c 60
        E 80 80 60 00
        E 0 80 61 00
        E 0 80 54 00
        E 0 80 55 00
        E 0 80 48 00
        E 0 80 49 00
        E 0 80 3c 00
        E 80 90 60 60
        E 80 80 60 00
        E 80 90 60 60
        E 80 80 60 00
        E 80 90 60 60
        E 0 90 54 60
        E 0 90 48 60
        E 0 90 3c 60
        E 80 80 60 00
        E 0 80 54 00
        E 0 80 48 00
        E 0 80 3c 00
        E 80 90 60 60
        E 80 80 60 00
        E 80 90 60 60
        E 80 80 60 00
        E 80 90 60 60
        E 0 90 61 60
        E 0 90 54 60
        E 0 90 55 60
        E 0 90 48 60
        E 0 90 49 60
        E 0 90 3c 60
        E 80 80 60 00
        E 0 80 61 00
        E 0 80 54 00
        E 0 80 55 00
        E 0 80 48 00
        E 0 80 49 00
        E 0 80 3c 00
        E 80 90 60 60
        E 80 80 60 00
        E 80 90 60 60
        E 80 80 60 00
        E 80 90 60 60
        E 0 90 54 60
        E 0 90 48 60
        E 80 80 60 00
        E 0 80 54 00
        E 0 80 48 00
        E 80 90 61 60
        E 0 90 63 60
        E 80 80 61 00
        E 0 80 63 00
        E 80 90 61 60
        E 0 90 62 60
        E 0 90 65 60
        E 80 80 61 00
        E 0 80 62 00
        E 0 80 65 00
        E 80 90 61 60
        E 0 90 63 60
        E 0 90 65 60
        E 0 90 55 60
        E 0 90 57 60
        E 0 90 49 60
        E 0 90 4a 60
        E 0 90 3e 60
        E 80 80 61 00
        E 0 80 63 00
        E 0 80 65 00
        E 0 80 55 00
        E 0 80 57 00
        E 0 80 49 00
        E 0 80 4a 00
        E 0 80 3e 00
        E 80 90 60 60
        E 80 80 60 00
        E 80 90 60 60
        E 80 80 60 00
        E 80 90 60 60
        E 0 90 54 60
        E 0 90 48 60
        E 80 80 60 00
        E 0 80 54 00
        E 0 80 48 00
        E 80 90 60 60
        E 80 80 60 00
        E 80 90 60 60
        E 80 80 60 00
        E 80 90 63 60
        E 0 90 66 60
        E 0 90 57 60
        E 0 90 4b 60
        E 0 90 3e 60
        E 80 80 63 00
        E 0 80 66 00
        E 0 80 57 00
        E 0 80 4b 00
        E 0 80 3e 00
        E 80 90 63 60
        E 80 80 63 00
        E 80 90 63 60
        E 80 80 63 00
        E 80 90 62 60
        E 0 90 56 60
        E 0 90 4a 60
        E 80 80 62 00
        E 0 80 56 00
        E 0 80 4a 00
        E 80 90 63 60
        E 80 80 63 00
        E 80 90 62 60
        E 80 80 62 00
        E 80 90 60 60
        E 0 90 61 60
        E 0 90 54 60
        E 0 90 55 60
        E 0 90 48 60
        E 0 90 49 60
        E 0 90 3c 60
        E 80 80 60 00
        E 0 80 61 00
        E 0 80 54 00
        E 0 80 55 00
        E 0 80 48 00
        E 0 80 49 00
        E 0 80 3c 00
        E 80 90 60 60
        E 80 80 60 00
        E 80 90 60 60
        E 80 80 60 00
        E 80 90 60 60
        E 0 90 54 60
        E 0 90 48 60
        E 0 90 3c 60
        E 80 80 60 00
        E 0 80 54 00
        E 0 80 48 00
        E 0 80 3c 00
        E 80 90 60 60
        E 80 80 60 00
        E 80 90 60 60
        E 80 80 60 00
        E 80 90 60 60
        E 0 90 61 60
        E 0 90 54 60
        E 0 90 55 60
        E 0 90 48 60
        E 0 90 49 60
        E 0 90 3c 60
        E 80 80 60 00
        E 0 80 61 00
        E 0 80 54 00
        E 0 80 55 00
        E 0 80 48 00
        E 0 80 49 00
        E 0 80 3c 00
        E 80 90 60 60
        E 80 80 60 00
        E 80 90 60 60
        E 80 80 60 00
        E 80 90 60 60
        E 0 90 54 60
        E 0 90 48 60
        E 80 80 60 00
        E 0 80 54 00
        E 0 80 48 00
        E 80 90 61 60
        E 0 90 63 60
        E 80 80 61 00
        E 0 80 63 00
        E 80 90 61 60
        E 0 90 62 60
        E 0 90 65 60
        E 80 80 61 00
        E 0 80 62 00
        E 0 80 65 00
        E 80 90 61 60
        E 0 90 66 60
        E 0 90 55 60
        E 0 90 49 60
        E 0 90 3d 60
        E 80 80 61 00
        E 0 80 66 00
        E 0 80 55 00
        E 0 80 49 00
        E 0 80 3d 00
        E 80 90 61 60
        E 80 80 61 00
        E 80 90 61 60
        E 80 80 61 00
        E 80 90 62 60
        E 0 90 66 60
        E 0 90 56 60
        E 0 90 4a 60
        E 80 80 62 00
        E 0 80 66 00
        E 0 80 56 00
        E 0 80 4a 00
        E 80 90 62 60
        E 80 80 62 00
        E 80 90 62 60
        E 80 80 62 00
        E 80 90 64 60
        E 0 90 66 60
        E 0 90 58 60
        E 0 90 4b 60
        E 0 90 3e 60
        E 80 80 64 00
        E 0 80 66 00
        E 0 80 58 00
        E 0 80 4b 00
        E 0 80 3e 00
        E 80 90 64 60
        E 80 80 64 00
        E 80 90 64 60
        E 80 80 64 00
        E 80 90 63 60
        E 0 90 57 60
        E 0 90 4b 60
        E 80 80 63 00
        E 0 80 57 00
        E 0 80 4b 00
        E 80 90 64 60
        E 80 80 64 00
        E 80 90 63 60
        E 80 80 63 00
        E 80 90 61 60
        E 0 90 66 60
        E 0 90 55 60
        E 0 90 49 60
        E 0 90 3d 60
        E 80 80 61 00
        E 0 80 66 00
        E 0 80 55 00
        E 0 80 49 00
        E 0 80 3d 00
        E 80 90 61 60
        E 80 80 61 00
        E 80 90 61 60
        E 80 80 61 00
        E 80 90 62 60
        E 0 90 66 60
        E 0 90 56 60
        E 0 90 4a 60
        E 80 80 62 00
        E 0 80 66 00
        E 0 80 56 00
        E 0 80 4a 00
        E 80 90 62 60
        E 80 80 62 00
        E 80 90 62 60
        E 80 80 62 00
        E 80 90 64 60
        E 0 90 66 60
        E 0 90 58 60
        E 0 90 4b 60
        E 0 90 3e 60
        E 80 80 64 00
        E 0 80 66 00
        E 0 80 58 00
        E 0 80 4b 00
        E 0 80 3e 00
        E 240 90 63 60
        E 0 90 57 60
        E 80 80 63 00
        E 0 80 57 00
        E 240 90 64 60
        E 0 90 58 60
        E 80 80 64 00
        E 0 80 58 00
        E 80 90 63 60
        E 80 80 63 00
        E 80 90 61 60
        E 0 90 66 60
        E 0 90 55 60
        E 0 90 49 60
        E 0 90 3d 60
        E 80 80 61 00
        E 0 80 66 00
        E 0 80 55 00
        E 0 80 49 00
        E 0 80 3d 00
        E 80 90 61 60
        E 80 80 61 00
        E 80 90 61 60
        E 80 80 61 00
        E 80 90 62 60
        E 0 90 66 60
        E 0 90 56 60
        E 0 90 4a 60
        E 80 80 62 00
        E 0 80 66 00
        E 0 80 56 00
        E 0 80 4a 00
        E 80 90 62 60
        E 80 80 62 00
        E 80 90 62 60
        E 80 80 62 00
        E 80 90 63 60
        E 0 90 66 60
        E 0 90 57 60
        E 0 90 4b 60
        E 0 90 3e 60
        E 80 80 63 00
        E 0 80 66 00
        E 0 80 57 00
        E 0 80 4b 00
        E 0 80 3e 00
        E 80 90 63 60
        E 80 80 63 00
        E 80 90 63 60
        E 80 80 63 00
        E 80 90 62 60
        E 0 90 56 60
        E 0 90 4a 60
        E 80 80 62 00
        E 0 80 56 00
        E 0 80 4a 00
        E 80 90 63 60
        E 80 80 63 00
        E 80 90 62 60
        E 80 80 62 00
        E 80 90 61 60
        E 0 90 66 60
        E 0 90 55 60
        E 0 90 49 60
        E 0 90 3d 60
        E 80 80 61 00
        E 0 80 66 00
        E 0 80 55 00
        E 0 80 49 00
        E 0 80 3d 00
        E 80 90 61 60
        E 80 80 61 00
        E 80 90 61 60
        E 80 80 61 00
        E 80 90 62 60
        E 0 90 66 60
        E 0 90 56 60
        E 0 90 4a 60
        E 80 80 62 00
        E 0 80 66 00
        E 0 80 56 00
        E 0 80 4a 00
        E 80 90 62 60
        E 80 80 62 00
        E 80 90 62 60
        E 80 80 62 00
        E 80 90 63 60
        E 0 90 66 60
        E 0 90 57 60
        E 0 90 4b 60
        E 0 90 3e 60
        E 80 80 63 00
        E 0 80 66 00
        E 0 80 57 00
        E 0 80 4b 00
        E 0 80 3e 00
        E 240 90 62 60
        E 0 90 56 60
        E 80 80 62 00
        E 0 80 56 00
        E 240 90 63 60
        E 0 90 57 60
        E 80 80 63 00
        E 0 80 57 00
        E 80 90 62 60
        E 80 80 62 00
        E 80 90 60 60
        E 0 90 66 60
        E 0 90 74 60
        E 0 90 54 60
        E 0 90 48 60
        E 0 90 3c 60
        E 80 80 60 00
        E 0 80 66 00
        E 0 80 54 00
        E 0 80 48 00
        E 0 80 3c 00
        E 80 90 60 60
        E 80 80 60 00
        E 80 90 60 60
        E 80 80 60 00
        E 80 90 61 60
        E 0 90 66 60
        E 0 90 55 60
        E 0 90 49 60
        E 80 80 61 00
        E 0 80 66 00
        E 0 80 55 00
        E 0 80 49 00
        E 80 90 61 60
        E 80 80 61 00
        E 80 90 61 60
        E 80 80 61 00
        E 80 90 60 60
        E 0 90 66 60
        E 0 90 54 60
        E 0 90 48 60
        E 0 90 3c 60
        E 80 80 60 00
        E 0 80 66 00
        E 0 80 54 00
        E 0 80 48 00
        E 0 80 3c 00
        E 80 90 60 60
        E 80 80 60 00
        E 80 90 60 60
        E 80 80 60 00
        E 80 90 62 60
        E 0 90 66 60
        E 0 90 56 60
        E 0 90 4a 60
        E 80 80 62 00
        E 0 80 66 00
        E 0 80 56 00
        E 0 80 4a 00
        E 80 90 62 60
        E 80 80 62 00
        E 80 90 61 60
        E 80 80 61 00
        E 80 90 63 60
        E 0 90 66 60
        E 0 90 57 60
        E 0 90 4b 60
        E 0 90 3e 60
        E 80 80 63 00
        E 0 80 66 00
        E 0 80 57 00
        E 0 80 4b 00
        E 0 80 3e 00
        E 80 90 63 60
        E 80 80 63 00
        E 80 90 62 60
        E 0 90 56 60
        E 120 80 56 00
        E 160 80 62 00
        E 120 90 62 60
        E 0 90 56 60
        E 120 80 62 00
        E 0 80 56 00
        E 0 90 62 60
        E 120 80 62 00
        E 0 90 61 60
        E 0 90 66 60
        E 0 90 55 60
        E 0 90 49 60
        E 0 90 3d 60
        E 80 80 61 00
        E 0 80 66 00
        E 0 80 55 00
        E 0 80 49 00
        E 0 80 3d 00
        E 240 90 60 60
        E 80 80 60 00
        E 80 90 64 60
        E 0 90 58 60
        E 0 90 4b 60
        E 120 80 4b 00
        E 240 80 64 00
        E 0 80 58 00
        E 120 80 74 00
        E 0 90 60 60
        E 0 90 54 60
        E 0 90 48 60
        E 0 90 3c 60
        E 80 80 60 00
        E 0 80 54 00
        E 0 80 48 00
        E 0 80 3c 00
        E 80 90 60 60
        E 80 80 60 00
        E 80 90 60 60
        E 80 80 60 00
        E 80 90 61 60
        E 0 90 66 60
        E 0 90 55 60
        E 0 90 49 60
        E 80 80 61 00
        E 0 80 66 00
        E 0 80 55 00
        E 0 80 49 00
        E 80 90 61 60
        E 80 80 61 00
        E 80 90 61 60
        E 80 80 61 00
        E 80 90 60 60
        E 0 90 66 60
        E 0 90 54 60
        E 0 90 48 60
        E 0 90 3c 60
        E 80 80 60 00
        E 0 80 66 00
        E 0 80 54 00
        E 0 80 48 00
        E 0 80 3c 00
        E 80 90 60 60
        E 80 80 60 00
        E 80 90 60 60
        E 80 80 60 00
        E 80 90 62 60
        E 0 90 66 60
        E 0 90 56 60
        E 0 90 4a 60
        E 80 80 62 00
        E 0 80 66 00
        E 0 80 56 00
        E 0 80 4a 00
        E 80 90 62 60
        E 80 80 62 00
        E 80 90 61 60
        E 80 80 61 00
        E 80 90 63 60
        E 0 90 66 60
        E 0 90 57 60
        E 0 90 4b 60
        E 0 90 3e 60
        E 80 80 63 00
        E 0 80 66 00
        E 0 80 57 00
        E 0 80 4b 00
        E 0 80 3e 00
        E 80 90 63 60
        E 80 80 63 00
        E 80 90 62 60
        E 0 90 56 60
        E 120 80 56 00
        E 160 80 62 00
        E 120 90 62 60
        E 0 90 56 60
        E 120 80 62 00
        E 0 80 56 00
        E 0 90 62 60
        E 120 80 62 00
        E 0 90 61 60
        E 0 90 66 60
        E 0 90 55 60
        E 0 90 49 60
        E 0 90 3d 60
        E 80 80 61 00
        E 0 80 66 00
        E 0 80 55 00
        E 0 80 49 00
        E 0 80 3d 00
        E 240 90 60 60
        E 80 80 60 00
        E 80 90 64 60
        E 0 90 58 60
        E 0 90 4b 60
        E 120 80 4b 00
        E 240 80 64 00
        E 0 80 58 00
        E 120 90 60 60
        E 0 90 54 60
        E 0 90 48 60
        E 0 90 3c 60
        E 80 80 60 00
        E 0 80 54 00
        E 0 80 48 00
        E 0 80 3c 00
        E 80 90 60 60
        E 80 80 60 00
        E 80 90 60 60
        E 80 80 60 00
        E 80 90 62 60
        E 0 90 66 60
        E 0 90 56 60
        E 0 90 4a 60
        E 80 80 62 00
        E 0 80 66 00
        E 0 80 56 00
        E 0 80 4a 00
        E 80 90 62 60
        E 80 80 62 00
        E 80 90 62 60
        E 80 80 62 00
        E 80 90 60 60
        E 0 90 66 60
        E 0 90 54 60
        E 0 90 48 60
        E 0 90 3c 60
        E 80 80 60 00
        E 0 80 66 00
        E 0 80 54 00
        E 0 80 48 00
        E 0 80 3c 00
        E 80 90 60 60
        E 80 80 60 00
        E 80 90 60 60
        E 80 80 60 00
        E 80 90 63 60
        E 0 90 66 60
        E 0 90 57 60
        E 0 90 4b 60
        E 80 80 63 00
        E 0 80 66 00
        E 0 80 57 00
        E 0 80 4b 00
        E 80 90 63 60
        E 80 80 63 00
        E 80 90 62 60
        E 80 80 62 00
        E 80 90 64 60
        E 0 90 66 60
        E 0 90 58 60
        E 0 90 4b 60
        E 0 90 3e 60
        E 80 80 64 00
        E 0 80 66 00
        E 0 80 58 00
        E 0 80 4b 00
        E 0 80 3e 00
        E 80 90 64 60
        E 80 80 64 00
        E 80 90 63 60
        E 0 90 57 60
        E 120 80 57 00
        E 160 80 63 00
        E 120 90 63 60
        E 0 90 57 60
        E 120 80 63 00
        E 0 80 57 00
        E 0 90 63 60
        E 120 80 63 00
        E 0 90 62 60
        E 0 90 66 60
        E 0 90 56 60
        E 0 90 4a 60
        E 0 90 3d 60
        E 80 80 62 00
        E 0 80 66 00
        E 0 80 56 00
        E 0 80 4a 00
        E 0 80 3d 00
        E 240 90 61 60
        E 80 80 61 00
        E 80 90 64 60
        E 0 90 58 60
        E 0 90 4b 60
        E 120 80 4b 00
        E 240 80 64 00
        E 0 80 58 00
        E 120 90 60 60
        E 0 90 54 60
        E 0 90 48 60
        E 0 90 3c 60
        E 80 80 60 00
        E 0 80 54 00
        E 0 80 48 00
        E 0 80 3c 00
        E 80 90 60 60
        E 80 80 60 00
        E 80 90 60 60
        E 80 80 60 00
        E 80 90 62 60
        E 0 90 66 60
        E 0 90 56 60
        E 0 90 4a 60
        E 80 80 62 00
        E 0 80 66 00
        E 0 80 56 00
        E 0 80 4a 00
        E 80 90 62 60
        E 80 80 62 00
        E 80 90 62 60
        E 80 80 62 00
        E 80 90 60 60
        E 0 90 66 60
        E 0 90 54 60
        E 0 90 48 60
        E 0 90 3c 60
        E 80 80 60 00
        E 0 80 66 00
        E 0 80 54 00
        E 0 80 48 00
        E 0 80 3c 00
        E 80 90 60 60
        E 80 80 60 00
        E 80 90 60 60
        E 80 80 60 00
        E 80 90 63 60
        E 0 90 66 60
        E 0 90 57 60
        E 0 90 4b 60
        E 80 80 63 00
        E 0 80 66 00
        E 0 80 57 00
        E 0 80 4b 00
        E 80 90 63 60
        E 80 80 63 00
        E 80 90 62 60
        E 80 80 62 00
        E 80 90 64 60
        E 0 90 66 60
        E 0 90 58 60
        E 0 90 4b 60
        E 0 90 3e 60
        E 80 80 64 00
        E 0 80 66 00
        E 0 80 58 00
        E 0 80 4b 00
        E 0 80 3e 00
        E 80 90 64 60
        E 80 80 64 00
        E 80 90 63 60
        E 0 90 57 60
        E 120 80 57 00
        E 160 80 63 00
        E 120 90 63 60
        E 0 90 57 60
        E 120 80 63 00
        E 0 80 57 00
        E 0 90 63 60
        E 120 80 63 00
        E 0 90 62 60
        E 0 90 66 60
        E 0 90 56 60
        E 0 90 4a 60
        E 0 90 3d 60
        E 80 80 62 00
        E 0 80 66 00
        E 0 80 56 00
        E 0 80 4a 00
        E 0 80 3d 00
        E 240 90 61 60
        E 80 80 61 00
        E 80 90 64 60
        E 0 90 58 60
        E 0 90 4b 60
        E 120 80 4b 00
        E 240 80 64 00
        E 0 80 58 00
        E 120 90 60 60
        E 0 90 61 60
        E 0 90 54 60
        E 0 90 55 60
        E 0 90 48 60
        E 0 90 49 60
        E 0 90 3c 60
        E 80 80 60 00
        E 0 80 61 00
        E 0 80 54 00
        E 0 80 55 00
        E 0 80 48 00
        E 0 80 49 00
        E 0 80 3c 00
        E 80 90 60 60
        E 80 80 60 00
        E 80 90 60 60
        E 80 80 60 00
        E 80 90 60 60
        E 0 90 54 60
        E 0 90 48 60
        E 0 90 3c 60
        E 80 80 60 00
        E 0 80 54 00
        E 0 80 48 00
        E 0 80 3c 00
        E 80 90 60 60
        E 80 80 60 00
        E 80 90 60 60
        E 80 80 60 00
        E 80 90 60 60
        E 0 90 61 60
        E 0 90 54 60
        E 0 90 55 60
        E 0 90 48 60
        E 0 90 49 60
        E 0 90 3c 60
        E 80 80 60 00
        E 0 80 61 00
        E 0 80 54 00
        E 0 80 55 00
        E 0 80 48 00
        E 0 80 49 00
        E 0 80 3c 00
        E 80 90 60 60
        E 80 80 60 00
        E 80 90 60 60
        E 80 80 60 00
        E 80 90 60 60
        E 0 90 54 60
        E 0 90 48 60
        E 80 80 60 00
        E 0 80 54 00
        E 0 80 48 00
        E 80 90 61 60
        E 0 90 63 60
        E 80 80 61 00
        E 0 80 63 00
        E 80 90 61 60
        E 0 90 62 60
        E 0 90 65 60
        E 80 80 61 00
        E 0 80 62 00
        E 0 80 65 00
        E 80 90 61 60
        E 0 90 63 60
        E 0 90 65 60
        E 0 90 55 60
        E 0 90 57 60
        E 0 90 49 60
        E 0 90 4a 60
        E 0 90 3e 60
        E 80 80 61 00
        E 0 80 63 00
        E 0 80 65 00
        E 0 80 55 00
        E 0 80 57 00
        E 0 80 49 00
        E 0 80 4a 00
        E 0 80 3e 00
        E 80 90 60 60
        E 80 80 60 00
        E 80 90 60 60
        E 80 80 60 00
        E 80 90 60 60
        E 0 90 54 60
        E 0 90 48 60
        E 80 80 60 00
        E 0 80 54 00
        E 0 80 48 00
        E 80 90 60 60
        E 80 80 60 00
        E 80 90 60 60
        E 80 80 60 00
        E 80 90 63 60
        E 0 90 66 60
        E 0 90 57 60
        E 0 90 4b 60
        E 0 90 3e 60
        E 80 80 63 00
        E 0 80 66 00
        E 0 80 57 00
        E 0 80 4b 00
        E 0 80 3e 00
        E 80 90 63 60
        E 80 80 63 00
        E 80 90 63 60
        E 80 80 63 00
        E 80 90 62 60
        E 0 90 56 60
        E 0 90 4a 60
        E 80 80 62 00
        E 0 80 56 00
        E 0 80 4a 00
        E 80 90 63 60
        E 80 80 63 00
        E 80 90 62 60
        E 80 80 62 00
        E 80 90 60 60
        E 0 90 61 60
        E 0 90 74 60
        E 0 90 54 60
        E 0 90 55 60
        E 0 90 48 60
        E 0 90 49 60
        E 0 90 3c 60
        E 80 80 60 00
        E 0 80 61 00
        E 0 80 54 00
        E 0 80 55 00
        E 0 80 48 00
        E 0 80 49 00
        E 0 80 3c 00
        E 80 90 60 60
        E 80 80 60 00
        E 80 90 60 60
        E 80 80 60 00
        E 80 90 60 60
        E 0 90 54 60
        E 0 90 48 60
        E 0 90 3c 60
        E 80 80 60 00
        E 0 80 54 00
        E 0 80 48 00
        E 0 80 3c 00
        E 80 90 60 60
        E 80 80 60 00
        E 80 90 60 60
        E 80 80 60 00
        E 80 90 60 60
        E 0 90 61 60
        E 0 90 54 60
        E 0 90 55 60
        E 0 90 48 60
        E 0 90 49 60
        E 0 90 3c 60
        E 80 80 60 00
        E 0 80 61 00
        E 0 80 54 00
        E 0 80 55 00
        E 0 80 48 00
        E 0 80 49 00
        E 0 80 3c 00
        E 80 90 60 60
        E 80 80 60 00
        E 80 90 60 60
        E 80 80 60 00
        E 80 90 60 60
        E 0 90 54 60
        E 0 90 48 60
        E 80 80 60 00
        E 0 80 54 00
        E 0 80 48 00
        E 80 90 61 60
        E 0 90 63 60
        E 80 80 61 00
        E 0 80 63 00
        E 80 90 61 60
        E 0 90 62 60
        E 0 90 65 60
        E 80 80 61 00
        E 0 80 62 00
        E 0 80 65 00
        E 80 90 61 60
        E 0 90 66 60
        E 0 90 55 60
        E 0 90 49 60
        E 0 90 3d 60
        E 80 80 61 00
        E 0 80 66 00
        E 0 80 55 00
        E 0 80 49 00
        E 0 80 3d 00
        E 80 90 61 60
        E 80 80 61 00
        E 80 90 61 60
        E 80 80 61 00
        E 80 90 62 60
        E 0 90 66 60
        E 0 90 56 60
        E 0 90 4a 60
        E 80 80 62 00
        E 0 80 66 00
        E 0 80 56 00
        E 0 80 4a 00
        E 80 90 62 60
        E 80 80 62 00
        E 80 90 62 60
        E 80 80 62 00
        E 80 90 64 60
        E 0 90 66 60
        E 0 90 58 60
        E 0 90 4b 60
        E 0 90 3e 60
        E 80 80 64 00
        E 0 80 66 00
        E 0 80 58 00
        E 0 80 4b 00
        E 0 80 3e 00
        E 80 90 64 60
        E 80 80 64 00
        E 80 90 64 60
        E 80 80 64 00
        E 80 90 63 60
        E 0 90 57 60
        E 0 90 4b 60
        E 80 80 63 00
        E 0 80 57 00
        E 0 80 4b 00
        E 80 90 64 60
        E 80 80 64 00
        E 80 90 63 60
        E 80 80 63 00
        E 80 80 74 00
        E 0 90 60 60
        E 0 90 61 60
        E 0 90 54 60
        E 0 90 55 60
        E 0 90 48 60
        E 0 90 49 60
        E 0 90 3c 60
        E 80 80 60 00
        E 0 80 61 00
        E 0 80 54 00
        E 0 80 55 00
        E 0 80 48 00
        E 0 80 49 00
        E 0 80 3c 00
        E 80 90 60 60
        E 80 80 60 00
        E 80 90 60 60
        E 80 80 60 00
        E 80 90 60 60
        E 0 90 54 60
        E 0 90 48 60
        E 0 90 3c 60
        E 80 80 60 00
        E 0 80 54 00
        E 0 80 48 00
        E 0 80 3c 00
        E 80 90 60 60
        E 80 80 60 00
        E 80 90 60 60
        E 80 80 60 00
        E 80 90 60 60
        E 0 90 61 60
        E 0 90 54 60
        E 0 90 55 60
        E 0 90 48 60
        E 0 90 49 60
        E 0 90 3c 60
        E 80 80 60 00
        E 0 80 61 00
        E 0 80 54 00
        E 0 80 55 00
        E 0 80 48 00
        E 0 80 49 00
        E 0 80 3c 00
        E 80 90 60 60
        E 80 80 60 00
        E 80 90 60 60
        E 80 80 60 00
        E 80 90 60 60
        E 0 90 54 60
        E 0 90 48 60
        E 80 80 60 00
        E 0 80 54 00
        E 0 80 48 00
        E 80 90 61 60
        E 0 90 63 60
        E 80 80 61 00
        E 0 80 63 00
        E 80 90 61 60
        E 0 90 62 60
        E 0 90 65 60
        E 80 80 61 00
        E 0 80 62 00
        E 0 80 65 00
        E 80 90 61 60
        E 0 90 63 60
        E 0 90 65 60
        E 0 90 55 60
        E 0 90 57 60
        E 0 90 49 60
        E 0 90 4a 60
        E 0 90 3e 60
        E 80 80 61 00
        E 0 80 63 00
        E 0 80 65 00
        E 0 80 55 00
        E 0 80 57 00
        E 0 80 49 00
        E 0 80 4a 00
        E 0 80 3e 00
        E 80 90 60 60
        E 80 80 60 00
        E 80 90 60 60
        E 80 80 60 00
        E 80 90 60 60
        E 0 90 54 60
        E 0 90 48 60
        E 80 80 60 00
        E 0 80 54 00
        E 0 80 48 00
        E 80 90 60 60
        E 80 80 60 00
        E 80 90 60 60
        E 80 80 60 00
        E 80 90 63 60
        E 0 90 66 60
        E 0 90 57 60
        E 0 90 4b 60
        E 0 90 3e 60
        E 80 80 63 00
        E 0 80 66 00
        E 0 80 57 00
        E 0 80 4b 00
        E 0 80 3e 00
        E 80 90 63 60
        E 80 80 63 00
        E 80 90 63 60
        E 80 80 63 00
        E 80 90 62 60
        E 0 90 56 60
        E 0 90 4a 60
        E 80 80 62 00
        E 0 80 56 00
        E 0 80 4a 00
        E 80 90 63 60
        E 80 80 63 00
        E 80 90 62 60
        E 80 80 62 00
        E 80 90 60 60
        E 0 90 61 60
        E 0 90 54 60
        E 0 90 55 60
        E 0 90 48 60
        E 0 90 49 60
        E 0 90 3c 60
        E 80 80 60 00
        E 0 80 61 00
        E 0 80 54 00
        E 0 80 55 00
        E 0 80 48 00
        E 0 80 49 00
        E 0 80 3c 00
        E 80 90 60 60
        E 80 80 60 00
        E 80 90 60 60
        E 80 80 60 00
        E 80 90 60 60
        E 0 90 54 60
        E 0 90 48 60
        E 0 90 3c 60
        E 80 80 60 00
        E 0 80 54 00
        E 0 80 48 00
        E 0 80 3c 00
        E 80 90 60 60
        E 80 80 60 00
        E 80 90 60 60
        E 80 80 60 00
        E 80 90 60 60
        E 0 90 61 60
        E 0 90 54 60
        E 0 90 55 60
        E 0 90 48 60
        E 0 90 49 60
        E 0 90 3c 60
        E 80 80 60 00
        E 0 80 61 00
        E 0 80 54 00
        E 0 80 55 00
        E 0 80 48 00
        E 0 80 49 00
        E 0 80 3c 00
        E 80 90 60 60
        E 80 80 60 00
        E 80 90 60 60
        E 80 80 60 00
        E 80 90 60 60
        E 0 90 54 60
        E 0 90 48 60
        E 80 80 60 00
        E 0 80 54 00
        E 0 80 48 00
        E 80 90 61 60
        E 0 90 63 60
        E 80 80 61 00
        E 0 80 63 00
        E 80 90 61 60
        E 0 90 62 60
        E 0 90 65 60
        E 80 80 61 00
        E 0 80 62 00
        E 0 80 65 00
        E 80 90 61 60
        E 0 90 66 60
        E 0 90 55 60
        E 0 90 49 60
        E 0 90 3d 60
        E 80 80 61 00
        E 0 80 66 00
        E 0 80 55 00
        E 0 80 49 00
        E 0 80 3d 00
        E 80 90 61 60
        E 80 80 61 00
        E 80 90 61 60
        E 80 80 61 00
        E 80 90 62 60
        E 0 90 66 60
        E 0 90 56 60
        E 0 90 4a 60
        E 80 80 62 00
        E 0 80 66 00
        E 0 80 56 00
        E 0 80 4a 00
        E 80 90 62 60
        E 80 80 62 00
        E 80 90 62 60
        E 80 80 62 00
        E 80 90 64 60
        E 0 90 66 60
        E 0 90 58 60
        E 0 90 4b 60
        E 0 90 3e 60
        E 80 80 64 00
        E 0 80 66 00
        E 0 80 58 00
        E 0 80 4b 00
        E 0 80 3e 00
        E 80 90 64 60
        E 80 80 64 00
        E 80 90 64 60
        E 80 80 64 00
        E 80 90 63 60
        E 0 90 57 60
        E 0 90 4b 60
        E 80 80 63 00
        E 0 80 57 00
        E 0 80 4b 00
        E 80 90 64 60
        E 80 80 64 00
        E 80 90 63 60
        E 80 80 63 00
        E 80 90 61 60
        E 0 90 66 60
        E 0 90 55 60
        E 0 90 49 60
        E 0 90 3d 60
        E 80 80 61 00
        E 0 80 66 00
        E 0 80 55 00
        E 0 80 49 00
        E 0 80 3d 00
        E 80 90 61 60
        E 80 80 61 00
        E 80 90 61 60
        E 80 80 61 00
        E 80 90 62 60
        E 0 90 66 60
        E 0 90 56 60
        E 0 90 4a 60
        E 80 80 62 00
        E 0 80 66 00
        E 0 80 56 00
        E 0 80 4a 00
        E 80 90 62 60
        E 80 80 62 00
        E 80 90 62 60
        E 80 80 62 00
        E 80 90 64 60
        E 0 90 66 60
        E 0 90 58 60
        E 0 90 4b 60
        E 0 90 3e 60
        E 80 80 64 00
        E 0 80 66 00
        E 0 80 58 00
        E 0 80 4b 00
        E 0 80 3e 00
        E 240 90 63 60
        E 0 90 57 60
        E 80 80 63 00
        E 0 80 57 00
        E 240 90 64 60
        E 0 90 58 60
        E 80 80 64 00
        E 0 80 58 00
        E 80 90 63 60
        E 80 80 63 00
        E 80 90 61 60
        E 0 90 66 60
        E 0 90 55 60
        E 0 90 49 60
        E 0 90 3d 60
        E 80 80 61 00
        E 0 80 66 00
        E 0 80 55 00
        E 0 80 49 00
        E 0 80 3d 00
        E 80 90 61 60
        E 80 80 61 00
        E 80 90 61 60
        E 80 80 61 00
        E 80 90 62 60
        E 0 90 66 60
        E 0 90 56 60
        E 0 90 4a 60
        E 80 80 62 00
        E 0 80 66 00
        E 0 80 56 00
        E 0 80 4a 00
        E 80 90 62 60
        E 80 80 62 00
        E 80 90 62 60
        E 80 80 62 00
        E 80 90 63 60
        E 0 90 66 60
        E 0 90 57 60
        E 0 90 4b 60
        E 0 90 3e 60
        E 80 80 63 00
        E 0 80 66 00
        E 0 80 57 00
        E 0 80 4b 00
        E 0 80 3e 00
        E 80 90 63 60
        E 80 80 63 00
        E 80 90 63 60
        E 80 80 63 00
        E 80 90 62 60
        E 0 90 56 60
        E 0 90 4a 60
        E 80 80 62 00
        E 0 80 56 00
        E 0 80 4a 00
        E 80 90 63 60
        E 80 80 63 00
        E 80 90 62 60
        E 80 80 62 00
        E 80 90 61 60
        E 0 90 66 60
        E 0 90 55 60
        E 0 90 49 60
        E 0 90 3d 60
        E 80 80 61 00
        E 0 80 66 00
        E 0 80 55 00
        E 0 80 49 00
        E 0 80 3d 00
        E 80 90 61 60
        E 80 80 61 00
        E 80 90 61 60
        E 80 80 61 00
        E 80 90 62 60
        E 0 90 66 60
        E 0 90 56 60
        E 0 90 4a 60
        E 80 80 62 00
        E 0 80 66 00
        E 0 80 56 00
        E 0 80 4a 00
        E 80 90 62 60
        E 80 80 62 00
        E 80 90 62 60
        E 80 80 62 00
        E 80 90 63 60
        E 0 90 66 60
        E 0 90 57 60
        E 0 90 4b 60
        E 0 90 3e 60
        E 80 80 63 00
        E 0 80 66 00
        E 0 80 57 00
        E 0 80 4b 00
        E 0 80 3e 00
        E 240 90 62 60
        E 0 90 56 60
        E 80 80 62 00
        E 0 80 56 00
        E 240 90 63 60
        E 0 90 57 60
        E 80 80 63 00
        E 0 80 57 00
        E 80 90 62 60
        E 80 80 62 00
        E 80 90 60 60
        E 0 90 54 60
        E 0 90 48 60
        E 0 90 3c 60
        E 80 80 60 00
        E 0 80 54 00
        E 0 80 48 00
        E 0 80 3c 00
        E 80 90 61 60
        E 80 80 61 00
        E 80 90 60 60
        E 80 80 60 00
        E 80 90 62 60
        E 0 90 56 60
        E 0 90 4a 60
        E 80 80 62 00
        E 0 80 56 00
        E 0 80 4a 00
        E 80 90 61 60
        E 80 80 61 00
        E 80 90 62 60
        E 80 80 62 00
        E 80 90 60 60
        E 0 90 54 60
        E 0 90 48 60
        E 0 90 3c 60
        E 80 80 60 00
        E 0 80 54 00
        E 0 80 48 00
        E 0 80 3c 00
        E 80 90 61 60
        E 80 80 61 00
        E 80 90 60 60
        E 80 80 60 00
        E 80 90 62 60
        E 0 90 56 60
        E 0 90 4a 60
        E 80 80 62 00
        E 0 80 56 00
        E 0 80 4a 00
        E 80 90 61 60
        E 80 80 61 00
        E 80 90 62 60
        E 80 80 62 00
        E 80 90 60 60
        E 0 90 54 60
        E 0 90 48 60
        E 0 90 3c 60
        E 80 80 60 00
        E 0 80 54 00
        E 0 80 48 00
        E 0 80 3c 00
        E 80 90 61 60
        E 80 80 61 00
        E 80 90 60 60
        E 80 80 60 00
        E 80 90 61 60
        E 0 90 62 60
        E 0 90 55 60
        E 0 90 56 60
        E 0 90 48 60
        E 0 90 4a 60
        E 80 80 61 00
        E 0 80 62 00
        E 0 80 55 00
        E 0 80 56 00
        E 0 80 48 00
        E 0 80 4a 00
        E 80 90 61 60
        E 0 90 62 60
        E 80 80 61 00
        E 0 80 62 00
        E 80 90 61 60
        E 0 90 62 60
        E 80 80 61 00
        E 0 80 62 00
        E 80 90 60 60
        E 0 90 54 60
        E 0 90 48 60
        E 0 90 3c 60
        E 80 80 60 00
        E 0 80 54 00
        E 0 80 48 00
        E 0 80 3c 00
        E 80 90 61 60
        E 80 80 61 00
        E 80 90 60 60
        E 80 80 60 00
        E 80 90 61 60
        E 0 90 62 60
        E 0 90 55 60
        E 0 90 56 60
        E 0 90 48 60
        E 0 90 4a 60
        E 80 80 61 00
        E 0 80 62 00
        E 0 80 55 00
        E 0 80 56 00
        E 0 80 48 00
        E 0 80 4a 00
        E 80 90 61 60
        E 0 90 62 60
        E 80 80 61 00
        E 0 80 62 00
        E 80 90 61 60
        E 0 90 62 60
        E 80 80 61 00
        E 0 80 62 00
        E 80 90 60 60
        E 0 90 54 60
        E 0 90 48 60
        E 0 90 3c 60
        E 80 80 60 00
        E 0 80 54 00
        E 0 80 48 00
        E 0 80 3c 00
        E 80 90 61 60
        E 80 80 61 00
        E 80 90 60 60
        E 80 80 60 00
        E 80 90 62 60
        E 0 90 56 60
        E 0 90 4a 60
        E 80 80 62 00
        E 0 80 56 00
        E 0 80 4a 00
        E 80 90 61 60
        E 80 80 61 00
        E 80 90 62 60
        E 80 80 62 00
        E 80 90 60 60
        E 0 90 54 60
        E 0 90 48 60
        E 0 90 3c 60
        E 80 80 60 00
        E 0 80 54 00
        E 0 80 48 00
        E 0 80 3c 00
        E 80 90 61 60
        E 80 80 61 00
        E 80 90 60 60
        E 80 80 60 00
        E 80 90 62 60
        E 0 90 56 60
        E 0 90 4a 60
        E 80 80 62 00
        E 0 80 56 00
        E 0 80 4a 00
        E 80 90 61 60
        E 80 80 61 00
        E 80 90 62 60
        E 80 80 62 00
        E 80 90 60 60
        E 0 90 54 60
        E 0 90 48 60
        E 0 90 3c 60
        E 80 80 60 00
        E 0 80 54 00
        E 0 80 48 00
        E 0 80 3c 00
        E 80 90 61 60
        E 80 80 61 00
        E 80 90 60 60
        E 80 80 60 00
        E 80 90 61 60
        E 0 90 63 60
        E 0 90 55 60
        E 0 90 57 60
        E 0 90 49 60
        E 0 90 4a 60
        E 80 80 61 00
        E 0 80 63 00
        E 0 80 55 00
        E 0 80 57 00
        E 0 80 49 00
        E 0 80 4a 00
        E 80 90 61 60
        E 0 90 63 60
        E 80 80 61 00
        E 0 80 63 00
        E 80 90 61 60
        E 0 90 63 60
        E 80 80 61 00
        E 0 80 63 00
        E 80 90 60 60
        E 0 90 54 60
        E 0 90 48 60
        E 0 90 3c 60
        E 80 80 60 00
        E 0 80 54 00
        E 0 80 48 00
        E 0 80 3c 00
        E 80 90 61 60
        E 80 80 61 00
        E 80 90 60 60
        E 80 80 60 00
        E 80 90 61 60
        E 0 90 63 60
        E 0 90 55 60
        E 0 90 57 60
        E 0 90 49 60
        E 0 90 4a 60
        E 80 80 61 00
        E 0 80 63 00
        E 0 80 55 00
        E 0 80 57 00
        E 0 80 49 00
        E 0 80 4a 00
        E 80 90 61 60
        E 0 90 63 60
        E 80 80 61 00
        E 0 80 63 00
        E 80 90 61 60
        E 0 90 63 60
        E 80 80 61 00
        E 0 80 63 00
        E 80 90 60 60
        E 0 90 54 60
        E 0 90 48 60
        E 0 90 3c 60
        E 80 80 60 00
        E 0 80 54 00
        E 0 80 48 00
        E 0 80 3c 00
        E 80 90 61 60
        E 80 80 61 00
        E 80 90 60 60
        E 80 80 60 00
        E 80 90 62 60
        E 0 90 56 60
        E 0 90 4a 60
        E 80 80 62 00
        E 0 80 56 00
        E 0 80 4a 00
        E 80 90 61 60
        E 80 80 61 00
        E 80 90 62 60
        E 80 80 62 00
        E 80 90 60 60
        E 0 90 54 60
        E 0 90 48 60
        E 0 90 3c 60
        E 80 80 60 00
        E 0 80 54 00
        E 0 80 48 00
        E 0 80 3c 00
        E 80 90 61 60
        E 80 80 61 00
        E 80 90 60 60
        E 80 80 60 00
        E 80 90 62 60
        E 0 90 56 60
        E 0 90 4a 60
        E 80 80 62 00
        E 0 80 56 00
        E 0 80 4a 00
        E 80 90 61 60
        E 80 80 61 00
        E 80 90 62 60
        E 80 80 62 00
        E 80 90 60 60
        E 0 90 54 60
        E 0 90 48 60
        E 0 90 3c 60
        E 80 80 60 00
        E 0 80 54 00
        E 0 80 48 00
        E 0 80 3c 00
        E 80 90 61 60
        E 80 80 61 00
        E 80 90 60 60
        E 80 80 60 00
        E 80 90 61 60
        E 0 90 62 60
        E 0 90 55 60
        E 0 90 56 60
        E 0 90 48 60
        E 0 90 4a 60
        E 80 80 61 00
        E 0 80 62 00
        E 0 80 55 00
        E 0 80 56 00
        E 0 80 48 00
        E 0 80 4a 00
        E 80 90 61 60
        E 0 90 62 60
        E 80 80 61 00
        E 0 80 62 00
        E 80 90 61 60
        E 0 90 62 60
        E 80 80 61 00
        E 0 80 62 00
        E 80 90 60 60
        E 0 90 54 60
        E 0 90 48 60
        E 0 90 3c 60
        E 80 80 60 00
        E 0 80 54 00
        E 0 80 48 00
        E 0 80 3c 00
        E 80 90 61 60
        E 80 80 61 00
        E 80 90 60 60
        E 80 80 60 00
        E 80 90 61 60
        E 0 90 62 60
        E 0 90 55 60
        E 0 90 56 60
        E 0 90 48 60
        E 0 90 4a 60
        E 80 80 61 00
        E 0 80 62 00
        E 0 80 55 00
        E 0 80 56 00
        E 0 80 48 00
        E 0 80 4a 00
        E 80 90 61 60
        E 0 90 62 60
        E 80 80 61 00
        E 0 80 62 00
        E 80 90 61 60
        E 0 90 62 60
        E 80 80 61 00
        E 0 80 62 00
        E 80 90 60 60
        E 0 90 54 60
        E 0 90 48 60
        E 0 90 3c 60
        E 80 80 60 00
        E 0 80 54 00
        E 0 80 48 00
        E 0 80 3c 00
        E 80 90 61 60
        E 80 80 61 00
        E 80 90 60 60
        E 80 80 60 00
        E 80 90 62 60
        E 0 90 56 60
        E 0 90 4a 60
        E 80 80 62 00
        E 0 80 56 00
        E 0 80 4a 00
        E 80 90 61 60
        E 80 80 61 00
        E 80 90 62 60
        E 80 80 62 00
        E 80 90 60 60
        E 0 90 54 60
        E 0 90 48 60
        E 0 90 3c 60
        E 80 80 60 00
        E 0 80 54 00
        E 0 80 48 00
        E 0 80 3c 00
        E 80 90 61 60
        E 80 80 61 00
        E 80 90 60 60
        E 80 80 60 00
        E 80 90 62 60
        E 0 90 56 60
        E 0 90 4a 60
        E 80 80 62 00
        E 0 80 56 00
        E 0 80 4a 00
        E 80 90 61 60
        E 80 80 61 00
        E 80 90 62 60
        E 80 80 62 00
        E 80 90 60 60
        E 0 90 54 60
        E 0 90 48 60
        E 0 90 3c 60
        E 80 80 60 00
        E 0 80 54 00
        E 0 80 48 00
        E 0 80 3c 00
        E 80 90 61 60
        E 80 80 61 00
        E 80 90 60 60
        E 80 80 60 00
        E 80 90 61 60
        E 0 90 63 60
        E 0 90 55 60
        E 0 90 57 60
        E 0 90 49 60
        E 0 90 4a 60
        E 80 80 61 00
        E 0 80 63 00
        E 0 80 55 00
        E 0 80 57 00
        E 0 80 49 00
        E 0 80 4a 00
        E 80 90 61 60
        E 0 90 63 60
        E 80 80 61 00
        E 0 80 63 00
        E 80 90 61 60
        E 0 90 63 60
        E 80 80 61 00
        E 0 80 63 00
        E 80 90 60 60
        E 0 90 54 60
        E 0 90 48 60
        E 0 90 3c 60
        E 80 80 60 00
        E 0 80 54 00
        E 0 80 48 00
        E 0 80 3c 00
        E 80 90 61 60
        E 80 80 61 00
        E 80 90 60 60
        E 80 80 60 00
        E 80 90 61 60
        E 0 90 63 60
        E 0 90 55 60
        E 0 90 57 60
        E 0 90 49 60
        E 0 90 4a 60
        E 80 80 61 00
        E 0 80 63 00
        E 0 80 55 00
        E 0 80 57 00
        E 0 80 49 00
        E 0 80 4a 00
        E 80 90 61 60
        E 0 90 63 60
        E 80 80 61 00
        E 0 80 63 00
        E 80 90 61 60
        E 0 90 63 60
        E 80 80 61 00
        E 0 80 63 00
        E 80 90 61 60
        E 0 90 62 60
        E 0 90 74 60
        E 0 90 55 60
        E 0 90 56 60
        E 0 90 48 60
        E 0 90 4a 60
        E 0 90 3d 60
        E 480 80 48 00
        E 0 80 4a 00
        E 0 80 3d 00
        E 360 80 61 00
        E 0 80 62 00
        E 0 80 55 00
        E 0 80 56 00
        E 120 90 63 60
        E 0 90 57 60
        E 0 90 4b 60
        E 0 90 3e 60
        E 2400 80 4b 00
        E 0 80 3e 00
        E 360 80 63 00
        E 0 80 57 00
        E 120 80 74 00
        E 0 90 64 60
        E 0 90 58 60
        E 0 90 4b 60
        E 0 90 3e 60
        E 80 80 64 00
        E 0 80 58 00
        E 0 80 4b 00
        E 0 80 3e 00
        E 240 90 63 60
        E 0 90 57 60
        E 80 80 63 00
        E 0 80 57 00
        E 240 90 63 60
        E 0 90 57 60
        E 0 90 4b 60
        E 80 80 63 00
        E 0 80 57 00
        E 0 80 4b 00
        E 240 90 63 60
        E 0 90 57 60
        E 0 90 4b 60
        E 0 90 3e 60
        E 80 80 63 00
        E 0 80 57 00
        E 0 80 4b 00
        E 0 80 3e 00
        E 80 90 64 60
        E 80 80 64 00
        E 80 90 63 60
        E 80 80 63 00
        E 80 90 62 60
        E 0 90 56 60
        E 0 90 4a 60
        E 1920 80 4a 00
        E 360 80 62 00
        E 0 80 56 00
        E 120 90 61 60
        E 0 90 62 60
        E 0 90 55 60
        E 0 90 56 60
        E 0 90 48 60
        E 0 90 4a 60
        E 0 90 3d 60
        E 480 80 48 00
        E 0 80 4a 00
        E 0 80 3d 00
        E 360 80 61 00
        E 0 80 62 00
        E 0 80 55 00
        E 0 80 56 00
        E 120 90 63 60
        E 0 90 57 60
        E 0 90 4b 60
        E 0 90 3e 60
        E 2400 80 4b 00
        E 0 80 3e 00
        E 360 80 63 00
        E 0 80 57 00
        E 120 90 63 60
        E 0 90 58 60
        E 0 90 4b 60
        E 0 90 3e 60
        E 80 80 63 00
        E 0 90 64 60
        E 40 80 58 00
        E 0 80 4b 00
        E 0 80 3e 00
        E 40 80 64 00
        E 160 90 63 60
        E 0 90 57 60
        E 80 80 63 00
        E 0 80 57 00
        E 240 90 63 60
        E 0 90 57 60
        E 0 90 4b 60
        E 80 80 63 00
        E 0 80 57 00
        E 0 80 4b 00
        E 240 90 63 60
        E 0 90 57 60
        E 0 90 4b 60
        E 0 90 3e 60
        E 80 80 63 00
        E 0 80 57 00
        E 0 80 4b 00
        E 0 80 3e 00
        E 80 90 64 60
        E 80 80 64 00
        E 80 90 63 60
        E 80 80 63 00
        E 80 90 62 60
        E 0 90 56 60
        E 0 90 4a 60
        E 120 80 4a 00
        E 240 80 62 00
        E 0 80 56 00
        E 120 90 62 60
        E 0 90 57 60
        E 0 90 4b 60
        E 0 90 3e 60
        E 80 80 62 00
        E 0 90 63 60
        E 40 80 57 00
        E 0 80 4b 00
        E 0 80 3e 00
        E 40 80 63 00
        E 160 90 62 60
        E 0 90 56 60
        E 80 80 62 00
        E 0 80 56 00
        E 240 90 62 60
        E 0 90 56 60
        E 0 90 4a 60
        E 80 80 62 00
        E 0 80 56 00
        E 0 80 4a 00
        E 240 90 62 60
        E 0 90 56 60
        E 0 90 4a 60
        E 0 90 3d 60
        E 80 80 62 00
        E 0 80 56 00
        E 0 80 4a 00
        E 0 80 3d 00
        E 80 90 63 60
        E 80 80 63 00
        E 80 90 62 60
        E 80 80 62 00
        E 80 90 61 60
        E 0 90 55 60
        E 0 90 49 60
        E 120 80 49 00
        E 240 80 61 00
        E 0 80 55 00
        E 120 90 60 60
        E 0 90 61 60
        E 0 90 54 60
        E 0 90 55 60
        E 0 90 48 60
        E 0 90 49 60
        E 0 90 3c 60
        E 480 80 48 00
        E 0 80 49 00
        E 0 80 3c 00
        E 360 80 60 00
        E 0 80 61 00
        E 0 80 54 00
        E 0 80 55 00
        E 120 90 60 60
        E 0 90 62 60
        E 0 90 54 60
        E 0 90 56 60
        E 0 90 48 60
        E 0 90 4a 60
        E 0 90 3d 60
        E 2400 80 48 00
        E 0 80 4a 00
        E 0 80 3d 00
        E 360 80 60 00
        E 0 80 62 00
        E 0 80 54 00
        E 0 80 56 00
        E 120 90 64 60
        E 0 90 74 60
        E 0 90 58 60
        E 0 90 4b 60
        E 0 90 3e 60
        E 80 80 64 00
        E 0 80 58 00
        E 0 80 4b 00
        E 0 80 3e 00
        E 240 90 63 60
        E 0 90 57 60
        E 80 80 63 00
        E 0 80 57 00
        E 240 90 63 60
        E 0 90 57 60
        E 0 90 4b 60
        E 80 80 63 00
        E 0 80 57 00
        E 0 80 4b 00
        E 240 90 63 60
        E 0 90 57 60
        E 0 90 4b 60
        E 0 90 3e 60
        E 80 80 63 00
        E 0 80 57 00
        E 0 80 4b 00
        E 0 80 3e 00
        E 80 90 64 60
        E 80 80 64 00
        E 80 90 63 60
        E 80 80 63 00
        E 80 90 62 60
        E 0 90 56 60
        E 0 90 4a 60
        E 1920 80 4a 00
        E 360 80 62 00
        E 0 80 56 00
        E 120 80 74 00
        E 0 90 60 60
        E 0 90 61 60
        E 0 90 54 60
        E 0 90 55 60
        E 0 90 48 60
        E 0 90 49 60
        E 0 90 3c 60
        E 480 80 48 00
        E 0 80 49 00
        E 0 80 3c 00
        E 360 80 60 00
        E 0 80 61 00
        E 0 80 54 00
        E 0 80 55 00
        E 120 90 60 60
        E 0 90 62 60
        E 0 90 54 60
        E 0 90 56 60
        E 0 90 48 60
        E 0 90 4a 60
        E 0 90 3d 60
        E 2400 80 48 00
        E 0 80 4a 00
        E 0 80 3d 00
        E 360 80 60 00
        E 0 80 62 00
        E 0 80 54 00
        E 0 80 56 00
        E 120 90 64 60
        E 0 90 58 60
        E 0 90 4b 60
        E 0 90 3e 60
        E 80 80 64 00
        E 0 80 58 00
        E 0 80 4b 00
        E 0 80 3e 00
        E 240 90 63 60
        E 0 90 57 60
        E 80 80 63 00
        E 0 80 57 00
        E 240 90 63 60
        E 0 90 57 60
        E 0 90 4b 60
        E 80 80 63 00
        E 0 80 57 00
        E 0 80 4b 00
        E 240 90 63 60
        E 0 90 57 60
        E 0 90 4b 60
        E 0 90 3e 60
        E 80 80 63 00
        E 0 80 57 00
        E 0 80 4b 00
        E 0 80 3e 00
        E 80 90 64 60
        E 80 80 64 00
        E 80 90 63 60
        E 80 80 63 00
        E 80 90 62 60
        E 0 90 56 60
        E 0 90 4a 60
        E 120 80 4a 00
        E 240 80 62 00
        E 0 80 56 00
        E 120 90 63 60
        E 0 90 57 60
        E 0 90 4b 60
        E 0 90 3e 60
        E 80 80 63 00
        E 0 80 57 00
        E 0 80 4b 00
        E 0 80 3e 00
        E 240 90 62 60
        E 0 90 56 60
        E 80 80 62 00
        E 0 80 56 00
        E 240 90 62 60
        E 0 90 56 60
        E 0 90 4a 60
        E 80 80 62 00
        E 0 80 56 00
        E 0 80 4a 00
        E 240 90 62 60
        E 0 90 56 60
        E 0 90 4a 60
        E 0 90 3d 60
        E 80 80 62 00
        E 0 80 56 00
        E 0 80 4a 00
        E 0 80 3d 00
        E 80 90 63 60
        E 80 80 63 00
        E 80 90 62 60
        E 80 80 62 00
        E 80 90 61 60
        E 0 90 55 60
        E 0 90 49 60
        E 120 80 49 00
        E 240 80 61 00
        E 0 80 55 00
        E 120 90 60 60
        E 0 90 54 60
        E 0 90 48 60
        E 0 90 3c 60
        E 80 80 60 00
        E 0 80 54 00
        E 0 80 48 00
        E 0 80 3c 00
        E 80 90 61 60
        E 80 80 61 00
        E 80 90 60 60
        E 80 80 60 00
        E 80 90 62 60
        E 0 90 56 60
        E 0 90 4a 60
        E 80 80 62 00
        E 0 80 56 00
        E 0 80 4a 00
        E 80 90 61 60
        E 80 80 61 00
        E 80 90 62 60
        E 80 80 62 00
        E 80 90 60 60
        E 0 90 54 60
        E 0 90 48 60
        E 0 90 3c 60
        E 80 80 60 00
        E 0 80 54 00
        E 0 80 48 00
        E 0 80 3c 00
        E 80 90 61 60
        E 80 80 61 00
        E 80 90 60 60
        E 80 80 60 00
        E 80 90 62 60
        E 0 90 56 60
        E 0 90 4a 60
        E 80 80 62 00
        E 0 80 56 00
        E 0 80 4a 00
        E 80 90 61 60
        E 80 80 61 00
        E 80 90 62 60
        E 80 80 62 00
        E 80 90 60 60
        E 0 90 54 60
        E 0 90 48 60
        E 0 90 3c 60
        E 80 80 60 00
        E 0 80 54 00
        E 0 80 48 00
        E 0 80 3c 00
        E 80 90 61 60
        E 80 80 61 00
        E 80 90 60 60
        E 80 80 60 00
        E 80 90 61 60
        E 0 90 62 60
        E 0 90 55 60
        E 0 90 56 60
        E 0 90 48 60
        E 0 90 4a 60
        E 80 80 61 00
        E 0 80 62 00
        E 0 80 55 00
        E 0 80 56 00
        E 0 80 48 00
        E 0 80 4a 00
        E 80 90 61 60
        E 0 90 62 60
        E 80 80 61 00
        E 0 80 62 00
        E 80 90 61 60
        E 0 90 62 60
        E 80 80 61 00
        E 0 80 62 00
        E 80 90 60 60
        E 0 90 54 60
        E 0 90 48 60
        E 0 90 3c 60
        E 80 80 60 00
        E 0 80 54 00
        E 0 80 48 00
        E 0 80 3c 00
        E 80 90 61 60
        E 80 80 61 00
        E 80 90 60 60
        E 80 80 60 00
        E 80 90 61 60
        E 0 90 62 60
        E 0 90 55 60
        E 0 90 56 60
        E 0 90 48 60
        E 0 90 4a 60
        E 80 80 61 00
        E 0 80 62 00
        E 0 80 55 00
        E 0 80 56 00
        E 0 80 48 00
        E 0 80 4a 00
        E 80 90 61 60
        E 0 90 62 60
        E 80 80 61 00
        E 0 80 62 00
        E 80 90 61 60
        E 0 90 62 60
        E 80 80 61 00
        E 0 80 62 00
        E 80 90 60 60
        E 0 90 54 60
        E 0 90 48 60
        E 0 90 3c 60
        E 80 80 60 00
        E 0 80 54 00
        E 0 80 48 00
        E 0 80 3c 00
        E 80 90 61 60
        E 80 80 61 00
        E 80 90 60 60
        E 80 80 60 00
        E 80 90 62 60
        E 0 90 56 60
        E 0 90 4a 60
        E 80 80 62 00
        E 0 80 56 00
        E 0 80 4a 00
        E 80 90 61 60
        E 80 80 61 00
        E 80 90 62 60
        E 80 80 62 00
        E 80 90 60 60
        E 0 90 54 60
        E 0 90 48 60
        E 0 90 3c 60
        E 80 80 60 00
        E 0 80 54 00
        E 0 80 48 00
        E 0 80 3c 00
        E 80 90 61 60
        E 80 80 61 00
        E 80 90 60 60
        E 80 80 60 00
        E 80 90 62 60
        E 0 90 56 60
        E 0 90 4a 60
        E 80 80 62 00
        E 0 80 56 00
        E 0 80 4a 00
        E 80 90 61 60
        E 80 80 61 00
        E 80 90 62 60
        E 80 80 62 00
        E 80 90 60 60
        E 0 90 54 60
        E 0 90 48 60
        E 0 90 3c 60
        E 80 80 60 00
        E 0 80 54 00
        E 0 80 48 00
        E 0 80 3c 00
        E 80 90 61 60
        E 80 80 61 00
        E 80 90 60 60
        E 80 80 60 00
        E 80 90 61 60
        E 0 90 63 60
        E 0 90 55 60
        E 0 90 57 60
        E 0 90 49 60
        E 0 90 4a 60
        E 80 80 61 00
        E 0 80 63 00
        E 0 80 55 00
        E 0 80 57 00
        E 0 80 49 00
        E 0 80 4a 00
        E 80 90 61 60
        E 0 90 63 60
        E 80 80 61 00
        E 0 80 63 00
        E 80 90 61 60
        E 0 90 63 60
        E 80 80 61 00
        E 0 80 63 00
        E 80 90 60 60
        E 0 90 54 60
        E 0 90 48 60
        E 0 90 3c 60
        E 80 80 60 00
        E 0 80 54 00
        E 0 80 48 00
        E 0 80 3c 00
        E 80 90 61 60
        E 80 80 61 00
        E 80 90 60 60
        E 80 80 60 00
        E 80 90 61 60
        E 0 90 63 60
        E 0 90 55 60
        E 0 90 57 60
        E 0 90 49 60
        E 0 90 4a 60
        E 80 80 61 00
        E 0 80 63 00
        E 0 80 55 00
        E 0 80 57 00
        E 0 80 49 00
        E 0 80 4a 00
        E 80 90 61 60
        E 0 90 63 60
        E 80 80 61 00
        E 0 80 63 00
        E 80 90 61 60
        E 0 90 63 60
        E 80 80 61 00
        E 0 80 63 00
        E 80 90 60 60
        E 0 90 54 60
        E 0 90 48 60
        E 0 90 3c 60
        E 80 80 60 00
        E 0 80 54 00
        E 0 80 48 00
        E 0 80 3c 00
        E 80 90 61 60
        E 80 80 61 00
        E 80 90 60 60
        E 80 80 60 00
        E 80 90 62 60
        E 0 90 56 60
        E 0 90 4a 60
        E 80 80 62 00
        E 0 80 56 00
        E 0 80 4a 00
        E 80 90 61 60
        E 80 80 61 00
        E 80 90 62 60
        E 80 80 62 00
        E 80 90 60 60
        E 0 90 54 60
        E 0 90 48 60
        E 0 90 3c 60
        E 80 80 60 00
        E 0 80 54 00
        E 0 80 48 00
        E 0 80 3c 00
        E 80 90 61 60
        E 80 80 61 00
        E 80 90 60 60
        E 80 80 60 00
        E 80 90 62 60
        E 0 90 56 60
        E 0 90 4a 60
        E 80 80 62 00
        E 0 80 56 00
        E 0 80 4a 00
        E 80 90 61 60
        E 80 80 61 00
        E 80 90 62 60
        E 80 80 62 00
        E 80 90 60 60
        E 0 90 54 60
        E 0 90 48 60
        E 0 90 3c 60
        E 80 80 60 00
        E 0 80 54 00
        E 0 80 48 00
        E 0 80 3c 00
        E 80 90 61 60
        E 80 80 61 00
        E 80 90 60 60
        E 80 80 60 00
        E 80 90 61 60
        E 0 90 62 60
        E 0 90 55 60
        E 0 90 56 60
        E 0 90 48 60
        E 0 90 4a 60
        E 80 80 61 00
        E 0 80 62 00
        E 0 80 55 00
        E 0 80 56 00
        E 0 80 48 00
        E 0 80 4a 00
        E 80 90 61 60
        E 0 90 62 60
        E 80 80 61 00
        E 0 80 62 00
        E 80 90 61 60
        E 0 90 62 60
        E 80 80 61 00
        E 0 80 62 00
        E 80 90 60 60
        E 0 90 54 60
        E 0 90 48 60
        E 0 90 3c 60
        E 80 80 60 00
        E 0 80 54 00
        E 0 80 48 00
        E 0 80 3c 00
        E 80 90 61 60
        E 80 80 61 00
        E 80 90 60 60
        E 80 80 60 00
        E 80 90 61 60
        E 0 90 62 60
        E 0 90 55 60
        E 0 90 56 60
        E 0 90 48 60
        E 0 90 4a 60
        E 80 80 61 00
        E 0 80 62 00
        E 0 80 55 00
        E 0 80 56 00
        E 0 80 48 00
        E 0 80 4a 00
        E 80 90 61 60
        E 0 90 62 60
        E 80 80 61 00
        E 0 80 62 00
        E 80 90 61 60
        E 0 90 62 60
        E 80 80 61 00
        E 0 80 62 00
        E 80 90 60 60
        E 0 90 54 60
        E 0 90 48 60
        E 0 90 3c 60
        E 80 80 60 00
        E 0 80 54 00
        E 0 80 48 00
        E 0 80 3c 00
        E 80 90 61 60
        E 80 80 61 00
        E 80 90 60 60
        E 80 80 60 00
        E 80 90 62 60
        E 0 90 56 60
        E 0 90 4a 60
        E 80 80 62 00
        E 0 80 56 00
        E 0 80 4a 00
        E 80 90 61 60
        E 80 80 61 00
        E 80 90 62 60
        E 80 80 62 00
        E 80 90 60 60
        E 0 90 54 60
        E 0 90 48 60
        E 0 90 3c 60
        E 80 80 60 00
        E 0 80 54 00
        E 0 80 48 00
        E 0 80 3c 00
        E 80 90 61 60
        E 80 80 61 00
        E 80 90 60 60
        E 80 80 60 00
        E 80 90 62 60
        E 0 90 56 60
        E 0 90 4a 60
        E 80 80 62 00
        E 0 80 56 00
        E 0 80 4a 00
        E 80 90 61 60
        E 80 80 61 00
        E 80 90 62 60
        E 80 80 62 00
        E 80 90 60 60
        E 0 90 54 60
        E 0 90 48 60
        E 0 90 3c 60
        E 80 80 60 00
        E 0 80 54 00
        E 0 80 48 00
        E 0 80 3c 00
        E 80 90 61 60
        E 80 80 61 00
        E 80 90 60 60
        E 80 80 60 00
        E 80 90 61 60
        E 0 90 63 60
        E 0 90 55 60
        E 0 90 57 60
        E 0 90 49 60
        E 0 90 4a 60
        E 80 80 61 00
        E 0 80 63 00
        E 0 80 55 00
        E 0 80 57 00
        E 0 80 49 00
        E 0 80 4a 00
        E 80 90 61 60
        E 0 90 63 60
        E 80 80 61 00
        E 0 80 63 00
        E 80 90 61 60
        E 0 90 63 60
        E 80 80 61 00
        E 0 80 63 00
        E 80 90 60 60
        E 0 90 54 60
        E 0 90 48 60
        E 0 90 3c 60
        E 80 80 60 00
        E 0 80 54 00
        E 0 80 48 00
        E 0 80 3c 00
        E 80 90 61 60
        E 80 80 61 00
        E 80 90 60 60
        E 80 80 60 00
        E 80 90 61 60
        E 0 90 63 60
        E 0 90 55 60
        E 0 90 57 60
        E 0 90 49 60
        E 0 90 4a 60
        E 80 80 61 00
        E 0 80 63 00
        E 0 80 55 00
        E 0 80 57 00
        E 0 80 49 00
        E 0 80 4a 00
        E 80 90 61 60
        E 0 90 63 60
        E 80 80 61 00
        E 0 80 63 00
        E 80 90 61 60
        E 0 90 63 60
        E 80 80 61 00
        E 0 80 63 00
        E 80 90 62 60
        E 0 90 63 60
        E 0 90 56 60
        E 0 90 57 60
        E 0 90 49 60
        E 0 90 4b 60
        E 0 90 3f 60
        E 80 80 62 00
        E 0 80 63 00
        E 0 80 56 00
        E 0 80 57 00
        E 0 80 49 00
        E 0 80 4b 00
        E 0 80 3f 00
        E 80 90 62 60
        E 0 90 63 60
        E 80 80 62 00
        E 0 80 63 00
        E 80 90 62 60
        E 0 90 63 60
        E 80 80 62 00
        E 0 80 63 00
        E 80 90 60 60
        E 0 90 66 60
        E 0 90 54 60
        E 0 90 48 60
        E 80 80 60 00
        E 0 80 66 00
        E 0 80 54 00
        E 0 80 48 00
        E 80 90 60 60
        E 80 80 60 00
        E 80 90 60 60
        E 80 80 60 00
        E 80 90 62 60
        E 0 90 63 60
        E 0 90 56 60
        E 0 90 57 60
        E 0 90 49 60
        E 0 90 4b 60
        E 0 90 3f 60
        E 80 80 62 00
        E 0 80 63 00
        E 0 80 56 00
        E 0 80 57 00
        E 0 80 49 00
        E 0 80 4b 00
        E 0 80 3f 00
        E 80 90 62 60
        E 0 90 63 60
        E 80 80 62 00
        E 0 80 63 00
        E 80 90 62 60
        E 0 90 63 60
        E 80 80 62 00
        E 0 80 63 00
        E 80 90 60 60
        E 0 90 66 60
        E 0 90 54 60
        E 0 90 48 60
        E 80 80 60 00
        E 0 80 66 00
        E 0 80 54 00
        E 0 80 48 00
        E 80 90 60 60
        E 80 80 60 00
        E 80 90 60 60
        E 80 80 60 00
        E 80 90 60 60
        E 0 90 66 60
        E 0 90 54 60
        E 0 90 48 60
        E 0 90 3c 60
        E 80 80 60 00
        E 0 80 66 00
        E 0 80 54 00
        E 0 80 48 00
        E 0 80 3c 00
        E 80 90 60 60
        E 80 80 60 00
        E 80 90 60 60
        E 80 80 60 00
        E 80 90 62 60
        E 0 90 64 60
        E 0 90 56 60
        E 0 90 58 60
        E 0 90 4a 60
        E 0 90 4b 60
        E 80 80 62 00
        E 0 80 64 00
        E 0 80 56 00
        E 0 80 58 00
        E 0 80 4a 00
        E 0 80 4b 00
        E 80 90 62 60
        E 0 90 64 60
        E 80 80 62 00
        E 0 80 64 00
        E 80 90 62 60
        E 0 90 64 60
        E 80 80 62 00
        E 0 80 64 00
        E 80 90 60 60
        E 0 90 66 60
        E 0 90 54 60
        E 0 90 48 60
        E 0 90 3c 60
        E 80 80 60 00
        E 0 80 66 00
        E 0 80 54 00
        E 0 80 48 00
        E 0 80 3c 00
        E 80 90 60 60
        E 80 80 60 00
        E 80 90 60 60
        E 80 80 60 00
        E 80 90 62 60
        E 0 90 64 60
        E 0 90 56 60
        E 0 90 58 60
        E 0 90 4a 60
        E 0 90 4b 60
        E 80 80 62 00
        E 0 80 64 00
        E 0 80 56 00
        E 0 80 58 00
        E 0 80 4a 00
        E 0 80 4b 00
        E 80 90 62 60
        E 0 90 64 60
        E 80 80 62 00
        E 0 80 64 00
        E 80 90 62 60
        E 0 90 64 60
        E 80 80 62 00
        E 0 80 64 00
        E 80 90 62 60
        E 0 90 63 60
        E 0 90 74 60
        E 0 90 56 60
        E 0 90 57 60
        E 0 90 49 60
        E 0 90 4b 60
        E 0 90 3f 60
        E 80 80 62 00
        E 0 80 63 00
        E 0 80 56 00
        E 0 80 57 00
        E 0 80 49 00
        E 0 80 4b 00
        E 0 80 3f 00
        E 80 90 62 60
        E 0 90 63 60
        E 80 80 62 00
        E 0 80 63 00
        E 80 90 62 60
        E 0 90 63 60
        E 80 80 62 00
        E 0 80 63 00
        E 80 90 60 60
        E 0 90 66 60
        E 0 90 54 60
        E 0 90 48 60
        E 80 80 60 00
        E 0 80 66 00
        E 0 80 54 00
        E 0 80 48 00
        E 80 90 60 60
        E 80 80 60 00
        E 80 90 60 60
        E 80 80 60 00
        E 80 90 62 60
        E 0 90 63 60
        E 0 90 56 60
        E 0 90 57 60
        E 0 90 49 60
        E 0 90 4b 60
        E 0 90 3f 60
        E 80 80 62 00
        E 0 80 63 00
        E 0 80 56 00
        E 0 80 57 00
        E 0 80 49 00
        E 0 80 4b 00
        E 0 80 3f 00
        E 80 90 62 60
        E 0 90 63 60
        E 80 80 62 00
        E 0 80 63 00
        E 80 90 62 60
        E 0 90 63 60
        E 80 80 62 00
        E 0 80 63 00
        E 80 90 60 60
        E 0 90 66 60
        E 0 90 54 60
        E 0 90 48 60
        E 80 80 60 00
        E 0 80 66 00
        E 0 80 54 00
        E 0 80 48 00
        E 80 90 60 60
        E 80 80 60 00
        E 80 90 60 60
        E 80 80 60 00
        E 80 90 60 60
        E 0 90 66 60
        E 0 90 54 60
        E 0 90 48 60
        E 0 90 3c 60
        E 80 80 60 00
        E 0 80 66 00
        E 0 80 54 00
        E 0 80 48 00
        E 0 80 3c 00
        E 80 90 60 60
        E 80 80 60 00
        E 80 90 60 60
        E 80 80 60 00
        E 80 90 63 60
        E 0 90 64 60
        E 0 90 57 60
        E 0 90 58 60
        E 0 90 4b 60
        E 0 90 4c 60
        E 80 80 63 00
        E 0 80 64 00
        E 0 80 57 00
        E 0 80 58 00
        E 0 80 4b 00
        E 0 80 4c 00
        E 80 90 63 60
        E 0 90 64 60
        E 80 80 63 00
        E 0 80 64 00
        E 80 90 63 60
        E 0 90 64 60
        E 80 80 63 00
        E 0 80 64 00
        E 80 90 60 60
        E 0 90 66 60
        E 0 90 54 60
        E 0 90 48 60
        E 0 90 3c 60
        E 80 80 60 00
        E 0 80 66 00
        E 0 80 54 00
        E 0 80 48 00
        E 0 80 3c 00
        E 80 90 60 60
        E 80 80 60 00
        E 80 90 60 60
        E 80 80 60 00
        E 80 90 63 60
        E 0 90 64 60
        E 0 90 57 60
        E 0 90 58 60
        E 0 90 4b 60
        E 0 90 4c 60
        E 80 80 63 00
        E 0 80 64 00
        E 0 80 57 00
        E 0 80 58 00
        E 0 80 4b 00
        E 0 80 4c 00
        E 80 90 63 60
        E 0 90 64 60
        E 80 80 63 00
        E 0 80 64 00
        E 80 90 63 60
        E 0 90 64 60
        E 80 80 63 00
        E 0 80 64 00
        E 80 80 74 00
        E 0 90 62 60
        E 0 90 63 60
        E 0 90 56 60
        E 0 90 57 60
        E 0 90 49 60
        E 0 90 4b 60
        E 0 90 3f 60
        E 80 80 62 00
        E 0 80 63 00
        E 0 80 56 00
        E 0 80 57 00
        E 0 80 49 00
        E 0 80 4b 00
        E 0 80 3f 00
        E 80 90 62 60
        E 0 90 63 60
        E 80 80 62 00
        E 0 80 63 00
        E 80 90 62 60
        E 0 90 63 60
        E 80 80 62 00
        E 0 80 63 00
        E 80 90 60 60
        E 0 90 66 60
        E 0 90 54 60
        E 0 90 48 60
        E 80 80 60 00
        E 0 80 66 00
        E 0 80 54 00
        E 0 80 48 00
        E 80 90 60 60
        E 80 80 60 00
        E 80 90 60 60
        E 80 80 60 00
        E 80 90 62 60
        E 0 90 63 60
        E 0 90 56 60
        E 0 90 57 60
        E 0 90 49 60
        E 0 90 4b 60
        E 0 90 3f 60
        E 80 80 62 00
        E 0 80 63 00
        E 0 80 56 00
        E 0 80 57 00
        E 0 80 49 00
        E 0 80 4b 00
        E 0 80 3f 00
        E 80 90 62 60
        E 0 90 63 60
        E 80 80 62 00
        E 0 80 63 00
        E 80 90 62 60
        E 0 90 63 60
        E 80 80 62 00
        E 0 80 63 00
        E 80 90 60 60
        E 0 90 66 60
        E 0 90 54 60
        E 0 90 48 60
        E 80 80 60 00
        E 0 80 66 00
        E 0 80 54 00
        E 0 80 48 00
        E 80 90 60 60
        E 80 80 60 00
        E 80 90 60 60
        E 80 80 60 00
        E 80 90 60 60
        E 0 90 66 60
        E 0 90 54 60
        E 0 90 48 60
        E 0 90 3c 60
        E 80 80 60 00
        E 0 80 66 00
        E 0 80 54 00
        E 0 80 48 00
        E 0 80 3c 00
        E 80 90 60 60
        E 80 80 60 00
        E 80 90 60 60
        E 80 80 60 00
        E 80 90 62 60
        E 0 90 64 60
        E 0 90 56 60
        E 0 90 58 60
        E 0 90 4a 60
        E 0 90 4b 60
        E 80 80 62 00
        E 0 80 64 00
        E 0 80 56 00
        E 0 80 58 00
        E 0 80 4a 00
        E 0 80 4b 00
        E 80 90 62 60
        E 0 90 64 60
        E 80 80 62 00
        E 0 80 64 00
        E 80 90 62 60
        E 0 90 64 60
        E 80 80 62 00
        E 0 80 64 00
        E 80 90 60 60
        E 0 90 66 60
        E 0 90 54 60
        E 0 90 48 60
        E 0 90 3c 60
        E 80 80 60 00
        E 0 80 66 00
        E 0 80 54 00
        E 0 80 48 00
        E 0 80 3c 00
        E 80 90 60 60
        E 80 80 60 00
        E 80 90 60 60
        E 80 80 60 00
        E 80 90 62 60
        E 0 90 64 60
        E 0 90 56 60
        E 0 90 58 60
        E 0 90 4a 60
        E 0 90 4b 60
        E 80 80 62 00
        E 0 80 64 00
        E 0 80 56 00
        E 0 80 58 00
        E 0 80 4a 00
        E 0 80 4b 00
        E 80 90 62 60
        E 0 90 64 60
        E 80 80 62 00
        E 0 80 64 00
        E 80 90 62 60
        E 0 90 64 60
        E 80 80 62 00
        E 0 80 64 00
        E 80 90 62 60
        E 0 90 63 60
        E 0 90 56 60
        E 0 90 57 60
        E 0 90 49 60
        E 0 90 4b 60
        E 0 90 3f 60
        E 80 80 62 00
        E 0 80 63 00
        E 0 80 56 00
        E 0 80 57 00
        E 0 80 49 00
        E 0 80 4b 00
        E 0 80 3f 00
        E 80 90 62 60
        E 0 90 63 60
        E 80 80 62 00
        E 0 80 63 00
        E 80 90 62 60
        E 0 90 63 60
        E 80 80 62 00
        E 0 80 63 00
        E 80 90 60 60
        E 0 90 66 60
        E 0 90 54 60
        E 0 90 48 60
        E 80 80 60 00
        E 0 80 66 00
        E 0 80 54 00
        E 0 80 48 00
        E 80 90 60 60
        E 80 80 60 00
        E 80 90 60 60
        E 80 80 60 00
        E 80 90 62 60
        E 0 90 63 60
        E 0 90 56 60
        E 0 90 57 60
        E 0 90 49 60
        E 0 90 4b 60
        E 0 90 3f 60
        E 80 80 62 00
        E 0 80 63 00
        E 0 80 56 00
        E 0 80 57 00
        E 0 80 49 00
        E 0 80 4b 00
        E 0 80 3f 00
        E 80 90 62 60
        E 0 90 63 60
        E 80 80 62 00
        E 0 80 63 00
        E 80 90 62 60
        E 0 90 63 60
        E 80 80 62 00
        E 0 80 63 00
        E 80 90 60 60
        E 0 90 66 60
        E 0 90 54 60
        E 0 90 48 60
        E 80 80 60 00
        E 0 80 66 00
        E 0 80 54 00
        E 0 80 48 00
        E 80 90 60 60
        E 80 80 60 00
        E 80 90 60 60
        E 80 80 60 00
        E 80 90 60 60
        E 0 90 66 60
        E 0 90 54 60
        E 0 90 48 60
        E 0 90 3c 60
        E 80 80 60 00
        E 0 80 66 00
        E 0 80 54 00
        E 0 80 48 00
        E 0 80 3c 00
        E 80 90 60 60
        E 80 80 60 00
        E 80 90 60 60
        E 80 80 60 00
        E 80 90 63 60
        E 0 90 64 60
        E 0 90 57 60
        E 0 90 58 60
        E 0 90 4b 60
        E 0 90 4c 60
        E 80 80 63 00
        E 0 80 64 00
        E 0 80 57 00
        E 0 80 58 00
        E 0 80 4b 00
        E 0 80 4c 00
        E 80 90 63 60
        E 0 90 64 60
        E 80 80 63 00
        E 0 80 64 00
        E 80 90 63 60
        E 0 90 64 60
        E 80 80 63 00
        E 0 80 64 00
        E 80 90 60 60
        E 0 90 66 60
        E 0 90 54 60
        E 0 90 48 60
        E 0 90 3c 60
        E 80 80 60 00
        E 0 80 66 00
        E 0 80 54 00
        E 0 80 48 00
        E 0 80 3c 00
        E 80 90 60 60
        E 80 80 60 00
        E 80 90 60 60
        E 80 80 60 00
        E 80 90 63 60
        E 0 90 64 60
        E 0 90 57 60
        E 0 90 58 60
        E 0 90 4b 60
        E 0 90 4c 60
        E 80 80 63 00
        E 0 80 64 00
        E 0 80 57 00
        E 0 80 58 00
        E 0 80 4b 00
        E 0 80 4c 00
        E 80 90 63 60
        E 0 90 64 60
        E 80 80 63 00
        E 0 80 64 00
        E 80 90 63 60
        E 0 90 64 60
        E 80 80 63 00
        E 0 80 64 00
        E 80 90 62 60
        E 0 90 63 60
        E 0 90 56 60
        E 0 90 57 60
        E 0 90 49 60
        E 0 90 4b 60
        E 0 90 3f 60
        E 80 80 62 00
        E 0 80 63 00
        E 0 80 56 00
        E 0 80 57 00
        E 0 80 49 00
        E 0 80 4b 00
        E 0 80 3f 00
        E 80 90 62 60
        E 0 90 63 60
        E 80 80 62 00
        E 0 80 63 00
        E 80 90 62 60
        E 0 90 63 60
        E 80 80 62 00
        E 0 80 63 00
        E 80 90 60 60
        E 0 90 66 60
        E 0 90 54 60
        E 0 90 48 60
        E 80 80 60 00
        E 0 80 66 00
        E 0 80 54 00
        E 0 80 48 00
        E 80 90 60 60
        E 80 80 60 00
        E 80 90 60 60
        E 80 80 60 00
        E 80 90 62 60
        E 0 90 63 60
        E 0 90 56 60
        E 0 90 57 60
        E 0 90 49 60
        E 0 90 4b 60
        E 0 90 3f 60
        E 80 80 62 00
        E 0 80 63 00
        E 0 80 56 00
        E 0 80 57 00
        E 0 80 49 00
        E 0 80 4b 00
        E 0 80 3f 00
        E 80 90 62 60
        E 0 90 63 60
        E 80 80 62 00
        E 0 80 63 00
        E 80 90 62 60
        E 0 90 63 60
        E 80 80 62 00
        E 0 80 63 00
        E 80 90 60 60
        E 0 90 66 60
        E 0 90 54 60
        E 0 90 48 60
        E 80 80 60 00
        E 0 80 66 00
        E 0 80 54 00
        E 0 80 48 00
        E 80 90 60 60
        E 80 80 60 00
        E 80 90 60 60
        E 80 80 60 00
        E 80 90 60 60
        E 0 90 66 60
        E 0 90 54 60
        E 0 90 48 60
        E 0 90 3c 60
        E 80 80 60 00
        E 0 80 66 00
        E 0 80 54 00
        E 0 80 48 00
        E 0 80 3c 00
        E 80 90 60 60
        E 80 80 60 00
        E 80 90 60 60
        E 80 80 60 00
        E 80 90 62 60
        E 0 90 64 60
        E 0 90 56 60
        E 0 90 58 60
        E 0 90 4a 60
        E 0 90 4b 60
        E 80 80 62 00
        E 0 80 64 00
        E 0 80 56 00
        E 0 80 58 00
        E 0 80 4a 00
        E 0 80 4b 00
        E 80 90 62 60
        E 0 90 64 60
        E 80 80 62 00
        E 0 80 64 00
        E 80 90 62 60
        E 0 90 64 60
        E 80 80 62 00
        E 0 80 64 00
        E 80 90 60 60
        E 0 90 66 60
        E 0 90 54 60
        E 0 90 48 60
        E 0 90 3c 60
        E 80 80 60 00
        E 0 80 66 00
        E 0 80 54 00
        E 0 80 48 00
        E 0 80 3c 00
        E 80 90 60 60
        E 80 80 60 00
        E 80 90 60 60
        E 80 80 60 00
        E 80 90 62 60
        E 0 90 64 60
        E 0 90 56 60
        E 0 90 58 60
        E 0 90 4a 60
        E 0 90 4b 60
        E 80 80 62 00
        E 0 80 64 00
        E 0 80 56 00
        E 0 80 58 00
        E 0 80 4a 00
        E 0 80 4b 00
        E 80 90 62 60
        E 0 90 64 60
        E 80 80 62 00
        E 0 80 64 00
        E 80 90 62 60
        E 0 90 64 60
        E 80 80 62 00
        E 0 80 64 00
        E 80 90 62 60
        E 0 90 63 60
        E 0 90 74 60
        E 0 90 56 60
        E 0 90 57 60
        E 0 90 49 60
        E 0 90 4b 60
        E 0 90 3f 60
        E 80 80 62 00
        E 0 80 63 00
        E 0 80 56 00
        E 0 80 57 00
        E 0 80 49 00
        E 0 80 4b 00
        E 0 80 3f 00
        E 80 90 62 60
        E 0 90 63 60
        E 80 80 62 00
        E 0 80 63 00
        E 80 90 62 60
        E 0 90 63 60
        E 80 80 62 00
        E 0 80 63 00
        E 80 90 60 60
        E 0 90 66 60
        E 0 90 54 60
        E 0 90 48 60
        E 80 80 60 00
        E 0 80 66 00
        E 0 80 54 00
        E 0 80 48 00
        E 80 90 60 60
        E 80 80 60 00
        E 80 90 60 60
        E 80 80 60 00
        E 80 90 62 60
        E 0 90 63 60
        E 0 90 56 60
        E 0 90 57 60
        E 0 90 49 60
        E 0 90 4b 60
        E 0 90 3f 60
        E 80 80 62 00
        E 0 80 63 00
        E 0 80 56 00
        E 0 80 57 00
        E 0 80 49 00
        E 0 80 4b 00
        E 0 80 3f 00
        E 80 90 62 60
        E 0 90 63 60
        E 80 80 62 00
        E 0 80 63 00
        E 80 90 62 60
        E 0 90 63 60
        E 80 80 62 00
        E 0 80 63 00
        E 80 90 60 60
        E 0 90 66 60
        E 0 90 54 60
        E 0 90 48 60
        E 80 80 60 00
        E 0 80 66 00
        E 0 80 54 00
        E 0 80 48 00
        E 80 90 60 60
        E 80 80 60 00
        E 80 90 60 60
        E 80 80 60 00
        E 80 90 60 60
        E 0 90 66 60
        E 0 90 54 60
        E 0 90 48 60
        E 0 90 3c 60
        E 80 80 60 00
        E 0 80 66 00
        E 0 80 54 00
        E 0 80 48 00
        E 0 80 3c 00
        E 80 90 60 60
        E 80 80 60 00
        E 80 90 60 60
        E 80 80 60 00
        E 80 90 63 60
        E 0 90 64 60
        E 0 90 57 60
        E 0 90 58 60
        E 0 90 4b 60
        E 0 90 4c 60
        E 80 80 63 00
        E 0 80 64 00
        E 0 80 57 00
        E 0 80 58 00
        E 0 80 4b 00
        E 0 80 4c 00
        E 80 90 63 60
        E 0 90 64 60
        E 80 80 63 00
        E 0 80 64 00
        E 80 90 63 60
        E 0 90 64 60
        E 80 80 63 00
        E 0 80 64 00
        E 80 90 60 60
        E 0 90 66 60
        E 0 90 54 60
        E 0 90 48 60
        E 0 90 3c 60
        E 80 80 60 00
        E 0 80 66 00
        E 0 80 54 00
        E 0 80 48 00
        E 0 80 3c 00
        E 80 90 60 60
        E 80 80 60 00
        E 80 90 60 60
        E 80 80 60 00
        E 80 90 63 60
        E 0 90 64 60
        E 0 90 57 60
        E 0 90 58 60
        E 0 90 4b 60
        E 0 90 4c 60
        E 80 80 63 00
        E 0 80 64 00
        E 0 80 57 00
        E 0 80 58 00
        E 0 80 4b 00
        E 0 80 4c 00
        E 80 90 63 60
        E 0 90 64 60
        E 80 80 63 00
        E 0 80 64 00
        E 80 90 63 60
        E 0 90 64 60
        E 80 80 63 00
        E 0 80 64 00
        E 80 80 74 00
        E 0 90 62 60
        E 0 90 63 60
        E 0 90 56 60
        E 0 90 57 60
        E 0 90 49 60
        E 0 90 4b 60
        E 0 90 3f 60
        E 80 80 62 00
        E 0 80 63 00
        E 0 80 56 00
        E 0 80 57 00
        E 0 80 49 00
        E 0 80 4b 00
        E 0 80 3f 00
        E 80 90 62 60
        E 0 90 63 60
        E 80 80 62 00
        E 0 80 63 00
        E 80 90 62 60
        E 0 90 63 60
        E 80 80 62 00
        E 0 80 63 00
        E 80 90 60 60
        E 0 90 66 60
        E 0 90 54 60
        E 0 90 48 60
        E 80 80 60 00
        E 0 80 66 00
        E 0 80 54 00
        E 0 80 48 00
        E 80 90 60 60
        E 80 80 60 00
        E 80 90 60 60
        E 80 80 60 00
        E 80 90 62 60
        E 0 90 63 60
        E 0 90 56 60
        E 0 90 57 60
        E 0 90 49 60
        E 0 90 4b 60
        E 0 90 3f 60
        E 80 80 62 00
        E 0 80 63 00
        E 0 80 56 00
        E 0 80 57 00
        E 0 80 49 00
        E 0 80 4b 00
        E 0 80 3f 00
        E 80 90 62 60
        E 0 90 63 60
        E 80 80 62 00
        E 0 80 63 00
        E 80 90 62 60
        E 0 90 63 60
        E 80 80 62 00
        E 0 80 63 00
        E 80 90 60 60
        E 0 90 66 60
        E 0 90 54 60
        E 0 90 48 60
        E 80 80 60 00
        E 0 80 66 00
        E 0 80 54 00
        E 0 80 48 00
        E 80 90 60 60
        E 80 80 60 00
        E 80 90 60 60
        E 80 80 60 00
        E 80 90 60 60
        E 0 90 66 60
        E 0 90 54 60
        E 0 90 48 60
        E 0 90 3c 60
        E 80 80 60 00
        E 0 80 66 00
        E 0 80 54 00
        E 0 80 48 00
        E 0 80 3c 00
        E 80 90 60 60
        E 80 80 60 00
        E 80 90 60 60
        E 80 80 60 00
        E 80 90 62 60
        E 0 90 64 60
        E 0 90 56 60
        E 0 90 58 60
        E 0 90 4a 60
        E 0 90 4b 60
        E 80 80 62 00
        E 0 80 64 00
        E 0 80 56 00
        E 0 80 58 00
        E 0 80 4a 00
        E 0 80 4b 00
        E 80 90 62 60
        E 0 90 64 60
        E 80 80 62 00
        E 0 80 64 00
        E 80 90 62 60
        E 0 90 64 60
        E 80 80 62 00
        E 0 80 64 00
        E 80 90 60 60
        E 0 90 66 60
        E 0 90 54 60
        E 0 90 48 60
        E 0 90 3c 60
        E 80 80 60 00
        E 0 80 66 00
        E 0 80 54 00
        E 0 80 48 00
        E 0 80 3c 00
        E 80 90 60 60
        E 80 80 60 00
        E 80 90 60 60
        E 80 80 60 00
        E 80 90 62 60
        E 0 90 64 60
        E 0 90 56 60
        E 0 90 58 60
        E 0 90 4a 60
        E 0 90 4b 60
        E 80 80 62 00
        E 0 80 64 00
        E 0 80 56 00
        E 0 80 58 00
        E 0 80 4a 00
        E 0 80 4b 00
        E 80 90 62 60
        E 0 90 64 60
        E 80 80 62 00
        E 0 80 64 00
        E 80 90 62 60
        E 0 90 64 60
        E 80 80 62 00
        E 0 80 64 00
        E 80 90 62 60
        E 0 90 63 60
        E 0 90 56 60
        E 0 90 57 60
        E 0 90 49 60
        E 0 90 4b 60
        E 0 90 3f 60
        E 80 80 62 00
        E 0 80 63 00
        E 0 80 56 00
        E 0 80 57 00
        E 0 80 49 00
        E 0 80 4b 00
        E 0 80 3f 00
        E 80 90 62 60
        E 0 90 63 60
        E 80 80 62 00
        E 0 80 63 00
        E 80 90 62 60
        E 0 90 63 60
        E 80 80 62 00
        E 0 80 63 00
        E 80 90 60 60
        E 0 90 66 60
        E 0 90 54 60
        E 0 90 48 60
        E 80 80 60 00
        E 0 80 66 00
        E 0 80 54 00
        E 0 80 48 00
        E 80 90 60 60
        E 80 80 60 00
        E 80 90 60 60
        E 80 80 60 00
        E 80 90 62 60
        E 0 90 63 60
        E 0 90 56 60
        E 0 90 57 60
        E 0 90 49 60
        E 0 90 4b 60
        E 0 90 3f 60
        E 80 80 62 00
        E 0 80 63 00
        E 0 80 56 00
        E 0 80 57 00
        E 0 80 49 00
        E 0 80 4b 00
        E 0 80 3f 00
        E 80 90 62 60
        E 0 90 63 60
        E 80 80 62 00
        E 0 80 63 00
        E 80 90 62 60
        E 0 90 63 60
        E 80 80 62 00
        E 0 80 63 00
        E 80 90 60 60
        E 0 90 66 60
        E 0 90 54 60
        E 0 90 48 60
        E 80 80 60 00
        E 0 80 66 00
        E 0 80 54 00
        E 0 80 48 00
        E 80 90 60 60
        E 80 80 60 00
        E 80 90 60 60
        E 80 80 60 00
        E 80 90 60 60
        E 0 90 66 60
        E 0 90 54 60
        E 0 90 48 60
        E 0 90 3c 60
        E 80 80 60 00
        E 0 80 66 00
        E 0 80 54 00
        E 0 80 48 00
        E 0 80 3c 00
        E 80 90 60 60
        E 80 80 60 00
        E 80 90 60 60
        E 80 80 60 00
        E 80 90 63 60
        E 0 90 64 60
        E 0 90 57 60
        E 0 90 58 60
        E 0 90 4b 60
        E 0 90 4c 60
        E 80 80 63 00
        E 0 80 64 00
        E 0 80 57 00
        E 0 80 58 00
        E 0 80 4b 00
        E 0 80 4c 00
        E 80 90 63 60
        E 0 90 64 60
        E 80 80 63 00
        E 0 80 64 00
        E 80 90 63 60
        E 0 90 64 60
        E 80 80 63 00
        E 0 80 64 00
        E 80 90 60 60
        E 0 90 66 60
        E 0 90 54 60
        E 0 90 48 60
        E 0 90 3c 60
        E 80 80 60 00
        E 0 80 66 00
        E 0 80 54 00
        E 0 80 48 00
        E 0 80 3c 00
        E 80 90 60 60
        E 80 80 60 00
        E 80 90 60 60
        E 80 80 60 00
        E 80 90 63 60
        E 0 90 64 60
        E 0 90 57 60
        E 0 90 58 60
        E 0 90 4b 60
        E 0 90 4c 60
        E 80 80 63 00
        E 0 80 64 00
        E 0 80 57 00
        E 0 80 58 00
        E 0 80 4b 00
        E 0 80 4c 00
        E 80 90 63 60
        E 0 90 64 60
        E 80 80 63 00
        E 0 80 64 00
        E 80 90 63 60
        E 0 90 64 60
        E 80 80 63 00
        E 0 80 64 00
        E 80 90 60 60
        E 0 90 66 60
        E 0 90 54 60
        E 0 90 48 60
        E 0 90 3c 60
        E 80 80 60 00
        E 0 80 66 00
        E 0 80 54 00
        E 0 80 48 00
        E 0 80 3c 00
        E 80 90 60 60
        E 80 80 60 00
        E 80 90 60 60
        E 80 80 60 00
        E 80 90 61 60
        E 0 90 66 60
        E 0 90 55 60
        E 0 90 49 60
        E 80 80 61 00
        E 0 80 66 00
        E 0 80 55 00
        E 0 80 49 00
        E 80 90 61 60
        E 80 80 61 00
        E 80 90 61 60
        E 80 80 61 00
        E 80 90 60 60
        E 0 90 66 60
        E 0 90 54 60
        E 0 90 48 60
        E 0 90 3c 60
        E 80 80 60 00
        E 0 80 66 00
        E 0 80 54 00
        E 0 80 48 00
        E 0 80 3c 00
        E 80 90 60 60
        E 80 80 60 00
        E 80 90 60 60
        E 80 80 60 00
        E 80 90 62 60
        E 0 90 66 60
        E 0 90 56 60
        E 0 90 4a 60
        E 80 80 62 00
        E 0 80 66 00
        E 0 80 56 00
        E 0 80 4a 00
        E 80 90 62 60
        E 80 80 62 00
        E 80 90 61 60
        E 80 80 61 00
        E 80 90 63 60
        E 0 90 66 60
        E 0 90 57 60
        E 0 90 4b 60
        E 0 90 3e 60
        E 80 80 63 00
        E 0 80 66 00
        E 0 80 57 00
        E 0 80 4b 00
        E 0 80 3e 00
        E 80 90 63 60
        E 80 80 63 00
        E 80 90 62 60
        E 0 90 56 60
        E 120 80 56 00
        E 160 80 62 00
        E 120 90 62 60
        E 0 90 56 60
        E 120 80 62 00
        E 0 80 56 00
        E 0 90 62 60
        E 120 80 62 00
        E 0 90 61 60
        E 0 90 66 60
        E 0 90 55 60
        E 0 90 49 60
        E 0 90 3d 60
        E 80 80 61 00
        E 0 80 66 00
        E 0 80 55 00
        E 0 80 49 00
        E 0 80 3d 00
        E 240 90 60 60
        E 80 80 60 00
        E 80 90 64 60
        E 0 90 58 60
        E 0 90 4b 60
        E 120 80 4b 00
        E 240 80 64 00
        E 0 80 58 00
        E 120 90 60 60
        E 0 90 54 60
        E 0 90 48 60
        E 0 90 3c 60
        E 80 80 60 00
        E 0 80 54 00
        E 0 80 48 00
        E 0 80 3c 00
        E 80 90 60 60
        E 80 80 60 00
        E 80 90 60 60
        E 80 80 60 00
        E 80 90 61 60
        E 0 90 66 60
        E 0 90 55 60
        E 0 90 49 60
        E 80 80 61 00
        E 0 80 66 00
        E 0 80 55 00
        E 0 80 49 00
        E 80 90 61 60
        E 80 80 61 00
        E 80 90 61 60
        E 80 80 61 00
        E 80 90 60 60
        E 0 90 66 60
        E 0 90 54 60
        E 0 90 48 60
        E 0 90 3c 60
        E 80 80 60 00
        E 0 80 66 00
        E 0 80 54 00
        E 0 80 48 00
        E 0 80 3c 00
        E 80 90 60 60
        E 80 80 60 00
        E 80 90 60 60
        E 80 80 60 00
        E 80 90 62 60
        E 0 90 66 60
        E 0 90 56 60
        E 0 90 4a 60
        E 80 80 62 00
        E 0 80 66 00
        E 0 80 56 00
        E 0 80 4a 00
        E 80 90 62 60
        E 80 80 62 00
        E 80 90 61 60
        E 80 80 61 00
        E 80 90 63 60
        E 0 90 66 60
        E 0 90 57 60
        E 0 90 4b 60
        E 0 90 3e 60
        E 80 80 63 00
        E 0 80 66 00
        E 0 80 57 00
        E 0 80 4b 00
        E 0 80 3e 00
        E 80 90 63 60
        E 80 80 63 00
        E 80 90 62 60
        E 0 90 56 60
        E 120 80 56 00
        E 160 80 62 00
        E 120 90 62 60
        E 0 90 56 60
        E 120 80 62 00
        E 0 80 56 00
        E 0 90 62 60
        E 120 80 62 00
        E 0 90 61 60
        E 0 90 66 60
        E 0 90 55 60
        E 0 90 49 60
        E 0 90 3d 60
        E 80 80 61 00
        E 0 80 66 00
        E 0 80 55 00
        E 0 80 49 00
        E 0 80 3d 00
        E 240 90 60 60
        E 80 80 60 00
        E 80 90 64 60
        E 0 90 58 60
        E 0 90 4b 60
        E 120 80 4b 00
        E 240 80 64 00
        E 0 80 58 00
        E 120 90 60 60
        E 0 90 54 60
        E 0 90 48 60
        E 0 90 3c 60
        E 80 80 60 00
        E 0 80 54 00
        E 0 80 48 00
        E 0 80 3c 00
        E 80 90 60 60
        E 80 80 60 00
        E 80 90 60 60
        E 80 80 60 00
        E 80 90 62 60
        E 0 90 66 60
        E 0 90 56 60
        E 0 90 4a 60
        E 80 80 62 00
        E 0 80 66 00
        E 0 80 56 00
        E 0 80 4a 00
        E 80 90 62 60
        E 80 80 62 00
        E 80 90 62 60
        E 80 80 62 00
        E 80 90 60 60
        E 0 90 66 60
        E 0 90 54 60
        E 0 90 48 60
        E 0 90 3c 60
        E 80 80 60 00
        E 0 80 66 00
        E 0 80 54 00
        E 0 80 48 00
        E 0 80 3c 00
        E 80 90 60 60
        E 80 80 60 00
        E 80 90 60 60
        E 80 80 60 00
        E 80 90 63 60
        E 0 90 66 60
        E 0 90 57 60
        E 0 90 4b 60
        E 80 80 63 00
        E 0 80 66 00
        E 0 80 57 00
        E 0 80 4b 00
        E 80 90 63 60
        E 80 80 63 00
        E 80 90 62 60
        E 80 80 62 00
        E 80 90 64 60
        E 0 90 66 60
        E 0 90 58 60
        E 0 90 4b 60
        E 0 90 3e 60
        E 80 80 64 00
        E 0 80 66 00
        E 0 80 58 00
        E 0 80 4b 00
        E 0 80 3e 00
        E 80 90 64 60
        E 80 80 64 00
        E 80 90 63 60
        E 0 90 57 60
        E 120 80 57 00
        E 160 80 63 00
        E 120 90 63 60
        E 0 90 57 60
        E 120 80 63 00
        E 0 80 57 00
        E 0 90 63 60
        E 120 80 63 00
        E 0 90 62 60
        E 0 90 66 60
        E 0 90 56 60
        E 0 90 4a 60
        E 0 90 3d 60
        E 80 80 62 00
        E 0 80 66 00
        E 0 80 56 00
        E 0 80 4a 00
        E 0 80 3d 00
        E 240 90 61 60
        E 80 80 61 00
        E 80 90 64 60
        E 0 90 58 60
        E 0 90 4b 60
        E 120 80 4b 00
        E 240 80 64 00
        E 0 80 58 00
        E 120 90 60 60
        E 0 90 54 60
        E 0 90 48 60
        E 0 90 3c 60
        E 80 80 60 00
        E 0 80 54 00
        E 0 80 48 00
        E 0 80 3c 00
        E 80 90 60 60
        E 80 80 60 00
        E 80 90 60 60
        E 80 80 60 00
        E 80 90 62 60
        E 0 90 66 60
        E 0 90 56 60
        E 0 90 4a 60
        E 80 80 62 00
        E 0 80 66 00
        E 0 80 56 00
        E 0 80 4a 00
        E 80 90 62 60
        E 80 80 62 00
        E 80 90 62 60
        E 80 80 62 00
        E 80 90 60 60
        E 0 90 66 60
        E 0 90 54 60
        E 0 90 48 60
        E 0 90 3c 60
        E 80 80 60 00
        E 0 80 66 00
        E 0 80 54 00
        E 0 80 48 00
        E 0 80 3c 00
        E 80 90 60 60
        E 80 80 60 00
        E 80 90 60 60
        E 80 80 60 00
        E 80 90 63 60
        E 0 90 66 60
        E 0 90 57 60
        E 0 90 4b 60
        E 80 80 63 00
        E 0 80 66 00
        E 0 80 57 00
        E 0 80 4b 00
        E 80 90 63 60
        E 80 80 63 00
        E 80 90 62 60
        E 80 80 62 00
        E 80 90 64 60
        E 0 90 66 60
        E 0 90 58 60
        E 0 90 4b 60
        E 0 90 3e 60
        E 80 80 64 00
        E 0 80 66 00
        E 0 80 58 00
        E 0 80 4b 00
        E 0 80 3e 00
        E 80 90 64 60
        E 80 80 64 00
        E 80 90 63 60
        E 0 90 57 60
        E 120 80 57 00
        E 160 80 63 00
        E 120 90 63 60
        E 0 90 57 60
        E 120 80 63 00
        E 0 80 57 00
        E 0 90 63 60
        E 120 80 63 00
        E 0 90 62 60
        E 0 90 66 60
        E 0 90 56 60
        E 0 90 4a 60
        E 0 90 3d 60
        E 80 80 62 00
        E 0 80 66 00
        E 0 80 56 00
        E 0 80 4a 00
        E 0 80 3d 00
        E 240 90 61 60
        E 80 80 61 00
        E 80 90 64 60
        E 0 90 58 60
        E 0 90 4b 60
        E 120 80 4b 00
        E 240 80 64 00
        E 0 80 58 00
        E 120 90 60 60
        E 0 90 61 60
        E 0 90 54 60
        E 0 90 55 60
        E 0 90 48 60
        E 0 90 49 60
        E 0 90 3c 60
        E 80 80 60 00
        E 0 80 61 00
        E 0 80 54 00
        E 0 80 55 00
        E 0 80 48 00
        E 0 80 49 00
        E 0 80 3c 00
        E 80 90 60 60
        E 80 80 60 00
        E 80 90 60 60
        E 80 80 60 00
        E 80 90 60 60
        E 0 90 54 60
        E 0 90 48 60
        E 0 90 3c 60
        E 80 80 60 00
        E 0 80 54 00
        E 0 80 48 00
        E 0 80 3c 00
        E 80 90 60 60
        E 80 80 60 00
        E 80 90 60 60
        E 80 80 60 00
        E 80 90 60 60
        E 0 90 61 60
        E 0 90 54 60
        E 0 90 55 60
        E 0 90 48 60
        E 0 90 49 60
        E 0 90 3c 60
        E 80 80 60 00
        E 0 80 61 00
        E 0 80 54 00
        E 0 80 55 00
        E 0 80 48 00
        E 0 80 49 00
        E 0 80 3c 00
        E 80 90 60 60
        E 80 80 60 00
        E 80 90 60 60
        E 80 80 60 00
        E 80 90 60 60
        E 0 90 54 60
        E 0 90 48 60
        E 80 80 60 00
        E 0 80 54 00
        E 0 80 48 00
        E 80 90 61 60
        E 0 90 63 60
        E 80 80 61 00
        E 0 80 63 00
        E 80 90 61 60
        E 0 90 62 60
        E 0 90 65 60
        E 80 80 61 00
        E 0 80 62 00
        E 0 80 65 00
        E 80 90 61 60
        E 0 90 63 60
        E 0 90 65 60
        E 0 90 55 60
        E 0 90 57 60
        E 0 90 49 60
        E 0 90 4a 60
        E 0 90 3e 60
        E 80 80 61 00
        E 0 80 63 00
        E 0 80 65 00
        E 0 80 55 00
        E 0 80 57 00
        E 0 80 49 00
        E 0 80 4a 00
        E 0 80 3e 00
        <X 480 0
          /wFbaWRsZV9yZWFsdGltZV0=
        >
        E 3280 b0 7b 00
        GUID {14D9E950-FB92-4048-8603-8FD02AE3B865}
        IGNTEMPO 0 120.00000000 4 4
        SRCCOLOR 20
        VELLANE 132 38 60
        COLORMAP "C:\Program Files (x86)\REAPER\Data\color_maps\rockband_guitarbass.png"
        BANKPROGRAMFILE "C:\Users\AJFOne23\AppData\Roaming\REAPER/Data/GM.reabank"
        TEXTSTRINGFILE "Text Events List.txt"
        CFGEDITVIEW 72862.201188 62.446545 0 12 0 0 0
        CFGEDIT 1 1 0 0 0 1 1 1 1 1 1 0.16666667 -8 -8 1370 736 1 2 1 2 0.00000000 0 0 0 0 0.500000 1 0 1.000000 64
        KEYSNAP 0 0 "102034050607" 0 "Major"
        EVTFILTER 0 -1 -1 -1 -1 0 1 0 0 -1.00000000 -1.00000000
      >
    >
  >
  <TRACK '{70C3FE4D-3BC3-4146-95C4-8AC455A2D0F5}'
    NAME "PART BASS"
    PEAKCOL 16777471
    BEAT -1
    AUTOMODE 0
    VOLPAN 1.00000000000000 0.00000000000000 -1.00000000000000 -1.00000000000000 1.00000000000000
    MUTESOLO 0 0 0
    IPHASE 0
    ISBUS 0 0
    BUSCOMP 1 0
    SHOWINMIX 1 0.666700 0.500000 1 0.500000 -1 -1 -1
    FREEMODE 0
    SEL 0
    REC 0 4096 1 0 0 0 0
    TRACKHEIGHT 54 0
    INQ 0 0 0 0.5000000000 100 0 0 100
    NCHAN 2
    FX 1
    TRACKID {70C3FE4D-3BC3-4146-95C4-8AC455A2D0F5}
    PERF 0
    MIDIOUT -1
    <MIDINOTENAMES
      0 96 "EXPERT Green"
      0 97 "EXPERT Red"
      0 98 "EXPERT Yellow"
      0 99 "EXPERT Blue"
      0 100 "EXPERT Orange"
      0 84 "HARD Green"
      0 85 "HARD Red"
      0 86 "HARD Yellow"
      0 87 "HARD Blue"
      0 88 "HARD Orange"
      0 91 "----"
      0 116 "OVERDRIVE"
      0 40 "Left Hand Lowest"
      0 59 "Left Hand Highest"
      0 58 "-"
      0 57 "-"
      0 56 "-"
      0 55 "-"
      0 54 "-"
      0 53 "-"
      0 52 "-"
      0 51 "-"
      0 50 "-"
      0 49 "-"
      0 47 "-"
      0 48 "-"
      0 46 "-"
      0 45 "-"
      0 44 "-"
      0 43 "-"
      0 42 "-"
      0 41 "-"
      0 111 "----"
      0 72 "MEDIUM Green"
      0 73 "MEDIUM Red"
      0 74 "MEDIUM Yellow"
      0 75 "MEDIUM Blue"
      0 76 "MEDIUM Orange"
      0 60 "EASY Green"
      0 61 "EASY Red"
      0 62 "EASY Yellow"
      0 63 "EASY Blue"
      0 64 "EASY Orange"
      0 68 "----"
      0 80 "----"
      0 102 "Force HOPO Off"
      0 101 "Force HOPO On"
      0 120 "BRE (use all 5)"
      0 121 "BRE"
      0 122 "BRE"
      0 123 "BRE"
      0 124 "BRE"
      0 119 "----"
      0 90 "Force HOPO Off"
      0 89 "Force HOPO On"
      0 127 "Trill Marker"
      0 125 "----"
      0 103 "Solo Marker"
    >
    MAINSEND 1 0
    <FXCHAIN
      WNDRECT 0 38 878 585
      SHOW 0
      LASTSEL 1
      DOCKED 0
      BYPASS 1 0
      <VST "VSTi: ReaSynth (Cockos)" "reasynth.dll" 0 ""
        eXNlcu9e7f4AAAAAAgAAAAEAAAAAAAAAAgAAAAAAAAA4AAAAAAAAAA==
        AAAAAO++rd4N8K3eAAAAAAAAAAAAAAAAAAAAADm0SD59y9s+tbSxOQ==
        AAAAALbz/T5VpCs6AAAAAAAAAAAAAAAAAAA=
      >
      FLOATPOS 0 0 0 0
      FXID {D4EC3C58-478E-4D1F-A0FC-2252BD344989}
      WAK 0
      BYPASS 0 0
      <VST "VSTi: RBN Preview (RBN)" "rbprev_vst.dll" 0 ""
        dnBicu5e7f4AAAAAAgAAAAEAAAAAAAAAAgAAAAAAAAAEAAAAAQAAAA==
        AAAAAAMAqgAAAAAAAAA=
      >
      FLOATPOS 32 32 659 497
      FXID {72D22271-4F4F-4081-90C4-66415E7AEC47}
      WAK 0
    >
    <ITEM
      POSITION 0.00000000000000
      SNAPOFFS 0.00000000000000
      LENGTH 187.82023574328986
      LOOP 0
      ALLTAKES 0
      SEL 0
      FADEIN 1 0.000000 0.000000 1 0
      FADEOUT 1 0.000000 0.000000 1 0
      MUTE 0
      IGUID {A1B24BBF-93B7-476C-BC6D-33F5621C633F}
      IID 3
      NAME "PART BASS"
      VOLPAN 1.000000 0.000000 1.000000 -1.000000
      SOFFS 0.00000000000000 0.00000000000000
      PLAYRATE 1.00000000000000 1 0.00000000000000 -65536
      CHANMODE 0
      GUID {344A7487-35C3-41F9-8B1E-12A4F3D7F336}
      <SOURCE MIDI
        HASDATA 1 480 QN
        POOLEDEVTS {6729CCEB-2B54-41BE-8CB3-9E58125A4ADE}
        <X 0 0
          /wNQQVJUIEJBU1M=
        >
        <X 3840 0
          /wFbaWRsZV0=
        >
        <X 1920 0
          /wFbcGxheV0=
        >
        E 0 90 60 60
        E 0 90 54 60
        E 0 90 48 60
        E 0 90 3c 60
        E 80 80 60 00
        E 0 80 54 00
        E 0 80 48 00
        E 0 80 3c 00
        E 80 90 60 60
        E 80 80 60 00
        E 80 90 60 60
        E 80 80 60 00
        E 80 90 62 60
        E 0 90 66 60
        E 0 90 56 60
        E 0 90 4a 60
        E 80 80 62 00
        E 0 80 66 00
        E 0 80 56 00
        E 0 80 4a 00
        E 80 90 62 60
        E 80 80 62 00
        E 80 90 62 60
        E 80 80 62 00
        E 80 90 60 60
        E 0 90 66 60
        E 0 90 54 60
        E 0 90 48 60
        E 0 90 3c 60
        E 80 80 60 00
        E 0 80 66 00
        E 0 80 54 00
        E 0 80 48 00
        E 0 80 3c 00
        E 80 90 60 60
        E 80 80 60 00
        E 80 90 60 60
        E 80 80 60 00
        E 80 90 63 60
        E 0 90 66 60
        E 0 90 57 60
        E 0 90 4b 60
        E 80 80 63 00
        E 0 80 66 00
        E 0 80 57 00
        E 0 80 4b 00
        E 80 90 63 60
        E 80 80 63 00
        E 80 90 62 60
        E 80 80 62 00
        E 80 90 64 60
        E 0 90 66 60
        E 0 90 58 60
        E 0 90 4b 60
        E 0 90 3e 60
        E 80 80 64 00
        E 0 80 66 00
        E 0 80 58 00
        E 0 80 4b 00
        E 0 80 3e 00
        E 80 90 64 60
        E 80 80 64 00
        E 80 90 63 60
        E 0 90 57 60
        E 520 80 63 00
        E 0 80 57 00
        E 120 90 62 60
        E 0 90 56 60
        E 0 90 4a 60
        E 0 90 3d 60
        E 80 80 62 00
        E 0 80 56 00
        E 0 80 4a 00
        E 0 80 3d 00
        E 240 90 61 60
        E 0 90 55 60
        E 400 80 61 00
        E 0 80 55 00
        E 240 90 60 60
        E 0 90 54 60
        E 0 90 48 60
        E 0 90 3c 60
        E 80 80 60 00
        E 0 80 54 00
        E 0 80 48 00
        E 0 80 3c 00
        E 80 90 60 60
        E 80 80 60 00
        E 80 90 60 60
        E 80 80 60 00
        E 80 90 62 60
        E 0 90 66 60
        E 0 90 56 60
        E 0 90 4a 60
        E 80 80 62 00
        E 0 80 66 00
        E 0 80 56 00
        E 0 80 4a 00
        E 80 90 62 60
        E 80 80 62 00
        E 80 90 62 60
        E 80 80 62 00
        E 80 90 60 60
        E 0 90 66 60
        E 0 90 54 60
        E 0 90 48 60
        E 0 90 3c 60
        E 80 80 60 00
        E 0 80 66 00
        E 0 80 54 00
        E 0 80 48 00
        E 0 80 3c 00
        E 80 90 60 60
        E 80 80 60 00
        E 80 90 60 60
        E 80 80 60 00
        E 80 90 63 60
        E 0 90 66 60
        E 0 90 57 60
        E 0 90 4b 60
        E 80 80 63 00
        E 0 80 66 00
        E 0 80 57 00
        E 0 80 4b 00
        E 80 90 63 60
        E 80 80 63 00
        E 80 90 62 60
        E 80 80 62 00
        E 80 90 64 60
        E 0 90 66 60
        E 0 90 58 60
        E 0 90 4b 60
        E 0 90 3e 60
        E 80 80 64 00
        E 0 80 66 00
        E 0 80 58 00
        E 0 80 4b 00
        E 0 80 3e 00
        E 80 90 64 60
        E 80 80 64 00
        E 80 90 63 60
        E 0 90 57 60
        E 520 80 63 00
        E 0 80 57 00
        E 120 90 62 60
        E 0 90 56 60
        E 0 90 4a 60
        E 0 90 3d 60
        E 80 80 62 00
        E 0 80 56 00
        E 0 80 4a 00
        E 0 80 3d 00
        E 240 90 61 60
        E 0 90 55 60
        E 520 80 61 00
        E 0 80 55 00
        E 120 90 60 60
        E 0 90 54 60
        E 0 90 48 60
        E 0 90 3c 60
        E 80 80 60 00
        E 0 80 54 00
        E 0 80 48 00
        E 0 80 3c 00
        E 80 90 60 60
        E 80 80 60 00
        E 80 90 60 60
        E 80 80 60 00
        E 80 90 62 60
        E 0 90 66 60
        E 0 90 56 60
        E 0 90 4a 60
        E 80 80 62 00
        E 0 80 66 00
        E 0 80 56 00
        E 0 80 4a 00
        E 80 90 62 60
        E 80 80 62 00
        E 80 90 62 60
        E 80 80 62 00
        E 80 90 60 60
        E 0 90 66 60
        E 0 90 54 60
        E 0 90 48 60
        E 0 90 3c 60
        E 80 80 60 00
        E 0 80 66 00
        E 0 80 54 00
        E 0 80 48 00
        E 0 80 3c 00
        E 80 90 60 60
        E 80 80 60 00
        E 80 90 60 60
        E 80 80 60 00
        E 80 90 63 60
        E 0 90 66 60
        E 0 90 57 60
        E 0 90 4b 60
        E 80 80 63 00
        E 0 80 66 00
        E 0 80 57 00
        E 0 80 4b 00
        E 80 90 63 60
        E 80 80 63 00
        E 80 90 62 60
        E 80 80 62 00
        E 80 90 64 60
        E 0 90 66 60
        E 0 90 58 60
        E 0 90 4b 60
        E 0 90 3e 60
        E 80 80 64 00
        E 0 80 66 00
        E 0 80 58 00
        E 0 80 4b 00
        E 0 80 3e 00
        E 80 90 64 60
        E 80 80 64 00
        E 80 90 63 60
        E 0 90 57 60
        E 520 80 63 00
        E 0 80 57 00
        E 120 90 62 60
        E 0 90 56 60
        E 0 90 4a 60
        E 0 90 3d 60
        E 80 80 62 00
        E 0 80 56 00
        E 0 80 4a 00
        E 0 80 3d 00
        E 240 90 61 60
        E 0 90 55 60
        E 520 80 61 00
        E 0 80 55 00
        E 120 90 60 60
        E 0 90 54 60
        E 0 90 48 60
        E 0 90 3c 60
        E 80 80 60 00
        E 0 80 54 00
        E 0 80 48 00
        E 0 80 3c 00
        E 80 90 60 60
        E 80 80 60 00
        E 80 90 60 60
        E 80 80 60 00
        E 80 90 62 60
        E 0 90 66 60
        E 0 90 56 60
        E 0 90 4a 60
        E 80 80 62 00
        E 0 80 66 00
        E 0 80 56 00
        E 0 80 4a 00
        E 80 90 62 60
        E 80 80 62 00
        E 80 90 62 60
        E 80 80 62 00
        E 80 90 60 60
        E 0 90 66 60
        E 0 90 54 60
        E 0 90 48 60
        E 0 90 3c 60
        E 80 80 60 00
        E 0 80 66 00
        E 0 80 54 00
        E 0 80 48 00
        E 0 80 3c 00
        E 80 90 60 60
        E 80 80 60 00
        E 80 90 60 60
        E 80 80 60 00
        E 80 90 63 60
        E 0 90 66 60
        E 0 90 57 60
        E 0 90 4b 60
        E 80 80 63 00
        E 0 80 66 00
        E 0 80 57 00
        E 0 80 4b 00
        E 80 90 63 60
        E 80 80 63 00
        E 80 90 62 60
        E 80 80 62 00
        E 80 90 64 60
        E 0 90 66 60
        E 0 90 58 60
        E 0 90 4b 60
        E 0 90 3e 60
        E 80 80 64 00
        E 0 80 66 00
        E 0 80 58 00
        E 0 80 4b 00
        E 0 80 3e 00
        E 80 90 64 60
        E 80 80 64 00
        E 80 90 63 60
        E 0 90 57 60
        E 520 80 63 00
        E 0 80 57 00
        E 120 90 62 60
        E 0 90 56 60
        E 0 90 4a 60
        E 0 90 3d 60
        E 80 80 62 00
        E 0 80 56 00
        E 0 80 4a 00
        E 0 80 3d 00
        E 240 90 61 60
        E 0 90 55 60
        E 520 80 61 00
        E 0 80 55 00
        E 120 90 60 60
        E 0 90 54 60
        E 0 90 48 60
        E 0 90 3c 60
        E 80 80 60 00
        E 0 80 54 00
        E 0 80 48 00
        E 0 80 3c 00
        E 80 90 60 60
        E 80 80 60 00
        E 80 90 60 60
        E 80 80 60 00
        E 80 90 60 60
        E 0 90 54 60
        E 0 90 48 60
        E 0 90 3c 60
        E 80 80 60 00
        E 0 80 54 00
        E 0 80 48 00
        E 0 80 3c 00
        E 80 90 60 60
        E 80 80 60 00
        E 80 90 60 60
        E 80 80 60 00
        E 80 90 60 60
        E 0 90 54 60
        E 0 90 48 60
        E 0 90 3c 60
        E 80 80 60 00
        E 0 80 54 00
        E 0 80 48 00
        E 0 80 3c 00
        E 80 90 60 60
        E 80 80 60 00
        E 80 90 60 60
        E 80 80 60 00
        E 80 90 60 60
        E 0 90 54 60
        E 0 90 48 60
        E 80 80 60 00
        E 0 80 54 00
        E 0 80 48 00
        E 80 90 62 60
        E 80 80 62 00
        E 80 90 61 60
        E 80 80 61 00
        E 80 90 62 60
        E 0 90 56 60
        E 0 90 4a 60
        E 0 90 3d 60
        E 80 80 62 00
        E 0 80 56 00
        E 0 80 4a 00
        E 0 80 3d 00
        E 80 90 60 60
        E 80 80 60 00
        E 80 90 60 60
        E 80 80 60 00
        E 80 90 60 60
        E 0 90 54 60
        E 0 90 48 60
        E 80 80 60 00
        E 0 80 54 00
        E 0 80 48 00
        E 80 90 60 60
        E 80 80 60 00
        E 80 90 60 60
        E 80 80 60 00
        E 80 90 63 60
        E 0 90 66 60
        E 0 90 57 60
        E 0 90 4b 60
        E 0 90 3e 60
        E 80 80 63 00
        E 0 80 66 00
        E 0 80 57 00
        E 0 80 4b 00
        E 0 80 3e 00
        E 80 90 63 60
        E 80 80 63 00
        E 80 90 63 60
        E 80 80 63 00
        E 80 90 62 60
        E 0 90 56 60
        E 0 90 4a 60
        E 80 80 62 00
        E 0 80 56 00
        E 0 80 4a 00
        E 80 90 63 60
        E 80 80 63 00
        E 80 90 62 60
        E 80 80 62 00
        E 80 90 60 60
        E 0 90 66 60
        E 0 90 54 60
        E 0 90 48 60
        E 0 90 3c 60
        E 80 80 60 00
        E 0 80 66 00
        E 0 80 54 00
        E 0 80 48 00
        E 0 80 3c 00
        E 80 90 60 60
        E 80 80 60 00
        E 80 90 60 60
        E 80 80 60 00
        E 80 90 60 60
        E 0 90 54 60
        E 0 90 48 60
        E 0 90 3c 60
        E 80 80 60 00
        E 0 80 54 00
        E 0 80 48 00
        E 0 80 3c 00
        E 80 90 60 60
        E 80 80 60 00
        E 80 90 60 60
        E 80 80 60 00
        E 80 90 60 60
        E 0 90 54 60
        E 0 90 48 60
        E 0 90 3c 60
        E 80 80 60 00
        E 0 80 54 00
        E 0 80 48 00
        E 0 80 3c 00
        E 80 90 60 60
        E 80 80 60 00
        E 80 90 60 60
        E 80 80 60 00
        E 80 90 60 60
        E 0 90 54 60
        E 0 90 48 60
        E 80 80 60 00
        E 0 80 54 00
        E 0 80 48 00
        E 80 90 62 60
        E 80 80 62 00
        E 80 90 61 60
        E 80 80 61 00
        E 80 90 62 60
        E 0 90 66 60
        E 0 90 56 60
        E 0 90 4a 60
        E 0 90 3d 60
        E 80 80 62 00
        E 0 80 66 00
        E 0 80 56 00
        E 0 80 4a 00
        E 0 80 3d 00
        E 80 90 62 60
        E 80 80 62 00
        E 80 90 62 60
        E 80 80 62 00
        E 80 90 63 60
        E 0 90 66 60
        E 0 90 57 60
        E 0 90 4b 60
        E 80 80 63 00
        E 0 80 66 00
        E 0 80 57 00
        E 0 80 4b 00
        E 80 90 63 60
        E 80 80 63 00
        E 80 90 63 60
        E 80 80 63 00
        E 80 90 64 60
        E 0 90 66 60
        E 0 90 58 60
        E 0 90 4b 60
        E 0 90 3e 60
        E 80 80 64 00
        E 0 80 66 00
        E 0 80 58 00
        E 0 80 4b 00
        E 0 80 3e 00
        E 80 90 64 60
        E 80 80 64 00
        E 80 90 64 60
        E 80 80 64 00
        E 80 90 63 60
        E 0 90 57 60
        E 0 90 4b 60
        E 80 80 63 00
        E 0 80 57 00
        E 0 80 4b 00
        E 80 90 64 60
        E 80 80 64 00
        E 80 90 63 60
        E 80 80 63 00
        E 80 90 60 60
        E 0 90 66 60
        E 0 90 54 60
        E 0 90 48 60
        E 0 90 3c 60
        E 80 80 60 00
        E 0 80 66 00
        E 0 80 54 00
        E 0 80 48 00
        E 0 80 3c 00
        E 80 90 60 60
        E 80 80 60 00
        E 80 90 60 60
        E 80 80 60 00
        E 80 90 60 60
        E 0 90 54 60
        E 0 90 48 60
        E 0 90 3c 60
        E 80 80 60 00
        E 0 80 54 00
        E 0 80 48 00
        E 0 80 3c 00
        E 80 90 60 60
        E 80 80 60 00
        E 80 90 60 60
        E 80 80 60 00
        E 80 90 60 60
        E 0 90 54 60
        E 0 90 48 60
        E 0 90 3c 60
        E 80 80 60 00
        E 0 80 54 00
        E 0 80 48 00
        E 0 80 3c 00
        E 80 90 60 60
        E 80 80 60 00
        E 80 90 60 60
        E 80 80 60 00
        E 80 90 60 60
        E 0 90 54 60
        E 0 90 48 60
        E 80 80 60 00
        E 0 80 54 00
        E 0 80 48 00
        E 80 90 62 60
        E 80 80 62 00
        E 80 90 61 60
        E 80 80 61 00
        E 80 90 62 60
        E 0 90 56 60
        E 0 90 4a 60
        E 0 90 3d 60
        E 80 80 62 00
        E 0 80 56 00
        E 0 80 4a 00
        E 0 80 3d 00
        E 80 90 60 60
        E 80 80 60 00
        E 80 90 60 60
        E 80 80 60 00
        E 80 90 60 60
        E 0 90 54 60
        E 0 90 48 60
        E 80 80 60 00
        E 0 80 54 00
        E 0 80 48 00
        E 80 90 60 60
        E 80 80 60 00
        E 80 90 60 60
        E 80 80 60 00
        E 80 90 63 60
        E 0 90 66 60
        E 0 90 57 60
        E 0 90 4b 60
        E 0 90 3e 60
        E 80 80 63 00
        E 0 80 66 00
        E 0 80 57 00
        E 0 80 4b 00
        E 0 80 3e 00
        E 80 90 63 60
        E 80 80 63 00
        E 80 90 63 60
        E 80 80 63 00
        E 80 90 62 60
        E 0 90 56 60
        E 0 90 4a 60
        E 80 80 62 00
        E 0 80 56 00
        E 0 80 4a 00
        E 80 90 63 60
        E 80 80 63 00
        E 80 90 62 60
        E 80 80 62 00
        E 80 90 60 60
        E 0 90 66 60
        E 0 90 54 60
        E 0 90 48 60
        E 0 90 3c 60
        E 80 80 60 00
        E 0 80 66 00
        E 0 80 54 00
        E 0 80 48 00
        E 0 80 3c 00
        E 80 90 60 60
        E 80 80 60 00
        E 80 90 60 60
        E 80 80 60 00
        E 80 90 60 60
        E 0 90 54 60
        E 0 90 48 60
        E 0 90 3c 60
        E 80 80 60 00
        E 0 80 54 00
        E 0 80 48 00
        E 0 80 3c 00
        E 80 90 60 60
        E 80 80 60 00
        E 80 90 60 60
        E 80 80 60 00
        E 80 90 60 60
        E 0 90 54 60
        E 0 90 48 60
        E 0 90 3c 60
        E 80 80 60 00
        E 0 80 54 00
        E 0 80 48 00
        E 0 80 3c 00
        E 80 90 60 60
        E 80 80 60 00
        E 80 90 60 60
        E 80 80 60 00
        E 80 90 60 60
        E 0 90 54 60
        E 0 90 48 60
        E 80 80 60 00
        E 0 80 54 00
        E 0 80 48 00
        E 80 90 62 60
        E 80 80 62 00
        E 80 90 61 60
        E 80 80 61 00
        E 80 90 62 60
        E 0 90 66 60
        E 0 90 56 60
        E 0 90 4a 60
        E 0 90 3d 60
        E 80 80 62 00
        E 0 80 66 00
        E 0 80 56 00
        E 0 80 4a 00
        E 0 80 3d 00
        E 80 90 62 60
        E 80 80 62 00
        E 80 90 62 60
        E 80 80 62 00
        E 80 90 63 60
        E 0 90 66 60
        E 0 90 57 60
        E 0 90 4b 60
        E 80 80 63 00
        E 0 80 66 00
        E 0 80 57 00
        E 0 80 4b 00
        E 80 90 63 60
        E 80 80 63 00
        E 80 90 63 60
        E 80 80 63 00
        E 80 90 64 60
        E 0 90 66 60
        E 0 90 58 60
        E 0 90 4b 60
        E 0 90 3e 60
        E 80 80 64 00
        E 0 80 66 00
        E 0 80 58 00
        E 0 80 4b 00
        E 0 80 3e 00
        E 80 90 64 60
        E 80 80 64 00
        E 80 90 64 60
        E 80 80 64 00
        E 80 90 63 60
        E 0 90 57 60
        E 0 90 4b 60
        E 80 80 63 00
        E 0 80 57 00
        E 0 80 4b 00
        E 80 90 64 60
        E 80 80 64 00
        E 80 90 63 60
        E 80 80 63 00
        E 80 90 61 60
        E 0 90 66 60
        E 0 90 55 60
        E 0 90 49 60
        E 0 90 3d 60
        E 80 80 61 00
        E 0 80 66 00
        E 0 80 55 00
        E 0 80 49 00
        E 0 80 3d 00
        E 80 90 61 60
        E 80 80 61 00
        E 80 90 61 60
        E 80 80 61 00
        E 80 90 62 60
        E 0 90 66 60
        E 0 90 56 60
        E 0 90 4a 60
        E 80 80 62 00
        E 0 80 66 00
        E 0 80 56 00
        E 0 80 4a 00
        E 80 90 62 60
        E 80 80 62 00
        E 80 90 62 60
        E 80 80 62 00
        E 80 90 64 60
        E 0 90 66 60
        E 0 90 58 60
        E 0 90 4b 60
        E 0 90 3e 60
        E 80 80 64 00
        E 0 80 66 00
        E 0 80 58 00
        E 0 80 4b 00
        E 0 80 3e 00
        E 80 90 64 60
        E 80 80 64 00
        E 80 90 63 60
        E 0 90 66 60
        E 80 80 63 00
        E 0 80 66 00
        E 80 90 63 60
        E 0 90 57 60
        E 0 90 4b 60
        E 80 80 63 00
        E 0 80 57 00
        E 0 80 4b 00
        E 80 90 64 60
        E 80 80 64 00
        E 80 90 63 60
        E 80 80 63 00
        E 80 90 61 60
        E 0 90 66 60
        E 0 90 55 60
        E 0 90 49 60
        E 0 90 3d 60
        E 80 80 61 00
        E 0 80 66 00
        E 0 80 55 00
        E 0 80 49 00
        E 0 80 3d 00
        E 80 90 61 60
        E 80 80 61 00
        E 80 90 61 60
        E 80 80 61 00
        E 80 90 62 60
        E 0 90 66 60
        E 0 90 56 60
        E 0 90 4a 60
        E 80 80 62 00
        E 0 80 66 00
        E 0 80 56 00
        E 0 80 4a 00
        E 80 90 62 60
        E 80 80 62 00
        E 80 90 62 60
        E 80 80 62 00
        E 80 90 63 60
        E 0 90 66 60
        E 0 90 57 60
        E 0 90 4b 60
        E 0 90 3e 60
        E 80 80 63 00
        E 0 80 66 00
        E 0 80 57 00
        E 0 80 4b 00
        E 0 80 3e 00
        E 80 90 63 60
        E 80 80 63 00
        E 80 90 63 60
        E 80 80 63 00
        E 80 90 62 60
        E 0 90 56 60
        E 0 90 4a 60
        E 80 80 62 00
        E 0 80 56 00
        E 0 80 4a 00
        E 80 90 63 60
        E 80 80 63 00
        E 80 90 62 60
        E 80 80 62 00
        E 80 90 61 60
        E 0 90 66 60
        E 0 90 55 60
        E 0 90 49 60
        E 0 90 3d 60
        E 80 80 61 00
        E 0 80 66 00
        E 0 80 55 00
        E 0 80 49 00
        E 0 80 3d 00
        E 80 90 61 60
        E 80 80 61 00
        E 80 90 61 60
        E 80 80 61 00
        E 80 90 62 60
        E 0 90 66 60
        E 0 90 56 60
        E 0 90 4a 60
        E 80 80 62 00
        E 0 80 66 00
        E 0 80 56 00
        E 0 80 4a 00
        E 80 90 62 60
        E 80 80 62 00
        E 80 90 62 60
        E 80 80 62 00
        E 80 90 64 60
        E 0 90 66 60
        E 0 90 58 60
        E 0 90 4b 60
        E 0 90 3e 60
        E 80 80 64 00
        E 0 80 66 00
        E 0 80 58 00
        E 0 80 4b 00
        E 0 80 3e 00
        E 240 90 63 60
        E 0 90 57 60
        E 80 80 63 00
        E 0 80 57 00
        E 240 90 64 60
        E 0 90 58 60
        E 80 80 64 00
        E 0 80 58 00
        E 80 90 63 60
        E 80 80 63 00
        E 80 90 60 60
        E 0 90 54 60
        E 0 90 48 60
        E 0 90 3c 60
        E 80 80 60 00
        E 0 80 54 00
        E 0 80 48 00
        E 0 80 3c 00
        E 80 90 60 60
        E 80 80 60 00
        E 80 90 60 60
        E 80 80 60 00
        E 80 90 62 60
        E 0 90 66 60
        E 0 90 56 60
        E 0 90 4a 60
        E 80 80 62 00
        E 0 80 66 00
        E 0 80 56 00
        E 0 80 4a 00
        E 80 90 62 60
        E 80 80 62 00
        E 80 90 62 60
        E 80 80 62 00
        E 80 90 60 60
        E 0 90 66 60
        E 0 90 54 60
        E 0 90 48 60
        E 0 90 3c 60
        E 80 80 60 00
        E 0 80 66 00
        E 0 80 54 00
        E 0 80 48 00
        E 0 80 3c 00
        E 80 90 60 60
        E 80 80 60 00
        E 80 90 60 60
        E 80 80 60 00
        E 80 90 63 60
        E 0 90 66 60
        E 0 90 57 60
        E 0 90 4b 60
        E 80 80 63 00
        E 0 80 66 00
        E 0 80 57 00
        E 0 80 4b 00
        E 80 90 63 60
        E 80 80 63 00
        E 80 90 62 60
        E 80 80 62 00
        E 80 90 64 60
        E 0 90 66 60
        E 0 90 58 60
        E 0 90 4b 60
        E 0 90 3e 60
        E 80 80 64 00
        E 0 80 66 00
        E 0 80 58 00
        E 0 80 4b 00
        E 0 80 3e 00
        E 80 90 64 60
        E 80 80 64 00
        E 80 90 63 60
        E 0 90 57 60
        E 520 80 63 00
        E 0 80 57 00
        E 120 90 62 60
        E 0 90 56 60
        E 0 90 4a 60
        E 0 90 3d 60
        E 80 80 62 00
        E 0 80 56 00
        E 0 80 4a 00
        E 0 80 3d 00
        E 240 90 61 60
        E 0 90 55 60
        E 520 80 61 00
        E 0 80 55 00
        E 120 90 60 60
        E 0 90 54 60
        E 0 90 48 60
        E 0 90 3c 60
        E 80 80 60 00
        E 0 80 54 00
        E 0 80 48 00
        E 0 80 3c 00
        E 80 90 60 60
        E 80 80 60 00
        E 80 90 60 60
        E 80 80 60 00
        E 80 90 62 60
        E 0 90 66 60
        E 0 90 56 60
        E 0 90 4a 60
        E 80 80 62 00
        E 0 80 66 00
        E 0 80 56 00
        E 0 80 4a 00
        E 80 90 62 60
        E 80 80 62 00
        E 80 90 62 60
        E 80 80 62 00
        E 80 90 60 60
        E 0 90 66 60
        E 0 90 54 60
        E 0 90 48 60
        E 0 90 3c 60
        E 80 80 60 00
        E 0 80 66 00
        E 0 80 54 00
        E 0 80 48 00
        E 0 80 3c 00
        E 80 90 60 60
        E 80 80 60 00
        E 80 90 60 60
        E 80 80 60 00
        E 80 90 63 60
        E 0 90 66 60
        E 0 90 57 60
        E 0 90 4b 60
        E 80 80 63 00
        E 0 80 66 00
        E 0 80 57 00
        E 0 80 4b 00
        E 80 90 63 60
        E 80 80 63 00
        E 80 90 62 60
        E 80 80 62 00
        E 80 90 64 60
        E 0 90 66 60
        E 0 90 58 60
        E 0 90 4b 60
        E 0 90 3e 60
        E 80 80 64 00
        E 0 80 66 00
        E 0 80 58 00
        E 0 80 4b 00
        E 0 80 3e 00
        E 80 90 64 60
        E 80 80 64 00
        E 80 90 63 60
        E 0 90 57 60
        E 400 80 63 00
        E 0 80 57 00
        E 80 90 63 60
        E 80 80 63 00
        E 80 90 62 60
        E 0 90 56 60
        E 0 90 4a 60
        E 0 90 3d 60
        E 80 80 62 00
        E 0 80 56 00
        E 0 80 4a 00
        E 0 80 3d 00
        E 240 90 61 60
        E 0 90 55 60
        E 520 80 61 00
        E 0 80 55 00
        E 120 90 60 60
        E 0 90 54 60
        E 0 90 48 60
        E 0 90 3c 60
        E 80 80 60 00
        E 0 80 54 00
        E 0 80 48 00
        E 0 80 3c 00
        E 80 90 60 60
        E 80 80 60 00
        E 80 90 60 60
        E 80 80 60 00
        E 80 90 62 60
        E 0 90 66 60
        E 0 90 56 60
        E 0 90 4a 60
        E 80 80 62 00
        E 0 80 66 00
        E 0 80 56 00
        E 0 80 4a 00
        E 80 90 62 60
        E 80 80 62 00
        E 80 90 62 60
        E 80 80 62 00
        E 80 90 60 60
        E 0 90 66 60
        E 0 90 54 60
        E 0 90 48 60
        E 0 90 3c 60
        E 80 80 60 00
        E 0 80 66 00
        E 0 80 54 00
        E 0 80 48 00
        E 0 80 3c 00
        E 80 90 60 60
        E 80 80 60 00
        E 80 90 60 60
        E 80 80 60 00
        E 80 90 63 60
        E 0 90 66 60
        E 0 90 57 60
        E 0 90 4b 60
        E 80 80 63 00
        E 0 80 66 00
        E 0 80 57 00
        E 0 80 4b 00
        E 80 90 63 60
        E 80 80 63 00
        E 80 90 62 60
        E 80 80 62 00
        E 80 90 64 60
        E 0 90 66 60
        E 0 90 58 60
        E 0 90 4b 60
        E 0 90 3e 60
        E 80 80 64 00
        E 0 80 66 00
        E 0 80 58 00
        E 0 80 4b 00
        E 0 80 3e 00
        E 80 90 64 60
        E 80 80 64 00
        E 80 90 63 60
        E 0 90 57 60
        E 520 80 63 00
        E 0 80 57 00
        E 120 90 62 60
        E 0 90 56 60
        E 0 90 4a 60
        E 0 90 3d 60
        E 80 80 62 00
        E 0 80 56 00
        E 0 80 4a 00
        E 0 80 3d 00
        E 240 90 61 60
        E 0 90 55 60
        E 520 80 61 00
        E 0 80 55 00
        E 120 90 60 60
        E 0 90 54 60
        E 0 90 48 60
        E 0 90 3c 60
        E 80 80 60 00
        E 0 80 54 00
        E 0 80 48 00
        E 0 80 3c 00
        E 80 90 60 60
        E 80 80 60 00
        E 80 90 60 60
        E 80 80 60 00
        E 80 90 62 60
        E 0 90 66 60
        E 0 90 56 60
        E 0 90 4a 60
        E 80 80 62 00
        E 0 80 66 00
        E 0 80 56 00
        E 0 80 4a 00
        E 80 90 62 60
        E 80 80 62 00
        E 80 90 62 60
        E 80 80 62 00
        E 80 90 60 60
        E 0 90 66 60
        E 0 90 54 60
        E 0 90 48 60
        E 0 90 3c 60
        E 80 80 60 00
        E 0 80 66 00
        E 0 80 54 00
        E 0 80 48 00
        E 0 80 3c 00
        E 80 90 60 60
        E 80 80 60 00
        E 80 90 60 60
        E 80 80 60 00
        E 80 90 63 60
        E 0 90 66 60
        E 0 90 57 60
        E 0 90 4b 60
        E 80 80 63 00
        E 0 80 66 00
        E 0 80 57 00
        E 0 80 4b 00
        E 80 90 63 60
        E 80 80 63 00
        E 80 90 62 60
        E 80 80 62 00
        E 80 90 64 60
        E 0 90 66 60
        E 0 90 58 60
        E 0 90 4b 60
        E 0 90 3e 60
        E 80 80 64 00
        E 0 80 66 00
        E 0 80 58 00
        E 0 80 4b 00
        E 0 80 3e 00
        E 80 90 64 60
        E 80 80 64 00
        E 80 90 63 60
        E 0 90 57 60
        E 120 80 57 00
        E 120 80 63 00
        E 80 90 63 60
        E 0 90 57 60
        E 80 80 63 00
        E 0 80 57 00
        E 80 90 63 60
        E 80 80 63 00
        E 80 90 62 60
        E 0 90 56 60
        E 0 90 4a 60
        E 0 90 3d 60
        E 80 80 62 00
        E 0 80 56 00
        E 0 80 4a 00
        E 0 80 3d 00
        E 240 90 61 60
        E 0 90 55 60
        E 520 80 61 00
        E 0 80 55 00
        E 120 90 60 60
        E 0 90 54 60
        E 0 90 48 60
        E 0 90 3c 60
        E 80 80 60 00
        E 0 80 54 00
        E 0 80 48 00
        E 0 80 3c 00
        E 80 90 60 60
        E 80 80 60 00
        E 80 90 60 60
        E 80 80 60 00
        E 80 90 60 60
        E 0 90 54 60
        E 0 90 48 60
        E 0 90 3c 60
        E 80 80 60 00
        E 0 80 54 00
        E 0 80 48 00
        E 0 80 3c 00
        E 80 90 60 60
        E 80 80 60 00
        E 80 90 60 60
        E 80 80 60 00
        E 80 90 60 60
        E 0 90 54 60
        E 0 90 48 60
        E 0 90 3c 60
        E 80 80 60 00
        E 0 80 54 00
        E 0 80 48 00
        E 0 80 3c 00
        E 80 90 60 60
        E 80 80 60 00
        E 80 90 60 60
        E 80 80 60 00
        E 80 90 60 60
        E 0 90 54 60
        E 0 90 48 60
        E 80 80 60 00
        E 0 80 54 00
        E 0 80 48 00
        E 80 90 62 60
        E 80 80 62 00
        E 80 90 61 60
        E 80 80 61 00
        E 80 90 62 60
        E 0 90 56 60
        E 0 90 4a 60
        E 0 90 3d 60
        E 80 80 62 00
        E 0 80 56 00
        E 0 80 4a 00
        E 0 80 3d 00
        E 80 90 60 60
        E 80 80 60 00
        E 80 90 60 60
        E 80 80 60 00
        E 80 90 60 60
        E 0 90 54 60
        E 0 90 48 60
        E 80 80 60 00
        E 0 80 54 00
        E 0 80 48 00
        E 80 90 60 60
        E 80 80 60 00
        E 80 90 60 60
        E 80 80 60 00
        E 80 90 63 60
        E 0 90 66 60
        E 0 90 57 60
        E 0 90 4b 60
        E 0 90 3e 60
        E 80 80 63 00
        E 0 80 66 00
        E 0 80 57 00
        E 0 80 4b 00
        E 0 80 3e 00
        E 80 90 63 60
        E 80 80 63 00
        E 80 90 63 60
        E 80 80 63 00
        E 80 90 62 60
        E 0 90 56 60
        E 0 90 4a 60
        E 80 80 62 00
        E 0 80 56 00
        E 0 80 4a 00
        E 80 90 63 60
        E 80 80 63 00
        E 80 90 62 60
        E 80 80 62 00
        E 80 90 60 60
        E 0 90 66 60
        E 0 90 54 60
        E 0 90 48 60
        E 0 90 3c 60
        E 80 80 60 00
        E 0 80 66 00
        E 0 80 54 00
        E 0 80 48 00
        E 0 80 3c 00
        E 80 90 60 60
        E 80 80 60 00
        E 80 90 60 60
        E 80 80 60 00
        E 80 90 60 60
        E 0 90 54 60
        E 0 90 48 60
        E 0 90 3c 60
        E 80 80 60 00
        E 0 80 54 00
        E 0 80 48 00
        E 0 80 3c 00
        E 80 90 60 60
        E 80 80 60 00
        E 80 90 60 60
        E 80 80 60 00
        E 80 90 60 60
        E 0 90 54 60
        E 0 90 48 60
        E 0 90 3c 60
        E 80 80 60 00
        E 0 80 54 00
        E 0 80 48 00
        E 0 80 3c 00
        E 80 90 60 60
        E 80 80 60 00
        E 80 90 60 60
        E 80 80 60 00
        E 80 90 60 60
        E 0 90 54 60
        E 0 90 48 60
        E 80 80 60 00
        E 0 80 54 00
        E 0 80 48 00
        E 80 90 62 60
        E 80 80 62 00
        E 80 90 61 60
        E 80 80 61 00
        E 80 90 62 60
        E 0 90 66 60
        E 0 90 56 60
        E 0 90 4a 60
        E 0 90 3d 60
        E 80 80 62 00
        E 0 80 66 00
        E 0 80 56 00
        E 0 80 4a 00
        E 0 80 3d 00
        E 80 90 62 60
        E 80 80 62 00
        E 80 90 62 60
        E 80 80 62 00
        E 80 90 63 60
        E 0 90 66 60
        E 0 90 57 60
        E 0 90 4b 60
        E 80 80 63 00
        E 0 80 66 00
        E 0 80 57 00
        E 0 80 4b 00
        E 80 90 63 60
        E 80 80 63 00
        E 80 90 63 60
        E 80 80 63 00
        E 80 90 64 60
        E 0 90 66 60
        E 0 90 58 60
        E 0 90 4b 60
        E 0 90 3e 60
        E 80 80 64 00
        E 0 80 66 00
        E 0 80 58 00
        E 0 80 4b 00
        E 0 80 3e 00
        E 80 90 64 60
        E 80 80 64 00
        E 80 90 64 60
        E 80 80 64 00
        E 80 90 63 60
        E 0 90 57 60
        E 0 90 4b 60
        E 80 80 63 00
        E 0 80 57 00
        E 0 80 4b 00
        E 80 90 64 60
        E 80 80 64 00
        E 80 90 63 60
        E 80 80 63 00
        E 80 90 60 60
        E 0 90 66 60
        E 0 90 54 60
        E 0 90 48 60
        E 0 90 3c 60
        E 80 80 60 00
        E 0 80 66 00
        E 0 80 54 00
        E 0 80 48 00
        E 0 80 3c 00
        E 80 90 60 60
        E 80 80 60 00
        E 80 90 60 60
        E 80 80 60 00
        E 80 90 60 60
        E 0 90 54 60
        E 0 90 48 60
        E 0 90 3c 60
        E 80 80 60 00
        E 0 80 54 00
        E 0 80 48 00
        E 0 80 3c 00
        E 80 90 60 60
        E 80 80 60 00
        E 80 90 60 60
        E 80 80 60 00
        E 80 90 60 60
        E 0 90 54 60
        E 0 90 48 60
        E 0 90 3c 60
        E 80 80 60 00
        E 0 80 54 00
        E 0 80 48 00
        E 0 80 3c 00
        E 80 90 60 60
        E 80 80 60 00
        E 80 90 60 60
        E 80 80 60 00
        E 80 90 60 60
        E 0 90 54 60
        E 0 90 48 60
        E 80 80 60 00
        E 0 80 54 00
        E 0 80 48 00
        E 80 90 62 60
        E 80 80 62 00
        E 80 90 61 60
        E 80 80 61 00
        E 80 90 62 60
        E 0 90 56 60
        E 0 90 4a 60
        E 0 90 3d 60
        E 80 80 62 00
        E 0 80 56 00
        E 0 80 4a 00
        E 0 80 3d 00
        E 80 90 60 60
        E 80 80 60 00
        E 80 90 60 60
        E 80 80 60 00
        E 80 90 60 60
        E 0 90 54 60
        E 0 90 48 60
        E 80 80 60 00
        E 0 80 54 00
        E 0 80 48 00
        E 80 90 60 60
        E 80 80 60 00
        E 80 90 60 60
        E 80 80 60 00
        E 80 90 63 60
        E 0 90 66 60
        E 0 90 57 60
        E 0 90 4b 60
        E 0 90 3e 60
        E 80 80 63 00
        E 0 80 66 00
        E 0 80 57 00
        E 0 80 4b 00
        E 0 80 3e 00
        E 80 90 63 60
        E 80 80 63 00
        E 80 90 63 60
        E 80 80 63 00
        E 80 90 62 60
        E 0 90 56 60
        E 0 90 4a 60
        E 80 80 62 00
        E 0 80 56 00
        E 0 80 4a 00
        E 80 90 63 60
        E 80 80 63 00
        E 80 90 62 60
        E 80 80 62 00
        E 80 90 60 60
        E 0 90 66 60
        E 0 90 54 60
        E 0 90 48 60
        E 0 90 3c 60
        E 80 80 60 00
        E 0 80 66 00
        E 0 80 54 00
        E 0 80 48 00
        E 0 80 3c 00
        E 80 90 60 60
        E 80 80 60 00
        E 80 90 60 60
        E 80 80 60 00
        E 80 90 60 60
        E 0 90 54 60
        E 0 90 48 60
        E 0 90 3c 60
        E 80 80 60 00
        E 0 80 54 00
        E 0 80 48 00
        E 0 80 3c 00
        E 80 90 60 60
        E 80 80 60 00
        E 80 90 60 60
        E 80 80 60 00
        E 80 90 60 60
        E 0 90 54 60
        E 0 90 48 60
        E 0 90 3c 60
        E 80 80 60 00
        E 0 80 54 00
        E 0 80 48 00
        E 0 80 3c 00
        E 80 90 60 60
        E 80 80 60 00
        E 80 90 60 60
        E 80 80 60 00
        E 80 90 60 60
        E 0 90 54 60
        E 0 90 48 60
        E 80 80 60 00
        E 0 80 54 00
        E 0 80 48 00
        E 80 90 62 60
        E 80 80 62 00
        E 80 90 61 60
        E 80 80 61 00
        E 80 90 62 60
        E 0 90 66 60
        E 0 90 56 60
        E 0 90 4a 60
        E 0 90 3d 60
        E 80 80 62 00
        E 0 80 66 00
        E 0 80 56 00
        E 0 80 4a 00
        E 0 80 3d 00
        E 80 90 62 60
        E 80 80 62 00
        E 80 90 62 60
        E 80 80 62 00
        E 80 90 63 60
        E 0 90 66 60
        E 0 90 57 60
        E 0 90 4b 60
        E 80 80 63 00
        E 0 80 66 00
        E 0 80 57 00
        E 0 80 4b 00
        E 80 90 63 60
        E 80 80 63 00
        E 80 90 63 60
        E 80 80 63 00
        E 80 90 64 60
        E 0 90 66 60
        E 0 90 58 60
        E 0 90 4b 60
        E 0 90 3e 60
        E 80 80 64 00
        E 0 80 66 00
        E 0 80 58 00
        E 0 80 4b 00
        E 0 80 3e 00
        E 80 90 64 60
        E 80 80 64 00
        E 80 90 64 60
        E 80 80 64 00
        E 80 90 63 60
        E 0 90 57 60
        E 0 90 4b 60
        E 80 80 63 00
        E 0 80 57 00
        E 0 80 4b 00
        E 80 90 64 60
        E 80 80 64 00
        E 80 90 63 60
        E 80 80 63 00
        E 80 90 61 60
        E 0 90 66 60
        E 0 90 55 60
        E 0 90 49 60
        E 0 90 3d 60
        E 80 80 61 00
        E 0 80 66 00
        E 0 80 55 00
        E 0 80 49 00
        E 0 80 3d 00
        E 80 90 61 60
        E 80 80 61 00
        E 80 90 61 60
        E 80 80 61 00
        E 80 90 62 60
        E 0 90 66 60
        E 0 90 56 60
        E 0 90 4a 60
        E 80 80 62 00
        E 0 80 66 00
        E 0 80 56 00
        E 0 80 4a 00
        E 80 90 62 60
        E 80 80 62 00
        E 80 90 62 60
        E 80 80 62 00
        E 80 90 64 60
        E 0 90 66 60
        E 0 90 58 60
        E 0 90 4b 60
        E 0 90 3e 60
        E 80 80 64 00
        E 0 80 66 00
        E 0 80 58 00
        E 0 80 4b 00
        E 0 80 3e 00
        E 80 90 64 60
        E 80 80 64 00
        E 80 90 63 60
        E 0 90 66 60
        E 80 80 63 00
        E 0 80 66 00
        E 80 90 63 60
        E 0 90 57 60
        E 0 90 4b 60
        E 80 80 63 00
        E 0 80 57 00
        E 0 80 4b 00
        E 80 90 64 60
        E 80 80 64 00
        E 80 90 63 60
        E 80 80 63 00
        E 80 90 61 60
        E 0 90 66 60
        E 0 90 55 60
        E 0 90 49 60
        E 0 90 3d 60
        E 80 80 61 00
        E 0 80 66 00
        E 0 80 55 00
        E 0 80 49 00
        E 0 80 3d 00
        E 80 90 61 60
        E 80 80 61 00
        E 80 90 61 60
        E 80 80 61 00
        E 80 90 62 60
        E 0 90 66 60
        E 0 90 56 60
        E 0 90 4a 60
        E 80 80 62 00
        E 0 80 66 00
        E 0 80 56 00
        E 0 80 4a 00
        E 80 90 62 60
        E 80 80 62 00
        E 80 90 62 60
        E 80 80 62 00
        E 80 90 63 60
        E 0 90 66 60
        E 0 90 57 60
        E 0 90 4b 60
        E 0 90 3e 60
        E 80 80 63 00
        E 0 80 66 00
        E 0 80 57 00
        E 0 80 4b 00
        E 0 80 3e 00
        E 80 90 63 60
        E 80 80 63 00
        E 80 90 63 60
        E 80 80 63 00
        E 80 90 62 60
        E 0 90 56 60
        E 0 90 4a 60
        E 80 80 62 00
        E 0 80 56 00
        E 0 80 4a 00
        E 80 90 63 60
        E 80 80 63 00
        E 80 90 62 60
        E 80 80 62 00
        E 80 90 61 60
        E 0 90 66 60
        E 0 90 55 60
        E 0 90 49 60
        E 0 90 3d 60
        E 80 80 61 00
        E 0 80 66 00
        E 0 80 55 00
        E 0 80 49 00
        E 0 80 3d 00
        E 80 90 61 60
        E 80 80 61 00
        E 80 90 61 60
        E 80 80 61 00
        E 80 90 62 60
        E 0 90 66 60
        E 0 90 56 60
        E 0 90 4a 60
        E 80 80 62 00
        E 0 80 66 00
        E 0 80 56 00
        E 0 80 4a 00
        E 80 90 62 60
        E 80 80 62 00
        E 80 90 62 60
        E 80 80 62 00
        E 80 90 64 60
        E 0 90 66 60
        E 0 90 58 60
        E 0 90 4b 60
        E 0 90 3e 60
        E 80 80 64 00
        E 0 80 66 00
        E 0 80 58 00
        E 0 80 4b 00
        E 0 80 3e 00
        E 240 90 63 60
        E 0 90 57 60
        E 80 80 63 00
        E 0 80 57 00
        E 240 90 64 60
        E 0 90 58 60
        E 80 80 64 00
        E 0 80 58 00
        E 80 90 63 60
        E 80 80 63 00
        E 80 90 60 60
        E 0 90 54 60
        E 0 90 48 60
        E 0 90 3c 60
        E 80 80 60 00
        E 0 80 54 00
        E 0 80 48 00
        E 0 80 3c 00
        E 80 90 61 60
        E 80 80 61 00
        E 80 90 60 60
        E 80 80 60 00
        E 80 90 63 60
        E 0 90 57 60
        E 0 90 4b 60
        E 80 80 63 00
        E 0 80 57 00
        E 0 80 4b 00
        E 80 90 62 60
        E 80 80 62 00
        E 80 90 61 60
        E 80 80 61 00
        E 80 90 60 60
        E 0 90 54 60
        E 0 90 48 60
        E 0 90 3c 60
        E 80 80 60 00
        E 0 80 54 00
        E 0 80 48 00
        E 0 80 3c 00
        E 80 90 61 60
        E 80 80 61 00
        E 80 90 60 60
        E 80 80 60 00
        E 80 90 63 60
        E 0 90 57 60
        E 0 90 4b 60
        E 80 80 63 00
        E 0 80 57 00
        E 0 80 4b 00
        E 80 90 62 60
        E 80 80 62 00
        E 80 90 61 60
        E 80 80 61 00
        E 80 90 60 60
        E 0 90 54 60
        E 0 90 48 60
        E 0 90 3c 60
        E 80 80 60 00
        E 0 80 54 00
        E 0 80 48 00
        E 0 80 3c 00
        E 80 90 61 60
        E 80 80 61 00
        E 80 90 60 60
        E 80 80 60 00
        E 80 90 62 60
        E 0 90 66 60
        E 0 90 56 60
        E 0 90 4a 60
        E 80 80 62 00
        E 0 80 66 00
        E 0 80 56 00
        E 0 80 4a 00
        E 80 90 62 60
        E 80 80 62 00
        E 80 90 62 60
        E 80 80 62 00
        E 80 90 60 60
        E 0 90 54 60
        E 0 90 48 60
        E 0 90 3c 60
        E 80 80 60 00
        E 0 80 54 00
        E 0 80 48 00
        E 0 80 3c 00
        E 80 90 61 60
        E 80 80 61 00
        E 80 90 60 60
        E 80 80 60 00
        E 80 90 62 60
        E 0 90 66 60
        E 0 90 56 60
        E 0 90 4a 60
        E 80 80 62 00
        E 0 80 66 00
        E 0 80 56 00
        E 0 80 4a 00
        E 80 90 62 60
        E 80 80 62 00
        E 80 90 62 60
        E 80 80 62 00
        E 80 90 60 60
        E 0 90 54 60
        E 0 90 48 60
        E 0 90 3c 60
        E 80 80 60 00
        E 0 80 54 00
        E 0 80 48 00
        E 0 80 3c 00
        E 80 90 61 60
        E 80 80 61 00
        E 80 90 60 60
        E 80 80 60 00
        E 80 90 63 60
        E 0 90 57 60
        E 0 90 4b 60
        E 80 80 63 00
        E 0 80 57 00
        E 0 80 4b 00
        E 80 90 62 60
        E 80 80 62 00
        E 80 90 61 60
        E 80 80 61 00
        E 80 90 60 60
        E 0 90 54 60
        E 0 90 48 60
        E 0 90 3c 60
        E 80 80 60 00
        E 0 80 54 00
        E 0 80 48 00
        E 0 80 3c 00
        E 80 90 61 60
        E 80 80 61 00
        E 80 90 60 60
        E 80 80 60 00
        E 80 90 63 60
        E 0 90 57 60
        E 0 90 4b 60
        E 80 80 63 00
        E 0 80 57 00
        E 0 80 4b 00
        E 80 90 62 60
        E 80 80 62 00
        E 80 90 61 60
        E 80 80 61 00
        E 80 90 60 60
        E 0 90 54 60
        E 0 90 48 60
        E 0 90 3c 60
        E 80 80 60 00
        E 0 80 54 00
        E 0 80 48 00
        E 0 80 3c 00
        E 80 90 61 60
        E 80 80 61 00
        E 80 90 60 60
        E 80 80 60 00
        E 80 90 63 60
        E 0 90 66 60
        E 0 90 57 60
        E 0 90 4b 60
        E 80 80 63 00
        E 0 80 66 00
        E 0 80 57 00
        E 0 80 4b 00
        E 80 90 63 60
        E 80 80 63 00
        E 80 90 63 60
        E 80 80 63 00
        E 80 90 60 60
        E 0 90 54 60
        E 0 90 48 60
        E 0 90 3c 60
        E 80 80 60 00
        E 0 80 54 00
        E 0 80 48 00
        E 0 80 3c 00
        E 80 90 61 60
        E 80 80 61 00
        E 80 90 60 60
        E 80 80 60 00
        E 80 90 63 60
        E 0 90 66 60
        E 0 90 57 60
        E 0 90 4b 60
        E 80 80 63 00
        E 0 80 66 00
        E 0 80 57 00
        E 0 80 4b 00
        E 80 90 63 60
        E 80 80 63 00
        E 80 90 63 60
        E 80 80 63 00
        E 80 90 60 60
        E 0 90 54 60
        E 0 90 48 60
        E 0 90 3c 60
        E 80 80 60 00
        E 0 80 54 00
        E 0 80 48 00
        E 0 80 3c 00
        E 80 90 61 60
        E 80 80 61 00
        E 80 90 60 60
        E 80 80 60 00
        E 80 90 63 60
        E 0 90 57 60
        E 0 90 4b 60
        E 80 80 63 00
        E 0 80 57 00
        E 0 80 4b 00
        E 80 90 62 60
        E 80 80 62 00
        E 80 90 61 60
        E 80 80 61 00
        E 80 90 60 60
        E 0 90 54 60
        E 0 90 48 60
        E 0 90 3c 60
        E 80 80 60 00
        E 0 80 54 00
        E 0 80 48 00
        E 0 80 3c 00
        E 80 90 61 60
        E 80 80 61 00
        E 80 90 60 60
        E 80 80 60 00
        E 80 90 63 60
        E 0 90 57 60
        E 0 90 4b 60
        E 80 80 63 00
        E 0 80 57 00
        E 0 80 4b 00
        E 80 90 62 60
        E 80 80 62 00
        E 80 90 61 60
        E 80 80 61 00
        E 80 90 60 60
        E 0 90 54 60
        E 0 90 48 60
        E 0 90 3c 60
        E 80 80 60 00
        E 0 80 54 00
        E 0 80 48 00
        E 0 80 3c 00
        E 80 90 61 60
        E 80 80 61 00
        E 80 90 60 60
        E 80 80 60 00
        E 80 90 62 60
        E 0 90 66 60
        E 0 90 56 60
        E 0 90 4a 60
        E 80 80 62 00
        E 0 80 66 00
        E 0 80 56 00
        E 0 80 4a 00
        E 80 90 62 60
        E 80 80 62 00
        E 80 90 62 60
        E 80 80 62 00
        E 80 90 60 60
        E 0 90 54 60
        E 0 90 48 60
        E 0 90 3c 60
        E 80 80 60 00
        E 0 80 54 00
        E 0 80 48 00
        E 0 80 3c 00
        E 80 90 61 60
        E 80 80 61 00
        E 80 90 60 60
        E 80 80 60 00
        E 80 90 62 60
        E 0 90 66 60
        E 0 90 56 60
        E 0 90 4a 60
        E 80 80 62 00
        E 0 80 66 00
        E 0 80 56 00
        E 0 80 4a 00
        E 80 90 62 60
        E 80 80 62 00
        E 80 90 62 60
        E 80 80 62 00
        E 80 90 60 60
        E 0 90 54 60
        E 0 90 48 60
        E 0 90 3c 60
        E 80 80 60 00
        E 0 80 54 00
        E 0 80 48 00
        E 0 80 3c 00
        E 80 90 61 60
        E 80 80 61 00
        E 80 90 60 60
        E 80 80 60 00
        E 80 90 63 60
        E 0 90 57 60
        E 0 90 4b 60
        E 80 80 63 00
        E 0 80 57 00
        E 0 80 4b 00
        E 80 90 62 60
        E 80 80 62 00
        E 80 90 61 60
        E 80 80 61 00
        E 80 90 60 60
        E 0 90 54 60
        E 0 90 48 60
        E 0 90 3c 60
        E 80 80 60 00
        E 0 80 54 00
        E 0 80 48 00
        E 0 80 3c 00
        E 80 90 61 60
        E 80 80 61 00
        E 80 90 60 60
        E 80 80 60 00
        E 80 90 63 60
        E 0 90 57 60
        E 0 90 4b 60
        E 80 80 63 00
        E 0 80 57 00
        E 0 80 4b 00
        E 80 90 62 60
        E 80 80 62 00
        E 80 90 61 60
        E 80 80 61 00
        E 80 90 60 60
        E 0 90 54 60
        E 0 90 48 60
        E 0 90 3c 60
        E 80 80 60 00
        E 0 80 54 00
        E 0 80 48 00
        E 0 80 3c 00
        E 80 90 61 60
        E 80 80 61 00
        E 80 90 60 60
        E 80 80 60 00
        E 80 90 63 60
        E 0 90 66 60
        E 0 90 57 60
        E 0 90 4b 60
        E 80 80 63 00
        E 0 80 66 00
        E 0 80 57 00
        E 0 80 4b 00
        E 80 90 63 60
        E 80 80 63 00
        E 80 90 63 60
        E 80 80 63 00
        E 80 90 60 60
        E 0 90 54 60
        E 0 90 48 60
        E 0 90 3c 60
        E 80 80 60 00
        E 0 80 54 00
        E 0 80 48 00
        E 0 80 3c 00
        E 80 90 61 60
        E 80 80 61 00
        E 80 90 60 60
        E 80 80 60 00
        E 80 90 63 60
        E 0 90 66 60
        E 0 90 57 60
        E 0 90 4b 60
        E 80 80 63 00
        E 0 80 66 00
        E 0 80 57 00
        E 0 80 4b 00
        E 80 90 63 60
        E 80 80 63 00
        E 80 90 63 60
        E 80 80 63 00
        E 80 90 60 60
        E 0 90 66 60
        E 0 90 54 60
        E 0 90 48 60
        E 0 90 3c 60
        E 80 80 66 00
        E 400 80 48 00
        E 0 80 3c 00
        E 360 80 60 00
        E 0 80 54 00
        E 120 90 63 60
        E 0 90 57 60
        E 0 90 4b 60
        E 0 90 3e 60
        E 2400 80 4b 00
        E 0 80 3e 00
        E 360 80 63 00
        E 0 80 57 00
        E 120 90 63 60
        E 0 90 58 60
        E 0 90 4b 60
        E 0 90 3e 60
        E 80 80 63 00
        E 0 90 64 60
        E 40 80 58 00
        E 0 80 4b 00
        E 0 80 3e 00
        E 40 80 64 00
        E 160 90 63 60
        E 0 90 57 60
        E 80 80 63 00
        E 0 80 57 00
        E 240 90 63 60
        E 0 90 57 60
        E 0 90 4b 60
        E 80 80 63 00
        E 0 80 57 00
        E 0 80 4b 00
        E 240 90 63 60
        E 0 90 57 60
        E 0 90 4b 60
        E 0 90 3e 60
        E 80 80 63 00
        E 0 80 57 00
        E 0 80 4b 00
        E 0 80 3e 00
        E 80 90 64 60
        E 80 80 64 00
        E 80 90 63 60
        E 80 80 63 00
        E 80 90 62 60
        E 0 90 56 60
        E 0 90 4a 60
        E 1920 80 4a 00
        E 360 80 62 00
        E 0 80 56 00
        E 120 90 60 60
        E 0 90 54 60
        E 0 90 48 60
        E 0 90 3c 60
        E 480 80 48 00
        E 0 80 3c 00
        E 360 80 60 00
        E 0 80 54 00
        E 120 90 63 60
        E 0 90 57 60
        E 0 90 4b 60
        E 0 90 3e 60
        E 2400 80 4b 00
        E 0 80 3e 00
        E 360 80 63 00
        E 0 80 57 00
        E 120 90 63 60
        E 0 90 58 60
        E 0 90 4b 60
        E 0 90 3e 60
        E 80 80 63 00
        E 0 90 64 60
        E 40 80 58 00
        E 0 80 4b 00
        E 0 80 3e 00
        E 40 80 64 00
        E 160 90 63 60
        E 0 90 57 60
        E 80 80 63 00
        E 0 80 57 00
        E 240 90 63 60
        E 0 90 57 60
        E 0 90 4b 60
        E 80 80 63 00
        E 0 80 57 00
        E 0 80 4b 00
        E 240 90 63 60
        E 0 90 57 60
        E 0 90 4b 60
        E 0 90 3e 60
        E 80 80 63 00
        E 0 80 57 00
        E 0 80 4b 00
        E 0 80 3e 00
        E 80 90 64 60
        E 80 80 64 00
        E 80 90 63 60
        E 80 80 63 00
        E 80 90 62 60
        E 0 90 56 60
        E 0 90 4a 60
        E 120 80 4a 00
        E 240 80 62 00
        E 0 80 56 00
        E 120 90 62 60
        E 0 90 57 60
        E 0 90 4b 60
        E 0 90 3e 60
        E 80 80 62 00
        E 0 90 63 60
        E 40 80 57 00
        E 0 80 4b 00
        E 0 80 3e 00
        E 40 80 63 00
        E 160 90 62 60
        E 0 90 56 60
        E 80 80 62 00
        E 0 80 56 00
        E 240 90 62 60
        E 0 90 56 60
        E 0 90 4a 60
        E 80 80 62 00
        E 0 80 56 00
        E 0 80 4a 00
        E 240 90 62 60
        E 0 90 56 60
        E 0 90 4a 60
        E 0 90 3d 60
        E 80 80 62 00
        E 0 80 56 00
        E 0 80 4a 00
        E 0 80 3d 00
        E 80 90 63 60
        E 80 80 63 00
        E 80 90 62 60
        E 80 80 62 00
        E 80 90 61 60
        E 0 90 55 60
        E 0 90 49 60
        E 120 80 49 00
        E 240 80 61 00
        E 0 80 55 00
        E 120 90 60 60
        E 0 90 54 60
        E 0 90 48 60
        E 0 90 3c 60
        E 480 80 48 00
        E 0 80 3c 00
        E 360 80 60 00
        E 0 80 54 00
        E 120 90 62 60
        E 0 90 56 60
        E 0 90 4a 60
        E 0 90 3d 60
        E 2400 80 4a 00
        E 0 80 3d 00
        E 360 80 62 00
        E 0 80 56 00
        E 120 90 63 60
        E 0 90 58 60
        E 0 90 4b 60
        E 0 90 3e 60
        E 80 80 63 00
        E 0 90 64 60
        E 40 80 58 00
        E 0 80 4b 00
        E 0 80 3e 00
        E 40 80 64 00
        E 160 90 63 60
        E 0 90 57 60
        E 80 80 63 00
        E 0 80 57 00
        E 240 90 63 60
        E 0 90 57 60
        E 0 90 4b 60
        E 80 80 63 00
        E 0 80 57 00
        E 0 80 4b 00
        E 240 90 63 60
        E 0 90 57 60
        E 0 90 4b 60
        E 0 90 3e 60
        E 80 80 63 00
        E 0 80 57 00
        E 0 80 4b 00
        E 0 80 3e 00
        E 80 90 64 60
        E 80 80 64 00
        E 80 90 63 60
        E 80 80 63 00
        E 80 90 62 60
        E 0 90 56 60
        E 0 90 4a 60
        E 1920 80 4a 00
        E 360 80 62 00
        E 0 80 56 00
        E 120 90 60 60
        E 0 90 54 60
        E 0 90 48 60
        E 0 90 3c 60
        E 480 80 48 00
        E 0 80 3c 00
        E 360 80 60 00
        E 0 80 54 00
        E 120 90 62 60
        E 0 90 56 60
        E 0 90 4a 60
        E 0 90 3d 60
        E 2400 80 4a 00
        E 0 80 3d 00
        E 360 80 62 00
        E 0 80 56 00
        E 120 90 63 60
        E 0 90 58 60
        E 0 90 4b 60
        E 0 90 3e 60
        E 80 80 63 00
        E 0 90 64 60
        E 40 80 58 00
        E 0 80 4b 00
        E 0 80 3e 00
        E 40 80 64 00
        E 160 90 63 60
        E 0 90 57 60
        E 80 80 63 00
        E 0 80 57 00
        E 240 90 63 60
        E 0 90 57 60
        E 0 90 4b 60
        E 80 80 63 00
        E 0 80 57 00
        E 0 80 4b 00
        E 240 90 63 60
        E 0 90 57 60
        E 0 90 4b 60
        E 0 90 3e 60
        E 80 80 63 00
        E 0 80 57 00
        E 0 80 4b 00
        E 0 80 3e 00
        E 80 90 64 60
        E 80 80 64 00
        E 80 90 63 60
        E 80 80 63 00
        E 80 90 62 60
        E 0 90 56 60
        E 0 90 4a 60
        E 120 80 4a 00
        E 240 80 62 00
        E 0 80 56 00
        E 120 90 62 60
        E 0 90 57 60
        E 0 90 4b 60
        E 0 90 3e 60
        E 80 80 62 00
        E 0 90 63 60
        E 40 80 57 00
        E 0 80 4b 00
        E 0 80 3e 00
        E 40 80 63 00
        E 160 90 62 60
        E 0 90 56 60
        E 80 80 62 00
        E 0 80 56 00
        E 240 90 62 60
        E 0 90 56 60
        E 0 90 4a 60
        E 80 80 62 00
        E 0 80 56 00
        E 0 80 4a 00
        E 240 90 62 60
        E 0 90 56 60
        E 0 90 4a 60
        E 0 90 3d 60
        E 80 80 62 00
        E 0 80 56 00
        E 0 80 4a 00
        E 0 80 3d 00
        E 80 90 63 60
        E 80 80 63 00
        E 80 90 62 60
        E 80 80 62 00
        E 80 90 61 60
        E 0 90 55 60
        E 0 90 49 60
        E 120 80 49 00
        E 240 80 61 00
        E 0 80 55 00
        E 120 90 60 60
        E 0 90 54 60
        E 0 90 48 60
        E 0 90 3c 60
        E 80 80 60 00
        E 0 80 54 00
        E 0 80 48 00
        E 0 80 3c 00
        E 80 90 61 60
        E 80 80 61 00
        E 80 90 60 60
        E 80 80 60 00
        E 80 90 63 60
        E 0 90 57 60
        E 0 90 4b 60
        E 80 80 63 00
        E 0 80 57 00
        E 0 80 4b 00
        E 80 90 62 60
        E 80 80 62 00
        E 80 90 61 60
        E 80 80 61 00
        E 80 90 60 60
        E 0 90 54 60
        E 0 90 48 60
        E 0 90 3c 60
        E 80 80 60 00
        E 0 80 54 00
        E 0 80 48 00
        E 0 80 3c 00
        E 80 90 61 60
        E 80 80 61 00
        E 80 90 60 60
        E 80 80 60 00
        E 80 90 63 60
        E 0 90 57 60
        E 0 90 4b 60
        E 80 80 63 00
        E 0 80 57 00
        E 0 80 4b 00
        E 80 90 62 60
        E 80 80 62 00
        E 80 90 61 60
        E 80 80 61 00
        E 80 90 60 60
        E 0 90 54 60
        E 0 90 48 60
        E 0 90 3c 60
        E 80 80 60 00
        E 0 80 54 00
        E 0 80 48 00
        E 0 80 3c 00
        E 80 90 61 60
        E 80 80 61 00
        E 80 90 60 60
        E 80 80 60 00
        E 80 90 62 60
        E 0 90 66 60
        E 0 90 56 60
        E 0 90 4a 60
        E 80 80 62 00
        E 0 80 66 00
        E 0 80 56 00
        E 0 80 4a 00
        E 80 90 62 60
        E 80 80 62 00
        E 80 90 62 60
        E 80 80 62 00
        E 80 90 60 60
        E 0 90 54 60
        E 0 90 48 60
        E 0 90 3c 60
        E 80 80 60 00
        E 0 80 54 00
        E 0 80 48 00
        E 0 80 3c 00
        E 80 90 61 60
        E 80 80 61 00
        E 80 90 60 60
        E 80 80 60 00
        E 80 90 62 60
        E 0 90 66 60
        E 0 90 56 60
        E 0 90 4a 60
        E 80 80 62 00
        E 0 80 66 00
        E 0 80 56 00
        E 0 80 4a 00
        E 80 90 62 60
        E 80 80 62 00
        E 80 90 62 60
        E 80 80 62 00
        E 80 90 60 60
        E 0 90 54 60
        E 0 90 48 60
        E 0 90 3c 60
        E 80 80 60 00
        E 0 80 54 00
        E 0 80 48 00
        E 0 80 3c 00
        E 80 90 61 60
        E 80 80 61 00
        E 80 90 60 60
        E 80 80 60 00
        E 80 90 63 60
        E 0 90 57 60
        E 0 90 4b 60
        E 80 80 63 00
        E 0 80 57 00
        E 0 80 4b 00
        E 80 90 62 60
        E 80 80 62 00
        E 80 90 61 60
        E 80 80 61 00
        E 80 90 60 60
        E 0 90 54 60
        E 0 90 48 60
        E 0 90 3c 60
        E 80 80 60 00
        E 0 80 54 00
        E 0 80 48 00
        E 0 80 3c 00
        E 80 90 61 60
        E 80 80 61 00
        E 80 90 60 60
        E 80 80 60 00
        E 80 90 63 60
        E 0 90 57 60
        E 0 90 4b 60
        E 80 80 63 00
        E 0 80 57 00
        E 0 80 4b 00
        E 80 90 62 60
        E 80 80 62 00
        E 80 90 61 60
        E 80 80 61 00
        E 80 90 60 60
        E 0 90 54 60
        E 0 90 48 60
        E 0 90 3c 60
        E 80 80 60 00
        E 0 80 54 00
        E 0 80 48 00
        E 0 80 3c 00
        E 80 90 61 60
        E 80 80 61 00
        E 80 90 60 60
        E 80 80 60 00
        E 80 90 63 60
        E 0 90 66 60
        E 0 90 57 60
        E 0 90 4b 60
        E 80 80 63 00
        E 0 80 66 00
        E 0 80 57 00
        E 0 80 4b 00
        E 80 90 63 60
        E 80 80 63 00
        E 80 90 63 60
        E 80 80 63 00
        E 80 90 60 60
        E 0 90 54 60
        E 0 90 48 60
        E 0 90 3c 60
        E 80 80 60 00
        E 0 80 54 00
        E 0 80 48 00
        E 0 80 3c 00
        E 80 90 61 60
        E 80 80 61 00
        E 80 90 60 60
        E 80 80 60 00
        E 80 90 63 60
        E 0 90 66 60
        E 0 90 57 60
        E 0 90 4b 60
        E 80 80 63 00
        E 0 80 66 00
        E 0 80 57 00
        E 0 80 4b 00
        E 80 90 63 60
        E 80 80 63 00
        E 80 90 63 60
        E 0 90 57 60
        E 80 80 63 00
        E 0 80 57 00
        E 7760 90 61 60
        E 0 90 55 60
        E 0 90 49 60
        E 0 90 3d 60
        E 80 80 61 00
        E 0 80 55 00
        E 0 80 49 00
        E 0 80 3d 00
        E 80 90 61 60
        E 80 80 61 00
        E 80 90 61 60
        E 80 80 61 00
        E 80 90 60 60
        E 0 90 66 60
        E 0 90 54 60
        E 0 90 48 60
        E 80 80 60 00
        E 0 80 66 00
        E 0 80 54 00
        E 0 80 48 00
        E 80 90 60 60
        E 80 80 60 00
        E 80 90 60 60
        E 80 80 60 00
        E 80 90 61 60
        E 0 90 66 60
        E 0 90 55 60
        E 0 90 49 60
        E 0 90 3d 60
        E 80 80 61 00
        E 0 80 66 00
        E 0 80 55 00
        E 0 80 49 00
        E 0 80 3d 00
        E 80 90 61 60
        E 80 80 61 00
        E 80 90 61 60
        E 80 80 61 00
        E 80 90 60 60
        E 0 90 66 60
        E 0 90 54 60
        E 0 90 48 60
        E 80 80 60 00
        E 0 80 66 00
        E 0 80 54 00
        E 0 80 48 00
        E 80 90 60 60
        E 80 80 60 00
        E 80 90 60 60
        E 80 80 60 00
        E 80 90 60 60
        E 0 90 54 60
        E 0 90 48 60
        E 0 90 3c 60
        E 80 80 60 00
        E 0 80 54 00
        E 0 80 48 00
        E 0 80 3c 00
        E 80 90 60 60
        E 80 80 60 00
        E 80 90 60 60
        E 80 80 60 00
        E 80 90 63 60
        E 0 90 66 60
        E 0 90 57 60
        E 0 90 4b 60
        E 80 80 63 00
        E 0 80 66 00
        E 0 80 57 00
        E 0 80 4b 00
        E 80 90 63 60
        E 80 80 63 00
        E 80 90 63 60
        E 80 80 63 00
        E 80 90 60 60
        E 0 90 66 60
        E 0 90 54 60
        E 0 90 48 60
        E 0 90 3c 60
        E 80 80 60 00
        E 0 80 66 00
        E 0 80 54 00
        E 0 80 48 00
        E 0 80 3c 00
        E 80 90 60 60
        E 80 80 60 00
        E 80 90 60 60
        E 80 80 60 00
        E 0 90 62 60
        E 80 80 62 00
        E 0 90 63 60
        E 0 90 57 60
        E 0 90 4b 60
        E 80 80 63 00
        E 0 80 57 00
        E 0 80 4b 00
        E 80 90 63 60
        E 80 80 63 00
        E 80 90 63 60
        E 80 80 63 00
        E 80 90 61 60
        E 0 90 66 60
        E 0 90 55 60
        E 0 90 49 60
        E 0 90 3d 60
        E 80 80 61 00
        E 0 80 66 00
        E 0 80 55 00
        E 0 80 49 00
        E 0 80 3d 00
        E 80 90 61 60
        E 80 80 61 00
        E 80 90 61 60
        E 80 80 61 00
        E 80 90 60 60
        E 0 90 66 60
        E 0 90 54 60
        E 0 90 48 60
        E 80 80 60 00
        E 0 80 66 00
        E 0 80 54 00
        E 0 80 48 00
        E 80 90 60 60
        E 80 80 60 00
        E 80 90 60 60
        E 80 80 60 00
        E 80 90 61 60
        E 0 90 66 60
        E 0 90 55 60
        E 0 90 49 60
        E 0 90 3d 60
        E 80 80 61 00
        E 0 80 66 00
        E 0 80 55 00
        E 0 80 49 00
        E 0 80 3d 00
        E 80 90 61 60
        E 80 80 61 00
        E 80 90 61 60
        E 80 80 61 00
        E 80 90 60 60
        E 0 90 66 60
        E 0 90 54 60
        E 0 90 48 60
        E 80 80 60 00
        E 0 80 66 00
        E 0 80 54 00
        E 0 80 48 00
        E 80 90 60 60
        E 80 80 60 00
        E 80 90 60 60
        E 80 80 60 00
        E 80 90 60 60
        E 0 90 54 60
        E 0 90 48 60
        E 0 90 3c 60
        E 80 80 60 00
        E 0 80 54 00
        E 0 80 48 00
        E 0 80 3c 00
        E 80 90 60 60
        E 80 80 60 00
        E 80 90 60 60
        E 80 80 60 00
        E 80 90 63 60
        E 0 90 57 60
        E 0 90 4b 60
        E 80 80 63 00
        E 0 80 57 00
        E 0 80 4b 00
        E 0 90 64 60
        E 80 80 64 00
        E 0 90 64 60
        E 80 80 64 00
        E 80 90 64 60
        E 80 80 64 00
        E 80 90 64 60
        E 0 90 58 60
        E 0 90 4b 60
        E 0 90 3e 60
        E 80 80 64 00
        E 0 80 58 00
        E 0 80 4b 00
        E 0 80 3e 00
        E 80 90 64 60
        E 80 80 64 00
        E 80 90 64 60
        E 80 80 64 00
        E 80 90 64 60
        E 0 90 58 60
        E 0 90 4b 60
        E 120 80 4b 00
        E 240 80 64 00
        E 0 80 58 00
        E 120 90 61 60
        E 0 90 55 60
        E 0 90 49 60
        E 0 90 3d 60
        E 80 80 61 00
        E 0 80 55 00
        E 0 80 49 00
        E 0 80 3d 00
        E 80 90 61 60
        E 80 80 61 00
        E 80 90 61 60
        E 80 80 61 00
        E 80 90 60 60
        E 0 90 66 60
        E 0 90 54 60
        E 0 90 48 60
        E 80 80 60 00
        E 0 80 66 00
        E 0 80 54 00
        E 0 80 48 00
        E 80 90 60 60
        E 80 80 60 00
        E 80 90 60 60
        E 80 80 60 00
        E 80 90 61 60
        E 0 90 66 60
        E 0 90 55 60
        E 0 90 49 60
        E 0 90 3d 60
        E 80 80 61 00
        E 0 80 66 00
        E 0 80 55 00
        E 0 80 49 00
        E 0 80 3d 00
        E 80 90 61 60
        E 80 80 61 00
        E 80 90 61 60
        E 80 80 61 00
        E 80 90 60 60
        E 0 90 66 60
        E 0 90 54 60
        E 0 90 48 60
        E 80 80 60 00
        E 0 80 66 00
        E 0 80 54 00
        E 0 80 48 00
        E 80 90 60 60
        E 80 80 60 00
        E 80 90 60 60
        E 80 80 60 00
        E 80 90 60 60
        E 0 90 54 60
        E 0 90 48 60
        E 0 90 3c 60
        E 80 80 60 00
        E 0 80 54 00
        E 0 80 48 00
        E 0 80 3c 00
        E 80 90 60 60
        E 80 80 60 00
        E 80 90 60 60
        E 80 80 60 00
        E 80 90 63 60
        E 0 90 66 60
        E 0 90 57 60
        E 0 90 4b 60
        E 80 80 63 00
        E 0 80 66 00
        E 0 80 57 00
        E 0 80 4b 00
        E 80 90 63 60
        E 80 80 63 00
        E 80 90 63 60
        E 80 80 63 00
        E 80 90 60 60
        E 0 90 66 60
        E 0 90 54 60
        E 0 90 48 60
        E 0 90 3c 60
        E 80 80 60 00
        E 0 80 66 00
        E 0 80 54 00
        E 0 80 48 00
        E 0 80 3c 00
        E 80 90 60 60
        E 80 80 60 00
        E 80 90 60 60
        E 80 80 60 00
        E 0 90 62 60
        E 80 80 62 00
        E 0 90 63 60
        E 0 90 57 60
        E 0 90 4b 60
        E 80 80 63 00
        E 0 80 57 00
        E 0 80 4b 00
        E 80 90 63 60
        E 80 80 63 00
        E 80 90 63 60
        E 80 80 63 00
        E 80 90 61 60
        E 0 90 66 60
        E 0 90 55 60
        E 0 90 49 60
        E 0 90 3d 60
        E 80 80 61 00
        E 0 80 66 00
        E 0 80 55 00
        E 0 80 49 00
        E 0 80 3d 00
        E 80 90 61 60
        E 80 80 61 00
        E 80 90 61 60
        E 80 80 61 00
        E 80 90 60 60
        E 0 90 66 60
        E 0 90 54 60
        E 0 90 48 60
        E 80 80 60 00
        E 0 80 66 00
        E 0 80 54 00
        E 0 80 48 00
        E 80 90 60 60
        E 80 80 60 00
        E 80 90 60 60
        E 80 80 60 00
        E 80 90 61 60
        E 0 90 66 60
        E 0 90 55 60
        E 0 90 49 60
        E 0 90 3d 60
        E 80 80 61 00
        E 0 80 66 00
        E 0 80 55 00
        E 0 80 49 00
        E 0 80 3d 00
        E 80 90 61 60
        E 80 80 61 00
        E 80 90 61 60
        E 80 80 61 00
        E 80 90 60 60
        E 0 90 66 60
        E 0 90 54 60
        E 0 90 48 60
        E 80 80 60 00
        E 0 80 66 00
        E 0 80 54 00
        E 0 80 48 00
        E 80 90 60 60
        E 80 80 60 00
        E 80 90 60 60
        E 80 80 60 00
        E 80 90 60 60
        E 0 90 54 60
        E 0 90 48 60
        E 0 90 3c 60
        E 80 80 60 00
        E 0 80 54 00
        E 0 80 48 00
        E 0 80 3c 00
        E 80 90 60 60
        E 80 80 60 00
        E 80 90 60 60
        E 80 80 60 00
        E 80 90 63 60
        E 0 90 57 60
        E 0 90 4b 60
        E 80 80 63 00
        E 0 80 57 00
        E 0 80 4b 00
        E 0 90 64 60
        E 80 80 64 00
        E 0 90 64 60
        E 80 80 64 00
        E 80 90 64 60
        E 80 80 64 00
        E 80 90 64 60
        E 0 90 58 60
        E 0 90 4b 60
        E 0 90 3e 60
        E 80 80 64 00
        E 0 80 58 00
        E 0 80 4b 00
        E 0 80 3e 00
        E 80 90 64 60
        E 80 80 64 00
        E 80 90 64 60
        E 80 80 64 00
        E 80 90 64 60
        E 0 90 58 60
        E 0 90 4b 60
        E 120 80 4b 00
        E 240 80 64 00
        E 0 80 58 00
        E 120 90 61 60
        E 0 90 55 60
        E 0 90 49 60
        E 0 90 3d 60
        E 80 80 61 00
        E 0 80 55 00
        E 0 80 49 00
        E 0 80 3d 00
        E 80 90 61 60
        E 80 80 61 00
        E 80 90 61 60
        E 80 80 61 00
        E 80 90 60 60
        E 0 90 66 60
        E 0 90 54 60
        E 0 90 48 60
        E 80 80 60 00
        E 0 80 66 00
        E 0 80 54 00
        E 0 80 48 00
        E 80 90 60 60
        E 80 80 60 00
        E 80 90 60 60
        E 80 80 60 00
        E 80 90 61 60
        E 0 90 66 60
        E 0 90 55 60
        E 0 90 49 60
        E 0 90 3d 60
        E 80 80 61 00
        E 0 80 66 00
        E 0 80 55 00
        E 0 80 49 00
        E 0 80 3d 00
        E 80 90 61 60
        E 80 80 61 00
        E 80 90 61 60
        E 80 80 61 00
        E 80 90 60 60
        E 0 90 66 60
        E 0 90 54 60
        E 0 90 48 60
        E 80 80 60 00
        E 0 80 66 00
        E 0 80 54 00
        E 0 80 48 00
        E 80 90 60 60
        E 80 80 60 00
        E 80 90 60 60
        E 80 80 60 00
        E 80 90 60 60
        E 0 90 54 60
        E 0 90 48 60
        E 0 90 3c 60
        E 80 80 60 00
        E 0 80 54 00
        E 0 80 48 00
        E 0 80 3c 00
        E 80 90 60 60
        E 80 80 60 00
        E 80 90 60 60
        E 80 80 60 00
        E 80 90 63 60
        E 0 90 66 60
        E 0 90 57 60
        E 0 90 4b 60
        E 80 80 63 00
        E 0 80 66 00
        E 0 80 57 00
        E 0 80 4b 00
        E 80 90 63 60
        E 80 80 63 00
        E 80 90 63 60
        E 80 80 63 00
        E 80 90 60 60
        E 0 90 66 60
        E 0 90 54 60
        E 0 90 48 60
        E 0 90 3c 60
        E 80 80 60 00
        E 0 80 66 00
        E 0 80 54 00
        E 0 80 48 00
        E 0 80 3c 00
        E 80 90 60 60
        E 80 80 60 00
        E 80 90 60 60
        E 80 80 60 00
        E 80 90 63 60
        E 0 90 66 60
        E 0 90 57 60
        E 0 90 4b 60
        E 80 80 63 00
        E 0 80 66 00
        E 0 80 57 00
        E 0 80 4b 00
        E 80 90 63 60
        E 80 80 63 00
        E 80 90 63 60
        E 80 80 63 00
        E 80 90 61 60
        E 0 90 66 60
        E 0 90 55 60
        E 0 90 49 60
        E 0 90 3d 60
        E 80 80 61 00
        E 0 80 66 00
        E 0 80 55 00
        E 0 80 49 00
        E 0 80 3d 00
        E 80 90 61 60
        E 80 80 61 00
        E 80 90 61 60
        E 80 80 61 00
        E 80 90 60 60
        E 0 90 66 60
        E 0 90 54 60
        E 0 90 48 60
        E 80 80 60 00
        E 0 80 66 00
        E 0 80 54 00
        E 0 80 48 00
        E 80 90 60 60
        E 80 80 60 00
        E 80 90 60 60
        E 80 80 60 00
        E 80 90 61 60
        E 0 90 66 60
        E 0 90 55 60
        E 0 90 49 60
        E 0 90 3d 60
        E 80 80 61 00
        E 0 80 66 00
        E 0 80 55 00
        E 0 80 49 00
        E 0 80 3d 00
        E 80 90 61 60
        E 80 80 61 00
        E 80 90 61 60
        E 80 80 61 00
        E 80 90 60 60
        E 0 90 66 60
        E 0 90 54 60
        E 0 90 48 60
        E 80 80 60 00
        E 0 80 66 00
        E 0 80 54 00
        E 0 80 48 00
        E 80 90 60 60
        E 80 80 60 00
        E 80 90 60 60
        E 80 80 60 00
        E 80 90 60 60
        E 0 90 54 60
        E 0 90 48 60
        E 0 90 3c 60
        E 80 80 60 00
        E 0 80 54 00
        E 0 80 48 00
        E 0 80 3c 00
        E 80 90 60 60
        E 80 80 60 00
        E 80 90 60 60
        E 80 80 60 00
        E 80 90 64 60
        E 0 90 66 60
        E 0 90 58 60
        E 0 90 4b 60
        E 80 80 64 00
        E 0 80 66 00
        E 0 80 58 00
        E 0 80 4b 00
        E 80 90 64 60
        E 80 80 64 00
        E 80 90 64 60
        E 80 80 64 00
        E 80 90 60 60
        E 0 90 66 60
        E 0 90 54 60
        E 0 90 48 60
        E 0 90 3c 60
        E 80 80 60 00
        E 0 80 66 00
        E 0 80 54 00
        E 0 80 48 00
        E 0 80 3c 00
        E 80 90 60 60
        E 80 80 60 00
        E 80 90 60 60
        E 80 80 60 00
        E 80 90 64 60
        E 0 90 66 60
        E 0 90 58 60
        E 0 90 4b 60
        E 80 80 64 00
        E 0 80 66 00
        E 0 80 58 00
        E 0 80 4b 00
        E 80 90 64 60
        E 80 80 64 00
        E 80 90 64 60
        E 80 80 64 00
        E 80 90 61 60
        E 0 90 66 60
        E 0 90 55 60
        E 0 90 49 60
        E 0 90 3d 60
        E 80 80 61 00
        E 0 80 66 00
        E 0 80 55 00
        E 0 80 49 00
        E 0 80 3d 00
        E 80 90 61 60
        E 80 80 61 00
        E 80 90 61 60
        E 80 80 61 00
        E 80 90 60 60
        E 0 90 66 60
        E 0 90 54 60
        E 0 90 48 60
        E 80 80 60 00
        E 0 80 66 00
        E 0 80 54 00
        E 0 80 48 00
        E 80 90 60 60
        E 80 80 60 00
        E 80 90 60 60
        E 80 80 60 00
        E 80 90 61 60
        E 0 90 66 60
        E 0 90 55 60
        E 0 90 49 60
        E 0 90 3d 60
        E 80 80 61 00
        E 0 80 66 00
        E 0 80 55 00
        E 0 80 49 00
        E 0 80 3d 00
        E 80 90 61 60
        E 80 80 61 00
        E 80 90 61 60
        E 80 80 61 00
        E 80 90 60 60
        E 0 90 66 60
        E 0 90 54 60
        E 0 90 48 60
        E 80 80 60 00
        E 0 80 66 00
        E 0 80 54 00
        E 0 80 48 00
        E 80 90 60 60
        E 80 80 60 00
        E 80 90 60 60
        E 80 80 60 00
        E 80 90 60 60
        E 0 90 54 60
        E 0 90 48 60
        E 0 90 3c 60
        E 80 80 60 00
        E 0 80 54 00
        E 0 80 48 00
        E 0 80 3c 00
        E 80 90 60 60
        E 80 80 60 00
        E 80 90 60 60
        E 80 80 60 00
        E 80 90 63 60
        E 0 90 66 60
        E 0 90 57 60
        E 0 90 4b 60
        E 80 80 63 00
        E 0 80 66 00
        E 0 80 57 00
        E 0 80 4b 00
        E 80 90 63 60
        E 80 80 63 00
        E 80 90 63 60
        E 80 80 63 00
        E 80 90 60 60
        E 0 90 66 60
        E 0 90 54 60
        E 0 90 48 60
        E 0 90 3c 60
        E 80 80 60 00
        E 0 80 66 00
        E 0 80 54 00
        E 0 80 48 00
        E 0 80 3c 00
        E 80 90 60 60
        E 80 80 60 00
        E 80 90 60 60
        E 80 80 60 00
        E 80 90 63 60
        E 0 90 66 60
        E 0 90 57 60
        E 0 90 4b 60
        E 80 80 63 00
        E 0 80 66 00
        E 0 80 57 00
        E 0 80 4b 00
        E 80 90 63 60
        E 80 80 63 00
        E 80 90 63 60
        E 80 80 63 00
        E 80 90 61 60
        E 0 90 66 60
        E 0 90 55 60
        E 0 90 49 60
        E 0 90 3d 60
        E 80 80 61 00
        E 0 80 66 00
        E 0 80 55 00
        E 0 80 49 00
        E 0 80 3d 00
        E 80 90 61 60
        E 80 80 61 00
        E 80 90 61 60
        E 80 80 61 00
        E 80 90 60 60
        E 0 90 66 60
        E 0 90 54 60
        E 0 90 48 60
        E 80 80 60 00
        E 0 80 66 00
        E 0 80 54 00
        E 0 80 48 00
        E 80 90 60 60
        E 80 80 60 00
        E 80 90 60 60
        E 80 80 60 00
        E 80 90 61 60
        E 0 90 66 60
        E 0 90 55 60
        E 0 90 49 60
        E 0 90 3d 60
        E 80 80 61 00
        E 0 80 66 00
        E 0 80 55 00
        E 0 80 49 00
        E 0 80 3d 00
        E 80 90 61 60
        E 80 80 61 00
        E 80 90 61 60
        E 80 80 61 00
        E 80 90 60 60
        E 0 90 66 60
        E 0 90 54 60
        E 0 90 48 60
        E 80 80 60 00
        E 0 80 66 00
        E 0 80 54 00
        E 0 80 48 00
        E 80 90 60 60
        E 80 80 60 00
        E 80 90 60 60
        E 80 80 60 00
        E 80 90 60 60
        E 0 90 54 60
        E 0 90 48 60
        E 0 90 3c 60
        E 80 80 60 00
        E 0 80 54 00
        E 0 80 48 00
        E 0 80 3c 00
        E 80 90 60 60
        E 80 80 60 00
        E 80 90 60 60
        E 80 80 60 00
        E 80 90 64 60
        E 0 90 66 60
        E 0 90 58 60
        E 0 90 4b 60
        E 80 80 64 00
        E 0 80 66 00
        E 0 80 58 00
        E 0 80 4b 00
        E 80 90 64 60
        E 80 80 64 00
        E 80 90 64 60
        E 80 80 64 00
        E 80 90 60 60
        E 0 90 66 60
        E 0 90 54 60
        E 0 90 48 60
        E 0 90 3c 60
        E 80 80 60 00
        E 0 80 66 00
        E 0 80 54 00
        E 0 80 48 00
        E 0 80 3c 00
        E 80 90 60 60
        E 80 80 60 00
        E 80 90 60 60
        E 80 80 60 00
        E 80 90 64 60
        E 0 90 66 60
        E 0 90 58 60
        E 0 90 4b 60
        E 80 80 64 00
        E 0 80 66 00
        E 0 80 58 00
        E 0 80 4b 00
        E 80 90 64 60
        E 80 80 64 00
        E 80 90 64 60
        E 80 80 64 00
        E 80 90 60 60
        E 0 90 66 60
        E 0 90 54 60
        E 0 90 48 60
        E 0 90 3c 60
        E 80 80 60 00
        E 0 80 66 00
        E 0 80 54 00
        E 0 80 48 00
        E 0 80 3c 00
        E 80 90 60 60
        E 80 80 60 00
        E 80 90 60 60
        E 80 80 60 00
        E 80 90 62 60
        E 0 90 66 60
        E 0 90 56 60
        E 0 90 4a 60
        E 80 80 62 00
        E 0 80 66 00
        E 0 80 56 00
        E 0 80 4a 00
        E 80 90 62 60
        E 80 80 62 00
        E 80 90 62 60
        E 80 80 62 00
        E 80 90 60 60
        E 0 90 66 60
        E 0 90 54 60
        E 0 90 48 60
        E 0 90 3c 60
        E 80 80 60 00
        E 0 80 66 00
        E 0 80 54 00
        E 0 80 48 00
        E 0 80 3c 00
        E 80 90 60 60
        E 80 80 60 00
        E 80 90 60 60
        E 80 80 60 00
        E 80 90 63 60
        E 0 90 66 60
        E 0 90 57 60
        E 0 90 4b 60
        E 80 80 63 00
        E 0 80 66 00
        E 0 80 57 00
        E 0 80 4b 00
        E 80 90 63 60
        E 80 80 63 00
        E 80 90 62 60
        E 80 80 62 00
        E 80 90 64 60
        E 0 90 66 60
        E 0 90 58 60
        E 0 90 4b 60
        E 0 90 3e 60
        E 80 80 64 00
        E 0 80 66 00
        E 0 80 58 00
        E 0 80 4b 00
        E 0 80 3e 00
        E 80 90 64 60
        E 80 80 64 00
        E 80 90 63 60
        E 0 90 57 60
        E 520 80 57 00
        E 40 80 63 00
        E 80 90 62 60
        E 0 90 56 60
        E 0 90 4a 60
        E 0 90 3d 60
        E 80 80 62 00
        E 0 80 56 00
        E 0 80 4a 00
        E 0 80 3d 00
        E 240 90 61 60
        E 0 90 55 60
        E 400 80 61 00
        E 0 80 55 00
        E 240 90 60 60
        E 0 90 54 60
        E 0 90 48 60
        E 0 90 3c 60
        E 80 80 60 00
        E 0 80 54 00
        E 0 80 48 00
        E 0 80 3c 00
        E 80 90 60 60
        E 80 80 60 00
        E 80 90 60 60
        E 80 80 60 00
        E 80 90 62 60
        E 0 90 66 60
        E 0 90 56 60
        E 0 90 4a 60
        E 80 80 62 00
        E 0 80 66 00
        E 0 80 56 00
        E 0 80 4a 00
        E 80 90 62 60
        E 80 80 62 00
        E 80 90 62 60
        E 80 80 62 00
        E 80 90 60 60
        E 0 90 66 60
        E 0 90 54 60
        E 0 90 48 60
        E 0 90 3c 60
        E 80 80 60 00
        E 0 80 66 00
        E 0 80 54 00
        E 0 80 48 00
        E 0 80 3c 00
        E 80 90 60 60
        E 80 80 60 00
        E 80 90 60 60
        E 80 80 60 00
        E 80 90 63 60
        E 0 90 66 60
        E 0 90 57 60
        E 0 90 4b 60
        E 80 80 63 00
        E 0 80 66 00
        E 0 80 57 00
        E 0 80 4b 00
        E 80 90 63 60
        E 80 80 63 00
        E 80 90 62 60
        E 80 80 62 00
        E 80 90 64 60
        E 0 90 66 60
        E 0 90 58 60
        E 0 90 4b 60
        E 0 90 3e 60
        E 80 80 64 00
        E 0 80 66 00
        E 0 80 58 00
        E 0 80 4b 00
        E 0 80 3e 00
        E 80 90 64 60
        E 80 80 64 00
        E 80 90 63 60
        E 0 90 57 60
        E 520 80 63 00
        E 0 80 57 00
        E 120 90 62 60
        E 0 90 56 60
        E 0 90 4a 60
        E 0 90 3d 60
        E 80 80 62 00
        E 0 80 56 00
        E 0 80 4a 00
        E 0 80 3d 00
        E 240 90 61 60
        E 0 90 55 60
        E 520 80 61 00
        E 0 80 55 00
        E 120 90 60 60
        E 0 90 54 60
        E 0 90 48 60
        E 0 90 3c 60
        E 80 80 60 00
        E 0 80 54 00
        E 0 80 48 00
        E 0 80 3c 00
        E 80 90 60 60
        E 80 80 60 00
        E 80 90 60 60
        E 80 80 60 00
        E 80 90 62 60
        E 0 90 66 60
        E 0 90 56 60
        E 0 90 4a 60
        E 80 80 62 00
        E 0 80 66 00
        E 0 80 56 00
        E 0 80 4a 00
        E 80 90 62 60
        E 80 80 62 00
        E 80 90 62 60
        E 80 80 62 00
        E 80 90 60 60
        E 0 90 66 60
        E 0 90 54 60
        E 0 90 48 60
        E 0 90 3c 60
        E 80 80 60 00
        E 0 80 66 00
        E 0 80 54 00
        E 0 80 48 00
        E 0 80 3c 00
        E 80 90 60 60
        E 80 80 60 00
        E 80 90 60 60
        E 80 80 60 00
        E 80 90 63 60
        E 0 90 66 60
        E 0 90 57 60
        E 0 90 4b 60
        E 80 80 63 00
        E 0 80 66 00
        E 0 80 57 00
        E 0 80 4b 00
        E 80 90 63 60
        E 80 80 63 00
        E 80 90 62 60
        E 80 80 62 00
        E 80 90 64 60
        E 0 90 66 60
        E 0 90 58 60
        E 0 90 4b 60
        E 0 90 3e 60
        E 80 80 64 00
        E 0 80 66 00
        E 0 80 58 00
        E 0 80 4b 00
        E 0 80 3e 00
        E 80 90 64 60
        E 80 80 64 00
        E 80 90 63 60
        E 0 90 57 60
        E 520 80 63 00
        E 0 80 57 00
        E 120 90 62 60
        E 0 90 56 60
        E 0 90 4a 60
        E 0 90 3d 60
        E 80 80 62 00
        E 0 80 56 00
        E 0 80 4a 00
        E 0 80 3d 00
        E 240 90 61 60
        E 0 90 55 60
        E 520 80 61 00
        E 0 80 55 00
        E 120 90 60 60
        E 0 90 54 60
        E 0 90 48 60
        E 0 90 3c 60
        E 80 80 60 00
        E 0 80 54 00
        E 0 80 48 00
        E 0 80 3c 00
        E 80 90 60 60
        E 80 80 60 00
        E 80 90 60 60
        E 80 80 60 00
        E 80 90 62 60
        E 0 90 66 60
        E 0 90 56 60
        E 0 90 4a 60
        E 80 80 62 00
        E 0 80 66 00
        E 0 80 56 00
        E 0 80 4a 00
        E 80 90 62 60
        E 80 80 62 00
        E 80 90 62 60
        E 80 80 62 00
        E 80 90 60 60
        E 0 90 66 60
        E 0 90 54 60
        E 0 90 48 60
        E 0 90 3c 60
        E 80 80 60 00
        E 0 80 66 00
        E 0 80 54 00
        E 0 80 48 00
        E 0 80 3c 00
        E 80 90 60 60
        E 80 80 60 00
        E 80 90 60 60
        E 80 80 60 00
        E 80 90 63 60
        E 0 90 66 60
        E 0 90 57 60
        E 0 90 4b 60
        E 80 80 63 00
        E 0 80 66 00
        E 0 80 57 00
        E 0 80 4b 00
        E 80 90 63 60
        E 80 80 63 00
        E 80 90 62 60
        E 80 80 62 00
        E 80 90 64 60
        E 0 90 66 60
        E 0 90 58 60
        E 0 90 4b 60
        E 0 90 3e 60
        E 80 80 64 00
        E 0 80 66 00
        E 0 80 58 00
        E 0 80 4b 00
        E 0 80 3e 00
        E 80 90 64 60
        E 80 80 64 00
        E 80 90 63 60
        E 0 90 57 60
        E 520 80 63 00
        E 0 80 57 00
        E 120 90 62 60
        E 0 90 56 60
        E 0 90 4a 60
        E 0 90 3d 60
        E 80 80 62 00
        E 0 80 56 00
        E 0 80 4a 00
        E 0 80 3d 00
        E 240 90 61 60
        E 0 90 55 60
        E 520 80 61 00
        E 0 80 55 00
        E 120 90 60 60
        E 0 90 54 60
        E 0 90 48 60
        E 0 90 3c 60
        E 80 80 60 00
        E 0 80 54 00
        E 0 80 48 00
        E 0 80 3c 00
        E 80 90 60 60
        E 80 80 60 00
        E 80 90 60 60
        E 80 80 60 00
        E 80 90 60 60
        E 0 90 54 60
        E 0 90 48 60
        E 0 90 3c 60
        E 80 80 60 00
        E 0 80 54 00
        E 0 80 48 00
        E 0 80 3c 00
        E 80 90 60 60
        E 80 80 60 00
        E 80 90 60 60
        E 80 80 60 00
        E 80 90 60 60
        E 0 90 54 60
        E 0 90 48 60
        E 0 90 3c 60
        E 80 80 60 00
        E 0 80 54 00
        E 0 80 48 00
        E 0 80 3c 00
        E 80 90 60 60
        E 80 80 60 00
        E 80 90 60 60
        E 80 80 60 00
        E 80 90 60 60
        E 0 90 54 60
        E 0 90 48 60
        E 80 80 60 00
        E 0 80 54 00
        E 0 80 48 00
        E 80 90 62 60
        E 80 80 62 00
        E 80 90 61 60
        E 80 80 61 00
        E 80 90 62 60
        E 0 90 56 60
        E 0 90 4a 60
        E 0 90 3d 60
        E 80 80 62 00
        E 0 80 56 00
        E 0 80 4a 00
        E 0 80 3d 00
        <X 480 0
          /wFbaWRsZV9yZWFsdGltZV0=
        >
        E 3280 b0 7b 00
        GUID {54A57D35-811F-42A6-AB75-F5706122F903}
        IGNTEMPO 0 120.00000000 4 4
        SRCCOLOR 21
        VELLANE 132 55 60
        COLORMAP "C:\Program Files (x86)\REAPER\Data\color_maps\rockband_guitarbass.png"
        BANKPROGRAMFILE "C:\Users\AJFOne23\AppData\Roaming\REAPER/Data/GM.reabank"
        TEXTSTRINGFILE "Text Events List.txt"
        CFGEDITVIEW -75990.795344 4.053122 0 12 0 0 0
        CFGEDIT 1 1 0 0 0 1 1 1 1 1 1 0.16666667 -8 -8 1370 736 1 2 1 2 0.00000000 0 0 0 0 0.500000 1 0 1.000000 64
        KEYSNAP 0 0 "102034050607" 0 "Major"
        EVTFILTER 0 -1 -1 -1 -1 0 1 0 0 -1.00000000 -1.00000000
      >
    >
  >
  <TRACK '{C298A11E-8E06-44B8-AA31-429ECCE3F0AF}'
    NAME "PART VOCALS"
    PEAKCOL 16810239
    BEAT -1
    AUTOMODE 0
    VOLPAN 1.00000000000000 0.00000000000000 -1.00000000000000 -1.00000000000000 1.00000000000000
    MUTESOLO 1 0 0
    IPHASE 0
    ISBUS 0 0
    BUSCOMP 1 0
    SHOWINMIX 1 0.666700 0.500000 1 0.500000 -1 -1 -1
    FREEMODE 0
    SEL 0
    REC 0 4096 1 7 0 0 0
    TRACKHEIGHT 56 0
    INQ 0 0 0 0.5000000000 100 0 0 100
    NCHAN 2
    FX 1
    TRACKID {C298A11E-8E06-44B8-AA31-429ECCE3F0AF}
    PERF 0
    MIDIOUT -1
    <MIDINOTENAMES
      0 105 "Phrase Marker"
      0 84 "C5"
      0 36 "C1"
      0 83 "B"
      0 82 "Bb"
      0 81 "A"
      0 80 "G#"
      0 79 "G"
      0 78 "F#"
      0 77 "F"
      0 76 "E"
      0 75 "Eb"
      0 74 "D"
      0 73 "C#"
      0 72 "C4"
      0 71 "B"
      0 70 "Bb"
      0 69 "A"
      0 68 "G#"
      0 67 "G"
      0 66 "F#"
      0 65 "F"
      0 64 "E"
      0 63 "Eb"
      0 62 "D"
      0 61 "C#"
      0 60 "C3"
      0 59 "B"
      0 58 "Bb"
      0 57 "A"
      0 56 "G#"
      0 55 "G"
      0 54 "F#"
      0 53 "F"
      0 52 "E"
      0 51 "Eb"
      0 50 "D"
      0 49 "C#"
      0 48 "C2"
      0 47 "B"
      0 46 "Bb"
      0 45 "A"
      0 44 "G#"
      0 43 "G"
      0 42 "F#"
      0 41 "F"
      0 40 "E"
      0 39 "Eb"
      0 38 "D"
      0 37 "C#"
      0 97 "Not Displayed Percussion"
      0 96 "Displayed Percussion"
      0 104 "----"
      0 95 "----"
      0 116 "OVERDRIVE"
      0 115 "----"
      0 0 "Range Shift"
      0 1 "Lyric Shift"
    >
    MAINSEND 1 0
    <FXCHAIN
      WNDRECT 455 130 716 493
      SHOW 0
      LASTSEL 1
      DOCKED 0
      BYPASS 0 0
      <JS "IX/MIDI_Tool II" ""
        0.000000 85.000000 127.000000 0.000000 0.000000 0.000000 100.000000 0.000000 0.000000 127.000000 0.000000 0.000000 1.000000 0.000000 0.000000 - - - - - - - - - - - - - - - - - - - - - - - - - - - - - - - - - - - - - - - - - - - - - - - - - 
      >
      FLOATPOS 0 0 0 0
      FXID {CA785021-0433-497E-9A6C-EE23A1BC21B0}
      WAK 0
      BYPASS 0 0
      <VST "VSTi: ReaSynth (Cockos)" "reasynth.dll" 0 ""
        eXNlcu9e7f4AAAAAAgAAAAEAAAAAAAAAAgAAAAAAAAA4AAAAAAAAAA==
        AAAAAO++rd4N8K3eppvEOxe30ToAAAAAAAAAAAAAAADMm4A+6WeIPQ==
        AAAAAAAAAD8AAIA/AAAAAAAAAD8AAAAAAAA=
      >
      FLOATPOS 32 32 338 405
      FXID {F124DD19-73B4-4CD5-B659-E246F2A3D0B3}
      WAK 0
    >
    <ITEM
      POSITION 0.00000000000000
      SNAPOFFS 0.00000000000000
      LENGTH 187.82023574328986
      LOOP 0
      ALLTAKES 0
      SEL 0
      FADEIN 1 0.000000 0.000000 1 0
      FADEOUT 1 0.000000 0.000000 1 0
      MUTE 0
      IGUID {9C9617EC-369A-41B9-80F6-31F4222F13F6}
      IID 13
      NAME "PART VOCALS"
      VOLPAN 1.000000 0.000000 1.000000 -1.000000
      SOFFS 0.00000000000000 0.00000000000000
      PLAYRATE 1.00000000000000 1 0.00000000000000 -65536
      CHANMODE 0
      GUID {8E872349-00D8-4243-95D7-0B92852E4EE5}
      <SOURCE MIDI
        HASDATA 1 480 QN
        POOLEDEVTS {7DF469CE-ABFE-4E1D-83B2-BA04D77181E6}
        <X 0 0
          /wNQQVJUIFZPQ0FMUw==
        >
        <X 5760 0
          /wFbaWRsZV0=
        >
        <X 1937 0
          /wFbcGxheV0=
        >
        E 184303 b0 7b 00
        GUID {C9A1A4CA-4224-4672-91C0-075BEB2A8650}
        IGNTEMPO 0 120.00000000 4 4
        SRCCOLOR 25
        VELLANE 132 128 128
        COLORMAP "C:\Users\AJFOne23\AppData\Roaming\REAPER\Data\color_maps\rockband_vox-other.png"
        BANKPROGRAMFILE "C:\Users\AJFOne23\AppData\Roaming\REAPER/Data/GM.reabank"
        TEXTSTRINGFILE "Text Events List.txt"
        CFGEDITVIEW -2055.263631 68.662724 0 12 0 0 0
        CFGEDIT 1 1 0 0 1 1 1 1 1 1 1 0.06250000 75 0 1611 691 1 2 1 2 0.00000000 0 0 0 0 0.500000 1 0 1.000000 64
        KEYSNAP 0 0 "102034050607" 0 "Major"
        EVTFILTER 0 -1 -1 -1 -1 0 1 0 0 -1.00000000 -1.00000000
      >
    >
  >
  <TRACK '{E60BCF67-80FD-4554-840A-5B0B5C2E06A0}'
    NAME "HARM1"
    PEAKCOL 24624127
    BEAT -1
    AUTOMODE 0
    VOLPAN 1.00000000000000 -0.09600000000000 -1.00000000000000 -1.00000000000000 1.00000000000000
    MUTESOLO 1 0 0
    IPHASE 0
    ISBUS 0 0
    BUSCOMP 0 0
    SHOWINMIX 1 0.666700 0.500000 1 0.500000 -1 -1 -1
    FREEMODE 0
    SEL 0
    REC 0 0 0 0 0 0 0
    TRACKHEIGHT 52 0
    INQ 0 0 0 0.5000000000 100 0 0 100
    NCHAN 2
    FX 1
    TRACKID {E60BCF67-80FD-4554-840A-5B0B5C2E06A0}
    PERF 0
    MIDIOUT -1
    <MIDINOTENAMES
      0 0 "Range Shift"
      0 1 "Lyric Shift"
      0 36 "C1"
      0 37 "C#"
      0 38 "D"
      0 39 "Eb"
      0 40 "E"
      0 41 "F"
      0 42 "F#"
      0 43 "G"
      0 44 "G#"
      0 45 "A"
      0 46 "Bb"
      0 47 "B"
      0 48 "C2"
      0 49 "C#"
      0 50 "D"
      0 51 "Eb"
      0 52 "E"
      0 53 "F"
      0 54 "F#"
      0 55 "G"
      0 56 "G#"
      0 57 "A"
      0 58 "Bb"
      0 59 "B"
      0 60 "C3"
      0 61 "C#"
      0 62 "D"
      0 63 "Eb"
      0 64 "E"
      0 65 "F"
      0 66 "F#"
      0 67 "G"
      0 68 "G#"
      0 69 "A"
      0 70 "Bb"
      0 71 "B"
      0 72 "C4"
      0 73 "C#"
      0 74 "D"
      0 75 "Eb"
      0 76 "E"
      0 77 "F"
      0 78 "F#"
      0 79 "G"
      0 80 "G#"
      0 81 "A"
      0 82 "Bb"
      0 83 "B"
      0 105 "Phrase Marker"
      0 116 "OVERDRIVE"
      0 115 "----"
      0 104 "----"
      0 97 "Not Displayed Percussion"
      0 96 "Displayed Percussion"
      0 95 "----"
      0 84 "C5"
    >
    MAINSEND 1 0
    <FXCHAIN
      SHOW 0
      LASTSEL 1
      DOCKED 0
      BYPASS 0 0
      <JS "IX/MIDI_Tool II" ""
        0.000000 85.000000 127.000000 0.000000 0.000000 0.000000 100.000000 0.000000 0.000000 127.000000 0.000000 0.000000 1.000000 0.000000 0.000000 - - - - - - - - - - - - - - - - - - - - - - - - - - - - - - - - - - - - - - - - - - - - - - - - - 
      >
      FLOATPOS 0 0 0 0
      FXID {2E79298C-F056-441C-A64B-722C2599E1AA}
      WAK 0
      BYPASS 0 0
      <VST "VSTi: ReaSynth (Cockos)" "reasynth.dll" 0 ""
        eXNlcu9e7f4AAAAAAgAAAAEAAAAAAAAAAgAAAAAAAAA4AAAAAAAAAA==
        AAAAAO++rd4N8K3eppvEOxe30TqcxKA+AAAAAAAAAADMm4A+6WeIPQ==
        AAAAAAAAAD8AAIA/6SaxPgAAAD8AAAAAAAA=
      >
      FLOATPOS 0 0 0 0
      FXID {A391E59B-3475-47CA-9BDB-E03F3B8FF2C4}
      WAK 0
    >
    <ITEM
      POSITION 0.00000000000000
      SNAPOFFS 0.00000000000000
      LENGTH 176.50500852170097
      LOOP 0
      ALLTAKES 0
      SEL 0
      FADEIN 1 0.000000 0.000000 1 0
      FADEOUT 1 0.000000 0.000000 1 0
      MUTE 0
      IGUID {FE84F6DE-5A5E-43D1-BFBE-4632BD10F85F}
      IID 14
      NAME "HARM1"
      VOLPAN 1.000000 0.000000 1.000000 -1.000000
      SOFFS 0.00000000000000 0.00000000000000
      PLAYRATE 1.00000000000000 1 0.00000000000000 -1
      CHANMODE 0
      GUID {188D8841-6EF7-4ADC-A9DC-A83C2882A63B}
      <SOURCE MIDI
        HASDATA 1 480 QN
        POOLEDEVTS {E8860273-C00D-4CA3-AD3A-9FD43A5FEB16}
        <X 0 0
          /wNIQVJNMQ==
        >
        E 180481 b0 7b 00
        GUID {D78D8959-2AD8-48C0-8F6C-4A6670952331}
        IGNTEMPO 0 120.00000000 4 4
        SRCCOLOR 26
        VELLANE 132 128 60
        COLORMAP "C:\Users\AJFOne23\AppData\Roaming\REAPER\Data\color_maps\rockband_vox-other.png"
        BANKPROGRAMFILE "C:\Users\AJFOne23\AppData\Roaming\REAPER/Data/GM.reabank"
        TEXTSTRINGFILE "C:\Program Files\REAPER\Data\Text_Strings\Text Events List.txt"
        CFGEDITVIEW -2055.263631 68.662724 0 12 0 0 0
        CFGEDIT 1 1 0 1 1 1 1 1 1 1 1 0.06250000 -8 -8 1374 736 1 2 1 2 0.00000000 0 0 0 0 0.500000 1 0 1.000000 64
        KEYSNAP 0 0 "102034050607" 0 "Major"
        EVTFILTER 0 -1 -1 -1 -1 0 1 0 0 -1.00000000 -1.00000000
      >
    >
  >
  <TRACK '{983C7D04-DAF6-462A-B5E6-64213F29FBA0}'
    NAME "HARM2"
    PEAKCOL 24624127
    BEAT -1
    AUTOMODE 0
    VOLPAN 1.00497380427334 -0.09600000000000 -1.00000000000000 -1.00000000000000 1.00000000000000
    MUTESOLO 1 0 0
    IPHASE 0
    ISBUS 0 0
    BUSCOMP 0 0
    SHOWINMIX 1 0.666700 0.500000 1 0.500000 -1 -1 -1
    FREEMODE 0
    SEL 0
    REC 0 0 0 0 0 0 0
    TRACKHEIGHT 53 0
    INQ 0 0 0 0.5000000000 100 0 0 100
    NCHAN 2
    FX 1
    TRACKID {983C7D04-DAF6-462A-B5E6-64213F29FBA0}
    PERF 0
    MIDIOUT -1
    <MIDINOTENAMES
      0 0 "Range Shift"
      0 1 "Lyric Shift"
      0 36 "C1"
      0 37 "C#"
      0 38 "D"
      0 39 "Eb"
      0 40 "E"
      0 41 "F"
      0 42 "F#"
      0 43 "G"
      0 44 "G#"
      0 45 "A"
      0 46 "Bb"
      0 47 "B"
      0 48 "C2"
      0 49 "C#"
      0 50 "D"
      0 51 "Eb"
      0 52 "E"
      0 53 "F"
      0 54 "F#"
      0 55 "G"
      0 56 "G#"
      0 57 "A"
      0 58 "Bb"
      0 59 "B"
      0 60 "C3"
      0 61 "C#"
      0 62 "D"
      0 63 "Eb"
      0 64 "E"
      0 65 "F"
      0 66 "F#"
      0 67 "G"
      0 68 "G#"
      0 69 "A"
      0 70 "Bb"
      0 71 "B"
      0 72 "C4"
      0 73 "C#"
      0 74 "D"
      0 75 "Eb"
      0 76 "E"
      0 77 "F"
      0 78 "F#"
      0 79 "G"
      0 80 "G#"
      0 81 "A"
      0 82 "Bb"
      0 83 "B"
      0 105 "Phrase Marker"
      0 35 "----"
      0 84 "C5"
      0 116 "OVERDRIVE"
      0 115 "----"
      0 104 "----"
      0 97 "Not Displayed Percussion"
      0 96 "Displayed Percussion"
      0 95 "----"
    >
    MAINSEND 1 0
    <FXCHAIN
      SHOW 0
      LASTSEL 1
      DOCKED 0
      BYPASS 0 0
      <JS "IX/MIDI_Tool II" ""
        0.000000 85.000000 127.000000 0.000000 0.000000 0.000000 100.000000 0.000000 0.000000 127.000000 0.000000 0.000000 1.000000 0.000000 0.000000 - - - - - - - - - - - - - - - - - - - - - - - - - - - - - - - - - - - - - - - - - - - - - - - - - 
      >
      FLOATPOS 0 0 0 0
      FXID {0D2127EF-90E6-4278-AB57-59BADA75D3A0}
      WAK 0
      BYPASS 0 0
      <VST "VSTi: ReaSynth (Cockos)" "reasynth.dll" 0 ""
        eXNlcu9e7f4AAAAAAgAAAAEAAAAAAAAAAgAAAAAAAAA4AAAAAAAAAA==
        AAAAAO++rd4N8K3eppvEOxe30ToAAAAAAAAAAAAAAADMm4A+6WeIPQ==
        AAAAAAAAAD8AAIA/AAAAAAAAAD8AAAAAAAA=
      >
      FLOATPOS 0 0 0 0
      FXID {9CF76FE8-51DE-4F46-8774-EF282D9874DF}
      WAK 0
    >
    <ITEM
      POSITION 0.00000000000000
      SNAPOFFS 0.00000000000000
      LENGTH 176.50500852170097
      LOOP 0
      ALLTAKES 0
      SEL 0
      FADEIN 1 0.000000 0.000000 1 0
      FADEOUT 1 0.000000 0.000000 1 0
      MUTE 0
      IGUID {85B4D2FA-0EE6-4979-8286-EAC89A15680D}
      IID 15
      NAME "HARM2"
      VOLPAN 1.000000 0.000000 1.000000 -1.000000
      SOFFS 0.00000000000000 0.00000000000000
      PLAYRATE 1.00000000000000 1 0.00000000000000 -1
      CHANMODE 0
      GUID {67C8C31A-733D-46F5-9A6D-0FDF2143554E}
      <SOURCE MIDI
        HASDATA 1 480 QN
        POOLEDEVTS {B0B42451-50FE-4CFE-A1B2-3BC32B7CC0C0}
        <X 0 0
          /wNIQVJNMg==
        >
        E 180481 b0 7b 00
        GUID {E53B89F8-ECC8-4A25-86E2-BC4D240C9444}
        IGNTEMPO 0 120.00000000 4 4
        SRCCOLOR 27
        VELLANE 132 128 60
        COLORMAP "C:\Users\AJFOne23\AppData\Roaming\REAPER\Data\color_maps\rockband_vox-other.png"
        BANKPROGRAMFILE "C:\Users\AJFOne23\AppData\Roaming\REAPER/Data/GM.reabank"
        TEXTSTRINGFILE "C:\Program Files\REAPER\Data\Text_Strings\Text Events List.txt"
        CFGEDITVIEW -2978.035058 68.662724 0 12 0 0 0
        CFGEDIT 1 1 0 1 1 1 1 1 1 1 1 0.06250000 -8 -8 1374 736 1 2 1 2 0.00000000 0 0 0 0 0.500000 1 0 1.000000 64
        KEYSNAP 0 0 "102034050607" 0 "Major"
        EVTFILTER 0 -1 -1 -1 -1 0 1 0 0 -1.00000000 -1.00000000
      >
    >
  >
  <TRACK '{4BCC1CF3-63A3-43C4-A155-D3593AD88A10}'
    NAME "EVENTS"
    PEAKCOL 29393024
    BEAT -1
    AUTOMODE 0
    VOLPAN 1.00000000000000 0.00000000000000 -1.00000000000000 -1.00000000000000 1.00000000000000
    MUTESOLO 0 0 0
    IPHASE 0
    ISBUS 1 1
    BUSCOMP 0 0
    SHOWINMIX 1 0.666700 0.500000 1 0.500000 -1 -1 -1
    FREEMODE 0
    SEL 0
    REC 0 0 0 0 0 0 0
    TRACKHEIGHT 0 0
    INQ 0 0 0 0.5000000000 100 0 0 100
    NCHAN 2
    FX 1
    TRACKID {4BCC1CF3-63A3-43C4-A155-D3593AD88A10}
    PERF 0
    MIDIOUT -1
    MAINSEND 1 0
    <FXCHAIN
      SHOW 0
      LASTSEL 0
      DOCKED 0
    >
    <ITEM
      POSITION 0.00000000000000
      SNAPOFFS 0.00000000000000
      LENGTH 187.82023574328986
      LOOP 0
      ALLTAKES 0
      SEL 0
      FADEIN 1 0.000000 0.000000 1 0
      FADEOUT 1 0.000000 0.000000 1 0
      MUTE 0
      IGUID {86A06D27-867C-4398-9CE6-8F0526B3B594}
      IID 4
      NAME "EVENTS"
      VOLPAN 1.000000 0.000000 1.000000 -1.000000
      SOFFS 0.00000000000000 0.00000000000000
      PLAYRATE 1.00000000000000 1 0.00000000000000 -65536
      CHANMODE 0
      GUID {584C8192-4FF3-4E29-8138-2E6BD568B61A}
      <SOURCE MIDI
        HASDATA 1 480 QN
        POOLEDEVTS {B29892CF-674E-4145-874B-4590AB276F2B}
        <X 0 0
          /wNFVkVOVFM=
        >
        <X 0 0
          /wFbY3Jvd2Rfbm9ybWFsXQ==
        >
        <X 0 0
          /wFbcHJjX2ludHJvXQ==
        >
        <X 3840 0
          /wFbbXVzaWNfc3RhcnRd
        >
        <X 14880 0
          /wFbcHJjX3ZlcnNlXzFhXQ==
        >
        <X 15360 0
          /wFbcHJjX3ZlcnNlXzFiXQ==
        >
        <X 23040 0
          /wFbcHJjX2JyaWRnZV9hXQ==
        >
        <X 7680 0
          /wFbcHJjX3ZlcnNlXzJhXQ==
        >
        <X 23040 0
          /wFbcHJjX3ZlcnNlXzJiXQ==
        >
        <X 15360 0
          /wFbcHJjX2Nob3J1c18xYV0=
        >
        <X 10080 0
          /wFbcHJjX2d0cl9zb2xvXQ==
        >
        <X 8160 0
          /wFbcHJjX3ZlcnNlXzNhXQ==
        >
        <X 15360 0
          /wFbcHJjX3ZlcnNlXzNiXQ==
        >
        <X 9600 0
          /wFbcHJjX3ZlcnNlXzNjXQ==
        >
        <X 15360 0
          /wFbcHJjX2Nob3J1c18yYV0=
        >
        <X 21600 0
          /wFbcHJjX291dHJvXQ==
        >
        <X 5760 0
          /wFbbXVzaWNfZW5kXQ==
        >
        <X 1920 0
          /wFbZW5kXQ==
        >
        E 960 b0 7b 00
        GUID {40AD7956-A22A-434A-8513-4D3792B9DF69}
        IGNTEMPO 0 120.00000000 4 4
        SRCCOLOR 22
        VELLANE 132 100 100
        COLORMAP "C:\Users\AJFOne23\AppData\Roaming\REAPER\Data\color_maps\rockband_vox-other.png"
        BANKPROGRAMFILE "C:\Users\AJFOne23\AppData\Roaming\REAPER/Data/GM.reabank"
        TEXTSTRINGFILE "Text Events List.txt"
        CFGEDITVIEW 182692.934103 118.649188 6 48 0 0 0
        CFGEDIT 1 1 0 0 0 1 1 1 1 1 1 1.00000000 44 63 1223 847 1 2 1 2 0.00000000 0 0 0 0 0.500000 1 0 1.000000 64
        KEYSNAP 0 0 "102034050607" 0 "Major"
        EVTFILTER 0 -1 -1 -1 -1 0 1 0 0 -1.00000000 -1.00000000
      >
    >
  >
  <TRACK '{1529008F-97D2-43EB-8634-7C5A7418AD90}'
    NAME "VENUE"
    PEAKCOL 16842496
    BEAT -1
    AUTOMODE 0
    VOLPAN 1.00000000000000 0.00000000000000 -1.00000000000000 -1.00000000000000 1.00000000000000
    MUTESOLO 0 0 0
    IPHASE 0
    ISBUS 0 0
    BUSCOMP 0 0
    SHOWINMIX 1 0.666700 0.500000 1 0.500000 -1 -1 -1
    FREEMODE 0
    SEL 0
    REC 0 0 0 0 0 0 0
    TRACKHEIGHT 0 0
    INQ 0 0 0 0.5000000000 100 0 0 100
    NCHAN 2
    FX 1
    TRACKID {1529008F-97D2-43EB-8634-7C5A7418AD90}
    PERF 0
    MIDIOUT -1
    <MIDINOTENAMES
      0 87 "Guitarist Sing Along"
      0 86 "Drummer Sing Along"
      0 85 "Bassist Sing Along"
      0 40 "Spotlight on Vocals"
      0 39 "Spotlight on Guitar"
      0 38 "Spotlight on Drums"
      0 37 "Spotlight on Bass"
      0 41 "Spotlight on Keys"
    >
    MAINSEND 1 0
    <FXCHAIN
      SHOW 0
      LASTSEL 0
      DOCKED 0
    >
    <ITEM
      POSITION 0.00000000000000
      SNAPOFFS 0.00000000000000
      LENGTH 187.82023574328986
      LOOP 0
      ALLTAKES 0
      SEL 0
      FADEIN 1 0.000000 0.000000 1 0
      FADEOUT 1 0.000000 0.000000 1 0
      MUTE 0
      IGUID {71027329-E0AB-447D-A192-4839733334E7}
      IID 5
      NAME "VENUE"
      VOLPAN 1.000000 0.000000 1.000000 -1.000000
      SOFFS 0.00000000000000 0.00000000000000
      PLAYRATE 1.00000000000000 1 0.00000000000000 -65536
      CHANMODE 0
      GUID {44F0FFD1-5109-4A47-8BED-262AA04D3B23}
      <SOURCE MIDI
        HASDATA 1 480 QN
        POOLEDEVTS {3A03C391-E2ED-47CE-A403-96537B1B1EB6}
        <X 0 0
          /wNWRU5VRQ==
        >
        <X 0 0
          /wFbbGlnaHRpbmcgKCld
        >
        E 192000 b0 7b 00
        GUID {30097062-47C5-4B33-B665-170EF09D70D9}
        IGNTEMPO 0 120.00000000 4 4
        SRCCOLOR 23
        VELLANE 132 230 230
        COLORMAP "C:\Users\AJFOne23\AppData\Roaming\REAPER\Data\color_maps\rockband_vox-other.png"
        BANKPROGRAMFILE "C:\Users\AJFOne23\AppData\Roaming\REAPER/Data/GM.reabank"
        TEXTSTRINGFILE "Text Events List.txt"
        CFGEDITVIEW -2978.035058 68.662724 79 12 0 0 0
        CFGEDIT 1 1 0 0 0 1 1 1 1 1 1 0.25000000 133 19 1300 803 1 0 1 2 0.00000000 0 0 0 0 0.500000 1 0 1.000000 64
        KEYSNAP 0 0 "102034050607" 0 "Major"
        EVTFILTER 0 -1 -1 -1 -1 0 1 0 0 -1.00000000 -1.00000000
      >
    >
  >
  <TRACK '{7BC63EFC-0ABC-4D0D-8204-E9893AE9FFFA}'
    NAME "BEAT"
    PEAKCOL 23514346
    BEAT -1
    AUTOMODE 0
    VOLPAN 1.00000000000000 0.00000000000000 -1.00000000000000 -1.00000000000000 1.00000000000000
    MUTESOLO 0 0 0
    IPHASE 0
    ISBUS 2 -1
    BUSCOMP 1 0
    SHOWINMIX 1 0.666700 0.500000 1 0.500000 -1 -1 -1
    FREEMODE 0
    SEL 0
    REC 0 0 0 0 0 0 0
    TRACKHEIGHT 0 0
    INQ 0 0 0 0.5000000000 100 0 0 100
    NCHAN 2
    FX 1
    TRACKID {7BC63EFC-0ABC-4D0D-8204-E9893AE9FFFA}
    PERF 0
    MIDIOUT -1
    <MIDINOTENAMES
      0 12 "Downbeat"
      0 13 "Up Beats"
    >
    MAINSEND 1 0
    <FXCHAIN
      SHOW 0
      LASTSEL 0
      DOCKED 0
    >
    <ITEM
      POSITION 0.00000000000000
      SNAPOFFS 0.00000000000000
      LENGTH 187.82023574328986
      LOOP 0
      ALLTAKES 0
      SEL 0
      FADEIN 1 0.000000 0.000000 1 0
      FADEOUT 1 0.000000 0.000000 1 0
      MUTE 0
      IGUID {9960CDFD-BF2E-4E67-97CD-4F13D0A3F2ED}
      IID 6
      NAME "BEAT"
      VOLPAN 1.000000 0.000000 1.000000 -1.000000
      SOFFS 0.00000000000000 0.00000000000000
      PLAYRATE 1.00000000000000 1 0.00000000000000 -65536
      CHANMODE 0
      GUID {CEBFDCF1-B2BD-47E1-A085-C26E1C9E9ED2}
      <SOURCE MIDI
        HASDATA 1 480 QN
        POOLEDEVTS {50655717-845C-4D54-95F0-1B38AC41AF0E}
        <X 0 0
          /wNCRUFU
        >
        e 0 96 0c 64
        e 120 86 0c 00
        e 360 96 0d 64
        e 120 86 0d 00
        e 360 96 0d 64
        e 120 86 0d 00
        e 360 96 0d 64
        e 120 86 0d 00
        e 360 96 0c 64
        e 120 86 0c 00
        e 360 96 0d 64
        e 120 86 0d 00
        e 360 96 0d 64
        e 120 86 0d 00
        e 360 96 0d 64
        e 120 86 0d 00
        e 360 96 0c 64
        e 120 86 0c 00
        e 360 96 0d 64
        e 120 86 0d 00
        e 360 96 0d 64
        e 120 86 0d 00
        e 360 96 0d 64
        e 120 86 0d 00
        e 360 96 0c 64
        e 120 86 0c 00
        e 360 96 0d 64
        e 120 86 0d 00
        e 360 96 0d 64
        e 120 86 0d 00
        e 360 96 0d 64
        e 120 86 0d 00
        e 360 96 0c 64
        e 120 86 0c 00
        e 360 96 0d 64
        e 120 86 0d 00
        e 360 96 0d 64
        e 120 86 0d 00
        e 360 96 0d 64
        e 120 86 0d 00
        e 360 96 0c 64
        e 120 86 0c 00
        e 360 96 0d 64
        e 120 86 0d 00
        e 360 96 0d 64
        e 120 86 0d 00
        e 360 96 0d 64
        e 120 86 0d 00
        e 360 96 0c 64
        e 120 86 0c 00
        e 360 96 0d 64
        e 120 86 0d 00
        e 360 96 0d 64
        e 120 86 0d 00
        e 360 96 0d 64
        e 120 86 0d 00
        e 360 96 0c 64
        e 120 86 0c 00
        e 360 96 0d 64
        e 120 86 0d 00
        e 360 96 0d 64
        e 120 86 0d 00
        e 360 96 0d 64
        e 120 86 0d 00
        e 360 96 0c 64
        e 120 86 0c 00
        e 360 96 0d 64
        e 120 86 0d 00
        e 360 96 0d 64
        e 120 86 0d 00
        e 360 96 0d 64
        e 120 86 0d 00
        e 360 96 0c 64
        e 120 86 0c 00
        e 360 96 0d 64
        e 120 86 0d 00
        e 360 96 0d 64
        e 120 86 0d 00
        e 360 96 0d 64
        e 120 86 0d 00
        e 360 96 0c 64
        e 120 86 0c 00
        e 360 96 0d 64
        e 120 86 0d 00
        e 360 96 0d 64
        e 120 86 0d 00
        e 360 96 0d 64
        e 120 86 0d 00
        e 360 96 0c 64
        e 120 86 0c 00
        e 360 96 0d 64
        e 120 86 0d 00
        e 360 96 0d 64
        e 120 86 0d 00
        e 360 96 0d 64
        e 120 86 0d 00
        e 360 96 0c 64
        e 120 86 0c 00
        e 360 96 0d 64
        e 120 86 0d 00
        e 360 96 0d 64
        e 120 86 0d 00
        e 360 96 0d 64
        e 120 86 0d 00
        e 360 96 0c 64
        e 120 86 0c 00
        e 360 96 0d 64
        e 120 86 0d 00
        e 360 96 0d 64
        e 120 86 0d 00
        e 360 96 0d 64
        e 120 86 0d 00
        e 360 96 0c 64
        e 120 86 0c 00
        e 360 96 0d 64
        e 120 86 0d 00
        e 360 96 0d 64
        e 120 86 0d 00
        e 360 96 0d 64
        e 120 86 0d 00
        e 360 96 0c 64
        e 120 86 0c 00
        e 360 96 0d 64
        e 120 86 0d 00
        e 360 96 0d 64
        e 120 86 0d 00
        e 360 96 0d 64
        e 120 86 0d 00
        e 360 96 0c 64
        e 120 86 0c 00
        e 360 96 0d 64
        e 120 86 0d 00
        e 360 96 0d 64
        e 120 86 0d 00
        e 360 96 0d 64
        e 120 86 0d 00
        e 360 96 0c 64
        e 120 86 0c 00
        e 360 96 0d 64
        e 120 86 0d 00
        e 360 96 0d 64
        e 120 86 0d 00
        e 360 96 0d 64
        e 120 86 0d 00
        e 360 96 0c 64
        e 120 86 0c 00
        e 360 96 0d 64
        e 120 86 0d 00
        e 360 96 0d 64
        e 120 86 0d 00
        e 360 96 0d 64
        e 120 86 0d 00
        e 360 96 0c 64
        e 120 86 0c 00
        e 360 96 0d 64
        e 120 86 0d 00
        e 360 96 0d 64
        e 120 86 0d 00
        e 360 96 0d 64
        e 120 86 0d 00
        e 360 96 0c 64
        e 120 86 0c 00
        e 360 96 0d 64
        e 120 86 0d 00
        e 360 96 0d 64
        e 120 86 0d 00
        e 360 96 0d 64
        e 120 86 0d 00
        e 360 96 0c 64
        e 120 86 0c 00
        e 360 96 0d 64
        e 120 86 0d 00
        e 360 96 0d 64
        e 120 86 0d 00
        e 360 96 0d 64
        e 120 86 0d 00
        e 360 96 0c 64
        e 120 86 0c 00
        e 360 96 0d 64
        e 120 86 0d 00
        e 360 96 0d 64
        e 120 86 0d 00
        e 360 96 0d 64
        e 120 86 0d 00
        e 360 96 0c 64
        e 120 86 0c 00
        e 360 96 0d 64
        e 120 86 0d 00
        e 360 96 0d 64
        e 120 86 0d 00
        e 360 96 0d 64
        e 120 86 0d 00
        e 360 96 0c 64
        e 120 86 0c 00
        e 360 96 0d 64
        e 120 86 0d 00
        e 360 96 0d 64
        e 120 86 0d 00
        e 360 96 0d 64
        e 120 86 0d 00
        e 360 96 0c 64
        e 120 86 0c 00
        e 360 96 0d 64
        e 120 86 0d 00
        e 360 96 0d 64
        e 120 86 0d 00
        e 360 96 0d 64
        e 120 86 0d 00
        e 360 96 0c 64
        e 120 86 0c 00
        e 360 96 0d 64
        e 120 86 0d 00
        e 360 96 0d 64
        e 120 86 0d 00
        e 360 96 0d 64
        e 120 86 0d 00
        e 360 96 0c 64
        e 120 86 0c 00
        e 360 96 0d 64
        e 120 86 0d 00
        e 360 96 0d 64
        e 120 86 0d 00
        e 360 96 0d 64
        e 120 86 0d 00
        e 360 96 0c 64
        e 120 86 0c 00
        e 360 96 0d 64
        e 120 86 0d 00
        e 360 96 0d 64
        e 120 86 0d 00
        e 360 96 0d 64
        e 120 86 0d 00
        e 360 96 0c 64
        e 120 86 0c 00
        e 360 96 0d 64
        e 120 86 0d 00
        e 360 96 0d 64
        e 120 86 0d 00
        e 360 96 0d 64
        e 120 86 0d 00
        e 360 96 0c 64
        e 120 86 0c 00
        e 360 96 0d 64
        e 120 86 0d 00
        e 360 96 0d 64
        e 120 86 0d 00
        e 360 96 0d 64
        e 120 86 0d 00
        e 360 96 0c 64
        e 120 86 0c 00
        e 360 96 0d 64
        e 120 86 0d 00
        e 360 96 0d 64
        e 120 86 0d 00
        e 360 96 0d 64
        e 120 86 0d 00
        e 360 96 0c 64
        e 120 86 0c 00
        e 360 96 0d 64
        e 120 86 0d 00
        e 360 96 0d 64
        e 120 86 0d 00
        e 360 96 0d 64
        e 120 86 0d 00
        e 360 96 0c 64
        e 120 86 0c 00
        e 360 96 0d 64
        e 120 86 0d 00
        e 360 96 0d 64
        e 120 86 0d 00
        e 360 96 0d 64
        e 120 86 0d 00
        e 360 96 0c 64
        e 120 86 0c 00
        e 360 96 0d 64
        e 120 86 0d 00
        e 360 96 0d 64
        e 120 86 0d 00
        e 360 96 0d 64
        e 120 86 0d 00
        e 360 96 0c 64
        e 120 86 0c 00
        e 360 96 0d 64
        e 120 86 0d 00
        e 360 96 0d 64
        e 120 86 0d 00
        e 360 96 0d 64
        e 120 86 0d 00
        e 360 96 0c 64
        e 120 86 0c 00
        e 360 96 0d 64
        e 120 86 0d 00
        e 360 96 0d 64
        e 120 86 0d 00
        e 360 96 0d 64
        e 120 86 0d 00
        e 360 96 0c 64
        e 120 86 0c 00
        e 360 96 0d 64
        e 120 86 0d 00
        e 360 96 0d 64
        e 120 86 0d 00
        e 360 96 0d 64
        e 120 86 0d 00
        e 360 96 0c 64
        e 120 86 0c 00
        e 360 96 0d 64
        e 120 86 0d 00
        e 360 96 0d 64
        e 120 86 0d 00
        e 360 96 0d 64
        e 120 86 0d 00
        e 360 96 0c 64
        e 120 86 0c 00
        e 360 96 0d 64
        e 120 86 0d 00
        e 360 96 0d 64
        e 120 86 0d 00
        e 360 96 0d 64
        e 120 86 0d 00
        e 360 96 0c 64
        e 120 86 0c 00
        e 360 96 0d 64
        e 120 86 0d 00
        e 360 96 0d 64
        e 120 86 0d 00
        e 360 96 0d 64
        e 120 86 0d 00
        e 360 96 0c 64
        e 120 86 0c 00
        e 360 96 0d 64
        e 120 86 0d 00
        e 360 96 0d 64
        e 120 86 0d 00
        e 360 96 0d 64
        e 120 86 0d 00
        e 360 96 0c 64
        e 120 86 0c 00
        e 360 96 0d 64
        e 120 86 0d 00
        e 360 96 0d 64
        e 120 86 0d 00
        e 360 96 0d 64
        e 120 86 0d 00
        e 360 96 0c 64
        e 120 86 0c 00
        e 360 96 0d 64
        e 120 86 0d 00
        e 360 96 0d 64
        e 120 86 0d 00
        e 360 96 0d 64
        e 120 86 0d 00
        e 360 96 0c 64
        e 120 86 0c 00
        e 360 96 0d 64
        e 120 86 0d 00
        e 360 96 0d 64
        e 120 86 0d 00
        e 360 96 0d 64
        e 120 86 0d 00
        e 360 96 0c 64
        e 120 86 0c 00
        e 360 96 0d 64
        e 120 86 0d 00
        e 360 96 0d 64
        e 120 86 0d 00
        e 360 96 0d 64
        e 120 86 0d 00
        e 360 96 0c 64
        e 120 86 0c 00
        e 360 96 0d 64
        e 120 86 0d 00
        e 360 96 0d 64
        e 120 86 0d 00
        e 360 96 0d 64
        e 120 86 0d 00
        e 360 96 0c 64
        e 120 86 0c 00
        e 360 96 0d 64
        e 120 86 0d 00
        e 360 96 0d 64
        e 120 86 0d 00
        e 360 96 0d 64
        e 120 86 0d 00
        e 360 96 0c 64
        e 120 86 0c 00
        e 360 96 0d 64
        e 120 86 0d 00
        e 360 96 0d 64
        e 120 86 0d 00
        e 360 96 0d 64
        e 120 86 0d 00
        e 360 96 0c 64
        e 120 86 0c 00
        e 360 96 0d 64
        e 120 86 0d 00
        e 360 96 0d 64
        e 120 86 0d 00
        e 360 96 0d 64
        e 120 86 0d 00
        e 360 96 0c 64
        e 120 86 0c 00
        e 360 96 0d 64
        e 120 86 0d 00
        e 360 96 0d 64
        e 120 86 0d 00
        e 360 96 0d 64
        e 120 86 0d 00
        e 360 96 0c 64
        e 120 86 0c 00
        e 360 96 0d 64
        e 120 86 0d 00
        e 360 96 0d 64
        e 120 86 0d 00
        e 360 96 0d 64
        e 120 86 0d 00
        e 360 96 0c 64
        e 120 86 0c 00
        e 360 96 0d 64
        e 120 86 0d 00
        e 360 96 0d 64
        e 120 86 0d 00
        e 360 96 0d 64
        e 120 86 0d 00
        e 360 96 0c 64
        e 120 86 0c 00
        e 360 96 0d 64
        e 120 86 0d 00
        e 360 96 0d 64
        e 120 86 0d 00
        e 360 96 0d 64
        e 120 86 0d 00
        e 360 96 0c 64
        e 120 86 0c 00
        e 360 96 0d 64
        e 120 86 0d 00
        e 360 96 0d 64
        e 120 86 0d 00
        e 360 96 0d 64
        e 120 86 0d 00
        e 360 96 0c 64
        e 120 86 0c 00
        e 360 96 0d 64
        e 120 86 0d 00
        e 360 96 0d 64
        e 120 86 0d 00
        e 360 96 0d 64
        e 120 86 0d 00
        e 360 96 0c 64
        e 120 86 0c 00
        e 360 96 0d 64
        e 120 86 0d 00
        e 360 96 0d 64
        e 120 86 0d 00
        e 360 96 0d 64
        e 120 86 0d 00
        e 360 96 0c 64
        e 120 86 0c 00
        e 360 96 0d 64
        e 120 86 0d 00
        e 360 96 0d 64
        e 120 86 0d 00
        e 360 96 0d 64
        e 120 86 0d 00
        e 360 96 0c 64
        e 120 86 0c 00
        e 360 96 0d 64
        e 120 86 0d 00
        e 360 96 0d 64
        e 120 86 0d 00
        e 360 96 0d 64
        e 120 86 0d 00
        e 360 96 0c 64
        e 120 86 0c 00
        e 360 96 0d 64
        e 120 86 0d 00
        e 360 96 0d 64
        e 120 86 0d 00
        e 360 96 0d 64
        e 120 86 0d 00
        e 360 96 0c 64
        e 120 86 0c 00
        e 360 96 0d 64
        e 120 86 0d 00
        e 360 96 0d 64
        e 120 86 0d 00
        e 360 96 0d 64
        e 120 86 0d 00
        e 360 96 0c 64
        e 120 86 0c 00
        e 360 96 0d 64
        e 120 86 0d 00
        e 360 96 0d 64
        e 120 86 0d 00
        e 360 96 0d 64
        e 120 86 0d 00
        e 360 96 0c 64
        e 120 86 0c 00
        e 360 96 0d 64
        e 120 86 0d 00
        e 360 96 0d 64
        e 120 86 0d 00
        e 360 96 0d 64
        e 120 86 0d 00
        e 360 96 0c 64
        e 120 86 0c 00
        e 360 96 0d 64
        e 120 86 0d 00
        e 360 96 0d 64
        e 120 86 0d 00
        e 360 96 0d 64
        e 120 86 0d 00
        e 360 96 0c 64
        e 120 86 0c 00
        e 360 96 0d 64
        e 120 86 0d 00
        e 360 96 0d 64
        e 120 86 0d 00
        e 360 96 0d 64
        e 120 86 0d 00
        e 360 96 0c 64
        e 120 86 0c 00
        e 360 96 0d 64
        e 120 86 0d 00
        e 360 96 0d 64
        e 120 86 0d 00
        e 360 96 0d 64
        e 120 86 0d 00
        e 360 96 0c 64
        e 120 86 0c 00
        e 360 96 0d 64
        e 120 86 0d 00
        e 360 96 0d 64
        e 120 86 0d 00
        e 360 96 0d 64
        e 120 86 0d 00
        e 360 96 0c 64
        e 120 86 0c 00
        e 360 96 0d 64
        e 120 86 0d 00
        e 360 96 0d 64
        e 120 86 0d 00
        e 360 96 0d 64
        e 120 86 0d 00
        e 360 96 0c 64
        e 120 86 0c 00
        e 360 96 0d 64
        e 120 86 0d 00
        e 360 96 0d 64
        e 120 86 0d 00
        e 360 96 0d 64
        e 120 86 0d 00
        e 360 96 0c 64
        e 120 86 0c 00
        e 360 96 0d 64
        e 120 86 0d 00
        e 360 96 0d 64
        e 120 86 0d 00
        e 360 96 0d 64
        e 120 86 0d 00
        e 360 96 0c 64
        e 120 86 0c 00
        e 360 96 0d 64
        e 120 86 0d 00
        e 360 96 0d 64
        e 120 86 0d 00
        e 360 96 0d 64
        e 120 86 0d 00
        e 360 96 0c 64
        e 120 86 0c 00
        e 360 96 0d 64
        e 120 86 0d 00
        e 360 96 0d 64
        e 120 86 0d 00
        e 360 96 0d 64
        e 120 86 0d 00
        e 360 96 0c 64
        e 120 86 0c 00
        e 360 96 0d 64
        e 120 86 0d 00
        e 360 96 0d 64
        e 120 86 0d 00
        e 360 96 0d 64
        e 120 86 0d 00
        e 360 96 0c 64
        e 120 86 0c 00
        e 360 96 0d 64
        e 120 86 0d 00
        e 360 96 0d 64
        e 120 86 0d 00
        e 360 96 0d 64
        e 120 86 0d 00
        e 360 96 0c 64
        e 120 86 0c 00
        e 360 96 0d 64
        e 120 86 0d 00
        e 360 96 0d 64
        e 120 86 0d 00
        e 360 96 0d 64
        e 120 86 0d 00
        e 360 96 0c 64
        e 120 86 0c 00
        e 360 96 0d 64
        e 120 86 0d 00
        e 360 96 0d 64
        e 120 86 0d 00
        e 360 96 0d 64
        e 120 86 0d 00
        e 360 96 0c 64
        e 120 86 0c 00
        e 360 96 0d 64
        e 120 86 0d 00
        e 360 96 0d 64
        e 120 86 0d 00
        e 360 96 0d 64
        e 120 86 0d 00
        e 360 96 0c 64
        e 120 86 0c 00
        e 360 96 0d 64
        e 120 86 0d 00
        e 360 96 0d 64
        e 120 86 0d 00
        e 360 96 0d 64
        e 120 86 0d 00
        e 360 96 0c 64
        e 120 86 0c 00
        e 360 96 0d 64
        e 120 86 0d 00
        e 360 96 0d 64
        e 120 86 0d 00
        e 360 96 0d 64
        e 120 86 0d 00
        e 360 96 0c 64
        e 120 86 0c 00
        e 360 96 0d 64
        e 120 86 0d 00
        e 360 96 0d 64
        e 120 86 0d 00
        e 360 96 0d 64
        e 120 86 0d 00
        e 360 96 0c 64
        e 120 86 0c 00
        e 360 96 0d 64
        e 120 86 0d 00
        e 360 96 0d 64
        e 120 86 0d 00
        e 360 96 0d 64
        e 120 86 0d 00
        e 360 96 0c 64
        e 120 86 0c 00
        e 360 96 0d 64
        e 120 86 0d 00
        e 360 96 0d 64
        e 120 86 0d 00
        e 360 96 0d 64
        e 120 86 0d 00
        e 360 96 0c 64
        e 120 86 0c 00
        e 360 96 0d 64
        e 120 86 0d 00
        e 360 96 0d 64
        e 120 86 0d 00
        e 360 96 0d 64
        e 120 86 0d 00
        e 360 96 0c 64
        e 120 86 0c 00
        e 360 96 0d 64
        e 120 86 0d 00
        e 360 96 0d 64
        e 120 86 0d 00
        e 360 96 0d 64
        e 120 86 0d 00
        e 360 96 0c 64
        e 120 86 0c 00
        e 360 96 0d 64
        e 120 86 0d 00
        e 360 96 0d 64
        e 120 86 0d 00
        e 360 96 0d 64
        e 120 86 0d 00
        e 360 96 0c 64
        e 120 86 0c 00
        e 360 96 0d 64
        e 120 86 0d 00
        e 360 96 0d 64
        e 120 86 0d 00
        e 360 96 0d 64
        e 120 86 0d 00
        e 360 96 0c 64
        e 120 86 0c 00
        e 360 96 0d 64
        e 120 86 0d 00
        e 360 96 0d 64
        e 120 86 0d 00
        e 360 96 0d 64
        e 120 86 0d 00
        e 360 96 0c 64
        e 120 86 0c 00
        e 360 96 0d 64
        e 120 86 0d 00
        e 360 96 0d 64
        e 120 86 0d 00
        e 360 96 0d 64
        e 120 86 0d 00
        e 360 96 0c 64
        e 120 86 0c 00
        e 360 96 0d 64
        e 120 86 0d 00
        e 360 96 0d 64
        e 120 86 0d 00
        e 360 96 0d 64
        e 120 86 0d 00
        e 360 96 0c 64
        e 120 86 0c 00
        e 360 96 0d 64
        e 120 86 0d 00
        e 360 96 0d 64
        e 120 86 0d 00
        e 360 96 0d 64
        e 120 86 0d 00
        e 360 96 0c 64
        e 120 86 0c 00
        e 360 96 0d 64
        e 120 86 0d 00
        e 360 96 0d 64
        e 120 86 0d 00
        e 360 96 0d 64
        e 120 86 0d 00
        e 360 96 0c 64
        e 120 86 0c 00
        e 360 96 0d 64
        e 120 86 0d 00
        e 360 96 0d 64
        e 120 86 0d 00
        e 360 96 0d 64
        e 120 86 0d 00
        e 360 96 0c 64
        e 120 86 0c 00
        e 360 96 0d 64
        e 120 86 0d 00
        e 360 96 0d 64
        e 120 86 0d 00
        e 360 96 0d 64
        e 120 86 0d 00
        e 360 96 0c 64
        e 120 86 0c 00
        e 360 96 0d 64
        e 120 86 0d 00
        e 360 96 0d 64
        e 120 86 0d 00
        e 360 96 0d 64
        e 120 86 0d 00
        e 360 96 0c 64
        e 120 86 0c 00
        e 360 96 0d 64
        e 120 86 0d 00
        e 360 96 0d 64
        e 120 86 0d 00
        e 360 96 0d 64
        e 120 86 0d 00
        e 360 96 0c 64
        e 120 86 0c 00
        e 360 96 0d 64
        e 120 86 0d 00
        e 360 96 0d 64
        e 120 86 0d 00
        e 360 96 0d 64
        e 120 86 0d 00
        e 360 96 0c 64
        e 120 86 0c 00
        e 360 96 0d 64
        e 120 86 0d 00
        e 360 96 0d 64
        e 120 86 0d 00
        e 360 96 0d 64
        e 120 86 0d 00
        e 360 96 0c 64
        e 120 86 0c 00
        e 360 96 0d 64
        e 120 86 0d 00
        e 360 96 0d 64
        e 120 86 0d 00
        e 360 96 0d 64
        e 120 86 0d 00
        e 360 96 0c 64
        e 120 86 0c 00
        e 360 96 0d 64
        e 120 86 0d 00
        e 360 96 0d 64
        e 120 86 0d 00
        e 360 96 0d 64
        e 120 86 0d 00
        e 360 96 0c 64
        e 120 86 0c 00
        e 360 96 0d 64
        e 120 86 0d 00
        E 1320 b0 7b 00
        GUID {8CB930E8-B6A0-4CAD-825A-9F47FB66C1D0}
        IGNTEMPO 0 120.00000000 4 4
        SRCCOLOR 24
        VELLANE 132 100 100
        COLORMAP "C:\Users\AJFOne23\AppData\Roaming\REAPER\Data\color_maps\rockband_vox-other.png"
        BANKPROGRAMFILE "C:\Users\AJFOne23\AppData\Roaming\REAPER/Data/GM.reabank"
        TEXTSTRINGFILE "Text Events List.txt"
        CFGEDITVIEW 182692.934103 118.649188 0 48 0 0 0
        CFGEDIT 1 1 0 0 0 1 1 1 1 1 1 1.00000000 44 63 1223 847 1 2 1 2 0.00000000 0 0 0 0 0.500000 1 0 1.000000 64
        KEYSNAP 0 0 "102034050607" 0 "Major"
        EVTFILTER 0 -1 -1 -1 -1 0 1 0 0 -1.00000000 -1.00000000
      >
    >
  >
>
