<REAPER_PROJECT 0.1 "5.17/OSX64" 1463897234
  RIPPLE 0
  GROUPOVERRIDE 0 0 0
  AUTOXFADE 1
  ENVATTACH 1
  MIXERUIFLAGS 11 48
  PEAKGAIN 1
  FEEDBACK 0
  PANLAW 1
  PROJOFFS 0 0
  MAXPROJLEN 0 600
  GRID 1151 8 1 8 1 0 0
  TIMEMODE 1 0 -1 24 2
  CURSOR 185.32204861589301
  ZOOM 3.8279475948472 102 0
  VZOOMEX 0
  USE_REC_CFG 0
  RECMODE 1
  SMPTESYNC 0 30 100 40 1000 300 0 0 0
  LOOP 0
  LOOPGRAN 0 4
  RECORD_PATH "" ""
  <RECORD_CFG
    ZXZhdxgA
  >
  <APPLYFX_CFG
  >
  RENDER_FILE "C:\Users\AJFOne23\Downloads\RB3\Metal\Mastodon\2011 The Hunter\Black Tongue/Black Tongue-FINAL.wav"
  RENDER_FMT 0 2 44100
  RENDER_1X 0
  RENDER_RANGE 1 0 0 18 1000
  RENDER_RESAMPLE 3 0 1
  RENDER_ADDTOPROJ 0
  RENDER_STEMS 0
  RENDER_DITHER 0
  TIMELOCKMODE 0
  TEMPOENVLOCKMODE 1
  ITEMMIX 0
  DEFPITCHMODE 0
  TAKELANE 1
  SAMPLERATE 44100 0 0
  <RENDER_CFG
    ZXZhdxAA
  >
  LOCK 1
  <METRONOME 7 2
    VOL 0.752735 0.723913
    FREQ 800 1600 0
    BEATLEN 4
    SAMPLES "" ""
    PATTERN 2863311530 2863311529
  >
  GLOBAL_AUTO -1
  TEMPO 120 4 4
  PLAYRATE 1 1 0.25 4
  SELECTION 0 0
  SELECTION2 0 0
  MASTERAUTOMODE 0
  MASTERTRACKHEIGHT 0
  MASTERPEAKCOL 16576
  MASTERMUTESOLO 0
  MASTERTRACKVIEW 1 0.6667 0.5 0.5 0 0 0
  MASTERHWOUT 0 0 1 0 0 0 0 -1
  MASTER_NCH 2 2
  MASTER_VOLUME 1 0 -1 -1 1
  MASTER_FX 1
  MASTER_SEL 0
  <MASTERFXLIST
    SHOW 0
    LASTSEL 0
    DOCKED 0
    BYPASS 0 0 0
    <VST "VST: W1 Limiter (George Yohng)" "George Yohng's W1 Limiter.dll" 0 "" ""
      THdGNO5e7f4CAAAAAQAAAAAAAAACAAAAAAAAAAIAAAABAAAAAAAAAAIAAAAAAAAA8AAAAAEAAAAAABAAFQAAAP//////////AgAAABUAAAAAAAAASCYAAAD/////////
      /wwAAAAmAAAAAAAAAHlvaG5nLXcxbGltaXRlci0xACQAAAD//////////wYAAAAkAAAAAAAAAAAAAADMT3I/AAAAAAAAAAAkAAAA//////////8GAAAAJAAAAAAAAAAB
      AAAAzE9yPwAAAAAAAAAAJAAAAP//////////BgAAACQAAAAAAAAAAgAAAM3MTD4AAAAAAAAAABgAAAD//////////woAAAAYAAAAAAAAAAAAAAAVAAAA//////////8D
      AAAAFQAAAAAAAAAA
    >
    FLOATPOS 24 24 481 152
    FXID {69D45D23-FE06-4141-B0BB-1A6D9443AFA8}
    WAK 0
  >
  <MASTERPLAYSPEEDENV
    ACT 0
    VIS 0 1 1
    LANEHEIGHT 0 0
    ARM 0
    DEFSHAPE 0 -1 -1
  >
  <TEMPOENVEX
    ACT 1
    VIS 1 0 1
    LANEHEIGHT 0 0
    ARM 0
    DEFSHAPE 1 -1 -1
    PT 0.000000000000 120.0000000000 1 0 1
    PT 6.500000000000 95.0000000000 1
    PT 8.394736842105 98.0000000000 1
    PT 9.006981740064 101.0000000000 1
    PT 9.601041146005 102.0000000000 1
    PT 10.189276440123 97.5000000000 1
    PT 10.804661055507 101.0000000000 1
    PT 11.398720461448 97.0000000000 1
    PT 12.635833863510 93.5000000000 1
    PT 13.919256323403 100.0000000000 1
    PT 16.319256323403 95.0000000000 1
    PT 16.950835270771 97.0000000000 1
    PT 17.569391971802 100.0000000000 1
    PT 18.169391971802 94.0000000000 1
    PT 18.807689844143 99.0000000000 1
    PT 19.413750450203 97.0000000000 1
    PT 20.032307151234 101.0000000000 1
    PT 21.220425963115 99.0000000000 1
    PT 21.826486569176 97.0000000000 1
    PT 24.300713373300 95.0000000000 1
    PT 24.932292320668 98.0000000000 1
    PT 25.544537218627 101.0000000000 1
    PT 26.732656030508 97.0000000000 1
    PT 27.969769432570 95.0000000000 1
    PT 28.601348379939 98.0000000000 1
    PT 29.213593277898 97.0000000000 1
    PT 29.832149978929 99.0000000000 1
    PT 31.044271191050 101.0000000000 1
    PT 32.034370200951 96.0000000000 1
    PT 32.242703534284 97.5000000000 1
    PT 35.319626611207 101.0000000000 1
    PT 36.507745423089 95.0000000000 1
    PT 38.402482265194 99.0000000000 1
    PT 40.220664083376 98.0000000000 1
    PT 41.445153879294 100.0000000000 1
    PT 42.045153879294 99.0000000000 1
    PT 42.651214485355 97.0000000000 1
    PT 43.269771186386 99.0000000000 1
    PT 43.875831792446 98.0000000000 1
    PT 45.100321588365 100.0000000000 1
    PT 45.700321588365 97.0000000000 1
    PT 46.318878289395 94.0000000000 1
    PT 46.957176161736 98.0000000000 1
    PT 49.406155753573 97.5000000000 1
    PT 50.636924984342 100.0000000000 1
    PT 51.436993283840 98.0000000000 1
    PT 52.457331753740 97.0000000000 1
    PT 53.075888454771 98.5000000000 1
    PT 54.294162566446 97.0000000000 1
    PT 55.531275968508 98.0000000000 1
    PT 56.755765764426 100.0000000000 1
    PT 57.355765764426 97.0000000000 1
    PT 57.974322465457 99.0000000000 1
    PT 59.186443677578 98.0000000000 1
    PT 59.798688575537 99.0000000000 1
    PT 60.404749181598 98.0000000000 1
    PT 61.016994079557 97.0000000000 1
    PT 61.635550780588 98.5000000000 1
    PT 62.853824892263 100.0000000000 1
    PT 63.453824892263 98.0000000000 1
    PT 65.258274266822 97.0000000000 1
    PT 66.528005826546 98.0000000000 1
    PT 67.140250724505 97.0000000000 1
    PT 67.758807425536 99.0000000000 1
    PT 69.576989243718 97.5000000000 1
    PT 70.807758474487 96.5000000000 1
    PT 72.673043448581 98.0000000000 1
    PT 73.897533244499 100.0000000000 1
    PT 74.497533244499 101.0000000000 1
    PT 75.091592650440 98.0000000000 1
    PT 75.703837548399 95.0000000000 1
    PT 76.335416495767 98.0000000000 1
    PT 76.947661393726 97.0000000000 1
    PT 78.184774795788 100.0000000000 1
    PT 78.921960657248 99.0000000000 1
    PT 79.389449686077 97.0000000000 1
    PT 80.626563088138 98.0000000000 1
    PT 81.238807986098 99.0000000000 1
    PT 81.844868592158 97.0000000000 1
    PT 82.463425293189 98.5000000000 1
    PT 83.072562349027 97.5000000000 1
    PT 83.687946964411 99.0000000000 1
    PT 84.294007570472 100.0000000000 1
    PT 84.894007570472 99.0000000000 1
    PT 85.500068176532 93.0000000000 1
    PT 86.145229466855 97.0000000000 1
    PT 87.382342868917 100.5000000000 1
    PT 87.979357794290 97.0000000000 1
    PT 88.907192845836 100.0000000000 1
    PT 89.407192845836 103.0000000000 1
    PT 89.795542360400 97.0000000000 1
    PT 91.032655762461 98.5000000000 1
    PT 92.860066929974 97.0000000000 1
    PT 94.097180332036 98.0000000000 1
    PT 94.709425229995 96.0000000000 1
    PT 95.959425229995 99.0000000000 1
    PT 96.565485836056 98.0000000000 1
    PT 97.177730734015 99.5000000000 1
    PT 97.780745809392 98.5000000000 1
    PT 99.608156976905 97.5000000000 1
    PT 100.223541592289 96.0000000000 1
    PT 100.848541592289 100.0000000000 1
    PT 101.448541592289 98.5000000000 1
    PT 102.666815703964 100.0000000000 1
    PT 103.866815703964 99.0000000000 1
    PT 105.078936916085 98.0000000000 1
    PT 106.915671609963 100.0000000000 1
    PT 107.515671609963 99.0000000000 1
    PT 109.333853428145 92.0000000000 1
    PT 110.638201254232 98.0000000000 1
    PT 111.862691050150 97.0000000000 1
    PT 112.481247751181 99.0000000000 1
    PT 113.087308357242 97.0000000000 1
    PT 113.705865058273 99.0000000000 1
    PT 114.917986270394 92.0000000000 1
    PT 115.352768879089 101.0000000000 1
    PT 115.748808483050 100.0000000000 1
    PT 117.348808483050 98.0000000000 1
    PT 119.185543176927 99.0000000000 1
    PT 121.003724995109 97.0000000000 1
    PT 121.622281696140 98.0000000000 1
    PT 122.540649043079 100.0000000000 1
    PT 123.440649043079 98.0000000000 1
    PT 124.052893941038 99.0000000000 1
    PT 124.658954547099 97.0000000000 1
    PT 125.896067949161 91.0000000000 1
    PT 126.555408608501 103.0000000000 1
    PT 127.137932880346 96.0000000000 1
    PT 128.387932880346 104.0000000000 1
    PT 128.964855957269 97.0000000000 1
    PT 129.583412658300 94.0000000000 1
    PT 130.008944573194 97.0000000000 1
    PT 130.421315707214 99.0000000000 1
    PT 131.229396515295 96.0000000000 1
    PT 131.646063181962 98.0000000000 1
    PT 132.054226447268 98.5000000000 1
    PT 133.272500558943 100.0000000000 1
    PT 133.872500558943 98.0000000000 1
    PT 134.484745456902 96.0000000000 1
    PT 135.734745456902 100.0000000000 1
    PT 137.534745456902 97.5000000000 1
    PT 138.150130072287 96.0000000000 1
    PT 138.775130072287 99.0000000000 1
    PT 139.381190678347 98.0000000000 1
    PT 141.217925372225 99.5000000000 1
    PT 143.629985673732 98.5000000000 1
    PT 145.457396841245 94.5000000000 1
    PT 146.727238111086 98.0000000000 1
    PT 149.176217702923 95.0000000000 1
    PT 149.807796650292 97.0000000000 1
    PT 150.426353351322 98.5000000000 1
    PT 151.644627462998 97.0000000000 1
    PT 152.263184164029 99.0000000000 1
    PT 152.869244770089 102.0000000000 1
    PT 153.457480064207 99.0000000000 1
    PT 154.063540670267 95.0000000000 1
    PT 154.695119617636 97.0000000000 1
    PT 155.313676318667 96.0000000000 1
    PT 155.938676318667 97.0000000000 1
    PT 156.969604153718 100.0000000000 1
    PT 158.069604153718 98.0000000000 1
    PT 158.375726602698 97.0000000000 1
    PT 159.612840004760 100.0000000000 1
    PT 160.212840004760 97.0000000000 1
    PT 161.449953406822 99.0000000000 1
    PT 162.056014012882 100.0000000000 1
    PT 163.256014012882 98.0000000000 1
    PT 163.868258910841 94.0000000000 1
    PT 164.506556783182 98.0000000000 1
    PT 165.118801681141 97.0000000000 1
    PT 165.737358382172 98.5000000000 1
    PT 166.346495438009 97.0000000000 1
    PT 166.965052139040 98.5000000000 1
    PT 167.574189194878 100.0000000000 1
    PT 167.774189194878 103.0000000000 1
    PT 168.162538709441 98.0000000000 1
    PT 168.774783607400 95.5000000000 1
    PT 169.403055858709 99.0000000000 1
    PT 170.615177070830 98.0000000000 1
    PT 172.451911764708 93.0000000000 1
    PT 174.387395635676 100.0000000000 1
    PT 175.587395635676 102.0000000000 1
    PT 176.175630929793 105.0000000000 1
    PT 176.747059501222 102.0000000000 1
    PT 177.335294795340 100.0000000000 1
    PT 177.935294795340 96.0000000000 1
    PT 179.185294795340 97.0000000000 1
    PT 181.659521599463 98.0000000000 1
    PT 184.312582823953 100.0000000000 1
    PT 184.612582823953 110.0000000000 1
    PT 184.703491914862 97.0000000000 1
    PT 185.322048615893 99.0000000000 1
    PT 187.746291040135 98.0000000000 1
    PT 188.358535938095 97.0000000000 1
    PT 189.595649340156 99.0000000000 1
    PT 191.413831158338 97.0000000000 1
    PT 192.032387859369 98.0000000000 1
    PT 192.644632757328 99.0000000000 1
    PT 193.250693363389 97.0000000000 1
    PT 193.869250064420 98.0000000000 1
    PT 194.481494962379 97.0000000000 1
    PT 195.100051663410 98.0000000000 1
    PT 195.712296561369 97.0000000000 1
    PT 196.330853262400 100.0000000000 1
    PT 196.930853262400 98.0000000000 1
    PT 198.155343058319 97.0000000000 1
    PT 199.392456460380 99.0000000000 1
    PT 199.998517066441 97.5000000000 1
    PT 200.613901681826 97.0000000000 1
    PT 201.232458382857 98.0000000000 1
    PT 201.844703280816 100.0000000000 1
    PT 202.444703280816 98.0000000000 1
    PT 203.056948178775 96.5000000000 1
    PT 204.300471494837 98.0000000000 1
    PT 204.912716392796 100.0000000000 1
    PT 205.512716392796 94.0000000000 1
    PT 205.938248307690 97.0000000000 1
    PT 206.350619441710 99.0000000000 1
    PT 207.966781057872 96.0000000000 1
    PT 209.216781057872 98.0000000000 1
    PT 211.053515751750 96.0000000000 1
    PT 211.366015751750 98.0000000000 1
    PT 211.672138200729 103.0000000000 1
  >
  <PROJBAY
  >
  <TRACK {4D889F49-FE1F-4D1D-9FB8-BFD5BA06901A}
    NAME "SONG AUDIO"
    PEAKCOL 16576
    BEAT -1
    AUTOMODE 0
    VOLPAN 1 0 -1 -1 1
    MUTESOLO 0 2 0
    IPHASE 0
    ISBUS 0 0
    BUSCOMP 0 0
    SHOWINMIX 1 0.6667 0.5 1 0.5 0 0 0
    FREEMODE 0
    SEL 0
    REC 0 0 0 0 0 0 0
    TRACKHEIGHT 0 0
    INQ 0 0 0 0.5 100 0 0 100
    NCHAN 2
    FX 1
    TRACKID {4D889F49-FE1F-4D1D-9FB8-BFD5BA06901A}
    PERF 0
    MIDIOUT -1
    MAINSEND 1 0
    <FXCHAIN
      SHOW 0
      LASTSEL 0
      DOCKED 0
      BYPASS 0 0 0
      <VST "VST: W1 Limiter (George Yohng)" "George Yohng's W1 Limiter.dll" 0 "" ""
        THdGNO5e7f4CAAAAAQAAAAAAAAACAAAAAAAAAAIAAAABAAAAAAAAAAIAAAAAAAAA8AAAAAEAAAAAABAAFQAAAP//////////AgAAABUAAAAAAAAASCYAAAD/////////
        /wwAAAAmAAAAAAAAAHlvaG5nLXcxbGltaXRlci0xACQAAAD//////////wYAAAAkAAAAAAAAAAAAAADMT3I/AAAAAAAAAAAkAAAA//////////8GAAAAJAAAAAAAAAAB
        AAAAzE9yPwAAAAAAAAAAJAAAAP//////////BgAAACQAAAAAAAAAAgAAAM3MTD4AAAAAAAAAABgAAAD//////////woAAAAYAAAAAAAAAAAAAAAVAAAA//////////8D
        AAAAFQAAAAAAAAAA
      >
      FLOATPOS 24 24 481 152
      FXID {D32BE511-3942-4A83-B6D7-DF2FE763A2B4}
      WAK 0
    >
    <ITEM
      POSITION 6.45777201537168
      SNAPOFFS 0
      LENGTH 206.81362811791382
      LOOP 0
      ALLTAKES 0
      FADEIN 1 0 0 1 0 0
      FADEOUT 1 0 0 1 0 0
      MUTE 0
      SEL 0
      IGUID {2EC14D80-CEE0-41CF-A09C-EAA6E6750B09}
      IID 1
      NAME "Black Tongue.ogg"
      VOLPAN 1 0 1 -1
      SOFFS 0
      PLAYRATE 1 1 0 -1 0 0.0025
      CHANMODE 0
      GUID {F2F76019-E24B-496D-BD06-322051D14EC2}
      <SOURCE VORBIS
        FILE "Black Tongue.ogg"
      >
    >
  >
  <TRACK {BDCFF37A-71AC-4D17-AF26-EA560B308842}
    NAME COUNTIN
    PEAKCOL 16576
    BEAT -1
    AUTOMODE 0
    VOLPAN 1 0 -1 -1 1
    MUTESOLO 0 0 0
    IPHASE 0
    ISBUS 0 0
    BUSCOMP 0 0
    SHOWINMIX 1 0.6667 0.5 1 0.5 0 0 0
    FREEMODE 0
    SEL 0
    REC 0 0 0 0 0 0 0
    TRACKHEIGHT 0 0
    INQ 0 0 0 0.5 100 0 0 100
    NCHAN 2
    FX 1
    TRACKID {BDCFF37A-71AC-4D17-AF26-EA560B308842}
    PERF 0
    MIDIOUT -1
    MAINSEND 1 0
    <ITEM
      POSITION 2.5
      SNAPOFFS 0
      LENGTH 0.28216019417451
      LOOP 0
      ALLTAKES 0
      FADEIN 1 0 0 1 0 0
      FADEOUT 1 0 0 1 0 0
      MUTE 0
      SEL 0
      IGUID {D829F3DA-0BE5-4277-954B-C2D10DB114A6}
      IID 9
      NAME stick.wav
      VOLPAN 1 0 1 -1
      SOFFS 0
      PLAYRATE 1.00000000000052 1 0 -1 0 0.0025
      CHANMODE 0
      GUID {3A242298-C3E5-4DC8-9A3C-2EE82D8D2134}
      <SOURCE WAVE
        FILE "stick.wav"
      >
    >
    <ITEM
      POSITION 3.49999999999949
      SNAPOFFS 0
      LENGTH 0.28216019417451
      LOOP 0
      ALLTAKES 0
      FADEIN 1 0 0 1 0 0
      FADEOUT 1 0 0 1 0 0
      MUTE 0
      SEL 0
      IGUID {5AEC5162-2B2C-4FF2-BB3B-E29ADC0916FE}
      IID 10
      NAME stick.wav
      VOLPAN 1 0 1 -1
      SOFFS 0
      PLAYRATE 1.00000000000052 1 0 -1 0 0.0025
      CHANMODE 0
      GUID {16E29BEE-96F5-48F0-9FB0-3F04A1AF90D5}
      <SOURCE WAVE
        FILE "stick.wav"
      >
    >
    <ITEM
      POSITION 4.49999999999898
      SNAPOFFS 0
      LENGTH 0.28216019417451
      LOOP 0
      ALLTAKES 0
      FADEIN 1 0 0 1 0 0
      FADEOUT 1 0 0 1 0 0
      MUTE 0
      SEL 0
      IGUID {1FA8F8C4-F448-4E02-B340-4A6644F6D8AB}
      IID 11
      NAME stick.wav
      VOLPAN 1 0 1 -1
      SOFFS 0
      PLAYRATE 1.00000000000052 1 0 -1 0 0.0025
      CHANMODE 0
      GUID {8D594F7C-8B39-4D29-A27D-55F46BC65189}
      <SOURCE WAVE
        FILE "stick.wav"
      >
    >
    <ITEM
      POSITION 4.99999999999872
      SNAPOFFS 0
      LENGTH 0.28216019417451
      LOOP 0
      ALLTAKES 0
      FADEIN 1 0 0 1 0 0
      FADEOUT 1 0 0 1 0 0
      MUTE 0
      SEL 0
      IGUID {1D23FF37-8166-4C8E-915E-19EFDB52B4D8}
      IID 12
      NAME stick.wav
      VOLPAN 1 0 1 -1
      SOFFS 0
      PLAYRATE 1.00000000000052 1 0 -1 0 0.0025
      CHANMODE 0
      GUID {1D91F480-CA0B-4E03-8204-02893D660CDF}
      <SOURCE WAVE
        FILE "stick.wav"
      >
    >
    <ITEM
      POSITION 5.49999999999846
      SNAPOFFS 0
      LENGTH 0.28216019417451
      LOOP 0
      ALLTAKES 0
      FADEIN 1 0 0 1 0 0
      FADEOUT 1 0 0 1 0 0
      MUTE 0
      SEL 0
      IGUID {A6BA2F37-4089-4BF2-A73E-A602F32B7614}
      IID 13
      NAME stick.wav
      VOLPAN 1 0 1 -1
      SOFFS 0
      PLAYRATE 1.0000000000005 1 0 -1 0 0.0025
      CHANMODE 0
      GUID {ABD24FE2-95CA-428E-ADD9-9A13921FCC29}
      <SOURCE WAVE
        FILE "stick.wav"
      >
    >
    <ITEM
      POSITION 5.99999999999821
      SNAPOFFS 0
      LENGTH 0.28216019417451
      LOOP 0
      ALLTAKES 0
      FADEIN 1 0 0 1 0 0
      FADEOUT 1 0 0 1 0 0
      MUTE 0
      SEL 0
      IGUID {49CCEEAD-12F1-472E-8B9C-48A90BF6E20A}
      IID 14
      NAME stick.wav
      VOLPAN 1 0 1 -1
      SOFFS 0
      PLAYRATE 1.00000000000052 1 0 -1 0 0.0025
      CHANMODE 0
      GUID {3DFEA1C1-AD72-4DF8-A1BD-3977672F4D80}
      <SOURCE WAVE
        FILE "stick.wav"
      >
    >
  >
  <TRACK {8F33A645-3DF2-48FA-99BC-10992A4F8042}
    NAME "PART DRUMS"
    PEAKCOL 16842751
    BEAT -1
    AUTOMODE 0
    VOLPAN 1 0 -1 -1 1
    MUTESOLO 0 0 0
    IPHASE 0
    ISBUS 0 0
    BUSCOMP 1 0
    SHOWINMIX 1 0.6667 0.5 1 0.5 0 0 0
    FREEMODE 0
    SEL 0
    REC 0 4096 1 7 0 0 0
    TRACKHEIGHT 0 0
    INQ 0 0 0 0.5 100 0 0 100
    NCHAN 2
    FX 1
    TRACKID {8F33A645-3DF2-48FA-99BC-10992A4F8042}
    PERF 0
    MIDIOUT -1
    <MIDINOTENAMES
      0 24 "KICK RF"
      0 25 "HI-HAT OPEN"
      0 26 "SNARE HARD LH"
      0 27 "SNARE HARD RH"
      0 28 "SNARE SOFT LH"
      0 29 "SNARE SOFT RH"
      0 30 "HI-HAT LH"
      0 31 "HI-HAT RH"
      0 32 "PERCUSSION RH"
      0 34 "CRASH1 HARD LH"
      0 35 "CRASH1 SOFT LH"
      0 36 "CRASH1 HARD RH"
      0 37 "CRASH1 SOFT RH"
      0 38 "CRASH2 HARD RH"
      0 39 "CRASH2 SOFT RH"
      0 40 "CRASH1 CHOKE"
      0 41 "CRASH2 CHOKE"
      0 42 "RIDE CYM RH"
      0 43 "RIDE CYM LH"
      0 44 "CRASH2 HARD LH"
      0 45 "CRASH2 SOFT LH"
      0 46 "TOM1 LH"
      0 47 "TOM1 RH"
      0 48 "TOM2 LH"
      0 49 "TOM2 RH"
      0 50 "FLOOR TOM LH"
      0 51 "FLOOR TOM RH"
      0 52 "--DRUM ANIMATION--"
      0 56 ----
      0 60 "EASY Kick"
      0 61 "EASY Red"
      0 62 "EASY Yellow"
      0 63 "EASY Blue"
      0 64 "EASY Green"
      0 68 ----
      0 72 "MEDIUM Kick"
      0 73 "MEDIUM Red"
      0 74 "MEDIUM Yellow"
      0 75 "MEDIUM Blue"
      0 76 "MEDIUM Green"
      0 80 ----
      0 84 "HARD Kick"
      0 85 "HARD Red"
      0 86 "HARD Yellow"
      0 87 "HARD Blue"
      0 88 "HARD Green"
      0 92 ----
      0 96 "EXPERT Kick"
      0 97 "EXPERT Red"
      0 98 "EXPERT Yellow"
      0 99 "EXPERT Blue"
      0 100 "EXPERT Green"
      0 101 " "
      0 102 ----
      0 103 "Solo Marker"
      0 108 ----
      0 110 "PRO Yellow Tom"
      0 111 "PRO Blue Tom"
      0 112 "PRO Green Tom"
      0 114 ----
      0 116 OVERDRIVE
      0 118 ----
      0 120 "DRUM FILL (use all 5)"
      0 121 "DRUM FILL"
      0 122 "DRUM FILL"
      0 123 "DRUM FILL"
      0 124 "DRUM FILL"
      0 125 ----
      0 126 "Roll Marker 1-Lane"
      0 127 "Roll Marker 2-Lane / Cym"
    >
    MAINSEND 1 0
    <FXCHAIN
      WNDRECT 0 38 870 574
      SHOW 0
      LASTSEL 1
      DOCKED 0
      BYPASS 1 0 0
      <VST "VSTi: ReaSynth (Cockos)" reasynth.vst.dylib 0 "" 1919251321
        eXNlcu9e7f4AAAAAAgAAAAEAAAAAAAAAAgAAAAAAAAA8AAAAAAAAAAAAAADvvq3eDfCt3gAAAAAAAAAAAAAAAAAAAAA5tEg+fcvbPrW0sTkAAAAAtvP9PlWkKzoAAAAA
        AAAAAAAAgD8AAAAAAAA=
      >
      FLOATPOS 0 0 0 0
      FXID {58F55556-9407-4062-A048-6AFCC0B53535}
      WAK 0
      BYPASS 0 0 0
      <VST "VSTi: RBN Preview (RBN)" rbprev_vst.dll 0 "" ""
        dnBicu5e7f4AAAAAAgAAAAEAAAAAAAAAAgAAAAAAAAAEAAAAAQAAAAAAAAADAaoAAAAAAAAA
      >
      FLOATPOS 32 32 659 497
      FXID {D7126437-AB1E-4109-A0FA-F2D5D0AC68DC}
      WAK 0
    >
    <ITEM
      POSITION 0
      SNAPOFFS 0
      LENGTH 215.16728383179705
      LOOP 0
      ALLTAKES 0
      FADEIN 1 0 0 1 0 0
      FADEOUT 1 0 0 1 0 0
      MUTE 0
      COLOR 19150555 B
      SEL 0
      IGUID {9FF11F36-E94F-4396-9C0E-8449C916EC21}
      IID 2
      NAME "PART DRUMS"
      VOLPAN 1 0 1 -1
      SOFFS 0 0
      PLAYRATE 1 1 0 -65536 0 0.0025
      CHANMODE 0
      GUID {70A79ADF-E70C-430A-913F-E16D0CC85517}
      <SOURCE MIDI
        HASDATA 1 480 QN
        POOLEDEVTS {ACDD7AB5-DB75-4A26-BB63-8AA9BE005E37}
        <X 0 0
          /wNQQVJUIERSVU1T
        >
        <X 300 0
          /wFbbWl4IDEgZHJ1bXMwXQ==
        >
        <X 0 0
          /wFbbWl4IDAgZHJ1bXMwXQ==
        >
        <X 60 0
          /wFbbWl4IDIgZHJ1bXMwXQ==
        >
        <X 60 0
          /wFbbWl4IDMgZHJ1bXMwXQ==
        >
        <X 3420 0
          /wFbaWRsZV0=
        >
        <X 1920 0
          /wFbcGxheV0=
        >
        E 480 90 18 60
        E 0 90 22 60
        E 0 90 26 60
        E 0 90 3e 60
        E 0 90 40 60
        E 0 90 48 60
        E 0 90 4a 60
        E 0 90 4c 60
        E 0 90 54 60
        E 0 90 56 60
        E 0 90 58 60
        E 0 90 60 60
        E 0 90 62 60
        E 0 90 64 60
        E 30 80 18 00
        E 0 80 22 00
        E 0 80 26 00
        E 0 80 3e 00
        E 0 80 40 00
        E 0 80 48 00
        E 0 80 4a 00
        E 0 80 4c 00
        E 0 80 54 00
        E 0 80 56 00
        E 0 80 58 00
        E 0 80 60 00
        E 0 80 62 00
        E 0 80 64 00
        E 1890 90 2e 60
        E 0 90 31 60
        E 0 90 3e 60
        E 0 90 3f 60
        E 0 90 4a 60
        E 0 90 4b 60
        E 0 90 56 60
        E 0 90 57 60
        E 0 90 62 60
        E 0 90 63 60
        E 0 90 6e 60
        E 0 90 6f 60
        E 30 80 2e 00
        E 0 80 31 00
        E 0 80 3e 00
        E 0 80 3f 00
        E 0 80 4a 00
        E 0 80 4b 00
        E 0 80 56 00
        E 0 80 57 00
        E 0 80 62 00
        E 0 80 63 00
        E 0 80 6e 00
        E 0 80 6f 00
        E 130 90 2e 60
        E 0 90 62 60
        E 0 90 6e 60
        E 30 80 2e 00
        E 0 80 62 00
        E 0 80 6e 00
        E 50 90 2f 60
        E 0 90 56 60
        E 0 90 62 60
        E 0 90 6e 60
        E 30 80 2f 00
        E 0 80 56 00
        E 0 80 62 00
        E 0 80 6e 00
        E 50 90 2e 60
        E 0 90 62 60
        E 0 90 6e 60
        E 30 80 2e 00
        E 0 80 62 00
        E 0 80 6e 00
        E 50 90 2f 60
        E 0 90 62 60
        E 0 90 6e 60
        E 30 80 2f 00
        E 0 80 62 00
        E 0 80 6e 00
        E 50 90 2e 60
        E 0 90 3e 60
        E 0 90 4a 60
        E 0 90 56 60
        E 0 90 62 60
        E 0 90 6e 60
        E 30 80 2e 00
        E 0 80 3e 00
        E 0 80 4a 00
        E 0 80 56 00
        E 0 80 62 00
        E 0 80 6e 00
        E 50 90 2f 60
        E 0 90 62 60
        E 0 90 6e 60
        E 30 80 2f 00
        E 0 80 62 00
        E 0 80 6e 00
        E 50 90 30 60
        E 0 90 63 60
        E 0 90 6f 60
        E 30 80 30 00
        E 0 80 63 00
        E 0 80 6f 00
        E 50 90 2f 60
        E 0 90 56 60
        E 0 90 62 60
        E 0 90 6e 60
        E 30 80 2f 00
        E 0 80 56 00
        E 0 80 62 00
        E 0 80 6e 00
        E 50 90 2e 60
        E 0 90 62 60
        E 0 90 6e 60
        E 30 80 2e 00
        E 0 80 62 00
        E 0 80 6e 00
        E 50 90 2f 60
        E 0 90 62 60
        E 0 90 6e 60
        E 30 80 2f 00
        E 0 80 62 00
        E 0 80 6e 00
        E 50 90 30 60
        E 0 90 3f 60
        E 0 90 4b 60
        E 0 90 57 60
        E 0 90 63 60
        E 0 90 6f 60
        E 30 80 30 00
        E 0 80 3f 00
        E 0 80 4b 00
        E 0 80 57 00
        E 0 80 63 00
        E 0 80 6f 00
        E 50 90 31 60
        E 0 90 63 60
        E 0 90 6f 60
        E 30 80 31 00
        E 0 80 63 00
        E 0 80 6f 00
        E 50 90 32 60
        E 0 90 64 60
        E 0 90 70 60
        E 30 80 32 00
        E 0 80 64 00
        E 0 80 70 00
        E 50 90 31 60
        E 0 90 57 60
        E 0 90 63 60
        E 0 90 6f 60
        E 30 80 31 00
        E 0 80 57 00
        E 0 80 63 00
        E 0 80 6f 00
        E 50 90 30 60
        E 0 90 63 60
        E 0 90 6f 60
        E 30 80 30 00
        E 0 80 63 00
        E 0 80 6f 00
        E 49 90 31 60
        E 0 90 63 60
        E 0 90 6f 60
        E 30 80 31 00
        E 0 80 63 00
        E 0 80 6f 00
        E 51 90 30 60
        E 0 90 3f 60
        E 0 90 4b 60
        E 0 90 57 60
        E 0 90 63 60
        E 0 90 6f 60
        E 30 80 30 00
        E 0 80 3f 00
        E 0 80 4b 00
        E 0 80 57 00
        E 0 80 63 00
        E 0 80 6f 00
        E 50 90 31 60
        E 0 90 63 60
        E 0 90 6f 60
        E 30 80 31 00
        E 0 80 63 00
        E 0 80 6f 00
        E 50 90 32 60
        E 0 90 64 60
        E 0 90 70 60
        E 30 80 32 00
        E 0 80 64 00
        E 0 80 70 00
        E 50 90 33 60
        E 0 90 58 60
        E 0 90 64 60
        E 0 90 70 60
        E 30 80 33 00
        E 0 80 58 00
        E 0 80 64 00
        E 0 80 70 00
        E 50 90 32 60
        E 0 90 64 60
        E 0 90 70 60
        E 30 80 32 00
        E 0 80 64 00
        E 0 80 70 00
        E 50 90 33 60
        E 0 90 64 60
        E 0 90 70 60
        E 30 80 33 00
        E 0 80 64 00
        E 0 80 70 00
        E 50 90 18 60
        E 0 90 22 60
        E 0 90 40 60
        E 0 90 48 60
        E 0 90 4c 60
        E 0 90 54 60
        E 0 90 58 60
        E 0 90 60 60
        E 0 90 64 60
        E 30 80 18 00
        E 0 80 22 00
        E 0 80 40 00
        E 0 80 48 00
        E 0 80 4c 00
        E 0 80 54 00
        E 0 80 58 00
        E 0 80 60 00
        E 0 80 64 00
        E 1890 90 1a 60
        E 0 90 24 60
        E 0 90 3d 60
        E 0 90 49 60
        E 0 90 4c 60
        E 0 90 55 60
        E 0 90 58 60
        E 0 90 61 60
        E 0 90 64 60
        E 30 80 1a 00
        E 0 80 24 00
        E 0 80 3d 00
        E 0 80 49 00
        E 0 80 4c 00
        E 0 80 55 00
        E 0 80 58 00
        E 0 80 61 00
        E 0 80 64 00
        E 130 90 1a 60
        E 0 90 61 60
        E 30 80 1a 00
        E 0 80 61 00
        E 10 90 1b 60
        E 0 90 61 60
        E 30 80 1b 00
        E 0 80 61 00
        E 10 90 1a 60
        E 0 90 55 60
        E 0 90 61 60
        E 30 80 1a 00
        E 0 80 55 00
        E 0 80 61 00
        E 50 90 1b 60
        E 0 90 61 60
        E 30 80 1b 00
        E 0 80 61 00
        E 50 90 1a 60
        E 0 90 61 60
        E 30 80 1a 00
        E 0 80 61 00
        E 10 90 1b 60
        E 0 90 61 60
        E 30 80 1b 00
        E 0 80 61 00
        E 10 90 1a 60
        E 0 90 3d 60
        E 0 90 49 60
        E 0 90 55 60
        E 0 90 61 60
        E 30 80 1a 00
        E 0 80 3d 00
        E 0 80 49 00
        E 0 80 55 00
        E 0 80 61 00
        E 50 90 1b 60
        E 0 90 61 60
        E 30 80 1b 00
        E 0 80 61 00
        E 50 90 1a 60
        E 0 90 61 60
        E 30 80 1a 00
        E 0 80 61 00
        E 50 90 1b 60
        E 0 90 55 60
        E 0 90 61 60
        E 30 80 1b 00
        E 0 80 55 00
        E 0 80 61 00
        E 50 90 1a 60
        E 0 90 61 60
        E 30 80 1a 00
        E 0 80 61 00
        E 50 90 1b 60
        E 0 90 61 60
        E 30 80 1b 00
        E 0 80 61 00
        E 50 90 1a 60
        E 0 90 3d 60
        E 0 90 49 60
        E 0 90 55 60
        E 0 90 61 60
        E 30 80 1a 00
        E 0 80 3d 00
        E 0 80 49 00
        E 0 80 55 00
        E 0 80 61 00
        E 50 90 1b 60
        E 0 90 61 60
        E 30 80 1b 00
        E 0 80 61 00
        E 50 90 2e 60
        E 0 90 62 60
        E 0 90 6e 60
        E 30 80 2e 00
        E 0 80 62 00
        E 0 80 6e 00
        E 50 90 1b 60
        E 0 90 55 60
        E 0 90 61 60
        E 30 80 1b 00
        E 0 80 55 00
        E 0 80 61 00
        E 50 90 1a 60
        E 0 90 61 60
        E 30 80 1a 00
        E 0 80 61 00
        E 50 90 1b 60
        E 0 90 61 60
        E 30 80 1b 00
        E 0 80 61 00
        E 50 90 1a 60
        E 0 90 3d 60
        E 0 90 49 60
        E 0 90 55 60
        E 0 90 61 60
        E 30 80 1a 00
        E 0 80 3d 00
        E 0 80 49 00
        E 0 80 55 00
        E 0 80 61 00
        E 50 90 1b 60
        E 0 90 61 60
        E 30 80 1b 00
        E 0 80 61 00
        E 50 90 2e 60
        E 0 90 62 60
        E 0 90 6e 60
        E 30 80 2e 00
        E 0 80 62 00
        E 0 80 6e 00
        E 50 90 2f 60
        E 0 90 56 60
        E 0 90 62 60
        E 0 90 6e 60
        E 30 80 2f 00
        E 0 80 56 00
        E 0 80 62 00
        E 0 80 6e 00
        E 50 90 30 60
        E 0 90 63 60
        E 0 90 6f 60
        E 30 80 30 00
        E 0 80 63 00
        E 0 80 6f 00
        E 50 90 31 60
        E 0 90 63 60
        E 0 90 6f 60
        E 30 80 31 00
        E 0 80 63 00
        E 0 80 6f 00
        E 50 90 18 60
        E 0 90 22 60
        E 0 90 40 60
        E 0 90 48 60
        E 0 90 4c 60
        E 0 90 54 60
        E 0 90 58 60
        E 0 90 60 60
        E 0 90 64 60
        E 0 90 74 60
        E 30 80 18 00
        E 0 80 22 00
        E 0 80 40 00
        E 0 80 48 00
        E 0 80 4c 00
        E 0 80 54 00
        E 0 80 58 00
        E 0 80 60 00
        E 0 80 64 00
        E 130 90 2a 60
        E 0 90 63 60
        E 30 80 2a 00
        E 0 80 63 00
        E 50 90 1a 60
        E 0 90 55 60
        E 0 90 61 60
        E 30 80 1a 00
        E 0 80 55 00
        E 0 80 61 00
        E 50 90 2a 60
        E 0 90 63 60
        E 30 80 2a 00
        E 0 80 63 00
        E 50 90 18 60
        E 0 90 60 60
        E 30 80 18 00
        E 10 80 60 00 -10
        E 0 90 18 60
        E 0 90 60 60
        E 30 80 18 00
        E 10 80 60 00 -10
        E 0 90 1a 60
        E 0 90 2a 60
        E 0 90 3d 60
        E 0 90 49 60
        E 0 90 4b 60
        E 0 90 55 60
        E 0 90 57 60
        E 0 90 61 60
        E 0 90 63 60
        E 30 80 1a 00
        E 0 80 2a 00
        E 0 80 3d 00
        E 0 80 49 00
        E 0 80 4b 00
        E 0 80 55 00
        E 0 80 57 00
        E 10 80 61 00 -10
        E 0 80 63 00 -10
        E 120 90 2b 60
        E 0 90 63 60
        E 30 80 2b 00
        E 0 80 63 00
        E 50 90 1b 60
        E 0 90 55 60
        E 0 90 61 60
        E 30 80 1b 00
        E 0 80 55 00
        E 0 80 61 00
        E 50 90 18 60
        E 0 90 2b 60
        E 0 90 60 60
        E 0 90 63 60
        E 30 80 18 00
        E 0 80 2b 00
        E 0 80 60 00
        E 0 80 63 00
        E 50 90 1b 60
        E 0 90 61 60
        E 30 80 1b 00
        E 0 80 61 00
        E 50 90 18 60
        E 0 90 2b 60
        E 0 90 3f 60
        E 0 90 48 60
        E 0 90 4b 60
        E 0 90 54 60
        E 0 90 57 60
        E 0 90 60 60
        E 0 90 63 60
        E 30 80 18 00
        E 0 80 2b 00
        E 0 80 3f 00
        E 0 80 48 00
        E 0 80 4b 00
        E 0 80 54 00
        E 0 80 57 00
        E 0 80 60 00
        E 0 80 63 00
        E 50 90 1b 60
        E 0 90 61 60
        E 30 80 1b 00
        E 0 80 61 00
        E 50 90 18 60
        E 0 90 2b 60
        E 0 90 60 60
        E 0 90 63 60
        E 30 80 18 00
        E 0 80 2b 00
        E 0 80 60 00
        E 0 80 63 00
        E 50 90 1b 60
        E 0 90 55 60
        E 0 90 61 60
        E 30 80 1b 00
        E 0 80 55 00
        E 0 80 61 00
        E 50 90 2b 60
        E 0 90 63 60
        E 30 80 2b 00
        E 0 80 63 00
        E 50 90 18 60
        E 0 90 60 60
        E 30 80 18 00
        E 10 80 60 00 -10
        E 0 90 18 60
        E 0 90 60 60
        E 30 80 18 00
        E 10 80 60 00 -10
        E 0 90 1a 60
        E 0 90 2a 60
        E 0 90 3d 60
        E 0 90 49 60
        E 0 90 4b 60
        E 0 90 55 60
        E 0 90 57 60
        E 0 90 61 60
        E 0 90 63 60
        E 30 80 1a 00
        E 0 80 2a 00
        E 0 80 3d 00
        E 0 80 49 00
        E 0 80 4b 00
        E 0 80 55 00
        E 0 80 57 00
        E 10 80 61 00 -10
        E 0 80 63 00 -10
        E 120 90 2b 60
        E 0 90 63 60
        E 30 80 2b 00
        E 0 80 63 00
        E 50 90 1b 60
        E 0 90 55 60
        E 0 90 61 60
        E 30 80 1b 00
        E 0 80 55 00
        E 0 80 61 00
        E 50 90 2b 60
        E 0 90 63 60
        E 30 80 2b 00
        E 0 80 63 00
        E 50 90 1b 60
        E 0 90 61 60
        E 30 80 1b 00
        E 0 80 61 00
        E 50 80 74 00
        E 0 90 18 60
        E 0 90 2b 60
        E 0 90 3f 60
        E 0 90 48 60
        E 0 90 4b 60
        E 0 90 54 60
        E 0 90 57 60
        E 0 90 60 60
        E 0 90 63 60
        E 30 80 18 00
        E 0 80 2b 00
        E 0 80 3f 00
        E 0 80 48 00
        E 0 80 4b 00
        E 0 80 54 00
        E 0 80 57 00
        E 0 80 60 00
        E 0 80 63 00
        E 50 90 1b 60
        E 0 90 61 60
        E 30 80 1b 00
        E 0 80 61 00
        E 50 90 18 60
        E 0 90 2b 60
        E 0 90 60 60
        E 0 90 63 60
        E 30 80 18 00
        E 0 80 2b 00
        E 0 80 60 00
        E 0 80 63 00
        E 50 90 1b 60
        E 0 90 55 60
        E 0 90 61 60
        E 30 80 1b 00
        E 0 80 55 00
        E 0 80 61 00
        E 49 90 2b 60
        E 0 90 63 60
        E 30 80 2b 00
        E 0 80 63 00
        E 50 90 18 60
        E 1 90 60 60 -1
        E 29 80 18 00
        E 10 90 18 60
        E 1 80 60 00 -11
        E 0 90 60 60 -1
        E 29 80 18 00
        E 11 80 60 00 -11
        E 0 90 1a 60
        E 0 90 2a 60
        E 0 90 3d 60
        E 0 90 49 60
        E 0 90 4b 60
        E 0 90 55 60
        E 0 90 57 60
        E 0 90 61 60
        E 0 90 63 60
        E 30 80 1a 00
        E 0 80 2a 00
        E 0 80 3d 00
        E 0 80 49 00
        E 0 80 4b 00
        E 0 80 55 00
        E 0 80 57 00
        E 10 80 61 00 -10
        E 0 80 63 00 -10
        E 120 90 2b 60
        E 0 90 63 60
        E 30 80 2b 00
        E 0 80 63 00
        E 50 90 1b 60
        E 0 90 55 60
        E 0 90 61 60
        E 30 80 1b 00
        E 0 80 55 00
        E 0 80 61 00
        E 50 90 2b 60
        E 0 90 63 60
        E 30 80 2b 00
        E 0 80 63 00
        E 50 90 1b 60
        E 0 90 61 60
        E 30 80 1b 00
        E 0 80 61 00
        E 50 90 18 60
        E 0 90 2b 60
        E 0 90 3f 60
        E 0 90 48 60
        E 0 90 4b 60
        E 0 90 54 60
        E 0 90 57 60
        E 0 90 60 60
        E 0 90 63 60
        E 30 80 18 00
        E 0 80 2b 00
        E 0 80 3f 00
        E 0 80 48 00
        E 0 80 4b 00
        E 0 80 54 00
        E 0 80 57 00
        E 0 80 60 00
        E 0 80 63 00
        E 50 90 1b 60
        E 0 90 61 60
        E 30 80 1b 00
        E 0 80 61 00
        E 50 90 1a 60
        E 0 90 61 60
        E 30 80 1a 00
        E 0 80 61 00
        E 50 90 1b 60
        E 0 90 55 60
        E 0 90 61 60
        E 30 80 1b 00
        E 0 80 55 00
        E 0 80 61 00
        E 50 90 2e 60
        E 0 90 62 60
        E 0 90 6e 60
        E 30 80 2e 00
        E 0 80 62 00
        E 0 80 6e 00
        E 50 90 1b 60
        E 0 90 61 60
        E 30 80 1b 00
        E 0 80 61 00
        E 50 90 1a 60
        E 0 90 3d 60
        E 0 90 49 60
        E 0 90 55 60
        E 0 90 61 60
        E 30 80 1a 00
        E 0 80 3d 00
        E 0 80 49 00
        E 0 80 55 00
        E 0 80 61 00
        E 50 90 1b 60
        E 0 90 61 60
        E 30 80 1b 00
        E 0 80 61 00
        E 50 90 2e 60
        E 0 90 62 60
        E 0 90 6e 60
        E 30 80 2e 00
        E 0 80 62 00
        E 0 80 6e 00
        E 50 90 1b 60
        E 0 90 55 60
        E 0 90 61 60
        E 30 80 1b 00
        E 0 80 55 00
        E 0 80 61 00
        E 50 90 1a 60
        E 0 90 61 60
        E 30 80 1a 00
        E 0 80 61 00
        E 50 90 1b 60
        E 0 90 61 60
        E 30 80 1b 00
        E 0 80 61 00
        E 50 90 1a 60
        E 0 90 3d 60
        E 0 90 49 60
        E 0 90 55 60
        E 0 90 61 60
        E 30 80 1a 00
        E 0 80 3d 00
        E 0 80 49 00
        E 0 80 55 00
        E 0 80 61 00
        E 50 90 1b 60
        E 0 90 61 60
        E 30 80 1b 00
        E 0 80 61 00
        E 50 90 2e 60
        E 0 90 62 60
        E 0 90 6e 60
        E 30 80 2e 00
        E 0 80 62 00
        E 0 80 6e 00
        E 50 90 2f 60
        E 0 90 56 60
        E 0 90 62 60
        E 0 90 6e 60
        E 80 80 2f 00
        E 0 80 56 00
        E 0 80 62 00
        E 0 80 6e 00
        E 0 90 30 60
        E 0 90 63 60
        E 0 90 6f 60
        E 80 80 30 00
        E 0 80 63 00
        E 0 80 6f 00
        E 0 90 18 60
        E 0 90 60 60
        E 80 80 18 00
        E 0 80 60 00
        E 0 90 1a 60
        E 0 90 24 60
        E 0 90 3d 60
        E 0 90 49 60
        E 0 90 4c 60
        E 0 90 55 60
        E 0 90 58 60
        E 0 90 61 60
        E 0 90 64 60
        E 80 80 1a 00
        E 0 80 24 00
        E 0 80 3d 00
        E 0 80 49 00
        E 0 80 4c 00
        E 0 80 55 00
        E 0 80 58 00
        E 0 80 61 00
        E 0 80 64 00
        E 80 90 2b 60
        E 0 90 63 60
        E 80 80 2b 00
        E 0 80 63 00
        E 0 90 1b 60
        E 0 90 55 60
        E 0 90 61 60
        E 80 80 1b 00
        E 0 80 55 00
        E 0 80 61 00
        E 0 90 18 60
        E 0 90 2b 60
        E 0 90 60 60
        E 0 90 63 60
        E 80 80 18 00
        E 0 80 2b 00
        E 0 80 60 00
        E 0 80 63 00
        E 0 90 1b 60
        E 0 90 61 60
        E 80 80 1b 00
        E 0 80 61 00
        E 0 90 18 60
        E 0 90 2b 60
        E 0 90 3f 60
        E 0 90 48 60
        E 0 90 4b 60
        E 0 90 54 60
        E 0 90 57 60
        E 0 90 60 60
        E 0 90 63 60
        E 80 80 18 00
        E 0 80 2b 00
        E 0 80 3f 00
        E 0 80 48 00
        E 0 80 4b 00
        E 0 80 54 00
        E 0 80 57 00
        E 0 80 60 00
        E 0 80 63 00
        E 0 90 1b 60
        E 0 90 61 60
        E 80 80 1b 00
        E 0 80 61 00
        E 0 90 18 60
        E 0 90 2b 60
        E 0 90 60 60
        E 0 90 63 60
        E 80 80 18 00
        E 0 80 2b 00
        E 0 80 60 00
        E 0 80 63 00
        E 0 90 1b 60
        E 0 90 55 60
        E 0 90 61 60
        E 80 80 1b 00
        E 0 80 55 00
        E 0 80 61 00
        E 0 90 2b 60
        E 0 90 63 60
        E 80 80 2b 00
        E 0 80 63 00
        E 0 90 18 60
        E 0 90 60 60
        E 30 80 18 00
        E 0 80 60 00
        E 10 90 18 60
        E 0 90 60 60
        E 30 80 18 00
        E 0 80 60 00
        E 10 90 1a 60
        E 0 90 2a 60
        E 0 90 3d 60
        E 0 90 49 60
        E 0 90 4b 60
        E 0 90 55 60
        E 0 90 57 60
        E 0 90 61 60
        E 0 90 63 60
        E 80 80 1a 00
        E 0 80 2a 00
        E 0 80 3d 00
        E 0 80 49 00
        E 0 80 4b 00
        E 0 80 55 00
        E 0 80 57 00
        E 0 80 61 00
        E 0 80 63 00
        E 80 90 2b 60
        E 0 90 63 60
        E 80 80 2b 00
        E 0 80 63 00
        E 0 90 1b 60
        E 0 90 55 60
        E 0 90 61 60
        E 80 80 1b 00
        E 0 80 55 00
        E 0 80 61 00
        E 0 90 18 60
        E 0 90 2b 60
        E 0 90 60 60
        E 0 90 63 60
        E 80 80 18 00
        E 0 80 2b 00
        E 0 80 60 00
        E 0 80 63 00
        E 0 90 1b 60
        E 0 90 61 60
        E 80 80 1b 00
        E 0 80 61 00
        E 0 90 18 60
        E 0 90 2b 60
        E 0 90 3f 60
        E 0 90 48 60
        E 0 90 4b 60
        E 0 90 54 60
        E 0 90 57 60
        E 0 90 60 60
        E 0 90 63 60
        E 80 80 18 00
        E 0 80 2b 00
        E 0 80 3f 00
        E 0 80 48 00
        E 0 80 4b 00
        E 0 80 54 00
        E 0 80 57 00
        E 0 80 60 00
        E 0 80 63 00
        E 0 90 1b 60
        E 0 90 61 60
        E 80 80 1b 00
        E 0 80 61 00
        E 0 90 18 60
        E 0 90 2b 60
        E 0 90 60 60
        E 0 90 63 60
        E 80 80 18 00
        E 0 80 2b 00
        E 0 80 60 00
        E 0 80 63 00
        E 0 90 1b 60
        E 0 90 55 60
        E 0 90 61 60
        E 80 80 1b 00
        E 0 80 55 00
        E 0 80 61 00
        E 0 90 2b 60
        E 0 90 63 60
        E 79 90 18 60
        E 0 90 60 60
        E 1 80 2b 00
        E 0 80 63 00
        E 29 80 18 00
        E 0 80 60 00
        E 10 90 18 60
        E 0 90 60 60
        E 30 80 18 00
        E 0 80 60 00
        E 11 90 1a 60
        E 0 90 2a 60
        E 0 90 3d 60
        E 0 90 49 60
        E 0 90 4b 60
        E 0 90 55 60
        E 0 90 57 60
        E 0 90 61 60
        E 0 90 63 60
        E 30 80 1a 00
        E 0 80 2a 00
        E 0 80 3d 00
        E 0 80 49 00
        E 0 80 4b 00
        E 0 80 55 00
        E 0 80 57 00
        E 0 80 61 00
        E 0 80 63 00
        E 130 90 2b 60
        E 0 90 63 60
        E 30 80 2b 00
        E 0 80 63 00
        E 50 90 1b 60
        E 0 90 55 60
        E 0 90 61 60
        E 30 80 1b 00
        E 0 80 55 00
        E 0 80 61 00
        E 50 90 2b 60
        E 0 90 63 60
        E 30 80 2b 00
        E 0 80 63 00
        E 50 90 1b 60
        E 0 90 61 60
        E 30 80 1b 00
        E 0 80 61 00
        E 50 90 18 60
        E 0 90 2b 60
        E 0 90 3f 60
        E 0 90 48 60
        E 0 90 4b 60
        E 0 90 54 60
        E 0 90 57 60
        E 0 90 60 60
        E 0 90 63 60
        E 30 80 18 00
        E 0 80 2b 00
        E 0 80 3f 00
        E 0 80 48 00
        E 0 80 4b 00
        E 0 80 54 00
        E 0 80 57 00
        E 0 80 60 00
        E 0 80 63 00
        E 50 90 1b 60
        E 0 90 61 60
        E 30 80 1b 00
        E 0 80 61 00
        E 50 90 18 60
        E 0 90 2b 60
        E 0 90 60 60
        E 0 90 63 60
        E 30 80 18 00
        E 0 80 2b 00
        E 0 80 60 00
        E 0 80 63 00
        E 50 90 1b 60
        E 0 90 55 60
        E 0 90 61 60
        E 30 80 1b 00
        E 0 80 55 00
        E 0 80 61 00
        E 50 90 2b 60
        E 0 90 63 60
        E 30 80 2b 00
        E 0 80 63 00
        E 50 90 18 60
        E 0 90 60 60
        E 30 80 18 00
        E 0 80 60 00
        E 10 90 18 60
        E 0 90 60 60
        E 30 80 18 00
        E 0 80 60 00
        E 10 90 1a 60
        E 0 90 2a 60
        E 0 90 3d 60
        E 0 90 49 60
        E 0 90 4b 60
        E 0 90 55 60
        E 0 90 57 60
        E 0 90 61 60
        E 0 90 63 60
        E 30 80 1a 00
        E 0 80 2a 00
        E 0 80 3d 00
        E 0 80 49 00
        E 0 80 4b 00
        E 0 80 55 00
        E 0 80 57 00
        E 0 80 61 00
        E 0 80 63 00
        E 130 90 1a 60
        E 0 90 61 60
        E 30 80 1a 00
        E 0 80 61 00
        E 50 90 1b 60
        E 0 90 55 60
        E 0 90 61 60
        E 30 80 1b 00
        E 0 80 55 00
        E 0 80 61 00
        E 130 90 1a 60
        E 0 90 61 60
        E 30 80 1a 00
        E 0 80 61 00
        E 50 90 1b 60
        E 0 90 3d 60
        E 0 90 49 60
        E 0 90 55 60
        E 0 90 61 60
        E 30 80 1b 00
        E 0 80 3d 00
        E 0 80 49 00
        E 0 80 55 00
        E 0 80 61 00
        E 50 90 1a 60
        E 0 90 61 60
        E 30 80 1a 00
        E 0 80 61 00
        E 50 90 2f 60
        E 0 90 62 60
        E 0 90 6e 60
        E 30 80 2f 00
        E 0 80 62 00
        E 0 80 6e 00
        E 50 90 2e 60
        E 0 90 56 60
        E 0 90 62 60
        E 0 90 6e 60
        E 30 80 2e 00
        E 0 80 56 00
        E 0 80 62 00
        E 0 80 6e 00
        E 50 90 31 60
        E 0 90 63 60
        E 0 90 6f 60
        E 30 80 31 00
        E 0 80 63 00
        E 0 80 6f 00
        E 50 90 18 60
        E 0 90 60 60
        E 30 80 18 00
        E 0 80 60 00
        E 50 90 1a 60
        E 0 90 24 60
        E 0 90 3d 60
        E 0 90 49 60
        E 0 90 4c 60
        E 0 90 55 60
        E 0 90 58 60
        E 0 90 61 60
        E 0 90 64 60
        E 30 80 1a 00
        E 0 80 24 00
        E 0 80 3d 00
        E 0 80 49 00
        E 0 80 4c 00
        E 0 80 55 00
        E 0 80 58 00
        E 0 80 61 00
        E 0 80 64 00
        E 130 90 2b 60
        E 0 90 63 60
        E 30 80 2b 00
        E 0 80 63 00
        E 50 90 1b 60
        E 0 90 55 60
        E 0 90 61 60
        E 30 80 1b 00
        E 0 80 55 00
        E 0 80 61 00
        E 50 90 18 60
        E 0 90 2b 60
        E 0 90 60 60
        E 0 90 63 60
        E 30 80 18 00
        E 0 80 2b 00
        E 0 80 60 00
        E 0 80 63 00
        E 50 90 1b 60
        E 0 90 61 60
        E 30 80 1b 00
        E 0 80 61 00
        E 50 90 18 60
        E 0 90 2b 60
        E 0 90 3f 60
        E 0 90 48 60
        E 0 90 4b 60
        E 0 90 54 60
        E 0 90 57 60
        E 0 90 60 60
        E 0 90 63 60
        E 30 80 18 00
        E 0 80 2b 00
        E 0 80 3f 00
        E 0 80 48 00
        E 0 80 4b 00
        E 0 80 54 00
        E 0 80 57 00
        E 0 80 60 00
        E 0 80 63 00
        E 50 90 1b 60
        E 0 90 61 60
        E 30 80 1b 00
        E 0 80 61 00
        E 50 90 18 60
        E 0 90 2b 60
        E 0 90 60 60
        E 0 90 63 60
        E 30 80 18 00
        E 0 80 2b 00
        E 0 80 60 00
        E 0 80 63 00
        E 50 90 1b 60
        E 0 90 55 60
        E 0 90 61 60
        E 30 80 1b 00
        E 0 80 55 00
        E 0 80 61 00
        E 50 90 2b 60
        E 0 90 63 60
        E 30 80 2b 00
        E 0 80 63 00
        E 50 90 18 60
        E 0 90 60 60
        E 30 80 18 00
        E 0 80 60 00
        E 10 90 18 60
        E 0 90 60 60
        E 30 80 18 00
        E 0 80 60 00
        E 10 90 1a 60
        E 0 90 2a 60
        E 0 90 3d 60
        E 0 90 49 60
        E 0 90 4b 60
        E 0 90 55 60
        E 0 90 57 60
        E 0 90 61 60
        E 0 90 63 60
        E 30 80 1a 00
        E 0 80 2a 00
        E 0 80 3d 00
        E 0 80 49 00
        E 0 80 4b 00
        E 0 80 55 00
        E 0 80 57 00
        E 0 80 61 00
        E 0 80 63 00
        E 130 90 2b 60
        E 0 90 63 60
        E 30 80 2b 00
        E 0 80 63 00
        E 50 90 1b 60
        E 0 90 55 60
        E 0 90 61 60
        E 30 80 1b 00
        E 0 80 55 00
        E 0 80 61 00
        E 50 90 2b 60
        E 0 90 63 60
        E 30 80 2b 00
        E 0 80 63 00
        E 50 90 1b 60
        E 0 90 61 60
        E 30 80 1b 00
        E 0 80 61 00
        E 50 90 18 60
        E 0 90 2b 60
        E 0 90 3f 60
        E 0 90 48 60
        E 0 90 4b 60
        E 0 90 54 60
        E 0 90 57 60
        E 0 90 60 60
        E 0 90 63 60
        E 30 80 18 00
        E 0 80 2b 00
        E 0 80 3f 00
        E 0 80 48 00
        E 0 80 4b 00
        E 0 80 54 00
        E 0 80 57 00
        E 0 80 60 00
        E 0 80 63 00
        E 50 90 1b 60
        E 0 90 61 60
        E 30 80 1b 00
        E 0 80 61 00
        E 50 90 18 60
        E 0 90 2b 60
        E 0 90 60 60
        E 0 90 63 60
        E 30 80 18 00
        E 0 80 2b 00
        E 0 80 60 00
        E 0 80 63 00
        E 50 90 1b 60
        E 0 90 55 60
        E 0 90 61 60
        E 30 80 1b 00
        E 0 80 55 00
        E 0 80 61 00
        E 49 90 2b 60
        E 0 90 63 60
        E 30 80 2b 00
        E 0 80 63 00
        E 50 90 18 60
        E 0 90 60 60
        E 30 80 18 00
        E 0 80 60 00
        E 10 90 18 60
        E 0 90 60 60
        E 30 80 18 00
        E 0 80 60 00
        E 11 90 1a 60
        E 0 90 2a 60
        E 0 90 3d 60
        E 0 90 49 60
        E 0 90 4b 60
        E 0 90 55 60
        E 0 90 57 60
        E 0 90 61 60
        E 0 90 63 60
        E 30 80 1a 00
        E 0 80 2a 00
        E 0 80 3d 00
        E 0 80 49 00
        E 0 80 4b 00
        E 0 80 55 00
        E 0 80 57 00
        E 0 80 61 00
        E 0 80 63 00
        E 130 90 2b 60
        E 0 90 63 60
        E 30 80 2b 00
        E 0 80 63 00
        E 50 90 1b 60
        E 0 90 55 60
        E 0 90 61 60
        E 30 80 1b 00
        E 0 80 55 00
        E 0 80 61 00
        E 50 90 2b 60
        E 0 90 63 60
        E 30 80 2b 00
        E 0 80 63 00
        E 50 90 1b 60
        E 0 90 61 60
        E 30 80 1b 00
        E 0 80 61 00
        E 50 90 18 60
        E 0 90 2b 60
        E 0 90 3f 60
        E 0 90 48 60
        E 0 90 4b 60
        E 0 90 54 60
        E 0 90 57 60
        E 0 90 60 60
        E 0 90 63 60
        E 30 80 18 00
        E 0 80 2b 00
        E 0 80 3f 00
        E 0 80 48 00
        E 0 80 4b 00
        E 0 80 54 00
        E 0 80 57 00
        E 0 80 60 00
        E 0 80 63 00
        E 50 90 1b 60
        E 0 90 61 60
        E 30 80 1b 00
        E 0 80 61 00
        E 50 90 18 60
        E 0 90 2b 60
        E 0 90 60 60
        E 0 90 63 60
        E 30 80 18 00
        E 0 80 2b 00
        E 0 80 60 00
        E 0 80 63 00
        E 50 90 1b 60
        E 0 90 55 60
        E 0 90 61 60
        E 30 80 1b 00
        E 0 80 55 00
        E 0 80 61 00
        E 49 90 2b 60
        E 0 90 63 60
        E 30 80 2b 00
        E 0 80 63 00
        E 50 90 18 60
        E 0 90 60 60
        E 30 80 18 00
        E 0 80 60 00
        E 10 90 18 60
        E 0 90 60 60
        E 30 80 18 00
        E 0 80 60 00
        E 11 90 1a 60
        E 0 90 2a 60
        E 0 90 3d 60
        E 0 90 49 60
        E 0 90 4b 60
        E 0 90 55 60
        E 0 90 57 60
        E 0 90 61 60
        E 0 90 63 60
        E 30 80 1a 00
        E 0 80 2a 00
        E 0 80 3d 00
        E 0 80 49 00
        E 0 80 4b 00
        E 0 80 55 00
        E 0 80 57 00
        E 0 80 61 00
        E 0 80 63 00
        E 130 90 1a 60
        E 0 90 61 60
        E 30 80 1a 00
        E 0 80 61 00
        E 50 90 1b 60
        E 0 90 55 60
        E 0 90 61 60
        E 30 80 1b 00
        E 0 80 55 00
        E 0 80 61 00
        E 129 90 1a 60
        E 0 90 61 60
        E 30 80 1a 00
        E 0 80 61 00
        E 51 90 18 60
        E 0 90 24 60
        E 0 90 40 60
        E 0 90 48 60
        E 0 90 4c 60
        E 0 90 54 60
        E 0 90 58 60
        E 0 90 60 60
        E 0 90 64 60
        E 30 80 18 00
        E 0 80 24 00
        E 0 80 40 00
        E 0 80 48 00
        E 0 80 4c 00
        E 0 80 54 00
        E 0 80 58 00
        E 0 80 60 00
        E 0 80 64 00
        E 50 90 1a 60
        E 0 90 61 60
        E 30 80 1a 00
        E 0 80 61 00
        E 50 90 1b 60
        E 0 90 61 60
        E 30 80 1b 00
        E 0 80 61 00
        E 50 90 1a 60
        E 0 90 55 60
        E 0 90 61 60
        E 30 80 1a 00
        E 0 80 55 00
        E 0 80 61 00
        E 50 90 18 60
        E 0 90 60 60
        E 30 80 18 00
        E 0 80 60 00
        E 50 90 18 60
        E 0 90 60 60
        E 30 80 18 00
        E 0 80 60 00
        E 50 90 1a 60
        E 0 90 24 60
        E 0 90 3d 60
        E 0 90 49 60
        E 0 90 4c 60
        E 0 90 55 60
        E 0 90 58 60
        E 0 90 61 60
        E 0 90 64 60
        E 30 80 1a 00
        E 0 80 24 00
        E 0 80 3d 00
        E 0 80 49 00
        E 0 80 4c 00
        E 0 80 55 00
        E 0 80 58 00
        E 0 80 61 00
        E 0 80 64 00
        E 130 90 2b 60
        E 0 90 63 60
        E 30 80 2b 00
        E 0 80 63 00
        E 50 90 1b 60
        E 0 90 55 60
        E 0 90 61 60
        E 30 80 1b 00
        E 0 80 55 00
        E 0 80 61 00
        E 50 90 18 60
        E 0 90 22 60
        E 0 90 60 60
        E 0 90 64 60
        E 30 80 18 00
        E 0 80 22 00
        E 0 80 60 00
        E 0 80 64 00
        E 50 90 1b 60
        E 0 90 61 60
        E 30 80 1b 00
        E 0 80 61 00
        E 50 90 18 60
        E 0 90 22 60
        E 0 90 40 60
        E 0 90 48 60
        E 0 90 4c 60
        E 0 90 54 60
        E 0 90 58 60
        E 0 90 60 60
        E 0 90 64 60
        E 30 80 18 00
        E 0 80 22 00
        E 0 80 40 00
        E 0 80 48 00
        E 0 80 4c 00
        E 0 80 54 00
        E 0 80 58 00
        E 0 80 60 00
        E 0 80 64 00
        E 50 90 1b 60
        E 0 90 61 60
        E 30 80 1b 00
        E 0 80 61 00
        E 50 90 18 60
        E 0 90 2b 60
        E 0 90 60 60
        E 0 90 63 60
        E 30 80 18 00
        E 0 80 2b 00
        E 0 80 60 00
        E 0 80 63 00
        E 50 90 1b 60
        E 0 90 55 60
        E 0 90 61 60
        E 30 80 1b 00
        E 0 80 55 00
        E 0 80 61 00
        E 49 90 2b 60
        E 0 90 63 60
        E 30 80 2b 00
        E 0 80 63 00
        E 50 90 18 60
        E 0 90 60 60
        E 30 80 18 00
        E 0 80 60 00
        E 10 90 18 60
        E 0 90 60 60
        E 30 80 18 00
        E 0 80 60 00
        E 11 90 1a 60
        E 0 90 2a 60
        E 0 90 3d 60
        E 0 90 49 60
        E 0 90 4b 60
        E 0 90 55 60
        E 0 90 57 60
        E 0 90 61 60
        E 0 90 63 60
        E 30 80 1a 00
        E 0 80 2a 00
        E 0 80 3d 00
        E 0 80 49 00
        E 0 80 4b 00
        E 0 80 55 00
        E 0 80 57 00
        E 0 80 61 00
        E 0 80 63 00
        E 130 90 2b 60
        E 0 90 63 60
        E 30 80 2b 00
        E 0 80 63 00
        E 50 90 1b 60
        E 0 90 55 60
        E 0 90 61 60
        E 30 80 1b 00
        E 0 80 55 00
        E 0 80 61 00
        E 50 90 18 60
        E 0 90 2b 60
        E 0 90 60 60
        E 0 90 63 60
        E 30 80 18 00
        E 0 80 2b 00
        E 0 80 60 00
        E 0 80 63 00
        E 49 90 1b 60
        E 0 90 61 60
        E 30 80 1b 00
        E 0 80 61 00
        E 51 90 18 60
        E 0 90 2b 60
        E 0 90 3f 60
        E 0 90 48 60
        E 0 90 4b 60
        E 0 90 54 60
        E 0 90 57 60
        E 0 90 60 60
        E 0 90 63 60
        E 30 80 18 00
        E 0 80 2b 00
        E 0 80 3f 00
        E 0 80 48 00
        E 0 80 4b 00
        E 0 80 54 00
        E 0 80 57 00
        E 0 80 60 00
        E 0 80 63 00
        E 50 90 1b 60
        E 0 90 61 60
        E 30 80 1b 00
        E 0 80 61 00
        E 50 90 1a 60
        E 0 90 61 60
        E 30 80 1a 00
        E 0 80 61 00
        E 10 90 1b 60
        E 0 90 61 60
        E 30 80 1b 00
        E 0 80 61 00
        E 10 90 1a 60
        E 0 90 55 60
        E 0 90 61 60
        E 30 80 1a 00
        E 0 80 55 00
        E 0 80 61 00
        E 50 90 1b 60
        E 0 90 61 60
        E 30 80 1b 00
        E 0 80 61 00
        E 50 90 1a 60
        E 0 90 61 60
        E 30 80 1a 00
        E 0 80 61 00
        E 50 90 18 60
        E 0 90 24 60
        E 0 90 40 60
        E 0 90 48 60
        E 0 90 4c 60
        E 0 90 54 60
        E 0 90 58 60
        E 0 90 60 60
        E 0 90 64 60
        E 30 80 18 00
        E 0 80 24 00
        E 0 80 40 00
        E 0 80 48 00
        E 0 80 4c 00
        E 0 80 54 00
        E 0 80 58 00
        E 0 80 60 00
        E 0 80 64 00
        E 50 90 1a 60
        E 0 90 61 60
        E 30 80 1a 00
        E 0 80 61 00
        E 50 90 1b 60
        E 0 90 61 60
        E 30 80 1b 00
        E 0 80 61 00
        E 10 90 1a 60
        E 0 90 61 60
        E 30 80 1a 00
        E 0 80 61 00
        E 10 90 1b 60
        E 0 90 55 60
        E 0 90 61 60
        E 30 80 1b 00
        E 0 80 55 00
        E 0 80 61 00
        E 50 90 1a 60
        E 0 90 61 60
        E 30 80 1a 00
        E 0 80 61 00
        E 50 90 1b 60
        E 0 90 61 60
        E 30 80 1b 00
        E 0 80 61 00
        E 50 90 18 60
        E 0 90 22 60
        E 0 90 40 60
        E 0 90 48 60
        E 0 90 4c 60
        E 0 90 54 60
        E 0 90 58 60
        E 0 90 60 60
        E 0 90 64 60
        E 30 80 18 00
        E 0 80 22 00
        E 0 80 40 00
        E 0 80 48 00
        E 0 80 4c 00
        E 0 80 54 00
        E 0 80 58 00
        E 0 80 60 00
        E 0 80 64 00
        E 50 90 1b 60
        E 0 90 61 60
        E 30 80 1b 00
        E 0 80 61 00
        E 50 90 1a 60
        E 0 90 61 60
        E 30 80 1a 00
        E 0 80 61 00
        E 50 90 1b 60
        E 0 90 55 60
        E 0 90 61 60
        E 30 80 1b 00
        E 0 80 55 00
        E 0 80 61 00
        E 50 90 2e 60
        E 0 90 62 60
        E 0 90 6e 60
        E 30 80 2e 00
        E 0 80 62 00
        E 0 80 6e 00
        E 50 90 1b 60
        E 0 90 61 60
        E 30 80 1b 00
        E 0 80 61 00
        E 50 90 1a 60
        E 0 90 3d 60
        E 0 90 49 60
        E 0 90 55 60
        E 0 90 61 60
        E 30 80 1a 00
        E 0 80 3d 00
        E 0 80 49 00
        E 0 80 55 00
        E 0 80 61 00
        E 50 90 1b 60
        E 0 90 61 60
        E 30 80 1b 00
        E 0 80 61 00
        E 50 90 2e 60
        E 0 90 62 60
        E 0 90 6e 60
        E 30 80 2e 00
        E 0 80 62 00
        E 0 80 6e 00
        E 50 90 2f 60
        E 0 90 56 60
        E 0 90 62 60
        E 0 90 6e 60
        E 30 80 2f 00
        E 0 80 56 00
        E 0 80 62 00
        E 0 80 6e 00
        E 50 90 30 60
        E 0 90 63 60
        E 0 90 6f 60
        E 30 80 30 00
        E 0 80 63 00
        E 0 80 6f 00
        E 49 90 31 60
        E 0 90 63 60
        E 0 90 6f 60
        E 30 80 31 00
        E 0 80 63 00
        E 0 80 6f 00
        E 51 90 18 60
        E 0 90 22 60
        E 0 90 40 60
        E 0 90 48 60
        E 0 90 4c 60
        E 0 90 54 60
        E 0 90 58 60
        E 0 90 60 60
        E 0 90 64 60
        E 30 80 18 00
        E 0 80 22 00
        E 0 80 40 00
        E 0 80 48 00
        E 0 80 4c 00
        E 0 80 54 00
        E 0 80 58 00
        E 0 80 60 00
        E 0 80 64 00
        E 130 90 18 60
        E 0 90 1f 60
        E 0 90 60 60
        E 0 90 62 60
        E 30 80 18 00
        E 0 80 1f 00
        E 0 80 60 00
        E 0 80 62 00
        E 50 90 1a 60
        E 0 90 55 60
        E 0 90 61 60
        E 30 80 1a 00
        E 0 80 55 00
        E 0 80 61 00
        E 50 90 1f 60
        E 0 90 62 60
        E 30 80 1f 00
        E 0 80 62 00
        E 50 90 18 60
        E 0 90 60 60
        E 30 80 18 00
        E 0 80 60 00
        E 50 90 1a 60
        E 0 90 1f 60
        E 0 90 3d 60
        E 0 90 49 60
        E 0 90 4a 60
        E 0 90 55 60
        E 0 90 56 60
        E 0 90 61 60
        E 0 90 62 60
        E 30 80 1a 00
        E 0 80 1f 00
        E 0 80 3d 00
        E 0 80 49 00
        E 0 80 4a 00
        E 0 80 55 00
        E 0 80 56 00
        E 0 80 61 00
        E 0 80 62 00
        E 130 90 1e 60
        E 0 90 62 60
        E 30 80 1e 00
        E 0 80 62 00
        E 50 90 1b 60
        E 0 90 55 60
        E 0 90 61 60
        E 30 80 1b 00
        E 0 80 55 00
        E 0 80 61 00
        E 50 90 18 60
        E 0 90 1e 60
        E 0 90 60 60
        E 0 90 62 60
        E 30 80 18 00
        E 0 80 1e 00
        E 0 80 60 00
        E 0 80 62 00
        E 50 90 1b 60
        E 0 90 61 60
        E 30 80 1b 00
        E 0 80 61 00
        E 50 90 18 60
        E 0 90 1e 60
        E 0 90 3e 60
        E 0 90 48 60
        E 0 90 4a 60
        E 0 90 54 60
        E 0 90 56 60
        E 0 90 60 60
        E 0 90 62 60
        E 30 80 18 00
        E 0 80 1e 00
        E 0 80 3e 00
        E 0 80 48 00
        E 0 80 4a 00
        E 0 80 54 00
        E 0 80 56 00
        E 0 80 60 00
        E 0 80 62 00
        E 50 90 1b 60
        E 0 90 61 60
        E 30 80 1b 00
        E 0 80 61 00
        E 50 90 18 60
        E 0 90 1e 60
        E 0 90 60 60
        E 0 90 62 60
        E 30 80 18 00
        E 0 80 1e 00
        E 0 80 60 00
        E 0 80 62 00
        E 50 90 1b 60
        E 0 90 55 60
        E 0 90 61 60
        E 30 80 1b 00
        E 0 80 55 00
        E 0 80 61 00
        E 50 90 18 60
        E 0 90 1e 60
        E 0 90 60 60
        E 0 90 62 60
        E 30 80 18 00
        E 0 80 1e 00
        E 0 80 60 00
        E 0 80 62 00
        E 50 90 18 60
        E 0 90 60 60
        E 30 80 18 00
        E 0 80 60 00
        E 50 90 1a 60
        E 0 90 1f 60
        E 0 90 3d 60
        E 0 90 49 60
        E 0 90 4a 60
        E 0 90 55 60
        E 0 90 56 60
        E 0 90 61 60
        E 0 90 62 60
        E 30 80 1a 00
        E 0 80 1f 00
        E 0 80 3d 00
        E 0 80 49 00
        E 0 80 4a 00
        E 0 80 55 00
        E 0 80 56 00
        E 0 80 61 00
        E 0 80 62 00
        E 130 90 18 60
        E 0 90 1e 60
        E 0 90 60 60
        E 0 90 62 60
        E 30 80 18 00
        E 0 80 1e 00
        E 0 80 60 00
        E 0 80 62 00
        E 50 90 1b 60
        E 0 90 55 60
        E 0 90 61 60
        E 30 80 1b 00
        E 0 80 55 00
        E 0 80 61 00
        E 50 90 1e 60
        E 0 90 62 60
        E 30 80 1e 00
        E 0 80 62 00
        E 50 90 1b 60
        E 0 90 61 60
        E 30 80 1b 00
        E 0 80 61 00
        E 50 90 18 60
        E 0 90 1e 60
        E 0 90 3e 60
        E 0 90 48 60
        E 0 90 4a 60
        E 0 90 54 60
        E 0 90 56 60
        E 0 90 60 60
        E 0 90 62 60
        E 30 80 18 00
        E 0 80 1e 00
        E 0 80 3e 00
        E 0 80 48 00
        E 0 80 4a 00
        E 0 80 54 00
        E 0 80 56 00
        E 0 80 60 00
        E 0 80 62 00
        E 50 90 1b 60
        E 0 90 61 60
        E 30 80 1b 00
        E 0 80 61 00
        E 50 90 1e 60
        E 0 90 62 60
        E 30 80 1e 00
        E 0 80 62 00
        E 50 90 1b 60
        E 0 90 55 60
        E 0 90 61 60
        E 30 80 1b 00
        E 0 80 55 00
        E 0 80 61 00
        E 50 90 18 60
        E 0 90 1e 60
        E 0 90 60 60
        E 0 90 62 60
        E 30 80 18 00
        E 0 80 1e 00
        E 0 80 60 00
        E 0 80 62 00
        E 50 90 18 60
        E 0 90 60 60
        E 30 80 18 00
        E 0 80 60 00
        E 50 90 1a 60
        E 0 90 1f 60
        E 0 90 3d 60
        E 0 90 49 60
        E 0 90 4a 60
        E 0 90 55 60
        E 0 90 56 60
        E 0 90 61 60
        E 0 90 62 60
        E 30 80 1a 00
        E 0 80 1f 00
        E 0 80 3d 00
        E 0 80 49 00
        E 0 80 4a 00
        E 0 80 55 00
        E 0 80 56 00
        E 0 80 61 00
        E 0 80 62 00
        E 130 90 1e 60
        E 0 90 62 60
        E 30 80 1e 00
        E 0 80 62 00
        E 50 90 1b 60
        E 0 90 55 60
        E 0 90 61 60
        E 30 80 1b 00
        E 0 80 55 00
        E 0 80 61 00
        E 50 90 18 60
        E 0 90 1e 60
        E 0 90 60 60
        E 0 90 62 60
        E 30 80 18 00
        E 0 80 1e 00
        E 0 80 60 00
        E 0 80 62 00
        E 50 90 1b 60
        E 0 90 61 60
        E 30 80 1b 00
        E 0 80 61 00
        E 50 90 18 60
        E 0 90 1e 60
        E 0 90 3e 60
        E 0 90 48 60
        E 0 90 4a 60
        E 0 90 54 60
        E 0 90 56 60
        E 0 90 60 60
        E 0 90 62 60
        E 30 80 18 00
        E 0 80 1e 00
        E 0 80 3e 00
        E 0 80 48 00
        E 0 80 4a 00
        E 0 80 54 00
        E 0 80 56 00
        E 0 80 60 00
        E 0 80 62 00
        E 50 90 1b 60
        E 0 90 61 60
        E 30 80 1b 00
        E 0 80 61 00
        E 50 90 18 60
        E 0 90 1e 60
        E 0 90 60 60
        E 0 90 62 60
        E 30 80 18 00
        E 0 80 1e 00
        E 0 80 60 00
        E 0 80 62 00
        E 50 90 1b 60
        E 0 90 55 60
        E 0 90 61 60
        E 30 80 1b 00
        E 0 80 55 00
        E 0 80 61 00
        E 50 90 18 60
        E 0 90 1e 60
        E 0 90 60 60
        E 0 90 62 60
        E 30 80 18 00
        E 0 80 1e 00
        E 0 80 60 00
        E 0 80 62 00
        E 50 90 18 60
        E 0 90 60 60
        E 30 80 18 00
        E 0 80 60 00
        E 50 90 1a 60
        E 0 90 1f 60
        E 0 90 3d 60
        E 0 90 49 60
        E 0 90 4a 60
        E 0 90 55 60
        E 0 90 56 60
        E 0 90 61 60
        E 0 90 62 60
        E 30 80 1a 00
        E 0 80 1f 00
        E 0 80 3d 00
        E 0 80 49 00
        E 0 80 4a 00
        E 0 80 55 00
        E 0 80 56 00
        E 0 80 61 00
        E 0 80 62 00
        E 130 90 18 60
        E 0 90 1e 60
        E 0 90 60 60
        E 0 90 62 60
        E 30 80 18 00
        E 0 80 1e 00
        E 0 80 60 00
        E 0 80 62 00
        E 50 90 1b 60
        E 0 90 55 60
        E 0 90 61 60
        E 30 80 1b 00
        E 0 80 55 00
        E 0 80 61 00
        E 50 90 1e 60
        E 0 90 62 60
        E 30 80 1e 00
        E 0 80 62 00
        E 50 90 1b 60
        E 0 90 61 60
        E 30 80 1b 00
        E 0 80 61 00
        E 50 90 18 60
        E 0 90 1e 60
        E 0 90 3e 60
        E 0 90 48 60
        E 0 90 4a 60
        E 0 90 54 60
        E 0 90 56 60
        E 0 90 60 60
        E 0 90 62 60
        E 0 90 74 60
        E 30 80 18 00
        E 0 80 1e 00
        E 0 80 3e 00
        E 0 80 48 00
        E 0 80 4a 00
        E 0 80 54 00
        E 0 80 56 00
        E 0 80 60 00
        E 0 80 62 00
        E 50 90 1b 60
        E 0 90 61 60
        E 30 80 1b 00
        E 0 80 61 00
        E 50 90 1e 60
        E 0 90 62 60
        E 30 80 1e 00
        E 0 80 62 00
        E 50 90 1b 60
        E 0 90 55 60
        E 0 90 61 60
        E 30 80 1b 00
        E 0 80 55 00
        E 0 80 61 00
        E 50 90 18 60
        E 0 90 1e 60
        E 0 90 60 60
        E 0 90 62 60
        E 30 80 18 00
        E 0 80 1e 00
        E 0 80 60 00
        E 0 80 62 00
        E 50 90 18 60
        E 0 90 60 60
        E 30 80 18 00
        E 0 80 60 00
        E 50 90 1a 60
        E 0 90 1f 60
        E 0 90 3d 60
        E 0 90 49 60
        E 0 90 4a 60
        E 0 90 55 60
        E 0 90 56 60
        E 0 90 61 60
        E 0 90 62 60
        E 30 80 1a 00
        E 0 80 1f 00
        E 0 80 3d 00
        E 0 80 49 00
        E 0 80 4a 00
        E 0 80 55 00
        E 0 80 56 00
        E 0 80 61 00
        E 0 80 62 00
        E 130 90 1e 60
        E 0 90 62 60
        E 30 80 1e 00
        E 0 80 62 00
        E 50 90 1b 60
        E 0 90 55 60
        E 0 90 61 60
        E 30 80 1b 00
        E 0 80 55 00
        E 0 80 61 00
        E 50 90 18 60
        E 0 90 1e 60
        E 0 90 60 60
        E 0 90 62 60
        E 30 80 18 00
        E 0 80 1e 00
        E 0 80 60 00
        E 0 80 62 00
        E 50 90 1b 60
        E 0 90 61 60
        E 30 80 1b 00
        E 0 80 61 00
        E 50 90 18 60
        E 0 90 1e 60
        E 0 90 3e 60
        E 0 90 48 60
        E 0 90 4a 60
        E 0 90 54 60
        E 0 90 56 60
        E 0 90 60 60
        E 0 90 62 60
        E 30 80 18 00
        E 0 80 1e 00
        E 0 80 3e 00
        E 0 80 48 00
        E 0 80 4a 00
        E 0 80 54 00
        E 0 80 56 00
        E 0 80 60 00
        E 0 80 62 00
        E 50 90 1b 60
        E 0 90 61 60
        E 30 80 1b 00
        E 0 80 61 00
        E 50 90 1e 60
        E 0 90 62 60
        E 30 80 1e 00
        E 0 80 62 00
        E 50 90 1b 60
        E 0 90 55 60
        E 0 90 61 60
        E 30 80 1b 00
        E 0 80 55 00
        E 0 80 61 00
        E 50 90 18 60
        E 0 90 1e 60
        E 0 90 60 60
        E 0 90 62 60
        E 30 80 18 00
        E 0 80 1e 00
        E 0 80 60 00
        E 0 80 62 00
        E 50 90 18 60
        E 0 90 60 60
        E 30 80 18 00
        E 0 80 60 00
        E 50 90 1a 60
        E 0 90 1f 60
        E 0 90 3d 60
        E 0 90 49 60
        E 0 90 4a 60
        E 0 90 55 60
        E 0 90 56 60
        E 0 90 61 60
        E 0 90 62 60
        E 30 80 1a 00
        E 0 80 1f 00
        E 0 80 3d 00
        E 0 80 49 00
        E 0 80 4a 00
        E 0 80 55 00
        E 0 80 56 00
        E 0 80 61 00
        E 0 80 62 00
        E 130 90 18 60
        E 0 90 1e 60
        E 0 90 60 60
        E 0 90 62 60
        E 30 80 18 00
        E 0 80 1e 00
        E 0 80 60 00
        E 0 80 62 00
        E 50 90 1b 60
        E 0 90 55 60
        E 0 90 61 60
        E 30 80 1b 00
        E 0 80 55 00
        E 0 80 61 00
        E 50 90 1e 60
        E 0 90 62 60
        E 30 80 1e 00
        E 0 80 62 00
        E 50 90 1b 60
        E 0 90 61 60
        E 30 80 1b 00
        E 0 80 61 00
        E 50 80 74 00
        E 0 90 18 60
        E 0 90 1e 60
        E 0 90 3e 60
        E 0 90 48 60
        E 0 90 4a 60
        E 0 90 54 60
        E 0 90 56 60
        E 0 90 60 60
        E 0 90 62 60
        E 30 80 18 00
        E 0 80 1e 00
        E 0 80 3e 00
        E 0 80 48 00
        E 0 80 4a 00
        E 0 80 54 00
        E 0 80 56 00
        E 0 80 60 00
        E 0 80 62 00
        E 50 90 1b 60
        E 0 90 61 60
        E 30 80 1b 00
        E 0 80 61 00
        E 50 90 1a 60
        E 0 90 61 60
        E 30 80 1a 00
        E 0 80 61 00
        E 50 90 1b 60
        E 0 90 55 60
        E 0 90 61 60
        E 30 80 1b 00
        E 0 80 55 00
        E 0 80 61 00
        E 50 90 1a 60
        E 0 90 61 60
        E 30 80 1a 00
        E 0 80 61 00
        E 50 90 1b 60
        E 0 90 61 60
        E 30 80 1b 00
        E 0 80 61 00
        E 50 90 18 60
        E 0 90 22 60
        E 0 90 40 60
        E 0 90 48 60
        E 0 90 4c 60
        E 0 90 54 60
        E 0 90 58 60
        E 0 90 60 60
        E 0 90 64 60
        E 30 80 18 00
        E 0 80 22 00
        E 0 80 40 00
        E 0 80 48 00
        E 0 80 4c 00
        E 0 80 54 00
        E 0 80 58 00
        E 0 80 60 00
        E 0 80 64 00
        E 50 90 1b 60
        E 0 90 61 60
        E 30 80 1b 00
        E 0 80 61 00
        E 50 90 1a 60
        E 0 90 61 60
        E 30 80 1a 00
        E 0 80 61 00
        E 50 90 1b 60
        E 0 90 55 60
        E 0 90 61 60
        E 30 80 1b 00
        E 0 80 55 00
        E 0 80 61 00
        E 50 90 1a 60
        E 0 90 61 60
        E 30 80 1a 00
        E 0 80 61 00
        E 50 90 1b 60
        E 0 90 61 60
        E 30 80 1b 00
        E 0 80 61 00
        E 50 90 18 60
        E 0 90 22 60
        E 0 90 40 60
        E 0 90 48 60
        E 0 90 4c 60
        E 0 90 54 60
        E 0 90 58 60
        E 0 90 60 60
        E 0 90 64 60
        E 0 90 78 60
        E 0 90 79 60
        E 0 90 7a 60
        E 0 90 7b 60
        E 0 90 7c 60
        E 30 80 18 00
        E 0 80 22 00
        E 0 80 40 00
        E 0 80 48 00
        E 0 80 4c 00
        E 0 80 54 00
        E 0 80 58 00
        E 0 80 60 00
        E 0 80 64 00
        E 50 90 1b 60
        E 0 90 61 60
        E 30 80 1b 00
        E 0 80 61 00
        E 50 90 1a 60
        E 0 90 61 60
        E 30 80 1a 00
        E 0 80 61 00
        E 50 90 1b 60
        E 0 90 55 60
        E 0 90 61 60
        E 30 80 1b 00
        E 0 80 55 00
        E 0 80 61 00
        E 50 90 2e 60
        E 0 90 62 60
        E 0 90 6e 60
        E 30 80 2e 00
        E 0 80 62 00
        E 0 80 6e 00
        E 50 90 1b 60
        E 0 90 61 60
        E 30 80 1b 00
        E 0 80 61 00
        E 50 90 1a 60
        E 0 90 3d 60
        E 0 90 49 60
        E 0 90 55 60
        E 0 90 61 60
        E 30 80 1a 00
        E 0 80 3d 00
        E 0 80 49 00
        E 0 80 55 00
        E 0 80 61 00
        E 50 90 1b 60
        E 0 90 61 60
        E 30 80 1b 00
        E 0 80 61 00
        E 50 90 2e 60
        E 0 90 62 60
        E 0 90 6e 60
        E 30 80 2e 00
        E 0 80 62 00
        E 0 80 6e 00
        E 50 90 2f 60
        E 0 90 56 60
        E 0 90 62 60
        E 0 90 6e 60
        E 30 80 2f 00
        E 0 80 56 00
        E 0 80 62 00
        E 0 80 6e 00
        E 50 90 30 60
        E 0 90 63 60
        E 0 90 6f 60
        E 30 80 30 00
        E 0 80 63 00
        E 0 80 6f 00
        E 50 90 31 60
        E 0 90 63 60
        E 0 90 6f 60
        E 30 80 31 00
        E 0 80 63 00
        E 0 80 6f 00
        E 50 80 78 00
        E 0 80 79 00
        E 0 80 7a 00
        E 0 80 7b 00
        E 0 80 7c 00
        E 0 90 18 60
        E 0 90 22 60
        E 0 90 40 60
        E 0 90 48 60
        E 0 90 4c 60
        E 0 90 54 60
        E 0 90 58 60
        E 0 90 60 60
        E 0 90 64 60
        E 30 80 18 00
        E 0 80 22 00
        E 0 80 40 00
        E 0 80 48 00
        E 0 80 4c 00
        E 0 80 54 00
        E 0 80 58 00
        E 0 80 60 00
        E 0 80 64 00
        E 130 90 1f 60
        E 0 90 62 60
        E 30 80 1f 00
        E 0 80 62 00
        E 50 90 1a 60
        E 0 90 55 60
        E 0 90 61 60
        E 30 80 1a 00
        E 0 80 55 00
        E 0 80 61 00
        E 50 90 18 60
        E 0 90 1f 60
        E 0 90 60 60
        E 0 90 62 60
        E 30 80 18 00
        E 0 80 1f 00
        E 0 80 60 00
        E 0 80 62 00
        E 50 90 18 60
        E 0 90 60 60
        E 30 80 18 00
        E 0 80 60 00
        E 50 90 1a 60
        E 0 90 1f 60
        E 0 90 3d 60
        E 0 90 49 60
        E 0 90 4a 60
        E 0 90 55 60
        E 0 90 56 60
        E 0 90 61 60
        E 0 90 62 60
        E 30 80 1a 00
        E 0 80 1f 00
        E 0 80 3d 00
        E 0 80 49 00
        E 0 80 4a 00
        E 0 80 55 00
        E 0 80 56 00
        E 0 80 61 00
        E 0 80 62 00
        E 130 90 1e 60
        E 0 90 62 60
        E 30 80 1e 00
        E 0 80 62 00
        E 50 90 1b 60
        E 0 90 55 60
        E 0 90 61 60
        E 30 80 1b 00
        E 0 80 55 00
        E 0 80 61 00
        E 50 90 18 60
        E 0 90 1e 60
        E 0 90 60 60
        E 0 90 62 60
        E 30 80 18 00
        E 0 80 1e 00
        E 0 80 60 00
        E 0 80 62 00
        E 50 90 1b 60
        E 0 90 61 60
        E 30 80 1b 00
        E 0 80 61 00
        E 50 90 18 60
        E 0 90 1e 60
        E 0 90 3e 60
        E 0 90 48 60
        E 0 90 4a 60
        E 0 90 54 60
        E 0 90 56 60
        E 0 90 60 60
        E 0 90 62 60
        E 30 80 18 00
        E 0 80 1e 00
        E 0 80 3e 00
        E 0 80 48 00
        E 0 80 4a 00
        E 0 80 54 00
        E 0 80 56 00
        E 0 80 60 00
        E 0 80 62 00
        E 50 90 1b 60
        E 0 90 61 60
        E 30 80 1b 00
        E 0 80 61 00
        E 50 90 1e 60
        E 0 90 62 60
        E 30 80 1e 00
        E 0 80 62 00
        E 50 90 1b 60
        E 0 90 55 60
        E 0 90 61 60
        E 30 80 1b 00
        E 0 80 55 00
        E 0 80 61 00
        E 50 90 18 60
        E 0 90 1e 60
        E 0 90 60 60
        E 0 90 62 60
        E 30 80 18 00
        E 0 80 1e 00
        E 0 80 60 00
        E 0 80 62 00
        E 50 90 18 60
        E 0 90 60 60
        E 30 80 18 00
        E 0 80 60 00
        E 50 90 1a 60
        E 0 90 1f 60
        E 0 90 3d 60
        E 0 90 49 60
        E 0 90 4a 60
        E 0 90 55 60
        E 0 90 56 60
        E 0 90 61 60
        E 0 90 62 60
        E 30 80 1a 00
        E 0 80 1f 00
        E 0 80 3d 00
        E 0 80 49 00
        E 0 80 4a 00
        E 0 80 55 00
        E 0 80 56 00
        E 0 80 61 00
        E 0 80 62 00
        E 130 90 18 60
        E 0 90 1e 60
        E 0 90 60 60
        E 0 90 62 60
        E 30 80 18 00
        E 0 80 1e 00
        E 0 80 60 00
        E 0 80 62 00
        E 50 90 1b 60
        E 0 90 55 60
        E 0 90 61 60
        E 30 80 1b 00
        E 0 80 55 00
        E 0 80 61 00
        E 50 90 1e 60
        E 0 90 62 60
        E 30 80 1e 00
        E 0 80 62 00
        E 50 90 1b 60
        E 0 90 61 60
        E 30 80 1b 00
        E 0 80 61 00
        E 50 90 18 60
        E 0 90 1e 60
        E 0 90 3e 60
        E 0 90 48 60
        E 0 90 4a 60
        E 0 90 54 60
        E 0 90 56 60
        E 0 90 60 60
        E 0 90 62 60
        E 30 80 18 00
        E 0 80 1e 00
        E 0 80 3e 00
        E 0 80 48 00
        E 0 80 4a 00
        E 0 80 54 00
        E 0 80 56 00
        E 0 80 60 00
        E 0 80 62 00
        E 50 90 1b 60
        E 0 90 61 60
        E 30 80 1b 00
        E 0 80 61 00
        E 50 90 1e 60
        E 0 90 62 60
        E 30 80 1e 00
        E 0 80 62 00
        E 50 90 1b 60
        E 0 90 55 60
        E 0 90 61 60
        E 30 80 1b 00
        E 0 80 55 00
        E 0 80 61 00
        E 50 90 18 60
        E 0 90 1e 60
        E 0 90 60 60
        E 0 90 62 60
        E 30 80 18 00
        E 0 80 1e 00
        E 0 80 60 00
        E 0 80 62 00
        E 50 90 18 60
        E 0 90 60 60
        E 30 80 18 00
        E 0 80 60 00
        E 50 90 1a 60
        E 0 90 1f 60
        E 0 90 3d 60
        E 0 90 49 60
        E 0 90 4a 60
        E 0 90 55 60
        E 0 90 56 60
        E 0 90 61 60
        E 0 90 62 60
        E 30 80 1a 00
        E 0 80 1f 00
        E 0 80 3d 00
        E 0 80 49 00
        E 0 80 4a 00
        E 0 80 55 00
        E 0 80 56 00
        E 0 80 61 00
        E 0 80 62 00
        E 130 90 1e 60
        E 0 90 62 60
        E 30 80 1e 00
        E 0 80 62 00
        E 50 90 1b 60
        E 0 90 55 60
        E 0 90 61 60
        E 30 80 1b 00
        E 0 80 55 00
        E 0 80 61 00
        E 50 90 18 60
        E 0 90 1e 60
        E 0 90 60 60
        E 0 90 62 60
        E 30 80 18 00
        E 0 80 1e 00
        E 0 80 60 00
        E 0 80 62 00
        E 50 90 1b 60
        E 0 90 61 60
        E 30 80 1b 00
        E 0 80 61 00
        E 50 90 18 60
        E 0 90 1e 60
        E 0 90 3e 60
        E 0 90 48 60
        E 0 90 4a 60
        E 0 90 54 60
        E 0 90 56 60
        E 0 90 60 60
        E 0 90 62 60
        E 0 90 78 60
        E 0 90 79 60
        E 0 90 7a 60
        E 0 90 7b 60
        E 0 90 7c 60
        E 80 80 18 00
        E 0 80 1e 00
        E 0 80 3e 00
        E 0 80 48 00
        E 0 80 4a 00
        E 0 80 54 00
        E 0 80 56 00
        E 0 80 60 00
        E 0 80 62 00
        E 0 90 1b 60
        E 0 90 61 60
        E 80 80 1b 00
        E 0 80 61 00
        E 0 90 1a 60
        E 0 90 61 60
        E 80 80 1a 00
        E 0 80 61 00
        E 0 90 1b 60
        E 0 90 55 60
        E 0 90 61 60
        E 80 80 1b 00
        E 0 80 55 00
        E 0 80 61 00
        E 0 90 1a 60
        E 0 90 61 60
        E 80 80 1a 00
        E 0 80 61 00
        E 0 90 1b 60
        E 0 90 61 60
        E 80 80 1b 00
        E 0 80 61 00
        E 0 90 18 60
        E 0 90 22 60
        E 0 90 40 60
        E 0 90 48 60
        E 0 90 4c 60
        E 0 90 54 60
        E 0 90 58 60
        E 0 90 60 60
        E 0 90 64 60
        E 80 80 18 00
        E 0 80 22 00
        E 0 80 40 00
        E 0 80 48 00
        E 0 80 4c 00
        E 0 80 54 00
        E 0 80 58 00
        E 0 80 60 00
        E 0 80 64 00
        E 0 90 1b 60
        E 0 90 61 60
        E 80 80 1b 00
        E 0 80 61 00
        E 0 90 1a 60
        E 0 90 61 60
        E 80 80 1a 00
        E 0 80 61 00
        E 0 90 1b 60
        E 0 90 55 60
        E 0 90 61 60
        E 80 80 1b 00
        E 0 80 55 00
        E 0 80 61 00
        E 0 90 18 60
        E 0 90 22 60
        E 0 90 60 60
        E 0 90 64 60
        E 80 80 18 00
        E 0 80 22 00
        E 0 80 60 00
        E 0 80 64 00
        E 0 90 2a 60
        E 0 90 63 60
        E 80 80 2a 00
        E 0 80 63 00
        E 0 90 18 60
        E 0 90 22 60
        E 0 90 40 60
        E 0 90 48 60
        E 0 90 4c 60
        E 0 90 54 60
        E 0 90 58 60
        E 0 90 60 60
        E 0 90 64 60
        E 1 80 78 00
        E 0 80 79 00
        E 0 80 7a 00
        E 0 80 7b 00
        E 0 80 7c 00
        E 79 80 18 00
        E 0 80 22 00
        E 0 80 40 00
        E 0 80 48 00
        E 0 80 4c 00
        E 0 80 54 00
        E 0 80 58 00
        E 0 80 60 00
        E 0 80 64 00
        E 80 90 1f 60
        E 0 90 62 60
        E 80 80 1f 00
        E 0 80 62 00
        E 0 90 1a 60
        E 0 90 55 60
        E 0 90 61 60
        E 80 80 1a 00
        E 0 80 55 00
        E 0 80 61 00
        E 0 90 18 60
        E 0 90 1f 60
        E 0 90 60 60
        E 0 90 62 60
        E 80 80 18 00
        E 0 80 1f 00
        E 0 80 60 00
        E 0 80 62 00
        E 0 90 18 60
        E 0 90 60 60
        E 80 80 18 00
        E 0 80 60 00
        E 0 90 1a 60
        E 0 90 1f 60
        E 0 90 3d 60
        E 0 90 49 60
        E 0 90 4a 60
        E 0 90 55 60
        E 0 90 56 60
        E 0 90 61 60
        E 0 90 62 60
        E 80 80 1a 00
        E 0 80 1f 00
        E 0 80 3d 00
        E 0 80 49 00
        E 0 80 4a 00
        E 0 80 55 00
        E 0 80 56 00
        E 0 80 61 00
        E 0 80 62 00
        E 80 90 1e 60
        E 0 90 62 60
        E 80 80 1e 00
        E 0 80 62 00
        E 0 90 1b 60
        E 0 90 55 60
        E 0 90 61 60
        E 80 80 1b 00
        E 0 80 55 00
        E 0 80 61 00
        E 0 90 18 60
        E 0 90 1e 60
        E 0 90 60 60
        E 0 90 62 60
        E 80 80 18 00
        E 0 80 1e 00
        E 0 80 60 00
        E 0 80 62 00
        E 0 90 1b 60
        E 0 90 61 60
        E 80 80 1b 00
        E 0 80 61 00
        E 0 90 18 60
        E 0 90 1e 60
        E 0 90 3e 60
        E 0 90 48 60
        E 0 90 4a 60
        E 0 90 54 60
        E 0 90 56 60
        E 0 90 60 60
        E 0 90 62 60
        E 80 80 18 00
        E 0 80 1e 00
        E 0 80 3e 00
        E 0 80 48 00
        E 0 80 4a 00
        E 0 80 54 00
        E 0 80 56 00
        E 0 80 60 00
        E 0 80 62 00
        E 0 90 1b 60
        E 0 90 61 60
        E 80 80 1b 00
        E 0 80 61 00
        E 0 90 1e 60
        E 0 90 62 60
        E 80 80 1e 00
        E 0 80 62 00
        E 0 90 1b 60
        E 0 90 55 60
        E 0 90 61 60
        E 30 80 1b 00
        E 0 80 55 00
        E 0 80 61 00
        E 50 90 18 60
        E 0 90 1e 60
        E 0 90 60 60
        E 0 90 62 60
        E 30 80 18 00
        E 0 80 1e 00
        E 0 80 60 00
        E 0 80 62 00
        E 50 90 18 60
        E 0 90 60 60
        E 30 80 18 00
        E 0 80 60 00
        E 50 90 1a 60
        E 0 90 1f 60
        E 0 90 3d 60
        E 0 90 49 60
        E 0 90 4a 60
        E 0 90 55 60
        E 0 90 56 60
        E 0 90 61 60
        E 0 90 62 60
        E 30 80 1a 00
        E 0 80 1f 00
        E 0 80 3d 00
        E 0 80 49 00
        E 0 80 4a 00
        E 0 80 55 00
        E 0 80 56 00
        E 0 80 61 00
        E 0 80 62 00
        E 130 90 18 60
        E 0 90 1e 60
        E 0 90 60 60
        E 0 90 62 60
        E 30 80 18 00
        E 0 80 1e 00
        E 0 80 60 00
        E 0 80 62 00
        E 50 90 1b 60
        E 0 90 55 60
        E 0 90 61 60
        E 30 80 1b 00
        E 0 80 55 00
        E 0 80 61 00
        E 50 90 1e 60
        E 0 90 62 60
        E 30 80 1e 00
        E 0 80 62 00
        E 50 90 1b 60
        E 0 90 61 60
        E 30 80 1b 00
        E 0 80 61 00
        E 50 90 18 60
        E 0 90 1e 60
        E 0 90 3e 60
        E 0 90 48 60
        E 0 90 4a 60
        E 0 90 54 60
        E 0 90 56 60
        E 0 90 60 60
        E 0 90 62 60
        E 30 80 18 00
        E 0 80 1e 00
        E 0 80 3e 00
        E 0 80 48 00
        E 0 80 4a 00
        E 0 80 54 00
        E 0 80 56 00
        E 0 80 60 00
        E 0 80 62 00
        E 50 90 1b 60
        E 0 90 61 60
        E 30 80 1b 00
        E 0 80 61 00
        E 50 90 18 60
        E 0 90 1a 60
        E 0 90 60 60
        E 0 90 61 60
        E 30 80 18 00
        E 0 80 1a 00
        E 0 80 60 00
        E 0 80 61 00
        E 50 90 1b 60
        E 0 90 55 60
        E 0 90 61 60
        E 30 80 1b 00
        E 0 80 55 00
        E 0 80 61 00
        E 50 90 18 60
        E 0 90 1a 60
        E 0 90 60 60
        E 0 90 61 60
        E 30 80 18 00
        E 0 80 1a 00
        E 0 80 60 00
        E 0 80 61 00
        E 50 90 1b 60
        E 0 90 61 60
        E 30 80 1b 00
        E 0 80 61 00
        E 50 90 18 60
        E 0 90 1a 60
        E 0 90 3d 60
        E 0 90 49 60
        E 0 90 54 60
        E 0 90 55 60
        E 0 90 60 60
        E 0 90 61 60
        E 30 80 18 00
        E 0 80 1a 00
        E 0 80 3d 00
        E 0 80 49 00
        E 0 80 54 00
        E 0 80 55 00
        E 0 80 60 00
        E 0 80 61 00
        E 50 90 1b 60
        E 0 90 61 60
        E 30 80 1b 00
        E 0 80 61 00
        E 50 90 18 60
        E 0 90 1a 60
        E 0 90 60 60
        E 0 90 61 60
        E 30 80 18 00
        E 0 80 1a 00
        E 0 80 60 00
        E 0 80 61 00
        E 50 90 1b 60
        E 0 90 55 60
        E 0 90 61 60
        E 30 80 1b 00
        E 0 80 55 00
        E 0 80 61 00
        E 50 90 18 60
        E 0 90 1a 60
        E 0 90 60 60
        E 0 90 61 60
        E 30 80 18 00
        E 0 80 1a 00
        E 0 80 60 00
        E 0 80 61 00
        E 50 90 1b 60
        E 0 90 61 60
        E 30 80 1b 00
        E 0 80 61 00
        E 50 90 18 60
        E 0 90 1a 60
        E 0 90 3d 60
        E 0 90 49 60
        E 0 90 54 60
        E 0 90 55 60
        E 0 90 60 60
        E 0 90 61 60
        E 30 80 18 00
        E 0 80 1a 00
        E 0 80 3d 00
        E 0 80 49 00
        E 0 80 54 00
        E 0 80 55 00
        E 0 80 60 00
        E 0 80 61 00
        E 50 90 1b 60
        E 0 90 61 60
        E 30 80 1b 00
        E 0 80 61 00
        E 50 90 18 60
        E 0 90 1a 60
        E 0 90 60 60
        E 0 90 61 60
        E 30 80 18 00
        E 0 80 1a 00
        E 0 80 60 00
        E 0 80 61 00
        E 50 90 1b 60
        E 0 90 55 60
        E 0 90 61 60
        E 30 80 1b 00
        E 0 80 55 00
        E 0 80 61 00
        E 50 90 18 60
        E 0 90 1a 60
        E 0 90 60 60
        E 0 90 61 60
        E 30 80 18 00
        E 0 80 1a 00
        E 0 80 60 00
        E 0 80 61 00
        E 50 90 1b 60
        E 0 90 61 60
        E 30 80 1b 00
        E 0 80 61 00
        E 50 90 18 60
        E 0 90 1a 60
        E 0 90 3d 60
        E 0 90 49 60
        E 0 90 54 60
        E 0 90 55 60
        E 0 90 60 60
        E 0 90 61 60
        E 30 80 18 00
        E 0 80 1a 00
        E 0 80 3d 00
        E 0 80 49 00
        E 0 80 54 00
        E 0 80 55 00
        E 0 80 60 00
        E 0 80 61 00
        E 50 90 1b 60
        E 0 90 61 60
        E 30 80 1b 00
        E 0 80 61 00
        E 50 90 1a 60
        E 0 90 61 60
        E 30 80 1a 00
        E 0 80 61 00
        E 23 90 1b 60
        E 0 90 61 60
        E 30 80 1b 00
        E 0 80 61 00
        E 23 90 1a 60
        E 0 90 61 60
        E 30 80 1a 00
        E 0 80 61 00
        E 24 90 1b 60
        E 0 90 61 60
        E 30 80 1b 00
        E 0 80 61 00
        E 23 90 1a 60
        E 0 90 61 60
        E 30 80 1a 00
        E 0 80 61 00
        E 23 90 1b 60
        E 0 90 61 60
        E 30 80 1b 00
        E 0 80 61 00
        E 24 90 18 60
        E 0 90 22 60
        E 0 90 40 60
        E 0 90 48 60
        E 0 90 4c 60
        E 0 90 54 60
        E 0 90 58 60
        E 0 90 60 60
        E 0 90 64 60
        E 30 80 18 00
        E 0 80 22 00
        E 0 80 40 00
        E 0 80 48 00
        E 0 80 4c 00
        E 0 80 54 00
        E 0 80 58 00
        E 0 80 60 00
        E 0 80 64 00
        E 130 90 2a 60
        E 0 90 63 60
        E 30 80 2a 00
        E 0 80 63 00
        E 50 90 1a 60
        E 0 90 55 60
        E 0 90 61 60
        E 30 80 1a 00
        E 0 80 55 00
        E 0 80 61 00
        E 50 90 18 60
        E 0 90 2a 60
        E 0 90 60 60
        E 0 90 63 60
        E 30 80 18 00
        E 0 80 2a 00
        E 0 80 60 00
        E 0 80 63 00
        E 130 90 1a 60
        E 0 90 24 60
        E 0 90 3d 60
        E 0 90 49 60
        E 0 90 4c 60
        E 0 90 55 60
        E 0 90 58 60
        E 0 90 61 60
        E 0 90 64 60
        E 30 80 1a 00
        E 0 80 24 00
        E 0 80 3d 00
        E 0 80 49 00
        E 0 80 4c 00
        E 0 80 55 00
        E 0 80 58 00
        E 0 80 61 00
        E 0 80 64 00
        E 130 90 2b 60
        E 0 90 63 60
        E 30 80 2b 00
        E 0 80 63 00
        E 50 90 1b 60
        E 0 90 55 60
        E 0 90 61 60
        E 30 80 1b 00
        E 0 80 55 00
        E 0 80 61 00
        E 50 90 18 60
        E 0 90 2b 60
        E 0 90 60 60
        E 0 90 63 60
        E 30 80 18 00
        E 0 80 2b 00
        E 0 80 60 00
        E 0 80 63 00
        E 50 90 1b 60
        E 0 90 61 60
        E 30 80 1b 00
        E 0 80 61 00
        E 50 90 18 60
        E 0 90 2b 60
        E 0 90 3f 60
        E 0 90 48 60
        E 0 90 4b 60
        E 0 90 54 60
        E 0 90 57 60
        E 0 90 60 60
        E 0 90 63 60
        E 30 80 18 00
        E 0 80 2b 00
        E 0 80 3f 00
        E 0 80 48 00
        E 0 80 4b 00
        E 0 80 54 00
        E 0 80 57 00
        E 0 80 60 00
        E 0 80 63 00
        E 50 90 1b 60
        E 0 90 61 60
        E 30 80 1b 00
        E 0 80 61 00
        E 50 90 18 60
        E 0 90 2b 60
        E 0 90 60 60
        E 0 90 63 60
        E 30 80 18 00
        E 0 80 2b 00
        E 0 80 60 00
        E 0 80 63 00
        E 49 90 1b 60
        E 0 90 55 60
        E 0 90 61 60
        E 30 80 1b 00
        E 0 80 55 00
        E 0 80 61 00
        E 50 90 2b 60
        E 0 90 63 60
        E 30 80 2b 00
        E 0 80 63 00
        E 50 90 18 60
        E 0 90 60 60
        E 30 80 18 00
        E 0 80 60 00
        E 10 90 18 60
        E 0 90 60 60
        E 30 80 18 00
        E 0 80 60 00
        E 11 90 1a 60
        E 0 90 2a 60
        E 0 90 3d 60
        E 0 90 49 60
        E 0 90 4b 60
        E 0 90 55 60
        E 0 90 57 60
        E 0 90 61 60
        E 0 90 63 60
        E 30 80 1a 00
        E 0 80 2a 00
        E 0 80 3d 00
        E 0 80 49 00
        E 0 80 4b 00
        E 0 80 55 00
        E 0 80 57 00
        E 0 80 61 00
        E 0 80 63 00
        E 130 90 2b 60
        E 0 90 63 60
        E 30 80 2b 00
        E 0 80 63 00
        E 50 90 1b 60
        E 0 90 55 60
        E 0 90 61 60
        E 30 80 1b 00
        E 0 80 55 00
        E 0 80 61 00
        E 50 90 18 60
        E 0 90 2b 60
        E 0 90 60 60
        E 0 90 63 60
        E 30 80 18 00
        E 0 80 2b 00
        E 0 80 60 00
        E 0 80 63 00
        E 50 90 1b 60
        E 0 90 61 60
        E 30 80 1b 00
        E 0 80 61 00
        E 50 90 18 60
        E 0 90 2b 60
        E 0 90 3f 60
        E 0 90 48 60
        E 0 90 4b 60
        E 0 90 54 60
        E 0 90 57 60
        E 0 90 60 60
        E 0 90 63 60
        E 30 80 18 00
        E 0 80 2b 00
        E 0 80 3f 00
        E 0 80 48 00
        E 0 80 4b 00
        E 0 80 54 00
        E 0 80 57 00
        E 0 80 60 00
        E 0 80 63 00
        E 50 90 1b 60
        E 0 90 61 60
        E 30 80 1b 00
        E 0 80 61 00
        E 50 90 18 60
        E 0 90 2b 60
        E 0 90 60 60
        E 0 90 63 60
        E 30 80 18 00
        E 0 80 2b 00
        E 0 80 60 00
        E 0 80 63 00
        E 50 90 1b 60
        E 0 90 55 60
        E 0 90 61 60
        E 30 80 1b 00
        E 0 80 55 00
        E 0 80 61 00
        E 50 90 2b 60
        E 0 90 63 60
        E 30 80 2b 00
        E 0 80 63 00
        E 49 90 18 60
        E 0 90 60 60
        E 30 80 18 00
        E 0 80 60 00
        E 10 90 18 60
        E 0 90 60 60
        E 30 80 18 00
        E 0 80 60 00
        E 11 90 1a 60
        E 0 90 2a 60
        E 0 90 3d 60
        E 0 90 49 60
        E 0 90 4b 60
        E 0 90 55 60
        E 0 90 57 60
        E 0 90 61 60
        E 0 90 63 60
        E 30 80 1a 00
        E 0 80 2a 00
        E 0 80 3d 00
        E 0 80 49 00
        E 0 80 4b 00
        E 0 80 55 00
        E 0 80 57 00
        E 0 80 61 00
        E 0 80 63 00
        E 130 90 2b 60
        E 0 90 63 60
        E 30 80 2b 00
        E 0 80 63 00
        E 50 90 1b 60
        E 0 90 55 60
        E 0 90 61 60
        E 30 80 1b 00
        E 0 80 55 00
        E 0 80 61 00
        E 50 90 18 60
        E 0 90 2b 60
        E 0 90 60 60
        E 0 90 63 60
        E 30 80 18 00
        E 0 80 2b 00
        E 0 80 60 00
        E 0 80 63 00
        E 50 90 1b 60
        E 0 90 61 60
        E 30 80 1b 00
        E 0 80 61 00
        E 50 90 18 60
        E 0 90 2b 60
        E 0 90 3f 60
        E 0 90 48 60
        E 0 90 4b 60
        E 0 90 54 60
        E 0 90 57 60
        E 0 90 60 60
        E 0 90 63 60
        E 30 80 18 00
        E 0 80 2b 00
        E 0 80 3f 00
        E 0 80 48 00
        E 0 80 4b 00
        E 0 80 54 00
        E 0 80 57 00
        E 0 80 60 00
        E 0 80 63 00
        E 50 90 1b 60
        E 0 90 61 60
        E 30 80 1b 00
        E 0 80 61 00
        E 50 90 18 60
        E 0 90 2b 60
        E 0 90 60 60
        E 0 90 63 60
        E 30 80 18 00
        E 0 80 2b 00
        E 0 80 60 00
        E 0 80 63 00
        E 50 90 1b 60
        E 0 90 55 60
        E 0 90 61 60
        E 30 80 1b 00
        E 0 80 55 00
        E 0 80 61 00
        E 50 90 2b 60
        E 0 90 63 60
        E 30 80 2b 00
        E 0 80 63 00
        E 50 90 18 60
        E 0 90 60 60
        E 30 80 18 00
        E 0 80 60 00
        E 10 90 18 60
        E 0 90 60 60
        E 30 80 18 00
        E 0 80 60 00
        E 10 90 1a 60
        E 0 90 2a 60
        E 0 90 3d 60
        E 0 90 49 60
        E 0 90 4b 60
        E 0 90 55 60
        E 0 90 57 60
        E 0 90 61 60
        E 0 90 63 60
        E 30 80 1a 00
        E 0 80 2a 00
        E 0 80 3d 00
        E 0 80 49 00
        E 0 80 4b 00
        E 0 80 55 00
        E 0 80 57 00
        E 0 80 61 00
        E 0 80 63 00
        E 130 90 1a 60
        E 0 90 61 60
        E 30 80 1a 00
        E 0 80 61 00
        E 50 90 1b 60
        E 0 90 55 60
        E 0 90 61 60
        E 30 80 1b 00
        E 0 80 55 00
        E 0 80 61 00
        E 130 90 1a 60
        E 0 90 61 60
        E 30 80 1a 00
        E 0 80 61 00
        E 50 90 1b 60
        E 0 90 3d 60
        E 0 90 49 60
        E 0 90 55 60
        E 0 90 61 60
        E 30 80 1b 00
        E 0 80 3d 00
        E 0 80 49 00
        E 0 80 55 00
        E 0 80 61 00
        E 50 90 1a 60
        E 0 90 61 60
        E 30 80 1a 00
        E 0 80 61 00
        E 50 90 2f 60
        E 0 90 62 60
        E 0 90 6e 60
        E 30 80 2f 00
        E 0 80 62 00
        E 0 80 6e 00
        E 50 90 2e 60
        E 0 90 56 60
        E 0 90 62 60
        E 0 90 6e 60
        E 30 80 2e 00
        E 0 80 56 00
        E 0 80 62 00
        E 0 80 6e 00
        E 50 90 31 60
        E 0 90 63 60
        E 0 90 6f 60
        E 30 80 31 00
        E 0 80 63 00
        E 0 80 6f 00
        E 50 90 18 60
        E 0 90 60 60
        E 30 80 18 00
        E 0 80 60 00
        E 50 90 1a 60
        E 0 90 24 60
        E 0 90 3d 60
        E 0 90 49 60
        E 0 90 4c 60
        E 0 90 55 60
        E 0 90 58 60
        E 0 90 61 60
        E 0 90 64 60
        E 30 80 1a 00
        E 0 80 24 00
        E 0 80 3d 00
        E 0 80 49 00
        E 0 80 4c 00
        E 0 80 55 00
        E 0 80 58 00
        E 0 80 61 00
        E 0 80 64 00
        E 130 90 2b 60
        E 0 90 63 60
        E 30 80 2b 00
        E 0 80 63 00
        E 50 90 1b 60
        E 0 90 55 60
        E 0 90 61 60
        E 30 80 1b 00
        E 0 80 55 00
        E 0 80 61 00
        E 50 90 18 60
        E 0 90 2b 60
        E 0 90 60 60
        E 0 90 63 60
        E 30 80 18 00
        E 0 80 2b 00
        E 0 80 60 00
        E 0 80 63 00
        E 50 90 1b 60
        E 0 90 61 60
        E 30 80 1b 00
        E 0 80 61 00
        E 50 90 18 60
        E 0 90 2b 60
        E 0 90 3f 60
        E 0 90 48 60
        E 0 90 4b 60
        E 0 90 54 60
        E 0 90 57 60
        E 0 90 60 60
        E 0 90 63 60
        E 30 80 18 00
        E 0 80 2b 00
        E 0 80 3f 00
        E 0 80 48 00
        E 0 80 4b 00
        E 0 80 54 00
        E 0 80 57 00
        E 0 80 60 00
        E 0 80 63 00
        E 50 90 1b 60
        E 0 90 61 60
        E 30 80 1b 00
        E 0 80 61 00
        E 50 90 18 60
        E 0 90 2b 60
        E 0 90 60 60
        E 0 90 63 60
        E 30 80 18 00
        E 0 80 2b 00
        E 0 80 60 00
        E 0 80 63 00
        E 49 90 1b 60
        E 0 90 55 60
        E 0 90 61 60
        E 30 80 1b 00
        E 0 80 55 00
        E 0 80 61 00
        E 50 90 2b 60
        E 0 90 63 60
        E 30 80 2b 00
        E 0 80 63 00
        E 50 90 18 60
        E 0 90 60 60
        E 30 80 18 00
        E 0 80 60 00
        E 10 90 18 60
        E 0 90 60 60
        E 30 80 18 00
        E 0 80 60 00
        E 11 90 1a 60
        E 0 90 2a 60
        E 0 90 3d 60
        E 0 90 49 60
        E 0 90 4b 60
        E 0 90 55 60
        E 0 90 57 60
        E 0 90 61 60
        E 0 90 63 60
        E 30 80 1a 00
        E 0 80 2a 00
        E 0 80 3d 00
        E 0 80 49 00
        E 0 80 4b 00
        E 0 80 55 00
        E 0 80 57 00
        E 0 80 61 00
        E 0 80 63 00
        E 130 90 2b 60
        E 0 90 63 60
        E 30 80 2b 00
        E 0 80 63 00
        E 50 90 1b 60
        E 0 90 55 60
        E 0 90 61 60
        E 30 80 1b 00
        E 0 80 55 00
        E 0 80 61 00
        E 50 90 18 60
        E 0 90 2b 60
        E 0 90 60 60
        E 0 90 63 60
        E 30 80 18 00
        E 0 80 2b 00
        E 0 80 60 00
        E 0 80 63 00
        E 50 90 1b 60
        E 0 90 61 60
        E 30 80 1b 00
        E 0 80 61 00
        E 50 90 18 60
        E 0 90 2b 60
        E 0 90 3f 60
        E 0 90 48 60
        E 0 90 4b 60
        E 0 90 54 60
        E 0 90 57 60
        E 0 90 60 60
        E 0 90 63 60
        E 30 80 18 00
        E 0 80 2b 00
        E 0 80 3f 00
        E 0 80 48 00
        E 0 80 4b 00
        E 0 80 54 00
        E 0 80 57 00
        E 0 80 60 00
        E 0 80 63 00
        E 50 90 1b 60
        E 0 90 61 60
        E 30 80 1b 00
        E 0 80 61 00
        E 50 90 1a 60
        E 0 90 61 60
        E 30 80 1a 00
        E 0 80 61 00
        E 23 90 1b 60
        E 0 90 61 60
        E 30 80 1b 00
        E 0 80 61 00
        E 23 90 1a 60
        E 0 90 61 60
        E 30 80 1a 00
        E 0 80 61 00
        E 24 90 1b 60
        E 0 90 61 60
        E 30 80 1b 00
        E 0 80 61 00
        E 23 90 1a 60
        E 0 90 61 60
        E 30 80 1a 00
        E 0 80 61 00
        E 23 90 1b 60
        E 0 90 61 60
        E 30 80 1b 00
        E 0 80 61 00
        E 24 90 18 60
        E 0 90 22 60
        E 0 90 40 60
        E 0 90 48 60
        E 0 90 4c 60
        E 0 90 54 60
        E 0 90 58 60
        E 0 90 60 60
        E 0 90 64 60
        E 30 80 18 00
        E 0 80 22 00
        E 0 80 40 00
        E 0 80 48 00
        E 0 80 4c 00
        E 0 80 54 00
        E 0 80 58 00
        E 0 80 60 00
        E 0 80 64 00
        E 50 90 1b 60
        E 0 90 61 60
        E 30 80 1b 00
        E 0 80 61 00
        E 50 90 1a 60
        E 0 90 61 60
        E 30 80 1a 00
        E 0 80 61 00
        E 24 90 1b 60
        E 0 90 61 60
        E 30 80 1b 00
        E 0 80 61 00
        E 23 90 1a 60
        E 0 90 61 60
        E 30 80 1a 00
        E 0 80 61 00
        E 23 90 1b 60
        E 0 90 61 60
        E 30 80 1b 00
        E 0 80 61 00
        E 23 90 1a 60
        E 0 90 61 60
        E 30 80 1a 00
        E 0 80 61 00
        E 24 90 1b 60
        E 0 90 61 60
        E 30 80 1b 00
        E 0 80 61 00
        E 23 90 18 60
        E 0 90 22 60
        E 0 90 40 60
        E 0 90 48 60
        E 0 90 4c 60
        E 0 90 54 60
        E 0 90 58 60
        E 0 90 60 60
        E 0 90 64 60
        E 30 80 18 00
        E 0 80 22 00
        E 0 80 40 00
        E 0 80 48 00
        E 0 80 4c 00
        E 0 80 54 00
        E 0 80 58 00
        E 0 80 60 00
        E 0 80 64 00
        E 50 90 1b 60
        E 0 90 61 60
        E 30 80 1b 00
        E 0 80 61 00
        E 50 90 1a 60
        E 0 90 61 60
        E 30 80 1a 00
        E 0 80 61 00
        E 23 90 1b 60
        E 0 90 61 60
        E 30 80 1b 00
        E 0 80 61 00
        E 24 90 1a 60
        E 0 90 61 60
        E 30 80 1a 00
        E 0 80 61 00
        E 23 90 1b 60
        E 0 90 61 60
        E 30 80 1b 00
        E 0 80 61 00
        E 23 90 1a 60
        E 0 90 61 60
        E 30 80 1a 00
        E 0 80 61 00
        E 24 90 1b 60
        E 0 90 61 60
        E 30 80 1b 00
        E 0 80 61 00
        E 23 90 18 60
        E 0 90 22 60
        E 0 90 40 60
        E 0 90 48 60
        E 0 90 4c 60
        E 0 90 54 60
        E 0 90 58 60
        E 0 90 60 60
        E 0 90 64 60
        E 30 80 18 00
        E 0 80 22 00
        E 0 80 40 00
        E 0 80 48 00
        E 0 80 4c 00
        E 0 80 54 00
        E 0 80 58 00
        E 0 80 60 00
        E 0 80 64 00
        E 50 90 1b 60
        E 0 90 61 60
        E 30 80 1b 00
        E 0 80 61 00
        E 50 90 1a 60
        E 0 90 61 60
        E 30 80 1a 00
        E 0 80 61 00
        E 50 90 1b 60
        E 0 90 55 60
        E 0 90 61 60
        E 30 80 1b 00
        E 0 80 55 00
        E 0 80 61 00
        E 130 90 1a 60
        E 0 90 61 60
        E 30 80 1a 00
        E 0 80 61 00
        E 50 90 18 60
        E 0 90 24 60
        E 0 90 40 60
        E 0 90 48 60
        E 0 90 4c 60
        E 0 90 54 60
        E 0 90 58 60
        E 0 90 60 60
        E 0 90 64 60
        E 0 90 74 60
        E 30 80 18 00
        E 0 80 24 00
        E 0 80 40 00
        E 0 80 48 00
        E 0 80 4c 00
        E 0 80 54 00
        E 0 80 58 00
        E 0 80 60 00
        E 0 80 64 00
        E 50 90 1a 60
        E 0 90 61 60
        E 30 80 1a 00
        E 0 80 61 00
        E 50 90 1b 60
        E 0 90 61 60
        E 30 80 1b 00
        E 0 80 61 00
        E 50 90 1a 60
        E 0 90 55 60
        E 0 90 61 60
        E 30 80 1a 00
        E 0 80 55 00
        E 0 80 61 00
        E 50 90 2f 60
        E 0 90 62 60
        E 0 90 6e 60
        E 30 80 2f 00
        E 0 80 62 00
        E 0 80 6e 00
        E 50 90 18 60
        E 0 90 60 60
        E 30 80 18 00
        E 0 80 60 00
        E 50 90 1a 60
        E 0 90 24 60
        E 0 90 3d 60
        E 0 90 49 60
        E 0 90 4c 60
        E 0 90 55 60
        E 0 90 58 60
        E 0 90 61 60
        E 0 90 64 60
        E 30 80 1a 00
        E 0 80 24 00
        E 0 80 3d 00
        E 0 80 49 00
        E 0 80 4c 00
        E 0 80 55 00
        E 0 80 58 00
        E 0 80 61 00
        E 0 80 64 00
        E 130 90 2b 60
        E 0 90 63 60
        E 30 80 2b 00
        E 0 80 63 00
        E 50 90 1b 60
        E 0 90 55 60
        E 0 90 61 60
        E 30 80 1b 00
        E 0 80 55 00
        E 0 80 61 00
        E 50 90 18 60
        E 0 90 2b 60
        E 0 90 60 60
        E 0 90 63 60
        E 30 80 18 00
        E 0 80 2b 00
        E 0 80 60 00
        E 0 80 63 00
        E 50 90 1b 60
        E 0 90 61 60
        E 30 80 1b 00
        E 0 80 61 00
        E 50 90 18 60
        E 0 90 2b 60
        E 0 90 3f 60
        E 0 90 48 60
        E 0 90 4b 60
        E 0 90 54 60
        E 0 90 57 60
        E 0 90 60 60
        E 0 90 63 60
        E 30 80 18 00
        E 0 80 2b 00
        E 0 80 3f 00
        E 0 80 48 00
        E 0 80 4b 00
        E 0 80 54 00
        E 0 80 57 00
        E 0 80 60 00
        E 0 80 63 00
        E 50 90 1b 60
        E 0 90 61 60
        E 30 80 1b 00
        E 0 80 61 00
        E 50 90 18 60
        E 0 90 2b 60
        E 0 90 60 60
        E 0 90 63 60
        E 30 80 18 00
        E 0 80 2b 00
        E 0 80 60 00
        E 0 80 63 00
        E 49 90 1b 60
        E 0 90 55 60
        E 0 90 61 60
        E 30 80 1b 00
        E 0 80 55 00
        E 0 80 61 00
        E 50 90 2b 60
        E 0 90 63 60
        E 30 80 2b 00
        E 0 80 63 00
        E 50 90 18 60
        E 0 90 60 60
        E 30 80 18 00
        E 0 80 60 00
        E 10 90 18 60
        E 0 90 60 60
        E 30 80 18 00
        E 0 80 60 00
        E 11 90 1a 60
        E 0 90 2a 60
        E 0 90 3d 60
        E 0 90 49 60
        E 0 90 4b 60
        E 0 90 55 60
        E 0 90 57 60
        E 0 90 61 60
        E 0 90 63 60
        E 30 80 1a 00
        E 0 80 2a 00
        E 0 80 3d 00
        E 0 80 49 00
        E 0 80 4b 00
        E 0 80 55 00
        E 0 80 57 00
        E 0 80 61 00
        E 0 80 63 00
        E 130 90 2b 60
        E 0 90 63 60
        E 30 80 2b 00
        E 0 80 63 00
        E 50 90 1b 60
        E 0 90 55 60
        E 0 90 61 60
        E 30 80 1b 00
        E 0 80 55 00
        E 0 80 61 00
        E 50 90 18 60
        E 0 90 2b 60
        E 0 90 60 60
        E 0 90 63 60
        E 30 80 18 00
        E 0 80 2b 00
        E 0 80 60 00
        E 0 80 63 00
        E 50 90 1b 60
        E 0 90 61 60
        E 30 80 1b 00
        E 0 80 61 00
        E 50 80 74 00
        E 0 90 18 60
        E 0 90 2b 60
        E 0 90 3f 60
        E 0 90 48 60
        E 0 90 4b 60
        E 0 90 54 60
        E 0 90 57 60
        E 0 90 60 60
        E 0 90 63 60
        E 30 80 18 00
        E 0 80 2b 00
        E 0 80 3f 00
        E 0 80 48 00
        E 0 80 4b 00
        E 0 80 54 00
        E 0 80 57 00
        E 0 80 60 00
        E 0 80 63 00
        E 50 90 1b 60
        E 0 90 61 60
        E 30 80 1b 00
        E 0 80 61 00
        E 50 90 18 60
        E 0 90 2b 60
        E 0 90 60 60
        E 0 90 63 60
        E 30 80 18 00
        E 0 80 2b 00
        E 0 80 60 00
        E 0 80 63 00
        E 50 90 1b 60
        E 0 90 55 60
        E 0 90 61 60
        E 30 80 1b 00
        E 0 80 55 00
        E 0 80 61 00
        E 50 90 2b 60
        E 0 90 63 60
        E 30 80 2b 00
        E 0 80 63 00
        E 50 90 18 60
        E 0 90 60 60
        E 30 80 18 00
        E 0 80 60 00
        E 10 90 18 60
        E 0 90 60 60
        E 30 80 18 00
        E 0 80 60 00
        E 10 90 1a 60
        E 0 90 2a 60
        E 0 90 3d 60
        E 0 90 49 60
        E 0 90 4b 60
        E 0 90 55 60
        E 0 90 57 60
        E 0 90 61 60
        E 0 90 63 60
        E 30 80 1a 00
        E 0 80 2a 00
        E 0 80 3d 00
        E 0 80 49 00
        E 0 80 4b 00
        E 0 80 55 00
        E 0 80 57 00
        E 0 80 61 00
        E 0 80 63 00
        E 130 90 2b 60
        E 0 90 63 60
        E 30 80 2b 00
        E 0 80 63 00
        E 50 90 1b 60
        E 0 90 55 60
        E 0 90 61 60
        E 30 80 1b 00
        E 0 80 55 00
        E 0 80 61 00
        E 50 90 18 60
        E 0 90 2b 60
        E 0 90 60 60
        E 0 90 63 60
        E 30 80 18 00
        E 0 80 2b 00
        E 0 80 60 00
        E 0 80 63 00
        E 50 90 1b 60
        E 0 90 61 60
        E 30 80 1b 00
        E 0 80 61 00
        E 50 90 18 60
        E 0 90 2b 60
        E 0 90 3f 60
        E 0 90 48 60
        E 0 90 4b 60
        E 0 90 54 60
        E 0 90 57 60
        E 0 90 60 60
        E 0 90 63 60
        E 30 80 18 00
        E 0 80 2b 00
        E 0 80 3f 00
        E 0 80 48 00
        E 0 80 4b 00
        E 0 80 54 00
        E 0 80 57 00
        E 0 80 60 00
        E 0 80 63 00
        E 50 90 1b 60
        E 0 90 61 60
        E 30 80 1b 00
        E 0 80 61 00
        E 50 90 18 60
        E 0 90 2b 60
        E 0 90 60 60
        E 0 90 63 60
        E 30 80 18 00
        E 0 80 2b 00
        E 0 80 60 00
        E 0 80 63 00
        E 50 90 1b 60
        E 0 90 55 60
        E 0 90 61 60
        E 30 80 1b 00
        E 0 80 55 00
        E 0 80 61 00
        E 49 90 2b 60
        E 0 90 63 60
        E 30 80 2b 00
        E 0 80 63 00
        E 50 90 18 60
        E 0 90 60 60
        E 30 80 18 00
        E 0 80 60 00
        E 10 90 18 60
        E 0 90 60 60
        E 30 80 18 00
        E 0 80 60 00
        E 10 90 78 60
        E 0 90 79 60
        E 0 90 7a 60
        E 0 90 7b 60
        E 0 90 7c 60
        E 1 90 1a 60
        E 0 90 2a 60
        E 0 90 3d 60
        E 0 90 49 60
        E 0 90 4b 60
        E 0 90 55 60
        E 0 90 57 60
        E 0 90 61 60
        E 0 90 63 60
        E 30 80 1a 00
        E 0 80 2a 00
        E 0 80 3d 00
        E 0 80 49 00
        E 0 80 4b 00
        E 0 80 55 00
        E 0 80 57 00
        E 0 80 61 00
        E 0 80 63 00
        E 130 90 1a 60
        E 0 90 61 60
        E 30 80 1a 00
        E 0 80 61 00
        E 50 90 1b 60
        E 0 90 55 60
        E 0 90 61 60
        E 30 80 1b 00
        E 0 80 55 00
        E 0 80 61 00
        E 129 90 1a 60
        E 0 90 61 60
        E 30 80 1a 00
        E 0 80 61 00
        E 51 90 1b 60
        E 0 90 3d 60
        E 0 90 49 60
        E 0 90 55 60
        E 0 90 61 60
        E 30 80 1b 00
        E 0 80 3d 00
        E 0 80 49 00
        E 0 80 55 00
        E 0 80 61 00
        E 50 90 1a 60
        E 0 90 61 60
        E 30 80 1a 00
        E 0 80 61 00
        E 50 90 2f 60
        E 0 90 62 60
        E 0 90 6e 60
        E 30 80 2f 00
        E 0 80 62 00
        E 0 80 6e 00
        E 50 90 2e 60
        E 0 90 56 60
        E 0 90 62 60
        E 0 90 6e 60
        E 30 80 2e 00
        E 0 80 56 00
        E 0 80 62 00
        E 0 80 6e 00
        E 50 90 31 60
        E 0 90 63 60
        E 0 90 6f 60
        E 30 80 31 00
        E 0 80 63 00
        E 0 80 6f 00
        E 50 90 18 60
        E 0 90 60 60
        E 30 80 18 00
        E 0 80 60 00
        E 50 80 78 00
        E 0 80 79 00
        E 0 80 7a 00
        E 0 80 7b 00
        E 0 80 7c 00
        E 0 90 1a 60
        E 0 90 24 60
        E 0 90 3d 60
        E 0 90 49 60
        E 0 90 4c 60
        E 0 90 55 60
        E 0 90 58 60
        E 0 90 61 60
        E 0 90 64 60
        E 30 80 1a 00
        E 0 80 24 00
        E 0 80 3d 00
        E 0 80 49 00
        E 0 80 4c 00
        E 0 80 55 00
        E 0 80 58 00
        E 0 80 61 00
        E 0 80 64 00
        E 130 90 2b 60
        E 0 90 63 60
        E 30 80 2b 00
        E 0 80 63 00
        E 50 90 1b 60
        E 0 90 55 60
        E 0 90 61 60
        E 30 80 1b 00
        E 0 80 55 00
        E 0 80 61 00
        E 50 90 18 60
        E 0 90 2b 60
        E 0 90 60 60
        E 0 90 63 60
        E 30 80 18 00
        E 0 80 2b 00
        E 0 80 60 00
        E 0 80 63 00
        E 50 90 1b 60
        E 0 90 61 60
        E 30 80 1b 00
        E 0 80 61 00
        E 50 90 18 60
        E 0 90 2b 60
        E 0 90 3f 60
        E 0 90 48 60
        E 0 90 4b 60
        E 0 90 54 60
        E 0 90 57 60
        E 0 90 60 60
        E 0 90 63 60
        E 30 80 18 00
        E 0 80 2b 00
        E 0 80 3f 00
        E 0 80 48 00
        E 0 80 4b 00
        E 0 80 54 00
        E 0 80 57 00
        E 0 80 60 00
        E 0 80 63 00
        E 50 90 1b 60
        E 0 90 61 60
        E 30 80 1b 00
        E 0 80 61 00
        E 50 90 18 60
        E 0 90 2b 60
        E 0 90 60 60
        E 0 90 63 60
        E 30 80 18 00
        E 0 80 2b 00
        E 0 80 60 00
        E 0 80 63 00
        E 50 90 1b 60
        E 0 90 55 60
        E 0 90 61 60
        E 30 80 1b 00
        E 0 80 55 00
        E 0 80 61 00
        E 49 90 2b 60
        E 0 90 63 60
        E 30 80 2b 00
        E 0 80 63 00
        E 50 90 18 60
        E 0 90 60 60
        E 30 80 18 00
        E 0 80 60 00
        E 10 90 18 60
        E 0 90 60 60
        E 30 80 18 00
        E 0 80 60 00
        E 11 90 1a 60
        E 0 90 2a 60
        E 0 90 3d 60
        E 0 90 49 60
        E 0 90 4b 60
        E 0 90 55 60
        E 0 90 57 60
        E 0 90 61 60
        E 0 90 63 60
        E 30 80 1a 00
        E 0 80 2a 00
        E 0 80 3d 00
        E 0 80 49 00
        E 0 80 4b 00
        E 0 80 55 00
        E 0 80 57 00
        E 0 80 61 00
        E 0 80 63 00
        E 130 90 2b 60
        E 0 90 63 60
        E 30 80 2b 00
        E 0 80 63 00
        E 50 90 1b 60
        E 0 90 55 60
        E 0 90 61 60
        E 30 80 1b 00
        E 0 80 55 00
        E 0 80 61 00
        E 49 90 18 60
        E 0 90 2b 60
        E 0 90 60 60
        E 0 90 63 60
        E 30 80 18 00
        E 0 80 2b 00
        E 0 80 60 00
        E 0 80 63 00
        E 50 90 1b 60
        E 0 90 61 60
        E 30 80 1b 00
        E 0 80 61 00
        E 51 90 18 60
        E 0 90 2b 60
        E 0 90 3f 60
        E 0 90 48 60
        E 0 90 4b 60
        E 0 90 54 60
        E 0 90 57 60
        E 0 90 60 60
        E 0 90 63 60
        E 30 80 18 00
        E 0 80 2b 00
        E 0 80 3f 00
        E 0 80 48 00
        E 0 80 4b 00
        E 0 80 54 00
        E 0 80 57 00
        E 0 80 60 00
        E 0 80 63 00
        E 76 90 1b 60
        E 0 90 61 60
        E 30 80 1b 00
        E 0 80 61 00
        E 24 90 1a 60
        E 0 90 61 60
        E 30 80 1a 00
        E 0 80 61 00
        E 23 90 1b 60
        E 0 90 61 60
        E 30 80 1b 00
        E 0 80 61 00
        E 23 90 1a 60
        E 0 90 61 60
        E 30 80 1a 00
        E 0 80 61 00
        E 24 90 1b 60
        E 0 90 61 60
        E 30 80 1b 00
        E 0 80 61 00
        E 50 90 1a 60
        E 0 90 61 60
        E 30 80 1a 00
        E 0 80 61 00
        E 50 90 2f 60
        E 0 90 3e 60
        E 0 90 4a 60
        E 0 90 56 60
        E 0 90 62 60
        E 0 90 6e 60
        E 80 80 2f 00
        E 0 80 3e 00
        E 0 80 4a 00
        E 0 80 56 00
        E 0 80 62 00
        E 0 80 6e 00
        E 0 90 1a 60
        E 0 90 61 60
        E 80 80 1a 00
        E 0 80 61 00
        E 0 90 1b 60
        E 0 90 61 60
        E 80 80 1b 00
        E 0 80 61 00
        E 0 90 1a 60
        E 0 90 55 60
        E 0 90 61 60
        E 80 80 1a 00
        E 0 80 55 00
        E 0 80 61 00
        E 0 90 2f 60
        E 0 90 62 60
        E 0 90 6e 60
        E 80 80 2f 00
        E 0 80 62 00
        E 0 80 6e 00
        E 0 90 1a 60
        E 0 90 61 60
        E 80 80 1a 00
        E 0 80 61 00
        E 0 90 1b 60
        E 0 90 3d 60
        E 0 90 49 60
        E 0 90 55 60
        E 0 90 61 60
        E 80 80 1b 00
        E 0 80 3d 00
        E 0 80 49 00
        E 0 80 55 00
        E 0 80 61 00
        E 0 90 1a 60
        E 0 90 61 60
        E 80 80 1a 00
        E 0 80 61 00
        E 0 90 2f 60
        E 0 90 62 60
        E 0 90 6e 60
        E 80 80 2f 00
        E 0 80 62 00
        E 0 80 6e 00
        E 0 90 1a 60
        E 0 90 55 60
        E 0 90 61 60
        E 80 80 1a 00
        E 0 80 55 00
        E 0 80 61 00
        E 0 90 1b 60
        E 0 90 61 60
        E 80 80 1b 00
        E 0 80 61 00
        E 0 90 1a 60
        E 0 90 61 60
        E 80 80 1a 00
        E 0 80 61 00
        E 0 90 1b 60
        E 0 90 3d 60
        E 0 90 49 60
        E 0 90 55 60
        E 0 90 61 60
        E 80 80 1b 00
        E 0 80 3d 00
        E 0 80 49 00
        E 0 80 55 00
        E 0 80 61 00
        E 0 90 1a 60
        E 0 90 61 60
        E 80 80 1a 00
        E 0 80 61 00
        E 0 90 2f 60
        E 0 90 62 60
        E 0 90 6e 60
        E 80 80 2f 00
        E 0 80 62 00
        E 0 80 6e 00
        E 0 90 2e 60
        E 0 90 56 60
        E 0 90 62 60
        E 0 90 6e 60
        E 80 80 2e 00
        E 0 80 56 00
        E 0 80 62 00
        E 0 80 6e 00
        E 0 90 31 60
        E 0 90 63 60
        E 0 90 6f 60
        E 80 80 31 00
        E 0 80 63 00
        E 0 80 6f 00
        E 0 90 30 60
        E 0 90 63 60
        E 0 90 6f 60
        E 80 80 30 00
        E 0 80 63 00
        E 0 80 6f 00
        E 0 90 18 60
        E 0 90 24 60
        E 0 90 40 60
        E 0 90 48 60
        E 0 90 4c 60
        E 0 90 54 60
        E 0 90 58 60
        E 0 90 60 60
        E 0 90 64 60
        E 80 80 18 00
        E 0 80 24 00
        E 0 80 40 00
        E 0 80 48 00
        E 0 80 4c 00
        E 0 80 54 00
        E 0 80 58 00
        E 0 80 60 00
        E 0 80 64 00
        E 80 90 18 60
        E 0 90 1e 60
        E 0 90 60 60
        E 0 90 62 60
        E 80 80 18 00
        E 0 80 1e 00
        E 0 80 60 00
        E 0 80 62 00
        E 0 90 1b 60
        E 0 90 55 60
        E 0 90 61 60
        E 80 80 1b 00
        E 0 80 55 00
        E 0 80 61 00
        E 0 90 1e 60
        E 0 90 62 60
        E 80 80 1e 00
        E 0 80 62 00
        E 0 90 18 60
        E 0 90 60 60
        E 80 80 18 00
        E 0 80 60 00
        E 0 90 1a 60
        E 0 90 1f 60
        E 0 90 3d 60
        E 0 90 49 60
        E 0 90 4a 60
        E 0 90 55 60
        E 0 90 56 60
        E 0 90 61 60
        E 0 90 62 60
        E 30 80 1a 00
        E 0 80 1f 00
        E 0 80 3d 00
        E 0 80 49 00
        E 0 80 4a 00
        E 0 80 55 00
        E 0 80 56 00
        E 0 80 61 00
        E 0 80 62 00
        E 130 90 1e 60
        E 0 90 62 60
        E 30 80 1e 00
        E 0 80 62 00
        E 50 90 1b 60
        E 0 90 55 60
        E 0 90 61 60
        E 30 80 1b 00
        E 0 80 55 00
        E 0 80 61 00
        E 50 90 18 60
        E 0 90 1e 60
        E 0 90 60 60
        E 0 90 62 60
        E 30 80 18 00
        E 0 80 1e 00
        E 0 80 60 00
        E 0 80 62 00
        E 50 90 1b 60
        E 0 90 61 60
        E 30 80 1b 00
        E 0 80 61 00
        E 50 90 18 60
        E 0 90 1e 60
        E 0 90 3e 60
        E 0 90 48 60
        E 0 90 4a 60
        E 0 90 54 60
        E 0 90 56 60
        E 0 90 60 60
        E 0 90 62 60
        E 30 80 18 00
        E 0 80 1e 00
        E 0 80 3e 00
        E 0 80 48 00
        E 0 80 4a 00
        E 0 80 54 00
        E 0 80 56 00
        E 0 80 60 00
        E 0 80 62 00
        E 50 90 1b 60
        E 0 90 61 60
        E 30 80 1b 00
        E 0 80 61 00
        E 50 90 18 60
        E 0 90 1e 60
        E 0 90 60 60
        E 0 90 62 60
        E 30 80 18 00
        E 0 80 1e 00
        E 0 80 60 00
        E 0 80 62 00
        E 50 90 1b 60
        E 0 90 55 60
        E 0 90 61 60
        E 30 80 1b 00
        E 0 80 55 00
        E 0 80 61 00
        E 50 90 18 60
        E 0 90 1e 60
        E 0 90 60 60
        E 0 90 62 60
        E 30 80 18 00
        E 0 80 1e 00
        E 0 80 60 00
        E 0 80 62 00
        E 50 90 18 60
        E 0 90 60 60
        E 30 80 18 00
        E 0 80 60 00
        E 50 90 1a 60
        E 0 90 1f 60
        E 0 90 3d 60
        E 0 90 49 60
        E 0 90 4a 60
        E 0 90 55 60
        E 0 90 56 60
        E 0 90 61 60
        E 0 90 62 60
        E 30 80 1a 00
        E 0 80 1f 00
        E 0 80 3d 00
        E 0 80 49 00
        E 0 80 4a 00
        E 0 80 55 00
        E 0 80 56 00
        E 0 80 61 00
        E 0 80 62 00
        E 130 90 18 60
        E 0 90 1e 60
        E 0 90 60 60
        E 0 90 62 60
        E 30 80 18 00
        E 0 80 1e 00
        E 0 80 60 00
        E 0 80 62 00
        E 50 90 1b 60
        E 0 90 55 60
        E 0 90 61 60
        E 30 80 1b 00
        E 0 80 55 00
        E 0 80 61 00
        E 49 90 1e 60
        E 0 90 62 60
        E 30 80 1e 00
        E 0 80 62 00
        E 50 90 1b 60
        E 0 90 61 60
        E 30 80 1b 00
        E 0 80 61 00
        E 51 90 18 60
        E 0 90 1e 60
        E 0 90 3e 60
        E 0 90 48 60
        E 0 90 4a 60
        E 0 90 54 60
        E 0 90 56 60
        E 0 90 60 60
        E 0 90 62 60
        E 0 90 78 60
        E 0 90 79 60
        E 0 90 7a 60
        E 0 90 7b 60
        E 0 90 7c 60
        E 30 80 18 00
        E 0 80 1e 00
        E 0 80 3e 00
        E 0 80 48 00
        E 0 80 4a 00
        E 0 80 54 00
        E 0 80 56 00
        E 0 80 60 00
        E 0 80 62 00
        E 50 90 1b 60
        E 0 90 61 60
        E 30 80 1b 00
        E 0 80 61 00
        E 51 90 1e 60
        E 0 90 62 60
        E 30 80 1e 00
        E 0 80 62 00
        E 49 90 1b 60
        E 0 90 55 60
        E 0 90 61 60
        E 30 80 1b 00
        E 0 80 55 00
        E 0 80 61 00
        E 50 90 18 60
        E 0 90 1e 60
        E 0 90 60 60
        E 0 90 62 60
        E 30 80 18 00
        E 0 80 1e 00
        E 0 80 60 00
        E 0 80 62 00
        E 50 90 18 60
        E 0 90 60 60
        E 30 80 18 00
        E 0 80 60 00
        E 50 90 1a 60
        E 0 90 1f 60
        E 0 90 3d 60
        E 0 90 49 60
        E 0 90 4a 60
        E 0 90 55 60
        E 0 90 56 60
        E 0 90 61 60
        E 0 90 62 60
        E 30 80 1a 00
        E 0 80 1f 00
        E 0 80 3d 00
        E 0 80 49 00
        E 0 80 4a 00
        E 0 80 55 00
        E 0 80 56 00
        E 0 80 61 00
        E 0 80 62 00
        E 130 90 1e 60
        E 0 90 62 60
        E 30 80 1e 00
        E 0 80 62 00
        E 50 90 1b 60
        E 0 90 55 60
        E 0 90 61 60
        E 30 80 1b 00
        E 0 80 55 00
        E 0 80 61 00
        E 50 90 18 60
        E 0 90 1e 60
        E 0 90 60 60
        E 0 90 62 60
        E 30 80 18 00
        E 0 80 1e 00
        E 0 80 60 00
        E 0 80 62 00
        E 50 90 1b 60
        E 0 90 61 60
        E 30 80 1b 00
        E 0 80 61 00
        E 50 90 18 60
        E 0 90 1e 60
        E 0 90 3e 60
        E 0 90 48 60
        E 0 90 4a 60
        E 0 90 54 60
        E 0 90 56 60
        E 0 90 60 60
        E 0 90 62 60
        E 30 80 18 00
        E 0 80 1e 00
        E 0 80 3e 00
        E 0 80 48 00
        E 0 80 4a 00
        E 0 80 54 00
        E 0 80 56 00
        E 0 80 60 00
        E 0 80 62 00
        E 50 90 1b 60
        E 0 90 61 60
        E 30 80 1b 00
        E 0 80 61 00
        E 50 90 1a 60
        E 0 90 61 60
        E 30 80 1a 00
        E 0 80 61 00
        E 50 90 1b 60
        E 0 90 55 60
        E 0 90 61 60
        E 30 80 1b 00
        E 0 80 55 00
        E 0 80 61 00
        E 50 90 18 60
        E 0 90 2b 60
        E 0 90 60 60
        E 0 90 63 60
        E 30 80 18 00
        E 0 80 2b 00
        E 0 80 60 00
        E 0 80 63 00
        E 130 80 78 00
        E 0 80 79 00
        E 0 80 7a 00
        E 0 80 7b 00
        E 0 80 7c 00
        E 0 90 18 60
        E 0 90 24 60
        E 0 90 40 60
        E 0 90 48 60
        E 0 90 4c 60
        E 0 90 54 60
        E 0 90 58 60
        E 0 90 60 60
        E 0 90 64 60
        E 30 80 18 00
        E 0 80 24 00
        E 0 80 40 00
        E 0 80 48 00
        E 0 80 4c 00
        E 0 80 54 00
        E 0 80 58 00
        E 0 80 60 00
        E 0 80 64 00
        E 50 90 1a 60
        E 0 90 61 60
        E 30 80 1a 00
        E 0 80 61 00
        E 50 90 1b 60
        E 0 90 61 60
        E 30 80 1b 00
        E 0 80 61 00
        E 50 90 1a 60
        E 0 90 55 60
        E 0 90 61 60
        E 30 80 1a 00
        E 0 80 55 00
        E 0 80 61 00
        E 130 90 1b 60
        E 0 90 61 60
        E 30 80 1b 00
        E 0 80 61 00
        E 50 90 18 60
        E 0 90 22 60
        E 0 90 40 60
        E 0 90 48 60
        E 0 90 4c 60
        E 0 90 54 60
        E 0 90 58 60
        E 0 90 60 60
        E 0 90 64 60
        E 30 80 18 00
        E 0 80 22 00
        E 0 80 40 00
        E 0 80 48 00
        E 0 80 4c 00
        E 0 80 54 00
        E 0 80 58 00
        E 0 80 60 00
        E 0 80 64 00
        E 131 90 1f 60
        E 0 90 62 60
        E 30 80 1f 00
        E 0 80 62 00
        E 49 90 1a 60
        E 0 90 55 60
        E 0 90 61 60
        E 30 80 1a 00
        E 0 80 55 00
        E 0 80 61 00
        E 50 90 18 60
        E 0 90 1f 60
        E 0 90 60 60
        E 0 90 62 60
        E 30 80 18 00
        E 0 80 1f 00
        E 0 80 60 00
        E 0 80 62 00
        E 50 90 18 60
        E 0 90 60 60
        E 30 80 18 00
        E 0 80 60 00
        E 50 90 1a 60
        E 0 90 1f 60
        E 0 90 3d 60
        E 0 90 49 60
        E 0 90 4a 60
        E 0 90 55 60
        E 0 90 56 60
        E 0 90 61 60
        E 0 90 62 60
        E 30 80 1a 00
        E 0 80 1f 00
        E 0 80 3d 00
        E 0 80 49 00
        E 0 80 4a 00
        E 0 80 55 00
        E 0 80 56 00
        E 0 80 61 00
        E 0 80 62 00
        E 130 90 1e 60
        E 0 90 62 60
        E 30 80 1e 00
        E 0 80 62 00
        E 50 90 1b 60
        E 0 90 55 60
        E 0 90 61 60
        E 30 80 1b 00
        E 0 80 55 00
        E 0 80 61 00
        E 49 90 18 60
        E 0 90 1e 60
        E 0 90 60 60
        E 0 90 62 60
        E 30 80 18 00
        E 0 80 1e 00
        E 0 80 60 00
        E 0 80 62 00
        E 51 90 1b 60
        E 0 90 61 60
        E 30 80 1b 00
        E 0 80 61 00
        E 50 90 18 60
        E 0 90 1e 60
        E 0 90 3e 60
        E 0 90 48 60
        E 0 90 4a 60
        E 0 90 54 60
        E 0 90 56 60
        E 0 90 60 60
        E 0 90 62 60
        E 30 80 18 00
        E 0 80 1e 00
        E 0 80 3e 00
        E 0 80 48 00
        E 0 80 4a 00
        E 0 80 54 00
        E 0 80 56 00
        E 0 80 60 00
        E 0 80 62 00
        E 50 90 1b 60
        E 0 90 61 60
        E 30 80 1b 00
        E 0 80 61 00
        E 50 90 1e 60
        E 0 90 62 60
        E 30 80 1e 00
        E 0 80 62 00
        E 50 90 1b 60
        E 0 90 55 60
        E 0 90 61 60
        E 30 80 1b 00
        E 0 80 55 00
        E 0 80 61 00
        E 50 90 18 60
        E 0 90 1e 60
        E 0 90 60 60
        E 0 90 62 60
        E 30 80 18 00
        E 0 80 1e 00
        E 0 80 60 00
        E 0 80 62 00
        E 50 90 18 60
        E 0 90 60 60
        E 30 80 18 00
        E 0 80 60 00
        E 50 90 1a 60
        E 0 90 1f 60
        E 0 90 3d 60
        E 0 90 49 60
        E 0 90 4a 60
        E 0 90 55 60
        E 0 90 56 60
        E 0 90 61 60
        E 0 90 62 60
        E 30 80 1a 00
        E 0 80 1f 00
        E 0 80 3d 00
        E 0 80 49 00
        E 0 80 4a 00
        E 0 80 55 00
        E 0 80 56 00
        E 0 80 61 00
        E 0 80 62 00
        E 130 90 1e 60
        E 0 90 62 60
        E 30 80 1e 00
        E 0 80 62 00
        E 49 90 1b 60
        E 0 90 55 60
        E 0 90 61 60
        E 30 80 1b 00
        E 0 80 55 00
        E 0 80 61 00
        E 50 90 18 60
        E 0 90 1e 60
        E 0 90 60 60
        E 0 90 62 60
        E 30 80 18 00
        E 0 80 1e 00
        E 0 80 60 00
        E 0 80 62 00
        E 51 90 1b 60
        E 0 90 61 60
        E 30 80 1b 00
        E 0 80 61 00
        E 50 90 18 60
        E 0 90 1e 60
        E 0 90 3e 60
        E 0 90 48 60
        E 0 90 4a 60
        E 0 90 54 60
        E 0 90 56 60
        E 0 90 60 60
        E 0 90 62 60
        E 30 80 18 00
        E 0 80 1e 00
        E 0 80 3e 00
        E 0 80 48 00
        E 0 80 4a 00
        E 0 80 54 00
        E 0 80 56 00
        E 0 80 60 00
        E 0 80 62 00
        E 50 90 1b 60
        E 0 90 61 60
        E 30 80 1b 00
        E 0 80 61 00
        E 50 90 1a 60
        E 0 90 61 60
        E 30 80 1a 00
        E 0 80 61 00
        E 23 90 1b 60
        E 0 90 61 60
        E 30 80 1b 00
        E 0 80 61 00
        E 23 90 1a 60
        E 0 90 61 60
        E 30 80 1a 00
        E 0 80 61 00
        E 24 90 1b 60
        E 0 90 61 60
        E 30 80 1b 00
        E 0 80 61 00
        E 50 90 1a 60
        E 0 90 61 60
        E 30 80 1a 00
        E 0 80 61 00
        E 50 90 18 60
        E 0 90 24 60
        E 0 90 40 60
        E 0 90 48 60
        E 0 90 4c 60
        E 0 90 54 60
        E 0 90 58 60
        E 0 90 60 60
        E 0 90 64 60
        E 30 80 18 00
        E 0 80 24 00
        E 0 80 40 00
        E 0 80 48 00
        E 0 80 4c 00
        E 0 80 54 00
        E 0 80 58 00
        E 0 80 60 00
        E 0 80 64 00
        E 50 90 1a 60
        E 0 90 61 60
        E 30 80 1a 00
        E 0 80 61 00
        E 50 90 18 60
        E 0 90 1b 60
        E 0 90 60 60
        E 0 90 61 60
        E 30 80 18 00
        E 0 80 1b 00
        E 0 80 60 00
        E 0 80 61 00
        E 50 90 2e 60
        E 0 90 56 60
        E 0 90 62 60
        E 0 90 6e 60
        E 30 80 2e 00
        E 0 80 56 00
        E 0 80 62 00
        E 0 80 6e 00
        E 50 90 18 60
        E 0 90 31 60
        E 0 90 60 60
        E 0 90 63 60
        E 0 90 6f 60
        E 30 80 18 00
        E 0 80 31 00
        E 0 80 60 00
        E 0 80 63 00
        E 0 80 6f 00
        E 50 90 1a 60
        E 0 90 61 60
        E 30 80 1a 00
        E 0 80 61 00
        E 50 90 18 60
        E 0 90 1b 60
        E 0 90 3d 60
        E 0 90 49 60
        E 0 90 54 60
        E 0 90 55 60
        E 0 90 60 60
        E 0 90 61 60
        E 30 80 18 00
        E 0 80 1b 00
        E 0 80 3d 00
        E 0 80 49 00
        E 0 80 54 00
        E 0 80 55 00
        E 0 80 60 00
        E 0 80 61 00
        E 50 90 1a 60
        E 0 90 61 60
        E 30 80 1a 00
        E 0 80 61 00
        E 50 90 18 60
        E 0 90 2f 60
        E 0 90 60 60
        E 0 90 62 60
        E 0 90 6e 60
        E 30 80 18 00
        E 0 80 2f 00
        E 0 80 60 00
        E 0 80 62 00
        E 0 80 6e 00
        E 50 90 1a 60
        E 0 90 55 60
        E 0 90 61 60
        E 30 80 1a 00
        E 0 80 55 00
        E 0 80 61 00
        E 50 90 18 60
        E 0 90 1b 60
        E 0 90 60 60
        E 0 90 61 60
        E 30 80 18 00
        E 0 80 1b 00
        E 0 80 60 00
        E 0 80 61 00
        E 50 90 1a 60
        E 0 90 61 60
        E 30 80 1a 00
        E 0 80 61 00
        E 50 90 18 60
        E 0 90 1b 60
        E 0 90 3d 60
        E 0 90 49 60
        E 0 90 54 60
        E 0 90 55 60
        E 0 90 60 60
        E 0 90 61 60
        E 30 80 18 00
        E 0 80 1b 00
        E 0 80 3d 00
        E 0 80 49 00
        E 0 80 54 00
        E 0 80 55 00
        E 0 80 60 00
        E 0 80 61 00
        E 50 90 1a 60
        E 0 90 61 60
        E 30 80 1a 00
        E 0 80 61 00
        E 50 90 2f 60
        E 0 90 62 60
        E 0 90 6e 60
        E 30 80 2f 00
        E 0 80 62 00
        E 0 80 6e 00
        E 49 90 2e 60
        E 0 90 56 60
        E 0 90 62 60
        E 0 90 6e 60
        E 30 80 2e 00
        E 0 80 56 00
        E 0 80 62 00
        E 0 80 6e 00
        E 50 90 31 60
        E 0 90 63 60
        E 0 90 6f 60
        E 30 80 31 00
        E 0 80 63 00
        E 0 80 6f 00
        E 50 90 30 60
        E 0 90 63 60
        E 0 90 6f 60
        E 30 80 30 00
        E 0 80 63 00
        E 0 80 6f 00
        E 51 90 18 60
        E 0 90 24 60
        E 0 90 40 60
        E 0 90 48 60
        E 0 90 4c 60
        E 0 90 54 60
        E 0 90 58 60
        E 0 90 60 60
        E 0 90 64 60
        E 30 80 18 00
        E 0 80 24 00
        E 0 80 40 00
        E 0 80 48 00
        E 0 80 4c 00
        E 0 80 54 00
        E 0 80 58 00
        E 0 80 60 00
        E 0 80 64 00
        E 130 90 1e 60
        E 0 90 62 60
        E 30 80 1e 00
        E 0 80 62 00
        E 50 90 1b 60
        E 0 90 55 60
        E 0 90 61 60
        E 30 80 1b 00
        E 0 80 55 00
        E 0 80 61 00
        E 50 90 18 60
        E 0 90 1e 60
        E 0 90 60 60
        E 0 90 62 60
        E 30 80 18 00
        E 0 80 1e 00
        E 0 80 60 00
        E 0 80 62 00
        E 50 90 18 60
        E 0 90 60 60
        E 30 80 18 00
        E 0 80 60 00
        E 50 90 1a 60
        E 0 90 24 60
        E 0 90 3d 60
        E 0 90 49 60
        E 0 90 4c 60
        E 0 90 55 60
        E 0 90 58 60
        E 0 90 61 60
        E 0 90 64 60
        E 30 80 1a 00
        E 0 80 24 00
        E 0 80 3d 00
        E 0 80 49 00
        E 0 80 4c 00
        E 0 80 55 00
        E 0 80 58 00
        E 0 80 61 00
        E 0 80 64 00
        E 130 90 1e 60
        E 0 90 62 60
        E 30 80 1e 00
        E 0 80 62 00
        E 50 90 1b 60
        E 0 90 55 60
        E 0 90 61 60
        E 30 80 1b 00
        E 0 80 55 00
        E 0 80 61 00
        E 50 90 18 60
        E 0 90 1e 60
        E 0 90 60 60
        E 0 90 62 60
        E 30 80 18 00
        E 0 80 1e 00
        E 0 80 60 00
        E 0 80 62 00
        E 50 90 1b 60
        E 0 90 61 60
        E 30 80 1b 00
        E 0 80 61 00
        E 50 90 18 60
        E 0 90 1e 60
        E 0 90 3e 60
        E 0 90 48 60
        E 0 90 4a 60
        E 0 90 54 60
        E 0 90 56 60
        E 0 90 60 60
        E 0 90 62 60
        E 30 80 18 00
        E 0 80 1e 00
        E 0 80 3e 00
        E 0 80 48 00
        E 0 80 4a 00
        E 0 80 54 00
        E 0 80 56 00
        E 0 80 60 00
        E 0 80 62 00
        E 50 90 1b 60
        E 0 90 61 60
        E 30 80 1b 00
        E 0 80 61 00
        E 50 90 1e 60
        E 0 90 62 60
        E 30 80 1e 00
        E 0 80 62 00
        E 50 90 1b 60
        E 0 90 55 60
        E 0 90 61 60
        E 30 80 1b 00
        E 0 80 55 00
        E 0 80 61 00
        E 50 90 18 60
        E 0 90 1e 60
        E 0 90 60 60
        E 0 90 62 60
        E 30 80 18 00
        E 0 80 1e 00
        E 0 80 60 00
        E 0 80 62 00
        E 50 90 18 60
        E 0 90 60 60
        E 30 80 18 00
        E 0 80 60 00
        E 50 90 1a 60
        E 0 90 1f 60
        E 0 90 3d 60
        E 0 90 49 60
        E 0 90 4a 60
        E 0 90 55 60
        E 0 90 56 60
        E 0 90 61 60
        E 0 90 62 60
        E 30 80 1a 00
        E 0 80 1f 00
        E 0 80 3d 00
        E 0 80 49 00
        E 0 80 4a 00
        E 0 80 55 00
        E 0 80 56 00
        E 0 80 61 00
        E 0 80 62 00
        E 130 90 18 60
        E 0 90 1e 60
        E 0 90 60 60
        E 0 90 62 60
        E 30 80 18 00
        E 0 80 1e 00
        E 0 80 60 00
        E 0 80 62 00
        E 50 90 1b 60
        E 0 90 55 60
        E 0 90 61 60
        E 30 80 1b 00
        E 0 80 55 00
        E 0 80 61 00
        E 49 90 1e 60
        E 0 90 62 60
        E 30 80 1e 00
        E 0 80 62 00
        E 50 90 1b 60
        E 0 90 61 60
        E 30 80 1b 00
        E 0 80 61 00
        E 51 90 18 60
        E 0 90 1e 60
        E 0 90 3e 60
        E 0 90 48 60
        E 0 90 4a 60
        E 0 90 54 60
        E 0 90 56 60
        E 0 90 60 60
        E 0 90 62 60
        E 30 80 18 00
        E 0 80 1e 00
        E 0 80 3e 00
        E 0 80 48 00
        E 0 80 4a 00
        E 0 80 54 00
        E 0 80 56 00
        E 0 80 60 00
        E 0 80 62 00
        E 50 90 1b 60
        E 0 90 61 60
        E 30 80 1b 00
        E 0 80 61 00
        E 50 90 1e 60
        E 0 90 62 60
        E 30 80 1e 00
        E 0 80 62 00
        E 50 90 1b 60
        E 0 90 55 60
        E 0 90 61 60
        E 30 80 1b 00
        E 0 80 55 00
        E 0 80 61 00
        E 50 90 18 60
        E 0 90 1e 60
        E 0 90 60 60
        E 0 90 62 60
        E 30 80 18 00
        E 0 80 1e 00
        E 0 80 60 00
        E 0 80 62 00
        E 50 90 18 60
        E 0 90 60 60
        E 30 80 18 00
        E 0 80 60 00
        E 50 90 1a 60
        E 0 90 1f 60
        E 0 90 3d 60
        E 0 90 49 60
        E 0 90 4a 60
        E 0 90 55 60
        E 0 90 56 60
        E 0 90 61 60
        E 0 90 62 60
        E 30 80 1a 00
        E 0 80 1f 00
        E 0 80 3d 00
        E 0 80 49 00
        E 0 80 4a 00
        E 0 80 55 00
        E 0 80 56 00
        E 0 80 61 00
        E 0 80 62 00
        E 130 90 1e 60
        E 0 90 62 60
        E 30 80 1e 00
        E 0 80 62 00
        E 50 90 1b 60
        E 0 90 55 60
        E 0 90 61 60
        E 30 80 1b 00
        E 0 80 55 00
        E 0 80 61 00
        E 50 90 18 60
        E 0 90 1e 60
        E 0 90 60 60
        E 0 90 62 60
        E 30 80 18 00
        E 0 80 1e 00
        E 0 80 60 00
        E 0 80 62 00
        E 50 90 1b 60
        E 0 90 61 60
        E 30 80 1b 00
        E 0 80 61 00
        E 50 90 18 60
        E 0 90 1e 60
        E 0 90 3e 60
        E 0 90 48 60
        E 0 90 4a 60
        E 0 90 54 60
        E 0 90 56 60
        E 0 90 60 60
        E 0 90 62 60
        E 30 80 18 00
        E 0 80 1e 00
        E 0 80 3e 00
        E 0 80 48 00
        E 0 80 4a 00
        E 0 80 54 00
        E 0 80 56 00
        E 0 80 60 00
        E 0 80 62 00
        E 50 90 1b 60
        E 0 90 61 60
        E 30 80 1b 00
        E 0 80 61 00
        E 50 90 1a 60
        E 0 90 61 60
        E 30 80 1a 00
        E 0 80 61 00
        E 50 90 1b 60
        E 0 90 55 60
        E 0 90 61 60
        E 30 80 1b 00
        E 0 80 55 00
        E 0 80 61 00
        E 50 90 1a 60
        E 0 90 61 60
        E 30 80 1a 00
        E 0 80 61 00
        E 50 90 1b 60
        E 0 90 61 60
        E 30 80 1b 00
        E 0 80 61 00
        E 50 90 1a 60
        E 0 90 3d 60
        E 0 90 49 60
        E 0 90 55 60
        E 0 90 61 60
        E 30 80 1a 00
        E 0 80 3d 00
        E 0 80 49 00
        E 0 80 55 00
        E 0 80 61 00
        E 50 90 1b 60
        E 0 90 61 60
        E 30 80 1b 00
        E 0 80 61 00
        E 50 90 18 60
        E 0 90 22 60
        E 0 90 60 60
        E 0 90 64 60
        E 30 80 18 00
        E 0 80 22 00
        E 0 80 60 00
        E 0 80 64 00
        E 49 90 2a 60
        E 0 90 57 60
        E 0 90 63 60
        E 30 80 2a 00
        E 0 80 57 00
        E 0 80 63 00
        E 50 90 18 60
        E 0 90 22 60
        E 0 90 60 60
        E 0 90 64 60
        E 30 80 18 00
        E 0 80 22 00
        E 0 80 60 00
        E 0 80 64 00
        E 50 90 2a 60
        E 0 90 63 60
        E 30 80 2a 00
        E 0 80 63 00
        E 51 90 18 60
        E 0 90 22 60
        E 0 90 40 60
        E 0 90 48 60
        E 0 90 4c 60
        E 0 90 54 60
        E 0 90 58 60
        E 0 90 60 60
        E 0 90 64 60
        E 0 90 74 60
        E 30 80 18 00
        E 0 80 22 00
        E 0 80 40 00
        E 0 80 48 00
        E 0 80 4c 00
        E 0 80 54 00
        E 0 80 58 00
        E 0 80 60 00
        E 0 80 64 00
        E 130 90 1f 60
        E 0 90 62 60
        E 30 80 1f 00
        E 0 80 62 00
        E 50 90 1a 60
        E 0 90 55 60
        E 0 90 61 60
        E 30 80 1a 00
        E 0 80 55 00
        E 0 80 61 00
        E 50 90 18 60
        E 0 90 1f 60
        E 0 90 60 60
        E 0 90 62 60
        E 30 80 18 00
        E 0 80 1f 00
        E 0 80 60 00
        E 0 80 62 00
        E 50 90 18 60
        E 0 90 60 60
        E 30 80 18 00
        E 0 80 60 00
        E 50 90 1a 60
        E 0 90 1f 60
        E 0 90 3d 60
        E 0 90 49 60
        E 0 90 4a 60
        E 0 90 55 60
        E 0 90 56 60
        E 0 90 61 60
        E 0 90 62 60
        E 30 80 1a 00
        E 0 80 1f 00
        E 0 80 3d 00
        E 0 80 49 00
        E 0 80 4a 00
        E 0 80 55 00
        E 0 80 56 00
        E 0 80 61 00
        E 0 80 62 00
        E 130 90 1e 60
        E 0 90 62 60
        E 30 80 1e 00
        E 0 80 62 00
        E 50 90 1b 60
        E 0 90 55 60
        E 0 90 61 60
        E 30 80 1b 00
        E 0 80 55 00
        E 0 80 61 00
        E 50 90 18 60
        E 0 90 1e 60
        E 0 90 60 60
        E 0 90 62 60
        E 30 80 18 00
        E 0 80 1e 00
        E 0 80 60 00
        E 0 80 62 00
        E 50 90 1b 60
        E 0 90 61 60
        E 30 80 1b 00
        E 0 80 61 00
        E 50 90 18 60
        E 0 90 1e 60
        E 0 90 3e 60
        E 0 90 48 60
        E 0 90 4a 60
        E 0 90 54 60
        E 0 90 56 60
        E 0 90 60 60
        E 0 90 62 60
        E 30 80 18 00
        E 0 80 1e 00
        E 0 80 3e 00
        E 0 80 48 00
        E 0 80 4a 00
        E 0 80 54 00
        E 0 80 56 00
        E 0 80 60 00
        E 0 80 62 00
        E 50 90 1b 60
        E 0 90 61 60
        E 30 80 1b 00
        E 0 80 61 00
        E 50 90 1e 60
        E 0 90 62 60
        E 30 80 1e 00
        E 0 80 62 00
        E 50 90 1b 60
        E 0 90 55 60
        E 0 90 61 60
        E 30 80 1b 00
        E 0 80 55 00
        E 0 80 61 00
        E 50 90 18 60
        E 0 90 1e 60
        E 0 90 60 60
        E 0 90 62 60
        E 30 80 18 00
        E 0 80 1e 00
        E 0 80 60 00
        E 0 80 62 00
        E 50 90 18 60
        E 0 90 60 60
        E 30 80 18 00
        E 0 80 60 00
        E 50 90 1a 60
        E 0 90 1f 60
        E 0 90 3d 60
        E 0 90 49 60
        E 0 90 4a 60
        E 0 90 55 60
        E 0 90 56 60
        E 0 90 61 60
        E 0 90 62 60
        E 30 80 1a 00
        E 0 80 1f 00
        E 0 80 3d 00
        E 0 80 49 00
        E 0 80 4a 00
        E 0 80 55 00
        E 0 80 56 00
        E 0 80 61 00
        E 0 80 62 00
        E 130 90 18 60
        E 0 90 1e 60
        E 0 90 60 60
        E 0 90 62 60
        E 30 80 18 00
        E 0 80 1e 00
        E 0 80 60 00
        E 0 80 62 00
        E 50 90 1b 60
        E 0 90 55 60
        E 0 90 61 60
        E 30 80 1b 00
        E 0 80 55 00
        E 0 80 61 00
        E 50 90 1e 60
        E 0 90 62 60
        E 30 80 1e 00
        E 0 80 62 00
        E 50 90 1b 60
        E 0 90 61 60
        E 30 80 1b 00
        E 0 80 61 00
        E 50 80 74 00
        E 0 90 18 60
        E 0 90 22 60
        E 0 90 40 60
        E 0 90 48 60
        E 0 90 4c 60
        E 0 90 54 60
        E 0 90 58 60
        E 0 90 60 60
        E 0 90 64 60
        E 30 80 18 00
        E 0 80 22 00
        E 0 80 40 00
        E 0 80 48 00
        E 0 80 4c 00
        E 0 80 54 00
        E 0 80 58 00
        E 0 80 60 00
        E 0 80 64 00
        E 50 90 1b 60
        E 0 90 61 60
        E 30 80 1b 00
        E 0 80 61 00
        E 50 90 1e 60
        E 0 90 62 60
        E 30 80 1e 00
        E 0 80 62 00
        E 50 90 1b 60
        E 0 90 55 60
        E 0 90 61 60
        E 30 80 1b 00
        E 0 80 55 00
        E 0 80 61 00
        E 50 90 18 60
        E 0 90 1e 60
        E 0 90 60 60
        E 0 90 62 60
        E 30 80 18 00
        E 0 80 1e 00
        E 0 80 60 00
        E 0 80 62 00
        E 50 90 18 60
        E 0 90 60 60
        E 30 80 18 00
        E 0 80 60 00
        E 50 90 1a 60
        E 0 90 1f 60
        E 0 90 3d 60
        E 0 90 49 60
        E 0 90 4a 60
        E 0 90 55 60
        E 0 90 56 60
        E 0 90 61 60
        E 0 90 62 60
        E 30 80 1a 00
        E 0 80 1f 00
        E 0 80 3d 00
        E 0 80 49 00
        E 0 80 4a 00
        E 0 80 55 00
        E 0 80 56 00
        E 0 80 61 00
        E 0 80 62 00
        E 130 90 1e 60
        E 0 90 62 60
        E 30 80 1e 00
        E 0 80 62 00
        E 50 90 1b 60
        E 0 90 55 60
        E 0 90 61 60
        E 30 80 1b 00
        E 0 80 55 00
        E 0 80 61 00
        E 50 90 18 60
        E 0 90 1e 60
        E 0 90 60 60
        E 0 90 62 60
        E 30 80 18 00
        E 0 80 1e 00
        E 0 80 60 00
        E 0 80 62 00
        E 50 90 1b 60
        E 0 90 61 60
        E 30 80 1b 00
        E 0 80 61 00
        E 50 90 18 60
        E 0 90 1e 60
        E 0 90 3e 60
        E 0 90 48 60
        E 0 90 4a 60
        E 0 90 54 60
        E 0 90 56 60
        E 0 90 60 60
        E 0 90 62 60
        E 0 90 78 60
        E 0 90 79 60
        E 0 90 7a 60
        E 0 90 7b 60
        E 0 90 7c 60
        E 30 80 18 00
        E 0 80 1e 00
        E 0 80 3e 00
        E 0 80 48 00
        E 0 80 4a 00
        E 0 80 54 00
        E 0 80 56 00
        E 0 80 60 00
        E 0 80 62 00
        E 50 90 1b 60
        E 0 90 61 60
        E 30 80 1b 00
        E 0 80 61 00
        E 50 90 1a 60
        E 0 90 61 60
        E 30 80 1a 00
        E 0 80 61 00
        E 24 90 1b 60
        E 0 90 61 60
        E 30 80 1b 00
        E 0 80 61 00
        E 23 90 1a 60
        E 0 90 61 60
        E 30 80 1a 00
        E 0 80 61 00
        E 23 90 1b 60
        E 0 90 61 60
        E 30 80 1b 00
        E 0 80 61 00
        E 50 90 1a 60
        E 0 90 61 60
        E 30 80 1a 00
        E 0 80 61 00
        E 50 90 18 60
        E 0 90 24 60
        E 0 90 40 60
        E 0 90 48 60
        E 0 90 4c 60
        E 0 90 54 60
        E 0 90 58 60
        E 0 90 60 60
        E 0 90 64 60
        E 30 80 18 00
        E 0 80 24 00
        E 0 80 40 00
        E 0 80 48 00
        E 0 80 4c 00
        E 0 80 54 00
        E 0 80 58 00
        E 0 80 60 00
        E 0 80 64 00
        E 50 90 1a 60
        E 0 90 61 60
        E 30 80 1a 00
        E 0 80 61 00
        E 50 90 1b 60
        E 0 90 61 60
        E 30 80 1b 00
        E 0 80 61 00
        E 50 90 1a 60
        E 0 90 55 60
        E 0 90 61 60
        E 30 80 1a 00
        E 0 80 55 00
        E 0 80 61 00
        E 50 90 1b 60
        E 0 90 61 60
        E 30 80 1b 00
        E 0 80 61 00
        E 50 90 1a 60
        E 0 90 61 60
        E 30 80 1a 00
        E 0 80 61 00
        E 50 90 18 60
        E 0 90 24 60
        E 0 90 40 60
        E 0 90 48 60
        E 0 90 4c 60
        E 0 90 54 60
        E 0 90 58 60
        E 0 90 60 60
        E 0 90 64 60
        E 1 80 78 00
        E 0 80 79 00
        E 0 80 7a 00
        E 0 80 7b 00
        E 0 80 7c 00
        E 29 80 18 00
        E 0 80 24 00
        E 0 80 40 00
        E 0 80 48 00
        E 0 80 4c 00
        E 0 80 54 00
        E 0 80 58 00
        E 0 80 60 00
        E 0 80 64 00
        E 130 90 18 60
        E 0 90 2b 60
        E 0 90 60 60
        E 0 90 63 60
        E 30 80 18 00
        E 0 80 2b 00
        E 0 80 60 00
        E 0 80 63 00
        E 130 90 18 60
        E 0 90 2a 60
        E 0 90 60 60
        E 0 90 63 60
        E 30 80 18 00
        E 0 80 2a 00
        E 0 80 60 00
        E 0 80 63 00
        E 130 90 18 60
        E 0 90 1a 60
        E 0 90 2a 60
        E 0 90 3d 60
        E 0 90 49 60
        E 0 90 4b 60
        E 0 90 54 60
        E 0 90 55 60
        E 0 90 57 60
        E 0 90 60 60
        E 0 90 61 60
        E 0 90 63 60
        E 30 80 18 00
        E 0 80 1a 00
        E 0 80 2a 00
        E 0 80 3d 00
        E 0 80 49 00
        E 0 80 4b 00
        E 0 80 54 00
        E 0 80 55 00
        E 0 80 57 00
        E 0 80 60 00
        E 0 80 61 00
        E 0 80 63 00
        E 130 90 18 60
        E 0 90 2b 60
        E 0 90 60 60
        E 0 90 63 60
        E 30 80 18 00
        E 0 80 2b 00
        E 0 80 60 00
        E 0 80 63 00
        E 130 90 18 60
        E 0 90 2a 60
        E 0 90 60 60
        E 0 90 63 60
        E 30 80 18 00
        E 0 80 2a 00
        E 0 80 60 00
        E 0 80 63 00
        E 130 90 18 60
        E 0 90 2b 60
        E 0 90 3f 60
        E 0 90 48 60
        E 0 90 4b 60
        E 0 90 54 60
        E 0 90 57 60
        E 0 90 60 60
        E 0 90 63 60
        E 30 80 18 00
        E 0 80 2b 00
        E 0 80 3f 00
        E 0 80 48 00
        E 0 80 4b 00
        E 0 80 54 00
        E 0 80 57 00
        E 0 80 60 00
        E 0 80 63 00
        E 130 90 18 60
        E 0 90 2a 60
        E 0 90 60 60
        E 0 90 63 60
        E 30 80 18 00
        E 0 80 2a 00
        E 0 80 60 00
        E 0 80 63 00
        E 130 90 18 60
        E 0 90 2b 60
        E 0 90 60 60
        E 0 90 63 60
        E 30 80 18 00
        E 0 80 2b 00
        E 0 80 60 00
        E 0 80 63 00
        E 130 90 18 60
        E 0 90 1a 60
        E 0 90 2a 60
        E 0 90 3d 60
        E 0 90 49 60
        E 0 90 4b 60
        E 0 90 54 60
        E 0 90 55 60
        E 0 90 57 60
        E 0 90 60 60
        E 0 90 61 60
        E 0 90 63 60
        E 30 80 18 00
        E 0 80 1a 00
        E 0 80 2a 00
        E 0 80 3d 00
        E 0 80 49 00
        E 0 80 4b 00
        E 0 80 54 00
        E 0 80 55 00
        E 0 80 57 00
        E 0 80 60 00
        E 0 80 61 00
        E 0 80 63 00
        E 130 90 18 60
        E 0 90 2b 60
        E 0 90 60 60
        E 0 90 63 60
        E 30 80 18 00
        E 0 80 2b 00
        E 0 80 60 00
        E 0 80 63 00
        E 130 90 18 60
        E 0 90 2a 60
        E 0 90 60 60
        E 0 90 63 60
        E 30 80 18 00
        E 0 80 2a 00
        E 0 80 60 00
        E 0 80 63 00
        E 130 90 18 60
        E 0 90 2b 60
        E 0 90 3f 60
        E 0 90 48 60
        E 0 90 4b 60
        E 0 90 54 60
        E 0 90 57 60
        E 0 90 60 60
        E 0 90 63 60
        E 30 80 18 00
        E 0 80 2b 00
        E 0 80 3f 00
        E 0 80 48 00
        E 0 80 4b 00
        E 0 80 54 00
        E 0 80 57 00
        E 0 80 60 00
        E 0 80 63 00
        E 130 90 18 60
        E 0 90 2a 60
        E 0 90 60 60
        E 0 90 63 60
        E 30 80 18 00
        E 0 80 2a 00
        E 0 80 60 00
        E 0 80 63 00
        E 130 90 18 60
        E 0 90 2b 60
        E 0 90 60 60
        E 0 90 63 60
        E 30 80 18 00
        E 0 80 2b 00
        E 0 80 60 00
        E 0 80 63 00
        E 130 90 18 60
        E 0 90 1a 60
        E 0 90 2a 60
        E 0 90 3d 60
        E 0 90 49 60
        E 0 90 4b 60
        E 0 90 54 60
        E 0 90 55 60
        E 0 90 57 60
        E 0 90 60 60
        E 0 90 61 60
        E 0 90 63 60
        E 30 80 18 00
        E 0 80 1a 00
        E 0 80 2a 00
        E 0 80 3d 00
        E 0 80 49 00
        E 0 80 4b 00
        E 0 80 54 00
        E 0 80 55 00
        E 0 80 57 00
        E 0 80 60 00
        E 0 80 61 00
        E 0 80 63 00
        E 130 90 18 60
        E 0 90 2b 60
        E 0 90 60 60
        E 0 90 63 60
        E 30 80 18 00
        E 0 80 2b 00
        E 0 80 60 00
        E 0 80 63 00
        E 130 90 18 60
        E 0 90 2a 60
        E 0 90 60 60
        E 0 90 63 60
        E 30 80 18 00
        E 0 80 2a 00
        E 0 80 60 00
        E 0 80 63 00
        E 129 90 78 60
        E 0 90 79 60
        E 0 90 7a 60
        E 0 90 7b 60
        E 0 90 7c 60
        E 1 90 18 60
        E 0 90 1a 60
        E 0 90 3d 60
        E 0 90 49 60
        E 0 90 54 60
        E 0 90 55 60
        E 0 90 60 60
        E 0 90 61 60
        E 30 80 18 00
        E 0 80 1a 00
        E 0 80 3d 00
        E 0 80 49 00
        E 0 80 54 00
        E 0 80 55 00
        E 0 80 60 00
        E 0 80 61 00
        E 50 90 2f 60
        E 0 90 62 60
        E 0 90 6e 60
        E 30 80 2f 00
        E 0 80 62 00
        E 0 80 6e 00
        E 50 90 18 60
        E 0 90 30 60
        E 0 90 60 60
        E 0 90 63 60
        E 0 90 6f 60
        E 30 80 18 00
        E 0 80 30 00
        E 0 80 60 00
        E 0 80 63 00
        E 0 80 6f 00
        E 50 90 1b 60
        E 0 90 55 60
        E 0 90 61 60
        E 30 80 1b 00
        E 0 80 55 00
        E 0 80 61 00
        E 50 90 18 60
        E 0 90 1a 60
        E 0 90 60 60
        E 0 90 61 60
        E 30 80 18 00
        E 0 80 1a 00
        E 0 80 60 00
        E 0 80 61 00
        E 50 90 1b 60
        E 0 90 61 60
        E 30 80 1b 00
        E 0 80 61 00
        E 50 90 18 60
        E 0 90 2e 60
        E 0 90 3e 60
        E 0 90 4a 60
        E 0 90 54 60
        E 0 90 56 60
        E 0 90 60 60
        E 0 90 62 60
        E 0 90 6e 60
        E 30 80 18 00
        E 0 80 2e 00
        E 0 80 3e 00
        E 0 80 4a 00
        E 0 80 54 00
        E 0 80 56 00
        E 0 80 60 00
        E 0 80 62 00
        E 0 80 6e 00
        E 50 90 2f 60
        E 0 90 62 60
        E 0 90 6e 60
        E 30 80 2f 00
        E 0 80 62 00
        E 0 80 6e 00
        E 50 90 18 60
        E 0 90 2e 60
        E 0 90 60 60
        E 0 90 62 60
        E 0 90 6e 60
        E 30 80 18 00
        E 0 80 2e 00
        E 0 80 60 00
        E 0 80 62 00
        E 0 80 6e 00
        E 50 90 2f 60
        E 0 90 56 60
        E 0 90 62 60
        E 0 90 6e 60
        E 30 80 2f 00
        E 0 80 56 00
        E 0 80 62 00
        E 0 80 6e 00
        E 50 90 18 60
        E 0 90 30 60
        E 0 90 60 60
        E 0 90 63 60
        E 0 90 6f 60
        E 30 80 18 00
        E 0 80 30 00
        E 0 80 60 00
        E 0 80 63 00
        E 0 80 6f 00
        E 50 90 31 60
        E 0 90 63 60
        E 0 90 6f 60
        E 30 80 31 00
        E 0 80 63 00
        E 0 80 6f 00
        E 50 80 78 00
        E 0 80 79 00
        E 0 80 7a 00
        E 0 80 7b 00
        E 0 80 7c 00
        E 0 90 18 60
        E 0 90 22 60
        E 0 90 40 60
        E 0 90 48 60
        E 0 90 4c 60
        E 0 90 54 60
        E 0 90 58 60
        E 0 90 60 60
        E 0 90 64 60
        E 30 80 18 00
        E 0 80 22 00
        E 0 80 40 00
        E 0 80 48 00
        E 0 80 4c 00
        E 0 80 54 00
        E 0 80 58 00
        E 0 80 60 00
        E 0 80 64 00
        E 130 90 18 60
        E 0 90 2a 60
        E 0 90 60 60
        E 0 90 63 60
        E 30 80 18 00
        E 0 80 2a 00
        E 0 80 60 00
        E 0 80 63 00
        E 130 90 18 60
        E 0 90 2b 60
        E 0 90 60 60
        E 0 90 63 60
        E 30 80 18 00
        E 0 80 2b 00
        E 0 80 60 00
        E 0 80 63 00
        E 130 90 18 60
        E 0 90 1a 60
        E 0 90 2a 60
        E 0 90 3d 60
        E 0 90 49 60
        E 0 90 4b 60
        E 0 90 54 60
        E 0 90 55 60
        E 0 90 57 60
        E 0 90 60 60
        E 0 90 61 60
        E 0 90 63 60
        E 30 80 18 00
        E 0 80 1a 00
        E 0 80 2a 00
        E 0 80 3d 00
        E 0 80 49 00
        E 0 80 4b 00
        E 0 80 54 00
        E 0 80 55 00
        E 0 80 57 00
        E 0 80 60 00
        E 0 80 61 00
        E 0 80 63 00
        E 130 90 18 60
        E 0 90 2b 60
        E 0 90 60 60
        E 0 90 63 60
        E 30 80 18 00
        E 0 80 2b 00
        E 0 80 60 00
        E 0 80 63 00
        E 130 90 18 60
        E 0 90 2a 60
        E 0 90 60 60
        E 0 90 63 60
        E 30 80 18 00
        E 0 80 2a 00
        E 0 80 60 00
        E 0 80 63 00
        E 130 90 18 60
        E 0 90 2b 60
        E 0 90 3f 60
        E 0 90 48 60
        E 0 90 4b 60
        E 0 90 54 60
        E 0 90 57 60
        E 0 90 60 60
        E 0 90 63 60
        E 30 80 18 00
        E 0 80 2b 00
        E 0 80 3f 00
        E 0 80 48 00
        E 0 80 4b 00
        E 0 80 54 00
        E 0 80 57 00
        E 0 80 60 00
        E 0 80 63 00
        E 130 90 18 60
        E 0 90 2a 60
        E 0 90 60 60
        E 0 90 63 60
        E 30 80 18 00
        E 0 80 2a 00
        E 0 80 60 00
        E 0 80 63 00
        E 130 90 18 60
        E 0 90 2b 60
        E 0 90 60 60
        E 0 90 63 60
        E 30 80 18 00
        E 0 80 2b 00
        E 0 80 60 00
        E 0 80 63 00
        E 130 90 18 60
        E 0 90 1a 60
        E 0 90 2a 60
        E 0 90 3d 60
        E 0 90 49 60
        E 0 90 4b 60
        E 0 90 54 60
        E 0 90 55 60
        E 0 90 57 60
        E 0 90 60 60
        E 0 90 61 60
        E 0 90 63 60
        E 30 80 18 00
        E 0 80 1a 00
        E 0 80 2a 00
        E 0 80 3d 00
        E 0 80 49 00
        E 0 80 4b 00
        E 0 80 54 00
        E 0 80 55 00
        E 0 80 57 00
        E 0 80 60 00
        E 0 80 61 00
        E 0 80 63 00
        E 130 90 18 60
        E 0 90 2b 60
        E 0 90 60 60
        E 0 90 63 60
        E 30 80 18 00
        E 0 80 2b 00
        E 0 80 60 00
        E 0 80 63 00
        E 50 90 1b 60
        E 0 90 55 60
        E 0 90 61 60
        E 30 80 1b 00
        E 0 80 55 00
        E 0 80 61 00
        E 50 90 18 60
        E 0 90 2b 60
        E 0 90 60 60
        E 0 90 63 60
        E 30 80 18 00
        E 0 80 2b 00
        E 0 80 60 00
        E 0 80 63 00
        E 130 90 18 60
        E 0 90 2a 60
        E 0 90 3f 60
        E 0 90 48 60
        E 0 90 4b 60
        E 0 90 54 60
        E 0 90 57 60
        E 0 90 60 60
        E 0 90 63 60
        E 30 80 18 00
        E 0 80 2a 00
        E 0 80 3f 00
        E 0 80 48 00
        E 0 80 4b 00
        E 0 80 54 00
        E 0 80 57 00
        E 0 80 60 00
        E 0 80 63 00
        E 50 90 1a 60
        E 0 90 61 60
        E 30 80 1a 00
        E 0 80 61 00
        E 50 90 18 60
        E 0 90 1b 60
        E 0 90 60 60
        E 0 90 61 60
        E 30 80 18 00
        E 0 80 1b 00
        E 0 80 60 00
        E 0 80 61 00
        E 50 90 1a 60
        E 0 90 55 60
        E 0 90 61 60
        E 30 80 1a 00
        E 0 80 55 00
        E 0 80 61 00
        E 50 90 18 60
        E 0 90 60 60
        E 30 80 18 00
        E 0 80 60 00
        E 50 90 1a 60
        E 0 90 61 60
        E 30 80 1a 00
        E 0 80 61 00
        E 50 90 18 60
        E 0 90 24 60
        E 0 90 40 60
        E 0 90 48 60
        E 0 90 4c 60
        E 0 90 54 60
        E 0 90 58 60
        E 0 90 60 60
        E 0 90 64 60
        E 30 80 18 00
        E 0 80 24 00
        E 0 80 40 00
        E 0 80 48 00
        E 0 80 4c 00
        E 0 80 54 00
        E 0 80 58 00
        E 0 80 60 00
        E 0 80 64 00
        E 50 90 1a 60
        E 0 90 61 60
        E 30 80 1a 00
        E 0 80 61 00
        E 50 90 18 60
        E 0 90 1b 60
        E 0 90 60 60
        E 0 90 61 60
        E 30 80 18 00
        E 0 80 1b 00
        E 0 80 60 00
        E 0 80 61 00
        E 50 90 1a 60
        E 0 90 55 60
        E 0 90 61 60
        E 30 80 1a 00
        E 0 80 55 00
        E 0 80 61 00
        E 50 90 18 60
        E 0 90 60 60
        E 30 80 18 00
        E 0 80 60 00
        E 50 90 1a 60
        E 0 90 61 60
        E 30 80 1a 00
        E 0 80 61 00
        E 50 90 18 60
        E 0 90 24 60
        E 0 90 40 60
        E 0 90 48 60
        E 0 90 4c 60
        E 0 90 54 60
        E 0 90 58 60
        E 0 90 60 60
        E 0 90 64 60
        E 30 80 18 00
        E 0 80 24 00
        E 0 80 40 00
        E 0 80 48 00
        E 0 80 4c 00
        E 0 80 54 00
        E 0 80 58 00
        E 0 80 60 00
        E 0 80 64 00
        E 50 90 1a 60
        E 0 90 61 60
        E 30 80 1a 00
        E 0 80 61 00
        E 50 90 18 60
        E 0 90 1b 60
        E 0 90 60 60
        E 0 90 61 60
        E 30 80 18 00
        E 0 80 1b 00
        E 0 80 60 00
        E 0 80 61 00
        E 50 90 2e 60
        E 0 90 56 60
        E 0 90 62 60
        E 0 90 6e 60
        E 30 80 2e 00
        E 0 80 56 00
        E 0 80 62 00
        E 0 80 6e 00
        E 50 90 18 60
        E 0 90 31 60
        E 0 90 60 60
        E 0 90 63 60
        E 0 90 6f 60
        E 30 80 18 00
        E 0 80 31 00
        E 0 80 60 00
        E 0 80 63 00
        E 0 80 6f 00
        E 50 90 1a 60
        E 0 90 61 60
        E 30 80 1a 00
        E 0 80 61 00
        E 50 90 18 60
        E 0 90 1b 60
        E 0 90 3d 60
        E 0 90 49 60
        E 0 90 54 60
        E 0 90 55 60
        E 0 90 60 60
        E 0 90 61 60
        E 30 80 18 00
        E 0 80 1b 00
        E 0 80 3d 00
        E 0 80 49 00
        E 0 80 54 00
        E 0 80 55 00
        E 0 80 60 00
        E 0 80 61 00
        E 50 90 1a 60
        E 0 90 61 60
        E 30 80 1a 00
        E 0 80 61 00
        E 50 90 18 60
        E 0 90 2f 60
        E 0 90 60 60
        E 0 90 62 60
        E 0 90 6e 60
        E 30 80 18 00
        E 0 80 2f 00
        E 0 80 60 00
        E 0 80 62 00
        E 0 80 6e 00
        E 50 90 2e 60
        E 0 90 56 60
        E 0 90 62 60
        E 0 90 6e 60
        E 30 80 2e 00
        E 0 80 56 00
        E 0 80 62 00
        E 0 80 6e 00
        E 50 90 18 60
        E 0 90 31 60
        E 0 90 60 60
        E 0 90 63 60
        E 0 90 6f 60
        E 30 80 18 00
        E 0 80 31 00
        E 0 80 60 00
        E 0 80 63 00
        E 0 80 6f 00
        E 50 90 30 60
        E 0 90 63 60
        E 0 90 6f 60
        E 30 80 30 00
        E 0 80 63 00
        E 0 80 6f 00
        E 50 90 18 60
        E 0 90 24 60
        E 0 90 40 60
        E 0 90 48 60
        E 0 90 4c 60
        E 0 90 54 60
        E 0 90 58 60
        E 0 90 60 60
        E 0 90 64 60
        E 30 80 18 00
        E 0 80 24 00
        E 0 80 40 00
        E 0 80 48 00
        E 0 80 4c 00
        E 0 80 54 00
        E 0 80 58 00
        E 0 80 60 00
        E 0 80 64 00
        E 130 90 18 60
        E 0 90 2b 60
        E 0 90 60 60
        E 0 90 63 60
        E 30 80 18 00
        E 0 80 2b 00
        E 0 80 60 00
        E 0 80 63 00
        E 50 90 1b 60
        E 0 90 55 60
        E 0 90 61 60
        E 30 80 1b 00
        E 0 80 55 00
        E 0 80 61 00
        E 50 90 18 60
        E 0 90 2b 60
        E 0 90 60 60
        E 0 90 63 60
        E 30 80 18 00
        E 0 80 2b 00
        E 0 80 60 00
        E 0 80 63 00
        E 130 90 18 60
        E 0 90 1a 60
        E 0 90 2a 60
        E 0 90 3d 60
        E 0 90 49 60
        E 0 90 4b 60
        E 0 90 54 60
        E 0 90 55 60
        E 0 90 57 60
        E 0 90 60 60
        E 0 90 61 60
        E 0 90 63 60
        E 30 80 18 00
        E 0 80 1a 00
        E 0 80 2a 00
        E 0 80 3d 00
        E 0 80 49 00
        E 0 80 4b 00
        E 0 80 54 00
        E 0 80 55 00
        E 0 80 57 00
        E 0 80 60 00
        E 0 80 61 00
        E 0 80 63 00
        E 130 90 18 60
        E 0 90 2b 60
        E 0 90 60 60
        E 0 90 63 60
        E 30 80 18 00
        E 0 80 2b 00
        E 0 80 60 00
        E 0 80 63 00
        E 130 90 18 60
        E 0 90 2a 60
        E 0 90 60 60
        E 0 90 63 60
        E 30 80 18 00
        E 0 80 2a 00
        E 0 80 60 00
        E 0 80 63 00
        E 130 90 18 60
        E 0 90 2b 60
        E 0 90 3f 60
        E 0 90 48 60
        E 0 90 4b 60
        E 0 90 54 60
        E 0 90 57 60
        E 0 90 60 60
        E 0 90 63 60
        E 30 80 18 00
        E 0 80 2b 00
        E 0 80 3f 00
        E 0 80 48 00
        E 0 80 4b 00
        E 0 80 54 00
        E 0 80 57 00
        E 0 80 60 00
        E 0 80 63 00
        E 130 90 18 60
        E 0 90 2a 60
        E 0 90 60 60
        E 0 90 63 60
        E 30 80 18 00
        E 0 80 2a 00
        E 0 80 60 00
        E 0 80 63 00
        E 130 90 18 60
        E 0 90 2b 60
        E 0 90 60 60
        E 0 90 63 60
        E 30 80 18 00
        E 0 80 2b 00
        E 0 80 60 00
        E 0 80 63 00
        E 130 90 18 60
        E 0 90 1a 60
        E 0 90 2a 60
        E 0 90 3d 60
        E 0 90 49 60
        E 0 90 4b 60
        E 0 90 54 60
        E 0 90 55 60
        E 0 90 57 60
        E 0 90 60 60
        E 0 90 61 60
        E 0 90 63 60
        E 30 80 18 00
        E 0 80 1a 00
        E 0 80 2a 00
        E 0 80 3d 00
        E 0 80 49 00
        E 0 80 4b 00
        E 0 80 54 00
        E 0 80 55 00
        E 0 80 57 00
        E 0 80 60 00
        E 0 80 61 00
        E 0 80 63 00
        E 130 90 18 60
        E 0 90 2b 60
        E 0 90 60 60
        E 0 90 63 60
        E 30 80 18 00
        E 0 80 2b 00
        E 0 80 60 00
        E 0 80 63 00
        E 50 90 1b 60
        E 0 90 55 60
        E 0 90 61 60
        E 30 80 1b 00
        E 0 80 55 00
        E 0 80 61 00
        E 50 90 18 60
        E 0 90 2b 60
        E 0 90 60 60
        E 0 90 63 60
        E 30 80 18 00
        E 0 80 2b 00
        E 0 80 60 00
        E 0 80 63 00
        E 130 90 18 60
        E 0 90 2a 60
        E 0 90 3f 60
        E 0 90 48 60
        E 0 90 4b 60
        E 0 90 54 60
        E 0 90 57 60
        E 0 90 60 60
        E 0 90 63 60
        E 30 80 18 00
        E 0 80 2a 00
        E 0 80 3f 00
        E 0 80 48 00
        E 0 80 4b 00
        E 0 80 54 00
        E 0 80 57 00
        E 0 80 60 00
        E 0 80 63 00
        E 130 90 18 60
        E 0 90 2e 60
        E 0 90 60 60
        E 0 90 62 60
        E 0 90 6e 60
        E 30 80 18 00
        E 0 80 2e 00
        E 0 80 60 00
        E 0 80 62 00
        E 0 80 6e 00
        E 23 90 2f 60
        E 0 90 62 60
        E 0 90 6e 60
        E 30 80 2f 00
        E 0 80 62 00
        E 0 80 6e 00
        E 24 90 2e 60
        E 0 90 62 60
        E 0 90 6e 60
        E 30 80 2e 00
        E 0 80 62 00
        E 0 80 6e 00
        E 23 90 18 60
        E 0 90 2f 60
        E 0 90 60 60
        E 0 90 62 60
        E 0 90 6e 60
        E 30 80 18 00
        E 0 80 2f 00
        E 0 80 60 00
        E 0 80 62 00
        E 0 80 6e 00
        E 50 90 2e 60
        E 0 90 62 60
        E 0 90 6e 60
        E 30 80 2e 00
        E 0 80 62 00
        E 0 80 6e 00
        E 50 90 18 60
        E 0 90 24 60
        E 0 90 40 60
        E 0 90 48 60
        E 0 90 4c 60
        E 0 90 54 60
        E 0 90 58 60
        E 0 90 60 60
        E 0 90 64 60
        E 30 80 18 00
        E 0 80 24 00
        E 0 80 40 00
        E 0 80 48 00
        E 0 80 4c 00
        E 0 80 54 00
        E 0 80 58 00
        E 0 80 60 00
        E 0 80 64 00
        E 50 90 2e 60
        E 0 90 62 60
        E 0 90 6e 60
        E 30 80 2e 00
        E 0 80 62 00
        E 0 80 6e 00
        E 50 90 18 60
        E 0 90 2f 60
        E 0 90 60 60
        E 0 90 62 60
        E 0 90 6e 60
        E 30 80 18 00
        E 0 80 2f 00
        E 0 80 60 00
        E 0 80 62 00
        E 0 80 6e 00
        E 23 90 2e 60
        E 0 90 62 60
        E 0 90 6e 60
        E 30 80 2e 00
        E 0 80 62 00
        E 0 80 6e 00
        E 23 90 2f 60
        E 0 90 62 60
        E 0 90 6e 60
        E 30 80 2f 00
        E 0 80 62 00
        E 0 80 6e 00
        E 24 90 18 60
        E 0 90 2e 60
        E 0 90 60 60
        E 0 90 62 60
        E 0 90 6e 60
        E 30 80 18 00
        E 0 80 2e 00
        E 0 80 60 00
        E 0 80 62 00
        E 0 80 6e 00
        E 50 90 2f 60
        E 0 90 62 60
        E 0 90 6e 60
        E 30 80 2f 00
        E 0 80 62 00
        E 0 80 6e 00
        E 50 90 18 60
        E 0 90 22 60
        E 0 90 40 60
        E 0 90 48 60
        E 0 90 4c 60
        E 0 90 54 60
        E 0 90 58 60
        E 0 90 60 60
        E 0 90 64 60
        E 30 80 18 00
        E 0 80 22 00
        E 0 80 40 00
        E 0 80 48 00
        E 0 80 4c 00
        E 0 80 54 00
        E 0 80 58 00
        E 0 80 60 00
        E 0 80 64 00
        E 50 90 31 60
        E 0 90 63 60
        E 0 90 6f 60
        E 30 80 31 00
        E 0 80 63 00
        E 0 80 6f 00
        E 50 90 18 60
        E 0 90 30 60
        E 0 90 60 60
        E 0 90 63 60
        E 0 90 6f 60
        E 30 80 18 00
        E 0 80 30 00
        E 0 80 60 00
        E 0 80 63 00
        E 0 80 6f 00
        E 23 90 31 60
        E 0 90 63 60
        E 0 90 6f 60
        E 30 80 31 00
        E 0 80 63 00
        E 0 80 6f 00
        E 24 90 30 60
        E 0 90 63 60
        E 0 90 6f 60
        E 30 80 30 00
        E 0 80 63 00
        E 0 80 6f 00
        E 23 90 18 60
        E 0 90 31 60
        E 0 90 60 60
        E 0 90 63 60
        E 0 90 6f 60
        E 30 80 18 00
        E 0 80 31 00
        E 0 80 60 00
        E 0 80 63 00
        E 0 80 6f 00
        E 50 90 30 60
        E 0 90 63 60
        E 0 90 6f 60
        E 30 80 30 00
        E 0 80 63 00
        E 0 80 6f 00
        E 50 90 18 60
        E 0 90 31 60
        E 0 90 3f 60
        E 0 90 4b 60
        E 0 90 54 60
        E 0 90 57 60
        E 0 90 60 60
        E 0 90 63 60
        E 0 90 6f 60
        E 30 80 18 00
        E 0 80 31 00
        E 0 80 3f 00
        E 0 80 4b 00
        E 0 80 54 00
        E 0 80 57 00
        E 0 80 60 00
        E 0 80 63 00
        E 0 80 6f 00
        E 50 90 30 60
        E 0 90 63 60
        E 0 90 6f 60
        E 30 80 30 00
        E 0 80 63 00
        E 0 80 6f 00
        E 50 90 18 60
        E 0 90 33 60
        E 0 90 60 60
        E 0 90 64 60
        E 0 90 70 60
        E 30 80 18 00
        E 0 80 33 00
        E 0 80 60 00
        E 0 80 64 00
        E 0 80 70 00
        E 50 90 32 60
        E 0 90 58 60
        E 0 90 64 60
        E 0 90 70 60
        E 30 80 32 00
        E 0 80 58 00
        E 0 80 64 00
        E 0 80 70 00
        E 50 90 18 60
        E 0 90 33 60
        E 0 90 60 60
        E 0 90 64 60
        E 0 90 70 60
        E 30 80 18 00
        E 0 80 33 00
        E 0 80 60 00
        E 0 80 64 00
        E 0 80 70 00
        E 50 90 32 60
        E 0 90 64 60
        E 0 90 70 60
        E 30 80 32 00
        E 0 80 64 00
        E 0 80 70 00
        E 50 90 18 60
        E 0 90 24 60
        E 0 90 40 60
        E 0 90 48 60
        E 0 90 4c 60
        E 0 90 54 60
        E 0 90 58 60
        E 0 90 60 60
        E 0 90 64 60
        E 30 80 18 00
        E 0 80 24 00
        E 0 80 40 00
        E 0 80 48 00
        E 0 80 4c 00
        E 0 80 54 00
        E 0 80 58 00
        E 0 80 60 00
        E 0 80 64 00
        E 130 90 18 60
        E 0 90 2b 60
        E 0 90 60 60
        E 0 90 63 60
        E 30 80 18 00
        E 0 80 2b 00
        E 0 80 60 00
        E 0 80 63 00
        E 130 90 18 60
        E 0 90 2a 60
        E 0 90 60 60
        E 0 90 63 60
        E 30 80 18 00
        E 0 80 2a 00
        E 0 80 60 00
        E 0 80 63 00
        E 130 90 18 60
        E 0 90 1a 60
        E 0 90 2a 60
        E 0 90 3d 60
        E 0 90 49 60
        E 0 90 4b 60
        E 0 90 54 60
        E 0 90 55 60
        E 0 90 57 60
        E 0 90 60 60
        E 0 90 61 60
        E 0 90 63 60
        E 30 80 18 00
        E 0 80 1a 00
        E 0 80 2a 00
        E 0 80 3d 00
        E 0 80 49 00
        E 0 80 4b 00
        E 0 80 54 00
        E 0 80 55 00
        E 0 80 57 00
        E 0 80 60 00
        E 0 80 61 00
        E 0 80 63 00
        E 130 90 18 60
        E 0 90 2b 60
        E 0 90 60 60
        E 0 90 63 60
        E 30 80 18 00
        E 0 80 2b 00
        E 0 80 60 00
        E 0 80 63 00
        E 130 90 18 60
        E 0 90 2a 60
        E 0 90 60 60
        E 0 90 63 60
        E 30 80 18 00
        E 0 80 2a 00
        E 0 80 60 00
        E 0 80 63 00
        E 130 90 18 60
        E 0 90 2b 60
        E 0 90 3f 60
        E 0 90 48 60
        E 0 90 4b 60
        E 0 90 54 60
        E 0 90 57 60
        E 0 90 60 60
        E 0 90 63 60
        E 30 80 18 00
        E 0 80 2b 00
        E 0 80 3f 00
        E 0 80 48 00
        E 0 80 4b 00
        E 0 80 54 00
        E 0 80 57 00
        E 0 80 60 00
        E 0 80 63 00
        E 130 90 18 60
        E 0 90 2a 60
        E 0 90 60 60
        E 0 90 63 60
        E 30 80 18 00
        E 0 80 2a 00
        E 0 80 60 00
        E 0 80 63 00
        E 130 90 18 60
        E 0 90 2b 60
        E 0 90 60 60
        E 0 90 63 60
        E 30 80 18 00
        E 0 80 2b 00
        E 0 80 60 00
        E 0 80 63 00
        E 130 90 18 60
        E 0 90 1a 60
        E 0 90 2a 60
        E 0 90 3d 60
        E 0 90 49 60
        E 0 90 4b 60
        E 0 90 54 60
        E 0 90 55 60
        E 0 90 57 60
        E 0 90 60 60
        E 0 90 61 60
        E 0 90 63 60
        E 30 80 18 00
        E 0 80 1a 00
        E 0 80 2a 00
        E 0 80 3d 00
        E 0 80 49 00
        E 0 80 4b 00
        E 0 80 54 00
        E 0 80 55 00
        E 0 80 57 00
        E 0 80 60 00
        E 0 80 61 00
        E 0 80 63 00
        E 130 90 18 60
        E 0 90 2b 60
        E 0 90 60 60
        E 0 90 63 60
        E 30 80 18 00
        E 0 80 2b 00
        E 0 80 60 00
        E 0 80 63 00
        E 130 90 18 60
        E 0 90 2a 60
        E 0 90 60 60
        E 0 90 63 60
        E 30 80 18 00
        E 0 80 2a 00
        E 0 80 60 00
        E 0 80 63 00
        E 130 90 18 60
        E 0 90 2b 60
        E 0 90 3f 60
        E 0 90 48 60
        E 0 90 4b 60
        E 0 90 54 60
        E 0 90 57 60
        E 0 90 60 60
        E 0 90 63 60
        E 30 80 18 00
        E 0 80 2b 00
        E 0 80 3f 00
        E 0 80 48 00
        E 0 80 4b 00
        E 0 80 54 00
        E 0 80 57 00
        E 0 80 60 00
        E 0 80 63 00
        E 50 90 1b 60
        E 0 90 61 60
        E 30 80 1b 00
        E 0 80 61 00
        E 50 90 18 60
        E 0 90 1a 60
        E 0 90 60 60
        E 0 90 61 60
        E 30 80 18 00
        E 0 80 1a 00
        E 0 80 60 00
        E 0 80 61 00
        E 23 90 1b 60
        E 0 90 61 60
        E 30 80 1b 00
        E 0 80 61 00
        E 24 90 1a 60
        E 0 90 61 60
        E 30 80 1a 00
        E 0 80 61 00
        E 23 90 18 60
        E 0 90 1b 60
        E 0 90 60 60
        E 0 90 61 60
        E 30 80 18 00
        E 0 80 1b 00
        E 0 80 60 00
        E 0 80 61 00
        E 50 90 1a 60
        E 0 90 61 60
        E 30 80 1a 00
        E 0 80 61 00
        E 50 90 18 60
        E 0 90 24 60
        E 0 90 40 60
        E 0 90 48 60
        E 0 90 4c 60
        E 0 90 54 60
        E 0 90 58 60
        E 0 90 60 60
        E 0 90 64 60
        E 30 80 18 00
        E 0 80 24 00
        E 0 80 40 00
        E 0 80 48 00
        E 0 80 4c 00
        E 0 80 54 00
        E 0 80 58 00
        E 0 80 60 00
        E 0 80 64 00
        E 50 90 1a 60
        E 0 90 61 60
        E 30 80 1a 00
        E 0 80 61 00
        E 50 90 18 60
        E 0 90 1b 60
        E 0 90 60 60
        E 0 90 61 60
        E 30 80 18 00
        E 0 80 1b 00
        E 0 80 60 00
        E 0 80 61 00
        E 50 90 1a 60
        E 0 90 55 60
        E 0 90 61 60
        E 30 80 1a 00
        E 0 80 55 00
        E 0 80 61 00
        E 50 90 18 60
        E 0 90 1b 60
        E 0 90 60 60
        E 0 90 61 60
        E 30 80 18 00
        E 0 80 1b 00
        E 0 80 60 00
        E 0 80 61 00
        E 50 90 1a 60
        E 0 90 61 60
        E 30 80 1a 00
        E 0 80 61 00
        E 50 90 18 60
        E 0 90 1b 60
        E 0 90 3d 60
        E 0 90 49 60
        E 0 90 54 60
        E 0 90 55 60
        E 0 90 60 60
        E 0 90 61 60
        E 30 80 18 00
        E 0 80 1b 00
        E 0 80 3d 00
        E 0 80 49 00
        E 0 80 54 00
        E 0 80 55 00
        E 0 80 60 00
        E 0 80 61 00
        E 50 90 1a 60
        E 0 90 61 60
        E 30 80 1a 00
        E 0 80 61 00
        E 50 90 18 60
        E 0 90 1b 60
        E 0 90 60 60
        E 0 90 61 60
        E 30 80 18 00
        E 0 80 1b 00
        E 0 80 60 00
        E 0 80 61 00
        E 50 90 1a 60
        E 0 90 55 60
        E 0 90 61 60
        E 30 80 1a 00
        E 0 80 55 00
        E 0 80 61 00
        E 50 90 18 60
        E 0 90 1b 60
        E 0 90 60 60
        E 0 90 61 60
        E 30 80 18 00
        E 0 80 1b 00
        E 0 80 60 00
        E 0 80 61 00
        E 50 90 1a 60
        E 0 90 61 60
        E 30 80 1a 00
        E 0 80 61 00
        E 50 90 18 60
        E 0 90 1b 60
        E 0 90 3d 60
        E 0 90 49 60
        E 0 90 54 60
        E 0 90 55 60
        E 0 90 60 60
        E 0 90 61 60
        E 30 80 18 00
        E 0 80 1b 00
        E 0 80 3d 00
        E 0 80 49 00
        E 0 80 54 00
        E 0 80 55 00
        E 0 80 60 00
        E 0 80 61 00
        E 50 90 1a 60
        E 0 90 61 60
        E 30 80 1a 00
        E 0 80 61 00
        E 50 90 18 60
        E 0 90 1b 60
        E 0 90 60 60
        E 0 90 61 60
        E 30 80 18 00
        E 0 80 1b 00
        E 0 80 60 00
        E 0 80 61 00
        E 24 90 1a 60
        E 0 90 61 60
        E 30 80 1a 00
        E 0 80 61 00
        E 23 90 1b 60
        E 0 90 61 60
        E 30 80 1b 00
        E 0 80 61 00
        E 23 90 18 60
        E 0 90 1a 60
        E 0 90 60 60
        E 0 90 61 60
        E 30 80 18 00
        E 0 80 1a 00
        E 0 80 60 00
        E 0 80 61 00
        E 23 90 1b 60
        E 0 90 61 60
        E 30 80 1b 00
        E 0 80 61 00
        E 24 90 1a 60
        E 0 90 61 60
        E 30 80 1a 00
        E 0 80 61 00
        E 23 90 18 60
        E 0 90 24 60
        E 0 90 40 60
        E 0 90 48 60
        E 0 90 4c 60
        E 0 90 54 60
        E 0 90 58 60
        E 0 90 60 60
        E 0 90 64 60
        E 30 80 18 00
        E 0 80 24 00
        E 0 80 40 00
        E 0 80 48 00
        E 0 80 4c 00
        E 0 80 54 00
        E 0 80 58 00
        E 0 80 60 00
        E 0 80 64 00
        E 130 90 1e 60
        E 0 90 62 60
        E 30 80 1e 00
        E 0 80 62 00
        E 50 90 1b 60
        E 0 90 55 60
        E 0 90 61 60
        E 30 80 1b 00
        E 0 80 55 00
        E 0 80 61 00
        E 50 90 1e 60
        E 0 90 62 60
        E 30 80 1e 00
        E 0 80 62 00
        E 50 90 18 60
        E 0 90 60 60
        E 30 80 18 00
        E 0 80 60 00
        E 50 90 1a 60
        E 0 90 1f 60
        E 0 90 3d 60
        E 0 90 49 60
        E 0 90 4a 60
        E 0 90 55 60
        E 0 90 56 60
        E 0 90 61 60
        E 0 90 62 60
        E 30 80 1a 00
        E 0 80 1f 00
        E 0 80 3d 00
        E 0 80 49 00
        E 0 80 4a 00
        E 0 80 55 00
        E 0 80 56 00
        E 0 80 61 00
        E 0 80 62 00
        E 130 90 1e 60
        E 0 90 62 60
        E 30 80 1e 00
        E 0 80 62 00
        E 50 90 1b 60
        E 0 90 55 60
        E 0 90 61 60
        E 30 80 1b 00
        E 0 80 55 00
        E 0 80 61 00
        E 50 90 18 60
        E 0 90 1e 60
        E 0 90 60 60
        E 0 90 62 60
        E 30 80 18 00
        E 0 80 1e 00
        E 0 80 60 00
        E 0 80 62 00
        E 50 90 1b 60
        E 0 90 61 60
        E 30 80 1b 00
        E 0 80 61 00
        E 50 90 1e 60
        E 0 90 3e 60
        E 0 90 4a 60
        E 0 90 56 60
        E 0 90 62 60
        E 30 80 1e 00
        E 0 80 3e 00
        E 0 80 4a 00
        E 0 80 56 00
        E 0 80 62 00
        E 50 90 18 60
        E 0 90 60 60
        E 30 80 18 00
        E 0 80 60 00
        E 50 90 1a 60
        E 0 90 1f 60
        E 0 90 61 60
        E 0 90 62 60
        E 30 80 1a 00
        E 0 80 1f 00
        E 0 80 61 00
        E 0 80 62 00
        E 130 90 1e 60
        E 0 90 62 60
        E 30 80 1e 00
        E 0 80 62 00
        E 50 90 1b 60
        E 0 90 61 60
        E 30 80 1b 00
        E 0 80 61 00
        E 50 90 18 60
        E 0 90 1e 60
        E 0 90 3e 60
        E 0 90 48 60
        E 0 90 4a 60
        E 0 90 54 60
        E 0 90 56 60
        E 0 90 60 60
        E 0 90 62 60
        E 30 80 18 00
        E 0 80 1e 00
        E 0 80 3e 00
        E 0 80 48 00
        E 0 80 4a 00
        E 0 80 54 00
        E 0 80 56 00
        E 0 80 60 00
        E 0 80 62 00
        E 50 90 1b 60
        E 0 90 61 60
        E 30 80 1b 00
        E 0 80 61 00
        E 50 90 1e 60
        E 0 90 62 60
        E 30 80 1e 00
        E 0 80 62 00
        E 50 90 18 60
        E 0 90 54 60
        E 0 90 60 60
        E 30 80 18 00
        E 0 80 54 00
        E 0 80 60 00
        E 50 90 1a 60
        E 0 90 1f 60
        E 0 90 61 60
        E 0 90 62 60
        E 30 80 1a 00
        E 0 80 1f 00
        E 0 80 61 00
        E 0 80 62 00
        E 130 90 18 60
        E 0 90 24 60
        E 0 90 40 60
        E 0 90 48 60
        E 0 90 4c 60
        E 0 90 54 60
        E 0 90 58 60
        E 0 90 60 60
        E 0 90 64 60
        E 0 90 74 60
        E 30 80 18 00
        E 0 80 24 00
        E 0 80 40 00
        E 0 80 48 00
        E 0 80 4c 00
        E 0 80 54 00
        E 0 80 58 00
        E 0 80 60 00
        E 0 80 64 00
        E 130 90 1e 60
        E 0 90 62 60
        E 30 80 1e 00
        E 0 80 62 00
        E 50 90 1b 60
        E 0 90 55 60
        E 0 90 61 60
        E 30 80 1b 00
        E 0 80 55 00
        E 0 80 61 00
        E 50 90 18 60
        E 0 90 1e 60
        E 0 90 60 60
        E 0 90 62 60
        E 30 80 18 00
        E 0 80 1e 00
        E 0 80 60 00
        E 0 80 62 00
        E 50 90 18 60
        E 0 90 60 60
        E 30 80 18 00
        E 0 80 60 00
        E 50 90 1a 60
        E 0 90 1f 60
        E 0 90 3d 60
        E 0 90 49 60
        E 0 90 4a 60
        E 0 90 55 60
        E 0 90 56 60
        E 0 90 61 60
        E 0 90 62 60
        E 30 80 1a 00
        E 0 80 1f 00
        E 0 80 3d 00
        E 0 80 49 00
        E 0 80 4a 00
        E 0 80 55 00
        E 0 80 56 00
        E 0 80 61 00
        E 0 80 62 00
        E 130 90 1e 60
        E 0 90 62 60
        E 30 80 1e 00
        E 0 80 62 00
        E 50 90 1b 60
        E 0 90 55 60
        E 0 90 61 60
        E 30 80 1b 00
        E 0 80 55 00
        E 0 80 61 00
        E 50 90 18 60
        E 0 90 1e 60
        E 0 90 60 60
        E 0 90 62 60
        E 30 80 18 00
        E 0 80 1e 00
        E 0 80 60 00
        E 0 80 62 00
        E 50 90 1b 60
        E 0 90 61 60
        E 30 80 1b 00
        E 0 80 61 00
        E 50 90 1e 60
        E 0 90 3e 60
        E 0 90 4a 60
        E 0 90 56 60
        E 0 90 62 60
        E 30 80 1e 00
        E 0 80 3e 00
        E 0 80 4a 00
        E 0 80 56 00
        E 0 80 62 00
        E 50 90 18 60
        E 0 90 60 60
        E 30 80 18 00
        E 0 80 60 00
        E 50 90 1a 60
        E 0 90 1f 60
        E 0 90 61 60
        E 0 90 62 60
        E 30 80 1a 00
        E 0 80 1f 00
        E 0 80 61 00
        E 0 80 62 00
        E 130 90 1e 60
        E 0 90 62 60
        E 30 80 1e 00
        E 0 80 62 00
        E 50 90 1b 60
        E 0 90 61 60
        E 30 80 1b 00
        E 0 80 61 00
        E 50 90 18 60
        E 0 90 1e 60
        E 0 90 3e 60
        E 0 90 48 60
        E 0 90 4a 60
        E 0 90 54 60
        E 0 90 56 60
        E 0 90 60 60
        E 0 90 62 60
        E 30 80 18 00
        E 0 80 1e 00
        E 0 80 3e 00
        E 0 80 48 00
        E 0 80 4a 00
        E 0 80 54 00
        E 0 80 56 00
        E 0 80 60 00
        E 0 80 62 00
        E 50 90 1b 60
        E 0 90 61 60
        E 30 80 1b 00
        E 0 80 61 00
        E 50 90 1e 60
        E 0 90 62 60
        E 30 80 1e 00
        E 0 80 62 00
        E 50 90 18 60
        E 0 90 54 60
        E 0 90 60 60
        E 30 80 18 00
        E 0 80 54 00
        E 0 80 60 00
        E 50 90 1a 60
        E 0 90 1f 60
        E 0 90 61 60
        E 0 90 62 60
        E 30 80 1a 00
        E 0 80 1f 00
        E 0 80 61 00
        E 0 80 62 00
        E 130 80 74 00
        E 0 90 18 60
        E 0 90 24 60
        E 0 90 40 60
        E 0 90 48 60
        E 0 90 4c 60
        E 0 90 54 60
        E 0 90 58 60
        E 0 90 60 60
        E 0 90 64 60
        E 30 80 18 00
        E 0 80 24 00
        E 0 80 40 00
        E 0 80 48 00
        E 0 80 4c 00
        E 0 80 54 00
        E 0 80 58 00
        E 0 80 60 00
        E 0 80 64 00
        E 130 90 1e 60
        E 0 90 62 60
        E 30 80 1e 00
        E 0 80 62 00
        E 50 90 1b 60
        E 0 90 55 60
        E 0 90 61 60
        E 30 80 1b 00
        E 0 80 55 00
        E 0 80 61 00
        E 50 90 18 60
        E 0 90 1e 60
        E 0 90 60 60
        E 0 90 62 60
        E 30 80 18 00
        E 0 80 1e 00
        E 0 80 60 00
        E 0 80 62 00
        E 50 90 18 60
        E 0 90 60 60
        E 30 80 18 00
        E 0 80 60 00
        E 50 90 1a 60
        E 0 90 1f 60
        E 0 90 3d 60
        E 0 90 49 60
        E 0 90 4a 60
        E 0 90 55 60
        E 0 90 56 60
        E 0 90 61 60
        E 0 90 62 60
        E 30 80 1a 00
        E 0 80 1f 00
        E 0 80 3d 00
        E 0 80 49 00
        E 0 80 4a 00
        E 0 80 55 00
        E 0 80 56 00
        E 0 80 61 00
        E 0 80 62 00
        E 130 90 1e 60
        E 0 90 62 60
        E 30 80 1e 00
        E 0 80 62 00
        E 50 90 1b 60
        E 0 90 55 60
        E 0 90 61 60
        E 30 80 1b 00
        E 0 80 55 00
        E 0 80 61 00
        E 50 90 18 60
        E 0 90 1e 60
        E 0 90 60 60
        E 0 90 62 60
        E 30 80 18 00
        E 0 80 1e 00
        E 0 80 60 00
        E 0 80 62 00
        E 50 90 1b 60
        E 0 90 61 60
        E 30 80 1b 00
        E 0 80 61 00
        E 50 90 1e 60
        E 0 90 3e 60
        E 0 90 4a 60
        E 0 90 56 60
        E 0 90 62 60
        E 30 80 1e 00
        E 0 80 3e 00
        E 0 80 4a 00
        E 0 80 56 00
        E 0 80 62 00
        E 50 90 18 60
        E 0 90 60 60
        E 30 80 18 00
        E 0 80 60 00
        E 50 90 1a 60
        E 0 90 1f 60
        E 0 90 61 60
        E 0 90 62 60
        E 30 80 1a 00
        E 0 80 1f 00
        E 0 80 61 00
        E 0 80 62 00
        E 130 90 1e 60
        E 0 90 62 60
        E 30 80 1e 00
        E 0 80 62 00
        E 50 90 1b 60
        E 0 90 61 60
        E 30 80 1b 00
        E 0 80 61 00
        E 50 90 18 60
        E 0 90 1e 60
        E 0 90 3e 60
        E 0 90 48 60
        E 0 90 4a 60
        E 0 90 54 60
        E 0 90 56 60
        E 0 90 60 60
        E 0 90 62 60
        E 30 80 18 00
        E 0 80 1e 00
        E 0 80 3e 00
        E 0 80 48 00
        E 0 80 4a 00
        E 0 80 54 00
        E 0 80 56 00
        E 0 80 60 00
        E 0 80 62 00
        E 50 90 1b 60
        E 0 90 61 60
        E 30 80 1b 00
        E 0 80 61 00
        E 50 90 1e 60
        E 0 90 62 60
        E 30 80 1e 00
        E 0 80 62 00
        E 130 90 18 60
        E 0 90 1f 60
        E 0 90 60 60
        E 0 90 62 60
        E 30 80 18 00
        E 0 80 1f 00
        E 0 80 60 00
        E 0 80 62 00
        E 50 90 1a 60
        E 0 90 61 60
        E 30 80 1a 00
        E 0 80 61 00
        E 50 90 18 60
        E 0 90 1f 60
        E 0 90 3e 60
        E 0 90 48 60
        E 0 90 4a 60
        E 0 90 54 60
        E 0 90 56 60
        E 0 90 60 60
        E 0 90 62 60
        E 0 90 78 60
        E 0 90 79 60
        E 0 90 7a 60
        E 0 90 7b 60
        E 0 90 7c 60
        E 30 80 18 00
        E 0 80 1f 00
        E 0 80 3e 00
        E 0 80 48 00
        E 0 80 4a 00
        E 0 80 54 00
        E 0 80 56 00
        E 0 80 60 00
        E 0 80 62 00
        E 50 90 1a 60
        E 0 90 61 60
        E 30 80 1a 00
        E 0 80 61 00
        E 50 90 1b 60
        E 0 90 61 60
        E 30 80 1b 00
        E 0 80 61 00
        E 50 90 1a 60
        E 0 90 55 60
        E 0 90 61 60
        E 30 80 1a 00
        E 0 80 55 00
        E 0 80 61 00
        E 130 90 1b 60
        E 0 90 61 60
        E 30 80 1b 00
        E 0 80 61 00
        E 50 90 2e 60
        E 0 90 3e 60
        E 0 90 4a 60
        E 0 90 56 60
        E 0 90 62 60
        E 0 90 6e 60
        E 30 80 2e 00
        E 0 80 3e 00
        E 0 80 4a 00
        E 0 80 56 00
        E 0 80 62 00
        E 0 80 6e 00
        E 50 90 1b 60
        E 0 90 61 60
        E 30 80 1b 00
        E 0 80 61 00
        E 50 90 1a 60
        E 0 90 61 60
        E 30 80 1a 00
        E 0 80 61 00
        E 50 90 1b 60
        E 0 90 55 60
        E 0 90 61 60
        E 30 80 1b 00
        E 0 80 55 00
        E 0 80 61 00
        E 50 90 30 60
        E 0 90 63 60
        E 0 90 6f 60
        E 30 80 30 00
        E 0 80 63 00
        E 0 80 6f 00
        E 50 90 1b 60
        E 0 90 61 60
        E 30 80 1b 00
        E 0 80 61 00
        E 50 90 1a 60
        E 0 90 3d 60
        E 0 90 49 60
        E 0 90 55 60
        E 0 90 61 60
        E 30 80 1a 00
        E 0 80 3d 00
        E 0 80 49 00
        E 0 80 55 00
        E 0 80 61 00
        E 50 90 1b 60
        E 0 90 61 60
        E 30 80 1b 00
        E 0 80 61 00
        E 50 90 30 60
        E 0 90 63 60
        E 0 90 6f 60
        E 30 80 30 00
        E 0 80 63 00
        E 0 80 6f 00
        E 50 90 1b 60
        E 0 90 55 60
        E 0 90 61 60
        E 30 80 1b 00
        E 0 80 55 00
        E 0 80 61 00
        E 50 90 1a 60
        E 0 90 61 60
        E 30 80 1a 00
        E 0 80 61 00
        E 50 90 1b 60
        E 0 90 61 60
        E 30 80 1b 00
        E 0 80 61 00
        E 50 90 1a 60
        E 0 90 3d 60
        E 0 90 49 60
        E 0 90 55 60
        E 0 90 61 60
        E 30 80 1a 00
        E 0 80 3d 00
        E 0 80 49 00
        E 0 80 55 00
        E 0 80 61 00
        E 50 90 1b 60
        E 0 90 61 60
        E 30 80 1b 00
        E 0 80 61 00
        E 50 90 2e 60
        E 0 90 62 60
        E 0 90 6e 60
        E 80 80 2e 00
        E 0 80 62 00
        E 0 80 6e 00
        E 0 90 2f 60
        E 0 90 56 60
        E 0 90 62 60
        E 0 90 6e 60
        E 80 80 2f 00
        E 0 80 56 00
        E 0 80 62 00
        E 0 80 6e 00
        E 0 90 30 60
        E 0 90 63 60
        E 0 90 6f 60
        E 80 80 30 00
        E 0 80 63 00
        E 0 80 6f 00
        E 0 90 31 60
        E 0 90 63 60
        E 0 90 6f 60
        E 80 80 31 00
        E 0 80 63 00
        E 0 80 6f 00
        E 0 90 18 60
        E 0 90 22 60
        E 0 90 40 60
        E 0 90 48 60
        E 0 90 4c 60
        E 0 90 54 60
        E 0 90 58 60
        E 0 90 60 60
        E 0 90 64 60
        E 1 80 78 00
        E 0 80 79 00
        E 0 80 7a 00
        E 0 80 7b 00
        E 0 80 7c 00
        E 79 80 18 00
        E 0 80 22 00
        E 0 80 40 00
        E 0 80 48 00
        E 0 80 4c 00
        E 0 80 54 00
        E 0 80 58 00
        E 0 80 60 00
        E 0 80 64 00
        E 80 90 1f 60
        E 0 90 62 60
        E 80 80 1f 00
        E 0 80 62 00
        E 0 90 1a 60
        E 0 90 55 60
        E 0 90 61 60
        E 80 80 1a 00
        E 0 80 55 00
        E 0 80 61 00
        E 0 90 1f 60
        E 0 90 62 60
        E 80 80 1f 00
        E 0 80 62 00
        E 0 90 18 60
        E 0 90 60 60
        E 80 80 18 00
        E 0 80 60 00
        E 0 90 1a 60
        E 0 90 1f 60
        E 0 90 3d 60
        E 0 90 49 60
        E 0 90 4a 60
        E 0 90 55 60
        E 0 90 56 60
        E 0 90 61 60
        E 0 90 62 60
        E 80 80 1a 00
        E 0 80 1f 00
        E 0 80 3d 00
        E 0 80 49 00
        E 0 80 4a 00
        E 0 80 55 00
        E 0 80 56 00
        E 0 80 61 00
        E 0 80 62 00
        E 80 90 1e 60
        E 0 90 62 60
        E 80 80 1e 00
        E 0 80 62 00
        E 0 90 1b 60
        E 0 90 55 60
        E 0 90 61 60
        E 80 80 1b 00
        E 0 80 55 00
        E 0 80 61 00
        E 0 90 18 60
        E 0 90 1e 60
        E 0 90 60 60
        E 0 90 62 60
        E 80 80 18 00
        E 0 80 1e 00
        E 0 80 60 00
        E 0 80 62 00
        E 0 90 1b 60
        E 0 90 61 60
        E 80 80 1b 00
        E 0 80 61 00
        E 0 90 1e 60
        E 0 90 3e 60
        E 0 90 4a 60
        E 0 90 56 60
        E 0 90 62 60
        E 80 80 1e 00
        E 0 80 3e 00
        E 0 80 4a 00
        E 0 80 56 00
        E 0 80 62 00
        E 0 90 18 60
        E 0 90 60 60
        E 80 80 18 00
        E 0 80 60 00
        E 0 90 1a 60
        E 0 90 1f 60
        E 0 90 61 60
        E 0 90 62 60
        E 80 80 1a 00
        E 0 80 1f 00
        E 0 80 61 00
        E 0 80 62 00
        E 80 90 1e 60
        E 0 90 62 60
        E 80 80 1e 00
        E 0 80 62 00
        E 0 90 1b 60
        E 0 90 61 60
        E 80 80 1b 00
        E 0 80 61 00
        E 0 90 18 60
        E 0 90 1e 60
        E 0 90 3e 60
        E 0 90 48 60
        E 0 90 4a 60
        E 0 90 54 60
        E 0 90 56 60
        E 0 90 60 60
        E 0 90 62 60
        E 80 80 18 00
        E 0 80 1e 00
        E 0 80 3e 00
        E 0 80 48 00
        E 0 80 4a 00
        E 0 80 54 00
        E 0 80 56 00
        E 0 80 60 00
        E 0 80 62 00
        E 0 90 1b 60
        E 0 90 61 60
        E 80 80 1b 00
        E 0 80 61 00
        E 0 90 1e 60
        E 0 90 62 60
        E 80 80 1e 00
        E 0 80 62 00
        E 0 90 18 60
        E 0 90 54 60
        E 0 90 60 60
        E 80 80 18 00
        E 0 80 54 00
        E 0 80 60 00
        E 0 90 1a 60
        E 0 90 1f 60
        E 0 90 61 60
        E 0 90 62 60
        E 80 80 1a 00
        E 0 80 1f 00
        E 0 80 61 00
        E 0 80 62 00
        E 80 90 18 60
        E 0 90 24 60
        E 0 90 40 60
        E 0 90 48 60
        E 0 90 4c 60
        E 0 90 54 60
        E 0 90 58 60
        E 0 90 60 60
        E 0 90 64 60
        E 80 80 18 00
        E 0 80 24 00
        E 0 80 40 00
        E 0 80 48 00
        E 0 80 4c 00
        E 0 80 54 00
        E 0 80 58 00
        E 0 80 60 00
        E 0 80 64 00
        E 80 90 1e 60
        E 0 90 62 60
        E 80 80 1e 00
        E 0 80 62 00
        E 0 90 1b 60
        E 0 90 55 60
        E 0 90 61 60
        E 80 80 1b 00
        E 0 80 55 00
        E 0 80 61 00
        E 0 90 18 60
        E 0 90 1e 60
        E 0 90 60 60
        E 0 90 62 60
        E 80 80 18 00
        E 0 80 1e 00
        E 0 80 60 00
        E 0 80 62 00
        E 0 90 18 60
        E 0 90 60 60
        E 80 80 18 00
        E 0 80 60 00
        E 0 90 1a 60
        E 0 90 1f 60
        E 0 90 3d 60
        E 0 90 49 60
        E 0 90 4a 60
        E 0 90 55 60
        E 0 90 56 60
        E 0 90 61 60
        E 0 90 62 60
        E 80 80 1a 00
        E 0 80 1f 00
        E 0 80 3d 00
        E 0 80 49 00
        E 0 80 4a 00
        E 0 80 55 00
        E 0 80 56 00
        E 0 80 61 00
        E 0 80 62 00
        E 80 90 1e 60
        E 0 90 62 60
        E 80 80 1e 00
        E 0 80 62 00
        E 0 90 1b 60
        E 0 90 55 60
        E 0 90 61 60
        E 80 80 1b 00
        E 0 80 55 00
        E 0 80 61 00
        E 0 90 18 60
        E 0 90 1e 60
        E 0 90 60 60
        E 0 90 62 60
        E 80 80 18 00
        E 0 80 1e 00
        E 0 80 60 00
        E 0 80 62 00
        E 0 90 1b 60
        E 0 90 61 60
        E 79 90 78 60
        E 0 90 79 60
        E 0 90 7a 60
        E 0 90 7b 60
        E 0 90 7c 60
        E 1 80 1b 00
        E 0 80 61 00
        E 0 90 1e 60
        E 0 90 3e 60
        E 0 90 4a 60
        E 0 90 56 60
        E 0 90 62 60
        E 80 80 1e 00
        E 0 80 3e 00
        E 0 80 4a 00
        E 0 80 56 00
        E 0 80 62 00
        E 0 90 18 60
        E 0 90 60 60
        E 80 80 18 00
        E 0 80 60 00
        E 0 90 1a 60
        E 0 90 1f 60
        E 0 90 61 60
        E 0 90 62 60
        E 80 80 1a 00
        E 0 80 1f 00
        E 0 80 61 00
        E 0 80 62 00
        E 80 90 1e 60
        E 0 90 62 60
        E 80 80 1e 00
        E 0 80 62 00
        E 0 90 1b 60
        E 0 90 61 60
        E 80 80 1b 00
        E 0 80 61 00
        E 0 90 18 60
        E 0 90 1e 60
        E 0 90 3e 60
        E 0 90 48 60
        E 0 90 4a 60
        E 0 90 54 60
        E 0 90 56 60
        E 0 90 60 60
        E 0 90 62 60
        E 80 80 18 00
        E 0 80 1e 00
        E 0 80 3e 00
        E 0 80 48 00
        E 0 80 4a 00
        E 0 80 54 00
        E 0 80 56 00
        E 0 80 60 00
        E 0 80 62 00
        E 0 90 1b 60
        E 0 90 61 60
        E 80 80 1b 00
        E 0 80 61 00
        E 0 90 1e 60
        E 0 90 62 60
        E 80 80 1e 00
        E 0 80 62 00
        E 0 90 1b 60
        E 0 90 55 60
        E 0 90 61 60
        E 80 80 1b 00
        E 0 80 55 00
        E 0 80 61 00
        E 0 90 1a 60
        E 0 90 61 60
        E 80 80 1a 00
        E 0 80 61 00
        E 0 90 1b 60
        E 0 90 61 60
        E 80 80 78 00
        E 0 80 79 00
        E 0 80 7a 00
        E 0 80 7b 00
        E 0 80 7c 00
        E 0 80 1b 00
        E 0 80 61 00
        E 0 90 18 60
        E 0 90 22 60
        E 0 90 40 60
        E 0 90 48 60
        E 0 90 4c 60
        E 0 90 54 60
        E 0 90 58 60
        E 0 90 60 60
        E 0 90 64 60
        E 80 80 18 00
        E 0 80 22 00
        E 0 80 40 00
        E 0 80 48 00
        E 0 80 4c 00
        E 0 80 54 00
        E 0 80 58 00
        E 0 80 60 00
        E 0 80 64 00
        E 80 90 1f 60
        E 0 90 62 60
        E 30 80 1f 00
        E 0 80 62 00
        E 50 90 1a 60
        E 0 90 55 60
        E 0 90 61 60
        E 30 80 1a 00
        E 0 80 55 00
        E 0 80 61 00
        E 50 90 18 60
        E 0 90 1f 60
        E 0 90 60 60
        E 0 90 62 60
        E 30 80 18 00
        E 0 80 1f 00
        E 0 80 60 00
        E 0 80 62 00
        E 50 90 18 60
        E 0 90 60 60
        E 30 80 18 00
        E 0 80 60 00
        E 50 90 1a 60
        E 0 90 1f 60
        E 0 90 3d 60
        E 0 90 49 60
        E 0 90 4a 60
        E 0 90 55 60
        E 0 90 56 60
        E 0 90 61 60
        E 0 90 62 60
        E 30 80 1a 00
        E 0 80 1f 00
        E 0 80 3d 00
        E 0 80 49 00
        E 0 80 4a 00
        E 0 80 55 00
        E 0 80 56 00
        E 0 80 61 00
        E 0 80 62 00
        E 130 90 1e 60
        E 0 90 62 60
        E 30 80 1e 00
        E 0 80 62 00
        E 50 90 1b 60
        E 0 90 55 60
        E 0 90 61 60
        E 30 80 1b 00
        E 0 80 55 00
        E 0 80 61 00
        E 50 90 18 60
        E 0 90 1e 60
        E 0 90 60 60
        E 0 90 62 60
        E 30 80 18 00
        E 0 80 1e 00
        E 0 80 60 00
        E 0 80 62 00
        E 50 90 1b 60
        E 0 90 61 60
        E 30 80 1b 00
        E 0 80 61 00
        E 50 90 1e 60
        E 0 90 3e 60
        E 0 90 4a 60
        E 0 90 56 60
        E 0 90 62 60
        E 30 80 1e 00
        E 0 80 3e 00
        E 0 80 4a 00
        E 0 80 56 00
        E 0 80 62 00
        E 50 90 18 60
        E 0 90 60 60
        E 30 80 18 00
        E 0 80 60 00
        E 50 90 1a 60
        E 0 90 1f 60
        E 0 90 61 60
        E 0 90 62 60
        E 30 80 1a 00
        E 0 80 1f 00
        E 0 80 61 00
        E 0 80 62 00
        E 130 90 1e 60
        E 0 90 62 60
        E 30 80 1e 00
        E 0 80 62 00
        E 50 90 1b 60
        E 0 90 61 60
        E 30 80 1b 00
        E 0 80 61 00
        E 50 90 18 60
        E 0 90 1e 60
        E 0 90 3e 60
        E 0 90 48 60
        E 0 90 4a 60
        E 0 90 54 60
        E 0 90 56 60
        E 0 90 60 60
        E 0 90 62 60
        E 30 80 18 00
        E 0 80 1e 00
        E 0 80 3e 00
        E 0 80 48 00
        E 0 80 4a 00
        E 0 80 54 00
        E 0 80 56 00
        E 0 80 60 00
        E 0 80 62 00
        E 50 90 1b 60
        E 0 90 61 60
        E 30 80 1b 00
        E 0 80 61 00
        E 50 90 1e 60
        E 0 90 62 60
        E 30 80 1e 00
        E 0 80 62 00
        E 50 90 18 60
        E 0 90 54 60
        E 0 90 60 60
        E 30 80 18 00
        E 0 80 54 00
        E 0 80 60 00
        E 50 90 1a 60
        E 0 90 1f 60
        E 0 90 61 60
        E 0 90 62 60
        E 30 80 1a 00
        E 0 80 1f 00
        E 0 80 61 00
        E 0 80 62 00
        E 130 90 1f 60
        E 0 90 3e 60
        E 0 90 4a 60
        E 0 90 56 60
        E 0 90 62 60
        E 30 80 1f 00
        E 0 80 3e 00
        E 0 80 4a 00
        E 0 80 56 00
        E 0 80 62 00
        E 130 90 18 60
        E 0 90 1e 60
        E 0 90 60 60
        E 0 90 62 60
        E 30 80 18 00
        E 0 80 1e 00
        E 0 80 60 00
        E 0 80 62 00
        E 130 90 18 60
        E 0 90 1f 60
        E 0 90 60 60
        E 0 90 62 60
        E 30 80 18 00
        E 0 80 1f 00
        E 0 80 60 00
        E 0 80 62 00
        E 130 90 18 60
        E 0 90 1e 60
        E 0 90 3e 60
        E 0 90 48 60
        E 0 90 4a 60
        E 0 90 54 60
        E 0 90 56 60
        E 0 90 60 60
        E 0 90 62 60
        E 30 80 18 00
        E 0 80 1e 00
        E 0 80 3e 00
        E 0 80 48 00
        E 0 80 4a 00
        E 0 80 54 00
        E 0 80 56 00
        E 0 80 60 00
        E 0 80 62 00
        E 50 90 1b 60
        E 0 90 61 60
        E 30 80 1b 00
        E 0 80 61 00
        E 50 90 1a 60
        E 0 90 61 60
        E 30 80 1a 00
        E 0 80 61 00
        E 50 90 1b 60
        E 0 90 55 60
        E 0 90 61 60
        E 30 80 1b 00
        E 0 80 55 00
        E 0 80 61 00
        E 50 90 2e 60
        E 0 90 62 60
        E 0 90 6e 60
        E 30 80 2e 00
        E 0 80 62 00
        E 0 80 6e 00
        E 50 90 1b 60
        E 0 90 61 60
        E 30 80 1b 00
        E 0 80 61 00
        E 50 90 1a 60
        E 0 90 3d 60
        E 0 90 49 60
        E 0 90 55 60
        E 0 90 61 60
        E 30 80 1a 00
        E 0 80 3d 00
        E 0 80 49 00
        E 0 80 55 00
        E 0 80 61 00
        E 50 90 1b 60
        E 0 90 61 60
        E 30 80 1b 00
        E 0 80 61 00
        E 50 90 2e 60
        E 0 90 62 60
        E 0 90 6e 60
        E 30 80 2e 00
        E 0 80 62 00
        E 0 80 6e 00
        E 50 90 1b 60
        E 0 90 55 60
        E 0 90 61 60
        E 30 80 1b 00
        E 0 80 55 00
        E 0 80 61 00
        E 50 90 1a 60
        E 0 90 61 60
        E 30 80 1a 00
        E 0 80 61 00
        E 49 90 1b 60
        E 0 90 61 60
        E 30 80 1b 00
        E 0 80 61 00
        E 51 90 1a 60
        E 0 90 3d 60
        E 0 90 49 60
        E 0 90 55 60
        E 0 90 61 60
        E 30 80 1a 00
        E 0 80 3d 00
        E 0 80 49 00
        E 0 80 55 00
        E 0 80 61 00
        E 50 90 1b 60
        E 0 90 61 60
        E 30 80 1b 00
        E 0 80 61 00
        E 50 90 2e 60
        E 0 90 62 60
        E 0 90 6e 60
        E 30 80 2e 00
        E 0 80 62 00
        E 0 80 6e 00
        E 50 90 2f 60
        E 0 90 56 60
        E 0 90 62 60
        E 0 90 6e 60
        E 30 80 2f 00
        E 0 80 56 00
        E 0 80 62 00
        E 0 80 6e 00
        E 50 90 30 60
        E 0 90 63 60
        E 0 90 6f 60
        E 30 80 30 00
        E 0 80 63 00
        E 0 80 6f 00
        E 50 90 31 60
        E 0 90 63 60
        E 0 90 6f 60
        E 30 80 31 00
        E 0 80 63 00
        E 0 80 6f 00
        E 50 90 18 60
        E 0 90 22 60
        E 0 90 40 60
        E 0 90 48 60
        E 0 90 4c 60
        E 0 90 54 60
        E 0 90 58 60
        E 0 90 60 60
        E 0 90 64 60
        E 30 80 18 00
        E 0 80 22 00
        E 0 80 40 00
        E 0 80 48 00
        E 0 80 4c 00
        E 0 80 54 00
        E 0 80 58 00
        E 0 80 60 00
        E 0 80 64 00
        E 130 90 1f 60
        E 0 90 62 60
        E 30 80 1f 00
        E 0 80 62 00
        E 50 90 1a 60
        E 0 90 55 60
        E 0 90 61 60
        E 30 80 1a 00
        E 0 80 55 00
        E 0 80 61 00
        E 50 90 18 60
        E 0 90 1f 60
        E 0 90 60 60
        E 0 90 62 60
        E 30 80 18 00
        E 0 80 1f 00
        E 0 80 60 00
        E 0 80 62 00
        E 50 90 18 60
        E 0 90 60 60
        E 30 80 18 00
        E 0 80 60 00
        E 50 90 1a 60
        E 0 90 1f 60
        E 0 90 3d 60
        E 0 90 49 60
        E 0 90 4a 60
        E 0 90 55 60
        E 0 90 56 60
        E 0 90 61 60
        E 0 90 62 60
        E 30 80 1a 00
        E 0 80 1f 00
        E 0 80 3d 00
        E 0 80 49 00
        E 0 80 4a 00
        E 0 80 55 00
        E 0 80 56 00
        E 0 80 61 00
        E 0 80 62 00
        E 130 90 1e 60
        E 0 90 62 60
        E 30 80 1e 00
        E 0 80 62 00
        E 50 90 1b 60
        E 0 90 55 60
        E 0 90 61 60
        E 80 80 1b 00
        E 0 80 55 00
        E 0 80 61 00
        E 0 90 18 60
        E 0 90 1e 60
        E 0 90 60 60
        E 0 90 62 60
        E 80 80 18 00
        E 0 80 1e 00
        E 0 80 60 00
        E 0 80 62 00
        E 80 90 18 60
        E 0 90 1f 60
        E 0 90 3e 60
        E 0 90 48 60
        E 0 90 4a 60
        E 0 90 54 60
        E 0 90 56 60
        E 0 90 60 60
        E 0 90 62 60
        E 80 80 18 00
        E 0 80 1f 00
        E 0 80 3e 00
        E 0 80 48 00
        E 0 80 4a 00
        E 0 80 54 00
        E 0 80 56 00
        E 0 80 60 00
        E 0 80 62 00
        E 80 90 1e 60
        E 0 90 62 60
        E 80 80 1e 00
        E 0 80 62 00
        E 0 90 1b 60
        E 0 90 55 60
        E 0 90 61 60
        E 80 80 1b 00
        E 0 80 55 00
        E 0 80 61 00
        E 0 90 18 60
        E 0 90 1e 60
        E 0 90 60 60
        E 0 90 62 60
        E 80 80 18 00
        E 0 80 1e 00
        E 0 80 60 00
        E 0 80 62 00
        E 80 90 1a 60
        E 0 90 1f 60
        E 0 90 3d 60
        E 0 90 49 60
        E 0 90 4a 60
        E 0 90 55 60
        E 0 90 56 60
        E 0 90 61 60
        E 0 90 62 60
        E 80 80 1a 00
        E 0 80 1f 00
        E 0 80 3d 00
        E 0 80 49 00
        E 0 80 4a 00
        E 0 80 55 00
        E 0 80 56 00
        E 0 80 61 00
        E 0 80 62 00
        E 80 90 1e 60
        E 0 90 62 60
        E 80 80 1e 00
        E 0 80 62 00
        E 0 90 1b 60
        E 0 90 55 60
        E 0 90 61 60
        E 80 80 1b 00
        E 0 80 55 00
        E 0 80 61 00
        E 0 90 18 60
        E 0 90 1e 60
        E 0 90 60 60
        E 0 90 62 60
        E 80 80 18 00
        E 0 80 1e 00
        E 0 80 60 00
        E 0 80 62 00
        E 80 90 18 60
        E 0 90 1f 60
        E 0 90 3e 60
        E 0 90 48 60
        E 0 90 4a 60
        E 0 90 54 60
        E 0 90 56 60
        E 0 90 60 60
        E 0 90 62 60
        E 80 80 18 00
        E 0 80 1f 00
        E 0 80 3e 00
        E 0 80 48 00
        E 0 80 4a 00
        E 0 80 54 00
        E 0 80 56 00
        E 0 80 60 00
        E 0 80 62 00
        E 80 90 1e 60
        E 0 90 62 60
        E 80 80 1e 00
        E 0 80 62 00
        E 0 90 1b 60
        E 0 90 55 60
        E 0 90 61 60
        E 80 80 1b 00
        E 0 80 55 00
        E 0 80 61 00
        E 0 90 18 60
        E 0 90 1e 60
        E 0 90 60 60
        E 0 90 62 60
        E 80 80 18 00
        E 0 80 1e 00
        E 0 80 60 00
        E 0 80 62 00
        E 80 90 1a 60
        E 0 90 1f 60
        E 0 90 3d 60
        E 0 90 49 60
        E 0 90 4a 60
        E 0 90 55 60
        E 0 90 56 60
        E 0 90 61 60
        E 0 90 62 60
        E 80 80 1a 00
        E 0 80 1f 00
        E 0 80 3d 00
        E 0 80 49 00
        E 0 80 4a 00
        E 0 80 55 00
        E 0 80 56 00
        E 0 80 61 00
        E 0 80 62 00
        E 80 90 1e 60
        E 0 90 62 60
        E 80 80 1e 00
        E 0 80 62 00
        E 0 90 1b 60
        E 0 90 55 60
        E 0 90 61 60
        E 80 80 1b 00
        E 0 80 55 00
        E 0 80 61 00
        E 0 90 18 60
        E 0 90 1e 60
        E 0 90 60 60
        E 0 90 62 60
        E 80 80 18 00
        E 0 80 1e 00
        E 0 80 60 00
        E 0 80 62 00
        E 80 90 18 60
        E 0 90 1f 60
        E 0 90 3e 60
        E 0 90 48 60
        E 0 90 4a 60
        E 0 90 54 60
        E 0 90 56 60
        E 0 90 60 60
        E 0 90 62 60
        E 80 80 18 00
        E 0 80 1f 00
        E 0 80 3e 00
        E 0 80 48 00
        E 0 80 4a 00
        E 0 80 54 00
        E 0 80 56 00
        E 0 80 60 00
        E 0 80 62 00
        E 80 90 1e 60
        E 0 90 62 60
        E 80 80 1e 00
        E 0 80 62 00
        E 0 90 1b 60
        E 0 90 55 60
        E 0 90 61 60
        E 80 80 1b 00
        E 0 80 55 00
        E 0 80 61 00
        E 0 90 18 60
        E 0 90 1e 60
        E 0 90 60 60
        E 0 90 62 60
        E 80 80 18 00
        E 0 80 1e 00
        E 0 80 60 00
        E 0 80 62 00
        E 80 90 1a 60
        E 0 90 1f 60
        E 0 90 3d 60
        E 0 90 49 60
        E 0 90 4a 60
        E 0 90 55 60
        E 0 90 56 60
        E 0 90 61 60
        E 0 90 62 60
        E 30 80 1a 00
        E 0 80 1f 00
        E 0 80 3d 00
        E 0 80 49 00
        E 0 80 4a 00
        E 0 80 55 00
        E 0 80 56 00
        E 0 80 61 00
        E 0 80 62 00
        E 130 90 1a 60
        E 0 90 61 60
        E 30 80 1a 00
        E 0 80 61 00
        E 23 90 1b 60
        E 0 90 61 60
        E 30 80 1b 00
        E 0 80 61 00
        E 23 90 1a 60
        E 0 90 61 60
        E 30 80 1a 00
        E 0 80 61 00
        E 24 90 1b 60
        E 0 90 61 60
        E 30 80 1b 00
        E 0 80 61 00
        E 23 90 1a 60
        E 0 90 61 60
        E 30 80 1a 00
        E 0 80 61 00
        E 23 90 1b 60
        E 0 90 61 60
        E 30 80 1b 00
        E 0 80 61 00
        E 24 90 18 60
        E 0 90 22 60
        E 0 90 40 60
        E 0 90 48 60
        E 0 90 4c 60
        E 0 90 54 60
        E 0 90 58 60
        E 0 90 60 60
        E 0 90 64 60
        E 0 90 74 60
        E 30 80 18 00
        E 0 80 22 00
        E 0 80 40 00
        E 0 80 48 00
        E 0 80 4c 00
        E 0 80 54 00
        E 0 80 58 00
        E 0 80 60 00
        E 0 80 64 00
        E 130 90 1f 60
        E 0 90 62 60
        E 30 80 1f 00
        E 0 80 62 00
        E 50 90 1a 60
        E 0 90 55 60
        E 0 90 61 60
        E 30 80 1a 00
        E 0 80 55 00
        E 0 80 61 00
        E 50 90 18 60
        E 0 90 1f 60
        E 0 90 60 60
        E 0 90 62 60
        E 30 80 18 00
        E 0 80 1f 00
        E 0 80 60 00
        E 0 80 62 00
        E 50 90 18 60
        E 0 90 60 60
        E 30 80 18 00
        E 0 80 60 00
        E 50 90 1a 60
        E 0 90 1f 60
        E 0 90 3d 60
        E 0 90 49 60
        E 0 90 4a 60
        E 0 90 55 60
        E 0 90 56 60
        E 0 90 61 60
        E 0 90 62 60
        E 30 80 1a 00
        E 0 80 1f 00
        E 0 80 3d 00
        E 0 80 49 00
        E 0 80 4a 00
        E 0 80 55 00
        E 0 80 56 00
        E 0 80 61 00
        E 0 80 62 00
        E 130 90 1e 60
        E 0 90 62 60
        E 30 80 1e 00
        E 0 80 62 00
        E 50 90 1b 60
        E 0 90 55 60
        E 0 90 61 60
        E 30 80 1b 00
        E 0 80 55 00
        E 0 80 61 00
        E 50 90 18 60
        E 0 90 1e 60
        E 0 90 60 60
        E 0 90 62 60
        E 30 80 18 00
        E 0 80 1e 00
        E 0 80 60 00
        E 0 80 62 00
        E 130 90 18 60
        E 0 90 1f 60
        E 0 90 3e 60
        E 0 90 48 60
        E 0 90 4a 60
        E 0 90 54 60
        E 0 90 56 60
        E 0 90 60 60
        E 0 90 62 60
        E 30 80 18 00
        E 0 80 1f 00
        E 0 80 3e 00
        E 0 80 48 00
        E 0 80 4a 00
        E 0 80 54 00
        E 0 80 56 00
        E 0 80 60 00
        E 0 80 62 00
        E 130 90 1e 60
        E 0 90 62 60
        E 30 80 1e 00
        E 0 80 62 00
        E 50 90 1b 60
        E 0 90 55 60
        E 0 90 61 60
        E 30 80 1b 00
        E 0 80 55 00
        E 0 80 61 00
        E 50 90 18 60
        E 0 90 1e 60
        E 0 90 60 60
        E 0 90 62 60
        E 30 80 18 00
        E 0 80 1e 00
        E 0 80 60 00
        E 0 80 62 00
        E 130 90 1a 60
        E 0 90 1f 60
        E 0 90 3d 60
        E 0 90 49 60
        E 0 90 4a 60
        E 0 90 55 60
        E 0 90 56 60
        E 0 90 61 60
        E 0 90 62 60
        E 30 80 1a 00
        E 0 80 1f 00
        E 0 80 3d 00
        E 0 80 49 00
        E 0 80 4a 00
        E 0 80 55 00
        E 0 80 56 00
        E 0 80 61 00
        E 0 80 62 00
        E 130 90 1e 60
        E 0 90 62 60
        E 30 80 1e 00
        E 0 80 62 00
        E 50 90 1b 60
        E 0 90 55 60
        E 0 90 61 60
        E 30 80 1b 00
        E 0 80 55 00
        E 0 80 61 00
        E 50 90 18 60
        E 0 90 1e 60
        E 0 90 60 60
        E 0 90 62 60
        E 30 80 18 00
        E 0 80 1e 00
        E 0 80 60 00
        E 0 80 62 00
        E 130 80 74 00
        E 0 90 18 60
        E 0 90 1f 60
        E 0 90 3e 60
        E 0 90 48 60
        E 0 90 4a 60
        E 0 90 54 60
        E 0 90 56 60
        E 0 90 60 60
        E 0 90 62 60
        E 30 80 18 00
        E 0 80 1f 00
        E 0 80 3e 00
        E 0 80 48 00
        E 0 80 4a 00
        E 0 80 54 00
        E 0 80 56 00
        E 0 80 60 00
        E 0 80 62 00
        E 50 90 1a 60
        E 0 90 61 60
        E 30 80 1a 00
        E 0 80 61 00
        E 50 90 1b 60
        E 0 90 61 60
        E 30 80 1b 00
        E 0 80 61 00
        E 50 90 1a 60
        E 0 90 55 60
        E 0 90 61 60
        E 30 80 1a 00
        E 0 80 55 00
        E 0 80 61 00
        E 50 90 2f 60
        E 0 90 62 60
        E 0 90 6e 60
        E 30 80 2f 00
        E 0 80 62 00
        E 0 80 6e 00
        E 50 90 1a 60
        E 0 90 61 60
        E 30 80 1a 00
        E 0 80 61 00
        E 50 90 1b 60
        E 0 90 3d 60
        E 0 90 49 60
        E 0 90 55 60
        E 0 90 61 60
        E 0 90 78 60
        E 0 90 79 60
        E 0 90 7a 60
        E 0 90 7b 60
        E 0 90 7c 60
        E 30 80 1b 00
        E 0 80 3d 00
        E 0 80 49 00
        E 0 80 55 00
        E 0 80 61 00
        E 50 90 1a 60
        E 0 90 61 60
        E 30 80 1a 00
        E 0 80 61 00
        E 50 90 31 60
        E 0 90 63 60
        E 0 90 6f 60
        E 30 80 31 00
        E 0 80 63 00
        E 0 80 6f 00
        E 50 90 1a 60
        E 0 90 55 60
        E 0 90 61 60
        E 30 80 1a 00
        E 0 80 55 00
        E 0 80 61 00
        E 49 90 1b 60
        E 0 90 61 60
        E 30 80 1b 00
        E 0 80 61 00
        E 51 90 1a 60
        E 0 90 61 60
        E 30 80 1a 00
        E 0 80 61 00
        E 50 90 1b 60
        E 0 90 3d 60
        E 0 90 49 60
        E 0 90 55 60
        E 0 90 61 60
        E 30 80 1b 00
        E 0 80 3d 00
        E 0 80 49 00
        E 0 80 55 00
        E 0 80 61 00
        E 50 90 1a 60
        E 0 90 61 60
        E 30 80 1a 00
        E 0 80 61 00
        E 50 90 2f 60
        E 0 90 62 60
        E 0 90 6e 60
        E 30 80 2f 00
        E 0 80 62 00
        E 0 80 6e 00
        E 50 90 2e 60
        E 0 90 56 60
        E 0 90 62 60
        E 0 90 6e 60
        E 30 80 2e 00
        E 0 80 56 00
        E 0 80 62 00
        E 0 80 6e 00
        E 50 90 31 60
        E 0 90 63 60
        E 0 90 6f 60
        E 30 80 31 00
        E 0 80 63 00
        E 0 80 6f 00
        E 50 90 30 60
        E 0 90 63 60
        E 0 90 6f 60
        E 30 80 30 00
        E 0 80 63 00
        E 0 80 6f 00
        E 50 90 18 60
        E 0 90 24 60
        E 0 90 40 60
        E 0 90 48 60
        E 0 90 4c 60
        E 0 90 54 60
        E 0 90 58 60
        E 0 90 60 60
        E 0 90 64 60
        E 1 80 78 00
        E 0 80 79 00
        E 0 80 7a 00
        E 0 80 7b 00
        E 0 80 7c 00
        E 29 80 18 00
        E 0 80 24 00
        E 0 80 40 00
        E 0 80 48 00
        E 0 80 4c 00
        E 0 80 54 00
        E 0 80 58 00
        E 0 80 60 00
        E 0 80 64 00
        E 130 90 18 60
        E 0 90 2b 60
        E 0 90 60 60
        E 0 90 63 60
        E 30 80 18 00
        E 0 80 2b 00
        E 0 80 60 00
        E 0 80 63 00
        E 130 90 18 60
        E 0 90 24 60
        E 0 90 60 60
        E 0 90 64 60
        E 30 80 18 00
        E 0 80 24 00
        E 0 80 60 00
        E 0 80 64 00
        E 130 90 18 60
        E 0 90 2b 60
        E 0 90 3f 60
        E 0 90 48 60
        E 0 90 4b 60
        E 0 90 54 60
        E 0 90 57 60
        E 0 90 60 60
        E 0 90 63 60
        E 30 80 18 00
        E 0 80 2b 00
        E 0 80 3f 00
        E 0 80 48 00
        E 0 80 4b 00
        E 0 80 54 00
        E 0 80 57 00
        E 0 80 60 00
        E 0 80 63 00
        E 130 90 1f 60
        E 0 90 62 60
        E 30 80 1f 00
        E 0 80 62 00
        E 50 90 1a 60
        E 0 90 55 60
        E 0 90 61 60
        E 30 80 1a 00
        E 0 80 55 00
        E 0 80 61 00
        E 50 90 18 60
        E 0 90 1f 60
        E 0 90 60 60
        E 0 90 62 60
        E 30 80 18 00
        E 0 80 1f 00
        E 0 80 60 00
        E 0 80 62 00
        E 130 90 1a 60
        E 0 90 1f 60
        E 0 90 3d 60
        E 0 90 49 60
        E 0 90 4a 60
        E 0 90 55 60
        E 0 90 56 60
        E 0 90 61 60
        E 0 90 62 60
        E 30 80 1a 00
        E 0 80 1f 00
        E 0 80 3d 00
        E 0 80 49 00
        E 0 80 4a 00
        E 0 80 55 00
        E 0 80 56 00
        E 0 80 61 00
        E 0 80 62 00
        E 130 90 1e 60
        E 0 90 62 60
        E 30 80 1e 00
        E 0 80 62 00
        E 50 90 1b 60
        E 0 90 55 60
        E 0 90 61 60
        E 30 80 1b 00
        E 0 80 55 00
        E 0 80 61 00
        E 50 90 18 60
        E 0 90 1e 60
        E 0 90 60 60
        E 0 90 62 60
        E 30 80 18 00
        E 0 80 1e 00
        E 0 80 60 00
        E 0 80 62 00
        E 130 90 18 60
        E 0 90 1f 60
        E 0 90 3e 60
        E 0 90 48 60
        E 0 90 4a 60
        E 0 90 54 60
        E 0 90 56 60
        E 0 90 60 60
        E 0 90 62 60
        E 30 80 18 00
        E 0 80 1f 00
        E 0 80 3e 00
        E 0 80 48 00
        E 0 80 4a 00
        E 0 80 54 00
        E 0 80 56 00
        E 0 80 60 00
        E 0 80 62 00
        E 130 90 1e 60
        E 0 90 62 60
        E 30 80 1e 00
        E 0 80 62 00
        E 50 90 1b 60
        E 0 90 55 60
        E 0 90 61 60
        E 30 80 1b 00
        E 0 80 55 00
        E 0 80 61 00
        E 50 90 18 60
        E 0 90 1e 60
        E 0 90 60 60
        E 0 90 62 60
        E 30 80 18 00
        E 0 80 1e 00
        E 0 80 60 00
        E 0 80 62 00
        E 130 90 1a 60
        E 0 90 1f 60
        E 0 90 3d 60
        E 0 90 49 60
        E 0 90 4a 60
        E 0 90 55 60
        E 0 90 56 60
        E 0 90 61 60
        E 0 90 62 60
        E 30 80 1a 00
        E 0 80 1f 00
        E 0 80 3d 00
        E 0 80 49 00
        E 0 80 4a 00
        E 0 80 55 00
        E 0 80 56 00
        E 0 80 61 00
        E 0 80 62 00
        E 130 90 1e 60
        E 0 90 62 60
        E 30 80 1e 00
        E 0 80 62 00
        E 50 90 1b 60
        E 0 90 55 60
        E 0 90 61 60
        E 30 80 1b 00
        E 0 80 55 00
        E 0 80 61 00
        E 50 90 18 60
        E 0 90 1e 60
        E 0 90 60 60
        E 0 90 62 60
        E 30 80 18 00
        E 0 80 1e 00
        E 0 80 60 00
        E 0 80 62 00
        E 130 90 18 60
        E 0 90 1f 60
        E 0 90 3e 60
        E 0 90 48 60
        E 0 90 4a 60
        E 0 90 54 60
        E 0 90 56 60
        E 0 90 60 60
        E 0 90 62 60
        E 30 80 18 00
        E 0 80 1f 00
        E 0 80 3e 00
        E 0 80 48 00
        E 0 80 4a 00
        E 0 80 54 00
        E 0 80 56 00
        E 0 80 60 00
        E 0 80 62 00
        E 130 90 1e 60
        E 0 90 62 60
        E 30 80 1e 00
        E 0 80 62 00
        E 50 90 1b 60
        E 0 90 55 60
        E 0 90 61 60
        E 30 80 1b 00
        E 0 80 55 00
        E 0 80 61 00
        E 50 90 18 60
        E 0 90 1e 60
        E 0 90 60 60
        E 0 90 62 60
        E 30 80 18 00
        E 0 80 1e 00
        E 0 80 60 00
        E 0 80 62 00
        E 130 90 1a 60
        E 0 90 1f 60
        E 0 90 3d 60
        E 0 90 49 60
        E 0 90 4a 60
        E 0 90 55 60
        E 0 90 56 60
        E 0 90 61 60
        E 0 90 62 60
        E 30 80 1a 00
        E 0 80 1f 00
        E 0 80 3d 00
        E 0 80 49 00
        E 0 80 4a 00
        E 0 80 55 00
        E 0 80 56 00
        E 0 80 61 00
        E 0 80 62 00
        E 130 90 1e 60
        E 0 90 62 60
        E 30 80 1e 00
        E 0 80 62 00
        E 50 90 1b 60
        E 0 90 55 60
        E 0 90 61 60
        E 30 80 1b 00
        E 0 80 55 00
        E 0 80 61 00
        E 49 90 18 60
        E 0 90 1e 60
        E 0 90 60 60
        E 0 90 62 60
        E 30 80 18 00
        E 0 80 1e 00
        E 0 80 60 00
        E 0 80 62 00
        E 131 90 18 60
        E 0 90 1f 60
        E 0 90 3e 60
        E 0 90 48 60
        E 0 90 4a 60
        E 0 90 54 60
        E 0 90 56 60
        E 0 90 60 60
        E 0 90 62 60
        E 0 90 78 60
        E 0 90 79 60
        E 0 90 7a 60
        E 0 90 7b 60
        E 0 90 7c 60
        E 30 80 18 00
        E 0 80 1f 00
        E 0 80 3e 00
        E 0 80 48 00
        E 0 80 4a 00
        E 0 80 54 00
        E 0 80 56 00
        E 0 80 60 00
        E 0 80 62 00
        E 50 90 1a 60
        E 0 90 61 60
        E 30 80 1a 00
        E 0 80 61 00
        E 50 90 1b 60
        E 0 90 61 60
        E 30 80 1b 00
        E 0 80 61 00
        E 50 90 1a 60
        E 0 90 55 60
        E 0 90 61 60
        E 30 80 1a 00
        E 0 80 55 00
        E 0 80 61 00
        E 50 90 2f 60
        E 0 90 62 60
        E 0 90 6e 60
        E 30 80 2f 00
        E 0 80 62 00
        E 0 80 6e 00
        E 50 90 1a 60
        E 0 90 61 60
        E 30 80 1a 00
        E 0 80 61 00
        E 50 90 1b 60
        E 0 90 3d 60
        E 0 90 49 60
        E 0 90 55 60
        E 0 90 61 60
        E 30 80 1b 00
        E 0 80 3d 00
        E 0 80 49 00
        E 0 80 55 00
        E 0 80 61 00
        E 50 90 1a 60
        E 0 90 61 60
        E 30 80 1a 00
        E 0 80 61 00
        E 50 90 2f 60
        E 0 90 62 60
        E 0 90 6e 60
        E 30 80 2f 00
        E 0 80 62 00
        E 0 80 6e 00
        E 50 90 2e 60
        E 0 90 56 60
        E 0 90 62 60
        E 0 90 6e 60
        E 30 80 2e 00
        E 0 80 56 00
        E 0 80 62 00
        E 0 80 6e 00
        E 50 90 31 60
        E 0 90 63 60
        E 0 90 6f 60
        E 30 80 31 00
        E 0 80 63 00
        E 0 80 6f 00
        E 50 90 30 60
        E 0 90 63 60
        E 0 90 6f 60
        E 30 80 30 00
        E 0 80 63 00
        E 0 80 6f 00
        E 50 90 18 60
        E 0 90 24 60
        E 0 90 40 60
        E 0 90 48 60
        E 0 90 4c 60
        E 0 90 54 60
        E 0 90 58 60
        E 0 90 60 60
        E 0 90 64 60
        E 1 80 78 00
        E 0 80 79 00
        E 0 80 7a 00
        E 0 80 7b 00
        E 0 80 7c 00
        E 29 80 18 00
        E 0 80 24 00
        E 0 80 40 00
        E 0 80 48 00
        E 0 80 4c 00
        E 0 80 54 00
        E 0 80 58 00
        E 0 80 60 00
        E 0 80 64 00
        E 130 90 1e 60
        E 0 90 62 60
        E 30 80 1e 00
        E 0 80 62 00
        E 50 90 1b 60
        E 0 90 55 60
        E 0 90 61 60
        E 30 80 1b 00
        E 0 80 55 00
        E 0 80 61 00
        E 50 90 18 60
        E 0 90 1e 60
        E 0 90 60 60
        E 0 90 62 60
        E 30 80 18 00
        E 0 80 1e 00
        E 0 80 60 00
        E 0 80 62 00
        E 50 90 18 60
        E 0 90 60 60
        E 30 80 18 00
        E 0 80 60 00
        E 50 90 1a 60
        E 0 90 24 60
        E 0 90 3d 60
        E 0 90 49 60
        E 0 90 4c 60
        E 0 90 55 60
        E 0 90 58 60
        E 0 90 61 60
        E 0 90 64 60
        E 30 80 1a 00
        E 0 80 24 00
        E 0 80 3d 00
        E 0 80 49 00
        E 0 80 4c 00
        E 0 80 55 00
        E 0 80 58 00
        E 0 80 61 00
        E 0 80 64 00
        E 130 90 1e 60
        E 0 90 62 60
        E 30 80 1e 00
        E 0 80 62 00
        E 50 90 1b 60
        E 0 90 55 60
        E 0 90 61 60
        E 30 80 1b 00
        E 0 80 55 00
        E 0 80 61 00
        E 50 90 18 60
        E 0 90 1e 60
        E 0 90 60 60
        E 0 90 62 60
        E 30 80 18 00
        E 0 80 1e 00
        E 0 80 60 00
        E 0 80 62 00
        E 130 90 18 60
        E 0 90 1f 60
        E 0 90 3e 60
        E 0 90 48 60
        E 0 90 4a 60
        E 0 90 54 60
        E 0 90 56 60
        E 0 90 60 60
        E 0 90 62 60
        E 30 80 18 00
        E 0 80 1f 00
        E 0 80 3e 00
        E 0 80 48 00
        E 0 80 4a 00
        E 0 80 54 00
        E 0 80 56 00
        E 0 80 60 00
        E 0 80 62 00
        E 130 90 1e 60
        E 0 90 62 60
        E 30 80 1e 00
        E 0 80 62 00
        E 50 90 1b 60
        E 0 90 55 60
        E 0 90 61 60
        E 30 80 1b 00
        E 0 80 55 00
        E 0 80 61 00
        E 50 90 18 60
        E 0 90 1e 60
        E 0 90 60 60
        E 0 90 62 60
        E 30 80 18 00
        E 0 80 1e 00
        E 0 80 60 00
        E 0 80 62 00
        E 130 90 1a 60
        E 0 90 1f 60
        E 0 90 3d 60
        E 0 90 49 60
        E 0 90 4a 60
        E 0 90 55 60
        E 0 90 56 60
        E 0 90 61 60
        E 0 90 62 60
        E 30 80 1a 00
        E 0 80 1f 00
        E 0 80 3d 00
        E 0 80 49 00
        E 0 80 4a 00
        E 0 80 55 00
        E 0 80 56 00
        E 0 80 61 00
        E 0 80 62 00
        E 130 90 1e 60
        E 0 90 62 60
        E 30 80 1e 00
        E 0 80 62 00
        E 50 90 1b 60
        E 0 90 55 60
        E 0 90 61 60
        E 30 80 1b 00
        E 0 80 55 00
        E 0 80 61 00
        E 50 90 18 60
        E 0 90 1e 60
        E 0 90 60 60
        E 0 90 62 60
        E 30 80 18 00
        E 0 80 1e 00
        E 0 80 60 00
        E 0 80 62 00
        E 130 90 18 60
        E 0 90 1f 60
        E 0 90 3e 60
        E 0 90 48 60
        E 0 90 4a 60
        E 0 90 54 60
        E 0 90 56 60
        E 0 90 60 60
        E 0 90 62 60
        E 30 80 18 00
        E 0 80 1f 00
        E 0 80 3e 00
        E 0 80 48 00
        E 0 80 4a 00
        E 0 80 54 00
        E 0 80 56 00
        E 0 80 60 00
        E 0 80 62 00
        E 50 90 1a 60
        E 0 90 61 60
        E 30 80 1a 00
        E 0 80 61 00
        E 50 90 1b 60
        E 0 90 61 60
        E 30 80 1b 00
        E 0 80 61 00
        E 24 90 1a 60
        E 0 90 61 60
        E 30 80 1a 00
        E 0 80 61 00
        E 23 90 1b 60
        E 0 90 61 60
        E 30 80 1b 00
        E 0 80 61 00
        E 23 90 1a 60
        E 0 90 61 60
        E 30 80 1a 00
        E 0 80 61 00
        E 50 90 1b 60
        E 0 90 61 60
        E 30 80 1b 00
        E 0 80 61 00
        E 50 90 18 60
        E 0 90 22 60
        E 0 90 40 60
        E 0 90 48 60
        E 0 90 4c 60
        E 0 90 54 60
        E 0 90 58 60
        E 0 90 60 60
        E 0 90 64 60
        E 30 80 18 00
        E 0 80 22 00
        E 0 80 40 00
        E 0 80 48 00
        E 0 80 4c 00
        E 0 80 54 00
        E 0 80 58 00
        E 0 80 60 00
        E 0 80 64 00
        E 50 90 1b 60
        E 0 90 61 60
        E 30 80 1b 00
        E 0 80 61 00
        E 50 90 18 60
        E 0 90 1a 60
        E 0 90 60 60
        E 0 90 61 60
        E 30 80 18 00
        E 0 80 1a 00
        E 0 80 60 00
        E 0 80 61 00
        E 50 90 1b 60
        E 0 90 55 60
        E 0 90 61 60
        E 30 80 1b 00
        E 0 80 55 00
        E 0 80 61 00
        E 50 90 18 60
        E 0 90 2e 60
        E 0 90 60 60
        E 0 90 62 60
        E 0 90 6e 60
        E 30 80 18 00
        E 0 80 2e 00
        E 0 80 60 00
        E 0 80 62 00
        E 0 80 6e 00
        E 50 90 1b 60
        E 0 90 61 60
        E 30 80 1b 00
        E 0 80 61 00
        E 50 90 18 60
        E 0 90 1a 60
        E 0 90 3d 60
        E 0 90 49 60
        E 0 90 54 60
        E 0 90 55 60
        E 0 90 60 60
        E 0 90 61 60
        E 30 80 18 00
        E 0 80 1a 00
        E 0 80 3d 00
        E 0 80 49 00
        E 0 80 54 00
        E 0 80 55 00
        E 0 80 60 00
        E 0 80 61 00
        E 50 90 1b 60
        E 0 90 61 60
        E 30 80 1b 00
        E 0 80 61 00
        E 50 90 18 60
        E 0 90 30 60
        E 0 90 60 60
        E 0 90 63 60
        E 0 90 6f 60
        E 30 80 18 00
        E 0 80 30 00
        E 0 80 60 00
        E 0 80 63 00
        E 0 80 6f 00
        E 50 90 1b 60
        E 0 90 55 60
        E 0 90 61 60
        E 30 80 1b 00
        E 0 80 55 00
        E 0 80 61 00
        E 50 90 18 60
        E 0 90 1a 60
        E 0 90 60 60
        E 0 90 61 60
        E 30 80 18 00
        E 0 80 1a 00
        E 0 80 60 00
        E 0 80 61 00
        E 50 90 1b 60
        E 0 90 61 60
        E 30 80 1b 00
        E 0 80 61 00
        E 50 90 18 60
        E 0 90 1a 60
        E 0 90 3d 60
        E 0 90 49 60
        E 0 90 54 60
        E 0 90 55 60
        E 0 90 60 60
        E 0 90 61 60
        E 30 80 18 00
        E 0 80 1a 00
        E 0 80 3d 00
        E 0 80 49 00
        E 0 80 54 00
        E 0 80 55 00
        E 0 80 60 00
        E 0 80 61 00
        E 50 90 1b 60
        E 0 90 61 60
        E 30 80 1b 00
        E 0 80 61 00
        E 50 90 18 60
        E 0 90 2e 60
        E 0 90 60 60
        E 0 90 62 60
        E 0 90 6e 60
        E 30 80 18 00
        E 0 80 2e 00
        E 0 80 60 00
        E 0 80 62 00
        E 0 80 6e 00
        E 50 90 2f 60
        E 0 90 56 60
        E 0 90 62 60
        E 0 90 6e 60
        E 30 80 2f 00
        E 0 80 56 00
        E 0 80 62 00
        E 0 80 6e 00
        E 50 90 18 60
        E 0 90 30 60
        E 0 90 60 60
        E 0 90 63 60
        E 0 90 6f 60
        E 30 80 18 00
        E 0 80 30 00
        E 0 80 60 00
        E 0 80 63 00
        E 0 80 6f 00
        E 50 90 31 60
        E 0 90 63 60
        E 0 90 6f 60
        E 30 80 31 00
        E 0 80 63 00
        E 0 80 6f 00
        E 50 90 18 60
        E 0 90 22 60
        E 0 90 40 60
        E 0 90 48 60
        E 0 90 4c 60
        E 0 90 54 60
        E 0 90 58 60
        E 0 90 60 60
        E 0 90 64 60
        E 30 80 18 00
        E 0 80 22 00
        E 0 80 40 00
        E 0 80 48 00
        E 0 80 4c 00
        E 0 80 54 00
        E 0 80 58 00
        E 0 80 60 00
        E 0 80 64 00
        E 130 90 18 60
        E 0 90 1f 60
        E 0 90 60 60
        E 0 90 62 60
        E 30 80 18 00
        E 0 80 1f 00
        E 0 80 60 00
        E 0 80 62 00
        E 50 90 1a 60
        E 0 90 55 60
        E 0 90 61 60
        E 30 80 1a 00
        E 0 80 55 00
        E 0 80 61 00
        E 50 90 1f 60
        E 0 90 62 60
        E 30 80 1f 00
        E 0 80 62 00
        E 50 90 18 60
        E 0 90 60 60
        E 30 80 18 00
        E 0 80 60 00
        E 50 90 1a 60
        E 0 90 1f 60
        E 0 90 3d 60
        E 0 90 49 60
        E 0 90 4a 60
        E 0 90 55 60
        E 0 90 56 60
        E 0 90 61 60
        E 0 90 62 60
        E 30 80 1a 00
        E 0 80 1f 00
        E 0 80 3d 00
        E 0 80 49 00
        E 0 80 4a 00
        E 0 80 55 00
        E 0 80 56 00
        E 0 80 61 00
        E 0 80 62 00
        E 130 90 1e 60
        E 0 90 62 60
        E 30 80 1e 00
        E 0 80 62 00
        E 50 90 1b 60
        E 0 90 55 60
        E 0 90 61 60
        E 30 80 1b 00
        E 0 80 55 00
        E 0 80 61 00
        E 50 90 18 60
        E 0 90 1e 60
        E 0 90 60 60
        E 0 90 62 60
        E 30 80 18 00
        E 0 80 1e 00
        E 0 80 60 00
        E 0 80 62 00
        E 130 90 18 60
        E 0 90 1f 60
        E 0 90 3e 60
        E 0 90 48 60
        E 0 90 4a 60
        E 0 90 54 60
        E 0 90 56 60
        E 0 90 60 60
        E 0 90 62 60
        E 30 80 18 00
        E 0 80 1f 00
        E 0 80 3e 00
        E 0 80 48 00
        E 0 80 4a 00
        E 0 80 54 00
        E 0 80 56 00
        E 0 80 60 00
        E 0 80 62 00
        E 130 90 18 60
        E 0 90 1e 60
        E 0 90 60 60
        E 0 90 62 60
        E 30 80 18 00
        E 0 80 1e 00
        E 0 80 60 00
        E 0 80 62 00
        E 50 90 1b 60
        E 0 90 55 60
        E 0 90 61 60
        E 30 80 1b 00
        E 0 80 55 00
        E 0 80 61 00
        E 50 90 1e 60
        E 0 90 62 60
        E 30 80 1e 00
        E 0 80 62 00
        E 50 90 18 60
        E 0 90 60 60
        E 30 80 18 00
        E 0 80 60 00
        E 50 90 1a 60
        E 0 90 1f 60
        E 0 90 3d 60
        E 0 90 49 60
        E 0 90 4a 60
        E 0 90 55 60
        E 0 90 56 60
        E 0 90 61 60
        E 0 90 62 60
        E 30 80 1a 00
        E 0 80 1f 00
        E 0 80 3d 00
        E 0 80 49 00
        E 0 80 4a 00
        E 0 80 55 00
        E 0 80 56 00
        E 0 80 61 00
        E 0 80 62 00
        E 131 90 18 60
        E 0 90 1e 60
        E 0 90 60 60
        E 0 90 62 60
        E 30 80 18 00
        E 0 80 1e 00
        E 0 80 60 00
        E 0 80 62 00
        E 49 90 1b 60
        E 0 90 55 60
        E 0 90 61 60
        E 30 80 1b 00
        E 0 80 55 00
        E 0 80 61 00
        E 50 90 1e 60
        E 0 90 62 60
        E 30 80 1e 00
        E 0 80 62 00
        E 130 90 18 60
        E 0 90 1f 60
        E 0 90 3e 60
        E 0 90 48 60
        E 0 90 4a 60
        E 0 90 54 60
        E 0 90 56 60
        E 0 90 60 60
        E 0 90 62 60
        E 30 80 18 00
        E 0 80 1f 00
        E 0 80 3e 00
        E 0 80 48 00
        E 0 80 4a 00
        E 0 80 54 00
        E 0 80 56 00
        E 0 80 60 00
        E 0 80 62 00
        E 130 90 1e 60
        E 0 90 62 60
        E 30 80 1e 00
        E 0 80 62 00
        E 50 90 1b 60
        E 0 90 55 60
        E 0 90 61 60
        E 30 80 1b 00
        E 0 80 55 00
        E 0 80 61 00
        E 50 90 18 60
        E 0 90 1e 60
        E 0 90 60 60
        E 0 90 62 60
        E 30 80 18 00
        E 0 80 1e 00
        E 0 80 60 00
        E 0 80 62 00
        E 50 90 18 60
        E 0 90 60 60
        E 30 80 18 00
        E 0 80 60 00
        E 50 90 1a 60
        E 0 90 1f 60
        E 0 90 3d 60
        E 0 90 49 60
        E 0 90 4a 60
        E 0 90 55 60
        E 0 90 56 60
        E 0 90 61 60
        E 0 90 62 60
        E 30 80 1a 00
        E 0 80 1f 00
        E 0 80 3d 00
        E 0 80 49 00
        E 0 80 4a 00
        E 0 80 55 00
        E 0 80 56 00
        E 0 80 61 00
        E 0 80 62 00
        E 130 90 1e 60
        E 0 90 62 60
        E 30 80 1e 00
        E 0 80 62 00
        E 50 90 1b 60
        E 0 90 55 60
        E 0 90 61 60
        E 30 80 1b 00
        E 0 80 55 00
        E 0 80 61 00
        E 50 90 18 60
        E 0 90 1e 60
        E 0 90 60 60
        E 0 90 62 60
        E 30 80 18 00
        E 0 80 1e 00
        E 0 80 60 00
        E 0 80 62 00
        E 130 90 18 60
        E 0 90 1f 60
        E 0 90 3e 60
        E 0 90 48 60
        E 0 90 4a 60
        E 0 90 54 60
        E 0 90 56 60
        E 0 90 60 60
        E 0 90 62 60
        E 30 80 18 00
        E 0 80 1f 00
        E 0 80 3e 00
        E 0 80 48 00
        E 0 80 4a 00
        E 0 80 54 00
        E 0 80 56 00
        E 0 80 60 00
        E 0 80 62 00
        E 50 90 1a 60
        E 0 90 61 60
        E 30 80 1a 00
        E 0 80 61 00
        E 50 90 1b 60
        E 0 90 61 60
        E 30 80 1b 00
        E 0 80 61 00
        E 50 90 1a 60
        E 0 90 55 60
        E 0 90 61 60
        E 30 80 1a 00
        E 0 80 55 00
        E 0 80 61 00
        E 130 90 1b 60
        E 0 90 61 60
        E 30 80 1b 00
        E 0 80 61 00
        E 50 90 18 60
        E 0 90 22 60
        E 0 90 40 60
        E 0 90 48 60
        E 0 90 4c 60
        E 0 90 54 60
        E 0 90 58 60
        E 0 90 60 60
        E 0 90 64 60
        E 30 80 18 00
        E 0 80 22 00
        E 0 80 40 00
        E 0 80 48 00
        E 0 80 4c 00
        E 0 80 54 00
        E 0 80 58 00
        E 0 80 60 00
        E 0 80 64 00
        E 50 90 1b 60
        E 0 90 61 60
        E 30 80 1b 00
        E 0 80 61 00
        E 50 90 1a 60
        E 0 90 61 60
        E 30 80 1a 00
        E 0 80 61 00
        E 50 90 1b 60
        E 0 90 55 60
        E 0 90 61 60
        E 30 80 1b 00
        E 0 80 55 00
        E 0 80 61 00
        E 130 90 1a 60
        E 0 90 61 60
        E 30 80 1a 00
        E 0 80 61 00
        E 50 90 18 60
        E 0 90 24 60
        E 0 90 40 60
        E 0 90 48 60
        E 0 90 4c 60
        E 0 90 54 60
        E 0 90 58 60
        E 0 90 60 60
        E 0 90 64 60
        E 30 80 18 00
        E 0 80 24 00
        E 0 80 40 00
        E 0 80 48 00
        E 0 80 4c 00
        E 0 80 54 00
        E 0 80 58 00
        E 0 80 60 00
        E 0 80 64 00
        E 130 90 1e 60
        E 0 90 62 60
        E 30 80 1e 00
        E 0 80 62 00
        E 50 90 1b 60
        E 0 90 55 60
        E 0 90 61 60
        E 30 80 1b 00
        E 0 80 55 00
        E 0 80 61 00
        E 49 90 18 60
        E 0 90 1e 60
        E 0 90 60 60
        E 0 90 62 60
        E 30 80 18 00
        E 0 80 1e 00
        E 0 80 60 00
        E 0 80 62 00
        E 50 90 18 60
        E 0 90 60 60
        E 30 80 18 00
        E 0 80 60 00
        E 51 90 1a 60
        E 0 90 1f 60
        E 0 90 3d 60
        E 0 90 49 60
        E 0 90 4a 60
        E 0 90 55 60
        E 0 90 56 60
        E 0 90 61 60
        E 0 90 62 60
        E 30 80 1a 00
        E 0 80 1f 00
        E 0 80 3d 00
        E 0 80 49 00
        E 0 80 4a 00
        E 0 80 55 00
        E 0 80 56 00
        E 0 80 61 00
        E 0 80 62 00
        E 130 90 1e 60
        E 0 90 62 60
        E 30 80 1e 00
        E 0 80 62 00
        E 50 90 1b 60
        E 0 90 55 60
        E 0 90 61 60
        E 30 80 1b 00
        E 0 80 55 00
        E 0 80 61 00
        E 50 90 18 60
        E 0 90 1e 60
        E 0 90 60 60
        E 0 90 62 60
        E 30 80 18 00
        E 0 80 1e 00
        E 0 80 60 00
        E 0 80 62 00
        E 130 90 18 60
        E 0 90 1f 60
        E 0 90 3e 60
        E 0 90 48 60
        E 0 90 4a 60
        E 0 90 54 60
        E 0 90 56 60
        E 0 90 60 60
        E 0 90 62 60
        E 30 80 18 00
        E 0 80 1f 00
        E 0 80 3e 00
        E 0 80 48 00
        E 0 80 4a 00
        E 0 80 54 00
        E 0 80 56 00
        E 0 80 60 00
        E 0 80 62 00
        E 130 90 1e 60
        E 0 90 62 60
        E 30 80 1e 00
        E 0 80 62 00
        E 50 90 1b 60
        E 0 90 55 60
        E 0 90 61 60
        E 30 80 1b 00
        E 0 80 55 00
        E 0 80 61 00
        E 50 90 18 60
        E 0 90 1e 60
        E 0 90 60 60
        E 0 90 62 60
        E 30 80 18 00
        E 0 80 1e 00
        E 0 80 60 00
        E 0 80 62 00
        E 50 90 18 60
        E 0 90 60 60
        E 30 80 18 00
        E 0 80 60 00
        E 50 90 1a 60
        E 0 90 1f 60
        E 0 90 3d 60
        E 0 90 49 60
        E 0 90 4a 60
        E 0 90 55 60
        E 0 90 56 60
        E 0 90 61 60
        E 0 90 62 60
        E 30 80 1a 00
        E 0 80 1f 00
        E 0 80 3d 00
        E 0 80 49 00
        E 0 80 4a 00
        E 0 80 55 00
        E 0 80 56 00
        E 0 80 61 00
        E 0 80 62 00
        E 130 90 1e 60
        E 0 90 62 60
        E 30 80 1e 00
        E 0 80 62 00
        E 50 90 1b 60
        E 0 90 55 60
        E 0 90 61 60
        E 30 80 1b 00
        E 0 80 55 00
        E 0 80 61 00
        E 50 90 18 60
        E 0 90 1e 60
        E 0 90 60 60
        E 0 90 62 60
        E 30 80 18 00
        E 0 80 1e 00
        E 0 80 60 00
        E 0 80 62 00
        E 130 90 18 60
        E 0 90 1f 60
        E 0 90 3e 60
        E 0 90 48 60
        E 0 90 4a 60
        E 0 90 54 60
        E 0 90 56 60
        E 0 90 60 60
        E 0 90 62 60
        E 30 80 18 00
        E 0 80 1f 00
        E 0 80 3e 00
        E 0 80 48 00
        E 0 80 4a 00
        E 0 80 54 00
        E 0 80 56 00
        E 0 80 60 00
        E 0 80 62 00
        E 50 90 1a 60
        E 0 90 61 60
        E 30 80 1a 00
        E 0 80 61 00
        E 50 90 1b 60
        E 0 90 61 60
        E 30 80 1b 00
        E 0 80 61 00
        E 23 90 1a 60
        E 0 90 61 60
        E 30 80 1a 00
        E 0 80 61 00
        E 23 90 1b 60
        E 0 90 61 60
        E 30 80 1b 00
        E 0 80 61 00
        E 24 90 1a 60
        E 0 90 61 60
        E 30 80 1a 00
        E 0 80 61 00
        E 49 90 1b 60
        E 0 90 61 60
        E 30 80 1b 00
        E 0 80 61 00
        E 51 90 18 60
        E 0 90 22 60
        E 0 90 40 60
        E 0 90 48 60
        E 0 90 4c 60
        E 0 90 54 60
        E 0 90 58 60
        E 0 90 60 60
        E 0 90 64 60
        E 30 80 18 00
        E 0 80 22 00
        E 0 80 40 00
        E 0 80 48 00
        E 0 80 4c 00
        E 0 80 54 00
        E 0 80 58 00
        E 0 80 60 00
        E 0 80 64 00
        E 50 90 1b 60
        E 0 90 61 60
        E 30 80 1b 00
        E 0 80 61 00
        E 50 90 18 60
        E 0 90 1a 60
        E 0 90 60 60
        E 0 90 61 60
        E 30 80 18 00
        E 0 80 1a 00
        E 0 80 60 00
        E 0 80 61 00
        E 50 90 2f 60
        E 0 90 56 60
        E 0 90 62 60
        E 0 90 6e 60
        E 30 80 2f 00
        E 0 80 56 00
        E 0 80 62 00
        E 0 80 6e 00
        E 50 90 18 60
        E 0 90 30 60
        E 0 90 60 60
        E 0 90 63 60
        E 0 90 6f 60
        E 30 80 18 00
        E 0 80 30 00
        E 0 80 60 00
        E 0 80 63 00
        E 0 80 6f 00
        E 50 90 1b 60
        E 0 90 61 60
        E 30 80 1b 00
        E 0 80 61 00
        E 50 90 18 60
        E 0 90 1a 60
        E 0 90 3d 60
        E 0 90 49 60
        E 0 90 54 60
        E 0 90 55 60
        E 0 90 60 60
        E 0 90 61 60
        E 30 80 18 00
        E 0 80 1a 00
        E 0 80 3d 00
        E 0 80 49 00
        E 0 80 54 00
        E 0 80 55 00
        E 0 80 60 00
        E 0 80 61 00
        E 50 90 1b 60
        E 0 90 61 60
        E 30 80 1b 00
        E 0 80 61 00
        E 50 90 18 60
        E 0 90 2e 60
        E 0 90 60 60
        E 0 90 62 60
        E 0 90 6e 60
        E 30 80 18 00
        E 0 80 2e 00
        E 0 80 60 00
        E 0 80 62 00
        E 0 80 6e 00
        E 50 90 1b 60
        E 0 90 55 60
        E 0 90 61 60
        E 30 80 1b 00
        E 0 80 55 00
        E 0 80 61 00
        E 50 90 18 60
        E 0 90 1a 60
        E 0 90 60 60
        E 0 90 61 60
        E 30 80 18 00
        E 0 80 1a 00
        E 0 80 60 00
        E 0 80 61 00
        E 50 90 1b 60
        E 0 90 61 60
        E 30 80 1b 00
        E 0 80 61 00
        E 50 90 18 60
        E 0 90 1a 60
        E 0 90 3d 60
        E 0 90 49 60
        E 0 90 54 60
        E 0 90 55 60
        E 0 90 60 60
        E 0 90 61 60
        E 30 80 18 00
        E 0 80 1a 00
        E 0 80 3d 00
        E 0 80 49 00
        E 0 80 54 00
        E 0 80 55 00
        E 0 80 60 00
        E 0 80 61 00
        E 50 90 1b 60
        E 0 90 61 60
        E 30 80 1b 00
        E 0 80 61 00
        E 50 90 18 60
        E 0 90 2e 60
        E 0 90 60 60
        E 0 90 62 60
        E 0 90 6e 60
        E 30 80 18 00
        E 0 80 2e 00
        E 0 80 60 00
        E 0 80 62 00
        E 0 80 6e 00
        E 50 90 2f 60
        E 0 90 56 60
        E 0 90 62 60
        E 0 90 6e 60
        E 30 80 2f 00
        E 0 80 56 00
        E 0 80 62 00
        E 0 80 6e 00
        E 50 90 18 60
        E 0 90 30 60
        E 0 90 60 60
        E 0 90 63 60
        E 0 90 6f 60
        E 30 80 18 00
        E 0 80 30 00
        E 0 80 60 00
        E 0 80 63 00
        E 0 80 6f 00
        E 50 90 31 60
        E 0 90 63 60
        E 0 90 6f 60
        E 30 80 31 00
        E 0 80 63 00
        E 0 80 6f 00
        E 50 90 18 60
        E 0 90 22 60
        E 0 90 40 60
        E 0 90 48 60
        E 0 90 4c 60
        E 0 90 54 60
        E 0 90 58 60
        E 0 90 60 60
        E 0 90 64 60
        E 30 80 18 00
        E 0 80 22 00
        E 0 80 40 00
        E 0 80 48 00
        E 0 80 4c 00
        E 0 80 54 00
        E 0 80 58 00
        E 0 80 60 00
        E 0 80 64 00
        E 130 90 1f 60
        E 0 90 62 60
        E 30 80 1f 00
        E 0 80 62 00
        E 50 90 1a 60
        E 0 90 55 60
        E 0 90 61 60
        E 30 80 1a 00
        E 0 80 55 00
        E 0 80 61 00
        E 50 90 18 60
        E 0 90 1f 60
        E 0 90 60 60
        E 0 90 62 60
        E 30 80 18 00
        E 0 80 1f 00
        E 0 80 60 00
        E 0 80 62 00
        E 49 90 18 60
        E 0 90 60 60
        E 30 80 18 00
        E 0 80 60 00
        E 51 90 1a 60
        E 0 90 24 60
        E 0 90 3d 60
        E 0 90 49 60
        E 0 90 4c 60
        E 0 90 55 60
        E 0 90 58 60
        E 0 90 61 60
        E 0 90 64 60
        E 30 80 1a 00
        E 0 80 24 00
        E 0 80 3d 00
        E 0 80 49 00
        E 0 80 4c 00
        E 0 80 55 00
        E 0 80 58 00
        E 0 80 61 00
        E 0 80 64 00
        E 130 90 1e 60
        E 0 90 62 60
        E 30 80 1e 00
        E 0 80 62 00
        E 50 90 1b 60
        E 0 90 55 60
        E 0 90 61 60
        E 30 80 1b 00
        E 0 80 55 00
        E 0 80 61 00
        E 50 90 18 60
        E 0 90 1e 60
        E 0 90 60 60
        E 0 90 62 60
        E 30 80 18 00
        E 0 80 1e 00
        E 0 80 60 00
        E 0 80 62 00
        E 130 90 18 60
        E 0 90 1f 60
        E 0 90 3e 60
        E 0 90 48 60
        E 0 90 4a 60
        E 0 90 54 60
        E 0 90 56 60
        E 0 90 60 60
        E 0 90 62 60
        E 30 80 18 00
        E 0 80 1f 00
        E 0 80 3e 00
        E 0 80 48 00
        E 0 80 4a 00
        E 0 80 54 00
        E 0 80 56 00
        E 0 80 60 00
        E 0 80 62 00
        E 130 90 1e 60
        E 0 90 62 60
        E 30 80 1e 00
        E 0 80 62 00
        E 50 90 1b 60
        E 0 90 55 60
        E 0 90 61 60
        E 30 80 1b 00
        E 0 80 55 00
        E 0 80 61 00
        E 50 90 18 60
        E 0 90 1e 60
        E 0 90 60 60
        E 0 90 62 60
        E 30 80 18 00
        E 0 80 1e 00
        E 0 80 60 00
        E 0 80 62 00
        E 50 90 18 60
        E 0 90 60 60
        E 30 80 18 00
        E 0 80 60 00
        E 50 90 1a 60
        E 0 90 1f 60
        E 0 90 3d 60
        E 0 90 49 60
        E 0 90 4a 60
        E 0 90 55 60
        E 0 90 56 60
        E 0 90 61 60
        E 0 90 62 60
        E 30 80 1a 00
        E 0 80 1f 00
        E 0 80 3d 00
        E 0 80 49 00
        E 0 80 4a 00
        E 0 80 55 00
        E 0 80 56 00
        E 0 80 61 00
        E 0 80 62 00
        E 130 90 18 60
        E 0 90 1e 60
        E 0 90 60 60
        E 0 90 62 60
        E 30 80 18 00
        E 0 80 1e 00
        E 0 80 60 00
        E 0 80 62 00
        E 50 90 1b 60
        E 0 90 55 60
        E 0 90 61 60
        E 30 80 1b 00
        E 0 80 55 00
        E 0 80 61 00
        E 50 90 1e 60
        E 0 90 62 60
        E 30 80 1e 00
        E 0 80 62 00
        E 130 90 18 60
        E 0 90 1f 60
        E 0 90 3e 60
        E 0 90 48 60
        E 0 90 4a 60
        E 0 90 54 60
        E 0 90 56 60
        E 0 90 60 60
        E 0 90 62 60
        E 30 80 18 00
        E 0 80 1f 00
        E 0 80 3e 00
        E 0 80 48 00
        E 0 80 4a 00
        E 0 80 54 00
        E 0 80 56 00
        E 0 80 60 00
        E 0 80 62 00
        E 130 90 1e 60
        E 0 90 62 60
        E 30 80 1e 00
        E 0 80 62 00
        E 50 90 1b 60
        E 0 90 55 60
        E 0 90 61 60
        E 30 80 1b 00
        E 0 80 55 00
        E 0 80 61 00
        E 50 90 18 60
        E 0 90 1e 60
        E 0 90 60 60
        E 0 90 62 60
        E 30 80 18 00
        E 0 80 1e 00
        E 0 80 60 00
        E 0 80 62 00
        E 50 90 18 60
        E 0 90 60 60
        E 30 80 18 00
        E 0 80 60 00
        E 50 90 1a 60
        E 0 90 1f 60
        E 0 90 3d 60
        E 0 90 49 60
        E 0 90 4a 60
        E 0 90 55 60
        E 0 90 56 60
        E 0 90 61 60
        E 0 90 62 60
        E 30 80 1a 00
        E 0 80 1f 00
        E 0 80 3d 00
        E 0 80 49 00
        E 0 80 4a 00
        E 0 80 55 00
        E 0 80 56 00
        E 0 80 61 00
        E 0 80 62 00
        E 130 90 1e 60
        E 0 90 62 60
        E 30 80 1e 00
        E 0 80 62 00
        E 50 90 1b 60
        E 0 90 55 60
        E 0 90 61 60
        E 30 80 1b 00
        E 0 80 55 00
        E 0 80 61 00
        E 50 90 18 60
        E 0 90 1e 60
        E 0 90 60 60
        E 0 90 62 60
        E 30 80 18 00
        E 0 80 1e 00
        E 0 80 60 00
        E 0 80 62 00
        E 130 90 18 60
        E 0 90 1f 60
        E 0 90 3e 60
        E 0 90 48 60
        E 0 90 4a 60
        E 0 90 54 60
        E 0 90 56 60
        E 0 90 60 60
        E 0 90 62 60
        E 30 80 18 00
        E 0 80 1f 00
        E 0 80 3e 00
        E 0 80 48 00
        E 0 80 4a 00
        E 0 80 54 00
        E 0 80 56 00
        E 0 80 60 00
        E 0 80 62 00
        E 50 90 1a 60
        E 0 90 61 60
        E 30 80 1a 00
        E 0 80 61 00
        E 50 90 1b 60
        E 0 90 61 60
        E 30 80 1b 00
        E 0 80 61 00
        E 50 90 1a 60
        E 0 90 55 60
        E 0 90 61 60
        E 30 80 1a 00
        E 0 80 55 00
        E 0 80 61 00
        E 50 90 1b 60
        E 0 90 61 60
        E 30 80 1b 00
        E 0 80 61 00
        E 50 90 1a 60
        E 0 90 61 60
        E 30 80 1a 00
        E 0 80 61 00
        E 50 90 1b 60
        E 0 90 3d 60
        E 0 90 49 60
        E 0 90 55 60
        E 0 90 61 60
        E 30 80 1b 00
        E 0 80 3d 00
        E 0 80 49 00
        E 0 80 55 00
        E 0 80 61 00
        E 50 90 1a 60
        E 0 90 61 60
        E 30 80 1a 00
        E 0 80 61 00
        E 50 90 18 60
        E 0 90 24 60
        E 0 90 60 60
        E 0 90 64 60
        E 30 80 18 00
        E 0 80 24 00
        E 0 80 60 00
        E 0 80 64 00
        E 50 90 2b 60
        E 0 90 57 60
        E 0 90 63 60
        E 30 80 2b 00
        E 0 80 57 00
        E 0 80 63 00
        E 50 90 18 60
        E 0 90 24 60
        E 0 90 60 60
        E 0 90 64 60
        E 30 80 18 00
        E 0 80 24 00
        E 0 80 60 00
        E 0 80 64 00
        E 50 90 2b 60
        E 0 90 63 60
        E 30 80 2b 00
        E 0 80 63 00
        E 50 90 18 60
        E 0 90 24 60
        E 0 90 40 60
        E 0 90 48 60
        E 0 90 4c 60
        E 0 90 54 60
        E 0 90 58 60
        E 0 90 60 60
        E 0 90 64 60
        E 0 90 74 60
        E 30 80 18 00
        E 0 80 24 00
        E 0 80 40 00
        E 0 80 48 00
        E 0 80 4c 00
        E 0 80 54 00
        E 0 80 58 00
        E 0 80 60 00
        E 0 80 64 00
        E 130 90 1e 60
        E 0 90 62 60
        E 30 80 1e 00
        E 0 80 62 00
        E 50 90 1b 60
        E 0 90 55 60
        E 0 90 61 60
        E 30 80 1b 00
        E 0 80 55 00
        E 0 80 61 00
        E 50 90 18 60
        E 0 90 1e 60
        E 0 90 60 60
        E 0 90 62 60
        E 30 80 18 00
        E 0 80 1e 00
        E 0 80 60 00
        E 0 80 62 00
        E 50 90 18 60
        E 0 90 60 60
        E 30 80 18 00
        E 0 80 60 00
        E 50 90 1a 60
        E 0 90 1f 60
        E 0 90 3d 60
        E 0 90 49 60
        E 0 90 4a 60
        E 0 90 55 60
        E 0 90 56 60
        E 0 90 61 60
        E 0 90 62 60
        E 30 80 1a 00
        E 0 80 1f 00
        E 0 80 3d 00
        E 0 80 49 00
        E 0 80 4a 00
        E 0 80 55 00
        E 0 80 56 00
        E 0 80 61 00
        E 0 80 62 00
        E 130 90 1e 60
        E 0 90 62 60
        E 30 80 1e 00
        E 0 80 62 00
        E 50 90 1b 60
        E 0 90 55 60
        E 0 90 61 60
        E 30 80 1b 00
        E 0 80 55 00
        E 0 80 61 00
        E 50 90 18 60
        E 0 90 1e 60
        E 0 90 60 60
        E 0 90 62 60
        E 30 80 18 00
        E 0 80 1e 00
        E 0 80 60 00
        E 0 80 62 00
        E 130 90 18 60
        E 0 90 1f 60
        E 0 90 3e 60
        E 0 90 48 60
        E 0 90 4a 60
        E 0 90 54 60
        E 0 90 56 60
        E 0 90 60 60
        E 0 90 62 60
        E 30 80 18 00
        E 0 80 1f 00
        E 0 80 3e 00
        E 0 80 48 00
        E 0 80 4a 00
        E 0 80 54 00
        E 0 80 56 00
        E 0 80 60 00
        E 0 80 62 00
        E 130 90 1e 60
        E 0 90 62 60
        E 30 80 1e 00
        E 0 80 62 00
        E 50 90 1b 60
        E 0 90 55 60
        E 0 90 61 60
        E 30 80 1b 00
        E 0 80 55 00
        E 0 80 61 00
        E 50 90 18 60
        E 0 90 1e 60
        E 0 90 60 60
        E 0 90 62 60
        E 30 80 18 00
        E 0 80 1e 00
        E 0 80 60 00
        E 0 80 62 00
        E 50 90 18 60
        E 0 90 60 60
        E 30 80 18 00
        E 0 80 60 00
        E 50 90 1a 60
        E 0 90 1f 60
        E 0 90 3d 60
        E 0 90 49 60
        E 0 90 4a 60
        E 0 90 55 60
        E 0 90 56 60
        E 0 90 61 60
        E 0 90 62 60
        E 30 80 1a 00
        E 0 80 1f 00
        E 0 80 3d 00
        E 0 80 49 00
        E 0 80 4a 00
        E 0 80 55 00
        E 0 80 56 00
        E 0 80 61 00
        E 0 80 62 00
        E 130 90 18 60
        E 0 90 1e 60
        E 0 90 60 60
        E 0 90 62 60
        E 30 80 18 00
        E 0 80 1e 00
        E 0 80 60 00
        E 0 80 62 00
        E 50 90 1b 60
        E 0 90 55 60
        E 0 90 61 60
        E 30 80 1b 00
        E 0 80 55 00
        E 0 80 61 00
        E 50 90 1e 60
        E 0 90 62 60
        E 30 80 1e 00
        E 0 80 62 00
        E 130 80 74 00
        E 0 90 18 60
        E 0 90 24 60
        E 0 90 40 60
        E 0 90 48 60
        E 0 90 4c 60
        E 0 90 54 60
        E 0 90 58 60
        E 0 90 60 60
        E 0 90 64 60
        E 30 80 18 00
        E 0 80 24 00
        E 0 80 40 00
        E 0 80 48 00
        E 0 80 4c 00
        E 0 80 54 00
        E 0 80 58 00
        E 0 80 60 00
        E 0 80 64 00
        E 130 90 1e 60
        E 0 90 62 60
        E 30 80 1e 00
        E 0 80 62 00
        E 50 90 1b 60
        E 0 90 55 60
        E 0 90 61 60
        E 30 80 1b 00
        E 0 80 55 00
        E 0 80 61 00
        E 50 90 18 60
        E 0 90 1e 60
        E 0 90 60 60
        E 0 90 62 60
        E 30 80 18 00
        E 0 80 1e 00
        E 0 80 60 00
        E 0 80 62 00
        E 50 90 18 60
        E 0 90 60 60
        E 30 80 18 00
        E 0 80 60 00
        E 50 90 1a 60
        E 0 90 1f 60
        E 0 90 3d 60
        E 0 90 49 60
        E 0 90 4a 60
        E 0 90 55 60
        E 0 90 56 60
        E 0 90 61 60
        E 0 90 62 60
        E 30 80 1a 00
        E 0 80 1f 00
        E 0 80 3d 00
        E 0 80 49 00
        E 0 80 4a 00
        E 0 80 55 00
        E 0 80 56 00
        E 0 80 61 00
        E 0 80 62 00
        E 130 90 1e 60
        E 0 90 62 60
        E 30 80 1e 00
        E 0 80 62 00
        E 50 90 1b 60
        E 0 90 55 60
        E 0 90 61 60
        E 30 80 1b 00
        E 0 80 55 00
        E 0 80 61 00
        E 50 90 18 60
        E 0 90 1e 60
        E 0 90 60 60
        E 0 90 62 60
        E 30 80 18 00
        E 0 80 1e 00
        E 0 80 60 00
        E 0 80 62 00
        E 130 90 18 60
        E 0 90 1f 60
        E 0 90 3e 60
        E 0 90 48 60
        E 0 90 4a 60
        E 0 90 54 60
        E 0 90 56 60
        E 0 90 60 60
        E 0 90 62 60
        E 30 80 18 00
        E 0 80 1f 00
        E 0 80 3e 00
        E 0 80 48 00
        E 0 80 4a 00
        E 0 80 54 00
        E 0 80 56 00
        E 0 80 60 00
        E 0 80 62 00
        E 50 90 1a 60
        E 0 90 61 60
        E 30 80 1a 00
        E 0 80 61 00
        E 50 90 1b 60
        E 0 90 61 60
        E 30 80 1b 00
        E 0 80 61 00
        E 23 90 1a 60
        E 0 90 61 60
        E 30 80 1a 00
        E 0 80 61 00
        E 24 90 1b 60
        E 0 90 61 60
        E 30 80 1b 00
        E 0 80 61 00
        E 23 90 1a 60
        E 0 90 61 60
        E 30 80 1a 00
        E 0 80 61 00
        E 50 90 1b 60
        E 0 90 61 60
        E 30 80 1b 00
        E 0 80 61 00
        E 50 90 18 60
        E 0 90 22 60
        E 0 90 40 60
        E 0 90 48 60
        E 0 90 4c 60
        E 0 90 54 60
        E 0 90 58 60
        E 0 90 60 60
        E 0 90 64 60
        E 30 80 18 00
        E 0 80 22 00
        E 0 80 40 00
        E 0 80 48 00
        E 0 80 4c 00
        E 0 80 54 00
        E 0 80 58 00
        E 0 80 60 00
        E 0 80 64 00
        E 50 90 1b 60
        E 0 90 61 60
        E 30 80 1b 00
        E 0 80 61 00
        E 50 90 1a 60
        E 0 90 61 60
        E 30 80 1a 00
        E 0 80 61 00
        E 50 90 1b 60
        E 0 90 55 60
        E 0 90 61 60
        E 30 80 1b 00
        E 0 80 55 00
        E 0 80 61 00
        E 50 90 1a 60
        E 0 90 61 60
        E 30 80 1a 00
        E 0 80 61 00
        E 50 90 1b 60
        E 0 90 61 60
        E 30 80 1b 00
        E 0 80 61 00
        E 50 90 18 60
        E 0 90 22 60
        E 0 90 40 60
        E 0 90 48 60
        E 0 90 4c 60
        E 0 90 54 60
        E 0 90 58 60
        E 0 90 60 60
        E 0 90 64 60
        E 30 80 18 00
        E 0 80 22 00
        E 0 80 40 00
        E 0 80 48 00
        E 0 80 4c 00
        E 0 80 54 00
        E 0 80 58 00
        E 0 80 60 00
        E 0 80 64 00
        E 929 90 78 60
        E 0 90 79 60
        E 0 90 7a 60
        E 0 90 7b 60
        E 0 90 7c 60
        E 961 80 78 00
        E 0 80 79 00
        E 0 80 7a 00
        E 0 80 7b 00
        E 0 80 7c 00
        E 0 90 2e 60
        E 0 90 31 60
        E 0 90 3e 60
        E 0 90 3f 60
        E 0 90 4a 60
        E 0 90 4b 60
        E 0 90 56 60
        E 0 90 57 60
        E 0 90 62 60
        E 0 90 63 60
        E 0 90 6e 60
        E 0 90 6f 60
        E 30 80 2e 00
        E 0 80 31 00
        E 0 80 3e 00
        E 0 80 3f 00
        E 0 80 4a 00
        E 0 80 4b 00
        E 0 80 56 00
        E 0 80 57 00
        E 0 80 62 00
        E 0 80 63 00
        E 0 80 6e 00
        E 0 80 6f 00
        E 130 90 2e 60
        E 0 90 62 60
        E 0 90 6e 60
        E 30 80 2e 00
        E 0 80 62 00
        E 0 80 6e 00
        E 50 90 2f 60
        E 0 90 56 60
        E 0 90 62 60
        E 0 90 6e 60
        E 30 80 2f 00
        E 0 80 56 00
        E 0 80 62 00
        E 0 80 6e 00
        E 50 90 2e 60
        E 0 90 62 60
        E 0 90 6e 60
        E 30 80 2e 00
        E 0 80 62 00
        E 0 80 6e 00
        E 50 90 2f 60
        E 0 90 62 60
        E 0 90 6e 60
        E 30 80 2f 00
        E 0 80 62 00
        E 0 80 6e 00
        E 50 90 2e 60
        E 0 90 3e 60
        E 0 90 4a 60
        E 0 90 56 60
        E 0 90 62 60
        E 0 90 6e 60
        E 30 80 2e 00
        E 0 80 3e 00
        E 0 80 4a 00
        E 0 80 56 00
        E 0 80 62 00
        E 0 80 6e 00
        E 50 90 2f 60
        E 0 90 62 60
        E 0 90 6e 60
        E 30 80 2f 00
        E 0 80 62 00
        E 0 80 6e 00
        E 50 90 30 60
        E 0 90 63 60
        E 0 90 6f 60
        E 30 80 30 00
        E 0 80 63 00
        E 0 80 6f 00
        E 50 90 2f 60
        E 0 90 56 60
        E 0 90 62 60
        E 0 90 6e 60
        E 30 80 2f 00
        E 0 80 56 00
        E 0 80 62 00
        E 0 80 6e 00
        E 50 90 2e 60
        E 0 90 62 60
        E 0 90 6e 60
        E 30 80 2e 00
        E 0 80 62 00
        E 0 80 6e 00
        E 50 90 2f 60
        E 0 90 62 60
        E 0 90 6e 60
        E 30 80 2f 00
        E 0 80 62 00
        E 0 80 6e 00
        E 50 90 30 60
        E 0 90 3f 60
        E 0 90 4b 60
        E 0 90 57 60
        E 0 90 63 60
        E 0 90 6f 60
        E 30 80 30 00
        E 0 80 3f 00
        E 0 80 4b 00
        E 0 80 57 00
        E 0 80 63 00
        E 0 80 6f 00
        E 50 90 31 60
        E 0 90 63 60
        E 0 90 6f 60
        E 30 80 31 00
        E 0 80 63 00
        E 0 80 6f 00
        E 50 90 32 60
        E 0 90 64 60
        E 0 90 70 60
        E 30 80 32 00
        E 0 80 64 00
        E 0 80 70 00
        E 50 90 31 60
        E 0 90 57 60
        E 0 90 63 60
        E 0 90 6f 60
        E 30 80 31 00
        E 0 80 57 00
        E 0 80 63 00
        E 0 80 6f 00
        E 49 90 30 60
        E 0 90 63 60
        E 0 90 6f 60
        E 30 80 30 00
        E 0 80 63 00
        E 0 80 6f 00
        E 50 90 31 60
        E 0 90 63 60
        E 0 90 6f 60
        E 30 80 31 00
        E 0 80 63 00
        E 0 80 6f 00
        E 51 90 30 60
        E 0 90 3f 60
        E 0 90 4b 60
        E 0 90 57 60
        E 0 90 63 60
        E 0 90 6f 60
        E 30 80 30 00
        E 0 80 3f 00
        E 0 80 4b 00
        E 0 80 57 00
        E 0 80 63 00
        E 0 80 6f 00
        E 50 90 31 60
        E 0 90 63 60
        E 0 90 6f 60
        E 30 80 31 00
        E 0 80 63 00
        E 0 80 6f 00
        E 50 90 32 60
        E 0 90 64 60
        E 0 90 70 60
        E 30 80 32 00
        E 0 80 64 00
        E 0 80 70 00
        E 50 90 33 60
        E 0 90 58 60
        E 0 90 64 60
        E 0 90 70 60
        E 30 80 33 00
        E 0 80 58 00
        E 0 80 64 00
        E 0 80 70 00
        E 50 90 32 60
        E 0 90 64 60
        E 0 90 70 60
        E 30 80 32 00
        E 0 80 64 00
        E 0 80 70 00
        E 50 90 33 60
        E 0 90 64 60
        E 0 90 70 60
        E 30 80 33 00
        E 0 80 64 00
        E 0 80 70 00
        E 50 90 18 60
        E 0 90 32 60
        E 0 90 40 60
        E 0 90 4c 60
        E 0 90 54 60
        E 0 90 58 60
        E 0 90 60 60
        E 0 90 64 60
        E 0 90 70 60
        E 30 80 18 00
        E 0 80 32 00
        E 0 80 40 00
        E 0 80 4c 00
        E 0 80 54 00
        E 0 80 58 00
        E 0 80 60 00
        E 0 80 64 00
        E 0 80 70 00
        E 930 90 18 60
        E 0 90 1a 60
        E 0 90 31 60
        E 0 90 3d 60
        E 0 90 49 60
        E 0 90 4b 60
        E 0 90 54 60
        E 0 90 55 60
        E 0 90 57 60
        E 0 90 60 60
        E 0 90 61 60
        E 0 90 63 60
        E 0 90 6f 60
        E 30 80 18 00
        E 0 80 1a 00
        E 0 80 31 00
        E 0 80 3d 00
        E 0 80 49 00
        E 0 80 4b 00
        E 0 80 54 00
        E 0 80 55 00
        E 0 80 57 00
        E 0 80 60 00
        E 0 80 61 00
        E 0 80 63 00
        E 0 80 6f 00
        E 130 90 18 60
        E 0 90 1a 60
        E 0 90 31 60
        E 0 90 60 60
        E 0 90 61 60
        E 0 90 63 60
        E 0 90 6f 60
        E 30 80 18 00
        E 0 80 1a 00
        E 0 80 31 00
        E 0 80 60 00
        E 0 80 61 00
        E 0 80 63 00
        E 0 80 6f 00
        E 130 90 18 60
        E 0 90 1a 60
        E 0 90 31 60
        E 0 90 60 60
        E 0 90 61 60
        E 0 90 63 60
        E 0 90 6f 60
        E 30 80 18 00
        E 0 80 1a 00
        E 0 80 31 00
        E 0 80 60 00
        E 0 80 61 00
        E 0 80 63 00
        E 0 80 6f 00
        E 130 90 18 60
        E 0 90 1a 60
        E 0 90 31 60
        E 0 90 3d 60
        E 0 90 49 60
        E 0 90 4b 60
        E 0 90 54 60
        E 0 90 55 60
        E 0 90 57 60
        E 0 90 60 60
        E 0 90 61 60
        E 0 90 63 60
        E 0 90 6f 60
        E 30 80 18 00
        E 0 80 1a 00
        E 0 80 31 00
        E 0 80 3d 00
        E 0 80 49 00
        E 0 80 4b 00
        E 0 80 54 00
        E 0 80 55 00
        E 0 80 57 00
        E 0 80 60 00
        E 0 80 61 00
        E 0 80 63 00
        E 0 80 6f 00
        E 130 90 18 60
        E 0 90 1a 60
        E 0 90 31 60
        E 0 90 60 60
        E 0 90 61 60
        E 0 90 63 60
        E 0 90 6f 60
        E 30 80 18 00
        E 0 80 1a 00
        E 0 80 31 00
        E 0 80 60 00
        E 0 80 61 00
        E 0 80 63 00
        E 0 80 6f 00
        E 130 90 18 60
        E 0 90 1a 60
        E 0 90 31 60
        E 0 90 60 60
        E 0 90 61 60
        E 0 90 63 60
        E 0 90 6f 60
        E 30 80 18 00
        E 0 80 1a 00
        E 0 80 31 00
        E 0 80 60 00
        E 0 80 61 00
        E 0 80 63 00
        E 0 80 6f 00
        E 130 90 18 60
        E 0 90 1a 60
        E 0 90 31 60
        E 0 90 3d 60
        E 0 90 49 60
        E 0 90 4b 60
        E 0 90 54 60
        E 0 90 55 60
        E 0 90 57 60
        E 0 90 60 60
        E 0 90 61 60
        E 0 90 63 60
        E 0 90 6f 60
        E 30 80 18 00
        E 0 80 1a 00
        E 0 80 31 00
        E 0 80 3d 00
        E 0 80 49 00
        E 0 80 4b 00
        E 0 80 54 00
        E 0 80 55 00
        E 0 80 57 00
        E 0 80 60 00
        E 0 80 61 00
        E 0 80 63 00
        E 0 80 6f 00
        E 130 90 18 60
        E 0 90 1a 60
        E 0 90 31 60
        E 0 90 60 60
        E 0 90 61 60
        E 0 90 63 60
        E 0 90 6f 60
        E 30 80 18 00
        E 0 80 1a 00
        E 0 80 31 00
        E 0 80 60 00
        E 0 80 61 00
        E 0 80 63 00
        E 0 80 6f 00
        E 130 90 18 60
        E 0 90 1a 60
        E 0 90 31 60
        E 0 90 60 60
        E 0 90 61 60
        E 0 90 63 60
        E 0 90 6f 60
        E 30 80 18 00
        E 0 80 1a 00
        E 0 80 31 00
        E 0 80 60 00
        E 0 80 61 00
        E 0 80 63 00
        E 0 80 6f 00
        E 130 90 18 60
        E 0 90 1a 60
        E 0 90 31 60
        E 0 90 3d 60
        E 0 90 49 60
        E 0 90 4b 60
        E 0 90 54 60
        E 0 90 55 60
        E 0 90 57 60
        E 0 90 60 60
        E 0 90 61 60
        E 0 90 63 60
        E 0 90 6f 60
        E 30 80 18 00
        E 0 80 1a 00
        E 0 80 31 00
        E 0 80 3d 00
        E 0 80 49 00
        E 0 80 4b 00
        E 0 80 54 00
        E 0 80 55 00
        E 0 80 57 00
        E 0 80 60 00
        E 0 80 61 00
        E 0 80 63 00
        E 0 80 6f 00
        E 130 90 18 60
        E 0 90 1a 60
        E 0 90 31 60
        E 0 90 60 60
        E 0 90 61 60
        E 0 90 63 60
        E 0 90 6f 60
        E 30 80 18 00
        E 0 80 1a 00
        E 0 80 31 00
        E 0 80 60 00
        E 0 80 61 00
        E 0 80 63 00
        E 0 80 6f 00
        E 130 90 18 60
        E 0 90 1a 60
        E 0 90 31 60
        E 0 90 60 60
        E 0 90 61 60
        E 0 90 63 60
        E 0 90 6f 60
        E 30 80 18 00
        E 0 80 1a 00
        E 0 80 31 00
        E 0 80 60 00
        E 0 80 61 00
        E 0 80 63 00
        E 0 80 6f 00
        E 130 90 1b 60
        E 0 90 3d 60
        E 0 90 49 60
        E 0 90 55 60
        E 0 90 61 60
        E 0 90 78 60
        E 0 90 79 60
        E 0 90 7a 60
        E 0 90 7b 60
        E 0 90 7c 60
        E 30 80 1b 00
        E 0 80 3d 00
        E 0 80 49 00
        E 0 80 55 00
        E 0 80 61 00
        E 24 90 1a 60
        E 0 90 61 60
        E 30 80 1a 00
        E 0 80 61 00
        E 23 90 1b 60
        E 0 90 61 60
        E 30 80 1b 00
        E 0 80 61 00
        E 23 90 1a 60
        E 0 90 61 60
        E 30 80 1a 00
        E 0 80 61 00
        E 50 90 1b 60
        E 0 90 55 60
        E 0 90 61 60
        E 30 80 1b 00
        E 0 80 55 00
        E 0 80 61 00
        E 50 90 2e 60
        E 0 90 62 60
        E 0 90 6e 60
        E 30 80 2e 00
        E 0 80 62 00
        E 0 80 6e 00
        E 50 90 1b 60
        E 0 90 61 60
        E 30 80 1b 00
        E 0 80 61 00
        E 50 90 1a 60
        E 0 90 3d 60
        E 0 90 49 60
        E 0 90 55 60
        E 0 90 61 60
        E 30 80 1a 00
        E 0 80 3d 00
        E 0 80 49 00
        E 0 80 55 00
        E 0 80 61 00
        E 50 90 1b 60
        E 0 90 61 60
        E 30 80 1b 00
        E 0 80 61 00
        E 50 90 2e 60
        E 0 90 62 60
        E 0 90 6e 60
        E 30 80 2e 00
        E 0 80 62 00
        E 0 80 6e 00
        E 50 90 2f 60
        E 0 90 56 60
        E 0 90 62 60
        E 0 90 6e 60
        E 30 80 2f 00
        E 0 80 56 00
        E 0 80 62 00
        E 0 80 6e 00
        E 50 90 30 60
        E 0 90 63 60
        E 0 90 6f 60
        E 30 80 30 00
        E 0 80 63 00
        E 0 80 6f 00
        E 50 90 31 60
        E 0 90 63 60
        E 0 90 6f 60
        E 30 80 31 00
        E 0 80 63 00
        E 0 80 6f 00
        E 50 90 18 60
        E 0 90 22 60
        E 0 90 40 60
        E 0 90 48 60
        E 0 90 4c 60
        E 0 90 54 60
        E 0 90 58 60
        E 0 90 60 60
        E 0 90 64 60
        E 1 80 78 00
        E 0 80 79 00
        E 0 80 7a 00
        E 0 80 7b 00
        E 0 80 7c 00
        E 29 80 18 00
        E 0 80 22 00
        E 0 80 40 00
        E 0 80 48 00
        E 0 80 4c 00
        E 0 80 54 00
        E 0 80 58 00
        E 0 80 60 00
        E 0 80 64 00
        E 130 90 2a 60
        E 0 90 63 60
        E 30 80 2a 00
        E 0 80 63 00
        E 50 90 1a 60
        E 0 90 55 60
        E 0 90 61 60
        E 30 80 1a 00
        E 0 80 55 00
        E 0 80 61 00
        E 50 90 2a 60
        E 0 90 63 60
        E 30 80 2a 00
        E 0 80 63 00
        E 50 90 18 60
        E 0 90 60 60
        E 30 80 18 00
        E 0 80 60 00
        E 50 90 1a 60
        E 0 90 24 60
        E 0 90 3d 60
        E 0 90 49 60
        E 0 90 4c 60
        E 0 90 55 60
        E 0 90 58 60
        E 0 90 61 60
        E 0 90 64 60
        E 30 80 1a 00
        E 0 80 24 00
        E 0 80 3d 00
        E 0 80 49 00
        E 0 80 4c 00
        E 0 80 55 00
        E 0 80 58 00
        E 0 80 61 00
        E 0 80 64 00
        E 130 90 2b 60
        E 0 90 63 60
        E 30 80 2b 00
        E 0 80 63 00
        E 50 90 1b 60
        E 0 90 55 60
        E 0 90 61 60
        E 30 80 1b 00
        E 0 80 55 00
        E 0 80 61 00
        E 50 90 18 60
        E 0 90 2b 60
        E 0 90 60 60
        E 0 90 63 60
        E 30 80 18 00
        E 0 80 2b 00
        E 0 80 60 00
        E 0 80 63 00
        E 50 90 1b 60
        E 0 90 61 60
        E 30 80 1b 00
        E 0 80 61 00
        E 50 90 18 60
        E 0 90 2b 60
        E 0 90 3f 60
        E 0 90 48 60
        E 0 90 4b 60
        E 0 90 54 60
        E 0 90 57 60
        E 0 90 60 60
        E 0 90 63 60
        E 30 80 18 00
        E 0 80 2b 00
        E 0 80 3f 00
        E 0 80 48 00
        E 0 80 4b 00
        E 0 80 54 00
        E 0 80 57 00
        E 0 80 60 00
        E 0 80 63 00
        E 50 90 1b 60
        E 0 90 61 60
        E 30 80 1b 00
        E 0 80 61 00
        E 50 90 18 60
        E 0 90 2b 60
        E 0 90 60 60
        E 0 90 63 60
        E 30 80 18 00
        E 0 80 2b 00
        E 0 80 60 00
        E 0 80 63 00
        E 50 90 1b 60
        E 0 90 55 60
        E 0 90 61 60
        E 30 80 1b 00
        E 0 80 55 00
        E 0 80 61 00
        E 49 90 2b 60
        E 0 90 63 60
        E 30 80 2b 00
        E 0 80 63 00
        E 50 90 18 60
        E 0 90 60 60
        E 30 80 18 00
        E 0 80 60 00
        E 10 90 18 60
        E 0 90 60 60
        E 30 80 18 00
        E 0 80 60 00
        E 11 90 1a 60
        E 0 90 2a 60
        E 0 90 3d 60
        E 0 90 49 60
        E 0 90 4b 60
        E 0 90 55 60
        E 0 90 57 60
        E 0 90 61 60
        E 0 90 63 60
        E 30 80 1a 00
        E 0 80 2a 00
        E 0 80 3d 00
        E 0 80 49 00
        E 0 80 4b 00
        E 0 80 55 00
        E 0 80 57 00
        E 0 80 61 00
        E 0 80 63 00
        E 130 90 2b 60
        E 0 90 63 60
        E 30 80 2b 00
        E 0 80 63 00
        E 50 90 1b 60
        E 0 90 55 60
        E 0 90 61 60
        E 30 80 1b 00
        E 0 80 55 00
        E 0 80 61 00
        E 50 90 18 60
        E 0 90 2b 60
        E 0 90 60 60
        E 0 90 63 60
        E 30 80 18 00
        E 0 80 2b 00
        E 0 80 60 00
        E 0 80 63 00
        E 50 90 1b 60
        E 0 90 61 60
        E 30 80 1b 00
        E 0 80 61 00
        E 50 90 18 60
        E 0 90 2b 60
        E 0 90 3f 60
        E 0 90 48 60
        E 0 90 4b 60
        E 0 90 54 60
        E 0 90 57 60
        E 0 90 60 60
        E 0 90 63 60
        E 30 80 18 00
        E 0 80 2b 00
        E 0 80 3f 00
        E 0 80 48 00
        E 0 80 4b 00
        E 0 80 54 00
        E 0 80 57 00
        E 0 80 60 00
        E 0 80 63 00
        E 50 90 1b 60
        E 0 90 61 60
        E 30 80 1b 00
        E 0 80 61 00
        E 50 90 18 60
        E 0 90 2b 60
        E 0 90 60 60
        E 0 90 63 60
        E 30 80 18 00
        E 0 80 2b 00
        E 0 80 60 00
        E 0 80 63 00
        E 50 90 1b 60
        E 0 90 55 60
        E 0 90 61 60
        E 30 80 1b 00
        E 0 80 55 00
        E 0 80 61 00
        E 49 90 2b 60
        E 0 90 63 60
        E 30 80 2b 00
        E 0 80 63 00
        E 50 90 18 60
        E 0 90 60 60
        E 30 80 18 00
        E 0 80 60 00
        E 10 90 18 60
        E 0 90 60 60
        E 30 80 18 00
        E 0 80 60 00
        E 11 90 1a 60
        E 0 90 2a 60
        E 0 90 3d 60
        E 0 90 49 60
        E 0 90 4b 60
        E 0 90 55 60
        E 0 90 57 60
        E 0 90 61 60
        E 0 90 63 60
        E 30 80 1a 00
        E 0 80 2a 00
        E 0 80 3d 00
        E 0 80 49 00
        E 0 80 4b 00
        E 0 80 55 00
        E 0 80 57 00
        E 0 80 61 00
        E 0 80 63 00
        E 130 90 2b 60
        E 0 90 63 60
        E 30 80 2b 00
        E 0 80 63 00
        E 50 90 1b 60
        E 0 90 55 60
        E 0 90 61 60
        E 30 80 1b 00
        E 0 80 55 00
        E 0 80 61 00
        E 50 90 18 60
        E 0 90 2b 60
        E 0 90 60 60
        E 0 90 63 60
        E 30 80 18 00
        E 0 80 2b 00
        E 0 80 60 00
        E 0 80 63 00
        E 50 90 1b 60
        E 0 90 61 60
        E 30 80 1b 00
        E 0 80 61 00
        E 50 90 18 60
        E 0 90 2b 60
        E 0 90 3f 60
        E 0 90 48 60
        E 0 90 4b 60
        E 0 90 54 60
        E 0 90 57 60
        E 0 90 60 60
        E 0 90 63 60
        E 30 80 18 00
        E 0 80 2b 00
        E 0 80 3f 00
        E 0 80 48 00
        E 0 80 4b 00
        E 0 80 54 00
        E 0 80 57 00
        E 0 80 60 00
        E 0 80 63 00
        E 50 90 1b 60
        E 0 90 61 60
        E 30 80 1b 00
        E 0 80 61 00
        E 50 90 18 60
        E 0 90 2b 60
        E 0 90 60 60
        E 0 90 63 60
        E 30 80 18 00
        E 0 80 2b 00
        E 0 80 60 00
        E 0 80 63 00
        E 50 90 1b 60
        E 0 90 55 60
        E 0 90 61 60
        E 30 80 1b 00
        E 0 80 55 00
        E 0 80 61 00
        E 50 90 2b 60
        E 0 90 63 60
        E 30 80 2b 00
        E 0 80 63 00
        E 50 90 18 60
        E 0 90 60 60
        E 30 80 18 00
        E 0 80 60 00
        E 10 90 18 60
        E 0 90 60 60
        E 30 80 18 00
        E 0 80 60 00
        E 10 90 1a 60
        E 0 90 2a 60
        E 0 90 3d 60
        E 0 90 49 60
        E 0 90 4b 60
        E 0 90 55 60
        E 0 90 57 60
        E 0 90 61 60
        E 0 90 63 60
        E 30 80 1a 00
        E 0 80 2a 00
        E 0 80 3d 00
        E 0 80 49 00
        E 0 80 4b 00
        E 0 80 55 00
        E 0 80 57 00
        E 0 80 61 00
        E 0 80 63 00
        E 130 90 1a 60
        E 0 90 61 60
        E 30 80 1a 00
        E 0 80 61 00
        E 50 90 1b 60
        E 0 90 55 60
        E 0 90 61 60
        E 30 80 1b 00
        E 0 80 55 00
        E 0 80 61 00
        E 130 90 1a 60
        E 0 90 61 60
        E 30 80 1a 00
        E 0 80 61 00
        E 50 90 1b 60
        E 0 90 3d 60
        E 0 90 49 60
        E 0 90 55 60
        E 0 90 61 60
        E 30 80 1b 00
        E 0 80 3d 00
        E 0 80 49 00
        E 0 80 55 00
        E 0 80 61 00
        E 50 90 1a 60
        E 0 90 61 60
        E 30 80 1a 00
        E 0 80 61 00
        E 50 90 2f 60
        E 0 90 62 60
        E 0 90 6e 60
        E 30 80 2f 00
        E 0 80 62 00
        E 0 80 6e 00
        E 50 90 2e 60
        E 0 90 56 60
        E 0 90 62 60
        E 0 90 6e 60
        E 30 80 2e 00
        E 0 80 56 00
        E 0 80 62 00
        E 0 80 6e 00
        E 50 90 31 60
        E 0 90 63 60
        E 0 90 6f 60
        E 30 80 31 00
        E 0 80 63 00
        E 0 80 6f 00
        E 50 90 18 60
        E 0 90 60 60
        E 30 80 18 00
        E 0 80 60 00
        E 50 90 1a 60
        E 0 90 24 60
        E 0 90 3d 60
        E 0 90 49 60
        E 0 90 4c 60
        E 0 90 55 60
        E 0 90 58 60
        E 0 90 61 60
        E 0 90 64 60
        E 30 80 1a 00
        E 0 80 24 00
        E 0 80 3d 00
        E 0 80 49 00
        E 0 80 4c 00
        E 0 80 55 00
        E 0 80 58 00
        E 0 80 61 00
        E 0 80 64 00
        E 130 90 2b 60
        E 0 90 63 60
        E 30 80 2b 00
        E 0 80 63 00
        E 50 90 1b 60
        E 0 90 55 60
        E 0 90 61 60
        E 30 80 1b 00
        E 0 80 55 00
        E 0 80 61 00
        E 50 90 18 60
        E 0 90 2b 60
        E 0 90 60 60
        E 0 90 63 60
        E 30 80 18 00
        E 0 80 2b 00
        E 0 80 60 00
        E 0 80 63 00
        E 50 90 1b 60
        E 0 90 61 60
        E 30 80 1b 00
        E 0 80 61 00
        E 50 90 18 60
        E 0 90 2b 60
        E 0 90 3f 60
        E 0 90 48 60
        E 0 90 4b 60
        E 0 90 54 60
        E 0 90 57 60
        E 0 90 60 60
        E 0 90 63 60
        E 30 80 18 00
        E 0 80 2b 00
        E 0 80 3f 00
        E 0 80 48 00
        E 0 80 4b 00
        E 0 80 54 00
        E 0 80 57 00
        E 0 80 60 00
        E 0 80 63 00
        E 50 90 1b 60
        E 0 90 61 60
        E 30 80 1b 00
        E 0 80 61 00
        E 50 90 18 60
        E 0 90 2b 60
        E 0 90 60 60
        E 0 90 63 60
        E 30 80 18 00
        E 0 80 2b 00
        E 0 80 60 00
        E 0 80 63 00
        E 50 90 1b 60
        E 0 90 55 60
        E 0 90 61 60
        E 30 80 1b 00
        E 0 80 55 00
        E 0 80 61 00
        E 49 90 2b 60
        E 0 90 63 60
        E 30 80 2b 00
        E 0 80 63 00
        E 50 90 18 60
        E 0 90 60 60
        E 30 80 18 00
        E 0 80 60 00
        E 10 90 18 60
        E 0 90 60 60
        E 30 80 18 00
        E 0 80 60 00
        E 11 90 1a 60
        E 0 90 2a 60
        E 0 90 3d 60
        E 0 90 49 60
        E 0 90 4b 60
        E 0 90 55 60
        E 0 90 57 60
        E 0 90 61 60
        E 0 90 63 60
        E 30 80 1a 00
        E 0 80 2a 00
        E 0 80 3d 00
        E 0 80 49 00
        E 0 80 4b 00
        E 0 80 55 00
        E 0 80 57 00
        E 0 80 61 00
        E 0 80 63 00
        E 130 90 2b 60
        E 0 90 63 60
        E 30 80 2b 00
        E 0 80 63 00
        E 50 90 1b 60
        E 0 90 55 60
        E 0 90 61 60
        E 30 80 1b 00
        E 0 80 55 00
        E 0 80 61 00
        E 50 90 18 60
        E 0 90 2b 60
        E 0 90 60 60
        E 0 90 63 60
        E 30 80 18 00
        E 0 80 2b 00
        E 0 80 60 00
        E 0 80 63 00
        E 50 90 1b 60
        E 0 90 61 60
        E 30 80 1b 00
        E 0 80 61 00
        E 50 90 18 60
        E 0 90 2b 60
        E 0 90 3f 60
        E 0 90 48 60
        E 0 90 4b 60
        E 0 90 54 60
        E 0 90 57 60
        E 0 90 60 60
        E 0 90 63 60
        E 30 80 18 00
        E 0 80 2b 00
        E 0 80 3f 00
        E 0 80 48 00
        E 0 80 4b 00
        E 0 80 54 00
        E 0 80 57 00
        E 0 80 60 00
        E 0 80 63 00
        E 50 90 1b 60
        E 0 90 61 60
        E 30 80 1b 00
        E 0 80 61 00
        E 50 90 1a 60
        E 0 90 61 60
        E 30 80 1a 00
        E 0 80 61 00
        E 23 90 1b 60
        E 0 90 61 60
        E 30 80 1b 00
        E 0 80 61 00
        E 23 90 1a 60
        E 0 90 61 60
        E 30 80 1a 00
        E 0 80 61 00
        E 24 90 1b 60
        E 0 90 61 60
        E 30 80 1b 00
        E 0 80 61 00
        E 23 90 1a 60
        E 0 90 61 60
        E 30 80 1a 00
        E 0 80 61 00
        E 23 90 1b 60
        E 0 90 61 60
        E 30 80 1b 00
        E 0 80 61 00
        E 24 90 18 60
        E 0 90 22 60
        E 0 90 40 60
        E 0 90 48 60
        E 0 90 4c 60
        E 0 90 54 60
        E 0 90 58 60
        E 0 90 60 60
        E 0 90 64 60
        E 30 80 18 00
        E 0 80 22 00
        E 0 80 40 00
        E 0 80 48 00
        E 0 80 4c 00
        E 0 80 54 00
        E 0 80 58 00
        E 0 80 60 00
        E 0 80 64 00
        E 50 90 1b 60
        E 0 90 61 60
        E 30 80 1b 00
        E 0 80 61 00
        E 50 90 1a 60
        E 0 90 61 60
        E 30 80 1a 00
        E 0 80 61 00
        E 23 90 1b 60
        E 0 90 61 60
        E 30 80 1b 00
        E 0 80 61 00
        E 24 90 1a 60
        E 0 90 61 60
        E 30 80 1a 00
        E 0 80 61 00
        E 23 90 1b 60
        E 0 90 61 60
        E 30 80 1b 00
        E 0 80 61 00
        E 24 90 1a 60
        E 0 90 61 60
        E 30 80 1a 00
        E 0 80 61 00
        E 23 90 1b 60
        E 0 90 61 60
        E 30 80 1b 00
        E 0 80 61 00
        E 23 90 18 60
        E 0 90 22 60
        E 0 90 40 60
        E 0 90 48 60
        E 0 90 4c 60
        E 0 90 54 60
        E 0 90 58 60
        E 0 90 60 60
        E 0 90 64 60
        E 30 80 18 00
        E 0 80 22 00
        E 0 80 40 00
        E 0 80 48 00
        E 0 80 4c 00
        E 0 80 54 00
        E 0 80 58 00
        E 0 80 60 00
        E 0 80 64 00
        E 50 90 1b 60
        E 0 90 61 60
        E 30 80 1b 00
        E 0 80 61 00
        E 50 90 1a 60
        E 0 90 61 60
        E 30 80 1a 00
        E 0 80 61 00
        E 24 90 1b 60
        E 0 90 61 60
        E 30 80 1b 00
        E 0 80 61 00
        E 23 90 1a 60
        E 0 90 61 60
        E 30 80 1a 00
        E 0 80 61 00
        E 23 90 1b 60
        E 0 90 61 60
        E 30 80 1b 00
        E 0 80 61 00
        E 23 90 1a 60
        E 0 90 61 60
        E 30 80 1a 00
        E 0 80 61 00
        E 24 90 1b 60
        E 0 90 61 60
        E 30 80 1b 00
        E 0 80 61 00
        E 23 90 18 60
        E 0 90 22 60
        E 0 90 40 60
        E 0 90 48 60
        E 0 90 4c 60
        E 0 90 54 60
        E 0 90 58 60
        E 0 90 60 60
        E 0 90 64 60
        E 30 80 18 00
        E 0 80 22 00
        E 0 80 40 00
        E 0 80 48 00
        E 0 80 4c 00
        E 0 80 54 00
        E 0 80 58 00
        E 0 80 60 00
        E 0 80 64 00
        E 50 90 1b 60
        E 0 90 61 60
        E 30 80 1b 00
        E 0 80 61 00
        E 50 90 1a 60
        E 0 90 61 60
        E 30 80 1a 00
        E 0 80 61 00
        E 50 90 1b 60
        E 0 90 55 60
        E 0 90 61 60
        E 30 80 1b 00
        E 0 80 55 00
        E 0 80 61 00
        E 130 90 1a 60
        E 0 90 61 60
        E 30 80 1a 00
        E 0 80 61 00
        E 50 90 18 60
        E 0 90 24 60
        E 0 90 40 60
        E 0 90 48 60
        E 0 90 4c 60
        E 0 90 54 60
        E 0 90 58 60
        E 0 90 60 60
        E 0 90 64 60
        E 30 80 18 00
        E 0 80 24 00
        E 0 80 40 00
        E 0 80 48 00
        E 0 80 4c 00
        E 0 80 54 00
        E 0 80 58 00
        E 0 80 60 00
        E 0 80 64 00
        E 130 90 2b 60
        E 0 90 63 60
        E 30 80 2b 00
        E 0 80 63 00
        E 50 90 1b 60
        E 0 90 55 60
        E 0 90 61 60
        E 30 80 1b 00
        E 0 80 55 00
        E 0 80 61 00
        E 50 90 18 60
        E 0 90 2b 60
        E 0 90 60 60
        E 0 90 63 60
        E 30 80 18 00
        E 0 80 2b 00
        E 0 80 60 00
        E 0 80 63 00
        E 130 90 1a 60
        E 0 90 24 60
        E 0 90 3d 60
        E 0 90 49 60
        E 0 90 4c 60
        E 0 90 55 60
        E 0 90 58 60
        E 0 90 61 60
        E 0 90 64 60
        E 30 80 1a 00
        E 0 80 24 00
        E 0 80 3d 00
        E 0 80 49 00
        E 0 80 4c 00
        E 0 80 55 00
        E 0 80 58 00
        E 0 80 61 00
        E 0 80 64 00
        E 130 90 2b 60
        E 0 90 63 60
        E 30 80 2b 00
        E 0 80 63 00
        E 50 90 1b 60
        E 0 90 55 60
        E 0 90 61 60
        E 30 80 1b 00
        E 0 80 55 00
        E 0 80 61 00
        E 50 90 18 60
        E 0 90 2b 60
        E 0 90 60 60
        E 0 90 63 60
        E 30 80 18 00
        E 0 80 2b 00
        E 0 80 60 00
        E 0 80 63 00
        E 50 90 1b 60
        E 0 90 61 60
        E 30 80 1b 00
        E 0 80 61 00
        E 50 90 18 60
        E 0 90 2b 60
        E 0 90 3f 60
        E 0 90 48 60
        E 0 90 4b 60
        E 0 90 54 60
        E 0 90 57 60
        E 0 90 60 60
        E 0 90 63 60
        E 30 80 18 00
        E 0 80 2b 00
        E 0 80 3f 00
        E 0 80 48 00
        E 0 80 4b 00
        E 0 80 54 00
        E 0 80 57 00
        E 0 80 60 00
        E 0 80 63 00
        E 50 90 1b 60
        E 0 90 61 60
        E 30 80 1b 00
        E 0 80 61 00
        E 50 90 18 60
        E 0 90 2b 60
        E 0 90 60 60
        E 0 90 63 60
        E 30 80 18 00
        E 0 80 2b 00
        E 0 80 60 00
        E 0 80 63 00
        E 50 90 1b 60
        E 0 90 55 60
        E 0 90 61 60
        E 30 80 1b 00
        E 0 80 55 00
        E 0 80 61 00
        E 49 90 2b 60
        E 0 90 63 60
        E 30 80 2b 00
        E 0 80 63 00
        E 50 90 18 60
        E 0 90 60 60
        E 30 80 18 00
        E 0 80 60 00
        E 10 90 18 60
        E 0 90 60 60
        E 30 80 18 00
        E 0 80 60 00
        E 11 90 1a 60
        E 0 90 2a 60
        E 0 90 3d 60
        E 0 90 49 60
        E 0 90 4b 60
        E 0 90 55 60
        E 0 90 57 60
        E 0 90 61 60
        E 0 90 63 60
        E 30 80 1a 00
        E 0 80 2a 00
        E 0 80 3d 00
        E 0 80 49 00
        E 0 80 4b 00
        E 0 80 55 00
        E 0 80 57 00
        E 0 80 61 00
        E 0 80 63 00
        E 130 90 2b 60
        E 0 90 63 60
        E 30 80 2b 00
        E 0 80 63 00
        E 50 90 1b 60
        E 0 90 55 60
        E 0 90 61 60
        E 30 80 1b 00
        E 0 80 55 00
        E 0 80 61 00
        E 50 90 18 60
        E 0 90 2b 60
        E 0 90 60 60
        E 0 90 63 60
        E 30 80 18 00
        E 0 80 2b 00
        E 0 80 60 00
        E 0 80 63 00
        E 50 90 1b 60
        E 0 90 61 60
        E 30 80 1b 00
        E 0 80 61 00
        E 50 90 18 60
        E 0 90 2b 60
        E 0 90 3f 60
        E 0 90 48 60
        E 0 90 4b 60
        E 0 90 54 60
        E 0 90 57 60
        E 0 90 60 60
        E 0 90 63 60
        E 30 80 18 00
        E 0 80 2b 00
        E 0 80 3f 00
        E 0 80 48 00
        E 0 80 4b 00
        E 0 80 54 00
        E 0 80 57 00
        E 0 80 60 00
        E 0 80 63 00
        E 50 90 1b 60
        E 0 90 61 60
        E 30 80 1b 00
        E 0 80 61 00
        E 50 90 18 60
        E 0 90 2b 60
        E 0 90 60 60
        E 0 90 63 60
        E 30 80 18 00
        E 0 80 2b 00
        E 0 80 60 00
        E 0 80 63 00
        E 50 90 1b 60
        E 0 90 55 60
        E 0 90 61 60
        E 30 80 1b 00
        E 0 80 55 00
        E 0 80 61 00
        E 49 90 2b 60
        E 0 90 63 60
        E 30 80 2b 00
        E 0 80 63 00
        E 50 90 18 60
        E 0 90 60 60
        E 30 80 18 00
        E 0 80 60 00
        E 10 90 18 60
        E 0 90 60 60
        E 30 80 18 00
        E 0 80 60 00
        E 11 90 1a 60
        E 0 90 2a 60
        E 0 90 3d 60
        E 0 90 49 60
        E 0 90 4b 60
        E 0 90 55 60
        E 0 90 57 60
        E 0 90 61 60
        E 0 90 63 60
        E 0 90 74 60
        E 30 80 1a 00
        E 0 80 2a 00
        E 0 80 3d 00
        E 0 80 49 00
        E 0 80 4b 00
        E 0 80 55 00
        E 0 80 57 00
        E 0 80 61 00
        E 0 80 63 00
        E 130 90 2b 60
        E 0 90 63 60
        E 30 80 2b 00
        E 0 80 63 00
        E 50 90 1b 60
        E 0 90 55 60
        E 0 90 61 60
        E 30 80 1b 00
        E 0 80 55 00
        E 0 80 61 00
        E 50 90 18 60
        E 0 90 2b 60
        E 0 90 60 60
        E 0 90 63 60
        E 30 80 18 00
        E 0 80 2b 00
        E 0 80 60 00
        E 0 80 63 00
        E 50 90 1b 60
        E 0 90 61 60
        E 30 80 1b 00
        E 0 80 61 00
        E 50 90 18 60
        E 0 90 2b 60
        E 0 90 3f 60
        E 0 90 48 60
        E 0 90 4b 60
        E 0 90 54 60
        E 0 90 57 60
        E 0 90 60 60
        E 0 90 63 60
        E 30 80 18 00
        E 0 80 2b 00
        E 0 80 3f 00
        E 0 80 48 00
        E 0 80 4b 00
        E 0 80 54 00
        E 0 80 57 00
        E 0 80 60 00
        E 0 80 63 00
        E 50 90 1b 60
        E 0 90 61 60
        E 30 80 1b 00
        E 0 80 61 00
        E 50 90 18 60
        E 0 90 2b 60
        E 0 90 60 60
        E 0 90 63 60
        E 30 80 18 00
        E 0 80 2b 00
        E 0 80 60 00
        E 0 80 63 00
        E 50 90 1b 60
        E 0 90 55 60
        E 0 90 61 60
        E 30 80 1b 00
        E 0 80 55 00
        E 0 80 61 00
        E 49 90 2b 60
        E 0 90 63 60
        E 30 80 2b 00
        E 0 80 63 00
        E 50 90 18 60
        E 0 90 60 60
        E 30 80 18 00
        E 0 80 60 00
        E 10 90 18 60
        E 0 90 60 60
        E 30 80 18 00
        E 0 80 60 00
        E 11 90 1a 60
        E 0 90 2a 60
        E 0 90 3d 60
        E 0 90 49 60
        E 0 90 4b 60
        E 0 90 55 60
        E 0 90 57 60
        E 0 90 61 60
        E 0 90 63 60
        E 30 80 1a 00
        E 0 80 2a 00
        E 0 80 3d 00
        E 0 80 49 00
        E 0 80 4b 00
        E 0 80 55 00
        E 0 80 57 00
        E 0 80 61 00
        E 0 80 63 00
        E 130 90 1a 60
        E 0 90 61 60
        E 30 80 1a 00
        E 0 80 61 00
        E 50 90 1b 60
        E 0 90 55 60
        E 0 90 61 60
        E 30 80 1b 00
        E 0 80 55 00
        E 0 80 61 00
        E 50 90 1a 60
        E 0 90 61 60
        E 30 80 1a 00
        E 0 80 61 00
        E 49 90 1b 60
        E 0 90 61 60
        E 30 80 1b 00
        E 0 80 61 00
        E 51 90 1a 60
        E 0 90 3d 60
        E 0 90 49 60
        E 0 90 55 60
        E 0 90 61 60
        E 30 80 1a 00
        E 0 80 3d 00
        E 0 80 49 00
        E 0 80 55 00
        E 0 80 61 00
        E 50 90 1b 60
        E 0 90 61 60
        E 30 80 1b 00
        E 0 80 61 00
        E 50 90 2e 60
        E 0 90 62 60
        E 0 90 6e 60
        E 30 80 2e 00
        E 0 80 62 00
        E 0 80 6e 00
        E 50 90 2f 60
        E 0 90 56 60
        E 0 90 62 60
        E 0 90 6e 60
        E 30 80 2f 00
        E 0 80 56 00
        E 0 80 62 00
        E 0 80 6e 00
        E 50 90 30 60
        E 0 90 63 60
        E 0 90 6f 60
        E 30 80 30 00
        E 0 80 63 00
        E 0 80 6f 00
        E 50 90 18 60
        E 0 90 60 60
        E 30 80 18 00
        E 0 80 60 00
        E 50 80 74 00
        E 0 90 1a 60
        E 0 90 24 60
        E 0 90 3d 60
        E 0 90 49 60
        E 0 90 4c 60
        E 0 90 55 60
        E 0 90 58 60
        E 0 90 61 60
        E 0 90 64 60
        E 30 80 1a 00
        E 0 80 24 00
        E 0 80 3d 00
        E 0 80 49 00
        E 0 80 4c 00
        E 0 80 55 00
        E 0 80 58 00
        E 0 80 61 00
        E 0 80 64 00
        E 130 90 2b 60
        E 0 90 63 60
        E 30 80 2b 00
        E 0 80 63 00
        E 50 90 1b 60
        E 0 90 55 60
        E 0 90 61 60
        E 30 80 1b 00
        E 0 80 55 00
        E 0 80 61 00
        E 50 90 18 60
        E 0 90 2b 60
        E 0 90 60 60
        E 0 90 63 60
        E 30 80 18 00
        E 0 80 2b 00
        E 0 80 60 00
        E 0 80 63 00
        E 50 90 1b 60
        E 0 90 61 60
        E 30 80 1b 00
        E 0 80 61 00
        E 50 90 18 60
        E 0 90 2b 60
        E 0 90 3f 60
        E 0 90 48 60
        E 0 90 4b 60
        E 0 90 54 60
        E 0 90 57 60
        E 0 90 60 60
        E 0 90 63 60
        E 30 80 18 00
        E 0 80 2b 00
        E 0 80 3f 00
        E 0 80 48 00
        E 0 80 4b 00
        E 0 80 54 00
        E 0 80 57 00
        E 0 80 60 00
        E 0 80 63 00
        E 50 90 1b 60
        E 0 90 61 60
        E 30 80 1b 00
        E 0 80 61 00
        E 50 90 18 60
        E 0 90 2b 60
        E 0 90 60 60
        E 0 90 63 60
        E 30 80 18 00
        E 0 80 2b 00
        E 0 80 60 00
        E 0 80 63 00
        E 50 90 1b 60
        E 0 90 55 60
        E 0 90 61 60
        E 30 80 1b 00
        E 0 80 55 00
        E 0 80 61 00
        E 49 90 2b 60
        E 0 90 63 60
        E 30 80 2b 00
        E 0 80 63 00
        E 50 90 18 60
        E 0 90 60 60
        E 30 80 18 00
        E 0 80 60 00
        E 10 90 18 60
        E 0 90 60 60
        E 30 80 18 00
        E 0 80 60 00
        E 11 90 1a 60
        E 0 90 2a 60
        E 0 90 3d 60
        E 0 90 49 60
        E 0 90 4b 60
        E 0 90 55 60
        E 0 90 57 60
        E 0 90 61 60
        E 0 90 63 60
        E 0 90 78 60
        E 0 90 79 60
        E 0 90 7a 60
        E 0 90 7b 60
        E 0 90 7c 60
        E 30 80 1a 00
        E 0 80 2a 00
        E 0 80 3d 00
        E 0 80 49 00
        E 0 80 4b 00
        E 0 80 55 00
        E 0 80 57 00
        E 0 80 61 00
        E 0 80 63 00
        E 130 90 2b 60
        E 0 90 63 60
        E 30 80 2b 00
        E 0 80 63 00
        E 50 90 1b 60
        E 0 90 55 60
        E 0 90 61 60
        E 30 80 1b 00
        E 0 80 55 00
        E 0 80 61 00
        E 49 90 18 60
        E 0 90 2b 60
        E 0 90 60 60
        E 0 90 63 60
        E 30 80 18 00
        E 0 80 2b 00
        E 0 80 60 00
        E 0 80 63 00
        E 50 90 1b 60
        E 0 90 61 60
        E 30 80 1b 00
        E 0 80 61 00
        E 51 90 18 60
        E 0 90 2b 60
        E 0 90 3f 60
        E 0 90 48 60
        E 0 90 4b 60
        E 0 90 54 60
        E 0 90 57 60
        E 0 90 60 60
        E 0 90 63 60
        E 30 80 18 00
        E 0 80 2b 00
        E 0 80 3f 00
        E 0 80 48 00
        E 0 80 4b 00
        E 0 80 54 00
        E 0 80 57 00
        E 0 80 60 00
        E 0 80 63 00
        E 50 90 1b 60
        E 0 90 61 60
        E 30 80 1b 00
        E 0 80 61 00
        E 50 90 1a 60
        E 0 90 61 60
        E 30 80 1a 00
        E 0 80 61 00
        E 50 90 1b 60
        E 0 90 55 60
        E 0 90 61 60
        E 30 80 1b 00
        E 0 80 55 00
        E 0 80 61 00
        E 130 90 1a 60
        E 0 90 61 60
        E 30 80 1a 00
        E 0 80 61 00
        E 50 90 18 60
        E 0 90 24 60
        E 0 90 40 60
        E 0 90 48 60
        E 0 90 4c 60
        E 0 90 54 60
        E 0 90 58 60
        E 0 90 60 60
        E 0 90 64 60
        E 1 80 78 00
        E 0 80 79 00
        E 0 80 7a 00
        E 0 80 7b 00
        E 0 80 7c 00
        E 29 80 18 00
        E 0 80 24 00
        E 0 80 40 00
        E 0 80 48 00
        E 0 80 4c 00
        E 0 80 54 00
        E 0 80 58 00
        E 0 80 60 00
        E 0 80 64 00
        E 50 90 1a 60
        E 0 90 61 60
        E 30 80 1a 00
        E 0 80 61 00
        E 50 90 1b 60
        E 0 90 61 60
        E 30 80 1b 00
        E 0 80 61 00
        E 50 90 1a 60
        E 0 90 55 60
        E 0 90 61 60
        E 30 80 1a 00
        E 0 80 55 00
        E 0 80 61 00
        E 130 90 1b 60
        E 0 90 61 60
        E 30 80 1b 00
        E 0 80 61 00
        E 50 90 18 60
        E 0 90 22 60
        E 0 90 40 60
        E 0 90 48 60
        E 0 90 4c 60
        E 0 90 54 60
        E 0 90 58 60
        E 0 90 60 60
        E 0 90 64 60
        E 30 80 18 00
        E 0 80 22 00
        E 0 80 40 00
        E 0 80 48 00
        E 0 80 4c 00
        E 0 80 54 00
        E 0 80 58 00
        E 0 80 60 00
        E 0 80 64 00
        E 50 90 1b 60
        E 0 90 61 60
        E 30 80 1b 00
        E 0 80 61 00
        E 50 90 18 60
        E 0 90 1a 60
        E 0 90 60 60
        E 0 90 61 60
        E 30 80 18 00
        E 0 80 1a 00
        E 0 80 60 00
        E 0 80 61 00
        E 50 90 1b 60
        E 0 90 55 60
        E 0 90 61 60
        E 30 80 1b 00
        E 0 80 55 00
        E 0 80 61 00
        E 50 90 18 60
        E 0 90 60 60
        E 30 80 18 00
        E 0 80 60 00
        E 50 90 1a 60
        E 0 90 61 60
        E 30 80 1a 00
        E 0 80 61 00
        E 50 90 18 60
        E 0 90 1b 60
        E 0 90 3d 60
        E 0 90 49 60
        E 0 90 54 60
        E 0 90 55 60
        E 0 90 60 60
        E 0 90 61 60
        E 30 80 18 00
        E 0 80 1b 00
        E 0 80 3d 00
        E 0 80 49 00
        E 0 80 54 00
        E 0 80 55 00
        E 0 80 60 00
        E 0 80 61 00
        E 50 90 1a 60
        E 0 90 61 60
        E 30 80 1a 00
        E 0 80 61 00
        E 50 90 18 60
        E 0 90 1b 60
        E 0 90 60 60
        E 0 90 61 60
        E 30 80 18 00
        E 0 80 1b 00
        E 0 80 60 00
        E 0 80 61 00
        E 50 90 1a 60
        E 0 90 55 60
        E 0 90 61 60
        E 30 80 1a 00
        E 0 80 55 00
        E 0 80 61 00
        E 49 90 18 60
        E 0 90 1b 60
        E 0 90 60 60
        E 0 90 61 60
        E 30 80 18 00
        E 0 80 1b 00
        E 0 80 60 00
        E 0 80 61 00
        E 50 90 1a 60
        E 0 90 61 60
        E 30 80 1a 00
        E 0 80 61 00
        E 51 90 18 60
        E 0 90 24 60
        E 0 90 40 60
        E 0 90 48 60
        E 0 90 4c 60
        E 0 90 54 60
        E 0 90 58 60
        E 0 90 60 60
        E 0 90 64 60
        E 30 80 18 00
        E 0 80 24 00
        E 0 80 40 00
        E 0 80 48 00
        E 0 80 4c 00
        E 0 80 54 00
        E 0 80 58 00
        E 0 80 60 00
        E 0 80 64 00
        E 130 90 1e 60
        E 0 90 62 60
        E 30 80 1e 00
        E 0 80 62 00
        E 50 90 1b 60
        E 0 90 55 60
        E 0 90 61 60
        E 30 80 1b 00
        E 0 80 55 00
        E 0 80 61 00
        E 50 90 1e 60
        E 0 90 62 60
        E 30 80 1e 00
        E 0 80 62 00
        E 50 90 18 60
        E 0 90 60 60
        E 30 80 18 00
        E 0 80 60 00
        E 50 90 1a 60
        E 0 90 1f 60
        E 0 90 3d 60
        E 0 90 49 60
        E 0 90 4a 60
        E 0 90 55 60
        E 0 90 56 60
        E 0 90 61 60
        E 0 90 62 60
        E 30 80 1a 00
        E 0 80 1f 00
        E 0 80 3d 00
        E 0 80 49 00
        E 0 80 4a 00
        E 0 80 55 00
        E 0 80 56 00
        E 0 80 61 00
        E 0 80 62 00
        E 130 90 1e 60
        E 0 90 62 60
        E 30 80 1e 00
        E 0 80 62 00
        E 50 90 1b 60
        E 0 90 55 60
        E 0 90 61 60
        E 30 80 1b 00
        E 0 80 55 00
        E 0 80 61 00
        E 50 90 18 60
        E 0 90 1e 60
        E 0 90 60 60
        E 0 90 62 60
        E 30 80 18 00
        E 0 80 1e 00
        E 0 80 60 00
        E 0 80 62 00
        E 50 90 1b 60
        E 0 90 61 60
        E 30 80 1b 00
        E 0 80 61 00
        E 49 90 78 60
        E 0 90 79 60
        E 0 90 7a 60
        E 0 90 7b 60
        E 0 90 7c 60
        E 1 90 1e 60
        E 0 90 3e 60
        E 0 90 4a 60
        E 0 90 56 60
        E 0 90 62 60
        E 30 80 1e 00
        E 0 80 3e 00
        E 0 80 4a 00
        E 0 80 56 00
        E 0 80 62 00
        E 50 90 18 60
        E 0 90 60 60
        E 30 80 18 00
        E 0 80 60 00
        E 50 90 1a 60
        E 0 90 1f 60
        E 0 90 61 60
        E 0 90 62 60
        E 30 80 1a 00
        E 0 80 1f 00
        E 0 80 61 00
        E 0 80 62 00
        E 129 90 1e 60
        E 0 90 62 60
        E 30 80 1e 00
        E 0 80 62 00
        E 50 90 1b 60
        E 0 90 61 60
        E 30 80 1b 00
        E 0 80 61 00
        E 51 90 18 60
        E 0 90 1e 60
        E 0 90 3e 60
        E 0 90 48 60
        E 0 90 4a 60
        E 0 90 54 60
        E 0 90 56 60
        E 0 90 60 60
        E 0 90 62 60
        E 30 80 18 00
        E 0 80 1e 00
        E 0 80 3e 00
        E 0 80 48 00
        E 0 80 4a 00
        E 0 80 54 00
        E 0 80 56 00
        E 0 80 60 00
        E 0 80 62 00
        E 50 90 1b 60
        E 0 90 61 60
        E 30 80 1b 00
        E 0 80 61 00
        E 50 90 1e 60
        E 0 90 62 60
        E 30 80 1e 00
        E 0 80 62 00
        E 50 90 18 60
        E 0 90 54 60
        E 0 90 60 60
        E 30 80 18 00
        E 0 80 54 00
        E 0 80 60 00
        E 50 90 1a 60
        E 0 90 1f 60
        E 0 90 61 60
        E 0 90 62 60
        E 30 80 1a 00
        E 0 80 1f 00
        E 0 80 61 00
        E 0 80 62 00
        E 130 80 78 00
        E 0 80 79 00
        E 0 80 7a 00
        E 0 80 7b 00
        E 0 80 7c 00
        E 0 90 18 60
        E 0 90 24 60
        E 0 90 40 60
        E 0 90 48 60
        E 0 90 4c 60
        E 0 90 54 60
        E 0 90 58 60
        E 0 90 60 60
        E 0 90 64 60
        E 30 80 18 00
        E 0 80 24 00
        E 0 80 40 00
        E 0 80 48 00
        E 0 80 4c 00
        E 0 80 54 00
        E 0 80 58 00
        E 0 80 60 00
        E 0 80 64 00
        E 130 90 1e 60
        E 0 90 62 60
        E 30 80 1e 00
        E 0 80 62 00
        E 50 90 1b 60
        E 0 90 55 60
        E 0 90 61 60
        E 30 80 1b 00
        E 0 80 55 00
        E 0 80 61 00
        E 50 90 18 60
        E 0 90 1e 60
        E 0 90 60 60
        E 0 90 62 60
        E 30 80 18 00
        E 0 80 1e 00
        E 0 80 60 00
        E 0 80 62 00
        E 50 90 18 60
        E 0 90 60 60
        E 30 80 18 00
        E 0 80 60 00
        E 50 90 1a 60
        E 0 90 1f 60
        E 0 90 3d 60
        E 0 90 49 60
        E 0 90 4a 60
        E 0 90 55 60
        E 0 90 56 60
        E 0 90 61 60
        E 0 90 62 60
        E 30 80 1a 00
        E 0 80 1f 00
        E 0 80 3d 00
        E 0 80 49 00
        E 0 80 4a 00
        E 0 80 55 00
        E 0 80 56 00
        E 0 80 61 00
        E 0 80 62 00
        E 130 90 1e 60
        E 0 90 62 60
        E 30 80 1e 00
        E 0 80 62 00
        E 50 90 1b 60
        E 0 90 55 60
        E 0 90 61 60
        E 30 80 1b 00
        E 0 80 55 00
        E 0 80 61 00
        E 50 90 18 60
        E 0 90 1e 60
        E 0 90 60 60
        E 0 90 62 60
        E 30 80 18 00
        E 0 80 1e 00
        E 0 80 60 00
        E 0 80 62 00
        E 50 90 1b 60
        E 0 90 61 60
        E 30 80 1b 00
        E 0 80 61 00
        E 50 90 1e 60
        E 0 90 3e 60
        E 0 90 4a 60
        E 0 90 56 60
        E 0 90 62 60
        E 30 80 1e 00
        E 0 80 3e 00
        E 0 80 4a 00
        E 0 80 56 00
        E 0 80 62 00
        E 50 90 18 60
        E 0 90 60 60
        E 30 80 18 00
        E 0 80 60 00
        E 50 90 1a 60
        E 0 90 1f 60
        E 0 90 61 60
        E 0 90 62 60
        E 30 80 1a 00
        E 0 80 1f 00
        E 0 80 61 00
        E 0 80 62 00
        E 129 90 1e 60
        E 0 90 62 60
        E 30 80 1e 00
        E 0 80 62 00
        E 50 90 1b 60
        E 0 90 61 60
        E 30 80 1b 00
        E 0 80 61 00
        E 51 90 18 60
        E 0 90 1e 60
        E 0 90 3e 60
        E 0 90 48 60
        E 0 90 4a 60
        E 0 90 54 60
        E 0 90 56 60
        E 0 90 60 60
        E 0 90 62 60
        E 30 80 18 00
        E 0 80 1e 00
        E 0 80 3e 00
        E 0 80 48 00
        E 0 80 4a 00
        E 0 80 54 00
        E 0 80 56 00
        E 0 80 60 00
        E 0 80 62 00
        E 50 90 1b 60
        E 0 90 61 60
        E 30 80 1b 00
        E 0 80 61 00
        E 50 90 1e 60
        E 0 90 62 60
        E 30 80 1e 00
        E 0 80 62 00
        E 50 90 18 60
        E 0 90 54 60
        E 0 90 60 60
        E 30 80 18 00
        E 0 80 54 00
        E 0 80 60 00
        E 50 90 1a 60
        E 0 90 1f 60
        E 0 90 61 60
        E 0 90 62 60
        E 30 80 1a 00
        E 0 80 1f 00
        E 0 80 61 00
        E 0 80 62 00
        E 130 90 18 60
        E 0 90 24 60
        E 0 90 40 60
        E 0 90 48 60
        E 0 90 4c 60
        E 0 90 54 60
        E 0 90 58 60
        E 0 90 60 60
        E 0 90 64 60
        E 30 80 18 00
        E 0 80 24 00
        E 0 80 40 00
        E 0 80 48 00
        E 0 80 4c 00
        E 0 80 54 00
        E 0 80 58 00
        E 0 80 60 00
        E 0 80 64 00
        E 130 90 18 60
        E 0 90 60 60
        E 30 80 18 00
        E 0 80 60 00
        E 130 90 18 60
        E 0 90 60 60
        E 30 80 18 00
        E 0 80 60 00
        E 130 90 18 60
        E 0 90 1a 60
        E 0 90 24 60
        E 0 90 3d 60
        E 0 90 49 60
        E 0 90 4c 60
        E 0 90 54 60
        E 0 90 55 60
        E 0 90 58 60
        E 0 90 60 60
        E 0 90 61 60
        E 0 90 64 60
        E 30 80 18 00
        E 0 80 1a 00
        E 0 80 24 00
        E 0 80 3d 00
        E 0 80 49 00
        E 0 80 4c 00
        E 0 80 54 00
        E 0 80 55 00
        E 0 80 58 00
        E 0 80 60 00
        E 0 80 61 00
        E 0 80 64 00
        E 130 90 18 60
        E 0 90 22 60
        E 0 90 60 60
        E 0 90 64 60
        E 30 80 18 00
        E 0 80 22 00
        E 0 80 60 00
        E 0 80 64 00
        E 130 90 18 60
        E 0 90 24 60
        E 0 90 60 60
        E 0 90 64 60
        E 30 80 18 00
        E 0 80 24 00
        E 0 80 60 00
        E 0 80 64 00
        E 130 90 18 60
        E 0 90 1a 60
        E 0 90 24 60
        E 0 90 3d 60
        E 0 90 49 60
        E 0 90 4c 60
        E 0 90 54 60
        E 0 90 55 60
        E 0 90 58 60
        E 0 90 60 60
        E 0 90 61 60
        E 0 90 64 60
        E 30 80 18 00
        E 0 80 1a 00
        E 0 80 24 00
        E 0 80 3d 00
        E 0 80 49 00
        E 0 80 4c 00
        E 0 80 54 00
        E 0 80 55 00
        E 0 80 58 00
        E 0 80 60 00
        E 0 80 61 00
        E 0 80 64 00
        E 130 90 18 60
        E 0 90 22 60
        E 0 90 60 60
        E 0 90 64 60
        E 30 80 18 00
        E 0 80 22 00
        E 0 80 60 00
        E 0 80 64 00
        E 129 90 18 60
        E 0 90 24 60
        E 0 90 60 60
        E 0 90 64 60
        E 30 80 18 00
        E 0 80 24 00
        E 0 80 60 00
        E 0 80 64 00
        E 131 90 18 60
        E 0 90 1a 60
        E 0 90 24 60
        E 0 90 3d 60
        E 0 90 49 60
        E 0 90 4c 60
        E 0 90 54 60
        E 0 90 55 60
        E 0 90 58 60
        E 0 90 60 60
        E 0 90 61 60
        E 0 90 64 60
        E 30 80 18 00
        E 0 80 1a 00
        E 0 80 24 00
        E 0 80 3d 00
        E 0 80 49 00
        E 0 80 4c 00
        E 0 80 54 00
        E 0 80 55 00
        E 0 80 58 00
        E 0 80 60 00
        E 0 80 61 00
        E 0 80 64 00
        E 130 90 18 60
        E 0 90 22 60
        E 0 90 60 60
        E 0 90 64 60
        E 30 80 18 00
        E 0 80 22 00
        E 0 80 60 00
        E 0 80 64 00
        E 130 90 18 60
        E 0 90 24 60
        E 0 90 60 60
        E 0 90 64 60
        E 30 80 18 00
        E 0 80 24 00
        E 0 80 60 00
        E 0 80 64 00
        E 130 90 18 60
        E 0 90 1a 60
        E 0 90 24 60
        E 0 90 3d 60
        E 0 90 49 60
        E 0 90 4c 60
        E 0 90 54 60
        E 0 90 55 60
        E 0 90 58 60
        E 0 90 60 60
        E 0 90 61 60
        E 0 90 64 60
        E 30 80 18 00
        E 0 80 1a 00
        E 0 80 24 00
        E 0 80 3d 00
        E 0 80 49 00
        E 0 80 4c 00
        E 0 80 54 00
        E 0 80 55 00
        E 0 80 58 00
        E 0 80 60 00
        E 0 80 61 00
        E 0 80 64 00
        E 130 90 18 60
        E 0 90 22 60
        E 0 90 60 60
        E 0 90 64 60
        E 30 80 18 00
        E 0 80 22 00
        E 0 80 60 00
        E 0 80 64 00
        E 130 90 18 60
        E 0 90 24 60
        E 0 90 60 60
        E 0 90 64 60
        E 30 80 18 00
        E 0 80 24 00
        E 0 80 60 00
        E 0 80 64 00
        E 130 90 18 60
        E 0 90 1a 60
        E 0 90 24 60
        E 0 90 3d 60
        E 0 90 49 60
        E 0 90 4c 60
        E 0 90 54 60
        E 0 90 55 60
        E 0 90 58 60
        E 0 90 60 60
        E 0 90 61 60
        E 0 90 64 60
        E 30 80 18 00
        E 0 80 1a 00
        E 0 80 24 00
        E 0 80 3d 00
        E 0 80 49 00
        E 0 80 4c 00
        E 0 80 54 00
        E 0 80 55 00
        E 0 80 58 00
        E 0 80 60 00
        E 0 80 61 00
        E 0 80 64 00
        E 130 90 18 60
        E 0 90 24 60
        E 0 90 60 60
        E 0 90 64 60
        E 30 80 18 00
        E 0 80 24 00
        E 0 80 60 00
        E 0 80 64 00
        E 130 90 18 60
        E 0 90 24 60
        E 0 90 60 60
        E 0 90 64 60
        E 30 80 18 00
        E 0 80 24 00
        E 0 80 60 00
        E 0 80 64 00
        E 130 90 18 60
        E 0 90 22 60
        E 0 90 26 60
        E 0 90 3e 60
        E 0 90 40 60
        E 0 90 48 60
        E 0 90 4a 60
        E 0 90 4c 60
        E 0 90 54 60
        E 0 90 56 60
        E 0 90 58 60
        E 0 90 60 60
        E 0 90 62 60
        E 0 90 64 60
        E 30 80 18 00
        E 0 80 22 00
        E 0 80 26 00
        E 0 80 3e 00
        E 0 80 40 00
        E 0 80 48 00
        E 0 80 4a 00
        E 0 80 4c 00
        E 0 80 54 00
        E 0 80 56 00
        E 0 80 58 00
        E 0 80 60 00
        E 0 80 62 00
        E 0 80 64 00
        E 210 90 18 60
        E 0 90 22 60
        E 0 90 26 60
        E 0 90 54 60
        E 0 90 56 60
        E 0 90 58 60
        E 0 90 60 60
        E 0 90 62 60
        E 0 90 64 60
        E 30 80 18 00
        E 0 80 22 00
        E 0 80 26 00
        E 0 80 54 00
        E 0 80 56 00
        E 0 80 58 00
        E 0 80 60 00
        E 0 80 62 00
        E 0 80 64 00
        E 210 90 18 60
        E 0 90 22 60
        E 0 90 26 60
        E 0 90 3e 60
        E 0 90 40 60
        E 0 90 48 60
        E 0 90 4a 60
        E 0 90 4c 60
        E 0 90 54 60
        E 0 90 56 60
        E 0 90 58 60
        E 0 90 60 60
        E 0 90 62 60
        E 0 90 64 60
        E 30 80 18 00
        E 0 80 22 00
        E 0 80 26 00
        E 0 80 3e 00
        E 0 80 40 00
        E 0 80 48 00
        E 0 80 4a 00
        E 0 80 4c 00
        E 0 80 54 00
        E 0 80 56 00
        E 0 80 58 00
        E 0 80 60 00
        E 0 80 62 00
        E 0 80 64 00
        E 210 90 18 60
        E 0 90 22 60
        E 0 90 26 60
        E 0 90 54 60
        E 0 90 56 60
        E 0 90 58 60
        E 0 90 60 60
        E 0 90 62 60
        E 0 90 64 60
        E 30 80 18 00
        E 0 80 22 00
        E 0 80 26 00
        E 0 80 54 00
        E 0 80 56 00
        E 0 80 58 00
        E 0 80 60 00
        E 0 80 62 00
        E 0 80 64 00
        <X 480 0
          /wFbaWRsZV9yZWFsdGltZV0=
        >
        E 2130 b0 7b 00
        GUID {99C52F88-C54B-4CCD-B038-A5C950AC8E6E}
        IGNTEMPO 0 120 4 4
        SRCCOLOR 1351
        VELLANE 132 38 60
        COLORMAP "C:\Program Files (x86)\REAPER\Data\color_maps\rockband_drums.png"
        TEXTSTRINGFILE "Text Events List.txt"
        CFGEDITVIEW -59238.16364 4.456586 1 12 0 0 0 0 0
        KEYSNAP 0 0 102034050607 0 Major
        TRACKSEL 0 0 0 ""
        EVTFILTER 0 -1 -1 -1 -1 0 1 0 0 -1 -1 -1 -1 0 -1 0 -1 -1
        CFGEDIT 1 1 0 0 0 1 1 1 1 1 1 0.08333333 -8 -8 1370 736 1 2 1 2 0 0 0 0 0 0.5 1 0 1 64
      >
    >
  >
  <TRACK {6D3AC6AB-1F18-4A41-A56E-A78D3C7E1BF3}
    NAME "PART DRUMS_2X"
    PEAKCOL 16842751
    BEAT -1
    AUTOMODE 0
    VOLPAN 1 0 -1 -1 1
    MUTESOLO 0 0 0
    IPHASE 0
    ISBUS 0 0
    BUSCOMP 1 0
    SHOWINMIX 1 0.6667 0.5 1 0.5 0 0 0
    FREEMODE 0
    SEL 0
    REC 0 4096 1 7 0 0 0
    TRACKHEIGHT 0 0
    INQ 0 0 0 0.5 100 0 0 100
    NCHAN 2
    FX 1
    TRACKID {6D3AC6AB-1F18-4A41-A56E-A78D3C7E1BF3}
    PERF 0
    MIDIOUT -1
    <MIDINOTENAMES
      0 24 "KICK RF"
      0 25 "HI-HAT OPEN"
      0 26 "SNARE HARD LH"
      0 27 "SNARE HARD RH"
      0 28 "SNARE SOFT LH"
      0 29 "SNARE SOFT RH"
      0 30 "HI-HAT LH"
      0 31 "HI-HAT RH"
      0 32 "PERCUSSION RH"
      0 34 "CRASH1 HARD LH"
      0 35 "CRASH1 SOFT LH"
      0 36 "CRASH1 HARD RH"
      0 37 "CRASH1 SOFT RH"
      0 38 "CRASH2 HARD RH"
      0 39 "CRASH2 SOFT RH"
      0 40 "CRASH1 CHOKE"
      0 41 "CRASH2 CHOKE"
      0 42 "RIDE CYM RH"
      0 43 "RIDE CYM LH"
      0 44 "CRASH2 HARD LH"
      0 45 "CRASH2 SOFT LH"
      0 46 "TOM1 LH"
      0 47 "TOM1 RH"
      0 48 "TOM2 LH"
      0 49 "TOM2 RH"
      0 50 "FLOOR TOM LH"
      0 51 "FLOOR TOM RH"
      0 52 "--DRUM ANIMATION--"
      0 56 ----
      0 60 "EASY Kick"
      0 61 "EASY Red"
      0 62 "EASY Yellow"
      0 63 "EASY Blue"
      0 64 "EASY Green"
      0 68 ----
      0 72 "MEDIUM Kick"
      0 73 "MEDIUM Red"
      0 74 "MEDIUM Yellow"
      0 75 "MEDIUM Blue"
      0 76 "MEDIUM Green"
      0 80 ----
      0 84 "HARD Kick"
      0 85 "HARD Red"
      0 86 "HARD Yellow"
      0 87 "HARD Blue"
      0 88 "HARD Green"
      0 92 ----
      0 96 "EXPERT Kick"
      0 97 "EXPERT Red"
      0 98 "EXPERT Yellow"
      0 99 "EXPERT Blue"
      0 100 "EXPERT Green"
      0 101 " "
      0 102 ----
      0 103 "Solo Marker"
      0 108 ----
      0 110 "PRO Yellow Tom"
      0 111 "PRO Blue Tom"
      0 112 "PRO Green Tom"
      0 114 ----
      0 116 OVERDRIVE
      0 118 ----
      0 120 "DRUM FILL (use all 5)"
      0 121 "DRUM FILL"
      0 122 "DRUM FILL"
      0 123 "DRUM FILL"
      0 124 "DRUM FILL"
      0 125 ----
      0 126 "Roll Marker 1-Lane"
      0 127 "Roll Marker 2-Lane / Cym"
    >
    MAINSEND 1 0
    <FXCHAIN
      WNDRECT 425 33 895 668
      SHOW 0
      LASTSEL 1
      DOCKED 0
      BYPASS 1 0 0
      <VST "VSTi: ReaSynth (Cockos)" reasynth.vst.dylib 0 "" 1919251321
        eXNlcu9e7f4AAAAAAgAAAAEAAAAAAAAAAgAAAAAAAAA8AAAAAAAAAAAAAADvvq3eDfCt3gAAAAAAAAAAAAAAAAAAAAA5tEg+fcvbPrW0sTkAAAAAtvP9PlWkKzoAAAAA
        AAAAAAAAgD8AAAAAAAA=
      >
      FLOATPOS 0 0 0 0
      FXID {58F55556-9407-4062-A048-6AFCC0B53535}
      WAK 0
      BYPASS 0 0 0
      <VST "VSTi: RBN Preview (RBN)" rbprev_vst.dll 0 "" ""
        dnBicu5e7f4AAAAAAgAAAAEAAAAAAAAAAgAAAAAAAAAEAAAAAQAAAAAAAAADAaoAAAAAAAAA
      >
      FLOATPOS 32 32 659 497
      FXID {D7126437-AB1E-4109-A0FA-F2D5D0AC68DC}
      WAK 0
    >
    <ITEM
      POSITION 0
      SNAPOFFS 0
      LENGTH 215.16728383179705
      LOOP 0
      ALLTAKES 0
      FADEIN 1 0 0 1 0 0
      FADEOUT 1 0 0 1 0 0
      MUTE 0
      COLOR 19150555 B
      SEL 0
      IGUID {9FF11F36-E94F-4396-9C0E-8449C916EC21}
      IID 3
      NAME "PART DRUMS_2X"
      VOLPAN 1 0 1 -1
      SOFFS 0 0
      PLAYRATE 1 1 0 -65536 0 0.0025
      CHANMODE 0
      GUID {70A79ADF-E70C-430A-913F-E16D0CC85517}
      <SOURCE MIDI
        HASDATA 1 480 QN
        POOLEDEVTS {D099A382-320D-4D09-913A-A491021CABEA}
        <X 0 0
          /wNQQVJUIERSVU1TXzJY
        >
        <X 300 0
          /wFbbWl4IDEgZHJ1bXMwXQ==
        >
        <X 0 0
          /wFbbWl4IDAgZHJ1bXMwXQ==
        >
        <X 60 0
          /wFbbWl4IDIgZHJ1bXMwXQ==
        >
        <X 60 0
          /wFbbWl4IDMgZHJ1bXMwXQ==
        >
        <X 3420 0
          /wFbaWRsZV0=
        >
        <X 1920 0
          /wFbcGxheV0=
        >
        E 480 90 18 60
        E 0 90 22 60
        E 0 90 26 60
        E 0 90 3e 60
        E 0 90 40 60
        E 0 90 48 60
        E 0 90 4a 60
        E 0 90 4c 60
        E 0 90 54 60
        E 0 90 56 60
        E 0 90 58 60
        E 0 90 60 60
        E 0 90 62 60
        E 0 90 64 60
        E 30 80 18 00
        E 0 80 22 00
        E 0 80 26 00
        E 0 80 3e 00
        E 0 80 40 00
        E 0 80 48 00
        E 0 80 4a 00
        E 0 80 4c 00
        E 0 80 54 00
        E 0 80 56 00
        E 0 80 58 00
        E 0 80 60 00
        E 0 80 62 00
        E 0 80 64 00
        E 1890 90 2e 60
        E 0 90 31 60
        E 0 90 3e 60
        E 0 90 3f 60
        E 0 90 4a 60
        E 0 90 4b 60
        E 0 90 56 60
        E 0 90 57 60
        E 0 90 62 60
        E 0 90 63 60
        E 0 90 6e 60
        E 0 90 6f 60
        E 30 80 2e 00
        E 0 80 31 00
        E 0 80 3e 00
        E 0 80 3f 00
        E 0 80 4a 00
        E 0 80 4b 00
        E 0 80 56 00
        E 0 80 57 00
        E 0 80 62 00
        E 0 80 63 00
        E 0 80 6e 00
        E 0 80 6f 00
        E 130 90 2e 60
        E 0 90 62 60
        E 0 90 6e 60
        E 30 80 2e 00
        E 0 80 62 00
        E 0 80 6e 00
        E 50 90 2f 60
        E 0 90 56 60
        E 0 90 62 60
        E 0 90 6e 60
        E 30 80 2f 00
        E 0 80 56 00
        E 0 80 62 00
        E 0 80 6e 00
        E 50 90 2e 60
        E 0 90 62 60
        E 0 90 6e 60
        E 30 80 2e 00
        E 0 80 62 00
        E 0 80 6e 00
        E 50 90 2f 60
        E 0 90 62 60
        E 0 90 6e 60
        E 30 80 2f 00
        E 0 80 62 00
        E 0 80 6e 00
        E 50 90 2e 60
        E 0 90 3e 60
        E 0 90 4a 60
        E 0 90 56 60
        E 0 90 62 60
        E 0 90 6e 60
        E 30 80 2e 00
        E 0 80 3e 00
        E 0 80 4a 00
        E 0 80 56 00
        E 0 80 62 00
        E 0 80 6e 00
        E 50 90 2f 60
        E 0 90 62 60
        E 0 90 6e 60
        E 30 80 2f 00
        E 0 80 62 00
        E 0 80 6e 00
        E 50 90 30 60
        E 0 90 63 60
        E 0 90 6f 60
        E 30 80 30 00
        E 0 80 63 00
        E 0 80 6f 00
        E 50 90 2f 60
        E 0 90 56 60
        E 0 90 62 60
        E 0 90 6e 60
        E 30 80 2f 00
        E 0 80 56 00
        E 0 80 62 00
        E 0 80 6e 00
        E 50 90 2e 60
        E 0 90 62 60
        E 0 90 6e 60
        E 30 80 2e 00
        E 0 80 62 00
        E 0 80 6e 00
        E 50 90 2f 60
        E 0 90 62 60
        E 0 90 6e 60
        E 30 80 2f 00
        E 0 80 62 00
        E 0 80 6e 00
        E 50 90 30 60
        E 0 90 3f 60
        E 0 90 4b 60
        E 0 90 57 60
        E 0 90 63 60
        E 0 90 6f 60
        E 30 80 30 00
        E 0 80 3f 00
        E 0 80 4b 00
        E 0 80 57 00
        E 0 80 63 00
        E 0 80 6f 00
        E 50 90 31 60
        E 0 90 63 60
        E 0 90 6f 60
        E 30 80 31 00
        E 0 80 63 00
        E 0 80 6f 00
        E 50 90 32 60
        E 0 90 64 60
        E 0 90 70 60
        E 30 80 32 00
        E 0 80 64 00
        E 0 80 70 00
        E 50 90 31 60
        E 0 90 57 60
        E 0 90 63 60
        E 0 90 6f 60
        E 30 80 31 00
        E 0 80 57 00
        E 0 80 63 00
        E 0 80 6f 00
        E 50 90 30 60
        E 0 90 63 60
        E 0 90 6f 60
        E 30 80 30 00
        E 0 80 63 00
        E 0 80 6f 00
        E 49 90 31 60
        E 0 90 63 60
        E 0 90 6f 60
        E 30 80 31 00
        E 0 80 63 00
        E 0 80 6f 00
        E 51 90 30 60
        E 0 90 3f 60
        E 0 90 4b 60
        E 0 90 57 60
        E 0 90 63 60
        E 0 90 6f 60
        E 30 80 30 00
        E 0 80 3f 00
        E 0 80 4b 00
        E 0 80 57 00
        E 0 80 63 00
        E 0 80 6f 00
        E 50 90 31 60
        E 0 90 63 60
        E 0 90 6f 60
        E 30 80 31 00
        E 0 80 63 00
        E 0 80 6f 00
        E 50 90 32 60
        E 0 90 64 60
        E 0 90 70 60
        E 30 80 32 00
        E 0 80 64 00
        E 0 80 70 00
        E 50 90 33 60
        E 0 90 58 60
        E 0 90 64 60
        E 0 90 70 60
        E 30 80 33 00
        E 0 80 58 00
        E 0 80 64 00
        E 0 80 70 00
        E 50 90 32 60
        E 0 90 64 60
        E 0 90 70 60
        E 30 80 32 00
        E 0 80 64 00
        E 0 80 70 00
        E 50 90 33 60
        E 0 90 64 60
        E 0 90 70 60
        E 30 80 33 00
        E 0 80 64 00
        E 0 80 70 00
        E 50 90 18 60
        E 0 90 22 60
        E 0 90 40 60
        E 0 90 48 60
        E 0 90 4c 60
        E 0 90 54 60
        E 0 90 58 60
        E 0 90 60 60
        E 0 90 64 60
        E 30 80 18 00
        E 0 80 22 00
        E 0 80 40 00
        E 0 80 48 00
        E 0 80 4c 00
        E 0 80 54 00
        E 0 80 58 00
        E 0 80 60 00
        E 0 80 64 00
        E 1890 90 1a 60
        E 0 90 24 60
        E 0 90 3d 60
        E 0 90 49 60
        E 0 90 4c 60
        E 0 90 55 60
        E 0 90 58 60
        E 0 90 61 60
        E 0 90 64 60
        E 30 80 1a 00
        E 0 80 24 00
        E 0 80 3d 00
        E 0 80 49 00
        E 0 80 4c 00
        E 0 80 55 00
        E 0 80 58 00
        E 0 80 61 00
        E 0 80 64 00
        E 130 90 1a 60
        E 0 90 61 60
        E 30 80 1a 00
        E 0 80 61 00
        E 10 90 1b 60
        E 0 90 61 60
        E 30 80 1b 00
        E 0 80 61 00
        E 10 90 1a 60
        E 0 90 55 60
        E 0 90 61 60
        E 30 80 1a 00
        E 0 80 55 00
        E 0 80 61 00
        E 50 90 1b 60
        E 0 90 61 60
        E 30 80 1b 00
        E 0 80 61 00
        E 50 90 1a 60
        E 0 90 61 60
        E 30 80 1a 00
        E 0 80 61 00
        E 10 90 1b 60
        E 0 90 61 60
        E 30 80 1b 00
        E 0 80 61 00
        E 10 90 1a 60
        E 0 90 3d 60
        E 0 90 49 60
        E 0 90 55 60
        E 0 90 61 60
        E 30 80 1a 00
        E 0 80 3d 00
        E 0 80 49 00
        E 0 80 55 00
        E 0 80 61 00
        E 50 90 1b 60
        E 0 90 61 60
        E 30 80 1b 00
        E 0 80 61 00
        E 50 90 1a 60
        E 0 90 61 60
        E 30 80 1a 00
        E 0 80 61 00
        E 50 90 1b 60
        E 0 90 55 60
        E 0 90 61 60
        E 30 80 1b 00
        E 0 80 55 00
        E 0 80 61 00
        E 50 90 1a 60
        E 0 90 61 60
        E 30 80 1a 00
        E 0 80 61 00
        E 50 90 1b 60
        E 0 90 61 60
        E 30 80 1b 00
        E 0 80 61 00
        E 50 90 1a 60
        E 0 90 3d 60
        E 0 90 49 60
        E 0 90 55 60
        E 0 90 61 60
        E 30 80 1a 00
        E 0 80 3d 00
        E 0 80 49 00
        E 0 80 55 00
        E 0 80 61 00
        E 50 90 1b 60
        E 0 90 61 60
        E 30 80 1b 00
        E 0 80 61 00
        E 50 90 2e 60
        E 0 90 62 60
        E 0 90 6e 60
        E 30 80 2e 00
        E 0 80 62 00
        E 0 80 6e 00
        E 50 90 1b 60
        E 0 90 55 60
        E 0 90 61 60
        E 30 80 1b 00
        E 0 80 55 00
        E 0 80 61 00
        E 50 90 1a 60
        E 0 90 61 60
        E 30 80 1a 00
        E 0 80 61 00
        E 50 90 1b 60
        E 0 90 61 60
        E 30 80 1b 00
        E 0 80 61 00
        E 50 90 1a 60
        E 0 90 3d 60
        E 0 90 49 60
        E 0 90 55 60
        E 0 90 61 60
        E 30 80 1a 00
        E 0 80 3d 00
        E 0 80 49 00
        E 0 80 55 00
        E 0 80 61 00
        E 50 90 1b 60
        E 0 90 61 60
        E 30 80 1b 00
        E 0 80 61 00
        E 50 90 2e 60
        E 0 90 62 60
        E 0 90 6e 60
        E 30 80 2e 00
        E 0 80 62 00
        E 0 80 6e 00
        E 50 90 2f 60
        E 0 90 56 60
        E 0 90 62 60
        E 0 90 6e 60
        E 30 80 2f 00
        E 0 80 56 00
        E 0 80 62 00
        E 0 80 6e 00
        E 50 90 30 60
        E 0 90 63 60
        E 0 90 6f 60
        E 30 80 30 00
        E 0 80 63 00
        E 0 80 6f 00
        E 50 90 31 60
        E 0 90 63 60
        E 0 90 6f 60
        E 30 80 31 00
        E 0 80 63 00
        E 0 80 6f 00
        E 50 90 18 60
        E 0 90 22 60
        E 0 90 40 60
        E 0 90 48 60
        E 0 90 4c 60
        E 0 90 54 60
        E 0 90 58 60
        E 0 90 60 60
        E 0 90 64 60
        E 0 90 74 60
        E 30 80 18 00
        E 0 80 22 00
        E 0 80 40 00
        E 0 80 48 00
        E 0 80 4c 00
        E 0 80 54 00
        E 0 80 58 00
        E 0 80 60 00
        E 0 80 64 00
        E 130 90 2a 60
        E 0 90 63 60
        E 30 80 2a 00
        E 0 80 63 00
        E 50 90 1a 60
        E 0 90 55 60
        E 0 90 61 60
        E 30 80 1a 00
        E 0 80 55 00
        E 0 80 61 00
        E 50 90 2a 60
        E 0 90 63 60
        E 30 80 2a 00
        E 0 80 63 00
        E 50 90 18 60
        E 0 90 60 60
        E 30 80 18 00
        E 0 80 60 00
        E 10 90 18 60
        E 0 90 60 60
        E 30 80 18 00
        E 0 80 60 00
        E 10 90 1a 60
        E 0 90 2a 60
        E 0 90 3d 60
        E 0 90 49 60
        E 0 90 4b 60
        E 0 90 55 60
        E 0 90 57 60
        E 0 90 61 60
        E 0 90 63 60
        E 30 80 1a 00
        E 0 80 2a 00
        E 0 80 3d 00
        E 0 80 49 00
        E 0 80 4b 00
        E 0 80 55 00
        E 0 80 57 00
        E 0 80 61 00
        E 0 80 63 00
        E 130 90 2b 60
        E 0 90 63 60
        E 30 80 2b 00
        E 0 80 63 00
        E 50 90 1b 60
        E 0 90 55 60
        E 0 90 61 60
        E 30 80 1b 00
        E 0 80 55 00
        E 0 80 61 00
        E 50 90 18 60
        E 0 90 2b 60
        E 0 90 60 60
        E 0 90 63 60
        E 30 80 18 00
        E 0 80 2b 00
        E 0 80 60 00
        E 0 80 63 00
        E 50 90 1b 60
        E 0 90 61 60
        E 30 80 1b 00
        E 0 80 61 00
        E 50 90 18 60
        E 0 90 2b 60
        E 0 90 3f 60
        E 0 90 48 60
        E 0 90 4b 60
        E 0 90 54 60
        E 0 90 57 60
        E 0 90 60 60
        E 0 90 63 60
        E 30 80 18 00
        E 0 80 2b 00
        E 0 80 3f 00
        E 0 80 48 00
        E 0 80 4b 00
        E 0 80 54 00
        E 0 80 57 00
        E 0 80 60 00
        E 0 80 63 00
        E 50 90 1b 60
        E 0 90 61 60
        E 30 80 1b 00
        E 0 80 61 00
        E 50 90 18 60
        E 0 90 2b 60
        E 0 90 60 60
        E 0 90 63 60
        E 30 80 18 00
        E 0 80 2b 00
        E 0 80 60 00
        E 0 80 63 00
        E 50 90 1b 60
        E 0 90 55 60
        E 0 90 61 60
        E 30 80 1b 00
        E 0 80 55 00
        E 0 80 61 00
        E 50 90 2b 60
        E 0 90 63 60
        E 30 80 2b 00
        E 0 80 63 00
        E 50 90 18 60
        E 0 90 60 60
        E 30 80 18 00
        E 0 80 60 00
        E 10 90 18 60
        E 0 90 60 60
        E 30 80 18 00
        E 0 80 60 00
        E 10 90 1a 60
        E 0 90 2a 60
        E 0 90 3d 60
        E 0 90 49 60
        E 0 90 4b 60
        E 0 90 55 60
        E 0 90 57 60
        E 0 90 61 60
        E 0 90 63 60
        E 30 80 1a 00
        E 0 80 2a 00
        E 0 80 3d 00
        E 0 80 49 00
        E 0 80 4b 00
        E 0 80 55 00
        E 0 80 57 00
        E 0 80 61 00
        E 0 80 63 00
        E 130 90 2b 60
        E 0 90 63 60
        E 30 80 2b 00
        E 0 80 63 00
        E 50 90 1b 60
        E 0 90 55 60
        E 0 90 61 60
        E 30 80 1b 00
        E 0 80 55 00
        E 0 80 61 00
        E 50 90 2b 60
        E 0 90 63 60
        E 30 80 2b 00
        E 0 80 63 00
        E 50 90 1b 60
        E 0 90 61 60
        E 30 80 1b 00
        E 0 80 61 00
        E 50 80 74 00
        E 0 90 18 60
        E 0 90 2b 60
        E 0 90 3f 60
        E 0 90 48 60
        E 0 90 4b 60
        E 0 90 54 60
        E 0 90 57 60
        E 0 90 60 60
        E 0 90 63 60
        E 30 80 18 00
        E 0 80 2b 00
        E 0 80 3f 00
        E 0 80 48 00
        E 0 80 4b 00
        E 0 80 54 00
        E 0 80 57 00
        E 0 80 60 00
        E 0 80 63 00
        E 50 90 1b 60
        E 0 90 61 60
        E 30 80 1b 00
        E 0 80 61 00
        E 50 90 18 60
        E 0 90 2b 60
        E 0 90 60 60
        E 0 90 63 60
        E 30 80 18 00
        E 0 80 2b 00
        E 0 80 60 00
        E 0 80 63 00
        E 50 90 1b 60
        E 0 90 55 60
        E 0 90 61 60
        E 30 80 1b 00
        E 0 80 55 00
        E 0 80 61 00
        E 49 90 2b 60
        E 0 90 63 60
        E 30 80 2b 00
        E 0 80 63 00
        E 50 90 18 60
        E 0 90 60 60
        E 30 80 18 00
        E 0 80 60 00
        E 10 90 18 60
        E 0 90 60 60
        E 30 80 18 00
        E 0 80 60 00
        E 11 90 1a 60
        E 0 90 2a 60
        E 0 90 3d 60
        E 0 90 49 60
        E 0 90 4b 60
        E 0 90 55 60
        E 0 90 57 60
        E 0 90 61 60
        E 0 90 63 60
        E 30 80 1a 00
        E 0 80 2a 00
        E 0 80 3d 00
        E 0 80 49 00
        E 0 80 4b 00
        E 0 80 55 00
        E 0 80 57 00
        E 0 80 61 00
        E 0 80 63 00
        E 130 90 2b 60
        E 0 90 63 60
        E 30 80 2b 00
        E 0 80 63 00
        E 50 90 1b 60
        E 0 90 55 60
        E 0 90 61 60
        E 30 80 1b 00
        E 0 80 55 00
        E 0 80 61 00
        E 50 90 2b 60
        E 0 90 63 60
        E 30 80 2b 00
        E 0 80 63 00
        E 50 90 1b 60
        E 0 90 61 60
        E 30 80 1b 00
        E 0 80 61 00
        E 50 90 18 60
        E 0 90 2b 60
        E 0 90 3f 60
        E 0 90 48 60
        E 0 90 4b 60
        E 0 90 54 60
        E 0 90 57 60
        E 0 90 60 60
        E 0 90 63 60
        E 30 80 18 00
        E 0 80 2b 00
        E 0 80 3f 00
        E 0 80 48 00
        E 0 80 4b 00
        E 0 80 54 00
        E 0 80 57 00
        E 0 80 60 00
        E 0 80 63 00
        E 50 90 1b 60
        E 0 90 61 60
        E 30 80 1b 00
        E 0 80 61 00
        E 50 90 1a 60
        E 0 90 61 60
        E 30 80 1a 00
        E 0 80 61 00
        E 50 90 1b 60
        E 0 90 55 60
        E 0 90 61 60
        E 30 80 1b 00
        E 0 80 55 00
        E 0 80 61 00
        E 50 90 2e 60
        E 0 90 62 60
        E 0 90 6e 60
        E 30 80 2e 00
        E 0 80 62 00
        E 0 80 6e 00
        E 50 90 1b 60
        E 0 90 61 60
        E 30 80 1b 00
        E 0 80 61 00
        E 50 90 1a 60
        E 0 90 3d 60
        E 0 90 49 60
        E 0 90 55 60
        E 0 90 61 60
        E 30 80 1a 00
        E 0 80 3d 00
        E 0 80 49 00
        E 0 80 55 00
        E 0 80 61 00
        E 50 90 1b 60
        E 0 90 61 60
        E 30 80 1b 00
        E 0 80 61 00
        E 50 90 2e 60
        E 0 90 62 60
        E 0 90 6e 60
        E 30 80 2e 00
        E 0 80 62 00
        E 0 80 6e 00
        E 50 90 1b 60
        E 0 90 55 60
        E 0 90 61 60
        E 30 80 1b 00
        E 0 80 55 00
        E 0 80 61 00
        E 50 90 1a 60
        E 0 90 61 60
        E 30 80 1a 00
        E 0 80 61 00
        E 50 90 1b 60
        E 0 90 61 60
        E 30 80 1b 00
        E 0 80 61 00
        E 50 90 1a 60
        E 0 90 3d 60
        E 0 90 49 60
        E 0 90 55 60
        E 0 90 61 60
        E 30 80 1a 00
        E 0 80 3d 00
        E 0 80 49 00
        E 0 80 55 00
        E 0 80 61 00
        E 50 90 1b 60
        E 0 90 61 60
        E 30 80 1b 00
        E 0 80 61 00
        E 50 90 2e 60
        E 0 90 62 60
        E 0 90 6e 60
        E 30 80 2e 00
        E 0 80 62 00
        E 0 80 6e 00
        E 50 90 2f 60
        E 0 90 56 60
        E 0 90 62 60
        E 0 90 6e 60
        E 30 80 2f 00
        E 0 80 56 00
        E 0 80 62 00
        E 0 80 6e 00
        E 50 90 30 60
        E 0 90 63 60
        E 0 90 6f 60
        E 30 80 30 00
        E 0 80 63 00
        E 0 80 6f 00
        E 50 90 18 60
        E 0 90 60 60
        E 30 80 18 00
        E 0 80 60 00
        E 50 90 1a 60
        E 0 90 24 60
        E 0 90 3d 60
        E 0 90 49 60
        E 0 90 4c 60
        E 0 90 55 60
        E 0 90 58 60
        E 0 90 61 60
        E 0 90 64 60
        E 30 80 1a 00
        E 0 80 24 00
        E 0 80 3d 00
        E 0 80 49 00
        E 0 80 4c 00
        E 0 80 55 00
        E 0 80 58 00
        E 0 80 61 00
        E 0 80 64 00
        E 130 90 2b 60
        E 0 90 63 60
        E 30 80 2b 00
        E 0 80 63 00
        E 50 90 1b 60
        E 0 90 55 60
        E 0 90 61 60
        E 30 80 1b 00
        E 0 80 55 00
        E 0 80 61 00
        E 50 90 18 60
        E 0 90 2b 60
        E 0 90 60 60
        E 0 90 63 60
        E 30 80 18 00
        E 0 80 2b 00
        E 0 80 60 00
        E 0 80 63 00
        E 50 90 1b 60
        E 0 90 61 60
        E 30 80 1b 00
        E 0 80 61 00
        E 50 90 18 60
        E 0 90 2b 60
        E 0 90 3f 60
        E 0 90 48 60
        E 0 90 4b 60
        E 0 90 54 60
        E 0 90 57 60
        E 0 90 60 60
        E 0 90 63 60
        E 30 80 18 00
        E 0 80 2b 00
        E 0 80 3f 00
        E 0 80 48 00
        E 0 80 4b 00
        E 0 80 54 00
        E 0 80 57 00
        E 0 80 60 00
        E 0 80 63 00
        E 50 90 1b 60
        E 0 90 61 60
        E 30 80 1b 00
        E 0 80 61 00
        E 50 90 18 60
        E 0 90 2b 60
        E 0 90 60 60
        E 0 90 63 60
        E 30 80 18 00
        E 0 80 2b 00
        E 0 80 60 00
        E 0 80 63 00
        E 50 90 1b 60
        E 0 90 55 60
        E 0 90 61 60
        E 30 80 1b 00
        E 0 80 55 00
        E 0 80 61 00
        E 50 90 2b 60
        E 0 90 63 60
        E 30 80 2b 00
        E 0 80 63 00
        E 50 90 18 60
        E 0 90 60 60
        E 30 80 18 00
        E 0 80 60 00
        E 10 90 18 60
        E 0 90 60 60
        E 30 80 18 00
        E 0 80 60 00
        E 10 90 1a 60
        E 0 90 2a 60
        E 0 90 3d 60
        E 0 90 49 60
        E 0 90 4b 60
        E 0 90 55 60
        E 0 90 57 60
        E 0 90 61 60
        E 0 90 63 60
        E 30 80 1a 00
        E 0 80 2a 00
        E 0 80 3d 00
        E 0 80 49 00
        E 0 80 4b 00
        E 0 80 55 00
        E 0 80 57 00
        E 0 80 61 00
        E 0 80 63 00
        E 130 90 2b 60
        E 0 90 63 60
        E 30 80 2b 00
        E 0 80 63 00
        E 50 90 1b 60
        E 0 90 55 60
        E 0 90 61 60
        E 30 80 1b 00
        E 0 80 55 00
        E 0 80 61 00
        E 50 90 18 60
        E 0 90 2b 60
        E 0 90 60 60
        E 0 90 63 60
        E 30 80 18 00
        E 0 80 2b 00
        E 0 80 60 00
        E 0 80 63 00
        E 50 90 1b 60
        E 0 90 61 60
        E 30 80 1b 00
        E 0 80 61 00
        E 50 90 18 60
        E 0 90 2b 60
        E 0 90 3f 60
        E 0 90 48 60
        E 0 90 4b 60
        E 0 90 54 60
        E 0 90 57 60
        E 0 90 60 60
        E 0 90 63 60
        E 30 80 18 00
        E 0 80 2b 00
        E 0 80 3f 00
        E 0 80 48 00
        E 0 80 4b 00
        E 0 80 54 00
        E 0 80 57 00
        E 0 80 60 00
        E 0 80 63 00
        E 50 90 1b 60
        E 0 90 61 60
        E 30 80 1b 00
        E 0 80 61 00
        E 50 90 18 60
        E 0 90 2b 60
        E 0 90 60 60
        E 0 90 63 60
        E 30 80 18 00
        E 0 80 2b 00
        E 0 80 60 00
        E 0 80 63 00
        E 50 90 1b 60
        E 0 90 55 60
        E 0 90 61 60
        E 30 80 1b 00
        E 0 80 55 00
        E 0 80 61 00
        E 49 90 2b 60
        E 0 90 63 60
        E 30 80 2b 00
        E 0 80 63 00
        E 50 90 18 60
        E 0 90 60 60
        E 30 80 18 00
        E 0 80 60 00
        E 10 90 18 60
        E 0 90 60 60
        E 30 80 18 00
        E 0 80 60 00
        E 11 90 1a 60
        E 0 90 2a 60
        E 0 90 3d 60
        E 0 90 49 60
        E 0 90 4b 60
        E 0 90 55 60
        E 0 90 57 60
        E 0 90 61 60
        E 0 90 63 60
        E 30 80 1a 00
        E 0 80 2a 00
        E 0 80 3d 00
        E 0 80 49 00
        E 0 80 4b 00
        E 0 80 55 00
        E 0 80 57 00
        E 0 80 61 00
        E 0 80 63 00
        E 130 90 2b 60
        E 0 90 63 60
        E 30 80 2b 00
        E 0 80 63 00
        E 50 90 1b 60
        E 0 90 55 60
        E 0 90 61 60
        E 30 80 1b 00
        E 0 80 55 00
        E 0 80 61 00
        E 50 90 2b 60
        E 0 90 63 60
        E 30 80 2b 00
        E 0 80 63 00
        E 50 90 1b 60
        E 0 90 61 60
        E 30 80 1b 00
        E 0 80 61 00
        E 50 90 18 60
        E 0 90 2b 60
        E 0 90 3f 60
        E 0 90 48 60
        E 0 90 4b 60
        E 0 90 54 60
        E 0 90 57 60
        E 0 90 60 60
        E 0 90 63 60
        E 30 80 18 00
        E 0 80 2b 00
        E 0 80 3f 00
        E 0 80 48 00
        E 0 80 4b 00
        E 0 80 54 00
        E 0 80 57 00
        E 0 80 60 00
        E 0 80 63 00
        E 50 90 1b 60
        E 0 90 61 60
        E 30 80 1b 00
        E 0 80 61 00
        E 50 90 18 60
        E 0 90 2b 60
        E 0 90 60 60
        E 0 90 63 60
        E 30 80 18 00
        E 0 80 2b 00
        E 0 80 60 00
        E 0 80 63 00
        E 50 90 1b 60
        E 0 90 55 60
        E 0 90 61 60
        E 30 80 1b 00
        E 0 80 55 00
        E 0 80 61 00
        E 50 90 2b 60
        E 0 90 63 60
        E 30 80 2b 00
        E 0 80 63 00
        E 50 90 18 60
        E 0 90 60 60
        E 30 80 18 00
        E 0 80 60 00
        E 10 90 18 60
        E 0 90 60 60
        E 30 80 18 00
        E 0 80 60 00
        E 10 90 1a 60
        E 0 90 2a 60
        E 0 90 3d 60
        E 0 90 49 60
        E 0 90 4b 60
        E 0 90 55 60
        E 0 90 57 60
        E 0 90 61 60
        E 0 90 63 60
        E 30 80 1a 00
        E 0 80 2a 00
        E 0 80 3d 00
        E 0 80 49 00
        E 0 80 4b 00
        E 0 80 55 00
        E 0 80 57 00
        E 0 80 61 00
        E 0 80 63 00
        E 130 90 1a 60
        E 0 90 61 60
        E 30 80 1a 00
        E 0 80 61 00
        E 50 90 1b 60
        E 0 90 55 60
        E 0 90 61 60
        E 30 80 1b 00
        E 0 80 55 00
        E 0 80 61 00
        E 130 90 1a 60
        E 0 90 61 60
        E 30 80 1a 00
        E 0 80 61 00
        E 50 90 1b 60
        E 0 90 3d 60
        E 0 90 49 60
        E 0 90 55 60
        E 0 90 61 60
        E 30 80 1b 00
        E 0 80 3d 00
        E 0 80 49 00
        E 0 80 55 00
        E 0 80 61 00
        E 50 90 1a 60
        E 0 90 61 60
        E 30 80 1a 00
        E 0 80 61 00
        E 50 90 2f 60
        E 0 90 62 60
        E 0 90 6e 60
        E 30 80 2f 00
        E 0 80 62 00
        E 0 80 6e 00
        E 50 90 2e 60
        E 0 90 56 60
        E 0 90 62 60
        E 0 90 6e 60
        E 30 80 2e 00
        E 0 80 56 00
        E 0 80 62 00
        E 0 80 6e 00
        E 50 90 31 60
        E 0 90 63 60
        E 0 90 6f 60
        E 30 80 31 00
        E 0 80 63 00
        E 0 80 6f 00
        E 50 90 18 60
        E 0 90 60 60
        E 30 80 18 00
        E 0 80 60 00
        E 50 90 1a 60
        E 0 90 24 60
        E 0 90 3d 60
        E 0 90 49 60
        E 0 90 4c 60
        E 0 90 55 60
        E 0 90 58 60
        E 0 90 61 60
        E 0 90 64 60
        E 30 80 1a 00
        E 0 80 24 00
        E 0 80 3d 00
        E 0 80 49 00
        E 0 80 4c 00
        E 0 80 55 00
        E 0 80 58 00
        E 0 80 61 00
        E 0 80 64 00
        E 130 90 2b 60
        E 0 90 63 60
        E 30 80 2b 00
        E 0 80 63 00
        E 50 90 1b 60
        E 0 90 55 60
        E 0 90 61 60
        E 30 80 1b 00
        E 0 80 55 00
        E 0 80 61 00
        E 50 90 18 60
        E 0 90 2b 60
        E 0 90 60 60
        E 0 90 63 60
        E 30 80 18 00
        E 0 80 2b 00
        E 0 80 60 00
        E 0 80 63 00
        E 50 90 1b 60
        E 0 90 61 60
        E 30 80 1b 00
        E 0 80 61 00
        E 50 90 18 60
        E 0 90 2b 60
        E 0 90 3f 60
        E 0 90 48 60
        E 0 90 4b 60
        E 0 90 54 60
        E 0 90 57 60
        E 0 90 60 60
        E 0 90 63 60
        E 30 80 18 00
        E 0 80 2b 00
        E 0 80 3f 00
        E 0 80 48 00
        E 0 80 4b 00
        E 0 80 54 00
        E 0 80 57 00
        E 0 80 60 00
        E 0 80 63 00
        E 50 90 1b 60
        E 0 90 61 60
        E 30 80 1b 00
        E 0 80 61 00
        E 50 90 18 60
        E 0 90 2b 60
        E 0 90 60 60
        E 0 90 63 60
        E 30 80 18 00
        E 0 80 2b 00
        E 0 80 60 00
        E 0 80 63 00
        E 50 90 1b 60
        E 0 90 55 60
        E 0 90 61 60
        E 30 80 1b 00
        E 0 80 55 00
        E 0 80 61 00
        E 50 90 2b 60
        E 0 90 63 60
        E 30 80 2b 00
        E 0 80 63 00
        E 50 90 18 60
        E 0 90 60 60
        E 30 80 18 00
        E 0 80 60 00
        E 10 90 18 60
        E 0 90 60 60
        E 30 80 18 00
        E 0 80 60 00
        E 10 90 1a 60
        E 0 90 2a 60
        E 0 90 3d 60
        E 0 90 49 60
        E 0 90 4b 60
        E 0 90 55 60
        E 0 90 57 60
        E 0 90 61 60
        E 0 90 63 60
        E 30 80 1a 00
        E 0 80 2a 00
        E 0 80 3d 00
        E 0 80 49 00
        E 0 80 4b 00
        E 0 80 55 00
        E 0 80 57 00
        E 0 80 61 00
        E 0 80 63 00
        E 130 90 2b 60
        E 0 90 63 60
        E 30 80 2b 00
        E 0 80 63 00
        E 50 90 1b 60
        E 0 90 55 60
        E 0 90 61 60
        E 30 80 1b 00
        E 0 80 55 00
        E 0 80 61 00
        E 50 90 2b 60
        E 0 90 63 60
        E 30 80 2b 00
        E 0 80 63 00
        E 50 90 1b 60
        E 0 90 61 60
        E 30 80 1b 00
        E 0 80 61 00
        E 50 90 18 60
        E 0 90 2b 60
        E 0 90 3f 60
        E 0 90 48 60
        E 0 90 4b 60
        E 0 90 54 60
        E 0 90 57 60
        E 0 90 60 60
        E 0 90 63 60
        E 30 80 18 00
        E 0 80 2b 00
        E 0 80 3f 00
        E 0 80 48 00
        E 0 80 4b 00
        E 0 80 54 00
        E 0 80 57 00
        E 0 80 60 00
        E 0 80 63 00
        E 50 90 1b 60
        E 0 90 61 60
        E 30 80 1b 00
        E 0 80 61 00
        E 50 90 18 60
        E 0 90 2b 60
        E 0 90 60 60
        E 0 90 63 60
        E 30 80 18 00
        E 0 80 2b 00
        E 0 80 60 00
        E 0 80 63 00
        E 50 90 1b 60
        E 0 90 55 60
        E 0 90 61 60
        E 30 80 1b 00
        E 0 80 55 00
        E 0 80 61 00
        E 49 90 2b 60
        E 0 90 63 60
        E 30 80 2b 00
        E 0 80 63 00
        E 50 90 18 60
        E 0 90 60 60
        E 30 80 18 00
        E 0 80 60 00
        E 10 90 18 60
        E 0 90 60 60
        E 30 80 18 00
        E 0 80 60 00
        E 11 90 1a 60
        E 0 90 2a 60
        E 0 90 3d 60
        E 0 90 49 60
        E 0 90 4b 60
        E 0 90 55 60
        E 0 90 57 60
        E 0 90 61 60
        E 0 90 63 60
        E 30 80 1a 00
        E 0 80 2a 00
        E 0 80 3d 00
        E 0 80 49 00
        E 0 80 4b 00
        E 0 80 55 00
        E 0 80 57 00
        E 0 80 61 00
        E 0 80 63 00
        E 130 90 2b 60
        E 0 90 63 60
        E 30 80 2b 00
        E 0 80 63 00
        E 50 90 1b 60
        E 0 90 55 60
        E 0 90 61 60
        E 30 80 1b 00
        E 0 80 55 00
        E 0 80 61 00
        E 50 90 2b 60
        E 0 90 63 60
        E 30 80 2b 00
        E 0 80 63 00
        E 50 90 1b 60
        E 0 90 61 60
        E 30 80 1b 00
        E 0 80 61 00
        E 50 90 18 60
        E 0 90 2b 60
        E 0 90 3f 60
        E 0 90 48 60
        E 0 90 4b 60
        E 0 90 54 60
        E 0 90 57 60
        E 0 90 60 60
        E 0 90 63 60
        E 30 80 18 00
        E 0 80 2b 00
        E 0 80 3f 00
        E 0 80 48 00
        E 0 80 4b 00
        E 0 80 54 00
        E 0 80 57 00
        E 0 80 60 00
        E 0 80 63 00
        E 50 90 1b 60
        E 0 90 61 60
        E 30 80 1b 00
        E 0 80 61 00
        E 50 90 18 60
        E 0 90 2b 60
        E 0 90 60 60
        E 0 90 63 60
        E 30 80 18 00
        E 0 80 2b 00
        E 0 80 60 00
        E 0 80 63 00
        E 50 90 1b 60
        E 0 90 55 60
        E 0 90 61 60
        E 30 80 1b 00
        E 0 80 55 00
        E 0 80 61 00
        E 49 90 2b 60
        E 0 90 63 60
        E 30 80 2b 00
        E 0 80 63 00
        E 50 90 18 60
        E 0 90 60 60
        E 30 80 18 00
        E 0 80 60 00
        E 10 90 18 60
        E 0 90 60 60
        E 30 80 18 00
        E 0 80 60 00
        E 11 90 1a 60
        E 0 90 2a 60
        E 0 90 3d 60
        E 0 90 49 60
        E 0 90 4b 60
        E 0 90 55 60
        E 0 90 57 60
        E 0 90 61 60
        E 0 90 63 60
        E 30 80 1a 00
        E 0 80 2a 00
        E 0 80 3d 00
        E 0 80 49 00
        E 0 80 4b 00
        E 0 80 55 00
        E 0 80 57 00
        E 0 80 61 00
        E 0 80 63 00
        E 130 90 1a 60
        E 0 90 61 60
        E 30 80 1a 00
        E 0 80 61 00
        E 50 90 1b 60
        E 0 90 55 60
        E 0 90 61 60
        E 30 80 1b 00
        E 0 80 55 00
        E 0 80 61 00
        E 129 90 1a 60
        E 0 90 61 60
        E 30 80 1a 00
        E 0 80 61 00
        E 51 90 18 60
        E 0 90 24 60
        E 0 90 40 60
        E 0 90 48 60
        E 0 90 4c 60
        E 0 90 54 60
        E 0 90 58 60
        E 0 90 60 60
        E 0 90 64 60
        E 30 80 18 00
        E 0 80 24 00
        E 0 80 40 00
        E 0 80 48 00
        E 0 80 4c 00
        E 0 80 54 00
        E 0 80 58 00
        E 0 80 60 00
        E 0 80 64 00
        E 50 90 1a 60
        E 0 90 61 60
        E 30 80 1a 00
        E 0 80 61 00
        E 50 90 1b 60
        E 0 90 61 60
        E 30 80 1b 00
        E 0 80 61 00
        E 50 90 1a 60
        E 0 90 55 60
        E 0 90 61 60
        E 30 80 1a 00
        E 0 80 55 00
        E 0 80 61 00
        E 50 90 18 60
        E 0 90 60 60
        E 30 80 18 00
        E 0 80 60 00
        E 50 90 18 60
        E 0 90 60 60
        E 30 80 18 00
        E 0 80 60 00
        E 50 90 1a 60
        E 0 90 24 60
        E 0 90 3d 60
        E 0 90 49 60
        E 0 90 4c 60
        E 0 90 55 60
        E 0 90 58 60
        E 0 90 61 60
        E 0 90 64 60
        E 30 80 1a 00
        E 0 80 24 00
        E 0 80 3d 00
        E 0 80 49 00
        E 0 80 4c 00
        E 0 80 55 00
        E 0 80 58 00
        E 0 80 61 00
        E 0 80 64 00
        E 130 90 2b 60
        E 0 90 63 60
        E 30 80 2b 00
        E 0 80 63 00
        E 50 90 1b 60
        E 0 90 55 60
        E 0 90 61 60
        E 30 80 1b 00
        E 0 80 55 00
        E 0 80 61 00
        E 50 90 18 60
        E 0 90 22 60
        E 0 90 60 60
        E 0 90 64 60
        E 30 80 18 00
        E 0 80 22 00
        E 0 80 60 00
        E 0 80 64 00
        E 50 90 1b 60
        E 0 90 61 60
        E 30 80 1b 00
        E 0 80 61 00
        E 50 90 18 60
        E 0 90 22 60
        E 0 90 40 60
        E 0 90 48 60
        E 0 90 4c 60
        E 0 90 54 60
        E 0 90 58 60
        E 0 90 60 60
        E 0 90 64 60
        E 30 80 18 00
        E 0 80 22 00
        E 0 80 40 00
        E 0 80 48 00
        E 0 80 4c 00
        E 0 80 54 00
        E 0 80 58 00
        E 0 80 60 00
        E 0 80 64 00
        E 50 90 1b 60
        E 0 90 61 60
        E 30 80 1b 00
        E 0 80 61 00
        E 50 90 18 60
        E 0 90 2b 60
        E 0 90 60 60
        E 0 90 63 60
        E 30 80 18 00
        E 0 80 2b 00
        E 0 80 60 00
        E 0 80 63 00
        E 50 90 1b 60
        E 0 90 55 60
        E 0 90 61 60
        E 30 80 1b 00
        E 0 80 55 00
        E 0 80 61 00
        E 49 90 2b 60
        E 0 90 63 60
        E 30 80 2b 00
        E 0 80 63 00
        E 50 90 18 60
        E 0 90 60 60
        E 30 80 18 00
        E 0 80 60 00
        E 10 90 18 60
        E 0 90 60 60
        E 30 80 18 00
        E 0 80 60 00
        E 11 90 1a 60
        E 0 90 2a 60
        E 0 90 3d 60
        E 0 90 49 60
        E 0 90 4b 60
        E 0 90 55 60
        E 0 90 57 60
        E 0 90 61 60
        E 0 90 63 60
        E 30 80 1a 00
        E 0 80 2a 00
        E 0 80 3d 00
        E 0 80 49 00
        E 0 80 4b 00
        E 0 80 55 00
        E 0 80 57 00
        E 0 80 61 00
        E 0 80 63 00
        E 130 90 2b 60
        E 0 90 63 60
        E 30 80 2b 00
        E 0 80 63 00
        E 50 90 1b 60
        E 0 90 55 60
        E 0 90 61 60
        E 30 80 1b 00
        E 0 80 55 00
        E 0 80 61 00
        E 50 90 18 60
        E 0 90 2b 60
        E 0 90 60 60
        E 0 90 63 60
        E 30 80 18 00
        E 0 80 2b 00
        E 0 80 60 00
        E 0 80 63 00
        E 49 90 1b 60
        E 0 90 61 60
        E 30 80 1b 00
        E 0 80 61 00
        E 51 90 18 60
        E 0 90 2b 60
        E 0 90 3f 60
        E 0 90 48 60
        E 0 90 4b 60
        E 0 90 54 60
        E 0 90 57 60
        E 0 90 60 60
        E 0 90 63 60
        E 30 80 18 00
        E 0 80 2b 00
        E 0 80 3f 00
        E 0 80 48 00
        E 0 80 4b 00
        E 0 80 54 00
        E 0 80 57 00
        E 0 80 60 00
        E 0 80 63 00
        E 50 90 1b 60
        E 0 90 61 60
        E 30 80 1b 00
        E 0 80 61 00
        E 50 90 1a 60
        E 0 90 61 60
        E 30 80 1a 00
        E 0 80 61 00
        E 10 90 1b 60
        E 0 90 61 60
        E 30 80 1b 00
        E 0 80 61 00
        E 10 90 1a 60
        E 0 90 55 60
        E 0 90 61 60
        E 30 80 1a 00
        E 0 80 55 00
        E 0 80 61 00
        E 50 90 1b 60
        E 0 90 61 60
        E 30 80 1b 00
        E 0 80 61 00
        E 50 90 1a 60
        E 0 90 61 60
        E 30 80 1a 00
        E 0 80 61 00
        E 50 90 18 60
        E 0 90 24 60
        E 0 90 40 60
        E 0 90 48 60
        E 0 90 4c 60
        E 0 90 54 60
        E 0 90 58 60
        E 0 90 60 60
        E 0 90 64 60
        E 30 80 18 00
        E 0 80 24 00
        E 0 80 40 00
        E 0 80 48 00
        E 0 80 4c 00
        E 0 80 54 00
        E 0 80 58 00
        E 0 80 60 00
        E 0 80 64 00
        E 50 90 1a 60
        E 0 90 61 60
        E 30 80 1a 00
        E 0 80 61 00
        E 50 90 1b 60
        E 0 90 61 60
        E 30 80 1b 00
        E 0 80 61 00
        E 10 90 1a 60
        E 0 90 61 60
        E 30 80 1a 00
        E 0 80 61 00
        E 10 90 1b 60
        E 0 90 55 60
        E 0 90 61 60
        E 30 80 1b 00
        E 0 80 55 00
        E 0 80 61 00
        E 50 90 1a 60
        E 0 90 61 60
        E 30 80 1a 00
        E 0 80 61 00
        E 50 90 1b 60
        E 0 90 61 60
        E 30 80 1b 00
        E 0 80 61 00
        E 50 90 18 60
        E 0 90 22 60
        E 0 90 40 60
        E 0 90 48 60
        E 0 90 4c 60
        E 0 90 54 60
        E 0 90 58 60
        E 0 90 60 60
        E 0 90 64 60
        E 30 80 18 00
        E 0 80 22 00
        E 0 80 40 00
        E 0 80 48 00
        E 0 80 4c 00
        E 0 80 54 00
        E 0 80 58 00
        E 0 80 60 00
        E 0 80 64 00
        E 50 90 1b 60
        E 0 90 61 60
        E 30 80 1b 00
        E 0 80 61 00
        E 50 90 1a 60
        E 0 90 61 60
        E 30 80 1a 00
        E 0 80 61 00
        E 50 90 1b 60
        E 0 90 55 60
        E 0 90 61 60
        E 30 80 1b 00
        E 0 80 55 00
        E 0 80 61 00
        E 50 90 2e 60
        E 0 90 62 60
        E 0 90 6e 60
        E 30 80 2e 00
        E 0 80 62 00
        E 0 80 6e 00
        E 50 90 1b 60
        E 0 90 61 60
        E 30 80 1b 00
        E 0 80 61 00
        E 50 90 1a 60
        E 0 90 3d 60
        E 0 90 49 60
        E 0 90 55 60
        E 0 90 61 60
        E 30 80 1a 00
        E 0 80 3d 00
        E 0 80 49 00
        E 0 80 55 00
        E 0 80 61 00
        E 50 90 1b 60
        E 0 90 61 60
        E 30 80 1b 00
        E 0 80 61 00
        E 50 90 2e 60
        E 0 90 62 60
        E 0 90 6e 60
        E 30 80 2e 00
        E 0 80 62 00
        E 0 80 6e 00
        E 50 90 2f 60
        E 0 90 56 60
        E 0 90 62 60
        E 0 90 6e 60
        E 30 80 2f 00
        E 0 80 56 00
        E 0 80 62 00
        E 0 80 6e 00
        E 50 90 30 60
        E 0 90 63 60
        E 0 90 6f 60
        E 30 80 30 00
        E 0 80 63 00
        E 0 80 6f 00
        E 49 90 31 60
        E 0 90 63 60
        E 0 90 6f 60
        E 30 80 31 00
        E 0 80 63 00
        E 0 80 6f 00
        E 51 90 18 60
        E 0 90 22 60
        E 0 90 40 60
        E 0 90 48 60
        E 0 90 4c 60
        E 0 90 54 60
        E 0 90 58 60
        E 0 90 60 60
        E 0 90 64 60
        E 30 80 18 00
        E 0 80 22 00
        E 0 80 40 00
        E 0 80 48 00
        E 0 80 4c 00
        E 0 80 54 00
        E 0 80 58 00
        E 0 80 60 00
        E 0 80 64 00
        E 130 90 18 60
        E 0 90 1f 60
        E 0 90 60 60
        E 0 90 62 60
        E 30 80 18 00
        E 0 80 1f 00
        E 0 80 60 00
        E 0 80 62 00
        E 50 90 1a 60
        E 0 90 55 60
        E 0 90 61 60
        E 30 80 1a 00
        E 0 80 55 00
        E 0 80 61 00
        E 50 90 1f 60
        E 0 90 62 60
        E 30 80 1f 00
        E 0 80 62 00
        E 50 90 18 60
        E 0 90 60 60
        E 30 80 18 00
        E 0 80 60 00
        E 50 90 1a 60
        E 0 90 1f 60
        E 0 90 3d 60
        E 0 90 49 60
        E 0 90 4a 60
        E 0 90 55 60
        E 0 90 56 60
        E 0 90 61 60
        E 0 90 62 60
        E 30 80 1a 00
        E 0 80 1f 00
        E 0 80 3d 00
        E 0 80 49 00
        E 0 80 4a 00
        E 0 80 55 00
        E 0 80 56 00
        E 0 80 61 00
        E 0 80 62 00
        E 130 90 1e 60
        E 0 90 62 60
        E 30 80 1e 00
        E 0 80 62 00
        E 50 90 1b 60
        E 0 90 55 60
        E 0 90 61 60
        E 30 80 1b 00
        E 0 80 55 00
        E 0 80 61 00
        E 50 90 18 60
        E 0 90 1e 60
        E 0 90 60 60
        E 0 90 62 60
        E 30 80 18 00
        E 0 80 1e 00
        E 0 80 60 00
        E 0 80 62 00
        E 50 90 1b 60
        E 0 90 61 60
        E 30 80 1b 00
        E 0 80 61 00
        E 50 90 18 60
        E 0 90 1e 60
        E 0 90 3e 60
        E 0 90 48 60
        E 0 90 4a 60
        E 0 90 54 60
        E 0 90 56 60
        E 0 90 60 60
        E 0 90 62 60
        E 30 80 18 00
        E 0 80 1e 00
        E 0 80 3e 00
        E 0 80 48 00
        E 0 80 4a 00
        E 0 80 54 00
        E 0 80 56 00
        E 0 80 60 00
        E 0 80 62 00
        E 50 90 1b 60
        E 0 90 61 60
        E 30 80 1b 00
        E 0 80 61 00
        E 50 90 18 60
        E 0 90 1e 60
        E 0 90 60 60
        E 0 90 62 60
        E 30 80 18 00
        E 0 80 1e 00
        E 0 80 60 00
        E 0 80 62 00
        E 50 90 1b 60
        E 0 90 55 60
        E 0 90 61 60
        E 30 80 1b 00
        E 0 80 55 00
        E 0 80 61 00
        E 50 90 18 60
        E 0 90 1e 60
        E 0 90 60 60
        E 0 90 62 60
        E 30 80 18 00
        E 0 80 1e 00
        E 0 80 60 00
        E 0 80 62 00
        E 50 90 18 60
        E 0 90 60 60
        E 30 80 18 00
        E 0 80 60 00
        E 50 90 1a 60
        E 0 90 1f 60
        E 0 90 3d 60
        E 0 90 49 60
        E 0 90 4a 60
        E 0 90 55 60
        E 0 90 56 60
        E 0 90 61 60
        E 0 90 62 60
        E 30 80 1a 00
        E 0 80 1f 00
        E 0 80 3d 00
        E 0 80 49 00
        E 0 80 4a 00
        E 0 80 55 00
        E 0 80 56 00
        E 0 80 61 00
        E 0 80 62 00
        E 130 90 18 60
        E 0 90 1e 60
        E 0 90 60 60
        E 0 90 62 60
        E 30 80 18 00
        E 0 80 1e 00
        E 0 80 60 00
        E 0 80 62 00
        E 50 90 1b 60
        E 0 90 55 60
        E 0 90 61 60
        E 30 80 1b 00
        E 0 80 55 00
        E 0 80 61 00
        E 50 90 1e 60
        E 0 90 62 60
        E 30 80 1e 00
        E 0 80 62 00
        E 50 90 1b 60
        E 0 90 61 60
        E 30 80 1b 00
        E 0 80 61 00
        E 50 90 18 60
        E 0 90 1e 60
        E 0 90 3e 60
        E 0 90 48 60
        E 0 90 4a 60
        E 0 90 54 60
        E 0 90 56 60
        E 0 90 60 60
        E 0 90 62 60
        E 30 80 18 00
        E 0 80 1e 00
        E 0 80 3e 00
        E 0 80 48 00
        E 0 80 4a 00
        E 0 80 54 00
        E 0 80 56 00
        E 0 80 60 00
        E 0 80 62 00
        E 50 90 1b 60
        E 0 90 61 60
        E 30 80 1b 00
        E 0 80 61 00
        E 50 90 1e 60
        E 0 90 62 60
        E 30 80 1e 00
        E 0 80 62 00
        E 50 90 1b 60
        E 0 90 55 60
        E 0 90 61 60
        E 30 80 1b 00
        E 0 80 55 00
        E 0 80 61 00
        E 50 90 18 60
        E 0 90 1e 60
        E 0 90 60 60
        E 0 90 62 60
        E 30 80 18 00
        E 0 80 1e 00
        E 0 80 60 00
        E 0 80 62 00
        E 50 90 18 60
        E 0 90 60 60
        E 30 80 18 00
        E 0 80 60 00
        E 50 90 1a 60
        E 0 90 1f 60
        E 0 90 3d 60
        E 0 90 49 60
        E 0 90 4a 60
        E 0 90 55 60
        E 0 90 56 60
        E 0 90 61 60
        E 0 90 62 60
        E 30 80 1a 00
        E 0 80 1f 00
        E 0 80 3d 00
        E 0 80 49 00
        E 0 80 4a 00
        E 0 80 55 00
        E 0 80 56 00
        E 0 80 61 00
        E 0 80 62 00
        E 130 90 1e 60
        E 0 90 62 60
        E 30 80 1e 00
        E 0 80 62 00
        E 50 90 1b 60
        E 0 90 55 60
        E 0 90 61 60
        E 30 80 1b 00
        E 0 80 55 00
        E 0 80 61 00
        E 50 90 18 60
        E 0 90 1e 60
        E 0 90 60 60
        E 0 90 62 60
        E 30 80 18 00
        E 0 80 1e 00
        E 0 80 60 00
        E 0 80 62 00
        E 50 90 1b 60
        E 0 90 61 60
        E 30 80 1b 00
        E 0 80 61 00
        E 50 90 18 60
        E 0 90 1e 60
        E 0 90 3e 60
        E 0 90 48 60
        E 0 90 4a 60
        E 0 90 54 60
        E 0 90 56 60
        E 0 90 60 60
        E 0 90 62 60
        E 30 80 18 00
        E 0 80 1e 00
        E 0 80 3e 00
        E 0 80 48 00
        E 0 80 4a 00
        E 0 80 54 00
        E 0 80 56 00
        E 0 80 60 00
        E 0 80 62 00
        E 50 90 1b 60
        E 0 90 61 60
        E 30 80 1b 00
        E 0 80 61 00
        E 50 90 18 60
        E 0 90 1e 60
        E 0 90 60 60
        E 0 90 62 60
        E 30 80 18 00
        E 0 80 1e 00
        E 0 80 60 00
        E 0 80 62 00
        E 50 90 1b 60
        E 0 90 55 60
        E 0 90 61 60
        E 30 80 1b 00
        E 0 80 55 00
        E 0 80 61 00
        E 50 90 18 60
        E 0 90 1e 60
        E 0 90 60 60
        E 0 90 62 60
        E 30 80 18 00
        E 0 80 1e 00
        E 0 80 60 00
        E 0 80 62 00
        E 50 90 18 60
        E 0 90 60 60
        E 30 80 18 00
        E 0 80 60 00
        E 50 90 1a 60
        E 0 90 1f 60
        E 0 90 3d 60
        E 0 90 49 60
        E 0 90 4a 60
        E 0 90 55 60
        E 0 90 56 60
        E 0 90 61 60
        E 0 90 62 60
        E 30 80 1a 00
        E 0 80 1f 00
        E 0 80 3d 00
        E 0 80 49 00
        E 0 80 4a 00
        E 0 80 55 00
        E 0 80 56 00
        E 0 80 61 00
        E 0 80 62 00
        E 130 90 18 60
        E 0 90 1e 60
        E 0 90 60 60
        E 0 90 62 60
        E 30 80 18 00
        E 0 80 1e 00
        E 0 80 60 00
        E 0 80 62 00
        E 50 90 1b 60
        E 0 90 55 60
        E 0 90 61 60
        E 30 80 1b 00
        E 0 80 55 00
        E 0 80 61 00
        E 50 90 1e 60
        E 0 90 62 60
        E 30 80 1e 00
        E 0 80 62 00
        E 50 90 1b 60
        E 0 90 61 60
        E 30 80 1b 00
        E 0 80 61 00
        E 50 90 18 60
        E 0 90 1e 60
        E 0 90 3e 60
        E 0 90 48 60
        E 0 90 4a 60
        E 0 90 54 60
        E 0 90 56 60
        E 0 90 60 60
        E 0 90 62 60
        E 0 90 74 60
        E 30 80 18 00
        E 0 80 1e 00
        E 0 80 3e 00
        E 0 80 48 00
        E 0 80 4a 00
        E 0 80 54 00
        E 0 80 56 00
        E 0 80 60 00
        E 0 80 62 00
        E 50 90 1b 60
        E 0 90 61 60
        E 30 80 1b 00
        E 0 80 61 00
        E 50 90 1e 60
        E 0 90 62 60
        E 30 80 1e 00
        E 0 80 62 00
        E 50 90 1b 60
        E 0 90 55 60
        E 0 90 61 60
        E 30 80 1b 00
        E 0 80 55 00
        E 0 80 61 00
        E 50 90 18 60
        E 0 90 1e 60
        E 0 90 60 60
        E 0 90 62 60
        E 30 80 18 00
        E 0 80 1e 00
        E 0 80 60 00
        E 0 80 62 00
        E 50 90 18 60
        E 0 90 60 60
        E 30 80 18 00
        E 0 80 60 00
        E 50 90 1a 60
        E 0 90 1f 60
        E 0 90 3d 60
        E 0 90 49 60
        E 0 90 4a 60
        E 0 90 55 60
        E 0 90 56 60
        E 0 90 61 60
        E 0 90 62 60
        E 30 80 1a 00
        E 0 80 1f 00
        E 0 80 3d 00
        E 0 80 49 00
        E 0 80 4a 00
        E 0 80 55 00
        E 0 80 56 00
        E 0 80 61 00
        E 0 80 62 00
        E 130 90 1e 60
        E 0 90 62 60
        E 30 80 1e 00
        E 0 80 62 00
        E 50 90 1b 60
        E 0 90 55 60
        E 0 90 61 60
        E 30 80 1b 00
        E 0 80 55 00
        E 0 80 61 00
        E 50 90 18 60
        E 0 90 1e 60
        E 0 90 60 60
        E 0 90 62 60
        E 30 80 18 00
        E 0 80 1e 00
        E 0 80 60 00
        E 0 80 62 00
        E 50 90 1b 60
        E 0 90 61 60
        E 30 80 1b 00
        E 0 80 61 00
        E 50 90 18 60
        E 0 90 1e 60
        E 0 90 3e 60
        E 0 90 48 60
        E 0 90 4a 60
        E 0 90 54 60
        E 0 90 56 60
        E 0 90 60 60
        E 0 90 62 60
        E 30 80 18 00
        E 0 80 1e 00
        E 0 80 3e 00
        E 0 80 48 00
        E 0 80 4a 00
        E 0 80 54 00
        E 0 80 56 00
        E 0 80 60 00
        E 0 80 62 00
        E 50 90 1b 60
        E 0 90 61 60
        E 30 80 1b 00
        E 0 80 61 00
        E 50 90 1e 60
        E 0 90 62 60
        E 30 80 1e 00
        E 0 80 62 00
        E 50 90 1b 60
        E 0 90 55 60
        E 0 90 61 60
        E 30 80 1b 00
        E 0 80 55 00
        E 0 80 61 00
        E 50 90 18 60
        E 0 90 1e 60
        E 0 90 60 60
        E 0 90 62 60
        E 30 80 18 00
        E 0 80 1e 00
        E 0 80 60 00
        E 0 80 62 00
        E 50 90 18 60
        E 0 90 60 60
        E 30 80 18 00
        E 0 80 60 00
        E 50 90 1a 60
        E 0 90 1f 60
        E 0 90 3d 60
        E 0 90 49 60
        E 0 90 4a 60
        E 0 90 55 60
        E 0 90 56 60
        E 0 90 61 60
        E 0 90 62 60
        E 30 80 1a 00
        E 0 80 1f 00
        E 0 80 3d 00
        E 0 80 49 00
        E 0 80 4a 00
        E 0 80 55 00
        E 0 80 56 00
        E 0 80 61 00
        E 0 80 62 00
        E 130 90 18 60
        E 0 90 1e 60
        E 0 90 60 60
        E 0 90 62 60
        E 30 80 18 00
        E 0 80 1e 00
        E 0 80 60 00
        E 0 80 62 00
        E 50 90 1b 60
        E 0 90 55 60
        E 0 90 61 60
        E 30 80 1b 00
        E 0 80 55 00
        E 0 80 61 00
        E 50 90 1e 60
        E 0 90 62 60
        E 30 80 1e 00
        E 0 80 62 00
        E 50 90 1b 60
        E 0 90 61 60
        E 30 80 1b 00
        E 0 80 61 00
        E 50 80 74 00
        E 0 90 18 60
        E 0 90 1e 60
        E 0 90 3e 60
        E 0 90 48 60
        E 0 90 4a 60
        E 0 90 54 60
        E 0 90 56 60
        E 0 90 60 60
        E 0 90 62 60
        E 30 80 18 00
        E 0 80 1e 00
        E 0 80 3e 00
        E 0 80 48 00
        E 0 80 4a 00
        E 0 80 54 00
        E 0 80 56 00
        E 0 80 60 00
        E 0 80 62 00
        E 50 90 1b 60
        E 0 90 61 60
        E 30 80 1b 00
        E 0 80 61 00
        E 50 90 1a 60
        E 0 90 61 60
        E 30 80 1a 00
        E 0 80 61 00
        E 50 90 1b 60
        E 0 90 55 60
        E 0 90 61 60
        E 30 80 1b 00
        E 0 80 55 00
        E 0 80 61 00
        E 50 90 1a 60
        E 0 90 61 60
        E 30 80 1a 00
        E 0 80 61 00
        E 50 90 1b 60
        E 0 90 61 60
        E 30 80 1b 00
        E 0 80 61 00
        E 50 90 18 60
        E 0 90 22 60
        E 0 90 40 60
        E 0 90 48 60
        E 0 90 4c 60
        E 0 90 54 60
        E 0 90 58 60
        E 0 90 60 60
        E 0 90 64 60
        E 30 80 18 00
        E 0 80 22 00
        E 0 80 40 00
        E 0 80 48 00
        E 0 80 4c 00
        E 0 80 54 00
        E 0 80 58 00
        E 0 80 60 00
        E 0 80 64 00
        E 50 90 1b 60
        E 0 90 61 60
        E 30 80 1b 00
        E 0 80 61 00
        E 50 90 1a 60
        E 0 90 61 60
        E 30 80 1a 00
        E 0 80 61 00
        E 50 90 1b 60
        E 0 90 55 60
        E 0 90 61 60
        E 30 80 1b 00
        E 0 80 55 00
        E 0 80 61 00
        E 50 90 1a 60
        E 0 90 61 60
        E 30 80 1a 00
        E 0 80 61 00
        E 50 90 1b 60
        E 0 90 61 60
        E 30 80 1b 00
        E 0 80 61 00
        E 50 90 18 60
        E 0 90 22 60
        E 0 90 40 60
        E 0 90 48 60
        E 0 90 4c 60
        E 0 90 54 60
        E 0 90 58 60
        E 0 90 60 60
        E 0 90 64 60
        E 0 90 78 60
        E 0 90 79 60
        E 0 90 7a 60
        E 0 90 7b 60
        E 0 90 7c 60
        E 30 80 18 00
        E 0 80 22 00
        E 0 80 40 00
        E 0 80 48 00
        E 0 80 4c 00
        E 0 80 54 00
        E 0 80 58 00
        E 0 80 60 00
        E 0 80 64 00
        E 50 90 1b 60
        E 0 90 61 60
        E 30 80 1b 00
        E 0 80 61 00
        E 50 90 1a 60
        E 0 90 61 60
        E 30 80 1a 00
        E 0 80 61 00
        E 50 90 1b 60
        E 0 90 55 60
        E 0 90 61 60
        E 30 80 1b 00
        E 0 80 55 00
        E 0 80 61 00
        E 50 90 2e 60
        E 0 90 62 60
        E 0 90 6e 60
        E 30 80 2e 00
        E 0 80 62 00
        E 0 80 6e 00
        E 50 90 1b 60
        E 0 90 61 60
        E 30 80 1b 00
        E 0 80 61 00
        E 50 90 1a 60
        E 0 90 3d 60
        E 0 90 49 60
        E 0 90 55 60
        E 0 90 61 60
        E 30 80 1a 00
        E 0 80 3d 00
        E 0 80 49 00
        E 0 80 55 00
        E 0 80 61 00
        E 50 90 1b 60
        E 0 90 61 60
        E 30 80 1b 00
        E 0 80 61 00
        E 50 90 2e 60
        E 0 90 62 60
        E 0 90 6e 60
        E 30 80 2e 00
        E 0 80 62 00
        E 0 80 6e 00
        E 50 90 2f 60
        E 0 90 56 60
        E 0 90 62 60
        E 0 90 6e 60
        E 30 80 2f 00
        E 0 80 56 00
        E 0 80 62 00
        E 0 80 6e 00
        E 50 90 30 60
        E 0 90 63 60
        E 0 90 6f 60
        E 30 80 30 00
        E 0 80 63 00
        E 0 80 6f 00
        E 50 90 31 60
        E 0 90 63 60
        E 0 90 6f 60
        E 30 80 31 00
        E 0 80 63 00
        E 0 80 6f 00
        E 50 80 78 00
        E 0 80 79 00
        E 0 80 7a 00
        E 0 80 7b 00
        E 0 80 7c 00
        E 0 90 18 60
        E 0 90 22 60
        E 0 90 40 60
        E 0 90 48 60
        E 0 90 4c 60
        E 0 90 54 60
        E 0 90 58 60
        E 0 90 60 60
        E 0 90 64 60
        E 30 80 18 00
        E 0 80 22 00
        E 0 80 40 00
        E 0 80 48 00
        E 0 80 4c 00
        E 0 80 54 00
        E 0 80 58 00
        E 0 80 60 00
        E 0 80 64 00
        E 130 90 1f 60
        E 0 90 62 60
        E 30 80 1f 00
        E 0 80 62 00
        E 50 90 1a 60
        E 0 90 55 60
        E 0 90 61 60
        E 30 80 1a 00
        E 0 80 55 00
        E 0 80 61 00
        E 50 90 18 60
        E 0 90 1f 60
        E 0 90 60 60
        E 0 90 62 60
        E 30 80 18 00
        E 0 80 1f 00
        E 0 80 60 00
        E 0 80 62 00
        E 50 90 18 60
        E 0 90 60 60
        E 30 80 18 00
        E 0 80 60 00
        E 50 90 1a 60
        E 0 90 1f 60
        E 0 90 3d 60
        E 0 90 49 60
        E 0 90 4a 60
        E 0 90 55 60
        E 0 90 56 60
        E 0 90 61 60
        E 0 90 62 60
        E 30 80 1a 00
        E 0 80 1f 00
        E 0 80 3d 00
        E 0 80 49 00
        E 0 80 4a 00
        E 0 80 55 00
        E 0 80 56 00
        E 0 80 61 00
        E 0 80 62 00
        E 130 90 1e 60
        E 0 90 62 60
        E 30 80 1e 00
        E 0 80 62 00
        E 50 90 1b 60
        E 0 90 55 60
        E 0 90 61 60
        E 30 80 1b 00
        E 0 80 55 00
        E 0 80 61 00
        E 50 90 18 60
        E 0 90 1e 60
        E 0 90 60 60
        E 0 90 62 60
        E 30 80 18 00
        E 0 80 1e 00
        E 0 80 60 00
        E 0 80 62 00
        E 50 90 1b 60
        E 0 90 61 60
        E 30 80 1b 00
        E 0 80 61 00
        E 50 90 18 60
        E 0 90 1e 60
        E 0 90 3e 60
        E 0 90 48 60
        E 0 90 4a 60
        E 0 90 54 60
        E 0 90 56 60
        E 0 90 60 60
        E 0 90 62 60
        E 30 80 18 00
        E 0 80 1e 00
        E 0 80 3e 00
        E 0 80 48 00
        E 0 80 4a 00
        E 0 80 54 00
        E 0 80 56 00
        E 0 80 60 00
        E 0 80 62 00
        E 50 90 1b 60
        E 0 90 61 60
        E 30 80 1b 00
        E 0 80 61 00
        E 50 90 1e 60
        E 0 90 62 60
        E 30 80 1e 00
        E 0 80 62 00
        E 50 90 1b 60
        E 0 90 55 60
        E 0 90 61 60
        E 30 80 1b 00
        E 0 80 55 00
        E 0 80 61 00
        E 50 90 18 60
        E 0 90 1e 60
        E 0 90 60 60
        E 0 90 62 60
        E 30 80 18 00
        E 0 80 1e 00
        E 0 80 60 00
        E 0 80 62 00
        E 50 90 18 60
        E 0 90 60 60
        E 30 80 18 00
        E 0 80 60 00
        E 50 90 1a 60
        E 0 90 1f 60
        E 0 90 3d 60
        E 0 90 49 60
        E 0 90 4a 60
        E 0 90 55 60
        E 0 90 56 60
        E 0 90 61 60
        E 0 90 62 60
        E 30 80 1a 00
        E 0 80 1f 00
        E 0 80 3d 00
        E 0 80 49 00
        E 0 80 4a 00
        E 0 80 55 00
        E 0 80 56 00
        E 0 80 61 00
        E 0 80 62 00
        E 130 90 18 60
        E 0 90 1e 60
        E 0 90 60 60
        E 0 90 62 60
        E 30 80 18 00
        E 0 80 1e 00
        E 0 80 60 00
        E 0 80 62 00
        E 50 90 1b 60
        E 0 90 55 60
        E 0 90 61 60
        E 30 80 1b 00
        E 0 80 55 00
        E 0 80 61 00
        E 50 90 1e 60
        E 0 90 62 60
        E 30 80 1e 00
        E 0 80 62 00
        E 50 90 1b 60
        E 0 90 61 60
        E 30 80 1b 00
        E 0 80 61 00
        E 50 90 18 60
        E 0 90 1e 60
        E 0 90 3e 60
        E 0 90 48 60
        E 0 90 4a 60
        E 0 90 54 60
        E 0 90 56 60
        E 0 90 60 60
        E 0 90 62 60
        E 30 80 18 00
        E 0 80 1e 00
        E 0 80 3e 00
        E 0 80 48 00
        E 0 80 4a 00
        E 0 80 54 00
        E 0 80 56 00
        E 0 80 60 00
        E 0 80 62 00
        E 50 90 1b 60
        E 0 90 61 60
        E 30 80 1b 00
        E 0 80 61 00
        E 50 90 1e 60
        E 0 90 62 60
        E 30 80 1e 00
        E 0 80 62 00
        E 50 90 1b 60
        E 0 90 55 60
        E 0 90 61 60
        E 30 80 1b 00
        E 0 80 55 00
        E 0 80 61 00
        E 50 90 18 60
        E 0 90 1e 60
        E 0 90 60 60
        E 0 90 62 60
        E 30 80 18 00
        E 0 80 1e 00
        E 0 80 60 00
        E 0 80 62 00
        E 50 90 18 60
        E 0 90 60 60
        E 30 80 18 00
        E 0 80 60 00
        E 50 90 1a 60
        E 0 90 1f 60
        E 0 90 3d 60
        E 0 90 49 60
        E 0 90 4a 60
        E 0 90 55 60
        E 0 90 56 60
        E 0 90 61 60
        E 0 90 62 60
        E 30 80 1a 00
        E 0 80 1f 00
        E 0 80 3d 00
        E 0 80 49 00
        E 0 80 4a 00
        E 0 80 55 00
        E 0 80 56 00
        E 0 80 61 00
        E 0 80 62 00
        E 130 90 1e 60
        E 0 90 62 60
        E 30 80 1e 00
        E 0 80 62 00
        E 50 90 1b 60
        E 0 90 55 60
        E 0 90 61 60
        E 30 80 1b 00
        E 0 80 55 00
        E 0 80 61 00
        E 50 90 18 60
        E 0 90 1e 60
        E 0 90 60 60
        E 0 90 62 60
        E 30 80 18 00
        E 0 80 1e 00
        E 0 80 60 00
        E 0 80 62 00
        E 50 90 1b 60
        E 0 90 61 60
        E 30 80 1b 00
        E 0 80 61 00
        E 50 90 18 60
        E 0 90 1e 60
        E 0 90 3e 60
        E 0 90 48 60
        E 0 90 4a 60
        E 0 90 54 60
        E 0 90 56 60
        E 0 90 60 60
        E 0 90 62 60
        E 0 90 78 60
        E 0 90 79 60
        E 0 90 7a 60
        E 0 90 7b 60
        E 0 90 7c 60
        E 30 80 18 00
        E 0 80 1e 00
        E 0 80 3e 00
        E 0 80 48 00
        E 0 80 4a 00
        E 0 80 54 00
        E 0 80 56 00
        E 0 80 60 00
        E 0 80 62 00
        E 50 90 1b 60
        E 0 90 61 60
        E 30 80 1b 00
        E 0 80 61 00
        E 50 90 1a 60
        E 0 90 61 60
        E 30 80 1a 00
        E 0 80 61 00
        E 50 90 1b 60
        E 0 90 55 60
        E 0 90 61 60
        E 30 80 1b 00
        E 0 80 55 00
        E 0 80 61 00
        E 50 90 1a 60
        E 0 90 61 60
        E 30 80 1a 00
        E 0 80 61 00
        E 50 90 1b 60
        E 0 90 61 60
        E 30 80 1b 00
        E 0 80 61 00
        E 50 90 18 60
        E 0 90 22 60
        E 0 90 40 60
        E 0 90 48 60
        E 0 90 4c 60
        E 0 90 54 60
        E 0 90 58 60
        E 0 90 60 60
        E 0 90 64 60
        E 30 80 18 00
        E 0 80 22 00
        E 0 80 40 00
        E 0 80 48 00
        E 0 80 4c 00
        E 0 80 54 00
        E 0 80 58 00
        E 0 80 60 00
        E 0 80 64 00
        E 50 90 1b 60
        E 0 90 61 60
        E 30 80 1b 00
        E 0 80 61 00
        E 50 90 1a 60
        E 0 90 61 60
        E 30 80 1a 00
        E 0 80 61 00
        E 50 90 1b 60
        E 0 90 55 60
        E 0 90 61 60
        E 30 80 1b 00
        E 0 80 55 00
        E 0 80 61 00
        E 50 90 18 60
        E 0 90 22 60
        E 0 90 60 60
        E 0 90 64 60
        E 30 80 18 00
        E 0 80 22 00
        E 0 80 60 00
        E 0 80 64 00
        E 50 90 18 60
        E 0 90 2a 60
        E 0 90 60 60
        E 0 90 63 60
        E 30 80 18 00
        E 0 80 2a 00
        E 0 80 60 00
        E 0 80 63 00
        E 50 90 18 60
        E 0 90 22 60
        E 0 90 40 60
        E 0 90 48 60
        E 0 90 4c 60
        E 0 90 54 60
        E 0 90 58 60
        E 0 90 60 60
        E 0 90 64 60
        E 1 80 78 00
        E 0 80 79 00
        E 0 80 7a 00
        E 0 80 7b 00
        E 0 80 7c 00
        E 29 80 18 00
        E 0 80 22 00
        E 0 80 40 00
        E 0 80 48 00
        E 0 80 4c 00
        E 0 80 54 00
        E 0 80 58 00
        E 0 80 60 00
        E 0 80 64 00
        E 130 90 1f 60
        E 0 90 62 60
        E 30 80 1f 00
        E 0 80 62 00
        E 50 90 1a 60
        E 0 90 55 60
        E 0 90 61 60
        E 30 80 1a 00
        E 0 80 55 00
        E 0 80 61 00
        E 50 90 18 60
        E 0 90 1f 60
        E 0 90 60 60
        E 0 90 62 60
        E 30 80 18 00
        E 0 80 1f 00
        E 0 80 60 00
        E 0 80 62 00
        E 50 90 18 60
        E 0 90 60 60
        E 30 80 18 00
        E 0 80 60 00
        E 50 90 1a 60
        E 0 90 1f 60
        E 0 90 3d 60
        E 0 90 49 60
        E 0 90 4a 60
        E 0 90 55 60
        E 0 90 56 60
        E 0 90 61 60
        E 0 90 62 60
        E 30 80 1a 00
        E 0 80 1f 00
        E 0 80 3d 00
        E 0 80 49 00
        E 0 80 4a 00
        E 0 80 55 00
        E 0 80 56 00
        E 0 80 61 00
        E 0 80 62 00
        E 130 90 1e 60
        E 0 90 62 60
        E 30 80 1e 00
        E 0 80 62 00
        E 50 90 1b 60
        E 0 90 55 60
        E 0 90 61 60
        E 30 80 1b 00
        E 0 80 55 00
        E 0 80 61 00
        E 49 90 18 60
        E 0 90 1e 60
        E 0 90 60 60
        E 0 90 62 60
        E 30 80 18 00
        E 0 80 1e 00
        E 0 80 60 00
        E 0 80 62 00
        E 51 90 1b 60
        E 0 90 61 60
        E 30 80 1b 00
        E 0 80 61 00
        E 50 90 18 60
        E 0 90 1e 60
        E 0 90 3e 60
        E 0 90 48 60
        E 0 90 4a 60
        E 0 90 54 60
        E 0 90 56 60
        E 0 90 60 60
        E 0 90 62 60
        E 30 80 18 00
        E 0 80 1e 00
        E 0 80 3e 00
        E 0 80 48 00
        E 0 80 4a 00
        E 0 80 54 00
        E 0 80 56 00
        E 0 80 60 00
        E 0 80 62 00
        E 50 90 1b 60
        E 0 90 61 60
        E 30 80 1b 00
        E 0 80 61 00
        E 50 90 1e 60
        E 0 90 62 60
        E 30 80 1e 00
        E 0 80 62 00
        E 50 90 1b 60
        E 0 90 55 60
        E 0 90 61 60
        E 30 80 1b 00
        E 0 80 55 00
        E 0 80 61 00
        E 50 90 18 60
        E 0 90 1e 60
        E 0 90 60 60
        E 0 90 62 60
        E 30 80 18 00
        E 0 80 1e 00
        E 0 80 60 00
        E 0 80 62 00
        E 50 90 18 60
        E 0 90 60 60
        E 30 80 18 00
        E 0 80 60 00
        E 50 90 1a 60
        E 0 90 1f 60
        E 0 90 3d 60
        E 0 90 49 60
        E 0 90 4a 60
        E 0 90 55 60
        E 0 90 56 60
        E 0 90 61 60
        E 0 90 62 60
        E 30 80 1a 00
        E 0 80 1f 00
        E 0 80 3d 00
        E 0 80 49 00
        E 0 80 4a 00
        E 0 80 55 00
        E 0 80 56 00
        E 0 80 61 00
        E 0 80 62 00
        E 130 90 18 60
        E 0 90 1e 60
        E 0 90 60 60
        E 0 90 62 60
        E 30 80 18 00
        E 0 80 1e 00
        E 0 80 60 00
        E 0 80 62 00
        E 50 90 1b 60
        E 0 90 55 60
        E 0 90 61 60
        E 30 80 1b 00
        E 0 80 55 00
        E 0 80 61 00
        E 50 90 1e 60
        E 0 90 62 60
        E 30 80 1e 00
        E 0 80 62 00
        E 50 90 1b 60
        E 0 90 61 60
        E 30 80 1b 00
        E 0 80 61 00
        E 50 90 18 60
        E 0 90 1e 60
        E 0 90 3e 60
        E 0 90 48 60
        E 0 90 4a 60
        E 0 90 54 60
        E 0 90 56 60
        E 0 90 60 60
        E 0 90 62 60
        E 30 80 18 00
        E 0 80 1e 00
        E 0 80 3e 00
        E 0 80 48 00
        E 0 80 4a 00
        E 0 80 54 00
        E 0 80 56 00
        E 0 80 60 00
        E 0 80 62 00
        E 50 90 1b 60
        E 0 90 61 60
        E 30 80 1b 00
        E 0 80 61 00
        E 50 90 18 60
        E 0 90 1a 60
        E 0 90 60 60
        E 0 90 61 60
        E 30 80 18 00
        E 0 80 1a 00
        E 0 80 60 00
        E 0 80 61 00
        E 50 90 1b 60
        E 0 90 55 60
        E 0 90 61 60
        E 30 80 1b 00
        E 0 80 55 00
        E 0 80 61 00
        E 50 90 18 60
        E 0 90 1a 60
        E 0 90 60 60
        E 0 90 61 60
        E 30 80 18 00
        E 0 80 1a 00
        E 0 80 60 00
        E 0 80 61 00
        E 50 90 1b 60
        E 0 90 61 60
        E 30 80 1b 00
        E 0 80 61 00
        E 50 90 18 60
        E 0 90 1a 60
        E 0 90 3d 60
        E 0 90 49 60
        E 0 90 54 60
        E 0 90 55 60
        E 0 90 60 60
        E 0 90 61 60
        E 30 80 18 00
        E 0 80 1a 00
        E 0 80 3d 00
        E 0 80 49 00
        E 0 80 54 00
        E 0 80 55 00
        E 0 80 60 00
        E 0 80 61 00
        E 50 90 1b 60
        E 0 90 61 60
        E 30 80 1b 00
        E 0 80 61 00
        E 50 90 18 60
        E 0 90 1a 60
        E 0 90 60 60
        E 0 90 61 60
        E 30 80 18 00
        E 0 80 1a 00
        E 0 80 60 00
        E 0 80 61 00
        E 50 90 1b 60
        E 0 90 55 60
        E 0 90 61 60
        E 30 80 1b 00
        E 0 80 55 00
        E 0 80 61 00
        E 50 90 18 60
        E 0 90 1a 60
        E 0 90 60 60
        E 0 90 61 60
        E 30 80 18 00
        E 0 80 1a 00
        E 0 80 60 00
        E 0 80 61 00
        E 50 90 1b 60
        E 0 90 61 60
        E 30 80 1b 00
        E 0 80 61 00
        E 50 90 18 60
        E 0 90 1a 60
        E 0 90 3d 60
        E 0 90 49 60
        E 0 90 54 60
        E 0 90 55 60
        E 0 90 60 60
        E 0 90 61 60
        E 30 80 18 00
        E 0 80 1a 00
        E 0 80 3d 00
        E 0 80 49 00
        E 0 80 54 00
        E 0 80 55 00
        E 0 80 60 00
        E 0 80 61 00
        E 50 90 1b 60
        E 0 90 61 60
        E 30 80 1b 00
        E 0 80 61 00
        E 50 90 18 60
        E 0 90 1a 60
        E 0 90 60 60
        E 0 90 61 60
        E 30 80 18 00
        E 0 80 1a 00
        E 0 80 60 00
        E 0 80 61 00
        E 50 90 1b 60
        E 0 90 55 60
        E 0 90 61 60
        E 30 80 1b 00
        E 0 80 55 00
        E 0 80 61 00
        E 50 90 18 60
        E 0 90 1a 60
        E 0 90 60 60
        E 0 90 61 60
        E 30 80 18 00
        E 0 80 1a 00
        E 0 80 60 00
        E 0 80 61 00
        E 50 90 1b 60
        E 0 90 61 60
        E 30 80 1b 00
        E 0 80 61 00
        E 50 90 18 60
        E 0 90 1a 60
        E 0 90 3d 60
        E 0 90 49 60
        E 0 90 54 60
        E 0 90 55 60
        E 0 90 60 60
        E 0 90 61 60
        E 30 80 18 00
        E 0 80 1a 00
        E 0 80 3d 00
        E 0 80 49 00
        E 0 80 54 00
        E 0 80 55 00
        E 0 80 60 00
        E 0 80 61 00
        E 50 90 1b 60
        E 0 90 61 60
        E 30 80 1b 00
        E 0 80 61 00
        E 50 90 1a 60
        E 0 90 61 60
        E 30 80 1a 00
        E 0 80 61 00
        E 23 90 1b 60
        E 0 90 61 60
        E 30 80 1b 00
        E 0 80 61 00
        E 23 90 1a 60
        E 0 90 61 60
        E 30 80 1a 00
        E 0 80 61 00
        E 24 90 1b 60
        E 0 90 61 60
        E 30 80 1b 00
        E 0 80 61 00
        E 23 90 1a 60
        E 0 90 61 60
        E 30 80 1a 00
        E 0 80 61 00
        E 23 90 1b 60
        E 0 90 61 60
        E 30 80 1b 00
        E 0 80 61 00
        E 24 90 18 60
        E 0 90 22 60
        E 0 90 40 60
        E 0 90 48 60
        E 0 90 4c 60
        E 0 90 54 60
        E 0 90 58 60
        E 0 90 60 60
        E 0 90 64 60
        E 30 80 18 00
        E 0 80 22 00
        E 0 80 40 00
        E 0 80 48 00
        E 0 80 4c 00
        E 0 80 54 00
        E 0 80 58 00
        E 0 80 60 00
        E 0 80 64 00
        E 130 90 2a 60
        E 0 90 63 60
        E 30 80 2a 00
        E 0 80 63 00
        E 50 90 1a 60
        E 0 90 55 60
        E 0 90 61 60
        E 30 80 1a 00
        E 0 80 55 00
        E 0 80 61 00
        E 50 90 18 60
        E 0 90 2a 60
        E 0 90 60 60
        E 0 90 63 60
        E 30 80 18 00
        E 0 80 2a 00
        E 0 80 60 00
        E 0 80 63 00
        E 130 90 1a 60
        E 0 90 24 60
        E 0 90 3d 60
        E 0 90 49 60
        E 0 90 4c 60
        E 0 90 55 60
        E 0 90 58 60
        E 0 90 61 60
        E 0 90 64 60
        E 30 80 1a 00
        E 0 80 24 00
        E 0 80 3d 00
        E 0 80 49 00
        E 0 80 4c 00
        E 0 80 55 00
        E 0 80 58 00
        E 0 80 61 00
        E 0 80 64 00
        E 130 90 2b 60
        E 0 90 63 60
        E 30 80 2b 00
        E 0 80 63 00
        E 50 90 1b 60
        E 0 90 55 60
        E 0 90 61 60
        E 30 80 1b 00
        E 0 80 55 00
        E 0 80 61 00
        E 50 90 18 60
        E 0 90 2b 60
        E 0 90 60 60
        E 0 90 63 60
        E 30 80 18 00
        E 0 80 2b 00
        E 0 80 60 00
        E 0 80 63 00
        E 50 90 1b 60
        E 0 90 61 60
        E 30 80 1b 00
        E 0 80 61 00
        E 50 90 18 60
        E 0 90 2b 60
        E 0 90 3f 60
        E 0 90 48 60
        E 0 90 4b 60
        E 0 90 54 60
        E 0 90 57 60
        E 0 90 60 60
        E 0 90 63 60
        E 30 80 18 00
        E 0 80 2b 00
        E 0 80 3f 00
        E 0 80 48 00
        E 0 80 4b 00
        E 0 80 54 00
        E 0 80 57 00
        E 0 80 60 00
        E 0 80 63 00
        E 50 90 1b 60
        E 0 90 61 60
        E 30 80 1b 00
        E 0 80 61 00
        E 50 90 18 60
        E 0 90 2b 60
        E 0 90 60 60
        E 0 90 63 60
        E 30 80 18 00
        E 0 80 2b 00
        E 0 80 60 00
        E 0 80 63 00
        E 49 90 1b 60
        E 0 90 55 60
        E 0 90 61 60
        E 30 80 1b 00
        E 0 80 55 00
        E 0 80 61 00
        E 50 90 2b 60
        E 0 90 63 60
        E 30 80 2b 00
        E 0 80 63 00
        E 50 90 18 60
        E 0 90 60 60
        E 30 80 18 00
        E 0 80 60 00
        E 10 90 18 60
        E 0 90 60 60
        E 30 80 18 00
        E 0 80 60 00
        E 11 90 1a 60
        E 0 90 2a 60
        E 0 90 3d 60
        E 0 90 49 60
        E 0 90 4b 60
        E 0 90 55 60
        E 0 90 57 60
        E 0 90 61 60
        E 0 90 63 60
        E 30 80 1a 00
        E 0 80 2a 00
        E 0 80 3d 00
        E 0 80 49 00
        E 0 80 4b 00
        E 0 80 55 00
        E 0 80 57 00
        E 0 80 61 00
        E 0 80 63 00
        E 130 90 2b 60
        E 0 90 63 60
        E 30 80 2b 00
        E 0 80 63 00
        E 50 90 1b 60
        E 0 90 55 60
        E 0 90 61 60
        E 30 80 1b 00
        E 0 80 55 00
        E 0 80 61 00
        E 50 90 18 60
        E 0 90 2b 60
        E 0 90 60 60
        E 0 90 63 60
        E 30 80 18 00
        E 0 80 2b 00
        E 0 80 60 00
        E 0 80 63 00
        E 50 90 1b 60
        E 0 90 61 60
        E 30 80 1b 00
        E 0 80 61 00
        E 50 90 18 60
        E 0 90 2b 60
        E 0 90 3f 60
        E 0 90 48 60
        E 0 90 4b 60
        E 0 90 54 60
        E 0 90 57 60
        E 0 90 60 60
        E 0 90 63 60
        E 30 80 18 00
        E 0 80 2b 00
        E 0 80 3f 00
        E 0 80 48 00
        E 0 80 4b 00
        E 0 80 54 00
        E 0 80 57 00
        E 0 80 60 00
        E 0 80 63 00
        E 50 90 1b 60
        E 0 90 61 60
        E 30 80 1b 00
        E 0 80 61 00
        E 50 90 18 60
        E 0 90 2b 60
        E 0 90 60 60
        E 0 90 63 60
        E 30 80 18 00
        E 0 80 2b 00
        E 0 80 60 00
        E 0 80 63 00
        E 50 90 1b 60
        E 0 90 55 60
        E 0 90 61 60
        E 30 80 1b 00
        E 0 80 55 00
        E 0 80 61 00
        E 50 90 2b 60
        E 0 90 63 60
        E 30 80 2b 00
        E 0 80 63 00
        E 49 90 18 60
        E 0 90 60 60
        E 30 80 18 00
        E 0 80 60 00
        E 10 90 18 60
        E 0 90 60 60
        E 30 80 18 00
        E 0 80 60 00
        E 11 90 1a 60
        E 0 90 2a 60
        E 0 90 3d 60
        E 0 90 49 60
        E 0 90 4b 60
        E 0 90 55 60
        E 0 90 57 60
        E 0 90 61 60
        E 0 90 63 60
        E 30 80 1a 00
        E 0 80 2a 00
        E 0 80 3d 00
        E 0 80 49 00
        E 0 80 4b 00
        E 0 80 55 00
        E 0 80 57 00
        E 0 80 61 00
        E 0 80 63 00
        E 130 90 2b 60
        E 0 90 63 60
        E 30 80 2b 00
        E 0 80 63 00
        E 50 90 1b 60
        E 0 90 55 60
        E 0 90 61 60
        E 30 80 1b 00
        E 0 80 55 00
        E 0 80 61 00
        E 50 90 18 60
        E 0 90 2b 60
        E 0 90 60 60
        E 0 90 63 60
        E 30 80 18 00
        E 0 80 2b 00
        E 0 80 60 00
        E 0 80 63 00
        E 50 90 1b 60
        E 0 90 61 60
        E 30 80 1b 00
        E 0 80 61 00
        E 50 90 18 60
        E 0 90 2b 60
        E 0 90 3f 60
        E 0 90 48 60
        E 0 90 4b 60
        E 0 90 54 60
        E 0 90 57 60
        E 0 90 60 60
        E 0 90 63 60
        E 30 80 18 00
        E 0 80 2b 00
        E 0 80 3f 00
        E 0 80 48 00
        E 0 80 4b 00
        E 0 80 54 00
        E 0 80 57 00
        E 0 80 60 00
        E 0 80 63 00
        E 50 90 1b 60
        E 0 90 61 60
        E 30 80 1b 00
        E 0 80 61 00
        E 50 90 18 60
        E 0 90 2b 60
        E 0 90 60 60
        E 0 90 63 60
        E 30 80 18 00
        E 0 80 2b 00
        E 0 80 60 00
        E 0 80 63 00
        E 50 90 1b 60
        E 0 90 55 60
        E 0 90 61 60
        E 30 80 1b 00
        E 0 80 55 00
        E 0 80 61 00
        E 50 90 2b 60
        E 0 90 63 60
        E 30 80 2b 00
        E 0 80 63 00
        E 50 90 18 60
        E 0 90 60 60
        E 30 80 18 00
        E 0 80 60 00
        E 10 90 18 60
        E 0 90 60 60
        E 30 80 18 00
        E 0 80 60 00
        E 10 90 1a 60
        E 0 90 2a 60
        E 0 90 3d 60
        E 0 90 49 60
        E 0 90 4b 60
        E 0 90 55 60
        E 0 90 57 60
        E 0 90 61 60
        E 0 90 63 60
        E 30 80 1a 00
        E 0 80 2a 00
        E 0 80 3d 00
        E 0 80 49 00
        E 0 80 4b 00
        E 0 80 55 00
        E 0 80 57 00
        E 0 80 61 00
        E 0 80 63 00
        E 130 90 1a 60
        E 0 90 61 60
        E 30 80 1a 00
        E 0 80 61 00
        E 50 90 1b 60
        E 0 90 55 60
        E 0 90 61 60
        E 30 80 1b 00
        E 0 80 55 00
        E 0 80 61 00
        E 130 90 1a 60
        E 0 90 61 60
        E 30 80 1a 00
        E 0 80 61 00
        E 50 90 1b 60
        E 0 90 3d 60
        E 0 90 49 60
        E 0 90 55 60
        E 0 90 61 60
        E 30 80 1b 00
        E 0 80 3d 00
        E 0 80 49 00
        E 0 80 55 00
        E 0 80 61 00
        E 50 90 1a 60
        E 0 90 61 60
        E 30 80 1a 00
        E 0 80 61 00
        E 50 90 2f 60
        E 0 90 62 60
        E 0 90 6e 60
        E 30 80 2f 00
        E 0 80 62 00
        E 0 80 6e 00
        E 50 90 2e 60
        E 0 90 56 60
        E 0 90 62 60
        E 0 90 6e 60
        E 30 80 2e 00
        E 0 80 56 00
        E 0 80 62 00
        E 0 80 6e 00
        E 50 90 31 60
        E 0 90 63 60
        E 0 90 6f 60
        E 30 80 31 00
        E 0 80 63 00
        E 0 80 6f 00
        E 50 90 18 60
        E 0 90 60 60
        E 30 80 18 00
        E 0 80 60 00
        E 50 90 1a 60
        E 0 90 24 60
        E 0 90 3d 60
        E 0 90 49 60
        E 0 90 4c 60
        E 0 90 55 60
        E 0 90 58 60
        E 0 90 61 60
        E 0 90 64 60
        E 30 80 1a 00
        E 0 80 24 00
        E 0 80 3d 00
        E 0 80 49 00
        E 0 80 4c 00
        E 0 80 55 00
        E 0 80 58 00
        E 0 80 61 00
        E 0 80 64 00
        E 130 90 2b 60
        E 0 90 63 60
        E 30 80 2b 00
        E 0 80 63 00
        E 50 90 1b 60
        E 0 90 55 60
        E 0 90 61 60
        E 30 80 1b 00
        E 0 80 55 00
        E 0 80 61 00
        E 50 90 18 60
        E 0 90 2b 60
        E 0 90 60 60
        E 0 90 63 60
        E 30 80 18 00
        E 0 80 2b 00
        E 0 80 60 00
        E 0 80 63 00
        E 50 90 1b 60
        E 0 90 61 60
        E 30 80 1b 00
        E 0 80 61 00
        E 50 90 18 60
        E 0 90 2b 60
        E 0 90 3f 60
        E 0 90 48 60
        E 0 90 4b 60
        E 0 90 54 60
        E 0 90 57 60
        E 0 90 60 60
        E 0 90 63 60
        E 30 80 18 00
        E 0 80 2b 00
        E 0 80 3f 00
        E 0 80 48 00
        E 0 80 4b 00
        E 0 80 54 00
        E 0 80 57 00
        E 0 80 60 00
        E 0 80 63 00
        E 50 90 1b 60
        E 0 90 61 60
        E 30 80 1b 00
        E 0 80 61 00
        E 50 90 18 60
        E 0 90 2b 60
        E 0 90 60 60
        E 0 90 63 60
        E 30 80 18 00
        E 0 80 2b 00
        E 0 80 60 00
        E 0 80 63 00
        E 49 90 1b 60
        E 0 90 55 60
        E 0 90 61 60
        E 30 80 1b 00
        E 0 80 55 00
        E 0 80 61 00
        E 50 90 2b 60
        E 0 90 63 60
        E 30 80 2b 00
        E 0 80 63 00
        E 50 90 18 60
        E 0 90 60 60
        E 30 80 18 00
        E 0 80 60 00
        E 10 90 18 60
        E 0 90 60 60
        E 30 80 18 00
        E 0 80 60 00
        E 11 90 1a 60
        E 0 90 2a 60
        E 0 90 3d 60
        E 0 90 49 60
        E 0 90 4b 60
        E 0 90 55 60
        E 0 90 57 60
        E 0 90 61 60
        E 0 90 63 60
        E 30 80 1a 00
        E 0 80 2a 00
        E 0 80 3d 00
        E 0 80 49 00
        E 0 80 4b 00
        E 0 80 55 00
        E 0 80 57 00
        E 0 80 61 00
        E 0 80 63 00
        E 130 90 2b 60
        E 0 90 63 60
        E 30 80 2b 00
        E 0 80 63 00
        E 50 90 1b 60
        E 0 90 55 60
        E 0 90 61 60
        E 30 80 1b 00
        E 0 80 55 00
        E 0 80 61 00
        E 50 90 18 60
        E 0 90 2b 60
        E 0 90 60 60
        E 0 90 63 60
        E 30 80 18 00
        E 0 80 2b 00
        E 0 80 60 00
        E 0 80 63 00
        E 50 90 1b 60
        E 0 90 61 60
        E 30 80 1b 00
        E 0 80 61 00
        E 50 90 18 60
        E 0 90 2b 60
        E 0 90 3f 60
        E 0 90 48 60
        E 0 90 4b 60
        E 0 90 54 60
        E 0 90 57 60
        E 0 90 60 60
        E 0 90 63 60
        E 30 80 18 00
        E 0 80 2b 00
        E 0 80 3f 00
        E 0 80 48 00
        E 0 80 4b 00
        E 0 80 54 00
        E 0 80 57 00
        E 0 80 60 00
        E 0 80 63 00
        E 50 90 1b 60
        E 0 90 61 60
        E 30 80 1b 00
        E 0 80 61 00
        E 50 90 1a 60
        E 0 90 61 60
        E 30 80 1a 00
        E 0 80 61 00
        E 23 90 1b 60
        E 0 90 61 60
        E 30 80 1b 00
        E 0 80 61 00
        E 23 90 1a 60
        E 0 90 61 60
        E 30 80 1a 00
        E 0 80 61 00
        E 24 90 1b 60
        E 0 90 61 60
        E 30 80 1b 00
        E 0 80 61 00
        E 23 90 1a 60
        E 0 90 61 60
        E 30 80 1a 00
        E 0 80 61 00
        E 23 90 1b 60
        E 0 90 61 60
        E 30 80 1b 00
        E 0 80 61 00
        E 24 90 18 60
        E 0 90 22 60
        E 0 90 40 60
        E 0 90 48 60
        E 0 90 4c 60
        E 0 90 54 60
        E 0 90 58 60
        E 0 90 60 60
        E 0 90 64 60
        E 30 80 18 00
        E 0 80 22 00
        E 0 80 40 00
        E 0 80 48 00
        E 0 80 4c 00
        E 0 80 54 00
        E 0 80 58 00
        E 0 80 60 00
        E 0 80 64 00
        E 50 90 1b 60
        E 0 90 61 60
        E 30 80 1b 00
        E 0 80 61 00
        E 50 90 1a 60
        E 0 90 61 60
        E 30 80 1a 00
        E 0 80 61 00
        E 24 90 1b 60
        E 0 90 61 60
        E 30 80 1b 00
        E 0 80 61 00
        E 23 90 1a 60
        E 0 90 61 60
        E 30 80 1a 00
        E 0 80 61 00
        E 23 90 1b 60
        E 0 90 61 60
        E 30 80 1b 00
        E 0 80 61 00
        E 23 90 1a 60
        E 0 90 61 60
        E 30 80 1a 00
        E 0 80 61 00
        E 24 90 1b 60
        E 0 90 61 60
        E 30 80 1b 00
        E 0 80 61 00
        E 23 90 18 60
        E 0 90 22 60
        E 0 90 40 60
        E 0 90 48 60
        E 0 90 4c 60
        E 0 90 54 60
        E 0 90 58 60
        E 0 90 60 60
        E 0 90 64 60
        E 30 80 18 00
        E 0 80 22 00
        E 0 80 40 00
        E 0 80 48 00
        E 0 80 4c 00
        E 0 80 54 00
        E 0 80 58 00
        E 0 80 60 00
        E 0 80 64 00
        E 50 90 1b 60
        E 0 90 61 60
        E 30 80 1b 00
        E 0 80 61 00
        E 50 90 1a 60
        E 0 90 61 60
        E 30 80 1a 00
        E 0 80 61 00
        E 23 90 1b 60
        E 0 90 61 60
        E 30 80 1b 00
        E 0 80 61 00
        E 24 90 1a 60
        E 0 90 61 60
        E 30 80 1a 00
        E 0 80 61 00
        E 23 90 1b 60
        E 0 90 61 60
        E 30 80 1b 00
        E 0 80 61 00
        E 23 90 1a 60
        E 0 90 61 60
        E 30 80 1a 00
        E 0 80 61 00
        E 24 90 1b 60
        E 0 90 61 60
        E 30 80 1b 00
        E 0 80 61 00
        E 23 90 18 60
        E 0 90 22 60
        E 0 90 40 60
        E 0 90 48 60
        E 0 90 4c 60
        E 0 90 54 60
        E 0 90 58 60
        E 0 90 60 60
        E 0 90 64 60
        E 30 80 18 00
        E 0 80 22 00
        E 0 80 40 00
        E 0 80 48 00
        E 0 80 4c 00
        E 0 80 54 00
        E 0 80 58 00
        E 0 80 60 00
        E 0 80 64 00
        E 50 90 1b 60
        E 0 90 61 60
        E 30 80 1b 00
        E 0 80 61 00
        E 50 90 1a 60
        E 0 90 61 60
        E 30 80 1a 00
        E 0 80 61 00
        E 50 90 1b 60
        E 0 90 55 60
        E 0 90 61 60
        E 30 80 1b 00
        E 0 80 55 00
        E 0 80 61 00
        E 130 90 1a 60
        E 0 90 61 60
        E 30 80 1a 00
        E 0 80 61 00
        E 50 90 18 60
        E 0 90 24 60
        E 0 90 40 60
        E 0 90 48 60
        E 0 90 4c 60
        E 0 90 54 60
        E 0 90 58 60
        E 0 90 60 60
        E 0 90 64 60
        E 0 90 74 60
        E 30 80 18 00
        E 0 80 24 00
        E 0 80 40 00
        E 0 80 48 00
        E 0 80 4c 00
        E 0 80 54 00
        E 0 80 58 00
        E 0 80 60 00
        E 0 80 64 00
        E 50 90 1a 60
        E 0 90 61 60
        E 30 80 1a 00
        E 0 80 61 00
        E 50 90 1b 60
        E 0 90 61 60
        E 30 80 1b 00
        E 0 80 61 00
        E 50 90 1a 60
        E 0 90 55 60
        E 0 90 61 60
        E 30 80 1a 00
        E 0 80 55 00
        E 0 80 61 00
        E 50 90 2f 60
        E 0 90 62 60
        E 0 90 6e 60
        E 30 80 2f 00
        E 0 80 62 00
        E 0 80 6e 00
        E 50 90 18 60
        E 0 90 60 60
        E 30 80 18 00
        E 0 80 60 00
        E 50 90 1a 60
        E 0 90 24 60
        E 0 90 3d 60
        E 0 90 49 60
        E 0 90 4c 60
        E 0 90 55 60
        E 0 90 58 60
        E 0 90 61 60
        E 0 90 64 60
        E 30 80 1a 00
        E 0 80 24 00
        E 0 80 3d 00
        E 0 80 49 00
        E 0 80 4c 00
        E 0 80 55 00
        E 0 80 58 00
        E 0 80 61 00
        E 0 80 64 00
        E 130 90 2b 60
        E 0 90 63 60
        E 30 80 2b 00
        E 0 80 63 00
        E 50 90 1b 60
        E 0 90 55 60
        E 0 90 61 60
        E 30 80 1b 00
        E 0 80 55 00
        E 0 80 61 00
        E 50 90 18 60
        E 0 90 2b 60
        E 0 90 60 60
        E 0 90 63 60
        E 30 80 18 00
        E 0 80 2b 00
        E 0 80 60 00
        E 0 80 63 00
        E 50 90 1b 60
        E 0 90 61 60
        E 30 80 1b 00
        E 0 80 61 00
        E 50 90 18 60
        E 0 90 2b 60
        E 0 90 3f 60
        E 0 90 48 60
        E 0 90 4b 60
        E 0 90 54 60
        E 0 90 57 60
        E 0 90 60 60
        E 0 90 63 60
        E 30 80 18 00
        E 0 80 2b 00
        E 0 80 3f 00
        E 0 80 48 00
        E 0 80 4b 00
        E 0 80 54 00
        E 0 80 57 00
        E 0 80 60 00
        E 0 80 63 00
        E 50 90 1b 60
        E 0 90 61 60
        E 30 80 1b 00
        E 0 80 61 00
        E 50 90 18 60
        E 0 90 2b 60
        E 0 90 60 60
        E 0 90 63 60
        E 30 80 18 00
        E 0 80 2b 00
        E 0 80 60 00
        E 0 80 63 00
        E 49 90 1b 60
        E 0 90 55 60
        E 0 90 61 60
        E 30 80 1b 00
        E 0 80 55 00
        E 0 80 61 00
        E 50 90 2b 60
        E 0 90 63 60
        E 30 80 2b 00
        E 0 80 63 00
        E 50 90 18 60
        E 0 90 60 60
        E 30 80 18 00
        E 0 80 60 00
        E 10 90 18 60
        E 0 90 60 60
        E 30 80 18 00
        E 0 80 60 00
        E 11 90 1a 60
        E 0 90 2a 60
        E 0 90 3d 60
        E 0 90 49 60
        E 0 90 4b 60
        E 0 90 55 60
        E 0 90 57 60
        E 0 90 61 60
        E 0 90 63 60
        E 30 80 1a 00
        E 0 80 2a 00
        E 0 80 3d 00
        E 0 80 49 00
        E 0 80 4b 00
        E 0 80 55 00
        E 0 80 57 00
        E 0 80 61 00
        E 0 80 63 00
        E 130 90 2b 60
        E 0 90 63 60
        E 30 80 2b 00
        E 0 80 63 00
        E 50 90 1b 60
        E 0 90 55 60
        E 0 90 61 60
        E 30 80 1b 00
        E 0 80 55 00
        E 0 80 61 00
        E 50 90 18 60
        E 0 90 2b 60
        E 0 90 60 60
        E 0 90 63 60
        E 30 80 18 00
        E 0 80 2b 00
        E 0 80 60 00
        E 0 80 63 00
        E 50 90 1b 60
        E 0 90 61 60
        E 30 80 1b 00
        E 0 80 61 00
        E 50 80 74 00
        E 0 90 18 60
        E 0 90 2b 60
        E 0 90 3f 60
        E 0 90 48 60
        E 0 90 4b 60
        E 0 90 54 60
        E 0 90 57 60
        E 0 90 60 60
        E 0 90 63 60
        E 30 80 18 00
        E 0 80 2b 00
        E 0 80 3f 00
        E 0 80 48 00
        E 0 80 4b 00
        E 0 80 54 00
        E 0 80 57 00
        E 0 80 60 00
        E 0 80 63 00
        E 50 90 1b 60
        E 0 90 61 60
        E 30 80 1b 00
        E 0 80 61 00
        E 50 90 18 60
        E 0 90 2b 60
        E 0 90 60 60
        E 0 90 63 60
        E 30 80 18 00
        E 0 80 2b 00
        E 0 80 60 00
        E 0 80 63 00
        E 50 90 1b 60
        E 0 90 55 60
        E 0 90 61 60
        E 30 80 1b 00
        E 0 80 55 00
        E 0 80 61 00
        E 50 90 2b 60
        E 0 90 63 60
        E 30 80 2b 00
        E 0 80 63 00
        E 50 90 18 60
        E 0 90 60 60
        E 30 80 18 00
        E 0 80 60 00
        E 10 90 18 60
        E 0 90 60 60
        E 30 80 18 00
        E 0 80 60 00
        E 10 90 1a 60
        E 0 90 2a 60
        E 0 90 3d 60
        E 0 90 49 60
        E 0 90 4b 60
        E 0 90 55 60
        E 0 90 57 60
        E 0 90 61 60
        E 0 90 63 60
        E 30 80 1a 00
        E 0 80 2a 00
        E 0 80 3d 00
        E 0 80 49 00
        E 0 80 4b 00
        E 0 80 55 00
        E 0 80 57 00
        E 0 80 61 00
        E 0 80 63 00
        E 130 90 2b 60
        E 0 90 63 60
        E 30 80 2b 00
        E 0 80 63 00
        E 50 90 1b 60
        E 0 90 55 60
        E 0 90 61 60
        E 30 80 1b 00
        E 0 80 55 00
        E 0 80 61 00
        E 50 90 18 60
        E 0 90 2b 60
        E 0 90 60 60
        E 0 90 63 60
        E 30 80 18 00
        E 0 80 2b 00
        E 0 80 60 00
        E 0 80 63 00
        E 50 90 1b 60
        E 0 90 61 60
        E 30 80 1b 00
        E 0 80 61 00
        E 50 90 18 60
        E 0 90 2b 60
        E 0 90 3f 60
        E 0 90 48 60
        E 0 90 4b 60
        E 0 90 54 60
        E 0 90 57 60
        E 0 90 60 60
        E 0 90 63 60
        E 30 80 18 00
        E 0 80 2b 00
        E 0 80 3f 00
        E 0 80 48 00
        E 0 80 4b 00
        E 0 80 54 00
        E 0 80 57 00
        E 0 80 60 00
        E 0 80 63 00
        E 50 90 1b 60
        E 0 90 61 60
        E 30 80 1b 00
        E 0 80 61 00
        E 50 90 18 60
        E 0 90 2b 60
        E 0 90 60 60
        E 0 90 63 60
        E 30 80 18 00
        E 0 80 2b 00
        E 0 80 60 00
        E 0 80 63 00
        E 50 90 1b 60
        E 0 90 55 60
        E 0 90 61 60
        E 30 80 1b 00
        E 0 80 55 00
        E 0 80 61 00
        E 49 90 2b 60
        E 0 90 63 60
        E 30 80 2b 00
        E 0 80 63 00
        E 50 90 18 60
        E 0 90 60 60
        E 30 80 18 00
        E 0 80 60 00
        E 10 90 18 60
        E 0 90 60 60
        E 30 80 18 00
        E 0 80 60 00
        E 10 90 78 60
        E 0 90 79 60
        E 0 90 7a 60
        E 0 90 7b 60
        E 0 90 7c 60
        E 1 90 1a 60
        E 0 90 2a 60
        E 0 90 3d 60
        E 0 90 49 60
        E 0 90 4b 60
        E 0 90 55 60
        E 0 90 57 60
        E 0 90 61 60
        E 0 90 63 60
        E 30 80 1a 00
        E 0 80 2a 00
        E 0 80 3d 00
        E 0 80 49 00
        E 0 80 4b 00
        E 0 80 55 00
        E 0 80 57 00
        E 0 80 61 00
        E 0 80 63 00
        E 130 90 1a 60
        E 0 90 61 60
        E 30 80 1a 00
        E 0 80 61 00
        E 50 90 1b 60
        E 0 90 55 60
        E 0 90 61 60
        E 30 80 1b 00
        E 0 80 55 00
        E 0 80 61 00
        E 129 90 1a 60
        E 0 90 61 60
        E 30 80 1a 00
        E 0 80 61 00
        E 51 90 1b 60
        E 0 90 3d 60
        E 0 90 49 60
        E 0 90 55 60
        E 0 90 61 60
        E 30 80 1b 00
        E 0 80 3d 00
        E 0 80 49 00
        E 0 80 55 00
        E 0 80 61 00
        E 50 90 1a 60
        E 0 90 61 60
        E 30 80 1a 00
        E 0 80 61 00
        E 50 90 2f 60
        E 0 90 62 60
        E 0 90 6e 60
        E 30 80 2f 00
        E 0 80 62 00
        E 0 80 6e 00
        E 50 90 2e 60
        E 0 90 56 60
        E 0 90 62 60
        E 0 90 6e 60
        E 30 80 2e 00
        E 0 80 56 00
        E 0 80 62 00
        E 0 80 6e 00
        E 50 90 31 60
        E 0 90 63 60
        E 0 90 6f 60
        E 30 80 31 00
        E 0 80 63 00
        E 0 80 6f 00
        E 50 90 18 60
        E 0 90 60 60
        E 30 80 18 00
        E 0 80 60 00
        E 50 80 78 00
        E 0 80 79 00
        E 0 80 7a 00
        E 0 80 7b 00
        E 0 80 7c 00
        E 0 90 1a 60
        E 0 90 24 60
        E 0 90 3d 60
        E 0 90 49 60
        E 0 90 4c 60
        E 0 90 55 60
        E 0 90 58 60
        E 0 90 61 60
        E 0 90 64 60
        E 30 80 1a 00
        E 0 80 24 00
        E 0 80 3d 00
        E 0 80 49 00
        E 0 80 4c 00
        E 0 80 55 00
        E 0 80 58 00
        E 0 80 61 00
        E 0 80 64 00
        E 130 90 2b 60
        E 0 90 63 60
        E 30 80 2b 00
        E 0 80 63 00
        E 50 90 1b 60
        E 0 90 55 60
        E 0 90 61 60
        E 30 80 1b 00
        E 0 80 55 00
        E 0 80 61 00
        E 50 90 18 60
        E 0 90 2b 60
        E 0 90 60 60
        E 0 90 63 60
        E 30 80 18 00
        E 0 80 2b 00
        E 0 80 60 00
        E 0 80 63 00
        E 50 90 1b 60
        E 0 90 61 60
        E 30 80 1b 00
        E 0 80 61 00
        E 50 90 18 60
        E 0 90 2b 60
        E 0 90 3f 60
        E 0 90 48 60
        E 0 90 4b 60
        E 0 90 54 60
        E 0 90 57 60
        E 0 90 60 60
        E 0 90 63 60
        E 30 80 18 00
        E 0 80 2b 00
        E 0 80 3f 00
        E 0 80 48 00
        E 0 80 4b 00
        E 0 80 54 00
        E 0 80 57 00
        E 0 80 60 00
        E 0 80 63 00
        E 50 90 1b 60
        E 0 90 61 60
        E 30 80 1b 00
        E 0 80 61 00
        E 50 90 18 60
        E 0 90 2b 60
        E 0 90 60 60
        E 0 90 63 60
        E 30 80 18 00
        E 0 80 2b 00
        E 0 80 60 00
        E 0 80 63 00
        E 50 90 1b 60
        E 0 90 55 60
        E 0 90 61 60
        E 30 80 1b 00
        E 0 80 55 00
        E 0 80 61 00
        E 49 90 2b 60
        E 0 90 63 60
        E 30 80 2b 00
        E 0 80 63 00
        E 50 90 18 60
        E 0 90 60 60
        E 30 80 18 00
        E 0 80 60 00
        E 10 90 18 60
        E 0 90 60 60
        E 30 80 18 00
        E 0 80 60 00
        E 11 90 1a 60
        E 0 90 2a 60
        E 0 90 3d 60
        E 0 90 49 60
        E 0 90 4b 60
        E 0 90 55 60
        E 0 90 57 60
        E 0 90 61 60
        E 0 90 63 60
        E 30 80 1a 00
        E 0 80 2a 00
        E 0 80 3d 00
        E 0 80 49 00
        E 0 80 4b 00
        E 0 80 55 00
        E 0 80 57 00
        E 0 80 61 00
        E 0 80 63 00
        E 130 90 2b 60
        E 0 90 63 60
        E 30 80 2b 00
        E 0 80 63 00
        E 50 90 1b 60
        E 0 90 55 60
        E 0 90 61 60
        E 30 80 1b 00
        E 0 80 55 00
        E 0 80 61 00
        E 49 90 18 60
        E 0 90 2b 60
        E 0 90 60 60
        E 0 90 63 60
        E 30 80 18 00
        E 0 80 2b 00
        E 0 80 60 00
        E 0 80 63 00
        E 50 90 1b 60
        E 0 90 61 60
        E 30 80 1b 00
        E 0 80 61 00
        E 51 90 18 60
        E 0 90 2b 60
        E 0 90 3f 60
        E 0 90 48 60
        E 0 90 4b 60
        E 0 90 54 60
        E 0 90 57 60
        E 0 90 60 60
        E 0 90 63 60
        E 30 80 18 00
        E 0 80 2b 00
        E 0 80 3f 00
        E 0 80 48 00
        E 0 80 4b 00
        E 0 80 54 00
        E 0 80 57 00
        E 0 80 60 00
        E 0 80 63 00
        E 76 90 1b 60
        E 0 90 61 60
        E 30 80 1b 00
        E 0 80 61 00
        E 24 90 1a 60
        E 0 90 61 60
        E 30 80 1a 00
        E 0 80 61 00
        E 23 90 1b 60
        E 0 90 61 60
        E 30 80 1b 00
        E 0 80 61 00
        E 23 90 1a 60
        E 0 90 61 60
        E 30 80 1a 00
        E 0 80 61 00
        E 24 90 1b 60
        E 0 90 61 60
        E 30 80 1b 00
        E 0 80 61 00
        E 50 90 1a 60
        E 0 90 61 60
        E 30 80 1a 00
        E 0 80 61 00
        E 50 90 2f 60
        E 0 90 3e 60
        E 0 90 4a 60
        E 0 90 56 60
        E 0 90 62 60
        E 0 90 6e 60
        E 30 80 2f 00
        E 0 80 3e 00
        E 0 80 4a 00
        E 0 80 56 00
        E 0 80 62 00
        E 0 80 6e 00
        E 50 90 1a 60
        E 0 90 61 60
        E 30 80 1a 00
        E 0 80 61 00
        E 50 90 1b 60
        E 0 90 61 60
        E 30 80 1b 00
        E 0 80 61 00
        E 50 90 1a 60
        E 0 90 55 60
        E 0 90 61 60
        E 30 80 1a 00
        E 0 80 55 00
        E 0 80 61 00
        E 50 90 2f 60
        E 0 90 62 60
        E 0 90 6e 60
        E 30 80 2f 00
        E 0 80 62 00
        E 0 80 6e 00
        E 50 90 1a 60
        E 0 90 61 60
        E 30 80 1a 00
        E 0 80 61 00
        E 50 90 1b 60
        E 0 90 3d 60
        E 0 90 49 60
        E 0 90 55 60
        E 0 90 61 60
        E 30 80 1b 00
        E 0 80 3d 00
        E 0 80 49 00
        E 0 80 55 00
        E 0 80 61 00
        E 50 90 1a 60
        E 0 90 61 60
        E 30 80 1a 00
        E 0 80 61 00
        E 50 90 2f 60
        E 0 90 62 60
        E 0 90 6e 60
        E 30 80 2f 00
        E 0 80 62 00
        E 0 80 6e 00
        E 50 90 1a 60
        E 0 90 55 60
        E 0 90 61 60
        E 30 80 1a 00
        E 0 80 55 00
        E 0 80 61 00
        E 50 90 1b 60
        E 0 90 61 60
        E 30 80 1b 00
        E 0 80 61 00
        E 50 90 1a 60
        E 0 90 61 60
        E 30 80 1a 00
        E 0 80 61 00
        E 50 90 1b 60
        E 0 90 3d 60
        E 0 90 49 60
        E 0 90 55 60
        E 0 90 61 60
        E 30 80 1b 00
        E 0 80 3d 00
        E 0 80 49 00
        E 0 80 55 00
        E 0 80 61 00
        E 50 90 1a 60
        E 0 90 61 60
        E 30 80 1a 00
        E 0 80 61 00
        E 50 90 2f 60
        E 0 90 62 60
        E 0 90 6e 60
        E 30 80 2f 00
        E 0 80 62 00
        E 0 80 6e 00
        E 50 90 2e 60
        E 0 90 56 60
        E 0 90 62 60
        E 0 90 6e 60
        E 30 80 2e 00
        E 0 80 56 00
        E 0 80 62 00
        E 0 80 6e 00
        E 49 90 31 60
        E 0 90 63 60
        E 0 90 6f 60
        E 30 80 31 00
        E 0 80 63 00
        E 0 80 6f 00
        E 50 90 30 60
        E 0 90 63 60
        E 0 90 6f 60
        E 30 80 30 00
        E 0 80 63 00
        E 0 80 6f 00
        E 51 90 18 60
        E 0 90 24 60
        E 0 90 40 60
        E 0 90 48 60
        E 0 90 4c 60
        E 0 90 54 60
        E 0 90 58 60
        E 0 90 60 60
        E 0 90 64 60
        E 30 80 18 00
        E 0 80 24 00
        E 0 80 40 00
        E 0 80 48 00
        E 0 80 4c 00
        E 0 80 54 00
        E 0 80 58 00
        E 0 80 60 00
        E 0 80 64 00
        E 130 90 18 60
        E 0 90 1e 60
        E 0 90 60 60
        E 0 90 62 60
        E 30 80 18 00
        E 0 80 1e 00
        E 0 80 60 00
        E 0 80 62 00
        E 50 90 1b 60
        E 0 90 55 60
        E 0 90 61 60
        E 30 80 1b 00
        E 0 80 55 00
        E 0 80 61 00
        E 50 90 1e 60
        E 0 90 62 60
        E 30 80 1e 00
        E 0 80 62 00
        E 50 90 18 60
        E 0 90 60 60
        E 30 80 18 00
        E 0 80 60 00
        E 50 90 1a 60
        E 0 90 1f 60
        E 0 90 3d 60
        E 0 90 49 60
        E 0 90 4a 60
        E 0 90 55 60
        E 0 90 56 60
        E 0 90 61 60
        E 0 90 62 60
        E 30 80 1a 00
        E 0 80 1f 00
        E 0 80 3d 00
        E 0 80 49 00
        E 0 80 4a 00
        E 0 80 55 00
        E 0 80 56 00
        E 0 80 61 00
        E 0 80 62 00
        E 130 90 1e 60
        E 0 90 62 60
        E 30 80 1e 00
        E 0 80 62 00
        E 50 90 1b 60
        E 0 90 55 60
        E 0 90 61 60
        E 30 80 1b 00
        E 0 80 55 00
        E 0 80 61 00
        E 50 90 18 60
        E 0 90 1e 60
        E 0 90 60 60
        E 0 90 62 60
        E 30 80 18 00
        E 0 80 1e 00
        E 0 80 60 00
        E 0 80 62 00
        E 50 90 1b 60
        E 0 90 61 60
        E 30 80 1b 00
        E 0 80 61 00
        E 50 90 18 60
        E 0 90 1e 60
        E 0 90 3e 60
        E 0 90 48 60
        E 0 90 4a 60
        E 0 90 54 60
        E 0 90 56 60
        E 0 90 60 60
        E 0 90 62 60
        E 30 80 18 00
        E 0 80 1e 00
        E 0 80 3e 00
        E 0 80 48 00
        E 0 80 4a 00
        E 0 80 54 00
        E 0 80 56 00
        E 0 80 60 00
        E 0 80 62 00
        E 50 90 1b 60
        E 0 90 61 60
        E 30 80 1b 00
        E 0 80 61 00
        E 50 90 18 60
        E 0 90 1e 60
        E 0 90 60 60
        E 0 90 62 60
        E 30 80 18 00
        E 0 80 1e 00
        E 0 80 60 00
        E 0 80 62 00
        E 50 90 1b 60
        E 0 90 55 60
        E 0 90 61 60
        E 30 80 1b 00
        E 0 80 55 00
        E 0 80 61 00
        E 50 90 18 60
        E 0 90 1e 60
        E 0 90 60 60
        E 0 90 62 60
        E 30 80 18 00
        E 0 80 1e 00
        E 0 80 60 00
        E 0 80 62 00
        E 50 90 18 60
        E 0 90 60 60
        E 30 80 18 00
        E 0 80 60 00
        E 50 90 1a 60
        E 0 90 1f 60
        E 0 90 3d 60
        E 0 90 49 60
        E 0 90 4a 60
        E 0 90 55 60
        E 0 90 56 60
        E 0 90 61 60
        E 0 90 62 60
        E 30 80 1a 00
        E 0 80 1f 00
        E 0 80 3d 00
        E 0 80 49 00
        E 0 80 4a 00
        E 0 80 55 00
        E 0 80 56 00
        E 0 80 61 00
        E 0 80 62 00
        E 130 90 18 60
        E 0 90 1e 60
        E 0 90 60 60
        E 0 90 62 60
        E 30 80 18 00
        E 0 80 1e 00
        E 0 80 60 00
        E 0 80 62 00
        E 50 90 1b 60
        E 0 90 55 60
        E 0 90 61 60
        E 30 80 1b 00
        E 0 80 55 00
        E 0 80 61 00
        E 49 90 1e 60
        E 0 90 62 60
        E 30 80 1e 00
        E 0 80 62 00
        E 50 90 1b 60
        E 0 90 61 60
        E 30 80 1b 00
        E 0 80 61 00
        E 51 90 18 60
        E 0 90 1e 60
        E 0 90 3e 60
        E 0 90 48 60
        E 0 90 4a 60
        E 0 90 54 60
        E 0 90 56 60
        E 0 90 60 60
        E 0 90 62 60
        E 0 90 78 60
        E 0 90 79 60
        E 0 90 7a 60
        E 0 90 7b 60
        E 0 90 7c 60
        E 30 80 18 00
        E 0 80 1e 00
        E 0 80 3e 00
        E 0 80 48 00
        E 0 80 4a 00
        E 0 80 54 00
        E 0 80 56 00
        E 0 80 60 00
        E 0 80 62 00
        E 50 90 1b 60
        E 0 90 61 60
        E 30 80 1b 00
        E 0 80 61 00
        E 51 90 1e 60
        E 0 90 62 60
        E 30 80 1e 00
        E 0 80 62 00
        E 49 90 1b 60
        E 0 90 55 60
        E 0 90 61 60
        E 30 80 1b 00
        E 0 80 55 00
        E 0 80 61 00
        E 50 90 18 60
        E 0 90 1e 60
        E 0 90 60 60
        E 0 90 62 60
        E 30 80 18 00
        E 0 80 1e 00
        E 0 80 60 00
        E 0 80 62 00
        E 50 90 18 60
        E 0 90 60 60
        E 30 80 18 00
        E 0 80 60 00
        E 50 90 1a 60
        E 0 90 1f 60
        E 0 90 3d 60
        E 0 90 49 60
        E 0 90 4a 60
        E 0 90 55 60
        E 0 90 56 60
        E 0 90 61 60
        E 0 90 62 60
        E 30 80 1a 00
        E 0 80 1f 00
        E 0 80 3d 00
        E 0 80 49 00
        E 0 80 4a 00
        E 0 80 55 00
        E 0 80 56 00
        E 0 80 61 00
        E 0 80 62 00
        E 130 90 1e 60
        E 0 90 62 60
        E 30 80 1e 00
        E 0 80 62 00
        E 50 90 1b 60
        E 0 90 55 60
        E 0 90 61 60
        E 30 80 1b 00
        E 0 80 55 00
        E 0 80 61 00
        E 50 90 18 60
        E 0 90 1e 60
        E 0 90 60 60
        E 0 90 62 60
        E 30 80 18 00
        E 0 80 1e 00
        E 0 80 60 00
        E 0 80 62 00
        E 50 90 1b 60
        E 0 90 61 60
        E 30 80 1b 00
        E 0 80 61 00
        E 50 90 18 60
        E 0 90 1e 60
        E 0 90 3e 60
        E 0 90 48 60
        E 0 90 4a 60
        E 0 90 54 60
        E 0 90 56 60
        E 0 90 60 60
        E 0 90 62 60
        E 30 80 18 00
        E 0 80 1e 00
        E 0 80 3e 00
        E 0 80 48 00
        E 0 80 4a 00
        E 0 80 54 00
        E 0 80 56 00
        E 0 80 60 00
        E 0 80 62 00
        E 50 90 1b 60
        E 0 90 61 60
        E 30 80 1b 00
        E 0 80 61 00
        E 50 90 1a 60
        E 0 90 61 60
        E 30 80 1a 00
        E 0 80 61 00
        E 50 90 1b 60
        E 0 90 55 60
        E 0 90 61 60
        E 30 80 1b 00
        E 0 80 55 00
        E 0 80 61 00
        E 50 90 18 60
        E 0 90 2b 60
        E 0 90 60 60
        E 0 90 63 60
        E 30 80 18 00
        E 0 80 2b 00
        E 0 80 60 00
        E 0 80 63 00
        E 130 80 78 00
        E 0 80 79 00
        E 0 80 7a 00
        E 0 80 7b 00
        E 0 80 7c 00
        E 0 90 18 60
        E 0 90 24 60
        E 0 90 40 60
        E 0 90 48 60
        E 0 90 4c 60
        E 0 90 54 60
        E 0 90 58 60
        E 0 90 60 60
        E 0 90 64 60
        E 30 80 18 00
        E 0 80 24 00
        E 0 80 40 00
        E 0 80 48 00
        E 0 80 4c 00
        E 0 80 54 00
        E 0 80 58 00
        E 0 80 60 00
        E 0 80 64 00
        E 50 90 1a 60
        E 0 90 61 60
        E 30 80 1a 00
        E 0 80 61 00
        E 50 90 1b 60
        E 0 90 61 60
        E 30 80 1b 00
        E 0 80 61 00
        E 50 90 1a 60
        E 0 90 55 60
        E 0 90 61 60
        E 30 80 1a 00
        E 0 80 55 00
        E 0 80 61 00
        E 130 90 1b 60
        E 0 90 61 60
        E 30 80 1b 00
        E 0 80 61 00
        E 50 90 18 60
        E 0 90 22 60
        E 0 90 40 60
        E 0 90 48 60
        E 0 90 4c 60
        E 0 90 54 60
        E 0 90 58 60
        E 0 90 60 60
        E 0 90 64 60
        E 30 80 18 00
        E 0 80 22 00
        E 0 80 40 00
        E 0 80 48 00
        E 0 80 4c 00
        E 0 80 54 00
        E 0 80 58 00
        E 0 80 60 00
        E 0 80 64 00
        E 131 90 1f 60
        E 0 90 62 60
        E 30 80 1f 00
        E 0 80 62 00
        E 49 90 1a 60
        E 0 90 55 60
        E 0 90 61 60
        E 30 80 1a 00
        E 0 80 55 00
        E 0 80 61 00
        E 50 90 18 60
        E 0 90 1f 60
        E 0 90 60 60
        E 0 90 62 60
        E 30 80 18 00
        E 0 80 1f 00
        E 0 80 60 00
        E 0 80 62 00
        E 50 90 18 60
        E 0 90 60 60
        E 30 80 18 00
        E 0 80 60 00
        E 50 90 1a 60
        E 0 90 1f 60
        E 0 90 3d 60
        E 0 90 49 60
        E 0 90 4a 60
        E 0 90 55 60
        E 0 90 56 60
        E 0 90 61 60
        E 0 90 62 60
        E 30 80 1a 00
        E 0 80 1f 00
        E 0 80 3d 00
        E 0 80 49 00
        E 0 80 4a 00
        E 0 80 55 00
        E 0 80 56 00
        E 0 80 61 00
        E 0 80 62 00
        E 130 90 1e 60
        E 0 90 62 60
        E 30 80 1e 00
        E 0 80 62 00
        E 50 90 1b 60
        E 0 90 55 60
        E 0 90 61 60
        E 30 80 1b 00
        E 0 80 55 00
        E 0 80 61 00
        E 49 90 18 60
        E 0 90 1e 60
        E 0 90 60 60
        E 0 90 62 60
        E 30 80 18 00
        E 0 80 1e 00
        E 0 80 60 00
        E 0 80 62 00
        E 51 90 1b 60
        E 0 90 61 60
        E 30 80 1b 00
        E 0 80 61 00
        E 50 90 18 60
        E 0 90 1e 60
        E 0 90 3e 60
        E 0 90 48 60
        E 0 90 4a 60
        E 0 90 54 60
        E 0 90 56 60
        E 0 90 60 60
        E 0 90 62 60
        E 30 80 18 00
        E 0 80 1e 00
        E 0 80 3e 00
        E 0 80 48 00
        E 0 80 4a 00
        E 0 80 54 00
        E 0 80 56 00
        E 0 80 60 00
        E 0 80 62 00
        E 50 90 1b 60
        E 0 90 61 60
        E 30 80 1b 00
        E 0 80 61 00
        E 50 90 1e 60
        E 0 90 62 60
        E 30 80 1e 00
        E 0 80 62 00
        E 50 90 1b 60
        E 0 90 55 60
        E 0 90 61 60
        E 30 80 1b 00
        E 0 80 55 00
        E 0 80 61 00
        E 50 90 18 60
        E 0 90 1e 60
        E 0 90 60 60
        E 0 90 62 60
        E 30 80 18 00
        E 0 80 1e 00
        E 0 80 60 00
        E 0 80 62 00
        E 50 90 18 60
        E 0 90 60 60
        E 30 80 18 00
        E 0 80 60 00
        E 50 90 1a 60
        E 0 90 1f 60
        E 0 90 3d 60
        E 0 90 49 60
        E 0 90 4a 60
        E 0 90 55 60
        E 0 90 56 60
        E 0 90 61 60
        E 0 90 62 60
        E 30 80 1a 00
        E 0 80 1f 00
        E 0 80 3d 00
        E 0 80 49 00
        E 0 80 4a 00
        E 0 80 55 00
        E 0 80 56 00
        E 0 80 61 00
        E 0 80 62 00
        E 130 90 1e 60
        E 0 90 62 60
        E 30 80 1e 00
        E 0 80 62 00
        E 49 90 1b 60
        E 0 90 55 60
        E 0 90 61 60
        E 30 80 1b 00
        E 0 80 55 00
        E 0 80 61 00
        E 50 90 18 60
        E 0 90 1e 60
        E 0 90 60 60
        E 0 90 62 60
        E 30 80 18 00
        E 0 80 1e 00
        E 0 80 60 00
        E 0 80 62 00
        E 51 90 1b 60
        E 0 90 61 60
        E 30 80 1b 00
        E 0 80 61 00
        E 50 90 18 60
        E 0 90 1e 60
        E 0 90 3e 60
        E 0 90 48 60
        E 0 90 4a 60
        E 0 90 54 60
        E 0 90 56 60
        E 0 90 60 60
        E 0 90 62 60
        E 30 80 18 00
        E 0 80 1e 00
        E 0 80 3e 00
        E 0 80 48 00
        E 0 80 4a 00
        E 0 80 54 00
        E 0 80 56 00
        E 0 80 60 00
        E 0 80 62 00
        E 50 90 1b 60
        E 0 90 61 60
        E 30 80 1b 00
        E 0 80 61 00
        E 50 90 1a 60
        E 0 90 61 60
        E 30 80 1a 00
        E 0 80 61 00
        E 23 90 1b 60
        E 0 90 61 60
        E 30 80 1b 00
        E 0 80 61 00
        E 23 90 1a 60
        E 0 90 61 60
        E 30 80 1a 00
        E 0 80 61 00
        E 24 90 1b 60
        E 0 90 61 60
        E 30 80 1b 00
        E 0 80 61 00
        E 50 90 1a 60
        E 0 90 61 60
        E 30 80 1a 00
        E 0 80 61 00
        E 50 90 18 60
        E 0 90 24 60
        E 0 90 40 60
        E 0 90 48 60
        E 0 90 4c 60
        E 0 90 54 60
        E 0 90 58 60
        E 0 90 60 60
        E 0 90 64 60
        E 30 80 18 00
        E 0 80 24 00
        E 0 80 40 00
        E 0 80 48 00
        E 0 80 4c 00
        E 0 80 54 00
        E 0 80 58 00
        E 0 80 60 00
        E 0 80 64 00
        E 50 90 1a 60
        E 0 90 61 60
        E 30 80 1a 00
        E 0 80 61 00
        E 50 90 18 60
        E 0 90 1b 60
        E 0 90 60 60
        E 0 90 61 60
        E 30 80 18 00
        E 0 80 1b 00
        E 0 80 60 00
        E 0 80 61 00
        E 50 90 2e 60
        E 0 90 56 60
        E 0 90 62 60
        E 0 90 6e 60
        E 30 80 2e 00
        E 0 80 56 00
        E 0 80 62 00
        E 0 80 6e 00
        E 50 90 18 60
        E 0 90 31 60
        E 0 90 60 60
        E 0 90 63 60
        E 0 90 6f 60
        E 30 80 18 00
        E 0 80 31 00
        E 0 80 60 00
        E 0 80 63 00
        E 0 80 6f 00
        E 50 90 1a 60
        E 0 90 61 60
        E 30 80 1a 00
        E 0 80 61 00
        E 50 90 18 60
        E 0 90 1b 60
        E 0 90 3d 60
        E 0 90 49 60
        E 0 90 54 60
        E 0 90 55 60
        E 0 90 60 60
        E 0 90 61 60
        E 30 80 18 00
        E 0 80 1b 00
        E 0 80 3d 00
        E 0 80 49 00
        E 0 80 54 00
        E 0 80 55 00
        E 0 80 60 00
        E 0 80 61 00
        E 50 90 1a 60
        E 0 90 61 60
        E 30 80 1a 00
        E 0 80 61 00
        E 50 90 18 60
        E 0 90 2f 60
        E 0 90 60 60
        E 0 90 62 60
        E 0 90 6e 60
        E 30 80 18 00
        E 0 80 2f 00
        E 0 80 60 00
        E 0 80 62 00
        E 0 80 6e 00
        E 50 90 1a 60
        E 0 90 55 60
        E 0 90 61 60
        E 30 80 1a 00
        E 0 80 55 00
        E 0 80 61 00
        E 50 90 18 60
        E 0 90 1b 60
        E 0 90 60 60
        E 0 90 61 60
        E 30 80 18 00
        E 0 80 1b 00
        E 0 80 60 00
        E 0 80 61 00
        E 50 90 1a 60
        E 0 90 61 60
        E 30 80 1a 00
        E 0 80 61 00
        E 50 90 18 60
        E 0 90 1b 60
        E 0 90 3d 60
        E 0 90 49 60
        E 0 90 54 60
        E 0 90 55 60
        E 0 90 60 60
        E 0 90 61 60
        E 30 80 18 00
        E 0 80 1b 00
        E 0 80 3d 00
        E 0 80 49 00
        E 0 80 54 00
        E 0 80 55 00
        E 0 80 60 00
        E 0 80 61 00
        E 50 90 1a 60
        E 0 90 61 60
        E 30 80 1a 00
        E 0 80 61 00
        E 50 90 2f 60
        E 0 90 62 60
        E 0 90 6e 60
        E 30 80 2f 00
        E 0 80 62 00
        E 0 80 6e 00
        E 49 90 2e 60
        E 0 90 56 60
        E 0 90 62 60
        E 0 90 6e 60
        E 30 80 2e 00
        E 0 80 56 00
        E 0 80 62 00
        E 0 80 6e 00
        E 50 90 31 60
        E 0 90 63 60
        E 0 90 6f 60
        E 30 80 31 00
        E 0 80 63 00
        E 0 80 6f 00
        E 50 90 30 60
        E 0 90 63 60
        E 0 90 6f 60
        E 30 80 30 00
        E 0 80 63 00
        E 0 80 6f 00
        E 51 90 18 60
        E 0 90 24 60
        E 0 90 40 60
        E 0 90 48 60
        E 0 90 4c 60
        E 0 90 54 60
        E 0 90 58 60
        E 0 90 60 60
        E 0 90 64 60
        E 30 80 18 00
        E 0 80 24 00
        E 0 80 40 00
        E 0 80 48 00
        E 0 80 4c 00
        E 0 80 54 00
        E 0 80 58 00
        E 0 80 60 00
        E 0 80 64 00
        E 130 90 1e 60
        E 0 90 62 60
        E 30 80 1e 00
        E 0 80 62 00
        E 50 90 1b 60
        E 0 90 55 60
        E 0 90 61 60
        E 30 80 1b 00
        E 0 80 55 00
        E 0 80 61 00
        E 50 90 18 60
        E 0 90 1e 60
        E 0 90 60 60
        E 0 90 62 60
        E 30 80 18 00
        E 0 80 1e 00
        E 0 80 60 00
        E 0 80 62 00
        E 50 90 18 60
        E 0 90 60 60
        E 30 80 18 00
        E 0 80 60 00
        E 50 90 1a 60
        E 0 90 24 60
        E 0 90 3d 60
        E 0 90 49 60
        E 0 90 4c 60
        E 0 90 55 60
        E 0 90 58 60
        E 0 90 61 60
        E 0 90 64 60
        E 30 80 1a 00
        E 0 80 24 00
        E 0 80 3d 00
        E 0 80 49 00
        E 0 80 4c 00
        E 0 80 55 00
        E 0 80 58 00
        E 0 80 61 00
        E 0 80 64 00
        E 130 90 1e 60
        E 0 90 62 60
        E 30 80 1e 00
        E 0 80 62 00
        E 50 90 1b 60
        E 0 90 55 60
        E 0 90 61 60
        E 30 80 1b 00
        E 0 80 55 00
        E 0 80 61 00
        E 50 90 18 60
        E 0 90 1e 60
        E 0 90 60 60
        E 0 90 62 60
        E 30 80 18 00
        E 0 80 1e 00
        E 0 80 60 00
        E 0 80 62 00
        E 50 90 1b 60
        E 0 90 61 60
        E 30 80 1b 00
        E 0 80 61 00
        E 50 90 18 60
        E 0 90 1e 60
        E 0 90 3e 60
        E 0 90 48 60
        E 0 90 4a 60
        E 0 90 54 60
        E 0 90 56 60
        E 0 90 60 60
        E 0 90 62 60
        E 30 80 18 00
        E 0 80 1e 00
        E 0 80 3e 00
        E 0 80 48 00
        E 0 80 4a 00
        E 0 80 54 00
        E 0 80 56 00
        E 0 80 60 00
        E 0 80 62 00
        E 50 90 1b 60
        E 0 90 61 60
        E 30 80 1b 00
        E 0 80 61 00
        E 50 90 1e 60
        E 0 90 62 60
        E 30 80 1e 00
        E 0 80 62 00
        E 50 90 1b 60
        E 0 90 55 60
        E 0 90 61 60
        E 30 80 1b 00
        E 0 80 55 00
        E 0 80 61 00
        E 50 90 18 60
        E 0 90 1e 60
        E 0 90 60 60
        E 0 90 62 60
        E 30 80 18 00
        E 0 80 1e 00
        E 0 80 60 00
        E 0 80 62 00
        E 50 90 18 60
        E 0 90 60 60
        E 30 80 18 00
        E 0 80 60 00
        E 50 90 1a 60
        E 0 90 1f 60
        E 0 90 3d 60
        E 0 90 49 60
        E 0 90 4a 60
        E 0 90 55 60
        E 0 90 56 60
        E 0 90 61 60
        E 0 90 62 60
        E 30 80 1a 00
        E 0 80 1f 00
        E 0 80 3d 00
        E 0 80 49 00
        E 0 80 4a 00
        E 0 80 55 00
        E 0 80 56 00
        E 0 80 61 00
        E 0 80 62 00
        E 130 90 18 60
        E 0 90 1e 60
        E 0 90 60 60
        E 0 90 62 60
        E 30 80 18 00
        E 0 80 1e 00
        E 0 80 60 00
        E 0 80 62 00
        E 50 90 1b 60
        E 0 90 55 60
        E 0 90 61 60
        E 30 80 1b 00
        E 0 80 55 00
        E 0 80 61 00
        E 49 90 1e 60
        E 0 90 62 60
        E 30 80 1e 00
        E 0 80 62 00
        E 50 90 1b 60
        E 0 90 61 60
        E 30 80 1b 00
        E 0 80 61 00
        E 51 90 18 60
        E 0 90 1e 60
        E 0 90 3e 60
        E 0 90 48 60
        E 0 90 4a 60
        E 0 90 54 60
        E 0 90 56 60
        E 0 90 60 60
        E 0 90 62 60
        E 30 80 18 00
        E 0 80 1e 00
        E 0 80 3e 00
        E 0 80 48 00
        E 0 80 4a 00
        E 0 80 54 00
        E 0 80 56 00
        E 0 80 60 00
        E 0 80 62 00
        E 50 90 1b 60
        E 0 90 61 60
        E 30 80 1b 00
        E 0 80 61 00
        E 50 90 1e 60
        E 0 90 62 60
        E 30 80 1e 00
        E 0 80 62 00
        E 50 90 1b 60
        E 0 90 55 60
        E 0 90 61 60
        E 30 80 1b 00
        E 0 80 55 00
        E 0 80 61 00
        E 50 90 18 60
        E 0 90 1e 60
        E 0 90 60 60
        E 0 90 62 60
        E 30 80 18 00
        E 0 80 1e 00
        E 0 80 60 00
        E 0 80 62 00
        E 50 90 18 60
        E 0 90 60 60
        E 30 80 18 00
        E 0 80 60 00
        E 50 90 1a 60
        E 0 90 1f 60
        E 0 90 3d 60
        E 0 90 49 60
        E 0 90 4a 60
        E 0 90 55 60
        E 0 90 56 60
        E 0 90 61 60
        E 0 90 62 60
        E 30 80 1a 00
        E 0 80 1f 00
        E 0 80 3d 00
        E 0 80 49 00
        E 0 80 4a 00
        E 0 80 55 00
        E 0 80 56 00
        E 0 80 61 00
        E 0 80 62 00
        E 130 90 1e 60
        E 0 90 62 60
        E 30 80 1e 00
        E 0 80 62 00
        E 50 90 1b 60
        E 0 90 55 60
        E 0 90 61 60
        E 30 80 1b 00
        E 0 80 55 00
        E 0 80 61 00
        E 50 90 18 60
        E 0 90 1e 60
        E 0 90 60 60
        E 0 90 62 60
        E 30 80 18 00
        E 0 80 1e 00
        E 0 80 60 00
        E 0 80 62 00
        E 50 90 1b 60
        E 0 90 61 60
        E 30 80 1b 00
        E 0 80 61 00
        E 50 90 18 60
        E 0 90 1e 60
        E 0 90 3e 60
        E 0 90 48 60
        E 0 90 4a 60
        E 0 90 54 60
        E 0 90 56 60
        E 0 90 60 60
        E 0 90 62 60
        E 30 80 18 00
        E 0 80 1e 00
        E 0 80 3e 00
        E 0 80 48 00
        E 0 80 4a 00
        E 0 80 54 00
        E 0 80 56 00
        E 0 80 60 00
        E 0 80 62 00
        E 50 90 1b 60
        E 0 90 61 60
        E 30 80 1b 00
        E 0 80 61 00
        E 50 90 1a 60
        E 0 90 61 60
        E 30 80 1a 00
        E 0 80 61 00
        E 50 90 1b 60
        E 0 90 55 60
        E 0 90 61 60
        E 30 80 1b 00
        E 0 80 55 00
        E 0 80 61 00
        E 50 90 1a 60
        E 0 90 61 60
        E 30 80 1a 00
        E 0 80 61 00
        E 50 90 1b 60
        E 0 90 61 60
        E 30 80 1b 00
        E 0 80 61 00
        E 50 90 1a 60
        E 0 90 3d 60
        E 0 90 49 60
        E 0 90 55 60
        E 0 90 61 60
        E 30 80 1a 00
        E 0 80 3d 00
        E 0 80 49 00
        E 0 80 55 00
        E 0 80 61 00
        E 50 90 1b 60
        E 0 90 61 60
        E 30 80 1b 00
        E 0 80 61 00
        E 50 90 18 60
        E 0 90 22 60
        E 0 90 60 60
        E 0 90 64 60
        E 30 80 18 00
        E 0 80 22 00
        E 0 80 60 00
        E 0 80 64 00
        E 49 90 18 60
        E 0 90 2a 60
        E 0 90 54 60
        E 0 90 57 60
        E 0 90 60 60
        E 0 90 63 60
        E 30 80 18 00
        E 0 80 2a 00
        E 0 80 54 00
        E 0 80 57 00
        E 0 80 60 00
        E 0 80 63 00
        E 50 90 18 60
        E 0 90 22 60
        E 0 90 60 60
        E 0 90 64 60
        E 30 80 18 00
        E 0 80 22 00
        E 0 80 60 00
        E 0 80 64 00
        E 50 90 18 60
        E 0 90 2a 60
        E 0 90 60 60
        E 0 90 63 60
        E 30 80 18 00
        E 0 80 2a 00
        E 0 80 60 00
        E 0 80 63 00
        E 51 90 18 60
        E 0 90 22 60
        E 0 90 40 60
        E 0 90 48 60
        E 0 90 4c 60
        E 0 90 54 60
        E 0 90 58 60
        E 0 90 60 60
        E 0 90 64 60
        E 0 90 74 60
        E 30 80 18 00
        E 0 80 22 00
        E 0 80 40 00
        E 0 80 48 00
        E 0 80 4c 00
        E 0 80 54 00
        E 0 80 58 00
        E 0 80 60 00
        E 0 80 64 00
        E 130 90 1f 60
        E 0 90 62 60
        E 30 80 1f 00
        E 0 80 62 00
        E 50 90 1a 60
        E 0 90 55 60
        E 0 90 61 60
        E 30 80 1a 00
        E 0 80 55 00
        E 0 80 61 00
        E 50 90 18 60
        E 0 90 1f 60
        E 0 90 60 60
        E 0 90 62 60
        E 30 80 18 00
        E 0 80 1f 00
        E 0 80 60 00
        E 0 80 62 00
        E 50 90 18 60
        E 0 90 60 60
        E 30 80 18 00
        E 0 80 60 00
        E 50 90 1a 60
        E 0 90 1f 60
        E 0 90 3d 60
        E 0 90 49 60
        E 0 90 4a 60
        E 0 90 55 60
        E 0 90 56 60
        E 0 90 61 60
        E 0 90 62 60
        E 30 80 1a 00
        E 0 80 1f 00
        E 0 80 3d 00
        E 0 80 49 00
        E 0 80 4a 00
        E 0 80 55 00
        E 0 80 56 00
        E 0 80 61 00
        E 0 80 62 00
        E 130 90 1e 60
        E 0 90 62 60
        E 30 80 1e 00
        E 0 80 62 00
        E 50 90 1b 60
        E 0 90 55 60
        E 0 90 61 60
        E 30 80 1b 00
        E 0 80 55 00
        E 0 80 61 00
        E 50 90 18 60
        E 0 90 1e 60
        E 0 90 60 60
        E 0 90 62 60
        E 30 80 18 00
        E 0 80 1e 00
        E 0 80 60 00
        E 0 80 62 00
        E 50 90 1b 60
        E 0 90 61 60
        E 30 80 1b 00
        E 0 80 61 00
        E 50 90 18 60
        E 0 90 1e 60
        E 0 90 3e 60
        E 0 90 48 60
        E 0 90 4a 60
        E 0 90 54 60
        E 0 90 56 60
        E 0 90 60 60
        E 0 90 62 60
        E 30 80 18 00
        E 0 80 1e 00
        E 0 80 3e 00
        E 0 80 48 00
        E 0 80 4a 00
        E 0 80 54 00
        E 0 80 56 00
        E 0 80 60 00
        E 0 80 62 00
        E 50 90 1b 60
        E 0 90 61 60
        E 30 80 1b 00
        E 0 80 61 00
        E 50 90 1e 60
        E 0 90 62 60
        E 30 80 1e 00
        E 0 80 62 00
        E 50 90 1b 60
        E 0 90 55 60
        E 0 90 61 60
        E 30 80 1b 00
        E 0 80 55 00
        E 0 80 61 00
        E 50 90 18 60
        E 0 90 1e 60
        E 0 90 60 60
        E 0 90 62 60
        E 30 80 18 00
        E 0 80 1e 00
        E 0 80 60 00
        E 0 80 62 00
        E 50 90 18 60
        E 0 90 60 60
        E 30 80 18 00
        E 0 80 60 00
        E 50 90 1a 60
        E 0 90 1f 60
        E 0 90 3d 60
        E 0 90 49 60
        E 0 90 4a 60
        E 0 90 55 60
        E 0 90 56 60
        E 0 90 61 60
        E 0 90 62 60
        E 30 80 1a 00
        E 0 80 1f 00
        E 0 80 3d 00
        E 0 80 49 00
        E 0 80 4a 00
        E 0 80 55 00
        E 0 80 56 00
        E 0 80 61 00
        E 0 80 62 00
        E 130 90 18 60
        E 0 90 1e 60
        E 0 90 60 60
        E 0 90 62 60
        E 30 80 18 00
        E 0 80 1e 00
        E 0 80 60 00
        E 0 80 62 00
        E 50 90 1b 60
        E 0 90 55 60
        E 0 90 61 60
        E 30 80 1b 00
        E 0 80 55 00
        E 0 80 61 00
        E 50 90 1e 60
        E 0 90 62 60
        E 30 80 1e 00
        E 0 80 62 00
        E 50 90 1b 60
        E 0 90 61 60
        E 30 80 1b 00
        E 0 80 61 00
        E 50 80 74 00
        E 0 90 18 60
        E 0 90 22 60
        E 0 90 40 60
        E 0 90 48 60
        E 0 90 4c 60
        E 0 90 54 60
        E 0 90 58 60
        E 0 90 60 60
        E 0 90 64 60
        E 30 80 18 00
        E 0 80 22 00
        E 0 80 40 00
        E 0 80 48 00
        E 0 80 4c 00
        E 0 80 54 00
        E 0 80 58 00
        E 0 80 60 00
        E 0 80 64 00
        E 50 90 1b 60
        E 0 90 61 60
        E 30 80 1b 00
        E 0 80 61 00
        E 50 90 1e 60
        E 0 90 62 60
        E 30 80 1e 00
        E 0 80 62 00
        E 50 90 1b 60
        E 0 90 55 60
        E 0 90 61 60
        E 30 80 1b 00
        E 0 80 55 00
        E 0 80 61 00
        E 50 90 18 60
        E 0 90 1e 60
        E 0 90 60 60
        E 0 90 62 60
        E 30 80 18 00
        E 0 80 1e 00
        E 0 80 60 00
        E 0 80 62 00
        E 50 90 18 60
        E 0 90 60 60
        E 30 80 18 00
        E 0 80 60 00
        E 50 90 1a 60
        E 0 90 1f 60
        E 0 90 3d 60
        E 0 90 49 60
        E 0 90 4a 60
        E 0 90 55 60
        E 0 90 56 60
        E 0 90 61 60
        E 0 90 62 60
        E 30 80 1a 00
        E 0 80 1f 00
        E 0 80 3d 00
        E 0 80 49 00
        E 0 80 4a 00
        E 0 80 55 00
        E 0 80 56 00
        E 0 80 61 00
        E 0 80 62 00
        E 130 90 1e 60
        E 0 90 62 60
        E 30 80 1e 00
        E 0 80 62 00
        E 50 90 1b 60
        E 0 90 55 60
        E 0 90 61 60
        E 30 80 1b 00
        E 0 80 55 00
        E 0 80 61 00
        E 50 90 18 60
        E 0 90 1e 60
        E 0 90 60 60
        E 0 90 62 60
        E 30 80 18 00
        E 0 80 1e 00
        E 0 80 60 00
        E 0 80 62 00
        E 50 90 1b 60
        E 0 90 61 60
        E 30 80 1b 00
        E 0 80 61 00
        E 50 90 18 60
        E 0 90 1e 60
        E 0 90 3e 60
        E 0 90 48 60
        E 0 90 4a 60
        E 0 90 54 60
        E 0 90 56 60
        E 0 90 60 60
        E 0 90 62 60
        E 0 90 78 60
        E 0 90 79 60
        E 0 90 7a 60
        E 0 90 7b 60
        E 0 90 7c 60
        E 30 80 18 00
        E 0 80 1e 00
        E 0 80 3e 00
        E 0 80 48 00
        E 0 80 4a 00
        E 0 80 54 00
        E 0 80 56 00
        E 0 80 60 00
        E 0 80 62 00
        E 50 90 1b 60
        E 0 90 61 60
        E 30 80 1b 00
        E 0 80 61 00
        E 50 90 1a 60
        E 0 90 61 60
        E 30 80 1a 00
        E 0 80 61 00
        E 24 90 1b 60
        E 0 90 61 60
        E 30 80 1b 00
        E 0 80 61 00
        E 23 90 1a 60
        E 0 90 61 60
        E 30 80 1a 00
        E 0 80 61 00
        E 23 90 1b 60
        E 0 90 61 60
        E 30 80 1b 00
        E 0 80 61 00
        E 50 90 1a 60
        E 0 90 61 60
        E 30 80 1a 00
        E 0 80 61 00
        E 50 90 18 60
        E 0 90 24 60
        E 0 90 40 60
        E 0 90 48 60
        E 0 90 4c 60
        E 0 90 54 60
        E 0 90 58 60
        E 0 90 60 60
        E 0 90 64 60
        E 30 80 18 00
        E 0 80 24 00
        E 0 80 40 00
        E 0 80 48 00
        E 0 80 4c 00
        E 0 80 54 00
        E 0 80 58 00
        E 0 80 60 00
        E 0 80 64 00
        E 50 90 1a 60
        E 0 90 61 60
        E 30 80 1a 00
        E 0 80 61 00
        E 50 90 1b 60
        E 0 90 61 60
        E 30 80 1b 00
        E 0 80 61 00
        E 50 90 1a 60
        E 0 90 55 60
        E 0 90 61 60
        E 30 80 1a 00
        E 0 80 55 00
        E 0 80 61 00
        E 50 90 1b 60
        E 0 90 61 60
        E 30 80 1b 00
        E 0 80 61 00
        E 50 90 1a 60
        E 0 90 61 60
        E 30 80 1a 00
        E 0 80 61 00
        E 50 90 18 60
        E 0 90 24 60
        E 0 90 40 60
        E 0 90 48 60
        E 0 90 4c 60
        E 0 90 54 60
        E 0 90 58 60
        E 0 90 60 60
        E 0 90 64 60
        E 1 80 78 00
        E 0 80 79 00
        E 0 80 7a 00
        E 0 80 7b 00
        E 0 80 7c 00
        E 29 80 18 00
        E 0 80 24 00
        E 0 80 40 00
        E 0 80 48 00
        E 0 80 4c 00
        E 0 80 54 00
        E 0 80 58 00
        E 0 80 60 00
        E 0 80 64 00
        E 50 90 18 60
        E 0 90 60 60
        E 30 80 18 00
        E 0 80 60 00
        E 50 90 18 60
        E 0 90 2a 60
        E 0 90 60 60
        E 0 90 63 60
        E 30 80 18 00
        E 0 80 2a 00
        E 0 80 60 00
        E 0 80 63 00
        E 50 90 18 60
        E 0 90 54 60
        E 0 90 60 60
        E 30 80 18 00
        E 0 80 54 00
        E 0 80 60 00
        E 50 90 18 60
        E 0 90 2a 60
        E 0 90 60 60
        E 0 90 63 60
        E 30 80 18 00
        E 0 80 2a 00
        E 0 80 60 00
        E 0 80 63 00
        E 50 90 18 60
        E 0 90 60 60
        E 30 80 18 00
        E 0 80 60 00
        E 50 90 18 60
        E 0 90 1a 60
        E 0 90 2a 60
        E 0 90 3d 60
        E 0 90 49 60
        E 0 90 4b 60
        E 0 90 54 60
        E 0 90 55 60
        E 0 90 57 60
        E 0 90 60 60
        E 0 90 61 60
        E 0 90 63 60
        E 30 80 18 00
        E 0 80 1a 00
        E 0 80 2a 00
        E 0 80 3d 00
        E 0 80 49 00
        E 0 80 4b 00
        E 0 80 54 00
        E 0 80 55 00
        E 0 80 57 00
        E 0 80 60 00
        E 0 80 61 00
        E 0 80 63 00
        E 50 90 18 60
        E 0 90 60 60
        E 30 80 18 00
        E 0 80 60 00
        E 50 90 18 60
        E 0 90 2a 60
        E 0 90 60 60
        E 0 90 63 60
        E 30 80 18 00
        E 0 80 2a 00
        E 0 80 60 00
        E 0 80 63 00
        E 50 90 18 60
        E 0 90 54 60
        E 0 90 60 60
        E 30 80 18 00
        E 0 80 54 00
        E 0 80 60 00
        E 50 90 18 60
        E 0 90 2a 60
        E 0 90 60 60
        E 0 90 63 60
        E 30 80 18 00
        E 0 80 2a 00
        E 0 80 60 00
        E 0 80 63 00
        E 50 90 18 60
        E 0 90 60 60
        E 30 80 18 00
        E 0 80 60 00
        E 50 90 18 60
        E 0 90 2a 60
        E 0 90 3f 60
        E 0 90 48 60
        E 0 90 4b 60
        E 0 90 54 60
        E 0 90 57 60
        E 0 90 60 60
        E 0 90 63 60
        E 30 80 18 00
        E 0 80 2a 00
        E 0 80 3f 00
        E 0 80 48 00
        E 0 80 4b 00
        E 0 80 54 00
        E 0 80 57 00
        E 0 80 60 00
        E 0 80 63 00
        E 50 90 18 60
        E 0 90 60 60
        E 30 80 18 00
        E 0 80 60 00
        E 50 90 18 60
        E 0 90 2a 60
        E 0 90 60 60
        E 0 90 63 60
        E 30 80 18 00
        E 0 80 2a 00
        E 0 80 60 00
        E 0 80 63 00
        E 50 90 18 60
        E 0 90 54 60
        E 0 90 60 60
        E 30 80 18 00
        E 0 80 54 00
        E 0 80 60 00
        E 50 90 18 60
        E 0 90 2a 60
        E 0 90 60 60
        E 0 90 63 60
        E 30 80 18 00
        E 0 80 2a 00
        E 0 80 60 00
        E 0 80 63 00
        E 50 90 18 60
        E 0 90 60 60
        E 30 80 18 00
        E 0 80 60 00
        E 50 90 18 60
        E 0 90 1a 60
        E 0 90 2a 60
        E 0 90 3d 60
        E 0 90 49 60
        E 0 90 4b 60
        E 0 90 54 60
        E 0 90 55 60
        E 0 90 57 60
        E 0 90 60 60
        E 0 90 61 60
        E 0 90 63 60
        E 30 80 18 00
        E 0 80 1a 00
        E 0 80 2a 00
        E 0 80 3d 00
        E 0 80 49 00
        E 0 80 4b 00
        E 0 80 54 00
        E 0 80 55 00
        E 0 80 57 00
        E 0 80 60 00
        E 0 80 61 00
        E 0 80 63 00
        E 50 90 18 60
        E 0 90 60 60
        E 30 80 18 00
        E 0 80 60 00
        E 50 90 18 60
        E 0 90 2a 60
        E 0 90 60 60
        E 0 90 63 60
        E 30 80 18 00
        E 0 80 2a 00
        E 0 80 60 00
        E 0 80 63 00
        E 50 90 18 60
        E 0 90 54 60
        E 0 90 60 60
        E 30 80 18 00
        E 0 80 54 00
        E 0 80 60 00
        E 50 90 18 60
        E 0 90 2a 60
        E 0 90 60 60
        E 0 90 63 60
        E 30 80 18 00
        E 0 80 2a 00
        E 0 80 60 00
        E 0 80 63 00
        E 50 90 18 60
        E 0 90 60 60
        E 30 80 18 00
        E 0 80 60 00
        E 50 90 18 60
        E 0 90 2a 60
        E 0 90 3f 60
        E 0 90 48 60
        E 0 90 4b 60
        E 0 90 54 60
        E 0 90 57 60
        E 0 90 60 60
        E 0 90 63 60
        E 30 80 18 00
        E 0 80 2a 00
        E 0 80 3f 00
        E 0 80 48 00
        E 0 80 4b 00
        E 0 80 54 00
        E 0 80 57 00
        E 0 80 60 00
        E 0 80 63 00
        E 50 90 18 60
        E 0 90 60 60
        E 30 80 18 00
        E 0 80 60 00
        E 50 90 18 60
        E 0 90 2a 60
        E 0 90 60 60
        E 0 90 63 60
        E 30 80 18 00
        E 0 80 2a 00
        E 0 80 60 00
        E 0 80 63 00
        E 50 90 18 60
        E 0 90 54 60
        E 0 90 60 60
        E 30 80 18 00
        E 0 80 54 00
        E 0 80 60 00
        E 50 90 18 60
        E 0 90 2a 60
        E 0 90 60 60
        E 0 90 63 60
        E 30 80 18 00
        E 0 80 2a 00
        E 0 80 60 00
        E 0 80 63 00
        E 50 90 18 60
        E 0 90 60 60
        E 30 80 18 00
        E 0 80 60 00
        E 50 90 18 60
        E 0 90 1a 60
        E 0 90 2a 60
        E 0 90 3d 60
        E 0 90 49 60
        E 0 90 4b 60
        E 0 90 54 60
        E 0 90 55 60
        E 0 90 57 60
        E 0 90 60 60
        E 0 90 61 60
        E 0 90 63 60
        E 30 80 18 00
        E 0 80 1a 00
        E 0 80 2a 00
        E 0 80 3d 00
        E 0 80 49 00
        E 0 80 4b 00
        E 0 80 54 00
        E 0 80 55 00
        E 0 80 57 00
        E 0 80 60 00
        E 0 80 61 00
        E 0 80 63 00
        E 50 90 18 60
        E 0 90 60 60
        E 30 80 18 00
        E 0 80 60 00
        E 50 90 18 60
        E 0 90 2a 60
        E 0 90 60 60
        E 0 90 63 60
        E 30 80 18 00
        E 0 80 2a 00
        E 0 80 60 00
        E 0 80 63 00
        E 50 90 18 60
        E 0 90 54 60
        E 0 90 60 60
        E 30 80 18 00
        E 0 80 54 00
        E 0 80 60 00
        E 50 90 18 60
        E 0 90 2b 60
        E 0 90 60 60
        E 0 90 63 60
        E 30 80 18 00
        E 0 80 2b 00
        E 0 80 60 00
        E 0 80 63 00
        E 50 90 18 60
        E 0 90 60 60
        E 30 80 18 00
        E 0 80 60 00
        E 49 90 78 60
        E 0 90 79 60
        E 0 90 7a 60
        E 0 90 7b 60
        E 0 90 7c 60
        E 1 90 18 60
        E 0 90 1b 60
        E 0 90 3d 60
        E 0 90 49 60
        E 0 90 54 60
        E 0 90 55 60
        E 0 90 60 60
        E 0 90 61 60
        E 30 80 18 00
        E 0 80 1b 00
        E 0 80 3d 00
        E 0 80 49 00
        E 0 80 54 00
        E 0 80 55 00
        E 0 80 60 00
        E 0 80 61 00
        E 50 90 18 60
        E 0 90 2e 60
        E 0 90 60 60
        E 0 90 62 60
        E 0 90 6e 60
        E 30 80 18 00
        E 0 80 2e 00
        E 0 80 60 00
        E 0 80 62 00
        E 0 80 6e 00
        E 50 90 18 60
        E 0 90 31 60
        E 0 90 60 60
        E 0 90 63 60
        E 0 90 6f 60
        E 30 80 18 00
        E 0 80 31 00
        E 0 80 60 00
        E 0 80 63 00
        E 0 80 6f 00
        E 50 90 18 60
        E 0 90 1a 60
        E 0 90 54 60
        E 0 90 55 60
        E 0 90 60 60
        E 0 90 61 60
        E 30 80 18 00
        E 0 80 1a 00
        E 0 80 54 00
        E 0 80 55 00
        E 0 80 60 00
        E 0 80 61 00
        E 50 90 18 60
        E 0 90 1b 60
        E 0 90 60 60
        E 0 90 61 60
        E 30 80 18 00
        E 0 80 1b 00
        E 0 80 60 00
        E 0 80 61 00
        E 50 90 18 60
        E 0 90 1a 60
        E 0 90 60 60
        E 0 90 61 60
        E 30 80 18 00
        E 0 80 1a 00
        E 0 80 60 00
        E 0 80 61 00
        E 50 90 18 60
        E 0 90 2f 60
        E 0 90 3e 60
        E 0 90 4a 60
        E 0 90 54 60
        E 0 90 56 60
        E 0 90 60 60
        E 0 90 62 60
        E 0 90 6e 60
        E 30 80 18 00
        E 0 80 2f 00
        E 0 80 3e 00
        E 0 80 4a 00
        E 0 80 54 00
        E 0 80 56 00
        E 0 80 60 00
        E 0 80 62 00
        E 0 80 6e 00
        E 50 90 18 60
        E 0 90 2e 60
        E 0 90 60 60
        E 0 90 62 60
        E 0 90 6e 60
        E 30 80 18 00
        E 0 80 2e 00
        E 0 80 60 00
        E 0 80 62 00
        E 0 80 6e 00
        E 50 90 18 60
        E 0 90 2f 60
        E 0 90 60 60
        E 0 90 62 60
        E 0 90 6e 60
        E 30 80 18 00
        E 0 80 2f 00
        E 0 80 60 00
        E 0 80 62 00
        E 0 80 6e 00
        E 50 90 18 60
        E 0 90 2e 60
        E 0 90 54 60
        E 0 90 56 60
        E 0 90 60 60
        E 0 90 62 60
        E 0 90 6e 60
        E 30 80 18 00
        E 0 80 2e 00
        E 0 80 54 00
        E 0 80 56 00
        E 0 80 60 00
        E 0 80 62 00
        E 0 80 6e 00
        E 50 90 18 60
        E 0 90 31 60
        E 0 90 60 60
        E 0 90 63 60
        E 0 90 6f 60
        E 30 80 18 00
        E 0 80 31 00
        E 0 80 60 00
        E 0 80 63 00
        E 0 80 6f 00
        E 50 90 18 60
        E 0 90 30 60
        E 0 90 60 60
        E 0 90 63 60
        E 0 90 6f 60
        E 30 80 18 00
        E 0 80 30 00
        E 0 80 60 00
        E 0 80 63 00
        E 0 80 6f 00
        E 50 80 78 00
        E 0 80 79 00
        E 0 80 7a 00
        E 0 80 7b 00
        E 0 80 7c 00
        E 0 90 18 60
        E 0 90 24 60
        E 0 90 40 60
        E 0 90 48 60
        E 0 90 4c 60
        E 0 90 54 60
        E 0 90 58 60
        E 0 90 60 60
        E 0 90 64 60
        E 30 80 18 00
        E 0 80 24 00
        E 0 80 40 00
        E 0 80 48 00
        E 0 80 4c 00
        E 0 80 54 00
        E 0 80 58 00
        E 0 80 60 00
        E 0 80 64 00
        E 50 90 18 60
        E 0 90 60 60
        E 30 80 18 00
        E 0 80 60 00
        E 50 90 18 60
        E 0 90 2a 60
        E 0 90 60 60
        E 0 90 63 60
        E 30 80 18 00
        E 0 80 2a 00
        E 0 80 60 00
        E 0 80 63 00
        E 50 90 18 60
        E 0 90 54 60
        E 0 90 60 60
        E 30 80 18 00
        E 0 80 54 00
        E 0 80 60 00
        E 50 90 18 60
        E 0 90 2a 60
        E 0 90 60 60
        E 0 90 63 60
        E 30 80 18 00
        E 0 80 2a 00
        E 0 80 60 00
        E 0 80 63 00
        E 50 90 18 60
        E 0 90 60 60
        E 30 80 18 00
        E 0 80 60 00
        E 50 90 18 60
        E 0 90 1a 60
        E 0 90 2a 60
        E 0 90 3d 60
        E 0 90 49 60
        E 0 90 4b 60
        E 0 90 54 60
        E 0 90 55 60
        E 0 90 57 60
        E 0 90 60 60
        E 0 90 61 60
        E 0 90 63 60
        E 30 80 18 00
        E 0 80 1a 00
        E 0 80 2a 00
        E 0 80 3d 00
        E 0 80 49 00
        E 0 80 4b 00
        E 0 80 54 00
        E 0 80 55 00
        E 0 80 57 00
        E 0 80 60 00
        E 0 80 61 00
        E 0 80 63 00
        E 50 90 18 60
        E 0 90 60 60
        E 30 80 18 00
        E 0 80 60 00
        E 50 90 18 60
        E 0 90 2a 60
        E 0 90 60 60
        E 0 90 63 60
        E 30 80 18 00
        E 0 80 2a 00
        E 0 80 60 00
        E 0 80 63 00
        E 50 90 18 60
        E 0 90 54 60
        E 0 90 60 60
        E 30 80 18 00
        E 0 80 54 00
        E 0 80 60 00
        E 50 90 18 60
        E 0 90 2a 60
        E 0 90 60 60
        E 0 90 63 60
        E 30 80 18 00
        E 0 80 2a 00
        E 0 80 60 00
        E 0 80 63 00
        E 50 90 18 60
        E 0 90 60 60
        E 30 80 18 00
        E 0 80 60 00
        E 50 90 18 60
        E 0 90 2a 60
        E 0 90 3f 60
        E 0 90 48 60
        E 0 90 4b 60
        E 0 90 54 60
        E 0 90 57 60
        E 0 90 60 60
        E 0 90 63 60
        E 30 80 18 00
        E 0 80 2a 00
        E 0 80 3f 00
        E 0 80 48 00
        E 0 80 4b 00
        E 0 80 54 00
        E 0 80 57 00
        E 0 80 60 00
        E 0 80 63 00
        E 50 90 18 60
        E 0 90 60 60
        E 30 80 18 00
        E 0 80 60 00
        E 50 90 18 60
        E 0 90 2a 60
        E 0 90 60 60
        E 0 90 63 60
        E 30 80 18 00
        E 0 80 2a 00
        E 0 80 60 00
        E 0 80 63 00
        E 50 90 18 60
        E 0 90 54 60
        E 0 90 60 60
        E 30 80 18 00
        E 0 80 54 00
        E 0 80 60 00
        E 50 90 18 60
        E 0 90 2a 60
        E 0 90 60 60
        E 0 90 63 60
        E 30 80 18 00
        E 0 80 2a 00
        E 0 80 60 00
        E 0 80 63 00
        E 50 90 18 60
        E 0 90 60 60
        E 30 80 18 00
        E 0 80 60 00
        E 50 90 18 60
        E 0 90 1a 60
        E 0 90 2a 60
        E 0 90 3d 60
        E 0 90 49 60
        E 0 90 4b 60
        E 0 90 54 60
        E 0 90 55 60
        E 0 90 57 60
        E 0 90 60 60
        E 0 90 61 60
        E 0 90 63 60
        E 30 80 18 00
        E 0 80 1a 00
        E 0 80 2a 00
        E 0 80 3d 00
        E 0 80 49 00
        E 0 80 4b 00
        E 0 80 54 00
        E 0 80 55 00
        E 0 80 57 00
        E 0 80 60 00
        E 0 80 61 00
        E 0 80 63 00
        E 50 90 18 60
        E 0 90 60 60
        E 30 80 18 00
        E 0 80 60 00
        E 50 90 18 60
        E 0 90 2b 60
        E 0 90 60 60
        E 0 90 63 60
        E 30 80 18 00
        E 0 80 2b 00
        E 0 80 60 00
        E 0 80 63 00
        E 50 90 18 60
        E 0 90 1b 60
        E 0 90 54 60
        E 0 90 55 60
        E 0 90 60 60
        E 0 90 61 60
        E 30 80 18 00
        E 0 80 1b 00
        E 0 80 54 00
        E 0 80 55 00
        E 0 80 60 00
        E 0 80 61 00
        E 50 90 18 60
        E 0 90 2b 60
        E 0 90 60 60
        E 0 90 63 60
        E 30 80 18 00
        E 0 80 2b 00
        E 0 80 60 00
        E 0 80 63 00
        E 50 90 18 60
        E 0 90 60 60
        E 30 80 18 00
        E 0 80 60 00
        E 50 90 18 60
        E 0 90 2a 60
        E 0 90 3f 60
        E 0 90 48 60
        E 0 90 4b 60
        E 0 90 54 60
        E 0 90 57 60
        E 0 90 60 60
        E 0 90 63 60
        E 30 80 18 00
        E 0 80 2a 00
        E 0 80 3f 00
        E 0 80 48 00
        E 0 80 4b 00
        E 0 80 54 00
        E 0 80 57 00
        E 0 80 60 00
        E 0 80 63 00
        E 50 90 18 60
        E 0 90 1a 60
        E 0 90 60 60
        E 0 90 61 60
        E 30 80 18 00
        E 0 80 1a 00
        E 0 80 60 00
        E 0 80 61 00
        E 50 90 18 60
        E 0 90 1b 60
        E 0 90 60 60
        E 0 90 61 60
        E 30 80 18 00
        E 0 80 1b 00
        E 0 80 60 00
        E 0 80 61 00
        E 50 90 18 60
        E 0 90 1a 60
        E 0 90 54 60
        E 0 90 55 60
        E 0 90 60 60
        E 0 90 61 60
        E 30 80 18 00
        E 0 80 1a 00
        E 0 80 54 00
        E 0 80 55 00
        E 0 80 60 00
        E 0 80 61 00
        E 50 90 18 60
        E 0 90 60 60
        E 30 80 18 00
        E 0 80 60 00
        E 50 90 18 60
        E 0 90 1a 60
        E 0 90 60 60
        E 0 90 61 60
        E 30 80 18 00
        E 0 80 1a 00
        E 0 80 60 00
        E 0 80 61 00
        E 50 90 18 60
        E 0 90 24 60
        E 0 90 40 60
        E 0 90 48 60
        E 0 90 4c 60
        E 0 90 54 60
        E 0 90 58 60
        E 0 90 60 60
        E 0 90 64 60
        E 30 80 18 00
        E 0 80 24 00
        E 0 80 40 00
        E 0 80 48 00
        E 0 80 4c 00
        E 0 80 54 00
        E 0 80 58 00
        E 0 80 60 00
        E 0 80 64 00
        E 50 90 18 60
        E 0 90 1a 60
        E 0 90 60 60
        E 0 90 61 60
        E 30 80 18 00
        E 0 80 1a 00
        E 0 80 60 00
        E 0 80 61 00
        E 50 90 18 60
        E 0 90 1b 60
        E 0 90 60 60
        E 0 90 61 60
        E 30 80 18 00
        E 0 80 1b 00
        E 0 80 60 00
        E 0 80 61 00
        E 50 90 18 60
        E 0 90 1a 60
        E 0 90 54 60
        E 0 90 55 60
        E 0 90 60 60
        E 0 90 61 60
        E 30 80 18 00
        E 0 80 1a 00
        E 0 80 54 00
        E 0 80 55 00
        E 0 80 60 00
        E 0 80 61 00
        E 50 90 18 60
        E 0 90 60 60
        E 30 80 18 00
        E 0 80 60 00
        E 50 90 18 60
        E 0 90 1a 60
        E 0 90 60 60
        E 0 90 61 60
        E 30 80 18 00
        E 0 80 1a 00
        E 0 80 60 00
        E 0 80 61 00
        E 50 90 18 60
        E 0 90 24 60
        E 0 90 40 60
        E 0 90 48 60
        E 0 90 4c 60
        E 0 90 54 60
        E 0 90 58 60
        E 0 90 60 60
        E 0 90 64 60
        E 30 80 18 00
        E 0 80 24 00
        E 0 80 40 00
        E 0 80 48 00
        E 0 80 4c 00
        E 0 80 54 00
        E 0 80 58 00
        E 0 80 60 00
        E 0 80 64 00
        E 50 90 18 60
        E 0 90 1a 60
        E 0 90 60 60
        E 0 90 61 60
        E 30 80 18 00
        E 0 80 1a 00
        E 0 80 60 00
        E 0 80 61 00
        E 50 90 18 60
        E 0 90 1b 60
        E 0 90 60 60
        E 0 90 61 60
        E 30 80 18 00
        E 0 80 1b 00
        E 0 80 60 00
        E 0 80 61 00
        E 50 90 18 60
        E 0 90 2e 60
        E 0 90 54 60
        E 0 90 56 60
        E 0 90 60 60
        E 0 90 62 60
        E 0 90 6e 60
        E 30 80 18 00
        E 0 80 2e 00
        E 0 80 54 00
        E 0 80 56 00
        E 0 80 60 00
        E 0 80 62 00
        E 0 80 6e 00
        E 50 90 18 60
        E 0 90 31 60
        E 0 90 60 60
        E 0 90 63 60
        E 0 90 6f 60
        E 30 80 18 00
        E 0 80 31 00
        E 0 80 60 00
        E 0 80 63 00
        E 0 80 6f 00
        E 50 90 18 60
        E 0 90 1a 60
        E 0 90 60 60
        E 0 90 61 60
        E 30 80 18 00
        E 0 80 1a 00
        E 0 80 60 00
        E 0 80 61 00
        E 50 90 18 60
        E 0 90 1b 60
        E 0 90 3d 60
        E 0 90 49 60
        E 0 90 54 60
        E 0 90 55 60
        E 0 90 60 60
        E 0 90 61 60
        E 30 80 18 00
        E 0 80 1b 00
        E 0 80 3d 00
        E 0 80 49 00
        E 0 80 54 00
        E 0 80 55 00
        E 0 80 60 00
        E 0 80 61 00
        E 50 90 18 60
        E 0 90 1a 60
        E 0 90 60 60
        E 0 90 61 60
        E 30 80 18 00
        E 0 80 1a 00
        E 0 80 60 00
        E 0 80 61 00
        E 50 90 18 60
        E 0 90 2f 60
        E 0 90 60 60
        E 0 90 62 60
        E 0 90 6e 60
        E 30 80 18 00
        E 0 80 2f 00
        E 0 80 60 00
        E 0 80 62 00
        E 0 80 6e 00
        E 50 90 18 60
        E 0 90 2e 60
        E 0 90 54 60
        E 0 90 56 60
        E 0 90 60 60
        E 0 90 62 60
        E 0 90 6e 60
        E 30 80 18 00
        E 0 80 2e 00
        E 0 80 54 00
        E 0 80 56 00
        E 0 80 60 00
        E 0 80 62 00
        E 0 80 6e 00
        E 50 90 18 60
        E 0 90 31 60
        E 0 90 60 60
        E 0 90 63 60
        E 0 90 6f 60
        E 30 80 18 00
        E 0 80 31 00
        E 0 80 60 00
        E 0 80 63 00
        E 0 80 6f 00
        E 50 90 18 60
        E 0 90 30 60
        E 0 90 60 60
        E 0 90 63 60
        E 0 90 6f 60
        E 30 80 18 00
        E 0 80 30 00
        E 0 80 60 00
        E 0 80 63 00
        E 0 80 6f 00
        E 50 90 18 60
        E 0 90 24 60
        E 0 90 40 60
        E 0 90 48 60
        E 0 90 4c 60
        E 0 90 54 60
        E 0 90 58 60
        E 0 90 60 60
        E 0 90 64 60
        E 30 80 18 00
        E 0 80 24 00
        E 0 80 40 00
        E 0 80 48 00
        E 0 80 4c 00
        E 0 80 54 00
        E 0 80 58 00
        E 0 80 60 00
        E 0 80 64 00
        E 50 90 18 60
        E 0 90 60 60
        E 30 80 18 00
        E 0 80 60 00
        E 50 90 18 60
        E 0 90 2b 60
        E 0 90 60 60
        E 0 90 63 60
        E 30 80 18 00
        E 0 80 2b 00
        E 0 80 60 00
        E 0 80 63 00
        E 50 90 18 60
        E 0 90 1b 60
        E 0 90 54 60
        E 0 90 55 60
        E 0 90 60 60
        E 0 90 61 60
        E 30 80 18 00
        E 0 80 1b 00
        E 0 80 54 00
        E 0 80 55 00
        E 0 80 60 00
        E 0 80 61 00
        E 50 90 18 60
        E 0 90 2b 60
        E 0 90 60 60
        E 0 90 63 60
        E 30 80 18 00
        E 0 80 2b 00
        E 0 80 60 00
        E 0 80 63 00
        E 50 90 18 60
        E 0 90 60 60
        E 30 80 18 00
        E 0 80 60 00
        E 50 90 18 60
        E 0 90 1a 60
        E 0 90 2a 60
        E 0 90 3d 60
        E 0 90 49 60
        E 0 90 4b 60
        E 0 90 54 60
        E 0 90 55 60
        E 0 90 57 60
        E 0 90 60 60
        E 0 90 61 60
        E 0 90 63 60
        E 30 80 18 00
        E 0 80 1a 00
        E 0 80 2a 00
        E 0 80 3d 00
        E 0 80 49 00
        E 0 80 4b 00
        E 0 80 54 00
        E 0 80 55 00
        E 0 80 57 00
        E 0 80 60 00
        E 0 80 61 00
        E 0 80 63 00
        E 50 90 18 60
        E 0 90 60 60
        E 30 80 18 00
        E 0 80 60 00
        E 50 90 18 60
        E 0 90 2a 60
        E 0 90 60 60
        E 0 90 63 60
        E 30 80 18 00
        E 0 80 2a 00
        E 0 80 60 00
        E 0 80 63 00
        E 50 90 18 60
        E 0 90 54 60
        E 0 90 60 60
        E 30 80 18 00
        E 0 80 54 00
        E 0 80 60 00
        E 50 90 18 60
        E 0 90 2a 60
        E 0 90 60 60
        E 0 90 63 60
        E 30 80 18 00
        E 0 80 2a 00
        E 0 80 60 00
        E 0 80 63 00
        E 50 90 18 60
        E 0 90 60 60
        E 30 80 18 00
        E 0 80 60 00
        E 50 90 18 60
        E 0 90 2a 60
        E 0 90 3f 60
        E 0 90 48 60
        E 0 90 4b 60
        E 0 90 54 60
        E 0 90 57 60
        E 0 90 60 60
        E 0 90 63 60
        E 30 80 18 00
        E 0 80 2a 00
        E 0 80 3f 00
        E 0 80 48 00
        E 0 80 4b 00
        E 0 80 54 00
        E 0 80 57 00
        E 0 80 60 00
        E 0 80 63 00
        E 50 90 18 60
        E 0 90 60 60
        E 30 80 18 00
        E 0 80 60 00
        E 50 90 18 60
        E 0 90 2a 60
        E 0 90 60 60
        E 0 90 63 60
        E 30 80 18 00
        E 0 80 2a 00
        E 0 80 60 00
        E 0 80 63 00
        E 50 90 18 60
        E 0 90 54 60
        E 0 90 60 60
        E 30 80 18 00
        E 0 80 54 00
        E 0 80 60 00
        E 50 90 18 60
        E 0 90 2a 60
        E 0 90 60 60
        E 0 90 63 60
        E 30 80 18 00
        E 0 80 2a 00
        E 0 80 60 00
        E 0 80 63 00
        E 50 90 18 60
        E 0 90 60 60
        E 30 80 18 00
        E 0 80 60 00
        E 50 90 18 60
        E 0 90 1a 60
        E 0 90 2a 60
        E 0 90 3d 60
        E 0 90 49 60
        E 0 90 4b 60
        E 0 90 54 60
        E 0 90 55 60
        E 0 90 57 60
        E 0 90 60 60
        E 0 90 61 60
        E 0 90 63 60
        E 30 80 18 00
        E 0 80 1a 00
        E 0 80 2a 00
        E 0 80 3d 00
        E 0 80 49 00
        E 0 80 4b 00
        E 0 80 54 00
        E 0 80 55 00
        E 0 80 57 00
        E 0 80 60 00
        E 0 80 61 00
        E 0 80 63 00
        E 50 90 18 60
        E 0 90 60 60
        E 30 80 18 00
        E 0 80 60 00
        E 50 90 18 60
        E 0 90 2b 60
        E 0 90 60 60
        E 0 90 63 60
        E 30 80 18 00
        E 0 80 2b 00
        E 0 80 60 00
        E 0 80 63 00
        E 50 90 18 60
        E 0 90 1b 60
        E 0 90 54 60
        E 0 90 55 60
        E 0 90 60 60
        E 0 90 61 60
        E 30 80 18 00
        E 0 80 1b 00
        E 0 80 54 00
        E 0 80 55 00
        E 0 80 60 00
        E 0 80 61 00
        E 50 90 18 60
        E 0 90 2b 60
        E 0 90 60 60
        E 0 90 63 60
        E 30 80 18 00
        E 0 80 2b 00
        E 0 80 60 00
        E 0 80 63 00
        E 50 90 18 60
        E 0 90 60 60
        E 30 80 18 00
        E 0 80 60 00
        E 50 90 18 60
        E 0 90 2a 60
        E 0 90 3f 60
        E 0 90 48 60
        E 0 90 4b 60
        E 0 90 54 60
        E 0 90 57 60
        E 0 90 60 60
        E 0 90 63 60
        E 30 80 18 00
        E 0 80 2a 00
        E 0 80 3f 00
        E 0 80 48 00
        E 0 80 4b 00
        E 0 80 54 00
        E 0 80 57 00
        E 0 80 60 00
        E 0 80 63 00
        E 50 90 18 60
        E 0 90 60 60
        E 30 80 18 00
        E 0 80 60 00
        E 50 90 18 60
        E 0 90 2e 60
        E 0 90 60 60
        E 0 90 62 60
        E 0 90 6e 60
        E 30 80 18 00
        E 0 80 2e 00
        E 0 80 60 00
        E 0 80 62 00
        E 0 80 6e 00
        E 23 90 2f 60
        E 0 90 62 60
        E 0 90 6e 60
        E 27 90 18 60
        E 0 90 54 60
        E 0 90 60 60
        E 3 80 2f 00
        E 0 80 62 00
        E 0 80 6e 00
        E 24 90 2e 60
        E 0 90 62 60
        E 0 90 6e 60
        E 3 80 18 00
        E 0 80 54 00
        E 0 80 60 00
        E 27 80 2e 00
        E 0 80 62 00
        E 0 80 6e 00
        E 23 90 18 60
        E 0 90 2f 60
        E 0 90 60 60
        E 0 90 62 60
        E 0 90 6e 60
        E 30 80 18 00
        E 0 80 2f 00
        E 0 80 60 00
        E 0 80 62 00
        E 0 80 6e 00
        E 50 90 18 60
        E 0 90 2e 60
        E 0 90 60 60
        E 0 90 62 60
        E 0 90 6e 60
        E 30 80 18 00
        E 0 80 2e 00
        E 0 80 60 00
        E 0 80 62 00
        E 0 80 6e 00
        E 50 90 18 60
        E 0 90 24 60
        E 0 90 40 60
        E 0 90 48 60
        E 0 90 4c 60
        E 0 90 54 60
        E 0 90 58 60
        E 0 90 60 60
        E 0 90 64 60
        E 30 80 18 00
        E 0 80 24 00
        E 0 80 40 00
        E 0 80 48 00
        E 0 80 4c 00
        E 0 80 54 00
        E 0 80 58 00
        E 0 80 60 00
        E 0 80 64 00
        E 50 90 18 60
        E 0 90 2e 60
        E 0 90 60 60
        E 0 90 62 60
        E 0 90 6e 60
        E 30 80 18 00
        E 0 80 2e 00
        E 0 80 60 00
        E 0 80 62 00
        E 0 80 6e 00
        E 50 90 18 60
        E 0 90 2f 60
        E 0 90 60 60
        E 0 90 62 60
        E 0 90 6e 60
        E 30 80 18 00
        E 0 80 2f 00
        E 0 80 60 00
        E 0 80 62 00
        E 0 80 6e 00
        E 23 90 2e 60
        E 0 90 62 60
        E 0 90 6e 60
        E 27 90 18 60
        E 0 90 54 60
        E 0 90 60 60
        E 3 80 2e 00
        E 0 80 62 00
        E 0 80 6e 00
        E 23 90 2e 60
        E 0 90 62 60
        E 0 90 6e 60
        E 4 80 18 00
        E 0 80 54 00
        E 0 80 60 00
        E 26 80 2e 00
        E 0 80 62 00
        E 0 80 6e 00
        E 24 90 18 60
        E 0 90 2f 60
        E 0 90 60 60
        E 0 90 62 60
        E 0 90 6e 60
        E 30 80 18 00
        E 0 80 2f 00
        E 0 80 60 00
        E 0 80 62 00
        E 0 80 6e 00
        E 50 90 18 60
        E 0 90 2e 60
        E 0 90 60 60
        E 0 90 62 60
        E 0 90 6e 60
        E 30 80 18 00
        E 0 80 2e 00
        E 0 80 60 00
        E 0 80 62 00
        E 0 80 6e 00
        E 50 90 18 60
        E 0 90 24 60
        E 0 90 40 60
        E 0 90 48 60
        E 0 90 4c 60
        E 0 90 54 60
        E 0 90 58 60
        E 0 90 60 60
        E 0 90 64 60
        E 30 80 18 00
        E 0 80 24 00
        E 0 80 40 00
        E 0 80 48 00
        E 0 80 4c 00
        E 0 80 54 00
        E 0 80 58 00
        E 0 80 60 00
        E 0 80 64 00
        E 50 90 18 60
        E 0 90 30 60
        E 0 90 60 60
        E 0 90 63 60
        E 0 90 6f 60
        E 30 80 18 00
        E 0 80 30 00
        E 0 80 60 00
        E 0 80 63 00
        E 0 80 6f 00
        E 50 90 18 60
        E 0 90 31 60
        E 0 90 60 60
        E 0 90 63 60
        E 0 90 6f 60
        E 30 80 18 00
        E 0 80 31 00
        E 0 80 60 00
        E 0 80 63 00
        E 0 80 6f 00
        E 23 90 30 60
        E 0 90 63 60
        E 0 90 6f 60
        E 27 90 18 60
        E 0 90 54 60
        E 0 90 60 60
        E 3 80 30 00
        E 0 80 63 00
        E 0 80 6f 00
        E 24 90 30 60
        E 0 90 63 60
        E 0 90 6f 60
        E 3 80 18 00
        E 0 80 54 00
        E 0 80 60 00
        E 27 80 30 00
        E 0 80 63 00
        E 0 80 6f 00
        E 23 90 18 60
        E 0 90 31 60
        E 0 90 60 60
        E 0 90 63 60
        E 0 90 6f 60
        E 30 80 18 00
        E 0 80 31 00
        E 0 80 60 00
        E 0 80 63 00
        E 0 80 6f 00
        E 50 90 18 60
        E 0 90 30 60
        E 0 90 60 60
        E 0 90 63 60
        E 0 90 6f 60
        E 30 80 18 00
        E 0 80 30 00
        E 0 80 60 00
        E 0 80 63 00
        E 0 80 6f 00
        E 50 90 18 60
        E 0 90 31 60
        E 0 90 3f 60
        E 0 90 4b 60
        E 0 90 54 60
        E 0 90 57 60
        E 0 90 60 60
        E 0 90 63 60
        E 0 90 6f 60
        E 30 80 18 00
        E 0 80 31 00
        E 0 80 3f 00
        E 0 80 4b 00
        E 0 80 54 00
        E 0 80 57 00
        E 0 80 60 00
        E 0 80 63 00
        E 0 80 6f 00
        E 50 90 18 60
        E 0 90 30 60
        E 0 90 60 60
        E 0 90 63 60
        E 0 90 6f 60
        E 30 80 18 00
        E 0 80 30 00
        E 0 80 60 00
        E 0 80 63 00
        E 0 80 6f 00
        E 50 90 18 60
        E 0 90 33 60
        E 0 90 60 60
        E 0 90 64 60
        E 0 90 70 60
        E 30 80 18 00
        E 0 80 33 00
        E 0 80 60 00
        E 0 80 64 00
        E 0 80 70 00
        E 50 90 18 60
        E 0 90 32 60
        E 0 90 54 60
        E 0 90 58 60
        E 0 90 60 60
        E 0 90 64 60
        E 0 90 70 60
        E 30 80 18 00
        E 0 80 32 00
        E 0 80 54 00
        E 0 80 58 00
        E 0 80 60 00
        E 0 80 64 00
        E 0 80 70 00
        E 50 90 18 60
        E 0 90 33 60
        E 0 90 60 60
        E 0 90 64 60
        E 0 90 70 60
        E 30 80 18 00
        E 0 80 33 00
        E 0 80 60 00
        E 0 80 64 00
        E 0 80 70 00
        E 50 90 18 60
        E 0 90 32 60
        E 0 90 60 60
        E 0 90 64 60
        E 0 90 70 60
        E 30 80 18 00
        E 0 80 32 00
        E 0 80 60 00
        E 0 80 64 00
        E 0 80 70 00
        E 50 90 18 60
        E 0 90 24 60
        E 0 90 40 60
        E 0 90 48 60
        E 0 90 4c 60
        E 0 90 54 60
        E 0 90 58 60
        E 0 90 60 60
        E 0 90 64 60
        E 30 80 18 00
        E 0 80 24 00
        E 0 80 40 00
        E 0 80 48 00
        E 0 80 4c 00
        E 0 80 54 00
        E 0 80 58 00
        E 0 80 60 00
        E 0 80 64 00
        E 50 90 18 60
        E 0 90 60 60
        E 30 80 18 00
        E 0 80 60 00
        E 50 90 18 60
        E 0 90 2a 60
        E 0 90 60 60
        E 0 90 63 60
        E 30 80 18 00
        E 0 80 2a 00
        E 0 80 60 00
        E 0 80 63 00
        E 50 90 18 60
        E 0 90 54 60
        E 0 90 60 60
        E 30 80 18 00
        E 0 80 54 00
        E 0 80 60 00
        E 50 90 18 60
        E 0 90 2a 60
        E 0 90 60 60
        E 0 90 63 60
        E 30 80 18 00
        E 0 80 2a 00
        E 0 80 60 00
        E 0 80 63 00
        E 50 90 18 60
        E 0 90 60 60
        E 30 80 18 00
        E 0 80 60 00
        E 50 90 18 60
        E 0 90 1a 60
        E 0 90 2a 60
        E 0 90 3d 60
        E 0 90 49 60
        E 0 90 4b 60
        E 0 90 54 60
        E 0 90 55 60
        E 0 90 57 60
        E 0 90 60 60
        E 0 90 61 60
        E 0 90 63 60
        E 30 80 18 00
        E 0 80 1a 00
        E 0 80 2a 00
        E 0 80 3d 00
        E 0 80 49 00
        E 0 80 4b 00
        E 0 80 54 00
        E 0 80 55 00
        E 0 80 57 00
        E 0 80 60 00
        E 0 80 61 00
        E 0 80 63 00
        E 50 90 18 60
        E 0 90 60 60
        E 30 80 18 00
        E 0 80 60 00
        E 50 90 18 60
        E 0 90 2a 60
        E 0 90 60 60
        E 0 90 63 60
        E 30 80 18 00
        E 0 80 2a 00
        E 0 80 60 00
        E 0 80 63 00
        E 50 90 18 60
        E 0 90 54 60
        E 0 90 60 60
        E 30 80 18 00
        E 0 80 54 00
        E 0 80 60 00
        E 50 90 18 60
        E 0 90 2a 60
        E 0 90 60 60
        E 0 90 63 60
        E 30 80 18 00
        E 0 80 2a 00
        E 0 80 60 00
        E 0 80 63 00
        E 50 90 18 60
        E 0 90 60 60
        E 30 80 18 00
        E 0 80 60 00
        E 50 90 18 60
        E 0 90 2a 60
        E 0 90 3f 60
        E 0 90 48 60
        E 0 90 4b 60
        E 0 90 54 60
        E 0 90 57 60
        E 0 90 60 60
        E 0 90 63 60
        E 30 80 18 00
        E 0 80 2a 00
        E 0 80 3f 00
        E 0 80 48 00
        E 0 80 4b 00
        E 0 80 54 00
        E 0 80 57 00
        E 0 80 60 00
        E 0 80 63 00
        E 50 90 18 60
        E 0 90 60 60
        E 30 80 18 00
        E 0 80 60 00
        E 50 90 18 60
        E 0 90 2a 60
        E 0 90 60 60
        E 0 90 63 60
        E 30 80 18 00
        E 0 80 2a 00
        E 0 80 60 00
        E 0 80 63 00
        E 50 90 18 60
        E 0 90 54 60
        E 0 90 60 60
        E 30 80 18 00
        E 0 80 54 00
        E 0 80 60 00
        E 50 90 18 60
        E 0 90 2a 60
        E 0 90 60 60
        E 0 90 63 60
        E 30 80 18 00
        E 0 80 2a 00
        E 0 80 60 00
        E 0 80 63 00
        E 50 90 18 60
        E 0 90 60 60
        E 30 80 18 00
        E 0 80 60 00
        E 50 90 18 60
        E 0 90 1a 60
        E 0 90 2a 60
        E 0 90 3d 60
        E 0 90 49 60
        E 0 90 4b 60
        E 0 90 54 60
        E 0 90 55 60
        E 0 90 57 60
        E 0 90 60 60
        E 0 90 61 60
        E 0 90 63 60
        E 30 80 18 00
        E 0 80 1a 00
        E 0 80 2a 00
        E 0 80 3d 00
        E 0 80 49 00
        E 0 80 4b 00
        E 0 80 54 00
        E 0 80 55 00
        E 0 80 57 00
        E 0 80 60 00
        E 0 80 61 00
        E 0 80 63 00
        E 50 90 18 60
        E 0 90 60 60
        E 30 80 18 00
        E 0 80 60 00
        E 50 90 18 60
        E 0 90 2a 60
        E 0 90 60 60
        E 0 90 63 60
        E 30 80 18 00
        E 0 80 2a 00
        E 0 80 60 00
        E 0 80 63 00
        E 50 90 18 60
        E 0 90 54 60
        E 0 90 60 60
        E 30 80 18 00
        E 0 80 54 00
        E 0 80 60 00
        E 50 90 18 60
        E 0 90 2b 60
        E 0 90 60 60
        E 0 90 63 60
        E 30 80 18 00
        E 0 80 2b 00
        E 0 80 60 00
        E 0 80 63 00
        E 50 90 18 60
        E 0 90 60 60
        E 30 80 18 00
        E 0 80 60 00
        E 50 90 18 60
        E 0 90 2a 60
        E 0 90 3f 60
        E 0 90 48 60
        E 0 90 4b 60
        E 0 90 54 60
        E 0 90 57 60
        E 0 90 60 60
        E 0 90 63 60
        E 30 80 18 00
        E 0 80 2a 00
        E 0 80 3f 00
        E 0 80 48 00
        E 0 80 4b 00
        E 0 80 54 00
        E 0 80 57 00
        E 0 80 60 00
        E 0 80 63 00
        E 50 90 18 60
        E 0 90 1a 60
        E 0 90 60 60
        E 0 90 61 60
        E 30 80 18 00
        E 0 80 1a 00
        E 0 80 60 00
        E 0 80 61 00
        E 50 90 18 60
        E 0 90 1b 60
        E 0 90 60 60
        E 0 90 61 60
        E 30 80 18 00
        E 0 80 1b 00
        E 0 80 60 00
        E 0 80 61 00
        E 23 90 1a 60
        E 0 90 61 60
        E 27 90 18 60
        E 0 90 54 60
        E 0 90 60 60
        E 3 80 1a 00
        E 0 80 61 00
        E 24 90 1a 60
        E 0 90 61 60
        E 3 80 18 00
        E 0 80 54 00
        E 0 80 60 00
        E 27 80 1a 00
        E 0 80 61 00
        E 23 90 18 60
        E 0 90 1b 60
        E 0 90 60 60
        E 0 90 61 60
        E 30 80 18 00
        E 0 80 1b 00
        E 0 80 60 00
        E 0 80 61 00
        E 50 90 18 60
        E 0 90 1a 60
        E 0 90 60 60
        E 0 90 61 60
        E 30 80 18 00
        E 0 80 1a 00
        E 0 80 60 00
        E 0 80 61 00
        E 50 90 18 60
        E 0 90 24 60
        E 0 90 40 60
        E 0 90 48 60
        E 0 90 4c 60
        E 0 90 54 60
        E 0 90 58 60
        E 0 90 60 60
        E 0 90 64 60
        E 30 80 18 00
        E 0 80 24 00
        E 0 80 40 00
        E 0 80 48 00
        E 0 80 4c 00
        E 0 80 54 00
        E 0 80 58 00
        E 0 80 60 00
        E 0 80 64 00
        E 50 90 18 60
        E 0 90 1a 60
        E 0 90 60 60
        E 0 90 61 60
        E 30 80 18 00
        E 0 80 1a 00
        E 0 80 60 00
        E 0 80 61 00
        E 50 90 18 60
        E 0 90 1b 60
        E 0 90 60 60
        E 0 90 61 60
        E 30 80 18 00
        E 0 80 1b 00
        E 0 80 60 00
        E 0 80 61 00
        E 50 90 18 60
        E 0 90 1a 60
        E 0 90 54 60
        E 0 90 55 60
        E 0 90 60 60
        E 0 90 61 60
        E 30 80 18 00
        E 0 80 1a 00
        E 0 80 54 00
        E 0 80 55 00
        E 0 80 60 00
        E 0 80 61 00
        E 50 90 18 60
        E 0 90 1b 60
        E 0 90 60 60
        E 0 90 61 60
        E 30 80 18 00
        E 0 80 1b 00
        E 0 80 60 00
        E 0 80 61 00
        E 50 90 18 60
        E 0 90 1a 60
        E 0 90 60 60
        E 0 90 61 60
        E 30 80 18 00
        E 0 80 1a 00
        E 0 80 60 00
        E 0 80 61 00
        E 50 90 18 60
        E 0 90 1b 60
        E 0 90 3d 60
        E 0 90 49 60
        E 0 90 54 60
        E 0 90 55 60
        E 0 90 60 60
        E 0 90 61 60
        E 30 80 18 00
        E 0 80 1b 00
        E 0 80 3d 00
        E 0 80 49 00
        E 0 80 54 00
        E 0 80 55 00
        E 0 80 60 00
        E 0 80 61 00
        E 50 90 18 60
        E 0 90 1a 60
        E 0 90 60 60
        E 0 90 61 60
        E 30 80 18 00
        E 0 80 1a 00
        E 0 80 60 00
        E 0 80 61 00
        E 50 90 18 60
        E 0 90 1b 60
        E 0 90 60 60
        E 0 90 61 60
        E 30 80 18 00
        E 0 80 1b 00
        E 0 80 60 00
        E 0 80 61 00
        E 50 90 18 60
        E 0 90 1a 60
        E 0 90 54 60
        E 0 90 55 60
        E 0 90 60 60
        E 0 90 61 60
        E 30 80 18 00
        E 0 80 1a 00
        E 0 80 54 00
        E 0 80 55 00
        E 0 80 60 00
        E 0 80 61 00
        E 50 90 18 60
        E 0 90 1b 60
        E 0 90 60 60
        E 0 90 61 60
        E 30 80 18 00
        E 0 80 1b 00
        E 0 80 60 00
        E 0 80 61 00
        E 50 90 18 60
        E 0 90 1a 60
        E 0 90 60 60
        E 0 90 61 60
        E 30 80 18 00
        E 0 80 1a 00
        E 0 80 60 00
        E 0 80 61 00
        E 50 90 18 60
        E 0 90 1b 60
        E 0 90 3d 60
        E 0 90 49 60
        E 0 90 54 60
        E 0 90 55 60
        E 0 90 60 60
        E 0 90 61 60
        E 30 80 18 00
        E 0 80 1b 00
        E 0 80 3d 00
        E 0 80 49 00
        E 0 80 54 00
        E 0 80 55 00
        E 0 80 60 00
        E 0 80 61 00
        E 50 90 18 60
        E 0 90 1a 60
        E 0 90 60 60
        E 0 90 61 60
        E 30 80 18 00
        E 0 80 1a 00
        E 0 80 60 00
        E 0 80 61 00
        E 50 90 18 60
        E 0 90 1b 60
        E 0 90 60 60
        E 0 90 61 60
        E 30 80 18 00
        E 0 80 1b 00
        E 0 80 60 00
        E 0 80 61 00
        E 24 90 1a 60
        E 0 90 61 60
        E 26 90 18 60
        E 0 90 54 60
        E 0 90 60 60
        E 4 80 1a 00
        E 0 80 61 00
        E 23 90 1a 60
        E 0 90 61 60
        E 3 80 18 00
        E 0 80 54 00
        E 0 80 60 00
        E 27 80 1a 00
        E 0 80 61 00
        E 23 90 18 60
        E 0 90 1b 60
        E 0 90 60 60
        E 0 90 61 60
        E 30 80 18 00
        E 0 80 1b 00
        E 0 80 60 00
        E 0 80 61 00
        E 23 90 1a 60
        E 0 90 61 60
        E 27 90 18 60
        E 0 90 60 60
        E 3 80 1a 00
        E 0 80 61 00
        E 24 90 1a 60
        E 0 90 61 60
        E 3 80 18 00
        E 0 80 60 00
        E 27 80 1a 00
        E 0 80 61 00
        E 23 90 18 60
        E 0 90 24 60
        E 0 90 40 60
        E 0 90 48 60
        E 0 90 4c 60
        E 0 90 54 60
        E 0 90 58 60
        E 0 90 60 60
        E 0 90 64 60
        E 30 80 18 00
        E 0 80 24 00
        E 0 80 40 00
        E 0 80 48 00
        E 0 80 4c 00
        E 0 80 54 00
        E 0 80 58 00
        E 0 80 60 00
        E 0 80 64 00
        E 130 90 1e 60
        E 0 90 62 60
        E 30 80 1e 00
        E 0 80 62 00
        E 50 90 1b 60
        E 0 90 55 60
        E 0 90 61 60
        E 30 80 1b 00
        E 0 80 55 00
        E 0 80 61 00
        E 50 90 1e 60
        E 0 90 62 60
        E 30 80 1e 00
        E 0 80 62 00
        E 50 90 18 60
        E 0 90 60 60
        E 30 80 18 00
        E 0 80 60 00
        E 50 90 1a 60
        E 0 90 1f 60
        E 0 90 3d 60
        E 0 90 49 60
        E 0 90 4a 60
        E 0 90 55 60
        E 0 90 56 60
        E 0 90 61 60
        E 0 90 62 60
        E 30 80 1a 00
        E 0 80 1f 00
        E 0 80 3d 00
        E 0 80 49 00
        E 0 80 4a 00
        E 0 80 55 00
        E 0 80 56 00
        E 0 80 61 00
        E 0 80 62 00
        E 130 90 1e 60
        E 0 90 62 60
        E 30 80 1e 00
        E 0 80 62 00
        E 50 90 1b 60
        E 0 90 55 60
        E 0 90 61 60
        E 30 80 1b 00
        E 0 80 55 00
        E 0 80 61 00
        E 50 90 18 60
        E 0 90 1e 60
        E 0 90 60 60
        E 0 90 62 60
        E 30 80 18 00
        E 0 80 1e 00
        E 0 80 60 00
        E 0 80 62 00
        E 50 90 1b 60
        E 0 90 61 60
        E 30 80 1b 00
        E 0 80 61 00
        E 50 90 1e 60
        E 0 90 3e 60
        E 0 90 4a 60
        E 0 90 56 60
        E 0 90 62 60
        E 30 80 1e 00
        E 0 80 3e 00
        E 0 80 4a 00
        E 0 80 56 00
        E 0 80 62 00
        E 50 90 18 60
        E 0 90 60 60
        E 30 80 18 00
        E 0 80 60 00
        E 50 90 1a 60
        E 0 90 1f 60
        E 0 90 61 60
        E 0 90 62 60
        E 30 80 1a 00
        E 0 80 1f 00
        E 0 80 61 00
        E 0 80 62 00
        E 130 90 1e 60
        E 0 90 62 60
        E 30 80 1e 00
        E 0 80 62 00
        E 50 90 1b 60
        E 0 90 61 60
        E 30 80 1b 00
        E 0 80 61 00
        E 50 90 18 60
        E 0 90 1e 60
        E 0 90 3e 60
        E 0 90 48 60
        E 0 90 4a 60
        E 0 90 54 60
        E 0 90 56 60
        E 0 90 60 60
        E 0 90 62 60
        E 30 80 18 00
        E 0 80 1e 00
        E 0 80 3e 00
        E 0 80 48 00
        E 0 80 4a 00
        E 0 80 54 00
        E 0 80 56 00
        E 0 80 60 00
        E 0 80 62 00
        E 50 90 1b 60
        E 0 90 61 60
        E 30 80 1b 00
        E 0 80 61 00
        E 50 90 1e 60
        E 0 90 62 60
        E 30 80 1e 00
        E 0 80 62 00
        E 50 90 18 60
        E 0 90 54 60
        E 0 90 60 60
        E 30 80 18 00
        E 0 80 54 00
        E 0 80 60 00
        E 50 90 1a 60
        E 0 90 1f 60
        E 0 90 61 60
        E 0 90 62 60
        E 30 80 1a 00
        E 0 80 1f 00
        E 0 80 61 00
        E 0 80 62 00
        E 130 90 18 60
        E 0 90 24 60
        E 0 90 40 60
        E 0 90 48 60
        E 0 90 4c 60
        E 0 90 54 60
        E 0 90 58 60
        E 0 90 60 60
        E 0 90 64 60
        E 0 90 74 60
        E 30 80 18 00
        E 0 80 24 00
        E 0 80 40 00
        E 0 80 48 00
        E 0 80 4c 00
        E 0 80 54 00
        E 0 80 58 00
        E 0 80 60 00
        E 0 80 64 00
        E 130 90 1e 60
        E 0 90 62 60
        E 30 80 1e 00
        E 0 80 62 00
        E 50 90 1b 60
        E 0 90 55 60
        E 0 90 61 60
        E 30 80 1b 00
        E 0 80 55 00
        E 0 80 61 00
        E 50 90 18 60
        E 0 90 1e 60
        E 0 90 60 60
        E 0 90 62 60
        E 30 80 18 00
        E 0 80 1e 00
        E 0 80 60 00
        E 0 80 62 00
        E 50 90 18 60
        E 0 90 60 60
        E 30 80 18 00
        E 0 80 60 00
        E 50 90 1a 60
        E 0 90 1f 60
        E 0 90 3d 60
        E 0 90 49 60
        E 0 90 4a 60
        E 0 90 55 60
        E 0 90 56 60
        E 0 90 61 60
        E 0 90 62 60
        E 30 80 1a 00
        E 0 80 1f 00
        E 0 80 3d 00
        E 0 80 49 00
        E 0 80 4a 00
        E 0 80 55 00
        E 0 80 56 00
        E 0 80 61 00
        E 0 80 62 00
        E 130 90 1e 60
        E 0 90 62 60
        E 30 80 1e 00
        E 0 80 62 00
        E 50 90 1b 60
        E 0 90 55 60
        E 0 90 61 60
        E 30 80 1b 00
        E 0 80 55 00
        E 0 80 61 00
        E 50 90 18 60
        E 0 90 1e 60
        E 0 90 60 60
        E 0 90 62 60
        E 30 80 18 00
        E 0 80 1e 00
        E 0 80 60 00
        E 0 80 62 00
        E 50 90 1b 60
        E 0 90 61 60
        E 30 80 1b 00
        E 0 80 61 00
        E 50 90 1e 60
        E 0 90 3e 60
        E 0 90 4a 60
        E 0 90 56 60
        E 0 90 62 60
        E 30 80 1e 00
        E 0 80 3e 00
        E 0 80 4a 00
        E 0 80 56 00
        E 0 80 62 00
        E 50 90 18 60
        E 0 90 60 60
        E 30 80 18 00
        E 0 80 60 00
        E 50 90 1a 60
        E 0 90 1f 60
        E 0 90 61 60
        E 0 90 62 60
        E 30 80 1a 00
        E 0 80 1f 00
        E 0 80 61 00
        E 0 80 62 00
        E 130 90 1e 60
        E 0 90 62 60
        E 30 80 1e 00
        E 0 80 62 00
        E 50 90 1b 60
        E 0 90 61 60
        E 30 80 1b 00
        E 0 80 61 00
        E 50 90 18 60
        E 0 90 1e 60
        E 0 90 3e 60
        E 0 90 48 60
        E 0 90 4a 60
        E 0 90 54 60
        E 0 90 56 60
        E 0 90 60 60
        E 0 90 62 60
        E 30 80 18 00
        E 0 80 1e 00
        E 0 80 3e 00
        E 0 80 48 00
        E 0 80 4a 00
        E 0 80 54 00
        E 0 80 56 00
        E 0 80 60 00
        E 0 80 62 00
        E 50 90 1b 60
        E 0 90 61 60
        E 30 80 1b 00
        E 0 80 61 00
        E 50 90 1e 60
        E 0 90 62 60
        E 30 80 1e 00
        E 0 80 62 00
        E 50 90 18 60
        E 0 90 54 60
        E 0 90 60 60
        E 30 80 18 00
        E 0 80 54 00
        E 0 80 60 00
        E 50 90 1a 60
        E 0 90 1f 60
        E 0 90 61 60
        E 0 90 62 60
        E 30 80 1a 00
        E 0 80 1f 00
        E 0 80 61 00
        E 0 80 62 00
        E 130 80 74 00
        E 0 90 18 60
        E 0 90 24 60
        E 0 90 40 60
        E 0 90 48 60
        E 0 90 4c 60
        E 0 90 54 60
        E 0 90 58 60
        E 0 90 60 60
        E 0 90 64 60
        E 30 80 18 00
        E 0 80 24 00
        E 0 80 40 00
        E 0 80 48 00
        E 0 80 4c 00
        E 0 80 54 00
        E 0 80 58 00
        E 0 80 60 00
        E 0 80 64 00
        E 130 90 1e 60
        E 0 90 62 60
        E 30 80 1e 00
        E 0 80 62 00
        E 50 90 1b 60
        E 0 90 55 60
        E 0 90 61 60
        E 30 80 1b 00
        E 0 80 55 00
        E 0 80 61 00
        E 50 90 18 60
        E 0 90 1e 60
        E 0 90 60 60
        E 0 90 62 60
        E 30 80 18 00
        E 0 80 1e 00
        E 0 80 60 00
        E 0 80 62 00
        E 50 90 18 60
        E 0 90 60 60
        E 30 80 18 00
        E 0 80 60 00
        E 50 90 1a 60
        E 0 90 1f 60
        E 0 90 3d 60
        E 0 90 49 60
        E 0 90 4a 60
        E 0 90 55 60
        E 0 90 56 60
        E 0 90 61 60
        E 0 90 62 60
        E 30 80 1a 00
        E 0 80 1f 00
        E 0 80 3d 00
        E 0 80 49 00
        E 0 80 4a 00
        E 0 80 55 00
        E 0 80 56 00
        E 0 80 61 00
        E 0 80 62 00
        E 130 90 1e 60
        E 0 90 62 60
        E 30 80 1e 00
        E 0 80 62 00
        E 50 90 1b 60
        E 0 90 55 60
        E 0 90 61 60
        E 30 80 1b 00
        E 0 80 55 00
        E 0 80 61 00
        E 50 90 18 60
        E 0 90 1e 60
        E 0 90 60 60
        E 0 90 62 60
        E 30 80 18 00
        E 0 80 1e 00
        E 0 80 60 00
        E 0 80 62 00
        E 50 90 1b 60
        E 0 90 61 60
        E 30 80 1b 00
        E 0 80 61 00
        E 50 90 1e 60
        E 0 90 3e 60
        E 0 90 4a 60
        E 0 90 56 60
        E 0 90 62 60
        E 30 80 1e 00
        E 0 80 3e 00
        E 0 80 4a 00
        E 0 80 56 00
        E 0 80 62 00
        E 50 90 18 60
        E 0 90 60 60
        E 30 80 18 00
        E 0 80 60 00
        E 50 90 1a 60
        E 0 90 1f 60
        E 0 90 61 60
        E 0 90 62 60
        E 30 80 1a 00
        E 0 80 1f 00
        E 0 80 61 00
        E 0 80 62 00
        E 130 90 1e 60
        E 0 90 62 60
        E 30 80 1e 00
        E 0 80 62 00
        E 50 90 1b 60
        E 0 90 61 60
        E 30 80 1b 00
        E 0 80 61 00
        E 50 90 18 60
        E 0 90 1e 60
        E 0 90 3e 60
        E 0 90 48 60
        E 0 90 4a 60
        E 0 90 54 60
        E 0 90 56 60
        E 0 90 60 60
        E 0 90 62 60
        E 30 80 18 00
        E 0 80 1e 00
        E 0 80 3e 00
        E 0 80 48 00
        E 0 80 4a 00
        E 0 80 54 00
        E 0 80 56 00
        E 0 80 60 00
        E 0 80 62 00
        E 50 90 1b 60
        E 0 90 61 60
        E 30 80 1b 00
        E 0 80 61 00
        E 50 90 1e 60
        E 0 90 62 60
        E 30 80 1e 00
        E 0 80 62 00
        E 130 90 18 60
        E 0 90 1f 60
        E 0 90 60 60
        E 0 90 62 60
        E 30 80 18 00
        E 0 80 1f 00
        E 0 80 60 00
        E 0 80 62 00
        E 50 90 1a 60
        E 0 90 61 60
        E 30 80 1a 00
        E 0 80 61 00
        E 50 90 18 60
        E 0 90 1f 60
        E 0 90 3e 60
        E 0 90 48 60
        E 0 90 4a 60
        E 0 90 54 60
        E 0 90 56 60
        E 0 90 60 60
        E 0 90 62 60
        E 0 90 78 60
        E 0 90 79 60
        E 0 90 7a 60
        E 0 90 7b 60
        E 0 90 7c 60
        E 30 80 18 00
        E 0 80 1f 00
        E 0 80 3e 00
        E 0 80 48 00
        E 0 80 4a 00
        E 0 80 54 00
        E 0 80 56 00
        E 0 80 60 00
        E 0 80 62 00
        E 50 90 1a 60
        E 0 90 61 60
        E 30 80 1a 00
        E 0 80 61 00
        E 50 90 1b 60
        E 0 90 61 60
        E 30 80 1b 00
        E 0 80 61 00
        E 50 90 1a 60
        E 0 90 55 60
        E 0 90 61 60
        E 30 80 1a 00
        E 0 80 55 00
        E 0 80 61 00
        E 130 90 1b 60
        E 0 90 61 60
        E 30 80 1b 00
        E 0 80 61 00
        E 50 90 2e 60
        E 0 90 3e 60
        E 0 90 4a 60
        E 0 90 56 60
        E 0 90 62 60
        E 0 90 6e 60
        E 30 80 2e 00
        E 0 80 3e 00
        E 0 80 4a 00
        E 0 80 56 00
        E 0 80 62 00
        E 0 80 6e 00
        E 50 90 1b 60
        E 0 90 61 60
        E 30 80 1b 00
        E 0 80 61 00
        E 50 90 1a 60
        E 0 90 61 60
        E 30 80 1a 00
        E 0 80 61 00
        E 50 90 1b 60
        E 0 90 55 60
        E 0 90 61 60
        E 30 80 1b 00
        E 0 80 55 00
        E 0 80 61 00
        E 50 90 30 60
        E 0 90 63 60
        E 0 90 6f 60
        E 30 80 30 00
        E 0 80 63 00
        E 0 80 6f 00
        E 50 90 1b 60
        E 0 90 61 60
        E 30 80 1b 00
        E 0 80 61 00
        E 50 90 1a 60
        E 0 90 3d 60
        E 0 90 49 60
        E 0 90 55 60
        E 0 90 61 60
        E 30 80 1a 00
        E 0 80 3d 00
        E 0 80 49 00
        E 0 80 55 00
        E 0 80 61 00
        E 50 90 1b 60
        E 0 90 61 60
        E 30 80 1b 00
        E 0 80 61 00
        E 50 90 30 60
        E 0 90 63 60
        E 0 90 6f 60
        E 30 80 30 00
        E 0 80 63 00
        E 0 80 6f 00
        E 50 90 1b 60
        E 0 90 55 60
        E 0 90 61 60
        E 30 80 1b 00
        E 0 80 55 00
        E 0 80 61 00
        E 50 90 1a 60
        E 0 90 61 60
        E 30 80 1a 00
        E 0 80 61 00
        E 50 90 1b 60
        E 0 90 61 60
        E 30 80 1b 00
        E 0 80 61 00
        E 50 90 1a 60
        E 0 90 3d 60
        E 0 90 49 60
        E 0 90 55 60
        E 0 90 61 60
        E 30 80 1a 00
        E 0 80 3d 00
        E 0 80 49 00
        E 0 80 55 00
        E 0 80 61 00
        E 50 90 1b 60
        E 0 90 61 60
        E 30 80 1b 00
        E 0 80 61 00
        E 50 90 2e 60
        E 0 90 62 60
        E 0 90 6e 60
        E 30 80 2e 00
        E 0 80 62 00
        E 0 80 6e 00
        E 50 90 2f 60
        E 0 90 56 60
        E 0 90 62 60
        E 0 90 6e 60
        E 30 80 2f 00
        E 0 80 56 00
        E 0 80 62 00
        E 0 80 6e 00
        E 50 90 30 60
        E 0 90 63 60
        E 0 90 6f 60
        E 30 80 30 00
        E 0 80 63 00
        E 0 80 6f 00
        E 50 90 31 60
        E 0 90 63 60
        E 0 90 6f 60
        E 30 80 31 00
        E 0 80 63 00
        E 0 80 6f 00
        E 50 90 18 60
        E 0 90 22 60
        E 0 90 40 60
        E 0 90 48 60
        E 0 90 4c 60
        E 0 90 54 60
        E 0 90 58 60
        E 0 90 60 60
        E 0 90 64 60
        E 1 80 78 00
        E 0 80 79 00
        E 0 80 7a 00
        E 0 80 7b 00
        E 0 80 7c 00
        E 29 80 18 00
        E 0 80 22 00
        E 0 80 40 00
        E 0 80 48 00
        E 0 80 4c 00
        E 0 80 54 00
        E 0 80 58 00
        E 0 80 60 00
        E 0 80 64 00
        E 130 90 1f 60
        E 0 90 62 60
        E 30 80 1f 00
        E 0 80 62 00
        E 50 90 1a 60
        E 0 90 55 60
        E 0 90 61 60
        E 30 80 1a 00
        E 0 80 55 00
        E 0 80 61 00
        E 50 90 1f 60
        E 0 90 62 60
        E 30 80 1f 00
        E 0 80 62 00
        E 50 90 18 60
        E 0 90 60 60
        E 30 80 18 00
        E 0 80 60 00
        E 50 90 1a 60
        E 0 90 1f 60
        E 0 90 3d 60
        E 0 90 49 60
        E 0 90 4a 60
        E 0 90 55 60
        E 0 90 56 60
        E 0 90 61 60
        E 0 90 62 60
        E 30 80 1a 00
        E 0 80 1f 00
        E 0 80 3d 00
        E 0 80 49 00
        E 0 80 4a 00
        E 0 80 55 00
        E 0 80 56 00
        E 0 80 61 00
        E 0 80 62 00
        E 130 90 1e 60
        E 0 90 62 60
        E 30 80 1e 00
        E 0 80 62 00
        E 50 90 1b 60
        E 0 90 55 60
        E 0 90 61 60
        E 30 80 1b 00
        E 0 80 55 00
        E 0 80 61 00
        E 50 90 18 60
        E 0 90 1e 60
        E 0 90 60 60
        E 0 90 62 60
        E 30 80 18 00
        E 0 80 1e 00
        E 0 80 60 00
        E 0 80 62 00
        E 50 90 1b 60
        E 0 90 61 60
        E 30 80 1b 00
        E 0 80 61 00
        E 50 90 1e 60
        E 0 90 3e 60
        E 0 90 4a 60
        E 0 90 56 60
        E 0 90 62 60
        E 30 80 1e 00
        E 0 80 3e 00
        E 0 80 4a 00
        E 0 80 56 00
        E 0 80 62 00
        E 50 90 18 60
        E 0 90 60 60
        E 30 80 18 00
        E 0 80 60 00
        E 50 90 1a 60
        E 0 90 1f 60
        E 0 90 61 60
        E 0 90 62 60
        E 30 80 1a 00
        E 0 80 1f 00
        E 0 80 61 00
        E 0 80 62 00
        E 130 90 1e 60
        E 0 90 62 60
        E 30 80 1e 00
        E 0 80 62 00
        E 50 90 1b 60
        E 0 90 61 60
        E 30 80 1b 00
        E 0 80 61 00
        E 50 90 18 60
        E 0 90 1e 60
        E 0 90 3e 60
        E 0 90 48 60
        E 0 90 4a 60
        E 0 90 54 60
        E 0 90 56 60
        E 0 90 60 60
        E 0 90 62 60
        E 30 80 18 00
        E 0 80 1e 00
        E 0 80 3e 00
        E 0 80 48 00
        E 0 80 4a 00
        E 0 80 54 00
        E 0 80 56 00
        E 0 80 60 00
        E 0 80 62 00
        E 50 90 1b 60
        E 0 90 61 60
        E 30 80 1b 00
        E 0 80 61 00
        E 50 90 1e 60
        E 0 90 62 60
        E 30 80 1e 00
        E 0 80 62 00
        E 50 90 18 60
        E 0 90 54 60
        E 0 90 60 60
        E 30 80 18 00
        E 0 80 54 00
        E 0 80 60 00
        E 50 90 1a 60
        E 0 90 1f 60
        E 0 90 61 60
        E 0 90 62 60
        E 30 80 1a 00
        E 0 80 1f 00
        E 0 80 61 00
        E 0 80 62 00
        E 130 90 18 60
        E 0 90 24 60
        E 0 90 40 60
        E 0 90 48 60
        E 0 90 4c 60
        E 0 90 54 60
        E 0 90 58 60
        E 0 90 60 60
        E 0 90 64 60
        E 30 80 18 00
        E 0 80 24 00
        E 0 80 40 00
        E 0 80 48 00
        E 0 80 4c 00
        E 0 80 54 00
        E 0 80 58 00
        E 0 80 60 00
        E 0 80 64 00
        E 130 90 1e 60
        E 0 90 62 60
        E 30 80 1e 00
        E 0 80 62 00
        E 50 90 1b 60
        E 0 90 55 60
        E 0 90 61 60
        E 30 80 1b 00
        E 0 80 55 00
        E 0 80 61 00
        E 50 90 18 60
        E 0 90 1e 60
        E 0 90 60 60
        E 0 90 62 60
        E 30 80 18 00
        E 0 80 1e 00
        E 0 80 60 00
        E 0 80 62 00
        E 50 90 18 60
        E 0 90 60 60
        E 30 80 18 00
        E 0 80 60 00
        E 50 90 1a 60
        E 0 90 1f 60
        E 0 90 3d 60
        E 0 90 49 60
        E 0 90 4a 60
        E 0 90 55 60
        E 0 90 56 60
        E 0 90 61 60
        E 0 90 62 60
        E 30 80 1a 00
        E 0 80 1f 00
        E 0 80 3d 00
        E 0 80 49 00
        E 0 80 4a 00
        E 0 80 55 00
        E 0 80 56 00
        E 0 80 61 00
        E 0 80 62 00
        E 130 90 1e 60
        E 0 90 62 60
        E 30 80 1e 00
        E 0 80 62 00
        E 50 90 1b 60
        E 0 90 55 60
        E 0 90 61 60
        E 30 80 1b 00
        E 0 80 55 00
        E 0 80 61 00
        E 50 90 18 60
        E 0 90 1e 60
        E 0 90 60 60
        E 0 90 62 60
        E 30 80 18 00
        E 0 80 1e 00
        E 0 80 60 00
        E 0 80 62 00
        E 50 90 1b 60
        E 0 90 61 60
        E 30 80 1b 00
        E 0 80 61 00
        E 49 90 78 60
        E 0 90 79 60
        E 0 90 7a 60
        E 0 90 7b 60
        E 0 90 7c 60
        E 1 90 1e 60
        E 0 90 3e 60
        E 0 90 4a 60
        E 0 90 56 60
        E 0 90 62 60
        E 30 80 1e 00
        E 0 80 3e 00
        E 0 80 4a 00
        E 0 80 56 00
        E 0 80 62 00
        E 50 90 18 60
        E 0 90 60 60
        E 30 80 18 00
        E 0 80 60 00
        E 50 90 1a 60
        E 0 90 1f 60
        E 0 90 61 60
        E 0 90 62 60
        E 30 80 1a 00
        E 0 80 1f 00
        E 0 80 61 00
        E 0 80 62 00
        E 130 90 1e 60
        E 0 90 62 60
        E 30 80 1e 00
        E 0 80 62 00
        E 50 90 1b 60
        E 0 90 61 60
        E 30 80 1b 00
        E 0 80 61 00
        E 50 90 18 60
        E 0 90 1e 60
        E 0 90 3e 60
        E 0 90 48 60
        E 0 90 4a 60
        E 0 90 54 60
        E 0 90 56 60
        E 0 90 60 60
        E 0 90 62 60
        E 30 80 18 00
        E 0 80 1e 00
        E 0 80 3e 00
        E 0 80 48 00
        E 0 80 4a 00
        E 0 80 54 00
        E 0 80 56 00
        E 0 80 60 00
        E 0 80 62 00
        E 50 90 1b 60
        E 0 90 61 60
        E 30 80 1b 00
        E 0 80 61 00
        E 50 90 1e 60
        E 0 90 62 60
        E 30 80 1e 00
        E 0 80 62 00
        E 50 90 1b 60
        E 0 90 55 60
        E 0 90 61 60
        E 30 80 1b 00
        E 0 80 55 00
        E 0 80 61 00
        E 50 90 1a 60
        E 0 90 61 60
        E 30 80 1a 00
        E 0 80 61 00
        E 50 90 1b 60
        E 0 90 61 60
        E 30 80 1b 00
        E 0 80 61 00
        E 50 80 78 00
        E 0 80 79 00
        E 0 80 7a 00
        E 0 80 7b 00
        E 0 80 7c 00
        E 0 90 18 60
        E 0 90 22 60
        E 0 90 40 60
        E 0 90 48 60
        E 0 90 4c 60
        E 0 90 54 60
        E 0 90 58 60
        E 0 90 60 60
        E 0 90 64 60
        E 30 80 18 00
        E 0 80 22 00
        E 0 80 40 00
        E 0 80 48 00
        E 0 80 4c 00
        E 0 80 54 00
        E 0 80 58 00
        E 0 80 60 00
        E 0 80 64 00
        E 130 90 1f 60
        E 0 90 62 60
        E 30 80 1f 00
        E 0 80 62 00
        E 50 90 1a 60
        E 0 90 55 60
        E 0 90 61 60
        E 30 80 1a 00
        E 0 80 55 00
        E 0 80 61 00
        E 50 90 18 60
        E 0 90 1f 60
        E 0 90 60 60
        E 0 90 62 60
        E 30 80 18 00
        E 0 80 1f 00
        E 0 80 60 00
        E 0 80 62 00
        E 50 90 18 60
        E 0 90 60 60
        E 30 80 18 00
        E 0 80 60 00
        E 50 90 1a 60
        E 0 90 1f 60
        E 0 90 3d 60
        E 0 90 49 60
        E 0 90 4a 60
        E 0 90 55 60
        E 0 90 56 60
        E 0 90 61 60
        E 0 90 62 60
        E 30 80 1a 00
        E 0 80 1f 00
        E 0 80 3d 00
        E 0 80 49 00
        E 0 80 4a 00
        E 0 80 55 00
        E 0 80 56 00
        E 0 80 61 00
        E 0 80 62 00
        E 130 90 1e 60
        E 0 90 62 60
        E 30 80 1e 00
        E 0 80 62 00
        E 50 90 1b 60
        E 0 90 55 60
        E 0 90 61 60
        E 30 80 1b 00
        E 0 80 55 00
        E 0 80 61 00
        E 50 90 18 60
        E 0 90 1e 60
        E 0 90 60 60
        E 0 90 62 60
        E 30 80 18 00
        E 0 80 1e 00
        E 0 80 60 00
        E 0 80 62 00
        E 50 90 1b 60
        E 0 90 61 60
        E 30 80 1b 00
        E 0 80 61 00
        E 50 90 1e 60
        E 0 90 3e 60
        E 0 90 4a 60
        E 0 90 56 60
        E 0 90 62 60
        E 30 80 1e 00
        E 0 80 3e 00
        E 0 80 4a 00
        E 0 80 56 00
        E 0 80 62 00
        E 50 90 18 60
        E 0 90 60 60
        E 30 80 18 00
        E 0 80 60 00
        E 50 90 1a 60
        E 0 90 1f 60
        E 0 90 61 60
        E 0 90 62 60
        E 30 80 1a 00
        E 0 80 1f 00
        E 0 80 61 00
        E 0 80 62 00
        E 130 90 1e 60
        E 0 90 62 60
        E 30 80 1e 00
        E 0 80 62 00
        E 50 90 1b 60
        E 0 90 61 60
        E 30 80 1b 00
        E 0 80 61 00
        E 50 90 18 60
        E 0 90 1e 60
        E 0 90 3e 60
        E 0 90 48 60
        E 0 90 4a 60
        E 0 90 54 60
        E 0 90 56 60
        E 0 90 60 60
        E 0 90 62 60
        E 30 80 18 00
        E 0 80 1e 00
        E 0 80 3e 00
        E 0 80 48 00
        E 0 80 4a 00
        E 0 80 54 00
        E 0 80 56 00
        E 0 80 60 00
        E 0 80 62 00
        E 50 90 1b 60
        E 0 90 61 60
        E 30 80 1b 00
        E 0 80 61 00
        E 50 90 1e 60
        E 0 90 62 60
        E 30 80 1e 00
        E 0 80 62 00
        E 50 90 18 60
        E 0 90 54 60
        E 0 90 60 60
        E 30 80 18 00
        E 0 80 54 00
        E 0 80 60 00
        E 50 90 1a 60
        E 0 90 1f 60
        E 0 90 61 60
        E 0 90 62 60
        E 30 80 1a 00
        E 0 80 1f 00
        E 0 80 61 00
        E 0 80 62 00
        E 130 90 1f 60
        E 0 90 3e 60
        E 0 90 4a 60
        E 0 90 56 60
        E 0 90 62 60
        E 30 80 1f 00
        E 0 80 3e 00
        E 0 80 4a 00
        E 0 80 56 00
        E 0 80 62 00
        E 130 90 18 60
        E 0 90 1e 60
        E 0 90 60 60
        E 0 90 62 60
        E 30 80 18 00
        E 0 80 1e 00
        E 0 80 60 00
        E 0 80 62 00
        E 130 90 18 60
        E 0 90 1f 60
        E 0 90 60 60
        E 0 90 62 60
        E 30 80 18 00
        E 0 80 1f 00
        E 0 80 60 00
        E 0 80 62 00
        E 130 90 18 60
        E 0 90 1e 60
        E 0 90 3e 60
        E 0 90 48 60
        E 0 90 4a 60
        E 0 90 54 60
        E 0 90 56 60
        E 0 90 60 60
        E 0 90 62 60
        E 30 80 18 00
        E 0 80 1e 00
        E 0 80 3e 00
        E 0 80 48 00
        E 0 80 4a 00
        E 0 80 54 00
        E 0 80 56 00
        E 0 80 60 00
        E 0 80 62 00
        E 50 90 1b 60
        E 0 90 61 60
        E 30 80 1b 00
        E 0 80 61 00
        E 50 90 1a 60
        E 0 90 61 60
        E 30 80 1a 00
        E 0 80 61 00
        E 50 90 1b 60
        E 0 90 55 60
        E 0 90 61 60
        E 30 80 1b 00
        E 0 80 55 00
        E 0 80 61 00
        E 50 90 2e 60
        E 0 90 62 60
        E 0 90 6e 60
        E 30 80 2e 00
        E 0 80 62 00
        E 0 80 6e 00
        E 50 90 1b 60
        E 0 90 61 60
        E 30 80 1b 00
        E 0 80 61 00
        E 50 90 1a 60
        E 0 90 3d 60
        E 0 90 49 60
        E 0 90 55 60
        E 0 90 61 60
        E 30 80 1a 00
        E 0 80 3d 00
        E 0 80 49 00
        E 0 80 55 00
        E 0 80 61 00
        E 50 90 1b 60
        E 0 90 61 60
        E 30 80 1b 00
        E 0 80 61 00
        E 50 90 2e 60
        E 0 90 62 60
        E 0 90 6e 60
        E 30 80 2e 00
        E 0 80 62 00
        E 0 80 6e 00
        E 50 90 1b 60
        E 0 90 55 60
        E 0 90 61 60
        E 30 80 1b 00
        E 0 80 55 00
        E 0 80 61 00
        E 50 90 1a 60
        E 0 90 61 60
        E 30 80 1a 00
        E 0 80 61 00
        E 49 90 1b 60
        E 0 90 61 60
        E 30 80 1b 00
        E 0 80 61 00
        E 51 90 1a 60
        E 0 90 3d 60
        E 0 90 49 60
        E 0 90 55 60
        E 0 90 61 60
        E 30 80 1a 00
        E 0 80 3d 00
        E 0 80 49 00
        E 0 80 55 00
        E 0 80 61 00
        E 50 90 1b 60
        E 0 90 61 60
        E 30 80 1b 00
        E 0 80 61 00
        E 50 90 2e 60
        E 0 90 62 60
        E 0 90 6e 60
        E 30 80 2e 00
        E 0 80 62 00
        E 0 80 6e 00
        E 50 90 2f 60
        E 0 90 56 60
        E 0 90 62 60
        E 0 90 6e 60
        E 30 80 2f 00
        E 0 80 56 00
        E 0 80 62 00
        E 0 80 6e 00
        E 50 90 30 60
        E 0 90 63 60
        E 0 90 6f 60
        E 30 80 30 00
        E 0 80 63 00
        E 0 80 6f 00
        E 50 90 31 60
        E 0 90 63 60
        E 0 90 6f 60
        E 30 80 31 00
        E 0 80 63 00
        E 0 80 6f 00
        E 50 90 18 60
        E 0 90 22 60
        E 0 90 40 60
        E 0 90 48 60
        E 0 90 4c 60
        E 0 90 54 60
        E 0 90 58 60
        E 0 90 60 60
        E 0 90 64 60
        E 30 80 18 00
        E 0 80 22 00
        E 0 80 40 00
        E 0 80 48 00
        E 0 80 4c 00
        E 0 80 54 00
        E 0 80 58 00
        E 0 80 60 00
        E 0 80 64 00
        E 130 90 1f 60
        E 0 90 62 60
        E 30 80 1f 00
        E 0 80 62 00
        E 50 90 1a 60
        E 0 90 55 60
        E 0 90 61 60
        E 30 80 1a 00
        E 0 80 55 00
        E 0 80 61 00
        E 50 90 18 60
        E 0 90 1f 60
        E 0 90 60 60
        E 0 90 62 60
        E 30 80 18 00
        E 0 80 1f 00
        E 0 80 60 00
        E 0 80 62 00
        E 50 90 18 60
        E 0 90 60 60
        E 30 80 18 00
        E 0 80 60 00
        E 50 90 1a 60
        E 0 90 1f 60
        E 0 90 3d 60
        E 0 90 49 60
        E 0 90 4a 60
        E 0 90 55 60
        E 0 90 56 60
        E 0 90 61 60
        E 0 90 62 60
        E 30 80 1a 00
        E 0 80 1f 00
        E 0 80 3d 00
        E 0 80 49 00
        E 0 80 4a 00
        E 0 80 55 00
        E 0 80 56 00
        E 0 80 61 00
        E 0 80 62 00
        E 130 90 1e 60
        E 0 90 62 60
        E 30 80 1e 00
        E 0 80 62 00
        E 50 90 1b 60
        E 0 90 55 60
        E 0 90 61 60
        E 30 80 1b 00
        E 0 80 55 00
        E 0 80 61 00
        E 50 90 18 60
        E 0 90 1e 60
        E 0 90 60 60
        E 0 90 62 60
        E 30 80 18 00
        E 0 80 1e 00
        E 0 80 60 00
        E 0 80 62 00
        E 130 90 18 60
        E 0 90 1f 60
        E 0 90 3e 60
        E 0 90 48 60
        E 0 90 4a 60
        E 0 90 54 60
        E 0 90 56 60
        E 0 90 60 60
        E 0 90 62 60
        E 30 80 18 00
        E 0 80 1f 00
        E 0 80 3e 00
        E 0 80 48 00
        E 0 80 4a 00
        E 0 80 54 00
        E 0 80 56 00
        E 0 80 60 00
        E 0 80 62 00
        E 130 90 1e 60
        E 0 90 62 60
        E 30 80 1e 00
        E 0 80 62 00
        E 50 90 1b 60
        E 0 90 55 60
        E 0 90 61 60
        E 30 80 1b 00
        E 0 80 55 00
        E 0 80 61 00
        E 50 90 18 60
        E 0 90 1e 60
        E 0 90 60 60
        E 0 90 62 60
        E 30 80 18 00
        E 0 80 1e 00
        E 0 80 60 00
        E 0 80 62 00
        E 130 90 1a 60
        E 0 90 1f 60
        E 0 90 3d 60
        E 0 90 49 60
        E 0 90 4a 60
        E 0 90 55 60
        E 0 90 56 60
        E 0 90 61 60
        E 0 90 62 60
        E 30 80 1a 00
        E 0 80 1f 00
        E 0 80 3d 00
        E 0 80 49 00
        E 0 80 4a 00
        E 0 80 55 00
        E 0 80 56 00
        E 0 80 61 00
        E 0 80 62 00
        E 130 90 1e 60
        E 0 90 62 60
        E 30 80 1e 00
        E 0 80 62 00
        E 50 90 1b 60
        E 0 90 55 60
        E 0 90 61 60
        E 30 80 1b 00
        E 0 80 55 00
        E 0 80 61 00
        E 50 90 18 60
        E 0 90 1e 60
        E 0 90 60 60
        E 0 90 62 60
        E 30 80 18 00
        E 0 80 1e 00
        E 0 80 60 00
        E 0 80 62 00
        E 130 90 18 60
        E 0 90 1f 60
        E 0 90 3e 60
        E 0 90 48 60
        E 0 90 4a 60
        E 0 90 54 60
        E 0 90 56 60
        E 0 90 60 60
        E 0 90 62 60
        E 30 80 18 00
        E 0 80 1f 00
        E 0 80 3e 00
        E 0 80 48 00
        E 0 80 4a 00
        E 0 80 54 00
        E 0 80 56 00
        E 0 80 60 00
        E 0 80 62 00
        E 130 90 1e 60
        E 0 90 62 60
        E 30 80 1e 00
        E 0 80 62 00
        E 50 90 1b 60
        E 0 90 55 60
        E 0 90 61 60
        E 30 80 1b 00
        E 0 80 55 00
        E 0 80 61 00
        E 50 90 18 60
        E 0 90 1e 60
        E 0 90 60 60
        E 0 90 62 60
        E 30 80 18 00
        E 0 80 1e 00
        E 0 80 60 00
        E 0 80 62 00
        E 130 90 1a 60
        E 0 90 1f 60
        E 0 90 3d 60
        E 0 90 49 60
        E 0 90 4a 60
        E 0 90 55 60
        E 0 90 56 60
        E 0 90 61 60
        E 0 90 62 60
        E 30 80 1a 00
        E 0 80 1f 00
        E 0 80 3d 00
        E 0 80 49 00
        E 0 80 4a 00
        E 0 80 55 00
        E 0 80 56 00
        E 0 80 61 00
        E 0 80 62 00
        E 130 90 1e 60
        E 0 90 62 60
        E 30 80 1e 00
        E 0 80 62 00
        E 50 90 1b 60
        E 0 90 55 60
        E 0 90 61 60
        E 30 80 1b 00
        E 0 80 55 00
        E 0 80 61 00
        E 49 90 18 60
        E 0 90 1e 60
        E 0 90 60 60
        E 0 90 62 60
        E 30 80 18 00
        E 0 80 1e 00
        E 0 80 60 00
        E 0 80 62 00
        E 131 90 18 60
        E 0 90 1f 60
        E 0 90 3e 60
        E 0 90 48 60
        E 0 90 4a 60
        E 0 90 54 60
        E 0 90 56 60
        E 0 90 60 60
        E 0 90 62 60
        E 30 80 18 00
        E 0 80 1f 00
        E 0 80 3e 00
        E 0 80 48 00
        E 0 80 4a 00
        E 0 80 54 00
        E 0 80 56 00
        E 0 80 60 00
        E 0 80 62 00
        E 130 90 1e 60
        E 0 90 62 60
        E 30 80 1e 00
        E 0 80 62 00
        E 50 90 1b 60
        E 0 90 55 60
        E 0 90 61 60
        E 30 80 1b 00
        E 0 80 55 00
        E 0 80 61 00
        E 50 90 18 60
        E 0 90 1e 60
        E 0 90 60 60
        E 0 90 62 60
        E 30 80 18 00
        E 0 80 1e 00
        E 0 80 60 00
        E 0 80 62 00
        E 130 90 1a 60
        E 0 90 1f 60
        E 0 90 3d 60
        E 0 90 49 60
        E 0 90 4a 60
        E 0 90 55 60
        E 0 90 56 60
        E 0 90 61 60
        E 0 90 62 60
        E 30 80 1a 00
        E 0 80 1f 00
        E 0 80 3d 00
        E 0 80 49 00
        E 0 80 4a 00
        E 0 80 55 00
        E 0 80 56 00
        E 0 80 61 00
        E 0 80 62 00
        E 130 90 1a 60
        E 0 90 61 60
        E 30 80 1a 00
        E 0 80 61 00
        E 23 90 1b 60
        E 0 90 61 60
        E 30 80 1b 00
        E 0 80 61 00
        E 23 90 1a 60
        E 0 90 61 60
        E 30 80 1a 00
        E 0 80 61 00
        E 24 90 1b 60
        E 0 90 61 60
        E 30 80 1b 00
        E 0 80 61 00
        E 23 90 1a 60
        E 0 90 61 60
        E 30 80 1a 00
        E 0 80 61 00
        E 23 90 1b 60
        E 0 90 61 60
        E 30 80 1b 00
        E 0 80 61 00
        E 24 90 18 60
        E 0 90 22 60
        E 0 90 40 60
        E 0 90 48 60
        E 0 90 4c 60
        E 0 90 54 60
        E 0 90 58 60
        E 0 90 60 60
        E 0 90 64 60
        E 0 90 74 60
        E 30 80 18 00
        E 0 80 22 00
        E 0 80 40 00
        E 0 80 48 00
        E 0 80 4c 00
        E 0 80 54 00
        E 0 80 58 00
        E 0 80 60 00
        E 0 80 64 00
        E 130 90 1f 60
        E 0 90 62 60
        E 30 80 1f 00
        E 0 80 62 00
        E 50 90 1a 60
        E 0 90 55 60
        E 0 90 61 60
        E 30 80 1a 00
        E 0 80 55 00
        E 0 80 61 00
        E 50 90 18 60
        E 0 90 1f 60
        E 0 90 60 60
        E 0 90 62 60
        E 30 80 18 00
        E 0 80 1f 00
        E 0 80 60 00
        E 0 80 62 00
        E 50 90 18 60
        E 0 90 60 60
        E 30 80 18 00
        E 0 80 60 00
        E 50 90 1a 60
        E 0 90 1f 60
        E 0 90 3d 60
        E 0 90 49 60
        E 0 90 4a 60
        E 0 90 55 60
        E 0 90 56 60
        E 0 90 61 60
        E 0 90 62 60
        E 30 80 1a 00
        E 0 80 1f 00
        E 0 80 3d 00
        E 0 80 49 00
        E 0 80 4a 00
        E 0 80 55 00
        E 0 80 56 00
        E 0 80 61 00
        E 0 80 62 00
        E 130 90 1e 60
        E 0 90 62 60
        E 30 80 1e 00
        E 0 80 62 00
        E 50 90 1b 60
        E 0 90 55 60
        E 0 90 61 60
        E 30 80 1b 00
        E 0 80 55 00
        E 0 80 61 00
        E 50 90 18 60
        E 0 90 1e 60
        E 0 90 60 60
        E 0 90 62 60
        E 30 80 18 00
        E 0 80 1e 00
        E 0 80 60 00
        E 0 80 62 00
        E 130 90 18 60
        E 0 90 1f 60
        E 0 90 3e 60
        E 0 90 48 60
        E 0 90 4a 60
        E 0 90 54 60
        E 0 90 56 60
        E 0 90 60 60
        E 0 90 62 60
        E 30 80 18 00
        E 0 80 1f 00
        E 0 80 3e 00
        E 0 80 48 00
        E 0 80 4a 00
        E 0 80 54 00
        E 0 80 56 00
        E 0 80 60 00
        E 0 80 62 00
        E 130 90 1e 60
        E 0 90 62 60
        E 30 80 1e 00
        E 0 80 62 00
        E 50 90 1b 60
        E 0 90 55 60
        E 0 90 61 60
        E 30 80 1b 00
        E 0 80 55 00
        E 0 80 61 00
        E 50 90 18 60
        E 0 90 1e 60
        E 0 90 60 60
        E 0 90 62 60
        E 30 80 18 00
        E 0 80 1e 00
        E 0 80 60 00
        E 0 80 62 00
        E 130 90 1a 60
        E 0 90 1f 60
        E 0 90 3d 60
        E 0 90 49 60
        E 0 90 4a 60
        E 0 90 55 60
        E 0 90 56 60
        E 0 90 61 60
        E 0 90 62 60
        E 30 80 1a 00
        E 0 80 1f 00
        E 0 80 3d 00
        E 0 80 49 00
        E 0 80 4a 00
        E 0 80 55 00
        E 0 80 56 00
        E 0 80 61 00
        E 0 80 62 00
        E 130 90 1e 60
        E 0 90 62 60
        E 30 80 1e 00
        E 0 80 62 00
        E 50 90 1b 60
        E 0 90 55 60
        E 0 90 61 60
        E 30 80 1b 00
        E 0 80 55 00
        E 0 80 61 00
        E 50 90 18 60
        E 0 90 1e 60
        E 0 90 60 60
        E 0 90 62 60
        E 30 80 18 00
        E 0 80 1e 00
        E 0 80 60 00
        E 0 80 62 00
        E 130 80 74 00
        E 0 90 18 60
        E 0 90 1f 60
        E 0 90 3e 60
        E 0 90 48 60
        E 0 90 4a 60
        E 0 90 54 60
        E 0 90 56 60
        E 0 90 60 60
        E 0 90 62 60
        E 30 80 18 00
        E 0 80 1f 00
        E 0 80 3e 00
        E 0 80 48 00
        E 0 80 4a 00
        E 0 80 54 00
        E 0 80 56 00
        E 0 80 60 00
        E 0 80 62 00
        E 50 90 1a 60
        E 0 90 61 60
        E 30 80 1a 00
        E 0 80 61 00
        E 50 90 1b 60
        E 0 90 61 60
        E 30 80 1b 00
        E 0 80 61 00
        E 50 90 1a 60
        E 0 90 55 60
        E 0 90 61 60
        E 30 80 1a 00
        E 0 80 55 00
        E 0 80 61 00
        E 50 90 2f 60
        E 0 90 62 60
        E 0 90 6e 60
        E 30 80 2f 00
        E 0 80 62 00
        E 0 80 6e 00
        E 50 90 1a 60
        E 0 90 61 60
        E 30 80 1a 00
        E 0 80 61 00
        E 50 90 1b 60
        E 0 90 3d 60
        E 0 90 49 60
        E 0 90 55 60
        E 0 90 61 60
        E 0 90 78 60
        E 0 90 79 60
        E 0 90 7a 60
        E 0 90 7b 60
        E 0 90 7c 60
        E 30 80 1b 00
        E 0 80 3d 00
        E 0 80 49 00
        E 0 80 55 00
        E 0 80 61 00
        E 50 90 1a 60
        E 0 90 61 60
        E 30 80 1a 00
        E 0 80 61 00
        E 50 90 31 60
        E 0 90 63 60
        E 0 90 6f 60
        E 30 80 31 00
        E 0 80 63 00
        E 0 80 6f 00
        E 50 90 1a 60
        E 0 90 55 60
        E 0 90 61 60
        E 30 80 1a 00
        E 0 80 55 00
        E 0 80 61 00
        E 49 90 1b 60
        E 0 90 61 60
        E 30 80 1b 00
        E 0 80 61 00
        E 51 90 1a 60
        E 0 90 61 60
        E 30 80 1a 00
        E 0 80 61 00
        E 50 90 1b 60
        E 0 90 3d 60
        E 0 90 49 60
        E 0 90 55 60
        E 0 90 61 60
        E 30 80 1b 00
        E 0 80 3d 00
        E 0 80 49 00
        E 0 80 55 00
        E 0 80 61 00
        E 50 90 1a 60
        E 0 90 61 60
        E 30 80 1a 00
        E 0 80 61 00
        E 50 90 2f 60
        E 0 90 62 60
        E 0 90 6e 60
        E 30 80 2f 00
        E 0 80 62 00
        E 0 80 6e 00
        E 50 90 2e 60
        E 0 90 56 60
        E 0 90 62 60
        E 0 90 6e 60
        E 30 80 2e 00
        E 0 80 56 00
        E 0 80 62 00
        E 0 80 6e 00
        E 50 90 31 60
        E 0 90 63 60
        E 0 90 6f 60
        E 30 80 31 00
        E 0 80 63 00
        E 0 80 6f 00
        E 50 90 30 60
        E 0 90 63 60
        E 0 90 6f 60
        E 30 80 30 00
        E 0 80 63 00
        E 0 80 6f 00
        E 50 90 18 60
        E 0 90 24 60
        E 0 90 40 60
        E 0 90 48 60
        E 0 90 4c 60
        E 0 90 54 60
        E 0 90 58 60
        E 0 90 60 60
        E 0 90 64 60
        E 1 80 78 00
        E 0 80 79 00
        E 0 80 7a 00
        E 0 80 7b 00
        E 0 80 7c 00
        E 29 80 18 00
        E 0 80 24 00
        E 0 80 40 00
        E 0 80 48 00
        E 0 80 4c 00
        E 0 80 54 00
        E 0 80 58 00
        E 0 80 60 00
        E 0 80 64 00
        E 130 90 18 60
        E 0 90 2b 60
        E 0 90 60 60
        E 0 90 63 60
        E 30 80 18 00
        E 0 80 2b 00
        E 0 80 60 00
        E 0 80 63 00
        E 130 90 18 60
        E 0 90 24 60
        E 0 90 60 60
        E 0 90 64 60
        E 30 80 18 00
        E 0 80 24 00
        E 0 80 60 00
        E 0 80 64 00
        E 130 90 18 60
        E 0 90 2b 60
        E 0 90 3f 60
        E 0 90 48 60
        E 0 90 4b 60
        E 0 90 54 60
        E 0 90 57 60
        E 0 90 60 60
        E 0 90 63 60
        E 30 80 18 00
        E 0 80 2b 00
        E 0 80 3f 00
        E 0 80 48 00
        E 0 80 4b 00
        E 0 80 54 00
        E 0 80 57 00
        E 0 80 60 00
        E 0 80 63 00
        E 130 90 1f 60
        E 0 90 62 60
        E 30 80 1f 00
        E 0 80 62 00
        E 50 90 1a 60
        E 0 90 55 60
        E 0 90 61 60
        E 30 80 1a 00
        E 0 80 55 00
        E 0 80 61 00
        E 50 90 18 60
        E 0 90 1f 60
        E 0 90 60 60
        E 0 90 62 60
        E 30 80 18 00
        E 0 80 1f 00
        E 0 80 60 00
        E 0 80 62 00
        E 130 90 1a 60
        E 0 90 1f 60
        E 0 90 3d 60
        E 0 90 49 60
        E 0 90 4a 60
        E 0 90 55 60
        E 0 90 56 60
        E 0 90 61 60
        E 0 90 62 60
        E 30 80 1a 00
        E 0 80 1f 00
        E 0 80 3d 00
        E 0 80 49 00
        E 0 80 4a 00
        E 0 80 55 00
        E 0 80 56 00
        E 0 80 61 00
        E 0 80 62 00
        E 130 90 1e 60
        E 0 90 62 60
        E 30 80 1e 00
        E 0 80 62 00
        E 50 90 1b 60
        E 0 90 55 60
        E 0 90 61 60
        E 30 80 1b 00
        E 0 80 55 00
        E 0 80 61 00
        E 50 90 18 60
        E 0 90 1e 60
        E 0 90 60 60
        E 0 90 62 60
        E 30 80 18 00
        E 0 80 1e 00
        E 0 80 60 00
        E 0 80 62 00
        E 130 90 18 60
        E 0 90 1f 60
        E 0 90 3e 60
        E 0 90 48 60
        E 0 90 4a 60
        E 0 90 54 60
        E 0 90 56 60
        E 0 90 60 60
        E 0 90 62 60
        E 30 80 18 00
        E 0 80 1f 00
        E 0 80 3e 00
        E 0 80 48 00
        E 0 80 4a 00
        E 0 80 54 00
        E 0 80 56 00
        E 0 80 60 00
        E 0 80 62 00
        E 130 90 1e 60
        E 0 90 62 60
        E 30 80 1e 00
        E 0 80 62 00
        E 50 90 1b 60
        E 0 90 55 60
        E 0 90 61 60
        E 30 80 1b 00
        E 0 80 55 00
        E 0 80 61 00
        E 50 90 18 60
        E 0 90 1e 60
        E 0 90 60 60
        E 0 90 62 60
        E 30 80 18 00
        E 0 80 1e 00
        E 0 80 60 00
        E 0 80 62 00
        E 130 90 1a 60
        E 0 90 1f 60
        E 0 90 3d 60
        E 0 90 49 60
        E 0 90 4a 60
        E 0 90 55 60
        E 0 90 56 60
        E 0 90 61 60
        E 0 90 62 60
        E 30 80 1a 00
        E 0 80 1f 00
        E 0 80 3d 00
        E 0 80 49 00
        E 0 80 4a 00
        E 0 80 55 00
        E 0 80 56 00
        E 0 80 61 00
        E 0 80 62 00
        E 130 90 1e 60
        E 0 90 62 60
        E 30 80 1e 00
        E 0 80 62 00
        E 50 90 1b 60
        E 0 90 55 60
        E 0 90 61 60
        E 30 80 1b 00
        E 0 80 55 00
        E 0 80 61 00
        E 50 90 18 60
        E 0 90 1e 60
        E 0 90 60 60
        E 0 90 62 60
        E 30 80 18 00
        E 0 80 1e 00
        E 0 80 60 00
        E 0 80 62 00
        E 130 90 18 60
        E 0 90 1f 60
        E 0 90 3e 60
        E 0 90 48 60
        E 0 90 4a 60
        E 0 90 54 60
        E 0 90 56 60
        E 0 90 60 60
        E 0 90 62 60
        E 30 80 18 00
        E 0 80 1f 00
        E 0 80 3e 00
        E 0 80 48 00
        E 0 80 4a 00
        E 0 80 54 00
        E 0 80 56 00
        E 0 80 60 00
        E 0 80 62 00
        E 130 90 1e 60
        E 0 90 62 60
        E 30 80 1e 00
        E 0 80 62 00
        E 50 90 1b 60
        E 0 90 55 60
        E 0 90 61 60
        E 30 80 1b 00
        E 0 80 55 00
        E 0 80 61 00
        E 50 90 18 60
        E 0 90 1e 60
        E 0 90 60 60
        E 0 90 62 60
        E 30 80 18 00
        E 0 80 1e 00
        E 0 80 60 00
        E 0 80 62 00
        E 130 90 1a 60
        E 0 90 1f 60
        E 0 90 3d 60
        E 0 90 49 60
        E 0 90 4a 60
        E 0 90 55 60
        E 0 90 56 60
        E 0 90 61 60
        E 0 90 62 60
        E 30 80 1a 00
        E 0 80 1f 00
        E 0 80 3d 00
        E 0 80 49 00
        E 0 80 4a 00
        E 0 80 55 00
        E 0 80 56 00
        E 0 80 61 00
        E 0 80 62 00
        E 130 90 1e 60
        E 0 90 62 60
        E 30 80 1e 00
        E 0 80 62 00
        E 50 90 1b 60
        E 0 90 55 60
        E 0 90 61 60
        E 30 80 1b 00
        E 0 80 55 00
        E 0 80 61 00
        E 49 90 18 60
        E 0 90 1e 60
        E 0 90 60 60
        E 0 90 62 60
        E 30 80 18 00
        E 0 80 1e 00
        E 0 80 60 00
        E 0 80 62 00
        E 131 90 18 60
        E 0 90 1f 60
        E 0 90 3e 60
        E 0 90 48 60
        E 0 90 4a 60
        E 0 90 54 60
        E 0 90 56 60
        E 0 90 60 60
        E 0 90 62 60
        E 0 90 78 60
        E 0 90 79 60
        E 0 90 7a 60
        E 0 90 7b 60
        E 0 90 7c 60
        E 30 80 18 00
        E 0 80 1f 00
        E 0 80 3e 00
        E 0 80 48 00
        E 0 80 4a 00
        E 0 80 54 00
        E 0 80 56 00
        E 0 80 60 00
        E 0 80 62 00
        E 50 90 1a 60
        E 0 90 61 60
        E 30 80 1a 00
        E 0 80 61 00
        E 50 90 1b 60
        E 0 90 61 60
        E 30 80 1b 00
        E 0 80 61 00
        E 50 90 1a 60
        E 0 90 55 60
        E 0 90 61 60
        E 30 80 1a 00
        E 0 80 55 00
        E 0 80 61 00
        E 50 90 2f 60
        E 0 90 62 60
        E 0 90 6e 60
        E 30 80 2f 00
        E 0 80 62 00
        E 0 80 6e 00
        E 50 90 1a 60
        E 0 90 61 60
        E 30 80 1a 00
        E 0 80 61 00
        E 50 90 1b 60
        E 0 90 3d 60
        E 0 90 49 60
        E 0 90 55 60
        E 0 90 61 60
        E 30 80 1b 00
        E 0 80 3d 00
        E 0 80 49 00
        E 0 80 55 00
        E 0 80 61 00
        E 50 90 1a 60
        E 0 90 61 60
        E 30 80 1a 00
        E 0 80 61 00
        E 50 90 2f 60
        E 0 90 62 60
        E 0 90 6e 60
        E 30 80 2f 00
        E 0 80 62 00
        E 0 80 6e 00
        E 50 90 2e 60
        E 0 90 56 60
        E 0 90 62 60
        E 0 90 6e 60
        E 30 80 2e 00
        E 0 80 56 00
        E 0 80 62 00
        E 0 80 6e 00
        E 50 90 31 60
        E 0 90 63 60
        E 0 90 6f 60
        E 30 80 31 00
        E 0 80 63 00
        E 0 80 6f 00
        E 50 90 30 60
        E 0 90 63 60
        E 0 90 6f 60
        E 30 80 30 00
        E 0 80 63 00
        E 0 80 6f 00
        E 50 90 18 60
        E 0 90 24 60
        E 0 90 40 60
        E 0 90 48 60
        E 0 90 4c 60
        E 0 90 54 60
        E 0 90 58 60
        E 0 90 60 60
        E 0 90 64 60
        E 1 80 78 00
        E 0 80 79 00
        E 0 80 7a 00
        E 0 80 7b 00
        E 0 80 7c 00
        E 29 80 18 00
        E 0 80 24 00
        E 0 80 40 00
        E 0 80 48 00
        E 0 80 4c 00
        E 0 80 54 00
        E 0 80 58 00
        E 0 80 60 00
        E 0 80 64 00
        E 130 90 1e 60
        E 0 90 62 60
        E 30 80 1e 00
        E 0 80 62 00
        E 50 90 1b 60
        E 0 90 55 60
        E 0 90 61 60
        E 30 80 1b 00
        E 0 80 55 00
        E 0 80 61 00
        E 50 90 18 60
        E 0 90 1e 60
        E 0 90 60 60
        E 0 90 62 60
        E 30 80 18 00
        E 0 80 1e 00
        E 0 80 60 00
        E 0 80 62 00
        E 50 90 18 60
        E 0 90 60 60
        E 30 80 18 00
        E 0 80 60 00
        E 50 90 1a 60
        E 0 90 24 60
        E 0 90 3d 60
        E 0 90 49 60
        E 0 90 4c 60
        E 0 90 55 60
        E 0 90 58 60
        E 0 90 61 60
        E 0 90 64 60
        E 30 80 1a 00
        E 0 80 24 00
        E 0 80 3d 00
        E 0 80 49 00
        E 0 80 4c 00
        E 0 80 55 00
        E 0 80 58 00
        E 0 80 61 00
        E 0 80 64 00
        E 130 90 1e 60
        E 0 90 62 60
        E 30 80 1e 00
        E 0 80 62 00
        E 50 90 1b 60
        E 0 90 55 60
        E 0 90 61 60
        E 30 80 1b 00
        E 0 80 55 00
        E 0 80 61 00
        E 50 90 18 60
        E 0 90 1e 60
        E 0 90 60 60
        E 0 90 62 60
        E 30 80 18 00
        E 0 80 1e 00
        E 0 80 60 00
        E 0 80 62 00
        E 130 90 18 60
        E 0 90 1f 60
        E 0 90 3e 60
        E 0 90 48 60
        E 0 90 4a 60
        E 0 90 54 60
        E 0 90 56 60
        E 0 90 60 60
        E 0 90 62 60
        E 30 80 18 00
        E 0 80 1f 00
        E 0 80 3e 00
        E 0 80 48 00
        E 0 80 4a 00
        E 0 80 54 00
        E 0 80 56 00
        E 0 80 60 00
        E 0 80 62 00
        E 130 90 1e 60
        E 0 90 62 60
        E 30 80 1e 00
        E 0 80 62 00
        E 50 90 1b 60
        E 0 90 55 60
        E 0 90 61 60
        E 30 80 1b 00
        E 0 80 55 00
        E 0 80 61 00
        E 50 90 18 60
        E 0 90 1e 60
        E 0 90 60 60
        E 0 90 62 60
        E 30 80 18 00
        E 0 80 1e 00
        E 0 80 60 00
        E 0 80 62 00
        E 130 90 1a 60
        E 0 90 1f 60
        E 0 90 3d 60
        E 0 90 49 60
        E 0 90 4a 60
        E 0 90 55 60
        E 0 90 56 60
        E 0 90 61 60
        E 0 90 62 60
        E 30 80 1a 00
        E 0 80 1f 00
        E 0 80 3d 00
        E 0 80 49 00
        E 0 80 4a 00
        E 0 80 55 00
        E 0 80 56 00
        E 0 80 61 00
        E 0 80 62 00
        E 130 90 1e 60
        E 0 90 62 60
        E 30 80 1e 00
        E 0 80 62 00
        E 50 90 1b 60
        E 0 90 55 60
        E 0 90 61 60
        E 30 80 1b 00
        E 0 80 55 00
        E 0 80 61 00
        E 50 90 18 60
        E 0 90 1e 60
        E 0 90 60 60
        E 0 90 62 60
        E 30 80 18 00
        E 0 80 1e 00
        E 0 80 60 00
        E 0 80 62 00
        E 130 90 18 60
        E 0 90 1f 60
        E 0 90 3e 60
        E 0 90 48 60
        E 0 90 4a 60
        E 0 90 54 60
        E 0 90 56 60
        E 0 90 60 60
        E 0 90 62 60
        E 30 80 18 00
        E 0 80 1f 00
        E 0 80 3e 00
        E 0 80 48 00
        E 0 80 4a 00
        E 0 80 54 00
        E 0 80 56 00
        E 0 80 60 00
        E 0 80 62 00
        E 50 90 1a 60
        E 0 90 61 60
        E 30 80 1a 00
        E 0 80 61 00
        E 50 90 1b 60
        E 0 90 61 60
        E 30 80 1b 00
        E 0 80 61 00
        E 24 90 1a 60
        E 0 90 61 60
        E 30 80 1a 00
        E 0 80 61 00
        E 23 90 1b 60
        E 0 90 61 60
        E 30 80 1b 00
        E 0 80 61 00
        E 23 90 1a 60
        E 0 90 61 60
        E 30 80 1a 00
        E 0 80 61 00
        E 50 90 1b 60
        E 0 90 61 60
        E 30 80 1b 00
        E 0 80 61 00
        E 50 90 18 60
        E 0 90 22 60
        E 0 90 40 60
        E 0 90 48 60
        E 0 90 4c 60
        E 0 90 54 60
        E 0 90 58 60
        E 0 90 60 60
        E 0 90 64 60
        E 30 80 18 00
        E 0 80 22 00
        E 0 80 40 00
        E 0 80 48 00
        E 0 80 4c 00
        E 0 80 54 00
        E 0 80 58 00
        E 0 80 60 00
        E 0 80 64 00
        E 50 90 1b 60
        E 0 90 61 60
        E 30 80 1b 00
        E 0 80 61 00
        E 50 90 18 60
        E 0 90 1a 60
        E 0 90 60 60
        E 0 90 61 60
        E 30 80 18 00
        E 0 80 1a 00
        E 0 80 60 00
        E 0 80 61 00
        E 50 90 1b 60
        E 0 90 55 60
        E 0 90 61 60
        E 30 80 1b 00
        E 0 80 55 00
        E 0 80 61 00
        E 50 90 18 60
        E 0 90 2e 60
        E 0 90 60 60
        E 0 90 62 60
        E 0 90 6e 60
        E 30 80 18 00
        E 0 80 2e 00
        E 0 80 60 00
        E 0 80 62 00
        E 0 80 6e 00
        E 50 90 1b 60
        E 0 90 61 60
        E 30 80 1b 00
        E 0 80 61 00
        E 50 90 18 60
        E 0 90 1a 60
        E 0 90 3d 60
        E 0 90 49 60
        E 0 90 54 60
        E 0 90 55 60
        E 0 90 60 60
        E 0 90 61 60
        E 30 80 18 00
        E 0 80 1a 00
        E 0 80 3d 00
        E 0 80 49 00
        E 0 80 54 00
        E 0 80 55 00
        E 0 80 60 00
        E 0 80 61 00
        E 50 90 1b 60
        E 0 90 61 60
        E 30 80 1b 00
        E 0 80 61 00
        E 50 90 18 60
        E 0 90 30 60
        E 0 90 60 60
        E 0 90 63 60
        E 0 90 6f 60
        E 30 80 18 00
        E 0 80 30 00
        E 0 80 60 00
        E 0 80 63 00
        E 0 80 6f 00
        E 50 90 1b 60
        E 0 90 55 60
        E 0 90 61 60
        E 30 80 1b 00
        E 0 80 55 00
        E 0 80 61 00
        E 50 90 18 60
        E 0 90 1a 60
        E 0 90 60 60
        E 0 90 61 60
        E 30 80 18 00
        E 0 80 1a 00
        E 0 80 60 00
        E 0 80 61 00
        E 50 90 1b 60
        E 0 90 61 60
        E 30 80 1b 00
        E 0 80 61 00
        E 50 90 18 60
        E 0 90 1a 60
        E 0 90 3d 60
        E 0 90 49 60
        E 0 90 54 60
        E 0 90 55 60
        E 0 90 60 60
        E 0 90 61 60
        E 30 80 18 00
        E 0 80 1a 00
        E 0 80 3d 00
        E 0 80 49 00
        E 0 80 54 00
        E 0 80 55 00
        E 0 80 60 00
        E 0 80 61 00
        E 50 90 1b 60
        E 0 90 61 60
        E 30 80 1b 00
        E 0 80 61 00
        E 50 90 18 60
        E 0 90 2e 60
        E 0 90 60 60
        E 0 90 62 60
        E 0 90 6e 60
        E 30 80 18 00
        E 0 80 2e 00
        E 0 80 60 00
        E 0 80 62 00
        E 0 80 6e 00
        E 50 90 2f 60
        E 0 90 56 60
        E 0 90 62 60
        E 0 90 6e 60
        E 30 80 2f 00
        E 0 80 56 00
        E 0 80 62 00
        E 0 80 6e 00
        E 50 90 18 60
        E 0 90 30 60
        E 0 90 60 60
        E 0 90 63 60
        E 0 90 6f 60
        E 30 80 18 00
        E 0 80 30 00
        E 0 80 60 00
        E 0 80 63 00
        E 0 80 6f 00
        E 50 90 31 60
        E 0 90 63 60
        E 0 90 6f 60
        E 30 80 31 00
        E 0 80 63 00
        E 0 80 6f 00
        E 50 90 18 60
        E 0 90 22 60
        E 0 90 40 60
        E 0 90 48 60
        E 0 90 4c 60
        E 0 90 54 60
        E 0 90 58 60
        E 0 90 60 60
        E 0 90 64 60
        E 30 80 18 00
        E 0 80 22 00
        E 0 80 40 00
        E 0 80 48 00
        E 0 80 4c 00
        E 0 80 54 00
        E 0 80 58 00
        E 0 80 60 00
        E 0 80 64 00
        E 130 90 18 60
        E 0 90 1f 60
        E 0 90 60 60
        E 0 90 62 60
        E 30 80 18 00
        E 0 80 1f 00
        E 0 80 60 00
        E 0 80 62 00
        E 50 90 1a 60
        E 0 90 55 60
        E 0 90 61 60
        E 30 80 1a 00
        E 0 80 55 00
        E 0 80 61 00
        E 50 90 1f 60
        E 0 90 62 60
        E 30 80 1f 00
        E 0 80 62 00
        E 50 90 18 60
        E 0 90 60 60
        E 30 80 18 00
        E 0 80 60 00
        E 50 90 1a 60
        E 0 90 1f 60
        E 0 90 3d 60
        E 0 90 49 60
        E 0 90 4a 60
        E 0 90 55 60
        E 0 90 56 60
        E 0 90 61 60
        E 0 90 62 60
        E 30 80 1a 00
        E 0 80 1f 00
        E 0 80 3d 00
        E 0 80 49 00
        E 0 80 4a 00
        E 0 80 55 00
        E 0 80 56 00
        E 0 80 61 00
        E 0 80 62 00
        E 130 90 1e 60
        E 0 90 62 60
        E 30 80 1e 00
        E 0 80 62 00
        E 50 90 1b 60
        E 0 90 55 60
        E 0 90 61 60
        E 30 80 1b 00
        E 0 80 55 00
        E 0 80 61 00
        E 50 90 18 60
        E 0 90 1e 60
        E 0 90 60 60
        E 0 90 62 60
        E 30 80 18 00
        E 0 80 1e 00
        E 0 80 60 00
        E 0 80 62 00
        E 130 90 18 60
        E 0 90 1f 60
        E 0 90 3e 60
        E 0 90 48 60
        E 0 90 4a 60
        E 0 90 54 60
        E 0 90 56 60
        E 0 90 60 60
        E 0 90 62 60
        E 30 80 18 00
        E 0 80 1f 00
        E 0 80 3e 00
        E 0 80 48 00
        E 0 80 4a 00
        E 0 80 54 00
        E 0 80 56 00
        E 0 80 60 00
        E 0 80 62 00
        E 130 90 18 60
        E 0 90 1e 60
        E 0 90 60 60
        E 0 90 62 60
        E 30 80 18 00
        E 0 80 1e 00
        E 0 80 60 00
        E 0 80 62 00
        E 50 90 1b 60
        E 0 90 55 60
        E 0 90 61 60
        E 30 80 1b 00
        E 0 80 55 00
        E 0 80 61 00
        E 50 90 1e 60
        E 0 90 62 60
        E 30 80 1e 00
        E 0 80 62 00
        E 50 90 18 60
        E 0 90 60 60
        E 30 80 18 00
        E 0 80 60 00
        E 50 90 1a 60
        E 0 90 1f 60
        E 0 90 3d 60
        E 0 90 49 60
        E 0 90 4a 60
        E 0 90 55 60
        E 0 90 56 60
        E 0 90 61 60
        E 0 90 62 60
        E 30 80 1a 00
        E 0 80 1f 00
        E 0 80 3d 00
        E 0 80 49 00
        E 0 80 4a 00
        E 0 80 55 00
        E 0 80 56 00
        E 0 80 61 00
        E 0 80 62 00
        E 131 90 18 60
        E 0 90 1e 60
        E 0 90 60 60
        E 0 90 62 60
        E 30 80 18 00
        E 0 80 1e 00
        E 0 80 60 00
        E 0 80 62 00
        E 49 90 1b 60
        E 0 90 55 60
        E 0 90 61 60
        E 30 80 1b 00
        E 0 80 55 00
        E 0 80 61 00
        E 50 90 1e 60
        E 0 90 62 60
        E 30 80 1e 00
        E 0 80 62 00
        E 130 90 18 60
        E 0 90 1f 60
        E 0 90 3e 60
        E 0 90 48 60
        E 0 90 4a 60
        E 0 90 54 60
        E 0 90 56 60
        E 0 90 60 60
        E 0 90 62 60
        E 30 80 18 00
        E 0 80 1f 00
        E 0 80 3e 00
        E 0 80 48 00
        E 0 80 4a 00
        E 0 80 54 00
        E 0 80 56 00
        E 0 80 60 00
        E 0 80 62 00
        E 130 90 1e 60
        E 0 90 62 60
        E 30 80 1e 00
        E 0 80 62 00
        E 50 90 1b 60
        E 0 90 55 60
        E 0 90 61 60
        E 30 80 1b 00
        E 0 80 55 00
        E 0 80 61 00
        E 50 90 18 60
        E 0 90 1e 60
        E 0 90 60 60
        E 0 90 62 60
        E 30 80 18 00
        E 0 80 1e 00
        E 0 80 60 00
        E 0 80 62 00
        E 50 90 18 60
        E 0 90 60 60
        E 30 80 18 00
        E 0 80 60 00
        E 50 90 1a 60
        E 0 90 1f 60
        E 0 90 3d 60
        E 0 90 49 60
        E 0 90 4a 60
        E 0 90 55 60
        E 0 90 56 60
        E 0 90 61 60
        E 0 90 62 60
        E 30 80 1a 00
        E 0 80 1f 00
        E 0 80 3d 00
        E 0 80 49 00
        E 0 80 4a 00
        E 0 80 55 00
        E 0 80 56 00
        E 0 80 61 00
        E 0 80 62 00
        E 130 90 1e 60
        E 0 90 62 60
        E 30 80 1e 00
        E 0 80 62 00
        E 50 90 1b 60
        E 0 90 55 60
        E 0 90 61 60
        E 30 80 1b 00
        E 0 80 55 00
        E 0 80 61 00
        E 50 90 18 60
        E 0 90 1e 60
        E 0 90 60 60
        E 0 90 62 60
        E 30 80 18 00
        E 0 80 1e 00
        E 0 80 60 00
        E 0 80 62 00
        E 130 90 18 60
        E 0 90 1f 60
        E 0 90 3e 60
        E 0 90 48 60
        E 0 90 4a 60
        E 0 90 54 60
        E 0 90 56 60
        E 0 90 60 60
        E 0 90 62 60
        E 30 80 18 00
        E 0 80 1f 00
        E 0 80 3e 00
        E 0 80 48 00
        E 0 80 4a 00
        E 0 80 54 00
        E 0 80 56 00
        E 0 80 60 00
        E 0 80 62 00
        E 50 90 1a 60
        E 0 90 61 60
        E 30 80 1a 00
        E 0 80 61 00
        E 50 90 1b 60
        E 0 90 61 60
        E 30 80 1b 00
        E 0 80 61 00
        E 50 90 1a 60
        E 0 90 55 60
        E 0 90 61 60
        E 30 80 1a 00
        E 0 80 55 00
        E 0 80 61 00
        E 130 90 1b 60
        E 0 90 61 60
        E 30 80 1b 00
        E 0 80 61 00
        E 50 90 18 60
        E 0 90 22 60
        E 0 90 40 60
        E 0 90 48 60
        E 0 90 4c 60
        E 0 90 54 60
        E 0 90 58 60
        E 0 90 60 60
        E 0 90 64 60
        E 30 80 18 00
        E 0 80 22 00
        E 0 80 40 00
        E 0 80 48 00
        E 0 80 4c 00
        E 0 80 54 00
        E 0 80 58 00
        E 0 80 60 00
        E 0 80 64 00
        E 50 90 1b 60
        E 0 90 61 60
        E 30 80 1b 00
        E 0 80 61 00
        E 50 90 1a 60
        E 0 90 61 60
        E 30 80 1a 00
        E 0 80 61 00
        E 50 90 1b 60
        E 0 90 55 60
        E 0 90 61 60
        E 30 80 1b 00
        E 0 80 55 00
        E 0 80 61 00
        E 130 90 1a 60
        E 0 90 61 60
        E 30 80 1a 00
        E 0 80 61 00
        E 50 90 18 60
        E 0 90 24 60
        E 0 90 40 60
        E 0 90 48 60
        E 0 90 4c 60
        E 0 90 54 60
        E 0 90 58 60
        E 0 90 60 60
        E 0 90 64 60
        E 30 80 18 00
        E 0 80 24 00
        E 0 80 40 00
        E 0 80 48 00
        E 0 80 4c 00
        E 0 80 54 00
        E 0 80 58 00
        E 0 80 60 00
        E 0 80 64 00
        E 130 90 1e 60
        E 0 90 62 60
        E 30 80 1e 00
        E 0 80 62 00
        E 50 90 1b 60
        E 0 90 55 60
        E 0 90 61 60
        E 30 80 1b 00
        E 0 80 55 00
        E 0 80 61 00
        E 49 90 18 60
        E 0 90 1e 60
        E 0 90 60 60
        E 0 90 62 60
        E 30 80 18 00
        E 0 80 1e 00
        E 0 80 60 00
        E 0 80 62 00
        E 50 90 18 60
        E 0 90 60 60
        E 30 80 18 00
        E 0 80 60 00
        E 51 90 1a 60
        E 0 90 1f 60
        E 0 90 3d 60
        E 0 90 49 60
        E 0 90 4a 60
        E 0 90 55 60
        E 0 90 56 60
        E 0 90 61 60
        E 0 90 62 60
        E 30 80 1a 00
        E 0 80 1f 00
        E 0 80 3d 00
        E 0 80 49 00
        E 0 80 4a 00
        E 0 80 55 00
        E 0 80 56 00
        E 0 80 61 00
        E 0 80 62 00
        E 130 90 1e 60
        E 0 90 62 60
        E 30 80 1e 00
        E 0 80 62 00
        E 50 90 1b 60
        E 0 90 55 60
        E 0 90 61 60
        E 30 80 1b 00
        E 0 80 55 00
        E 0 80 61 00
        E 50 90 18 60
        E 0 90 1e 60
        E 0 90 60 60
        E 0 90 62 60
        E 30 80 18 00
        E 0 80 1e 00
        E 0 80 60 00
        E 0 80 62 00
        E 130 90 18 60
        E 0 90 1f 60
        E 0 90 3e 60
        E 0 90 48 60
        E 0 90 4a 60
        E 0 90 54 60
        E 0 90 56 60
        E 0 90 60 60
        E 0 90 62 60
        E 30 80 18 00
        E 0 80 1f 00
        E 0 80 3e 00
        E 0 80 48 00
        E 0 80 4a 00
        E 0 80 54 00
        E 0 80 56 00
        E 0 80 60 00
        E 0 80 62 00
        E 130 90 1e 60
        E 0 90 62 60
        E 30 80 1e 00
        E 0 80 62 00
        E 50 90 1b 60
        E 0 90 55 60
        E 0 90 61 60
        E 30 80 1b 00
        E 0 80 55 00
        E 0 80 61 00
        E 50 90 18 60
        E 0 90 1e 60
        E 0 90 60 60
        E 0 90 62 60
        E 30 80 18 00
        E 0 80 1e 00
        E 0 80 60 00
        E 0 80 62 00
        E 50 90 18 60
        E 0 90 60 60
        E 30 80 18 00
        E 0 80 60 00
        E 50 90 1a 60
        E 0 90 1f 60
        E 0 90 3d 60
        E 0 90 49 60
        E 0 90 4a 60
        E 0 90 55 60
        E 0 90 56 60
        E 0 90 61 60
        E 0 90 62 60
        E 30 80 1a 00
        E 0 80 1f 00
        E 0 80 3d 00
        E 0 80 49 00
        E 0 80 4a 00
        E 0 80 55 00
        E 0 80 56 00
        E 0 80 61 00
        E 0 80 62 00
        E 130 90 1e 60
        E 0 90 62 60
        E 30 80 1e 00
        E 0 80 62 00
        E 50 90 1b 60
        E 0 90 55 60
        E 0 90 61 60
        E 30 80 1b 00
        E 0 80 55 00
        E 0 80 61 00
        E 50 90 18 60
        E 0 90 1e 60
        E 0 90 60 60
        E 0 90 62 60
        E 30 80 18 00
        E 0 80 1e 00
        E 0 80 60 00
        E 0 80 62 00
        E 130 90 18 60
        E 0 90 1f 60
        E 0 90 3e 60
        E 0 90 48 60
        E 0 90 4a 60
        E 0 90 54 60
        E 0 90 56 60
        E 0 90 60 60
        E 0 90 62 60
        E 30 80 18 00
        E 0 80 1f 00
        E 0 80 3e 00
        E 0 80 48 00
        E 0 80 4a 00
        E 0 80 54 00
        E 0 80 56 00
        E 0 80 60 00
        E 0 80 62 00
        E 50 90 1a 60
        E 0 90 61 60
        E 30 80 1a 00
        E 0 80 61 00
        E 50 90 1b 60
        E 0 90 61 60
        E 30 80 1b 00
        E 0 80 61 00
        E 23 90 1a 60
        E 0 90 61 60
        E 30 80 1a 00
        E 0 80 61 00
        E 23 90 1b 60
        E 0 90 61 60
        E 30 80 1b 00
        E 0 80 61 00
        E 24 90 1a 60
        E 0 90 61 60
        E 30 80 1a 00
        E 0 80 61 00
        E 49 90 1b 60
        E 0 90 61 60
        E 30 80 1b 00
        E 0 80 61 00
        E 51 90 18 60
        E 0 90 22 60
        E 0 90 40 60
        E 0 90 48 60
        E 0 90 4c 60
        E 0 90 54 60
        E 0 90 58 60
        E 0 90 60 60
        E 0 90 64 60
        E 30 80 18 00
        E 0 80 22 00
        E 0 80 40 00
        E 0 80 48 00
        E 0 80 4c 00
        E 0 80 54 00
        E 0 80 58 00
        E 0 80 60 00
        E 0 80 64 00
        E 50 90 1b 60
        E 0 90 61 60
        E 30 80 1b 00
        E 0 80 61 00
        E 50 90 18 60
        E 0 90 1a 60
        E 0 90 60 60
        E 0 90 61 60
        E 30 80 18 00
        E 0 80 1a 00
        E 0 80 60 00
        E 0 80 61 00
        E 50 90 2f 60
        E 0 90 56 60
        E 0 90 62 60
        E 0 90 6e 60
        E 30 80 2f 00
        E 0 80 56 00
        E 0 80 62 00
        E 0 80 6e 00
        E 50 90 18 60
        E 0 90 30 60
        E 0 90 60 60
        E 0 90 63 60
        E 0 90 6f 60
        E 30 80 18 00
        E 0 80 30 00
        E 0 80 60 00
        E 0 80 63 00
        E 0 80 6f 00
        E 50 90 1b 60
        E 0 90 61 60
        E 30 80 1b 00
        E 0 80 61 00
        E 50 90 18 60
        E 0 90 1a 60
        E 0 90 3d 60
        E 0 90 49 60
        E 0 90 54 60
        E 0 90 55 60
        E 0 90 60 60
        E 0 90 61 60
        E 30 80 18 00
        E 0 80 1a 00
        E 0 80 3d 00
        E 0 80 49 00
        E 0 80 54 00
        E 0 80 55 00
        E 0 80 60 00
        E 0 80 61 00
        E 50 90 1b 60
        E 0 90 61 60
        E 30 80 1b 00
        E 0 80 61 00
        E 50 90 18 60
        E 0 90 2e 60
        E 0 90 60 60
        E 0 90 62 60
        E 0 90 6e 60
        E 30 80 18 00
        E 0 80 2e 00
        E 0 80 60 00
        E 0 80 62 00
        E 0 80 6e 00
        E 50 90 1b 60
        E 0 90 55 60
        E 0 90 61 60
        E 30 80 1b 00
        E 0 80 55 00
        E 0 80 61 00
        E 50 90 18 60
        E 0 90 1a 60
        E 0 90 60 60
        E 0 90 61 60
        E 30 80 18 00
        E 0 80 1a 00
        E 0 80 60 00
        E 0 80 61 00
        E 50 90 1b 60
        E 0 90 61 60
        E 30 80 1b 00
        E 0 80 61 00
        E 50 90 18 60
        E 0 90 1a 60
        E 0 90 3d 60
        E 0 90 49 60
        E 0 90 54 60
        E 0 90 55 60
        E 0 90 60 60
        E 0 90 61 60
        E 30 80 18 00
        E 0 80 1a 00
        E 0 80 3d 00
        E 0 80 49 00
        E 0 80 54 00
        E 0 80 55 00
        E 0 80 60 00
        E 0 80 61 00
        E 50 90 1b 60
        E 0 90 61 60
        E 30 80 1b 00
        E 0 80 61 00
        E 50 90 18 60
        E 0 90 2e 60
        E 0 90 60 60
        E 0 90 62 60
        E 0 90 6e 60
        E 30 80 18 00
        E 0 80 2e 00
        E 0 80 60 00
        E 0 80 62 00
        E 0 80 6e 00
        E 50 90 2f 60
        E 0 90 56 60
        E 0 90 62 60
        E 0 90 6e 60
        E 30 80 2f 00
        E 0 80 56 00
        E 0 80 62 00
        E 0 80 6e 00
        E 50 90 18 60
        E 0 90 30 60
        E 0 90 60 60
        E 0 90 63 60
        E 0 90 6f 60
        E 30 80 18 00
        E 0 80 30 00
        E 0 80 60 00
        E 0 80 63 00
        E 0 80 6f 00
        E 50 90 31 60
        E 0 90 63 60
        E 0 90 6f 60
        E 30 80 31 00
        E 0 80 63 00
        E 0 80 6f 00
        E 50 90 18 60
        E 0 90 22 60
        E 0 90 40 60
        E 0 90 48 60
        E 0 90 4c 60
        E 0 90 54 60
        E 0 90 58 60
        E 0 90 60 60
        E 0 90 64 60
        E 30 80 18 00
        E 0 80 22 00
        E 0 80 40 00
        E 0 80 48 00
        E 0 80 4c 00
        E 0 80 54 00
        E 0 80 58 00
        E 0 80 60 00
        E 0 80 64 00
        E 130 90 1f 60
        E 0 90 62 60
        E 30 80 1f 00
        E 0 80 62 00
        E 50 90 1a 60
        E 0 90 55 60
        E 0 90 61 60
        E 30 80 1a 00
        E 0 80 55 00
        E 0 80 61 00
        E 50 90 18 60
        E 0 90 1f 60
        E 0 90 60 60
        E 0 90 62 60
        E 30 80 18 00
        E 0 80 1f 00
        E 0 80 60 00
        E 0 80 62 00
        E 49 90 18 60
        E 0 90 60 60
        E 30 80 18 00
        E 0 80 60 00
        E 51 90 1a 60
        E 0 90 24 60
        E 0 90 3d 60
        E 0 90 49 60
        E 0 90 4c 60
        E 0 90 55 60
        E 0 90 58 60
        E 0 90 61 60
        E 0 90 64 60
        E 30 80 1a 00
        E 0 80 24 00
        E 0 80 3d 00
        E 0 80 49 00
        E 0 80 4c 00
        E 0 80 55 00
        E 0 80 58 00
        E 0 80 61 00
        E 0 80 64 00
        E 130 90 1e 60
        E 0 90 62 60
        E 30 80 1e 00
        E 0 80 62 00
        E 50 90 1b 60
        E 0 90 55 60
        E 0 90 61 60
        E 30 80 1b 00
        E 0 80 55 00
        E 0 80 61 00
        E 50 90 18 60
        E 0 90 1e 60
        E 0 90 60 60
        E 0 90 62 60
        E 30 80 18 00
        E 0 80 1e 00
        E 0 80 60 00
        E 0 80 62 00
        E 130 90 18 60
        E 0 90 1f 60
        E 0 90 3e 60
        E 0 90 48 60
        E 0 90 4a 60
        E 0 90 54 60
        E 0 90 56 60
        E 0 90 60 60
        E 0 90 62 60
        E 30 80 18 00
        E 0 80 1f 00
        E 0 80 3e 00
        E 0 80 48 00
        E 0 80 4a 00
        E 0 80 54 00
        E 0 80 56 00
        E 0 80 60 00
        E 0 80 62 00
        E 130 90 1e 60
        E 0 90 62 60
        E 30 80 1e 00
        E 0 80 62 00
        E 50 90 1b 60
        E 0 90 55 60
        E 0 90 61 60
        E 30 80 1b 00
        E 0 80 55 00
        E 0 80 61 00
        E 50 90 18 60
        E 0 90 1e 60
        E 0 90 60 60
        E 0 90 62 60
        E 30 80 18 00
        E 0 80 1e 00
        E 0 80 60 00
        E 0 80 62 00
        E 50 90 18 60
        E 0 90 60 60
        E 30 80 18 00
        E 0 80 60 00
        E 50 90 1a 60
        E 0 90 1f 60
        E 0 90 3d 60
        E 0 90 49 60
        E 0 90 4a 60
        E 0 90 55 60
        E 0 90 56 60
        E 0 90 61 60
        E 0 90 62 60
        E 30 80 1a 00
        E 0 80 1f 00
        E 0 80 3d 00
        E 0 80 49 00
        E 0 80 4a 00
        E 0 80 55 00
        E 0 80 56 00
        E 0 80 61 00
        E 0 80 62 00
        E 130 90 18 60
        E 0 90 1e 60
        E 0 90 60 60
        E 0 90 62 60
        E 30 80 18 00
        E 0 80 1e 00
        E 0 80 60 00
        E 0 80 62 00
        E 50 90 1b 60
        E 0 90 55 60
        E 0 90 61 60
        E 30 80 1b 00
        E 0 80 55 00
        E 0 80 61 00
        E 50 90 1e 60
        E 0 90 62 60
        E 30 80 1e 00
        E 0 80 62 00
        E 130 90 18 60
        E 0 90 1f 60
        E 0 90 3e 60
        E 0 90 48 60
        E 0 90 4a 60
        E 0 90 54 60
        E 0 90 56 60
        E 0 90 60 60
        E 0 90 62 60
        E 30 80 18 00
        E 0 80 1f 00
        E 0 80 3e 00
        E 0 80 48 00
        E 0 80 4a 00
        E 0 80 54 00
        E 0 80 56 00
        E 0 80 60 00
        E 0 80 62 00
        E 130 90 1e 60
        E 0 90 62 60
        E 30 80 1e 00
        E 0 80 62 00
        E 50 90 1b 60
        E 0 90 55 60
        E 0 90 61 60
        E 30 80 1b 00
        E 0 80 55 00
        E 0 80 61 00
        E 50 90 18 60
        E 0 90 1e 60
        E 0 90 60 60
        E 0 90 62 60
        E 30 80 18 00
        E 0 80 1e 00
        E 0 80 60 00
        E 0 80 62 00
        E 50 90 18 60
        E 0 90 60 60
        E 30 80 18 00
        E 0 80 60 00
        E 50 90 1a 60
        E 0 90 1f 60
        E 0 90 3d 60
        E 0 90 49 60
        E 0 90 4a 60
        E 0 90 55 60
        E 0 90 56 60
        E 0 90 61 60
        E 0 90 62 60
        E 30 80 1a 00
        E 0 80 1f 00
        E 0 80 3d 00
        E 0 80 49 00
        E 0 80 4a 00
        E 0 80 55 00
        E 0 80 56 00
        E 0 80 61 00
        E 0 80 62 00
        E 130 90 1e 60
        E 0 90 62 60
        E 30 80 1e 00
        E 0 80 62 00
        E 50 90 1b 60
        E 0 90 55 60
        E 0 90 61 60
        E 30 80 1b 00
        E 0 80 55 00
        E 0 80 61 00
        E 50 90 18 60
        E 0 90 1e 60
        E 0 90 60 60
        E 0 90 62 60
        E 30 80 18 00
        E 0 80 1e 00
        E 0 80 60 00
        E 0 80 62 00
        E 130 90 18 60
        E 0 90 1f 60
        E 0 90 3e 60
        E 0 90 48 60
        E 0 90 4a 60
        E 0 90 54 60
        E 0 90 56 60
        E 0 90 60 60
        E 0 90 62 60
        E 30 80 18 00
        E 0 80 1f 00
        E 0 80 3e 00
        E 0 80 48 00
        E 0 80 4a 00
        E 0 80 54 00
        E 0 80 56 00
        E 0 80 60 00
        E 0 80 62 00
        E 50 90 1a 60
        E 0 90 61 60
        E 30 80 1a 00
        E 0 80 61 00
        E 50 90 1b 60
        E 0 90 61 60
        E 30 80 1b 00
        E 0 80 61 00
        E 50 90 1a 60
        E 0 90 55 60
        E 0 90 61 60
        E 30 80 1a 00
        E 0 80 55 00
        E 0 80 61 00
        E 50 90 1b 60
        E 0 90 61 60
        E 30 80 1b 00
        E 0 80 61 00
        E 50 90 1a 60
        E 0 90 61 60
        E 30 80 1a 00
        E 0 80 61 00
        E 50 90 1b 60
        E 0 90 3d 60
        E 0 90 49 60
        E 0 90 55 60
        E 0 90 61 60
        E 30 80 1b 00
        E 0 80 3d 00
        E 0 80 49 00
        E 0 80 55 00
        E 0 80 61 00
        E 50 90 1a 60
        E 0 90 61 60
        E 30 80 1a 00
        E 0 80 61 00
        E 50 90 18 60
        E 0 90 24 60
        E 0 90 60 60
        E 0 90 64 60
        E 30 80 18 00
        E 0 80 24 00
        E 0 80 60 00
        E 0 80 64 00
        E 50 90 18 60
        E 0 90 2b 60
        E 0 90 54 60
        E 0 90 57 60
        E 0 90 60 60
        E 0 90 63 60
        E 30 80 18 00
        E 0 80 2b 00
        E 0 80 54 00
        E 0 80 57 00
        E 0 80 60 00
        E 0 80 63 00
        E 50 90 18 60
        E 0 90 24 60
        E 0 90 60 60
        E 0 90 64 60
        E 30 80 18 00
        E 0 80 24 00
        E 0 80 60 00
        E 0 80 64 00
        E 50 90 18 60
        E 0 90 2b 60
        E 0 90 60 60
        E 0 90 63 60
        E 30 80 18 00
        E 0 80 2b 00
        E 0 80 60 00
        E 0 80 63 00
        E 50 90 18 60
        E 0 90 24 60
        E 0 90 40 60
        E 0 90 48 60
        E 0 90 4c 60
        E 0 90 54 60
        E 0 90 58 60
        E 0 90 60 60
        E 0 90 64 60
        E 0 90 74 60
        E 30 80 18 00
        E 0 80 24 00
        E 0 80 40 00
        E 0 80 48 00
        E 0 80 4c 00
        E 0 80 54 00
        E 0 80 58 00
        E 0 80 60 00
        E 0 80 64 00
        E 130 90 1e 60
        E 0 90 62 60
        E 30 80 1e 00
        E 0 80 62 00
        E 50 90 1b 60
        E 0 90 55 60
        E 0 90 61 60
        E 30 80 1b 00
        E 0 80 55 00
        E 0 80 61 00
        E 50 90 18 60
        E 0 90 1e 60
        E 0 90 60 60
        E 0 90 62 60
        E 30 80 18 00
        E 0 80 1e 00
        E 0 80 60 00
        E 0 80 62 00
        E 50 90 18 60
        E 0 90 60 60
        E 30 80 18 00
        E 0 80 60 00
        E 50 90 1a 60
        E 0 90 1f 60
        E 0 90 3d 60
        E 0 90 49 60
        E 0 90 4a 60
        E 0 90 55 60
        E 0 90 56 60
        E 0 90 61 60
        E 0 90 62 60
        E 30 80 1a 00
        E 0 80 1f 00
        E 0 80 3d 00
        E 0 80 49 00
        E 0 80 4a 00
        E 0 80 55 00
        E 0 80 56 00
        E 0 80 61 00
        E 0 80 62 00
        E 130 90 1e 60
        E 0 90 62 60
        E 30 80 1e 00
        E 0 80 62 00
        E 50 90 1b 60
        E 0 90 55 60
        E 0 90 61 60
        E 30 80 1b 00
        E 0 80 55 00
        E 0 80 61 00
        E 50 90 18 60
        E 0 90 1e 60
        E 0 90 60 60
        E 0 90 62 60
        E 30 80 18 00
        E 0 80 1e 00
        E 0 80 60 00
        E 0 80 62 00
        E 130 90 18 60
        E 0 90 1f 60
        E 0 90 3e 60
        E 0 90 48 60
        E 0 90 4a 60
        E 0 90 54 60
        E 0 90 56 60
        E 0 90 60 60
        E 0 90 62 60
        E 30 80 18 00
        E 0 80 1f 00
        E 0 80 3e 00
        E 0 80 48 00
        E 0 80 4a 00
        E 0 80 54 00
        E 0 80 56 00
        E 0 80 60 00
        E 0 80 62 00
        E 130 90 1e 60
        E 0 90 62 60
        E 30 80 1e 00
        E 0 80 62 00
        E 50 90 1b 60
        E 0 90 55 60
        E 0 90 61 60
        E 30 80 1b 00
        E 0 80 55 00
        E 0 80 61 00
        E 50 90 18 60
        E 0 90 1e 60
        E 0 90 60 60
        E 0 90 62 60
        E 30 80 18 00
        E 0 80 1e 00
        E 0 80 60 00
        E 0 80 62 00
        E 50 90 18 60
        E 0 90 60 60
        E 30 80 18 00
        E 0 80 60 00
        E 50 90 1a 60
        E 0 90 1f 60
        E 0 90 3d 60
        E 0 90 49 60
        E 0 90 4a 60
        E 0 90 55 60
        E 0 90 56 60
        E 0 90 61 60
        E 0 90 62 60
        E 30 80 1a 00
        E 0 80 1f 00
        E 0 80 3d 00
        E 0 80 49 00
        E 0 80 4a 00
        E 0 80 55 00
        E 0 80 56 00
        E 0 80 61 00
        E 0 80 62 00
        E 130 90 18 60
        E 0 90 1e 60
        E 0 90 60 60
        E 0 90 62 60
        E 30 80 18 00
        E 0 80 1e 00
        E 0 80 60 00
        E 0 80 62 00
        E 50 90 1b 60
        E 0 90 55 60
        E 0 90 61 60
        E 30 80 1b 00
        E 0 80 55 00
        E 0 80 61 00
        E 50 90 1e 60
        E 0 90 62 60
        E 30 80 1e 00
        E 0 80 62 00
        E 130 80 74 00
        E 0 90 18 60
        E 0 90 24 60
        E 0 90 40 60
        E 0 90 48 60
        E 0 90 4c 60
        E 0 90 54 60
        E 0 90 58 60
        E 0 90 60 60
        E 0 90 64 60
        E 30 80 18 00
        E 0 80 24 00
        E 0 80 40 00
        E 0 80 48 00
        E 0 80 4c 00
        E 0 80 54 00
        E 0 80 58 00
        E 0 80 60 00
        E 0 80 64 00
        E 130 90 1e 60
        E 0 90 62 60
        E 30 80 1e 00
        E 0 80 62 00
        E 50 90 1b 60
        E 0 90 55 60
        E 0 90 61 60
        E 30 80 1b 00
        E 0 80 55 00
        E 0 80 61 00
        E 50 90 18 60
        E 0 90 1e 60
        E 0 90 60 60
        E 0 90 62 60
        E 30 80 18 00
        E 0 80 1e 00
        E 0 80 60 00
        E 0 80 62 00
        E 50 90 18 60
        E 0 90 60 60
        E 30 80 18 00
        E 0 80 60 00
        E 50 90 1a 60
        E 0 90 1f 60
        E 0 90 3d 60
        E 0 90 49 60
        E 0 90 4a 60
        E 0 90 55 60
        E 0 90 56 60
        E 0 90 61 60
        E 0 90 62 60
        E 30 80 1a 00
        E 0 80 1f 00
        E 0 80 3d 00
        E 0 80 49 00
        E 0 80 4a 00
        E 0 80 55 00
        E 0 80 56 00
        E 0 80 61 00
        E 0 80 62 00
        E 130 90 1e 60
        E 0 90 62 60
        E 30 80 1e 00
        E 0 80 62 00
        E 50 90 1b 60
        E 0 90 55 60
        E 0 90 61 60
        E 30 80 1b 00
        E 0 80 55 00
        E 0 80 61 00
        E 50 90 18 60
        E 0 90 1e 60
        E 0 90 60 60
        E 0 90 62 60
        E 30 80 18 00
        E 0 80 1e 00
        E 0 80 60 00
        E 0 80 62 00
        E 130 90 18 60
        E 0 90 1f 60
        E 0 90 3e 60
        E 0 90 48 60
        E 0 90 4a 60
        E 0 90 54 60
        E 0 90 56 60
        E 0 90 60 60
        E 0 90 62 60
        E 30 80 18 00
        E 0 80 1f 00
        E 0 80 3e 00
        E 0 80 48 00
        E 0 80 4a 00
        E 0 80 54 00
        E 0 80 56 00
        E 0 80 60 00
        E 0 80 62 00
        E 50 90 1a 60
        E 0 90 61 60
        E 30 80 1a 00
        E 0 80 61 00
        E 50 90 1b 60
        E 0 90 61 60
        E 30 80 1b 00
        E 0 80 61 00
        E 23 90 1a 60
        E 0 90 61 60
        E 30 80 1a 00
        E 0 80 61 00
        E 24 90 1b 60
        E 0 90 61 60
        E 30 80 1b 00
        E 0 80 61 00
        E 23 90 1a 60
        E 0 90 61 60
        E 30 80 1a 00
        E 0 80 61 00
        E 50 90 1b 60
        E 0 90 61 60
        E 30 80 1b 00
        E 0 80 61 00
        E 50 90 18 60
        E 0 90 22 60
        E 0 90 40 60
        E 0 90 48 60
        E 0 90 4c 60
        E 0 90 54 60
        E 0 90 58 60
        E 0 90 60 60
        E 0 90 64 60
        E 30 80 18 00
        E 0 80 22 00
        E 0 80 40 00
        E 0 80 48 00
        E 0 80 4c 00
        E 0 80 54 00
        E 0 80 58 00
        E 0 80 60 00
        E 0 80 64 00
        E 50 90 1b 60
        E 0 90 61 60
        E 30 80 1b 00
        E 0 80 61 00
        E 50 90 1a 60
        E 0 90 61 60
        E 30 80 1a 00
        E 0 80 61 00
        E 50 90 1b 60
        E 0 90 55 60
        E 0 90 61 60
        E 30 80 1b 00
        E 0 80 55 00
        E 0 80 61 00
        E 50 90 1a 60
        E 0 90 61 60
        E 30 80 1a 00
        E 0 80 61 00
        E 50 90 1b 60
        E 0 90 61 60
        E 30 80 1b 00
        E 0 80 61 00
        E 50 90 18 60
        E 0 90 22 60
        E 0 90 40 60
        E 0 90 48 60
        E 0 90 4c 60
        E 0 90 54 60
        E 0 90 58 60
        E 0 90 60 60
        E 0 90 64 60
        E 30 80 18 00
        E 0 80 22 00
        E 0 80 40 00
        E 0 80 48 00
        E 0 80 4c 00
        E 0 80 54 00
        E 0 80 58 00
        E 0 80 60 00
        E 0 80 64 00
        E 929 90 78 60
        E 0 90 79 60
        E 0 90 7a 60
        E 0 90 7b 60
        E 0 90 7c 60
        E 961 80 78 00
        E 0 80 79 00
        E 0 80 7a 00
        E 0 80 7b 00
        E 0 80 7c 00
        E 0 90 2e 60
        E 0 90 31 60
        E 0 90 3e 60
        E 0 90 3f 60
        E 0 90 4a 60
        E 0 90 4b 60
        E 0 90 56 60
        E 0 90 57 60
        E 0 90 62 60
        E 0 90 63 60
        E 0 90 6e 60
        E 0 90 6f 60
        E 30 80 2e 00
        E 0 80 31 00
        E 0 80 3e 00
        E 0 80 3f 00
        E 0 80 4a 00
        E 0 80 4b 00
        E 0 80 56 00
        E 0 80 57 00
        E 0 80 62 00
        E 0 80 63 00
        E 0 80 6e 00
        E 0 80 6f 00
        E 130 90 2e 60
        E 0 90 62 60
        E 0 90 6e 60
        E 30 80 2e 00
        E 0 80 62 00
        E 0 80 6e 00
        E 50 90 2f 60
        E 0 90 56 60
        E 0 90 62 60
        E 0 90 6e 60
        E 30 80 2f 00
        E 0 80 56 00
        E 0 80 62 00
        E 0 80 6e 00
        E 50 90 2e 60
        E 0 90 62 60
        E 0 90 6e 60
        E 30 80 2e 00
        E 0 80 62 00
        E 0 80 6e 00
        E 50 90 2f 60
        E 0 90 62 60
        E 0 90 6e 60
        E 30 80 2f 00
        E 0 80 62 00
        E 0 80 6e 00
        E 50 90 2e 60
        E 0 90 3e 60
        E 0 90 4a 60
        E 0 90 56 60
        E 0 90 62 60
        E 0 90 6e 60
        E 30 80 2e 00
        E 0 80 3e 00
        E 0 80 4a 00
        E 0 80 56 00
        E 0 80 62 00
        E 0 80 6e 00
        E 50 90 2f 60
        E 0 90 62 60
        E 0 90 6e 60
        E 30 80 2f 00
        E 0 80 62 00
        E 0 80 6e 00
        E 50 90 30 60
        E 0 90 63 60
        E 0 90 6f 60
        E 30 80 30 00
        E 0 80 63 00
        E 0 80 6f 00
        E 50 90 2f 60
        E 0 90 56 60
        E 0 90 62 60
        E 0 90 6e 60
        E 30 80 2f 00
        E 0 80 56 00
        E 0 80 62 00
        E 0 80 6e 00
        E 50 90 2e 60
        E 0 90 62 60
        E 0 90 6e 60
        E 30 80 2e 00
        E 0 80 62 00
        E 0 80 6e 00
        E 50 90 2f 60
        E 0 90 62 60
        E 0 90 6e 60
        E 30 80 2f 00
        E 0 80 62 00
        E 0 80 6e 00
        E 50 90 30 60
        E 0 90 3f 60
        E 0 90 4b 60
        E 0 90 57 60
        E 0 90 63 60
        E 0 90 6f 60
        E 30 80 30 00
        E 0 80 3f 00
        E 0 80 4b 00
        E 0 80 57 00
        E 0 80 63 00
        E 0 80 6f 00
        E 50 90 31 60
        E 0 90 63 60
        E 0 90 6f 60
        E 30 80 31 00
        E 0 80 63 00
        E 0 80 6f 00
        E 50 90 32 60
        E 0 90 64 60
        E 0 90 70 60
        E 30 80 32 00
        E 0 80 64 00
        E 0 80 70 00
        E 50 90 31 60
        E 0 90 57 60
        E 0 90 63 60
        E 0 90 6f 60
        E 30 80 31 00
        E 0 80 57 00
        E 0 80 63 00
        E 0 80 6f 00
        E 49 90 30 60
        E 0 90 63 60
        E 0 90 6f 60
        E 30 80 30 00
        E 0 80 63 00
        E 0 80 6f 00
        E 50 90 31 60
        E 0 90 63 60
        E 0 90 6f 60
        E 30 80 31 00
        E 0 80 63 00
        E 0 80 6f 00
        E 51 90 30 60
        E 0 90 3f 60
        E 0 90 4b 60
        E 0 90 57 60
        E 0 90 63 60
        E 0 90 6f 60
        E 30 80 30 00
        E 0 80 3f 00
        E 0 80 4b 00
        E 0 80 57 00
        E 0 80 63 00
        E 0 80 6f 00
        E 50 90 31 60
        E 0 90 63 60
        E 0 90 6f 60
        E 30 80 31 00
        E 0 80 63 00
        E 0 80 6f 00
        E 50 90 32 60
        E 0 90 64 60
        E 0 90 70 60
        E 30 80 32 00
        E 0 80 64 00
        E 0 80 70 00
        E 50 90 33 60
        E 0 90 58 60
        E 0 90 64 60
        E 0 90 70 60
        E 30 80 33 00
        E 0 80 58 00
        E 0 80 64 00
        E 0 80 70 00
        E 50 90 32 60
        E 0 90 64 60
        E 0 90 70 60
        E 30 80 32 00
        E 0 80 64 00
        E 0 80 70 00
        E 50 90 33 60
        E 0 90 64 60
        E 0 90 70 60
        E 30 80 33 00
        E 0 80 64 00
        E 0 80 70 00
        E 50 90 18 60
        E 0 90 32 60
        E 0 90 40 60
        E 0 90 4c 60
        E 0 90 54 60
        E 0 90 58 60
        E 0 90 60 60
        E 0 90 64 60
        E 0 90 70 60
        E 30 80 18 00
        E 0 80 32 00
        E 0 80 40 00
        E 0 80 4c 00
        E 0 80 54 00
        E 0 80 58 00
        E 0 80 60 00
        E 0 80 64 00
        E 0 80 70 00
        E 930 90 18 60
        E 0 90 1a 60
        E 0 90 31 60
        E 0 90 3d 60
        E 0 90 49 60
        E 0 90 4b 60
        E 0 90 54 60
        E 0 90 55 60
        E 0 90 57 60
        E 0 90 60 60
        E 0 90 61 60
        E 0 90 63 60
        E 0 90 6f 60
        E 30 80 18 00
        E 0 80 1a 00
        E 0 80 31 00
        E 0 80 3d 00
        E 0 80 49 00
        E 0 80 4b 00
        E 0 80 54 00
        E 0 80 55 00
        E 0 80 57 00
        E 0 80 60 00
        E 0 80 61 00
        E 0 80 63 00
        E 0 80 6f 00
        E 130 90 18 60
        E 0 90 1a 60
        E 0 90 31 60
        E 0 90 60 60
        E 0 90 61 60
        E 0 90 63 60
        E 0 90 6f 60
        E 30 80 18 00
        E 0 80 1a 00
        E 0 80 31 00
        E 0 80 60 00
        E 0 80 61 00
        E 0 80 63 00
        E 0 80 6f 00
        E 130 90 18 60
        E 0 90 1a 60
        E 0 90 31 60
        E 0 90 60 60
        E 0 90 61 60
        E 0 90 63 60
        E 0 90 6f 60
        E 30 80 18 00
        E 0 80 1a 00
        E 0 80 31 00
        E 0 80 60 00
        E 0 80 61 00
        E 0 80 63 00
        E 0 80 6f 00
        E 130 90 18 60
        E 0 90 1a 60
        E 0 90 31 60
        E 0 90 3d 60
        E 0 90 49 60
        E 0 90 4b 60
        E 0 90 54 60
        E 0 90 55 60
        E 0 90 57 60
        E 0 90 60 60
        E 0 90 61 60
        E 0 90 63 60
        E 0 90 6f 60
        E 30 80 18 00
        E 0 80 1a 00
        E 0 80 31 00
        E 0 80 3d 00
        E 0 80 49 00
        E 0 80 4b 00
        E 0 80 54 00
        E 0 80 55 00
        E 0 80 57 00
        E 0 80 60 00
        E 0 80 61 00
        E 0 80 63 00
        E 0 80 6f 00
        E 130 90 18 60
        E 0 90 1a 60
        E 0 90 31 60
        E 0 90 60 60
        E 0 90 61 60
        E 0 90 63 60
        E 0 90 6f 60
        E 30 80 18 00
        E 0 80 1a 00
        E 0 80 31 00
        E 0 80 60 00
        E 0 80 61 00
        E 0 80 63 00
        E 0 80 6f 00
        E 130 90 18 60
        E 0 90 1a 60
        E 0 90 31 60
        E 0 90 60 60
        E 0 90 61 60
        E 0 90 63 60
        E 0 90 6f 60
        E 30 80 18 00
        E 0 80 1a 00
        E 0 80 31 00
        E 0 80 60 00
        E 0 80 61 00
        E 0 80 63 00
        E 0 80 6f 00
        E 130 90 18 60
        E 0 90 1a 60
        E 0 90 31 60
        E 0 90 3d 60
        E 0 90 49 60
        E 0 90 4b 60
        E 0 90 54 60
        E 0 90 55 60
        E 0 90 57 60
        E 0 90 60 60
        E 0 90 61 60
        E 0 90 63 60
        E 0 90 6f 60
        E 30 80 18 00
        E 0 80 1a 00
        E 0 80 31 00
        E 0 80 3d 00
        E 0 80 49 00
        E 0 80 4b 00
        E 0 80 54 00
        E 0 80 55 00
        E 0 80 57 00
        E 0 80 60 00
        E 0 80 61 00
        E 0 80 63 00
        E 0 80 6f 00
        E 130 90 18 60
        E 0 90 1a 60
        E 0 90 31 60
        E 0 90 60 60
        E 0 90 61 60
        E 0 90 63 60
        E 0 90 6f 60
        E 30 80 18 00
        E 0 80 1a 00
        E 0 80 31 00
        E 0 80 60 00
        E 0 80 61 00
        E 0 80 63 00
        E 0 80 6f 00
        E 130 90 18 60
        E 0 90 1a 60
        E 0 90 31 60
        E 0 90 60 60
        E 0 90 61 60
        E 0 90 63 60
        E 0 90 6f 60
        E 30 80 18 00
        E 0 80 1a 00
        E 0 80 31 00
        E 0 80 60 00
        E 0 80 61 00
        E 0 80 63 00
        E 0 80 6f 00
        E 130 90 18 60
        E 0 90 1a 60
        E 0 90 31 60
        E 0 90 3d 60
        E 0 90 49 60
        E 0 90 4b 60
        E 0 90 54 60
        E 0 90 55 60
        E 0 90 57 60
        E 0 90 60 60
        E 0 90 61 60
        E 0 90 63 60
        E 0 90 6f 60
        E 30 80 18 00
        E 0 80 1a 00
        E 0 80 31 00
        E 0 80 3d 00
        E 0 80 49 00
        E 0 80 4b 00
        E 0 80 54 00
        E 0 80 55 00
        E 0 80 57 00
        E 0 80 60 00
        E 0 80 61 00
        E 0 80 63 00
        E 0 80 6f 00
        E 130 90 18 60
        E 0 90 1a 60
        E 0 90 31 60
        E 0 90 60 60
        E 0 90 61 60
        E 0 90 63 60
        E 0 90 6f 60
        E 30 80 18 00
        E 0 80 1a 00
        E 0 80 31 00
        E 0 80 60 00
        E 0 80 61 00
        E 0 80 63 00
        E 0 80 6f 00
        E 130 90 18 60
        E 0 90 1a 60
        E 0 90 31 60
        E 0 90 60 60
        E 0 90 61 60
        E 0 90 63 60
        E 0 90 6f 60
        E 30 80 18 00
        E 0 80 1a 00
        E 0 80 31 00
        E 0 80 60 00
        E 0 80 61 00
        E 0 80 63 00
        E 0 80 6f 00
        E 130 90 1b 60
        E 0 90 3d 60
        E 0 90 49 60
        E 0 90 55 60
        E 0 90 61 60
        E 0 90 78 60
        E 0 90 79 60
        E 0 90 7a 60
        E 0 90 7b 60
        E 0 90 7c 60
        E 30 80 1b 00
        E 0 80 3d 00
        E 0 80 49 00
        E 0 80 55 00
        E 0 80 61 00
        E 24 90 1a 60
        E 0 90 61 60
        E 30 80 1a 00
        E 0 80 61 00
        E 23 90 1b 60
        E 0 90 61 60
        E 30 80 1b 00
        E 0 80 61 00
        E 23 90 1a 60
        E 0 90 61 60
        E 30 80 1a 00
        E 0 80 61 00
        E 50 90 1b 60
        E 0 90 55 60
        E 0 90 61 60
        E 30 80 1b 00
        E 0 80 55 00
        E 0 80 61 00
        E 50 90 2e 60
        E 0 90 62 60
        E 0 90 6e 60
        E 30 80 2e 00
        E 0 80 62 00
        E 0 80 6e 00
        E 50 90 1b 60
        E 0 90 61 60
        E 30 80 1b 00
        E 0 80 61 00
        E 50 90 1a 60
        E 0 90 3d 60
        E 0 90 49 60
        E 0 90 55 60
        E 0 90 61 60
        E 30 80 1a 00
        E 0 80 3d 00
        E 0 80 49 00
        E 0 80 55 00
        E 0 80 61 00
        E 50 90 1b 60
        E 0 90 61 60
        E 30 80 1b 00
        E 0 80 61 00
        E 50 90 2e 60
        E 0 90 62 60
        E 0 90 6e 60
        E 30 80 2e 00
        E 0 80 62 00
        E 0 80 6e 00
        E 50 90 2f 60
        E 0 90 56 60
        E 0 90 62 60
        E 0 90 6e 60
        E 30 80 2f 00
        E 0 80 56 00
        E 0 80 62 00
        E 0 80 6e 00
        E 50 90 30 60
        E 0 90 63 60
        E 0 90 6f 60
        E 30 80 30 00
        E 0 80 63 00
        E 0 80 6f 00
        E 50 90 31 60
        E 0 90 63 60
        E 0 90 6f 60
        E 30 80 31 00
        E 0 80 63 00
        E 0 80 6f 00
        E 50 90 18 60
        E 0 90 22 60
        E 0 90 40 60
        E 0 90 48 60
        E 0 90 4c 60
        E 0 90 54 60
        E 0 90 58 60
        E 0 90 60 60
        E 0 90 64 60
        E 1 80 78 00
        E 0 80 79 00
        E 0 80 7a 00
        E 0 80 7b 00
        E 0 80 7c 00
        E 29 80 18 00
        E 0 80 22 00
        E 0 80 40 00
        E 0 80 48 00
        E 0 80 4c 00
        E 0 80 54 00
        E 0 80 58 00
        E 0 80 60 00
        E 0 80 64 00
        E 130 90 2a 60
        E 0 90 63 60
        E 30 80 2a 00
        E 0 80 63 00
        E 50 90 1a 60
        E 0 90 55 60
        E 0 90 61 60
        E 30 80 1a 00
        E 0 80 55 00
        E 0 80 61 00
        E 50 90 2a 60
        E 0 90 63 60
        E 30 80 2a 00
        E 0 80 63 00
        E 50 90 18 60
        E 0 90 60 60
        E 30 80 18 00
        E 0 80 60 00
        E 50 90 1a 60
        E 0 90 24 60
        E 0 90 3d 60
        E 0 90 49 60
        E 0 90 4c 60
        E 0 90 55 60
        E 0 90 58 60
        E 0 90 61 60
        E 0 90 64 60
        E 30 80 1a 00
        E 0 80 24 00
        E 0 80 3d 00
        E 0 80 49 00
        E 0 80 4c 00
        E 0 80 55 00
        E 0 80 58 00
        E 0 80 61 00
        E 0 80 64 00
        E 130 90 2b 60
        E 0 90 63 60
        E 30 80 2b 00
        E 0 80 63 00
        E 50 90 1b 60
        E 0 90 55 60
        E 0 90 61 60
        E 30 80 1b 00
        E 0 80 55 00
        E 0 80 61 00
        E 50 90 18 60
        E 0 90 2b 60
        E 0 90 60 60
        E 0 90 63 60
        E 30 80 18 00
        E 0 80 2b 00
        E 0 80 60 00
        E 0 80 63 00
        E 50 90 1b 60
        E 0 90 61 60
        E 30 80 1b 00
        E 0 80 61 00
        E 50 90 18 60
        E 0 90 2b 60
        E 0 90 3f 60
        E 0 90 48 60
        E 0 90 4b 60
        E 0 90 54 60
        E 0 90 57 60
        E 0 90 60 60
        E 0 90 63 60
        E 30 80 18 00
        E 0 80 2b 00
        E 0 80 3f 00
        E 0 80 48 00
        E 0 80 4b 00
        E 0 80 54 00
        E 0 80 57 00
        E 0 80 60 00
        E 0 80 63 00
        E 50 90 1b 60
        E 0 90 61 60
        E 30 80 1b 00
        E 0 80 61 00
        E 50 90 18 60
        E 0 90 2b 60
        E 0 90 60 60
        E 0 90 63 60
        E 30 80 18 00
        E 0 80 2b 00
        E 0 80 60 00
        E 0 80 63 00
        E 50 90 1b 60
        E 0 90 55 60
        E 0 90 61 60
        E 30 80 1b 00
        E 0 80 55 00
        E 0 80 61 00
        E 49 90 2b 60
        E 0 90 63 60
        E 30 80 2b 00
        E 0 80 63 00
        E 50 90 18 60
        E 0 90 60 60
        E 30 80 18 00
        E 0 80 60 00
        E 10 90 18 60
        E 0 90 60 60
        E 30 80 18 00
        E 0 80 60 00
        E 11 90 1a 60
        E 0 90 2a 60
        E 0 90 3d 60
        E 0 90 49 60
        E 0 90 4b 60
        E 0 90 55 60
        E 0 90 57 60
        E 0 90 61 60
        E 0 90 63 60
        E 30 80 1a 00
        E 0 80 2a 00
        E 0 80 3d 00
        E 0 80 49 00
        E 0 80 4b 00
        E 0 80 55 00
        E 0 80 57 00
        E 0 80 61 00
        E 0 80 63 00
        E 130 90 2b 60
        E 0 90 63 60
        E 30 80 2b 00
        E 0 80 63 00
        E 50 90 1b 60
        E 0 90 55 60
        E 0 90 61 60
        E 30 80 1b 00
        E 0 80 55 00
        E 0 80 61 00
        E 50 90 18 60
        E 0 90 2b 60
        E 0 90 60 60
        E 0 90 63 60
        E 30 80 18 00
        E 0 80 2b 00
        E 0 80 60 00
        E 0 80 63 00
        E 50 90 1b 60
        E 0 90 61 60
        E 30 80 1b 00
        E 0 80 61 00
        E 50 90 18 60
        E 0 90 2b 60
        E 0 90 3f 60
        E 0 90 48 60
        E 0 90 4b 60
        E 0 90 54 60
        E 0 90 57 60
        E 0 90 60 60
        E 0 90 63 60
        E 30 80 18 00
        E 0 80 2b 00
        E 0 80 3f 00
        E 0 80 48 00
        E 0 80 4b 00
        E 0 80 54 00
        E 0 80 57 00
        E 0 80 60 00
        E 0 80 63 00
        E 50 90 1b 60
        E 0 90 61 60
        E 30 80 1b 00
        E 0 80 61 00
        E 50 90 18 60
        E 0 90 2b 60
        E 0 90 60 60
        E 0 90 63 60
        E 30 80 18 00
        E 0 80 2b 00
        E 0 80 60 00
        E 0 80 63 00
        E 50 90 1b 60
        E 0 90 55 60
        E 0 90 61 60
        E 30 80 1b 00
        E 0 80 55 00
        E 0 80 61 00
        E 49 90 2b 60
        E 0 90 63 60
        E 30 80 2b 00
        E 0 80 63 00
        E 50 90 18 60
        E 0 90 60 60
        E 30 80 18 00
        E 0 80 60 00
        E 10 90 18 60
        E 0 90 60 60
        E 30 80 18 00
        E 0 80 60 00
        E 11 90 1a 60
        E 0 90 2a 60
        E 0 90 3d 60
        E 0 90 49 60
        E 0 90 4b 60
        E 0 90 55 60
        E 0 90 57 60
        E 0 90 61 60
        E 0 90 63 60
        E 30 80 1a 00
        E 0 80 2a 00
        E 0 80 3d 00
        E 0 80 49 00
        E 0 80 4b 00
        E 0 80 55 00
        E 0 80 57 00
        E 0 80 61 00
        E 0 80 63 00
        E 130 90 2b 60
        E 0 90 63 60
        E 30 80 2b 00
        E 0 80 63 00
        E 50 90 1b 60
        E 0 90 55 60
        E 0 90 61 60
        E 30 80 1b 00
        E 0 80 55 00
        E 0 80 61 00
        E 50 90 18 60
        E 0 90 2b 60
        E 0 90 60 60
        E 0 90 63 60
        E 30 80 18 00
        E 0 80 2b 00
        E 0 80 60 00
        E 0 80 63 00
        E 50 90 1b 60
        E 0 90 61 60
        E 30 80 1b 00
        E 0 80 61 00
        E 50 90 18 60
        E 0 90 2b 60
        E 0 90 3f 60
        E 0 90 48 60
        E 0 90 4b 60
        E 0 90 54 60
        E 0 90 57 60
        E 0 90 60 60
        E 0 90 63 60
        E 30 80 18 00
        E 0 80 2b 00
        E 0 80 3f 00
        E 0 80 48 00
        E 0 80 4b 00
        E 0 80 54 00
        E 0 80 57 00
        E 0 80 60 00
        E 0 80 63 00
        E 50 90 1b 60
        E 0 90 61 60
        E 30 80 1b 00
        E 0 80 61 00
        E 50 90 18 60
        E 0 90 2b 60
        E 0 90 60 60
        E 0 90 63 60
        E 30 80 18 00
        E 0 80 2b 00
        E 0 80 60 00
        E 0 80 63 00
        E 50 90 1b 60
        E 0 90 55 60
        E 0 90 61 60
        E 30 80 1b 00
        E 0 80 55 00
        E 0 80 61 00
        E 50 90 2b 60
        E 0 90 63 60
        E 30 80 2b 00
        E 0 80 63 00
        E 50 90 18 60
        E 0 90 60 60
        E 30 80 18 00
        E 0 80 60 00
        E 10 90 18 60
        E 0 90 60 60
        E 30 80 18 00
        E 0 80 60 00
        E 10 90 1a 60
        E 0 90 2a 60
        E 0 90 3d 60
        E 0 90 49 60
        E 0 90 4b 60
        E 0 90 55 60
        E 0 90 57 60
        E 0 90 61 60
        E 0 90 63 60
        E 30 80 1a 00
        E 0 80 2a 00
        E 0 80 3d 00
        E 0 80 49 00
        E 0 80 4b 00
        E 0 80 55 00
        E 0 80 57 00
        E 0 80 61 00
        E 0 80 63 00
        E 130 90 1a 60
        E 0 90 61 60
        E 30 80 1a 00
        E 0 80 61 00
        E 50 90 1b 60
        E 0 90 55 60
        E 0 90 61 60
        E 30 80 1b 00
        E 0 80 55 00
        E 0 80 61 00
        E 130 90 1a 60
        E 0 90 61 60
        E 30 80 1a 00
        E 0 80 61 00
        E 50 90 1b 60
        E 0 90 3d 60
        E 0 90 49 60
        E 0 90 55 60
        E 0 90 61 60
        E 30 80 1b 00
        E 0 80 3d 00
        E 0 80 49 00
        E 0 80 55 00
        E 0 80 61 00
        E 50 90 1a 60
        E 0 90 61 60
        E 30 80 1a 00
        E 0 80 61 00
        E 50 90 2f 60
        E 0 90 62 60
        E 0 90 6e 60
        E 30 80 2f 00
        E 0 80 62 00
        E 0 80 6e 00
        E 50 90 2e 60
        E 0 90 56 60
        E 0 90 62 60
        E 0 90 6e 60
        E 30 80 2e 00
        E 0 80 56 00
        E 0 80 62 00
        E 0 80 6e 00
        E 50 90 31 60
        E 0 90 63 60
        E 0 90 6f 60
        E 30 80 31 00
        E 0 80 63 00
        E 0 80 6f 00
        E 50 90 18 60
        E 0 90 60 60
        E 30 80 18 00
        E 0 80 60 00
        E 50 90 1a 60
        E 0 90 24 60
        E 0 90 3d 60
        E 0 90 49 60
        E 0 90 4c 60
        E 0 90 55 60
        E 0 90 58 60
        E 0 90 61 60
        E 0 90 64 60
        E 30 80 1a 00
        E 0 80 24 00
        E 0 80 3d 00
        E 0 80 49 00
        E 0 80 4c 00
        E 0 80 55 00
        E 0 80 58 00
        E 0 80 61 00
        E 0 80 64 00
        E 130 90 2b 60
        E 0 90 63 60
        E 30 80 2b 00
        E 0 80 63 00
        E 50 90 1b 60
        E 0 90 55 60
        E 0 90 61 60
        E 30 80 1b 00
        E 0 80 55 00
        E 0 80 61 00
        E 50 90 18 60
        E 0 90 2b 60
        E 0 90 60 60
        E 0 90 63 60
        E 30 80 18 00
        E 0 80 2b 00
        E 0 80 60 00
        E 0 80 63 00
        E 50 90 1b 60
        E 0 90 61 60
        E 30 80 1b 00
        E 0 80 61 00
        E 50 90 18 60
        E 0 90 2b 60
        E 0 90 3f 60
        E 0 90 48 60
        E 0 90 4b 60
        E 0 90 54 60
        E 0 90 57 60
        E 0 90 60 60
        E 0 90 63 60
        E 30 80 18 00
        E 0 80 2b 00
        E 0 80 3f 00
        E 0 80 48 00
        E 0 80 4b 00
        E 0 80 54 00
        E 0 80 57 00
        E 0 80 60 00
        E 0 80 63 00
        E 50 90 1b 60
        E 0 90 61 60
        E 30 80 1b 00
        E 0 80 61 00
        E 50 90 18 60
        E 0 90 2b 60
        E 0 90 60 60
        E 0 90 63 60
        E 30 80 18 00
        E 0 80 2b 00
        E 0 80 60 00
        E 0 80 63 00
        E 50 90 1b 60
        E 0 90 55 60
        E 0 90 61 60
        E 30 80 1b 00
        E 0 80 55 00
        E 0 80 61 00
        E 49 90 2b 60
        E 0 90 63 60
        E 30 80 2b 00
        E 0 80 63 00
        E 50 90 18 60
        E 0 90 60 60
        E 30 80 18 00
        E 0 80 60 00
        E 10 90 18 60
        E 0 90 60 60
        E 30 80 18 00
        E 0 80 60 00
        E 11 90 1a 60
        E 0 90 2a 60
        E 0 90 3d 60
        E 0 90 49 60
        E 0 90 4b 60
        E 0 90 55 60
        E 0 90 57 60
        E 0 90 61 60
        E 0 90 63 60
        E 30 80 1a 00
        E 0 80 2a 00
        E 0 80 3d 00
        E 0 80 49 00
        E 0 80 4b 00
        E 0 80 55 00
        E 0 80 57 00
        E 0 80 61 00
        E 0 80 63 00
        E 130 90 2b 60
        E 0 90 63 60
        E 30 80 2b 00
        E 0 80 63 00
        E 50 90 1b 60
        E 0 90 55 60
        E 0 90 61 60
        E 30 80 1b 00
        E 0 80 55 00
        E 0 80 61 00
        E 50 90 18 60
        E 0 90 2b 60
        E 0 90 60 60
        E 0 90 63 60
        E 30 80 18 00
        E 0 80 2b 00
        E 0 80 60 00
        E 0 80 63 00
        E 50 90 1b 60
        E 0 90 61 60
        E 30 80 1b 00
        E 0 80 61 00
        E 50 90 18 60
        E 0 90 2b 60
        E 0 90 3f 60
        E 0 90 48 60
        E 0 90 4b 60
        E 0 90 54 60
        E 0 90 57 60
        E 0 90 60 60
        E 0 90 63 60
        E 30 80 18 00
        E 0 80 2b 00
        E 0 80 3f 00
        E 0 80 48 00
        E 0 80 4b 00
        E 0 80 54 00
        E 0 80 57 00
        E 0 80 60 00
        E 0 80 63 00
        E 50 90 1b 60
        E 0 90 61 60
        E 30 80 1b 00
        E 0 80 61 00
        E 50 90 1a 60
        E 0 90 61 60
        E 30 80 1a 00
        E 0 80 61 00
        E 23 90 1b 60
        E 0 90 61 60
        E 30 80 1b 00
        E 0 80 61 00
        E 23 90 1a 60
        E 0 90 61 60
        E 30 80 1a 00
        E 0 80 61 00
        E 24 90 1b 60
        E 0 90 61 60
        E 30 80 1b 00
        E 0 80 61 00
        E 23 90 1a 60
        E 0 90 61 60
        E 30 80 1a 00
        E 0 80 61 00
        E 23 90 1b 60
        E 0 90 61 60
        E 30 80 1b 00
        E 0 80 61 00
        E 24 90 18 60
        E 0 90 22 60
        E 0 90 40 60
        E 0 90 48 60
        E 0 90 4c 60
        E 0 90 54 60
        E 0 90 58 60
        E 0 90 60 60
        E 0 90 64 60
        E 30 80 18 00
        E 0 80 22 00
        E 0 80 40 00
        E 0 80 48 00
        E 0 80 4c 00
        E 0 80 54 00
        E 0 80 58 00
        E 0 80 60 00
        E 0 80 64 00
        E 50 90 1b 60
        E 0 90 61 60
        E 30 80 1b 00
        E 0 80 61 00
        E 50 90 1a 60
        E 0 90 61 60
        E 30 80 1a 00
        E 0 80 61 00
        E 23 90 1b 60
        E 0 90 61 60
        E 30 80 1b 00
        E 0 80 61 00
        E 24 90 1a 60
        E 0 90 61 60
        E 30 80 1a 00
        E 0 80 61 00
        E 23 90 1b 60
        E 0 90 61 60
        E 30 80 1b 00
        E 0 80 61 00
        E 24 90 1a 60
        E 0 90 61 60
        E 30 80 1a 00
        E 0 80 61 00
        E 23 90 1b 60
        E 0 90 61 60
        E 30 80 1b 00
        E 0 80 61 00
        E 23 90 18 60
        E 0 90 22 60
        E 0 90 40 60
        E 0 90 48 60
        E 0 90 4c 60
        E 0 90 54 60
        E 0 90 58 60
        E 0 90 60 60
        E 0 90 64 60
        E 30 80 18 00
        E 0 80 22 00
        E 0 80 40 00
        E 0 80 48 00
        E 0 80 4c 00
        E 0 80 54 00
        E 0 80 58 00
        E 0 80 60 00
        E 0 80 64 00
        E 50 90 1b 60
        E 0 90 61 60
        E 30 80 1b 00
        E 0 80 61 00
        E 50 90 1a 60
        E 0 90 61 60
        E 30 80 1a 00
        E 0 80 61 00
        E 24 90 1b 60
        E 0 90 61 60
        E 30 80 1b 00
        E 0 80 61 00
        E 23 90 1a 60
        E 0 90 61 60
        E 30 80 1a 00
        E 0 80 61 00
        E 23 90 1b 60
        E 0 90 61 60
        E 30 80 1b 00
        E 0 80 61 00
        E 23 90 1a 60
        E 0 90 61 60
        E 30 80 1a 00
        E 0 80 61 00
        E 24 90 1b 60
        E 0 90 61 60
        E 30 80 1b 00
        E 0 80 61 00
        E 23 90 18 60
        E 0 90 22 60
        E 0 90 40 60
        E 0 90 48 60
        E 0 90 4c 60
        E 0 90 54 60
        E 0 90 58 60
        E 0 90 60 60
        E 0 90 64 60
        E 30 80 18 00
        E 0 80 22 00
        E 0 80 40 00
        E 0 80 48 00
        E 0 80 4c 00
        E 0 80 54 00
        E 0 80 58 00
        E 0 80 60 00
        E 0 80 64 00
        E 50 90 1b 60
        E 0 90 61 60
        E 30 80 1b 00
        E 0 80 61 00
        E 50 90 1a 60
        E 0 90 61 60
        E 30 80 1a 00
        E 0 80 61 00
        E 50 90 1b 60
        E 0 90 55 60
        E 0 90 61 60
        E 30 80 1b 00
        E 0 80 55 00
        E 0 80 61 00
        E 130 90 1a 60
        E 0 90 61 60
        E 30 80 1a 00
        E 0 80 61 00
        E 50 90 18 60
        E 0 90 24 60
        E 0 90 40 60
        E 0 90 48 60
        E 0 90 4c 60
        E 0 90 54 60
        E 0 90 58 60
        E 0 90 60 60
        E 0 90 64 60
        E 30 80 18 00
        E 0 80 24 00
        E 0 80 40 00
        E 0 80 48 00
        E 0 80 4c 00
        E 0 80 54 00
        E 0 80 58 00
        E 0 80 60 00
        E 0 80 64 00
        E 130 90 2b 60
        E 0 90 63 60
        E 30 80 2b 00
        E 0 80 63 00
        E 50 90 1b 60
        E 0 90 55 60
        E 0 90 61 60
        E 30 80 1b 00
        E 0 80 55 00
        E 0 80 61 00
        E 50 90 18 60
        E 0 90 2b 60
        E 0 90 60 60
        E 0 90 63 60
        E 30 80 18 00
        E 0 80 2b 00
        E 0 80 60 00
        E 0 80 63 00
        E 130 90 1a 60
        E 0 90 24 60
        E 0 90 3d 60
        E 0 90 49 60
        E 0 90 4c 60
        E 0 90 55 60
        E 0 90 58 60
        E 0 90 61 60
        E 0 90 64 60
        E 30 80 1a 00
        E 0 80 24 00
        E 0 80 3d 00
        E 0 80 49 00
        E 0 80 4c 00
        E 0 80 55 00
        E 0 80 58 00
        E 0 80 61 00
        E 0 80 64 00
        E 130 90 2b 60
        E 0 90 63 60
        E 30 80 2b 00
        E 0 80 63 00
        E 50 90 1b 60
        E 0 90 55 60
        E 0 90 61 60
        E 30 80 1b 00
        E 0 80 55 00
        E 0 80 61 00
        E 50 90 18 60
        E 0 90 2b 60
        E 0 90 60 60
        E 0 90 63 60
        E 30 80 18 00
        E 0 80 2b 00
        E 0 80 60 00
        E 0 80 63 00
        E 50 90 1b 60
        E 0 90 61 60
        E 30 80 1b 00
        E 0 80 61 00
        E 50 90 18 60
        E 0 90 2b 60
        E 0 90 3f 60
        E 0 90 48 60
        E 0 90 4b 60
        E 0 90 54 60
        E 0 90 57 60
        E 0 90 60 60
        E 0 90 63 60
        E 30 80 18 00
        E 0 80 2b 00
        E 0 80 3f 00
        E 0 80 48 00
        E 0 80 4b 00
        E 0 80 54 00
        E 0 80 57 00
        E 0 80 60 00
        E 0 80 63 00
        E 50 90 1b 60
        E 0 90 61 60
        E 30 80 1b 00
        E 0 80 61 00
        E 50 90 18 60
        E 0 90 2b 60
        E 0 90 60 60
        E 0 90 63 60
        E 30 80 18 00
        E 0 80 2b 00
        E 0 80 60 00
        E 0 80 63 00
        E 50 90 1b 60
        E 0 90 55 60
        E 0 90 61 60
        E 30 80 1b 00
        E 0 80 55 00
        E 0 80 61 00
        E 49 90 2b 60
        E 0 90 63 60
        E 30 80 2b 00
        E 0 80 63 00
        E 50 90 18 60
        E 0 90 60 60
        E 30 80 18 00
        E 0 80 60 00
        E 10 90 18 60
        E 0 90 60 60
        E 30 80 18 00
        E 0 80 60 00
        E 11 90 1a 60
        E 0 90 2a 60
        E 0 90 3d 60
        E 0 90 49 60
        E 0 90 4b 60
        E 0 90 55 60
        E 0 90 57 60
        E 0 90 61 60
        E 0 90 63 60
        E 30 80 1a 00
        E 0 80 2a 00
        E 0 80 3d 00
        E 0 80 49 00
        E 0 80 4b 00
        E 0 80 55 00
        E 0 80 57 00
        E 0 80 61 00
        E 0 80 63 00
        E 130 90 2b 60
        E 0 90 63 60
        E 30 80 2b 00
        E 0 80 63 00
        E 50 90 1b 60
        E 0 90 55 60
        E 0 90 61 60
        E 30 80 1b 00
        E 0 80 55 00
        E 0 80 61 00
        E 50 90 18 60
        E 0 90 2b 60
        E 0 90 60 60
        E 0 90 63 60
        E 30 80 18 00
        E 0 80 2b 00
        E 0 80 60 00
        E 0 80 63 00
        E 50 90 1b 60
        E 0 90 61 60
        E 30 80 1b 00
        E 0 80 61 00
        E 50 90 18 60
        E 0 90 2b 60
        E 0 90 3f 60
        E 0 90 48 60
        E 0 90 4b 60
        E 0 90 54 60
        E 0 90 57 60
        E 0 90 60 60
        E 0 90 63 60
        E 30 80 18 00
        E 0 80 2b 00
        E 0 80 3f 00
        E 0 80 48 00
        E 0 80 4b 00
        E 0 80 54 00
        E 0 80 57 00
        E 0 80 60 00
        E 0 80 63 00
        E 50 90 1b 60
        E 0 90 61 60
        E 30 80 1b 00
        E 0 80 61 00
        E 50 90 18 60
        E 0 90 2b 60
        E 0 90 60 60
        E 0 90 63 60
        E 30 80 18 00
        E 0 80 2b 00
        E 0 80 60 00
        E 0 80 63 00
        E 50 90 1b 60
        E 0 90 55 60
        E 0 90 61 60
        E 30 80 1b 00
        E 0 80 55 00
        E 0 80 61 00
        E 49 90 2b 60
        E 0 90 63 60
        E 30 80 2b 00
        E 0 80 63 00
        E 50 90 18 60
        E 0 90 60 60
        E 30 80 18 00
        E 0 80 60 00
        E 10 90 18 60
        E 0 90 60 60
        E 30 80 18 00
        E 0 80 60 00
        E 11 90 1a 60
        E 0 90 2a 60
        E 0 90 3d 60
        E 0 90 49 60
        E 0 90 4b 60
        E 0 90 55 60
        E 0 90 57 60
        E 0 90 61 60
        E 0 90 63 60
        E 0 90 74 60
        E 30 80 1a 00
        E 0 80 2a 00
        E 0 80 3d 00
        E 0 80 49 00
        E 0 80 4b 00
        E 0 80 55 00
        E 0 80 57 00
        E 0 80 61 00
        E 0 80 63 00
        E 130 90 2b 60
        E 0 90 63 60
        E 30 80 2b 00
        E 0 80 63 00
        E 50 90 1b 60
        E 0 90 55 60
        E 0 90 61 60
        E 30 80 1b 00
        E 0 80 55 00
        E 0 80 61 00
        E 50 90 18 60
        E 0 90 2b 60
        E 0 90 60 60
        E 0 90 63 60
        E 30 80 18 00
        E 0 80 2b 00
        E 0 80 60 00
        E 0 80 63 00
        E 50 90 1b 60
        E 0 90 61 60
        E 30 80 1b 00
        E 0 80 61 00
        E 50 90 18 60
        E 0 90 2b 60
        E 0 90 3f 60
        E 0 90 48 60
        E 0 90 4b 60
        E 0 90 54 60
        E 0 90 57 60
        E 0 90 60 60
        E 0 90 63 60
        E 30 80 18 00
        E 0 80 2b 00
        E 0 80 3f 00
        E 0 80 48 00
        E 0 80 4b 00
        E 0 80 54 00
        E 0 80 57 00
        E 0 80 60 00
        E 0 80 63 00
        E 50 90 1b 60
        E 0 90 61 60
        E 30 80 1b 00
        E 0 80 61 00
        E 50 90 18 60
        E 0 90 2b 60
        E 0 90 60 60
        E 0 90 63 60
        E 30 80 18 00
        E 0 80 2b 00
        E 0 80 60 00
        E 0 80 63 00
        E 50 90 1b 60
        E 0 90 55 60
        E 0 90 61 60
        E 30 80 1b 00
        E 0 80 55 00
        E 0 80 61 00
        E 49 90 2b 60
        E 0 90 63 60
        E 30 80 2b 00
        E 0 80 63 00
        E 50 90 18 60
        E 0 90 60 60
        E 30 80 18 00
        E 0 80 60 00
        E 10 90 18 60
        E 0 90 60 60
        E 30 80 18 00
        E 0 80 60 00
        E 11 90 1a 60
        E 0 90 2a 60
        E 0 90 3d 60
        E 0 90 49 60
        E 0 90 4b 60
        E 0 90 55 60
        E 0 90 57 60
        E 0 90 61 60
        E 0 90 63 60
        E 30 80 1a 00
        E 0 80 2a 00
        E 0 80 3d 00
        E 0 80 49 00
        E 0 80 4b 00
        E 0 80 55 00
        E 0 80 57 00
        E 0 80 61 00
        E 0 80 63 00
        E 130 90 1a 60
        E 0 90 61 60
        E 30 80 1a 00
        E 0 80 61 00
        E 50 90 1b 60
        E 0 90 55 60
        E 0 90 61 60
        E 30 80 1b 00
        E 0 80 55 00
        E 0 80 61 00
        E 50 90 1a 60
        E 0 90 61 60
        E 30 80 1a 00
        E 0 80 61 00
        E 49 90 1b 60
        E 0 90 61 60
        E 30 80 1b 00
        E 0 80 61 00
        E 51 90 1a 60
        E 0 90 3d 60
        E 0 90 49 60
        E 0 90 55 60
        E 0 90 61 60
        E 30 80 1a 00
        E 0 80 3d 00
        E 0 80 49 00
        E 0 80 55 00
        E 0 80 61 00
        E 50 90 1b 60
        E 0 90 61 60
        E 30 80 1b 00
        E 0 80 61 00
        E 50 90 2e 60
        E 0 90 62 60
        E 0 90 6e 60
        E 30 80 2e 00
        E 0 80 62 00
        E 0 80 6e 00
        E 50 90 2f 60
        E 0 90 56 60
        E 0 90 62 60
        E 0 90 6e 60
        E 30 80 2f 00
        E 0 80 56 00
        E 0 80 62 00
        E 0 80 6e 00
        E 50 90 30 60
        E 0 90 63 60
        E 0 90 6f 60
        E 30 80 30 00
        E 0 80 63 00
        E 0 80 6f 00
        E 50 90 18 60
        E 0 90 60 60
        E 30 80 18 00
        E 0 80 60 00
        E 50 80 74 00
        E 0 90 1a 60
        E 0 90 24 60
        E 0 90 3d 60
        E 0 90 49 60
        E 0 90 4c 60
        E 0 90 55 60
        E 0 90 58 60
        E 0 90 61 60
        E 0 90 64 60
        E 30 80 1a 00
        E 0 80 24 00
        E 0 80 3d 00
        E 0 80 49 00
        E 0 80 4c 00
        E 0 80 55 00
        E 0 80 58 00
        E 0 80 61 00
        E 0 80 64 00
        E 130 90 2b 60
        E 0 90 63 60
        E 30 80 2b 00
        E 0 80 63 00
        E 50 90 1b 60
        E 0 90 55 60
        E 0 90 61 60
        E 30 80 1b 00
        E 0 80 55 00
        E 0 80 61 00
        E 50 90 18 60
        E 0 90 2b 60
        E 0 90 60 60
        E 0 90 63 60
        E 30 80 18 00
        E 0 80 2b 00
        E 0 80 60 00
        E 0 80 63 00
        E 50 90 1b 60
        E 0 90 61 60
        E 30 80 1b 00
        E 0 80 61 00
        E 50 90 18 60
        E 0 90 2b 60
        E 0 90 3f 60
        E 0 90 48 60
        E 0 90 4b 60
        E 0 90 54 60
        E 0 90 57 60
        E 0 90 60 60
        E 0 90 63 60
        E 30 80 18 00
        E 0 80 2b 00
        E 0 80 3f 00
        E 0 80 48 00
        E 0 80 4b 00
        E 0 80 54 00
        E 0 80 57 00
        E 0 80 60 00
        E 0 80 63 00
        E 50 90 1b 60
        E 0 90 61 60
        E 30 80 1b 00
        E 0 80 61 00
        E 50 90 18 60
        E 0 90 2b 60
        E 0 90 60 60
        E 0 90 63 60
        E 30 80 18 00
        E 0 80 2b 00
        E 0 80 60 00
        E 0 80 63 00
        E 50 90 1b 60
        E 0 90 55 60
        E 0 90 61 60
        E 30 80 1b 00
        E 0 80 55 00
        E 0 80 61 00
        E 49 90 2b 60
        E 0 90 63 60
        E 30 80 2b 00
        E 0 80 63 00
        E 50 90 18 60
        E 0 90 60 60
        E 30 80 18 00
        E 0 80 60 00
        E 10 90 18 60
        E 0 90 60 60
        E 30 80 18 00
        E 0 80 60 00
        E 11 90 1a 60
        E 0 90 2a 60
        E 0 90 3d 60
        E 0 90 49 60
        E 0 90 4b 60
        E 0 90 55 60
        E 0 90 57 60
        E 0 90 61 60
        E 0 90 63 60
        E 0 90 78 60
        E 0 90 79 60
        E 0 90 7a 60
        E 0 90 7b 60
        E 0 90 7c 60
        E 30 80 1a 00
        E 0 80 2a 00
        E 0 80 3d 00
        E 0 80 49 00
        E 0 80 4b 00
        E 0 80 55 00
        E 0 80 57 00
        E 0 80 61 00
        E 0 80 63 00
        E 130 90 2b 60
        E 0 90 63 60
        E 30 80 2b 00
        E 0 80 63 00
        E 50 90 1b 60
        E 0 90 55 60
        E 0 90 61 60
        E 30 80 1b 00
        E 0 80 55 00
        E 0 80 61 00
        E 49 90 18 60
        E 0 90 2b 60
        E 0 90 60 60
        E 0 90 63 60
        E 30 80 18 00
        E 0 80 2b 00
        E 0 80 60 00
        E 0 80 63 00
        E 50 90 1b 60
        E 0 90 61 60
        E 30 80 1b 00
        E 0 80 61 00
        E 51 90 18 60
        E 0 90 2b 60
        E 0 90 3f 60
        E 0 90 48 60
        E 0 90 4b 60
        E 0 90 54 60
        E 0 90 57 60
        E 0 90 60 60
        E 0 90 63 60
        E 30 80 18 00
        E 0 80 2b 00
        E 0 80 3f 00
        E 0 80 48 00
        E 0 80 4b 00
        E 0 80 54 00
        E 0 80 57 00
        E 0 80 60 00
        E 0 80 63 00
        E 50 90 1b 60
        E 0 90 61 60
        E 30 80 1b 00
        E 0 80 61 00
        E 50 90 1a 60
        E 0 90 61 60
        E 30 80 1a 00
        E 0 80 61 00
        E 50 90 1b 60
        E 0 90 55 60
        E 0 90 61 60
        E 30 80 1b 00
        E 0 80 55 00
        E 0 80 61 00
        E 130 90 1a 60
        E 0 90 61 60
        E 30 80 1a 00
        E 0 80 61 00
        E 50 90 18 60
        E 0 90 24 60
        E 0 90 40 60
        E 0 90 48 60
        E 0 90 4c 60
        E 0 90 54 60
        E 0 90 58 60
        E 0 90 60 60
        E 0 90 64 60
        E 1 80 78 00
        E 0 80 79 00
        E 0 80 7a 00
        E 0 80 7b 00
        E 0 80 7c 00
        E 29 80 18 00
        E 0 80 24 00
        E 0 80 40 00
        E 0 80 48 00
        E 0 80 4c 00
        E 0 80 54 00
        E 0 80 58 00
        E 0 80 60 00
        E 0 80 64 00
        E 50 90 1a 60
        E 0 90 61 60
        E 30 80 1a 00
        E 0 80 61 00
        E 50 90 1b 60
        E 0 90 61 60
        E 30 80 1b 00
        E 0 80 61 00
        E 50 90 1a 60
        E 0 90 55 60
        E 0 90 61 60
        E 30 80 1a 00
        E 0 80 55 00
        E 0 80 61 00
        E 130 90 1b 60
        E 0 90 61 60
        E 30 80 1b 00
        E 0 80 61 00
        E 50 90 18 60
        E 0 90 22 60
        E 0 90 40 60
        E 0 90 48 60
        E 0 90 4c 60
        E 0 90 54 60
        E 0 90 58 60
        E 0 90 60 60
        E 0 90 64 60
        E 30 80 18 00
        E 0 80 22 00
        E 0 80 40 00
        E 0 80 48 00
        E 0 80 4c 00
        E 0 80 54 00
        E 0 80 58 00
        E 0 80 60 00
        E 0 80 64 00
        E 50 90 1b 60
        E 0 90 61 60
        E 30 80 1b 00
        E 0 80 61 00
        E 50 90 18 60
        E 0 90 1a 60
        E 0 90 60 60
        E 0 90 61 60
        E 30 80 18 00
        E 0 80 1a 00
        E 0 80 60 00
        E 0 80 61 00
        E 50 90 1b 60
        E 0 90 55 60
        E 0 90 61 60
        E 30 80 1b 00
        E 0 80 55 00
        E 0 80 61 00
        E 50 90 18 60
        E 0 90 60 60
        E 30 80 18 00
        E 0 80 60 00
        E 50 90 1a 60
        E 0 90 61 60
        E 30 80 1a 00
        E 0 80 61 00
        E 50 90 18 60
        E 0 90 1b 60
        E 0 90 3d 60
        E 0 90 49 60
        E 0 90 54 60
        E 0 90 55 60
        E 0 90 60 60
        E 0 90 61 60
        E 30 80 18 00
        E 0 80 1b 00
        E 0 80 3d 00
        E 0 80 49 00
        E 0 80 54 00
        E 0 80 55 00
        E 0 80 60 00
        E 0 80 61 00
        E 50 90 1a 60
        E 0 90 61 60
        E 30 80 1a 00
        E 0 80 61 00
        E 50 90 18 60
        E 0 90 1b 60
        E 0 90 60 60
        E 0 90 61 60
        E 30 80 18 00
        E 0 80 1b 00
        E 0 80 60 00
        E 0 80 61 00
        E 50 90 1a 60
        E 0 90 55 60
        E 0 90 61 60
        E 30 80 1a 00
        E 0 80 55 00
        E 0 80 61 00
        E 49 90 18 60
        E 0 90 1b 60
        E 0 90 60 60
        E 0 90 61 60
        E 30 80 18 00
        E 0 80 1b 00
        E 0 80 60 00
        E 0 80 61 00
        E 50 90 1a 60
        E 0 90 61 60
        E 30 80 1a 00
        E 0 80 61 00
        E 51 90 18 60
        E 0 90 24 60
        E 0 90 40 60
        E 0 90 48 60
        E 0 90 4c 60
        E 0 90 54 60
        E 0 90 58 60
        E 0 90 60 60
        E 0 90 64 60
        E 30 80 18 00
        E 0 80 24 00
        E 0 80 40 00
        E 0 80 48 00
        E 0 80 4c 00
        E 0 80 54 00
        E 0 80 58 00
        E 0 80 60 00
        E 0 80 64 00
        E 130 90 1e 60
        E 0 90 62 60
        E 30 80 1e 00
        E 0 80 62 00
        E 50 90 1b 60
        E 0 90 55 60
        E 0 90 61 60
        E 30 80 1b 00
        E 0 80 55 00
        E 0 80 61 00
        E 50 90 1e 60
        E 0 90 62 60
        E 30 80 1e 00
        E 0 80 62 00
        E 50 90 18 60
        E 0 90 60 60
        E 30 80 18 00
        E 0 80 60 00
        E 50 90 1a 60
        E 0 90 1f 60
        E 0 90 3d 60
        E 0 90 49 60
        E 0 90 4a 60
        E 0 90 55 60
        E 0 90 56 60
        E 0 90 61 60
        E 0 90 62 60
        E 30 80 1a 00
        E 0 80 1f 00
        E 0 80 3d 00
        E 0 80 49 00
        E 0 80 4a 00
        E 0 80 55 00
        E 0 80 56 00
        E 0 80 61 00
        E 0 80 62 00
        E 130 90 1e 60
        E 0 90 62 60
        E 30 80 1e 00
        E 0 80 62 00
        E 50 90 1b 60
        E 0 90 55 60
        E 0 90 61 60
        E 30 80 1b 00
        E 0 80 55 00
        E 0 80 61 00
        E 50 90 18 60
        E 0 90 1e 60
        E 0 90 60 60
        E 0 90 62 60
        E 30 80 18 00
        E 0 80 1e 00
        E 0 80 60 00
        E 0 80 62 00
        E 50 90 1b 60
        E 0 90 61 60
        E 30 80 1b 00
        E 0 80 61 00
        E 49 90 78 60
        E 0 90 79 60
        E 0 90 7a 60
        E 0 90 7b 60
        E 0 90 7c 60
        E 1 90 1e 60
        E 0 90 3e 60
        E 0 90 4a 60
        E 0 90 56 60
        E 0 90 62 60
        E 30 80 1e 00
        E 0 80 3e 00
        E 0 80 4a 00
        E 0 80 56 00
        E 0 80 62 00
        E 50 90 18 60
        E 0 90 60 60
        E 30 80 18 00
        E 0 80 60 00
        E 50 90 1a 60
        E 0 90 1f 60
        E 0 90 61 60
        E 0 90 62 60
        E 30 80 1a 00
        E 0 80 1f 00
        E 0 80 61 00
        E 0 80 62 00
        E 129 90 1e 60
        E 0 90 62 60
        E 30 80 1e 00
        E 0 80 62 00
        E 50 90 1b 60
        E 0 90 61 60
        E 30 80 1b 00
        E 0 80 61 00
        E 51 90 18 60
        E 0 90 1e 60
        E 0 90 3e 60
        E 0 90 48 60
        E 0 90 4a 60
        E 0 90 54 60
        E 0 90 56 60
        E 0 90 60 60
        E 0 90 62 60
        E 30 80 18 00
        E 0 80 1e 00
        E 0 80 3e 00
        E 0 80 48 00
        E 0 80 4a 00
        E 0 80 54 00
        E 0 80 56 00
        E 0 80 60 00
        E 0 80 62 00
        E 50 90 1b 60
        E 0 90 61 60
        E 30 80 1b 00
        E 0 80 61 00
        E 50 90 1e 60
        E 0 90 62 60
        E 30 80 1e 00
        E 0 80 62 00
        E 50 90 18 60
        E 0 90 54 60
        E 0 90 60 60
        E 30 80 18 00
        E 0 80 54 00
        E 0 80 60 00
        E 50 90 1a 60
        E 0 90 1f 60
        E 0 90 61 60
        E 0 90 62 60
        E 30 80 1a 00
        E 0 80 1f 00
        E 0 80 61 00
        E 0 80 62 00
        E 130 80 78 00
        E 0 80 79 00
        E 0 80 7a 00
        E 0 80 7b 00
        E 0 80 7c 00
        E 0 90 18 60
        E 0 90 24 60
        E 0 90 40 60
        E 0 90 48 60
        E 0 90 4c 60
        E 0 90 54 60
        E 0 90 58 60
        E 0 90 60 60
        E 0 90 64 60
        E 30 80 18 00
        E 0 80 24 00
        E 0 80 40 00
        E 0 80 48 00
        E 0 80 4c 00
        E 0 80 54 00
        E 0 80 58 00
        E 0 80 60 00
        E 0 80 64 00
        E 130 90 1e 60
        E 0 90 62 60
        E 30 80 1e 00
        E 0 80 62 00
        E 50 90 1b 60
        E 0 90 55 60
        E 0 90 61 60
        E 30 80 1b 00
        E 0 80 55 00
        E 0 80 61 00
        E 50 90 18 60
        E 0 90 1e 60
        E 0 90 60 60
        E 0 90 62 60
        E 30 80 18 00
        E 0 80 1e 00
        E 0 80 60 00
        E 0 80 62 00
        E 50 90 18 60
        E 0 90 60 60
        E 30 80 18 00
        E 0 80 60 00
        E 50 90 1a 60
        E 0 90 1f 60
        E 0 90 3d 60
        E 0 90 49 60
        E 0 90 4a 60
        E 0 90 55 60
        E 0 90 56 60
        E 0 90 61 60
        E 0 90 62 60
        E 30 80 1a 00
        E 0 80 1f 00
        E 0 80 3d 00
        E 0 80 49 00
        E 0 80 4a 00
        E 0 80 55 00
        E 0 80 56 00
        E 0 80 61 00
        E 0 80 62 00
        E 130 90 1e 60
        E 0 90 62 60
        E 30 80 1e 00
        E 0 80 62 00
        E 50 90 1b 60
        E 0 90 55 60
        E 0 90 61 60
        E 30 80 1b 00
        E 0 80 55 00
        E 0 80 61 00
        E 50 90 18 60
        E 0 90 1e 60
        E 0 90 60 60
        E 0 90 62 60
        E 30 80 18 00
        E 0 80 1e 00
        E 0 80 60 00
        E 0 80 62 00
        E 50 90 1b 60
        E 0 90 61 60
        E 30 80 1b 00
        E 0 80 61 00
        E 50 90 1e 60
        E 0 90 3e 60
        E 0 90 4a 60
        E 0 90 56 60
        E 0 90 62 60
        E 30 80 1e 00
        E 0 80 3e 00
        E 0 80 4a 00
        E 0 80 56 00
        E 0 80 62 00
        E 50 90 18 60
        E 0 90 60 60
        E 30 80 18 00
        E 0 80 60 00
        E 50 90 1a 60
        E 0 90 1f 60
        E 0 90 61 60
        E 0 90 62 60
        E 30 80 1a 00
        E 0 80 1f 00
        E 0 80 61 00
        E 0 80 62 00
        E 129 90 1e 60
        E 0 90 62 60
        E 30 80 1e 00
        E 0 80 62 00
        E 50 90 1b 60
        E 0 90 61 60
        E 30 80 1b 00
        E 0 80 61 00
        E 51 90 18 60
        E 0 90 1e 60
        E 0 90 3e 60
        E 0 90 48 60
        E 0 90 4a 60
        E 0 90 54 60
        E 0 90 56 60
        E 0 90 60 60
        E 0 90 62 60
        E 30 80 18 00
        E 0 80 1e 00
        E 0 80 3e 00
        E 0 80 48 00
        E 0 80 4a 00
        E 0 80 54 00
        E 0 80 56 00
        E 0 80 60 00
        E 0 80 62 00
        E 50 90 1b 60
        E 0 90 61 60
        E 30 80 1b 00
        E 0 80 61 00
        E 50 90 1e 60
        E 0 90 62 60
        E 30 80 1e 00
        E 0 80 62 00
        E 50 90 18 60
        E 0 90 54 60
        E 0 90 60 60
        E 30 80 18 00
        E 0 80 54 00
        E 0 80 60 00
        E 50 90 1a 60
        E 0 90 1f 60
        E 0 90 61 60
        E 0 90 62 60
        E 30 80 1a 00
        E 0 80 1f 00
        E 0 80 61 00
        E 0 80 62 00
        E 130 90 18 60
        E 0 90 24 60
        E 0 90 40 60
        E 0 90 48 60
        E 0 90 4c 60
        E 0 90 54 60
        E 0 90 58 60
        E 0 90 60 60
        E 0 90 64 60
        E 30 80 18 00
        E 0 80 24 00
        E 0 80 40 00
        E 0 80 48 00
        E 0 80 4c 00
        E 0 80 54 00
        E 0 80 58 00
        E 0 80 60 00
        E 0 80 64 00
        E 50 90 18 60
        E 0 90 60 60
        E 30 80 18 00
        E 0 80 60 00
        E 50 90 18 60
        E 0 90 60 60
        E 30 80 18 00
        E 0 80 60 00
        E 50 90 18 60
        E 0 90 54 60
        E 0 90 60 60
        E 30 80 18 00
        E 0 80 54 00
        E 0 80 60 00
        E 50 90 18 60
        E 0 90 60 60
        E 30 80 18 00
        E 0 80 60 00
        E 50 90 18 60
        E 0 90 60 60
        E 30 80 18 00
        E 0 80 60 00
        E 50 90 18 60
        E 0 90 1a 60
        E 0 90 24 60
        E 0 90 3d 60
        E 0 90 49 60
        E 0 90 4c 60
        E 0 90 54 60
        E 0 90 55 60
        E 0 90 58 60
        E 0 90 60 60
        E 0 90 61 60
        E 0 90 64 60
        E 30 80 18 00
        E 0 80 1a 00
        E 0 80 24 00
        E 0 80 3d 00
        E 0 80 49 00
        E 0 80 4c 00
        E 0 80 54 00
        E 0 80 55 00
        E 0 80 58 00
        E 0 80 60 00
        E 0 80 61 00
        E 0 80 64 00
        E 50 90 18 60
        E 0 90 60 60
        E 30 80 18 00
        E 0 80 60 00
        E 50 90 18 60
        E 0 90 24 60
        E 0 90 60 60
        E 0 90 64 60
        E 30 80 18 00
        E 0 80 24 00
        E 0 80 60 00
        E 0 80 64 00
        E 50 90 18 60
        E 0 90 54 60
        E 0 90 60 60
        E 30 80 18 00
        E 0 80 54 00
        E 0 80 60 00
        E 50 90 18 60
        E 0 90 24 60
        E 0 90 60 60
        E 0 90 64 60
        E 30 80 18 00
        E 0 80 24 00
        E 0 80 60 00
        E 0 80 64 00
        E 50 90 18 60
        E 0 90 60 60
        E 30 80 18 00
        E 0 80 60 00
        E 50 90 18 60
        E 0 90 1a 60
        E 0 90 24 60
        E 0 90 3d 60
        E 0 90 49 60
        E 0 90 4c 60
        E 0 90 54 60
        E 0 90 55 60
        E 0 90 58 60
        E 0 90 60 60
        E 0 90 61 60
        E 0 90 64 60
        E 30 80 18 00
        E 0 80 1a 00
        E 0 80 24 00
        E 0 80 3d 00
        E 0 80 49 00
        E 0 80 4c 00
        E 0 80 54 00
        E 0 80 55 00
        E 0 80 58 00
        E 0 80 60 00
        E 0 80 61 00
        E 0 80 64 00
        E 50 90 18 60
        E 0 90 60 60
        E 30 80 18 00
        E 0 80 60 00
        E 50 90 18 60
        E 0 90 24 60
        E 0 90 60 60
        E 0 90 64 60
        E 30 80 18 00
        E 0 80 24 00
        E 0 80 60 00
        E 0 80 64 00
        E 50 90 18 60
        E 0 90 54 60
        E 0 90 60 60
        E 30 80 18 00
        E 0 80 54 00
        E 0 80 60 00
        E 49 90 18 60
        E 0 90 24 60
        E 0 90 60 60
        E 0 90 64 60
        E 30 80 18 00
        E 0 80 24 00
        E 0 80 60 00
        E 0 80 64 00
        E 50 90 18 60
        E 0 90 60 60
        E 30 80 18 00
        E 0 80 60 00
        E 51 90 18 60
        E 0 90 1a 60
        E 0 90 24 60
        E 0 90 3d 60
        E 0 90 49 60
        E 0 90 4c 60
        E 0 90 54 60
        E 0 90 55 60
        E 0 90 58 60
        E 0 90 60 60
        E 0 90 61 60
        E 0 90 64 60
        E 30 80 18 00
        E 0 80 1a 00
        E 0 80 24 00
        E 0 80 3d 00
        E 0 80 49 00
        E 0 80 4c 00
        E 0 80 54 00
        E 0 80 55 00
        E 0 80 58 00
        E 0 80 60 00
        E 0 80 61 00
        E 0 80 64 00
        E 50 90 18 60
        E 0 90 60 60
        E 30 80 18 00
        E 0 80 60 00
        E 50 90 18 60
        E 0 90 24 60
        E 0 90 60 60
        E 0 90 64 60
        E 30 80 18 00
        E 0 80 24 00
        E 0 80 60 00
        E 0 80 64 00
        E 50 90 18 60
        E 0 90 54 60
        E 0 90 60 60
        E 30 80 18 00
        E 0 80 54 00
        E 0 80 60 00
        E 50 90 18 60
        E 0 90 24 60
        E 0 90 60 60
        E 0 90 64 60
        E 30 80 18 00
        E 0 80 24 00
        E 0 80 60 00
        E 0 80 64 00
        E 50 90 18 60
        E 0 90 60 60
        E 30 80 18 00
        E 0 80 60 00
        E 50 90 18 60
        E 0 90 1a 60
        E 0 90 24 60
        E 0 90 3d 60
        E 0 90 49 60
        E 0 90 4c 60
        E 0 90 54 60
        E 0 90 55 60
        E 0 90 58 60
        E 0 90 60 60
        E 0 90 61 60
        E 0 90 64 60
        E 30 80 18 00
        E 0 80 1a 00
        E 0 80 24 00
        E 0 80 3d 00
        E 0 80 49 00
        E 0 80 4c 00
        E 0 80 54 00
        E 0 80 55 00
        E 0 80 58 00
        E 0 80 60 00
        E 0 80 61 00
        E 0 80 64 00
        E 50 90 18 60
        E 0 90 60 60
        E 30 80 18 00
        E 0 80 60 00
        E 50 90 18 60
        E 0 90 24 60
        E 0 90 60 60
        E 0 90 64 60
        E 30 80 18 00
        E 0 80 24 00
        E 0 80 60 00
        E 0 80 64 00
        E 50 90 18 60
        E 0 90 54 60
        E 0 90 60 60
        E 30 80 18 00
        E 0 80 54 00
        E 0 80 60 00
        E 50 90 18 60
        E 0 90 24 60
        E 0 90 60 60
        E 0 90 64 60
        E 30 80 18 00
        E 0 80 24 00
        E 0 80 60 00
        E 0 80 64 00
        E 50 90 18 60
        E 0 90 60 60
        E 30 80 18 00
        E 0 80 60 00
        E 50 90 18 60
        E 0 90 1a 60
        E 0 90 24 60
        E 0 90 3d 60
        E 0 90 49 60
        E 0 90 4c 60
        E 0 90 54 60
        E 0 90 55 60
        E 0 90 58 60
        E 0 90 60 60
        E 0 90 61 60
        E 0 90 64 60
        E 30 80 18 00
        E 0 80 1a 00
        E 0 80 24 00
        E 0 80 3d 00
        E 0 80 49 00
        E 0 80 4c 00
        E 0 80 54 00
        E 0 80 55 00
        E 0 80 58 00
        E 0 80 60 00
        E 0 80 61 00
        E 0 80 64 00
        E 50 90 18 60
        E 0 90 60 60
        E 30 80 18 00
        E 0 80 60 00
        E 50 90 18 60
        E 0 90 24 60
        E 0 90 60 60
        E 0 90 64 60
        E 30 80 18 00
        E 0 80 24 00
        E 0 80 60 00
        E 0 80 64 00
        E 50 90 18 60
        E 0 90 54 60
        E 0 90 60 60
        E 30 80 18 00
        E 0 80 54 00
        E 0 80 60 00
        E 50 90 18 60
        E 0 90 24 60
        E 0 90 60 60
        E 0 90 64 60
        E 30 80 18 00
        E 0 80 24 00
        E 0 80 60 00
        E 0 80 64 00
        E 50 90 18 60
        E 0 90 60 60
        E 30 80 18 00
        E 0 80 60 00
        E 50 90 18 60
        E 0 90 22 60
        E 0 90 26 60
        E 0 90 3e 60
        E 0 90 40 60
        E 0 90 48 60
        E 0 90 4a 60
        E 0 90 4c 60
        E 0 90 54 60
        E 0 90 56 60
        E 0 90 58 60
        E 0 90 60 60
        E 0 90 62 60
        E 0 90 64 60
        E 30 80 18 00
        E 0 80 22 00
        E 0 80 26 00
        E 0 80 3e 00
        E 0 80 40 00
        E 0 80 48 00
        E 0 80 4a 00
        E 0 80 4c 00
        E 0 80 54 00
        E 0 80 56 00
        E 0 80 58 00
        E 0 80 60 00
        E 0 80 62 00
        E 0 80 64 00
        E 210 90 18 60
        E 0 90 22 60
        E 0 90 26 60
        E 0 90 54 60
        E 0 90 56 60
        E 0 90 58 60
        E 0 90 60 60
        E 0 90 62 60
        E 0 90 64 60
        E 30 80 18 00
        E 0 80 22 00
        E 0 80 26 00
        E 0 80 54 00
        E 0 80 56 00
        E 0 80 58 00
        E 0 80 60 00
        E 0 80 62 00
        E 0 80 64 00
        E 210 90 18 60
        E 0 90 22 60
        E 0 90 26 60
        E 0 90 3e 60
        E 0 90 40 60
        E 0 90 48 60
        E 0 90 4a 60
        E 0 90 4c 60
        E 0 90 54 60
        E 0 90 56 60
        E 0 90 58 60
        E 0 90 60 60
        E 0 90 62 60
        E 0 90 64 60
        E 30 80 18 00
        E 0 80 22 00
        E 0 80 26 00
        E 0 80 3e 00
        E 0 80 40 00
        E 0 80 48 00
        E 0 80 4a 00
        E 0 80 4c 00
        E 0 80 54 00
        E 0 80 56 00
        E 0 80 58 00
        E 0 80 60 00
        E 0 80 62 00
        E 0 80 64 00
        E 210 90 18 60
        E 0 90 22 60
        E 0 90 26 60
        E 0 90 54 60
        E 0 90 56 60
        E 0 90 58 60
        E 0 90 60 60
        E 0 90 62 60
        E 0 90 64 60
        E 30 80 18 00
        E 0 80 22 00
        E 0 80 26 00
        E 0 80 54 00
        E 0 80 56 00
        E 0 80 58 00
        E 0 80 60 00
        E 0 80 62 00
        E 0 80 64 00
        <X 480 0
          /wFbaWRsZV9yZWFsdGltZV0=
        >
        E 2130 b0 7b 00
        GUID {99C52F88-C54B-4CCD-B038-A5C950AC8E6E}
        IGNTEMPO 0 120 4 4
        SRCCOLOR 1352
        VELLANE 132 38 60
        COLORMAP "C:\Program Files (x86)\REAPER\Data\color_maps\rockband_drums.png"
        TEXTSTRINGFILE "Text Events List.txt"
        CFGEDITVIEW 10149.234478 354.284576 8 12 0 0 0 0 0
        KEYSNAP 0 0 102034050607 0 Major
        TRACKSEL 0 0 0 ""
        EVTFILTER 0 -1 -1 -1 -1 0 1 0 0 -1 -1 -1 -1 0 -1 0 -1 -1
        CFGEDIT 1 1 0 0 0 1 1 1 1 1 1 0.125 -8 -8 1370 736 1 2 1 2 0 0 0 0 0 0.5 1 0 1 64
      >
    >
  >
  <TRACK {6B7F9B4B-FF4E-4CE6-9E2D-4C9BD5DAED77}
    NAME "PART GUITAR"
    PEAKCOL 33488896
    BEAT -1
    AUTOMODE 0
    VOLPAN 1 0 -1 -1 1
    MUTESOLO 0 0 0
    IPHASE 0
    ISBUS 0 0
    BUSCOMP 1 0
    SHOWINMIX 1 0.6667 0.5 1 0.5 0 0 0
    FREEMODE 0
    SEL 0
    REC 0 4096 1 7 0 0 0
    TRACKHEIGHT 24 0
    INQ 0 0 0 0.5 100 0 0 100
    NCHAN 2
    FX 1
    TRACKID {6B7F9B4B-FF4E-4CE6-9E2D-4C9BD5DAED77}
    PERF 0
    MIDIOUT -1
    <MIDINOTENAMES
      0 40 "Left Hand Lowest"
      0 41 -
      0 42 -
      0 43 -
      0 44 -
      0 45 -
      0 46 -
      0 47 -
      0 48 -
      0 49 -
      0 50 -
      0 51 -
      0 52 -
      0 53 -
      0 54 -
      0 55 -
      0 56 -
      0 57 -
      0 58 -
      0 59 "Left Hand Highest"
      0 60 "EASY Green"
      0 61 "EASY Red"
      0 62 "EASY Yellow"
      0 63 "EASY Blue"
      0 64 "EASY Orange"
      0 65 ----
      0 72 "MEDIUM Green"
      0 73 "MEDIUM Red"
      0 74 "MEDIUM Yellow"
      0 75 "MEDIUM Blue"
      0 76 "MEDIUM Orange"
      0 77 ----
      0 84 "HARD Green"
      0 85 "HARD Red"
      0 86 "HARD Yellow"
      0 87 "HARD Blue"
      0 88 "HARD Orange"
      0 89 "Force HOPO On"
      0 90 "Force HOPO Off"
      0 95 ----
      0 96 "EXPERT Green"
      0 97 "EXPERT Red"
      0 98 "EXPERT Yellow"
      0 99 "EXPERT Blue"
      0 100 "EXPERT Orange"
      0 101 "Force HOPO On"
      0 102 "Force HOPO Off"
      0 103 "Solo Marker"
      0 115 ----
      0 116 OVERDRIVE
      0 119 ----
      0 120 "BRE (use all 5)"
      0 121 BRE
      0 122 BRE
      0 123 BRE
      0 124 BRE
      0 125 ----
      0 127 "Trill Marker"
    >
    MAINSEND 1 0
    <FXCHAIN
      WNDRECT 0 38 878 585
      SHOW 0
      LASTSEL 1
      DOCKED 0
      BYPASS 1 0 0
      <VST "VSTi: ReaSynth (Cockos)" reasynth.vst.dylib 0 "" 1919251321
        eXNlcu9e7f4AAAAAAgAAAAEAAAAAAAAAAgAAAAAAAAA8AAAAAAAAAAAAAADvvq3eDfCt3gAAAAAAAAAAAAAAAAAAAAA5tEg+fcvbPrW0sTkAAAAAtvP9PlWkKzoAAAAA
        AAAAAAAAgD8AAAAAAAA=
      >
      FLOATPOS 0 0 0 0
      FXID {52B28C73-185B-48E4-B8F4-1FD7A8848B0F}
      WAK 0
      BYPASS 0 0 0
      <VST "VSTi: RBN Preview (RBN)" rbprev_vst.dll 0 "" ""
        dnBicu5e7f4AAAAAAgAAAAEAAAAAAAAAAgAAAAAAAAAEAAAAAQAAAAAAAAADAKoAAAAAAAAA
      >
      FLOATPOS 32 32 659 497
      FXID {190BBB08-7A86-476B-BD07-5F71F5CD6F7C}
      WAK 0
    >
    <ITEM
      POSITION 0
      SNAPOFFS 0
      LENGTH 215.16728383179705
      LOOP 0
      ALLTAKES 0
      FADEIN 1 0 0 1 0 0
      FADEOUT 1 0 0 1 0 0
      MUTE 0
      SEL 0
      IGUID {81210F06-DA35-41E7-BA75-C6E1C5689733}
      IID 4
      NAME "PART GUITAR"
      VOLPAN 1 0 1 -1
      SOFFS 0 0
      PLAYRATE 1 1 0 -65536 0 0.0025
      CHANMODE 0
      GUID {61757875-B3D4-49E4-8483-EE351B7D2386}
      <SOURCE MIDI
        HASDATA 1 480 QN
        POOLEDEVTS {7BD8999D-FFD1-4F11-8ABC-5D2A49F07672}
        <X 0 0
          /wNQQVJUIEdVSVRBUg==
        >
        <X 3840 0
          /wFbaWRsZV0=
        >
        <X 1920 0
          /wFbcGxheV0=
        >
        E 480 90 48 60
        E 0 90 54 60
        E 0 90 60 60
        E 0 90 66 60
        E 120 80 48 00
        E 240 80 54 00
        E 60 80 60 00
        E 0 80 66 00
        E 60 90 3f 60
        E 0 90 4a 60
        E 0 90 4c 60
        E 0 90 55 60
        E 0 90 58 60
        E 0 90 61 60
        E 0 90 64 60
        E 0 90 66 60
        E 120 80 3f 00
        E 0 80 4a 00
        E 0 80 4c 00
        E 240 80 55 00
        E 0 80 58 00
        E 60 80 61 00
        E 0 80 64 00
        E 0 80 66 00
        E 60 90 48 60
        E 0 90 54 60
        E 0 90 60 60
        E 0 90 66 60
        E 120 80 48 00
        E 240 80 54 00
        E 61 80 60 00
        E 0 80 66 00
        E 59 90 3c 60
        E 0 90 48 60
        E 0 90 54 60
        E 0 90 60 60
        E 0 90 66 60
        E 120 80 3c 00
        E 0 80 48 00
        E 0 80 54 00
        E 180 80 60 00
        E 0 80 66 00
        E 60 90 61 60
        E 0 90 64 60
        E 0 90 66 60
        E 60 80 61 00
        E 0 80 64 00
        E 0 80 66 00
        E 60 90 49 60
        E 0 90 4a 60
        E 0 90 54 60
        E 0 90 57 60
        E 0 90 60 60
        E 0 90 63 60
        E 0 90 66 60
        E 120 80 49 00
        E 0 80 4a 00
        E 240 80 54 00
        E 0 80 57 00
        E 59 80 60 00
        E 0 80 63 00
        E 0 80 66 00
        E 61 90 3d 60
        E 0 90 49 60
        E 0 90 4a 60
        E 0 90 54 60
        E 0 90 57 60
        E 0 90 60 60
        E 0 90 63 60
        E 0 90 66 60
        E 120 80 3d 00
        E 0 80 49 00
        E 0 80 4a 00
        E 240 80 54 00
        E 0 80 57 00
        E 60 80 60 00
        E 0 80 63 00
        E 0 80 66 00
        E 60 90 48 60
        E 0 90 4a 60
        E 0 90 54 60
        E 0 90 56 60
        E 0 90 60 60
        E 0 90 62 60
        E 0 90 66 60
        E 120 80 48 00
        E 0 80 4a 00
        E 240 80 54 00
        E 0 80 56 00
        E 61 80 60 00
        E 0 80 62 00
        E 0 80 66 00
        E 59 90 3c 60
        E 0 90 48 60
        E 0 90 4a 60
        E 0 90 54 60
        E 0 90 56 60
        E 0 90 60 60
        E 0 90 62 60
        E 0 90 66 60
        E 80 80 3c 00
        E 0 80 48 00
        E 0 80 4a 00
        E 0 80 54 00
        E 0 80 56 00
        E 0 80 60 00
        E 0 80 62 00
        E 0 80 66 00
        E 80 90 61 60
        E 0 90 62 60
        E 0 90 66 60
        E 80 80 61 00
        E 0 80 62 00
        E 0 80 66 00
        E 80 90 60 60
        E 0 90 61 60
        E 0 90 66 60
        E 80 80 60 00
        E 0 80 61 00
        E 0 80 66 00
        E 80 90 48 60
        E 0 90 54 60
        E 0 90 60 60
        E 0 90 66 60
        E 120 80 48 00
        E 240 80 54 00
        E 60 80 60 00
        E 0 80 66 00
        E 60 90 3f 60
        E 0 90 4a 60
        E 0 90 4c 60
        E 0 90 55 60
        E 0 90 58 60
        E 0 90 61 60
        E 0 90 64 60
        E 0 90 66 60
        E 120 80 3f 00
        E 0 80 4a 00
        E 0 80 4c 00
        E 240 80 55 00
        E 0 80 58 00
        E 60 80 61 00
        E 0 80 64 00
        E 0 80 66 00
        E 60 90 48 60
        E 0 90 54 60
        E 0 90 60 60
        E 0 90 66 60
        E 120 80 48 00
        E 240 80 54 00
        E 61 80 60 00
        E 0 80 66 00
        E 59 90 3c 60
        E 0 90 48 60
        E 0 90 54 60
        E 0 90 60 60
        E 0 90 66 60
        E 120 80 3c 00
        E 0 80 48 00
        E 0 80 54 00
        E 180 80 60 00
        E 0 80 66 00
        E 60 90 61 60
        E 0 90 64 60
        E 0 90 66 60
        E 60 80 61 00
        E 0 80 64 00
        E 0 80 66 00
        E 60 90 49 60
        E 0 90 4a 60
        E 0 90 54 60
        E 0 90 57 60
        E 0 90 60 60
        E 0 90 63 60
        E 0 90 66 60
        E 0 90 74 60
        E 120 80 49 00
        E 0 80 4a 00
        E 240 80 54 00
        E 0 80 57 00
        E 59 80 60 00
        E 0 80 63 00
        E 0 80 66 00
        E 61 90 3d 60
        E 0 90 49 60
        E 0 90 4a 60
        E 0 90 54 60
        E 0 90 57 60
        E 0 90 60 60
        E 0 90 63 60
        E 0 90 66 60
        E 120 80 3d 00
        E 0 80 49 00
        E 0 80 4a 00
        E 240 80 54 00
        E 0 80 57 00
        E 60 80 60 00
        E 0 80 63 00
        E 0 80 66 00
        E 60 90 48 60
        E 0 90 4a 60
        E 0 90 54 60
        E 0 90 56 60
        E 0 90 60 60
        E 0 90 62 60
        E 0 90 66 60
        E 120 80 48 00
        E 0 80 4a 00
        E 240 80 54 00
        E 0 80 56 00
        E 61 80 60 00
        E 0 80 62 00
        E 0 80 66 00
        E 59 90 3c 60
        E 0 90 48 60
        E 0 90 4a 60
        E 0 90 54 60
        E 0 90 56 60
        E 0 90 60 60
        E 0 90 62 60
        E 0 90 66 60
        E 80 80 3c 00
        E 0 80 48 00
        E 0 80 4a 00
        E 0 80 54 00
        E 0 80 56 00
        E 0 80 60 00
        E 0 80 62 00
        E 0 80 66 00
        E 80 90 61 60
        E 0 90 63 60
        E 0 90 66 60
        E 80 80 61 00
        E 0 80 63 00
        E 0 80 66 00
        E 80 90 61 60
        E 0 90 64 60
        E 0 90 66 60
        E 80 80 61 00
        E 0 80 64 00
        E 0 80 66 00
        E 80 80 74 00
        E 0 90 48 60
        E 0 90 54 60
        E 0 90 60 60
        E 0 90 66 60
        E 120 80 48 00
        E 240 80 54 00
        E 60 80 60 00
        E 0 80 66 00
        E 60 90 3f 60
        E 0 90 4a 60
        E 0 90 4c 60
        E 0 90 55 60
        E 0 90 58 60
        E 0 90 61 60
        E 0 90 64 60
        E 0 90 66 60
        E 120 80 3f 00
        E 0 80 4a 00
        E 0 80 4c 00
        E 240 80 55 00
        E 0 80 58 00
        E 60 80 61 00
        E 0 80 64 00
        E 0 80 66 00
        E 60 90 48 60
        E 0 90 54 60
        E 0 90 60 60
        E 0 90 66 60
        E 120 80 48 00
        E 240 80 54 00
        E 61 80 60 00
        E 0 80 66 00
        E 59 90 3c 60
        E 0 90 48 60
        E 0 90 54 60
        E 0 90 60 60
        E 0 90 66 60
        E 120 80 3c 00
        E 0 80 48 00
        E 0 80 54 00
        E 180 80 60 00
        E 0 80 66 00
        E 60 90 61 60
        E 0 90 64 60
        E 0 90 66 60
        E 60 80 61 00
        E 0 80 64 00
        E 0 80 66 00
        E 60 90 49 60
        E 0 90 4a 60
        E 0 90 54 60
        E 0 90 57 60
        E 0 90 60 60
        E 0 90 63 60
        E 0 90 66 60
        E 120 80 49 00
        E 0 80 4a 00
        E 240 80 54 00
        E 0 80 57 00
        E 60 80 60 00
        E 0 80 63 00
        E 0 80 66 00
        E 60 90 3d 60
        E 0 90 49 60
        E 0 90 4a 60
        E 0 90 54 60
        E 0 90 57 60
        E 0 90 60 60
        E 0 90 63 60
        E 0 90 66 60
        E 120 80 3d 00
        E 0 80 49 00
        E 0 80 4a 00
        E 240 80 54 00
        E 0 80 57 00
        E 60 80 60 00
        E 0 80 63 00
        E 0 80 66 00
        E 60 90 48 60
        E 0 90 4a 60
        E 0 90 54 60
        E 0 90 56 60
        E 0 90 60 60
        E 0 90 62 60
        E 0 90 66 60
        E 120 80 48 00
        E 0 80 4a 00
        E 240 80 54 00
        E 0 80 56 00
        E 61 80 60 00
        E 0 80 62 00
        E 0 80 66 00
        E 59 90 3c 60
        E 0 90 48 60
        E 0 90 4a 60
        E 0 90 54 60
        E 0 90 56 60
        E 0 90 60 60
        E 0 90 62 60
        E 0 90 66 60
        E 80 80 3c 00
        E 0 80 48 00
        E 0 80 4a 00
        E 0 80 54 00
        E 0 80 56 00
        E 0 80 60 00
        E 0 80 62 00
        E 0 80 66 00
        E 80 90 61 60
        E 0 90 62 60
        E 0 90 66 60
        E 80 80 61 00
        E 0 80 62 00
        E 0 80 66 00
        E 80 90 60 60
        E 0 90 61 60
        E 0 90 66 60
        E 80 80 60 00
        E 0 80 61 00
        E 0 80 66 00
        E 80 90 48 60
        E 0 90 54 60
        E 0 90 60 60
        E 0 90 66 60
        E 120 80 48 00
        E 240 80 54 00
        E 60 80 60 00
        E 0 80 66 00
        E 60 90 3f 60
        E 0 90 4a 60
        E 0 90 4c 60
        E 0 90 55 60
        E 0 90 58 60
        E 0 90 61 60
        E 0 90 64 60
        E 0 90 66 60
        E 120 80 3f 00
        E 0 80 4a 00
        E 0 80 4c 00
        E 240 80 55 00
        E 0 80 58 00
        E 60 80 61 00
        E 0 80 64 00
        E 0 80 66 00
        E 60 90 48 60
        E 0 90 54 60
        E 0 90 60 60
        E 0 90 66 60
        E 120 80 48 00
        E 240 80 54 00
        E 61 80 60 00
        E 0 80 66 00
        E 59 90 3c 60
        E 0 90 48 60
        E 0 90 54 60
        E 0 90 60 60
        E 0 90 66 60
        E 120 80 3c 00
        E 0 80 48 00
        E 0 80 54 00
        E 180 80 60 00
        E 0 80 66 00
        E 60 90 61 60
        E 0 90 64 60
        E 0 90 66 60
        E 60 80 61 00
        E 0 80 64 00
        E 0 80 66 00
        E 60 90 49 60
        E 0 90 4a 60
        E 0 90 54 60
        E 0 90 57 60
        E 0 90 60 60
        E 0 90 63 60
        E 0 90 66 60
        E 120 80 49 00
        E 0 80 4a 00
        E 240 80 54 00
        E 0 80 57 00
        E 60 80 60 00
        E 0 80 63 00
        E 0 80 66 00
        E 60 90 3d 60
        E 0 90 49 60
        E 0 90 4a 60
        E 0 90 54 60
        E 0 90 57 60
        E 0 90 60 60
        E 0 90 63 60
        E 0 90 66 60
        E 120 80 3d 00
        E 0 80 49 00
        E 0 80 4a 00
        E 240 80 54 00
        E 0 80 57 00
        E 60 80 60 00
        E 0 80 63 00
        E 0 80 66 00
        E 60 90 48 60
        E 0 90 4a 60
        E 0 90 54 60
        E 0 90 56 60
        E 0 90 60 60
        E 0 90 62 60
        E 0 90 66 60
        E 120 80 48 00
        E 0 80 4a 00
        E 240 80 54 00
        E 0 80 56 00
        E 61 80 60 00
        E 0 80 62 00
        E 0 80 66 00
        E 59 90 3c 60
        E 0 90 48 60
        E 0 90 4a 60
        E 0 90 54 60
        E 0 90 56 60
        E 0 90 60 60
        E 0 90 62 60
        E 0 90 66 60
        E 80 80 3c 00
        E 0 80 48 00
        E 0 80 4a 00
        E 0 80 54 00
        E 0 80 56 00
        E 0 80 60 00
        E 0 80 62 00
        E 0 80 66 00
        E 80 90 61 60
        E 0 90 63 60
        E 0 90 66 60
        E 80 80 61 00
        E 0 80 63 00
        E 0 80 66 00
        E 80 90 61 60
        E 0 90 64 60
        E 0 90 66 60
        E 80 80 61 00
        E 0 80 64 00
        E 0 80 66 00
        E 80 90 48 60
        E 0 90 54 60
        E 0 90 60 60
        E 0 90 66 60
        E 120 80 48 00
        E 240 80 54 00
        E 60 80 60 00
        E 0 80 66 00
        E 60 90 3f 60
        E 0 90 4a 60
        E 0 90 4c 60
        E 0 90 55 60
        E 0 90 58 60
        E 0 90 61 60
        E 0 90 64 60
        E 0 90 66 60
        E 120 80 3f 00
        E 0 80 4a 00
        E 0 80 4c 00
        E 240 80 55 00
        E 0 80 58 00
        E 60 80 61 00
        E 0 80 64 00
        E 0 80 66 00
        E 60 90 48 60
        E 0 90 54 60
        E 0 90 60 60
        E 0 90 66 60
        E 120 80 48 00
        E 240 80 54 00
        E 61 80 60 00
        E 0 80 66 00
        E 59 90 3c 60
        E 0 90 48 60
        E 0 90 54 60
        E 0 90 60 60
        E 0 90 66 60
        E 120 80 3c 00
        E 0 80 48 00
        E 0 80 54 00
        E 180 80 60 00
        E 0 80 66 00
        E 60 90 61 60
        E 0 90 64 60
        E 0 90 66 60
        E 60 80 61 00
        E 0 80 64 00
        E 0 80 66 00
        E 60 90 49 60
        E 0 90 4a 60
        E 0 90 54 60
        E 0 90 57 60
        E 0 90 60 60
        E 0 90 63 60
        E 0 90 66 60
        E 120 80 49 00
        E 0 80 4a 00
        E 240 80 54 00
        E 0 80 57 00
        E 60 80 60 00
        E 0 80 63 00
        E 0 80 66 00
        E 60 90 3d 60
        E 0 90 49 60
        E 0 90 4a 60
        E 0 90 54 60
        E 0 90 57 60
        E 0 90 60 60
        E 0 90 63 60
        E 0 90 66 60
        E 120 80 3d 00
        E 0 80 49 00
        E 0 80 4a 00
        E 240 80 54 00
        E 0 80 57 00
        E 60 80 60 00
        E 0 80 63 00
        E 0 80 66 00
        E 60 90 48 60
        E 0 90 4a 60
        E 0 90 54 60
        E 0 90 56 60
        E 0 90 60 60
        E 0 90 62 60
        E 0 90 66 60
        E 120 80 48 00
        E 0 80 4a 00
        E 240 80 54 00
        E 0 80 56 00
        E 61 80 60 00
        E 0 80 62 00
        E 0 80 66 00
        E 59 90 3c 60
        E 0 90 48 60
        E 0 90 4a 60
        E 0 90 54 60
        E 0 90 56 60
        E 0 90 60 60
        E 0 90 62 60
        E 0 90 66 60
        E 80 80 3c 00
        E 0 80 48 00
        E 0 80 4a 00
        E 0 80 54 00
        E 0 80 56 00
        E 0 80 60 00
        E 0 80 62 00
        E 0 80 66 00
        E 80 90 61 60
        E 0 90 62 60
        E 0 90 66 60
        E 80 80 61 00
        E 0 80 62 00
        E 0 80 66 00
        E 80 90 60 60
        E 0 90 61 60
        E 0 90 66 60
        E 80 80 60 00
        E 0 80 61 00
        E 0 80 66 00
        E 80 90 48 60
        E 0 90 54 60
        E 0 90 60 60
        E 0 90 66 60
        E 120 80 48 00
        E 240 80 54 00
        E 60 80 60 00
        E 0 80 66 00
        E 60 90 3f 60
        E 0 90 4a 60
        E 0 90 4c 60
        E 0 90 55 60
        E 0 90 58 60
        E 0 90 61 60
        E 0 90 64 60
        E 0 90 66 60
        E 120 80 3f 00
        E 0 80 4a 00
        E 0 80 4c 00
        E 240 80 55 00
        E 0 80 58 00
        E 60 80 61 00
        E 0 80 64 00
        E 0 80 66 00
        E 60 90 48 60
        E 0 90 54 60
        E 0 90 60 60
        E 0 90 66 60
        E 120 80 48 00
        E 240 80 54 00
        E 60 80 60 00
        E 0 80 66 00
        E 60 90 3c 60
        E 0 90 48 60
        E 0 90 54 60
        E 0 90 60 60
        E 0 90 66 60
        E 120 80 3c 00
        E 0 80 48 00
        E 0 80 54 00
        E 180 80 60 00
        E 0 80 66 00
        E 60 90 61 60
        E 0 90 64 60
        E 0 90 66 60
        E 60 80 61 00
        E 0 80 64 00
        E 0 80 66 00
        E 60 90 49 60
        E 0 90 4a 60
        E 0 90 54 60
        E 0 90 57 60
        E 0 90 60 60
        E 0 90 63 60
        E 0 90 66 60
        E 120 80 49 00
        E 0 80 4a 00
        E 240 80 54 00
        E 0 80 57 00
        E 60 80 60 00
        E 0 80 63 00
        E 0 80 66 00
        E 60 90 3d 60
        E 0 90 49 60
        E 0 90 4a 60
        E 0 90 54 60
        E 0 90 57 60
        E 0 90 60 60
        E 0 90 63 60
        E 0 90 66 60
        E 120 80 3d 00
        E 0 80 49 00
        E 0 80 4a 00
        E 240 80 54 00
        E 0 80 57 00
        E 60 80 60 00
        E 0 80 63 00
        E 0 80 66 00
        E 60 90 48 60
        E 0 90 4a 60
        E 0 90 54 60
        E 0 90 56 60
        E 0 90 60 60
        E 0 90 62 60
        E 0 90 66 60
        E 120 80 48 00
        E 0 80 4a 00
        E 240 80 54 00
        E 0 80 56 00
        E 60 80 60 00
        E 0 80 62 00
        E 0 80 66 00
        E 60 90 3c 60
        E 0 90 48 60
        E 0 90 4a 60
        E 0 90 54 60
        E 0 90 56 60
        E 0 90 60 60
        E 0 90 62 60
        E 0 90 66 60
        E 80 80 3c 00
        E 0 80 48 00
        E 0 80 4a 00
        E 0 80 54 00
        E 0 80 56 00
        E 0 80 60 00
        E 0 80 62 00
        E 0 80 66 00
        E 80 90 61 60
        E 0 90 63 60
        E 0 90 66 60
        E 80 80 61 00
        E 0 80 63 00
        E 0 80 66 00
        E 80 90 61 60
        E 0 90 64 60
        E 0 90 66 60
        E 80 80 61 00
        E 0 80 64 00
        E 0 80 66 00
        E 80 90 48 60
        E 0 90 54 60
        E 0 90 60 60
        E 0 90 66 60
        E 80 80 48 00
        E 0 80 54 00
        E 0 80 60 00
        E 0 80 66 00
        E 0 90 60 60
        E 0 90 66 60
        E 80 80 60 00
        E 0 80 66 00
        E 0 90 60 60
        E 0 90 66 60
        E 80 80 60 00
        E 0 80 66 00
        E 0 90 54 60
        E 0 90 60 60
        E 0 90 66 60
        E 80 80 54 00
        E 0 80 60 00
        E 0 80 66 00
        E 0 90 60 60
        E 0 90 66 60
        E 80 80 60 00
        E 0 80 66 00
        E 0 90 60 60
        E 0 90 66 60
        E 80 80 60 00
        E 0 80 66 00
        E 0 90 3e 60
        E 0 90 4b 60
        E 0 90 58 60
        E 0 90 64 60
        E 0 90 66 60
        E 80 80 3e 00
        E 0 80 4b 00
        E 0 80 58 00
        E 0 80 64 00
        E 0 80 66 00
        E 0 90 64 60
        E 0 90 66 60
        E 80 80 64 00
        E 0 80 66 00
        E 0 90 64 60
        E 0 90 66 60
        E 80 80 64 00
        E 0 80 66 00
        E 0 90 4b 60
        E 0 90 58 60
        E 0 90 64 60
        E 0 90 66 60
        E 80 80 4b 00
        E 0 80 58 00
        E 0 80 64 00
        E 0 80 66 00
        E 0 90 64 60
        E 0 90 66 60
        E 80 80 64 00
        E 0 80 66 00
        E 0 90 64 60
        E 0 90 66 60
        E 80 80 64 00
        E 0 80 66 00
        E 0 90 3e 60
        E 0 90 4b 60
        E 0 90 57 60
        E 0 90 63 60
        E 0 90 66 60
        E 80 80 3e 00
        E 0 80 4b 00
        E 0 80 57 00
        E 0 80 63 00
        E 0 80 66 00
        E 0 90 63 60
        E 0 90 66 60
        E 80 80 63 00
        E 0 80 66 00
        E 0 90 63 60
        E 0 90 66 60
        E 80 80 63 00
        E 0 80 66 00
        E 0 90 4b 60
        E 0 90 57 60
        E 0 90 63 60
        E 0 90 66 60
        E 80 80 4b 00
        E 0 80 57 00
        E 0 80 63 00
        E 0 80 66 00
        E 0 90 63 60
        E 0 90 66 60
        E 80 80 63 00
        E 0 80 66 00
        E 0 90 63 60
        E 0 90 66 60
        E 80 80 63 00
        E 0 80 66 00
        E 0 90 3e 60
        E 0 90 4b 60
        E 0 90 57 60
        E 0 90 63 60
        E 0 90 66 60
        E 80 80 3e 00
        E 0 80 4b 00
        E 0 80 57 00
        E 0 80 63 00
        E 0 80 66 00
        E 0 90 63 60
        E 0 90 66 60
        E 80 80 63 00
        E 0 80 66 00
        E 0 90 63 60
        E 0 90 66 60
        E 80 80 63 00
        E 0 80 66 00
        E 0 90 57 60
        E 0 90 63 60
        E 0 90 66 60
        E 80 80 57 00
        E 0 80 63 00
        E 0 80 66 00
        E 0 90 63 60
        E 0 90 66 60
        E 80 80 63 00
        E 0 80 66 00
        E 0 90 63 60
        E 0 90 66 60
        E 80 80 63 00
        E 0 80 66 00
        E 0 90 4a 60
        E 0 90 56 60
        E 0 90 62 60
        E 0 90 66 60
        E 80 80 4a 00
        E 0 80 56 00
        E 0 80 62 00
        E 0 80 66 00
        E 0 90 62 60
        E 0 90 66 60
        E 80 80 62 00
        E 0 80 66 00
        E 0 90 62 60
        E 0 90 66 60
        E 80 80 62 00
        E 0 80 66 00
        E 0 90 4a 60
        E 0 90 56 60
        E 0 90 62 60
        E 0 90 66 60
        E 80 80 4a 00
        E 0 80 56 00
        E 0 80 62 00
        E 0 80 66 00
        E 0 90 62 60
        E 0 90 66 60
        E 80 80 62 00
        E 0 80 66 00
        E 0 90 62 60
        E 0 90 66 60
        E 80 80 62 00
        E 0 80 66 00
        E 0 90 3d 60
        E 0 90 4a 60
        E 0 90 56 60
        E 0 90 62 60
        E 0 90 66 60
        E 80 80 3d 00
        E 0 80 4a 00
        E 0 80 56 00
        E 0 80 62 00
        E 0 80 66 00
        E 0 90 62 60
        E 0 90 66 60
        E 80 80 62 00
        E 0 80 66 00
        E 0 90 62 60
        E 0 90 66 60
        E 80 80 62 00
        E 0 80 66 00
        E 0 90 4a 60
        E 0 90 56 60
        E 0 90 62 60
        E 0 90 66 60
        E 80 80 4a 00
        E 0 80 56 00
        E 0 80 62 00
        E 0 80 66 00
        E 0 90 62 60
        E 0 90 66 60
        E 80 80 62 00
        E 0 80 66 00
        E 0 90 62 60
        E 0 90 66 60
        E 80 80 62 00
        E 0 80 66 00
        E 0 90 3d 60
        E 0 90 4a 60
        E 0 90 56 60
        E 0 90 62 60
        E 0 90 66 60
        E 80 80 3d 00
        E 0 80 4a 00
        E 0 80 56 00
        E 0 80 62 00
        E 0 80 66 00
        E 0 90 62 60
        E 0 90 66 60
        E 80 80 62 00
        E 0 80 66 00
        E 0 90 62 60
        E 0 90 66 60
        E 80 80 62 00
        E 0 80 66 00
        E 0 90 4a 60
        E 0 90 56 60
        E 0 90 62 60
        E 0 90 66 60
        E 80 80 4a 00
        E 0 80 56 00
        E 0 80 62 00
        E 0 80 66 00
        E 0 90 62 60
        E 0 90 66 60
        E 80 80 62 00
        E 0 80 66 00
        E 0 90 62 60
        E 0 90 66 60
        E 80 80 62 00
        E 0 80 66 00
        E 0 90 3d 60
        E 0 90 4a 60
        E 0 90 56 60
        E 0 90 62 60
        E 0 90 66 60
        E 80 80 3d 00
        E 0 80 4a 00
        E 0 80 56 00
        E 0 80 62 00
        E 0 80 66 00
        E 0 90 62 60
        E 0 90 66 60
        E 80 80 62 00
        E 0 80 66 00
        E 0 90 62 60
        E 0 90 66 60
        E 80 80 62 00
        E 0 80 66 00
        E 0 90 56 60
        E 0 90 62 60
        E 0 90 66 60
        E 80 80 56 00
        E 0 80 62 00
        E 0 80 66 00
        E 0 90 62 60
        E 0 90 66 60
        E 80 80 62 00
        E 0 80 66 00
        E 0 90 62 60
        E 0 90 66 60
        E 80 80 62 00
        E 0 80 66 00
        E 0 90 48 60
        E 0 90 54 60
        E 0 90 60 60
        E 0 90 66 60
        E 0 90 74 60
        E 80 80 48 00
        E 0 80 54 00
        E 0 80 60 00
        E 0 80 66 00
        E 0 90 60 60
        E 0 90 66 60
        E 80 80 60 00
        E 0 80 66 00
        E 0 90 60 60
        E 0 90 66 60
        E 80 80 60 00
        E 0 80 66 00
        E 0 90 54 60
        E 0 90 60 60
        E 0 90 66 60
        E 80 80 54 00
        E 0 80 60 00
        E 0 80 66 00
        E 0 90 60 60
        E 0 90 66 60
        E 80 80 60 00
        E 0 80 66 00
        E 0 90 60 60
        E 0 90 66 60
        E 80 80 60 00
        E 0 80 66 00
        E 0 90 3e 60
        E 0 90 4b 60
        E 0 90 58 60
        E 0 90 64 60
        E 0 90 66 60
        E 80 80 3e 00
        E 0 80 4b 00
        E 0 80 58 00
        E 0 80 64 00
        E 0 80 66 00
        E 0 90 64 60
        E 0 90 66 60
        E 80 80 64 00
        E 0 80 66 00
        E 0 90 64 60
        E 0 90 66 60
        E 80 80 64 00
        E 0 80 66 00
        E 0 90 4b 60
        E 0 90 58 60
        E 0 90 64 60
        E 0 90 66 60
        E 80 80 4b 00
        E 0 80 58 00
        E 0 80 64 00
        E 0 80 66 00
        E 0 90 64 60
        E 0 90 66 60
        E 80 80 64 00
        E 0 80 66 00
        E 0 90 64 60
        E 0 90 66 60
        E 80 80 64 00
        E 0 80 66 00
        E 0 90 3e 60
        E 0 90 4b 60
        E 0 90 57 60
        E 0 90 63 60
        E 0 90 66 60
        E 80 80 3e 00
        E 0 80 4b 00
        E 0 80 57 00
        E 0 80 63 00
        E 0 80 66 00
        E 0 90 63 60
        E 0 90 66 60
        E 80 80 63 00
        E 0 80 66 00
        E 0 90 63 60
        E 0 90 66 60
        E 80 80 63 00
        E 0 80 66 00
        E 0 90 4b 60
        E 0 90 57 60
        E 0 90 63 60
        E 0 90 66 60
        E 80 80 4b 00
        E 0 80 57 00
        E 0 80 63 00
        E 0 80 66 00
        E 0 90 63 60
        E 0 90 66 60
        E 80 80 63 00
        E 0 80 66 00
        E 0 90 63 60
        E 0 90 66 60
        E 80 80 63 00
        E 0 80 66 00
        E 0 90 3e 60
        E 0 90 4b 60
        E 0 90 57 60
        E 0 90 63 60
        E 0 90 66 60
        E 80 80 3e 00
        E 0 80 4b 00
        E 0 80 57 00
        E 0 80 63 00
        E 0 80 66 00
        E 0 90 63 60
        E 0 90 66 60
        E 80 80 63 00
        E 0 80 66 00
        E 0 90 63 60
        E 0 90 66 60
        E 80 80 63 00
        E 0 80 66 00
        E 0 90 57 60
        E 0 90 63 60
        E 0 90 66 60
        E 80 80 57 00
        E 0 80 63 00
        E 0 80 66 00
        E 0 90 63 60
        E 0 90 66 60
        E 80 80 63 00
        E 0 80 66 00
        E 0 90 63 60
        E 0 90 66 60
        E 80 80 74 00
        E 0 80 63 00
        E 0 80 66 00
        E 0 90 4a 60
        E 0 90 56 60
        E 0 90 62 60
        E 0 90 66 60
        E 80 80 4a 00
        E 0 80 56 00
        E 0 80 62 00
        E 0 80 66 00
        E 0 90 62 60
        E 0 90 66 60
        E 80 80 62 00
        E 0 80 66 00
        E 0 90 62 60
        E 0 90 66 60
        E 80 80 62 00
        E 0 80 66 00
        E 0 90 4a 60
        E 0 90 56 60
        E 0 90 62 60
        E 0 90 66 60
        E 80 80 4a 00
        E 0 80 56 00
        E 0 80 62 00
        E 0 80 66 00
        E 0 90 62 60
        E 0 90 66 60
        E 80 80 62 00
        E 0 80 66 00
        E 0 90 62 60
        E 0 90 66 60
        E 80 80 62 00
        E 0 80 66 00
        E 0 90 3d 60
        E 0 90 4a 60
        E 0 90 56 60
        E 0 90 62 60
        E 0 90 66 60
        E 80 80 3d 00
        E 0 80 4a 00
        E 0 80 56 00
        E 0 80 62 00
        E 0 80 66 00
        E 0 90 62 60
        E 0 90 66 60
        E 80 80 62 00
        E 0 80 66 00
        E 0 90 62 60
        E 0 90 66 60
        E 80 80 62 00
        E 0 80 66 00
        E 0 90 56 60
        E 0 90 62 60
        E 0 90 66 60
        E 80 80 56 00
        E 0 80 62 00
        E 0 80 66 00
        E 0 90 62 60
        E 0 90 66 60
        E 80 80 62 00
        E 0 80 66 00
        E 0 90 62 60
        E 0 90 66 60
        E 80 80 62 00
        E 0 80 66 00
        E 0 90 3d 60
        E 0 90 49 60
        E 0 90 55 60
        E 0 90 61 60
        E 0 90 66 60
        E 80 80 3d 00
        E 0 80 49 00
        E 0 80 55 00
        E 0 80 61 00
        E 0 80 66 00
        E 0 90 61 60
        E 0 90 66 60
        E 80 80 61 00
        E 0 80 66 00
        E 0 90 61 60
        E 0 90 66 60
        E 80 80 61 00
        E 0 80 66 00
        E 0 90 49 60
        E 0 90 55 60
        E 0 90 61 60
        E 0 90 66 60
        E 80 80 49 00
        E 0 80 55 00
        E 0 80 61 00
        E 0 80 66 00
        E 0 90 61 60
        E 0 90 66 60
        E 80 80 61 00
        E 0 80 66 00
        E 0 90 61 60
        E 0 90 66 60
        E 80 80 61 00
        E 0 80 66 00
        E 0 90 3d 60
        E 0 90 49 60
        E 0 90 55 60
        E 0 90 61 60
        E 0 90 66 60
        E 80 80 3d 00
        E 0 80 49 00
        E 0 80 55 00
        E 0 80 61 00
        E 0 80 66 00
        E 0 90 61 60
        E 0 90 66 60
        E 80 80 61 00
        E 0 80 66 00
        E 0 90 61 60
        E 0 90 66 60
        E 80 80 61 00
        E 0 80 66 00
        E 0 90 55 60
        E 0 90 61 60
        E 0 90 66 60
        E 80 80 55 00
        E 0 80 61 00
        E 0 80 66 00
        E 0 90 61 60
        E 0 90 66 60
        E 80 80 61 00
        E 0 80 66 00
        E 0 90 61 60
        E 0 90 66 60
        E 80 80 61 00
        E 0 80 66 00
        E 0 90 48 60
        E 0 90 54 60
        E 0 90 60 60
        E 0 90 66 60
        E 80 80 48 00
        E 0 80 54 00
        E 0 80 60 00
        E 0 80 66 00
        E 0 90 60 60
        E 0 90 66 60
        E 80 80 60 00
        E 0 80 66 00
        E 0 90 60 60
        E 0 90 66 60
        E 80 80 60 00
        E 0 80 66 00
        E 0 90 54 60
        E 0 90 60 60
        E 0 90 66 60
        E 80 80 54 00
        E 0 80 60 00
        E 0 80 66 00
        E 0 90 60 60
        E 0 90 66 60
        E 80 80 60 00
        E 0 80 66 00
        E 0 90 60 60
        E 0 90 66 60
        E 80 80 60 00
        E 0 80 66 00
        E 0 90 3e 60
        E 0 90 4b 60
        E 0 90 58 60
        E 0 90 64 60
        E 0 90 66 60
        E 80 80 3e 00
        E 0 80 4b 00
        E 0 80 58 00
        E 0 80 64 00
        E 0 80 66 00
        E 0 90 64 60
        E 0 90 66 60
        E 80 80 64 00
        E 0 80 66 00
        E 0 90 64 60
        E 0 90 66 60
        E 80 80 64 00
        E 0 80 66 00
        E 0 90 4b 60
        E 0 90 58 60
        E 0 90 64 60
        E 0 90 66 60
        E 80 80 4b 00
        E 0 80 58 00
        E 0 80 64 00
        E 0 80 66 00
        E 0 90 64 60
        E 0 90 66 60
        E 80 80 64 00
        E 0 80 66 00
        E 0 90 64 60
        E 0 90 66 60
        E 80 80 64 00
        E 0 80 66 00
        E 0 90 3e 60
        E 0 90 4b 60
        E 0 90 57 60
        E 0 90 63 60
        E 0 90 66 60
        E 80 80 3e 00
        E 0 80 4b 00
        E 0 80 57 00
        E 0 80 63 00
        E 0 80 66 00
        E 0 90 63 60
        E 0 90 66 60
        E 80 80 63 00
        E 0 80 66 00
        E 0 90 63 60
        E 0 90 66 60
        E 80 80 63 00
        E 0 80 66 00
        E 0 90 4b 60
        E 0 90 57 60
        E 0 90 63 60
        E 0 90 66 60
        E 80 80 4b 00
        E 0 80 57 00
        E 0 80 63 00
        E 0 80 66 00
        E 0 90 63 60
        E 0 90 66 60
        E 80 80 63 00
        E 0 80 66 00
        E 0 90 63 60
        E 0 90 66 60
        E 80 80 63 00
        E 0 80 66 00
        E 0 90 3e 60
        E 0 90 4b 60
        E 0 90 57 60
        E 0 90 63 60
        E 0 90 66 60
        E 80 80 3e 00
        E 0 80 4b 00
        E 0 80 57 00
        E 0 80 63 00
        E 0 80 66 00
        E 0 90 63 60
        E 0 90 66 60
        E 80 80 63 00
        E 0 80 66 00
        E 0 90 63 60
        E 0 90 66 60
        E 80 80 63 00
        E 0 80 66 00
        E 0 90 57 60
        E 0 90 63 60
        E 0 90 66 60
        E 80 80 57 00
        E 0 80 63 00
        E 0 80 66 00
        E 0 90 63 60
        E 0 90 66 60
        E 80 80 63 00
        E 0 80 66 00
        E 0 90 63 60
        E 0 90 66 60
        E 80 80 63 00
        E 0 80 66 00
        E 0 90 4a 60
        E 0 90 56 60
        E 0 90 62 60
        E 0 90 66 60
        E 80 80 4a 00
        E 0 80 56 00
        E 0 80 62 00
        E 0 80 66 00
        E 0 90 62 60
        E 0 90 66 60
        E 80 80 62 00
        E 0 80 66 00
        E 0 90 62 60
        E 0 90 66 60
        E 80 80 62 00
        E 0 80 66 00
        E 0 90 4a 60
        E 0 90 56 60
        E 0 90 62 60
        E 0 90 66 60
        E 80 80 4a 00
        E 0 80 56 00
        E 0 80 62 00
        E 0 80 66 00
        E 0 90 62 60
        E 0 90 66 60
        E 80 80 62 00
        E 0 80 66 00
        E 0 90 62 60
        E 0 90 66 60
        E 80 80 62 00
        E 0 80 66 00
        E 0 90 3d 60
        E 0 90 4a 60
        E 0 90 56 60
        E 0 90 62 60
        E 0 90 66 60
        E 80 80 3d 00
        E 0 80 4a 00
        E 0 80 56 00
        E 0 80 62 00
        E 0 80 66 00
        E 0 90 62 60
        E 0 90 66 60
        E 80 80 62 00
        E 0 80 66 00
        E 0 90 62 60
        E 0 90 66 60
        E 80 80 62 00
        E 0 80 66 00
        E 0 90 4a 60
        E 0 90 56 60
        E 0 90 62 60
        E 0 90 66 60
        E 80 80 4a 00
        E 0 80 56 00
        E 0 80 62 00
        E 0 80 66 00
        E 0 90 62 60
        E 0 90 66 60
        E 80 80 62 00
        E 0 80 66 00
        E 0 90 62 60
        E 0 90 66 60
        E 80 80 62 00
        E 0 80 66 00
        E 0 90 3d 60
        E 0 90 4a 60
        E 0 90 56 60
        E 0 90 62 60
        E 0 90 66 60
        E 80 80 3d 00
        E 0 80 4a 00
        E 0 80 56 00
        E 0 80 62 00
        E 0 80 66 00
        E 0 90 62 60
        E 0 90 66 60
        E 80 80 62 00
        E 0 80 66 00
        E 0 90 62 60
        E 0 90 66 60
        E 80 80 62 00
        E 0 80 66 00
        E 0 90 4a 60
        E 0 90 56 60
        E 0 90 62 60
        E 0 90 66 60
        E 80 80 4a 00
        E 0 80 56 00
        E 0 80 62 00
        E 0 80 66 00
        E 0 90 62 60
        E 0 90 66 60
        E 80 80 62 00
        E 0 80 66 00
        E 0 90 62 60
        E 0 90 66 60
        E 80 80 62 00
        E 0 80 66 00
        E 0 90 3d 60
        E 0 90 4a 60
        E 0 90 56 60
        E 0 90 62 60
        E 0 90 66 60
        E 80 80 3d 00
        E 0 80 4a 00
        E 0 80 56 00
        E 0 80 62 00
        E 0 80 66 00
        E 0 90 62 60
        E 0 90 66 60
        E 80 80 62 00
        E 0 80 66 00
        E 0 90 62 60
        E 0 90 66 60
        E 80 80 62 00
        E 0 80 66 00
        E 0 90 56 60
        E 0 90 62 60
        E 0 90 66 60
        E 80 80 56 00
        E 0 80 62 00
        E 0 80 66 00
        E 0 90 62 60
        E 0 90 66 60
        E 80 80 62 00
        E 0 80 66 00
        E 0 90 62 60
        E 0 90 66 60
        E 80 80 62 00
        E 0 80 66 00
        E 0 90 48 60
        E 0 90 54 60
        E 0 90 60 60
        E 0 90 66 60
        E 80 80 48 00
        E 0 80 54 00
        E 0 80 60 00
        E 0 80 66 00
        E 0 90 60 60
        E 0 90 66 60
        E 80 80 60 00
        E 0 80 66 00
        E 0 90 60 60
        E 0 90 66 60
        E 80 80 60 00
        E 0 80 66 00
        E 0 90 54 60
        E 0 90 60 60
        E 0 90 66 60
        E 80 80 54 00
        E 0 80 60 00
        E 0 80 66 00
        E 0 90 60 60
        E 0 90 66 60
        E 80 80 60 00
        E 0 80 66 00
        E 0 90 60 60
        E 0 90 66 60
        E 80 80 60 00
        E 0 80 66 00
        E 0 90 3e 60
        E 0 90 4b 60
        E 0 90 58 60
        E 0 90 64 60
        E 0 90 66 60
        E 80 80 3e 00
        E 0 80 4b 00
        E 0 80 58 00
        E 0 80 64 00
        E 0 80 66 00
        E 0 90 64 60
        E 0 90 66 60
        E 80 80 64 00
        E 0 80 66 00
        E 0 90 64 60
        E 0 90 66 60
        E 80 80 64 00
        E 0 80 66 00
        E 0 90 4b 60
        E 0 90 58 60
        E 0 90 64 60
        E 0 90 66 60
        E 80 80 4b 00
        E 0 80 58 00
        E 0 80 64 00
        E 0 80 66 00
        E 0 90 64 60
        E 0 90 66 60
        E 80 80 64 00
        E 0 80 66 00
        E 0 90 64 60
        E 0 90 66 60
        E 80 80 64 00
        E 0 80 66 00
        E 0 90 3e 60
        E 0 90 4b 60
        E 0 90 57 60
        E 0 90 63 60
        E 0 90 66 60
        E 80 80 3e 00
        E 0 80 4b 00
        E 0 80 57 00
        E 0 80 63 00
        E 0 80 66 00
        E 0 90 63 60
        E 0 90 66 60
        E 80 80 63 00
        E 0 80 66 00
        E 0 90 63 60
        E 0 90 66 60
        E 80 80 63 00
        E 0 80 66 00
        E 0 90 4b 60
        E 0 90 57 60
        E 0 90 63 60
        E 0 90 66 60
        E 80 80 4b 00
        E 0 80 57 00
        E 0 80 63 00
        E 0 80 66 00
        E 0 90 63 60
        E 0 90 66 60
        E 80 80 63 00
        E 0 80 66 00
        E 0 90 63 60
        E 0 90 66 60
        E 80 80 63 00
        E 0 80 66 00
        E 0 90 3e 60
        E 0 90 4b 60
        E 0 90 57 60
        E 0 90 63 60
        E 0 90 66 60
        E 80 80 3e 00
        E 0 80 4b 00
        E 0 80 57 00
        E 0 80 63 00
        E 0 80 66 00
        E 0 90 63 60
        E 0 90 66 60
        E 80 80 63 00
        E 0 80 66 00
        E 0 90 63 60
        E 0 90 66 60
        E 80 80 63 00
        E 0 80 66 00
        E 0 90 57 60
        E 0 90 63 60
        E 0 90 66 60
        E 80 80 57 00
        E 0 80 63 00
        E 0 80 66 00
        E 0 90 63 60
        E 0 90 66 60
        E 80 80 63 00
        E 0 80 66 00
        E 0 90 63 60
        E 0 90 66 60
        E 80 80 63 00
        E 0 80 66 00
        E 0 90 4a 60
        E 0 90 56 60
        E 0 90 62 60
        E 0 90 66 60
        E 80 80 4a 00
        E 0 80 56 00
        E 0 80 62 00
        E 0 80 66 00
        E 0 90 62 60
        E 0 90 66 60
        E 80 80 62 00
        E 0 80 66 00
        E 0 90 62 60
        E 0 90 66 60
        E 80 80 62 00
        E 0 80 66 00
        E 0 90 4a 60
        E 0 90 56 60
        E 0 90 62 60
        E 0 90 66 60
        E 80 80 4a 00
        E 0 80 56 00
        E 0 80 62 00
        E 0 80 66 00
        E 0 90 62 60
        E 0 90 66 60
        E 80 80 62 00
        E 0 80 66 00
        E 0 90 62 60
        E 0 90 66 60
        E 80 80 62 00
        E 0 80 66 00
        E 0 90 3d 60
        E 0 90 4a 60
        E 0 90 56 60
        E 0 90 62 60
        E 0 90 66 60
        E 80 80 3d 00
        E 0 80 4a 00
        E 0 80 56 00
        E 0 80 62 00
        E 0 80 66 00
        E 0 90 62 60
        E 0 90 66 60
        E 80 80 62 00
        E 0 80 66 00
        E 0 90 62 60
        E 0 90 66 60
        E 80 80 62 00
        E 0 80 66 00
        E 0 90 56 60
        E 0 90 62 60
        E 0 90 66 60
        E 80 80 56 00
        E 0 80 62 00
        E 0 80 66 00
        E 0 90 62 60
        E 0 90 66 60
        E 80 80 62 00
        E 0 80 66 00
        E 0 90 62 60
        E 0 90 66 60
        E 80 80 62 00
        E 0 80 66 00
        E 0 90 3d 60
        E 0 90 49 60
        E 0 90 55 60
        E 0 90 61 60
        E 0 90 66 60
        E 80 80 3d 00
        E 0 80 49 00
        E 0 80 55 00
        E 0 80 61 00
        E 0 80 66 00
        E 0 90 61 60
        E 0 90 66 60
        E 80 80 61 00
        E 0 80 66 00
        E 0 90 61 60
        E 0 90 66 60
        E 80 80 61 00
        E 0 80 66 00
        E 0 90 49 60
        E 0 90 55 60
        E 0 90 61 60
        E 0 90 66 60
        E 80 80 49 00
        E 0 80 55 00
        E 0 80 61 00
        E 0 80 66 00
        E 0 90 61 60
        E 0 90 66 60
        E 80 80 61 00
        E 0 80 66 00
        E 0 90 61 60
        E 0 90 66 60
        E 80 80 61 00
        E 0 80 66 00
        E 0 90 3d 60
        E 0 90 49 60
        E 0 90 55 60
        E 0 90 61 60
        E 0 90 66 60
        E 80 80 3d 00
        E 0 80 49 00
        E 0 80 55 00
        E 0 80 61 00
        E 0 80 66 00
        E 0 90 61 60
        E 0 90 66 60
        E 80 80 61 00
        E 0 80 66 00
        E 0 90 61 60
        E 0 90 66 60
        E 80 80 61 00
        E 0 80 66 00
        E 0 90 55 60
        E 0 90 61 60
        E 0 90 66 60
        E 80 80 55 00
        E 0 80 61 00
        E 0 80 66 00
        E 0 90 61 60
        E 0 90 66 60
        E 80 80 61 00
        E 0 80 66 00
        E 0 90 61 60
        E 0 90 66 60
        E 80 80 61 00
        E 0 80 66 00
        E 0 90 48 60
        E 0 90 54 60
        E 0 90 60 60
        E 0 90 66 60
        E 120 80 48 00
        E 240 80 54 00
        E 61 80 60 00
        E 0 80 66 00
        E 59 90 3f 60
        E 0 90 4a 60
        E 0 90 4c 60
        E 0 90 55 60
        E 0 90 58 60
        E 0 90 61 60
        E 0 90 64 60
        E 0 90 66 60
        E 120 80 3f 00
        E 0 80 4a 00
        E 0 80 4c 00
        E 240 80 55 00
        E 0 80 58 00
        E 60 80 61 00
        E 0 80 64 00
        E 0 80 66 00
        E 60 90 48 60
        E 0 90 54 60
        E 0 90 60 60
        E 0 90 66 60
        E 120 80 48 00
        E 240 80 54 00
        E 60 80 60 00
        E 0 80 66 00
        E 60 90 3c 60
        E 0 90 48 60
        E 0 90 54 60
        E 0 90 60 60
        E 0 90 66 60
        E 120 80 3c 00
        E 0 80 48 00
        E 0 80 54 00
        E 179 80 60 00
        E 0 80 66 00
        E 61 90 61 60
        E 0 90 64 60
        E 0 90 66 60
        E 59 80 61 00
        E 0 80 64 00
        E 0 80 66 00
        E 61 90 49 60
        E 0 90 4a 60
        E 0 90 54 60
        E 0 90 57 60
        E 0 90 60 60
        E 0 90 63 60
        E 0 90 66 60
        E 120 80 49 00
        E 0 80 4a 00
        E 240 80 54 00
        E 0 80 57 00
        E 60 80 60 00
        E 0 80 63 00
        E 0 80 66 00
        E 60 90 3d 60
        E 0 90 49 60
        E 0 90 4a 60
        E 0 90 54 60
        E 0 90 57 60
        E 0 90 60 60
        E 0 90 63 60
        E 0 90 66 60
        E 120 80 3d 00
        E 0 80 49 00
        E 0 80 4a 00
        E 240 80 54 00
        E 0 80 57 00
        E 60 80 60 00
        E 0 80 63 00
        E 0 80 66 00
        E 60 90 48 60
        E 0 90 4a 60
        E 0 90 54 60
        E 0 90 56 60
        E 0 90 60 60
        E 0 90 62 60
        E 0 90 66 60
        E 120 80 48 00
        E 0 80 4a 00
        E 240 80 54 00
        E 0 80 56 00
        E 60 80 60 00
        E 0 80 62 00
        E 0 80 66 00
        E 60 90 3c 60
        E 0 90 48 60
        E 0 90 4a 60
        E 0 90 54 60
        E 0 90 56 60
        E 0 90 60 60
        E 0 90 62 60
        E 0 90 66 60
        E 80 80 3c 00
        E 0 80 48 00
        E 0 80 4a 00
        E 0 80 54 00
        E 0 80 56 00
        E 0 80 60 00
        E 0 80 62 00
        E 0 80 66 00
        E 80 90 61 60
        E 0 90 62 60
        E 0 90 66 60
        E 80 80 61 00
        E 0 80 62 00
        E 0 80 66 00
        E 80 90 60 60
        E 0 90 61 60
        E 0 90 66 60
        E 80 80 60 00
        E 0 80 61 00
        E 0 80 66 00
        E 80 90 48 60
        E 0 90 54 60
        E 0 90 60 60
        E 0 90 66 60
        E 120 80 48 00
        E 240 80 54 00
        E 61 80 60 00
        E 0 80 66 00
        E 59 90 3f 60
        E 0 90 4a 60
        E 0 90 4c 60
        E 0 90 55 60
        E 0 90 58 60
        E 0 90 61 60
        E 0 90 64 60
        E 0 90 66 60
        E 120 80 3f 00
        E 0 80 4a 00
        E 0 80 4c 00
        E 240 80 55 00
        E 0 80 58 00
        E 60 80 61 00
        E 0 80 64 00
        E 0 80 66 00
        E 60 90 48 60
        E 0 90 54 60
        E 0 90 60 60
        E 0 90 66 60
        E 120 80 48 00
        E 240 80 54 00
        E 60 80 60 00
        E 0 80 66 00
        E 60 90 3c 60
        E 0 90 48 60
        E 0 90 54 60
        E 0 90 60 60
        E 0 90 66 60
        E 120 80 3c 00
        E 0 80 48 00
        E 0 80 54 00
        E 179 80 60 00
        E 0 80 66 00
        E 61 90 61 60
        E 0 90 64 60
        E 0 90 66 60
        E 59 80 61 00
        E 0 80 64 00
        E 0 80 66 00
        E 61 90 74 60
        E 0 90 49 60
        E 0 90 4a 60
        E 0 90 54 60
        E 0 90 57 60
        E 0 90 60 60
        E 0 90 63 60
        E 0 90 66 60
        E 120 80 49 00
        E 0 80 4a 00
        E 240 80 54 00
        E 0 80 57 00
        E 60 80 60 00
        E 0 80 63 00
        E 0 80 66 00
        E 60 90 3d 60
        E 0 90 49 60
        E 0 90 4a 60
        E 0 90 54 60
        E 0 90 57 60
        E 0 90 60 60
        E 0 90 63 60
        E 0 90 66 60
        E 120 80 3d 00
        E 0 80 49 00
        E 0 80 4a 00
        E 240 80 54 00
        E 0 80 57 00
        E 60 80 60 00
        E 0 80 63 00
        E 0 80 66 00
        E 60 90 48 60
        E 0 90 4a 60
        E 0 90 54 60
        E 0 90 56 60
        E 0 90 60 60
        E 0 90 62 60
        E 0 90 66 60
        E 120 80 48 00
        E 0 80 4a 00
        E 240 80 54 00
        E 0 80 56 00
        E 60 80 60 00
        E 0 80 62 00
        E 0 80 66 00
        E 60 90 3c 60
        E 0 90 48 60
        E 0 90 4a 60
        E 0 90 54 60
        E 0 90 56 60
        E 0 90 60 60
        E 0 90 62 60
        E 0 90 66 60
        E 80 80 3c 00
        E 0 80 48 00
        E 0 80 4a 00
        E 0 80 54 00
        E 0 80 56 00
        E 0 80 60 00
        E 0 80 62 00
        E 0 80 66 00
        E 80 90 61 60
        E 0 90 63 60
        E 0 90 66 60
        E 80 80 61 00
        E 0 80 63 00
        E 0 80 66 00
        E 80 90 61 60
        E 0 90 64 60
        E 0 90 66 60
        E 80 80 61 00
        E 0 80 64 00
        E 0 80 66 00
        E 80 80 74 00
        E 0 90 48 60
        E 0 90 54 60
        E 0 90 60 60
        E 0 90 66 60
        E 120 80 48 00
        E 240 80 54 00
        E 61 80 60 00
        E 0 80 66 00
        E 59 90 3f 60
        E 0 90 4a 60
        E 0 90 4c 60
        E 0 90 55 60
        E 0 90 58 60
        E 0 90 61 60
        E 0 90 64 60
        E 0 90 66 60
        E 120 80 3f 00
        E 0 80 4a 00
        E 0 80 4c 00
        E 240 80 55 00
        E 0 80 58 00
        E 60 80 61 00
        E 0 80 64 00
        E 0 80 66 00
        E 60 90 48 60
        E 0 90 54 60
        E 0 90 60 60
        E 0 90 66 60
        E 120 80 48 00
        E 240 80 54 00
        E 60 80 60 00
        E 0 80 66 00
        E 60 90 3c 60
        E 0 90 48 60
        E 0 90 54 60
        E 0 90 60 60
        E 0 90 66 60
        E 120 80 3c 00
        E 0 80 48 00
        E 0 80 54 00
        E 179 80 60 00
        E 0 80 66 00
        E 61 90 61 60
        E 0 90 64 60
        E 0 90 66 60
        E 59 80 61 00
        E 0 80 64 00
        E 0 80 66 00
        E 61 90 49 60
        E 0 90 4a 60
        E 0 90 54 60
        E 0 90 57 60
        E 0 90 60 60
        E 0 90 63 60
        E 0 90 66 60
        E 120 80 49 00
        E 0 80 4a 00
        E 240 80 54 00
        E 0 80 57 00
        E 60 80 60 00
        E 0 80 63 00
        E 0 80 66 00
        E 60 90 3d 60
        E 0 90 49 60
        E 0 90 4a 60
        E 0 90 54 60
        E 0 90 57 60
        E 0 90 60 60
        E 0 90 63 60
        E 0 90 66 60
        E 120 80 3d 00
        E 0 80 49 00
        E 0 80 4a 00
        E 240 80 54 00
        E 0 80 57 00
        E 61 80 60 00
        E 0 80 63 00
        E 0 80 66 00
        E 59 90 48 60
        E 0 90 4a 60
        E 0 90 54 60
        E 0 90 56 60
        E 0 90 60 60
        E 0 90 62 60
        E 0 90 66 60
        E 120 80 48 00
        E 0 80 4a 00
        E 240 80 54 00
        E 0 80 56 00
        E 60 80 60 00
        E 0 80 62 00
        E 0 80 66 00
        E 60 90 3c 60
        E 0 90 48 60
        E 0 90 4a 60
        E 0 90 54 60
        E 0 90 56 60
        E 0 90 60 60
        E 0 90 62 60
        E 0 90 66 60
        E 80 80 3c 00
        E 0 80 48 00
        E 0 80 4a 00
        E 0 80 54 00
        E 0 80 56 00
        E 0 80 60 00
        E 0 80 62 00
        E 0 80 66 00
        E 80 90 61 60
        E 0 90 62 60
        E 0 90 66 60
        E 80 80 61 00
        E 0 80 62 00
        E 0 80 66 00
        E 80 90 60 60
        E 0 90 61 60
        E 0 90 66 60
        E 80 80 60 00
        E 0 80 61 00
        E 0 80 66 00
        E 80 90 48 60
        E 0 90 54 60
        E 0 90 60 60
        E 0 90 66 60
        E 120 80 48 00
        E 240 80 54 00
        E 61 80 60 00
        E 0 80 66 00
        E 59 90 3f 60
        E 0 90 4a 60
        E 0 90 4c 60
        E 0 90 55 60
        E 0 90 58 60
        E 0 90 61 60
        E 0 90 64 60
        E 0 90 66 60
        E 120 80 3f 00
        E 0 80 4a 00
        E 0 80 4c 00
        E 240 80 55 00
        E 0 80 58 00
        E 61 80 61 00
        E 0 80 64 00
        E 0 80 66 00
        E 59 90 48 60
        E 0 90 54 60
        E 0 90 60 60
        E 0 90 66 60
        E 120 80 48 00
        E 240 80 54 00
        E 60 80 60 00
        E 0 80 66 00
        E 60 90 3c 60
        E 0 90 48 60
        E 0 90 54 60
        E 0 90 60 60
        E 0 90 66 60
        E 120 80 3c 00
        E 0 80 48 00
        E 0 80 54 00
        E 179 80 60 00
        E 0 80 66 00
        E 61 90 61 60
        E 0 90 64 60
        E 0 90 66 60
        E 59 80 61 00
        E 0 80 64 00
        E 0 80 66 00
        E 61 90 49 60
        E 0 90 4a 60
        E 0 90 54 60
        E 0 90 57 60
        E 0 90 60 60
        E 0 90 63 60
        E 0 90 66 60
        E 120 80 49 00
        E 0 80 4a 00
        E 240 80 54 00
        E 0 80 57 00
        E 60 80 60 00
        E 0 80 63 00
        E 0 80 66 00
        E 60 90 3d 60
        E 0 90 49 60
        E 0 90 4a 60
        E 0 90 54 60
        E 0 90 57 60
        E 0 90 60 60
        E 0 90 63 60
        E 0 90 66 60
        E 120 80 3d 00
        E 0 80 49 00
        E 0 80 4a 00
        E 240 80 54 00
        E 0 80 57 00
        E 61 80 60 00
        E 0 80 63 00
        E 0 80 66 00
        E 59 90 48 60
        E 0 90 4a 60
        E 0 90 54 60
        E 0 90 56 60
        E 0 90 60 60
        E 0 90 62 60
        E 0 90 66 60
        E 120 80 48 00
        E 0 80 4a 00
        E 240 80 54 00
        E 0 80 56 00
        E 60 80 60 00
        E 0 80 62 00
        E 0 80 66 00
        E 60 90 3c 60
        E 0 90 48 60
        E 0 90 4a 60
        E 0 90 54 60
        E 0 90 56 60
        E 0 90 60 60
        E 0 90 62 60
        E 0 90 66 60
        E 80 80 3c 00
        E 0 80 48 00
        E 0 80 4a 00
        E 0 80 54 00
        E 0 80 56 00
        E 0 80 60 00
        E 0 80 62 00
        E 0 80 66 00
        E 80 90 61 60
        E 0 90 63 60
        E 0 90 66 60
        E 80 80 61 00
        E 0 80 63 00
        E 0 80 66 00
        E 80 90 61 60
        E 0 90 64 60
        E 0 90 66 60
        E 80 80 61 00
        E 0 80 64 00
        E 0 80 66 00
        E 80 90 48 60
        E 0 90 54 60
        E 0 90 60 60
        E 0 90 66 60
        E 80 80 48 00
        E 0 80 54 00
        E 0 80 60 00
        E 0 80 66 00
        E 0 90 60 60
        E 0 90 66 60
        E 80 80 60 00
        E 0 80 66 00
        E 0 90 60 60
        E 0 90 66 60
        E 80 80 60 00
        E 0 80 66 00
        E 0 90 54 60
        E 0 90 60 60
        E 0 90 66 60
        E 80 80 54 00
        E 0 80 60 00
        E 0 80 66 00
        E 0 90 60 60
        E 0 90 66 60
        E 80 80 60 00
        E 0 80 66 00
        E 0 90 60 60
        E 0 90 66 60
        E 80 80 60 00
        E 0 80 66 00
        E 0 90 3e 60
        E 0 90 4b 60
        E 0 90 58 60
        E 0 90 64 60
        E 0 90 66 60
        E 80 80 3e 00
        E 0 80 4b 00
        E 0 80 58 00
        E 0 80 64 00
        E 0 80 66 00
        E 0 90 64 60
        E 0 90 66 60
        E 80 80 64 00
        E 0 80 66 00
        E 0 90 64 60
        E 0 90 66 60
        E 80 80 64 00
        E 0 80 66 00
        E 0 90 4b 60
        E 0 90 58 60
        E 0 90 64 60
        E 0 90 66 60
        E 80 80 4b 00
        E 0 80 58 00
        E 0 80 64 00
        E 0 80 66 00
        E 0 90 64 60
        E 0 90 66 60
        E 80 80 64 00
        E 0 80 66 00
        E 0 90 64 60
        E 0 90 66 60
        E 80 80 64 00
        E 0 80 66 00
        E 0 90 3e 60
        E 0 90 4b 60
        E 0 90 57 60
        E 0 90 63 60
        E 0 90 66 60
        E 80 80 3e 00
        E 0 80 4b 00
        E 0 80 57 00
        E 0 80 63 00
        E 0 80 66 00
        E 0 90 63 60
        E 0 90 66 60
        E 80 80 63 00
        E 0 80 66 00
        E 0 90 63 60
        E 0 90 66 60
        E 80 80 63 00
        E 0 80 66 00
        E 0 90 4b 60
        E 0 90 57 60
        E 0 90 63 60
        E 0 90 66 60
        E 80 80 4b 00
        E 0 80 57 00
        E 0 80 63 00
        E 0 80 66 00
        E 0 90 63 60
        E 0 90 66 60
        E 80 80 63 00
        E 0 80 66 00
        E 0 90 63 60
        E 0 90 66 60
        E 80 80 63 00
        E 0 80 66 00
        E 0 90 3e 60
        E 0 90 4b 60
        E 0 90 57 60
        E 0 90 63 60
        E 0 90 66 60
        E 80 80 3e 00
        E 0 80 4b 00
        E 0 80 57 00
        E 0 80 63 00
        E 0 80 66 00
        E 0 90 63 60
        E 0 90 66 60
        E 80 80 63 00
        E 0 80 66 00
        E 0 90 63 60
        E 0 90 66 60
        E 80 80 63 00
        E 0 80 66 00
        E 0 90 57 60
        E 0 90 63 60
        E 0 90 66 60
        E 80 80 57 00
        E 0 80 63 00
        E 0 80 66 00
        E 0 90 63 60
        E 0 90 66 60
        E 80 80 63 00
        E 0 80 66 00
        E 0 90 63 60
        E 0 90 66 60
        E 80 80 63 00
        E 0 80 66 00
        E 0 90 4a 60
        E 0 90 56 60
        E 0 90 62 60
        E 0 90 66 60
        E 80 80 4a 00
        E 0 80 56 00
        E 0 80 62 00
        E 0 80 66 00
        E 0 90 62 60
        E 0 90 66 60
        E 80 80 62 00
        E 0 80 66 00
        E 0 90 62 60
        E 0 90 66 60
        E 80 80 62 00
        E 0 80 66 00
        E 0 90 4a 60
        E 0 90 56 60
        E 0 90 62 60
        E 0 90 66 60
        E 80 80 4a 00
        E 0 80 56 00
        E 0 80 62 00
        E 0 80 66 00
        E 0 90 62 60
        E 0 90 66 60
        E 80 80 62 00
        E 0 80 66 00
        E 0 90 62 60
        E 0 90 66 60
        E 80 80 62 00
        E 0 80 66 00
        E 0 90 3d 60
        E 0 90 4a 60
        E 0 90 56 60
        E 0 90 62 60
        E 0 90 66 60
        E 80 80 3d 00
        E 0 80 4a 00
        E 0 80 56 00
        E 0 80 62 00
        E 0 80 66 00
        E 0 90 62 60
        E 0 90 66 60
        E 80 80 62 00
        E 0 80 66 00
        E 0 90 62 60
        E 0 90 66 60
        E 80 80 62 00
        E 0 80 66 00
        E 0 90 4a 60
        E 0 90 56 60
        E 0 90 62 60
        E 0 90 66 60
        E 80 80 4a 00
        E 0 80 56 00
        E 0 80 62 00
        E 0 80 66 00
        E 0 90 62 60
        E 0 90 66 60
        E 80 80 62 00
        E 0 80 66 00
        E 0 90 62 60
        E 0 90 66 60
        E 80 80 62 00
        E 0 80 66 00
        E 0 90 3d 60
        E 0 90 4a 60
        E 0 90 56 60
        E 0 90 62 60
        E 0 90 66 60
        E 80 80 3d 00
        E 0 80 4a 00
        E 0 80 56 00
        E 0 80 62 00
        E 0 80 66 00
        E 0 90 62 60
        E 0 90 66 60
        E 80 80 62 00
        E 0 80 66 00
        E 0 90 62 60
        E 0 90 66 60
        E 80 80 62 00
        E 0 80 66 00
        E 0 90 4a 60
        E 0 90 56 60
        E 0 90 62 60
        E 0 90 66 60
        E 80 80 4a 00
        E 0 80 56 00
        E 0 80 62 00
        E 0 80 66 00
        E 0 90 62 60
        E 0 90 66 60
        E 80 80 62 00
        E 0 80 66 00
        E 0 90 62 60
        E 0 90 66 60
        E 80 80 62 00
        E 0 80 66 00
        E 0 90 3d 60
        E 0 90 4a 60
        E 0 90 56 60
        E 0 90 62 60
        E 0 90 66 60
        E 80 80 3d 00
        E 0 80 4a 00
        E 0 80 56 00
        E 0 80 62 00
        E 0 80 66 00
        E 0 90 62 60
        E 0 90 66 60
        E 80 80 62 00
        E 0 80 66 00
        E 0 90 62 60
        E 0 90 66 60
        E 80 80 62 00
        E 0 80 66 00
        E 0 90 56 60
        E 0 90 62 60
        E 0 90 66 60
        E 80 80 56 00
        E 0 80 62 00
        E 0 80 66 00
        E 0 90 62 60
        E 0 90 66 60
        E 80 80 62 00
        E 0 80 66 00
        E 0 90 62 60
        E 0 90 66 60
        E 80 80 62 00
        E 0 80 66 00
        E 0 90 48 60
        E 0 90 54 60
        E 0 90 60 60
        E 0 90 66 60
        E 80 80 48 00
        E 0 80 54 00
        E 0 80 60 00
        E 0 80 66 00
        E 0 90 60 60
        E 0 90 66 60
        E 80 80 60 00
        E 0 80 66 00
        E 0 90 60 60
        E 0 90 66 60
        E 80 80 60 00
        E 0 80 66 00
        E 0 90 54 60
        E 0 90 60 60
        E 0 90 66 60
        E 80 80 54 00
        E 0 80 60 00
        E 0 80 66 00
        E 0 90 60 60
        E 0 90 66 60
        E 80 80 60 00
        E 0 80 66 00
        E 0 90 60 60
        E 0 90 66 60
        E 80 80 60 00
        E 0 80 66 00
        E 0 90 3e 60
        E 0 90 4b 60
        E 0 90 58 60
        E 0 90 64 60
        E 0 90 66 60
        E 80 80 3e 00
        E 0 80 4b 00
        E 0 80 58 00
        E 0 80 64 00
        E 0 80 66 00
        E 0 90 64 60
        E 0 90 66 60
        E 80 80 64 00
        E 0 80 66 00
        E 0 90 64 60
        E 0 90 66 60
        E 80 80 64 00
        E 0 80 66 00
        E 0 90 4b 60
        E 0 90 58 60
        E 0 90 64 60
        E 0 90 66 60
        E 80 80 4b 00
        E 0 80 58 00
        E 0 80 64 00
        E 0 80 66 00
        E 0 90 64 60
        E 0 90 66 60
        E 80 80 64 00
        E 0 80 66 00
        E 0 90 64 60
        E 0 90 66 60
        E 80 80 64 00
        E 0 80 66 00
        E 0 90 3e 60
        E 0 90 4b 60
        E 0 90 57 60
        E 0 90 63 60
        E 0 90 66 60
        E 80 80 3e 00
        E 0 80 4b 00
        E 0 80 57 00
        E 0 80 63 00
        E 0 80 66 00
        E 0 90 63 60
        E 0 90 66 60
        E 80 80 63 00
        E 0 80 66 00
        E 0 90 63 60
        E 0 90 66 60
        E 80 80 63 00
        E 0 80 66 00
        E 0 90 4b 60
        E 0 90 57 60
        E 0 90 63 60
        E 0 90 66 60
        E 80 80 4b 00
        E 0 80 57 00
        E 0 80 63 00
        E 0 80 66 00
        E 0 90 63 60
        E 0 90 66 60
        E 80 80 63 00
        E 0 80 66 00
        E 0 90 63 60
        E 0 90 66 60
        E 80 80 63 00
        E 0 80 66 00
        E 0 90 3e 60
        E 0 90 4b 60
        E 0 90 57 60
        E 0 90 63 60
        E 0 90 66 60
        E 80 80 3e 00
        E 0 80 4b 00
        E 0 80 57 00
        E 0 80 63 00
        E 0 80 66 00
        E 0 90 63 60
        E 0 90 66 60
        E 80 80 63 00
        E 0 80 66 00
        E 0 90 63 60
        E 0 90 66 60
        E 80 80 63 00
        E 0 80 66 00
        E 0 90 57 60
        E 0 90 63 60
        E 0 90 66 60
        E 80 80 57 00
        E 0 80 63 00
        E 0 80 66 00
        E 0 90 63 60
        E 0 90 66 60
        E 80 80 63 00
        E 0 80 66 00
        E 0 90 63 60
        E 0 90 66 60
        E 80 80 63 00
        E 0 80 66 00
        E 0 90 4a 60
        E 0 90 56 60
        E 0 90 62 60
        E 0 90 66 60
        E 80 80 4a 00
        E 0 80 56 00
        E 0 80 62 00
        E 0 80 66 00
        E 0 90 62 60
        E 0 90 66 60
        E 80 80 62 00
        E 0 80 66 00
        E 0 90 62 60
        E 0 90 66 60
        E 80 80 62 00
        E 0 80 66 00
        E 0 90 4a 60
        E 0 90 56 60
        E 0 90 62 60
        E 0 90 66 60
        E 80 80 4a 00
        E 0 80 56 00
        E 0 80 62 00
        E 0 80 66 00
        E 0 90 62 60
        E 0 90 66 60
        E 80 80 62 00
        E 0 80 66 00
        E 0 90 62 60
        E 0 90 66 60
        E 80 80 62 00
        E 0 80 66 00
        E 0 90 3d 60
        E 0 90 4a 60
        E 0 90 56 60
        E 0 90 62 60
        E 0 90 66 60
        E 80 80 3d 00
        E 0 80 4a 00
        E 0 80 56 00
        E 0 80 62 00
        E 0 80 66 00
        E 0 90 62 60
        E 0 90 66 60
        E 80 80 62 00
        E 0 80 66 00
        E 0 90 62 60
        E 0 90 66 60
        E 80 80 62 00
        E 0 80 66 00
        E 0 90 56 60
        E 0 90 62 60
        E 0 90 66 60
        E 80 80 56 00
        E 0 80 62 00
        E 0 80 66 00
        E 0 90 62 60
        E 0 90 66 60
        E 80 80 62 00
        E 0 80 66 00
        E 0 90 62 60
        E 0 90 66 60
        E 80 80 62 00
        E 0 80 66 00
        E 0 90 3d 60
        E 0 90 49 60
        E 0 90 55 60
        E 0 90 61 60
        E 0 90 66 60
        E 80 80 3d 00
        E 0 80 49 00
        E 0 80 55 00
        E 0 80 61 00
        E 0 80 66 00
        E 0 90 61 60
        E 0 90 66 60
        E 80 80 61 00
        E 0 80 66 00
        E 0 90 61 60
        E 0 90 66 60
        E 80 80 61 00
        E 0 80 66 00
        E 0 90 49 60
        E 0 90 55 60
        E 0 90 61 60
        E 0 90 66 60
        E 80 80 49 00
        E 0 80 55 00
        E 0 80 61 00
        E 0 80 66 00
        E 0 90 61 60
        E 0 90 66 60
        E 80 80 61 00
        E 0 80 66 00
        E 0 90 61 60
        E 0 90 66 60
        E 80 80 61 00
        E 0 80 66 00
        E 0 90 3d 60
        E 0 90 49 60
        E 0 90 55 60
        E 0 90 61 60
        E 0 90 66 60
        E 80 80 3d 00
        E 0 80 49 00
        E 0 80 55 00
        E 0 80 61 00
        E 0 80 66 00
        E 0 90 61 60
        E 0 90 66 60
        E 80 80 61 00
        E 0 80 66 00
        E 0 90 61 60
        E 0 90 66 60
        E 80 80 61 00
        E 0 80 66 00
        E 0 90 55 60
        E 0 90 61 60
        E 0 90 66 60
        E 80 80 55 00
        E 0 80 61 00
        E 0 80 66 00
        E 0 90 61 60
        E 0 90 66 60
        E 80 80 61 00
        E 0 80 66 00
        E 0 90 61 60
        E 0 90 66 60
        E 80 80 61 00
        E 0 80 66 00
        E 0 90 48 60
        E 0 90 54 60
        E 0 90 60 60
        E 0 90 66 60
        E 80 80 48 00
        E 0 80 54 00
        E 0 80 60 00
        E 0 80 66 00
        E 0 90 60 60
        E 0 90 66 60
        E 80 80 60 00
        E 0 80 66 00
        E 0 90 60 60
        E 0 90 66 60
        E 80 80 60 00
        E 0 80 66 00
        E 0 90 54 60
        E 0 90 60 60
        E 0 90 66 60
        E 80 80 54 00
        E 0 80 60 00
        E 0 80 66 00
        E 0 90 60 60
        E 0 90 66 60
        E 80 80 60 00
        E 0 80 66 00
        E 0 90 60 60
        E 0 90 66 60
        E 80 80 60 00
        E 0 80 66 00
        E 0 90 3e 60
        E 0 90 4b 60
        E 0 90 58 60
        E 0 90 64 60
        E 0 90 66 60
        E 80 80 3e 00
        E 0 80 4b 00
        E 0 80 58 00
        E 0 80 64 00
        E 0 80 66 00
        E 0 90 64 60
        E 0 90 66 60
        E 80 80 64 00
        E 0 80 66 00
        E 0 90 64 60
        E 0 90 66 60
        E 80 80 64 00
        E 0 80 66 00
        E 0 90 4b 60
        E 0 90 58 60
        E 0 90 64 60
        E 0 90 66 60
        E 80 80 4b 00
        E 0 80 58 00
        E 0 80 64 00
        E 0 80 66 00
        E 0 90 64 60
        E 0 90 66 60
        E 80 80 64 00
        E 0 80 66 00
        E 0 90 64 60
        E 0 90 66 60
        E 80 80 64 00
        E 0 80 66 00
        E 0 90 3e 60
        E 0 90 4b 60
        E 0 90 57 60
        E 0 90 63 60
        E 0 90 66 60
        E 80 80 3e 00
        E 0 80 4b 00
        E 0 80 57 00
        E 0 80 63 00
        E 0 80 66 00
        E 0 90 63 60
        E 0 90 66 60
        E 80 80 63 00
        E 0 80 66 00
        E 0 90 63 60
        E 0 90 66 60
        E 80 80 63 00
        E 0 80 66 00
        E 0 90 4b 60
        E 0 90 57 60
        E 0 90 63 60
        E 0 90 66 60
        E 80 80 4b 00
        E 0 80 57 00
        E 0 80 63 00
        E 0 80 66 00
        E 0 90 63 60
        E 0 90 66 60
        E 80 80 63 00
        E 0 80 66 00
        E 0 90 63 60
        E 0 90 66 60
        E 80 80 63 00
        E 0 80 66 00
        E 0 90 3e 60
        E 0 90 4b 60
        E 0 90 57 60
        E 0 90 63 60
        E 0 90 66 60
        E 80 80 3e 00
        E 0 80 4b 00
        E 0 80 57 00
        E 0 80 63 00
        E 0 80 66 00
        E 0 90 63 60
        E 0 90 66 60
        E 80 80 63 00
        E 0 80 66 00
        E 0 90 63 60
        E 0 90 66 60
        E 80 80 63 00
        E 0 80 66 00
        E 0 90 57 60
        E 0 90 63 60
        E 0 90 66 60
        E 80 80 57 00
        E 0 80 63 00
        E 0 80 66 00
        E 0 90 63 60
        E 0 90 66 60
        E 80 80 63 00
        E 0 80 66 00
        E 0 90 63 60
        E 0 90 66 60
        E 80 80 63 00
        E 0 80 66 00
        E 0 90 4a 60
        E 0 90 56 60
        E 0 90 62 60
        E 0 90 66 60
        E 80 80 4a 00
        E 0 80 56 00
        E 0 80 62 00
        E 0 80 66 00
        E 0 90 62 60
        E 0 90 66 60
        E 80 80 62 00
        E 0 80 66 00
        E 0 90 62 60
        E 0 90 66 60
        E 80 80 62 00
        E 0 80 66 00
        E 0 90 4a 60
        E 0 90 56 60
        E 0 90 62 60
        E 0 90 66 60
        E 80 80 4a 00
        E 0 80 56 00
        E 0 80 62 00
        E 0 80 66 00
        E 0 90 62 60
        E 0 90 66 60
        E 80 80 62 00
        E 0 80 66 00
        E 0 90 62 60
        E 0 90 66 60
        E 80 80 62 00
        E 0 80 66 00
        E 0 90 3d 60
        E 0 90 4a 60
        E 0 90 56 60
        E 0 90 62 60
        E 0 90 66 60
        E 80 80 3d 00
        E 0 80 4a 00
        E 0 80 56 00
        E 0 80 62 00
        E 0 80 66 00
        E 0 90 62 60
        E 0 90 66 60
        E 80 80 62 00
        E 0 80 66 00
        E 0 90 62 60
        E 0 90 66 60
        E 80 80 62 00
        E 0 80 66 00
        E 0 90 4a 60
        E 0 90 56 60
        E 0 90 62 60
        E 0 90 66 60
        E 80 80 4a 00
        E 0 80 56 00
        E 0 80 62 00
        E 0 80 66 00
        E 0 90 62 60
        E 0 90 66 60
        E 80 80 62 00
        E 0 80 66 00
        E 0 90 62 60
        E 0 90 66 60
        E 80 80 62 00
        E 0 80 66 00
        E 0 90 3d 60
        E 0 90 4a 60
        E 0 90 56 60
        E 0 90 62 60
        E 0 90 66 60
        E 80 80 3d 00
        E 0 80 4a 00
        E 0 80 56 00
        E 0 80 62 00
        E 0 80 66 00
        E 0 90 62 60
        E 0 90 66 60
        E 80 80 62 00
        E 0 80 66 00
        E 0 90 62 60
        E 0 90 66 60
        E 80 80 62 00
        E 0 80 66 00
        E 0 90 4a 60
        E 0 90 56 60
        E 0 90 62 60
        E 0 90 66 60
        E 80 80 4a 00
        E 0 80 56 00
        E 0 80 62 00
        E 0 80 66 00
        E 0 90 62 60
        E 0 90 66 60
        E 80 80 62 00
        E 0 80 66 00
        E 0 90 62 60
        E 0 90 66 60
        E 80 80 62 00
        E 0 80 66 00
        E 0 90 3d 60
        E 0 90 4a 60
        E 0 90 56 60
        E 0 90 62 60
        E 0 90 66 60
        E 80 80 3d 00
        E 0 80 4a 00
        E 0 80 56 00
        E 0 80 62 00
        E 0 80 66 00
        E 0 90 62 60
        E 0 90 66 60
        E 80 80 62 00
        E 0 80 66 00
        E 0 90 62 60
        E 0 90 66 60
        E 80 80 62 00
        E 0 80 66 00
        E 0 90 56 60
        E 0 90 62 60
        E 0 90 66 60
        E 80 80 56 00
        E 0 80 62 00
        E 0 80 66 00
        E 0 90 62 60
        E 0 90 66 60
        E 80 80 62 00
        E 0 80 66 00
        E 0 90 62 60
        E 0 90 66 60
        E 80 80 62 00
        E 0 80 66 00
        E 0 90 48 60
        E 0 90 54 60
        E 0 90 60 60
        E 0 90 66 60
        E 0 90 74 60
        E 80 80 48 00
        E 0 80 54 00
        E 0 80 60 00
        E 0 80 66 00
        E 0 90 60 60
        E 0 90 66 60
        E 80 80 60 00
        E 0 80 66 00
        E 0 90 60 60
        E 0 90 66 60
        E 80 80 60 00
        E 0 80 66 00
        E 0 90 54 60
        E 0 90 60 60
        E 0 90 66 60
        E 80 80 54 00
        E 0 80 60 00
        E 0 80 66 00
        E 0 90 60 60
        E 0 90 66 60
        E 80 80 60 00
        E 0 80 66 00
        E 0 90 60 60
        E 0 90 66 60
        E 80 80 60 00
        E 0 80 66 00
        E 0 90 3e 60
        E 0 90 4b 60
        E 0 90 58 60
        E 0 90 64 60
        E 0 90 66 60
        E 80 80 3e 00
        E 0 80 4b 00
        E 0 80 58 00
        E 0 80 64 00
        E 0 80 66 00
        E 0 90 64 60
        E 0 90 66 60
        E 80 80 64 00
        E 0 80 66 00
        E 0 90 64 60
        E 0 90 66 60
        E 80 80 64 00
        E 0 80 66 00
        E 0 90 4b 60
        E 0 90 58 60
        E 0 90 64 60
        E 0 90 66 60
        E 80 80 4b 00
        E 0 80 58 00
        E 0 80 64 00
        E 0 80 66 00
        E 0 90 64 60
        E 0 90 66 60
        E 80 80 64 00
        E 0 80 66 00
        E 0 90 64 60
        E 0 90 66 60
        E 80 80 64 00
        E 0 80 66 00
        E 0 90 3e 60
        E 0 90 4b 60
        E 0 90 57 60
        E 0 90 63 60
        E 0 90 66 60
        E 80 80 3e 00
        E 0 80 4b 00
        E 0 80 57 00
        E 0 80 63 00
        E 0 80 66 00
        E 0 90 63 60
        E 0 90 66 60
        E 80 80 63 00
        E 0 80 66 00
        E 0 90 63 60
        E 0 90 66 60
        E 80 80 63 00
        E 0 80 66 00
        E 0 90 4b 60
        E 0 90 57 60
        E 0 90 63 60
        E 0 90 66 60
        E 80 80 4b 00
        E 0 80 57 00
        E 0 80 63 00
        E 0 80 66 00
        E 0 90 63 60
        E 0 90 66 60
        E 80 80 63 00
        E 0 80 66 00
        E 0 90 63 60
        E 0 90 66 60
        E 80 80 63 00
        E 0 80 66 00
        E 0 90 3e 60
        E 0 90 4b 60
        E 0 90 57 60
        E 0 90 63 60
        E 0 90 66 60
        E 80 80 3e 00
        E 0 80 4b 00
        E 0 80 57 00
        E 0 80 63 00
        E 0 80 66 00
        E 0 90 63 60
        E 0 90 66 60
        E 80 80 63 00
        E 0 80 66 00
        E 0 90 63 60
        E 0 90 66 60
        E 80 80 63 00
        E 0 80 66 00
        E 0 90 57 60
        E 0 90 63 60
        E 0 90 66 60
        E 80 80 57 00
        E 0 80 63 00
        E 0 80 66 00
        E 0 90 63 60
        E 0 90 66 60
        E 80 80 63 00
        E 0 80 66 00
        E 0 90 63 60
        E 0 90 66 60
        E 80 80 74 00
        E 0 80 63 00
        E 0 80 66 00
        E 0 90 4a 60
        E 0 90 56 60
        E 0 90 62 60
        E 0 90 66 60
        E 80 80 4a 00
        E 0 80 56 00
        E 0 80 62 00
        E 0 80 66 00
        E 0 90 62 60
        E 0 90 66 60
        E 80 80 62 00
        E 0 80 66 00
        E 0 90 62 60
        E 0 90 66 60
        E 80 80 62 00
        E 0 80 66 00
        E 0 90 4a 60
        E 0 90 56 60
        E 0 90 62 60
        E 0 90 66 60
        E 80 80 4a 00
        E 0 80 56 00
        E 0 80 62 00
        E 0 80 66 00
        E 0 90 62 60
        E 0 90 66 60
        E 80 80 62 00
        E 0 80 66 00
        E 0 90 62 60
        E 0 90 66 60
        E 80 80 62 00
        E 0 80 66 00
        E 0 90 3d 60
        E 0 90 4a 60
        E 0 90 56 60
        E 0 90 62 60
        E 0 90 66 60
        E 80 80 3d 00
        E 0 80 4a 00
        E 0 80 56 00
        E 0 80 62 00
        E 0 80 66 00
        E 0 90 62 60
        E 0 90 66 60
        E 80 80 62 00
        E 0 80 66 00
        E 0 90 62 60
        E 0 90 66 60
        E 80 80 62 00
        E 0 80 66 00
        E 0 90 56 60
        E 0 90 62 60
        E 0 90 66 60
        E 80 80 56 00
        E 0 80 62 00
        E 0 80 66 00
        E 0 90 62 60
        E 0 90 66 60
        E 80 80 62 00
        E 0 80 66 00
        E 0 90 62 60
        E 0 90 66 60
        E 80 80 62 00
        E 0 80 66 00
        E 0 90 3d 60
        E 0 90 49 60
        E 0 90 55 60
        E 0 90 61 60
        E 0 90 66 60
        E 80 80 3d 00
        E 0 80 49 00
        E 0 80 55 00
        E 0 80 61 00
        E 0 80 66 00
        E 0 90 61 60
        E 0 90 66 60
        E 80 80 61 00
        E 0 80 66 00
        E 0 90 61 60
        E 0 90 66 60
        E 80 80 61 00
        E 0 80 66 00
        E 0 90 49 60
        E 0 90 55 60
        E 0 90 61 60
        E 0 90 66 60
        E 80 80 49 00
        E 0 80 55 00
        E 0 80 61 00
        E 0 80 66 00
        E 0 90 61 60
        E 0 90 66 60
        E 80 80 61 00
        E 0 80 66 00
        E 0 90 61 60
        E 0 90 66 60
        E 80 80 61 00
        E 0 80 66 00
        E 0 90 3d 60
        E 0 90 49 60
        E 0 90 55 60
        E 0 90 61 60
        E 0 90 66 60
        E 80 80 3d 00
        E 0 80 49 00
        E 0 80 55 00
        E 0 80 61 00
        E 0 80 66 00
        E 0 90 61 60
        E 0 90 66 60
        E 80 80 61 00
        E 0 80 66 00
        E 0 90 61 60
        E 0 90 66 60
        E 80 80 61 00
        E 0 80 66 00
        E 0 90 55 60
        E 0 90 61 60
        E 0 90 66 60
        E 80 80 55 00
        E 0 80 61 00
        E 0 80 66 00
        E 0 90 61 60
        E 0 90 66 60
        E 80 80 61 00
        E 0 80 66 00
        E 0 90 61 60
        E 0 90 66 60
        E 80 80 61 00
        E 0 80 66 00
        E 0 90 48 60
        E 0 90 54 60
        E 0 90 60 60
        E 0 90 66 60
        E 80 80 48 00
        E 0 80 54 00
        E 0 80 60 00
        E 0 80 66 00
        E 0 90 60 60
        E 0 90 66 60
        E 80 80 60 00
        E 0 80 66 00
        E 0 90 60 60
        E 0 90 66 60
        E 80 80 60 00
        E 0 80 66 00
        E 0 90 54 60
        E 0 90 60 60
        E 0 90 66 60
        E 80 80 54 00
        E 0 80 60 00
        E 0 80 66 00
        E 0 90 60 60
        E 0 90 66 60
        E 80 80 60 00
        E 0 80 66 00
        E 0 90 60 60
        E 0 90 66 60
        E 80 80 60 00
        E 0 80 66 00
        E 0 90 3d 60
        E 0 90 49 60
        E 0 90 55 60
        E 0 90 61 60
        E 0 90 66 60
        E 80 80 3d 00
        E 0 80 49 00
        E 0 80 55 00
        E 0 80 61 00
        E 0 80 66 00
        E 0 90 61 60
        E 0 90 66 60
        E 80 80 61 00
        E 0 80 66 00
        E 0 90 61 60
        E 0 90 66 60
        E 80 80 61 00
        E 0 80 66 00
        E 0 90 55 60
        E 0 90 61 60
        E 0 90 66 60
        E 80 80 55 00
        E 0 80 61 00
        E 0 80 66 00
        E 0 90 61 60
        E 0 90 66 60
        E 80 80 61 00
        E 0 80 66 00
        E 0 90 61 60
        E 0 90 66 60
        E 80 80 61 00
        E 0 80 66 00
        E 0 90 4a 60
        E 0 90 56 60
        E 0 90 62 60
        E 0 90 66 60
        E 80 80 4a 00
        E 0 80 56 00
        E 0 80 62 00
        E 0 80 66 00
        E 0 90 62 60
        E 0 90 66 60
        E 80 80 62 00
        E 0 80 66 00
        E 0 90 62 60
        E 0 90 66 60
        E 80 80 62 00
        E 0 80 66 00
        E 0 90 56 60
        E 0 90 62 60
        E 0 90 66 60
        E 80 80 56 00
        E 0 80 62 00
        E 0 80 66 00
        E 0 90 62 60
        E 0 90 66 60
        E 80 80 62 00
        E 0 80 66 00
        E 0 90 62 60
        E 0 90 66 60
        E 80 80 62 00
        E 0 80 66 00
        E 0 90 3e 60
        E 0 90 4b 60
        E 0 90 57 60
        E 0 90 63 60
        E 0 90 66 60
        E 80 80 3e 00
        E 0 80 4b 00
        E 0 80 57 00
        E 0 80 63 00
        E 0 80 66 00
        E 0 90 63 60
        E 0 90 66 60
        E 80 80 63 00
        E 0 80 66 00
        E 0 90 64 60
        E 0 90 66 60
        E 80 80 64 00
        E 0 80 66 00
        E 0 90 58 60
        E 0 90 64 60
        E 0 90 66 60
        E 80 80 58 00
        E 0 80 64 00
        E 0 80 66 00
        E 0 90 63 60
        E 0 90 66 60
        E 80 80 63 00
        E 0 80 66 00
        E 0 90 63 60
        E 0 90 66 60
        E 80 80 63 00
        E 0 80 66 00
        E 0 90 49 60
        E 0 90 55 60
        E 0 90 61 60
        E 0 90 66 60
        E 80 80 49 00
        E 0 80 55 00
        E 0 80 61 00
        E 0 80 66 00
        E 0 90 61 60
        E 0 90 66 60
        E 80 80 61 00
        E 0 80 66 00
        E 0 90 61 60
        E 0 90 66 60
        E 80 80 61 00
        E 0 80 66 00
        E 0 90 55 60
        E 0 90 61 60
        E 0 90 66 60
        E 80 80 55 00
        E 0 80 61 00
        E 0 80 66 00
        E 0 90 61 60
        E 0 90 66 60
        E 80 80 61 00
        E 0 80 66 00
        E 0 90 61 60
        E 0 90 66 60
        E 80 80 61 00
        E 0 80 66 00
        E 0 90 3e 60
        E 0 90 4b 60
        E 0 90 57 60
        E 0 90 63 60
        E 0 90 66 60
        E 80 80 3e 00
        E 0 80 4b 00
        E 0 80 57 00
        E 0 80 63 00
        E 0 80 66 00
        E 0 90 63 60
        E 0 90 66 60
        E 80 80 63 00
        E 0 80 66 00
        E 0 90 64 60
        E 0 90 66 60
        E 80 80 64 00
        E 0 80 66 00
        E 0 90 58 60
        E 0 90 64 60
        E 0 90 66 60
        E 80 80 58 00
        E 0 80 64 00
        E 0 80 66 00
        E 0 90 63 60
        E 0 90 66 60
        E 80 80 63 00
        E 0 80 66 00
        E 0 90 63 60
        E 0 90 66 60
        E 80 80 63 00
        E 0 80 66 00
        E 0 90 4a 60
        E 0 90 56 60
        E 0 90 62 60
        E 0 90 66 60
        E 80 80 4a 00
        E 0 80 56 00
        E 0 80 62 00
        E 0 80 66 00
        E 0 90 62 60
        E 0 90 66 60
        E 80 80 62 00
        E 0 80 66 00
        E 0 90 62 60
        E 0 90 66 60
        E 80 80 62 00
        E 0 80 66 00
        E 0 90 56 60
        E 0 90 62 60
        E 0 90 66 60
        E 80 80 56 00
        E 0 80 62 00
        E 0 80 66 00
        E 0 90 62 60
        E 0 90 66 60
        E 80 80 62 00
        E 0 80 66 00
        E 0 90 62 60
        E 0 90 66 60
        E 80 80 62 00
        E 0 80 66 00
        E 0 90 3e 60
        E 0 90 4b 60
        E 0 90 57 60
        E 0 90 63 60
        E 0 90 66 60
        E 80 80 3e 00
        E 0 80 4b 00
        E 0 80 57 00
        E 0 80 63 00
        E 0 80 66 00
        E 0 90 63 60
        E 0 90 66 60
        E 80 80 63 00
        E 0 80 66 00
        E 0 90 64 60
        E 0 90 66 60
        E 80 80 64 00
        E 0 80 66 00
        E 0 90 58 60
        E 0 90 64 60
        E 0 90 66 60
        E 80 80 58 00
        E 0 80 64 00
        E 0 80 66 00
        E 0 90 63 60
        E 0 90 66 60
        E 80 80 63 00
        E 0 80 66 00
        E 0 90 63 60
        E 0 90 66 60
        E 80 80 63 00
        E 0 80 66 00
        E 0 90 48 60
        E 0 90 54 60
        E 0 90 60 60
        E 0 90 66 60
        E 80 80 48 00
        E 0 80 54 00
        E 0 80 60 00
        E 0 80 66 00
        E 0 90 60 60
        E 0 90 66 60
        E 80 80 60 00
        E 0 80 66 00
        E 0 90 60 60
        E 0 90 66 60
        E 80 80 60 00
        E 0 80 66 00
        E 0 90 54 60
        E 0 90 60 60
        E 0 90 66 60
        E 80 80 54 00
        E 0 80 60 00
        E 0 80 66 00
        E 0 90 60 60
        E 0 90 66 60
        E 80 80 60 00
        E 0 80 66 00
        E 0 90 60 60
        E 0 90 66 60
        E 80 80 60 00
        E 0 80 66 00
        E 0 90 3d 60
        E 0 90 49 60
        E 0 90 55 60
        E 0 90 61 60
        E 0 90 66 60
        E 80 80 3d 00
        E 0 80 49 00
        E 0 80 55 00
        E 0 80 61 00
        E 0 80 66 00
        E 0 90 61 60
        E 0 90 66 60
        E 80 80 61 00
        E 0 80 66 00
        E 0 90 61 60
        E 0 90 66 60
        E 80 80 61 00
        E 0 80 66 00
        E 0 90 55 60
        E 0 90 61 60
        E 0 90 66 60
        E 80 80 55 00
        E 0 80 61 00
        E 0 80 66 00
        E 0 90 61 60
        E 0 90 66 60
        E 80 80 61 00
        E 0 80 66 00
        E 0 90 61 60
        E 0 90 66 60
        E 80 80 61 00
        E 0 80 66 00
        E 0 90 4a 60
        E 0 90 56 60
        E 0 90 62 60
        E 0 90 66 60
        E 80 80 4a 00
        E 0 80 56 00
        E 0 80 62 00
        E 0 80 66 00
        E 0 90 62 60
        E 0 90 66 60
        E 80 80 62 00
        E 0 80 66 00
        E 0 90 62 60
        E 0 90 66 60
        E 80 80 62 00
        E 0 80 66 00
        E 0 90 56 60
        E 0 90 62 60
        E 0 90 66 60
        E 80 80 56 00
        E 0 80 62 00
        E 0 80 66 00
        E 0 90 62 60
        E 0 90 66 60
        E 80 80 62 00
        E 0 80 66 00
        E 0 90 62 60
        E 0 90 66 60
        E 80 80 62 00
        E 0 80 66 00
        E 0 90 3e 60
        E 0 90 4b 60
        E 0 90 57 60
        E 0 90 63 60
        E 0 90 66 60
        E 80 80 3e 00
        E 0 80 4b 00
        E 0 80 57 00
        E 0 80 63 00
        E 0 80 66 00
        E 0 90 63 60
        E 0 90 66 60
        E 80 80 63 00
        E 0 80 66 00
        E 0 90 64 60
        E 0 90 66 60
        E 80 80 64 00
        E 0 80 66 00
        E 0 90 58 60
        E 0 90 64 60
        E 0 90 66 60
        E 80 80 58 00
        E 0 80 64 00
        E 0 80 66 00
        E 0 90 63 60
        E 0 90 66 60
        E 80 80 63 00
        E 0 80 66 00
        E 0 90 63 60
        E 0 90 66 60
        E 80 80 63 00
        E 0 80 66 00
        E 0 90 49 60
        E 0 90 55 60
        E 0 90 61 60
        E 0 90 66 60
        E 80 80 49 00
        E 0 80 55 00
        E 0 80 61 00
        E 0 80 66 00
        E 0 90 61 60
        E 0 90 66 60
        E 80 80 61 00
        E 0 80 66 00
        E 0 90 61 60
        E 0 90 66 60
        E 80 80 61 00
        E 0 80 66 00
        E 0 90 55 60
        E 0 90 61 60
        E 0 90 66 60
        E 80 80 55 00
        E 0 80 61 00
        E 0 80 66 00
        E 0 90 61 60
        E 0 90 66 60
        E 80 80 61 00
        E 0 80 66 00
        E 0 90 61 60
        E 0 90 66 60
        E 80 80 61 00
        E 0 80 66 00
        E 0 90 3e 60
        E 0 90 4b 60
        E 0 90 57 60
        E 0 90 63 60
        E 0 90 66 60
        E 80 80 3e 00
        E 0 80 4b 00
        E 0 80 57 00
        E 0 80 63 00
        E 0 80 66 00
        E 0 90 63 60
        E 0 90 66 60
        E 80 80 63 00
        E 0 80 66 00
        E 0 90 64 60
        E 0 90 66 60
        E 80 80 64 00
        E 0 80 66 00
        E 0 90 58 60
        E 0 90 64 60
        E 0 90 66 60
        E 80 80 58 00
        E 0 80 64 00
        E 0 80 66 00
        E 0 90 63 60
        E 0 90 66 60
        E 80 80 63 00
        E 0 80 66 00
        E 0 90 63 60
        E 0 90 66 60
        E 80 80 63 00
        E 0 80 66 00
        E 0 90 48 60
        E 0 90 54 60
        E 0 90 60 60
        E 0 90 66 60
        E 80 80 48 00
        E 0 80 54 00
        E 0 80 60 00
        E 0 80 66 00
        E 0 90 60 60
        E 0 90 66 60
        E 80 80 60 00
        E 0 80 66 00
        E 0 90 60 60
        E 0 90 66 60
        E 80 80 60 00
        E 0 80 66 00
        E 0 90 54 60
        E 0 90 60 60
        E 0 90 66 60
        E 80 80 54 00
        E 0 80 60 00
        E 0 80 66 00
        E 0 90 60 60
        E 0 90 66 60
        E 80 80 60 00
        E 0 80 66 00
        E 0 90 60 60
        E 0 90 66 60
        E 80 80 60 00
        E 0 80 66 00
        E 0 90 3d 60
        E 0 90 49 60
        E 0 90 55 60
        E 0 90 61 60
        E 0 90 66 60
        E 80 80 3d 00
        E 0 80 49 00
        E 0 80 55 00
        E 0 80 61 00
        E 0 80 66 00
        E 0 90 61 60
        E 0 90 66 60
        E 80 80 61 00
        E 0 80 66 00
        E 0 90 62 60
        E 0 90 66 60
        E 80 80 62 00
        E 0 80 66 00
        E 0 90 56 60
        E 0 90 62 60
        E 0 90 66 60
        E 80 80 56 00
        E 0 80 62 00
        E 0 80 66 00
        E 0 90 61 60
        E 0 90 66 60
        E 80 80 61 00
        E 0 80 66 00
        E 0 90 61 60
        E 0 90 66 60
        E 80 80 61 00
        E 0 80 66 00
        E 0 90 48 60
        E 0 90 54 60
        E 0 90 60 60
        E 0 90 66 60
        E 80 80 48 00
        E 0 80 54 00
        E 0 80 60 00
        E 0 80 66 00
        E 0 90 60 60
        E 0 90 66 60
        E 80 80 60 00
        E 0 80 66 00
        E 0 90 60 60
        E 0 90 66 60
        E 80 80 60 00
        E 0 80 66 00
        E 0 90 54 60
        E 0 90 60 60
        E 0 90 66 60
        E 80 80 54 00
        E 0 80 60 00
        E 0 80 66 00
        E 0 90 60 60
        E 0 90 66 60
        E 80 80 60 00
        E 0 80 66 00
        E 0 90 60 60
        E 0 90 66 60
        E 80 80 60 00
        E 0 80 66 00
        E 0 90 3d 60
        E 0 90 49 60
        E 0 90 55 60
        E 0 90 61 60
        E 0 90 66 60
        E 80 80 3d 00
        E 0 80 49 00
        E 0 80 55 00
        E 0 80 61 00
        E 0 80 66 00
        E 0 90 61 60
        E 0 90 66 60
        E 80 80 61 00
        E 0 80 66 00
        E 0 90 61 60
        E 0 90 66 60
        E 80 80 61 00
        E 0 80 66 00
        E 0 90 55 60
        E 0 90 61 60
        E 0 90 66 60
        E 80 80 55 00
        E 0 80 61 00
        E 0 80 66 00
        E 0 90 61 60
        E 0 90 66 60
        E 80 80 61 00
        E 0 80 66 00
        E 0 90 61 60
        E 0 90 66 60
        E 80 80 61 00
        E 0 80 66 00
        E 0 90 4a 60
        E 0 90 56 60
        E 0 90 62 60
        E 0 90 66 60
        E 80 80 4a 00
        E 0 80 56 00
        E 0 80 62 00
        E 0 80 66 00
        E 0 90 62 60
        E 0 90 66 60
        E 80 80 62 00
        E 0 80 66 00
        E 0 90 62 60
        E 0 90 66 60
        E 80 80 62 00
        E 0 80 66 00
        E 0 90 56 60
        E 0 90 62 60
        E 0 90 66 60
        E 80 80 56 00
        E 0 80 62 00
        E 0 80 66 00
        E 0 90 62 60
        E 0 90 66 60
        E 80 80 62 00
        E 0 80 66 00
        E 0 90 62 60
        E 0 90 66 60
        E 80 80 62 00
        E 0 80 66 00
        E 0 90 3e 60
        E 0 90 4b 60
        E 0 90 57 60
        E 0 90 63 60
        E 0 90 66 60
        E 80 80 3e 00
        E 0 80 4b 00
        E 0 80 57 00
        E 0 80 63 00
        E 0 80 66 00
        E 0 90 63 60
        E 0 90 66 60
        E 80 80 63 00
        E 0 80 66 00
        E 0 90 64 60
        E 0 90 66 60
        E 80 80 64 00
        E 0 80 66 00
        E 0 90 58 60
        E 0 90 64 60
        E 0 90 66 60
        E 80 80 58 00
        E 0 80 64 00
        E 0 80 66 00
        E 0 90 63 60
        E 0 90 66 60
        E 80 80 63 00
        E 0 80 66 00
        E 0 90 63 60
        E 0 90 66 60
        E 80 80 63 00
        E 0 80 66 00
        E 0 90 49 60
        E 0 90 55 60
        E 0 90 61 60
        E 0 90 66 60
        E 80 80 49 00
        E 0 80 55 00
        E 0 80 61 00
        E 0 80 66 00
        E 0 90 61 60
        E 0 90 66 60
        E 80 80 61 00
        E 0 80 66 00
        E 0 90 61 60
        E 0 90 66 60
        E 80 80 61 00
        E 0 80 66 00
        E 0 90 55 60
        E 0 90 61 60
        E 0 90 66 60
        E 80 80 55 00
        E 0 80 61 00
        E 0 80 66 00
        E 0 90 61 60
        E 0 90 66 60
        E 80 80 61 00
        E 0 80 66 00
        E 0 90 61 60
        E 0 90 66 60
        E 80 80 61 00
        E 0 80 66 00
        E 0 90 3e 60
        E 0 90 4b 60
        E 0 90 57 60
        E 0 90 63 60
        E 0 90 66 60
        E 80 80 3e 00
        E 0 80 4b 00
        E 0 80 57 00
        E 0 80 63 00
        E 0 80 66 00
        E 0 90 63 60
        E 0 90 66 60
        E 80 80 63 00
        E 0 80 66 00
        E 0 90 64 60
        E 0 90 66 60
        E 80 80 64 00
        E 0 80 66 00
        E 0 90 58 60
        E 0 90 64 60
        E 0 90 66 60
        E 80 80 58 00
        E 0 80 64 00
        E 0 80 66 00
        E 0 90 63 60
        E 0 90 66 60
        E 80 80 63 00
        E 0 80 66 00
        E 0 90 63 60
        E 0 90 66 60
        E 80 80 63 00
        E 0 80 66 00
        E 0 90 4a 60
        E 0 90 56 60
        E 0 90 62 60
        E 0 90 66 60
        E 80 80 4a 00
        E 0 80 56 00
        E 0 80 62 00
        E 0 80 66 00
        E 0 90 62 60
        E 0 90 66 60
        E 80 80 62 00
        E 0 80 66 00
        E 0 90 62 60
        E 0 90 66 60
        E 80 80 62 00
        E 0 80 66 00
        E 0 90 56 60
        E 0 90 62 60
        E 0 90 66 60
        E 80 80 56 00
        E 0 80 62 00
        E 0 80 66 00
        E 0 90 62 60
        E 0 90 66 60
        E 80 80 62 00
        E 0 80 66 00
        E 0 90 62 60
        E 0 90 66 60
        E 80 80 62 00
        E 0 80 66 00
        E 0 90 3e 60
        E 0 90 4b 60
        E 0 90 57 60
        E 0 90 63 60
        E 0 90 66 60
        E 80 80 3e 00
        E 0 80 4b 00
        E 0 80 57 00
        E 0 80 63 00
        E 0 80 66 00
        E 0 90 63 60
        E 0 90 66 60
        E 80 80 63 00
        E 0 80 66 00
        E 0 90 64 60
        E 0 90 66 60
        E 80 80 64 00
        E 0 80 66 00
        E 0 90 58 60
        E 0 90 64 60
        E 0 90 66 60
        E 80 80 58 00
        E 0 80 64 00
        E 0 80 66 00
        E 0 90 63 60
        E 0 90 66 60
        E 80 80 63 00
        E 0 80 66 00
        E 0 90 63 60
        E 0 90 66 60
        E 80 80 63 00
        E 0 80 66 00
        E 0 90 48 60
        E 0 90 54 60
        E 0 90 60 60
        E 0 90 66 60
        E 80 80 48 00
        E 0 80 54 00
        E 0 80 60 00
        E 0 80 66 00
        E 0 90 60 60
        E 0 90 66 60
        E 80 80 60 00
        E 0 80 66 00
        E 0 90 60 60
        E 0 90 66 60
        E 80 80 60 00
        E 0 80 66 00
        E 0 90 54 60
        E 0 90 60 60
        E 0 90 66 60
        E 80 80 54 00
        E 0 80 60 00
        E 0 80 66 00
        E 0 90 60 60
        E 0 90 66 60
        E 80 80 60 00
        E 0 80 66 00
        E 0 90 60 60
        E 0 90 66 60
        E 80 80 60 00
        E 0 80 66 00
        E 0 90 3d 60
        E 0 90 49 60
        E 0 90 55 60
        E 0 90 61 60
        E 0 90 66 60
        E 80 80 3d 00
        E 0 80 49 00
        E 0 80 55 00
        E 0 80 61 00
        E 0 80 66 00
        E 0 90 61 60
        E 0 90 66 60
        E 80 80 61 00
        E 0 80 66 00
        E 0 90 61 60
        E 0 90 66 60
        E 80 80 61 00
        E 0 80 66 00
        E 0 90 55 60
        E 0 90 61 60
        E 0 90 66 60
        E 80 80 55 00
        E 0 80 61 00
        E 0 80 66 00
        E 0 90 61 60
        E 0 90 66 60
        E 80 80 61 00
        E 0 80 66 00
        E 0 90 61 60
        E 0 90 66 60
        E 80 80 61 00
        E 0 80 66 00
        E 0 90 4a 60
        E 0 90 56 60
        E 0 90 62 60
        E 0 90 66 60
        E 80 80 4a 00
        E 0 80 56 00
        E 0 80 62 00
        E 0 80 66 00
        E 0 90 62 60
        E 0 90 66 60
        E 80 80 62 00
        E 0 80 66 00
        E 0 90 62 60
        E 0 90 66 60
        E 80 80 62 00
        E 0 80 66 00
        E 0 90 56 60
        E 0 90 62 60
        E 0 90 66 60
        E 80 80 56 00
        E 0 80 62 00
        E 0 80 66 00
        E 0 90 62 60
        E 0 90 66 60
        E 80 80 62 00
        E 0 80 66 00
        E 0 90 62 60
        E 0 90 66 60
        E 80 80 62 00
        E 0 80 66 00
        E 0 90 3e 60
        E 0 90 4b 60
        E 0 90 57 60
        E 0 90 63 60
        E 0 90 66 60
        E 80 80 3e 00
        E 0 80 4b 00
        E 0 80 57 00
        E 0 80 63 00
        E 0 80 66 00
        E 0 90 63 60
        E 0 90 66 60
        E 80 80 63 00
        E 0 80 66 00
        E 0 90 64 60
        E 0 90 66 60
        E 80 80 64 00
        E 0 80 66 00
        E 0 90 58 60
        E 0 90 64 60
        E 0 90 66 60
        E 80 80 58 00
        E 0 80 64 00
        E 0 80 66 00
        E 0 90 63 60
        E 0 90 66 60
        E 80 80 63 00
        E 0 80 66 00
        E 0 90 63 60
        E 0 90 66 60
        E 80 80 63 00
        E 0 80 66 00
        E 0 90 49 60
        E 0 90 55 60
        E 0 90 61 60
        E 0 90 66 60
        E 80 80 49 00
        E 0 80 55 00
        E 0 80 61 00
        E 0 80 66 00
        E 0 90 61 60
        E 0 90 66 60
        E 80 80 61 00
        E 0 80 66 00
        E 0 90 61 60
        E 0 90 66 60
        E 80 80 61 00
        E 0 80 66 00
        E 0 90 55 60
        E 0 90 61 60
        E 0 90 66 60
        E 80 80 55 00
        E 0 80 61 00
        E 0 80 66 00
        E 0 90 61 60
        E 0 90 66 60
        E 80 80 61 00
        E 0 80 66 00
        E 0 90 61 60
        E 0 90 66 60
        E 80 80 61 00
        E 0 80 66 00
        E 0 90 3e 60
        E 0 90 4b 60
        E 0 90 57 60
        E 0 90 63 60
        E 0 90 66 60
        E 80 80 3e 00
        E 0 80 4b 00
        E 0 80 57 00
        E 0 80 63 00
        E 0 80 66 00
        E 0 90 63 60
        E 0 90 66 60
        E 80 80 63 00
        E 0 80 66 00
        E 0 90 64 60
        E 0 90 66 60
        E 80 80 64 00
        E 0 80 66 00
        E 0 90 58 60
        E 0 90 64 60
        E 0 90 66 60
        E 80 80 58 00
        E 0 80 64 00
        E 0 80 66 00
        E 0 90 63 60
        E 0 90 66 60
        E 80 80 63 00
        E 0 80 66 00
        E 0 90 63 60
        E 0 90 66 60
        E 80 80 63 00
        E 0 80 66 00
        E 0 90 48 60
        E 0 90 54 60
        E 0 90 60 60
        E 0 90 66 60
        E 80 80 48 00
        E 0 80 54 00
        E 0 80 60 00
        E 0 80 66 00
        E 0 90 60 60
        E 0 90 66 60
        E 80 80 60 00
        E 0 80 66 00
        E 0 90 60 60
        E 0 90 66 60
        E 80 80 60 00
        E 0 80 66 00
        E 0 90 54 60
        E 0 90 60 60
        E 0 90 66 60
        E 80 80 54 00
        E 0 80 60 00
        E 0 80 66 00
        E 0 90 60 60
        E 0 90 66 60
        E 80 80 60 00
        E 0 80 66 00
        E 0 90 60 60
        E 0 90 66 60
        E 80 80 60 00
        E 0 80 66 00
        E 0 90 3d 60
        E 0 90 49 60
        E 0 90 55 60
        E 0 90 61 60
        E 0 90 66 60
        E 80 80 3d 00
        E 0 80 49 00
        E 0 80 55 00
        E 0 80 61 00
        E 0 80 66 00
        E 0 90 61 60
        E 0 90 66 60
        E 80 80 61 00
        E 0 80 66 00
        E 0 90 62 60
        E 0 90 66 60
        E 80 80 62 00
        E 0 80 66 00
        E 0 90 56 60
        E 0 90 62 60
        E 0 90 66 60
        E 80 80 56 00
        E 0 80 62 00
        E 0 80 66 00
        E 0 90 61 60
        E 0 90 66 60
        E 80 80 61 00
        E 0 80 66 00
        E 0 90 61 60
        E 0 90 66 60
        E 80 80 61 00
        E 0 80 66 00
        E 0 90 74 60
        E 0 90 48 60
        E 0 90 54 60
        E 0 90 60 60
        E 0 90 66 60
        E 80 80 48 00
        E 0 80 54 00
        E 0 80 60 00
        E 0 80 66 00
        E 100 90 60 60
        E 0 90 66 60
        E 60 80 60 00
        E 0 80 66 00
        E 0 90 54 60
        E 0 90 60 60
        E 0 90 66 60
        E 60 80 54 00
        E 0 80 60 00
        E 0 80 66 00
        E 0 90 60 60
        E 0 90 66 60
        E 60 80 60 00
        E 0 80 66 00
        E 120 90 3e 60
        E 0 90 49 60
        E 0 90 4b 60
        E 0 90 55 60
        E 0 90 57 60
        E 0 90 61 60
        E 0 90 62 60
        E 0 90 63 60
        E 0 90 66 60
        E 80 80 3e 00
        E 0 80 49 00
        E 0 80 4b 00
        E 0 80 55 00
        E 0 80 57 00
        E 0 80 61 00
        E 0 80 62 00
        E 0 80 63 00
        E 0 80 66 00
        E 80 90 60 60
        E 0 90 61 60
        E 0 90 62 60
        E 0 90 66 60
        E 80 80 60 00
        E 0 80 61 00
        E 0 80 62 00
        E 0 80 66 00
        E 80 90 61 60
        E 0 90 62 60
        E 0 90 63 60
        E 0 90 66 60
        E 80 80 61 00
        E 0 80 62 00
        E 0 80 63 00
        E 0 80 66 00
        E 80 90 48 60
        E 0 90 54 60
        E 0 90 60 60
        E 0 90 65 60
        E 80 80 48 00
        E 0 80 54 00
        E 0 80 60 00
        E 0 80 65 00
        E 80 90 62 60
        E 0 90 63 60
        E 0 90 66 60
        E 80 80 62 00
        E 0 80 63 00
        E 0 80 66 00
        E 80 90 60 60
        E 0 90 65 60
        E 80 80 60 00
        E 0 80 65 00
        E 80 90 40 60
        E 0 90 4b 60
        E 0 90 4c 60
        E 0 90 57 60
        E 0 90 58 60
        E 0 90 63 60
        E 0 90 64 60
        E 0 90 66 60
        E 80 80 40 00
        E 0 80 4b 00
        E 0 80 4c 00
        E 0 80 57 00
        E 0 80 58 00
        E 0 80 63 00
        E 0 80 64 00
        E 0 80 66 00
        E 80 90 60 60
        E 0 90 65 60
        E 80 80 60 00
        E 0 80 65 00
        E 80 90 62 60
        E 0 90 64 60
        E 0 90 66 60
        E 80 80 62 00
        E 0 80 64 00
        E 0 80 66 00
        E 80 80 74 00
        E 0 90 48 60
        E 0 90 54 60
        E 0 90 60 60
        E 0 90 65 60
        E 80 80 48 00
        E 0 80 54 00
        E 0 80 60 00
        E 0 80 65 00
        E 100 90 60 60
        E 0 90 66 60
        E 60 80 60 00
        E 0 80 66 00
        E 0 90 54 60
        E 0 90 60 60
        E 0 90 66 60
        E 60 80 54 00
        E 0 80 60 00
        E 0 80 66 00
        E 0 90 60 60
        E 0 90 66 60
        E 60 80 60 00
        E 0 80 66 00
        E 120 90 3e 60
        E 0 90 49 60
        E 0 90 4b 60
        E 0 90 55 60
        E 0 90 57 60
        E 0 90 61 60
        E 0 90 62 60
        E 0 90 63 60
        E 0 90 66 60
        E 80 80 3e 00
        E 0 80 49 00
        E 0 80 4b 00
        E 0 80 55 00
        E 0 80 57 00
        E 0 80 61 00
        E 0 80 62 00
        E 0 80 63 00
        E 0 80 66 00
        E 80 90 60 60
        E 0 90 61 60
        E 0 90 62 60
        E 0 90 66 60
        E 80 80 60 00
        E 0 80 61 00
        E 0 80 62 00
        E 0 80 66 00
        E 80 90 61 60
        E 0 90 62 60
        E 0 90 63 60
        E 0 90 66 60
        E 80 80 61 00
        E 0 80 62 00
        E 0 80 63 00
        E 0 80 66 00
        E 80 90 48 60
        E 0 90 54 60
        E 0 90 60 60
        E 0 90 65 60
        E 80 80 48 00
        E 0 80 54 00
        E 0 80 60 00
        E 0 80 65 00
        E 80 90 63 60
        E 0 90 64 60
        E 0 90 66 60
        E 80 80 63 00
        E 0 80 64 00
        E 0 80 66 00
        E 80 90 60 60
        E 0 90 65 60
        E 80 80 60 00
        E 0 80 65 00
        E 80 90 3f 60
        E 0 90 4a 60
        E 0 90 4b 60
        E 0 90 56 60
        E 0 90 57 60
        E 0 90 62 60
        E 0 90 63 60
        E 0 90 66 60
        E 80 80 3f 00
        E 0 80 4a 00
        E 0 80 4b 00
        E 0 80 56 00
        E 0 80 57 00
        E 0 80 62 00
        E 0 80 63 00
        E 0 80 66 00
        E 80 90 60 60
        E 0 90 65 60
        E 80 80 60 00
        E 0 80 65 00
        E 80 90 62 60
        E 0 90 64 60
        E 0 90 66 60
        E 80 80 62 00
        E 0 80 64 00
        E 0 80 66 00
        E 80 90 48 60
        E 0 90 54 60
        E 0 90 60 60
        E 0 90 65 60
        E 80 80 48 00
        E 0 80 54 00
        E 0 80 60 00
        E 0 80 65 00
        E 100 90 60 60
        E 0 90 66 60
        E 60 80 60 00
        E 0 80 66 00
        E 0 90 54 60
        E 0 90 60 60
        E 0 90 66 60
        E 60 80 54 00
        E 0 80 60 00
        E 0 80 66 00
        E 0 90 60 60
        E 0 90 66 60
        E 60 80 60 00
        E 0 80 66 00
        E 120 90 3e 60
        E 0 90 49 60
        E 0 90 4b 60
        E 0 90 55 60
        E 0 90 57 60
        E 0 90 61 60
        E 0 90 62 60
        E 0 90 63 60
        E 0 90 66 60
        E 80 80 3e 00
        E 0 80 49 00
        E 0 80 4b 00
        E 0 80 55 00
        E 0 80 57 00
        E 0 80 61 00
        E 0 80 62 00
        E 0 80 63 00
        E 0 80 66 00
        E 80 90 60 60
        E 0 90 61 60
        E 0 90 62 60
        E 0 90 66 60
        E 80 80 60 00
        E 0 80 61 00
        E 0 80 62 00
        E 0 80 66 00
        E 80 90 61 60
        E 0 90 62 60
        E 0 90 63 60
        E 0 90 66 60
        E 80 80 61 00
        E 0 80 62 00
        E 0 80 63 00
        E 0 80 66 00
        E 80 90 48 60
        E 0 90 54 60
        E 0 90 60 60
        E 0 90 65 60
        E 80 80 48 00
        E 0 80 54 00
        E 0 80 60 00
        E 0 80 65 00
        E 80 90 62 60
        E 0 90 63 60
        E 0 90 66 60
        E 80 80 62 00
        E 0 80 63 00
        E 0 80 66 00
        E 80 90 60 60
        E 0 90 65 60
        E 80 80 60 00
        E 0 80 65 00
        E 80 90 40 60
        E 0 90 4b 60
        E 0 90 4c 60
        E 0 90 57 60
        E 0 90 58 60
        E 0 90 63 60
        E 0 90 64 60
        E 0 90 66 60
        E 80 80 40 00
        E 0 80 4b 00
        E 0 80 4c 00
        E 0 80 57 00
        E 0 80 58 00
        E 0 80 63 00
        E 0 80 64 00
        E 0 80 66 00
        E 80 90 60 60
        E 0 90 65 60
        E 80 80 60 00
        E 0 80 65 00
        E 80 90 62 60
        E 0 90 64 60
        E 0 90 66 60
        E 80 80 62 00
        E 0 80 64 00
        E 0 80 66 00
        E 80 90 4a 60
        E 0 90 56 60
        E 0 90 62 60
        E 0 90 66 60
        E 80 80 4a 00
        E 0 80 56 00
        E 0 80 62 00
        E 0 80 66 00
        E 0 90 62 60
        E 0 90 66 60
        E 80 80 62 00
        E 0 80 66 00
        E 0 90 62 60
        E 0 90 66 60
        E 80 80 62 00
        E 0 80 66 00
        E 0 90 56 60
        E 0 90 62 60
        E 0 90 66 60
        E 80 80 56 00
        E 0 80 62 00
        E 0 80 66 00
        E 0 90 62 60
        E 0 90 66 60
        E 80 80 62 00
        E 0 80 66 00
        E 0 90 62 60
        E 0 90 66 60
        E 80 80 62 00
        E 0 80 66 00
        E 0 90 3e 60
        E 0 90 4b 60
        E 0 90 57 60
        E 0 90 63 60
        E 0 90 66 60
        E 80 80 3e 00
        E 0 80 4b 00
        E 0 80 57 00
        E 0 80 63 00
        E 0 80 66 00
        E 0 90 63 60
        E 0 90 66 60
        E 80 80 63 00
        E 0 80 66 00
        E 0 90 64 60
        E 0 90 66 60
        E 80 80 64 00
        E 0 80 66 00
        E 0 90 58 60
        E 0 90 64 60
        E 0 90 66 60
        E 80 80 58 00
        E 0 80 64 00
        E 0 80 66 00
        E 0 90 63 60
        E 0 90 66 60
        E 80 80 63 00
        E 0 80 66 00
        E 0 90 63 60
        E 0 90 66 60
        E 80 80 63 00
        E 0 80 66 00
        E 0 90 48 60
        E 0 90 54 60
        E 0 90 60 60
        E 0 90 66 60
        E 80 80 48 00
        E 0 80 54 00
        E 0 80 60 00
        E 0 80 66 00
        E 0 90 60 60
        E 0 90 66 60
        E 80 80 60 00
        E 0 80 66 00
        E 0 90 60 60
        E 0 90 66 60
        E 80 80 60 00
        E 0 80 66 00
        E 0 90 54 60
        E 0 90 60 60
        E 0 90 66 60
        E 80 80 54 00
        E 0 80 60 00
        E 0 80 66 00
        E 0 90 60 60
        E 0 90 66 60
        E 80 80 60 00
        E 0 80 66 00
        E 0 90 60 60
        E 0 90 66 60
        E 80 80 60 00
        E 0 80 66 00
        E 0 90 3d 60
        E 0 90 4a 60
        E 0 90 56 60
        E 0 90 62 60
        E 0 90 66 60
        E 80 80 3d 00
        E 0 80 4a 00
        E 0 80 56 00
        E 0 80 62 00
        E 0 80 66 00
        E 0 90 62 60
        E 0 90 66 60
        E 80 80 62 00
        E 0 80 66 00
        E 0 90 63 60
        E 0 90 66 60
        E 80 80 63 00
        E 0 80 66 00
        E 0 90 57 60
        E 0 90 63 60
        E 0 90 66 60
        E 80 80 57 00
        E 0 80 63 00
        E 0 80 66 00
        E 0 90 62 60
        E 0 90 66 60
        E 80 80 62 00
        E 0 80 66 00
        E 0 90 62 60
        E 0 90 66 60
        E 80 80 62 00
        E 0 80 66 00
        E 0 90 48 60
        E 0 90 54 60
        E 0 90 60 60
        E 0 90 66 60
        E 80 80 48 00
        E 0 80 54 00
        E 0 80 60 00
        E 0 80 66 00
        E 100 90 60 60
        E 0 90 66 60
        E 60 80 60 00
        E 0 80 66 00
        E 0 90 54 60
        E 0 90 60 60
        E 0 90 66 60
        E 60 80 54 00
        E 0 80 60 00
        E 0 80 66 00
        E 0 90 60 60
        E 0 90 66 60
        E 60 80 60 00
        E 0 80 66 00
        E 120 90 3e 60
        E 0 90 49 60
        E 0 90 4b 60
        E 0 90 55 60
        E 0 90 57 60
        E 0 90 61 60
        E 0 90 62 60
        E 0 90 63 60
        E 0 90 66 60
        E 80 80 3e 00
        E 0 80 49 00
        E 0 80 4b 00
        E 0 80 55 00
        E 0 80 57 00
        E 0 80 61 00
        E 0 80 62 00
        E 0 80 63 00
        E 0 80 66 00
        E 80 90 60 60
        E 0 90 61 60
        E 0 90 62 60
        E 0 90 66 60
        E 80 80 60 00
        E 0 80 61 00
        E 0 80 62 00
        E 0 80 66 00
        E 80 90 61 60
        E 0 90 62 60
        E 0 90 63 60
        E 0 90 66 60
        E 80 80 61 00
        E 0 80 62 00
        E 0 80 63 00
        E 0 80 66 00
        E 80 90 48 60
        E 0 90 54 60
        E 0 90 60 60
        E 0 90 65 60
        E 80 80 48 00
        E 0 80 54 00
        E 0 80 60 00
        E 0 80 65 00
        E 80 90 63 60
        E 0 90 64 60
        E 0 90 66 60
        E 80 80 63 00
        E 0 80 64 00
        E 0 80 66 00
        E 80 90 60 60
        E 0 90 65 60
        E 80 80 60 00
        E 0 80 65 00
        E 80 90 3f 60
        E 0 90 4a 60
        E 0 90 4b 60
        E 0 90 56 60
        E 0 90 57 60
        E 0 90 62 60
        E 0 90 63 60
        E 0 90 66 60
        E 80 80 3f 00
        E 0 80 4a 00
        E 0 80 4b 00
        E 0 80 56 00
        E 0 80 57 00
        E 0 80 62 00
        E 0 80 63 00
        E 0 80 66 00
        E 80 90 60 60
        E 0 90 65 60
        E 80 80 60 00
        E 0 80 65 00
        E 80 90 62 60
        E 0 90 64 60
        E 0 90 66 60
        E 80 80 62 00
        E 0 80 64 00
        E 0 80 66 00
        E 80 90 48 60
        E 0 90 54 60
        E 0 90 60 60
        E 0 90 65 60
        E 80 80 48 00
        E 0 80 54 00
        E 0 80 60 00
        E 0 80 65 00
        E 100 90 60 60
        E 0 90 66 60
        E 60 80 60 00
        E 0 80 66 00
        E 0 90 54 60
        E 0 90 60 60
        E 0 90 66 60
        E 60 80 54 00
        E 0 80 60 00
        E 0 80 66 00
        E 0 90 60 60
        E 0 90 66 60
        E 60 80 60 00
        E 0 80 66 00
        E 120 90 3e 60
        E 0 90 49 60
        E 0 90 4b 60
        E 0 90 55 60
        E 0 90 57 60
        E 0 90 61 60
        E 0 90 62 60
        E 0 90 63 60
        E 0 90 66 60
        E 80 80 3e 00
        E 0 80 49 00
        E 0 80 4b 00
        E 0 80 55 00
        E 0 80 57 00
        E 0 80 61 00
        E 0 80 62 00
        E 0 80 63 00
        E 0 80 66 00
        E 80 90 60 60
        E 0 90 61 60
        E 0 90 62 60
        E 0 90 66 60
        E 80 80 60 00
        E 0 80 61 00
        E 0 80 62 00
        E 0 80 66 00
        E 80 90 61 60
        E 0 90 62 60
        E 0 90 63 60
        E 0 90 66 60
        E 80 80 61 00
        E 0 80 62 00
        E 0 80 63 00
        E 0 80 66 00
        E 80 90 48 60
        E 0 90 54 60
        E 0 90 60 60
        E 0 90 65 60
        E 80 80 48 00
        E 0 80 54 00
        E 0 80 60 00
        E 0 80 65 00
        E 80 90 62 60
        E 0 90 63 60
        E 0 90 66 60
        E 80 80 62 00
        E 0 80 63 00
        E 0 80 66 00
        E 80 90 60 60
        E 0 90 65 60
        E 80 80 60 00
        E 0 80 65 00
        E 80 90 40 60
        E 0 90 4b 60
        E 0 90 4c 60
        E 0 90 57 60
        E 0 90 58 60
        E 0 90 63 60
        E 0 90 64 60
        E 0 90 66 60
        E 80 80 40 00
        E 0 80 4b 00
        E 0 80 4c 00
        E 0 80 57 00
        E 0 80 58 00
        E 0 80 63 00
        E 0 80 64 00
        E 0 80 66 00
        E 80 90 60 60
        E 0 90 65 60
        E 80 80 60 00
        E 0 80 65 00
        E 80 90 62 60
        E 0 90 64 60
        E 0 90 66 60
        E 80 80 62 00
        E 0 80 64 00
        E 0 80 66 00
        E 80 90 48 60
        E 0 90 54 60
        E 0 90 60 60
        E 0 90 65 60
        E 80 80 48 00
        E 0 80 54 00
        E 0 80 60 00
        E 0 80 65 00
        E 100 90 60 60
        E 0 90 66 60
        E 60 80 60 00
        E 0 80 66 00
        E 0 90 54 60
        E 0 90 60 60
        E 0 90 66 60
        E 60 80 54 00
        E 0 80 60 00
        E 0 80 66 00
        E 0 90 60 60
        E 0 90 66 60
        E 60 80 60 00
        E 0 80 66 00
        E 120 90 3e 60
        E 0 90 49 60
        E 0 90 4b 60
        E 0 90 55 60
        E 0 90 57 60
        E 0 90 61 60
        E 0 90 62 60
        E 0 90 63 60
        E 0 90 66 60
        E 80 80 3e 00
        E 0 80 49 00
        E 0 80 4b 00
        E 0 80 55 00
        E 0 80 57 00
        E 0 80 61 00
        E 0 80 62 00
        E 0 80 63 00
        E 0 80 66 00
        E 80 90 60 60
        E 0 90 61 60
        E 0 90 62 60
        E 0 90 66 60
        E 80 80 60 00
        E 0 80 61 00
        E 0 80 62 00
        E 0 80 66 00
        E 80 90 61 60
        E 0 90 62 60
        E 0 90 63 60
        E 0 90 66 60
        E 80 80 61 00
        E 0 80 62 00
        E 0 80 63 00
        E 0 80 66 00
        E 80 90 48 60
        E 0 90 54 60
        E 0 90 60 60
        E 0 90 65 60
        E 80 80 48 00
        E 0 80 54 00
        E 0 80 60 00
        E 0 80 65 00
        E 80 90 61 60
        E 0 90 62 60
        E 0 90 64 60
        E 0 90 66 60
        E 80 80 61 00
        E 0 80 62 00
        E 0 80 64 00
        E 0 80 66 00
        E 80 90 60 60
        E 0 90 65 60
        E 80 80 60 00
        E 0 80 65 00
        E 80 90 40 60
        E 0 90 4b 60
        E 0 90 4c 60
        E 0 90 57 60
        E 0 90 58 60
        E 0 90 62 60
        E 0 90 63 60
        E 0 90 64 60
        E 0 90 66 60
        E 80 80 40 00
        E 0 80 4b 00
        E 0 80 4c 00
        E 0 80 57 00
        E 0 80 58 00
        E 0 80 62 00
        E 0 80 63 00
        E 0 80 64 00
        E 0 80 66 00
        E 80 90 60 60
        E 0 90 65 60
        E 80 80 60 00
        E 0 80 65 00
        E 80 90 61 60
        E 0 90 63 60
        E 0 90 64 60
        E 0 90 66 60
        E 80 80 61 00
        E 0 80 63 00
        E 0 80 64 00
        E 0 80 66 00
        E 80 90 4a 60
        E 0 90 56 60
        E 0 90 62 60
        E 0 90 66 60
        E 80 80 4a 00
        E 0 80 56 00
        E 0 80 62 00
        E 0 80 66 00
        E 0 90 62 60
        E 0 90 66 60
        E 80 80 62 00
        E 0 80 66 00
        E 0 90 62 60
        E 0 90 66 60
        E 80 80 62 00
        E 0 80 66 00
        E 0 90 56 60
        E 0 90 62 60
        E 0 90 66 60
        E 80 80 56 00
        E 0 80 62 00
        E 0 80 66 00
        E 0 90 62 60
        E 0 90 66 60
        E 80 80 62 00
        E 0 80 66 00
        E 0 90 62 60
        E 0 90 66 60
        E 80 80 62 00
        E 0 80 66 00
        E 0 90 3e 60
        E 0 90 4b 60
        E 0 90 57 60
        E 0 90 63 60
        E 0 90 66 60
        E 80 80 3e 00
        E 0 80 4b 00
        E 0 80 57 00
        E 0 80 63 00
        E 0 80 66 00
        E 0 90 63 60
        E 0 90 66 60
        E 80 80 63 00
        E 0 80 66 00
        E 0 90 64 60
        E 0 90 66 60
        E 80 80 64 00
        E 0 80 66 00
        E 0 90 58 60
        E 0 90 64 60
        E 0 90 66 60
        E 80 80 58 00
        E 0 80 64 00
        E 0 80 66 00
        E 0 90 63 60
        E 0 90 66 60
        E 80 80 63 00
        E 0 80 66 00
        E 0 90 63 60
        E 0 90 66 60
        E 80 80 63 00
        E 0 80 66 00
        E 0 90 48 60
        E 0 90 54 60
        E 0 90 60 60
        E 0 90 66 60
        E 80 80 48 00
        E 0 80 54 00
        E 0 80 60 00
        E 0 80 66 00
        E 0 90 60 60
        E 0 90 66 60
        E 80 80 60 00
        E 0 80 66 00
        E 0 90 60 60
        E 0 90 66 60
        E 80 80 60 00
        E 0 80 66 00
        E 0 90 54 60
        E 0 90 60 60
        E 0 90 66 60
        E 80 80 54 00
        E 0 80 60 00
        E 0 80 66 00
        E 0 90 60 60
        E 0 90 66 60
        E 80 80 60 00
        E 0 80 66 00
        E 0 90 60 60
        E 0 90 66 60
        E 80 80 60 00
        E 0 80 66 00
        E 0 90 3d 60
        E 0 90 4a 60
        E 0 90 56 60
        E 0 90 62 60
        E 0 90 66 60
        E 80 80 3d 00
        E 0 80 4a 00
        E 0 80 56 00
        E 0 80 62 00
        E 0 80 66 00
        E 0 90 62 60
        E 0 90 66 60
        E 80 80 62 00
        E 0 80 66 00
        E 0 90 63 60
        E 0 90 66 60
        E 80 80 63 00
        E 0 80 66 00
        E 0 90 57 60
        E 0 90 63 60
        E 0 90 66 60
        E 80 80 57 00
        E 0 80 63 00
        E 0 80 66 00
        E 0 90 62 60
        E 0 90 66 60
        E 80 80 62 00
        E 0 80 66 00
        E 0 90 62 60
        E 0 90 66 60
        E 80 80 62 00
        E 0 80 66 00
        E 0 90 48 60
        E 0 90 54 60
        E 0 90 60 60
        E 0 90 66 60
        E 80 80 48 00
        E 0 80 54 00
        E 0 80 60 00
        E 0 80 66 00
        E 100 90 60 60
        E 0 90 66 60
        E 60 80 60 00
        E 0 80 66 00
        E 0 90 54 60
        E 0 90 60 60
        E 0 90 66 60
        E 60 80 54 00
        E 0 80 60 00
        E 0 80 66 00
        E 0 90 60 60
        E 0 90 66 60
        E 60 80 60 00
        E 0 80 66 00
        E 120 90 3d 60
        E 0 90 4a 60
        E 0 90 56 60
        E 0 90 62 60
        E 0 90 66 60
        E 80 80 3d 00
        E 0 80 4a 00
        E 0 80 56 00
        E 0 80 62 00
        E 0 80 66 00
        E 80 90 61 60
        E 0 90 66 60
        E 80 80 61 00
        E 0 80 66 00
        E 80 90 62 60
        E 0 90 66 60
        E 80 80 62 00
        E 0 80 66 00
        E 80 90 49 60
        E 0 90 55 60
        E 0 90 61 60
        E 0 90 66 60
        E 80 80 49 00
        E 0 80 55 00
        E 0 80 61 00
        E 0 80 66 00
        E 100 90 61 60
        E 0 90 66 60
        E 60 80 61 00
        E 0 80 66 00
        E 0 90 55 60
        E 0 90 61 60
        E 0 90 66 60
        E 60 80 55 00
        E 0 80 61 00
        E 0 80 66 00
        E 0 90 61 60
        E 0 90 66 60
        E 60 80 61 00
        E 0 80 66 00
        E 120 90 3e 60
        E 0 90 4b 60
        E 0 90 57 60
        E 0 90 63 60
        E 0 90 66 60
        E 80 80 3e 00
        E 0 80 4b 00
        E 0 80 57 00
        E 0 80 63 00
        E 0 80 66 00
        E 80 90 61 60
        E 0 90 66 60
        E 80 80 61 00
        E 0 80 66 00
        E 80 90 63 60
        E 0 90 66 60
        E 80 80 63 00
        E 0 80 66 00
        E 80 90 4a 60
        E 0 90 56 60
        E 0 90 62 60
        E 0 90 66 60
        E 80 80 4a 00
        E 0 80 56 00
        E 0 80 62 00
        E 0 80 66 00
        E 100 90 62 60
        E 0 90 66 60
        E 60 80 62 00
        E 0 80 66 00
        E 0 90 56 60
        E 0 90 62 60
        E 0 90 66 60
        E 60 80 56 00
        E 0 80 62 00
        E 0 80 66 00
        E 0 90 62 60
        E 0 90 66 60
        E 60 80 62 00
        E 0 80 66 00
        E 120 90 3e 60
        E 0 90 4b 60
        E 0 90 57 60
        E 0 90 63 60
        E 0 90 66 60
        E 80 80 3e 00
        E 0 80 4b 00
        E 0 80 57 00
        E 0 80 63 00
        E 0 80 66 00
        E 80 90 62 60
        E 0 90 66 60
        E 80 80 62 00
        E 0 80 66 00
        E 80 90 63 60
        E 0 90 66 60
        E 80 80 63 00
        E 0 80 66 00
        E 80 90 3e 60
        E 0 90 4b 60
        E 0 90 58 60
        E 0 90 64 60
        E 0 90 66 60
        E 120 80 3e 00
        E 0 80 4b 00
        E 0 80 58 00
        E 120 80 64 00
        E 0 80 66 00
        E 80 90 56 60
        E 0 90 62 60
        E 0 90 66 60
        E 520 80 56 00
        E 40 80 62 00
        E 0 80 66 00
        E 80 90 49 60
        E 0 90 55 60
        E 0 90 61 60
        E 0 90 66 60
        E 0 90 74 60
        E 80 80 49 00
        E 0 80 55 00
        E 0 80 61 00
        E 0 80 66 00
        E 0 90 61 60
        E 0 90 66 60
        E 80 80 61 00
        E 0 80 66 00
        E 0 90 61 60
        E 0 90 66 60
        E 80 80 61 00
        E 0 80 66 00
        E 0 90 55 60
        E 0 90 61 60
        E 0 90 66 60
        E 80 80 55 00
        E 0 80 61 00
        E 0 80 66 00
        E 0 90 61 60
        E 0 90 66 60
        E 80 80 61 00
        E 0 80 66 00
        E 0 90 61 60
        E 0 90 66 60
        E 80 80 61 00
        E 0 80 66 00
        E 0 90 3e 60
        E 0 90 4b 60
        E 0 90 58 60
        E 0 90 64 60
        E 0 90 66 60
        E 80 80 3e 00
        E 0 80 4b 00
        E 0 80 58 00
        E 0 80 64 00
        E 0 80 66 00
        E 0 90 64 60
        E 0 90 66 60
        E 80 80 64 00
        E 0 80 66 00
        E 0 90 64 60
        E 0 90 66 60
        E 80 80 64 00
        E 0 80 66 00
        E 0 90 58 60
        E 0 90 64 60
        E 0 90 66 60
        E 80 80 58 00
        E 0 80 64 00
        E 0 80 66 00
        E 0 90 64 60
        E 0 90 66 60
        E 80 80 64 00
        E 0 80 66 00
        E 0 90 64 60
        E 0 90 66 60
        E 80 80 64 00
        E 0 80 66 00
        E 0 90 48 60
        E 0 90 54 60
        E 0 90 60 60
        E 0 90 66 60
        E 80 80 48 00
        E 0 80 54 00
        E 0 80 60 00
        E 0 80 66 00
        E 0 90 60 60
        E 0 90 66 60
        E 80 80 60 00
        E 0 80 66 00
        E 0 90 60 60
        E 0 90 66 60
        E 80 80 60 00
        E 0 80 66 00
        E 0 90 54 60
        E 0 90 60 60
        E 0 90 66 60
        E 80 80 54 00
        E 0 80 60 00
        E 0 80 66 00
        E 0 90 60 60
        E 0 90 66 60
        E 80 80 60 00
        E 0 80 66 00
        E 0 90 60 60
        E 0 90 66 60
        E 80 80 60 00
        E 0 80 66 00
        E 0 90 3d 60
        E 0 90 4a 60
        E 0 90 56 60
        E 0 90 62 60
        E 0 90 66 60
        E 80 80 3d 00
        E 0 80 4a 00
        E 0 80 56 00
        E 0 80 62 00
        E 0 80 66 00
        E 0 90 62 60
        E 0 90 66 60
        E 80 80 62 00
        E 0 80 66 00
        E 0 90 62 60
        E 0 90 66 60
        E 80 80 62 00
        E 0 80 66 00
        E 0 90 56 60
        E 0 90 62 60
        E 0 90 66 60
        E 80 80 56 00
        E 0 80 62 00
        E 0 80 66 00
        E 0 90 62 60
        E 0 90 66 60
        E 80 80 62 00
        E 0 80 66 00
        E 0 90 62 60
        E 0 90 66 60
        E 80 80 74 00
        E 0 80 62 00
        E 0 80 66 00
        E 0 90 4b 60
        E 0 90 57 60
        E 0 90 63 60
        E 0 90 66 60
        E 80 80 4b 00
        E 0 80 57 00
        E 0 80 63 00
        E 0 80 66 00
        E 80 90 64 60
        E 0 90 65 60
        E 80 80 64 00
        E 0 80 65 00
        E 80 90 63 60
        E 0 90 65 60
        E 80 80 63 00
        E 0 80 65 00
        E 80 90 3d 60
        E 0 90 4a 60
        E 0 90 56 60
        E 0 90 62 60
        E 0 90 65 60
        E 80 80 3d 00
        E 0 80 4a 00
        E 0 80 56 00
        E 0 80 62 00
        E 0 80 65 00
        E 80 90 63 60
        E 0 90 65 60
        E 80 80 63 00
        E 0 80 65 00
        E 80 90 62 60
        E 0 90 65 60
        E 80 80 62 00
        E 0 80 65 00
        E 80 90 49 60
        E 0 90 55 60
        E 0 90 61 60
        E 0 90 65 60
        E 80 80 49 00
        E 0 80 55 00
        E 0 80 61 00
        E 0 80 65 00
        E 80 90 62 60
        E 0 90 65 60
        E 80 80 62 00
        E 0 80 65 00
        E 80 90 61 60
        E 0 90 65 60
        E 80 80 61 00
        E 0 80 65 00
        E 80 90 3c 60
        E 0 90 48 60
        E 0 90 54 60
        E 0 90 60 60
        E 0 90 65 60
        E 80 80 3c 00
        E 0 80 48 00
        E 0 80 54 00
        E 0 80 60 00
        E 0 80 65 00
        E 80 90 61 60
        E 0 90 65 60
        E 80 80 61 00
        E 0 80 65 00
        E 80 90 60 60
        E 0 90 65 60
        E 80 80 60 00
        E 0 80 65 00
        E 80 90 48 60
        E 0 90 54 60
        E 0 90 60 60
        E 0 90 66 60
        E 0 90 67 60
        E 80 80 48 00
        E 0 80 54 00
        E 0 80 60 00
        E 0 80 66 00
        E 80 90 61 60
        E 0 90 65 60
        E 80 80 61 00
        E 0 80 65 00
        E 80 90 63 60
        E 0 90 65 60
        E 80 80 63 00
        E 0 80 65 00
        E 80 90 3d 60
        E 0 90 4a 60
        E 0 90 56 60
        E 0 90 62 60
        E 0 90 65 60
        E 80 80 3d 00
        E 0 80 4a 00
        E 0 80 56 00
        E 0 80 62 00
        E 0 80 65 00
        E 80 90 61 60
        E 0 90 65 60
        E 80 80 61 00
        E 0 80 65 00
        E 80 90 63 60
        E 0 90 65 60
        E 80 80 63 00
        E 0 80 65 00
        E 80 90 3d 60
        E 0 90 49 60
        E 0 90 55 60
        E 0 90 61 60
        E 0 90 65 60
        E 80 80 3d 00
        E 0 80 49 00
        E 0 80 55 00
        E 0 80 61 00
        E 0 80 65 00
        E 80 90 63 60
        E 0 90 65 60
        E 80 80 63 00
        E 0 80 65 00
        E 80 90 64 60
        E 0 90 65 60
        E 80 80 64 00
        E 0 80 65 00
        E 80 90 3d 60
        E 0 90 4a 60
        E 0 90 56 60
        E 0 90 62 60
        E 0 90 65 60
        E 80 80 3d 00
        E 0 80 4a 00
        E 0 80 56 00
        E 0 80 62 00
        E 0 80 65 00
        E 80 90 63 60
        E 0 90 65 60
        E 80 80 63 00
        E 0 80 65 00
        E 80 90 62 60
        E 0 90 65 60
        E 80 80 62 00
        E 0 80 65 00
        E 80 90 4b 60
        E 0 90 58 60
        E 0 90 64 60
        E 0 90 65 60
        E 80 80 4b 00
        E 0 80 58 00
        E 0 80 64 00
        E 0 80 65 00
        E 80 90 63 60
        E 0 90 65 60
        E 80 80 63 00
        E 0 80 65 00
        E 80 90 61 60
        E 0 90 65 60
        E 80 80 61 00
        E 0 80 65 00
        E 80 90 3e 60
        E 0 90 4b 60
        E 0 90 57 60
        E 0 90 63 60
        E 0 90 65 60
        E 80 80 3e 00
        E 0 80 4b 00
        E 0 80 57 00
        E 0 80 63 00
        E 0 80 65 00
        E 80 90 62 60
        E 0 90 65 60
        E 80 80 62 00
        E 0 80 65 00
        E 80 90 63 60
        E 0 90 65 60
        E 80 80 63 00
        E 0 80 65 00
        E 80 90 4a 60
        E 0 90 56 60
        E 0 90 62 60
        E 0 90 65 60
        E 80 80 4a 00
        E 0 80 56 00
        E 0 80 62 00
        E 0 80 65 00
        E 0 90 63 60
        E 0 90 65 60
        E 80 80 63 00
        E 0 80 65 00
        E 0 90 62 60
        E 0 90 65 60
        E 80 80 62 00
        E 0 80 65 00
        E 0 90 57 60
        E 0 90 63 60
        E 0 90 65 60
        E 80 80 57 00
        E 0 80 63 00
        E 0 80 65 00
        E 0 90 62 60
        E 0 90 65 60
        E 80 80 62 00
        E 0 80 65 00
        E 0 90 63 60
        E 0 90 65 60
        E 80 80 63 00
        E 0 80 65 00
        E 0 90 3d 60
        E 0 90 49 60
        E 0 90 55 60
        E 0 90 61 60
        E 0 90 66 60
        E 120 80 3d 00
        E 0 80 49 00
        E 240 80 55 00
        E 40 80 61 00
        E 0 80 66 00
        E 80 90 4a 60
        E 0 90 56 60
        E 0 90 62 60
        E 0 90 66 60
        E 120 80 4a 00
        E 240 80 56 00
        E 40 80 62 00
        E 0 80 66 00
        E 80 90 3f 60
        E 0 90 4a 60
        E 0 90 4b 60
        E 0 90 56 60
        E 0 90 57 60
        E 0 90 62 60
        E 0 90 63 60
        E 0 90 66 60
        E 120 80 3f 00
        E 0 80 4a 00
        E 0 80 4b 00
        E 240 80 56 00
        E 0 80 57 00
        E 40 80 62 00
        E 0 80 63 00
        E 0 80 66 00
        E 80 90 4a 60
        E 0 90 56 60
        E 0 90 62 60
        E 0 90 66 60
        E 80 80 4a 00
        E 0 80 56 00
        E 0 80 62 00
        E 0 80 66 00
        E 80 90 63 60
        E 0 90 64 60
        E 0 90 66 60
        E 80 80 63 00
        E 0 80 64 00
        E 0 80 66 00
        E 80 90 62 60
        E 0 90 66 60
        E 80 80 62 00
        E 0 80 66 00
        E 80 90 3d 60
        E 0 90 49 60
        E 0 90 55 60
        E 0 90 61 60
        E 0 90 66 60
        E 120 80 3d 00
        E 0 80 49 00
        E 240 80 55 00
        E 40 80 61 00
        E 0 80 66 00
        E 80 90 4b 60
        E 0 90 57 60
        E 0 90 63 60
        E 0 90 66 60
        E 80 80 4b 00
        E 0 80 57 00
        E 0 80 63 00
        E 0 80 66 00
        E 0 90 63 60
        E 0 90 66 60
        E 80 80 63 00
        E 0 80 66 00
        E 0 90 63 60
        E 0 90 66 60
        E 80 80 63 00
        E 0 80 66 00
        E 0 90 4b 60
        E 0 90 58 60
        E 0 90 64 60
        E 0 90 66 60
        E 80 80 4b 00
        E 0 80 58 00
        E 0 80 64 00
        E 0 80 66 00
        E 0 90 64 60
        E 0 90 66 60
        E 80 80 64 00
        E 0 80 66 00
        E 0 90 64 60
        E 0 90 66 60
        E 80 80 64 00
        E 0 80 66 00
        E 0 90 3e 60
        E 0 90 4b 60
        E 0 90 57 60
        E 0 90 63 60
        E 0 90 66 60
        E 80 80 3e 00
        E 0 80 4b 00
        E 0 80 57 00
        E 0 80 63 00
        E 0 80 66 00
        E 0 90 63 60
        E 0 90 66 60
        E 80 80 63 00
        E 0 80 66 00
        E 0 90 63 60
        E 0 90 66 60
        E 80 80 63 00
        E 0 80 66 00
        E 0 90 56 60
        E 0 90 62 60
        E 0 90 66 60
        E 80 80 56 00
        E 0 80 62 00
        E 0 80 66 00
        E 0 90 62 60
        E 0 90 66 60
        E 80 80 62 00
        E 0 80 66 00
        E 0 90 62 60
        E 0 90 66 60
        E 80 80 62 00
        E 0 80 66 00
        E 0 90 4b 60
        E 0 90 57 60
        E 0 90 63 60
        E 0 90 66 60
        E 80 80 4b 00
        E 0 80 57 00
        E 0 80 63 00
        E 0 80 66 00
        E 0 90 63 60
        E 0 90 66 60
        E 80 80 63 00
        E 0 80 66 00
        E 0 90 63 60
        E 0 90 66 60
        E 80 80 63 00
        E 0 80 66 00
        E 0 90 56 60
        E 0 90 62 60
        E 0 90 66 60
        E 80 80 56 00
        E 0 80 62 00
        E 0 80 66 00
        E 0 90 62 60
        E 0 90 66 60
        E 80 80 62 00
        E 0 80 66 00
        E 0 90 62 60
        E 0 90 66 60
        E 80 80 62 00
        E 0 80 66 00
        E 0 90 3d 60
        E 0 90 49 60
        E 0 90 55 60
        E 0 90 61 60
        E 0 90 66 60
        E 80 80 3d 00
        E 0 80 49 00
        E 0 80 55 00
        E 0 80 61 00
        E 0 80 66 00
        E 0 90 61 60
        E 0 90 66 60
        E 80 80 61 00
        E 0 80 66 00
        E 0 90 61 60
        E 0 90 66 60
        E 80 80 61 00
        E 0 80 66 00
        E 0 90 54 60
        E 0 90 60 60
        E 0 90 66 60
        E 80 80 54 00
        E 0 80 60 00
        E 0 80 66 00
        E 0 90 60 60
        E 0 90 66 60
        E 80 80 60 00
        E 0 80 66 00
        E 0 90 60 60
        E 0 90 66 60
        E 80 80 60 00
        E 0 80 66 00
        E 0 90 3d 60
        E 0 90 49 60
        E 0 90 55 60
        E 0 90 61 60
        E 0 90 66 60
        E 480 80 3d 00
        E 0 80 49 00
        E 360 80 55 00
        E 40 80 61 00
        E 0 80 66 00
        E 80 80 67 00
        E 0 90 4a 60
        E 0 90 56 60
        E 0 90 62 60
        E 0 90 66 60
        E 120 80 4a 00
        E 240 80 56 00
        E 40 80 62 00
        E 0 80 66 00
        E 80 90 3e 60
        E 0 90 4b 60
        E 0 90 58 60
        E 0 90 64 60
        E 0 90 66 60
        E 120 80 3e 00
        E 0 80 4b 00
        E 240 80 58 00
        E 40 80 64 00
        E 0 80 66 00
        E 80 90 3e 60
        E 0 90 4b 60
        E 0 90 57 60
        E 0 90 63 60
        E 0 90 66 60
        E 480 80 3e 00
        E 0 80 4b 00
        E 360 80 57 00
        E 40 80 63 00
        E 0 80 66 00
        E 80 90 3c 60
        E 0 90 48 60
        E 0 90 54 60
        E 0 90 60 60
        E 0 90 66 60
        E 480 80 3c 00
        E 0 80 48 00
        E 360 80 54 00
        E 40 80 60 00
        E 0 80 66 00
        E 80 90 3d 60
        E 0 90 49 60
        E 0 90 55 60
        E 0 90 61 60
        E 0 90 66 60
        E 480 80 3d 00
        E 0 80 49 00
        E 360 80 55 00
        E 40 80 61 00
        E 0 80 66 00
        E 80 90 4a 60
        E 0 90 56 60
        E 0 90 62 60
        E 0 90 66 60
        E 120 80 4a 00
        E 240 80 56 00
        E 40 80 62 00
        E 0 80 66 00
        E 80 90 3e 60
        E 0 90 4b 60
        E 0 90 57 60
        E 0 90 63 60
        E 0 90 66 60
        E 120 80 3e 00
        E 0 80 4b 00
        E 240 80 57 00
        E 40 80 63 00
        E 0 80 66 00
        E 80 90 3e 60
        E 0 90 4b 60
        E 0 90 57 60
        E 0 90 63 60
        E 0 90 66 60
        E 80 80 3e 00
        E 0 80 4b 00
        E 0 80 57 00
        E 0 80 63 00
        E 0 80 66 00
        E 80 90 62 60
        E 0 90 66 60
        E 80 80 62 00
        E 0 80 66 00
        E 80 90 61 60
        E 0 90 66 60
        E 80 80 61 00
        E 0 80 66 00
        E 80 90 3e 60
        E 0 90 4b 60
        E 0 90 57 60
        E 0 90 63 60
        E 0 90 66 60
        E 80 80 3e 00
        E 0 80 4b 00
        E 0 80 57 00
        E 0 80 63 00
        E 0 80 66 00
        E 80 90 62 60
        E 0 90 66 60
        E 80 80 62 00
        E 0 80 66 00
        E 80 90 61 60
        E 0 90 66 60
        E 80 80 61 00
        E 0 80 66 00
        E 80 90 3e 60
        E 0 90 4b 60
        E 0 90 57 60
        E 0 90 63 60
        E 0 90 66 60
        E 80 80 3e 00
        E 0 80 4b 00
        E 0 80 57 00
        E 0 80 63 00
        E 0 80 66 00
        E 80 90 62 60
        E 0 90 66 60
        E 80 80 62 00
        E 0 80 66 00
        E 80 90 61 60
        E 0 90 66 60
        E 80 80 61 00
        E 0 80 66 00
        E 80 90 3e 60
        E 0 90 4b 60
        E 0 90 57 60
        E 0 90 63 60
        E 0 90 66 60
        E 80 80 3e 00
        E 0 80 4b 00
        E 0 80 57 00
        E 0 80 63 00
        E 0 80 66 00
        E 80 90 62 60
        E 0 90 66 60
        E 80 80 62 00
        E 0 80 66 00
        E 80 90 61 60
        E 0 90 66 60
        E 80 80 61 00
        E 0 80 66 00
        E 80 90 49 60
        E 0 90 55 60
        E 0 90 61 60
        E 0 90 66 60
        E 480 80 49 00
        E 360 80 55 00
        E 40 80 61 00
        E 0 80 66 00
        E 80 90 4a 60
        E 0 90 56 60
        E 0 90 62 60
        E 0 90 66 60
        E 120 80 4a 00
        E 240 80 56 00
        E 40 80 62 00
        E 0 80 66 00
        E 80 90 3e 60
        E 0 90 4b 60
        E 0 90 58 60
        E 0 90 64 60
        E 0 90 66 60
        E 120 80 3e 00
        E 0 80 4b 00
        E 240 80 58 00
        E 40 80 64 00
        E 0 80 66 00
        E 80 90 3e 60
        E 0 90 4b 60
        E 0 90 57 60
        E 0 90 63 60
        E 0 90 66 60
        E 480 80 3e 00
        E 0 80 4b 00
        E 360 80 57 00
        E 40 80 63 00
        E 0 80 66 00
        E 80 90 3c 60
        E 0 90 48 60
        E 0 90 54 60
        E 0 90 60 60
        E 0 90 66 60
        E 480 80 3c 00
        E 0 80 48 00
        E 360 80 54 00
        E 40 80 60 00
        E 0 80 66 00
        E 80 90 3d 60
        E 0 90 49 60
        E 0 90 55 60
        E 0 90 61 60
        E 0 90 66 60
        E 0 90 74 60
        E 480 80 3d 00
        E 0 80 49 00
        E 360 80 55 00
        E 40 80 61 00
        E 0 80 66 00
        E 80 90 4a 60
        E 0 90 56 60
        E 0 90 62 60
        E 0 90 66 60
        E 120 80 4a 00
        E 240 80 56 00
        E 40 80 62 00
        E 0 80 66 00
        E 80 90 3e 60
        E 0 90 4b 60
        E 0 90 57 60
        E 0 90 63 60
        E 0 90 66 60
        E 120 80 3e 00
        E 0 80 4b 00
        E 240 80 57 00
        E 40 80 63 00
        E 0 80 66 00
        E 80 80 74 00
        E 0 90 3e 60
        E 0 90 4b 60
        E 0 90 57 60
        E 0 90 63 60
        E 0 90 66 60
        E 80 80 3e 00
        E 0 80 4b 00
        E 0 80 57 00
        E 0 80 63 00
        E 0 80 66 00
        E 80 90 62 60
        E 0 90 66 60
        E 80 80 62 00
        E 0 80 66 00
        E 80 90 61 60
        E 0 90 66 60
        E 80 80 61 00
        E 0 80 66 00
        E 80 90 3e 60
        E 0 90 4b 60
        E 0 90 58 60
        E 0 90 64 60
        E 0 90 66 60
        E 80 80 3e 00
        E 0 80 4b 00
        E 0 80 58 00
        E 0 80 64 00
        E 0 80 66 00
        E 80 90 62 60
        E 0 90 66 60
        E 80 80 62 00
        E 0 80 66 00
        E 80 90 61 60
        E 0 90 66 60
        E 80 80 61 00
        E 0 80 66 00
        E 80 90 3e 60
        E 0 90 4b 60
        E 0 90 57 60
        E 0 90 63 60
        E 0 90 66 60
        E 80 80 3e 00
        E 0 80 4b 00
        E 0 80 57 00
        E 0 80 63 00
        E 0 80 66 00
        E 80 90 62 60
        E 0 90 66 60
        E 80 80 62 00
        E 0 80 66 00
        E 80 90 61 60
        E 0 90 66 60
        E 80 80 61 00
        E 0 80 66 00
        E 80 90 3e 60
        E 0 90 4b 60
        E 0 90 58 60
        E 0 90 64 60
        E 0 90 66 60
        E 80 80 3e 00
        E 0 80 4b 00
        E 0 80 58 00
        E 0 80 64 00
        E 0 80 66 00
        E 80 90 63 60
        E 0 90 64 60
        E 0 90 65 60
        E 80 80 63 00
        E 0 80 64 00
        E 0 80 65 00
        E 80 90 64 60
        E 0 90 65 60
        E 80 80 64 00
        E 0 80 65 00
        E 80 90 48 60
        E 0 90 54 60
        E 0 90 60 60
        E 0 90 66 60
        E 120 80 48 00
        E 240 80 54 00
        E 61 80 60 00
        E 0 80 66 00
        E 59 90 3f 60
        E 0 90 4a 60
        E 0 90 4c 60
        E 0 90 55 60
        E 0 90 58 60
        E 0 90 61 60
        E 0 90 64 60
        E 0 90 66 60
        E 120 80 3f 00
        E 0 80 4a 00
        E 0 80 4c 00
        E 240 80 55 00
        E 0 80 58 00
        E 61 80 61 00
        E 0 80 64 00
        E 0 80 66 00
        E 59 90 48 60
        E 0 90 54 60
        E 0 90 60 60
        E 0 90 66 60
        E 120 80 48 00
        E 240 80 54 00
        E 60 80 60 00
        E 0 80 66 00
        E 60 90 3c 60
        E 0 90 48 60
        E 0 90 54 60
        E 0 90 60 60
        E 0 90 66 60
        E 120 80 3c 00
        E 0 80 48 00
        E 0 80 54 00
        E 179 80 60 00
        E 0 80 66 00
        E 61 90 61 60
        E 0 90 64 60
        E 0 90 66 60
        E 59 80 61 00
        E 0 80 64 00
        E 0 80 66 00
        E 61 90 49 60
        E 0 90 4a 60
        E 0 90 54 60
        E 0 90 57 60
        E 0 90 60 60
        E 0 90 63 60
        E 0 90 66 60
        E 120 80 49 00
        E 0 80 4a 00
        E 240 80 54 00
        E 0 80 57 00
        E 60 80 60 00
        E 0 80 63 00
        E 0 80 66 00
        E 60 90 3d 60
        E 0 90 49 60
        E 0 90 4a 60
        E 0 90 54 60
        E 0 90 57 60
        E 0 90 60 60
        E 0 90 63 60
        E 0 90 66 60
        E 120 80 3d 00
        E 0 80 49 00
        E 0 80 4a 00
        E 240 80 54 00
        E 0 80 57 00
        E 61 80 60 00
        E 0 80 63 00
        E 0 80 66 00
        E 59 90 48 60
        E 0 90 4a 60
        E 0 90 54 60
        E 0 90 56 60
        E 0 90 60 60
        E 0 90 62 60
        E 0 90 66 60
        E 120 80 48 00
        E 0 80 4a 00
        E 240 80 54 00
        E 0 80 56 00
        E 60 80 60 00
        E 0 80 62 00
        E 0 80 66 00
        E 60 90 3c 60
        E 0 90 48 60
        E 0 90 4a 60
        E 0 90 54 60
        E 0 90 56 60
        E 0 90 60 60
        E 0 90 62 60
        E 0 90 66 60
        E 80 80 3c 00
        E 0 80 48 00
        E 0 80 4a 00
        E 0 80 54 00
        E 0 80 56 00
        E 0 80 60 00
        E 0 80 62 00
        E 0 80 66 00
        E 80 90 61 60
        E 0 90 62 60
        E 0 90 66 60
        E 80 80 61 00
        E 0 80 62 00
        E 0 80 66 00
        E 80 90 60 60
        E 0 90 61 60
        E 0 90 66 60
        E 80 80 60 00
        E 0 80 61 00
        E 0 80 66 00
        E 80 90 48 60
        E 0 90 54 60
        E 0 90 60 60
        E 0 90 66 60
        E 120 80 48 00
        E 240 80 54 00
        E 61 80 60 00
        E 0 80 66 00
        E 59 90 3f 60
        E 0 90 4a 60
        E 0 90 4c 60
        E 0 90 55 60
        E 0 90 58 60
        E 0 90 61 60
        E 0 90 64 60
        E 0 90 66 60
        E 120 80 3f 00
        E 0 80 4a 00
        E 0 80 4c 00
        E 240 80 55 00
        E 0 80 58 00
        E 61 80 61 00
        E 0 80 64 00
        E 0 80 66 00
        E 59 90 48 60
        E 0 90 54 60
        E 0 90 60 60
        E 0 90 66 60
        E 120 80 48 00
        E 240 80 54 00
        E 60 80 60 00
        E 0 80 66 00
        E 60 90 3c 60
        E 0 90 48 60
        E 0 90 54 60
        E 0 90 60 60
        E 0 90 66 60
        E 120 80 3c 00
        E 0 80 48 00
        E 0 80 54 00
        E 179 80 60 00
        E 0 80 66 00
        E 61 90 61 60
        E 0 90 64 60
        E 0 90 66 60
        E 59 80 61 00
        E 0 80 64 00
        E 0 80 66 00
        E 61 90 49 60
        E 0 90 4a 60
        E 0 90 54 60
        E 0 90 57 60
        E 0 90 60 60
        E 0 90 63 60
        E 0 90 66 60
        E 120 80 49 00
        E 0 80 4a 00
        E 240 80 54 00
        E 0 80 57 00
        E 60 80 60 00
        E 0 80 63 00
        E 0 80 66 00
        E 60 90 3d 60
        E 0 90 49 60
        E 0 90 4a 60
        E 0 90 54 60
        E 0 90 57 60
        E 0 90 60 60
        E 0 90 63 60
        E 0 90 66 60
        E 120 80 3d 00
        E 0 80 49 00
        E 0 80 4a 00
        E 240 80 54 00
        E 0 80 57 00
        E 61 80 60 00
        E 0 80 63 00
        E 0 80 66 00
        E 59 90 48 60
        E 0 90 4a 60
        E 0 90 54 60
        E 0 90 56 60
        E 0 90 60 60
        E 0 90 62 60
        E 0 90 66 60
        E 120 80 48 00
        E 0 80 4a 00
        E 240 80 54 00
        E 0 80 56 00
        E 60 80 60 00
        E 0 80 62 00
        E 0 80 66 00
        E 60 90 3c 60
        E 0 90 48 60
        E 0 90 4a 60
        E 0 90 54 60
        E 0 90 56 60
        E 0 90 60 60
        E 0 90 62 60
        E 0 90 66 60
        E 80 80 3c 00
        E 0 80 48 00
        E 0 80 4a 00
        E 0 80 54 00
        E 0 80 56 00
        E 0 80 60 00
        E 0 80 62 00
        E 0 80 66 00
        E 80 90 61 60
        E 0 90 63 60
        E 0 90 66 60
        E 80 80 61 00
        E 0 80 63 00
        E 0 80 66 00
        E 80 90 61 60
        E 0 90 64 60
        E 0 90 66 60
        E 80 80 61 00
        E 0 80 64 00
        E 0 80 66 00
        E 80 90 48 60
        E 0 90 54 60
        E 0 90 60 60
        E 0 90 66 60
        E 120 80 48 00
        E 240 80 54 00
        E 61 80 60 00
        E 0 80 66 00
        E 59 90 3f 60
        E 0 90 4a 60
        E 0 90 4c 60
        E 0 90 55 60
        E 0 90 58 60
        E 0 90 61 60
        E 0 90 64 60
        E 0 90 66 60
        E 120 80 3f 00
        E 0 80 4a 00
        E 0 80 4c 00
        E 240 80 55 00
        E 0 80 58 00
        E 61 80 61 00
        E 0 80 64 00
        E 0 80 66 00
        E 59 90 48 60
        E 0 90 54 60
        E 0 90 60 60
        E 0 90 66 60
        E 120 80 48 00
        E 240 80 54 00
        E 60 80 60 00
        E 0 80 66 00
        E 60 90 3c 60
        E 0 90 48 60
        E 0 90 54 60
        E 0 90 60 60
        E 0 90 66 60
        E 120 80 3c 00
        E 0 80 48 00
        E 0 80 54 00
        E 179 80 60 00
        E 0 80 66 00
        E 61 90 61 60
        E 0 90 64 60
        E 0 90 66 60
        E 59 80 61 00
        E 0 80 64 00
        E 0 80 66 00
        E 61 90 49 60
        E 0 90 4a 60
        E 0 90 54 60
        E 0 90 57 60
        E 0 90 60 60
        E 0 90 63 60
        E 0 90 66 60
        E 120 80 49 00
        E 0 80 4a 00
        E 240 80 54 00
        E 0 80 57 00
        E 59 80 60 00
        E 0 80 63 00
        E 0 80 66 00
        E 61 90 3d 60
        E 0 90 49 60
        E 0 90 4a 60
        E 0 90 54 60
        E 0 90 57 60
        E 0 90 60 60
        E 0 90 63 60
        E 0 90 66 60
        E 120 80 3d 00
        E 0 80 49 00
        E 0 80 4a 00
        E 240 80 54 00
        E 0 80 57 00
        E 61 80 60 00
        E 0 80 63 00
        E 0 80 66 00
        E 59 90 48 60
        E 0 90 4a 60
        E 0 90 54 60
        E 0 90 56 60
        E 0 90 60 60
        E 0 90 62 60
        E 0 90 66 60
        E 120 80 48 00
        E 0 80 4a 00
        E 240 80 54 00
        E 0 80 56 00
        E 60 80 60 00
        E 0 80 62 00
        E 0 80 66 00
        E 60 90 3c 60
        E 0 90 48 60
        E 0 90 4a 60
        E 0 90 54 60
        E 0 90 56 60
        E 0 90 60 60
        E 0 90 62 60
        E 0 90 66 60
        E 80 80 3c 00
        E 0 80 48 00
        E 0 80 4a 00
        E 0 80 54 00
        E 0 80 56 00
        E 0 80 60 00
        E 0 80 62 00
        E 0 80 66 00
        E 80 90 61 60
        E 0 90 62 60
        E 0 90 66 60
        E 80 80 61 00
        E 0 80 62 00
        E 0 80 66 00
        E 80 90 60 60
        E 0 90 61 60
        E 0 90 66 60
        E 80 80 60 00
        E 0 80 61 00
        E 0 80 66 00
        E 80 90 48 60
        E 0 90 54 60
        E 0 90 60 60
        E 0 90 66 60
        E 120 80 48 00
        E 240 80 54 00
        E 60 80 60 00
        E 0 80 66 00
        E 60 90 3f 60
        E 0 90 4a 60
        E 0 90 4c 60
        E 0 90 55 60
        E 0 90 58 60
        E 0 90 61 60
        E 0 90 64 60
        E 0 90 66 60
        E 120 80 3f 00
        E 0 80 4a 00
        E 0 80 4c 00
        E 240 80 55 00
        E 0 80 58 00
        E 61 80 61 00
        E 0 80 64 00
        E 0 80 66 00
        E 59 90 48 60
        E 0 90 54 60
        E 0 90 60 60
        E 0 90 66 60
        E 120 80 48 00
        E 240 80 54 00
        E 60 80 60 00
        E 0 80 66 00
        E 60 90 3c 60
        E 0 90 48 60
        E 0 90 54 60
        E 0 90 60 60
        E 0 90 66 60
        E 120 80 3c 00
        E 0 80 48 00
        E 0 80 54 00
        E 180 80 60 00
        E 0 80 66 00
        E 60 90 61 60
        E 0 90 64 60
        E 0 90 66 60
        E 59 80 61 00
        E 0 80 64 00
        E 0 80 66 00
        E 61 90 49 60
        E 0 90 4a 60
        E 0 90 54 60
        E 0 90 57 60
        E 0 90 60 60
        E 0 90 63 60
        E 0 90 66 60
        E 120 80 49 00
        E 0 80 4a 00
        E 240 80 54 00
        E 0 80 57 00
        E 59 80 60 00
        E 0 80 63 00
        E 0 80 66 00
        E 61 90 3d 60
        E 0 90 49 60
        E 0 90 4a 60
        E 0 90 54 60
        E 0 90 57 60
        E 0 90 60 60
        E 0 90 63 60
        E 0 90 66 60
        E 120 80 3d 00
        E 0 80 49 00
        E 0 80 4a 00
        E 240 80 54 00
        E 0 80 57 00
        E 61 80 60 00
        E 0 80 63 00
        E 0 80 66 00
        E 59 90 48 60
        E 0 90 4a 60
        E 0 90 54 60
        E 0 90 56 60
        E 0 90 60 60
        E 0 90 62 60
        E 0 90 66 60
        E 120 80 48 00
        E 0 80 4a 00
        E 240 80 54 00
        E 0 80 56 00
        E 60 80 60 00
        E 0 80 62 00
        E 0 80 66 00
        E 60 90 3c 60
        E 0 90 48 60
        E 0 90 4a 60
        E 0 90 54 60
        E 0 90 56 60
        E 0 90 60 60
        E 0 90 62 60
        E 0 90 66 60
        E 80 80 3c 00
        E 0 80 48 00
        E 0 80 4a 00
        E 0 80 54 00
        E 0 80 56 00
        E 0 80 60 00
        E 0 80 62 00
        E 0 80 66 00
        E 80 90 61 60
        E 0 90 63 60
        E 0 90 66 60
        E 80 80 61 00
        E 0 80 63 00
        E 0 80 66 00
        E 80 90 61 60
        E 0 90 64 60
        E 0 90 66 60
        E 80 80 61 00
        E 0 80 64 00
        E 0 80 66 00
        E 80 90 48 60
        E 0 90 54 60
        E 0 90 60 60
        E 0 90 66 60
        E 120 80 48 00
        E 240 80 54 00
        E 60 80 60 00
        E 0 80 66 00
        E 60 90 3f 60
        E 0 90 4a 60
        E 0 90 4c 60
        E 0 90 55 60
        E 0 90 58 60
        E 0 90 61 60
        E 0 90 64 60
        E 0 90 66 60
        e 0 90 74 60
        E 120 80 3f 00
        E 0 80 4a 00
        E 0 80 4c 00
        E 240 80 55 00
        E 0 80 58 00
        E 61 80 61 00
        E 0 80 64 00
        E 0 80 66 00
        E 59 90 48 60
        E 0 90 54 60
        E 0 90 60 60
        E 0 90 66 60
        E 120 80 48 00
        E 240 80 54 00
        E 60 80 60 00
        E 0 80 66 00
        E 60 90 3c 60
        E 0 90 48 60
        E 0 90 54 60
        E 0 90 60 60
        E 0 90 66 60
        E 120 80 3c 00
        E 0 80 48 00
        E 0 80 54 00
        E 180 80 60 00
        E 0 80 66 00
        E 60 90 61 60
        E 0 90 64 60
        E 0 90 66 60
        E 60 80 61 00
        E 0 80 64 00
        E 0 80 66 00
        E 60 90 49 60
        E 0 90 4a 60
        E 0 90 54 60
        E 0 90 57 60
        E 0 90 60 60
        E 0 90 63 60
        E 0 90 66 60
        E 120 80 49 00
        E 0 80 4a 00
        E 240 80 54 00
        E 0 80 57 00
        E 59 80 60 00
        E 0 80 63 00
        E 0 80 66 00
        e 61 80 74 00
        E 0 90 3d 60
        E 0 90 49 60
        E 0 90 4a 60
        E 0 90 54 60
        E 0 90 57 60
        E 0 90 60 60
        E 0 90 63 60
        E 0 90 66 60
        E 120 80 3d 00
        E 0 80 49 00
        E 0 80 4a 00
        E 240 80 54 00
        E 0 80 57 00
        E 61 80 60 00
        E 0 80 63 00
        E 0 80 66 00
        E 59 90 48 60
        E 0 90 4a 60
        E 0 90 54 60
        E 0 90 56 60
        E 0 90 60 60
        E 0 90 62 60
        E 0 90 66 60
        E 120 80 48 00
        E 0 80 4a 00
        E 240 80 54 00
        E 0 80 56 00
        E 61 80 60 00
        E 0 80 62 00
        E 0 80 66 00
        E 59 90 3c 60
        E 0 90 48 60
        E 0 90 4a 60
        E 0 90 54 60
        E 0 90 56 60
        E 0 90 60 60
        E 0 90 62 60
        E 0 90 66 60
        E 80 80 3c 00
        E 0 80 48 00
        E 0 80 4a 00
        E 0 80 54 00
        E 0 80 56 00
        E 0 80 60 00
        E 0 80 62 00
        E 0 80 66 00
        E 80 90 61 60
        E 0 90 62 60
        E 0 90 66 60
        E 80 80 61 00
        E 0 80 62 00
        E 0 80 66 00
        E 80 90 60 60
        E 0 90 61 60
        E 0 90 66 60
        E 80 80 60 00
        E 0 80 61 00
        E 0 80 66 00
        E 80 90 48 60
        E 0 90 54 60
        E 0 90 60 60
        E 0 90 66 60
        E 120 80 48 00
        E 240 80 54 00
        E 60 80 60 00
        E 0 80 66 00
        E 60 90 3f 60
        E 0 90 4a 60
        E 0 90 4c 60
        E 0 90 55 60
        E 0 90 58 60
        E 0 90 61 60
        E 0 90 64 60
        E 0 90 66 60
        E 120 80 3f 00
        E 0 80 4a 00
        E 0 80 4c 00
        E 240 80 55 00
        E 0 80 58 00
        E 61 80 61 00
        E 0 80 64 00
        E 0 80 66 00
        E 59 90 48 60
        E 0 90 54 60
        E 0 90 60 60
        E 0 90 66 60
        E 120 80 48 00
        E 240 80 54 00
        E 61 80 60 00
        E 0 80 66 00
        E 59 90 3c 60
        E 0 90 48 60
        E 0 90 54 60
        E 0 90 60 60
        E 0 90 66 60
        E 120 80 3c 00
        E 0 80 48 00
        E 0 80 54 00
        E 180 80 60 00
        E 0 80 66 00
        E 60 90 61 60
        E 0 90 64 60
        E 0 90 66 60
        E 60 80 61 00
        E 0 80 64 00
        E 0 80 66 00
        E 60 90 49 60
        E 0 90 4a 60
        E 0 90 54 60
        E 0 90 57 60
        E 0 90 60 60
        E 0 90 63 60
        E 0 90 66 60
        E 120 80 49 00
        E 0 80 4a 00
        E 240 80 54 00
        E 0 80 57 00
        E 59 80 60 00
        E 0 80 63 00
        E 0 80 66 00
        E 61 90 3d 60
        E 0 90 49 60
        E 0 90 4a 60
        E 0 90 54 60
        E 0 90 57 60
        E 0 90 60 60
        E 0 90 63 60
        E 0 90 66 60
        E 120 80 3d 00
        E 0 80 49 00
        E 0 80 4a 00
        E 240 80 54 00
        E 0 80 57 00
        E 61 80 60 00
        E 0 80 63 00
        E 0 80 66 00
        E 59 90 48 60
        E 0 90 4a 60
        E 0 90 54 60
        E 0 90 56 60
        E 0 90 60 60
        E 0 90 62 60
        E 0 90 66 60
        E 120 80 48 00
        E 0 80 4a 00
        E 240 80 54 00
        E 0 80 56 00
        E 61 80 60 00
        E 0 80 62 00
        E 0 80 66 00
        E 59 90 3c 60
        E 0 90 48 60
        E 0 90 4a 60
        E 0 90 54 60
        E 0 90 56 60
        E 0 90 60 60
        E 0 90 62 60
        E 0 90 66 60
        E 80 80 3c 00
        E 0 80 48 00
        E 0 80 4a 00
        E 0 80 54 00
        E 0 80 56 00
        E 0 80 60 00
        E 0 80 62 00
        E 0 80 66 00
        E 80 90 61 60
        E 0 90 63 60
        E 0 90 66 60
        E 80 80 61 00
        E 0 80 63 00
        E 0 80 66 00
        E 80 90 61 60
        E 0 90 64 60
        E 0 90 66 60
        E 80 80 61 00
        E 0 80 64 00
        E 0 80 66 00
        E 80 90 48 60
        E 0 90 54 60
        E 0 90 60 60
        E 0 90 66 60
        E 80 80 48 00
        E 0 80 54 00
        E 0 80 60 00
        E 0 80 66 00
        E 100 90 60 60
        E 0 90 66 60
        E 60 80 60 00
        E 0 80 66 00
        E 0 90 54 60
        E 0 90 60 60
        E 0 90 66 60
        E 60 80 54 00
        E 0 80 60 00
        E 0 80 66 00
        E 0 90 60 60
        E 0 90 66 60
        E 60 80 60 00
        E 0 80 66 00
        E 120 90 3e 60
        E 0 90 49 60
        E 0 90 4b 60
        E 0 90 55 60
        E 0 90 57 60
        E 0 90 61 60
        E 0 90 62 60
        E 0 90 63 60
        E 0 90 66 60
        E 80 80 3e 00
        E 0 80 49 00
        E 0 80 4b 00
        E 0 80 55 00
        E 0 80 57 00
        E 0 80 61 00
        E 0 80 62 00
        E 0 80 63 00
        E 0 80 66 00
        E 80 90 60 60
        E 0 90 61 60
        E 0 90 62 60
        E 0 90 66 60
        E 80 80 60 00
        E 0 80 61 00
        E 0 80 62 00
        E 0 80 66 00
        E 80 90 61 60
        E 0 90 62 60
        E 0 90 63 60
        E 0 90 66 60
        E 80 80 61 00
        E 0 80 62 00
        E 0 80 63 00
        E 0 80 66 00
        E 80 90 48 60
        E 0 90 54 60
        E 0 90 60 60
        E 0 90 65 60
        E 80 80 48 00
        E 0 80 54 00
        E 0 80 60 00
        E 0 80 65 00
        E 80 90 62 60
        E 0 90 63 60
        E 0 90 66 60
        E 80 80 62 00
        E 0 80 63 00
        E 0 80 66 00
        E 80 90 60 60
        E 0 90 65 60
        E 80 80 60 00
        E 0 80 65 00
        E 80 90 40 60
        E 0 90 4b 60
        E 0 90 4c 60
        E 0 90 57 60
        E 0 90 58 60
        E 0 90 63 60
        E 0 90 64 60
        E 0 90 66 60
        E 80 80 40 00
        E 0 80 4b 00
        E 0 80 4c 00
        E 0 80 57 00
        E 0 80 58 00
        E 0 80 63 00
        E 0 80 64 00
        E 0 80 66 00
        E 80 90 60 60
        E 0 90 65 60
        E 80 80 60 00
        E 0 80 65 00
        E 80 90 62 60
        E 0 90 64 60
        E 0 90 66 60
        E 80 80 62 00
        E 0 80 64 00
        E 0 80 66 00
        E 80 90 48 60
        E 0 90 54 60
        E 0 90 60 60
        E 0 90 65 60
        E 80 80 48 00
        E 0 80 54 00
        E 0 80 60 00
        E 0 80 65 00
        E 100 90 60 60
        E 0 90 66 60
        E 60 80 60 00
        E 0 80 66 00
        E 0 90 54 60
        E 0 90 60 60
        E 0 90 66 60
        E 60 80 54 00
        E 0 80 60 00
        E 0 80 66 00
        E 0 90 60 60
        E 0 90 66 60
        E 60 80 60 00
        E 0 80 66 00
        E 120 90 3e 60
        E 0 90 49 60
        E 0 90 4b 60
        E 0 90 55 60
        E 0 90 57 60
        E 0 90 61 60
        E 0 90 62 60
        E 0 90 63 60
        E 0 90 66 60
        E 80 80 3e 00
        E 0 80 49 00
        E 0 80 4b 00
        E 0 80 55 00
        E 0 80 57 00
        E 0 80 61 00
        E 0 80 62 00
        E 0 80 63 00
        E 0 80 66 00
        E 80 90 60 60
        E 0 90 61 60
        E 0 90 62 60
        E 0 90 66 60
        E 80 80 60 00
        E 0 80 61 00
        E 0 80 62 00
        E 0 80 66 00
        E 80 90 61 60
        E 0 90 62 60
        E 0 90 63 60
        E 0 90 66 60
        E 80 80 61 00
        E 0 80 62 00
        E 0 80 63 00
        E 0 80 66 00
        E 80 90 48 60
        E 0 90 54 60
        E 0 90 60 60
        E 0 90 65 60
        E 80 80 48 00
        E 0 80 54 00
        E 0 80 60 00
        E 0 80 65 00
        E 80 90 63 60
        E 0 90 64 60
        E 0 90 66 60
        E 80 80 63 00
        E 0 80 64 00
        E 0 80 66 00
        E 80 90 60 60
        E 0 90 65 60
        E 80 80 60 00
        E 0 80 65 00
        E 80 90 3f 60
        E 0 90 4a 60
        E 0 90 4b 60
        E 0 90 56 60
        E 0 90 57 60
        E 0 90 62 60
        E 0 90 63 60
        E 0 90 66 60
        E 80 80 3f 00
        E 0 80 4a 00
        E 0 80 4b 00
        E 0 80 56 00
        E 0 80 57 00
        E 0 80 62 00
        E 0 80 63 00
        E 0 80 66 00
        E 80 90 60 60
        E 0 90 65 60
        E 80 80 60 00
        E 0 80 65 00
        E 80 90 62 60
        E 0 90 64 60
        E 0 90 66 60
        E 80 80 62 00
        E 0 80 64 00
        E 0 80 66 00
        E 80 90 48 60
        E 0 90 54 60
        E 0 90 60 60
        E 0 90 65 60
        E 80 80 48 00
        E 0 80 54 00
        E 0 80 60 00
        E 0 80 65 00
        E 100 90 60 60
        E 0 90 66 60
        E 60 80 60 00
        E 0 80 66 00
        E 0 90 54 60
        E 0 90 60 60
        E 0 90 66 60
        E 60 80 54 00
        E 0 80 60 00
        E 0 80 66 00
        E 0 90 60 60
        E 0 90 66 60
        E 60 80 60 00
        E 0 80 66 00
        E 120 90 3e 60
        E 0 90 49 60
        E 0 90 4b 60
        E 0 90 55 60
        E 0 90 57 60
        E 0 90 61 60
        E 0 90 63 60
        E 0 90 66 60
        E 80 80 3e 00
        E 0 80 49 00
        E 0 80 4b 00
        E 0 80 55 00
        E 0 80 57 00
        E 0 80 61 00
        E 0 80 63 00
        E 0 80 66 00
        E 80 90 61 60
        E 0 90 62 60
        E 0 90 66 60
        E 80 80 61 00
        E 0 80 62 00
        E 0 80 66 00
        E 80 90 61 60
        E 0 90 63 60
        E 0 90 66 60
        E 80 80 61 00
        E 0 80 63 00
        E 0 80 66 00
        E 80 90 48 60
        E 0 90 54 60
        E 0 90 60 60
        E 0 90 66 60
        E 80 80 48 00
        E 0 80 54 00
        E 0 80 60 00
        E 0 80 66 00
        E 100 90 60 60
        E 0 90 66 60
        E 60 80 60 00
        E 0 80 66 00
        E 0 90 54 60
        E 0 90 60 60
        E 0 90 66 60
        E 60 80 54 00
        E 0 80 60 00
        E 0 80 66 00
        E 0 90 60 60
        E 0 90 66 60
        E 60 80 60 00
        E 0 80 66 00
        E 120 90 3c 60
        E 0 90 48 60
        E 0 90 4a 60
        E 0 90 54 60
        E 0 90 56 60
        E 0 90 60 60
        E 0 90 62 60
        E 0 90 66 60
        E 80 80 3c 00
        E 0 80 48 00
        E 0 80 4a 00
        E 0 80 54 00
        E 0 80 56 00
        E 0 80 60 00
        E 0 80 62 00
        E 0 80 66 00
        E 80 90 60 60
        E 0 90 61 60
        E 0 90 66 60
        E 80 80 60 00
        E 0 80 61 00
        E 0 80 66 00
        E 80 90 60 60
        E 0 90 62 60
        E 0 90 66 60
        E 80 80 60 00
        E 0 80 62 00
        E 0 80 66 00
        E 80 90 4a 60
        E 0 90 4c 60
        E 0 90 55 60
        E 0 90 58 60
        E 0 90 61 60
        E 0 90 62 60
        E 0 90 64 60
        E 0 90 66 60
        E 80 80 4a 00
        E 0 80 4c 00
        E 0 80 55 00
        E 0 80 58 00
        E 0 80 61 00
        E 0 80 62 00
        E 0 80 64 00
        E 0 80 66 00
        E 80 90 60 60
        E 0 90 61 60
        E 0 90 63 60
        E 0 90 66 60
        E 80 80 60 00
        E 0 80 61 00
        E 0 80 63 00
        E 0 80 66 00
        E 80 90 61 60
        E 0 90 62 60
        E 0 90 64 60
        E 0 90 66 60
        E 80 80 61 00
        E 0 80 62 00
        E 0 80 64 00
        E 0 80 66 00
        E 80 90 3e 60
        E 0 90 49 60
        E 0 90 4b 60
        E 0 90 55 60
        E 0 90 57 60
        E 0 90 61 60
        E 0 90 63 60
        E 0 90 66 60
        E 80 80 3e 00
        E 0 80 49 00
        E 0 80 4b 00
        E 0 80 55 00
        E 0 80 57 00
        E 0 80 61 00
        E 0 80 63 00
        E 0 80 66 00
        E 0 90 61 60
        E 0 90 63 60
        E 0 90 66 60
        E 80 80 61 00
        E 0 80 63 00
        E 0 80 66 00
        E 0 90 61 60
        E 0 90 63 60
        E 0 90 66 60
        E 80 80 61 00
        E 0 80 63 00
        E 0 80 66 00
        E 0 90 49 60
        E 0 90 4b 60
        E 0 90 55 60
        E 0 90 57 60
        E 0 90 61 60
        E 0 90 63 60
        E 0 90 66 60
        E 80 80 49 00
        E 0 80 4b 00
        E 0 80 55 00
        E 0 80 57 00
        E 0 80 61 00
        E 0 80 63 00
        E 0 80 66 00
        E 0 90 61 60
        E 0 90 63 60
        E 0 90 66 60
        E 80 80 61 00
        E 0 80 63 00
        E 0 80 66 00
        E 0 90 61 60
        E 0 90 63 60
        E 0 90 66 60
        E 80 80 61 00
        E 0 80 63 00
        E 0 80 66 00
        E 0 90 49 60
        E 0 90 4b 60
        E 0 90 55 60
        E 0 90 57 60
        E 0 90 61 60
        E 0 90 62 60
        E 0 90 63 60
        E 0 90 66 60
        E 80 80 49 00
        E 0 80 4b 00
        E 0 80 55 00
        E 0 80 57 00
        E 0 80 61 00
        E 0 80 62 00
        E 0 80 63 00
        E 0 80 66 00
        E 160 90 54 60
        E 0 90 56 60
        E 0 90 60 60
        E 0 90 61 60
        E 0 90 63 60
        E 0 90 66 60
        E 80 80 54 00
        E 0 80 56 00
        E 0 80 60 00
        E 0 80 61 00
        E 0 80 63 00
        E 0 80 66 00
        E 160 90 40 60
        E 0 90 4b 60
        E 0 90 4c 60
        E 0 90 57 60
        E 0 90 58 60
        E 0 90 62 60
        E 0 90 63 60
        E 0 90 64 60
        E 0 90 66 60
        E 80 80 40 00
        E 0 80 4b 00
        E 0 80 4c 00
        E 0 80 57 00
        E 0 80 58 00
        E 0 80 62 00
        E 0 80 63 00
        E 0 80 64 00
        E 0 80 66 00
        E 160 90 56 60
        E 0 90 58 60
        E 0 90 61 60
        E 0 90 63 60
        E 0 90 64 60
        E 0 90 66 60
        E 80 80 56 00
        E 0 80 58 00
        E 0 80 61 00
        E 0 80 63 00
        E 0 80 64 00
        E 0 80 66 00
        <X 480 0
          /wFbaWRsZV9yZWFsdGltZV0=
        >
        E 2080 b0 7b 00
        GUID {14D9E950-FB92-4048-8603-8FD02AE3B865}
        IGNTEMPO 0 120 4 4
        SRCCOLOR 1353
        VELLANE 132 38 60
        COLORMAP "C:\Program Files (x86)\REAPER\Data\color_maps\rockband_guitarbass.png"
        TEXTSTRINGFILE "Text Events List.txt"
        CFGEDITVIEW -59238.16364 4.456586 6 12 0 0 0 0 0
        KEYSNAP 0 0 102034050607 0 Major
        TRACKSEL 0 0 0 ""
        EVTFILTER 0 -1 -1 -1 -1 0 1 0 0 -1 -1 -1 -1 0 -1 0 -1 -1
        CFGEDIT 1 1 0 0 0 1 1 1 1 1 1 0.25 -8 -8 1370 736 1 2 1 2 0 0 0 0 0 0.5 1 0 1 64
      >
    >
  >
  <TRACK {70C3FE4D-3BC3-4146-95C4-8AC455A2D0F5}
    NAME "PART BASS"
    PEAKCOL 16777471
    BEAT -1
    AUTOMODE 0
    VOLPAN 1 0 -1 -1 1
    MUTESOLO 1 0 0
    IPHASE 0
    ISBUS 0 0
    BUSCOMP 1 0
    SHOWINMIX 1 0.6667 0.5 1 0.5 0 0 0
    FREEMODE 0
    SEL 0
    REC 0 4096 1 0 0 0 0
    TRACKHEIGHT 0 0
    INQ 0 0 0 0.5 100 0 0 100
    NCHAN 2
    FX 1
    TRACKID {70C3FE4D-3BC3-4146-95C4-8AC455A2D0F5}
    PERF 0
    MIDIOUT -1
    <MIDINOTENAMES
      0 40 "Left Hand Lowest"
      0 41 -
      0 42 -
      0 43 -
      0 44 -
      0 45 -
      0 46 -
      0 47 -
      0 48 -
      0 49 -
      0 50 -
      0 51 -
      0 52 -
      0 53 -
      0 54 -
      0 55 -
      0 56 -
      0 57 -
      0 58 -
      0 59 "Left Hand Highest"
      0 60 "EASY Green"
      0 61 "EASY Red"
      0 62 "EASY Yellow"
      0 63 "EASY Blue"
      0 64 "EASY Orange"
      0 68 ----
      0 72 "MEDIUM Green"
      0 73 "MEDIUM Red"
      0 74 "MEDIUM Yellow"
      0 75 "MEDIUM Blue"
      0 76 "MEDIUM Orange"
      0 80 ----
      0 84 "HARD Green"
      0 85 "HARD Red"
      0 86 "HARD Yellow"
      0 87 "HARD Blue"
      0 88 "HARD Orange"
      0 89 "Force HOPO On"
      0 90 "Force HOPO Off"
      0 91 ----
      0 96 "EXPERT Green"
      0 97 "EXPERT Red"
      0 98 "EXPERT Yellow"
      0 99 "EXPERT Blue"
      0 100 "EXPERT Orange"
      0 101 "Force HOPO On"
      0 102 "Force HOPO Off"
      0 103 "Solo Marker"
      0 111 ----
      0 116 OVERDRIVE
      0 119 ----
      0 120 "BRE (use all 5)"
      0 121 BRE
      0 122 BRE
      0 123 BRE
      0 124 BRE
      0 125 ----
      0 127 "Trill Marker"
    >
    MAINSEND 1 0
    <FXCHAIN
      WNDRECT 0 38 878 585
      SHOW 0
      LASTSEL 1
      DOCKED 0
      BYPASS 1 0 0
      <VST "VSTi: ReaSynth (Cockos)" reasynth.vst.dylib 0 "" 1919251321
        eXNlcu9e7f4AAAAAAgAAAAEAAAAAAAAAAgAAAAAAAAA8AAAAAAAAAAAAAADvvq3eDfCt3gAAAAAAAAAAAAAAAAAAAAA5tEg+fcvbPrW0sTkAAAAAtvP9PlWkKzoAAAAA
        AAAAAAAAgD8AAAAAAAA=
      >
      FLOATPOS 0 0 0 0
      FXID {D4EC3C58-478E-4D1F-A0FC-2252BD344989}
      WAK 0
      BYPASS 0 0 0
      <VST "VSTi: RBN Preview (RBN)" rbprev_vst.dll 0 "" ""
        dnBicu5e7f4AAAAAAgAAAAEAAAAAAAAAAgAAAAAAAAAEAAAAAQAAAAAAAAADAKoAAAAAAAAA
      >
      FLOATPOS 32 32 659 497
      FXID {72D22271-4F4F-4081-90C4-66415E7AEC47}
      WAK 0
    >
    <ITEM
      POSITION 0
      SNAPOFFS 0
      LENGTH 215.16728383179705
      LOOP 0
      ALLTAKES 0
      FADEIN 1 0 0 1 0 0
      FADEOUT 1 0 0 1 0 0
      MUTE 0
      SEL 0
      IGUID {A1B24BBF-93B7-476C-BC6D-33F5621C633F}
      IID 5
      NAME "PART BASS"
      VOLPAN 1 0 1 -1
      SOFFS 0 0
      PLAYRATE 1 1 0 -65536 0 0.0025
      CHANMODE 0
      GUID {344A7487-35C3-41F9-8B1E-12A4F3D7F336}
      <SOURCE MIDI
        HASDATA 1 480 QN
        POOLEDEVTS {46FE0A64-CC79-4C21-B66E-1D69124ECD4F}
        <X 0 0
          /wNQQVJUIEJBU1M=
        >
        e 3840 90 40 7f
        e 0 90 4c 7f
        e 0 90 58 7f
        e 60 80 40 00
        e 0 80 4c 00
        e 0 80 58 00
        e 30 90 3f 7f
        e 0 90 4b 7f
        e 0 90 57 7f
        e 60 80 3f 00
        e 0 80 4b 00
        e 0 80 57 00
        e 30 90 3e 7f
        e 0 90 4a 7f
        e 0 90 56 7f
        e 60 80 3e 00
        e 0 80 4a 00
        e 0 80 56 00
        e 30 90 3d 7f
        e 0 90 49 7f
        e 0 90 55 7f
        e 60 80 3d 00
        e 0 80 49 00
        e 0 80 55 00
        e 30 90 3c 7f
        e 0 90 48 7f
        e 0 90 54 7f
        e 60 80 3c 00
        e 0 80 48 00
        e 0 80 54 00
        E 165660 b0 7b 00
        GUID {54A57D35-811F-42A6-AB75-F5706122F903}
        IGNTEMPO 0 120 4 4
        SRCCOLOR 1354
        VELLANE 132 128 60
        COLORMAP "C:\Program Files (x86)\REAPER\Data\color_maps\rockband_guitarbass.png"
        TEXTSTRINGFILE "Text Events List.txt"
        CFGEDITVIEW -1141.813129 82.395269 12 12 0 0 0 0 0
        KEYSNAP 0 0 102034050607 0 Major
        TRACKSEL 0 0 0 ""
        EVTFILTER 0 -1 -1 -1 -1 0 1 0 0 -1 -1 -1 -1 0 -1 0 -1 -1
        CFGEDIT 1 1 0 0 0 1 1 1 1 1 1 0.125 -8 -8 1370 736 1 2 1 2 0 0 0 0 0 0.5 1 0 1 64
      >
    >
  >
  <TRACK {4BCC1CF3-63A3-43C4-A155-D3593AD88A10}
    NAME EVENTS
    PEAKCOL 29393024
    BEAT -1
    AUTOMODE 0
    VOLPAN 1 0 -1 -1 1
    MUTESOLO 0 0 0
    IPHASE 0
    ISBUS 1 1
    BUSCOMP 0 0
    SHOWINMIX 1 0.6667 0.5 1 0.5 0 0 0
    FREEMODE 0
    SEL 0
    REC 0 0 0 0 0 0 0
    TRACKHEIGHT 0 0
    INQ 0 0 0 0.5 100 0 0 100
    NCHAN 2
    FX 1
    TRACKID {4BCC1CF3-63A3-43C4-A155-D3593AD88A10}
    PERF 0
    MIDIOUT -1
    MAINSEND 1 0
    <FXCHAIN
      SHOW 0
      LASTSEL 0
      DOCKED 0
    >
    <ITEM
      POSITION 0
      SNAPOFFS 0
      LENGTH 215.74980810364173
      LOOP 0
      ALLTAKES 0
      FADEIN 1 0 0 1 0 0
      FADEOUT 1 0 0 1 0 0
      MUTE 0
      SEL 0
      IGUID {86A06D27-867C-4398-9CE6-8F0526B3B594}
      IID 6
      NAME EVENTS
      VOLPAN 1 0 1 -1
      SOFFS 0 0
      PLAYRATE 1 1 0 -65536 0 0.0025
      CHANMODE 0
      GUID {584C8192-4FF3-4E29-8138-2E6BD568B61A}
      <SOURCE MIDI
        HASDATA 1 480 QN
        POOLEDEVTS {E8F37715-0303-4CE1-81FA-102F2A98FE11}
        <X 0 0
          /wNFVkVOVFM=
        >
        <X 0 0
          /wFbY3Jvd2Rfbm9ybWFsXQ==
        >
        <X 0 0
          /wFbcHJjX2ludHJvXQ==
        >
        <X 3840 0
          /wFbbXVzaWNfc3RhcnRd
        >
        <X 14880 0
          /wFbcHJjX3ZlcnNlXzFhXQ==
        >
        <X 15360 0
          /wFbcHJjX3ZlcnNlXzFiXQ==
        >
        <X 23040 0
          /wFbcHJjX2JyaWRnZV9hXQ==
        >
        <X 7680 0
          /wFbcHJjX3ZlcnNlXzJhXQ==
        >
        <X 23040 0
          /wFbcHJjX3ZlcnNlXzJiXQ==
        >
        <X 15360 0
          /wFbcHJjX2Nob3J1c18xYV0=
        >
        <X 10080 0
          /wFbcHJjX2d0cl9zb2xvXQ==
        >
        <X 8160 0
          /wFbcHJjX3ZlcnNlXzNhXQ==
        >
        <X 15360 0
          /wFbcHJjX3ZlcnNlXzNiXQ==
        >
        <X 9600 0
          /wFbcHJjX3ZlcnNlXzNjXQ==
        >
        <X 15360 0
          /wFbcHJjX2Nob3J1c18yYV0=
        >
        <X 5760 0
          /wFbbXVzaWNfZW5kXQ==
        >
        <X 2400 0
          /wFbZW5kXQ==
        >
        E 480 b0 7b 00
        GUID {40AD7956-A22A-434A-8513-4D3792B9DF69}
        IGNTEMPO 0 120 4 4
        SRCCOLOR 1355
        VELLANE 132 100 100
        COLORMAP "C:\Users\AJFOne23\AppData\Roaming\REAPER\Data\color_maps\rockband_vox-other.png"
        TEXTSTRINGFILE "Text Events List.txt"
        CFGEDITVIEW 134573.558126 19.162506 0 48 0 0 0 0 0
        KEYSNAP 0 0 102034050607 0 Major
        TRACKSEL 0 0 0 ""
        EVTFILTER 0 -1 -1 -1 -1 0 1 0 0 -1 -1 -1 -1 0 -1 0 -1 -1
        CFGEDIT 1 1 0 0 0 1 1 1 1 1 1 1 44 63 1223 847 1 2 1 2 0 0 0 0 0 0.5 1 0 1 64
      >
    >
  >
  <TRACK {1529008F-97D2-43EB-8634-7C5A7418AD90}
    NAME VENUE
    PEAKCOL 16842496
    BEAT -1
    AUTOMODE 0
    VOLPAN 1 0 -1 -1 1
    MUTESOLO 0 0 0
    IPHASE 0
    ISBUS 0 0
    BUSCOMP 0 0
    SHOWINMIX 1 0.6667 0.5 1 0.5 0 0 0
    FREEMODE 0
    SEL 0
    REC 0 0 0 0 0 0 0
    TRACKHEIGHT 0 0
    INQ 0 0 0 0.5 100 0 0 100
    NCHAN 2
    FX 1
    TRACKID {1529008F-97D2-43EB-8634-7C5A7418AD90}
    PERF 0
    MIDIOUT -1
    <MIDINOTENAMES
      0 37 "Spotlight on Bass"
      0 38 "Spotlight on Drums"
      0 39 "Spotlight on Guitar"
      0 40 "Spotlight on Vocals"
      0 41 "Spotlight on Keys"
      0 85 "Bassist Sing Along"
      0 86 "Drummer Sing Along"
      0 87 "Guitarist Sing Along"
    >
    MAINSEND 1 0
    <FXCHAIN
      SHOW 0
      LASTSEL 0
      DOCKED 0
    >
    <ITEM
      POSITION 0
      SNAPOFFS 0
      LENGTH 215.74980810364173
      LOOP 0
      ALLTAKES 0
      FADEIN 1 0 0 1 0 0
      FADEOUT 1 0 0 1 0 0
      MUTE 0
      SEL 0
      IGUID {71027329-E0AB-447D-A192-4839733334E7}
      IID 7
      NAME VENUE
      VOLPAN 1 0 1 -1
      SOFFS 0 0
      PLAYRATE 1 1 0 -65536 0 0.0025
      CHANMODE 0
      GUID {44F0FFD1-5109-4A47-8BED-262AA04D3B23}
      <SOURCE MIDI
        HASDATA 1 480 QN
        POOLEDEVTS {9B1C8560-AC20-490A-A853-3E1171C269A8}
        <X 0 0
          /wNWRU5VRQ==
        >
        <X 0 0
          /wFbbGlnaHRpbmcgKCld
        >
        E 170400 b0 7b 00
        GUID {30097062-47C5-4B33-B665-170EF09D70D9}
        IGNTEMPO 0 120 4 4
        SRCCOLOR 1356
        VELLANE 132 230 230
        COLORMAP "M:\RGS Documents\ColorMaps\rockband_vox-other.png"
        TEXTSTRINGFILE "Text Events List.txt"
        CFGEDITVIEW -4718.717521 82.395269 79 12 0 0 0 0 0
        KEYSNAP 0 0 102034050607 0 Major
        TRACKSEL 0 0 0 ""
        EVTFILTER 0 -1 -1 -1 -1 0 1 0 0 -1 -1 -1 -1 0 -1 0 -1 -1
        CFGEDIT 1 1 0 0 0 1 1 1 1 1 1 0.25 133 19 1300 803 1 0 1 2 0 0 0 0 0 0.5 1 0 1 64
      >
    >
  >
  <TRACK {7BC63EFC-0ABC-4D0D-8204-E9893AE9FFFA}
    NAME BEAT
    PEAKCOL 23514346
    BEAT -1
    AUTOMODE 0
    VOLPAN 1 0 -1 -1 1
    MUTESOLO 0 0 0
    IPHASE 0
    ISBUS 2 -1
    BUSCOMP 1 0
    SHOWINMIX 1 0.6667 0.5 1 0.5 0 0 0
    FREEMODE 0
    SEL 0
    REC 0 0 0 0 0 0 0
    TRACKHEIGHT 0 0
    INQ 0 0 0 0.5 100 0 0 100
    NCHAN 2
    FX 1
    TRACKID {7BC63EFC-0ABC-4D0D-8204-E9893AE9FFFA}
    PERF 0
    MIDIOUT -1
    <MIDINOTENAMES
      0 12 Downbeat
      0 13 "Up Beats"
    >
    MAINSEND 1 0
    <FXCHAIN
      SHOW 0
      LASTSEL 0
      DOCKED 0
    >
    <ITEM
      POSITION 0
      SNAPOFFS 0
      LENGTH 215.74980810364173
      LOOP 0
      ALLTAKES 0
      FADEIN 1 0 0 1 0 0
      FADEOUT 1 0 0 1 0 0
      MUTE 0
      SEL 0
      IGUID {9960CDFD-BF2E-4E67-97CD-4F13D0A3F2ED}
      IID 8
      NAME BEAT
      VOLPAN 1 0 1 -1
      SOFFS 0 0
      PLAYRATE 1 1 0 -65536 0 0.0025
      CHANMODE 0
      GUID {CEBFDCF1-B2BD-47E1-A085-C26E1C9E9ED2}
      <SOURCE MIDI
        HASDATA 1 480 QN
        POOLEDEVTS {4EA3D2ED-70AA-4E2F-B127-BEB471710181}
        <X 0 0
          /wNCRUFU
        >
        e 0 96 0c 64
        e 120 86 0c 00
        e 360 96 0d 64
        e 120 86 0d 00
        e 360 96 0d 64
        e 120 86 0d 00
        e 360 96 0d 64
        e 120 86 0d 00
        e 360 96 0c 64
        e 120 86 0c 00
        e 360 96 0d 64
        e 120 86 0d 00
        e 360 96 0d 64
        e 120 86 0d 00
        e 360 96 0d 64
        e 120 86 0d 00
        e 360 96 0c 64
        e 120 86 0c 00
        e 360 96 0d 64
        e 120 86 0d 00
        e 360 96 0d 64
        e 120 86 0d 00
        e 360 96 0d 64
        e 120 86 0d 00
        e 360 96 0c 64
        e 120 86 0c 00
        e 360 96 0d 64
        e 120 86 0d 00
        e 360 96 0d 64
        e 120 86 0d 00
        e 360 96 0d 64
        e 120 86 0d 00
        e 360 96 0c 64
        e 120 86 0c 00
        e 360 96 0d 64
        e 120 86 0d 00
        e 360 96 0d 64
        e 120 86 0d 00
        e 360 96 0d 64
        e 120 86 0d 00
        e 360 96 0c 64
        e 120 86 0c 00
        e 360 96 0d 64
        e 120 86 0d 00
        e 360 96 0d 64
        e 120 86 0d 00
        e 360 96 0d 64
        e 120 86 0d 00
        e 360 96 0c 64
        e 120 86 0c 00
        e 360 96 0d 64
        e 120 86 0d 00
        e 360 96 0d 64
        e 120 86 0d 00
        e 360 96 0d 64
        e 120 86 0d 00
        e 360 96 0c 64
        e 120 86 0c 00
        e 360 96 0d 64
        e 120 86 0d 00
        e 360 96 0d 64
        e 120 86 0d 00
        e 360 96 0d 64
        e 120 86 0d 00
        e 360 96 0c 64
        e 120 86 0c 00
        e 360 96 0d 64
        e 120 86 0d 00
        e 360 96 0d 64
        e 120 86 0d 00
        e 360 96 0d 64
        e 120 86 0d 00
        e 360 96 0c 64
        e 120 86 0c 00
        e 360 96 0d 64
        e 120 86 0d 00
        e 360 96 0d 64
        e 120 86 0d 00
        e 360 96 0d 64
        e 120 86 0d 00
        e 360 96 0c 64
        e 120 86 0c 00
        e 360 96 0d 64
        e 120 86 0d 00
        e 360 96 0d 64
        e 120 86 0d 00
        e 360 96 0d 64
        e 120 86 0d 00
        e 360 96 0c 64
        e 120 86 0c 00
        e 360 96 0d 64
        e 120 86 0d 00
        e 360 96 0d 64
        e 120 86 0d 00
        e 360 96 0d 64
        e 120 86 0d 00
        e 360 96 0c 64
        e 120 86 0c 00
        e 360 96 0d 64
        e 120 86 0d 00
        e 360 96 0d 64
        e 120 86 0d 00
        e 360 96 0d 64
        e 120 86 0d 00
        e 360 96 0c 64
        e 120 86 0c 00
        e 360 96 0d 64
        e 120 86 0d 00
        e 360 96 0d 64
        e 120 86 0d 00
        e 360 96 0d 64
        e 120 86 0d 00
        e 360 96 0c 64
        e 120 86 0c 00
        e 360 96 0d 64
        e 120 86 0d 00
        e 360 96 0d 64
        e 120 86 0d 00
        e 360 96 0d 64
        e 120 86 0d 00
        e 360 96 0c 64
        e 120 86 0c 00
        e 360 96 0d 64
        e 120 86 0d 00
        e 360 96 0d 64
        e 120 86 0d 00
        e 360 96 0d 64
        e 120 86 0d 00
        e 360 96 0c 64
        e 120 86 0c 00
        e 360 96 0d 64
        e 120 86 0d 00
        e 360 96 0d 64
        e 120 86 0d 00
        e 360 96 0d 64
        e 120 86 0d 00
        e 360 96 0c 64
        e 120 86 0c 00
        e 360 96 0d 64
        e 120 86 0d 00
        e 360 96 0d 64
        e 120 86 0d 00
        e 360 96 0d 64
        e 120 86 0d 00
        e 360 96 0c 64
        e 120 86 0c 00
        e 360 96 0d 64
        e 120 86 0d 00
        e 360 96 0d 64
        e 120 86 0d 00
        e 360 96 0d 64
        e 120 86 0d 00
        e 360 96 0c 64
        e 120 86 0c 00
        e 360 96 0d 64
        e 120 86 0d 00
        e 360 96 0d 64
        e 120 86 0d 00
        e 360 96 0d 64
        e 120 86 0d 00
        e 360 96 0c 64
        e 120 86 0c 00
        e 360 96 0d 64
        e 120 86 0d 00
        e 360 96 0d 64
        e 120 86 0d 00
        e 360 96 0d 64
        e 120 86 0d 00
        e 360 96 0c 64
        e 120 86 0c 00
        e 360 96 0d 64
        e 120 86 0d 00
        e 360 96 0d 64
        e 120 86 0d 00
        e 360 96 0d 64
        e 120 86 0d 00
        e 360 96 0c 64
        e 120 86 0c 00
        e 360 96 0d 64
        e 120 86 0d 00
        e 360 96 0d 64
        e 120 86 0d 00
        e 360 96 0d 64
        e 120 86 0d 00
        e 360 96 0c 64
        e 120 86 0c 00
        e 360 96 0d 64
        e 120 86 0d 00
        e 360 96 0d 64
        e 120 86 0d 00
        e 360 96 0d 64
        e 120 86 0d 00
        e 360 96 0c 64
        e 120 86 0c 00
        e 360 96 0d 64
        e 120 86 0d 00
        e 360 96 0d 64
        e 120 86 0d 00
        e 360 96 0d 64
        e 120 86 0d 00
        e 360 96 0c 64
        e 120 86 0c 00
        e 360 96 0d 64
        e 120 86 0d 00
        e 360 96 0d 64
        e 120 86 0d 00
        e 360 96 0d 64
        e 120 86 0d 00
        e 360 96 0c 64
        e 120 86 0c 00
        e 360 96 0d 64
        e 120 86 0d 00
        e 360 96 0d 64
        e 120 86 0d 00
        e 360 96 0d 64
        e 120 86 0d 00
        e 360 96 0c 64
        e 120 86 0c 00
        e 360 96 0d 64
        e 120 86 0d 00
        e 360 96 0d 64
        e 120 86 0d 00
        e 360 96 0d 64
        e 120 86 0d 00
        e 360 96 0c 64
        e 120 86 0c 00
        e 360 96 0d 64
        e 120 86 0d 00
        e 360 96 0d 64
        e 120 86 0d 00
        e 360 96 0d 64
        e 120 86 0d 00
        e 360 96 0c 64
        e 120 86 0c 00
        e 360 96 0d 64
        e 120 86 0d 00
        e 360 96 0d 64
        e 120 86 0d 00
        e 360 96 0d 64
        e 120 86 0d 00
        e 360 96 0c 64
        e 120 86 0c 00
        e 360 96 0d 64
        e 120 86 0d 00
        e 360 96 0d 64
        e 120 86 0d 00
        e 360 96 0d 64
        e 120 86 0d 00
        e 360 96 0c 64
        e 120 86 0c 00
        e 360 96 0d 64
        e 120 86 0d 00
        e 360 96 0d 64
        e 120 86 0d 00
        e 360 96 0d 64
        e 120 86 0d 00
        e 360 96 0c 64
        e 120 86 0c 00
        e 360 96 0d 64
        e 120 86 0d 00
        e 360 96 0d 64
        e 120 86 0d 00
        e 360 96 0d 64
        e 120 86 0d 00
        e 360 96 0c 64
        e 120 86 0c 00
        e 360 96 0d 64
        e 120 86 0d 00
        e 360 96 0d 64
        e 120 86 0d 00
        e 360 96 0d 64
        e 120 86 0d 00
        e 360 96 0c 64
        e 120 86 0c 00
        e 360 96 0d 64
        e 120 86 0d 00
        e 360 96 0d 64
        e 120 86 0d 00
        e 360 96 0d 64
        e 120 86 0d 00
        e 360 96 0c 64
        e 120 86 0c 00
        e 360 96 0d 64
        e 120 86 0d 00
        e 360 96 0d 64
        e 120 86 0d 00
        e 360 96 0d 64
        e 120 86 0d 00
        e 360 96 0c 64
        e 120 86 0c 00
        e 360 96 0d 64
        e 120 86 0d 00
        e 360 96 0d 64
        e 120 86 0d 00
        e 360 96 0d 64
        e 120 86 0d 00
        e 360 96 0c 64
        e 120 86 0c 00
        e 360 96 0d 64
        e 120 86 0d 00
        e 360 96 0d 64
        e 120 86 0d 00
        e 360 96 0d 64
        e 120 86 0d 00
        e 360 96 0c 64
        e 120 86 0c 00
        e 360 96 0d 64
        e 120 86 0d 00
        e 360 96 0d 64
        e 120 86 0d 00
        e 360 96 0d 64
        e 120 86 0d 00
        e 360 96 0c 64
        e 120 86 0c 00
        e 360 96 0d 64
        e 120 86 0d 00
        e 360 96 0d 64
        e 120 86 0d 00
        e 360 96 0d 64
        e 120 86 0d 00
        e 360 96 0c 64
        e 120 86 0c 00
        e 360 96 0d 64
        e 120 86 0d 00
        e 360 96 0d 64
        e 120 86 0d 00
        e 360 96 0d 64
        e 120 86 0d 00
        e 360 96 0c 64
        e 120 86 0c 00
        e 360 96 0d 64
        e 120 86 0d 00
        e 360 96 0d 64
        e 120 86 0d 00
        e 360 96 0d 64
        e 120 86 0d 00
        e 360 96 0c 64
        e 120 86 0c 00
        e 360 96 0d 64
        e 120 86 0d 00
        e 360 96 0d 64
        e 120 86 0d 00
        e 360 96 0d 64
        e 120 86 0d 00
        e 360 96 0c 64
        e 120 86 0c 00
        e 360 96 0d 64
        e 120 86 0d 00
        e 360 96 0d 64
        e 120 86 0d 00
        e 360 96 0d 64
        e 120 86 0d 00
        e 360 96 0c 64
        e 120 86 0c 00
        e 360 96 0d 64
        e 120 86 0d 00
        e 360 96 0d 64
        e 120 86 0d 00
        e 360 96 0d 64
        e 120 86 0d 00
        e 360 96 0c 64
        e 120 86 0c 00
        e 360 96 0d 64
        e 120 86 0d 00
        e 360 96 0d 64
        e 120 86 0d 00
        e 360 96 0d 64
        e 120 86 0d 00
        e 360 96 0c 64
        e 120 86 0c 00
        e 360 96 0d 64
        e 120 86 0d 00
        e 360 96 0d 64
        e 120 86 0d 00
        e 360 96 0d 64
        e 120 86 0d 00
        e 360 96 0c 64
        e 120 86 0c 00
        e 360 96 0d 64
        e 120 86 0d 00
        e 360 96 0d 64
        e 120 86 0d 00
        e 360 96 0d 64
        e 120 86 0d 00
        e 360 96 0c 64
        e 120 86 0c 00
        e 360 96 0d 64
        e 120 86 0d 00
        e 360 96 0d 64
        e 120 86 0d 00
        e 360 96 0d 64
        e 120 86 0d 00
        e 360 96 0c 64
        e 120 86 0c 00
        e 360 96 0d 64
        e 120 86 0d 00
        e 360 96 0d 64
        e 120 86 0d 00
        e 360 96 0d 64
        e 120 86 0d 00
        e 360 96 0c 64
        e 120 86 0c 00
        e 360 96 0d 64
        e 120 86 0d 00
        e 360 96 0d 64
        e 120 86 0d 00
        e 360 96 0d 64
        e 120 86 0d 00
        e 360 96 0c 64
        e 120 86 0c 00
        e 360 96 0d 64
        e 120 86 0d 00
        e 360 96 0d 64
        e 120 86 0d 00
        e 360 96 0d 64
        e 120 86 0d 00
        e 360 96 0c 64
        e 120 86 0c 00
        e 360 96 0d 64
        e 120 86 0d 00
        e 360 96 0d 64
        e 120 86 0d 00
        e 360 96 0d 64
        e 120 86 0d 00
        e 360 96 0c 64
        e 120 86 0c 00
        e 360 96 0d 64
        e 120 86 0d 00
        e 360 96 0d 64
        e 120 86 0d 00
        e 360 96 0d 64
        e 120 86 0d 00
        e 360 96 0c 64
        e 120 86 0c 00
        e 360 96 0d 64
        e 120 86 0d 00
        e 360 96 0d 64
        e 120 86 0d 00
        e 360 96 0d 64
        e 120 86 0d 00
        e 360 96 0c 64
        e 120 86 0c 00
        e 360 96 0d 64
        e 120 86 0d 00
        e 360 96 0d 64
        e 120 86 0d 00
        e 360 96 0d 64
        e 120 86 0d 00
        e 360 96 0c 64
        e 120 86 0c 00
        e 360 96 0d 64
        e 120 86 0d 00
        e 360 96 0d 64
        e 120 86 0d 00
        e 360 96 0d 64
        e 120 86 0d 00
        e 360 96 0c 64
        e 120 86 0c 00
        e 360 96 0d 64
        e 120 86 0d 00
        e 360 96 0d 64
        e 120 86 0d 00
        e 360 96 0d 64
        e 120 86 0d 00
        e 360 96 0c 64
        e 120 86 0c 00
        e 360 96 0d 64
        e 120 86 0d 00
        e 360 96 0d 64
        e 120 86 0d 00
        e 360 96 0d 64
        e 120 86 0d 00
        e 360 96 0c 64
        e 120 86 0c 00
        e 360 96 0d 64
        e 120 86 0d 00
        e 360 96 0d 64
        e 120 86 0d 00
        e 360 96 0d 64
        e 120 86 0d 00
        e 360 96 0c 64
        e 120 86 0c 00
        e 360 96 0d 64
        e 120 86 0d 00
        e 360 96 0d 64
        e 120 86 0d 00
        e 360 96 0d 64
        e 120 86 0d 00
        e 360 96 0c 64
        e 120 86 0c 00
        e 360 96 0d 64
        e 120 86 0d 00
        e 360 96 0d 64
        e 120 86 0d 00
        e 360 96 0d 64
        e 120 86 0d 00
        e 360 96 0c 64
        e 120 86 0c 00
        e 360 96 0d 64
        e 120 86 0d 00
        e 360 96 0d 64
        e 120 86 0d 00
        e 360 96 0d 64
        e 120 86 0d 00
        e 360 96 0c 64
        e 120 86 0c 00
        e 360 96 0d 64
        e 120 86 0d 00
        e 360 96 0d 64
        e 120 86 0d 00
        e 360 96 0d 64
        e 120 86 0d 00
        e 360 96 0c 64
        e 120 86 0c 00
        e 360 96 0d 64
        e 120 86 0d 00
        e 360 96 0d 64
        e 120 86 0d 00
        e 360 96 0d 64
        e 120 86 0d 00
        e 360 96 0c 64
        e 120 86 0c 00
        e 360 96 0d 64
        e 120 86 0d 00
        e 360 96 0d 64
        e 120 86 0d 00
        e 360 96 0d 64
        e 120 86 0d 00
        e 360 96 0c 64
        e 120 86 0c 00
        e 360 96 0d 64
        e 120 86 0d 00
        e 360 96 0d 64
        e 120 86 0d 00
        e 360 96 0d 64
        e 120 86 0d 00
        e 360 96 0c 64
        e 120 86 0c 00
        e 360 96 0d 64
        e 120 86 0d 00
        e 360 96 0d 64
        e 120 86 0d 00
        e 360 96 0d 64
        e 120 86 0d 00
        e 360 96 0c 64
        e 120 86 0c 00
        e 360 96 0d 64
        e 120 86 0d 00
        e 360 96 0d 64
        e 120 86 0d 00
        e 360 96 0d 64
        e 120 86 0d 00
        e 360 96 0c 64
        e 120 86 0c 00
        e 360 96 0d 64
        e 120 86 0d 00
        e 360 96 0d 64
        e 120 86 0d 00
        e 360 96 0d 64
        e 120 86 0d 00
        e 360 96 0c 64
        e 120 86 0c 00
        e 360 96 0d 64
        e 120 86 0d 00
        e 360 96 0d 64
        e 120 86 0d 00
        e 360 96 0d 64
        e 120 86 0d 00
        e 360 96 0c 64
        e 120 86 0c 00
        e 360 96 0d 64
        e 120 86 0d 00
        e 360 96 0d 64
        e 120 86 0d 00
        e 360 96 0d 64
        e 120 86 0d 00
        e 360 96 0c 64
        e 120 86 0c 00
        e 360 96 0d 64
        e 120 86 0d 00
        e 360 96 0d 64
        e 120 86 0d 00
        e 360 96 0d 64
        e 120 86 0d 00
        e 360 96 0c 64
        e 120 86 0c 00
        e 360 96 0d 64
        e 120 86 0d 00
        e 360 96 0d 64
        e 120 86 0d 00
        e 360 96 0d 64
        e 120 86 0d 00
        e 360 96 0c 64
        e 120 86 0c 00
        e 360 96 0d 64
        e 120 86 0d 00
        e 360 96 0d 64
        e 120 86 0d 00
        e 360 96 0d 64
        e 120 86 0d 00
        e 360 96 0c 64
        e 120 86 0c 00
        e 360 96 0d 64
        e 120 86 0d 00
        e 360 96 0d 64
        e 120 86 0d 00
        e 360 96 0d 64
        e 120 86 0d 00
        e 360 96 0c 64
        e 120 86 0c 00
        e 360 96 0d 64
        e 120 86 0d 00
        e 360 96 0d 64
        e 120 86 0d 00
        e 360 96 0d 64
        e 120 86 0d 00
        e 360 96 0c 64
        e 120 86 0c 00
        e 360 96 0d 64
        e 120 86 0d 00
        e 360 96 0d 64
        e 120 86 0d 00
        e 360 96 0d 64
        e 120 86 0d 00
        e 360 96 0c 64
        e 120 86 0c 00
        e 360 96 0d 64
        e 120 86 0d 00
        e 360 96 0d 64
        e 120 86 0d 00
        e 360 96 0d 64
        e 120 86 0d 00
        e 360 96 0c 64
        e 120 86 0c 00
        e 360 96 0d 64
        e 120 86 0d 00
        e 360 96 0d 64
        e 120 86 0d 00
        e 360 96 0d 64
        e 120 86 0d 00
        e 360 96 0c 64
        e 120 86 0c 00
        e 360 96 0d 64
        e 120 86 0d 00
        e 360 96 0d 64
        e 120 86 0d 00
        e 360 96 0d 64
        e 120 86 0d 00
        e 360 96 0c 64
        e 120 86 0c 00
        e 360 96 0d 64
        e 120 86 0d 00
        e 360 96 0d 64
        e 120 86 0d 00
        e 360 96 0d 64
        e 120 86 0d 00
        e 360 96 0c 64
        e 120 86 0c 00
        e 360 96 0d 64
        e 120 86 0d 00
        e 360 96 0d 64
        e 120 86 0d 00
        e 360 96 0d 64
        e 120 86 0d 00
        e 360 96 0c 64
        e 120 86 0c 00
        e 360 96 0d 64
        e 120 86 0d 00
        e 360 96 0d 64
        e 120 86 0d 00
        e 360 96 0d 64
        e 120 86 0d 00
        e 360 96 0c 64
        e 120 86 0c 00
        e 360 96 0d 64
        e 120 86 0d 00
        e 360 96 0d 64
        e 120 86 0d 00
        e 360 96 0d 64
        e 120 86 0d 00
        e 360 96 0c 64
        e 120 86 0c 00
        e 360 96 0d 64
        e 120 86 0d 00
        e 360 96 0d 64
        e 120 86 0d 00
        e 360 96 0d 64
        e 120 86 0d 00
        e 360 96 0c 64
        e 120 86 0c 00
        e 360 96 0d 64
        e 120 86 0d 00
        e 360 96 0d 64
        e 120 86 0d 00
        e 360 96 0d 64
        e 120 86 0d 00
        e 360 96 0c 64
        e 120 86 0c 00
        e 360 96 0d 64
        e 120 86 0d 00
        e 360 96 0d 64
        e 120 86 0d 00
        e 360 96 0d 64
        e 120 86 0d 00
        e 360 96 0c 64
        e 120 86 0c 00
        e 360 96 0d 64
        e 120 86 0d 00
        E 840 b0 7b 00
        GUID {8CB930E8-B6A0-4CAD-825A-9F47FB66C1D0}
        IGNTEMPO 0 120 4 4
        SRCCOLOR 1357
        VELLANE 132 100 100
        COLORMAP "C:\Users\AJFOne23\AppData\Roaming\REAPER\Data\color_maps\rockband_vox-other.png"
        TEXTSTRINGFILE "Text Events List.txt"
        CFGEDITVIEW 134573.558126 19.162506 0 48 0 0 0 0 0
        KEYSNAP 0 0 102034050607 0 Major
        TRACKSEL 0 0 0 ""
        EVTFILTER 0 -1 -1 -1 -1 0 1 0 0 -1 -1 -1 -1 0 -1 0 -1 -1
        CFGEDIT 1 1 0 0 0 1 1 1 1 1 1 1 44 63 1223 847 1 2 1 2 0 0 0 0 0 0.5 1 0 1 64
      >
    >
  >
  <TRACK {C298A11E-8E06-44B8-AA31-429ECCE3F0AF}
    NAME "PART VOCALS"
    PEAKCOL 16810239
    BEAT -1
    AUTOMODE 0
    VOLPAN 1 0 -1 -1 1
    MUTESOLO 0 2 0
    IPHASE 0
    ISBUS 0 0
    BUSCOMP 1 0
    SHOWINMIX 1 0.6667 0.5 1 0.5 0 0 0
    FREEMODE 0
    SEL 0
    REC 0 4096 1 7 0 0 0
    TRACKHEIGHT 77 0
    INQ 0 0 0 0.5 100 0 0 100
    NCHAN 2
    FX 0
    TRACKID {C298A11E-8E06-44B8-AA31-429ECCE3F0AF}
    PERF 0
    MIDIOUT -1
    <MIDINOTENAMES
      0 0 "Range Shift"
      0 1 "Lyric Shift"
      0 36 C1
      0 37 C#
      0 38 D
      0 39 Eb
      0 40 E
      0 41 F
      0 42 F#
      0 43 G
      0 44 G#
      0 45 A
      0 46 Bb
      0 47 B
      0 48 C2
      0 49 C#
      0 50 D
      0 51 Eb
      0 52 E
      0 53 F
      0 54 F#
      0 55 G
      0 56 G#
      0 57 A
      0 58 Bb
      0 59 B
      0 60 C3
      0 61 C#
      0 62 D
      0 63 Eb
      0 64 E
      0 65 F
      0 66 F#
      0 67 G
      0 68 G#
      0 69 A
      0 70 Bb
      0 71 B
      0 72 C4
      0 73 C#
      0 74 D
      0 75 Eb
      0 76 E
      0 77 F
      0 78 F#
      0 79 G
      0 80 G#
      0 81 A
      0 82 Bb
      0 83 B
      0 84 C5
      0 95 ----
      0 96 "Displayed Percussion"
      0 97 "Not Displayed Percussion"
      0 104 ----
      0 105 "Phrase Marker"
      0 115 ----
      0 116 OVERDRIVE
    >
    MAINSEND 1 0
    <FXCHAIN
      WNDRECT 581 377 716 493
      SHOW 0
      LASTSEL 1
      DOCKED 0
      BYPASS 0 0 0
      <JS "IX/MIDI_Tool II" ""
        0.000000 85.000000 127.000000 0.000000 0.000000 0.000000 100.000000 0.000000 0.000000 127.000000 0.000000 0.000000 1.000000 0.000000 0.000000 - - - - - - - - - - - - - - - - - - - - - - - - - - - - - - - - - - - - - - - - - - - - - - - - - 
      >
      FLOATPOS 0 0 0 0
      FXID {CA785021-0433-497E-9A6C-EE23A1BC21B0}
      WAK 0
      BYPASS 0 0 0
      <VST "VSTi: ReaSynth (Cockos)" reasynth.vst.dylib 0 "" 1919251321
        eXNlcu9e7f4AAAAAAgAAAAEAAAAAAAAAAgAAAAAAAAA8AAAAAAAAAAAAAADvvq3eDfCt3qabxDsXt9E6nMSgPnNo0T4AAAAAAACAP+lniD0AAAAAAAAAPwAAgD/pJrE+
        AAAAPwAAgD8AAAAAAAA=
      >
      FLOATPOS 32 32 338 405
      FXID {F124DD19-73B4-4CD5-B659-E246F2A3D0B3}
      WAK 0
    >
    <ITEM
      POSITION 0
      SNAPOFFS 0
      LENGTH 215.74980810364173
      LOOP 0
      ALLTAKES 0
      FADEIN 1 0 0 1 0 0
      FADEOUT 1 0 0 1 0 0
      MUTE 0
      SEL 0
      IGUID {9C9617EC-369A-41B9-80F6-31F4222F13F6}
      IID 15
      NAME "PART VOCALS"
      VOLPAN 1 0 1 -1
      SOFFS 0 0
      PLAYRATE 1 1 0 -65536 0 0.0025
      CHANMODE 0
      GUID {8E872349-00D8-4243-95D7-0B92852E4EE5}
      <SOURCE MIDI
        HASDATA 1 480 QN
        POOLEDEVTS {69EEBD18-828D-4DD1-9596-208CB6806C4E}
        <X 0 0
          /wNQQVJUIFZPQ0FMUw==
        >
        <X 29760 0
          /wVJ
        >
        E 0 90 69 7f
        E 0 90 3e 7f
        E 330 80 3e 00
        <X 150 0
          /wVidXJuZWQ=
        >
        E 0 90 3e 7f
        E 90 80 3e 00
        <X 30 0
          /wUr
        >
        E 0 90 3f 7f
        E 120 80 3f 00
        <X 90 0
          /wVvdXQ=
        >
        E 0 90 3f 7f
        E 150 80 3f 00
        <X 150 0
          /wVteQ==
        >
        E 0 90 3f 7f
        E 240 80 3f 00
        <X 90 0
          /wVleWVz
        >
        E 0 90 3e 7f
        E 1260 80 3e 00
        E 180 80 69 00
        <X 960 0
          /wVJ
        >
        E 0 90 43 7f
        E 0 90 69 7f
        E 300 80 43 00
        <X 180 0
          /wVjdXQ=
        >
        E 0 90 43 7f
        E 210 80 43 00
        <X 90 0
          /wVvZmY=
        >
        E 0 90 43 7f
        E 180 80 43 00
        <X 150 0
          /wVteQ==
        >
        E 0 90 41 7f
        E 180 80 41 00
        <X 150 0
          /wV0b25ndWU=
        >
        E 0 90 43 7f
        E 210 80 43 00
        <X 60 0
          /wUr
        >
        E 0 90 41 7f
        E 810 80 41 00
        E 360 80 69 00
        <X 960 0
          /wVJ
        >
        E 0 90 43 7f
        E 0 90 69 7f
        E 180 80 43 00
        <X 300 0
          /wVzZWFsZWQ=
        >
        E 0 90 43 7f
        E 210 80 43 00
        <X 90 0
          /wV0aGVt
        >
        E 0 90 43 7f
        E 210 80 43 00
        <X 120 0
          /wV3aXRo
        >
        E 0 90 41 7f
        E 150 80 41 00
        <X 180 0
          /wVhbGw=
        >
        E 0 90 43 7f
        E 240 80 43 00
        <X 90 0
          /wVvZg==
        >
        E 0 90 43 7f
        E 240 80 43 00
        <X 90 0
          /wV0aGU=
        >
        E 0 90 41 7f
        E 150 80 41 00
        <X 150 0
          /wVzaWwt
        >
        E 0 90 3e 7f
        E 180 80 3e 00
        <X 120 0
          /wV2ZXI=
        >
        E 0 90 3e 7f
        E 390 80 3e 00
        E 270 80 69 00
        <X 480 0
          /wVBbmQ=
        >
        E 0 90 40 7f
        E 0 90 69 7f
        E 0 90 74 7f
        E 60 80 40 00
        <X 120 0
          /wUr
        >
        E 0 90 43 7f
        E 120 80 43 00
        <X 180 0
          /wVub3c=
        >
        E 0 90 43 7f
        E 240 80 43 00
        <X 90 0
          /wVJ
        >
        E 0 90 43 7f
        E 270 80 43 00
        <X 120 0
          /wVoYXZl
        >
        E 0 90 41 7f
        E 150 80 41 00
        <X 30 0
          /wUr
        >
        E 0 90 43 7f
        E 660 80 43 00
        <X 180 0
          /wVub25l
        >
        E 0 90 41 7f
        E 1140 80 69 00
        E 0 80 74 00
        E 0 80 41 00
        <X 2880 0
          /wVZb3U=
        >
        E 0 90 45 60
        E 0 90 69 60
        E 240 80 45 00
        <X 120 0
          /wVraWxsZWQ=
        >
        E 0 90 45 60
        E 210 80 45 00
        <X 90 0
          /wV0aGU=
        >
        E 0 90 44 60
        E 150 80 44 00
        <X 90 0
          /wVsaWZl
        >
        E 0 90 46 60
        E 360 80 46 00
        E 180 80 69 00
        <X 2400 0
          /wVZb3U=
        >
        E 0 90 45 60
        E 0 90 69 60
        E 240 80 45 00
        <X 90 0
          /wV0b29r
        >
        E 0 90 45 60
        E 180 80 45 00
        <X 150 0
          /wV0aGU=
        >
        E 0 90 45 60
        E 120 80 45 00
        <X 120 0
          /wVkaWEt
        >
        E 0 90 46 60
        E 270 80 46 00
        <X 270 0
          /wVtb25k
        >
        E 0 90 3e 60
        E 240 80 3e 00
        E 240 80 69 00
        <X 1920 0
          /wVZb3U=
        >
        E 0 90 44 60
        E 0 90 69 60
        E 240 80 44 00
        <X 120 0
          /wVraWxsZWQ=
        >
        E 0 90 44 60
        E 180 80 44 00
        <X 120 0
          /wV0aGU=
        >
        E 0 90 44 60
        E 120 80 44 00
        <X 120 0
          /wV2aW5l
        >
        E 0 90 45 60
        E 420 80 45 00
        E 120 80 69 00
        <X 2400 0
          /wVEZWF0aA==
        >
        E 0 90 41 60
        E 0 90 69 60
        E 210 80 41 00
        <X 180 0
          /wVvZg==
        >
        E 0 90 41 60
        E 150 80 41 00
        <X 180 0
          /wV0aGU=
        >
        E 0 90 41 60
        E 360 80 41 00
        <X 240 0
          /wUr
        >
        E 0 90 3e 60
        E 90 80 3e 00
        E 30 80 69 00
        <X 480 0
          /wVZb3U=
        >
        E 0 90 3f 60
        E 0 90 69 60
        E 270 80 3f 00
        <X 120 0
          /wVvd24=
        >
        E 0 90 3f 60
        E 180 80 3f 00
        <X 120 0
          /wV0aGU=
        >
        E 0 90 3f 60
        E 150 80 3f 00
        <X 120 0
          /wVkYXJrLQ==
        >
        E 0 90 3e 60
        E 240 80 3e 00
        <X 240 0
          /wVuZXNz
        >
        E 0 90 3e 60
        E 720 80 3e 00
        E 240 80 69 00
        E 1200 90 69 60
        E 0 90 74 60
        <X 30 0
          /wVBbmQ=
        >
        E 0 90 43 60
        E 90 80 43 00
        <X 120 0
          /wV0YWst
        >
        E 0 90 43 60
        E 180 80 43 00
        <X 150 0
          /wVlbg==
        >
        E 0 90 43 60
        E 180 80 43 00
        <X 120 0
          /wVteQ==
        >
        E 0 90 41 60
        E 330 80 41 00
        <X 240 0
          /wVzaWdodA==
        >
        E 0 90 3e 60
        E 720 80 69 00
        E 0 80 74 00
        E 0 80 3e 00
        E 1680 90 69 60
        <X 30 0
          /wVZb3U=
        >
        E 0 90 43 60
        E 90 80 43 00
        <X 120 0
          /wVidXIt
        >
        E 0 90 43 60
        E 270 80 43 00
        <X 60 0
          /wVpZWQ=
        >
        E 0 90 43 60
        E 240 80 43 00
        <X 90 0
          /wV0aGU=
        >
        E 0 90 41 60
        E 90 80 41 00
        <X 210 0
          /wVzdGFycw==
        >
        E 0 90 43 60
        E 330 80 43 00
        <X 150 0
          /wV1bi0=
        >
        E 0 90 43 60
        E 180 80 43 00
        <X 90 0
          /wVkZXIt
        >
        E 0 90 41 60
        E 330 80 41 00
        <X 120 0
          /wVncm91bmQ=
        >
        E 0 90 43 60
        E 600 80 43 00
        E 120 80 69 00
        E 480 90 69 60
        <X 210 0
          /wVZb3UndmU=
        >
        E 0 90 43 60
        E 90 80 43 00
        <X 180 0
          /wVzdG9sLQ==
        >
        E 0 90 45 60
        E 90 80 45 00
        <X 30 0
          /wVlbg==
        >
        E 0 90 46 60
        E 180 80 46 00
        <X 90 0
          /wV0aGU=
        >
        E 0 90 45 60
        E 240 80 45 00
        <X 90 0
          /wVuaWdodA==
        >
        E 0 90 43 60
        E 150 80 43 00
        <X 90 0
          /wUr
        >
        E 0 90 45 60
        E 960 80 69 00
        E 0 80 45 00
        <X 3360 0
          /wVZb3U=
        >
        E 0 90 43 60
        E 0 90 69 60
        E 240 80 43 00
        <X 90 0
          /wVjYW4=
        >
        E 0 90 44 60
        E 90 80 44 00
        <X 60 0
          /wVydW4=
        >
        E 0 90 46 60
        E 240 80 46 00
        <X 150 0
          /wV0bw==
        >
        E 0 90 44 60
        E 180 80 44 00
        <X 90 0
          /wV0aGU=
        >
        E 0 90 46 60
        E 120 80 46 00
        <X 180 0
          /wVzZWE=
        >
        E 0 90 48 60
        E 360 80 48 00
        E 120 80 69 00
        <X 1920 0
          /wVZb3U=
        >
        E 0 90 44 60
        E 0 90 69 60
        E 240 80 44 00
        <X 90 0
          /wVjYW4=
        >
        E 0 90 44 60
        E 90 80 44 00
        <X 120 0
          /wVydW4=
        >
        E 0 90 46 60
        E 210 80 46 00
        <X 150 0
          /wV0bw==
        >
        E 0 90 44 60
        E 180 80 44 00
        <X 120 0
          /wV0aGU=
        >
        E 0 90 43 60
        E 90 80 43 00
        <X 150 0
          /wVmb3It
        >
        E 0 90 44 60
        E 360 80 44 00
        <X 120 0
          /wVlc3Q=
        >
        E 0 90 43 60
        E 780 80 43 00
        E 180 80 69 00
        <X 960 0
          /wVZb3U=
        >
        E 0 90 44 60
        E 0 90 69 60
        E 0 90 74 60
        E 210 80 44 00
        <X 60 0
          /wVjYW4=
        >
        E 0 90 44 60
        E 120 80 44 00
        <X 120 0
          /wVoaWRl
        >
        E 0 90 46 60
        E 210 80 46 00
        <X 150 0
          /wVidXQ=
        >
        E 0 90 44 60
        E 180 80 44 00
        <X 120 0
          /wV5b3UnbGw=
        >
        E 0 90 46 60
        E 150 80 46 00
        <X 120 0
          /wVuZXYt
        >
        E 0 90 47 60
        E 90 80 47 00
        <X 30 0
          /wUr
        >
        E 0 90 48 60
        E 150 80 48 00
        <X 60 0
          /wVlcg==
        >
        E 0 90 46 60
        E 210 80 46 00
        <X 90 0
          /wVlcy0=
        >
        E 0 90 44 60
        E 150 80 44 00
        <X 180 0
          /wVjYXBl
        >
        E 0 90 44 60
        E 90 80 44 00
        <X 30 0
          /wUr
        >
        E 0 90 43 60
        E 240 80 43 00
        <X 30 0
          /wUr
        >
        E 0 90 44 60
        E 210 80 44 00
        <X 30 0
          /wUr
        >
        E 0 90 43 60
        E 540 80 43 00
        E 270 80 69 00
        E 0 80 74 00
        <X 7200 0
          /wVZb3UndmU=
        >
        E 0 90 3a 60
        E 0 90 69 60
        E 780 80 3a 00
        <X 180 0
          /wVydW4=
        >
        E 0 90 39 60
        E 270 80 39 00
        <X 90 0
          /wVvdXQ=
        >
        E 0 90 39 60
        E 240 80 39 00
        <X 60 0
          /wVvZg==
        >
        E 0 90 3c 60
        E 180 80 3c 00
        <X 120 0
          /wVsaWVz
        >
        E 0 90 3e 60
        E 390 80 3e 00
        E 90 80 69 00
        <X 5280 0
          /wVZb3UndmU=
        >
        E 0 90 3a 60
        E 0 90 69 60
        E 780 80 3a 00
        <X 180 0
          /wVydW4=
        >
        E 0 90 39 60
        E 270 80 39 00
        <X 90 0
          /wVvdXQ=
        >
        E 0 90 39 60
        E 240 80 39 00
        <X 60 0
          /wVvZg==
        >
        E 0 90 3c 60
        E 180 80 3c 00
        <X 120 0
          /wV0aW1l
        >
        E 0 90 3e 60
        E 360 80 3e 00
        E 120 80 69 00
        <X 40800 0
          /wVZb3U=
        >
        E 0 90 45 60
        E 0 90 69 60
        E 0 90 74 60
        E 240 80 45 00
        <X 120 0
          /wVraWxsZWQ=
        >
        E 0 90 45 60
        E 210 80 45 00
        <X 90 0
          /wV0aGU=
        >
        E 0 90 45 60
        E 150 80 45 00
        <X 90 0
          /wVsaWZl
        >
        E 0 90 46 60
        E 360 80 46 00
        E 180 80 69 00
        E 0 80 74 00
        <X 2400 0
          /wVZb3U=
        >
        E 0 90 45 60
        E 0 90 69 60
        E 240 80 45 00
        <X 90 0
          /wV0b29r
        >
        E 0 90 45 60
        E 180 80 45 00
        <X 150 0
          /wV0aGU=
        >
        E 0 90 45 60
        E 120 80 45 00
        <X 120 0
          /wVkaWEt
        >
        E 0 90 46 60
        E 270 80 46 00
        <X 270 0
          /wVtb25k
        >
        E 0 90 3e 60
        E 240 80 3e 00
        E 240 80 69 00
        <X 1920 0
          /wVZb3U=
        >
        E 0 90 44 60
        E 0 90 69 60
        E 240 80 44 00
        <X 120 0
          /wVraWxsZWQ=
        >
        E 0 90 45 60
        E 180 80 45 00
        <X 120 0
          /wV0aGU=
        >
        E 0 90 45 60
        E 120 80 45 00
        <X 120 0
          /wV2aW5l
        >
        E 0 90 45 60
        E 420 80 45 00
        E 120 80 69 00
        <X 2400 0
          /wVEZWF0aA==
        >
        E 0 90 41 60
        E 0 90 69 60
        E 210 80 41 00
        <X 180 0
          /wVvZg==
        >
        E 0 90 41 60
        E 150 80 41 00
        <X 180 0
          /wV0aGU=
        >
        E 0 90 41 60
        E 360 80 41 00
        <X 360 0
          /wVzdW4=
        >
        E 0 90 3e 60
        E 480 80 69 00
        E 0 80 3e 00
        E 9600 b0 7b 00
        GUID {C9A1A4CA-4224-4672-91C0-075BEB2A8650}
        IGNTEMPO 0 120 4 4
        SRCCOLOR 1358
        VELLANE 132 128 128
        COLORMAP "C:\Users\me\AppData\Roaming\REAPER\Data\color_maps\rockband_vox-other.png"
        TEXTSTRINGFILE "Text Events List.txt"
        CFGEDITVIEW 33108.820195 0.071845 0 12 0 0 0 0 0
        KEYSNAP 0 0 102034050607 0 Major
        TRACKSEL -252 0 0 ""
        EVTFILTER 0 -1 -1 -1 -1 0 1 0 0 -1 -1 -1 -1 0 -1 0 -1 -1
        CFGEDIT 1 1 0 0 1 1 1 1 1 1 1 0.25 55 100 1440 791 0 2 0 2 0 0 0 0 0 0.5 1 0 1 64
      >
    >
  >
  <TRACK {05E77A91-AC02-5A41-97A7-CA0CC35A8149}
    NAME HARM1
    PEAKCOL 16810239
    BEAT -1
    AUTOMODE 0
    VOLPAN 1 0 -1 -1 1
    MUTESOLO 0 2 0
    IPHASE 0
    ISBUS 0 0
    BUSCOMP 1 0
    SHOWINMIX 1 0.6667 0.5 1 0.5 0 0 0
    FREEMODE 0
    SEL 1
    REC 0 4096 1 7 0 0 0
    TRACKHEIGHT 77 0
    INQ 0 0 0 0.5 100 0 0 100
    NCHAN 2
    FX 1
    TRACKID {05E77A91-AC02-5A41-97A7-CA0CC35A8149}
    PERF 0
    MIDIOUT -1
    <MIDINOTENAMES
      0 0 "Range Shift"
      0 1 "Lyric Shift"
      0 36 C1
      0 37 C#
      0 38 D
      0 39 Eb
      0 40 E
      0 41 F
      0 42 F#
      0 43 G
      0 44 G#
      0 45 A
      0 46 Bb
      0 47 B
      0 48 C2
      0 49 C#
      0 50 D
      0 51 Eb
      0 52 E
      0 53 F
      0 54 F#
      0 55 G
      0 56 G#
      0 57 A
      0 58 Bb
      0 59 B
      0 60 C3
      0 61 C#
      0 62 D
      0 63 Eb
      0 64 E
      0 65 F
      0 66 F#
      0 67 G
      0 68 G#
      0 69 A
      0 70 Bb
      0 71 B
      0 72 C4
      0 73 C#
      0 74 D
      0 75 Eb
      0 76 E
      0 77 F
      0 78 F#
      0 79 G
      0 80 G#
      0 81 A
      0 82 Bb
      0 83 B
      0 84 C5
      0 95 ----
      0 96 "Displayed Percussion"
      0 97 "Not Displayed Percussion"
      0 104 ----
      0 105 "Phrase Marker"
      0 115 ----
      0 116 OVERDRIVE
    >
    MAINSEND 1 0
    <FXCHAIN
      WNDRECT 581 377 716 493
      SHOW 0
      LASTSEL 1
      DOCKED 0
      BYPASS 0 0 0
      <JS "IX/MIDI_Tool II" ""
        0.000000 85.000000 127.000000 0.000000 0.000000 0.000000 100.000000 0.000000 0.000000 127.000000 0.000000 0.000000 1.000000 0.000000 0.000000 - - - - - - - - - - - - - - - - - - - - - - - - - - - - - - - - - - - - - - - - - - - - - - - - - 
      >
      FLOATPOS 0 0 0 0
      FXID {CA785021-0433-497E-9A6C-EE23A1BC21B0}
      WAK 0
      BYPASS 0 0 0
      <VST "VSTi: ReaSynth (Cockos)" reasynth.vst.dylib 0 "" 1919251321
        eXNlcu9e7f4AAAAAAgAAAAEAAAAAAAAAAgAAAAAAAAA8AAAAAAAAAAAAAADvvq3eDfCt3qabxDsXt9E6nMSgPnNo0T4AAAAAAACAP+lniD0AAAAAAAAAPwAAgD/pJrE+
        AAAAPwAAgD8AAAAAAAA=
      >
      FLOATPOS 32 32 338 405
      FXID {F124DD19-73B4-4CD5-B659-E246F2A3D0B3}
      WAK 0
    >
    <ITEM
      POSITION 0
      SNAPOFFS 0
      LENGTH 215.74980810364173
      LOOP 0
      ALLTAKES 0
      FADEIN 1 0 0 1 0 0
      FADEOUT 1 0 0 1 0 0
      MUTE 0
      SEL 0
      IGUID {9C9617EC-369A-41B9-80F6-31F4222F13F6}
      IID 15
      NAME HARM1
      VOLPAN 1 0 1 -1
      SOFFS 0 0
      PLAYRATE 1 1 0 -65536 0 0.0025
      CHANMODE 0
      GUID {8E872349-00D8-4243-95D7-0B92852E4EE5}
      <SOURCE MIDI
        HASDATA 1 480 QN
        POOLEDEVTS {1992F9BF-E150-BD44-AC4D-6D22D3990480}
        <X 0 0
          /wNIQVJNMQ==
        >
        <X 29760 0
          /wVJ
        >
        E 0 90 69 7f
        E 0 90 3e 7f
        E 330 80 3e 00
        <X 150 0
          /wVidXJuZWQ=
        >
        E 0 90 3e 7f
        E 90 80 3e 00
        <X 30 0
          /wUr
        >
        E 0 90 3f 7f
        E 120 80 3f 00
        <X 90 0
          /wVvdXQ=
        >
        E 0 90 3f 7f
        E 150 80 3f 00
        <X 150 0
          /wVteQ==
        >
        E 0 90 3f 7f
        E 240 80 3f 00
        <X 90 0
          /wVleWVz
        >
        E 0 90 3e 7f
        E 1260 80 3e 00
        E 180 80 69 00
        <X 960 0
          /wVJ
        >
        E 0 90 43 7f
        E 0 90 69 7f
        E 300 80 43 00
        <X 180 0
          /wVjdXQ=
        >
        E 0 90 43 7f
        E 210 80 43 00
        <X 90 0
          /wVvZmY=
        >
        E 0 90 43 7f
        E 180 80 43 00
        <X 150 0
          /wVteQ==
        >
        E 0 90 41 7f
        E 180 80 41 00
        <X 150 0
          /wV0b25ndWU=
        >
        E 0 90 43 7f
        E 210 80 43 00
        <X 60 0
          /wUr
        >
        E 0 90 41 7f
        E 810 80 41 00
        E 360 80 69 00
        <X 960 0
          /wVJ
        >
        E 0 90 43 7f
        E 0 90 69 7f
        E 180 80 43 00
        <X 300 0
          /wVzZWFsZWQ=
        >
        E 0 90 43 7f
        E 210 80 43 00
        <X 90 0
          /wV0aGVt
        >
        E 0 90 43 7f
        E 210 80 43 00
        <X 120 0
          /wV3aXRo
        >
        E 0 90 41 7f
        E 150 80 41 00
        <X 180 0
          /wVhbGw=
        >
        E 0 90 43 7f
        E 240 80 43 00
        <X 90 0
          /wVvZg==
        >
        E 0 90 43 7f
        E 240 80 43 00
        <X 90 0
          /wV0aGU=
        >
        E 0 90 41 7f
        E 150 80 41 00
        <X 150 0
          /wVzaWwt
        >
        E 0 90 3e 7f
        E 180 80 3e 00
        <X 120 0
          /wV2ZXI=
        >
        E 0 90 3e 7f
        E 390 80 3e 00
        E 270 80 69 00
        <X 480 0
          /wVBbmQ=
        >
        E 0 90 40 7f
        E 0 90 69 7f
        e 0 90 74 7f
        E 60 80 40 00
        <X 120 0
          /wUr
        >
        E 0 90 43 7f
        E 120 80 43 00
        <X 180 0
          /wVub3c=
        >
        E 0 90 43 7f
        E 240 80 43 00
        <X 90 0
          /wVJ
        >
        E 0 90 43 7f
        E 270 80 43 00
        <X 120 0
          /wVoYXZl
        >
        E 0 90 41 7f
        E 150 80 41 00
        <X 30 0
          /wUr
        >
        E 0 90 43 7f
        E 660 80 43 00
        <X 180 0
          /wVub25l
        >
        E 0 90 41 7f
        e 1140 80 74 00
        E 0 80 69 00
        E 0 80 41 00
        <X 2880 0
          /wVZb3U=
        >
        E 0 90 45 60
        E 0 90 69 60
        E 240 80 45 00
        <X 120 0
          /wVraWxsZWQ=
        >
        E 0 90 45 60
        E 210 80 45 00
        <X 90 0
          /wV0aGU=
        >
        E 0 90 44 60
        E 150 80 44 00
        <X 90 0
          /wVsaWZl
        >
        E 0 90 46 60
        E 360 80 46 00
        E 180 80 69 00
        <X 2400 0
          /wVZb3U=
        >
        E 0 90 45 60
        E 0 90 69 60
        E 240 80 45 00
        <X 90 0
          /wV0b29r
        >
        E 0 90 45 60
        E 180 80 45 00
        <X 150 0
          /wV0aGU=
        >
        E 0 90 45 60
        E 120 80 45 00
        <X 120 0
          /wVkaWEt
        >
        E 0 90 46 60
        E 270 80 46 00
        <X 270 0
          /wVtb25k
        >
        E 0 90 3e 60
        E 240 80 3e 00
        E 240 80 69 00
        <X 1920 0
          /wVZb3U=
        >
        E 0 90 44 60
        E 0 90 69 60
        E 240 80 44 00
        <X 120 0
          /wVraWxsZWQ=
        >
        E 0 90 44 60
        E 180 80 44 00
        <X 120 0
          /wV0aGU=
        >
        E 0 90 44 60
        E 120 80 44 00
        <X 120 0
          /wV2aW5l
        >
        E 0 90 45 60
        E 420 80 45 00
        E 120 80 69 00
        <X 2400 0
          /wVEZWF0aA==
        >
        E 0 90 41 60
        E 0 90 69 60
        E 210 80 41 00
        <X 180 0
          /wVvZg==
        >
        E 0 90 41 60
        E 150 80 41 00
        <X 180 0
          /wV0aGU=
        >
        E 0 90 41 60
        E 360 80 41 00
        <X 240 0
          /wUr
        >
        E 0 90 3e 60
        E 90 80 3e 00
        E 30 80 69 00
        <X 480 0
          /wVZb3U=
        >
        E 0 90 3f 60
        E 0 90 69 60
        E 270 80 3f 00
        <X 120 0
          /wVvd24=
        >
        E 0 90 3f 60
        E 180 80 3f 00
        <X 120 0
          /wV0aGU=
        >
        E 0 90 3f 60
        E 150 80 3f 00
        <X 120 0
          /wVkYXJrLQ==
        >
        E 0 90 3e 60
        E 240 80 3e 00
        <X 240 0
          /wVuZXNz
        >
        E 0 90 3e 60
        E 720 80 3e 00
        E 240 80 69 00
        E 1200 90 69 60
        e 0 90 74 60
        <X 30 0
          /wVBbmQ=
        >
        E 0 90 43 60
        E 90 80 43 00
        <X 120 0
          /wV0YWst
        >
        E 0 90 43 60
        E 180 80 43 00
        <X 150 0
          /wVlbg==
        >
        E 0 90 43 60
        E 180 80 43 00
        <X 120 0
          /wVteQ==
        >
        E 0 90 41 60
        E 330 80 41 00
        <X 240 0
          /wVzaWdodA==
        >
        E 0 90 3e 60
        e 720 80 74 00
        E 0 80 69 00
        E 0 80 3e 00
        E 1680 90 69 60
        <X 30 0
          /wVZb3U=
        >
        E 0 90 43 60
        E 90 80 43 00
        <X 120 0
          /wVidXIt
        >
        E 0 90 43 60
        E 270 80 43 00
        <X 60 0
          /wVpZWQ=
        >
        E 0 90 43 60
        E 240 80 43 00
        <X 90 0
          /wV0aGU=
        >
        E 0 90 41 60
        E 90 80 41 00
        <X 210 0
          /wVzdGFycw==
        >
        E 0 90 43 60
        E 330 80 43 00
        <X 150 0
          /wV1bi0=
        >
        E 0 90 43 60
        E 180 80 43 00
        <X 90 0
          /wVkZXIt
        >
        E 0 90 41 60
        E 330 80 41 00
        <X 120 0
          /wVncm91bmQ=
        >
        E 0 90 43 60
        E 600 80 43 00
        E 120 80 69 00
        E 480 90 69 60
        <X 210 0
          /wVZb3UndmU=
        >
        E 0 90 43 60
        E 90 80 43 00
        <X 180 0
          /wVzdG9sLQ==
        >
        E 0 90 45 60
        E 90 80 45 00
        <X 30 0
          /wVlbg==
        >
        E 0 90 46 60
        E 180 80 46 00
        <X 90 0
          /wV0aGU=
        >
        E 0 90 45 60
        E 240 80 45 00
        <X 90 0
          /wVuaWdodA==
        >
        E 0 90 43 60
        E 150 80 43 00
        <X 90 0
          /wUr
        >
        E 0 90 45 60
        E 960 80 69 00
        E 0 80 45 00
        <X 3360 0
          /wVZb3U=
        >
        E 0 90 43 60
        E 0 90 69 60
        E 240 80 43 00
        <X 90 0
          /wVjYW4=
        >
        E 0 90 44 60
        E 90 80 44 00
        <X 60 0
          /wVydW4=
        >
        E 0 90 46 60
        E 240 80 46 00
        <X 150 0
          /wV0bw==
        >
        E 0 90 44 60
        E 180 80 44 00
        <X 90 0
          /wV0aGU=
        >
        E 0 90 46 60
        E 120 80 46 00
        <X 180 0
          /wVzZWE=
        >
        E 0 90 48 60
        E 360 80 48 00
        E 120 80 69 00
        <X 1920 0
          /wVZb3U=
        >
        E 0 90 44 60
        E 0 90 69 60
        E 240 80 44 00
        <X 90 0
          /wVjYW4=
        >
        E 0 90 44 60
        E 90 80 44 00
        <X 120 0
          /wVydW4=
        >
        E 0 90 46 60
        E 210 80 46 00
        <X 150 0
          /wV0bw==
        >
        E 0 90 44 60
        E 180 80 44 00
        <X 120 0
          /wV0aGU=
        >
        E 0 90 43 60
        E 90 80 43 00
        <X 150 0
          /wVmb3It
        >
        E 0 90 44 60
        E 360 80 44 00
        <X 120 0
          /wVlc3Q=
        >
        E 0 90 43 60
        E 780 80 43 00
        E 180 80 69 00
        <X 960 0
          /wVZb3U=
        >
        E 0 90 44 60
        E 0 90 69 60
        e 0 90 74 60
        E 210 80 44 00
        <X 60 0
          /wVjYW4=
        >
        E 0 90 44 60
        E 120 80 44 00
        <X 120 0
          /wVoaWRl
        >
        E 0 90 46 60
        E 210 80 46 00
        <X 150 0
          /wVidXQ=
        >
        E 0 90 44 60
        E 180 80 44 00
        <X 120 0
          /wV5b3UnbGw=
        >
        E 0 90 46 60
        E 150 80 46 00
        <X 120 0
          /wVuZXYt
        >
        E 0 90 47 60
        E 90 80 47 00
        <X 30 0
          /wUr
        >
        E 0 90 48 60
        E 150 80 48 00
        <X 60 0
          /wVlcg==
        >
        E 0 90 46 60
        E 210 80 46 00
        <X 90 0
          /wVlcy0=
        >
        E 0 90 44 60
        E 150 80 44 00
        <X 180 0
          /wVjYXBl
        >
        E 0 90 44 60
        E 90 80 44 00
        <X 30 0
          /wUr
        >
        E 0 90 43 60
        E 240 80 43 00
        <X 30 0
          /wUr
        >
        E 0 90 44 60
        E 210 80 44 00
        <X 30 0
          /wUr
        >
        E 0 90 43 60
        E 540 80 43 00
        e 270 80 74 00
        E 0 80 69 00
        <X 7200 0
          /wVZb3UndmU=
        >
        E 0 90 3a 60
        E 0 90 69 60
        E 780 80 3a 00
        <X 180 0
          /wVydW4=
        >
        E 0 90 39 60
        E 270 80 39 00
        <X 90 0
          /wVvdXQ=
        >
        E 0 90 39 60
        E 240 80 39 00
        <X 60 0
          /wVvZg==
        >
        E 0 90 3c 60
        E 180 80 3c 00
        <X 120 0
          /wVsaWVz
        >
        E 0 90 3e 60
        E 390 80 3e 00
        E 90 80 69 00
        <X 5280 0
          /wVZb3UndmU=
        >
        E 0 90 3a 60
        E 0 90 69 60
        E 780 80 3a 00
        <X 180 0
          /wVydW4=
        >
        E 0 90 39 60
        E 270 80 39 00
        <X 90 0
          /wVvdXQ=
        >
        E 0 90 39 60
        E 240 80 39 00
        <X 60 0
          /wVvZg==
        >
        E 0 90 3c 60
        E 180 80 3c 00
        <X 120 0
          /wV0aW1l
        >
        E 0 90 3e 60
        E 360 80 3e 00
        E 120 80 69 00
        <X 40800 0
          /wVZb3U=
        >
        E 0 90 45 60
        E 0 90 69 60
        e 0 90 74 60
        E 240 80 45 00
        <X 120 0
          /wVraWxsZWQ=
        >
        E 0 90 45 60
        E 210 80 45 00
        <X 90 0
          /wV0aGU=
        >
        E 0 90 45 60
        E 150 80 45 00
        <X 90 0
          /wVsaWZl
        >
        E 0 90 46 60
        E 360 80 46 00
        e 180 80 74 00
        E 0 80 69 00
        <X 2400 0
          /wVZb3U=
        >
        E 0 90 45 60
        E 0 90 69 60
        E 240 80 45 00
        <X 90 0
          /wV0b29r
        >
        E 0 90 45 60
        E 180 80 45 00
        <X 150 0
          /wV0aGU=
        >
        E 0 90 45 60
        E 120 80 45 00
        <X 120 0
          /wVkaWEt
        >
        E 0 90 46 60
        E 270 80 46 00
        <X 270 0
          /wVtb25k
        >
        E 0 90 3e 60
        E 240 80 3e 00
        E 240 80 69 00
        <X 1920 0
          /wVZb3U=
        >
        E 0 90 44 60
        E 0 90 69 60
        E 240 80 44 00
        <X 120 0
          /wVraWxsZWQ=
        >
        E 0 90 45 60
        E 180 80 45 00
        <X 120 0
          /wV0aGU=
        >
        E 0 90 45 60
        E 120 80 45 00
        <X 120 0
          /wV2aW5l
        >
        E 0 90 45 60
        E 420 80 45 00
        E 120 80 69 00
        <X 2400 0
          /wVEZWF0aA==
        >
        E 0 90 41 60
        E 0 90 69 60
        E 210 80 41 00
        <X 180 0
          /wVvZg==
        >
        E 0 90 41 60
        E 150 80 41 00
        <X 180 0
          /wV0aGU=
        >
        E 0 90 41 60
        E 360 80 41 00
        <X 360 0
          /wVzdW4=
        >
        E 0 90 3e 60
        E 480 80 69 00
        E 0 80 3e 00
        E 9600 b0 7b 00
        GUID {C9A1A4CA-4224-4672-91C0-075BEB2A8650}
        IGNTEMPO 0 120 4 4
        SRCCOLOR 1358
        VELLANE 132 128 128
        COLORMAP "C:\Users\me\AppData\Roaming\REAPER\Data\color_maps\rockband_vox-other.png"
        TEXTSTRINGFILE "Text Events List.txt"
        CFGEDITVIEW 38062.428936 0.011014 0 12 0 0 0 0 0
        KEYSNAP 0 0 102034050607 0 Major
        TRACKSEL -252 0 0 ""
        EVTFILTER 0 -1 -1 -1 -1 0 1 0 0 -1 -1 -1 -1 0 -1 0 -1 -1
        CFGEDIT 1 1 0 0 1 1 1 1 1 1 1 0.25 55 100 1440 791 0 2 0 2 0 0 0 0 0 0.5 1 0 1 64
      >
    >
  >
  <TRACK {3085A69A-55EA-2642-9326-1E15BB2BEA7D}
    NAME HARM2
    PEAKCOL 16810239
    BEAT -1
    AUTOMODE 0
    VOLPAN 1 0 -1 -1 1
    MUTESOLO 0 2 0
    IPHASE 0
    ISBUS 0 0
    BUSCOMP 1 0
    SHOWINMIX 1 0.6667 0.5 1 0.5 0 0 0
    FREEMODE 0
    SEL 0
    REC 0 4096 1 7 0 0 0
    TRACKHEIGHT 77 0
    INQ 0 0 0 0.5 100 0 0 100
    NCHAN 2
    FX 1
    TRACKID {3085A69A-55EA-2642-9326-1E15BB2BEA7D}
    PERF 0
    MIDIOUT -1
    <MIDINOTENAMES
      0 0 "Range Shift"
      0 1 "Lyric Shift"
      0 36 C1
      0 37 C#
      0 38 D
      0 39 Eb
      0 40 E
      0 41 F
      0 42 F#
      0 43 G
      0 44 G#
      0 45 A
      0 46 Bb
      0 47 B
      0 48 C2
      0 49 C#
      0 50 D
      0 51 Eb
      0 52 E
      0 53 F
      0 54 F#
      0 55 G
      0 56 G#
      0 57 A
      0 58 Bb
      0 59 B
      0 60 C3
      0 61 C#
      0 62 D
      0 63 Eb
      0 64 E
      0 65 F
      0 66 F#
      0 67 G
      0 68 G#
      0 69 A
      0 70 Bb
      0 71 B
      0 72 C4
      0 73 C#
      0 74 D
      0 75 Eb
      0 76 E
      0 77 F
      0 78 F#
      0 79 G
      0 80 G#
      0 81 A
      0 82 Bb
      0 83 B
      0 84 C5
      0 95 ----
      0 96 "Displayed Percussion"
      0 97 "Not Displayed Percussion"
      0 104 ----
      0 105 "Phrase Marker"
      0 115 ----
      0 116 OVERDRIVE
    >
    MAINSEND 1 0
    <FXCHAIN
      WNDRECT 581 377 716 493
      SHOW 0
      LASTSEL 1
      DOCKED 0
      BYPASS 0 0 0
      <JS "IX/MIDI_Tool II" ""
        0.000000 85.000000 127.000000 0.000000 0.000000 0.000000 100.000000 0.000000 0.000000 127.000000 0.000000 0.000000 1.000000 0.000000 0.000000 - - - - - - - - - - - - - - - - - - - - - - - - - - - - - - - - - - - - - - - - - - - - - - - - - 
      >
      FLOATPOS 0 0 0 0
      FXID {CA785021-0433-497E-9A6C-EE23A1BC21B0}
      WAK 0
      BYPASS 0 0 0
      <VST "VSTi: ReaSynth (Cockos)" reasynth.vst.dylib 0 "" 1919251321
        eXNlcu9e7f4AAAAAAgAAAAEAAAAAAAAAAgAAAAAAAAA8AAAAAAAAAAAAAADvvq3eDfCt3qabxDsXt9E6nMSgPnNo0T4AAAAAAACAP+lniD0AAAAAAAAAPwAAgD/pJrE+
        AAAAPwAAgD8AAAAAAAA=
      >
      FLOATPOS 32 32 338 405
      FXID {F124DD19-73B4-4CD5-B659-E246F2A3D0B3}
      WAK 0
    >
    <ITEM
      POSITION 0
      SNAPOFFS 0
      LENGTH 215.74980810364173
      LOOP 0
      ALLTAKES 0
      FADEIN 1 0 0 1 0 0
      FADEOUT 1 0 0 1 0 0
      MUTE 0
      SEL 0
      IGUID {9C9617EC-369A-41B9-80F6-31F4222F13F6}
      IID 15
      NAME HARM2
      VOLPAN 1 0 1 -1
      SOFFS 0 0
      PLAYRATE 1 1 0 -65536 0 0.0025
      CHANMODE 0
      GUID {8E872349-00D8-4243-95D7-0B92852E4EE5}
      <SOURCE MIDI
        HASDATA 1 480 QN
        POOLEDEVTS {C133244A-A18A-894E-B816-BDF68CA3D3AC}
        <X 0 0
          /wNIQVJNMg==
        >
        <X 47520 0
          /wVZb3U=
        >
        E 0 90 39 60
        E 0 90 69 60
        E 240 80 39 00
        <X 120 0
          /wVraWxsZWQ=
        >
        E 0 90 39 60
        E 210 80 39 00
        <X 90 0
          /wV0aGU=
        >
        E 0 90 38 60
        E 150 80 38 00
        <X 90 0
          /wVsaWZl
        >
        E 0 90 3a 60
        E 360 80 3a 00
        E 180 80 69 00
        <X 2400 0
          /wVZb3U=
        >
        E 0 90 39 60
        E 0 90 69 60
        E 240 80 39 00
        <X 90 0
          /wV0b29r
        >
        E 0 90 39 60
        E 180 80 39 00
        <X 150 0
          /wV0aGU=
        >
        E 0 90 39 60
        E 120 80 39 00
        <X 120 0
          /wVkaWEt
        >
        E 0 90 3a 60
        E 270 80 3a 00
        <X 270 0
          /wVtb25k
        >
        E 0 90 32 60
        E 240 80 32 00
        E 240 80 69 00
        <X 1920 0
          /wVZb3U=
        >
        E 0 90 38 60
        E 0 90 69 60
        E 240 80 38 00
        <X 120 0
          /wVraWxsZWQ=
        >
        E 0 90 38 60
        E 180 80 38 00
        <X 120 0
          /wV0aGU=
        >
        E 0 90 38 60
        E 120 80 38 00
        <X 120 0
          /wV2aW5l
        >
        E 0 90 39 60
        E 420 80 39 00
        E 120 80 69 00
        <X 90720 0
          /wVZb3U=
        >
        E 0 90 39 60
        E 0 90 69 60
        E 240 80 39 00
        <X 120 0
          /wVraWxsZWQ=
        >
        E 0 90 39 60
        E 210 80 39 00
        <X 90 0
          /wV0aGU=
        >
        E 0 90 39 60
        E 150 80 39 00
        <X 90 0
          /wVsaWZl
        >
        E 0 90 3a 60
        E 360 80 3a 00
        E 180 80 69 00
        <X 2400 0
          /wVZb3U=
        >
        E 0 90 39 60
        E 0 90 69 60
        E 240 80 39 00
        <X 90 0
          /wV0b29r
        >
        E 0 90 39 60
        E 180 80 39 00
        <X 150 0
          /wV0aGU=
        >
        E 0 90 39 60
        E 120 80 39 00
        <X 120 0
          /wVkaWEt
        >
        E 0 90 3a 60
        E 270 80 3a 00
        <X 270 0
          /wVtb25k
        >
        E 0 90 32 60
        E 240 80 32 00
        E 240 80 69 00
        <X 1920 0
          /wVZb3U=
        >
        E 0 90 38 60
        E 0 90 69 60
        E 240 80 38 00
        <X 120 0
          /wVraWxsZWQ=
        >
        E 0 90 39 60
        E 180 80 39 00
        <X 120 0
          /wV0aGU=
        >
        E 0 90 39 60
        E 120 80 39 00
        <X 120 0
          /wV2aW5l
        >
        E 0 90 39 60
        E 420 80 39 00
        E 120 80 69 00
        E 13920 b0 7b 00
        GUID {C9A1A4CA-4224-4672-91C0-075BEB2A8650}
        IGNTEMPO 0 120 4 4
        SRCCOLOR 1358
        VELLANE 132 128 128
        COLORMAP "C:\Users\me\AppData\Roaming\REAPER\Data\color_maps\rockband_vox-other.png"
        TEXTSTRINGFILE "Text Events List.txt"
        CFGEDITVIEW 122551.545531 0.025019 0 12 0 0 0 0 0
        KEYSNAP 0 0 102034050607 0 Major
        TRACKSEL -252 0 0 ""
        EVTFILTER 0 -1 -1 -1 -1 0 1 0 0 -1 -1 -1 -1 0 -1 0 -1 -1
        CFGEDIT 1 1 0 0 1 1 1 1 1 1 1 0.25 55 100 1440 791 0 2 0 2 0 0 0 0 0 0.5 1 0 1 64
      >
    >
  >
>
