<REAPER_PROJECT 0.1 "5.40" 1493567798
  RIPPLE 0
  GROUPOVERRIDE 0 0 0
  AUTOXFADE 1
  ENVATTACH 1
  MIXERUIFLAGS 11 48
  PEAKGAIN 1
  FEEDBACK 0
  PANLAW 1
  PROJOFFS 0 0
  MAXPROJLEN 0 600
  GRID 1151 8 1 8 1 0 0 0
  TIMEMODE 1 0 -1 24 2
  CURSOR 64
  ZOOM 3.83169956973255 0 0
  VZOOMEX 2
  USE_REC_CFG 0
  RECMODE 1
  SMPTESYNC 0 30 100 40 1000 300 0 0 0 0 0
  LOOP 0
  LOOPGRAN 0 4
  RECORD_PATH "" ""
  <RECORD_CFG
    ZXZhdxgA
  >
  <APPLYFX_CFG
  >
  RENDER_FILE ""
  RENDER_PATTERN ""
  RENDER_FMT 0 2 0
  RENDER_1X 0
  RENDER_RANGE 1 0 0 18 1000
  RENDER_RESAMPLE 3 0 1
  RENDER_ADDTOPROJ 0
  RENDER_STEMS 0
  RENDER_DITHER 0
  TIMELOCKMODE 2
  TEMPOENVLOCKMODE 1
  ITEMMIX 0
  DEFPITCHMODE 0
  TAKELANE 1
  SAMPLERATE 44100 0 0
  <RENDER_CFG
  >
  LOCK 1
  <METRONOME 6 2
    VOL 0.752735 0.723913
    FREQ 800 1600 0
    BEATLEN 4
    SAMPLES "" ""
    PATTERN 2863311530 2863311529
  >
  GLOBAL_AUTO -1
  TEMPO 120 4 4
  PLAYRATE 1 0 0.25 4
  SELECTION 0 0
  SELECTION2 0 0
  MASTERAUTOMODE 0
  MASTERTRACKHEIGHT 0
  MASTERPEAKCOL 16576
  MASTERMUTESOLO 0
  MASTERTRACKVIEW 1 0.6667 0.5 0.5 0 0 0
  MASTERHWOUT 0 0 1 0 0 0 0 -1
  MASTER_NCH 2 2
  MASTER_VOLUME 0.99080985041895 0 -1 -1 1
  MASTER_FX 1
  MASTER_SEL 0
  <MASTERPLAYSPEEDENV
    ACT 0
    VIS 0 1 1
    LANEHEIGHT 0 0
    ARM 0
    DEFSHAPE 0 -1 -1
  >
  <TEMPOENVEX
    ACT 1
    VIS 1 0 1
    LANEHEIGHT 0 0
    ARM 0
    DEFSHAPE 1 -1 -1
    PT 0.000000000000 120.0000000000 1
    PT 4.000000000000 110.0000000000 1 524291 0 1
    PT 13.818181818182 110.0000000000 1 524292 0 1
    PT 22.545454545455 110.0000000000 1 524293 0 1
    PT 33.454545454545 110.0000000000 1 524294 0 1
    PT 46.545454545455 110.0000000000 1 524295 0 1
    PT 61.818181818182 110.0000000000 1 524296 0 1
    PT 79.272727272727 165.0000000000 1 524294 0 1
    PT 92.363636363636 165.0000000000 1 524292 0 1
    PT 98.181818181818 165.0000000000 1 524293 0 1
    PT 105.454545454545 165.0000000000 1 524294 0 1
    PT 114.181818181818 165.0000000000 1 524295 0 1
    PT 124.363636363636 165.0000000000 1 524292 0 1
  >
  <PROJBAY
  >
  <TRACK {34C78133-DB76-46EC-AD47-B6E4D116B987}
    NAME "clipping. - Story 2"
    PEAKCOL 16576
    BEAT -1
    AUTOMODE 0
    VOLPAN 1 0 -1 -1 1
    MUTESOLO 0 0 0
    IPHASE 0
    ISBUS 0 0
    BUSCOMP 0 0
    SHOWINMIX 1 0.6667 0.5 1 0.5 0 0 0
    FREEMODE 0
    SEL 0
    REC 0 0 0 0 0 0 0
    VU 2
    TRACKHEIGHT 0 0
    INQ 0 0 0 0.5 100 0 0 100
    NCHAN 2
    FX 1
    TRACKID {34C78133-DB76-46EC-AD47-B6E4D116B987}
    PERF 0
    MIDIOUT -1
    MAINSEND 1 0
    <ITEM
      POSITION 3.9296598986125
      SNAPOFFS 0
      LENGTH 134.11369614512472
      LOOP 0
      ALLTAKES 0
      FADEIN 1 0 0 1 0 0
      FADEOUT 1 0 0 1 0 0
      MUTE 0
      SEL 0
      IGUID {807741C0-0719-4207-9CCA-CBFAF7871B26}
      IID 18
      NAME "clipping. - Story 2.mp3"
      VOLPAN 1 0 1 -1
      SOFFS 0
      PLAYRATE 1 1 0 -1 0 0.0025
      CHANMODE 0
      GUID {CB9D3219-DE56-471E-B504-0263767A94B6}
      <SOURCE MP3
        FILE "clipping. - Story 2.mp3" 1
      >
    >
  >
  <TRACK {8F33A645-3DF2-48FA-99BC-10992A4F8042}
    NAME "PART DRUMS"
    PEAKCOL 16842751
    BEAT -1
    AUTOMODE 0
    VOLPAN 1 0 -1 -1 1
    MUTESOLO 0 0 0
    IPHASE 0
    ISBUS 1 1
    BUSCOMP 1 0
    SHOWINMIX 1 0.6667 0.5 1 0.5 0 0 0
    FREEMODE 0
    SEL 0
    REC 0 4096 1 7 0 0 0
    TRACKHEIGHT 0 0
    INQ 0 0 0 0.5 100 0 0 100
    NCHAN 2
    FX 1
    TRACKID {8F33A645-3DF2-48FA-99BC-10992A4F8042}
    PERF 0
    MIDIOUT -1
    <MIDINOTENAMES
      0 24 "KICK RF" 0 24
      0 25 "HI-HAT OPEN" 0 25
      0 26 "SNARE HARD LH" 0 26
      0 27 "SNARE HARD RH" 0 27
      0 28 "SNARE SOFT LH" 0 28
      0 29 "SNARE SOFT RH" 0 29
      0 30 "HI-HAT LH" 0 30
      0 31 "HI-HAT RH" 0 31
      0 32 "PERCUSSION RH" 0 32
      0 34 "CRASH1 HARD LH" 0 34
      0 35 "CRASH1 SOFT LH" 0 35
      0 36 "CRASH1 HARD RH" 0 36
      0 37 "CRASH1 SOFT RH" 0 37
      0 38 "CRASH2 HARD RH" 0 38
      0 39 "CRASH2 SOFT RH" 0 39
      0 40 "CRASH1 CHOKE" 0 40
      0 41 "CRASH2 CHOKE" 0 41
      0 42 "RIDE CYM RH" 0 42
      0 43 "RIDE CYM LH" 0 43
      0 44 "CRASH2 HARD LH" 0 44
      0 45 "CRASH2 SOFT LH" 0 45
      0 46 "TOM1 LH" 0 46
      0 47 "TOM1 RH" 0 47
      0 48 "TOM2 LH" 0 48
      0 49 "TOM2 RH" 0 49
      0 50 "FLOOR TOM LH" 0 50
      0 51 "FLOOR TOM RH" 0 51
      0 52 "--DRUM ANIMATION--" 0 52
      0 56 ---- 0 56
      0 60 "EASY Kick" 0 60
      0 61 "EASY Red" 0 61
      0 62 "EASY Yellow" 0 62
      0 63 "EASY Blue" 0 63
      0 64 "EASY Green" 0 64
      0 68 ---- 0 68
      0 72 "MEDIUM Kick" 0 72
      0 73 "MEDIUM Red" 0 73
      0 74 "MEDIUM Yellow" 0 74
      0 75 "MEDIUM Blue" 0 75
      0 76 "MEDIUM Green" 0 76
      0 80 ---- 0 80
      0 84 "HARD Kick" 0 84
      0 85 "HARD Red" 0 85
      0 86 "HARD Yellow" 0 86
      0 87 "HARD Blue" 0 87
      0 88 "HARD Green" 0 88
      0 92 ---- 0 92
      0 96 "EXPERT Kick" 0 96
      0 97 "EXPERT Red" 0 97
      0 98 "EXPERT Yellow" 0 98
      0 99 "EXPERT Blue" 0 99
      0 100 "EXPERT Green" 0 100
      0 101 " " 0 101
      0 102 ---- 0 102
      0 103 "Solo Marker" 0 103
      0 108 ---- 0 108
      0 110 "PRO Yellow Tom" 0 110
      0 111 "PRO Blue Tom" 0 111
      0 112 "PRO Green Tom" 0 112
      0 114 ---- 0 114
      0 116 OVERDRIVE 0 116
      0 118 ---- 0 118
      0 120 "DRUM FILL (use all 5)" 0 120
      0 121 "DRUM FILL" 0 121
      0 122 "DRUM FILL" 0 122
      0 123 "DRUM FILL" 0 123
      0 124 "DRUM FILL" 0 124
      0 125 ---- 0 125
      0 126 "Roll Marker 1-Lane" 0 126
      0 127 "Roll Marker 2-Lane / Cym" 0 127
    >
    MAINSEND 1 0
    <FXCHAIN
      WNDRECT 1084 59 834 527
      SHOW 0
      LASTSEL 1
      DOCKED 0
      BYPASS 1 0 0
      <VST "VSTi: ReaSynth (Cockos)" reasynth.dll 0 "" 1919251321
        eXNlcu9e7f4AAAAAAgAAAAEAAAAAAAAAAgAAAAAAAAA8AAAAAAAAAAAAAAA=
        776t3g3wrd4AAAAAAAAAAAAAAAAAAAAAObRIPn3L2z61tLE5AAAAALbz/T5VpCs6AAAAAAAAAAAAAIA/
        AAAAAAAA
      >
      FLOATPOS 0 0 0 0
      FXID {58F55556-9407-4062-A048-6AFCC0B53535}
      WAK 0
      BYPASS 0 0 0
      <VST "VSTi: RBN Preview (RBN)" rbprev_vst.dll 0 "" 1919053942
        dnBicu5e7f4AAAAAAgAAAAEAAAAAAAAAAgAAAAAAAAAEAAAAAQAAAAAAAAA=
        AwGqAA==
        AAAAAAAA
      >
      FLOATPOS 32 32 659 497
      FXID {D7126437-AB1E-4109-A0FA-F2D5D0AC68DC}
      WAK 0
    >
    <ITEM
      POSITION 0
      SNAPOFFS 0
      LENGTH 288.72727272732277
      LOOP 0
      ALLTAKES 0
      FADEIN 1 0 0 1 0 0
      FADEOUT 1 0 0 1 0 0
      MUTE 0
      COLOR 19150555 R
      SEL 0
      IGUID {9FF11F36-E94F-4396-9C0E-8449C916EC21}
      IID 1
      NAME "PART DRUMS"
      VOLPAN 1 0 1 -1
      SOFFS 0 0
      PLAYRATE 1 1 0 -65536 0 0.0025
      CHANMODE 0
      GUID {70A79ADF-E70C-430A-913F-E16D0CC85517}
      <SOURCE MIDI
        HASDATA 1 480 QN
        POOLEDEVTS {F02BC819-B36E-4AC9-967F-76BBDBEC284D}
        <X 0 0 0 0 3 "PART DRUMS"
          /wNQQVJUIERSVU1T
        >
        E 6720 90 60 60
        E 0 90 61 60
        E 120 80 60 00
        E 0 80 61 00
        E 600 90 60 60
        E 0 90 61 60
        E 120 80 60 00
        E 0 80 61 00
        E 600 90 60 60
        E 0 90 61 60
        E 120 80 60 00
        E 0 80 61 00
        E 600 90 60 60
        E 0 90 61 60
        E 120 80 60 00
        E 0 80 61 00
        E 360 90 60 60
        E 120 80 60 00
        E 120 90 60 60
        E 0 90 61 60
        E 120 80 60 00
        E 0 80 61 00
        E 600 90 60 60
        E 0 90 61 60
        E 120 80 60 00
        E 0 80 61 00
        E 600 90 60 60
        E 0 90 61 60
        E 120 80 60 00
        E 0 80 61 00
        E 600 90 60 60
        E 0 90 61 60
        E 120 80 60 00
        E 0 80 61 00
        E 360 90 60 60
        E 120 80 60 00
        E 120 90 60 60
        E 0 90 61 60
        E 120 80 60 00
        E 0 80 61 00
        E 600 90 60 60
        E 120 80 60 00
        E 120 90 60 60
        E 0 90 61 60
        E 120 80 60 00
        E 0 80 61 00
        E 600 90 60 60
        E 120 80 60 00
        E 120 90 60 60
        E 0 90 61 60
        E 120 80 60 00
        E 0 80 61 00
        E 600 90 60 60
        E 120 80 60 00
        E 120 90 60 60
        E 0 90 61 60
        E 120 80 60 00
        E 0 80 61 00
        E 840 90 60 60
        E 0 90 61 60
        E 120 80 60 00
        E 0 80 61 00
        E 600 90 60 60
        E 120 80 60 00
        E 120 90 60 60
        E 0 90 61 60
        E 120 80 60 00
        E 0 80 61 00
        E 600 90 60 60
        E 120 80 60 00
        E 120 90 60 60
        E 0 90 61 60
        E 120 80 60 00
        E 0 80 61 00
        E 600 90 60 60
        E 120 80 60 00
        E 120 90 60 60
        E 0 90 61 60
        E 120 80 60 00
        E 0 80 61 00
        E 360 90 60 60
        E 120 80 60 00
        E 360 90 64 60
        E 0 90 60 60
        E 0 90 61 60
        E 120 80 64 00
        E 0 80 60 00
        E 0 80 61 00
        E 360 90 61 60
        E 120 80 61 00
        E 120 90 60 60
        E 120 80 60 00
        E 360 90 60 60
        E 0 90 61 60
        E 120 80 60 00
        E 0 80 61 00
        E 360 90 61 60
        E 120 80 61 00
        E 120 90 60 60
        E 120 80 60 00
        E 120 90 62 60
        E 0 90 6e 60
        E 120 80 62 00
        E 0 80 6e 00
        E 120 90 60 60
        E 0 90 61 60
        E 120 80 60 00
        E 0 80 61 00
        E 0 90 63 60
        E 0 90 6f 60
        E 120 80 63 00
        E 0 80 6f 00
        E 0 90 63 60
        E 0 90 6f 60
        E 120 80 63 00
        E 0 80 6f 00
        E 0 90 63 60
        E 0 90 6f 60
        E 120 80 63 00
        E 0 80 6f 00
        E 0 90 61 60
        E 120 80 61 00
        E 40 90 62 60
        E 0 90 6e 60
        E 80 80 62 00
        E 0 80 6e 00
        E 0 90 60 60
        E 80 90 62 60
        E 0 90 6e 60
        E 40 80 60 00
        E 40 80 62 00
        E 0 80 6e 00
        E 80 90 62 60
        E 0 90 6e 60
        E 80 80 62 00
        E 0 80 6e 00
        E 160 90 60 60
        E 0 90 61 60
        E 120 80 60 00
        E 0 80 61 00
        E 120 90 60 60
        E 120 80 60 00
        E 120 90 61 60
        E 120 80 61 00
        E 0 90 62 60
        E 0 90 6e 60
        E 120 80 62 00
        E 0 80 6e 00
        E 0 90 60 60
        E 120 80 60 00
        E 0 90 62 60
        E 0 90 6e 60
        E 120 80 62 00
        E 0 80 6e 00
        E 0 90 61 60
        E 120 80 61 00
        E 0 90 62 60
        E 0 90 6e 60
        E 120 80 62 00
        E 0 80 6e 00
        E 0 90 60 60
        E 0 90 61 60
        E 120 80 60 00
        E 0 80 61 00
        E 120 90 63 60
        E 0 90 6f 60
        E 120 80 63 00
        E 0 80 6f 00
        E 0 90 63 60
        E 0 90 6f 60
        E 120 80 63 00
        E 0 80 6f 00
        E 0 90 61 60
        E 120 80 61 00
        E 0 90 62 60
        E 0 90 6e 60
        E 120 80 62 00
        E 0 80 6e 00
        E 0 90 60 60
        E 120 80 60 00
        E 0 90 62 60
        E 0 90 6e 60
        E 120 80 62 00
        E 0 80 6e 00
        E 0 90 62 60
        E 0 90 6e 60
        E 120 80 62 00
        E 0 80 6e 00
        E 0 90 62 60
        E 0 90 6e 60
        E 120 80 62 00
        E 0 80 6e 00
        E 0 90 60 60
        E 0 90 61 60
        E 120 80 60 00
        E 0 80 61 00
        E 360 90 61 60
        E 120 80 61 00
        E 0 90 63 60
        E 0 90 6f 60
        E 120 80 63 00
        E 0 80 6f 00
        E 0 90 60 60
        E 0 90 64 60
        E 0 90 70 60
        E 120 80 60 00
        E 0 80 64 00
        E 0 80 70 00
        E 120 90 70 60
        E 0 90 64 60
        E 120 80 70 00
        E 0 80 64 00
        E 120 90 60 60
        E 0 90 61 60
        E 120 80 60 00
        E 0 80 61 00
        E 360 90 61 60
        E 120 80 61 00
        E 40 90 62 60
        E 0 90 6e 60
        E 80 80 62 00
        E 0 80 6e 00
        E 0 90 60 60
        E 80 90 62 60
        E 0 90 6e 60
        E 40 80 60 00
        E 40 80 62 00
        E 0 80 6e 00
        E 80 90 62 60
        E 0 90 6e 60
        E 80 80 62 00
        E 0 80 6e 00
        E 160 90 60 60
        E 0 90 61 60
        E 120 80 60 00
        E 0 80 61 00
        E 120 90 60 60
        E 120 80 60 00
        E 120 90 61 60
        E 120 80 61 00
        E 0 90 62 60
        E 0 90 6e 60
        E 120 80 62 00
        E 0 80 6e 00
        E 0 90 60 60
        E 120 80 60 00
        E 0 90 62 60
        E 0 90 6e 60
        E 120 80 62 00
        E 0 80 6e 00
        E 0 90 61 60
        E 120 80 61 00
        E 0 90 62 60
        E 0 90 6e 60
        E 120 80 62 00
        E 0 80 6e 00
        E 0 90 60 60
        E 0 90 64 60
        E 120 80 60 00
        E 0 80 64 00
        E 240 90 60 60
        E 120 80 60 00
        E 240 90 60 60
        E 120 80 60 00
        E 360 90 61 60
        E 120 80 61 00
        E 120 90 60 60
        E 0 90 62 60
        E 0 90 6e 60
        E 0 90 61 60
        E 120 80 60 00
        E 0 80 62 00
        E 0 80 6e 00
        E 0 80 61 00
        E 120 90 62 60
        E 0 90 6e 60
        E 120 80 62 00
        E 0 80 6e 00
        E 0 90 60 60
        E 120 80 60 00
        E 0 90 62 60
        E 0 90 6e 60
        E 120 80 62 00
        E 0 80 6e 00
        E 120 90 60 60
        E 120 80 60 00
        E 360 90 61 60
        E 120 80 61 00
        E 120 90 60 60
        E 0 90 61 60
        E 120 80 60 00
        E 0 80 61 00
        E 240 90 60 60
        E 120 80 60 00
        E 240 90 60 60
        E 120 80 60 00
        E 360 90 61 60
        E 120 80 61 00
        E 120 90 60 60
        E 0 90 62 60
        E 0 90 6e 60
        E 0 90 61 60
        E 120 80 60 00
        E 0 80 62 00
        E 0 80 6e 00
        E 0 80 61 00
        E 120 90 62 60
        E 0 90 6e 60
        E 120 80 62 00
        E 0 80 6e 00
        E 0 90 60 60
        E 120 80 60 00
        E 0 90 62 60
        E 0 90 6e 60
        E 0 90 61 60
        E 120 80 62 00
        E 0 80 6e 00
        E 0 80 61 00
        E 0 90 63 60
        E 0 90 6f 60
        E 120 80 63 00
        E 0 80 6f 00
        E 0 90 60 60
        E 0 90 6e 60
        E 0 90 62 60
        E 120 80 60 00
        E 0 80 6e 00
        E 0 80 62 00
        E 0 90 6f 60
        E 0 90 63 60
        E 120 80 6f 00
        E 0 80 63 00
        E 0 90 63 60
        E 0 90 6f 60
        E 120 80 63 00
        E 0 80 6f 00
        E 0 90 63 60
        E 0 90 6f 60
        E 120 80 63 00
        E 0 80 6f 00
        E 0 90 61 60
        E 120 80 61 00
        E 120 90 60 60
        E 0 90 61 60
        E 120 80 60 00
        E 0 80 61 00
        E 120 90 62 60
        E 0 90 6e 60
        E 120 80 62 00
        E 0 80 6e 00
        E 0 90 60 60
        E 120 80 60 00
        E 0 90 62 60
        E 0 90 6e 60
        E 120 80 62 00
        E 0 80 6e 00
        E 120 90 60 60
        E 120 80 60 00
        E 360 90 61 60
        E 120 80 61 00
        E 120 90 60 60
        E 0 90 61 60
        E 120 80 60 00
        E 0 80 61 00
        E 240 90 60 60
        E 120 80 60 00
        E 240 90 60 60
        E 120 80 60 00
        E 360 90 61 60
        E 120 80 61 00
        E 120 90 60 60
        E 0 90 61 60
        E 120 80 60 00
        E 0 80 61 00
        E 120 90 62 60
        E 0 90 6e 60
        E 120 80 62 00
        E 0 80 6e 00
        E 0 90 60 60
        E 120 80 60 00
        E 0 90 62 60
        E 0 90 6e 60
        E 120 80 62 00
        E 0 80 6e 00
        E 120 90 60 60
        E 120 80 60 00
        E 360 90 61 60
        E 120 80 61 00
        E 0 90 63 60
        E 0 90 6f 60
        E 120 80 63 00
        E 0 80 6f 00
        E 0 90 60 60
        E 0 90 61 60
        E 0 90 63 60
        E 0 90 6f 60
        E 120 80 60 00
        E 0 80 61 00
        E 0 80 63 00
        E 0 80 6f 00
        E 120 90 64 60
        E 0 90 70 60
        E 120 80 64 00
        E 0 80 70 00
        E 0 90 60 60
        E 120 80 60 00
        E 0 90 70 60
        E 0 90 64 60
        E 120 80 70 00
        E 0 80 64 00
        E 0 90 60 60
        E 120 80 60 00
        E 0 90 60 60
        E 120 80 60 00
        E 360 90 61 60
        E 120 80 61 00
        E 0 90 62 60
        E 0 90 6e 60
        E 120 80 62 00
        E 0 80 6e 00
        E 0 90 64 60
        E 0 90 61 60
        E 120 80 64 00
        E 0 80 61 00
        E 1560 90 61 60
        E 120 80 61 00
        E 1560 90 61 60
        E 120 80 61 00
        E 1560 90 61 60
        E 120 80 61 00
        E 1560 90 61 60
        E 120 80 61 00
        E 1560 90 61 60
        E 120 80 61 00
        E 1560 90 61 60
        E 120 80 61 00
        E 1560 90 61 60
        E 120 80 61 00
        E 1560 90 64 60
        E 0 90 60 60
        E 120 80 64 00
        E 0 80 60 00
        E 360 90 61 60
        E 120 80 61 00
        E 120 90 60 60
        E 120 80 60 00
        E 120 90 60 60
        E 120 80 60 00
        E 360 90 61 60
        E 120 80 61 00
        E 360 90 60 60
        E 120 80 60 00
        E 120 90 60 60
        E 120 80 60 00
        E 120 90 61 60
        E 120 80 61 00
        E 0 90 63 60
        E 0 90 6f 60
        E 120 80 63 00
        E 0 80 6f 00
        E 0 90 62 60
        E 0 90 6e 60
        E 120 80 62 00
        E 0 80 6e 00
        E 0 90 63 60
        E 0 90 6f 60
        E 120 80 63 00
        E 0 80 6f 00
        E 0 90 62 60
        E 0 90 6e 60
        E 120 80 62 00
        E 0 80 6e 00
        E 120 90 63 60
        E 0 90 6f 60
        E 0 90 60 60
        E 120 80 63 00
        E 0 80 6f 00
        E 0 80 60 00
        E 120 90 61 60
        E 60 90 62 60
        E 0 90 6e 60
        E 60 80 61 00
        E 0 80 62 00
        E 0 80 6e 00
        E 0 90 62 60
        E 0 90 6e 60
        E 60 80 62 00
        E 0 80 6e 00
        E 0 90 62 60
        E 0 90 6e 60
        E 60 80 62 00
        E 0 80 6e 00
        E 0 90 62 60
        E 0 90 6e 60
        E 60 80 62 00
        E 0 80 6e 00
        E 0 90 62 60
        E 0 90 6e 60
        E 60 80 62 00
        E 0 80 6e 00
        E 0 90 62 60
        E 0 90 6e 60
        E 60 80 62 00
        E 0 80 6e 00
        E 0 90 62 60
        E 0 90 6e 60
        E 60 80 62 00
        E 0 80 6e 00
        E 0 90 60 60
        E 120 80 60 00
        E 360 90 61 60
        E 120 80 61 00
        E 0 90 63 60
        E 0 90 6f 60
        E 120 80 63 00
        E 0 80 6f 00
        E 0 90 62 60
        E 0 90 6e 60
        E 120 80 62 00
        E 0 80 6e 00
        E 0 90 63 60
        E 0 90 6f 60
        E 120 80 63 00
        E 0 80 6f 00
        E 0 90 62 60
        E 0 90 6e 60
        E 0 90 60 60
        E 120 80 62 00
        E 0 80 6e 00
        E 0 80 60 00
        E 120 90 63 60
        E 0 90 6f 60
        E 0 90 60 60
        E 120 80 63 00
        E 0 80 6f 00
        E 0 80 60 00
        E 120 90 61 60
        E 60 90 62 60
        E 0 90 6e 60
        E 60 80 61 00
        E 0 80 62 00
        E 0 80 6e 00
        E 0 90 62 60
        E 0 90 6e 60
        E 60 80 62 00
        E 0 80 6e 00
        E 0 90 62 60
        E 0 90 6e 60
        E 60 80 62 00
        E 0 80 6e 00
        E 0 90 62 60
        E 0 90 6e 60
        E 60 80 62 00
        E 0 80 6e 00
        E 0 90 62 60
        E 0 90 6e 60
        E 60 80 62 00
        E 0 80 6e 00
        E 0 90 62 60
        E 0 90 6e 60
        E 60 80 62 00
        E 0 80 6e 00
        E 0 90 62 60
        E 0 90 6e 60
        E 60 80 62 00
        E 0 80 6e 00
        E 0 90 60 60
        E 120 80 60 00
        E 360 90 61 60
        E 120 80 61 00
        E 0 90 63 60
        E 0 90 6f 60
        E 120 80 63 00
        E 0 80 6f 00
        E 0 90 62 60
        E 0 90 6e 60
        E 120 80 62 00
        E 0 80 6e 00
        E 0 90 63 60
        E 0 90 6f 60
        E 120 80 63 00
        E 0 80 6f 00
        E 0 90 62 60
        E 0 90 6e 60
        E 120 80 62 00
        E 0 80 6e 00
        E 120 90 63 60
        E 0 90 6f 60
        E 0 90 60 60
        E 120 80 63 00
        E 0 80 6f 00
        E 0 80 60 00
        E 120 90 61 60
        E 60 90 62 60
        E 0 90 6e 60
        E 60 80 61 00
        E 0 80 62 00
        E 0 80 6e 00
        E 0 90 62 60
        E 0 90 6e 60
        E 60 80 62 00
        E 0 80 6e 00
        E 0 90 62 60
        E 0 90 6e 60
        E 60 80 62 00
        E 0 80 6e 00
        E 0 90 62 60
        E 0 90 6e 60
        E 60 80 62 00
        E 0 80 6e 00
        E 0 90 62 60
        E 0 90 6e 60
        E 60 80 62 00
        E 0 80 6e 00
        E 0 90 62 60
        E 0 90 6e 60
        E 60 80 62 00
        E 0 80 6e 00
        E 0 90 62 60
        E 0 90 6e 60
        E 60 80 62 00
        E 0 80 6e 00
        E 0 90 60 60
        E 120 80 60 00
        E 840 90 60 60
        E 120 80 60 00
        E 120 90 60 60
        E 120 80 60 00
        E 120 90 62 60
        E 0 90 6e 60
        E 60 80 62 00
        E 0 80 6e 00
        E 0 90 62 60
        E 0 90 6e 60
        E 60 80 62 00
        E 0 80 6e 00
        E 0 90 62 60
        E 0 90 6e 60
        E 60 80 62 00
        E 0 80 6e 00
        E 0 90 62 60
        E 0 90 6e 60
        E 60 80 62 00
        E 0 80 6e 00
        E 0 90 62 60
        E 0 90 6e 60
        E 60 80 62 00
        E 0 80 6e 00
        E 0 90 62 60
        E 0 90 6e 60
        E 60 80 62 00
        E 0 80 6e 00
        E 0 90 62 60
        E 0 90 6e 60
        E 60 80 62 00
        E 0 80 6e 00
        E 0 90 62 60
        E 0 90 6e 60
        E 60 80 62 00
        E 0 80 6e 00
        E 0 90 60 60
        E 0 90 61 60
        E 60 80 60 00
        E 0 80 61 00
        E 1140 90 60 60
        E 120 80 60 00
        E 360 90 60 60
        E 120 80 60 00
        E 120 90 60 60
        E 120 80 60 00
        E 840 90 60 60
        E 120 80 60 00
        E 120 90 60 60
        E 120 80 60 00
        E 360 90 60 60
        E 120 80 60 00
        E 120 90 60 60
        E 120 80 60 00
        E 1080 90 60 60
        E 120 80 60 00
        E 120 90 61 60
        E 80 80 61 00
        E 80 90 61 60
        E 80 80 61 00
        E 80 90 61 60
        E 80 80 61 00
        E 80 90 64 60
        E 0 90 60 60
        E 80 80 64 00
        E 0 80 60 00
        E 640 90 61 60
        E 120 80 61 00
        E 120 90 61 60
        E 120 80 61 00
        E 120 90 60 60
        E 120 80 60 00
        E 120 90 60 60
        E 120 80 60 00
        E 600 90 61 60
        E 120 80 61 00
        E 120 90 62 60
        E 0 90 6e 60
        E 120 80 62 00
        E 0 80 6e 00
        E 0 90 62 60
        E 0 90 6e 60
        E 120 80 62 00
        E 0 80 6e 00
        E 0 90 62 60
        E 0 90 6e 60
        E 120 80 62 00
        E 0 80 6e 00
        E 0 90 62 60
        E 0 90 6e 60
        E 120 80 62 00
        E 0 80 6e 00
        E 0 90 60 60
        E 120 80 60 00
        E 600 90 61 60
        E 120 80 61 00
        E 120 90 61 60
        E 120 80 61 00
        E 120 90 61 60
        E 120 80 61 00
        E 120 90 60 60
        E 0 90 61 60
        E 120 80 60 00
        E 0 80 61 00
        E 120 90 61 60
        E 120 80 61 00
        E 120 90 60 60
        E 0 90 61 60
        E 120 80 60 00
        E 0 80 61 00
        E 120 90 61 60
        E 120 80 61 00
        E 120 90 63 60
        E 0 90 6f 60
        E 120 80 63 00
        E 0 80 6f 00
        E 0 90 63 60
        E 0 90 6f 60
        E 120 80 63 00
        E 0 80 6f 00
        E 0 90 63 60
        E 0 90 6f 60
        E 0 90 60 60
        E 120 80 63 00
        E 0 80 6f 00
        E 0 80 60 00
        E 0 90 63 60
        E 0 90 6f 60
        E 120 80 63 00
        E 0 80 6f 00
        E 0 90 60 60
        E 120 80 60 00
        E 600 90 61 60
        E 120 80 61 00
        E 120 90 63 60
        E 0 90 6f 60
        E 120 80 63 00
        E 0 80 6f 00
        E 0 90 62 60
        E 0 90 6e 60
        E 120 80 62 00
        E 0 80 6e 00
        E 0 90 63 60
        E 0 90 6f 60
        E 120 80 63 00
        E 0 80 6f 00
        E 0 90 62 60
        E 0 90 6e 60
        E 120 80 62 00
        E 0 80 6e 00
        E 0 90 60 60
        E 120 80 60 00
        E 120 90 60 60
        E 120 80 60 00
        E 120 90 60 60
        E 120 80 60 00
        E 120 90 61 60
        E 0 90 62 60
        E 0 90 6e 60
        E 120 80 61 00
        E 0 80 62 00
        E 0 80 6e 00
        E 120 90 61 60
        E 120 80 61 00
        E 120 90 60 60
        E 120 80 60 00
        E 120 90 60 60
        E 120 80 60 00
        E 360 90 61 60
        E 120 80 61 00
        E 120 90 61 60
        E 120 80 61 00
        E 0 90 62 60
        E 0 90 6e 60
        E 120 80 62 00
        E 0 80 6e 00
        E 0 90 63 60
        E 0 90 6f 60
        E 120 80 63 00
        E 0 80 6f 00
        E 0 90 62 60
        E 0 90 6e 60
        E 120 80 62 00
        E 0 80 6e 00
        E 0 90 63 60
        E 0 90 6f 60
        E 120 80 63 00
        E 0 80 6f 00
        E 0 90 62 60
        E 0 90 6e 60
        E 120 80 62 00
        E 0 80 6e 00
        E 0 90 60 60
        E 120 80 60 00
        E 360 90 60 60
        E 120 80 60 00
        E 120 90 61 60
        E 120 80 61 00
        E 0 90 6f 60
        E 0 90 63 60
        E 120 80 6f 00
        E 0 80 63 00
        E 0 90 6e 60
        E 0 90 62 60
        E 120 80 6e 00
        E 0 80 62 00
        E 0 90 6f 60
        E 0 90 63 60
        E 120 80 6f 00
        E 0 80 63 00
        E 0 90 6e 60
        E 0 90 62 60
        E 0 90 60 60
        E 120 80 6e 00
        E 0 80 62 00
        E 0 80 60 00
        E 0 90 63 60
        E 0 90 6f 60
        E 120 80 63 00
        E 0 80 6f 00
        E 0 90 60 60
        E 120 80 60 00
        E 600 90 60 60
        E 120 80 60 00
        E 600 90 60 60
        E 120 80 60 00
        E 600 90 60 60
        E 120 80 60 00
        E 360 90 60 60
        E 120 80 60 00
        E 120 90 60 60
        E 120 80 60 00
        E 600 90 60 60
        E 120 80 60 00
        E 600 90 60 60
        E 120 80 60 00
        E 600 90 60 60
        E 120 80 60 00
        E 360 90 60 60
        E 120 80 60 00
        E 120 90 60 60
        E 0 90 64 60
        E 120 80 60 00
        E 0 80 64 00
        E 600 90 60 60
        E 120 80 60 00
        E 120 90 60 60
        E 120 80 60 00
        E 600 90 60 60
        E 120 80 60 00
        E 120 90 60 60
        E 120 80 60 00
        E 600 90 60 60
        E 120 80 60 00
        E 120 90 60 60
        E 120 80 60 00
        E 600 90 60 60
        E 120 80 60 00
        E 120 90 60 60
        E 120 80 60 00
        E 600 90 60 60
        E 120 80 60 00
        E 120 90 60 60
        E 120 80 60 00
        E 600 90 60 60
        E 120 80 60 00
        E 120 90 60 60
        E 120 80 60 00
        E 600 90 60 60
        E 120 80 60 00
        E 120 90 60 60
        E 120 80 60 00
        E 360 90 60 60
        E 120 80 60 00
        E 120 90 61 60
        E 120 80 61 00
        E 120 90 64 60
        E 0 90 60 60
        E 120 80 64 00
        E 0 80 60 00
        E 360 90 62 60
        E 0 90 61 60
        E 120 80 62 00
        E 0 80 61 00
        E 120 90 63 60
        E 0 90 60 60
        E 120 80 63 00
        E 0 80 60 00
        E 120 90 62 60
        E 120 80 62 00
        E 120 90 63 60
        E 0 90 60 60
        E 120 80 63 00
        E 0 80 60 00
        E 120 90 62 60
        E 120 80 62 00
        E 120 90 63 60
        E 0 90 61 60
        E 120 80 63 00
        E 0 80 61 00
        E 120 90 62 60
        E 0 90 60 60
        E 120 80 62 00
        E 0 80 60 00
        E 120 90 63 60
        E 120 80 63 00
        E 120 90 62 60
        E 0 90 60 60
        E 120 80 62 00
        E 0 80 60 00
        E 120 90 63 60
        E 120 80 63 00
        E 120 90 62 60
        E 0 90 61 60
        E 120 80 62 00
        E 0 80 61 00
        E 120 90 63 60
        E 0 90 60 60
        E 120 80 63 00
        E 0 80 60 00
        E 120 90 62 60
        E 120 80 62 00
        E 120 90 63 60
        E 0 90 60 60
        E 120 80 63 00
        E 0 80 60 00
        E 120 90 62 60
        E 0 90 60 60
        E 120 80 62 00
        E 0 80 60 00
        E 120 90 63 60
        E 0 90 61 60
        E 120 80 63 00
        E 0 80 61 00
        E 120 90 62 60
        E 0 90 60 60
        E 120 80 62 00
        E 0 80 60 00
        E 120 90 63 60
        E 0 90 61 60
        E 120 80 63 00
        E 0 80 61 00
        E 120 90 62 60
        E 0 90 60 60
        E 120 80 62 00
        E 0 80 60 00
        E 120 90 63 60
        E 120 80 63 00
        E 120 90 62 60
        E 0 90 61 60
        E 120 80 62 00
        E 0 80 61 00
        E 120 90 63 60
        E 0 90 60 60
        E 120 80 63 00
        E 0 80 60 00
        E 120 90 62 60
        E 120 80 62 00
        E 120 90 63 60
        E 0 90 60 60
        E 120 80 63 00
        E 0 80 60 00
        E 120 90 62 60
        E 120 80 62 00
        E 120 90 63 60
        E 0 90 61 60
        E 120 80 63 00
        E 0 80 61 00
        E 120 90 62 60
        E 0 90 60 60
        E 120 80 62 00
        E 0 80 60 00
        E 120 90 63 60
        E 120 80 63 00
        E 120 90 62 60
        E 0 90 60 60
        E 120 80 62 00
        E 0 80 60 00
        E 120 90 63 60
        E 120 80 63 00
        E 120 90 62 60
        E 0 90 61 60
        E 120 80 62 00
        E 0 80 61 00
        E 120 90 63 60
        E 0 90 60 60
        E 120 80 63 00
        E 0 80 60 00
        E 120 90 62 60
        E 120 80 62 00
        E 120 90 63 60
        E 0 90 60 60
        E 120 80 63 00
        E 0 80 60 00
        E 120 90 62 60
        E 0 90 60 60
        E 120 80 62 00
        E 0 80 60 00
        E 120 90 63 60
        E 0 90 61 60
        E 120 80 63 00
        E 0 80 61 00
        E 120 90 62 60
        E 0 90 60 60
        E 120 80 62 00
        E 0 80 60 00
        E 120 90 63 60
        E 0 90 61 60
        E 120 80 63 00
        E 0 80 61 00
        E 120 90 64 60
        E 0 90 60 60
        E 120 80 64 00
        E 0 80 60 00
        E 120 90 62 60
        E 120 80 62 00
        E 120 90 63 60
        E 0 90 61 60
        E 120 80 63 00
        E 0 80 61 00
        E 120 90 62 60
        E 0 90 60 60
        E 120 80 62 00
        E 0 80 60 00
        E 120 90 63 60
        E 120 80 63 00
        E 120 90 62 60
        E 0 90 61 60
        E 120 80 62 00
        E 0 80 61 00
        E 120 90 63 60
        E 0 90 60 60
        E 120 80 63 00
        E 0 80 60 00
        E 120 90 62 60
        E 0 90 60 60
        E 120 80 62 00
        E 0 80 60 00
        E 120 90 61 60
        E 0 90 63 60
        E 120 80 61 00
        E 0 80 63 00
        E 120 90 62 60
        E 0 90 60 60
        E 120 80 62 00
        E 0 80 60 00
        E 120 90 63 60
        E 120 80 63 00
        E 120 90 62 60
        E 0 90 61 60
        E 120 80 62 00
        E 0 80 61 00
        E 120 90 63 60
        E 0 90 60 60
        E 120 80 63 00
        E 0 80 60 00
        E 120 90 62 60
        E 120 80 62 00
        E 120 90 63 60
        E 0 90 61 60
        E 120 80 63 00
        E 0 80 61 00
        E 120 90 62 60
        E 0 90 60 60
        E 120 80 62 00
        E 0 80 60 00
        E 120 90 63 60
        E 120 80 63 00
        E 120 90 62 60
        E 0 90 61 60
        E 120 80 62 00
        E 0 80 61 00
        E 120 90 63 60
        E 0 90 60 60
        E 120 80 63 00
        E 0 80 60 00
        E 120 90 62 60
        E 120 80 62 00
        E 120 90 63 60
        E 0 90 61 60
        E 120 80 63 00
        E 0 80 61 00
        E 120 90 62 60
        E 0 90 60 60
        E 120 80 62 00
        E 0 80 60 00
        E 120 90 63 60
        E 120 80 63 00
        E 120 90 62 60
        E 0 90 61 60
        E 120 80 62 00
        E 0 80 61 00
        E 120 90 63 60
        E 0 90 60 60
        E 120 80 63 00
        E 0 80 60 00
        E 120 90 62 60
        E 120 80 62 00
        E 120 90 63 60
        E 0 90 61 60
        E 120 80 63 00
        E 0 80 61 00
        E 120 90 62 60
        E 0 90 60 60
        E 120 80 62 00
        E 0 80 60 00
        E 120 90 63 60
        E 120 80 63 00
        E 120 90 62 60
        E 0 90 61 60
        E 120 80 62 00
        E 0 80 61 00
        E 120 90 63 60
        E 0 90 60 60
        E 120 80 63 00
        E 0 80 60 00
        E 120 90 62 60
        E 120 80 62 00
        E 120 90 63 60
        E 0 90 61 60
        E 120 80 63 00
        E 0 80 61 00
        E 120 90 62 60
        E 0 90 60 60
        E 120 80 62 00
        E 0 80 60 00
        E 120 90 63 60
        E 120 80 63 00
        E 120 90 62 60
        E 0 90 61 60
        E 120 80 62 00
        E 0 80 61 00
        E 120 90 63 60
        E 0 90 60 60
        E 120 80 63 00
        E 0 80 60 00
        E 120 90 62 60
        E 120 80 62 00
        E 120 90 63 60
        E 0 90 61 60
        E 120 80 63 00
        E 0 80 61 00
        E 120 90 62 60
        E 0 90 60 60
        E 120 80 62 00
        E 0 80 60 00
        E 120 90 63 60
        E 120 80 63 00
        E 120 90 62 60
        E 0 90 61 60
        E 120 80 62 00
        E 0 80 61 00
        E 120 90 63 60
        E 0 90 60 60
        E 120 80 63 00
        E 0 80 60 00
        E 120 90 62 60
        E 120 80 62 00
        E 120 90 63 60
        E 0 90 61 60
        E 120 80 63 00
        E 0 80 61 00
        E 120 90 62 60
        E 0 90 60 60
        E 120 80 62 00
        E 0 80 60 00
        E 120 90 63 60
        E 120 80 63 00
        E 120 90 62 60
        E 0 90 61 60
        E 120 80 62 00
        E 0 80 61 00
        E 120 90 64 60
        E 120 80 64 00
        E 13320 90 63 60
        E 120 80 63 00
        E 216840 b0 7b 00
        GUID {99C52F88-C54B-4CCD-B038-A5C950AC8E6E}
        IGNTEMPO 0 120 4 4
        SRCCOLOR 272
        VELLANE 132 38 60
        COLORMAP "M:\RGS Documents\ColorMaps\rockband_drums.png"
        TEXTSTRINGFILE "Text Events List.txt"
        CFGEDITVIEW -10857.873598 5.393321 0 12 0 -1 0 0 0 0.5
        KEYSNAP 0
        TRACKSEL 0
        EVTFILTER 0 -1 -1 -1 -1 0 1 0 0 -1 -1 -1 -1 0 -1 0 -1 -1
        CFGEDIT 1 1 0 0 0 1 1 1 1 1 1 0.25 273 170 1647 910 0 2 1 2 0 0 0 0 0 0.5 1 0 1 64
      >
    >
  >
  <TRACK {9993A7FC-A1F2-41CC-BF12-792185C1D512}
    NAME Kick
    PEAKCOL 16576
    BEAT -1
    AUTOMODE 0
    VOLPAN 1 0 -1 -1 1
    MUTESOLO 0 0 0
    IPHASE 0
    ISBUS 0 0
    BUSCOMP 0 0
    SHOWINMIX 1 0.6667 0.5 1 0.5 0 0 0
    FREEMODE 0
    SEL 0
    REC 0 0 0 0 0 0 0
    TRACKHEIGHT 0 0
    INQ 0 0 0 0.5 100 0 0 100
    NCHAN 2
    FX 1
    TRACKID {9993A7FC-A1F2-41CC-BF12-792185C1D512}
    PERF 0
    MIDIOUT -1
    MAINSEND 1 0
  >
  <TRACK {ADF00AE8-7305-4DCF-A763-D68816ED21F9}
    NAME Snare
    PEAKCOL 16576
    BEAT -1
    AUTOMODE 0
    VOLPAN 1 0 -1 -1 1
    MUTESOLO 0 0 0
    IPHASE 0
    ISBUS 0 0
    BUSCOMP 0 0
    SHOWINMIX 1 0.6667 0.5 1 0.5 0 0 0
    FREEMODE 0
    SEL 0
    REC 0 0 0 0 0 0 0
    TRACKHEIGHT 0 0
    INQ 0 0 0 0.5 100 0 0 100
    NCHAN 2
    FX 1
    TRACKID {ADF00AE8-7305-4DCF-A763-D68816ED21F9}
    PERF 0
    MIDIOUT -1
    MAINSEND 1 0
  >
  <TRACK {C1FFFA42-57BC-44EF-AB8D-4BE0A4C3F6A4}
    NAME Toms
    PEAKCOL 16576
    BEAT -1
    AUTOMODE 0
    VOLPAN 1 0 -1 -1 1
    MUTESOLO 0 0 0
    IPHASE 0
    ISBUS 0 0
    BUSCOMP 0 0
    SHOWINMIX 1 0.6667 0.5 1 0.5 0 0 0
    FREEMODE 0
    SEL 0
    REC 0 0 0 0 0 0 0
    TRACKHEIGHT 0 0
    INQ 0 0 0 0.5 100 0 0 100
    NCHAN 2
    FX 1
    TRACKID {C1FFFA42-57BC-44EF-AB8D-4BE0A4C3F6A4}
    PERF 0
    MIDIOUT -1
    MAINSEND 1 0
  >
  <TRACK {FEE9D19A-0BED-4CA9-B817-015B0F195B10}
    NAME Cymbals
    PEAKCOL 16576
    BEAT -1
    AUTOMODE 0
    VOLPAN 1 0 -1 -1 1
    MUTESOLO 0 0 0
    IPHASE 0
    ISBUS 2 -1
    BUSCOMP 0 0
    SHOWINMIX 1 0.6667 0.5 1 0.5 0 0 0
    FREEMODE 0
    SEL 0
    REC 0 0 0 0 0 0 0
    TRACKHEIGHT 0 0
    INQ 0 0 0 0.5 100 0 0 100
    NCHAN 2
    FX 1
    TRACKID {FEE9D19A-0BED-4CA9-B817-015B0F195B10}
    PERF 0
    MIDIOUT -1
    MAINSEND 1 0
  >
  <TRACK {70C3FE4D-3BC3-4146-95C4-8AC455A2D0F5}
    NAME "PART BASS"
    PEAKCOL 16777471
    BEAT -1
    AUTOMODE 0
    VOLPAN 0 0 -1 -1 1
    MUTESOLO 0 0 0
    IPHASE 0
    ISBUS 1 1
    BUSCOMP 1 0
    SHOWINMIX 1 0.6667 0.5 1 0.5 0 0 0
    FREEMODE 0
    SEL 0
    REC 0 4096 1 0 0 0 0
    TRACKHEIGHT 0 0
    INQ 0 0 0 0.5 100 0 0 100
    NCHAN 2
    FX 1
    TRACKID {70C3FE4D-3BC3-4146-95C4-8AC455A2D0F5}
    PERF 0
    MIDIOUT -1
    <MIDINOTENAMES
      0 40 "Left Hand Lowest" 0 40
      0 41 - 0 41
      0 42 - 0 42
      0 43 - 0 43
      0 44 - 0 44
      0 45 - 0 45
      0 46 - 0 46
      0 47 - 0 47
      0 48 - 0 48
      0 49 - 0 49
      0 50 - 0 50
      0 51 - 0 51
      0 52 - 0 52
      0 53 - 0 53
      0 54 - 0 54
      0 55 - 0 55
      0 56 - 0 56
      0 57 - 0 57
      0 58 - 0 58
      0 59 "Left Hand Highest" 0 59
      0 60 "EASY Green" 0 60
      0 61 "EASY Red" 0 61
      0 62 "EASY Yellow" 0 62
      0 63 "EASY Blue" 0 63
      0 64 "EASY Orange" 0 64
      0 68 ---- 0 68
      0 72 "MEDIUM Green" 0 72
      0 73 "MEDIUM Red" 0 73
      0 74 "MEDIUM Yellow" 0 74
      0 75 "MEDIUM Blue" 0 75
      0 76 "MEDIUM Orange" 0 76
      0 80 ---- 0 80
      0 84 "HARD Green" 0 84
      0 85 "HARD Red" 0 85
      0 86 "HARD Yellow" 0 86
      0 87 "HARD Blue" 0 87
      0 88 "HARD Orange" 0 88
      0 89 "Force HOPO On" 0 89
      0 90 "Force HOPO Off" 0 90
      0 91 ---- 0 91
      0 96 "EXPERT Green" 0 96
      0 97 "EXPERT Red" 0 97
      0 98 "EXPERT Yellow" 0 98
      0 99 "EXPERT Blue" 0 99
      0 100 "EXPERT Orange" 0 100
      0 101 "Force HOPO On" 0 101
      0 102 "Force HOPO Off" 0 102
      0 103 "Solo Marker" 0 103
      0 111 ---- 0 111
      0 116 OVERDRIVE 0 116
      0 119 ---- 0 119
      0 120 "BRE (use all 5)" 0 120
      0 121 BRE 0 121
      0 122 BRE 0 122
      0 123 BRE 0 123
      0 124 BRE 0 124
      0 125 ---- 0 125
      0 127 "Trill Marker" 0 127
    >
    MAINSEND 1 0
    <FXCHAIN
      WNDRECT 2 57 834 527
      SHOW 0
      LASTSEL 1
      DOCKED 0
      BYPASS 1 0 0
      <VST "VSTi: ReaSynth (Cockos)" reasynth.dll 0 "" 1919251321
        eXNlcu9e7f4AAAAAAgAAAAEAAAAAAAAAAgAAAAAAAAA8AAAAAAAAAAAAAAA=
        776t3g3wrd4AAAAAAAAAAAAAAAAAAAAAObRIPn3L2z61tLE5AAAAALbz/T5VpCs6AAAAAAAAAAAAAIA/
        AAAAAAAA
      >
      FLOATPOS 0 0 0 0
      FXID {D4EC3C58-478E-4D1F-A0FC-2252BD344989}
      WAK 0
      BYPASS 0 0 0
      <VST "VSTi: RBN Preview (RBN)" rbprev_vst.dll 0 "" 1919053942
        dnBicu5e7f4AAAAAAgAAAAEAAAAAAAAAAgAAAAAAAAAEAAAAAQAAAAAAAAA=
        AwCqAA==
        AAAAAAAA
      >
      FLOATPOS 32 32 659 497
      FXID {72D22271-4F4F-4081-90C4-66415E7AEC47}
      WAK 0
    >
    <ITEM
      POSITION 0
      SNAPOFFS 0
      LENGTH 288.72727272732277
      LOOP 0
      ALLTAKES 0
      FADEIN 1 0 0 1 0 0
      FADEOUT 1 0 0 1 0 0
      MUTE 0
      SEL 0
      IGUID {A1B24BBF-93B7-476C-BC6D-33F5621C633F}
      IID 2
      NAME "PART BASS"
      VOLPAN 1 0 1 -1
      SOFFS 0 0
      PLAYRATE 1 1 0 -65536 0 0.0025
      CHANMODE 0
      GUID {344A7487-35C3-41F9-8B1E-12A4F3D7F336}
      <SOURCE MIDI
        HASDATA 1 480 QN
        POOLEDEVTS {A7D937BC-A624-40CD-B787-12392BD897F8}
        <X 0 0 0 0 3 "PART BASS"
          /wNQQVJUIEJBU1M=
        >
        E 3840 90 60 60
        E 120 80 60 00
        E 120 90 61 60
        E 120 80 61 00
        E 120 90 62 60
        E 120 80 62 00
        E 120 90 60 60
        E 120 80 60 00
        E 120 90 61 60
        E 120 80 61 00
        E 120 90 62 60
        E 120 80 62 00
        E 120 90 60 60
        E 120 80 60 00
        E 120 90 61 60
        E 120 80 61 00
        E 120 90 62 60
        E 120 80 62 00
        E 120 90 60 60
        E 120 80 60 00
        E 120 90 61 60
        E 120 80 61 00
        E 120 90 62 60
        E 120 80 62 00
        E 120 90 60 60
        E 120 80 60 00
        E 120 90 61 60
        E 120 80 61 00
        E 120 90 62 60
        E 120 80 62 00
        E 120 90 60 60
        E 120 80 60 00
        E 120 90 61 60
        E 120 80 61 00
        E 120 90 62 60
        E 120 80 62 00
        E 120 90 60 60
        E 120 80 60 00
        E 120 90 61 60
        E 120 80 61 00
        E 120 90 62 60
        E 120 80 62 00
        E 120 90 60 60
        E 120 80 60 00
        E 120 90 61 60
        E 120 80 61 00
        E 120 90 62 60
        E 120 80 62 00
        E 120 90 60 60
        E 120 80 60 00
        E 120 90 61 60
        E 120 80 61 00
        E 120 90 62 60
        E 120 80 62 00
        E 120 90 60 60
        E 120 80 60 00
        E 120 90 61 60
        E 120 80 61 00
        E 120 90 62 60
        E 120 80 62 00
        E 120 90 60 60
        E 120 80 60 00
        E 120 90 61 60
        E 120 80 61 00
        E 120 90 62 60
        E 120 80 62 00
        E 120 90 60 60
        E 120 80 60 00
        E 120 90 61 60
        E 120 80 61 00
        E 120 90 62 60
        E 120 80 62 00
        E 120 90 60 60
        E 120 80 60 00
        E 120 90 61 60
        E 120 80 61 00
        E 120 90 62 60
        E 120 80 62 00
        E 120 90 63 60
        E 120 80 63 00
        E 120 90 60 60
        E 120 80 60 00
        E 120 90 61 60
        E 120 80 61 00
        E 120 90 62 60
        E 120 80 62 00
        E 120 90 63 60
        E 120 80 63 00
        E 120 90 60 60
        E 120 80 60 00
        E 120 90 61 60
        E 120 80 61 00
        E 120 90 62 60
        E 120 80 62 00
        E 120 90 63 60
        E 120 80 63 00
        E 120 90 60 60
        E 120 80 60 00
        E 120 90 61 60
        E 120 80 61 00
        E 120 90 62 60
        E 120 80 62 00
        E 120 90 63 60
        E 120 80 63 00
        E 120 90 60 60
        E 120 80 60 00
        E 120 90 61 60
        E 120 80 61 00
        E 120 90 62 60
        E 120 80 62 00
        E 120 90 63 60
        E 120 80 63 00
        E 120 90 60 60
        E 120 80 60 00
        E 120 90 61 60
        E 120 80 61 00
        E 120 90 62 60
        E 120 80 62 00
        E 120 90 63 60
        E 120 80 63 00
        E 120 90 60 60
        E 120 80 60 00
        E 120 90 61 60
        E 120 80 61 00
        E 120 90 62 60
        E 120 80 62 00
        E 120 90 63 60
        E 120 80 63 00
        E 120 90 60 60
        E 120 80 60 00
        E 120 90 61 60
        E 120 80 61 00
        E 120 90 62 60
        E 120 80 62 00
        E 120 90 63 60
        E 120 80 63 00
        E 120 90 60 60
        E 120 80 60 00
        E 120 90 61 60
        E 120 80 61 00
        E 120 90 62 60
        E 120 80 62 00
        E 120 90 63 60
        E 120 80 63 00
        E 120 90 64 60
        E 120 80 64 00
        E 120 90 60 60
        E 120 80 60 00
        E 120 90 61 60
        E 120 80 61 00
        E 120 90 62 60
        E 120 80 62 00
        E 120 90 63 60
        E 120 80 63 00
        E 120 90 64 60
        E 120 80 64 00
        E 120 90 60 60
        E 120 80 60 00
        E 120 90 61 60
        E 120 80 61 00
        E 120 90 62 60
        E 120 80 62 00
        E 120 90 63 60
        E 120 80 63 00
        E 120 90 64 60
        E 120 80 64 00
        E 120 90 60 60
        E 120 80 60 00
        E 120 90 61 60
        E 120 80 61 00
        E 120 90 62 60
        E 120 80 62 00
        E 120 90 63 60
        E 120 80 63 00
        E 120 90 64 60
        E 120 80 64 00
        E 120 90 60 60
        E 120 80 60 00
        E 120 90 61 60
        E 120 80 61 00
        E 120 90 62 60
        E 120 80 62 00
        E 120 90 63 60
        E 120 80 63 00
        E 120 90 64 60
        E 120 80 64 00
        E 120 90 60 60
        E 120 80 60 00
        E 120 90 61 60
        E 120 80 61 00
        E 120 90 62 60
        E 120 80 62 00
        E 120 90 63 60
        E 120 80 63 00
        E 120 90 64 60
        E 120 80 64 00
        E 120 90 60 60
        E 120 80 60 00
        E 120 90 61 60
        E 120 80 61 00
        E 120 90 62 60
        E 120 80 62 00
        E 120 90 63 60
        E 120 80 63 00
        E 120 90 64 60
        E 120 80 64 00
        E 120 90 60 60
        E 120 80 60 00
        E 120 90 61 60
        E 120 80 61 00
        E 120 90 62 60
        E 120 80 62 00
        E 120 90 63 60
        E 120 80 63 00
        E 120 90 64 60
        E 120 80 64 00
        E 120 90 60 60
        E 240 80 60 00
        E 0 90 61 60
        E 240 80 61 00
        E 0 90 60 60
        E 240 80 60 00
        E 0 90 62 60
        E 240 80 62 00
        E 0 90 63 60
        E 240 80 63 00
        E 0 90 64 60
        E 240 80 64 00
        E 0 90 60 60
        E 240 80 60 00
        E 0 90 61 60
        E 240 80 61 00
        E 0 90 60 60
        E 240 80 60 00
        E 0 90 62 60
        E 240 80 62 00
        E 0 90 63 60
        E 240 80 63 00
        E 0 90 64 60
        E 240 80 64 00
        E 0 90 60 60
        E 240 80 60 00
        E 0 90 61 60
        E 240 80 61 00
        E 0 90 60 60
        E 240 80 60 00
        E 0 90 62 60
        E 240 80 62 00
        E 0 90 63 60
        E 240 80 63 00
        E 0 90 64 60
        E 240 80 64 00
        E 0 90 60 60
        E 240 80 60 00
        E 0 90 61 60
        E 240 80 61 00
        E 0 90 60 60
        E 240 80 60 00
        E 0 90 62 60
        E 240 80 62 00
        E 0 90 63 60
        E 240 80 63 00
        E 0 90 64 60
        E 240 80 64 00
        E 0 90 60 60
        E 240 80 60 00
        E 0 90 61 60
        E 240 80 61 00
        E 0 90 60 60
        E 240 80 60 00
        E 0 90 62 60
        E 240 80 62 00
        E 0 90 63 60
        E 240 80 63 00
        E 0 90 64 60
        E 240 80 64 00
        E 0 90 60 60
        E 240 80 60 00
        E 0 90 61 60
        E 240 80 61 00
        E 0 90 60 60
        E 240 80 60 00
        E 0 90 62 60
        E 240 80 62 00
        E 0 90 63 60
        E 240 80 63 00
        E 0 90 64 60
        E 240 80 64 00
        E 0 90 60 60
        E 240 80 60 00
        E 0 90 61 60
        E 240 80 61 00
        E 0 90 60 60
        E 240 80 60 00
        E 0 90 62 60
        E 240 80 62 00
        E 0 90 63 60
        E 240 80 63 00
        E 0 90 64 60
        E 240 80 64 00
        E 0 90 60 60
        E 240 80 60 00
        E 0 90 61 60
        E 240 80 61 00
        E 0 90 60 60
        E 240 80 60 00
        E 0 90 62 60
        E 240 80 62 00
        E 0 90 63 60
        E 240 80 63 00
        E 0 90 64 60
        E 240 80 64 00
        E 0 90 60 60
        E 240 80 60 00
        E 0 90 61 60
        E 240 80 61 00
        E 0 90 60 60
        E 240 80 60 00
        E 0 90 61 60
        E 240 80 61 00
        E 0 90 62 60
        E 240 80 62 00
        E 0 90 63 60
        E 240 80 63 00
        E 0 90 64 60
        E 240 80 64 00
        E 0 90 60 60
        E 240 80 60 00
        E 0 90 61 60
        E 240 80 61 00
        E 0 90 60 60
        E 240 80 60 00
        E 0 90 61 60
        E 240 80 61 00
        E 0 90 62 60
        E 240 80 62 00
        E 0 90 63 60
        E 240 80 63 00
        E 0 90 64 60
        E 240 80 64 00
        E 0 90 60 60
        E 240 80 60 00
        E 0 90 61 60
        E 240 80 61 00
        E 0 90 60 60
        E 240 80 60 00
        E 0 90 61 60
        E 240 80 61 00
        E 0 90 62 60
        E 240 80 62 00
        E 0 90 63 60
        E 240 80 63 00
        E 0 90 64 60
        E 240 80 64 00
        E 0 90 60 60
        E 240 80 60 00
        E 0 90 61 60
        E 240 80 61 00
        E 0 90 60 60
        E 240 80 60 00
        E 0 90 61 60
        E 240 80 61 00
        E 0 90 62 60
        E 240 80 62 00
        E 0 90 63 60
        E 240 80 63 00
        E 0 90 64 60
        E 240 80 64 00
        E 0 90 60 60
        E 240 80 60 00
        E 0 90 61 60
        E 240 80 61 00
        E 0 90 60 60
        E 240 80 60 00
        E 0 90 61 60
        E 240 80 61 00
        E 0 90 62 60
        E 240 80 62 00
        E 0 90 63 60
        E 240 80 63 00
        E 0 90 64 60
        E 240 80 64 00
        E 0 90 60 60
        E 240 80 60 00
        E 0 90 61 60
        E 240 80 61 00
        E 0 90 60 60
        E 240 80 60 00
        E 0 90 61 60
        E 240 80 61 00
        E 0 90 62 60
        E 240 80 62 00
        E 0 90 63 60
        E 240 80 63 00
        E 0 90 64 60
        E 240 80 64 00
        E 0 90 60 60
        E 240 80 60 00
        E 0 90 61 60
        E 240 80 61 00
        E 0 90 60 60
        E 240 80 60 00
        E 0 90 61 60
        E 240 80 61 00
        E 0 90 62 60
        E 240 80 62 00
        E 0 90 63 60
        E 240 80 63 00
        E 0 90 64 60
        E 240 80 64 00
        E 0 90 60 60
        E 240 80 60 00
        E 0 90 61 60
        E 240 80 61 00
        E 0 90 60 60
        E 240 80 60 00
        E 0 90 61 60
        E 240 80 61 00
        E 0 90 62 60
        E 240 80 62 00
        E 0 90 63 60
        E 240 80 63 00
        E 0 90 64 60
        E 240 80 64 00
        E 0 90 60 60
        E 240 80 60 00
        E 0 90 61 60
        E 240 80 61 00
        E 0 90 60 60
        E 240 80 60 00
        E 0 90 62 60
        E 240 80 62 00
        E 0 90 64 60
        E 240 80 64 00
        E 0 90 63 60
        E 240 80 63 00
        E 0 90 61 60
        E 240 80 61 00
        E 0 90 62 60
        E 240 80 62 00
        E 0 90 60 60
        E 240 80 60 00
        E 0 90 61 60
        E 240 80 61 00
        E 0 90 60 60
        E 240 80 60 00
        E 0 90 62 60
        E 240 80 62 00
        E 0 90 64 60
        E 240 80 64 00
        E 0 90 63 60
        E 240 80 63 00
        E 0 90 61 60
        E 240 80 61 00
        E 0 90 62 60
        E 240 80 62 00
        E 0 90 60 60
        E 240 80 60 00
        E 0 90 61 60
        E 240 80 61 00
        E 0 90 60 60
        E 240 80 60 00
        E 0 90 62 60
        E 240 80 62 00
        E 0 90 64 60
        E 240 80 64 00
        E 0 90 63 60
        E 240 80 63 00
        E 0 90 61 60
        E 240 80 61 00
        E 0 90 62 60
        E 240 80 62 00
        E 0 90 60 60
        E 240 80 60 00
        E 0 90 61 60
        E 240 80 61 00
        E 0 90 60 60
        E 240 80 60 00
        E 0 90 62 60
        E 240 80 62 00
        E 0 90 64 60
        E 240 80 64 00
        E 0 90 63 60
        E 240 80 63 00
        E 0 90 61 60
        E 240 80 61 00
        E 0 90 62 60
        E 240 80 62 00
        E 0 90 60 60
        E 240 80 60 00
        E 0 90 61 60
        E 240 80 61 00
        E 0 90 60 60
        E 240 80 60 00
        E 0 90 62 60
        E 240 80 62 00
        E 0 90 64 60
        E 240 80 64 00
        E 0 90 63 60
        E 240 80 63 00
        E 0 90 61 60
        E 240 80 61 00
        E 0 90 62 60
        E 240 80 62 00
        E 0 90 60 60
        E 240 80 60 00
        E 0 90 61 60
        E 240 80 61 00
        E 0 90 60 60
        E 240 80 60 00
        E 0 90 62 60
        E 240 80 62 00
        E 0 90 64 60
        E 240 80 64 00
        E 0 90 63 60
        E 240 80 63 00
        E 0 90 61 60
        E 240 80 61 00
        E 0 90 62 60
        E 240 80 62 00
        E 0 90 60 60
        E 240 80 60 00
        E 0 90 61 60
        E 240 80 61 00
        E 0 90 60 60
        E 240 80 60 00
        E 0 90 62 60
        E 240 80 62 00
        E 0 90 64 60
        E 240 80 64 00
        E 0 90 63 60
        E 240 80 63 00
        E 0 90 61 60
        E 240 80 61 00
        E 0 90 62 60
        E 240 80 62 00
        E 0 90 60 60
        E 240 80 60 00
        E 0 90 61 60
        E 240 80 61 00
        E 0 90 60 60
        E 240 80 60 00
        E 0 90 62 60
        E 240 80 62 00
        E 0 90 64 60
        E 240 80 64 00
        E 0 90 63 60
        E 240 80 63 00
        E 0 90 61 60
        E 240 80 61 00
        E 0 90 62 60
        E 240 80 62 00
        E 0 90 60 60
        E 120 80 60 00
        E 120 90 61 60
        E 120 80 61 00
        E 120 90 60 60
        E 120 80 60 00
        E 120 90 62 60
        E 120 80 62 00
        E 120 90 63 60
        E 120 80 63 00
        E 120 90 61 60
        E 120 80 61 00
        E 120 90 61 60
        E 120 80 61 00
        E 120 90 62 60
        E 120 80 62 00
        E 120 90 63 60
        E 120 80 63 00
        E 120 90 61 60
        E 120 80 61 00
        E 120 90 63 60
        E 120 80 63 00
        E 120 90 64 60
        E 120 80 64 00
        E 120 90 60 60
        E 120 80 60 00
        E 120 90 61 60
        E 120 80 61 00
        E 120 90 60 60
        E 120 80 60 00
        E 120 90 62 60
        E 120 80 62 00
        E 120 90 63 60
        E 120 80 63 00
        E 120 90 61 60
        E 120 80 61 00
        E 120 90 61 60
        E 120 80 61 00
        E 120 90 62 60
        E 120 80 62 00
        E 120 90 63 60
        E 120 80 63 00
        E 120 90 61 60
        E 120 80 61 00
        E 120 90 63 60
        E 120 80 63 00
        E 120 90 64 60
        E 120 80 64 00
        E 120 90 60 60
        E 120 80 60 00
        E 120 90 61 60
        E 120 80 61 00
        E 120 90 60 60
        E 120 80 60 00
        E 120 90 62 60
        E 120 80 62 00
        E 120 90 63 60
        E 120 80 63 00
        E 120 90 61 60
        E 120 80 61 00
        E 120 90 61 60
        E 120 80 61 00
        E 120 90 62 60
        E 120 80 62 00
        E 120 90 63 60
        E 120 80 63 00
        E 120 90 61 60
        E 120 80 61 00
        E 120 90 63 60
        E 120 80 63 00
        E 120 90 64 60
        E 120 80 64 00
        E 120 90 60 60
        E 120 80 60 00
        E 120 90 61 60
        E 120 80 61 00
        E 120 90 60 60
        E 120 80 60 00
        E 120 90 62 60
        E 120 80 62 00
        E 120 90 63 60
        E 120 80 63 00
        E 120 90 61 60
        E 120 80 61 00
        E 120 90 61 60
        E 120 80 61 00
        E 120 90 62 60
        E 120 80 62 00
        E 120 90 63 60
        E 120 80 63 00
        E 120 90 61 60
        E 120 80 61 00
        E 120 90 63 60
        E 120 80 63 00
        E 120 90 64 60
        E 120 80 64 00
        E 120 90 60 60
        E 120 80 60 00
        E 120 90 61 60
        E 120 80 61 00
        E 120 90 60 60
        E 120 80 60 00
        E 120 90 62 60
        E 120 80 62 00
        E 120 90 63 60
        E 120 80 63 00
        E 120 90 61 60
        E 120 80 61 00
        E 120 90 61 60
        E 120 80 61 00
        E 120 90 62 60
        E 120 80 62 00
        E 120 90 63 60
        E 120 80 63 00
        E 120 90 61 60
        E 120 80 61 00
        E 120 90 63 60
        E 120 80 63 00
        E 120 90 64 60
        E 120 80 64 00
        E 120 90 60 60
        E 120 80 60 00
        E 120 90 61 60
        E 120 80 61 00
        E 120 90 60 60
        E 120 80 60 00
        E 120 90 62 60
        E 120 80 62 00
        E 120 90 63 60
        E 120 80 63 00
        E 120 90 61 60
        E 120 80 61 00
        E 120 90 61 60
        E 120 80 61 00
        E 120 90 62 60
        E 120 80 62 00
        E 120 90 63 60
        E 120 80 63 00
        E 120 90 61 60
        E 120 80 61 00
        E 120 90 63 60
        E 120 80 63 00
        E 120 90 64 60
        E 120 80 64 00
        E 120 90 60 60
        E 120 80 60 00
        E 120 90 62 60
        E 120 80 62 00
        E 120 90 61 60
        E 120 80 61 00
        E 120 90 63 60
        E 120 80 63 00
        E 120 90 64 60
        E 120 80 64 00
        E 120 90 62 60
        E 120 80 62 00
        E 120 90 63 60
        E 120 80 63 00
        E 120 90 61 60
        E 120 80 61 00
        E 120 90 60 60
        E 120 80 60 00
        E 120 90 61 60
        E 120 80 61 00
        E 120 90 62 60
        E 120 80 62 00
        E 120 90 63 60
        E 120 80 63 00
        E 120 90 64 60
        E 120 80 64 00
        E 120 90 63 60
        E 120 80 63 00
        E 120 90 64 60
        E 120 80 64 00
        E 120 90 62 60
        E 120 80 62 00
        E 120 90 60 60
        E 120 80 60 00
        E 120 90 62 60
        E 120 80 62 00
        E 120 90 61 60
        E 120 80 61 00
        E 120 90 63 60
        E 120 80 63 00
        E 120 90 64 60
        E 120 80 64 00
        E 120 90 62 60
        E 120 80 62 00
        E 120 90 63 60
        E 120 80 63 00
        E 120 90 61 60
        E 120 80 61 00
        E 120 90 60 60
        E 120 80 60 00
        E 120 90 61 60
        E 120 80 61 00
        E 120 90 62 60
        E 120 80 62 00
        E 120 90 63 60
        E 120 80 63 00
        E 120 90 64 60
        E 120 80 64 00
        E 120 90 63 60
        E 120 80 63 00
        E 120 90 64 60
        E 120 80 64 00
        E 120 90 62 60
        E 120 80 62 00
        E 120 90 64 60
        E 120 80 64 00
        E 120 90 63 60
        E 120 80 63 00
        E 120 90 60 60
        E 120 80 60 00
        E 120 90 62 60
        E 120 80 62 00
        E 120 90 61 60
        E 120 80 61 00
        E 120 90 62 60
        E 120 80 62 00
        E 120 90 63 60
        E 120 80 63 00
        E 120 90 64 60
        E 120 80 64 00
        E 120 90 61 60
        E 120 80 61 00
        E 120 90 63 60
        E 120 80 63 00
        E 120 90 64 60
        E 120 80 64 00
        E 120 90 63 60
        E 120 80 63 00
        E 120 90 62 60
        E 120 80 62 00
        E 120 90 63 60
        E 120 80 63 00
        E 120 90 64 60
        E 120 80 64 00
        E 120 90 62 60
        E 120 80 62 00
        E 120 90 63 60
        E 120 80 63 00
        E 120 90 61 60
        E 120 80 61 00
        E 120 90 62 60
        E 120 80 62 00
        E 120 90 60 60
        E 120 80 60 00
        E 120 90 64 60
        E 120 80 64 00
        E 120 90 63 60
        E 120 80 63 00
        E 120 90 60 60
        E 120 80 60 00
        E 120 90 62 60
        E 120 80 62 00
        E 120 90 61 60
        E 120 80 61 00
        E 120 90 62 60
        E 120 80 62 00
        E 120 90 63 60
        E 120 80 63 00
        E 120 90 64 60
        E 120 80 64 00
        E 120 90 61 60
        E 120 80 61 00
        E 120 90 63 60
        E 120 80 63 00
        E 120 90 64 60
        E 120 80 64 00
        E 120 90 63 60
        E 120 80 63 00
        E 120 90 62 60
        E 120 80 62 00
        E 120 90 63 60
        E 120 80 63 00
        E 120 90 64 60
        E 120 80 64 00
        E 120 90 62 60
        E 120 80 62 00
        E 120 90 63 60
        E 120 80 63 00
        E 120 90 61 60
        E 120 80 61 00
        E 120 90 62 60
        E 120 80 62 00
        E 120 90 60 60
        E 120 80 60 00
        E 120 90 60 60
        E 120 80 60 00
        E 120 90 61 60
        E 120 80 61 00
        E 120 90 62 60
        E 120 80 62 00
        E 120 90 61 60
        E 120 80 61 00
        E 120 90 62 60
        E 120 80 62 00
        E 120 90 63 60
        E 120 80 63 00
        E 120 90 62 60
        E 120 80 62 00
        E 120 90 63 60
        E 120 80 63 00
        E 120 90 64 60
        E 120 80 64 00
        E 120 90 64 60
        E 120 80 64 00
        E 120 90 63 60
        E 120 80 63 00
        E 120 90 62 60
        E 120 80 62 00
        E 120 90 64 60
        E 120 80 64 00
        E 120 90 63 60
        E 120 80 63 00
        E 120 90 62 60
        E 120 80 62 00
        E 120 90 60 60
        E 120 80 60 00
        E 120 90 61 60
        E 120 80 61 00
        E 120 90 62 60
        E 120 80 62 00
        E 120 90 60 60
        E 120 80 60 00
        E 120 90 61 60
        E 120 80 61 00
        E 120 90 60 60
        E 120 80 60 00
        E 120 90 62 60
        E 120 80 62 00
        E 120 90 64 60
        E 120 80 64 00
        E 120 90 63 60
        E 120 80 63 00
        E 120 90 60 60
        E 120 80 60 00
        E 120 90 61 60
        E 120 80 61 00
        E 120 90 62 60
        E 120 80 62 00
        E 120 90 61 60
        E 120 80 61 00
        E 120 90 62 60
        E 120 80 62 00
        E 120 90 63 60
        E 120 80 63 00
        E 120 90 62 60
        E 120 80 62 00
        E 120 90 63 60
        E 120 80 63 00
        E 120 90 64 60
        E 120 80 64 00
        E 120 90 64 60
        E 120 80 64 00
        E 120 90 63 60
        E 120 80 63 00
        E 120 90 62 60
        E 120 80 62 00
        E 120 90 64 60
        E 120 80 64 00
        E 120 90 63 60
        E 120 80 63 00
        E 120 90 62 60
        E 120 80 62 00
        E 120 90 60 60
        E 120 80 60 00
        E 120 90 61 60
        E 120 80 61 00
        E 120 90 62 60
        E 120 80 62 00
        E 120 90 60 60
        E 120 80 60 00
        E 120 90 61 60
        E 120 80 61 00
        E 120 90 60 60
        E 120 80 60 00
        E 120 90 62 60
        E 120 80 62 00
        E 120 90 64 60
        E 120 80 64 00
        E 120 90 63 60
        E 120 80 63 00
        E 230519 b0 7b 00
        GUID {54A57D35-811F-42A6-AB75-F5706122F903}
        IGNTEMPO 0 120 4 4
        SRCCOLOR 273
        VELLANE 132 128 60
        COLORMAP "M:\RGS Documents\ColorMaps\rockband_guitarbass.png"
        TEXTSTRINGFILE "Text Events List.txt"
        CFGEDITVIEW 5609.299798 116.960661 0 12 0 -1 0 0 0 0.5
        KEYSNAP 0
        TRACKSEL 0
        EVTFILTER 0 -1 -1 -1 -1 0 1 0 0 -1 -1 -1 -1 0 -1 0 -1 -1
        CFGEDIT 1 1 0 0 0 1 1 1 1 1 1 0.25 273 170 1647 910 0 2 1 2 0 0 0 0 0 0.5 1 0 1 64
      >
    >
  >
  <TRACK {BEC6FD85-919A-4D6F-BE1B-780EE4BA3876}
    NAME Bass
    PEAKCOL 16576
    BEAT -1
    AUTOMODE 0
    VOLPAN 1 0 -1 -1 1
    MUTESOLO 0 0 0
    IPHASE 0
    ISBUS 2 -1
    BUSCOMP 0 0
    SHOWINMIX 1 0.6667 0.5 1 0.5 0 0 0
    FREEMODE 0
    SEL 0
    REC 0 0 0 0 0 0 0
    TRACKHEIGHT 0 0
    INQ 0 0 0 0.5 100 0 0 100
    NCHAN 2
    FX 1
    TRACKID {BEC6FD85-919A-4D6F-BE1B-780EE4BA3876}
    PERF 0
    MIDIOUT -1
    MAINSEND 1 0
  >
  <TRACK {6B7F9B4B-FF4E-4CE6-9E2D-4C9BD5DAED77}
    NAME "PART GUITAR"
    PEAKCOL 33488896
    BEAT -1
    AUTOMODE 0
    VOLPAN 1 0 -1 -1 1
    MUTESOLO 0 0 0
    IPHASE 0
    ISBUS 1 1
    BUSCOMP 1 0
    SHOWINMIX 1 0.6667 0.5 1 0.5 0 0 0
    FREEMODE 0
    SEL 0
    REC 0 4096 1 7 0 0 0
    TRACKHEIGHT 0 0
    INQ 0 0 0 0.5 100 0 0 100
    NCHAN 2
    FX 1
    TRACKID {6B7F9B4B-FF4E-4CE6-9E2D-4C9BD5DAED77}
    PERF 0
    MIDIOUT -1
    <MIDINOTENAMES
      0 40 "Left Hand Lowest" 0 40
      0 41 - 0 41
      0 42 - 0 42
      0 43 - 0 43
      0 44 - 0 44
      0 45 - 0 45
      0 46 - 0 46
      0 47 - 0 47
      0 48 - 0 48
      0 49 - 0 49
      0 50 - 0 50
      0 51 - 0 51
      0 52 - 0 52
      0 53 - 0 53
      0 54 - 0 54
      0 55 - 0 55
      0 56 - 0 56
      0 57 - 0 57
      0 58 - 0 58
      0 59 "Left Hand Highest" 0 59
      0 60 "EASY Green" 0 60
      0 61 "EASY Red" 0 61
      0 62 "EASY Yellow" 0 62
      0 63 "EASY Blue" 0 63
      0 64 "EASY Orange" 0 64
      0 65 ---- 0 65
      0 72 "MEDIUM Green" 0 72
      0 73 "MEDIUM Red" 0 73
      0 74 "MEDIUM Yellow" 0 74
      0 75 "MEDIUM Blue" 0 75
      0 76 "MEDIUM Orange" 0 76
      0 77 ---- 0 77
      0 84 "HARD Green" 0 84
      0 85 "HARD Red" 0 85
      0 86 "HARD Yellow" 0 86
      0 87 "HARD Blue" 0 87
      0 88 "HARD Orange" 0 88
      0 89 "Force HOPO On" 0 89
      0 90 "Force HOPO Off" 0 90
      0 95 ---- 0 95
      0 96 "EXPERT Green" 0 96
      0 97 "EXPERT Red" 0 97
      0 98 "EXPERT Yellow" 0 98
      0 99 "EXPERT Blue" 0 99
      0 100 "EXPERT Orange" 0 100
      0 101 "Force HOPO On" 0 101
      0 102 "Force HOPO Off" 0 102
      0 103 "Solo Marker" 0 103
      0 115 ---- 0 115
      0 116 OVERDRIVE 0 116
      0 119 ---- 0 119
      0 120 "BRE (use all 5)" 0 120
      0 121 BRE 0 121
      0 122 BRE 0 122
      0 123 BRE 0 123
      0 124 BRE 0 124
      0 125 ---- 0 125
      0 127 "Trill Marker" 0 127
    >
    MAINSEND 1 0
    <FXCHAIN
      WNDRECT 570 483 834 527
      SHOW 0
      LASTSEL 1
      DOCKED 0
      BYPASS 0 0 0
      <VST "VSTi: ReaSynth (Cockos)" reasynth.dll 0 "" 1919251321
        eXNlcu9e7f4AAAAAAgAAAAEAAAAAAAAAAgAAAAAAAAA8AAAAAAAAAAAAAAA=
        776t3g3wrd4AAAAAAAAAAAAAAAAAAAAAObRIPn3L2z61tLE5AAAAALbz/T5VpCs6AAAAAAAAAAAAAIA/
        AAAAAAAA
      >
      FLOATPOS 0 0 0 0
      FXID {52B28C73-185B-48E4-B8F4-1FD7A8848B0F}
      WAK 0
      BYPASS 0 0 0
      <VST "VSTi: RBN Preview (RBN)" rbprev_vst.dll 0 "" 1919053942
        dnBicu5e7f4AAAAAAgAAAAEAAAAAAAAAAgAAAAAAAAAEAAAAAQAAAAAAAAA=
        AwCqAA==
        AAAAAAAA
      >
      FLOATPOS 32 32 659 497
      FXID {190BBB08-7A86-476B-BD07-5F71F5CD6F7C}
      WAK 0
    >
    <ITEM
      POSITION 0
      SNAPOFFS 0
      LENGTH 288.72727272732277
      LOOP 0
      ALLTAKES 0
      FADEIN 1 0 0 1 0 0
      FADEOUT 1 0 0 1 0 0
      MUTE 0
      SEL 0
      IGUID {81210F06-DA35-41E7-BA75-C6E1C5689733}
      IID 3
      NAME "PART GUITAR"
      VOLPAN 1 0 1 -1
      SOFFS 0 0
      PLAYRATE 1 1 0 -65536 0 0.0025
      CHANMODE 0
      GUID {61757875-B3D4-49E4-8483-EE351B7D2386}
      <SOURCE MIDI
        HASDATA 1 480 QN
        POOLEDEVTS {492A03A9-98A5-4625-8283-A39EEDE2B504}
        <X 0 0 0 0 3 "PART GUITAR"
          /wNQQVJUIEdVSVRBUg==
        >
        E 3840 90 60 60
        E 120 80 60 00
        E 600 90 60 60
        E 120 80 60 00
        E 600 90 60 60
        E 120 80 60 00
        E 600 90 60 60
        E 120 80 60 00
        E 600 90 60 60
        E 120 80 60 00
        E 600 90 60 60
        E 120 80 60 00
        E 600 90 60 60
        E 120 80 60 00
        E 600 90 60 60
        E 120 80 60 00
        E 600 90 60 60
        E 120 80 60 00
        E 600 90 60 60
        E 120 80 60 00
        E 600 90 60 60
        E 120 80 60 00
        E 600 90 60 60
        E 120 80 60 00
        E 600 90 60 60
        E 120 80 60 00
        E 840 90 60 60
        E 120 80 60 00
        E 840 90 60 60
        E 120 80 60 00
        E 840 90 60 60
        E 120 80 60 00
        E 840 90 60 60
        E 120 80 60 00
        E 840 90 60 60
        E 120 80 60 00
        E 840 90 60 60
        E 120 80 60 00
        E 840 90 60 60
        E 120 80 60 00
        E 840 90 60 60
        E 120 80 60 00
        E 1080 90 60 60
        E 120 80 60 00
        E 1080 90 60 60
        E 120 80 60 00
        E 1080 90 60 60
        E 120 80 60 00
        E 1080 90 60 60
        E 120 80 60 00
        E 1080 90 60 60
        E 120 80 60 00
        E 1080 90 60 60
        E 120 80 60 00
        E 1080 90 60 60
        E 120 80 60 00
        E 1080 90 60 60
        E 120 80 60 00
        E 1320 90 60 60
        E 120 80 60 00
        E 1320 90 60 60
        E 120 80 60 00
        E 1320 90 60 60
        E 120 80 60 00
        E 1320 90 60 60
        E 120 80 60 00
        E 1320 90 60 60
        E 120 80 60 00
        E 1320 90 60 60
        E 120 80 60 00
        E 1320 90 60 60
        E 120 80 60 00
        E 1320 90 60 60
        E 120 80 60 00
        E 1560 90 60 60
        E 120 80 60 00
        E 1560 90 60 60
        E 120 80 60 00
        E 1560 90 60 60
        E 120 80 60 00
        E 1560 90 60 60
        E 120 80 60 00
        E 1560 90 60 60
        E 120 80 60 00
        E 1560 90 60 60
        E 120 80 60 00
        E 1560 90 60 60
        E 120 80 60 00
        E 1560 90 60 60
        E 120 80 60 00
        E 1800 90 60 60
        E 120 80 60 00
        E 1800 90 60 60
        E 120 80 60 00
        E 1800 90 60 60
        E 120 80 60 00
        E 1800 90 60 60
        E 120 80 60 00
        E 1800 90 60 60
        E 120 80 60 00
        E 1800 90 60 60
        E 120 80 60 00
        E 1800 90 60 60
        E 120 80 60 00
        E 1800 90 60 60
        E 120 80 60 00
        E 120 90 61 60
        E 120 80 61 00
        E 120 90 60 60
        E 120 80 60 00
        E 120 90 62 60
        E 120 80 62 00
        E 120 90 63 60
        E 120 80 63 00
        E 120 90 61 60
        E 120 80 61 00
        E 120 90 61 60
        E 120 80 61 00
        E 120 90 62 60
        E 120 80 62 00
        E 120 90 63 60
        E 120 80 63 00
        E 120 90 61 60
        E 120 80 61 00
        E 120 90 63 60
        E 120 80 63 00
        E 120 90 64 60
        E 120 80 64 00
        E 120 90 60 60
        E 120 80 60 00
        E 120 90 61 60
        E 120 80 61 00
        E 120 90 60 60
        E 120 80 60 00
        E 120 90 62 60
        E 120 80 62 00
        E 120 90 63 60
        E 120 80 63 00
        E 120 90 61 60
        E 120 80 61 00
        E 120 90 61 60
        E 120 80 61 00
        E 120 90 62 60
        E 120 80 62 00
        E 120 90 63 60
        E 120 80 63 00
        E 120 90 61 60
        E 120 80 61 00
        E 120 90 63 60
        E 120 80 63 00
        E 120 90 64 60
        E 120 80 64 00
        E 120 90 60 60
        E 120 80 60 00
        E 120 90 61 60
        E 120 80 61 00
        E 120 90 60 60
        E 120 80 60 00
        E 120 90 62 60
        E 120 80 62 00
        E 120 90 63 60
        E 120 80 63 00
        E 120 90 61 60
        E 120 80 61 00
        E 120 90 61 60
        E 120 80 61 00
        E 120 90 62 60
        E 120 80 62 00
        E 120 90 63 60
        E 120 80 63 00
        E 120 90 61 60
        E 120 80 61 00
        E 120 90 63 60
        E 120 80 63 00
        E 120 90 64 60
        E 120 80 64 00
        E 120 90 60 60
        E 120 80 60 00
        E 120 90 61 60
        E 120 80 61 00
        E 120 90 60 60
        E 120 80 60 00
        E 120 90 62 60
        E 120 80 62 00
        E 120 90 63 60
        E 120 80 63 00
        E 120 90 61 60
        E 120 80 61 00
        E 120 90 61 60
        E 120 80 61 00
        E 120 90 62 60
        E 120 80 62 00
        E 120 90 63 60
        E 120 80 63 00
        E 120 90 61 60
        E 120 80 61 00
        E 120 90 63 60
        E 120 80 63 00
        E 120 90 64 60
        E 120 80 64 00
        E 120 90 60 60
        E 120 80 60 00
        E 120 90 61 60
        E 120 80 61 00
        E 120 90 60 60
        E 120 80 60 00
        E 120 90 62 60
        E 120 80 62 00
        E 120 90 63 60
        E 120 80 63 00
        E 120 90 61 60
        E 120 80 61 00
        E 120 90 61 60
        E 120 80 61 00
        E 120 90 62 60
        E 120 80 62 00
        E 120 90 63 60
        E 120 80 63 00
        E 120 90 61 60
        E 120 80 61 00
        E 120 90 63 60
        E 120 80 63 00
        E 120 90 64 60
        E 120 80 64 00
        E 120 90 60 60
        E 120 80 60 00
        E 120 90 61 60
        E 120 80 61 00
        E 120 90 60 60
        E 120 80 60 00
        E 120 90 62 60
        E 120 80 62 00
        E 120 90 63 60
        E 120 80 63 00
        E 120 90 61 60
        E 120 80 61 00
        E 120 90 61 60
        E 120 80 61 00
        E 120 90 62 60
        E 120 80 62 00
        E 120 90 63 60
        E 120 80 63 00
        E 120 90 61 60
        E 120 80 61 00
        E 120 90 63 60
        E 120 80 63 00
        E 120 90 64 60
        E 120 80 64 00
        E 120 90 60 60
        E 120 80 60 00
        E 120 90 62 60
        E 120 80 62 00
        E 120 90 61 60
        E 120 80 61 00
        E 120 90 63 60
        E 120 80 63 00
        E 120 90 64 60
        E 120 80 64 00
        E 120 90 62 60
        E 120 80 62 00
        E 120 90 63 60
        E 120 80 63 00
        E 120 90 61 60
        E 120 80 61 00
        E 120 90 60 60
        E 120 80 60 00
        E 120 90 61 60
        E 120 80 61 00
        E 120 90 62 60
        E 120 80 62 00
        E 120 90 63 60
        E 120 80 63 00
        E 120 90 64 60
        E 120 80 64 00
        E 120 90 63 60
        E 120 80 63 00
        E 120 90 64 60
        E 120 80 64 00
        E 120 90 62 60
        E 120 80 62 00
        E 120 90 60 60
        E 120 80 60 00
        E 120 90 62 60
        E 120 80 62 00
        E 120 90 61 60
        E 120 80 61 00
        E 120 90 63 60
        E 120 80 63 00
        E 120 90 64 60
        E 120 80 64 00
        E 120 90 62 60
        E 120 80 62 00
        E 120 90 63 60
        E 120 80 63 00
        E 120 90 61 60
        E 120 80 61 00
        E 120 90 60 60
        E 120 80 60 00
        E 120 90 61 60
        E 120 80 61 00
        E 120 90 62 60
        E 120 80 62 00
        E 120 90 63 60
        E 120 80 63 00
        E 120 90 64 60
        E 120 80 64 00
        E 120 90 63 60
        E 120 80 63 00
        E 120 90 64 60
        E 120 80 64 00
        E 120 90 62 60
        E 120 80 62 00
        E 120 90 64 60
        E 120 80 64 00
        E 120 90 63 60
        E 120 80 63 00
        E 120 90 60 60
        E 120 80 60 00
        E 120 90 62 60
        E 120 80 62 00
        E 120 90 61 60
        E 120 80 61 00
        E 120 90 62 60
        E 120 80 62 00
        E 120 90 63 60
        E 120 80 63 00
        E 120 90 64 60
        E 120 80 64 00
        E 120 90 61 60
        E 120 80 61 00
        E 120 90 63 60
        E 120 80 63 00
        E 120 90 64 60
        E 120 80 64 00
        E 120 90 63 60
        E 120 80 63 00
        E 120 90 62 60
        E 120 80 62 00
        E 120 90 63 60
        E 120 80 63 00
        E 120 90 64 60
        E 120 80 64 00
        E 120 90 62 60
        E 120 80 62 00
        E 120 90 63 60
        E 120 80 63 00
        E 120 90 61 60
        E 120 80 61 00
        E 120 90 62 60
        E 120 80 62 00
        E 120 90 60 60
        E 120 80 60 00
        E 120 90 64 60
        E 120 80 64 00
        E 120 90 63 60
        E 120 80 63 00
        E 120 90 60 60
        E 120 80 60 00
        E 120 90 62 60
        E 120 80 62 00
        E 120 90 61 60
        E 120 80 61 00
        E 120 90 62 60
        E 120 80 62 00
        E 120 90 63 60
        E 120 80 63 00
        E 120 90 64 60
        E 120 80 64 00
        E 120 90 61 60
        E 120 80 61 00
        E 120 90 63 60
        E 120 80 63 00
        E 120 90 64 60
        E 120 80 64 00
        E 120 90 63 60
        E 120 80 63 00
        E 120 90 62 60
        E 120 80 62 00
        E 120 90 63 60
        E 120 80 63 00
        E 120 90 64 60
        E 120 80 64 00
        E 120 90 62 60
        E 120 80 62 00
        E 120 90 63 60
        E 120 80 63 00
        E 120 90 61 60
        E 120 80 61 00
        E 120 90 62 60
        E 120 80 62 00
        E 120 90 60 60
        E 120 80 60 00
        E 120 90 60 60
        E 120 80 60 00
        E 120 90 61 60
        E 120 80 61 00
        E 120 90 62 60
        E 120 80 62 00
        E 120 90 61 60
        E 120 80 61 00
        E 120 90 62 60
        E 120 80 62 00
        E 120 90 63 60
        E 120 80 63 00
        E 120 90 62 60
        E 120 80 62 00
        E 120 90 63 60
        E 120 80 63 00
        E 120 90 64 60
        E 120 80 64 00
        E 120 90 64 60
        E 120 80 64 00
        E 120 90 63 60
        E 120 80 63 00
        E 120 90 62 60
        E 120 80 62 00
        E 120 90 64 60
        E 120 80 64 00
        E 120 90 63 60
        E 120 80 63 00
        E 120 90 62 60
        E 120 80 62 00
        E 120 90 60 60
        E 120 80 60 00
        E 120 90 61 60
        E 120 80 61 00
        E 120 90 62 60
        E 120 80 62 00
        E 120 90 60 60
        E 120 80 60 00
        E 120 90 61 60
        E 120 80 61 00
        E 120 90 60 60
        E 120 80 60 00
        E 120 90 62 60
        E 120 80 62 00
        E 120 90 64 60
        E 120 80 64 00
        E 120 90 63 60
        E 120 80 63 00
        E 120 90 60 60
        E 120 80 60 00
        E 120 90 61 60
        E 120 80 61 00
        E 120 90 62 60
        E 120 80 62 00
        E 120 90 61 60
        E 120 80 61 00
        E 120 90 62 60
        E 120 80 62 00
        E 120 90 63 60
        E 120 80 63 00
        E 120 90 62 60
        E 120 80 62 00
        E 120 90 63 60
        E 120 80 63 00
        E 120 90 64 60
        E 120 80 64 00
        E 120 90 64 60
        E 120 80 64 00
        E 120 90 63 60
        E 120 80 63 00
        E 120 90 62 60
        E 120 80 62 00
        E 120 90 64 60
        E 120 80 64 00
        E 120 90 63 60
        E 120 80 63 00
        E 120 90 62 60
        E 120 80 62 00
        E 120 90 60 60
        E 120 80 60 00
        E 120 90 61 60
        E 120 80 61 00
        E 120 90 62 60
        E 120 80 62 00
        E 120 90 60 60
        E 120 80 60 00
        E 120 90 61 60
        E 120 80 61 00
        E 120 90 60 60
        E 120 80 60 00
        E 120 90 62 60
        E 120 80 62 00
        E 120 90 64 60
        E 120 80 64 00
        E 120 90 63 60
        E 120 80 63 00
        E 120 90 60 60
        E 120 80 60 00
        E 120 90 61 60
        E 120 80 61 00
        E 120 90 62 60
        E 120 80 62 00
        E 120 90 61 60
        E 120 80 61 00
        E 120 90 62 60
        E 120 80 62 00
        E 120 90 63 60
        E 120 80 63 00
        E 120 90 62 60
        E 120 80 62 00
        E 120 90 64 60
        E 120 80 64 00
        E 120 90 63 60
        E 120 80 63 00
        E 120 90 62 60
        E 120 80 62 00
        E 120 90 63 60
        E 120 80 63 00
        E 120 90 62 60
        E 120 80 62 00
        E 120 90 61 60
        E 120 80 61 00
        E 120 90 62 60
        E 120 80 62 00
        E 120 90 60 60
        E 120 80 60 00
        E 120 90 61 60
        E 120 80 61 00
        E 120 90 62 60
        E 120 80 62 00
        E 120 90 61 60
        E 120 80 61 00
        E 120 90 62 60
        E 120 80 62 00
        E 120 90 63 60
        E 120 80 63 00
        E 120 90 62 60
        E 120 80 62 00
        E 120 90 64 60
        E 120 80 64 00
        E 120 90 63 60
        E 120 80 63 00
        E 120 90 62 60
        E 120 80 62 00
        E 120 90 63 60
        E 120 80 63 00
        E 120 90 62 60
        E 120 80 62 00
        E 120 90 61 60
        E 120 80 61 00
        E 120 90 62 60
        E 120 80 62 00
        E 120 90 60 60
        E 120 80 60 00
        E 120 90 61 60
        E 120 80 61 00
        E 120 90 62 60
        E 120 80 62 00
        E 120 90 61 60
        E 120 80 61 00
        E 120 90 62 60
        E 120 80 62 00
        E 120 90 63 60
        E 120 80 63 00
        E 120 90 62 60
        E 120 80 62 00
        E 120 90 64 60
        E 120 80 64 00
        E 120 90 63 60
        E 120 80 63 00
        E 120 90 62 60
        E 120 80 62 00
        E 120 90 63 60
        E 120 80 63 00
        E 120 90 62 60
        E 120 80 62 00
        E 120 90 61 60
        E 120 80 61 00
        E 120 90 62 60
        E 120 80 62 00
        E 120 90 60 60
        E 120 80 60 00
        E 120 90 61 60
        E 120 80 61 00
        E 120 90 62 60
        E 120 80 62 00
        E 120 90 61 60
        E 120 80 61 00
        E 120 90 62 60
        E 120 80 62 00
        E 120 90 63 60
        E 120 80 63 00
        E 120 90 62 60
        E 120 80 62 00
        E 120 90 64 60
        E 120 80 64 00
        E 120 90 63 60
        E 120 80 63 00
        E 120 90 62 60
        E 120 80 62 00
        E 120 90 63 60
        E 120 80 63 00
        E 120 90 62 60
        E 120 80 62 00
        E 120 90 61 60
        E 120 80 61 00
        E 120 90 62 60
        E 120 80 62 00
        E 120 90 60 60
        E 120 80 60 00
        E 0 90 61 60
        E 120 80 61 00
        E 0 90 62 60
        E 120 80 62 00
        E 0 90 63 60
        E 120 80 63 00
        E 0 90 62 60
        E 120 80 62 00
        E 0 90 61 60
        E 120 80 61 00
        E 0 90 62 60
        E 120 80 62 00
        E 0 90 61 60
        E 120 80 61 00
        E 0 90 62 60
        E 120 80 62 00
        E 0 90 63 60
        E 120 80 63 00
        E 0 90 62 60
        E 120 80 62 00
        E 0 90 63 60
        E 120 80 63 00
        E 0 90 62 60
        E 120 80 62 00
        E 0 90 61 60
        E 120 80 61 00
        E 0 90 62 60
        E 120 80 62 00
        E 0 90 63 60
        E 120 80 63 00
        E 0 90 60 60
        E 120 80 60 00
        E 0 90 61 60
        E 120 80 61 00
        E 0 90 62 60
        E 120 80 62 00
        E 0 90 63 60
        E 120 80 63 00
        E 0 90 62 60
        E 120 80 62 00
        E 0 90 61 60
        E 120 80 61 00
        E 0 90 62 60
        E 120 80 62 00
        E 0 90 61 60
        E 120 80 61 00
        E 0 90 62 60
        E 120 80 62 00
        E 0 90 63 60
        E 120 80 63 00
        E 0 90 62 60
        E 120 80 62 00
        E 0 90 63 60
        E 120 80 63 00
        E 0 90 62 60
        E 120 80 62 00
        E 0 90 61 60
        E 120 80 61 00
        E 0 90 62 60
        E 120 80 62 00
        E 0 90 63 60
        E 120 80 63 00
        E 0 90 60 60
        E 120 80 60 00
        E 0 90 61 60
        E 120 80 61 00
        E 0 90 62 60
        E 120 80 62 00
        E 0 90 63 60
        E 120 80 63 00
        E 0 90 62 60
        E 120 80 62 00
        E 0 90 61 60
        E 120 80 61 00
        E 0 90 62 60
        E 120 80 62 00
        E 0 90 61 60
        E 120 80 61 00
        E 0 90 62 60
        E 120 80 62 00
        E 0 90 63 60
        E 120 80 63 00
        E 0 90 62 60
        E 120 80 62 00
        E 0 90 63 60
        E 120 80 63 00
        E 0 90 62 60
        E 120 80 62 00
        E 0 90 61 60
        E 120 80 61 00
        E 0 90 62 60
        E 120 80 62 00
        E 0 90 63 60
        E 120 80 63 00
        E 0 90 60 60
        E 120 80 60 00
        E 0 90 61 60
        E 120 80 61 00
        E 0 90 62 60
        E 120 80 62 00
        E 0 90 63 60
        E 120 80 63 00
        E 0 90 62 60
        E 120 80 62 00
        E 0 90 61 60
        E 120 80 61 00
        E 0 90 62 60
        E 120 80 62 00
        E 0 90 61 60
        E 120 80 61 00
        E 0 90 62 60
        E 120 80 62 00
        E 0 90 63 60
        E 120 80 63 00
        E 0 90 62 60
        E 120 80 62 00
        E 0 90 63 60
        E 120 80 63 00
        E 0 90 62 60
        E 120 80 62 00
        E 0 90 61 60
        E 120 80 61 00
        E 0 90 62 60
        E 120 80 62 00
        E 0 90 63 60
        E 120 80 63 00
        E 0 90 60 60
        E 120 80 60 00
        E 0 90 61 60
        E 120 80 61 00
        E 0 90 62 60
        E 120 80 62 00
        E 0 90 63 60
        E 120 80 63 00
        E 0 90 62 60
        E 120 80 62 00
        E 0 90 61 60
        E 120 80 61 00
        E 0 90 62 60
        E 120 80 62 00
        E 0 90 61 60
        E 120 80 61 00
        E 0 90 62 60
        E 120 80 62 00
        E 0 90 63 60
        E 120 80 63 00
        E 0 90 62 60
        E 120 80 62 00
        E 0 90 63 60
        E 120 80 63 00
        E 0 90 62 60
        E 120 80 62 00
        E 0 90 61 60
        E 120 80 61 00
        E 0 90 62 60
        E 120 80 62 00
        E 0 90 63 60
        E 120 80 63 00
        E 0 90 60 60
        E 120 80 60 00
        E 0 90 61 60
        E 120 80 61 00
        E 0 90 62 60
        E 120 80 62 00
        E 0 90 63 60
        E 120 80 63 00
        E 0 90 62 60
        E 120 80 62 00
        E 0 90 61 60
        E 120 80 61 00
        E 0 90 62 60
        E 120 80 62 00
        E 0 90 61 60
        E 120 80 61 00
        E 0 90 62 60
        E 120 80 62 00
        E 0 90 63 60
        E 120 80 63 00
        E 0 90 62 60
        E 120 80 62 00
        E 0 90 63 60
        E 120 80 63 00
        E 0 90 62 60
        E 120 80 62 00
        E 0 90 61 60
        E 120 80 61 00
        E 0 90 62 60
        E 120 80 62 00
        E 0 90 63 60
        E 120 80 63 00
        E 0 90 60 60
        E 120 80 60 00
        E 0 90 61 60
        E 120 80 61 00
        E 0 90 62 60
        E 120 80 62 00
        E 0 90 63 60
        E 120 80 63 00
        E 0 90 62 60
        E 120 80 62 00
        E 0 90 61 60
        E 120 80 61 00
        E 0 90 62 60
        E 120 80 62 00
        E 0 90 61 60
        E 120 80 61 00
        E 0 90 62 60
        E 120 80 62 00
        E 0 90 63 60
        E 120 80 63 00
        E 0 90 62 60
        E 120 80 62 00
        E 0 90 63 60
        E 120 80 63 00
        E 0 90 62 60
        E 120 80 62 00
        E 0 90 61 60
        E 120 80 61 00
        E 0 90 62 60
        E 120 80 62 00
        E 0 90 63 60
        E 120 80 63 00
        E 0 90 60 60
        E 120 80 60 00
        E 0 90 61 60
        E 120 80 61 00
        E 0 90 62 60
        E 120 80 62 00
        E 0 90 63 60
        E 120 80 63 00
        E 0 90 62 60
        E 120 80 62 00
        E 0 90 61 60
        E 120 80 61 00
        E 0 90 62 60
        E 120 80 62 00
        E 0 90 61 60
        E 120 80 61 00
        E 0 90 62 60
        E 120 80 62 00
        E 0 90 63 60
        E 120 80 63 00
        E 0 90 62 60
        E 120 80 62 00
        E 0 90 63 60
        E 120 80 63 00
        E 0 90 62 60
        E 120 80 62 00
        E 0 90 61 60
        E 120 80 61 00
        E 0 90 62 60
        E 120 80 62 00
        E 0 90 63 60
        E 120 80 63 00
        E 201599 b0 7b 00
        GUID {14D9E950-FB92-4048-8603-8FD02AE3B865}
        IGNTEMPO 0 120 4 4
        SRCCOLOR 274
        VELLANE 132 38 60
        COLORMAP "M:\RGS Documents\ColorMaps\rockband_guitarbass.png"
        TEXTSTRINGFILE "Text Events List.txt"
        CFGEDITVIEW -10857.873598 5.393321 0 12 0 -1 0 0 0 0.5
        KEYSNAP 0
        TRACKSEL 0
        EVTFILTER 0 -1 -1 -1 -1 0 1 0 0 -1 -1 -1 -1 0 -1 0 -1 -1
        CFGEDIT 1 1 0 0 0 1 1 1 1 1 1 0.25 275 172 1645 908 0 2 1 2 0 0 0 0 0 0.5 1 0 1 64
      >
    >
  >
  <TRACK {B20108AF-A7D1-4C12-951F-F49D7E39284C}
    NAME Guitar
    PEAKCOL 16576
    BEAT -1
    AUTOMODE 0
    VOLPAN 1 0 -1 -1 1
    MUTESOLO 0 0 0
    IPHASE 0
    ISBUS 2 -1
    BUSCOMP 0 0
    SHOWINMIX 1 0.6667 0.5 1 0.5 0 0 0
    FREEMODE 0
    SEL 0
    REC 0 0 0 0 0 0 0
    TRACKHEIGHT 0 0
    INQ 0 0 0 0.5 100 0 0 100
    NCHAN 2
    FX 1
    TRACKID {B20108AF-A7D1-4C12-951F-F49D7E39284C}
    PERF 0
    MIDIOUT -1
    MAINSEND 1 0
  >
  <TRACK {C298A11E-8E06-44B8-AA31-429ECCE3F0AF}
    NAME "PART VOCALS"
    PEAKCOL 16810239
    BEAT -1
    AUTOMODE 0
    VOLPAN 1 0 -1 -1 1
    MUTESOLO 0 0 0
    IPHASE 0
    ISBUS 1 1
    BUSCOMP 1 0
    SHOWINMIX 1 0.6667 0.5 1 0.5 0 0 0
    FREEMODE 0
    SEL 1
    REC 0 4096 1 7 0 0 0
    TRACKHEIGHT 0 0
    INQ 0 0 0 0.5 100 0 0 100
    NCHAN 2
    FX 1
    TRACKID {C298A11E-8E06-44B8-AA31-429ECCE3F0AF}
    PERF 0
    MIDIOUT -1
    <MIDINOTENAMES
      0 0 "Range Shift" 0 0
      0 1 "Lyric Shift" 0 1
      0 36 C1 0 36
      0 37 C# 0 37
      0 38 D 0 38
      0 39 Eb 0 39
      0 40 E 0 40
      0 41 F 0 41
      0 42 F# 0 42
      0 43 G 0 43
      0 44 G# 0 44
      0 45 A 0 45
      0 46 Bb 0 46
      0 47 B 0 47
      0 48 C2 0 48
      0 49 C# 0 49
      0 50 D 0 50
      0 51 Eb 0 51
      0 52 E 0 52
      0 53 F 0 53
      0 54 F# 0 54
      0 55 G 0 55
      0 56 G# 0 56
      0 57 A 0 57
      0 58 Bb 0 58
      0 59 B 0 59
      0 60 C3 0 60
      0 61 C# 0 61
      0 62 D 0 62
      0 63 Eb 0 63
      0 64 E 0 64
      0 65 F 0 65
      0 66 F# 0 66
      0 67 G 0 67
      0 68 G# 0 68
      0 69 A 0 69
      0 70 Bb 0 70
      0 71 B 0 71
      0 72 C4 0 72
      0 73 C# 0 73
      0 74 D 0 74
      0 75 Eb 0 75
      0 76 E 0 76
      0 77 F 0 77
      0 78 F# 0 78
      0 79 G 0 79
      0 80 G# 0 80
      0 81 A 0 81
      0 82 Bb 0 82
      0 83 B 0 83
      0 84 C5 0 84
      0 95 ---- 0 95
      0 96 "Displayed Percussion" 0 96
      0 97 "Not Displayed Percussion" 0 97
      0 104 ---- 0 104
      0 105 "Phrase Marker" 0 105
      0 115 ---- 0 115
      0 116 OVERDRIVE 0 116
    >
    MAINSEND 1 0
    <FXCHAIN
      WNDRECT 104 207 513 453
      SHOW 0
      LASTSEL 1
      DOCKED 0
      BYPASS 0 0 0
      <JS "IX/MIDI_Tool II" ""
        0.000000 85.000000 127.000000 0.000000 0.000000 0.000000 100.000000 0.000000 0.000000 127.000000 0.000000 0.000000 1.000000 0.000000 0.000000 - - - - - - - - - - - - - - - - - - - - - - - - - - - - - - - - - - - - - - - - - - - - - - - - - 
      >
      FLOATPOS 0 0 0 0
      FXID {CA785021-0433-497E-9A6C-EE23A1BC21B0}
      WAK 0
      BYPASS 0 0 0
      <VST "VSTi: ReaSynth (Cockos)" reasynth.dll 0 "" 1919251321
        eXNlcu9e7f4AAAAAAgAAAAEAAAAAAAAAAgAAAAAAAAA8AAAAAAAAAAAAAAA=
        776t3g3wrd5HG6k8F7fROjm0SD8rhxY+AAAAAMybgD5zu7c7AAAAAAAAAD88vw4/6SaxPgAAAD8AAIA/
        AAAAAAAA
      >
      FLOATPOS 32 32 338 405
      FXID {F124DD19-73B4-4CD5-B659-E246F2A3D0B3}
      WAK 0
    >
    <ITEM
      POSITION 0
      SNAPOFFS 0
      LENGTH 261.81818181823166
      LOOP 0
      ALLTAKES 0
      FADEIN 1 0 0 1 0 0
      FADEOUT 1 0 0 1 0 0
      MUTE 0
      SEL 1
      IGUID {9C9617EC-369A-41B9-80F6-31F4222F13F6}
      IID 4
      NAME "PART VOCALS"
      VOLPAN 1 0 1 -1
      SOFFS 0 0
      PLAYRATE 1 1 0 -65536 0 0.0025
      CHANMODE 0
      GUID {8E872349-00D8-4243-95D7-0B92852E4EE5}
      <SOURCE MIDI
        HASDATA 1 480 QN
        POOLEDEVTS {3F4A3F61-6410-45F8-9202-755D26DCBC5F}
        <X 0 0 0 0 3 "PART VOCALS"
          /wNQQVJUIFZPQ0FMUw==
        >
        <X 6750 0 0 0 5 God-
          /wVHb2Qt
        >
        E 0 90 42 60
        E 180 80 42 00
        <X 60 0 0 0 5 smack
          /wVzbWFjaw==
        >
        E 0 90 42 60
        E 90 80 42 00
        <X 30 0 0 0 5 is
          /wVpcw==
        >
        E 0 90 42 60
        E 90 80 42 00
        <X 30 0 0 0 5 how
          /wVob3c=
        >
        E 0 90 42 60
        E 90 80 42 00
        <X 30 0 0 0 5 the
          /wV0aGU=
        >
        E 0 90 42 60
        E 90 80 42 00
        <X 30 0 0 0 5 wind
          /wV3aW5k
        >
        E 0 90 42 60
        E 180 80 42 00
        <X 30 0 0 0 5 feels
          /wVmZWVscw==
        >
        E 0 90 42 60
        E 180 80 42 00
        <X 60 0 0 0 5 on
          /wVvbg==
        >
        E 0 90 42 60
        E 90 80 42 00
        <X 30 0 0 0 5 the
          /wV0aGU=
        >
        E 0 90 42 60
        E 90 80 42 00
        <X 30 0 0 0 5 face
          /wVmYWNl
        >
        E 0 90 42 60
        E 180 80 42 00
        <X 60 0 0 0 5 of
          /wVvZg==
        >
        E 0 90 42 60
        E 180 80 42 00
        <X 60 0 0 0 5 Mike
          /wVNaWtl
        >
        E 0 90 42 60
        E 180 80 42 00
        <X 60 0 0 0 5 Win-
          /wVXaW4t
        >
        E 0 90 42 60
        E 180 80 42 00
        <X 60 0 0 0 5 field
          /wVmaWVsZA==
        >
        E 0 90 42 60
        E 180 80 42 00
        <X 60 0 0 0 5 on
          /wVvbg==
        >
        E 0 90 42 60
        E 90 80 42 00
        <X 30 0 0 0 5 his
          /wVoaXM=
        >
        E 0 90 42 60
        E 90 80 42 00
        <X 30 0 0 0 5 way
          /wV3YXk=
        >
        E 0 90 42 60
        E 180 80 42 00
        <X 60 0 0 0 5 home
          /wVob21l
        >
        E 0 90 42 60
        E 180 80 42 00
        <X 60 0 0 0 5 from
          /wVmcm9t
        >
        E 0 90 42 60
        E 90 80 42 00
        <X 30 0 0 0 5 the
          /wV0aGU=
        >
        E 0 90 42 60
        E 90 80 42 00
        <X 30 0 0 0 5 bar
          /wViYXI=
        >
        E 0 90 42 60
        E 180 80 42 00
        <X 60 0 0 0 5 where
          /wV3aGVyZQ==
        >
        E 0 90 42 60
        E 150 80 42 00
        <X 90 0 0 0 5 he
          /wVoZQ==
        >
        E 0 90 42 60
        E 120 80 42 00
        <X 120 0 0 0 5 works
          /wV3b3Jrcw==
        >
        E 0 90 42 60
        E 120 80 42 00
        <X 120 0 0 0 5 nights
          /wVuaWdodHM=
        >
        E 0 90 42 60
        E 180 80 42 00
        <X 180 0 0 0 5 the
          /wV0aGU=
        >
        E 0 90 42 60
        E 90 80 42 00
        <X 30 0 0 0 5 worst
          /wV3b3JzdA==
        >
        E 0 90 42 60
        E 150 80 42 00
        <X 90 0 0 0 5 nights
          /wVuaWdodHM=
        >
        E 0 90 42 60
        E 150 80 42 00
        <X 330 0 0 0 5 don't
          /wVkb24ndA==
        >
        E 0 90 42 60
        E 90 80 42 00
        <X 30 0 0 0 5 no-
          /wVuby0=
        >
        E 0 90 42 60
        E 90 80 42 00
        <X 30 0 0 0 5 bo-
          /wViby0=
        >
        E 0 90 42 60
        E 90 80 42 00
        <X 30 0 0 0 5 dy
          /wVkeQ==
        >
        E 0 90 42 60
        E 90 80 42 00
        <X 30 0 0 0 5 tip
          /wV0aXA=
        >
        E 0 90 42 60
        E 150 80 42 00
        <X 90 0 0 0 5 right
          /wVyaWdodA==
        >
        E 0 90 42 60
        E 180 80 42 00
        <X 300 0 0 0 5 and
          /wVhbmQ=
        >
        E 0 90 42 60
        E 90 80 42 00
        <X 30 0 0 0 5 be-
          /wViZS0=
        >
        E 0 90 42 60
        E 90 80 42 00
        <X 30 0 0 0 5 tween
          /wV0d2Vlbg==
        >
        E 0 90 42 60
        E 90 80 42 00
        <X 30 0 0 0 5 the
          /wV0aGU=
        >
        E 0 90 42 60
        E 90 80 42 00
        <X 30 0 0 0 5 mar-
          /wVtYXIt
        >
        E 0 90 42 60
        E 90 80 42 00
        <X 30 0 0 0 5 riage
          /wVyaWFnZQ==
        >
        E 0 90 42 60
        E 90 80 42 00
        <X 30 0 0 0 5 of-
          /wVvZi0=
        >
        E 0 90 42 60
        E 90 80 42 00
        <X 30 0 0 0 5 fers
          /wVmZXJz
        >
        E 0 90 42 60
        E 90 80 42 00
        <X 30 0 0 0 5 and
          /wVhbmQ=
        >
        E 0 90 42 60
        E 90 80 42 00
        <X 30 0 0 0 5 the
          /wV0aGU=
        >
        E 0 90 42 60
        E 90 80 42 00
        <X 30 0 0 0 5 fist
          /wVmaXN0
        >
        E 0 90 42 60
        E 120 80 42 00
        <X 120 0 0 0 5 fights
          /wVmaWdodHM=
        >
        E 0 90 42 60
        E 150 80 42 00
        <X 240 0 0 0 5 and
          /wVhbmQ=
        >
        E 0 90 42 60
        E 60 80 42 00
        <X 30 0 0 0 5 if
          /wVpZg==
        >
        E 0 90 42 60
        E 90 80 42 00
        <X 30 0 0 0 5 a-
          /wVhLQ==
        >
        E 0 90 42 60
        E 90 80 42 00
        <X 30 0 0 0 5 no-
          /wVuby0=
        >
        E 0 90 42 60
        E 90 80 42 00
        <X 30 0 0 0 5 ther
          /wV0aGVy
        >
        E 0 90 42 60
        E 90 80 42 00
        <X 30 0 0 0 5 mo-
          /wVtby0=
        >
        E 0 90 42 60
        E 90 80 42 00
        <X 30 0 0 0 5 ther-
          /wV0aGVyLQ==
        >
        E 0 90 42 60
        E 90 80 42 00
        <X 30 0 0 0 5 fuck-
          /wVmdWNrLQ==
        >
        E 0 90 42 60
        E 90 80 42 00
        <X 30 0 0 0 5 er
          /wVlcg==
        >
        E 0 90 42 60
        E 90 80 42 00
        <X 30 0 0 0 5 touch
          /wV0b3VjaA==
        >
        E 0 90 42 60
        E 90 80 42 00
        <X 30 0 0 0 5 his
          /wVoaXM=
        >
        E 0 90 42 60
        E 90 80 42 00
        <X 30 0 0 0 5 wrist
          /wV3cmlzdA==
        >
        E 0 90 42 60
        E 150 80 42 00
        <X 90 0 0 0 5 try-
          /wV0cnkt
        >
        E 0 90 42 60
        E 90 80 42 00
        <X 30 0 0 0 5 na
          /wVuYQ==
        >
        E 0 90 42 60
        E 90 80 42 00
        <X 30 0 0 0 5 pull
          /wVwdWxs
        >
        E 0 90 42 60
        E 90 80 42 00
        <X 30 0 0 0 5 him
          /wVoaW0=
        >
        E 0 90 42 60
        E 90 80 42 00
        <X 30 0 0 0 5 in
          /wVpbg==
        >
        E 0 90 42 60
        E 90 80 42 00
        <X 30 0 0 0 5 to
          /wV0bw==
        >
        E 0 90 42 60
        E 90 80 42 00
        <X 30 0 0 0 5 whis-
          /wV3aGlzLQ==
        >
        E 0 90 42 60
        E 120 80 42 00
        <X 30 0 0 0 5 per
          /wVwZXI=
        >
        E 0 90 42 60
        E 60 80 42 00
        <X 30 0 0 0 5 he
          /wVoZQ==
        >
        E 0 90 42 60
        E 90 80 42 00
        <X 30 0 0 0 5 ain't
          /wVhaW4ndA==
        >
        E 0 90 42 60
        E 90 80 42 00
        <X 30 0 0 0 5 mak-
          /wVtYWst
        >
        E 0 90 42 60
        E 90 80 42 00
        <X 30 0 0 0 5 in'
          /wVpbic=
        >
        E 0 90 42 60
        E 90 80 42 00
        <X 30 0 0 0 5 it
          /wVpdA==
        >
        E 0 90 42 60
        E 90 80 42 00
        <X 30 0 0 0 5 to
          /wV0bw==
        >
        E 0 90 42 60
        E 90 80 42 00
        <X 30 0 0 0 5 mid-
          /wVtaWQt
        >
        E 0 90 42 60
        E 180 80 42 00
        <X 60 0 0 0 5 night
          /wVuaWdodA==
        >
        E 0 90 42 60
        E 120 80 42 00
        <X 360 0 0 0 5 don't
          /wVkb24ndA==
        >
        E 0 90 42 60
        E 90 80 42 00
        <X 30 0 0 0 5 they
          /wV0aGV5
        >
        E 0 90 42 60
        E 90 80 42 00
        <X 30 0 0 0 5 know
          /wVrbm93
        >
        E 0 90 42 60
        E 90 80 42 00
        <X 30 0 0 0 5 he
          /wVoZQ==
        >
        E 0 90 42 60
        E 90 80 42 00
        <X 30 0 0 0 5 got
          /wVnb3Q=
        >
        E 0 90 42 60
        E 90 80 42 00
        <X 30 0 0 0 5 a
          /wVh
        >
        E 0 90 42 60
        E 90 80 42 00
        <X 30 0 0 0 5 light-
          /wVsaWdodC0=
        >
        E 0 90 42 60
        E 180 80 42 00
        <X 60 0 0 0 5 er
          /wVlcg==
        >
        E 0 90 42 60
        E 180 80 42 00
        <X 60 0 0 0 5 in
          /wVpbg==
        >
        E 0 90 42 60
        E 90 80 42 00
        <X 30 0 0 0 5 his
          /wVoaXM=
        >
        E 0 90 42 60
        E 90 80 42 00
        <X 30 0 0 0 5 pock-
          /wVwb2NrLQ==
        >
        E 0 90 42 60
        E 180 80 42 00
        <X 60 0 0 0 5 et
          /wVldA==
        >
        E 0 90 42 60
        E 90 80 42 00
        <X 30 0 0 0 5 a
          /wVh
        >
        E 0 90 42 60
        E 90 80 42 00
        <X 30 0 0 0 5 match-
          /wVtYXRjaC0=
        >
        E 0 90 42 60
        E 180 80 42 00
        <X 60 0 0 0 5 book
          /wVib29r
        >
        E 0 90 42 60
        E 180 80 42 00
        <X 60 0 0 0 5 in
          /wVpbg==
        >
        E 0 90 42 60
        E 90 80 42 00
        <X 30 0 0 0 5 his
          /wVoaXM=
        >
        E 0 90 42 60
        E 90 80 42 00
        <X 30 0 0 0 5 sock
          /wVzb2Nr
        >
        E 0 90 42 60
        E 180 80 42 00
        <X 60 0 0 0 5 and
          /wVhbmQ=
        >
        E 0 90 42 60
        E 90 80 42 00
        <X 30 0 0 0 5 a
          /wVh
        >
        E 0 90 42 60
        E 90 80 42 00
        <X 30 0 0 0 5 block
          /wVibG9jaw==
        >
        E 0 90 42 60
        E 180 80 42 00
        <X 60 0 0 0 5 full
          /wVmdWxs
        >
        E 0 90 42 60
        E 90 80 42 00
        <X 30 0 0 0 5 of
          /wVvZg==
        >
        E 0 90 42 60
        E 90 80 42 00
        <X 30 0 0 0 5 charred
          /wVjaGFycmVk
        >
        E 0 90 42 60
        E 180 80 42 00
        <X 60 0 0 0 5 ske-
          /wVza2Ut
        >
        E 0 90 42 60
        E 90 80 42 00
        <X 30 0 0 0 5 le-
          /wVsZS0=
        >
        E 0 90 42 60
        E 90 80 42 00
        <X 30 0 0 0 5 tons
          /wV0b25z
        >
        E 0 90 42 60
        E 120 80 42 00
        <X 120 0 0 0 5 clo-
          /wVjbG8t
        >
        E 0 90 42 60
        E 180 80 42 00
        <X 60 0 0 0 5 set-
          /wVzZXQt
        >
        E 0 90 42 60
        E 90 80 42 00
        <X 30 0 0 0 5 ed
          /wVlZA==
        >
        E 0 90 42 60
        E 90 80 42 00
        <X 30 0 0 0 5 beg-
          /wViZWct
        >
        E 0 90 42 60
        E 90 80 42 00
        <X 30 0 0 0 5 ging
          /wVnaW5n
        >
        E 0 90 42 60
        E 90 80 42 00
        <X 30 0 0 0 5 to
          /wV0bw==
        >
        E 0 90 42 60
        E 90 80 42 00
        <X 30 0 0 0 5 get
          /wVnZXQ=
        >
        E 0 90 42 60
        E 90 80 42 00
        <X 30 0 0 0 5 out
          /wVvdXQ=
        >
        E 0 90 42 60
        E 90 80 42 00
        <X 30 0 0 0 5 he
          /wVoZQ==
        >
        E 0 90 42 60
        E 90 80 42 00
        <X 30 0 0 0 5 paused
          /wVwYXVzZWQ=
        >
        E 0 90 42 60
        E 180 80 42 00
        <X 60 0 0 0 5 "'cause"
          /wUnY2F1c2U=
        >
        E 0 90 42 60
        E 90 80 42 00
        <X 30 0 0 0 5 he's
          /wVoZSdz
        >
        E 0 90 42 60
        E 90 80 42 00
        <X 30 0 0 0 5 scared
          /wVzY2FyZWQ=
        >
        E 0 90 42 60
        E 90 80 42 00
        <X 30 0 0 0 5 of
          /wVvZg==
        >
        E 0 90 42 60
        E 90 80 42 00
        <X 30 0 0 0 5 air-
          /wVhaXIt
        >
        E 0 90 42 60
        E 90 80 42 00
        <X 30 0 0 0 5 in'
          /wVpbic=
        >
        E 0 90 42 60
        E 90 80 42 00
        <X 30 0 0 0 5 out
          /wVvdXQ=
        >
        E 0 90 42 60
        E 90 80 42 00
        <X 30 0 0 0 5 the
          /wV0aGU=
        >
        E 0 90 42 60
        E 90 80 42 00
        <X 30 0 0 0 5 thoughts
          /wV0aG91Z2h0cw==
        >
        E 0 90 42 60
        E 180 80 42 00
        <X 60 0 0 0 5 he
          /wVoZQ==
        >
        E 0 90 42 60
        E 90 80 42 00
        <X 30 0 0 0 5 can
          /wVjYW4=
        >
        E 0 90 42 60
        E 90 80 42 00
        <X 30 0 0 0 5 taste
          /wV0YXN0ZQ==
        >
        E 0 90 42 60
        E 90 80 42 00
        <X 30 0 0 0 5 it
          /wVpdA==
        >
        E 0 90 42 60
        E 90 80 42 00
        <X 30 0 0 0 5 in
          /wVpbg==
        >
        E 0 90 42 60
        E 90 80 42 00
        <X 30 0 0 0 5 his
          /wVoaXM=
        >
        E 0 90 42 60
        E 90 80 42 00
        <X 30 0 0 0 5 mouth
          /wVtb3V0aA==
        >
        E 0 90 42 60
        E 90 80 42 00
        <X 30 0 0 0 5 the
          /wV0aGU=
        >
        E 0 90 42 60
        E 90 80 42 00
        <X 30 0 0 0 5 sul-
          /wVzdWwt
        >
        E 0 90 42 60
        E 180 80 42 00
        <X 60 0 0 0 5 fur
          /wVmdXI=
        >
        E 0 90 42 60
        E 90 80 42 00
        <X 30 0 0 0 5 and
          /wVhbmQ=
        >
        E 0 90 42 60
        E 90 80 42 00
        <X 30 0 0 0 5 bit-
          /wViaXQt
        >
        E 0 90 42 60
        E 90 80 42 00
        <X 30 0 0 0 5 ter
          /wV0ZXI=
        >
        E 0 90 42 60
        E 90 80 42 00
        <X 30 0 0 0 5 car-
          /wVjYXIt
        >
        E 0 90 42 60
        E 90 80 42 00
        <X 30 0 0 0 5 bon
          /wVib24=
        >
        E 0 90 42 60
        E 90 80 42 00
        <X 30 0 0 0 5 hear-
          /wVoZWFyLQ==
        >
        E 0 90 42 60
        E 90 80 42 00
        <X 30 0 0 0 5 in'
          /wVpbic=
        >
        E 0 90 42 60
        E 90 80 42 00
        <X 30 0 0 0 5 all
          /wVhbGw=
        >
        E 0 90 42 60
        E 90 80 42 00
        <X 30 0 0 0 5 the
          /wV0aGU=
        >
        E 0 90 42 60
        E 90 80 42 00
        <X 30 0 0 0 5 burn-
          /wVidXJuLQ==
        >
        E 0 90 42 60
        E 90 80 42 00
        <X 30 0 0 0 5 in'
          /wVpbic=
        >
        E 0 90 42 60
        E 90 80 42 00
        <X 30 0 0 0 5 bod-
          /wVib2Qt
        >
        E 0 90 42 60
        E 90 80 42 00
        <X 30 0 0 0 5 ies
          /wVpZXM=
        >
        E 0 90 42 60
        E 90 80 42 00
        <X 30 0 0 0 5 shout
          /wVzaG91dA==
        >
        E 0 90 42 60
        E 120 80 42 00
        <X 120 0 0 0 5 but
          /wVidXQ=
        >
        E 0 90 42 60
        E 120 80 42 00
        <X 120 0 0 0 5 no
          /wVubw==
        >
        E 0 90 42 60
        E 180 80 42 00
        <X 60 0 0 0 5 that
          /wV0aGF0
        >
        E 0 90 42 60
        E 90 80 42 00
        <X 30 0 0 0 5 was
          /wV3YXM=
        >
        E 0 90 42 60
        E 90 80 42 00
        <X 30 0 0 0 5 a
          /wVh
        >
        E 0 90 42 60
        E 90 80 42 00
        <X 150 0 0 0 5 full
          /wVmdWxs
        >
        E 0 90 42 60
        E 180 80 42 00
        <X 60 0 0 0 5 life-
          /wVsaWZlLQ==
        >
        E 0 90 42 60
        E 120 80 42 00
        <X 120 0 0 0 5 time
          /wV0aW1l
        >
        E 0 90 42 60
        E 90 80 42 00
        <X 30 0 0 0 5 a-
          /wVhLQ==
        >
        E 0 90 42 60
        E 90 80 42 00
        <X 30 0 0 0 5 go
          /wVnbw==
        >
        E 0 90 42 60
        E 180 80 42 00
        <X 60 0 0 0 5 and
          /wVhbmQ=
        >
        E 0 90 42 60
        E 180 80 42 00
        <X 60 0 0 0 5 no-
          /wVuby0=
        >
        E 0 90 42 60
        E 180 80 42 00
        <X 60 0 0 0 5 bo-
          /wViby0=
        >
        E 0 90 42 60
        E 90 80 42 00
        <X 30 0 0 0 5 dy
          /wVkeQ==
        >
        E 0 90 42 60
        E 90 80 42 00
        <X 30 0 0 0 5 ev-
          /wVldi0=
        >
        E 0 90 42 60
        E 90 80 42 00
        <X 30 0 0 0 5 er
          /wVlcg==
        >
        E 0 90 42 60
        E 90 80 42 00
        <X 30 0 0 0 5 has
          /wVoYXM=
        >
        E 0 90 42 60
        E 90 80 42 00
        <X 30 0 0 0 5 to
          /wV0bw==
        >
        E 0 90 42 60
        E 90 80 42 00
        <X 30 0 0 0 5 know
          /wVrbm93
        >
        E 0 90 42 60
        E 180 80 42 00
        <X 60 0 0 0 5 he
          /wVoZQ==
        >
        E 0 90 42 60
        E 90 80 42 00
        <X 30 0 0 0 5 has
          /wVoYXM=
        >
        E 0 90 42 60
        E 90 80 42 00
        <X 30 0 0 0 5 nev-
          /wVuZXYt
        >
        E 0 90 42 60
        E 90 80 42 00
        <X 30 0 0 0 5 er
          /wVlcg==
        >
        E 0 90 42 60
        E 90 80 42 00
        <X 30 0 0 0 5 told
          /wV0b2xk
        >
        E 0 90 42 60
        E 180 80 42 00
        <X 60 0 0 0 5 well
          /wV3ZWxs
        >
        E 0 90 42 60
        E 90 80 42 00
        <X 30 0 0 0 5 ex-
          /wVleC0=
        >
        E 0 90 42 60
        E 90 80 42 00
        <X 30 0 0 0 5 cept
          /wVjZXB0
        >
        E 0 90 42 60
        E 120 80 42 00
        <X 120 0 0 0 5 Ron-
          /wVSb24t
        >
        E 0 90 42 60
        E 120 80 42 00
        <X 30 0 0 0 5 ald
          /wVhbGQ=
        >
        E 0 90 42 60
        E 90 80 42 00
        <X 360 0 0 0 5 but
          /wVidXQ=
        >
        E 0 90 42 60
        E 90 80 42 00
        <X 30 0 0 0 5 that
          /wV0aGF0
        >
        E 0 90 42 60
        E 120 80 42 00
        <X 120 0 0 0 5 don't
          /wVkb24ndA==
        >
        E 0 90 42 60
        E 120 80 42 00
        <X 120 0 0 0 5 count
          /wVjb3VudA==
        >
        E 0 90 42 60
        E 120 80 42 00
        <X 120 0 0 0 5 he
          /wVoZQ==
        >
        E 0 90 42 60
        E 90 80 42 00
        <X 30 0 0 0 5 was
          /wV3YXM=
        >
        E 0 90 42 60
        E 90 80 42 00
        <X 60 0 0 0 5 sweet
          /wVzd2VldA==
        >
        E 0 90 42 60
        E 180 80 42 00
        <X 30 0 0 0 5 and
          /wVhbmQ=
        >
        E 0 90 42 60
        E 90 80 42 00
        <X 30 0 0 0 5 ex-
          /wVleC0=
        >
        E 0 90 42 60
        E 90 80 42 00
        <X 30 0 0 0 5 act-
          /wVhY3Qt
        >
        E 0 90 42 60
        E 180 80 42 00
        <X 60 0 0 0 5 ly
          /wVseQ==
        >
        E 0 90 42 60
        E 210 80 42 00
        <X 30 0 0 0 5 what
          /wV3aGF0
        >
        E 0 90 42 60
        E 90 80 42 00
        <X 30 0 0 0 5 he
          /wVoZQ==
        >
        E 0 90 42 60
        E 90 80 42 00
        <X 30 0 0 0 5 need-
          /wVuZWVkLQ==
        >
        E 0 90 42 60
        E 210 80 42 00
        <X 30 0 0 0 5 ed
          /wVlZA==
        >
        E 0 90 42 60
        E 180 80 42 00
        <X 60 0 0 0 5 him
          /wVoaW0=
        >
        E 0 90 42 60
        E 90 80 42 00
        <X 30 0 0 0 5 to
          /wV0bw==
        >
        E 0 90 42 60
        E 90 80 42 00
        <X 30 0 0 0 5 be
          /wViZQ==
        >
        E 0 90 42 60
        E 210 80 42 00
        <X 30 0 0 0 5 at
          /wVhdA==
        >
        E 0 90 42 60
        E 90 80 42 00
        <X 30 0 0 0 5 the
          /wV0aGU=
        >
        E 0 90 42 60
        E 90 80 42 00
        <X 30 0 0 0 5 time
          /wV0aW1l
        >
        E 0 90 42 60
        E 180 80 42 00
        <X 60 0 0 0 5 wine
          /wV3aW5l
        >
        E 0 90 42 60
        E 180 80 42 00
        <X 60 0 0 0 5 and
          /wVhbmQ=
        >
        E 0 90 42 60
        E 120 80 42 00
        <X 120 0 0 0 5 can-
          /wVjYW4t
        >
        E 0 90 42 60
        E 90 80 42 00
        <X 30 0 0 0 5 dle-
          /wVkbGUt
        >
        E 0 90 42 60
        E 90 80 42 00
        <X 30 0 0 0 5 light
          /wVsaWdodA==
        >
        E 0 90 42 60
        E 180 80 42 00
        <X 60 0 0 0 5 and
          /wVhbmQ=
        >
        E 0 90 42 60
        E 150 80 42 00
        <X 90 0 0 0 5 nice
          /wVuaWNl
        >
        E 0 90 42 60
        E 150 80 42 00
        <X 90 0 0 0 5 texts
          /wV0ZXh0cw==
        >
        E 0 90 42 60
        E 150 80 42 00
        <X 90 0 0 0 5 at
          /wVhdA==
        >
        E 0 90 42 60
        E 120 80 42 00
        <X 120 0 0 0 5 lunch-
          /wVsdW5jaC0=
        >
        E 0 90 42 60
        E 120 80 42 00
        <X 120 0 0 0 5 time
          /wV0aW1l
        >
        E 0 90 42 60
        E 240 80 42 00
        <X 480 0 0 0 5 Why
          /wVXaHk=
        >
        E 0 90 42 60
        E 90 80 42 00
        E 0 90 42 60
        E 90 80 42 00
        <X 60 0 0 0 5 had
          /wVoYWQ=
        >
        E 0 90 42 60
        E 180 80 42 00
        <X 60 0 0 0 5 he
          /wVoZQ==
        >
        E 0 90 42 60
        E 180 80 42 00
        <X 60 0 0 0 5 not
          /wVub3Q=
        >
        E 0 90 42 60
        E 180 80 42 00
        <X 60 0 0 0 5 called
          /wVjYWxsZWQ=
        >
        E 0 90 42 60
        E 180 80 42 00
        <X 60 0 0 0 5 Ron
          /wVSb24=
        >
        E 0 90 42 60
        E 180 80 42 00
        <X 60 0 0 0 5 back?
          /wViYWNrPw==
        >
        E 0 90 42 60
        E 120 80 42 00
        <X 120 0 0 0 5 Guess
          /wVHdWVzcw==
        >
        E 0 90 42 60
        E 150 80 42 00
        <X 90 0 0 0 5 there
          /wV0aGVyZQ==
        >
        E 0 90 42 60
        E 180 80 42 00
        <X 60 0 0 0 5 just
          /wVqdXN0
        >
        E 0 90 42 60
        E 120 80 42 00
        <X 120 0 0 0 5 was-
          /wV3YXMt
        >
        E 0 90 42 60
        E 180 80 42 00
        <X 60 0 0 0 5 n't
          /wVuJ3Q=
        >
        E 0 90 42 60
        E 150 80 42 00
        <X 90 0 0 0 5 a
          /wVh
        >
        E 0 90 42 60
        E 120 80 42 00
        <X 120 0 0 0 5 spark
          /wVzcGFyaw==
        >
        E 0 90 42 60
        E 150 80 42 00
        <X 90 0 0 0 5 ha!
          /wVoYSE=
        >
        E 0 90 42 60
        E 90 80 42 00
        <X 390 0 0 0 5 No
          /wVObw==
        >
        E 0 90 42 60
        E 90 80 42 00
        <X 30 0 0 0 5 no
          /wVubw==
        >
        E 0 90 42 60
        E 90 80 42 00
        <X 30 0 0 0 5 must-
          /wVtdXN0LQ==
        >
        E 0 90 42 60
        E 90 80 42 00
        <X 30 0 0 0 5 n't
          /wVuJ3Q=
        >
        E 0 90 42 60
        E 90 80 42 00
        <X 30 0 0 0 5 joke
          /wVqb2tl
        >
        E 0 90 42 60
        E 90 80 42 00
        <X 30 0 0 0 5 a-
          /wVhLQ==
        >
        E 0 90 42 60
        E 90 80 42 00
        <X 30 0 0 0 5 bout
          /wVib3V0
        >
        E 0 90 42 60
        E 150 80 42 00
        <X 90 0 0 0 5 these
          /wV0aGVzZQ==
        >
        E 0 90 42 60
        E 150 80 42 00
        <X 90 0 0 0 5 things
          /wV0aGluZ3M=
        >
        E 0 90 42 60
        E 150 80 42 00
        <X 90 0 0 0 5 would-
          /wV3b3VsZC0=
        >
        E 0 90 42 60
        E 90 80 42 00
        <X 30 0 0 0 5 n't
          /wVuJ3Q=
        >
        E 0 90 42 60
        E 90 80 42 00
        <X 30 0 0 0 5 wan-
          /wV3YW4t
        >
        E 0 90 42 60
        E 90 80 42 00
        <X 30 0 0 0 5 na
          /wVuYQ==
        >
        E 0 90 42 60
        E 90 80 42 00
        <X 30 0 0 0 5 dis-
          /wVkaXMt
        >
        E 0 90 42 60
        E 90 80 42 00
        <X 30 0 0 0 5 ap-
          /wVhcC0=
        >
        E 0 90 42 60
        E 90 80 42 00
        <X 30 0 0 0 5 point
          /wVwb2ludA==
        >
        E 0 90 42 60
        E 150 80 42 00
        <X 90 0 0 0 5 Doc
          /wVEb2M=
        >
        E 0 90 42 60
        E 150 80 42 00
        <X 90 0 0 0 5 Clark
          /wVDbGFyaw==
        >
        E 0 90 42 60
        E 150 80 42 00
        <X 90 0 0 0 5 so
          /wVzbw==
        >
        E 0 90 42 60
        E 180 80 42 00
        <X 60 0 0 0 5 ma-
          /wVtYS0=
        >
        E 0 90 42 60
        E 90 80 42 00
        <X 30 0 0 0 5 ny
          /wVueQ==
        >
        E 0 90 42 60
        E 90 80 42 00
        <X 30 0 0 0 5 ho-
          /wVoby0=
        >
        E 0 90 42 60
        E 90 80 42 00
        <X 30 0 0 0 5 urs
          /wV1cnM=
        >
        E 0 90 42 60
        E 90 80 42 00
        <X 30 0 0 0 5 on
          /wVvbg==
        >
        E 0 90 42 60
        E 90 80 42 00
        <X 30 0 0 0 5 the
          /wV0aGU=
        >
        E 0 90 42 60
        E 90 80 42 00
        <X 30 0 0 0 5 couch
          /wVjb3VjaA==
        >
        E 0 90 42 60
        E 180 80 42 00
        <X 540 0 0 0 5 so
          /wVzbw==
        >
        E 0 90 42 60
        E 180 80 42 00
        <X 60 0 0 0 5 ma-
          /wVtYS0=
        >
        E 0 90 42 60
        E 90 80 42 00
        <X 30 0 0 0 5 ny
          /wVueQ==
        >
        E 0 90 42 60
        E 90 80 42 00
        <X 30 0 0 0 5 bur-
          /wVidXIt
        >
        E 0 90 42 60
        E 90 80 42 00
        <X 30 0 0 0 5 ied
          /wVpZWQ=
        >
        E 0 90 42 60
        E 90 80 42 00
        <X 30 0 0 0 5 me-
          /wVtZS0=
        >
        E 0 90 42 60
        E 90 80 42 00
        <X 30 0 0 0 5 mo-
          /wVtby0=
        >
        E 0 90 42 60
        E 90 80 42 00
        <X 30 0 0 0 5 ries
          /wVyaWVz
        >
        E 0 90 42 60
        E 150 80 42 00
        <X 90 0 0 0 5 that
          /wV0aGF0
        >
        E 0 90 42 60
        E 120 80 42 00
        <X 120 0 0 0 5 take
          /wV0YWtl
        >
        E 0 90 42 60
        E 120 80 42 00
        <X 120 0 0 0 5 so
          /wVzbw==
        >
        E 0 90 42 60
        E 180 80 42 00
        <X 60 0 0 0 5 ma-
          /wVtYS0=
        >
        E 0 90 42 60
        E 90 80 42 00
        <X 30 0 0 0 5 ny
          /wVueQ==
        >
        E 0 90 42 60
        E 90 80 42 00
        <X 30 0 0 0 5 tears
          /wV0ZWFycw==
        >
        E 0 90 42 60
        E 90 80 42 00
        <X 30 0 0 0 5 to
          /wV0bw==
        >
        E 0 90 42 60
        E 90 80 42 00
        <X 30 0 0 0 5 get
          /wVnZXQ=
        >
        E 0 90 42 60
        E 90 80 42 00
        <X 30 0 0 0 5 "'em"
          /wUnZW0=
        >
        E 0 90 42 60
        E 90 80 42 00
        <X 30 0 0 0 5 out
          /wVvdXQ=
        >
        E 0 90 42 60
        E 180 80 42 00
        <X 540 0 0 0 5 wa-
          /wV3YS0=
        >
        E 0 90 42 60
        E 90 80 42 00
        <X 30 0 0 0 5 ter
          /wV0ZXI=
        >
        E 0 90 42 60
        E 90 80 42 00
        <X 30 0 0 0 5 had-
          /wVoYWQt
        >
        E 0 90 42 60
        E 90 80 42 00
        <X 30 0 0 0 5 n't
          /wVuJ3Q=
        >
        E 0 90 42 60
        E 90 80 42 00
        <X 30 0 0 0 5 nev-
          /wVuZXYt
        >
        E 0 90 42 60
        E 90 80 42 00
        <X 30 0 0 0 5 er
          /wVlcg==
        >
        E 0 90 42 60
        E 90 80 42 00
        <X 30 0 0 0 5 been
          /wViZWVu
        >
        E 0 90 42 60
        E 90 80 42 00
        <X 30 0 0 0 5 a
          /wVh
        >
        E 0 90 42 60
        E 90 80 42 00
        <X 30 0 0 0 5 friend
          /wVmcmllbmQ=
        >
        E 0 90 42 60
        E 150 80 42 00
        <X 90 0 0 0 5 hold
          /wVob2xk
        >
        E 0 90 42 60
        E 90 80 42 00
        <X 30 0 0 0 5 up
          /wV1cA==
        >
        E 0 90 42 60
        E 90 80 42 00
        <X 270 0 0 0 5 Where
          /wVXaGVyZQ==
        >
        E 0 90 42 60
        E 180 80 42 00
        <X 60 0 0 0 5 had
          /wVoYWQ=
        >
        E 0 90 42 60
        E 120 80 42 00
        <X 120 0 0 0 5 he
          /wVoZQ==
        >
        E 0 90 42 60
        E 120 80 42 00
        <X 120 0 0 0 5 seen
          /wVzZWVu
        >
        E 0 90 42 60
        E 180 80 42 00
        <X 60 0 0 0 5 that
          /wV0aGF0
        >
        E 0 90 42 60
        E 120 80 42 00
        <X 120 0 0 0 5 car
          /wVjYXI=
        >
        E 0 90 42 60
        E 180 80 42 00
        <X 60 0 0 0 5 be-
          /wViZS0=
        >
        E 0 90 42 60
        E 120 80 42 00
        <X 120 0 0 0 5 fore?
          /wVmb3JlPw==
        >
        E 0 90 42 60
        E 180 80 42 00
        E 254460 b0 7b 00
        GUID {C9A1A4CA-4224-4672-91C0-075BEB2A8650}
        IGNTEMPO 0 120 4 4
        SRCCOLOR 275
        VELLANE 132 128 128
        COLORMAP "M:\RGS Documents\ColorMaps\rockband_vox-other.png"
        TEXTSTRINGFILE "Text Events List.txt"
        CFGEDITVIEW 56063.150858 231.723165 0 12 0 -1 0 0 0 0.5
        KEYSNAP 0
        TRACKSEL 0
        EVTFILTER 0 -1 -1 -1 -1 0 1 0 0 -1 -1 -1 -1 0 -1 0 -1 -1
        CFGEDIT 1 1 0 0 1 1 1 1 1 1 1 0.0625 111 101 1212 781 0 2 2 2 0 0 0 0 0 0.5 1 0 1 64
      >
    >
  >
  <TRACK {B69CAFC7-B4D2-4EA1-8D52-3F9950CEA054}
    NAME "Game Vocals"
    PEAKCOL 16576
    BEAT -1
    AUTOMODE 0
    VOLPAN 1 0 -1 -1 1
    MUTESOLO 0 0 0
    IPHASE 0
    ISBUS 0 0
    BUSCOMP 0 0
    SHOWINMIX 1 0.6667 0.5 1 0.5 0 0 0
    FREEMODE 0
    SEL 0
    REC 0 0 0 0 0 0 0
    TRACKHEIGHT 0 0
    INQ 0 0 0 0.5 100 0 0 100
    NCHAN 2
    FX 1
    TRACKID {B69CAFC7-B4D2-4EA1-8D52-3F9950CEA054}
    PERF 0
    MIDIOUT -1
    MAINSEND 1 0
  >
  <TRACK {930D0CC6-1288-46BF-B0B7-99A1AB2951F9}
    NAME "Dry Vox"
    PEAKCOL 16576
    BEAT -1
    AUTOMODE 0
    VOLPAN 1 0 -1 -1 1
    MUTESOLO 0 0 0
    IPHASE 0
    ISBUS 0 0
    BUSCOMP 0 0
    SHOWINMIX 1 0.6667 0.5 1 0.5 0 0 0
    FREEMODE 0
    SEL 0
    REC 0 0 0 0 0 0 0
    TRACKHEIGHT 0 0
    INQ 0 0 0 0.5 100 0 0 100
    NCHAN 2
    FX 1
    TRACKID {930D0CC6-1288-46BF-B0B7-99A1AB2951F9}
    PERF 0
    MIDIOUT -1
    MAINSEND 1 0
  >
  <TRACK {5E5051CF-6773-4B74-AE45-BADD96A7174A}
    NAME "Dry Vox Harm"
    PEAKCOL 16576
    BEAT -1
    AUTOMODE 0
    VOLPAN 1 0 -1 -1 1
    MUTESOLO 0 0 0
    IPHASE 0
    ISBUS 0 0
    BUSCOMP 0 0
    SHOWINMIX 1 0.6667 0.5 1 0.5 0 0 0
    FREEMODE 0
    SEL 0
    REC 0 0 0 0 0 0 0
    TRACKHEIGHT 0 0
    INQ 0 0 0 0.5 100 0 0 100
    NCHAN 2
    FX 1
    TRACKID {5E5051CF-6773-4B74-AE45-BADD96A7174A}
    PERF 0
    MIDIOUT -1
    MAINSEND 1 0
  >
  <TRACK {E60BCF67-80FD-4554-840A-5B0B5C2E06A0}
    NAME HARM1
    PEAKCOL 24624127
    BEAT -1
    AUTOMODE 0
    VOLPAN 1 0 -1 -1 1
    MUTESOLO 0 0 0
    IPHASE 0
    ISBUS 0 0
    BUSCOMP 0 0
    SHOWINMIX 1 0.6667 0.5 1 0.5 0 0 0
    FREEMODE 0
    SEL 0
    REC 0 0 0 0 0 0 0
    TRACKHEIGHT 0 0
    INQ 0 0 0 0.5 100 0 0 100
    NCHAN 2
    FX 1
    TRACKID {E60BCF67-80FD-4554-840A-5B0B5C2E06A0}
    PERF 0
    MIDIOUT -1
    <MIDINOTENAMES
      0 0 "Range Shift" 0 0
      0 1 "Lyric Shift" 0 1
      0 36 "Lowest Note C1" 0 36
      0 37 C#1 0 37
      0 38 D1 0 38
      0 39 D#1 0 39
      0 40 E1 0 40
      0 41 F1 0 41
      0 42 F#1 0 42
      0 43 G1 0 43
      0 44 G#1 0 44
      0 45 A1 0 45
      0 46 A#1 0 46
      0 47 B1 0 47
      0 48 C2 0 48
      0 49 C#2 0 49
      0 50 D2 0 50
      0 51 D#2 0 51
      0 52 E2 0 52
      0 53 F2 0 53
      0 54 F#2 0 54
      0 55 G2 0 55
      0 56 G#2 0 56
      0 57 A2 0 57
      0 58 A#2 0 58
      0 59 B2 0 59
      0 60 C3 0 60
      0 61 C## 0 61
      0 62 D3 0 62
      0 63 D#3 0 63
      0 64 E3 0 64
      0 65 F3 0 65
      0 66 F#3 0 66
      0 67 G3 0 67
      0 68 G#3 0 68
      0 69 A3 0 69
      0 70 A#3 0 70
      0 71 B3 0 71
      0 72 C4 0 72
      0 73 C#4 0 73
      0 74 D4 0 74
      0 75 D#4 0 75
      0 76 E4 0 76
      0 77 F4 0 77
      0 78 F#4 0 78
      0 79 G4 0 79
      0 80 G#4 0 80
      0 81 A4 0 81
      0 82 A#4 0 82
      0 83 "Highest Note B4" 0 83
      0 105 "Phrase Marker" 0 105
    >
    MAINSEND 1 0
    <FXCHAIN
      SHOW 0
      LASTSEL 0
      DOCKED 0
    >
    <ITEM
      POSITION 0
      SNAPOFFS 0
      LENGTH 261.81818181823189
      LOOP 0
      ALLTAKES 0
      FADEIN 1 0 0 1 0 0
      FADEOUT 1 0 0 1 0 0
      MUTE 0
      SEL 0
      IGUID {FE84F6DE-5A5E-43D1-BFBE-4632BD10F85F}
      IID 5
      NAME "HARM1 untitled MIDI item"
      VOLPAN 1 0 1 -1
      SOFFS 0 0
      PLAYRATE 1 1 0 -1 0 0.0025
      CHANMODE 0
      GUID {188D8841-6EF7-4ADC-A9DC-A83C2882A63B}
      <SOURCE MIDI
        HASDATA 1 480 QN
        POOLEDEVTS {3DF8AA51-03D3-41B1-9512-5797B86736C1}
        <X 0 0 0 0 3 "PART HARM1"
          /wNQQVJUIEhBUk0x
        >
        E 311040 b0 7b 00
        GUID {D78D8959-2AD8-48C0-8F6C-4A6670952331}
        IGNTEMPO 0 120 4 4
        SRCCOLOR 276
        VELLANE 132 128 60
        COLORMAP "C:\Program Files\REAPER\Data\color_maps\rockband_guitarbass.png"
        TEXTSTRINGFILE "C:\Program Files\REAPER\Data\Text_Strings\Text Events List.txt"
        CFGEDITVIEW 0 69.471661 0 12 0 0 0 0 0 0.5
        KEYSNAP 0
        TRACKSEL 0
        EVTFILTER 0 -1 -1 -1 -1 0 1 0 0 -1 -1 -1 -1 0 -1 0 -1 -1
        CFGEDIT 1 1 0 1 1 1 1 1 1 1 1 0.0625 -8 -8 1374 736 0 2 1 2 0 0 0 0 0 0.5 1 0 1 64
      >
    >
  >
  <TRACK {983C7D04-DAF6-462A-B5E6-64213F29FBA0}
    NAME HARM2
    PEAKCOL 24624127
    BEAT -1
    AUTOMODE 0
    VOLPAN 1.00497380427334 0 -1 -1 1
    MUTESOLO 0 0 0
    IPHASE 0
    ISBUS 0 0
    BUSCOMP 0 0
    SHOWINMIX 1 0.6667 0.5 1 0.5 0 0 0
    FREEMODE 0
    SEL 0
    REC 0 0 0 0 0 0 0
    TRACKHEIGHT 0 0
    INQ 0 0 0 0.5 100 0 0 100
    NCHAN 2
    FX 1
    TRACKID {983C7D04-DAF6-462A-B5E6-64213F29FBA0}
    PERF 0
    MIDIOUT -1
    <MIDINOTENAMES
      0 0 "Range Shift" 0 0
      0 1 "Lyric Shift" 0 1
      0 35 ---- 0 35
      0 36 "Lowest Note C1" 0 36
      0 37 C#1 0 37
      0 38 D1 0 38
      0 39 D#1 0 39
      0 40 E1 0 40
      0 41 F1 0 41
      0 42 F#1 0 42
      0 43 G1 0 43
      0 44 G#1 0 44
      0 45 A1 0 45
      0 46 A#1 0 46
      0 47 B1 0 47
      0 48 C2 0 48
      0 49 C#2 0 49
      0 50 D2 0 50
      0 51 D#2 0 51
      0 52 E2 0 52
      0 53 F2 0 53
      0 54 F#2 0 54
      0 55 G2 0 55
      0 56 G#2 0 56
      0 57 A2 0 57
      0 58 A#2 0 58
      0 59 B2 0 59
      0 60 C3 0 60
      0 61 C#3 0 61
      0 62 D3 0 62
      0 63 D#3 0 63
      0 64 E3 0 64
      0 65 F3 0 65
      0 66 F#3 0 66
      0 67 G3 0 67
      0 68 G#3 0 68
      0 69 A3 0 69
      0 70 A#3 0 70
      0 71 B3 0 71
      0 72 C4 0 72
      0 73 C#4 0 73
      0 74 D4 0 74
      0 75 D#4 0 75
      0 76 E4 0 76
      0 77 F4 0 77
      0 78 F#4 0 78
      0 79 G4 0 79
      0 80 G#4 0 80
      0 81 A4 0 81
      0 82 A#4 0 82
      0 83 "Highest Note B4" 0 83
      0 84 ---- 0 84
      0 105 "Phrase Marker" 0 105
    >
    MAINSEND 1 0
    <FXCHAIN
      SHOW 0
      LASTSEL 0
      DOCKED 0
    >
    <ITEM
      POSITION 0
      SNAPOFFS 0
      LENGTH 261.81818181823189
      LOOP 0
      ALLTAKES 0
      FADEIN 1 0 0 1 0 0
      FADEOUT 1 0 0 1 0 0
      MUTE 0
      SEL 0
      IGUID {85B4D2FA-0EE6-4979-8286-EAC89A15680D}
      IID 6
      NAME "HARM2 untitled MIDI item"
      VOLPAN 1 0 1 -1
      SOFFS 0 0
      PLAYRATE 1 1 0 -1 0 0.0025
      CHANMODE 0
      GUID {67C8C31A-733D-46F5-9A6D-0FDF2143554E}
      <SOURCE MIDI
        HASDATA 1 480 QN
        POOLEDEVTS {2A6020CA-77C4-4A31-B790-37472E09F1D5}
        <X 0 0 0 0 3 "PART HARM2"
          /wNQQVJUIEhBUk0y
        >
        E 311040 b0 7b 00
        GUID {E53B89F8-ECC8-4A25-86E2-BC4D240C9444}
        IGNTEMPO 0 120 4 4
        SRCCOLOR 277
        VELLANE 132 128 60
        COLORMAP "C:\Program Files\REAPER\Data\color_maps\rockband_guitarbass.png"
        TEXTSTRINGFILE "C:\Program Files\REAPER\Data\Text_Strings\Text Events List.txt"
        CFGEDITVIEW 0 69.471661 0 12 0 0 0 0 0 0.5
        KEYSNAP 0
        TRACKSEL 0
        EVTFILTER 0 -1 -1 -1 -1 0 1 0 0 -1 -1 -1 -1 0 -1 0 -1 -1
        CFGEDIT 1 1 0 1 1 1 1 1 1 1 1 0.0625 -8 -8 1374 736 0 2 1 2 0 0 0 0 0 0.5 1 0 1 64
      >
    >
  >
  <TRACK {4299BF31-E988-4C64-900A-97AC9ECE5EBC}
    NAME HARM3
    PEAKCOL 24624127
    BEAT -1
    AUTOMODE 0
    VOLPAN 1 0 -1 -1 1
    MUTESOLO 0 0 0
    IPHASE 0
    ISBUS 2 -1
    BUSCOMP 0 0
    SHOWINMIX 1 0.6667 0.5 1 0.5 0 0 0
    FREEMODE 0
    SEL 0
    REC 0 0 0 0 0 0 0
    TRACKHEIGHT 0 0
    INQ 0 0 0 0.5 100 0 0 100
    NCHAN 2
    FX 1
    TRACKID {4299BF31-E988-4C64-900A-97AC9ECE5EBC}
    PERF 0
    MIDIOUT -1
    <MIDINOTENAMES
      0 0 "Range Shift" 0 0
      0 1 "Lyric Shift" 0 1
      0 35 ---- 0 35
      0 36 "Lowest Note C1" 0 36
      0 37 C#1 0 37
      0 38 D1 0 38
      0 39 D#1 0 39
      0 40 E1 0 40
      0 41 F1 0 41
      0 42 F#1 0 42
      0 43 G1 0 43
      0 44 G#1 0 44
      0 45 A1 0 45
      0 46 A#1 0 46
      0 47 B1 0 47
      0 48 C2 0 48
      0 49 C#2 0 49
      0 50 D2 0 50
      0 51 D#2 0 51
      0 52 E2 0 52
      0 53 F2 0 53
      0 54 F#2 0 54
      0 55 G2 0 55
      0 56 G#2 0 56
      0 57 A2 0 57
      0 58 A#2 0 58
      0 59 B2 0 59
      0 60 C3 0 60
      0 61 C#3 0 61
      0 62 D3 0 62
      0 63 D#3 0 63
      0 64 E3 0 64
      0 65 F3 0 65
      0 66 F#3 0 66
      0 67 G3 0 67
      0 68 G#3 0 68
      0 69 A3 0 69
      0 70 A#3 0 70
      0 71 B3 0 71
      0 72 C4 0 72
      0 73 C#4 0 73
      0 74 D4 0 74
      0 75 D#4 0 75
      0 76 E4 0 76
      0 77 F4 0 77
      0 78 F#4 0 78
      0 79 G4 0 79
      0 80 A#4 0 80
      0 81 A4 0 81
      0 82 A#3 0 82
      0 83 "Highest Note B4" 0 83
      0 84 ---- 0 84
    >
    MAINSEND 1 0
    <FXCHAIN
      SHOW 0
      LASTSEL 0
      DOCKED 0
    >
    <ITEM
      POSITION 0
      SNAPOFFS 0
      LENGTH 261.81818181823189
      LOOP 0
      ALLTAKES 0
      FADEIN 1 0 0 1 0 0
      FADEOUT 1 0 0 1 0 0
      MUTE 0
      SEL 0
      IGUID {14DAFADF-64E7-40FA-8E65-65BBB77CBDB7}
      IID 7
      NAME "HARM3 untitled MIDI item"
      VOLPAN 1 0 1 -1
      SOFFS 0 0
      PLAYRATE 1 1 0 -1 0 0.0025
      CHANMODE 0
      GUID {BA30FF02-694D-4D9D-9D54-87AECA42C3BA}
      <SOURCE MIDI
        HASDATA 1 480 QN
        POOLEDEVTS {4F27C5B6-099E-4216-8A80-C1FAA282BF0E}
        <X 0 0 0 0 3 "PART HARM3"
          /wNQQVJUIEhBUk0z
        >
        E 311040 b0 7b 00
        GUID {F1082209-E2A8-4526-8AA6-2FE8F2DEB335}
        IGNTEMPO 0 120 4 4
        SRCCOLOR 278
        VELLANE 132 128 60
        COLORMAP "C:\Program Files\REAPER\Data\color_maps\rockband_guitarbass.png"
        TEXTSTRINGFILE "C:\Program Files\REAPER\Data\Text_Strings\Text Events List.txt"
        CFGEDITVIEW 0 69.471661 0 12 0 0 0 0 0 0.5
        KEYSNAP 0
        TRACKSEL 0
        EVTFILTER 0 -1 -1 -1 -1 0 1 0 0 -1 -1 -1 -1 0 -1 0 -1 -1
        CFGEDIT 1 1 0 1 1 1 1 1 1 1 1 0.0625 -8 -8 1374 736 0 2 1 2 0 0 0 0 0 0.5 1 0 1 64
      >
    >
  >
  <TRACK {14F64FB7-FE44-4E53-9F58-44F4178BCEF9}
    NAME "PART KEYS"
    PEAKCOL 16842496
    BEAT -1
    AUTOMODE 0
    VOLPAN 1 0 -1 -1 1
    MUTESOLO 0 0 0
    IPHASE 0
    ISBUS 1 1
    BUSCOMP 0 0
    SHOWINMIX 1 0.6667 0.5 1 0.5 0 0 0
    FREEMODE 0
    SEL 0
    REC 0 0 0 0 0 0 0
    TRACKHEIGHT 0 0
    INQ 0 0 0 0.5 100 0 0 100
    NCHAN 2
    FX 1
    TRACKID {14F64FB7-FE44-4E53-9F58-44F4178BCEF9}
    PERF 0
    MIDIOUT -1
    <MIDINOTENAMES
      0 60 "EASY Green" 0 60
      0 61 "EASY Red" 0 61
      0 62 "EASY Yellow" 0 62
      0 63 "EASY Blue" 0 63
      0 64 "EASY Orange" 0 64
      0 71 ---- 0 71
      0 72 "MEDIUM Green" 0 72
      0 73 "MEDIUM Red" 0 73
      0 74 "MEDIUM Yellow" 0 74
      0 75 "MEDIUM Blue" 0 75
      0 76 "MEDIUM Orange" 0 76
      0 83 ---- 0 83
      0 84 "HARD Green" 0 84
      0 85 "HARD Red" 0 85
      0 86 "HARD Yellow" 0 86
      0 87 "HARD Blue" 0 87
      0 88 "HARD Orange" 0 88
      0 95 ---- 0 95
      0 96 "EXPERT Green" 0 96
      0 97 "EXPERT Red" 0 97
      0 98 "EXPERT Yellow" 0 98
      0 99 "EXPERT Blue" 0 99
      0 100 "EXPERT Orange" 0 100
      0 102 ---- 0 102
      0 103 "Solo Marker" 0 103
      0 115 ---- 0 115
      0 116 OVERDRIVE 0 116
      0 119 ---- 0 119
      0 120 "BRE (use all 5)" 0 120
      0 121 BRE 0 121
      0 122 BRE 0 122
      0 123 BRE 0 123
      0 124 BRE 0 124
      0 126 ---- 0 126
      0 127 "Trill Marker" 0 127
    >
    MAINSEND 1 0
    <FXCHAIN
      WNDRECT 0 40 878 585
      SHOW 0
      LASTSEL 0
      DOCKED 0
      BYPASS 0 0 0
      <VST "VSTi: RBN Preview (RBN)" rbprev_vst.dll 0 "" 1919053942
        dnBicu5e7f4AAAAAAgAAAAEAAAAAAAAAAgAAAAAAAAAEAAAAAQAAAAAAAAA=
        AwCqAA==
        AAAAAAAA
      >
      FLOATPOS 0 0 0 0
      FXID {EE0C80EE-5E5F-4EA2-B367-78AAAB3793F5}
      WAK 0
    >
    <ITEM
      POSITION 0
      SNAPOFFS 0
      LENGTH 288.727272727323
      LOOP 0
      ALLTAKES 0
      FADEIN 1 0 0 1 0 0
      FADEOUT 1 0 0 1 0 0
      MUTE 0
      SEL 0
      IGUID {52D9F6AC-16AD-4CE9-95E4-6AD6396BB4E2}
      IID 8
      NAME "PART KEYS"
      VOLPAN 1 0 1 -1
      SOFFS 0 0
      PLAYRATE 1 1 0 -65536 0 0.0025
      CHANMODE 0
      GUID {78E1CCBD-C30B-4DD8-81CD-2AEB0D2D38C8}
      <SOURCE MIDI
        HASDATA 1 480 QN
        POOLEDEVTS {7C59978F-BC7C-4DCD-9984-2797F463D5F9}
        <X 0 0 0 0 3 "PART KEYS"
          /wNQQVJUIEtFWVM=
        >
        E 346560 b0 7b 00
        GUID {F537F270-CEBA-461E-8612-DC28913708FC}
        IGNTEMPO 0 120 4 4
        SRCCOLOR 279
        VELLANE 132 128 60
        COLORMAP "M:\RGS Documents\ColorMaps\rockband_guitarbass.png"
        TEXTSTRINGFILE "C:\Program Files\REAPER\Data\Text_Strings\Text Events List.txt"
        CFGEDITVIEW 0 69.471661 0 12 0 0 0 0 0 0.5
        KEYSNAP 0
        TRACKSEL 0
        EVTFILTER 0 -1 -1 -1 -1 0 1 0 0 -1 -1 -1 -1 0 -1 0 -1 -1
        CFGEDIT 1 1 0 0 0 1 1 1 1 1 1 0.25 -8 -8 1370 736 0 2 1 2 0 0 0 0 0 0.5 1 0 1 64
      >
    >
  >
  <TRACK {D39F8BD7-8730-4182-94EC-51AF9F9ACC90}
    NAME "PART REAL_KEYS_X"
    PEAKCOL 25231232
    BEAT -1
    AUTOMODE 0
    VOLPAN 1 0 -1 -1 1
    MUTESOLO 0 0 0
    IPHASE 0
    ISBUS 0 0
    BUSCOMP 1 0
    SHOWINMIX 1 0.6667 0.5 1 0.5 0 0 0
    FREEMODE 0
    SEL 0
    REC 0 0 0 0 0 0 0
    TRACKHEIGHT 0 0
    INQ 0 0 0 0.5 100 0 0 100
    NCHAN 2
    FX 1
    TRACKID {D39F8BD7-8730-4182-94EC-51AF9F9ACC90}
    PERF 0
    MIDIOUT -1
    <MIDINOTENAMES
      0 0 "C2-E3 Range" 0 0
      0 5 "F2-A3 Range" 0 5
      0 9 "A2-C4 Range" 0 9
      0 47 ---- 0 47
      0 48 "C2 (Lowest Note)" 0 48
      0 49 C#2 0 49
      0 50 D2 0 50
      0 51 D#2 0 51
      0 52 E2 0 52
      0 53 F2 0 53
      0 54 F#2 0 54
      0 55 G2 0 55
      0 56 G#2 0 56
      0 57 A2 0 57
      0 58 A#2 0 58
      0 59 B2 0 59
      0 60 C3 0 60
      0 61 C#3 0 61
      0 62 D3 0 62
      0 63 D#3 0 63
      0 64 E3 0 64
      0 65 F3 0 65
      0 66 F#3 0 66
      0 67 G3 0 67
      0 68 G#3 0 68
      0 69 A3 0 69
      0 70 A#3 0 70
      0 71 B3 0 71
      0 72 "C4 (Highest Note)" 0 72
      0 114 ---- 0 114
      0 115 "Solo Marker" 0 115
      0 116 "Overdrive Marker" 0 116
      0 125 ---- 0 125
      0 126 "Glissando Marker" 0 126
      0 127 "Trill Marker" 0 127
    >
    MAINSEND 1 0
    <FXCHAIN
      WNDRECT 0 40 655 493
      SHOW 0
      LASTSEL 1
      DOCKED 0
      BYPASS 0 0 0
      <JS "IX/MIDI_Tool II" ""
        0.000000 85.000000 127.000000 0.000000 0.000000 0.000000 100.000000 0.000000 0.000000 127.000000 0.000000 0.000000 1.000000 0.000000 0.000000 - - - - - - - - - - - - - - - - - - - - - - - - - - - - - - - - - - - - - - - - - - - - - - - - - 
      >
      FLOATPOS 0 0 0 0
      FXID {A891DAA7-5D8A-4720-AA8F-E43D2ABA2AE5}
      WAK 0
      BYPASS 0 0 0
      <VST "VSTi: ReaSynth (Cockos)" reasynth.dll 0 "" 1919251321
        eXNlcu9e7f4AAAAAAgAAAAEAAAAAAAAAAgAAAAAAAAA8AAAAAAAAAAAAAAA=
        776t3g3wrd6mm8Q7F7fROpzEoD5zaNE+AAAAAMybgD7pZ4g9AAAAAAAAAD8AAIA/6SaxPgAAAD8AAIA/
        AAAAAAAA
      >
      FLOATPOS 0 0 0 0
      FXID {A0CE5851-0C70-49E2-AD61-BC7B1C50A030}
      WAK 0
    >
    <ITEM
      POSITION 0
      SNAPOFFS 0
      LENGTH 288.727272727323
      LOOP 0
      ALLTAKES 0
      FADEIN 1 0 0 1 0 0
      FADEOUT 1 0 0 1 0 0
      MUTE 0
      SEL 0
      IGUID {974100C2-06C4-4CB5-BD67-2F1BC71A1259}
      IID 9
      NAME "PART REAL_KEYS_X"
      VOLPAN 1 0 1 -1
      SOFFS 0 0
      PLAYRATE 1 1 0 -65536 0 0.0025
      CHANMODE 0
      GUID {08703F3F-9741-46EB-9ED4-B09B2390F876}
      <SOURCE MIDI
        HASDATA 1 480 QN
        POOLEDEVTS {4C7A03B6-DF65-46C5-9728-C85754155485}
        <X 0 0 0 0 3 "PART REAL_KEYS_X"
          /wNQQVJUIFJFQUxfS0VZU19Y
        >
        E 346560 b0 7b 00
        GUID {0E0CBFB7-4AC8-4E67-A764-85891754BB41}
        IGNTEMPO 0 120 4 4
        SRCCOLOR 280
        VELLANE 132 128 60
        COLORMAP "C:\Program Files\REAPER\Data\color_maps\rockband_guitarbass.png"
        TEXTSTRINGFILE "C:\Program Files\REAPER\Data\Text_Strings\Text Events List.txt"
        CFGEDITVIEW -538.924786 69.471661 0 15 0 0 0 0 0 0.5
        KEYSNAP 0
        TRACKSEL 0
        EVTFILTER 0 -1 -1 -1 -1 0 1 0 0 -1 -1 -1 -1 0 -1 0 -1 -1
        CFGEDIT 1 1 0 1 1 1 1 1 1 1 1 0.25 -8 -8 1370 736 0 2 1 2 0 0 0 0 0 0.5 1 0 1 64
      >
    >
  >
  <TRACK {117931B6-9EA5-432A-AEED-ACF4C8876354}
    NAME "PART REAL _KEYS_H"
    PEAKCOL 25231232
    BEAT -1
    AUTOMODE 0
    VOLPAN 1.00000843600341 0 -1 -1 1
    MUTESOLO 0 0 0
    IPHASE 0
    ISBUS 0 0
    BUSCOMP 0 0
    SHOWINMIX 1 0.6667 0.5 1 0.5 0 0 0
    FREEMODE 0
    SEL 0
    REC 0 0 0 0 0 0 0
    TRACKHEIGHT 0 1
    INQ 0 0 0 0.5 100 0 0 100
    NCHAN 2
    FX 1
    TRACKID {117931B6-9EA5-432A-AEED-ACF4C8876354}
    PERF 0
    MIDIOUT -1
    <MIDINOTENAMES
      0 0 "C2-E3 Range" 0 0
      0 5 "F2-A3 Range" 0 5
      0 9 "A2-C4 Range" 0 9
      0 47 ---- 0 47
      0 48 "C2 (Lowest Note)" 0 48
      0 49 C#2 0 49
      0 50 D2 0 50
      0 51 D#2 0 51
      0 52 E2 0 52
      0 53 F2 0 53
      0 54 F#2 0 54
      0 55 G2 0 55
      0 56 G#2 0 56
      0 57 A2 0 57
      0 58 A#2 0 58
      0 59 B2 0 59
      0 60 C3 0 60
      0 61 C#3 0 61
      0 62 D3 0 62
      0 63 D#3 0 63
      0 64 E3 0 64
      0 65 F3 0 65
      0 66 F#3 0 66
      0 67 G3 0 67
      0 68 G#3 0 68
      0 69 A3 0 69
      0 70 A#3 0 70
      0 71 B3 0 71
      0 72 "C4 (Highest Note)" 0 72
      0 114 ---- 0 114
      0 115 "Solo Marker" 0 115
      0 116 "Overdrive Marker" 0 116
      0 125 ---- 0 125
      0 126 "Glissando Marker" 0 126
      0 127 "Trill Marker" 0 127
    >
    MAINSEND 1 0
    <FXCHAIN
      SHOW 0
      LASTSEL 0
      DOCKED 0
    >
    <ITEM
      POSITION 0
      SNAPOFFS 0
      LENGTH 288.727272727323
      LOOP 0
      ALLTAKES 0
      FADEIN 1 0 0 1 0 0
      FADEOUT 1 0 0 1 0 0
      MUTE 0
      SEL 0
      IGUID {DA514BF3-AF34-46C0-BD23-58406C871A44}
      IID 10
      NAME "PART REAL _KEYS_H"
      VOLPAN 1 0 1 -1
      SOFFS 0 0
      PLAYRATE 1 1 0 -65536 0 0.0025
      CHANMODE 0
      GUID {8E0AC36B-D538-4BB8-A507-FFF40527D1BA}
      <SOURCE MIDI
        HASDATA 1 480 QN
        POOLEDEVTS {48B6626A-5E25-4DDA-8103-F0516A225ED3}
        <X 0 0 0 0 3 "PART REAL_KEYS_H"
          /wNQQVJUIFJFQUxfS0VZU19I
        >
        E 346560 b0 7b 00
        GUID {53F487B1-1F2F-4D54-9DAE-BC2E7B032E3B}
        IGNTEMPO 0 120 4 4
        SRCCOLOR 281
        VELLANE 132 128 60
        COLORMAP "C:\Program Files\REAPER\Data\color_maps\rockband_guitarbass.png"
        TEXTSTRINGFILE "C:\Program Files\REAPER\Data\Text_Strings\Text Events List.txt"
        CFGEDITVIEW -207.278764 69.471661 0 14 0 0 0 0 0 0.5
        KEYSNAP 0
        TRACKSEL 0
        EVTFILTER 0 -1 -1 -1 -1 0 1 0 0 -1 -1 -1 -1 0 -1 0 -1 -1
        CFGEDIT 1 1 0 1 1 1 1 1 1 1 1 0.25 -8 -8 1374 736 0 2 1 2 0 0 0 0 0 0.5 1 0 1 64
      >
    >
  >
  <TRACK {3B6F726E-1CAB-4A00-9B01-2E1CC375B13E}
    NAME "PART REAL_KEYS_M"
    PEAKCOL 25231232
    BEAT -1
    AUTOMODE 0
    VOLPAN 1 0 -1 -1 1
    MUTESOLO 0 0 0
    IPHASE 0
    ISBUS 0 0
    BUSCOMP 0 0
    SHOWINMIX 1 0.6667 0.5 1 0.5 0 0 0
    FREEMODE 0
    SEL 0
    REC 0 0 0 0 0 0 0
    TRACKHEIGHT 0 1
    INQ 0 0 0 0.5 100 0 0 100
    NCHAN 2
    FX 1
    TRACKID {3B6F726E-1CAB-4A00-9B01-2E1CC375B13E}
    PERF 0
    MIDIOUT -1
    <MIDINOTENAMES
      0 0 "C2-E3 Range" 0 0
      0 5 "F2-A3 Range" 0 5
      0 9 "A2-C4 Range" 0 9
      0 47 ---- 0 47
      0 48 "C2 (Lowest Note)" 0 48
      0 49 C#2 0 49
      0 50 D2 0 50
      0 51 D#2 0 51
      0 52 E2 0 52
      0 53 F2 0 53
      0 54 F#2 0 54
      0 55 G2 0 55
      0 56 G#2 0 56
      0 57 A2 0 57
      0 58 A#2 0 58
      0 59 B2 0 59
      0 60 C3 0 60
      0 61 C#3 0 61
      0 62 D3 0 62
      0 63 D#3 0 63
      0 64 E3 0 64
      0 65 F3 0 65
      0 66 F#3 0 66
      0 67 G3 0 67
      0 68 G#3 0 68
      0 69 A3 0 69
      0 70 A#3 0 70
      0 71 B3 0 71
      0 72 "C4 (Highest Note)" 0 72
      0 114 ---- 0 114
      0 115 "Solo Marker" 0 115
      0 116 "Overdrive Marker" 0 116
      0 125 ---- 0 125
      0 126 "Glissando Marker" 0 126
      0 127 "Trill Marker" 0 127
    >
    MAINSEND 1 0
    <FXCHAIN
      SHOW 0
      LASTSEL 0
      DOCKED 0
    >
    <ITEM
      POSITION 0
      SNAPOFFS 0
      LENGTH 288.727272727323
      LOOP 0
      ALLTAKES 0
      FADEIN 1 0 0 1 0 0
      FADEOUT 1 0 0 1 0 0
      MUTE 0
      SEL 0
      IGUID {6F5DF5D5-958D-4566-AA6E-AFD27D997F3F}
      IID 11
      NAME "PART REAL_KEYS_M"
      VOLPAN 1 0 1 -1
      SOFFS 0 0
      PLAYRATE 1 1 0 -65536 0 0.0025
      CHANMODE 0
      GUID {14BC6779-E32B-455D-A61C-C2E68D8FE08C}
      <SOURCE MIDI
        HASDATA 1 480 QN
        POOLEDEVTS {5A3FE028-C647-4163-98D2-D77A16D0A118}
        <X 0 0 0 0 3 "PART REAL_KEYS_M"
          /wNQQVJUIFJFQUxfS0VZU19N
        >
        E 346560 b0 7b 00
        GUID {806139BE-556B-4882-A297-06705078FD7A}
        IGNTEMPO 0 120 4 4
        SRCCOLOR 282
        VELLANE 132 128 60
        COLORMAP "C:\Program Files\REAPER\Data\color_maps\rockband_guitarbass.png"
        TEXTSTRINGFILE "C:\Program Files\REAPER\Data\Text_Strings\Text Events List.txt"
        CFGEDITVIEW -96.73009 69.471661 0 17 0 0 0 0 0 0.5
        KEYSNAP 0
        TRACKSEL 0
        EVTFILTER 0 -1 -1 -1 -1 0 1 0 0 -1 -1 -1 -1 0 -1 0 -1 -1
        CFGEDIT 1 1 0 1 1 1 1 1 1 1 1 0.25 -8 -8 1374 736 0 2 1 2 0 0 0 0 0 0.5 1 0 1 64
      >
    >
  >
  <TRACK {49B8D0E0-0069-415C-8FC3-AC29B0E2C3CF}
    NAME "PART REAL_KEYS_E"
    PEAKCOL 25231232
    BEAT -1
    AUTOMODE 0
    VOLPAN 1 0 -1 -1 1
    MUTESOLO 0 0 0
    IPHASE 0
    ISBUS 0 0
    BUSCOMP 0 0
    SHOWINMIX 1 0.6667 0.5 1 0.5 0 0 0
    FREEMODE 0
    SEL 0
    REC 0 0 0 0 0 0 0
    TRACKHEIGHT 0 1
    INQ 0 0 0 0.5 100 0 0 100
    NCHAN 2
    FX 1
    TRACKID {49B8D0E0-0069-415C-8FC3-AC29B0E2C3CF}
    PERF 0
    MIDIOUT -1
    <MIDINOTENAMES
      0 0 "C2-E3 Range" 0 0
      0 5 "F2-A3 Range" 0 5
      0 9 "A2-C4 Range" 0 9
      0 47 ---- 0 47
      0 48 "C2 (Lowest Note)" 0 48
      0 49 C#2 0 49
      0 50 D2 0 50
      0 51 D#2 0 51
      0 52 E2 0 52
      0 53 F2 0 53
      0 54 F#2 0 54
      0 55 G2 0 55
      0 56 G#2 0 56
      0 57 A2 0 57
      0 58 A#2 0 58
      0 59 B2 0 59
      0 60 C3 0 60
      0 61 C#3 0 61
      0 62 D3 0 62
      0 63 D#3 0 63
      0 64 E3 0 64
      0 65 F3 0 65
      0 66 F#3 0 66
      0 67 G3 0 67
      0 68 G#3 0 68
      0 69 A3 0 69
      0 70 A#3 0 70
      0 71 B3 0 71
      0 72 "C4 (Highest Note)" 0 72
      0 114 ---- 0 114
      0 115 "Solo Marker" 0 115
      0 116 "Overdrive Marker" 0 116
      0 125 ---- 0 125
      0 126 "Glissando Marker" 0 126
      0 127 "Trill Marker" 0 127
    >
    MAINSEND 1 0
    <FXCHAIN
      SHOW 0
      LASTSEL 0
      DOCKED 0
    >
    <ITEM
      POSITION 0
      SNAPOFFS 0
      LENGTH 288.727272727323
      LOOP 0
      ALLTAKES 0
      FADEIN 1 0 0 1 0 0
      FADEOUT 1 0 0 1 0 0
      MUTE 0
      SEL 0
      IGUID {656317AD-B690-4307-9096-C4F4536C131B}
      IID 12
      NAME "PART REAL_KEYS_E"
      VOLPAN 1 0 1 -1
      SOFFS 0 0
      PLAYRATE 1 1 0 -65536 0 0.0025
      CHANMODE 0
      GUID {43BDFFBF-75D6-4727-BD3F-08B25C56980C}
      <SOURCE MIDI
        HASDATA 1 480 QN
        POOLEDEVTS {DB61A1BD-5924-4A74-AE2E-37CFC143BB79}
        <X 0 0 0 0 3 "PART REAL_KEYS_E"
          /wNQQVJUIFJFQUxfS0VZU19F
        >
        E 346560 b0 7b 00
        GUID {F9363449-15E8-4EF0-8BC0-ABEB4CDC1D98}
        IGNTEMPO 0 120 4 4
        SRCCOLOR 283
        VELLANE 132 128 60
        COLORMAP "C:\Program Files\REAPER\Data\color_maps\rockband_guitarbass.png"
        TEXTSTRINGFILE "C:\Program Files\REAPER\Data\Text_Strings\Text Events List.txt"
        CFGEDITVIEW 0 69.471661 0 13 0 0 0 0 0 0.5
        KEYSNAP 0
        TRACKSEL 0
        EVTFILTER 0 -1 -1 -1 -1 0 1 0 0 -1 -1 -1 -1 0 -1 0 -1 -1
        CFGEDIT 1 1 0 1 1 1 1 1 1 1 1 0.25 -8 -8 1374 736 0 2 1 2 0 0 0 0 0 0.5 1 0 1 64
      >
    >
  >
  <TRACK {80604035-2BD9-43BB-A255-4E5F9E756779}
    NAME "PART KEYS_ANIM_RH"
    PEAKCOL 16842624
    BEAT -1
    AUTOMODE 0
    VOLPAN 1 0 -1 -1 1
    MUTESOLO 0 0 0
    IPHASE 0
    ISBUS 0 0
    BUSCOMP 0 0
    SHOWINMIX 1 0.6667 0.5 1 0.5 0 0 0
    FREEMODE 0
    SEL 0
    REC 0 0 0 0 0 0 0
    TRACKHEIGHT 0 1
    INQ 0 0 0 0.5 100 0 0 100
    NCHAN 2
    FX 1
    TRACKID {80604035-2BD9-43BB-A255-4E5F9E756779}
    PERF 0
    MIDIOUT -1
    <MIDINOTENAMES
      0 0 "C2-E3 Range" 0 0
      0 5 "F2-A3 Range" 0 5
      0 9 "A2-C4 Range" 0 9
      0 47 ---- 0 47
      0 48 "C2 (Lowest Note)" 0 48
      0 49 C#2 0 49
      0 50 D2 0 50
      0 51 D#2 0 51
      0 52 E2 0 52
      0 53 F2 0 53
      0 54 F#2 0 54
      0 55 G2 0 55
      0 56 G#2 0 56
      0 57 A2 0 57
      0 58 A#2 0 58
      0 59 B2 0 59
      0 60 C3 0 60
      0 61 C#3 0 61
      0 62 D3 0 62
      0 63 D#3 0 63
      0 64 E3 0 64
      0 65 F3 0 65
      0 66 F#3 0 66
      0 67 G3 0 67
      0 68 G#3 0 68
      0 69 A3 0 69
      0 70 A#3 0 70
      0 71 B3 0 71
      0 72 "C4 (Highest Note)" 0 72
      0 114 ---- 0 114
      0 115 "Solo Marker" 0 115
      0 116 "Overdrive Marker" 0 116
      0 125 ---- 0 125
      0 126 "Glissando Marker" 0 126
      0 127 "Trill Marker" 0 127
    >
    MAINSEND 1 0
    <FXCHAIN
      SHOW 0
      LASTSEL 0
      DOCKED 0
    >
    <ITEM
      POSITION 0
      SNAPOFFS 0
      LENGTH 288.727272727323
      LOOP 0
      ALLTAKES 0
      FADEIN 1 0 0 1 0 0
      FADEOUT 1 0 0 1 0 0
      MUTE 0
      SEL 0
      IGUID {6A43A4E9-6390-4FBA-9F07-B2C821A1720C}
      IID 13
      NAME "PART KEYS_ANIM_RH"
      VOLPAN 1 0 1 -1
      SOFFS 0 0
      PLAYRATE 1 1 0 -65536 0 0.0025
      CHANMODE 0
      GUID {FA5AE238-E1D7-41F5-A663-4C49E4376041}
      <SOURCE MIDI
        HASDATA 1 480 QN
        POOLEDEVTS {00B27148-E636-456A-B83C-A821E07E83A0}
        <X 120 0 0 0 3 "PART KEYS_ANIM_RH"
          /wNQQVJUIEtFWVNfQU5JTV9SSA==
        >
        E 346440 b0 7b 00
        GUID {268DE88D-9169-44F5-97A1-ABDA1E2CF031}
        IGNTEMPO 0 120 4 4
        SRCCOLOR 284
        VELLANE 132 128 60
        COLORMAP "C:\Program Files\REAPER\Data\color_maps\rockband_guitarbass.png"
        TEXTSTRINGFILE "C:\Program Files\REAPER\Data\Text_Strings\Text Events List.txt"
        CFGEDITVIEW 110.548674 69.471661 0 17 0 0 0 0 0 0.5
        KEYSNAP 0
        TRACKSEL 0
        EVTFILTER 0 -1 -1 -1 -1 0 1 0 0 -1 -1 -1 -1 0 -1 0 -1 -1
        CFGEDIT 1 1 0 1 1 1 1 1 1 1 1 0.25 -8 -8 1374 736 0 2 1 2 0 0 0 0 0 0.5 1 0 1 64
      >
    >
  >
  <TRACK {F014911F-41F0-491C-9A25-C3D2A462D8D7}
    NAME "PART KEYS_ANIM_LH"
    PEAKCOL 16842624
    BEAT -1
    AUTOMODE 0
    VOLPAN 1 0 -1 -1 1
    MUTESOLO 0 0 0
    IPHASE 0
    ISBUS 0 0
    BUSCOMP 0 0
    SHOWINMIX 1 0.6667 0.5 1 0.5 0 0 0
    FREEMODE 0
    SEL 0
    REC 0 0 0 0 0 0 0
    TRACKHEIGHT 0 1
    INQ 0 0 0 0.5 100 0 0 100
    NCHAN 2
    FX 1
    TRACKID {F014911F-41F0-491C-9A25-C3D2A462D8D7}
    PERF 0
    MIDIOUT -1
    <MIDINOTENAMES
      0 0 "C2-E3 Range" 0 0
      0 5 "F2-A3 Range" 0 5
      0 9 "A2-C4 Range" 0 9
      0 47 ---- 0 47
      0 48 "C2 (Lowest Note)" 0 48
      0 49 C#2 0 49
      0 50 D2 0 50
      0 51 D#2 0 51
      0 52 E2 0 52
      0 53 F2 0 53
      0 54 F#2 0 54
      0 55 G2 0 55
      0 56 G#2 0 56
      0 57 A2 0 57
      0 58 A#2 0 58
      0 59 B2 0 59
      0 60 C3 0 60
      0 61 C#3 0 61
      0 62 D3 0 62
      0 63 D#3 0 63
      0 64 E3 0 64
      0 65 F3 0 65
      0 66 F#3 0 66
      0 67 G3 0 67
      0 68 G#3 0 68
      0 69 A3 0 69
      0 70 A#3 0 70
      0 71 B3 0 71
      0 72 "C4 (Highest Note)" 0 72
      0 114 ---- 0 114
      0 115 "Solo Marker" 0 115
      0 116 "Overdrive Marker" 0 116
      0 125 ---- 0 125
      0 126 "Glissando Marker" 0 126
      0 127 "Trill Marker" 0 127
    >
    MAINSEND 1 0
    <FXCHAIN
      SHOW 0
      LASTSEL 0
      DOCKED 0
    >
    <ITEM
      POSITION 0
      SNAPOFFS 0
      LENGTH 288.727272727323
      LOOP 0
      ALLTAKES 0
      FADEIN 1 0 0 1 0 0
      FADEOUT 1 0 0 1 0 0
      MUTE 0
      SEL 0
      IGUID {F0F97A68-91AD-4B41-8D32-822B6159FDBC}
      IID 14
      NAME "PART KEYS_ANIM_LH"
      VOLPAN 1 0 1 -1
      SOFFS 0 0
      PLAYRATE 1 1 0 -65536 0 0.0025
      CHANMODE 0
      GUID {214023C3-6BA4-450F-A73F-59780553B94C}
      <SOURCE MIDI
        HASDATA 1 480 QN
        POOLEDEVTS {01086A8A-7CA0-4BC8-B1E9-02AA8B3EE3D2}
        <X 0 0 0 0 3 "PART KEYS_ANIM_LH"
          /wNQQVJUIEtFWVNfQU5JTV9MSA==
        >
        E 346560 b0 7b 00
        GUID {9527D45A-14D5-4C89-A39E-3528B0F29941}
        IGNTEMPO 0 120 4 4
        SRCCOLOR 285
        VELLANE 132 128 60
        COLORMAP "C:\Program Files\REAPER\Data\color_maps\rockband_guitarbass.png"
        TEXTSTRINGFILE "C:\Program Files\REAPER\Data\Text_Strings\Text Events List.txt"
        CFGEDITVIEW 0 69.471661 0 17 0 0 0 0 0 0.5
        KEYSNAP 0
        TRACKSEL 0
        EVTFILTER 0 -1 -1 -1 -1 0 1 0 0 -1 -1 -1 -1 0 -1 0 -1 -1
        CFGEDIT 1 1 0 1 1 1 1 1 1 1 1 0.25 -8 -8 1374 736 0 2 1 2 0 0 0 0 0 0.5 1 0 1 64
      >
    >
  >
  <TRACK {ACEC07EE-BB6B-40D4-8B7D-DBA38A7AC6D0}
    NAME Keys
    PEAKCOL 16576
    BEAT -1
    AUTOMODE 0
    VOLPAN 1 0 -1 -1 1
    MUTESOLO 0 0 0
    IPHASE 0
    ISBUS 2 -1
    BUSCOMP 0 0
    SHOWINMIX 1 0.6667 0.5 1 0.5 0 0 0
    FREEMODE 0
    SEL 0
    REC 0 0 0 0 0 0 0
    TRACKHEIGHT 0 0
    INQ 0 0 0 0.5 100 0 0 100
    NCHAN 2
    FX 1
    TRACKID {ACEC07EE-BB6B-40D4-8B7D-DBA38A7AC6D0}
    PERF 0
    MIDIOUT -1
    MAINSEND 1 0
  >
  <TRACK {4BCC1CF3-63A3-43C4-A155-D3593AD88A10}
    NAME EVENTS
    PEAKCOL 29393024
    BEAT -1
    AUTOMODE 0
    VOLPAN 1 0 -1 -1 1
    MUTESOLO 0 0 0
    IPHASE 0
    ISBUS 0 0
    BUSCOMP 0 0
    SHOWINMIX 1 0.6667 0.5 1 0.5 0 0 0
    FREEMODE 0
    SEL 0
    REC 0 0 0 0 0 0 0
    TRACKHEIGHT 0 0
    INQ 0 0 0 0.5 100 0 0 100
    NCHAN 2
    FX 1
    TRACKID {4BCC1CF3-63A3-43C4-A155-D3593AD88A10}
    PERF 0
    MIDIOUT -1
    MAINSEND 1 0
    <FXCHAIN
      SHOW 0
      LASTSEL 0
      DOCKED 0
    >
    <ITEM
      POSITION 0
      SNAPOFFS 0
      LENGTH 261.81818181823166
      LOOP 0
      ALLTAKES 0
      FADEIN 1 0 0 1 0 0
      FADEOUT 1 0 0 1 0 0
      MUTE 0
      SEL 0
      IGUID {86A06D27-867C-4398-9CE6-8F0526B3B594}
      IID 15
      NAME EVENTS
      VOLPAN 1 0 1 -1
      SOFFS 0 0
      PLAYRATE 1 1 0 -65536 0 0.0025
      CHANMODE 0
      GUID {584C8192-4FF3-4E29-8138-2E6BD568B61A}
      <SOURCE MIDI
        HASDATA 1 480 QN
        POOLEDEVTS {90C22143-A639-485A-9C34-04E00EEBD370}
        <X 0 0 0 0 3 EVENTS
          /wNFVkVOVFM=
        >
        <X 0 0 0 0 1 [crowd_normal]
          /wFbY3Jvd2Rfbm9ybWFsXQ==
        >
        <X 6720 0 0 0 1 [music_start]
          /wFbbXVzaWNfc3RhcnRd
        >
        <X 300240 0 0 0 5 [crowd_noclap]
          /wVbY3Jvd2Rfbm9jbGFwXQ==
        >
        <X 960 0 0 0 5 [music_end]
          /wVbbXVzaWNfZW5kXQ==
        >
        <X 2880 0 0 0 5 [end]
          /wVbZW5kXQ==
        >
        E 240 b0 7b 00
        GUID {40AD7956-A22A-434A-8513-4D3792B9DF69}
        IGNTEMPO 0 120 4 4
        SRCCOLOR 286
        VELLANE 132 230 128
        COLORMAP "M:\RGS Documents\ColorMaps\rockband_vox-other.png"
        TEXTSTRINGFILE "Text Events List.txt"
        CFGEDITVIEW -2874.265526 69.471661 0 12 0 0 0 0 0 0.5
        KEYSNAP 0
        TRACKSEL 0
        EVTFILTER 0 -1 -1 -1 -1 0 1 0 0 -1 -1 -1 -1 0 -1 0 -1 -1
        CFGEDIT 1 1 0 0 1 1 1 1 1 1 1 0.5 53 112 1249 758 0 0 1 2 0 0 0 0 0 0.5 1 0 1 64
      >
    >
  >
  <TRACK {1529008F-97D2-43EB-8634-7C5A7418AD90}
    NAME VENUE
    PEAKCOL 16842496
    BEAT -1
    AUTOMODE 0
    VOLPAN 1 0 -1 -1 1
    MUTESOLO 0 0 0
    IPHASE 0
    ISBUS 0 0
    BUSCOMP 0 0
    SHOWINMIX 1 0.6667 0.5 1 0.5 0 0 0
    FREEMODE 0
    SEL 0
    REC 0 0 0 0 0 0 0
    TRACKHEIGHT 0 0
    INQ 0 0 0 0.5 100 0 0 100
    NCHAN 2
    FX 1
    TRACKID {1529008F-97D2-43EB-8634-7C5A7418AD90}
    PERF 0
    MIDIOUT -1
    <MIDINOTENAMES
      0 37 "Spotlight on Bass" 0 37
      0 38 "Spotlight on Drums" 0 38
      0 39 "Spotlight on Guitar" 0 39
      0 40 "Spotlight on Vocals" 0 40
      0 47 ---- 0 47
      0 48 "Next Keyframe" 0 48
      0 49 "Previous Keyframe" 0 49
      0 50 "First Keyframe" 0 50
      0 59 ---- 0 59
      0 60 "Camera Cut" 0 60
      0 61 "Focus on Bassist" 0 61
      0 62 "Focus on Drummer" 0 62
      0 63 "Focus on Guitarist" 0 63
      0 64 "Focus on Vocalist" 0 64
      0 69 ---- 0 69
      0 70 "No Behind Shots" 0 70
      0 71 "Only Far Shots" 0 71
      0 72 "Only Close Ups" 0 72
      0 73 "No Close Ups" 0 73
      0 84 ---- 0 84
      0 85 "Bassist Sing Along" 0 85
      0 86 "Drummer Sing Along" 0 86
      0 87 "Guitarist Sing Along" 0 87
      0 95 ---- 0 95
      0 96 Default 0 96
      0 97 "Contrast A" 0 97
      0 98 16mm 0 98
      0 99 Sepia 0 99
      0 100 Silvertone 0 100
      0 101 Negative 0 101
      0 102 Photocopy 0 102
      0 103 "Bloom A" 0 103
      0 104 "Bloom B" 0 104
      0 105 Mirror 0 105
      0 106 "Blue Tint" 0 106
      0 107 Lines 0 107
      0 108 "Black and White" 0 108
      0 109 "Security Camera" 0 109
      0 110 Trails 0 110
    >
    MAINSEND 1 0
    <FXCHAIN
      SHOW 0
      LASTSEL 0
      DOCKED 0
    >
    <ITEM
      POSITION 0
      SNAPOFFS 0
      LENGTH 261.81818181823166
      LOOP 0
      ALLTAKES 0
      FADEIN 1 0 0 1 0 0
      FADEOUT 1 0 0 1 0 0
      MUTE 0
      SEL 0
      IGUID {71027329-E0AB-447D-A192-4839733334E7}
      IID 16
      NAME VENUE
      VOLPAN 1 0 1 -1
      SOFFS 0 0
      PLAYRATE 1 1 0 -65536 0 0.0025
      CHANMODE 0
      GUID {44F0FFD1-5109-4A47-8BED-262AA04D3B23}
      <SOURCE MIDI
        HASDATA 1 480 QN
        POOLEDEVTS {F10031A5-5138-4030-88E2-944E2289BD6F}
        <X 0 0 0 0 3 VENUE
          /wNWRU5VRQ==
        >
        <X 0 0 0 0 1 [verse]
          /wFbdmVyc2Vd
        >
        <X 0 0 0 0 1 "[lighting ()]"
          /wFbbGlnaHRpbmcgKCld
        >
        E 0 90 3c 60
        E 0 90 3d 60
        E 0 90 3e 60
        E 0 90 3f 60
        E 0 90 40 60
        E 0 90 46 60
        E 0 90 47 60
        E 0 90 60 60
        E 120 80 3c 00
        E 0 80 3d 00
        E 0 80 3e 00
        E 0 80 3f 00
        E 0 80 40 00
        E 0 80 46 00
        E 0 80 47 00
        E 0 80 60 00
        E 310920 b0 7b 00
        GUID {30097062-47C5-4B33-B665-170EF09D70D9}
        IGNTEMPO 0 120 4 4
        SRCCOLOR 287
        VELLANE 132 230 230
        COLORMAP "M:\RGS Documents\ColorMaps\rockband_vox-other.png"
        TEXTSTRINGFILE "Text Events List.txt"
        CFGEDITVIEW -3606.650492 69.471661 0 13 0 0 0 0 0 0.5
        KEYSNAP 0
        TRACKSEL 0
        EVTFILTER 0 -1 -1 -1 -1 0 1 0 0 -1 -1 -1 -1 0 -1 0 -1 -1
        CFGEDIT 1 1 0 0 0 1 1 1 1 1 1 0.25 133 19 1300 803 0 2 1 2 0 0 0 0 0 0.5 1 0 1 64
      >
    >
  >
  <TRACK {7BC63EFC-0ABC-4D0D-8204-E9893AE9FFFA}
    NAME BEAT
    PEAKCOL 23514346
    BEAT -1
    AUTOMODE 0
    VOLPAN 1 0 -1 -1 1
    MUTESOLO 0 0 0
    IPHASE 0
    ISBUS 0 0
    BUSCOMP 1 0
    SHOWINMIX 1 0.6667 0.5 1 0.5 0 0 0
    FREEMODE 0
    SEL 0
    REC 0 0 0 0 0 0 0
    TRACKHEIGHT 0 0
    INQ 0 0 0 0.5 100 0 0 100
    NCHAN 2
    FX 1
    TRACKID {7BC63EFC-0ABC-4D0D-8204-E9893AE9FFFA}
    PERF 0
    MIDIOUT -1
    <MIDINOTENAMES
      0 12 Downbeat 0 12
      0 13 "Up Beats" 0 13
    >
    MAINSEND 1 0
    <FXCHAIN
      SHOW 0
      LASTSEL 0
      DOCKED 0
    >
    <ITEM
      POSITION 0
      SNAPOFFS 0
      LENGTH 261.81818181823166
      LOOP 0
      ALLTAKES 0
      FADEIN 1 0 0 1 0 0
      FADEOUT 1 0 0 1 0 0
      MUTE 0
      SEL 0
      IGUID {9960CDFD-BF2E-4E67-97CD-4F13D0A3F2ED}
      IID 17
      NAME BEAT
      VOLPAN 1 0 1 -1
      SOFFS 0 0
      PLAYRATE 1 1 0 -65536 0 0.0025
      CHANMODE 0
      GUID {CEBFDCF1-B2BD-47E1-A085-C26E1C9E9ED2}
      <SOURCE MIDI
        HASDATA 1 480 QN
        POOLEDEVTS {FA5B6CF1-C643-4AB9-B656-FC4415EFED7A}
        <X 0 0 0 0 3 BEAT
          /wNCRUFU
        >
        E 0 96 0c 64
        E 120 86 0c 40
        E 360 96 0d 64
        E 120 86 0d 40
        E 360 96 0d 64
        E 120 86 0d 40
        E 360 96 0d 64
        E 120 86 0d 40
        E 360 96 0c 64
        E 120 86 0c 40
        E 360 96 0d 64
        E 120 86 0d 40
        E 360 96 0d 64
        E 120 86 0d 40
        E 360 96 0d 64
        E 120 86 0d 40
        E 360 96 0c 64
        E 120 86 0c 40
        E 360 96 0d 64
        E 120 86 0d 40
        E 360 96 0d 64
        E 120 86 0d 40
        E 360 96 0d 64
        E 120 86 0d 40
        E 360 96 0c 64
        E 120 86 0c 40
        E 360 96 0d 64
        E 120 86 0d 40
        E 360 96 0d 64
        E 120 86 0d 40
        E 360 96 0d 64
        E 120 86 0d 40
        E 360 96 0c 64
        E 120 86 0c 40
        E 360 96 0d 64
        E 120 86 0d 40
        E 360 96 0d 64
        E 120 86 0d 40
        E 360 96 0d 64
        E 120 86 0d 40
        E 360 96 0c 64
        E 120 86 0c 40
        E 360 96 0d 64
        E 120 86 0d 40
        E 360 96 0d 64
        E 120 86 0d 40
        E 360 96 0d 64
        E 120 86 0d 40
        E 360 96 0c 64
        E 120 86 0c 40
        E 360 96 0d 64
        E 120 86 0d 40
        E 360 96 0d 64
        E 120 86 0d 40
        E 360 96 0d 64
        E 120 86 0d 40
        E 360 96 0c 64
        E 120 86 0c 40
        E 360 96 0d 64
        E 120 86 0d 40
        E 360 96 0d 64
        E 120 86 0d 40
        E 360 96 0d 64
        E 120 86 0d 40
        E 360 96 0c 64
        E 120 86 0c 40
        E 360 96 0d 64
        E 120 86 0d 40
        E 360 96 0d 64
        E 120 86 0d 40
        E 360 96 0d 64
        E 120 86 0d 40
        E 360 96 0c 64
        E 120 86 0c 40
        E 360 96 0d 64
        E 120 86 0d 40
        E 360 96 0d 64
        E 120 86 0d 40
        E 360 96 0d 64
        E 120 86 0d 40
        E 360 96 0c 64
        E 120 86 0c 40
        E 360 96 0d 64
        E 120 86 0d 40
        E 360 96 0d 64
        E 120 86 0d 40
        E 360 96 0d 64
        E 120 86 0d 40
        E 360 96 0c 64
        E 120 86 0c 40
        E 360 96 0d 64
        E 120 86 0d 40
        E 360 96 0d 64
        E 120 86 0d 40
        E 360 96 0d 64
        E 120 86 0d 40
        E 360 96 0c 64
        E 120 86 0c 40
        E 360 96 0d 64
        E 120 86 0d 40
        E 360 96 0d 64
        E 120 86 0d 40
        E 360 96 0d 64
        E 120 86 0d 40
        E 360 96 0c 64
        E 120 86 0c 40
        E 360 96 0d 64
        E 120 86 0d 40
        E 360 96 0d 64
        E 120 86 0d 40
        E 360 96 0d 64
        E 120 86 0d 40
        E 360 96 0c 64
        E 120 86 0c 40
        E 360 96 0d 64
        E 120 86 0d 40
        E 360 96 0d 64
        E 120 86 0d 40
        E 360 96 0d 64
        E 120 86 0d 40
        E 360 96 0c 64
        E 120 86 0c 40
        E 360 96 0d 64
        E 120 86 0d 40
        E 360 96 0d 64
        E 120 86 0d 40
        E 360 96 0d 64
        E 120 86 0d 40
        E 360 96 0c 64
        E 120 86 0c 40
        E 360 96 0d 64
        E 120 86 0d 40
        E 360 96 0d 64
        E 120 86 0d 40
        E 360 96 0d 64
        E 120 86 0d 40
        E 360 96 0c 64
        E 120 86 0c 40
        E 360 96 0d 64
        E 120 86 0d 40
        E 360 96 0d 64
        E 120 86 0d 40
        E 360 96 0d 64
        E 120 86 0d 40
        E 360 96 0c 64
        E 120 86 0c 40
        E 360 96 0d 64
        E 120 86 0d 40
        E 360 96 0d 64
        E 120 86 0d 40
        E 360 96 0d 64
        E 120 86 0d 40
        E 360 96 0c 64
        E 120 86 0c 40
        E 360 96 0d 64
        E 120 86 0d 40
        E 360 96 0d 64
        E 120 86 0d 40
        E 360 96 0d 64
        E 120 86 0d 40
        E 360 96 0c 64
        E 120 86 0c 40
        E 360 96 0d 64
        E 120 86 0d 40
        E 360 96 0d 64
        E 120 86 0d 40
        E 360 96 0d 64
        E 120 86 0d 40
        E 360 96 0c 64
        E 120 86 0c 40
        E 360 96 0d 64
        E 120 86 0d 40
        E 360 96 0d 64
        E 120 86 0d 40
        E 360 96 0d 64
        E 120 86 0d 40
        E 360 96 0c 64
        E 120 86 0c 40
        E 360 96 0d 64
        E 120 86 0d 40
        E 360 96 0d 64
        E 120 86 0d 40
        E 360 96 0d 64
        E 120 86 0d 40
        E 360 96 0c 64
        E 120 86 0c 40
        E 360 96 0d 64
        E 120 86 0d 40
        E 360 96 0d 64
        E 120 86 0d 40
        E 360 96 0d 64
        E 120 86 0d 40
        E 360 96 0c 64
        E 120 86 0c 40
        E 360 96 0d 64
        E 120 86 0d 40
        E 360 96 0d 64
        E 120 86 0d 40
        E 360 96 0d 64
        E 120 86 0d 40
        E 360 96 0c 64
        E 120 86 0c 40
        E 360 96 0d 64
        E 120 86 0d 40
        E 360 96 0d 64
        E 120 86 0d 40
        E 360 96 0d 64
        E 120 86 0d 40
        E 360 96 0c 64
        E 120 86 0c 40
        E 360 96 0d 64
        E 120 86 0d 40
        E 360 96 0d 64
        E 120 86 0d 40
        E 360 96 0d 64
        E 120 86 0d 40
        E 360 96 0c 64
        E 120 86 0c 40
        E 360 96 0d 64
        E 120 86 0d 40
        E 360 96 0d 64
        E 120 86 0d 40
        E 360 96 0d 64
        E 120 86 0d 40
        E 360 96 0c 64
        E 120 86 0c 40
        E 360 96 0d 64
        E 120 86 0d 40
        E 360 96 0d 64
        E 120 86 0d 40
        E 360 96 0d 64
        E 120 86 0d 40
        E 360 96 0c 64
        E 120 86 0c 40
        E 360 96 0d 64
        E 120 86 0d 40
        E 360 96 0d 64
        E 120 86 0d 40
        E 360 96 0d 64
        E 120 86 0d 40
        E 360 96 0c 64
        E 120 86 0c 40
        E 360 96 0d 64
        E 120 86 0d 40
        E 360 96 0d 64
        E 120 86 0d 40
        E 360 96 0d 64
        E 120 86 0d 40
        E 360 96 0c 64
        E 120 86 0c 40
        E 360 96 0d 64
        E 120 86 0d 40
        E 360 96 0d 64
        E 120 86 0d 40
        E 360 96 0d 64
        E 120 86 0d 40
        E 360 96 0c 64
        E 120 86 0c 40
        E 360 96 0d 64
        E 120 86 0d 40
        E 360 96 0d 64
        E 120 86 0d 40
        E 360 96 0d 64
        E 120 86 0d 40
        E 360 96 0c 64
        E 120 86 0c 40
        E 360 96 0d 64
        E 120 86 0d 40
        E 360 96 0d 64
        E 120 86 0d 40
        E 360 96 0d 64
        E 120 86 0d 40
        E 360 96 0c 64
        E 120 86 0c 40
        E 360 96 0d 64
        E 120 86 0d 40
        E 360 96 0d 64
        E 120 86 0d 40
        E 360 96 0d 64
        E 120 86 0d 40
        E 360 96 0c 64
        E 120 86 0c 40
        E 360 96 0d 64
        E 120 86 0d 40
        E 360 96 0d 64
        E 120 86 0d 40
        E 360 96 0d 64
        E 120 86 0d 40
        E 360 96 0c 64
        E 120 86 0c 40
        E 360 96 0d 64
        E 120 86 0d 40
        E 360 96 0d 64
        E 120 86 0d 40
        E 360 96 0d 64
        E 120 86 0d 40
        E 360 96 0c 64
        E 120 86 0c 40
        E 360 96 0d 64
        E 120 86 0d 40
        E 360 96 0d 64
        E 120 86 0d 40
        E 360 96 0d 64
        E 120 86 0d 40
        E 360 96 0c 64
        E 120 86 0c 40
        E 360 96 0d 64
        E 120 86 0d 40
        E 360 96 0d 64
        E 120 86 0d 40
        E 360 96 0d 64
        E 120 86 0d 40
        E 360 96 0c 64
        E 120 86 0c 40
        E 360 96 0d 64
        E 120 86 0d 40
        E 360 96 0d 64
        E 120 86 0d 40
        E 360 96 0d 64
        E 120 86 0d 40
        E 360 96 0c 64
        E 120 86 0c 40
        E 360 96 0d 64
        E 120 86 0d 40
        E 360 96 0d 64
        E 120 86 0d 40
        E 360 96 0d 64
        E 120 86 0d 40
        E 360 96 0c 64
        E 120 86 0c 40
        E 360 96 0d 64
        E 120 86 0d 40
        E 360 96 0d 64
        E 120 86 0d 40
        E 360 96 0d 64
        E 120 86 0d 40
        E 360 96 0c 64
        E 120 86 0c 40
        E 360 96 0d 64
        E 120 86 0d 40
        E 360 96 0d 64
        E 120 86 0d 40
        E 360 96 0d 64
        E 120 86 0d 40
        E 360 96 0c 64
        E 120 86 0c 40
        E 360 96 0d 64
        E 120 86 0d 40
        E 360 96 0d 64
        E 120 86 0d 40
        E 360 96 0d 64
        E 120 86 0d 40
        E 360 96 0c 64
        E 120 86 0c 40
        E 360 96 0d 64
        E 120 86 0d 40
        E 360 96 0d 64
        E 120 86 0d 40
        E 360 96 0d 64
        E 120 86 0d 40
        E 360 96 0c 64
        E 120 86 0c 40
        E 360 96 0d 64
        E 120 86 0d 40
        E 360 96 0d 64
        E 120 86 0d 40
        E 360 96 0d 64
        E 120 86 0d 40
        E 360 96 0c 64
        E 120 86 0c 40
        E 360 96 0d 64
        E 120 86 0d 40
        E 360 96 0d 64
        E 120 86 0d 40
        E 360 96 0d 64
        E 120 86 0d 40
        E 360 96 0c 64
        E 120 86 0c 40
        E 360 96 0d 64
        E 120 86 0d 40
        E 360 96 0d 64
        E 120 86 0d 40
        E 360 96 0d 64
        E 120 86 0d 40
        E 360 96 0c 64
        E 120 86 0c 40
        E 360 96 0d 64
        E 120 86 0d 40
        E 360 96 0d 64
        E 120 86 0d 40
        E 360 96 0d 64
        E 120 86 0d 40
        E 360 96 0c 64
        E 120 86 0c 40
        E 360 96 0d 64
        E 120 86 0d 40
        E 360 96 0d 64
        E 120 86 0d 40
        E 360 96 0d 64
        E 120 86 0d 40
        E 360 96 0c 64
        E 120 86 0c 40
        E 360 96 0d 64
        E 120 86 0d 40
        E 360 96 0d 64
        E 120 86 0d 40
        E 360 96 0d 64
        E 120 86 0d 40
        E 360 96 0c 64
        E 120 86 0c 40
        E 360 96 0d 64
        E 120 86 0d 40
        E 360 96 0d 64
        E 120 86 0d 40
        E 360 96 0d 64
        E 120 86 0d 40
        E 360 96 0c 64
        E 120 86 0c 40
        E 360 96 0d 64
        E 120 86 0d 40
        E 360 96 0d 64
        E 120 86 0d 40
        E 360 96 0d 64
        E 120 86 0d 40
        E 360 96 0c 64
        E 120 86 0c 40
        E 360 96 0d 64
        E 120 86 0d 40
        E 360 96 0d 64
        E 120 86 0d 40
        E 360 96 0d 64
        E 120 86 0d 40
        E 360 96 0c 64
        E 120 86 0c 40
        E 360 96 0d 64
        E 120 86 0d 40
        E 360 96 0d 64
        E 120 86 0d 40
        E 360 96 0d 64
        E 120 86 0d 40
        E 360 96 0c 64
        E 120 86 0c 40
        E 360 96 0d 64
        E 120 86 0d 40
        E 360 96 0d 64
        E 120 86 0d 40
        E 360 96 0d 64
        E 120 86 0d 40
        E 360 96 0c 64
        E 120 86 0c 40
        E 360 96 0d 64
        E 120 86 0d 40
        E 360 96 0d 64
        E 120 86 0d 40
        E 360 96 0d 64
        E 120 86 0d 40
        E 360 96 0c 64
        E 120 86 0c 40
        E 360 96 0d 64
        E 120 86 0d 40
        E 360 96 0d 64
        E 120 86 0d 40
        E 360 96 0d 64
        E 120 86 0d 40
        E 360 96 0c 64
        E 120 86 0c 40
        E 360 96 0d 64
        E 120 86 0d 40
        E 360 96 0d 64
        E 120 86 0d 40
        E 360 96 0d 64
        E 120 86 0d 40
        E 360 96 0c 64
        E 120 86 0c 40
        E 360 96 0d 64
        E 120 86 0d 40
        E 360 96 0d 64
        E 120 86 0d 40
        E 360 96 0d 64
        E 120 86 0d 40
        E 360 96 0c 64
        E 120 86 0c 40
        E 360 96 0d 64
        E 120 86 0d 40
        E 360 96 0d 64
        E 120 86 0d 40
        E 360 96 0d 64
        E 120 86 0d 40
        E 360 96 0c 64
        E 120 86 0c 40
        E 360 96 0d 64
        E 120 86 0d 40
        E 360 96 0d 64
        E 120 86 0d 40
        E 360 96 0d 64
        E 120 86 0d 40
        E 360 96 0c 64
        E 120 86 0c 40
        E 360 96 0d 64
        E 120 86 0d 40
        E 360 96 0d 64
        E 120 86 0d 40
        E 360 96 0d 64
        E 120 86 0d 40
        E 360 96 0c 64
        E 120 86 0c 40
        E 360 96 0d 64
        E 120 86 0d 40
        E 360 96 0d 64
        E 120 86 0d 40
        E 360 96 0d 64
        E 120 86 0d 40
        E 360 96 0c 64
        E 120 86 0c 40
        E 360 96 0d 64
        E 120 86 0d 40
        E 360 96 0d 64
        E 120 86 0d 40
        E 360 96 0d 64
        E 120 86 0d 40
        E 360 96 0c 64
        E 120 86 0c 40
        E 360 96 0d 64
        E 120 86 0d 40
        E 360 96 0d 64
        E 120 86 0d 40
        E 360 96 0d 64
        E 120 86 0d 40
        E 360 96 0c 64
        E 120 86 0c 40
        E 360 96 0d 64
        E 120 86 0d 40
        E 360 96 0d 64
        E 120 86 0d 40
        E 360 96 0d 64
        E 120 86 0d 40
        E 360 96 0c 64
        E 120 86 0c 40
        E 360 96 0d 64
        E 120 86 0d 40
        E 360 96 0d 64
        E 120 86 0d 40
        E 360 96 0d 64
        E 120 86 0d 40
        E 360 96 0c 64
        E 120 86 0c 40
        E 360 96 0d 64
        E 120 86 0d 40
        E 360 96 0d 64
        E 120 86 0d 40
        E 360 96 0d 64
        E 120 86 0d 40
        E 360 96 0c 64
        E 120 86 0c 40
        E 360 96 0d 64
        E 120 86 0d 40
        E 360 96 0d 64
        E 120 86 0d 40
        E 360 96 0d 64
        E 120 86 0d 40
        E 360 96 0c 64
        E 120 86 0c 40
        E 360 96 0d 64
        E 120 86 0d 40
        E 360 96 0d 64
        E 120 86 0d 40
        E 360 96 0d 64
        E 120 86 0d 40
        E 360 96 0c 64
        E 120 86 0c 40
        E 360 96 0d 64
        E 120 86 0d 40
        E 360 96 0d 64
        E 120 86 0d 40
        E 360 96 0d 64
        E 120 86 0d 40
        E 360 96 0c 64
        E 120 86 0c 40
        E 360 96 0d 64
        E 120 86 0d 40
        E 360 96 0d 64
        E 120 86 0d 40
        E 360 96 0d 64
        E 120 86 0d 40
        E 360 96 0c 64
        E 120 86 0c 40
        E 360 96 0d 64
        E 120 86 0d 40
        E 360 96 0d 64
        E 120 86 0d 40
        E 360 96 0d 64
        E 120 86 0d 40
        E 360 96 0c 64
        E 120 86 0c 40
        E 360 96 0d 64
        E 120 86 0d 40
        E 360 96 0d 64
        E 120 86 0d 40
        E 360 96 0d 64
        E 120 86 0d 40
        E 360 96 0c 64
        E 120 86 0c 40
        E 360 96 0d 64
        E 120 86 0d 40
        E 360 96 0d 64
        E 120 86 0d 40
        E 360 96 0d 64
        E 120 86 0d 40
        E 360 96 0c 64
        E 120 86 0c 40
        E 360 96 0d 64
        E 120 86 0d 40
        E 360 96 0d 64
        E 120 86 0d 40
        E 360 96 0d 64
        E 120 86 0d 40
        E 360 96 0c 64
        E 120 86 0c 40
        E 360 96 0d 64
        E 120 86 0d 40
        E 360 96 0d 64
        E 120 86 0d 40
        E 360 96 0d 64
        E 120 86 0d 40
        E 360 96 0c 64
        E 120 86 0c 40
        E 360 96 0d 64
        E 120 86 0d 40
        E 360 96 0d 64
        E 120 86 0d 40
        E 360 96 0d 64
        E 120 86 0d 40
        E 360 96 0c 64
        E 120 86 0c 40
        E 360 96 0d 64
        E 120 86 0d 40
        E 360 96 0d 64
        E 120 86 0d 40
        E 360 96 0d 64
        E 120 86 0d 40
        E 360 96 0c 64
        E 120 86 0c 40
        E 360 96 0d 64
        E 120 86 0d 40
        E 360 96 0d 64
        E 120 86 0d 40
        E 360 96 0d 64
        E 120 86 0d 40
        E 360 96 0c 64
        E 120 86 0c 40
        E 360 96 0d 64
        E 120 86 0d 40
        E 360 96 0d 64
        E 120 86 0d 40
        E 360 96 0d 64
        E 120 86 0d 40
        E 360 96 0c 64
        E 120 86 0c 40
        E 360 96 0d 64
        E 120 86 0d 40
        E 360 96 0d 64
        E 120 86 0d 40
        E 360 96 0d 64
        E 120 86 0d 40
        E 360 96 0c 64
        E 120 86 0c 40
        E 360 96 0d 64
        E 120 86 0d 40
        E 360 96 0d 64
        E 120 86 0d 40
        E 360 96 0d 64
        E 120 86 0d 40
        E 360 96 0c 64
        E 120 86 0c 40
        E 360 96 0d 64
        E 120 86 0d 40
        E 360 96 0d 64
        E 120 86 0d 40
        E 360 96 0d 64
        E 120 86 0d 40
        E 360 96 0c 64
        E 120 86 0c 40
        E 360 96 0d 64
        E 120 86 0d 40
        E 360 96 0d 64
        E 120 86 0d 40
        E 360 96 0d 64
        E 120 86 0d 40
        E 360 96 0c 64
        E 120 86 0c 40
        E 360 96 0d 64
        E 120 86 0d 40
        E 360 96 0d 64
        E 120 86 0d 40
        E 360 96 0d 64
        E 120 86 0d 40
        E 360 96 0c 64
        E 120 86 0c 40
        E 360 96 0d 64
        E 120 86 0d 40
        E 360 96 0d 64
        E 120 86 0d 40
        E 360 96 0d 64
        E 120 86 0d 40
        E 360 96 0c 64
        E 120 86 0c 40
        E 360 96 0d 64
        E 120 86 0d 40
        E 360 96 0d 64
        E 120 86 0d 40
        E 360 96 0d 64
        E 120 86 0d 40
        E 360 96 0c 64
        E 120 86 0c 40
        E 360 96 0d 64
        E 120 86 0d 40
        E 360 96 0d 64
        E 120 86 0d 40
        E 360 96 0d 64
        E 120 86 0d 40
        E 360 96 0c 64
        E 120 86 0c 40
        E 360 96 0d 64
        E 120 86 0d 40
        E 360 96 0d 64
        E 120 86 0d 40
        E 360 96 0d 64
        E 120 86 0d 40
        E 360 96 0c 64
        E 120 86 0c 40
        E 360 96 0d 64
        E 120 86 0d 40
        E 360 96 0d 64
        E 120 86 0d 40
        E 360 96 0d 64
        E 120 86 0d 40
        E 360 96 0c 64
        E 120 86 0c 40
        E 360 96 0d 64
        E 120 86 0d 40
        E 360 96 0d 64
        E 120 86 0d 40
        E 360 96 0d 64
        E 120 86 0d 40
        E 360 96 0c 64
        E 120 86 0c 40
        E 360 96 0d 64
        E 120 86 0d 40
        E 360 96 0d 64
        E 120 86 0d 40
        E 360 96 0d 64
        E 120 86 0d 40
        E 360 96 0c 64
        E 120 86 0c 40
        E 360 96 0d 64
        E 120 86 0d 40
        E 360 96 0d 64
        E 120 86 0d 40
        E 360 96 0d 64
        E 120 86 0d 40
        E 360 96 0c 64
        E 120 86 0c 40
        E 360 96 0d 64
        E 120 86 0d 40
        E 360 96 0d 64
        E 120 86 0d 40
        E 360 96 0d 64
        E 120 86 0d 40
        E 360 96 0c 64
        E 120 86 0c 40
        E 360 96 0d 64
        E 120 86 0d 40
        E 360 96 0d 64
        E 120 86 0d 40
        E 360 96 0d 64
        E 120 86 0d 40
        E 360 96 0c 64
        E 120 86 0c 40
        E 360 96 0d 64
        E 120 86 0d 40
        E 360 96 0d 64
        E 120 86 0d 40
        E 360 96 0d 64
        E 120 86 0d 40
        E 360 96 0c 64
        E 120 86 0c 40
        E 360 96 0d 64
        E 120 86 0d 40
        E 360 96 0d 64
        E 120 86 0d 40
        E 360 96 0d 64
        E 120 86 0d 40
        E 360 96 0c 64
        E 120 86 0c 40
        E 360 96 0d 64
        E 120 86 0d 40
        E 360 96 0d 64
        E 120 86 0d 40
        E 360 96 0d 64
        E 120 86 0d 40
        E 360 96 0c 64
        E 120 86 0c 40
        E 360 96 0d 64
        E 120 86 0d 40
        E 360 96 0d 64
        E 120 86 0d 40
        E 360 96 0d 64
        E 120 86 0d 40
        E 360 96 0c 64
        E 120 86 0c 40
        E 360 96 0d 64
        E 120 86 0d 40
        E 360 96 0d 64
        E 120 86 0d 40
        E 360 96 0d 64
        E 120 86 0d 40
        E 360 96 0c 64
        E 120 86 0c 40
        E 360 96 0d 64
        E 120 86 0d 40
        E 360 96 0d 64
        E 120 86 0d 40
        E 360 96 0d 64
        E 120 86 0d 40
        E 360 96 0c 64
        E 120 86 0c 40
        E 360 96 0d 64
        E 120 86 0d 40
        E 360 96 0d 64
        E 120 86 0d 40
        E 360 96 0d 64
        E 120 86 0d 40
        E 360 96 0c 64
        E 120 86 0c 40
        E 360 96 0d 64
        E 120 86 0d 40
        E 360 96 0d 64
        E 120 86 0d 40
        E 360 96 0d 64
        E 120 86 0d 40
        E 360 96 0c 64
        E 120 86 0c 40
        E 360 96 0d 64
        E 120 86 0d 40
        E 360 96 0d 64
        E 120 86 0d 40
        E 360 96 0d 64
        E 120 86 0d 40
        E 360 96 0c 64
        E 120 86 0c 40
        E 360 96 0d 64
        E 120 86 0d 40
        E 360 96 0d 64
        E 120 86 0d 40
        E 360 96 0d 64
        E 120 86 0d 40
        E 360 96 0c 64
        E 120 86 0c 40
        E 360 96 0d 64
        E 120 86 0d 40
        E 360 96 0d 64
        E 120 86 0d 40
        E 360 96 0d 64
        E 120 86 0d 40
        E 360 96 0c 64
        E 120 86 0c 40
        E 360 96 0d 64
        E 120 86 0d 40
        E 360 96 0d 64
        E 120 86 0d 40
        E 360 96 0d 64
        E 120 86 0d 40
        E 360 96 0c 64
        E 120 86 0c 40
        E 360 96 0d 64
        E 120 86 0d 40
        E 360 96 0d 64
        E 120 86 0d 40
        E 360 96 0d 64
        E 120 86 0d 40
        E 360 96 0c 64
        E 120 86 0c 40
        E 360 96 0d 64
        E 120 86 0d 40
        E 360 96 0d 64
        E 120 86 0d 40
        E 360 96 0d 64
        E 120 86 0d 40
        E 360 96 0c 64
        E 120 86 0c 40
        E 360 96 0d 64
        E 120 86 0d 40
        E 360 96 0d 64
        E 120 86 0d 40
        E 360 96 0d 64
        E 120 86 0d 40
        E 360 96 0c 64
        E 120 86 0c 40
        E 360 96 0d 64
        E 120 86 0d 40
        E 360 96 0d 64
        E 120 86 0d 40
        E 360 96 0d 64
        E 120 86 0d 40
        E 360 96 0c 64
        E 120 86 0c 40
        E 360 96 0d 64
        E 120 86 0d 40
        E 360 96 0d 64
        E 120 86 0d 40
        E 360 96 0d 64
        E 120 86 0d 40
        E 360 96 0c 64
        E 120 86 0c 40
        E 360 96 0d 64
        E 120 86 0d 40
        E 360 96 0d 64
        E 120 86 0d 40
        E 360 96 0d 64
        E 120 86 0d 40
        E 360 96 0c 64
        E 120 86 0c 40
        E 360 96 0d 64
        E 120 86 0d 40
        E 360 96 0d 64
        E 120 86 0d 40
        E 360 96 0d 64
        E 120 86 0d 40
        E 360 90 0c 64
        E 120 80 0c 40
        E 360 90 0d 64
        E 120 80 0d 40
        E 360 90 0d 64
        E 120 80 0d 40
        E 360 90 0d 64
        E 120 80 0d 40
        E 360 90 0c 64
        E 120 80 0c 40
        E 360 90 0d 64
        E 120 80 0d 40
        E 360 90 0d 64
        E 120 80 0d 40
        E 360 90 0d 64
        E 120 80 0d 40
        E 360 90 0c 64
        E 120 80 0c 40
        E 360 90 0d 64
        E 120 80 0d 40
        E 360 90 0d 64
        E 120 80 0d 40
        E 360 90 0d 64
        E 120 80 0d 40
        E 360 90 0c 64
        E 120 80 0c 40
        E 360 90 0d 64
        E 120 80 0d 40
        E 360 90 0d 64
        E 120 80 0d 40
        E 360 90 0d 64
        E 120 80 0d 40
        E 360 90 0c 64
        E 120 80 0c 40
        E 360 90 0d 64
        E 120 80 0d 40
        E 360 90 0d 64
        E 120 80 0d 40
        E 360 90 0d 64
        E 120 80 0d 40
        E 360 90 0c 64
        E 120 80 0c 40
        E 360 90 0d 64
        E 120 80 0d 40
        E 360 90 0d 64
        E 120 80 0d 40
        E 360 90 0d 64
        E 120 80 0d 40
        E 360 90 0c 64
        E 120 80 0c 40
        E 360 90 0d 64
        E 120 80 0d 40
        E 360 90 0d 64
        E 120 80 0d 40
        E 360 90 0d 64
        E 120 80 0d 40
        E 360 90 0c 64
        E 120 80 0c 40
        E 360 90 0d 64
        E 120 80 0d 40
        E 360 90 0d 64
        E 120 80 0d 40
        E 360 90 0d 64
        E 120 80 0d 40
        E 360 90 0c 64
        E 120 80 0c 40
        E 360 90 0d 64
        E 120 80 0d 40
        E 360 90 0d 64
        E 120 80 0d 40
        E 360 90 0d 64
        E 120 80 0d 40
        E 360 90 0c 64
        E 120 80 0c 40
        E 360 90 0d 64
        E 120 80 0d 40
        E 360 90 0d 64
        E 120 80 0d 40
        E 360 90 0d 64
        E 120 80 0d 40
        E 360 90 0c 64
        E 120 80 0c 40
        E 360 90 0d 64
        E 120 80 0d 40
        E 360 90 0d 64
        E 120 80 0d 40
        E 360 90 0d 64
        E 120 80 0d 40
        E 360 90 0c 64
        E 120 80 0c 40
        E 360 90 0d 64
        E 120 80 0d 40
        E 360 90 0d 64
        E 120 80 0d 40
        E 360 90 0d 64
        E 120 80 0d 40
        E 360 90 0c 64
        E 120 80 0c 40
        E 360 90 0d 64
        E 120 80 0d 40
        E 360 90 0d 64
        E 120 80 0d 40
        E 360 90 0d 64
        E 120 80 0d 40
        E 360 90 0c 64
        E 120 80 0c 40
        E 360 90 0d 64
        E 120 80 0d 40
        E 360 90 0d 64
        E 120 80 0d 40
        E 360 90 0d 64
        E 120 80 0d 40
        E 360 90 0c 64
        E 120 80 0c 40
        E 360 90 0d 64
        E 120 80 0d 40
        E 360 90 0d 64
        E 120 80 0d 40
        E 360 90 0d 64
        E 120 80 0d 40
        E 360 90 0c 64
        E 120 80 0c 40
        E 360 90 0d 64
        E 120 80 0d 40
        E 360 90 0d 64
        E 120 80 0d 40
        E 360 90 0d 64
        E 120 80 0d 40
        E 360 90 0c 64
        E 120 80 0c 40
        E 360 90 0d 64
        E 120 80 0d 40
        E 360 90 0d 64
        E 120 80 0d 40
        E 360 90 0d 64
        E 120 80 0d 40
        E 360 90 0c 64
        E 120 80 0c 40
        E 360 90 0d 64
        E 120 80 0d 40
        E 360 90 0d 64
        E 120 80 0d 40
        E 360 90 0d 64
        E 120 80 0d 40
        E 360 90 0c 64
        E 120 80 0c 40
        E 360 90 0d 64
        E 120 80 0d 40
        E 360 90 0d 64
        E 120 80 0d 40
        E 360 90 0d 64
        E 120 80 0d 40
        E 360 90 0c 64
        E 120 80 0c 40
        E 360 90 0d 64
        E 120 80 0d 40
        E 360 90 0d 64
        E 120 80 0d 40
        E 360 90 0d 64
        E 120 80 0d 40
        E 360 90 0c 64
        E 120 80 0c 40
        E 360 90 0d 64
        E 120 80 0d 40
        E 360 90 0d 64
        E 120 80 0d 40
        E 360 90 0d 64
        E 120 80 0d 40
        E 360 90 0c 64
        E 120 80 0c 40
        E 360 90 0d 64
        E 120 80 0d 40
        E 360 90 0d 64
        E 120 80 0d 40
        E 360 90 0d 64
        E 120 80 0d 40
        E 360 90 0c 64
        E 120 80 0c 40
        E 360 90 0d 64
        E 120 80 0d 40
        E 360 90 0d 64
        E 120 80 0d 40
        E 360 90 0d 64
        E 120 80 0d 40
        E 360 90 0c 64
        E 120 80 0c 40
        E 360 90 0d 64
        E 120 80 0d 40
        E 360 90 0d 64
        E 120 80 0d 40
        E 360 90 0d 64
        E 120 80 0d 40
        E 360 90 0c 64
        E 120 80 0c 40
        E 360 90 0d 64
        E 120 80 0d 40
        E 360 90 0d 64
        E 120 80 0d 40
        E 360 90 0d 64
        E 120 80 0d 40
        E 360 90 0c 64
        E 120 80 0c 40
        E 360 90 0d 64
        E 120 80 0d 40
        E 360 90 0d 64
        E 120 80 0d 40
        E 360 90 0d 64
        E 120 80 0d 40
        E 360 90 0c 64
        E 120 80 0c 40
        E 360 90 0d 64
        E 120 80 0d 40
        E 360 90 0d 64
        E 120 80 0d 40
        E 360 90 0d 64
        E 120 80 0d 40
        E 360 90 0c 64
        E 120 80 0c 40
        E 360 90 0d 64
        E 120 80 0d 40
        E 360 90 0d 64
        E 120 80 0d 40
        E 360 90 0d 64
        E 120 80 0d 40
        E 360 90 0c 64
        E 120 80 0c 40
        E 360 90 0d 64
        E 120 80 0d 40
        E 360 90 0d 64
        E 120 80 0d 40
        E 360 90 0d 64
        E 120 80 0d 40
        E 360 90 0c 64
        E 120 80 0c 40
        E 360 90 0d 64
        E 120 80 0d 40
        E 360 90 0d 64
        E 120 80 0d 40
        E 360 90 0d 64
        E 120 80 0d 40
        E 360 90 0c 64
        E 120 80 0c 40
        E 360 90 0d 64
        E 120 80 0d 40
        E 360 90 0d 64
        E 120 80 0d 40
        E 360 90 0d 64
        E 120 80 0d 40
        E 360 90 0c 64
        E 120 80 0c 40
        E 360 90 0d 64
        E 120 80 0d 40
        E 360 90 0d 64
        E 120 80 0d 40
        E 360 90 0d 64
        E 120 80 0d 40
        E 360 90 0c 64
        E 120 80 0c 40
        E 360 90 0d 64
        E 120 80 0d 40
        E 360 90 0d 64
        E 120 80 0d 40
        E 360 90 0d 64
        E 120 80 0d 40
        E 360 90 0c 64
        E 120 80 0c 40
        E 360 90 0d 64
        E 120 80 0d 40
        E 360 90 0d 64
        E 120 80 0d 40
        E 360 90 0d 64
        E 120 80 0d 40
        E 360 90 0c 64
        E 120 80 0c 40
        E 360 90 0d 64
        E 120 80 0d 40
        E 360 90 0d 64
        E 120 80 0d 40
        E 360 90 0d 64
        E 120 80 0d 40
        E 360 90 0c 64
        E 120 80 0c 40
        E 360 90 0d 64
        E 120 80 0d 40
        E 360 90 0d 64
        E 120 80 0d 40
        E 360 90 0d 64
        E 120 80 0d 40
        E 360 90 0c 64
        E 120 80 0c 40
        E 360 90 0d 64
        E 120 80 0d 40
        E 360 90 0d 64
        E 120 80 0d 40
        E 360 90 0d 64
        E 120 80 0d 40
        E 360 90 0c 64
        E 120 80 0c 40
        E 360 90 0d 64
        E 120 80 0d 40
        E 360 90 0d 64
        E 120 80 0d 40
        E 360 90 0d 64
        E 120 80 0d 40
        E 360 90 0c 64
        E 120 80 0c 40
        E 360 90 0d 64
        E 120 80 0d 40
        E 360 90 0d 64
        E 120 80 0d 40
        E 360 90 0d 64
        E 120 80 0d 40
        E 360 90 0c 64
        E 120 80 0c 40
        E 360 90 0d 64
        E 120 80 0d 40
        E 360 90 0d 64
        E 120 80 0d 40
        E 360 90 0d 64
        E 120 80 0d 40
        E 360 90 0c 64
        E 120 80 0c 40
        E 360 90 0d 64
        E 120 80 0d 40
        E 360 90 0d 64
        E 120 80 0d 40
        E 360 90 0d 64
        E 120 80 0d 40
        E 360 90 0c 64
        E 120 80 0c 40
        E 360 90 0d 64
        E 120 80 0d 40
        E 360 90 0d 64
        E 120 80 0d 40
        E 360 90 0d 64
        E 120 80 0d 40
        E 360 90 0c 64
        E 120 80 0c 40
        E 360 90 0d 64
        E 120 80 0d 40
        E 360 90 0d 64
        E 120 80 0d 40
        E 360 90 0d 64
        E 120 80 0d 40
        E 360 90 0c 64
        E 120 80 0c 40
        E 360 90 0d 64
        E 120 80 0d 40
        E 360 90 0d 64
        E 120 80 0d 40
        E 360 90 0d 64
        E 120 80 0d 40
        E 360 90 0c 64
        E 120 80 0c 40
        E 360 90 0d 64
        E 120 80 0d 40
        E 360 90 0d 64
        E 120 80 0d 40
        E 360 90 0d 64
        E 120 80 0d 40
        E 360 90 0c 64
        E 120 80 0c 40
        E 360 90 0d 64
        E 120 80 0d 40
        E 360 90 0d 64
        E 120 80 0d 40
        E 360 90 0d 64
        E 120 80 0d 40
        E 360 b0 7b 00
        GUID {8CB930E8-B6A0-4CAD-825A-9F47FB66C1D0}
        IGNTEMPO 0 120 4 4
        SRCCOLOR 288
        VELLANE 132 100 100
        COLORMAP "M:\RGS Documents\ColorMaps\rockband_vox-other.png"
        TEXTSTRINGFILE "Text Events List.txt"
        CFGEDITVIEW -5444.522198 69.471661 0 48 0 0 0 0 0 0.5
        KEYSNAP 0
        TRACKSEL 0
        EVTFILTER 0 -1 -1 -1 -1 0 1 0 0 -1 -1 -1 -1 0 -1 0 -1 -1
        CFGEDIT 1 1 0 0 0 1 1 1 1 1 1 1 44 63 1223 847 0 2 1 2 0 0 0 0 0 0.5 1 0 1 64
      >
    >
  >
  <TRACK {4D889F49-FE1F-4D1D-9FB8-BFD5BA06901A}
    NAME TRKS
    PEAKCOL 16576
    BEAT -1
    AUTOMODE 0
    VOLPAN 1 0 -1 -1 1
    MUTESOLO 0 0 0
    IPHASE 0
    ISBUS 0 0
    BUSCOMP 0 0
    SHOWINMIX 1 0.6667 0.5 1 0.5 0 0 0
    FREEMODE 0
    SEL 0
    REC 0 0 0 0 0 0 0
    TRACKHEIGHT 0 0
    INQ 0 0 0 0.5 100 0 0 100
    NCHAN 2
    FX 1
    TRACKID {4D889F49-FE1F-4D1D-9FB8-BFD5BA06901A}
    PERF 0
    MIDIOUT -1
    MAINSEND 1 0
  >
>
