<REAPER_PROJECT 0.1 "4.22"
  RIPPLE 0
  GROUPOVERRIDE 0 0 0
  AUTOXFADE 1
  ENVATTACH 1
  MIXERUIFLAGS 11 48
  PEAKGAIN 1.00000000000000
  FEEDBACK 0
  PANLAW 1.00000000000000
  PROJOFFS 0.00000000000000 0
  MAXPROJLEN 0 600.00000000000000
  GRID 1151 8 1.00000000000000 8 1.00000000000000 0
  TIMEMODE 1 0 -1
  CURSOR 251.18580399999584
  ZOOM 8.77211084484752 1343 0
  VZOOMEX 0
  USE_REC_CFG 0
  RECMODE 1
  SMPTESYNC 0 30.000000 100 40 1000 300 0 0.000000 0
  LOOP 0
  LOOPGRAN 0 4.00000000000000
  RECORD_PATH "" ""
  <RECORD_CFG
    ZXZhdxgA
  >
  <APPLYFX_CFG
  >
  RENDER_FILE ""
  RENDER_PATTERN ""
  RENDER_FMT 0 2 0
  RENDER_1X 0
  RENDER_RANGE 1 0.00000000000000 0.00000000000000
  RENDER_RESAMPLE 3 0 1
  RENDER_ADDTOPROJ 0
  RENDER_STEMS 0
  RENDER_DITHER 0
  TIMELOCKMODE 0
  ITEMMIX 0
  DEFPITCHMODE 0
  TAKELANE 1
  SAMPLERATE 44100 0 0
  <RENDER_CFG
  >
  LOCK 1
  <METRONOME 6 2.000000
    VOL 0.752735 0.723913
    FREQ 800 1600 0
    BEATLEN 4
    SAMPLES "" ""
  >
  GLOBAL_AUTO -1
  TEMPO 120.00000000000000 4 4
  PLAYRATE 1.00000000000000 0 0.25000 4.00000
  SELECTION 0.00000000000000 0.00000000000000
  SELECTION2 0.00000000000000 0.00000000000000
  MASTERAUTOMODE 0
  MASTERTRACKHEIGHT 0
  MASTERPEAKCOL 16576
  MASTERMUTESOLO 0
  MASTERTRACKVIEW 1 0.666700 0.500000 0.500000 -1 -1 -1
  MASTERHWOUT 0 0 1.00000000000000 0.00000000000000 0 0 0 -1.00000000000000
  MASTER_NCH 2 2
  MASTER_VOLUME 1.00000000000000 0.00000000000000 -1.00000000000000 -1.00000000000000 1.00000000000000
  MASTER_FX 1
  MASTER_SEL 0
  <MASTERFXLIST
    SHOW 0
    LASTSEL 0
    DOCKED 0
    BYPASS 0 0
    <VST "VST: W1 Limiter (George Yohng)" "George Yohng's W1 Limiter.dll" 0 ""
      THdGNO5e7f4CAAAAAQAAAAAAAAACAAAAAAAAAAIAAAABAAAAAAAAAA==
      AgAAAAAAAADwAAAAAQAAAAAAEAAVAAAA//////////8CAAAAFQAAAA==
      AAAAAEgmAAAA//////////8MAAAAJgAAAAAAAAB5b2huZy13MWxpbQ==
      aXRlci0xACQAAAD//////////wYAAAAkAAAAAAAAAAAAAADMT3I/AA==
      AAAAAAAAACQAAAD//////////wYAAAAkAAAAAAAAAAEAAADMT3I/AA==
      AAAAAAAAACQAAAD//////////wYAAAAkAAAAAAAAAAIAAADNzEw+AA==
      AAAAAAAAABgAAAD//////////woAAAAYAAAAAAAAAAAAAAAVAAAA/w==
      /////////wMAAAAVAAAAAAAAAAA=
    >
    FLOATPOS 24 24 481 152
    FXID {69D45D23-FE06-4141-B0BB-1A6D9443AFA8}
    WAK 0
  >
  <MASTERPLAYSPEEDENV
    ACT 0
    VIS 0 1 1.000000
    LANEHEIGHT 0 0
    ARM 0
    DEFSHAPE 0 -1 -1
  >
  <TEMPOENVEX
    ACT 1
    VIS 1 0 1.000000
    LANEHEIGHT 0 0
    ARM 0
    DEFSHAPE 1 -1 -1
    PT 0.000000000000 120.0000000000 1
    PT 4.000000000000 185.0001850002 1
    PT 6.594592000000 190.9678569269 1
    PT 7.851348000000 193.9995926009 1
    PT 11.562696000000 191.0146699267 1
    PT 12.819144000000 166.3256989837 1
    PT 14.262096000000 163.7666325486 1
    PT 17.193096000000 167.6970720091 1
    PT 20.055400000000 165.1173158529 1
    PT 21.508912000000 170.4434085273 1
    PT 22.917004000000 183.3343009310 1
    PT 24.226088000000 168.3898561951 1
    PT 25.651352000000 165.7989853102 1
    PT 28.546424000000 173.9533804940 1
    PT 29.926104000000 168.6819473769 1
    PT 31.348900000000 167.8424966012 1
    PT 32.778812000000 174.6653702615 1
    PT 34.152868000000 184.1004697630 1
    PT 35.456504000000 169.5317532974 1
    PT 36.872168000000 168.2175389213 1
    PT 38.298892000000 167.5888709817 1
    PT 39.730968000000 171.6109693732 1
    PT 42.527992000000 170.2808783088 1
    PT 43.937428000000 176.4565755072 1
    PT 45.297536000000 182.1488095057 1
    PT 46.615140000000 167.7341078922 1
    PT 48.045976000000 166.8998628639 1
    PT 49.483964000000 167.5280400057 1
    PT 50.916560000000 174.3380239947 1
    PT 52.293196000000 166.0361903550 1
    PT 53.738664000000 166.6611112963 1
    PT 55.178712000000 177.0637518038 1
    PT 56.534156000000 184.9232106368 1
    PT 57.831992000000 172.7747334230 1
    PT 59.221084000000 173.4249402407 1
    PT 60.604968000000 175.6203789888 1
    PT 61.971552000000 187.3284773629 1
    PT 63.252724000000 171.8606782768 1
    PT 64.649204000000 174.5886255510 1
    PT 66.023864000000 175.2459284529 1
    PT 67.393368000000 175.9056207709 1
    PT 68.757736000000 173.1991617161 1
    PT 70.143424000000 173.7639590380 1
    PT 71.524608000000 175.1323708837 1
    PT 72.895000000000 184.3499207295 1
    PT 74.196872000000 173.5056823111 1
    PT 75.580112000000 174.1588851509 1
    PT 78.336216000000 185.7694415461 1
    PT 79.628140000000 171.0683503594 1
    PT 81.031088000000 171.4971702967 1
    PT 82.430528000000 177.9475529246 1
    PT 83.779240000000 183.6879020086 1
    PT 85.085804000000 178.7714823731 1
    PT 86.428300000000 180.1223030438 1
    PT 87.760728000000 180.8007665953 1
    PT 89.088156000000 183.0892651712 1
    PT 90.398992000000 170.3156801131 1
    PT 91.808140000000 171.2143089505 1
    PT 93.209892000000 178.1742484759 1
    PT 94.556888000000 182.7429720099 1
    PT 95.870208000000 179.3797049802 1
    PT 97.208152000000 180.0547366399 1
    PT 98.541080000000 182.9128877372 1
    PT 99.853180000000 187.3027467948 1
    PT 101.134528000000 177.5379043426 1
    PT 102.486352000000 182.7930782354 1
    PT 103.799312000000 181.3762832372 1
    PT 105.122528000000 179.9704848405 1
    PT 106.456080000000 182.8270547476 1
    PT 107.768796000000 183.5154214126 1
    PT 109.076588000000 182.0924240447 1
    PT 110.394600000000 184.9830740487 1
    PT 111.692016000000 184.0626303777 1
    PT 112.995920000000 183.3752040049 1
    PT 115.613504000000 191.2643209160 1
    PT 116.868312000000 188.9501927292 1
    PT 118.138488000000 191.5843386189 1
    PT 119.391200000000 157.8448910870 1
    PT 120.911680000000 168.9084572465 1
    PT 122.332568000000 169.5442086524 1
    PT 123.748128000000 176.4363388283 1
    PT 125.108392000000 177.8257248621 1
    PT 126.458028000000 177.1609950543 1
    PT 127.812728000000 177.8278330197 1
    PT 129.162348000000 182.0957398702 1
    PT 130.480336000000 179.8480284160 1
    PT 131.814796000000 174.3978188646 1
    PT 135.943288000000 173.7463477070 1
    PT 137.324612000000 175.1144810920 1
    PT 140.065676000000 180.7631821551 1
    PT 141.393380000000 179.3620093328 1
    PT 142.731456000000 173.9266551295 1
    PT 144.111348000000 174.5815135635 1
    PT 145.486064000000 175.0189603874 1
    PT 146.857344000000 172.9435569878 1
    PT 148.245080000000 175.1328820743 1
    PT 149.615468000000 175.5715585780 1
    PT 150.982432000000 176.9540892615 1
    PT 152.338716000000 172.9016938603 1
    PT 153.726788000000 181.0489978938 1
    PT 155.052396000000 178.2637114505 1
    PT 156.398716000000 179.6670769065 1
    PT 157.734520000000 178.2743047302 1
    PT 160.427000000000 182.5533740427 1
    PT 163.056368000000 175.6903165354 1
    PT 164.422408000000 177.0736803584 1
    PT 165.777776000000 181.3231147685 1
    PT 167.101380000000 182.7513211398 1
    PT 168.414640000000 179.9397201937 1
    PT 169.748420000000 184.2582071676 1
    PT 171.050940000000 180.0385282450 1
    PT 172.383988000000 182.8961607048 1
    PT 173.696208000000 178.2181746895 1
    PT 176.389536000000 176.0176017602 1
    PT 177.753036000000 179.6100665455 1
    PT 179.089264000000 181.0244171768 1
    PT 183.066628000000 180.3480717785 1
    PT 184.397388000000 181.7680578992 1
    PT 185.717752000000 171.0756667674 1
    PT 187.120640000000 180.9725464647 1
    PT 188.446808000000 179.5697508769 1
    PT 189.783336000000 192.0534676854 1
    PT 191.032988000000 190.5645156168 1
    PT 193.551820000000 189.0871502676 1
    PT 194.821076000000 169.2529457065 1
    PT 196.239072000000 169.8898547442 1
    PT 197.651752000000 168.5729457279 1
    PT 199.075468000000 167.2660366313 1
    PT 200.510308000000 167.8960387728 1
    PT 201.939764000000 168.5279644069 1
    PT 203.363860000000 171.2030725245 1
    PT 204.765704000000 179.6224336445 1
    PT 206.101840000000 168.4621928724 1
    PT 207.526492000000 176.7471455336 1
    PT 208.884364000000 166.3501393182 1
    PT 210.327104000000 178.9314215505 1
    PT 211.668400000000 183.2256882415 1
    PT 212.978260000000 180.4066365588 1
    PT 214.308588000000 178.1795396435 1
    PT 215.655544000000 181.0080337399 1
    PT 216.981452000000 182.4329254944 1
  >
  <PROJBAY
  >
  <TRACK '{4D889F49-FE1F-4D1D-9FB8-BFD5BA06901A}'
    NAME "SONG AUDIO"
    PEAKCOL 16576
    BEAT -1
    AUTOMODE 0
    VOLPAN 1.00000000000000 0.00000000000000 -1.00000000000000 -1.00000000000000 1.00000000000000
    MUTESOLO 0 0 0
    IPHASE 0
    ISBUS 0 0
    BUSCOMP 0 0
    SHOWINMIX 1 0.666700 0.500000 1 0.500000 -1 -1 -1
    FREEMODE 0
    SEL 0
    REC 0 0 0 0 0 0 0
    TRACKHEIGHT 200 0
    INQ 0 0 0 0.5000000000 100 0 0 100
    NCHAN 2
    FX 1
    TRACKID {4D889F49-FE1F-4D1D-9FB8-BFD5BA06901A}
    PERF 0
    MIDIOUT -1
    MAINSEND 1 0
    <FXCHAIN
      SHOW 0
      LASTSEL 0
      DOCKED 0
      BYPASS 0 0
      <VST "VST: W1 Limiter (George Yohng)" "George Yohng's W1 Limiter.dll" 0 ""
        THdGNO5e7f4CAAAAAQAAAAAAAAACAAAAAAAAAAIAAAABAAAAAAAAAA==
        AgAAAAAAAADwAAAAAQAAAAAAEAAVAAAA//////////8CAAAAFQAAAA==
        AAAAAEgmAAAA//////////8MAAAAJgAAAAAAAAB5b2huZy13MWxpbQ==
        aXRlci0xACQAAAD//////////wYAAAAkAAAAAAAAAAAAAADMT3I/AA==
        AAAAAAAAACQAAAD//////////wYAAAAkAAAAAAAAAAEAAADMT3I/AA==
        AAAAAAAAACQAAAD//////////wYAAAAkAAAAAAAAAAIAAADNzEw+AA==
        AAAAAAAAABgAAAD//////////woAAAAYAAAAAAAAAAAAAAAVAAAA/w==
        /////////wMAAAAVAAAAAAAAAAA=
      >
      FLOATPOS 24 24 481 152
      FXID {D32BE511-3942-4A83-B6D7-DF2FE763A2B4}
      WAK 0
    >
    <ITEM
      POSITION 4.00000000000000
      SNAPOFFS 0.00000000000000
      LENGTH 217.62299319727890
      LOOP 0
      ALLTAKES 0
      SEL 0
      FADEIN 1 0.000000 0.000000 1 0
      FADEOUT 1 0.000000 0.000000 1 0
      MUTE 0
      IGUID {F08CBBBE-AD9F-49A6-995D-CC3C82AD947E}
      IID 1
      NAME "The Wolf is Loose.wav"
      VOLPAN 1.000000 0.000000 1.000000 -1.000000
      SOFFS 0.00000000000000
      PLAYRATE 1.00000000000000 1 0.00000000000000 -1
      CHANMODE 0
      GUID {BC4DA81E-24B5-49C4-88C6-AB3A134DDC12}
      <SOURCE WAVE
        FILE "The Wolf is Loose.wav"
      >
    >
  >
  <TRACK '{BDCFF37A-71AC-4D17-AF26-EA560B308842}'
    NAME "COUNTIN"
    PEAKCOL 16576
    BEAT -1
    AUTOMODE 0
    VOLPAN 1.00000000000000 0.00000000000000 -1.00000000000000 -1.00000000000000 1.00000000000000
    MUTESOLO 0 0 0
    IPHASE 0
    ISBUS 0 0
    BUSCOMP 0 0
    SHOWINMIX 1 0.666700 0.500000 1 0.500000 -1 -1 -1
    FREEMODE 0
    SEL 0
    REC 0 0 0 0 0 0 0
    TRACKHEIGHT 0 0
    INQ 0 0 0 0.5000000000 100 0 0 100
    NCHAN 2
    FX 1
    TRACKID {BDCFF37A-71AC-4D17-AF26-EA560B308842}
    PERF 0
    MIDIOUT -1
    MAINSEND 1 0
    <ITEM
      POSITION 0.00000000000000
      SNAPOFFS 0.00000000000000
      LENGTH 0.28216019417451
      LOOP 0
      ALLTAKES 0
      SEL 0
      FADEIN 1 0.000000 0.000000 1 0
      FADEOUT 1 0.000000 0.000000 1 0
      MUTE 0
      IGUID {D829F3DA-0BE5-4277-954B-C2D10DB114A6}
      IID 6
      NAME "stick.wav"
      VOLPAN 0.271028 0.000000 1.000000 -1.000000
      SOFFS 0.00000000000000
      PLAYRATE 1.00000000000052 1 0.00000000000000 -1
      CHANMODE 0
      GUID {3A242298-C3E5-4DC8-9A3C-2EE82D8D2134}
      <SOURCE WAVE
        FILE "D:\rbn\eloise\stick.wav"
      >
    >
    <ITEM
      POSITION 0.99999999999949
      SNAPOFFS 0.00000000000000
      LENGTH 0.28216019417451
      LOOP 0
      ALLTAKES 0
      SEL 0
      FADEIN 1 0.000000 0.000000 1 0
      FADEOUT 1 0.000000 0.000000 1 0
      MUTE 0
      IGUID {5AEC5162-2B2C-4FF2-BB3B-E29ADC0916FE}
      IID 7
      NAME "stick.wav"
      VOLPAN 0.271028 0.000000 1.000000 -1.000000
      SOFFS 0.00000000000000
      PLAYRATE 1.00000000000052 1 0.00000000000000 -1
      CHANMODE 0
      GUID {16E29BEE-96F5-48F0-9FB0-3F04A1AF90D5}
      <SOURCE WAVE
        FILE "D:\rbn\eloise\stick.wav"
      >
    >
    <ITEM
      POSITION 1.99999999999898
      SNAPOFFS 0.00000000000000
      LENGTH 0.28216019417451
      LOOP 0
      ALLTAKES 0
      SEL 0
      FADEIN 1 0.000000 0.000000 1 0
      FADEOUT 1 0.000000 0.000000 1 0
      MUTE 0
      IGUID {1FA8F8C4-F448-4E02-B340-4A6644F6D8AB}
      IID 8
      NAME "stick.wav"
      VOLPAN 0.271028 0.000000 1.000000 -1.000000
      SOFFS 0.00000000000000
      PLAYRATE 1.00000000000052 1 0.00000000000000 -1
      CHANMODE 0
      GUID {8D594F7C-8B39-4D29-A27D-55F46BC65189}
      <SOURCE WAVE
        FILE "D:\rbn\eloise\stick.wav"
      >
    >
    <ITEM
      POSITION 2.49999999999872
      SNAPOFFS 0.00000000000000
      LENGTH 0.28216019417451
      LOOP 0
      ALLTAKES 0
      SEL 0
      FADEIN 1 0.000000 0.000000 1 0
      FADEOUT 1 0.000000 0.000000 1 0
      MUTE 0
      IGUID {1D23FF37-8166-4C8E-915E-19EFDB52B4D8}
      IID 9
      NAME "stick.wav"
      VOLPAN 0.271028 0.000000 1.000000 -1.000000
      SOFFS 0.00000000000000
      PLAYRATE 1.00000000000052 1 0.00000000000000 -1
      CHANMODE 0
      GUID {1D91F480-CA0B-4E03-8204-02893D660CDF}
      <SOURCE WAVE
        FILE "D:\rbn\eloise\stick.wav"
      >
    >
    <ITEM
      POSITION 2.99999999999846
      SNAPOFFS 0.00000000000000
      LENGTH 0.28216019417451
      LOOP 0
      ALLTAKES 0
      SEL 0
      FADEIN 1 0.000000 0.000000 1 0
      FADEOUT 1 0.000000 0.000000 1 0
      MUTE 0
      IGUID {A6BA2F37-4089-4BF2-A73E-A602F32B7614}
      IID 10
      NAME "stick.wav"
      VOLPAN 0.271028 0.000000 1.000000 -1.000000
      SOFFS 0.00000000000000
      PLAYRATE 1.00000000000050 1 0.00000000000000 -1
      CHANMODE 0
      GUID {ABD24FE2-95CA-428E-ADD9-9A13921FCC29}
      <SOURCE WAVE
        FILE "D:\rbn\eloise\stick.wav"
      >
    >
    <ITEM
      POSITION 3.49999999999821
      SNAPOFFS 0.00000000000000
      LENGTH 0.28216019417451
      LOOP 0
      ALLTAKES 0
      SEL 0
      FADEIN 1 0.000000 0.000000 1 0
      FADEOUT 1 0.000000 0.000000 1 0
      MUTE 0
      IGUID {49CCEEAD-12F1-472E-8B9C-48A90BF6E20A}
      IID 11
      NAME "stick.wav"
      VOLPAN 0.271028 0.000000 1.000000 -1.000000
      SOFFS 0.00000000000000
      PLAYRATE 1.00000000000052 1 0.00000000000000 -1
      CHANMODE 0
      GUID {3DFEA1C1-AD72-4DF8-A1BD-3977672F4D80}
      <SOURCE WAVE
        FILE "D:\rbn\eloise\stick.wav"
      >
    >
  >
  <TRACK '{8F33A645-3DF2-48FA-99BC-10992A4F8042}'
    NAME "PART DRUMS"
    PEAKCOL 16842751
    BEAT -1
    AUTOMODE 0
    VOLPAN 1.00000000000000 0.00000000000000 -1.00000000000000 -1.00000000000000 1.00000000000000
    MUTESOLO 0 0 0
    IPHASE 0
    ISBUS 0 0
    BUSCOMP 1 0
    SHOWINMIX 1 0.666700 0.500000 1 0.500000 -1 -1 -1
    FREEMODE 0
    SEL 0
    REC 0 4096 1 7 0 0 0
    TRACKHEIGHT 53 0
    INQ 0 0 0 0.5000000000 100 0 0 100
    NCHAN 2
    FX 1
    TRACKID {8F33A645-3DF2-48FA-99BC-10992A4F8042}
    PERF 0
    MIDIOUT -1
    <MIDINOTENAMES
      0 84 "HARD Kick"
      0 96 "EXPERT Kick"
      0 72 "MEDIUM Kick"
      0 60 "EASY Kick"
      0 97 "EXPERT Red"
      0 98 "EXPERT Yellow"
      0 99 "EXPERT Blue"
      0 100 "EXPERT Green"
      0 85 "HARD Red"
      0 86 "HARD Yellow"
      0 87 "HARD Blue"
      0 88 "HARD Green"
      0 73 "MEDIUM Red"
      0 74 "MEDIUM Yellow"
      0 75 "MEDIUM Blue"
      0 76 "MEDIUM Green"
      0 61 "EASY Red"
      0 62 "EASY Yellow"
      0 63 "EASY Blue"
      0 64 "EASY Green"
      0 101 " "
      0 92 "----"
      0 80 "----"
      0 68 "----"
      0 120 "DRUM FILL (use all 5)"
      0 121 "DRUM FILL"
      0 122 "DRUM FILL"
      0 123 "DRUM FILL"
      0 124 "DRUM FILL"
      0 114 "----"
      0 116 "OVERDRIVE"
      0 118 "----"
      0 24 "KICK RF"
      0 25 "HI-HAT OPEN"
      0 26 "SNARE HARD LH"
      0 27 "SNARE HARD RH"
      0 30 "HI-HAT LH"
      0 31 "HI-HAT RH"
      0 32 "PERCUSSION RH"
      0 34 "CRASH1 HARD LH"
      0 35 "CRASH1 SOFT LH"
      0 36 "CRASH1 HARD RH"
      0 37 "CRASH1 SOFT RH"
      0 38 "CRASH2 HARD RH"
      0 39 "CRASH2 SOFT RH"
      0 40 "CRASH1 CHOKE"
      0 41 "CRASH2 CHOKE"
      0 42 "RIDE CYM RH"
      0 46 "TOM1 LH"
      0 47 "TOM1 RH"
      0 48 "TOM2 LH"
      0 49 "TOM2 RH"
      0 50 "FLOOR TOM LH"
      0 51 "FLOOR TOM RH"
      0 52 "--DRUM ANIMATION--"
      0 56 "----"
      0 103 "Solo Marker"
      0 102 "----"
      0 110 "PRO Yellow Tom"
      0 111 "PRO Blue Tom"
      0 112 "PRO Green Tom"
      0 108 "----"
      0 127 "Roll Marker 2-Lane / Cym"
      0 126 "Roll Marker 1-Lane"
      0 125 "----"
      0 28 "SNARE SOFT LH"
      0 29 "SNARE SOFT RH"
      0 43 "RIDE CYM LH"
      0 44 "CRASH2 HARD LH"
      0 45 "CRASH2 SOFT LH"
    >
    MAINSEND 1 0
    <FXCHAIN
      WNDRECT 0 38 870 574
      SHOW 0
      LASTSEL 1
      DOCKED 0
      BYPASS 1 0
      <VST "VSTi: ReaSynth (Cockos)" "reasynth.dll" 0 ""
        eXNlcu9e7f4AAAAAAgAAAAEAAAAAAAAAAgAAAAAAAAA4AAAAAAAAAA==
        AAAAAO++rd4N8K3eAAAAAAAAAAAAAAAAAAAAADm0SD59y9s+tbSxOQ==
        AAAAALbz/T5VpCs6AAAAAAAAAAAAAAAAAAA=
      >
      FLOATPOS 0 0 0 0
      FXID {58F55556-9407-4062-A048-6AFCC0B53535}
      WAK 0
      BYPASS 0 0
      <VST "VSTi: RBN Preview (RBN)" "rbprev_vst.dll" 0 ""
        dnBicu5e7f4AAAAAAgAAAAEAAAAAAAAAAgAAAAAAAAAEAAAAAQAAAA==
        AAAAAAMBqgAAAAAAAAA=
      >
      FLOATPOS 32 32 659 497
      FXID {D7126437-AB1E-4109-A0FA-F2D5D0AC68DC}
      WAK 0
    >
    <ITEM
      POSITION 0.00000000000000
      SNAPOFFS 0.00000000000000
      LENGTH 221.58588399999994
      LOOP 0
      ALLTAKES 0
      COLOR 19150555
      SEL 0
      FADEIN 1 0.000000 0.000000 1 0
      FADEOUT 1 0.000000 0.000000 1 0
      MUTE 0
      IGUID {9FF11F36-E94F-4396-9C0E-8449C916EC21}
      IID 2
      NAME "PART DRUMS"
      VOLPAN 1.000000 0.000000 1.000000 -1.000000
      SOFFS 0.00000000000000 0.00000000000000
      PLAYRATE 1.00000000000000 1 0.00000000000000 -65536
      CHANMODE 0
      GUID {70A79ADF-E70C-430A-913F-E16D0CC85517}
      <SOURCE MIDI
        HASDATA 1 480 QN
        POOLEDEVTS {457E09E3-D803-4FE2-AD4D-49AC9BE7EF94}
        <X 0 0
          /wNQQVJUIERSVU1T
        >
        <X 300 0
          /wFbbWl4IDEgZHJ1bXMwXQ==
        >
        <X 0 0
          /wFbbWl4IDAgZHJ1bXMwXQ==
        >
        <X 60 0
          /wFbbWl4IDIgZHJ1bXMwXQ==
        >
        <X 60 0
          /wFbbWl4IDMgZHJ1bXMwXQ==
        >
        <X 3420 0
          /wNQQVJUIERSVU1T
        >
        <X 120 0
          /wFbbWl4IDEgZHJ1bXMwXQ==
        >
        <X 0 0
          /wFbbWl4IDAgZHJ1bXMwXQ==
        >
        <X 60 0
          /wFbbWl4IDIgZHJ1bXMwXQ==
        >
        <X 60 0
          /wFbbWl4IDMgZHJ1bXMwXQ==
        >
        <X 5400 0
          /wFbcGxheV0=
        >
        E 120 90 63 60
        E 0 90 57 60
        E 0 90 4b 60
        E 0 90 6f 60
        E 0 90 3f 60
        E 0 90 31 60
        E 120 80 63 00
        E 0 80 57 00
        E 0 80 4b 00
        E 0 80 3f 00
        E 0 90 61 60
        E 0 80 31 00
        E 0 90 1a 60
        E 120 80 61 00
        E 0 90 61 60
        E 0 90 55 60
        E 0 80 1a 00
        E 0 90 1b 60
        E 120 80 61 00
        E 0 80 55 00
        E 0 90 62 60
        E 0 90 6e 60
        E 0 80 1b 00
        E 0 90 2e 60
        E 120 80 62 00
        E 0 90 62 60
        E 0 90 56 60
        E 0 90 4a 60
        E 0 90 3e 60
        E 0 80 2e 00
        E 0 90 1f 60
        E 120 80 62 00
        E 0 80 56 00
        E 0 80 4a 00
        E 0 80 3e 00
        E 0 90 61 60
        E 0 80 1f 00
        E 0 90 1a 60
        E 120 80 61 00
        E 0 90 62 60
        E 0 90 56 60
        E 0 80 1a 00
        E 0 90 1f 60
        E 120 80 62 00
        E 0 80 56 00
        E 0 90 61 60
        E 0 80 1f 00
        E 0 90 1a 60
        E 120 80 61 00
        E 0 90 61 60
        E 0 90 55 60
        E 0 90 49 60
        E 0 90 3d 60
        E 0 80 1a 00
        E 0 90 1b 60
        E 120 80 61 00
        E 0 80 55 00
        E 0 80 49 00
        E 0 80 3d 00
        E 0 90 61 60
        E 0 80 1b 00
        E 0 90 1a 60
        E 120 80 61 00
        E 0 90 61 60
        E 0 90 55 60
        E 0 80 1a 00
        E 0 90 1b 60
        E 120 80 61 00
        E 0 80 55 00
        E 0 90 61 60
        E 0 80 1b 00
        E 0 90 1a 60
        E 120 80 61 00
        E 0 90 61 60
        E 0 90 55 60
        E 0 90 49 60
        E 0 90 3d 60
        E 0 80 1a 00
        E 0 90 1b 60
        E 120 80 61 00
        E 0 80 55 00
        E 0 80 49 00
        E 0 80 3d 00
        E 0 90 61 60
        E 0 80 1b 00
        E 0 90 1a 60
        E 120 80 61 00
        E 0 90 61 60
        E 0 90 55 60
        E 0 80 1a 00
        E 0 90 1b 60
        E 120 80 61 00
        E 0 80 55 00
        E 0 90 61 60
        E 0 80 1b 00
        E 0 90 1a 60
        E 120 80 61 00
        E 0 90 63 60
        E 0 90 57 60
        E 0 90 4b 60
        E 0 90 3f 60
        E 0 80 1a 00
        E 0 90 2a 60
        E 120 80 63 00
        E 0 80 57 00
        E 0 80 4b 00
        E 0 80 3f 00
        E 0 90 61 60
        E 0 80 2a 00
        E 0 90 1a 60
        E 120 80 61 00
        E 0 90 61 60
        E 0 90 55 60
        E 0 80 1a 00
        E 0 90 1b 60
        E 120 80 61 00
        E 0 80 55 00
        E 0 90 62 60
        E 0 80 1b 00
        E 0 90 1e 60
        E 120 80 62 00
        E 0 90 62 60
        E 0 90 56 60
        E 0 90 4a 60
        E 0 90 3e 60
        E 0 80 1e 00
        E 0 90 1f 60
        E 120 80 62 00
        E 0 80 56 00
        E 0 80 4a 00
        E 0 80 3e 00
        E 0 90 61 60
        E 0 80 1f 00
        E 0 90 1a 60
        E 120 80 61 00
        E 0 90 62 60
        E 0 90 56 60
        E 0 80 1a 00
        E 0 90 1f 60
        E 120 80 62 00
        E 0 80 56 00
        E 0 90 61 60
        E 0 80 1f 00
        E 0 90 1a 60
        E 120 80 61 00
        E 0 90 61 60
        E 0 90 55 60
        E 0 90 49 60
        E 0 90 3d 60
        E 0 80 1a 00
        E 0 90 1b 60
        E 120 80 61 00
        E 0 80 55 00
        E 0 80 49 00
        E 0 80 3d 00
        E 0 90 61 60
        E 0 80 1b 00
        E 0 90 1a 60
        E 120 80 61 00
        E 0 90 61 60
        E 0 90 55 60
        E 0 80 1a 00
        E 0 90 1b 60
        E 120 80 61 00
        E 0 80 55 00
        E 0 90 61 60
        E 0 80 1b 00
        E 0 90 1a 60
        E 120 80 61 00
        E 0 90 61 60
        E 0 90 55 60
        E 0 90 49 60
        E 0 90 3d 60
        E 0 80 1a 00
        E 0 90 1b 60
        E 120 80 61 00
        E 0 80 55 00
        E 0 80 49 00
        E 0 80 3d 00
        E 0 90 61 60
        E 0 80 1b 00
        E 0 90 1a 60
        E 120 80 61 00
        E 0 90 61 60
        E 0 90 55 60
        E 0 80 1a 00
        E 0 90 1b 60
        E 120 80 61 00
        E 0 80 55 00
        E 0 90 61 60
        E 0 80 1b 00
        E 0 90 1a 60
        E 120 80 61 00
        E 0 90 63 60
        E 0 90 57 60
        E 0 90 4b 60
        E 0 90 3f 60
        E 0 80 1a 00
        E 0 90 2a 60
        E 120 80 63 00
        E 0 80 57 00
        E 0 80 4b 00
        E 0 80 3f 00
        E 0 90 61 60
        E 0 80 2a 00
        E 0 90 1a 60
        E 120 80 61 00
        E 0 90 61 60
        E 0 90 55 60
        E 0 80 1a 00
        E 0 90 1b 60
        E 120 80 6f 00
        E 0 80 61 00
        E 0 80 55 00
        E 0 90 62 60
        E 0 80 1b 00
        E 0 90 1e 60
        E 120 80 62 00
        E 0 90 62 60
        E 0 90 56 60
        E 0 90 4a 60
        E 0 90 3e 60
        E 0 80 1e 00
        E 0 90 1f 60
        E 120 80 62 00
        E 0 80 56 00
        E 0 80 4a 00
        E 0 80 3e 00
        E 0 90 61 60
        E 0 80 1f 00
        E 0 90 1a 60
        E 120 80 61 00
        E 0 90 62 60
        E 0 90 56 60
        E 0 80 1a 00
        E 0 90 1f 60
        E 120 80 62 00
        E 0 80 56 00
        E 0 90 61 60
        E 0 80 1f 00
        E 0 90 1a 60
        E 120 80 61 00
        E 0 90 61 60
        E 0 90 55 60
        E 0 90 49 60
        E 0 90 3d 60
        E 0 80 1a 00
        E 0 90 1b 60
        E 120 80 61 00
        E 0 80 55 00
        E 0 80 49 00
        E 0 80 3d 00
        E 0 90 61 60
        E 0 80 1b 00
        E 0 90 1a 60
        E 120 80 6e 00
        E 0 80 61 00
        E 0 90 61 60
        E 0 90 55 60
        E 0 80 1a 00
        E 0 90 1b 60
        E 120 80 61 00
        E 0 80 55 00
        E 0 90 61 60
        E 0 80 1b 00
        E 0 90 1a 60
        E 120 80 61 00
        E 0 90 61 60
        E 0 90 55 60
        E 0 90 49 60
        E 0 90 3d 60
        E 0 80 1a 00
        E 0 90 1b 60
        E 120 80 61 00
        E 0 80 55 00
        E 0 80 49 00
        E 0 80 3d 00
        E 0 90 61 60
        E 0 80 1b 00
        E 0 90 1a 60
        E 120 80 61 00
        E 0 90 61 60
        E 0 90 55 60
        E 0 80 1a 00
        E 0 90 1b 60
        E 120 80 61 00
        E 0 80 55 00
        E 0 90 61 60
        E 0 80 1b 00
        E 0 90 1a 60
        E 120 80 61 00
        E 0 90 61 60
        E 0 90 55 60
        E 0 90 49 60
        E 0 90 3d 60
        E 0 80 1a 00
        E 0 90 1b 60
        E 120 80 61 00
        E 0 80 55 00
        E 0 80 49 00
        E 0 80 3d 00
        E 0 90 61 60
        E 0 80 1b 00
        E 0 90 1a 60
        E 120 80 61 00
        E 0 90 61 60
        E 0 90 55 60
        E 0 80 1a 00
        E 0 90 1b 60
        E 120 80 61 00
        E 0 80 55 00
        E 0 90 61 60
        E 0 80 1b 00
        E 0 90 1a 60
        E 120 80 61 00
        E 0 90 61 60
        E 0 90 55 60
        E 0 90 49 60
        E 0 90 3d 60
        E 0 80 1a 00
        E 0 90 1b 60
        E 120 80 61 00
        E 0 80 55 00
        E 0 80 49 00
        E 0 80 3d 00
        E 0 90 61 60
        E 0 80 1b 00
        E 0 90 1a 60
        E 120 80 61 00
        E 0 90 61 60
        E 0 90 55 60
        E 0 80 1a 00
        E 0 90 1b 60
        E 120 80 61 00
        E 0 80 55 00
        E 0 90 61 60
        E 0 80 1b 00
        E 0 90 1a 60
        E 120 80 61 00
        E 0 90 61 60
        E 0 90 55 60
        E 0 90 49 60
        E 0 90 3d 60
        E 0 80 1a 00
        E 0 90 1b 60
        E 120 80 61 00
        E 0 80 55 00
        E 0 80 49 00
        E 0 80 3d 00
        E 0 90 61 60
        E 0 80 1b 00
        E 0 90 1a 60
        E 120 80 61 00
        E 0 90 61 60
        E 0 90 55 60
        E 0 80 1a 00
        E 0 90 1b 60
        E 120 80 61 00
        E 0 80 55 00
        E 0 90 61 60
        E 0 80 1b 00
        E 0 90 1a 60
        E 120 80 61 00
        E 0 90 61 60
        E 0 90 55 60
        E 0 90 49 60
        E 0 90 3d 60
        E 0 80 1a 00
        E 0 90 1b 60
        E 120 80 61 00
        E 0 80 55 00
        E 0 80 49 00
        E 0 80 3d 00
        E 0 90 61 60
        E 0 80 1b 00
        E 0 90 1a 60
        E 120 80 61 00
        E 0 90 61 60
        E 0 90 55 60
        E 0 80 1a 00
        E 0 90 1b 60
        E 120 80 61 00
        E 0 80 55 00
        E 0 90 61 60
        E 0 80 1b 00
        E 0 90 1a 60
        E 120 80 61 00
        E 0 90 60 60
        E 0 90 64 60
        E 0 90 74 60
        E 0 90 54 60
        E 0 90 58 60
        E 0 90 48 60
        E 0 90 4c 60
        E 0 90 40 60
        E 0 80 1a 00
        E 0 90 18 60
        E 0 90 26 60
        E 120 80 60 00
        E 0 80 64 00
        E 0 80 54 00
        E 0 80 58 00
        E 0 80 48 00
        E 0 80 4c 00
        E 0 80 40 00
        E 0 80 18 00
        E 0 80 26 00
        E 120 90 61 60
        E 0 90 55 60
        E 0 90 1b 60
        E 120 80 61 00
        E 0 80 55 00
        E 0 90 60 60
        E 0 90 64 60
        E 0 80 1b 00
        E 0 90 18 60
        E 0 90 2c 60
        E 120 80 60 00
        E 0 80 64 00
        E 0 80 18 00
        E 0 80 2c 00
        E 120 90 60 60
        E 0 90 18 60
        E 120 80 60 00
        E 0 90 61 60
        E 0 90 62 60
        E 0 90 55 60
        E 0 90 56 60
        E 0 80 18 00
        E 0 90 1a 60
        E 0 90 1f 60
        E 120 80 61 00
        E 0 80 62 00
        E 0 80 55 00
        E 0 80 56 00
        E 0 80 1a 00
        E 0 80 1f 00
        E 120 90 60 60
        E 0 90 62 60
        E 0 90 54 60
        E 0 90 56 60
        E 0 90 48 60
        E 0 90 4a 60
        E 0 90 3e 60
        E 0 90 18 60
        E 0 90 1f 60
        E 120 80 60 00
        E 0 80 62 00
        E 0 80 54 00
        E 0 80 56 00
        E 0 80 48 00
        E 0 80 4a 00
        E 0 80 3e 00
        E 0 90 60 60
        E 0 80 18 00
        E 0 80 1f 00
        E 0 90 18 60
        E 120 80 60 00
        E 0 90 61 60
        E 0 90 62 60
        E 0 90 55 60
        E 0 90 56 60
        E 0 80 18 00
        E 0 90 1a 60
        E 0 90 1f 60
        E 120 80 61 00
        E 0 80 62 00
        E 0 80 55 00
        E 0 80 56 00
        E 0 80 1a 00
        E 0 80 1f 00
        E 120 90 60 60
        E 0 90 62 60
        E 0 90 54 60
        E 0 90 56 60
        E 0 90 48 60
        E 0 90 4a 60
        E 0 90 3e 60
        E 0 90 18 60
        E 0 90 1f 60
        E 120 80 60 00
        E 0 80 62 00
        E 0 80 54 00
        E 0 80 56 00
        E 0 80 48 00
        E 0 80 4a 00
        E 0 80 3e 00
        E 0 80 18 00
        E 0 80 1f 00
        E 120 90 61 60
        E 0 90 62 60
        E 0 90 55 60
        E 0 90 56 60
        E 0 90 1a 60
        E 0 90 1f 60
        E 120 80 61 00
        E 0 80 62 00
        E 0 80 55 00
        E 0 80 56 00
        E 0 80 1a 00
        E 0 80 1f 00
        E 120 90 60 60
        E 0 90 62 60
        E 0 90 54 60
        E 0 90 56 60
        E 0 90 48 60
        E 0 90 4a 60
        E 0 90 3e 60
        E 0 90 18 60
        E 0 90 1f 60
        E 120 80 60 00
        E 0 80 62 00
        E 0 80 54 00
        E 0 80 56 00
        E 0 80 48 00
        E 0 80 4a 00
        E 0 80 3e 00
        E 0 80 18 00
        E 0 80 1f 00
        E 120 90 61 60
        E 0 90 62 60
        E 0 90 55 60
        E 0 90 56 60
        E 0 90 1a 60
        E 0 90 1f 60
        E 120 80 61 00
        E 0 80 62 00
        E 0 80 55 00
        E 0 80 56 00
        E 0 90 60 60
        E 0 80 1a 00
        E 0 80 1f 00
        E 0 90 18 60
        E 120 80 60 00
        E 0 90 62 60
        E 0 90 56 60
        E 0 90 4a 60
        E 0 90 3e 60
        E 0 80 18 00
        E 0 90 1f 60
        E 120 80 62 00
        E 0 80 56 00
        E 0 80 4a 00
        E 0 80 3e 00
        E 0 90 60 60
        E 0 80 1f 00
        E 0 90 18 60
        E 120 80 60 00
        E 0 90 61 60
        E 0 90 62 60
        E 0 90 55 60
        E 0 90 56 60
        E 0 80 18 00
        E 0 90 1a 60
        E 0 90 1f 60
        E 120 80 61 00
        E 0 80 62 00
        E 0 80 55 00
        E 0 80 56 00
        E 0 80 1a 00
        E 0 80 1f 00
        E 120 90 60 60
        E 0 90 62 60
        E 0 90 54 60
        E 0 90 56 60
        E 0 90 48 60
        E 0 90 4a 60
        E 0 90 3e 60
        E 0 90 18 60
        E 0 90 1f 60
        E 120 80 60 00
        E 0 80 62 00
        E 0 80 54 00
        E 0 80 56 00
        E 0 80 48 00
        E 0 80 4a 00
        E 0 80 3e 00
        E 0 90 60 60
        E 0 80 18 00
        E 0 80 1f 00
        E 0 90 18 60
        E 120 80 60 00
        E 0 90 61 60
        E 0 90 62 60
        E 0 90 55 60
        E 0 90 56 60
        E 0 80 18 00
        E 0 90 1a 60
        E 0 90 1f 60
        E 120 80 61 00
        E 0 80 62 00
        E 0 80 55 00
        E 0 80 56 00
        E 0 80 1a 00
        E 0 80 1f 00
        E 120 90 60 60
        E 0 90 62 60
        E 0 90 54 60
        E 0 90 56 60
        E 0 90 48 60
        E 0 90 4a 60
        E 0 90 3e 60
        E 0 90 18 60
        E 0 90 1f 60
        E 120 80 60 00
        E 0 80 62 00
        E 0 80 54 00
        E 0 80 56 00
        E 0 80 48 00
        E 0 80 4a 00
        E 0 80 3e 00
        E 0 80 18 00
        E 0 80 1f 00
        E 120 90 61 60
        E 0 90 62 60
        E 0 90 55 60
        E 0 90 56 60
        E 0 90 1a 60
        E 0 90 1f 60
        E 120 80 61 00
        E 0 80 62 00
        E 0 80 55 00
        E 0 80 56 00
        E 0 80 1a 00
        E 0 80 1f 00
        E 120 80 74 00
        E 0 90 60 60
        E 0 90 62 60
        E 0 90 54 60
        E 0 90 56 60
        E 0 90 48 60
        E 0 90 4a 60
        E 0 90 3e 60
        E 0 90 18 60
        E 0 90 1f 60
        E 120 80 60 00
        E 0 80 62 00
        E 0 80 54 00
        E 0 80 56 00
        E 0 80 48 00
        E 0 80 4a 00
        E 0 80 3e 00
        E 0 80 18 00
        E 0 80 1f 00
        E 120 90 61 60
        E 0 90 62 60
        E 0 90 55 60
        E 0 90 56 60
        E 0 90 1a 60
        E 0 90 1f 60
        E 120 80 61 00
        E 0 80 62 00
        E 0 80 55 00
        E 0 80 56 00
        E 0 90 60 60
        E 0 80 1a 00
        E 0 80 1f 00
        E 0 90 18 60
        E 120 80 60 00
        E 0 90 62 60
        E 0 90 56 60
        E 0 90 4a 60
        E 0 90 3e 60
        E 0 80 18 00
        E 0 90 1f 60
        E 120 80 62 00
        E 0 80 56 00
        E 0 80 4a 00
        E 0 80 3e 00
        E 0 90 60 60
        E 0 80 1f 00
        E 0 90 18 60
        E 120 80 60 00
        E 0 90 61 60
        E 0 90 62 60
        E 0 90 55 60
        E 0 90 56 60
        E 0 80 18 00
        E 0 90 1a 60
        E 0 90 1f 60
        E 120 80 61 00
        E 0 80 62 00
        E 0 80 55 00
        E 0 80 56 00
        E 0 80 1a 00
        E 0 80 1f 00
        E 120 90 60 60
        E 0 90 62 60
        E 0 90 54 60
        E 0 90 56 60
        E 0 90 48 60
        E 0 90 4a 60
        E 0 90 3e 60
        E 0 90 18 60
        E 0 90 1f 60
        E 120 80 60 00
        E 0 80 62 00
        E 0 80 54 00
        E 0 80 56 00
        E 0 80 48 00
        E 0 80 4a 00
        E 0 80 3e 00
        E 0 90 60 60
        E 0 80 18 00
        E 0 80 1f 00
        E 0 90 18 60
        E 120 80 60 00
        E 0 90 61 60
        E 0 90 62 60
        E 0 90 55 60
        E 0 90 56 60
        E 0 80 18 00
        E 0 90 1a 60
        E 0 90 1f 60
        E 120 80 61 00
        E 0 80 62 00
        E 0 80 55 00
        E 0 80 56 00
        E 0 80 1a 00
        E 0 80 1f 00
        E 120 90 60 60
        E 0 90 62 60
        E 0 90 54 60
        E 0 90 56 60
        E 0 90 48 60
        E 0 90 4a 60
        E 0 90 3e 60
        E 0 90 18 60
        E 0 90 1f 60
        E 120 80 60 00
        E 0 80 62 00
        E 0 80 54 00
        E 0 80 56 00
        E 0 80 48 00
        E 0 80 4a 00
        E 0 80 3e 00
        E 0 80 18 00
        E 0 80 1f 00
        E 120 90 61 60
        E 0 90 62 60
        E 0 90 55 60
        E 0 90 56 60
        E 0 90 1a 60
        E 0 90 1f 60
        E 120 80 61 00
        E 0 80 62 00
        E 0 80 55 00
        E 0 80 56 00
        E 0 80 1a 00
        E 0 80 1f 00
        E 120 90 60 60
        E 0 90 62 60
        E 0 90 78 60
        E 0 90 79 60
        E 0 90 7a 60
        E 0 90 7b 60
        E 0 90 7c 60
        E 0 90 54 60
        E 0 90 56 60
        E 0 90 48 60
        E 0 90 4a 60
        E 0 90 3e 60
        E 0 90 18 60
        E 0 90 1f 60
        E 120 80 60 00
        E 0 80 62 00
        E 0 80 54 00
        E 0 80 56 00
        E 0 80 48 00
        E 0 80 4a 00
        E 0 80 3e 00
        E 0 80 18 00
        E 0 80 1f 00
        E 120 90 61 60
        E 0 90 62 60
        E 0 90 55 60
        E 0 90 56 60
        E 0 90 1a 60
        E 0 90 1f 60
        E 120 80 61 00
        E 0 80 62 00
        E 0 80 55 00
        E 0 80 56 00
        E 0 80 1a 00
        E 0 80 1f 00
        E 120 90 60 60
        E 0 90 62 60
        E 0 90 54 60
        E 0 90 56 60
        E 0 90 48 60
        E 0 90 4a 60
        E 0 90 3e 60
        E 0 90 18 60
        E 0 90 1f 60
        E 120 80 60 00
        E 0 80 62 00
        E 0 80 54 00
        E 0 80 56 00
        E 0 80 48 00
        E 0 80 4a 00
        E 0 80 3e 00
        E 0 90 60 60
        E 0 80 18 00
        E 0 80 1f 00
        E 0 90 18 60
        E 120 80 60 00
        E 0 90 61 60
        E 0 90 62 60
        E 0 90 55 60
        E 0 90 56 60
        E 0 80 18 00
        E 0 90 1a 60
        E 0 90 1f 60
        E 120 80 61 00
        E 0 80 62 00
        E 0 80 55 00
        E 0 80 56 00
        E 0 80 1a 00
        E 0 80 1f 00
        E 120 90 62 60
        E 0 90 56 60
        E 0 90 4a 60
        E 0 90 3e 60
        E 0 90 1f 60
        E 120 80 62 00
        E 0 80 56 00
        E 0 80 4a 00
        E 0 80 3e 00
        E 0 90 60 60
        E 0 80 1f 00
        E 0 90 18 60
        E 120 80 60 00
        E 0 90 61 60
        E 0 90 62 60
        E 0 90 55 60
        E 0 90 56 60
        E 0 80 18 00
        E 0 90 1a 60
        E 0 90 1f 60
        E 120 80 61 00
        E 0 80 62 00
        E 0 80 55 00
        E 0 80 56 00
        E 0 80 1a 00
        E 0 80 1f 00
        E 120 90 61 60
        E 0 90 55 60
        E 0 90 49 60
        E 0 90 3d 60
        E 0 90 1b 60
        E 120 80 61 00
        E 0 80 55 00
        E 0 80 49 00
        E 0 80 3d 00
        E 0 90 61 60
        E 0 80 1b 00
        E 0 90 1a 60
        E 120 80 61 00
        E 0 90 61 60
        E 0 90 55 60
        E 0 80 1a 00
        E 0 90 1b 60
        E 120 80 61 00
        E 0 80 55 00
        E 0 90 61 60
        E 0 80 1b 00
        E 0 90 1a 60
        E 120 80 78 00
        E 0 80 79 00
        E 0 80 7a 00
        E 0 80 7b 00
        E 0 80 7c 00
        E 0 80 61 00
        E 0 90 60 60
        E 0 90 64 60
        E 0 90 54 60
        E 0 90 58 60
        E 0 90 48 60
        E 0 90 4c 60
        E 0 90 40 60
        E 0 80 1a 00
        E 0 90 18 60
        E 0 90 26 60
        E 120 80 60 00
        E 0 80 64 00
        E 0 80 54 00
        E 0 80 58 00
        E 0 80 48 00
        E 0 80 4c 00
        E 0 80 40 00
        E 0 80 18 00
        E 0 80 26 00
        E 120 90 61 60
        E 0 90 55 60
        E 0 90 1b 60
        E 120 80 61 00
        E 0 80 55 00
        E 0 90 60 60
        E 0 90 64 60
        E 0 80 1b 00
        E 0 90 18 60
        E 0 90 2c 60
        E 120 80 60 00
        E 0 80 64 00
        E 0 80 18 00
        E 0 80 2c 00
        E 120 90 60 60
        E 0 90 18 60
        E 120 80 60 00
        E 0 90 61 60
        E 0 90 62 60
        E 0 90 55 60
        E 0 90 56 60
        E 0 80 18 00
        E 0 90 1a 60
        E 0 90 1f 60
        E 120 80 61 00
        E 0 80 62 00
        E 0 80 55 00
        E 0 80 56 00
        E 0 80 1a 00
        E 0 80 1f 00
        E 120 90 60 60
        E 0 90 62 60
        E 0 90 54 60
        E 0 90 56 60
        E 0 90 48 60
        E 0 90 4a 60
        E 0 90 3e 60
        E 0 90 18 60
        E 0 90 1f 60
        E 120 80 60 00
        E 0 80 62 00
        E 0 80 54 00
        E 0 80 56 00
        E 0 80 48 00
        E 0 80 4a 00
        E 0 80 3e 00
        E 0 90 60 60
        E 0 80 18 00
        E 0 80 1f 00
        E 0 90 18 60
        E 120 80 60 00
        E 0 90 61 60
        E 0 90 62 60
        E 0 90 55 60
        E 0 90 56 60
        E 0 80 18 00
        E 0 90 1a 60
        E 0 90 1f 60
        E 120 80 61 00
        E 0 80 62 00
        E 0 80 55 00
        E 0 80 56 00
        E 0 80 1a 00
        E 0 80 1f 00
        E 120 90 60 60
        E 0 90 62 60
        E 0 90 54 60
        E 0 90 56 60
        E 0 90 48 60
        E 0 90 4a 60
        E 0 90 3e 60
        E 0 90 18 60
        E 0 90 1f 60
        E 120 80 60 00
        E 0 80 62 00
        E 0 80 54 00
        E 0 80 56 00
        E 0 80 48 00
        E 0 80 4a 00
        E 0 80 3e 00
        E 0 80 18 00
        E 0 80 1f 00
        E 120 90 61 60
        E 0 90 62 60
        E 0 90 55 60
        E 0 90 56 60
        E 0 90 1a 60
        E 0 90 1f 60
        E 120 80 61 00
        E 0 80 62 00
        E 0 80 55 00
        E 0 80 56 00
        E 0 80 1a 00
        E 0 80 1f 00
        E 120 90 60 60
        E 0 90 62 60
        E 0 90 54 60
        E 0 90 56 60
        E 0 90 48 60
        E 0 90 4a 60
        E 0 90 3e 60
        E 0 90 18 60
        E 0 90 1f 60
        E 120 80 60 00
        E 0 80 62 00
        E 0 80 54 00
        E 0 80 56 00
        E 0 80 48 00
        E 0 80 4a 00
        E 0 80 3e 00
        E 0 80 18 00
        E 0 80 1f 00
        E 120 90 61 60
        E 0 90 62 60
        E 0 90 55 60
        E 0 90 56 60
        E 0 90 1a 60
        E 0 90 1f 60
        E 120 80 61 00
        E 0 80 62 00
        E 0 80 55 00
        E 0 80 56 00
        E 0 90 60 60
        E 0 80 1a 00
        E 0 80 1f 00
        E 0 90 18 60
        E 120 80 60 00
        E 0 90 62 60
        E 0 90 56 60
        E 0 90 4a 60
        E 0 90 3e 60
        E 0 80 18 00
        E 0 90 1f 60
        E 120 80 62 00
        E 0 80 56 00
        E 0 80 4a 00
        E 0 80 3e 00
        E 0 90 60 60
        E 0 80 1f 00
        E 0 90 18 60
        E 120 80 60 00
        E 0 90 61 60
        E 0 90 62 60
        E 0 90 55 60
        E 0 90 56 60
        E 0 80 18 00
        E 0 90 1a 60
        E 0 90 1f 60
        E 120 80 61 00
        E 0 80 62 00
        E 0 80 55 00
        E 0 80 56 00
        E 0 80 1a 00
        E 0 80 1f 00
        E 120 90 60 60
        E 0 90 62 60
        E 0 90 54 60
        E 0 90 56 60
        E 0 90 48 60
        E 0 90 4a 60
        E 0 90 3e 60
        E 0 90 18 60
        E 0 90 1f 60
        E 120 80 60 00
        E 0 80 62 00
        E 0 80 54 00
        E 0 80 56 00
        E 0 80 48 00
        E 0 80 4a 00
        E 0 80 3e 00
        E 0 90 60 60
        E 0 80 18 00
        E 0 80 1f 00
        E 0 90 18 60
        E 120 80 60 00
        E 0 90 61 60
        E 0 90 62 60
        E 0 90 55 60
        E 0 90 56 60
        E 0 80 18 00
        E 0 90 1a 60
        E 0 90 1f 60
        E 120 80 61 00
        E 0 80 62 00
        E 0 80 55 00
        E 0 80 56 00
        E 0 80 1a 00
        E 0 80 1f 00
        E 120 90 60 60
        E 0 90 62 60
        E 0 90 54 60
        E 0 90 56 60
        E 0 90 48 60
        E 0 90 4a 60
        E 0 90 3e 60
        E 0 90 18 60
        E 0 90 1f 60
        E 120 80 60 00
        E 0 80 62 00
        E 0 80 54 00
        E 0 80 56 00
        E 0 80 48 00
        E 0 80 4a 00
        E 0 80 3e 00
        E 0 80 18 00
        E 0 80 1f 00
        E 120 90 61 60
        E 0 90 62 60
        E 0 90 55 60
        E 0 90 56 60
        E 0 90 1a 60
        E 0 90 1f 60
        E 120 80 61 00
        E 0 80 62 00
        E 0 80 55 00
        E 0 80 56 00
        E 0 80 1a 00
        E 0 80 1f 00
        E 120 90 60 60
        E 0 90 62 60
        E 0 90 54 60
        E 0 90 56 60
        E 0 90 48 60
        E 0 90 4a 60
        E 0 90 3e 60
        E 0 90 18 60
        E 0 90 1f 60
        E 120 80 60 00
        E 0 80 62 00
        E 0 80 54 00
        E 0 80 56 00
        E 0 80 48 00
        E 0 80 4a 00
        E 0 80 3e 00
        E 0 80 18 00
        E 0 80 1f 00
        E 120 90 61 60
        E 0 90 62 60
        E 0 90 55 60
        E 0 90 56 60
        E 0 90 1a 60
        E 0 90 1f 60
        E 120 80 61 00
        E 0 80 62 00
        E 0 80 55 00
        E 0 80 56 00
        E 0 90 60 60
        E 0 80 1a 00
        E 0 80 1f 00
        E 0 90 18 60
        E 120 80 60 00
        E 0 90 62 60
        E 0 90 56 60
        E 0 90 4a 60
        E 0 90 3e 60
        E 0 80 18 00
        E 0 90 1f 60
        E 120 80 62 00
        E 0 80 56 00
        E 0 80 4a 00
        E 0 80 3e 00
        E 0 90 60 60
        E 0 80 1f 00
        E 0 90 18 60
        E 120 80 60 00
        E 0 90 61 60
        E 0 90 62 60
        E 0 90 55 60
        E 0 90 56 60
        E 0 80 18 00
        E 0 90 1a 60
        E 0 90 1f 60
        E 120 80 61 00
        E 0 80 62 00
        E 0 80 55 00
        E 0 80 56 00
        E 0 80 1a 00
        E 0 80 1f 00
        E 120 90 60 60
        E 0 90 62 60
        E 0 90 54 60
        E 0 90 56 60
        E 0 90 48 60
        E 0 90 4a 60
        E 0 90 3e 60
        E 0 90 18 60
        E 0 90 1f 60
        E 120 80 60 00
        E 0 80 62 00
        E 0 80 54 00
        E 0 80 56 00
        E 0 80 48 00
        E 0 80 4a 00
        E 0 80 3e 00
        E 0 90 60 60
        E 0 80 18 00
        E 0 80 1f 00
        E 0 90 18 60
        E 120 80 60 00
        E 0 90 61 60
        E 0 90 62 60
        E 0 90 55 60
        E 0 90 56 60
        E 0 80 18 00
        E 0 90 1a 60
        E 0 90 1f 60
        E 120 80 61 00
        E 0 80 62 00
        E 0 80 55 00
        E 0 80 56 00
        E 0 80 1a 00
        E 0 80 1f 00
        E 120 90 61 60
        E 0 90 55 60
        E 0 90 49 60
        E 0 90 3d 60
        E 0 90 1b 60
        E 120 80 61 00
        E 0 80 55 00
        E 0 80 49 00
        E 0 80 3d 00
        E 0 90 61 60
        E 0 80 1b 00
        E 0 90 1a 60
        E 120 80 61 00
        E 0 90 61 60
        E 0 90 55 60
        E 0 80 1a 00
        E 0 90 1b 60
        E 120 80 61 00
        E 0 80 55 00
        E 0 90 61 60
        E 0 80 1b 00
        E 0 90 1a 60
        E 120 80 61 00
        E 0 90 61 60
        E 0 90 55 60
        E 0 90 49 60
        E 0 90 3d 60
        E 0 80 1a 00
        E 0 90 1b 60
        E 120 80 61 00
        E 0 80 55 00
        E 0 80 49 00
        E 0 80 3d 00
        E 0 90 61 60
        E 0 80 1b 00
        E 0 90 1a 60
        E 120 80 61 00
        E 0 90 61 60
        E 0 90 55 60
        E 0 80 1a 00
        E 0 90 1b 60
        E 120 80 61 00
        E 0 80 55 00
        E 0 90 61 60
        E 0 80 1b 00
        E 0 90 1a 60
        E 120 80 61 00
        E 0 90 62 60
        E 0 90 56 60
        E 0 90 4a 60
        E 0 90 6e 60
        E 0 90 3e 60
        E 0 80 1a 00
        E 0 90 2f 60
        E 120 80 62 00
        E 0 80 56 00
        E 0 80 4a 00
        E 0 80 3e 00
        E 0 90 61 60
        E 0 80 2f 00
        E 0 90 1a 60
        E 120 80 61 00
        E 0 90 61 60
        E 0 90 55 60
        E 0 80 1a 00
        E 0 90 1b 60
        E 120 80 61 00
        E 0 80 55 00
        E 0 90 61 60
        E 0 80 1b 00
        E 0 90 1a 60
        E 120 80 61 00
        E 0 90 62 60
        E 0 90 56 60
        E 0 90 4a 60
        E 0 90 6f 60
        E 0 90 3e 60
        E 0 80 1a 00
        E 0 90 2f 60
        E 120 80 62 00
        E 0 80 56 00
        E 0 80 4a 00
        E 0 80 3e 00
        E 0 90 61 60
        E 0 80 2f 00
        E 0 90 1a 60
        E 120 80 6e 00
        E 0 80 61 00
        E 0 90 61 60
        E 0 90 55 60
        E 0 80 1a 00
        E 0 90 1b 60
        E 120 80 61 00
        E 0 80 55 00
        E 0 90 61 60
        E 0 90 70 60
        E 0 80 1b 00
        E 0 90 1a 60
        E 120 80 61 00
        E 0 90 63 60
        E 0 90 57 60
        E 0 90 4b 60
        E 0 90 3f 60
        E 0 80 1a 00
        E 0 90 2a 60
        E 120 80 63 00
        E 0 80 57 00
        E 0 80 4b 00
        E 0 80 3f 00
        E 0 90 63 60
        E 0 80 2a 00
        E 0 90 2b 60
        E 120 80 6f 00
        E 0 80 63 00
        E 0 90 64 60
        E 0 90 58 60
        E 0 80 2b 00
        E 0 90 26 60
        E 120 80 64 00
        E 0 80 58 00
        E 0 90 64 60
        E 0 80 26 00
        E 0 90 2c 60
        E 120 80 70 00
        E 0 80 64 00
        E 0 90 60 60
        E 0 90 64 60
        E 0 90 54 60
        E 0 90 58 60
        E 0 90 48 60
        E 0 90 4c 60
        E 0 90 40 60
        E 0 80 2c 00
        E 0 90 18 60
        E 0 90 26 60
        E 120 80 60 00
        E 0 80 64 00
        E 0 80 54 00
        E 0 80 58 00
        E 0 80 48 00
        E 0 80 4c 00
        E 0 80 40 00
        E 0 80 18 00
        E 0 80 26 00
        E 120 90 61 60
        E 0 90 64 60
        E 0 90 55 60
        E 0 90 58 60
        E 0 90 1a 60
        E 0 90 26 60
        E 120 80 61 00
        E 0 80 64 00
        E 0 80 55 00
        E 0 80 58 00
        E 0 90 60 60
        E 0 80 1a 00
        E 0 80 26 00
        E 0 90 18 60
        E 120 80 60 00
        E 0 90 64 60
        E 0 90 58 60
        E 0 90 4c 60
        E 0 90 40 60
        E 0 80 18 00
        E 0 90 26 60
        E 120 80 64 00
        E 0 80 58 00
        E 0 80 4c 00
        E 0 80 40 00
        E 0 90 60 60
        E 0 80 26 00
        E 0 90 18 60
        E 120 80 60 00
        E 0 90 61 60
        E 0 90 64 60
        E 0 90 55 60
        E 0 90 58 60
        E 0 80 18 00
        E 0 90 1a 60
        E 0 90 26 60
        E 120 80 61 00
        E 0 80 64 00
        E 0 80 55 00
        E 0 80 58 00
        E 0 80 1a 00
        E 0 80 26 00
        E 120 90 60 60
        E 0 90 64 60
        E 0 90 54 60
        E 0 90 58 60
        E 0 90 48 60
        E 0 90 4c 60
        E 0 90 40 60
        E 0 90 18 60
        E 0 90 26 60
        E 120 80 60 00
        E 0 80 64 00
        E 0 80 54 00
        E 0 80 58 00
        E 0 80 48 00
        E 0 80 4c 00
        E 0 80 40 00
        E 0 90 60 60
        E 0 80 18 00
        E 0 80 26 00
        E 0 90 18 60
        E 120 80 60 00
        E 0 90 61 60
        E 0 90 64 60
        E 0 90 55 60
        E 0 90 58 60
        E 0 80 18 00
        E 0 90 1a 60
        E 0 90 26 60
        E 120 80 61 00
        E 0 80 64 00
        E 0 80 55 00
        E 0 80 58 00
        E 0 80 1a 00
        E 0 80 26 00
        E 120 90 60 60
        E 0 90 64 60
        E 0 90 54 60
        E 0 90 58 60
        E 0 90 48 60
        E 0 90 4c 60
        E 0 90 40 60
        E 0 90 18 60
        E 0 90 26 60
        E 120 80 60 00
        E 0 80 64 00
        E 0 80 54 00
        E 0 80 58 00
        E 0 80 48 00
        E 0 80 4c 00
        E 0 80 40 00
        E 0 80 18 00
        E 0 80 26 00
        E 120 90 61 60
        E 0 90 64 60
        E 0 90 55 60
        E 0 90 58 60
        E 0 90 1a 60
        E 0 90 26 60
        E 120 80 61 00
        E 0 80 64 00
        E 0 80 55 00
        E 0 80 58 00
        E 0 80 1a 00
        E 0 80 26 00
        E 120 90 60 60
        E 0 90 64 60
        E 0 90 54 60
        E 0 90 58 60
        E 0 90 48 60
        E 0 90 4c 60
        E 0 90 40 60
        E 0 90 18 60
        E 0 90 26 60
        E 120 80 60 00
        E 0 80 64 00
        E 0 80 54 00
        E 0 80 58 00
        E 0 80 48 00
        E 0 80 4c 00
        E 0 80 40 00
        E 0 80 18 00
        E 0 80 26 00
        E 120 90 61 60
        E 0 90 64 60
        E 0 90 55 60
        E 0 90 58 60
        E 0 90 1a 60
        E 0 90 26 60
        E 120 80 61 00
        E 0 80 64 00
        E 0 80 55 00
        E 0 80 58 00
        E 0 90 60 60
        E 0 80 1a 00
        E 0 80 26 00
        E 0 90 18 60
        E 120 80 60 00
        E 0 90 64 60
        E 0 90 58 60
        E 0 90 4c 60
        E 0 90 40 60
        E 0 80 18 00
        E 0 90 26 60
        E 120 80 64 00
        E 0 80 58 00
        E 0 80 4c 00
        E 0 80 40 00
        E 0 90 60 60
        E 0 80 26 00
        E 0 90 18 60
        E 120 80 60 00
        E 0 90 61 60
        E 0 90 64 60
        E 0 90 55 60
        E 0 90 58 60
        E 0 80 18 00
        E 0 90 1a 60
        E 0 90 26 60
        E 120 80 61 00
        E 0 80 64 00
        E 0 80 55 00
        E 0 80 58 00
        E 0 80 1a 00
        E 0 80 26 00
        E 120 90 60 60
        E 0 90 64 60
        E 0 90 54 60
        E 0 90 58 60
        E 0 90 48 60
        E 0 90 4c 60
        E 0 90 40 60
        E 0 90 18 60
        E 0 90 26 60
        E 120 80 60 00
        E 0 80 64 00
        E 0 80 54 00
        E 0 80 58 00
        E 0 80 48 00
        E 0 80 4c 00
        E 0 80 40 00
        E 0 90 60 60
        E 0 80 18 00
        E 0 80 26 00
        E 0 90 18 60
        E 120 80 60 00
        E 0 90 61 60
        E 0 90 64 60
        E 0 90 55 60
        E 0 90 58 60
        E 0 80 18 00
        E 0 90 1a 60
        E 0 90 26 60
        E 120 80 61 00
        E 0 80 64 00
        E 0 80 55 00
        E 0 80 58 00
        E 0 80 1a 00
        E 0 80 26 00
        E 120 90 60 60
        E 0 90 64 60
        E 0 90 54 60
        E 0 90 58 60
        E 0 90 48 60
        E 0 90 4c 60
        E 0 90 40 60
        E 0 90 18 60
        E 0 90 26 60
        E 120 80 60 00
        E 0 80 64 00
        E 0 80 54 00
        E 0 80 58 00
        E 0 80 48 00
        E 0 80 4c 00
        E 0 80 40 00
        E 0 80 18 00
        E 0 80 26 00
        E 120 90 61 60
        E 0 90 64 60
        E 0 90 55 60
        E 0 90 58 60
        E 0 90 1a 60
        E 0 90 26 60
        E 120 80 61 00
        E 0 80 64 00
        E 0 80 55 00
        E 0 80 58 00
        E 0 80 1a 00
        E 0 80 26 00
        E 120 90 60 60
        E 0 90 64 60
        E 0 90 74 60
        E 0 90 54 60
        E 0 90 58 60
        E 0 90 48 60
        E 0 90 4c 60
        E 0 90 40 60
        E 0 90 18 60
        E 0 90 26 60
        E 120 80 60 00
        E 0 80 64 00
        E 0 80 54 00
        E 0 80 58 00
        E 0 80 48 00
        E 0 80 4c 00
        E 0 80 40 00
        E 0 80 18 00
        E 0 80 26 00
        E 120 90 61 60
        E 0 90 64 60
        E 0 90 55 60
        E 0 90 58 60
        E 0 90 1a 60
        E 0 90 26 60
        E 120 80 61 00
        E 0 80 64 00
        E 0 80 55 00
        E 0 80 58 00
        E 0 90 60 60
        E 0 80 1a 00
        E 0 80 26 00
        E 0 90 18 60
        E 120 80 60 00
        E 0 90 64 60
        E 0 90 58 60
        E 0 90 4c 60
        E 0 90 40 60
        E 0 80 18 00
        E 0 90 26 60
        E 120 80 64 00
        E 0 80 58 00
        E 0 80 4c 00
        E 0 80 40 00
        E 0 90 60 60
        E 0 80 26 00
        E 0 90 18 60
        E 120 80 60 00
        E 0 90 61 60
        E 0 90 64 60
        E 0 90 55 60
        E 0 90 58 60
        E 0 80 18 00
        E 0 90 1a 60
        E 0 90 26 60
        E 120 80 61 00
        E 0 80 64 00
        E 0 80 55 00
        E 0 80 58 00
        E 0 80 1a 00
        E 0 80 26 00
        E 120 90 60 60
        E 0 90 64 60
        E 0 90 54 60
        E 0 90 58 60
        E 0 90 48 60
        E 0 90 4c 60
        E 0 90 40 60
        E 0 90 18 60
        E 0 90 26 60
        E 120 80 60 00
        E 0 80 64 00
        E 0 80 54 00
        E 0 80 58 00
        E 0 80 48 00
        E 0 80 4c 00
        E 0 80 40 00
        E 0 90 60 60
        E 0 80 18 00
        E 0 80 26 00
        E 0 90 18 60
        E 120 80 60 00
        E 0 90 61 60
        E 0 90 64 60
        E 0 90 55 60
        E 0 90 58 60
        E 0 80 18 00
        E 0 90 1a 60
        E 0 90 26 60
        E 120 80 61 00
        E 0 80 64 00
        E 0 80 55 00
        E 0 80 58 00
        E 0 80 1a 00
        E 0 80 26 00
        E 120 90 60 60
        E 0 90 64 60
        E 0 90 54 60
        E 0 90 58 60
        E 0 90 48 60
        E 0 90 4c 60
        E 0 90 40 60
        E 0 90 18 60
        E 0 90 26 60
        E 120 80 60 00
        E 0 80 64 00
        E 0 80 54 00
        E 0 80 58 00
        E 0 80 48 00
        E 0 80 4c 00
        E 0 80 40 00
        E 0 80 18 00
        E 0 80 26 00
        E 120 90 61 60
        E 0 90 64 60
        E 0 90 55 60
        E 0 90 58 60
        E 0 90 1a 60
        E 0 90 26 60
        E 120 80 61 00
        E 0 80 64 00
        E 0 80 55 00
        E 0 80 58 00
        E 0 80 1a 00
        E 0 80 26 00
        E 120 90 60 60
        E 0 90 64 60
        E 0 90 54 60
        E 0 90 58 60
        E 0 90 48 60
        E 0 90 4c 60
        E 0 90 40 60
        E 0 90 18 60
        E 0 90 26 60
        E 120 80 60 00
        E 0 80 64 00
        E 0 80 54 00
        E 0 80 58 00
        E 0 80 48 00
        E 0 80 4c 00
        E 0 80 40 00
        E 0 80 18 00
        E 0 80 26 00
        E 120 90 61 60
        E 0 90 64 60
        E 0 90 55 60
        E 0 90 58 60
        E 0 90 1a 60
        E 0 90 26 60
        E 120 80 61 00
        E 0 80 64 00
        E 0 80 55 00
        E 0 80 58 00
        E 0 90 60 60
        E 0 80 1a 00
        E 0 80 26 00
        E 0 90 18 60
        E 120 80 60 00
        E 0 90 64 60
        E 0 90 58 60
        E 0 90 4c 60
        E 0 90 40 60
        E 0 80 18 00
        E 0 90 26 60
        E 120 80 64 00
        E 0 80 58 00
        E 0 80 4c 00
        E 0 80 40 00
        E 0 90 60 60
        E 0 80 26 00
        E 0 90 18 60
        E 120 80 60 00
        E 0 90 61 60
        E 0 90 64 60
        E 0 90 55 60
        E 0 90 58 60
        E 0 80 18 00
        E 0 90 1a 60
        E 0 90 26 60
        E 120 80 61 00
        E 0 80 64 00
        E 0 80 55 00
        E 0 80 58 00
        E 0 80 1a 00
        E 0 80 26 00
        E 120 90 60 60
        E 0 90 64 60
        E 0 90 54 60
        E 0 90 58 60
        E 0 90 48 60
        E 0 90 4c 60
        E 0 90 40 60
        E 0 90 18 60
        E 0 90 26 60
        E 120 80 60 00
        E 0 80 64 00
        E 0 80 54 00
        E 0 80 58 00
        E 0 80 48 00
        E 0 80 4c 00
        E 0 80 40 00
        E 0 90 60 60
        E 0 80 18 00
        E 0 80 26 00
        E 0 90 18 60
        E 120 80 60 00
        E 0 90 61 60
        E 0 90 64 60
        E 0 90 55 60
        E 0 90 58 60
        E 0 80 18 00
        E 0 90 1a 60
        E 0 90 26 60
        E 120 80 61 00
        E 0 80 64 00
        E 0 80 55 00
        E 0 80 58 00
        E 0 80 1a 00
        E 0 80 26 00
        E 120 90 61 60
        E 0 90 55 60
        E 0 90 49 60
        E 0 90 3d 60
        E 0 90 1b 60
        E 120 80 61 00
        E 0 80 55 00
        E 0 80 49 00
        E 0 80 3d 00
        E 0 90 61 60
        E 0 80 1b 00
        E 0 90 1a 60
        E 120 80 61 00
        E 0 90 61 60
        E 0 90 55 60
        E 0 80 1a 00
        E 0 90 1b 60
        E 120 80 61 00
        E 0 80 55 00
        E 0 90 61 60
        E 0 80 1b 00
        E 0 90 1a 60
        E 120 80 74 00
        E 0 80 61 00
        E 0 90 60 60
        E 0 90 63 60
        E 0 90 54 60
        E 0 90 57 60
        E 0 90 48 60
        E 0 90 4b 60
        E 0 90 3f 60
        E 0 80 1a 00
        E 0 90 18 60
        E 0 90 2a 60
        E 120 80 60 00
        E 0 80 63 00
        E 0 80 54 00
        E 0 80 57 00
        E 0 80 48 00
        E 0 80 4b 00
        E 0 80 3f 00
        E 0 80 18 00
        E 0 80 2a 00
        E 120 90 61 60
        E 0 90 64 60
        E 0 90 55 60
        E 0 90 58 60
        E 0 90 1a 60
        E 0 90 26 60
        E 120 80 61 00
        E 0 80 64 00
        E 0 80 55 00
        E 0 80 58 00
        E 0 90 60 60
        E 0 80 1a 00
        E 0 80 26 00
        E 0 90 18 60
        E 120 80 60 00
        E 0 90 64 60
        E 0 90 58 60
        E 0 90 4c 60
        E 0 90 40 60
        E 0 80 18 00
        E 0 90 26 60
        E 120 80 64 00
        E 0 80 58 00
        E 0 80 4c 00
        E 0 80 40 00
        E 0 90 60 60
        E 0 80 26 00
        E 0 90 18 60
        E 120 80 60 00
        E 0 90 61 60
        E 0 90 64 60
        E 0 90 55 60
        E 0 90 58 60
        E 0 80 18 00
        E 0 90 1a 60
        E 0 90 26 60
        E 120 80 61 00
        E 0 80 64 00
        E 0 80 55 00
        E 0 80 58 00
        E 0 80 1a 00
        E 0 80 26 00
        E 120 90 60 60
        E 0 90 64 60
        E 0 90 54 60
        E 0 90 58 60
        E 0 90 48 60
        E 0 90 4c 60
        E 0 90 40 60
        E 0 90 18 60
        E 0 90 26 60
        E 120 80 60 00
        E 0 80 64 00
        E 0 80 54 00
        E 0 80 58 00
        E 0 80 48 00
        E 0 80 4c 00
        E 0 80 40 00
        E 0 90 60 60
        E 0 80 18 00
        E 0 80 26 00
        E 0 90 18 60
        E 120 80 60 00
        E 0 90 61 60
        E 0 90 64 60
        E 0 90 55 60
        E 0 90 58 60
        E 0 80 18 00
        E 0 90 1a 60
        E 0 90 26 60
        E 120 80 61 00
        E 0 80 64 00
        E 0 80 55 00
        E 0 80 58 00
        E 0 80 1a 00
        E 0 80 26 00
        E 120 90 60 60
        E 0 90 64 60
        E 0 90 54 60
        E 0 90 58 60
        E 0 90 48 60
        E 0 90 4c 60
        E 0 90 40 60
        E 0 90 18 60
        E 0 90 26 60
        E 120 80 60 00
        E 0 80 64 00
        E 0 80 54 00
        E 0 80 58 00
        E 0 80 48 00
        E 0 80 4c 00
        E 0 80 40 00
        E 0 80 18 00
        E 0 80 26 00
        E 120 90 61 60
        E 0 90 64 60
        E 0 90 55 60
        E 0 90 58 60
        E 0 90 1a 60
        E 0 90 26 60
        E 120 80 61 00
        E 0 80 64 00
        E 0 80 55 00
        E 0 80 58 00
        E 0 80 1a 00
        E 0 80 26 00
        E 120 90 60 60
        E 0 90 64 60
        E 0 90 54 60
        E 0 90 58 60
        E 0 90 48 60
        E 0 90 4c 60
        E 0 90 40 60
        E 0 90 18 60
        E 0 90 26 60
        E 120 80 60 00
        E 0 80 64 00
        E 0 80 54 00
        E 0 80 58 00
        E 0 80 48 00
        E 0 80 4c 00
        E 0 80 40 00
        E 0 80 18 00
        E 0 80 26 00
        E 120 90 61 60
        E 0 90 64 60
        E 0 90 55 60
        E 0 90 58 60
        E 0 90 1a 60
        E 0 90 26 60
        E 120 80 61 00
        E 0 80 64 00
        E 0 80 55 00
        E 0 80 58 00
        E 0 90 60 60
        E 0 80 1a 00
        E 0 80 26 00
        E 0 90 18 60
        E 120 80 60 00
        E 0 90 64 60
        E 0 90 58 60
        E 0 90 4c 60
        E 0 90 40 60
        E 0 80 18 00
        E 0 90 26 60
        E 120 80 64 00
        E 0 80 58 00
        E 0 80 4c 00
        E 0 80 40 00
        E 0 90 60 60
        E 0 80 26 00
        E 0 90 18 60
        E 120 80 60 00
        E 0 90 61 60
        E 0 90 64 60
        E 0 90 55 60
        E 0 90 58 60
        E 0 80 18 00
        E 0 90 1a 60
        E 0 90 26 60
        E 120 80 61 00
        E 0 80 64 00
        E 0 80 55 00
        E 0 80 58 00
        E 0 80 1a 00
        E 0 80 26 00
        E 120 90 60 60
        E 0 90 64 60
        E 0 90 54 60
        E 0 90 58 60
        E 0 90 48 60
        E 0 90 4c 60
        E 0 90 40 60
        E 0 90 18 60
        E 0 90 26 60
        E 120 80 60 00
        E 0 80 64 00
        E 0 80 54 00
        E 0 80 58 00
        E 0 80 48 00
        E 0 80 4c 00
        E 0 80 40 00
        E 0 90 60 60
        E 0 80 18 00
        E 0 80 26 00
        E 0 90 18 60
        E 120 80 60 00
        E 0 90 61 60
        E 0 90 64 60
        E 0 90 55 60
        E 0 90 58 60
        E 0 80 18 00
        E 0 90 1a 60
        E 0 90 26 60
        E 120 80 61 00
        E 0 80 64 00
        E 0 80 55 00
        E 0 80 58 00
        E 0 80 1a 00
        E 0 80 26 00
        E 120 90 60 60
        E 0 90 64 60
        E 0 90 54 60
        E 0 90 58 60
        E 0 90 48 60
        E 0 90 4c 60
        E 0 90 40 60
        E 0 90 18 60
        E 0 90 26 60
        E 120 80 60 00
        E 0 80 64 00
        E 0 80 54 00
        E 0 80 58 00
        E 0 80 48 00
        E 0 80 4c 00
        E 0 80 40 00
        E 0 80 18 00
        E 0 80 26 00
        E 120 90 61 60
        E 0 90 64 60
        E 0 90 55 60
        E 0 90 58 60
        E 0 90 1a 60
        E 0 90 26 60
        E 120 80 61 00
        E 0 80 64 00
        E 0 80 55 00
        E 0 80 58 00
        E 0 80 1a 00
        E 0 80 26 00
        E 120 90 60 60
        E 0 90 64 60
        E 0 90 54 60
        E 0 90 58 60
        E 0 90 48 60
        E 0 90 4c 60
        E 0 90 40 60
        E 0 90 18 60
        E 0 90 26 60
        E 120 80 60 00
        E 0 80 64 00
        E 0 80 54 00
        E 0 80 58 00
        E 0 80 48 00
        E 0 80 4c 00
        E 0 80 40 00
        E 0 80 18 00
        E 0 80 26 00
        E 120 90 61 60
        E 0 90 64 60
        E 0 90 55 60
        E 0 90 58 60
        E 0 90 1a 60
        E 0 90 26 60
        E 120 80 61 00
        E 0 80 64 00
        E 0 80 55 00
        E 0 80 58 00
        E 0 90 60 60
        E 0 80 1a 00
        E 0 80 26 00
        E 0 90 18 60
        E 120 80 60 00
        E 0 90 64 60
        E 0 90 58 60
        E 0 90 4c 60
        E 0 90 40 60
        E 0 80 18 00
        E 0 90 26 60
        E 120 80 64 00
        E 0 80 58 00
        E 0 80 4c 00
        E 0 80 40 00
        E 0 90 60 60
        E 0 80 26 00
        E 0 90 18 60
        E 120 80 60 00
        E 0 90 61 60
        E 0 90 64 60
        E 0 90 55 60
        E 0 90 58 60
        E 0 80 18 00
        E 0 90 1a 60
        E 0 90 26 60
        E 120 80 61 00
        E 0 80 64 00
        E 0 80 55 00
        E 0 80 58 00
        E 0 80 1a 00
        E 0 80 26 00
        E 120 90 60 60
        E 0 90 64 60
        E 0 90 54 60
        E 0 90 58 60
        E 0 90 48 60
        E 0 90 4c 60
        E 0 90 40 60
        E 0 90 18 60
        E 0 90 26 60
        E 120 80 60 00
        E 0 80 64 00
        E 0 80 54 00
        E 0 80 58 00
        E 0 80 48 00
        E 0 80 4c 00
        E 0 80 40 00
        E 0 90 60 60
        E 0 80 18 00
        E 0 80 26 00
        E 0 90 18 60
        E 120 80 60 00
        E 0 90 61 60
        E 0 90 64 60
        E 0 90 55 60
        E 0 90 58 60
        E 0 80 18 00
        E 0 90 1a 60
        E 0 90 26 60
        E 120 80 61 00
        E 0 80 64 00
        E 0 80 55 00
        E 0 80 58 00
        E 0 80 1a 00
        E 0 80 26 00
        E 120 90 61 60
        E 0 90 55 60
        E 0 90 49 60
        E 0 90 3d 60
        E 0 90 1b 60
        E 120 80 61 00
        E 0 80 55 00
        E 0 80 49 00
        E 0 80 3d 00
        E 0 90 61 60
        E 0 80 1b 00
        E 0 90 1a 60
        E 120 80 61 00
        E 0 90 61 60
        E 0 90 55 60
        E 0 80 1a 00
        E 0 90 1b 60
        E 120 80 61 00
        E 0 80 55 00
        E 0 90 61 60
        E 0 80 1b 00
        E 0 90 1a 60
        E 120 80 61 00
        E 0 90 61 60
        E 0 90 78 60
        E 0 90 79 60
        E 0 90 7a 60
        E 0 90 7b 60
        E 0 90 7c 60
        E 0 90 55 60
        E 0 90 49 60
        E 0 90 3d 60
        E 0 80 1a 00
        E 0 90 1b 60
        E 120 80 61 00
        E 0 80 55 00
        E 0 80 49 00
        E 0 80 3d 00
        E 0 90 61 60
        E 0 80 1b 00
        E 0 90 1a 60
        E 120 80 61 00
        E 0 90 61 60
        E 0 90 55 60
        E 0 80 1a 00
        E 0 90 1b 60
        E 120 80 61 00
        E 0 80 55 00
        E 0 90 61 60
        E 0 80 1b 00
        E 0 90 1a 60
        E 120 80 61 00
        E 0 90 61 60
        E 0 90 55 60
        E 0 90 49 60
        E 0 90 3d 60
        E 0 80 1a 00
        E 0 90 1b 60
        E 120 80 61 00
        E 0 80 55 00
        E 0 80 49 00
        E 0 80 3d 00
        E 0 90 61 60
        E 0 80 1b 00
        E 0 90 1a 60
        E 120 80 61 00
        E 0 90 61 60
        E 0 90 55 60
        E 0 80 1a 00
        E 0 90 1b 60
        E 120 80 61 00
        E 0 80 55 00
        E 0 90 61 60
        E 0 80 1b 00
        E 0 90 1a 60
        E 120 80 61 00
        E 0 90 61 60
        E 0 90 55 60
        E 0 90 49 60
        E 0 90 3d 60
        E 0 80 1a 00
        E 0 90 1b 60
        E 120 80 61 00
        E 0 80 55 00
        E 0 80 49 00
        E 0 80 3d 00
        E 0 90 61 60
        E 0 80 1b 00
        E 0 90 1a 60
        E 120 80 61 00
        E 0 90 61 60
        E 0 90 55 60
        E 0 80 1a 00
        E 0 90 1b 60
        E 120 80 61 00
        E 0 80 55 00
        E 0 90 61 60
        E 0 80 1b 00
        E 0 90 1a 60
        E 120 80 61 00
        E 0 90 61 60
        E 0 90 55 60
        E 0 90 49 60
        E 0 90 3d 60
        E 0 80 1a 00
        E 0 90 1b 60
        E 120 80 61 00
        E 0 80 55 00
        E 0 80 49 00
        E 0 80 3d 00
        E 0 90 61 60
        E 0 80 1b 00
        E 0 90 1a 60
        E 120 80 61 00
        E 0 90 61 60
        E 0 90 55 60
        E 0 80 1a 00
        E 0 90 1b 60
        E 120 80 61 00
        E 0 80 55 00
        E 0 90 61 60
        E 0 80 1b 00
        E 0 90 1a 60
        E 120 80 78 00
        E 0 80 79 00
        E 0 80 7a 00
        E 0 80 7b 00
        E 0 80 7c 00
        E 0 80 61 00
        E 0 90 60 60
        E 0 90 64 60
        E 0 90 54 60
        E 0 90 58 60
        E 0 90 48 60
        E 0 90 4c 60
        E 0 90 40 60
        E 0 80 1a 00
        E 0 90 18 60
        E 0 90 26 60
        E 120 80 60 00
        E 0 80 64 00
        E 0 80 54 00
        E 0 80 58 00
        E 0 80 48 00
        E 0 80 4c 00
        E 0 80 40 00
        E 0 80 18 00
        E 0 80 26 00
        E 120 90 61 60
        E 0 90 62 60
        E 0 90 55 60
        E 0 90 56 60
        E 0 90 1a 60
        E 0 90 1f 60
        E 120 80 61 00
        E 0 80 62 00
        E 0 80 55 00
        E 0 80 56 00
        E 0 90 60 60
        E 0 80 1a 00
        E 0 80 1f 00
        E 0 90 18 60
        E 120 80 60 00
        E 0 90 62 60
        E 0 90 56 60
        E 0 90 4a 60
        E 0 90 3e 60
        E 0 80 18 00
        E 0 90 1f 60
        E 120 80 62 00
        E 0 80 56 00
        E 0 80 4a 00
        E 0 80 3e 00
        E 0 90 60 60
        E 0 80 1f 00
        E 0 90 18 60
        E 120 80 60 00
        E 0 90 61 60
        E 0 90 62 60
        E 0 90 55 60
        E 0 90 56 60
        E 0 80 18 00
        E 0 90 1a 60
        E 0 90 1f 60
        E 120 80 61 00
        E 0 80 62 00
        E 0 80 55 00
        E 0 80 56 00
        E 0 80 1a 00
        E 0 80 1f 00
        E 120 90 60 60
        E 0 90 62 60
        E 0 90 54 60
        E 0 90 56 60
        E 0 90 48 60
        E 0 90 4a 60
        E 0 90 3e 60
        E 0 90 18 60
        E 0 90 1f 60
        E 120 80 60 00
        E 0 80 62 00
        E 0 80 54 00
        E 0 80 56 00
        E 0 80 48 00
        E 0 80 4a 00
        E 0 80 3e 00
        E 0 90 60 60
        E 0 80 18 00
        E 0 80 1f 00
        E 0 90 18 60
        E 120 80 60 00
        E 0 90 61 60
        E 0 90 62 60
        E 0 90 55 60
        E 0 90 56 60
        E 0 80 18 00
        E 0 90 1a 60
        E 0 90 1f 60
        E 120 80 61 00
        E 0 80 62 00
        E 0 80 55 00
        E 0 80 56 00
        E 0 80 1a 00
        E 0 80 1f 00
        E 120 90 60 60
        E 0 90 62 60
        E 0 90 54 60
        E 0 90 56 60
        E 0 90 48 60
        E 0 90 4a 60
        E 0 90 3e 60
        E 0 90 18 60
        E 0 90 1f 60
        E 120 80 60 00
        E 0 80 62 00
        E 0 80 54 00
        E 0 80 56 00
        E 0 80 48 00
        E 0 80 4a 00
        E 0 80 3e 00
        E 0 80 18 00
        E 0 80 1f 00
        E 120 90 61 60
        E 0 90 62 60
        E 0 90 55 60
        E 0 90 56 60
        E 0 90 1a 60
        E 0 90 1f 60
        E 120 80 61 00
        E 0 80 62 00
        E 0 80 55 00
        E 0 80 56 00
        E 0 80 1a 00
        E 0 80 1f 00
        E 120 90 60 60
        E 0 90 62 60
        E 0 90 54 60
        E 0 90 56 60
        E 0 90 48 60
        E 0 90 4a 60
        E 0 90 3e 60
        E 0 90 18 60
        E 0 90 1f 60
        E 120 80 60 00
        E 0 80 62 00
        E 0 80 54 00
        E 0 80 56 00
        E 0 80 48 00
        E 0 80 4a 00
        E 0 80 3e 00
        E 0 80 18 00
        E 0 80 1f 00
        E 120 90 61 60
        E 0 90 62 60
        E 0 90 55 60
        E 0 90 56 60
        E 0 90 1a 60
        E 0 90 1f 60
        E 120 80 61 00
        E 0 80 62 00
        E 0 80 55 00
        E 0 80 56 00
        E 0 90 60 60
        E 0 80 1a 00
        E 0 80 1f 00
        E 0 90 18 60
        E 120 80 60 00
        E 0 90 62 60
        E 0 90 56 60
        E 0 90 4a 60
        E 0 90 3e 60
        E 0 80 18 00
        E 0 90 1f 60
        E 120 80 62 00
        E 0 80 56 00
        E 0 80 4a 00
        E 0 80 3e 00
        E 0 90 60 60
        E 0 80 1f 00
        E 0 90 18 60
        E 120 80 60 00
        E 0 90 61 60
        E 0 90 62 60
        E 0 90 55 60
        E 0 90 56 60
        E 0 80 18 00
        E 0 90 1a 60
        E 0 90 1f 60
        E 120 80 61 00
        E 0 80 62 00
        E 0 80 55 00
        E 0 80 56 00
        E 0 80 1a 00
        E 0 80 1f 00
        E 120 90 60 60
        E 0 90 62 60
        E 0 90 54 60
        E 0 90 56 60
        E 0 90 48 60
        E 0 90 4a 60
        E 0 90 3e 60
        E 0 90 18 60
        E 0 90 1f 60
        E 120 80 60 00
        E 0 80 62 00
        E 0 80 54 00
        E 0 80 56 00
        E 0 80 48 00
        E 0 80 4a 00
        E 0 80 3e 00
        E 0 90 60 60
        E 0 80 18 00
        E 0 80 1f 00
        E 0 90 18 60
        E 120 80 60 00
        E 0 90 61 60
        E 0 90 62 60
        E 0 90 55 60
        E 0 90 56 60
        E 0 80 18 00
        E 0 90 1a 60
        E 0 90 1f 60
        E 120 80 61 00
        E 0 80 62 00
        E 0 80 55 00
        E 0 80 56 00
        E 0 80 1a 00
        E 0 80 1f 00
        E 120 90 60 60
        E 0 90 62 60
        E 0 90 54 60
        E 0 90 56 60
        E 0 90 48 60
        E 0 90 4a 60
        E 0 90 3e 60
        E 0 90 18 60
        E 0 90 1f 60
        E 120 80 60 00
        E 0 80 62 00
        E 0 80 54 00
        E 0 80 56 00
        E 0 80 48 00
        E 0 80 4a 00
        E 0 80 3e 00
        E 0 80 18 00
        E 0 80 1f 00
        E 120 90 61 60
        E 0 90 62 60
        E 0 90 55 60
        E 0 90 56 60
        E 0 90 1a 60
        E 0 90 1f 60
        E 120 80 61 00
        E 0 80 62 00
        E 0 80 55 00
        E 0 80 56 00
        E 0 80 1a 00
        E 0 80 1f 00
        E 120 90 60 60
        E 0 90 62 60
        E 0 90 54 60
        E 0 90 56 60
        E 0 90 48 60
        E 0 90 4a 60
        E 0 90 3e 60
        E 0 90 18 60
        E 0 90 1f 60
        E 120 80 60 00
        E 0 80 62 00
        E 0 80 54 00
        E 0 80 56 00
        E 0 80 48 00
        E 0 80 4a 00
        E 0 80 3e 00
        E 0 80 18 00
        E 0 80 1f 00
        E 120 90 61 60
        E 0 90 62 60
        E 0 90 55 60
        E 0 90 56 60
        E 0 90 1a 60
        E 0 90 1f 60
        E 120 80 61 00
        E 0 80 62 00
        E 0 80 55 00
        E 0 80 56 00
        E 0 90 60 60
        E 0 80 1a 00
        E 0 80 1f 00
        E 0 90 18 60
        E 120 80 60 00
        E 0 90 62 60
        E 0 90 56 60
        E 0 90 4a 60
        E 0 90 3e 60
        E 0 80 18 00
        E 0 90 1f 60
        E 120 80 62 00
        E 0 80 56 00
        E 0 80 4a 00
        E 0 80 3e 00
        E 0 90 60 60
        E 0 80 1f 00
        E 0 90 18 60
        E 120 80 60 00
        E 0 90 61 60
        E 0 90 62 60
        E 0 90 55 60
        E 0 90 56 60
        E 0 80 18 00
        E 0 90 1a 60
        E 0 90 1f 60
        E 120 80 61 00
        E 0 80 62 00
        E 0 80 55 00
        E 0 80 56 00
        E 0 80 1a 00
        E 0 80 1f 00
        E 120 90 60 60
        E 0 90 62 60
        E 0 90 54 60
        E 0 90 56 60
        E 0 90 48 60
        E 0 90 4a 60
        E 0 90 3e 60
        E 0 90 18 60
        E 0 90 1f 60
        E 120 80 60 00
        E 0 80 62 00
        E 0 80 54 00
        E 0 80 56 00
        E 0 80 48 00
        E 0 80 4a 00
        E 0 80 3e 00
        E 0 90 60 60
        E 0 80 18 00
        E 0 80 1f 00
        E 0 90 18 60
        E 120 80 60 00
        E 0 90 61 60
        E 0 90 62 60
        E 0 90 55 60
        E 0 90 56 60
        E 0 80 18 00
        E 0 90 1a 60
        E 0 90 1f 60
        E 120 80 61 00
        E 0 80 62 00
        E 0 80 55 00
        E 0 80 56 00
        E 0 80 1a 00
        E 0 80 1f 00
        E 120 90 60 60
        E 0 90 62 60
        E 0 90 54 60
        E 0 90 56 60
        E 0 90 48 60
        E 0 90 4a 60
        E 0 90 3e 60
        E 0 90 18 60
        E 0 90 1f 60
        E 120 80 60 00
        E 0 80 62 00
        E 0 80 54 00
        E 0 80 56 00
        E 0 80 48 00
        E 0 80 4a 00
        E 0 80 3e 00
        E 0 80 18 00
        E 0 80 1f 00
        E 120 90 61 60
        E 0 90 62 60
        E 0 90 55 60
        E 0 90 56 60
        E 0 90 1a 60
        E 0 90 1f 60
        E 120 80 61 00
        E 0 80 62 00
        E 0 80 55 00
        E 0 80 56 00
        E 0 80 1a 00
        E 0 80 1f 00
        E 120 90 60 60
        E 0 90 62 60
        E 0 90 54 60
        E 0 90 56 60
        E 0 90 48 60
        E 0 90 4a 60
        E 0 90 3e 60
        E 0 90 18 60
        E 0 90 1f 60
        E 120 80 60 00
        E 0 80 62 00
        E 0 80 54 00
        E 0 80 56 00
        E 0 80 48 00
        E 0 80 4a 00
        E 0 80 3e 00
        E 0 80 18 00
        E 0 80 1f 00
        E 120 90 61 60
        E 0 90 62 60
        E 0 90 55 60
        E 0 90 56 60
        E 0 90 1a 60
        E 0 90 1f 60
        E 120 80 61 00
        E 0 80 62 00
        E 0 80 55 00
        E 0 80 56 00
        E 0 90 60 60
        E 0 80 1a 00
        E 0 80 1f 00
        E 0 90 18 60
        E 120 80 60 00
        E 0 90 62 60
        E 0 90 56 60
        E 0 90 4a 60
        E 0 90 3e 60
        E 0 80 18 00
        E 0 90 1f 60
        E 120 80 62 00
        E 0 80 56 00
        E 0 80 4a 00
        E 0 80 3e 00
        E 0 90 60 60
        E 0 80 1f 00
        E 0 90 18 60
        E 120 80 60 00
        E 0 90 61 60
        E 0 90 62 60
        E 0 90 55 60
        E 0 90 56 60
        E 0 80 18 00
        E 0 90 1a 60
        E 0 90 1f 60
        E 120 80 61 00
        E 0 80 62 00
        E 0 80 55 00
        E 0 80 56 00
        E 0 80 1a 00
        E 0 80 1f 00
        E 120 90 60 60
        E 0 90 62 60
        E 0 90 54 60
        E 0 90 56 60
        E 0 90 48 60
        E 0 90 4a 60
        E 0 90 3e 60
        E 0 90 18 60
        E 0 90 1f 60
        E 120 80 60 00
        E 0 80 62 00
        E 0 80 54 00
        E 0 80 56 00
        E 0 80 48 00
        E 0 80 4a 00
        E 0 80 3e 00
        E 0 90 60 60
        E 0 80 18 00
        E 0 80 1f 00
        E 0 90 18 60
        E 120 80 60 00
        E 0 90 61 60
        E 0 90 62 60
        E 0 90 55 60
        E 0 90 56 60
        E 0 80 18 00
        E 0 90 1a 60
        E 0 90 1f 60
        E 120 80 61 00
        E 0 80 62 00
        E 0 80 55 00
        E 0 80 56 00
        E 0 80 1a 00
        E 0 80 1f 00
        E 120 90 61 60
        E 0 90 55 60
        E 0 90 49 60
        E 0 90 3d 60
        E 0 90 1b 60
        E 120 80 61 00
        E 0 80 55 00
        E 0 80 49 00
        E 0 80 3d 00
        E 0 90 61 60
        E 0 80 1b 00
        E 0 90 1a 60
        E 120 80 61 00
        E 0 90 61 60
        E 0 90 55 60
        E 0 80 1a 00
        E 0 90 1b 60
        E 120 80 61 00
        E 0 80 55 00
        E 0 90 61 60
        E 0 80 1b 00
        E 0 90 1a 60
        E 120 80 61 00
        E 0 90 60 60
        E 0 90 64 60
        E 0 90 74 60
        E 0 90 54 60
        E 0 90 58 60
        E 0 90 48 60
        E 0 90 4c 60
        E 0 90 40 60
        E 0 80 1a 00
        E 0 90 18 60
        E 0 90 26 60
        E 120 80 60 00
        E 0 80 64 00
        E 0 80 54 00
        E 0 80 58 00
        E 0 80 48 00
        E 0 80 4c 00
        E 0 80 40 00
        E 0 80 18 00
        E 0 80 26 00
        E 120 90 61 60
        E 0 90 55 60
        E 0 90 1b 60
        E 120 80 61 00
        E 0 80 55 00
        E 0 90 60 60
        E 0 90 64 60
        E 0 80 1b 00
        E 0 90 18 60
        E 0 90 2c 60
        E 120 80 60 00
        E 0 80 64 00
        E 0 80 18 00
        E 0 80 2c 00
        E 120 90 60 60
        E 0 90 18 60
        E 120 80 60 00
        E 0 90 61 60
        E 0 90 62 60
        E 0 90 55 60
        E 0 90 56 60
        E 0 80 18 00
        E 0 90 1a 60
        E 0 90 1f 60
        E 120 80 61 00
        E 0 80 62 00
        E 0 80 55 00
        E 0 80 56 00
        E 0 80 1a 00
        E 0 80 1f 00
        E 120 90 60 60
        E 0 90 62 60
        E 0 90 54 60
        E 0 90 56 60
        E 0 90 48 60
        E 0 90 4a 60
        E 0 90 3e 60
        E 0 90 18 60
        E 0 90 1f 60
        E 120 80 60 00
        E 0 80 62 00
        E 0 80 54 00
        E 0 80 56 00
        E 0 80 48 00
        E 0 80 4a 00
        E 0 80 3e 00
        E 0 90 60 60
        E 0 80 18 00
        E 0 80 1f 00
        E 0 90 18 60
        E 120 80 60 00
        E 0 90 61 60
        E 0 90 62 60
        E 0 90 55 60
        E 0 90 56 60
        E 0 80 18 00
        E 0 90 1a 60
        E 0 90 1f 60
        E 120 80 61 00
        E 0 80 62 00
        E 0 80 55 00
        E 0 80 56 00
        E 0 80 1a 00
        E 0 80 1f 00
        E 120 90 60 60
        E 0 90 62 60
        E 0 90 54 60
        E 0 90 56 60
        E 0 90 48 60
        E 0 90 4a 60
        E 0 90 3e 60
        E 0 90 18 60
        E 0 90 1f 60
        E 120 80 60 00
        E 0 80 62 00
        E 0 80 54 00
        E 0 80 56 00
        E 0 80 48 00
        E 0 80 4a 00
        E 0 80 3e 00
        E 0 80 18 00
        E 0 80 1f 00
        E 120 90 61 60
        E 0 90 62 60
        E 0 90 55 60
        E 0 90 56 60
        E 0 90 1a 60
        E 0 90 1f 60
        E 120 80 61 00
        E 0 80 62 00
        E 0 80 55 00
        E 0 80 56 00
        E 0 80 1a 00
        E 0 80 1f 00
        E 120 90 60 60
        E 0 90 62 60
        E 0 90 54 60
        E 0 90 56 60
        E 0 90 48 60
        E 0 90 4a 60
        E 0 90 3e 60
        E 0 90 18 60
        E 0 90 1f 60
        E 120 80 60 00
        E 0 80 62 00
        E 0 80 54 00
        E 0 80 56 00
        E 0 80 48 00
        E 0 80 4a 00
        E 0 80 3e 00
        E 0 80 18 00
        E 0 80 1f 00
        E 120 90 61 60
        E 0 90 62 60
        E 0 90 55 60
        E 0 90 56 60
        E 0 90 1a 60
        E 0 90 1f 60
        E 120 80 61 00
        E 0 80 62 00
        E 0 80 55 00
        E 0 80 56 00
        E 0 90 60 60
        E 0 80 1a 00
        E 0 80 1f 00
        E 0 90 18 60
        E 120 80 60 00
        E 0 90 62 60
        E 0 90 56 60
        E 0 90 4a 60
        E 0 90 3e 60
        E 0 80 18 00
        E 0 90 1f 60
        E 120 80 62 00
        E 0 80 56 00
        E 0 80 4a 00
        E 0 80 3e 00
        E 0 90 60 60
        E 0 80 1f 00
        E 0 90 18 60
        E 120 80 60 00
        E 0 90 61 60
        E 0 90 62 60
        E 0 90 55 60
        E 0 90 56 60
        E 0 80 18 00
        E 0 90 1a 60
        E 0 90 1f 60
        E 120 80 61 00
        E 0 80 62 00
        E 0 80 55 00
        E 0 80 56 00
        E 0 80 1a 00
        E 0 80 1f 00
        E 120 90 60 60
        E 0 90 62 60
        E 0 90 54 60
        E 0 90 56 60
        E 0 90 48 60
        E 0 90 4a 60
        E 0 90 3e 60
        E 0 90 18 60
        E 0 90 1f 60
        E 120 80 60 00
        E 0 80 62 00
        E 0 80 54 00
        E 0 80 56 00
        E 0 80 48 00
        E 0 80 4a 00
        E 0 80 3e 00
        E 0 90 60 60
        E 0 80 18 00
        E 0 80 1f 00
        E 0 90 18 60
        E 120 80 60 00
        E 0 90 61 60
        E 0 90 62 60
        E 0 90 55 60
        E 0 90 56 60
        E 0 80 18 00
        E 0 90 1a 60
        E 0 90 1f 60
        E 120 80 61 00
        E 0 80 62 00
        E 0 80 55 00
        E 0 80 56 00
        E 0 80 1a 00
        E 0 80 1f 00
        E 120 90 60 60
        E 0 90 62 60
        E 0 90 54 60
        E 0 90 56 60
        E 0 90 48 60
        E 0 90 4a 60
        E 0 90 3e 60
        E 0 90 18 60
        E 0 90 1f 60
        E 120 80 60 00
        E 0 80 62 00
        E 0 80 54 00
        E 0 80 56 00
        E 0 80 48 00
        E 0 80 4a 00
        E 0 80 3e 00
        E 0 80 18 00
        E 0 80 1f 00
        E 120 90 61 60
        E 0 90 62 60
        E 0 90 55 60
        E 0 90 56 60
        E 0 90 1a 60
        E 0 90 1f 60
        E 120 80 61 00
        E 0 80 62 00
        E 0 80 55 00
        E 0 80 56 00
        E 0 80 1a 00
        E 0 80 1f 00
        E 120 80 74 00
        E 0 90 60 60
        E 0 90 62 60
        E 0 90 54 60
        E 0 90 56 60
        E 0 90 48 60
        E 0 90 4a 60
        E 0 90 3e 60
        E 0 90 18 60
        E 0 90 1f 60
        E 120 80 60 00
        E 0 80 62 00
        E 0 80 54 00
        E 0 80 56 00
        E 0 80 48 00
        E 0 80 4a 00
        E 0 80 3e 00
        E 0 80 18 00
        E 0 80 1f 00
        E 120 90 61 60
        E 0 90 62 60
        E 0 90 55 60
        E 0 90 56 60
        E 0 90 1a 60
        E 0 90 1f 60
        E 120 80 61 00
        E 0 80 62 00
        E 0 80 55 00
        E 0 80 56 00
        E 0 90 60 60
        E 0 80 1a 00
        E 0 80 1f 00
        E 0 90 18 60
        E 120 80 60 00
        E 0 90 62 60
        E 0 90 56 60
        E 0 90 4a 60
        E 0 90 3e 60
        E 0 80 18 00
        E 0 90 1f 60
        E 120 80 62 00
        E 0 80 56 00
        E 0 80 4a 00
        E 0 80 3e 00
        E 0 90 60 60
        E 0 80 1f 00
        E 0 90 18 60
        E 120 80 60 00
        E 0 90 61 60
        E 0 90 62 60
        E 0 90 55 60
        E 0 90 56 60
        E 0 80 18 00
        E 0 90 1a 60
        E 0 90 1f 60
        E 120 80 61 00
        E 0 80 62 00
        E 0 80 55 00
        E 0 80 56 00
        E 0 80 1a 00
        E 0 80 1f 00
        E 120 90 60 60
        E 0 90 62 60
        E 0 90 54 60
        E 0 90 56 60
        E 0 90 48 60
        E 0 90 4a 60
        E 0 90 3e 60
        E 0 90 18 60
        E 0 90 1f 60
        E 120 80 60 00
        E 0 80 62 00
        E 0 80 54 00
        E 0 80 56 00
        E 0 80 48 00
        E 0 80 4a 00
        E 0 80 3e 00
        E 0 90 60 60
        E 0 80 18 00
        E 0 80 1f 00
        E 0 90 18 60
        E 120 80 60 00
        E 0 90 61 60
        E 0 90 62 60
        E 0 90 55 60
        E 0 90 56 60
        E 0 80 18 00
        E 0 90 1a 60
        E 0 90 1f 60
        E 120 80 61 00
        E 0 80 62 00
        E 0 80 55 00
        E 0 80 56 00
        E 0 80 1a 00
        E 0 80 1f 00
        E 120 90 61 60
        E 0 90 55 60
        E 0 90 49 60
        E 0 90 3d 60
        E 0 90 1b 60
        E 120 80 61 00
        E 0 80 55 00
        E 0 80 49 00
        E 0 80 3d 00
        E 0 90 61 60
        E 0 80 1b 00
        E 0 90 1a 60
        E 120 80 61 00
        E 0 90 61 60
        E 0 90 55 60
        E 0 80 1a 00
        E 0 90 1b 60
        E 120 80 61 00
        E 0 80 55 00
        E 0 90 61 60
        E 0 80 1b 00
        E 0 90 1a 60
        E 120 80 61 00
        E 0 90 61 60
        E 0 90 78 60
        E 0 90 79 60
        E 0 90 7a 60
        E 0 90 7b 60
        E 0 90 7c 60
        E 0 90 55 60
        E 0 90 49 60
        E 0 90 3d 60
        E 0 80 1a 00
        E 0 90 1b 60
        E 120 80 61 00
        E 0 80 55 00
        E 0 80 49 00
        E 0 80 3d 00
        E 0 90 61 60
        E 0 80 1b 00
        E 0 90 1a 60
        E 120 80 61 00
        E 0 90 61 60
        E 0 90 55 60
        E 0 80 1a 00
        E 0 90 1b 60
        E 120 80 61 00
        E 0 80 55 00
        E 0 90 61 60
        E 0 80 1b 00
        E 0 90 1a 60
        E 120 80 61 00
        E 0 90 62 60
        E 0 90 56 60
        E 0 90 4a 60
        E 0 90 6e 60
        E 0 90 3e 60
        E 0 80 1a 00
        E 0 90 2f 60
        E 120 80 62 00
        E 0 80 56 00
        E 0 80 4a 00
        E 0 80 3e 00
        E 0 90 61 60
        E 0 80 2f 00
        E 0 90 1a 60
        E 120 80 61 00
        E 0 90 61 60
        E 0 90 55 60
        E 0 80 1a 00
        E 0 90 1b 60
        E 120 80 61 00
        E 0 80 55 00
        E 0 90 61 60
        E 0 80 1b 00
        E 0 90 1a 60
        E 120 80 61 00
        E 0 90 62 60
        E 0 90 56 60
        E 0 90 4a 60
        E 0 90 3e 60
        E 0 80 1a 00
        E 0 90 1f 60
        E 120 80 6e 00
        E 0 80 62 00
        E 0 80 56 00
        E 0 80 4a 00
        E 0 80 3e 00
        E 0 90 61 60
        E 0 80 1f 00
        E 0 90 1a 60
        E 120 80 61 00
        E 0 90 61 60
        E 0 90 55 60
        E 0 80 1a 00
        E 0 90 1b 60
        E 120 80 61 00
        E 0 80 55 00
        E 0 90 61 60
        E 0 80 1b 00
        E 0 90 1a 60
        E 120 80 61 00
        E 0 90 63 60
        E 0 90 57 60
        E 0 90 4b 60
        E 0 90 6f 60
        E 0 90 3f 60
        E 0 80 1a 00
        E 0 90 31 60
        E 120 80 63 00
        E 0 80 57 00
        E 0 80 4b 00
        E 0 80 6f 00
        E 0 80 3f 00
        E 0 90 63 60
        E 0 90 6f 60
        E 0 80 31 00
        E 0 90 30 60
        E 120 80 63 00
        E 0 80 6f 00
        E 0 90 64 60
        E 0 90 58 60
        E 0 90 70 60
        E 0 80 30 00
        E 0 90 33 60
        E 120 80 64 00
        E 0 80 58 00
        E 0 80 70 00
        E 0 90 64 60
        E 0 90 70 60
        E 0 80 33 00
        E 0 90 32 60
        E 120 80 78 00
        E 0 80 79 00
        E 0 80 7a 00
        E 0 80 7b 00
        E 0 80 7c 00
        E 0 80 64 00
        E 0 80 70 00
        E 0 90 60 60
        E 0 90 64 60
        E 0 90 54 60
        E 0 90 58 60
        E 0 90 48 60
        E 0 90 4c 60
        E 0 90 40 60
        E 0 80 32 00
        E 0 90 18 60
        E 0 90 26 60
        E 120 80 60 00
        E 0 80 64 00
        E 0 80 54 00
        E 0 80 58 00
        E 0 80 48 00
        E 0 80 4c 00
        E 0 80 40 00
        E 0 80 18 00
        E 0 80 26 00
        E 120 90 61 60
        E 0 90 64 60
        E 0 90 55 60
        E 0 90 58 60
        E 0 90 1a 60
        E 0 90 26 60
        E 120 80 61 00
        E 0 80 64 00
        E 0 80 55 00
        E 0 80 58 00
        E 0 90 60 60
        E 0 80 1a 00
        E 0 80 26 00
        E 0 90 18 60
        E 120 80 60 00
        E 0 90 64 60
        E 0 90 58 60
        E 0 90 4c 60
        E 0 90 40 60
        E 0 80 18 00
        E 0 90 26 60
        E 120 80 64 00
        E 0 80 58 00
        E 0 80 4c 00
        E 0 80 40 00
        E 0 90 60 60
        E 0 80 26 00
        E 0 90 18 60
        E 120 80 60 00
        E 0 90 61 60
        E 0 90 64 60
        E 0 90 55 60
        E 0 90 58 60
        E 0 80 18 00
        E 0 90 1a 60
        E 0 90 26 60
        E 120 80 61 00
        E 0 80 64 00
        E 0 80 55 00
        E 0 80 58 00
        E 0 80 1a 00
        E 0 80 26 00
        E 120 90 60 60
        E 0 90 64 60
        E 0 90 54 60
        E 0 90 58 60
        E 0 90 48 60
        E 0 90 4c 60
        E 0 90 40 60
        E 0 90 18 60
        E 0 90 26 60
        E 120 80 60 00
        E 0 80 64 00
        E 0 80 54 00
        E 0 80 58 00
        E 0 80 48 00
        E 0 80 4c 00
        E 0 80 40 00
        E 0 90 60 60
        E 0 80 18 00
        E 0 80 26 00
        E 0 90 18 60
        E 120 80 60 00
        E 0 90 61 60
        E 0 90 64 60
        E 0 90 55 60
        E 0 90 58 60
        E 0 80 18 00
        E 0 90 1a 60
        E 0 90 26 60
        E 120 80 61 00
        E 0 80 64 00
        E 0 80 55 00
        E 0 80 58 00
        E 0 80 1a 00
        E 0 80 26 00
        E 120 90 60 60
        E 0 90 64 60
        E 0 90 54 60
        E 0 90 58 60
        E 0 90 48 60
        E 0 90 4c 60
        E 0 90 40 60
        E 0 90 18 60
        E 0 90 26 60
        E 120 80 60 00
        E 0 80 64 00
        E 0 80 54 00
        E 0 80 58 00
        E 0 80 48 00
        E 0 80 4c 00
        E 0 80 40 00
        E 0 80 18 00
        E 0 80 26 00
        E 120 90 61 60
        E 0 90 64 60
        E 0 90 55 60
        E 0 90 58 60
        E 0 90 1a 60
        E 0 90 26 60
        E 120 80 61 00
        E 0 80 64 00
        E 0 80 55 00
        E 0 80 58 00
        E 0 80 1a 00
        E 0 80 26 00
        E 120 90 60 60
        E 0 90 64 60
        E 0 90 54 60
        E 0 90 58 60
        E 0 90 48 60
        E 0 90 4c 60
        E 0 90 40 60
        E 0 90 18 60
        E 0 90 26 60
        E 120 80 60 00
        E 0 80 64 00
        E 0 80 54 00
        E 0 80 58 00
        E 0 80 48 00
        E 0 80 4c 00
        E 0 80 40 00
        E 0 80 18 00
        E 0 80 26 00
        E 120 90 61 60
        E 0 90 64 60
        E 0 90 55 60
        E 0 90 58 60
        E 0 90 1a 60
        E 0 90 26 60
        E 120 80 61 00
        E 0 80 64 00
        E 0 80 55 00
        E 0 80 58 00
        E 0 90 60 60
        E 0 80 1a 00
        E 0 80 26 00
        E 0 90 18 60
        E 120 80 60 00
        E 0 90 64 60
        E 0 90 58 60
        E 0 90 4c 60
        E 0 90 40 60
        E 0 80 18 00
        E 0 90 26 60
        E 120 80 64 00
        E 0 80 58 00
        E 0 80 4c 00
        E 0 80 40 00
        E 0 90 60 60
        E 0 80 26 00
        E 0 90 18 60
        E 120 80 60 00
        E 0 90 61 60
        E 0 90 64 60
        E 0 90 55 60
        E 0 90 58 60
        E 0 80 18 00
        E 0 90 1a 60
        E 0 90 26 60
        E 120 80 61 00
        E 0 80 64 00
        E 0 80 55 00
        E 0 80 58 00
        E 0 80 1a 00
        E 0 80 26 00
        E 120 90 60 60
        E 0 90 64 60
        E 0 90 54 60
        E 0 90 58 60
        E 0 90 48 60
        E 0 90 4c 60
        E 0 90 40 60
        E 0 90 18 60
        E 0 90 26 60
        E 120 80 60 00
        E 0 80 64 00
        E 0 80 54 00
        E 0 80 58 00
        E 0 80 48 00
        E 0 80 4c 00
        E 0 80 40 00
        E 0 90 60 60
        E 0 80 18 00
        E 0 80 26 00
        E 0 90 18 60
        E 120 80 60 00
        E 0 90 61 60
        E 0 90 64 60
        E 0 90 55 60
        E 0 90 58 60
        E 0 80 18 00
        E 0 90 1a 60
        E 0 90 26 60
        E 120 80 61 00
        E 0 80 64 00
        E 0 80 55 00
        E 0 80 58 00
        E 0 80 1a 00
        E 0 80 26 00
        E 120 90 60 60
        E 0 90 64 60
        E 0 90 54 60
        E 0 90 58 60
        E 0 90 48 60
        E 0 90 4c 60
        E 0 90 40 60
        E 0 90 18 60
        E 0 90 26 60
        E 120 80 60 00
        E 0 80 64 00
        E 0 80 54 00
        E 0 80 58 00
        E 0 80 48 00
        E 0 80 4c 00
        E 0 80 40 00
        E 0 80 18 00
        E 0 80 26 00
        E 120 90 61 60
        E 0 90 64 60
        E 0 90 55 60
        E 0 90 58 60
        E 0 90 1a 60
        E 0 90 26 60
        E 120 80 61 00
        E 0 80 64 00
        E 0 80 55 00
        E 0 80 58 00
        E 0 80 1a 00
        E 0 80 26 00
        E 120 90 60 60
        E 0 90 64 60
        E 0 90 54 60
        E 0 90 58 60
        E 0 90 48 60
        E 0 90 4c 60
        E 0 90 40 60
        E 0 90 18 60
        E 0 90 26 60
        E 120 80 60 00
        E 0 80 64 00
        E 0 80 54 00
        E 0 80 58 00
        E 0 80 48 00
        E 0 80 4c 00
        E 0 80 40 00
        E 0 80 18 00
        E 0 80 26 00
        E 120 90 61 60
        E 0 90 64 60
        E 0 90 55 60
        E 0 90 58 60
        E 0 90 1a 60
        E 0 90 26 60
        E 120 80 61 00
        E 0 80 64 00
        E 0 80 55 00
        E 0 80 58 00
        E 0 90 60 60
        E 0 80 1a 00
        E 0 80 26 00
        E 0 90 18 60
        E 120 80 60 00
        E 0 90 64 60
        E 0 90 58 60
        E 0 90 4c 60
        E 0 90 40 60
        E 0 80 18 00
        E 0 90 26 60
        E 120 80 64 00
        E 0 80 58 00
        E 0 80 4c 00
        E 0 80 40 00
        E 0 90 60 60
        E 0 80 26 00
        E 0 90 18 60
        E 120 80 60 00
        E 0 90 61 60
        E 0 90 64 60
        E 0 90 55 60
        E 0 90 58 60
        E 0 80 18 00
        E 0 90 1a 60
        E 0 90 26 60
        E 120 80 61 00
        E 0 80 64 00
        E 0 80 55 00
        E 0 80 58 00
        E 0 80 1a 00
        E 0 80 26 00
        E 120 90 60 60
        E 0 90 64 60
        E 0 90 54 60
        E 0 90 58 60
        E 0 90 48 60
        E 0 90 4c 60
        E 0 90 40 60
        E 0 90 18 60
        E 0 90 26 60
        E 120 80 60 00
        E 0 80 64 00
        E 0 80 54 00
        E 0 80 58 00
        E 0 80 48 00
        E 0 80 4c 00
        E 0 80 40 00
        E 0 90 60 60
        E 0 80 18 00
        E 0 80 26 00
        E 0 90 18 60
        E 120 80 60 00
        E 0 90 61 60
        E 0 90 64 60
        E 0 90 55 60
        E 0 90 58 60
        E 0 80 18 00
        E 0 90 1a 60
        E 0 90 26 60
        E 120 80 61 00
        E 0 80 64 00
        E 0 80 55 00
        E 0 80 58 00
        E 0 80 1a 00
        E 0 80 26 00
        E 120 90 60 60
        E 0 90 64 60
        E 0 90 54 60
        E 0 90 58 60
        E 0 90 48 60
        E 0 90 4c 60
        E 0 90 40 60
        E 0 90 18 60
        E 0 90 26 60
        E 120 80 60 00
        E 0 80 64 00
        E 0 80 54 00
        E 0 80 58 00
        E 0 80 48 00
        E 0 80 4c 00
        E 0 80 40 00
        E 0 80 18 00
        E 0 80 26 00
        E 120 90 61 60
        E 0 90 64 60
        E 0 90 55 60
        E 0 90 58 60
        E 0 90 1a 60
        E 0 90 26 60
        E 120 80 61 00
        E 0 80 64 00
        E 0 80 55 00
        E 0 80 58 00
        E 0 80 1a 00
        E 0 80 26 00
        E 120 90 60 60
        E 0 90 64 60
        E 0 90 54 60
        E 0 90 58 60
        E 0 90 48 60
        E 0 90 4c 60
        E 0 90 40 60
        E 0 90 18 60
        E 0 90 26 60
        E 120 80 60 00
        E 0 80 64 00
        E 0 80 54 00
        E 0 80 58 00
        E 0 80 48 00
        E 0 80 4c 00
        E 0 80 40 00
        E 0 80 18 00
        E 0 80 26 00
        E 120 90 61 60
        E 0 90 64 60
        E 0 90 55 60
        E 0 90 58 60
        E 0 90 1a 60
        E 0 90 26 60
        E 120 80 61 00
        E 0 80 64 00
        E 0 80 55 00
        E 0 80 58 00
        E 0 90 60 60
        E 0 80 1a 00
        E 0 80 26 00
        E 0 90 18 60
        E 120 80 60 00
        E 0 90 64 60
        E 0 90 58 60
        E 0 90 4c 60
        E 0 90 40 60
        E 0 80 18 00
        E 0 90 26 60
        E 120 80 64 00
        E 0 80 58 00
        E 0 80 4c 00
        E 0 80 40 00
        E 0 90 60 60
        E 0 80 26 00
        E 0 90 18 60
        E 120 80 60 00
        E 0 90 61 60
        E 0 90 64 60
        E 0 90 55 60
        E 0 90 58 60
        E 0 80 18 00
        E 0 90 1a 60
        E 0 90 26 60
        E 120 80 61 00
        E 0 80 64 00
        E 0 80 55 00
        E 0 80 58 00
        E 0 80 1a 00
        E 0 80 26 00
        E 120 90 60 60
        E 0 90 64 60
        E 0 90 54 60
        E 0 90 58 60
        E 0 90 48 60
        E 0 90 4c 60
        E 0 90 40 60
        E 0 90 18 60
        E 0 90 26 60
        E 120 80 60 00
        E 0 80 64 00
        E 0 80 54 00
        E 0 80 58 00
        E 0 80 48 00
        E 0 80 4c 00
        E 0 80 40 00
        E 0 90 60 60
        E 0 80 18 00
        E 0 80 26 00
        E 0 90 18 60
        E 120 80 60 00
        E 0 90 61 60
        E 0 90 64 60
        E 0 90 55 60
        E 0 90 58 60
        E 0 80 18 00
        E 0 90 1a 60
        E 0 90 26 60
        E 120 80 61 00
        E 0 80 64 00
        E 0 80 55 00
        E 0 80 58 00
        E 0 80 1a 00
        E 0 80 26 00
        E 120 90 61 60
        E 0 90 55 60
        E 0 90 49 60
        E 0 90 3d 60
        E 0 90 1b 60
        E 120 80 61 00
        E 0 80 55 00
        E 0 80 49 00
        E 0 80 3d 00
        E 0 90 61 60
        E 0 80 1b 00
        E 0 90 1a 60
        E 120 80 61 00
        E 0 90 61 60
        E 0 90 55 60
        E 0 80 1a 00
        E 0 90 1b 60
        E 120 80 61 00
        E 0 80 55 00
        E 0 90 61 60
        E 0 80 1b 00
        E 0 90 1a 60
        E 120 80 61 00
        E 0 90 60 60
        E 0 90 64 60
        E 0 90 54 60
        E 0 90 58 60
        E 0 90 48 60
        E 0 90 4c 60
        E 0 90 40 60
        E 0 80 1a 00
        E 0 90 18 60
        E 0 90 26 60
        E 120 80 60 00
        E 0 80 64 00
        E 0 80 54 00
        E 0 80 58 00
        E 0 80 48 00
        E 0 80 4c 00
        E 0 80 40 00
        E 0 80 18 00
        E 0 80 26 00
        E 120 90 61 60
        E 0 90 64 60
        E 0 90 55 60
        E 0 90 58 60
        E 0 90 1a 60
        E 0 90 26 60
        E 120 80 61 00
        E 0 80 64 00
        E 0 80 55 00
        E 0 80 58 00
        E 0 90 60 60
        E 0 80 1a 00
        E 0 80 26 00
        E 0 90 18 60
        E 120 80 60 00
        E 0 90 64 60
        E 0 90 58 60
        E 0 90 4c 60
        E 0 90 40 60
        E 0 80 18 00
        E 0 90 26 60
        E 120 80 64 00
        E 0 80 58 00
        E 0 80 4c 00
        E 0 80 40 00
        E 0 90 60 60
        E 0 80 26 00
        E 0 90 18 60
        E 120 80 60 00
        E 0 90 61 60
        E 0 90 64 60
        E 0 90 55 60
        E 0 90 58 60
        E 0 80 18 00
        E 0 90 1a 60
        E 0 90 26 60
        E 120 80 61 00
        E 0 80 64 00
        E 0 80 55 00
        E 0 80 58 00
        E 0 80 1a 00
        E 0 80 26 00
        E 120 90 60 60
        E 0 90 64 60
        E 0 90 54 60
        E 0 90 58 60
        E 0 90 48 60
        E 0 90 4c 60
        E 0 90 40 60
        E 0 90 18 60
        E 0 90 26 60
        E 120 80 60 00
        E 0 80 64 00
        E 0 80 54 00
        E 0 80 58 00
        E 0 80 48 00
        E 0 80 4c 00
        E 0 80 40 00
        E 0 90 60 60
        E 0 80 18 00
        E 0 80 26 00
        E 0 90 18 60
        E 120 80 60 00
        E 0 90 61 60
        E 0 90 64 60
        E 0 90 55 60
        E 0 90 58 60
        E 0 80 18 00
        E 0 90 1a 60
        E 0 90 26 60
        E 120 80 61 00
        E 0 80 64 00
        E 0 80 55 00
        E 0 80 58 00
        E 0 80 1a 00
        E 0 80 26 00
        E 120 90 60 60
        E 0 90 64 60
        E 0 90 54 60
        E 0 90 58 60
        E 0 90 48 60
        E 0 90 4c 60
        E 0 90 40 60
        E 0 90 18 60
        E 0 90 26 60
        E 120 80 60 00
        E 0 80 64 00
        E 0 80 54 00
        E 0 80 58 00
        E 0 80 48 00
        E 0 80 4c 00
        E 0 80 40 00
        E 0 80 18 00
        E 0 80 26 00
        E 120 90 61 60
        E 0 90 64 60
        E 0 90 55 60
        E 0 90 58 60
        E 0 90 1a 60
        E 0 90 26 60
        E 120 80 61 00
        E 0 80 64 00
        E 0 80 55 00
        E 0 80 58 00
        E 0 80 1a 00
        E 0 80 26 00
        E 120 90 60 60
        E 0 90 64 60
        E 0 90 54 60
        E 0 90 58 60
        E 0 90 48 60
        E 0 90 4c 60
        E 0 90 40 60
        E 0 90 18 60
        E 0 90 26 60
        E 120 80 60 00
        E 0 80 64 00
        E 0 80 54 00
        E 0 80 58 00
        E 0 80 48 00
        E 0 80 4c 00
        E 0 80 40 00
        E 0 80 18 00
        E 0 80 26 00
        E 120 90 61 60
        E 0 90 64 60
        E 0 90 55 60
        E 0 90 58 60
        E 0 90 1a 60
        E 0 90 26 60
        E 120 80 61 00
        E 0 80 64 00
        E 0 80 55 00
        E 0 80 58 00
        E 0 90 60 60
        E 0 80 1a 00
        E 0 80 26 00
        E 0 90 18 60
        E 120 80 60 00
        E 0 90 64 60
        E 0 90 58 60
        E 0 90 4c 60
        E 0 90 40 60
        E 0 80 18 00
        E 0 90 26 60
        E 120 80 64 00
        E 0 80 58 00
        E 0 80 4c 00
        E 0 80 40 00
        E 0 90 60 60
        E 0 80 26 00
        E 0 90 18 60
        E 120 80 60 00
        E 0 90 61 60
        E 0 90 64 60
        E 0 90 55 60
        E 0 90 58 60
        E 0 80 18 00
        E 0 90 1a 60
        E 0 90 26 60
        E 120 80 61 00
        E 0 80 64 00
        E 0 80 55 00
        E 0 80 58 00
        E 0 80 1a 00
        E 0 80 26 00
        E 120 90 60 60
        E 0 90 64 60
        E 0 90 54 60
        E 0 90 58 60
        E 0 90 48 60
        E 0 90 4c 60
        E 0 90 40 60
        E 0 90 18 60
        E 0 90 26 60
        E 120 80 60 00
        E 0 80 64 00
        E 0 80 54 00
        E 0 80 58 00
        E 0 80 48 00
        E 0 80 4c 00
        E 0 80 40 00
        E 0 90 60 60
        E 0 80 18 00
        E 0 80 26 00
        E 0 90 18 60
        E 120 80 60 00
        E 0 90 61 60
        E 0 90 64 60
        E 0 90 55 60
        E 0 90 58 60
        E 0 80 18 00
        E 0 90 1a 60
        E 0 90 26 60
        E 120 80 61 00
        E 0 80 64 00
        E 0 80 55 00
        E 0 80 58 00
        E 0 80 1a 00
        E 0 80 26 00
        E 120 90 60 60
        E 0 90 64 60
        E 0 90 54 60
        E 0 90 58 60
        E 0 90 48 60
        E 0 90 4c 60
        E 0 90 40 60
        E 0 90 18 60
        E 0 90 26 60
        E 120 80 60 00
        E 0 80 64 00
        E 0 80 54 00
        E 0 80 58 00
        E 0 80 48 00
        E 0 80 4c 00
        E 0 80 40 00
        E 0 80 18 00
        E 0 80 26 00
        E 120 90 61 60
        E 0 90 64 60
        E 0 90 55 60
        E 0 90 58 60
        E 0 90 1a 60
        E 0 90 26 60
        E 120 80 61 00
        E 0 80 64 00
        E 0 80 55 00
        E 0 80 58 00
        E 0 80 1a 00
        E 0 80 26 00
        E 120 90 60 60
        E 0 90 64 60
        E 0 90 54 60
        E 0 90 58 60
        E 0 90 48 60
        E 0 90 4c 60
        E 0 90 40 60
        E 0 90 18 60
        E 0 90 26 60
        E 120 80 60 00
        E 0 80 64 00
        E 0 80 54 00
        E 0 80 58 00
        E 0 80 48 00
        E 0 80 4c 00
        E 0 80 40 00
        E 0 80 18 00
        E 0 80 26 00
        E 120 90 61 60
        E 0 90 64 60
        E 0 90 55 60
        E 0 90 58 60
        E 0 90 1a 60
        E 0 90 26 60
        E 120 80 61 00
        E 0 80 64 00
        E 0 80 55 00
        E 0 80 58 00
        E 0 90 60 60
        E 0 80 1a 00
        E 0 80 26 00
        E 0 90 18 60
        E 120 80 60 00
        E 0 90 64 60
        E 0 90 58 60
        E 0 90 4c 60
        E 0 90 40 60
        E 0 80 18 00
        E 0 90 26 60
        E 120 80 64 00
        E 0 80 58 00
        E 0 80 4c 00
        E 0 80 40 00
        E 0 90 60 60
        E 0 80 26 00
        E 0 90 18 60
        E 120 80 60 00
        E 0 90 61 60
        E 0 90 64 60
        E 0 90 55 60
        E 0 90 58 60
        E 0 80 18 00
        E 0 90 1a 60
        E 0 90 26 60
        E 120 80 61 00
        E 0 80 64 00
        E 0 80 55 00
        E 0 80 58 00
        E 0 80 1a 00
        E 0 80 26 00
        E 120 90 60 60
        E 0 90 64 60
        E 0 90 54 60
        E 0 90 58 60
        E 0 90 48 60
        E 0 90 4c 60
        E 0 90 40 60
        E 0 90 18 60
        E 0 90 26 60
        E 120 80 60 00
        E 0 80 64 00
        E 0 80 54 00
        E 0 80 58 00
        E 0 80 48 00
        E 0 80 4c 00
        E 0 80 40 00
        E 0 90 60 60
        E 0 80 18 00
        E 0 80 26 00
        E 0 90 18 60
        E 120 80 60 00
        E 0 90 61 60
        E 0 90 64 60
        E 0 90 55 60
        E 0 90 58 60
        E 0 80 18 00
        E 0 90 1a 60
        E 0 90 26 60
        E 120 80 61 00
        E 0 80 64 00
        E 0 80 55 00
        E 0 80 58 00
        E 0 80 1a 00
        E 0 80 26 00
        E 120 90 61 60
        E 0 90 55 60
        E 0 90 49 60
        E 0 90 3d 60
        E 0 90 1b 60
        E 120 80 61 00
        E 0 80 55 00
        E 0 80 49 00
        E 0 80 3d 00
        E 0 90 61 60
        E 0 80 1b 00
        E 0 90 1a 60
        E 120 80 61 00
        E 0 90 61 60
        E 0 90 55 60
        E 0 80 1a 00
        E 0 90 1b 60
        E 120 80 61 00
        E 0 80 55 00
        E 0 90 61 60
        E 0 80 1b 00
        E 0 90 1a 60
        E 120 80 61 00
        E 0 90 61 60
        E 0 90 55 60
        E 0 90 49 60
        E 0 90 3d 60
        E 0 80 1a 00
        E 0 90 1b 60
        E 120 80 61 00
        E 0 80 55 00
        E 0 80 49 00
        E 0 80 3d 00
        E 0 90 61 60
        E 0 80 1b 00
        E 0 90 1a 60
        E 120 80 61 00
        E 0 90 61 60
        E 0 90 55 60
        E 0 80 1a 00
        E 0 90 1b 60
        E 120 80 61 00
        E 0 80 55 00
        E 0 90 61 60
        E 0 80 1b 00
        E 0 90 1a 60
        E 120 80 61 00
        E 0 90 61 60
        E 0 90 55 60
        E 0 90 49 60
        E 0 90 3d 60
        E 0 80 1a 00
        E 0 90 1b 60
        E 120 80 61 00
        E 0 80 55 00
        E 0 80 49 00
        E 0 80 3d 00
        E 0 90 61 60
        E 0 80 1b 00
        E 0 90 1a 60
        E 120 80 61 00
        E 0 90 61 60
        E 0 90 55 60
        E 0 80 1a 00
        E 0 90 1b 60
        E 120 80 61 00
        E 0 80 55 00
        E 0 90 61 60
        E 0 80 1b 00
        E 0 90 1a 60
        E 120 80 61 00
        E 0 90 62 60
        E 0 90 56 60
        E 0 90 4a 60
        E 0 90 6e 60
        E 0 90 3e 60
        E 0 80 1a 00
        E 0 90 2f 60
        E 120 80 62 00
        E 0 80 56 00
        E 0 80 4a 00
        E 0 80 6e 00
        E 0 80 3e 00
        E 0 90 61 60
        E 0 80 2f 00
        E 0 90 1a 60
        E 120 80 61 00
        E 0 90 61 60
        E 0 90 55 60
        E 0 80 1a 00
        E 0 90 1b 60
        E 120 80 61 00
        E 0 80 55 00
        E 0 90 61 60
        E 0 80 1b 00
        E 0 90 1a 60
        E 120 80 61 00
        E 0 90 63 60
        E 0 90 57 60
        E 0 90 4b 60
        E 0 90 6f 60
        E 0 90 3f 60
        E 0 80 1a 00
        E 0 90 31 60
        E 120 80 63 00
        E 0 80 57 00
        E 0 80 4b 00
        E 0 80 6f 00
        E 0 80 3f 00
        E 0 90 63 60
        E 0 90 6f 60
        E 0 80 31 00
        E 0 90 30 60
        E 120 80 63 00
        E 0 80 6f 00
        E 0 90 64 60
        E 0 90 58 60
        E 0 90 70 60
        E 0 80 30 00
        E 0 90 33 60
        E 120 80 64 00
        E 0 80 58 00
        E 0 80 70 00
        E 0 90 64 60
        E 0 90 70 60
        E 0 80 33 00
        E 0 90 32 60
        E 120 80 64 00
        E 0 80 70 00
        E 0 90 60 60
        E 0 90 64 60
        E 0 90 74 60
        E 0 90 54 60
        E 0 90 58 60
        E 0 90 48 60
        E 0 90 4c 60
        E 0 90 40 60
        E 0 80 32 00
        E 0 90 18 60
        E 0 90 26 60
        E 120 80 60 00
        E 0 80 64 00
        E 0 80 54 00
        E 0 80 58 00
        E 0 80 48 00
        E 0 80 4c 00
        E 0 80 40 00
        E 0 80 18 00
        E 0 80 26 00
        E 360 90 60 60
        E 0 90 62 60
        E 0 90 54 60
        E 0 90 56 60
        E 0 90 48 60
        E 0 90 4a 60
        E 0 90 3e 60
        E 0 90 18 60
        E 0 90 1f 60
        E 120 80 60 00
        E 0 80 62 00
        E 0 80 54 00
        E 0 80 56 00
        E 0 80 48 00
        E 0 80 4a 00
        E 0 80 3e 00
        E 0 80 18 00
        E 0 80 1f 00
        E 120 90 61 60
        E 0 90 62 60
        E 0 90 55 60
        E 0 90 56 60
        E 0 90 1a 60
        E 0 90 1f 60
        E 120 80 61 00
        E 0 80 62 00
        E 0 80 55 00
        E 0 80 56 00
        E 0 80 1a 00
        E 0 80 1f 00
        E 120 90 62 60
        E 0 90 56 60
        E 0 90 4a 60
        E 0 90 3e 60
        E 0 90 1f 60
        E 120 80 62 00
        E 0 80 56 00
        E 0 80 4a 00
        E 0 80 3e 00
        E 0 80 1f 00
        E 120 90 60 60
        E 0 90 62 60
        E 0 90 54 60
        E 0 90 56 60
        E 0 90 18 60
        E 0 90 1f 60
        E 120 80 60 00
        E 0 80 62 00
        E 0 80 54 00
        E 0 80 56 00
        E 0 80 18 00
        E 0 80 1f 00
        E 120 90 61 60
        E 0 90 62 60
        E 0 90 55 60
        E 0 90 56 60
        E 0 90 49 60
        E 0 90 4a 60
        E 0 90 3d 60
        E 0 90 1a 60
        E 0 90 1f 60
        E 120 80 61 00
        E 0 80 62 00
        E 0 80 55 00
        E 0 80 56 00
        E 0 80 49 00
        E 0 80 4a 00
        E 0 80 3d 00
        E 0 80 1a 00
        E 0 80 1f 00
        E 120 90 62 60
        E 0 90 56 60
        E 0 90 1f 60
        E 120 80 62 00
        E 0 80 56 00
        E 0 90 61 60
        E 0 80 1f 00
        E 0 90 1a 60
        E 120 80 61 00
        E 0 90 60 60
        E 0 90 62 60
        E 0 90 54 60
        E 0 90 56 60
        E 0 90 48 60
        E 0 90 4a 60
        E 0 90 3e 60
        E 0 80 1a 00
        E 0 90 18 60
        E 0 90 1f 60
        E 120 80 60 00
        E 0 80 62 00
        E 0 80 54 00
        E 0 80 56 00
        E 0 80 48 00
        E 0 80 4a 00
        E 0 80 3e 00
        E 0 80 18 00
        E 0 80 1f 00
        E 120 90 62 60
        E 0 90 56 60
        E 0 90 1f 60
        E 120 80 62 00
        E 0 80 56 00
        E 0 80 1f 00
        E 120 90 60 60
        E 0 90 62 60
        E 0 90 54 60
        E 0 90 56 60
        E 0 90 48 60
        E 0 90 4a 60
        E 0 90 3e 60
        E 0 90 18 60
        E 0 90 1f 60
        E 120 80 60 00
        E 0 80 62 00
        E 0 80 54 00
        E 0 80 56 00
        E 0 80 48 00
        E 0 80 4a 00
        E 0 80 3e 00
        E 0 80 18 00
        E 0 80 1f 00
        E 120 90 61 60
        E 0 90 62 60
        E 0 90 55 60
        E 0 90 56 60
        E 0 90 1a 60
        E 0 90 1f 60
        E 120 80 61 00
        E 0 80 62 00
        E 0 80 55 00
        E 0 80 56 00
        E 0 80 1a 00
        E 0 80 1f 00
        E 120 90 62 60
        E 0 90 56 60
        E 0 90 4a 60
        E 0 90 3e 60
        E 0 90 1f 60
        E 120 80 62 00
        E 0 80 56 00
        E 0 80 4a 00
        E 0 80 3e 00
        E 0 80 1f 00
        E 120 90 60 60
        E 0 90 62 60
        E 0 90 54 60
        E 0 90 56 60
        E 0 90 18 60
        E 0 90 1f 60
        E 120 80 60 00
        E 0 80 62 00
        E 0 80 54 00
        E 0 80 56 00
        E 0 80 18 00
        E 0 80 1f 00
        E 120 90 61 60
        E 0 90 62 60
        E 0 90 55 60
        E 0 90 56 60
        E 0 90 49 60
        E 0 90 4a 60
        E 0 90 3d 60
        E 0 90 1a 60
        E 0 90 1f 60
        E 120 80 61 00
        E 0 80 62 00
        E 0 80 55 00
        E 0 80 56 00
        E 0 80 49 00
        E 0 80 4a 00
        E 0 80 3d 00
        E 0 80 1a 00
        E 0 80 1f 00
        E 120 90 62 60
        E 0 90 56 60
        E 0 90 1f 60
        E 120 80 62 00
        E 0 80 56 00
        E 0 90 61 60
        E 0 80 1f 00
        E 0 90 1a 60
        E 120 80 74 00
        E 0 80 61 00
        E 0 90 60 60
        E 0 90 62 60
        E 0 90 54 60
        E 0 90 56 60
        E 0 90 48 60
        E 0 90 4a 60
        E 0 90 3e 60
        E 0 80 1a 00
        E 0 90 18 60
        E 0 90 1f 60
        E 120 80 60 00
        E 0 80 62 00
        E 0 80 54 00
        E 0 80 56 00
        E 0 80 48 00
        E 0 80 4a 00
        E 0 80 3e 00
        E 0 80 18 00
        E 0 80 1f 00
        E 120 90 62 60
        E 0 90 56 60
        E 0 90 1f 60
        E 120 80 62 00
        E 0 80 56 00
        E 0 80 1f 00
        E 120 90 60 60
        E 0 90 62 60
        E 0 90 54 60
        E 0 90 56 60
        E 0 90 48 60
        E 0 90 4a 60
        E 0 90 3e 60
        E 0 90 18 60
        E 0 90 1f 60
        E 120 80 60 00
        E 0 80 62 00
        E 0 80 54 00
        E 0 80 56 00
        E 0 80 48 00
        E 0 80 4a 00
        E 0 80 3e 00
        E 0 80 18 00
        E 0 80 1f 00
        E 120 90 61 60
        E 0 90 62 60
        E 0 90 55 60
        E 0 90 56 60
        E 0 90 1a 60
        E 0 90 1f 60
        E 120 80 61 00
        E 0 80 62 00
        E 0 80 55 00
        E 0 80 56 00
        E 0 80 1a 00
        E 0 80 1f 00
        E 120 90 62 60
        E 0 90 56 60
        E 0 90 4a 60
        E 0 90 3e 60
        E 0 90 1f 60
        E 120 80 62 00
        E 0 80 56 00
        E 0 80 4a 00
        E 0 80 3e 00
        E 0 80 1f 00
        E 120 90 60 60
        E 0 90 62 60
        E 0 90 54 60
        E 0 90 56 60
        E 0 90 18 60
        E 0 90 1f 60
        E 120 80 60 00
        E 0 80 62 00
        E 0 80 54 00
        E 0 80 56 00
        E 0 80 18 00
        E 0 80 1f 00
        E 120 90 61 60
        E 0 90 62 60
        E 0 90 55 60
        E 0 90 56 60
        E 0 90 49 60
        E 0 90 4a 60
        E 0 90 3d 60
        E 0 90 1a 60
        E 0 90 1f 60
        E 120 80 61 00
        E 0 80 62 00
        E 0 80 55 00
        E 0 80 56 00
        E 0 80 49 00
        E 0 80 4a 00
        E 0 80 3d 00
        E 0 80 1a 00
        E 0 80 1f 00
        E 120 90 62 60
        E 0 90 56 60
        E 0 90 1f 60
        E 120 80 62 00
        E 0 80 56 00
        E 0 80 1f 00
        E 120 90 60 60
        E 0 90 62 60
        E 0 90 78 60
        E 0 90 79 60
        E 0 90 7a 60
        E 0 90 7b 60
        E 0 90 7c 60
        E 0 90 54 60
        E 0 90 56 60
        E 0 90 48 60
        E 0 90 4a 60
        E 0 90 3e 60
        E 0 90 18 60
        E 0 90 1f 60
        E 120 80 60 00
        E 0 80 62 00
        E 0 80 54 00
        E 0 80 56 00
        E 0 80 48 00
        E 0 80 4a 00
        E 0 80 3e 00
        E 0 90 61 60
        E 0 80 18 00
        E 0 80 1f 00
        E 0 90 1a 60
        E 120 80 61 00
        E 0 90 61 60
        E 0 90 55 60
        E 0 80 1a 00
        E 0 90 1b 60
        E 120 80 61 00
        E 0 80 55 00
        E 0 90 61 60
        E 0 80 1b 00
        E 0 90 1a 60
        E 120 80 61 00
        E 0 90 62 60
        E 0 90 56 60
        E 0 90 4a 60
        E 0 90 6e 60
        E 0 90 3e 60
        E 0 80 1a 00
        E 0 90 2f 60
        E 120 80 62 00
        E 0 80 56 00
        E 0 80 4a 00
        E 0 80 3e 00
        E 0 90 61 60
        E 0 80 2f 00
        E 0 90 1a 60
        E 120 80 61 00
        E 0 90 61 60
        E 0 90 55 60
        E 0 80 1a 00
        E 0 90 1b 60
        E 120 80 61 00
        E 0 80 55 00
        E 0 90 61 60
        E 0 80 1b 00
        E 0 90 1a 60
        E 120 80 61 00
        E 0 90 62 60
        E 0 90 56 60
        E 0 90 4a 60
        E 0 90 3e 60
        E 0 80 1a 00
        E 0 90 1f 60
        E 120 80 62 00
        E 0 80 56 00
        E 0 80 4a 00
        E 0 80 3e 00
        E 0 90 61 60
        E 0 80 1f 00
        E 0 90 1a 60
        E 120 80 61 00
        E 0 90 62 60
        E 0 90 56 60
        E 0 80 1a 00
        E 0 90 1f 60
        E 120 80 62 00
        E 0 80 56 00
        E 0 90 61 60
        E 0 80 1f 00
        E 0 90 1a 60
        E 120 80 6e 00
        E 0 80 61 00
        E 0 90 63 60
        E 0 90 57 60
        E 0 90 4b 60
        E 0 90 6f 60
        E 0 90 3f 60
        E 0 80 1a 00
        E 0 90 31 60
        E 120 80 63 00
        E 0 80 57 00
        E 0 80 4b 00
        E 0 80 3f 00
        E 0 90 63 60
        E 0 80 31 00
        E 0 90 2b 60
        E 120 80 63 00
        E 0 90 63 60
        E 0 90 57 60
        E 0 80 2b 00
        E 0 90 2a 60
        E 120 80 63 00
        E 0 80 57 00
        E 0 90 63 60
        E 0 80 2a 00
        E 0 90 2b 60
        E 120 80 78 00
        E 0 80 79 00
        E 0 80 7a 00
        E 0 80 7b 00
        E 0 80 7c 00
        E 0 80 6f 00
        E 0 80 63 00
        E 0 90 60 60
        E 0 90 64 60
        E 0 90 54 60
        E 0 90 58 60
        E 0 90 48 60
        E 0 90 4c 60
        E 0 90 40 60
        E 0 80 2b 00
        E 0 90 18 60
        E 0 90 26 60
        E 120 80 60 00
        E 0 80 64 00
        E 0 80 54 00
        E 0 80 58 00
        E 0 80 48 00
        E 0 80 4c 00
        E 0 80 40 00
        E 0 80 18 00
        E 0 80 26 00
        E 360 90 60 60
        E 0 90 62 60
        E 0 90 54 60
        E 0 90 56 60
        E 0 90 48 60
        E 0 90 4a 60
        E 0 90 3e 60
        E 0 90 18 60
        E 0 90 1f 60
        E 120 80 60 00
        E 0 80 62 00
        E 0 80 54 00
        E 0 80 56 00
        E 0 80 48 00
        E 0 80 4a 00
        E 0 80 3e 00
        E 0 80 18 00
        E 0 80 1f 00
        E 120 90 61 60
        E 0 90 62 60
        E 0 90 55 60
        E 0 90 56 60
        E 0 90 1a 60
        E 0 90 1f 60
        E 120 80 61 00
        E 0 80 62 00
        E 0 80 55 00
        E 0 80 56 00
        E 0 80 1a 00
        E 0 80 1f 00
        E 120 90 62 60
        E 0 90 56 60
        E 0 90 4a 60
        E 0 90 3e 60
        E 0 90 1f 60
        E 120 80 62 00
        E 0 80 56 00
        E 0 80 4a 00
        E 0 80 3e 00
        E 0 80 1f 00
        E 120 90 60 60
        E 0 90 62 60
        E 0 90 54 60
        E 0 90 56 60
        E 0 90 18 60
        E 0 90 1f 60
        E 120 80 60 00
        E 0 80 62 00
        E 0 80 54 00
        E 0 80 56 00
        E 0 80 18 00
        E 0 80 1f 00
        E 120 90 61 60
        E 0 90 62 60
        E 0 90 55 60
        E 0 90 56 60
        E 0 90 49 60
        E 0 90 4a 60
        E 0 90 3d 60
        E 0 90 1a 60
        E 0 90 1f 60
        E 120 80 61 00
        E 0 80 62 00
        E 0 80 55 00
        E 0 80 56 00
        E 0 80 49 00
        E 0 80 4a 00
        E 0 80 3d 00
        E 0 80 1a 00
        E 0 80 1f 00
        E 120 90 62 60
        E 0 90 56 60
        E 0 90 1f 60
        E 120 80 62 00
        E 0 80 56 00
        E 0 90 61 60
        E 0 80 1f 00
        E 0 90 1a 60
        E 120 80 61 00
        E 0 90 60 60
        E 0 90 62 60
        E 0 90 54 60
        E 0 90 56 60
        E 0 90 48 60
        E 0 90 4a 60
        E 0 90 3e 60
        E 0 80 1a 00
        E 0 90 18 60
        E 0 90 1f 60
        E 120 80 60 00
        E 0 80 62 00
        E 0 80 54 00
        E 0 80 56 00
        E 0 80 48 00
        E 0 80 4a 00
        E 0 80 3e 00
        E 0 80 18 00
        E 0 80 1f 00
        E 120 90 62 60
        E 0 90 56 60
        E 0 90 1f 60
        E 120 80 62 00
        E 0 80 56 00
        E 0 80 1f 00
        E 120 90 60 60
        E 0 90 62 60
        E 0 90 54 60
        E 0 90 56 60
        E 0 90 48 60
        E 0 90 4a 60
        E 0 90 3e 60
        E 0 90 18 60
        E 0 90 1f 60
        E 120 80 60 00
        E 0 80 62 00
        E 0 80 54 00
        E 0 80 56 00
        E 0 80 48 00
        E 0 80 4a 00
        E 0 80 3e 00
        E 0 80 18 00
        E 0 80 1f 00
        E 120 90 61 60
        E 0 90 62 60
        E 0 90 55 60
        E 0 90 56 60
        E 0 90 1a 60
        E 0 90 1f 60
        E 120 80 61 00
        E 0 80 62 00
        E 0 80 55 00
        E 0 80 56 00
        E 0 80 1a 00
        E 0 80 1f 00
        E 120 90 62 60
        E 0 90 56 60
        E 0 90 4a 60
        E 0 90 3e 60
        E 0 90 1f 60
        E 120 80 62 00
        E 0 80 56 00
        E 0 80 4a 00
        E 0 80 3e 00
        E 0 80 1f 00
        E 120 90 60 60
        E 0 90 62 60
        E 0 90 54 60
        E 0 90 56 60
        E 0 90 18 60
        E 0 90 1f 60
        E 120 80 60 00
        E 0 80 62 00
        E 0 80 54 00
        E 0 80 56 00
        E 0 80 18 00
        E 0 80 1f 00
        E 120 90 61 60
        E 0 90 62 60
        E 0 90 55 60
        E 0 90 56 60
        E 0 90 49 60
        E 0 90 4a 60
        E 0 90 3d 60
        E 0 90 1a 60
        E 0 90 1f 60
        E 120 80 61 00
        E 0 80 62 00
        E 0 80 55 00
        E 0 80 56 00
        E 0 80 49 00
        E 0 80 4a 00
        E 0 80 3d 00
        E 0 80 1a 00
        E 0 80 1f 00
        E 120 90 62 60
        E 0 90 56 60
        E 0 90 1f 60
        E 120 80 62 00
        E 0 80 56 00
        E 0 90 61 60
        E 0 80 1f 00
        E 0 90 1a 60
        E 120 80 61 00
        E 0 90 60 60
        E 0 90 62 60
        E 0 90 54 60
        E 0 90 56 60
        E 0 90 48 60
        E 0 90 4a 60
        E 0 90 3e 60
        E 0 80 1a 00
        E 0 90 18 60
        E 0 90 1f 60
        E 120 80 60 00
        E 0 80 62 00
        E 0 80 54 00
        E 0 80 56 00
        E 0 80 48 00
        E 0 80 4a 00
        E 0 80 3e 00
        E 0 80 18 00
        E 0 80 1f 00
        E 120 90 62 60
        E 0 90 56 60
        E 0 90 1f 60
        E 120 80 62 00
        E 0 80 56 00
        E 0 80 1f 00
        E 120 90 60 60
        E 0 90 62 60
        E 0 90 54 60
        E 0 90 56 60
        E 0 90 48 60
        E 0 90 4a 60
        E 0 90 3e 60
        E 0 90 18 60
        E 0 90 1f 60
        E 120 80 60 00
        E 0 80 62 00
        E 0 80 54 00
        E 0 80 56 00
        E 0 80 48 00
        E 0 80 4a 00
        E 0 80 3e 00
        E 0 80 18 00
        E 0 80 1f 00
        E 120 90 61 60
        E 0 90 62 60
        E 0 90 55 60
        E 0 90 56 60
        E 0 90 1a 60
        E 0 90 1f 60
        E 120 80 61 00
        E 0 80 62 00
        E 0 80 55 00
        E 0 80 56 00
        E 0 80 1a 00
        E 0 80 1f 00
        E 120 90 62 60
        E 0 90 56 60
        E 0 90 4a 60
        E 0 90 3e 60
        E 0 90 1f 60
        E 120 80 62 00
        E 0 80 56 00
        E 0 80 4a 00
        E 0 80 3e 00
        E 0 80 1f 00
        E 120 90 60 60
        E 0 90 62 60
        E 0 90 54 60
        E 0 90 56 60
        E 0 90 18 60
        E 0 90 1f 60
        E 120 80 60 00
        E 0 80 62 00
        E 0 80 54 00
        E 0 80 56 00
        E 0 80 18 00
        E 0 80 1f 00
        E 120 90 61 60
        E 0 90 62 60
        E 0 90 55 60
        E 0 90 56 60
        E 0 90 49 60
        E 0 90 4a 60
        E 0 90 3d 60
        E 0 90 1a 60
        E 0 90 1f 60
        E 120 80 61 00
        E 0 80 62 00
        E 0 80 55 00
        E 0 80 56 00
        E 0 80 49 00
        E 0 80 4a 00
        E 0 80 3d 00
        E 0 80 1a 00
        E 0 80 1f 00
        E 120 90 62 60
        E 0 90 56 60
        E 0 90 1f 60
        E 120 80 62 00
        E 0 80 56 00
        E 0 80 1f 00
        E 120 90 60 60
        E 0 90 62 60
        E 0 90 54 60
        E 0 90 56 60
        E 0 90 48 60
        E 0 90 4a 60
        E 0 90 3e 60
        E 0 90 18 60
        E 0 90 1f 60
        E 120 80 60 00
        E 0 80 62 00
        E 0 80 54 00
        E 0 80 56 00
        E 0 80 48 00
        E 0 80 4a 00
        E 0 80 3e 00
        E 0 80 18 00
        E 0 80 1f 00
        E 40 90 61 60
        E 0 90 1a 60
        E 80 80 61 00
        E 0 90 61 60
        E 0 90 55 60
        E 0 80 1a 00
        E 0 90 1b 60
        E 80 80 61 00
        E 0 80 55 00
        E 0 90 61 60
        E 0 80 1b 00
        E 0 90 1a 60
        E 80 80 61 00
        E 0 90 61 60
        E 0 80 1a 00
        E 0 90 1b 60
        E 80 80 61 00
        E 0 90 61 60
        E 0 90 55 60
        E 0 90 49 60
        E 0 90 3d 60
        E 0 80 1b 00
        E 0 90 1a 60
        E 120 80 61 00
        E 0 80 55 00
        E 0 80 49 00
        E 0 80 3d 00
        E 0 80 1a 00
        E 120 90 60 60
        E 0 90 54 60
        E 0 90 18 60
        E 120 80 60 00
        E 0 80 54 00
        E 0 80 18 00
        E 120 90 60 60
        E 0 90 64 60
        E 0 90 54 60
        E 0 90 58 60
        E 0 90 48 60
        E 0 90 4c 60
        E 0 90 40 60
        E 0 90 18 60
        E 0 90 26 60
        E 120 80 60 00
        E 0 80 64 00
        E 0 80 54 00
        E 0 80 58 00
        E 0 80 48 00
        E 0 80 4c 00
        E 0 80 40 00
        E 0 80 18 00
        E 0 80 26 00
        E 120 90 61 60
        E 0 90 55 60
        E 0 90 1b 60
        E 120 80 61 00
        E 0 80 55 00
        E 0 90 61 60
        E 0 80 1b 00
        E 0 90 1a 60
        E 120 80 61 00
        E 0 90 62 60
        E 0 90 56 60
        E 0 90 4a 60
        E 0 90 6e 60
        E 0 90 3e 60
        E 0 80 1a 00
        E 0 90 2f 60
        E 120 80 62 00
        E 0 80 56 00
        E 0 80 4a 00
        E 0 80 6e 00
        E 0 80 3e 00
        E 0 90 62 60
        E 0 90 6e 60
        E 0 80 2f 00
        E 0 90 2e 60
        E 120 80 62 00
        E 0 80 6e 00
        E 0 90 63 60
        E 0 90 57 60
        E 0 90 6f 60
        E 0 80 2e 00
        E 0 90 31 60
        E 120 80 63 00
        E 0 80 57 00
        E 0 80 6f 00
        E 0 90 63 60
        E 0 90 6f 60
        E 0 80 31 00
        E 0 90 30 60
        E 120 80 63 00
        E 0 80 6f 00
        E 0 90 60 60
        E 0 90 64 60
        E 0 90 74 60
        E 0 90 54 60
        E 0 90 58 60
        E 0 90 48 60
        E 0 90 4c 60
        E 0 90 40 60
        E 0 80 30 00
        E 0 90 18 60
        E 0 90 26 60
        E 120 80 60 00
        E 0 80 64 00
        E 0 80 54 00
        E 0 80 58 00
        E 0 80 48 00
        E 0 80 4c 00
        E 0 80 40 00
        E 0 80 18 00
        E 0 80 26 00
        E 360 90 60 60
        E 0 90 62 60
        E 0 90 54 60
        E 0 90 56 60
        E 0 90 48 60
        E 0 90 4a 60
        E 0 90 3e 60
        E 0 90 18 60
        E 0 90 1f 60
        E 120 80 60 00
        E 0 80 62 00
        E 0 80 54 00
        E 0 80 56 00
        E 0 80 48 00
        E 0 80 4a 00
        E 0 80 3e 00
        E 0 80 18 00
        E 0 80 1f 00
        E 120 90 61 60
        E 0 90 62 60
        E 0 90 55 60
        E 0 90 56 60
        E 0 90 1a 60
        E 0 90 1f 60
        E 120 80 61 00
        E 0 80 62 00
        E 0 80 55 00
        E 0 80 56 00
        E 0 80 1a 00
        E 0 80 1f 00
        E 120 90 62 60
        E 0 90 56 60
        E 0 90 4a 60
        E 0 90 3e 60
        E 0 90 1f 60
        E 120 80 62 00
        E 0 80 56 00
        E 0 80 4a 00
        E 0 80 3e 00
        E 0 80 1f 00
        E 120 90 60 60
        E 0 90 62 60
        E 0 90 54 60
        E 0 90 56 60
        E 0 90 18 60
        E 0 90 1f 60
        E 120 80 60 00
        E 0 80 62 00
        E 0 80 54 00
        E 0 80 56 00
        E 0 80 18 00
        E 0 80 1f 00
        E 120 90 61 60
        E 0 90 62 60
        E 0 90 55 60
        E 0 90 56 60
        E 0 90 49 60
        E 0 90 4a 60
        E 0 90 3d 60
        E 0 90 1a 60
        E 0 90 1f 60
        E 120 80 61 00
        E 0 80 62 00
        E 0 80 55 00
        E 0 80 56 00
        E 0 80 49 00
        E 0 80 4a 00
        E 0 80 3d 00
        E 0 80 1a 00
        E 0 80 1f 00
        E 120 90 62 60
        E 0 90 56 60
        E 0 90 1f 60
        E 120 80 62 00
        E 0 80 56 00
        E 0 90 61 60
        E 0 80 1f 00
        E 0 90 1a 60
        E 120 80 61 00
        E 0 90 60 60
        E 0 90 62 60
        E 0 90 54 60
        E 0 90 56 60
        E 0 90 48 60
        E 0 90 4a 60
        E 0 90 3e 60
        E 0 80 1a 00
        E 0 90 18 60
        E 0 90 1f 60
        E 120 80 60 00
        E 0 80 62 00
        E 0 80 54 00
        E 0 80 56 00
        E 0 80 48 00
        E 0 80 4a 00
        E 0 80 3e 00
        E 0 80 18 00
        E 0 80 1f 00
        E 120 90 62 60
        E 0 90 56 60
        E 0 90 1f 60
        E 120 80 62 00
        E 0 80 56 00
        E 0 80 1f 00
        E 120 90 60 60
        E 0 90 62 60
        E 0 90 54 60
        E 0 90 56 60
        E 0 90 48 60
        E 0 90 4a 60
        E 0 90 3e 60
        E 0 90 18 60
        E 0 90 1f 60
        E 120 80 60 00
        E 0 80 62 00
        E 0 80 54 00
        E 0 80 56 00
        E 0 80 48 00
        E 0 80 4a 00
        E 0 80 3e 00
        E 0 80 18 00
        E 0 80 1f 00
        E 120 90 61 60
        E 0 90 62 60
        E 0 90 55 60
        E 0 90 56 60
        E 0 90 1a 60
        E 0 90 1f 60
        E 120 80 61 00
        E 0 80 62 00
        E 0 80 55 00
        E 0 80 56 00
        E 0 80 1a 00
        E 0 80 1f 00
        E 120 90 62 60
        E 0 90 56 60
        E 0 90 4a 60
        E 0 90 3e 60
        E 0 90 1f 60
        E 120 80 62 00
        E 0 80 56 00
        E 0 80 4a 00
        E 0 80 3e 00
        E 0 90 61 60
        E 0 80 1f 00
        E 0 90 1a 60
        E 120 80 61 00
        E 0 90 60 60
        E 0 90 62 60
        E 0 90 54 60
        E 0 90 56 60
        E 0 80 1a 00
        E 0 90 18 60
        E 0 90 1f 60
        E 120 80 60 00
        E 0 80 62 00
        E 0 80 54 00
        E 0 80 56 00
        E 0 80 18 00
        E 0 80 1f 00
        E 120 90 61 60
        E 0 90 62 60
        E 0 90 55 60
        E 0 90 56 60
        E 0 90 49 60
        E 0 90 4a 60
        E 0 90 3d 60
        E 0 90 1a 60
        E 0 90 1f 60
        E 120 80 61 00
        E 0 80 62 00
        E 0 80 55 00
        E 0 80 56 00
        E 0 80 49 00
        E 0 80 4a 00
        E 0 80 3d 00
        E 0 80 1a 00
        E 0 80 1f 00
        E 120 90 62 60
        E 0 90 56 60
        E 0 90 1f 60
        E 120 80 62 00
        E 0 80 56 00
        E 0 80 1f 00
        E 120 80 74 00
        E 0 90 60 60
        E 0 90 62 60
        E 0 90 54 60
        E 0 90 56 60
        E 0 90 48 60
        E 0 90 4a 60
        E 0 90 3e 60
        E 0 90 18 60
        E 0 90 1f 60
        E 120 80 60 00
        E 0 80 62 00
        E 0 80 54 00
        E 0 80 56 00
        E 0 80 48 00
        E 0 80 4a 00
        E 0 80 3e 00
        E 0 80 18 00
        E 0 80 1f 00
        E 120 90 62 60
        E 0 90 56 60
        E 0 90 1f 60
        E 120 80 62 00
        E 0 80 56 00
        E 0 80 1f 00
        E 120 90 60 60
        E 0 90 62 60
        E 0 90 54 60
        E 0 90 56 60
        E 0 90 48 60
        E 0 90 4a 60
        E 0 90 3e 60
        E 0 90 18 60
        E 0 90 1f 60
        E 120 80 60 00
        E 0 80 62 00
        E 0 80 54 00
        E 0 80 56 00
        E 0 80 48 00
        E 0 80 4a 00
        E 0 80 3e 00
        E 0 80 18 00
        E 0 80 1f 00
        E 120 90 61 60
        E 0 90 62 60
        E 0 90 55 60
        E 0 90 56 60
        E 0 90 1a 60
        E 0 90 1f 60
        E 120 80 61 00
        E 0 80 62 00
        E 0 80 55 00
        E 0 80 56 00
        E 0 80 1a 00
        E 0 80 1f 00
        E 120 90 62 60
        E 0 90 56 60
        E 0 90 4a 60
        E 0 90 3e 60
        E 0 90 1f 60
        E 120 80 62 00
        E 0 80 56 00
        E 0 80 4a 00
        E 0 80 3e 00
        E 0 80 1f 00
        E 120 90 60 60
        E 0 90 62 60
        E 0 90 54 60
        E 0 90 56 60
        E 0 90 18 60
        E 0 90 1f 60
        E 120 80 60 00
        E 0 80 62 00
        E 0 80 54 00
        E 0 80 56 00
        E 0 80 18 00
        E 0 80 1f 00
        E 120 90 61 60
        E 0 90 62 60
        E 0 90 55 60
        E 0 90 56 60
        E 0 90 49 60
        E 0 90 4a 60
        E 0 90 3d 60
        E 0 90 1a 60
        E 0 90 1f 60
        E 120 80 61 00
        E 0 80 62 00
        E 0 80 55 00
        E 0 80 56 00
        E 0 80 49 00
        E 0 80 4a 00
        E 0 80 3d 00
        E 0 80 1a 00
        E 0 80 1f 00
        E 120 90 62 60
        E 0 90 56 60
        E 0 90 1f 60
        E 120 80 62 00
        E 0 80 56 00
        E 0 80 1f 00
        E 120 90 60 60
        E 0 90 62 60
        E 0 90 78 60
        E 0 90 79 60
        E 0 90 7a 60
        E 0 90 7b 60
        E 0 90 7c 60
        E 0 90 54 60
        E 0 90 56 60
        E 0 90 48 60
        E 0 90 4a 60
        E 0 90 3e 60
        E 0 90 18 60
        E 0 90 1f 60
        E 120 80 60 00
        E 0 80 62 00
        E 0 80 54 00
        E 0 80 56 00
        E 0 80 48 00
        E 0 80 4a 00
        E 0 80 3e 00
        E 0 90 61 60
        E 0 80 18 00
        E 0 80 1f 00
        E 0 90 1a 60
        E 120 80 61 00
        E 0 90 61 60
        E 0 90 55 60
        E 0 80 1a 00
        E 0 90 1b 60
        E 120 80 61 00
        E 0 80 55 00
        E 0 90 61 60
        E 0 80 1b 00
        E 0 90 1a 60
        E 120 80 61 00
        E 0 90 62 60
        E 0 90 56 60
        E 0 90 4a 60
        E 0 90 6e 60
        E 0 90 3e 60
        E 0 80 1a 00
        E 0 90 2f 60
        E 120 80 62 00
        E 0 80 56 00
        E 0 80 4a 00
        E 0 80 6e 00
        E 0 80 3e 00
        E 0 90 61 60
        E 0 80 2f 00
        E 0 90 1a 60
        E 120 80 61 00
        E 0 90 61 60
        E 0 90 55 60
        E 0 80 1a 00
        E 0 90 1b 60
        E 120 80 61 00
        E 0 80 55 00
        E 0 90 61 60
        E 0 80 1b 00
        E 0 90 1a 60
        E 120 80 61 00
        E 0 90 63 60
        E 0 90 57 60
        E 0 90 4b 60
        E 0 90 6f 60
        E 0 90 3f 60
        E 0 80 1a 00
        E 0 90 31 60
        E 120 80 63 00
        E 0 80 57 00
        E 0 80 4b 00
        E 0 80 6f 00
        E 0 80 3f 00
        E 0 90 61 60
        E 0 80 31 00
        E 0 90 1a 60
        E 120 80 61 00
        E 0 90 61 60
        E 0 90 55 60
        E 0 80 1a 00
        E 0 90 1b 60
        E 120 80 61 00
        E 0 80 55 00
        E 0 90 61 60
        E 0 80 1b 00
        E 0 90 1a 60
        E 120 80 61 00
        E 0 90 64 60
        E 0 90 58 60
        E 0 90 4c 60
        E 0 90 70 60
        E 0 90 40 60
        E 0 80 1a 00
        E 0 90 33 60
        E 120 80 64 00
        E 0 80 58 00
        E 0 80 4c 00
        E 0 80 40 00
        E 0 90 64 60
        E 0 80 33 00
        E 0 90 2c 60
        E 120 80 64 00
        E 0 90 64 60
        E 0 90 58 60
        E 0 80 2c 00
        E 0 90 26 60
        E 120 80 64 00
        E 0 80 58 00
        E 0 90 64 60
        E 0 80 26 00
        E 0 90 2c 60
        E 120 80 78 00
        E 0 80 79 00
        E 0 80 7a 00
        E 0 80 7b 00
        E 0 80 7c 00
        E 0 80 70 00
        E 0 80 64 00
        E 0 90 60 60
        E 0 90 64 60
        E 0 90 54 60
        E 0 90 58 60
        E 0 90 48 60
        E 0 90 4c 60
        E 0 90 40 60
        E 0 80 2c 00
        E 0 90 18 60
        E 0 90 26 60
        E 120 80 60 00
        E 0 80 64 00
        E 0 80 54 00
        E 0 80 58 00
        E 0 80 48 00
        E 0 80 4c 00
        E 0 80 40 00
        E 0 80 18 00
        E 0 80 26 00
        E 360 90 60 60
        E 0 90 62 60
        E 0 90 54 60
        E 0 90 56 60
        E 0 90 48 60
        E 0 90 4a 60
        E 0 90 3e 60
        E 0 90 18 60
        E 0 90 1f 60
        E 120 80 60 00
        E 0 80 62 00
        E 0 80 54 00
        E 0 80 56 00
        E 0 80 48 00
        E 0 80 4a 00
        E 0 80 3e 00
        E 0 80 18 00
        E 0 80 1f 00
        E 120 90 61 60
        E 0 90 62 60
        E 0 90 55 60
        E 0 90 56 60
        E 0 90 1a 60
        E 0 90 1f 60
        E 120 80 61 00
        E 0 80 62 00
        E 0 80 55 00
        E 0 80 56 00
        E 0 80 1a 00
        E 0 80 1f 00
        E 120 90 62 60
        E 0 90 56 60
        E 0 90 4a 60
        E 0 90 3e 60
        E 0 90 1f 60
        E 120 80 62 00
        E 0 80 56 00
        E 0 80 4a 00
        E 0 80 3e 00
        E 0 90 61 60
        E 0 80 1f 00
        E 0 90 1a 60
        E 120 80 61 00
        E 0 90 60 60
        E 0 90 62 60
        E 0 90 54 60
        E 0 90 56 60
        E 0 80 1a 00
        E 0 90 18 60
        E 0 90 1f 60
        E 120 80 60 00
        E 0 80 62 00
        E 0 80 54 00
        E 0 80 56 00
        E 0 80 18 00
        E 0 80 1f 00
        E 120 90 61 60
        E 0 90 62 60
        E 0 90 55 60
        E 0 90 56 60
        E 0 90 49 60
        E 0 90 4a 60
        E 0 90 3d 60
        E 0 90 1a 60
        E 0 90 1f 60
        E 120 80 61 00
        E 0 80 62 00
        E 0 80 55 00
        E 0 80 56 00
        E 0 80 49 00
        E 0 80 4a 00
        E 0 80 3d 00
        E 0 80 1a 00
        E 0 80 1f 00
        E 120 90 62 60
        E 0 90 56 60
        E 0 90 1f 60
        E 120 80 62 00
        E 0 80 56 00
        E 0 80 1f 00
        E 120 90 60 60
        E 0 90 62 60
        E 0 90 54 60
        E 0 90 56 60
        E 0 90 48 60
        E 0 90 4a 60
        E 0 90 3e 60
        E 0 90 18 60
        E 0 90 1f 60
        E 120 80 60 00
        E 0 80 62 00
        E 0 80 54 00
        E 0 80 56 00
        E 0 80 48 00
        E 0 80 4a 00
        E 0 80 3e 00
        E 0 80 18 00
        E 0 80 1f 00
        E 120 90 62 60
        E 0 90 56 60
        E 0 90 1f 60
        E 120 80 62 00
        E 0 80 56 00
        E 0 90 61 60
        E 0 80 1f 00
        E 0 90 1a 60
        E 120 80 61 00
        E 0 90 60 60
        E 0 90 62 60
        E 0 90 54 60
        E 0 90 56 60
        E 0 90 48 60
        E 0 90 4a 60
        E 0 90 3e 60
        E 0 80 1a 00
        E 0 90 18 60
        E 0 90 1f 60
        E 120 80 60 00
        E 0 80 62 00
        E 0 80 54 00
        E 0 80 56 00
        E 0 80 48 00
        E 0 80 4a 00
        E 0 80 3e 00
        E 0 80 18 00
        E 0 80 1f 00
        E 120 90 61 60
        E 0 90 62 60
        E 0 90 55 60
        E 0 90 56 60
        E 0 90 1a 60
        E 0 90 1f 60
        E 120 80 61 00
        E 0 80 62 00
        E 0 80 55 00
        E 0 80 56 00
        E 0 80 1a 00
        E 0 80 1f 00
        E 120 90 62 60
        E 0 90 56 60
        E 0 90 4a 60
        E 0 90 3e 60
        E 0 90 1f 60
        E 120 80 62 00
        E 0 80 56 00
        E 0 80 4a 00
        E 0 80 3e 00
        E 0 90 61 60
        E 0 80 1f 00
        E 0 90 1a 60
        E 120 80 61 00
        E 0 90 60 60
        E 0 90 62 60
        E 0 90 54 60
        E 0 90 56 60
        E 0 80 1a 00
        E 0 90 18 60
        E 0 90 1f 60
        E 120 80 60 00
        E 0 80 62 00
        E 0 80 54 00
        E 0 80 56 00
        E 0 80 18 00
        E 0 80 1f 00
        E 120 90 61 60
        E 0 90 62 60
        E 0 90 55 60
        E 0 90 56 60
        E 0 90 49 60
        E 0 90 4a 60
        E 0 90 3d 60
        E 0 90 1a 60
        E 0 90 1f 60
        E 120 80 61 00
        E 0 80 62 00
        E 0 80 55 00
        E 0 80 56 00
        E 0 80 49 00
        E 0 80 4a 00
        E 0 80 3d 00
        E 0 80 1a 00
        E 0 80 1f 00
        E 120 90 62 60
        E 0 90 56 60
        E 0 90 1f 60
        E 120 80 62 00
        E 0 80 56 00
        E 0 90 61 60
        E 0 80 1f 00
        E 0 90 1a 60
        E 120 80 61 00
        E 0 90 60 60
        E 0 90 62 60
        E 0 90 54 60
        E 0 90 56 60
        E 0 90 48 60
        E 0 90 4a 60
        E 0 90 3e 60
        E 0 80 1a 00
        E 0 90 18 60
        E 0 90 1f 60
        E 120 80 60 00
        E 0 80 62 00
        E 0 80 54 00
        E 0 80 56 00
        E 0 80 48 00
        E 0 80 4a 00
        E 0 80 3e 00
        E 0 80 18 00
        E 0 80 1f 00
        E 120 90 62 60
        E 0 90 56 60
        E 0 90 1f 60
        E 120 80 62 00
        E 0 80 56 00
        E 0 80 1f 00
        E 120 90 60 60
        E 0 90 62 60
        E 0 90 54 60
        E 0 90 56 60
        E 0 90 48 60
        E 0 90 4a 60
        E 0 90 3e 60
        E 0 90 18 60
        E 0 90 1f 60
        E 120 80 60 00
        E 0 80 62 00
        E 0 80 54 00
        E 0 80 56 00
        E 0 80 48 00
        E 0 80 4a 00
        E 0 80 3e 00
        E 0 80 18 00
        E 0 80 1f 00
        E 120 90 61 60
        E 0 90 62 60
        E 0 90 55 60
        E 0 90 56 60
        E 0 90 1a 60
        E 0 90 1f 60
        E 120 80 61 00
        E 0 80 62 00
        E 0 80 55 00
        E 0 80 56 00
        E 0 80 1a 00
        E 0 80 1f 00
        E 120 90 62 60
        E 0 90 56 60
        E 0 90 4a 60
        E 0 90 3e 60
        E 0 90 1f 60
        E 120 80 62 00
        E 0 80 56 00
        E 0 80 4a 00
        E 0 80 3e 00
        E 0 80 1f 00
        E 120 90 60 60
        E 0 90 62 60
        E 0 90 54 60
        E 0 90 56 60
        E 0 90 18 60
        E 0 90 1f 60
        E 120 80 60 00
        E 0 80 62 00
        E 0 80 54 00
        E 0 80 56 00
        E 0 80 18 00
        E 0 80 1f 00
        E 120 90 61 60
        E 0 90 62 60
        E 0 90 55 60
        E 0 90 56 60
        E 0 90 49 60
        E 0 90 4a 60
        E 0 90 3d 60
        E 0 90 1a 60
        E 0 90 1f 60
        E 120 80 61 00
        E 0 80 62 00
        E 0 80 55 00
        E 0 80 56 00
        E 0 80 49 00
        E 0 80 4a 00
        E 0 80 3d 00
        E 0 80 1a 00
        E 0 80 1f 00
        E 120 90 62 60
        E 0 90 56 60
        E 0 90 1f 60
        E 120 80 62 00
        E 0 80 56 00
        E 0 80 1f 00
        E 120 90 60 60
        E 0 90 62 60
        E 0 90 54 60
        E 0 90 56 60
        E 0 90 48 60
        E 0 90 4a 60
        E 0 90 3e 60
        E 0 90 18 60
        E 0 90 1f 60
        E 120 80 60 00
        E 0 80 62 00
        E 0 80 54 00
        E 0 80 56 00
        E 0 80 48 00
        E 0 80 4a 00
        E 0 80 3e 00
        E 0 90 61 60
        E 0 80 18 00
        E 0 80 1f 00
        E 0 90 1a 60
        E 120 80 61 00
        E 0 90 61 60
        E 0 90 55 60
        E 0 80 1a 00
        E 0 90 1b 60
        E 120 80 61 00
        E 0 80 55 00
        E 0 90 61 60
        E 0 80 1b 00
        E 0 90 1a 60
        E 120 80 61 00
        E 0 90 62 60
        E 0 90 56 60
        E 0 90 4a 60
        E 0 90 6e 60
        E 0 90 3e 60
        E 0 80 1a 00
        E 0 90 2f 60
        E 120 80 62 00
        E 0 80 56 00
        E 0 80 4a 00
        E 0 80 6e 00
        E 0 80 3e 00
        E 0 90 61 60
        E 0 80 2f 00
        E 0 90 1a 60
        E 120 80 61 00
        E 0 90 61 60
        E 0 90 55 60
        E 0 80 1a 00
        E 0 90 1b 60
        E 120 80 61 00
        E 0 80 55 00
        E 0 90 61 60
        E 0 80 1b 00
        E 0 90 1a 60
        E 120 80 61 00
        E 0 90 63 60
        E 0 90 57 60
        E 0 90 4b 60
        E 0 90 6f 60
        E 0 90 3f 60
        E 0 80 1a 00
        E 0 90 31 60
        E 120 80 63 00
        E 0 80 57 00
        E 0 80 4b 00
        E 0 80 6f 00
        E 0 80 3f 00
        E 0 90 61 60
        E 0 80 31 00
        E 0 90 1a 60
        E 120 80 61 00
        E 0 90 61 60
        E 0 90 55 60
        E 0 80 1a 00
        E 0 90 1b 60
        E 120 80 61 00
        E 0 80 55 00
        E 0 90 61 60
        E 0 80 1b 00
        E 0 90 1a 60
        E 120 80 61 00
        E 0 90 64 60
        E 0 90 58 60
        E 0 90 4c 60
        E 0 90 70 60
        E 0 90 40 60
        E 0 80 1a 00
        E 0 90 33 60
        E 120 80 64 00
        E 0 80 58 00
        E 0 80 4c 00
        E 0 80 40 00
        E 0 90 64 60
        E 0 80 33 00
        E 0 90 2c 60
        E 120 80 64 00
        E 0 90 64 60
        E 0 90 58 60
        E 0 80 2c 00
        E 0 90 26 60
        E 120 80 64 00
        E 0 80 58 00
        E 0 90 64 60
        E 0 80 26 00
        E 0 90 2c 60
        E 120 80 70 00
        E 0 80 64 00
        E 0 90 60 60
        E 0 90 64 60
        E 0 90 54 60
        E 0 90 58 60
        E 0 90 48 60
        E 0 90 4c 60
        E 0 90 40 60
        E 0 80 2c 00
        E 0 90 18 60
        E 0 90 26 60
        E 120 80 60 00
        E 0 80 64 00
        E 0 80 54 00
        E 0 80 58 00
        E 0 80 48 00
        E 0 80 4c 00
        E 0 80 40 00
        E 0 80 18 00
        E 0 80 26 00
        E 120 90 61 60
        E 0 90 55 60
        E 0 90 1b 60
        E 120 80 61 00
        E 0 80 55 00
        E 0 90 60 60
        E 0 90 64 60
        E 0 80 1b 00
        E 0 90 18 60
        E 0 90 2c 60
        E 120 80 60 00
        E 0 80 64 00
        E 0 80 18 00
        E 0 80 2c 00
        E 120 90 60 60
        E 0 90 18 60
        E 120 80 60 00
        E 0 90 61 60
        E 0 90 64 60
        E 0 90 55 60
        E 0 90 58 60
        E 0 80 18 00
        E 0 90 1a 60
        E 0 90 26 60
        E 120 80 61 00
        E 0 80 64 00
        E 0 80 55 00
        E 0 80 58 00
        E 0 80 1a 00
        E 0 80 26 00
        E 120 90 60 60
        E 0 90 63 60
        E 0 90 54 60
        E 0 90 57 60
        E 0 90 48 60
        E 0 90 4b 60
        E 0 90 3f 60
        E 0 90 18 60
        E 0 90 2a 60
        E 120 80 60 00
        E 0 80 63 00
        E 0 80 54 00
        E 0 80 57 00
        E 0 80 48 00
        E 0 80 4b 00
        E 0 80 3f 00
        E 0 80 18 00
        E 0 80 2a 00
        E 120 90 61 60
        E 0 90 55 60
        E 0 90 1b 60
        E 120 80 61 00
        E 0 80 55 00
        E 0 90 60 60
        E 0 90 63 60
        E 0 80 1b 00
        E 0 90 18 60
        E 0 90 2b 60
        E 120 80 60 00
        E 0 80 63 00
        E 0 80 18 00
        E 0 80 2b 00
        E 120 90 60 60
        E 0 90 18 60
        E 120 80 60 00
        E 0 90 61 60
        E 0 90 63 60
        E 0 90 55 60
        E 0 90 57 60
        E 0 80 18 00
        E 0 90 1a 60
        E 0 90 2a 60
        E 120 80 61 00
        E 0 80 63 00
        E 0 80 55 00
        E 0 80 57 00
        E 0 80 1a 00
        E 0 80 2a 00
        E 120 90 60 60
        E 0 90 63 60
        E 0 90 54 60
        E 0 90 57 60
        E 0 90 48 60
        E 0 90 4b 60
        E 0 90 3f 60
        E 0 90 18 60
        E 0 90 2a 60
        E 120 80 60 00
        E 0 80 63 00
        E 0 80 54 00
        E 0 80 57 00
        E 0 80 48 00
        E 0 80 4b 00
        E 0 80 3f 00
        E 0 80 18 00
        E 0 80 2a 00
        E 120 90 61 60
        E 0 90 55 60
        E 0 90 1b 60
        E 120 80 61 00
        E 0 80 55 00
        E 0 90 60 60
        E 0 90 63 60
        E 0 80 1b 00
        E 0 90 18 60
        E 0 90 2b 60
        E 120 80 60 00
        E 0 80 63 00
        E 0 80 18 00
        E 0 80 2b 00
        E 120 90 60 60
        E 0 90 18 60
        E 120 80 60 00
        E 0 90 61 60
        E 0 90 63 60
        E 0 90 55 60
        E 0 90 57 60
        E 0 80 18 00
        E 0 90 1a 60
        E 0 90 2a 60
        E 120 80 61 00
        E 0 80 63 00
        E 0 80 55 00
        E 0 80 57 00
        E 0 80 1a 00
        E 0 80 2a 00
        E 120 90 63 60
        E 0 90 57 60
        E 0 90 4b 60
        E 0 90 3f 60
        E 0 90 2a 60
        E 120 80 63 00
        E 0 80 57 00
        E 0 80 4b 00
        E 0 80 3f 00
        E 0 90 60 60
        E 0 80 2a 00
        E 0 90 18 60
        E 120 80 60 00
        E 0 90 61 60
        E 0 90 63 60
        E 0 90 55 60
        E 0 90 57 60
        E 0 80 18 00
        E 0 90 1a 60
        E 0 90 2a 60
        E 120 80 61 00
        E 0 80 63 00
        E 0 80 55 00
        E 0 80 57 00
        E 0 80 1a 00
        E 0 80 2a 00
        E 120 90 60 60
        E 0 90 63 60
        E 0 90 54 60
        E 0 90 57 60
        E 0 90 48 60
        E 0 90 4b 60
        E 0 90 3f 60
        E 0 90 18 60
        E 0 90 2a 60
        E 120 80 60 00
        E 0 80 63 00
        E 0 80 54 00
        E 0 80 57 00
        E 0 80 48 00
        E 0 80 4b 00
        E 0 80 3f 00
        E 0 80 18 00
        E 0 80 2a 00
        E 120 90 61 60
        E 0 90 63 60
        E 0 90 55 60
        E 0 90 57 60
        E 0 90 1a 60
        E 0 90 2a 60
        E 120 80 61 00
        E 0 80 63 00
        E 0 80 55 00
        E 0 80 57 00
        E 0 80 1a 00
        E 0 80 2a 00
        E 120 90 60 60
        E 0 90 63 60
        E 0 90 74 60
        E 0 90 54 60
        E 0 90 57 60
        E 0 90 48 60
        E 0 90 4b 60
        E 0 90 3f 60
        E 0 90 18 60
        E 0 90 2a 60
        E 120 80 60 00
        E 0 80 63 00
        E 0 80 54 00
        E 0 80 57 00
        E 0 80 48 00
        E 0 80 4b 00
        E 0 80 3f 00
        E 0 80 18 00
        E 0 80 2a 00
        E 120 90 61 60
        E 0 90 55 60
        E 0 90 1b 60
        E 120 80 61 00
        E 0 80 55 00
        E 0 90 60 60
        E 0 90 63 60
        E 0 80 1b 00
        E 0 90 18 60
        E 0 90 2b 60
        E 120 80 60 00
        E 0 80 63 00
        E 0 80 18 00
        E 0 80 2b 00
        E 120 90 60 60
        E 0 90 18 60
        E 120 80 60 00
        E 0 90 61 60
        E 0 90 63 60
        E 0 90 55 60
        E 0 90 57 60
        E 0 80 18 00
        E 0 90 1a 60
        E 0 90 2a 60
        E 120 80 61 00
        E 0 80 63 00
        E 0 80 55 00
        E 0 80 57 00
        E 0 80 1a 00
        E 0 80 2a 00
        E 120 90 60 60
        E 0 90 63 60
        E 0 90 54 60
        E 0 90 57 60
        E 0 90 48 60
        E 0 90 4b 60
        E 0 90 3f 60
        E 0 90 18 60
        E 0 90 2a 60
        E 120 80 60 00
        E 0 80 63 00
        E 0 80 54 00
        E 0 80 57 00
        E 0 80 48 00
        E 0 80 4b 00
        E 0 80 3f 00
        E 0 80 18 00
        E 0 80 2a 00
        E 120 90 61 60
        E 0 90 55 60
        E 0 90 1b 60
        E 120 80 61 00
        E 0 80 55 00
        E 0 90 60 60
        E 0 90 63 60
        E 0 80 1b 00
        E 0 90 18 60
        E 0 90 2b 60
        E 120 80 60 00
        E 0 80 63 00
        E 0 80 18 00
        E 0 80 2b 00
        E 120 90 60 60
        E 0 90 18 60
        E 120 80 60 00
        E 0 90 61 60
        E 0 90 63 60
        E 0 90 55 60
        E 0 90 57 60
        E 0 80 18 00
        E 0 90 1a 60
        E 0 90 2a 60
        E 120 80 61 00
        E 0 80 63 00
        E 0 80 55 00
        E 0 80 57 00
        E 0 80 1a 00
        E 0 80 2a 00
        E 120 90 60 60
        E 0 90 63 60
        E 0 90 54 60
        E 0 90 57 60
        E 0 90 48 60
        E 0 90 4b 60
        E 0 90 3f 60
        E 0 90 18 60
        E 0 90 2a 60
        E 120 80 60 00
        E 0 80 63 00
        E 0 80 54 00
        E 0 80 57 00
        E 0 80 48 00
        E 0 80 4b 00
        E 0 80 3f 00
        E 0 80 18 00
        E 0 80 2a 00
        E 120 90 61 60
        E 0 90 55 60
        E 0 90 1b 60
        E 120 80 61 00
        E 0 80 55 00
        E 0 90 60 60
        E 0 90 63 60
        E 0 80 1b 00
        E 0 90 18 60
        E 0 90 2b 60
        E 120 80 60 00
        E 0 80 63 00
        E 0 80 18 00
        E 0 80 2b 00
        E 120 90 60 60
        E 0 90 18 60
        E 120 80 60 00
        E 0 90 61 60
        E 0 90 63 60
        E 0 90 55 60
        E 0 90 57 60
        E 0 80 18 00
        E 0 90 1a 60
        E 0 90 2a 60
        E 120 80 61 00
        E 0 80 63 00
        E 0 80 55 00
        E 0 80 57 00
        E 0 80 1a 00
        E 0 80 2a 00
        E 120 90 63 60
        E 0 90 57 60
        E 0 90 4b 60
        E 0 90 3f 60
        E 0 90 2a 60
        E 120 80 63 00
        E 0 80 57 00
        E 0 80 4b 00
        E 0 80 3f 00
        E 0 90 60 60
        E 0 80 2a 00
        E 0 90 18 60
        E 120 80 60 00
        E 0 90 61 60
        E 0 90 63 60
        E 0 90 55 60
        E 0 90 57 60
        E 0 80 18 00
        E 0 90 1a 60
        E 0 90 2a 60
        E 120 80 61 00
        E 0 80 63 00
        E 0 80 55 00
        E 0 80 57 00
        E 0 80 1a 00
        E 0 80 2a 00
        E 120 90 61 60
        E 0 90 55 60
        E 0 90 49 60
        E 0 90 3d 60
        E 0 90 1b 60
        E 120 80 61 00
        E 0 80 55 00
        E 0 80 49 00
        E 0 80 3d 00
        E 0 90 61 60
        E 0 80 1b 00
        E 0 90 1a 60
        E 120 80 61 00
        E 0 90 61 60
        E 0 90 55 60
        E 0 80 1a 00
        E 0 90 1b 60
        E 120 80 61 00
        E 0 80 55 00
        E 0 90 61 60
        E 0 80 1b 00
        E 0 90 1a 60
        E 120 80 74 00
        E 0 80 61 00
        E 0 90 60 60
        E 0 90 64 60
        E 0 90 54 60
        E 0 90 58 60
        E 0 90 48 60
        E 0 90 4c 60
        E 0 90 40 60
        E 0 80 1a 00
        E 0 90 18 60
        E 0 90 26 60
        E 120 80 60 00
        E 0 80 64 00
        E 0 80 54 00
        E 0 80 58 00
        E 0 80 48 00
        E 0 80 4c 00
        E 0 80 40 00
        E 0 90 61 60
        E 0 80 18 00
        E 0 80 26 00
        E 0 90 1a 60
        E 120 80 61 00
        E 0 90 61 60
        E 0 90 55 60
        E 0 80 1a 00
        E 0 90 1b 60
        E 120 80 61 00
        E 0 80 55 00
        E 0 90 61 60
        E 0 80 1b 00
        E 0 90 1a 60
        E 120 80 61 00
        E 0 90 61 60
        E 0 90 55 60
        E 0 90 49 60
        E 0 90 3d 60
        E 0 80 1a 00
        E 0 90 1b 60
        E 120 80 61 00
        E 0 80 55 00
        E 0 80 49 00
        E 0 80 3d 00
        E 0 90 60 60
        E 0 80 1b 00
        E 0 90 18 60
        E 120 80 60 00
        E 0 90 61 60
        E 0 90 62 60
        E 0 90 55 60
        E 0 90 56 60
        E 0 80 18 00
        E 0 90 1a 60
        E 0 90 1f 60
        E 120 80 61 00
        E 0 80 62 00
        E 0 80 55 00
        E 0 80 56 00
        E 0 80 1a 00
        E 0 80 1f 00
        E 120 90 61 60
        E 0 90 55 60
        E 0 90 49 60
        E 0 90 3d 60
        E 0 90 1b 60
        E 120 80 61 00
        E 0 80 55 00
        E 0 80 49 00
        E 0 80 3d 00
        E 0 90 61 60
        E 0 80 1b 00
        E 0 90 1a 60
        E 120 80 61 00
        E 0 90 61 60
        E 0 90 55 60
        E 0 80 1a 00
        E 0 90 1b 60
        E 120 80 61 00
        E 0 80 55 00
        E 0 90 61 60
        E 0 80 1b 00
        E 0 90 1a 60
        E 120 80 61 00
        E 0 90 61 60
        E 0 90 55 60
        E 0 90 49 60
        E 0 90 3d 60
        E 0 80 1a 00
        E 0 90 1b 60
        E 120 80 61 00
        E 0 80 55 00
        E 0 80 49 00
        E 0 80 3d 00
        E 0 90 61 60
        E 0 80 1b 00
        E 0 90 1a 60
        E 120 80 61 00
        E 0 90 61 60
        E 0 90 55 60
        E 0 80 1a 00
        E 0 90 1b 60
        E 120 80 61 00
        E 0 80 55 00
        E 0 90 61 60
        E 0 80 1b 00
        E 0 90 1a 60
        E 120 80 61 00
        E 0 90 60 60
        E 0 90 64 60
        E 0 90 54 60
        E 0 90 58 60
        E 0 90 48 60
        E 0 90 4c 60
        E 0 90 40 60
        E 0 80 1a 00
        E 0 90 18 60
        E 0 90 26 60
        E 120 80 60 00
        E 0 80 64 00
        E 0 80 54 00
        E 0 80 58 00
        E 0 80 48 00
        E 0 80 4c 00
        E 0 80 40 00
        E 0 90 61 60
        E 0 80 18 00
        E 0 80 26 00
        E 0 90 1a 60
        E 120 80 61 00
        E 0 90 61 60
        E 0 90 55 60
        E 0 80 1a 00
        E 0 90 1b 60
        E 120 80 61 00
        E 0 80 55 00
        E 0 90 61 60
        E 0 80 1b 00
        E 0 90 1a 60
        E 120 80 61 00
        E 0 90 61 60
        E 0 90 55 60
        E 0 90 49 60
        E 0 90 3d 60
        E 0 80 1a 00
        E 0 90 1b 60
        E 120 80 61 00
        E 0 80 55 00
        E 0 80 49 00
        E 0 80 3d 00
        E 0 90 60 60
        E 0 80 1b 00
        E 0 90 18 60
        E 120 80 60 00
        E 0 90 61 60
        E 0 90 64 60
        E 0 90 55 60
        E 0 90 58 60
        E 0 80 18 00
        E 0 90 1a 60
        E 0 90 26 60
        E 120 80 61 00
        E 0 80 64 00
        E 0 80 55 00
        E 0 80 58 00
        E 0 80 1a 00
        E 0 80 26 00
        E 120 90 61 60
        E 0 90 55 60
        E 0 90 49 60
        E 0 90 3d 60
        E 0 90 1b 60
        E 120 80 61 00
        E 0 80 55 00
        E 0 80 49 00
        E 0 80 3d 00
        E 0 90 61 60
        E 0 80 1b 00
        E 0 90 1a 60
        E 120 80 61 00
        E 0 90 61 60
        E 0 90 55 60
        E 0 80 1a 00
        E 0 90 1b 60
        E 120 80 61 00
        E 0 80 55 00
        E 0 90 61 60
        E 0 80 1b 00
        E 0 90 1a 60
        E 120 80 61 00
        E 0 90 61 60
        E 0 90 55 60
        E 0 90 49 60
        E 0 90 3d 60
        E 0 80 1a 00
        E 0 90 1b 60
        E 120 80 61 00
        E 0 80 55 00
        E 0 80 49 00
        E 0 80 3d 00
        E 0 90 61 60
        E 0 80 1b 00
        E 0 90 1a 60
        E 120 80 61 00
        E 0 90 61 60
        E 0 90 55 60
        E 0 80 1a 00
        E 0 90 1b 60
        E 120 80 61 00
        E 0 80 55 00
        E 0 90 61 60
        E 0 80 1b 00
        E 0 90 1a 60
        E 120 80 61 00
        E 0 90 60 60
        E 0 90 64 60
        E 0 90 54 60
        E 0 90 58 60
        E 0 90 48 60
        E 0 90 4c 60
        E 0 90 40 60
        E 0 80 1a 00
        E 0 90 18 60
        E 0 90 26 60
        E 120 80 60 00
        E 0 80 64 00
        E 0 80 54 00
        E 0 80 58 00
        E 0 80 48 00
        E 0 80 4c 00
        E 0 80 40 00
        E 0 90 61 60
        E 0 80 18 00
        E 0 80 26 00
        E 0 90 1a 60
        E 120 80 61 00
        E 0 90 61 60
        E 0 90 55 60
        E 0 80 1a 00
        E 0 90 1b 60
        E 120 80 61 00
        E 0 80 55 00
        E 0 90 61 60
        E 0 80 1b 00
        E 0 90 1a 60
        E 120 80 61 00
        E 0 90 61 60
        E 0 90 55 60
        E 0 90 49 60
        E 0 90 3d 60
        E 0 80 1a 00
        E 0 90 1b 60
        E 120 80 61 00
        E 0 80 55 00
        E 0 80 49 00
        E 0 80 3d 00
        E 0 90 60 60
        E 0 80 1b 00
        E 0 90 18 60
        E 120 80 60 00
        E 0 90 61 60
        E 0 90 64 60
        E 0 90 55 60
        E 0 90 58 60
        E 0 80 18 00
        E 0 90 1a 60
        E 0 90 26 60
        E 120 80 61 00
        E 0 80 64 00
        E 0 80 55 00
        E 0 80 58 00
        E 0 80 1a 00
        E 0 80 26 00
        E 120 90 61 60
        E 0 90 55 60
        E 0 90 49 60
        E 0 90 3d 60
        E 0 90 1b 60
        E 120 80 61 00
        E 0 80 55 00
        E 0 80 49 00
        E 0 80 3d 00
        E 0 90 61 60
        E 0 80 1b 00
        E 0 90 1a 60
        E 120 80 61 00
        E 0 90 61 60
        E 0 90 55 60
        E 0 80 1a 00
        E 0 90 1b 60
        E 120 80 61 00
        E 0 80 55 00
        E 0 90 61 60
        E 0 80 1b 00
        E 0 90 1a 60
        E 120 80 61 00
        E 0 90 61 60
        E 0 90 55 60
        E 0 90 49 60
        E 0 90 3d 60
        E 0 80 1a 00
        E 0 90 1b 60
        E 120 80 61 00
        E 0 80 55 00
        E 0 80 49 00
        E 0 80 3d 00
        E 0 90 61 60
        E 0 80 1b 00
        E 0 90 1a 60
        E 120 80 61 00
        E 0 90 62 60
        E 0 90 56 60
        E 0 90 6e 60
        E 0 80 1a 00
        E 0 90 2f 60
        E 120 80 62 00
        E 0 80 56 00
        E 0 90 62 60
        E 0 80 2f 00
        E 0 90 1e 60
        E 120 80 62 00
        E 0 90 61 60
        E 0 90 78 60
        E 0 90 79 60
        E 0 90 7a 60
        E 0 90 7b 60
        E 0 90 7c 60
        E 0 90 55 60
        E 0 90 49 60
        E 0 90 3d 60
        E 0 80 1e 00
        E 0 90 1b 60
        E 120 80 61 00
        E 0 80 55 00
        E 0 80 49 00
        E 0 80 3d 00
        E 0 90 61 60
        E 0 80 1b 00
        E 0 90 1a 60
        E 120 80 61 00
        E 0 90 62 60
        E 0 90 56 60
        E 0 80 1a 00
        E 0 90 1f 60
        E 120 80 6e 00
        E 0 80 62 00
        E 0 80 56 00
        E 0 90 61 60
        E 0 80 1f 00
        E 0 90 1a 60
        E 120 80 61 00
        E 0 90 61 60
        E 0 90 55 60
        E 0 90 49 60
        E 0 90 3d 60
        E 0 80 1a 00
        E 0 90 1b 60
        E 120 80 61 00
        E 0 80 55 00
        E 0 80 49 00
        E 0 80 3d 00
        E 0 90 61 60
        E 0 80 1b 00
        E 0 90 1a 60
        E 120 80 61 00
        E 0 90 63 60
        E 0 90 57 60
        E 0 90 6f 60
        E 0 80 1a 00
        E 0 90 31 60
        E 120 80 63 00
        E 0 80 57 00
        E 0 80 6f 00
        E 0 90 61 60
        E 0 80 31 00
        E 0 90 1a 60
        E 120 80 61 00
        E 0 90 61 60
        E 0 90 55 60
        E 0 90 49 60
        E 0 90 3d 60
        E 0 80 1a 00
        E 0 90 1b 60
        E 120 80 61 00
        E 0 80 55 00
        E 0 80 49 00
        E 0 80 3d 00
        E 0 90 61 60
        E 0 80 1b 00
        E 0 90 1a 60
        E 120 80 61 00
        E 0 90 64 60
        E 0 90 58 60
        E 0 90 70 60
        E 0 80 1a 00
        E 0 90 33 60
        E 120 80 64 00
        E 0 80 58 00
        E 0 80 70 00
        E 0 90 61 60
        E 0 80 33 00
        E 0 90 1a 60
        E 120 80 61 00
        E 0 90 61 60
        E 0 90 55 60
        E 0 90 49 60
        E 0 90 3d 60
        E 0 80 1a 00
        E 0 90 1b 60
        E 120 80 61 00
        E 0 80 55 00
        E 0 80 49 00
        E 0 80 3d 00
        E 0 90 61 60
        E 0 80 1b 00
        E 0 90 1a 60
        E 120 80 61 00
        E 0 90 61 60
        E 0 90 55 60
        E 0 80 1a 00
        E 0 90 1b 60
        E 120 80 61 00
        E 0 80 55 00
        E 0 90 61 60
        E 0 80 1b 00
        E 0 90 1a 60
        E 120 80 78 00
        E 0 80 79 00
        E 0 80 7a 00
        E 0 80 7b 00
        E 0 80 7c 00
        E 0 80 61 00
        E 0 90 60 60
        E 0 90 64 60
        E 0 90 54 60
        E 0 90 58 60
        E 0 90 48 60
        E 0 90 4c 60
        E 0 90 40 60
        E 0 80 1a 00
        E 0 90 18 60
        E 0 90 26 60
        E 120 80 60 00
        E 0 80 64 00
        E 0 80 54 00
        E 0 80 58 00
        E 0 80 48 00
        E 0 80 4c 00
        E 0 80 40 00
        E 0 80 18 00
        E 0 80 26 00
        E 120 90 61 60
        E 0 90 55 60
        E 0 90 1b 60
        E 120 80 61 00
        E 0 80 55 00
        E 0 90 60 60
        E 0 90 64 60
        E 0 80 1b 00
        E 0 90 18 60
        E 0 90 2c 60
        E 120 80 60 00
        E 0 80 64 00
        E 0 80 18 00
        E 0 80 2c 00
        E 120 90 60 60
        E 0 90 18 60
        E 120 80 60 00
        E 0 90 61 60
        E 0 90 64 60
        E 0 90 55 60
        E 0 90 58 60
        E 0 80 18 00
        E 0 90 1a 60
        E 0 90 26 60
        E 120 80 61 00
        E 0 80 64 00
        E 0 80 55 00
        E 0 80 58 00
        E 0 80 1a 00
        E 0 80 26 00
        E 120 90 60 60
        E 0 90 63 60
        E 0 90 54 60
        E 0 90 57 60
        E 0 90 48 60
        E 0 90 4b 60
        E 0 90 3f 60
        E 0 90 18 60
        E 0 90 2a 60
        E 120 80 60 00
        E 0 80 63 00
        E 0 80 54 00
        E 0 80 57 00
        E 0 80 48 00
        E 0 80 4b 00
        E 0 80 3f 00
        E 0 80 18 00
        E 0 80 2a 00
        E 120 90 61 60
        E 0 90 55 60
        E 0 90 1b 60
        E 120 80 61 00
        E 0 80 55 00
        E 0 90 60 60
        E 0 90 63 60
        E 0 80 1b 00
        E 0 90 18 60
        E 0 90 2b 60
        E 120 80 60 00
        E 0 80 63 00
        E 0 80 18 00
        E 0 80 2b 00
        E 120 90 60 60
        E 0 90 18 60
        E 120 80 60 00
        E 0 90 61 60
        E 0 90 63 60
        E 0 90 55 60
        E 0 90 57 60
        E 0 80 18 00
        E 0 90 1a 60
        E 0 90 2a 60
        E 120 80 61 00
        E 0 80 63 00
        E 0 80 55 00
        E 0 80 57 00
        E 0 80 1a 00
        E 0 80 2a 00
        E 120 90 60 60
        E 0 90 63 60
        E 0 90 54 60
        E 0 90 57 60
        E 0 90 48 60
        E 0 90 4b 60
        E 0 90 3f 60
        E 0 90 18 60
        E 0 90 2a 60
        E 120 80 60 00
        E 0 80 63 00
        E 0 80 54 00
        E 0 80 57 00
        E 0 80 48 00
        E 0 80 4b 00
        E 0 80 3f 00
        E 0 80 18 00
        E 0 80 2a 00
        E 120 90 61 60
        E 0 90 55 60
        E 0 90 1b 60
        E 120 80 61 00
        E 0 80 55 00
        E 0 90 60 60
        E 0 90 63 60
        E 0 80 1b 00
        E 0 90 18 60
        E 0 90 2b 60
        E 120 80 60 00
        E 0 80 63 00
        E 0 80 18 00
        E 0 80 2b 00
        E 120 90 60 60
        E 0 90 18 60
        E 120 80 60 00
        E 0 90 61 60
        E 0 90 63 60
        E 0 90 55 60
        E 0 90 57 60
        E 0 80 18 00
        E 0 90 1a 60
        E 0 90 2a 60
        E 120 80 61 00
        E 0 80 63 00
        E 0 80 55 00
        E 0 80 57 00
        E 0 80 1a 00
        E 0 80 2a 00
        E 120 90 63 60
        E 0 90 57 60
        E 0 90 4b 60
        E 0 90 3f 60
        E 0 90 2a 60
        E 120 80 63 00
        E 0 80 57 00
        E 0 80 4b 00
        E 0 80 3f 00
        E 0 90 60 60
        E 0 80 2a 00
        E 0 90 18 60
        E 120 80 60 00
        E 0 90 61 60
        E 0 90 63 60
        E 0 90 55 60
        E 0 90 57 60
        E 0 80 18 00
        E 0 90 1a 60
        E 0 90 2a 60
        E 120 80 61 00
        E 0 80 63 00
        E 0 80 55 00
        E 0 80 57 00
        E 0 80 1a 00
        E 0 80 2a 00
        E 120 90 60 60
        E 0 90 63 60
        E 0 90 54 60
        E 0 90 57 60
        E 0 90 48 60
        E 0 90 4b 60
        E 0 90 3f 60
        E 0 90 18 60
        E 0 90 2a 60
        E 120 80 60 00
        E 0 80 63 00
        E 0 80 54 00
        E 0 80 57 00
        E 0 80 48 00
        E 0 80 4b 00
        E 0 80 3f 00
        E 0 80 18 00
        E 0 80 2a 00
        E 120 90 61 60
        E 0 90 63 60
        E 0 90 55 60
        E 0 90 57 60
        E 0 90 1a 60
        E 0 90 2a 60
        E 120 80 61 00
        E 0 80 63 00
        E 0 80 55 00
        E 0 80 57 00
        E 0 80 1a 00
        E 0 80 2a 00
        E 120 90 60 60
        E 0 90 63 60
        E 0 90 74 60
        E 0 90 54 60
        E 0 90 57 60
        E 0 90 48 60
        E 0 90 4b 60
        E 0 90 3f 60
        E 0 90 18 60
        E 0 90 2a 60
        E 120 80 60 00
        E 0 80 63 00
        E 0 80 54 00
        E 0 80 57 00
        E 0 80 48 00
        E 0 80 4b 00
        E 0 80 3f 00
        E 0 80 18 00
        E 0 80 2a 00
        E 120 90 61 60
        E 0 90 55 60
        E 0 90 1b 60
        E 120 80 61 00
        E 0 80 55 00
        E 0 90 60 60
        E 0 90 63 60
        E 0 80 1b 00
        E 0 90 18 60
        E 0 90 2b 60
        E 120 80 60 00
        E 0 80 63 00
        E 0 80 18 00
        E 0 80 2b 00
        E 120 90 60 60
        E 0 90 18 60
        E 120 80 60 00
        E 0 90 61 60
        E 0 90 63 60
        E 0 90 55 60
        E 0 90 57 60
        E 0 80 18 00
        E 0 90 1a 60
        E 0 90 2a 60
        E 120 80 61 00
        E 0 80 63 00
        E 0 80 55 00
        E 0 80 57 00
        E 0 80 1a 00
        E 0 80 2a 00
        E 120 90 60 60
        E 0 90 63 60
        E 0 90 54 60
        E 0 90 57 60
        E 0 90 48 60
        E 0 90 4b 60
        E 0 90 3f 60
        E 0 90 18 60
        E 0 90 2a 60
        E 120 80 60 00
        E 0 80 63 00
        E 0 80 54 00
        E 0 80 57 00
        E 0 80 48 00
        E 0 80 4b 00
        E 0 80 3f 00
        E 0 80 18 00
        E 0 80 2a 00
        E 120 90 61 60
        E 0 90 55 60
        E 0 90 1b 60
        E 120 80 61 00
        E 0 80 55 00
        E 0 90 60 60
        E 0 90 63 60
        E 0 80 1b 00
        E 0 90 18 60
        E 0 90 2b 60
        E 120 80 60 00
        E 0 80 63 00
        E 0 80 18 00
        E 0 80 2b 00
        E 120 90 60 60
        E 0 90 18 60
        E 120 80 60 00
        E 0 90 61 60
        E 0 90 63 60
        E 0 90 55 60
        E 0 90 57 60
        E 0 80 18 00
        E 0 90 1a 60
        E 0 90 2a 60
        E 120 80 61 00
        E 0 80 63 00
        E 0 80 55 00
        E 0 80 57 00
        E 0 80 1a 00
        E 0 80 2a 00
        E 120 90 60 60
        E 0 90 63 60
        E 0 90 54 60
        E 0 90 57 60
        E 0 90 48 60
        E 0 90 4b 60
        E 0 90 3f 60
        E 0 90 18 60
        E 0 90 2a 60
        E 120 80 60 00
        E 0 80 63 00
        E 0 80 54 00
        E 0 80 57 00
        E 0 80 48 00
        E 0 80 4b 00
        E 0 80 3f 00
        E 0 80 18 00
        E 0 80 2a 00
        E 120 90 61 60
        E 0 90 55 60
        E 0 90 1b 60
        E 120 80 61 00
        E 0 80 55 00
        E 0 90 60 60
        E 0 90 63 60
        E 0 80 1b 00
        E 0 90 18 60
        E 0 90 2b 60
        E 120 80 60 00
        E 0 80 63 00
        E 0 80 18 00
        E 0 80 2b 00
        E 120 90 60 60
        E 0 90 18 60
        E 120 80 60 00
        E 0 90 61 60
        E 0 90 63 60
        E 0 90 55 60
        E 0 90 57 60
        E 0 80 18 00
        E 0 90 1a 60
        E 0 90 2a 60
        E 120 80 61 00
        E 0 80 63 00
        E 0 80 55 00
        E 0 80 57 00
        E 0 80 1a 00
        E 0 80 2a 00
        E 120 90 63 60
        E 0 90 57 60
        E 0 90 4b 60
        E 0 90 3f 60
        E 0 90 2a 60
        E 120 80 63 00
        E 0 80 57 00
        E 0 80 4b 00
        E 0 80 3f 00
        E 0 90 60 60
        E 0 80 2a 00
        E 0 90 18 60
        E 120 80 60 00
        E 0 90 61 60
        E 0 90 63 60
        E 0 90 55 60
        E 0 90 57 60
        E 0 80 18 00
        E 0 90 1a 60
        E 0 90 2a 60
        E 120 80 61 00
        E 0 80 63 00
        E 0 80 55 00
        E 0 80 57 00
        E 0 80 1a 00
        E 0 80 2a 00
        E 120 90 61 60
        E 0 90 55 60
        E 0 90 49 60
        E 0 90 3d 60
        E 0 90 1b 60
        E 120 80 61 00
        E 0 80 55 00
        E 0 80 49 00
        E 0 80 3d 00
        E 0 90 61 60
        E 0 80 1b 00
        E 0 90 1a 60
        E 120 80 61 00
        E 0 90 61 60
        E 0 90 55 60
        E 0 80 1a 00
        E 0 90 1b 60
        E 120 80 61 00
        E 0 80 55 00
        E 0 90 61 60
        E 0 80 1b 00
        E 0 90 1a 60
        E 120 80 74 00
        E 0 80 61 00
        E 0 90 60 60
        E 0 90 64 60
        E 0 90 54 60
        E 0 90 58 60
        E 0 90 48 60
        E 0 90 4c 60
        E 0 90 40 60
        E 0 80 1a 00
        E 0 90 18 60
        E 0 90 26 60
        E 120 80 60 00
        E 0 80 64 00
        E 0 80 54 00
        E 0 80 58 00
        E 0 80 48 00
        E 0 80 4c 00
        E 0 80 40 00
        E 0 90 61 60
        E 0 80 18 00
        E 0 80 26 00
        E 0 90 1a 60
        E 120 80 61 00
        E 0 90 61 60
        E 0 90 55 60
        E 0 80 1a 00
        E 0 90 1b 60
        E 120 80 61 00
        E 0 80 55 00
        E 0 90 61 60
        E 0 80 1b 00
        E 0 90 1a 60
        E 120 80 61 00
        E 0 90 61 60
        E 0 90 55 60
        E 0 90 49 60
        E 0 90 3d 60
        E 0 80 1a 00
        E 0 90 1b 60
        E 120 80 61 00
        E 0 80 55 00
        E 0 80 49 00
        E 0 80 3d 00
        E 0 90 60 60
        E 0 80 1b 00
        E 0 90 18 60
        E 120 80 60 00
        E 0 90 61 60
        E 0 90 62 60
        E 0 90 55 60
        E 0 90 56 60
        E 0 80 18 00
        E 0 90 1a 60
        E 0 90 1f 60
        E 120 80 61 00
        E 0 80 62 00
        E 0 80 55 00
        E 0 80 56 00
        E 0 80 1a 00
        E 0 80 1f 00
        E 120 90 61 60
        E 0 90 55 60
        E 0 90 49 60
        E 0 90 3d 60
        E 0 90 1b 60
        E 120 80 61 00
        E 0 80 55 00
        E 0 80 49 00
        E 0 80 3d 00
        E 0 90 61 60
        E 0 80 1b 00
        E 0 90 1a 60
        E 120 80 61 00
        E 0 90 61 60
        E 0 90 55 60
        E 0 80 1a 00
        E 0 90 1b 60
        E 120 80 61 00
        E 0 80 55 00
        E 0 90 61 60
        E 0 80 1b 00
        E 0 90 1a 60
        E 120 80 61 00
        E 0 90 61 60
        E 0 90 55 60
        E 0 90 49 60
        E 0 90 3d 60
        E 0 80 1a 00
        E 0 90 1b 60
        E 120 80 61 00
        E 0 80 55 00
        E 0 80 49 00
        E 0 80 3d 00
        E 0 90 61 60
        E 0 80 1b 00
        E 0 90 1a 60
        E 120 80 61 00
        E 0 90 61 60
        E 0 90 55 60
        E 0 80 1a 00
        E 0 90 1b 60
        E 120 80 61 00
        E 0 80 55 00
        E 0 90 61 60
        E 0 80 1b 00
        E 0 90 1a 60
        E 120 80 61 00
        E 0 90 60 60
        E 0 90 64 60
        E 0 90 54 60
        E 0 90 58 60
        E 0 90 48 60
        E 0 90 4c 60
        E 0 90 40 60
        E 0 80 1a 00
        E 0 90 18 60
        E 0 90 26 60
        E 120 80 60 00
        E 0 80 64 00
        E 0 80 54 00
        E 0 80 58 00
        E 0 80 48 00
        E 0 80 4c 00
        E 0 80 40 00
        E 0 90 61 60
        E 0 80 18 00
        E 0 80 26 00
        E 0 90 1a 60
        E 120 80 61 00
        E 0 90 61 60
        E 0 90 55 60
        E 0 80 1a 00
        E 0 90 1b 60
        E 120 80 61 00
        E 0 80 55 00
        E 0 90 61 60
        E 0 80 1b 00
        E 0 90 1a 60
        E 120 80 61 00
        E 0 90 61 60
        E 0 90 55 60
        E 0 90 49 60
        E 0 90 3d 60
        E 0 80 1a 00
        E 0 90 1b 60
        E 120 80 61 00
        E 0 80 55 00
        E 0 80 49 00
        E 0 80 3d 00
        E 0 90 60 60
        E 0 80 1b 00
        E 0 90 18 60
        E 120 80 60 00
        E 0 90 61 60
        E 0 90 64 60
        E 0 90 55 60
        E 0 90 58 60
        E 0 80 18 00
        E 0 90 1a 60
        E 0 90 26 60
        E 120 80 61 00
        E 0 80 64 00
        E 0 80 55 00
        E 0 80 58 00
        E 0 80 1a 00
        E 0 80 26 00
        E 120 90 61 60
        E 0 90 55 60
        E 0 90 49 60
        E 0 90 3d 60
        E 0 90 1b 60
        E 120 80 61 00
        E 0 80 55 00
        E 0 80 49 00
        E 0 80 3d 00
        E 0 90 61 60
        E 0 80 1b 00
        E 0 90 1a 60
        E 120 80 61 00
        E 0 90 61 60
        E 0 90 55 60
        E 0 80 1a 00
        E 0 90 1b 60
        E 120 80 61 00
        E 0 80 55 00
        E 0 90 61 60
        E 0 80 1b 00
        E 0 90 1a 60
        E 120 80 61 00
        E 0 90 61 60
        E 0 90 55 60
        E 0 90 49 60
        E 0 90 3d 60
        E 0 80 1a 00
        E 0 90 1b 60
        E 120 80 61 00
        E 0 80 55 00
        E 0 80 49 00
        E 0 80 3d 00
        E 0 90 61 60
        E 0 80 1b 00
        E 0 90 1a 60
        E 120 80 61 00
        E 0 90 61 60
        E 0 90 55 60
        E 0 80 1a 00
        E 0 90 1b 60
        E 120 80 61 00
        E 0 80 55 00
        E 0 90 61 60
        E 0 80 1b 00
        E 0 90 1a 60
        E 120 80 61 00
        E 0 90 60 60
        E 0 90 64 60
        E 0 90 54 60
        E 0 90 58 60
        E 0 90 48 60
        E 0 90 4c 60
        E 0 90 40 60
        E 0 80 1a 00
        E 0 90 18 60
        E 0 90 26 60
        E 120 80 60 00
        E 0 80 64 00
        E 0 80 54 00
        E 0 80 58 00
        E 0 80 48 00
        E 0 80 4c 00
        E 0 80 40 00
        E 0 90 61 60
        E 0 80 18 00
        E 0 80 26 00
        E 0 90 1a 60
        E 120 80 61 00
        E 0 90 61 60
        E 0 90 55 60
        E 0 80 1a 00
        E 0 90 1b 60
        E 120 80 61 00
        E 0 80 55 00
        E 0 90 61 60
        E 0 80 1b 00
        E 0 90 1a 60
        E 120 80 61 00
        E 0 90 61 60
        E 0 90 55 60
        E 0 90 49 60
        E 0 90 3d 60
        E 0 80 1a 00
        E 0 90 1b 60
        E 120 80 61 00
        E 0 80 55 00
        E 0 80 49 00
        E 0 80 3d 00
        E 0 90 60 60
        E 0 80 1b 00
        E 0 90 18 60
        E 120 80 60 00
        E 0 90 61 60
        E 0 90 64 60
        E 0 90 55 60
        E 0 90 58 60
        E 0 80 18 00
        E 0 90 1a 60
        E 0 90 26 60
        E 120 80 61 00
        E 0 80 64 00
        E 0 80 55 00
        E 0 80 58 00
        E 0 80 1a 00
        E 0 80 26 00
        E 120 90 61 60
        E 0 90 55 60
        E 0 90 49 60
        E 0 90 3d 60
        E 0 90 1b 60
        E 120 80 61 00
        E 0 80 55 00
        E 0 80 49 00
        E 0 80 3d 00
        E 0 90 61 60
        E 0 80 1b 00
        E 0 90 1a 60
        E 120 80 61 00
        E 0 90 61 60
        E 0 90 55 60
        E 0 80 1a 00
        E 0 90 1b 60
        E 120 80 61 00
        E 0 80 55 00
        E 0 90 61 60
        E 0 80 1b 00
        E 0 90 1a 60
        E 120 80 61 00
        E 0 90 61 60
        E 0 90 55 60
        E 0 90 49 60
        E 0 90 3d 60
        E 0 80 1a 00
        E 0 90 1b 60
        E 120 80 61 00
        E 0 80 55 00
        E 0 80 49 00
        E 0 80 3d 00
        E 0 90 61 60
        E 0 80 1b 00
        E 0 90 1a 60
        E 120 80 61 00
        E 0 90 61 60
        E 0 90 55 60
        E 0 80 1a 00
        E 0 90 1b 60
        E 120 80 61 00
        E 0 80 55 00
        E 0 90 61 60
        E 0 80 1b 00
        E 0 90 1a 60
        E 120 80 61 00
        E 0 90 62 60
        E 0 90 78 60
        E 0 90 79 60
        E 0 90 7a 60
        E 0 90 7b 60
        E 0 90 7c 60
        E 0 90 56 60
        E 0 90 4a 60
        E 0 90 6e 60
        E 0 90 3e 60
        E 0 80 1a 00
        E 0 90 2f 60
        E 120 80 62 00
        E 0 80 56 00
        E 0 80 4a 00
        E 0 80 3e 00
        E 0 90 62 60
        E 0 80 2f 00
        E 0 90 1e 60
        E 120 80 62 00
        E 0 90 61 60
        E 0 90 55 60
        E 0 80 1e 00
        E 0 90 1b 60
        E 120 80 61 00
        E 0 80 55 00
        E 0 90 61 60
        E 0 80 1b 00
        E 0 90 1a 60
        E 120 80 61 00
        E 0 90 62 60
        E 0 90 56 60
        E 0 90 4a 60
        E 0 90 3e 60
        E 0 80 1a 00
        E 0 90 1f 60
        E 120 80 62 00
        E 0 80 56 00
        E 0 80 4a 00
        E 0 80 3e 00
        E 0 90 61 60
        E 0 80 1f 00
        E 0 90 1a 60
        E 120 80 6e 00
        E 0 80 61 00
        E 0 90 61 60
        E 0 90 55 60
        E 0 80 1a 00
        E 0 90 1b 60
        E 120 80 61 00
        E 0 80 55 00
        E 0 90 61 60
        E 0 80 1b 00
        E 0 90 1a 60
        E 120 80 61 00
        E 0 90 63 60
        E 0 90 57 60
        E 0 90 4b 60
        E 0 90 6f 60
        E 0 90 3f 60
        E 0 80 1a 00
        E 0 90 31 60
        E 120 80 63 00
        E 0 80 57 00
        E 0 80 4b 00
        E 0 80 6f 00
        E 0 80 3f 00
        E 0 90 61 60
        E 0 80 31 00
        E 0 90 1a 60
        E 120 80 61 00
        E 0 90 61 60
        E 0 90 55 60
        E 0 80 1a 00
        E 0 90 1b 60
        E 120 80 61 00
        E 0 80 55 00
        E 0 90 61 60
        E 0 80 1b 00
        E 0 90 1a 60
        E 120 80 61 00
        E 0 90 64 60
        E 0 90 58 60
        E 0 90 4c 60
        E 0 90 70 60
        E 0 90 40 60
        E 0 80 1a 00
        E 0 90 33 60
        E 120 80 64 00
        E 0 80 58 00
        E 0 80 4c 00
        E 0 80 40 00
        E 0 90 64 60
        E 0 80 33 00
        E 0 90 2c 60
        E 120 80 64 00
        E 0 90 64 60
        E 0 90 58 60
        E 0 80 2c 00
        E 0 90 26 60
        E 120 80 64 00
        E 0 80 58 00
        E 0 90 64 60
        E 0 80 26 00
        E 0 90 2c 60
        E 120 80 78 00
        E 0 80 79 00
        E 0 80 7a 00
        E 0 80 7b 00
        E 0 80 7c 00
        E 0 80 70 00
        E 0 80 64 00
        E 0 90 60 60
        E 0 90 64 60
        E 0 90 54 60
        E 0 90 58 60
        E 0 90 48 60
        E 0 90 4c 60
        E 0 90 40 60
        E 0 80 2c 00
        E 0 90 18 60
        E 0 90 26 60
        E 120 80 60 00
        E 0 80 64 00
        E 0 80 54 00
        E 0 80 58 00
        E 0 80 48 00
        E 0 80 4c 00
        E 0 80 40 00
        E 0 80 18 00
        E 0 80 26 00
        E 360 90 61 60
        E 0 90 64 60
        E 0 90 55 60
        E 0 90 58 60
        E 0 90 49 60
        E 0 90 4c 60
        E 0 90 3d 60
        E 0 90 1a 60
        E 0 90 26 60
        E 120 80 61 00
        E 0 80 64 00
        E 0 80 55 00
        E 0 80 58 00
        E 0 80 49 00
        E 0 80 4c 00
        E 0 80 3d 00
        E 0 80 1a 00
        E 0 80 26 00
        E 360 90 61 60
        E 0 90 55 60
        E 0 90 49 60
        E 0 90 3d 60
        E 0 90 1b 60
        E 120 80 61 00
        E 0 80 55 00
        E 0 80 49 00
        E 0 80 3d 00
        E 0 90 61 60
        E 0 80 1b 00
        E 0 90 1a 60
        E 120 80 61 00
        E 0 90 62 60
        E 0 90 56 60
        E 0 90 6e 60
        E 0 80 1a 00
        E 0 90 2f 60
        E 120 80 62 00
        E 0 80 56 00
        E 0 90 62 60
        E 0 80 2f 00
        E 0 90 1f 60
        E 120 80 62 00
        E 0 90 63 60
        E 0 90 57 60
        E 0 90 4b 60
        E 0 90 6f 60
        E 0 90 3f 60
        E 0 80 1f 00
        E 0 90 31 60
        E 120 80 63 00
        E 0 80 57 00
        E 0 80 4b 00
        E 0 80 3f 00
        E 0 90 63 60
        E 0 80 31 00
        E 0 90 2a 60
        E 120 80 63 00
        E 0 90 60 60
        E 0 90 64 60
        E 0 90 54 60
        E 0 90 58 60
        E 0 80 2a 00
        E 0 90 18 60
        E 0 90 26 60
        E 120 80 60 00
        E 0 80 64 00
        E 0 80 54 00
        E 0 80 58 00
        E 0 80 18 00
        E 0 80 26 00
        E 360 90 61 60
        E 0 90 64 60
        E 0 90 55 60
        E 0 90 58 60
        E 0 90 49 60
        E 0 90 4c 60
        E 0 90 3d 60
        E 0 90 1a 60
        E 0 90 26 60
        E 120 80 61 00
        E 0 80 64 00
        E 0 80 55 00
        E 0 80 58 00
        E 0 80 49 00
        E 0 80 4c 00
        E 0 80 3d 00
        E 0 80 1a 00
        E 0 80 26 00
        E 360 90 61 60
        E 0 90 55 60
        E 0 90 1b 60
        E 120 80 61 00
        E 0 80 55 00
        E 0 90 61 60
        E 0 80 1b 00
        E 0 90 1a 60
        E 120 80 61 00
        E 0 90 62 60
        E 0 90 56 60
        E 0 90 4a 60
        E 0 90 3e 60
        E 0 80 1a 00
        E 0 90 1f 60
        E 120 80 62 00
        E 0 80 56 00
        E 0 80 4a 00
        E 0 80 3e 00
        E 0 90 62 60
        E 0 80 1f 00
        E 0 90 1e 60
        E 120 80 62 00
        E 0 90 63 60
        E 0 90 57 60
        E 0 80 1e 00
        E 0 90 2a 60
        E 120 80 63 00
        E 0 80 57 00
        E 0 90 63 60
        E 0 80 2a 00
        E 0 90 2b 60
        E 120 80 63 00
        E 0 90 60 60
        E 0 90 64 60
        E 0 90 54 60
        E 0 90 58 60
        E 0 90 48 60
        E 0 90 4c 60
        E 0 90 40 60
        E 0 80 2b 00
        E 0 90 18 60
        E 0 90 26 60
        E 120 80 60 00
        E 0 80 64 00
        E 0 80 54 00
        E 0 80 58 00
        E 0 80 48 00
        E 0 80 4c 00
        E 0 80 40 00
        E 0 80 18 00
        E 0 80 26 00
        E 360 90 61 60
        E 0 90 64 60
        E 0 90 55 60
        E 0 90 58 60
        E 0 90 49 60
        E 0 90 4c 60
        E 0 90 3d 60
        E 0 90 1a 60
        E 0 90 26 60
        E 120 80 61 00
        E 0 80 64 00
        E 0 80 55 00
        E 0 80 58 00
        E 0 80 49 00
        E 0 80 4c 00
        E 0 80 3d 00
        E 0 80 1a 00
        E 0 80 26 00
        E 360 90 61 60
        E 0 90 55 60
        E 0 90 49 60
        E 0 90 3d 60
        E 0 90 1b 60
        E 120 80 61 00
        E 0 80 55 00
        E 0 80 49 00
        E 0 80 3d 00
        E 0 90 61 60
        E 0 80 1b 00
        E 0 90 1a 60
        E 120 80 61 00
        E 0 90 62 60
        E 0 90 56 60
        E 0 80 1a 00
        E 0 90 1f 60
        E 120 80 62 00
        E 0 80 56 00
        E 0 90 62 60
        E 0 80 1f 00
        E 0 90 1e 60
        E 120 80 62 00
        E 0 90 63 60
        E 0 90 57 60
        E 0 90 4b 60
        E 0 90 3f 60
        E 0 80 1e 00
        E 0 90 2a 60
        E 120 80 63 00
        E 0 80 57 00
        E 0 80 4b 00
        E 0 80 3f 00
        E 0 90 63 60
        E 0 80 2a 00
        E 0 90 2b 60
        E 120 80 63 00
        E 0 90 60 60
        E 0 90 64 60
        E 0 90 54 60
        E 0 90 58 60
        E 0 80 2b 00
        E 0 90 18 60
        E 0 90 26 60
        E 120 80 60 00
        E 0 80 64 00
        E 0 80 54 00
        E 0 80 58 00
        E 0 80 18 00
        E 0 80 26 00
        E 360 90 61 60
        E 0 90 64 60
        E 0 90 55 60
        E 0 90 58 60
        E 0 90 49 60
        E 0 90 4c 60
        E 0 90 3d 60
        E 0 90 1a 60
        E 0 90 26 60
        E 120 80 61 00
        E 0 80 64 00
        E 0 80 55 00
        E 0 80 58 00
        E 0 80 49 00
        E 0 80 4c 00
        E 0 80 3d 00
        E 0 80 1a 00
        E 0 80 26 00
        E 360 90 61 60
        E 0 90 64 60
        E 0 90 55 60
        E 0 90 58 60
        E 0 90 49 60
        E 0 90 4c 60
        E 0 90 3d 60
        E 0 90 1a 60
        E 0 90 26 60
        E 120 80 61 00
        E 0 80 64 00
        E 0 80 55 00
        E 0 80 58 00
        E 0 80 49 00
        E 0 80 4c 00
        E 0 80 3d 00
        E 0 80 1a 00
        E 0 80 26 00
        E 360 90 61 60
        E 0 90 55 60
        E 0 90 49 60
        E 0 90 3d 60
        E 0 90 1b 60
        E 120 80 61 00
        E 0 80 55 00
        E 0 80 49 00
        E 0 80 3d 00
        E 0 90 61 60
        E 0 80 1b 00
        E 0 90 1a 60
        E 120 80 61 00
        E 0 80 1a 00
        E 120 90 60 60
        E 0 90 64 60
        E 0 90 54 60
        E 0 90 58 60
        E 0 90 18 60
        E 0 90 26 60
        E 120 80 60 00
        E 0 80 64 00
        E 0 80 54 00
        E 0 80 58 00
        E 0 80 18 00
        E 0 80 26 00
        E 240 90 61 60
        E 0 90 64 60
        E 0 90 55 60
        E 0 90 58 60
        E 0 90 49 60
        E 0 90 4c 60
        E 0 90 3d 60
        E 0 90 1a 60
        E 0 90 26 60
        E 120 80 61 00
        E 0 80 64 00
        E 0 80 55 00
        E 0 80 58 00
        E 0 80 49 00
        E 0 80 4c 00
        E 0 80 3d 00
        E 0 80 1a 00
        E 0 80 26 00
        E 360 90 61 60
        E 0 90 55 60
        E 0 90 49 60
        E 0 90 3d 60
        E 0 90 1b 60
        E 120 80 61 00
        E 0 80 55 00
        E 0 80 49 00
        E 0 80 3d 00
        E 0 90 61 60
        E 0 80 1b 00
        E 0 90 1a 60
        E 120 80 61 00
        E 0 90 62 60
        E 0 90 56 60
        E 0 80 1a 00
        E 0 90 1f 60
        E 120 80 62 00
        E 0 80 56 00
        E 0 90 62 60
        E 0 80 1f 00
        E 0 90 1e 60
        E 120 80 62 00
        E 0 90 63 60
        E 0 90 57 60
        E 0 90 4b 60
        E 0 90 3f 60
        E 0 80 1e 00
        E 0 90 2a 60
        E 120 80 63 00
        E 0 80 57 00
        E 0 80 4b 00
        E 0 80 3f 00
        E 0 90 63 60
        E 0 80 2a 00
        E 0 90 2b 60
        E 120 80 63 00
        E 0 90 60 60
        E 0 90 64 60
        E 0 90 54 60
        E 0 90 58 60
        E 0 80 2b 00
        E 0 90 18 60
        E 0 90 26 60
        E 120 80 60 00
        E 0 80 64 00
        E 0 80 54 00
        E 0 80 58 00
        E 0 80 18 00
        E 0 80 26 00
        E 360 90 61 60
        E 0 90 64 60
        E 0 90 55 60
        E 0 90 58 60
        E 0 90 49 60
        E 0 90 4c 60
        E 0 90 3d 60
        E 0 90 1a 60
        E 0 90 26 60
        E 120 80 61 00
        E 0 80 64 00
        E 0 80 55 00
        E 0 80 58 00
        E 0 80 49 00
        E 0 80 4c 00
        E 0 80 3d 00
        E 0 80 1a 00
        E 0 80 26 00
        E 360 90 61 60
        E 0 90 55 60
        E 0 90 1b 60
        E 120 80 61 00
        E 0 80 55 00
        E 0 90 61 60
        E 0 80 1b 00
        E 0 90 1a 60
        E 120 80 61 00
        E 0 90 62 60
        E 0 90 56 60
        E 0 90 4a 60
        E 0 90 3e 60
        E 0 80 1a 00
        E 0 90 1f 60
        E 120 80 62 00
        E 0 80 56 00
        E 0 80 4a 00
        E 0 80 3e 00
        E 0 90 62 60
        E 0 80 1f 00
        E 0 90 1e 60
        E 120 80 62 00
        E 0 90 63 60
        E 0 90 57 60
        E 0 80 1e 00
        E 0 90 2a 60
        E 120 80 63 00
        E 0 80 57 00
        E 0 90 63 60
        E 0 80 2a 00
        E 0 90 2b 60
        E 120 80 63 00
        E 0 90 60 60
        E 0 90 64 60
        E 0 90 54 60
        E 0 90 58 60
        E 0 90 48 60
        E 0 90 4c 60
        E 0 90 40 60
        E 0 80 2b 00
        E 0 90 18 60
        E 0 90 26 60
        E 120 80 60 00
        E 0 80 64 00
        E 0 80 54 00
        E 0 80 58 00
        E 0 80 48 00
        E 0 80 4c 00
        E 0 80 40 00
        E 0 80 18 00
        E 0 80 26 00
        E 360 90 61 60
        E 0 90 64 60
        E 0 90 74 60
        E 0 90 55 60
        E 0 90 58 60
        E 0 90 49 60
        E 0 90 4c 60
        E 0 90 3d 60
        E 0 90 1a 60
        E 0 90 26 60
        E 120 80 61 00
        E 0 80 64 00
        E 0 80 55 00
        E 0 80 58 00
        E 0 80 49 00
        E 0 80 4c 00
        E 0 80 3d 00
        E 0 80 1a 00
        E 0 80 26 00
        E 360 90 61 60
        E 0 90 55 60
        E 0 90 49 60
        E 0 90 3d 60
        E 0 90 1b 60
        E 120 80 61 00
        E 0 80 55 00
        E 0 80 49 00
        E 0 80 3d 00
        E 0 90 61 60
        E 0 80 1b 00
        E 0 90 1a 60
        E 120 80 61 00
        E 0 90 62 60
        E 0 90 56 60
        E 0 80 1a 00
        E 0 90 1f 60
        E 120 80 62 00
        E 0 80 56 00
        E 0 90 62 60
        E 0 80 1f 00
        E 0 90 1e 60
        E 120 80 6e 00
        E 0 80 62 00
        E 0 90 63 60
        E 0 90 57 60
        E 0 90 4b 60
        E 0 90 3f 60
        E 0 80 1e 00
        E 0 90 2a 60
        E 120 80 63 00
        E 0 80 57 00
        E 0 80 4b 00
        E 0 80 3f 00
        E 0 90 63 60
        E 0 80 2a 00
        E 0 90 2b 60
        E 120 80 6f 00
        E 0 80 63 00
        E 0 90 60 60
        E 0 90 64 60
        E 0 90 54 60
        E 0 90 58 60
        E 0 80 2b 00
        E 0 90 18 60
        E 0 90 26 60
        E 120 80 60 00
        E 0 80 64 00
        E 0 80 54 00
        E 0 80 58 00
        E 0 80 18 00
        E 0 80 26 00
        E 360 90 61 60
        E 0 90 64 60
        E 0 90 55 60
        E 0 90 58 60
        E 0 90 49 60
        E 0 90 4c 60
        E 0 90 3d 60
        E 0 90 1a 60
        E 0 90 26 60
        E 120 80 61 00
        E 0 80 64 00
        E 0 80 55 00
        E 0 80 58 00
        E 0 80 49 00
        E 0 80 4c 00
        E 0 80 3d 00
        E 0 80 1a 00
        E 0 80 26 00
        E 360 90 61 60
        E 0 90 64 60
        E 0 90 55 60
        E 0 90 58 60
        E 0 90 49 60
        E 0 90 4c 60
        E 0 90 3d 60
        E 0 90 1a 60
        E 0 90 26 60
        E 120 80 61 00
        E 0 80 64 00
        E 0 80 55 00
        E 0 80 58 00
        E 0 80 49 00
        E 0 80 4c 00
        E 0 80 3d 00
        E 0 80 1a 00
        E 0 80 26 00
        E 240 90 61 60
        E 0 90 1a 60
        E 120 80 61 00
        E 0 90 61 60
        E 0 90 55 60
        E 0 80 1a 00
        E 0 90 1b 60
        E 120 80 61 00
        E 0 80 55 00
        E 0 80 1b 00
        E 120 90 60 60
        E 0 90 64 60
        E 0 90 54 60
        E 0 90 58 60
        E 0 90 48 60
        E 0 90 4c 60
        E 0 90 40 60
        E 0 90 18 60
        E 0 90 26 60
        E 120 80 60 00
        E 0 80 64 00
        E 0 80 54 00
        E 0 80 58 00
        E 0 80 48 00
        E 0 80 4c 00
        E 0 80 40 00
        E 0 80 18 00
        E 0 80 26 00
        E 360 90 61 60
        E 0 90 62 60
        E 0 90 55 60
        E 0 90 56 60
        E 0 90 49 60
        E 0 90 4a 60
        E 0 90 3d 60
        E 0 90 1a 60
        E 0 90 1f 60
        E 120 80 61 00
        E 0 80 62 00
        E 0 80 55 00
        E 0 80 56 00
        E 0 80 49 00
        E 0 80 4a 00
        E 0 80 3d 00
        E 0 80 1a 00
        E 0 80 1f 00
        E 360 80 74 00
        E 0 90 60 60
        E 0 90 62 60
        E 0 90 54 60
        E 0 90 56 60
        E 0 90 48 60
        E 0 90 4a 60
        E 0 90 3e 60
        E 0 90 18 60
        E 0 90 1f 60
        E 120 80 60 00
        E 0 80 62 00
        E 0 80 54 00
        E 0 80 56 00
        E 0 80 48 00
        E 0 80 4a 00
        E 0 80 3e 00
        E 0 90 61 60
        E 0 80 18 00
        E 0 80 1f 00
        E 0 90 1a 60
        E 120 80 61 00
        E 0 90 61 60
        E 0 90 55 60
        E 0 80 1a 00
        E 0 90 1b 60
        E 120 80 61 00
        E 0 80 55 00
        E 0 90 61 60
        E 0 80 1b 00
        E 0 90 1a 60
        E 120 80 61 00
        E 0 90 61 60
        E 0 90 55 60
        E 0 90 49 60
        E 0 90 3d 60
        E 0 80 1a 00
        E 0 90 1b 60
        E 120 80 61 00
        E 0 80 55 00
        E 0 80 49 00
        E 0 80 3d 00
        E 0 90 61 60
        E 0 80 1b 00
        E 0 90 1a 60
        E 120 80 61 00
        E 0 90 60 60
        E 0 90 62 60
        E 0 90 54 60
        E 0 90 56 60
        E 0 80 1a 00
        E 0 90 18 60
        E 0 90 1f 60
        E 120 80 60 00
        E 0 80 62 00
        E 0 80 54 00
        E 0 80 56 00
        E 0 80 18 00
        E 0 80 1f 00
        E 360 90 61 60
        E 0 90 62 60
        E 0 90 55 60
        E 0 90 56 60
        E 0 90 49 60
        E 0 90 4a 60
        E 0 90 3d 60
        E 0 90 1a 60
        E 0 90 1f 60
        E 120 80 61 00
        E 0 80 62 00
        E 0 80 55 00
        E 0 80 56 00
        E 0 80 49 00
        E 0 80 4a 00
        E 0 80 3d 00
        E 0 80 1a 00
        E 0 80 1f 00
        E 360 90 60 60
        E 0 90 62 60
        E 0 90 54 60
        E 0 90 56 60
        E 0 90 18 60
        E 0 90 1f 60
        E 120 80 60 00
        E 0 80 62 00
        E 0 80 54 00
        E 0 80 56 00
        E 0 90 61 60
        E 0 80 18 00
        E 0 80 1f 00
        E 0 90 1a 60
        E 120 80 61 00
        E 0 90 61 60
        E 0 90 78 60
        E 0 90 79 60
        E 0 90 7a 60
        E 0 90 7b 60
        E 0 90 7c 60
        E 0 90 55 60
        E 0 90 49 60
        E 0 90 3d 60
        E 0 80 1a 00
        E 0 90 1b 60
        E 120 80 61 00
        E 0 80 55 00
        E 0 80 49 00
        E 0 80 3d 00
        E 0 90 61 60
        E 0 80 1b 00
        E 0 90 1a 60
        E 120 80 61 00
        E 0 90 61 60
        E 0 90 55 60
        E 0 80 1a 00
        E 0 90 1b 60
        E 120 80 61 00
        E 0 80 55 00
        E 0 90 61 60
        E 0 80 1b 00
        E 0 90 1a 60
        E 120 80 61 00
        E 0 90 60 60
        E 0 90 62 60
        E 0 90 54 60
        E 0 90 56 60
        E 0 90 48 60
        E 0 90 4a 60
        E 0 90 3e 60
        E 0 80 1a 00
        E 0 90 18 60
        E 0 90 1f 60
        E 120 80 60 00
        E 0 80 62 00
        E 0 80 54 00
        E 0 80 56 00
        E 0 80 48 00
        E 0 80 4a 00
        E 0 80 3e 00
        E 0 80 18 00
        E 0 80 1f 00
        E 360 90 61 60
        E 0 90 62 60
        E 0 90 55 60
        E 0 90 56 60
        E 0 90 49 60
        E 0 90 4a 60
        E 0 90 3d 60
        E 0 90 1a 60
        E 0 90 1f 60
        E 120 80 61 00
        E 0 80 62 00
        E 0 80 55 00
        E 0 80 56 00
        E 0 80 49 00
        E 0 80 4a 00
        E 0 80 3d 00
        E 0 80 1a 00
        E 0 80 1f 00
        E 360 90 60 60
        E 0 90 62 60
        E 0 90 54 60
        E 0 90 56 60
        E 0 90 48 60
        E 0 90 4a 60
        E 0 90 3e 60
        E 0 90 18 60
        E 0 90 1f 60
        E 120 80 60 00
        E 0 80 62 00
        E 0 80 54 00
        E 0 80 56 00
        E 0 80 48 00
        E 0 80 4a 00
        E 0 80 3e 00
        E 0 90 61 60
        E 0 80 18 00
        E 0 80 1f 00
        E 0 90 1a 60
        E 120 80 61 00
        E 0 90 61 60
        E 0 90 55 60
        E 0 80 1a 00
        E 0 90 1b 60
        E 120 80 61 00
        E 0 80 55 00
        E 0 90 61 60
        E 0 80 1b 00
        E 0 90 1a 60
        E 120 80 78 00
        E 0 80 79 00
        E 0 80 7a 00
        E 0 80 7b 00
        E 0 80 7c 00
        E 0 80 61 00
        E 0 90 61 60
        E 0 90 55 60
        E 0 90 49 60
        E 0 90 3d 60
        E 0 80 1a 00
        E 0 90 1b 60
        E 120 80 61 00
        E 0 80 55 00
        E 0 80 49 00
        E 0 80 3d 00
        E 0 90 61 60
        E 0 80 1b 00
        E 0 90 1a 60
        E 120 80 61 00
        E 0 90 60 60
        E 0 90 64 60
        E 0 90 54 60
        E 0 90 58 60
        E 0 80 1a 00
        E 0 90 18 60
        E 0 90 26 60
        E 120 80 60 00
        E 0 80 64 00
        E 0 80 54 00
        E 0 80 58 00
        E 0 90 61 60
        E 0 80 18 00
        E 0 80 26 00
        E 0 90 1a 60
        E 120 80 61 00
        E 0 90 61 60
        E 0 90 55 60
        E 0 90 49 60
        E 0 90 3d 60
        E 0 80 1a 00
        E 0 90 1b 60
        E 120 80 61 00
        E 0 80 55 00
        E 0 80 49 00
        E 0 80 3d 00
        E 0 90 61 60
        E 0 80 1b 00
        E 0 90 1a 60
        E 120 80 61 00
        E 0 90 60 60
        E 0 90 64 60
        E 0 90 54 60
        E 0 90 58 60
        E 0 80 1a 00
        E 0 90 18 60
        E 0 90 26 60
        E 120 80 60 00
        E 0 80 64 00
        E 0 80 54 00
        E 0 80 58 00
        E 0 90 61 60
        E 0 80 18 00
        E 0 80 26 00
        E 0 90 1a 60
        E 120 80 61 00
        E 0 90 61 60
        E 0 90 55 60
        E 0 90 49 60
        E 0 90 3d 60
        E 0 80 1a 00
        E 0 90 1b 60
        E 120 80 61 00
        E 0 80 55 00
        E 0 80 49 00
        E 0 80 3d 00
        E 0 90 61 60
        E 0 80 1b 00
        E 0 90 1a 60
        E 120 80 61 00
        E 0 90 60 60
        E 0 90 64 60
        E 0 90 54 60
        E 0 90 58 60
        E 0 80 1a 00
        E 0 90 18 60
        E 0 90 26 60
        E 120 80 60 00
        E 0 80 64 00
        E 0 80 54 00
        E 0 80 58 00
        E 0 90 61 60
        E 0 80 18 00
        E 0 80 26 00
        E 0 90 1a 60
        E 120 80 61 00
        E 0 90 61 60
        E 0 90 55 60
        E 0 90 49 60
        E 0 90 3d 60
        E 0 80 1a 00
        E 0 90 1b 60
        E 120 80 61 00
        E 0 80 55 00
        E 0 80 49 00
        E 0 80 3d 00
        E 0 90 61 60
        E 0 80 1b 00
        E 0 90 1a 60
        E 120 80 61 00
        E 0 90 61 60
        E 0 90 55 60
        E 0 80 1a 00
        E 0 90 1b 60
        E 120 80 61 00
        E 0 80 55 00
        E 0 90 61 60
        E 0 80 1b 00
        E 0 90 1a 60
        E 120 80 61 00
        E 0 90 60 60
        E 0 90 64 60
        E 0 90 54 60
        E 0 90 58 60
        E 0 90 48 60
        E 0 90 4c 60
        E 0 90 40 60
        E 0 80 1a 00
        E 0 90 18 60
        E 0 90 26 60
        E 120 80 60 00
        E 0 80 64 00
        E 0 80 54 00
        E 0 80 58 00
        E 0 80 48 00
        E 0 80 4c 00
        E 0 80 40 00
        E 0 80 18 00
        E 0 80 26 00
        E 360 90 61 60
        E 0 90 64 60
        E 0 90 55 60
        E 0 90 58 60
        E 0 90 49 60
        E 0 90 4c 60
        E 0 90 3d 60
        E 0 90 1a 60
        E 0 90 26 60
        E 120 80 61 00
        E 0 80 64 00
        E 0 80 55 00
        E 0 80 58 00
        E 0 80 49 00
        E 0 80 4c 00
        E 0 80 3d 00
        E 0 80 1a 00
        E 0 80 26 00
        E 360 90 60 60
        E 0 90 64 60
        E 0 90 54 60
        E 0 90 58 60
        E 0 90 48 60
        E 0 90 4c 60
        E 0 90 40 60
        E 0 90 18 60
        E 0 90 26 60
        E 120 80 60 00
        E 0 80 64 00
        E 0 80 54 00
        E 0 80 58 00
        E 0 80 48 00
        E 0 80 4c 00
        E 0 80 40 00
        E 0 90 61 60
        E 0 80 18 00
        E 0 80 26 00
        E 0 90 1a 60
        E 120 80 61 00
        E 0 90 61 60
        E 0 90 55 60
        E 0 80 1a 00
        E 0 90 1b 60
        E 120 80 61 00
        E 0 80 55 00
        E 0 90 61 60
        E 0 80 1b 00
        E 0 90 1a 60
        E 120 80 61 00
        E 0 90 61 60
        E 0 90 55 60
        E 0 90 49 60
        E 0 90 3d 60
        E 0 80 1a 00
        E 0 90 1b 60
        E 120 80 61 00
        E 0 80 55 00
        E 0 80 49 00
        E 0 80 3d 00
        E 0 90 61 60
        E 0 80 1b 00
        E 0 90 1a 60
        E 120 80 61 00
        E 0 90 60 60
        E 0 90 64 60
        E 0 90 54 60
        E 0 90 58 60
        E 0 80 1a 00
        E 0 90 18 60
        E 0 90 26 60
        E 120 80 60 00
        E 0 80 64 00
        E 0 80 54 00
        E 0 80 58 00
        E 0 80 18 00
        E 0 80 26 00
        E 360 90 61 60
        E 0 90 64 60
        E 0 90 55 60
        E 0 90 58 60
        E 0 90 49 60
        E 0 90 4c 60
        E 0 90 3d 60
        E 0 90 1a 60
        E 0 90 26 60
        E 120 80 61 00
        E 0 80 64 00
        E 0 80 55 00
        E 0 80 58 00
        E 0 80 49 00
        E 0 80 4c 00
        E 0 80 3d 00
        E 0 80 1a 00
        E 0 80 26 00
        E 360 90 61 60
        E 0 90 55 60
        E 0 90 1b 60
        E 120 80 61 00
        E 0 80 55 00
        E 0 90 61 60
        E 0 80 1b 00
        E 0 90 1a 60
        E 120 80 61 00
        E 0 90 61 60
        E 0 90 55 60
        E 0 90 49 60
        E 0 90 3d 60
        E 0 80 1a 00
        E 0 90 1b 60
        E 120 80 61 00
        E 0 80 55 00
        E 0 80 49 00
        E 0 80 3d 00
        E 0 90 61 60
        E 0 80 1b 00
        E 0 90 1a 60
        E 120 80 61 00
        E 0 90 61 60
        E 0 90 55 60
        E 0 80 1a 00
        E 0 90 1b 60
        E 120 80 61 00
        E 0 80 55 00
        E 0 90 61 60
        E 0 80 1b 00
        E 0 90 1a 60
        E 120 80 61 00
        E 0 90 60 60
        E 0 90 64 60
        E 0 90 54 60
        E 0 90 58 60
        E 0 90 48 60
        E 0 90 4c 60
        E 0 90 40 60
        E 0 80 1a 00
        E 0 90 18 60
        E 0 90 26 60
        E 120 80 60 00
        E 0 80 64 00
        E 0 80 54 00
        E 0 80 58 00
        E 0 80 48 00
        E 0 80 4c 00
        E 0 80 40 00
        E 0 80 18 00
        E 0 80 26 00
        E 360 90 61 60
        E 0 90 64 60
        E 0 90 55 60
        E 0 90 58 60
        E 0 90 49 60
        E 0 90 4c 60
        E 0 90 3d 60
        E 0 90 1a 60
        E 0 90 26 60
        E 120 80 61 00
        E 0 80 64 00
        E 0 80 55 00
        E 0 80 58 00
        E 0 80 49 00
        E 0 80 4c 00
        E 0 80 3d 00
        E 0 80 1a 00
        E 0 80 26 00
        E 360 90 61 60
        E 0 90 55 60
        E 0 90 49 60
        E 0 90 3d 60
        E 0 90 1b 60
        E 120 80 61 00
        E 0 80 55 00
        E 0 80 49 00
        E 0 80 3d 00
        E 0 90 61 60
        E 0 80 1b 00
        E 0 90 1a 60
        E 120 80 61 00
        E 0 90 61 60
        E 0 90 55 60
        E 0 80 1a 00
        E 0 90 1b 60
        E 120 80 61 00
        E 0 80 55 00
        E 0 90 61 60
        E 0 80 1b 00
        E 0 90 1a 60
        E 120 80 61 00
        E 0 90 61 60
        E 0 90 55 60
        E 0 90 49 60
        E 0 90 3d 60
        E 0 80 1a 00
        E 0 90 1b 60
        E 120 80 61 00
        E 0 80 55 00
        E 0 80 49 00
        E 0 80 3d 00
        E 0 90 61 60
        E 0 80 1b 00
        E 0 90 1a 60
        E 120 80 61 00
        E 0 90 60 60
        E 0 90 64 60
        E 0 90 54 60
        E 0 90 58 60
        E 0 80 1a 00
        E 0 90 18 60
        E 0 90 26 60
        E 120 80 60 00
        E 0 80 64 00
        E 0 80 54 00
        E 0 80 58 00
        E 0 90 61 60
        E 0 80 18 00
        E 0 80 26 00
        E 0 90 1a 60
        E 120 80 61 00
        E 0 90 61 60
        E 0 90 55 60
        E 0 90 49 60
        E 0 90 3d 60
        E 0 80 1a 00
        E 0 90 1b 60
        E 120 80 61 00
        E 0 80 55 00
        E 0 80 49 00
        E 0 80 3d 00
        E 0 90 61 60
        E 0 80 1b 00
        E 0 90 1a 60
        E 120 80 61 00
        E 0 90 60 60
        E 0 90 64 60
        E 0 90 54 60
        E 0 90 58 60
        E 0 80 1a 00
        E 0 90 18 60
        E 0 90 26 60
        E 120 80 60 00
        E 0 80 64 00
        E 0 80 54 00
        E 0 80 58 00
        E 0 90 61 60
        E 0 80 18 00
        E 0 80 26 00
        E 0 90 1a 60
        E 120 80 61 00
        E 0 90 61 60
        E 0 90 55 60
        E 0 90 49 60
        E 0 90 3d 60
        E 0 80 1a 00
        E 0 90 1b 60
        E 120 80 61 00
        E 0 80 55 00
        E 0 80 49 00
        E 0 80 3d 00
        E 0 90 61 60
        E 0 80 1b 00
        E 0 90 1a 60
        E 120 80 61 00
        E 0 90 60 60
        E 0 90 64 60
        E 0 90 54 60
        E 0 90 58 60
        E 0 80 1a 00
        E 0 90 18 60
        E 0 90 26 60
        E 120 80 60 00
        E 0 80 64 00
        E 0 80 54 00
        E 0 80 58 00
        E 0 90 61 60
        E 0 80 18 00
        E 0 80 26 00
        E 0 90 1a 60
        E 120 80 61 00
        E 0 90 61 60
        E 0 90 55 60
        E 0 90 49 60
        E 0 90 3d 60
        E 0 80 1a 00
        E 0 90 1b 60
        E 120 80 61 00
        E 0 80 55 00
        E 0 80 49 00
        E 0 80 3d 00
        E 0 90 61 60
        E 0 80 1b 00
        E 0 90 1a 60
        E 120 80 61 00
        E 0 90 61 60
        E 0 90 55 60
        E 0 80 1a 00
        E 0 90 1b 60
        E 120 80 61 00
        E 0 80 55 00
        E 0 90 61 60
        E 0 80 1b 00
        E 0 90 1a 60
        E 120 80 61 00
        E 0 90 60 60
        E 0 90 64 60
        E 0 90 54 60
        E 0 90 58 60
        E 0 90 48 60
        E 0 90 4c 60
        E 0 90 40 60
        E 0 80 1a 00
        E 0 90 18 60
        E 0 90 26 60
        E 120 80 60 00
        E 0 80 64 00
        E 0 80 54 00
        E 0 80 58 00
        E 0 80 48 00
        E 0 80 4c 00
        E 0 80 40 00
        E 0 80 18 00
        E 0 80 26 00
        E 120 90 61 60
        E 0 90 55 60
        E 0 90 1b 60
        E 120 80 61 00
        E 0 80 55 00
        E 0 90 60 60
        E 0 90 64 60
        E 0 80 1b 00
        E 0 90 18 60
        E 0 90 2c 60
        E 120 80 60 00
        E 0 80 64 00
        E 0 80 18 00
        E 0 80 2c 00
        E 120 90 60 60
        E 0 90 18 60
        E 120 80 60 00
        E 0 90 61 60
        E 0 90 64 60
        E 0 90 55 60
        E 0 90 58 60
        E 0 80 18 00
        E 0 90 1a 60
        E 0 90 26 60
        E 120 80 61 00
        E 0 80 64 00
        E 0 80 55 00
        E 0 80 58 00
        E 0 80 1a 00
        E 0 80 26 00
        E 120 90 60 60
        E 0 90 63 60
        E 0 90 54 60
        E 0 90 57 60
        E 0 90 48 60
        E 0 90 4b 60
        E 0 90 3f 60
        E 0 90 18 60
        E 0 90 2a 60
        E 120 80 60 00
        E 0 80 63 00
        E 0 80 54 00
        E 0 80 57 00
        E 0 80 48 00
        E 0 80 4b 00
        E 0 80 3f 00
        E 0 80 18 00
        E 0 80 2a 00
        E 120 90 61 60
        E 0 90 55 60
        E 0 90 1b 60
        E 120 80 61 00
        E 0 80 55 00
        E 0 90 60 60
        E 0 90 63 60
        E 0 80 1b 00
        E 0 90 18 60
        E 0 90 2b 60
        E 120 80 60 00
        E 0 80 63 00
        E 0 80 18 00
        E 0 80 2b 00
        E 120 90 60 60
        E 0 90 18 60
        E 120 80 60 00
        E 0 90 61 60
        E 0 90 63 60
        E 0 90 55 60
        E 0 90 57 60
        E 0 80 18 00
        E 0 90 1a 60
        E 0 90 2a 60
        E 120 80 61 00
        E 0 80 63 00
        E 0 80 55 00
        E 0 80 57 00
        E 0 80 1a 00
        E 0 80 2a 00
        E 120 90 60 60
        E 0 90 63 60
        E 0 90 74 60
        E 0 90 54 60
        E 0 90 57 60
        E 0 90 48 60
        E 0 90 4b 60
        E 0 90 3f 60
        E 0 90 18 60
        E 0 90 2a 60
        E 120 80 60 00
        E 0 80 63 00
        E 0 80 54 00
        E 0 80 57 00
        E 0 80 48 00
        E 0 80 4b 00
        E 0 80 3f 00
        E 0 80 18 00
        E 0 80 2a 00
        E 120 90 61 60
        E 0 90 55 60
        E 0 90 1b 60
        E 120 80 61 00
        E 0 80 55 00
        E 0 90 60 60
        E 0 90 63 60
        E 0 80 1b 00
        E 0 90 18 60
        E 0 90 2b 60
        E 120 80 60 00
        E 0 80 63 00
        E 0 80 18 00
        E 0 80 2b 00
        E 120 90 60 60
        E 0 90 18 60
        E 120 80 60 00
        E 0 90 61 60
        E 0 90 63 60
        E 0 90 55 60
        E 0 90 57 60
        E 0 80 18 00
        E 0 90 1a 60
        E 0 90 2a 60
        E 120 80 61 00
        E 0 80 63 00
        E 0 80 55 00
        E 0 80 57 00
        E 0 80 1a 00
        E 0 80 2a 00
        E 120 90 63 60
        E 0 90 57 60
        E 0 90 4b 60
        E 0 90 3f 60
        E 0 90 2a 60
        E 120 80 63 00
        E 0 80 57 00
        E 0 80 4b 00
        E 0 80 3f 00
        E 0 90 60 60
        E 0 80 2a 00
        E 0 90 18 60
        E 120 80 60 00
        E 0 90 61 60
        E 0 90 63 60
        E 0 90 55 60
        E 0 90 57 60
        E 0 80 18 00
        E 0 90 1a 60
        E 0 90 2a 60
        E 120 80 61 00
        E 0 80 63 00
        E 0 80 55 00
        E 0 80 57 00
        E 0 80 1a 00
        E 0 80 2a 00
        E 120 90 60 60
        E 0 90 63 60
        E 0 90 54 60
        E 0 90 57 60
        E 0 90 48 60
        E 0 90 4b 60
        E 0 90 3f 60
        E 0 90 18 60
        E 0 90 2a 60
        E 120 80 60 00
        E 0 80 63 00
        E 0 80 54 00
        E 0 80 57 00
        E 0 80 48 00
        E 0 80 4b 00
        E 0 80 3f 00
        E 0 80 18 00
        E 0 80 2a 00
        E 120 90 61 60
        E 0 90 63 60
        E 0 90 55 60
        E 0 90 57 60
        E 0 90 1a 60
        E 0 90 2a 60
        E 120 80 61 00
        E 0 80 63 00
        E 0 80 55 00
        E 0 80 57 00
        E 0 80 1a 00
        E 0 80 2a 00
        E 120 90 60 60
        E 0 90 63 60
        E 0 90 54 60
        E 0 90 57 60
        E 0 90 48 60
        E 0 90 4b 60
        E 0 90 3f 60
        E 0 90 18 60
        E 0 90 2a 60
        E 120 80 60 00
        E 0 80 63 00
        E 0 80 54 00
        E 0 80 57 00
        E 0 80 48 00
        E 0 80 4b 00
        E 0 80 3f 00
        E 0 80 18 00
        E 0 80 2a 00
        E 120 90 61 60
        E 0 90 55 60
        E 0 90 1b 60
        E 120 80 61 00
        E 0 80 55 00
        E 0 90 60 60
        E 0 90 63 60
        E 0 80 1b 00
        E 0 90 18 60
        E 0 90 2b 60
        E 120 80 60 00
        E 0 80 63 00
        E 0 80 18 00
        E 0 80 2b 00
        E 120 90 60 60
        E 0 90 18 60
        E 120 80 60 00
        E 0 90 61 60
        E 0 90 63 60
        E 0 90 55 60
        E 0 90 57 60
        E 0 80 18 00
        E 0 90 1a 60
        E 0 90 2a 60
        E 120 80 61 00
        E 0 80 63 00
        E 0 80 55 00
        E 0 80 57 00
        E 0 80 1a 00
        E 0 80 2a 00
        E 120 90 60 60
        E 0 90 63 60
        E 0 90 54 60
        E 0 90 57 60
        E 0 90 48 60
        E 0 90 4b 60
        E 0 90 3f 60
        E 0 90 18 60
        E 0 90 2a 60
        E 120 80 60 00
        E 0 80 63 00
        E 0 80 54 00
        E 0 80 57 00
        E 0 80 48 00
        E 0 80 4b 00
        E 0 80 3f 00
        E 0 80 18 00
        E 0 80 2a 00
        E 120 90 61 60
        E 0 90 55 60
        E 0 90 1b 60
        E 120 80 61 00
        E 0 80 55 00
        E 0 90 60 60
        E 0 90 63 60
        E 0 80 1b 00
        E 0 90 18 60
        E 0 90 2b 60
        E 120 80 60 00
        E 0 80 63 00
        E 0 80 18 00
        E 0 80 2b 00
        E 120 90 60 60
        E 0 90 18 60
        E 120 80 60 00
        E 0 90 61 60
        E 0 90 63 60
        E 0 90 55 60
        E 0 90 57 60
        E 0 80 18 00
        E 0 90 1a 60
        E 0 90 2a 60
        E 120 80 61 00
        E 0 80 63 00
        E 0 80 55 00
        E 0 80 57 00
        E 0 80 1a 00
        E 0 80 2a 00
        E 120 80 74 00
        E 0 90 60 60
        E 0 90 63 60
        E 0 90 54 60
        E 0 90 57 60
        E 0 90 48 60
        E 0 90 4b 60
        E 0 90 3f 60
        E 0 90 18 60
        E 0 90 2a 60
        E 120 80 60 00
        E 0 80 63 00
        E 0 80 54 00
        E 0 80 57 00
        E 0 80 48 00
        E 0 80 4b 00
        E 0 80 3f 00
        E 0 80 18 00
        E 0 80 2a 00
        E 120 90 61 60
        E 0 90 55 60
        E 0 90 1b 60
        E 120 80 61 00
        E 0 80 55 00
        E 0 90 60 60
        E 0 90 63 60
        E 0 80 1b 00
        E 0 90 18 60
        E 0 90 2b 60
        E 120 80 60 00
        E 0 80 63 00
        E 0 80 18 00
        E 0 80 2b 00
        E 120 90 60 60
        E 0 90 18 60
        E 120 80 60 00
        E 0 90 61 60
        E 0 90 63 60
        E 0 90 55 60
        E 0 90 57 60
        E 0 80 18 00
        E 0 90 1a 60
        E 0 90 2a 60
        E 120 80 61 00
        E 0 80 63 00
        E 0 80 55 00
        E 0 80 57 00
        E 0 80 1a 00
        E 0 80 2a 00
        E 120 90 63 60
        E 0 90 57 60
        E 0 90 4b 60
        E 0 90 3f 60
        E 0 90 2a 60
        E 120 80 63 00
        E 0 80 57 00
        E 0 80 4b 00
        E 0 80 3f 00
        E 0 90 60 60
        E 0 80 2a 00
        E 0 90 18 60
        E 120 80 60 00
        E 0 90 61 60
        E 0 90 63 60
        E 0 90 55 60
        E 0 90 57 60
        E 0 80 18 00
        E 0 90 1a 60
        E 0 90 2a 60
        E 120 80 61 00
        E 0 80 63 00
        E 0 80 55 00
        E 0 80 57 00
        E 0 80 1a 00
        E 0 80 2a 00
        E 120 90 61 60
        E 0 90 55 60
        E 0 90 49 60
        E 0 90 3d 60
        E 0 90 1b 60
        E 120 80 61 00
        E 0 80 55 00
        E 0 80 49 00
        E 0 80 3d 00
        E 0 90 61 60
        E 0 80 1b 00
        E 0 90 1a 60
        E 120 80 61 00
        E 0 90 61 60
        E 0 90 55 60
        E 0 80 1a 00
        E 0 90 1b 60
        E 120 80 61 00
        E 0 80 55 00
        E 0 90 61 60
        E 0 80 1b 00
        E 0 90 1a 60
        E 120 80 61 00
        E 0 90 60 60
        E 0 90 64 60
        E 0 90 78 60
        E 0 90 79 60
        E 0 90 7a 60
        E 0 90 7b 60
        E 0 90 7c 60
        E 0 90 54 60
        E 0 90 58 60
        E 0 90 48 60
        E 0 90 4c 60
        E 0 90 40 60
        E 0 80 1a 00
        E 0 90 18 60
        E 0 90 26 60
        E 120 80 60 00
        E 0 80 64 00
        E 0 80 54 00
        E 0 80 58 00
        E 0 80 48 00
        E 0 80 4c 00
        E 0 80 40 00
        E 0 90 61 60
        E 0 80 18 00
        E 0 80 26 00
        E 0 90 1a 60
        E 120 80 61 00
        E 0 90 61 60
        E 0 90 55 60
        E 0 80 1a 00
        E 0 90 1b 60
        E 120 80 61 00
        E 0 80 55 00
        E 0 90 61 60
        E 0 80 1b 00
        E 0 90 1a 60
        E 120 80 61 00
        E 0 90 61 60
        E 0 90 55 60
        E 0 90 49 60
        E 0 90 3d 60
        E 0 80 1a 00
        E 0 90 1b 60
        E 120 80 61 00
        E 0 80 55 00
        E 0 80 49 00
        E 0 80 3d 00
        E 0 90 60 60
        E 0 80 1b 00
        E 0 90 18 60
        E 120 80 60 00
        E 0 90 61 60
        E 0 90 64 60
        E 0 90 55 60
        E 0 90 58 60
        E 0 80 18 00
        E 0 90 1a 60
        E 0 90 26 60
        E 120 80 61 00
        E 0 80 64 00
        E 0 80 55 00
        E 0 80 58 00
        E 0 80 1a 00
        E 0 80 26 00
        E 120 90 61 60
        E 0 90 55 60
        E 0 90 49 60
        E 0 90 3d 60
        E 0 90 1b 60
        E 120 80 61 00
        E 0 80 55 00
        E 0 80 49 00
        E 0 80 3d 00
        E 0 90 61 60
        E 0 80 1b 00
        E 0 90 1a 60
        E 120 80 61 00
        E 0 90 61 60
        E 0 90 55 60
        E 0 80 1a 00
        E 0 90 1b 60
        E 120 80 61 00
        E 0 80 55 00
        E 0 90 61 60
        E 0 80 1b 00
        E 0 90 1a 60
        E 120 80 61 00
        E 0 90 61 60
        E 0 90 55 60
        E 0 90 49 60
        E 0 90 3d 60
        E 0 80 1a 00
        E 0 90 1b 60
        E 120 80 61 00
        E 0 80 55 00
        E 0 80 49 00
        E 0 80 3d 00
        E 0 90 61 60
        E 0 80 1b 00
        E 0 90 1a 60
        E 120 80 61 00
        E 0 90 61 60
        E 0 90 55 60
        E 0 80 1a 00
        E 0 90 1b 60
        E 120 80 61 00
        E 0 80 55 00
        E 0 90 61 60
        E 0 80 1b 00
        E 0 90 1a 60
        E 120 80 78 00
        E 0 80 79 00
        E 0 80 7a 00
        E 0 80 7b 00
        E 0 80 7c 00
        E 0 80 61 00
        E 0 90 60 60
        E 0 90 64 60
        E 0 90 54 60
        E 0 90 58 60
        E 0 90 48 60
        E 0 90 4c 60
        E 0 90 40 60
        E 0 80 1a 00
        E 0 90 18 60
        E 0 90 26 60
        E 120 80 60 00
        E 0 80 64 00
        E 0 80 54 00
        E 0 80 58 00
        E 0 80 48 00
        E 0 80 4c 00
        E 0 80 40 00
        E 0 90 61 60
        E 0 80 18 00
        E 0 80 26 00
        E 0 90 1a 60
        E 120 80 61 00
        E 0 90 61 60
        E 0 90 55 60
        E 0 80 1a 00
        E 0 90 1b 60
        E 120 80 61 00
        E 0 80 55 00
        E 0 90 61 60
        E 0 80 1b 00
        E 0 90 1a 60
        E 120 80 61 00
        E 0 90 61 60
        E 0 90 55 60
        E 0 90 49 60
        E 0 90 3d 60
        E 0 80 1a 00
        E 0 90 1b 60
        E 120 80 61 00
        E 0 80 55 00
        E 0 80 49 00
        E 0 80 3d 00
        E 0 90 60 60
        E 0 80 1b 00
        E 0 90 18 60
        E 120 80 60 00
        E 0 90 61 60
        E 0 90 64 60
        E 0 90 55 60
        E 0 90 58 60
        E 0 80 18 00
        E 0 90 1a 60
        E 0 90 26 60
        E 120 80 61 00
        E 0 80 64 00
        E 0 80 55 00
        E 0 80 58 00
        E 0 80 1a 00
        E 0 80 26 00
        E 120 90 61 60
        E 0 90 55 60
        E 0 90 49 60
        E 0 90 3d 60
        E 0 90 1b 60
        E 120 80 61 00
        E 0 80 55 00
        E 0 80 49 00
        E 0 80 3d 00
        E 0 90 61 60
        E 0 80 1b 00
        E 0 90 1a 60
        E 120 80 61 00
        E 0 90 61 60
        E 0 90 55 60
        E 0 80 1a 00
        E 0 90 1b 60
        E 120 80 61 00
        E 0 80 55 00
        E 0 90 61 60
        E 0 80 1b 00
        E 0 90 1a 60
        E 120 80 61 00
        E 0 90 61 60
        E 0 90 55 60
        E 0 90 49 60
        E 0 90 3d 60
        E 0 80 1a 00
        E 0 90 1b 60
        E 120 80 61 00
        E 0 80 55 00
        E 0 80 49 00
        E 0 80 3d 00
        E 0 90 61 60
        E 0 80 1b 00
        E 0 90 1a 60
        E 120 80 61 00
        E 0 90 61 60
        E 0 90 55 60
        E 0 80 1a 00
        E 0 90 1b 60
        E 120 80 61 00
        E 0 80 55 00
        E 0 90 61 60
        E 0 80 1b 00
        E 0 90 1a 60
        E 120 80 61 00
        E 0 90 60 60
        E 0 90 64 60
        E 0 90 54 60
        E 0 90 58 60
        E 0 90 48 60
        E 0 90 4c 60
        E 0 90 40 60
        E 0 80 1a 00
        E 0 90 18 60
        E 0 90 26 60
        E 120 80 60 00
        E 0 80 64 00
        E 0 80 54 00
        E 0 80 58 00
        E 0 80 48 00
        E 0 80 4c 00
        E 0 80 40 00
        E 0 90 61 60
        E 0 80 18 00
        E 0 80 26 00
        E 0 90 1a 60
        E 120 80 61 00
        E 0 90 61 60
        E 0 90 55 60
        E 0 80 1a 00
        E 0 90 1b 60
        E 120 80 61 00
        E 0 80 55 00
        E 0 90 61 60
        E 0 80 1b 00
        E 0 90 1a 60
        E 120 80 61 00
        E 0 90 61 60
        E 0 90 55 60
        E 0 90 49 60
        E 0 90 3d 60
        E 0 80 1a 00
        E 0 90 1b 60
        E 120 80 61 00
        E 0 80 55 00
        E 0 80 49 00
        E 0 80 3d 00
        E 0 90 60 60
        E 0 80 1b 00
        E 0 90 18 60
        E 120 80 60 00
        E 0 90 61 60
        E 0 90 64 60
        E 0 90 55 60
        E 0 90 58 60
        E 0 80 18 00
        E 0 90 1a 60
        E 0 90 26 60
        E 120 80 61 00
        E 0 80 64 00
        E 0 80 55 00
        E 0 80 58 00
        E 0 80 1a 00
        E 0 80 26 00
        E 120 90 61 60
        E 0 90 55 60
        E 0 90 49 60
        E 0 90 3d 60
        E 0 90 1b 60
        E 120 80 61 00
        E 0 80 55 00
        E 0 80 49 00
        E 0 80 3d 00
        E 0 90 61 60
        E 0 80 1b 00
        E 0 90 1a 60
        E 120 80 61 00
        E 0 90 61 60
        E 0 90 55 60
        E 0 80 1a 00
        E 0 90 1b 60
        E 120 80 61 00
        E 0 80 55 00
        E 0 90 61 60
        E 0 80 1b 00
        E 0 90 1a 60
        E 120 80 61 00
        E 0 90 61 60
        E 0 90 55 60
        E 0 90 49 60
        E 0 90 3d 60
        E 0 80 1a 00
        E 0 90 1b 60
        E 120 80 61 00
        E 0 80 55 00
        E 0 80 49 00
        E 0 80 3d 00
        E 0 90 61 60
        E 0 80 1b 00
        E 0 90 1a 60
        E 120 80 61 00
        E 0 90 61 60
        E 0 90 55 60
        E 0 80 1a 00
        E 0 90 1b 60
        E 120 80 61 00
        E 0 80 55 00
        E 0 90 61 60
        E 0 80 1b 00
        E 0 90 1a 60
        E 120 80 61 00
        E 0 90 60 60
        E 0 90 64 60
        E 0 90 54 60
        E 0 90 58 60
        E 0 90 48 60
        E 0 90 4c 60
        E 0 90 40 60
        E 0 80 1a 00
        E 0 90 18 60
        E 0 90 26 60
        E 120 80 60 00
        E 0 80 64 00
        E 0 80 54 00
        E 0 80 58 00
        E 0 80 48 00
        E 0 80 4c 00
        E 0 80 40 00
        E 0 90 61 60
        E 0 80 18 00
        E 0 80 26 00
        E 0 90 1a 60
        E 120 80 61 00
        E 0 90 61 60
        E 0 90 55 60
        E 0 80 1a 00
        E 0 90 1b 60
        E 120 80 61 00
        E 0 80 55 00
        E 0 90 61 60
        E 0 80 1b 00
        E 0 90 1a 60
        E 120 80 61 00
        E 0 90 61 60
        E 0 90 55 60
        E 0 90 49 60
        E 0 90 3d 60
        E 0 80 1a 00
        E 0 90 1b 60
        E 120 80 61 00
        E 0 80 55 00
        E 0 80 49 00
        E 0 80 3d 00
        E 0 90 60 60
        E 0 80 1b 00
        E 0 90 18 60
        E 120 80 60 00
        E 0 90 61 60
        E 0 90 63 60
        E 0 90 55 60
        E 0 90 57 60
        E 0 80 18 00
        E 0 90 1a 60
        E 0 90 2a 60
        E 120 80 61 00
        E 0 80 63 00
        E 0 80 55 00
        E 0 80 57 00
        E 0 80 1a 00
        E 0 80 2a 00
        E 120 90 61 60
        E 0 90 55 60
        E 0 90 49 60
        E 0 90 3d 60
        E 0 90 1b 60
        E 120 80 61 00
        E 0 80 55 00
        E 0 80 49 00
        E 0 80 3d 00
        E 0 90 61 60
        E 0 80 1b 00
        E 0 90 1a 60
        E 120 80 61 00
        E 0 90 61 60
        E 0 90 55 60
        E 0 80 1a 00
        E 0 90 1b 60
        E 120 80 61 00
        E 0 80 55 00
        E 0 90 61 60
        E 0 80 1b 00
        E 0 90 1a 60
        E 120 80 61 00
        E 0 90 60 60
        E 0 90 61 60
        E 0 90 54 60
        E 0 90 55 60
        E 0 90 49 60
        E 0 90 3d 60
        E 0 80 1a 00
        E 0 90 18 60
        E 0 90 1b 60
        E 120 80 60 00
        E 0 80 61 00
        E 0 80 54 00
        E 0 80 55 00
        E 0 80 49 00
        E 0 80 3d 00
        E 0 90 61 60
        E 0 80 18 00
        E 0 80 1b 00
        E 0 90 1a 60
        E 120 80 61 00
        E 0 90 60 60
        E 0 90 61 60
        E 0 90 54 60
        E 0 90 55 60
        E 0 80 1a 00
        E 0 90 18 60
        E 0 90 1b 60
        E 120 80 60 00
        E 0 80 61 00
        E 0 80 54 00
        E 0 80 55 00
        E 0 90 61 60
        E 0 80 18 00
        E 0 80 1b 00
        E 0 90 1a 60
        E 120 80 61 00
        E 0 90 60 60
        E 0 90 61 60
        E 0 90 54 60
        E 0 90 55 60
        E 0 90 49 60
        E 0 90 3d 60
        E 0 80 1a 00
        E 0 90 18 60
        E 0 90 1b 60
        E 120 80 60 00
        E 0 80 61 00
        E 0 80 54 00
        E 0 80 55 00
        E 0 80 49 00
        E 0 80 3d 00
        E 0 90 61 60
        E 0 80 18 00
        E 0 80 1b 00
        E 0 90 1a 60
        E 120 80 61 00
        E 0 90 60 60
        E 0 90 61 60
        E 0 90 54 60
        E 0 90 55 60
        E 0 80 1a 00
        E 0 90 18 60
        E 0 90 1b 60
        E 120 80 60 00
        E 0 80 61 00
        E 0 80 54 00
        E 0 80 55 00
        E 0 90 61 60
        E 0 80 18 00
        E 0 80 1b 00
        E 0 90 1a 60
        E 120 80 61 00
        E 0 90 60 60
        E 0 90 61 60
        E 0 90 54 60
        E 0 90 55 60
        E 0 90 49 60
        E 0 90 3d 60
        E 0 80 1a 00
        E 0 90 18 60
        E 0 90 1b 60
        E 120 80 60 00
        E 0 80 61 00
        E 0 80 54 00
        E 0 80 55 00
        E 0 80 49 00
        E 0 80 3d 00
        E 0 90 61 60
        E 0 80 18 00
        E 0 80 1b 00
        E 0 90 1a 60
        E 120 80 61 00
        E 0 90 60 60
        E 0 90 61 60
        E 0 90 54 60
        E 0 90 55 60
        E 0 80 1a 00
        E 0 90 18 60
        E 0 90 1b 60
        E 120 80 60 00
        E 0 80 61 00
        E 0 80 54 00
        E 0 80 55 00
        E 0 90 61 60
        E 0 80 18 00
        E 0 80 1b 00
        E 0 90 1a 60
        E 120 80 61 00
        E 0 90 60 60
        E 0 90 61 60
        E 0 90 54 60
        E 0 90 55 60
        E 0 90 49 60
        E 0 90 3d 60
        E 0 80 1a 00
        E 0 90 18 60
        E 0 90 1b 60
        E 120 80 60 00
        E 0 80 61 00
        E 0 80 54 00
        E 0 80 55 00
        E 0 80 49 00
        E 0 80 3d 00
        E 0 90 61 60
        E 0 80 18 00
        E 0 80 1b 00
        E 0 90 1a 60
        E 120 80 61 00
        E 0 90 60 60
        E 0 90 62 60
        E 0 90 54 60
        E 0 90 56 60
        E 0 90 6e 60
        E 0 80 1a 00
        E 0 90 18 60
        E 0 90 2f 60
        E 120 80 60 00
        E 0 80 62 00
        E 0 80 54 00
        E 0 80 56 00
        E 0 80 6e 00
        E 0 90 62 60
        E 0 90 6e 60
        E 0 80 18 00
        E 0 80 2f 00
        E 0 90 2e 60
        E 120 80 62 00
        E 0 80 6e 00
        E 0 90 60 60
        E 0 90 63 60
        E 0 90 54 60
        E 0 90 57 60
        E 0 90 4b 60
        E 0 90 6f 60
        E 0 90 3f 60
        E 0 80 2e 00
        E 0 90 18 60
        E 0 90 31 60
        E 120 80 60 00
        E 0 80 63 00
        E 0 80 54 00
        E 0 80 57 00
        E 0 80 4b 00
        E 0 80 6f 00
        E 0 80 3f 00
        E 0 90 63 60
        E 0 90 6f 60
        E 0 80 18 00
        E 0 80 31 00
        E 0 90 30 60
        E 120 80 63 00
        E 0 80 6f 00
        E 0 90 60 60
        E 0 90 64 60
        E 0 90 54 60
        E 0 90 58 60
        E 0 90 70 60
        E 0 80 30 00
        E 0 90 18 60
        E 0 90 33 60
        E 120 80 60 00
        E 0 80 64 00
        E 0 80 54 00
        E 0 80 58 00
        E 0 80 70 00
        E 0 90 64 60
        E 0 90 70 60
        E 0 80 18 00
        E 0 80 33 00
        E 0 90 32 60
        E 120 80 64 00
        E 0 80 70 00
        E 0 90 60 60
        E 0 90 64 60
        E 0 90 54 60
        E 0 90 58 60
        E 0 90 48 60
        E 0 90 4c 60
        E 0 90 40 60
        E 0 80 32 00
        E 0 90 18 60
        E 0 90 26 60
        E 120 80 60 00
        E 0 80 64 00
        E 0 80 54 00
        E 0 80 58 00
        E 0 80 48 00
        E 0 80 4c 00
        E 0 80 40 00
        E 0 80 18 00
        E 0 80 26 00
        E 360 90 63 60
        E 0 90 57 60
        E 0 90 4b 60
        E 0 90 3f 60
        E 0 90 2a 60
        E 120 80 63 00
        E 0 80 57 00
        E 0 80 4b 00
        E 0 80 3f 00
        E 0 80 2a 00
        E 120 90 60 60
        E 0 90 63 60
        E 0 90 54 60
        E 0 90 57 60
        E 0 90 18 60
        E 0 90 2a 60
        E 120 80 60 00
        E 0 80 63 00
        E 0 80 54 00
        E 0 80 57 00
        E 0 80 18 00
        E 0 80 2a 00
        E 120 90 61 60
        E 0 90 63 60
        E 0 90 55 60
        E 0 90 57 60
        E 0 90 49 60
        E 0 90 4b 60
        E 0 90 3d 60
        E 0 90 1a 60
        E 0 90 2a 60
        E 120 80 61 00
        E 0 80 63 00
        E 0 80 55 00
        E 0 80 57 00
        E 0 80 49 00
        E 0 80 4b 00
        E 0 80 3d 00
        E 0 80 1a 00
        E 0 80 2a 00
        E 120 90 63 60
        E 0 90 57 60
        E 0 90 2a 60
        E 120 80 63 00
        E 0 80 57 00
        E 0 80 2a 00
        E 120 90 63 60
        E 0 90 57 60
        E 0 90 4b 60
        E 0 90 3f 60
        E 0 90 2a 60
        E 120 80 63 00
        E 0 80 57 00
        E 0 80 4b 00
        E 0 80 3f 00
        E 0 80 2a 00
        E 120 90 60 60
        E 0 90 63 60
        E 0 90 54 60
        E 0 90 57 60
        E 0 90 18 60
        E 0 90 2a 60
        E 120 80 60 00
        E 0 80 63 00
        E 0 80 54 00
        E 0 80 57 00
        E 0 80 18 00
        E 0 80 2a 00
        E 120 90 60 60
        E 0 90 63 60
        E 0 90 54 60
        E 0 90 57 60
        E 0 90 48 60
        E 0 90 4b 60
        E 0 90 3f 60
        E 0 90 18 60
        E 0 90 2a 60
        E 120 80 60 00
        E 0 80 63 00
        E 0 80 54 00
        E 0 80 57 00
        E 0 80 48 00
        E 0 80 4b 00
        E 0 80 3f 00
        E 0 80 18 00
        E 0 80 2a 00
        E 120 90 63 60
        E 0 90 57 60
        E 0 90 2a 60
        E 120 80 63 00
        E 0 80 57 00
        E 0 80 2a 00
        E 120 90 60 60
        E 0 90 63 60
        E 0 90 54 60
        E 0 90 57 60
        E 0 90 48 60
        E 0 90 4b 60
        E 0 90 3f 60
        E 0 90 18 60
        E 0 90 2a 60
        E 120 80 60 00
        E 0 80 63 00
        E 0 80 54 00
        E 0 80 57 00
        E 0 80 48 00
        E 0 80 4b 00
        E 0 80 3f 00
        E 0 80 18 00
        E 0 80 2a 00
        E 120 90 60 60
        E 0 90 63 60
        E 0 90 54 60
        E 0 90 57 60
        E 0 90 18 60
        E 0 90 2a 60
        E 120 80 60 00
        E 0 80 63 00
        E 0 80 54 00
        E 0 80 57 00
        E 0 90 60 60
        E 0 80 18 00
        E 0 80 2a 00
        E 0 90 18 60
        E 120 80 60 00
        E 0 90 61 60
        E 0 90 63 60
        E 0 90 55 60
        E 0 90 57 60
        E 0 90 49 60
        E 0 90 4b 60
        E 0 90 3d 60
        E 0 80 18 00
        E 0 90 1a 60
        E 0 90 2a 60
        E 120 80 61 00
        E 0 80 63 00
        E 0 80 55 00
        E 0 80 57 00
        E 0 80 49 00
        E 0 80 4b 00
        E 0 80 3d 00
        E 0 80 1a 00
        E 0 80 2a 00
        E 120 90 60 60
        E 0 90 63 60
        E 0 90 54 60
        E 0 90 57 60
        E 0 90 18 60
        E 0 90 2a 60
        E 120 80 60 00
        E 0 80 63 00
        E 0 80 54 00
        E 0 80 57 00
        E 0 80 18 00
        E 0 80 2a 00
        E 120 90 60 60
        E 0 90 63 60
        E 0 90 54 60
        E 0 90 57 60
        E 0 90 48 60
        E 0 90 4b 60
        E 0 90 3f 60
        E 0 90 18 60
        E 0 90 2a 60
        E 120 80 60 00
        E 0 80 63 00
        E 0 80 54 00
        E 0 80 57 00
        E 0 80 48 00
        E 0 80 4b 00
        E 0 80 3f 00
        E 0 80 18 00
        E 0 80 2a 00
        E 120 90 60 60
        E 0 90 63 60
        E 0 90 54 60
        E 0 90 57 60
        E 0 90 18 60
        E 0 90 2a 60
        E 120 80 60 00
        E 0 80 63 00
        E 0 80 54 00
        E 0 80 57 00
        E 0 80 18 00
        E 0 80 2a 00
        E 120 90 60 60
        E 0 90 64 60
        E 0 90 74 60
        E 0 90 54 60
        E 0 90 58 60
        E 0 90 48 60
        E 0 90 4c 60
        E 0 90 40 60
        E 0 90 18 60
        E 0 90 26 60
        E 120 80 60 00
        E 0 80 64 00
        E 0 80 54 00
        E 0 80 58 00
        E 0 80 48 00
        E 0 80 4c 00
        E 0 80 40 00
        E 0 80 18 00
        E 0 80 26 00
        E 360 90 63 60
        E 0 90 57 60
        E 0 90 4b 60
        E 0 90 3f 60
        E 0 90 2a 60
        E 120 80 63 00
        E 0 80 57 00
        E 0 80 4b 00
        E 0 80 3f 00
        E 0 80 2a 00
        E 120 90 60 60
        E 0 90 63 60
        E 0 90 54 60
        E 0 90 57 60
        E 0 90 18 60
        E 0 90 2a 60
        E 120 80 60 00
        E 0 80 63 00
        E 0 80 54 00
        E 0 80 57 00
        E 0 80 18 00
        E 0 80 2a 00
        E 120 90 61 60
        E 0 90 63 60
        E 0 90 55 60
        E 0 90 57 60
        E 0 90 49 60
        E 0 90 4b 60
        E 0 90 3d 60
        E 0 90 1a 60
        E 0 90 2a 60
        E 120 80 61 00
        E 0 80 63 00
        E 0 80 55 00
        E 0 80 57 00
        E 0 80 49 00
        E 0 80 4b 00
        E 0 80 3d 00
        E 0 80 1a 00
        E 0 80 2a 00
        E 120 90 60 60
        E 0 90 63 60
        E 0 90 54 60
        E 0 90 57 60
        E 0 90 18 60
        E 0 90 2a 60
        E 120 80 60 00
        E 0 80 63 00
        E 0 80 54 00
        E 0 80 57 00
        E 0 80 18 00
        E 0 80 2a 00
        E 120 90 63 60
        E 0 90 57 60
        E 0 90 4b 60
        E 0 90 3f 60
        E 0 90 2a 60
        E 120 80 63 00
        E 0 80 57 00
        E 0 80 4b 00
        E 0 80 3f 00
        E 0 80 2a 00
        E 120 90 60 60
        E 0 90 63 60
        E 0 90 54 60
        E 0 90 57 60
        E 0 90 18 60
        E 0 90 2a 60
        E 120 80 60 00
        E 0 80 63 00
        E 0 80 54 00
        E 0 80 57 00
        E 0 80 18 00
        E 0 80 2a 00
        E 120 90 60 60
        E 0 90 64 60
        E 0 90 54 60
        E 0 90 58 60
        E 0 90 48 60
        E 0 90 4c 60
        E 0 90 40 60
        E 0 90 18 60
        E 0 90 26 60
        E 120 80 60 00
        E 0 80 64 00
        E 0 80 54 00
        E 0 80 58 00
        E 0 80 48 00
        E 0 80 4c 00
        E 0 80 40 00
        E 0 80 18 00
        E 0 80 26 00
        E 120 90 63 60
        E 0 90 57 60
        E 0 90 2a 60
        E 120 80 63 00
        E 0 80 57 00
        E 0 80 2a 00
        E 120 90 60 60
        E 0 90 63 60
        E 0 90 54 60
        E 0 90 57 60
        E 0 90 48 60
        E 0 90 4b 60
        E 0 90 3f 60
        E 0 90 18 60
        E 0 90 2a 60
        E 120 80 60 00
        E 0 80 63 00
        E 0 80 54 00
        E 0 80 57 00
        E 0 80 48 00
        E 0 80 4b 00
        E 0 80 3f 00
        E 0 80 18 00
        E 0 80 2a 00
        E 120 90 60 60
        E 0 90 63 60
        E 0 90 54 60
        E 0 90 57 60
        E 0 90 18 60
        E 0 90 2a 60
        E 120 80 60 00
        E 0 80 63 00
        E 0 80 54 00
        E 0 80 57 00
        E 0 90 60 60
        E 0 80 18 00
        E 0 80 2a 00
        E 0 90 18 60
        E 120 80 60 00
        E 0 90 61 60
        E 0 90 63 60
        E 0 90 55 60
        E 0 90 57 60
        E 0 90 49 60
        E 0 90 4b 60
        E 0 90 3d 60
        E 0 80 18 00
        E 0 90 1a 60
        E 0 90 2a 60
        E 120 80 61 00
        E 0 80 63 00
        E 0 80 55 00
        E 0 80 57 00
        E 0 80 49 00
        E 0 80 4b 00
        E 0 80 3d 00
        E 0 80 1a 00
        E 0 80 2a 00
        E 120 90 60 60
        E 0 90 63 60
        E 0 90 54 60
        E 0 90 57 60
        E 0 90 18 60
        E 0 90 2a 60
        E 120 80 60 00
        E 0 80 63 00
        E 0 80 54 00
        E 0 80 57 00
        E 0 80 18 00
        E 0 80 2a 00
        E 120 90 63 60
        E 0 90 57 60
        E 0 90 4b 60
        E 0 90 3f 60
        E 0 90 2a 60
        E 120 80 63 00
        E 0 80 57 00
        E 0 80 4b 00
        E 0 80 3f 00
        E 0 80 2a 00
        E 120 90 60 60
        E 0 90 63 60
        E 0 90 54 60
        E 0 90 57 60
        E 0 90 18 60
        E 0 90 2a 60
        E 120 80 60 00
        E 0 80 63 00
        E 0 80 54 00
        E 0 80 57 00
        E 0 80 18 00
        E 0 80 2a 00
        E 120 80 74 00
        E 0 90 60 60
        E 0 90 64 60
        E 0 90 54 60
        E 0 90 58 60
        E 0 90 48 60
        E 0 90 4c 60
        E 0 90 40 60
        E 0 90 18 60
        E 0 90 26 60
        E 120 80 60 00
        E 0 80 64 00
        E 0 80 54 00
        E 0 80 58 00
        E 0 80 48 00
        E 0 80 4c 00
        E 0 80 40 00
        E 0 80 18 00
        E 0 80 26 00
        E 120 90 63 60
        E 0 90 57 60
        E 0 90 2a 60
        E 120 80 63 00
        E 0 80 57 00
        E 0 80 2a 00
        E 120 90 63 60
        E 0 90 57 60
        E 0 90 4b 60
        E 0 90 3f 60
        E 0 90 2a 60
        E 120 80 63 00
        E 0 80 57 00
        E 0 80 4b 00
        E 0 80 3f 00
        E 0 80 2a 00
        E 120 90 60 60
        E 0 90 63 60
        E 0 90 54 60
        E 0 90 57 60
        E 0 90 18 60
        E 0 90 2a 60
        E 120 80 60 00
        E 0 80 63 00
        E 0 80 54 00
        E 0 80 57 00
        E 0 80 18 00
        E 0 80 2a 00
        E 120 90 61 60
        E 0 90 63 60
        E 0 90 55 60
        E 0 90 57 60
        E 0 90 49 60
        E 0 90 4b 60
        E 0 90 3d 60
        E 0 90 1a 60
        E 0 90 2a 60
        E 120 80 61 00
        E 0 80 63 00
        E 0 80 55 00
        E 0 80 57 00
        E 0 80 49 00
        E 0 80 4b 00
        E 0 80 3d 00
        E 0 80 1a 00
        E 0 80 2a 00
        E 120 90 63 60
        E 0 90 57 60
        E 0 90 2a 60
        E 120 80 63 00
        E 0 80 57 00
        E 0 80 2a 00
        E 120 90 63 60
        E 0 90 57 60
        E 0 90 4b 60
        E 0 90 3f 60
        E 0 90 2a 60
        E 120 80 63 00
        E 0 80 57 00
        E 0 80 4b 00
        E 0 80 3f 00
        E 0 80 2a 00
        E 120 90 60 60
        E 0 90 63 60
        E 0 90 54 60
        E 0 90 57 60
        E 0 90 18 60
        E 0 90 2a 60
        E 120 80 60 00
        E 0 80 63 00
        E 0 80 54 00
        E 0 80 57 00
        E 0 80 18 00
        E 0 80 2a 00
        E 120 90 60 60
        E 0 90 63 60
        E 0 90 54 60
        E 0 90 57 60
        E 0 90 48 60
        E 0 90 4b 60
        E 0 90 3f 60
        E 0 90 18 60
        E 0 90 2a 60
        E 120 80 60 00
        E 0 80 63 00
        E 0 80 54 00
        E 0 80 57 00
        E 0 80 48 00
        E 0 80 4b 00
        E 0 80 3f 00
        E 0 80 18 00
        E 0 80 2a 00
        E 120 90 63 60
        E 0 90 57 60
        E 0 90 2a 60
        E 120 80 63 00
        E 0 80 57 00
        E 0 80 2a 00
        E 120 90 60 60
        E 0 90 63 60
        E 0 90 54 60
        E 0 90 57 60
        E 0 90 48 60
        E 0 90 4b 60
        E 0 90 3f 60
        E 0 90 18 60
        E 0 90 2a 60
        E 120 80 60 00
        E 0 80 63 00
        E 0 80 54 00
        E 0 80 57 00
        E 0 80 48 00
        E 0 80 4b 00
        E 0 80 3f 00
        E 0 80 18 00
        E 0 80 2a 00
        E 120 90 60 60
        E 0 90 63 60
        E 0 90 54 60
        E 0 90 57 60
        E 0 90 18 60
        E 0 90 2a 60
        E 120 80 60 00
        E 0 80 63 00
        E 0 80 54 00
        E 0 80 57 00
        E 0 90 60 60
        E 0 80 18 00
        E 0 80 2a 00
        E 0 90 18 60
        E 120 80 60 00
        E 0 90 61 60
        E 0 90 63 60
        E 0 90 55 60
        E 0 90 57 60
        E 0 90 49 60
        E 0 90 4b 60
        E 0 90 3d 60
        E 0 80 18 00
        E 0 90 1a 60
        E 0 90 2a 60
        E 120 80 61 00
        E 0 80 63 00
        E 0 80 55 00
        E 0 80 57 00
        E 0 80 49 00
        E 0 80 4b 00
        E 0 80 3d 00
        E 0 80 1a 00
        E 0 80 2a 00
        E 120 90 60 60
        E 0 90 63 60
        E 0 90 54 60
        E 0 90 57 60
        E 0 90 18 60
        E 0 90 2a 60
        E 120 80 60 00
        E 0 80 63 00
        E 0 80 54 00
        E 0 80 57 00
        E 0 80 18 00
        E 0 80 2a 00
        E 120 90 63 60
        E 0 90 57 60
        E 0 90 4b 60
        E 0 90 3f 60
        E 0 90 2a 60
        E 120 80 63 00
        E 0 80 57 00
        E 0 80 4b 00
        E 0 80 3f 00
        E 0 80 2a 00
        E 120 90 60 60
        E 0 90 63 60
        E 0 90 54 60
        E 0 90 57 60
        E 0 90 18 60
        E 0 90 2a 60
        E 120 80 60 00
        E 0 80 63 00
        E 0 80 54 00
        E 0 80 57 00
        E 0 80 18 00
        E 0 80 2a 00
        E 120 90 60 60
        E 0 90 63 60
        E 0 90 54 60
        E 0 90 57 60
        E 0 90 48 60
        E 0 90 4b 60
        E 0 90 3f 60
        E 0 90 18 60
        E 0 90 2a 60
        E 120 80 60 00
        E 0 80 63 00
        E 0 80 54 00
        E 0 80 57 00
        E 0 80 48 00
        E 0 80 4b 00
        E 0 80 3f 00
        E 0 80 18 00
        E 0 80 2a 00
        E 360 90 63 60
        E 0 90 57 60
        E 0 90 4b 60
        E 0 90 3f 60
        E 0 90 2a 60
        E 120 80 63 00
        E 0 80 57 00
        E 0 80 4b 00
        E 0 80 3f 00
        E 0 80 2a 00
        E 120 90 60 60
        E 0 90 54 60
        E 0 90 18 60
        E 120 80 60 00
        E 0 80 54 00
        E 0 80 18 00
        E 120 90 61 60
        E 0 90 64 60
        E 0 90 55 60
        E 0 90 58 60
        E 0 90 49 60
        E 0 90 4c 60
        E 0 90 3d 60
        E 0 90 1a 60
        E 0 90 26 60
        E 120 80 61 00
        E 0 80 64 00
        E 0 80 55 00
        E 0 80 58 00
        E 0 80 49 00
        E 0 80 4c 00
        E 0 80 3d 00
        E 0 80 1a 00
        E 0 80 26 00
        E 120 90 61 60
        E 0 90 55 60
        E 0 90 1b 60
        E 120 80 61 00
        E 0 80 55 00
        E 0 90 61 60
        E 0 80 1b 00
        E 0 90 1a 60
        E 120 80 61 00
        E 0 90 61 60
        E 0 90 55 60
        E 0 90 49 60
        E 0 90 3d 60
        E 0 80 1a 00
        E 0 90 1b 60
        E 120 80 61 00
        E 0 80 55 00
        E 0 80 49 00
        E 0 80 3d 00
        E 0 90 61 60
        E 0 80 1b 00
        E 0 90 1a 60
        E 120 80 61 00
        E 0 90 61 60
        E 0 90 55 60
        E 0 80 1a 00
        E 0 90 1b 60
        E 120 80 61 00
        E 0 80 55 00
        E 0 90 61 60
        E 0 80 1b 00
        E 0 90 1a 60
        E 120 80 61 00
        E 0 90 62 60
        E 0 90 78 60
        E 0 90 79 60
        E 0 90 7a 60
        E 0 90 7b 60
        E 0 90 7c 60
        E 0 90 56 60
        E 0 90 4a 60
        E 0 90 6e 60
        E 0 90 3e 60
        E 0 80 1a 00
        E 0 90 2f 60
        E 120 80 62 00
        E 0 80 56 00
        E 0 80 4a 00
        E 0 80 6e 00
        E 0 80 3e 00
        E 0 90 61 60
        E 0 80 2f 00
        E 0 90 1a 60
        E 120 80 61 00
        E 0 90 61 60
        E 0 90 55 60
        E 0 80 1a 00
        E 0 90 1b 60
        E 120 80 61 00
        E 0 80 55 00
        E 0 90 61 60
        E 0 80 1b 00
        E 0 90 1a 60
        E 120 80 61 00
        E 0 90 63 60
        E 0 90 57 60
        E 0 90 4b 60
        E 0 90 6f 60
        E 0 90 3f 60
        E 0 80 1a 00
        E 0 90 31 60
        E 120 80 63 00
        E 0 80 57 00
        E 0 80 4b 00
        E 0 80 6f 00
        E 0 80 3f 00
        E 0 90 61 60
        E 0 80 31 00
        E 0 90 1a 60
        E 120 80 61 00
        E 0 90 61 60
        E 0 90 55 60
        E 0 80 1a 00
        E 0 90 1b 60
        E 120 80 61 00
        E 0 80 55 00
        E 0 90 61 60
        E 0 80 1b 00
        E 0 90 1a 60
        E 120 80 61 00
        E 0 90 61 60
        E 0 90 55 60
        E 0 90 49 60
        E 0 90 3d 60
        E 0 80 1a 00
        E 0 90 1b 60
        E 120 80 61 00
        E 0 80 55 00
        E 0 80 49 00
        E 0 80 3d 00
        E 0 90 61 60
        E 0 80 1b 00
        E 0 90 1a 60
        E 120 80 61 00
        E 0 90 61 60
        E 0 90 55 60
        E 0 80 1a 00
        E 0 90 1b 60
        E 120 80 61 00
        E 0 80 55 00
        E 0 90 61 60
        E 0 80 1b 00
        E 0 90 1a 60
        E 120 80 61 00
        E 0 90 63 60
        E 0 90 57 60
        E 0 90 4b 60
        E 0 90 6f 60
        E 0 90 3f 60
        E 0 80 1a 00
        E 0 90 31 60
        E 120 80 63 00
        E 0 80 57 00
        E 0 80 4b 00
        E 0 80 6f 00
        E 0 80 3f 00
        E 0 90 63 60
        E 0 90 6f 60
        E 0 80 31 00
        E 0 90 30 60
        E 120 80 63 00
        E 0 80 6f 00
        E 0 90 64 60
        E 0 90 58 60
        E 0 90 70 60
        E 0 80 30 00
        E 0 90 33 60
        E 120 80 64 00
        E 0 80 58 00
        E 0 80 70 00
        E 0 90 64 60
        E 0 90 70 60
        E 0 80 33 00
        E 0 90 32 60
        E 120 80 78 00
        E 0 80 79 00
        E 0 80 7a 00
        E 0 80 7b 00
        E 0 80 7c 00
        E 0 80 64 00
        E 0 80 70 00
        E 0 90 60 60
        E 0 90 64 60
        E 0 90 54 60
        E 0 90 58 60
        E 0 90 48 60
        E 0 90 4c 60
        E 0 90 40 60
        E 0 80 32 00
        E 0 90 18 60
        E 0 90 26 60
        E 120 80 60 00
        E 0 80 64 00
        E 0 80 54 00
        E 0 80 58 00
        E 0 80 48 00
        E 0 80 4c 00
        E 0 80 40 00
        E 0 80 18 00
        E 0 80 26 00
        E 360 90 63 60
        E 0 90 57 60
        E 0 90 4b 60
        E 0 90 3f 60
        E 0 90 2a 60
        E 120 80 63 00
        E 0 80 57 00
        E 0 80 4b 00
        E 0 80 3f 00
        E 0 80 2a 00
        E 120 90 60 60
        E 0 90 63 60
        E 0 90 54 60
        E 0 90 57 60
        E 0 90 18 60
        E 0 90 2a 60
        E 120 80 60 00
        E 0 80 63 00
        E 0 80 54 00
        E 0 80 57 00
        E 0 80 18 00
        E 0 80 2a 00
        E 120 90 61 60
        E 0 90 63 60
        E 0 90 55 60
        E 0 90 57 60
        E 0 90 49 60
        E 0 90 4b 60
        E 0 90 3d 60
        E 0 90 1a 60
        E 0 90 2a 60
        E 120 80 61 00
        E 0 80 63 00
        E 0 80 55 00
        E 0 80 57 00
        E 0 80 49 00
        E 0 80 4b 00
        E 0 80 3d 00
        E 0 80 1a 00
        E 0 80 2a 00
        E 120 90 63 60
        E 0 90 57 60
        E 0 90 2a 60
        E 120 80 63 00
        E 0 80 57 00
        E 0 80 2a 00
        E 120 90 63 60
        E 0 90 57 60
        E 0 90 4b 60
        E 0 90 3f 60
        E 0 90 2a 60
        E 120 80 63 00
        E 0 80 57 00
        E 0 80 4b 00
        E 0 80 3f 00
        E 0 80 2a 00
        E 120 90 60 60
        E 0 90 63 60
        E 0 90 54 60
        E 0 90 57 60
        E 0 90 18 60
        E 0 90 2a 60
        E 120 80 60 00
        E 0 80 63 00
        E 0 80 54 00
        E 0 80 57 00
        E 0 80 18 00
        E 0 80 2a 00
        E 120 90 60 60
        E 0 90 63 60
        E 0 90 54 60
        E 0 90 57 60
        E 0 90 48 60
        E 0 90 4b 60
        E 0 90 3f 60
        E 0 90 18 60
        E 0 90 2a 60
        E 120 80 60 00
        E 0 80 63 00
        E 0 80 54 00
        E 0 80 57 00
        E 0 80 48 00
        E 0 80 4b 00
        E 0 80 3f 00
        E 0 80 18 00
        E 0 80 2a 00
        E 120 90 63 60
        E 0 90 57 60
        E 0 90 2a 60
        E 120 80 63 00
        E 0 80 57 00
        E 0 80 2a 00
        E 120 90 60 60
        E 0 90 63 60
        E 0 90 54 60
        E 0 90 57 60
        E 0 90 48 60
        E 0 90 4b 60
        E 0 90 3f 60
        E 0 90 18 60
        E 0 90 2a 60
        E 120 80 60 00
        E 0 80 63 00
        E 0 80 54 00
        E 0 80 57 00
        E 0 80 48 00
        E 0 80 4b 00
        E 0 80 3f 00
        E 0 80 18 00
        E 0 80 2a 00
        E 120 90 60 60
        E 0 90 63 60
        E 0 90 54 60
        E 0 90 57 60
        E 0 90 18 60
        E 0 90 2a 60
        E 120 80 60 00
        E 0 80 63 00
        E 0 80 54 00
        E 0 80 57 00
        E 0 90 60 60
        E 0 80 18 00
        E 0 80 2a 00
        E 0 90 18 60
        E 120 80 60 00
        E 0 90 61 60
        E 0 90 63 60
        E 0 90 55 60
        E 0 90 57 60
        E 0 90 49 60
        E 0 90 4b 60
        E 0 90 3d 60
        E 0 80 18 00
        E 0 90 1a 60
        E 0 90 2a 60
        E 120 80 61 00
        E 0 80 63 00
        E 0 80 55 00
        E 0 80 57 00
        E 0 80 49 00
        E 0 80 4b 00
        E 0 80 3d 00
        E 0 80 1a 00
        E 0 80 2a 00
        E 120 90 60 60
        E 0 90 63 60
        E 0 90 54 60
        E 0 90 57 60
        E 0 90 18 60
        E 0 90 2a 60
        E 120 80 60 00
        E 0 80 63 00
        E 0 80 54 00
        E 0 80 57 00
        E 0 80 18 00
        E 0 80 2a 00
        E 120 90 60 60
        E 0 90 63 60
        E 0 90 54 60
        E 0 90 57 60
        E 0 90 48 60
        E 0 90 4b 60
        E 0 90 3f 60
        E 0 90 18 60
        E 0 90 2a 60
        E 120 80 60 00
        E 0 80 63 00
        E 0 80 54 00
        E 0 80 57 00
        E 0 80 48 00
        E 0 80 4b 00
        E 0 80 3f 00
        E 0 80 18 00
        E 0 80 2a 00
        E 120 90 60 60
        E 0 90 63 60
        E 0 90 54 60
        E 0 90 57 60
        E 0 90 18 60
        E 0 90 2a 60
        E 120 80 60 00
        E 0 80 63 00
        E 0 80 54 00
        E 0 80 57 00
        E 0 80 18 00
        E 0 80 2a 00
        E 120 90 60 60
        E 0 90 64 60
        E 0 90 54 60
        E 0 90 58 60
        E 0 90 48 60
        E 0 90 4c 60
        E 0 90 40 60
        E 0 90 18 60
        E 0 90 26 60
        E 120 80 60 00
        E 0 80 64 00
        E 0 80 54 00
        E 0 80 58 00
        E 0 80 48 00
        E 0 80 4c 00
        E 0 80 40 00
        E 0 80 18 00
        E 0 80 26 00
        E 360 90 63 60
        E 0 90 57 60
        E 0 90 4b 60
        E 0 90 3f 60
        E 0 90 2a 60
        E 120 80 63 00
        E 0 80 57 00
        E 0 80 4b 00
        E 0 80 3f 00
        E 0 80 2a 00
        E 120 90 60 60
        E 0 90 63 60
        E 0 90 54 60
        E 0 90 57 60
        E 0 90 18 60
        E 0 90 2a 60
        E 120 80 60 00
        E 0 80 63 00
        E 0 80 54 00
        E 0 80 57 00
        E 0 80 18 00
        E 0 80 2a 00
        E 120 90 61 60
        E 0 90 63 60
        E 0 90 55 60
        E 0 90 57 60
        E 0 90 49 60
        E 0 90 4b 60
        E 0 90 3d 60
        E 0 90 1a 60
        E 0 90 2a 60
        E 120 80 61 00
        E 0 80 63 00
        E 0 80 55 00
        E 0 80 57 00
        E 0 80 49 00
        E 0 80 4b 00
        E 0 80 3d 00
        E 0 80 1a 00
        E 0 80 2a 00
        E 120 90 60 60
        E 0 90 63 60
        E 0 90 54 60
        E 0 90 57 60
        E 0 90 18 60
        E 0 90 2a 60
        E 120 80 60 00
        E 0 80 63 00
        E 0 80 54 00
        E 0 80 57 00
        E 0 80 18 00
        E 0 80 2a 00
        E 120 90 63 60
        E 0 90 57 60
        E 0 90 4b 60
        E 0 90 3f 60
        E 0 90 2a 60
        E 120 80 63 00
        E 0 80 57 00
        E 0 80 4b 00
        E 0 80 3f 00
        E 0 80 2a 00
        E 120 90 60 60
        E 0 90 63 60
        E 0 90 54 60
        E 0 90 57 60
        E 0 90 18 60
        E 0 90 2a 60
        E 120 80 60 00
        E 0 80 63 00
        E 0 80 54 00
        E 0 80 57 00
        E 0 80 18 00
        E 0 80 2a 00
        E 120 90 60 60
        E 0 90 64 60
        E 0 90 54 60
        E 0 90 58 60
        E 0 90 48 60
        E 0 90 4c 60
        E 0 90 40 60
        E 0 90 18 60
        E 0 90 26 60
        E 120 80 60 00
        E 0 80 64 00
        E 0 80 54 00
        E 0 80 58 00
        E 0 80 48 00
        E 0 80 4c 00
        E 0 80 40 00
        E 0 80 18 00
        E 0 80 26 00
        E 120 90 63 60
        E 0 90 57 60
        E 0 90 2a 60
        E 120 80 63 00
        E 0 80 57 00
        E 0 80 2a 00
        E 120 90 60 60
        E 0 90 63 60
        E 0 90 54 60
        E 0 90 57 60
        E 0 90 48 60
        E 0 90 4b 60
        E 0 90 3f 60
        E 0 90 18 60
        E 0 90 2a 60
        E 120 80 60 00
        E 0 80 63 00
        E 0 80 54 00
        E 0 80 57 00
        E 0 80 48 00
        E 0 80 4b 00
        E 0 80 3f 00
        E 0 80 18 00
        E 0 80 2a 00
        E 120 90 60 60
        E 0 90 63 60
        E 0 90 54 60
        E 0 90 57 60
        E 0 90 18 60
        E 0 90 2a 60
        E 120 80 60 00
        E 0 80 63 00
        E 0 80 54 00
        E 0 80 57 00
        E 0 90 60 60
        E 0 80 18 00
        E 0 80 2a 00
        E 0 90 18 60
        E 120 80 60 00
        E 0 90 61 60
        E 0 90 63 60
        E 0 90 55 60
        E 0 90 57 60
        E 0 90 49 60
        E 0 90 4b 60
        E 0 90 3d 60
        E 0 80 18 00
        E 0 90 1a 60
        E 0 90 2a 60
        E 120 80 61 00
        E 0 80 63 00
        E 0 80 55 00
        E 0 80 57 00
        E 0 80 49 00
        E 0 80 4b 00
        E 0 80 3d 00
        E 0 80 1a 00
        E 0 80 2a 00
        E 120 90 60 60
        E 0 90 63 60
        E 0 90 54 60
        E 0 90 57 60
        E 0 90 18 60
        E 0 90 2a 60
        E 120 80 60 00
        E 0 80 63 00
        E 0 80 54 00
        E 0 80 57 00
        E 0 80 18 00
        E 0 80 2a 00
        E 120 90 63 60
        E 0 90 57 60
        E 0 90 4b 60
        E 0 90 3f 60
        E 0 90 2a 60
        E 120 80 63 00
        E 0 80 57 00
        E 0 80 4b 00
        E 0 80 3f 00
        E 0 80 2a 00
        E 120 90 60 60
        E 0 90 63 60
        E 0 90 54 60
        E 0 90 57 60
        E 0 90 18 60
        E 0 90 2a 60
        E 120 80 60 00
        E 0 80 63 00
        E 0 80 54 00
        E 0 80 57 00
        E 0 80 18 00
        E 0 80 2a 00
        E 120 90 60 60
        E 0 90 64 60
        E 0 90 74 60
        E 0 90 54 60
        E 0 90 58 60
        E 0 90 48 60
        E 0 90 4c 60
        E 0 90 40 60
        E 0 90 18 60
        E 0 90 26 60
        E 120 80 60 00
        E 0 80 64 00
        E 0 80 54 00
        E 0 80 58 00
        E 0 80 48 00
        E 0 80 4c 00
        E 0 80 40 00
        E 0 80 18 00
        E 0 80 26 00
        E 120 90 63 60
        E 0 90 57 60
        E 0 90 2a 60
        E 120 80 63 00
        E 0 80 57 00
        E 0 80 2a 00
        E 120 90 63 60
        E 0 90 57 60
        E 0 90 4b 60
        E 0 90 3f 60
        E 0 90 2a 60
        E 120 80 63 00
        E 0 80 57 00
        E 0 80 4b 00
        E 0 80 3f 00
        E 0 80 2a 00
        E 120 90 60 60
        E 0 90 63 60
        E 0 90 54 60
        E 0 90 57 60
        E 0 90 18 60
        E 0 90 2a 60
        E 120 80 60 00
        E 0 80 63 00
        E 0 80 54 00
        E 0 80 57 00
        E 0 80 18 00
        E 0 80 2a 00
        E 120 90 61 60
        E 0 90 63 60
        E 0 90 55 60
        E 0 90 57 60
        E 0 90 49 60
        E 0 90 4b 60
        E 0 90 3d 60
        E 0 90 1a 60
        E 0 90 2a 60
        E 120 80 61 00
        E 0 80 63 00
        E 0 80 55 00
        E 0 80 57 00
        E 0 80 49 00
        E 0 80 4b 00
        E 0 80 3d 00
        E 0 80 1a 00
        E 0 80 2a 00
        E 120 90 60 60
        E 0 90 63 60
        E 0 90 54 60
        E 0 90 57 60
        E 0 90 18 60
        E 0 90 2a 60
        E 120 80 60 00
        E 0 80 63 00
        E 0 80 54 00
        E 0 80 57 00
        E 0 80 18 00
        E 0 80 2a 00
        E 120 90 63 60
        E 0 90 57 60
        E 0 90 4b 60
        E 0 90 3f 60
        E 0 90 2a 60
        E 120 80 63 00
        E 0 80 57 00
        E 0 80 4b 00
        E 0 80 3f 00
        E 0 80 2a 00
        E 120 90 60 60
        E 0 90 63 60
        E 0 90 54 60
        E 0 90 57 60
        E 0 90 18 60
        E 0 90 2a 60
        E 120 80 60 00
        E 0 80 63 00
        E 0 80 54 00
        E 0 80 57 00
        E 0 80 18 00
        E 0 80 2a 00
        E 120 90 60 60
        E 0 90 64 60
        E 0 90 54 60
        E 0 90 58 60
        E 0 90 48 60
        E 0 90 4c 60
        E 0 90 40 60
        E 0 90 18 60
        E 0 90 26 60
        E 120 80 60 00
        E 0 80 64 00
        E 0 80 54 00
        E 0 80 58 00
        E 0 80 48 00
        E 0 80 4c 00
        E 0 80 40 00
        E 0 80 18 00
        E 0 80 26 00
        E 120 90 63 60
        E 0 90 57 60
        E 0 90 2a 60
        E 120 80 63 00
        E 0 80 57 00
        E 0 80 2a 00
        E 120 90 60 60
        E 0 90 63 60
        E 0 90 54 60
        E 0 90 57 60
        E 0 90 48 60
        E 0 90 4b 60
        E 0 90 3f 60
        E 0 90 18 60
        E 0 90 2a 60
        E 120 80 60 00
        E 0 80 63 00
        E 0 80 54 00
        E 0 80 57 00
        E 0 80 48 00
        E 0 80 4b 00
        E 0 80 3f 00
        E 0 80 18 00
        E 0 80 2a 00
        E 120 90 60 60
        E 0 90 63 60
        E 0 90 54 60
        E 0 90 57 60
        E 0 90 18 60
        E 0 90 2a 60
        E 120 80 60 00
        E 0 80 63 00
        E 0 80 54 00
        E 0 80 57 00
        E 0 90 60 60
        E 0 80 18 00
        E 0 80 2a 00
        E 0 90 18 60
        E 120 80 60 00
        E 0 90 61 60
        E 0 90 63 60
        E 0 90 55 60
        E 0 90 57 60
        E 0 90 49 60
        E 0 90 4b 60
        E 0 90 3d 60
        E 0 80 18 00
        E 0 90 1a 60
        E 0 90 2a 60
        E 120 80 61 00
        E 0 80 63 00
        E 0 80 55 00
        E 0 80 57 00
        E 0 80 49 00
        E 0 80 4b 00
        E 0 80 3d 00
        E 0 80 1a 00
        E 0 80 2a 00
        E 120 90 60 60
        E 0 90 63 60
        E 0 90 54 60
        E 0 90 57 60
        E 0 90 18 60
        E 0 90 2a 60
        E 120 80 60 00
        E 0 80 63 00
        E 0 80 54 00
        E 0 80 57 00
        E 0 80 18 00
        E 0 80 2a 00
        E 120 90 63 60
        E 0 90 57 60
        E 0 90 4b 60
        E 0 90 3f 60
        E 0 90 2a 60
        E 120 80 63 00
        E 0 80 57 00
        E 0 80 4b 00
        E 0 80 3f 00
        E 0 80 2a 00
        E 120 90 60 60
        E 0 90 63 60
        E 0 90 54 60
        E 0 90 57 60
        E 0 90 18 60
        E 0 90 2a 60
        E 120 80 60 00
        E 0 80 63 00
        E 0 80 54 00
        E 0 80 57 00
        E 0 80 18 00
        E 0 80 2a 00
        E 120 80 74 00
        E 0 90 61 60
        E 0 90 64 60
        E 0 90 55 60
        E 0 90 58 60
        E 0 90 49 60
        E 0 90 4c 60
        E 0 90 3d 60
        E 0 90 1a 60
        E 0 90 26 60
        E 120 80 61 00
        E 0 80 64 00
        E 0 80 55 00
        E 0 80 58 00
        E 0 80 49 00
        E 0 80 4c 00
        E 0 80 3d 00
        E 0 80 1a 00
        E 0 80 26 00
        E 360 90 62 60
        E 0 90 56 60
        E 0 90 4a 60
        E 0 90 3e 60
        E 0 90 1f 60
        E 120 80 62 00
        E 0 80 56 00
        E 0 80 4a 00
        E 0 80 3e 00
        E 0 80 1f 00
        E 120 90 60 60
        E 0 90 54 60
        E 0 90 18 60
        E 120 80 60 00
        E 0 80 54 00
        E 0 80 18 00
        E 120 90 61 60
        E 0 90 64 60
        E 0 90 55 60
        E 0 90 58 60
        E 0 90 49 60
        E 0 90 4c 60
        E 0 90 3d 60
        E 0 90 1a 60
        E 0 90 26 60
        E 120 80 61 00
        E 0 80 64 00
        E 0 80 55 00
        E 0 80 58 00
        E 0 80 49 00
        E 0 80 4c 00
        E 0 80 3d 00
        E 0 80 1a 00
        E 0 80 26 00
        E 360 90 60 60
        E 0 90 62 60
        E 0 90 54 60
        E 0 90 56 60
        E 0 90 48 60
        E 0 90 4a 60
        E 0 90 3e 60
        E 0 90 18 60
        E 0 90 1f 60
        E 120 80 60 00
        E 0 80 62 00
        E 0 80 54 00
        E 0 80 56 00
        E 0 80 48 00
        E 0 80 4a 00
        E 0 80 3e 00
        E 0 80 18 00
        E 0 80 1f 00
        E 360 90 60 60
        E 0 90 61 60
        E 0 90 64 60
        E 0 90 54 60
        E 0 90 55 60
        E 0 90 58 60
        E 0 90 49 60
        E 0 90 4c 60
        E 0 90 3d 60
        E 0 90 18 60
        E 0 90 1a 60
        E 0 90 26 60
        E 120 80 60 00
        E 0 80 61 00
        E 0 80 64 00
        E 0 80 54 00
        E 0 80 55 00
        E 0 80 58 00
        E 0 80 49 00
        E 0 80 4c 00
        E 0 80 3d 00
        E 0 80 18 00
        E 0 80 1a 00
        E 0 80 26 00
        E 360 90 62 60
        E 0 90 56 60
        E 0 90 4a 60
        E 0 90 3e 60
        E 0 90 1f 60
        E 120 80 62 00
        E 0 80 56 00
        E 0 80 4a 00
        E 0 80 3e 00
        E 0 80 1f 00
        E 120 90 60 60
        E 0 90 54 60
        E 0 90 18 60
        E 120 80 60 00
        E 0 80 54 00
        E 0 80 18 00
        E 120 90 61 60
        E 0 90 62 60
        E 0 90 55 60
        E 0 90 56 60
        E 0 90 49 60
        E 0 90 4a 60
        E 0 90 3d 60
        E 0 90 1a 60
        E 0 90 1f 60
        E 120 80 61 00
        E 0 80 62 00
        E 0 80 55 00
        E 0 80 56 00
        E 0 80 49 00
        E 0 80 4a 00
        E 0 80 3d 00
        E 0 80 1a 00
        E 0 80 1f 00
        E 360 90 62 60
        E 0 90 56 60
        E 0 90 4a 60
        E 0 90 3e 60
        E 0 90 1f 60
        E 120 80 62 00
        E 0 80 56 00
        E 0 80 4a 00
        E 0 80 3e 00
        E 0 80 1f 00
        E 120 90 60 60
        E 0 90 54 60
        E 0 90 18 60
        E 120 80 60 00
        E 0 80 54 00
        E 0 80 18 00
        E 120 90 61 60
        E 0 90 62 60
        E 0 90 55 60
        E 0 90 56 60
        E 0 90 49 60
        E 0 90 4a 60
        E 0 90 3d 60
        E 0 90 1a 60
        E 0 90 1f 60
        E 120 80 61 00
        E 0 80 62 00
        E 0 80 55 00
        E 0 80 56 00
        E 0 80 49 00
        E 0 80 4a 00
        E 0 80 3d 00
        E 0 80 1a 00
        E 0 80 1f 00
        E 360 90 62 60
        E 0 90 56 60
        E 0 90 4a 60
        E 0 90 3e 60
        E 0 90 1f 60
        E 120 80 62 00
        E 0 80 56 00
        E 0 80 4a 00
        E 0 80 3e 00
        E 0 80 1f 00
        E 120 90 60 60
        E 0 90 54 60
        E 0 90 18 60
        E 120 80 60 00
        E 0 80 54 00
        E 0 80 18 00
        E 120 90 61 60
        E 0 90 62 60
        E 0 90 55 60
        E 0 90 56 60
        E 0 90 49 60
        E 0 90 4a 60
        E 0 90 3d 60
        E 0 90 1a 60
        E 0 90 1f 60
        E 120 80 61 00
        E 0 80 62 00
        E 0 80 55 00
        E 0 80 56 00
        E 0 80 49 00
        E 0 80 4a 00
        E 0 80 3d 00
        E 0 80 1a 00
        E 0 80 1f 00
        E 360 90 60 60
        E 0 90 62 60
        E 0 90 54 60
        E 0 90 56 60
        E 0 90 48 60
        E 0 90 4a 60
        E 0 90 3e 60
        E 0 90 18 60
        E 0 90 1f 60
        E 120 80 60 00
        E 0 80 62 00
        E 0 80 54 00
        E 0 80 56 00
        E 0 80 48 00
        E 0 80 4a 00
        E 0 80 3e 00
        E 0 80 18 00
        E 0 80 1f 00
        E 360 90 60 60
        E 0 90 61 60
        E 0 90 62 60
        E 0 90 54 60
        E 0 90 55 60
        E 0 90 56 60
        E 0 90 49 60
        E 0 90 4a 60
        E 0 90 3d 60
        E 0 90 18 60
        E 0 90 1a 60
        E 0 90 1f 60
        E 120 80 60 00
        E 0 80 61 00
        E 0 80 62 00
        E 0 80 54 00
        E 0 80 55 00
        E 0 80 56 00
        E 0 80 49 00
        E 0 80 4a 00
        E 0 80 3d 00
        E 0 80 18 00
        E 0 80 1a 00
        E 0 80 1f 00
        E 360 90 62 60
        E 0 90 56 60
        E 0 90 4a 60
        E 0 90 3e 60
        E 0 90 1f 60
        E 120 80 62 00
        E 0 80 56 00
        E 0 80 4a 00
        E 0 80 3e 00
        E 0 80 1f 00
        E 120 90 60 60
        E 0 90 54 60
        E 0 90 18 60
        E 120 80 60 00
        E 0 80 54 00
        E 0 80 18 00
        E 120 90 61 60
        E 0 90 62 60
        E 0 90 55 60
        E 0 90 56 60
        E 0 90 49 60
        E 0 90 4a 60
        E 0 90 3d 60
        E 0 90 1a 60
        E 0 90 1f 60
        E 120 80 61 00
        E 0 80 62 00
        E 0 80 55 00
        E 0 80 56 00
        E 0 80 49 00
        E 0 80 4a 00
        E 0 80 3d 00
        E 0 80 1a 00
        E 0 80 1f 00
        E 360 90 60 60
        E 0 90 62 60
        E 0 90 54 60
        E 0 90 56 60
        E 0 90 48 60
        E 0 90 4a 60
        E 0 90 3e 60
        E 0 90 18 60
        E 0 90 1f 60
        E 120 80 60 00
        E 0 80 62 00
        E 0 80 54 00
        E 0 80 56 00
        E 0 80 48 00
        E 0 80 4a 00
        E 0 80 3e 00
        E 0 80 18 00
        E 0 80 1f 00
        E 360 90 61 60
        E 0 90 62 60
        E 0 90 78 60
        E 0 90 79 60
        E 0 90 7a 60
        E 0 90 7b 60
        E 0 90 7c 60
        E 0 90 55 60
        E 0 90 56 60
        E 0 90 49 60
        E 0 90 4a 60
        E 0 90 3d 60
        E 0 90 1a 60
        E 0 90 1f 60
        E 120 80 61 00
        E 0 80 62 00
        E 0 80 55 00
        E 0 80 56 00
        E 0 80 49 00
        E 0 80 4a 00
        E 0 80 3d 00
        E 0 80 1a 00
        E 0 80 1f 00
        E 360 90 62 60
        E 0 90 56 60
        E 0 90 4a 60
        E 0 90 3e 60
        E 0 90 1f 60
        E 120 80 62 00
        E 0 80 56 00
        E 0 80 4a 00
        E 0 80 3e 00
        E 0 80 1f 00
        E 120 90 60 60
        E 0 90 54 60
        E 0 90 18 60
        E 120 80 60 00
        E 0 80 54 00
        E 0 80 18 00
        E 120 90 61 60
        E 0 90 62 60
        E 0 90 55 60
        E 0 90 56 60
        E 0 90 49 60
        E 0 90 4a 60
        E 0 90 3d 60
        E 0 90 1a 60
        E 0 90 1f 60
        E 120 80 61 00
        E 0 80 62 00
        E 0 80 55 00
        E 0 80 56 00
        E 0 80 49 00
        E 0 80 4a 00
        E 0 80 3d 00
        E 0 80 1a 00
        E 0 80 1f 00
        E 200 90 61 60
        E 0 90 1a 60
        E 80 80 61 00
        E 0 90 61 60
        E 0 80 1a 00
        E 0 90 1b 60
        E 80 80 61 00
        E 0 90 60 60
        E 0 90 61 60
        E 0 90 54 60
        E 0 90 55 60
        E 0 90 49 60
        E 0 90 3d 60
        E 0 80 1b 00
        E 0 90 18 60
        E 0 90 1a 60
        E 120 80 60 00
        E 0 80 61 00
        E 0 80 54 00
        E 0 80 55 00
        E 0 80 49 00
        E 0 80 3d 00
        E 0 80 18 00
        E 0 80 1a 00
        E 120 90 60 60
        E 0 90 54 60
        E 0 90 18 60
        E 120 80 60 00
        E 0 80 54 00
        E 0 80 18 00
        E 120 80 78 00
        E 0 80 79 00
        E 0 80 7a 00
        E 0 80 7b 00
        E 0 80 7c 00
        E 0 90 61 60
        E 0 90 64 60
        E 0 90 55 60
        E 0 90 58 60
        E 0 90 49 60
        E 0 90 4c 60
        E 0 90 3d 60
        E 0 90 1a 60
        E 0 90 26 60
        E 120 80 61 00
        E 0 80 64 00
        E 0 80 55 00
        E 0 80 58 00
        E 0 80 49 00
        E 0 80 4c 00
        E 0 80 3d 00
        E 0 80 1a 00
        E 0 80 26 00
        E 120 90 60 60
        E 0 90 54 60
        E 0 90 18 60
        E 120 80 60 00
        E 0 80 54 00
        E 0 80 18 00
        E 120 90 60 60
        E 0 90 62 60
        E 0 90 54 60
        E 0 90 56 60
        E 0 90 48 60
        E 0 90 4a 60
        E 0 90 3e 60
        E 0 90 18 60
        E 0 90 1f 60
        E 120 80 60 00
        E 0 80 62 00
        E 0 80 54 00
        E 0 80 56 00
        E 0 80 48 00
        E 0 80 4a 00
        E 0 80 3e 00
        E 0 80 18 00
        E 0 80 1f 00
        E 120 90 60 60
        E 0 90 54 60
        E 0 90 18 60
        E 120 80 60 00
        E 0 80 54 00
        E 0 80 18 00
        E 120 90 61 60
        E 0 90 62 60
        E 0 90 55 60
        E 0 90 56 60
        E 0 90 49 60
        E 0 90 4a 60
        E 0 90 3d 60
        E 0 90 1a 60
        E 0 90 1f 60
        E 120 80 61 00
        E 0 80 62 00
        E 0 80 55 00
        E 0 80 56 00
        E 0 80 49 00
        E 0 80 4a 00
        E 0 80 3d 00
        E 0 80 1a 00
        E 0 80 1f 00
        E 120 90 60 60
        E 0 90 54 60
        E 0 90 18 60
        E 120 80 60 00
        E 0 80 54 00
        E 0 80 18 00
        E 120 90 60 60
        E 0 90 62 60
        E 0 90 54 60
        E 0 90 56 60
        E 0 90 48 60
        E 0 90 4a 60
        E 0 90 3e 60
        E 0 90 18 60
        E 0 90 1f 60
        E 120 80 60 00
        E 0 80 62 00
        E 0 80 54 00
        E 0 80 56 00
        E 0 80 48 00
        E 0 80 4a 00
        E 0 80 3e 00
        E 0 80 18 00
        E 0 80 1f 00
        E 120 90 60 60
        E 0 90 54 60
        E 0 90 18 60
        E 120 80 60 00
        E 0 80 54 00
        E 0 80 18 00
        E 120 90 61 60
        E 0 90 62 60
        E 0 90 55 60
        E 0 90 56 60
        E 0 90 49 60
        E 0 90 4a 60
        E 0 90 3d 60
        E 0 90 1a 60
        E 0 90 1f 60
        E 120 80 61 00
        E 0 80 62 00
        E 0 80 55 00
        E 0 80 56 00
        E 0 80 49 00
        E 0 80 4a 00
        E 0 80 3d 00
        E 0 80 1a 00
        E 0 80 1f 00
        E 120 90 60 60
        E 0 90 54 60
        E 0 90 18 60
        E 120 80 60 00
        E 0 80 54 00
        E 0 80 18 00
        E 120 90 60 60
        E 0 90 62 60
        E 0 90 54 60
        E 0 90 56 60
        E 0 90 48 60
        E 0 90 4a 60
        E 0 90 3e 60
        E 0 90 18 60
        E 0 90 1f 60
        E 120 80 60 00
        E 0 80 62 00
        E 0 80 54 00
        E 0 80 56 00
        E 0 80 48 00
        E 0 80 4a 00
        E 0 80 3e 00
        E 0 80 18 00
        E 0 80 1f 00
        E 120 90 60 60
        E 0 90 54 60
        E 0 90 18 60
        E 120 80 60 00
        E 0 80 54 00
        E 0 80 18 00
        E 120 90 61 60
        E 0 90 62 60
        E 0 90 55 60
        E 0 90 56 60
        E 0 90 49 60
        E 0 90 4a 60
        E 0 90 3d 60
        E 0 90 1a 60
        E 0 90 1f 60
        E 120 80 61 00
        E 0 80 62 00
        E 0 80 55 00
        E 0 80 56 00
        E 0 80 49 00
        E 0 80 4a 00
        E 0 80 3d 00
        E 0 80 1a 00
        E 0 80 1f 00
        E 120 90 60 60
        E 0 90 54 60
        E 0 90 18 60
        E 120 80 60 00
        E 0 80 54 00
        E 0 80 18 00
        E 120 90 60 60
        E 0 90 62 60
        E 0 90 54 60
        E 0 90 56 60
        E 0 90 48 60
        E 0 90 4a 60
        E 0 90 3e 60
        E 0 90 18 60
        E 0 90 1f 60
        E 120 80 60 00
        E 0 80 62 00
        E 0 80 54 00
        E 0 80 56 00
        E 0 80 48 00
        E 0 80 4a 00
        E 0 80 3e 00
        E 0 80 18 00
        E 0 80 1f 00
        E 120 90 60 60
        E 0 90 54 60
        E 0 90 18 60
        E 120 80 60 00
        E 0 80 54 00
        E 0 80 18 00
        E 120 90 61 60
        E 0 90 64 60
        E 0 90 55 60
        E 0 90 58 60
        E 0 90 49 60
        E 0 90 4c 60
        E 0 90 3d 60
        E 0 90 1a 60
        E 0 90 26 60
        E 120 80 61 00
        E 0 80 64 00
        E 0 80 55 00
        E 0 80 58 00
        E 0 80 49 00
        E 0 80 4c 00
        E 0 80 3d 00
        E 0 80 1a 00
        E 0 80 26 00
        E 120 90 60 60
        E 0 90 54 60
        E 0 90 18 60
        E 120 80 60 00
        E 0 80 54 00
        E 0 80 18 00
        E 120 90 60 60
        E 0 90 62 60
        E 0 90 54 60
        E 0 90 56 60
        E 0 90 48 60
        E 0 90 4a 60
        E 0 90 3e 60
        E 0 90 18 60
        E 0 90 1f 60
        E 120 80 60 00
        E 0 80 62 00
        E 0 80 54 00
        E 0 80 56 00
        E 0 80 48 00
        E 0 80 4a 00
        E 0 80 3e 00
        E 0 80 18 00
        E 0 80 1f 00
        E 120 90 60 60
        E 0 90 54 60
        E 0 90 18 60
        E 120 80 60 00
        E 0 80 54 00
        E 0 80 18 00
        E 120 90 61 60
        E 0 90 64 60
        E 0 90 55 60
        E 0 90 58 60
        E 0 90 49 60
        E 0 90 4c 60
        E 0 90 3d 60
        E 0 90 1a 60
        E 0 90 26 60
        E 120 80 61 00
        E 0 80 64 00
        E 0 80 55 00
        E 0 80 58 00
        E 0 80 49 00
        E 0 80 4c 00
        E 0 80 3d 00
        E 0 80 1a 00
        E 0 80 26 00
        E 120 90 61 60
        E 0 90 55 60
        E 0 90 1b 60
        E 120 80 61 00
        E 0 80 55 00
        E 0 90 61 60
        E 0 80 1b 00
        E 0 90 1a 60
        E 120 80 61 00
        E 0 90 61 60
        E 0 90 55 60
        E 0 90 49 60
        E 0 90 3d 60
        E 0 80 1a 00
        E 0 90 1b 60
        E 120 80 61 00
        E 0 80 55 00
        E 0 80 49 00
        E 0 80 3d 00
        E 0 90 61 60
        E 0 80 1b 00
        E 0 90 1a 60
        E 120 80 61 00
        E 0 90 61 60
        E 0 90 55 60
        E 0 80 1a 00
        E 0 90 1b 60
        E 120 80 61 00
        E 0 80 55 00
        E 0 90 61 60
        E 0 80 1b 00
        E 0 90 1a 60
        E 120 80 61 00
        E 0 90 62 60
        E 0 90 56 60
        E 0 90 4a 60
        E 0 90 6e 60
        E 0 90 3e 60
        E 0 80 1a 00
        E 0 90 2f 60
        E 120 80 62 00
        E 0 80 56 00
        E 0 80 4a 00
        E 0 80 6e 00
        E 0 80 3e 00
        E 0 90 61 60
        E 0 80 2f 00
        E 0 90 1a 60
        E 120 80 61 00
        E 0 90 61 60
        E 0 90 55 60
        E 0 80 1a 00
        E 0 90 1b 60
        E 120 80 61 00
        E 0 80 55 00
        E 0 90 61 60
        E 0 80 1b 00
        E 0 90 1a 60
        E 120 80 61 00
        E 0 90 63 60
        E 0 90 57 60
        E 0 90 4b 60
        E 0 90 6f 60
        E 0 90 3f 60
        E 0 80 1a 00
        E 0 90 31 60
        E 120 80 63 00
        E 0 80 57 00
        E 0 80 4b 00
        E 0 80 6f 00
        E 0 80 3f 00
        E 0 90 61 60
        E 0 80 31 00
        E 0 90 1a 60
        E 120 80 61 00
        E 0 90 61 60
        E 0 90 55 60
        E 0 80 1a 00
        E 0 90 1b 60
        E 120 80 61 00
        E 0 80 55 00
        E 0 90 61 60
        E 0 80 1b 00
        E 0 90 1a 60
        E 120 80 61 00
        E 0 90 64 60
        E 0 90 58 60
        E 0 90 4c 60
        E 0 90 70 60
        E 0 90 40 60
        E 0 80 1a 00
        E 0 90 33 60
        E 120 80 64 00
        E 0 80 58 00
        E 0 80 4c 00
        E 0 80 70 00
        E 0 80 40 00
        E 0 90 61 60
        E 0 80 33 00
        E 0 90 1a 60
        E 120 80 61 00
        E 0 90 61 60
        E 0 90 55 60
        E 0 80 1a 00
        E 0 90 1b 60
        E 120 80 61 00
        E 0 80 55 00
        E 0 90 61 60
        E 0 80 1b 00
        E 0 90 1a 60
        E 120 80 61 00
        E 0 90 63 60
        E 0 90 57 60
        E 0 90 4b 60
        E 0 90 6f 60
        E 0 90 3f 60
        E 0 80 1a 00
        E 0 90 31 60
        E 120 80 63 00
        E 0 80 57 00
        E 0 80 4b 00
        E 0 80 6f 00
        E 0 80 3f 00
        E 0 90 63 60
        E 0 90 6f 60
        E 0 80 31 00
        E 0 90 30 60
        E 120 80 63 00
        E 0 80 6f 00
        E 0 90 64 60
        E 0 90 58 60
        E 0 90 70 60
        E 0 80 30 00
        E 0 90 33 60
        E 120 80 64 00
        E 0 80 58 00
        E 0 80 70 00
        E 0 90 64 60
        E 0 90 70 60
        E 0 80 33 00
        E 0 90 32 60
        E 120 80 64 00
        E 0 80 70 00
        E 0 90 60 60
        E 0 90 64 60
        E 0 90 74 60
        E 0 90 54 60
        E 0 90 58 60
        E 0 90 48 60
        E 0 90 4c 60
        E 0 90 40 60
        E 0 80 32 00
        E 0 90 18 60
        E 0 90 26 60
        E 120 80 60 00
        E 0 80 64 00
        E 0 80 54 00
        E 0 80 58 00
        E 0 80 48 00
        E 0 80 4c 00
        E 0 80 40 00
        E 0 80 18 00
        E 0 80 26 00
        E 120 90 60 60
        E 0 90 54 60
        E 0 90 18 60
        E 120 80 60 00
        E 0 80 54 00
        E 0 80 18 00
        E 120 90 62 60
        E 0 90 56 60
        E 0 90 4a 60
        E 0 90 3e 60
        E 0 90 1f 60
        E 120 80 62 00
        E 0 80 56 00
        E 0 80 4a 00
        E 0 80 3e 00
        E 0 80 1f 00
        E 120 90 60 60
        E 0 90 54 60
        E 0 90 18 60
        E 120 80 60 00
        E 0 80 54 00
        E 0 80 18 00
        E 120 90 61 60
        E 0 90 62 60
        E 0 90 55 60
        E 0 90 56 60
        E 0 90 49 60
        E 0 90 4a 60
        E 0 90 3d 60
        E 0 90 1a 60
        E 0 90 1f 60
        E 120 80 61 00
        E 0 80 62 00
        E 0 80 55 00
        E 0 80 56 00
        E 0 80 49 00
        E 0 80 4a 00
        E 0 80 3d 00
        E 0 80 1a 00
        E 0 80 1f 00
        E 360 90 60 60
        E 0 90 62 60
        E 0 90 54 60
        E 0 90 56 60
        E 0 90 48 60
        E 0 90 4a 60
        E 0 90 3e 60
        E 0 90 18 60
        E 0 90 1f 60
        E 120 80 60 00
        E 0 80 62 00
        E 0 80 54 00
        E 0 80 56 00
        E 0 80 48 00
        E 0 80 4a 00
        E 0 80 3e 00
        E 0 80 18 00
        E 0 80 1f 00
        E 360 90 60 60
        E 0 90 61 60
        E 0 90 62 60
        E 0 90 54 60
        E 0 90 55 60
        E 0 90 56 60
        E 0 90 49 60
        E 0 90 4a 60
        E 0 90 3d 60
        E 0 90 18 60
        E 0 90 1a 60
        E 0 90 1f 60
        E 120 80 60 00
        E 0 80 61 00
        E 0 80 62 00
        E 0 80 54 00
        E 0 80 55 00
        E 0 80 56 00
        E 0 80 49 00
        E 0 80 4a 00
        E 0 80 3d 00
        E 0 80 18 00
        E 0 80 1a 00
        E 0 80 1f 00
        E 360 90 62 60
        E 0 90 56 60
        E 0 90 4a 60
        E 0 90 3e 60
        E 0 90 1f 60
        E 120 80 62 00
        E 0 80 56 00
        E 0 80 4a 00
        E 0 80 3e 00
        E 0 80 1f 00
        E 120 90 60 60
        E 0 90 54 60
        E 0 90 18 60
        E 120 80 60 00
        E 0 80 54 00
        E 0 80 18 00
        E 120 90 61 60
        E 0 90 62 60
        E 0 90 55 60
        E 0 90 56 60
        E 0 90 49 60
        E 0 90 4a 60
        E 0 90 3d 60
        E 0 90 1a 60
        E 0 90 1f 60
        E 120 80 61 00
        E 0 80 62 00
        E 0 80 55 00
        E 0 80 56 00
        E 0 80 49 00
        E 0 80 4a 00
        E 0 80 3d 00
        E 0 80 1a 00
        E 0 80 1f 00
        E 360 90 60 60
        E 0 90 62 60
        E 0 90 54 60
        E 0 90 56 60
        E 0 90 48 60
        E 0 90 4a 60
        E 0 90 3e 60
        E 0 90 18 60
        E 0 90 1f 60
        E 120 80 60 00
        E 0 80 62 00
        E 0 80 54 00
        E 0 80 56 00
        E 0 80 48 00
        E 0 80 4a 00
        E 0 80 3e 00
        E 0 80 18 00
        E 0 80 1f 00
        E 120 90 60 60
        E 0 90 54 60
        E 0 90 18 60
        E 120 80 60 00
        E 0 80 54 00
        E 0 80 18 00
        E 120 80 74 00
        E 0 90 61 60
        E 0 90 62 60
        E 0 90 55 60
        E 0 90 56 60
        E 0 90 49 60
        E 0 90 4a 60
        E 0 90 3d 60
        E 0 90 1a 60
        E 0 90 1f 60
        E 120 80 61 00
        E 0 80 62 00
        E 0 80 55 00
        E 0 80 56 00
        E 0 80 49 00
        E 0 80 4a 00
        E 0 80 3d 00
        E 0 80 1a 00
        E 0 80 1f 00
        E 360 90 62 60
        E 0 90 56 60
        E 0 90 4a 60
        E 0 90 3e 60
        E 0 90 1f 60
        E 120 80 62 00
        E 0 80 56 00
        E 0 80 4a 00
        E 0 80 3e 00
        E 0 80 1f 00
        E 120 90 60 60
        E 0 90 54 60
        E 0 90 18 60
        E 120 80 60 00
        E 0 80 54 00
        E 0 80 18 00
        E 120 90 61 60
        E 0 90 62 60
        E 0 90 55 60
        E 0 90 56 60
        E 0 90 49 60
        E 0 90 4a 60
        E 0 90 3d 60
        E 0 90 1a 60
        E 0 90 1f 60
        E 120 80 61 00
        E 0 80 62 00
        E 0 80 55 00
        E 0 80 56 00
        E 0 80 49 00
        E 0 80 4a 00
        E 0 80 3d 00
        E 0 80 1a 00
        E 0 80 1f 00
        E 360 90 62 60
        E 0 90 56 60
        E 0 90 4a 60
        E 0 90 3e 60
        E 0 90 1f 60
        E 120 80 62 00
        E 0 80 56 00
        E 0 80 4a 00
        E 0 80 3e 00
        E 0 80 1f 00
        E 120 90 60 60
        E 0 90 54 60
        E 0 90 18 60
        E 120 80 60 00
        E 0 80 54 00
        E 0 90 60 60
        E 0 80 18 00
        E 0 90 18 60
        E 120 80 60 00
        E 0 90 61 60
        E 0 90 62 60
        E 0 90 78 60
        E 0 90 79 60
        E 0 90 7a 60
        E 0 90 7b 60
        E 0 90 7c 60
        E 0 90 55 60
        E 0 90 56 60
        E 0 90 49 60
        E 0 90 4a 60
        E 0 90 3d 60
        E 0 80 18 00
        E 0 90 1a 60
        E 0 90 1f 60
        E 120 80 61 00
        E 0 80 62 00
        E 0 80 55 00
        E 0 80 56 00
        E 0 80 49 00
        E 0 80 4a 00
        E 0 80 3d 00
        E 0 80 1a 00
        E 0 80 1f 00
        E 40 90 61 60
        E 0 90 1a 60
        E 120 80 61 00
        E 0 80 1a 00
        E 40 90 61 60
        E 0 90 1b 60
        E 120 80 61 00
        E 0 80 1b 00
        E 40 90 62 60
        E 0 90 56 60
        E 0 90 4a 60
        E 0 90 6e 60
        E 0 90 3e 60
        E 0 90 2e 60
        E 120 80 62 00
        E 0 80 56 00
        E 0 80 4a 00
        E 0 80 6e 00
        E 0 80 3e 00
        E 0 80 2e 00
        E 40 90 61 60
        E 0 90 1b 60
        E 120 80 61 00
        E 0 80 1b 00
        E 40 90 61 60
        E 0 90 1a 60
        E 120 80 61 00
        E 0 80 1a 00
        E 40 90 61 60
        E 0 90 55 60
        E 0 90 49 60
        E 0 90 3d 60
        E 0 90 1b 60
        E 120 80 61 00
        E 0 80 55 00
        E 0 80 49 00
        E 0 80 3d 00
        E 0 80 1b 00
        E 40 90 61 60
        E 0 90 1a 60
        E 120 80 61 00
        E 0 80 1a 00
        E 40 90 61 60
        E 0 90 1b 60
        E 120 80 61 00
        E 0 80 1b 00
        E 40 90 63 60
        E 0 90 57 60
        E 0 90 4b 60
        E 0 90 6f 60
        E 0 90 3f 60
        E 0 90 30 60
        E 120 80 63 00
        E 0 80 57 00
        E 0 80 4b 00
        E 0 80 3f 00
        E 0 80 30 00
        E 40 90 63 60
        E 0 90 2a 60
        E 120 80 63 00
        E 0 80 2a 00
        E 40 90 63 60
        E 0 90 2b 60
        E 120 80 63 00
        E 0 80 2b 00
        E 40 80 78 00
        E 0 80 79 00
        E 0 80 7a 00
        E 0 80 7b 00
        E 0 80 7c 00
        E 0 80 6f 00
        E 0 90 60 60
        E 0 90 64 60
        E 0 90 54 60
        E 0 90 58 60
        E 0 90 48 60
        E 0 90 4c 60
        E 0 90 40 60
        E 0 90 18 60
        E 0 90 26 60
        E 120 80 60 00
        E 0 80 64 00
        E 0 80 54 00
        E 0 80 58 00
        E 0 80 48 00
        E 0 80 4c 00
        E 0 80 40 00
        E 0 80 18 00
        E 0 80 26 00
        E 360 90 63 60
        E 0 90 57 60
        E 0 90 4b 60
        E 0 90 3f 60
        E 0 90 2a 60
        E 120 80 63 00
        E 0 80 57 00
        E 0 80 4b 00
        E 0 80 3f 00
        E 0 80 2a 00
        E 120 90 60 60
        E 0 90 54 60
        E 0 90 18 60
        E 120 80 60 00
        E 0 80 54 00
        E 0 80 18 00
        E 120 90 60 60
        E 0 90 63 60
        E 0 90 54 60
        E 0 90 57 60
        E 0 90 48 60
        E 0 90 4b 60
        E 0 90 3f 60
        E 0 90 18 60
        E 0 90 2a 60
        E 120 80 60 00
        E 0 80 63 00
        E 0 80 54 00
        E 0 80 57 00
        E 0 80 48 00
        E 0 80 4b 00
        E 0 80 3f 00
        E 0 80 18 00
        E 0 80 2a 00
        E 360 90 63 60
        E 0 90 57 60
        E 0 90 4b 60
        E 0 90 3f 60
        E 0 90 2a 60
        E 120 80 63 00
        E 0 80 57 00
        E 0 80 4b 00
        E 0 80 3f 00
        E 0 80 2a 00
        E 120 90 60 60
        E 0 90 54 60
        E 0 90 18 60
        E 120 80 60 00
        E 0 80 54 00
        E 0 90 60 60
        E 0 80 18 00
        E 0 90 18 60
        E 120 80 60 00
        E 0 90 61 60
        E 0 90 64 60
        E 0 90 55 60
        E 0 90 58 60
        E 0 90 49 60
        E 0 90 4c 60
        E 0 90 3d 60
        E 0 80 18 00
        E 0 90 1a 60
        E 0 90 26 60
        E 120 80 61 00
        E 0 80 64 00
        E 0 80 55 00
        E 0 80 58 00
        E 0 80 49 00
        E 0 80 4c 00
        E 0 80 3d 00
        E 0 80 1a 00
        E 0 80 26 00
        E 120 90 62 60
        E 0 90 56 60
        E 0 90 6e 60
        E 0 90 2f 60
        E 120 80 62 00
        E 0 80 56 00
        E 0 90 62 60
        E 0 80 2f 00
        E 0 90 1e 60
        E 120 80 62 00
        E 0 90 62 60
        E 0 90 56 60
        E 0 90 4a 60
        E 0 90 3e 60
        E 0 80 1e 00
        E 0 90 1f 60
        E 120 80 62 00
        E 0 80 56 00
        E 0 80 4a 00
        E 0 80 3e 00
        E 0 90 62 60
        E 0 80 1f 00
        E 0 90 1e 60
        E 120 80 62 00
        E 0 90 62 60
        E 0 90 56 60
        E 0 80 1e 00
        E 0 90 1f 60
        E 120 80 62 00
        E 0 80 56 00
        E 0 90 62 60
        E 0 80 1f 00
        E 0 90 1e 60
        E 120 80 6e 00
        E 0 80 62 00
        E 0 90 63 60
        E 0 90 57 60
        E 0 90 4b 60
        E 0 90 6f 60
        E 0 90 3f 60
        E 0 80 1e 00
        E 0 90 31 60
        E 120 80 63 00
        E 0 80 57 00
        E 0 80 4b 00
        E 0 80 3f 00
        E 0 90 63 60
        E 0 80 31 00
        E 0 90 2b 60
        E 120 80 63 00
        E 0 90 63 60
        E 0 90 57 60
        E 0 80 2b 00
        E 0 90 2a 60
        E 120 80 63 00
        E 0 80 57 00
        E 0 90 63 60
        E 0 80 2a 00
        E 0 90 2b 60
        E 120 80 6f 00
        E 0 80 63 00
        E 0 90 64 60
        E 0 90 58 60
        E 0 90 4c 60
        E 0 90 70 60
        E 0 90 40 60
        E 0 80 2b 00
        E 0 90 33 60
        E 120 80 64 00
        E 0 80 58 00
        E 0 80 4c 00
        E 0 80 40 00
        E 0 90 64 60
        E 0 80 33 00
        E 0 90 2c 60
        E 120 80 64 00
        E 0 90 64 60
        E 0 90 58 60
        E 0 80 2c 00
        E 0 90 26 60
        E 120 80 64 00
        E 0 80 58 00
        E 0 90 64 60
        E 0 80 26 00
        E 0 90 2c 60
        E 120 80 70 00
        E 0 80 64 00
        E 0 90 60 60
        E 0 90 64 60
        E 0 90 54 60
        E 0 90 58 60
        E 0 90 48 60
        E 0 90 4c 60
        E 0 90 40 60
        E 0 80 2c 00
        E 0 90 18 60
        E 0 90 26 60
        E 120 80 60 00
        E 0 80 64 00
        E 0 80 54 00
        E 0 80 58 00
        E 0 80 48 00
        E 0 80 4c 00
        E 0 80 40 00
        E 0 80 18 00
        E 0 80 26 00
        E 360 90 63 60
        E 0 90 57 60
        E 0 90 4b 60
        E 0 90 3f 60
        E 0 90 2a 60
        E 120 80 63 00
        E 0 80 57 00
        E 0 80 4b 00
        E 0 80 3f 00
        E 0 80 2a 00
        E 120 90 60 60
        E 0 90 54 60
        E 0 90 18 60
        E 120 80 60 00
        E 0 80 54 00
        E 0 80 18 00
        E 120 90 60 60
        E 0 90 63 60
        E 0 90 54 60
        E 0 90 57 60
        E 0 90 48 60
        E 0 90 4b 60
        E 0 90 3f 60
        E 0 90 18 60
        E 0 90 2a 60
        E 120 80 60 00
        E 0 80 63 00
        E 0 80 54 00
        E 0 80 57 00
        E 0 80 48 00
        E 0 80 4b 00
        E 0 80 3f 00
        E 0 80 18 00
        E 0 80 2a 00
        E 360 90 63 60
        E 0 90 57 60
        E 0 90 4b 60
        E 0 90 3f 60
        E 0 90 2a 60
        E 120 80 63 00
        E 0 80 57 00
        E 0 80 4b 00
        E 0 80 3f 00
        E 0 80 2a 00
        E 120 90 60 60
        E 0 90 54 60
        E 0 90 18 60
        E 120 80 60 00
        E 0 80 54 00
        E 0 90 60 60
        E 0 80 18 00
        E 0 90 18 60
        E 120 80 60 00
        E 0 90 61 60
        E 0 90 64 60
        E 0 90 55 60
        E 0 90 58 60
        E 0 90 49 60
        E 0 90 4c 60
        E 0 90 3d 60
        E 0 80 18 00
        E 0 90 1a 60
        E 0 90 26 60
        E 120 80 61 00
        E 0 80 64 00
        E 0 80 55 00
        E 0 80 58 00
        E 0 80 49 00
        E 0 80 4c 00
        E 0 80 3d 00
        E 0 80 1a 00
        E 0 80 26 00
        E 120 90 62 60
        E 0 90 56 60
        E 0 90 6e 60
        E 0 90 2f 60
        E 120 80 62 00
        E 0 80 56 00
        E 0 90 62 60
        E 0 80 2f 00
        E 0 90 1e 60
        E 120 80 62 00
        E 0 90 62 60
        E 0 90 56 60
        E 0 90 4a 60
        E 0 90 3e 60
        E 0 80 1e 00
        E 0 90 1f 60
        E 120 80 62 00
        E 0 80 56 00
        E 0 80 4a 00
        E 0 80 3e 00
        E 0 80 1f 00
        E 120 90 62 60
        E 0 90 56 60
        E 0 90 1f 60
        E 120 80 62 00
        E 0 80 56 00
        E 0 90 62 60
        E 0 80 1f 00
        E 0 90 1e 60
        E 120 80 62 00
        E 0 90 62 60
        E 0 90 56 60
        E 0 90 4a 60
        E 0 90 3e 60
        E 0 80 1e 00
        E 0 90 1f 60
        E 120 80 62 00
        E 0 80 56 00
        E 0 80 4a 00
        E 0 80 3e 00
        E 0 90 62 60
        E 0 80 1f 00
        E 0 90 1e 60
        E 120 80 6e 00
        E 0 80 62 00
        E 0 90 63 60
        E 0 90 57 60
        E 0 90 6f 60
        E 0 80 1e 00
        E 0 90 31 60
        E 120 80 63 00
        E 0 80 57 00
        E 0 80 6f 00
        E 0 90 63 60
        E 0 90 6f 60
        E 0 80 31 00
        E 0 90 30 60
        E 120 80 63 00
        E 0 80 6f 00
        E 0 90 64 60
        E 0 90 58 60
        E 0 90 4c 60
        E 0 90 70 60
        E 0 90 40 60
        E 0 80 30 00
        E 0 90 33 60
        E 120 80 64 00
        E 0 80 58 00
        E 0 80 4c 00
        E 0 80 40 00
        E 0 90 64 60
        E 0 80 33 00
        E 0 90 2c 60
        E 120 80 64 00
        E 0 90 64 60
        E 0 90 58 60
        E 0 80 2c 00
        E 0 90 26 60
        E 120 80 64 00
        E 0 80 58 00
        E 0 90 64 60
        E 0 80 26 00
        E 0 90 2c 60
        E 120 80 70 00
        E 0 80 64 00
        E 0 90 60 60
        E 0 90 64 60
        E 0 90 54 60
        E 0 90 58 60
        E 0 90 48 60
        E 0 90 4c 60
        E 0 90 40 60
        E 0 80 2c 00
        E 0 90 18 60
        E 0 90 26 60
        E 120 80 60 00
        E 0 80 64 00
        E 0 80 54 00
        E 0 80 58 00
        E 0 80 48 00
        E 0 80 4c 00
        E 0 80 40 00
        E 0 80 18 00
        E 0 80 26 00
        E 360 90 63 60
        E 0 90 57 60
        E 0 90 4b 60
        E 0 90 3f 60
        E 0 90 2a 60
        E 120 80 63 00
        E 0 80 57 00
        E 0 80 4b 00
        E 0 80 3f 00
        E 0 80 2a 00
        E 120 90 60 60
        E 0 90 54 60
        E 0 90 18 60
        E 120 80 60 00
        E 0 80 54 00
        E 0 80 18 00
        E 120 90 60 60
        E 0 90 63 60
        E 0 90 54 60
        E 0 90 57 60
        E 0 90 48 60
        E 0 90 4b 60
        E 0 90 3f 60
        E 0 90 18 60
        E 0 90 2a 60
        E 120 80 60 00
        E 0 80 63 00
        E 0 80 54 00
        E 0 80 57 00
        E 0 80 48 00
        E 0 80 4b 00
        E 0 80 3f 00
        E 0 80 18 00
        E 0 80 2a 00
        E 360 90 63 60
        E 0 90 57 60
        E 0 90 4b 60
        E 0 90 3f 60
        E 0 90 2a 60
        E 120 80 63 00
        E 0 80 57 00
        E 0 80 4b 00
        E 0 80 3f 00
        E 0 80 2a 00
        E 120 90 60 60
        E 0 90 54 60
        E 0 90 18 60
        E 120 80 60 00
        E 0 80 54 00
        E 0 90 60 60
        E 0 80 18 00
        E 0 90 18 60
        E 120 80 60 00
        E 0 90 61 60
        E 0 90 64 60
        E 0 90 55 60
        E 0 90 58 60
        E 0 90 49 60
        E 0 90 4c 60
        E 0 90 3d 60
        E 0 80 18 00
        E 0 90 1a 60
        E 0 90 26 60
        E 120 80 61 00
        E 0 80 64 00
        E 0 80 55 00
        E 0 80 58 00
        E 0 80 49 00
        E 0 80 4c 00
        E 0 80 3d 00
        E 0 80 1a 00
        E 0 80 26 00
        E 120 90 60 60
        E 0 90 54 60
        E 0 90 18 60
        E 120 80 60 00
        E 0 80 54 00
        E 0 80 18 00
        E 120 90 60 60
        E 0 90 54 60
        E 0 90 48 60
        E 0 90 3c 60
        E 0 90 18 60
        E 120 80 60 00
        E 0 80 54 00
        E 0 80 48 00
        E 0 80 3c 00
        E 0 80 18 00
        E 120 90 60 60
        E 0 90 54 60
        E 0 90 18 60
        E 120 80 60 00
        E 0 80 54 00
        E 0 80 18 00
        E 120 90 61 60
        E 0 90 64 60
        E 0 90 55 60
        E 0 90 58 60
        E 0 90 49 60
        E 0 90 4c 60
        E 0 90 3d 60
        E 0 90 1a 60
        E 0 90 26 60
        E 120 80 61 00
        E 0 80 64 00
        E 0 80 55 00
        E 0 80 58 00
        E 0 80 49 00
        E 0 80 4c 00
        E 0 80 3d 00
        E 0 80 1a 00
        E 0 80 26 00
        E 360 90 61 60
        E 0 90 62 60
        E 0 90 55 60
        E 0 90 56 60
        E 0 90 49 60
        E 0 90 4a 60
        E 0 90 3d 60
        E 0 90 1a 60
        E 0 90 1f 60
        E 120 80 61 00
        E 0 80 62 00
        E 0 80 55 00
        E 0 80 56 00
        E 0 80 49 00
        E 0 80 4a 00
        E 0 80 3d 00
        E 0 80 1a 00
        E 0 80 1f 00
        E 360 90 60 60
        E 0 90 61 60
        E 0 90 64 60
        E 0 90 74 60
        E 0 90 54 60
        E 0 90 55 60
        E 0 90 58 60
        E 0 90 49 60
        E 0 90 4c 60
        E 0 90 3d 60
        E 0 90 18 60
        E 0 90 1a 60
        E 0 90 26 60
        E 120 80 60 00
        E 0 80 61 00
        E 0 80 64 00
        E 0 80 54 00
        E 0 80 55 00
        E 0 80 58 00
        E 0 80 49 00
        E 0 80 4c 00
        E 0 80 3d 00
        E 0 80 18 00
        E 0 80 1a 00
        E 0 80 26 00
        E 360 90 62 60
        E 0 90 56 60
        E 0 90 4a 60
        E 0 90 3e 60
        E 0 90 1f 60
        E 120 80 62 00
        E 0 80 56 00
        E 0 80 4a 00
        E 0 80 3e 00
        E 0 80 1f 00
        E 120 90 60 60
        E 0 90 54 60
        E 0 90 18 60
        E 120 80 60 00
        E 0 80 54 00
        E 0 80 18 00
        E 120 90 61 60
        E 0 90 62 60
        E 0 90 55 60
        E 0 90 56 60
        E 0 90 49 60
        E 0 90 4a 60
        E 0 90 3d 60
        E 0 90 1a 60
        E 0 90 1f 60
        E 120 80 61 00
        E 0 80 62 00
        E 0 80 55 00
        E 0 80 56 00
        E 0 80 49 00
        E 0 80 4a 00
        E 0 80 3d 00
        E 0 80 1a 00
        E 0 80 1f 00
        E 360 90 60 60
        E 0 90 62 60
        E 0 90 54 60
        E 0 90 56 60
        E 0 90 48 60
        E 0 90 4a 60
        E 0 90 3e 60
        E 0 90 18 60
        E 0 90 1f 60
        E 120 80 60 00
        E 0 80 62 00
        E 0 80 54 00
        E 0 80 56 00
        E 0 80 48 00
        E 0 80 4a 00
        E 0 80 3e 00
        E 0 80 18 00
        E 0 80 1f 00
        E 360 90 61 60
        E 0 90 62 60
        E 0 90 55 60
        E 0 90 56 60
        E 0 90 49 60
        E 0 90 4a 60
        E 0 90 3d 60
        E 0 90 1a 60
        E 0 90 1f 60
        E 120 80 61 00
        E 0 80 62 00
        E 0 80 55 00
        E 0 80 56 00
        E 0 80 49 00
        E 0 80 4a 00
        E 0 80 3d 00
        E 0 80 1a 00
        E 0 80 1f 00
        E 360 90 62 60
        E 0 90 56 60
        E 0 90 4a 60
        E 0 90 3e 60
        E 0 90 1f 60
        E 120 80 62 00
        E 0 80 56 00
        E 0 80 4a 00
        E 0 80 3e 00
        E 0 80 1f 00
        E 120 90 60 60
        E 0 90 54 60
        E 0 90 18 60
        E 120 80 60 00
        E 0 80 54 00
        E 0 80 18 00
        E 120 90 61 60
        E 0 90 62 60
        E 0 90 55 60
        E 0 90 56 60
        E 0 90 49 60
        E 0 90 4a 60
        E 0 90 3d 60
        E 0 90 1a 60
        E 0 90 1f 60
        E 120 80 61 00
        E 0 80 62 00
        E 0 80 55 00
        E 0 80 56 00
        E 0 80 49 00
        E 0 80 4a 00
        E 0 80 3d 00
        E 0 80 1a 00
        E 0 80 1f 00
        E 360 90 62 60
        E 0 90 56 60
        E 0 90 4a 60
        E 0 90 3e 60
        E 0 90 1f 60
        E 120 80 62 00
        E 0 80 56 00
        E 0 80 4a 00
        E 0 80 3e 00
        E 0 80 1f 00
        E 120 90 60 60
        E 0 90 54 60
        E 0 90 18 60
        E 120 80 60 00
        E 0 80 54 00
        E 0 80 18 00
        E 120 80 74 00
        E 0 90 61 60
        E 0 90 62 60
        E 0 90 55 60
        E 0 90 56 60
        E 0 90 49 60
        E 0 90 4a 60
        E 0 90 3d 60
        E 0 90 1a 60
        E 0 90 1f 60
        E 120 80 61 00
        E 0 80 62 00
        E 0 80 55 00
        E 0 80 56 00
        E 0 80 49 00
        E 0 80 4a 00
        E 0 80 3d 00
        E 0 80 1a 00
        E 0 80 1f 00
        E 360 90 62 60
        E 0 90 56 60
        E 0 90 4a 60
        E 0 90 3e 60
        E 0 90 1f 60
        E 120 80 62 00
        E 0 80 56 00
        E 0 80 4a 00
        E 0 80 3e 00
        E 0 80 1f 00
        E 120 90 60 60
        E 0 90 54 60
        E 0 90 18 60
        E 120 80 60 00
        E 0 80 54 00
        E 0 80 18 00
        E 120 90 61 60
        E 0 90 62 60
        E 0 90 55 60
        E 0 90 56 60
        E 0 90 49 60
        E 0 90 4a 60
        E 0 90 3d 60
        E 0 90 1a 60
        E 0 90 1f 60
        E 120 80 61 00
        E 0 80 62 00
        E 0 80 55 00
        E 0 80 56 00
        E 0 80 49 00
        E 0 80 4a 00
        E 0 80 3d 00
        E 0 80 1a 00
        E 0 80 1f 00
        E 40 90 61 60
        E 0 90 1a 60
        E 120 80 61 00
        E 0 80 1a 00
        E 40 90 61 60
        E 0 90 1b 60
        E 120 80 61 00
        E 0 80 1b 00
        E 40 90 62 60
        E 0 90 56 60
        E 0 90 4a 60
        E 0 90 6e 60
        E 0 90 3e 60
        E 0 90 2e 60
        E 120 80 62 00
        E 0 80 56 00
        E 0 80 4a 00
        E 0 80 6e 00
        E 0 80 3e 00
        E 0 80 2e 00
        E 200 90 61 60
        E 0 90 1a 60
        E 120 80 61 00
        E 0 80 1a 00
        E 40 90 61 60
        E 0 90 78 60
        E 0 90 79 60
        E 0 90 7a 60
        E 0 90 7b 60
        E 0 90 7c 60
        E 0 90 55 60
        E 0 90 49 60
        E 0 90 3d 60
        E 0 90 1b 60
        E 120 80 61 00
        E 0 80 55 00
        E 0 80 49 00
        E 0 80 3d 00
        E 0 80 1b 00
        E 40 90 61 60
        E 0 90 1a 60
        E 120 80 61 00
        E 0 80 1a 00
        E 40 90 61 60
        E 0 90 1b 60
        E 120 80 61 00
        E 0 80 1b 00
        E 40 90 61 60
        E 0 90 55 60
        E 0 90 49 60
        E 0 90 3d 60
        E 0 90 1a 60
        E 120 80 61 00
        E 0 80 55 00
        E 0 80 49 00
        E 0 80 3d 00
        E 0 80 1a 00
        E 40 90 61 60
        E 0 90 1b 60
        E 80 90 6e 60
        E 40 80 61 00
        E 0 80 1b 00
        E 40 90 62 60
        E 0 90 1e 60
        E 120 80 62 00
        E 0 80 1e 00
        E 40 90 62 60
        E 0 90 56 60
        E 0 90 4a 60
        E 0 90 3e 60
        E 0 90 1f 60
        E 120 80 62 00
        E 0 80 56 00
        E 0 80 4a 00
        E 0 80 3e 00
        E 0 80 1f 00
        E 40 90 62 60
        E 0 90 1e 60
        E 120 80 62 00
        E 0 80 1e 00
        E 40 90 62 60
        E 0 90 1f 60
        E 40 90 6f 60
        E 80 80 62 00
        E 0 80 1f 00
        E 40 80 6e 00
        E 0 90 63 60
        E 0 90 57 60
        E 0 90 4b 60
        E 0 90 3f 60
        E 0 90 2b 60
        E 120 80 63 00
        E 0 80 57 00
        E 0 80 4b 00
        E 0 80 3f 00
        E 0 80 2b 00
        E 40 90 63 60
        E 0 90 2a 60
        E 120 80 63 00
        E 0 80 2a 00
        E 40 90 63 60
        E 0 90 2b 60
        E 120 80 63 00
        E 0 80 2b 00
        E 40 80 78 00
        E 0 80 79 00
        E 0 80 7a 00
        E 0 80 7b 00
        E 0 80 7c 00
        E 0 80 6f 00
        E 0 90 60 60
        E 0 90 64 60
        E 0 90 54 60
        E 0 90 58 60
        E 0 90 48 60
        E 0 90 4c 60
        E 0 90 40 60
        E 0 90 18 60
        E 0 90 26 60
        E 120 80 60 00
        E 0 80 64 00
        E 0 80 54 00
        E 0 80 58 00
        E 0 80 48 00
        E 0 80 4c 00
        E 0 80 40 00
        E 0 80 18 00
        E 0 80 26 00
        E 360 90 63 60
        E 0 90 57 60
        E 0 90 4b 60
        E 0 90 3f 60
        E 0 90 2a 60
        E 120 80 63 00
        E 0 80 57 00
        E 0 80 4b 00
        E 0 80 3f 00
        E 0 80 2a 00
        E 120 90 60 60
        E 0 90 54 60
        E 0 90 18 60
        E 120 80 60 00
        E 0 80 54 00
        E 0 80 18 00
        E 120 90 60 60
        E 0 90 63 60
        E 0 90 54 60
        E 0 90 57 60
        E 0 90 48 60
        E 0 90 4b 60
        E 0 90 3f 60
        E 0 90 18 60
        E 0 90 2a 60
        E 120 80 60 00
        E 0 80 63 00
        E 0 80 54 00
        E 0 80 57 00
        E 0 80 48 00
        E 0 80 4b 00
        E 0 80 3f 00
        E 0 80 18 00
        E 0 80 2a 00
        E 360 90 63 60
        E 0 90 57 60
        E 0 90 4b 60
        E 0 90 3f 60
        E 0 90 2a 60
        E 120 80 63 00
        E 0 80 57 00
        E 0 80 4b 00
        E 0 80 3f 00
        E 0 80 2a 00
        E 120 90 60 60
        E 0 90 54 60
        E 0 90 18 60
        E 120 80 60 00
        E 0 80 54 00
        E 0 90 60 60
        E 0 80 18 00
        E 0 90 18 60
        E 120 80 60 00
        E 0 90 61 60
        E 0 90 64 60
        E 0 90 55 60
        E 0 90 58 60
        E 0 90 49 60
        E 0 90 4c 60
        E 0 90 3d 60
        E 0 80 18 00
        E 0 90 1a 60
        E 0 90 26 60
        E 120 80 61 00
        E 0 80 64 00
        E 0 80 55 00
        E 0 80 58 00
        E 0 80 49 00
        E 0 80 4c 00
        E 0 80 3d 00
        E 0 80 1a 00
        E 0 80 26 00
        E 120 90 62 60
        E 0 90 56 60
        E 0 90 6e 60
        E 0 90 2f 60
        E 120 80 62 00
        E 0 80 56 00
        E 0 90 62 60
        E 0 80 2f 00
        E 0 90 1e 60
        E 120 80 62 00
        E 0 90 62 60
        E 0 90 56 60
        E 0 90 4a 60
        E 0 90 3e 60
        E 0 80 1e 00
        E 0 90 1f 60
        E 120 80 62 00
        E 0 80 56 00
        E 0 80 4a 00
        E 0 80 3e 00
        E 0 90 62 60
        E 0 80 1f 00
        E 0 90 1e 60
        E 120 80 6e 00
        E 0 80 62 00
        E 0 90 63 60
        E 0 90 57 60
        E 0 90 6f 60
        E 0 80 1e 00
        E 0 90 31 60
        E 120 80 63 00
        E 0 80 57 00
        E 0 90 63 60
        E 0 80 31 00
        E 0 90 2b 60
        E 120 80 63 00
        E 0 90 63 60
        E 0 90 57 60
        E 0 90 4b 60
        E 0 90 3f 60
        E 0 80 2b 00
        E 0 90 2a 60
        E 120 80 63 00
        E 0 80 57 00
        E 0 80 4b 00
        E 0 80 3f 00
        E 0 90 63 60
        E 0 80 2a 00
        E 0 90 2b 60
        E 120 80 6f 00
        E 0 80 63 00
        E 0 90 64 60
        E 0 90 58 60
        E 0 90 70 60
        E 0 80 2b 00
        E 0 90 33 60
        E 120 80 64 00
        E 0 80 58 00
        E 0 90 64 60
        E 0 80 33 00
        E 0 90 2c 60
        E 120 80 64 00
        E 0 90 64 60
        E 0 90 58 60
        E 0 90 4c 60
        E 0 90 40 60
        E 0 80 2c 00
        E 0 90 26 60
        E 120 80 64 00
        E 0 80 58 00
        E 0 80 4c 00
        E 0 80 40 00
        E 0 90 64 60
        E 0 80 26 00
        E 0 90 2c 60
        E 120 80 64 00
        E 0 90 64 60
        E 0 90 58 60
        E 0 80 2c 00
        E 0 90 26 60
        E 120 80 64 00
        E 0 80 58 00
        E 0 90 64 60
        E 0 80 26 00
        E 0 90 2c 60
        E 120 80 70 00
        E 0 80 64 00
        E 0 90 60 60
        E 0 90 64 60
        E 0 90 54 60
        E 0 90 58 60
        E 0 90 48 60
        E 0 90 4c 60
        E 0 90 40 60
        E 0 80 2c 00
        E 0 90 18 60
        E 0 90 26 60
        E 120 80 60 00
        E 0 80 64 00
        E 0 80 54 00
        E 0 80 58 00
        E 0 80 48 00
        E 0 80 4c 00
        E 0 80 40 00
        E 0 80 18 00
        E 0 80 26 00
        E 360 90 63 60
        E 0 90 57 60
        E 0 90 4b 60
        E 0 90 3f 60
        E 0 90 2a 60
        E 120 80 63 00
        E 0 80 57 00
        E 0 80 4b 00
        E 0 80 3f 00
        E 0 80 2a 00
        E 120 90 60 60
        E 0 90 54 60
        E 0 90 18 60
        E 120 80 60 00
        E 0 80 54 00
        E 0 80 18 00
        E 120 90 60 60
        E 0 90 63 60
        E 0 90 54 60
        E 0 90 57 60
        E 0 90 48 60
        E 0 90 4b 60
        E 0 90 3f 60
        E 0 90 18 60
        E 0 90 2a 60
        E 120 80 60 00
        E 0 80 63 00
        E 0 80 54 00
        E 0 80 57 00
        E 0 80 48 00
        E 0 80 4b 00
        E 0 80 3f 00
        E 0 80 18 00
        E 0 80 2a 00
        E 360 90 63 60
        E 0 90 57 60
        E 0 90 4b 60
        E 0 90 3f 60
        E 0 90 2a 60
        E 120 80 63 00
        E 0 80 57 00
        E 0 80 4b 00
        E 0 80 3f 00
        E 0 80 2a 00
        E 120 90 60 60
        E 0 90 54 60
        E 0 90 18 60
        E 120 80 60 00
        E 0 80 54 00
        E 0 90 60 60
        E 0 80 18 00
        E 0 90 18 60
        E 120 80 60 00
        E 0 90 61 60
        E 0 90 64 60
        E 0 90 55 60
        E 0 90 58 60
        E 0 90 49 60
        E 0 90 4c 60
        E 0 90 3d 60
        E 0 80 18 00
        E 0 90 1a 60
        E 0 90 26 60
        E 120 80 61 00
        E 0 80 64 00
        E 0 80 55 00
        E 0 80 58 00
        E 0 80 49 00
        E 0 80 4c 00
        E 0 80 3d 00
        E 0 80 1a 00
        E 0 80 26 00
        E 120 90 60 60
        E 0 90 64 60
        E 0 90 54 60
        E 0 90 58 60
        E 0 90 18 60
        E 0 90 26 60
        E 120 80 60 00
        E 0 80 64 00
        E 0 80 54 00
        E 0 80 58 00
        E 0 80 18 00
        E 0 80 26 00
        E 240 90 60 60
        E 0 90 64 60
        E 0 90 54 60
        E 0 90 58 60
        E 0 90 18 60
        E 0 90 26 60
        E 120 80 60 00
        E 0 80 64 00
        E 0 80 54 00
        E 0 80 58 00
        E 0 80 18 00
        E 0 80 26 00
        E 240 90 60 60
        E 0 90 63 60
        E 0 90 54 60
        E 0 90 57 60
        E 0 90 48 60
        E 0 90 4b 60
        E 0 90 3f 60
        E 0 90 18 60
        E 0 90 2a 60
        E 120 80 60 00
        E 0 80 63 00
        E 0 80 54 00
        E 0 80 57 00
        E 0 80 48 00
        E 0 80 4b 00
        E 0 80 3f 00
        E 0 80 18 00
        E 0 80 2a 00
        E 200 90 60 60
        E 0 90 64 60
        E 0 90 54 60
        E 0 90 58 60
        E 0 90 18 60
        E 0 90 26 60
        E 120 80 60 00
        E 0 80 64 00
        E 0 80 54 00
        E 0 80 58 00
        E 0 80 18 00
        E 0 80 26 00
        E 240 90 60 60
        E 0 90 63 60
        E 0 90 54 60
        E 0 90 57 60
        E 0 90 18 60
        E 0 90 2a 60
        E 120 80 60 00
        E 0 80 63 00
        E 0 80 54 00
        E 0 80 57 00
        E 0 80 18 00
        E 0 80 2a 00
        E 160 90 60 60
        E 0 90 64 60
        E 0 90 54 60
        E 0 90 58 60
        E 0 90 48 60
        E 0 90 4c 60
        E 0 90 40 60
        E 0 90 18 60
        E 0 90 26 60
        E 120 80 60 00
        E 0 80 64 00
        E 0 80 54 00
        E 0 80 58 00
        E 0 80 48 00
        E 0 80 4c 00
        E 0 80 40 00
        E 0 80 18 00
        E 0 80 26 00
        E 360 90 63 60
        E 0 90 57 60
        E 0 90 4b 60
        E 0 90 3f 60
        E 0 90 2a 60
        E 120 80 63 00
        E 0 80 57 00
        E 0 80 4b 00
        E 0 80 3f 00
        E 0 80 2a 00
        E 120 90 60 60
        E 0 90 54 60
        E 0 90 18 60
        E 120 80 60 00
        E 0 80 54 00
        E 0 80 18 00
        E 120 90 60 60
        E 0 90 63 60
        E 0 90 54 60
        E 0 90 57 60
        E 0 90 48 60
        E 0 90 4b 60
        E 0 90 3f 60
        E 0 90 18 60
        E 0 90 2a 60
        E 120 80 60 00
        E 0 80 63 00
        E 0 80 54 00
        E 0 80 57 00
        E 0 80 48 00
        E 0 80 4b 00
        E 0 80 3f 00
        E 0 80 18 00
        E 0 80 2a 00
        E 360 90 63 60
        E 0 90 57 60
        E 0 90 4b 60
        E 0 90 3f 60
        E 0 90 2a 60
        E 120 80 63 00
        E 0 80 57 00
        E 0 80 4b 00
        E 0 80 3f 00
        E 0 80 2a 00
        E 120 90 60 60
        E 0 90 54 60
        E 0 90 18 60
        E 120 80 60 00
        E 0 80 54 00
        E 0 90 60 60
        E 0 80 18 00
        E 0 90 18 60
        E 120 80 60 00
        E 0 90 61 60
        E 0 90 64 60
        E 0 90 55 60
        E 0 90 58 60
        E 0 90 49 60
        E 0 90 4c 60
        E 0 90 3d 60
        E 0 80 18 00
        E 0 90 1a 60
        E 0 90 26 60
        E 120 80 61 00
        E 0 80 64 00
        E 0 80 55 00
        E 0 80 58 00
        E 0 80 49 00
        E 0 80 4c 00
        E 0 80 3d 00
        E 0 80 1a 00
        E 0 80 26 00
        E 360 90 62 60
        E 0 90 56 60
        E 0 90 4a 60
        E 0 90 3e 60
        E 0 90 1f 60
        E 120 80 62 00
        E 0 80 56 00
        E 0 80 4a 00
        E 0 80 3e 00
        E 0 80 1f 00
        E 120 90 60 60
        E 0 90 54 60
        E 0 90 18 60
        E 120 80 60 00
        E 0 80 54 00
        E 0 80 18 00
        E 120 90 61 60
        E 0 90 64 60
        E 0 90 55 60
        E 0 90 58 60
        E 0 90 49 60
        E 0 90 4c 60
        E 0 90 3d 60
        E 0 90 1a 60
        E 0 90 26 60
        E 120 80 61 00
        E 0 80 64 00
        E 0 80 55 00
        E 0 80 58 00
        E 0 80 49 00
        E 0 80 4c 00
        E 0 80 3d 00
        E 0 80 1a 00
        E 0 80 26 00
        E 360 90 62 60
        E 0 90 56 60
        E 0 90 4a 60
        E 0 90 3e 60
        E 0 90 1f 60
        E 120 80 62 00
        E 0 80 56 00
        E 0 80 4a 00
        E 0 80 3e 00
        E 0 80 1f 00
        E 360 90 60 60
        E 0 90 64 60
        E 0 90 54 60
        E 0 90 58 60
        E 0 90 48 60
        E 0 90 4c 60
        E 0 90 40 60
        E 0 90 18 60
        E 0 90 26 60
        E 120 80 60 00
        E 0 80 64 00
        E 0 80 54 00
        E 0 80 58 00
        E 0 80 48 00
        E 0 80 4c 00
        E 0 80 40 00
        E 0 90 61 60
        E 0 80 18 00
        E 0 80 26 00
        E 0 90 1a 60
        E 120 80 61 00
        E 0 90 61 60
        E 0 90 55 60
        E 0 80 1a 00
        E 0 90 1b 60
        E 120 80 61 00
        E 0 80 55 00
        E 0 90 61 60
        E 0 80 1b 00
        E 0 90 1a 60
        E 120 80 61 00
        E 0 90 61 60
        E 0 90 55 60
        E 0 90 49 60
        E 0 90 3d 60
        E 0 80 1a 00
        E 0 90 1b 60
        E 120 80 61 00
        E 0 80 55 00
        E 0 80 49 00
        E 0 80 3d 00
        E 0 90 61 60
        E 0 80 1b 00
        E 0 90 1a 60
        E 120 80 61 00
        E 0 90 61 60
        E 0 90 55 60
        E 0 80 1a 00
        E 0 90 1b 60
        E 120 80 61 00
        E 0 80 55 00
        E 0 90 61 60
        E 0 80 1b 00
        E 0 90 1a 60
        E 120 80 61 00
        E 0 90 61 60
        E 0 90 55 60
        E 0 90 49 60
        E 0 90 3d 60
        E 0 80 1a 00
        E 0 90 1b 60
        E 120 80 61 00
        E 0 80 55 00
        E 0 80 49 00
        E 0 80 3d 00
        E 0 90 61 60
        E 0 80 1b 00
        E 0 90 1a 60
        E 120 80 61 00
        E 0 90 61 60
        E 0 90 55 60
        E 0 80 1a 00
        E 0 90 1b 60
        E 120 80 61 00
        E 0 80 55 00
        E 0 90 61 60
        E 0 80 1b 00
        E 0 90 1a 60
        E 120 80 61 00
        E 0 90 61 60
        E 0 90 55 60
        E 0 90 49 60
        E 0 90 3d 60
        E 0 80 1a 00
        E 0 90 1b 60
        E 120 80 61 00
        E 0 80 55 00
        E 0 80 49 00
        E 0 80 3d 00
        E 0 90 61 60
        E 0 80 1b 00
        E 0 90 1a 60
        E 120 80 61 00
        E 0 90 61 60
        E 0 90 55 60
        E 0 80 1a 00
        E 0 90 1b 60
        E 120 80 61 00
        E 0 80 55 00
        E 0 90 61 60
        E 0 80 1b 00
        E 0 90 1a 60
        E 120 80 61 00
        E 0 90 62 60
        E 0 90 56 60
        E 0 90 4a 60
        E 0 90 6e 60
        E 0 90 3e 60
        E 0 80 1a 00
        E 0 90 2f 60
        E 120 80 62 00
        E 0 80 56 00
        E 0 80 4a 00
        E 0 80 3e 00
        E 0 90 61 60
        E 0 80 2f 00
        E 0 90 1a 60
        E 120 80 61 00
        E 0 90 61 60
        E 0 90 55 60
        E 0 80 1a 00
        E 0 90 1b 60
        E 120 80 61 00
        E 0 80 55 00
        E 0 90 63 60
        E 0 90 6f 60
        E 0 80 1b 00
        E 0 90 30 60
        E 120 80 63 00
        E 0 90 61 60
        E 0 90 55 60
        E 0 90 49 60
        E 0 90 3d 60
        E 0 80 30 00
        E 0 90 1b 60
        E 120 80 61 00
        E 0 80 55 00
        E 0 80 49 00
        E 0 80 3d 00
        E 0 90 61 60
        E 0 80 1b 00
        E 0 90 1a 60
        E 120 80 61 00
        E 0 90 62 60
        E 0 90 56 60
        E 0 80 1a 00
        E 0 90 1f 60
        E 120 80 62 00
        E 0 80 56 00
        E 0 90 61 60
        E 0 80 1f 00
        E 0 90 1a 60
        E 120 80 61 00
        E 0 90 61 60
        E 0 90 55 60
        E 0 90 49 60
        E 0 90 3d 60
        E 0 80 1a 00
        E 0 90 1b 60
        E 120 80 61 00
        E 0 80 55 00
        E 0 80 49 00
        E 0 80 3d 00
        E 0 90 61 60
        E 0 80 1b 00
        E 0 90 1a 60
        E 120 80 61 00
        E 0 90 61 60
        E 0 90 55 60
        E 0 80 1a 00
        E 0 90 1b 60
        E 120 80 61 00
        E 0 80 55 00
        E 0 90 61 60
        E 0 80 1b 00
        E 0 90 1a 60
        E 120 80 61 00
        E 0 90 61 60
        E 0 90 55 60
        E 0 90 49 60
        E 0 90 3d 60
        E 0 80 1a 00
        E 0 90 1b 60
        E 120 80 61 00
        E 0 80 55 00
        E 0 80 49 00
        E 0 80 3d 00
        E 0 90 61 60
        E 0 80 1b 00
        E 0 90 1a 60
        E 120 80 61 00
        E 0 90 61 60
        E 0 90 55 60
        E 0 80 1a 00
        E 0 90 1b 60
        E 120 80 61 00
        E 0 80 55 00
        E 0 90 61 60
        E 0 80 1b 00
        E 0 90 1a 60
        E 120 80 61 00
        E 0 90 62 60
        E 0 90 56 60
        E 0 90 4a 60
        E 0 90 3e 60
        E 0 80 1a 00
        E 0 90 1f 60
        E 120 80 62 00
        E 0 80 56 00
        E 0 80 4a 00
        E 0 80 3e 00
        E 0 90 61 60
        E 0 80 1f 00
        E 0 90 1a 60
        E 120 80 61 00
        E 0 90 61 60
        E 0 90 55 60
        E 0 80 1a 00
        E 0 90 1b 60
        E 120 80 61 00
        E 0 80 55 00
        E 0 90 62 60
        E 0 80 1b 00
        E 0 90 1e 60
        E 120 80 62 00
        E 0 90 62 60
        E 0 90 56 60
        E 0 90 4a 60
        E 0 90 3e 60
        E 0 80 1e 00
        E 0 90 1f 60
        E 120 80 62 00
        E 0 80 56 00
        E 0 80 4a 00
        E 0 80 3e 00
        E 0 90 61 60
        E 0 80 1f 00
        E 0 90 1a 60
        E 120 80 6e 00
        E 0 80 61 00
        E 0 90 63 60
        E 0 90 57 60
        E 0 80 1a 00
        E 0 90 2a 60
        E 120 80 63 00
        E 0 80 57 00
        E 0 90 61 60
        E 0 80 2a 00
        E 0 90 1a 60
        E 120 80 61 00
        E 0 90 61 60
        E 0 90 55 60
        E 0 90 49 60
        E 0 90 3d 60
        E 0 80 1a 00
        E 0 90 1b 60
        E 120 80 6f 00
        E 0 80 61 00
        E 0 80 55 00
        E 0 80 49 00
        E 0 80 3d 00
        E 0 90 61 60
        E 0 80 1b 00
        E 0 90 1a 60
        E 120 80 61 00
        E 0 90 61 60
        E 0 90 55 60
        E 0 80 1a 00
        E 0 90 1b 60
        E 120 80 61 00
        E 0 80 55 00
        E 0 90 61 60
        E 0 80 1b 00
        E 0 90 1a 60
        E 120 80 61 00
        E 0 90 61 60
        E 0 90 55 60
        E 0 90 49 60
        E 0 90 3d 60
        E 0 80 1a 00
        E 0 90 1b 60
        E 120 80 61 00
        E 0 80 55 00
        E 0 80 49 00
        E 0 80 3d 00
        E 0 90 61 60
        E 0 80 1b 00
        E 0 90 1a 60
        E 120 80 61 00
        E 0 90 61 60
        E 0 90 55 60
        E 0 80 1a 00
        E 0 90 1b 60
        E 120 80 61 00
        E 0 80 55 00
        E 0 90 61 60
        E 0 80 1b 00
        E 0 90 1a 60
        E 120 80 61 00
        E 0 90 61 60
        E 0 90 55 60
        E 0 90 49 60
        E 0 90 3d 60
        E 0 80 1a 00
        E 0 90 1b 60
        E 120 80 61 00
        E 0 80 55 00
        E 0 80 49 00
        E 0 80 3d 00
        E 0 90 61 60
        E 0 80 1b 00
        E 0 90 1a 60
        E 120 80 61 00
        E 0 90 61 60
        E 0 90 55 60
        E 0 80 1a 00
        E 0 90 1b 60
        E 120 80 61 00
        E 0 80 55 00
        E 0 90 61 60
        E 0 80 1b 00
        E 0 90 1a 60
        E 120 80 61 00
        E 0 90 61 60
        E 0 90 55 60
        E 0 90 49 60
        E 0 90 3d 60
        E 0 80 1a 00
        E 0 90 1b 60
        E 120 80 61 00
        E 0 80 55 00
        E 0 80 49 00
        E 0 80 3d 00
        E 0 90 61 60
        E 0 80 1b 00
        E 0 90 1a 60
        E 120 80 61 00
        E 0 90 61 60
        E 0 90 55 60
        E 0 80 1a 00
        E 0 90 1b 60
        E 120 80 61 00
        E 0 80 55 00
        E 0 90 61 60
        E 0 80 1b 00
        E 0 90 1a 60
        E 120 80 61 00
        E 0 90 61 60
        E 0 90 55 60
        E 0 90 49 60
        E 0 90 3d 60
        E 0 80 1a 00
        E 0 90 1b 60
        E 120 80 61 00
        E 0 80 55 00
        E 0 80 49 00
        E 0 80 3d 00
        E 0 90 61 60
        E 0 80 1b 00
        E 0 90 1a 60
        E 120 80 61 00
        E 0 90 61 60
        E 0 90 55 60
        E 0 80 1a 00
        E 0 90 1b 60
        E 120 80 61 00
        E 0 80 55 00
        E 0 90 61 60
        E 0 80 1b 00
        E 0 90 1a 60
        E 120 80 61 00
        E 0 90 61 60
        E 0 90 55 60
        E 0 90 49 60
        E 0 90 3d 60
        E 0 80 1a 00
        E 0 90 1b 60
        E 120 80 61 00
        E 0 80 55 00
        E 0 80 49 00
        E 0 80 3d 00
        E 0 90 61 60
        E 0 80 1b 00
        E 0 90 1a 60
        E 120 80 61 00
        E 0 90 61 60
        E 0 90 55 60
        E 0 80 1a 00
        E 0 90 1b 60
        E 120 80 61 00
        E 0 80 55 00
        E 0 90 61 60
        E 0 80 1b 00
        E 0 90 1a 60
        E 120 80 61 00
        E 0 90 60 60
        E 0 90 64 60
        E 0 90 74 60
        E 0 90 54 60
        E 0 90 58 60
        E 0 90 48 60
        E 0 90 4c 60
        E 0 90 40 60
        E 0 80 1a 00
        E 0 90 18 60
        E 0 90 26 60
        E 120 80 60 00
        E 0 80 64 00
        E 0 80 54 00
        E 0 80 58 00
        E 0 80 48 00
        E 0 80 4c 00
        E 0 80 40 00
        E 0 80 18 00
        E 0 80 26 00
        E 120 90 61 60
        E 0 90 55 60
        E 0 90 1b 60
        E 120 80 61 00
        E 0 80 55 00
        E 0 90 60 60
        E 0 90 64 60
        E 0 80 1b 00
        E 0 90 18 60
        E 0 90 2c 60
        E 120 80 60 00
        E 0 80 64 00
        E 0 80 18 00
        E 0 80 2c 00
        E 120 90 60 60
        E 0 90 18 60
        E 120 80 60 00
        E 0 90 61 60
        E 0 90 62 60
        E 0 90 55 60
        E 0 90 56 60
        E 0 80 18 00
        E 0 90 1a 60
        E 0 90 1f 60
        E 120 80 61 00
        E 0 80 62 00
        E 0 80 55 00
        E 0 80 56 00
        E 0 80 1a 00
        E 0 80 1f 00
        E 120 90 60 60
        E 0 90 62 60
        E 0 90 54 60
        E 0 90 56 60
        E 0 90 48 60
        E 0 90 4a 60
        E 0 90 3e 60
        E 0 90 18 60
        E 0 90 1f 60
        E 120 80 60 00
        E 0 80 62 00
        E 0 80 54 00
        E 0 80 56 00
        E 0 80 48 00
        E 0 80 4a 00
        E 0 80 3e 00
        E 0 90 60 60
        E 0 80 18 00
        E 0 80 1f 00
        E 0 90 18 60
        E 120 80 60 00
        E 0 90 61 60
        E 0 90 62 60
        E 0 90 55 60
        E 0 90 56 60
        E 0 80 18 00
        E 0 90 1a 60
        E 0 90 1f 60
        E 120 80 61 00
        E 0 80 62 00
        E 0 80 55 00
        E 0 80 56 00
        E 0 90 60 60
        E 0 80 1a 00
        E 0 80 1f 00
        E 0 90 18 60
        E 120 80 60 00
        E 0 90 62 60
        E 0 90 56 60
        E 0 90 4a 60
        E 0 90 3e 60
        E 0 80 18 00
        E 0 90 1f 60
        E 120 80 62 00
        E 0 80 56 00
        E 0 80 4a 00
        E 0 80 3e 00
        E 0 90 60 60
        E 0 80 1f 00
        E 0 90 18 60
        E 120 80 60 00
        E 0 90 61 60
        E 0 90 62 60
        E 0 90 55 60
        E 0 90 56 60
        E 0 80 18 00
        E 0 90 1a 60
        E 0 90 1f 60
        E 120 80 61 00
        E 0 80 62 00
        E 0 80 55 00
        E 0 80 56 00
        E 0 80 1a 00
        E 0 80 1f 00
        E 120 90 60 60
        E 0 90 62 60
        E 0 90 54 60
        E 0 90 56 60
        E 0 90 48 60
        E 0 90 4a 60
        E 0 90 3e 60
        E 0 90 18 60
        E 0 90 1f 60
        E 120 80 60 00
        E 0 80 62 00
        E 0 80 54 00
        E 0 80 56 00
        E 0 80 48 00
        E 0 80 4a 00
        E 0 80 3e 00
        E 0 80 18 00
        E 0 80 1f 00
        E 120 90 61 60
        E 0 90 62 60
        E 0 90 55 60
        E 0 90 56 60
        E 0 90 1a 60
        E 0 90 1f 60
        E 120 80 61 00
        E 0 80 62 00
        E 0 80 55 00
        E 0 80 56 00
        E 0 90 60 60
        E 0 80 1a 00
        E 0 80 1f 00
        E 0 90 18 60
        E 120 80 60 00
        E 0 90 62 60
        E 0 90 56 60
        E 0 90 4a 60
        E 0 90 3e 60
        E 0 80 18 00
        E 0 90 1f 60
        E 120 80 62 00
        E 0 80 56 00
        E 0 80 4a 00
        E 0 80 3e 00
        E 0 90 60 60
        E 0 80 1f 00
        E 0 90 18 60
        E 120 80 60 00
        E 0 90 61 60
        E 0 90 62 60
        E 0 90 55 60
        E 0 90 56 60
        E 0 80 18 00
        E 0 90 1a 60
        E 0 90 1f 60
        E 120 80 61 00
        E 0 80 62 00
        E 0 80 55 00
        E 0 80 56 00
        E 0 80 1a 00
        E 0 80 1f 00
        E 120 90 60 60
        E 0 90 62 60
        E 0 90 54 60
        E 0 90 56 60
        E 0 90 48 60
        E 0 90 4a 60
        E 0 90 3e 60
        E 0 90 18 60
        E 0 90 1f 60
        E 120 80 60 00
        E 0 80 62 00
        E 0 80 54 00
        E 0 80 56 00
        E 0 80 48 00
        E 0 80 4a 00
        E 0 80 3e 00
        E 0 90 60 60
        E 0 80 18 00
        E 0 80 1f 00
        E 0 90 18 60
        E 120 80 60 00
        E 0 90 61 60
        E 0 90 62 60
        E 0 90 55 60
        E 0 90 56 60
        E 0 80 18 00
        E 0 90 1a 60
        E 0 90 1f 60
        E 120 80 61 00
        E 0 80 62 00
        E 0 80 55 00
        E 0 80 56 00
        E 0 80 1a 00
        E 0 80 1f 00
        E 120 90 60 60
        E 0 90 62 60
        E 0 90 54 60
        E 0 90 56 60
        E 0 90 48 60
        E 0 90 4a 60
        E 0 90 3e 60
        E 0 90 18 60
        E 0 90 1f 60
        E 120 80 60 00
        E 0 80 62 00
        E 0 80 54 00
        E 0 80 56 00
        E 0 80 48 00
        E 0 80 4a 00
        E 0 80 3e 00
        E 0 80 18 00
        E 0 80 1f 00
        E 120 90 61 60
        E 0 90 62 60
        E 0 90 55 60
        E 0 90 56 60
        E 0 90 1a 60
        E 0 90 1f 60
        E 120 80 61 00
        E 0 80 62 00
        E 0 80 55 00
        E 0 80 56 00
        E 0 80 1a 00
        E 0 80 1f 00
        E 120 80 74 00
        E 0 90 60 60
        E 0 90 62 60
        E 0 90 54 60
        E 0 90 56 60
        E 0 90 48 60
        E 0 90 4a 60
        E 0 90 3e 60
        E 0 90 18 60
        E 0 90 1f 60
        E 120 80 60 00
        E 0 80 62 00
        E 0 80 54 00
        E 0 80 56 00
        E 0 80 48 00
        E 0 80 4a 00
        E 0 80 3e 00
        E 0 80 18 00
        E 0 80 1f 00
        E 120 90 61 60
        E 0 90 62 60
        E 0 90 55 60
        E 0 90 56 60
        E 0 90 1a 60
        E 0 90 1f 60
        E 120 80 61 00
        E 0 80 62 00
        E 0 80 55 00
        E 0 80 56 00
        E 0 90 60 60
        E 0 80 1a 00
        E 0 80 1f 00
        E 0 90 18 60
        E 120 80 60 00
        E 0 90 62 60
        E 0 90 56 60
        E 0 90 4a 60
        E 0 90 3e 60
        E 0 80 18 00
        E 0 90 1f 60
        E 120 80 62 00
        E 0 80 56 00
        E 0 80 4a 00
        E 0 80 3e 00
        E 0 90 60 60
        E 0 80 1f 00
        E 0 90 18 60
        E 120 80 60 00
        E 0 90 61 60
        E 0 90 62 60
        E 0 90 55 60
        E 0 90 56 60
        E 0 80 18 00
        E 0 90 1a 60
        E 0 90 1f 60
        E 120 80 61 00
        E 0 80 62 00
        E 0 80 55 00
        E 0 80 56 00
        E 0 80 1a 00
        E 0 80 1f 00
        E 120 90 60 60
        E 0 90 62 60
        E 0 90 54 60
        E 0 90 56 60
        E 0 90 48 60
        E 0 90 4a 60
        E 0 90 3e 60
        E 0 90 18 60
        E 0 90 1f 60
        E 120 80 60 00
        E 0 80 62 00
        E 0 80 54 00
        E 0 80 56 00
        E 0 80 48 00
        E 0 80 4a 00
        E 0 80 3e 00
        E 0 90 60 60
        E 0 80 18 00
        E 0 80 1f 00
        E 0 90 18 60
        E 120 80 60 00
        E 0 90 61 60
        E 0 90 62 60
        E 0 90 55 60
        E 0 90 56 60
        E 0 80 18 00
        E 0 90 1a 60
        E 0 90 1f 60
        E 120 80 61 00
        E 0 80 62 00
        E 0 80 55 00
        E 0 80 56 00
        E 0 80 1a 00
        E 0 80 1f 00
        E 120 90 60 60
        E 0 90 62 60
        E 0 90 54 60
        E 0 90 56 60
        E 0 90 48 60
        E 0 90 4a 60
        E 0 90 3e 60
        E 0 90 18 60
        E 0 90 1f 60
        E 120 80 60 00
        E 0 80 62 00
        E 0 80 54 00
        E 0 80 56 00
        E 0 80 48 00
        E 0 80 4a 00
        E 0 80 3e 00
        E 0 80 18 00
        E 0 80 1f 00
        E 120 90 61 60
        E 0 90 62 60
        E 0 90 55 60
        E 0 90 56 60
        E 0 90 1a 60
        E 0 90 1f 60
        E 120 80 61 00
        E 0 80 62 00
        E 0 80 55 00
        E 0 80 56 00
        E 0 80 1a 00
        E 0 80 1f 00
        E 120 90 60 60
        E 0 90 62 60
        E 0 90 54 60
        E 0 90 56 60
        E 0 90 48 60
        E 0 90 4a 60
        E 0 90 3e 60
        E 0 90 18 60
        E 0 90 1f 60
        E 120 80 60 00
        E 0 80 62 00
        E 0 80 54 00
        E 0 80 56 00
        E 0 80 48 00
        E 0 80 4a 00
        E 0 80 3e 00
        E 0 80 18 00
        E 0 80 1f 00
        E 120 90 61 60
        E 0 90 62 60
        E 0 90 55 60
        E 0 90 56 60
        E 0 90 1a 60
        E 0 90 1f 60
        E 120 80 61 00
        E 0 80 62 00
        E 0 80 55 00
        E 0 80 56 00
        E 0 90 60 60
        E 0 80 1a 00
        E 0 80 1f 00
        E 0 90 18 60
        E 120 80 60 00
        E 0 90 62 60
        E 0 90 56 60
        E 0 90 4a 60
        E 0 90 3e 60
        E 0 80 18 00
        E 0 90 1f 60
        E 120 80 62 00
        E 0 80 56 00
        E 0 80 4a 00
        E 0 80 3e 00
        E 0 90 60 60
        E 0 80 1f 00
        E 0 90 18 60
        E 120 80 60 00
        E 0 90 61 60
        E 0 90 62 60
        E 0 90 55 60
        E 0 90 56 60
        E 0 80 18 00
        E 0 90 1a 60
        E 0 90 1f 60
        E 120 80 61 00
        E 0 80 62 00
        E 0 80 55 00
        E 0 80 56 00
        E 0 80 1a 00
        E 0 80 1f 00
        E 120 90 60 60
        E 0 90 62 60
        E 0 90 54 60
        E 0 90 56 60
        E 0 90 48 60
        E 0 90 4a 60
        E 0 90 3e 60
        E 0 90 18 60
        E 0 90 1f 60
        E 120 80 60 00
        E 0 80 62 00
        E 0 80 54 00
        E 0 80 56 00
        E 0 80 48 00
        E 0 80 4a 00
        E 0 80 3e 00
        E 0 90 60 60
        E 0 80 18 00
        E 0 80 1f 00
        E 0 90 18 60
        E 120 80 60 00
        E 0 90 61 60
        E 0 90 62 60
        E 0 90 55 60
        E 0 90 56 60
        E 0 80 18 00
        E 0 90 1a 60
        E 0 90 1f 60
        E 120 80 61 00
        E 0 80 62 00
        E 0 80 55 00
        E 0 80 56 00
        E 0 80 1a 00
        E 0 80 1f 00
        E 120 90 60 60
        E 0 90 62 60
        E 0 90 54 60
        E 0 90 56 60
        E 0 90 48 60
        E 0 90 4a 60
        E 0 90 3e 60
        E 0 90 18 60
        E 0 90 1f 60
        E 120 80 60 00
        E 0 80 62 00
        E 0 80 54 00
        E 0 80 56 00
        E 0 80 48 00
        E 0 80 4a 00
        E 0 80 3e 00
        E 0 80 18 00
        E 0 80 1f 00
        E 120 90 61 60
        E 0 90 62 60
        E 0 90 55 60
        E 0 90 56 60
        E 0 90 1a 60
        E 0 90 1f 60
        E 120 80 61 00
        E 0 80 62 00
        E 0 80 55 00
        E 0 80 56 00
        E 0 80 1a 00
        E 0 80 1f 00
        E 120 90 60 60
        E 0 90 62 60
        E 0 90 54 60
        E 0 90 56 60
        E 0 90 48 60
        E 0 90 4a 60
        E 0 90 3e 60
        E 0 90 18 60
        E 0 90 1f 60
        E 120 80 60 00
        E 0 80 62 00
        E 0 80 54 00
        E 0 80 56 00
        E 0 80 48 00
        E 0 80 4a 00
        E 0 80 3e 00
        E 0 80 18 00
        E 0 80 1f 00
        E 120 90 61 60
        E 0 90 62 60
        E 0 90 55 60
        E 0 90 56 60
        E 0 90 1a 60
        E 0 90 1f 60
        E 120 80 61 00
        E 0 80 62 00
        E 0 80 55 00
        E 0 80 56 00
        E 0 80 1a 00
        E 0 80 1f 00
        E 120 90 62 60
        E 0 90 56 60
        E 0 90 4a 60
        E 0 90 3e 60
        E 0 90 1f 60
        E 120 80 62 00
        E 0 80 56 00
        E 0 80 4a 00
        E 0 80 3e 00
        E 0 90 60 60
        E 0 80 1f 00
        E 0 90 18 60
        E 120 80 60 00
        E 0 90 61 60
        E 0 90 62 60
        E 0 90 55 60
        E 0 90 56 60
        E 0 80 18 00
        E 0 90 1a 60
        E 0 90 1f 60
        E 120 80 61 00
        E 0 80 62 00
        E 0 80 55 00
        E 0 80 56 00
        E 0 80 1a 00
        E 0 80 1f 00
        E 120 90 60 60
        E 0 90 62 60
        E 0 90 54 60
        E 0 90 56 60
        E 0 90 48 60
        E 0 90 4a 60
        E 0 90 3e 60
        E 0 90 18 60
        E 0 90 1f 60
        E 120 80 60 00
        E 0 80 62 00
        E 0 80 54 00
        E 0 80 56 00
        E 0 80 48 00
        E 0 80 4a 00
        E 0 80 3e 00
        E 0 90 60 60
        E 0 80 18 00
        E 0 80 1f 00
        E 0 90 18 60
        E 120 80 60 00
        E 0 90 61 60
        E 0 90 62 60
        E 0 90 55 60
        E 0 90 56 60
        E 0 80 18 00
        E 0 90 1a 60
        E 0 90 1f 60
        E 120 80 61 00
        E 0 80 62 00
        E 0 80 55 00
        E 0 80 56 00
        E 0 80 1a 00
        E 0 80 1f 00
        E 120 90 60 60
        E 0 90 62 60
        E 0 90 54 60
        E 0 90 56 60
        E 0 90 48 60
        E 0 90 4a 60
        E 0 90 3e 60
        E 0 90 18 60
        E 0 90 1f 60
        E 120 80 60 00
        E 0 80 62 00
        E 0 80 54 00
        E 0 80 56 00
        E 0 80 48 00
        E 0 80 4a 00
        E 0 80 3e 00
        E 0 80 18 00
        E 0 80 1f 00
        E 120 90 61 60
        E 0 90 62 60
        E 0 90 55 60
        E 0 90 56 60
        E 0 90 1a 60
        E 0 90 1f 60
        E 120 80 61 00
        E 0 80 62 00
        E 0 80 55 00
        E 0 80 56 00
        E 0 80 1a 00
        E 0 80 1f 00
        E 120 90 60 60
        E 0 90 62 60
        E 0 90 54 60
        E 0 90 56 60
        E 0 90 48 60
        E 0 90 4a 60
        E 0 90 3e 60
        E 0 90 18 60
        E 0 90 1f 60
        E 120 80 60 00
        E 0 80 62 00
        E 0 80 54 00
        E 0 80 56 00
        E 0 80 48 00
        E 0 80 4a 00
        E 0 80 3e 00
        E 0 80 18 00
        E 0 80 1f 00
        E 120 90 61 60
        E 0 90 62 60
        E 0 90 55 60
        E 0 90 56 60
        E 0 90 1a 60
        E 0 90 1f 60
        E 120 80 61 00
        E 0 80 62 00
        E 0 80 55 00
        E 0 80 56 00
        E 0 90 60 60
        E 0 80 1a 00
        E 0 80 1f 00
        E 0 90 18 60
        E 120 80 60 00
        E 0 90 62 60
        E 0 90 56 60
        E 0 90 4a 60
        E 0 90 3e 60
        E 0 80 18 00
        E 0 90 1f 60
        E 120 80 62 00
        E 0 80 56 00
        E 0 80 4a 00
        E 0 80 3e 00
        E 0 90 60 60
        E 0 80 1f 00
        E 0 90 18 60
        E 120 80 60 00
        E 0 90 61 60
        E 0 90 62 60
        E 0 90 55 60
        E 0 90 56 60
        E 0 80 18 00
        E 0 90 1a 60
        E 0 90 1f 60
        E 120 80 61 00
        E 0 80 62 00
        E 0 80 55 00
        E 0 80 56 00
        E 0 80 1a 00
        E 0 80 1f 00
        E 120 90 60 60
        E 0 90 62 60
        E 0 90 54 60
        E 0 90 56 60
        E 0 90 48 60
        E 0 90 4a 60
        E 0 90 3e 60
        E 0 90 18 60
        E 0 90 1f 60
        E 120 80 60 00
        E 0 80 62 00
        E 0 80 54 00
        E 0 80 56 00
        E 0 80 48 00
        E 0 80 4a 00
        E 0 80 3e 00
        E 0 90 60 60
        E 0 80 18 00
        E 0 80 1f 00
        E 0 90 18 60
        E 120 80 60 00
        E 0 90 61 60
        E 0 90 62 60
        E 0 90 55 60
        E 0 90 56 60
        E 0 80 18 00
        E 0 90 1a 60
        E 0 90 1f 60
        E 120 80 61 00
        E 0 80 62 00
        E 0 80 55 00
        E 0 80 56 00
        E 0 80 1a 00
        E 0 80 1f 00
        E 120 90 60 60
        E 0 90 62 60
        E 0 90 54 60
        E 0 90 56 60
        E 0 90 48 60
        E 0 90 4a 60
        E 0 90 3e 60
        E 0 90 18 60
        E 0 90 1f 60
        E 120 80 60 00
        E 0 80 62 00
        E 0 80 54 00
        E 0 80 56 00
        E 0 80 48 00
        E 0 80 4a 00
        E 0 80 3e 00
        E 0 80 18 00
        E 0 80 1f 00
        E 120 90 61 60
        E 0 90 62 60
        E 0 90 55 60
        E 0 90 56 60
        E 0 90 1a 60
        E 0 90 1f 60
        E 120 80 61 00
        E 0 80 62 00
        E 0 80 55 00
        E 0 80 56 00
        E 0 80 1a 00
        E 0 80 1f 00
        E 120 90 60 60
        E 0 90 62 60
        E 0 90 54 60
        E 0 90 56 60
        E 0 90 48 60
        E 0 90 4a 60
        E 0 90 3e 60
        E 0 90 18 60
        E 0 90 1f 60
        E 120 80 60 00
        E 0 80 62 00
        E 0 80 54 00
        E 0 80 56 00
        E 0 80 48 00
        E 0 80 4a 00
        E 0 80 3e 00
        E 0 80 18 00
        E 0 80 1f 00
        E 120 90 61 60
        E 0 90 62 60
        E 0 90 55 60
        E 0 90 56 60
        E 0 90 1a 60
        E 0 90 1f 60
        E 120 80 61 00
        E 0 80 62 00
        E 0 80 55 00
        E 0 80 56 00
        E 0 90 60 60
        E 0 80 1a 00
        E 0 80 1f 00
        E 0 90 18 60
        E 120 80 60 00
        E 0 90 62 60
        E 0 90 56 60
        E 0 90 4a 60
        E 0 90 3e 60
        E 0 80 18 00
        E 0 90 1f 60
        E 120 80 62 00
        E 0 80 56 00
        E 0 80 4a 00
        E 0 80 3e 00
        E 0 90 60 60
        E 0 80 1f 00
        E 0 90 18 60
        E 120 80 60 00
        E 0 90 61 60
        E 0 90 62 60
        E 0 90 55 60
        E 0 90 56 60
        E 0 80 18 00
        E 0 90 1a 60
        E 0 90 1f 60
        E 120 80 61 00
        E 0 80 62 00
        E 0 80 55 00
        E 0 80 56 00
        E 0 80 1a 00
        E 0 80 1f 00
        E 120 90 60 60
        E 0 90 62 60
        E 0 90 54 60
        E 0 90 56 60
        E 0 90 48 60
        E 0 90 4a 60
        E 0 90 3e 60
        E 0 90 18 60
        E 0 90 1f 60
        E 120 80 60 00
        E 0 80 62 00
        E 0 80 54 00
        E 0 80 56 00
        E 0 80 48 00
        E 0 80 4a 00
        E 0 80 3e 00
        E 0 90 60 60
        E 0 80 18 00
        E 0 80 1f 00
        E 0 90 18 60
        E 120 80 60 00
        E 0 90 61 60
        E 0 90 62 60
        E 0 90 55 60
        E 0 90 56 60
        E 0 80 18 00
        E 0 90 1a 60
        E 0 90 1f 60
        E 120 80 61 00
        E 0 80 62 00
        E 0 80 55 00
        E 0 80 56 00
        E 0 80 1a 00
        E 0 80 1f 00
        E 120 90 61 60
        E 0 90 55 60
        E 0 90 49 60
        E 0 90 3d 60
        E 0 90 1b 60
        E 120 80 61 00
        E 0 80 55 00
        E 0 80 49 00
        E 0 80 3d 00
        E 0 90 61 60
        E 0 80 1b 00
        E 0 90 1a 60
        E 120 80 61 00
        E 0 90 61 60
        E 0 90 55 60
        E 0 80 1a 00
        E 0 90 1b 60
        E 120 80 61 00
        E 0 80 55 00
        E 0 90 61 60
        E 0 80 1b 00
        E 0 90 1a 60
        E 120 80 61 00
        E 0 90 61 60
        E 0 90 78 60
        E 0 90 79 60
        E 0 90 7a 60
        E 0 90 7b 60
        E 0 90 7c 60
        E 0 90 55 60
        E 0 90 49 60
        E 0 90 3d 60
        E 0 80 1a 00
        E 0 90 1b 60
        E 120 80 61 00
        E 0 80 55 00
        E 0 80 49 00
        E 0 80 3d 00
        E 0 90 61 60
        E 0 80 1b 00
        E 0 90 1a 60
        E 120 80 61 00
        E 0 90 61 60
        E 0 90 55 60
        E 0 80 1a 00
        E 0 90 1b 60
        E 120 80 61 00
        E 0 80 55 00
        E 0 90 61 60
        E 0 80 1b 00
        E 0 90 1a 60
        E 120 80 61 00
        E 0 90 61 60
        E 0 90 55 60
        E 0 90 49 60
        E 0 90 3d 60
        E 0 80 1a 00
        E 0 90 1b 60
        E 120 80 61 00
        E 0 80 55 00
        E 0 80 49 00
        E 0 80 3d 00
        E 0 90 61 60
        E 0 80 1b 00
        E 0 90 1a 60
        E 120 80 61 00
        E 0 90 61 60
        E 0 90 55 60
        E 0 80 1a 00
        E 0 90 1b 60
        E 120 80 61 00
        E 0 80 55 00
        E 0 90 61 60
        E 0 80 1b 00
        E 0 90 1a 60
        E 120 80 61 00
        E 0 90 61 60
        E 0 90 55 60
        E 0 90 49 60
        E 0 90 3d 60
        E 0 80 1a 00
        E 0 90 1b 60
        E 120 80 61 00
        E 0 80 55 00
        E 0 80 49 00
        E 0 80 3d 00
        E 0 90 61 60
        E 0 80 1b 00
        E 0 90 1a 60
        E 120 80 61 00
        E 0 90 61 60
        E 0 90 55 60
        E 0 80 1a 00
        E 0 90 1b 60
        E 120 80 61 00
        E 0 80 55 00
        E 0 90 61 60
        E 0 80 1b 00
        E 0 90 1a 60
        E 120 80 61 00
        E 0 90 61 60
        E 0 90 55 60
        E 0 90 49 60
        E 0 90 3d 60
        E 0 80 1a 00
        E 0 90 1b 60
        E 120 80 61 00
        E 0 80 55 00
        E 0 80 49 00
        E 0 80 3d 00
        E 0 90 61 60
        E 0 80 1b 00
        E 0 90 1a 60
        E 120 80 61 00
        E 0 90 61 60
        E 0 90 55 60
        E 0 80 1a 00
        E 0 90 1b 60
        E 120 80 61 00
        E 0 80 55 00
        E 0 90 61 60
        E 0 80 1b 00
        E 0 90 1a 60
        E 120 80 78 00
        E 0 80 79 00
        E 0 80 7a 00
        E 0 80 7b 00
        E 0 80 7c 00
        E 0 80 61 00
        E 0 90 60 60
        E 0 90 64 60
        E 0 90 54 60
        E 0 90 58 60
        E 0 90 48 60
        E 0 90 4c 60
        E 0 90 40 60
        E 0 80 1a 00
        E 0 90 18 60
        E 0 90 26 60
        E 120 80 60 00
        E 0 80 64 00
        E 0 80 54 00
        E 0 80 58 00
        E 0 80 48 00
        E 0 80 4c 00
        E 0 80 40 00
        E 0 80 18 00
        E 0 80 26 00
        E 120 90 60 60
        E 0 90 63 60
        E 0 90 54 60
        E 0 90 57 60
        E 0 90 18 60
        E 0 90 2a 60
        E 120 80 60 00
        E 0 80 63 00
        E 0 80 54 00
        E 0 80 57 00
        E 0 80 18 00
        E 0 80 2a 00
        E 120 90 60 60
        E 0 90 63 60
        E 0 90 54 60
        E 0 90 57 60
        E 0 90 48 60
        E 0 90 4b 60
        E 0 90 3f 60
        E 0 90 18 60
        E 0 90 2a 60
        E 120 80 60 00
        E 0 80 63 00
        E 0 80 54 00
        E 0 80 57 00
        E 0 80 48 00
        E 0 80 4b 00
        E 0 80 3f 00
        E 0 90 60 60
        E 0 80 18 00
        E 0 80 2a 00
        E 0 90 18 60
        E 120 80 60 00
        E 0 90 61 60
        E 0 90 63 60
        E 0 90 55 60
        E 0 90 57 60
        E 0 80 18 00
        E 0 90 1a 60
        E 0 90 2a 60
        E 120 80 61 00
        E 0 80 63 00
        E 0 80 55 00
        E 0 80 57 00
        E 0 90 60 60
        E 0 80 1a 00
        E 0 80 2a 00
        E 0 90 18 60
        E 120 80 60 00
        E 0 90 61 60
        E 0 90 63 60
        E 0 90 55 60
        E 0 90 57 60
        E 0 90 49 60
        E 0 90 4b 60
        E 0 90 3d 60
        E 0 80 18 00
        E 0 90 1a 60
        E 0 90 2a 60
        E 120 80 61 00
        E 0 80 63 00
        E 0 80 55 00
        E 0 80 57 00
        E 0 80 49 00
        E 0 80 4b 00
        E 0 80 3d 00
        E 0 80 1a 00
        E 0 80 2a 00
        E 120 90 60 60
        E 0 90 63 60
        E 0 90 54 60
        E 0 90 57 60
        E 0 90 18 60
        E 0 90 2a 60
        E 120 80 60 00
        E 0 80 63 00
        E 0 80 54 00
        E 0 80 57 00
        E 0 90 61 60
        E 0 80 18 00
        E 0 80 2a 00
        E 0 90 1a 60
        E 120 80 61 00
        E 0 90 60 60
        E 0 90 63 60
        E 0 90 54 60
        E 0 90 57 60
        E 0 90 48 60
        E 0 90 4b 60
        E 0 90 3f 60
        E 0 80 1a 00
        E 0 90 18 60
        E 0 90 2a 60
        E 120 80 60 00
        E 0 80 63 00
        E 0 80 54 00
        E 0 80 57 00
        E 0 80 48 00
        E 0 80 4b 00
        E 0 80 3f 00
        E 0 90 60 60
        E 0 80 18 00
        E 0 80 2a 00
        E 0 90 18 60
        E 120 80 60 00
        E 0 90 61 60
        E 0 90 63 60
        E 0 90 55 60
        E 0 90 57 60
        E 0 80 18 00
        E 0 90 1a 60
        E 0 90 2a 60
        E 120 80 61 00
        E 0 80 63 00
        E 0 80 55 00
        E 0 80 57 00
        E 0 90 60 60
        E 0 80 1a 00
        E 0 80 2a 00
        E 0 90 18 60
        E 120 80 60 00
        E 0 90 61 60
        E 0 90 63 60
        E 0 90 55 60
        E 0 90 57 60
        E 0 90 49 60
        E 0 90 4b 60
        E 0 90 3d 60
        E 0 80 18 00
        E 0 90 1a 60
        E 0 90 2a 60
        E 120 80 61 00
        E 0 80 63 00
        E 0 80 55 00
        E 0 80 57 00
        E 0 80 49 00
        E 0 80 4b 00
        E 0 80 3d 00
        E 0 80 1a 00
        E 0 80 2a 00
        E 120 90 60 60
        E 0 90 63 60
        E 0 90 54 60
        E 0 90 57 60
        E 0 90 18 60
        E 0 90 2a 60
        E 120 80 60 00
        E 0 80 63 00
        E 0 80 54 00
        E 0 80 57 00
        E 0 90 61 60
        E 0 80 18 00
        E 0 80 2a 00
        E 0 90 1a 60
        E 120 80 61 00
        E 0 90 60 60
        E 0 90 63 60
        E 0 90 54 60
        E 0 90 57 60
        E 0 90 48 60
        E 0 90 4b 60
        E 0 90 3f 60
        E 0 80 1a 00
        E 0 90 18 60
        E 0 90 2a 60
        E 120 80 60 00
        E 0 80 63 00
        E 0 80 54 00
        E 0 80 57 00
        E 0 80 48 00
        E 0 80 4b 00
        E 0 80 3f 00
        E 0 90 60 60
        E 0 80 18 00
        E 0 80 2a 00
        E 0 90 18 60
        E 120 80 60 00
        E 0 90 61 60
        E 0 90 63 60
        E 0 90 55 60
        E 0 90 57 60
        E 0 80 18 00
        E 0 90 1a 60
        E 0 90 2a 60
        E 120 80 61 00
        E 0 80 63 00
        E 0 80 55 00
        E 0 80 57 00
        E 0 80 1a 00
        E 0 80 2a 00
        E 120 90 61 60
        E 0 90 55 60
        E 0 90 49 60
        E 0 90 3d 60
        E 0 90 1b 60
        E 120 80 61 00
        E 0 80 55 00
        E 0 80 49 00
        E 0 80 3d 00
        E 0 90 61 60
        E 0 80 1b 00
        E 0 90 1a 60
        E 120 80 61 00
        E 0 90 61 60
        E 0 90 55 60
        E 0 80 1a 00
        E 0 90 1b 60
        E 120 80 61 00
        E 0 80 55 00
        E 0 90 61 60
        E 0 80 1b 00
        E 0 90 1a 60
        E 120 80 61 00
        E 0 90 61 60
        E 0 90 55 60
        E 0 90 49 60
        E 0 90 3d 60
        E 0 80 1a 00
        E 0 90 1b 60
        E 120 80 61 00
        E 0 80 55 00
        E 0 80 49 00
        E 0 80 3d 00
        E 0 90 61 60
        E 0 80 1b 00
        E 0 90 1a 60
        E 120 80 61 00
        E 0 90 61 60
        E 0 90 55 60
        E 0 80 1a 00
        E 0 90 1b 60
        E 120 80 61 00
        E 0 80 55 00
        E 0 90 61 60
        E 0 80 1b 00
        E 0 90 1a 60
        E 120 80 61 00
        E 0 90 60 60
        E 0 90 64 60
        E 0 90 54 60
        E 0 90 58 60
        E 0 90 48 60
        E 0 90 4c 60
        E 0 90 40 60
        E 0 80 1a 00
        E 0 90 18 60
        E 0 90 26 60
        E 120 80 60 00
        E 0 80 64 00
        E 0 80 54 00
        E 0 80 58 00
        E 0 80 48 00
        E 0 80 4c 00
        E 0 80 40 00
        E 0 80 18 00
        E 0 80 26 00
        E 120 90 63 60
        E 0 90 57 60
        E 0 90 2a 60
        E 120 80 63 00
        E 0 80 57 00
        E 0 90 60 60
        E 0 80 2a 00
        E 0 90 18 60
        E 120 80 60 00
        E 0 90 63 60
        E 0 90 57 60
        E 0 90 4b 60
        E 0 90 3f 60
        E 0 80 18 00
        E 0 90 2a 60
        E 120 80 63 00
        E 0 80 57 00
        E 0 80 4b 00
        E 0 80 3f 00
        E 0 90 60 60
        E 0 80 2a 00
        E 0 90 18 60
        E 120 80 60 00
        E 0 90 61 60
        E 0 90 63 60
        E 0 90 55 60
        E 0 90 57 60
        E 0 80 18 00
        E 0 90 1a 60
        E 0 90 2a 60
        E 120 80 61 00
        E 0 80 63 00
        E 0 80 55 00
        E 0 80 57 00
        E 0 90 60 60
        E 0 80 1a 00
        E 0 80 2a 00
        E 0 90 18 60
        E 120 80 60 00
        E 0 90 61 60
        E 0 90 63 60
        E 0 90 55 60
        E 0 90 57 60
        E 0 90 49 60
        E 0 90 4b 60
        E 0 90 3d 60
        E 0 80 18 00
        E 0 90 1a 60
        E 0 90 2a 60
        E 120 80 61 00
        E 0 80 63 00
        E 0 80 55 00
        E 0 80 57 00
        E 0 80 49 00
        E 0 80 4b 00
        E 0 80 3d 00
        E 0 80 1a 00
        E 0 80 2a 00
        E 120 90 60 60
        E 0 90 63 60
        E 0 90 54 60
        E 0 90 57 60
        E 0 90 18 60
        E 0 90 2a 60
        E 120 80 60 00
        E 0 80 63 00
        E 0 80 54 00
        E 0 80 57 00
        E 0 90 61 60
        E 0 80 18 00
        E 0 80 2a 00
        E 0 90 1a 60
        E 120 80 61 00
        E 0 90 60 60
        E 0 90 63 60
        E 0 90 54 60
        E 0 90 57 60
        E 0 90 48 60
        E 0 90 4b 60
        E 0 90 3f 60
        E 0 80 1a 00
        E 0 90 18 60
        E 0 90 2a 60
        E 120 80 60 00
        E 0 80 63 00
        E 0 80 54 00
        E 0 80 57 00
        E 0 80 48 00
        E 0 80 4b 00
        E 0 80 3f 00
        E 0 90 60 60
        E 0 80 18 00
        E 0 80 2a 00
        E 0 90 18 60
        E 120 80 60 00
        E 0 90 61 60
        E 0 90 63 60
        E 0 90 55 60
        E 0 90 57 60
        E 0 80 18 00
        E 0 90 1a 60
        E 0 90 2a 60
        E 120 80 61 00
        E 0 80 63 00
        E 0 80 55 00
        E 0 80 57 00
        E 0 90 60 60
        E 0 80 1a 00
        E 0 80 2a 00
        E 0 90 18 60
        E 120 80 60 00
        E 0 90 61 60
        E 0 90 63 60
        E 0 90 55 60
        E 0 90 57 60
        E 0 90 49 60
        E 0 90 4b 60
        E 0 90 3d 60
        E 0 80 18 00
        E 0 90 1a 60
        E 0 90 2a 60
        E 120 80 61 00
        E 0 80 63 00
        E 0 80 55 00
        E 0 80 57 00
        E 0 80 49 00
        E 0 80 4b 00
        E 0 80 3d 00
        E 0 80 1a 00
        E 0 80 2a 00
        E 120 90 60 60
        E 0 90 63 60
        E 0 90 54 60
        E 0 90 57 60
        E 0 90 18 60
        E 0 90 2a 60
        E 120 80 60 00
        E 0 80 63 00
        E 0 80 54 00
        E 0 80 57 00
        E 0 90 61 60
        E 0 80 18 00
        E 0 80 2a 00
        E 0 90 1a 60
        E 120 80 61 00
        E 0 90 60 60
        E 0 90 63 60
        E 0 90 54 60
        E 0 90 57 60
        E 0 90 48 60
        E 0 90 4b 60
        E 0 90 3f 60
        E 0 80 1a 00
        E 0 90 18 60
        E 0 90 2a 60
        E 120 80 60 00
        E 0 80 63 00
        E 0 80 54 00
        E 0 80 57 00
        E 0 80 48 00
        E 0 80 4b 00
        E 0 80 3f 00
        E 0 90 60 60
        E 0 80 18 00
        E 0 80 2a 00
        E 0 90 18 60
        E 120 80 60 00
        E 0 90 61 60
        E 0 90 63 60
        E 0 90 55 60
        E 0 90 57 60
        E 0 80 18 00
        E 0 90 1a 60
        E 0 90 2a 60
        E 120 80 61 00
        E 0 80 63 00
        E 0 80 55 00
        E 0 80 57 00
        E 0 80 1a 00
        E 0 80 2a 00
        E 120 90 61 60
        E 0 90 55 60
        E 0 90 49 60
        E 0 90 3d 60
        E 0 90 1b 60
        E 120 80 61 00
        E 0 80 55 00
        E 0 80 49 00
        E 0 80 3d 00
        E 0 90 61 60
        E 0 80 1b 00
        E 0 90 1a 60
        E 120 80 61 00
        E 0 90 61 60
        E 0 90 55 60
        E 0 80 1a 00
        E 0 90 1b 60
        E 120 80 61 00
        E 0 80 55 00
        E 0 90 61 60
        E 0 80 1b 00
        E 0 90 1a 60
        E 120 80 61 00
        E 0 90 61 60
        E 0 90 55 60
        E 0 90 49 60
        E 0 90 3d 60
        E 0 80 1a 00
        E 0 90 1b 60
        E 120 80 61 00
        E 0 80 55 00
        E 0 80 49 00
        E 0 80 3d 00
        E 0 90 61 60
        E 0 80 1b 00
        E 0 90 1a 60
        E 120 80 61 00
        E 0 90 61 60
        E 0 90 55 60
        E 0 80 1a 00
        E 0 90 1b 60
        E 120 80 61 00
        E 0 80 55 00
        E 0 90 61 60
        E 0 80 1b 00
        E 0 90 1a 60
        E 120 80 61 00
        E 0 90 60 60
        E 0 90 64 60
        E 0 90 54 60
        E 0 90 58 60
        E 0 90 48 60
        E 0 90 4c 60
        E 0 90 40 60
        E 0 80 1a 00
        E 0 90 18 60
        E 0 90 26 60
        E 120 80 60 00
        E 0 80 64 00
        E 0 80 54 00
        E 0 80 58 00
        E 0 80 48 00
        E 0 80 4c 00
        E 0 80 40 00
        E 0 90 61 60
        E 0 80 18 00
        E 0 80 26 00
        E 0 90 1a 60
        E 120 80 61 00
        E 0 90 61 60
        E 0 90 55 60
        E 0 80 1a 00
        E 0 90 1b 60
        E 120 80 61 00
        E 0 80 55 00
        E 0 90 60 60
        E 0 90 61 60
        E 0 80 1b 00
        E 0 90 18 60
        E 0 90 1a 60
        E 120 80 60 00
        E 0 80 61 00
        E 0 90 61 60
        E 0 90 55 60
        E 0 90 49 60
        E 0 90 3d 60
        E 0 80 18 00
        E 0 80 1a 00
        E 0 90 1b 60
        E 120 80 61 00
        E 0 80 55 00
        E 0 80 49 00
        E 0 80 3d 00
        E 0 90 60 60
        E 0 80 1b 00
        E 0 90 18 60
        E 120 80 60 00
        E 0 90 61 60
        E 0 90 62 60
        E 0 90 55 60
        E 0 90 56 60
        E 0 80 18 00
        E 0 90 1a 60
        E 0 90 1f 60
        E 120 80 61 00
        E 0 80 62 00
        E 0 80 55 00
        E 0 80 56 00
        E 0 80 1a 00
        E 0 80 1f 00
        E 120 90 61 60
        E 0 90 55 60
        E 0 90 49 60
        E 0 90 3d 60
        E 0 90 1b 60
        E 120 80 61 00
        E 0 80 55 00
        E 0 80 49 00
        E 0 80 3d 00
        E 0 90 61 60
        E 0 80 1b 00
        E 0 90 1a 60
        E 120 80 61 00
        E 0 90 61 60
        E 0 90 55 60
        E 0 80 1a 00
        E 0 90 1b 60
        E 120 80 61 00
        E 0 80 55 00
        E 0 90 61 60
        E 0 80 1b 00
        E 0 90 1a 60
        E 120 80 61 00
        E 0 90 61 60
        E 0 90 55 60
        E 0 90 49 60
        E 0 90 3d 60
        E 0 80 1a 00
        E 0 90 1b 60
        E 120 80 61 00
        E 0 80 55 00
        E 0 80 49 00
        E 0 80 3d 00
        E 0 90 61 60
        E 0 80 1b 00
        E 0 90 1a 60
        E 120 80 61 00
        E 0 90 61 60
        E 0 90 55 60
        E 0 80 1a 00
        E 0 90 1b 60
        E 120 80 61 00
        E 0 80 55 00
        E 0 90 61 60
        E 0 80 1b 00
        E 0 90 1a 60
        E 120 80 61 00
        E 0 90 60 60
        E 0 90 64 60
        E 0 90 54 60
        E 0 90 58 60
        E 0 90 48 60
        E 0 90 4c 60
        E 0 90 40 60
        E 0 80 1a 00
        E 0 90 18 60
        E 0 90 26 60
        E 120 80 60 00
        E 0 80 64 00
        E 0 80 54 00
        E 0 80 58 00
        E 0 80 48 00
        E 0 80 4c 00
        E 0 80 40 00
        E 0 90 61 60
        E 0 80 18 00
        E 0 80 26 00
        E 0 90 1a 60
        E 120 80 61 00
        E 0 90 61 60
        E 0 90 55 60
        E 0 80 1a 00
        E 0 90 1b 60
        E 120 80 61 00
        E 0 80 55 00
        E 0 90 60 60
        E 0 90 61 60
        E 0 80 1b 00
        E 0 90 18 60
        E 0 90 1a 60
        E 120 80 60 00
        E 0 80 61 00
        E 0 90 61 60
        E 0 90 55 60
        E 0 90 49 60
        E 0 90 3d 60
        E 0 80 18 00
        E 0 80 1a 00
        E 0 90 1b 60
        E 120 80 61 00
        E 0 80 55 00
        E 0 80 49 00
        E 0 80 3d 00
        E 0 90 60 60
        E 0 80 1b 00
        E 0 90 18 60
        E 120 80 60 00
        E 0 90 61 60
        E 0 90 62 60
        E 0 90 55 60
        E 0 90 56 60
        E 0 80 18 00
        E 0 90 1a 60
        E 0 90 1f 60
        E 120 80 61 00
        E 0 80 62 00
        E 0 80 55 00
        E 0 80 56 00
        E 0 80 1a 00
        E 0 80 1f 00
        E 120 90 61 60
        E 0 90 55 60
        E 0 90 49 60
        E 0 90 3d 60
        E 0 90 1b 60
        E 120 80 61 00
        E 0 80 55 00
        E 0 80 49 00
        E 0 80 3d 00
        E 0 90 61 60
        E 0 80 1b 00
        E 0 90 1a 60
        E 120 80 61 00
        E 0 90 61 60
        E 0 90 55 60
        E 0 80 1a 00
        E 0 90 1b 60
        E 120 80 61 00
        E 0 80 55 00
        E 0 90 61 60
        E 0 80 1b 00
        E 0 90 1a 60
        E 120 80 61 00
        E 0 90 61 60
        E 0 90 55 60
        E 0 90 49 60
        E 0 90 3d 60
        E 0 80 1a 00
        E 0 90 1b 60
        E 120 80 61 00
        E 0 80 55 00
        E 0 80 49 00
        E 0 80 3d 00
        E 0 90 61 60
        E 0 80 1b 00
        E 0 90 1a 60
        E 120 80 61 00
        E 0 90 61 60
        E 0 90 55 60
        E 0 80 1a 00
        E 0 90 1b 60
        E 120 80 61 00
        E 0 80 55 00
        E 0 90 61 60
        E 0 80 1b 00
        E 0 90 1a 60
        E 120 80 61 00
        E 0 90 60 60
        E 0 90 64 60
        E 0 90 54 60
        E 0 90 58 60
        E 0 90 48 60
        E 0 90 4c 60
        E 0 90 40 60
        E 0 80 1a 00
        E 0 90 18 60
        E 0 90 26 60
        E 120 80 60 00
        E 0 80 64 00
        E 0 80 54 00
        E 0 80 58 00
        E 0 80 48 00
        E 0 80 4c 00
        E 0 80 40 00
        E 0 90 61 60
        E 0 80 18 00
        E 0 80 26 00
        E 0 90 1a 60
        E 120 80 61 00
        E 0 90 61 60
        E 0 90 55 60
        E 0 80 1a 00
        E 0 90 1b 60
        E 120 80 61 00
        E 0 80 55 00
        E 0 90 60 60
        E 0 90 61 60
        E 0 80 1b 00
        E 0 90 18 60
        E 0 90 1a 60
        E 120 80 60 00
        E 0 80 61 00
        E 0 90 61 60
        E 0 90 55 60
        E 0 90 49 60
        E 0 90 3d 60
        E 0 80 18 00
        E 0 80 1a 00
        E 0 90 1b 60
        E 120 80 61 00
        E 0 80 55 00
        E 0 80 49 00
        E 0 80 3d 00
        E 0 90 60 60
        E 0 80 1b 00
        E 0 90 18 60
        E 120 80 60 00
        E 0 90 61 60
        E 0 90 62 60
        E 0 90 55 60
        E 0 90 56 60
        E 0 80 18 00
        E 0 90 1a 60
        E 0 90 1f 60
        E 120 80 61 00
        E 0 80 62 00
        E 0 80 55 00
        E 0 80 56 00
        E 0 80 1a 00
        E 0 80 1f 00
        E 120 90 61 60
        E 0 90 55 60
        E 0 90 49 60
        E 0 90 3d 60
        E 0 90 1b 60
        E 120 80 61 00
        E 0 80 55 00
        E 0 80 49 00
        E 0 80 3d 00
        E 0 90 61 60
        E 0 80 1b 00
        E 0 90 1a 60
        E 120 80 61 00
        E 0 90 61 60
        E 0 90 55 60
        E 0 80 1a 00
        E 0 90 1b 60
        E 120 80 61 00
        E 0 80 55 00
        E 0 90 61 60
        E 0 80 1b 00
        E 0 90 1a 60
        E 120 80 61 00
        E 0 90 61 60
        E 0 90 55 60
        E 0 90 49 60
        E 0 90 3d 60
        E 0 80 1a 00
        E 0 90 1b 60
        E 120 80 61 00
        E 0 80 55 00
        E 0 80 49 00
        E 0 80 3d 00
        E 0 90 61 60
        E 0 80 1b 00
        E 0 90 1a 60
        E 120 80 61 00
        E 0 90 61 60
        E 0 90 55 60
        E 0 80 1a 00
        E 0 90 1b 60
        E 120 80 61 00
        E 0 80 55 00
        E 0 90 61 60
        E 0 80 1b 00
        E 0 90 1a 60
        E 120 80 61 00
        E 0 90 60 60
        E 0 90 64 60
        E 0 90 54 60
        E 0 90 58 60
        E 0 90 48 60
        E 0 90 4c 60
        E 0 90 40 60
        E 0 80 1a 00
        E 0 90 18 60
        E 0 90 26 60
        E 120 80 60 00
        E 0 80 64 00
        E 0 80 54 00
        E 0 80 58 00
        E 0 80 48 00
        E 0 80 4c 00
        E 0 80 40 00
        E 0 90 61 60
        E 0 80 18 00
        E 0 80 26 00
        E 0 90 1a 60
        E 120 80 61 00
        E 0 90 61 60
        E 0 90 55 60
        E 0 80 1a 00
        E 0 90 1b 60
        E 120 80 61 00
        E 0 80 55 00
        E 0 90 60 60
        E 0 90 61 60
        E 0 80 1b 00
        E 0 90 18 60
        E 0 90 1a 60
        E 120 80 60 00
        E 0 80 61 00
        E 0 90 61 60
        E 0 90 55 60
        E 0 90 49 60
        E 0 90 3d 60
        E 0 80 18 00
        E 0 80 1a 00
        E 0 90 1b 60
        E 120 80 61 00
        E 0 80 55 00
        E 0 80 49 00
        E 0 80 3d 00
        E 0 90 60 60
        E 0 80 1b 00
        E 0 90 18 60
        E 120 80 60 00
        E 0 90 61 60
        E 0 90 62 60
        E 0 90 55 60
        E 0 90 56 60
        E 0 80 18 00
        E 0 90 1a 60
        E 0 90 1f 60
        E 120 80 61 00
        E 0 80 62 00
        E 0 80 55 00
        E 0 80 56 00
        E 0 80 1a 00
        E 0 80 1f 00
        E 120 90 61 60
        E 0 90 55 60
        E 0 90 49 60
        E 0 90 3d 60
        E 0 90 1b 60
        E 120 80 61 00
        E 0 80 55 00
        E 0 80 49 00
        E 0 80 3d 00
        E 0 90 61 60
        E 0 80 1b 00
        E 0 90 1a 60
        E 120 80 61 00
        E 0 90 61 60
        E 0 90 55 60
        E 0 80 1a 00
        E 0 90 1b 60
        E 120 80 61 00
        E 0 80 55 00
        E 0 90 61 60
        E 0 80 1b 00
        E 0 90 1a 60
        E 120 80 61 00
        E 0 90 61 60
        E 0 90 55 60
        E 0 90 49 60
        E 0 90 3d 60
        E 0 80 1a 00
        E 0 90 1b 60
        E 120 80 61 00
        E 0 80 55 00
        E 0 80 49 00
        E 0 80 3d 00
        E 0 90 61 60
        E 0 80 1b 00
        E 0 90 1a 60
        E 120 80 61 00
        E 0 90 61 60
        E 0 90 55 60
        E 0 80 1a 00
        E 0 90 1b 60
        E 120 80 61 00
        E 0 80 55 00
        E 0 90 61 60
        E 0 80 1b 00
        E 0 90 1a 60
        E 120 80 61 00
        E 0 90 60 60
        E 0 90 64 60
        E 0 90 54 60
        E 0 90 58 60
        E 0 90 48 60
        E 0 90 4c 60
        E 0 90 40 60
        E 0 80 1a 00
        E 0 90 18 60
        E 0 90 26 60
        E 120 80 60 00
        E 0 80 64 00
        E 0 80 54 00
        E 0 80 58 00
        E 0 80 48 00
        E 0 80 4c 00
        E 0 80 40 00
        E 0 90 61 60
        E 0 80 18 00
        E 0 80 26 00
        E 0 90 1a 60
        E 120 80 61 00
        E 0 90 61 60
        E 0 90 55 60
        E 0 80 1a 00
        E 0 90 1b 60
        E 120 80 61 00
        E 0 80 55 00
        E 0 90 61 60
        E 0 80 1b 00
        E 0 90 1a 60
        E 120 80 61 00
        E 0 90 62 60
        E 0 90 56 60
        E 0 90 4a 60
        E 0 90 6e 60
        E 0 90 3e 60
        E 0 80 1a 00
        E 0 90 2f 60
        E 120 80 62 00
        E 0 80 56 00
        E 0 80 4a 00
        E 0 80 3e 00
        E 0 90 61 60
        E 0 80 2f 00
        E 0 90 1a 60
        E 120 80 61 00
        E 0 90 61 60
        E 0 90 55 60
        E 0 80 1a 00
        E 0 90 1b 60
        E 120 80 61 00
        E 0 80 55 00
        E 0 90 61 60
        E 0 80 1b 00
        E 0 90 1a 60
        E 120 80 61 00
        E 0 90 63 60
        E 0 90 57 60
        E 0 90 4b 60
        E 0 90 6f 60
        E 0 90 3f 60
        E 0 80 1a 00
        E 0 90 31 60
        E 120 80 63 00
        E 0 80 57 00
        E 0 80 4b 00
        E 0 80 3f 00
        E 0 90 61 60
        E 0 80 31 00
        E 0 90 1a 60
        E 120 80 61 00
        E 0 90 61 60
        E 0 90 55 60
        E 0 80 1a 00
        E 0 90 1b 60
        E 120 80 61 00
        E 0 80 55 00
        E 0 90 61 60
        E 0 80 1b 00
        E 0 90 1a 60
        E 120 80 61 00
        E 0 90 64 60
        E 0 90 58 60
        E 0 90 4c 60
        E 0 90 70 60
        E 0 90 40 60
        E 0 80 1a 00
        E 0 90 33 60
        E 120 80 64 00
        E 0 80 58 00
        E 0 80 4c 00
        E 0 80 40 00
        E 0 90 61 60
        E 0 80 33 00
        E 0 90 1a 60
        E 120 80 61 00
        E 0 90 61 60
        E 0 90 55 60
        E 0 80 1a 00
        E 0 90 1b 60
        E 120 80 61 00
        E 0 80 55 00
        E 0 90 62 60
        E 0 80 1b 00
        E 0 90 1e 60
        E 120 80 62 00
        E 0 90 62 60
        E 0 90 56 60
        E 0 90 4a 60
        E 0 90 3e 60
        E 0 80 1e 00
        E 0 90 1f 60
        E 120 80 62 00
        E 0 80 56 00
        E 0 80 4a 00
        E 0 80 3e 00
        E 0 90 61 60
        E 0 80 1f 00
        E 0 90 1a 60
        E 120 80 61 00
        E 0 90 61 60
        E 0 90 55 60
        E 0 80 1a 00
        E 0 90 1b 60
        E 120 80 61 00
        E 0 80 55 00
        E 0 90 61 60
        E 0 80 1b 00
        E 0 90 1a 60
        E 120 80 61 00
        E 0 90 62 60
        E 0 90 56 60
        E 0 90 4a 60
        E 0 90 3e 60
        E 0 80 1a 00
        E 0 90 1f 60
        E 120 80 6e 00
        E 0 80 62 00
        E 0 80 56 00
        E 0 80 4a 00
        E 0 80 3e 00
        E 0 90 61 60
        E 0 80 1f 00
        E 0 90 1a 60
        E 120 80 61 00
        E 0 90 61 60
        E 0 90 55 60
        E 0 80 1a 00
        E 0 90 1b 60
        E 120 80 61 00
        E 0 80 55 00
        E 0 90 61 60
        E 0 80 1b 00
        E 0 90 1a 60
        E 120 80 61 00
        E 0 90 63 60
        E 0 90 57 60
        E 0 90 4b 60
        E 0 90 3f 60
        E 0 80 1a 00
        E 0 90 2a 60
        E 120 80 6f 00
        E 0 80 63 00
        E 0 80 57 00
        E 0 80 4b 00
        E 0 80 3f 00
        E 0 90 61 60
        E 0 80 2a 00
        E 0 90 1a 60
        E 120 80 61 00
        E 0 90 61 60
        E 0 90 55 60
        E 0 80 1a 00
        E 0 90 1b 60
        E 120 80 61 00
        E 0 80 55 00
        E 0 90 61 60
        E 0 80 1b 00
        E 0 90 1a 60
        E 120 80 61 00
        E 0 90 64 60
        E 0 90 58 60
        E 0 90 4c 60
        E 0 90 40 60
        E 0 80 1a 00
        E 0 90 26 60
        E 120 80 64 00
        E 0 80 58 00
        E 0 80 4c 00
        E 0 80 40 00
        E 0 90 64 60
        E 0 80 26 00
        E 0 90 2c 60
        E 120 80 64 00
        E 0 90 64 60
        E 0 90 58 60
        E 0 80 2c 00
        E 0 90 26 60
        E 120 80 70 00
        E 0 80 64 00
        E 0 80 58 00
        E 0 90 60 60
        E 0 80 26 00
        E 0 90 18 60
        E 120 80 60 00
        E 0 90 61 60
        E 0 90 64 60
        E 0 90 55 60
        E 0 90 58 60
        E 0 90 49 60
        E 0 90 4c 60
        E 0 90 3d 60
        E 0 80 18 00
        E 0 90 1a 60
        E 0 90 26 60
        <X 120 0
          /wFbaWRsZV9yZWFsdGltZV0=
        >
        E 0 80 61 00
        E 0 80 64 00
        E 0 80 55 00
        E 0 80 58 00
        E 0 80 49 00
        E 0 80 4c 00
        E 0 80 3d 00
        E 0 80 1a 00
        E 0 80 26 00
        E 2760 b0 7b 00
        GUID {99C52F88-C54B-4CCD-B038-A5C950AC8E6E}
        IGNTEMPO 0 120.00000000 4 4
        SRCCOLOR 1469
        VELLANE 132 38 60
        COLORMAP "C:\Program Files (x86)\REAPER\Data\color_maps\rockband_drums.png"
        BANKPROGRAMFILE "C:\Users\AJFOne23\AppData\Roaming\REAPER/Data/GM.reabank"
        TEXTSTRINGFILE "Text Events List.txt"
        CFGEDITVIEW 282788.082557 45.262165 32 12 0 0 0
        CFGEDIT 1 1 0 0 0 1 1 1 1 1 1 0.25000000 -8 -8 1370 736 1 2 1 2 0.00000000 0 0 0 0 0.500000 1 0 1.000000 64
        KEYSNAP 0 0 "102034050607" 0 "Major"
        EVTFILTER 0 -1 -1 -1 -1 0 1 0 0 -1.00000000 -1.00000000
      >
    >
  >
  <TRACK '{4BCC1CF3-63A3-43C4-A155-D3593AD88A10}'
    NAME "EVENTS"
    PEAKCOL 29393024
    BEAT -1
    AUTOMODE 0
    VOLPAN 1.00000000000000 0.00000000000000 -1.00000000000000 -1.00000000000000 1.00000000000000
    MUTESOLO 0 0 0
    IPHASE 0
    ISBUS 1 1
    BUSCOMP 0 0
    SHOWINMIX 1 0.666700 0.500000 1 0.500000 -1 -1 -1
    FREEMODE 0
    SEL 1
    REC 0 0 0 0 0 0 0
    TRACKHEIGHT 0 0
    INQ 0 0 0 0.5000000000 100 0 0 100
    NCHAN 2
    FX 1
    TRACKID {4BCC1CF3-63A3-43C4-A155-D3593AD88A10}
    PERF 0
    MIDIOUT -1
    MAINSEND 1 0
    <FXCHAIN
      SHOW 0
      LASTSEL 0
      DOCKED 0
    >
    <ITEM
      POSITION 0.00000000000000
      SNAPOFFS 0.00000000000000
      LENGTH 223.55921199999688
      LOOP 0
      ALLTAKES 0
      SEL 0
      FADEIN 1 0.000000 0.000000 1 0
      FADEOUT 1 0.000000 0.000000 1 0
      MUTE 0
      IGUID {86A06D27-867C-4398-9CE6-8F0526B3B594}
      IID 3
      NAME "EVENTS"
      VOLPAN 1.000000 0.000000 1.000000 -1.000000
      SOFFS 0.00000000000000 0.00000000000000
      PLAYRATE 1.00000000000000 1 0.00000000000000 -65536
      CHANMODE 0
      GUID {584C8192-4FF3-4E29-8138-2E6BD568B61A}
      <SOURCE MIDI
        HASDATA 1 480 QN
        POOLEDEVTS {81A83F5C-9ADE-463D-BE0A-661427978D96}
        <X 0 0
          /wNFVkVOVFM=
        >
        <X 0 0
          /wFbY3Jvd2Rfbm9ybWFsXQ==
        >
        <X 0 0
          /wFbcHJjX2ludHJvXQ==
        >
        <X 3840 0
          /wFbbXVzaWNfc3RhcnRd
        >
        <X 14880 0
          /wFbcHJjX3ZlcnNlXzFhXQ==
        >
        <X 15360 0
          /wFbcHJjX3ZlcnNlXzFiXQ==
        >
        <X 23040 0
          /wFbcHJjX2JyaWRnZV9hXQ==
        >
        <X 7680 0
          /wFbcHJjX3ZlcnNlXzJhXQ==
        >
        <X 23040 0
          /wFbcHJjX3ZlcnNlXzJiXQ==
        >
        <X 15360 0
          /wFbcHJjX2Nob3J1c18xYV0=
        >
        <X 10080 0
          /wFbcHJjX2d0cl9zb2xvXQ==
        >
        <X 8160 0
          /wFbcHJjX3ZlcnNlXzNhXQ==
        >
        <X 15360 0
          /wFbcHJjX3ZlcnNlXzNiXQ==
        >
        <X 9600 0
          /wFbcHJjX3ZlcnNlXzNjXQ==
        >
        <X 15360 0
          /wFbcHJjX2Nob3J1c18yYV0=
        >
        <X 6720 0
          /wFbcHJjX291dHJvXQ==
        >
        <X 141120 0
          /wFbbXVzaWNfZW5kXQ==
        >
        <X 2400 0
          /wFbZW5kXQ==
        >
        E 2880 b0 7b 00
        GUID {40AD7956-A22A-434A-8513-4D3792B9DF69}
        IGNTEMPO 0 120.00000000 4 4
        SRCCOLOR 1470
        VELLANE 132 100 100
        COLORMAP "C:\Users\AJFOne23\AppData\Roaming\REAPER\Data\color_maps\rockband_vox-other.png"
        BANKPROGRAMFILE "C:\Users\AJFOne23\AppData\Roaming\REAPER/Data/GM.reabank"
        TEXTSTRINGFILE "Text Events List.txt"
        CFGEDITVIEW 282788.082557 45.262165 0 48 0 0 0
        CFGEDIT 1 1 0 0 0 1 1 1 1 1 1 1.00000000 44 63 1223 847 1 2 1 2 0.00000000 0 0 0 0 0.500000 1 0 1.000000 64
        KEYSNAP 0 0 "102034050607" 0 "Major"
        EVTFILTER 0 -1 -1 -1 -1 0 1 0 0 -1.00000000 -1.00000000
      >
    >
  >
  <TRACK '{1529008F-97D2-43EB-8634-7C5A7418AD90}'
    NAME "VENUE"
    PEAKCOL 16842496
    BEAT -1
    AUTOMODE 0
    VOLPAN 1.00000000000000 0.00000000000000 -1.00000000000000 -1.00000000000000 1.00000000000000
    MUTESOLO 0 0 0
    IPHASE 0
    ISBUS 0 0
    BUSCOMP 0 0
    SHOWINMIX 1 0.666700 0.500000 1 0.500000 -1 -1 -1
    FREEMODE 0
    SEL 0
    REC 0 0 0 0 0 0 0
    TRACKHEIGHT 0 0
    INQ 0 0 0 0.5000000000 100 0 0 100
    NCHAN 2
    FX 1
    TRACKID {1529008F-97D2-43EB-8634-7C5A7418AD90}
    PERF 0
    MIDIOUT -1
    <MIDINOTENAMES
      0 87 "Guitarist Sing Along"
      0 86 "Drummer Sing Along"
      0 85 "Bassist Sing Along"
      0 40 "Spotlight on Vocals"
      0 39 "Spotlight on Guitar"
      0 38 "Spotlight on Drums"
      0 37 "Spotlight on Bass"
      0 41 "Spotlight on Keys"
    >
    MAINSEND 1 0
    <FXCHAIN
      SHOW 0
      LASTSEL 0
      DOCKED 0
    >
    <ITEM
      POSITION 0.00000000000000
      SNAPOFFS 0.00000000000000
      LENGTH 221.58588399999994
      LOOP 0
      ALLTAKES 0
      SEL 0
      FADEIN 1 0.000000 0.000000 1 0
      FADEOUT 1 0.000000 0.000000 1 0
      MUTE 0
      IGUID {71027329-E0AB-447D-A192-4839733334E7}
      IID 4
      NAME "VENUE"
      VOLPAN 1.000000 0.000000 1.000000 -1.000000
      SOFFS 0.00000000000000 0.00000000000000
      PLAYRATE 1.00000000000000 1 0.00000000000000 -65536
      CHANMODE 0
      GUID {44F0FFD1-5109-4A47-8BED-262AA04D3B23}
      <SOURCE MIDI
        HASDATA 1 480 QN
        POOLEDEVTS {C5C73D1A-B8C5-4BB2-BF06-0BC641E3F843}
        <X 0 0
          /wNWRU5VRQ==
        >
        <X 0 0
          /wFbbGlnaHRpbmcgKCld
        >
        E 312000 b0 7b 00
        GUID {30097062-47C5-4B33-B665-170EF09D70D9}
        IGNTEMPO 0 120.00000000 4 4
        SRCCOLOR 1471
        VELLANE 132 230 230
        COLORMAP "M:\RGS Documents\ColorMaps\rockband_vox-other.png"
        BANKPROGRAMFILE "C:\Users\AJFOne23\AppData\Roaming\REAPER/Data/GM.reabank"
        TEXTSTRINGFILE "Text Events List.txt"
        CFGEDITVIEW -4718.717521 82.395269 79 12 0 0 0
        CFGEDIT 1 1 0 0 0 1 1 1 1 1 1 0.25000000 133 19 1300 803 1 0 1 2 0.00000000 0 0 0 0 0.500000 1 0 1.000000 64
        KEYSNAP 0 0 "102034050607" 0 "Major"
        EVTFILTER 0 -1 -1 -1 -1 0 1 0 0 -1.00000000 -1.00000000
      >
    >
  >
  <TRACK '{7BC63EFC-0ABC-4D0D-8204-E9893AE9FFFA}'
    NAME "BEAT"
    PEAKCOL 23514346
    BEAT -1
    AUTOMODE 0
    VOLPAN 1.00000000000000 0.00000000000000 -1.00000000000000 -1.00000000000000 1.00000000000000
    MUTESOLO 0 0 0
    IPHASE 0
    ISBUS 2 -1
    BUSCOMP 1 0
    SHOWINMIX 1 0.666700 0.500000 1 0.500000 -1 -1 -1
    FREEMODE 0
    SEL 0
    REC 0 0 0 0 0 0 0
    TRACKHEIGHT 0 0
    INQ 0 0 0 0.5000000000 100 0 0 100
    NCHAN 2
    FX 1
    TRACKID {7BC63EFC-0ABC-4D0D-8204-E9893AE9FFFA}
    PERF 0
    MIDIOUT -1
    <MIDINOTENAMES
      0 12 "Downbeat"
      0 13 "Up Beats"
    >
    MAINSEND 1 0
    <FXCHAIN
      SHOW 0
      LASTSEL 0
      DOCKED 0
    >
    <ITEM
      POSITION 0.00000000000000
      SNAPOFFS 0.00000000000000
      LENGTH 223.23032399999687
      LOOP 0
      ALLTAKES 0
      SEL 1
      FADEIN 1 0.000000 0.000000 1 0
      FADEOUT 1 0.000000 0.000000 1 0
      MUTE 0
      IGUID {9960CDFD-BF2E-4E67-97CD-4F13D0A3F2ED}
      IID 5
      NAME "BEAT"
      VOLPAN 1.000000 0.000000 1.000000 -1.000000
      SOFFS 0.00000000000000 0.00000000000000
      PLAYRATE 1.00000000000000 1 0.00000000000000 -65536
      CHANMODE 0
      GUID {CEBFDCF1-B2BD-47E1-A085-C26E1C9E9ED2}
      <SOURCE MIDI
        HASDATA 1 480 QN
        POOLEDEVTS {EC92757F-78CC-4D13-A736-844050348A0F}
        <X 0 0
          /wNCRUFU
        >
        e 0 96 0c 64
        e 120 86 0c 00
        e 360 96 0d 64
        e 120 86 0d 00
        e 360 96 0d 64
        e 120 86 0d 00
        e 360 96 0d 64
        e 120 86 0d 00
        e 360 96 0c 64
        e 120 86 0c 00
        e 360 96 0d 64
        e 120 86 0d 00
        e 360 96 0d 64
        e 120 86 0d 00
        e 360 96 0d 64
        e 120 86 0d 00
        e 360 96 0c 64
        e 120 86 0c 00
        e 360 96 0d 64
        e 120 86 0d 00
        e 360 96 0d 64
        e 120 86 0d 00
        e 360 96 0d 64
        e 120 86 0d 00
        e 360 96 0c 64
        e 120 86 0c 00
        e 360 96 0d 64
        e 120 86 0d 00
        e 360 96 0d 64
        e 120 86 0d 00
        e 360 96 0d 64
        e 120 86 0d 00
        e 360 96 0c 64
        e 120 86 0c 00
        e 360 96 0d 64
        e 120 86 0d 00
        e 360 96 0d 64
        e 120 86 0d 00
        e 360 96 0d 64
        e 120 86 0d 00
        e 360 96 0c 64
        e 120 86 0c 00
        e 360 96 0d 64
        e 120 86 0d 00
        e 360 96 0d 64
        e 120 86 0d 00
        e 360 96 0d 64
        e 120 86 0d 00
        e 360 96 0c 64
        e 120 86 0c 00
        e 360 96 0d 64
        e 120 86 0d 00
        e 360 96 0d 64
        e 120 86 0d 00
        e 360 96 0d 64
        e 120 86 0d 00
        e 360 96 0c 64
        e 120 86 0c 00
        e 360 96 0d 64
        e 120 86 0d 00
        e 360 96 0d 64
        e 120 86 0d 00
        e 360 96 0d 64
        e 120 86 0d 00
        e 360 96 0c 64
        e 120 86 0c 00
        e 360 96 0d 64
        e 120 86 0d 00
        e 360 96 0d 64
        e 120 86 0d 00
        e 360 96 0d 64
        e 120 86 0d 00
        e 360 96 0c 64
        e 120 86 0c 00
        e 360 96 0d 64
        e 120 86 0d 00
        e 360 96 0d 64
        e 120 86 0d 00
        e 360 96 0d 64
        e 120 86 0d 00
        e 360 96 0c 64
        e 120 86 0c 00
        e 360 96 0d 64
        e 120 86 0d 00
        e 360 96 0d 64
        e 120 86 0d 00
        e 360 96 0d 64
        e 120 86 0d 00
        e 360 96 0c 64
        e 120 86 0c 00
        e 360 96 0d 64
        e 120 86 0d 00
        e 360 96 0d 64
        e 120 86 0d 00
        e 360 96 0d 64
        e 120 86 0d 00
        e 360 96 0c 64
        e 120 86 0c 00
        e 360 96 0d 64
        e 120 86 0d 00
        e 360 96 0d 64
        e 120 86 0d 00
        e 360 96 0d 64
        e 120 86 0d 00
        e 360 96 0c 64
        e 120 86 0c 00
        e 360 96 0d 64
        e 120 86 0d 00
        e 360 96 0d 64
        e 120 86 0d 00
        e 360 96 0d 64
        e 120 86 0d 00
        e 360 96 0c 64
        e 120 86 0c 00
        e 360 96 0d 64
        e 120 86 0d 00
        e 360 96 0d 64
        e 120 86 0d 00
        e 360 96 0d 64
        e 120 86 0d 00
        e 360 96 0c 64
        e 120 86 0c 00
        e 360 96 0d 64
        e 120 86 0d 00
        e 360 96 0d 64
        e 120 86 0d 00
        e 360 96 0d 64
        e 120 86 0d 00
        e 360 96 0c 64
        e 120 86 0c 00
        e 360 96 0d 64
        e 120 86 0d 00
        e 360 96 0d 64
        e 120 86 0d 00
        e 360 96 0d 64
        e 120 86 0d 00
        e 360 96 0c 64
        e 120 86 0c 00
        e 360 96 0d 64
        e 120 86 0d 00
        e 360 96 0d 64
        e 120 86 0d 00
        e 360 96 0d 64
        e 120 86 0d 00
        e 360 96 0c 64
        e 120 86 0c 00
        e 360 96 0d 64
        e 120 86 0d 00
        e 360 96 0d 64
        e 120 86 0d 00
        e 360 96 0d 64
        e 120 86 0d 00
        e 360 96 0c 64
        e 120 86 0c 00
        e 360 96 0d 64
        e 120 86 0d 00
        e 360 96 0d 64
        e 120 86 0d 00
        e 360 96 0d 64
        e 120 86 0d 00
        e 360 96 0c 64
        e 120 86 0c 00
        e 360 96 0d 64
        e 120 86 0d 00
        e 360 96 0d 64
        e 120 86 0d 00
        e 360 96 0d 64
        e 120 86 0d 00
        e 360 96 0c 64
        e 120 86 0c 00
        e 360 96 0d 64
        e 120 86 0d 00
        e 360 96 0d 64
        e 120 86 0d 00
        e 360 96 0d 64
        e 120 86 0d 00
        e 360 96 0c 64
        e 120 86 0c 00
        e 360 96 0d 64
        e 120 86 0d 00
        e 360 96 0d 64
        e 120 86 0d 00
        e 360 96 0d 64
        e 120 86 0d 00
        e 360 96 0c 64
        e 120 86 0c 00
        e 360 96 0d 64
        e 120 86 0d 00
        e 360 96 0d 64
        e 120 86 0d 00
        e 360 96 0d 64
        e 120 86 0d 00
        e 360 96 0c 64
        e 120 86 0c 00
        e 360 96 0d 64
        e 120 86 0d 00
        e 360 96 0d 64
        e 120 86 0d 00
        e 360 96 0d 64
        e 120 86 0d 00
        e 360 96 0c 64
        e 120 86 0c 00
        e 360 96 0d 64
        e 120 86 0d 00
        e 360 96 0d 64
        e 120 86 0d 00
        e 360 96 0d 64
        e 120 86 0d 00
        e 360 96 0c 64
        e 120 86 0c 00
        e 360 96 0d 64
        e 120 86 0d 00
        e 360 96 0d 64
        e 120 86 0d 00
        e 360 96 0d 64
        e 120 86 0d 00
        e 360 96 0c 64
        e 120 86 0c 00
        e 360 96 0d 64
        e 120 86 0d 00
        e 360 96 0d 64
        e 120 86 0d 00
        e 360 96 0d 64
        e 120 86 0d 00
        e 360 96 0c 64
        e 120 86 0c 00
        e 360 96 0d 64
        e 120 86 0d 00
        e 360 96 0d 64
        e 120 86 0d 00
        e 360 96 0d 64
        e 120 86 0d 00
        e 360 96 0c 64
        e 120 86 0c 00
        e 360 96 0d 64
        e 120 86 0d 00
        e 360 96 0d 64
        e 120 86 0d 00
        e 360 96 0d 64
        e 120 86 0d 00
        e 360 96 0c 64
        e 120 86 0c 00
        e 360 96 0d 64
        e 120 86 0d 00
        e 360 96 0d 64
        e 120 86 0d 00
        e 360 96 0d 64
        e 120 86 0d 00
        e 360 96 0c 64
        e 120 86 0c 00
        e 360 96 0d 64
        e 120 86 0d 00
        e 360 96 0d 64
        e 120 86 0d 00
        e 360 96 0d 64
        e 120 86 0d 00
        e 360 96 0c 64
        e 120 86 0c 00
        e 360 96 0d 64
        e 120 86 0d 00
        e 360 96 0d 64
        e 120 86 0d 00
        e 360 96 0d 64
        e 120 86 0d 00
        e 360 96 0c 64
        e 120 86 0c 00
        e 360 96 0d 64
        e 120 86 0d 00
        e 360 96 0d 64
        e 120 86 0d 00
        e 360 96 0d 64
        e 120 86 0d 00
        e 360 96 0c 64
        e 120 86 0c 00
        e 360 96 0d 64
        e 120 86 0d 00
        e 360 96 0d 64
        e 120 86 0d 00
        e 360 96 0d 64
        e 120 86 0d 00
        e 360 96 0c 64
        e 120 86 0c 00
        e 360 96 0d 64
        e 120 86 0d 00
        e 360 96 0d 64
        e 120 86 0d 00
        e 360 96 0d 64
        e 120 86 0d 00
        e 360 96 0c 64
        e 120 86 0c 00
        e 360 96 0d 64
        e 120 86 0d 00
        e 360 96 0d 64
        e 120 86 0d 00
        e 360 96 0d 64
        e 120 86 0d 00
        e 360 96 0c 64
        e 120 86 0c 00
        e 360 96 0d 64
        e 120 86 0d 00
        e 360 96 0d 64
        e 120 86 0d 00
        e 360 96 0d 64
        e 120 86 0d 00
        e 360 96 0c 64
        e 120 86 0c 00
        e 360 96 0d 64
        e 120 86 0d 00
        e 360 96 0d 64
        e 120 86 0d 00
        e 360 96 0d 64
        e 120 86 0d 00
        e 360 96 0c 64
        e 120 86 0c 00
        e 360 96 0d 64
        e 120 86 0d 00
        e 360 96 0d 64
        e 120 86 0d 00
        e 360 96 0d 64
        e 120 86 0d 00
        e 360 96 0c 64
        e 120 86 0c 00
        e 360 96 0d 64
        e 120 86 0d 00
        e 360 96 0d 64
        e 120 86 0d 00
        e 360 96 0d 64
        e 120 86 0d 00
        e 360 96 0c 64
        e 120 86 0c 00
        e 360 96 0d 64
        e 120 86 0d 00
        e 360 96 0d 64
        e 120 86 0d 00
        e 360 96 0d 64
        e 120 86 0d 00
        e 360 96 0c 64
        e 120 86 0c 00
        e 360 96 0d 64
        e 120 86 0d 00
        e 360 96 0d 64
        e 120 86 0d 00
        e 360 96 0d 64
        e 120 86 0d 00
        e 360 96 0c 64
        e 120 86 0c 00
        e 360 96 0d 64
        e 120 86 0d 00
        e 360 96 0d 64
        e 120 86 0d 00
        e 360 96 0d 64
        e 120 86 0d 00
        e 360 96 0c 64
        e 120 86 0c 00
        e 360 96 0d 64
        e 120 86 0d 00
        e 360 96 0d 64
        e 120 86 0d 00
        e 360 96 0d 64
        e 120 86 0d 00
        e 360 96 0c 64
        e 120 86 0c 00
        e 360 96 0d 64
        e 120 86 0d 00
        e 360 96 0d 64
        e 120 86 0d 00
        e 360 96 0d 64
        e 120 86 0d 00
        e 360 96 0c 64
        e 120 86 0c 00
        e 360 96 0d 64
        e 120 86 0d 00
        e 360 96 0d 64
        e 120 86 0d 00
        e 360 96 0d 64
        e 120 86 0d 00
        e 360 96 0c 64
        e 120 86 0c 00
        e 360 96 0d 64
        e 120 86 0d 00
        e 360 96 0d 64
        e 120 86 0d 00
        e 360 96 0d 64
        e 120 86 0d 00
        e 360 96 0c 64
        e 120 86 0c 00
        e 360 96 0d 64
        e 120 86 0d 00
        e 360 96 0d 64
        e 120 86 0d 00
        e 360 96 0d 64
        e 120 86 0d 00
        e 360 96 0c 64
        e 120 86 0c 00
        e 360 96 0d 64
        e 120 86 0d 00
        e 360 96 0d 64
        e 120 86 0d 00
        e 360 96 0d 64
        e 120 86 0d 00
        e 360 96 0c 64
        e 120 86 0c 00
        e 360 96 0d 64
        e 120 86 0d 00
        e 360 96 0d 64
        e 120 86 0d 00
        e 360 96 0d 64
        e 120 86 0d 00
        e 360 96 0c 64
        e 120 86 0c 00
        e 360 96 0d 64
        e 120 86 0d 00
        e 360 96 0d 64
        e 120 86 0d 00
        e 360 96 0d 64
        e 120 86 0d 00
        e 360 96 0c 64
        e 120 86 0c 00
        e 360 96 0d 64
        e 120 86 0d 00
        e 360 96 0d 64
        e 120 86 0d 00
        e 360 96 0d 64
        e 120 86 0d 00
        e 360 96 0c 64
        e 120 86 0c 00
        e 360 96 0d 64
        e 120 86 0d 00
        e 360 96 0d 64
        e 120 86 0d 00
        e 360 96 0d 64
        e 120 86 0d 00
        e 360 96 0c 64
        e 120 86 0c 00
        e 360 96 0d 64
        e 120 86 0d 00
        e 360 96 0d 64
        e 120 86 0d 00
        e 360 96 0d 64
        e 120 86 0d 00
        e 360 96 0c 64
        e 120 86 0c 00
        e 360 96 0d 64
        e 120 86 0d 00
        e 360 96 0d 64
        e 120 86 0d 00
        e 360 96 0d 64
        e 120 86 0d 00
        e 360 96 0c 64
        e 120 86 0c 00
        e 360 96 0d 64
        e 120 86 0d 00
        e 360 96 0d 64
        e 120 86 0d 00
        e 360 96 0d 64
        e 120 86 0d 00
        e 360 96 0c 64
        e 120 86 0c 00
        e 360 96 0d 64
        e 120 86 0d 00
        e 360 96 0d 64
        e 120 86 0d 00
        e 360 96 0d 64
        e 120 86 0d 00
        e 360 96 0c 64
        e 120 86 0c 00
        e 360 96 0d 64
        e 120 86 0d 00
        e 360 96 0d 64
        e 120 86 0d 00
        e 360 96 0d 64
        e 120 86 0d 00
        e 360 96 0c 64
        e 120 86 0c 00
        e 360 96 0d 64
        e 120 86 0d 00
        e 360 96 0d 64
        e 120 86 0d 00
        e 360 96 0d 64
        e 120 86 0d 00
        e 360 96 0c 64
        e 120 86 0c 00
        e 360 96 0d 64
        e 120 86 0d 00
        e 360 96 0d 64
        e 120 86 0d 00
        e 360 96 0d 64
        e 120 86 0d 00
        e 360 96 0c 64
        e 120 86 0c 00
        e 360 96 0d 64
        e 120 86 0d 00
        e 360 96 0d 64
        e 120 86 0d 00
        e 360 96 0d 64
        e 120 86 0d 00
        e 360 96 0c 64
        e 120 86 0c 00
        e 360 96 0d 64
        e 120 86 0d 00
        e 360 96 0d 64
        e 120 86 0d 00
        e 360 96 0d 64
        e 120 86 0d 00
        e 360 96 0c 64
        e 120 86 0c 00
        e 360 96 0d 64
        e 120 86 0d 00
        e 360 96 0d 64
        e 120 86 0d 00
        e 360 96 0d 64
        e 120 86 0d 00
        e 360 96 0c 64
        e 120 86 0c 00
        e 360 96 0d 64
        e 120 86 0d 00
        e 360 96 0d 64
        e 120 86 0d 00
        e 360 96 0d 64
        e 120 86 0d 00
        e 360 96 0c 64
        e 120 86 0c 00
        e 360 96 0d 64
        e 120 86 0d 00
        e 360 96 0d 64
        e 120 86 0d 00
        e 360 96 0d 64
        e 120 86 0d 00
        e 360 96 0c 64
        e 120 86 0c 00
        e 360 96 0d 64
        e 120 86 0d 00
        e 360 96 0d 64
        e 120 86 0d 00
        e 360 96 0d 64
        e 120 86 0d 00
        e 360 96 0c 64
        e 120 86 0c 00
        e 360 96 0d 64
        e 120 86 0d 00
        e 360 96 0d 64
        e 120 86 0d 00
        e 360 96 0d 64
        e 120 86 0d 00
        e 360 96 0c 64
        e 120 86 0c 00
        e 360 96 0d 64
        e 120 86 0d 00
        e 360 96 0d 64
        e 120 86 0d 00
        e 360 96 0d 64
        e 120 86 0d 00
        e 360 96 0c 64
        e 120 86 0c 00
        e 360 96 0d 64
        e 120 86 0d 00
        e 360 96 0d 64
        e 120 86 0d 00
        e 360 96 0d 64
        e 120 86 0d 00
        e 360 96 0c 64
        e 120 86 0c 00
        e 360 96 0d 64
        e 120 86 0d 00
        e 360 96 0d 64
        e 120 86 0d 00
        e 360 96 0d 64
        e 120 86 0d 00
        e 360 96 0c 64
        e 120 86 0c 00
        e 360 96 0d 64
        e 120 86 0d 00
        e 360 96 0d 64
        e 120 86 0d 00
        e 360 96 0d 64
        e 120 86 0d 00
        e 360 96 0c 64
        e 120 86 0c 00
        e 360 96 0d 64
        e 120 86 0d 00
        e 360 96 0d 64
        e 120 86 0d 00
        e 360 96 0d 64
        e 120 86 0d 00
        e 360 96 0c 64
        e 120 86 0c 00
        e 360 96 0d 64
        e 120 86 0d 00
        e 360 96 0d 64
        e 120 86 0d 00
        e 360 96 0d 64
        e 120 86 0d 00
        e 360 96 0c 64
        e 120 86 0c 00
        e 360 96 0d 64
        e 120 86 0d 00
        e 360 96 0d 64
        e 120 86 0d 00
        e 360 96 0d 64
        e 120 86 0d 00
        e 360 96 0c 64
        e 120 86 0c 00
        e 360 96 0d 64
        e 120 86 0d 00
        e 360 96 0d 64
        e 120 86 0d 00
        e 360 96 0d 64
        e 120 86 0d 00
        e 360 96 0c 64
        e 120 86 0c 00
        e 360 96 0d 64
        e 120 86 0d 00
        e 360 96 0d 64
        e 120 86 0d 00
        e 360 96 0d 64
        e 120 86 0d 00
        e 360 96 0c 64
        e 120 86 0c 00
        e 360 96 0d 64
        e 120 86 0d 00
        e 360 96 0d 64
        e 120 86 0d 00
        e 360 96 0d 64
        e 120 86 0d 00
        e 360 96 0c 64
        e 120 86 0c 00
        e 360 96 0d 64
        e 120 86 0d 00
        e 360 96 0d 64
        e 120 86 0d 00
        e 360 96 0d 64
        e 120 86 0d 00
        e 360 96 0c 64
        e 120 86 0c 00
        e 360 96 0d 64
        e 120 86 0d 00
        e 360 96 0d 64
        e 120 86 0d 00
        e 360 96 0d 64
        e 120 86 0d 00
        e 360 96 0c 64
        e 120 86 0c 00
        e 360 96 0d 64
        e 120 86 0d 00
        e 360 96 0d 64
        e 120 86 0d 00
        e 360 96 0d 64
        e 120 86 0d 00
        e 360 96 0c 64
        e 120 86 0c 00
        e 360 96 0d 64
        e 120 86 0d 00
        e 360 96 0d 64
        e 120 86 0d 00
        e 360 96 0d 64
        e 120 86 0d 00
        e 360 96 0c 64
        e 120 86 0c 00
        e 360 96 0d 64
        e 120 86 0d 00
        e 360 96 0d 64
        e 120 86 0d 00
        e 360 96 0d 64
        e 120 86 0d 00
        e 360 96 0c 64
        e 120 86 0c 00
        e 360 96 0d 64
        e 120 86 0d 00
        e 360 96 0d 64
        e 120 86 0d 00
        e 360 96 0d 64
        e 120 86 0d 00
        e 360 96 0c 64
        e 120 86 0c 00
        e 360 96 0d 64
        e 120 86 0d 00
        e 360 96 0d 64
        e 120 86 0d 00
        e 360 96 0d 64
        e 120 86 0d 00
        e 360 96 0c 64
        e 120 86 0c 00
        e 360 96 0d 64
        e 120 86 0d 00
        e 360 96 0d 64
        e 120 86 0d 00
        e 360 96 0d 64
        e 120 86 0d 00
        e 360 96 0c 64
        e 120 86 0c 00
        e 360 96 0d 64
        e 120 86 0d 00
        e 360 96 0d 64
        e 120 86 0d 00
        e 360 96 0d 64
        e 120 86 0d 00
        e 360 96 0c 64
        e 120 86 0c 00
        e 360 96 0d 64
        e 120 86 0d 00
        e 360 96 0d 64
        e 120 86 0d 00
        e 360 96 0d 64
        e 120 86 0d 00
        e 360 96 0c 64
        e 120 86 0c 00
        e 360 96 0d 64
        e 120 86 0d 00
        e 360 96 0d 64
        e 120 86 0d 00
        e 360 96 0d 64
        e 120 86 0d 00
        e 360 96 0c 64
        e 120 86 0c 00
        e 360 96 0d 64
        e 120 86 0d 00
        e 360 96 0d 64
        e 120 86 0d 00
        e 360 96 0d 64
        e 120 86 0d 00
        e 360 96 0c 64
        e 120 86 0c 00
        e 360 96 0d 64
        e 120 86 0d 00
        e 360 96 0d 64
        e 120 86 0d 00
        e 360 96 0d 64
        e 120 86 0d 00
        e 360 96 0c 64
        e 120 86 0c 00
        e 360 96 0d 64
        e 120 86 0d 00
        e 360 96 0d 64
        e 120 86 0d 00
        e 360 96 0d 64
        e 120 86 0d 00
        e 360 96 0c 64
        e 120 86 0c 00
        e 360 96 0d 64
        e 120 86 0d 00
        e 360 96 0d 64
        e 120 86 0d 00
        e 360 96 0d 64
        e 120 86 0d 00
        e 360 96 0c 64
        e 120 86 0c 00
        e 360 96 0d 64
        e 120 86 0d 00
        e 360 96 0d 64
        e 120 86 0d 00
        e 360 96 0d 64
        e 120 86 0d 00
        e 360 96 0c 64
        e 120 86 0c 00
        e 360 96 0d 64
        e 120 86 0d 00
        e 360 96 0d 64
        e 120 86 0d 00
        e 360 96 0d 64
        e 120 86 0d 00
        e 360 96 0c 64
        e 120 86 0c 00
        e 360 96 0d 64
        e 120 86 0d 00
        e 360 96 0d 64
        e 120 86 0d 00
        e 360 96 0d 64
        e 120 86 0d 00
        e 360 96 0c 64
        e 120 86 0c 00
        e 360 96 0d 64
        e 120 86 0d 00
        e 360 96 0d 64
        e 120 86 0d 00
        e 360 96 0d 64
        e 120 86 0d 00
        e 360 96 0c 64
        e 120 86 0c 00
        e 360 96 0d 64
        e 120 86 0d 00
        e 360 96 0d 64
        e 120 86 0d 00
        e 360 96 0d 64
        e 120 86 0d 00
        e 360 96 0c 64
        e 120 86 0c 00
        e 360 96 0d 64
        e 120 86 0d 00
        e 360 96 0d 64
        e 120 86 0d 00
        e 360 96 0d 64
        e 120 86 0d 00
        e 360 96 0c 64
        e 120 86 0c 00
        e 360 96 0d 64
        e 120 86 0d 00
        e 360 96 0d 64
        e 120 86 0d 00
        e 360 96 0d 64
        e 120 86 0d 00
        e 360 96 0c 64
        e 120 86 0c 00
        e 360 96 0d 64
        e 120 86 0d 00
        e 360 96 0d 64
        e 120 86 0d 00
        e 360 96 0d 64
        e 120 86 0d 00
        e 360 96 0c 64
        e 120 86 0c 00
        e 360 96 0d 64
        e 120 86 0d 00
        e 360 96 0d 64
        e 120 86 0d 00
        e 360 96 0d 64
        e 120 86 0d 00
        e 360 96 0c 64
        e 120 86 0c 00
        e 360 96 0d 64
        e 120 86 0d 00
        e 360 96 0d 64
        e 120 86 0d 00
        e 360 96 0d 64
        e 120 86 0d 00
        e 360 96 0c 64
        e 120 86 0c 00
        e 360 96 0d 64
        e 120 86 0d 00
        e 360 96 0d 64
        e 120 86 0d 00
        e 360 96 0d 64
        e 120 86 0d 00
        e 360 96 0c 64
        e 120 86 0c 00
        e 360 96 0d 64
        e 120 86 0d 00
        e 360 96 0d 64
        e 120 86 0d 00
        e 360 96 0d 64
        e 120 86 0d 00
        e 360 96 0c 64
        e 120 86 0c 00
        e 360 96 0d 64
        e 120 86 0d 00
        e 360 96 0d 64
        e 120 86 0d 00
        e 360 96 0d 64
        e 120 86 0d 00
        e 360 96 0c 64
        e 120 86 0c 00
        e 360 96 0d 64
        e 120 86 0d 00
        e 360 96 0d 64
        e 120 86 0d 00
        e 360 96 0d 64
        e 120 86 0d 00
        e 360 96 0c 64
        e 120 86 0c 00
        e 360 96 0d 64
        e 120 86 0d 00
        e 360 96 0d 64
        e 120 86 0d 00
        e 360 96 0d 64
        e 120 86 0d 00
        e 360 96 0c 64
        e 120 86 0c 00
        e 360 96 0d 64
        e 120 86 0d 00
        e 360 96 0d 64
        e 120 86 0d 00
        e 360 96 0d 64
        e 120 86 0d 00
        e 360 96 0c 64
        e 120 86 0c 00
        e 360 96 0d 64
        e 120 86 0d 00
        e 360 96 0d 64
        e 120 86 0d 00
        e 360 96 0d 64
        e 120 86 0d 00
        e 360 96 0c 64
        e 120 86 0c 00
        e 360 96 0d 64
        e 120 86 0d 00
        e 360 96 0d 64
        e 120 86 0d 00
        e 360 96 0d 64
        e 120 86 0d 00
        e 360 96 0c 64
        e 120 86 0c 00
        e 360 96 0d 64
        e 120 86 0d 00
        e 360 96 0d 64
        e 120 86 0d 00
        e 360 96 0d 64
        e 120 86 0d 00
        e 360 96 0c 64
        e 120 86 0c 00
        e 360 96 0d 64
        e 120 86 0d 00
        e 360 96 0d 64
        e 120 86 0d 00
        e 360 96 0d 64
        e 120 86 0d 00
        e 360 96 0c 64
        e 120 86 0c 00
        e 360 96 0d 64
        e 120 86 0d 00
        e 360 96 0d 64
        e 120 86 0d 00
        e 360 96 0d 64
        e 120 86 0d 00
        e 360 96 0c 64
        e 120 86 0c 00
        e 360 96 0d 64
        e 120 86 0d 00
        e 360 96 0d 64
        e 120 86 0d 00
        e 360 96 0d 64
        e 120 86 0d 00
        e 360 96 0c 64
        e 120 86 0c 00
        e 360 96 0d 64
        e 120 86 0d 00
        e 360 96 0d 64
        e 120 86 0d 00
        e 360 96 0d 64
        e 120 86 0d 00
        e 360 96 0c 64
        e 120 86 0c 00
        e 360 96 0d 64
        e 120 86 0d 00
        e 360 96 0d 64
        e 120 86 0d 00
        e 360 96 0d 64
        e 120 86 0d 00
        e 360 96 0c 64
        e 120 86 0c 00
        e 360 96 0d 64
        e 120 86 0d 00
        e 360 96 0d 64
        e 120 86 0d 00
        e 360 96 0d 64
        e 120 86 0d 00
        e 360 96 0c 64
        e 120 86 0c 00
        e 360 96 0d 64
        e 120 86 0d 00
        e 360 96 0d 64
        e 120 86 0d 00
        e 360 96 0d 64
        e 120 86 0d 00
        e 360 96 0c 64
        e 120 86 0c 00
        e 360 96 0d 64
        e 120 86 0d 00
        e 360 96 0d 64
        e 120 86 0d 00
        e 360 96 0d 64
        e 120 86 0d 00
        e 360 96 0c 64
        e 120 86 0c 00
        e 360 96 0d 64
        e 120 86 0d 00
        e 360 96 0d 64
        e 120 86 0d 00
        e 360 96 0d 64
        e 120 86 0d 00
        e 360 96 0c 64
        e 120 86 0c 00
        e 360 96 0d 64
        e 120 86 0d 00
        e 360 96 0d 64
        e 120 86 0d 00
        e 360 96 0d 64
        e 120 86 0d 00
        e 360 96 0c 64
        e 120 86 0c 00
        e 360 96 0d 64
        e 120 86 0d 00
        e 360 96 0d 64
        e 120 86 0d 00
        e 360 96 0d 64
        e 120 86 0d 00
        e 360 96 0c 64
        e 120 86 0c 00
        e 360 96 0d 64
        e 120 86 0d 00
        e 360 96 0d 64
        e 120 86 0d 00
        e 360 96 0d 64
        e 120 86 0d 00
        e 360 96 0c 64
        e 120 86 0c 00
        e 360 96 0d 64
        e 120 86 0d 00
        e 360 96 0d 64
        e 120 86 0d 00
        e 360 96 0d 64
        e 120 86 0d 00
        e 360 96 0c 64
        e 120 86 0c 00
        e 360 96 0d 64
        e 120 86 0d 00
        e 360 96 0d 64
        e 120 86 0d 00
        e 360 96 0d 64
        e 120 86 0d 00
        e 360 96 0c 64
        e 120 86 0c 00
        e 360 96 0d 64
        e 120 86 0d 00
        e 360 96 0d 64
        e 120 86 0d 00
        e 360 96 0d 64
        e 120 86 0d 00
        e 360 96 0c 64
        e 120 86 0c 00
        e 360 96 0d 64
        e 120 86 0d 00
        e 360 96 0d 64
        e 120 86 0d 00
        e 360 96 0d 64
        e 120 86 0d 00
        e 360 96 0c 64
        e 120 86 0c 00
        e 360 96 0d 64
        e 120 86 0d 00
        e 360 96 0d 64
        e 120 86 0d 00
        e 360 96 0d 64
        e 120 86 0d 00
        e 360 96 0c 64
        e 120 86 0c 00
        e 360 96 0d 64
        e 120 86 0d 00
        e 360 96 0d 64
        e 120 86 0d 00
        e 360 96 0d 64
        e 120 86 0d 00
        e 360 96 0c 64
        e 120 86 0c 00
        e 360 96 0d 64
        e 120 86 0d 00
        e 360 96 0d 64
        e 120 86 0d 00
        e 360 96 0d 64
        e 120 86 0d 00
        e 360 96 0c 64
        e 120 86 0c 00
        e 360 96 0d 64
        e 120 86 0d 00
        e 360 96 0d 64
        e 120 86 0d 00
        e 360 96 0d 64
        e 120 86 0d 00
        e 360 96 0c 64
        e 120 86 0c 00
        e 360 96 0d 64
        e 120 86 0d 00
        e 360 96 0d 64
        e 120 86 0d 00
        e 360 96 0d 64
        e 120 86 0d 00
        e 360 96 0c 64
        e 120 86 0c 00
        e 360 96 0d 64
        e 120 86 0d 00
        e 360 96 0d 64
        e 120 86 0d 00
        e 360 96 0d 64
        e 120 86 0d 00
        e 360 96 0c 64
        e 120 86 0c 00
        e 360 96 0d 64
        e 120 86 0d 00
        e 360 96 0d 64
        e 120 86 0d 00
        e 360 96 0d 64
        e 120 86 0d 00
        e 360 96 0c 64
        e 120 86 0c 00
        e 360 96 0d 64
        e 120 86 0d 00
        e 360 96 0d 64
        e 120 86 0d 00
        e 360 96 0d 64
        e 120 86 0d 00
        e 360 96 0c 64
        e 120 86 0c 00
        e 360 96 0d 64
        e 120 86 0d 00
        e 360 96 0d 64
        e 120 86 0d 00
        e 360 96 0d 64
        e 120 86 0d 00
        e 360 96 0c 64
        e 120 86 0c 00
        e 360 96 0d 64
        e 120 86 0d 00
        e 360 96 0d 64
        e 120 86 0d 00
        e 360 96 0d 64
        e 120 86 0d 00
        e 360 96 0c 64
        e 120 86 0c 00
        e 360 96 0d 64
        e 120 86 0d 00
        e 360 96 0d 64
        e 120 86 0d 00
        e 360 96 0d 64
        e 120 86 0d 00
        e 360 96 0c 64
        e 120 86 0c 00
        e 360 96 0d 64
        e 120 86 0d 00
        e 360 96 0d 64
        e 120 86 0d 00
        e 360 96 0d 64
        e 120 86 0d 00
        e 360 96 0c 64
        e 120 86 0c 00
        e 360 96 0d 64
        e 120 86 0d 00
        e 360 96 0d 64
        e 120 86 0d 00
        e 360 96 0d 64
        e 120 86 0d 00
        e 360 96 0c 64
        e 120 86 0c 00
        e 360 96 0d 64
        e 120 86 0d 00
        e 360 96 0d 64
        e 120 86 0d 00
        e 360 96 0d 64
        e 120 86 0d 00
        e 360 96 0c 64
        e 120 86 0c 00
        e 360 96 0d 64
        e 120 86 0d 00
        e 360 96 0d 64
        e 120 86 0d 00
        e 360 96 0d 64
        e 120 86 0d 00
        e 360 96 0c 64
        e 120 86 0c 00
        e 360 96 0d 64
        e 120 86 0d 00
        e 360 96 0d 64
        e 120 86 0d 00
        e 360 96 0d 64
        e 120 86 0d 00
        e 360 96 0c 64
        e 120 86 0c 00
        e 360 96 0d 64
        e 120 86 0d 00
        e 360 96 0d 64
        e 120 86 0d 00
        e 360 96 0d 64
        e 120 86 0d 00
        e 360 96 0c 64
        e 120 86 0c 00
        e 360 96 0d 64
        e 120 86 0d 00
        e 360 96 0d 64
        e 120 86 0d 00
        e 360 96 0d 64
        e 120 86 0d 00
        e 360 96 0c 64
        e 120 86 0c 00
        e 360 96 0d 64
        e 120 86 0d 00
        e 360 96 0d 64
        e 120 86 0d 00
        e 360 96 0d 64
        e 120 86 0d 00
        e 360 96 0c 64
        e 120 86 0c 00
        e 360 96 0d 64
        e 120 86 0d 00
        e 360 96 0d 64
        e 120 86 0d 00
        e 360 96 0d 64
        e 120 86 0d 00
        e 360 96 0c 64
        e 120 86 0c 00
        e 360 96 0d 64
        e 120 86 0d 00
        e 360 96 0d 64
        e 120 86 0d 00
        e 360 96 0d 64
        e 120 86 0d 00
        e 360 96 0c 64
        e 120 86 0c 00
        e 360 96 0d 64
        e 120 86 0d 00
        e 360 96 0d 64
        e 120 86 0d 00
        e 360 96 0d 64
        e 120 86 0d 00
        e 360 96 0c 64
        e 120 86 0c 00
        e 360 96 0d 64
        e 120 86 0d 00
        e 360 96 0d 64
        e 120 86 0d 00
        e 360 96 0d 64
        e 120 86 0d 00
        e 360 96 0c 64
        e 120 86 0c 00
        e 360 96 0d 64
        e 120 86 0d 00
        e 360 96 0d 64
        e 120 86 0d 00
        e 360 96 0d 64
        e 120 86 0d 00
        e 360 96 0c 64
        e 120 86 0c 00
        e 360 96 0d 64
        e 120 86 0d 00
        e 360 96 0d 64
        e 120 86 0d 00
        e 360 96 0d 64
        e 120 86 0d 00
        e 360 96 0c 64
        e 120 86 0c 00
        e 360 96 0d 64
        e 120 86 0d 00
        e 360 96 0d 64
        e 120 86 0d 00
        e 360 96 0d 64
        e 120 86 0d 00
        e 360 96 0c 64
        e 120 86 0c 00
        e 360 96 0d 64
        e 120 86 0d 00
        e 360 96 0d 64
        e 120 86 0d 00
        e 360 96 0d 64
        e 120 86 0d 00
        e 360 96 0c 64
        e 120 86 0c 00
        e 360 96 0d 64
        e 120 86 0d 00
        e 360 96 0d 64
        e 120 86 0d 00
        e 360 96 0d 64
        e 120 86 0d 00
        e 360 96 0c 64
        e 120 86 0c 00
        e 360 96 0d 64
        e 120 86 0d 00
        e 360 96 0d 64
        e 120 86 0d 00
        e 360 96 0d 64
        e 120 86 0d 00
        e 360 96 0c 64
        e 120 86 0c 00
        e 360 96 0d 64
        e 120 86 0d 00
        e 360 96 0d 64
        e 120 86 0d 00
        e 360 96 0d 64
        e 120 86 0d 00
        e 360 96 0c 64
        e 120 86 0c 00
        e 360 96 0d 64
        e 120 86 0d 00
        e 360 96 0d 64
        e 120 86 0d 00
        e 360 96 0d 64
        e 120 86 0d 00
        e 360 96 0c 64
        e 120 86 0c 00
        e 360 96 0d 64
        e 120 86 0d 00
        e 360 96 0d 64
        e 120 86 0d 00
        e 360 96 0d 64
        e 120 86 0d 00
        e 360 96 0c 64
        e 120 86 0c 00
        e 360 96 0d 64
        e 120 86 0d 00
        e 360 96 0d 64
        e 120 86 0d 00
        e 360 96 0d 64
        e 120 86 0d 00
        e 360 96 0c 64
        e 120 86 0c 00
        e 360 96 0d 64
        e 120 86 0d 00
        e 360 96 0d 64
        e 120 86 0d 00
        e 360 96 0d 64
        e 120 86 0d 00
        e 360 96 0c 64
        e 120 86 0c 00
        e 360 96 0d 64
        e 120 86 0d 00
        E 2760 b0 7b 00
        GUID {8CB930E8-B6A0-4CAD-825A-9F47FB66C1D0}
        IGNTEMPO 0 120.00000000 4 4
        SRCCOLOR 1472
        VELLANE 132 100 100
        COLORMAP "C:\Users\AJFOne23\AppData\Roaming\REAPER\Data\color_maps\rockband_vox-other.png"
        BANKPROGRAMFILE "C:\Users\AJFOne23\AppData\Roaming\REAPER/Data/GM.reabank"
        TEXTSTRINGFILE "Text Events List.txt"
        CFGEDITVIEW 170092.102232 8.772111 0 48 0 0 0
        CFGEDIT 1 1 0 0 0 1 1 1 1 1 1 1.00000000 44 63 1223 847 1 2 1 2 0.00000000 0 0 0 0 0.500000 1 0 1.000000 64
        KEYSNAP 0 0 "102034050607" 0 "Major"
        EVTFILTER 0 -1 -1 -1 -1 0 1 0 0 -1.00000000 -1.00000000
      >
    >
  >
  <TRACK '{70C3FE4D-3BC3-4146-95C4-8AC455A2D0F5}'
    NAME "PART BASS"
    PEAKCOL 16777471
    BEAT -1
    AUTOMODE 0
    VOLPAN 1.00000000000000 0.00000000000000 -1.00000000000000 -1.00000000000000 1.00000000000000
    MUTESOLO 1 0 0
    IPHASE 0
    ISBUS 0 0
    BUSCOMP 1 0
    SHOWINMIX 1 0.666700 0.500000 1 0.500000 -1 -1 -1
    FREEMODE 0
    SEL 0
    REC 0 4096 1 0 0 0 0
    TRACKHEIGHT 105 0
    INQ 0 0 0 0.5000000000 100 0 0 100
    NCHAN 2
    FX 1
    TRACKID {70C3FE4D-3BC3-4146-95C4-8AC455A2D0F5}
    PERF 0
    MIDIOUT -1
    <MIDINOTENAMES
      0 96 "EXPERT Green"
      0 97 "EXPERT Red"
      0 98 "EXPERT Yellow"
      0 99 "EXPERT Blue"
      0 100 "EXPERT Orange"
      0 84 "HARD Green"
      0 85 "HARD Red"
      0 86 "HARD Yellow"
      0 87 "HARD Blue"
      0 88 "HARD Orange"
      0 91 "----"
      0 116 "OVERDRIVE"
      0 40 "Left Hand Lowest"
      0 59 "Left Hand Highest"
      0 58 "-"
      0 57 "-"
      0 56 "-"
      0 55 "-"
      0 54 "-"
      0 53 "-"
      0 52 "-"
      0 51 "-"
      0 50 "-"
      0 49 "-"
      0 47 "-"
      0 48 "-"
      0 46 "-"
      0 45 "-"
      0 44 "-"
      0 43 "-"
      0 42 "-"
      0 41 "-"
      0 111 "----"
      0 72 "MEDIUM Green"
      0 73 "MEDIUM Red"
      0 74 "MEDIUM Yellow"
      0 75 "MEDIUM Blue"
      0 76 "MEDIUM Orange"
      0 60 "EASY Green"
      0 61 "EASY Red"
      0 62 "EASY Yellow"
      0 63 "EASY Blue"
      0 64 "EASY Orange"
      0 68 "----"
      0 80 "----"
      0 102 "Force HOPO Off"
      0 101 "Force HOPO On"
      0 120 "BRE (use all 5)"
      0 121 "BRE"
      0 122 "BRE"
      0 123 "BRE"
      0 124 "BRE"
      0 119 "----"
      0 90 "Force HOPO Off"
      0 89 "Force HOPO On"
      0 127 "Trill Marker"
      0 125 "----"
      0 103 "Solo Marker"
    >
    MAINSEND 1 0
    <FXCHAIN
      WNDRECT 0 38 878 585
      SHOW 0
      LASTSEL 1
      DOCKED 0
      BYPASS 1 0
      <VST "VSTi: ReaSynth (Cockos)" "reasynth.dll" 0 ""
        eXNlcu9e7f4AAAAAAgAAAAEAAAAAAAAAAgAAAAAAAAA4AAAAAAAAAA==
        AAAAAO++rd4N8K3eAAAAAAAAAAAAAAAAAAAAADm0SD59y9s+tbSxOQ==
        AAAAALbz/T5VpCs6AAAAAAAAAAAAAAAAAAA=
      >
      FLOATPOS 0 0 0 0
      FXID {D4EC3C58-478E-4D1F-A0FC-2252BD344989}
      WAK 0
      BYPASS 0 0
      <VST "VSTi: RBN Preview (RBN)" "rbprev_vst.dll" 0 ""
        dnBicu5e7f4AAAAAAgAAAAEAAAAAAAAAAgAAAAAAAAAEAAAAAQAAAA==
        AAAAAAMAqgAAAAAAAAA=
      >
      FLOATPOS 32 32 659 497
      FXID {72D22271-4F4F-4081-90C4-66415E7AEC47}
      WAK 0
    >
    <ITEM
      POSITION 0.00000000000000
      SNAPOFFS 0.00000000000000
      LENGTH 222.65545518333326
      LOOP 0
      ALLTAKES 0
      SEL 0
      FADEIN 1 0.000000 0.000000 1 0
      FADEOUT 1 0.000000 0.000000 1 0
      MUTE 0
      IGUID {A1B24BBF-93B7-476C-BC6D-33F5621C633F}
      IID 12
      NAME "PART BASS"
      VOLPAN 1.000000 0.000000 1.000000 -1.000000
      SOFFS 0.00000000000000 0.00000000000000
      PLAYRATE 1.00000000000000 1 0.00000000000000 -65536
      CHANMODE 0
      GUID {344A7487-35C3-41F9-8B1E-12A4F3D7F336}
      <SOURCE MIDI
        HASDATA 1 480 QN
        POOLEDEVTS {11898C14-7A09-4236-B38D-5CF97CDB1A85}
        <X 0 0
          /wNQQVJUIEJBU1M=
        >
        e 3840 90 40 7f
        e 0 90 4c 7f
        e 0 90 58 7f
        e 60 80 40 00
        e 0 80 4c 00
        e 0 80 58 00
        e 30 90 3f 7f
        e 0 90 4b 7f
        e 0 90 57 7f
        e 60 80 3f 00
        e 0 80 4b 00
        e 0 80 57 00
        e 30 90 3e 7f
        e 0 90 4a 7f
        e 0 90 56 7f
        e 60 80 3e 00
        e 0 80 4a 00
        e 0 80 56 00
        e 30 90 3d 7f
        e 0 90 49 7f
        e 0 90 55 7f
        e 60 80 3d 00
        e 0 80 49 00
        e 0 80 55 00
        e 30 90 3c 7f
        e 0 90 48 7f
        e 0 90 54 7f
        e 60 80 3c 00
        e 0 80 48 00
        e 0 80 54 00
        E 309302 b0 7b 00
        GUID {54A57D35-811F-42A6-AB75-F5706122F903}
        IGNTEMPO 0 120.00000000 4 4
        SRCCOLOR 1473
        VELLANE 132 128 60
        COLORMAP "C:\Program Files (x86)\REAPER\Data\color_maps\rockband_guitarbass.png"
        BANKPROGRAMFILE "C:\Users\AJFOne23\AppData\Roaming\REAPER/Data/GM.reabank"
        TEXTSTRINGFILE "Text Events List.txt"
        CFGEDITVIEW -1141.813129 82.395269 12 12 0 0 0
        CFGEDIT 1 1 0 0 0 1 1 1 1 1 1 0.12500000 -8 -8 1370 736 1 2 1 2 0.00000000 0 0 0 0 0.500000 1 0 1.000000 64
        KEYSNAP 0 0 "102034050607" 0 "Major"
        EVTFILTER 0 -1 -1 -1 -1 0 1 0 0 -1.00000000 -1.00000000
      >
    >
  >
  <TRACK '{6B7F9B4B-FF4E-4CE6-9E2D-4C9BD5DAED77}'
    NAME "PART GUITAR"
    PEAKCOL 33488896
    BEAT -1
    AUTOMODE 0
    VOLPAN 1.00000000000000 0.00000000000000 -1.00000000000000 -1.00000000000000 1.00000000000000
    MUTESOLO 0 0 0
    IPHASE 0
    ISBUS 0 0
    BUSCOMP 1 0
    SHOWINMIX 1 0.666700 0.500000 1 0.500000 -1 -1 -1
    FREEMODE 0
    SEL 0
    REC 0 4096 1 7 0 0 0
    TRACKHEIGHT 91 0
    INQ 0 0 0 0.5000000000 100 0 0 100
    NCHAN 2
    FX 1
    TRACKID {6B7F9B4B-FF4E-4CE6-9E2D-4C9BD5DAED77}
    PERF 0
    MIDIOUT -1
    <MIDINOTENAMES
      0 116 "OVERDRIVE"
      0 102 "Force HOPO Off"
      0 101 "Force HOPO On"
      0 100 "EXPERT Orange"
      0 99 "EXPERT Blue"
      0 98 "EXPERT Yellow"
      0 97 "EXPERT Red"
      0 96 "EXPERT Green"
      0 88 "HARD Orange"
      0 87 "HARD Blue"
      0 86 "HARD Yellow"
      0 85 "HARD Red"
      0 84 "HARD Green"
      0 76 "MEDIUM Orange"
      0 75 "MEDIUM Blue"
      0 74 "MEDIUM Yellow"
      0 73 "MEDIUM Red"
      0 72 "MEDIUM Green"
      0 64 "EASY Orange"
      0 63 "EASY Blue"
      0 62 "EASY Yellow"
      0 61 "EASY Red"
      0 60 "EASY Green"
      0 59 "Left Hand Highest"
      0 40 "Left Hand Lowest"
      0 58 "-"
      0 57 "-"
      0 56 "-"
      0 55 "-"
      0 54 "-"
      0 53 "-"
      0 52 "-"
      0 51 "-"
      0 50 "-"
      0 49 "-"
      0 48 "-"
      0 47 "-"
      0 46 "-"
      0 45 "-"
      0 44 "-"
      0 43 "-"
      0 42 "-"
      0 41 "-"
      0 115 "----"
      0 95 "----"
      0 89 "Force HOPO On"
      0 77 "----"
      0 65 "----"
      0 119 "----"
      0 120 "BRE (use all 5)"
      0 121 "BRE"
      0 122 "BRE"
      0 123 "BRE"
      0 124 "BRE"
      0 90 "Force HOPO Off"
      0 103 "Solo Marker"
      0 127 "Trill Marker"
      0 125 "----"
    >
    MAINSEND 1 0
    <FXCHAIN
      WNDRECT 0 38 878 585
      SHOW 0
      LASTSEL 1
      DOCKED 0
      BYPASS 1 0
      <VST "VSTi: ReaSynth (Cockos)" "reasynth.dll" 0 ""
        eXNlcu9e7f4AAAAAAgAAAAEAAAAAAAAAAgAAAAAAAAA4AAAAAAAAAA==
        AAAAAO++rd4N8K3eAAAAAAAAAAAAAAAAAAAAADm0SD59y9s+tbSxOQ==
        AAAAALbz/T5VpCs6AAAAAAAAAAAAAAAAAAA=
      >
      FLOATPOS 0 0 0 0
      FXID {52B28C73-185B-48E4-B8F4-1FD7A8848B0F}
      WAK 0
      BYPASS 0 0
      <VST "VSTi: RBN Preview (RBN)" "rbprev_vst.dll" 0 ""
        dnBicu5e7f4AAAAAAgAAAAEAAAAAAAAAAgAAAAAAAAAEAAAAAQAAAA==
        AAAAAAMAqgAAAAAAAAA=
      >
      FLOATPOS 32 32 659 497
      FXID {190BBB08-7A86-476B-BD07-5F71F5CD6F7C}
      WAK 0
    >
    <ITEM
      POSITION 0.00000000000000
      SNAPOFFS 0.00000000000000
      LENGTH 221.58588399999994
      LOOP 0
      ALLTAKES 0
      SEL 0
      FADEIN 1 0.000000 0.000000 1 0
      FADEOUT 1 0.000000 0.000000 1 0
      MUTE 0
      IGUID {81210F06-DA35-41E7-BA75-C6E1C5689733}
      IID 13
      NAME "PART GUITAR"
      VOLPAN 1.000000 0.000000 1.000000 -1.000000
      SOFFS 0.00000000000000 0.00000000000000
      PLAYRATE 1.00000000000000 1 0.00000000000000 -65536
      CHANMODE 0
      GUID {61757875-B3D4-49E4-8483-EE351B7D2386}
      <SOURCE MIDI
        HASDATA 1 480 QN
        POOLEDEVTS {172FD3A7-9874-45C3-8842-230050707B28}
        <X 0 0
          /wNQQVJUIEdVSVRBUg==
        >
        <X 3840 0
          /wNQQVJUIEdVSVRBUg==
        >
        <X 11400 0
          /wFbcGxheV0=
        >
        E 120 90 64 60
        E 0 90 74 60
        E 0 90 58 60
        E 0 90 4b 60
        E 0 90 3e 60
        E 120 80 64 00
        E 0 80 58 00
        E 0 80 4b 00
        E 0 90 63 60
        E 0 80 3e 00
        E 120 80 63 00
        E 0 90 62 60
        E 0 90 56 60
        E 120 80 62 00
        E 0 80 56 00
        E 0 90 61 60
        E 120 80 61 00
        E 0 90 64 60
        E 0 90 58 60
        E 0 90 4b 60
        E 0 90 3e 60
        E 120 80 64 00
        E 0 80 58 00
        E 0 80 4b 00
        E 0 90 63 60
        E 0 80 3e 00
        E 120 80 63 00
        E 0 90 62 60
        E 0 90 56 60
        E 120 80 62 00
        E 0 80 56 00
        E 0 90 61 60
        E 120 80 61 00
        E 0 90 63 60
        E 0 90 57 60
        E 0 90 4b 60
        E 0 90 3e 60
        E 120 80 63 00
        E 0 80 57 00
        E 0 80 4b 00
        E 0 90 62 60
        E 0 80 3e 00
        E 120 80 62 00
        E 0 90 61 60
        E 0 90 55 60
        E 120 80 61 00
        E 0 80 55 00
        E 0 90 60 60
        E 120 80 60 00
        E 0 90 63 60
        E 0 90 57 60
        E 0 90 4b 60
        E 120 80 63 00
        E 0 80 57 00
        E 0 80 4b 00
        E 0 90 62 60
        E 120 80 62 00
        E 0 90 61 60
        E 0 90 55 60
        E 120 80 61 00
        E 0 80 55 00
        E 0 90 60 60
        E 120 80 74 00
        E 0 80 60 00
        E 0 90 60 60
        E 0 90 54 60
        E 0 90 48 60
        E 0 90 3c 60
        E 120 80 60 00
        E 0 80 54 00
        E 0 80 48 00
        E 0 90 60 60
        E 0 80 3c 00
        E 120 80 60 00
        E 0 90 60 60
        E 0 90 54 60
        E 0 90 48 60
        E 120 80 60 00
        E 0 80 54 00
        E 0 80 48 00
        E 0 90 61 60
        E 0 90 63 60
        E 120 80 61 00
        E 0 80 63 00
        E 240 90 60 60
        E 0 90 62 60
        E 0 90 54 60
        E 0 90 56 60
        E 0 90 48 60
        E 0 90 4a 60
        E 120 80 60 00
        E 0 80 62 00
        E 0 80 54 00
        E 0 80 56 00
        E 0 80 48 00
        E 0 80 4a 00
        E 360 90 60 60
        E 0 90 62 60
        E 0 90 54 60
        E 0 90 56 60
        E 0 90 48 60
        E 0 90 4a 60
        E 120 80 60 00
        E 0 80 62 00
        E 0 80 54 00
        E 0 80 56 00
        E 0 80 48 00
        E 0 80 4a 00
        E 120 90 60 60
        E 0 90 62 60
        E 0 90 54 60
        E 0 90 56 60
        E 0 90 48 60
        E 0 90 4a 60
        E 0 90 3c 60
        E 120 80 60 00
        E 0 80 62 00
        E 0 80 54 00
        E 0 80 56 00
        E 0 80 48 00
        E 0 80 4a 00
        E 0 80 3c 00
        E 120 90 60 60
        E 0 90 62 60
        E 0 90 54 60
        E 0 90 56 60
        E 120 80 60 00
        E 0 80 62 00
        E 0 80 54 00
        E 0 80 56 00
        E 120 90 60 60
        E 0 90 54 60
        E 0 90 48 60
        E 0 90 3c 60
        E 120 80 60 00
        E 0 80 54 00
        E 0 80 48 00
        E 0 90 60 60
        E 0 80 3c 00
        E 120 80 60 00
        E 0 90 60 60
        E 0 90 54 60
        E 0 90 48 60
        E 120 80 60 00
        E 0 80 54 00
        E 0 80 48 00
        E 0 90 61 60
        E 0 90 63 60
        E 120 80 61 00
        E 0 80 63 00
        E 240 90 60 60
        E 0 90 62 60
        E 0 90 54 60
        E 0 90 56 60
        E 0 90 48 60
        E 0 90 4a 60
        E 120 80 60 00
        E 0 80 62 00
        E 0 80 54 00
        E 0 80 56 00
        E 0 80 48 00
        E 0 80 4a 00
        E 360 90 60 60
        E 0 90 62 60
        E 0 90 54 60
        E 0 90 56 60
        E 0 90 48 60
        E 0 90 4a 60
        E 120 80 60 00
        E 0 80 62 00
        E 0 80 54 00
        E 0 80 56 00
        E 0 80 48 00
        E 0 80 4a 00
        E 120 90 60 60
        E 0 90 62 60
        E 0 90 54 60
        E 0 90 56 60
        E 0 90 48 60
        E 0 90 4a 60
        E 0 90 3c 60
        E 120 80 60 00
        E 0 80 62 00
        E 0 80 54 00
        E 0 80 56 00
        E 0 80 48 00
        E 0 80 4a 00
        E 0 80 3c 00
        E 120 90 60 60
        E 0 90 62 60
        E 0 90 54 60
        E 0 90 56 60
        E 120 80 60 00
        E 0 80 62 00
        E 0 80 54 00
        E 0 80 56 00
        E 120 90 60 60
        E 0 90 54 60
        E 0 90 48 60
        E 0 90 3c 60
        E 120 80 60 00
        E 0 80 54 00
        E 0 80 48 00
        E 0 90 60 60
        E 0 80 3c 00
        E 120 80 60 00
        E 0 90 60 60
        E 0 90 54 60
        E 0 90 48 60
        E 120 80 60 00
        E 0 80 54 00
        E 0 80 48 00
        E 0 90 62 60
        E 0 90 63 60
        E 120 80 62 00
        E 0 80 63 00
        E 240 90 61 60
        E 0 90 62 60
        E 0 90 55 60
        E 0 90 56 60
        E 0 90 49 60
        E 0 90 4a 60
        E 120 80 61 00
        E 0 80 62 00
        E 0 80 55 00
        E 0 80 56 00
        E 0 80 49 00
        E 0 80 4a 00
        E 360 90 61 60
        E 0 90 62 60
        E 0 90 55 60
        E 0 90 56 60
        E 0 90 49 60
        E 0 90 4a 60
        E 120 80 61 00
        E 0 80 62 00
        E 0 80 55 00
        E 0 80 56 00
        E 0 80 49 00
        E 0 80 4a 00
        E 120 90 61 60
        E 0 90 62 60
        E 0 90 55 60
        E 0 90 56 60
        E 0 90 49 60
        E 0 90 4a 60
        E 120 80 61 00
        E 0 80 62 00
        E 0 80 55 00
        E 0 80 56 00
        E 0 80 49 00
        E 0 80 4a 00
        E 120 90 61 60
        E 0 90 62 60
        E 0 90 55 60
        E 0 90 56 60
        E 120 80 61 00
        E 0 80 62 00
        E 0 80 55 00
        E 0 80 56 00
        E 120 90 60 60
        E 0 90 54 60
        E 0 90 48 60
        E 0 90 3c 60
        E 120 80 60 00
        E 0 80 54 00
        E 0 80 48 00
        E 0 90 60 60
        E 0 80 3c 00
        E 120 80 60 00
        E 0 90 60 60
        E 0 90 54 60
        E 0 90 48 60
        E 120 80 60 00
        E 0 80 54 00
        E 0 80 48 00
        E 0 90 62 60
        E 0 90 63 60
        E 120 80 62 00
        E 0 80 63 00
        E 240 90 61 60
        E 0 90 62 60
        E 0 90 55 60
        E 0 90 56 60
        E 0 90 49 60
        E 0 90 4a 60
        E 120 80 61 00
        E 0 80 62 00
        E 0 80 55 00
        E 0 80 56 00
        E 0 80 49 00
        E 0 80 4a 00
        E 360 90 61 60
        E 0 90 62 60
        E 0 90 55 60
        E 0 90 56 60
        E 0 90 49 60
        E 0 90 4a 60
        E 120 80 61 00
        E 0 80 62 00
        E 0 80 55 00
        E 0 80 56 00
        E 0 80 49 00
        E 0 80 4a 00
        E 120 90 61 60
        E 0 90 62 60
        E 0 90 55 60
        E 0 90 56 60
        E 0 90 49 60
        E 0 90 4a 60
        E 120 80 61 00
        E 0 80 62 00
        E 0 80 55 00
        E 0 80 56 00
        E 0 80 49 00
        E 0 80 4a 00
        E 120 90 61 60
        E 0 90 62 60
        E 0 90 55 60
        E 0 90 56 60
        E 120 80 61 00
        E 0 80 62 00
        E 0 80 55 00
        E 0 80 56 00
        E 120 90 60 60
        E 0 90 54 60
        E 0 90 48 60
        E 0 90 3c 60
        E 120 80 60 00
        E 0 80 54 00
        E 0 80 48 00
        E 0 90 60 60
        E 0 80 3c 00
        E 120 80 60 00
        E 0 90 60 60
        E 0 90 54 60
        E 0 90 48 60
        E 120 80 60 00
        E 0 80 54 00
        E 0 80 48 00
        E 0 90 61 60
        E 0 90 63 60
        E 120 80 61 00
        E 0 80 63 00
        E 240 90 60 60
        E 0 90 62 60
        E 0 90 54 60
        E 0 90 56 60
        E 0 90 48 60
        E 0 90 4a 60
        E 120 80 60 00
        E 0 80 62 00
        E 0 80 54 00
        E 0 80 56 00
        E 0 80 48 00
        E 0 80 4a 00
        E 360 90 60 60
        E 0 90 62 60
        E 0 90 54 60
        E 0 90 56 60
        E 0 90 48 60
        E 0 90 4a 60
        E 120 80 60 00
        E 0 80 62 00
        E 0 80 54 00
        E 0 80 56 00
        E 0 80 48 00
        E 0 80 4a 00
        E 120 90 60 60
        E 0 90 62 60
        E 0 90 54 60
        E 0 90 56 60
        E 0 90 48 60
        E 0 90 4a 60
        E 0 90 3c 60
        E 120 80 60 00
        E 0 80 62 00
        E 0 80 54 00
        E 0 80 56 00
        E 0 80 48 00
        E 0 80 4a 00
        E 0 80 3c 00
        E 120 90 60 60
        E 0 90 62 60
        E 0 90 54 60
        E 0 90 56 60
        E 120 80 60 00
        E 0 80 62 00
        E 0 80 54 00
        E 0 80 56 00
        E 120 90 60 60
        E 0 90 54 60
        E 0 90 48 60
        E 0 90 3c 60
        E 120 80 60 00
        E 0 80 54 00
        E 0 80 48 00
        E 0 90 60 60
        E 0 80 3c 00
        E 120 80 60 00
        E 0 90 60 60
        E 0 90 54 60
        E 0 90 48 60
        E 120 80 60 00
        E 0 80 54 00
        E 0 80 48 00
        E 0 90 61 60
        E 0 90 63 60
        E 120 80 61 00
        E 0 80 63 00
        E 240 90 60 60
        E 0 90 62 60
        E 0 90 54 60
        E 0 90 56 60
        E 0 90 48 60
        E 0 90 4a 60
        E 120 80 60 00
        E 0 80 62 00
        E 0 80 54 00
        E 0 80 56 00
        E 0 80 48 00
        E 0 80 4a 00
        E 360 90 60 60
        E 0 90 62 60
        E 0 90 54 60
        E 0 90 56 60
        E 0 90 48 60
        E 0 90 4a 60
        E 120 80 60 00
        E 0 80 62 00
        E 0 80 54 00
        E 0 80 56 00
        E 0 80 48 00
        E 0 80 4a 00
        E 120 90 60 60
        E 0 90 62 60
        E 0 90 54 60
        E 0 90 56 60
        E 0 90 48 60
        E 0 90 4a 60
        E 0 90 3c 60
        E 120 80 60 00
        E 0 80 62 00
        E 0 80 54 00
        E 0 80 56 00
        E 0 80 48 00
        E 0 80 4a 00
        E 0 80 3c 00
        E 120 90 60 60
        E 0 90 62 60
        E 0 90 54 60
        E 0 90 56 60
        E 120 80 60 00
        E 0 80 62 00
        E 0 80 54 00
        E 0 80 56 00
        E 120 90 60 60
        E 0 90 54 60
        E 0 90 48 60
        E 0 90 3c 60
        E 120 80 60 00
        E 0 80 54 00
        E 0 80 48 00
        E 0 90 60 60
        E 0 80 3c 00
        E 120 80 60 00
        E 0 90 60 60
        E 0 90 54 60
        E 0 90 48 60
        E 120 80 60 00
        E 0 80 54 00
        E 0 80 48 00
        E 0 90 62 60
        E 0 90 63 60
        E 120 80 62 00
        E 0 80 63 00
        E 240 90 61 60
        E 0 90 62 60
        E 0 90 55 60
        E 0 90 56 60
        E 0 90 49 60
        E 0 90 4a 60
        E 120 80 61 00
        E 0 80 62 00
        E 0 80 55 00
        E 0 80 56 00
        E 0 80 49 00
        E 0 80 4a 00
        E 360 90 61 60
        E 0 90 62 60
        E 0 90 55 60
        E 0 90 56 60
        E 0 90 49 60
        E 0 90 4a 60
        E 120 80 61 00
        E 0 80 62 00
        E 0 80 55 00
        E 0 80 56 00
        E 0 80 49 00
        E 0 80 4a 00
        E 120 90 61 60
        E 0 90 62 60
        E 0 90 55 60
        E 0 90 56 60
        E 0 90 49 60
        E 0 90 4a 60
        E 120 80 61 00
        E 0 80 62 00
        E 0 80 55 00
        E 0 80 56 00
        E 0 80 49 00
        E 0 80 4a 00
        E 120 90 61 60
        E 0 90 62 60
        E 0 90 55 60
        E 0 90 56 60
        E 120 80 61 00
        E 0 80 62 00
        E 0 80 55 00
        E 0 80 56 00
        E 120 90 60 60
        E 0 90 54 60
        E 0 90 48 60
        E 0 90 3c 60
        E 120 80 60 00
        E 0 80 54 00
        E 0 80 48 00
        E 0 90 60 60
        E 0 80 3c 00
        E 120 80 60 00
        E 0 90 60 60
        E 0 90 54 60
        E 0 90 48 60
        E 120 80 60 00
        E 0 80 54 00
        E 0 80 48 00
        E 0 90 62 60
        E 0 90 63 60
        E 120 80 62 00
        E 0 80 63 00
        E 240 90 61 60
        E 0 90 62 60
        E 0 90 55 60
        E 0 90 56 60
        E 0 90 49 60
        E 0 90 4a 60
        E 120 80 61 00
        E 0 80 62 00
        E 0 80 55 00
        E 0 80 56 00
        E 0 80 49 00
        E 0 80 4a 00
        E 360 90 61 60
        E 0 90 62 60
        E 0 90 55 60
        E 0 90 56 60
        E 0 90 49 60
        E 0 90 4a 60
        E 120 80 61 00
        E 0 80 62 00
        E 0 80 55 00
        E 0 80 56 00
        E 0 80 49 00
        E 0 80 4a 00
        E 120 90 61 60
        E 0 90 62 60
        E 0 90 55 60
        E 0 90 56 60
        E 0 90 49 60
        E 0 90 4a 60
        E 120 80 61 00
        E 0 80 62 00
        E 0 80 55 00
        E 0 80 56 00
        E 0 80 49 00
        E 0 80 4a 00
        E 120 90 61 60
        E 0 90 62 60
        E 0 90 55 60
        E 0 90 56 60
        E 120 80 61 00
        E 0 80 62 00
        E 0 80 55 00
        E 0 80 56 00
        E 120 90 61 60
        E 0 90 63 60
        E 0 90 55 60
        E 0 90 57 60
        E 0 90 49 60
        E 0 90 4b 60
        E 0 90 3e 60
        E 120 80 55 00
        E 0 80 57 00
        E 0 80 49 00
        E 0 80 4b 00
        E 0 80 3e 00
        E 240 80 61 00
        E 0 80 63 00
        E 0 90 60 60
        E 0 90 62 60
        E 0 90 54 60
        E 0 90 56 60
        E 120 80 54 00
        E 0 80 56 00
        E 240 80 60 00
        E 0 80 62 00
        E 0 90 61 60
        E 0 90 63 60
        E 0 90 55 60
        E 0 90 57 60
        E 0 90 49 60
        E 0 90 4b 60
        E 840 80 49 00
        E 0 80 4b 00
        E 120 80 55 00
        E 0 80 57 00
        E 240 80 61 00
        E 0 80 63 00
        E 0 90 61 60
        E 0 90 63 60
        E 0 90 55 60
        E 0 90 57 60
        E 0 90 49 60
        E 0 90 4b 60
        E 0 90 3e 60
        E 120 80 55 00
        E 0 80 57 00
        E 0 80 49 00
        E 0 80 4b 00
        E 0 80 3e 00
        E 240 80 61 00
        E 0 80 63 00
        E 0 90 60 60
        E 0 90 62 60
        E 0 90 54 60
        E 0 90 56 60
        E 120 80 54 00
        E 0 80 56 00
        E 240 80 60 00
        E 0 80 62 00
        E 0 90 61 60
        E 0 90 63 60
        E 0 90 55 60
        E 0 90 57 60
        E 0 90 49 60
        E 0 90 4b 60
        E 840 80 49 00
        E 0 80 4b 00
        E 120 80 55 00
        E 0 80 57 00
        E 240 80 61 00
        E 0 80 63 00
        E 0 90 62 60
        E 0 90 64 60
        E 0 90 56 60
        E 0 90 58 60
        E 0 90 4b 60
        E 0 90 4c 60
        E 0 90 40 60
        E 120 80 56 00
        E 0 80 58 00
        E 0 80 4b 00
        E 0 80 4c 00
        E 0 80 40 00
        E 240 80 62 00
        E 0 80 64 00
        E 0 90 61 60
        E 0 90 63 60
        E 0 90 55 60
        E 0 90 57 60
        E 120 80 55 00
        E 0 80 57 00
        E 240 80 61 00
        E 0 80 63 00
        E 0 90 62 60
        E 0 90 64 60
        E 0 90 56 60
        E 0 90 58 60
        E 0 90 4b 60
        E 0 90 4c 60
        E 840 80 4b 00
        E 0 80 4c 00
        E 120 80 56 00
        E 0 80 58 00
        E 240 80 62 00
        E 0 80 64 00
        E 0 90 62 60
        E 0 90 64 60
        E 0 90 56 60
        E 0 90 58 60
        E 0 90 4b 60
        E 0 90 4c 60
        E 0 90 40 60
        E 120 80 56 00
        E 0 80 58 00
        E 0 80 4b 00
        E 0 80 4c 00
        E 0 80 40 00
        E 240 80 62 00
        E 0 80 64 00
        E 0 90 61 60
        E 0 90 63 60
        E 0 90 55 60
        E 0 90 57 60
        E 120 80 55 00
        E 0 80 57 00
        E 240 80 61 00
        E 0 80 63 00
        E 0 90 62 60
        E 0 90 64 60
        E 0 90 56 60
        E 0 90 58 60
        E 0 90 4b 60
        E 0 90 4c 60
        E 840 80 4b 00
        E 0 80 4c 00
        E 120 80 56 00
        E 0 80 58 00
        E 240 80 62 00
        E 0 80 64 00
        E 0 90 61 60
        E 0 90 63 60
        E 0 90 55 60
        E 0 90 57 60
        E 0 90 49 60
        E 0 90 4b 60
        E 0 90 3e 60
        E 120 80 55 00
        E 0 80 57 00
        E 0 80 49 00
        E 0 80 4b 00
        E 0 80 3e 00
        E 240 80 61 00
        E 0 80 63 00
        E 0 90 60 60
        E 0 90 62 60
        E 0 90 54 60
        E 0 90 56 60
        E 120 80 54 00
        E 0 80 56 00
        E 240 80 60 00
        E 0 80 62 00
        E 0 90 61 60
        E 0 90 63 60
        E 0 90 55 60
        E 0 90 57 60
        E 0 90 49 60
        E 0 90 4b 60
        E 840 80 49 00
        E 0 80 4b 00
        E 120 80 55 00
        E 0 80 57 00
        E 240 80 61 00
        E 0 80 63 00
        E 0 90 61 60
        E 0 90 63 60
        E 0 90 55 60
        E 0 90 57 60
        E 0 90 49 60
        E 0 90 4b 60
        E 0 90 3e 60
        E 120 80 55 00
        E 0 80 57 00
        E 0 80 49 00
        E 0 80 4b 00
        E 0 80 3e 00
        E 240 80 61 00
        E 0 80 63 00
        E 0 90 60 60
        E 0 90 62 60
        E 0 90 54 60
        E 0 90 56 60
        E 120 80 54 00
        E 0 80 56 00
        E 240 80 60 00
        E 0 80 62 00
        E 0 90 61 60
        E 0 90 63 60
        E 0 90 55 60
        E 0 90 57 60
        E 0 90 49 60
        E 0 90 4b 60
        E 840 80 49 00
        E 0 80 4b 00
        E 120 80 55 00
        E 0 80 57 00
        E 240 80 61 00
        E 0 80 63 00
        E 0 90 61 60
        E 0 90 63 60
        E 0 90 55 60
        E 0 90 57 60
        E 0 90 49 60
        E 0 90 4b 60
        E 0 90 3e 60
        E 120 80 55 00
        E 0 80 57 00
        E 0 80 49 00
        E 0 80 4b 00
        E 0 80 3e 00
        E 240 80 61 00
        E 0 80 63 00
        E 0 90 60 60
        E 0 90 61 60
        E 0 90 54 60
        E 0 90 55 60
        E 120 80 54 00
        E 0 80 55 00
        E 240 80 60 00
        E 0 80 61 00
        E 0 90 63 60
        E 0 90 64 60
        E 0 90 57 60
        E 0 90 58 60
        E 0 90 4b 60
        E 0 90 4c 60
        E 840 80 4b 00
        E 0 80 4c 00
        E 120 80 57 00
        E 0 80 58 00
        E 240 80 63 00
        E 0 80 64 00
        E 0 90 63 60
        E 0 90 64 60
        E 0 90 57 60
        E 0 90 58 60
        E 0 90 4b 60
        E 0 90 4c 60
        E 0 90 40 60
        E 120 80 63 00
        E 0 80 64 00
        E 0 80 57 00
        E 0 80 58 00
        E 0 80 4b 00
        E 0 80 4c 00
        E 0 90 63 60
        E 0 90 64 60
        E 0 80 40 00
        E 120 80 63 00
        E 0 80 64 00
        E 0 90 63 60
        E 0 90 64 60
        E 0 90 57 60
        E 0 90 58 60
        E 0 90 4b 60
        E 0 90 4c 60
        E 120 80 63 00
        E 0 80 64 00
        E 0 80 57 00
        E 0 80 58 00
        E 0 80 4b 00
        E 0 80 4c 00
        E 0 90 63 60
        E 0 90 64 60
        E 120 80 63 00
        E 0 80 64 00
        E 0 90 63 60
        E 0 90 64 60
        E 0 90 57 60
        E 0 90 58 60
        E 0 90 4b 60
        E 0 90 4c 60
        E 0 90 40 60
        E 120 80 63 00
        E 0 80 64 00
        E 0 80 57 00
        E 0 80 58 00
        E 0 80 4b 00
        E 0 80 4c 00
        E 0 90 63 60
        E 0 90 64 60
        E 0 80 40 00
        E 120 80 63 00
        E 0 80 64 00
        E 0 90 63 60
        E 0 90 64 60
        E 0 90 57 60
        E 0 90 58 60
        E 0 90 4b 60
        E 0 90 4c 60
        E 120 80 63 00
        E 0 80 64 00
        E 0 80 57 00
        E 0 80 58 00
        E 0 80 4b 00
        E 0 80 4c 00
        E 0 90 63 60
        E 0 90 64 60
        E 120 80 63 00
        E 0 80 64 00
        E 0 90 63 60
        E 0 90 64 60
        E 0 90 57 60
        E 0 90 58 60
        E 0 90 4b 60
        E 0 90 4c 60
        E 0 90 40 60
        E 120 80 63 00
        E 0 80 64 00
        E 0 80 57 00
        E 0 80 58 00
        E 0 80 4b 00
        E 0 80 4c 00
        E 0 90 63 60
        E 0 90 64 60
        E 0 80 40 00
        E 120 80 63 00
        E 0 80 64 00
        E 0 90 63 60
        E 0 90 64 60
        E 0 90 57 60
        E 0 90 58 60
        E 0 90 4b 60
        E 0 90 4c 60
        E 120 80 63 00
        E 0 80 64 00
        E 0 80 57 00
        E 0 80 58 00
        E 0 80 4b 00
        E 0 80 4c 00
        E 0 90 63 60
        E 0 90 64 60
        E 120 80 63 00
        E 0 80 64 00
        E 0 90 63 60
        E 0 90 64 60
        E 0 90 57 60
        E 0 90 58 60
        E 0 90 4b 60
        E 0 90 4c 60
        E 120 80 63 00
        E 0 80 64 00
        E 0 80 57 00
        E 0 80 58 00
        E 0 80 4b 00
        E 0 80 4c 00
        E 0 90 63 60
        E 0 90 64 60
        E 120 80 63 00
        E 0 80 64 00
        E 0 90 63 60
        E 0 90 64 60
        E 0 90 57 60
        E 0 90 58 60
        E 120 80 63 00
        E 0 80 64 00
        E 0 80 57 00
        E 0 80 58 00
        E 0 90 63 60
        E 0 90 64 60
        E 120 80 63 00
        E 0 80 64 00
        E 0 90 60 60
        E 0 90 54 60
        E 0 90 48 60
        E 0 90 3c 60
        E 120 80 60 00
        E 0 80 54 00
        E 0 80 48 00
        E 0 90 60 60
        E 0 80 3c 00
        E 120 80 60 00
        E 0 90 60 60
        E 0 90 54 60
        E 0 90 48 60
        E 120 80 60 00
        E 0 80 54 00
        E 0 80 48 00
        E 0 90 61 60
        E 0 90 63 60
        E 120 80 61 00
        E 0 80 63 00
        E 240 90 60 60
        E 0 90 62 60
        E 0 90 54 60
        E 0 90 56 60
        E 0 90 48 60
        E 0 90 4a 60
        E 120 80 60 00
        E 0 80 62 00
        E 0 80 54 00
        E 0 80 56 00
        E 0 80 48 00
        E 0 80 4a 00
        E 360 90 60 60
        E 0 90 62 60
        E 0 90 54 60
        E 0 90 56 60
        E 0 90 48 60
        E 0 90 4a 60
        E 120 80 60 00
        E 0 80 62 00
        E 0 80 54 00
        E 0 80 56 00
        E 0 80 48 00
        E 0 80 4a 00
        E 120 90 60 60
        E 0 90 62 60
        E 0 90 54 60
        E 0 90 56 60
        E 0 90 48 60
        E 0 90 4a 60
        E 0 90 3c 60
        E 120 80 60 00
        E 0 80 62 00
        E 0 80 54 00
        E 0 80 56 00
        E 0 80 48 00
        E 0 80 4a 00
        E 0 80 3c 00
        E 120 90 60 60
        E 0 90 62 60
        E 0 90 54 60
        E 0 90 56 60
        E 120 80 60 00
        E 0 80 62 00
        E 0 80 54 00
        E 0 80 56 00
        E 120 90 60 60
        E 0 90 54 60
        E 0 90 48 60
        E 0 90 3c 60
        E 120 80 60 00
        E 0 80 54 00
        E 0 80 48 00
        E 0 90 60 60
        E 0 80 3c 00
        E 120 80 60 00
        E 0 90 60 60
        E 0 90 54 60
        E 0 90 48 60
        E 120 80 60 00
        E 0 80 54 00
        E 0 80 48 00
        E 0 90 61 60
        E 0 90 63 60
        E 120 80 61 00
        E 0 80 63 00
        E 240 90 60 60
        E 0 90 62 60
        E 0 90 54 60
        E 0 90 56 60
        E 0 90 48 60
        E 0 90 4a 60
        E 120 80 60 00
        E 0 80 62 00
        E 0 80 54 00
        E 0 80 56 00
        E 0 80 48 00
        E 0 80 4a 00
        E 360 90 60 60
        E 0 90 62 60
        E 0 90 54 60
        E 0 90 56 60
        E 0 90 48 60
        E 0 90 4a 60
        E 120 80 60 00
        E 0 80 62 00
        E 0 80 54 00
        E 0 80 56 00
        E 0 80 48 00
        E 0 80 4a 00
        E 120 90 60 60
        E 0 90 62 60
        E 0 90 54 60
        E 0 90 56 60
        E 0 90 48 60
        E 0 90 4a 60
        E 0 90 3c 60
        E 120 80 60 00
        E 0 80 62 00
        E 0 80 54 00
        E 0 80 56 00
        E 0 80 48 00
        E 0 80 4a 00
        E 0 80 3c 00
        E 120 90 60 60
        E 0 90 62 60
        E 0 90 54 60
        E 0 90 56 60
        E 120 80 60 00
        E 0 80 62 00
        E 0 80 54 00
        E 0 80 56 00
        E 120 90 60 60
        E 0 90 54 60
        E 0 90 48 60
        E 0 90 3c 60
        E 120 80 60 00
        E 0 80 54 00
        E 0 80 48 00
        E 0 90 60 60
        E 0 80 3c 00
        E 120 80 60 00
        E 0 90 60 60
        E 0 90 54 60
        E 0 90 48 60
        E 120 80 60 00
        E 0 80 54 00
        E 0 80 48 00
        E 0 90 62 60
        E 0 90 63 60
        E 120 80 62 00
        E 0 80 63 00
        E 240 90 61 60
        E 0 90 62 60
        E 0 90 55 60
        E 0 90 56 60
        E 0 90 49 60
        E 0 90 4a 60
        E 120 80 61 00
        E 0 80 62 00
        E 0 80 55 00
        E 0 80 56 00
        E 0 80 49 00
        E 0 80 4a 00
        E 360 90 61 60
        E 0 90 62 60
        E 0 90 55 60
        E 0 90 56 60
        E 0 90 49 60
        E 0 90 4a 60
        E 120 80 61 00
        E 0 80 62 00
        E 0 80 55 00
        E 0 80 56 00
        E 0 80 49 00
        E 0 80 4a 00
        E 120 90 61 60
        E 0 90 62 60
        E 0 90 55 60
        E 0 90 56 60
        E 0 90 49 60
        E 0 90 4a 60
        E 120 80 61 00
        E 0 80 62 00
        E 0 80 55 00
        E 0 80 56 00
        E 0 80 49 00
        E 0 80 4a 00
        E 120 90 61 60
        E 0 90 62 60
        E 0 90 55 60
        E 0 90 56 60
        E 120 80 61 00
        E 0 80 62 00
        E 0 80 55 00
        E 0 80 56 00
        E 120 90 60 60
        E 0 90 54 60
        E 0 90 48 60
        E 0 90 3c 60
        E 120 80 60 00
        E 0 80 54 00
        E 0 80 48 00
        E 0 90 60 60
        E 0 80 3c 00
        E 120 80 60 00
        E 0 90 60 60
        E 0 90 54 60
        E 0 90 48 60
        E 120 80 60 00
        E 0 80 54 00
        E 0 80 48 00
        E 0 90 62 60
        E 0 90 63 60
        E 120 80 62 00
        E 0 80 63 00
        E 240 90 61 60
        E 0 90 62 60
        E 0 90 55 60
        E 0 90 56 60
        E 0 90 49 60
        E 0 90 4a 60
        E 120 80 61 00
        E 0 80 62 00
        E 0 80 55 00
        E 0 80 56 00
        E 0 80 49 00
        E 0 80 4a 00
        E 360 90 61 60
        E 0 90 62 60
        E 0 90 55 60
        E 0 90 56 60
        E 0 90 49 60
        E 0 90 4a 60
        E 120 80 61 00
        E 0 80 62 00
        E 0 80 55 00
        E 0 80 56 00
        E 0 80 49 00
        E 0 80 4a 00
        E 120 90 61 60
        E 0 90 62 60
        E 0 90 55 60
        E 0 90 56 60
        E 0 90 49 60
        E 0 90 4a 60
        E 120 80 61 00
        E 0 80 62 00
        E 0 80 55 00
        E 0 80 56 00
        E 0 80 49 00
        E 0 80 4a 00
        E 120 90 61 60
        E 0 90 62 60
        E 0 90 55 60
        E 0 90 56 60
        E 120 80 61 00
        E 0 80 62 00
        E 0 80 55 00
        E 0 80 56 00
        E 120 90 60 60
        E 0 90 54 60
        E 0 90 48 60
        E 0 90 3c 60
        E 120 80 60 00
        E 0 80 54 00
        E 0 80 48 00
        E 0 90 60 60
        E 0 80 3c 00
        E 120 80 60 00
        E 0 90 60 60
        E 0 90 54 60
        E 0 90 48 60
        E 120 80 60 00
        E 0 80 54 00
        E 0 80 48 00
        E 0 90 61 60
        E 0 90 63 60
        E 120 80 61 00
        E 0 80 63 00
        E 240 90 60 60
        E 0 90 62 60
        E 0 90 54 60
        E 0 90 56 60
        E 0 90 48 60
        E 0 90 4a 60
        E 120 80 60 00
        E 0 80 62 00
        E 0 80 54 00
        E 0 80 56 00
        E 0 80 48 00
        E 0 80 4a 00
        E 360 90 60 60
        E 0 90 62 60
        E 0 90 54 60
        E 0 90 56 60
        E 0 90 48 60
        E 0 90 4a 60
        E 120 80 60 00
        E 0 80 62 00
        E 0 80 54 00
        E 0 80 56 00
        E 0 80 48 00
        E 0 80 4a 00
        E 120 90 60 60
        E 0 90 62 60
        E 0 90 54 60
        E 0 90 56 60
        E 0 90 48 60
        E 0 90 4a 60
        E 0 90 3c 60
        E 120 80 60 00
        E 0 80 62 00
        E 0 80 54 00
        E 0 80 56 00
        E 0 80 48 00
        E 0 80 4a 00
        E 0 80 3c 00
        E 120 90 60 60
        E 0 90 62 60
        E 0 90 54 60
        E 0 90 56 60
        E 120 80 60 00
        E 0 80 62 00
        E 0 80 54 00
        E 0 80 56 00
        E 120 90 60 60
        E 0 90 54 60
        E 0 90 48 60
        E 0 90 3c 60
        E 120 80 60 00
        E 0 80 54 00
        E 0 80 48 00
        E 0 90 60 60
        E 0 80 3c 00
        E 120 80 60 00
        E 0 90 60 60
        E 0 90 54 60
        E 0 90 48 60
        E 120 80 60 00
        E 0 80 54 00
        E 0 80 48 00
        E 0 90 61 60
        E 0 90 63 60
        E 120 80 61 00
        E 0 80 63 00
        E 240 90 60 60
        E 0 90 62 60
        E 0 90 54 60
        E 0 90 56 60
        E 0 90 48 60
        E 0 90 4a 60
        E 120 80 60 00
        E 0 80 62 00
        E 0 80 54 00
        E 0 80 56 00
        E 0 80 48 00
        E 0 80 4a 00
        E 360 90 60 60
        E 0 90 62 60
        E 0 90 54 60
        E 0 90 56 60
        E 0 90 48 60
        E 0 90 4a 60
        E 120 80 60 00
        E 0 80 62 00
        E 0 80 54 00
        E 0 80 56 00
        E 0 80 48 00
        E 0 80 4a 00
        E 120 90 60 60
        E 0 90 62 60
        E 0 90 54 60
        E 0 90 56 60
        E 0 90 48 60
        E 0 90 4a 60
        E 0 90 3c 60
        E 120 80 60 00
        E 0 80 62 00
        E 0 80 54 00
        E 0 80 56 00
        E 0 80 48 00
        E 0 80 4a 00
        E 0 80 3c 00
        E 120 90 60 60
        E 0 90 62 60
        E 0 90 54 60
        E 0 90 56 60
        E 120 80 60 00
        E 0 80 62 00
        E 0 80 54 00
        E 0 80 56 00
        E 120 90 60 60
        E 0 90 54 60
        E 0 90 48 60
        E 0 90 3c 60
        E 120 80 60 00
        E 0 80 54 00
        E 0 80 48 00
        E 0 90 60 60
        E 0 80 3c 00
        E 120 80 60 00
        E 0 90 60 60
        E 0 90 54 60
        E 0 90 48 60
        E 120 80 60 00
        E 0 80 54 00
        E 0 80 48 00
        E 0 90 62 60
        E 0 90 63 60
        E 120 80 62 00
        E 0 80 63 00
        E 240 90 61 60
        E 0 90 62 60
        E 0 90 55 60
        E 0 90 56 60
        E 0 90 49 60
        E 0 90 4a 60
        E 120 80 61 00
        E 0 80 62 00
        E 0 80 55 00
        E 0 80 56 00
        E 0 80 49 00
        E 0 80 4a 00
        E 360 90 61 60
        E 0 90 62 60
        E 0 90 55 60
        E 0 90 56 60
        E 0 90 49 60
        E 0 90 4a 60
        E 120 80 61 00
        E 0 80 62 00
        E 0 80 55 00
        E 0 80 56 00
        E 0 80 49 00
        E 0 80 4a 00
        E 120 90 61 60
        E 0 90 62 60
        E 0 90 55 60
        E 0 90 56 60
        E 0 90 49 60
        E 0 90 4a 60
        E 120 80 61 00
        E 0 80 62 00
        E 0 80 55 00
        E 0 80 56 00
        E 0 80 49 00
        E 0 80 4a 00
        E 120 90 61 60
        E 0 90 62 60
        E 0 90 55 60
        E 0 90 56 60
        E 120 80 61 00
        E 0 80 62 00
        E 0 80 55 00
        E 0 80 56 00
        E 120 90 60 60
        E 0 90 54 60
        E 0 90 48 60
        E 0 90 3c 60
        E 120 80 60 00
        E 0 80 54 00
        E 0 80 48 00
        E 0 90 60 60
        E 0 80 3c 00
        E 120 80 60 00
        E 0 90 60 60
        E 0 90 54 60
        E 0 90 48 60
        E 120 80 60 00
        E 0 80 54 00
        E 0 80 48 00
        E 0 90 62 60
        E 0 90 63 60
        E 120 80 62 00
        E 0 80 63 00
        E 240 90 61 60
        E 0 90 62 60
        E 0 90 55 60
        E 0 90 56 60
        E 0 90 49 60
        E 0 90 4a 60
        E 120 80 61 00
        E 0 80 62 00
        E 0 80 55 00
        E 0 80 56 00
        E 0 80 49 00
        E 0 80 4a 00
        E 360 90 61 60
        E 0 90 62 60
        E 0 90 55 60
        E 0 90 56 60
        E 0 90 49 60
        E 0 90 4a 60
        E 120 80 61 00
        E 0 80 62 00
        E 0 80 55 00
        E 0 80 56 00
        E 0 80 49 00
        E 0 80 4a 00
        E 120 90 61 60
        E 0 90 62 60
        E 0 90 55 60
        E 0 90 56 60
        E 0 90 49 60
        E 0 90 4a 60
        E 120 80 61 00
        E 0 80 62 00
        E 0 80 55 00
        E 0 80 56 00
        E 0 80 49 00
        E 0 80 4a 00
        E 120 90 61 60
        E 0 90 62 60
        E 0 90 55 60
        E 0 90 56 60
        E 120 80 61 00
        E 0 80 62 00
        E 0 80 55 00
        E 0 80 56 00
        E 120 90 61 60
        E 0 90 63 60
        E 0 90 55 60
        E 0 90 57 60
        E 0 90 49 60
        E 0 90 4b 60
        E 0 90 3e 60
        E 120 80 55 00
        E 0 80 57 00
        E 0 80 49 00
        E 0 80 4b 00
        E 0 80 3e 00
        E 240 80 61 00
        E 0 80 63 00
        E 0 90 60 60
        E 0 90 62 60
        E 0 90 54 60
        E 0 90 56 60
        E 120 80 54 00
        E 0 80 56 00
        E 240 80 60 00
        E 0 80 62 00
        E 0 90 61 60
        E 0 90 63 60
        E 0 90 55 60
        E 0 90 57 60
        E 0 90 49 60
        E 0 90 4b 60
        E 840 80 49 00
        E 0 80 4b 00
        E 120 80 55 00
        E 0 80 57 00
        E 240 80 61 00
        E 0 80 63 00
        E 0 90 61 60
        E 0 90 63 60
        E 0 90 55 60
        E 0 90 57 60
        E 0 90 49 60
        E 0 90 4b 60
        E 0 90 3e 60
        E 120 80 55 00
        E 0 80 57 00
        E 0 80 49 00
        E 0 80 4b 00
        E 0 80 3e 00
        E 240 80 61 00
        E 0 80 63 00
        E 0 90 60 60
        E 0 90 62 60
        E 0 90 54 60
        E 0 90 56 60
        E 120 80 54 00
        E 0 80 56 00
        E 240 80 60 00
        E 0 80 62 00
        E 0 90 61 60
        E 0 90 63 60
        E 0 90 55 60
        E 0 90 57 60
        E 0 90 49 60
        E 0 90 4b 60
        E 840 80 49 00
        E 0 80 4b 00
        E 120 80 55 00
        E 0 80 57 00
        E 240 80 61 00
        E 0 80 63 00
        E 0 90 62 60
        E 0 90 64 60
        E 0 90 56 60
        E 0 90 58 60
        E 0 90 4b 60
        E 0 90 4c 60
        E 0 90 40 60
        E 120 80 56 00
        E 0 80 58 00
        E 0 80 4b 00
        E 0 80 4c 00
        E 0 80 40 00
        E 240 80 62 00
        E 0 80 64 00
        E 0 90 61 60
        E 0 90 63 60
        E 0 90 55 60
        E 0 90 57 60
        E 120 80 55 00
        E 0 80 57 00
        E 240 80 61 00
        E 0 80 63 00
        E 0 90 62 60
        E 0 90 64 60
        E 0 90 56 60
        E 0 90 58 60
        E 0 90 4b 60
        E 0 90 4c 60
        E 840 80 4b 00
        E 0 80 4c 00
        E 120 80 56 00
        E 0 80 58 00
        E 240 80 62 00
        E 0 80 64 00
        E 0 90 62 60
        E 0 90 64 60
        E 0 90 56 60
        E 0 90 58 60
        E 0 90 4b 60
        E 0 90 4c 60
        E 0 90 40 60
        E 120 80 56 00
        E 0 80 58 00
        E 0 80 4b 00
        E 0 80 4c 00
        E 0 80 40 00
        E 240 80 62 00
        E 0 80 64 00
        E 0 90 61 60
        E 0 90 63 60
        E 0 90 55 60
        E 0 90 57 60
        E 120 80 55 00
        E 0 80 57 00
        E 240 80 61 00
        E 0 80 63 00
        E 0 90 62 60
        E 0 90 64 60
        E 0 90 56 60
        E 0 90 58 60
        E 0 90 4b 60
        E 0 90 4c 60
        E 840 80 4b 00
        E 0 80 4c 00
        E 120 80 56 00
        E 0 80 58 00
        E 240 80 62 00
        E 0 80 64 00
        E 0 90 61 60
        E 0 90 63 60
        E 0 90 55 60
        E 0 90 57 60
        E 0 90 49 60
        E 0 90 4b 60
        E 0 90 3e 60
        E 120 80 55 00
        E 0 80 57 00
        E 0 80 49 00
        E 0 80 4b 00
        E 0 80 3e 00
        E 240 80 61 00
        E 0 80 63 00
        E 0 90 60 60
        E 0 90 62 60
        E 0 90 54 60
        E 0 90 56 60
        E 120 80 54 00
        E 0 80 56 00
        E 240 80 60 00
        E 0 80 62 00
        E 0 90 61 60
        E 0 90 63 60
        E 0 90 55 60
        E 0 90 57 60
        E 0 90 49 60
        E 0 90 4b 60
        E 840 80 49 00
        E 0 80 4b 00
        E 120 80 55 00
        E 0 80 57 00
        E 240 80 61 00
        E 0 80 63 00
        E 0 90 61 60
        E 0 90 63 60
        E 0 90 55 60
        E 0 90 57 60
        E 0 90 49 60
        E 0 90 4b 60
        E 0 90 3e 60
        E 120 80 55 00
        E 0 80 57 00
        E 0 80 49 00
        E 0 80 4b 00
        E 0 80 3e 00
        E 240 80 61 00
        E 0 80 63 00
        E 0 90 60 60
        E 0 90 62 60
        E 0 90 54 60
        E 0 90 56 60
        E 120 80 54 00
        E 0 80 56 00
        E 240 80 60 00
        E 0 80 62 00
        E 0 90 61 60
        E 0 90 63 60
        E 0 90 55 60
        E 0 90 57 60
        E 0 90 49 60
        E 0 90 4b 60
        E 840 80 49 00
        E 0 80 4b 00
        E 120 80 55 00
        E 0 80 57 00
        E 240 80 61 00
        E 0 80 63 00
        E 0 90 61 60
        E 0 90 63 60
        E 0 90 55 60
        E 0 90 57 60
        E 0 90 49 60
        E 0 90 4b 60
        E 0 90 3e 60
        E 120 80 55 00
        E 0 80 57 00
        E 0 80 49 00
        E 0 80 4b 00
        E 0 80 3e 00
        E 240 80 61 00
        E 0 80 63 00
        E 0 90 60 60
        E 0 90 61 60
        E 0 90 54 60
        E 0 90 55 60
        E 120 80 54 00
        E 0 80 55 00
        E 240 80 60 00
        E 0 80 61 00
        E 0 90 63 60
        E 0 90 64 60
        E 0 90 57 60
        E 0 90 58 60
        E 0 90 4b 60
        E 0 90 4c 60
        E 840 80 4b 00
        E 0 80 4c 00
        E 120 80 57 00
        E 0 80 58 00
        E 240 80 63 00
        E 0 80 64 00
        E 0 90 63 60
        E 0 90 64 60
        E 0 90 57 60
        E 0 90 58 60
        E 0 90 4b 60
        E 0 90 4c 60
        E 0 90 40 60
        E 120 80 63 00
        E 0 80 64 00
        E 0 80 57 00
        E 0 80 58 00
        E 0 80 4b 00
        E 0 80 4c 00
        E 0 90 63 60
        E 0 90 64 60
        E 0 80 40 00
        E 120 80 63 00
        E 0 80 64 00
        E 0 90 63 60
        E 0 90 64 60
        E 0 90 57 60
        E 0 90 58 60
        E 0 90 4b 60
        E 0 90 4c 60
        E 120 80 63 00
        E 0 80 64 00
        E 0 80 57 00
        E 0 80 58 00
        E 0 80 4b 00
        E 0 80 4c 00
        E 0 90 63 60
        E 0 90 64 60
        E 120 80 63 00
        E 0 80 64 00
        E 0 90 63 60
        E 0 90 64 60
        E 0 90 57 60
        E 0 90 58 60
        E 0 90 4b 60
        E 0 90 4c 60
        E 0 90 40 60
        E 120 80 63 00
        E 0 80 64 00
        E 0 80 57 00
        E 0 80 58 00
        E 0 80 4b 00
        E 0 80 4c 00
        E 0 90 63 60
        E 0 90 64 60
        E 0 80 40 00
        E 120 80 63 00
        E 0 80 64 00
        E 0 90 63 60
        E 0 90 64 60
        E 0 90 57 60
        E 0 90 58 60
        E 0 90 4b 60
        E 0 90 4c 60
        E 120 80 63 00
        E 0 80 64 00
        E 0 80 57 00
        E 0 80 58 00
        E 0 80 4b 00
        E 0 80 4c 00
        E 0 90 63 60
        E 0 90 64 60
        E 120 80 63 00
        E 0 80 64 00
        E 0 90 63 60
        E 0 90 64 60
        E 0 90 57 60
        E 0 90 58 60
        E 0 90 4b 60
        E 0 90 4c 60
        E 0 90 40 60
        E 120 80 63 00
        E 0 80 64 00
        E 0 80 57 00
        E 0 80 58 00
        E 0 80 4b 00
        E 0 80 4c 00
        E 0 90 63 60
        E 0 90 64 60
        E 0 80 40 00
        E 120 80 63 00
        E 0 80 64 00
        E 0 90 63 60
        E 0 90 64 60
        E 0 90 57 60
        E 0 90 58 60
        E 0 90 4b 60
        E 0 90 4c 60
        E 120 80 63 00
        E 0 80 64 00
        E 0 80 57 00
        E 0 80 58 00
        E 0 80 4b 00
        E 0 80 4c 00
        E 0 90 63 60
        E 0 90 64 60
        E 120 80 63 00
        E 0 80 64 00
        E 0 90 63 60
        E 0 90 64 60
        E 0 90 57 60
        E 0 90 58 60
        E 0 90 4b 60
        E 0 90 4c 60
        E 0 90 40 60
        E 120 80 63 00
        E 0 80 64 00
        E 0 80 57 00
        E 0 80 58 00
        E 0 80 4b 00
        E 0 80 4c 00
        E 0 90 63 60
        E 0 90 64 60
        E 0 80 40 00
        E 120 80 63 00
        E 0 80 64 00
        E 0 90 63 60
        E 0 90 64 60
        E 0 90 57 60
        E 0 90 58 60
        E 0 90 4b 60
        E 0 90 4c 60
        E 120 80 63 00
        E 0 80 64 00
        E 0 80 57 00
        E 0 80 58 00
        E 0 80 4b 00
        E 0 80 4c 00
        E 0 90 63 60
        E 0 90 64 60
        E 120 80 63 00
        E 0 80 64 00
        E 0 90 62 60
        E 0 90 64 60
        E 0 90 56 60
        E 0 90 58 60
        E 0 90 4b 60
        E 0 90 4c 60
        E 0 90 40 60
        E 120 80 56 00
        E 0 80 58 00
        E 0 80 4b 00
        E 0 80 4c 00
        E 0 80 40 00
        E 600 80 62 00
        E 0 80 64 00
        E 0 90 61 60
        E 0 90 63 60
        E 0 90 55 60
        E 0 90 57 60
        E 0 90 49 60
        E 0 90 4b 60
        E 120 80 55 00
        E 0 80 57 00
        E 0 80 49 00
        E 0 80 4b 00
        E 600 80 61 00
        E 0 80 63 00
        E 0 90 61 60
        E 0 90 62 60
        E 0 90 55 60
        E 0 90 56 60
        E 0 90 49 60
        E 0 90 4a 60
        E 120 80 55 00
        E 0 80 56 00
        E 0 80 49 00
        E 0 80 4a 00
        E 360 80 61 00
        E 0 80 62 00
        E 0 90 62 60
        E 0 90 63 60
        E 0 90 56 60
        E 0 90 57 60
        E 0 90 4a 60
        E 0 90 4b 60
        E 0 90 3f 60
        E 120 80 56 00
        E 0 80 57 00
        E 0 80 4a 00
        E 0 80 4b 00
        E 0 80 3f 00
        E 600 80 62 00
        E 0 80 63 00
        E 0 90 61 60
        E 0 90 62 60
        E 0 90 55 60
        E 0 90 56 60
        E 0 90 49 60
        E 0 90 4a 60
        E 120 80 55 00
        E 0 80 56 00
        E 0 80 49 00
        E 0 80 4a 00
        E 600 80 61 00
        E 0 80 62 00
        E 0 90 60 60
        E 0 90 61 60
        E 0 90 54 60
        E 0 90 55 60
        E 0 90 48 60
        E 0 90 49 60
        E 120 80 54 00
        E 0 80 55 00
        E 0 80 48 00
        E 0 80 49 00
        E 360 80 60 00
        E 0 80 61 00
        E 0 90 61 60
        E 0 90 62 60
        E 0 90 55 60
        E 0 90 56 60
        E 0 90 49 60
        E 0 90 4a 60
        E 0 90 3d 60
        E 120 80 55 00
        E 0 80 56 00
        E 0 80 49 00
        E 0 80 4a 00
        E 0 80 3d 00
        E 600 80 61 00
        E 0 80 62 00
        E 0 90 60 60
        E 0 90 61 60
        E 0 90 54 60
        E 0 90 55 60
        E 0 90 48 60
        E 0 90 49 60
        E 120 80 54 00
        E 0 80 55 00
        E 0 80 48 00
        E 0 80 49 00
        E 600 80 60 00
        E 0 80 61 00
        E 0 90 61 60
        E 0 90 62 60
        E 0 90 55 60
        E 0 90 56 60
        E 0 90 49 60
        E 0 90 4a 60
        E 0 90 3d 60
        E 120 80 55 00
        E 0 80 56 00
        E 0 80 49 00
        E 0 80 4a 00
        E 0 80 3d 00
        E 600 80 61 00
        E 0 80 62 00
        E 0 90 62 60
        E 0 90 63 60
        E 0 90 56 60
        E 0 90 57 60
        E 0 90 4a 60
        E 0 90 4b 60
        E 120 80 56 00
        E 0 80 57 00
        E 0 80 4a 00
        E 0 80 4b 00
        E 600 80 62 00
        E 0 80 63 00
        E 0 90 62 60
        E 0 90 63 60
        E 0 90 56 60
        E 0 90 57 60
        E 0 90 4a 60
        E 0 90 4b 60
        E 0 90 3f 60
        E 120 80 3f 00
        E 480 80 4a 00
        E 0 80 4b 00
        E 120 80 56 00
        E 0 80 57 00
        E 240 80 62 00
        E 0 80 63 00
        E 0 90 62 60
        E 0 90 64 60
        E 0 90 56 60
        E 0 90 58 60
        E 0 90 4b 60
        E 0 90 4c 60
        E 0 90 40 60
        E 120 80 56 00
        E 0 80 58 00
        E 0 80 4b 00
        E 0 80 4c 00
        E 0 80 40 00
        E 600 80 62 00
        E 0 80 64 00
        E 0 90 61 60
        E 0 90 63 60
        E 0 90 55 60
        E 0 90 57 60
        E 0 90 49 60
        E 0 90 4b 60
        E 120 80 55 00
        E 0 80 57 00
        E 0 80 49 00
        E 0 80 4b 00
        E 600 80 61 00
        E 0 80 63 00
        E 0 90 61 60
        E 0 90 62 60
        E 0 90 55 60
        E 0 90 56 60
        E 0 90 49 60
        E 0 90 4a 60
        E 120 80 55 00
        E 0 80 56 00
        E 0 80 49 00
        E 0 80 4a 00
        E 360 80 61 00
        E 0 80 62 00
        E 0 90 62 60
        E 0 90 63 60
        E 0 90 56 60
        E 0 90 57 60
        E 0 90 4a 60
        E 0 90 4b 60
        E 0 90 3f 60
        E 120 80 56 00
        E 0 80 57 00
        E 0 80 4a 00
        E 0 80 4b 00
        E 0 80 3f 00
        E 600 80 62 00
        E 0 80 63 00
        E 0 90 61 60
        E 0 90 62 60
        E 0 90 55 60
        E 0 90 56 60
        E 0 90 49 60
        E 0 90 4a 60
        E 120 80 55 00
        E 0 80 56 00
        E 0 80 49 00
        E 0 80 4a 00
        E 600 80 61 00
        E 0 80 62 00
        E 0 90 60 60
        E 0 90 61 60
        E 0 90 54 60
        E 0 90 55 60
        E 0 90 48 60
        E 0 90 49 60
        E 120 80 54 00
        E 0 80 55 00
        E 0 80 48 00
        E 0 80 49 00
        E 360 80 60 00
        E 0 80 61 00
        E 0 90 61 60
        E 0 90 62 60
        E 0 90 55 60
        E 0 90 56 60
        E 0 90 49 60
        E 0 90 4a 60
        E 0 90 3d 60
        E 120 80 55 00
        E 0 80 56 00
        E 0 80 49 00
        E 0 80 4a 00
        E 0 80 3d 00
        E 600 80 61 00
        E 0 80 62 00
        E 0 90 60 60
        E 0 90 61 60
        E 0 90 54 60
        E 0 90 55 60
        E 0 90 48 60
        E 0 90 49 60
        E 120 80 54 00
        E 0 80 55 00
        E 0 80 48 00
        E 0 80 49 00
        E 600 80 60 00
        E 0 80 61 00
        E 0 90 61 60
        E 0 90 62 60
        E 0 90 55 60
        E 0 90 56 60
        E 0 90 49 60
        E 0 90 4a 60
        E 0 90 3d 60
        E 120 80 55 00
        E 0 80 56 00
        E 0 80 49 00
        E 0 80 4a 00
        E 0 80 3d 00
        E 600 80 61 00
        E 0 80 62 00
        E 0 90 62 60
        E 0 90 63 60
        E 0 90 56 60
        E 0 90 57 60
        E 0 90 4a 60
        E 0 90 4b 60
        E 120 80 56 00
        E 0 80 57 00
        E 0 80 4a 00
        E 0 80 4b 00
        E 600 80 62 00
        E 0 80 63 00
        E 0 90 62 60
        E 0 90 63 60
        E 0 90 56 60
        E 0 90 57 60
        E 0 90 4a 60
        E 0 90 4b 60
        E 0 90 3f 60
        E 120 80 3f 00
        E 480 80 4a 00
        E 0 80 4b 00
        E 120 80 56 00
        E 0 80 57 00
        E 240 80 62 00
        E 0 80 63 00
        E 0 90 62 60
        E 0 90 64 60
        E 0 90 56 60
        E 0 90 58 60
        E 0 90 4b 60
        E 0 90 4c 60
        E 0 90 40 60
        E 120 80 56 00
        E 0 80 58 00
        E 0 80 4b 00
        E 0 80 4c 00
        E 0 80 40 00
        E 600 80 62 00
        E 0 80 64 00
        E 0 90 61 60
        E 0 90 63 60
        E 0 90 55 60
        E 0 90 57 60
        E 0 90 49 60
        E 0 90 4b 60
        E 120 80 55 00
        E 0 80 57 00
        E 0 80 49 00
        E 0 80 4b 00
        E 600 80 61 00
        E 0 80 63 00
        E 0 90 61 60
        E 0 90 62 60
        E 0 90 55 60
        E 0 90 56 60
        E 0 90 49 60
        E 0 90 4a 60
        E 120 80 55 00
        E 0 80 56 00
        E 0 80 49 00
        E 0 80 4a 00
        E 360 80 61 00
        E 0 80 62 00
        E 0 90 62 60
        E 0 90 63 60
        E 0 90 56 60
        E 0 90 57 60
        E 0 90 4a 60
        E 0 90 4b 60
        E 0 90 3f 60
        E 120 80 56 00
        E 0 80 57 00
        E 0 80 4a 00
        E 0 80 4b 00
        E 0 80 3f 00
        E 600 80 62 00
        E 0 80 63 00
        E 0 90 61 60
        E 0 90 62 60
        E 0 90 55 60
        E 0 90 56 60
        E 0 90 49 60
        E 0 90 4a 60
        E 120 80 55 00
        E 0 80 56 00
        E 0 80 49 00
        E 0 80 4a 00
        E 600 80 61 00
        E 0 80 62 00
        E 0 90 60 60
        E 0 90 61 60
        E 0 90 54 60
        E 0 90 55 60
        E 0 90 48 60
        E 0 90 49 60
        E 120 80 54 00
        E 0 80 55 00
        E 0 80 48 00
        E 0 80 49 00
        E 360 80 60 00
        E 0 80 61 00
        E 0 90 61 60
        E 0 90 62 60
        E 0 90 55 60
        E 0 90 56 60
        E 0 90 49 60
        E 0 90 4a 60
        E 0 90 3d 60
        E 120 80 55 00
        E 0 80 56 00
        E 0 80 49 00
        E 0 80 4a 00
        E 0 80 3d 00
        E 600 80 61 00
        E 0 80 62 00
        E 0 90 60 60
        E 0 90 61 60
        E 0 90 54 60
        E 0 90 55 60
        E 0 90 48 60
        E 0 90 49 60
        E 120 80 54 00
        E 0 80 55 00
        E 0 80 48 00
        E 0 80 49 00
        E 600 80 60 00
        E 0 80 61 00
        E 0 90 61 60
        E 0 90 62 60
        E 0 90 55 60
        E 0 90 56 60
        E 0 90 49 60
        E 0 90 4a 60
        E 0 90 3d 60
        E 120 80 55 00
        E 0 80 56 00
        E 0 80 49 00
        E 0 80 4a 00
        E 0 80 3d 00
        E 600 80 61 00
        E 0 80 62 00
        E 0 90 62 60
        E 0 90 63 60
        E 0 90 56 60
        E 0 90 57 60
        E 0 90 4a 60
        E 0 90 4b 60
        E 120 80 56 00
        E 0 80 57 00
        E 0 80 4a 00
        E 0 80 4b 00
        E 600 80 62 00
        E 0 80 63 00
        E 0 90 62 60
        E 0 90 63 60
        E 0 90 56 60
        E 0 90 57 60
        E 0 90 4a 60
        E 0 90 4b 60
        E 0 90 3f 60
        E 120 80 3f 00
        E 480 80 4a 00
        E 0 80 4b 00
        E 120 80 56 00
        E 0 80 57 00
        E 240 80 62 00
        E 0 80 63 00
        E 0 90 62 60
        E 0 90 64 60
        E 0 90 56 60
        E 0 90 58 60
        E 0 90 4b 60
        E 0 90 4c 60
        E 0 90 40 60
        E 120 80 56 00
        E 0 80 58 00
        E 0 80 4b 00
        E 0 80 4c 00
        E 0 80 40 00
        E 600 80 62 00
        E 0 80 64 00
        E 0 90 61 60
        E 0 90 63 60
        E 0 90 55 60
        E 0 90 57 60
        E 0 90 49 60
        E 0 90 4b 60
        E 120 80 55 00
        E 0 80 57 00
        E 0 80 49 00
        E 0 80 4b 00
        E 600 80 61 00
        E 0 80 63 00
        E 0 90 61 60
        E 0 90 62 60
        E 0 90 55 60
        E 0 90 56 60
        E 0 90 49 60
        E 0 90 4a 60
        E 120 80 55 00
        E 0 80 56 00
        E 0 80 49 00
        E 0 80 4a 00
        E 360 80 61 00
        E 0 80 62 00
        E 0 90 62 60
        E 0 90 63 60
        E 0 90 56 60
        E 0 90 57 60
        E 0 90 4a 60
        E 0 90 4b 60
        E 0 90 3f 60
        E 120 80 56 00
        E 0 80 57 00
        E 0 80 4a 00
        E 0 80 4b 00
        E 0 80 3f 00
        E 600 80 62 00
        E 0 80 63 00
        E 0 90 61 60
        E 0 90 62 60
        E 0 90 55 60
        E 0 90 56 60
        E 0 90 49 60
        E 0 90 4a 60
        E 120 80 55 00
        E 0 80 56 00
        E 0 80 49 00
        E 0 80 4a 00
        E 600 80 61 00
        E 0 80 62 00
        E 0 90 60 60
        E 0 90 61 60
        E 0 90 54 60
        E 0 90 55 60
        E 0 90 48 60
        E 0 90 49 60
        E 120 80 54 00
        E 0 80 55 00
        E 0 80 48 00
        E 0 80 49 00
        E 360 80 60 00
        E 0 80 61 00
        E 0 90 61 60
        E 0 90 62 60
        E 0 90 55 60
        E 0 90 56 60
        E 0 90 49 60
        E 0 90 4a 60
        E 0 90 3d 60
        E 120 80 55 00
        E 0 80 56 00
        E 0 80 49 00
        E 0 80 4a 00
        E 0 80 3d 00
        E 600 80 61 00
        E 0 80 62 00
        E 0 90 60 60
        E 0 90 61 60
        E 0 90 54 60
        E 0 90 55 60
        E 0 90 48 60
        E 0 90 49 60
        E 120 80 54 00
        E 0 80 55 00
        E 0 80 48 00
        E 0 80 49 00
        E 600 80 60 00
        E 0 80 61 00
        E 0 90 61 60
        E 0 90 62 60
        E 0 90 55 60
        E 0 90 56 60
        E 0 90 49 60
        E 0 90 4a 60
        E 0 90 3d 60
        E 120 80 55 00
        E 0 80 56 00
        E 0 80 49 00
        E 0 80 4a 00
        E 0 80 3d 00
        E 600 80 61 00
        E 0 80 62 00
        E 0 90 62 60
        E 0 90 63 60
        E 0 90 56 60
        E 0 90 57 60
        E 0 90 4a 60
        E 0 90 4b 60
        E 120 80 56 00
        E 0 80 57 00
        E 0 80 4a 00
        E 0 80 4b 00
        E 600 80 62 00
        E 0 80 63 00
        E 0 90 62 60
        E 0 90 63 60
        E 0 90 56 60
        E 0 90 57 60
        E 0 90 4a 60
        E 0 90 4b 60
        E 0 90 3f 60
        E 120 80 3f 00
        E 480 80 4a 00
        E 0 80 4b 00
        E 120 80 56 00
        E 0 80 57 00
        E 240 80 62 00
        E 0 80 63 00
        E 0 90 63 60
        E 0 90 57 60
        E 0 90 4b 60
        E 0 90 3e 60
        E 120 80 63 00
        E 0 80 57 00
        E 0 80 4b 00
        E 0 80 3e 00
        E 240 90 62 60
        E 0 90 56 60
        E 120 80 62 00
        E 0 80 56 00
        E 240 90 63 60
        E 0 90 57 60
        E 0 90 4b 60
        E 120 80 63 00
        E 0 80 57 00
        E 0 80 4b 00
        E 120 90 63 60
        E 0 90 57 60
        E 0 90 4b 60
        E 0 90 3e 60
        E 120 80 63 00
        E 0 80 57 00
        E 0 80 4b 00
        E 0 80 3e 00
        E 240 90 62 60
        E 0 90 56 60
        E 120 80 62 00
        E 0 80 56 00
        E 240 90 63 60
        E 0 90 57 60
        E 0 90 4b 60
        E 120 80 63 00
        E 0 80 57 00
        E 0 80 4b 00
        E 120 90 63 60
        E 0 90 57 60
        E 0 90 4b 60
        E 0 90 3e 60
        E 120 80 63 00
        E 0 80 57 00
        E 0 80 4b 00
        E 0 80 3e 00
        E 240 90 62 60
        E 0 90 56 60
        E 120 80 62 00
        E 0 80 56 00
        E 240 90 61 60
        E 0 90 55 60
        E 0 90 49 60
        E 120 80 55 00
        E 0 80 49 00
        E 360 80 61 00
        E 0 90 61 60
        E 0 90 55 60
        E 0 90 49 60
        E 120 80 61 00
        E 0 80 55 00
        E 0 80 49 00
        E 120 90 61 60
        E 0 90 55 60
        E 0 90 49 60
        E 120 80 61 00
        E 0 80 55 00
        E 0 80 49 00
        E 120 90 60 60
        E 0 90 54 60
        E 120 80 60 00
        E 0 80 54 00
        E 120 90 63 60
        E 0 90 57 60
        E 0 90 4b 60
        E 0 90 3e 60
        E 120 80 63 00
        E 0 80 57 00
        E 0 80 4b 00
        E 0 80 3e 00
        E 240 90 62 60
        E 0 90 56 60
        E 120 80 62 00
        E 0 80 56 00
        E 240 90 63 60
        E 0 90 57 60
        E 0 90 4b 60
        E 120 80 63 00
        E 0 80 57 00
        E 0 80 4b 00
        E 120 90 63 60
        E 0 90 57 60
        E 0 90 4b 60
        E 0 90 3e 60
        E 120 80 63 00
        E 0 80 57 00
        E 0 80 4b 00
        E 0 80 3e 00
        E 240 90 62 60
        E 0 90 56 60
        E 120 80 62 00
        E 0 80 56 00
        E 240 90 63 60
        E 0 90 57 60
        E 0 90 4b 60
        E 120 80 63 00
        E 0 80 57 00
        E 0 80 4b 00
        E 120 90 63 60
        E 0 90 57 60
        E 0 90 4b 60
        E 0 90 3e 60
        E 120 80 63 00
        E 0 80 57 00
        E 0 80 4b 00
        E 0 80 3e 00
        E 240 90 62 60
        E 0 90 56 60
        E 120 80 62 00
        E 0 80 56 00
        E 240 90 61 60
        E 0 90 55 60
        E 0 90 49 60
        E 120 80 55 00
        E 0 80 49 00
        E 360 80 61 00
        E 0 90 61 60
        E 0 90 55 60
        E 0 90 49 60
        E 120 80 61 00
        E 0 80 55 00
        E 0 80 49 00
        E 120 90 61 60
        E 0 90 55 60
        E 0 90 49 60
        E 0 90 3d 60
        E 120 80 61 00
        E 0 80 55 00
        E 0 80 49 00
        E 0 80 3d 00
        E 120 90 60 60
        E 0 90 54 60
        E 120 80 60 00
        E 0 80 54 00
        E 120 90 61 60
        E 0 90 55 60
        E 0 90 49 60
        E 0 90 3d 60
        E 120 80 61 00
        E 0 80 55 00
        E 0 80 49 00
        E 0 80 3d 00
        E 240 90 60 60
        E 0 90 54 60
        E 120 80 60 00
        E 0 80 54 00
        E 240 90 62 60
        E 0 90 56 60
        E 0 90 4a 60
        E 120 80 62 00
        E 0 80 56 00
        E 0 80 4a 00
        E 360 90 62 60
        E 0 90 56 60
        E 0 90 4a 60
        E 120 80 62 00
        E 0 80 56 00
        E 0 80 4a 00
        E 120 90 62 60
        E 0 90 56 60
        E 0 90 4a 60
        E 120 80 62 00
        E 0 80 56 00
        E 0 80 4a 00
        E 120 90 62 60
        E 0 90 56 60
        E 120 80 62 00
        E 0 80 56 00
        E 120 90 61 60
        E 0 90 55 60
        E 0 90 49 60
        E 0 90 3d 60
        E 120 80 61 00
        E 0 80 55 00
        E 0 80 49 00
        E 0 80 3d 00
        E 240 90 60 60
        E 0 90 54 60
        E 120 80 60 00
        E 0 80 54 00
        E 240 90 63 60
        E 0 90 57 60
        E 0 90 4b 60
        E 120 80 63 00
        E 0 80 57 00
        E 0 80 4b 00
        E 360 90 63 60
        E 0 90 57 60
        E 0 90 4b 60
        E 120 80 63 00
        E 0 80 57 00
        E 0 80 4b 00
        E 120 90 63 60
        E 0 90 57 60
        E 0 90 4b 60
        E 120 80 63 00
        E 0 80 57 00
        E 0 80 4b 00
        E 120 90 63 60
        E 0 90 57 60
        E 120 80 63 00
        E 0 80 57 00
        E 120 90 61 60
        E 0 90 55 60
        E 0 90 49 60
        E 0 90 3d 60
        E 120 80 61 00
        E 0 80 55 00
        E 0 80 49 00
        E 0 80 3d 00
        E 240 90 60 60
        E 0 90 54 60
        E 120 80 60 00
        E 0 80 54 00
        E 240 90 63 60
        E 0 90 57 60
        E 0 90 4b 60
        E 120 80 63 00
        E 0 80 57 00
        E 0 80 4b 00
        E 360 90 63 60
        E 0 90 57 60
        E 0 90 4b 60
        E 120 80 63 00
        E 0 80 57 00
        E 0 80 4b 00
        E 120 90 63 60
        E 0 90 57 60
        E 0 90 4b 60
        E 120 80 63 00
        E 0 80 57 00
        E 0 80 4b 00
        E 120 90 63 60
        E 0 90 57 60
        E 120 80 63 00
        E 0 80 57 00
        E 120 90 61 60
        E 0 90 55 60
        E 0 90 49 60
        E 0 90 3d 60
        E 120 80 61 00
        E 0 80 55 00
        E 0 80 49 00
        E 0 80 3d 00
        E 240 90 60 60
        E 0 90 54 60
        E 120 80 60 00
        E 0 80 54 00
        E 240 90 64 60
        E 0 90 58 60
        E 0 90 4b 60
        E 120 80 64 00
        E 0 80 58 00
        E 0 80 4b 00
        E 360 90 64 60
        E 0 90 58 60
        E 0 90 4b 60
        E 120 80 64 00
        E 0 80 58 00
        E 0 80 4b 00
        E 120 90 64 60
        E 0 90 58 60
        E 0 90 4b 60
        E 0 90 3e 60
        E 120 80 64 00
        E 0 80 58 00
        E 0 80 4b 00
        E 0 80 3e 00
        E 120 90 64 60
        E 0 90 58 60
        E 0 90 4b 60
        E 120 80 64 00
        E 0 80 58 00
        E 0 80 4b 00
        E 120 90 63 60
        E 0 90 57 60
        E 0 90 4b 60
        E 0 90 3e 60
        E 120 80 63 00
        E 0 80 57 00
        E 0 80 4b 00
        E 0 80 3e 00
        E 240 90 62 60
        E 0 90 56 60
        E 120 80 62 00
        E 0 80 56 00
        E 240 90 63 60
        E 0 90 57 60
        E 0 90 4b 60
        E 120 80 63 00
        E 0 80 57 00
        E 0 80 4b 00
        E 120 90 63 60
        E 0 90 57 60
        E 0 90 4b 60
        E 0 90 3e 60
        E 120 80 63 00
        E 0 80 57 00
        E 0 80 4b 00
        E 0 80 3e 00
        E 240 90 62 60
        E 0 90 56 60
        E 120 80 62 00
        E 0 80 56 00
        E 240 90 63 60
        E 0 90 57 60
        E 0 90 4b 60
        E 120 80 63 00
        E 0 80 57 00
        E 0 80 4b 00
        E 120 90 63 60
        E 0 90 57 60
        E 0 90 4b 60
        E 0 90 3e 60
        E 120 80 63 00
        E 0 80 57 00
        E 0 80 4b 00
        E 0 80 3e 00
        E 240 90 62 60
        E 0 90 56 60
        E 120 80 62 00
        E 0 80 56 00
        E 240 90 61 60
        E 0 90 55 60
        E 0 90 49 60
        E 120 80 55 00
        E 0 80 49 00
        E 360 80 61 00
        E 0 90 61 60
        E 0 90 55 60
        E 0 90 49 60
        E 120 80 61 00
        E 0 80 55 00
        E 0 80 49 00
        E 120 90 61 60
        E 0 90 55 60
        E 0 90 49 60
        E 120 80 61 00
        E 0 80 55 00
        E 0 80 49 00
        E 120 90 60 60
        E 0 90 54 60
        E 120 80 60 00
        E 0 80 54 00
        E 120 90 63 60
        E 0 90 57 60
        E 0 90 4b 60
        E 0 90 3e 60
        E 120 80 63 00
        E 0 80 57 00
        E 0 80 4b 00
        E 0 80 3e 00
        E 240 90 62 60
        E 0 90 56 60
        E 120 80 62 00
        E 0 80 56 00
        E 240 90 63 60
        E 0 90 57 60
        E 0 90 4b 60
        E 120 80 63 00
        E 0 80 57 00
        E 0 80 4b 00
        E 120 90 63 60
        E 0 90 57 60
        E 0 90 4b 60
        E 0 90 3e 60
        E 120 80 63 00
        E 0 80 57 00
        E 0 80 4b 00
        E 0 80 3e 00
        E 240 90 62 60
        E 0 90 56 60
        E 120 80 62 00
        E 0 80 56 00
        E 240 90 63 60
        E 0 90 57 60
        E 0 90 4b 60
        E 120 80 63 00
        E 0 80 57 00
        E 0 80 4b 00
        E 120 90 63 60
        E 0 90 57 60
        E 0 90 4b 60
        E 0 90 3e 60
        E 120 80 63 00
        E 0 80 57 00
        E 0 80 4b 00
        E 0 80 3e 00
        E 240 90 62 60
        E 0 90 56 60
        E 120 80 62 00
        E 0 80 56 00
        E 240 90 61 60
        E 0 90 55 60
        E 0 90 49 60
        E 120 80 55 00
        E 0 80 49 00
        E 360 80 61 00
        E 0 90 61 60
        E 0 90 55 60
        E 0 90 49 60
        E 120 80 61 00
        E 0 80 55 00
        E 0 80 49 00
        E 120 90 61 60
        E 0 90 55 60
        E 0 90 49 60
        E 0 90 3d 60
        E 120 80 61 00
        E 0 80 55 00
        E 0 80 49 00
        E 0 80 3d 00
        E 120 90 60 60
        E 0 90 54 60
        E 120 80 60 00
        E 0 80 54 00
        E 120 90 61 60
        E 0 90 55 60
        E 0 90 49 60
        E 0 90 3d 60
        E 120 80 61 00
        E 0 80 55 00
        E 0 80 49 00
        E 0 80 3d 00
        E 240 90 60 60
        E 0 90 54 60
        E 120 80 60 00
        E 0 80 54 00
        E 240 90 62 60
        E 0 90 56 60
        E 0 90 4a 60
        E 120 80 62 00
        E 0 80 56 00
        E 0 80 4a 00
        E 360 90 62 60
        E 0 90 56 60
        E 0 90 4a 60
        E 120 80 62 00
        E 0 80 56 00
        E 0 80 4a 00
        E 120 90 62 60
        E 0 90 56 60
        E 0 90 4a 60
        E 120 80 62 00
        E 0 80 56 00
        E 0 80 4a 00
        E 120 90 62 60
        E 0 90 56 60
        E 120 80 62 00
        E 0 80 56 00
        E 120 90 61 60
        E 0 90 55 60
        E 0 90 49 60
        E 0 90 3d 60
        E 120 80 61 00
        E 0 80 55 00
        E 0 80 49 00
        E 0 80 3d 00
        E 240 90 60 60
        E 0 90 54 60
        E 120 80 60 00
        E 0 80 54 00
        E 240 90 63 60
        E 0 90 57 60
        E 0 90 4b 60
        E 120 80 63 00
        E 0 80 57 00
        E 0 80 4b 00
        E 360 90 63 60
        E 0 90 57 60
        E 0 90 4b 60
        E 120 80 63 00
        E 0 80 57 00
        E 0 80 4b 00
        E 120 90 63 60
        E 0 90 57 60
        E 0 90 4b 60
        E 120 80 63 00
        E 0 80 57 00
        E 0 80 4b 00
        E 120 90 63 60
        E 0 90 57 60
        E 120 80 63 00
        E 0 80 57 00
        E 120 90 61 60
        E 0 90 55 60
        E 0 90 49 60
        E 0 90 3d 60
        E 120 80 61 00
        E 0 80 55 00
        E 0 80 49 00
        E 0 80 3d 00
        E 240 90 60 60
        E 0 90 54 60
        E 120 80 60 00
        E 0 80 54 00
        E 240 90 63 60
        E 0 90 57 60
        E 0 90 4b 60
        E 120 80 63 00
        E 0 80 57 00
        E 0 80 4b 00
        E 360 90 63 60
        E 0 90 57 60
        E 0 90 4b 60
        E 120 80 63 00
        E 0 80 57 00
        E 0 80 4b 00
        E 120 90 63 60
        E 0 90 57 60
        E 0 90 4b 60
        E 120 80 63 00
        E 0 80 57 00
        E 0 80 4b 00
        E 120 90 63 60
        E 0 90 57 60
        E 120 80 63 00
        E 0 80 57 00
        E 120 90 61 60
        E 0 90 55 60
        E 0 90 49 60
        E 0 90 3d 60
        E 120 80 61 00
        E 0 80 55 00
        E 0 80 49 00
        E 0 80 3d 00
        E 240 90 60 60
        E 0 90 54 60
        E 120 80 60 00
        E 0 80 54 00
        E 240 90 64 60
        E 0 90 58 60
        E 0 90 4b 60
        E 120 80 64 00
        E 0 80 58 00
        E 0 80 4b 00
        E 360 90 64 60
        E 0 90 58 60
        E 0 90 4b 60
        E 120 80 64 00
        E 0 80 58 00
        E 0 80 4b 00
        E 120 90 64 60
        E 0 90 58 60
        E 0 90 4b 60
        E 120 80 64 00
        E 0 80 58 00
        E 0 80 4b 00
        E 120 90 64 60
        E 0 90 58 60
        E 120 80 64 00
        E 0 80 58 00
        E 120 90 60 60
        E 0 90 54 60
        E 0 90 48 60
        E 0 90 3c 60
        E 120 80 60 00
        E 0 80 54 00
        E 0 80 48 00
        E 0 80 3c 00
        E 360 90 61 60
        E 0 90 63 60
        E 0 90 55 60
        E 0 90 57 60
        E 0 90 49 60
        E 0 90 4b 60
        E 120 80 61 00
        E 0 80 63 00
        E 0 80 55 00
        E 0 80 57 00
        E 0 80 49 00
        E 0 80 4b 00
        E 360 90 63 60
        E 0 90 57 60
        E 0 90 4b 60
        E 0 90 3e 60
        E 120 80 63 00
        E 0 80 57 00
        E 0 80 4b 00
        E 0 90 63 60
        E 0 80 3e 00
        E 120 80 63 00
        E 0 90 62 60
        E 0 90 56 60
        E 120 80 62 00
        E 0 80 56 00
        E 0 90 62 60
        E 120 80 62 00
        E 0 90 61 60
        E 0 90 55 60
        E 0 90 49 60
        E 120 80 61 00
        E 0 80 55 00
        E 0 80 49 00
        E 0 90 61 60
        E 120 80 61 00
        E 0 90 60 60
        E 0 90 54 60
        E 120 80 60 00
        E 0 80 54 00
        E 360 90 61 60
        E 0 90 63 60
        E 0 90 55 60
        E 0 90 57 60
        E 0 90 49 60
        E 0 90 4b 60
        E 0 90 3e 60
        E 120 80 61 00
        E 0 80 63 00
        E 0 80 55 00
        E 0 80 57 00
        E 0 80 49 00
        E 0 80 4b 00
        E 0 80 3e 00
        E 360 90 63 60
        E 0 90 57 60
        E 120 80 63 00
        E 0 80 57 00
        E 0 90 63 60
        E 120 80 63 00
        E 0 90 62 60
        E 0 90 56 60
        E 0 90 4a 60
        E 0 90 3e 60
        E 120 80 62 00
        E 0 80 56 00
        E 0 80 4a 00
        E 0 90 62 60
        E 0 80 3e 00
        E 120 80 62 00
        E 0 90 61 60
        E 0 90 55 60
        E 120 80 61 00
        E 0 80 55 00
        E 0 90 61 60
        E 120 80 61 00
        E 0 90 60 60
        E 0 90 54 60
        E 0 90 48 60
        E 120 80 60 00
        E 0 80 54 00
        E 0 80 48 00
        E 360 90 61 60
        E 0 90 63 60
        E 0 90 55 60
        E 0 90 57 60
        E 0 90 49 60
        E 0 90 4b 60
        E 0 90 3e 60
        E 120 80 61 00
        E 0 80 63 00
        E 0 80 55 00
        E 0 80 57 00
        E 0 80 49 00
        E 0 80 4b 00
        E 0 80 3e 00
        E 360 90 63 60
        E 0 90 57 60
        E 0 90 4b 60
        E 120 80 63 00
        E 0 80 57 00
        E 0 80 4b 00
        E 0 90 63 60
        E 120 80 63 00
        E 0 90 62 60
        E 0 90 56 60
        E 120 80 62 00
        E 0 80 56 00
        E 0 90 62 60
        E 120 80 62 00
        E 0 90 61 60
        E 0 90 55 60
        E 0 90 49 60
        E 0 90 3d 60
        E 120 80 61 00
        E 0 80 55 00
        E 0 80 49 00
        E 0 90 61 60
        E 0 80 3d 00
        E 120 80 61 00
        E 0 90 62 60
        E 0 90 63 60
        E 0 90 56 60
        E 0 90 57 60
        E 120 80 62 00
        E 0 80 63 00
        E 0 80 56 00
        E 0 80 57 00
        E 360 90 62 60
        E 0 90 63 60
        E 0 90 56 60
        E 0 90 57 60
        E 0 90 4a 60
        E 0 90 4b 60
        E 120 80 62 00
        E 0 80 63 00
        E 0 80 56 00
        E 0 80 57 00
        E 0 80 4a 00
        E 0 80 4b 00
        E 360 90 62 60
        E 0 90 63 60
        E 0 90 56 60
        E 0 90 57 60
        E 0 90 4a 60
        E 0 90 4b 60
        E 120 80 62 00
        E 0 80 63 00
        E 0 80 56 00
        E 0 80 57 00
        E 0 80 4a 00
        E 0 80 4b 00
        E 360 90 62 60
        E 0 90 63 60
        E 0 90 56 60
        E 0 90 57 60
        E 120 80 62 00
        E 0 80 63 00
        E 0 80 56 00
        E 0 80 57 00
        E 120 90 60 60
        E 0 90 54 60
        E 0 90 48 60
        E 0 90 3c 60
        E 120 80 60 00
        E 0 80 54 00
        E 0 80 48 00
        E 0 80 3c 00
        E 360 90 61 60
        E 0 90 63 60
        E 0 90 55 60
        E 0 90 57 60
        E 0 90 49 60
        E 0 90 4b 60
        E 120 80 61 00
        E 0 80 63 00
        E 0 80 55 00
        E 0 80 57 00
        E 0 80 49 00
        E 0 80 4b 00
        E 360 90 63 60
        E 0 90 57 60
        E 0 90 4b 60
        E 0 90 3e 60
        E 120 80 63 00
        E 0 80 57 00
        E 0 80 4b 00
        E 0 90 63 60
        E 0 80 3e 00
        E 120 80 63 00
        E 0 90 62 60
        E 0 90 56 60
        E 120 80 62 00
        E 0 80 56 00
        E 0 90 62 60
        E 120 80 62 00
        E 0 90 61 60
        E 0 90 55 60
        E 0 90 49 60
        E 120 80 61 00
        E 0 80 55 00
        E 0 80 49 00
        E 0 90 61 60
        E 120 80 61 00
        E 0 90 60 60
        E 0 90 54 60
        E 120 80 60 00
        E 0 80 54 00
        E 360 90 61 60
        E 0 90 63 60
        E 0 90 55 60
        E 0 90 57 60
        E 0 90 49 60
        E 0 90 4b 60
        E 0 90 3e 60
        E 120 80 61 00
        E 0 80 63 00
        E 0 80 55 00
        E 0 80 57 00
        E 0 80 49 00
        E 0 80 4b 00
        E 0 80 3e 00
        E 360 90 63 60
        E 0 90 57 60
        E 120 80 63 00
        E 0 80 57 00
        E 0 90 63 60
        E 120 80 63 00
        E 0 90 62 60
        E 0 90 56 60
        E 0 90 4a 60
        E 0 90 3e 60
        E 120 80 62 00
        E 0 80 56 00
        E 0 80 4a 00
        E 0 90 62 60
        E 0 80 3e 00
        E 120 80 62 00
        E 0 90 61 60
        E 0 90 55 60
        E 120 80 61 00
        E 0 80 55 00
        E 0 90 61 60
        E 120 80 61 00
        E 0 90 60 60
        E 0 90 54 60
        E 0 90 48 60
        E 120 80 60 00
        E 0 80 54 00
        E 0 80 48 00
        E 360 90 61 60
        E 0 90 63 60
        E 0 90 55 60
        E 0 90 57 60
        E 0 90 49 60
        E 0 90 4b 60
        E 0 90 3e 60
        E 120 80 61 00
        E 0 80 63 00
        E 0 80 55 00
        E 0 80 57 00
        E 0 80 49 00
        E 0 80 4b 00
        E 0 80 3e 00
        E 360 90 63 60
        E 0 90 57 60
        E 0 90 4b 60
        E 120 80 63 00
        E 0 80 57 00
        E 0 80 4b 00
        E 0 90 63 60
        E 120 80 63 00
        E 0 90 62 60
        E 0 90 56 60
        E 120 80 62 00
        E 0 80 56 00
        E 0 90 62 60
        E 120 80 62 00
        E 0 90 61 60
        E 0 90 55 60
        E 0 90 49 60
        E 0 90 3d 60
        E 120 80 61 00
        E 0 80 55 00
        E 0 80 49 00
        E 0 90 61 60
        E 0 80 3d 00
        E 120 80 61 00
        E 0 90 62 60
        E 0 90 63 60
        E 0 90 56 60
        E 0 90 57 60
        E 120 80 62 00
        E 0 80 63 00
        E 0 80 56 00
        E 0 80 57 00
        E 360 90 62 60
        E 0 90 63 60
        E 0 90 56 60
        E 0 90 57 60
        E 0 90 4a 60
        E 0 90 4b 60
        E 120 80 62 00
        E 0 80 63 00
        E 0 80 56 00
        E 0 80 57 00
        E 0 80 4a 00
        E 0 80 4b 00
        E 360 90 62 60
        E 0 90 63 60
        E 0 90 56 60
        E 0 90 57 60
        E 0 90 4a 60
        E 0 90 4b 60
        E 120 80 62 00
        E 0 80 63 00
        E 0 80 56 00
        E 0 80 57 00
        E 0 80 4a 00
        E 0 80 4b 00
        E 360 90 62 60
        E 0 90 63 60
        E 0 90 56 60
        E 0 90 57 60
        E 120 80 62 00
        E 0 80 63 00
        E 0 80 56 00
        E 0 80 57 00
        E 120 90 60 60
        E 0 90 54 60
        E 0 90 48 60
        E 0 90 3c 60
        E 120 80 60 00
        E 0 80 54 00
        E 0 80 48 00
        E 0 80 3c 00
        E 360 90 61 60
        E 0 90 63 60
        E 0 90 55 60
        E 0 90 57 60
        E 0 90 49 60
        E 0 90 4b 60
        E 120 80 61 00
        E 0 80 63 00
        E 0 80 55 00
        E 0 80 57 00
        E 0 80 49 00
        E 0 80 4b 00
        E 360 90 63 60
        E 0 90 57 60
        E 0 90 4b 60
        E 0 90 3e 60
        E 120 80 63 00
        E 0 80 57 00
        E 0 80 4b 00
        E 0 90 63 60
        E 0 80 3e 00
        E 120 80 63 00
        E 0 90 62 60
        E 0 90 56 60
        E 120 80 62 00
        E 0 80 56 00
        E 0 90 62 60
        E 120 80 62 00
        E 0 90 61 60
        E 0 90 55 60
        E 0 90 49 60
        E 120 80 61 00
        E 0 80 55 00
        E 0 80 49 00
        E 0 90 61 60
        E 120 80 61 00
        E 0 90 60 60
        E 0 90 54 60
        E 120 80 60 00
        E 0 80 54 00
        E 360 90 61 60
        E 0 90 63 60
        E 0 90 55 60
        E 0 90 57 60
        E 0 90 49 60
        E 0 90 4b 60
        E 0 90 3e 60
        E 120 80 61 00
        E 0 80 63 00
        E 0 80 55 00
        E 0 80 57 00
        E 0 80 49 00
        E 0 80 4b 00
        E 0 80 3e 00
        E 360 90 63 60
        E 0 90 57 60
        E 120 80 63 00
        E 0 80 57 00
        E 0 90 63 60
        E 120 80 63 00
        E 0 90 62 60
        E 0 90 56 60
        E 0 90 4a 60
        E 0 90 3e 60
        E 120 80 62 00
        E 0 80 56 00
        E 0 80 4a 00
        E 0 90 62 60
        E 0 80 3e 00
        E 120 80 62 00
        E 0 90 61 60
        E 0 90 55 60
        E 120 80 61 00
        E 0 80 55 00
        E 0 90 61 60
        E 120 80 61 00
        E 0 90 60 60
        E 0 90 54 60
        E 0 90 48 60
        E 120 80 60 00
        E 0 80 54 00
        E 0 80 48 00
        E 360 90 61 60
        E 0 90 63 60
        E 0 90 55 60
        E 0 90 57 60
        E 0 90 49 60
        E 0 90 4b 60
        E 0 90 3e 60
        E 120 80 61 00
        E 0 80 63 00
        E 0 80 55 00
        E 0 80 57 00
        E 0 80 49 00
        E 0 80 4b 00
        E 0 80 3e 00
        E 360 90 63 60
        E 0 90 57 60
        E 0 90 4b 60
        E 120 80 63 00
        E 0 80 57 00
        E 0 80 4b 00
        E 0 90 63 60
        E 120 80 63 00
        E 0 90 62 60
        E 0 90 56 60
        E 120 80 62 00
        E 0 80 56 00
        E 0 90 62 60
        E 120 80 62 00
        E 0 90 61 60
        E 0 90 55 60
        E 0 90 49 60
        E 0 90 3d 60
        E 120 80 61 00
        E 0 80 55 00
        E 0 80 49 00
        E 0 90 61 60
        E 0 80 3d 00
        E 120 80 61 00
        E 0 90 62 60
        E 0 90 63 60
        E 0 90 56 60
        E 0 90 57 60
        E 120 80 62 00
        E 0 80 63 00
        E 0 80 56 00
        E 0 80 57 00
        E 360 90 62 60
        E 0 90 63 60
        E 0 90 56 60
        E 0 90 57 60
        E 0 90 4a 60
        E 0 90 4b 60
        E 120 80 62 00
        E 0 80 63 00
        E 0 80 56 00
        E 0 80 57 00
        E 0 80 4a 00
        E 0 80 4b 00
        E 360 90 62 60
        E 0 90 63 60
        E 0 90 56 60
        E 0 90 57 60
        E 0 90 4a 60
        E 0 90 4b 60
        E 120 80 62 00
        E 0 80 63 00
        E 0 80 56 00
        E 0 80 57 00
        E 0 80 4a 00
        E 0 80 4b 00
        E 360 90 62 60
        E 0 90 63 60
        E 0 90 56 60
        E 0 90 57 60
        E 120 80 62 00
        E 0 80 63 00
        E 0 80 56 00
        E 0 80 57 00
        E 120 90 60 60
        E 0 90 54 60
        E 0 90 48 60
        E 0 90 3c 60
        E 120 80 60 00
        E 0 80 54 00
        E 0 80 48 00
        E 0 80 3c 00
        E 360 90 61 60
        E 0 90 63 60
        E 0 90 55 60
        E 0 90 57 60
        E 0 90 49 60
        E 0 90 4b 60
        E 120 80 61 00
        E 0 80 63 00
        E 0 80 55 00
        E 0 80 57 00
        E 0 80 49 00
        E 0 80 4b 00
        E 360 90 63 60
        E 0 90 57 60
        E 0 90 4b 60
        E 0 90 3e 60
        E 120 80 63 00
        E 0 80 57 00
        E 0 80 4b 00
        E 0 90 63 60
        E 0 80 3e 00
        E 120 80 63 00
        E 0 90 62 60
        E 0 90 56 60
        E 120 80 62 00
        E 0 80 56 00
        E 0 90 62 60
        E 120 80 62 00
        E 0 90 61 60
        E 0 90 55 60
        E 0 90 49 60
        E 120 80 61 00
        E 0 80 55 00
        E 0 80 49 00
        E 0 90 61 60
        E 120 80 61 00
        E 0 90 60 60
        E 0 90 54 60
        E 120 80 60 00
        E 0 80 54 00
        E 360 90 61 60
        E 0 90 63 60
        E 0 90 55 60
        E 0 90 57 60
        E 0 90 49 60
        E 0 90 4b 60
        E 0 90 3e 60
        E 120 80 61 00
        E 0 80 63 00
        E 0 80 55 00
        E 0 80 57 00
        E 0 80 49 00
        E 0 80 4b 00
        E 0 80 3e 00
        E 360 90 63 60
        E 0 90 57 60
        E 120 80 63 00
        E 0 80 57 00
        E 0 90 63 60
        E 120 80 63 00
        E 0 90 62 60
        E 0 90 56 60
        E 0 90 4a 60
        E 0 90 3e 60
        E 120 80 62 00
        E 0 80 56 00
        E 0 80 4a 00
        E 0 90 62 60
        E 0 80 3e 00
        E 120 80 62 00
        E 0 90 61 60
        E 0 90 55 60
        E 120 80 61 00
        E 0 80 55 00
        E 0 90 61 60
        E 120 80 61 00
        E 0 90 60 60
        E 0 90 54 60
        E 0 90 48 60
        E 120 80 60 00
        E 0 80 54 00
        E 0 80 48 00
        E 360 90 61 60
        E 0 90 63 60
        E 0 90 55 60
        E 0 90 57 60
        E 0 90 49 60
        E 0 90 4b 60
        E 0 90 3e 60
        E 120 80 61 00
        E 0 80 63 00
        E 0 80 55 00
        E 0 80 57 00
        E 0 80 49 00
        E 0 80 4b 00
        E 0 80 3e 00
        E 360 90 63 60
        E 0 90 57 60
        E 0 90 4b 60
        E 120 80 63 00
        E 0 80 57 00
        E 0 80 4b 00
        E 0 90 63 60
        E 120 80 63 00
        E 0 90 62 60
        E 0 90 56 60
        E 120 80 62 00
        E 0 80 56 00
        E 0 90 62 60
        E 120 80 62 00
        E 0 90 61 60
        E 0 90 55 60
        E 0 90 49 60
        E 0 90 3d 60
        E 120 80 61 00
        E 0 80 55 00
        E 0 80 49 00
        E 0 90 61 60
        E 0 80 3d 00
        E 120 80 61 00
        E 0 90 62 60
        E 0 90 63 60
        E 0 90 56 60
        E 0 90 57 60
        E 120 80 62 00
        E 0 80 63 00
        E 0 80 56 00
        E 0 80 57 00
        E 360 90 62 60
        E 0 90 63 60
        E 0 90 56 60
        E 0 90 57 60
        E 0 90 4a 60
        E 0 90 4b 60
        E 120 80 62 00
        E 0 80 63 00
        E 0 80 56 00
        E 0 80 57 00
        E 0 80 4a 00
        E 0 80 4b 00
        E 360 90 62 60
        E 0 90 63 60
        E 0 90 56 60
        E 0 90 57 60
        E 0 90 4a 60
        E 0 90 4b 60
        E 120 80 62 00
        E 0 80 63 00
        E 0 80 56 00
        E 0 80 57 00
        E 0 80 4a 00
        E 0 80 4b 00
        E 360 90 62 60
        E 0 90 63 60
        E 0 90 56 60
        E 0 90 57 60
        E 120 80 62 00
        E 0 80 63 00
        E 0 80 56 00
        E 0 80 57 00
        E 120 90 63 60
        E 0 90 57 60
        E 0 90 4b 60
        E 0 90 3e 60
        E 120 80 63 00
        E 0 80 57 00
        E 0 80 4b 00
        E 0 80 3e 00
        E 240 90 62 60
        E 0 90 56 60
        E 120 80 62 00
        E 0 80 56 00
        E 240 90 63 60
        E 0 90 57 60
        E 0 90 4b 60
        E 120 80 63 00
        E 0 80 57 00
        E 0 80 4b 00
        E 120 90 63 60
        E 0 90 57 60
        E 0 90 4b 60
        E 0 90 3e 60
        E 120 80 63 00
        E 0 80 57 00
        E 0 80 4b 00
        E 0 80 3e 00
        E 240 90 62 60
        E 0 90 56 60
        E 120 80 62 00
        E 0 80 56 00
        E 240 90 63 60
        E 0 90 57 60
        E 0 90 4b 60
        E 120 80 63 00
        E 0 80 57 00
        E 0 80 4b 00
        E 120 90 63 60
        E 0 90 57 60
        E 0 90 4b 60
        E 0 90 3e 60
        E 120 80 63 00
        E 0 80 57 00
        E 0 80 4b 00
        E 0 80 3e 00
        E 240 90 62 60
        E 0 90 56 60
        E 120 80 62 00
        E 0 80 56 00
        E 240 90 61 60
        E 0 90 55 60
        E 0 90 49 60
        E 120 80 55 00
        E 0 80 49 00
        E 360 80 61 00
        E 0 90 61 60
        E 0 90 55 60
        E 0 90 49 60
        E 120 80 61 00
        E 0 80 55 00
        E 0 80 49 00
        E 120 90 61 60
        E 0 90 55 60
        E 0 90 49 60
        E 120 80 61 00
        E 0 80 55 00
        E 0 80 49 00
        E 120 90 60 60
        E 0 90 54 60
        E 120 80 60 00
        E 0 80 54 00
        E 120 90 63 60
        E 0 90 57 60
        E 0 90 4b 60
        E 0 90 3e 60
        E 120 80 63 00
        E 0 80 57 00
        E 0 80 4b 00
        E 0 80 3e 00
        E 240 90 62 60
        E 0 90 56 60
        E 120 80 62 00
        E 0 80 56 00
        E 240 90 63 60
        E 0 90 57 60
        E 0 90 4b 60
        E 120 80 63 00
        E 0 80 57 00
        E 0 80 4b 00
        E 120 90 63 60
        E 0 90 57 60
        E 0 90 4b 60
        E 0 90 3e 60
        E 120 80 63 00
        E 0 80 57 00
        E 0 80 4b 00
        E 0 80 3e 00
        E 240 90 62 60
        E 0 90 56 60
        E 120 80 62 00
        E 0 80 56 00
        E 240 90 63 60
        E 0 90 57 60
        E 0 90 4b 60
        E 120 80 63 00
        E 0 80 57 00
        E 0 80 4b 00
        E 120 90 63 60
        E 0 90 57 60
        E 0 90 4b 60
        E 0 90 3e 60
        E 120 80 63 00
        E 0 80 57 00
        E 0 80 4b 00
        E 0 80 3e 00
        E 240 90 62 60
        E 0 90 56 60
        E 120 80 62 00
        E 0 80 56 00
        E 240 90 61 60
        E 0 90 55 60
        E 0 90 49 60
        E 120 80 55 00
        E 0 80 49 00
        E 360 80 61 00
        E 0 90 61 60
        E 0 90 55 60
        E 0 90 49 60
        E 120 80 61 00
        E 0 80 55 00
        E 0 80 49 00
        E 120 90 61 60
        E 0 90 55 60
        E 0 90 49 60
        E 0 90 3d 60
        E 120 80 61 00
        E 0 80 55 00
        E 0 80 49 00
        E 0 80 3d 00
        E 120 90 60 60
        E 0 90 54 60
        E 120 80 60 00
        E 0 80 54 00
        E 120 90 61 60
        E 0 90 55 60
        E 0 90 49 60
        E 0 90 3d 60
        E 120 80 61 00
        E 0 80 55 00
        E 0 80 49 00
        E 0 80 3d 00
        E 240 90 60 60
        E 0 90 54 60
        E 120 80 60 00
        E 0 80 54 00
        E 240 90 62 60
        E 0 90 56 60
        E 0 90 4a 60
        E 120 80 62 00
        E 0 80 56 00
        E 0 80 4a 00
        E 360 90 62 60
        E 0 90 56 60
        E 0 90 4a 60
        E 120 80 62 00
        E 0 80 56 00
        E 0 80 4a 00
        E 120 90 62 60
        E 0 90 56 60
        E 0 90 4a 60
        E 120 80 62 00
        E 0 80 56 00
        E 0 80 4a 00
        E 120 90 62 60
        E 0 90 56 60
        E 120 80 62 00
        E 0 80 56 00
        E 120 90 61 60
        E 0 90 55 60
        E 0 90 49 60
        E 0 90 3d 60
        E 120 80 61 00
        E 0 80 55 00
        E 0 80 49 00
        E 0 80 3d 00
        E 240 90 60 60
        E 0 90 54 60
        E 120 80 60 00
        E 0 80 54 00
        E 240 90 63 60
        E 0 90 57 60
        E 0 90 4b 60
        E 120 80 63 00
        E 0 80 57 00
        E 0 80 4b 00
        E 360 90 63 60
        E 0 90 57 60
        E 0 90 4b 60
        E 120 80 63 00
        E 0 80 57 00
        E 0 80 4b 00
        E 120 90 63 60
        E 0 90 57 60
        E 0 90 4b 60
        E 120 80 63 00
        E 0 80 57 00
        E 0 80 4b 00
        E 120 90 63 60
        E 0 90 57 60
        E 120 80 63 00
        E 0 80 57 00
        E 120 90 61 60
        E 0 90 55 60
        E 0 90 49 60
        E 0 90 3d 60
        E 120 80 61 00
        E 0 80 55 00
        E 0 80 49 00
        E 0 80 3d 00
        E 240 90 60 60
        E 0 90 54 60
        E 120 80 60 00
        E 0 80 54 00
        E 240 90 63 60
        E 0 90 57 60
        E 0 90 4b 60
        E 120 80 63 00
        E 0 80 57 00
        E 0 80 4b 00
        E 360 90 63 60
        E 0 90 57 60
        E 0 90 4b 60
        E 120 80 63 00
        E 0 80 57 00
        E 0 80 4b 00
        E 120 90 63 60
        E 0 90 57 60
        E 0 90 4b 60
        E 120 80 63 00
        E 0 80 57 00
        E 0 80 4b 00
        E 120 90 63 60
        E 0 90 57 60
        E 120 80 63 00
        E 0 80 57 00
        E 120 90 61 60
        E 0 90 55 60
        E 0 90 49 60
        E 0 90 3d 60
        E 120 80 61 00
        E 0 80 55 00
        E 0 80 49 00
        E 0 80 3d 00
        E 240 90 60 60
        E 0 90 54 60
        E 120 80 60 00
        E 0 80 54 00
        E 240 90 64 60
        E 0 90 58 60
        E 0 90 4b 60
        E 30 80 64 00
        E 0 80 58 00
        E 0 80 4b 00
        E 450 90 64 60
        E 0 90 58 60
        E 0 90 4b 60
        E 30 80 64 00
        E 0 80 58 00
        E 0 80 4b 00
        E 210 90 64 60
        E 0 90 58 60
        E 0 90 4b 60
        E 0 90 3e 60
        E 30 80 64 00
        E 0 80 58 00
        E 0 80 4b 00
        E 0 80 3e 00
        E 210 90 64 60
        E 0 90 58 60
        E 0 90 4b 60
        E 30 80 64 00
        E 0 80 58 00
        E 0 80 4b 00
        E 210 90 63 60
        E 0 90 57 60
        E 0 90 4b 60
        E 0 90 3e 60
        E 120 80 63 00
        E 0 80 57 00
        E 0 80 4b 00
        E 0 90 63 60
        E 0 80 3e 00
        E 120 80 63 00
        E 0 90 63 60
        E 0 90 57 60
        E 0 90 4b 60
        E 120 80 63 00
        E 0 80 57 00
        E 0 80 4b 00
        E 0 90 63 60
        E 120 80 63 00
        E 0 90 63 60
        E 0 90 57 60
        E 0 90 4b 60
        E 0 90 3e 60
        E 120 80 63 00
        E 0 80 57 00
        E 0 80 4b 00
        E 0 90 63 60
        E 0 80 3e 00
        E 120 80 63 00
        E 0 90 63 60
        E 0 90 57 60
        E 0 90 4b 60
        E 120 80 63 00
        E 0 80 57 00
        E 0 80 4b 00
        E 0 90 63 60
        E 120 80 63 00
        E 0 90 64 60
        E 0 90 58 60
        E 0 90 4b 60
        E 0 90 3e 60
        E 30 80 64 00
        E 0 80 58 00
        E 0 80 4b 00
        E 0 80 3e 00
        E 90 90 64 60
        E 30 80 64 00
        E 90 90 64 60
        E 0 90 58 60
        E 0 90 4b 60
        E 30 80 64 00
        E 0 80 58 00
        E 0 80 4b 00
        E 90 90 64 60
        E 30 80 64 00
        E 90 90 64 60
        E 0 90 58 60
        E 0 90 4b 60
        E 0 90 3e 60
        E 30 80 64 00
        E 0 80 58 00
        E 0 80 4b 00
        E 0 80 3e 00
        E 90 90 64 60
        E 30 80 64 00
        E 90 90 64 60
        E 0 90 58 60
        E 0 90 4b 60
        E 30 80 64 00
        E 0 80 58 00
        E 0 80 4b 00
        E 90 90 64 60
        E 30 80 64 00
        E 90 90 64 60
        E 0 90 58 60
        E 0 90 4b 60
        E 0 90 3e 60
        E 120 80 58 00
        E 0 80 4b 00
        E 0 80 3e 00
        E 600 80 64 00
        E 0 90 64 60
        E 0 90 58 60
        E 0 90 4b 60
        E 120 80 64 00
        E 0 80 58 00
        E 0 80 4b 00
        E 120 90 63 60
        E 0 90 57 60
        E 0 90 4b 60
        E 0 90 3e 60
        E 120 80 63 00
        E 0 80 57 00
        E 0 80 4b 00
        E 0 80 3e 00
        E 120 90 62 60
        E 0 90 56 60
        E 120 80 62 00
        E 0 80 56 00
        E 120 90 61 60
        E 0 90 55 60
        E 0 90 49 60
        E 120 80 61 00
        E 0 80 55 00
        E 0 80 49 00
        E 120 90 63 60
        E 0 90 57 60
        E 120 80 63 00
        E 0 80 57 00
        E 120 90 62 60
        E 0 90 56 60
        E 0 90 4a 60
        E 0 90 3e 60
        E 120 80 62 00
        E 0 80 56 00
        E 0 80 4a 00
        E 0 80 3e 00
        E 120 90 61 60
        E 0 90 55 60
        E 120 80 61 00
        E 0 80 55 00
        E 120 90 63 60
        E 0 90 57 60
        E 0 90 4b 60
        E 120 80 63 00
        E 0 80 57 00
        E 0 80 4b 00
        E 120 90 62 60
        E 0 90 56 60
        E 120 80 62 00
        E 0 80 56 00
        E 120 90 61 60
        E 0 90 55 60
        E 0 90 49 60
        E 0 90 3d 60
        E 120 80 61 00
        E 0 80 55 00
        E 0 80 49 00
        E 0 80 3d 00
        E 120 90 60 60
        E 0 90 54 60
        E 120 80 60 00
        E 0 80 54 00
        E 120 90 62 60
        E 0 90 56 60
        E 0 90 4a 60
        E 120 80 62 00
        E 0 80 56 00
        E 0 80 4a 00
        E 120 90 60 60
        E 0 90 54 60
        E 120 80 60 00
        E 0 80 54 00
        E 120 90 64 60
        E 0 90 58 60
        E 0 90 4b 60
        E 0 90 3e 60
        E 120 80 58 00
        E 0 80 4b 00
        E 0 80 3e 00
        E 600 80 64 00
        E 0 90 64 60
        E 0 90 58 60
        E 0 90 4b 60
        E 120 80 64 00
        E 0 80 58 00
        E 0 80 4b 00
        E 120 90 63 60
        E 0 90 57 60
        E 0 90 4b 60
        E 0 90 3e 60
        E 120 80 63 00
        E 0 80 57 00
        E 0 80 4b 00
        E 0 80 3e 00
        E 120 90 62 60
        E 0 90 56 60
        E 120 80 62 00
        E 0 80 56 00
        E 120 90 61 60
        E 0 90 55 60
        E 0 90 49 60
        E 120 80 61 00
        E 0 80 55 00
        E 0 80 49 00
        E 120 90 60 60
        E 0 90 54 60
        E 120 80 60 00
        E 0 80 54 00
        E 120 90 63 60
        E 0 90 57 60
        E 0 90 4b 60
        E 0 90 3e 60
        E 120 80 63 00
        E 0 80 57 00
        E 0 80 4b 00
        E 0 80 3e 00
        E 120 90 62 60
        E 0 90 56 60
        E 120 80 62 00
        E 0 80 56 00
        E 120 90 61 60
        E 0 90 55 60
        E 0 90 49 60
        E 120 80 61 00
        E 0 80 55 00
        E 0 80 49 00
        E 120 90 60 60
        E 0 90 54 60
        E 120 80 60 00
        E 0 80 54 00
        E 120 90 61 60
        E 0 90 55 60
        E 0 90 49 60
        E 0 90 3d 60
        E 120 80 61 00
        E 0 80 55 00
        E 0 80 49 00
        E 0 80 3d 00
        E 120 90 63 60
        E 0 90 57 60
        E 120 80 63 00
        E 0 80 57 00
        E 120 90 61 60
        E 0 90 55 60
        E 0 90 49 60
        E 120 80 55 00
        E 0 80 49 00
        E 360 80 61 00
        E 0 90 64 60
        E 0 90 58 60
        E 0 90 4b 60
        E 0 90 3e 60
        E 120 80 58 00
        E 0 80 4b 00
        E 0 80 3e 00
        E 600 80 64 00
        E 0 90 64 60
        E 0 90 58 60
        E 0 90 4b 60
        E 120 80 64 00
        E 0 80 58 00
        E 0 80 4b 00
        E 120 90 63 60
        E 0 90 57 60
        E 0 90 4b 60
        E 0 90 3e 60
        E 120 80 63 00
        E 0 80 57 00
        E 0 80 4b 00
        E 0 80 3e 00
        E 120 90 62 60
        E 0 90 56 60
        E 120 80 62 00
        E 0 80 56 00
        E 120 90 61 60
        E 0 90 55 60
        E 0 90 49 60
        E 120 80 61 00
        E 0 80 55 00
        E 0 80 49 00
        E 120 90 63 60
        E 0 90 57 60
        E 120 80 63 00
        E 0 80 57 00
        E 120 90 62 60
        E 0 90 56 60
        E 0 90 4a 60
        E 0 90 3e 60
        E 120 80 62 00
        E 0 80 56 00
        E 0 80 4a 00
        E 0 80 3e 00
        E 120 90 61 60
        E 0 90 55 60
        E 120 80 61 00
        E 0 80 55 00
        E 120 90 63 60
        E 0 90 57 60
        E 0 90 4b 60
        E 120 80 63 00
        E 0 80 57 00
        E 0 80 4b 00
        E 120 90 62 60
        E 0 90 56 60
        E 120 80 62 00
        E 0 80 56 00
        E 120 90 61 60
        E 0 90 55 60
        E 0 90 49 60
        E 0 90 3d 60
        E 120 80 61 00
        E 0 80 55 00
        E 0 80 49 00
        E 0 80 3d 00
        E 120 90 60 60
        E 0 90 54 60
        E 120 80 60 00
        E 0 80 54 00
        E 120 90 62 60
        E 0 90 56 60
        E 0 90 4a 60
        E 120 80 62 00
        E 0 80 56 00
        E 0 80 4a 00
        E 120 90 60 60
        E 0 90 54 60
        E 120 80 60 00
        E 0 80 54 00
        E 120 90 64 60
        E 0 90 58 60
        E 0 90 4b 60
        E 0 90 3e 60
        E 120 80 58 00
        E 0 80 4b 00
        E 0 80 3e 00
        E 600 80 64 00
        E 0 90 64 60
        E 0 90 58 60
        E 0 90 4b 60
        E 120 80 64 00
        E 0 80 58 00
        E 0 80 4b 00
        E 120 90 63 60
        E 0 90 57 60
        E 0 90 4b 60
        E 0 90 3e 60
        E 120 80 63 00
        E 0 80 57 00
        E 0 80 4b 00
        E 0 80 3e 00
        E 120 90 62 60
        E 0 90 56 60
        E 120 80 62 00
        E 0 80 56 00
        E 120 90 61 60
        E 0 90 55 60
        E 0 90 49 60
        E 120 80 61 00
        E 0 80 55 00
        E 0 80 49 00
        E 120 90 60 60
        E 0 90 54 60
        E 120 80 60 00
        E 0 80 54 00
        E 120 90 63 60
        E 0 90 57 60
        E 0 90 4b 60
        E 0 90 3e 60
        E 120 80 63 00
        E 0 80 57 00
        E 0 80 4b 00
        E 0 80 3e 00
        E 120 90 62 60
        E 0 90 56 60
        E 120 80 62 00
        E 0 80 56 00
        E 120 90 61 60
        E 0 90 55 60
        E 0 90 49 60
        E 120 80 61 00
        E 0 80 55 00
        E 0 80 49 00
        E 120 90 60 60
        E 0 90 54 60
        E 120 80 60 00
        E 0 80 54 00
        E 120 90 61 60
        E 0 90 55 60
        E 0 90 49 60
        E 0 90 3d 60
        E 120 80 61 00
        E 0 80 55 00
        E 0 80 49 00
        E 0 80 3d 00
        E 120 90 63 60
        E 0 90 57 60
        E 120 80 63 00
        E 0 80 57 00
        E 120 90 61 60
        E 0 90 55 60
        E 0 90 49 60
        E 120 80 55 00
        E 0 80 49 00
        E 360 80 61 00
        E 0 90 64 60
        E 0 90 58 60
        E 0 90 4b 60
        E 0 90 3e 60
        E 120 80 58 00
        E 0 80 4b 00
        E 0 80 3e 00
        E 600 80 64 00
        E 0 90 64 60
        E 0 90 58 60
        E 0 90 4b 60
        E 120 80 64 00
        E 0 80 58 00
        E 0 80 4b 00
        E 120 90 63 60
        E 0 90 57 60
        E 0 90 4b 60
        E 0 90 3e 60
        E 120 80 63 00
        E 0 80 57 00
        E 0 80 4b 00
        E 0 80 3e 00
        E 120 90 62 60
        E 0 90 56 60
        E 120 80 62 00
        E 0 80 56 00
        E 120 90 61 60
        E 0 90 55 60
        E 0 90 49 60
        E 120 80 61 00
        E 0 80 55 00
        E 0 80 49 00
        E 120 90 63 60
        E 0 90 57 60
        E 120 80 63 00
        E 0 80 57 00
        E 120 90 62 60
        E 0 90 56 60
        E 0 90 4a 60
        E 0 90 3e 60
        E 120 80 62 00
        E 0 80 56 00
        E 0 80 4a 00
        E 0 80 3e 00
        E 120 90 61 60
        E 0 90 55 60
        E 120 80 61 00
        E 0 80 55 00
        E 120 90 63 60
        E 0 90 57 60
        E 0 90 4b 60
        E 120 80 63 00
        E 0 80 57 00
        E 0 80 4b 00
        E 120 90 62 60
        E 0 90 56 60
        E 120 80 62 00
        E 0 80 56 00
        E 120 90 61 60
        E 0 90 55 60
        E 0 90 49 60
        E 0 90 3d 60
        E 120 80 61 00
        E 0 80 55 00
        E 0 80 49 00
        E 0 80 3d 00
        E 120 90 60 60
        E 0 90 54 60
        E 120 80 60 00
        E 0 80 54 00
        E 120 90 62 60
        E 0 90 56 60
        E 0 90 4a 60
        E 120 80 62 00
        E 0 80 56 00
        E 0 80 4a 00
        E 120 90 60 60
        E 0 90 54 60
        E 120 80 60 00
        E 0 80 54 00
        E 120 90 64 60
        E 0 90 58 60
        E 0 90 4b 60
        E 0 90 3e 60
        E 120 80 58 00
        E 0 80 4b 00
        E 0 80 3e 00
        E 600 80 64 00
        E 0 90 64 60
        E 0 90 58 60
        E 0 90 4b 60
        E 120 80 64 00
        E 0 80 58 00
        E 0 80 4b 00
        E 120 90 63 60
        E 0 90 57 60
        E 0 90 4b 60
        E 0 90 3e 60
        E 120 80 63 00
        E 0 80 57 00
        E 0 80 4b 00
        E 0 80 3e 00
        E 120 90 62 60
        E 0 90 56 60
        E 120 80 62 00
        E 0 80 56 00
        E 120 90 61 60
        E 0 90 55 60
        E 0 90 49 60
        E 120 80 61 00
        E 0 80 55 00
        E 0 80 49 00
        E 120 90 60 60
        E 0 90 54 60
        E 120 80 60 00
        E 0 80 54 00
        E 120 90 63 60
        E 0 90 57 60
        E 0 90 4b 60
        E 0 90 3e 60
        E 120 80 63 00
        E 0 80 57 00
        E 0 80 4b 00
        E 0 80 3e 00
        E 120 90 62 60
        E 0 90 56 60
        E 120 80 62 00
        E 0 80 56 00
        E 120 90 61 60
        E 0 90 55 60
        E 0 90 49 60
        E 120 80 61 00
        E 0 80 55 00
        E 0 80 49 00
        E 120 90 60 60
        E 0 90 54 60
        E 120 80 60 00
        E 0 80 54 00
        E 120 90 61 60
        E 0 90 55 60
        E 0 90 49 60
        E 0 90 3d 60
        E 120 80 61 00
        E 0 80 55 00
        E 0 80 49 00
        E 0 80 3d 00
        E 120 90 63 60
        E 0 90 57 60
        E 120 80 63 00
        E 0 80 57 00
        E 120 90 61 60
        E 0 90 55 60
        E 0 90 49 60
        E 120 80 55 00
        E 0 80 49 00
        E 360 80 61 00
        E 0 90 64 60
        E 0 90 58 60
        E 0 90 4b 60
        E 0 90 3e 60
        E 120 80 58 00
        E 0 80 4b 00
        E 0 80 3e 00
        E 600 80 64 00
        E 0 90 64 60
        E 0 90 58 60
        E 0 90 4b 60
        E 120 80 64 00
        E 0 80 58 00
        E 0 80 4b 00
        E 120 90 63 60
        E 0 90 57 60
        E 0 90 4b 60
        E 0 90 3e 60
        E 120 80 63 00
        E 0 80 57 00
        E 0 80 4b 00
        E 0 80 3e 00
        E 120 90 62 60
        E 0 90 56 60
        E 120 80 62 00
        E 0 80 56 00
        E 120 90 61 60
        E 0 90 55 60
        E 0 90 49 60
        E 120 80 61 00
        E 0 80 55 00
        E 0 80 49 00
        E 120 90 63 60
        E 0 90 57 60
        E 120 80 63 00
        E 0 80 57 00
        E 120 90 62 60
        E 0 90 56 60
        E 0 90 4a 60
        E 0 90 3e 60
        E 120 80 62 00
        E 0 80 56 00
        E 0 80 4a 00
        E 0 80 3e 00
        E 120 90 61 60
        E 0 90 55 60
        E 120 80 61 00
        E 0 80 55 00
        E 120 90 63 60
        E 0 90 57 60
        E 0 90 4b 60
        E 120 80 63 00
        E 0 80 57 00
        E 0 80 4b 00
        E 120 90 62 60
        E 0 90 56 60
        E 120 80 62 00
        E 0 80 56 00
        E 120 90 61 60
        E 0 90 55 60
        E 0 90 49 60
        E 0 90 3d 60
        E 120 80 61 00
        E 0 80 55 00
        E 0 80 49 00
        E 0 80 3d 00
        E 120 90 60 60
        E 0 90 54 60
        E 120 80 60 00
        E 0 80 54 00
        E 120 90 62 60
        E 0 90 56 60
        E 0 90 4a 60
        E 120 80 62 00
        E 0 80 56 00
        E 0 80 4a 00
        E 120 90 60 60
        E 0 90 54 60
        E 120 80 60 00
        E 0 80 54 00
        E 120 90 60 60
        E 0 90 61 60
        E 0 90 54 60
        E 0 90 55 60
        E 0 90 48 60
        E 0 90 49 60
        E 0 90 3c 60
        E 120 80 3c 00
        E 480 80 48 00
        E 0 80 49 00
        E 120 80 54 00
        E 0 80 55 00
        E 240 80 60 00
        E 0 80 61 00
        E 0 90 61 60
        E 0 90 62 60
        E 0 90 55 60
        E 0 90 56 60
        E 0 90 49 60
        E 0 90 4a 60
        E 0 90 3d 60
        E 120 80 3d 00
        E 480 80 49 00
        E 0 80 4a 00
        E 120 80 55 00
        E 0 80 56 00
        E 240 80 61 00
        E 0 80 62 00
        E 0 90 60 60
        E 0 90 62 60
        E 0 90 54 60
        E 0 90 56 60
        E 0 90 48 60
        E 0 90 4a 60
        E 0 90 3c 60
        E 120 80 60 00
        E 0 80 62 00
        E 0 80 54 00
        E 0 80 56 00
        E 0 80 48 00
        E 0 80 4a 00
        E 0 80 3c 00
        E 120 90 60 60
        E 0 90 62 60
        E 0 90 54 60
        E 0 90 56 60
        E 0 90 48 60
        E 0 90 4a 60
        E 120 80 60 00
        E 0 80 62 00
        E 0 80 54 00
        E 0 80 56 00
        E 0 80 48 00
        E 0 80 4a 00
        E 120 90 60 60
        E 0 90 62 60
        E 0 90 54 60
        E 0 90 56 60
        E 0 90 48 60
        E 0 90 4a 60
        E 0 90 3c 60
        E 120 80 60 00
        E 0 80 62 00
        E 0 80 54 00
        E 0 80 56 00
        E 0 80 48 00
        E 0 80 4a 00
        E 0 80 3c 00
        E 120 90 60 60
        E 0 90 61 60
        E 0 90 54 60
        E 0 90 55 60
        E 120 80 60 00
        E 0 80 61 00
        E 0 80 54 00
        E 0 80 55 00
        E 120 90 60 60
        E 0 90 62 60
        E 0 90 54 60
        E 0 90 56 60
        E 0 90 48 60
        E 0 90 4a 60
        E 0 90 3c 60
        E 120 80 60 00
        E 0 80 62 00
        E 0 80 54 00
        E 0 80 56 00
        E 0 80 48 00
        E 0 80 4a 00
        E 0 80 3c 00
        E 360 90 60 60
        E 0 90 54 60
        E 0 90 48 60
        E 0 90 3c 60
        E 120 80 60 00
        E 0 80 54 00
        E 0 80 48 00
        E 0 80 3c 00
        E 360 90 60 60
        E 0 90 62 60
        E 0 90 54 60
        E 0 90 56 60
        E 0 90 48 60
        E 0 90 4a 60
        E 0 90 3c 60
        E 120 80 60 00
        E 0 80 62 00
        E 0 80 54 00
        E 0 80 56 00
        E 0 80 48 00
        E 0 80 4a 00
        E 0 80 3c 00
        E 120 90 60 60
        E 0 90 62 60
        E 0 90 54 60
        E 0 90 56 60
        E 0 90 48 60
        E 0 90 4a 60
        E 120 80 60 00
        E 0 80 62 00
        E 0 80 54 00
        E 0 80 56 00
        E 0 80 48 00
        E 0 80 4a 00
        E 120 90 60 60
        E 0 90 62 60
        E 0 90 54 60
        E 0 90 56 60
        E 0 90 48 60
        E 0 90 4a 60
        E 0 90 3c 60
        E 120 80 60 00
        E 0 80 62 00
        E 0 80 54 00
        E 0 80 56 00
        E 0 80 48 00
        E 0 80 4a 00
        E 0 80 3c 00
        E 120 90 60 60
        E 0 90 61 60
        E 0 90 54 60
        E 0 90 55 60
        E 120 80 60 00
        E 0 80 61 00
        E 0 80 54 00
        E 0 80 55 00
        E 120 90 60 60
        E 0 90 62 60
        E 0 90 54 60
        E 0 90 56 60
        E 0 90 48 60
        E 0 90 4a 60
        E 0 90 3c 60
        E 120 80 60 00
        E 0 80 62 00
        E 0 80 54 00
        E 0 80 56 00
        E 0 80 48 00
        E 0 80 4a 00
        E 0 80 3c 00
        E 360 90 61 60
        E 0 90 62 60
        E 0 90 55 60
        E 0 90 56 60
        E 0 90 49 60
        E 0 90 4a 60
        E 120 80 61 00
        E 0 80 62 00
        E 0 80 55 00
        E 0 80 56 00
        E 0 80 49 00
        E 0 80 4a 00
        E 360 90 61 60
        E 0 90 63 60
        E 0 90 55 60
        E 0 90 57 60
        E 0 90 49 60
        E 0 90 4b 60
        E 0 90 3e 60
        E 120 80 61 00
        E 0 80 63 00
        E 0 80 55 00
        E 0 80 57 00
        E 0 80 49 00
        E 0 80 4b 00
        E 0 80 3e 00
        E 120 90 61 60
        E 0 90 63 60
        E 0 90 55 60
        E 0 90 57 60
        E 0 90 49 60
        E 0 90 4b 60
        E 120 80 61 00
        E 0 80 63 00
        E 0 80 55 00
        E 0 80 57 00
        E 0 80 49 00
        E 0 80 4b 00
        E 120 90 61 60
        E 0 90 63 60
        E 0 90 55 60
        E 0 90 57 60
        E 0 90 49 60
        E 0 90 4b 60
        E 0 90 3e 60
        E 120 80 61 00
        E 0 80 63 00
        E 0 80 55 00
        E 0 80 57 00
        E 0 80 49 00
        E 0 80 4b 00
        E 0 80 3e 00
        E 120 90 61 60
        E 0 90 62 60
        E 0 90 55 60
        E 0 90 56 60
        E 120 80 61 00
        E 0 80 62 00
        E 0 80 55 00
        E 0 80 56 00
        E 120 90 61 60
        E 0 90 63 60
        E 0 90 55 60
        E 0 90 57 60
        E 0 90 49 60
        E 0 90 4b 60
        E 0 90 3e 60
        E 120 80 61 00
        E 0 80 63 00
        E 0 80 55 00
        E 0 80 57 00
        E 0 80 49 00
        E 0 80 4b 00
        E 0 80 3e 00
        E 360 90 60 60
        E 0 90 54 60
        E 0 90 48 60
        E 120 80 60 00
        E 0 80 54 00
        E 0 80 48 00
        E 360 90 61 60
        E 0 90 63 60
        E 0 90 55 60
        E 0 90 57 60
        E 0 90 49 60
        E 0 90 4b 60
        E 0 90 3e 60
        E 120 80 61 00
        E 0 80 63 00
        E 0 80 55 00
        E 0 80 57 00
        E 0 80 49 00
        E 0 80 4b 00
        E 0 80 3e 00
        E 120 90 61 60
        E 0 90 63 60
        E 0 90 55 60
        E 0 90 57 60
        E 0 90 49 60
        E 0 90 4b 60
        E 120 80 61 00
        E 0 80 63 00
        E 0 80 55 00
        E 0 80 57 00
        E 0 80 49 00
        E 0 80 4b 00
        E 120 90 61 60
        E 0 90 63 60
        E 0 90 55 60
        E 0 90 57 60
        E 0 90 49 60
        E 0 90 4b 60
        E 0 90 3e 60
        E 120 80 61 00
        E 0 80 63 00
        E 0 80 55 00
        E 0 80 57 00
        E 0 80 49 00
        E 0 80 4b 00
        E 0 80 3e 00
        E 120 90 61 60
        E 0 90 62 60
        E 0 90 55 60
        E 0 90 56 60
        E 120 80 61 00
        E 0 80 62 00
        E 0 80 55 00
        E 0 80 56 00
        E 120 90 61 60
        E 0 90 63 60
        E 0 90 55 60
        E 0 90 57 60
        E 0 90 49 60
        E 0 90 4b 60
        E 0 90 3e 60
        E 120 80 61 00
        E 0 80 63 00
        E 0 80 55 00
        E 0 80 57 00
        E 0 80 49 00
        E 0 80 4b 00
        E 0 80 3e 00
        E 360 90 62 60
        E 0 90 63 60
        E 0 90 56 60
        E 0 90 57 60
        E 0 90 4a 60
        E 0 90 4b 60
        E 120 80 62 00
        E 0 80 63 00
        E 0 80 56 00
        E 0 80 57 00
        E 0 80 4a 00
        E 0 80 4b 00
        E 360 90 62 60
        E 0 90 64 60
        E 0 90 56 60
        E 0 90 58 60
        E 0 90 4b 60
        E 0 90 4c 60
        E 0 90 40 60
        E 120 80 62 00
        E 0 80 64 00
        E 0 80 56 00
        E 0 80 58 00
        E 0 80 4b 00
        E 0 80 4c 00
        E 0 80 40 00
        E 120 90 62 60
        E 0 90 64 60
        E 0 90 56 60
        E 0 90 58 60
        E 0 90 4b 60
        E 0 90 4c 60
        E 120 80 62 00
        E 0 80 64 00
        E 0 80 56 00
        E 0 80 58 00
        E 0 80 4b 00
        E 0 80 4c 00
        E 120 90 62 60
        E 0 90 64 60
        E 0 90 56 60
        E 0 90 58 60
        E 0 90 4b 60
        E 0 90 4c 60
        E 0 90 40 60
        E 120 80 62 00
        E 0 80 64 00
        E 0 80 56 00
        E 0 80 58 00
        E 0 80 4b 00
        E 0 80 4c 00
        E 0 80 40 00
        E 120 90 62 60
        E 0 90 63 60
        E 0 90 56 60
        E 0 90 57 60
        E 120 80 62 00
        E 0 80 63 00
        E 0 80 56 00
        E 0 80 57 00
        E 120 90 62 60
        E 0 90 64 60
        E 0 90 56 60
        E 0 90 58 60
        E 0 90 4b 60
        E 0 90 4c 60
        E 0 90 40 60
        E 120 80 62 00
        E 0 80 64 00
        E 0 80 56 00
        E 0 80 58 00
        E 0 80 4b 00
        E 0 80 4c 00
        E 0 80 40 00
        E 360 90 60 60
        E 0 90 54 60
        E 0 90 48 60
        E 120 80 60 00
        E 0 80 54 00
        E 0 80 48 00
        E 360 90 62 60
        E 0 90 64 60
        E 0 90 56 60
        E 0 90 58 60
        E 0 90 4b 60
        E 0 90 4c 60
        E 0 90 40 60
        E 120 80 62 00
        E 0 80 64 00
        E 0 80 56 00
        E 0 80 58 00
        E 0 80 4b 00
        E 0 80 4c 00
        E 0 80 40 00
        E 120 90 62 60
        E 0 90 64 60
        E 0 90 56 60
        E 0 90 58 60
        E 0 90 4b 60
        E 0 90 4c 60
        E 120 80 62 00
        E 0 80 64 00
        E 0 80 56 00
        E 0 80 58 00
        E 0 80 4b 00
        E 0 80 4c 00
        E 120 90 62 60
        E 0 90 64 60
        E 0 90 56 60
        E 0 90 58 60
        E 0 90 4b 60
        E 0 90 4c 60
        E 0 90 40 60
        E 120 80 62 00
        E 0 80 64 00
        E 0 80 56 00
        E 0 80 58 00
        E 0 80 4b 00
        E 0 80 4c 00
        E 0 80 40 00
        E 120 90 62 60
        E 0 90 63 60
        E 0 90 56 60
        E 0 90 57 60
        E 120 80 62 00
        E 0 80 63 00
        E 0 80 56 00
        E 0 80 57 00
        E 120 90 62 60
        E 0 90 64 60
        E 0 90 56 60
        E 0 90 58 60
        E 0 90 4b 60
        E 0 90 4c 60
        E 0 90 40 60
        E 120 80 62 00
        E 0 80 64 00
        E 0 80 56 00
        E 0 80 58 00
        E 0 80 4b 00
        E 0 80 4c 00
        E 0 80 40 00
        E 360 90 61 60
        E 0 90 62 60
        E 0 90 55 60
        E 0 90 56 60
        E 0 90 49 60
        E 0 90 4a 60
        E 120 80 61 00
        E 0 80 62 00
        E 0 80 55 00
        E 0 80 56 00
        E 0 80 49 00
        E 0 80 4a 00
        E 360 90 61 60
        E 0 90 63 60
        E 0 90 55 60
        E 0 90 57 60
        E 0 90 49 60
        E 0 90 4b 60
        E 0 90 3e 60
        E 120 80 61 00
        E 0 80 63 00
        E 0 80 55 00
        E 0 80 57 00
        E 0 80 49 00
        E 0 80 4b 00
        E 0 80 3e 00
        E 120 90 61 60
        E 0 90 63 60
        E 0 90 55 60
        E 0 90 57 60
        E 0 90 49 60
        E 0 90 4b 60
        E 120 80 61 00
        E 0 80 63 00
        E 0 80 55 00
        E 0 80 57 00
        E 0 80 49 00
        E 0 80 4b 00
        E 120 90 61 60
        E 0 90 63 60
        E 0 90 55 60
        E 0 90 57 60
        E 0 90 49 60
        E 0 90 4b 60
        E 0 90 3e 60
        E 120 80 61 00
        E 0 80 63 00
        E 0 80 55 00
        E 0 80 57 00
        E 0 80 49 00
        E 0 80 4b 00
        E 0 80 3e 00
        E 120 90 61 60
        E 0 90 62 60
        E 0 90 55 60
        E 0 90 56 60
        E 120 80 61 00
        E 0 80 62 00
        E 0 80 55 00
        E 0 80 56 00
        E 120 90 61 60
        E 0 90 63 60
        E 0 90 55 60
        E 0 90 57 60
        E 0 90 49 60
        E 0 90 4b 60
        E 0 90 3e 60
        E 120 80 61 00
        E 0 80 63 00
        E 0 80 55 00
        E 0 80 57 00
        E 0 80 49 00
        E 0 80 4b 00
        E 0 80 3e 00
        E 360 90 60 60
        E 0 90 54 60
        E 0 90 48 60
        E 120 80 60 00
        E 0 80 54 00
        E 0 80 48 00
        E 360 90 61 60
        E 0 90 63 60
        E 0 90 55 60
        E 0 90 57 60
        E 0 90 49 60
        E 0 90 4b 60
        E 0 90 3e 60
        E 120 80 61 00
        E 0 80 63 00
        E 0 80 55 00
        E 0 80 57 00
        E 0 80 49 00
        E 0 80 4b 00
        E 0 80 3e 00
        E 120 90 61 60
        E 0 90 63 60
        E 0 90 55 60
        E 0 90 57 60
        E 0 90 49 60
        E 0 90 4b 60
        E 120 80 61 00
        E 0 80 63 00
        E 0 80 55 00
        E 0 80 57 00
        E 0 80 49 00
        E 0 80 4b 00
        E 120 90 61 60
        E 0 90 63 60
        E 0 90 55 60
        E 0 90 57 60
        E 0 90 49 60
        E 0 90 4b 60
        E 0 90 3e 60
        E 120 80 61 00
        E 0 80 63 00
        E 0 80 55 00
        E 0 80 57 00
        E 0 80 49 00
        E 0 80 4b 00
        E 0 80 3e 00
        E 120 90 61 60
        E 0 90 62 60
        E 0 90 55 60
        E 0 90 56 60
        E 120 80 61 00
        E 0 80 62 00
        E 0 80 55 00
        E 0 80 56 00
        E 120 90 61 60
        E 0 90 63 60
        E 0 90 55 60
        E 0 90 57 60
        E 0 90 49 60
        E 0 90 4b 60
        E 0 90 3e 60
        E 120 80 61 00
        E 0 80 63 00
        E 0 80 55 00
        E 0 80 57 00
        E 0 80 49 00
        E 0 80 4b 00
        E 0 80 3e 00
        E 360 90 61 60
        E 0 90 62 60
        E 0 90 55 60
        E 0 90 56 60
        E 0 90 49 60
        E 0 90 4a 60
        E 120 80 61 00
        E 0 80 62 00
        E 0 80 55 00
        E 0 80 56 00
        E 0 80 49 00
        E 0 80 4a 00
        E 360 90 60 60
        E 0 90 62 60
        E 0 90 54 60
        E 0 90 56 60
        E 0 90 48 60
        E 0 90 4a 60
        E 0 90 3c 60
        E 120 80 60 00
        E 0 80 62 00
        E 0 80 54 00
        E 0 80 56 00
        E 0 80 48 00
        E 0 80 4a 00
        E 0 80 3c 00
        E 120 90 60 60
        E 0 90 62 60
        E 0 90 54 60
        E 0 90 56 60
        E 0 90 48 60
        E 0 90 4a 60
        E 120 80 60 00
        E 0 80 62 00
        E 0 80 54 00
        E 0 80 56 00
        E 0 80 48 00
        E 0 80 4a 00
        E 120 90 60 60
        E 0 90 62 60
        E 0 90 54 60
        E 0 90 56 60
        E 0 90 48 60
        E 0 90 4a 60
        E 0 90 3c 60
        E 120 80 60 00
        E 0 80 62 00
        E 0 80 54 00
        E 0 80 56 00
        E 0 80 48 00
        E 0 80 4a 00
        E 0 80 3c 00
        E 120 90 60 60
        E 0 90 61 60
        E 0 90 54 60
        E 0 90 55 60
        E 120 80 60 00
        E 0 80 61 00
        E 0 80 54 00
        E 0 80 55 00
        E 120 90 60 60
        E 0 90 62 60
        E 0 90 54 60
        E 0 90 56 60
        E 0 90 48 60
        E 0 90 4a 60
        E 0 90 3c 60
        E 120 80 60 00
        E 0 80 62 00
        E 0 80 54 00
        E 0 80 56 00
        E 0 80 48 00
        E 0 80 4a 00
        E 0 80 3c 00
        E 360 90 60 60
        E 0 90 54 60
        E 0 90 48 60
        E 0 90 3c 60
        E 120 80 60 00
        E 0 80 54 00
        E 0 80 48 00
        E 0 80 3c 00
        E 360 90 60 60
        E 0 90 62 60
        E 0 90 54 60
        E 0 90 56 60
        E 0 90 48 60
        E 0 90 4a 60
        E 0 90 3c 60
        E 120 80 60 00
        E 0 80 62 00
        E 0 80 54 00
        E 0 80 56 00
        E 0 80 48 00
        E 0 80 4a 00
        E 0 80 3c 00
        E 120 90 60 60
        E 0 90 62 60
        E 0 90 54 60
        E 0 90 56 60
        E 0 90 48 60
        E 0 90 4a 60
        E 120 80 60 00
        E 0 80 62 00
        E 0 80 54 00
        E 0 80 56 00
        E 0 80 48 00
        E 0 80 4a 00
        E 120 90 60 60
        E 0 90 62 60
        E 0 90 54 60
        E 0 90 56 60
        E 0 90 48 60
        E 0 90 4a 60
        E 0 90 3c 60
        E 120 80 60 00
        E 0 80 62 00
        E 0 80 54 00
        E 0 80 56 00
        E 0 80 48 00
        E 0 80 4a 00
        E 0 80 3c 00
        E 120 90 60 60
        E 0 90 61 60
        E 0 90 54 60
        E 0 90 55 60
        E 120 80 60 00
        E 0 80 61 00
        E 0 80 54 00
        E 0 80 55 00
        E 120 90 60 60
        E 0 90 62 60
        E 0 90 54 60
        E 0 90 56 60
        E 0 90 48 60
        E 0 90 4a 60
        E 0 90 3c 60
        E 120 80 60 00
        E 0 80 62 00
        E 0 80 54 00
        E 0 80 56 00
        E 0 80 48 00
        E 0 80 4a 00
        E 0 80 3c 00
        E 360 90 61 60
        E 0 90 62 60
        E 0 90 55 60
        E 0 90 56 60
        E 0 90 49 60
        E 0 90 4a 60
        E 120 80 61 00
        E 0 80 62 00
        E 0 80 55 00
        E 0 80 56 00
        E 0 80 49 00
        E 0 80 4a 00
        E 360 90 61 60
        E 0 90 63 60
        E 0 90 55 60
        E 0 90 57 60
        E 0 90 49 60
        E 0 90 4b 60
        E 0 90 3e 60
        E 120 80 61 00
        E 0 80 63 00
        E 0 80 55 00
        E 0 80 57 00
        E 0 80 49 00
        E 0 80 4b 00
        E 0 80 3e 00
        E 120 90 61 60
        E 0 90 63 60
        E 0 90 55 60
        E 0 90 57 60
        E 0 90 49 60
        E 0 90 4b 60
        E 120 80 61 00
        E 0 80 63 00
        E 0 80 55 00
        E 0 80 57 00
        E 0 80 49 00
        E 0 80 4b 00
        E 120 90 61 60
        E 0 90 63 60
        E 0 90 55 60
        E 0 90 57 60
        E 0 90 49 60
        E 0 90 4b 60
        E 0 90 3e 60
        E 120 80 61 00
        E 0 80 63 00
        E 0 80 55 00
        E 0 80 57 00
        E 0 80 49 00
        E 0 80 4b 00
        E 0 80 3e 00
        E 120 90 61 60
        E 0 90 62 60
        E 0 90 55 60
        E 0 90 56 60
        E 120 80 61 00
        E 0 80 62 00
        E 0 80 55 00
        E 0 80 56 00
        E 120 90 61 60
        E 0 90 63 60
        E 0 90 55 60
        E 0 90 57 60
        E 0 90 49 60
        E 0 90 4b 60
        E 0 90 3e 60
        E 120 80 61 00
        E 0 80 63 00
        E 0 80 55 00
        E 0 80 57 00
        E 0 80 49 00
        E 0 80 4b 00
        E 0 80 3e 00
        E 360 90 60 60
        E 0 90 54 60
        E 0 90 48 60
        E 120 80 60 00
        E 0 80 54 00
        E 0 80 48 00
        E 360 90 61 60
        E 0 90 63 60
        E 0 90 55 60
        E 0 90 57 60
        E 0 90 49 60
        E 0 90 4b 60
        E 0 90 3e 60
        E 120 80 61 00
        E 0 80 63 00
        E 0 80 55 00
        E 0 80 57 00
        E 0 80 49 00
        E 0 80 4b 00
        E 0 80 3e 00
        E 120 90 61 60
        E 0 90 63 60
        E 0 90 55 60
        E 0 90 57 60
        E 0 90 49 60
        E 0 90 4b 60
        E 120 80 61 00
        E 0 80 63 00
        E 0 80 55 00
        E 0 80 57 00
        E 0 80 49 00
        E 0 80 4b 00
        E 120 90 61 60
        E 0 90 63 60
        E 0 90 55 60
        E 0 90 57 60
        E 0 90 49 60
        E 0 90 4b 60
        E 0 90 3e 60
        E 120 80 61 00
        E 0 80 63 00
        E 0 80 55 00
        E 0 80 57 00
        E 0 80 49 00
        E 0 80 4b 00
        E 0 80 3e 00
        E 120 90 61 60
        E 0 90 62 60
        E 0 90 55 60
        E 0 90 56 60
        E 120 80 61 00
        E 0 80 62 00
        E 0 80 55 00
        E 0 80 56 00
        E 120 90 61 60
        E 0 90 63 60
        E 0 90 55 60
        E 0 90 57 60
        E 0 90 49 60
        E 0 90 4b 60
        E 0 90 3e 60
        E 120 80 61 00
        E 0 80 63 00
        E 0 80 55 00
        E 0 80 57 00
        E 0 80 49 00
        E 0 80 4b 00
        E 0 80 3e 00
        E 360 90 62 60
        E 0 90 63 60
        E 0 90 56 60
        E 0 90 57 60
        E 0 90 4a 60
        E 0 90 4b 60
        E 120 80 62 00
        E 0 80 63 00
        E 0 80 56 00
        E 0 80 57 00
        E 0 80 4a 00
        E 0 80 4b 00
        E 360 90 64 60
        E 0 90 58 60
        E 0 90 4b 60
        E 0 90 3e 60
        E 120 80 58 00
        E 0 80 4b 00
        E 0 80 3e 00
        E 600 80 64 00
        E 0 90 63 60
        E 0 90 57 60
        E 120 80 63 00
        E 0 80 57 00
        E 120 90 62 60
        E 0 90 56 60
        E 0 90 4a 60
        E 0 90 3e 60
        E 120 80 62 00
        E 0 80 56 00
        E 0 80 4a 00
        E 0 80 3e 00
        E 120 90 61 60
        E 0 90 55 60
        E 120 80 61 00
        E 0 80 55 00
        E 120 90 60 60
        E 0 90 54 60
        E 0 90 48 60
        E 120 80 60 00
        E 0 80 54 00
        E 0 80 48 00
        E 120 90 61 60
        E 0 90 55 60
        E 120 80 61 00
        E 0 80 55 00
        E 120 90 60 60
        E 0 90 54 60
        E 0 90 48 60
        E 0 90 3c 60
        E 1440 80 3c 00
        E 120 80 48 00
        E 120 80 54 00
        E 240 80 60 00
        E 0 90 63 60
        E 0 90 57 60
        E 0 90 4b 60
        E 0 90 3e 60
        E 120 80 57 00
        E 0 80 4b 00
        E 0 80 3e 00
        E 600 80 63 00
        E 0 90 62 60
        E 0 90 56 60
        E 120 80 62 00
        E 0 80 56 00
        E 120 90 60 60
        E 0 90 54 60
        E 0 90 48 60
        E 0 90 3c 60
        E 120 80 60 00
        E 0 80 54 00
        E 0 80 48 00
        E 0 80 3c 00
        E 120 90 63 60
        E 0 90 57 60
        E 120 80 63 00
        E 0 80 57 00
        E 120 90 62 60
        E 0 90 56 60
        E 0 90 4a 60
        E 120 80 62 00
        E 0 80 56 00
        E 0 80 4a 00
        E 120 90 61 60
        E 0 90 55 60
        E 120 80 61 00
        E 0 80 55 00
        E 120 90 60 60
        E 0 90 54 60
        E 0 90 48 60
        E 0 90 3c 60
        E 1440 80 3c 00
        E 120 80 48 00
        E 120 80 54 00
        E 240 80 60 00
        E 0 90 62 60
        E 0 90 56 60
        E 0 90 4a 60
        E 0 90 3e 60
        E 120 80 56 00
        E 0 80 4a 00
        E 0 80 3e 00
        E 600 80 62 00
        E 0 90 63 60
        E 0 90 57 60
        E 120 80 63 00
        E 0 80 57 00
        E 120 90 62 60
        E 0 90 56 60
        E 0 90 4a 60
        E 0 90 3e 60
        E 120 80 62 00
        E 0 80 56 00
        E 0 80 4a 00
        E 0 80 3e 00
        E 120 90 61 60
        E 0 90 55 60
        E 120 80 61 00
        E 0 80 55 00
        E 120 90 62 60
        E 0 90 56 60
        E 0 90 4a 60
        E 120 80 62 00
        E 0 80 56 00
        E 0 80 4a 00
        E 120 90 60 60
        E 0 90 54 60
        E 120 80 60 00
        E 0 80 54 00
        E 120 90 60 60
        E 0 90 61 60
        E 0 90 54 60
        E 0 90 55 60
        E 0 90 48 60
        E 0 90 49 60
        E 0 90 3c 60
        E 120 80 3c 00
        E 480 80 48 00
        E 0 80 49 00
        E 120 80 54 00
        E 0 80 55 00
        E 240 80 60 00
        E 0 80 61 00
        E 0 90 61 60
        E 0 90 62 60
        E 0 90 55 60
        E 0 90 56 60
        E 0 90 49 60
        E 0 90 4a 60
        E 0 90 3d 60
        E 120 80 3d 00
        E 480 80 49 00
        E 0 80 4a 00
        E 120 80 55 00
        E 0 80 56 00
        E 240 80 61 00
        E 0 80 62 00
        E 0 90 60 60
        E 0 90 62 60
        E 0 90 54 60
        E 0 90 56 60
        E 0 90 48 60
        E 0 90 4a 60
        E 0 90 3c 60
        E 120 80 60 00
        E 0 80 62 00
        E 0 80 54 00
        E 0 80 56 00
        E 0 80 48 00
        E 0 80 4a 00
        E 0 80 3c 00
        E 120 90 60 60
        E 0 90 62 60
        E 0 90 54 60
        E 0 90 56 60
        E 0 90 48 60
        E 0 90 4a 60
        E 120 80 60 00
        E 0 80 62 00
        E 0 80 54 00
        E 0 80 56 00
        E 0 80 48 00
        E 0 80 4a 00
        E 120 90 60 60
        E 0 90 62 60
        E 0 90 54 60
        E 0 90 56 60
        E 0 90 48 60
        E 0 90 4a 60
        E 0 90 3c 60
        E 120 80 60 00
        E 0 80 62 00
        E 0 80 54 00
        E 0 80 56 00
        E 0 80 48 00
        E 0 80 4a 00
        E 0 80 3c 00
        E 120 90 60 60
        E 0 90 61 60
        E 0 90 54 60
        E 0 90 55 60
        E 120 80 60 00
        E 0 80 61 00
        E 0 80 54 00
        E 0 80 55 00
        E 120 90 60 60
        E 0 90 62 60
        E 0 90 54 60
        E 0 90 56 60
        E 0 90 48 60
        E 0 90 4a 60
        E 0 90 3c 60
        E 120 80 60 00
        E 0 80 62 00
        E 0 80 54 00
        E 0 80 56 00
        E 0 80 48 00
        E 0 80 4a 00
        E 0 80 3c 00
        E 360 90 60 60
        E 0 90 54 60
        E 0 90 48 60
        E 0 90 3c 60
        E 120 80 60 00
        E 0 80 54 00
        E 0 80 48 00
        E 0 80 3c 00
        E 360 90 60 60
        E 0 90 62 60
        E 0 90 54 60
        E 0 90 56 60
        E 0 90 48 60
        E 0 90 4a 60
        E 0 90 3c 60
        E 120 80 60 00
        E 0 80 62 00
        E 0 80 54 00
        E 0 80 56 00
        E 0 80 48 00
        E 0 80 4a 00
        E 0 80 3c 00
        E 120 90 60 60
        E 0 90 62 60
        E 0 90 54 60
        E 0 90 56 60
        E 0 90 48 60
        E 0 90 4a 60
        E 120 80 60 00
        E 0 80 62 00
        E 0 80 54 00
        E 0 80 56 00
        E 0 80 48 00
        E 0 80 4a 00
        E 120 90 60 60
        E 0 90 62 60
        E 0 90 54 60
        E 0 90 56 60
        E 0 90 48 60
        E 0 90 4a 60
        E 0 90 3c 60
        E 120 80 60 00
        E 0 80 62 00
        E 0 80 54 00
        E 0 80 56 00
        E 0 80 48 00
        E 0 80 4a 00
        E 0 80 3c 00
        E 120 90 60 60
        E 0 90 61 60
        E 0 90 54 60
        E 0 90 55 60
        E 120 80 60 00
        E 0 80 61 00
        E 0 80 54 00
        E 0 80 55 00
        E 120 90 60 60
        E 0 90 62 60
        E 0 90 54 60
        E 0 90 56 60
        E 0 90 48 60
        E 0 90 4a 60
        E 0 90 3c 60
        E 120 80 60 00
        E 0 80 62 00
        E 0 80 54 00
        E 0 80 56 00
        E 0 80 48 00
        E 0 80 4a 00
        E 0 80 3c 00
        E 360 90 61 60
        E 0 90 62 60
        E 0 90 55 60
        E 0 90 56 60
        E 0 90 49 60
        E 0 90 4a 60
        E 120 80 61 00
        E 0 80 62 00
        E 0 80 55 00
        E 0 80 56 00
        E 0 80 49 00
        E 0 80 4a 00
        E 360 90 61 60
        E 0 90 63 60
        E 0 90 55 60
        E 0 90 57 60
        E 0 90 49 60
        E 0 90 4b 60
        E 0 90 3e 60
        E 120 80 61 00
        E 0 80 63 00
        E 0 80 55 00
        E 0 80 57 00
        E 0 80 49 00
        E 0 80 4b 00
        E 0 80 3e 00
        E 120 90 61 60
        E 0 90 63 60
        E 0 90 55 60
        E 0 90 57 60
        E 0 90 49 60
        E 0 90 4b 60
        E 120 80 61 00
        E 0 80 63 00
        E 0 80 55 00
        E 0 80 57 00
        E 0 80 49 00
        E 0 80 4b 00
        E 120 90 61 60
        E 0 90 63 60
        E 0 90 55 60
        E 0 90 57 60
        E 0 90 49 60
        E 0 90 4b 60
        E 0 90 3e 60
        E 120 80 61 00
        E 0 80 63 00
        E 0 80 55 00
        E 0 80 57 00
        E 0 80 49 00
        E 0 80 4b 00
        E 0 80 3e 00
        E 120 90 61 60
        E 0 90 62 60
        E 0 90 55 60
        E 0 90 56 60
        E 120 80 61 00
        E 0 80 62 00
        E 0 80 55 00
        E 0 80 56 00
        E 120 90 61 60
        E 0 90 63 60
        E 0 90 55 60
        E 0 90 57 60
        E 0 90 49 60
        E 0 90 4b 60
        E 0 90 3e 60
        E 120 80 61 00
        E 0 80 63 00
        E 0 80 55 00
        E 0 80 57 00
        E 0 80 49 00
        E 0 80 4b 00
        E 0 80 3e 00
        E 360 90 60 60
        E 0 90 54 60
        E 0 90 48 60
        E 120 80 60 00
        E 0 80 54 00
        E 0 80 48 00
        E 360 90 61 60
        E 0 90 63 60
        E 0 90 55 60
        E 0 90 57 60
        E 0 90 49 60
        E 0 90 4b 60
        E 0 90 3e 60
        E 120 80 61 00
        E 0 80 63 00
        E 0 80 55 00
        E 0 80 57 00
        E 0 80 49 00
        E 0 80 4b 00
        E 0 80 3e 00
        E 120 90 61 60
        E 0 90 63 60
        E 0 90 55 60
        E 0 90 57 60
        E 0 90 49 60
        E 0 90 4b 60
        E 120 80 61 00
        E 0 80 63 00
        E 0 80 55 00
        E 0 80 57 00
        E 0 80 49 00
        E 0 80 4b 00
        E 120 90 61 60
        E 0 90 63 60
        E 0 90 55 60
        E 0 90 57 60
        E 0 90 49 60
        E 0 90 4b 60
        E 0 90 3e 60
        E 120 80 61 00
        E 0 80 63 00
        E 0 80 55 00
        E 0 80 57 00
        E 0 80 49 00
        E 0 80 4b 00
        E 0 80 3e 00
        E 120 90 61 60
        E 0 90 62 60
        E 0 90 55 60
        E 0 90 56 60
        E 120 80 61 00
        E 0 80 62 00
        E 0 80 55 00
        E 0 80 56 00
        E 120 90 61 60
        E 0 90 63 60
        E 0 90 55 60
        E 0 90 57 60
        E 0 90 49 60
        E 0 90 4b 60
        E 0 90 3e 60
        E 120 80 61 00
        E 0 80 63 00
        E 0 80 55 00
        E 0 80 57 00
        E 0 80 49 00
        E 0 80 4b 00
        E 0 80 3e 00
        E 360 90 62 60
        E 0 90 63 60
        E 0 90 56 60
        E 0 90 57 60
        E 0 90 4a 60
        E 0 90 4b 60
        E 120 80 62 00
        E 0 80 63 00
        E 0 80 56 00
        E 0 80 57 00
        E 0 80 4a 00
        E 0 80 4b 00
        E 360 90 64 60
        E 0 90 58 60
        E 0 90 4b 60
        E 0 90 3e 60
        E 120 80 58 00
        E 0 80 4b 00
        E 0 80 3e 00
        E 600 80 64 00
        E 0 90 63 60
        E 0 90 57 60
        E 120 80 63 00
        E 0 80 57 00
        E 120 90 62 60
        E 0 90 56 60
        E 0 90 4a 60
        E 0 90 3e 60
        E 120 80 62 00
        E 0 80 56 00
        E 0 80 4a 00
        E 0 80 3e 00
        E 120 90 61 60
        E 0 90 55 60
        E 120 80 61 00
        E 0 80 55 00
        E 120 90 60 60
        E 0 90 54 60
        E 0 90 48 60
        E 120 80 60 00
        E 0 80 54 00
        E 0 80 48 00
        E 120 90 61 60
        E 0 90 55 60
        E 120 80 61 00
        E 0 80 55 00
        E 120 90 60 60
        E 0 90 54 60
        E 0 90 48 60
        E 0 90 3c 60
        E 1440 80 3c 00
        E 120 80 48 00
        E 120 80 54 00
        E 240 80 60 00
        E 0 90 63 60
        E 0 90 57 60
        E 0 90 4b 60
        E 0 90 3e 60
        E 120 80 57 00
        E 0 80 4b 00
        E 0 80 3e 00
        E 600 80 63 00
        E 0 90 62 60
        E 0 90 56 60
        E 120 80 62 00
        E 0 80 56 00
        E 120 90 60 60
        E 0 90 54 60
        E 0 90 48 60
        E 0 90 3c 60
        E 120 80 60 00
        E 0 80 54 00
        E 0 80 48 00
        E 0 80 3c 00
        E 120 90 63 60
        E 0 90 57 60
        E 120 80 63 00
        E 0 80 57 00
        E 120 90 62 60
        E 0 90 56 60
        E 0 90 4a 60
        E 120 80 62 00
        E 0 80 56 00
        E 0 80 4a 00
        E 120 90 61 60
        E 0 90 55 60
        E 120 80 61 00
        E 0 80 55 00
        E 120 90 60 60
        E 0 90 54 60
        E 0 90 48 60
        E 0 90 3c 60
        E 1440 80 3c 00
        E 120 80 48 00
        E 120 80 54 00
        E 240 80 60 00
        E 0 90 62 60
        E 0 90 56 60
        E 0 90 4a 60
        E 0 90 3e 60
        E 120 80 56 00
        E 0 80 4a 00
        E 0 80 3e 00
        E 600 80 62 00
        E 0 90 63 60
        E 0 90 57 60
        E 120 80 63 00
        E 0 80 57 00
        E 120 90 62 60
        E 0 90 56 60
        E 0 90 4a 60
        E 0 90 3e 60
        E 120 80 62 00
        E 0 80 56 00
        E 0 80 4a 00
        E 0 80 3e 00
        E 120 90 61 60
        E 0 90 55 60
        E 120 80 61 00
        E 0 80 55 00
        E 120 90 62 60
        E 0 90 56 60
        E 0 90 4a 60
        E 120 80 62 00
        E 0 80 56 00
        E 0 80 4a 00
        E 120 90 60 60
        E 0 90 54 60
        E 120 80 60 00
        E 0 80 54 00
        E 120 90 60 60
        E 0 90 61 60
        E 0 90 54 60
        E 0 90 55 60
        E 0 90 48 60
        E 0 90 49 60
        E 0 90 3c 60
        E 120 80 3c 00
        E 480 80 48 00
        E 0 80 49 00
        E 120 80 54 00
        E 0 80 55 00
        E 240 80 60 00
        E 0 80 61 00
        E 0 90 61 60
        E 0 90 62 60
        E 0 90 55 60
        E 0 90 56 60
        E 0 90 49 60
        E 0 90 4a 60
        E 0 90 3d 60
        E 120 80 3d 00
        E 480 80 49 00
        E 0 80 4a 00
        E 120 80 55 00
        E 0 80 56 00
        E 240 80 61 00
        E 0 80 62 00
        E 0 90 61 60
        E 0 90 63 60
        E 0 90 55 60
        E 0 90 57 60
        E 0 90 49 60
        E 0 90 4b 60
        E 0 90 3e 60
        E 5280 80 3e 00
        E 120 80 49 00
        E 0 80 4b 00
        E 120 80 55 00
        E 0 80 57 00
        E 240 80 61 00
        E 0 80 63 00
        E 0 90 64 60
        E 0 90 58 60
        E 0 90 4b 60
        E 0 90 3e 60
        E 120 80 64 00
        E 0 80 58 00
        E 0 80 4b 00
        E 0 90 63 60
        E 0 80 3e 00
        E 120 80 63 00
        E 0 90 62 60
        E 0 90 56 60
        E 120 80 62 00
        E 0 80 56 00
        E 0 90 61 60
        E 120 80 61 00
        E 0 90 64 60
        E 0 90 58 60
        E 0 90 4b 60
        E 0 90 3e 60
        E 120 80 64 00
        E 0 80 58 00
        E 0 80 4b 00
        E 0 90 63 60
        E 0 80 3e 00
        E 120 80 63 00
        E 0 90 62 60
        E 0 90 56 60
        E 120 80 62 00
        E 0 80 56 00
        E 0 90 61 60
        E 120 80 61 00
        E 0 90 63 60
        E 0 90 57 60
        E 0 90 4b 60
        E 0 90 3e 60
        E 120 80 63 00
        E 0 80 57 00
        E 0 80 4b 00
        E 0 90 62 60
        E 0 80 3e 00
        E 120 80 62 00
        E 0 90 61 60
        E 0 90 55 60
        E 120 80 61 00
        E 0 80 55 00
        E 0 90 60 60
        E 120 80 60 00
        E 0 90 63 60
        E 0 90 57 60
        E 0 90 4b 60
        E 120 80 63 00
        E 0 80 57 00
        E 0 80 4b 00
        E 0 90 62 60
        E 120 80 62 00
        E 0 90 61 60
        E 0 90 55 60
        E 120 80 61 00
        E 0 80 55 00
        E 0 90 60 60
        E 120 80 60 00
        E 0 90 60 60
        E 0 90 54 60
        E 0 90 48 60
        E 0 90 3c 60
        E 120 80 60 00
        E 0 80 54 00
        E 0 80 48 00
        E 0 90 60 60
        E 0 80 3c 00
        E 120 80 60 00
        E 0 90 60 60
        E 0 90 54 60
        E 0 90 48 60
        E 120 80 60 00
        E 0 80 54 00
        E 0 80 48 00
        E 0 90 61 60
        E 0 90 63 60
        E 120 80 61 00
        E 0 80 63 00
        E 240 90 60 60
        E 0 90 62 60
        E 0 90 54 60
        E 0 90 56 60
        E 0 90 48 60
        E 0 90 4a 60
        E 120 80 60 00
        E 0 80 62 00
        E 0 80 54 00
        E 0 80 56 00
        E 0 80 48 00
        E 0 80 4a 00
        E 360 90 60 60
        E 0 90 62 60
        E 0 90 54 60
        E 0 90 56 60
        E 0 90 48 60
        E 0 90 4a 60
        E 120 80 60 00
        E 0 80 62 00
        E 0 80 54 00
        E 0 80 56 00
        E 0 80 48 00
        E 0 80 4a 00
        E 120 90 60 60
        E 0 90 62 60
        E 0 90 54 60
        E 0 90 56 60
        E 0 90 48 60
        E 0 90 4a 60
        E 0 90 3c 60
        E 120 80 60 00
        E 0 80 62 00
        E 0 80 54 00
        E 0 80 56 00
        E 0 80 48 00
        E 0 80 4a 00
        E 0 80 3c 00
        E 120 90 60 60
        E 0 90 62 60
        E 0 90 54 60
        E 0 90 56 60
        E 120 80 60 00
        E 0 80 62 00
        E 0 80 54 00
        E 0 80 56 00
        E 120 90 60 60
        E 0 90 54 60
        E 0 90 48 60
        E 0 90 3c 60
        E 120 80 60 00
        E 0 80 54 00
        E 0 80 48 00
        E 0 90 60 60
        E 0 80 3c 00
        E 120 80 60 00
        E 0 90 60 60
        E 0 90 54 60
        E 0 90 48 60
        E 120 80 60 00
        E 0 80 54 00
        E 0 80 48 00
        E 0 90 61 60
        E 0 90 63 60
        E 120 80 61 00
        E 0 80 63 00
        E 240 90 60 60
        E 0 90 62 60
        E 0 90 54 60
        E 0 90 56 60
        E 0 90 48 60
        E 0 90 4a 60
        E 120 80 60 00
        E 0 80 62 00
        E 0 80 54 00
        E 0 80 56 00
        E 0 80 48 00
        E 0 80 4a 00
        E 360 90 60 60
        E 0 90 62 60
        E 0 90 54 60
        E 0 90 56 60
        E 0 90 48 60
        E 0 90 4a 60
        E 120 80 60 00
        E 0 80 62 00
        E 0 80 54 00
        E 0 80 56 00
        E 0 80 48 00
        E 0 80 4a 00
        E 120 90 60 60
        E 0 90 62 60
        E 0 90 54 60
        E 0 90 56 60
        E 0 90 48 60
        E 0 90 4a 60
        E 0 90 3c 60
        E 120 80 60 00
        E 0 80 62 00
        E 0 80 54 00
        E 0 80 56 00
        E 0 80 48 00
        E 0 80 4a 00
        E 0 80 3c 00
        E 120 90 60 60
        E 0 90 62 60
        E 0 90 54 60
        E 0 90 56 60
        E 120 80 60 00
        E 0 80 62 00
        E 0 80 54 00
        E 0 80 56 00
        E 120 90 60 60
        E 0 90 54 60
        E 0 90 48 60
        E 0 90 3c 60
        E 120 80 60 00
        E 0 80 54 00
        E 0 80 48 00
        E 0 90 60 60
        E 0 80 3c 00
        E 120 80 60 00
        E 0 90 60 60
        E 0 90 54 60
        E 0 90 48 60
        E 120 80 60 00
        E 0 80 54 00
        E 0 80 48 00
        E 0 90 62 60
        E 0 90 63 60
        E 120 80 62 00
        E 0 80 63 00
        E 240 90 61 60
        E 0 90 62 60
        E 0 90 55 60
        E 0 90 56 60
        E 0 90 49 60
        E 0 90 4a 60
        E 120 80 61 00
        E 0 80 62 00
        E 0 80 55 00
        E 0 80 56 00
        E 0 80 49 00
        E 0 80 4a 00
        E 360 90 61 60
        E 0 90 62 60
        E 0 90 55 60
        E 0 90 56 60
        E 0 90 49 60
        E 0 90 4a 60
        E 120 80 61 00
        E 0 80 62 00
        E 0 80 55 00
        E 0 80 56 00
        E 0 80 49 00
        E 0 80 4a 00
        E 120 90 61 60
        E 0 90 62 60
        E 0 90 55 60
        E 0 90 56 60
        E 0 90 49 60
        E 0 90 4a 60
        E 120 80 61 00
        E 0 80 62 00
        E 0 80 55 00
        E 0 80 56 00
        E 0 80 49 00
        E 0 80 4a 00
        E 120 90 61 60
        E 0 90 62 60
        E 0 90 55 60
        E 0 90 56 60
        E 120 80 61 00
        E 0 80 62 00
        E 0 80 55 00
        E 0 80 56 00
        E 120 90 60 60
        E 0 90 54 60
        E 0 90 48 60
        E 0 90 3c 60
        E 120 80 60 00
        E 0 80 54 00
        E 0 80 48 00
        E 0 90 60 60
        E 0 80 3c 00
        E 120 80 60 00
        E 0 90 60 60
        E 0 90 54 60
        E 0 90 48 60
        E 120 80 60 00
        E 0 80 54 00
        E 0 80 48 00
        E 0 90 62 60
        E 0 90 63 60
        E 120 80 62 00
        E 0 80 63 00
        E 240 90 61 60
        E 0 90 62 60
        E 0 90 55 60
        E 0 90 56 60
        E 0 90 49 60
        E 0 90 4a 60
        E 120 80 61 00
        E 0 80 62 00
        E 0 80 55 00
        E 0 80 56 00
        E 0 80 49 00
        E 0 80 4a 00
        E 360 90 61 60
        E 0 90 62 60
        E 0 90 55 60
        E 0 90 56 60
        E 0 90 49 60
        E 0 90 4a 60
        E 120 80 61 00
        E 0 80 62 00
        E 0 80 55 00
        E 0 80 56 00
        E 0 80 49 00
        E 0 80 4a 00
        E 120 90 61 60
        E 0 90 62 60
        E 0 90 55 60
        E 0 90 56 60
        E 0 90 49 60
        E 0 90 4a 60
        E 120 80 61 00
        E 0 80 62 00
        E 0 80 55 00
        E 0 80 56 00
        E 0 80 49 00
        E 0 80 4a 00
        E 120 90 61 60
        E 0 90 62 60
        E 0 90 55 60
        E 0 90 56 60
        E 120 80 61 00
        E 0 80 62 00
        E 0 80 55 00
        E 0 80 56 00
        E 120 90 60 60
        E 0 90 54 60
        E 0 90 48 60
        E 0 90 3c 60
        E 120 80 60 00
        E 0 80 54 00
        E 0 80 48 00
        E 0 90 60 60
        E 0 80 3c 00
        E 120 80 60 00
        E 0 90 60 60
        E 0 90 54 60
        E 0 90 48 60
        E 120 80 60 00
        E 0 80 54 00
        E 0 80 48 00
        E 0 90 61 60
        E 0 90 63 60
        E 120 80 61 00
        E 0 80 63 00
        E 240 90 60 60
        E 0 90 62 60
        E 0 90 54 60
        E 0 90 56 60
        E 0 90 48 60
        E 0 90 4a 60
        E 120 80 60 00
        E 0 80 62 00
        E 0 80 54 00
        E 0 80 56 00
        E 0 80 48 00
        E 0 80 4a 00
        E 360 90 60 60
        E 0 90 62 60
        E 0 90 54 60
        E 0 90 56 60
        E 0 90 48 60
        E 0 90 4a 60
        E 120 80 60 00
        E 0 80 62 00
        E 0 80 54 00
        E 0 80 56 00
        E 0 80 48 00
        E 0 80 4a 00
        E 120 90 60 60
        E 0 90 62 60
        E 0 90 54 60
        E 0 90 56 60
        E 0 90 48 60
        E 0 90 4a 60
        E 0 90 3c 60
        E 120 80 60 00
        E 0 80 62 00
        E 0 80 54 00
        E 0 80 56 00
        E 0 80 48 00
        E 0 80 4a 00
        E 0 80 3c 00
        E 120 90 60 60
        E 0 90 62 60
        E 0 90 54 60
        E 0 90 56 60
        E 120 80 60 00
        E 0 80 62 00
        E 0 80 54 00
        E 0 80 56 00
        E 120 90 60 60
        E 0 90 54 60
        E 0 90 48 60
        E 0 90 3c 60
        E 120 80 60 00
        E 0 80 54 00
        E 0 80 48 00
        E 0 90 60 60
        E 0 80 3c 00
        E 120 80 60 00
        E 0 90 60 60
        E 0 90 54 60
        E 0 90 48 60
        E 120 80 60 00
        E 0 80 54 00
        E 0 80 48 00
        E 0 90 61 60
        E 0 90 63 60
        E 120 80 61 00
        E 0 80 63 00
        E 240 90 60 60
        E 0 90 62 60
        E 0 90 54 60
        E 0 90 56 60
        E 0 90 48 60
        E 0 90 4a 60
        E 120 80 60 00
        E 0 80 62 00
        E 0 80 54 00
        E 0 80 56 00
        E 0 80 48 00
        E 0 80 4a 00
        E 360 90 60 60
        E 0 90 62 60
        E 0 90 54 60
        E 0 90 56 60
        E 0 90 48 60
        E 0 90 4a 60
        E 120 80 60 00
        E 0 80 62 00
        E 0 80 54 00
        E 0 80 56 00
        E 0 80 48 00
        E 0 80 4a 00
        E 120 90 60 60
        E 0 90 62 60
        E 0 90 54 60
        E 0 90 56 60
        E 0 90 48 60
        E 0 90 4a 60
        E 0 90 3c 60
        E 120 80 60 00
        E 0 80 62 00
        E 0 80 54 00
        E 0 80 56 00
        E 0 80 48 00
        E 0 80 4a 00
        E 0 80 3c 00
        E 120 90 60 60
        E 0 90 62 60
        E 0 90 54 60
        E 0 90 56 60
        E 120 80 60 00
        E 0 80 62 00
        E 0 80 54 00
        E 0 80 56 00
        E 120 90 60 60
        E 0 90 54 60
        E 0 90 48 60
        E 0 90 3c 60
        E 120 80 60 00
        E 0 80 54 00
        E 0 80 48 00
        E 0 90 60 60
        E 0 80 3c 00
        E 120 80 60 00
        E 0 90 60 60
        E 0 90 54 60
        E 0 90 48 60
        E 120 80 60 00
        E 0 80 54 00
        E 0 80 48 00
        E 0 90 62 60
        E 0 90 63 60
        E 120 80 62 00
        E 0 80 63 00
        E 240 90 61 60
        E 0 90 62 60
        E 0 90 55 60
        E 0 90 56 60
        E 0 90 49 60
        E 0 90 4a 60
        E 120 80 61 00
        E 0 80 62 00
        E 0 80 55 00
        E 0 80 56 00
        E 0 80 49 00
        E 0 80 4a 00
        E 360 90 61 60
        E 0 90 62 60
        E 0 90 55 60
        E 0 90 56 60
        E 0 90 49 60
        E 0 90 4a 60
        E 120 80 61 00
        E 0 80 62 00
        E 0 80 55 00
        E 0 80 56 00
        E 0 80 49 00
        E 0 80 4a 00
        E 120 90 61 60
        E 0 90 62 60
        E 0 90 55 60
        E 0 90 56 60
        E 0 90 49 60
        E 0 90 4a 60
        E 120 80 61 00
        E 0 80 62 00
        E 0 80 55 00
        E 0 80 56 00
        E 0 80 49 00
        E 0 80 4a 00
        E 120 90 61 60
        E 0 90 62 60
        E 0 90 55 60
        E 0 90 56 60
        E 120 80 61 00
        E 0 80 62 00
        E 0 80 55 00
        E 0 80 56 00
        E 120 90 60 60
        E 0 90 54 60
        E 0 90 48 60
        E 0 90 3c 60
        E 120 80 60 00
        E 0 80 54 00
        E 0 80 48 00
        E 0 90 60 60
        E 0 80 3c 00
        E 120 80 60 00
        E 0 90 60 60
        E 0 90 54 60
        E 0 90 48 60
        E 120 80 60 00
        E 0 80 54 00
        E 0 80 48 00
        E 0 90 62 60
        E 0 90 63 60
        E 120 80 62 00
        E 0 80 63 00
        E 240 90 61 60
        E 0 90 62 60
        E 0 90 55 60
        E 0 90 56 60
        E 0 90 49 60
        E 0 90 4a 60
        E 120 80 61 00
        E 0 80 62 00
        E 0 80 55 00
        E 0 80 56 00
        E 0 80 49 00
        E 0 80 4a 00
        E 360 90 61 60
        E 0 90 62 60
        E 0 90 55 60
        E 0 90 56 60
        E 0 90 49 60
        E 0 90 4a 60
        E 120 80 61 00
        E 0 80 62 00
        E 0 80 55 00
        E 0 80 56 00
        E 0 80 49 00
        E 0 80 4a 00
        E 120 90 61 60
        E 0 90 62 60
        E 0 90 55 60
        E 0 90 56 60
        E 0 90 49 60
        E 0 90 4a 60
        E 0 90 3d 60
        E 120 80 61 00
        E 0 80 62 00
        E 0 80 55 00
        E 0 80 56 00
        E 0 80 49 00
        E 0 80 4a 00
        E 0 80 3d 00
        E 120 90 61 60
        E 0 90 62 60
        E 0 90 55 60
        E 0 90 56 60
        E 120 80 61 00
        E 0 80 62 00
        E 0 80 55 00
        E 0 80 56 00
        E 120 90 61 60
        E 0 90 55 60
        E 0 90 49 60
        E 0 90 3d 60
        E 120 80 61 00
        E 0 80 55 00
        E 0 80 49 00
        E 0 80 3d 00
        E 240 90 60 60
        E 0 90 54 60
        E 120 80 60 00
        E 0 80 54 00
        E 240 90 61 60
        E 0 90 55 60
        E 0 90 49 60
        E 120 80 61 00
        E 0 80 55 00
        E 0 80 49 00
        E 120 90 61 60
        E 0 90 55 60
        E 0 90 49 60
        E 0 90 3d 60
        E 120 80 61 00
        E 0 80 55 00
        E 0 80 49 00
        E 0 80 3d 00
        E 240 90 60 60
        E 0 90 54 60
        E 120 80 60 00
        E 0 80 54 00
        E 240 90 61 60
        E 0 90 55 60
        E 0 90 49 60
        E 120 80 61 00
        E 0 80 55 00
        E 0 80 49 00
        E 120 90 61 60
        E 0 90 55 60
        E 0 90 49 60
        E 0 90 3d 60
        E 120 80 61 00
        E 0 80 55 00
        E 0 80 49 00
        E 0 80 3d 00
        E 240 90 62 60
        E 0 90 56 60
        E 120 80 62 00
        E 0 80 56 00
        E 240 90 63 60
        E 0 90 57 60
        E 0 90 4b 60
        E 120 80 57 00
        E 0 80 4b 00
        E 360 80 63 00
        E 0 90 63 60
        E 0 90 57 60
        E 0 90 4b 60
        E 120 80 63 00
        E 0 80 57 00
        E 0 80 4b 00
        E 120 90 63 60
        E 0 90 57 60
        E 0 90 4b 60
        E 120 80 63 00
        E 0 80 57 00
        E 0 80 4b 00
        E 120 90 63 60
        E 0 90 57 60
        E 120 80 63 00
        E 0 80 57 00
        E 120 90 61 60
        E 0 90 55 60
        E 0 90 49 60
        E 0 90 3d 60
        E 120 80 61 00
        E 0 80 55 00
        E 0 80 49 00
        E 0 80 3d 00
        E 240 90 60 60
        E 0 90 54 60
        E 120 80 60 00
        E 0 80 54 00
        E 240 90 61 60
        E 0 90 55 60
        E 0 90 49 60
        E 120 80 61 00
        E 0 80 55 00
        E 0 80 49 00
        E 120 90 61 60
        E 0 90 55 60
        E 0 90 49 60
        E 0 90 3d 60
        E 120 80 61 00
        E 0 80 55 00
        E 0 80 49 00
        E 0 80 3d 00
        E 240 90 60 60
        E 0 90 54 60
        E 120 80 60 00
        E 0 80 54 00
        E 240 90 61 60
        E 0 90 55 60
        E 0 90 49 60
        E 120 80 61 00
        E 0 80 55 00
        E 0 80 49 00
        E 120 90 61 60
        E 0 90 55 60
        E 0 90 49 60
        E 0 90 3d 60
        E 120 80 61 00
        E 0 80 55 00
        E 0 80 49 00
        E 0 80 3d 00
        E 240 90 62 60
        E 0 90 56 60
        E 120 80 62 00
        E 0 80 56 00
        E 240 90 63 60
        E 0 90 57 60
        E 0 90 4b 60
        E 120 80 57 00
        E 0 80 4b 00
        E 360 80 63 00
        E 0 90 63 60
        E 0 90 57 60
        E 0 90 4b 60
        E 120 80 63 00
        E 0 80 57 00
        E 0 80 4b 00
        E 120 90 63 60
        E 0 90 57 60
        E 0 90 4b 60
        E 120 80 63 00
        E 0 80 57 00
        E 0 80 4b 00
        E 120 90 63 60
        E 0 90 57 60
        E 120 80 63 00
        E 0 80 57 00
        E 120 90 61 60
        E 0 90 55 60
        E 0 90 49 60
        E 0 90 3d 60
        E 120 80 61 00
        E 0 80 55 00
        E 0 80 49 00
        E 0 80 3d 00
        E 240 90 62 60
        E 0 90 56 60
        E 120 80 62 00
        E 0 80 56 00
        E 240 90 63 60
        E 0 90 57 60
        E 0 90 4b 60
        E 120 80 57 00
        E 0 80 4b 00
        E 360 80 63 00
        E 0 90 63 60
        E 0 90 57 60
        E 0 90 4b 60
        E 120 80 63 00
        E 0 80 57 00
        E 0 80 4b 00
        E 120 90 63 60
        E 0 90 57 60
        E 0 90 4b 60
        E 120 80 63 00
        E 0 80 57 00
        E 0 80 4b 00
        E 120 90 63 60
        E 0 90 57 60
        E 120 80 63 00
        E 0 80 57 00
        E 120 90 61 60
        E 0 90 55 60
        E 0 90 49 60
        E 0 90 3d 60
        E 120 80 61 00
        E 0 80 55 00
        E 0 80 49 00
        E 0 80 3d 00
        E 240 90 62 60
        E 0 90 56 60
        E 120 80 62 00
        E 0 80 56 00
        E 240 90 63 60
        E 0 90 57 60
        E 0 90 4b 60
        E 120 80 57 00
        E 0 80 4b 00
        E 360 80 63 00
        E 0 90 63 60
        E 0 90 57 60
        E 0 90 4b 60
        E 120 80 63 00
        E 0 80 57 00
        E 0 80 4b 00
        E 120 90 63 60
        E 0 90 57 60
        E 0 90 4b 60
        E 120 80 63 00
        E 0 80 57 00
        E 0 80 4b 00
        E 120 90 63 60
        E 0 90 57 60
        E 120 80 63 00
        E 0 80 57 00
        E 120 90 61 60
        E 0 90 55 60
        E 0 90 49 60
        E 0 90 3d 60
        E 120 80 61 00
        E 0 80 55 00
        E 0 80 49 00
        E 0 80 3d 00
        E 240 90 62 60
        E 0 90 56 60
        E 120 80 62 00
        E 0 80 56 00
        E 240 90 64 60
        E 0 90 58 60
        E 0 90 4b 60
        E 120 80 58 00
        E 0 80 4b 00
        E 360 80 64 00
        E 0 90 64 60
        E 0 90 58 60
        E 0 90 4b 60
        E 120 80 64 00
        E 0 80 58 00
        E 0 80 4b 00
        E 120 90 64 60
        E 0 90 58 60
        E 0 90 4b 60
        E 120 80 64 00
        E 0 80 58 00
        E 0 80 4b 00
        E 120 90 64 60
        E 0 90 58 60
        E 120 80 64 00
        E 0 80 58 00
        E 120 90 61 60
        E 0 90 55 60
        E 0 90 49 60
        E 0 90 3d 60
        E 120 80 61 00
        E 0 80 55 00
        E 0 80 49 00
        E 0 80 3d 00
        E 240 90 62 60
        E 0 90 56 60
        E 120 80 62 00
        E 0 80 56 00
        E 240 90 64 60
        E 0 90 58 60
        E 0 90 4b 60
        E 120 80 58 00
        E 0 80 4b 00
        E 360 80 64 00
        E 0 90 64 60
        E 0 90 58 60
        E 0 90 4b 60
        E 120 80 64 00
        E 0 80 58 00
        E 0 80 4b 00
        E 120 90 64 60
        E 0 90 58 60
        E 0 90 4b 60
        E 0 90 3e 60
        E 120 80 64 00
        E 0 80 58 00
        E 0 80 4b 00
        E 0 80 3e 00
        E 120 90 64 60
        E 0 90 58 60
        E 0 90 4b 60
        E 120 80 64 00
        E 0 80 58 00
        E 0 80 4b 00
        E 120 90 64 60
        E 0 90 58 60
        E 0 90 4b 60
        E 0 90 3e 60
        E 120 80 64 00
        E 0 80 58 00
        E 0 80 4b 00
        E 0 80 3e 00
        E 120 90 63 60
        E 0 90 57 60
        E 120 80 63 00
        E 0 80 57 00
        E 120 90 62 60
        E 0 90 56 60
        E 0 90 4a 60
        E 0 90 3e 60
        E 120 80 62 00
        E 0 80 56 00
        E 0 80 4a 00
        E 0 80 3e 00
        E 120 90 61 60
        E 0 90 55 60
        E 120 80 61 00
        E 0 80 55 00
        E 120 90 63 60
        E 0 90 57 60
        E 0 90 4b 60
        E 0 90 3e 60
        E 120 80 63 00
        E 0 80 57 00
        E 0 80 4b 00
        E 0 80 3e 00
        E 120 90 62 60
        E 0 90 56 60
        E 120 80 62 00
        E 0 80 56 00
        E 120 90 61 60
        E 0 90 55 60
        E 0 90 49 60
        E 120 80 61 00
        E 0 80 55 00
        E 0 80 49 00
        E 120 90 60 60
        E 0 90 54 60
        E 120 80 60 00
        E 0 80 54 00
        E 120 90 64 60
        E 0 90 58 60
        E 0 90 4b 60
        E 0 90 3e 60
        E 120 80 64 00
        E 0 80 58 00
        E 0 80 4b 00
        E 0 80 3e 00
        E 120 90 63 60
        E 0 90 57 60
        E 120 80 63 00
        E 0 80 57 00
        E 120 90 62 60
        E 0 90 56 60
        E 0 90 4a 60
        E 0 90 3e 60
        E 120 80 62 00
        E 0 80 56 00
        E 0 80 4a 00
        E 0 80 3e 00
        E 120 90 61 60
        E 0 90 55 60
        E 120 80 61 00
        E 0 80 55 00
        E 120 90 63 60
        E 0 90 57 60
        E 0 90 4b 60
        E 0 90 3e 60
        E 120 80 63 00
        E 0 80 57 00
        E 0 80 4b 00
        E 0 80 3e 00
        E 120 90 62 60
        E 0 90 56 60
        E 120 80 62 00
        E 0 80 56 00
        E 120 90 61 60
        E 0 90 55 60
        E 0 90 49 60
        E 120 80 61 00
        E 0 80 55 00
        E 0 80 49 00
        E 120 90 60 60
        E 0 90 54 60
        E 120 80 60 00
        E 0 80 54 00
        E 120 90 60 60
        E 0 90 62 60
        E 0 90 54 60
        E 0 90 56 60
        E 0 90 48 60
        E 0 90 4a 60
        E 0 90 3c 60
        <X 120 0
          /wFbaWRsZV0=
        >
        E 0 80 60 00
        E 0 80 62 00
        E 0 80 54 00
        E 0 80 56 00
        E 0 80 48 00
        E 0 80 4a 00
        E 0 80 3c 00
        E 2760 b0 7b 00
        GUID {14D9E950-FB92-4048-8603-8FD02AE3B865}
        IGNTEMPO 0 120.00000000 4 4
        SRCCOLOR 1474
        VELLANE 132 38 60
        COLORMAP "C:\Program Files (x86)\REAPER\Data\color_maps\rockband_guitarbass.png"
        BANKPROGRAMFILE "C:\Users\AJFOne23\AppData\Roaming\REAPER/Data/GM.reabank"
        TEXTSTRINGFILE "Text Events List.txt"
        CFGEDITVIEW -74886.933330 3.525315 16 12 0 0 0
        CFGEDIT 1 1 0 0 0 1 1 1 1 1 1 0.12500000 -8 -8 1370 736 1 2 1 2 0.00000000 0 0 0 0 0.500000 1 0 1.000000 64
        KEYSNAP 0 0 "102034050607" 0 "Major"
        EVTFILTER 0 -1 -1 -1 -1 0 1 0 0 -1.00000000 -1.00000000
      >
    >
  >
  <TRACK '{C298A11E-8E06-44B8-AA31-429ECCE3F0AF}'
    NAME "PART VOCALS"
    PEAKCOL 16810239
    BEAT -1
    AUTOMODE 0
    VOLPAN 1.00000000000000 0.00000000000000 -1.00000000000000 -1.00000000000000 1.00000000000000
    MUTESOLO 1 0 0
    IPHASE 0
    ISBUS 0 0
    BUSCOMP 1 0
    SHOWINMIX 1 0.666700 0.500000 1 0.500000 -1 -1 -1
    FREEMODE 0
    SEL 0
    REC 0 4096 1 7 0 0 0
    TRACKHEIGHT 71 0
    INQ 0 0 0 0.5000000000 100 0 0 100
    NCHAN 2
    FX 1
    TRACKID {C298A11E-8E06-44B8-AA31-429ECCE3F0AF}
    PERF 0
    MIDIOUT -1
    <MIDINOTENAMES
      0 105 "Phrase Marker"
      0 84 "C5"
      0 36 "C1"
      0 83 "B"
      0 82 "Bb"
      0 81 "A"
      0 80 "G#"
      0 79 "G"
      0 78 "F#"
      0 77 "F"
      0 76 "E"
      0 75 "Eb"
      0 74 "D"
      0 73 "C#"
      0 72 "C4"
      0 71 "B"
      0 70 "Bb"
      0 69 "A"
      0 68 "G#"
      0 67 "G"
      0 66 "F#"
      0 65 "F"
      0 64 "E"
      0 63 "Eb"
      0 62 "D"
      0 61 "C#"
      0 60 "C3"
      0 59 "B"
      0 58 "Bb"
      0 57 "A"
      0 56 "G#"
      0 55 "G"
      0 54 "F#"
      0 53 "F"
      0 52 "E"
      0 51 "Eb"
      0 50 "D"
      0 49 "C#"
      0 48 "C2"
      0 47 "B"
      0 46 "Bb"
      0 45 "A"
      0 44 "G#"
      0 43 "G"
      0 42 "F#"
      0 41 "F"
      0 40 "E"
      0 39 "Eb"
      0 38 "D"
      0 37 "C#"
      0 97 "Not Displayed Percussion"
      0 96 "Displayed Percussion"
      0 104 "----"
      0 95 "----"
      0 116 "OVERDRIVE"
      0 115 "----"
      0 0 "Range Shift"
      0 1 "Lyric Shift"
    >
    MAINSEND 1 0
    <FXCHAIN
      WNDRECT 581 377 716 493
      SHOW 0
      LASTSEL 1
      DOCKED 0
      BYPASS 0 0
      <JS "IX/MIDI_Tool II" ""
        0.000000 85.000000 127.000000 0.000000 0.000000 0.000000 100.000000 0.000000 0.000000 127.000000 0.000000 0.000000 1.000000 0.000000 0.000000 - - - - - - - - - - - - - - - - - - - - - - - - - - - - - - - - - - - - - - - - - - - - - - - - - 
      >
      FLOATPOS 0 0 0 0
      FXID {CA785021-0433-497E-9A6C-EE23A1BC21B0}
      WAK 0
      BYPASS 0 0
      <VST "VSTi: ReaSynth (Cockos)" "reasynth.dll" 0 ""
        eXNlcu9e7f4AAAAAAgAAAAEAAAAAAAAAAgAAAAAAAAA4AAAAAAAAAA==
        AAAAAO++rd4N8K3eppvEOxe30TqcxKA+c2jRPgAAAADMm4A+6WeIPQ==
        AAAAAAAAAD8AAIA/6SaxPgAAAD8AAAAAAAA=
      >
      FLOATPOS 32 32 338 405
      FXID {F124DD19-73B4-4CD5-B659-E246F2A3D0B3}
      WAK 0
    >
    <ITEM
      POSITION 0.00000000000000
      SNAPOFFS 0.00000000000000
      LENGTH 222.65545518333326
      LOOP 0
      ALLTAKES 0
      SEL 0
      FADEIN 1 0.000000 0.000000 1 0
      FADEOUT 1 0.000000 0.000000 1 0
      MUTE 0
      IGUID {9C9617EC-369A-41B9-80F6-31F4222F13F6}
      IID 14
      NAME "PART VOCALS"
      VOLPAN 1.000000 0.000000 1.000000 -1.000000
      SOFFS 0.00000000000000 0.00000000000000
      PLAYRATE 1.00000000000000 1 0.00000000000000 -65536
      CHANMODE 0
      GUID {8E872349-00D8-4243-95D7-0B92852E4EE5}
      <SOURCE MIDI
        HASDATA 1 480 QN
        POOLEDEVTS {2DBCABEA-A654-4847-920C-491C2E33AE39}
        <X 0 0
          /wNQQVJUIFZPQ0FMUw==
        >
        <X 5760 0
          /wFbaWRsZV0=
        >
        <X 1937 0
          /wFbcGxheV0=
        >
        E 305864 b0 7b 00
        GUID {C9A1A4CA-4224-4672-91C0-075BEB2A8650}
        IGNTEMPO 0 120.00000000 4 4
        SRCCOLOR 1475
        VELLANE 132 128 128
        COLORMAP "C:\Users\me\AppData\Roaming\REAPER\Data\color_maps\rockband_vox-other.png"
        BANKPROGRAMFILE "C:\Users\AJFOne23\AppData\Roaming\REAPER/Data/GM.reabank"
        TEXTSTRINGFILE "Text Events List.txt"
        CFGEDITVIEW -2125.170558 82.395269 0 12 0 0 0
        CFGEDIT 1 1 0 0 1 1 1 1 1 1 1 0.06250000 75 0 1611 691 1 2 1 2 0.00000000 0 0 0 0 0.500000 1 0 1.000000 64
        KEYSNAP 0 0 "102034050607" 0 "Major"
        EVTFILTER 0 -1 -1 -1 -1 0 1 0 0 -1.00000000 -1.00000000
      >
    >
  >
  <TRACK '{4A30D2A4-111B-40E3-8633-0926E85E641C}'
    NAME "DRYVOX1"
    PEAKCOL 16576
    BEAT -1
    AUTOMODE 0
    VOLPAN 0.44940789108181 0.00000000000000 -1.00000000000000 -1.00000000000000 1.00000000000000
    MUTESOLO 1 0 0
    IPHASE 0
    ISBUS 0 0
    BUSCOMP 0 0
    SHOWINMIX 1 0.666700 0.500000 1 0.500000 -1 -1 -1
    FREEMODE 0
    SEL 0
    REC 0 0 0 0 0 0 0
    TRACKHEIGHT 64 0
    INQ 0 0 0 0.5000000000 100 0 0 100
    NCHAN 2
    FX 1
    TRACKID {4A30D2A4-111B-40E3-8633-0926E85E641C}
    PERF 0
    MIDIOUT -1
    MAINSEND 1 0
    <FXCHAIN
      SHOW 0
      LASTSEL 0
      DOCKED 0
      BYPASS 0 0
      <VST "VST: ReaGate (Cockos)" "reagate.dll" 0 ""
        dGdlcu9e7f4EAAAAAQAAAAAAAAACAAAAAAAAAAQAAAAAAAAACAAAAA==
        AAAAAAIAAAABAAAAAAAAAAIAAAAAAAAAVAAAAAAAAAAAABAA776t3g==
        DfCt3pzRBzOmm8Q7CtejPAAAAAAAAAAAAACAPwAAAAAAAAAAAAAAAA==
        nNEHMx5Ucz+c0QczAACAPwAAAAAAAAAAAAAAACwWCz8AAAAAAAAAAA==
        AAAQAAAA
      >
      FLOATPOS 859 184 511 385
      FXID {BF545B5B-7DD0-4B4C-AC52-F095A552DA08}
      WAK 0
    >
  >
>
