<REAPER_PROJECT 0.1 "5.211/OSX" 1468020297
  RIPPLE 0
  GROUPOVERRIDE 0 0 0
  AUTOXFADE 1
  ENVATTACH 1
  MIXERUIFLAGS 11 48
  PEAKGAIN 1
  FEEDBACK 0
  PANLAW 1
  PROJOFFS 0 0
  MAXPROJLEN 0 600
  GRID 1151 8 1 8 1 0 0
  TIMEMODE 1 0 -1 24 2
  CURSOR 60.45390731404486
  ZOOM 4.58569307747392 0 0
  VZOOMEX 0
  USE_REC_CFG 0
  RECMODE 1
  SMPTESYNC 0 30 100 40 1000 300 0 0 0
  MIDIEDITOR 12288
  LOOP 0
  LOOPGRAN 0 4
  RECORD_PATH "" ""
  <RECORD_CFG
    ZXZhdxgA
  >
  <APPLYFX_CFG
  >
  RENDER_FILE "C:\Users\AJFOne23\Downloads\RB3\Metal\Mastodon\2002 Remission\Crusher Destroyer/Crusher Destroyer-FINAL.wav"
  RENDER_FMT 0 2 44100
  RENDER_1X 0
  RENDER_RANGE 1 0 0 18 1000
  RENDER_RESAMPLE 3 0 1
  RENDER_ADDTOPROJ 0
  RENDER_STEMS 0
  RENDER_DITHER 0
  TIMELOCKMODE 0
  TEMPOENVLOCKMODE 1
  ITEMMIX 0
  DEFPITCHMODE 0
  TAKELANE 1
  SAMPLERATE 44100 0 0
  <RENDER_CFG
    ZXZhdxAA
  >
  LOCK 1
  <METRONOME 6 2
    VOL 1 0.96171
    FREQ 800 1600 0
    BEATLEN 4
    SAMPLES "" ""
    PATTERN 2863311530 2863311529
  >
  GLOBAL_AUTO -1
  TEMPO 120 4 4
  PLAYRATE 1 0 0.25 4
  SELECTION 0 0
  SELECTION2 0 0
  MASTERAUTOMODE 0
  MASTERTRACKHEIGHT 0
  MASTERPEAKCOL 16576
  MASTERMUTESOLO 0
  MASTERTRACKVIEW 1 0.6667 0.5 0.5 0 0 0
  MASTERHWOUT 0 0 1 0 0 0 0 -1
  MASTER_NCH 2 2
  MASTER_VOLUME 1 0 -1 -1 1
  MASTER_FX 1
  MASTER_SEL 0
  <MASTERFXLIST
    SHOW 0
    LASTSEL 0
    DOCKED 0
    BYPASS 0 0 0
    <VST "VST: W1 Limiter (George Yohng)" "George Yohng's W1 Limiter.dll" 0 "" ""
      THdGNO5e7f4CAAAAAQAAAAAAAAACAAAAAAAAAAIAAAABAAAAAAAAAAIAAAAAAAAATAAAAAEAAAAAABAADAAAgXRocmVzaAAA/tR4PwwAAIFjZWlsaW5nAP7UeD8MAACB
      cmVsZWFzZQAwQB8/FAAAgWFkYXB0UmVsZWFzZQAAAAAAAAAAAAAAgAAAEAAAAA==
    >
    FLOATPOS 24 24 481 152
    FXID {69D45D23-FE06-4141-B0BB-1A6D9443AFA8}
    WAK 0
  >
  <MASTERPLAYSPEEDENV
    ACT 0
    VIS 0 1 1
    LANEHEIGHT 0 0
    ARM 0
    DEFSHAPE 0 -1 -1
  >
  <TEMPOENVEX
    ACT 1
    VIS 1 0 1
    LANEHEIGHT 0 0
    ARM 0
    DEFSHAPE 1 -1 -1
    PT 0.000000000000 200.0000000000 1 262147 0 1
    PT 3.900000000000 194.0000000000 1
    PT 4.518556701031 193.0000000000 1
    PT 5.451199188078 196.0000000000 1
    PT 5.757321637057 205.0000000000 1
    PT 6.050004563886 192.0000000000 1
    PT 6.362504563886 194.0000000000 1
    PT 7.294309440613 192.0000000000 1
    PT 7.919309440613 197.0000000000 1
    PT 8.223877968532 199.0000000000 1
    PT 9.128400581598 196.0000000000 1
    PT 10.046767928536 198.0000000000 1
    PT 10.955858837627 194.0000000000 1
    PT 11.570445713478 191.0000000000 1
    PT 11.884581839132 186.0000000000 1
    PT 12.207162484293 197.0000000000 1
    PT 12.511731012212 194.0000000000 1
    PT 13.439700512751 204.0000000000 1
    PT 13.733690301454 198.0000000000 1
    PT 14.188363614356 196.0000000000 1
    PT 14.953540573772 194.0000000000 1
    PT 15.262818916841 202.0000000000 1
    PT 15.556821888755 193.0000000000 1
    PT 15.712262303262 190.0000000000 1
    PT 15.873374940725 186.0000000000 1
    PT 16.034367018858 205.0000000000 1
    PT 16.473662011382 188.0000000000 1
    PT 16.792810947552 196.0000000000 1
    PT 17.098933396531 197.0000000000 1
    PT 17.708070452369 198.0000000000 1
    PT 18.011100755399 204.0000000000 1
    PT 18.305218402458 188.0000000000 1
    PT 18.783941806713 198.0000000000 1
    PT 18.935456958229 199.0000000000 1
    PT 19.236964495917 193.0000000000 1
    PT 19.703285739440 195.0000000000 1
    PT 20.164824200979 201.0000000000 1
    PT 21.060346589038 198.0000000000 1
    PT 22.878528407220 193.0000000000 1
    PT 23.811170894267 197.0000000000 1
    PT 24.724876478023 202.0000000000 1
    PT 25.170421032479 195.0000000000 1
    PT 25.939651801709 200.0000000000 1
    PT 26.239651801709 203.0000000000 1
    PT 26.535218304172 194.0000000000 1
    PT 27.772331706234 186.0000000000 1
    PT 28.901363964299 194.0000000000 1
    PT 29.210642314814 196.0000000000 1
    PT 29.669825988284 189.0000000000 1
    PT 29.987286305744 194.0000000000 1
    PT 30.296564656259 197.0000000000 1
    PT 30.753417448138 204.0000000000 1
    PT 31.488711565785 197.0000000000 1
    PT 31.793280093703 200.0000000000 1
    PT 32.093280093703 196.0000000000 1
    PT 32.552463767173 203.0000000000 1
    PT 32.995813520867 198.0000000000 1
    PT 33.904904429958 192.0000000000 1
    PT 35.154904429958 199.0000000000 1
    PT 35.757919505335 197.0000000000 1
    PT 36.976193617010 198.0000000000 1
    PT 37.582254223071 193.0000000000 1
    PT 38.048575466594 197.0000000000 1
    PT 38.505428258472 201.0000000000 1
    PT 39.400950646532 196.0000000000 1
    PT 39.860134320002 207.0000000000 1
    PT 40.874627073625 188.0000000000 1
    PT 41.193776009795 194.0000000000 1
    PT 42.121611061341 196.0000000000 1
    PT 45.335896775627 204.0000000000 1
    PT 45.777073246215 196.0000000000 1
    PT 47.154624266623 204.0000000000 1
    PT 47.595800737212 194.0000000000 1
    PT 48.523635788758 200.0000000000 1
    PT 50.773635788758 203.0000000000 1
    PT 51.216985542453 191.0000000000 1
    PT 51.845257793762 204.0000000000 1
    PT 52.139375440820 196.0000000000 1
    PT 54.435293808167 202.0000000000 1
    PT 54.880838362623 200.0000000000 1
    PT 55.780838362623 197.0000000000 1
    PT 57.608249530135 203.0000000000 1
    PT 58.494949037525 193.0000000000 1
    PT 59.427591524571 190.0000000000 1 262148 0 1
    PT 60.690749419308 194.0000000000 1
    PT 65.639203027555 190.0000000000 1
    PT 66.112887238082 197.0000000000 1
    PT 66.569740029960 194.0000000000 1
    PT 69.662523535115 190.0000000000 1
    PT 70.294102482483 195.0000000000 1
    PT 70.909487097868 193.0000000000 1
    PT 72.308450828438 196.0000000000 1
    PT 73.532940624356 199.0000000000 1
    PT 74.286709468577 194.0000000000 1
    PT 75.214544520123 192.0000000000 1
    PT 77.245794520123 190.0000000000 1
    PT 77.719478730650 196.0000000000 1
    PT 78.943968526568 206.0000000000 1
    PT 79.235230662490 194.0000000000 1
    PT 81.709457466614 184.0000000000 1
    PT 82.687718336179 196.0000000000 1
    PT 83.912208132098 206.0000000000 1
    PT 84.203470268020 196.0000000000 1
    PT 85.427960063938 191.0000000000 1
    PT 86.056232315247 193.0000000000 1
    PT 86.677993973278 193.0000000000 1 262147 0 1
    PT 88.232398118356 197.0000000000 1
    PT 90.364377813788 191.0000000000 1
    PT 92.249194567714 199.0000000000 1
    PT 94.661254869222 196.0000000000 1
    PT 95.885744665140 199.0000000000 1
    PT 96.338005971673 195.0000000000 1
    PT 97.722621356288 200.0000000000 1
    PT 98.622621356288 202.0000000000 1
    PT 100.107769871140 204.0000000000 1
    PT 101.284240459375 191.0000000000 1
    PT 102.540784961993 195.0000000000 1
    PT 102.848477269685 200.0000000000 1
    PT 103.148477269685 205.0000000000 1
    PT 103.587501659929 202.0000000000 1
    PT 104.924135323295 194.0000000000 1
    PT 106.161248725357 206.0000000000 1
    PT 106.743772997202 190.0000000000 1
    PT 107.217457207728 202.0000000000 1
    PT 108.554090871095 186.0000000000 1
    PT 109.037961838837 198.0000000000 1
    PT 109.492507293382 203.0000000000 1
    PT 110.379206800771 190.0000000000 1
    PT 111.326575221824 196.0000000000 1
    PT 112.244942568763 200.0000000000 1
    PT 113.144942568763 197.0000000000 1
    PT 114.058648152519 186.0000000000 1
    PT 114.542519120261 200.0000000000 1
    PT 115.892519120261 186.0000000000 1
    PT 116.376390088003 196.0000000000 1
    PT 117.753941108411 194.0000000000 1
    PT 118.681776159957 186.0000000000 1
  >
  <PROJBAY
  >
  <TRACK {4D889F49-FE1F-4D1D-9FB8-BFD5BA06901A}
    NAME "SONG AUDIO"
    PEAKCOL 16576
    BEAT -1
    AUTOMODE 0
    VOLPAN 1 0 -1 -1 1
    MUTESOLO 0 0 0
    IPHASE 0
    ISBUS 0 0
    BUSCOMP 0 0
    SHOWINMIX 1 0.6667 0.5 1 0.5 0 0 0
    FREEMODE 0
    SEL 0
    REC 0 0 0 0 0 0 0
    TRACKHEIGHT 211 0
    INQ 0 0 0 0.5 100 0 0 100
    NCHAN 2
    FX 1
    TRACKID {4D889F49-FE1F-4D1D-9FB8-BFD5BA06901A}
    PERF 0
    MIDIOUT -1
    MAINSEND 1 0
    <FXCHAIN
      SHOW 0
      LASTSEL 0
      DOCKED 0
      BYPASS 0 0 0
      <VST "VST: W1 Limiter (George Yohng)" "George Yohng's W1 Limiter.dll" 0 "" ""
        THdGNO5e7f4CAAAAAQAAAAAAAAACAAAAAAAAAAIAAAABAAAAAAAAAAIAAAAAAAAATAAAAAEAAAAAABAADAAAgXRocmVzaAAA/tR4PwwAAIFjZWlsaW5nAP7UeD8MAACB
        cmVsZWFzZQAwQB8/FAAAgWFkYXB0UmVsZWFzZQAAAAAAAAAAAAAAgAAAEAAAAA==
      >
      FLOATPOS 24 24 481 152
      FXID {D32BE511-3942-4A83-B6D7-DF2FE763A2B4}
      WAK 0
    >
    <ITEM
      POSITION 0.9
      SNAPOFFS 0
      LENGTH 120.0945079259381
      LOOP 0
      ALLTAKES 0
      FADEIN 1 0 0 1 0 0
      FADEOUT 1 0 0 1 0 0
      MUTE 0
      SEL 0
      IGUID {774D09EA-C6F5-4E99-9DA0-756311740B10}
      IID 1
      NAME "Crusher Destroyer.ogg"
      VOLPAN 1 0 1 -1
      SOFFS -0.02618593047325
      PLAYRATE 1 1 0 -1 0 0.0025
      CHANMODE 0
      GUID {B2D7D161-552C-476E-B62F-B8E5364BD646}
      <SOURCE VORBIS
        FILE "Crusher Destroyer.ogg"
      >
    >
  >
  <TRACK {8F33A645-3DF2-48FA-99BC-10992A4F8042}
    NAME "PART DRUMS"
    PEAKCOL 16842751
    BEAT -1
    AUTOMODE 0
    VOLPAN 1 0 -1 -1 1
    MUTESOLO 0 0 0
    IPHASE 0
    ISBUS 0 0
    BUSCOMP 1 0
    SHOWINMIX 1 0.6667 0.5 1 0.5 0 0 0
    FREEMODE 0
    SEL 0
    REC 0 4096 1 7 0 0 0
    TRACKHEIGHT 57 0
    INQ 0 0 0 0.5 100 0 0 100
    NCHAN 2
    FX 1
    TRACKID {8F33A645-3DF2-48FA-99BC-10992A4F8042}
    PERF 0
    MIDIOUT -1
    <MIDINOTENAMES
      0 24 "KICK RF" 0 24
      0 25 "HI-HAT OPEN" 0 25
      0 26 "SNARE HARD LH" 0 26
      0 27 "SNARE HARD RH" 0 27
      0 28 "SNARE SOFT LH" 0 28
      0 29 "SNARE SOFT RH" 0 29
      0 30 "HI-HAT LH" 0 30
      0 31 "HI-HAT RH" 0 31
      0 32 "PERCUSSION RH" 0 32
      0 34 "CRASH1 HARD LH" 0 34
      0 35 "CRASH1 SOFT LH" 0 35
      0 36 "CRASH1 HARD RH" 0 36
      0 37 "CRASH1 SOFT RH" 0 37
      0 38 "CRASH2 HARD RH" 0 38
      0 39 "CRASH2 SOFT RH" 0 39
      0 40 "CRASH1 CHOKE" 0 40
      0 41 "CRASH2 CHOKE" 0 41
      0 42 "RIDE CYM RH" 0 42
      0 43 "RIDE CYM LH" 0 43
      0 44 "CRASH2 HARD LH" 0 44
      0 45 "CRASH2 SOFT LH" 0 45
      0 46 "TOM1 LH" 0 46
      0 47 "TOM1 RH" 0 47
      0 48 "TOM2 LH" 0 48
      0 49 "TOM2 RH" 0 49
      0 50 "FLOOR TOM LH" 0 50
      0 51 "FLOOR TOM RH" 0 51
      0 52 "--DRUM ANIMATION--" 0 52
      0 56 ---- 0 56
      0 60 "EASY Kick" 0 60
      0 61 "EASY Red" 0 61
      0 62 "EASY Yellow" 0 62
      0 63 "EASY Blue" 0 63
      0 64 "EASY Green" 0 64
      0 68 ---- 0 68
      0 72 "MEDIUM Kick" 0 72
      0 73 "MEDIUM Red" 0 73
      0 74 "MEDIUM Yellow" 0 74
      0 75 "MEDIUM Blue" 0 75
      0 76 "MEDIUM Green" 0 76
      0 80 ---- 0 80
      0 84 "HARD Kick" 0 84
      0 85 "HARD Red" 0 85
      0 86 "HARD Yellow" 0 86
      0 87 "HARD Blue" 0 87
      0 88 "HARD Green" 0 88
      0 92 ---- 0 92
      0 96 "EXPERT Kick" 0 96
      0 97 "EXPERT Red" 0 97
      0 98 "EXPERT Yellow" 0 98
      0 99 "EXPERT Blue" 0 99
      0 100 "EXPERT Green" 0 100
      0 101 " " 0 101
      0 102 ---- 0 102
      0 103 "Solo Marker" 0 103
      0 108 ---- 0 108
      0 110 "PRO Yellow Tom" 0 110
      0 111 "PRO Blue Tom" 0 111
      0 112 "PRO Green Tom" 0 112
      0 114 ---- 0 114
      0 116 OVERDRIVE 0 116
      0 118 ---- 0 118
      0 120 "DRUM FILL (use all 5)" 0 120
      0 121 "DRUM FILL" 0 121
      0 122 "DRUM FILL" 0 122
      0 123 "DRUM FILL" 0 123
      0 124 "DRUM FILL" 0 124
      0 125 ---- 0 125
      0 126 "Roll Marker 1-Lane" 0 126
      0 127 "Roll Marker 2-Lane / Cym" 0 127
    >
    MAINSEND 1 0
    <FXCHAIN
      WNDRECT 0 38 870 574
      SHOW 0
      LASTSEL 1
      DOCKED 0
      BYPASS 1 0 0
      <VST "VSTi: ReaSynth (Cockos)" reasynth.vst.dylib 0 "" 1919251321
        eXNlcu9e7f4AAAAAAgAAAAEAAAAAAAAAAgAAAAAAAAA8AAAAAAAAAAAAAAA=
        776t3g3wrd4AAAAAAAAAAAAAAAAAAAAAObRIPn3L2z61tLE5AAAAALbz/T5VpCs6AAAAAAAAAAAAAIA/
        AAAAAAAA
      >
      FLOATPOS 0 0 0 0
      FXID {58F55556-9407-4062-A048-6AFCC0B53535}
      WAK 0
      BYPASS 0 0 0
      <VST "VSTi: RBN Preview (RBN)" rbprev_vst.dll 0 "" ""
        dnBicu5e7f4AAAAAAgAAAAEAAAAAAAAAAgAAAAAAAAAEAAAAAQAAAAAAAAADAaoAAAAAAAAA
      >
      FLOATPOS 32 32 659 497
      FXID {D7126437-AB1E-4109-A0FA-F2D5D0AC68DC}
      WAK 0
    >
    <ITEM
      POSITION 0
      SNAPOFFS 0
      LENGTH 121.26242132124742
      LOOP 0
      ALLTAKES 0
      FADEIN 1 0 0 1 0 0
      FADEOUT 1 0 0 1 0 0
      MUTE 0
      COLOR 19150555 B
      SEL 0
      IGUID {9FF11F36-E94F-4396-9C0E-8449C916EC21}
      IID 2
      NAME "PART DRUMS"
      VOLPAN 1 0 1 -1
      SOFFS 0 0
      PLAYRATE 1 1 0 -65536 0 0.0025
      CHANMODE 0
      GUID {70A79ADF-E70C-430A-913F-E16D0CC85517}
      <SOURCE MIDI
        HASDATA 1 480 QN
        POOLEDEVTS {91D4B8AD-AAE8-4C46-9B23-8833E78CDB71}
        <X 0 0
          /wNQQVJUIERSVU1T
        >
        <X 300 0
          /wFbbWl4IDEgZHJ1bXMwXQ==
        >
        <X 0 0
          /wFbbWl4IDAgZHJ1bXMwXQ==
        >
        <X 60 0
          /wFbbWl4IDIgZHJ1bXMwXQ==
        >
        <X 60 0
          /wFbbWl4IDMgZHJ1bXMwXQ==
        >
        <X 2460 0
          /wFbaWRsZV0=
        >
        <X 5760 0
          /wFbcGxheV0=
        >
        E 960 90 1a 60
        E 0 90 1b 60
        E 0 90 3d 60
        E 0 90 49 60
        E 0 90 4a 60
        E 0 90 55 60
        E 0 90 56 60
        E 0 90 61 60
        E 0 90 62 60
        E 0 90 6e 60
        E 120 80 1a 00
        E 0 80 1b 00
        E 0 80 3d 00
        E 0 80 49 00
        E 0 80 4a 00
        E 0 80 55 00
        E 0 80 56 00
        E 0 80 61 00
        E 0 80 62 00
        E 0 80 6e 00
        E 360 90 18 60
        E 0 90 24 60
        E 0 90 40 60
        E 0 90 48 60
        E 0 90 4c 60
        E 0 90 54 60
        E 0 90 58 60
        E 0 90 60 60
        E 0 90 64 60
        E 120 80 18 00
        E 0 80 24 00
        E 0 80 40 00
        E 0 80 48 00
        E 0 80 4c 00
        E 0 80 54 00
        E 0 80 58 00
        E 0 80 60 00
        E 0 80 64 00
        E 120 90 18 60
        E 0 90 2a 60
        E 0 90 54 60
        E 0 90 57 60
        E 0 90 60 60
        E 0 90 63 60
        E 120 80 18 00
        E 0 80 2a 00
        E 0 80 54 00
        E 0 80 57 00
        E 0 80 60 00
        E 0 80 63 00
        E 120 90 18 60
        E 0 90 24 60
        E 0 90 40 60
        E 0 90 48 60
        E 0 90 4c 60
        E 0 90 54 60
        E 0 90 58 60
        E 0 90 60 60
        E 0 90 64 60
        E 120 80 18 00
        E 0 80 24 00
        E 0 80 40 00
        E 0 80 48 00
        E 0 80 4c 00
        E 0 80 54 00
        E 0 80 58 00
        E 0 80 60 00
        E 0 80 64 00
        E 120 90 1a 60
        E 0 90 55 60
        E 0 90 61 60
        E 120 80 1a 00
        E 0 80 55 00
        E 0 80 61 00
        E 120 90 24 60
        E 0 90 40 60
        E 0 90 4c 60
        E 0 90 58 60
        E 0 90 64 60
        E 120 80 24 00
        E 0 80 40 00
        E 0 80 4c 00
        E 0 80 58 00
        E 0 80 64 00
        E 120 90 18 60
        E 0 90 54 60
        E 0 90 60 60
        E 120 80 18 00
        E 0 80 54 00
        E 0 80 60 00
        E 120 90 1a 60
        E 0 90 24 60
        E 0 90 3d 60
        E 0 90 49 60
        E 0 90 4c 60
        E 0 90 55 60
        E 0 90 58 60
        E 0 90 61 60
        E 0 90 64 60
        E 120 80 1a 00
        E 0 80 24 00
        E 0 80 3d 00
        E 0 80 49 00
        E 0 80 4c 00
        E 0 80 55 00
        E 0 80 58 00
        E 0 80 61 00
        E 0 80 64 00
        E 120 90 18 60
        E 0 90 54 60
        E 0 90 60 60
        E 120 80 18 00
        E 0 80 54 00
        E 0 80 60 00
        E 120 90 1a 60
        E 0 90 24 60
        E 0 90 3d 60
        E 0 90 49 60
        E 0 90 4c 60
        E 0 90 55 60
        E 0 90 58 60
        E 0 90 61 60
        E 0 90 64 60
        E 120 80 1a 00
        E 0 80 24 00
        E 0 80 3d 00
        E 0 80 49 00
        E 0 80 4c 00
        E 0 80 55 00
        E 0 80 58 00
        E 0 80 61 00
        E 0 80 64 00
        E 120 90 18 60
        E 0 90 54 60
        E 0 90 60 60
        E 120 80 18 00
        E 0 80 54 00
        E 0 80 60 00
        E 120 90 1a 60
        E 0 90 24 60
        E 0 90 3d 60
        E 0 90 49 60
        E 0 90 4c 60
        E 0 90 55 60
        E 0 90 58 60
        E 0 90 61 60
        E 0 90 64 60
        E 120 80 1a 00
        E 0 80 24 00
        E 0 80 3d 00
        E 0 80 49 00
        E 0 80 4c 00
        E 0 80 55 00
        E 0 80 58 00
        E 0 80 61 00
        E 0 80 64 00
        E 360 90 18 60
        E 0 90 24 60
        E 0 90 40 60
        E 0 90 48 60
        E 0 90 4c 60
        E 0 90 54 60
        E 0 90 58 60
        E 0 90 60 60
        E 0 90 64 60
        E 120 80 18 00
        E 0 80 24 00
        E 0 80 40 00
        E 0 80 48 00
        E 0 80 4c 00
        E 0 80 54 00
        E 0 80 58 00
        E 0 80 60 00
        E 0 80 64 00
        E 120 90 18 60
        E 0 90 2a 60
        E 0 90 54 60
        E 0 90 57 60
        E 0 90 60 60
        E 0 90 63 60
        E 120 80 18 00
        E 0 80 2a 00
        E 0 80 54 00
        E 0 80 57 00
        E 0 80 60 00
        E 0 80 63 00
        E 120 90 18 60
        E 0 90 24 60
        E 0 90 40 60
        E 0 90 48 60
        E 0 90 4c 60
        E 0 90 54 60
        E 0 90 58 60
        E 0 90 60 60
        E 0 90 64 60
        E 120 80 18 00
        E 0 80 24 00
        E 0 80 40 00
        E 0 80 48 00
        E 0 80 4c 00
        E 0 80 54 00
        E 0 80 58 00
        E 0 80 60 00
        E 0 80 64 00
        E 120 90 1a 60
        E 0 90 55 60
        E 0 90 61 60
        E 120 80 1a 00
        E 0 80 55 00
        E 0 80 61 00
        E 120 90 24 60
        E 0 90 40 60
        E 0 90 4c 60
        E 0 90 58 60
        E 0 90 64 60
        E 120 80 24 00
        E 0 80 40 00
        E 0 80 4c 00
        E 0 80 58 00
        E 0 80 64 00
        E 120 90 18 60
        E 0 90 54 60
        E 0 90 60 60
        E 120 80 18 00
        E 0 80 54 00
        E 0 80 60 00
        E 120 90 18 60
        E 0 90 24 60
        E 0 90 40 60
        E 0 90 48 60
        E 0 90 4c 60
        E 0 90 54 60
        E 0 90 58 60
        E 0 90 60 60
        E 0 90 64 60
        E 120 80 18 00
        E 0 80 24 00
        E 0 80 40 00
        E 0 80 48 00
        E 0 80 4c 00
        E 0 80 54 00
        E 0 80 58 00
        E 0 80 60 00
        E 0 80 64 00
        E 120 90 1b 60
        E 0 90 55 60
        E 0 90 61 60
        E 120 80 1b 00
        E 0 80 55 00
        E 0 80 61 00
        E 0 90 1a 60
        E 0 90 61 60
        E 120 80 1a 00
        E 0 80 61 00
        E 0 90 1b 60
        E 0 90 3d 60
        E 0 90 49 60
        E 0 90 55 60
        E 0 90 61 60
        E 120 80 1b 00
        E 0 80 3d 00
        E 0 80 49 00
        E 0 80 55 00
        E 0 80 61 00
        E 120 90 1b 60
        E 0 90 55 60
        E 0 90 61 60
        E 120 80 1b 00
        E 0 80 55 00
        E 0 80 61 00
        E 0 90 1a 60
        E 0 90 61 60
        E 120 80 1a 00
        E 0 80 61 00
        E 0 90 1b 60
        E 0 90 3d 60
        E 0 90 49 60
        E 0 90 55 60
        E 0 90 61 60
        E 120 80 1b 00
        E 0 80 3d 00
        E 0 80 49 00
        E 0 80 55 00
        E 0 80 61 00
        E 120 90 1b 60
        E 0 90 55 60
        E 0 90 61 60
        E 120 80 1b 00
        E 0 80 55 00
        E 0 80 61 00
        E 0 90 1a 60
        E 0 90 61 60
        E 120 80 1a 00
        E 0 80 61 00
        E 0 90 18 60
        E 0 90 24 60
        E 0 90 40 60
        E 0 90 48 60
        E 0 90 4c 60
        E 0 90 54 60
        E 0 90 58 60
        E 0 90 60 60
        E 0 90 64 60
        E 120 80 18 00
        E 0 80 24 00
        E 0 80 40 00
        E 0 80 48 00
        E 0 80 4c 00
        E 0 80 54 00
        E 0 80 58 00
        E 0 80 60 00
        E 0 80 64 00
        E 120 90 18 60
        E 0 90 2a 60
        E 0 90 54 60
        E 0 90 57 60
        E 0 90 60 60
        E 0 90 63 60
        E 120 80 18 00
        E 0 80 2a 00
        E 0 80 54 00
        E 0 80 57 00
        E 0 80 60 00
        E 0 80 63 00
        E 120 90 18 60
        E 0 90 24 60
        E 0 90 40 60
        E 0 90 48 60
        E 0 90 4c 60
        E 0 90 54 60
        E 0 90 58 60
        E 0 90 60 60
        E 0 90 64 60
        E 120 80 18 00
        E 0 80 24 00
        E 0 80 40 00
        E 0 80 48 00
        E 0 80 4c 00
        E 0 80 54 00
        E 0 80 58 00
        E 0 80 60 00
        E 0 80 64 00
        E 120 90 1a 60
        E 0 90 24 60
        E 0 90 55 60
        E 0 90 58 60
        E 0 90 61 60
        E 0 90 64 60
        E 120 80 1a 00
        E 0 80 24 00
        E 0 80 55 00
        E 0 80 58 00
        E 0 80 61 00
        E 0 80 64 00
        E 120 90 24 60
        E 0 90 40 60
        E 0 90 4c 60
        E 0 90 58 60
        E 0 90 64 60
        E 120 80 24 00
        E 0 80 40 00
        E 0 80 4c 00
        E 0 80 58 00
        E 0 80 64 00
        E 120 90 18 60
        E 0 90 54 60
        E 0 90 60 60
        E 120 80 18 00
        E 0 80 54 00
        E 0 80 60 00
        E 120 90 18 60
        E 0 90 22 60
        E 0 90 26 60
        E 0 90 3e 60
        E 0 90 40 60
        E 0 90 48 60
        E 0 90 4a 60
        E 0 90 4c 60
        E 0 90 54 60
        E 0 90 56 60
        E 0 90 58 60
        E 0 90 60 60
        E 0 90 62 60
        E 0 90 64 60
        E 120 80 18 00
        E 0 80 22 00
        E 0 80 26 00
        E 0 80 3e 00
        E 0 80 40 00
        E 0 80 48 00
        E 0 80 4a 00
        E 0 80 4c 00
        E 0 80 54 00
        E 0 80 56 00
        E 0 80 58 00
        E 0 80 60 00
        E 0 80 62 00
        E 0 80 64 00
        E 120 90 1b 60
        E 0 90 55 60
        E 0 90 61 60
        E 120 80 1b 00
        E 0 80 55 00
        E 0 80 61 00
        E 0 90 1a 60
        E 0 90 61 60
        E 120 80 1a 00
        E 0 80 61 00
        E 0 90 1b 60
        E 0 90 3d 60
        E 0 90 49 60
        E 0 90 55 60
        E 0 90 61 60
        E 120 80 1b 00
        E 0 80 3d 00
        E 0 80 49 00
        E 0 80 55 00
        E 0 80 61 00
        E 120 90 1b 60
        E 0 90 55 60
        E 0 90 61 60
        E 120 80 1b 00
        E 0 80 55 00
        E 0 80 61 00
        E 0 90 1a 60
        E 0 90 61 60
        E 120 80 1a 00
        E 0 80 61 00
        E 0 90 1b 60
        E 0 90 3d 60
        E 0 90 49 60
        E 0 90 55 60
        E 0 90 61 60
        E 120 80 1b 00
        E 0 80 3d 00
        E 0 80 49 00
        E 0 80 55 00
        E 0 80 61 00
        E 0 90 1a 60
        E 0 90 61 60
        E 120 80 1a 00
        E 0 80 61 00
        E 0 90 1b 60
        E 0 90 55 60
        E 0 90 61 60
        E 120 80 1b 00
        E 0 80 55 00
        E 0 80 61 00
        E 0 90 1a 60
        E 0 90 61 60
        E 120 80 1a 00
        E 0 80 61 00
        E 0 90 2f 60
        E 0 90 3e 60
        E 0 90 4a 60
        E 0 90 56 60
        E 0 90 62 60
        E 0 90 6e 60
        E 120 80 2f 00
        E 0 80 3e 00
        E 0 80 4a 00
        E 0 80 56 00
        E 0 80 62 00
        E 0 80 6e 00
        E 0 90 1a 60
        E 0 90 61 60
        E 120 80 1a 00
        E 0 80 61 00
        E 0 90 1b 60
        E 0 90 55 60
        E 0 90 61 60
        E 120 80 1b 00
        E 0 80 55 00
        E 0 80 61 00
        E 0 90 1a 60
        E 0 90 61 60
        E 120 80 1a 00
        E 0 80 61 00
        E 0 90 2f 60
        E 0 90 3e 60
        E 0 90 4a 60
        E 0 90 56 60
        E 0 90 62 60
        E 0 90 6e 60
        E 120 80 2f 00
        E 0 80 3e 00
        E 0 80 4a 00
        E 0 80 56 00
        E 0 80 62 00
        E 0 80 6e 00
        E 0 90 1a 60
        E 0 90 61 60
        E 120 80 1a 00
        E 0 80 61 00
        E 0 90 1b 60
        E 0 90 55 60
        E 0 90 61 60
        E 120 80 1b 00
        E 0 80 55 00
        E 0 80 61 00
        E 0 90 1a 60
        E 0 90 61 60
        E 120 80 1a 00
        E 0 80 61 00
        E 0 90 1b 60
        E 0 90 3d 60
        E 0 90 49 60
        E 0 90 55 60
        E 0 90 61 60
        E 120 80 1b 00
        E 0 80 3d 00
        E 0 80 49 00
        E 0 80 55 00
        E 0 80 61 00
        E 0 90 1a 60
        E 0 90 61 60
        E 120 80 1a 00
        E 0 80 61 00
        E 0 90 1b 60
        E 0 90 55 60
        E 0 90 61 60
        E 120 80 1b 00
        E 0 80 55 00
        E 0 80 61 00
        E 0 90 1a 60
        E 0 90 61 60
        E 120 80 1a 00
        E 0 80 61 00
        E 0 90 2f 60
        E 0 90 3e 60
        E 0 90 4a 60
        E 0 90 56 60
        E 0 90 62 60
        E 0 90 6e 60
        E 120 80 2f 00
        E 0 80 3e 00
        E 0 80 4a 00
        E 0 80 56 00
        E 0 80 62 00
        E 0 80 6e 00
        E 0 90 1a 60
        E 0 90 61 60
        E 120 80 1a 00
        E 0 80 61 00
        E 0 90 1b 60
        E 0 90 55 60
        E 0 90 61 60
        E 120 80 1b 00
        E 0 80 55 00
        E 0 80 61 00
        E 0 90 1a 60
        E 0 90 61 60
        E 120 80 1a 00
        E 0 80 61 00
        E 0 90 2f 60
        E 0 90 3e 60
        E 0 90 4a 60
        E 0 90 56 60
        E 0 90 62 60
        E 0 90 6e 60
        E 120 80 2f 00
        E 0 80 3e 00
        E 0 80 4a 00
        E 0 80 56 00
        E 0 80 62 00
        E 0 80 6e 00
        E 0 90 1a 60
        E 0 90 61 60
        E 120 80 1a 00
        E 0 80 61 00
        E 0 90 1b 60
        E 0 90 55 60
        E 0 90 61 60
        E 120 80 1b 00
        E 0 80 55 00
        E 0 80 61 00
        E 0 90 1a 60
        E 0 90 61 60
        E 120 80 1a 00
        E 0 80 61 00
        E 0 90 2f 60
        E 0 90 3e 60
        E 0 90 4a 60
        E 0 90 56 60
        E 0 90 62 60
        E 0 90 6e 60
        E 120 80 2f 00
        E 0 80 3e 00
        E 0 80 4a 00
        E 0 80 56 00
        E 0 80 62 00
        E 0 80 6e 00
        E 0 90 2e 60
        E 0 90 62 60
        E 0 90 6e 60
        E 120 80 2e 00
        E 0 80 62 00
        E 0 80 6e 00
        E 0 90 31 60
        E 0 90 57 60
        E 0 90 63 60
        E 0 90 6f 60
        E 120 80 31 00
        E 0 80 57 00
        E 0 80 63 00
        E 0 80 6f 00
        E 0 90 30 60
        E 0 90 63 60
        E 0 90 6f 60
        E 120 80 30 00
        E 0 80 63 00
        E 0 80 6f 00
        E 0 90 18 60
        E 0 90 24 60
        E 0 90 40 60
        E 0 90 48 60
        E 0 90 4c 60
        E 0 90 54 60
        E 0 90 58 60
        E 0 90 60 60
        E 0 90 64 60
        E 0 90 74 60
        E 120 80 18 00
        E 0 80 24 00
        E 0 80 40 00
        E 0 80 48 00
        E 0 80 4c 00
        E 0 80 54 00
        E 0 80 58 00
        E 0 80 60 00
        E 0 80 64 00
        E 120 90 18 60
        E 0 90 2a 60
        E 0 90 54 60
        E 0 90 57 60
        E 0 90 60 60
        E 0 90 63 60
        E 120 80 18 00
        E 0 80 2a 00
        E 0 80 54 00
        E 0 80 57 00
        E 0 80 60 00
        E 0 80 63 00
        E 120 90 18 60
        E 0 90 24 60
        E 0 90 40 60
        E 0 90 48 60
        E 0 90 4c 60
        E 0 90 54 60
        E 0 90 58 60
        E 0 90 60 60
        E 0 90 64 60
        E 120 80 18 00
        E 0 80 24 00
        E 0 80 40 00
        E 0 80 48 00
        E 0 80 4c 00
        E 0 80 54 00
        E 0 80 58 00
        E 0 80 60 00
        E 0 80 64 00
        E 120 90 1a 60
        E 0 90 55 60
        E 0 90 61 60
        E 120 80 1a 00
        E 0 80 55 00
        E 0 80 61 00
        E 120 90 24 60
        E 0 90 40 60
        E 0 90 4c 60
        E 0 90 58 60
        E 0 90 64 60
        E 120 80 24 00
        E 0 80 40 00
        E 0 80 4c 00
        E 0 80 58 00
        E 0 80 64 00
        E 120 90 18 60
        E 0 90 54 60
        E 0 90 60 60
        E 120 80 18 00
        E 0 80 54 00
        E 0 80 60 00
        E 120 90 1a 60
        E 0 90 24 60
        E 0 90 3d 60
        E 0 90 49 60
        E 0 90 4c 60
        E 0 90 55 60
        E 0 90 58 60
        E 0 90 61 60
        E 0 90 64 60
        E 120 80 1a 00
        E 0 80 24 00
        E 0 80 3d 00
        E 0 80 49 00
        E 0 80 4c 00
        E 0 80 55 00
        E 0 80 58 00
        E 0 80 61 00
        E 0 80 64 00
        E 120 90 18 60
        E 0 90 54 60
        E 0 90 60 60
        E 120 80 18 00
        E 0 80 54 00
        E 0 80 60 00
        E 0 90 18 60
        E 0 90 60 60
        E 120 80 18 00
        E 0 80 60 00
        E 0 90 1a 60
        E 0 90 24 60
        E 0 90 3d 60
        E 0 90 49 60
        E 0 90 4c 60
        E 0 90 55 60
        E 0 90 58 60
        E 0 90 61 60
        E 0 90 64 60
        E 120 80 1a 00
        E 0 80 24 00
        E 0 80 3d 00
        E 0 80 49 00
        E 0 80 4c 00
        E 0 80 55 00
        E 0 80 58 00
        E 0 80 61 00
        E 0 80 64 00
        E 120 90 18 60
        E 0 90 54 60
        E 0 90 60 60
        E 120 80 18 00
        E 0 80 54 00
        E 0 80 60 00
        E 120 90 1a 60
        E 0 90 24 60
        E 0 90 3d 60
        E 0 90 49 60
        E 0 90 4c 60
        E 0 90 55 60
        E 0 90 58 60
        E 0 90 61 60
        E 0 90 64 60
        E 120 80 1a 00
        E 0 80 24 00
        E 0 80 3d 00
        E 0 80 49 00
        E 0 80 4c 00
        E 0 80 55 00
        E 0 80 58 00
        E 0 80 61 00
        E 0 80 64 00
        E 360 90 18 60
        E 0 90 24 60
        E 0 90 40 60
        E 0 90 48 60
        E 0 90 4c 60
        E 0 90 54 60
        E 0 90 58 60
        E 0 90 60 60
        E 0 90 64 60
        E 120 80 18 00
        E 0 80 24 00
        E 0 80 40 00
        E 0 80 48 00
        E 0 80 4c 00
        E 0 80 54 00
        E 0 80 58 00
        E 0 80 60 00
        E 0 80 64 00
        E 120 90 18 60
        E 0 90 2a 60
        E 0 90 54 60
        E 0 90 57 60
        E 0 90 60 60
        E 0 90 63 60
        E 120 80 18 00
        E 0 80 2a 00
        E 0 80 54 00
        E 0 80 57 00
        E 0 80 60 00
        E 0 80 63 00
        E 120 90 18 60
        E 0 90 24 60
        E 0 90 40 60
        E 0 90 48 60
        E 0 90 4c 60
        E 0 90 54 60
        E 0 90 58 60
        E 0 90 60 60
        E 0 90 64 60
        E 120 80 18 00
        E 0 80 24 00
        E 0 80 40 00
        E 0 80 48 00
        E 0 80 4c 00
        E 0 80 54 00
        E 0 80 58 00
        E 0 80 60 00
        E 0 80 64 00
        E 120 90 1a 60
        E 0 90 55 60
        E 0 90 61 60
        E 120 80 1a 00
        E 0 80 55 00
        E 0 80 61 00
        E 120 90 24 60
        E 0 90 40 60
        E 0 90 4c 60
        E 0 90 58 60
        E 0 90 64 60
        E 120 80 24 00
        E 0 80 40 00
        E 0 80 4c 00
        E 0 80 58 00
        E 0 80 64 00
        E 120 90 18 60
        E 0 90 54 60
        E 0 90 60 60
        E 120 80 18 00
        E 0 80 54 00
        E 0 80 60 00
        E 120 90 18 60
        E 0 90 24 60
        E 0 90 40 60
        E 0 90 48 60
        E 0 90 4c 60
        E 0 90 54 60
        E 0 90 58 60
        E 0 90 60 60
        E 0 90 64 60
        E 120 80 18 00
        E 0 80 24 00
        E 0 80 40 00
        E 0 80 48 00
        E 0 80 4c 00
        E 0 80 54 00
        E 0 80 58 00
        E 0 80 60 00
        E 0 80 64 00
        E 120 90 1b 60
        E 0 90 55 60
        E 0 90 61 60
        E 120 80 1b 00
        E 0 80 55 00
        E 0 80 61 00
        E 0 90 1a 60
        E 0 90 61 60
        E 120 80 1a 00
        E 0 80 61 00
        E 0 90 1b 60
        E 0 90 3d 60
        E 0 90 49 60
        E 0 90 55 60
        E 0 90 61 60
        E 120 80 1b 00
        E 0 80 3d 00
        E 0 80 49 00
        E 0 80 55 00
        E 0 80 61 00
        E 0 90 1a 60
        E 0 90 61 60
        E 120 80 1a 00
        E 0 80 61 00
        E 0 90 1b 60
        E 0 90 55 60
        E 0 90 61 60
        E 120 80 1b 00
        E 0 80 55 00
        E 0 80 61 00
        E 0 90 1a 60
        E 0 90 61 60
        E 120 80 1a 00
        E 0 80 61 00
        E 0 90 1b 60
        E 0 90 3d 60
        E 0 90 49 60
        E 0 90 55 60
        E 0 90 61 60
        E 120 80 1b 00
        E 0 80 3d 00
        E 0 80 49 00
        E 0 80 55 00
        E 0 80 61 00
        E 120 90 1b 60
        E 0 90 55 60
        E 0 90 61 60
        E 120 80 1b 00
        E 0 80 55 00
        E 0 80 61 00
        E 0 90 1a 60
        E 0 90 61 60
        E 120 80 74 00
        E 0 80 1a 00
        E 0 80 61 00
        E 0 90 18 60
        E 0 90 24 60
        E 0 90 40 60
        E 0 90 48 60
        E 0 90 4c 60
        E 0 90 54 60
        E 0 90 58 60
        E 0 90 60 60
        E 0 90 64 60
        E 120 80 18 00
        E 0 80 24 00
        E 0 80 40 00
        E 0 80 48 00
        E 0 80 4c 00
        E 0 80 54 00
        E 0 80 58 00
        E 0 80 60 00
        E 0 80 64 00
        E 120 90 18 60
        E 0 90 2a 60
        E 0 90 54 60
        E 0 90 57 60
        E 0 90 60 60
        E 0 90 63 60
        E 120 80 18 00
        E 0 80 2a 00
        E 0 80 54 00
        E 0 80 57 00
        E 0 80 60 00
        E 0 80 63 00
        E 120 90 18 60
        E 0 90 24 60
        E 0 90 40 60
        E 0 90 48 60
        E 0 90 4c 60
        E 0 90 54 60
        E 0 90 58 60
        E 0 90 60 60
        E 0 90 64 60
        E 120 80 18 00
        E 0 80 24 00
        E 0 80 40 00
        E 0 80 48 00
        E 0 80 4c 00
        E 0 80 54 00
        E 0 80 58 00
        E 0 80 60 00
        E 0 80 64 00
        E 120 90 1a 60
        E 0 90 55 60
        E 0 90 61 60
        E 120 80 1a 00
        E 0 80 55 00
        E 0 80 61 00
        E 120 90 24 60
        E 0 90 40 60
        E 0 90 4c 60
        E 0 90 58 60
        E 0 90 64 60
        E 120 80 24 00
        E 0 80 40 00
        E 0 80 4c 00
        E 0 80 58 00
        E 0 80 64 00
        E 120 90 18 60
        E 0 90 54 60
        E 0 90 60 60
        E 120 80 18 00
        E 0 80 54 00
        E 0 80 60 00
        E 120 90 1a 60
        E 0 90 24 60
        E 0 90 3d 60
        E 0 90 49 60
        E 0 90 4c 60
        E 0 90 55 60
        E 0 90 58 60
        E 0 90 61 60
        E 0 90 64 60
        E 120 80 1a 00
        E 0 80 24 00
        E 0 80 3d 00
        E 0 80 49 00
        E 0 80 4c 00
        E 0 80 55 00
        E 0 80 58 00
        E 0 80 61 00
        E 0 80 64 00
        E 120 90 18 60
        E 0 90 54 60
        E 0 90 60 60
        E 120 80 18 00
        E 0 80 54 00
        E 0 80 60 00
        E 0 90 18 60
        E 0 90 60 60
        E 120 80 18 00
        E 0 80 60 00
        E 0 90 1a 60
        E 0 90 24 60
        E 0 90 3d 60
        E 0 90 49 60
        E 0 90 4c 60
        E 0 90 55 60
        E 0 90 58 60
        E 0 90 61 60
        E 0 90 64 60
        E 120 80 1a 00
        E 0 80 24 00
        E 0 80 3d 00
        E 0 80 49 00
        E 0 80 4c 00
        E 0 80 55 00
        E 0 80 58 00
        E 0 80 61 00
        E 0 80 64 00
        E 120 90 18 60
        E 0 90 54 60
        E 0 90 60 60
        E 120 80 18 00
        E 0 80 54 00
        E 0 80 60 00
        E 120 90 1a 60
        E 0 90 24 60
        E 0 90 3d 60
        E 0 90 49 60
        E 0 90 4c 60
        E 0 90 55 60
        E 0 90 58 60
        E 0 90 61 60
        E 0 90 64 60
        E 120 80 1a 00
        E 0 80 24 00
        E 0 80 3d 00
        E 0 80 49 00
        E 0 80 4c 00
        E 0 80 55 00
        E 0 80 58 00
        E 0 80 61 00
        E 0 80 64 00
        E 360 90 18 60
        E 0 90 24 60
        E 0 90 40 60
        E 0 90 48 60
        E 0 90 4c 60
        E 0 90 54 60
        E 0 90 58 60
        E 0 90 60 60
        E 0 90 64 60
        E 120 80 18 00
        E 0 80 24 00
        E 0 80 40 00
        E 0 80 48 00
        E 0 80 4c 00
        E 0 80 54 00
        E 0 80 58 00
        E 0 80 60 00
        E 0 80 64 00
        E 120 90 1b 60
        E 0 90 55 60
        E 0 90 61 60
        E 120 80 1b 00
        E 0 80 55 00
        E 0 80 61 00
        E 0 90 1a 60
        E 0 90 61 60
        E 120 80 1a 00
        E 0 80 61 00
        E 0 90 18 60
        E 0 90 3c 60
        E 0 90 48 60
        E 0 90 54 60
        E 120 80 18 00
        E 0 80 3c 00
        E 0 80 48 00
        E 0 80 54 00
        E 0 90 18 60
        E 0 90 60 60
        E 120 80 18 00
        E 0 80 60 00
        E 0 90 1a 60
        E 0 90 24 60
        E 0 90 55 60
        E 0 90 58 60
        E 0 90 61 60
        E 0 90 64 60
        E 120 80 1a 00
        E 0 80 24 00
        E 0 80 55 00
        E 0 80 58 00
        E 0 80 61 00
        E 0 80 64 00
        E 360 90 18 60
        E 0 90 54 60
        E 0 90 60 60
        E 120 80 18 00
        E 0 80 54 00
        E 0 80 60 00
        E 120 90 18 60
        E 0 90 24 60
        E 0 90 40 60
        E 0 90 48 60
        E 0 90 4c 60
        E 0 90 54 60
        E 0 90 58 60
        E 0 90 60 60
        E 0 90 64 60
        E 120 80 18 00
        E 0 80 24 00
        E 0 80 40 00
        E 0 80 48 00
        E 0 80 4c 00
        E 0 80 54 00
        E 0 80 58 00
        E 0 80 60 00
        E 0 80 64 00
        E 120 90 1b 60
        E 0 90 55 60
        E 0 90 61 60
        E 120 80 1b 00
        E 0 80 55 00
        E 0 80 61 00
        E 0 90 1a 60
        E 0 90 61 60
        E 120 80 1a 00
        E 0 80 61 00
        E 0 90 1b 60
        E 0 90 3d 60
        E 0 90 49 60
        E 0 90 55 60
        E 0 90 61 60
        E 120 80 1b 00
        E 0 80 3d 00
        E 0 80 49 00
        E 0 80 55 00
        E 0 80 61 00
        E 0 90 1a 60
        E 0 90 61 60
        E 120 80 1a 00
        E 0 80 61 00
        E 0 90 1b 60
        E 0 90 55 60
        E 0 90 61 60
        E 120 80 1b 00
        E 0 80 55 00
        E 0 80 61 00
        E 0 90 1a 60
        E 0 90 61 60
        E 120 80 1a 00
        E 0 80 61 00
        E 0 90 2f 60
        E 0 90 3e 60
        E 0 90 4a 60
        E 0 90 56 60
        E 0 90 62 60
        E 0 90 6e 60
        E 120 80 2f 00
        E 0 80 3e 00
        E 0 80 4a 00
        E 0 80 56 00
        E 0 80 62 00
        E 0 80 6e 00
        E 0 90 2e 60
        E 0 90 62 60
        E 0 90 6e 60
        E 120 80 2e 00
        E 0 80 62 00
        E 0 80 6e 00
        E 0 90 2f 60
        E 0 90 56 60
        E 0 90 62 60
        E 0 90 6e 60
        E 120 80 2f 00
        E 0 80 56 00
        E 0 80 62 00
        E 0 80 6e 00
        E 0 90 2e 60
        E 0 90 62 60
        E 0 90 6e 60
        E 120 80 2e 00
        E 0 80 62 00
        E 0 80 6e 00
        E 0 90 18 60
        E 0 90 24 60
        E 0 90 40 60
        E 0 90 48 60
        E 0 90 4c 60
        E 0 90 54 60
        E 0 90 58 60
        E 0 90 60 60
        E 0 90 64 60
        E 120 80 18 00
        E 0 80 24 00
        E 0 80 40 00
        E 0 80 48 00
        E 0 80 4c 00
        E 0 80 54 00
        E 0 80 58 00
        E 0 80 60 00
        E 0 80 64 00
        E 120 90 1b 60
        E 0 90 55 60
        E 0 90 61 60
        E 120 80 1b 00
        E 0 80 55 00
        E 0 80 61 00
        E 0 90 1a 60
        E 0 90 61 60
        E 120 80 1a 00
        E 0 80 61 00
        E 0 90 18 60
        E 0 90 3c 60
        E 0 90 48 60
        E 0 90 54 60
        E 120 80 18 00
        E 0 80 3c 00
        E 0 80 48 00
        E 0 80 54 00
        E 0 90 18 60
        E 0 90 60 60
        E 120 80 18 00
        E 0 80 60 00
        E 0 90 1a 60
        E 0 90 24 60
        E 0 90 55 60
        E 0 90 58 60
        E 0 90 61 60
        E 0 90 64 60
        E 120 80 1a 00
        E 0 80 24 00
        E 0 80 55 00
        E 0 80 58 00
        E 0 80 61 00
        E 0 80 64 00
        E 360 90 18 60
        E 0 90 54 60
        E 0 90 60 60
        E 120 80 18 00
        E 0 80 54 00
        E 0 80 60 00
        E 120 90 18 60
        E 0 90 24 60
        E 0 90 40 60
        E 0 90 48 60
        E 0 90 4c 60
        E 0 90 54 60
        E 0 90 58 60
        E 0 90 60 60
        E 0 90 64 60
        E 120 80 18 00
        E 0 80 24 00
        E 0 80 40 00
        E 0 80 48 00
        E 0 80 4c 00
        E 0 80 54 00
        E 0 80 58 00
        E 0 80 60 00
        E 0 80 64 00
        E 120 90 1b 60
        E 0 90 55 60
        E 0 90 61 60
        E 120 80 1b 00
        E 0 80 55 00
        E 0 80 61 00
        E 0 90 1a 60
        E 0 90 61 60
        E 120 80 1a 00
        E 0 80 61 00
        E 0 90 1b 60
        E 0 90 3d 60
        E 0 90 49 60
        E 0 90 55 60
        E 0 90 61 60
        E 120 80 1b 00
        E 0 80 3d 00
        E 0 80 49 00
        E 0 80 55 00
        E 0 80 61 00
        E 0 90 1a 60
        E 0 90 61 60
        E 120 80 1a 00
        E 0 80 61 00
        E 0 90 1b 60
        E 0 90 55 60
        E 0 90 61 60
        E 120 80 1b 00
        E 0 80 55 00
        E 0 80 61 00
        E 0 90 1a 60
        E 0 90 61 60
        E 120 80 1a 00
        E 0 80 61 00
        E 0 90 2f 60
        E 0 90 3e 60
        E 0 90 4a 60
        E 0 90 56 60
        E 0 90 62 60
        E 0 90 6e 60
        E 120 80 2f 00
        E 0 80 3e 00
        E 0 80 4a 00
        E 0 80 56 00
        E 0 80 62 00
        E 0 80 6e 00
        E 0 90 2e 60
        E 0 90 62 60
        E 0 90 6e 60
        E 120 80 2e 00
        E 0 80 62 00
        E 0 80 6e 00
        E 0 90 2f 60
        E 0 90 56 60
        E 0 90 62 60
        E 0 90 6e 60
        E 120 80 2f 00
        E 0 80 56 00
        E 0 80 62 00
        E 0 80 6e 00
        E 0 90 2e 60
        E 0 90 62 60
        E 0 90 6e 60
        E 120 80 2e 00
        E 0 80 62 00
        E 0 80 6e 00
        E 0 90 18 60
        E 0 90 24 60
        E 0 90 40 60
        E 0 90 48 60
        E 0 90 4c 60
        E 0 90 54 60
        E 0 90 58 60
        E 0 90 60 60
        E 0 90 64 60
        E 120 80 18 00
        E 0 80 24 00
        E 0 80 40 00
        E 0 80 48 00
        E 0 80 4c 00
        E 0 80 54 00
        E 0 80 58 00
        E 0 80 60 00
        E 0 80 64 00
        E 120 90 1b 60
        E 0 90 55 60
        E 0 90 61 60
        E 120 80 1b 00
        E 0 80 55 00
        E 0 80 61 00
        E 0 90 1a 60
        E 0 90 61 60
        E 120 80 1a 00
        E 0 80 61 00
        E 0 90 18 60
        E 0 90 3c 60
        E 0 90 48 60
        E 0 90 54 60
        E 120 80 18 00
        E 0 80 3c 00
        E 0 80 48 00
        E 0 80 54 00
        E 0 90 18 60
        E 0 90 60 60
        E 120 80 18 00
        E 0 80 60 00
        E 0 90 1a 60
        E 0 90 24 60
        E 0 90 55 60
        E 0 90 58 60
        E 0 90 61 60
        E 0 90 64 60
        E 120 80 1a 00
        E 0 80 24 00
        E 0 80 55 00
        E 0 80 58 00
        E 0 80 61 00
        E 0 80 64 00
        E 360 90 18 60
        E 0 90 54 60
        E 0 90 60 60
        E 120 80 18 00
        E 0 80 54 00
        E 0 80 60 00
        E 120 90 18 60
        E 0 90 24 60
        E 0 90 40 60
        E 0 90 48 60
        E 0 90 4c 60
        E 0 90 54 60
        E 0 90 58 60
        E 0 90 60 60
        E 0 90 64 60
        E 120 80 18 00
        E 0 80 24 00
        E 0 80 40 00
        E 0 80 48 00
        E 0 80 4c 00
        E 0 80 54 00
        E 0 80 58 00
        E 0 80 60 00
        E 0 80 64 00
        E 120 90 1b 60
        E 0 90 55 60
        E 0 90 61 60
        E 120 80 1b 00
        E 0 80 55 00
        E 0 80 61 00
        E 0 90 1a 60
        E 0 90 61 60
        E 120 80 1a 00
        E 0 80 61 00
        E 0 90 1b 60
        E 0 90 3d 60
        E 0 90 49 60
        E 0 90 55 60
        E 0 90 61 60
        E 120 80 1b 00
        E 0 80 3d 00
        E 0 80 49 00
        E 0 80 55 00
        E 0 80 61 00
        E 0 90 1a 60
        E 0 90 61 60
        E 120 80 1a 00
        E 0 80 61 00
        E 0 90 1b 60
        E 0 90 55 60
        E 0 90 61 60
        E 120 80 1b 00
        E 0 80 55 00
        E 0 80 61 00
        E 0 90 1a 60
        E 0 90 61 60
        E 120 80 1a 00
        E 0 80 61 00
        E 0 90 1b 60
        E 0 90 3d 60
        E 0 90 49 60
        E 0 90 55 60
        E 0 90 61 60
        E 120 80 1b 00
        E 0 80 3d 00
        E 0 80 49 00
        E 0 80 55 00
        E 0 80 61 00
        E 0 90 1a 60
        E 0 90 61 60
        E 120 80 1a 00
        E 0 80 61 00
        E 0 90 1b 60
        E 0 90 55 60
        E 0 90 61 60
        E 120 80 1b 00
        E 0 80 55 00
        E 0 80 61 00
        E 0 90 1a 60
        E 0 90 61 60
        E 120 80 1a 00
        E 0 80 61 00
        E 0 90 1b 60
        E 0 90 3d 60
        E 0 90 49 60
        E 0 90 55 60
        E 0 90 61 60
        E 120 80 1b 00
        E 0 80 3d 00
        E 0 80 49 00
        E 0 80 55 00
        E 0 80 61 00
        E 0 90 1a 60
        E 0 90 61 60
        E 120 80 1a 00
        E 0 80 61 00
        E 0 90 1b 60
        E 0 90 55 60
        E 0 90 61 60
        E 120 80 1b 00
        E 0 80 55 00
        E 0 80 61 00
        E 0 90 1a 60
        E 0 90 61 60
        E 120 80 1a 00
        E 0 80 61 00
        E 0 90 18 60
        E 0 90 3c 60
        E 0 90 48 60
        E 0 90 54 60
        E 0 90 60 60
        E 120 80 18 00
        E 0 80 3c 00
        E 0 80 48 00
        E 0 80 54 00
        E 0 80 60 00
        E 120 90 1a 60
        E 0 90 24 60
        E 0 90 55 60
        E 0 90 58 60
        E 0 90 61 60
        E 0 90 64 60
        E 120 80 1a 00
        E 0 80 24 00
        E 0 80 55 00
        E 0 80 58 00
        E 0 80 61 00
        E 0 80 64 00
        E 360 90 18 60
        E 0 90 54 60
        E 0 90 60 60
        E 120 80 18 00
        E 0 80 54 00
        E 0 80 60 00
        E 120 90 18 60
        E 0 90 24 60
        E 0 90 40 60
        E 0 90 48 60
        E 0 90 4c 60
        E 0 90 54 60
        E 0 90 58 60
        E 0 90 60 60
        E 0 90 64 60
        E 120 80 18 00
        E 0 80 24 00
        E 0 80 40 00
        E 0 80 48 00
        E 0 80 4c 00
        E 0 80 54 00
        E 0 80 58 00
        E 0 80 60 00
        E 0 80 64 00
        E 240 90 1a 60
        E 0 90 61 60
        E 120 80 1a 00
        E 0 80 61 00
        E 0 90 1b 60
        E 0 90 3d 60
        E 0 90 49 60
        E 0 90 55 60
        E 0 90 61 60
        E 120 80 1b 00
        E 0 80 3d 00
        E 0 80 49 00
        E 0 80 55 00
        E 0 80 61 00
        E 240 90 1a 60
        E 0 90 61 60
        E 120 80 1a 00
        E 0 80 61 00
        E 0 90 1b 60
        E 0 90 3d 60
        E 0 90 49 60
        E 0 90 55 60
        E 0 90 61 60
        E 120 80 1b 00
        E 0 80 3d 00
        E 0 80 49 00
        E 0 80 55 00
        E 0 80 61 00
        E 120 90 18 60
        E 0 90 54 60
        E 0 90 60 60
        E 120 80 18 00
        E 0 80 54 00
        E 0 80 60 00
        E 120 90 18 60
        E 0 90 24 60
        E 0 90 40 60
        E 0 90 48 60
        E 0 90 4c 60
        E 0 90 54 60
        E 0 90 58 60
        E 0 90 60 60
        E 0 90 64 60
        E 120 80 18 00
        E 0 80 24 00
        E 0 80 40 00
        E 0 80 48 00
        E 0 80 4c 00
        E 0 80 54 00
        E 0 80 58 00
        E 0 80 60 00
        E 0 80 64 00
        E 120 90 18 60
        E 0 90 54 60
        E 0 90 60 60
        E 120 80 18 00
        E 0 80 54 00
        E 0 80 60 00
        E 120 90 18 60
        E 0 90 24 60
        E 0 90 40 60
        E 0 90 48 60
        E 0 90 4c 60
        E 0 90 54 60
        E 0 90 58 60
        E 0 90 60 60
        E 0 90 64 60
        E 120 80 18 00
        E 0 80 24 00
        E 0 80 40 00
        E 0 80 48 00
        E 0 80 4c 00
        E 0 80 54 00
        E 0 80 58 00
        E 0 80 60 00
        E 0 80 64 00
        E 120 90 1a 60
        E 0 90 55 60
        E 0 90 61 60
        E 120 80 1a 00
        E 0 80 55 00
        E 0 80 61 00
        E 120 90 24 60
        E 0 90 40 60
        E 0 90 4c 60
        E 0 90 58 60
        E 0 90 64 60
        E 120 80 24 00
        E 0 80 40 00
        E 0 80 4c 00
        E 0 80 58 00
        E 0 80 64 00
        E 120 90 18 60
        E 0 90 54 60
        E 0 90 60 60
        E 120 80 18 00
        E 0 80 54 00
        E 0 80 60 00
        E 120 90 18 60
        E 0 90 24 60
        E 0 90 40 60
        E 0 90 48 60
        E 0 90 4c 60
        E 0 90 54 60
        E 0 90 58 60
        E 0 90 60 60
        E 0 90 64 60
        E 120 80 18 00
        E 0 80 24 00
        E 0 80 40 00
        E 0 80 48 00
        E 0 80 4c 00
        E 0 80 54 00
        E 0 80 58 00
        E 0 80 60 00
        E 0 80 64 00
        E 120 90 1a 60
        E 0 90 55 60
        E 0 90 61 60
        E 120 80 1a 00
        E 0 80 55 00
        E 0 80 61 00
        E 120 90 24 60
        E 0 90 40 60
        E 0 90 4c 60
        E 0 90 58 60
        E 0 90 64 60
        E 120 80 24 00
        E 0 80 40 00
        E 0 80 4c 00
        E 0 80 58 00
        E 0 80 64 00
        E 120 90 2f 60
        E 0 90 56 60
        E 0 90 62 60
        E 0 90 6e 60
        E 120 80 2f 00
        E 0 80 56 00
        E 0 80 62 00
        E 0 80 6e 00
        E 120 90 18 60
        E 0 90 24 60
        E 0 90 40 60
        E 0 90 48 60
        E 0 90 4c 60
        E 0 90 54 60
        E 0 90 58 60
        E 0 90 60 60
        E 0 90 64 60
        E 120 80 18 00
        E 0 80 24 00
        E 0 80 40 00
        E 0 80 48 00
        E 0 80 4c 00
        E 0 80 54 00
        E 0 80 58 00
        E 0 80 60 00
        E 0 80 64 00
        E 120 90 1a 60
        E 0 90 55 60
        E 0 90 61 60
        E 120 80 1a 00
        E 0 80 55 00
        E 0 80 61 00
        E 120 90 18 60
        E 0 90 24 60
        E 0 90 40 60
        E 0 90 48 60
        E 0 90 4c 60
        E 0 90 54 60
        E 0 90 58 60
        E 0 90 60 60
        E 0 90 64 60
        E 120 80 18 00
        E 0 80 24 00
        E 0 80 40 00
        E 0 80 48 00
        E 0 80 4c 00
        E 0 80 54 00
        E 0 80 58 00
        E 0 80 60 00
        E 0 80 64 00
        E 120 90 31 60
        E 0 90 57 60
        E 0 90 63 60
        E 0 90 6f 60
        E 120 80 31 00
        E 0 80 57 00
        E 0 80 63 00
        E 0 80 6f 00
        E 120 90 18 60
        E 0 90 24 60
        E 0 90 40 60
        E 0 90 48 60
        E 0 90 4c 60
        E 0 90 54 60
        E 0 90 58 60
        E 0 90 60 60
        E 0 90 64 60
        E 120 80 18 00
        E 0 80 24 00
        E 0 80 40 00
        E 0 80 48 00
        E 0 80 4c 00
        E 0 80 54 00
        E 0 80 58 00
        E 0 80 60 00
        E 0 80 64 00
        E 120 90 1a 60
        E 0 90 55 60
        E 0 90 61 60
        E 120 80 1a 00
        E 0 80 55 00
        E 0 80 61 00
        E 120 90 24 60
        E 0 90 40 60
        E 0 90 4c 60
        E 0 90 58 60
        E 0 90 64 60
        E 120 80 24 00
        E 0 80 40 00
        E 0 80 4c 00
        E 0 80 58 00
        E 0 80 64 00
        E 120 90 31 60
        E 0 90 57 60
        E 0 90 63 60
        E 0 90 6f 60
        E 120 80 31 00
        E 0 80 57 00
        E 0 80 63 00
        E 0 80 6f 00
        E 120 90 24 60
        E 0 90 40 60
        E 0 90 4c 60
        E 0 90 58 60
        E 0 90 64 60
        E 120 80 24 00
        E 0 80 40 00
        E 0 80 4c 00
        E 0 80 58 00
        E 0 80 64 00
        E 120 90 31 60
        E 0 90 57 60
        E 0 90 63 60
        E 0 90 6f 60
        E 120 80 31 00
        E 0 80 57 00
        E 0 80 63 00
        E 0 80 6f 00
        E 120 90 30 60
        E 0 90 33 60
        E 0 90 3f 60
        E 0 90 40 60
        E 0 90 4b 60
        E 0 90 4c 60
        E 0 90 57 60
        E 0 90 58 60
        E 0 90 63 60
        E 0 90 64 60
        E 0 90 6f 60
        E 120 80 30 00
        E 0 80 33 00
        E 0 80 3f 00
        E 0 80 40 00
        E 0 80 4b 00
        E 0 80 4c 00
        E 0 80 57 00
        E 0 80 58 00
        E 0 80 63 00
        E 0 80 64 00
        E 0 80 6f 00
        E 120 90 18 60
        E 0 90 54 60
        E 0 90 60 60
        E 120 80 18 00
        E 0 80 54 00
        E 0 80 60 00
        E 120 90 1a 60
        E 0 90 24 60
        E 0 90 3d 60
        E 0 90 49 60
        E 0 90 4c 60
        E 0 90 55 60
        E 0 90 58 60
        E 0 90 61 60
        E 0 90 64 60
        E 120 80 1a 00
        E 0 80 24 00
        E 0 80 3d 00
        E 0 80 49 00
        E 0 80 4c 00
        E 0 80 55 00
        E 0 80 58 00
        E 0 80 61 00
        E 0 80 64 00
        E 120 90 1b 60
        E 0 90 55 60
        E 0 90 61 60
        E 120 80 1b 00
        E 0 80 55 00
        E 0 80 61 00
        E 0 90 1a 60
        E 0 90 61 60
        E 120 80 1a 00
        E 0 80 61 00
        E 0 90 18 60
        E 0 90 24 60
        E 0 90 40 60
        E 0 90 48 60
        E 0 90 4c 60
        E 0 90 54 60
        E 0 90 58 60
        E 0 90 60 60
        E 0 90 64 60
        E 120 80 18 00
        E 0 80 24 00
        E 0 80 40 00
        E 0 80 48 00
        E 0 80 4c 00
        E 0 80 54 00
        E 0 80 58 00
        E 0 80 60 00
        E 0 80 64 00
        E 120 90 18 60
        E 0 90 54 60
        E 0 90 60 60
        E 120 80 18 00
        E 0 80 54 00
        E 0 80 60 00
        E 120 90 18 60
        E 0 90 24 60
        E 0 90 40 60
        E 0 90 48 60
        E 0 90 4c 60
        E 0 90 54 60
        E 0 90 58 60
        E 0 90 60 60
        E 0 90 64 60
        E 120 80 18 00
        E 0 80 24 00
        E 0 80 40 00
        E 0 80 48 00
        E 0 80 4c 00
        E 0 80 54 00
        E 0 80 58 00
        E 0 80 60 00
        E 0 80 64 00
        E 120 90 1a 60
        E 0 90 55 60
        E 0 90 61 60
        E 120 80 1a 00
        E 0 80 55 00
        E 0 80 61 00
        E 120 90 24 60
        E 0 90 40 60
        E 0 90 4c 60
        E 0 90 58 60
        E 0 90 64 60
        E 120 80 24 00
        E 0 80 40 00
        E 0 80 4c 00
        E 0 80 58 00
        E 0 80 64 00
        E 120 90 18 60
        E 0 90 54 60
        E 0 90 60 60
        E 120 80 18 00
        E 0 80 54 00
        E 0 80 60 00
        E 120 90 18 60
        E 0 90 24 60
        E 0 90 40 60
        E 0 90 48 60
        E 0 90 4c 60
        E 0 90 54 60
        E 0 90 58 60
        E 0 90 60 60
        E 0 90 64 60
        E 120 80 18 00
        E 0 80 24 00
        E 0 80 40 00
        E 0 80 48 00
        E 0 80 4c 00
        E 0 80 54 00
        E 0 80 58 00
        E 0 80 60 00
        E 0 80 64 00
        E 120 90 1b 60
        E 0 90 55 60
        E 0 90 61 60
        E 120 80 1b 00
        E 0 80 55 00
        E 0 80 61 00
        E 0 90 1a 60
        E 0 90 61 60
        E 120 80 1a 00
        E 0 80 61 00
        E 0 90 1b 60
        E 0 90 3d 60
        E 0 90 49 60
        E 0 90 55 60
        E 0 90 61 60
        E 120 80 1b 00
        E 0 80 3d 00
        E 0 80 49 00
        E 0 80 55 00
        E 0 80 61 00
        E 0 90 1a 60
        E 0 90 61 60
        E 120 80 1a 00
        E 0 80 61 00
        E 0 90 1b 60
        E 0 90 55 60
        E 0 90 61 60
        E 120 80 1b 00
        E 0 80 55 00
        E 0 80 61 00
        E 0 90 1a 60
        E 0 90 61 60
        E 120 80 1a 00
        E 0 80 61 00
        E 0 90 2f 60
        E 0 90 3e 60
        E 0 90 4a 60
        E 0 90 56 60
        E 0 90 62 60
        E 0 90 6e 60
        E 120 80 2f 00
        E 0 80 3e 00
        E 0 80 4a 00
        E 0 80 56 00
        E 0 80 62 00
        E 0 80 6e 00
        E 0 90 2e 60
        E 0 90 62 60
        E 0 90 6e 60
        E 120 80 2e 00
        E 0 80 62 00
        E 0 80 6e 00
        E 0 90 31 60
        E 0 90 57 60
        E 0 90 63 60
        E 0 90 6f 60
        E 120 80 31 00
        E 0 80 57 00
        E 0 80 63 00
        E 0 80 6f 00
        E 0 90 30 60
        E 0 90 63 60
        E 0 90 6f 60
        E 120 80 30 00
        E 0 80 63 00
        E 0 80 6f 00
        E 0 90 18 60
        E 0 90 24 60
        E 0 90 40 60
        E 0 90 48 60
        E 0 90 4c 60
        E 0 90 54 60
        E 0 90 58 60
        E 0 90 60 60
        E 0 90 64 60
        E 120 80 18 00
        E 0 80 24 00
        E 0 80 40 00
        E 0 80 48 00
        E 0 80 4c 00
        E 0 80 54 00
        E 0 80 58 00
        E 0 80 60 00
        E 0 80 64 00
        E 120 90 18 60
        E 0 90 54 60
        E 0 90 60 60
        E 120 80 18 00
        E 0 80 54 00
        E 0 80 60 00
        E 120 90 18 60
        E 0 90 24 60
        E 0 90 40 60
        E 0 90 48 60
        E 0 90 4c 60
        E 0 90 54 60
        E 0 90 58 60
        E 0 90 60 60
        E 0 90 64 60
        E 120 80 18 00
        E 0 80 24 00
        E 0 80 40 00
        E 0 80 48 00
        E 0 80 4c 00
        E 0 80 54 00
        E 0 80 58 00
        E 0 80 60 00
        E 0 80 64 00
        E 120 90 1a 60
        E 0 90 55 60
        E 0 90 61 60
        E 120 80 1a 00
        E 0 80 55 00
        E 0 80 61 00
        E 120 90 24 60
        E 0 90 40 60
        E 0 90 4c 60
        E 0 90 58 60
        E 0 90 64 60
        E 120 80 24 00
        E 0 80 40 00
        E 0 80 4c 00
        E 0 80 58 00
        E 0 80 64 00
        E 120 90 18 60
        E 0 90 54 60
        E 0 90 60 60
        E 120 80 18 00
        E 0 80 54 00
        E 0 80 60 00
        E 120 90 1a 60
        E 0 90 24 60
        E 0 90 3d 60
        E 0 90 49 60
        E 0 90 4c 60
        E 0 90 55 60
        E 0 90 58 60
        E 0 90 61 60
        E 0 90 64 60
        E 120 80 1a 00
        E 0 80 24 00
        E 0 80 3d 00
        E 0 80 49 00
        E 0 80 4c 00
        E 0 80 55 00
        E 0 80 58 00
        E 0 80 61 00
        E 0 80 64 00
        E 120 90 1b 60
        E 0 90 55 60
        E 0 90 61 60
        E 120 80 1b 00
        E 0 80 55 00
        E 0 80 61 00
        E 0 90 1a 60
        E 0 90 61 60
        E 120 80 1a 00
        E 0 80 61 00
        E 0 90 1b 60
        E 0 90 3d 60
        E 0 90 49 60
        E 0 90 55 60
        E 0 90 61 60
        E 120 80 1b 00
        E 0 80 3d 00
        E 0 80 49 00
        E 0 80 55 00
        E 0 80 61 00
        E 120 90 1a 60
        E 0 90 55 60
        E 0 90 61 60
        E 120 80 1a 00
        E 0 80 55 00
        E 0 80 61 00
        E 120 90 1a 60
        E 0 90 3d 60
        E 0 90 49 60
        E 0 90 55 60
        E 0 90 61 60
        E 120 80 1a 00
        E 0 80 3d 00
        E 0 80 49 00
        E 0 80 55 00
        E 0 80 61 00
        E 120 90 18 60
        E 0 90 54 60
        E 0 90 60 60
        E 120 80 18 00
        E 0 80 54 00
        E 0 80 60 00
        E 120 90 18 60
        E 0 90 24 60
        E 0 90 40 60
        E 0 90 48 60
        E 0 90 4c 60
        E 0 90 54 60
        E 0 90 58 60
        E 0 90 60 60
        E 0 90 64 60
        E 120 80 18 00
        E 0 80 24 00
        E 0 80 40 00
        E 0 80 48 00
        E 0 80 4c 00
        E 0 80 54 00
        E 0 80 58 00
        E 0 80 60 00
        E 0 80 64 00
        E 120 90 18 60
        E 0 90 54 60
        E 0 90 60 60
        E 120 80 18 00
        E 0 80 54 00
        E 0 80 60 00
        E 120 90 18 60
        E 0 90 2e 60
        E 0 90 31 60
        E 0 90 3e 60
        E 0 90 3f 60
        E 0 90 4a 60
        E 0 90 4b 60
        E 0 90 54 60
        E 0 90 56 60
        E 0 90 57 60
        E 0 90 60 60
        E 0 90 62 60
        E 0 90 63 60
        E 0 90 6e 60
        E 0 90 6f 60
        E 120 80 18 00
        E 0 80 2e 00
        E 0 80 31 00
        E 0 80 3e 00
        E 0 80 3f 00
        E 0 80 4a 00
        E 0 80 4b 00
        E 0 80 54 00
        E 0 80 56 00
        E 0 80 57 00
        E 0 80 60 00
        E 0 80 62 00
        E 0 80 63 00
        E 0 80 6e 00
        E 0 80 6f 00
        E 120 90 1a 60
        E 0 90 55 60
        E 0 90 61 60
        E 120 80 1a 00
        E 0 80 55 00
        E 0 80 61 00
        E 120 90 18 60
        E 0 90 3c 60
        E 0 90 48 60
        E 0 90 54 60
        E 0 90 60 60
        E 120 80 18 00
        E 0 80 3c 00
        E 0 80 48 00
        E 0 80 54 00
        E 0 80 60 00
        E 120 90 18 60
        E 0 90 2e 60
        E 0 90 31 60
        E 0 90 54 60
        E 0 90 56 60
        E 0 90 57 60
        E 0 90 60 60
        E 0 90 62 60
        E 0 90 63 60
        E 0 90 6e 60
        E 0 90 6f 60
        E 120 80 18 00
        E 0 80 2e 00
        E 0 80 31 00
        E 0 80 54 00
        E 0 80 56 00
        E 0 80 57 00
        E 0 80 60 00
        E 0 80 62 00
        E 0 80 63 00
        E 0 80 6e 00
        E 0 80 6f 00
        E 120 90 1a 60
        E 0 90 3d 60
        E 0 90 49 60
        E 0 90 55 60
        E 0 90 61 60
        E 120 80 1a 00
        E 0 80 3d 00
        E 0 80 49 00
        E 0 80 55 00
        E 0 80 61 00
        E 120 90 18 60
        E 0 90 54 60
        E 0 90 60 60
        E 120 80 18 00
        E 0 80 54 00
        E 0 80 60 00
        E 0 90 18 60
        E 0 90 60 60
        E 120 80 18 00
        E 0 80 60 00
        E 0 90 1a 60
        E 0 90 3d 60
        E 0 90 49 60
        E 0 90 55 60
        E 0 90 61 60
        E 120 80 1a 00
        E 0 80 3d 00
        E 0 80 49 00
        E 0 80 55 00
        E 0 80 61 00
        E 120 90 18 60
        E 0 90 2e 60
        E 0 90 31 60
        E 0 90 54 60
        E 0 90 56 60
        E 0 90 57 60
        E 0 90 60 60
        E 0 90 62 60
        E 0 90 63 60
        E 0 90 6e 60
        E 0 90 6f 60
        E 120 80 18 00
        E 0 80 2e 00
        E 0 80 31 00
        E 0 80 54 00
        E 0 80 56 00
        E 0 80 57 00
        E 0 80 60 00
        E 0 80 62 00
        E 0 80 63 00
        E 0 80 6e 00
        E 0 80 6f 00
        E 120 90 1a 60
        E 0 90 3d 60
        E 0 90 49 60
        E 0 90 55 60
        E 0 90 61 60
        E 120 80 1a 00
        E 0 80 3d 00
        E 0 80 49 00
        E 0 80 55 00
        E 0 80 61 00
        E 120 90 18 60
        E 0 90 2e 60
        E 0 90 31 60
        E 0 90 54 60
        E 0 90 56 60
        E 0 90 57 60
        E 0 90 60 60
        E 0 90 62 60
        E 0 90 63 60
        E 0 90 6e 60
        E 0 90 6f 60
        E 120 80 18 00
        E 0 80 2e 00
        E 0 80 31 00
        E 0 80 54 00
        E 0 80 56 00
        E 0 80 57 00
        E 0 80 60 00
        E 0 80 62 00
        E 0 80 63 00
        E 0 80 6e 00
        E 0 80 6f 00
        E 120 90 1a 60
        E 0 90 3d 60
        E 0 90 49 60
        E 0 90 55 60
        E 0 90 61 60
        E 120 80 1a 00
        E 0 80 3d 00
        E 0 80 49 00
        E 0 80 55 00
        E 0 80 61 00
        E 120 90 18 60
        E 0 90 54 60
        E 0 90 60 60
        E 120 80 18 00
        E 0 80 54 00
        E 0 80 60 00
        E 120 90 18 60
        E 0 90 2e 60
        E 0 90 31 60
        E 0 90 3e 60
        E 0 90 3f 60
        E 0 90 4a 60
        E 0 90 4b 60
        E 0 90 54 60
        E 0 90 56 60
        E 0 90 57 60
        E 0 90 60 60
        E 0 90 62 60
        E 0 90 63 60
        E 0 90 6e 60
        E 0 90 6f 60
        E 120 80 18 00
        E 0 80 2e 00
        E 0 80 31 00
        E 0 80 3e 00
        E 0 80 3f 00
        E 0 80 4a 00
        E 0 80 4b 00
        E 0 80 54 00
        E 0 80 56 00
        E 0 80 57 00
        E 0 80 60 00
        E 0 80 62 00
        E 0 80 63 00
        E 0 80 6e 00
        E 0 80 6f 00
        E 120 90 1a 60
        E 0 90 55 60
        E 0 90 61 60
        E 120 80 1a 00
        E 0 80 55 00
        E 0 80 61 00
        E 120 90 18 60
        E 0 90 3c 60
        E 0 90 48 60
        E 0 90 54 60
        E 0 90 60 60
        E 120 80 18 00
        E 0 80 3c 00
        E 0 80 48 00
        E 0 80 54 00
        E 0 80 60 00
        E 120 90 18 60
        E 0 90 2e 60
        E 0 90 31 60
        E 0 90 54 60
        E 0 90 56 60
        E 0 90 57 60
        E 0 90 60 60
        E 0 90 62 60
        E 0 90 63 60
        E 0 90 6e 60
        E 0 90 6f 60
        E 120 80 18 00
        E 0 80 2e 00
        E 0 80 31 00
        E 0 80 54 00
        E 0 80 56 00
        E 0 80 57 00
        E 0 80 60 00
        E 0 80 62 00
        E 0 80 63 00
        E 0 80 6e 00
        E 0 80 6f 00
        E 120 90 1a 60
        E 0 90 1b 60
        E 0 90 3d 60
        E 0 90 49 60
        E 0 90 4a 60
        E 0 90 55 60
        E 0 90 56 60
        E 0 90 61 60
        E 0 90 63 60
        E 120 80 1a 00
        E 0 80 1b 00
        E 0 80 3d 00
        E 0 80 49 00
        E 0 80 4a 00
        E 0 80 55 00
        E 0 80 56 00
        E 0 80 61 00
        E 0 80 63 00
        E 120 90 18 60
        E 0 90 54 60
        E 0 90 60 60
        E 120 80 18 00
        E 0 80 54 00
        E 0 80 60 00
        E 120 90 1b 60
        E 0 90 3d 60
        E 0 90 49 60
        E 0 90 55 60
        E 0 90 61 60
        E 120 80 1b 00
        E 0 80 3d 00
        E 0 80 49 00
        E 0 80 55 00
        E 0 80 61 00
        E 0 90 1a 60
        E 0 90 61 60
        E 120 80 1a 00
        E 0 80 61 00
        E 0 90 1b 60
        E 0 90 55 60
        E 0 90 61 60
        E 120 80 1b 00
        E 0 80 55 00
        E 0 80 61 00
        E 0 90 1a 60
        E 0 90 61 60
        E 120 80 1a 00
        E 0 80 61 00
        E 0 90 1b 60
        E 0 90 3d 60
        E 0 90 49 60
        E 0 90 55 60
        E 0 90 61 60
        E 120 80 1b 00
        E 0 80 3d 00
        E 0 80 49 00
        E 0 80 55 00
        E 0 80 61 00
        E 0 90 1a 60
        E 0 90 61 60
        E 120 80 1a 00
        E 0 80 61 00
        E 0 90 1b 60
        E 0 90 55 60
        E 0 90 61 60
        E 120 80 1b 00
        E 0 80 55 00
        E 0 80 61 00
        E 0 90 1a 60
        E 0 90 61 60
        E 120 80 1a 00
        E 0 80 61 00
        E 0 90 18 60
        E 0 90 24 60
        E 0 90 40 60
        E 0 90 48 60
        E 0 90 4c 60
        E 0 90 54 60
        E 0 90 58 60
        E 0 90 60 60
        E 0 90 64 60
        E 0 90 74 60
        E 120 80 18 00
        E 0 80 24 00
        E 0 80 40 00
        E 0 80 48 00
        E 0 80 4c 00
        E 0 80 54 00
        E 0 80 58 00
        E 0 80 60 00
        E 0 80 64 00
        E 120 90 1a 60
        E 0 90 55 60
        E 0 90 61 60
        E 120 80 1a 00
        E 0 80 55 00
        E 0 80 61 00
        E 120 90 18 60
        E 0 90 3c 60
        E 0 90 48 60
        E 0 90 54 60
        E 0 90 60 60
        E 120 80 18 00
        E 0 80 3c 00
        E 0 80 48 00
        E 0 80 54 00
        E 0 80 60 00
        E 0 90 18 60
        E 0 90 60 60
        E 120 80 18 00
        E 0 80 60 00
        E 0 90 1a 60
        E 0 90 24 60
        E 0 90 55 60
        E 0 90 58 60
        E 0 90 61 60
        E 0 90 64 60
        E 120 80 1a 00
        E 0 80 24 00
        E 0 80 55 00
        E 0 80 58 00
        E 0 80 61 00
        E 0 80 64 00
        E 360 90 18 60
        E 0 90 54 60
        E 0 90 60 60
        E 120 80 18 00
        E 0 80 54 00
        E 0 80 60 00
        E 120 90 18 60
        E 0 90 24 60
        E 0 90 40 60
        E 0 90 48 60
        E 0 90 4c 60
        E 0 90 54 60
        E 0 90 58 60
        E 0 90 60 60
        E 0 90 64 60
        E 120 80 18 00
        E 0 80 24 00
        E 0 80 40 00
        E 0 80 48 00
        E 0 80 4c 00
        E 0 80 54 00
        E 0 80 58 00
        E 0 80 60 00
        E 0 80 64 00
        E 120 90 2f 60
        E 0 90 56 60
        E 0 90 62 60
        E 0 90 6e 60
        E 120 80 2f 00
        E 0 80 56 00
        E 0 80 62 00
        E 0 80 6e 00
        E 0 90 2e 60
        E 0 90 62 60
        E 0 90 6e 60
        E 120 80 2e 00
        E 0 80 62 00
        E 0 80 6e 00
        E 0 90 2f 60
        E 0 90 3e 60
        E 0 90 4a 60
        E 0 90 56 60
        E 0 90 62 60
        E 0 90 6e 60
        E 120 80 2f 00
        E 0 80 3e 00
        E 0 80 4a 00
        E 0 80 56 00
        E 0 80 62 00
        E 0 80 6e 00
        E 120 90 2f 60
        E 0 90 56 60
        E 0 90 62 60
        E 0 90 6e 60
        E 120 80 2f 00
        E 0 80 56 00
        E 0 80 62 00
        E 0 80 6e 00
        E 0 90 2e 60
        E 0 90 62 60
        E 0 90 6e 60
        E 120 80 2e 00
        E 0 80 62 00
        E 0 80 6e 00
        E 0 90 2f 60
        E 0 90 3e 60
        E 0 90 4a 60
        E 0 90 56 60
        E 0 90 62 60
        E 0 90 6e 60
        E 120 80 2f 00
        E 0 80 3e 00
        E 0 80 4a 00
        E 0 80 56 00
        E 0 80 62 00
        E 0 80 6e 00
        E 0 90 2e 60
        E 0 90 62 60
        E 0 90 6e 60
        E 120 80 2e 00
        E 0 80 62 00
        E 0 80 6e 00
        E 0 90 2f 60
        E 0 90 56 60
        E 0 90 62 60
        E 0 90 6e 60
        E 120 80 2f 00
        E 0 80 56 00
        E 0 80 62 00
        E 0 80 6e 00
        E 0 90 2e 60
        E 0 90 62 60
        E 0 90 6e 60
        E 120 80 2e 00
        E 0 80 62 00
        E 0 80 6e 00
        E 0 90 18 60
        E 0 90 24 60
        E 0 90 40 60
        E 0 90 48 60
        E 0 90 4c 60
        E 0 90 54 60
        E 0 90 58 60
        E 0 90 60 60
        E 0 90 64 60
        E 120 80 18 00
        E 0 80 24 00
        E 0 80 40 00
        E 0 80 48 00
        E 0 80 4c 00
        E 0 80 54 00
        E 0 80 58 00
        E 0 80 60 00
        E 0 80 64 00
        E 120 90 18 60
        E 0 90 54 60
        E 0 90 60 60
        E 120 80 18 00
        E 0 80 54 00
        E 0 80 60 00
        E 120 90 18 60
        E 0 90 24 60
        E 0 90 40 60
        E 0 90 48 60
        E 0 90 4c 60
        E 0 90 54 60
        E 0 90 58 60
        E 0 90 60 60
        E 0 90 64 60
        E 120 80 18 00
        E 0 80 24 00
        E 0 80 40 00
        E 0 80 48 00
        E 0 80 4c 00
        E 0 80 54 00
        E 0 80 58 00
        E 0 80 60 00
        E 0 80 64 00
        E 120 90 1a 60
        E 0 90 55 60
        E 0 90 61 60
        E 120 80 1a 00
        E 0 80 55 00
        E 0 80 61 00
        E 120 90 24 60
        E 0 90 40 60
        E 0 90 4c 60
        E 0 90 58 60
        E 0 90 64 60
        E 120 80 24 00
        E 0 80 40 00
        E 0 80 4c 00
        E 0 80 58 00
        E 0 80 64 00
        E 120 90 18 60
        E 0 90 54 60
        E 0 90 60 60
        E 120 80 18 00
        E 0 80 54 00
        E 0 80 60 00
        E 120 90 18 60
        E 0 90 24 60
        E 0 90 40 60
        E 0 90 48 60
        E 0 90 4c 60
        E 0 90 54 60
        E 0 90 58 60
        E 0 90 60 60
        E 0 90 64 60
        E 120 80 18 00
        E 0 80 24 00
        E 0 80 40 00
        E 0 80 48 00
        E 0 80 4c 00
        E 0 80 54 00
        E 0 80 58 00
        E 0 80 60 00
        E 0 80 64 00
        E 40 90 1a 60
        E 0 90 61 60
        E 80 80 1a 00
        E 0 80 61 00
        E 80 90 1b 60
        E 0 90 61 60
        E 80 80 1b 00
        E 0 80 61 00
        E 80 90 2e 60
        E 0 90 3e 60
        E 0 90 4a 60
        E 0 90 56 60
        E 0 90 62 60
        E 0 90 6e 60
        E 80 80 2e 00
        E 0 80 3e 00
        E 0 80 4a 00
        E 0 80 56 00
        E 0 80 62 00
        E 0 80 6e 00
        E 80 90 1b 60
        E 0 90 61 60
        E 80 80 1b 00
        E 0 80 61 00
        E 80 90 1a 60
        E 0 90 61 60
        E 80 80 1a 00
        E 0 80 61 00
        E 80 90 1b 60
        E 0 90 3d 60
        E 0 90 49 60
        E 0 90 55 60
        E 0 90 61 60
        E 80 80 1b 00
        E 0 80 3d 00
        E 0 80 49 00
        E 0 80 55 00
        E 0 80 61 00
        E 240 90 1a 60
        E 0 90 61 60
        E 80 80 1a 00
        E 0 80 61 00
        E 80 80 74 00
        E 0 90 18 60
        E 0 90 24 60
        E 0 90 40 60
        E 0 90 48 60
        E 0 90 4c 60
        E 0 90 54 60
        E 0 90 58 60
        E 0 90 60 60
        E 0 90 64 60
        E 120 80 18 00
        E 0 80 24 00
        E 0 80 40 00
        E 0 80 48 00
        E 0 80 4c 00
        E 0 80 54 00
        E 0 80 58 00
        E 0 80 60 00
        E 0 80 64 00
        E 120 90 18 60
        E 0 90 54 60
        E 0 90 60 60
        E 120 80 18 00
        E 0 80 54 00
        E 0 80 60 00
        E 120 90 18 60
        E 0 90 2e 60
        E 0 90 31 60
        E 0 90 3e 60
        E 0 90 3f 60
        E 0 90 4a 60
        E 0 90 4b 60
        E 0 90 54 60
        E 0 90 56 60
        E 0 90 57 60
        E 0 90 60 60
        E 0 90 62 60
        E 0 90 63 60
        E 0 90 6e 60
        E 0 90 6f 60
        E 120 80 18 00
        E 0 80 2e 00
        E 0 80 31 00
        E 0 80 3e 00
        E 0 80 3f 00
        E 0 80 4a 00
        E 0 80 4b 00
        E 0 80 54 00
        E 0 80 56 00
        E 0 80 57 00
        E 0 80 60 00
        E 0 80 62 00
        E 0 80 63 00
        E 0 80 6e 00
        E 0 80 6f 00
        E 120 90 1a 60
        E 0 90 55 60
        E 0 90 61 60
        E 120 80 1a 00
        E 0 80 55 00
        E 0 80 61 00
        E 120 90 18 60
        E 0 90 3c 60
        E 0 90 48 60
        E 0 90 54 60
        E 0 90 60 60
        E 120 80 18 00
        E 0 80 3c 00
        E 0 80 48 00
        E 0 80 54 00
        E 0 80 60 00
        E 120 90 18 60
        E 0 90 2e 60
        E 0 90 31 60
        E 0 90 54 60
        E 0 90 56 60
        E 0 90 57 60
        E 0 90 60 60
        E 0 90 62 60
        E 0 90 63 60
        E 0 90 6e 60
        E 0 90 6f 60
        E 120 80 18 00
        E 0 80 2e 00
        E 0 80 31 00
        E 0 80 54 00
        E 0 80 56 00
        E 0 80 57 00
        E 0 80 60 00
        E 0 80 62 00
        E 0 80 63 00
        E 0 80 6e 00
        E 0 80 6f 00
        E 120 90 1a 60
        E 0 90 3d 60
        E 0 90 49 60
        E 0 90 55 60
        E 0 90 61 60
        E 120 80 1a 00
        E 0 80 3d 00
        E 0 80 49 00
        E 0 80 55 00
        E 0 80 61 00
        E 120 90 18 60
        E 0 90 54 60
        E 0 90 60 60
        E 120 80 18 00
        E 0 80 54 00
        E 0 80 60 00
        E 0 90 18 60
        E 0 90 60 60
        E 120 80 18 00
        E 0 80 60 00
        E 0 90 1a 60
        E 0 90 31 60
        E 0 90 3d 60
        E 0 90 49 60
        E 0 90 4b 60
        E 0 90 55 60
        E 0 90 57 60
        E 0 90 61 60
        E 0 90 63 60
        E 0 90 6f 60
        E 120 80 1a 00
        E 0 80 31 00
        E 0 80 3d 00
        E 0 80 49 00
        E 0 80 4b 00
        E 0 80 55 00
        E 0 80 57 00
        E 0 80 61 00
        E 0 80 63 00
        E 0 80 6f 00
        E 120 90 18 60
        E 0 90 54 60
        E 0 90 60 60
        E 120 80 18 00
        E 0 80 54 00
        E 0 80 60 00
        E 120 90 1a 60
        E 0 90 31 60
        E 0 90 3d 60
        E 0 90 49 60
        E 0 90 4b 60
        E 0 90 55 60
        E 0 90 57 60
        E 0 90 61 60
        E 0 90 63 60
        E 0 90 6f 60
        E 120 80 1a 00
        E 0 80 31 00
        E 0 80 3d 00
        E 0 80 49 00
        E 0 80 4b 00
        E 0 80 55 00
        E 0 80 57 00
        E 0 80 61 00
        E 0 80 63 00
        E 0 80 6f 00
        E 120 90 18 60
        E 0 90 54 60
        E 0 90 60 60
        E 120 80 18 00
        E 0 80 54 00
        E 0 80 60 00
        E 120 90 1a 60
        E 0 90 31 60
        E 0 90 3d 60
        E 0 90 49 60
        E 0 90 4b 60
        E 0 90 55 60
        E 0 90 57 60
        E 0 90 61 60
        E 0 90 63 60
        E 0 90 6f 60
        E 120 80 1a 00
        E 0 80 31 00
        E 0 80 3d 00
        E 0 80 49 00
        E 0 80 4b 00
        E 0 80 55 00
        E 0 80 57 00
        E 0 80 61 00
        E 0 80 63 00
        E 0 80 6f 00
        E 120 90 18 60
        E 0 90 54 60
        E 0 90 60 60
        E 120 80 18 00
        E 0 80 54 00
        E 0 80 60 00
        E 120 90 18 60
        E 0 90 2e 60
        E 0 90 31 60
        E 0 90 3e 60
        E 0 90 3f 60
        E 0 90 4a 60
        E 0 90 4b 60
        E 0 90 54 60
        E 0 90 56 60
        E 0 90 57 60
        E 0 90 60 60
        E 0 90 62 60
        E 0 90 63 60
        E 0 90 6e 60
        E 0 90 6f 60
        E 120 80 18 00
        E 0 80 2e 00
        E 0 80 31 00
        E 0 80 3e 00
        E 0 80 3f 00
        E 0 80 4a 00
        E 0 80 4b 00
        E 0 80 54 00
        E 0 80 56 00
        E 0 80 57 00
        E 0 80 60 00
        E 0 80 62 00
        E 0 80 63 00
        E 0 80 6e 00
        E 0 80 6f 00
        E 120 90 1a 60
        E 0 90 55 60
        E 0 90 61 60
        E 120 80 1a 00
        E 0 80 55 00
        E 0 80 61 00
        E 120 90 2f 60
        E 0 90 3e 60
        E 0 90 4a 60
        E 0 90 56 60
        E 0 90 62 60
        E 0 90 6e 60
        E 120 80 2f 00
        E 0 80 3e 00
        E 0 80 4a 00
        E 0 80 56 00
        E 0 80 62 00
        E 0 80 6e 00
        E 120 90 18 60
        E 0 90 31 60
        E 0 90 54 60
        E 0 90 57 60
        E 0 90 60 60
        E 0 90 63 60
        E 0 90 6f 60
        E 120 80 18 00
        E 0 80 31 00
        E 0 80 54 00
        E 0 80 57 00
        E 0 80 60 00
        E 0 80 63 00
        E 0 80 6f 00
        E 120 90 1a 60
        E 0 90 2a 60
        E 0 90 3d 60
        E 0 90 49 60
        E 0 90 4b 60
        E 0 90 55 60
        E 0 90 57 60
        E 0 90 61 60
        E 0 90 63 60
        E 0 90 78 60
        E 0 90 79 60
        E 0 90 7a 60
        E 0 90 7b 60
        E 0 90 7c 60
        E 120 80 1a 00
        E 0 80 2a 00
        E 0 80 3d 00
        E 0 80 49 00
        E 0 80 4b 00
        E 0 80 55 00
        E 0 80 57 00
        E 0 80 61 00
        E 0 80 63 00
        E 120 90 18 60
        E 0 90 54 60
        E 0 90 60 60
        E 120 80 18 00
        E 0 80 54 00
        E 0 80 60 00
        E 120 90 1b 60
        E 0 90 3d 60
        E 0 90 49 60
        E 0 90 55 60
        E 0 90 61 60
        E 120 80 1b 00
        E 0 80 3d 00
        E 0 80 49 00
        E 0 80 55 00
        E 0 80 61 00
        E 0 90 1a 60
        E 0 90 61 60
        E 120 80 1a 00
        E 0 80 61 00
        E 0 90 1b 60
        E 0 90 55 60
        E 0 90 61 60
        E 120 80 1b 00
        E 0 80 55 00
        E 0 80 61 00
        E 0 90 1a 60
        E 0 90 61 60
        E 120 80 1a 00
        E 0 80 61 00
        E 0 90 1b 60
        E 0 90 3d 60
        E 0 90 49 60
        E 0 90 55 60
        E 0 90 61 60
        E 120 80 1b 00
        E 0 80 3d 00
        E 0 80 49 00
        E 0 80 55 00
        E 0 80 61 00
        E 0 90 1a 60
        E 0 90 61 60
        E 120 80 1a 00
        E 0 80 61 00
        E 0 90 1b 60
        E 0 90 55 60
        E 0 90 61 60
        E 120 80 1b 00
        E 0 80 55 00
        E 0 80 61 00
        E 0 90 1a 60
        E 0 90 61 60
        E 120 80 78 00
        E 0 80 79 00
        E 0 80 7a 00
        E 0 80 7b 00
        E 0 80 7c 00
        E 0 80 1a 00
        E 0 80 61 00
        E 0 90 18 60
        E 0 90 24 60
        E 0 90 40 60
        E 0 90 48 60
        E 0 90 4c 60
        E 0 90 54 60
        E 0 90 58 60
        E 0 90 60 60
        E 0 90 64 60
        E 120 80 18 00
        E 0 80 24 00
        E 0 80 40 00
        E 0 80 48 00
        E 0 80 4c 00
        E 0 80 54 00
        E 0 80 58 00
        E 0 80 60 00
        E 0 80 64 00
        E 120 90 1b 60
        E 0 90 55 60
        E 0 90 61 60
        E 120 80 1b 00
        E 0 80 55 00
        E 0 80 61 00
        E 0 90 1a 60
        E 0 90 61 60
        E 120 80 1a 00
        E 0 80 61 00
        E 0 90 18 60
        E 0 90 3c 60
        E 0 90 48 60
        E 0 90 54 60
        E 0 90 60 60
        E 120 80 18 00
        E 0 80 3c 00
        E 0 80 48 00
        E 0 80 54 00
        E 0 80 60 00
        E 0 90 18 60
        E 0 90 60 60
        E 120 80 18 00
        E 0 80 60 00
        E 0 90 1a 60
        E 0 90 24 60
        E 0 90 55 60
        E 0 90 58 60
        E 0 90 61 60
        E 0 90 64 60
        E 120 80 1a 00
        E 0 80 24 00
        E 0 80 55 00
        E 0 80 58 00
        E 0 80 61 00
        E 0 80 64 00
        E 360 90 18 60
        E 0 90 54 60
        E 0 90 60 60
        E 120 80 18 00
        E 0 80 54 00
        E 0 80 60 00
        E 120 90 1a 60
        E 0 90 24 60
        E 0 90 3d 60
        E 0 90 49 60
        E 0 90 4c 60
        E 0 90 55 60
        E 0 90 58 60
        E 0 90 61 60
        E 0 90 64 60
        E 120 80 1a 00
        E 0 80 24 00
        E 0 80 3d 00
        E 0 80 49 00
        E 0 80 4c 00
        E 0 80 55 00
        E 0 80 58 00
        E 0 80 61 00
        E 0 80 64 00
        E 120 90 18 60
        E 0 90 54 60
        E 0 90 60 60
        E 120 80 18 00
        E 0 80 54 00
        E 0 80 60 00
        E 0 90 18 60
        E 0 90 60 60
        E 120 80 18 00
        E 0 80 60 00
        E 0 90 1a 60
        E 0 90 2a 60
        E 0 90 3d 60
        E 0 90 49 60
        E 0 90 4b 60
        E 0 90 55 60
        E 0 90 57 60
        E 0 90 61 60
        E 0 90 63 60
        E 120 80 1a 00
        E 0 80 2a 00
        E 0 80 3d 00
        E 0 80 49 00
        E 0 80 4b 00
        E 0 80 55 00
        E 0 80 57 00
        E 0 80 61 00
        E 0 80 63 00
        E 120 90 18 60
        E 0 90 54 60
        E 0 90 60 60
        E 120 80 18 00
        E 0 80 54 00
        E 0 80 60 00
        E 120 90 1a 60
        E 0 90 24 60
        E 0 90 3d 60
        E 0 90 49 60
        E 0 90 4c 60
        E 0 90 55 60
        E 0 90 58 60
        E 0 90 61 60
        E 0 90 64 60
        E 120 80 1a 00
        E 0 80 24 00
        E 0 80 3d 00
        E 0 80 49 00
        E 0 80 4c 00
        E 0 80 55 00
        E 0 80 58 00
        E 0 80 61 00
        E 0 80 64 00
        E 360 90 18 60
        E 0 90 24 60
        E 0 90 40 60
        E 0 90 48 60
        E 0 90 4c 60
        E 0 90 54 60
        E 0 90 58 60
        E 0 90 60 60
        E 0 90 64 60
        E 120 80 18 00
        E 0 80 24 00
        E 0 80 40 00
        E 0 80 48 00
        E 0 80 4c 00
        E 0 80 54 00
        E 0 80 58 00
        E 0 80 60 00
        E 0 80 64 00
        E 120 90 18 60
        E 0 90 54 60
        E 0 90 60 60
        E 120 80 18 00
        E 0 80 54 00
        E 0 80 60 00
        E 120 90 18 60
        E 0 90 24 60
        E 0 90 40 60
        E 0 90 48 60
        E 0 90 4c 60
        E 0 90 54 60
        E 0 90 58 60
        E 0 90 60 60
        E 0 90 64 60
        E 120 80 18 00
        E 0 80 24 00
        E 0 80 40 00
        E 0 80 48 00
        E 0 80 4c 00
        E 0 80 54 00
        E 0 80 58 00
        E 0 80 60 00
        E 0 80 64 00
        E 120 90 1a 60
        E 0 90 55 60
        E 0 90 61 60
        E 120 80 1a 00
        E 0 80 55 00
        E 0 80 61 00
        E 120 90 24 60
        E 0 90 40 60
        E 0 90 4c 60
        E 0 90 58 60
        E 0 90 64 60
        E 120 80 24 00
        E 0 80 40 00
        E 0 80 4c 00
        E 0 80 58 00
        E 0 80 64 00
        E 120 90 18 60
        E 0 90 54 60
        E 0 90 60 60
        E 120 80 18 00
        E 0 80 54 00
        E 0 80 60 00
        E 120 90 1a 60
        E 0 90 24 60
        E 0 90 3d 60
        E 0 90 49 60
        E 0 90 4c 60
        E 0 90 55 60
        E 0 90 58 60
        E 0 90 61 60
        E 0 90 64 60
        E 120 80 1a 00
        E 0 80 24 00
        E 0 80 3d 00
        E 0 80 49 00
        E 0 80 4c 00
        E 0 80 55 00
        E 0 80 58 00
        E 0 80 61 00
        E 0 80 64 00
        E 120 90 18 60
        E 0 90 54 60
        E 0 90 60 60
        E 120 80 18 00
        E 0 80 54 00
        E 0 80 60 00
        E 120 90 1a 60
        E 0 90 2a 60
        E 0 90 3d 60
        E 0 90 49 60
        E 0 90 4b 60
        E 0 90 55 60
        E 0 90 57 60
        E 0 90 61 60
        E 0 90 63 60
        E 120 80 1a 00
        E 0 80 2a 00
        E 0 80 3d 00
        E 0 80 49 00
        E 0 80 4b 00
        E 0 80 55 00
        E 0 80 57 00
        E 0 80 61 00
        E 0 80 63 00
        E 120 90 18 60
        E 0 90 54 60
        E 0 90 60 60
        E 120 80 18 00
        E 0 80 54 00
        E 0 80 60 00
        E 120 90 1a 60
        E 0 90 24 60
        E 0 90 3d 60
        E 0 90 49 60
        E 0 90 4c 60
        E 0 90 55 60
        E 0 90 58 60
        E 0 90 61 60
        E 0 90 64 60
        E 120 80 1a 00
        E 0 80 24 00
        E 0 80 3d 00
        E 0 80 49 00
        E 0 80 4c 00
        E 0 80 55 00
        E 0 80 58 00
        E 0 80 61 00
        E 0 80 64 00
        E 240 90 1a 60
        E 0 90 61 60
        E 120 80 1a 00
        E 0 80 61 00
        E 0 90 18 60
        E 0 90 24 60
        E 0 90 40 60
        E 0 90 48 60
        E 0 90 4c 60
        E 0 90 54 60
        E 0 90 58 60
        E 0 90 60 60
        E 0 90 64 60
        E 120 80 18 00
        E 0 80 24 00
        E 0 80 40 00
        E 0 80 48 00
        E 0 80 4c 00
        E 0 80 54 00
        E 0 80 58 00
        E 0 80 60 00
        E 0 80 64 00
        E 120 90 18 60
        E 0 90 54 60
        E 0 90 60 60
        E 120 80 18 00
        E 0 80 54 00
        E 0 80 60 00
        E 120 90 18 60
        E 0 90 24 60
        E 0 90 40 60
        E 0 90 48 60
        E 0 90 4c 60
        E 0 90 54 60
        E 0 90 58 60
        E 0 90 60 60
        E 0 90 64 60
        E 120 80 18 00
        E 0 80 24 00
        E 0 80 40 00
        E 0 80 48 00
        E 0 80 4c 00
        E 0 80 54 00
        E 0 80 58 00
        E 0 80 60 00
        E 0 80 64 00
        E 120 90 1a 60
        E 0 90 55 60
        E 0 90 61 60
        E 120 80 1a 00
        E 0 80 55 00
        E 0 80 61 00
        E 120 90 24 60
        E 0 90 40 60
        E 0 90 4c 60
        E 0 90 58 60
        E 0 90 64 60
        E 120 80 24 00
        E 0 80 40 00
        E 0 80 4c 00
        E 0 80 58 00
        E 0 80 64 00
        E 120 90 18 60
        E 0 90 54 60
        E 0 90 60 60
        E 120 80 18 00
        E 0 80 54 00
        E 0 80 60 00
        E 120 90 18 60
        E 0 90 24 60
        E 0 90 40 60
        E 0 90 48 60
        E 0 90 4c 60
        E 0 90 54 60
        E 0 90 58 60
        E 0 90 60 60
        E 0 90 64 60
        E 120 80 18 00
        E 0 80 24 00
        E 0 80 40 00
        E 0 80 48 00
        E 0 80 4c 00
        E 0 80 54 00
        E 0 80 58 00
        E 0 80 60 00
        E 0 80 64 00
        E 120 90 1b 60
        E 0 90 55 60
        E 0 90 61 60
        E 120 80 1b 00
        E 0 80 55 00
        E 0 80 61 00
        E 0 90 1a 60
        E 0 90 61 60
        E 120 80 1a 00
        E 0 80 61 00
        E 0 90 1b 60
        E 0 90 3d 60
        E 0 90 49 60
        E 0 90 55 60
        E 0 90 61 60
        E 120 80 1b 00
        E 0 80 3d 00
        E 0 80 49 00
        E 0 80 55 00
        E 0 80 61 00
        E 0 90 1a 60
        E 0 90 61 60
        E 120 80 1a 00
        E 0 80 61 00
        E 0 90 1b 60
        E 0 90 55 60
        E 0 90 61 60
        E 120 80 1b 00
        E 0 80 55 00
        E 0 80 61 00
        E 0 90 1a 60
        E 0 90 61 60
        E 120 80 1a 00
        E 0 80 61 00
        E 0 90 1b 60
        E 0 90 3d 60
        E 0 90 49 60
        E 0 90 55 60
        E 0 90 61 60
        E 120 80 1b 00
        E 0 80 3d 00
        E 0 80 49 00
        E 0 80 55 00
        E 0 80 61 00
        E 0 90 1a 60
        E 0 90 61 60
        E 120 80 1a 00
        E 0 80 61 00
        E 0 90 1b 60
        E 0 90 55 60
        E 0 90 61 60
        E 120 80 1b 00
        E 0 80 55 00
        E 0 80 61 00
        E 0 90 1a 60
        E 0 90 61 60
        E 120 80 1a 00
        E 0 80 61 00
        E 0 90 18 60
        E 0 90 24 60
        E 0 90 40 60
        E 0 90 48 60
        E 0 90 4c 60
        E 0 90 54 60
        E 0 90 58 60
        E 0 90 60 60
        E 0 90 64 60
        E 120 80 18 00
        E 0 80 24 00
        E 0 80 40 00
        E 0 80 48 00
        E 0 80 4c 00
        E 0 80 54 00
        E 0 80 58 00
        E 0 80 60 00
        E 0 80 64 00
        E 120 90 18 60
        E 0 90 24 60
        E 0 90 54 60
        E 0 90 58 60
        E 0 90 60 60
        E 0 90 64 60
        E 120 80 18 00
        E 0 80 24 00
        E 0 80 54 00
        E 0 80 58 00
        E 0 80 60 00
        E 0 80 64 00
        E 120 90 18 60
        E 0 90 24 60
        E 0 90 40 60
        E 0 90 48 60
        E 0 90 4c 60
        E 0 90 54 60
        E 0 90 58 60
        E 0 90 60 60
        E 0 90 64 60
        E 120 80 18 00
        E 0 80 24 00
        E 0 80 40 00
        E 0 80 48 00
        E 0 80 4c 00
        E 0 80 54 00
        E 0 80 58 00
        E 0 80 60 00
        E 0 80 64 00
        E 120 90 1a 60
        E 0 90 55 60
        E 0 90 61 60
        E 120 80 1a 00
        E 0 80 55 00
        E 0 80 61 00
        E 120 90 24 60
        E 0 90 40 60
        E 0 90 4c 60
        E 0 90 58 60
        E 0 90 64 60
        E 120 80 24 00
        E 0 80 40 00
        E 0 80 4c 00
        E 0 80 58 00
        E 0 80 64 00
        E 120 90 18 60
        E 0 90 54 60
        E 0 90 60 60
        E 120 80 18 00
        E 0 80 54 00
        E 0 80 60 00
        E 120 90 1a 60
        E 0 90 24 60
        E 0 90 3d 60
        E 0 90 49 60
        E 0 90 4c 60
        E 0 90 55 60
        E 0 90 58 60
        E 0 90 61 60
        E 0 90 64 60
        E 120 80 1a 00
        E 0 80 24 00
        E 0 80 3d 00
        E 0 80 49 00
        E 0 80 4c 00
        E 0 80 55 00
        E 0 80 58 00
        E 0 80 61 00
        E 0 80 64 00
        E 120 90 18 60
        E 0 90 54 60
        E 0 90 60 60
        E 120 80 18 00
        E 0 80 54 00
        E 0 80 60 00
        E 120 90 2e 60
        E 0 90 33 60
        E 0 90 3e 60
        E 0 90 40 60
        E 0 90 4a 60
        E 0 90 4c 60
        E 0 90 56 60
        E 0 90 58 60
        E 0 90 62 60
        E 0 90 64 60
        E 0 90 6e 60
        E 120 80 2e 00
        E 0 80 33 00
        E 0 80 3e 00
        E 0 80 40 00
        E 0 80 4a 00
        E 0 80 4c 00
        E 0 80 56 00
        E 0 80 58 00
        E 0 80 62 00
        E 0 80 64 00
        E 0 80 6e 00
        E 120 90 18 60
        E 0 90 54 60
        E 0 90 60 60
        E 120 80 18 00
        E 0 80 54 00
        E 0 80 60 00
        E 120 90 1a 60
        E 0 90 24 60
        E 0 90 3d 60
        E 0 90 49 60
        E 0 90 4c 60
        E 0 90 55 60
        E 0 90 58 60
        E 0 90 61 60
        E 0 90 64 60
        E 120 80 1a 00
        E 0 80 24 00
        E 0 80 3d 00
        E 0 80 49 00
        E 0 80 4c 00
        E 0 80 55 00
        E 0 80 58 00
        E 0 80 61 00
        E 0 80 64 00
        E 360 90 18 60
        E 0 90 24 60
        E 0 90 40 60
        E 0 90 48 60
        E 0 90 4c 60
        E 0 90 54 60
        E 0 90 58 60
        E 0 90 60 60
        E 0 90 64 60
        E 120 80 18 00
        E 0 80 24 00
        E 0 80 40 00
        E 0 80 48 00
        E 0 80 4c 00
        E 0 80 54 00
        E 0 80 58 00
        E 0 80 60 00
        E 0 80 64 00
        E 120 90 1b 60
        E 0 90 55 60
        E 0 90 61 60
        E 120 80 1b 00
        E 0 80 55 00
        E 0 80 61 00
        E 0 90 1a 60
        E 0 90 61 60
        E 120 80 1a 00
        E 0 80 61 00
        E 0 90 18 60
        E 0 90 3c 60
        E 0 90 48 60
        E 0 90 54 60
        E 120 80 18 00
        E 0 80 3c 00
        E 0 80 48 00
        E 0 80 54 00
        E 0 90 18 60
        E 0 90 60 60
        E 120 80 18 00
        E 0 80 60 00
        E 0 90 1a 60
        E 0 90 24 60
        E 0 90 55 60
        E 0 90 58 60
        E 0 90 61 60
        E 0 90 64 60
        E 120 80 1a 00
        E 0 80 24 00
        E 0 80 55 00
        E 0 80 58 00
        E 0 80 61 00
        E 0 80 64 00
        E 360 90 18 60
        E 0 90 2a 60
        E 0 90 54 60
        E 0 90 57 60
        E 0 90 60 60
        E 0 90 63 60
        E 120 80 18 00
        E 0 80 2a 00
        E 0 80 54 00
        E 0 80 57 00
        E 0 80 60 00
        E 0 80 63 00
        E 120 90 18 60
        E 0 90 24 60
        E 0 90 40 60
        E 0 90 48 60
        E 0 90 4c 60
        E 0 90 54 60
        E 0 90 58 60
        E 0 90 60 60
        E 0 90 64 60
        E 120 80 18 00
        E 0 80 24 00
        E 0 80 40 00
        E 0 80 48 00
        E 0 80 4c 00
        E 0 80 54 00
        E 0 80 58 00
        E 0 80 60 00
        E 0 80 64 00
        E 120 90 1b 60
        E 0 90 55 60
        E 0 90 61 60
        E 120 80 1b 00
        E 0 80 55 00
        E 0 80 61 00
        E 0 90 1a 60
        E 0 90 61 60
        E 120 80 1a 00
        E 0 80 61 00
        E 0 90 1b 60
        E 0 90 3d 60
        E 0 90 49 60
        E 0 90 55 60
        E 0 90 61 60
        E 120 80 1b 00
        E 0 80 3d 00
        E 0 80 49 00
        E 0 80 55 00
        E 0 80 61 00
        E 0 90 1a 60
        E 0 90 61 60
        E 120 80 1a 00
        E 0 80 61 00
        E 0 90 1b 60
        E 0 90 55 60
        E 0 90 61 60
        E 120 80 1b 00
        E 0 80 55 00
        E 0 80 61 00
        E 0 90 1a 60
        E 0 90 61 60
        E 120 80 1a 00
        E 0 80 61 00
        E 0 90 2f 60
        E 0 90 3e 60
        E 0 90 4a 60
        E 0 90 56 60
        E 0 90 62 60
        E 0 90 6e 60
        E 120 80 2f 00
        E 0 80 3e 00
        E 0 80 4a 00
        E 0 80 56 00
        E 0 80 62 00
        E 0 80 6e 00
        E 0 90 2e 60
        E 0 90 62 60
        E 0 90 6e 60
        E 120 80 2e 00
        E 0 80 62 00
        E 0 80 6e 00
        E 0 90 31 60
        E 0 90 57 60
        E 0 90 63 60
        E 0 90 6f 60
        E 120 80 31 00
        E 0 80 57 00
        E 0 80 63 00
        E 0 80 6f 00
        E 0 90 30 60
        E 0 90 63 60
        E 0 90 6f 60
        E 120 80 30 00
        E 0 80 63 00
        E 0 80 6f 00
        E 0 90 18 60
        E 0 90 24 60
        E 0 90 40 60
        E 0 90 48 60
        E 0 90 4c 60
        E 0 90 54 60
        E 0 90 58 60
        E 0 90 60 60
        E 0 90 64 60
        E 120 80 18 00
        E 0 80 24 00
        E 0 80 40 00
        E 0 80 48 00
        E 0 80 4c 00
        E 0 80 54 00
        E 0 80 58 00
        E 0 80 60 00
        E 0 80 64 00
        E 120 90 1b 60
        E 0 90 55 60
        E 0 90 61 60
        E 120 80 1b 00
        E 0 80 55 00
        E 0 80 61 00
        E 0 90 1a 60
        E 0 90 61 60
        E 120 80 1a 00
        E 0 80 61 00
        E 0 90 18 60
        E 0 90 3c 60
        E 0 90 48 60
        E 0 90 54 60
        E 120 80 18 00
        E 0 80 3c 00
        E 0 80 48 00
        E 0 80 54 00
        E 0 90 18 60
        E 0 90 60 60
        E 120 80 18 00
        E 0 80 60 00
        E 0 90 1a 60
        E 0 90 24 60
        E 0 90 55 60
        E 0 90 58 60
        E 0 90 61 60
        E 0 90 64 60
        E 120 80 1a 00
        E 0 80 24 00
        E 0 80 55 00
        E 0 80 58 00
        E 0 80 61 00
        E 0 80 64 00
        E 360 90 18 60
        E 0 90 24 60
        E 0 90 54 60
        E 0 90 58 60
        E 0 90 60 60
        E 0 90 64 60
        E 120 80 18 00
        E 0 80 24 00
        E 0 80 54 00
        E 0 80 58 00
        E 0 80 60 00
        E 0 80 64 00
        E 120 90 18 60
        E 0 90 24 60
        E 0 90 40 60
        E 0 90 48 60
        E 0 90 4c 60
        E 0 90 54 60
        E 0 90 58 60
        E 0 90 60 60
        E 0 90 64 60
        E 120 80 18 00
        E 0 80 24 00
        E 0 80 40 00
        E 0 80 48 00
        E 0 80 4c 00
        E 0 80 54 00
        E 0 80 58 00
        E 0 80 60 00
        E 0 80 64 00
        E 120 90 1b 60
        E 0 90 55 60
        E 0 90 61 60
        E 120 80 1b 00
        E 0 80 55 00
        E 0 80 61 00
        E 0 90 1a 60
        E 0 90 61 60
        E 120 80 1a 00
        E 0 80 61 00
        E 0 90 1b 60
        E 0 90 3d 60
        E 0 90 49 60
        E 0 90 55 60
        E 0 90 61 60
        E 120 80 1b 00
        E 0 80 3d 00
        E 0 80 49 00
        E 0 80 55 00
        E 0 80 61 00
        E 0 90 1a 60
        E 0 90 61 60
        E 120 80 1a 00
        E 0 80 61 00
        E 0 90 1b 60
        E 0 90 55 60
        E 0 90 61 60
        E 120 80 1b 00
        E 0 80 55 00
        E 0 80 61 00
        E 0 90 1a 60
        E 0 90 61 60
        E 120 80 1a 00
        E 0 80 61 00
        E 0 90 2f 60
        E 0 90 3e 60
        E 0 90 4a 60
        E 0 90 56 60
        E 0 90 62 60
        E 0 90 6e 60
        E 120 80 2f 00
        E 0 80 3e 00
        E 0 80 4a 00
        E 0 80 56 00
        E 0 80 62 00
        E 0 80 6e 00
        E 0 90 2e 60
        E 0 90 62 60
        E 0 90 6e 60
        E 120 80 2e 00
        E 0 80 62 00
        E 0 80 6e 00
        E 0 90 31 60
        E 0 90 57 60
        E 0 90 63 60
        E 0 90 6f 60
        E 120 80 31 00
        E 0 80 57 00
        E 0 80 63 00
        E 0 80 6f 00
        E 0 90 30 60
        E 0 90 63 60
        E 0 90 6f 60
        E 120 80 30 00
        E 0 80 63 00
        E 0 80 6f 00
        E 0 90 18 60
        E 0 90 24 60
        E 0 90 40 60
        E 0 90 48 60
        E 0 90 4c 60
        E 0 90 54 60
        E 0 90 58 60
        E 0 90 60 60
        E 0 90 64 60
        E 120 80 18 00
        E 0 80 24 00
        E 0 80 40 00
        E 0 80 48 00
        E 0 80 4c 00
        E 0 80 54 00
        E 0 80 58 00
        E 0 80 60 00
        E 0 80 64 00
        E 120 90 1b 60
        E 0 90 55 60
        E 0 90 61 60
        E 120 80 1b 00
        E 0 80 55 00
        E 0 80 61 00
        E 0 90 1a 60
        E 0 90 61 60
        E 120 80 1a 00
        E 0 80 61 00
        E 0 90 18 60
        E 0 90 3c 60
        E 0 90 48 60
        E 0 90 54 60
        E 120 80 18 00
        E 0 80 3c 00
        E 0 80 48 00
        E 0 80 54 00
        E 0 90 18 60
        E 0 90 60 60
        E 120 80 18 00
        E 0 80 60 00
        E 0 90 1a 60
        E 0 90 24 60
        E 0 90 55 60
        E 0 90 58 60
        E 0 90 61 60
        E 0 90 64 60
        E 120 80 1a 00
        E 0 80 24 00
        E 0 80 55 00
        E 0 80 58 00
        E 0 80 61 00
        E 0 80 64 00
        E 360 90 18 60
        E 0 90 24 60
        E 0 90 54 60
        E 0 90 58 60
        E 0 90 60 60
        E 0 90 64 60
        E 120 80 18 00
        E 0 80 24 00
        E 0 80 54 00
        E 0 80 58 00
        E 0 80 60 00
        E 0 80 64 00
        E 120 90 18 60
        E 0 90 24 60
        E 0 90 40 60
        E 0 90 48 60
        E 0 90 4c 60
        E 0 90 54 60
        E 0 90 58 60
        E 0 90 60 60
        E 0 90 64 60
        E 120 80 18 00
        E 0 80 24 00
        E 0 80 40 00
        E 0 80 48 00
        E 0 80 4c 00
        E 0 80 54 00
        E 0 80 58 00
        E 0 80 60 00
        E 0 80 64 00
        E 120 90 1b 60
        E 0 90 55 60
        E 0 90 61 60
        E 120 80 1b 00
        E 0 80 55 00
        E 0 80 61 00
        E 0 90 1a 60
        E 0 90 61 60
        E 120 80 1a 00
        E 0 80 61 00
        E 0 90 1b 60
        E 0 90 3d 60
        E 0 90 49 60
        E 0 90 55 60
        E 0 90 61 60
        E 120 80 1b 00
        E 0 80 3d 00
        E 0 80 49 00
        E 0 80 55 00
        E 0 80 61 00
        E 0 90 1a 60
        E 0 90 61 60
        E 120 80 1a 00
        E 0 80 61 00
        E 0 90 1b 60
        E 0 90 55 60
        E 0 90 61 60
        E 120 80 1b 00
        E 0 80 55 00
        E 0 80 61 00
        E 0 90 1a 60
        E 0 90 61 60
        E 120 80 1a 00
        E 0 80 61 00
        E 0 90 1b 60
        E 0 90 3d 60
        E 0 90 49 60
        E 0 90 55 60
        E 0 90 61 60
        E 120 80 1b 00
        E 0 80 3d 00
        E 0 80 49 00
        E 0 80 55 00
        E 0 80 61 00
        E 0 90 1a 60
        E 0 90 61 60
        E 120 80 1a 00
        E 0 80 61 00
        E 0 90 1b 60
        E 0 90 55 60
        E 0 90 61 60
        E 120 80 1b 00
        E 0 80 55 00
        E 0 80 61 00
        E 0 90 1a 60
        E 0 90 61 60
        E 120 80 1a 00
        E 0 80 61 00
        E 0 90 18 60
        E 0 90 24 60
        E 0 90 40 60
        E 0 90 48 60
        E 0 90 4c 60
        E 0 90 54 60
        E 0 90 58 60
        E 0 90 60 60
        E 0 90 64 60
        E 120 80 18 00
        E 0 80 24 00
        E 0 80 40 00
        E 0 80 48 00
        E 0 80 4c 00
        E 0 80 54 00
        E 0 80 58 00
        E 0 80 60 00
        E 0 80 64 00
        E 120 90 1b 60
        E 0 90 55 60
        E 0 90 61 60
        E 120 80 1b 00
        E 0 80 55 00
        E 0 80 61 00
        E 0 90 1a 60
        E 0 90 61 60
        E 120 80 1a 00
        E 0 80 61 00
        E 0 90 18 60
        E 0 90 3c 60
        E 0 90 48 60
        E 0 90 54 60
        E 120 80 18 00
        E 0 80 3c 00
        E 0 80 48 00
        E 0 80 54 00
        E 0 90 18 60
        E 0 90 60 60
        E 120 80 18 00
        E 0 80 60 00
        E 0 90 1a 60
        E 0 90 24 60
        E 0 90 55 60
        E 0 90 58 60
        E 0 90 61 60
        E 0 90 64 60
        E 120 80 1a 00
        E 0 80 24 00
        E 0 80 55 00
        E 0 80 58 00
        E 0 80 61 00
        E 0 80 64 00
        E 360 90 18 60
        E 0 90 24 60
        E 0 90 54 60
        E 0 90 58 60
        E 0 90 60 60
        E 0 90 64 60
        E 120 80 18 00
        E 0 80 24 00
        E 0 80 54 00
        E 0 80 58 00
        E 0 80 60 00
        E 0 80 64 00
        E 120 90 18 60
        E 0 90 24 60
        E 0 90 40 60
        E 0 90 48 60
        E 0 90 4c 60
        E 0 90 54 60
        E 0 90 58 60
        E 0 90 60 60
        E 0 90 64 60
        E 120 80 18 00
        E 0 80 24 00
        E 0 80 40 00
        E 0 80 48 00
        E 0 80 4c 00
        E 0 80 54 00
        E 0 80 58 00
        E 0 80 60 00
        E 0 80 64 00
        E 120 90 1b 60
        E 0 90 55 60
        E 0 90 61 60
        E 120 80 1b 00
        E 0 80 55 00
        E 0 80 61 00
        E 0 90 1a 60
        E 0 90 61 60
        E 120 80 1a 00
        E 0 80 61 00
        E 0 90 1b 60
        E 0 90 3d 60
        E 0 90 49 60
        E 0 90 55 60
        E 0 90 61 60
        E 120 80 1b 00
        E 0 80 3d 00
        E 0 80 49 00
        E 0 80 55 00
        E 0 80 61 00
        E 0 90 1a 60
        E 0 90 61 60
        E 120 80 1a 00
        E 0 80 61 00
        E 0 90 1b 60
        E 0 90 55 60
        E 0 90 61 60
        E 120 80 1b 00
        E 0 80 55 00
        E 0 80 61 00
        E 0 90 1a 60
        E 0 90 61 60
        E 120 80 1a 00
        E 0 80 61 00
        E 0 90 1b 60
        E 0 90 3d 60
        E 0 90 49 60
        E 0 90 55 60
        E 0 90 61 60
        E 120 80 1b 00
        E 0 80 3d 00
        E 0 80 49 00
        E 0 80 55 00
        E 0 80 61 00
        E 0 90 1a 60
        E 0 90 61 60
        E 120 80 1a 00
        E 0 80 61 00
        E 0 90 1b 60
        E 0 90 55 60
        E 0 90 61 60
        E 120 80 1b 00
        E 0 80 55 00
        E 0 80 61 00
        E 0 90 1a 60
        E 0 90 61 60
        E 120 80 1a 00
        E 0 80 61 00
        E 0 90 18 60
        E 0 90 1f 60
        E 0 90 3e 60
        E 0 90 48 60
        E 0 90 4a 60
        E 0 90 54 60
        E 0 90 56 60
        E 0 90 60 60
        E 0 90 62 60
        E 0 90 74 60
        E 120 80 18 00
        E 0 80 1f 00
        E 0 80 3e 00
        E 0 80 48 00
        E 0 80 4a 00
        E 0 80 54 00
        E 0 80 56 00
        E 0 80 60 00
        E 0 80 62 00
        E 0 90 18 60
        E 120 80 18 00
        E 0 90 18 60
        E 0 90 54 60
        E 0 90 60 60
        E 120 80 18 00
        E 0 80 54 00
        E 0 80 60 00
        E 0 90 18 60
        E 120 80 18 00
        E 0 90 1f 60
        E 0 90 3e 60
        E 0 90 4a 60
        E 0 90 56 60
        E 0 90 62 60
        E 120 80 1f 00
        E 0 80 3e 00
        E 0 80 4a 00
        E 0 80 56 00
        E 0 80 62 00
        E 120 90 1a 60
        E 0 90 55 60
        E 0 90 61 60
        E 120 80 1a 00
        E 0 80 55 00
        E 0 80 61 00
        E 120 90 1f 60
        E 0 90 3e 60
        E 0 90 4a 60
        E 0 90 56 60
        E 0 90 62 60
        E 120 80 1f 00
        E 0 80 3e 00
        E 0 80 4a 00
        E 0 80 56 00
        E 0 80 62 00
        E 120 90 18 60
        E 0 90 54 60
        E 0 90 60 60
        E 120 80 18 00
        E 0 80 54 00
        E 0 80 60 00
        E 120 90 1a 60
        E 0 90 1f 60
        E 0 90 3d 60
        E 0 90 49 60
        E 0 90 4a 60
        E 0 90 55 60
        E 0 90 56 60
        E 0 90 61 60
        E 0 90 62 60
        E 120 80 1a 00
        E 0 80 1f 00
        E 0 80 3d 00
        E 0 80 49 00
        E 0 80 4a 00
        E 0 80 55 00
        E 0 80 56 00
        E 0 80 61 00
        E 0 80 62 00
        E 240 90 1a 60
        E 0 90 61 60
        E 120 80 1a 00
        E 0 80 61 00
        E 0 90 18 60
        E 0 90 1f 60
        E 0 90 3e 60
        E 0 90 48 60
        E 0 90 4a 60
        E 0 90 54 60
        E 0 90 56 60
        E 0 90 60 60
        E 0 90 62 60
        E 120 80 18 00
        E 0 80 1f 00
        E 0 80 3e 00
        E 0 80 48 00
        E 0 80 4a 00
        E 0 80 54 00
        E 0 80 56 00
        E 0 80 60 00
        E 0 80 62 00
        E 0 90 18 60
        E 120 80 18 00
        E 0 90 18 60
        E 0 90 54 60
        E 0 90 60 60
        E 120 80 18 00
        E 0 80 54 00
        E 0 80 60 00
        E 0 90 18 60
        E 120 80 18 00
        E 0 90 1f 60
        E 0 90 3e 60
        E 0 90 4a 60
        E 0 90 56 60
        E 0 90 62 60
        E 120 80 1f 00
        E 0 80 3e 00
        E 0 80 4a 00
        E 0 80 56 00
        E 0 80 62 00
        E 120 90 1a 60
        E 0 90 55 60
        E 0 90 61 60
        E 120 80 1a 00
        E 0 80 55 00
        E 0 80 61 00
        E 120 90 1f 60
        E 0 90 3e 60
        E 0 90 4a 60
        E 0 90 56 60
        E 0 90 62 60
        E 120 80 1f 00
        E 0 80 3e 00
        E 0 80 4a 00
        E 0 80 56 00
        E 0 80 62 00
        E 120 90 18 60
        E 0 90 54 60
        E 0 90 60 60
        E 120 80 18 00
        E 0 80 54 00
        E 0 80 60 00
        E 0 90 18 60
        E 0 90 60 60
        E 120 80 18 00
        E 0 80 60 00
        E 0 90 1a 60
        E 0 90 1f 60
        E 0 90 3d 60
        E 0 90 49 60
        E 0 90 4a 60
        E 0 90 55 60
        E 0 90 56 60
        E 0 90 61 60
        E 0 90 62 60
        E 120 80 1a 00
        E 0 80 1f 00
        E 0 80 3d 00
        E 0 80 49 00
        E 0 80 4a 00
        E 0 80 55 00
        E 0 80 56 00
        E 0 80 61 00
        E 0 80 62 00
        E 120 90 1f 60
        E 0 90 56 60
        E 0 90 62 60
        E 120 80 1f 00
        E 0 80 56 00
        E 0 80 62 00
        E 120 90 18 60
        E 0 90 1f 60
        E 0 90 3e 60
        E 0 90 48 60
        E 0 90 4a 60
        E 0 90 54 60
        E 0 90 56 60
        E 0 90 60 60
        E 0 90 62 60
        E 120 80 18 00
        E 0 80 1f 00
        E 0 80 3e 00
        E 0 80 48 00
        E 0 80 4a 00
        E 0 80 54 00
        E 0 80 56 00
        E 0 80 60 00
        E 0 80 62 00
        E 120 90 18 60
        E 0 90 54 60
        E 0 90 60 60
        E 120 80 18 00
        E 0 80 54 00
        E 0 80 60 00
        E 0 90 18 60
        E 0 90 60 60
        E 120 80 18 00
        E 0 80 60 00
        E 0 90 1f 60
        E 0 90 3e 60
        E 0 90 4a 60
        E 0 90 56 60
        E 0 90 62 60
        E 120 80 1f 00
        E 0 80 3e 00
        E 0 80 4a 00
        E 0 80 56 00
        E 0 80 62 00
        E 120 90 1a 60
        E 0 90 55 60
        E 0 90 61 60
        E 120 80 1a 00
        E 0 80 55 00
        E 0 80 61 00
        E 120 90 1f 60
        E 0 90 3e 60
        E 0 90 4a 60
        E 0 90 56 60
        E 0 90 62 60
        E 120 80 1f 00
        E 0 80 3e 00
        E 0 80 4a 00
        E 0 80 56 00
        E 0 80 62 00
        E 120 90 18 60
        E 0 90 54 60
        E 0 90 60 60
        E 120 80 18 00
        E 0 80 54 00
        E 0 80 60 00
        E 120 90 1a 60
        E 0 90 1f 60
        E 0 90 3d 60
        E 0 90 49 60
        E 0 90 4a 60
        E 0 90 55 60
        E 0 90 56 60
        E 0 90 61 60
        E 0 90 62 60
        E 120 80 1a 00
        E 0 80 1f 00
        E 0 80 3d 00
        E 0 80 49 00
        E 0 80 4a 00
        E 0 80 55 00
        E 0 80 56 00
        E 0 80 61 00
        E 0 80 62 00
        E 360 80 74 00
        E 0 90 18 60
        E 0 90 1f 60
        E 0 90 3e 60
        E 0 90 48 60
        E 0 90 4a 60
        E 0 90 54 60
        E 0 90 56 60
        E 0 90 60 60
        E 0 90 62 60
        E 120 80 18 00
        E 0 80 1f 00
        E 0 80 3e 00
        E 0 80 48 00
        E 0 80 4a 00
        E 0 80 54 00
        E 0 80 56 00
        E 0 80 60 00
        E 0 80 62 00
        E 0 90 18 60
        E 120 80 18 00
        E 0 90 18 60
        E 0 90 54 60
        E 0 90 60 60
        E 120 80 18 00
        E 0 80 54 00
        E 0 80 60 00
        E 0 90 18 60
        E 120 80 18 00
        E 0 90 1f 60
        E 0 90 3e 60
        E 0 90 4a 60
        E 0 90 56 60
        E 0 90 62 60
        E 120 80 1f 00
        E 0 80 3e 00
        E 0 80 4a 00
        E 0 80 56 00
        E 0 80 62 00
        E 120 90 1a 60
        E 0 90 55 60
        E 0 90 61 60
        E 120 80 1a 00
        E 0 80 55 00
        E 0 80 61 00
        E 120 90 1f 60
        E 0 90 3e 60
        E 0 90 4a 60
        E 0 90 56 60
        E 0 90 62 60
        E 120 80 1f 00
        E 0 80 3e 00
        E 0 80 4a 00
        E 0 80 56 00
        E 0 80 62 00
        E 120 90 18 60
        E 0 90 54 60
        E 0 90 60 60
        E 120 80 18 00
        E 0 80 54 00
        E 0 80 60 00
        E 120 90 1a 60
        E 0 90 1f 60
        E 0 90 3d 60
        E 0 90 49 60
        E 0 90 4a 60
        E 0 90 55 60
        E 0 90 56 60
        E 0 90 61 60
        E 0 90 62 60
        E 120 80 1a 00
        E 0 80 1f 00
        E 0 80 3d 00
        E 0 80 49 00
        E 0 80 4a 00
        E 0 80 55 00
        E 0 80 56 00
        E 0 80 61 00
        E 0 80 62 00
        E 120 90 1b 60
        E 0 90 55 60
        E 0 90 61 60
        E 120 80 1b 00
        E 0 80 55 00
        E 0 80 61 00
        E 0 90 1a 60
        E 0 90 61 60
        E 120 80 1a 00
        E 0 80 61 00
        E 0 90 18 60
        E 0 90 24 60
        E 0 90 40 60
        E 0 90 48 60
        E 0 90 4c 60
        E 0 90 54 60
        E 0 90 58 60
        E 0 90 60 60
        E 0 90 64 60
        E 120 80 18 00
        E 0 80 24 00
        E 0 80 40 00
        E 0 80 48 00
        E 0 80 4c 00
        E 0 80 54 00
        E 0 80 58 00
        E 0 80 60 00
        E 0 80 64 00
        E 120 90 18 60
        E 0 90 54 60
        E 0 90 60 60
        E 120 80 18 00
        E 0 80 54 00
        E 0 80 60 00
        E 120 90 18 60
        E 0 90 1f 60
        E 0 90 3e 60
        E 0 90 48 60
        E 0 90 4a 60
        E 0 90 54 60
        E 0 90 56 60
        E 0 90 60 60
        E 0 90 62 60
        E 120 80 18 00
        E 0 80 1f 00
        E 0 80 3e 00
        E 0 80 48 00
        E 0 80 4a 00
        E 0 80 54 00
        E 0 80 56 00
        E 0 80 60 00
        E 0 80 62 00
        E 120 90 1a 60
        E 0 90 55 60
        E 0 90 61 60
        E 120 80 1a 00
        E 0 80 55 00
        E 0 80 61 00
        E 120 90 1f 60
        E 0 90 3e 60
        E 0 90 4a 60
        E 0 90 56 60
        E 0 90 62 60
        E 120 80 1f 00
        E 0 80 3e 00
        E 0 80 4a 00
        E 0 80 56 00
        E 0 80 62 00
        E 120 90 18 60
        E 0 90 54 60
        E 0 90 60 60
        E 120 80 18 00
        E 0 80 54 00
        E 0 80 60 00
        E 120 90 1a 60
        E 0 90 1f 60
        E 0 90 3d 60
        E 0 90 49 60
        E 0 90 4a 60
        E 0 90 55 60
        E 0 90 56 60
        E 0 90 61 60
        E 0 90 62 60
        E 120 80 1a 00
        E 0 80 1f 00
        E 0 80 3d 00
        E 0 80 49 00
        E 0 80 4a 00
        E 0 80 55 00
        E 0 80 56 00
        E 0 80 61 00
        E 0 80 62 00
        E 360 90 18 60
        E 0 90 1f 60
        E 0 90 3e 60
        E 0 90 48 60
        E 0 90 4a 60
        E 0 90 54 60
        E 0 90 56 60
        E 0 90 60 60
        E 0 90 62 60
        E 120 80 18 00
        E 0 80 1f 00
        E 0 80 3e 00
        E 0 80 48 00
        E 0 80 4a 00
        E 0 80 54 00
        E 0 80 56 00
        E 0 80 60 00
        E 0 80 62 00
        E 0 90 18 60
        E 120 80 18 00
        E 0 90 18 60
        E 0 90 54 60
        E 0 90 60 60
        E 120 80 18 00
        E 0 80 54 00
        E 0 80 60 00
        E 0 90 18 60
        E 120 80 18 00
        E 0 90 1f 60
        E 0 90 3e 60
        E 0 90 4a 60
        E 0 90 56 60
        E 0 90 62 60
        E 120 80 1f 00
        E 0 80 3e 00
        E 0 80 4a 00
        E 0 80 56 00
        E 0 80 62 00
        E 120 90 1a 60
        E 0 90 55 60
        E 0 90 61 60
        E 120 80 1a 00
        E 0 80 55 00
        E 0 80 61 00
        E 120 90 1f 60
        E 0 90 3e 60
        E 0 90 4a 60
        E 0 90 56 60
        E 0 90 62 60
        E 120 80 1f 00
        E 0 80 3e 00
        E 0 80 4a 00
        E 0 80 56 00
        E 0 80 62 00
        E 120 90 18 60
        E 0 90 54 60
        E 0 90 60 60
        E 120 80 18 00
        E 0 80 54 00
        E 0 80 60 00
        E 120 90 1a 60
        E 0 90 1f 60
        E 0 90 3d 60
        E 0 90 49 60
        E 0 90 4a 60
        E 0 90 55 60
        E 0 90 56 60
        E 0 90 61 60
        E 0 90 62 60
        E 120 80 1a 00
        E 0 80 1f 00
        E 0 80 3d 00
        E 0 80 49 00
        E 0 80 4a 00
        E 0 80 55 00
        E 0 80 56 00
        E 0 80 61 00
        E 0 80 62 00
        E 120 90 1f 60
        E 0 90 56 60
        E 0 90 62 60
        E 120 80 1f 00
        E 0 80 56 00
        E 0 80 62 00
        E 120 90 18 60
        E 0 90 1f 60
        E 0 90 3e 60
        E 0 90 48 60
        E 0 90 4a 60
        E 0 90 54 60
        E 0 90 56 60
        E 0 90 60 60
        E 0 90 62 60
        E 0 90 78 60
        E 0 90 79 60
        E 0 90 7a 60
        E 0 90 7b 60
        E 0 90 7c 60
        E 120 80 18 00
        E 0 80 1f 00
        E 0 80 3e 00
        E 0 80 48 00
        E 0 80 4a 00
        E 0 80 54 00
        E 0 80 56 00
        E 0 80 60 00
        E 0 80 62 00
        E 120 90 1b 60
        E 0 90 55 60
        E 0 90 61 60
        E 120 80 1b 00
        E 0 80 55 00
        E 0 80 61 00
        E 0 90 1a 60
        E 0 90 61 60
        E 120 80 1a 00
        E 0 80 61 00
        E 0 90 1b 60
        E 0 90 3d 60
        E 0 90 49 60
        E 0 90 55 60
        E 0 90 61 60
        E 120 80 1b 00
        E 0 80 3d 00
        E 0 80 49 00
        E 0 80 55 00
        E 0 80 61 00
        E 0 90 1a 60
        E 0 90 61 60
        E 120 80 1a 00
        E 0 80 61 00
        E 0 90 1b 60
        E 0 90 55 60
        E 0 90 61 60
        E 120 80 1b 00
        E 0 80 55 00
        E 0 80 61 00
        E 0 90 1a 60
        E 0 90 61 60
        E 120 80 1a 00
        E 0 80 61 00
        E 0 90 1b 60
        E 0 90 3d 60
        E 0 90 49 60
        E 0 90 55 60
        E 0 90 61 60
        E 120 80 1b 00
        E 0 80 3d 00
        E 0 80 49 00
        E 0 80 55 00
        E 0 80 61 00
        E 0 90 1a 60
        E 0 90 61 60
        E 120 80 1a 00
        E 0 80 61 00
        E 0 90 1b 60
        E 0 90 55 60
        E 0 90 61 60
        E 120 80 1b 00
        E 0 80 55 00
        E 0 80 61 00
        E 0 90 1a 60
        E 0 90 61 60
        E 120 80 1a 00
        E 0 80 61 00
        E 0 90 2f 60
        E 0 90 3e 60
        E 0 90 4a 60
        E 0 90 56 60
        E 0 90 62 60
        E 0 90 6e 60
        E 120 80 2f 00
        E 0 80 3e 00
        E 0 80 4a 00
        E 0 80 56 00
        E 0 80 62 00
        E 0 80 6e 00
        E 0 90 2e 60
        E 0 90 62 60
        E 0 90 6e 60
        E 120 80 2e 00
        E 0 80 62 00
        E 0 80 6e 00
        E 0 90 2f 60
        E 0 90 56 60
        E 0 90 62 60
        E 0 90 6e 60
        E 120 80 2f 00
        E 0 80 56 00
        E 0 80 62 00
        E 0 80 6e 00
        E 0 90 2e 60
        E 0 90 62 60
        E 0 90 6e 60
        E 120 80 2e 00
        E 0 80 62 00
        E 0 80 6e 00
        E 0 90 2f 60
        E 0 90 3e 60
        E 0 90 4a 60
        E 0 90 56 60
        E 0 90 62 60
        E 0 90 6e 60
        E 120 80 2f 00
        E 0 80 3e 00
        E 0 80 4a 00
        E 0 80 56 00
        E 0 80 62 00
        E 0 80 6e 00
        E 0 90 2e 60
        E 0 90 62 60
        E 0 90 6e 60
        E 120 80 2e 00
        E 0 80 62 00
        E 0 80 6e 00
        E 0 90 2f 60
        E 0 90 56 60
        E 0 90 62 60
        E 0 90 6e 60
        E 120 80 2f 00
        E 0 80 56 00
        E 0 80 62 00
        E 0 80 6e 00
        E 0 90 2e 60
        E 0 90 62 60
        E 0 90 6e 60
        E 120 80 2e 00
        E 0 80 62 00
        E 0 80 6e 00
        E 0 90 31 60
        E 0 90 3f 60
        E 0 90 4b 60
        E 0 90 57 60
        E 0 90 63 60
        E 0 90 6f 60
        E 120 80 31 00
        E 0 80 3f 00
        E 0 80 4b 00
        E 0 80 57 00
        E 0 80 63 00
        E 0 80 6f 00
        E 0 90 30 60
        E 0 90 63 60
        E 0 90 6f 60
        E 120 80 30 00
        E 0 80 63 00
        E 0 80 6f 00
        E 0 90 31 60
        E 0 90 57 60
        E 0 90 63 60
        E 0 90 6f 60
        E 120 80 31 00
        E 0 80 57 00
        E 0 80 63 00
        E 0 80 6f 00
        E 0 90 30 60
        E 0 90 63 60
        E 0 90 6f 60
        E 120 80 30 00
        E 0 80 63 00
        E 0 80 6f 00
        E 0 90 31 60
        E 0 90 3f 60
        E 0 90 4b 60
        E 0 90 57 60
        E 0 90 63 60
        E 0 90 6f 60
        E 120 80 31 00
        E 0 80 3f 00
        E 0 80 4b 00
        E 0 80 57 00
        E 0 80 63 00
        E 0 80 6f 00
        E 0 90 30 60
        E 0 90 63 60
        E 0 90 6f 60
        E 120 80 30 00
        E 0 80 63 00
        E 0 80 6f 00
        E 0 90 31 60
        E 0 90 57 60
        E 0 90 63 60
        E 0 90 6f 60
        E 120 80 31 00
        E 0 80 57 00
        E 0 80 63 00
        E 0 80 6f 00
        E 0 90 30 60
        E 0 90 63 60
        E 0 90 6f 60
        E 120 80 30 00
        E 0 80 63 00
        E 0 80 6f 00
        E 0 90 33 60
        E 0 90 40 60
        E 0 90 4c 60
        E 0 90 58 60
        E 0 90 64 60
        E 0 90 70 60
        E 120 80 33 00
        E 0 80 40 00
        E 0 80 4c 00
        E 0 80 58 00
        E 0 80 64 00
        E 0 80 70 00
        E 0 90 32 60
        E 0 90 64 60
        E 0 90 70 60
        E 120 80 32 00
        E 0 80 64 00
        E 0 80 70 00
        E 0 90 33 60
        E 0 90 58 60
        E 0 90 64 60
        E 0 90 70 60
        E 120 80 33 00
        E 0 80 58 00
        E 0 80 64 00
        E 0 80 70 00
        E 0 90 32 60
        E 0 90 64 60
        E 0 90 70 60
        E 120 80 78 00
        E 0 80 79 00
        E 0 80 7a 00
        E 0 80 7b 00
        E 0 80 7c 00
        E 0 80 32 00
        E 0 80 64 00
        E 0 80 70 00
        E 0 90 18 60
        E 0 90 24 60
        E 0 90 40 60
        E 0 90 48 60
        E 0 90 4c 60
        E 0 90 54 60
        E 0 90 58 60
        E 0 90 60 60
        E 0 90 64 60
        E 120 80 18 00
        E 0 80 24 00
        E 0 80 40 00
        E 0 80 48 00
        E 0 80 4c 00
        E 0 80 54 00
        E 0 80 58 00
        E 0 80 60 00
        E 0 80 64 00
        E 120 90 18 60
        E 0 90 54 60
        E 0 90 60 60
        E 120 80 18 00
        E 0 80 54 00
        E 0 80 60 00
        E 120 90 18 60
        E 0 90 1f 60
        E 0 90 3e 60
        E 0 90 48 60
        E 0 90 4a 60
        E 0 90 54 60
        E 0 90 56 60
        E 0 90 60 60
        E 0 90 62 60
        E 120 80 18 00
        E 0 80 1f 00
        E 0 80 3e 00
        E 0 80 48 00
        E 0 80 4a 00
        E 0 80 54 00
        E 0 80 56 00
        E 0 80 60 00
        E 0 80 62 00
        E 120 90 1a 60
        E 0 90 55 60
        E 0 90 61 60
        E 120 80 1a 00
        E 0 80 55 00
        E 0 80 61 00
        E 120 90 1f 60
        E 0 90 3e 60
        E 0 90 4a 60
        E 0 90 56 60
        E 0 90 62 60
        E 120 80 1f 00
        E 0 80 3e 00
        E 0 80 4a 00
        E 0 80 56 00
        E 0 80 62 00
        E 120 90 18 60
        E 0 90 54 60
        E 0 90 60 60
        E 120 80 18 00
        E 0 80 54 00
        E 0 80 60 00
        E 120 90 1a 60
        E 0 90 1f 60
        E 0 90 3d 60
        E 0 90 49 60
        E 0 90 4a 60
        E 0 90 55 60
        E 0 90 56 60
        E 0 90 61 60
        E 0 90 62 60
        E 120 80 1a 00
        E 0 80 1f 00
        E 0 80 3d 00
        E 0 80 49 00
        E 0 80 4a 00
        E 0 80 55 00
        E 0 80 56 00
        E 0 80 61 00
        E 0 80 62 00
        E 360 90 18 60
        E 0 90 1f 60
        E 0 90 3e 60
        E 0 90 48 60
        E 0 90 4a 60
        E 0 90 54 60
        E 0 90 56 60
        E 0 90 60 60
        E 0 90 62 60
        E 120 80 18 00
        E 0 80 1f 00
        E 0 80 3e 00
        E 0 80 48 00
        E 0 80 4a 00
        E 0 80 54 00
        E 0 80 56 00
        E 0 80 60 00
        E 0 80 62 00
        E 0 90 18 60
        E 120 80 18 00
        E 0 90 18 60
        E 0 90 54 60
        E 0 90 60 60
        E 120 80 18 00
        E 0 80 54 00
        E 0 80 60 00
        E 0 90 18 60
        E 120 80 18 00
        E 0 90 1f 60
        E 0 90 3e 60
        E 0 90 4a 60
        E 0 90 56 60
        E 0 90 62 60
        E 120 80 1f 00
        E 0 80 3e 00
        E 0 80 4a 00
        E 0 80 56 00
        E 0 80 62 00
        E 120 90 1a 60
        E 0 90 55 60
        E 0 90 61 60
        E 120 80 1a 00
        E 0 80 55 00
        E 0 80 61 00
        E 120 90 1f 60
        E 0 90 3e 60
        E 0 90 4a 60
        E 0 90 56 60
        E 0 90 62 60
        E 120 80 1f 00
        E 0 80 3e 00
        E 0 80 4a 00
        E 0 80 56 00
        E 0 80 62 00
        E 120 90 18 60
        E 0 90 54 60
        E 0 90 60 60
        E 120 80 18 00
        E 0 80 54 00
        E 0 80 60 00
        E 120 90 1a 60
        E 0 90 1f 60
        E 0 90 3d 60
        E 0 90 49 60
        E 0 90 4a 60
        E 0 90 55 60
        E 0 90 56 60
        E 0 90 61 60
        E 0 90 62 60
        E 120 80 1a 00
        E 0 80 1f 00
        E 0 80 3d 00
        E 0 80 49 00
        E 0 80 4a 00
        E 0 80 55 00
        E 0 80 56 00
        E 0 80 61 00
        E 0 80 62 00
        E 120 90 1f 60
        E 0 90 56 60
        E 0 90 62 60
        E 120 80 1f 00
        E 0 80 56 00
        E 0 80 62 00
        E 120 90 18 60
        E 0 90 1f 60
        E 0 90 3e 60
        E 0 90 48 60
        E 0 90 4a 60
        E 0 90 54 60
        E 0 90 56 60
        E 0 90 60 60
        E 0 90 62 60
        E 120 80 18 00
        E 0 80 1f 00
        E 0 80 3e 00
        E 0 80 48 00
        E 0 80 4a 00
        E 0 80 54 00
        E 0 80 56 00
        E 0 80 60 00
        E 0 80 62 00
        E 0 90 18 60
        E 120 80 18 00
        E 0 90 18 60
        E 0 90 54 60
        E 0 90 60 60
        E 120 80 18 00
        E 0 80 54 00
        E 0 80 60 00
        E 0 90 18 60
        E 120 80 18 00
        E 0 90 1f 60
        E 0 90 3e 60
        E 0 90 4a 60
        E 0 90 56 60
        E 0 90 62 60
        E 120 80 1f 00
        E 0 80 3e 00
        E 0 80 4a 00
        E 0 80 56 00
        E 0 80 62 00
        E 120 90 1a 60
        E 0 90 55 60
        E 0 90 61 60
        E 120 80 1a 00
        E 0 80 55 00
        E 0 80 61 00
        E 120 90 1f 60
        E 0 90 3e 60
        E 0 90 4a 60
        E 0 90 56 60
        E 0 90 62 60
        E 120 80 1f 00
        E 0 80 3e 00
        E 0 80 4a 00
        E 0 80 56 00
        E 0 80 62 00
        E 120 90 18 60
        E 0 90 54 60
        E 0 90 60 60
        E 120 80 18 00
        E 0 80 54 00
        E 0 80 60 00
        E 120 90 1a 60
        E 0 90 1f 60
        E 0 90 3d 60
        E 0 90 49 60
        E 0 90 4a 60
        E 0 90 55 60
        E 0 90 56 60
        E 0 90 61 60
        E 0 90 62 60
        E 120 80 1a 00
        E 0 80 1f 00
        E 0 80 3d 00
        E 0 80 49 00
        E 0 80 4a 00
        E 0 80 55 00
        E 0 80 56 00
        E 0 80 61 00
        E 0 80 62 00
        E 120 90 1f 60
        E 0 90 56 60
        E 0 90 62 60
        E 120 80 1f 00
        E 0 80 56 00
        E 0 80 62 00
        E 120 90 18 60
        E 0 90 1f 60
        E 0 90 3e 60
        E 0 90 48 60
        E 0 90 4a 60
        E 0 90 54 60
        E 0 90 56 60
        E 0 90 60 60
        E 0 90 62 60
        E 120 80 18 00
        E 0 80 1f 00
        E 0 80 3e 00
        E 0 80 48 00
        E 0 80 4a 00
        E 0 80 54 00
        E 0 80 56 00
        E 0 80 60 00
        E 0 80 62 00
        E 0 90 18 60
        E 120 80 18 00
        E 0 90 18 60
        E 0 90 54 60
        E 0 90 60 60
        E 120 80 18 00
        E 0 80 54 00
        E 0 80 60 00
        E 0 90 18 60
        E 120 80 18 00
        E 0 90 1f 60
        E 0 90 3e 60
        E 0 90 4a 60
        E 0 90 56 60
        E 0 90 62 60
        E 120 80 1f 00
        E 0 80 3e 00
        E 0 80 4a 00
        E 0 80 56 00
        E 0 80 62 00
        E 120 90 1a 60
        E 0 90 55 60
        E 0 90 61 60
        E 120 80 1a 00
        E 0 80 55 00
        E 0 80 61 00
        E 120 90 1f 60
        E 0 90 3e 60
        E 0 90 4a 60
        E 0 90 56 60
        E 0 90 62 60
        E 120 80 1f 00
        E 0 80 3e 00
        E 0 80 4a 00
        E 0 80 56 00
        E 0 80 62 00
        E 120 90 18 60
        E 0 90 54 60
        E 0 90 60 60
        E 120 80 18 00
        E 0 80 54 00
        E 0 80 60 00
        E 120 90 1f 60
        E 0 90 3e 60
        E 0 90 4a 60
        E 0 90 56 60
        E 0 90 62 60
        E 120 80 1f 00
        E 0 80 3e 00
        E 0 80 4a 00
        E 0 80 56 00
        E 0 80 62 00
        E 120 90 1f 60
        E 0 90 56 60
        E 0 90 62 60
        E 120 80 1f 00
        E 0 80 56 00
        E 0 80 62 00
        E 120 90 18 60
        E 0 90 24 60
        E 0 90 40 60
        E 0 90 48 60
        E 0 90 4c 60
        E 0 90 54 60
        E 0 90 58 60
        E 0 90 60 60
        E 0 90 64 60
        E 120 80 18 00
        E 0 80 24 00
        E 0 80 40 00
        E 0 80 48 00
        E 0 80 4c 00
        E 0 80 54 00
        E 0 80 58 00
        E 0 80 60 00
        E 0 80 64 00
        E 120 90 1b 60
        E 0 90 55 60
        E 0 90 61 60
        E 120 80 1b 00
        E 0 80 55 00
        E 0 80 61 00
        E 0 90 1a 60
        E 0 90 61 60
        E 120 80 1a 00
        E 0 80 61 00
        E 0 90 1b 60
        E 0 90 3d 60
        E 0 90 49 60
        E 0 90 55 60
        E 0 90 61 60
        E 120 80 1b 00
        E 0 80 3d 00
        E 0 80 49 00
        E 0 80 55 00
        E 0 80 61 00
        E 0 90 1a 60
        E 0 90 61 60
        E 120 80 1a 00
        E 0 80 61 00
        E 0 90 1b 60
        E 0 90 55 60
        E 0 90 61 60
        E 120 80 1b 00
        E 0 80 55 00
        E 0 80 61 00
        E 0 90 1a 60
        E 0 90 61 60
        E 120 80 1a 00
        E 0 80 61 00
        E 0 90 1b 60
        E 0 90 3d 60
        E 0 90 49 60
        E 0 90 55 60
        E 0 90 61 60
        E 120 80 1b 00
        E 0 80 3d 00
        E 0 80 49 00
        E 0 80 55 00
        E 0 80 61 00
        E 0 90 1a 60
        E 0 90 61 60
        E 120 80 1a 00
        E 0 80 61 00
        E 0 90 1b 60
        E 0 90 55 60
        E 0 90 61 60
        E 120 80 1b 00
        E 0 80 55 00
        E 0 80 61 00
        E 0 90 1a 60
        E 0 90 61 60
        E 120 80 1a 00
        E 0 80 61 00
        E 0 90 1b 60
        E 0 90 3d 60
        E 0 90 49 60
        E 0 90 55 60
        E 0 90 61 60
        E 120 80 1b 00
        E 0 80 3d 00
        E 0 80 49 00
        E 0 80 55 00
        E 0 80 61 00
        E 0 90 1a 60
        E 0 90 61 60
        E 120 80 1a 00
        E 0 80 61 00
        E 0 90 1b 60
        E 0 90 55 60
        E 0 90 61 60
        E 120 80 1b 00
        E 0 80 55 00
        E 0 80 61 00
        E 0 90 1a 60
        E 0 90 61 60
        E 120 80 1a 00
        E 0 80 61 00
        E 0 90 1b 60
        E 0 90 3d 60
        E 0 90 49 60
        E 0 90 55 60
        E 0 90 61 60
        E 120 80 1b 00
        E 0 80 3d 00
        E 0 80 49 00
        E 0 80 55 00
        E 0 80 61 00
        E 0 90 1a 60
        E 0 90 61 60
        E 120 80 1a 00
        E 0 80 61 00
        E 0 90 1b 60
        E 0 90 55 60
        E 0 90 61 60
        E 120 80 1b 00
        E 0 80 55 00
        E 0 80 61 00
        E 0 90 1a 60
        E 0 90 61 60
        E 120 80 1a 00
        E 0 80 61 00
        E 0 90 1b 60
        E 0 90 3d 60
        E 0 90 49 60
        E 0 90 55 60
        E 0 90 61 60
        E 120 80 1b 00
        E 0 80 3d 00
        E 0 80 49 00
        E 0 80 55 00
        E 0 80 61 00
        E 0 90 1a 60
        E 0 90 61 60
        E 120 80 1a 00
        E 0 80 61 00
        E 0 90 1b 60
        E 0 90 55 60
        E 0 90 61 60
        E 120 80 1b 00
        E 0 80 55 00
        E 0 80 61 00
        E 0 90 1a 60
        E 0 90 61 60
        E 120 80 1a 00
        E 0 80 61 00
        E 0 90 1b 60
        E 0 90 3d 60
        E 0 90 49 60
        E 0 90 55 60
        E 0 90 61 60
        E 120 80 1b 00
        E 0 80 3d 00
        E 0 80 49 00
        E 0 80 55 00
        E 0 80 61 00
        E 0 90 1a 60
        E 0 90 61 60
        E 120 80 1a 00
        E 0 80 61 00
        E 0 90 1b 60
        E 0 90 55 60
        E 0 90 61 60
        E 120 80 1b 00
        E 0 80 55 00
        E 0 80 61 00
        E 0 90 1a 60
        E 0 90 61 60
        E 120 80 1a 00
        E 0 80 61 00
        E 0 90 2f 60
        E 0 90 3e 60
        E 0 90 4a 60
        E 0 90 56 60
        E 0 90 62 60
        E 0 90 6e 60
        E 120 80 2f 00
        E 0 80 3e 00
        E 0 80 4a 00
        E 0 80 56 00
        E 0 80 62 00
        E 0 80 6e 00
        E 0 90 2e 60
        E 0 90 62 60
        E 0 90 6e 60
        E 120 80 2e 00
        E 0 80 62 00
        E 0 80 6e 00
        E 0 90 2f 60
        E 0 90 56 60
        E 0 90 62 60
        E 0 90 6e 60
        E 120 80 2f 00
        E 0 80 56 00
        E 0 80 62 00
        E 0 80 6e 00
        E 0 90 2e 60
        E 0 90 62 60
        E 0 90 6e 60
        E 120 80 2e 00
        E 0 80 62 00
        E 0 80 6e 00
        E 0 90 18 60
        E 0 90 24 60
        E 0 90 40 60
        E 0 90 48 60
        E 0 90 4c 60
        E 0 90 54 60
        E 0 90 58 60
        E 0 90 60 60
        E 0 90 64 60
        E 120 80 18 00
        E 0 80 24 00
        E 0 80 40 00
        E 0 80 48 00
        E 0 80 4c 00
        E 0 80 54 00
        E 0 80 58 00
        E 0 80 60 00
        E 0 80 64 00
        E 120 90 18 60
        E 0 90 24 60
        E 0 90 54 60
        E 0 90 58 60
        E 0 90 60 60
        E 0 90 64 60
        E 120 80 18 00
        E 0 80 24 00
        E 0 80 54 00
        E 0 80 58 00
        E 0 80 60 00
        E 0 80 64 00
        E 120 90 18 60
        E 0 90 24 60
        E 0 90 40 60
        E 0 90 48 60
        E 0 90 4c 60
        E 0 90 54 60
        E 0 90 58 60
        E 0 90 60 60
        E 0 90 64 60
        E 120 80 18 00
        E 0 80 24 00
        E 0 80 40 00
        E 0 80 48 00
        E 0 80 4c 00
        E 0 80 54 00
        E 0 80 58 00
        E 0 80 60 00
        E 0 80 64 00
        E 120 90 18 60
        E 0 90 1a 60
        E 0 90 24 60
        E 0 90 54 60
        E 0 90 55 60
        E 0 90 58 60
        E 0 90 60 60
        E 0 90 61 60
        E 0 90 64 60
        E 120 80 18 00
        E 0 80 1a 00
        E 0 80 24 00
        E 0 80 54 00
        E 0 80 55 00
        E 0 80 58 00
        E 0 80 60 00
        E 0 80 61 00
        E 0 80 64 00
        E 120 90 24 60
        E 0 90 40 60
        E 0 90 4c 60
        E 0 90 58 60
        E 0 90 64 60
        E 120 80 24 00
        E 0 80 40 00
        E 0 80 4c 00
        E 0 80 58 00
        E 0 80 64 00
        E 120 90 18 60
        E 0 90 24 60
        E 0 90 54 60
        E 0 90 58 60
        E 0 90 60 60
        E 0 90 64 60
        E 120 80 18 00
        E 0 80 24 00
        E 0 80 54 00
        E 0 80 58 00
        E 0 80 60 00
        E 0 80 64 00
        E 120 90 1a 60
        E 0 90 24 60
        E 0 90 3d 60
        E 0 90 49 60
        E 0 90 4c 60
        E 0 90 55 60
        E 0 90 58 60
        E 0 90 61 60
        E 0 90 64 60
        E 120 80 1a 00
        E 0 80 24 00
        E 0 80 3d 00
        E 0 80 49 00
        E 0 80 4c 00
        E 0 80 55 00
        E 0 80 58 00
        E 0 80 61 00
        E 0 80 64 00
        E 120 90 24 60
        E 0 90 58 60
        E 0 90 64 60
        E 120 80 24 00
        E 0 80 58 00
        E 0 80 64 00
        E 120 90 18 60
        E 0 90 24 60
        E 0 90 40 60
        E 0 90 48 60
        E 0 90 4c 60
        E 0 90 54 60
        E 0 90 58 60
        E 0 90 60 60
        E 0 90 64 60
        E 120 80 18 00
        E 0 80 24 00
        E 0 80 40 00
        E 0 80 48 00
        E 0 80 4c 00
        E 0 80 54 00
        E 0 80 58 00
        E 0 80 60 00
        E 0 80 64 00
        E 120 90 18 60
        E 0 90 24 60
        E 0 90 54 60
        E 0 90 58 60
        E 0 90 60 60
        E 0 90 64 60
        E 120 80 18 00
        E 0 80 24 00
        E 0 80 54 00
        E 0 80 58 00
        E 0 80 60 00
        E 0 80 64 00
        E 120 90 18 60
        E 0 90 24 60
        E 0 90 40 60
        E 0 90 48 60
        E 0 90 4c 60
        E 0 90 54 60
        E 0 90 58 60
        E 0 90 60 60
        E 0 90 64 60
        E 120 80 18 00
        E 0 80 24 00
        E 0 80 40 00
        E 0 80 48 00
        E 0 80 4c 00
        E 0 80 54 00
        E 0 80 58 00
        E 0 80 60 00
        E 0 80 64 00
        E 120 90 18 60
        E 0 90 1a 60
        E 0 90 24 60
        E 0 90 54 60
        E 0 90 55 60
        E 0 90 58 60
        E 0 90 60 60
        E 0 90 61 60
        E 0 90 64 60
        E 120 80 18 00
        E 0 80 1a 00
        E 0 80 24 00
        E 0 80 54 00
        E 0 80 55 00
        E 0 80 58 00
        E 0 80 60 00
        E 0 80 61 00
        E 0 80 64 00
        E 120 90 24 60
        E 0 90 40 60
        E 0 90 4c 60
        E 0 90 58 60
        E 0 90 64 60
        E 120 80 24 00
        E 0 80 40 00
        E 0 80 4c 00
        E 0 80 58 00
        E 0 80 64 00
        E 120 90 18 60
        E 0 90 24 60
        E 0 90 54 60
        E 0 90 58 60
        E 0 90 60 60
        E 0 90 64 60
        E 120 80 18 00
        E 0 80 24 00
        E 0 80 54 00
        E 0 80 58 00
        E 0 80 60 00
        E 0 80 64 00
        E 120 90 1a 60
        E 0 90 24 60
        E 0 90 3d 60
        E 0 90 49 60
        E 0 90 4c 60
        E 0 90 55 60
        E 0 90 58 60
        E 0 90 61 60
        E 0 90 64 60
        E 120 80 1a 00
        E 0 80 24 00
        E 0 80 3d 00
        E 0 80 49 00
        E 0 80 4c 00
        E 0 80 55 00
        E 0 80 58 00
        E 0 80 61 00
        E 0 80 64 00
        E 120 90 24 60
        E 0 90 58 60
        E 0 90 64 60
        E 120 80 24 00
        E 0 80 58 00
        E 0 80 64 00
        E 120 90 18 60
        E 0 90 24 60
        E 0 90 40 60
        E 0 90 48 60
        E 0 90 4c 60
        E 0 90 54 60
        E 0 90 58 60
        E 0 90 60 60
        E 0 90 64 60
        E 120 80 18 00
        E 0 80 24 00
        E 0 80 40 00
        E 0 80 48 00
        E 0 80 4c 00
        E 0 80 54 00
        E 0 80 58 00
        E 0 80 60 00
        E 0 80 64 00
        E 120 90 1b 60
        E 0 90 55 60
        E 0 90 61 60
        E 120 80 1b 00
        E 0 80 55 00
        E 0 80 61 00
        E 0 90 1a 60
        E 0 90 61 60
        E 120 80 1a 00
        E 0 80 61 00
        E 0 90 1b 60
        E 0 90 3d 60
        E 0 90 49 60
        E 0 90 55 60
        E 0 90 61 60
        E 120 80 1b 00
        E 0 80 3d 00
        E 0 80 49 00
        E 0 80 55 00
        E 0 80 61 00
        E 0 90 1a 60
        E 0 90 61 60
        E 120 80 1a 00
        E 0 80 61 00
        E 0 90 1b 60
        E 0 90 55 60
        E 0 90 61 60
        E 120 80 1b 00
        E 0 80 55 00
        E 0 80 61 00
        E 0 90 1a 60
        E 0 90 61 60
        E 120 80 1a 00
        E 0 80 61 00
        E 0 90 1b 60
        E 0 90 3d 60
        E 0 90 49 60
        E 0 90 55 60
        E 0 90 61 60
        E 120 80 1b 00
        E 0 80 3d 00
        E 0 80 49 00
        E 0 80 55 00
        E 0 80 61 00
        E 0 90 1a 60
        E 0 90 61 60
        E 120 80 1a 00
        E 0 80 61 00
        E 0 90 1b 60
        E 0 90 55 60
        E 0 90 61 60
        E 120 80 1b 00
        E 0 80 55 00
        E 0 80 61 00
        E 0 90 1a 60
        E 0 90 61 60
        E 120 80 1a 00
        E 0 80 61 00
        E 0 90 1b 60
        E 0 90 3d 60
        E 0 90 49 60
        E 0 90 55 60
        E 0 90 61 60
        E 120 80 1b 00
        E 0 80 3d 00
        E 0 80 49 00
        E 0 80 55 00
        E 0 80 61 00
        E 0 90 1a 60
        E 0 90 61 60
        E 120 80 1a 00
        E 0 80 61 00
        E 0 90 1b 60
        E 0 90 55 60
        E 0 90 61 60
        E 120 80 1b 00
        E 0 80 55 00
        E 0 80 61 00
        E 0 90 1a 60
        E 0 90 61 60
        E 120 80 1a 00
        E 0 80 61 00
        E 0 90 1b 60
        E 0 90 3d 60
        E 0 90 49 60
        E 0 90 55 60
        E 0 90 61 60
        E 120 80 1b 00
        E 0 80 3d 00
        E 0 80 49 00
        E 0 80 55 00
        E 0 80 61 00
        E 0 90 1a 60
        E 0 90 61 60
        E 120 80 1a 00
        E 0 80 61 00
        E 0 90 1b 60
        E 0 90 55 60
        E 0 90 61 60
        E 120 80 1b 00
        E 0 80 55 00
        E 0 80 61 00
        E 0 90 1a 60
        E 0 90 61 60
        E 120 80 1a 00
        E 0 80 61 00
        E 0 90 1b 60
        E 0 90 3d 60
        E 0 90 49 60
        E 0 90 55 60
        E 0 90 61 60
        E 120 80 1b 00
        E 0 80 3d 00
        E 0 80 49 00
        E 0 80 55 00
        E 0 80 61 00
        E 0 90 1a 60
        E 0 90 61 60
        E 120 80 1a 00
        E 0 80 61 00
        E 0 90 1b 60
        E 0 90 55 60
        E 0 90 61 60
        E 120 80 1b 00
        E 0 80 55 00
        E 0 80 61 00
        E 0 90 1a 60
        E 0 90 61 60
        E 120 80 1a 00
        E 0 80 61 00
        E 0 90 1b 60
        E 0 90 3d 60
        E 0 90 49 60
        E 0 90 55 60
        E 0 90 61 60
        E 120 80 1b 00
        E 0 80 3d 00
        E 0 80 49 00
        E 0 80 55 00
        E 0 80 61 00
        E 0 90 1a 60
        E 0 90 61 60
        E 120 80 1a 00
        E 0 80 61 00
        E 0 90 2f 60
        E 0 90 56 60
        E 0 90 62 60
        E 0 90 6e 60
        E 120 80 2f 00
        E 0 80 56 00
        E 0 80 62 00
        E 0 80 6e 00
        E 0 90 2e 60
        E 0 90 62 60
        E 0 90 6e 60
        E 120 80 2e 00
        E 0 80 62 00
        E 0 80 6e 00
        E 0 90 31 60
        E 0 90 3f 60
        E 0 90 4b 60
        E 0 90 57 60
        E 0 90 63 60
        E 0 90 6f 60
        E 120 80 31 00
        E 0 80 3f 00
        E 0 80 4b 00
        E 0 80 57 00
        E 0 80 63 00
        E 0 80 6f 00
        E 0 90 30 60
        E 0 90 63 60
        E 0 90 6f 60
        E 120 80 30 00
        E 0 80 63 00
        E 0 80 6f 00
        E 0 90 31 60
        E 0 90 57 60
        E 0 90 63 60
        E 0 90 6f 60
        E 120 80 31 00
        E 0 80 57 00
        E 0 80 63 00
        E 0 80 6f 00
        E 0 90 30 60
        E 0 90 63 60
        E 0 90 6f 60
        E 120 80 30 00
        E 0 80 63 00
        E 0 80 6f 00
        E 0 90 18 60
        E 0 90 24 60
        E 0 90 40 60
        E 0 90 48 60
        E 0 90 4c 60
        E 0 90 54 60
        E 0 90 58 60
        E 0 90 60 60
        E 0 90 64 60
        E 0 90 74 60
        E 120 80 18 00
        E 0 80 24 00
        E 0 80 40 00
        E 0 80 48 00
        E 0 80 4c 00
        E 0 80 54 00
        E 0 80 58 00
        E 0 80 60 00
        E 0 80 64 00
        E 120 90 18 60
        E 0 90 24 60
        E 0 90 54 60
        E 0 90 58 60
        E 0 90 60 60
        E 0 90 64 60
        E 120 80 18 00
        E 0 80 24 00
        E 0 80 54 00
        E 0 80 58 00
        E 0 80 60 00
        E 0 80 64 00
        E 120 90 18 60
        E 0 90 24 60
        E 0 90 40 60
        E 0 90 48 60
        E 0 90 4c 60
        E 0 90 54 60
        E 0 90 58 60
        E 0 90 60 60
        E 0 90 64 60
        E 120 80 18 00
        E 0 80 24 00
        E 0 80 40 00
        E 0 80 48 00
        E 0 80 4c 00
        E 0 80 54 00
        E 0 80 58 00
        E 0 80 60 00
        E 0 80 64 00
        E 120 90 18 60
        E 0 90 1a 60
        E 0 90 24 60
        E 0 90 54 60
        E 0 90 55 60
        E 0 90 58 60
        E 0 90 60 60
        E 0 90 61 60
        E 0 90 64 60
        E 120 80 18 00
        E 0 80 1a 00
        E 0 80 24 00
        E 0 80 54 00
        E 0 80 55 00
        E 0 80 58 00
        E 0 80 60 00
        E 0 80 61 00
        E 0 80 64 00
        E 120 90 24 60
        E 0 90 40 60
        E 0 90 4c 60
        E 0 90 58 60
        E 0 90 64 60
        E 120 80 24 00
        E 0 80 40 00
        E 0 80 4c 00
        E 0 80 58 00
        E 0 80 64 00
        E 120 90 18 60
        E 0 90 24 60
        E 0 90 54 60
        E 0 90 58 60
        E 0 90 60 60
        E 0 90 64 60
        E 120 80 18 00
        E 0 80 24 00
        E 0 80 54 00
        E 0 80 58 00
        E 0 80 60 00
        E 0 80 64 00
        E 120 90 1a 60
        E 0 90 24 60
        E 0 90 3d 60
        E 0 90 49 60
        E 0 90 4c 60
        E 0 90 55 60
        E 0 90 58 60
        E 0 90 61 60
        E 0 90 64 60
        E 120 80 1a 00
        E 0 80 24 00
        E 0 80 3d 00
        E 0 80 49 00
        E 0 80 4c 00
        E 0 80 55 00
        E 0 80 58 00
        E 0 80 61 00
        E 0 80 64 00
        E 120 90 24 60
        E 0 90 58 60
        E 0 90 64 60
        E 120 80 24 00
        E 0 80 58 00
        E 0 80 64 00
        E 120 90 18 60
        E 0 90 24 60
        E 0 90 40 60
        E 0 90 48 60
        E 0 90 4c 60
        E 0 90 54 60
        E 0 90 58 60
        E 0 90 60 60
        E 0 90 64 60
        E 120 80 18 00
        E 0 80 24 00
        E 0 80 40 00
        E 0 80 48 00
        E 0 80 4c 00
        E 0 80 54 00
        E 0 80 58 00
        E 0 80 60 00
        E 0 80 64 00
        E 120 90 18 60
        E 0 90 24 60
        E 0 90 54 60
        E 0 90 58 60
        E 0 90 60 60
        E 0 90 64 60
        E 120 80 18 00
        E 0 80 24 00
        E 0 80 54 00
        E 0 80 58 00
        E 0 80 60 00
        E 0 80 64 00
        E 120 90 18 60
        E 0 90 24 60
        E 0 90 40 60
        E 0 90 48 60
        E 0 90 4c 60
        E 0 90 54 60
        E 0 90 58 60
        E 0 90 60 60
        E 0 90 64 60
        E 120 80 18 00
        E 0 80 24 00
        E 0 80 40 00
        E 0 80 48 00
        E 0 80 4c 00
        E 0 80 54 00
        E 0 80 58 00
        E 0 80 60 00
        E 0 80 64 00
        E 120 90 1a 60
        E 0 90 24 60
        E 0 90 55 60
        E 0 90 58 60
        E 0 90 61 60
        E 0 90 64 60
        E 120 80 1a 00
        E 0 80 24 00
        E 0 80 55 00
        E 0 80 58 00
        E 0 80 61 00
        E 0 80 64 00
        E 120 90 24 60
        E 0 90 40 60
        E 0 90 4c 60
        E 0 90 58 60
        E 0 90 64 60
        E 120 80 24 00
        E 0 80 40 00
        E 0 80 4c 00
        E 0 80 58 00
        E 0 80 64 00
        E 120 90 18 60
        E 0 90 24 60
        E 0 90 54 60
        E 0 90 58 60
        E 0 90 60 60
        E 0 90 64 60
        E 120 80 18 00
        E 0 80 24 00
        E 0 80 54 00
        E 0 80 58 00
        E 0 80 60 00
        E 0 80 64 00
        E 120 90 1a 60
        E 0 90 24 60
        E 0 90 3d 60
        E 0 90 49 60
        E 0 90 4c 60
        E 0 90 55 60
        E 0 90 58 60
        E 0 90 61 60
        E 0 90 64 60
        E 120 80 1a 00
        E 0 80 24 00
        E 0 80 3d 00
        E 0 80 49 00
        E 0 80 4c 00
        E 0 80 55 00
        E 0 80 58 00
        E 0 80 61 00
        E 0 80 64 00
        E 120 90 24 60
        E 0 90 58 60
        E 0 90 64 60
        E 120 80 24 00
        E 0 80 58 00
        E 0 80 64 00
        E 120 80 74 00
        E 0 90 18 60
        E 0 90 24 60
        E 0 90 40 60
        E 0 90 48 60
        E 0 90 4c 60
        E 0 90 54 60
        E 0 90 58 60
        E 0 90 60 60
        E 0 90 64 60
        E 120 80 18 00
        E 0 80 24 00
        E 0 80 40 00
        E 0 80 48 00
        E 0 80 4c 00
        E 0 80 54 00
        E 0 80 58 00
        E 0 80 60 00
        E 0 80 64 00
        E 0 90 78 60
        E 0 90 79 60
        E 0 90 7a 60
        E 0 90 7b 60
        E 0 90 7c 60
        E 120 90 1b 60
        E 0 90 55 60
        E 0 90 61 60
        E 120 80 1b 00
        E 0 80 55 00
        E 0 80 61 00
        E 0 90 1a 60
        E 0 90 61 60
        E 120 80 1a 00
        E 0 80 61 00
        E 0 90 1b 60
        E 0 90 3d 60
        E 0 90 49 60
        E 0 90 55 60
        E 0 90 61 60
        E 120 80 1b 00
        E 0 80 3d 00
        E 0 80 49 00
        E 0 80 55 00
        E 0 80 61 00
        E 0 90 1a 60
        E 0 90 61 60
        E 120 80 1a 00
        E 0 80 61 00
        E 0 90 1b 60
        E 0 90 55 60
        E 0 90 61 60
        E 120 80 1b 00
        E 0 80 55 00
        E 0 80 61 00
        E 0 90 1a 60
        E 0 90 61 60
        E 120 80 1a 00
        E 0 80 61 00
        E 0 90 1b 60
        E 0 90 3d 60
        E 0 90 49 60
        E 0 90 55 60
        E 0 90 61 60
        E 120 80 1b 00
        E 0 80 3d 00
        E 0 80 49 00
        E 0 80 55 00
        E 0 80 61 00
        E 0 90 1a 60
        E 0 90 61 60
        E 120 80 1a 00
        E 0 80 61 00
        E 0 90 1b 60
        E 0 90 55 60
        E 0 90 61 60
        E 120 80 1b 00
        E 0 80 55 00
        E 0 80 61 00
        E 0 90 1a 60
        E 0 90 61 60
        E 120 80 1a 00
        E 0 80 61 00
        E 0 90 1b 60
        E 0 90 3d 60
        E 0 90 49 60
        E 0 90 55 60
        E 0 90 61 60
        E 120 80 1b 00
        E 0 80 3d 00
        E 0 80 49 00
        E 0 80 55 00
        E 0 80 61 00
        E 0 90 1a 60
        E 0 90 61 60
        E 120 80 1a 00
        E 0 80 61 00
        E 0 90 1b 60
        E 0 90 55 60
        E 0 90 61 60
        E 120 80 1b 00
        E 0 80 55 00
        E 0 80 61 00
        E 0 90 1a 60
        E 0 90 61 60
        E 120 80 1a 00
        E 0 80 61 00
        E 0 90 1b 60
        E 0 90 3d 60
        E 0 90 49 60
        E 0 90 55 60
        E 0 90 61 60
        E 120 80 1b 00
        E 0 80 3d 00
        E 0 80 49 00
        E 0 80 55 00
        E 0 80 61 00
        E 0 90 1a 60
        E 0 90 61 60
        E 120 80 1a 00
        E 0 80 61 00
        E 0 90 1b 60
        E 0 90 55 60
        E 0 90 61 60
        E 120 80 1b 00
        E 0 80 55 00
        E 0 80 61 00
        E 0 90 1a 60
        E 0 90 61 60
        E 120 80 1a 00
        E 0 80 61 00
        E 0 90 1b 60
        E 0 90 3d 60
        E 0 90 49 60
        E 0 90 55 60
        E 0 90 61 60
        E 120 80 1b 00
        E 0 80 3d 00
        E 0 80 49 00
        E 0 80 55 00
        E 0 80 61 00
        E 0 90 1a 60
        E 0 90 61 60
        E 120 80 1a 00
        E 0 80 61 00
        E 0 90 1b 60
        E 0 90 55 60
        E 0 90 61 60
        E 120 80 1b 00
        E 0 80 55 00
        E 0 80 61 00
        E 0 90 1a 60
        E 0 90 61 60
        E 120 80 1a 00
        E 0 80 61 00
        E 0 90 1b 60
        E 0 90 3d 60
        E 0 90 49 60
        E 0 90 55 60
        E 0 90 61 60
        E 120 80 1b 00
        E 0 80 3d 00
        E 0 80 49 00
        E 0 80 55 00
        E 0 80 61 00
        E 0 90 1a 60
        E 0 90 61 60
        E 120 80 1a 00
        E 0 80 61 00
        E 0 90 1b 60
        E 0 90 55 60
        E 0 90 61 60
        E 120 80 1b 00
        E 0 80 55 00
        E 0 80 61 00
        E 0 90 1a 60
        E 0 90 61 60
        E 120 80 1a 00
        E 0 80 61 00
        E 0 90 1b 60
        E 0 90 3d 60
        E 0 90 49 60
        E 0 90 55 60
        E 0 90 61 60
        E 120 80 1b 00
        E 0 80 3d 00
        E 0 80 49 00
        E 0 80 55 00
        E 0 80 61 00
        E 0 90 1a 60
        E 0 90 61 60
        E 120 80 1a 00
        E 0 80 61 00
        E 0 90 1b 60
        E 0 90 55 60
        E 0 90 61 60
        E 120 80 1b 00
        E 0 80 55 00
        E 0 80 61 00
        E 0 90 1a 60
        E 0 90 61 60
        E 120 80 78 00
        E 0 80 79 00
        E 0 80 7a 00
        E 0 80 7b 00
        E 0 80 7c 00
        E 0 80 1a 00
        E 0 80 61 00
        E 0 90 18 60
        E 0 90 24 60
        E 0 90 40 60
        E 0 90 48 60
        E 0 90 4c 60
        E 0 90 54 60
        E 0 90 58 60
        E 0 90 60 60
        E 0 90 64 60
        E 120 80 18 00
        E 0 80 24 00
        E 0 80 40 00
        E 0 80 48 00
        E 0 80 4c 00
        E 0 80 54 00
        E 0 80 58 00
        E 0 80 60 00
        E 0 80 64 00
        E 120 90 18 60
        E 0 90 2a 60
        E 0 90 54 60
        E 0 90 57 60
        E 0 90 60 60
        E 0 90 63 60
        E 120 80 18 00
        E 0 80 2a 00
        E 0 80 54 00
        E 0 80 57 00
        E 0 80 60 00
        E 0 80 63 00
        E 120 90 18 60
        E 0 90 24 60
        E 0 90 40 60
        E 0 90 48 60
        E 0 90 4c 60
        E 0 90 54 60
        E 0 90 58 60
        E 0 90 60 60
        E 0 90 64 60
        E 120 80 18 00
        E 0 80 24 00
        E 0 80 40 00
        E 0 80 48 00
        E 0 80 4c 00
        E 0 80 54 00
        E 0 80 58 00
        E 0 80 60 00
        E 0 80 64 00
        E 120 90 1a 60
        E 0 90 55 60
        E 0 90 61 60
        E 120 80 1a 00
        E 0 80 55 00
        E 0 80 61 00
        E 120 90 24 60
        E 0 90 40 60
        E 0 90 4c 60
        E 0 90 58 60
        E 0 90 64 60
        E 120 80 24 00
        E 0 80 40 00
        E 0 80 4c 00
        E 0 80 58 00
        E 0 80 64 00
        E 120 90 18 60
        E 0 90 54 60
        E 0 90 60 60
        E 120 80 18 00
        E 0 80 54 00
        E 0 80 60 00
        E 0 90 18 60
        E 120 80 18 00
        E 0 90 1a 60
        E 0 90 24 60
        E 0 90 3d 60
        E 0 90 49 60
        E 0 90 4c 60
        E 0 90 55 60
        E 0 90 58 60
        E 0 90 61 60
        E 0 90 64 60
        E 120 80 1a 00
        E 0 80 24 00
        E 0 80 3d 00
        E 0 80 49 00
        E 0 80 4c 00
        E 0 80 55 00
        E 0 80 58 00
        E 0 80 61 00
        E 0 80 64 00
        E 120 90 18 60
        E 0 90 54 60
        E 0 90 60 60
        E 120 80 18 00
        E 0 80 54 00
        E 0 80 60 00
        E 0 90 18 60
        E 0 90 60 60
        E 120 80 18 00
        E 0 80 60 00
        E 0 90 1a 60
        E 0 90 24 60
        E 0 90 3d 60
        E 0 90 49 60
        E 0 90 4c 60
        E 0 90 55 60
        E 0 90 58 60
        E 0 90 61 60
        E 0 90 64 60
        E 120 80 1a 00
        E 0 80 24 00
        E 0 80 3d 00
        E 0 80 49 00
        E 0 80 4c 00
        E 0 80 55 00
        E 0 80 58 00
        E 0 80 61 00
        E 0 80 64 00
        E 120 90 18 60
        E 0 90 54 60
        E 0 90 60 60
        E 120 80 18 00
        E 0 80 54 00
        E 0 80 60 00
        E 120 90 1a 60
        E 0 90 24 60
        E 0 90 3d 60
        E 0 90 49 60
        E 0 90 4c 60
        E 0 90 55 60
        E 0 90 58 60
        E 0 90 61 60
        E 0 90 64 60
        E 120 80 1a 00
        E 0 80 24 00
        E 0 80 3d 00
        E 0 80 49 00
        E 0 80 4c 00
        E 0 80 55 00
        E 0 80 58 00
        E 0 80 61 00
        E 0 80 64 00
        E 360 90 18 60
        E 0 90 24 60
        E 0 90 40 60
        E 0 90 48 60
        E 0 90 4c 60
        E 0 90 54 60
        E 0 90 58 60
        E 0 90 60 60
        E 0 90 64 60
        E 120 80 18 00
        E 0 80 24 00
        E 0 80 40 00
        E 0 80 48 00
        E 0 80 4c 00
        E 0 80 54 00
        E 0 80 58 00
        E 0 80 60 00
        E 0 80 64 00
        E 120 90 18 60
        E 0 90 2a 60
        E 0 90 54 60
        E 0 90 57 60
        E 0 90 60 60
        E 0 90 63 60
        E 120 80 18 00
        E 0 80 2a 00
        E 0 80 54 00
        E 0 80 57 00
        E 0 80 60 00
        E 0 80 63 00
        E 120 90 18 60
        E 0 90 24 60
        E 0 90 40 60
        E 0 90 48 60
        E 0 90 4c 60
        E 0 90 54 60
        E 0 90 58 60
        E 0 90 60 60
        E 0 90 64 60
        E 120 80 18 00
        E 0 80 24 00
        E 0 80 40 00
        E 0 80 48 00
        E 0 80 4c 00
        E 0 80 54 00
        E 0 80 58 00
        E 0 80 60 00
        E 0 80 64 00
        E 120 90 1a 60
        E 0 90 55 60
        E 0 90 61 60
        E 120 80 1a 00
        E 0 80 55 00
        E 0 80 61 00
        E 120 90 24 60
        E 0 90 40 60
        E 0 90 4c 60
        E 0 90 58 60
        E 0 90 64 60
        E 120 80 24 00
        E 0 80 40 00
        E 0 80 4c 00
        E 0 80 58 00
        E 0 80 64 00
        E 120 90 18 60
        E 0 90 54 60
        E 0 90 60 60
        E 120 80 18 00
        E 0 80 54 00
        E 0 80 60 00
        E 120 90 18 60
        E 0 90 24 60
        E 0 90 40 60
        E 0 90 48 60
        E 0 90 4c 60
        E 0 90 54 60
        E 0 90 58 60
        E 0 90 60 60
        E 0 90 64 60
        E 120 80 18 00
        E 0 80 24 00
        E 0 80 40 00
        E 0 80 48 00
        E 0 80 4c 00
        E 0 80 54 00
        E 0 80 58 00
        E 0 80 60 00
        E 0 80 64 00
        E 120 90 1a 60
        E 0 90 55 60
        E 0 90 61 60
        E 120 80 1a 00
        E 0 80 55 00
        E 0 80 61 00
        E 120 90 18 60
        E 0 90 24 60
        E 0 90 40 60
        E 0 90 48 60
        E 0 90 4c 60
        E 0 90 54 60
        E 0 90 58 60
        E 0 90 60 60
        E 0 90 64 60
        E 120 80 18 00
        E 0 80 24 00
        E 0 80 40 00
        E 0 80 48 00
        E 0 80 4c 00
        E 0 80 54 00
        E 0 80 58 00
        E 0 80 60 00
        E 0 80 64 00
        E 120 90 18 60
        E 0 90 54 60
        E 0 90 60 60
        E 120 80 18 00
        E 0 80 54 00
        E 0 80 60 00
        E 120 90 1a 60
        E 0 90 24 60
        E 0 90 3d 60
        E 0 90 49 60
        E 0 90 4c 60
        E 0 90 55 60
        E 0 90 58 60
        E 0 90 61 60
        E 0 90 64 60
        E 120 80 1a 00
        E 0 80 24 00
        E 0 80 3d 00
        E 0 80 49 00
        E 0 80 4c 00
        E 0 80 55 00
        E 0 80 58 00
        E 0 80 61 00
        E 0 80 64 00
        E 120 90 18 60
        E 0 90 54 60
        E 0 90 60 60
        E 120 80 18 00
        E 0 80 54 00
        E 0 80 60 00
        E 120 90 18 60
        E 0 90 24 60
        E 0 90 40 60
        E 0 90 48 60
        E 0 90 4c 60
        E 0 90 54 60
        E 0 90 58 60
        E 0 90 60 60
        E 0 90 64 60
        E 120 80 18 00
        E 0 80 24 00
        E 0 80 40 00
        E 0 80 48 00
        E 0 80 4c 00
        E 0 80 54 00
        E 0 80 58 00
        E 0 80 60 00
        E 0 80 64 00
        E 120 90 1a 60
        E 0 90 55 60
        E 0 90 61 60
        E 120 80 1a 00
        E 0 80 55 00
        E 0 80 61 00
        E 120 90 18 60
        E 0 90 24 60
        E 0 90 40 60
        E 0 90 48 60
        E 0 90 4c 60
        E 0 90 54 60
        E 0 90 58 60
        E 0 90 60 60
        E 0 90 64 60
        E 120 80 18 00
        E 0 80 24 00
        E 0 80 40 00
        E 0 80 48 00
        E 0 80 4c 00
        E 0 80 54 00
        E 0 80 58 00
        E 0 80 60 00
        E 0 80 64 00
        E 120 90 18 60
        E 0 90 54 60
        E 0 90 60 60
        E 120 80 18 00
        E 0 80 54 00
        E 0 80 60 00
        E 120 90 24 60
        E 0 90 40 60
        E 0 90 4c 60
        E 0 90 58 60
        E 0 90 64 60
        E 120 80 24 00
        E 0 80 40 00
        E 0 80 4c 00
        E 0 80 58 00
        E 0 80 64 00
        E 120 90 18 60
        E 0 90 54 60
        E 0 90 60 60
        E 120 80 18 00
        E 0 80 54 00
        E 0 80 60 00
        E 120 90 1a 60
        E 0 90 24 60
        E 0 90 3d 60
        E 0 90 49 60
        E 0 90 4c 60
        E 0 90 55 60
        E 0 90 58 60
        E 0 90 61 60
        E 0 90 64 60
        E 120 80 1a 00
        E 0 80 24 00
        E 0 80 3d 00
        E 0 80 49 00
        E 0 80 4c 00
        E 0 80 55 00
        E 0 80 58 00
        E 0 80 61 00
        E 0 80 64 00
        E 120 90 18 60
        E 0 90 54 60
        E 0 90 60 60
        E 120 80 18 00
        E 0 80 54 00
        E 0 80 60 00
        E 120 90 1a 60
        E 0 90 24 60
        E 0 90 3d 60
        E 0 90 49 60
        E 0 90 4c 60
        E 0 90 55 60
        E 0 90 58 60
        E 0 90 61 60
        E 0 90 64 60
        E 120 80 1a 00
        E 0 80 24 00
        E 0 80 3d 00
        E 0 80 49 00
        E 0 80 4c 00
        E 0 80 55 00
        E 0 80 58 00
        E 0 80 61 00
        E 0 80 64 00
        E 240 90 1a 60
        E 0 90 61 60
        E 120 80 1a 00
        E 0 80 61 00
        E 0 90 1b 60
        E 0 90 3d 60
        E 0 90 49 60
        E 0 90 55 60
        E 0 90 61 60
        E 120 80 1b 00
        E 0 80 3d 00
        E 0 80 49 00
        E 0 80 55 00
        E 0 80 61 00
        E 240 90 1a 60
        E 0 90 61 60
        E 120 80 1a 00
        E 0 80 61 00
        E 0 90 18 60
        E 0 90 24 60
        E 0 90 40 60
        E 0 90 48 60
        E 0 90 4c 60
        E 0 90 54 60
        E 0 90 58 60
        E 0 90 60 60
        E 0 90 64 60
        E 120 80 18 00
        E 0 80 24 00
        E 0 80 40 00
        E 0 80 48 00
        E 0 80 4c 00
        E 0 80 54 00
        E 0 80 58 00
        E 0 80 60 00
        E 0 80 64 00
        E 120 90 18 60
        E 0 90 54 60
        E 0 90 60 60
        E 120 80 18 00
        E 0 80 54 00
        E 0 80 60 00
        E 120 90 18 60
        E 0 90 24 60
        E 0 90 40 60
        E 0 90 48 60
        E 0 90 4c 60
        E 0 90 54 60
        E 0 90 58 60
        E 0 90 60 60
        E 0 90 64 60
        E 120 80 18 00
        E 0 80 24 00
        E 0 80 40 00
        E 0 80 48 00
        E 0 80 4c 00
        E 0 80 54 00
        E 0 80 58 00
        E 0 80 60 00
        E 0 80 64 00
        E 120 90 1a 60
        E 0 90 55 60
        E 0 90 61 60
        E 120 80 1a 00
        E 0 80 55 00
        E 0 80 61 00
        E 120 90 24 60
        E 0 90 40 60
        E 0 90 4c 60
        E 0 90 58 60
        E 0 90 64 60
        E 120 80 24 00
        E 0 80 40 00
        E 0 80 4c 00
        E 0 80 58 00
        E 0 80 64 00
        E 120 90 18 60
        E 0 90 54 60
        E 0 90 60 60
        E 120 80 18 00
        E 0 80 54 00
        E 0 80 60 00
        E 120 90 1a 60
        E 0 90 24 60
        E 0 90 3d 60
        E 0 90 49 60
        E 0 90 4c 60
        E 0 90 55 60
        E 0 90 58 60
        E 0 90 61 60
        E 0 90 64 60
        E 120 80 1a 00
        E 0 80 24 00
        E 0 80 3d 00
        E 0 80 49 00
        E 0 80 4c 00
        E 0 80 55 00
        E 0 80 58 00
        E 0 80 61 00
        E 0 80 64 00
        E 120 90 1b 60
        E 0 90 55 60
        E 0 90 61 60
        E 120 80 1b 00
        E 0 80 55 00
        E 0 80 61 00
        E 0 90 1a 60
        E 0 90 61 60
        E 120 80 1a 00
        E 0 80 61 00
        E 0 90 1b 60
        E 0 90 3d 60
        E 0 90 49 60
        E 0 90 55 60
        E 0 90 61 60
        E 120 80 1b 00
        E 0 80 3d 00
        E 0 80 49 00
        E 0 80 55 00
        E 0 80 61 00
        E 120 90 1a 60
        E 0 90 55 60
        E 0 90 61 60
        E 120 80 1a 00
        E 0 80 55 00
        E 0 80 61 00
        E 120 90 1a 60
        E 0 90 3d 60
        E 0 90 49 60
        E 0 90 55 60
        E 0 90 61 60
        E 120 80 1a 00
        E 0 80 3d 00
        E 0 80 49 00
        E 0 80 55 00
        E 0 80 61 00
        E 120 90 18 60
        E 0 90 54 60
        E 0 90 60 60
        E 120 80 18 00
        E 0 80 54 00
        E 0 80 60 00
        E 120 90 18 60
        E 0 90 24 60
        E 0 90 40 60
        E 0 90 48 60
        E 0 90 4c 60
        E 0 90 54 60
        E 0 90 58 60
        E 0 90 60 60
        E 0 90 64 60
        E 120 80 18 00
        E 0 80 24 00
        E 0 80 40 00
        E 0 80 48 00
        E 0 80 4c 00
        E 0 80 54 00
        E 0 80 58 00
        E 0 80 60 00
        E 0 80 64 00
        E 120 90 18 60
        E 0 90 54 60
        E 0 90 60 60
        E 120 80 18 00
        E 0 80 54 00
        E 0 80 60 00
        E 120 90 18 60
        E 0 90 2f 60
        E 0 90 3e 60
        E 0 90 4a 60
        E 0 90 54 60
        E 0 90 56 60
        E 0 90 60 60
        E 0 90 62 60
        E 0 90 6e 60
        E 120 80 18 00
        E 0 80 2f 00
        E 0 80 3e 00
        E 0 80 4a 00
        E 0 80 54 00
        E 0 80 56 00
        E 0 80 60 00
        E 0 80 62 00
        E 0 80 6e 00
        E 120 90 31 60
        E 0 90 57 60
        E 0 90 63 60
        E 0 90 6f 60
        E 120 80 31 00
        E 0 80 57 00
        E 0 80 63 00
        E 0 80 6f 00
        E 120 90 2e 60
        E 0 90 31 60
        E 0 90 3e 60
        E 0 90 3f 60
        E 0 90 4a 60
        E 0 90 4b 60
        E 0 90 56 60
        E 0 90 57 60
        E 0 90 62 60
        E 0 90 63 60
        E 0 90 6e 60
        E 0 90 6f 60
        E 120 80 2e 00
        E 0 80 31 00
        E 0 80 3e 00
        E 0 80 3f 00
        E 0 80 4a 00
        E 0 80 4b 00
        E 0 80 56 00
        E 0 80 57 00
        E 0 80 62 00
        E 0 80 63 00
        E 0 80 6e 00
        E 0 80 6f 00
        E 120 90 18 60
        E 0 90 54 60
        E 0 90 60 60
        E 120 80 18 00
        E 0 80 54 00
        E 0 80 60 00
        E 0 90 18 60
        E 0 90 60 60
        E 120 80 18 00
        E 0 80 60 00
        E 0 90 1a 60
        E 0 90 31 60
        E 0 90 3d 60
        E 0 90 49 60
        E 0 90 4b 60
        E 0 90 55 60
        E 0 90 57 60
        E 0 90 61 60
        E 0 90 63 60
        E 0 90 6f 60
        E 120 80 1a 00
        E 0 80 31 00
        E 0 80 3d 00
        E 0 80 49 00
        E 0 80 4b 00
        E 0 80 55 00
        E 0 80 57 00
        E 0 80 61 00
        E 0 80 63 00
        E 0 80 6f 00
        E 120 90 18 60
        E 0 90 54 60
        E 0 90 60 60
        E 120 80 18 00
        E 0 80 54 00
        E 0 80 60 00
        E 0 90 18 60
        E 120 80 18 00
        E 0 90 2e 60
        E 0 90 31 60
        E 0 90 3e 60
        E 0 90 3f 60
        E 0 90 4a 60
        E 0 90 4b 60
        E 0 90 56 60
        E 0 90 57 60
        E 0 90 62 60
        E 0 90 63 60
        E 0 90 6e 60
        E 0 90 6f 60
        E 120 80 2e 00
        E 0 80 31 00
        E 0 80 3e 00
        E 0 80 3f 00
        E 0 80 4a 00
        E 0 80 4b 00
        E 0 80 56 00
        E 0 80 57 00
        E 0 80 62 00
        E 0 80 63 00
        E 0 80 6e 00
        E 0 80 6f 00
        E 120 90 18 60
        E 0 90 54 60
        E 0 90 60 60
        E 120 80 18 00
        E 0 80 54 00
        E 0 80 60 00
        E 120 90 1a 60
        E 0 90 3d 60
        E 0 90 49 60
        E 0 90 55 60
        E 0 90 61 60
        E 120 80 1a 00
        E 0 80 3d 00
        E 0 80 49 00
        E 0 80 55 00
        E 0 80 61 00
        E 120 90 18 60
        E 0 90 54 60
        E 0 90 60 60
        E 120 80 18 00
        E 0 80 54 00
        E 0 80 60 00
        E 120 90 1a 60
        E 0 90 31 60
        E 0 90 3d 60
        E 0 90 49 60
        E 0 90 4b 60
        E 0 90 55 60
        E 0 90 57 60
        E 0 90 61 60
        E 0 90 63 60
        E 0 90 6f 60
        E 120 80 1a 00
        E 0 80 31 00
        E 0 80 3d 00
        E 0 80 49 00
        E 0 80 4b 00
        E 0 80 55 00
        E 0 80 57 00
        E 0 80 61 00
        E 0 80 63 00
        E 0 80 6f 00
        E 120 90 18 60
        E 0 90 54 60
        E 0 90 60 60
        E 120 80 18 00
        E 0 80 54 00
        E 0 80 60 00
        E 120 90 18 60
        E 0 90 2e 60
        E 0 90 31 60
        E 0 90 3e 60
        E 0 90 3f 60
        E 0 90 4a 60
        E 0 90 4b 60
        E 0 90 54 60
        E 0 90 56 60
        E 0 90 57 60
        E 0 90 60 60
        E 0 90 62 60
        E 0 90 63 60
        E 0 90 6e 60
        E 0 90 6f 60
        E 120 80 18 00
        E 0 80 2e 00
        E 0 80 31 00
        E 0 80 3e 00
        E 0 80 3f 00
        E 0 80 4a 00
        E 0 80 4b 00
        E 0 80 54 00
        E 0 80 56 00
        E 0 80 57 00
        E 0 80 60 00
        E 0 80 62 00
        E 0 80 63 00
        E 0 80 6e 00
        E 0 80 6f 00
        E 120 90 18 60
        E 0 90 54 60
        E 0 90 60 60
        E 120 80 18 00
        E 0 80 54 00
        E 0 80 60 00
        E 120 90 2e 60
        E 0 90 31 60
        E 0 90 3e 60
        E 0 90 3f 60
        E 0 90 4a 60
        E 0 90 4b 60
        E 0 90 56 60
        E 0 90 57 60
        E 0 90 62 60
        E 0 90 63 60
        E 0 90 6e 60
        E 0 90 6f 60
        E 120 80 2e 00
        E 0 80 31 00
        E 0 80 3e 00
        E 0 80 3f 00
        E 0 80 4a 00
        E 0 80 4b 00
        E 0 80 56 00
        E 0 80 57 00
        E 0 80 62 00
        E 0 80 63 00
        E 0 80 6e 00
        E 0 80 6f 00
        E 120 90 18 60
        E 0 90 54 60
        E 0 90 60 60
        E 120 80 18 00
        E 0 80 54 00
        E 0 80 60 00
        E 120 90 1a 60
        E 0 90 1b 60
        E 0 90 3d 60
        E 0 90 49 60
        E 0 90 4a 60
        E 0 90 55 60
        E 0 90 56 60
        E 0 90 61 60
        E 0 90 62 60
        E 0 90 6e 60
        E 120 80 1a 00
        E 0 80 1b 00
        E 0 80 3d 00
        E 0 80 49 00
        E 0 80 4a 00
        E 0 80 55 00
        E 0 80 56 00
        E 0 80 61 00
        E 0 80 62 00
        E 0 80 6e 00
        E 120 90 18 60
        E 0 90 54 60
        E 0 90 60 60
        E 120 80 18 00
        E 0 80 54 00
        E 0 80 60 00
        E 120 90 1b 60
        E 0 90 3d 60
        E 0 90 49 60
        E 0 90 55 60
        E 0 90 61 60
        E 120 80 1b 00
        E 0 80 3d 00
        E 0 80 49 00
        E 0 80 55 00
        E 0 80 61 00
        E 0 90 1a 60
        E 0 90 61 60
        E 120 80 1a 00
        E 0 80 61 00
        E 0 90 1b 60
        E 0 90 55 60
        E 0 90 61 60
        E 120 80 1b 00
        E 0 80 55 00
        E 0 80 61 00
        E 120 90 1b 60
        E 0 90 3d 60
        E 0 90 49 60
        E 0 90 55 60
        E 0 90 61 60
        E 120 80 1b 00
        E 0 80 3d 00
        E 0 80 49 00
        E 0 80 55 00
        E 0 80 61 00
        E 0 90 1a 60
        E 0 90 61 60
        E 120 80 1a 00
        E 0 80 61 00
        E 0 90 1b 60
        E 0 90 55 60
        E 0 90 61 60
        E 120 80 1b 00
        E 0 80 55 00
        E 0 80 61 00
        E 0 90 1a 60
        E 0 90 61 60
        E 120 80 1a 00
        E 0 80 61 00
        E 0 90 18 60
        E 0 90 24 60
        E 0 90 40 60
        E 0 90 48 60
        E 0 90 4c 60
        E 0 90 54 60
        E 0 90 58 60
        E 0 90 60 60
        E 0 90 64 60
        E 120 80 18 00
        E 0 80 24 00
        E 0 80 40 00
        E 0 80 48 00
        E 0 80 4c 00
        E 0 80 54 00
        E 0 80 58 00
        E 0 80 60 00
        E 0 80 64 00
        E 120 90 18 60
        E 0 90 54 60
        E 0 90 60 60
        E 120 80 18 00
        E 0 80 54 00
        E 0 80 60 00
        E 120 90 18 60
        E 0 90 24 60
        E 0 90 40 60
        E 0 90 48 60
        E 0 90 4c 60
        E 0 90 54 60
        E 0 90 58 60
        E 0 90 60 60
        E 0 90 64 60
        E 120 80 18 00
        E 0 80 24 00
        E 0 80 40 00
        E 0 80 48 00
        E 0 80 4c 00
        E 0 80 54 00
        E 0 80 58 00
        E 0 80 60 00
        E 0 80 64 00
        E 120 90 1a 60
        E 0 90 55 60
        E 0 90 61 60
        E 120 80 1a 00
        E 0 80 55 00
        E 0 80 61 00
        E 120 90 24 60
        E 0 90 40 60
        E 0 90 4c 60
        E 0 90 58 60
        E 0 90 64 60
        E 120 80 24 00
        E 0 80 40 00
        E 0 80 4c 00
        E 0 80 58 00
        E 0 80 64 00
        E 120 90 18 60
        E 0 90 54 60
        E 0 90 60 60
        E 120 80 18 00
        E 0 80 54 00
        E 0 80 60 00
        E 120 90 1a 60
        E 0 90 24 60
        E 0 90 3d 60
        E 0 90 49 60
        E 0 90 4c 60
        E 0 90 55 60
        E 0 90 58 60
        E 0 90 61 60
        E 0 90 64 60
        E 120 80 1a 00
        E 0 80 24 00
        E 0 80 3d 00
        E 0 80 49 00
        E 0 80 4c 00
        E 0 80 55 00
        E 0 80 58 00
        E 0 80 61 00
        E 0 80 64 00
        E 120 90 2f 60
        E 0 90 56 60
        E 0 90 62 60
        E 0 90 6e 60
        E 120 80 2f 00
        E 0 80 56 00
        E 0 80 62 00
        E 0 80 6e 00
        E 0 90 2e 60
        E 0 90 62 60
        E 0 90 6e 60
        E 120 80 2e 00
        E 0 80 62 00
        E 0 80 6e 00
        E 0 90 2f 60
        E 0 90 3e 60
        E 0 90 4a 60
        E 0 90 56 60
        E 0 90 62 60
        E 0 90 6e 60
        E 120 80 2f 00
        E 0 80 3e 00
        E 0 80 4a 00
        E 0 80 56 00
        E 0 80 62 00
        E 0 80 6e 00
        E 120 90 2f 60
        E 0 90 56 60
        E 0 90 62 60
        E 0 90 6e 60
        E 120 80 2f 00
        E 0 80 56 00
        E 0 80 62 00
        E 0 80 6e 00
        E 0 90 2e 60
        E 0 90 62 60
        E 0 90 6e 60
        E 120 80 2e 00
        E 0 80 62 00
        E 0 80 6e 00
        E 0 90 2f 60
        E 0 90 3e 60
        E 0 90 4a 60
        E 0 90 56 60
        E 0 90 62 60
        E 0 90 6e 60
        E 120 80 2f 00
        E 0 80 3e 00
        E 0 80 4a 00
        E 0 80 56 00
        E 0 80 62 00
        E 0 80 6e 00
        E 0 90 2e 60
        E 0 90 62 60
        E 0 90 6e 60
        E 120 80 2e 00
        E 0 80 62 00
        E 0 80 6e 00
        E 0 90 2f 60
        E 0 90 56 60
        E 0 90 62 60
        E 0 90 6e 60
        E 120 80 2f 00
        E 0 80 56 00
        E 0 80 62 00
        E 0 80 6e 00
        E 0 90 2e 60
        E 0 90 62 60
        E 0 90 6e 60
        E 120 80 2e 00
        E 0 80 62 00
        E 0 80 6e 00
        E 0 90 18 60
        E 0 90 24 60
        E 0 90 40 60
        E 0 90 48 60
        E 0 90 4c 60
        E 0 90 54 60
        E 0 90 58 60
        E 0 90 60 60
        E 0 90 64 60
        E 120 80 18 00
        E 0 80 24 00
        E 0 80 40 00
        E 0 80 48 00
        E 0 80 4c 00
        E 0 80 54 00
        E 0 80 58 00
        E 0 80 60 00
        E 0 80 64 00
        E 120 90 18 60
        E 0 90 54 60
        E 0 90 60 60
        E 120 80 18 00
        E 0 80 54 00
        E 0 80 60 00
        E 120 90 18 60
        E 0 90 24 60
        E 0 90 40 60
        E 0 90 48 60
        E 0 90 4c 60
        E 0 90 54 60
        E 0 90 58 60
        E 0 90 60 60
        E 0 90 64 60
        E 120 80 18 00
        E 0 80 24 00
        E 0 80 40 00
        E 0 80 48 00
        E 0 80 4c 00
        E 0 80 54 00
        E 0 80 58 00
        E 0 80 60 00
        E 0 80 64 00
        E 120 90 1a 60
        E 0 90 55 60
        E 0 90 61 60
        E 120 80 1a 00
        E 0 80 55 00
        E 0 80 61 00
        E 120 90 24 60
        E 0 90 40 60
        E 0 90 4c 60
        E 0 90 58 60
        E 0 90 64 60
        E 120 80 24 00
        E 0 80 40 00
        E 0 80 4c 00
        E 0 80 58 00
        E 0 80 64 00
        E 120 90 18 60
        E 0 90 54 60
        E 0 90 60 60
        E 120 80 18 00
        E 0 80 54 00
        E 0 80 60 00
        E 120 90 18 60
        E 0 90 24 60
        E 0 90 40 60
        E 0 90 48 60
        E 0 90 4c 60
        E 0 90 54 60
        E 0 90 58 60
        E 0 90 60 60
        E 0 90 64 60
        E 120 80 18 00
        E 0 80 24 00
        E 0 80 40 00
        E 0 80 48 00
        E 0 80 4c 00
        E 0 80 54 00
        E 0 80 58 00
        E 0 80 60 00
        E 0 80 64 00
        E 360 90 2f 60
        E 0 90 3e 60
        E 0 90 4a 60
        E 0 90 56 60
        E 0 90 62 60
        E 0 90 6e 60
        E 80 80 2f 00
        E 0 80 3e 00
        E 0 80 4a 00
        E 0 80 56 00
        E 0 80 62 00
        E 0 80 6e 00
        E 240 90 1a 60
        E 0 90 61 60
        E 80 80 1a 00
        E 0 80 61 00
        E 80 90 2f 60
        E 0 90 3e 60
        E 0 90 4a 60
        E 0 90 56 60
        E 0 90 62 60
        E 0 90 6e 60
        E 80 80 2f 00
        E 0 80 3e 00
        E 0 80 4a 00
        E 0 80 56 00
        E 0 80 62 00
        E 0 80 6e 00
        E 80 90 1a 60
        E 0 90 61 60
        E 80 80 1a 00
        E 0 80 61 00
        E 80 90 1b 60
        E 0 90 61 60
        E 80 80 1b 00
        E 0 80 61 00
        E 80 90 18 60
        E 0 90 22 60
        E 0 90 40 60
        E 0 90 48 60
        E 0 90 4c 60
        E 0 90 54 60
        E 0 90 58 60
        E 0 90 60 60
        E 0 90 64 60
        E 120 80 18 00
        E 0 80 22 00
        E 0 80 40 00
        E 0 80 48 00
        E 0 80 4c 00
        E 0 80 54 00
        E 0 80 58 00
        E 0 80 60 00
        E 0 80 64 00
        E 120 90 18 60
        E 0 90 54 60
        E 0 90 60 60
        E 120 80 18 00
        E 0 80 54 00
        E 0 80 60 00
        E 120 90 18 60
        E 0 90 2e 60
        E 0 90 31 60
        E 0 90 3e 60
        E 0 90 3f 60
        E 0 90 4a 60
        E 0 90 4b 60
        E 0 90 54 60
        E 0 90 56 60
        E 0 90 57 60
        E 0 90 60 60
        E 0 90 62 60
        E 0 90 63 60
        E 0 90 6e 60
        E 0 90 6f 60
        E 120 80 18 00
        E 0 80 2e 00
        E 0 80 31 00
        E 0 80 3e 00
        E 0 80 3f 00
        E 0 80 4a 00
        E 0 80 4b 00
        E 0 80 54 00
        E 0 80 56 00
        E 0 80 57 00
        E 0 80 60 00
        E 0 80 62 00
        E 0 80 63 00
        E 0 80 6e 00
        E 0 80 6f 00
        E 120 90 1a 60
        E 0 90 55 60
        E 0 90 61 60
        E 120 80 1a 00
        E 0 80 55 00
        E 0 80 61 00
        E 120 90 18 60
        E 0 90 2e 60
        E 0 90 31 60
        E 0 90 3e 60
        E 0 90 3f 60
        E 0 90 4a 60
        E 0 90 4b 60
        E 0 90 54 60
        E 0 90 56 60
        E 0 90 57 60
        E 0 90 60 60
        E 0 90 62 60
        E 0 90 63 60
        E 0 90 6e 60
        E 0 90 6f 60
        E 120 80 18 00
        E 0 80 2e 00
        E 0 80 31 00
        E 0 80 3e 00
        E 0 80 3f 00
        E 0 80 4a 00
        E 0 80 4b 00
        E 0 80 54 00
        E 0 80 56 00
        E 0 80 57 00
        E 0 80 60 00
        E 0 80 62 00
        E 0 80 63 00
        E 0 80 6e 00
        E 0 80 6f 00
        E 120 90 18 60
        E 0 90 54 60
        E 0 90 60 60
        E 120 80 18 00
        E 0 80 54 00
        E 0 80 60 00
        E 120 90 1a 60
        E 0 90 3d 60
        E 0 90 49 60
        E 0 90 55 60
        E 0 90 61 60
        E 120 80 1a 00
        E 0 80 3d 00
        E 0 80 49 00
        E 0 80 55 00
        E 0 80 61 00
        E 120 90 18 60
        E 0 90 54 60
        E 0 90 60 60
        E 120 80 18 00
        E 0 80 54 00
        E 0 80 60 00
        E 0 90 18 60
        E 0 90 60 60
        E 120 80 18 00
        E 0 80 60 00
        E 0 90 1a 60
        E 0 90 31 60
        E 0 90 3d 60
        E 0 90 49 60
        E 0 90 4b 60
        E 0 90 55 60
        E 0 90 57 60
        E 0 90 61 60
        E 0 90 63 60
        E 0 90 6f 60
        E 120 80 1a 00
        E 0 80 31 00
        E 0 80 3d 00
        E 0 80 49 00
        E 0 80 4b 00
        E 0 80 55 00
        E 0 80 57 00
        E 0 80 61 00
        E 0 80 63 00
        E 0 80 6f 00
        E 120 90 18 60
        E 0 90 54 60
        E 0 90 60 60
        E 120 80 18 00
        E 0 80 54 00
        E 0 80 60 00
        E 120 90 1a 60
        E 0 90 31 60
        E 0 90 3d 60
        E 0 90 49 60
        E 0 90 4b 60
        E 0 90 55 60
        E 0 90 57 60
        E 0 90 61 60
        E 0 90 63 60
        E 0 90 6f 60
        E 120 80 1a 00
        E 0 80 31 00
        E 0 80 3d 00
        E 0 80 49 00
        E 0 80 4b 00
        E 0 80 55 00
        E 0 80 57 00
        E 0 80 61 00
        E 0 80 63 00
        E 0 80 6f 00
        E 120 90 18 60
        E 0 90 54 60
        E 0 90 60 60
        E 120 80 18 00
        E 0 80 54 00
        E 0 80 60 00
        E 120 90 1a 60
        E 0 90 1b 60
        E 0 90 3d 60
        E 0 90 49 60
        E 0 90 4a 60
        E 0 90 55 60
        E 0 90 56 60
        E 0 90 61 60
        E 0 90 62 60
        E 0 90 6e 60
        E 120 80 1a 00
        E 0 80 1b 00
        E 0 80 3d 00
        E 0 80 49 00
        E 0 80 4a 00
        E 0 80 55 00
        E 0 80 56 00
        E 0 80 61 00
        E 0 80 62 00
        E 0 80 6e 00
        E 120 90 18 60
        E 0 90 54 60
        E 0 90 60 60
        E 120 80 18 00
        E 0 80 54 00
        E 0 80 60 00
        E 120 90 2e 60
        E 0 90 31 60
        E 0 90 3e 60
        E 0 90 3f 60
        E 0 90 4a 60
        E 0 90 4b 60
        E 0 90 56 60
        E 0 90 57 60
        E 0 90 62 60
        E 0 90 63 60
        E 0 90 6e 60
        E 0 90 6f 60
        E 120 80 2e 00
        E 0 80 31 00
        E 0 80 3e 00
        E 0 80 3f 00
        E 0 80 4a 00
        E 0 80 4b 00
        E 0 80 56 00
        E 0 80 57 00
        E 0 80 62 00
        E 0 80 63 00
        E 0 80 6e 00
        E 0 80 6f 00
        E 120 90 1a 60
        E 0 90 55 60
        E 0 90 61 60
        E 120 80 1a 00
        E 0 80 55 00
        E 0 80 61 00
        E 120 90 2f 60
        E 0 90 3e 60
        E 0 90 4a 60
        E 0 90 56 60
        E 0 90 62 60
        E 0 90 6e 60
        E 120 80 2f 00
        E 0 80 3e 00
        E 0 80 4a 00
        E 0 80 56 00
        E 0 80 62 00
        E 0 80 6e 00
        E 120 90 18 60
        E 0 90 54 60
        E 0 90 60 60
        E 120 80 18 00
        E 0 80 54 00
        E 0 80 60 00
        E 120 90 1a 60
        E 0 90 2a 60
        E 0 90 3d 60
        E 0 90 49 60
        E 0 90 4b 60
        E 0 90 55 60
        E 0 90 57 60
        E 0 90 61 60
        E 0 90 63 60
        E 120 80 1a 00
        E 0 80 2a 00
        E 0 80 3d 00
        E 0 80 49 00
        E 0 80 4b 00
        E 0 80 55 00
        E 0 80 57 00
        E 0 80 61 00
        E 0 80 63 00
        E 120 90 18 60
        E 0 90 54 60
        E 0 90 60 60
        E 120 80 18 00
        E 0 80 54 00
        E 0 80 60 00
        E 120 90 1b 60
        E 0 90 3d 60
        E 0 90 49 60
        E 0 90 55 60
        E 0 90 61 60
        E 120 80 1b 00
        E 0 80 3d 00
        E 0 80 49 00
        E 0 80 55 00
        E 0 80 61 00
        E 0 90 1a 60
        E 0 90 61 60
        E 120 80 1a 00
        E 0 80 61 00
        E 0 90 1b 60
        E 0 90 55 60
        E 0 90 61 60
        E 120 80 1b 00
        E 0 80 55 00
        E 0 80 61 00
        E 0 90 1a 60
        E 0 90 61 60
        E 120 80 1a 00
        E 0 80 61 00
        E 0 90 1b 60
        E 0 90 3d 60
        E 0 90 49 60
        E 0 90 55 60
        E 0 90 61 60
        E 120 80 1b 00
        E 0 80 3d 00
        E 0 80 49 00
        E 0 80 55 00
        E 0 80 61 00
        E 0 90 1a 60
        E 0 90 61 60
        E 120 80 1a 00
        E 0 80 61 00
        E 0 90 1b 60
        E 0 90 55 60
        E 0 90 61 60
        E 120 80 1b 00
        E 0 80 55 00
        E 0 80 61 00
        E 0 90 1a 60
        E 0 90 61 60
        E 120 80 1a 00
        E 0 80 61 00
        E 0 90 18 60
        E 0 90 24 60
        E 0 90 40 60
        E 0 90 48 60
        E 0 90 4c 60
        E 0 90 54 60
        E 0 90 58 60
        E 0 90 60 60
        E 0 90 64 60
        E 0 90 74 60
        E 120 80 18 00
        E 0 80 24 00
        E 0 80 40 00
        E 0 80 48 00
        E 0 80 4c 00
        E 0 80 54 00
        E 0 80 58 00
        E 0 80 60 00
        E 0 80 64 00
        E 120 90 1b 60
        E 0 90 55 60
        E 0 90 61 60
        E 120 80 1b 00
        E 0 80 55 00
        E 0 80 61 00
        E 0 90 1a 60
        E 0 90 61 60
        E 120 80 1a 00
        E 0 80 61 00
        E 0 90 18 60
        E 0 90 3c 60
        E 0 90 48 60
        E 0 90 54 60
        E 0 90 60 60
        E 120 80 18 00
        E 0 80 3c 00
        E 0 80 48 00
        E 0 80 54 00
        E 0 80 60 00
        E 0 90 18 60
        E 0 90 60 60
        E 120 80 18 00
        E 0 80 60 00
        E 0 90 1a 60
        E 0 90 24 60
        E 0 90 55 60
        E 0 90 58 60
        E 0 90 61 60
        E 0 90 64 60
        E 120 80 1a 00
        E 0 80 24 00
        E 0 80 55 00
        E 0 80 58 00
        E 0 80 61 00
        E 0 80 64 00
        E 360 90 18 60
        E 0 90 54 60
        E 0 90 60 60
        E 120 80 18 00
        E 0 80 54 00
        E 0 80 60 00
        E 120 90 18 60
        E 0 90 24 60
        E 0 90 40 60
        E 0 90 48 60
        E 0 90 4c 60
        E 0 90 54 60
        E 0 90 58 60
        E 0 90 60 60
        E 0 90 64 60
        E 120 80 18 00
        E 0 80 24 00
        E 0 80 40 00
        E 0 80 48 00
        E 0 80 4c 00
        E 0 80 54 00
        E 0 80 58 00
        E 0 80 60 00
        E 0 80 64 00
        E 120 90 1b 60
        E 0 90 55 60
        E 0 90 61 60
        E 120 80 1b 00
        E 0 80 55 00
        E 0 80 61 00
        E 0 90 1a 60
        E 0 90 61 60
        E 120 80 1a 00
        E 0 80 61 00
        E 0 90 1b 60
        E 0 90 3d 60
        E 0 90 49 60
        E 0 90 55 60
        E 0 90 61 60
        E 120 80 1b 00
        E 0 80 3d 00
        E 0 80 49 00
        E 0 80 55 00
        E 0 80 61 00
        E 0 90 1a 60
        E 0 90 61 60
        E 120 80 1a 00
        E 0 80 61 00
        E 0 90 2f 60
        E 0 90 56 60
        E 0 90 62 60
        E 0 90 6e 60
        E 120 80 2f 00
        E 0 80 56 00
        E 0 80 62 00
        E 0 80 6e 00
        E 0 90 2e 60
        E 0 90 62 60
        E 0 90 6e 60
        E 120 80 2e 00
        E 0 80 62 00
        E 0 80 6e 00
        E 0 90 31 60
        E 0 90 3f 60
        E 0 90 4b 60
        E 0 90 57 60
        E 0 90 63 60
        E 0 90 6f 60
        E 120 80 31 00
        E 0 80 3f 00
        E 0 80 4b 00
        E 0 80 57 00
        E 0 80 63 00
        E 0 80 6f 00
        E 120 90 1b 60
        E 0 90 55 60
        E 0 90 61 60
        E 120 80 1b 00
        E 0 80 55 00
        E 0 80 61 00
        E 0 90 1a 60
        E 0 90 61 60
        E 120 80 1a 00
        E 0 80 61 00
        E 0 90 18 60
        E 0 90 24 60
        E 0 90 40 60
        E 0 90 48 60
        E 0 90 4c 60
        E 0 90 54 60
        E 0 90 58 60
        E 0 90 60 60
        E 0 90 64 60
        E 120 80 18 00
        E 0 80 24 00
        E 0 80 40 00
        E 0 80 48 00
        E 0 80 4c 00
        E 0 80 54 00
        E 0 80 58 00
        E 0 80 60 00
        E 0 80 64 00
        E 120 90 1b 60
        E 0 90 55 60
        E 0 90 61 60
        E 120 80 1b 00
        E 0 80 55 00
        E 0 80 61 00
        E 0 90 1a 60
        E 0 90 61 60
        E 120 80 1a 00
        E 0 80 61 00
        E 0 90 18 60
        E 0 90 3c 60
        E 0 90 48 60
        E 0 90 54 60
        E 0 90 60 60
        E 120 80 18 00
        E 0 80 3c 00
        E 0 80 48 00
        E 0 80 54 00
        E 0 80 60 00
        E 0 90 18 60
        E 0 90 60 60
        E 120 80 18 00
        E 0 80 60 00
        E 0 90 1a 60
        E 0 90 24 60
        E 0 90 55 60
        E 0 90 58 60
        E 0 90 61 60
        E 0 90 64 60
        E 120 80 1a 00
        E 0 80 24 00
        E 0 80 55 00
        E 0 80 58 00
        E 0 80 61 00
        E 0 80 64 00
        E 360 90 18 60
        E 0 90 54 60
        E 0 90 60 60
        E 120 80 18 00
        E 0 80 54 00
        E 0 80 60 00
        E 120 90 18 60
        E 0 90 24 60
        E 0 90 40 60
        E 0 90 48 60
        E 0 90 4c 60
        E 0 90 54 60
        E 0 90 58 60
        E 0 90 60 60
        E 0 90 64 60
        E 120 80 18 00
        E 0 80 24 00
        E 0 80 40 00
        E 0 80 48 00
        E 0 80 4c 00
        E 0 80 54 00
        E 0 80 58 00
        E 0 80 60 00
        E 0 80 64 00
        E 120 90 1b 60
        E 0 90 55 60
        E 0 90 61 60
        E 120 80 1b 00
        E 0 80 55 00
        E 0 80 61 00
        E 0 90 1a 60
        E 0 90 61 60
        E 120 80 1a 00
        E 0 80 61 00
        E 0 90 1b 60
        E 0 90 3d 60
        E 0 90 49 60
        E 0 90 55 60
        E 0 90 61 60
        E 120 80 1b 00
        E 0 80 3d 00
        E 0 80 49 00
        E 0 80 55 00
        E 0 80 61 00
        E 0 90 1a 60
        E 0 90 61 60
        E 120 80 1a 00
        E 0 80 61 00
        E 0 90 1b 60
        E 0 90 55 60
        E 0 90 61 60
        E 120 80 1b 00
        E 0 80 55 00
        E 0 80 61 00
        E 0 90 1a 60
        E 0 90 61 60
        E 120 80 1a 00
        E 0 80 61 00
        E 0 90 1b 60
        E 0 90 3d 60
        E 0 90 49 60
        E 0 90 55 60
        E 0 90 61 60
        E 120 80 1b 00
        E 0 80 3d 00
        E 0 80 49 00
        E 0 80 55 00
        E 0 80 61 00
        E 0 90 1a 60
        E 0 90 61 60
        E 120 80 1a 00
        E 0 80 61 00
        E 0 90 1b 60
        E 0 90 55 60
        E 0 90 61 60
        E 120 80 1b 00
        E 0 80 55 00
        E 0 80 61 00
        E 0 90 1a 60
        E 0 90 61 60
        E 120 80 74 00
        E 0 80 1a 00
        E 0 80 61 00
        E 0 90 18 60
        E 0 90 24 60
        E 0 90 40 60
        E 0 90 48 60
        E 0 90 4c 60
        E 0 90 54 60
        E 0 90 58 60
        E 0 90 60 60
        E 0 90 64 60
        E 120 80 18 00
        E 0 80 24 00
        E 0 80 40 00
        E 0 80 48 00
        E 0 80 4c 00
        E 0 80 54 00
        E 0 80 58 00
        E 0 80 60 00
        E 0 80 64 00
        E 120 90 1b 60
        E 0 90 55 60
        E 0 90 61 60
        E 120 80 1b 00
        E 0 80 55 00
        E 0 80 61 00
        E 0 90 1a 60
        E 0 90 61 60
        E 120 80 1a 00
        E 0 80 61 00
        E 0 90 18 60
        E 0 90 3c 60
        E 0 90 48 60
        E 0 90 54 60
        E 0 90 60 60
        E 120 80 18 00
        E 0 80 3c 00
        E 0 80 48 00
        E 0 80 54 00
        E 0 80 60 00
        E 0 90 18 60
        E 0 90 60 60
        E 120 80 18 00
        E 0 80 60 00
        E 0 90 1a 60
        E 0 90 24 60
        E 0 90 55 60
        E 0 90 58 60
        E 0 90 61 60
        E 0 90 64 60
        E 120 80 1a 00
        E 0 80 24 00
        E 0 80 55 00
        E 0 80 58 00
        E 0 80 61 00
        E 0 80 64 00
        E 360 90 18 60
        E 0 90 54 60
        E 0 90 60 60
        E 120 80 18 00
        E 0 80 54 00
        E 0 80 60 00
        E 120 90 18 60
        E 0 90 24 60
        E 0 90 40 60
        E 0 90 48 60
        E 0 90 4c 60
        E 0 90 54 60
        E 0 90 58 60
        E 0 90 60 60
        E 0 90 64 60
        E 120 80 18 00
        E 0 80 24 00
        E 0 80 40 00
        E 0 80 48 00
        E 0 80 4c 00
        E 0 80 54 00
        E 0 80 58 00
        E 0 80 60 00
        E 0 80 64 00
        E 120 90 1b 60
        E 0 90 55 60
        E 0 90 61 60
        E 120 80 1b 00
        E 0 80 55 00
        E 0 80 61 00
        E 0 90 1a 60
        E 0 90 61 60
        E 120 80 1a 00
        E 0 80 61 00
        E 0 90 1b 60
        E 0 90 3d 60
        E 0 90 49 60
        E 0 90 55 60
        E 0 90 61 60
        E 120 80 1b 00
        E 0 80 3d 00
        E 0 80 49 00
        E 0 80 55 00
        E 0 80 61 00
        E 120 90 1b 60
        E 0 90 55 60
        E 0 90 61 60
        E 120 80 1b 00
        E 0 80 55 00
        E 0 80 61 00
        E 0 90 1a 60
        E 0 90 61 60
        E 120 80 1a 00
        E 0 80 61 00
        E 0 90 1b 60
        E 0 90 3d 60
        E 0 90 49 60
        E 0 90 55 60
        E 0 90 61 60
        E 120 80 1b 00
        E 0 80 3d 00
        E 0 80 49 00
        E 0 80 55 00
        E 0 80 61 00
        E 120 90 1b 60
        E 0 90 55 60
        E 0 90 61 60
        E 120 80 1b 00
        E 0 80 55 00
        E 0 80 61 00
        E 0 90 1a 60
        E 0 90 61 60
        E 120 80 1a 00
        E 0 80 61 00
        E 0 90 18 60
        E 0 90 24 60
        E 0 90 40 60
        E 0 90 48 60
        E 0 90 4c 60
        E 0 90 54 60
        E 0 90 58 60
        E 0 90 60 60
        E 0 90 64 60
        E 120 80 18 00
        E 0 80 24 00
        E 0 80 40 00
        E 0 80 48 00
        E 0 80 4c 00
        E 0 80 54 00
        E 0 80 58 00
        E 0 80 60 00
        E 0 80 64 00
        E 120 90 1b 60
        E 0 90 55 60
        E 0 90 61 60
        E 120 80 1b 00
        E 0 80 55 00
        E 0 80 61 00
        E 0 90 1a 60
        E 0 90 61 60
        E 120 80 1a 00
        E 0 80 61 00
        E 0 90 18 60
        E 0 90 3c 60
        E 0 90 48 60
        E 0 90 54 60
        E 0 90 60 60
        E 120 80 18 00
        E 0 80 3c 00
        E 0 80 48 00
        E 0 80 54 00
        E 0 80 60 00
        E 0 90 18 60
        E 0 90 60 60
        E 120 80 18 00
        E 0 80 60 00
        E 0 90 1a 60
        E 0 90 24 60
        E 0 90 55 60
        E 0 90 58 60
        E 0 90 61 60
        E 0 90 64 60
        E 120 80 1a 00
        E 0 80 24 00
        E 0 80 55 00
        E 0 80 58 00
        E 0 80 61 00
        E 0 80 64 00
        E 360 90 18 60
        E 0 90 54 60
        E 0 90 60 60
        E 120 80 18 00
        E 0 80 54 00
        E 0 80 60 00
        E 120 90 18 60
        E 0 90 24 60
        E 0 90 40 60
        E 0 90 48 60
        E 0 90 4c 60
        E 0 90 54 60
        E 0 90 58 60
        E 0 90 60 60
        E 0 90 64 60
        E 0 90 78 60
        E 0 90 79 60
        E 0 90 7a 60
        E 0 90 7b 60
        E 0 90 7c 60
        E 120 80 18 00
        E 0 80 24 00
        E 0 80 40 00
        E 0 80 48 00
        E 0 80 4c 00
        E 0 80 54 00
        E 0 80 58 00
        E 0 80 60 00
        E 0 80 64 00
        E 120 90 1b 60
        E 0 90 55 60
        E 0 90 61 60
        E 120 80 1b 00
        E 0 80 55 00
        E 0 80 61 00
        E 0 90 1a 60
        E 0 90 61 60
        E 120 80 1a 00
        E 0 80 61 00
        E 0 90 1b 60
        E 0 90 3d 60
        E 0 90 49 60
        E 0 90 55 60
        E 0 90 61 60
        E 120 80 1b 00
        E 0 80 3d 00
        E 0 80 49 00
        E 0 80 55 00
        E 0 80 61 00
        E 0 90 1a 60
        E 0 90 61 60
        E 120 80 1a 00
        E 0 80 61 00
        E 0 90 1b 60
        E 0 90 55 60
        E 0 90 61 60
        E 120 80 1b 00
        E 0 80 55 00
        E 0 80 61 00
        E 0 90 1a 60
        E 0 90 61 60
        E 120 80 1a 00
        E 0 80 61 00
        E 0 90 1b 60
        E 0 90 3d 60
        E 0 90 49 60
        E 0 90 55 60
        E 0 90 61 60
        E 120 80 1b 00
        E 0 80 3d 00
        E 0 80 49 00
        E 0 80 55 00
        E 0 80 61 00
        E 0 90 1a 60
        E 0 90 61 60
        E 120 80 1a 00
        E 0 80 61 00
        E 0 90 1b 60
        E 0 90 55 60
        E 0 90 61 60
        E 120 80 1b 00
        E 0 80 55 00
        E 0 80 61 00
        E 0 90 1a 60
        E 0 90 61 60
        E 120 80 78 00
        E 0 80 79 00
        E 0 80 7a 00
        E 0 80 7b 00
        E 0 80 7c 00
        E 0 80 1a 00
        E 0 80 61 00
        E 0 90 18 60
        E 0 90 24 60
        E 0 90 40 60
        E 0 90 48 60
        E 0 90 4c 60
        E 0 90 54 60
        E 0 90 58 60
        E 0 90 60 60
        E 0 90 64 60
        E 120 80 18 00
        E 0 80 24 00
        E 0 80 40 00
        E 0 80 48 00
        E 0 80 4c 00
        E 0 80 54 00
        E 0 80 58 00
        E 0 80 60 00
        E 0 80 64 00
        E 120 90 1b 60
        E 0 90 55 60
        E 0 90 61 60
        E 120 80 1b 00
        E 0 80 55 00
        E 0 80 61 00
        E 0 90 1a 60
        E 0 90 61 60
        E 120 80 1a 00
        E 0 80 61 00
        E 0 90 18 60
        E 0 90 3c 60
        E 0 90 48 60
        E 0 90 54 60
        E 0 90 60 60
        E 120 80 18 00
        E 0 80 3c 00
        E 0 80 48 00
        E 0 80 54 00
        E 0 80 60 00
        E 0 90 18 60
        E 0 90 60 60
        E 120 80 18 00
        E 0 80 60 00
        E 0 90 1a 60
        E 0 90 24 60
        E 0 90 55 60
        E 0 90 58 60
        E 0 90 61 60
        E 0 90 64 60
        E 120 80 1a 00
        E 0 80 24 00
        E 0 80 55 00
        E 0 80 58 00
        E 0 80 61 00
        E 0 80 64 00
        E 360 90 18 60
        E 0 90 2a 60
        E 0 90 54 60
        E 0 90 57 60
        E 0 90 60 60
        E 0 90 63 60
        E 120 80 18 00
        E 0 80 2a 00
        E 0 80 54 00
        E 0 80 57 00
        E 0 80 60 00
        E 0 80 63 00
        E 120 90 18 60
        E 0 90 24 60
        E 0 90 40 60
        E 0 90 48 60
        E 0 90 4c 60
        E 0 90 54 60
        E 0 90 58 60
        E 0 90 60 60
        E 0 90 64 60
        E 120 80 18 00
        E 0 80 24 00
        E 0 80 40 00
        E 0 80 48 00
        E 0 80 4c 00
        E 0 80 54 00
        E 0 80 58 00
        E 0 80 60 00
        E 0 80 64 00
        E 120 90 1b 60
        E 0 90 55 60
        E 0 90 61 60
        E 120 80 1b 00
        E 0 80 55 00
        E 0 80 61 00
        E 0 90 1a 60
        E 0 90 61 60
        E 120 80 1a 00
        E 0 80 61 00
        E 0 90 1b 60
        E 0 90 3d 60
        E 0 90 49 60
        E 0 90 55 60
        E 0 90 61 60
        E 120 80 1b 00
        E 0 80 3d 00
        E 0 80 49 00
        E 0 80 55 00
        E 0 80 61 00
        E 0 90 1a 60
        E 0 90 61 60
        E 120 80 1a 00
        E 0 80 61 00
        E 0 90 1b 60
        E 0 90 55 60
        E 0 90 61 60
        E 120 80 1b 00
        E 0 80 55 00
        E 0 80 61 00
        E 0 90 1a 60
        E 0 90 61 60
        E 120 80 1a 00
        E 0 80 61 00
        E 0 90 2f 60
        E 0 90 3e 60
        E 0 90 4a 60
        E 0 90 56 60
        E 0 90 62 60
        E 0 90 6e 60
        E 120 80 2f 00
        E 0 80 3e 00
        E 0 80 4a 00
        E 0 80 56 00
        E 0 80 62 00
        E 0 80 6e 00
        E 0 90 2e 60
        E 0 90 62 60
        E 0 90 6e 60
        E 120 80 2e 00
        E 0 80 62 00
        E 0 80 6e 00
        E 0 90 31 60
        E 0 90 57 60
        E 0 90 63 60
        E 0 90 6f 60
        E 120 80 31 00
        E 0 80 57 00
        E 0 80 63 00
        E 0 80 6f 00
        E 0 90 30 60
        E 0 90 63 60
        E 0 90 6f 60
        E 120 80 30 00
        E 0 80 63 00
        E 0 80 6f 00
        E 0 90 18 60
        E 0 90 24 60
        E 0 90 40 60
        E 0 90 48 60
        E 0 90 4c 60
        E 0 90 54 60
        E 0 90 58 60
        E 0 90 60 60
        E 0 90 64 60
        E 120 80 18 00
        E 0 80 24 00
        E 0 80 40 00
        E 0 80 48 00
        E 0 80 4c 00
        E 0 80 54 00
        E 0 80 58 00
        E 0 80 60 00
        E 0 80 64 00
        E 120 90 1b 60
        E 0 90 55 60
        E 0 90 61 60
        E 120 80 1b 00
        E 0 80 55 00
        E 0 80 61 00
        E 0 90 1a 60
        E 0 90 61 60
        E 120 80 1a 00
        E 0 80 61 00
        E 0 90 18 60
        E 0 90 3c 60
        E 0 90 48 60
        E 0 90 54 60
        E 0 90 60 60
        E 120 80 18 00
        E 0 80 3c 00
        E 0 80 48 00
        E 0 80 54 00
        E 0 80 60 00
        E 0 90 18 60
        E 0 90 60 60
        E 120 80 18 00
        E 0 80 60 00
        E 0 90 1a 60
        E 0 90 24 60
        E 0 90 55 60
        E 0 90 58 60
        E 0 90 61 60
        E 0 90 64 60
        E 120 80 1a 00
        E 0 80 24 00
        E 0 80 55 00
        E 0 80 58 00
        E 0 80 61 00
        E 0 80 64 00
        E 360 90 18 60
        E 0 90 54 60
        E 0 90 60 60
        E 120 80 18 00
        E 0 80 54 00
        E 0 80 60 00
        E 120 90 18 60
        E 0 90 24 60
        E 0 90 40 60
        E 0 90 48 60
        E 0 90 4c 60
        E 0 90 54 60
        E 0 90 58 60
        E 0 90 60 60
        E 0 90 64 60
        E 120 80 18 00
        E 0 80 24 00
        E 0 80 40 00
        E 0 80 48 00
        E 0 80 4c 00
        E 0 80 54 00
        E 0 80 58 00
        E 0 80 60 00
        E 0 80 64 00
        E 120 90 1b 60
        E 0 90 55 60
        E 0 90 61 60
        E 120 80 1b 00
        E 0 80 55 00
        E 0 80 61 00
        E 0 90 1a 60
        E 0 90 61 60
        E 120 80 1a 00
        E 0 80 61 00
        E 0 90 1b 60
        E 0 90 3d 60
        E 0 90 49 60
        E 0 90 55 60
        E 0 90 61 60
        E 120 80 1b 00
        E 0 80 3d 00
        E 0 80 49 00
        E 0 80 55 00
        E 0 80 61 00
        E 0 90 1a 60
        E 0 90 61 60
        E 120 80 1a 00
        E 0 80 61 00
        E 0 90 1b 60
        E 0 90 55 60
        E 0 90 61 60
        E 120 80 1b 00
        E 0 80 55 00
        E 0 80 61 00
        E 0 90 1a 60
        E 0 90 61 60
        E 120 80 1a 00
        E 0 80 61 00
        E 0 90 1b 60
        E 0 90 3d 60
        E 0 90 49 60
        E 0 90 55 60
        E 0 90 61 60
        E 120 80 1b 00
        E 0 80 3d 00
        E 0 80 49 00
        E 0 80 55 00
        E 0 80 61 00
        E 0 90 1a 60
        E 0 90 61 60
        E 120 80 1a 00
        E 0 80 61 00
        E 0 90 1b 60
        E 0 90 55 60
        E 0 90 61 60
        E 120 80 1b 00
        E 0 80 55 00
        E 0 80 61 00
        E 0 90 1a 60
        E 0 90 61 60
        E 120 80 1a 00
        E 0 80 61 00
        E 0 90 18 60
        E 0 90 24 60
        E 0 90 40 60
        E 0 90 48 60
        E 0 90 4c 60
        E 0 90 54 60
        E 0 90 58 60
        E 0 90 60 60
        E 0 90 64 60
        E 120 80 18 00
        E 0 80 24 00
        E 0 80 40 00
        E 0 80 48 00
        E 0 80 4c 00
        E 0 80 54 00
        E 0 80 58 00
        E 0 80 60 00
        E 0 80 64 00
        E 360 90 18 60
        E 0 90 3c 60
        E 0 90 48 60
        E 0 90 54 60
        E 0 90 60 60
        E 120 80 18 00
        E 0 80 3c 00
        E 0 80 48 00
        E 0 80 54 00
        E 0 80 60 00
        E 120 90 1a 60
        E 0 90 24 60
        E 0 90 55 60
        E 0 90 58 60
        E 0 90 61 60
        E 0 90 64 60
        E 120 80 1a 00
        E 0 80 24 00
        E 0 80 55 00
        E 0 80 58 00
        E 0 80 61 00
        E 0 80 64 00
        E 120 90 18 60
        E 0 90 3c 60
        E 0 90 48 60
        E 0 90 54 60
        E 0 90 60 60
        E 120 80 18 00
        E 0 80 3c 00
        E 0 80 48 00
        E 0 80 54 00
        E 0 80 60 00
        E 120 90 1a 60
        E 0 90 55 60
        E 0 90 61 60
        E 120 80 1a 00
        E 0 80 55 00
        E 0 80 61 00
        E 120 90 18 60
        E 0 90 24 60
        E 0 90 40 60
        E 0 90 48 60
        E 0 90 4c 60
        E 0 90 54 60
        E 0 90 58 60
        E 0 90 60 60
        E 0 90 64 60
        E 120 80 18 00
        E 0 80 24 00
        E 0 80 40 00
        E 0 80 48 00
        E 0 80 4c 00
        E 0 80 54 00
        E 0 80 58 00
        E 0 80 60 00
        E 0 80 64 00
        E 120 90 1b 60
        E 0 90 55 60
        E 0 90 61 60
        E 120 80 1b 00
        E 0 80 55 00
        E 0 80 61 00
        E 0 90 1a 60
        E 0 90 61 60
        E 120 80 1a 00
        E 0 80 61 00
        E 0 90 18 60
        E 0 90 24 60
        E 0 90 40 60
        E 0 90 48 60
        E 0 90 4c 60
        E 0 90 54 60
        E 0 90 58 60
        E 0 90 60 60
        E 0 90 64 60
        E 120 80 18 00
        E 0 80 24 00
        E 0 80 40 00
        E 0 80 48 00
        E 0 80 4c 00
        E 0 80 54 00
        E 0 80 58 00
        E 0 80 60 00
        E 0 80 64 00
        E 120 90 1b 60
        E 0 90 55 60
        E 0 90 61 60
        E 120 80 1b 00
        E 0 80 55 00
        E 0 80 61 00
        E 0 90 1a 60
        E 0 90 61 60
        E 120 80 1a 00
        E 0 80 61 00
        E 0 90 18 60
        E 0 90 24 60
        E 0 90 40 60
        E 0 90 48 60
        E 0 90 4c 60
        E 0 90 54 60
        E 0 90 58 60
        E 0 90 60 60
        E 0 90 64 60
        E 120 80 18 00
        E 0 80 24 00
        E 0 80 40 00
        E 0 80 48 00
        E 0 80 4c 00
        E 0 80 54 00
        E 0 80 58 00
        E 0 80 60 00
        E 0 80 64 00
        E 120 90 1b 60
        E 0 90 55 60
        E 0 90 61 60
        E 120 80 1b 00
        E 0 80 55 00
        E 0 80 61 00
        E 0 90 1a 60
        E 0 90 61 60
        E 120 80 1a 00
        E 0 80 61 00
        E 0 90 18 60
        E 0 90 24 60
        E 0 90 40 60
        E 0 90 48 60
        E 0 90 4c 60
        E 0 90 54 60
        E 0 90 58 60
        E 0 90 60 60
        E 0 90 64 60
        E 120 80 18 00
        E 0 80 24 00
        E 0 80 40 00
        E 0 80 48 00
        E 0 80 4c 00
        E 0 80 54 00
        E 0 80 58 00
        E 0 80 60 00
        E 0 80 64 00
        E 120 90 1b 60
        E 0 90 55 60
        E 0 90 61 60
        E 120 80 1b 00
        E 0 80 55 00
        E 0 80 61 00
        E 0 90 1a 60
        E 0 90 61 60
        E 120 80 1a 00
        E 0 80 61 00
        E 0 90 1b 60
        E 0 90 3d 60
        E 0 90 49 60
        E 0 90 55 60
        E 0 90 61 60
        E 120 80 1b 00
        E 0 80 3d 00
        E 0 80 49 00
        E 0 80 55 00
        E 0 80 61 00
        E 0 90 1a 60
        E 0 90 61 60
        E 120 80 1a 00
        E 0 80 61 00
        E 0 90 1b 60
        E 0 90 55 60
        E 0 90 61 60
        E 120 80 1b 00
        E 0 80 55 00
        E 0 80 61 00
        E 0 90 1a 60
        E 0 90 61 60
        E 120 80 1a 00
        E 0 80 61 00
        E 0 90 1b 60
        E 0 90 3d 60
        E 0 90 49 60
        E 0 90 55 60
        E 0 90 61 60
        E 120 80 1b 00
        E 0 80 3d 00
        E 0 80 49 00
        E 0 80 55 00
        E 0 80 61 00
        E 0 90 1a 60
        E 0 90 61 60
        E 120 80 1a 00
        E 0 80 61 00
        E 0 90 2f 60
        E 0 90 56 60
        E 0 90 62 60
        E 0 90 6e 60
        E 120 80 2f 00
        E 0 80 56 00
        E 0 80 62 00
        E 0 80 6e 00
        E 0 90 2e 60
        E 0 90 62 60
        E 0 90 6e 60
        E 120 80 2e 00
        E 0 80 62 00
        E 0 80 6e 00
        E 0 90 1b 60
        E 0 90 3d 60
        E 0 90 49 60
        E 0 90 55 60
        E 0 90 61 60
        E 120 80 1b 00
        E 0 80 3d 00
        E 0 80 49 00
        E 0 80 55 00
        E 0 80 61 00
        E 0 90 1a 60
        E 0 90 61 60
        E 120 80 1a 00
        E 0 80 61 00
        E 0 90 2f 60
        E 0 90 56 60
        E 0 90 62 60
        E 0 90 6e 60
        E 120 80 2f 00
        E 0 80 56 00
        E 0 80 62 00
        E 0 80 6e 00
        E 0 90 2e 60
        E 0 90 62 60
        E 0 90 6e 60
        E 120 80 2e 00
        E 0 80 62 00
        E 0 80 6e 00
        E 0 90 1b 60
        E 0 90 3d 60
        E 0 90 49 60
        E 0 90 55 60
        E 0 90 61 60
        E 120 80 1b 00
        E 0 80 3d 00
        E 0 80 49 00
        E 0 80 55 00
        E 0 80 61 00
        E 0 90 1a 60
        E 0 90 61 60
        E 120 80 1a 00
        E 0 80 61 00
        E 0 90 18 60
        E 0 90 54 60
        E 0 90 60 60
        E 120 80 18 00
        E 0 80 54 00
        E 0 80 60 00
        E 0 90 18 60
        E 0 90 60 60
        E 120 80 18 00
        E 0 80 60 00
        E 0 90 1a 60
        E 0 90 24 60
        E 0 90 3d 60
        E 0 90 49 60
        E 0 90 4c 60
        E 0 90 55 60
        E 0 90 58 60
        E 0 90 61 60
        E 0 90 64 60
        E 120 80 1a 00
        E 0 80 24 00
        E 0 80 3d 00
        E 0 80 49 00
        E 0 80 4c 00
        E 0 80 55 00
        E 0 80 58 00
        E 0 80 61 00
        E 0 80 64 00
        <X 480 0
          /wFbaWRsZV9yZWFsdGltZV0=
        >
        E 2280 b0 7b 00
        GUID {99C52F88-C54B-4CCD-B038-A5C950AC8E6E}
        IGNTEMPO 0 120 4 4
        SRCCOLOR 1497
        VELLANE 132 38 60
        COLORMAP "C:\Program Files (x86)\REAPER\Data\color_maps\rockband_drums.png"
        TEXTSTRINGFILE "Text Events List.txt"
        CFGEDITVIEW -60087.312228 5.378839 0 12 0 0 0 0 0 0.5
        KEYSNAP 0
        TRACKSEL 0 0 0 ""
        EVTFILTER 0 -1 -1 -1 -1 0 1 0 0 -1 -1 -1 -1 0 -1 0 -1 -1
        CFGEDIT 1 1 0 0 0 1 1 1 1 1 1 0.25 -8 -8 1370 736 1 2 1 2 0 0 0 0 0 0.5 1 0 1 64
      >
    >
  >
  <TRACK {4E61C46A-7B30-45C4-AD4C-97FBD14F7845}
    NAME "PART DRUMS_2X"
    PEAKCOL 16842751
    BEAT -1
    AUTOMODE 0
    VOLPAN 1 0 -1 -1 1
    MUTESOLO 0 0 0
    IPHASE 0
    ISBUS 0 0
    BUSCOMP 1 0
    SHOWINMIX 1 0.6667 0.5 1 0.5 0 0 0
    FREEMODE 0
    SEL 0
    REC 0 4096 1 7 0 0 0
    TRACKHEIGHT 57 0
    INQ 0 0 0 0.5 100 0 0 100
    NCHAN 2
    FX 1
    TRACKID {4E61C46A-7B30-45C4-AD4C-97FBD14F7845}
    PERF 0
    MIDIOUT -1
    <MIDINOTENAMES
      0 24 "KICK RF" 0 24
      0 25 "HI-HAT OPEN" 0 25
      0 26 "SNARE HARD LH" 0 26
      0 27 "SNARE HARD RH" 0 27
      0 28 "SNARE SOFT LH" 0 28
      0 29 "SNARE SOFT RH" 0 29
      0 30 "HI-HAT LH" 0 30
      0 31 "HI-HAT RH" 0 31
      0 32 "PERCUSSION RH" 0 32
      0 34 "CRASH1 HARD LH" 0 34
      0 35 "CRASH1 SOFT LH" 0 35
      0 36 "CRASH1 HARD RH" 0 36
      0 37 "CRASH1 SOFT RH" 0 37
      0 38 "CRASH2 HARD RH" 0 38
      0 39 "CRASH2 SOFT RH" 0 39
      0 40 "CRASH1 CHOKE" 0 40
      0 41 "CRASH2 CHOKE" 0 41
      0 42 "RIDE CYM RH" 0 42
      0 43 "RIDE CYM LH" 0 43
      0 44 "CRASH2 HARD LH" 0 44
      0 45 "CRASH2 SOFT LH" 0 45
      0 46 "TOM1 LH" 0 46
      0 47 "TOM1 RH" 0 47
      0 48 "TOM2 LH" 0 48
      0 49 "TOM2 RH" 0 49
      0 50 "FLOOR TOM LH" 0 50
      0 51 "FLOOR TOM RH" 0 51
      0 52 "--DRUM ANIMATION--" 0 52
      0 56 ---- 0 56
      0 60 "EASY Kick" 0 60
      0 61 "EASY Red" 0 61
      0 62 "EASY Yellow" 0 62
      0 63 "EASY Blue" 0 63
      0 64 "EASY Green" 0 64
      0 68 ---- 0 68
      0 72 "MEDIUM Kick" 0 72
      0 73 "MEDIUM Red" 0 73
      0 74 "MEDIUM Yellow" 0 74
      0 75 "MEDIUM Blue" 0 75
      0 76 "MEDIUM Green" 0 76
      0 80 ---- 0 80
      0 84 "HARD Kick" 0 84
      0 85 "HARD Red" 0 85
      0 86 "HARD Yellow" 0 86
      0 87 "HARD Blue" 0 87
      0 88 "HARD Green" 0 88
      0 92 ---- 0 92
      0 96 "EXPERT Kick" 0 96
      0 97 "EXPERT Red" 0 97
      0 98 "EXPERT Yellow" 0 98
      0 99 "EXPERT Blue" 0 99
      0 100 "EXPERT Green" 0 100
      0 101 " " 0 101
      0 102 ---- 0 102
      0 103 "Solo Marker" 0 103
      0 108 ---- 0 108
      0 110 "PRO Yellow Tom" 0 110
      0 111 "PRO Blue Tom" 0 111
      0 112 "PRO Green Tom" 0 112
      0 114 ---- 0 114
      0 116 OVERDRIVE 0 116
      0 118 ---- 0 118
      0 120 "DRUM FILL (use all 5)" 0 120
      0 121 "DRUM FILL" 0 121
      0 122 "DRUM FILL" 0 122
      0 123 "DRUM FILL" 0 123
      0 124 "DRUM FILL" 0 124
      0 125 ---- 0 125
      0 126 "Roll Marker 1-Lane" 0 126
      0 127 "Roll Marker 2-Lane / Cym" 0 127
    >
    MAINSEND 1 0
    <FXCHAIN
      WNDRECT 0 38 870 574
      SHOW 0
      LASTSEL 1
      DOCKED 0
      BYPASS 1 0 0
      <VST "VSTi: ReaSynth (Cockos)" reasynth.vst.dylib 0 "" 1919251321
        eXNlcu9e7f4AAAAAAgAAAAEAAAAAAAAAAgAAAAAAAAA8AAAAAAAAAAAAAAA=
        776t3g3wrd4AAAAAAAAAAAAAAAAAAAAAObRIPn3L2z61tLE5AAAAALbz/T5VpCs6AAAAAAAAAAAAAIA/
        AAAAAAAA
      >
      FLOATPOS 0 0 0 0
      FXID {58F55556-9407-4062-A048-6AFCC0B53535}
      WAK 0
      BYPASS 0 0 0
      <VST "VSTi: RBN Preview (RBN)" rbprev_vst.dll 0 "" ""
        dnBicu5e7f4AAAAAAgAAAAEAAAAAAAAAAgAAAAAAAAAEAAAAAQAAAAAAAAADAaoAAAAAAAAA
      >
      FLOATPOS 32 32 659 497
      FXID {D7126437-AB1E-4109-A0FA-F2D5D0AC68DC}
      WAK 0
    >
    <ITEM
      POSITION 0
      SNAPOFFS 0
      LENGTH 121.26242132124742
      LOOP 0
      ALLTAKES 0
      FADEIN 1 0 0 1 0 0
      FADEOUT 1 0 0 1 0 0
      MUTE 0
      COLOR 19150555 B
      SEL 0
      IGUID {9FF11F36-E94F-4396-9C0E-8449C916EC21}
      IID 3
      NAME "PART DRUMS_2X"
      VOLPAN 1 0 1 -1
      SOFFS 0 0
      PLAYRATE 1 1 0 -65536 0 0.0025
      CHANMODE 0
      GUID {70A79ADF-E70C-430A-913F-E16D0CC85517}
      <SOURCE MIDI
        HASDATA 1 480 QN
        POOLEDEVTS {ED5A5B42-6ADC-45CA-B474-1F9F9DE2C956}
        <X 0 0
          /wNQQVJUIERSVU1TXzJY
        >
        <X 300 0
          /wFbbWl4IDEgZHJ1bXMwXQ==
        >
        <X 0 0
          /wFbbWl4IDAgZHJ1bXMwXQ==
        >
        <X 60 0
          /wFbbWl4IDIgZHJ1bXMwXQ==
        >
        <X 60 0
          /wFbbWl4IDMgZHJ1bXMwXQ==
        >
        <X 2460 0
          /wFbaWRsZV0=
        >
        <X 5760 0
          /wFbcGxheV0=
        >
        E 960 90 1a 60
        E 0 90 1b 60
        E 0 90 3d 60
        E 0 90 49 60
        E 0 90 4a 60
        E 0 90 55 60
        E 0 90 56 60
        E 0 90 61 60
        E 0 90 62 60
        E 0 90 6e 60
        E 120 80 1a 00
        E 0 80 1b 00
        E 0 80 3d 00
        E 0 80 49 00
        E 0 80 4a 00
        E 0 80 55 00
        E 0 80 56 00
        E 0 80 61 00
        E 0 80 62 00
        E 0 80 6e 00
        E 360 90 18 60
        E 0 90 24 60
        E 0 90 40 60
        E 0 90 48 60
        E 0 90 4c 60
        E 0 90 54 60
        E 0 90 58 60
        E 0 90 60 60
        E 0 90 64 60
        E 120 80 18 00
        E 0 80 24 00
        E 0 80 40 00
        E 0 80 48 00
        E 0 80 4c 00
        E 0 80 54 00
        E 0 80 58 00
        E 0 80 60 00
        E 0 80 64 00
        E 120 90 18 60
        E 0 90 2a 60
        E 0 90 54 60
        E 0 90 57 60
        E 0 90 60 60
        E 0 90 63 60
        E 120 80 18 00
        E 0 80 2a 00
        E 0 80 54 00
        E 0 80 57 00
        E 0 80 60 00
        E 0 80 63 00
        E 120 90 18 60
        E 0 90 24 60
        E 0 90 40 60
        E 0 90 48 60
        E 0 90 4c 60
        E 0 90 54 60
        E 0 90 58 60
        E 0 90 60 60
        E 0 90 64 60
        E 120 80 18 00
        E 0 80 24 00
        E 0 80 40 00
        E 0 80 48 00
        E 0 80 4c 00
        E 0 80 54 00
        E 0 80 58 00
        E 0 80 60 00
        E 0 80 64 00
        E 120 90 1a 60
        E 0 90 55 60
        E 0 90 61 60
        E 120 80 1a 00
        E 0 80 55 00
        E 0 80 61 00
        E 120 90 24 60
        E 0 90 40 60
        E 0 90 4c 60
        E 0 90 58 60
        E 0 90 64 60
        E 120 80 24 00
        E 0 80 40 00
        E 0 80 4c 00
        E 0 80 58 00
        E 0 80 64 00
        E 120 90 18 60
        E 0 90 54 60
        E 0 90 60 60
        E 120 80 18 00
        E 0 80 54 00
        E 0 80 60 00
        E 120 90 1a 60
        E 0 90 24 60
        E 0 90 3d 60
        E 0 90 49 60
        E 0 90 4c 60
        E 0 90 55 60
        E 0 90 58 60
        E 0 90 61 60
        E 0 90 64 60
        E 120 80 1a 00
        E 0 80 24 00
        E 0 80 3d 00
        E 0 80 49 00
        E 0 80 4c 00
        E 0 80 55 00
        E 0 80 58 00
        E 0 80 61 00
        E 0 80 64 00
        E 120 90 18 60
        E 0 90 54 60
        E 0 90 60 60
        E 120 80 18 00
        E 0 80 54 00
        E 0 80 60 00
        E 120 90 1a 60
        E 0 90 24 60
        E 0 90 3d 60
        E 0 90 49 60
        E 0 90 4c 60
        E 0 90 55 60
        E 0 90 58 60
        E 0 90 61 60
        E 0 90 64 60
        E 120 80 1a 00
        E 0 80 24 00
        E 0 80 3d 00
        E 0 80 49 00
        E 0 80 4c 00
        E 0 80 55 00
        E 0 80 58 00
        E 0 80 61 00
        E 0 80 64 00
        E 120 90 18 60
        E 0 90 54 60
        E 0 90 60 60
        E 120 80 18 00
        E 0 80 54 00
        E 0 80 60 00
        E 120 90 1a 60
        E 0 90 24 60
        E 0 90 3d 60
        E 0 90 49 60
        E 0 90 4c 60
        E 0 90 55 60
        E 0 90 58 60
        E 0 90 61 60
        E 0 90 64 60
        E 120 80 1a 00
        E 0 80 24 00
        E 0 80 3d 00
        E 0 80 49 00
        E 0 80 4c 00
        E 0 80 55 00
        E 0 80 58 00
        E 0 80 61 00
        E 0 80 64 00
        E 360 90 18 60
        E 0 90 24 60
        E 0 90 40 60
        E 0 90 48 60
        E 0 90 4c 60
        E 0 90 54 60
        E 0 90 58 60
        E 0 90 60 60
        E 0 90 64 60
        E 120 80 18 00
        E 0 80 24 00
        E 0 80 40 00
        E 0 80 48 00
        E 0 80 4c 00
        E 0 80 54 00
        E 0 80 58 00
        E 0 80 60 00
        E 0 80 64 00
        E 120 90 18 60
        E 0 90 2a 60
        E 0 90 54 60
        E 0 90 57 60
        E 0 90 60 60
        E 0 90 63 60
        E 120 80 18 00
        E 0 80 2a 00
        E 0 80 54 00
        E 0 80 57 00
        E 0 80 60 00
        E 0 80 63 00
        E 120 90 18 60
        E 0 90 24 60
        E 0 90 40 60
        E 0 90 48 60
        E 0 90 4c 60
        E 0 90 54 60
        E 0 90 58 60
        E 0 90 60 60
        E 0 90 64 60
        E 120 80 18 00
        E 0 80 24 00
        E 0 80 40 00
        E 0 80 48 00
        E 0 80 4c 00
        E 0 80 54 00
        E 0 80 58 00
        E 0 80 60 00
        E 0 80 64 00
        E 120 90 1a 60
        E 0 90 55 60
        E 0 90 61 60
        E 120 80 1a 00
        E 0 80 55 00
        E 0 80 61 00
        E 120 90 24 60
        E 0 90 40 60
        E 0 90 4c 60
        E 0 90 58 60
        E 0 90 64 60
        E 120 80 24 00
        E 0 80 40 00
        E 0 80 4c 00
        E 0 80 58 00
        E 0 80 64 00
        E 120 90 18 60
        E 0 90 54 60
        E 0 90 60 60
        E 120 80 18 00
        E 0 80 54 00
        E 0 80 60 00
        E 120 90 18 60
        E 0 90 24 60
        E 0 90 40 60
        E 0 90 48 60
        E 0 90 4c 60
        E 0 90 54 60
        E 0 90 58 60
        E 0 90 60 60
        E 0 90 64 60
        E 120 80 18 00
        E 0 80 24 00
        E 0 80 40 00
        E 0 80 48 00
        E 0 80 4c 00
        E 0 80 54 00
        E 0 80 58 00
        E 0 80 60 00
        E 0 80 64 00
        E 120 90 1b 60
        E 0 90 55 60
        E 0 90 61 60
        E 120 80 1b 00
        E 0 80 55 00
        E 0 80 61 00
        E 0 90 1a 60
        E 0 90 61 60
        E 120 80 1a 00
        E 0 80 61 00
        E 0 90 1b 60
        E 0 90 3d 60
        E 0 90 49 60
        E 0 90 55 60
        E 0 90 61 60
        E 120 80 1b 00
        E 0 80 3d 00
        E 0 80 49 00
        E 0 80 55 00
        E 0 80 61 00
        E 120 90 1b 60
        E 0 90 55 60
        E 0 90 61 60
        E 120 80 1b 00
        E 0 80 55 00
        E 0 80 61 00
        E 0 90 1a 60
        E 0 90 61 60
        E 120 80 1a 00
        E 0 80 61 00
        E 0 90 1b 60
        E 0 90 3d 60
        E 0 90 49 60
        E 0 90 55 60
        E 0 90 61 60
        E 120 80 1b 00
        E 0 80 3d 00
        E 0 80 49 00
        E 0 80 55 00
        E 0 80 61 00
        E 120 90 1b 60
        E 0 90 55 60
        E 0 90 61 60
        E 120 80 1b 00
        E 0 80 55 00
        E 0 80 61 00
        E 0 90 1a 60
        E 0 90 61 60
        E 120 80 1a 00
        E 0 80 61 00
        E 0 90 18 60
        E 0 90 24 60
        E 0 90 40 60
        E 0 90 48 60
        E 0 90 4c 60
        E 0 90 54 60
        E 0 90 58 60
        E 0 90 60 60
        E 0 90 64 60
        E 120 80 18 00
        E 0 80 24 00
        E 0 80 40 00
        E 0 80 48 00
        E 0 80 4c 00
        E 0 80 54 00
        E 0 80 58 00
        E 0 80 60 00
        E 0 80 64 00
        E 120 90 18 60
        E 0 90 2a 60
        E 0 90 54 60
        E 0 90 57 60
        E 0 90 60 60
        E 0 90 63 60
        E 120 80 18 00
        E 0 80 2a 00
        E 0 80 54 00
        E 0 80 57 00
        E 0 80 60 00
        E 0 80 63 00
        E 120 90 18 60
        E 0 90 24 60
        E 0 90 40 60
        E 0 90 48 60
        E 0 90 4c 60
        E 0 90 54 60
        E 0 90 58 60
        E 0 90 60 60
        E 0 90 64 60
        E 120 80 18 00
        E 0 80 24 00
        E 0 80 40 00
        E 0 80 48 00
        E 0 80 4c 00
        E 0 80 54 00
        E 0 80 58 00
        E 0 80 60 00
        E 0 80 64 00
        E 120 90 1a 60
        E 0 90 24 60
        E 0 90 55 60
        E 0 90 58 60
        E 0 90 61 60
        E 0 90 64 60
        E 120 80 1a 00
        E 0 80 24 00
        E 0 80 55 00
        E 0 80 58 00
        E 0 80 61 00
        E 0 80 64 00
        E 120 90 24 60
        E 0 90 40 60
        E 0 90 4c 60
        E 0 90 58 60
        E 0 90 64 60
        E 120 80 24 00
        E 0 80 40 00
        E 0 80 4c 00
        E 0 80 58 00
        E 0 80 64 00
        E 120 90 18 60
        E 0 90 54 60
        E 0 90 60 60
        E 120 80 18 00
        E 0 80 54 00
        E 0 80 60 00
        E 120 90 18 60
        E 0 90 22 60
        E 0 90 26 60
        E 0 90 3e 60
        E 0 90 40 60
        E 0 90 48 60
        E 0 90 4a 60
        E 0 90 4c 60
        E 0 90 54 60
        E 0 90 56 60
        E 0 90 58 60
        E 0 90 60 60
        E 0 90 62 60
        E 0 90 64 60
        E 120 80 18 00
        E 0 80 22 00
        E 0 80 26 00
        E 0 80 3e 00
        E 0 80 40 00
        E 0 80 48 00
        E 0 80 4a 00
        E 0 80 4c 00
        E 0 80 54 00
        E 0 80 56 00
        E 0 80 58 00
        E 0 80 60 00
        E 0 80 62 00
        E 0 80 64 00
        E 120 90 1b 60
        E 0 90 55 60
        E 0 90 61 60
        E 120 80 1b 00
        E 0 80 55 00
        E 0 80 61 00
        E 0 90 1a 60
        E 0 90 61 60
        E 120 80 1a 00
        E 0 80 61 00
        E 0 90 1b 60
        E 0 90 3d 60
        E 0 90 49 60
        E 0 90 55 60
        E 0 90 61 60
        E 120 80 1b 00
        E 0 80 3d 00
        E 0 80 49 00
        E 0 80 55 00
        E 0 80 61 00
        E 120 90 1b 60
        E 0 90 55 60
        E 0 90 61 60
        E 120 80 1b 00
        E 0 80 55 00
        E 0 80 61 00
        E 0 90 1a 60
        E 0 90 61 60
        E 120 80 1a 00
        E 0 80 61 00
        E 0 90 1b 60
        E 0 90 3d 60
        E 0 90 49 60
        E 0 90 55 60
        E 0 90 61 60
        E 120 80 1b 00
        E 0 80 3d 00
        E 0 80 49 00
        E 0 80 55 00
        E 0 80 61 00
        E 0 90 1a 60
        E 0 90 61 60
        E 120 80 1a 00
        E 0 80 61 00
        E 0 90 1b 60
        E 0 90 55 60
        E 0 90 61 60
        E 120 80 1b 00
        E 0 80 55 00
        E 0 80 61 00
        E 0 90 1a 60
        E 0 90 61 60
        E 120 80 1a 00
        E 0 80 61 00
        E 0 90 2f 60
        E 0 90 3e 60
        E 0 90 4a 60
        E 0 90 56 60
        E 0 90 62 60
        E 0 90 6e 60
        E 120 80 2f 00
        E 0 80 3e 00
        E 0 80 4a 00
        E 0 80 56 00
        E 0 80 62 00
        E 0 80 6e 00
        E 0 90 1a 60
        E 0 90 61 60
        E 120 80 1a 00
        E 0 80 61 00
        E 0 90 1b 60
        E 0 90 55 60
        E 0 90 61 60
        E 120 80 1b 00
        E 0 80 55 00
        E 0 80 61 00
        E 0 90 1a 60
        E 0 90 61 60
        E 120 80 1a 00
        E 0 80 61 00
        E 0 90 2f 60
        E 0 90 3e 60
        E 0 90 4a 60
        E 0 90 56 60
        E 0 90 62 60
        E 0 90 6e 60
        E 120 80 2f 00
        E 0 80 3e 00
        E 0 80 4a 00
        E 0 80 56 00
        E 0 80 62 00
        E 0 80 6e 00
        E 0 90 1a 60
        E 0 90 61 60
        E 120 80 1a 00
        E 0 80 61 00
        E 0 90 1b 60
        E 0 90 55 60
        E 0 90 61 60
        E 120 80 1b 00
        E 0 80 55 00
        E 0 80 61 00
        E 0 90 1a 60
        E 0 90 61 60
        E 120 80 1a 00
        E 0 80 61 00
        E 0 90 1b 60
        E 0 90 3d 60
        E 0 90 49 60
        E 0 90 55 60
        E 0 90 61 60
        E 120 80 1b 00
        E 0 80 3d 00
        E 0 80 49 00
        E 0 80 55 00
        E 0 80 61 00
        E 0 90 1a 60
        E 0 90 61 60
        E 120 80 1a 00
        E 0 80 61 00
        E 0 90 1b 60
        E 0 90 55 60
        E 0 90 61 60
        E 120 80 1b 00
        E 0 80 55 00
        E 0 80 61 00
        E 0 90 1a 60
        E 0 90 61 60
        E 120 80 1a 00
        E 0 80 61 00
        E 0 90 2f 60
        E 0 90 3e 60
        E 0 90 4a 60
        E 0 90 56 60
        E 0 90 62 60
        E 0 90 6e 60
        E 120 80 2f 00
        E 0 80 3e 00
        E 0 80 4a 00
        E 0 80 56 00
        E 0 80 62 00
        E 0 80 6e 00
        E 0 90 1a 60
        E 0 90 61 60
        E 120 80 1a 00
        E 0 80 61 00
        E 0 90 1b 60
        E 0 90 55 60
        E 0 90 61 60
        E 120 80 1b 00
        E 0 80 55 00
        E 0 80 61 00
        E 0 90 1a 60
        E 0 90 61 60
        E 120 80 1a 00
        E 0 80 61 00
        E 0 90 2f 60
        E 0 90 3e 60
        E 0 90 4a 60
        E 0 90 56 60
        E 0 90 62 60
        E 0 90 6e 60
        E 120 80 2f 00
        E 0 80 3e 00
        E 0 80 4a 00
        E 0 80 56 00
        E 0 80 62 00
        E 0 80 6e 00
        E 0 90 1a 60
        E 0 90 61 60
        E 120 80 1a 00
        E 0 80 61 00
        E 0 90 1b 60
        E 0 90 55 60
        E 0 90 61 60
        E 120 80 1b 00
        E 0 80 55 00
        E 0 80 61 00
        E 0 90 1a 60
        E 0 90 61 60
        E 120 80 1a 00
        E 0 80 61 00
        E 0 90 2f 60
        E 0 90 3e 60
        E 0 90 4a 60
        E 0 90 56 60
        E 0 90 62 60
        E 0 90 6e 60
        E 120 80 2f 00
        E 0 80 3e 00
        E 0 80 4a 00
        E 0 80 56 00
        E 0 80 62 00
        E 0 80 6e 00
        E 0 90 2e 60
        E 0 90 62 60
        E 0 90 6e 60
        E 120 80 2e 00
        E 0 80 62 00
        E 0 80 6e 00
        E 0 90 31 60
        E 0 90 57 60
        E 0 90 63 60
        E 0 90 6f 60
        E 120 80 31 00
        E 0 80 57 00
        E 0 80 63 00
        E 0 80 6f 00
        E 0 90 30 60
        E 0 90 63 60
        E 0 90 6f 60
        E 120 80 30 00
        E 0 80 63 00
        E 0 80 6f 00
        E 0 90 18 60
        E 0 90 24 60
        E 0 90 40 60
        E 0 90 48 60
        E 0 90 4c 60
        E 0 90 54 60
        E 0 90 58 60
        E 0 90 60 60
        E 0 90 64 60
        e 0 90 74 60
        E 120 80 18 00
        E 0 80 24 00
        E 0 80 40 00
        E 0 80 48 00
        E 0 80 4c 00
        E 0 80 54 00
        E 0 80 58 00
        E 0 80 60 00
        E 0 80 64 00
        E 120 90 18 60
        E 0 90 2a 60
        E 0 90 54 60
        E 0 90 57 60
        E 0 90 60 60
        E 0 90 63 60
        E 120 80 18 00
        E 0 80 2a 00
        E 0 80 54 00
        E 0 80 57 00
        E 0 80 60 00
        E 0 80 63 00
        E 120 90 18 60
        E 0 90 24 60
        E 0 90 40 60
        E 0 90 48 60
        E 0 90 4c 60
        E 0 90 54 60
        E 0 90 58 60
        E 0 90 60 60
        E 0 90 64 60
        E 120 80 18 00
        E 0 80 24 00
        E 0 80 40 00
        E 0 80 48 00
        E 0 80 4c 00
        E 0 80 54 00
        E 0 80 58 00
        E 0 80 60 00
        E 0 80 64 00
        E 120 90 1a 60
        E 0 90 55 60
        E 0 90 61 60
        E 120 80 1a 00
        E 0 80 55 00
        E 0 80 61 00
        E 120 90 24 60
        E 0 90 40 60
        E 0 90 4c 60
        E 0 90 58 60
        E 0 90 64 60
        E 120 80 24 00
        E 0 80 40 00
        E 0 80 4c 00
        E 0 80 58 00
        E 0 80 64 00
        E 120 90 18 60
        E 0 90 54 60
        E 0 90 60 60
        E 120 80 18 00
        E 0 80 54 00
        E 0 80 60 00
        E 120 90 1a 60
        E 0 90 24 60
        E 0 90 3d 60
        E 0 90 49 60
        E 0 90 4c 60
        E 0 90 55 60
        E 0 90 58 60
        E 0 90 61 60
        E 0 90 64 60
        E 120 80 1a 00
        E 0 80 24 00
        E 0 80 3d 00
        E 0 80 49 00
        E 0 80 4c 00
        E 0 80 55 00
        E 0 80 58 00
        E 0 80 61 00
        E 0 80 64 00
        E 120 90 18 60
        E 0 90 54 60
        E 0 90 60 60
        E 120 80 18 00
        E 0 80 54 00
        E 0 80 60 00
        E 0 90 18 60
        E 0 90 60 60
        E 120 80 18 00
        E 0 80 60 00
        E 0 90 1a 60
        E 0 90 24 60
        E 0 90 3d 60
        E 0 90 49 60
        E 0 90 4c 60
        E 0 90 55 60
        E 0 90 58 60
        E 0 90 61 60
        E 0 90 64 60
        E 120 80 1a 00
        E 0 80 24 00
        E 0 80 3d 00
        E 0 80 49 00
        E 0 80 4c 00
        E 0 80 55 00
        E 0 80 58 00
        E 0 80 61 00
        E 0 80 64 00
        E 120 90 18 60
        E 0 90 54 60
        E 0 90 60 60
        E 120 80 18 00
        E 0 80 54 00
        E 0 80 60 00
        E 120 90 1a 60
        E 0 90 24 60
        E 0 90 3d 60
        E 0 90 49 60
        E 0 90 4c 60
        E 0 90 55 60
        E 0 90 58 60
        E 0 90 61 60
        E 0 90 64 60
        E 120 80 1a 00
        E 0 80 24 00
        E 0 80 3d 00
        E 0 80 49 00
        E 0 80 4c 00
        E 0 80 55 00
        E 0 80 58 00
        E 0 80 61 00
        E 0 80 64 00
        E 360 90 18 60
        E 0 90 24 60
        E 0 90 40 60
        E 0 90 48 60
        E 0 90 4c 60
        E 0 90 54 60
        E 0 90 58 60
        E 0 90 60 60
        E 0 90 64 60
        E 120 80 18 00
        E 0 80 24 00
        E 0 80 40 00
        E 0 80 48 00
        E 0 80 4c 00
        E 0 80 54 00
        E 0 80 58 00
        E 0 80 60 00
        E 0 80 64 00
        E 120 90 18 60
        E 0 90 2a 60
        E 0 90 54 60
        E 0 90 57 60
        E 0 90 60 60
        E 0 90 63 60
        E 120 80 18 00
        E 0 80 2a 00
        E 0 80 54 00
        E 0 80 57 00
        E 0 80 60 00
        E 0 80 63 00
        E 120 90 18 60
        E 0 90 24 60
        E 0 90 40 60
        E 0 90 48 60
        E 0 90 4c 60
        E 0 90 54 60
        E 0 90 58 60
        E 0 90 60 60
        E 0 90 64 60
        E 120 80 18 00
        E 0 80 24 00
        E 0 80 40 00
        E 0 80 48 00
        E 0 80 4c 00
        E 0 80 54 00
        E 0 80 58 00
        E 0 80 60 00
        E 0 80 64 00
        E 120 90 1a 60
        E 0 90 55 60
        E 0 90 61 60
        E 120 80 1a 00
        E 0 80 55 00
        E 0 80 61 00
        E 120 90 24 60
        E 0 90 40 60
        E 0 90 4c 60
        E 0 90 58 60
        E 0 90 64 60
        E 120 80 24 00
        E 0 80 40 00
        E 0 80 4c 00
        E 0 80 58 00
        E 0 80 64 00
        E 120 90 18 60
        E 0 90 54 60
        E 0 90 60 60
        E 120 80 18 00
        E 0 80 54 00
        E 0 80 60 00
        E 120 90 18 60
        E 0 90 24 60
        E 0 90 40 60
        E 0 90 48 60
        E 0 90 4c 60
        E 0 90 54 60
        E 0 90 58 60
        E 0 90 60 60
        E 0 90 64 60
        E 120 80 18 00
        E 0 80 24 00
        E 0 80 40 00
        E 0 80 48 00
        E 0 80 4c 00
        E 0 80 54 00
        E 0 80 58 00
        E 0 80 60 00
        E 0 80 64 00
        E 120 90 1b 60
        E 0 90 55 60
        E 0 90 61 60
        E 120 80 1b 00
        E 0 80 55 00
        E 0 80 61 00
        E 0 90 1a 60
        E 0 90 61 60
        E 120 80 1a 00
        E 0 80 61 00
        E 0 90 1b 60
        E 0 90 3d 60
        E 0 90 49 60
        E 0 90 55 60
        E 0 90 61 60
        E 120 80 1b 00
        E 0 80 3d 00
        E 0 80 49 00
        E 0 80 55 00
        E 0 80 61 00
        E 0 90 1a 60
        E 0 90 61 60
        E 120 80 1a 00
        E 0 80 61 00
        E 0 90 1b 60
        E 0 90 55 60
        E 0 90 61 60
        E 120 80 1b 00
        E 0 80 55 00
        E 0 80 61 00
        E 0 90 1a 60
        E 0 90 61 60
        E 120 80 1a 00
        E 0 80 61 00
        E 0 90 1b 60
        E 0 90 3d 60
        E 0 90 49 60
        E 0 90 55 60
        E 0 90 61 60
        E 120 80 1b 00
        E 0 80 3d 00
        E 0 80 49 00
        E 0 80 55 00
        E 0 80 61 00
        E 120 90 1b 60
        E 0 90 55 60
        E 0 90 61 60
        E 120 80 1b 00
        E 0 80 55 00
        E 0 80 61 00
        E 0 90 1a 60
        E 0 90 61 60
        E 120 80 1a 00
        E 0 80 61 00
        E 0 90 18 60
        E 0 90 24 60
        E 0 90 40 60
        E 0 90 48 60
        E 0 90 4c 60
        E 0 90 54 60
        E 0 90 58 60
        E 0 90 60 60
        E 0 90 64 60
        e 0 80 74 00
        E 120 80 18 00
        E 0 80 24 00
        E 0 80 40 00
        E 0 80 48 00
        E 0 80 4c 00
        E 0 80 54 00
        E 0 80 58 00
        E 0 80 60 00
        E 0 80 64 00
        E 120 90 18 60
        E 0 90 2a 60
        E 0 90 54 60
        E 0 90 57 60
        E 0 90 60 60
        E 0 90 63 60
        E 120 80 18 00
        E 0 80 2a 00
        E 0 80 54 00
        E 0 80 57 00
        E 0 80 60 00
        E 0 80 63 00
        E 120 90 18 60
        E 0 90 24 60
        E 0 90 40 60
        E 0 90 48 60
        E 0 90 4c 60
        E 0 90 54 60
        E 0 90 58 60
        E 0 90 60 60
        E 0 90 64 60
        E 120 80 18 00
        E 0 80 24 00
        E 0 80 40 00
        E 0 80 48 00
        E 0 80 4c 00
        E 0 80 54 00
        E 0 80 58 00
        E 0 80 60 00
        E 0 80 64 00
        E 120 90 1a 60
        E 0 90 55 60
        E 0 90 61 60
        E 120 80 1a 00
        E 0 80 55 00
        E 0 80 61 00
        E 120 90 24 60
        E 0 90 40 60
        E 0 90 4c 60
        E 0 90 58 60
        E 0 90 64 60
        E 120 80 24 00
        E 0 80 40 00
        E 0 80 4c 00
        E 0 80 58 00
        E 0 80 64 00
        E 120 90 18 60
        E 0 90 54 60
        E 0 90 60 60
        E 120 80 18 00
        E 0 80 54 00
        E 0 80 60 00
        E 120 90 1a 60
        E 0 90 24 60
        E 0 90 3d 60
        E 0 90 49 60
        E 0 90 4c 60
        E 0 90 55 60
        E 0 90 58 60
        E 0 90 61 60
        E 0 90 64 60
        E 120 80 1a 00
        E 0 80 24 00
        E 0 80 3d 00
        E 0 80 49 00
        E 0 80 4c 00
        E 0 80 55 00
        E 0 80 58 00
        E 0 80 61 00
        E 0 80 64 00
        E 120 90 18 60
        E 0 90 54 60
        E 0 90 60 60
        E 120 80 18 00
        E 0 80 54 00
        E 0 80 60 00
        E 0 90 18 60
        E 0 90 60 60
        E 120 80 18 00
        E 0 80 60 00
        E 0 90 1a 60
        E 0 90 24 60
        E 0 90 3d 60
        E 0 90 49 60
        E 0 90 4c 60
        E 0 90 55 60
        E 0 90 58 60
        E 0 90 61 60
        E 0 90 64 60
        E 120 80 1a 00
        E 0 80 24 00
        E 0 80 3d 00
        E 0 80 49 00
        E 0 80 4c 00
        E 0 80 55 00
        E 0 80 58 00
        E 0 80 61 00
        E 0 80 64 00
        E 120 90 18 60
        E 0 90 54 60
        E 0 90 60 60
        E 120 80 18 00
        E 0 80 54 00
        E 0 80 60 00
        E 120 90 1a 60
        E 0 90 24 60
        E 0 90 3d 60
        E 0 90 49 60
        E 0 90 4c 60
        E 0 90 55 60
        E 0 90 58 60
        E 0 90 61 60
        E 0 90 64 60
        E 120 80 1a 00
        E 0 80 24 00
        E 0 80 3d 00
        E 0 80 49 00
        E 0 80 4c 00
        E 0 80 55 00
        E 0 80 58 00
        E 0 80 61 00
        E 0 80 64 00
        E 360 90 18 60
        E 0 90 24 60
        E 0 90 40 60
        E 0 90 48 60
        E 0 90 4c 60
        E 0 90 54 60
        E 0 90 58 60
        E 0 90 60 60
        E 0 90 64 60
        E 120 80 18 00
        E 0 80 24 00
        E 0 80 40 00
        E 0 80 48 00
        E 0 80 4c 00
        E 0 80 54 00
        E 0 80 58 00
        E 0 80 60 00
        E 0 80 64 00
        E 120 90 1b 60
        E 0 90 55 60
        E 0 90 61 60
        E 120 80 1b 00
        E 0 80 55 00
        E 0 80 61 00
        E 0 90 1a 60
        E 0 90 61 60
        E 120 80 1a 00
        E 0 80 61 00
        E 0 90 18 60
        E 0 90 3c 60
        E 0 90 48 60
        E 0 90 54 60
        E 0 90 60 60
        E 120 80 18 00
        E 0 80 3c 00
        E 0 80 48 00
        E 0 80 54 00
        E 0 80 60 00
        E 0 90 18 60
        E 0 90 60 60
        E 120 80 18 00
        E 0 80 60 00
        E 0 90 1a 60
        E 0 90 24 60
        E 0 90 55 60
        E 0 90 58 60
        E 0 90 61 60
        E 0 90 64 60
        E 120 80 1a 00
        E 0 80 24 00
        E 0 80 55 00
        E 0 80 58 00
        E 0 80 61 00
        E 0 80 64 00
        E 360 90 18 60
        E 0 90 54 60
        E 0 90 60 60
        E 120 80 18 00
        E 0 80 54 00
        E 0 80 60 00
        E 120 90 18 60
        E 0 90 24 60
        E 0 90 40 60
        E 0 90 48 60
        E 0 90 4c 60
        E 0 90 54 60
        E 0 90 58 60
        E 0 90 60 60
        E 0 90 64 60
        E 120 80 18 00
        E 0 80 24 00
        E 0 80 40 00
        E 0 80 48 00
        E 0 80 4c 00
        E 0 80 54 00
        E 0 80 58 00
        E 0 80 60 00
        E 0 80 64 00
        E 120 90 1b 60
        E 0 90 55 60
        E 0 90 61 60
        E 120 80 1b 00
        E 0 80 55 00
        E 0 80 61 00
        E 0 90 1a 60
        E 0 90 61 60
        E 120 80 1a 00
        E 0 80 61 00
        E 0 90 1b 60
        E 0 90 3d 60
        E 0 90 49 60
        E 0 90 55 60
        E 0 90 61 60
        E 120 80 1b 00
        E 0 80 3d 00
        E 0 80 49 00
        E 0 80 55 00
        E 0 80 61 00
        E 0 90 1a 60
        E 0 90 61 60
        E 120 80 1a 00
        E 0 80 61 00
        E 0 90 1b 60
        E 0 90 55 60
        E 0 90 61 60
        E 120 80 1b 00
        E 0 80 55 00
        E 0 80 61 00
        E 0 90 1a 60
        E 0 90 61 60
        E 120 80 1a 00
        E 0 80 61 00
        E 0 90 2f 60
        E 0 90 3e 60
        E 0 90 4a 60
        E 0 90 56 60
        E 0 90 62 60
        E 0 90 6e 60
        E 120 80 2f 00
        E 0 80 3e 00
        E 0 80 4a 00
        E 0 80 56 00
        E 0 80 62 00
        E 0 80 6e 00
        E 0 90 2e 60
        E 0 90 62 60
        E 0 90 6e 60
        E 120 80 2e 00
        E 0 80 62 00
        E 0 80 6e 00
        E 0 90 2f 60
        E 0 90 56 60
        E 0 90 62 60
        E 0 90 6e 60
        E 120 80 2f 00
        E 0 80 56 00
        E 0 80 62 00
        E 0 80 6e 00
        E 0 90 2e 60
        E 0 90 62 60
        E 0 90 6e 60
        E 120 80 2e 00
        E 0 80 62 00
        E 0 80 6e 00
        E 0 90 18 60
        E 0 90 24 60
        E 0 90 40 60
        E 0 90 48 60
        E 0 90 4c 60
        E 0 90 54 60
        E 0 90 58 60
        E 0 90 60 60
        E 0 90 64 60
        E 120 80 18 00
        E 0 80 24 00
        E 0 80 40 00
        E 0 80 48 00
        E 0 80 4c 00
        E 0 80 54 00
        E 0 80 58 00
        E 0 80 60 00
        E 0 80 64 00
        E 120 90 1b 60
        E 0 90 55 60
        E 0 90 61 60
        E 120 80 1b 00
        E 0 80 55 00
        E 0 80 61 00
        E 0 90 1a 60
        E 0 90 61 60
        E 120 80 1a 00
        E 0 80 61 00
        E 0 90 18 60
        E 0 90 3c 60
        E 0 90 48 60
        E 0 90 54 60
        E 0 90 60 60
        E 120 80 18 00
        E 0 80 3c 00
        E 0 80 48 00
        E 0 80 54 00
        E 0 80 60 00
        E 0 90 18 60
        E 0 90 60 60
        E 120 80 18 00
        E 0 80 60 00
        E 0 90 1a 60
        E 0 90 24 60
        E 0 90 55 60
        E 0 90 58 60
        E 0 90 61 60
        E 0 90 64 60
        E 120 80 1a 00
        E 0 80 24 00
        E 0 80 55 00
        E 0 80 58 00
        E 0 80 61 00
        E 0 80 64 00
        E 360 90 18 60
        E 0 90 54 60
        E 0 90 60 60
        E 120 80 18 00
        E 0 80 54 00
        E 0 80 60 00
        E 120 90 18 60
        E 0 90 24 60
        E 0 90 40 60
        E 0 90 48 60
        E 0 90 4c 60
        E 0 90 54 60
        E 0 90 58 60
        E 0 90 60 60
        E 0 90 64 60
        E 120 80 18 00
        E 0 80 24 00
        E 0 80 40 00
        E 0 80 48 00
        E 0 80 4c 00
        E 0 80 54 00
        E 0 80 58 00
        E 0 80 60 00
        E 0 80 64 00
        E 120 90 1b 60
        E 0 90 55 60
        E 0 90 61 60
        E 120 80 1b 00
        E 0 80 55 00
        E 0 80 61 00
        E 0 90 1a 60
        E 0 90 61 60
        E 120 80 1a 00
        E 0 80 61 00
        E 0 90 1b 60
        E 0 90 3d 60
        E 0 90 49 60
        E 0 90 55 60
        E 0 90 61 60
        E 120 80 1b 00
        E 0 80 3d 00
        E 0 80 49 00
        E 0 80 55 00
        E 0 80 61 00
        E 0 90 1a 60
        E 0 90 61 60
        E 120 80 1a 00
        E 0 80 61 00
        E 0 90 1b 60
        E 0 90 55 60
        E 0 90 61 60
        E 120 80 1b 00
        E 0 80 55 00
        E 0 80 61 00
        E 0 90 1a 60
        E 0 90 61 60
        E 120 80 1a 00
        E 0 80 61 00
        E 0 90 2f 60
        E 0 90 3e 60
        E 0 90 4a 60
        E 0 90 56 60
        E 0 90 62 60
        E 0 90 6e 60
        E 120 80 2f 00
        E 0 80 3e 00
        E 0 80 4a 00
        E 0 80 56 00
        E 0 80 62 00
        E 0 80 6e 00
        E 0 90 2e 60
        E 0 90 62 60
        E 0 90 6e 60
        E 120 80 2e 00
        E 0 80 62 00
        E 0 80 6e 00
        E 0 90 2f 60
        E 0 90 56 60
        E 0 90 62 60
        E 0 90 6e 60
        E 120 80 2f 00
        E 0 80 56 00
        E 0 80 62 00
        E 0 80 6e 00
        E 0 90 2e 60
        E 0 90 62 60
        E 0 90 6e 60
        E 120 80 2e 00
        E 0 80 62 00
        E 0 80 6e 00
        E 0 90 18 60
        E 0 90 24 60
        E 0 90 40 60
        E 0 90 48 60
        E 0 90 4c 60
        E 0 90 54 60
        E 0 90 58 60
        E 0 90 60 60
        E 0 90 64 60
        E 120 80 18 00
        E 0 80 24 00
        E 0 80 40 00
        E 0 80 48 00
        E 0 80 4c 00
        E 0 80 54 00
        E 0 80 58 00
        E 0 80 60 00
        E 0 80 64 00
        E 120 90 1b 60
        E 0 90 55 60
        E 0 90 61 60
        E 120 80 1b 00
        E 0 80 55 00
        E 0 80 61 00
        E 0 90 1a 60
        E 0 90 61 60
        E 120 80 1a 00
        E 0 80 61 00
        E 0 90 18 60
        E 0 90 3c 60
        E 0 90 48 60
        E 0 90 54 60
        E 0 90 60 60
        E 120 80 18 00
        E 0 80 3c 00
        E 0 80 48 00
        E 0 80 54 00
        E 0 80 60 00
        E 0 90 18 60
        E 0 90 60 60
        E 120 80 18 00
        E 0 80 60 00
        E 0 90 1a 60
        E 0 90 24 60
        E 0 90 55 60
        E 0 90 58 60
        E 0 90 61 60
        E 0 90 64 60
        E 120 80 1a 00
        E 0 80 24 00
        E 0 80 55 00
        E 0 80 58 00
        E 0 80 61 00
        E 0 80 64 00
        E 360 90 18 60
        E 0 90 54 60
        E 0 90 60 60
        E 120 80 18 00
        E 0 80 54 00
        E 0 80 60 00
        E 120 90 18 60
        E 0 90 24 60
        E 0 90 40 60
        E 0 90 48 60
        E 0 90 4c 60
        E 0 90 54 60
        E 0 90 58 60
        E 0 90 60 60
        E 0 90 64 60
        E 120 80 18 00
        E 0 80 24 00
        E 0 80 40 00
        E 0 80 48 00
        E 0 80 4c 00
        E 0 80 54 00
        E 0 80 58 00
        E 0 80 60 00
        E 0 80 64 00
        E 120 90 1b 60
        E 0 90 55 60
        E 0 90 61 60
        E 120 80 1b 00
        E 0 80 55 00
        E 0 80 61 00
        E 0 90 1a 60
        E 0 90 61 60
        E 120 80 1a 00
        E 0 80 61 00
        E 0 90 1b 60
        E 0 90 3d 60
        E 0 90 49 60
        E 0 90 55 60
        E 0 90 61 60
        E 120 80 1b 00
        E 0 80 3d 00
        E 0 80 49 00
        E 0 80 55 00
        E 0 80 61 00
        E 0 90 1a 60
        E 0 90 61 60
        E 120 80 1a 00
        E 0 80 61 00
        E 0 90 1b 60
        E 0 90 55 60
        E 0 90 61 60
        E 120 80 1b 00
        E 0 80 55 00
        E 0 80 61 00
        E 0 90 1a 60
        E 0 90 61 60
        E 120 80 1a 00
        E 0 80 61 00
        E 0 90 1b 60
        E 0 90 3d 60
        E 0 90 49 60
        E 0 90 55 60
        E 0 90 61 60
        E 120 80 1b 00
        E 0 80 3d 00
        E 0 80 49 00
        E 0 80 55 00
        E 0 80 61 00
        E 0 90 1a 60
        E 0 90 61 60
        E 120 80 1a 00
        E 0 80 61 00
        E 0 90 1b 60
        E 0 90 55 60
        E 0 90 61 60
        E 120 80 1b 00
        E 0 80 55 00
        E 0 80 61 00
        E 0 90 1a 60
        E 0 90 61 60
        E 120 80 1a 00
        E 0 80 61 00
        E 0 90 1b 60
        E 0 90 3d 60
        E 0 90 49 60
        E 0 90 55 60
        E 0 90 61 60
        E 120 80 1b 00
        E 0 80 3d 00
        E 0 80 49 00
        E 0 80 55 00
        E 0 80 61 00
        E 0 90 1a 60
        E 0 90 61 60
        E 120 80 1a 00
        E 0 80 61 00
        E 0 90 1b 60
        E 0 90 55 60
        E 0 90 61 60
        E 120 80 1b 00
        E 0 80 55 00
        E 0 80 61 00
        E 0 90 1a 60
        E 0 90 61 60
        E 120 80 1a 00
        E 0 80 61 00
        E 0 90 18 60
        E 0 90 3c 60
        E 0 90 48 60
        E 0 90 54 60
        E 0 90 60 60
        E 120 80 18 00
        E 0 80 3c 00
        E 0 80 48 00
        E 0 80 54 00
        E 0 80 60 00
        E 120 90 1a 60
        E 0 90 24 60
        E 0 90 55 60
        E 0 90 58 60
        E 0 90 61 60
        E 0 90 64 60
        E 120 80 1a 00
        E 0 80 24 00
        E 0 80 55 00
        E 0 80 58 00
        E 0 80 61 00
        E 0 80 64 00
        E 360 90 18 60
        E 0 90 54 60
        E 0 90 60 60
        E 120 80 18 00
        E 0 80 54 00
        E 0 80 60 00
        E 120 90 18 60
        E 0 90 24 60
        E 0 90 40 60
        E 0 90 48 60
        E 0 90 4c 60
        E 0 90 54 60
        E 0 90 58 60
        E 0 90 60 60
        E 0 90 64 60
        E 120 80 18 00
        E 0 80 24 00
        E 0 80 40 00
        E 0 80 48 00
        E 0 80 4c 00
        E 0 80 54 00
        E 0 80 58 00
        E 0 80 60 00
        E 0 80 64 00
        E 240 90 1a 60
        E 0 90 61 60
        E 120 80 1a 00
        E 0 80 61 00
        E 0 90 1b 60
        E 0 90 3d 60
        E 0 90 49 60
        E 0 90 55 60
        E 0 90 61 60
        E 120 80 1b 00
        E 0 80 3d 00
        E 0 80 49 00
        E 0 80 55 00
        E 0 80 61 00
        E 240 90 1a 60
        E 0 90 61 60
        E 120 80 1a 00
        E 0 80 61 00
        E 0 90 1b 60
        E 0 90 3d 60
        E 0 90 49 60
        E 0 90 55 60
        E 0 90 61 60
        E 120 80 1b 00
        E 0 80 3d 00
        E 0 80 49 00
        E 0 80 55 00
        E 0 80 61 00
        E 120 90 18 60
        E 0 90 54 60
        E 0 90 60 60
        E 120 80 18 00
        E 0 80 54 00
        E 0 80 60 00
        E 120 90 18 60
        E 0 90 24 60
        E 0 90 40 60
        E 0 90 48 60
        E 0 90 4c 60
        E 0 90 54 60
        E 0 90 58 60
        E 0 90 60 60
        E 0 90 64 60
        E 120 80 18 00
        E 0 80 24 00
        E 0 80 40 00
        E 0 80 48 00
        E 0 80 4c 00
        E 0 80 54 00
        E 0 80 58 00
        E 0 80 60 00
        E 0 80 64 00
        E 120 90 18 60
        E 0 90 54 60
        E 0 90 60 60
        E 120 80 18 00
        E 0 80 54 00
        E 0 80 60 00
        E 120 90 18 60
        E 0 90 24 60
        E 0 90 40 60
        E 0 90 48 60
        E 0 90 4c 60
        E 0 90 54 60
        E 0 90 58 60
        E 0 90 60 60
        E 0 90 64 60
        E 120 80 18 00
        E 0 80 24 00
        E 0 80 40 00
        E 0 80 48 00
        E 0 80 4c 00
        E 0 80 54 00
        E 0 80 58 00
        E 0 80 60 00
        E 0 80 64 00
        E 120 90 1a 60
        E 0 90 55 60
        E 0 90 61 60
        E 120 80 1a 00
        E 0 80 55 00
        E 0 80 61 00
        E 120 90 24 60
        E 0 90 40 60
        E 0 90 4c 60
        E 0 90 58 60
        E 0 90 64 60
        E 120 80 24 00
        E 0 80 40 00
        E 0 80 4c 00
        E 0 80 58 00
        E 0 80 64 00
        E 120 90 18 60
        E 0 90 54 60
        E 0 90 60 60
        E 120 80 18 00
        E 0 80 54 00
        E 0 80 60 00
        E 120 90 18 60
        E 0 90 24 60
        E 0 90 40 60
        E 0 90 48 60
        E 0 90 4c 60
        E 0 90 54 60
        E 0 90 58 60
        E 0 90 60 60
        E 0 90 64 60
        E 120 80 18 00
        E 0 80 24 00
        E 0 80 40 00
        E 0 80 48 00
        E 0 80 4c 00
        E 0 80 54 00
        E 0 80 58 00
        E 0 80 60 00
        E 0 80 64 00
        E 120 90 1a 60
        E 0 90 55 60
        E 0 90 61 60
        E 120 80 1a 00
        E 0 80 55 00
        E 0 80 61 00
        E 120 90 24 60
        E 0 90 40 60
        E 0 90 4c 60
        E 0 90 58 60
        E 0 90 64 60
        E 120 80 24 00
        E 0 80 40 00
        E 0 80 4c 00
        E 0 80 58 00
        E 0 80 64 00
        E 120 90 2f 60
        E 0 90 56 60
        E 0 90 62 60
        E 0 90 6e 60
        E 120 80 2f 00
        E 0 80 56 00
        E 0 80 62 00
        E 0 80 6e 00
        E 120 90 18 60
        E 0 90 24 60
        E 0 90 40 60
        E 0 90 48 60
        E 0 90 4c 60
        E 0 90 54 60
        E 0 90 58 60
        E 0 90 60 60
        E 0 90 64 60
        E 120 80 18 00
        E 0 80 24 00
        E 0 80 40 00
        E 0 80 48 00
        E 0 80 4c 00
        E 0 80 54 00
        E 0 80 58 00
        E 0 80 60 00
        E 0 80 64 00
        E 120 90 1a 60
        E 0 90 55 60
        E 0 90 61 60
        E 120 80 1a 00
        E 0 80 55 00
        E 0 80 61 00
        E 120 90 18 60
        E 0 90 24 60
        E 0 90 40 60
        E 0 90 48 60
        E 0 90 4c 60
        E 0 90 54 60
        E 0 90 58 60
        E 0 90 60 60
        E 0 90 64 60
        E 120 80 18 00
        E 0 80 24 00
        E 0 80 40 00
        E 0 80 48 00
        E 0 80 4c 00
        E 0 80 54 00
        E 0 80 58 00
        E 0 80 60 00
        E 0 80 64 00
        E 120 90 31 60
        E 0 90 57 60
        E 0 90 63 60
        E 0 90 6f 60
        E 120 80 31 00
        E 0 80 57 00
        E 0 80 63 00
        E 0 80 6f 00
        E 120 90 18 60
        E 0 90 24 60
        E 0 90 40 60
        E 0 90 48 60
        E 0 90 4c 60
        E 0 90 54 60
        E 0 90 58 60
        E 0 90 60 60
        E 0 90 64 60
        E 120 80 18 00
        E 0 80 24 00
        E 0 80 40 00
        E 0 80 48 00
        E 0 80 4c 00
        E 0 80 54 00
        E 0 80 58 00
        E 0 80 60 00
        E 0 80 64 00
        E 120 90 1a 60
        E 0 90 55 60
        E 0 90 61 60
        E 120 80 1a 00
        E 0 80 55 00
        E 0 80 61 00
        E 120 90 24 60
        E 0 90 40 60
        E 0 90 4c 60
        E 0 90 58 60
        E 0 90 64 60
        E 120 80 24 00
        E 0 80 40 00
        E 0 80 4c 00
        E 0 80 58 00
        E 0 80 64 00
        E 120 90 31 60
        E 0 90 57 60
        E 0 90 63 60
        E 0 90 6f 60
        E 120 80 31 00
        E 0 80 57 00
        E 0 80 63 00
        E 0 80 6f 00
        E 120 90 24 60
        E 0 90 40 60
        E 0 90 4c 60
        E 0 90 58 60
        E 0 90 64 60
        E 120 80 24 00
        E 0 80 40 00
        E 0 80 4c 00
        E 0 80 58 00
        E 0 80 64 00
        E 120 90 31 60
        E 0 90 57 60
        E 0 90 63 60
        E 0 90 6f 60
        E 120 80 31 00
        E 0 80 57 00
        E 0 80 63 00
        E 0 80 6f 00
        E 120 90 30 60
        E 0 90 33 60
        E 0 90 3f 60
        E 0 90 40 60
        E 0 90 4b 60
        E 0 90 4c 60
        E 0 90 57 60
        E 0 90 58 60
        E 0 90 63 60
        E 0 90 64 60
        E 0 90 6f 60
        E 120 80 30 00
        E 0 80 33 00
        E 0 80 3f 00
        E 0 80 40 00
        E 0 80 4b 00
        E 0 80 4c 00
        E 0 80 57 00
        E 0 80 58 00
        E 0 80 63 00
        E 0 80 64 00
        E 0 80 6f 00
        E 120 90 18 60
        E 0 90 54 60
        E 0 90 60 60
        E 120 80 18 00
        E 0 80 54 00
        E 0 80 60 00
        E 120 90 1a 60
        E 0 90 24 60
        E 0 90 3d 60
        E 0 90 49 60
        E 0 90 4c 60
        E 0 90 55 60
        E 0 90 58 60
        E 0 90 61 60
        E 0 90 64 60
        E 120 80 1a 00
        E 0 80 24 00
        E 0 80 3d 00
        E 0 80 49 00
        E 0 80 4c 00
        E 0 80 55 00
        E 0 80 58 00
        E 0 80 61 00
        E 0 80 64 00
        E 120 90 1b 60
        E 0 90 55 60
        E 0 90 61 60
        E 120 80 1b 00
        E 0 80 55 00
        E 0 80 61 00
        E 0 90 1a 60
        E 0 90 61 60
        E 120 80 1a 00
        E 0 80 61 00
        E 0 90 18 60
        E 0 90 24 60
        E 0 90 40 60
        E 0 90 48 60
        E 0 90 4c 60
        E 0 90 54 60
        E 0 90 58 60
        E 0 90 60 60
        E 0 90 64 60
        E 120 80 18 00
        E 0 80 24 00
        E 0 80 40 00
        E 0 80 48 00
        E 0 80 4c 00
        E 0 80 54 00
        E 0 80 58 00
        E 0 80 60 00
        E 0 80 64 00
        E 120 90 18 60
        E 0 90 54 60
        E 0 90 60 60
        E 120 80 18 00
        E 0 80 54 00
        E 0 80 60 00
        E 120 90 18 60
        E 0 90 24 60
        E 0 90 40 60
        E 0 90 48 60
        E 0 90 4c 60
        E 0 90 54 60
        E 0 90 58 60
        E 0 90 60 60
        E 0 90 64 60
        E 120 80 18 00
        E 0 80 24 00
        E 0 80 40 00
        E 0 80 48 00
        E 0 80 4c 00
        E 0 80 54 00
        E 0 80 58 00
        E 0 80 60 00
        E 0 80 64 00
        E 120 90 1a 60
        E 0 90 55 60
        E 0 90 61 60
        E 120 80 1a 00
        E 0 80 55 00
        E 0 80 61 00
        E 120 90 24 60
        E 0 90 40 60
        E 0 90 4c 60
        E 0 90 58 60
        E 0 90 64 60
        E 120 80 24 00
        E 0 80 40 00
        E 0 80 4c 00
        E 0 80 58 00
        E 0 80 64 00
        E 120 90 18 60
        E 0 90 54 60
        E 0 90 60 60
        E 120 80 18 00
        E 0 80 54 00
        E 0 80 60 00
        E 120 90 18 60
        E 0 90 24 60
        E 0 90 40 60
        E 0 90 48 60
        E 0 90 4c 60
        E 0 90 54 60
        E 0 90 58 60
        E 0 90 60 60
        E 0 90 64 60
        E 120 80 18 00
        E 0 80 24 00
        E 0 80 40 00
        E 0 80 48 00
        E 0 80 4c 00
        E 0 80 54 00
        E 0 80 58 00
        E 0 80 60 00
        E 0 80 64 00
        E 120 90 1b 60
        E 0 90 55 60
        E 0 90 61 60
        E 120 80 1b 00
        E 0 80 55 00
        E 0 80 61 00
        E 0 90 1a 60
        E 0 90 61 60
        E 120 80 1a 00
        E 0 80 61 00
        E 0 90 1b 60
        E 0 90 3d 60
        E 0 90 49 60
        E 0 90 55 60
        E 0 90 61 60
        E 120 80 1b 00
        E 0 80 3d 00
        E 0 80 49 00
        E 0 80 55 00
        E 0 80 61 00
        E 0 90 1a 60
        E 0 90 61 60
        E 120 80 1a 00
        E 0 80 61 00
        E 0 90 1b 60
        E 0 90 55 60
        E 0 90 61 60
        E 120 80 1b 00
        E 0 80 55 00
        E 0 80 61 00
        E 0 90 1a 60
        E 0 90 61 60
        E 120 80 1a 00
        E 0 80 61 00
        E 0 90 2f 60
        E 0 90 3e 60
        E 0 90 4a 60
        E 0 90 56 60
        E 0 90 62 60
        E 0 90 6e 60
        E 120 80 2f 00
        E 0 80 3e 00
        E 0 80 4a 00
        E 0 80 56 00
        E 0 80 62 00
        E 0 80 6e 00
        E 0 90 2e 60
        E 0 90 62 60
        E 0 90 6e 60
        E 120 80 2e 00
        E 0 80 62 00
        E 0 80 6e 00
        E 0 90 31 60
        E 0 90 57 60
        E 0 90 63 60
        E 0 90 6f 60
        E 120 80 31 00
        E 0 80 57 00
        E 0 80 63 00
        E 0 80 6f 00
        E 0 90 30 60
        E 0 90 63 60
        E 0 90 6f 60
        E 120 80 30 00
        E 0 80 63 00
        E 0 80 6f 00
        E 0 90 18 60
        E 0 90 24 60
        E 0 90 40 60
        E 0 90 48 60
        E 0 90 4c 60
        E 0 90 54 60
        E 0 90 58 60
        E 0 90 60 60
        E 0 90 64 60
        E 120 80 18 00
        E 0 80 24 00
        E 0 80 40 00
        E 0 80 48 00
        E 0 80 4c 00
        E 0 80 54 00
        E 0 80 58 00
        E 0 80 60 00
        E 0 80 64 00
        E 120 90 18 60
        E 0 90 54 60
        E 0 90 60 60
        E 120 80 18 00
        E 0 80 54 00
        E 0 80 60 00
        E 120 90 18 60
        E 0 90 24 60
        E 0 90 40 60
        E 0 90 48 60
        E 0 90 4c 60
        E 0 90 54 60
        E 0 90 58 60
        E 0 90 60 60
        E 0 90 64 60
        E 120 80 18 00
        E 0 80 24 00
        E 0 80 40 00
        E 0 80 48 00
        E 0 80 4c 00
        E 0 80 54 00
        E 0 80 58 00
        E 0 80 60 00
        E 0 80 64 00
        E 120 90 1a 60
        E 0 90 55 60
        E 0 90 61 60
        E 120 80 1a 00
        E 0 80 55 00
        E 0 80 61 00
        E 120 90 24 60
        E 0 90 40 60
        E 0 90 4c 60
        E 0 90 58 60
        E 0 90 64 60
        E 120 80 24 00
        E 0 80 40 00
        E 0 80 4c 00
        E 0 80 58 00
        E 0 80 64 00
        E 120 90 18 60
        E 0 90 54 60
        E 0 90 60 60
        E 120 80 18 00
        E 0 80 54 00
        E 0 80 60 00
        E 120 90 1a 60
        E 0 90 24 60
        E 0 90 3d 60
        E 0 90 49 60
        E 0 90 4c 60
        E 0 90 55 60
        E 0 90 58 60
        E 0 90 61 60
        E 0 90 64 60
        E 120 80 1a 00
        E 0 80 24 00
        E 0 80 3d 00
        E 0 80 49 00
        E 0 80 4c 00
        E 0 80 55 00
        E 0 80 58 00
        E 0 80 61 00
        E 0 80 64 00
        E 120 90 1b 60
        E 0 90 55 60
        E 0 90 61 60
        E 120 80 1b 00
        E 0 80 55 00
        E 0 80 61 00
        E 0 90 1a 60
        E 0 90 61 60
        E 120 80 1a 00
        E 0 80 61 00
        E 0 90 1b 60
        E 0 90 3d 60
        E 0 90 49 60
        E 0 90 55 60
        E 0 90 61 60
        E 120 80 1b 00
        E 0 80 3d 00
        E 0 80 49 00
        E 0 80 55 00
        E 0 80 61 00
        E 120 90 1a 60
        E 0 90 55 60
        E 0 90 61 60
        E 120 80 1a 00
        E 0 80 55 00
        E 0 80 61 00
        E 120 90 1a 60
        E 0 90 3d 60
        E 0 90 49 60
        E 0 90 55 60
        E 0 90 61 60
        E 120 80 1a 00
        E 0 80 3d 00
        E 0 80 49 00
        E 0 80 55 00
        E 0 80 61 00
        E 120 90 18 60
        E 0 90 54 60
        E 0 90 60 60
        E 120 80 18 00
        E 0 80 54 00
        E 0 80 60 00
        E 120 90 18 60
        E 0 90 24 60
        E 0 90 40 60
        E 0 90 48 60
        E 0 90 4c 60
        E 0 90 54 60
        E 0 90 58 60
        E 0 90 60 60
        E 0 90 64 60
        E 120 80 18 00
        E 0 80 24 00
        E 0 80 40 00
        E 0 80 48 00
        E 0 80 4c 00
        E 0 80 54 00
        E 0 80 58 00
        E 0 80 60 00
        E 0 80 64 00
        E 120 90 18 60
        E 0 90 54 60
        E 0 90 60 60
        E 120 80 18 00
        E 0 80 54 00
        E 0 80 60 00
        E 120 90 18 60
        E 0 90 2e 60
        E 0 90 31 60
        E 0 90 3e 60
        E 0 90 3f 60
        E 0 90 4a 60
        E 0 90 4b 60
        E 0 90 54 60
        E 0 90 56 60
        E 0 90 57 60
        E 0 90 60 60
        E 0 90 62 60
        E 0 90 63 60
        E 0 90 6e 60
        E 0 90 6f 60
        E 120 80 18 00
        E 0 80 2e 00
        E 0 80 31 00
        E 0 80 3e 00
        E 0 80 3f 00
        E 0 80 4a 00
        E 0 80 4b 00
        E 0 80 54 00
        E 0 80 56 00
        E 0 80 57 00
        E 0 80 60 00
        E 0 80 62 00
        E 0 80 63 00
        E 0 80 6e 00
        E 0 80 6f 00
        E 120 90 1a 60
        E 0 90 55 60
        E 0 90 61 60
        E 120 80 1a 00
        E 0 80 55 00
        E 0 80 61 00
        E 120 90 18 60
        E 0 90 3c 60
        E 0 90 48 60
        E 0 90 54 60
        E 0 90 60 60
        E 120 80 18 00
        E 0 80 3c 00
        E 0 80 48 00
        E 0 80 54 00
        E 0 80 60 00
        E 120 90 18 60
        E 0 90 2e 60
        E 0 90 31 60
        E 0 90 54 60
        E 0 90 56 60
        E 0 90 57 60
        E 0 90 60 60
        E 0 90 62 60
        E 0 90 63 60
        E 0 90 6e 60
        E 0 90 6f 60
        E 120 80 18 00
        E 0 80 2e 00
        E 0 80 31 00
        E 0 80 54 00
        E 0 80 56 00
        E 0 80 57 00
        E 0 80 60 00
        E 0 80 62 00
        E 0 80 63 00
        E 0 80 6e 00
        E 0 80 6f 00
        E 120 90 1a 60
        E 0 90 3d 60
        E 0 90 49 60
        E 0 90 55 60
        E 0 90 61 60
        E 120 80 1a 00
        E 0 80 3d 00
        E 0 80 49 00
        E 0 80 55 00
        E 0 80 61 00
        E 120 90 18 60
        E 0 90 54 60
        E 0 90 60 60
        E 120 80 18 00
        E 0 80 54 00
        E 0 80 60 00
        E 0 90 18 60
        E 0 90 60 60
        E 120 80 18 00
        E 0 80 60 00
        E 0 90 1a 60
        E 0 90 3d 60
        E 0 90 49 60
        E 0 90 55 60
        E 0 90 61 60
        E 120 80 1a 00
        E 0 80 3d 00
        E 0 80 49 00
        E 0 80 55 00
        E 0 80 61 00
        E 120 90 18 60
        E 0 90 2e 60
        E 0 90 31 60
        E 0 90 54 60
        E 0 90 56 60
        E 0 90 57 60
        E 0 90 60 60
        E 0 90 62 60
        E 0 90 63 60
        E 0 90 6e 60
        E 0 90 6f 60
        E 120 80 18 00
        E 0 80 2e 00
        E 0 80 31 00
        E 0 80 54 00
        E 0 80 56 00
        E 0 80 57 00
        E 0 80 60 00
        E 0 80 62 00
        E 0 80 63 00
        E 0 80 6e 00
        E 0 80 6f 00
        E 120 90 1a 60
        E 0 90 3d 60
        E 0 90 49 60
        E 0 90 55 60
        E 0 90 61 60
        E 120 80 1a 00
        E 0 80 3d 00
        E 0 80 49 00
        E 0 80 55 00
        E 0 80 61 00
        E 120 90 18 60
        E 0 90 2e 60
        E 0 90 31 60
        E 0 90 54 60
        E 0 90 56 60
        E 0 90 57 60
        E 0 90 60 60
        E 0 90 62 60
        E 0 90 63 60
        E 0 90 6e 60
        E 0 90 6f 60
        E 120 80 18 00
        E 0 80 2e 00
        E 0 80 31 00
        E 0 80 54 00
        E 0 80 56 00
        E 0 80 57 00
        E 0 80 60 00
        E 0 80 62 00
        E 0 80 63 00
        E 0 80 6e 00
        E 0 80 6f 00
        E 120 90 1a 60
        E 0 90 3d 60
        E 0 90 49 60
        E 0 90 55 60
        E 0 90 61 60
        E 120 80 1a 00
        E 0 80 3d 00
        E 0 80 49 00
        E 0 80 55 00
        E 0 80 61 00
        E 120 90 18 60
        E 0 90 54 60
        E 0 90 60 60
        E 120 80 18 00
        E 0 80 54 00
        E 0 80 60 00
        E 120 90 18 60
        E 0 90 2e 60
        E 0 90 31 60
        E 0 90 3e 60
        E 0 90 3f 60
        E 0 90 4a 60
        E 0 90 4b 60
        E 0 90 54 60
        E 0 90 56 60
        E 0 90 57 60
        E 0 90 60 60
        E 0 90 62 60
        E 0 90 63 60
        E 0 90 6e 60
        E 0 90 6f 60
        E 120 80 18 00
        E 0 80 2e 00
        E 0 80 31 00
        E 0 80 3e 00
        E 0 80 3f 00
        E 0 80 4a 00
        E 0 80 4b 00
        E 0 80 54 00
        E 0 80 56 00
        E 0 80 57 00
        E 0 80 60 00
        E 0 80 62 00
        E 0 80 63 00
        E 0 80 6e 00
        E 0 80 6f 00
        E 120 90 1a 60
        E 0 90 55 60
        E 0 90 61 60
        E 120 80 1a 00
        E 0 80 55 00
        E 0 80 61 00
        E 120 90 18 60
        E 0 90 3c 60
        E 0 90 48 60
        E 0 90 54 60
        E 0 90 60 60
        E 120 80 18 00
        E 0 80 3c 00
        E 0 80 48 00
        E 0 80 54 00
        E 0 80 60 00
        E 120 90 18 60
        E 0 90 2e 60
        E 0 90 31 60
        E 0 90 54 60
        E 0 90 56 60
        E 0 90 57 60
        E 0 90 60 60
        E 0 90 62 60
        E 0 90 63 60
        E 0 90 6e 60
        E 0 90 6f 60
        E 120 80 18 00
        E 0 80 2e 00
        E 0 80 31 00
        E 0 80 54 00
        E 0 80 56 00
        E 0 80 57 00
        E 0 80 60 00
        E 0 80 62 00
        E 0 80 63 00
        E 0 80 6e 00
        E 0 80 6f 00
        E 120 90 1a 60
        E 0 90 1b 60
        E 0 90 3d 60
        E 0 90 49 60
        E 0 90 4a 60
        E 0 90 55 60
        E 0 90 57 60
        E 0 90 61 60
        E 0 90 63 60
        E 120 80 1a 00
        E 0 80 1b 00
        E 0 80 3d 00
        E 0 80 49 00
        E 0 80 4a 00
        E 0 80 55 00
        E 0 80 57 00
        E 0 80 61 00
        E 0 80 63 00
        E 120 90 18 60
        E 0 90 54 60
        E 0 90 60 60
        E 120 80 18 00
        E 0 80 54 00
        E 0 80 60 00
        E 120 90 1b 60
        E 0 90 3d 60
        E 0 90 49 60
        E 0 90 55 60
        E 0 90 61 60
        E 120 80 1b 00
        E 0 80 3d 00
        E 0 80 49 00
        E 0 80 55 00
        E 0 80 61 00
        E 0 90 1a 60
        E 0 90 61 60
        E 120 80 1a 00
        E 0 80 61 00
        E 0 90 1b 60
        E 0 90 55 60
        E 0 90 61 60
        E 120 80 1b 00
        E 0 80 55 00
        E 0 80 61 00
        E 0 90 1a 60
        E 0 90 61 60
        E 120 80 1a 00
        E 0 80 61 00
        E 0 90 1b 60
        E 0 90 3d 60
        E 0 90 49 60
        E 0 90 55 60
        E 0 90 61 60
        E 120 80 1b 00
        E 0 80 3d 00
        E 0 80 49 00
        E 0 80 55 00
        E 0 80 61 00
        E 0 90 1a 60
        E 0 90 61 60
        E 120 80 1a 00
        E 0 80 61 00
        E 0 90 1b 60
        E 0 90 55 60
        E 0 90 61 60
        E 120 80 1b 00
        E 0 80 55 00
        E 0 80 61 00
        E 0 90 1a 60
        E 0 90 61 60
        E 120 80 1a 00
        E 0 80 61 00
        E 0 90 18 60
        E 0 90 24 60
        E 0 90 40 60
        E 0 90 48 60
        E 0 90 4c 60
        E 0 90 54 60
        E 0 90 58 60
        E 0 90 60 60
        E 0 90 64 60
        e 0 90 74 60
        E 120 80 18 00
        E 0 80 24 00
        E 0 80 40 00
        E 0 80 48 00
        E 0 80 4c 00
        E 0 80 54 00
        E 0 80 58 00
        E 0 80 60 00
        E 0 80 64 00
        E 120 90 1a 60
        E 0 90 55 60
        E 0 90 61 60
        E 120 80 1a 00
        E 0 80 55 00
        E 0 80 61 00
        E 120 90 18 60
        E 0 90 3c 60
        E 0 90 48 60
        E 0 90 54 60
        E 0 90 60 60
        E 120 80 18 00
        E 0 80 3c 00
        E 0 80 48 00
        E 0 80 54 00
        E 0 80 60 00
        E 0 90 18 60
        E 0 90 60 60
        E 120 80 18 00
        E 0 80 60 00
        E 0 90 1a 60
        E 0 90 24 60
        E 0 90 55 60
        E 0 90 58 60
        E 0 90 61 60
        E 0 90 64 60
        E 120 80 1a 00
        E 0 80 24 00
        E 0 80 55 00
        E 0 80 58 00
        E 0 80 61 00
        E 0 80 64 00
        E 360 90 18 60
        E 0 90 54 60
        E 0 90 60 60
        E 120 80 18 00
        E 0 80 54 00
        E 0 80 60 00
        E 120 90 18 60
        E 0 90 24 60
        E 0 90 40 60
        E 0 90 48 60
        E 0 90 4c 60
        E 0 90 54 60
        E 0 90 58 60
        E 0 90 60 60
        E 0 90 64 60
        E 120 80 18 00
        E 0 80 24 00
        E 0 80 40 00
        E 0 80 48 00
        E 0 80 4c 00
        E 0 80 54 00
        E 0 80 58 00
        E 0 80 60 00
        E 0 80 64 00
        E 120 90 2f 60
        E 0 90 56 60
        E 0 90 62 60
        E 0 90 6e 60
        E 120 80 2f 00
        E 0 80 56 00
        E 0 80 62 00
        E 0 80 6e 00
        E 0 90 2e 60
        E 0 90 62 60
        E 0 90 6e 60
        E 120 80 2e 00
        E 0 80 62 00
        E 0 80 6e 00
        E 0 90 2f 60
        E 0 90 3e 60
        E 0 90 4a 60
        E 0 90 56 60
        E 0 90 62 60
        E 0 90 6e 60
        E 120 80 2f 00
        E 0 80 3e 00
        E 0 80 4a 00
        E 0 80 56 00
        E 0 80 62 00
        E 0 80 6e 00
        E 120 90 2f 60
        E 0 90 56 60
        E 0 90 62 60
        E 0 90 6e 60
        E 120 80 2f 00
        E 0 80 56 00
        E 0 80 62 00
        E 0 80 6e 00
        E 0 90 2e 60
        E 0 90 62 60
        E 0 90 6e 60
        E 120 80 2e 00
        E 0 80 62 00
        E 0 80 6e 00
        E 0 90 2f 60
        E 0 90 3e 60
        E 0 90 4a 60
        E 0 90 56 60
        E 0 90 62 60
        E 0 90 6e 60
        E 120 80 2f 00
        E 0 80 3e 00
        E 0 80 4a 00
        E 0 80 56 00
        E 0 80 62 00
        E 0 80 6e 00
        E 0 90 2e 60
        E 0 90 62 60
        E 0 90 6e 60
        E 120 80 2e 00
        E 0 80 62 00
        E 0 80 6e 00
        E 0 90 2f 60
        E 0 90 56 60
        E 0 90 62 60
        E 0 90 6e 60
        E 120 80 2f 00
        E 0 80 56 00
        E 0 80 62 00
        E 0 80 6e 00
        E 0 90 2e 60
        E 0 90 62 60
        E 0 90 6e 60
        E 120 80 2e 00
        E 0 80 62 00
        E 0 80 6e 00
        E 0 90 18 60
        E 0 90 24 60
        E 0 90 40 60
        E 0 90 48 60
        E 0 90 4c 60
        E 0 90 54 60
        E 0 90 58 60
        E 0 90 60 60
        E 0 90 64 60
        E 120 80 18 00
        E 0 80 24 00
        E 0 80 40 00
        E 0 80 48 00
        E 0 80 4c 00
        E 0 80 54 00
        E 0 80 58 00
        E 0 80 60 00
        E 0 80 64 00
        E 120 90 18 60
        E 0 90 54 60
        E 0 90 60 60
        E 120 80 18 00
        E 0 80 54 00
        E 0 80 60 00
        E 120 90 18 60
        E 0 90 24 60
        E 0 90 40 60
        E 0 90 48 60
        E 0 90 4c 60
        E 0 90 54 60
        E 0 90 58 60
        E 0 90 60 60
        E 0 90 64 60
        E 120 80 18 00
        E 0 80 24 00
        E 0 80 40 00
        E 0 80 48 00
        E 0 80 4c 00
        E 0 80 54 00
        E 0 80 58 00
        E 0 80 60 00
        E 0 80 64 00
        E 120 90 1a 60
        E 0 90 55 60
        E 0 90 61 60
        E 120 80 1a 00
        E 0 80 55 00
        E 0 80 61 00
        E 120 90 24 60
        E 0 90 40 60
        E 0 90 4c 60
        E 0 90 58 60
        E 0 90 64 60
        E 120 80 24 00
        E 0 80 40 00
        E 0 80 4c 00
        E 0 80 58 00
        E 0 80 64 00
        E 120 90 18 60
        E 0 90 54 60
        E 0 90 60 60
        E 120 80 18 00
        E 0 80 54 00
        E 0 80 60 00
        E 120 90 18 60
        E 0 90 24 60
        E 0 90 40 60
        E 0 90 48 60
        E 0 90 4c 60
        E 0 90 54 60
        E 0 90 58 60
        E 0 90 60 60
        E 0 90 64 60
        E 120 80 18 00
        E 0 80 24 00
        E 0 80 40 00
        E 0 80 48 00
        E 0 80 4c 00
        E 0 80 54 00
        E 0 80 58 00
        E 0 80 60 00
        E 0 80 64 00
        E 40 90 1a 60
        E 0 90 61 60
        E 80 80 1a 00
        E 0 80 61 00
        E 80 90 1b 60
        E 0 90 61 60
        E 80 80 1b 00
        E 0 80 61 00
        E 80 90 2e 60
        E 0 90 3e 60
        E 0 90 4a 60
        E 0 90 56 60
        E 0 90 62 60
        E 0 90 6e 60
        E 80 80 2e 00
        E 0 80 3e 00
        E 0 80 4a 00
        E 0 80 56 00
        E 0 80 62 00
        E 0 80 6e 00
        E 80 90 1b 60
        E 0 90 61 60
        E 80 80 1b 00
        E 0 80 61 00
        E 80 90 1a 60
        E 0 90 61 60
        E 80 80 1a 00
        E 0 80 61 00
        E 80 90 1b 60
        E 0 90 3d 60
        E 0 90 49 60
        E 0 90 55 60
        E 0 90 61 60
        E 80 80 1b 00
        E 0 80 3d 00
        E 0 80 49 00
        E 0 80 55 00
        E 0 80 61 00
        E 240 90 1a 60
        E 0 90 61 60
        E 80 80 1a 00
        E 0 80 61 00
        E 80 90 18 60
        E 0 90 24 60
        E 0 90 40 60
        E 0 90 48 60
        E 0 90 4c 60
        E 0 90 54 60
        E 0 90 58 60
        E 0 90 60 60
        E 0 90 64 60
        e 0 80 74 00
        E 120 80 18 00
        E 0 80 24 00
        E 0 80 40 00
        E 0 80 48 00
        E 0 80 4c 00
        E 0 80 54 00
        E 0 80 58 00
        E 0 80 60 00
        E 0 80 64 00
        E 120 90 18 60
        E 0 90 54 60
        E 0 90 60 60
        E 120 80 18 00
        E 0 80 54 00
        E 0 80 60 00
        E 120 90 18 60
        E 0 90 2e 60
        E 0 90 31 60
        E 0 90 3e 60
        E 0 90 3f 60
        E 0 90 4a 60
        E 0 90 4b 60
        E 0 90 54 60
        E 0 90 56 60
        E 0 90 57 60
        E 0 90 60 60
        E 0 90 62 60
        E 0 90 63 60
        E 0 90 6e 60
        E 0 90 6f 60
        E 120 80 18 00
        E 0 80 2e 00
        E 0 80 31 00
        E 0 80 3e 00
        E 0 80 3f 00
        E 0 80 4a 00
        E 0 80 4b 00
        E 0 80 54 00
        E 0 80 56 00
        E 0 80 57 00
        E 0 80 60 00
        E 0 80 62 00
        E 0 80 63 00
        E 0 80 6e 00
        E 0 80 6f 00
        E 120 90 1a 60
        E 0 90 55 60
        E 0 90 61 60
        E 120 80 1a 00
        E 0 80 55 00
        E 0 80 61 00
        E 120 90 18 60
        E 0 90 3c 60
        E 0 90 48 60
        E 0 90 54 60
        E 0 90 60 60
        E 120 80 18 00
        E 0 80 3c 00
        E 0 80 48 00
        E 0 80 54 00
        E 0 80 60 00
        E 120 90 18 60
        E 0 90 2e 60
        E 0 90 31 60
        E 0 90 54 60
        E 0 90 56 60
        E 0 90 57 60
        E 0 90 60 60
        E 0 90 62 60
        E 0 90 63 60
        E 0 90 6e 60
        E 0 90 6f 60
        E 120 80 18 00
        E 0 80 2e 00
        E 0 80 31 00
        E 0 80 54 00
        E 0 80 56 00
        E 0 80 57 00
        E 0 80 60 00
        E 0 80 62 00
        E 0 80 63 00
        E 0 80 6e 00
        E 0 80 6f 00
        E 120 90 1a 60
        E 0 90 3d 60
        E 0 90 49 60
        E 0 90 55 60
        E 0 90 61 60
        E 120 80 1a 00
        E 0 80 3d 00
        E 0 80 49 00
        E 0 80 55 00
        E 0 80 61 00
        E 120 90 18 60
        E 0 90 54 60
        E 0 90 60 60
        E 120 80 18 00
        E 0 80 54 00
        E 0 80 60 00
        E 0 90 18 60
        E 0 90 60 60
        E 120 80 18 00
        E 0 80 60 00
        E 0 90 1a 60
        E 0 90 31 60
        E 0 90 3d 60
        E 0 90 49 60
        E 0 90 4b 60
        E 0 90 55 60
        E 0 90 57 60
        E 0 90 61 60
        E 0 90 63 60
        E 0 90 6f 60
        E 120 80 1a 00
        E 0 80 31 00
        E 0 80 3d 00
        E 0 80 49 00
        E 0 80 4b 00
        E 0 80 55 00
        E 0 80 57 00
        E 0 80 61 00
        E 0 80 63 00
        E 0 80 6f 00
        E 120 90 18 60
        E 0 90 54 60
        E 0 90 60 60
        E 120 80 18 00
        E 0 80 54 00
        E 0 80 60 00
        E 120 90 1a 60
        E 0 90 31 60
        E 0 90 3d 60
        E 0 90 49 60
        E 0 90 4b 60
        E 0 90 55 60
        E 0 90 57 60
        E 0 90 61 60
        E 0 90 63 60
        E 0 90 6f 60
        E 120 80 1a 00
        E 0 80 31 00
        E 0 80 3d 00
        E 0 80 49 00
        E 0 80 4b 00
        E 0 80 55 00
        E 0 80 57 00
        E 0 80 61 00
        E 0 80 63 00
        E 0 80 6f 00
        E 120 90 18 60
        E 0 90 54 60
        E 0 90 60 60
        E 120 80 18 00
        E 0 80 54 00
        E 0 80 60 00
        E 120 90 1a 60
        E 0 90 31 60
        E 0 90 3d 60
        E 0 90 49 60
        E 0 90 4b 60
        E 0 90 55 60
        E 0 90 57 60
        E 0 90 61 60
        E 0 90 63 60
        E 0 90 6f 60
        E 120 80 1a 00
        E 0 80 31 00
        E 0 80 3d 00
        E 0 80 49 00
        E 0 80 4b 00
        E 0 80 55 00
        E 0 80 57 00
        E 0 80 61 00
        E 0 80 63 00
        E 0 80 6f 00
        E 120 90 18 60
        E 0 90 54 60
        E 0 90 60 60
        E 120 80 18 00
        E 0 80 54 00
        E 0 80 60 00
        E 120 90 18 60
        E 0 90 2e 60
        E 0 90 31 60
        E 0 90 3e 60
        E 0 90 3f 60
        E 0 90 4a 60
        E 0 90 4b 60
        E 0 90 54 60
        E 0 90 56 60
        E 0 90 57 60
        E 0 90 60 60
        E 0 90 62 60
        E 0 90 63 60
        E 0 90 6e 60
        E 0 90 6f 60
        E 120 80 18 00
        E 0 80 2e 00
        E 0 80 31 00
        E 0 80 3e 00
        E 0 80 3f 00
        E 0 80 4a 00
        E 0 80 4b 00
        E 0 80 54 00
        E 0 80 56 00
        E 0 80 57 00
        E 0 80 60 00
        E 0 80 62 00
        E 0 80 63 00
        E 0 80 6e 00
        E 0 80 6f 00
        E 120 90 1a 60
        E 0 90 55 60
        E 0 90 61 60
        E 120 80 1a 00
        E 0 80 55 00
        E 0 80 61 00
        E 120 90 2f 60
        E 0 90 3e 60
        E 0 90 4a 60
        E 0 90 56 60
        E 0 90 62 60
        E 0 90 6e 60
        E 120 80 2f 00
        E 0 80 3e 00
        E 0 80 4a 00
        E 0 80 56 00
        E 0 80 62 00
        E 0 80 6e 00
        E 120 90 18 60
        E 0 90 31 60
        E 0 90 54 60
        E 0 90 57 60
        E 0 90 60 60
        E 0 90 63 60
        E 0 90 6f 60
        E 120 80 18 00
        E 0 80 31 00
        E 0 80 54 00
        E 0 80 57 00
        E 0 80 60 00
        E 0 80 63 00
        E 0 80 6f 00
        E 120 90 1a 60
        E 0 90 2a 60
        E 0 90 3d 60
        E 0 90 49 60
        E 0 90 4b 60
        E 0 90 55 60
        E 0 90 57 60
        E 0 90 61 60
        E 0 90 63 60
        e 0 90 78 60
        e 0 90 79 60
        e 0 90 7a 60
        e 0 90 7b 60
        e 0 90 7c 60
        E 120 80 1a 00
        E 0 80 2a 00
        E 0 80 3d 00
        E 0 80 49 00
        E 0 80 4b 00
        E 0 80 55 00
        E 0 80 57 00
        E 0 80 61 00
        E 0 80 63 00
        E 120 90 18 60
        E 0 90 54 60
        E 0 90 60 60
        E 120 80 18 00
        E 0 80 54 00
        E 0 80 60 00
        E 120 90 1b 60
        E 0 90 3d 60
        E 0 90 49 60
        E 0 90 55 60
        E 0 90 61 60
        E 120 80 1b 00
        E 0 80 3d 00
        E 0 80 49 00
        E 0 80 55 00
        E 0 80 61 00
        E 0 90 1a 60
        E 0 90 61 60
        E 120 80 1a 00
        E 0 80 61 00
        E 0 90 1b 60
        E 0 90 55 60
        E 0 90 61 60
        E 120 80 1b 00
        E 0 80 55 00
        E 0 80 61 00
        E 0 90 1a 60
        E 0 90 61 60
        E 120 80 1a 00
        E 0 80 61 00
        E 0 90 1b 60
        E 0 90 3d 60
        E 0 90 49 60
        E 0 90 55 60
        E 0 90 61 60
        E 120 80 1b 00
        E 0 80 3d 00
        E 0 80 49 00
        E 0 80 55 00
        E 0 80 61 00
        E 0 90 1a 60
        E 0 90 61 60
        E 120 80 1a 00
        E 0 80 61 00
        E 0 90 1b 60
        E 0 90 55 60
        E 0 90 61 60
        E 120 80 1b 00
        E 0 80 55 00
        E 0 80 61 00
        E 0 90 1a 60
        E 0 90 61 60
        E 120 80 1a 00
        E 0 80 61 00
        E 0 90 18 60
        E 0 90 24 60
        E 0 90 40 60
        E 0 90 48 60
        E 0 90 4c 60
        E 0 90 54 60
        E 0 90 58 60
        E 0 90 60 60
        E 0 90 64 60
        e 0 80 78 00
        e 0 80 79 00
        e 0 80 7a 00
        e 0 80 7b 00
        e 0 80 7c 00
        E 120 80 18 00
        E 0 80 24 00
        E 0 80 40 00
        E 0 80 48 00
        E 0 80 4c 00
        E 0 80 54 00
        E 0 80 58 00
        E 0 80 60 00
        E 0 80 64 00
        E 120 90 1b 60
        E 0 90 55 60
        E 0 90 61 60
        E 120 80 1b 00
        E 0 80 55 00
        E 0 80 61 00
        E 0 90 1a 60
        E 0 90 61 60
        E 120 80 1a 00
        E 0 80 61 00
        E 0 90 18 60
        E 0 90 3c 60
        E 0 90 48 60
        E 0 90 54 60
        E 0 90 60 60
        E 120 80 18 00
        E 0 80 3c 00
        E 0 80 48 00
        E 0 80 54 00
        E 0 80 60 00
        E 0 90 18 60
        E 0 90 60 60
        E 120 80 18 00
        E 0 80 60 00
        E 0 90 1a 60
        E 0 90 24 60
        E 0 90 55 60
        E 0 90 58 60
        E 0 90 61 60
        E 0 90 64 60
        E 120 80 1a 00
        E 0 80 24 00
        E 0 80 55 00
        E 0 80 58 00
        E 0 80 61 00
        E 0 80 64 00
        E 360 90 18 60
        E 0 90 54 60
        E 0 90 60 60
        E 120 80 18 00
        E 0 80 54 00
        E 0 80 60 00
        E 120 90 1a 60
        E 0 90 24 60
        E 0 90 3d 60
        E 0 90 49 60
        E 0 90 4c 60
        E 0 90 55 60
        E 0 90 58 60
        E 0 90 61 60
        E 0 90 64 60
        E 120 80 1a 00
        E 0 80 24 00
        E 0 80 3d 00
        E 0 80 49 00
        E 0 80 4c 00
        E 0 80 55 00
        E 0 80 58 00
        E 0 80 61 00
        E 0 80 64 00
        E 120 90 18 60
        E 0 90 54 60
        E 0 90 60 60
        E 120 80 18 00
        E 0 80 54 00
        E 0 80 60 00
        E 0 90 18 60
        E 0 90 60 60
        E 120 80 18 00
        E 0 80 60 00
        E 0 90 1a 60
        E 0 90 2a 60
        E 0 90 3d 60
        E 0 90 49 60
        E 0 90 4b 60
        E 0 90 55 60
        E 0 90 57 60
        E 0 90 61 60
        E 0 90 63 60
        E 120 80 1a 00
        E 0 80 2a 00
        E 0 80 3d 00
        E 0 80 49 00
        E 0 80 4b 00
        E 0 80 55 00
        E 0 80 57 00
        E 0 80 61 00
        E 0 80 63 00
        E 120 90 18 60
        E 0 90 54 60
        E 0 90 60 60
        E 120 80 18 00
        E 0 80 54 00
        E 0 80 60 00
        E 120 90 1a 60
        E 0 90 24 60
        E 0 90 3d 60
        E 0 90 49 60
        E 0 90 4c 60
        E 0 90 55 60
        E 0 90 58 60
        E 0 90 61 60
        E 0 90 64 60
        E 120 80 1a 00
        E 0 80 24 00
        E 0 80 3d 00
        E 0 80 49 00
        E 0 80 4c 00
        E 0 80 55 00
        E 0 80 58 00
        E 0 80 61 00
        E 0 80 64 00
        E 360 90 18 60
        E 0 90 24 60
        E 0 90 40 60
        E 0 90 48 60
        E 0 90 4c 60
        E 0 90 54 60
        E 0 90 58 60
        E 0 90 60 60
        E 0 90 64 60
        E 120 80 18 00
        E 0 80 24 00
        E 0 80 40 00
        E 0 80 48 00
        E 0 80 4c 00
        E 0 80 54 00
        E 0 80 58 00
        E 0 80 60 00
        E 0 80 64 00
        E 120 90 18 60
        E 0 90 54 60
        E 0 90 60 60
        E 120 80 18 00
        E 0 80 54 00
        E 0 80 60 00
        E 120 90 18 60
        E 0 90 24 60
        E 0 90 40 60
        E 0 90 48 60
        E 0 90 4c 60
        E 0 90 54 60
        E 0 90 58 60
        E 0 90 60 60
        E 0 90 64 60
        E 120 80 18 00
        E 0 80 24 00
        E 0 80 40 00
        E 0 80 48 00
        E 0 80 4c 00
        E 0 80 54 00
        E 0 80 58 00
        E 0 80 60 00
        E 0 80 64 00
        E 120 90 1a 60
        E 0 90 55 60
        E 0 90 61 60
        E 120 80 1a 00
        E 0 80 55 00
        E 0 80 61 00
        E 120 90 24 60
        E 0 90 40 60
        E 0 90 4c 60
        E 0 90 58 60
        E 0 90 64 60
        E 120 80 24 00
        E 0 80 40 00
        E 0 80 4c 00
        E 0 80 58 00
        E 0 80 64 00
        E 120 90 18 60
        E 0 90 54 60
        E 0 90 60 60
        E 120 80 18 00
        E 0 80 54 00
        E 0 80 60 00
        E 120 90 1a 60
        E 0 90 24 60
        E 0 90 3d 60
        E 0 90 49 60
        E 0 90 4c 60
        E 0 90 55 60
        E 0 90 58 60
        E 0 90 61 60
        E 0 90 64 60
        E 120 80 1a 00
        E 0 80 24 00
        E 0 80 3d 00
        E 0 80 49 00
        E 0 80 4c 00
        E 0 80 55 00
        E 0 80 58 00
        E 0 80 61 00
        E 0 80 64 00
        E 120 90 18 60
        E 0 90 54 60
        E 0 90 60 60
        E 120 80 18 00
        E 0 80 54 00
        E 0 80 60 00
        E 120 90 1a 60
        E 0 90 2a 60
        E 0 90 3d 60
        E 0 90 49 60
        E 0 90 4b 60
        E 0 90 55 60
        E 0 90 57 60
        E 0 90 61 60
        E 0 90 63 60
        E 120 80 1a 00
        E 0 80 2a 00
        E 0 80 3d 00
        E 0 80 49 00
        E 0 80 4b 00
        E 0 80 55 00
        E 0 80 57 00
        E 0 80 61 00
        E 0 80 63 00
        E 120 90 18 60
        E 0 90 54 60
        E 0 90 60 60
        E 120 80 18 00
        E 0 80 54 00
        E 0 80 60 00
        E 120 90 1a 60
        E 0 90 24 60
        E 0 90 3d 60
        E 0 90 49 60
        E 0 90 4c 60
        E 0 90 55 60
        E 0 90 58 60
        E 0 90 61 60
        E 0 90 64 60
        E 120 80 1a 00
        E 0 80 24 00
        E 0 80 3d 00
        E 0 80 49 00
        E 0 80 4c 00
        E 0 80 55 00
        E 0 80 58 00
        E 0 80 61 00
        E 0 80 64 00
        E 240 90 1a 60
        E 0 90 61 60
        E 120 80 1a 00
        E 0 80 61 00
        E 0 90 18 60
        E 0 90 24 60
        E 0 90 40 60
        E 0 90 48 60
        E 0 90 4c 60
        E 0 90 54 60
        E 0 90 58 60
        E 0 90 60 60
        E 0 90 64 60
        E 120 80 18 00
        E 0 80 24 00
        E 0 80 40 00
        E 0 80 48 00
        E 0 80 4c 00
        E 0 80 54 00
        E 0 80 58 00
        E 0 80 60 00
        E 0 80 64 00
        E 120 90 18 60
        E 0 90 54 60
        E 0 90 60 60
        E 120 80 18 00
        E 0 80 54 00
        E 0 80 60 00
        E 120 90 18 60
        E 0 90 24 60
        E 0 90 40 60
        E 0 90 48 60
        E 0 90 4c 60
        E 0 90 54 60
        E 0 90 58 60
        E 0 90 60 60
        E 0 90 64 60
        E 120 80 18 00
        E 0 80 24 00
        E 0 80 40 00
        E 0 80 48 00
        E 0 80 4c 00
        E 0 80 54 00
        E 0 80 58 00
        E 0 80 60 00
        E 0 80 64 00
        E 120 90 1a 60
        E 0 90 55 60
        E 0 90 61 60
        E 120 80 1a 00
        E 0 80 55 00
        E 0 80 61 00
        E 120 90 24 60
        E 0 90 40 60
        E 0 90 4c 60
        E 0 90 58 60
        E 0 90 64 60
        E 120 80 24 00
        E 0 80 40 00
        E 0 80 4c 00
        E 0 80 58 00
        E 0 80 64 00
        E 120 90 18 60
        E 0 90 54 60
        E 0 90 60 60
        E 120 80 18 00
        E 0 80 54 00
        E 0 80 60 00
        E 120 90 18 60
        E 0 90 24 60
        E 0 90 40 60
        E 0 90 48 60
        E 0 90 4c 60
        E 0 90 54 60
        E 0 90 58 60
        E 0 90 60 60
        E 0 90 64 60
        E 120 80 18 00
        E 0 80 24 00
        E 0 80 40 00
        E 0 80 48 00
        E 0 80 4c 00
        E 0 80 54 00
        E 0 80 58 00
        E 0 80 60 00
        E 0 80 64 00
        E 120 90 1b 60
        E 0 90 55 60
        E 0 90 61 60
        E 120 80 1b 00
        E 0 80 55 00
        E 0 80 61 00
        E 0 90 1a 60
        E 0 90 61 60
        E 120 80 1a 00
        E 0 80 61 00
        E 0 90 1b 60
        E 0 90 3d 60
        E 0 90 49 60
        E 0 90 55 60
        E 0 90 61 60
        E 120 80 1b 00
        E 0 80 3d 00
        E 0 80 49 00
        E 0 80 55 00
        E 0 80 61 00
        E 0 90 1a 60
        E 0 90 61 60
        E 120 80 1a 00
        E 0 80 61 00
        E 0 90 1b 60
        E 0 90 55 60
        E 0 90 61 60
        E 120 80 1b 00
        E 0 80 55 00
        E 0 80 61 00
        E 0 90 1a 60
        E 0 90 61 60
        E 120 80 1a 00
        E 0 80 61 00
        E 0 90 1b 60
        E 0 90 3d 60
        E 0 90 49 60
        E 0 90 55 60
        E 0 90 61 60
        E 120 80 1b 00
        E 0 80 3d 00
        E 0 80 49 00
        E 0 80 55 00
        E 0 80 61 00
        E 0 90 1a 60
        E 0 90 61 60
        E 120 80 1a 00
        E 0 80 61 00
        E 0 90 1b 60
        E 0 90 55 60
        E 0 90 61 60
        E 120 80 1b 00
        E 0 80 55 00
        E 0 80 61 00
        E 0 90 1a 60
        E 0 90 61 60
        E 120 80 1a 00
        E 0 80 61 00
        E 0 90 18 60
        E 0 90 24 60
        E 0 90 40 60
        E 0 90 48 60
        E 0 90 4c 60
        E 0 90 54 60
        E 0 90 58 60
        E 0 90 60 60
        E 0 90 64 60
        E 120 80 18 00
        E 0 80 24 00
        E 0 80 40 00
        E 0 80 48 00
        E 0 80 4c 00
        E 0 80 54 00
        E 0 80 58 00
        E 0 80 60 00
        E 0 80 64 00
        E 120 90 18 60
        E 0 90 24 60
        E 0 90 54 60
        E 0 90 58 60
        E 0 90 60 60
        E 0 90 64 60
        E 120 80 18 00
        E 0 80 24 00
        E 0 80 54 00
        E 0 80 58 00
        E 0 80 60 00
        E 0 80 64 00
        E 120 90 18 60
        E 0 90 24 60
        E 0 90 40 60
        E 0 90 48 60
        E 0 90 4c 60
        E 0 90 54 60
        E 0 90 58 60
        E 0 90 60 60
        E 0 90 64 60
        E 120 80 18 00
        E 0 80 24 00
        E 0 80 40 00
        E 0 80 48 00
        E 0 80 4c 00
        E 0 80 54 00
        E 0 80 58 00
        E 0 80 60 00
        E 0 80 64 00
        E 120 90 1a 60
        E 0 90 55 60
        E 0 90 61 60
        E 120 80 1a 00
        E 0 80 55 00
        E 0 80 61 00
        E 120 90 24 60
        E 0 90 40 60
        E 0 90 4c 60
        E 0 90 58 60
        E 0 90 64 60
        E 120 80 24 00
        E 0 80 40 00
        E 0 80 4c 00
        E 0 80 58 00
        E 0 80 64 00
        E 120 90 18 60
        E 0 90 54 60
        E 0 90 60 60
        E 120 80 18 00
        E 0 80 54 00
        E 0 80 60 00
        E 120 90 1a 60
        E 0 90 24 60
        E 0 90 3d 60
        E 0 90 49 60
        E 0 90 4c 60
        E 0 90 55 60
        E 0 90 58 60
        E 0 90 61 60
        E 0 90 64 60
        E 120 80 1a 00
        E 0 80 24 00
        E 0 80 3d 00
        E 0 80 49 00
        E 0 80 4c 00
        E 0 80 55 00
        E 0 80 58 00
        E 0 80 61 00
        E 0 80 64 00
        E 120 90 18 60
        E 0 90 54 60
        E 0 90 60 60
        E 120 80 18 00
        E 0 80 54 00
        E 0 80 60 00
        E 120 90 2e 60
        E 0 90 33 60
        E 0 90 3e 60
        E 0 90 40 60
        E 0 90 4a 60
        E 0 90 4c 60
        E 0 90 56 60
        E 0 90 58 60
        E 0 90 62 60
        E 0 90 64 60
        E 0 90 6e 60
        E 120 80 2e 00
        E 0 80 33 00
        E 0 80 3e 00
        E 0 80 40 00
        E 0 80 4a 00
        E 0 80 4c 00
        E 0 80 56 00
        E 0 80 58 00
        E 0 80 62 00
        E 0 80 64 00
        E 0 80 6e 00
        E 120 90 18 60
        E 0 90 54 60
        E 0 90 60 60
        E 120 80 18 00
        E 0 80 54 00
        E 0 80 60 00
        E 120 90 1a 60
        E 0 90 24 60
        E 0 90 3d 60
        E 0 90 49 60
        E 0 90 4c 60
        E 0 90 55 60
        E 0 90 58 60
        E 0 90 61 60
        E 0 90 64 60
        E 120 80 1a 00
        E 0 80 24 00
        E 0 80 3d 00
        E 0 80 49 00
        E 0 80 4c 00
        E 0 80 55 00
        E 0 80 58 00
        E 0 80 61 00
        E 0 80 64 00
        E 360 90 18 60
        E 0 90 24 60
        E 0 90 40 60
        E 0 90 48 60
        E 0 90 4c 60
        E 0 90 54 60
        E 0 90 58 60
        E 0 90 60 60
        E 0 90 64 60
        E 120 80 18 00
        E 0 80 24 00
        E 0 80 40 00
        E 0 80 48 00
        E 0 80 4c 00
        E 0 80 54 00
        E 0 80 58 00
        E 0 80 60 00
        E 0 80 64 00
        E 120 90 1b 60
        E 0 90 55 60
        E 0 90 61 60
        E 120 80 1b 00
        E 0 80 55 00
        E 0 80 61 00
        E 0 90 1a 60
        E 0 90 61 60
        E 120 80 1a 00
        E 0 80 61 00
        E 0 90 18 60
        E 0 90 3c 60
        E 0 90 48 60
        E 0 90 54 60
        E 0 90 60 60
        E 120 80 18 00
        E 0 80 3c 00
        E 0 80 48 00
        E 0 80 54 00
        E 0 80 60 00
        E 0 90 18 60
        E 0 90 60 60
        E 120 80 18 00
        E 0 80 60 00
        E 0 90 1a 60
        E 0 90 24 60
        E 0 90 55 60
        E 0 90 58 60
        E 0 90 61 60
        E 0 90 64 60
        E 120 80 1a 00
        E 0 80 24 00
        E 0 80 55 00
        E 0 80 58 00
        E 0 80 61 00
        E 0 80 64 00
        E 360 90 18 60
        E 0 90 2a 60
        E 0 90 54 60
        E 0 90 57 60
        E 0 90 60 60
        E 0 90 63 60
        E 120 80 18 00
        E 0 80 2a 00
        E 0 80 54 00
        E 0 80 57 00
        E 0 80 60 00
        E 0 80 63 00
        E 120 90 18 60
        E 0 90 24 60
        E 0 90 40 60
        E 0 90 48 60
        E 0 90 4c 60
        E 0 90 54 60
        E 0 90 58 60
        E 0 90 60 60
        E 0 90 64 60
        E 120 80 18 00
        E 0 80 24 00
        E 0 80 40 00
        E 0 80 48 00
        E 0 80 4c 00
        E 0 80 54 00
        E 0 80 58 00
        E 0 80 60 00
        E 0 80 64 00
        E 120 90 1b 60
        E 0 90 55 60
        E 0 90 61 60
        E 120 80 1b 00
        E 0 80 55 00
        E 0 80 61 00
        E 0 90 1a 60
        E 0 90 61 60
        E 120 80 1a 00
        E 0 80 61 00
        E 0 90 1b 60
        E 0 90 3d 60
        E 0 90 49 60
        E 0 90 55 60
        E 0 90 61 60
        E 120 80 1b 00
        E 0 80 3d 00
        E 0 80 49 00
        E 0 80 55 00
        E 0 80 61 00
        E 0 90 1a 60
        E 0 90 61 60
        E 120 80 1a 00
        E 0 80 61 00
        E 0 90 1b 60
        E 0 90 55 60
        E 0 90 61 60
        E 120 80 1b 00
        E 0 80 55 00
        E 0 80 61 00
        E 0 90 1a 60
        E 0 90 61 60
        E 120 80 1a 00
        E 0 80 61 00
        E 0 90 2f 60
        E 0 90 3e 60
        E 0 90 4a 60
        E 0 90 56 60
        E 0 90 62 60
        E 0 90 6e 60
        E 120 80 2f 00
        E 0 80 3e 00
        E 0 80 4a 00
        E 0 80 56 00
        E 0 80 62 00
        E 0 80 6e 00
        E 0 90 2e 60
        E 0 90 62 60
        E 0 90 6e 60
        E 120 80 2e 00
        E 0 80 62 00
        E 0 80 6e 00
        E 0 90 31 60
        E 0 90 57 60
        E 0 90 63 60
        E 0 90 6f 60
        E 120 80 31 00
        E 0 80 57 00
        E 0 80 63 00
        E 0 80 6f 00
        E 0 90 30 60
        E 0 90 63 60
        E 0 90 6f 60
        E 120 80 30 00
        E 0 80 63 00
        E 0 80 6f 00
        E 0 90 18 60
        E 0 90 24 60
        E 0 90 40 60
        E 0 90 48 60
        E 0 90 4c 60
        E 0 90 54 60
        E 0 90 58 60
        E 0 90 60 60
        E 0 90 64 60
        E 120 80 18 00
        E 0 80 24 00
        E 0 80 40 00
        E 0 80 48 00
        E 0 80 4c 00
        E 0 80 54 00
        E 0 80 58 00
        E 0 80 60 00
        E 0 80 64 00
        E 120 90 1b 60
        E 0 90 55 60
        E 0 90 61 60
        E 120 80 1b 00
        E 0 80 55 00
        E 0 80 61 00
        E 0 90 1a 60
        E 0 90 61 60
        E 120 80 1a 00
        E 0 80 61 00
        E 0 90 18 60
        E 0 90 3c 60
        E 0 90 48 60
        E 0 90 54 60
        E 0 90 60 60
        E 120 80 18 00
        E 0 80 3c 00
        E 0 80 48 00
        E 0 80 54 00
        E 0 80 60 00
        E 0 90 18 60
        E 0 90 60 60
        E 120 80 18 00
        E 0 80 60 00
        E 0 90 1a 60
        E 0 90 24 60
        E 0 90 55 60
        E 0 90 58 60
        E 0 90 61 60
        E 0 90 64 60
        E 120 80 1a 00
        E 0 80 24 00
        E 0 80 55 00
        E 0 80 58 00
        E 0 80 61 00
        E 0 80 64 00
        E 360 90 18 60
        E 0 90 24 60
        E 0 90 54 60
        E 0 90 58 60
        E 0 90 60 60
        E 0 90 64 60
        E 120 80 18 00
        E 0 80 24 00
        E 0 80 54 00
        E 0 80 58 00
        E 0 80 60 00
        E 0 80 64 00
        E 120 90 18 60
        E 0 90 24 60
        E 0 90 40 60
        E 0 90 48 60
        E 0 90 4c 60
        E 0 90 54 60
        E 0 90 58 60
        E 0 90 60 60
        E 0 90 64 60
        E 120 80 18 00
        E 0 80 24 00
        E 0 80 40 00
        E 0 80 48 00
        E 0 80 4c 00
        E 0 80 54 00
        E 0 80 58 00
        E 0 80 60 00
        E 0 80 64 00
        E 120 90 1b 60
        E 0 90 55 60
        E 0 90 61 60
        E 120 80 1b 00
        E 0 80 55 00
        E 0 80 61 00
        E 0 90 1a 60
        E 0 90 61 60
        E 120 80 1a 00
        E 0 80 61 00
        E 0 90 1b 60
        E 0 90 3d 60
        E 0 90 49 60
        E 0 90 55 60
        E 0 90 61 60
        E 120 80 1b 00
        E 0 80 3d 00
        E 0 80 49 00
        E 0 80 55 00
        E 0 80 61 00
        E 0 90 1a 60
        E 0 90 61 60
        E 120 80 1a 00
        E 0 80 61 00
        E 0 90 1b 60
        E 0 90 55 60
        E 0 90 61 60
        E 120 80 1b 00
        E 0 80 55 00
        E 0 80 61 00
        E 0 90 1a 60
        E 0 90 61 60
        E 120 80 1a 00
        E 0 80 61 00
        E 0 90 2f 60
        E 0 90 3e 60
        E 0 90 4a 60
        E 0 90 56 60
        E 0 90 62 60
        E 0 90 6e 60
        E 120 80 2f 00
        E 0 80 3e 00
        E 0 80 4a 00
        E 0 80 56 00
        E 0 80 62 00
        E 0 80 6e 00
        E 0 90 2e 60
        E 0 90 62 60
        E 0 90 6e 60
        E 120 80 2e 00
        E 0 80 62 00
        E 0 80 6e 00
        E 0 90 31 60
        E 0 90 57 60
        E 0 90 63 60
        E 0 90 6f 60
        E 120 80 31 00
        E 0 80 57 00
        E 0 80 63 00
        E 0 80 6f 00
        E 0 90 30 60
        E 0 90 63 60
        E 0 90 6f 60
        E 120 80 30 00
        E 0 80 63 00
        E 0 80 6f 00
        E 0 90 18 60
        E 0 90 24 60
        E 0 90 40 60
        E 0 90 48 60
        E 0 90 4c 60
        E 0 90 54 60
        E 0 90 58 60
        E 0 90 60 60
        E 0 90 64 60
        E 120 80 18 00
        E 0 80 24 00
        E 0 80 40 00
        E 0 80 48 00
        E 0 80 4c 00
        E 0 80 54 00
        E 0 80 58 00
        E 0 80 60 00
        E 0 80 64 00
        E 120 90 1b 60
        E 0 90 55 60
        E 0 90 61 60
        E 120 80 1b 00
        E 0 80 55 00
        E 0 80 61 00
        E 0 90 1a 60
        E 0 90 61 60
        E 120 80 1a 00
        E 0 80 61 00
        E 0 90 18 60
        E 0 90 3c 60
        E 0 90 48 60
        E 0 90 54 60
        E 0 90 60 60
        E 120 80 18 00
        E 0 80 3c 00
        E 0 80 48 00
        E 0 80 54 00
        E 0 80 60 00
        E 0 90 18 60
        E 0 90 60 60
        E 120 80 18 00
        E 0 80 60 00
        E 0 90 1a 60
        E 0 90 24 60
        E 0 90 55 60
        E 0 90 58 60
        E 0 90 61 60
        E 0 90 64 60
        E 120 80 1a 00
        E 0 80 24 00
        E 0 80 55 00
        E 0 80 58 00
        E 0 80 61 00
        E 0 80 64 00
        E 360 90 18 60
        E 0 90 24 60
        E 0 90 54 60
        E 0 90 58 60
        E 0 90 60 60
        E 0 90 64 60
        E 120 80 18 00
        E 0 80 24 00
        E 0 80 54 00
        E 0 80 58 00
        E 0 80 60 00
        E 0 80 64 00
        E 120 90 18 60
        E 0 90 24 60
        E 0 90 40 60
        E 0 90 48 60
        E 0 90 4c 60
        E 0 90 54 60
        E 0 90 58 60
        E 0 90 60 60
        E 0 90 64 60
        E 120 80 18 00
        E 0 80 24 00
        E 0 80 40 00
        E 0 80 48 00
        E 0 80 4c 00
        E 0 80 54 00
        E 0 80 58 00
        E 0 80 60 00
        E 0 80 64 00
        E 120 90 1b 60
        E 0 90 55 60
        E 0 90 61 60
        E 120 80 1b 00
        E 0 80 55 00
        E 0 80 61 00
        E 0 90 1a 60
        E 0 90 61 60
        E 120 80 1a 00
        E 0 80 61 00
        E 0 90 1b 60
        E 0 90 3d 60
        E 0 90 49 60
        E 0 90 55 60
        E 0 90 61 60
        E 120 80 1b 00
        E 0 80 3d 00
        E 0 80 49 00
        E 0 80 55 00
        E 0 80 61 00
        E 0 90 1a 60
        E 0 90 61 60
        E 120 80 1a 00
        E 0 80 61 00
        E 0 90 1b 60
        E 0 90 55 60
        E 0 90 61 60
        E 120 80 1b 00
        E 0 80 55 00
        E 0 80 61 00
        E 0 90 1a 60
        E 0 90 61 60
        E 120 80 1a 00
        E 0 80 61 00
        E 0 90 1b 60
        E 0 90 3d 60
        E 0 90 49 60
        E 0 90 55 60
        E 0 90 61 60
        E 120 80 1b 00
        E 0 80 3d 00
        E 0 80 49 00
        E 0 80 55 00
        E 0 80 61 00
        E 0 90 1a 60
        E 0 90 61 60
        E 120 80 1a 00
        E 0 80 61 00
        E 0 90 1b 60
        E 0 90 55 60
        E 0 90 61 60
        E 120 80 1b 00
        E 0 80 55 00
        E 0 80 61 00
        E 0 90 1a 60
        E 0 90 61 60
        E 120 80 1a 00
        E 0 80 61 00
        E 0 90 18 60
        E 0 90 24 60
        E 0 90 40 60
        E 0 90 48 60
        E 0 90 4c 60
        E 0 90 54 60
        E 0 90 58 60
        E 0 90 60 60
        E 0 90 64 60
        E 120 80 18 00
        E 0 80 24 00
        E 0 80 40 00
        E 0 80 48 00
        E 0 80 4c 00
        E 0 80 54 00
        E 0 80 58 00
        E 0 80 60 00
        E 0 80 64 00
        E 120 90 1b 60
        E 0 90 55 60
        E 0 90 61 60
        E 120 80 1b 00
        E 0 80 55 00
        E 0 80 61 00
        E 0 90 1a 60
        E 0 90 61 60
        E 120 80 1a 00
        E 0 80 61 00
        E 0 90 18 60
        E 0 90 3c 60
        E 0 90 48 60
        E 0 90 54 60
        E 0 90 60 60
        E 120 80 18 00
        E 0 80 3c 00
        E 0 80 48 00
        E 0 80 54 00
        E 0 80 60 00
        E 0 90 18 60
        E 0 90 60 60
        E 120 80 18 00
        E 0 80 60 00
        E 0 90 1a 60
        E 0 90 24 60
        E 0 90 55 60
        E 0 90 58 60
        E 0 90 61 60
        E 0 90 64 60
        E 120 80 1a 00
        E 0 80 24 00
        E 0 80 55 00
        E 0 80 58 00
        E 0 80 61 00
        E 0 80 64 00
        E 360 90 18 60
        E 0 90 24 60
        E 0 90 54 60
        E 0 90 58 60
        E 0 90 60 60
        E 0 90 64 60
        E 120 80 18 00
        E 0 80 24 00
        E 0 80 54 00
        E 0 80 58 00
        E 0 80 60 00
        E 0 80 64 00
        E 120 90 18 60
        E 0 90 24 60
        E 0 90 40 60
        E 0 90 48 60
        E 0 90 4c 60
        E 0 90 54 60
        E 0 90 58 60
        E 0 90 60 60
        E 0 90 64 60
        E 120 80 18 00
        E 0 80 24 00
        E 0 80 40 00
        E 0 80 48 00
        E 0 80 4c 00
        E 0 80 54 00
        E 0 80 58 00
        E 0 80 60 00
        E 0 80 64 00
        E 120 90 1b 60
        E 0 90 55 60
        E 0 90 61 60
        E 120 80 1b 00
        E 0 80 55 00
        E 0 80 61 00
        E 0 90 1a 60
        E 0 90 61 60
        E 120 80 1a 00
        E 0 80 61 00
        E 0 90 1b 60
        E 0 90 3d 60
        E 0 90 49 60
        E 0 90 55 60
        E 0 90 61 60
        E 120 80 1b 00
        E 0 80 3d 00
        E 0 80 49 00
        E 0 80 55 00
        E 0 80 61 00
        E 0 90 1a 60
        E 0 90 61 60
        E 120 80 1a 00
        E 0 80 61 00
        E 0 90 1b 60
        E 0 90 55 60
        E 0 90 61 60
        E 120 80 1b 00
        E 0 80 55 00
        E 0 80 61 00
        E 0 90 1a 60
        E 0 90 61 60
        E 120 80 1a 00
        E 0 80 61 00
        E 0 90 1b 60
        E 0 90 3d 60
        E 0 90 49 60
        E 0 90 55 60
        E 0 90 61 60
        E 120 80 1b 00
        E 0 80 3d 00
        E 0 80 49 00
        E 0 80 55 00
        E 0 80 61 00
        E 0 90 1a 60
        E 0 90 61 60
        E 120 80 1a 00
        E 0 80 61 00
        E 0 90 1b 60
        E 0 90 55 60
        E 0 90 61 60
        E 120 80 1b 00
        E 0 80 55 00
        E 0 80 61 00
        E 0 90 1a 60
        E 0 90 61 60
        E 120 80 1a 00
        E 0 80 61 00
        E 0 90 18 60
        E 0 90 1f 60
        E 0 90 3e 60
        E 0 90 48 60
        E 0 90 4a 60
        E 0 90 54 60
        E 0 90 56 60
        E 0 90 60 60
        E 0 90 62 60
        e 0 90 74 60
        E 120 80 18 00
        E 0 80 1f 00
        E 0 80 3e 00
        E 0 80 48 00
        E 0 80 4a 00
        E 0 80 54 00
        E 0 80 56 00
        E 0 80 60 00
        E 0 80 62 00
        E 0 90 18 60
        E 0 90 60 60
        E 120 80 18 00
        E 0 80 60 00
        E 0 90 18 60
        E 0 90 54 60
        E 0 90 60 60
        E 120 80 18 00
        E 0 80 54 00
        E 0 80 60 00
        E 0 90 18 60
        E 0 90 60 60
        E 120 80 18 00
        E 0 80 60 00
        E 0 90 1f 60
        E 0 90 3e 60
        E 0 90 4a 60
        E 0 90 56 60
        E 0 90 62 60
        E 120 80 1f 00
        E 0 80 3e 00
        E 0 80 4a 00
        E 0 80 56 00
        E 0 80 62 00
        E 120 90 1a 60
        E 0 90 55 60
        E 0 90 61 60
        E 120 80 1a 00
        E 0 80 55 00
        E 0 80 61 00
        E 120 90 1f 60
        E 0 90 3e 60
        E 0 90 4a 60
        E 0 90 56 60
        E 0 90 62 60
        E 120 80 1f 00
        E 0 80 3e 00
        E 0 80 4a 00
        E 0 80 56 00
        E 0 80 62 00
        E 120 90 18 60
        E 0 90 54 60
        E 0 90 60 60
        E 120 80 18 00
        E 0 80 54 00
        E 0 80 60 00
        E 120 90 1a 60
        E 0 90 1f 60
        E 0 90 3d 60
        E 0 90 49 60
        E 0 90 4a 60
        E 0 90 55 60
        E 0 90 56 60
        E 0 90 61 60
        E 0 90 62 60
        E 120 80 1a 00
        E 0 80 1f 00
        E 0 80 3d 00
        E 0 80 49 00
        E 0 80 4a 00
        E 0 80 55 00
        E 0 80 56 00
        E 0 80 61 00
        E 0 80 62 00
        E 240 90 1a 60
        E 0 90 61 60
        E 120 80 1a 00
        E 0 80 61 00
        E 0 90 18 60
        E 0 90 1f 60
        E 0 90 3e 60
        E 0 90 48 60
        E 0 90 4a 60
        E 0 90 54 60
        E 0 90 56 60
        E 0 90 60 60
        E 0 90 62 60
        E 120 80 18 00
        E 0 80 1f 00
        E 0 80 3e 00
        E 0 80 48 00
        E 0 80 4a 00
        E 0 80 54 00
        E 0 80 56 00
        E 0 80 60 00
        E 0 80 62 00
        E 0 90 18 60
        E 0 90 60 60
        E 120 80 18 00
        E 0 80 60 00
        E 0 90 18 60
        E 0 90 54 60
        E 0 90 60 60
        E 120 80 18 00
        E 0 80 54 00
        E 0 80 60 00
        E 0 90 18 60
        E 0 90 60 60
        E 120 80 18 00
        E 0 80 60 00
        E 0 90 1f 60
        E 0 90 3e 60
        E 0 90 4a 60
        E 0 90 56 60
        E 0 90 62 60
        E 120 80 1f 00
        E 0 80 3e 00
        E 0 80 4a 00
        E 0 80 56 00
        E 0 80 62 00
        E 120 90 1a 60
        E 0 90 55 60
        E 0 90 61 60
        E 120 80 1a 00
        E 0 80 55 00
        E 0 80 61 00
        E 120 90 1f 60
        E 0 90 3e 60
        E 0 90 4a 60
        E 0 90 56 60
        E 0 90 62 60
        E 120 80 1f 00
        E 0 80 3e 00
        E 0 80 4a 00
        E 0 80 56 00
        E 0 80 62 00
        E 120 90 18 60
        E 0 90 54 60
        E 0 90 60 60
        E 120 80 18 00
        E 0 80 54 00
        E 0 80 60 00
        E 0 90 18 60
        E 0 90 60 60
        E 120 80 18 00
        E 0 80 60 00
        E 0 90 1a 60
        E 0 90 1f 60
        E 0 90 3d 60
        E 0 90 49 60
        E 0 90 4a 60
        E 0 90 55 60
        E 0 90 56 60
        E 0 90 61 60
        E 0 90 62 60
        E 120 80 1a 00
        E 0 80 1f 00
        E 0 80 3d 00
        E 0 80 49 00
        E 0 80 4a 00
        E 0 80 55 00
        E 0 80 56 00
        E 0 80 61 00
        E 0 80 62 00
        E 120 90 1f 60
        E 0 90 56 60
        E 0 90 62 60
        E 120 80 1f 00
        E 0 80 56 00
        E 0 80 62 00
        E 120 90 18 60
        E 0 90 1f 60
        E 0 90 3e 60
        E 0 90 48 60
        E 0 90 4a 60
        E 0 90 54 60
        E 0 90 56 60
        E 0 90 60 60
        E 0 90 62 60
        E 120 80 18 00
        E 0 80 1f 00
        E 0 80 3e 00
        E 0 80 48 00
        E 0 80 4a 00
        E 0 80 54 00
        E 0 80 56 00
        E 0 80 60 00
        E 0 80 62 00
        E 120 90 18 60
        E 0 90 54 60
        E 0 90 60 60
        E 120 80 18 00
        E 0 80 54 00
        E 0 80 60 00
        E 0 90 18 60
        E 0 90 60 60
        E 120 80 18 00
        E 0 80 60 00
        E 0 90 1f 60
        E 0 90 3e 60
        E 0 90 4a 60
        E 0 90 56 60
        E 0 90 62 60
        E 120 80 1f 00
        E 0 80 3e 00
        E 0 80 4a 00
        E 0 80 56 00
        E 0 80 62 00
        E 120 90 1a 60
        E 0 90 55 60
        E 0 90 61 60
        E 120 80 1a 00
        E 0 80 55 00
        E 0 80 61 00
        E 120 90 1f 60
        E 0 90 3e 60
        E 0 90 4a 60
        E 0 90 56 60
        E 0 90 62 60
        E 120 80 1f 00
        E 0 80 3e 00
        E 0 80 4a 00
        E 0 80 56 00
        E 0 80 62 00
        E 120 90 18 60
        E 0 90 54 60
        E 0 90 60 60
        E 120 80 18 00
        E 0 80 54 00
        E 0 80 60 00
        E 120 90 1a 60
        E 0 90 1f 60
        E 0 90 3d 60
        E 0 90 49 60
        E 0 90 4a 60
        E 0 90 55 60
        E 0 90 56 60
        E 0 90 61 60
        E 0 90 62 60
        E 120 80 1a 00
        E 0 80 1f 00
        E 0 80 3d 00
        E 0 80 49 00
        E 0 80 4a 00
        E 0 80 55 00
        E 0 80 56 00
        E 0 80 61 00
        E 0 80 62 00
        E 360 90 18 60
        E 0 90 1f 60
        E 0 90 3e 60
        E 0 90 48 60
        E 0 90 4a 60
        E 0 90 54 60
        E 0 90 56 60
        E 0 90 60 60
        E 0 90 62 60
        e 0 80 74 00
        E 120 80 18 00
        E 0 80 1f 00
        E 0 80 3e 00
        E 0 80 48 00
        E 0 80 4a 00
        E 0 80 54 00
        E 0 80 56 00
        E 0 80 60 00
        E 0 80 62 00
        E 0 90 18 60
        E 0 90 60 60
        E 120 80 18 00
        E 0 80 60 00
        E 0 90 18 60
        E 0 90 54 60
        E 0 90 60 60
        E 120 80 18 00
        E 0 80 54 00
        E 0 80 60 00
        E 0 90 18 60
        E 0 90 60 60
        E 120 80 18 00
        E 0 80 60 00
        E 0 90 1f 60
        E 0 90 3e 60
        E 0 90 4a 60
        E 0 90 56 60
        E 0 90 62 60
        E 120 80 1f 00
        E 0 80 3e 00
        E 0 80 4a 00
        E 0 80 56 00
        E 0 80 62 00
        E 120 90 1a 60
        E 0 90 55 60
        E 0 90 61 60
        E 120 80 1a 00
        E 0 80 55 00
        E 0 80 61 00
        E 120 90 1f 60
        E 0 90 3e 60
        E 0 90 4a 60
        E 0 90 56 60
        E 0 90 62 60
        E 120 80 1f 00
        E 0 80 3e 00
        E 0 80 4a 00
        E 0 80 56 00
        E 0 80 62 00
        E 120 90 18 60
        E 0 90 54 60
        E 0 90 60 60
        E 120 80 18 00
        E 0 80 54 00
        E 0 80 60 00
        E 120 90 1a 60
        E 0 90 1f 60
        E 0 90 3d 60
        E 0 90 49 60
        E 0 90 4a 60
        E 0 90 55 60
        E 0 90 56 60
        E 0 90 61 60
        E 0 90 62 60
        E 120 80 1a 00
        E 0 80 1f 00
        E 0 80 3d 00
        E 0 80 49 00
        E 0 80 4a 00
        E 0 80 55 00
        E 0 80 56 00
        E 0 80 61 00
        E 0 80 62 00
        E 120 90 1b 60
        E 0 90 55 60
        E 0 90 61 60
        E 120 80 1b 00
        E 0 80 55 00
        E 0 80 61 00
        E 0 90 1a 60
        E 0 90 61 60
        E 120 80 1a 00
        E 0 80 61 00
        E 0 90 18 60
        E 0 90 24 60
        E 0 90 40 60
        E 0 90 48 60
        E 0 90 4c 60
        E 0 90 54 60
        E 0 90 58 60
        E 0 90 60 60
        E 0 90 64 60
        E 120 80 18 00
        E 0 80 24 00
        E 0 80 40 00
        E 0 80 48 00
        E 0 80 4c 00
        E 0 80 54 00
        E 0 80 58 00
        E 0 80 60 00
        E 0 80 64 00
        E 120 90 18 60
        E 0 90 54 60
        E 0 90 60 60
        E 120 80 18 00
        E 0 80 54 00
        E 0 80 60 00
        E 120 90 18 60
        E 0 90 1f 60
        E 0 90 3e 60
        E 0 90 48 60
        E 0 90 4a 60
        E 0 90 54 60
        E 0 90 56 60
        E 0 90 60 60
        E 0 90 62 60
        E 120 80 18 00
        E 0 80 1f 00
        E 0 80 3e 00
        E 0 80 48 00
        E 0 80 4a 00
        E 0 80 54 00
        E 0 80 56 00
        E 0 80 60 00
        E 0 80 62 00
        E 120 90 1a 60
        E 0 90 55 60
        E 0 90 61 60
        E 120 80 1a 00
        E 0 80 55 00
        E 0 80 61 00
        E 120 90 1f 60
        E 0 90 3e 60
        E 0 90 4a 60
        E 0 90 56 60
        E 0 90 62 60
        E 120 80 1f 00
        E 0 80 3e 00
        E 0 80 4a 00
        E 0 80 56 00
        E 0 80 62 00
        E 120 90 18 60
        E 0 90 54 60
        E 0 90 60 60
        E 120 80 18 00
        E 0 80 54 00
        E 0 80 60 00
        E 120 90 1a 60
        E 0 90 1f 60
        E 0 90 3d 60
        E 0 90 49 60
        E 0 90 4a 60
        E 0 90 55 60
        E 0 90 56 60
        E 0 90 61 60
        E 0 90 62 60
        E 120 80 1a 00
        E 0 80 1f 00
        E 0 80 3d 00
        E 0 80 49 00
        E 0 80 4a 00
        E 0 80 55 00
        E 0 80 56 00
        E 0 80 61 00
        E 0 80 62 00
        E 360 90 18 60
        E 0 90 1f 60
        E 0 90 3e 60
        E 0 90 48 60
        E 0 90 4a 60
        E 0 90 54 60
        E 0 90 56 60
        E 0 90 60 60
        E 0 90 62 60
        E 120 80 18 00
        E 0 80 1f 00
        E 0 80 3e 00
        E 0 80 48 00
        E 0 80 4a 00
        E 0 80 54 00
        E 0 80 56 00
        E 0 80 60 00
        E 0 80 62 00
        E 0 90 18 60
        E 0 90 60 60
        E 120 80 18 00
        E 0 80 60 00
        E 0 90 18 60
        E 0 90 54 60
        E 0 90 60 60
        E 120 80 18 00
        E 0 80 54 00
        E 0 80 60 00
        E 0 90 18 60
        E 0 90 60 60
        E 120 80 18 00
        E 0 80 60 00
        E 0 90 1f 60
        E 0 90 3e 60
        E 0 90 4a 60
        E 0 90 56 60
        E 0 90 62 60
        E 120 80 1f 00
        E 0 80 3e 00
        E 0 80 4a 00
        E 0 80 56 00
        E 0 80 62 00
        E 120 90 1a 60
        E 0 90 55 60
        E 0 90 61 60
        E 120 80 1a 00
        E 0 80 55 00
        E 0 80 61 00
        E 120 90 1f 60
        E 0 90 3e 60
        E 0 90 4a 60
        E 0 90 56 60
        E 0 90 62 60
        E 120 80 1f 00
        E 0 80 3e 00
        E 0 80 4a 00
        E 0 80 56 00
        E 0 80 62 00
        E 120 90 18 60
        E 0 90 54 60
        E 0 90 60 60
        E 120 80 18 00
        E 0 80 54 00
        E 0 80 60 00
        E 120 90 1a 60
        E 0 90 1f 60
        E 0 90 3d 60
        E 0 90 49 60
        E 0 90 4a 60
        E 0 90 55 60
        E 0 90 56 60
        E 0 90 61 60
        E 0 90 62 60
        E 120 80 1a 00
        E 0 80 1f 00
        E 0 80 3d 00
        E 0 80 49 00
        E 0 80 4a 00
        E 0 80 55 00
        E 0 80 56 00
        E 0 80 61 00
        E 0 80 62 00
        E 120 90 1f 60
        E 0 90 56 60
        E 0 90 62 60
        E 120 80 1f 00
        E 0 80 56 00
        E 0 80 62 00
        E 120 90 18 60
        E 0 90 1f 60
        E 0 90 3e 60
        E 0 90 48 60
        E 0 90 4a 60
        E 0 90 54 60
        E 0 90 56 60
        E 0 90 60 60
        E 0 90 62 60
        e 0 90 78 60
        e 0 90 79 60
        e 0 90 7a 60
        e 0 90 7b 60
        e 0 90 7c 60
        E 120 80 18 00
        E 0 80 1f 00
        E 0 80 3e 00
        E 0 80 48 00
        E 0 80 4a 00
        E 0 80 54 00
        E 0 80 56 00
        E 0 80 60 00
        E 0 80 62 00
        E 120 90 1b 60
        E 0 90 55 60
        E 0 90 61 60
        E 120 80 1b 00
        E 0 80 55 00
        E 0 80 61 00
        E 0 90 1a 60
        E 0 90 61 60
        E 120 80 1a 00
        E 0 80 61 00
        E 0 90 1b 60
        E 0 90 3d 60
        E 0 90 49 60
        E 0 90 55 60
        E 0 90 61 60
        E 120 80 1b 00
        E 0 80 3d 00
        E 0 80 49 00
        E 0 80 55 00
        E 0 80 61 00
        E 0 90 1a 60
        E 0 90 61 60
        E 120 80 1a 00
        E 0 80 61 00
        E 0 90 1b 60
        E 0 90 55 60
        E 0 90 61 60
        E 120 80 1b 00
        E 0 80 55 00
        E 0 80 61 00
        E 0 90 1a 60
        E 0 90 61 60
        E 120 80 1a 00
        E 0 80 61 00
        E 0 90 1b 60
        E 0 90 3d 60
        E 0 90 49 60
        E 0 90 55 60
        E 0 90 61 60
        E 120 80 1b 00
        E 0 80 3d 00
        E 0 80 49 00
        E 0 80 55 00
        E 0 80 61 00
        E 0 90 1a 60
        E 0 90 61 60
        E 120 80 1a 00
        E 0 80 61 00
        E 0 90 1b 60
        E 0 90 55 60
        E 0 90 61 60
        E 120 80 1b 00
        E 0 80 55 00
        E 0 80 61 00
        E 0 90 1a 60
        E 0 90 61 60
        E 120 80 1a 00
        E 0 80 61 00
        E 0 90 2f 60
        E 0 90 3e 60
        E 0 90 4a 60
        E 0 90 56 60
        E 0 90 62 60
        E 0 90 6e 60
        E 120 80 2f 00
        E 0 80 3e 00
        E 0 80 4a 00
        E 0 80 56 00
        E 0 80 62 00
        E 0 80 6e 00
        E 0 90 2e 60
        E 0 90 62 60
        E 0 90 6e 60
        E 120 80 2e 00
        E 0 80 62 00
        E 0 80 6e 00
        E 0 90 2f 60
        E 0 90 56 60
        E 0 90 62 60
        E 0 90 6e 60
        E 120 80 2f 00
        E 0 80 56 00
        E 0 80 62 00
        E 0 80 6e 00
        E 0 90 2e 60
        E 0 90 62 60
        E 0 90 6e 60
        E 120 80 2e 00
        E 0 80 62 00
        E 0 80 6e 00
        E 0 90 2f 60
        E 0 90 3e 60
        E 0 90 4a 60
        E 0 90 56 60
        E 0 90 62 60
        E 0 90 6e 60
        E 120 80 2f 00
        E 0 80 3e 00
        E 0 80 4a 00
        E 0 80 56 00
        E 0 80 62 00
        E 0 80 6e 00
        E 0 90 2e 60
        E 0 90 62 60
        E 0 90 6e 60
        E 120 80 2e 00
        E 0 80 62 00
        E 0 80 6e 00
        E 0 90 2f 60
        E 0 90 56 60
        E 0 90 62 60
        E 0 90 6e 60
        E 120 80 2f 00
        E 0 80 56 00
        E 0 80 62 00
        E 0 80 6e 00
        E 0 90 2e 60
        E 0 90 62 60
        E 0 90 6e 60
        E 120 80 2e 00
        E 0 80 62 00
        E 0 80 6e 00
        E 0 90 31 60
        E 0 90 3f 60
        E 0 90 4b 60
        E 0 90 57 60
        E 0 90 63 60
        E 0 90 6f 60
        E 120 80 31 00
        E 0 80 3f 00
        E 0 80 4b 00
        E 0 80 57 00
        E 0 80 63 00
        E 0 80 6f 00
        E 0 90 30 60
        E 0 90 63 60
        E 0 90 6f 60
        E 120 80 30 00
        E 0 80 63 00
        E 0 80 6f 00
        E 0 90 31 60
        E 0 90 57 60
        E 0 90 63 60
        E 0 90 6f 60
        E 120 80 31 00
        E 0 80 57 00
        E 0 80 63 00
        E 0 80 6f 00
        E 0 90 30 60
        E 0 90 63 60
        E 0 90 6f 60
        E 120 80 30 00
        E 0 80 63 00
        E 0 80 6f 00
        E 0 90 31 60
        E 0 90 3f 60
        E 0 90 4b 60
        E 0 90 57 60
        E 0 90 63 60
        E 0 90 6f 60
        E 120 80 31 00
        E 0 80 3f 00
        E 0 80 4b 00
        E 0 80 57 00
        E 0 80 63 00
        E 0 80 6f 00
        E 0 90 30 60
        E 0 90 63 60
        E 0 90 6f 60
        E 120 80 30 00
        E 0 80 63 00
        E 0 80 6f 00
        E 0 90 31 60
        E 0 90 57 60
        E 0 90 63 60
        E 0 90 6f 60
        E 120 80 31 00
        E 0 80 57 00
        E 0 80 63 00
        E 0 80 6f 00
        E 0 90 30 60
        E 0 90 63 60
        E 0 90 6f 60
        E 120 80 30 00
        E 0 80 63 00
        E 0 80 6f 00
        E 0 90 33 60
        E 0 90 40 60
        E 0 90 4c 60
        E 0 90 58 60
        E 0 90 64 60
        E 0 90 70 60
        E 120 80 33 00
        E 0 80 40 00
        E 0 80 4c 00
        E 0 80 58 00
        E 0 80 64 00
        E 0 80 70 00
        E 0 90 32 60
        E 0 90 64 60
        E 0 90 70 60
        E 120 80 32 00
        E 0 80 64 00
        E 0 80 70 00
        E 0 90 33 60
        E 0 90 58 60
        E 0 90 64 60
        E 0 90 70 60
        E 120 80 33 00
        E 0 80 58 00
        E 0 80 64 00
        E 0 80 70 00
        E 0 90 32 60
        E 0 90 64 60
        E 0 90 70 60
        E 120 80 32 00
        E 0 80 64 00
        E 0 80 70 00
        E 0 90 18 60
        E 0 90 24 60
        E 0 90 40 60
        E 0 90 48 60
        E 0 90 4c 60
        E 0 90 54 60
        E 0 90 58 60
        E 0 90 60 60
        E 0 90 64 60
        e 0 80 78 00
        e 0 80 79 00
        e 0 80 7a 00
        e 0 80 7b 00
        e 0 80 7c 00
        E 120 80 18 00
        E 0 80 24 00
        E 0 80 40 00
        E 0 80 48 00
        E 0 80 4c 00
        E 0 80 54 00
        E 0 80 58 00
        E 0 80 60 00
        E 0 80 64 00
        E 120 90 18 60
        E 0 90 54 60
        E 0 90 60 60
        E 120 80 18 00
        E 0 80 54 00
        E 0 80 60 00
        E 120 90 18 60
        E 0 90 1f 60
        E 0 90 3e 60
        E 0 90 48 60
        E 0 90 4a 60
        E 0 90 54 60
        E 0 90 56 60
        E 0 90 60 60
        E 0 90 62 60
        E 120 80 18 00
        E 0 80 1f 00
        E 0 80 3e 00
        E 0 80 48 00
        E 0 80 4a 00
        E 0 80 54 00
        E 0 80 56 00
        E 0 80 60 00
        E 0 80 62 00
        E 120 90 1a 60
        E 0 90 55 60
        E 0 90 61 60
        E 120 80 1a 00
        E 0 80 55 00
        E 0 80 61 00
        E 120 90 1f 60
        E 0 90 3e 60
        E 0 90 4a 60
        E 0 90 56 60
        E 0 90 62 60
        E 120 80 1f 00
        E 0 80 3e 00
        E 0 80 4a 00
        E 0 80 56 00
        E 0 80 62 00
        E 120 90 18 60
        E 0 90 54 60
        E 0 90 60 60
        E 120 80 18 00
        E 0 80 54 00
        E 0 80 60 00
        E 120 90 1a 60
        E 0 90 1f 60
        E 0 90 3d 60
        E 0 90 49 60
        E 0 90 4a 60
        E 0 90 55 60
        E 0 90 56 60
        E 0 90 61 60
        E 0 90 62 60
        E 120 80 1a 00
        E 0 80 1f 00
        E 0 80 3d 00
        E 0 80 49 00
        E 0 80 4a 00
        E 0 80 55 00
        E 0 80 56 00
        E 0 80 61 00
        E 0 80 62 00
        E 360 90 18 60
        E 0 90 1f 60
        E 0 90 3e 60
        E 0 90 48 60
        E 0 90 4a 60
        E 0 90 54 60
        E 0 90 56 60
        E 0 90 60 60
        E 0 90 62 60
        E 120 80 18 00
        E 0 80 1f 00
        E 0 80 3e 00
        E 0 80 48 00
        E 0 80 4a 00
        E 0 80 54 00
        E 0 80 56 00
        E 0 80 60 00
        E 0 80 62 00
        E 0 90 18 60
        E 0 90 60 60
        E 120 80 18 00
        E 0 80 60 00
        E 0 90 18 60
        E 0 90 54 60
        E 0 90 60 60
        E 120 80 18 00
        E 0 80 54 00
        E 0 80 60 00
        E 0 90 18 60
        E 0 90 60 60
        E 120 80 18 00
        E 0 80 60 00
        E 0 90 1f 60
        E 0 90 3e 60
        E 0 90 4a 60
        E 0 90 56 60
        E 0 90 62 60
        E 120 80 1f 00
        E 0 80 3e 00
        E 0 80 4a 00
        E 0 80 56 00
        E 0 80 62 00
        E 120 90 1a 60
        E 0 90 55 60
        E 0 90 61 60
        E 120 80 1a 00
        E 0 80 55 00
        E 0 80 61 00
        E 120 90 1f 60
        E 0 90 3e 60
        E 0 90 4a 60
        E 0 90 56 60
        E 0 90 62 60
        E 120 80 1f 00
        E 0 80 3e 00
        E 0 80 4a 00
        E 0 80 56 00
        E 0 80 62 00
        E 120 90 18 60
        E 0 90 54 60
        E 0 90 60 60
        E 120 80 18 00
        E 0 80 54 00
        E 0 80 60 00
        E 120 90 1a 60
        E 0 90 1f 60
        E 0 90 3d 60
        E 0 90 49 60
        E 0 90 4a 60
        E 0 90 55 60
        E 0 90 56 60
        E 0 90 61 60
        E 0 90 62 60
        E 120 80 1a 00
        E 0 80 1f 00
        E 0 80 3d 00
        E 0 80 49 00
        E 0 80 4a 00
        E 0 80 55 00
        E 0 80 56 00
        E 0 80 61 00
        E 0 80 62 00
        E 120 90 1f 60
        E 0 90 56 60
        E 0 90 62 60
        E 120 80 1f 00
        E 0 80 56 00
        E 0 80 62 00
        E 120 90 18 60
        E 0 90 1f 60
        E 0 90 3e 60
        E 0 90 48 60
        E 0 90 4a 60
        E 0 90 54 60
        E 0 90 56 60
        E 0 90 60 60
        E 0 90 62 60
        E 120 80 18 00
        E 0 80 1f 00
        E 0 80 3e 00
        E 0 80 48 00
        E 0 80 4a 00
        E 0 80 54 00
        E 0 80 56 00
        E 0 80 60 00
        E 0 80 62 00
        E 0 90 18 60
        E 0 90 60 60
        E 120 80 18 00
        E 0 80 60 00
        E 0 90 18 60
        E 0 90 54 60
        E 0 90 60 60
        E 120 80 18 00
        E 0 80 54 00
        E 0 80 60 00
        E 0 90 18 60
        E 0 90 60 60
        E 120 80 18 00
        E 0 80 60 00
        E 0 90 1f 60
        E 0 90 3e 60
        E 0 90 4a 60
        E 0 90 56 60
        E 0 90 62 60
        E 120 80 1f 00
        E 0 80 3e 00
        E 0 80 4a 00
        E 0 80 56 00
        E 0 80 62 00
        E 120 90 1a 60
        E 0 90 55 60
        E 0 90 61 60
        E 120 80 1a 00
        E 0 80 55 00
        E 0 80 61 00
        E 120 90 1f 60
        E 0 90 3e 60
        E 0 90 4a 60
        E 0 90 56 60
        E 0 90 62 60
        E 120 80 1f 00
        E 0 80 3e 00
        E 0 80 4a 00
        E 0 80 56 00
        E 0 80 62 00
        E 120 90 18 60
        E 0 90 54 60
        E 0 90 60 60
        E 120 80 18 00
        E 0 80 54 00
        E 0 80 60 00
        E 120 90 1a 60
        E 0 90 1f 60
        E 0 90 3d 60
        E 0 90 49 60
        E 0 90 4a 60
        E 0 90 55 60
        E 0 90 56 60
        E 0 90 61 60
        E 0 90 62 60
        E 120 80 1a 00
        E 0 80 1f 00
        E 0 80 3d 00
        E 0 80 49 00
        E 0 80 4a 00
        E 0 80 55 00
        E 0 80 56 00
        E 0 80 61 00
        E 0 80 62 00
        E 120 90 1f 60
        E 0 90 56 60
        E 0 90 62 60
        E 120 80 1f 00
        E 0 80 56 00
        E 0 80 62 00
        E 120 90 18 60
        E 0 90 1f 60
        E 0 90 3e 60
        E 0 90 48 60
        E 0 90 4a 60
        E 0 90 54 60
        E 0 90 56 60
        E 0 90 60 60
        E 0 90 62 60
        E 120 80 18 00
        E 0 80 1f 00
        E 0 80 3e 00
        E 0 80 48 00
        E 0 80 4a 00
        E 0 80 54 00
        E 0 80 56 00
        E 0 80 60 00
        E 0 80 62 00
        E 0 90 18 60
        E 0 90 60 60
        E 120 80 18 00
        E 0 80 60 00
        E 0 90 18 60
        E 0 90 54 60
        E 0 90 60 60
        E 120 80 18 00
        E 0 80 54 00
        E 0 80 60 00
        E 0 90 18 60
        E 0 90 60 60
        E 120 80 18 00
        E 0 80 60 00
        E 0 90 1f 60
        E 0 90 3e 60
        E 0 90 4a 60
        E 0 90 56 60
        E 0 90 62 60
        E 120 80 1f 00
        E 0 80 3e 00
        E 0 80 4a 00
        E 0 80 56 00
        E 0 80 62 00
        E 120 90 1a 60
        E 0 90 55 60
        E 0 90 61 60
        E 120 80 1a 00
        E 0 80 55 00
        E 0 80 61 00
        E 120 90 1f 60
        E 0 90 3e 60
        E 0 90 4a 60
        E 0 90 56 60
        E 0 90 62 60
        E 120 80 1f 00
        E 0 80 3e 00
        E 0 80 4a 00
        E 0 80 56 00
        E 0 80 62 00
        E 120 90 18 60
        E 0 90 54 60
        E 0 90 60 60
        E 120 80 18 00
        E 0 80 54 00
        E 0 80 60 00
        E 120 90 1f 60
        E 0 90 3e 60
        E 0 90 4a 60
        E 0 90 56 60
        E 0 90 62 60
        E 120 80 1f 00
        E 0 80 3e 00
        E 0 80 4a 00
        E 0 80 56 00
        E 0 80 62 00
        E 120 90 1f 60
        E 0 90 56 60
        E 0 90 62 60
        E 120 80 1f 00
        E 0 80 56 00
        E 0 80 62 00
        E 120 90 18 60
        E 0 90 24 60
        E 0 90 40 60
        E 0 90 48 60
        E 0 90 4c 60
        E 0 90 54 60
        E 0 90 58 60
        E 0 90 60 60
        E 0 90 64 60
        E 120 80 18 00
        E 0 80 24 00
        E 0 80 40 00
        E 0 80 48 00
        E 0 80 4c 00
        E 0 80 54 00
        E 0 80 58 00
        E 0 80 60 00
        E 0 80 64 00
        E 120 90 1b 60
        E 0 90 55 60
        E 0 90 61 60
        E 120 80 1b 00
        E 0 80 55 00
        E 0 80 61 00
        E 0 90 1a 60
        E 0 90 61 60
        E 120 80 1a 00
        E 0 80 61 00
        E 0 90 1b 60
        E 0 90 3d 60
        E 0 90 49 60
        E 0 90 55 60
        E 0 90 61 60
        E 120 80 1b 00
        E 0 80 3d 00
        E 0 80 49 00
        E 0 80 55 00
        E 0 80 61 00
        E 0 90 1a 60
        E 0 90 61 60
        E 120 80 1a 00
        E 0 80 61 00
        E 0 90 1b 60
        E 0 90 55 60
        E 0 90 61 60
        E 120 80 1b 00
        E 0 80 55 00
        E 0 80 61 00
        E 0 90 1a 60
        E 0 90 61 60
        E 120 80 1a 00
        E 0 80 61 00
        E 0 90 1b 60
        E 0 90 3d 60
        E 0 90 49 60
        E 0 90 55 60
        E 0 90 61 60
        E 120 80 1b 00
        E 0 80 3d 00
        E 0 80 49 00
        E 0 80 55 00
        E 0 80 61 00
        E 0 90 1a 60
        E 0 90 61 60
        E 120 80 1a 00
        E 0 80 61 00
        E 0 90 1b 60
        E 0 90 55 60
        E 0 90 61 60
        E 120 80 1b 00
        E 0 80 55 00
        E 0 80 61 00
        E 0 90 1a 60
        E 0 90 61 60
        E 120 80 1a 00
        E 0 80 61 00
        E 0 90 1b 60
        E 0 90 3d 60
        E 0 90 49 60
        E 0 90 55 60
        E 0 90 61 60
        E 120 80 1b 00
        E 0 80 3d 00
        E 0 80 49 00
        E 0 80 55 00
        E 0 80 61 00
        E 0 90 1a 60
        E 0 90 61 60
        E 120 80 1a 00
        E 0 80 61 00
        E 0 90 1b 60
        E 0 90 55 60
        E 0 90 61 60
        E 120 80 1b 00
        E 0 80 55 00
        E 0 80 61 00
        E 0 90 1a 60
        E 0 90 61 60
        E 120 80 1a 00
        E 0 80 61 00
        E 0 90 1b 60
        E 0 90 3d 60
        E 0 90 49 60
        E 0 90 55 60
        E 0 90 61 60
        E 120 80 1b 00
        E 0 80 3d 00
        E 0 80 49 00
        E 0 80 55 00
        E 0 80 61 00
        E 0 90 1a 60
        E 0 90 61 60
        E 120 80 1a 00
        E 0 80 61 00
        E 0 90 1b 60
        E 0 90 55 60
        E 0 90 61 60
        E 120 80 1b 00
        E 0 80 55 00
        E 0 80 61 00
        E 0 90 1a 60
        E 0 90 61 60
        E 120 80 1a 00
        E 0 80 61 00
        E 0 90 1b 60
        E 0 90 3d 60
        E 0 90 49 60
        E 0 90 55 60
        E 0 90 61 60
        E 120 80 1b 00
        E 0 80 3d 00
        E 0 80 49 00
        E 0 80 55 00
        E 0 80 61 00
        E 0 90 1a 60
        E 0 90 61 60
        E 120 80 1a 00
        E 0 80 61 00
        E 0 90 1b 60
        E 0 90 55 60
        E 0 90 61 60
        E 120 80 1b 00
        E 0 80 55 00
        E 0 80 61 00
        E 0 90 1a 60
        E 0 90 61 60
        E 120 80 1a 00
        E 0 80 61 00
        E 0 90 1b 60
        E 0 90 3d 60
        E 0 90 49 60
        E 0 90 55 60
        E 0 90 61 60
        E 120 80 1b 00
        E 0 80 3d 00
        E 0 80 49 00
        E 0 80 55 00
        E 0 80 61 00
        E 0 90 1a 60
        E 0 90 61 60
        E 120 80 1a 00
        E 0 80 61 00
        E 0 90 1b 60
        E 0 90 55 60
        E 0 90 61 60
        E 120 80 1b 00
        E 0 80 55 00
        E 0 80 61 00
        E 0 90 1a 60
        E 0 90 61 60
        E 120 80 1a 00
        E 0 80 61 00
        E 0 90 2f 60
        E 0 90 3e 60
        E 0 90 4a 60
        E 0 90 56 60
        E 0 90 62 60
        E 0 90 6e 60
        E 120 80 2f 00
        E 0 80 3e 00
        E 0 80 4a 00
        E 0 80 56 00
        E 0 80 62 00
        E 0 80 6e 00
        E 0 90 2e 60
        E 0 90 62 60
        E 0 90 6e 60
        E 120 80 2e 00
        E 0 80 62 00
        E 0 80 6e 00
        E 0 90 2f 60
        E 0 90 56 60
        E 0 90 62 60
        E 0 90 6e 60
        E 120 80 2f 00
        E 0 80 56 00
        E 0 80 62 00
        E 0 80 6e 00
        E 0 90 2e 60
        E 0 90 62 60
        E 0 90 6e 60
        E 120 80 2e 00
        E 0 80 62 00
        E 0 80 6e 00
        E 0 90 18 60
        E 0 90 24 60
        E 0 90 40 60
        E 0 90 48 60
        E 0 90 4c 60
        E 0 90 54 60
        E 0 90 58 60
        E 0 90 60 60
        E 0 90 64 60
        E 120 80 18 00
        E 0 80 24 00
        E 0 80 40 00
        E 0 80 48 00
        E 0 80 4c 00
        E 0 80 54 00
        E 0 80 58 00
        E 0 80 60 00
        E 0 80 64 00
        E 120 90 18 60
        E 0 90 24 60
        E 0 90 54 60
        E 0 90 58 60
        E 0 90 60 60
        E 0 90 64 60
        E 120 80 18 00
        E 0 80 24 00
        E 0 80 54 00
        E 0 80 58 00
        E 0 80 60 00
        E 0 80 64 00
        E 120 90 18 60
        E 0 90 24 60
        E 0 90 40 60
        E 0 90 48 60
        E 0 90 4c 60
        E 0 90 54 60
        E 0 90 58 60
        E 0 90 60 60
        E 0 90 64 60
        E 120 80 18 00
        E 0 80 24 00
        E 0 80 40 00
        E 0 80 48 00
        E 0 80 4c 00
        E 0 80 54 00
        E 0 80 58 00
        E 0 80 60 00
        E 0 80 64 00
        E 120 90 18 60
        E 0 90 1a 60
        E 0 90 24 60
        E 0 90 54 60
        E 0 90 55 60
        E 0 90 58 60
        E 0 90 60 60
        E 0 90 61 60
        E 0 90 64 60
        E 120 80 18 00
        E 0 80 1a 00
        E 0 80 24 00
        E 0 80 54 00
        E 0 80 55 00
        E 0 80 58 00
        E 0 80 60 00
        E 0 80 61 00
        E 0 80 64 00
        E 120 90 24 60
        E 0 90 40 60
        E 0 90 4c 60
        E 0 90 58 60
        E 0 90 64 60
        E 120 80 24 00
        E 0 80 40 00
        E 0 80 4c 00
        E 0 80 58 00
        E 0 80 64 00
        E 120 90 18 60
        E 0 90 24 60
        E 0 90 54 60
        E 0 90 58 60
        E 0 90 60 60
        E 0 90 64 60
        E 120 80 18 00
        E 0 80 24 00
        E 0 80 54 00
        E 0 80 58 00
        E 0 80 60 00
        E 0 80 64 00
        E 120 90 1a 60
        E 0 90 24 60
        E 0 90 3d 60
        E 0 90 49 60
        E 0 90 4c 60
        E 0 90 55 60
        E 0 90 58 60
        E 0 90 61 60
        E 0 90 64 60
        E 120 80 1a 00
        E 0 80 24 00
        E 0 80 3d 00
        E 0 80 49 00
        E 0 80 4c 00
        E 0 80 55 00
        E 0 80 58 00
        E 0 80 61 00
        E 0 80 64 00
        E 120 90 24 60
        E 0 90 58 60
        E 0 90 64 60
        E 120 80 24 00
        E 0 80 58 00
        E 0 80 64 00
        E 120 90 18 60
        E 0 90 24 60
        E 0 90 40 60
        E 0 90 48 60
        E 0 90 4c 60
        E 0 90 54 60
        E 0 90 58 60
        E 0 90 60 60
        E 0 90 64 60
        E 120 80 18 00
        E 0 80 24 00
        E 0 80 40 00
        E 0 80 48 00
        E 0 80 4c 00
        E 0 80 54 00
        E 0 80 58 00
        E 0 80 60 00
        E 0 80 64 00
        E 120 90 18 60
        E 0 90 24 60
        E 0 90 54 60
        E 0 90 58 60
        E 0 90 60 60
        E 0 90 64 60
        E 120 80 18 00
        E 0 80 24 00
        E 0 80 54 00
        E 0 80 58 00
        E 0 80 60 00
        E 0 80 64 00
        E 120 90 18 60
        E 0 90 24 60
        E 0 90 40 60
        E 0 90 48 60
        E 0 90 4c 60
        E 0 90 54 60
        E 0 90 58 60
        E 0 90 60 60
        E 0 90 64 60
        E 120 80 18 00
        E 0 80 24 00
        E 0 80 40 00
        E 0 80 48 00
        E 0 80 4c 00
        E 0 80 54 00
        E 0 80 58 00
        E 0 80 60 00
        E 0 80 64 00
        E 120 90 18 60
        E 0 90 1a 60
        E 0 90 24 60
        E 0 90 54 60
        E 0 90 55 60
        E 0 90 58 60
        E 0 90 60 60
        E 0 90 61 60
        E 0 90 64 60
        E 120 80 18 00
        E 0 80 1a 00
        E 0 80 24 00
        E 0 80 54 00
        E 0 80 55 00
        E 0 80 58 00
        E 0 80 60 00
        E 0 80 61 00
        E 0 80 64 00
        E 120 90 24 60
        E 0 90 40 60
        E 0 90 4c 60
        E 0 90 58 60
        E 0 90 64 60
        E 120 80 24 00
        E 0 80 40 00
        E 0 80 4c 00
        E 0 80 58 00
        E 0 80 64 00
        E 120 90 18 60
        E 0 90 24 60
        E 0 90 54 60
        E 0 90 58 60
        E 0 90 60 60
        E 0 90 64 60
        E 120 80 18 00
        E 0 80 24 00
        E 0 80 54 00
        E 0 80 58 00
        E 0 80 60 00
        E 0 80 64 00
        E 120 90 1a 60
        E 0 90 24 60
        E 0 90 3d 60
        E 0 90 49 60
        E 0 90 4c 60
        E 0 90 55 60
        E 0 90 58 60
        E 0 90 61 60
        E 0 90 64 60
        E 120 80 1a 00
        E 0 80 24 00
        E 0 80 3d 00
        E 0 80 49 00
        E 0 80 4c 00
        E 0 80 55 00
        E 0 80 58 00
        E 0 80 61 00
        E 0 80 64 00
        E 120 90 24 60
        E 0 90 58 60
        E 0 90 64 60
        E 120 80 24 00
        E 0 80 58 00
        E 0 80 64 00
        E 120 90 18 60
        E 0 90 24 60
        E 0 90 40 60
        E 0 90 48 60
        E 0 90 4c 60
        E 0 90 54 60
        E 0 90 58 60
        E 0 90 60 60
        E 0 90 64 60
        E 120 80 18 00
        E 0 80 24 00
        E 0 80 40 00
        E 0 80 48 00
        E 0 80 4c 00
        E 0 80 54 00
        E 0 80 58 00
        E 0 80 60 00
        E 0 80 64 00
        E 120 90 1b 60
        E 0 90 55 60
        E 0 90 61 60
        E 120 80 1b 00
        E 0 80 55 00
        E 0 80 61 00
        E 0 90 1a 60
        E 0 90 61 60
        E 120 80 1a 00
        E 0 80 61 00
        E 0 90 1b 60
        E 0 90 3d 60
        E 0 90 49 60
        E 0 90 55 60
        E 0 90 61 60
        E 120 80 1b 00
        E 0 80 3d 00
        E 0 80 49 00
        E 0 80 55 00
        E 0 80 61 00
        E 0 90 1a 60
        E 0 90 61 60
        E 120 80 1a 00
        E 0 80 61 00
        E 0 90 1b 60
        E 0 90 55 60
        E 0 90 61 60
        E 120 80 1b 00
        E 0 80 55 00
        E 0 80 61 00
        E 0 90 1a 60
        E 0 90 61 60
        E 120 80 1a 00
        E 0 80 61 00
        E 0 90 1b 60
        E 0 90 3d 60
        E 0 90 49 60
        E 0 90 55 60
        E 0 90 61 60
        E 120 80 1b 00
        E 0 80 3d 00
        E 0 80 49 00
        E 0 80 55 00
        E 0 80 61 00
        E 0 90 1a 60
        E 0 90 61 60
        E 120 80 1a 00
        E 0 80 61 00
        E 0 90 1b 60
        E 0 90 55 60
        E 0 90 61 60
        E 120 80 1b 00
        E 0 80 55 00
        E 0 80 61 00
        E 0 90 1a 60
        E 0 90 61 60
        E 120 80 1a 00
        E 0 80 61 00
        E 0 90 1b 60
        E 0 90 3d 60
        E 0 90 49 60
        E 0 90 55 60
        E 0 90 61 60
        E 120 80 1b 00
        E 0 80 3d 00
        E 0 80 49 00
        E 0 80 55 00
        E 0 80 61 00
        E 0 90 1a 60
        E 0 90 61 60
        E 120 80 1a 00
        E 0 80 61 00
        E 0 90 1b 60
        E 0 90 55 60
        E 0 90 61 60
        E 120 80 1b 00
        E 0 80 55 00
        E 0 80 61 00
        E 0 90 1a 60
        E 0 90 61 60
        E 120 80 1a 00
        E 0 80 61 00
        E 0 90 1b 60
        E 0 90 3d 60
        E 0 90 49 60
        E 0 90 55 60
        E 0 90 61 60
        E 120 80 1b 00
        E 0 80 3d 00
        E 0 80 49 00
        E 0 80 55 00
        E 0 80 61 00
        E 0 90 1a 60
        E 0 90 61 60
        E 120 80 1a 00
        E 0 80 61 00
        E 0 90 1b 60
        E 0 90 55 60
        E 0 90 61 60
        E 120 80 1b 00
        E 0 80 55 00
        E 0 80 61 00
        E 0 90 1a 60
        E 0 90 61 60
        E 120 80 1a 00
        E 0 80 61 00
        E 0 90 1b 60
        E 0 90 3d 60
        E 0 90 49 60
        E 0 90 55 60
        E 0 90 61 60
        E 120 80 1b 00
        E 0 80 3d 00
        E 0 80 49 00
        E 0 80 55 00
        E 0 80 61 00
        E 0 90 1a 60
        E 0 90 61 60
        E 120 80 1a 00
        E 0 80 61 00
        E 0 90 1b 60
        E 0 90 55 60
        E 0 90 61 60
        E 120 80 1b 00
        E 0 80 55 00
        E 0 80 61 00
        E 0 90 1a 60
        E 0 90 61 60
        E 120 80 1a 00
        E 0 80 61 00
        E 0 90 1b 60
        E 0 90 3d 60
        E 0 90 49 60
        E 0 90 55 60
        E 0 90 61 60
        E 120 80 1b 00
        E 0 80 3d 00
        E 0 80 49 00
        E 0 80 55 00
        E 0 80 61 00
        E 0 90 1a 60
        E 0 90 61 60
        E 120 80 1a 00
        E 0 80 61 00
        E 0 90 2f 60
        E 0 90 56 60
        E 0 90 62 60
        E 0 90 6e 60
        E 120 80 2f 00
        E 0 80 56 00
        E 0 80 62 00
        E 0 80 6e 00
        E 0 90 2e 60
        E 0 90 62 60
        E 0 90 6e 60
        E 120 80 2e 00
        E 0 80 62 00
        E 0 80 6e 00
        E 0 90 31 60
        E 0 90 3f 60
        E 0 90 4b 60
        E 0 90 57 60
        E 0 90 63 60
        E 0 90 6f 60
        E 120 80 31 00
        E 0 80 3f 00
        E 0 80 4b 00
        E 0 80 57 00
        E 0 80 63 00
        E 0 80 6f 00
        E 0 90 30 60
        E 0 90 63 60
        E 0 90 6f 60
        E 120 80 30 00
        E 0 80 63 00
        E 0 80 6f 00
        E 0 90 31 60
        E 0 90 57 60
        E 0 90 63 60
        E 0 90 6f 60
        E 120 80 31 00
        E 0 80 57 00
        E 0 80 63 00
        E 0 80 6f 00
        E 0 90 30 60
        E 0 90 63 60
        E 0 90 6f 60
        E 120 80 30 00
        E 0 80 63 00
        E 0 80 6f 00
        E 0 90 18 60
        E 0 90 24 60
        E 0 90 40 60
        E 0 90 48 60
        E 0 90 4c 60
        E 0 90 54 60
        E 0 90 58 60
        E 0 90 60 60
        E 0 90 64 60
        e 0 90 74 60
        E 120 80 18 00
        E 0 80 24 00
        E 0 80 40 00
        E 0 80 48 00
        E 0 80 4c 00
        E 0 80 54 00
        E 0 80 58 00
        E 0 80 60 00
        E 0 80 64 00
        E 120 90 18 60
        E 0 90 24 60
        E 0 90 54 60
        E 0 90 58 60
        E 0 90 60 60
        E 0 90 64 60
        E 120 80 18 00
        E 0 80 24 00
        E 0 80 54 00
        E 0 80 58 00
        E 0 80 60 00
        E 0 80 64 00
        E 120 90 18 60
        E 0 90 24 60
        E 0 90 40 60
        E 0 90 48 60
        E 0 90 4c 60
        E 0 90 54 60
        E 0 90 58 60
        E 0 90 60 60
        E 0 90 64 60
        E 120 80 18 00
        E 0 80 24 00
        E 0 80 40 00
        E 0 80 48 00
        E 0 80 4c 00
        E 0 80 54 00
        E 0 80 58 00
        E 0 80 60 00
        E 0 80 64 00
        E 120 90 18 60
        E 0 90 1a 60
        E 0 90 24 60
        E 0 90 54 60
        E 0 90 55 60
        E 0 90 58 60
        E 0 90 60 60
        E 0 90 61 60
        E 0 90 64 60
        E 120 80 18 00
        E 0 80 1a 00
        E 0 80 24 00
        E 0 80 54 00
        E 0 80 55 00
        E 0 80 58 00
        E 0 80 60 00
        E 0 80 61 00
        E 0 80 64 00
        E 120 90 24 60
        E 0 90 40 60
        E 0 90 4c 60
        E 0 90 58 60
        E 0 90 64 60
        E 120 80 24 00
        E 0 80 40 00
        E 0 80 4c 00
        E 0 80 58 00
        E 0 80 64 00
        E 120 90 18 60
        E 0 90 24 60
        E 0 90 54 60
        E 0 90 58 60
        E 0 90 60 60
        E 0 90 64 60
        E 120 80 18 00
        E 0 80 24 00
        E 0 80 54 00
        E 0 80 58 00
        E 0 80 60 00
        E 0 80 64 00
        E 120 90 1a 60
        E 0 90 24 60
        E 0 90 3d 60
        E 0 90 49 60
        E 0 90 4c 60
        E 0 90 55 60
        E 0 90 58 60
        E 0 90 61 60
        E 0 90 64 60
        E 120 80 1a 00
        E 0 80 24 00
        E 0 80 3d 00
        E 0 80 49 00
        E 0 80 4c 00
        E 0 80 55 00
        E 0 80 58 00
        E 0 80 61 00
        E 0 80 64 00
        E 120 90 24 60
        E 0 90 58 60
        E 0 90 64 60
        E 120 80 24 00
        E 0 80 58 00
        E 0 80 64 00
        E 120 90 18 60
        E 0 90 24 60
        E 0 90 40 60
        E 0 90 48 60
        E 0 90 4c 60
        E 0 90 54 60
        E 0 90 58 60
        E 0 90 60 60
        E 0 90 64 60
        E 120 80 18 00
        E 0 80 24 00
        E 0 80 40 00
        E 0 80 48 00
        E 0 80 4c 00
        E 0 80 54 00
        E 0 80 58 00
        E 0 80 60 00
        E 0 80 64 00
        E 120 90 18 60
        E 0 90 24 60
        E 0 90 54 60
        E 0 90 58 60
        E 0 90 60 60
        E 0 90 64 60
        E 120 80 18 00
        E 0 80 24 00
        E 0 80 54 00
        E 0 80 58 00
        E 0 80 60 00
        E 0 80 64 00
        E 120 90 18 60
        E 0 90 24 60
        E 0 90 40 60
        E 0 90 48 60
        E 0 90 4c 60
        E 0 90 54 60
        E 0 90 58 60
        E 0 90 60 60
        E 0 90 64 60
        E 120 80 18 00
        E 0 80 24 00
        E 0 80 40 00
        E 0 80 48 00
        E 0 80 4c 00
        E 0 80 54 00
        E 0 80 58 00
        E 0 80 60 00
        E 0 80 64 00
        E 120 90 1a 60
        E 0 90 24 60
        E 0 90 55 60
        E 0 90 58 60
        E 0 90 61 60
        E 0 90 64 60
        E 120 80 1a 00
        E 0 80 24 00
        E 0 80 55 00
        E 0 80 58 00
        E 0 80 61 00
        E 0 80 64 00
        E 120 90 24 60
        E 0 90 40 60
        E 0 90 4c 60
        E 0 90 58 60
        E 0 90 64 60
        E 120 80 24 00
        E 0 80 40 00
        E 0 80 4c 00
        E 0 80 58 00
        E 0 80 64 00
        E 120 90 18 60
        E 0 90 24 60
        E 0 90 54 60
        E 0 90 58 60
        E 0 90 60 60
        E 0 90 64 60
        E 120 80 18 00
        E 0 80 24 00
        E 0 80 54 00
        E 0 80 58 00
        E 0 80 60 00
        E 0 80 64 00
        E 120 90 1a 60
        E 0 90 24 60
        E 0 90 3d 60
        E 0 90 49 60
        E 0 90 4c 60
        E 0 90 55 60
        E 0 90 58 60
        E 0 90 61 60
        E 0 90 64 60
        E 120 80 1a 00
        E 0 80 24 00
        E 0 80 3d 00
        E 0 80 49 00
        E 0 80 4c 00
        E 0 80 55 00
        E 0 80 58 00
        E 0 80 61 00
        E 0 80 64 00
        E 120 90 24 60
        E 0 90 58 60
        E 0 90 64 60
        E 120 80 24 00
        E 0 80 58 00
        E 0 80 64 00
        E 120 90 18 60
        E 0 90 24 60
        E 0 90 40 60
        E 0 90 48 60
        E 0 90 4c 60
        E 0 90 54 60
        E 0 90 58 60
        E 0 90 60 60
        E 0 90 64 60
        e 0 80 74 00
        E 120 80 18 00
        E 0 80 24 00
        E 0 80 40 00
        E 0 80 48 00
        E 0 80 4c 00
        E 0 80 54 00
        E 0 80 58 00
        E 0 80 60 00
        E 0 80 64 00
        e 0 90 78 60
        e 0 90 79 60
        e 0 90 7a 60
        e 0 90 7b 60
        e 0 90 7c 60
        E 120 90 1b 60
        E 0 90 55 60
        E 0 90 61 60
        E 120 80 1b 00
        E 0 80 55 00
        E 0 80 61 00
        E 0 90 1a 60
        E 0 90 61 60
        E 120 80 1a 00
        E 0 80 61 00
        E 0 90 1b 60
        E 0 90 3d 60
        E 0 90 49 60
        E 0 90 55 60
        E 0 90 61 60
        E 120 80 1b 00
        E 0 80 3d 00
        E 0 80 49 00
        E 0 80 55 00
        E 0 80 61 00
        E 0 90 1a 60
        E 0 90 61 60
        E 120 80 1a 00
        E 0 80 61 00
        E 0 90 1b 60
        E 0 90 55 60
        E 0 90 61 60
        E 120 80 1b 00
        E 0 80 55 00
        E 0 80 61 00
        E 0 90 1a 60
        E 0 90 61 60
        E 120 80 1a 00
        E 0 80 61 00
        E 0 90 1b 60
        E 0 90 3d 60
        E 0 90 49 60
        E 0 90 55 60
        E 0 90 61 60
        E 120 80 1b 00
        E 0 80 3d 00
        E 0 80 49 00
        E 0 80 55 00
        E 0 80 61 00
        E 0 90 1a 60
        E 0 90 61 60
        E 120 80 1a 00
        E 0 80 61 00
        E 0 90 1b 60
        E 0 90 55 60
        E 0 90 61 60
        E 120 80 1b 00
        E 0 80 55 00
        E 0 80 61 00
        E 0 90 1a 60
        E 0 90 61 60
        E 120 80 1a 00
        E 0 80 61 00
        E 0 90 1b 60
        E 0 90 3d 60
        E 0 90 49 60
        E 0 90 55 60
        E 0 90 61 60
        E 120 80 1b 00
        E 0 80 3d 00
        E 0 80 49 00
        E 0 80 55 00
        E 0 80 61 00
        E 0 90 1a 60
        E 0 90 61 60
        E 120 80 1a 00
        E 0 80 61 00
        E 0 90 1b 60
        E 0 90 55 60
        E 0 90 61 60
        E 120 80 1b 00
        E 0 80 55 00
        E 0 80 61 00
        E 0 90 1a 60
        E 0 90 61 60
        E 120 80 1a 00
        E 0 80 61 00
        E 0 90 1b 60
        E 0 90 3d 60
        E 0 90 49 60
        E 0 90 55 60
        E 0 90 61 60
        E 120 80 1b 00
        E 0 80 3d 00
        E 0 80 49 00
        E 0 80 55 00
        E 0 80 61 00
        E 0 90 1a 60
        E 0 90 61 60
        E 120 80 1a 00
        E 0 80 61 00
        E 0 90 1b 60
        E 0 90 55 60
        E 0 90 61 60
        E 120 80 1b 00
        E 0 80 55 00
        E 0 80 61 00
        E 0 90 1a 60
        E 0 90 61 60
        E 120 80 1a 00
        E 0 80 61 00
        E 0 90 1b 60
        E 0 90 3d 60
        E 0 90 49 60
        E 0 90 55 60
        E 0 90 61 60
        E 120 80 1b 00
        E 0 80 3d 00
        E 0 80 49 00
        E 0 80 55 00
        E 0 80 61 00
        E 0 90 1a 60
        E 0 90 61 60
        E 120 80 1a 00
        E 0 80 61 00
        E 0 90 1b 60
        E 0 90 55 60
        E 0 90 61 60
        E 120 80 1b 00
        E 0 80 55 00
        E 0 80 61 00
        E 0 90 1a 60
        E 0 90 61 60
        E 120 80 1a 00
        E 0 80 61 00
        E 0 90 1b 60
        E 0 90 3d 60
        E 0 90 49 60
        E 0 90 55 60
        E 0 90 61 60
        E 120 80 1b 00
        E 0 80 3d 00
        E 0 80 49 00
        E 0 80 55 00
        E 0 80 61 00
        E 0 90 1a 60
        E 0 90 61 60
        E 120 80 1a 00
        E 0 80 61 00
        E 0 90 1b 60
        E 0 90 55 60
        E 0 90 61 60
        E 120 80 1b 00
        E 0 80 55 00
        E 0 80 61 00
        E 0 90 1a 60
        E 0 90 61 60
        E 120 80 1a 00
        E 0 80 61 00
        E 0 90 1b 60
        E 0 90 3d 60
        E 0 90 49 60
        E 0 90 55 60
        E 0 90 61 60
        E 120 80 1b 00
        E 0 80 3d 00
        E 0 80 49 00
        E 0 80 55 00
        E 0 80 61 00
        E 0 90 1a 60
        E 0 90 61 60
        E 120 80 1a 00
        E 0 80 61 00
        E 0 90 1b 60
        E 0 90 55 60
        E 0 90 61 60
        E 120 80 1b 00
        E 0 80 55 00
        E 0 80 61 00
        E 0 90 1a 60
        E 0 90 61 60
        E 120 80 1a 00
        E 0 80 61 00
        E 0 90 18 60
        E 0 90 24 60
        E 0 90 40 60
        E 0 90 48 60
        E 0 90 4c 60
        E 0 90 54 60
        E 0 90 58 60
        E 0 90 60 60
        E 0 90 64 60
        e 0 80 78 00
        e 0 80 79 00
        e 0 80 7a 00
        e 0 80 7b 00
        e 0 80 7c 00
        E 120 80 18 00
        E 0 80 24 00
        E 0 80 40 00
        E 0 80 48 00
        E 0 80 4c 00
        E 0 80 54 00
        E 0 80 58 00
        E 0 80 60 00
        E 0 80 64 00
        E 120 90 18 60
        E 0 90 2a 60
        E 0 90 54 60
        E 0 90 57 60
        E 0 90 60 60
        E 0 90 63 60
        E 120 80 18 00
        E 0 80 2a 00
        E 0 80 54 00
        E 0 80 57 00
        E 0 80 60 00
        E 0 80 63 00
        E 120 90 18 60
        E 0 90 24 60
        E 0 90 40 60
        E 0 90 48 60
        E 0 90 4c 60
        E 0 90 54 60
        E 0 90 58 60
        E 0 90 60 60
        E 0 90 64 60
        E 120 80 18 00
        E 0 80 24 00
        E 0 80 40 00
        E 0 80 48 00
        E 0 80 4c 00
        E 0 80 54 00
        E 0 80 58 00
        E 0 80 60 00
        E 0 80 64 00
        E 120 90 1a 60
        E 0 90 55 60
        E 0 90 61 60
        E 120 80 1a 00
        E 0 80 55 00
        E 0 80 61 00
        E 120 90 24 60
        E 0 90 40 60
        E 0 90 4c 60
        E 0 90 58 60
        E 0 90 64 60
        E 120 80 24 00
        E 0 80 40 00
        E 0 80 4c 00
        E 0 80 58 00
        E 0 80 64 00
        E 120 90 18 60
        E 0 90 54 60
        E 0 90 60 60
        E 120 80 18 00
        E 0 80 54 00
        E 0 80 60 00
        E 0 90 18 60
        E 0 90 60 60
        E 120 80 18 00
        E 0 80 60 00
        E 0 90 1a 60
        E 0 90 24 60
        E 0 90 3d 60
        E 0 90 49 60
        E 0 90 4c 60
        E 0 90 55 60
        E 0 90 58 60
        E 0 90 61 60
        E 0 90 64 60
        E 120 80 1a 00
        E 0 80 24 00
        E 0 80 3d 00
        E 0 80 49 00
        E 0 80 4c 00
        E 0 80 55 00
        E 0 80 58 00
        E 0 80 61 00
        E 0 80 64 00
        E 120 90 18 60
        E 0 90 54 60
        E 0 90 60 60
        E 120 80 18 00
        E 0 80 54 00
        E 0 80 60 00
        E 0 90 18 60
        E 0 90 60 60
        E 120 80 18 00
        E 0 80 60 00
        E 0 90 1a 60
        E 0 90 24 60
        E 0 90 3d 60
        E 0 90 49 60
        E 0 90 4c 60
        E 0 90 55 60
        E 0 90 58 60
        E 0 90 61 60
        E 0 90 64 60
        E 120 80 1a 00
        E 0 80 24 00
        E 0 80 3d 00
        E 0 80 49 00
        E 0 80 4c 00
        E 0 80 55 00
        E 0 80 58 00
        E 0 80 61 00
        E 0 80 64 00
        E 120 90 18 60
        E 0 90 54 60
        E 0 90 60 60
        E 120 80 18 00
        E 0 80 54 00
        E 0 80 60 00
        E 120 90 1a 60
        E 0 90 24 60
        E 0 90 3d 60
        E 0 90 49 60
        E 0 90 4c 60
        E 0 90 55 60
        E 0 90 58 60
        E 0 90 61 60
        E 0 90 64 60
        E 120 80 1a 00
        E 0 80 24 00
        E 0 80 3d 00
        E 0 80 49 00
        E 0 80 4c 00
        E 0 80 55 00
        E 0 80 58 00
        E 0 80 61 00
        E 0 80 64 00
        E 360 90 18 60
        E 0 90 24 60
        E 0 90 40 60
        E 0 90 48 60
        E 0 90 4c 60
        E 0 90 54 60
        E 0 90 58 60
        E 0 90 60 60
        E 0 90 64 60
        E 120 80 18 00
        E 0 80 24 00
        E 0 80 40 00
        E 0 80 48 00
        E 0 80 4c 00
        E 0 80 54 00
        E 0 80 58 00
        E 0 80 60 00
        E 0 80 64 00
        E 120 90 18 60
        E 0 90 2a 60
        E 0 90 54 60
        E 0 90 57 60
        E 0 90 60 60
        E 0 90 63 60
        E 120 80 18 00
        E 0 80 2a 00
        E 0 80 54 00
        E 0 80 57 00
        E 0 80 60 00
        E 0 80 63 00
        E 120 90 18 60
        E 0 90 24 60
        E 0 90 40 60
        E 0 90 48 60
        E 0 90 4c 60
        E 0 90 54 60
        E 0 90 58 60
        E 0 90 60 60
        E 0 90 64 60
        E 120 80 18 00
        E 0 80 24 00
        E 0 80 40 00
        E 0 80 48 00
        E 0 80 4c 00
        E 0 80 54 00
        E 0 80 58 00
        E 0 80 60 00
        E 0 80 64 00
        E 120 90 1a 60
        E 0 90 55 60
        E 0 90 61 60
        E 120 80 1a 00
        E 0 80 55 00
        E 0 80 61 00
        E 120 90 24 60
        E 0 90 40 60
        E 0 90 4c 60
        E 0 90 58 60
        E 0 90 64 60
        E 120 80 24 00
        E 0 80 40 00
        E 0 80 4c 00
        E 0 80 58 00
        E 0 80 64 00
        E 120 90 18 60
        E 0 90 54 60
        E 0 90 60 60
        E 120 80 18 00
        E 0 80 54 00
        E 0 80 60 00
        E 120 90 18 60
        E 0 90 24 60
        E 0 90 40 60
        E 0 90 48 60
        E 0 90 4c 60
        E 0 90 54 60
        E 0 90 58 60
        E 0 90 60 60
        E 0 90 64 60
        E 120 80 18 00
        E 0 80 24 00
        E 0 80 40 00
        E 0 80 48 00
        E 0 80 4c 00
        E 0 80 54 00
        E 0 80 58 00
        E 0 80 60 00
        E 0 80 64 00
        E 120 90 1a 60
        E 0 90 55 60
        E 0 90 61 60
        E 120 80 1a 00
        E 0 80 55 00
        E 0 80 61 00
        E 120 90 18 60
        E 0 90 24 60
        E 0 90 40 60
        E 0 90 48 60
        E 0 90 4c 60
        E 0 90 54 60
        E 0 90 58 60
        E 0 90 60 60
        E 0 90 64 60
        E 120 80 18 00
        E 0 80 24 00
        E 0 80 40 00
        E 0 80 48 00
        E 0 80 4c 00
        E 0 80 54 00
        E 0 80 58 00
        E 0 80 60 00
        E 0 80 64 00
        E 120 90 18 60
        E 0 90 54 60
        E 0 90 60 60
        E 120 80 18 00
        E 0 80 54 00
        E 0 80 60 00
        E 120 90 1a 60
        E 0 90 24 60
        E 0 90 3d 60
        E 0 90 49 60
        E 0 90 4c 60
        E 0 90 55 60
        E 0 90 58 60
        E 0 90 61 60
        E 0 90 64 60
        E 120 80 1a 00
        E 0 80 24 00
        E 0 80 3d 00
        E 0 80 49 00
        E 0 80 4c 00
        E 0 80 55 00
        E 0 80 58 00
        E 0 80 61 00
        E 0 80 64 00
        E 120 90 18 60
        E 0 90 54 60
        E 0 90 60 60
        E 120 80 18 00
        E 0 80 54 00
        E 0 80 60 00
        E 120 90 18 60
        E 0 90 24 60
        E 0 90 40 60
        E 0 90 48 60
        E 0 90 4c 60
        E 0 90 54 60
        E 0 90 58 60
        E 0 90 60 60
        E 0 90 64 60
        E 120 80 18 00
        E 0 80 24 00
        E 0 80 40 00
        E 0 80 48 00
        E 0 80 4c 00
        E 0 80 54 00
        E 0 80 58 00
        E 0 80 60 00
        E 0 80 64 00
        E 120 90 1a 60
        E 0 90 55 60
        E 0 90 61 60
        E 120 80 1a 00
        E 0 80 55 00
        E 0 80 61 00
        E 120 90 18 60
        E 0 90 24 60
        E 0 90 40 60
        E 0 90 48 60
        E 0 90 4c 60
        E 0 90 54 60
        E 0 90 58 60
        E 0 90 60 60
        E 0 90 64 60
        E 120 80 18 00
        E 0 80 24 00
        E 0 80 40 00
        E 0 80 48 00
        E 0 80 4c 00
        E 0 80 54 00
        E 0 80 58 00
        E 0 80 60 00
        E 0 80 64 00
        E 120 90 18 60
        E 0 90 54 60
        E 0 90 60 60
        E 120 80 18 00
        E 0 80 54 00
        E 0 80 60 00
        E 120 90 24 60
        E 0 90 40 60
        E 0 90 4c 60
        E 0 90 58 60
        E 0 90 64 60
        E 120 80 24 00
        E 0 80 40 00
        E 0 80 4c 00
        E 0 80 58 00
        E 0 80 64 00
        E 120 90 18 60
        E 0 90 54 60
        E 0 90 60 60
        E 120 80 18 00
        E 0 80 54 00
        E 0 80 60 00
        E 120 90 1a 60
        E 0 90 24 60
        E 0 90 3d 60
        E 0 90 49 60
        E 0 90 4c 60
        E 0 90 55 60
        E 0 90 58 60
        E 0 90 61 60
        E 0 90 64 60
        E 120 80 1a 00
        E 0 80 24 00
        E 0 80 3d 00
        E 0 80 49 00
        E 0 80 4c 00
        E 0 80 55 00
        E 0 80 58 00
        E 0 80 61 00
        E 0 80 64 00
        E 120 90 18 60
        E 0 90 54 60
        E 0 90 60 60
        E 120 80 18 00
        E 0 80 54 00
        E 0 80 60 00
        E 120 90 1a 60
        E 0 90 24 60
        E 0 90 3d 60
        E 0 90 49 60
        E 0 90 4c 60
        E 0 90 55 60
        E 0 90 58 60
        E 0 90 61 60
        E 0 90 64 60
        E 120 80 1a 00
        E 0 80 24 00
        E 0 80 3d 00
        E 0 80 49 00
        E 0 80 4c 00
        E 0 80 55 00
        E 0 80 58 00
        E 0 80 61 00
        E 0 80 64 00
        E 240 90 1a 60
        E 0 90 61 60
        E 120 80 1a 00
        E 0 80 61 00
        E 0 90 1b 60
        E 0 90 3d 60
        E 0 90 49 60
        E 0 90 55 60
        E 0 90 61 60
        E 120 80 1b 00
        E 0 80 3d 00
        E 0 80 49 00
        E 0 80 55 00
        E 0 80 61 00
        E 240 90 1a 60
        E 0 90 61 60
        E 120 80 1a 00
        E 0 80 61 00
        E 0 90 18 60
        E 0 90 24 60
        E 0 90 40 60
        E 0 90 48 60
        E 0 90 4c 60
        E 0 90 54 60
        E 0 90 58 60
        E 0 90 60 60
        E 0 90 64 60
        E 120 80 18 00
        E 0 80 24 00
        E 0 80 40 00
        E 0 80 48 00
        E 0 80 4c 00
        E 0 80 54 00
        E 0 80 58 00
        E 0 80 60 00
        E 0 80 64 00
        E 120 90 18 60
        E 0 90 54 60
        E 0 90 60 60
        E 120 80 18 00
        E 0 80 54 00
        E 0 80 60 00
        E 120 90 18 60
        E 0 90 24 60
        E 0 90 40 60
        E 0 90 48 60
        E 0 90 4c 60
        E 0 90 54 60
        E 0 90 58 60
        E 0 90 60 60
        E 0 90 64 60
        E 120 80 18 00
        E 0 80 24 00
        E 0 80 40 00
        E 0 80 48 00
        E 0 80 4c 00
        E 0 80 54 00
        E 0 80 58 00
        E 0 80 60 00
        E 0 80 64 00
        E 120 90 1a 60
        E 0 90 55 60
        E 0 90 61 60
        E 120 80 1a 00
        E 0 80 55 00
        E 0 80 61 00
        E 120 90 24 60
        E 0 90 40 60
        E 0 90 4c 60
        E 0 90 58 60
        E 0 90 64 60
        E 120 80 24 00
        E 0 80 40 00
        E 0 80 4c 00
        E 0 80 58 00
        E 0 80 64 00
        E 120 90 18 60
        E 0 90 54 60
        E 0 90 60 60
        E 120 80 18 00
        E 0 80 54 00
        E 0 80 60 00
        E 120 90 1a 60
        E 0 90 24 60
        E 0 90 3d 60
        E 0 90 49 60
        E 0 90 4c 60
        E 0 90 55 60
        E 0 90 58 60
        E 0 90 61 60
        E 0 90 64 60
        E 120 80 1a 00
        E 0 80 24 00
        E 0 80 3d 00
        E 0 80 49 00
        E 0 80 4c 00
        E 0 80 55 00
        E 0 80 58 00
        E 0 80 61 00
        E 0 80 64 00
        E 120 90 1b 60
        E 0 90 55 60
        E 0 90 61 60
        E 120 80 1b 00
        E 0 80 55 00
        E 0 80 61 00
        E 0 90 1a 60
        E 0 90 61 60
        E 120 80 1a 00
        E 0 80 61 00
        E 0 90 1b 60
        E 0 90 3d 60
        E 0 90 49 60
        E 0 90 55 60
        E 0 90 61 60
        E 120 80 1b 00
        E 0 80 3d 00
        E 0 80 49 00
        E 0 80 55 00
        E 0 80 61 00
        E 120 90 1a 60
        E 0 90 55 60
        E 0 90 61 60
        E 120 80 1a 00
        E 0 80 55 00
        E 0 80 61 00
        E 120 90 1a 60
        E 0 90 3d 60
        E 0 90 49 60
        E 0 90 55 60
        E 0 90 61 60
        E 120 80 1a 00
        E 0 80 3d 00
        E 0 80 49 00
        E 0 80 55 00
        E 0 80 61 00
        E 120 90 18 60
        E 0 90 54 60
        E 0 90 60 60
        E 120 80 18 00
        E 0 80 54 00
        E 0 80 60 00
        E 120 90 18 60
        E 0 90 24 60
        E 0 90 40 60
        E 0 90 48 60
        E 0 90 4c 60
        E 0 90 54 60
        E 0 90 58 60
        E 0 90 60 60
        E 0 90 64 60
        E 120 80 18 00
        E 0 80 24 00
        E 0 80 40 00
        E 0 80 48 00
        E 0 80 4c 00
        E 0 80 54 00
        E 0 80 58 00
        E 0 80 60 00
        E 0 80 64 00
        E 120 90 18 60
        E 0 90 54 60
        E 0 90 60 60
        E 120 80 18 00
        E 0 80 54 00
        E 0 80 60 00
        E 120 90 18 60
        E 0 90 2f 60
        E 0 90 3e 60
        E 0 90 4a 60
        E 0 90 54 60
        E 0 90 56 60
        E 0 90 60 60
        E 0 90 62 60
        E 0 90 6e 60
        E 120 80 18 00
        E 0 80 2f 00
        E 0 80 3e 00
        E 0 80 4a 00
        E 0 80 54 00
        E 0 80 56 00
        E 0 80 60 00
        E 0 80 62 00
        E 0 80 6e 00
        E 120 90 31 60
        E 0 90 57 60
        E 0 90 63 60
        E 0 90 6f 60
        E 120 80 31 00
        E 0 80 57 00
        E 0 80 63 00
        E 0 80 6f 00
        E 120 90 2e 60
        E 0 90 31 60
        E 0 90 3e 60
        E 0 90 3f 60
        E 0 90 4a 60
        E 0 90 4b 60
        E 0 90 56 60
        E 0 90 57 60
        E 0 90 62 60
        E 0 90 63 60
        E 0 90 6e 60
        E 0 90 6f 60
        E 120 80 2e 00
        E 0 80 31 00
        E 0 80 3e 00
        E 0 80 3f 00
        E 0 80 4a 00
        E 0 80 4b 00
        E 0 80 56 00
        E 0 80 57 00
        E 0 80 62 00
        E 0 80 63 00
        E 0 80 6e 00
        E 0 80 6f 00
        E 120 90 18 60
        E 0 90 54 60
        E 0 90 60 60
        E 120 80 18 00
        E 0 80 54 00
        E 0 80 60 00
        E 0 90 18 60
        E 0 90 60 60
        E 120 80 18 00
        E 0 80 60 00
        E 0 90 1a 60
        E 0 90 31 60
        E 0 90 3d 60
        E 0 90 49 60
        E 0 90 4b 60
        E 0 90 55 60
        E 0 90 57 60
        E 0 90 61 60
        E 0 90 63 60
        E 0 90 6f 60
        E 120 80 1a 00
        E 0 80 31 00
        E 0 80 3d 00
        E 0 80 49 00
        E 0 80 4b 00
        E 0 80 55 00
        E 0 80 57 00
        E 0 80 61 00
        E 0 80 63 00
        E 0 80 6f 00
        E 120 90 18 60
        E 0 90 54 60
        E 0 90 60 60
        E 120 80 18 00
        E 0 80 54 00
        E 0 80 60 00
        E 0 90 18 60
        E 0 90 60 60
        E 120 80 18 00
        E 0 80 60 00
        E 0 90 2e 60
        E 0 90 31 60
        E 0 90 3e 60
        E 0 90 3f 60
        E 0 90 4a 60
        E 0 90 4b 60
        E 0 90 56 60
        E 0 90 57 60
        E 0 90 62 60
        E 0 90 63 60
        E 0 90 6e 60
        E 0 90 6f 60
        E 120 80 2e 00
        E 0 80 31 00
        E 0 80 3e 00
        E 0 80 3f 00
        E 0 80 4a 00
        E 0 80 4b 00
        E 0 80 56 00
        E 0 80 57 00
        E 0 80 62 00
        E 0 80 63 00
        E 0 80 6e 00
        E 0 80 6f 00
        E 120 90 18 60
        E 0 90 54 60
        E 0 90 60 60
        E 120 80 18 00
        E 0 80 54 00
        E 0 80 60 00
        E 120 90 1a 60
        E 0 90 3d 60
        E 0 90 49 60
        E 0 90 55 60
        E 0 90 61 60
        E 120 80 1a 00
        E 0 80 3d 00
        E 0 80 49 00
        E 0 80 55 00
        E 0 80 61 00
        E 120 90 18 60
        E 0 90 54 60
        E 0 90 60 60
        E 120 80 18 00
        E 0 80 54 00
        E 0 80 60 00
        E 120 90 1a 60
        E 0 90 31 60
        E 0 90 3d 60
        E 0 90 49 60
        E 0 90 4b 60
        E 0 90 55 60
        E 0 90 57 60
        E 0 90 61 60
        E 0 90 63 60
        E 0 90 6f 60
        E 120 80 1a 00
        E 0 80 31 00
        E 0 80 3d 00
        E 0 80 49 00
        E 0 80 4b 00
        E 0 80 55 00
        E 0 80 57 00
        E 0 80 61 00
        E 0 80 63 00
        E 0 80 6f 00
        E 120 90 18 60
        E 0 90 54 60
        E 0 90 60 60
        E 120 80 18 00
        E 0 80 54 00
        E 0 80 60 00
        E 120 90 18 60
        E 0 90 2e 60
        E 0 90 31 60
        E 0 90 3e 60
        E 0 90 3f 60
        E 0 90 4a 60
        E 0 90 4b 60
        E 0 90 54 60
        E 0 90 56 60
        E 0 90 57 60
        E 0 90 60 60
        E 0 90 62 60
        E 0 90 63 60
        E 0 90 6e 60
        E 0 90 6f 60
        E 120 80 18 00
        E 0 80 2e 00
        E 0 80 31 00
        E 0 80 3e 00
        E 0 80 3f 00
        E 0 80 4a 00
        E 0 80 4b 00
        E 0 80 54 00
        E 0 80 56 00
        E 0 80 57 00
        E 0 80 60 00
        E 0 80 62 00
        E 0 80 63 00
        E 0 80 6e 00
        E 0 80 6f 00
        E 120 90 18 60
        E 0 90 54 60
        E 0 90 60 60
        E 120 80 18 00
        E 0 80 54 00
        E 0 80 60 00
        E 120 90 2e 60
        E 0 90 31 60
        E 0 90 3e 60
        E 0 90 3f 60
        E 0 90 4a 60
        E 0 90 4b 60
        E 0 90 56 60
        E 0 90 57 60
        E 0 90 62 60
        E 0 90 63 60
        E 0 90 6e 60
        E 0 90 6f 60
        E 120 80 2e 00
        E 0 80 31 00
        E 0 80 3e 00
        E 0 80 3f 00
        E 0 80 4a 00
        E 0 80 4b 00
        E 0 80 56 00
        E 0 80 57 00
        E 0 80 62 00
        E 0 80 63 00
        E 0 80 6e 00
        E 0 80 6f 00
        E 120 90 18 60
        E 0 90 54 60
        E 0 90 60 60
        E 120 80 18 00
        E 0 80 54 00
        E 0 80 60 00
        E 120 90 1a 60
        E 0 90 1b 60
        E 0 90 3d 60
        E 0 90 49 60
        E 0 90 4a 60
        E 0 90 55 60
        E 0 90 56 60
        E 0 90 61 60
        E 0 90 62 60
        E 0 90 6e 60
        E 120 80 1a 00
        E 0 80 1b 00
        E 0 80 3d 00
        E 0 80 49 00
        E 0 80 4a 00
        E 0 80 55 00
        E 0 80 56 00
        E 0 80 61 00
        E 0 80 62 00
        E 0 80 6e 00
        E 120 90 18 60
        E 0 90 54 60
        E 0 90 60 60
        E 120 80 18 00
        E 0 80 54 00
        E 0 80 60 00
        E 120 90 1b 60
        E 0 90 3d 60
        E 0 90 49 60
        E 0 90 55 60
        E 0 90 61 60
        E 120 80 1b 00
        E 0 80 3d 00
        E 0 80 49 00
        E 0 80 55 00
        E 0 80 61 00
        E 0 90 1a 60
        E 0 90 61 60
        E 120 80 1a 00
        E 0 80 61 00
        E 0 90 1b 60
        E 0 90 55 60
        E 0 90 61 60
        E 120 80 1b 00
        E 0 80 55 00
        E 0 80 61 00
        E 120 90 1b 60
        E 0 90 3d 60
        E 0 90 49 60
        E 0 90 55 60
        E 0 90 61 60
        E 120 80 1b 00
        E 0 80 3d 00
        E 0 80 49 00
        E 0 80 55 00
        E 0 80 61 00
        E 0 90 1a 60
        E 0 90 61 60
        E 120 80 1a 00
        E 0 80 61 00
        E 0 90 1b 60
        E 0 90 55 60
        E 0 90 61 60
        E 120 80 1b 00
        E 0 80 55 00
        E 0 80 61 00
        E 0 90 1a 60
        E 0 90 61 60
        E 120 80 1a 00
        E 0 80 61 00
        E 0 90 18 60
        E 0 90 24 60
        E 0 90 40 60
        E 0 90 48 60
        E 0 90 4c 60
        E 0 90 54 60
        E 0 90 58 60
        E 0 90 60 60
        E 0 90 64 60
        E 120 80 18 00
        E 0 80 24 00
        E 0 80 40 00
        E 0 80 48 00
        E 0 80 4c 00
        E 0 80 54 00
        E 0 80 58 00
        E 0 80 60 00
        E 0 80 64 00
        E 120 90 18 60
        E 0 90 54 60
        E 0 90 60 60
        E 120 80 18 00
        E 0 80 54 00
        E 0 80 60 00
        E 120 90 18 60
        E 0 90 24 60
        E 0 90 40 60
        E 0 90 48 60
        E 0 90 4c 60
        E 0 90 54 60
        E 0 90 58 60
        E 0 90 60 60
        E 0 90 64 60
        E 120 80 18 00
        E 0 80 24 00
        E 0 80 40 00
        E 0 80 48 00
        E 0 80 4c 00
        E 0 80 54 00
        E 0 80 58 00
        E 0 80 60 00
        E 0 80 64 00
        E 120 90 1a 60
        E 0 90 55 60
        E 0 90 61 60
        E 120 80 1a 00
        E 0 80 55 00
        E 0 80 61 00
        E 120 90 24 60
        E 0 90 40 60
        E 0 90 4c 60
        E 0 90 58 60
        E 0 90 64 60
        E 120 80 24 00
        E 0 80 40 00
        E 0 80 4c 00
        E 0 80 58 00
        E 0 80 64 00
        E 120 90 18 60
        E 0 90 54 60
        E 0 90 60 60
        E 120 80 18 00
        E 0 80 54 00
        E 0 80 60 00
        E 120 90 1a 60
        E 0 90 24 60
        E 0 90 3d 60
        E 0 90 49 60
        E 0 90 4c 60
        E 0 90 55 60
        E 0 90 58 60
        E 0 90 61 60
        E 0 90 64 60
        E 120 80 1a 00
        E 0 80 24 00
        E 0 80 3d 00
        E 0 80 49 00
        E 0 80 4c 00
        E 0 80 55 00
        E 0 80 58 00
        E 0 80 61 00
        E 0 80 64 00
        E 120 90 2f 60
        E 0 90 56 60
        E 0 90 62 60
        E 0 90 6e 60
        E 120 80 2f 00
        E 0 80 56 00
        E 0 80 62 00
        E 0 80 6e 00
        E 0 90 2e 60
        E 0 90 62 60
        E 0 90 6e 60
        E 120 80 2e 00
        E 0 80 62 00
        E 0 80 6e 00
        E 0 90 2f 60
        E 0 90 3e 60
        E 0 90 4a 60
        E 0 90 56 60
        E 0 90 62 60
        E 0 90 6e 60
        E 120 80 2f 00
        E 0 80 3e 00
        E 0 80 4a 00
        E 0 80 56 00
        E 0 80 62 00
        E 0 80 6e 00
        E 120 90 2f 60
        E 0 90 56 60
        E 0 90 62 60
        E 0 90 6e 60
        E 120 80 2f 00
        E 0 80 56 00
        E 0 80 62 00
        E 0 80 6e 00
        E 0 90 2e 60
        E 0 90 62 60
        E 0 90 6e 60
        E 120 80 2e 00
        E 0 80 62 00
        E 0 80 6e 00
        E 0 90 2f 60
        E 0 90 3e 60
        E 0 90 4a 60
        E 0 90 56 60
        E 0 90 62 60
        E 0 90 6e 60
        E 120 80 2f 00
        E 0 80 3e 00
        E 0 80 4a 00
        E 0 80 56 00
        E 0 80 62 00
        E 0 80 6e 00
        E 0 90 2e 60
        E 0 90 62 60
        E 0 90 6e 60
        E 120 80 2e 00
        E 0 80 62 00
        E 0 80 6e 00
        E 0 90 2f 60
        E 0 90 56 60
        E 0 90 62 60
        E 0 90 6e 60
        E 120 80 2f 00
        E 0 80 56 00
        E 0 80 62 00
        E 0 80 6e 00
        E 0 90 2e 60
        E 0 90 62 60
        E 0 90 6e 60
        E 120 80 2e 00
        E 0 80 62 00
        E 0 80 6e 00
        E 0 90 18 60
        E 0 90 24 60
        E 0 90 40 60
        E 0 90 48 60
        E 0 90 4c 60
        E 0 90 54 60
        E 0 90 58 60
        E 0 90 60 60
        E 0 90 64 60
        E 120 80 18 00
        E 0 80 24 00
        E 0 80 40 00
        E 0 80 48 00
        E 0 80 4c 00
        E 0 80 54 00
        E 0 80 58 00
        E 0 80 60 00
        E 0 80 64 00
        E 120 90 18 60
        E 0 90 54 60
        E 0 90 60 60
        E 120 80 18 00
        E 0 80 54 00
        E 0 80 60 00
        E 120 90 18 60
        E 0 90 24 60
        E 0 90 40 60
        E 0 90 48 60
        E 0 90 4c 60
        E 0 90 54 60
        E 0 90 58 60
        E 0 90 60 60
        E 0 90 64 60
        E 120 80 18 00
        E 0 80 24 00
        E 0 80 40 00
        E 0 80 48 00
        E 0 80 4c 00
        E 0 80 54 00
        E 0 80 58 00
        E 0 80 60 00
        E 0 80 64 00
        E 120 90 1a 60
        E 0 90 55 60
        E 0 90 61 60
        E 120 80 1a 00
        E 0 80 55 00
        E 0 80 61 00
        E 120 90 24 60
        E 0 90 40 60
        E 0 90 4c 60
        E 0 90 58 60
        E 0 90 64 60
        E 120 80 24 00
        E 0 80 40 00
        E 0 80 4c 00
        E 0 80 58 00
        E 0 80 64 00
        E 120 90 18 60
        E 0 90 54 60
        E 0 90 60 60
        E 120 80 18 00
        E 0 80 54 00
        E 0 80 60 00
        E 120 90 18 60
        E 0 90 24 60
        E 0 90 40 60
        E 0 90 48 60
        E 0 90 4c 60
        E 0 90 54 60
        E 0 90 58 60
        E 0 90 60 60
        E 0 90 64 60
        E 120 80 18 00
        E 0 80 24 00
        E 0 80 40 00
        E 0 80 48 00
        E 0 80 4c 00
        E 0 80 54 00
        E 0 80 58 00
        E 0 80 60 00
        E 0 80 64 00
        E 360 90 2f 60
        E 0 90 3e 60
        E 0 90 4a 60
        E 0 90 56 60
        E 0 90 62 60
        E 0 90 6e 60
        E 80 80 2f 00
        E 0 80 3e 00
        E 0 80 4a 00
        E 0 80 56 00
        E 0 80 62 00
        E 0 80 6e 00
        E 240 90 1a 60
        E 0 90 61 60
        E 80 80 1a 00
        E 0 80 61 00
        E 80 90 2f 60
        E 0 90 3e 60
        E 0 90 4a 60
        E 0 90 56 60
        E 0 90 62 60
        E 0 90 6e 60
        E 80 80 2f 00
        E 0 80 3e 00
        E 0 80 4a 00
        E 0 80 56 00
        E 0 80 62 00
        E 0 80 6e 00
        E 80 90 1a 60
        E 0 90 61 60
        E 80 80 1a 00
        E 0 80 61 00
        E 80 90 1b 60
        E 0 90 61 60
        E 80 80 1b 00
        E 0 80 61 00
        E 80 90 18 60
        E 0 90 22 60
        E 0 90 40 60
        E 0 90 48 60
        E 0 90 4c 60
        E 0 90 54 60
        E 0 90 58 60
        E 0 90 60 60
        E 0 90 64 60
        E 120 80 18 00
        E 0 80 22 00
        E 0 80 40 00
        E 0 80 48 00
        E 0 80 4c 00
        E 0 80 54 00
        E 0 80 58 00
        E 0 80 60 00
        E 0 80 64 00
        E 120 90 18 60
        E 0 90 54 60
        E 0 90 60 60
        E 120 80 18 00
        E 0 80 54 00
        E 0 80 60 00
        E 120 90 18 60
        E 0 90 2e 60
        E 0 90 31 60
        E 0 90 3e 60
        E 0 90 3f 60
        E 0 90 4a 60
        E 0 90 4b 60
        E 0 90 54 60
        E 0 90 56 60
        E 0 90 57 60
        E 0 90 60 60
        E 0 90 62 60
        E 0 90 63 60
        E 0 90 6e 60
        E 0 90 6f 60
        E 120 80 18 00
        E 0 80 2e 00
        E 0 80 31 00
        E 0 80 3e 00
        E 0 80 3f 00
        E 0 80 4a 00
        E 0 80 4b 00
        E 0 80 54 00
        E 0 80 56 00
        E 0 80 57 00
        E 0 80 60 00
        E 0 80 62 00
        E 0 80 63 00
        E 0 80 6e 00
        E 0 80 6f 00
        E 120 90 1a 60
        E 0 90 55 60
        E 0 90 61 60
        E 120 80 1a 00
        E 0 80 55 00
        E 0 80 61 00
        E 120 90 18 60
        E 0 90 2e 60
        E 0 90 31 60
        E 0 90 3e 60
        E 0 90 3f 60
        E 0 90 4a 60
        E 0 90 4b 60
        E 0 90 54 60
        E 0 90 56 60
        E 0 90 57 60
        E 0 90 60 60
        E 0 90 62 60
        E 0 90 63 60
        E 0 90 6e 60
        E 0 90 6f 60
        E 120 80 18 00
        E 0 80 2e 00
        E 0 80 31 00
        E 0 80 3e 00
        E 0 80 3f 00
        E 0 80 4a 00
        E 0 80 4b 00
        E 0 80 54 00
        E 0 80 56 00
        E 0 80 57 00
        E 0 80 60 00
        E 0 80 62 00
        E 0 80 63 00
        E 0 80 6e 00
        E 0 80 6f 00
        E 120 90 18 60
        E 0 90 54 60
        E 0 90 60 60
        E 120 80 18 00
        E 0 80 54 00
        E 0 80 60 00
        E 120 90 1a 60
        E 0 90 3d 60
        E 0 90 49 60
        E 0 90 55 60
        E 0 90 61 60
        E 120 80 1a 00
        E 0 80 3d 00
        E 0 80 49 00
        E 0 80 55 00
        E 0 80 61 00
        E 120 90 18 60
        E 0 90 54 60
        E 0 90 60 60
        E 120 80 18 00
        E 0 80 54 00
        E 0 80 60 00
        E 0 90 18 60
        E 0 90 60 60
        E 120 80 18 00
        E 0 80 60 00
        E 0 90 1a 60
        E 0 90 31 60
        E 0 90 3d 60
        E 0 90 49 60
        E 0 90 4b 60
        E 0 90 55 60
        E 0 90 57 60
        E 0 90 61 60
        E 0 90 63 60
        E 0 90 6f 60
        E 120 80 1a 00
        E 0 80 31 00
        E 0 80 3d 00
        E 0 80 49 00
        E 0 80 4b 00
        E 0 80 55 00
        E 0 80 57 00
        E 0 80 61 00
        E 0 80 63 00
        E 0 80 6f 00
        E 120 90 18 60
        E 0 90 54 60
        E 0 90 60 60
        E 120 80 18 00
        E 0 80 54 00
        E 0 80 60 00
        E 120 90 1a 60
        E 0 90 31 60
        E 0 90 3d 60
        E 0 90 49 60
        E 0 90 4b 60
        E 0 90 55 60
        E 0 90 57 60
        E 0 90 61 60
        E 0 90 63 60
        E 0 90 6f 60
        E 120 80 1a 00
        E 0 80 31 00
        E 0 80 3d 00
        E 0 80 49 00
        E 0 80 4b 00
        E 0 80 55 00
        E 0 80 57 00
        E 0 80 61 00
        E 0 80 63 00
        E 0 80 6f 00
        E 120 90 18 60
        E 0 90 54 60
        E 0 90 60 60
        E 120 80 18 00
        E 0 80 54 00
        E 0 80 60 00
        E 120 90 1a 60
        E 0 90 1b 60
        E 0 90 3d 60
        E 0 90 49 60
        E 0 90 4a 60
        E 0 90 55 60
        E 0 90 56 60
        E 0 90 61 60
        E 0 90 62 60
        E 0 90 6e 60
        E 120 80 1a 00
        E 0 80 1b 00
        E 0 80 3d 00
        E 0 80 49 00
        E 0 80 4a 00
        E 0 80 55 00
        E 0 80 56 00
        E 0 80 61 00
        E 0 80 62 00
        E 0 80 6e 00
        E 120 90 18 60
        E 0 90 54 60
        E 0 90 60 60
        E 120 80 18 00
        E 0 80 54 00
        E 0 80 60 00
        E 120 90 2e 60
        E 0 90 31 60
        E 0 90 3e 60
        E 0 90 3f 60
        E 0 90 4a 60
        E 0 90 4b 60
        E 0 90 56 60
        E 0 90 57 60
        E 0 90 62 60
        E 0 90 63 60
        E 0 90 6e 60
        E 0 90 6f 60
        E 120 80 2e 00
        E 0 80 31 00
        E 0 80 3e 00
        E 0 80 3f 00
        E 0 80 4a 00
        E 0 80 4b 00
        E 0 80 56 00
        E 0 80 57 00
        E 0 80 62 00
        E 0 80 63 00
        E 0 80 6e 00
        E 0 80 6f 00
        E 120 90 1a 60
        E 0 90 55 60
        E 0 90 61 60
        E 120 80 1a 00
        E 0 80 55 00
        E 0 80 61 00
        E 120 90 2f 60
        E 0 90 3e 60
        E 0 90 4a 60
        E 0 90 56 60
        E 0 90 62 60
        E 0 90 6e 60
        E 120 80 2f 00
        E 0 80 3e 00
        E 0 80 4a 00
        E 0 80 56 00
        E 0 80 62 00
        E 0 80 6e 00
        E 120 90 18 60
        E 0 90 54 60
        E 0 90 60 60
        E 120 80 18 00
        E 0 80 54 00
        E 0 80 60 00
        E 120 90 1a 60
        E 0 90 2a 60
        E 0 90 3d 60
        E 0 90 49 60
        E 0 90 4b 60
        E 0 90 55 60
        E 0 90 57 60
        E 0 90 61 60
        E 0 90 63 60
        E 120 80 1a 00
        E 0 80 2a 00
        E 0 80 3d 00
        E 0 80 49 00
        E 0 80 4b 00
        E 0 80 55 00
        E 0 80 57 00
        E 0 80 61 00
        E 0 80 63 00
        E 120 90 18 60
        E 0 90 54 60
        E 0 90 60 60
        E 120 80 18 00
        E 0 80 54 00
        E 0 80 60 00
        E 120 90 1b 60
        E 0 90 3d 60
        E 0 90 49 60
        E 0 90 55 60
        E 0 90 61 60
        E 120 80 1b 00
        E 0 80 3d 00
        E 0 80 49 00
        E 0 80 55 00
        E 0 80 61 00
        E 0 90 1a 60
        E 0 90 61 60
        E 120 80 1a 00
        E 0 80 61 00
        E 0 90 1b 60
        E 0 90 55 60
        E 0 90 61 60
        E 120 80 1b 00
        E 0 80 55 00
        E 0 80 61 00
        E 0 90 1a 60
        E 0 90 61 60
        E 120 80 1a 00
        E 0 80 61 00
        E 0 90 1b 60
        E 0 90 3d 60
        E 0 90 49 60
        E 0 90 55 60
        E 0 90 61 60
        E 120 80 1b 00
        E 0 80 3d 00
        E 0 80 49 00
        E 0 80 55 00
        E 0 80 61 00
        E 0 90 1a 60
        E 0 90 61 60
        E 120 80 1a 00
        E 0 80 61 00
        E 0 90 1b 60
        E 0 90 55 60
        E 0 90 61 60
        E 120 80 1b 00
        E 0 80 55 00
        E 0 80 61 00
        E 0 90 1a 60
        E 0 90 61 60
        E 120 80 1a 00
        E 0 80 61 00
        E 0 90 18 60
        E 0 90 24 60
        E 0 90 40 60
        E 0 90 48 60
        E 0 90 4c 60
        E 0 90 54 60
        E 0 90 58 60
        E 0 90 60 60
        E 0 90 64 60
        e 0 90 74 60
        E 120 80 18 00
        E 0 80 24 00
        E 0 80 40 00
        E 0 80 48 00
        E 0 80 4c 00
        E 0 80 54 00
        E 0 80 58 00
        E 0 80 60 00
        E 0 80 64 00
        E 120 90 1b 60
        E 0 90 55 60
        E 0 90 61 60
        E 120 80 1b 00
        E 0 80 55 00
        E 0 80 61 00
        E 0 90 1a 60
        E 0 90 61 60
        E 120 80 1a 00
        E 0 80 61 00
        E 0 90 18 60
        E 0 90 3c 60
        E 0 90 48 60
        E 0 90 54 60
        E 0 90 60 60
        E 120 80 18 00
        E 0 80 3c 00
        E 0 80 48 00
        E 0 80 54 00
        E 0 80 60 00
        E 0 90 18 60
        E 0 90 60 60
        E 120 80 18 00
        E 0 80 60 00
        E 0 90 1a 60
        E 0 90 24 60
        E 0 90 55 60
        E 0 90 58 60
        E 0 90 61 60
        E 0 90 64 60
        E 120 80 1a 00
        E 0 80 24 00
        E 0 80 55 00
        E 0 80 58 00
        E 0 80 61 00
        E 0 80 64 00
        E 360 90 18 60
        E 0 90 54 60
        E 0 90 60 60
        E 120 80 18 00
        E 0 80 54 00
        E 0 80 60 00
        E 120 90 18 60
        E 0 90 24 60
        E 0 90 40 60
        E 0 90 48 60
        E 0 90 4c 60
        E 0 90 54 60
        E 0 90 58 60
        E 0 90 60 60
        E 0 90 64 60
        E 120 80 18 00
        E 0 80 24 00
        E 0 80 40 00
        E 0 80 48 00
        E 0 80 4c 00
        E 0 80 54 00
        E 0 80 58 00
        E 0 80 60 00
        E 0 80 64 00
        E 120 90 1b 60
        E 0 90 55 60
        E 0 90 61 60
        E 120 80 1b 00
        E 0 80 55 00
        E 0 80 61 00
        E 0 90 1a 60
        E 0 90 61 60
        E 120 80 1a 00
        E 0 80 61 00
        E 0 90 1b 60
        E 0 90 3d 60
        E 0 90 49 60
        E 0 90 55 60
        E 0 90 61 60
        E 120 80 1b 00
        E 0 80 3d 00
        E 0 80 49 00
        E 0 80 55 00
        E 0 80 61 00
        E 0 90 1a 60
        E 0 90 61 60
        E 120 80 1a 00
        E 0 80 61 00
        E 0 90 2f 60
        E 0 90 56 60
        E 0 90 62 60
        E 0 90 6e 60
        E 120 80 2f 00
        E 0 80 56 00
        E 0 80 62 00
        E 0 80 6e 00
        E 0 90 2e 60
        E 0 90 62 60
        E 0 90 6e 60
        E 120 80 2e 00
        E 0 80 62 00
        E 0 80 6e 00
        E 0 90 31 60
        E 0 90 3f 60
        E 0 90 4b 60
        E 0 90 57 60
        E 0 90 63 60
        E 0 90 6f 60
        E 120 80 31 00
        E 0 80 3f 00
        E 0 80 4b 00
        E 0 80 57 00
        E 0 80 63 00
        E 0 80 6f 00
        E 120 90 1b 60
        E 0 90 55 60
        E 0 90 61 60
        E 120 80 1b 00
        E 0 80 55 00
        E 0 80 61 00
        E 0 90 1a 60
        E 0 90 61 60
        E 120 80 1a 00
        E 0 80 61 00
        E 0 90 18 60
        E 0 90 24 60
        E 0 90 40 60
        E 0 90 48 60
        E 0 90 4c 60
        E 0 90 54 60
        E 0 90 58 60
        E 0 90 60 60
        E 0 90 64 60
        E 120 80 18 00
        E 0 80 24 00
        E 0 80 40 00
        E 0 80 48 00
        E 0 80 4c 00
        E 0 80 54 00
        E 0 80 58 00
        E 0 80 60 00
        E 0 80 64 00
        E 120 90 1b 60
        E 0 90 55 60
        E 0 90 61 60
        E 120 80 1b 00
        E 0 80 55 00
        E 0 80 61 00
        E 0 90 1a 60
        E 0 90 61 60
        E 120 80 1a 00
        E 0 80 61 00
        E 0 90 18 60
        E 0 90 3c 60
        E 0 90 48 60
        E 0 90 54 60
        E 0 90 60 60
        E 120 80 18 00
        E 0 80 3c 00
        E 0 80 48 00
        E 0 80 54 00
        E 0 80 60 00
        E 0 90 18 60
        E 0 90 60 60
        E 120 80 18 00
        E 0 80 60 00
        E 0 90 1a 60
        E 0 90 24 60
        E 0 90 55 60
        E 0 90 58 60
        E 0 90 61 60
        E 0 90 64 60
        E 120 80 1a 00
        E 0 80 24 00
        E 0 80 55 00
        E 0 80 58 00
        E 0 80 61 00
        E 0 80 64 00
        E 360 90 18 60
        E 0 90 54 60
        E 0 90 60 60
        E 120 80 18 00
        E 0 80 54 00
        E 0 80 60 00
        E 120 90 18 60
        E 0 90 24 60
        E 0 90 40 60
        E 0 90 48 60
        E 0 90 4c 60
        E 0 90 54 60
        E 0 90 58 60
        E 0 90 60 60
        E 0 90 64 60
        E 120 80 18 00
        E 0 80 24 00
        E 0 80 40 00
        E 0 80 48 00
        E 0 80 4c 00
        E 0 80 54 00
        E 0 80 58 00
        E 0 80 60 00
        E 0 80 64 00
        E 120 90 1b 60
        E 0 90 55 60
        E 0 90 61 60
        E 120 80 1b 00
        E 0 80 55 00
        E 0 80 61 00
        E 0 90 1a 60
        E 0 90 61 60
        E 120 80 1a 00
        E 0 80 61 00
        E 0 90 1b 60
        E 0 90 3d 60
        E 0 90 49 60
        E 0 90 55 60
        E 0 90 61 60
        E 120 80 1b 00
        E 0 80 3d 00
        E 0 80 49 00
        E 0 80 55 00
        E 0 80 61 00
        E 0 90 1a 60
        E 0 90 61 60
        E 120 80 1a 00
        E 0 80 61 00
        E 0 90 1b 60
        E 0 90 55 60
        E 0 90 61 60
        E 120 80 1b 00
        E 0 80 55 00
        E 0 80 61 00
        E 0 90 1a 60
        E 0 90 61 60
        E 120 80 1a 00
        E 0 80 61 00
        E 0 90 1b 60
        E 0 90 3d 60
        E 0 90 49 60
        E 0 90 55 60
        E 0 90 61 60
        E 120 80 1b 00
        E 0 80 3d 00
        E 0 80 49 00
        E 0 80 55 00
        E 0 80 61 00
        E 0 90 1a 60
        E 0 90 61 60
        E 120 80 1a 00
        E 0 80 61 00
        E 0 90 1b 60
        E 0 90 55 60
        E 0 90 61 60
        E 120 80 1b 00
        E 0 80 55 00
        E 0 80 61 00
        E 0 90 1a 60
        E 0 90 61 60
        E 120 80 1a 00
        E 0 80 61 00
        E 0 90 18 60
        E 0 90 24 60
        E 0 90 40 60
        E 0 90 48 60
        E 0 90 4c 60
        E 0 90 54 60
        E 0 90 58 60
        E 0 90 60 60
        E 0 90 64 60
        e 0 80 74 00
        E 120 80 18 00
        E 0 80 24 00
        E 0 80 40 00
        E 0 80 48 00
        E 0 80 4c 00
        E 0 80 54 00
        E 0 80 58 00
        E 0 80 60 00
        E 0 80 64 00
        E 120 90 1b 60
        E 0 90 55 60
        E 0 90 61 60
        E 120 80 1b 00
        E 0 80 55 00
        E 0 80 61 00
        E 0 90 1a 60
        E 0 90 61 60
        E 120 80 1a 00
        E 0 80 61 00
        E 0 90 18 60
        E 0 90 3c 60
        E 0 90 48 60
        E 0 90 54 60
        E 0 90 60 60
        E 120 80 18 00
        E 0 80 3c 00
        E 0 80 48 00
        E 0 80 54 00
        E 0 80 60 00
        E 0 90 18 60
        E 0 90 60 60
        E 120 80 18 00
        E 0 80 60 00
        E 0 90 1a 60
        E 0 90 24 60
        E 0 90 55 60
        E 0 90 58 60
        E 0 90 61 60
        E 0 90 64 60
        E 120 80 1a 00
        E 0 80 24 00
        E 0 80 55 00
        E 0 80 58 00
        E 0 80 61 00
        E 0 80 64 00
        E 360 90 18 60
        E 0 90 54 60
        E 0 90 60 60
        E 120 80 18 00
        E 0 80 54 00
        E 0 80 60 00
        E 120 90 18 60
        E 0 90 24 60
        E 0 90 40 60
        E 0 90 48 60
        E 0 90 4c 60
        E 0 90 54 60
        E 0 90 58 60
        E 0 90 60 60
        E 0 90 64 60
        E 120 80 18 00
        E 0 80 24 00
        E 0 80 40 00
        E 0 80 48 00
        E 0 80 4c 00
        E 0 80 54 00
        E 0 80 58 00
        E 0 80 60 00
        E 0 80 64 00
        E 120 90 1b 60
        E 0 90 55 60
        E 0 90 61 60
        E 120 80 1b 00
        E 0 80 55 00
        E 0 80 61 00
        E 0 90 1a 60
        E 0 90 61 60
        E 120 80 1a 00
        E 0 80 61 00
        E 0 90 1b 60
        E 0 90 3d 60
        E 0 90 49 60
        E 0 90 55 60
        E 0 90 61 60
        E 120 80 1b 00
        E 0 80 3d 00
        E 0 80 49 00
        E 0 80 55 00
        E 0 80 61 00
        E 120 90 1b 60
        E 0 90 55 60
        E 0 90 61 60
        E 120 80 1b 00
        E 0 80 55 00
        E 0 80 61 00
        E 0 90 1a 60
        E 0 90 61 60
        E 120 80 1a 00
        E 0 80 61 00
        E 0 90 1b 60
        E 0 90 3d 60
        E 0 90 49 60
        E 0 90 55 60
        E 0 90 61 60
        E 120 80 1b 00
        E 0 80 3d 00
        E 0 80 49 00
        E 0 80 55 00
        E 0 80 61 00
        E 120 90 1b 60
        E 0 90 55 60
        E 0 90 61 60
        E 120 80 1b 00
        E 0 80 55 00
        E 0 80 61 00
        E 0 90 1a 60
        E 0 90 61 60
        E 120 80 1a 00
        E 0 80 61 00
        E 0 90 18 60
        E 0 90 24 60
        E 0 90 40 60
        E 0 90 48 60
        E 0 90 4c 60
        E 0 90 54 60
        E 0 90 58 60
        E 0 90 60 60
        E 0 90 64 60
        E 120 80 18 00
        E 0 80 24 00
        E 0 80 40 00
        E 0 80 48 00
        E 0 80 4c 00
        E 0 80 54 00
        E 0 80 58 00
        E 0 80 60 00
        E 0 80 64 00
        E 120 90 1b 60
        E 0 90 55 60
        E 0 90 61 60
        E 120 80 1b 00
        E 0 80 55 00
        E 0 80 61 00
        E 0 90 1a 60
        E 0 90 61 60
        E 120 80 1a 00
        E 0 80 61 00
        E 0 90 18 60
        E 0 90 3c 60
        E 0 90 48 60
        E 0 90 54 60
        E 0 90 60 60
        E 120 80 18 00
        E 0 80 3c 00
        E 0 80 48 00
        E 0 80 54 00
        E 0 80 60 00
        E 0 90 18 60
        E 0 90 60 60
        E 120 80 18 00
        E 0 80 60 00
        E 0 90 1a 60
        E 0 90 24 60
        E 0 90 55 60
        E 0 90 58 60
        E 0 90 61 60
        E 0 90 64 60
        E 120 80 1a 00
        E 0 80 24 00
        E 0 80 55 00
        E 0 80 58 00
        E 0 80 61 00
        E 0 80 64 00
        E 360 90 18 60
        E 0 90 54 60
        E 0 90 60 60
        E 120 80 18 00
        E 0 80 54 00
        E 0 80 60 00
        E 120 90 18 60
        E 0 90 24 60
        E 0 90 40 60
        E 0 90 48 60
        E 0 90 4c 60
        E 0 90 54 60
        E 0 90 58 60
        E 0 90 60 60
        E 0 90 64 60
        e 0 90 78 60
        e 0 90 79 60
        e 0 90 7a 60
        e 0 90 7b 60
        e 0 90 7c 60
        E 120 80 18 00
        E 0 80 24 00
        E 0 80 40 00
        E 0 80 48 00
        E 0 80 4c 00
        E 0 80 54 00
        E 0 80 58 00
        E 0 80 60 00
        E 0 80 64 00
        E 120 90 1b 60
        E 0 90 55 60
        E 0 90 61 60
        E 120 80 1b 00
        E 0 80 55 00
        E 0 80 61 00
        E 0 90 1a 60
        E 0 90 61 60
        E 120 80 1a 00
        E 0 80 61 00
        E 0 90 1b 60
        E 0 90 3d 60
        E 0 90 49 60
        E 0 90 55 60
        E 0 90 61 60
        E 120 80 1b 00
        E 0 80 3d 00
        E 0 80 49 00
        E 0 80 55 00
        E 0 80 61 00
        E 0 90 1a 60
        E 0 90 61 60
        E 120 80 1a 00
        E 0 80 61 00
        E 0 90 1b 60
        E 0 90 55 60
        E 0 90 61 60
        E 120 80 1b 00
        E 0 80 55 00
        E 0 80 61 00
        E 0 90 1a 60
        E 0 90 61 60
        E 120 80 1a 00
        E 0 80 61 00
        E 0 90 1b 60
        E 0 90 3d 60
        E 0 90 49 60
        E 0 90 55 60
        E 0 90 61 60
        E 120 80 1b 00
        E 0 80 3d 00
        E 0 80 49 00
        E 0 80 55 00
        E 0 80 61 00
        E 0 90 1a 60
        E 0 90 61 60
        E 120 80 1a 00
        E 0 80 61 00
        E 0 90 1b 60
        E 0 90 55 60
        E 0 90 61 60
        E 120 80 1b 00
        E 0 80 55 00
        E 0 80 61 00
        E 0 90 1a 60
        E 0 90 61 60
        E 120 80 1a 00
        E 0 80 61 00
        E 0 90 18 60
        E 0 90 24 60
        E 0 90 40 60
        E 0 90 48 60
        E 0 90 4c 60
        E 0 90 54 60
        E 0 90 58 60
        E 0 90 60 60
        E 0 90 64 60
        e 0 80 78 00
        e 0 80 79 00
        e 0 80 7a 00
        e 0 80 7b 00
        e 0 80 7c 00
        E 120 80 18 00
        E 0 80 24 00
        E 0 80 40 00
        E 0 80 48 00
        E 0 80 4c 00
        E 0 80 54 00
        E 0 80 58 00
        E 0 80 60 00
        E 0 80 64 00
        E 120 90 1b 60
        E 0 90 55 60
        E 0 90 61 60
        E 120 80 1b 00
        E 0 80 55 00
        E 0 80 61 00
        E 0 90 1a 60
        E 0 90 61 60
        E 120 80 1a 00
        E 0 80 61 00
        E 0 90 18 60
        E 0 90 3c 60
        E 0 90 48 60
        E 0 90 54 60
        E 0 90 60 60
        E 120 80 18 00
        E 0 80 3c 00
        E 0 80 48 00
        E 0 80 54 00
        E 0 80 60 00
        E 0 90 18 60
        E 0 90 60 60
        E 120 80 18 00
        E 0 80 60 00
        E 0 90 1a 60
        E 0 90 24 60
        E 0 90 55 60
        E 0 90 58 60
        E 0 90 61 60
        E 0 90 64 60
        E 120 80 1a 00
        E 0 80 24 00
        E 0 80 55 00
        E 0 80 58 00
        E 0 80 61 00
        E 0 80 64 00
        E 360 90 18 60
        E 0 90 2a 60
        E 0 90 54 60
        E 0 90 57 60
        E 0 90 60 60
        E 0 90 63 60
        E 120 80 18 00
        E 0 80 2a 00
        E 0 80 54 00
        E 0 80 57 00
        E 0 80 60 00
        E 0 80 63 00
        E 120 90 18 60
        E 0 90 24 60
        E 0 90 40 60
        E 0 90 48 60
        E 0 90 4c 60
        E 0 90 54 60
        E 0 90 58 60
        E 0 90 60 60
        E 0 90 64 60
        E 120 80 18 00
        E 0 80 24 00
        E 0 80 40 00
        E 0 80 48 00
        E 0 80 4c 00
        E 0 80 54 00
        E 0 80 58 00
        E 0 80 60 00
        E 0 80 64 00
        E 120 90 1b 60
        E 0 90 55 60
        E 0 90 61 60
        E 120 80 1b 00
        E 0 80 55 00
        E 0 80 61 00
        E 0 90 1a 60
        E 0 90 61 60
        E 120 80 1a 00
        E 0 80 61 00
        E 0 90 1b 60
        E 0 90 3d 60
        E 0 90 49 60
        E 0 90 55 60
        E 0 90 61 60
        E 120 80 1b 00
        E 0 80 3d 00
        E 0 80 49 00
        E 0 80 55 00
        E 0 80 61 00
        E 0 90 1a 60
        E 0 90 61 60
        E 120 80 1a 00
        E 0 80 61 00
        E 0 90 1b 60
        E 0 90 55 60
        E 0 90 61 60
        E 120 80 1b 00
        E 0 80 55 00
        E 0 80 61 00
        E 0 90 1a 60
        E 0 90 61 60
        E 120 80 1a 00
        E 0 80 61 00
        E 0 90 2f 60
        E 0 90 3e 60
        E 0 90 4a 60
        E 0 90 56 60
        E 0 90 62 60
        E 0 90 6e 60
        E 120 80 2f 00
        E 0 80 3e 00
        E 0 80 4a 00
        E 0 80 56 00
        E 0 80 62 00
        E 0 80 6e 00
        E 0 90 2e 60
        E 0 90 62 60
        E 0 90 6e 60
        E 120 80 2e 00
        E 0 80 62 00
        E 0 80 6e 00
        E 0 90 31 60
        E 0 90 57 60
        E 0 90 63 60
        E 0 90 6f 60
        E 120 80 31 00
        E 0 80 57 00
        E 0 80 63 00
        E 0 80 6f 00
        E 0 90 30 60
        E 0 90 63 60
        E 0 90 6f 60
        E 120 80 30 00
        E 0 80 63 00
        E 0 80 6f 00
        E 0 90 18 60
        E 0 90 24 60
        E 0 90 40 60
        E 0 90 48 60
        E 0 90 4c 60
        E 0 90 54 60
        E 0 90 58 60
        E 0 90 60 60
        E 0 90 64 60
        E 120 80 18 00
        E 0 80 24 00
        E 0 80 40 00
        E 0 80 48 00
        E 0 80 4c 00
        E 0 80 54 00
        E 0 80 58 00
        E 0 80 60 00
        E 0 80 64 00
        E 120 90 1b 60
        E 0 90 55 60
        E 0 90 61 60
        E 120 80 1b 00
        E 0 80 55 00
        E 0 80 61 00
        E 0 90 1a 60
        E 0 90 61 60
        E 120 80 1a 00
        E 0 80 61 00
        E 0 90 18 60
        E 0 90 3c 60
        E 0 90 48 60
        E 0 90 54 60
        E 0 90 60 60
        E 120 80 18 00
        E 0 80 3c 00
        E 0 80 48 00
        E 0 80 54 00
        E 0 80 60 00
        E 0 90 18 60
        E 0 90 60 60
        E 120 80 18 00
        E 0 80 60 00
        E 0 90 1a 60
        E 0 90 24 60
        E 0 90 55 60
        E 0 90 58 60
        E 0 90 61 60
        E 0 90 64 60
        E 120 80 1a 00
        E 0 80 24 00
        E 0 80 55 00
        E 0 80 58 00
        E 0 80 61 00
        E 0 80 64 00
        E 360 90 18 60
        E 0 90 54 60
        E 0 90 60 60
        E 120 80 18 00
        E 0 80 54 00
        E 0 80 60 00
        E 120 90 18 60
        E 0 90 24 60
        E 0 90 40 60
        E 0 90 48 60
        E 0 90 4c 60
        E 0 90 54 60
        E 0 90 58 60
        E 0 90 60 60
        E 0 90 64 60
        E 120 80 18 00
        E 0 80 24 00
        E 0 80 40 00
        E 0 80 48 00
        E 0 80 4c 00
        E 0 80 54 00
        E 0 80 58 00
        E 0 80 60 00
        E 0 80 64 00
        E 120 90 1b 60
        E 0 90 55 60
        E 0 90 61 60
        E 120 80 1b 00
        E 0 80 55 00
        E 0 80 61 00
        E 0 90 1a 60
        E 0 90 61 60
        E 120 80 1a 00
        E 0 80 61 00
        E 0 90 1b 60
        E 0 90 3d 60
        E 0 90 49 60
        E 0 90 55 60
        E 0 90 61 60
        E 120 80 1b 00
        E 0 80 3d 00
        E 0 80 49 00
        E 0 80 55 00
        E 0 80 61 00
        E 0 90 1a 60
        E 0 90 61 60
        E 120 80 1a 00
        E 0 80 61 00
        E 0 90 1b 60
        E 0 90 55 60
        E 0 90 61 60
        E 120 80 1b 00
        E 0 80 55 00
        E 0 80 61 00
        E 0 90 1a 60
        E 0 90 61 60
        E 120 80 1a 00
        E 0 80 61 00
        E 0 90 1b 60
        E 0 90 3d 60
        E 0 90 49 60
        E 0 90 55 60
        E 0 90 61 60
        E 120 80 1b 00
        E 0 80 3d 00
        E 0 80 49 00
        E 0 80 55 00
        E 0 80 61 00
        E 0 90 1a 60
        E 0 90 61 60
        E 120 80 1a 00
        E 0 80 61 00
        E 0 90 1b 60
        E 0 90 55 60
        E 0 90 61 60
        E 120 80 1b 00
        E 0 80 55 00
        E 0 80 61 00
        E 0 90 1a 60
        E 0 90 61 60
        E 120 80 1a 00
        E 0 80 61 00
        E 0 90 18 60
        E 0 90 24 60
        E 0 90 40 60
        E 0 90 48 60
        E 0 90 4c 60
        E 0 90 54 60
        E 0 90 58 60
        E 0 90 60 60
        E 0 90 64 60
        E 120 80 18 00
        E 0 80 24 00
        E 0 80 40 00
        E 0 80 48 00
        E 0 80 4c 00
        E 0 80 54 00
        E 0 80 58 00
        E 0 80 60 00
        E 0 80 64 00
        E 360 90 18 60
        E 0 90 3c 60
        E 0 90 48 60
        E 0 90 54 60
        E 0 90 60 60
        E 120 80 18 00
        E 0 80 3c 00
        E 0 80 48 00
        E 0 80 54 00
        E 0 80 60 00
        E 120 90 1a 60
        E 0 90 24 60
        E 0 90 55 60
        E 0 90 58 60
        E 0 90 61 60
        E 0 90 64 60
        E 120 80 1a 00
        E 0 80 24 00
        E 0 80 55 00
        E 0 80 58 00
        E 0 80 61 00
        E 0 80 64 00
        E 120 90 18 60
        E 0 90 3c 60
        E 0 90 48 60
        E 0 90 54 60
        E 0 90 60 60
        E 120 80 18 00
        E 0 80 3c 00
        E 0 80 48 00
        E 0 80 54 00
        E 0 80 60 00
        E 120 90 1a 60
        E 0 90 55 60
        E 0 90 61 60
        E 120 80 1a 00
        E 0 80 55 00
        E 0 80 61 00
        E 120 90 18 60
        E 0 90 24 60
        E 0 90 40 60
        E 0 90 48 60
        E 0 90 4c 60
        E 0 90 54 60
        E 0 90 58 60
        E 0 90 60 60
        E 0 90 64 60
        E 120 80 18 00
        E 0 80 24 00
        E 0 80 40 00
        E 0 80 48 00
        E 0 80 4c 00
        E 0 80 54 00
        E 0 80 58 00
        E 0 80 60 00
        E 0 80 64 00
        E 120 90 1b 60
        E 0 90 55 60
        E 0 90 61 60
        E 120 80 1b 00
        E 0 80 55 00
        E 0 80 61 00
        E 0 90 1a 60
        E 0 90 61 60
        E 120 80 1a 00
        E 0 80 61 00
        E 0 90 18 60
        E 0 90 24 60
        E 0 90 40 60
        E 0 90 48 60
        E 0 90 4c 60
        E 0 90 54 60
        E 0 90 58 60
        E 0 90 60 60
        E 0 90 64 60
        E 120 80 18 00
        E 0 80 24 00
        E 0 80 40 00
        E 0 80 48 00
        E 0 80 4c 00
        E 0 80 54 00
        E 0 80 58 00
        E 0 80 60 00
        E 0 80 64 00
        E 120 90 1b 60
        E 0 90 55 60
        E 0 90 61 60
        E 120 80 1b 00
        E 0 80 55 00
        E 0 80 61 00
        E 0 90 1a 60
        E 0 90 61 60
        E 120 80 1a 00
        E 0 80 61 00
        E 0 90 18 60
        E 0 90 24 60
        E 0 90 40 60
        E 0 90 48 60
        E 0 90 4c 60
        E 0 90 54 60
        E 0 90 58 60
        E 0 90 60 60
        E 0 90 64 60
        E 120 80 18 00
        E 0 80 24 00
        E 0 80 40 00
        E 0 80 48 00
        E 0 80 4c 00
        E 0 80 54 00
        E 0 80 58 00
        E 0 80 60 00
        E 0 80 64 00
        E 120 90 1b 60
        E 0 90 55 60
        E 0 90 61 60
        E 120 80 1b 00
        E 0 80 55 00
        E 0 80 61 00
        E 0 90 1a 60
        E 0 90 61 60
        E 120 80 1a 00
        E 0 80 61 00
        E 0 90 18 60
        E 0 90 24 60
        E 0 90 40 60
        E 0 90 48 60
        E 0 90 4c 60
        E 0 90 54 60
        E 0 90 58 60
        E 0 90 60 60
        E 0 90 64 60
        E 120 80 18 00
        E 0 80 24 00
        E 0 80 40 00
        E 0 80 48 00
        E 0 80 4c 00
        E 0 80 54 00
        E 0 80 58 00
        E 0 80 60 00
        E 0 80 64 00
        E 120 90 1b 60
        E 0 90 55 60
        E 0 90 61 60
        E 120 80 1b 00
        E 0 80 55 00
        E 0 80 61 00
        E 0 90 1a 60
        E 0 90 61 60
        E 120 80 1a 00
        E 0 80 61 00
        E 0 90 1b 60
        E 0 90 3d 60
        E 0 90 49 60
        E 0 90 55 60
        E 0 90 61 60
        E 120 80 1b 00
        E 0 80 3d 00
        E 0 80 49 00
        E 0 80 55 00
        E 0 80 61 00
        E 0 90 1a 60
        E 0 90 61 60
        E 120 80 1a 00
        E 0 80 61 00
        E 0 90 1b 60
        E 0 90 55 60
        E 0 90 61 60
        E 120 80 1b 00
        E 0 80 55 00
        E 0 80 61 00
        E 0 90 1a 60
        E 0 90 61 60
        E 120 80 1a 00
        E 0 80 61 00
        E 0 90 1b 60
        E 0 90 3d 60
        E 0 90 49 60
        E 0 90 55 60
        E 0 90 61 60
        E 120 80 1b 00
        E 0 80 3d 00
        E 0 80 49 00
        E 0 80 55 00
        E 0 80 61 00
        E 0 90 1a 60
        E 0 90 61 60
        E 120 80 1a 00
        E 0 80 61 00
        E 0 90 2f 60
        E 0 90 56 60
        E 0 90 62 60
        E 0 90 6e 60
        E 120 80 2f 00
        E 0 80 56 00
        E 0 80 62 00
        E 0 80 6e 00
        E 0 90 2e 60
        E 0 90 62 60
        E 0 90 6e 60
        E 120 80 2e 00
        E 0 80 62 00
        E 0 80 6e 00
        E 0 90 1b 60
        E 0 90 3d 60
        E 0 90 49 60
        E 0 90 55 60
        E 0 90 61 60
        E 120 80 1b 00
        E 0 80 3d 00
        E 0 80 49 00
        E 0 80 55 00
        E 0 80 61 00
        E 0 90 1a 60
        E 0 90 61 60
        E 120 80 1a 00
        E 0 80 61 00
        E 0 90 2f 60
        E 0 90 56 60
        E 0 90 62 60
        E 0 90 6e 60
        E 120 80 2f 00
        E 0 80 56 00
        E 0 80 62 00
        E 0 80 6e 00
        E 0 90 2e 60
        E 0 90 62 60
        E 0 90 6e 60
        E 120 80 2e 00
        E 0 80 62 00
        E 0 80 6e 00
        E 0 90 1b 60
        E 0 90 3d 60
        E 0 90 49 60
        E 0 90 55 60
        E 0 90 61 60
        E 120 80 1b 00
        E 0 80 3d 00
        E 0 80 49 00
        E 0 80 55 00
        E 0 80 61 00
        E 0 90 1a 60
        E 0 90 61 60
        E 120 80 1a 00
        E 0 80 61 00
        E 0 90 18 60
        E 0 90 54 60
        E 0 90 60 60
        E 120 80 18 00
        E 0 80 54 00
        E 0 80 60 00
        E 0 90 18 60
        E 0 90 60 60
        E 120 80 18 00
        E 0 80 60 00
        E 0 90 1a 60
        E 0 90 24 60
        E 0 90 3d 60
        E 0 90 49 60
        E 0 90 4c 60
        E 0 90 55 60
        E 0 90 58 60
        E 0 90 61 60
        E 0 90 64 60
        E 120 80 1a 00
        E 0 80 24 00
        E 0 80 3d 00
        E 0 80 49 00
        E 0 80 4c 00
        E 0 80 55 00
        E 0 80 58 00
        E 0 80 61 00
        E 0 80 64 00
        <X 480 0
          /wFbaWRsZV9yZWFsdGltZV0=
        >
        E 2280 b0 7b 00
        GUID {99C52F88-C54B-4CCD-B038-A5C950AC8E6E}
        IGNTEMPO 0 120 4 4
        SRCCOLOR 1498
        VELLANE 132 38 60
        COLORMAP "C:\Program Files (x86)\REAPER\Data\color_maps\rockband_drums.png"
        TEXTSTRINGFILE "Text Events List.txt"
        CFGEDITVIEW -77042.642906 5.378839 0 12 0 0 0 0 0 0.5
        KEYSNAP 0
        TRACKSEL 0 0 0 ""
        EVTFILTER 0 -1 -1 -1 -1 0 1 0 0 -1 -1 -1 -1 0 -1 0 -1 -1
        CFGEDIT 1 1 0 0 0 1 1 1 1 1 1 0.25 57 0 1435 744 0 2 1 2 0 0 0 0 0 0.5 1 0 1 64
      >
    >
  >
  <TRACK {C298A11E-8E06-44B8-AA31-429ECCE3F0AF}
    NAME "PART VOCALS"
    PEAKCOL 16810239
    BEAT -1
    AUTOMODE 0
    VOLPAN 1 0 -1 -1 1
    MUTESOLO 0 0 0
    IPHASE 0
    ISBUS 0 0
    BUSCOMP 1 0
    SHOWINMIX 1 0.6667 0.5 1 0.5 0 0 0
    FREEMODE 0
    SEL 1
    REC 0 4096 1 7 0 0 0
    TRACKHEIGHT 56 0
    INQ 0 0 0 0.5 100 0 0 100
    NCHAN 2
    FX 1
    TRACKID {C298A11E-8E06-44B8-AA31-429ECCE3F0AF}
    PERF 0
    MIDIOUT -1
    <MIDINOTENAMES
      0 0 "Range Shift" 0 0
      0 1 "Lyric Shift" 0 1
      0 36 C1 0 36
      0 37 C# 0 37
      0 38 D 0 38
      0 39 Eb 0 39
      0 40 E 0 40
      0 41 F 0 41
      0 42 F# 0 42
      0 43 G 0 43
      0 44 G# 0 44
      0 45 A 0 45
      0 46 Bb 0 46
      0 47 B 0 47
      0 48 C2 0 48
      0 49 C# 0 49
      0 50 D 0 50
      0 51 Eb 0 51
      0 52 E 0 52
      0 53 F 0 53
      0 54 F# 0 54
      0 55 G 0 55
      0 56 G# 0 56
      0 57 A 0 57
      0 58 Bb 0 58
      0 59 B 0 59
      0 60 C3 0 60
      0 61 C# 0 61
      0 62 D 0 62
      0 63 Eb 0 63
      0 64 E 0 64
      0 65 F 0 65
      0 66 F# 0 66
      0 67 G 0 67
      0 68 G# 0 68
      0 69 A 0 69
      0 70 Bb 0 70
      0 71 B 0 71
      0 72 C4 0 72
      0 73 C# 0 73
      0 74 D 0 74
      0 75 Eb 0 75
      0 76 E 0 76
      0 77 F 0 77
      0 78 F# 0 78
      0 79 G 0 79
      0 80 G# 0 80
      0 81 A 0 81
      0 82 Bb 0 82
      0 83 B 0 83
      0 84 C5 0 84
      0 95 ---- 0 95
      0 96 "Displayed Percussion" 0 96
      0 97 "Not Displayed Percussion" 0 97
      0 104 ---- 0 104
      0 105 "Phrase Marker" 0 105
      0 115 ---- 0 115
      0 116 OVERDRIVE 0 116
    >
    MAINSEND 1 0
    <FXCHAIN
      WNDRECT 455 130 612 464
      SHOW 0
      LASTSEL 1
      DOCKED 0
      BYPASS 0 0 0
      <JS "IX/MIDI_Tool II" ""
        0.000000 85.000000 127.000000 0.000000 0.000000 0.000000 100.000000 0.000000 0.000000 127.000000 0.000000 0.000000 1.000000 0.000000 0.000000 - - - - - - - - - - - - - - - - - - - - - - - - - - - - - - - - - - - - - - - - - - - - - - - - - 
      >
      FLOATPOS 0 0 0 0
      FXID {CA785021-0433-497E-9A6C-EE23A1BC21B0}
      WAK 0
      BYPASS 0 0 0
      <VST "VSTi: ReaSynth (Cockos)" reasynth.vst.dylib 0 "" 1919251321
        eXNlcu9e7f4AAAAAAgAAAAEAAAAAAAAAAgAAAAAAAAA8AAAAAAAAAAAAAAA=
        776t3g3wrd6mm8Q7F7fROgAAAAAAAAAAAAAAAKwOBT/pZ4g9AAAAAAAAAD8AAIA/AAAAAAAAAD8AAIA/
        AAAAAAAA
      >
      FLOATPOS 32 32 338 405
      FXID {F124DD19-73B4-4CD5-B659-E246F2A3D0B3}
      WAK 0
    >
    <ITEM
      POSITION 0
      SNAPOFFS 0
      LENGTH 121.26242132124742
      LOOP 0
      ALLTAKES 0
      FADEIN 1 0 0 1 0 0
      FADEOUT 1 0 0 1 0 0
      MUTE 0
      SEL 1
      IGUID {9C9617EC-369A-41B9-80F6-31F4222F13F6}
      IID 4
      NAME "PART VOCALS"
      VOLPAN 1 0 1 -1
      SOFFS 0 0
      PLAYRATE 1 1 0 -65536 0 0.0025
      CHANMODE 0
      GUID {8E872349-00D8-4243-95D7-0B92852E4EE5}
      <SOURCE MIDI
        HASDATA 1 480 QN
        POOLEDEVTS {C6ABBCFE-A33C-4251-817E-9973E0E4B577}
        <X 0 0
          /wNQQVJUIFZPQ0FMUw==
        >
        E 30870 90 69 60
        E 0 90 74 60
        <X 90 0
          /wVIZXkj
        >
        E 0 90 48 60
        E 1200 80 48 00
        <X 1680 0
          /wVoZXkj
        >
        E 0 90 48 60
        E 1200 80 48 00
        E 180 80 69 00
        E 0 80 74 00
        E 1290 90 69 60
        <X 210 0
          /wVIZXkj
        >
        E 0 90 48 60
        E 1200 80 48 00
        <X 1680 0
          /wVoZXkj
        >
        E 0 90 48 60
        E 1200 80 48 00
        E 150 80 69 00
        E 12300 90 69 60
        <X 30 0
          /wVMZXMtIw==
        >
        E 0 90 48 60
        E 450 80 48 00
        <X 270 0
          /wVzb24j
        >
        E 0 90 48 60
        E 630 80 48 00
        <X 570 0
          /wV0aGUj
        >
        E 0 90 48 60
        E 390 80 48 00
        <X 90 0
          /wVob24tIw==
        >
        E 0 90 48 60
        E 180 80 48 00
        <X 60 0
          /wVvci0j
        >
        E 0 90 48 60
        E 180 80 48 00
        <X 60 0
          /wVpbmcj
        >
        E 0 90 48 60
        E 180 80 48 00
        <X 60 0
          /wVpbi0j
        >
        E 0 90 48 60
        E 240 80 48 00
        <X 240 0
          /wVzdGluY3Qj
        >
        E 0 90 48 60
        E 480 80 48 00
        <X 480 0
          /wV0aGUj
        >
        E 0 90 48 60
        E 180 80 48 00
        <X 60 0
          /wVhbi0j
        >
        E 0 90 48 60
        E 180 80 48 00
        <X 60 0
          /wVpLSM=
        >
        E 0 90 48 60
        E 180 80 48 00
        <X 60 0
          /wVtYWwj
        >
        E 0 90 48 60
        E 750 80 48 00
        E 120 80 69 00
        E 5550 90 69 60
        E 0 90 74 60
        <X 60 0
          /wVQcmVzLSM=
        >
        E 0 90 48 60
        E 270 80 48 00
        <X 210 0
          /wVzdXJlIw==
        >
        E 0 90 48 60
        E 630 80 48 00
        <X 570 0
          /wVubyM=
        >
        E 0 90 48 60
        E 240 80 48 00
        <X 240 0
          /wVibGFtZSM=
        >
        E 0 90 48 60
        E 180 80 48 00
        <X 60 0
          /wVvbiM=
        >
        E 0 90 48 60
        E 180 80 48 00
        <X 60 0
          /wV0aGUj
        >
        E 0 90 48 60
        E 180 80 48 00
        <X 60 0
          /wVyZWQj
        >
        E 0 90 48 60
        E 240 80 48 00
        <X 240 0
          /wVidWxsIw==
        >
        E 0 90 48 60
        E 480 80 48 00
        <X 720 0
          /wV0aHJvdyM=
        >
        E 0 90 48 60
        E 330 80 48 00
        <X 150 0
          /wVmdS0j
        >
        E 0 90 48 60
        E 330 80 48 00
        <X 150 0
          /wVyeSM=
        >
        E 0 90 48 60
        E 180 80 48 00
        <X 60 0
          /wVhdCM=
        >
        E 0 90 48 60
        E 330 80 48 00
        <X 150 0
          /wVoaW0j
        >
        E 0 90 48 60
        E 1200 80 48 00
        E 150 80 69 00
        E 0 80 74 00
        E 9960 90 69 60
        <X 210 0
          /wVBaW0j
        >
        E 0 90 48 60
        E 1380 80 48 00
        <X 1500 0
          /wVnb3JnZSM=
        >
        E 0 90 48 60
        E 1590 80 48 00
        E 150 80 69 00
        E 810 90 69 60
        <X 330 0
          /wVBbmQj
        >
        E 0 90 48 60
        E 1680 80 48 00
        <X 1200 0
          /wV3aW4j
        >
        E 0 90 48 60
        E 1590 80 48 00
        E 120 80 69 00
        E 1530 90 69 60
        <X 120 0
          /wVMZXNzIw==
        >
        E 0 90 48 60
        E 360 80 48 00
        <X 120 0
          /wVjb24tIw==
        >
        E 0 90 48 60
        E 150 80 48 00
        <X 90 0
          /wV0ZW5kLSM=
        >
        E 0 90 48 60
        E 150 80 48 00
        <X 90 0
          /wVlcnMj
        >
        E 0 90 48 60
        E 480 80 48 00
        <X 480 0
          /wVvbiM=
        >
        E 0 90 48 60
        E 330 80 48 00
        <X 150 0
          /wV0aGUj
        >
        E 0 90 48 60
        E 180 80 48 00
        <x 60 0
          /wV3YXkj
        >
        E 0 90 48 60
        E 720 80 48 00
        E 60 80 69 00
        E 780 90 69 60
        <X 120 0
          /wVUby0j
        >
        E 0 90 48 60
        E 180 80 48 00
        <X 60 0
          /wVkYXkj
        >
        E 0 90 48 60
        E 480 80 48 00
        <X 480 0
          /wVsZXQj
        >
        E 0 90 48 60
        E 180 80 48 00
        <X 60 0
          /wV0aGVtIw==
        >
        E 0 90 48 60
        E 180 80 48 00
        <X 60 0
          /wVwYXkj
        >
        E 0 90 48 60
        E 1080 80 48 00
        E 60 80 69 00
        E 480 90 69 60
        E 0 90 74 60
        <X 60 0
          /wVOby0j
        >
        E 0 90 48 60
        E 330 80 48 00
        <X 150 0
          /wV0aGluZyM=
        >
        E 0 90 48 60
        E 150 80 48 00
        <X 90 0
          /wVsb3N0Iw==
        >
        E 0 90 48 60
        E 750 80 48 00
        <X 450 0
          /wVuby0j
        >
        E 0 90 48 60
        E 330 80 48 00
        <X 150 0
          /wV0aGluZyM=
        >
        E 0 90 48 60
        E 150 80 48 00
        <X 90 0
          /wVnYWluZWQj
        >
        E 0 90 48 60
        E 960 80 48 00
        E 60 80 69 00
        E 0 80 74 00
        E 600 90 69 60
        <X 60 0
          /wVTdWYtIw==
        >
        E 0 90 48 60
        E 180 80 48 00
        <X 60 0
          /wVmZXIj
        >
        E 0 90 48 60
        E 600 80 48 00
        <X 360 0
          /wVsZXQj
        >
        E 0 90 48 60
        E 180 80 48 00
        <X 60 0
          /wV0aGVtIw==
        >
        E 0 90 48 60
        E 180 80 48 00
        <X 60 0
          /wVwYXkj
        >
        E 0 90 48 60
        E 1140 80 48 00
        E 60 80 69 00
        E 390 90 69 60
        <X 90 0
          /wVMZXNzIw==
        >
        E 0 90 48 60
        E 360 80 48 00
        <X 120 0
          /wVjb24tIw==
        >
        E 0 90 48 60
        E 150 80 48 00
        <X 90 0
          /wV0ZW5kLSM=
        >
        E 0 90 48 60
        E 150 80 48 00
        <X 90 0
          /wVlcnMj
        >
        E 0 90 48 60
        E 480 80 48 00
        <X 480 0
          /wVvbiM=
        >
        E 0 90 48 60
        E 330 80 48 00
        <X 150 0
          /wV0aGUj
        >
        E 0 90 48 60
        E 180 80 48 00
        <X 60 0
          /wV3YXkj
        >
        E 0 90 48 60
        E 930 80 48 00
        E 90 80 69 00
        E 600 90 69 60
        <X 60 0
          /wVUby0j
        >
        E 0 90 48 60
        E 180 80 48 00
        <X 60 0
          /wVkYXkj
        >
        E 0 90 48 60
        E 570 80 48 00
        <X 390 0
          /wVsZXQj
        >
        E 0 90 48 60
        E 180 80 48 00
        <X 60 0
          /wV0aGVtIw==
        >
        E 0 90 48 60
        E 180 80 48 00
        <X 60 0
          /wVwYXkj
        >
        E 0 90 48 60
        E 1260 80 48 00
        E 120 80 69 00
        E 29760 90 69 60
        E 0 90 74 60
        <X 60 0
          /wVMaXMtIw==
        >
        E 0 90 48 60
        E 450 80 48 00
        <X 270 0
          /wV0ZW4j
        >
        E 0 90 48 60
        E 630 80 48 00
        <X 570 0
          /wVoZXJlIw==
        >
        E 0 90 48 60
        E 390 80 48 00
        <X 90 0
          /wVsaWVzIw==
        >
        E 0 90 48 60
        E 390 80 48 00
        <X 90 0
          /wV0aGUj
        >
        E 0 90 48 60
        E 180 80 48 00
        <X 60 0
          /wV3YXJuLSM=
        >
        E 0 90 48 60
        E 360 80 48 00
        <X 120 0
          /wVpbmcj
        >
        E 0 90 48 60
        E 480 80 48 00
        <X 480 0
          /wVmb3Ij
        >
        E 0 90 48 60
        E 180 80 48 00
        <X 60 0
          /wVtYS0j
        >
        E 0 90 48 60
        E 180 80 48 00
        <X 60 0
          /wV0YS0j
        >
        E 0 90 48 60
        E 180 80 48 00
        <X 60 0
          /wVkb3Ij
        >
        E 0 90 48 60
        E 750 80 48 00
        E 30 80 69 00
        E 0 80 74 00
        E 5400 90 69 60
        <X 120 0
          /wVCbGFjay0j
        >
        E 0 90 48 60
        E 420 80 48 00
        <X 240 0
          /wVvdXQj
        >
        E 0 90 48 60
        E 630 80 48 00
        <X 570 0
          /wVCbG9vZCM=
        >
        E 0 90 48 60
        E 330 80 48 00
        <X 150 0
          /wVydW4tIw==
        >
        E 0 90 48 60
        E 180 80 48 00
        <X 60 0
          /wVuaW5nIw==
        >
        E 0 90 48 60
        E 180 80 48 00
        <X 60 0
          /wV0aGUj
        >
        E 0 90 48 60
        E 180 80 48 00
        <X 60 0
          /wVkaXJ0Iw==
        >
        E 0 90 48 60
        E 240 80 48 00
        <X 240 0
          /wVmbG9vciM=
        >
        E 0 90 48 60
        E 540 80 48 00
        <X 660 0
          /wV3b24ndCM=
        >
        E 0 90 48 60
        E 330 80 48 00
        <X 150 0
          /wVibGVlZCM=
        >
        E 0 90 48 60
        E 180 80 48 00
        <X 60 0
          /wVhYy0j
        >
        E 0 90 48 60
        E 300 80 48 00
        <X 180 0
          /wVjaS0j
        >
        E 0 90 48 60
        E 330 80 48 00
        <X 150 0
          /wVkZW50Iw==
        >
        E 0 90 48 60
        E 1200 80 48 00
        E 90 80 69 00
        E 10080 90 69 60
        <X 150 0
          /wVCdXJuIw==
        >
        E 0 90 48 60
        E 1590 80 48 00
        <X 1290 0
          /wV5b3VyIw==
        >
        E 0 90 48 60
        E 1590 80 48 00
        E 120 80 69 00
        E 1050 90 69 60
        <X 120 0
          /wVHYW1lIw==
        >
        E 0 90 48 60
        E 1590 80 48 00
        <X 1290 0
          /wVwbGFuIw==
        >
        E 0 90 48 60
        E 1590 80 48 00
        E 90 80 69 00
        E 2880 b0 7b 00
        GUID {C9A1A4CA-4224-4672-91C0-075BEB2A8650}
        IGNTEMPO 0 120 4 4
        SRCCOLOR 1499
        VELLANE 132 128 128
        COLORMAP "C:\Users\AJFOne23\AppData\Roaming\REAPER\Data\color_maps\rockband_vox-other.png"
        TEXTSTRINGFILE "Text Events List.txt"
        CFGEDITVIEW 84930.677934 60.037991 0 13 0 0 0 0 0 0.5
        KEYSNAP 0
        TRACKSEL 0 0 0 ""
        EVTFILTER 0 -1 -1 -1 -1 0 1 0 0 -1 -1 -1 -1 0 -1 0 -1 -1
        CFGEDIT 1 1 0 0 0 1 1 1 1 1 1 0.0625 57 101 1440 877 0 2 2 2 0 0 0 0 0 0.5 1 0 1 64
      >
    >
  >
  <TRACK {6B7F9B4B-FF4E-4CE6-9E2D-4C9BD5DAED77}
    NAME "PART GUITAR"
    PEAKCOL 33488896
    BEAT -1
    AUTOMODE 0
    VOLPAN 1 0 -1 -1 1
    MUTESOLO 0 0 0
    IPHASE 0
    ISBUS 0 0
    BUSCOMP 1 0
    SHOWINMIX 1 0.6667 0.5 1 0.5 0 0 0
    FREEMODE 0
    SEL 0
    REC 0 4096 1 7 0 0 0
    TRACKHEIGHT 55 0
    INQ 0 0 0 0.5 100 0 0 100
    NCHAN 2
    FX 1
    TRACKID {6B7F9B4B-FF4E-4CE6-9E2D-4C9BD5DAED77}
    PERF 0
    MIDIOUT -1
    <MIDINOTENAMES
      0 40 "Left Hand Lowest" 0 40
      0 41 - 0 41
      0 42 - 0 42
      0 43 - 0 43
      0 44 - 0 44
      0 45 - 0 45
      0 46 - 0 46
      0 47 - 0 47
      0 48 - 0 48
      0 49 - 0 49
      0 50 - 0 50
      0 51 - 0 51
      0 52 - 0 52
      0 53 - 0 53
      0 54 - 0 54
      0 55 - 0 55
      0 56 - 0 56
      0 57 - 0 57
      0 58 - 0 58
      0 59 "Left Hand Highest" 0 59
      0 60 "EASY Green" 0 60
      0 61 "EASY Red" 0 61
      0 62 "EASY Yellow" 0 62
      0 63 "EASY Blue" 0 63
      0 64 "EASY Orange" 0 64
      0 65 ---- 0 65
      0 72 "MEDIUM Green" 0 72
      0 73 "MEDIUM Red" 0 73
      0 74 "MEDIUM Yellow" 0 74
      0 75 "MEDIUM Blue" 0 75
      0 76 "MEDIUM Orange" 0 76
      0 77 ---- 0 77
      0 84 "HARD Green" 0 84
      0 85 "HARD Red" 0 85
      0 86 "HARD Yellow" 0 86
      0 87 "HARD Blue" 0 87
      0 88 "HARD Orange" 0 88
      0 89 "Force HOPO On" 0 89
      0 90 "Force HOPO Off" 0 90
      0 95 ---- 0 95
      0 96 "EXPERT Green" 0 96
      0 97 "EXPERT Red" 0 97
      0 98 "EXPERT Yellow" 0 98
      0 99 "EXPERT Blue" 0 99
      0 100 "EXPERT Orange" 0 100
      0 101 "Force HOPO On" 0 101
      0 102 "Force HOPO Off" 0 102
      0 103 "Solo Marker" 0 103
      0 115 ---- 0 115
      0 116 OVERDRIVE 0 116
      0 119 ---- 0 119
      0 120 "BRE (use all 5)" 0 120
      0 121 BRE 0 121
      0 122 BRE 0 122
      0 123 BRE 0 123
      0 124 BRE 0 124
      0 125 ---- 0 125
      0 127 "Trill Marker" 0 127
    >
    MAINSEND 1 0
    <FXCHAIN
      WNDRECT 0 38 878 585
      SHOW 0
      LASTSEL 1
      DOCKED 0
      BYPASS 1 0 0
      <VST "VSTi: ReaSynth (Cockos)" reasynth.vst.dylib 0 "" 1919251321
        eXNlcu9e7f4AAAAAAgAAAAEAAAAAAAAAAgAAAAAAAAA8AAAAAAAAAAAAAAA=
        776t3g3wrd4AAAAAAAAAAAAAAAAAAAAAObRIPn3L2z61tLE5AAAAALbz/T5VpCs6AAAAAAAAAAAAAIA/
        AAAAAAAA
      >
      FLOATPOS 0 0 0 0
      FXID {52B28C73-185B-48E4-B8F4-1FD7A8848B0F}
      WAK 0
      BYPASS 0 0 0
      <VST "VSTi: RBN Preview (RBN)" rbprev_vst.dll 0 "" ""
        dnBicu5e7f4AAAAAAgAAAAEAAAAAAAAAAgAAAAAAAAAEAAAAAQAAAAAAAAADAKoAAAAAAAAA
      >
      FLOATPOS 32 32 659 497
      FXID {190BBB08-7A86-476B-BD07-5F71F5CD6F7C}
      WAK 0
    >
    <ITEM
      POSITION 0
      SNAPOFFS 0
      LENGTH 121.26242132124707
      LOOP 0
      ALLTAKES 0
      FADEIN 1 0 0 1 0 0
      FADEOUT 1 0 0 1 0 0
      MUTE 0
      SEL 0
      IGUID {81210F06-DA35-41E7-BA75-C6E1C5689733}
      IID 2
      NAME "PART GUITAR"
      VOLPAN 1 0 1 -1
      SOFFS 0 0
      PLAYRATE 1 1 0 -65536 0 0.0025
      CHANMODE 0
      GUID {61757875-B3D4-49E4-8483-EE351B7D2386}
      <SOURCE MIDI
        HASDATA 1 480 QN
        POOLEDEVTS {BA182EAD-126D-4CCE-B2F5-5CD7B9526B81}
        <X 0 0
          /wNQQVJUIEdVSVRBUg==
        >
        <X 2880 0
          /wFbaWRsZV0=
        >
        <X 2880 0
          /wFbcGxheV0=
        >
        E 960 90 63 64
        E 0 90 57 64
        E 0 90 4b 64
        E 0 90 3f 64
        E 120 80 57 00
        E 0 80 4b 00
        E 0 80 3f 00
        E 240 80 63 00
        E 120 90 60 64
        E 0 90 54 64
        E 0 90 48 64
        E 0 90 3c 64
        E 120 80 60 00
        E 0 80 54 00
        E 0 80 48 00
        E 0 80 3c 00
        E 120 90 62 64
        E 0 90 63 64
        E 0 90 56 64
        E 0 90 57 64
        E 120 80 62 00
        E 0 80 63 00
        E 0 80 56 00
        E 0 80 57 00
        E 120 90 60 64
        E 0 90 54 64
        E 0 90 48 64
        E 0 90 3c 64
        E 120 80 60 00
        E 0 80 54 00
        E 0 80 48 00
        E 0 80 3c 00
        E 120 90 61 64
        E 0 90 62 64
        E 0 90 55 64
        E 0 90 56 64
        E 120 80 61 00
        E 0 80 62 00
        E 0 80 55 00
        E 0 80 56 00
        E 120 90 61 64
        E 0 90 62 64
        E 0 90 55 64
        E 0 90 56 64
        E 0 90 49 64
        E 0 90 4a 64
        E 120 80 61 00
        E 0 80 62 00
        E 0 80 55 00
        E 0 80 56 00
        E 0 80 49 00
        E 0 80 4a 00
        E 120 90 60 64
        E 0 90 54 64
        E 120 80 60 00
        E 0 80 54 00
        E 120 90 62 64
        E 0 90 63 64
        E 0 90 56 64
        E 0 90 57 64
        E 0 90 4a 64
        E 0 90 4b 64
        E 0 90 3f 64
        E 120 80 62 00
        E 0 80 63 00
        E 0 80 56 00
        E 0 80 57 00
        E 0 80 4a 00
        E 0 80 4b 00
        E 0 80 3f 00
        E 120 90 60 64
        E 0 90 54 64
        E 120 80 60 00
        E 0 80 54 00
        E 120 90 61 64
        E 0 90 63 64
        E 0 90 55 64
        E 0 90 57 64
        E 0 90 49 64
        E 0 90 4b 64
        E 120 80 61 00
        E 0 80 63 00
        E 0 80 55 00
        E 0 80 57 00
        E 0 80 49 00
        E 0 80 4b 00
        E 120 90 60 64
        E 0 90 54 64
        E 120 80 60 00
        E 0 80 54 00
        E 120 90 61 64
        E 0 90 62 64
        E 0 90 55 64
        E 0 90 56 64
        E 0 90 49 64
        E 0 90 4a 64
        E 0 90 3d 64
        E 120 80 55 00
        E 0 80 56 00
        E 0 80 49 00
        E 0 80 4a 00
        E 0 80 3d 00
        E 239 80 61 00
        E 0 80 62 00
        E 121 90 60 64
        E 0 90 54 64
        E 0 90 48 64
        E 0 90 3c 64
        E 120 80 60 00
        E 0 80 54 00
        E 0 80 48 00
        E 0 80 3c 00
        E 120 90 62 64
        E 0 90 63 64
        E 0 90 56 64
        E 0 90 57 64
        E 120 80 62 00
        E 0 80 63 00
        E 0 80 56 00
        E 0 80 57 00
        E 120 90 60 64
        E 0 90 54 64
        E 0 90 48 64
        E 0 90 3c 64
        E 120 80 60 00
        E 0 80 54 00
        E 0 80 48 00
        E 0 80 3c 00
        E 119 90 61 64
        E 0 90 62 64
        E 0 90 55 64
        E 0 90 56 64
        E 120 80 55 00
        E 0 80 56 00
        E 240 80 61 00
        E 0 80 62 00
        E 121 90 60 64
        E 0 90 54 64
        E 120 80 60 00
        E 0 80 54 00
        E 120 90 62 64
        E 0 90 63 64
        E 0 90 56 64
        E 0 90 57 64
        E 0 90 4a 64
        E 0 90 4b 64
        E 0 90 3f 64
        E 120 80 62 00
        E 0 80 63 00
        E 0 80 56 00
        E 0 80 57 00
        E 0 80 4a 00
        E 0 80 4b 00
        E 0 80 3f 00
        E 120 90 60 64
        E 0 90 54 64
        E 120 80 60 00
        E 0 80 54 00
        E 120 90 61 64
        E 0 90 63 64
        E 0 90 55 64
        E 0 90 57 64
        E 0 90 49 64
        E 0 90 4b 64
        E 120 80 61 00
        E 0 80 63 00
        E 0 80 55 00
        E 0 80 57 00
        E 0 80 49 00
        E 0 80 4b 00
        E 120 90 60 64
        E 0 90 54 64
        E 120 80 60 00
        E 0 80 54 00
        E 120 90 61 64
        E 0 90 62 64
        E 0 90 55 64
        E 0 90 56 64
        E 0 90 49 64
        E 0 90 4a 64
        E 0 90 3d 64
        E 120 80 55 00
        E 0 80 56 00
        E 0 80 49 00
        E 0 80 4a 00
        E 0 80 3d 00
        E 240 80 61 00
        E 0 80 62 00
        E 120 90 60 64
        E 0 90 54 64
        E 0 90 48 64
        E 0 90 3c 64
        E 120 80 60 00
        E 0 80 54 00
        E 0 80 48 00
        E 0 80 3c 00
        E 120 90 61 64
        E 0 90 63 64
        E 0 90 55 64
        E 0 90 57 64
        E 120 80 61 00
        E 0 80 63 00
        E 0 80 55 00
        E 0 80 57 00
        E 120 90 60 64
        E 0 90 54 64
        E 0 90 48 64
        E 0 90 3c 64
        E 120 80 60 00
        E 0 80 54 00
        E 0 80 48 00
        E 0 80 3c 00
        E 126 90 61 64
        E 0 90 62 64
        E 0 90 55 64
        E 0 90 56 64
        E 120 80 55 00
        E 0 80 56 00
        E 240 80 61 00
        E 0 80 62 00
        E 121 90 60 64
        E 0 90 54 64
        E 1 80 60 00
        E 0 80 54 00
        E 232 90 62 64
        E 0 90 63 64
        E 0 90 56 64
        E 0 90 57 64
        E 0 90 4a 64
        E 0 90 4b 64
        E 0 90 3f 64
        E 120 80 62 00
        E 0 80 63 00
        E 0 80 56 00
        E 0 80 57 00
        E 0 80 4a 00
        E 0 80 4b 00
        E 0 80 3f 00
        E 120 90 60 64
        E 0 90 54 64
        E 120 80 60 00
        E 0 80 54 00
        E 120 90 61 64
        E 0 90 63 64
        E 0 90 55 64
        E 0 90 57 64
        E 0 90 49 64
        E 0 90 4b 64
        E 120 80 61 00
        E 0 80 63 00
        E 0 80 55 00
        E 0 80 57 00
        E 0 80 49 00
        E 0 80 4b 00
        E 120 90 60 64
        E 0 90 54 64
        E 120 80 60 00
        E 0 80 54 00
        E 120 90 61 64
        E 0 90 62 64
        E 0 90 55 64
        E 0 90 56 64
        E 0 90 49 64
        E 0 90 4a 64
        E 0 90 3d 64
        E 120 80 55 00
        E 0 80 56 00
        E 0 80 49 00
        E 0 80 4a 00
        E 0 80 3d 00
        E 239 80 61 00
        E 0 80 62 00
        E 121 90 60 64
        E 0 90 54 64
        E 0 90 48 64
        E 0 90 3c 64
        E 120 80 60 00
        E 0 80 54 00
        E 0 80 48 00
        E 0 80 3c 00
        E 120 90 61 64
        E 0 90 63 64
        E 0 90 55 64
        E 0 90 57 64
        E 120 80 61 00
        E 0 80 63 00
        E 0 80 55 00
        E 0 80 57 00
        E 120 90 60 64
        E 0 90 54 64
        E 0 90 48 64
        E 0 90 3c 64
        E 120 80 60 00
        E 0 80 54 00
        E 0 80 48 00
        E 0 80 3c 00
        E 126 90 61 64
        E 0 90 62 64
        E 0 90 55 64
        E 0 90 56 64
        E 120 80 55 00
        E 0 80 56 00
        E 239 80 61 00
        E 0 80 62 00
        E 115 90 60 64
        E 0 90 54 64
        E 120 80 60 00
        E 0 80 54 00
        E 120 90 62 64
        E 0 90 63 64
        E 0 90 56 64
        E 0 90 57 64
        E 0 90 4a 64
        E 0 90 4b 64
        E 0 90 3f 64
        E 120 80 62 00
        E 0 80 63 00
        E 0 80 56 00
        E 0 80 57 00
        E 0 80 4a 00
        E 0 80 4b 00
        E 0 80 3f 00
        E 120 90 60 64
        E 0 90 54 64
        E 120 80 60 00
        E 0 80 54 00
        E 120 90 61 64
        E 0 90 63 64
        E 0 90 55 64
        E 0 90 57 64
        E 0 90 49 64
        E 0 90 4b 64
        E 120 80 61 00
        E 0 80 63 00
        E 0 80 55 00
        E 0 80 57 00
        E 0 80 49 00
        E 0 80 4b 00
        E 120 90 60 64
        E 0 90 54 64
        E 120 80 60 00
        E 0 80 54 00
        E 120 90 61 64
        E 0 90 62 64
        E 0 90 55 64
        E 0 90 56 64
        E 0 90 49 64
        E 0 90 4a 64
        E 0 90 3d 64
        E 120 80 55 00
        E 0 80 56 00
        E 0 80 49 00
        E 0 80 4a 00
        E 0 80 3d 00
        E 240 80 61 00
        E 0 80 62 00
        E 120 90 60 64
        E 0 90 54 64
        E 0 90 48 64
        E 0 90 3c 64
        E 120 80 60 00
        E 0 80 54 00
        E 0 80 48 00
        E 0 80 3c 00
        E 120 90 64 64
        E 0 90 58 64
        E 120 80 58 00
        E 240 80 64 00
        E 119 90 62 64
        E 0 90 56 64
        E 0 90 4a 64
        E 120 80 56 00
        E 0 80 4a 00
        E 241 80 62 00
        E 120 90 60 64
        E 0 90 54 64
        E 120 80 60 00
        E 0 80 54 00
        E 120 90 63 64
        E 0 90 57 64
        E 0 90 4b 64
        E 0 90 3f 64
        E 120 80 57 00
        E 0 80 4b 00
        E 0 80 3f 00
        E 240 80 63 00
        E 120 90 62 64
        E 0 90 56 64
        E 0 90 4a 64
        E 120 80 56 00
        E 0 80 4a 00
        E 240 80 62 00
        E 120 90 61 64
        E 0 90 55 64
        E 0 90 49 64
        E 0 90 3d 64
        E 120 80 55 00
        E 0 80 49 00
        E 0 80 3d 00
        E 240 80 61 00
        E 120 90 60 64
        E 0 90 54 64
        E 0 90 48 64
        E 0 90 3c 64
        E 120 80 60 00
        E 0 80 54 00
        E 0 80 48 00
        E 0 80 3c 00
        E 120 90 62 64
        E 0 90 63 64
        E 0 90 56 64
        E 0 90 57 64
        E 120 80 62 00
        E 0 80 63 00
        E 0 80 56 00
        E 0 80 57 00
        E 120 90 60 64
        E 0 90 54 64
        E 0 90 48 64
        E 0 90 3c 64
        E 120 80 60 00
        E 0 80 54 00
        E 0 80 48 00
        E 0 80 3c 00
        E 120 90 61 64
        E 0 90 62 64
        E 0 90 55 64
        E 0 90 56 64
        E 120 80 55 00
        E 0 80 56 00
        E 240 80 61 00
        E 0 80 62 00
        E 120 90 60 64
        E 0 90 54 64
        E 120 80 60 00
        E 0 80 54 00
        E 120 90 62 64
        E 0 90 63 64
        E 0 90 56 64
        E 0 90 57 64
        E 0 90 4a 64
        E 0 90 4b 64
        E 0 90 3f 64
        E 120 80 62 00
        E 0 80 63 00
        E 0 80 56 00
        E 0 80 57 00
        E 0 80 4a 00
        E 0 80 4b 00
        E 0 80 3f 00
        E 120 90 60 64
        E 0 90 54 64
        E 120 80 60 00
        E 0 80 54 00
        E 120 90 61 64
        E 0 90 63 64
        E 0 90 55 64
        E 0 90 57 64
        E 0 90 49 64
        E 0 90 4b 64
        E 120 80 61 00
        E 0 80 63 00
        E 0 80 55 00
        E 0 80 57 00
        E 0 80 49 00
        E 0 80 4b 00
        E 120 90 60 64
        E 0 90 54 64
        E 120 80 60 00
        E 0 80 54 00
        E 120 90 61 64
        E 0 90 62 64
        E 0 90 55 64
        E 0 90 56 64
        E 0 90 49 64
        E 0 90 4a 64
        E 0 90 3d 64
        E 120 80 55 00
        E 0 80 56 00
        E 0 80 49 00
        E 0 80 4a 00
        E 0 80 3d 00
        E 236 80 61 00
        E 0 80 62 00
        E 124 90 60 64
        E 0 90 54 64
        E 0 90 48 64
        E 0 90 3c 64
        E 120 80 60 00
        E 0 80 54 00
        E 0 80 48 00
        E 0 80 3c 00
        E 115 90 64 64
        E 0 90 58 64
        E 120 80 58 00
        E 245 80 64 00
        E 121 90 62 64
        E 0 90 56 64
        E 0 90 4a 64
        E 120 80 56 00
        E 0 80 4a 00
        E 239 80 62 00
        E 120 90 60 64
        E 0 90 54 64
        E 120 80 60 00
        E 0 80 54 00
        E 120 90 63 64
        E 0 90 57 64
        E 0 90 4b 64
        E 0 90 3f 64
        E 120 80 57 00
        E 0 80 4b 00
        E 0 80 3f 00
        E 240 80 63 00
        E 120 90 62 64
        E 0 90 56 64
        E 0 90 4a 64
        E 120 80 56 00
        E 0 80 4a 00
        E 239 80 62 00
        E 121 90 61 64
        E 0 90 55 64
        E 0 90 49 64
        E 0 90 3d 64
        E 120 80 55 00
        E 0 80 49 00
        E 0 80 3d 00
        E 239 80 61 00
        E 121 90 60 64
        E 0 90 54 64
        E 0 90 48 64
        E 0 90 3c 64
        E 120 80 60 00
        E 0 80 54 00
        E 0 80 48 00
        E 0 80 3c 00
        E 120 90 62 64
        E 0 90 63 64
        E 0 90 56 64
        E 0 90 57 64
        E 120 80 62 00
        E 0 80 63 00
        E 0 80 56 00
        E 0 80 57 00
        E 120 90 60 64
        E 0 90 54 64
        E 0 90 48 64
        E 0 90 3c 64
        E 120 80 60 00
        E 0 80 54 00
        E 0 80 48 00
        E 0 80 3c 00
        E 121 90 61 64
        E 0 90 62 64
        E 0 90 55 64
        E 0 90 56 64
        E 120 80 55 00
        E 0 80 56 00
        E 240 80 61 00
        E 0 80 62 00
        E 119 90 60 64
        E 0 90 54 64
        E 120 80 60 00
        E 0 80 54 00
        E 120 90 62 64
        E 0 90 63 64
        E 0 90 56 64
        E 0 90 57 64
        E 0 90 4a 64
        E 0 90 4b 64
        E 0 90 3f 64
        E 120 80 62 00
        E 0 80 63 00
        E 0 80 56 00
        E 0 80 57 00
        E 0 80 4a 00
        E 0 80 4b 00
        E 0 80 3f 00
        E 120 90 60 64
        E 0 90 54 64
        E 120 80 60 00
        E 0 80 54 00
        E 120 90 62 64
        E 0 90 64 64
        E 0 90 56 64
        E 0 90 58 64
        E 0 90 4a 64
        E 0 90 4b 64
        E 120 80 62 00
        E 0 80 64 00
        E 0 80 56 00
        E 0 80 58 00
        E 0 80 4a 00
        E 0 80 4b 00
        E 120 90 60 64
        E 0 90 54 64
        E 120 80 60 00
        E 0 80 54 00
        E 120 90 61 64
        E 0 90 62 64
        E 0 90 55 64
        E 0 90 56 64
        E 0 90 49 64
        E 0 90 4a 64
        E 0 90 3d 64
        E 120 80 55 00
        E 0 80 56 00
        E 0 80 49 00
        E 0 80 4a 00
        E 0 80 3d 00
        E 241 80 61 00
        E 0 80 62 00
        E 119 90 60 64
        E 0 90 54 64
        E 0 90 48 64
        E 0 90 3c 64
        E 120 80 60 00
        E 0 80 54 00
        E 0 80 48 00
        E 0 80 3c 00
        E 0 90 60 64
        E 120 80 60 00
        E 0 90 60 64
        E 0 90 54 64
        E 0 90 48 64
        E 120 80 60 00
        E 0 80 54 00
        E 0 80 48 00
        E 0 90 60 64
        E 120 80 60 00
        E 0 90 60 64
        E 0 90 54 64
        E 0 90 48 64
        E 0 90 3c 64
        E 120 80 60 00
        E 0 80 54 00
        E 0 80 48 00
        E 0 80 3c 00
        E 0 90 60 64
        E 120 80 60 00
        E 0 90 63 64
        E 0 90 64 64
        E 0 90 57 64
        E 0 90 58 64
        E 120 80 57 00
        E 0 80 58 00
        E 480 80 63 00
        E 0 80 64 00
        E 120 90 63 64
        E 0 90 57 64
        E 0 90 4b 64
        E 0 90 3f 64
        E 120 80 63 00
        E 0 80 57 00
        E 0 80 4b 00
        E 0 80 3f 00
        E 0 90 63 64
        E 120 80 63 00
        E 0 90 63 64
        E 0 90 57 64
        E 120 80 63 00
        E 0 80 57 00
        E 0 90 63 64
        E 120 80 63 00
        E 0 90 62 64
        E 0 90 66 64
        E 0 90 56 64
        E 0 90 4a 64
        E 120 80 62 00
        E 0 80 66 00
        E 0 80 56 00
        E 0 80 4a 00
        E 0 90 62 64
        E 120 80 62 00
        E 0 90 62 64
        E 0 90 56 64
        E 120 80 62 00
        E 0 80 56 00
        E 0 90 62 64
        E 120 80 62 00
        E 0 90 61 64
        E 0 90 66 64
        E 0 90 55 64
        E 0 90 49 64
        E 0 90 3d 64
        E 120 80 61 00
        E 0 80 66 00
        E 0 80 55 00
        E 0 80 49 00
        E 0 80 3d 00
        E 0 90 61 64
        E 120 80 61 00
        E 0 90 61 64
        E 0 90 55 64
        E 120 80 61 00
        E 0 80 55 00
        E 0 90 61 64
        E 120 80 61 00
        E 0 90 60 64
        E 0 90 66 64
        E 0 90 54 64
        E 0 90 48 64
        E 0 90 3c 64
        E 120 80 60 00
        E 0 80 66 00
        E 0 80 54 00
        E 0 80 48 00
        E 0 80 3c 00
        E 0 90 60 64
        E 120 80 60 00
        E 0 90 60 64
        E 0 90 54 64
        E 0 90 48 64
        E 120 80 60 00
        E 0 80 54 00
        E 0 80 48 00
        E 0 90 60 64
        E 120 80 60 00
        E 0 90 60 64
        E 0 90 54 64
        E 0 90 48 64
        E 0 90 3c 64
        E 120 80 60 00
        E 0 80 54 00
        E 0 80 48 00
        E 0 80 3c 00
        E 0 90 60 64
        E 120 80 60 00
        E 0 90 63 64
        E 0 90 64 64
        E 0 90 57 64
        E 0 90 58 64
        E 120 80 57 00
        E 0 80 58 00
        E 480 80 63 00
        E 0 80 64 00
        E 120 90 63 64
        E 0 90 57 64
        E 0 90 4b 64
        E 0 90 3f 64
        E 120 80 63 00
        E 0 80 57 00
        E 0 80 4b 00
        E 0 80 3f 00
        E 0 90 63 64
        E 120 80 63 00
        E 0 90 63 64
        E 0 90 57 64
        E 120 80 63 00
        E 0 80 57 00
        E 0 90 63 64
        E 120 80 63 00
        E 0 90 62 64
        E 0 90 66 64
        E 0 90 56 64
        E 0 90 4a 64
        E 120 80 62 00
        E 0 80 66 00
        E 0 80 56 00
        E 0 80 4a 00
        E 0 90 62 64
        E 120 80 62 00
        E 0 90 62 64
        E 0 90 56 64
        E 120 80 62 00
        E 0 80 56 00
        E 0 90 62 64
        E 120 80 62 00
        E 0 90 61 64
        E 0 90 66 64
        E 0 90 55 64
        E 0 90 49 64
        E 0 90 3d 64
        E 120 80 61 00
        E 0 80 66 00
        E 0 80 55 00
        E 0 80 49 00
        E 0 80 3d 00
        E 0 90 61 64
        E 120 80 61 00
        E 0 90 61 64
        E 0 90 55 64
        E 120 80 61 00
        E 0 80 55 00
        E 0 90 61 64
        E 120 80 61 00
        E 0 90 60 64
        E 0 90 66 64
        E 0 90 54 64
        E 0 90 48 64
        E 0 90 3c 64
        E 120 80 60 00
        E 0 80 66 00
        E 0 80 54 00
        E 0 80 48 00
        E 0 80 3c 00
        E 0 90 60 64
        E 120 80 60 00
        E 0 90 60 64
        E 0 90 54 64
        E 0 90 48 64
        E 120 80 60 00
        E 0 80 54 00
        E 0 80 48 00
        E 0 90 60 64
        E 120 80 60 00
        E 0 90 60 64
        E 0 90 54 64
        E 0 90 48 64
        E 0 90 3c 64
        E 120 80 60 00
        E 0 80 54 00
        E 0 80 48 00
        E 0 80 3c 00
        E 0 90 60 64
        E 120 80 60 00
        E 0 90 63 64
        E 0 90 64 64
        E 0 90 57 64
        E 0 90 58 64
        E 120 80 57 00
        E 0 80 58 00
        E 479 80 63 00
        E 0 80 64 00
        E 121 90 63 64
        E 0 90 57 64
        E 0 90 4b 64
        E 0 90 3f 64
        E 120 80 63 00
        E 0 80 57 00
        E 0 80 4b 00
        E 0 80 3f 00
        E 0 90 63 64
        E 120 80 63 00
        E 0 90 63 64
        E 0 90 57 64
        E 120 80 63 00
        E 0 80 57 00
        E 0 90 63 64
        E 120 80 63 00
        E 0 90 62 64
        E 0 90 66 64
        E 0 90 56 64
        E 0 90 4a 64
        E 120 80 62 00
        E 0 80 66 00
        E 0 80 56 00
        E 0 80 4a 00
        E 0 90 62 64
        E 120 80 62 00
        E 0 90 62 64
        E 0 90 56 64
        E 120 80 62 00
        E 0 80 56 00
        E 0 90 62 64
        E 120 80 62 00
        E 0 90 61 64
        E 0 90 66 64
        E 0 90 55 64
        E 0 90 49 64
        E 0 90 3d 64
        E 120 80 61 00
        E 0 80 66 00
        E 0 80 55 00
        E 0 80 49 00
        E 0 80 3d 00
        E 0 90 61 64
        E 120 80 61 00
        E 0 90 61 64
        E 0 90 55 64
        E 120 80 61 00
        E 0 80 55 00
        E 0 90 61 64
        E 120 80 61 00
        E 0 90 60 64
        E 0 90 66 64
        E 0 90 54 64
        E 0 90 48 64
        E 0 90 3c 64
        E 120 80 60 00
        E 0 80 66 00
        E 0 80 54 00
        E 0 80 48 00
        E 0 80 3c 00
        E 0 90 60 64
        E 120 80 60 00
        E 0 90 60 64
        E 0 90 54 64
        E 0 90 48 64
        E 120 80 60 00
        E 0 80 54 00
        E 0 80 48 00
        E 0 90 60 64
        E 120 80 60 00
        E 0 90 60 64
        E 0 90 54 64
        E 0 90 48 64
        E 0 90 3c 64
        E 120 80 60 00
        E 0 80 54 00
        E 0 80 48 00
        E 0 80 3c 00
        E 0 90 60 64
        E 119 90 63 64
        E 0 90 64 64
        E 0 90 57 64
        E 0 90 58 64
        E 1 80 60 00
        E 119 80 57 00
        E 0 80 58 00
        E 481 80 63 00
        E 0 80 64 00
        E 120 90 63 64
        E 0 90 57 64
        E 0 90 4b 64
        E 0 90 3f 64
        E 120 80 63 00
        E 0 80 57 00
        E 0 80 4b 00
        E 0 80 3f 00
        E 0 90 63 64
        E 120 80 63 00
        E 0 90 63 64
        E 0 90 57 64
        E 120 80 63 00
        E 0 80 57 00
        E 0 90 63 64
        E 120 80 63 00
        E 0 90 62 64
        E 0 90 66 64
        E 0 90 56 64
        E 0 90 4a 64
        E 120 80 62 00
        E 0 80 66 00
        E 0 80 56 00
        E 0 80 4a 00
        E 0 90 62 64
        E 120 80 62 00
        E 0 90 62 64
        E 0 90 56 64
        E 120 80 62 00
        E 0 80 56 00
        E 0 90 62 64
        E 120 80 62 00
        E 0 90 61 64
        E 0 90 66 64
        E 0 90 55 64
        E 0 90 49 64
        E 0 90 3d 64
        E 120 80 61 00
        E 0 80 66 00
        E 0 80 55 00
        E 0 80 49 00
        E 0 80 3d 00
        E 0 90 61 64
        E 120 80 61 00
        E 0 90 61 64
        E 0 90 55 64
        E 120 80 61 00
        E 0 80 55 00
        E 0 90 61 64
        E 120 80 61 00
        E 0 90 60 64
        E 0 90 66 64
        E 0 90 54 64
        E 0 90 48 64
        E 0 90 3c 64
        E 120 80 60 00
        E 0 80 66 00
        E 0 80 54 00
        E 0 80 48 00
        E 0 80 3c 00
        E 120 90 62 64
        E 0 90 63 64
        E 0 90 56 64
        E 0 90 57 64
        E 120 80 62 00
        E 0 80 63 00
        E 0 80 56 00
        E 0 80 57 00
        E 120 90 60 64
        E 0 90 54 64
        E 0 90 48 64
        E 0 90 3c 64
        E 120 80 60 00
        E 0 80 54 00
        E 0 80 48 00
        E 0 80 3c 00
        E 120 90 61 64
        E 0 90 62 64
        E 0 90 55 64
        E 0 90 56 64
        E 120 80 55 00
        E 0 80 56 00
        E 240 80 61 00
        E 0 80 62 00
        E 120 90 60 64
        E 0 90 54 64
        E 120 80 60 00
        E 0 80 54 00
        E 120 90 62 64
        E 0 90 63 64
        E 0 90 56 64
        E 0 90 57 64
        E 0 90 4a 64
        E 0 90 4b 64
        E 0 90 3f 64
        E 120 80 62 00
        E 0 80 63 00
        E 0 80 56 00
        E 0 80 57 00
        E 0 80 4a 00
        E 0 80 4b 00
        E 0 80 3f 00
        E 120 90 60 64
        E 0 90 54 64
        E 120 80 60 00
        E 0 80 54 00
        E 120 90 61 64
        E 0 90 63 64
        E 0 90 55 64
        E 0 90 57 64
        E 0 90 49 64
        E 0 90 4b 64
        E 120 80 61 00
        E 0 80 63 00
        E 0 80 55 00
        E 0 80 57 00
        E 0 80 49 00
        E 0 80 4b 00
        E 120 90 60 64
        E 0 90 54 64
        E 120 80 60 00
        E 0 80 54 00
        E 120 90 61 64
        E 0 90 62 64
        E 0 90 55 64
        E 0 90 56 64
        E 0 90 49 64
        E 0 90 4a 64
        E 0 90 3d 64
        E 120 80 55 00
        E 0 80 56 00
        E 0 80 49 00
        E 0 80 4a 00
        E 0 80 3d 00
        E 240 80 61 00
        E 0 80 62 00
        E 120 90 60 64
        E 0 90 54 64
        E 0 90 48 64
        E 0 90 3c 64
        E 120 80 60 00
        E 0 80 54 00
        E 0 80 48 00
        E 0 80 3c 00
        E 120 90 62 64
        E 0 90 63 64
        E 0 90 56 64
        E 0 90 57 64
        E 120 80 62 00
        E 0 80 63 00
        E 0 80 56 00
        E 0 80 57 00
        E 120 90 60 64
        E 0 90 54 64
        E 0 90 48 64
        E 0 90 3c 64
        E 120 80 60 00
        E 0 80 54 00
        E 0 80 48 00
        E 0 80 3c 00
        E 119 90 61 64
        E 0 90 62 64
        E 0 90 55 64
        E 0 90 56 64
        E 120 80 55 00
        E 0 80 56 00
        E 240 80 61 00
        E 0 80 62 00
        E 121 90 60 64
        E 0 90 54 64
        E 120 80 60 00
        E 0 80 54 00
        E 120 90 62 64
        E 0 90 63 64
        E 0 90 56 64
        E 0 90 57 64
        E 0 90 4a 64
        E 0 90 4b 64
        E 0 90 3f 64
        E 120 80 62 00
        E 0 80 63 00
        E 0 80 56 00
        E 0 80 57 00
        E 0 80 4a 00
        E 0 80 4b 00
        E 0 80 3f 00
        E 120 90 60 64
        E 0 90 54 64
        E 120 80 60 00
        E 0 80 54 00
        E 120 90 61 64
        E 0 90 63 64
        E 0 90 55 64
        E 0 90 57 64
        E 0 90 49 64
        E 0 90 4b 64
        E 120 80 61 00
        E 0 80 63 00
        E 0 80 55 00
        E 0 80 57 00
        E 0 80 49 00
        E 0 80 4b 00
        E 120 90 60 64
        E 0 90 54 64
        E 120 80 60 00
        E 0 80 54 00
        E 120 90 61 64
        E 0 90 62 64
        E 0 90 55 64
        E 0 90 56 64
        E 0 90 49 64
        E 0 90 4a 64
        E 0 90 3d 64
        E 120 80 55 00
        E 0 80 56 00
        E 0 80 49 00
        E 0 80 4a 00
        E 0 80 3d 00
        E 240 80 61 00
        E 0 80 62 00
        E 120 90 60 64
        E 0 90 54 64
        E 0 90 48 64
        E 0 90 3c 64
        E 120 80 60 00
        E 0 80 54 00
        E 0 80 48 00
        E 0 80 3c 00
        E 120 90 62 64
        E 0 90 63 64
        E 0 90 56 64
        E 0 90 57 64
        E 120 80 62 00
        E 0 80 63 00
        E 0 80 56 00
        E 0 80 57 00
        E 120 90 60 64
        E 0 90 54 64
        E 0 90 48 64
        E 0 90 3c 64
        E 120 80 60 00
        E 0 80 54 00
        E 0 80 48 00
        E 0 80 3c 00
        E 119 90 61 64
        E 0 90 62 64
        E 0 90 55 64
        E 0 90 56 64
        E 120 80 55 00
        E 0 80 56 00
        E 241 80 61 00
        E 0 80 62 00
        E 120 90 60 64
        E 0 90 54 64
        E 120 80 60 00
        E 0 80 54 00
        E 120 90 62 64
        E 0 90 63 64
        E 0 90 56 64
        E 0 90 57 64
        E 0 90 4a 64
        E 0 90 4b 64
        E 0 90 3f 64
        E 120 80 62 00
        E 0 80 63 00
        E 0 80 56 00
        E 0 80 57 00
        E 0 80 4a 00
        E 0 80 4b 00
        E 0 80 3f 00
        E 120 90 60 64
        E 0 90 54 64
        E 120 80 60 00
        E 0 80 54 00
        E 120 90 61 64
        E 0 90 63 64
        E 0 90 55 64
        E 0 90 57 64
        E 0 90 49 64
        E 0 90 4b 64
        E 120 80 61 00
        E 0 80 63 00
        E 0 80 55 00
        E 0 80 57 00
        E 0 80 49 00
        E 0 80 4b 00
        E 120 90 60 64
        E 0 90 54 64
        E 120 80 60 00
        E 0 80 54 00
        E 120 90 61 64
        E 0 90 62 64
        E 0 90 55 64
        E 0 90 56 64
        E 0 90 49 64
        E 0 90 4a 64
        E 0 90 3d 64
        E 120 80 55 00
        E 0 80 56 00
        E 0 80 49 00
        E 0 80 4a 00
        E 0 80 3d 00
        E 240 80 61 00
        E 0 80 62 00
        E 120 90 60 64
        E 0 90 54 64
        E 0 90 48 64
        E 0 90 3c 64
        E 120 80 60 00
        E 0 80 54 00
        E 0 80 48 00
        E 0 80 3c 00
        E 120 90 62 64
        E 0 90 63 64
        E 0 90 56 64
        E 0 90 57 64
        E 120 80 62 00
        E 0 80 63 00
        E 0 80 56 00
        E 0 80 57 00
        E 120 90 60 64
        E 0 90 54 64
        E 0 90 48 64
        E 0 90 3c 64
        E 120 80 60 00
        E 0 80 54 00
        E 0 80 48 00
        E 0 80 3c 00
        E 119 90 61 64
        E 0 90 62 64
        E 0 90 55 64
        E 0 90 56 64
        E 120 80 55 00
        E 0 80 56 00
        E 241 80 61 00
        E 0 80 62 00
        E 120 90 60 64
        E 0 90 54 64
        E 120 80 60 00
        E 0 80 54 00
        E 120 90 62 64
        E 0 90 63 64
        E 0 90 56 64
        E 0 90 57 64
        E 0 90 4a 64
        E 0 90 4b 64
        E 0 90 3f 64
        E 120 80 62 00
        E 0 80 63 00
        E 0 80 56 00
        E 0 80 57 00
        E 0 80 4a 00
        E 0 80 4b 00
        E 0 80 3f 00
        E 120 90 60 64
        E 0 90 54 64
        E 120 80 60 00
        E 0 80 54 00
        E 120 90 61 64
        E 0 90 63 64
        E 0 90 55 64
        E 0 90 57 64
        E 0 90 49 64
        E 0 90 4b 64
        E 120 80 61 00
        E 0 80 63 00
        E 0 80 55 00
        E 0 80 57 00
        E 0 80 49 00
        E 0 80 4b 00
        E 120 90 60 64
        E 0 90 54 64
        E 120 80 60 00
        E 0 80 54 00
        E 120 90 61 64
        E 0 90 62 64
        E 0 90 55 64
        E 0 90 56 64
        E 0 90 49 64
        E 0 90 4a 64
        E 0 90 3d 64
        E 120 80 55 00
        E 0 80 56 00
        E 0 80 49 00
        E 0 80 4a 00
        E 0 80 3d 00
        E 240 80 61 00
        E 0 80 62 00
        E 120 90 62 64
        E 0 90 63 64
        E 0 90 64 64
        E 0 90 57 64
        E 0 90 58 64
        E 0 90 4b 64
        E 0 90 4c 64
        E 0 90 40 64
        E 1681 80 40 00
        E 120 80 4b 00
        E 0 80 4c 00
        E 120 80 57 00
        E 0 80 58 00
        E 119 80 62 00
        E 0 80 63 00
        E 0 80 64 00
        E 121 90 62 64
        E 0 90 65 64
        E 0 90 56 64
        E 0 90 4a 64
        E 0 90 3e 64
        E 599 80 4a 00
        E 0 80 3e 00
        E 120 80 56 00
        E 120 80 62 00
        E 0 80 65 00
        E 120 90 61 64
        E 0 90 65 64
        E 0 90 55 64
        E 0 90 49 64
        E 599 80 49 00
        E 120 80 55 00
        E 121 80 61 00
        E 0 80 65 00
        E 119 90 60 64
        E 0 90 65 64
        E 0 90 54 64
        E 0 90 48 64
        E 0 90 3c 64
        E 120 80 54 00
        E 0 80 48 00
        E 0 80 3c 00
        E 481 80 60 00
        E 0 80 65 00
        E 120 90 61 64
        E 0 90 65 64
        E 0 90 55 64
        E 0 90 49 64
        E 120 80 61 00
        E 0 80 65 00
        E 0 80 55 00
        E 0 80 49 00
        E 120 90 62 64
        E 0 90 65 64
        E 0 90 56 64
        E 120 80 62 00
        E 0 80 65 00
        E 0 80 56 00
        E 120 90 63 64
        E 0 90 65 64
        E 0 90 57 64
        E 0 90 4b 64
        E 0 90 3f 64
        E 120 80 63 00
        E 0 80 65 00
        E 0 80 57 00
        E 0 80 4b 00
        E 0 80 3f 00
        E 120 90 64 64
        E 0 90 65 64
        E 0 90 58 64
        E 120 80 64 00
        E 0 80 65 00
        E 0 80 58 00
        E 120 90 60 64
        E 0 90 66 64
        E 0 90 54 64
        E 0 90 48 64
        E 0 90 3c 64
        E 120 80 60 00
        E 0 80 66 00
        E 0 80 54 00
        E 0 80 48 00
        E 0 80 3c 00
        E 120 90 62 64
        E 0 90 63 64
        E 0 90 56 64
        E 0 90 57 64
        E 120 80 62 00
        E 0 80 63 00
        E 0 80 56 00
        E 0 80 57 00
        E 120 90 60 64
        E 0 90 54 64
        E 0 90 48 64
        E 0 90 3c 64
        E 120 80 60 00
        E 0 80 54 00
        E 0 80 48 00
        E 0 80 3c 00
        E 121 90 61 64
        E 0 90 62 64
        E 0 90 55 64
        E 0 90 56 64
        E 120 80 55 00
        E 0 80 56 00
        E 239 80 61 00
        E 0 80 62 00
        E 120 90 60 64
        E 0 90 54 64
        E 120 80 60 00
        E 0 80 54 00
        E 120 90 62 64
        E 0 90 63 64
        E 0 90 56 64
        E 0 90 57 64
        E 0 90 4a 64
        E 0 90 4b 64
        E 0 90 3f 64
        E 120 80 62 00
        E 0 80 63 00
        E 0 80 56 00
        E 0 80 57 00
        E 0 80 4a 00
        E 0 80 4b 00
        E 0 80 3f 00
        E 120 90 60 64
        E 0 90 54 64
        E 120 80 60 00
        E 0 80 54 00
        E 120 90 61 64
        E 0 90 63 64
        E 0 90 55 64
        E 0 90 57 64
        E 0 90 49 64
        E 0 90 4b 64
        E 120 80 61 00
        E 0 80 63 00
        E 0 80 55 00
        E 0 80 57 00
        E 0 80 49 00
        E 0 80 4b 00
        E 120 90 60 64
        E 0 90 54 64
        E 120 80 60 00
        E 0 80 54 00
        E 120 90 61 64
        E 0 90 62 64
        E 0 90 55 64
        E 0 90 56 64
        E 0 90 49 64
        E 0 90 4a 64
        E 0 90 3d 64
        E 120 80 55 00
        E 0 80 56 00
        E 0 80 49 00
        E 0 80 4a 00
        E 0 80 3d 00
        E 239 80 61 00
        E 0 80 62 00
        E 121 90 60 64
        E 0 90 54 64
        E 0 90 48 64
        E 0 90 3c 64
        E 120 80 60 00
        E 0 80 54 00
        E 0 80 48 00
        E 0 80 3c 00
        E 120 90 62 64
        E 0 90 63 64
        E 0 90 56 64
        E 0 90 57 64
        E 120 80 62 00
        E 0 80 63 00
        E 0 80 56 00
        E 0 80 57 00
        E 120 90 60 64
        E 0 90 54 64
        E 0 90 48 64
        E 0 90 3c 64
        E 120 80 60 00
        E 0 80 54 00
        E 0 80 48 00
        E 0 80 3c 00
        E 120 90 61 64
        E 0 90 62 64
        E 0 90 55 64
        E 0 90 56 64
        E 120 80 55 00
        E 0 80 56 00
        E 241 80 61 00
        E 0 80 62 00
        E 119 90 60 64
        E 0 90 54 64
        E 120 80 60 00
        E 0 80 54 00
        E 120 90 62 64
        E 0 90 63 64
        E 0 90 56 64
        E 0 90 57 64
        E 0 90 4a 64
        E 0 90 4b 64
        E 0 90 3f 64
        E 120 80 62 00
        E 0 80 63 00
        E 0 80 56 00
        E 0 80 57 00
        E 0 80 4a 00
        E 0 80 4b 00
        E 0 80 3f 00
        E 120 90 60 64
        E 0 90 54 64
        E 120 80 60 00
        E 0 80 54 00
        E 120 90 61 64
        E 0 90 63 64
        E 0 90 55 64
        E 0 90 57 64
        E 0 90 49 64
        E 0 90 4b 64
        E 120 80 61 00
        E 0 80 63 00
        E 0 80 55 00
        E 0 80 57 00
        E 0 80 49 00
        E 0 80 4b 00
        E 120 90 60 64
        E 0 90 54 64
        E 120 80 60 00
        E 0 80 54 00
        E 120 90 61 64
        E 0 90 62 64
        E 0 90 55 64
        E 0 90 56 64
        E 0 90 49 64
        E 0 90 4a 64
        E 0 90 3d 64
        E 120 80 55 00
        E 0 80 56 00
        E 0 80 49 00
        E 0 80 4a 00
        E 0 80 3d 00
        E 240 80 61 00
        E 0 80 62 00
        E 120 90 62 64
        E 0 90 63 64
        E 0 90 64 64
        E 0 90 57 64
        E 0 90 58 64
        E 0 90 4b 64
        E 0 90 4c 64
        E 0 90 40 64
        E 2160 80 40 00
        E 120 80 4b 00
        E 0 80 4c 00
        E 120 80 57 00
        E 0 80 58 00
        E 119 80 62 00
        E 0 80 63 00
        E 0 80 64 00
        E 121 90 62 64
        E 0 90 65 64
        E 0 90 56 64
        E 0 90 4a 64
        E 0 90 3e 64
        E 600 80 4a 00
        E 0 80 3e 00
        E 120 80 56 00
        E 121 80 62 00
        E 0 80 65 00
        E 119 90 61 64
        E 0 90 65 64
        E 0 90 55 64
        E 0 90 49 64
        E 120 80 55 00
        E 0 80 49 00
        E 480 80 61 00
        E 0 80 65 00
        E 120 90 60 64
        E 0 90 65 64
        E 0 90 54 64
        E 0 90 48 64
        E 0 90 3c 64
        E 120 80 54 00
        E 0 80 48 00
        E 0 80 3c 00
        E 240 80 60 00
        E 0 80 65 00
        E 120 90 61 64
        E 0 90 65 64
        E 0 90 55 64
        E 0 90 49 64
        E 120 80 61 00
        E 0 80 65 00
        E 0 80 55 00
        E 0 80 49 00
        E 120 90 62 64
        E 0 90 65 64
        E 0 90 56 64
        E 120 80 62 00
        E 0 80 65 00
        E 0 80 56 00
        E 120 90 63 64
        E 0 90 65 64
        E 0 90 57 64
        E 0 90 4b 64
        E 0 90 3f 64
        E 120 80 63 00
        E 0 80 65 00
        E 0 80 57 00
        E 0 80 4b 00
        E 0 80 3f 00
        E 120 90 64 64
        E 0 90 65 64
        E 0 90 58 64
        E 120 80 64 00
        E 0 80 65 00
        E 0 80 58 00
        E 120 90 60 64
        E 0 90 54 64
        E 0 90 48 64
        E 0 90 3c 64
        E 120 80 60 00
        E 0 80 54 00
        E 0 80 48 00
        E 0 80 3c 00
        E 120 90 62 64
        E 0 90 63 64
        E 0 90 56 64
        E 0 90 57 64
        E 120 80 62 00
        E 0 80 63 00
        E 0 80 56 00
        E 0 80 57 00
        E 120 90 60 64
        E 0 90 54 64
        E 0 90 48 64
        E 0 90 3c 64
        E 120 80 60 00
        E 0 80 54 00
        E 0 80 48 00
        E 0 80 3c 00
        E 120 90 61 64
        E 0 90 62 64
        E 0 90 55 64
        E 0 90 56 64
        E 120 80 55 00
        E 0 80 56 00
        E 241 80 61 00
        E 0 80 62 00
        E 119 90 60 64
        E 0 90 54 64
        E 120 80 60 00
        E 0 80 54 00
        E 120 90 62 64
        E 0 90 63 64
        E 0 90 56 64
        E 0 90 57 64
        E 0 90 4a 64
        E 0 90 4b 64
        E 0 90 3f 64
        E 120 80 62 00
        E 0 80 63 00
        E 0 80 56 00
        E 0 80 57 00
        E 0 80 4a 00
        E 0 80 4b 00
        E 0 80 3f 00
        E 120 90 60 64
        E 0 90 54 64
        E 120 80 60 00
        E 0 80 54 00
        E 120 90 61 64
        E 0 90 63 64
        E 0 90 55 64
        E 0 90 57 64
        E 0 90 49 64
        E 0 90 4b 64
        E 120 80 61 00
        E 0 80 63 00
        E 0 80 55 00
        E 0 80 57 00
        E 0 80 49 00
        E 0 80 4b 00
        E 120 90 60 64
        E 0 90 54 64
        E 120 80 60 00
        E 0 80 54 00
        E 120 90 61 64
        E 0 90 62 64
        E 0 90 55 64
        E 0 90 56 64
        E 0 90 49 64
        E 0 90 4a 64
        E 0 90 3d 64
        E 120 80 55 00
        E 0 80 56 00
        E 0 80 49 00
        E 0 80 4a 00
        E 0 80 3d 00
        E 240 80 61 00
        E 0 80 62 00
        E 120 90 60 64
        E 0 90 54 64
        E 0 90 48 64
        E 0 90 3c 64
        E 120 80 60 00
        E 0 80 54 00
        E 0 80 48 00
        E 0 80 3c 00
        E 120 90 62 64
        E 0 90 63 64
        E 0 90 56 64
        E 0 90 57 64
        E 120 80 62 00
        E 0 80 63 00
        E 0 80 56 00
        E 0 80 57 00
        E 120 90 60 64
        E 0 90 54 64
        E 0 90 48 64
        E 0 90 3c 64
        E 120 80 60 00
        E 0 80 54 00
        E 0 80 48 00
        E 0 80 3c 00
        E 121 90 61 64
        E 0 90 62 64
        E 0 90 55 64
        E 0 90 56 64
        E 120 80 55 00
        E 0 80 56 00
        E 239 80 61 00
        E 0 80 62 00
        E 120 90 60 64
        E 0 90 54 64
        E 120 80 60 00
        E 0 80 54 00
        E 120 90 62 64
        E 0 90 63 64
        E 0 90 56 64
        E 0 90 57 64
        E 0 90 4a 64
        E 0 90 4b 64
        E 0 90 3f 64
        E 120 80 62 00
        E 0 80 63 00
        E 0 80 56 00
        E 0 80 57 00
        E 0 80 4a 00
        E 0 80 4b 00
        E 0 80 3f 00
        E 120 90 60 64
        E 0 90 54 64
        E 120 80 60 00
        E 0 80 54 00
        E 120 90 61 64
        E 0 90 63 64
        E 0 90 55 64
        E 0 90 57 64
        E 0 90 49 64
        E 0 90 4b 64
        E 120 80 61 00
        E 0 80 63 00
        E 0 80 55 00
        E 0 80 57 00
        E 0 80 49 00
        E 0 80 4b 00
        E 120 90 60 64
        E 0 90 54 64
        E 120 80 60 00
        E 0 80 54 00
        E 120 90 61 64
        E 0 90 62 64
        E 0 90 55 64
        E 0 90 56 64
        E 0 90 49 64
        E 0 90 4a 64
        E 0 90 3d 64
        E 120 80 55 00
        E 0 80 56 00
        E 0 80 49 00
        E 0 80 4a 00
        E 0 80 3d 00
        E 239 80 61 00
        E 0 80 62 00
        E 121 90 60 64
        E 0 90 54 64
        E 0 90 48 64
        E 0 90 3c 64
        E 120 80 60 00
        E 0 80 54 00
        E 0 80 48 00
        E 0 80 3c 00
        E 120 90 62 64
        E 0 90 63 64
        E 0 90 56 64
        E 0 90 57 64
        E 120 80 62 00
        E 0 80 63 00
        E 0 80 56 00
        E 0 80 57 00
        E 120 90 60 64
        E 0 90 54 64
        E 0 90 48 64
        E 0 90 3c 64
        E 120 80 60 00
        E 0 80 54 00
        E 0 80 48 00
        E 0 80 3c 00
        E 121 90 61 64
        E 0 90 62 64
        E 0 90 55 64
        E 0 90 56 64
        E 120 80 55 00
        E 0 80 56 00
        E 240 80 61 00
        E 0 80 62 00
        E 119 90 60 64
        E 0 90 54 64
        E 120 80 60 00
        E 0 80 54 00
        E 120 90 62 64
        E 0 90 63 64
        E 0 90 56 64
        E 0 90 57 64
        E 0 90 4a 64
        E 0 90 4b 64
        E 0 90 3f 64
        E 120 80 62 00
        E 0 80 63 00
        E 0 80 56 00
        E 0 80 57 00
        E 0 80 4a 00
        E 0 80 4b 00
        E 0 80 3f 00
        E 120 90 60 64
        E 0 90 54 64
        E 120 80 60 00
        E 0 80 54 00
        E 120 90 61 64
        E 0 90 63 64
        E 0 90 55 64
        E 0 90 57 64
        E 0 90 49 64
        E 0 90 4b 64
        E 120 80 61 00
        E 0 80 63 00
        E 0 80 55 00
        E 0 80 57 00
        E 0 80 49 00
        E 0 80 4b 00
        E 120 90 60 64
        E 0 90 54 64
        E 120 80 60 00
        E 0 80 54 00
        E 120 90 61 64
        E 0 90 62 64
        E 0 90 55 64
        E 0 90 56 64
        E 0 90 49 64
        E 0 90 4a 64
        E 0 90 3d 64
        E 120 80 55 00
        E 0 80 56 00
        E 0 80 49 00
        E 0 80 4a 00
        E 0 80 3d 00
        E 241 80 61 00
        E 0 80 62 00
        E 119 90 60 64
        E 0 90 54 64
        E 0 90 48 64
        E 0 90 3c 64
        E 120 80 60 00
        E 0 80 54 00
        E 0 80 48 00
        E 0 80 3c 00
        E 120 90 62 64
        E 0 90 63 64
        E 0 90 56 64
        E 0 90 57 64
        E 120 80 62 00
        E 0 80 63 00
        E 0 80 56 00
        E 0 80 57 00
        E 120 90 60 64
        E 0 90 54 64
        E 0 90 48 64
        E 0 90 3c 64
        E 120 80 60 00
        E 0 80 54 00
        E 0 80 48 00
        E 0 80 3c 00
        E 121 90 61 64
        E 0 90 62 64
        E 0 90 55 64
        E 0 90 56 64
        E 120 80 55 00
        E 0 80 56 00
        E 238 80 61 00
        E 0 80 62 00
        E 121 90 60 64
        E 0 90 54 64
        E 120 80 60 00
        E 0 80 54 00
        E 120 90 62 64
        E 0 90 63 64
        E 0 90 56 64
        E 0 90 57 64
        E 0 90 4a 64
        E 0 90 4b 64
        E 0 90 3f 64
        E 120 80 62 00
        E 0 80 63 00
        E 0 80 56 00
        E 0 80 57 00
        E 0 80 4a 00
        E 0 80 4b 00
        E 0 80 3f 00
        E 120 90 60 64
        E 0 90 54 64
        E 120 80 60 00
        E 0 80 54 00
        E 120 90 61 64
        E 0 90 63 64
        E 0 90 55 64
        E 0 90 57 64
        E 0 90 49 64
        E 0 90 4b 64
        E 120 80 61 00
        E 0 80 63 00
        E 0 80 55 00
        E 0 80 57 00
        E 0 80 49 00
        E 0 80 4b 00
        E 120 90 60 64
        E 0 90 54 64
        E 120 80 60 00
        E 0 80 54 00
        E 120 90 61 64
        E 0 90 62 64
        E 0 90 55 64
        E 0 90 56 64
        E 0 90 49 64
        E 0 90 4a 64
        E 0 90 3d 64
        E 120 80 55 00
        E 0 80 56 00
        E 0 80 49 00
        E 0 80 4a 00
        E 0 80 3d 00
        E 240 80 61 00
        E 0 80 62 00
        E 120 90 60 64
        E 0 90 54 64
        E 0 90 48 64
        E 0 90 3c 64
        E 120 80 60 00
        E 0 80 54 00
        E 0 80 48 00
        E 0 80 3c 00
        E 0 90 60 64
        E 120 80 60 00
        E 0 90 60 64
        E 0 90 54 64
        E 0 90 48 64
        E 120 80 60 00
        E 0 80 54 00
        E 0 80 48 00
        E 0 90 60 64
        E 120 80 60 00
        E 0 90 60 64
        E 0 90 54 64
        E 0 90 48 64
        E 0 90 3c 64
        E 120 80 60 00
        E 0 80 54 00
        E 0 80 48 00
        E 0 80 3c 00
        E 0 90 60 64
        E 120 80 60 00
        E 1 90 63 64
        E 0 90 64 64
        E 0 90 57 64
        E 0 90 58 64
        E 120 80 57 00
        E 0 80 58 00
        E 479 80 63 00
        E 0 80 64 00
        E 120 90 63 64
        E 0 90 57 64
        E 0 90 4b 64
        E 0 90 3f 64
        E 120 80 63 00
        E 0 80 57 00
        E 0 80 4b 00
        E 0 80 3f 00
        E 0 90 63 64
        E 120 80 63 00
        E 0 90 63 64
        E 0 90 57 64
        E 120 80 63 00
        E 0 80 57 00
        E 0 90 63 64
        E 120 80 63 00
        E 0 90 62 64
        E 0 90 66 64
        E 0 90 56 64
        E 0 90 4a 64
        E 120 80 62 00
        E 0 80 66 00
        E 0 80 56 00
        E 0 80 4a 00
        E 0 90 62 64
        E 120 80 62 00
        E 0 90 62 64
        E 0 90 56 64
        E 120 80 62 00
        E 0 80 56 00
        E 0 90 62 64
        E 120 80 62 00
        E 0 90 61 64
        E 0 90 66 64
        E 0 90 55 64
        E 0 90 49 64
        E 0 90 3d 64
        E 120 80 61 00
        E 0 80 66 00
        E 0 80 55 00
        E 0 80 49 00
        E 0 80 3d 00
        E 0 90 61 64
        E 120 80 61 00
        E 0 90 61 64
        E 0 90 55 64
        E 120 80 61 00
        E 0 80 55 00
        E 0 90 61 64
        E 120 80 61 00
        E 0 90 60 64
        E 0 90 66 64
        E 0 90 54 64
        E 0 90 48 64
        E 0 90 3c 64
        E 120 80 60 00
        E 0 80 66 00
        E 0 80 54 00
        E 0 80 48 00
        E 0 80 3c 00
        E 0 90 60 64
        E 120 80 60 00
        E 0 90 60 64
        E 0 90 54 64
        E 0 90 48 64
        E 120 80 60 00
        E 0 80 54 00
        E 0 80 48 00
        E 0 90 60 64
        E 120 80 60 00
        E 0 90 60 64
        E 0 90 54 64
        E 0 90 48 64
        E 0 90 3c 64
        E 120 80 60 00
        E 0 80 54 00
        E 0 80 48 00
        E 0 80 3c 00
        E 0 90 60 64
        E 120 80 60 00
        E 0 90 63 64
        E 0 90 64 64
        E 0 90 57 64
        E 0 90 58 64
        E 120 80 57 00
        E 0 80 58 00
        E 481 80 63 00
        E 0 80 64 00
        E 119 90 63 64
        E 0 90 57 64
        E 0 90 4b 64
        E 0 90 3f 64
        E 120 80 63 00
        E 0 80 57 00
        E 0 80 4b 00
        E 0 80 3f 00
        E 0 90 63 64
        E 120 80 63 00
        E 0 90 63 64
        E 0 90 57 64
        E 120 80 63 00
        E 0 80 57 00
        E 0 90 63 64
        E 120 80 63 00
        E 0 90 62 64
        E 0 90 66 64
        E 0 90 56 64
        E 0 90 4a 64
        E 120 80 62 00
        E 0 80 66 00
        E 0 80 56 00
        E 0 80 4a 00
        E 0 90 62 64
        E 120 80 62 00
        E 0 90 62 64
        E 0 90 56 64
        E 120 80 62 00
        E 0 80 56 00
        E 0 90 62 64
        E 120 80 62 00
        E 0 90 61 64
        E 0 90 66 64
        E 0 90 55 64
        E 0 90 49 64
        E 0 90 3d 64
        E 120 80 61 00
        E 0 80 66 00
        E 0 80 55 00
        E 0 80 49 00
        E 0 80 3d 00
        E 0 90 61 64
        E 120 80 61 00
        E 0 90 61 64
        E 0 90 55 64
        E 120 80 61 00
        E 0 80 55 00
        E 0 90 61 64
        E 120 80 61 00
        E 0 90 60 64
        E 0 90 66 64
        E 0 90 54 64
        E 0 90 48 64
        E 0 90 3c 64
        E 120 80 60 00
        E 0 80 66 00
        E 0 80 54 00
        E 0 80 48 00
        E 0 80 3c 00
        E 0 90 60 64
        E 120 80 60 00
        E 0 90 60 64
        E 0 90 54 64
        E 0 90 48 64
        E 120 80 60 00
        E 0 80 54 00
        E 0 80 48 00
        E 0 90 60 64
        E 120 80 60 00
        E 0 90 60 64
        E 0 90 54 64
        E 0 90 48 64
        E 0 90 3c 64
        E 120 80 60 00
        E 0 80 54 00
        E 0 80 48 00
        E 0 80 3c 00
        E 0 90 60 64
        E 120 80 60 00
        E 0 90 63 64
        E 0 90 64 64
        E 0 90 57 64
        E 0 90 58 64
        E 120 80 57 00
        E 0 80 58 00
        E 479 80 63 00
        E 0 80 64 00
        E 121 90 63 64
        E 0 90 57 64
        E 0 90 4b 64
        E 0 90 3f 64
        E 120 80 63 00
        E 0 80 57 00
        E 0 80 4b 00
        E 0 80 3f 00
        E 0 90 63 64
        E 120 80 63 00
        E 0 90 63 64
        E 0 90 57 64
        E 120 80 63 00
        E 0 80 57 00
        E 0 90 63 64
        E 120 80 63 00
        E 0 90 62 64
        E 0 90 66 64
        E 0 90 56 64
        E 0 90 4a 64
        E 120 80 62 00
        E 0 80 66 00
        E 0 80 56 00
        E 0 80 4a 00
        E 0 90 62 64
        E 120 80 62 00
        E 0 90 62 64
        E 0 90 56 64
        E 120 80 62 00
        E 0 80 56 00
        E 0 90 62 64
        E 120 80 62 00
        E 0 90 61 64
        E 0 90 66 64
        E 0 90 55 64
        E 0 90 49 64
        E 0 90 3d 64
        E 120 80 61 00
        E 0 80 66 00
        E 0 80 55 00
        E 0 80 49 00
        E 0 80 3d 00
        E 0 90 61 64
        E 120 80 61 00
        E 0 90 61 64
        E 0 90 55 64
        E 120 80 61 00
        E 0 80 55 00
        E 0 90 61 64
        E 120 80 61 00
        E 0 90 60 64
        E 0 90 66 64
        E 0 90 54 64
        E 0 90 48 64
        E 0 90 3c 64
        E 120 80 60 00
        E 0 80 66 00
        E 0 80 54 00
        E 0 80 48 00
        E 0 80 3c 00
        E 0 90 60 64
        E 120 80 60 00
        E 0 90 60 64
        E 0 90 54 64
        E 0 90 48 64
        E 120 80 60 00
        E 0 80 54 00
        E 0 80 48 00
        E 0 90 60 64
        E 120 80 60 00
        E 0 90 60 64
        E 0 90 54 64
        E 0 90 48 64
        E 0 90 3c 64
        E 120 80 60 00
        E 0 80 54 00
        E 0 80 48 00
        E 0 80 3c 00
        E 0 90 60 64
        E 120 80 60 00
        E 1 90 63 64
        E 0 90 64 64
        E 0 90 57 64
        E 0 90 58 64
        E 120 80 57 00
        E 0 80 58 00
        E 479 80 63 00
        E 0 80 64 00
        E 120 90 63 64
        E 0 90 57 64
        E 0 90 4b 64
        E 0 90 3f 64
        E 120 80 63 00
        E 0 80 57 00
        E 0 80 4b 00
        E 0 80 3f 00
        E 0 90 63 64
        E 120 80 63 00
        E 0 90 63 64
        E 0 90 57 64
        E 120 80 63 00
        E 0 80 57 00
        E 0 90 63 64
        E 120 80 63 00
        E 0 90 62 64
        E 0 90 66 64
        E 0 90 56 64
        E 0 90 4a 64
        E 120 80 62 00
        E 0 80 66 00
        E 0 80 56 00
        E 0 80 4a 00
        E 0 90 62 64
        E 120 80 62 00
        E 0 90 62 64
        E 0 90 56 64
        E 120 80 62 00
        E 0 80 56 00
        E 0 90 62 64
        E 120 80 62 00
        E 0 90 61 64
        E 0 90 66 64
        E 0 90 55 64
        E 0 90 49 64
        E 0 90 3d 64
        E 120 80 61 00
        E 0 80 66 00
        E 0 80 55 00
        E 0 80 49 00
        E 0 80 3d 00
        E 0 90 61 64
        E 120 80 61 00
        E 0 90 61 64
        E 0 90 55 64
        E 120 80 61 00
        E 0 80 55 00
        E 0 90 61 64
        E 120 80 61 00
        E 0 90 61 64
        E 0 90 62 64
        E 0 90 55 64
        E 0 90 56 64
        E 0 90 49 64
        E 0 90 4a 64
        E 0 90 3d 64
        E 120 80 61 00
        E 0 80 62 00
        E 0 80 55 00
        E 0 80 56 00
        E 0 80 49 00
        E 0 80 4a 00
        E 0 80 3d 00
        E 120 90 61 64
        E 0 90 62 64
        E 0 90 55 64
        E 0 90 56 64
        E 0 90 49 64
        E 0 90 4a 64
        E 120 80 61 00
        E 0 80 62 00
        E 0 80 55 00
        E 0 80 56 00
        E 0 80 49 00
        E 0 80 4a 00
        E 120 90 61 64
        E 0 90 62 64
        E 0 90 55 64
        E 0 90 56 64
        E 0 90 49 64
        E 0 90 4a 64
        E 0 90 3d 64
        E 120 80 61 00
        E 0 80 62 00
        E 0 80 55 00
        E 0 80 56 00
        E 0 80 49 00
        E 0 80 4a 00
        E 0 80 3d 00
        E 120 90 61 64
        E 0 90 62 64
        E 0 90 55 64
        E 0 90 56 64
        E 120 80 61 00
        E 0 80 62 00
        E 0 80 55 00
        E 0 80 56 00
        E 120 90 62 64
        E 0 90 63 64
        E 0 90 56 64
        E 0 90 57 64
        E 0 90 4a 64
        E 0 90 4b 64
        E 0 90 3f 64
        E 120 80 62 00
        E 0 80 63 00
        E 0 80 56 00
        E 0 80 57 00
        E 0 80 4a 00
        E 0 80 4b 00
        E 0 80 3f 00
        E 120 90 62 64
        E 0 90 63 64
        E 0 90 56 64
        E 0 90 57 64
        E 0 90 4a 64
        E 0 90 4b 64
        E 120 80 62 00
        E 0 80 63 00
        E 0 80 56 00
        E 0 80 57 00
        E 0 80 4a 00
        E 0 80 4b 00
        E 120 90 62 64
        E 0 90 63 64
        E 0 90 56 64
        E 0 90 57 64
        E 0 90 4a 64
        E 0 90 4b 64
        E 0 90 3f 64
        E 120 80 62 00
        E 0 80 63 00
        E 0 80 56 00
        E 0 80 57 00
        E 0 80 4a 00
        E 0 80 4b 00
        E 0 80 3f 00
        E 120 90 61 64
        E 0 90 63 64
        E 0 90 55 64
        E 0 90 57 64
        E 120 80 61 00
        E 0 80 63 00
        E 0 80 55 00
        E 0 80 57 00
        E 120 90 61 64
        E 0 90 63 64
        E 0 90 55 64
        E 0 90 57 64
        E 0 90 49 64
        E 0 90 4b 64
        E 0 90 3e 64
        E 120 80 61 00
        E 0 80 63 00
        E 0 80 55 00
        E 0 80 57 00
        E 0 80 49 00
        E 0 80 4b 00
        E 0 80 3e 00
        E 120 90 61 64
        E 0 90 63 64
        E 0 90 55 64
        E 0 90 57 64
        E 0 90 49 64
        E 0 90 4b 64
        E 120 80 61 00
        E 0 80 63 00
        E 0 80 55 00
        E 0 80 57 00
        E 0 80 49 00
        E 0 80 4b 00
        E 120 90 61 64
        E 0 90 63 64
        E 0 90 55 64
        E 0 90 57 64
        E 0 90 49 64
        E 0 90 4b 64
        E 0 90 3e 64
        E 120 80 61 00
        E 0 80 63 00
        E 0 80 55 00
        E 0 80 57 00
        E 0 80 49 00
        E 0 80 4b 00
        E 0 80 3e 00
        E 120 90 61 64
        E 0 90 63 64
        E 0 90 55 64
        E 0 90 57 64
        E 120 80 61 00
        E 0 80 63 00
        E 0 80 55 00
        E 0 80 57 00
        E 120 90 60 64
        E 0 90 61 64
        E 0 90 54 64
        E 0 90 55 64
        E 0 90 48 64
        E 0 90 49 64
        E 0 90 3c 64
        E 120 80 60 00
        E 0 80 61 00
        E 0 80 54 00
        E 0 80 55 00
        E 0 80 48 00
        E 0 80 49 00
        E 0 80 3c 00
        E 120 90 60 64
        E 0 90 61 64
        E 0 90 54 64
        E 0 90 55 64
        E 120 80 60 00
        E 0 80 61 00
        E 0 80 54 00
        E 0 80 55 00
        E 120 90 61 64
        E 0 90 63 64
        E 0 90 55 64
        E 0 90 57 64
        E 0 90 49 64
        E 0 90 4b 64
        E 120 80 61 00
        E 0 80 63 00
        E 0 80 55 00
        E 0 80 57 00
        E 0 80 49 00
        E 0 80 4b 00
        E 120 90 61 64
        E 0 90 63 64
        E 0 90 55 64
        E 0 90 57 64
        E 120 80 61 00
        E 0 80 63 00
        E 0 80 55 00
        E 0 80 57 00
        E 120 90 61 64
        E 0 90 62 64
        E 0 90 55 64
        E 0 90 56 64
        E 0 90 49 64
        E 0 90 4a 64
        E 0 90 3d 64
        E 120 80 61 00
        E 0 80 62 00
        E 0 80 55 00
        E 0 80 56 00
        E 0 80 49 00
        E 0 80 4a 00
        E 0 80 3d 00
        E 120 90 61 64
        E 0 90 62 64
        E 0 90 55 64
        E 0 90 56 64
        E 0 90 49 64
        E 0 90 4a 64
        E 120 80 61 00
        E 0 80 62 00
        E 0 80 55 00
        E 0 80 56 00
        E 0 80 49 00
        E 0 80 4a 00
        E 120 90 61 64
        E 0 90 62 64
        E 0 90 55 64
        E 0 90 56 64
        E 0 90 49 64
        E 0 90 4a 64
        E 0 90 3d 64
        E 120 80 61 00
        E 0 80 62 00
        E 0 80 55 00
        E 0 80 56 00
        E 0 80 49 00
        E 0 80 4a 00
        E 0 80 3d 00
        E 120 90 61 64
        E 0 90 62 64
        E 0 90 55 64
        E 0 90 56 64
        E 120 80 61 00
        E 0 80 62 00
        E 0 80 55 00
        E 0 80 56 00
        E 120 90 60 64
        E 0 90 61 64
        E 0 90 54 64
        E 0 90 55 64
        E 0 90 48 64
        E 0 90 49 64
        E 0 90 3c 64
        E 120 80 60 00
        E 0 80 61 00
        E 0 80 54 00
        E 0 80 55 00
        E 0 80 48 00
        E 0 80 49 00
        E 0 80 3c 00
        E 120 90 60 64
        E 0 90 61 64
        E 0 90 54 64
        E 0 90 55 64
        E 120 80 60 00
        E 0 80 61 00
        E 0 80 54 00
        E 0 80 55 00
        E 120 90 61 64
        E 0 90 63 64
        E 0 90 55 64
        E 0 90 57 64
        E 0 90 49 64
        E 0 90 4b 64
        E 120 80 61 00
        E 0 80 63 00
        E 0 80 55 00
        E 0 80 57 00
        E 0 80 49 00
        E 0 80 4b 00
        E 120 90 61 64
        E 0 90 63 64
        E 0 90 55 64
        E 0 90 57 64
        E 120 80 61 00
        E 0 80 63 00
        E 0 80 55 00
        E 0 80 57 00
        E 120 90 61 64
        E 0 90 62 64
        E 0 90 55 64
        E 0 90 56 64
        E 0 90 49 64
        E 0 90 4a 64
        E 0 90 3d 64
        E 120 80 61 00
        E 0 80 62 00
        E 0 80 55 00
        E 0 80 56 00
        E 0 80 49 00
        E 0 80 4a 00
        E 0 80 3d 00
        E 120 90 61 64
        E 0 90 62 64
        E 0 90 55 64
        E 0 90 56 64
        E 0 90 49 64
        E 0 90 4a 64
        E 120 80 61 00
        E 0 80 62 00
        E 0 80 55 00
        E 0 80 56 00
        E 0 80 49 00
        E 0 80 4a 00
        E 120 90 61 64
        E 0 90 62 64
        E 0 90 55 64
        E 0 90 56 64
        E 0 90 49 64
        E 0 90 4a 64
        E 0 90 3d 64
        E 120 80 61 00
        E 0 80 62 00
        E 0 80 55 00
        E 0 80 56 00
        E 0 80 49 00
        E 0 80 4a 00
        E 0 80 3d 00
        E 120 90 61 64
        E 0 90 62 64
        E 0 90 55 64
        E 0 90 56 64
        E 120 80 61 00
        E 0 80 62 00
        E 0 80 55 00
        E 0 80 56 00
        E 120 90 62 64
        E 0 90 63 64
        E 0 90 56 64
        E 0 90 57 64
        E 0 90 4a 64
        E 0 90 4b 64
        E 0 90 3f 64
        E 120 80 62 00
        E 0 80 63 00
        E 0 80 56 00
        E 0 80 57 00
        E 0 80 4a 00
        E 0 80 4b 00
        E 0 80 3f 00
        E 120 90 62 64
        E 0 90 63 64
        E 0 90 56 64
        E 0 90 57 64
        E 0 90 4a 64
        E 0 90 4b 64
        E 120 80 62 00
        E 0 80 63 00
        E 0 80 56 00
        E 0 80 57 00
        E 0 80 4a 00
        E 0 80 4b 00
        E 120 90 62 64
        E 0 90 63 64
        E 0 90 56 64
        E 0 90 57 64
        E 0 90 4a 64
        E 0 90 4b 64
        E 0 90 3f 64
        E 120 80 62 00
        E 0 80 63 00
        E 0 80 56 00
        E 0 80 57 00
        E 0 80 4a 00
        E 0 80 4b 00
        E 0 80 3f 00
        E 120 90 62 64
        E 0 90 63 64
        E 0 90 56 64
        E 0 90 57 64
        E 120 80 62 00
        E 0 80 63 00
        E 0 80 56 00
        E 0 80 57 00
        E 120 90 61 64
        E 0 90 62 64
        E 0 90 55 64
        E 0 90 56 64
        E 0 90 49 64
        E 0 90 4a 64
        E 0 90 3d 64
        E 120 80 61 00
        E 0 80 62 00
        E 0 80 55 00
        E 0 80 56 00
        E 0 80 49 00
        E 0 80 4a 00
        E 0 80 3d 00
        E 120 90 61 64
        E 0 90 62 64
        E 0 90 55 64
        E 0 90 56 64
        E 0 90 49 64
        E 0 90 4a 64
        E 120 80 61 00
        E 0 80 62 00
        E 0 80 55 00
        E 0 80 56 00
        E 0 80 49 00
        E 0 80 4a 00
        E 120 90 61 64
        E 0 90 62 64
        E 0 90 55 64
        E 0 90 56 64
        E 0 90 49 64
        E 0 90 4a 64
        E 0 90 3d 64
        E 120 80 61 00
        E 0 80 62 00
        E 0 80 55 00
        E 0 80 56 00
        E 0 80 49 00
        E 0 80 4a 00
        E 0 80 3d 00
        E 120 90 61 64
        E 0 90 62 64
        E 0 90 55 64
        E 0 90 56 64
        E 120 80 61 00
        E 0 80 62 00
        E 0 80 55 00
        E 0 80 56 00
        E 120 90 62 64
        E 0 90 63 64
        E 0 90 56 64
        E 0 90 57 64
        E 0 90 4a 64
        E 0 90 4b 64
        E 0 90 3f 64
        E 120 80 62 00
        E 0 80 63 00
        E 0 80 56 00
        E 0 80 57 00
        E 0 80 4a 00
        E 0 80 4b 00
        E 0 80 3f 00
        E 120 90 62 64
        E 0 90 63 64
        E 0 90 56 64
        E 0 90 57 64
        E 0 90 4a 64
        E 0 90 4b 64
        E 120 80 62 00
        E 0 80 63 00
        E 0 80 56 00
        E 0 80 57 00
        E 0 80 4a 00
        E 0 80 4b 00
        E 120 90 62 64
        E 0 90 63 64
        E 0 90 56 64
        E 0 90 57 64
        E 0 90 4a 64
        E 0 90 4b 64
        E 0 90 3f 64
        E 120 80 62 00
        E 0 80 63 00
        E 0 80 56 00
        E 0 80 57 00
        E 0 80 4a 00
        E 0 80 4b 00
        E 0 80 3f 00
        E 120 90 61 64
        E 0 90 63 64
        E 0 90 55 64
        E 0 90 57 64
        E 120 80 61 00
        E 0 80 63 00
        E 0 80 55 00
        E 0 80 57 00
        E 120 90 61 64
        E 0 90 63 64
        E 0 90 55 64
        E 0 90 57 64
        E 0 90 49 64
        E 0 90 4b 64
        E 0 90 3e 64
        E 120 80 61 00
        E 0 80 63 00
        E 0 80 55 00
        E 0 80 57 00
        E 0 80 49 00
        E 0 80 4b 00
        E 0 80 3e 00
        E 120 90 61 64
        E 0 90 63 64
        E 0 90 55 64
        E 0 90 57 64
        E 0 90 49 64
        E 0 90 4b 64
        E 120 80 61 00
        E 0 80 63 00
        E 0 80 55 00
        E 0 80 57 00
        E 0 80 49 00
        E 0 80 4b 00
        E 120 90 61 64
        E 0 90 63 64
        E 0 90 55 64
        E 0 90 57 64
        E 0 90 49 64
        E 0 90 4b 64
        E 0 90 3e 64
        E 120 80 61 00
        E 0 80 63 00
        E 0 80 55 00
        E 0 80 57 00
        E 0 80 49 00
        E 0 80 4b 00
        E 0 80 3e 00
        E 120 90 61 64
        E 0 90 63 64
        E 0 90 55 64
        E 0 90 57 64
        E 120 80 61 00
        E 0 80 63 00
        E 0 80 55 00
        E 0 80 57 00
        E 120 90 60 64
        E 0 90 61 64
        E 0 90 54 64
        E 0 90 55 64
        E 0 90 48 64
        E 0 90 49 64
        E 0 90 3c 64
        E 120 80 60 00
        E 0 80 61 00
        E 0 80 54 00
        E 0 80 55 00
        E 0 80 48 00
        E 0 80 49 00
        E 0 80 3c 00
        E 120 90 60 64
        E 0 90 61 64
        E 0 90 54 64
        E 0 90 55 64
        E 120 80 60 00
        E 0 80 61 00
        E 0 80 54 00
        E 0 80 55 00
        E 120 90 61 64
        E 0 90 63 64
        E 0 90 55 64
        E 0 90 57 64
        E 0 90 49 64
        E 0 90 4b 64
        E 120 80 61 00
        E 0 80 63 00
        E 0 80 55 00
        E 0 80 57 00
        E 0 80 49 00
        E 0 80 4b 00
        E 120 90 61 64
        E 0 90 63 64
        E 0 90 55 64
        E 0 90 57 64
        E 120 80 61 00
        E 0 80 63 00
        E 0 80 55 00
        E 0 80 57 00
        E 120 90 61 64
        E 0 90 62 64
        E 0 90 55 64
        E 0 90 56 64
        E 0 90 49 64
        E 0 90 4a 64
        E 0 90 3d 64
        E 120 80 61 00
        E 0 80 62 00
        E 0 80 55 00
        E 0 80 56 00
        E 0 80 49 00
        E 0 80 4a 00
        E 0 80 3d 00
        E 120 90 61 64
        E 0 90 62 64
        E 0 90 55 64
        E 0 90 56 64
        E 0 90 49 64
        E 0 90 4a 64
        E 120 80 61 00
        E 0 80 62 00
        E 0 80 55 00
        E 0 80 56 00
        E 0 80 49 00
        E 0 80 4a 00
        E 120 90 61 64
        E 0 90 62 64
        E 0 90 55 64
        E 0 90 56 64
        E 0 90 49 64
        E 0 90 4a 64
        E 0 90 3d 64
        E 120 80 61 00
        E 0 80 62 00
        E 0 80 55 00
        E 0 80 56 00
        E 0 80 49 00
        E 0 80 4a 00
        E 0 80 3d 00
        E 120 90 61 64
        E 0 90 62 64
        E 0 90 55 64
        E 0 90 56 64
        E 120 80 61 00
        E 0 80 62 00
        E 0 80 55 00
        E 0 80 56 00
        E 120 90 60 64
        E 0 90 61 64
        E 0 90 54 64
        E 0 90 55 64
        E 0 90 48 64
        E 0 90 49 64
        E 0 90 3c 64
        E 120 80 60 00
        E 0 80 61 00
        E 0 80 54 00
        E 0 80 55 00
        E 0 80 48 00
        E 0 80 49 00
        E 0 80 3c 00
        E 120 90 60 64
        E 0 90 61 64
        E 0 90 54 64
        E 0 90 55 64
        E 120 80 60 00
        E 0 80 61 00
        E 0 80 54 00
        E 0 80 55 00
        E 120 90 61 64
        E 0 90 63 64
        E 0 90 55 64
        E 0 90 57 64
        E 0 90 49 64
        E 0 90 4b 64
        E 120 80 61 00
        E 0 80 63 00
        E 0 80 55 00
        E 0 80 57 00
        E 0 80 49 00
        E 0 80 4b 00
        E 120 90 61 64
        E 0 90 63 64
        E 0 90 55 64
        E 0 90 57 64
        E 120 80 61 00
        E 0 80 63 00
        E 0 80 55 00
        E 0 80 57 00
        E 120 90 61 64
        E 0 90 62 64
        E 0 90 55 64
        E 0 90 56 64
        E 0 90 49 64
        E 0 90 4a 64
        E 0 90 3d 64
        E 120 80 61 00
        E 0 80 62 00
        E 0 80 55 00
        E 0 80 56 00
        E 0 80 49 00
        E 0 80 4a 00
        E 0 80 3d 00
        E 120 90 61 64
        E 0 90 62 64
        E 0 90 55 64
        E 0 90 56 64
        E 0 90 49 64
        E 0 90 4a 64
        E 120 80 61 00
        E 0 80 62 00
        E 0 80 55 00
        E 0 80 56 00
        E 0 80 49 00
        E 0 80 4a 00
        E 120 90 61 64
        E 0 90 62 64
        E 0 90 55 64
        E 0 90 56 64
        E 0 90 49 64
        E 0 90 4a 64
        E 0 90 3d 64
        E 120 80 61 00
        E 0 80 62 00
        E 0 80 55 00
        E 0 80 56 00
        E 0 80 49 00
        E 0 80 4a 00
        E 0 80 3d 00
        E 120 90 61 64
        E 0 90 62 64
        E 0 90 55 64
        E 0 90 56 64
        E 120 80 61 00
        E 0 80 62 00
        E 0 80 55 00
        E 0 80 56 00
        E 120 90 62 64
        E 0 90 63 64
        E 0 90 56 64
        E 0 90 57 64
        E 0 90 4a 64
        E 0 90 4b 64
        E 0 90 3f 64
        E 120 80 62 00
        E 0 80 63 00
        E 0 80 56 00
        E 0 80 57 00
        E 0 80 4a 00
        E 0 80 4b 00
        E 0 80 3f 00
        E 120 90 62 64
        E 0 90 63 64
        E 0 90 56 64
        E 0 90 57 64
        E 0 90 4a 64
        E 0 90 4b 64
        E 120 80 62 00
        E 0 80 63 00
        E 0 80 56 00
        E 0 80 57 00
        E 0 80 4a 00
        E 0 80 4b 00
        E 120 90 62 64
        E 0 90 63 64
        E 0 90 56 64
        E 0 90 57 64
        E 0 90 4a 64
        E 0 90 4b 64
        E 0 90 3f 64
        E 120 80 62 00
        E 0 80 63 00
        E 0 80 56 00
        E 0 80 57 00
        E 0 80 4a 00
        E 0 80 4b 00
        E 0 80 3f 00
        E 120 90 62 64
        E 0 90 63 64
        E 0 90 56 64
        E 0 90 57 64
        E 120 80 62 00
        E 0 80 63 00
        E 0 80 56 00
        E 0 80 57 00
        E 120 90 61 64
        E 0 90 62 64
        E 0 90 55 64
        E 0 90 56 64
        E 0 90 49 64
        E 0 90 4a 64
        E 0 90 3d 64
        E 120 80 61 00
        E 0 80 62 00
        E 0 80 55 00
        E 0 80 56 00
        E 0 80 49 00
        E 0 80 4a 00
        E 0 80 3d 00
        E 120 90 61 64
        E 0 90 62 64
        E 0 90 55 64
        E 0 90 56 64
        E 0 90 49 64
        E 0 90 4a 64
        E 120 80 61 00
        E 0 80 62 00
        E 0 80 55 00
        E 0 80 56 00
        E 0 80 49 00
        E 0 80 4a 00
        E 120 90 61 64
        E 0 90 62 64
        E 0 90 55 64
        E 0 90 56 64
        E 0 90 49 64
        E 0 90 4a 64
        E 0 90 3d 64
        E 120 80 61 00
        E 0 80 62 00
        E 0 80 55 00
        E 0 80 56 00
        E 0 80 49 00
        E 0 80 4a 00
        E 0 80 3d 00
        E 120 90 61 64
        E 0 90 62 64
        E 0 90 55 64
        E 0 90 56 64
        E 120 80 61 00
        E 0 80 62 00
        E 0 80 55 00
        E 0 80 56 00
        E 120 90 62 64
        E 0 90 63 64
        E 0 90 56 64
        E 0 90 57 64
        E 0 90 4a 64
        E 0 90 4b 64
        E 0 90 3f 64
        E 120 80 62 00
        E 0 80 63 00
        E 0 80 56 00
        E 0 80 57 00
        E 0 80 4a 00
        E 0 80 4b 00
        E 0 80 3f 00
        E 120 90 62 64
        E 0 90 63 64
        E 0 90 56 64
        E 0 90 57 64
        E 0 90 4a 64
        E 0 90 4b 64
        E 120 80 62 00
        E 0 80 63 00
        E 0 80 56 00
        E 0 80 57 00
        E 0 80 4a 00
        E 0 80 4b 00
        E 120 90 62 64
        E 0 90 63 64
        E 0 90 56 64
        E 0 90 57 64
        E 0 90 4a 64
        E 0 90 4b 64
        E 0 90 3f 64
        E 120 80 62 00
        E 0 80 63 00
        E 0 80 56 00
        E 0 80 57 00
        E 0 80 4a 00
        E 0 80 4b 00
        E 0 80 3f 00
        E 120 90 61 64
        E 0 90 63 64
        E 0 90 55 64
        E 0 90 57 64
        E 120 80 61 00
        E 0 80 63 00
        E 0 80 55 00
        E 0 80 57 00
        E 120 90 61 64
        E 0 90 63 64
        E 0 90 55 64
        E 0 90 57 64
        E 0 90 49 64
        E 0 90 4b 64
        E 0 90 3e 64
        E 120 80 61 00
        E 0 80 63 00
        E 0 80 55 00
        E 0 80 57 00
        E 0 80 49 00
        E 0 80 4b 00
        E 0 80 3e 00
        E 120 90 61 64
        E 0 90 63 64
        E 0 90 55 64
        E 0 90 57 64
        E 0 90 49 64
        E 0 90 4b 64
        E 120 80 61 00
        E 0 80 63 00
        E 0 80 55 00
        E 0 80 57 00
        E 0 80 49 00
        E 0 80 4b 00
        E 120 90 61 64
        E 0 90 63 64
        E 0 90 55 64
        E 0 90 57 64
        E 0 90 49 64
        E 0 90 4b 64
        E 0 90 3e 64
        E 120 80 61 00
        E 0 80 63 00
        E 0 80 55 00
        E 0 80 57 00
        E 0 80 49 00
        E 0 80 4b 00
        E 0 80 3e 00
        E 120 90 61 64
        E 0 90 63 64
        E 0 90 55 64
        E 0 90 57 64
        E 120 80 61 00
        E 0 80 63 00
        E 0 80 55 00
        E 0 80 57 00
        E 120 90 60 64
        E 0 90 61 64
        E 0 90 54 64
        E 0 90 55 64
        E 0 90 48 64
        E 0 90 49 64
        E 0 90 3c 64
        E 120 80 60 00
        E 0 80 61 00
        E 0 80 54 00
        E 0 80 55 00
        E 0 80 48 00
        E 0 80 49 00
        E 0 80 3c 00
        E 120 90 60 64
        E 0 90 61 64
        E 0 90 54 64
        E 0 90 55 64
        E 120 80 60 00
        E 0 80 61 00
        E 0 80 54 00
        E 0 80 55 00
        E 120 90 61 64
        E 0 90 63 64
        E 0 90 55 64
        E 0 90 57 64
        E 0 90 49 64
        E 0 90 4b 64
        E 120 80 61 00
        E 0 80 63 00
        E 0 80 55 00
        E 0 80 57 00
        E 0 80 49 00
        E 0 80 4b 00
        E 120 90 61 64
        E 0 90 63 64
        E 0 90 55 64
        E 0 90 57 64
        E 120 80 61 00
        E 0 80 63 00
        E 0 80 55 00
        E 0 80 57 00
        E 120 90 61 64
        E 0 90 62 64
        E 0 90 55 64
        E 0 90 56 64
        E 0 90 49 64
        E 0 90 4a 64
        E 0 90 3d 64
        E 120 80 61 00
        E 0 80 62 00
        E 0 80 55 00
        E 0 80 56 00
        E 0 80 49 00
        E 0 80 4a 00
        E 0 80 3d 00
        E 120 90 61 64
        E 0 90 62 64
        E 0 90 55 64
        E 0 90 56 64
        E 0 90 49 64
        E 0 90 4a 64
        E 120 80 61 00
        E 0 80 62 00
        E 0 80 55 00
        E 0 80 56 00
        E 0 80 49 00
        E 0 80 4a 00
        E 120 90 61 64
        E 0 90 62 64
        E 0 90 55 64
        E 0 90 56 64
        E 0 90 49 64
        E 0 90 4a 64
        E 0 90 3d 64
        E 120 80 61 00
        E 0 80 62 00
        E 0 80 55 00
        E 0 80 56 00
        E 0 80 49 00
        E 0 80 4a 00
        E 0 80 3d 00
        E 120 90 61 64
        E 0 90 62 64
        E 0 90 55 64
        E 0 90 56 64
        E 120 80 61 00
        E 0 80 62 00
        E 0 80 55 00
        E 0 80 56 00
        E 120 90 60 64
        E 0 90 61 64
        E 0 90 54 64
        E 0 90 55 64
        E 0 90 48 64
        E 0 90 49 64
        E 0 90 3c 64
        E 120 80 60 00
        E 0 80 61 00
        E 0 80 54 00
        E 0 80 55 00
        E 0 80 48 00
        E 0 80 49 00
        E 0 80 3c 00
        E 120 90 60 64
        E 0 90 61 64
        E 0 90 54 64
        E 0 90 55 64
        E 120 80 60 00
        E 0 80 61 00
        E 0 80 54 00
        E 0 80 55 00
        E 120 90 61 64
        E 0 90 63 64
        E 0 90 55 64
        E 0 90 57 64
        E 0 90 49 64
        E 0 90 4b 64
        E 120 80 61 00
        E 0 80 63 00
        E 0 80 55 00
        E 0 80 57 00
        E 0 80 49 00
        E 0 80 4b 00
        E 120 90 61 64
        E 0 90 63 64
        E 0 90 55 64
        E 0 90 57 64
        E 120 80 61 00
        E 0 80 63 00
        E 0 80 55 00
        E 0 80 57 00
        E 120 90 61 64
        E 0 90 62 64
        E 0 90 55 64
        E 0 90 56 64
        E 0 90 49 64
        E 0 90 4a 64
        E 0 90 3d 64
        E 120 80 61 00
        E 0 80 62 00
        E 0 80 55 00
        E 0 80 56 00
        E 0 80 49 00
        E 0 80 4a 00
        E 0 80 3d 00
        E 120 90 61 64
        E 0 90 62 64
        E 0 90 55 64
        E 0 90 56 64
        E 0 90 49 64
        E 0 90 4a 64
        E 120 80 61 00
        E 0 80 62 00
        E 0 80 55 00
        E 0 80 56 00
        E 0 80 49 00
        E 0 80 4a 00
        E 120 90 61 64
        E 0 90 62 64
        E 0 90 55 64
        E 0 90 56 64
        E 0 90 49 64
        E 0 90 4a 64
        E 0 90 3d 64
        E 120 80 61 00
        E 0 80 62 00
        E 0 80 55 00
        E 0 80 56 00
        E 0 80 49 00
        E 0 80 4a 00
        E 0 80 3d 00
        E 120 90 61 64
        E 0 90 62 64
        E 0 90 55 64
        E 0 90 56 64
        E 120 80 61 00
        E 0 80 62 00
        E 0 80 55 00
        E 0 80 56 00
        E 120 90 62 64
        E 0 90 63 64
        E 0 90 56 64
        E 0 90 57 64
        E 0 90 4a 64
        E 0 90 4b 64
        E 0 90 3f 64
        E 120 80 62 00
        E 0 80 63 00
        E 0 80 56 00
        E 0 80 57 00
        E 0 80 4a 00
        E 0 80 4b 00
        E 0 80 3f 00
        E 120 90 62 64
        E 0 90 63 64
        E 0 90 56 64
        E 0 90 57 64
        E 0 90 4a 64
        E 0 90 4b 64
        E 120 80 62 00
        E 0 80 63 00
        E 0 80 56 00
        E 0 80 57 00
        E 0 80 4a 00
        E 0 80 4b 00
        E 120 90 62 64
        E 0 90 63 64
        E 0 90 56 64
        E 0 90 57 64
        E 0 90 4a 64
        E 0 90 4b 64
        E 0 90 3f 64
        E 120 80 62 00
        E 0 80 63 00
        E 0 80 56 00
        E 0 80 57 00
        E 0 80 4a 00
        E 0 80 4b 00
        E 0 80 3f 00
        E 120 90 62 64
        E 0 90 63 64
        E 0 90 56 64
        E 0 90 57 64
        E 120 80 62 00
        E 0 80 63 00
        E 0 80 56 00
        E 0 80 57 00
        E 120 90 61 64
        E 0 90 63 64
        E 0 90 55 64
        E 0 90 57 64
        E 0 90 49 64
        E 0 90 4b 64
        E 0 90 3e 64
        E 121 80 55 00
        E 0 80 57 00
        E 0 80 49 00
        E 0 80 4b 00
        E 0 80 3e 00
        E 118 80 61 00
        E 0 80 63 00
        E 122 90 61 64
        E 0 90 63 64
        E 0 90 55 64
        E 0 90 57 64
        E 120 80 55 00
        E 0 80 57 00
        E 119 80 61 00
        E 0 80 63 00
        E 121 90 61 64
        E 0 90 63 64
        E 0 90 55 64
        E 0 90 57 64
        E 0 90 49 64
        E 0 90 4b 64
        E 120 80 55 00
        E 0 80 57 00
        E 0 80 49 00
        E 0 80 4b 00
        E 240 80 61 00
        E 0 80 63 00
        E 119 90 61 64
        E 0 90 62 64
        E 0 90 55 64
        E 0 90 56 64
        E 120 80 61 00
        E 0 80 62 00
        E 0 80 55 00
        E 0 80 56 00
        E 120 90 60 64
        E 0 90 62 64
        E 0 90 54 64
        E 0 90 56 64
        E 0 90 48 64
        E 0 90 4a 64
        E 0 90 3d 64
        E 120 80 54 00
        E 0 80 56 00
        E 0 80 48 00
        E 0 80 4a 00
        E 0 80 3d 00
        E 240 80 60 00
        E 0 80 62 00
        E 120 90 62 64
        E 0 90 63 64
        E 0 90 56 64
        E 0 90 57 64
        E 0 90 4a 64
        E 0 90 4b 64
        E 0 90 3f 64
        E 120 80 56 00
        E 0 80 57 00
        E 0 80 4a 00
        E 0 80 4b 00
        E 0 80 3f 00
        E 120 80 62 00
        E 0 80 63 00
        E 119 90 62 64
        E 0 90 63 64
        E 0 90 56 64
        E 0 90 57 64
        E 121 80 56 00
        E 0 80 57 00
        E 121 80 62 00
        E 0 80 63 00
        E 119 90 62 64
        E 0 90 63 64
        E 0 90 56 64
        E 0 90 57 64
        E 0 90 4a 64
        E 0 90 4b 64
        E 120 80 56 00
        E 0 80 57 00
        E 0 80 4a 00
        E 0 80 4b 00
        E 240 80 62 00
        E 0 80 63 00
        E 120 90 61 64
        E 0 90 63 64
        E 0 90 55 64
        E 0 90 57 64
        E 120 80 61 00
        E 0 80 63 00
        E 0 80 55 00
        E 0 80 57 00
        E 120 90 61 64
        E 0 90 62 64
        E 0 90 55 64
        E 0 90 56 64
        E 0 90 49 64
        E 0 90 4a 64
        E 0 90 3d 64
        E 120 80 55 00
        E 0 80 56 00
        E 0 80 49 00
        E 0 80 4a 00
        E 0 80 3d 00
        E 240 80 61 00
        E 0 80 62 00
        E 120 90 60 64
        E 0 90 54 64
        E 0 90 48 64
        E 0 90 3c 64
        E 120 80 60 00
        E 0 80 54 00
        E 0 80 48 00
        E 0 80 3c 00
        E 120 90 62 64
        E 0 90 65 64
        E 0 90 56 64
        E 120 80 62 00
        E 0 80 65 00
        E 0 80 56 00
        E 120 90 63 64
        E 0 90 65 64
        E 0 90 57 64
        E 0 90 4b 64
        E 120 80 63 00
        E 0 80 65 00
        E 0 80 57 00
        E 0 80 4b 00
        E 120 90 61 64
        E 0 90 65 64
        E 0 90 55 64
        E 120 80 61 00
        E 0 80 65 00
        E 0 80 55 00
        E 120 90 62 64
        E 0 90 65 64
        E 0 90 56 64
        E 0 90 4a 64
        E 0 90 3e 64
        E 120 80 62 00
        E 0 80 65 00
        E 0 80 56 00
        E 0 80 4a 00
        E 0 80 3e 00
        E 120 90 63 64
        E 0 90 65 64
        E 0 90 57 64
        E 120 80 63 00
        E 0 80 65 00
        E 0 80 57 00
        E 120 90 61 64
        E 0 90 65 64
        E 0 90 55 64
        E 0 90 49 64
        E 120 80 61 00
        E 0 80 65 00
        E 0 80 55 00
        E 0 80 49 00
        E 120 90 63 64
        E 0 90 65 64
        E 0 90 57 64
        E 120 80 63 00
        E 0 80 65 00
        E 0 80 57 00
        E 120 90 62 64
        E 0 90 63 64
        E 0 90 56 64
        E 0 90 57 64
        E 0 90 4a 64
        E 0 90 4b 64
        E 0 90 3f 64
        E 120 80 62 00
        E 0 80 63 00
        E 0 80 56 00
        E 0 80 57 00
        E 0 80 4a 00
        E 0 80 4b 00
        E 0 80 3f 00
        E 120 90 62 64
        E 0 90 63 64
        E 0 90 56 64
        E 0 90 57 64
        E 0 90 4a 64
        E 0 90 4b 64
        E 120 80 62 00
        E 0 80 63 00
        E 0 80 56 00
        E 0 80 57 00
        E 0 80 4a 00
        E 0 80 4b 00
        E 120 90 62 64
        E 0 90 63 64
        E 0 90 56 64
        E 0 90 57 64
        E 0 90 4a 64
        E 0 90 4b 64
        E 0 90 3f 64
        E 120 80 62 00
        E 0 80 63 00
        E 0 80 56 00
        E 0 80 57 00
        E 0 80 4a 00
        E 0 80 4b 00
        E 0 80 3f 00
        E 120 90 62 64
        E 0 90 63 64
        E 0 90 56 64
        E 0 90 57 64
        E 0 90 4a 64
        E 0 90 4b 64
        E 120 80 56 00
        E 0 80 57 00
        E 0 80 4a 00
        E 0 80 4b 00
        E 239 80 62 00
        E 0 80 63 00
        E 121 90 62 64
        E 0 90 63 64
        E 0 90 56 64
        E 0 90 57 64
        E 0 90 4a 64
        E 0 90 4b 64
        E 120 80 62 00
        E 0 80 63 00
        E 0 80 56 00
        E 0 80 57 00
        E 0 80 4a 00
        E 0 80 4b 00
        E 120 90 62 64
        E 0 90 63 64
        E 0 90 56 64
        E 0 90 57 64
        E 0 90 4a 64
        E 0 90 4b 64
        E 0 90 3f 64
        E 120 80 56 00
        E 0 80 57 00
        E 0 80 4a 00
        E 0 80 4b 00
        E 0 80 3f 00
        E 239 80 62 00
        E 0 80 63 00
        E 121 90 61 64
        E 0 90 63 64
        E 0 90 55 64
        E 0 90 57 64
        E 0 90 49 64
        E 0 90 4b 64
        E 0 90 3e 64
        E 120 80 55 00
        E 0 80 57 00
        E 0 80 49 00
        E 0 80 4b 00
        E 0 80 3e 00
        E 120 80 61 00
        E 0 80 63 00
        E 120 90 61 64
        E 0 90 63 64
        E 0 90 55 64
        E 0 90 57 64
        E 120 80 55 00
        E 0 80 57 00
        E 120 80 61 00
        E 0 80 63 00
        E 120 90 61 64
        E 0 90 63 64
        E 0 90 55 64
        E 0 90 57 64
        E 0 90 49 64
        E 0 90 4b 64
        E 120 80 55 00
        E 0 80 57 00
        E 0 80 49 00
        E 0 80 4b 00
        E 240 80 61 00
        E 0 80 63 00
        E 120 90 61 64
        E 0 90 62 64
        E 0 90 55 64
        E 0 90 56 64
        E 120 80 61 00
        E 0 80 62 00
        E 0 80 55 00
        E 0 80 56 00
        E 120 90 60 64
        E 0 90 62 64
        E 0 90 54 64
        E 0 90 56 64
        E 0 90 48 64
        E 0 90 4a 64
        E 0 90 3d 64
        E 120 80 54 00
        E 0 80 56 00
        E 0 80 48 00
        E 0 80 4a 00
        E 0 80 3d 00
        E 240 80 60 00
        E 0 80 62 00
        E 120 90 62 64
        E 0 90 63 64
        E 0 90 56 64
        E 0 90 57 64
        E 0 90 4a 64
        E 0 90 4b 64
        E 0 90 3f 64
        E 120 80 56 00
        E 0 80 57 00
        E 0 80 4a 00
        E 0 80 4b 00
        E 0 80 3f 00
        E 120 80 62 00
        E 0 80 63 00
        E 120 90 62 64
        E 0 90 63 64
        E 0 90 56 64
        E 0 90 57 64
        E 120 80 56 00
        E 0 80 57 00
        E 120 80 62 00
        E 0 80 63 00
        E 120 90 62 64
        E 0 90 63 64
        E 0 90 56 64
        E 0 90 57 64
        E 0 90 4a 64
        E 0 90 4b 64
        E 120 80 56 00
        E 0 80 57 00
        E 0 80 4a 00
        E 0 80 4b 00
        E 240 80 62 00
        E 0 80 63 00
        E 120 90 61 64
        E 0 90 63 64
        E 0 90 55 64
        E 0 90 57 64
        E 120 80 61 00
        E 0 80 63 00
        E 0 80 55 00
        E 0 80 57 00
        E 120 90 61 64
        E 0 90 62 64
        E 0 90 55 64
        E 0 90 56 64
        E 0 90 49 64
        E 0 90 4a 64
        E 0 90 3d 64
        E 120 80 55 00
        E 0 80 56 00
        E 0 80 49 00
        E 0 80 4a 00
        E 0 80 3d 00
        E 240 80 61 00
        E 0 80 62 00
        E 120 90 61 64
        E 0 90 55 64
        E 0 90 49 64
        E 0 90 3d 64
        E 120 80 61 00
        E 0 80 55 00
        E 0 80 49 00
        E 0 80 3d 00
        E 120 90 62 64
        E 0 90 65 64
        E 0 90 56 64
        E 120 80 62 00
        E 0 80 65 00
        E 0 80 56 00
        E 120 90 64 64
        E 0 90 65 64
        E 0 90 58 64
        E 0 90 4c 64
        E 120 80 64 00
        E 0 80 65 00
        E 0 80 58 00
        E 0 80 4c 00
        E 120 90 62 64
        E 0 90 65 64
        E 0 90 56 64
        E 120 80 62 00
        E 0 80 65 00
        E 0 80 56 00
        E 120 90 63 64
        E 0 90 65 64
        E 0 90 57 64
        E 0 90 4b 64
        E 0 90 3f 64
        E 120 80 63 00
        E 0 80 65 00
        E 0 80 57 00
        E 0 80 4b 00
        E 0 80 3f 00
        E 120 90 64 64
        E 0 90 65 64
        E 0 90 58 64
        E 120 80 64 00
        E 0 80 65 00
        E 0 80 58 00
        E 120 90 61 64
        E 0 90 65 64
        E 0 90 55 64
        E 0 90 49 64
        E 120 80 61 00
        E 0 80 65 00
        E 0 80 55 00
        E 0 80 49 00
        E 0 90 62 64
        E 0 90 65 64
        E 120 80 62 00
        E 0 80 65 00
        E 0 90 61 64
        E 0 90 65 64
        E 0 90 55 64
        E 120 80 61 00
        E 0 80 65 00
        E 0 80 55 00
        E 120 90 60 64
        E 0 90 65 64
        E 0 90 54 64
        E 0 90 48 64
        E 0 90 3c 64
        E 120 80 60 00
        E 0 80 65 00
        E 0 80 54 00
        E 0 80 48 00
        E 0 80 3c 00
        E 120 90 62 64
        E 0 90 65 64
        E 0 90 56 64
        E 120 80 62 00
        E 0 80 65 00
        E 0 80 56 00
        E 120 90 60 64
        E 0 90 65 64
        E 0 90 54 64
        E 0 90 48 64
        E 0 90 3c 64
        E 120 80 60 00
        E 0 80 65 00
        E 0 80 54 00
        E 0 80 48 00
        E 0 80 3c 00
        E 120 90 63 64
        E 0 90 65 64
        E 0 90 57 64
        E 120 80 63 00
        E 0 80 65 00
        E 0 80 57 00
        E 120 90 62 64
        E 0 90 65 64
        E 0 90 56 64
        E 0 90 4a 64
        E 0 90 3e 64
        E 120 80 62 00
        E 0 80 65 00
        E 0 80 56 00
        E 0 80 4a 00
        E 0 80 3e 00
        E 120 90 61 64
        E 0 90 65 64
        E 0 90 55 64
        E 120 80 61 00
        E 0 80 65 00
        E 0 80 55 00
        E 120 90 61 64
        E 0 90 55 64
        E 0 90 49 64
        E 120 80 55 00
        E 0 80 49 00
        E 241 80 61 00
        E 119 90 61 64
        E 0 90 63 64
        E 0 90 55 64
        E 0 90 57 64
        E 0 90 49 64
        E 0 90 4b 64
        E 0 90 3e 64
        E 120 80 55 00
        E 0 80 57 00
        E 0 80 49 00
        E 0 80 4b 00
        E 0 80 3e 00
        E 121 80 61 00
        E 0 80 63 00
        E 119 90 61 64
        E 0 90 63 64
        E 0 90 55 64
        E 0 90 57 64
        E 121 80 55 00
        E 0 80 57 00
        E 119 80 61 00
        E 0 80 63 00
        E 121 90 61 64
        E 0 90 63 64
        E 0 90 55 64
        E 0 90 57 64
        E 0 90 49 64
        E 0 90 4b 64
        E 120 80 55 00
        E 0 80 57 00
        E 0 80 49 00
        E 0 80 4b 00
        E 239 80 61 00
        E 0 80 63 00
        E 120 90 61 64
        E 0 90 62 64
        E 0 90 55 64
        E 0 90 56 64
        E 120 80 61 00
        E 0 80 62 00
        E 0 80 55 00
        E 0 80 56 00
        E 120 90 60 64
        E 0 90 62 64
        E 0 90 54 64
        E 0 90 56 64
        E 0 90 48 64
        E 0 90 4a 64
        E 0 90 3d 64
        E 120 80 54 00
        E 0 80 56 00
        E 0 80 48 00
        E 0 80 4a 00
        E 0 80 3d 00
        E 239 80 60 00
        E 0 80 62 00
        E 121 90 62 64
        E 0 90 63 64
        E 0 90 56 64
        E 0 90 57 64
        E 0 90 4a 64
        E 0 90 4b 64
        E 0 90 3f 64
        E 121 80 56 00
        E 0 80 57 00
        E 0 80 4a 00
        E 0 80 4b 00
        E 0 80 3f 00
        E 119 80 62 00
        E 0 80 63 00
        E 121 90 62 64
        E 0 90 63 64
        E 0 90 56 64
        E 0 90 57 64
        E 120 80 56 00
        E 0 80 57 00
        E 120 80 62 00
        E 0 80 63 00
        E 119 90 62 64
        E 0 90 63 64
        E 0 90 56 64
        E 0 90 57 64
        E 0 90 4a 64
        E 0 90 4b 64
        E 120 80 56 00
        E 0 80 57 00
        E 0 80 4a 00
        E 0 80 4b 00
        E 240 80 62 00
        E 0 80 63 00
        E 120 90 61 64
        E 0 90 63 64
        E 0 90 55 64
        E 0 90 57 64
        E 120 80 61 00
        E 0 80 63 00
        E 0 80 55 00
        E 0 80 57 00
        E 120 90 61 64
        E 0 90 62 64
        E 0 90 55 64
        E 0 90 56 64
        E 0 90 49 64
        E 0 90 4a 64
        E 0 90 3d 64
        E 120 80 55 00
        E 0 80 56 00
        E 0 80 49 00
        E 0 80 4a 00
        E 0 80 3d 00
        E 240 80 61 00
        E 0 80 62 00
        E 120 90 60 64
        E 0 90 54 64
        E 0 90 48 64
        E 0 90 3c 64
        E 120 80 60 00
        E 0 80 54 00
        E 0 80 48 00
        E 0 80 3c 00
        E 120 90 62 64
        E 0 90 63 64
        E 0 90 56 64
        E 0 90 57 64
        E 120 80 62 00
        E 0 80 63 00
        E 0 80 56 00
        E 0 80 57 00
        E 120 90 60 64
        E 0 90 54 64
        E 0 90 48 64
        E 0 90 3c 64
        E 120 80 60 00
        E 0 80 54 00
        E 0 80 48 00
        E 0 80 3c 00
        E 120 90 61 64
        E 0 90 62 64
        E 0 90 55 64
        E 0 90 56 64
        E 120 80 55 00
        E 0 80 56 00
        E 239 80 61 00
        E 0 80 62 00
        E 121 90 60 64
        E 0 90 54 64
        E 120 80 60 00
        E 0 80 54 00
        E 120 90 62 64
        E 0 90 63 64
        E 0 90 56 64
        E 0 90 57 64
        E 0 90 4a 64
        E 0 90 4b 64
        E 0 90 3f 64
        E 120 80 62 00
        E 0 80 63 00
        E 0 80 56 00
        E 0 80 57 00
        E 0 80 4a 00
        E 0 80 4b 00
        E 0 80 3f 00
        E 120 90 60 64
        E 0 90 54 64
        E 120 80 60 00
        E 0 80 54 00
        E 120 90 61 64
        E 0 90 63 64
        E 0 90 55 64
        E 0 90 57 64
        E 0 90 49 64
        E 0 90 4b 64
        E 120 80 61 00
        E 0 80 63 00
        E 0 80 55 00
        E 0 80 57 00
        E 0 80 49 00
        E 0 80 4b 00
        E 120 90 60 64
        E 0 90 54 64
        E 120 80 60 00
        E 0 80 54 00
        E 120 90 61 64
        E 0 90 62 64
        E 0 90 55 64
        E 0 90 56 64
        E 0 90 49 64
        E 0 90 4a 64
        E 0 90 3d 64
        E 120 80 55 00
        E 0 80 56 00
        E 0 80 49 00
        E 0 80 4a 00
        E 0 80 3d 00
        E 240 80 61 00
        E 0 80 62 00
        E 120 90 60 64
        E 0 90 54 64
        E 0 90 48 64
        E 0 90 3c 64
        E 120 80 60 00
        E 0 80 54 00
        E 0 80 48 00
        E 0 80 3c 00
        E 120 90 62 64
        E 0 90 63 64
        E 0 90 56 64
        E 0 90 57 64
        E 120 80 62 00
        E 0 80 63 00
        E 0 80 56 00
        E 0 80 57 00
        E 120 90 60 64
        E 0 90 54 64
        E 0 90 48 64
        E 0 90 3c 64
        E 120 80 60 00
        E 0 80 54 00
        E 0 80 48 00
        E 0 80 3c 00
        E 120 90 61 64
        E 0 90 62 64
        E 0 90 55 64
        E 0 90 56 64
        E 120 80 55 00
        E 0 80 56 00
        E 240 80 61 00
        E 0 80 62 00
        E 120 90 60 64
        E 0 90 54 64
        E 120 80 60 00
        E 0 80 54 00
        E 120 90 62 64
        E 0 90 63 64
        E 0 90 56 64
        E 0 90 57 64
        E 0 90 4a 64
        E 0 90 4b 64
        E 0 90 3f 64
        E 120 80 62 00
        E 0 80 63 00
        E 0 80 56 00
        E 0 80 57 00
        E 0 80 4a 00
        E 0 80 4b 00
        E 0 80 3f 00
        E 120 90 60 64
        E 0 90 54 64
        E 120 80 60 00
        E 0 80 54 00
        E 120 90 61 64
        E 0 90 63 64
        E 0 90 55 64
        E 0 90 57 64
        E 0 90 49 64
        E 0 90 4b 64
        E 120 80 61 00
        E 0 80 63 00
        E 0 80 55 00
        E 0 80 57 00
        E 0 80 49 00
        E 0 80 4b 00
        E 120 90 60 64
        E 0 90 54 64
        E 120 80 60 00
        E 0 80 54 00
        E 120 90 61 64
        E 0 90 62 64
        E 0 90 55 64
        E 0 90 56 64
        E 0 90 49 64
        E 0 90 4a 64
        E 0 90 3d 64
        E 120 80 55 00
        E 0 80 56 00
        E 0 80 49 00
        E 0 80 4a 00
        E 0 80 3d 00
        E 240 80 61 00
        E 0 80 62 00
        E 120 90 60 64
        E 0 90 54 64
        E 0 90 48 64
        E 0 90 3c 64
        E 120 80 60 00
        E 0 80 54 00
        E 0 80 48 00
        E 0 80 3c 00
        E 120 90 62 64
        E 0 90 63 64
        E 0 90 56 64
        E 0 90 57 64
        E 120 80 62 00
        E 0 80 63 00
        E 0 80 56 00
        E 0 80 57 00
        E 120 90 60 64
        E 0 90 54 64
        E 0 90 48 64
        E 0 90 3c 64
        E 120 80 60 00
        E 0 80 54 00
        E 0 80 48 00
        E 0 80 3c 00
        E 121 90 61 64
        E 0 90 62 64
        E 0 90 55 64
        E 0 90 56 64
        E 120 80 55 00
        E 0 80 56 00
        E 239 80 61 00
        E 0 80 62 00
        E 120 90 60 64
        E 0 90 54 64
        E 120 80 60 00
        E 0 80 54 00
        E 120 90 62 64
        E 0 90 63 64
        E 0 90 56 64
        E 0 90 57 64
        E 0 90 4a 64
        E 0 90 4b 64
        E 0 90 3f 64
        E 120 80 62 00
        E 0 80 63 00
        E 0 80 56 00
        E 0 80 57 00
        E 0 80 4a 00
        E 0 80 4b 00
        E 0 80 3f 00
        E 120 90 60 64
        E 0 90 54 64
        E 120 80 60 00
        E 0 80 54 00
        E 120 90 61 64
        E 0 90 63 64
        E 0 90 55 64
        E 0 90 57 64
        E 0 90 49 64
        E 0 90 4b 64
        E 120 80 61 00
        E 0 80 63 00
        E 0 80 55 00
        E 0 80 57 00
        E 0 80 49 00
        E 0 80 4b 00
        E 120 90 60 64
        E 0 90 54 64
        E 120 80 60 00
        E 0 80 54 00
        E 120 90 61 64
        E 0 90 62 64
        E 0 90 55 64
        E 0 90 56 64
        E 0 90 49 64
        E 0 90 4a 64
        E 0 90 3d 64
        E 120 80 55 00
        E 0 80 56 00
        E 0 80 49 00
        E 0 80 4a 00
        E 0 80 3d 00
        E 241 80 61 00
        E 0 80 62 00
        E 119 90 60 64
        E 0 90 54 64
        E 0 90 48 64
        E 0 90 3c 64
        E 120 80 60 00
        E 0 80 54 00
        E 0 80 48 00
        E 0 80 3c 00
        E 120 90 62 64
        E 0 90 63 64
        E 0 90 56 64
        E 0 90 57 64
        E 120 80 62 00
        E 0 80 63 00
        E 0 80 56 00
        E 0 80 57 00
        E 120 90 60 64
        E 0 90 54 64
        E 0 90 48 64
        E 0 90 3c 64
        E 120 80 60 00
        E 0 80 54 00
        E 0 80 48 00
        E 0 80 3c 00
        E 119 90 61 64
        E 0 90 62 64
        E 0 90 55 64
        E 0 90 56 64
        E 120 80 55 00
        E 0 80 56 00
        E 242 80 61 00
        E 0 80 62 00
        E 119 90 60 64
        E 0 90 54 64
        E 120 80 60 00
        E 0 80 54 00
        E 120 90 62 64
        E 0 90 63 64
        E 0 90 56 64
        E 0 90 57 64
        E 0 90 4a 64
        E 0 90 4b 64
        E 0 90 3f 64
        E 120 80 62 00
        E 0 80 63 00
        E 0 80 56 00
        E 0 80 57 00
        E 0 80 4a 00
        E 0 80 4b 00
        E 0 80 3f 00
        E 120 90 60 64
        E 0 90 54 64
        E 120 80 60 00
        E 0 80 54 00
        E 120 90 61 64
        E 0 90 63 64
        E 0 90 55 64
        E 0 90 57 64
        E 0 90 49 64
        E 0 90 4b 64
        E 120 80 61 00
        E 0 80 63 00
        E 0 80 55 00
        E 0 80 57 00
        E 0 80 49 00
        E 0 80 4b 00
        E 120 90 60 64
        E 0 90 54 64
        E 120 80 60 00
        E 0 80 54 00
        E 120 90 61 64
        E 0 90 62 64
        E 0 90 55 64
        E 0 90 56 64
        E 0 90 49 64
        E 0 90 4a 64
        E 0 90 3d 64
        E 120 80 55 00
        E 0 80 56 00
        E 0 80 49 00
        E 0 80 4a 00
        E 0 80 3d 00
        E 240 80 61 00
        E 0 80 62 00
        E 120 90 62 64
        E 0 90 63 64
        E 0 90 64 64
        E 0 90 57 64
        E 0 90 58 64
        E 0 90 4b 64
        E 0 90 4c 64
        E 0 90 40 64
        E 2160 80 40 00
        E 120 80 4b 00
        E 0 80 4c 00
        E 120 80 57 00
        E 0 80 58 00
        E 120 80 62 00
        E 0 80 63 00
        E 0 80 64 00
        E 120 90 62 64
        E 0 90 65 64
        E 0 90 56 64
        E 0 90 4a 64
        E 0 90 3e 64
        E 120 80 3e 00
        E 480 80 4a 00
        E 120 80 56 00
        E 121 80 62 00
        E 0 80 65 00
        E 119 90 61 64
        E 0 90 65 64
        E 0 90 55 64
        E 0 90 49 64
        E 0 90 3d 64
        E 599 80 49 00
        E 0 80 3d 00
        E 120 80 55 00
        E 120 80 61 00
        E 0 80 65 00
        E 120 90 60 64
        E 0 90 65 64
        E 0 90 54 64
        E 0 90 48 64
        E 841 80 48 00
        E 120 80 54 00
        E 120 80 60 00
        E 0 80 65 00
        E 120 90 60 64
        E 0 90 54 64
        E 0 90 48 64
        E 0 90 3c 64
        E 120 80 60 00
        E 0 80 54 00
        E 0 80 48 00
        E 0 80 3c 00
        E 120 90 62 64
        E 0 90 63 64
        E 0 90 56 64
        E 0 90 57 64
        E 120 80 62 00
        E 0 80 63 00
        E 0 80 56 00
        E 0 80 57 00
        E 120 90 60 64
        E 0 90 54 64
        E 0 90 48 64
        E 0 90 3c 64
        E 120 80 60 00
        E 0 80 54 00
        E 0 80 48 00
        E 0 80 3c 00
        E 121 90 61 64
        E 0 90 62 64
        E 0 90 55 64
        E 0 90 56 64
        E 120 80 55 00
        E 0 80 56 00
        E 240 80 61 00
        E 0 80 62 00
        E 119 90 60 64
        E 0 90 54 64
        E 120 80 60 00
        E 0 80 54 00
        E 120 90 62 64
        E 0 90 63 64
        E 0 90 56 64
        E 0 90 57 64
        E 0 90 4a 64
        E 0 90 4b 64
        E 0 90 3f 64
        E 120 80 62 00
        E 0 80 63 00
        E 0 80 56 00
        E 0 80 57 00
        E 0 80 4a 00
        E 0 80 4b 00
        E 0 80 3f 00
        E 120 90 60 64
        E 0 90 54 64
        E 120 80 60 00
        E 0 80 54 00
        E 120 90 61 64
        E 0 90 63 64
        E 0 90 55 64
        E 0 90 57 64
        E 0 90 49 64
        E 0 90 4b 64
        E 120 80 61 00
        E 0 80 63 00
        E 0 80 55 00
        E 0 80 57 00
        E 0 80 49 00
        E 0 80 4b 00
        E 120 90 60 64
        E 0 90 54 64
        E 120 80 60 00
        E 0 80 54 00
        E 120 90 61 64
        E 0 90 62 64
        E 0 90 55 64
        E 0 90 56 64
        E 0 90 49 64
        E 0 90 4a 64
        E 0 90 3d 64
        E 120 80 55 00
        E 0 80 56 00
        E 0 80 49 00
        E 0 80 4a 00
        E 0 80 3d 00
        E 239 80 61 00
        E 0 80 62 00
        E 121 90 60 64
        E 0 90 54 64
        E 0 90 48 64
        E 0 90 3c 64
        E 120 80 60 00
        E 0 80 54 00
        E 0 80 48 00
        E 0 80 3c 00
        E 120 90 62 64
        E 0 90 63 64
        E 0 90 56 64
        E 0 90 57 64
        E 120 80 62 00
        E 0 80 63 00
        E 0 80 56 00
        E 0 80 57 00
        E 120 90 60 64
        E 0 90 54 64
        E 0 90 48 64
        E 0 90 3c 64
        E 120 80 60 00
        E 0 80 54 00
        E 0 80 48 00
        E 0 80 3c 00
        E 120 90 61 64
        E 0 90 62 64
        E 0 90 55 64
        E 0 90 56 64
        E 120 80 55 00
        E 0 80 56 00
        E 240 80 61 00
        E 0 80 62 00
        E 120 90 60 64
        E 0 90 54 64
        E 120 80 60 00
        E 0 80 54 00
        E 120 90 62 64
        E 0 90 63 64
        E 0 90 56 64
        E 0 90 57 64
        E 0 90 4a 64
        E 0 90 4b 64
        E 0 90 3f 64
        E 120 80 62 00
        E 0 80 63 00
        E 0 80 56 00
        E 0 80 57 00
        E 0 80 4a 00
        E 0 80 4b 00
        E 0 80 3f 00
        E 120 90 60 64
        E 0 90 54 64
        E 120 80 60 00
        E 0 80 54 00
        E 120 90 61 64
        E 0 90 63 64
        E 0 90 55 64
        E 0 90 57 64
        E 0 90 49 64
        E 0 90 4b 64
        E 120 80 61 00
        E 0 80 63 00
        E 0 80 55 00
        E 0 80 57 00
        E 0 80 49 00
        E 0 80 4b 00
        E 120 90 60 64
        E 0 90 54 64
        E 120 80 60 00
        E 0 80 54 00
        E 120 90 61 64
        E 0 90 62 64
        E 0 90 55 64
        E 0 90 56 64
        E 0 90 49 64
        E 0 90 4a 64
        E 0 90 3d 64
        E 120 80 55 00
        E 0 80 56 00
        E 0 80 49 00
        E 0 80 4a 00
        E 0 80 3d 00
        E 240 80 61 00
        E 0 80 62 00
        E 120 90 62 64
        E 0 90 63 64
        E 0 90 64 64
        E 0 90 57 64
        E 0 90 58 64
        E 0 90 4b 64
        E 0 90 4c 64
        E 0 90 40 64
        E 2400 80 40 00
        E 120 80 4b 00
        E 0 80 4c 00
        E 120 80 57 00
        E 0 80 58 00
        E 119 80 62 00
        E 0 80 63 00
        E 0 80 64 00
        E 121 90 62 64
        E 0 90 65 64
        E 0 90 56 64
        E 0 90 4a 64
        E 0 90 3e 64
        E 120 80 3e 00
        E 480 80 4a 00
        E 120 80 56 00
        E 120 80 62 00
        E 0 80 65 00
        E 120 90 61 64
        E 0 90 65 64
        E 0 90 55 64
        E 0 90 49 64
        E 0 90 3d 64
        E 120 80 3d 00
        E 480 80 49 00
        E 120 80 55 00
        E 120 80 61 00
        E 0 80 65 00
        E 120 90 60 64
        E 0 90 65 64
        E 0 90 54 64
        E 0 90 48 64
        E 0 90 3c 64
        E 120 80 3c 00
        E 480 80 48 00
        E 120 80 54 00
        E 120 80 60 00
        E 0 80 65 00
        E 120 90 60 64
        E 0 90 54 64
        E 0 90 48 64
        E 0 90 3c 64
        E 120 80 60 00
        E 0 80 54 00
        E 0 80 48 00
        E 0 80 3c 00
        E 120 90 62 64
        E 0 90 63 64
        E 0 90 56 64
        E 0 90 57 64
        E 120 80 62 00
        E 0 80 63 00
        E 0 80 56 00
        E 0 80 57 00
        E 120 90 60 64
        E 0 90 54 64
        E 0 90 48 64
        E 0 90 3c 64
        E 120 80 60 00
        E 0 80 54 00
        E 0 80 48 00
        E 0 80 3c 00
        E 120 90 61 64
        E 0 90 62 64
        E 0 90 55 64
        E 0 90 56 64
        E 120 80 55 00
        E 0 80 56 00
        E 240 80 61 00
        E 0 80 62 00
        E 120 90 60 64
        E 0 90 54 64
        E 120 80 60 00
        E 0 80 54 00
        E 120 90 62 64
        E 0 90 63 64
        E 0 90 56 64
        E 0 90 57 64
        E 0 90 4a 64
        E 0 90 4b 64
        E 0 90 3f 64
        E 120 80 62 00
        E 0 80 63 00
        E 0 80 56 00
        E 0 80 57 00
        E 0 80 4a 00
        E 0 80 4b 00
        E 0 80 3f 00
        E 120 90 60 64
        E 0 90 54 64
        E 120 80 60 00
        E 0 80 54 00
        E 120 90 61 64
        E 0 90 63 64
        E 0 90 55 64
        E 0 90 57 64
        E 0 90 49 64
        E 0 90 4b 64
        E 120 80 61 00
        E 0 80 63 00
        E 0 80 55 00
        E 0 80 57 00
        E 0 80 49 00
        E 0 80 4b 00
        E 120 90 60 64
        E 0 90 54 64
        E 120 80 60 00
        E 0 80 54 00
        E 120 90 61 64
        E 0 90 62 64
        E 0 90 55 64
        E 0 90 56 64
        E 0 90 49 64
        E 0 90 4a 64
        E 0 90 3d 64
        E 120 80 55 00
        E 0 80 56 00
        E 0 80 49 00
        E 0 80 4a 00
        E 0 80 3d 00
        E 240 80 61 00
        E 0 80 62 00
        E 120 90 60 64
        E 0 90 54 64
        E 0 90 48 64
        E 0 90 3c 64
        E 120 80 60 00
        E 0 80 54 00
        E 0 80 48 00
        E 0 80 3c 00
        E 120 90 62 64
        E 0 90 63 64
        E 0 90 56 64
        E 0 90 57 64
        E 120 80 62 00
        E 0 80 63 00
        E 0 80 56 00
        E 0 80 57 00
        E 120 90 60 64
        E 0 90 54 64
        E 0 90 48 64
        E 0 90 3c 64
        E 120 80 60 00
        E 0 80 54 00
        E 0 80 48 00
        E 0 80 3c 00
        E 119 90 61 64
        E 0 90 62 64
        E 0 90 55 64
        E 0 90 56 64
        E 120 80 55 00
        E 0 80 56 00
        E 241 80 61 00
        E 0 80 62 00
        E 120 90 60 64
        E 0 90 54 64
        E 120 80 60 00
        E 0 80 54 00
        E 120 90 62 64
        E 0 90 63 64
        E 0 90 56 64
        E 0 90 57 64
        E 0 90 4a 64
        E 0 90 4b 64
        E 0 90 3f 64
        E 120 80 62 00
        E 0 80 63 00
        E 0 80 56 00
        E 0 80 57 00
        E 0 80 4a 00
        E 0 80 4b 00
        E 0 80 3f 00
        E 120 90 60 64
        E 0 90 54 64
        E 120 80 60 00
        E 0 80 54 00
        E 120 90 61 64
        E 0 90 63 64
        E 0 90 55 64
        E 0 90 57 64
        E 0 90 49 64
        E 0 90 4b 64
        E 120 80 61 00
        E 0 80 63 00
        E 0 80 55 00
        E 0 80 57 00
        E 0 80 49 00
        E 0 80 4b 00
        E 120 90 60 64
        E 0 90 54 64
        E 120 80 60 00
        E 0 80 54 00
        E 120 90 61 64
        E 0 90 62 64
        E 0 90 55 64
        E 0 90 56 64
        E 0 90 49 64
        E 0 90 4a 64
        E 0 90 3d 64
        E 120 80 55 00
        E 0 80 56 00
        E 0 80 49 00
        E 0 80 4a 00
        E 0 80 3d 00
        E 240 80 61 00
        E 0 80 62 00
        E 120 90 60 64
        E 0 90 54 64
        E 0 90 48 64
        E 0 90 3c 64
        E 120 80 60 00
        E 0 80 54 00
        E 0 80 48 00
        E 0 80 3c 00
        E 120 90 62 64
        E 0 90 63 64
        E 0 90 56 64
        E 0 90 57 64
        E 120 80 62 00
        E 0 80 63 00
        E 0 80 56 00
        E 0 80 57 00
        E 120 90 60 64
        E 0 90 54 64
        E 0 90 48 64
        E 0 90 3c 64
        E 120 80 60 00
        E 0 80 54 00
        E 0 80 48 00
        E 0 80 3c 00
        E 120 90 61 64
        E 0 90 62 64
        E 0 90 55 64
        E 0 90 56 64
        E 120 80 55 00
        E 0 80 56 00
        E 240 80 61 00
        E 0 80 62 00
        E 120 90 60 64
        E 0 90 54 64
        E 120 80 60 00
        E 0 80 54 00
        E 120 90 62 64
        E 0 90 63 64
        E 0 90 56 64
        E 0 90 57 64
        E 0 90 4a 64
        E 0 90 4b 64
        E 0 90 3f 64
        E 120 80 62 00
        E 0 80 63 00
        E 0 80 56 00
        E 0 80 57 00
        E 0 80 4a 00
        E 0 80 4b 00
        E 0 80 3f 00
        E 120 90 60 64
        E 0 90 54 64
        E 120 80 60 00
        E 0 80 54 00
        E 120 90 61 64
        E 0 90 63 64
        E 0 90 55 64
        E 0 90 57 64
        E 0 90 49 64
        E 0 90 4b 64
        E 120 80 61 00
        E 0 80 63 00
        E 0 80 55 00
        E 0 80 57 00
        E 0 80 49 00
        E 0 80 4b 00
        E 120 90 60 64
        E 0 90 54 64
        E 120 80 60 00
        E 0 80 54 00
        E 120 90 61 64
        E 0 90 62 64
        E 0 90 55 64
        E 0 90 56 64
        E 0 90 49 64
        E 0 90 4a 64
        E 0 90 3d 64
        E 120 80 55 00
        E 0 80 56 00
        E 0 80 49 00
        E 0 80 4a 00
        E 0 80 3d 00
        E 239 80 61 00
        E 0 80 62 00
        E 121 90 60 64
        E 0 90 54 64
        E 0 90 48 64
        E 0 90 3c 64
        E 120 80 60 00
        E 0 80 54 00
        E 0 80 48 00
        E 0 80 3c 00
        E 120 90 62 64
        E 0 90 63 64
        E 0 90 56 64
        E 0 90 57 64
        E 120 80 62 00
        E 0 80 63 00
        E 0 80 56 00
        E 0 80 57 00
        E 120 90 60 64
        E 0 90 54 64
        E 0 90 48 64
        E 0 90 3c 64
        E 120 80 60 00
        E 0 80 54 00
        E 0 80 48 00
        E 0 80 3c 00
        E 120 90 61 64
        E 0 90 62 64
        E 0 90 55 64
        E 0 90 56 64
        E 120 80 55 00
        E 0 80 56 00
        E 240 80 61 00
        E 0 80 62 00
        E 120 90 60 64
        E 0 90 54 64
        E 120 80 60 00
        E 0 80 54 00
        E 120 90 62 64
        E 0 90 63 64
        E 0 90 56 64
        E 0 90 57 64
        E 0 90 4a 64
        E 0 90 4b 64
        E 0 90 3f 64
        E 120 80 62 00
        E 0 80 63 00
        E 0 80 56 00
        E 0 80 57 00
        E 0 80 4a 00
        E 0 80 4b 00
        E 0 80 3f 00
        E 120 90 60 64
        E 0 90 54 64
        E 120 80 60 00
        E 0 80 54 00
        E 120 90 61 64
        E 0 90 63 64
        E 0 90 55 64
        E 0 90 57 64
        E 0 90 49 64
        E 0 90 4b 64
        E 120 80 61 00
        E 0 80 63 00
        E 0 80 55 00
        E 0 80 57 00
        E 0 80 49 00
        E 0 80 4b 00
        E 120 90 60 64
        E 0 90 54 64
        E 120 80 60 00
        E 0 80 54 00
        E 120 90 61 64
        E 0 90 62 64
        E 0 90 55 64
        E 0 90 56 64
        E 0 90 49 64
        E 0 90 4a 64
        E 0 90 3d 64
        E 120 80 55 00
        E 0 80 56 00
        E 0 80 49 00
        E 0 80 4a 00
        E 0 80 3d 00
        E 239 80 61 00
        E 0 80 62 00
        E 121 90 60 64
        E 0 90 54 64
        E 0 90 48 64
        E 0 90 3c 64
        E 120 80 60 00
        E 0 80 54 00
        E 0 80 48 00
        E 0 80 3c 00
        E 0 90 60 64
        E 120 80 60 00
        E 0 90 60 64
        E 0 90 54 64
        E 0 90 48 64
        E 120 80 60 00
        E 0 80 54 00
        E 0 80 48 00
        E 0 90 60 64
        E 120 80 60 00
        E 0 90 60 64
        E 0 90 54 64
        E 0 90 48 64
        E 0 90 3c 64
        E 120 80 60 00
        E 0 80 54 00
        E 0 80 48 00
        E 0 80 3c 00
        E 0 90 60 64
        E 120 80 60 00
        E 0 90 63 64
        E 0 90 64 64
        E 0 90 57 64
        E 0 90 58 64
        E 120 80 57 00
        E 0 80 58 00
        E 480 80 63 00
        E 0 80 64 00
        E 120 90 63 64
        E 0 90 57 64
        E 0 90 4b 64
        E 0 90 3f 64
        E 120 80 63 00
        E 0 80 57 00
        E 0 80 4b 00
        E 0 80 3f 00
        E 0 90 63 64
        E 120 80 63 00
        E 0 90 63 64
        E 0 90 57 64
        E 120 80 63 00
        E 0 80 57 00
        E 0 90 63 64
        E 120 80 63 00
        E 0 90 62 64
        E 0 90 66 64
        E 0 90 56 64
        E 0 90 4a 64
        E 120 80 62 00
        E 0 80 66 00
        E 0 80 56 00
        E 0 80 4a 00
        E 0 90 62 64
        E 120 80 62 00
        E 0 90 62 64
        E 0 90 56 64
        E 120 80 62 00
        E 0 80 56 00
        E 0 90 62 64
        E 120 80 62 00
        E 0 90 61 64
        E 0 90 66 64
        E 0 90 55 64
        E 0 90 49 64
        E 0 90 3d 64
        E 120 80 61 00
        E 0 80 66 00
        E 0 80 55 00
        E 0 80 49 00
        E 0 80 3d 00
        E 0 90 61 64
        E 120 80 61 00
        E 0 90 61 64
        E 0 90 55 64
        E 120 80 61 00
        E 0 80 55 00
        E 0 90 61 64
        E 120 80 61 00
        E 0 90 60 64
        E 0 90 66 64
        E 0 90 54 64
        E 0 90 48 64
        E 0 90 3c 64
        E 120 80 60 00
        E 0 80 66 00
        E 0 80 54 00
        E 0 80 48 00
        E 0 80 3c 00
        E 0 90 60 64
        E 120 80 60 00
        E 0 90 60 64
        E 0 90 54 64
        E 0 90 48 64
        E 120 80 60 00
        E 0 80 54 00
        E 0 80 48 00
        E 0 90 60 64
        E 120 80 60 00
        E 0 90 60 64
        E 0 90 54 64
        E 0 90 48 64
        E 0 90 3c 64
        E 120 80 60 00
        E 0 80 54 00
        E 0 80 48 00
        E 0 80 3c 00
        E 0 90 60 64
        E 120 80 60 00
        E 1 90 63 64
        E 0 90 64 64
        E 0 90 57 64
        E 0 90 58 64
        E 120 80 57 00
        E 0 80 58 00
        E 480 80 63 00
        E 0 80 64 00
        E 119 90 63 64
        E 0 90 57 64
        E 0 90 4b 64
        E 0 90 3f 64
        E 120 80 63 00
        E 0 80 57 00
        E 0 80 4b 00
        E 0 80 3f 00
        E 0 90 63 64
        E 120 80 63 00
        E 0 90 63 64
        E 0 90 57 64
        E 120 80 63 00
        E 0 80 57 00
        E 0 90 63 64
        E 120 80 63 00
        E 0 90 62 64
        E 0 90 66 64
        E 0 90 56 64
        E 0 90 4a 64
        E 120 80 62 00
        E 0 80 66 00
        E 0 80 56 00
        E 0 80 4a 00
        E 0 90 62 64
        E 120 80 62 00
        E 0 90 62 64
        E 0 90 56 64
        E 120 80 62 00
        E 0 80 56 00
        E 0 90 62 64
        E 120 80 62 00
        E 0 90 61 64
        E 0 90 66 64
        E 0 90 55 64
        E 0 90 49 64
        E 0 90 3d 64
        E 120 80 61 00
        E 0 80 66 00
        E 0 80 55 00
        E 0 80 49 00
        E 0 80 3d 00
        E 0 90 61 64
        E 120 80 61 00
        E 0 90 61 64
        E 0 90 55 64
        E 120 80 61 00
        E 0 80 55 00
        E 0 90 61 64
        E 120 80 61 00
        E 0 90 60 64
        E 0 90 66 64
        E 0 90 54 64
        E 0 90 48 64
        E 0 90 3c 64
        E 120 80 60 00
        E 0 80 66 00
        E 0 80 54 00
        E 0 80 48 00
        E 0 80 3c 00
        E 0 90 60 64
        E 120 80 60 00
        E 0 90 60 64
        E 0 90 54 64
        E 0 90 48 64
        E 120 80 60 00
        E 0 80 54 00
        E 0 80 48 00
        E 0 90 60 64
        E 120 80 60 00
        E 0 90 60 64
        E 0 90 54 64
        E 0 90 48 64
        E 0 90 3c 64
        E 120 80 60 00
        E 0 80 54 00
        E 0 80 48 00
        E 0 80 3c 00
        E 0 90 60 64
        E 119 90 63 64
        E 0 90 64 64
        E 0 90 57 64
        E 0 90 58 64
        E 1 80 60 00
        E 119 80 57 00
        E 0 80 58 00
        E 481 80 63 00
        E 0 80 64 00
        E 120 90 63 64
        E 0 90 57 64
        E 0 90 4b 64
        E 0 90 3f 64
        E 120 80 63 00
        E 0 80 57 00
        E 0 80 4b 00
        E 0 80 3f 00
        E 0 90 63 64
        E 120 80 63 00
        E 0 90 63 64
        E 0 90 57 64
        E 120 80 63 00
        E 0 80 57 00
        E 0 90 63 64
        E 120 80 63 00
        E 0 90 62 64
        E 0 90 66 64
        E 0 90 56 64
        E 0 90 4a 64
        E 120 80 62 00
        E 0 80 66 00
        E 0 80 56 00
        E 0 80 4a 00
        E 0 90 62 64
        E 120 80 62 00
        E 0 90 62 64
        E 0 90 56 64
        E 120 80 62 00
        E 0 80 56 00
        E 0 90 62 64
        E 120 80 62 00
        E 0 90 61 64
        E 0 90 66 64
        E 0 90 55 64
        E 0 90 49 64
        E 0 90 3d 64
        E 120 80 61 00
        E 0 80 66 00
        E 0 80 55 00
        E 0 80 49 00
        E 0 80 3d 00
        E 0 90 61 64
        E 120 80 61 00
        E 0 90 61 64
        E 0 90 55 64
        E 120 80 61 00
        E 0 80 55 00
        E 0 90 61 64
        E 120 80 61 00
        E 0 90 60 64
        E 0 90 66 64
        E 0 90 54 64
        E 0 90 48 64
        E 0 90 3c 64
        E 120 80 60 00
        E 0 80 66 00
        E 0 80 54 00
        E 0 80 48 00
        E 0 80 3c 00
        E 0 90 60 64
        E 120 80 60 00
        E 0 90 60 64
        E 0 90 54 64
        E 0 90 48 64
        E 120 80 60 00
        E 0 80 54 00
        E 0 80 48 00
        E 0 90 60 64
        E 120 80 60 00
        E 0 90 60 64
        E 0 90 54 64
        E 0 90 48 64
        E 0 90 3c 64
        E 120 80 60 00
        E 0 80 54 00
        E 0 80 48 00
        E 0 80 3c 00
        E 0 90 60 64
        E 120 80 60 00
        E 0 90 63 64
        E 0 90 64 64
        E 0 90 57 64
        E 0 90 58 64
        E 120 80 57 00
        E 0 80 58 00
        E 479 80 63 00
        E 0 80 64 00
        E 121 90 63 64
        E 0 90 66 64
        E 0 90 57 64
        E 0 90 4b 64
        E 0 90 3f 64
        E 120 80 63 00
        E 0 80 66 00
        E 0 80 57 00
        E 0 80 4b 00
        E 0 80 3f 00
        E 0 90 63 64
        E 120 80 63 00
        E 0 90 63 64
        E 0 90 57 64
        E 120 80 63 00
        E 0 80 57 00
        E 0 90 63 64
        E 120 80 63 00
        E 0 90 62 64
        E 0 90 66 64
        E 0 90 56 64
        E 0 90 4a 64
        E 120 80 62 00
        E 0 80 66 00
        E 0 80 56 00
        E 0 80 4a 00
        E 0 90 62 64
        E 120 80 62 00
        E 0 90 62 64
        E 0 90 56 64
        E 120 80 62 00
        E 0 80 56 00
        E 0 90 62 64
        E 120 80 62 00
        E 0 90 62 64
        E 0 90 63 64
        E 0 90 56 64
        E 0 90 57 64
        E 0 90 4a 64
        E 0 90 4b 64
        E 0 90 3f 64
        E 1320 80 62 00
        E 0 80 63 00
        E 0 80 56 00
        E 0 80 57 00
        E 0 80 4a 00
        E 0 80 4b 00
        E 0 80 3f 00
        <X 480 0
          /wFbaWRsZV9yZWFsdGltZV0=
        >
        E 1080 b0 7b 00
        GUID {14D9E950-FB92-4048-8603-8FD02AE3B865}
        IGNTEMPO 0 120 4 4
        SRCCOLOR 20
        VELLANE 132 38 60
        COLORMAP "C:\Program Files (x86)\REAPER\Data\color_maps\rockband_guitarbass.png"
        TEXTSTRINGFILE "Text Events List.txt"
        CFGEDITVIEW -56806.968037 7.745529 6 12 0 0 0 0 0 0.5
        KEYSNAP 0
        TRACKSEL 0 0 0 ""
        EVTFILTER 0 -1 -1 -1 -1 0 1 0 0 -1 -1 -1 -1 0 -1 0 -1 -1
        CFGEDIT 1 1 0 0 0 1 1 1 1 1 1 0.25 -8 -8 1370 736 1 2 1 2 0 0 0 0 0 0.5 1 0 1 64
      >
    >
  >
  <TRACK {70C3FE4D-3BC3-4146-95C4-8AC455A2D0F5}
    NAME "PART BASS"
    PEAKCOL 16777471
    BEAT -1
    AUTOMODE 0
    VOLPAN 1 0 -1 -1 1
    MUTESOLO 0 0 0
    IPHASE 0
    ISBUS 0 0
    BUSCOMP 1 0
    SHOWINMIX 1 0.6667 0.5 1 0.5 0 0 0
    FREEMODE 0
    SEL 0
    REC 0 4096 1 0 0 0 0
    TRACKHEIGHT 54 0
    INQ 0 0 0 0.5 100 0 0 100
    NCHAN 2
    FX 1
    TRACKID {70C3FE4D-3BC3-4146-95C4-8AC455A2D0F5}
    PERF 0
    MIDIOUT -1
    <MIDINOTENAMES
      0 40 "Left Hand Lowest" 0 40
      0 41 - 0 41
      0 42 - 0 42
      0 43 - 0 43
      0 44 - 0 44
      0 45 - 0 45
      0 46 - 0 46
      0 47 - 0 47
      0 48 - 0 48
      0 49 - 0 49
      0 50 - 0 50
      0 51 - 0 51
      0 52 - 0 52
      0 53 - 0 53
      0 54 - 0 54
      0 55 - 0 55
      0 56 - 0 56
      0 57 - 0 57
      0 58 - 0 58
      0 59 "Left Hand Highest" 0 59
      0 60 "EASY Green" 0 60
      0 61 "EASY Red" 0 61
      0 62 "EASY Yellow" 0 62
      0 63 "EASY Blue" 0 63
      0 64 "EASY Orange" 0 64
      0 68 ---- 0 68
      0 72 "MEDIUM Green" 0 72
      0 73 "MEDIUM Red" 0 73
      0 74 "MEDIUM Yellow" 0 74
      0 75 "MEDIUM Blue" 0 75
      0 76 "MEDIUM Orange" 0 76
      0 80 ---- 0 80
      0 84 "HARD Green" 0 84
      0 85 "HARD Red" 0 85
      0 86 "HARD Yellow" 0 86
      0 87 "HARD Blue" 0 87
      0 88 "HARD Orange" 0 88
      0 89 "Force HOPO On" 0 89
      0 90 "Force HOPO Off" 0 90
      0 91 ---- 0 91
      0 96 "EXPERT Green" 0 96
      0 97 "EXPERT Red" 0 97
      0 98 "EXPERT Yellow" 0 98
      0 99 "EXPERT Blue" 0 99
      0 100 "EXPERT Orange" 0 100
      0 101 "Force HOPO On" 0 101
      0 102 "Force HOPO Off" 0 102
      0 103 "Solo Marker" 0 103
      0 111 ---- 0 111
      0 116 OVERDRIVE 0 116
      0 119 ---- 0 119
      0 120 "BRE (use all 5)" 0 120
      0 121 BRE 0 121
      0 122 BRE 0 122
      0 123 BRE 0 123
      0 124 BRE 0 124
      0 125 ---- 0 125
      0 127 "Trill Marker" 0 127
    >
    MAINSEND 1 0
    <FXCHAIN
      WNDRECT 0 38 878 585
      SHOW 0
      LASTSEL 1
      DOCKED 0
      BYPASS 1 0 0
      <VST "VSTi: ReaSynth (Cockos)" reasynth.vst.dylib 0 "" 1919251321
        eXNlcu9e7f4AAAAAAgAAAAEAAAAAAAAAAgAAAAAAAAA8AAAAAAAAAAAAAAA=
        776t3g3wrd4AAAAAAAAAAAAAAAAAAAAAObRIPn3L2z61tLE5AAAAALbz/T5VpCs6AAAAAAAAAAAAAIA/
        AAAAAAAA
      >
      FLOATPOS 0 0 0 0
      FXID {D4EC3C58-478E-4D1F-A0FC-2252BD344989}
      WAK 0
      BYPASS 0 0 0
      <VST "VSTi: RBN Preview (RBN)" rbprev_vst.dll 0 "" ""
        dnBicu5e7f4AAAAAAgAAAAEAAAAAAAAAAgAAAAAAAAAEAAAAAQAAAAAAAAADAKoAAAAAAAAA
      >
      FLOATPOS 32 32 659 497
      FXID {72D22271-4F4F-4081-90C4-66415E7AEC47}
      WAK 0
    >
    <ITEM
      POSITION 0
      SNAPOFFS 0
      LENGTH 121.26242132124742
      LOOP 0
      ALLTAKES 0
      FADEIN 1 0 0 1 0 0
      FADEOUT 1 0 0 1 0 0
      MUTE 0
      SEL 0
      IGUID {A1B24BBF-93B7-476C-BC6D-33F5621C633F}
      IID 6
      NAME "PART BASS"
      VOLPAN 1 0 1 -1
      SOFFS 0 0
      PLAYRATE 1 1 0 -65536 0 0.0025
      CHANMODE 0
      GUID {344A7487-35C3-41F9-8B1E-12A4F3D7F336}
      <SOURCE MIDI
        HASDATA 1 480 QN
        POOLEDEVTS {BA4EFAF5-BD5C-4E66-B238-6F82076D7E3F}
        <X 0 0
          /wNQQVJUIEJBU1M=
        >
        <X 2880 0
          /wFbaWRsZV0=
        >
        <X 5760 0
          /wFbcGxheV0=
        >
        E 960 90 64 7f
        E 0 90 58 7f
        E 0 90 4c 7f
        E 0 90 40 7f
        E 120 80 58 00
        E 0 80 4c 00
        E 0 80 40 00
        E 240 80 64 00
        E 120 90 60 7f
        E 0 90 54 7f
        E 0 90 48 7f
        E 0 90 3c 7f
        E 120 80 60 00
        E 0 80 54 00
        E 0 80 48 00
        E 0 80 3c 00
        E 120 90 63 7f
        E 0 90 57 7f
        E 120 80 63 00
        E 0 80 57 00
        E 360 90 62 7f
        E 0 90 56 7f
        E 0 90 4a 7f
        E 120 80 56 00
        E 0 80 4a 00
        E 240 80 62 00
        E 120 90 60 7f
        E 0 90 54 7f
        E 120 80 60 00
        E 0 80 54 00
        E 120 90 63 7f
        E 0 90 57 7f
        E 0 90 4b 7f
        E 0 90 3e 7f
        E 120 80 63 00
        E 0 80 57 00
        E 0 80 4b 00
        E 0 80 3e 00
        E 360 90 62 7f
        E 0 90 56 7f
        E 0 90 4a 7f
        E 120 80 62 00
        E 0 80 56 00
        E 0 80 4a 00
        E 360 90 61 7f
        E 0 90 55 7f
        E 0 90 49 7f
        E 0 90 3d 7f
        E 120 80 55 00
        E 0 80 49 00
        E 0 80 3d 00
        E 240 80 61 00
        E 120 90 60 7f
        E 0 90 54 7f
        E 0 90 48 7f
        E 0 90 3c 7f
        E 120 80 60 00
        E 0 80 54 00
        E 0 80 48 00
        E 0 80 3c 00
        E 120 90 63 7f
        E 0 90 57 7f
        E 120 80 63 00
        E 0 80 57 00
        E 360 90 62 7f
        E 0 90 56 7f
        E 0 90 4a 7f
        E 120 80 56 00
        E 0 80 4a 00
        E 240 80 62 00
        E 120 90 60 7f
        E 0 90 54 7f
        E 120 80 60 00
        E 0 80 54 00
        E 120 90 63 7f
        E 0 90 57 7f
        E 0 90 4b 7f
        E 0 90 3e 7f
        E 120 80 63 00
        E 0 80 57 00
        E 0 80 4b 00
        E 0 80 3e 00
        E 360 90 62 7f
        E 0 90 56 7f
        E 0 90 4a 7f
        E 120 80 62 00
        E 0 80 56 00
        E 0 80 4a 00
        E 360 90 61 7f
        E 0 90 55 7f
        E 0 90 49 7f
        E 0 90 3d 7f
        E 120 80 55 00
        E 0 80 49 00
        E 0 80 3d 00
        E 240 80 61 00
        E 120 90 60 7f
        E 0 90 54 7f
        E 0 90 48 7f
        E 0 90 3c 7f
        E 120 80 60 00
        E 0 80 54 00
        E 0 80 48 00
        E 0 80 3c 00
        E 120 90 63 7f
        E 0 90 57 7f
        E 120 80 63 00
        E 0 80 57 00
        E 360 90 62 7f
        E 0 90 56 7f
        E 0 90 4a 7f
        E 120 80 56 00
        E 0 80 4a 00
        E 240 80 62 00
        E 120 90 60 7f
        E 0 90 54 7f
        E 120 80 60 00
        E 0 80 54 00
        E 120 90 63 7f
        E 0 90 57 7f
        E 0 90 4b 7f
        E 0 90 3e 7f
        E 120 80 63 00
        E 0 80 57 00
        E 0 80 4b 00
        E 0 80 3e 00
        E 360 90 62 7f
        E 0 90 56 7f
        E 0 90 4a 7f
        E 120 80 62 00
        E 0 80 56 00
        E 0 80 4a 00
        E 360 90 61 7f
        E 0 90 55 7f
        E 0 90 49 7f
        E 0 90 3d 7f
        E 120 80 55 00
        E 0 80 49 00
        E 0 80 3d 00
        E 240 80 61 00
        E 120 90 60 7f
        E 0 90 54 7f
        E 0 90 48 7f
        E 0 90 3c 7f
        E 120 80 60 00
        E 0 80 54 00
        E 0 80 48 00
        E 0 80 3c 00
        E 120 90 63 7f
        E 0 90 57 7f
        E 120 80 63 00
        E 0 80 57 00
        E 360 90 62 7f
        E 0 90 56 7f
        E 0 90 4a 7f
        E 120 80 56 00
        E 0 80 4a 00
        E 240 80 62 00
        E 120 90 60 7f
        E 0 90 54 7f
        E 120 80 60 00
        E 0 80 54 00
        E 120 90 63 7f
        E 0 90 57 7f
        E 0 90 4b 7f
        E 0 90 3e 7f
        E 120 80 63 00
        E 0 80 57 00
        E 0 80 4b 00
        E 0 80 3e 00
        E 360 90 62 7f
        E 0 90 56 7f
        E 0 90 4a 7f
        E 120 80 62 00
        E 0 80 56 00
        E 0 80 4a 00
        E 360 90 61 7f
        E 0 90 55 7f
        E 0 90 49 7f
        E 0 90 3d 7f
        E 120 80 55 00
        E 0 80 49 00
        E 0 80 3d 00
        E 240 80 61 00
        E 120 90 60 7f
        E 0 90 54 7f
        E 0 90 48 7f
        E 0 90 3c 7f
        E 120 80 60 00
        E 0 80 54 00
        E 0 80 48 00
        E 0 80 3c 00
        E 120 90 63 7f
        E 0 90 57 7f
        E 120 80 63 00
        E 0 80 57 00
        E 360 90 62 7f
        E 0 90 56 7f
        E 0 90 4a 7f
        E 120 80 56 00
        E 0 80 4a 00
        E 240 80 62 00
        E 120 90 60 7f
        E 0 90 54 7f
        E 120 80 60 00
        E 0 80 54 00
        E 120 90 63 7f
        E 0 90 57 7f
        E 0 90 4b 7f
        E 0 90 3e 7f
        E 120 80 63 00
        E 0 80 57 00
        E 0 80 4b 00
        E 0 80 3e 00
        E 360 90 62 7f
        E 0 90 56 7f
        E 0 90 4a 7f
        E 120 80 62 00
        E 0 80 56 00
        E 0 80 4a 00
        E 360 90 61 7f
        E 0 90 55 7f
        E 0 90 49 7f
        E 0 90 3d 7f
        E 120 80 55 00
        E 0 80 49 00
        E 0 80 3d 00
        E 240 80 61 00
        E 120 90 60 7f
        E 0 90 54 7f
        E 0 90 48 7f
        E 0 90 3c 7f
        E 120 80 60 00
        E 0 80 54 00
        E 0 80 48 00
        E 0 80 3c 00
        E 120 90 63 7f
        E 0 90 57 7f
        E 120 80 63 00
        E 0 80 57 00
        E 360 90 62 7f
        E 0 90 56 7f
        E 0 90 4a 7f
        E 120 80 56 00
        E 0 80 4a 00
        E 240 80 62 00
        E 120 90 60 7f
        E 0 90 54 7f
        E 120 80 60 00
        E 0 80 54 00
        E 120 90 63 7f
        E 0 90 57 7f
        E 0 90 4b 7f
        E 0 90 3e 7f
        E 120 80 63 00
        E 0 80 57 00
        E 0 80 4b 00
        E 0 80 3e 00
        E 360 90 62 7f
        E 0 90 56 7f
        E 0 90 4a 7f
        E 120 80 62 00
        E 0 80 56 00
        E 0 80 4a 00
        E 360 90 61 7f
        E 0 90 55 7f
        E 0 90 49 7f
        E 0 90 3d 7f
        E 120 80 55 00
        E 0 80 49 00
        E 0 80 3d 00
        E 240 80 61 00
        E 120 90 60 7f
        E 0 90 54 7f
        E 0 90 48 7f
        E 0 90 3c 7f
        E 120 80 60 00
        E 0 80 54 00
        E 0 80 48 00
        E 0 80 3c 00
        E 120 90 63 7f
        E 0 90 57 7f
        E 120 80 63 00
        E 0 80 57 00
        E 360 90 62 7f
        E 0 90 56 7f
        E 0 90 4a 7f
        E 120 80 56 00
        E 0 80 4a 00
        E 240 80 62 00
        E 120 90 60 7f
        E 0 90 54 7f
        E 120 80 60 00
        E 0 80 54 00
        E 120 90 63 7f
        E 0 90 57 7f
        E 0 90 4b 7f
        E 0 90 3e 7f
        E 120 80 63 00
        E 0 80 57 00
        E 0 80 4b 00
        E 0 80 3e 00
        E 360 90 62 7f
        E 0 90 56 7f
        E 0 90 4a 7f
        E 120 80 62 00
        E 0 80 56 00
        E 0 80 4a 00
        E 360 90 61 7f
        E 0 90 55 7f
        E 0 90 49 7f
        E 0 90 3d 7f
        E 120 80 55 00
        E 0 80 49 00
        E 0 80 3d 00
        E 240 80 61 00
        E 120 90 60 7f
        E 0 90 54 7f
        E 0 90 48 7f
        E 0 90 3c 7f
        E 120 80 60 00
        E 0 80 54 00
        E 0 80 48 00
        E 0 80 3c 00
        E 120 90 61 7f
        E 0 90 55 7f
        E 120 80 61 00
        E 0 80 55 00
        E 120 90 62 7f
        E 0 90 56 7f
        E 0 90 4a 7f
        E 120 80 62 00
        E 0 80 56 00
        E 0 80 4a 00
        E 120 90 63 7f
        E 0 90 57 7f
        E 120 80 57 00
        E 240 80 63 00
        E 120 90 60 7f
        E 0 90 54 7f
        E 120 80 60 00
        E 0 80 54 00
        E 120 90 61 7f
        E 0 90 55 7f
        E 0 90 49 7f
        E 0 90 3d 7f
        E 120 80 55 00
        E 0 80 49 00
        E 0 80 3d 00
        E 240 80 61 00
        E 120 90 63 7f
        E 0 90 57 7f
        E 0 90 4b 7f
        E 120 80 57 00
        E 0 80 4b 00
        E 240 80 63 00
        E 120 90 64 7f
        E 0 90 58 7f
        E 0 90 4c 7f
        E 0 90 40 7f
        E 120 80 58 00
        E 0 80 4c 00
        E 0 80 40 00
        E 240 80 64 00
        E 120 90 60 7f
        E 0 90 54 7f
        E 0 90 48 7f
        E 0 90 3c 7f
        E 120 80 60 00
        E 0 80 54 00
        E 0 80 48 00
        E 0 80 3c 00
        E 120 90 61 7f
        E 0 90 55 7f
        E 120 80 61 00
        E 0 80 55 00
        E 120 90 62 7f
        E 0 90 56 7f
        E 0 90 4a 7f
        E 120 80 62 00
        E 0 80 56 00
        E 0 80 4a 00
        E 120 90 63 7f
        E 0 90 57 7f
        E 120 80 57 00
        E 240 80 63 00
        E 120 90 60 7f
        E 0 90 54 7f
        E 120 80 60 00
        E 0 80 54 00
        E 120 90 61 7f
        E 0 90 55 7f
        E 0 90 49 7f
        E 0 90 3d 7f
        E 120 80 55 00
        E 0 80 49 00
        E 0 80 3d 00
        E 240 80 61 00
        E 120 90 63 7f
        E 0 90 57 7f
        E 0 90 4b 7f
        E 120 80 57 00
        E 0 80 4b 00
        E 240 80 63 00
        E 120 90 64 7f
        E 0 90 58 7f
        E 0 90 4c 7f
        E 0 90 40 7f
        E 120 80 58 00
        E 0 80 4c 00
        E 0 80 40 00
        E 240 80 64 00
        E 120 90 60 7f
        E 0 90 54 7f
        E 0 90 48 7f
        E 0 90 3c 7f
        E 120 80 60 00
        E 0 80 54 00
        E 0 80 48 00
        E 0 80 3c 00
        E 120 90 61 7f
        E 0 90 55 7f
        E 120 80 61 00
        E 0 80 55 00
        E 120 90 62 7f
        E 0 90 56 7f
        E 0 90 4a 7f
        E 120 80 62 00
        E 0 80 56 00
        E 0 80 4a 00
        E 120 90 63 7f
        E 0 90 57 7f
        E 120 80 57 00
        E 240 80 63 00
        E 120 90 60 7f
        E 0 90 54 7f
        E 120 80 60 00
        E 0 80 54 00
        E 120 90 61 7f
        E 0 90 55 7f
        E 0 90 49 7f
        E 0 90 3d 7f
        E 120 80 55 00
        E 0 80 49 00
        E 0 80 3d 00
        E 240 80 61 00
        E 120 90 63 7f
        E 0 90 57 7f
        E 0 90 4b 7f
        E 120 80 57 00
        E 0 80 4b 00
        E 240 80 63 00
        E 120 90 64 7f
        E 0 90 58 7f
        E 0 90 4c 7f
        E 0 90 40 7f
        E 120 80 58 00
        E 0 80 4c 00
        E 0 80 40 00
        E 240 80 64 00
        E 120 90 60 7f
        E 0 90 54 7f
        E 0 90 48 7f
        E 0 90 3c 7f
        E 120 80 60 00
        E 0 80 54 00
        E 0 80 48 00
        E 0 80 3c 00
        E 120 90 61 7f
        E 0 90 55 7f
        E 120 80 61 00
        E 0 80 55 00
        E 120 90 62 7f
        E 0 90 56 7f
        E 0 90 4a 7f
        E 120 80 62 00
        E 0 80 56 00
        E 0 80 4a 00
        E 120 90 63 7f
        E 0 90 57 7f
        E 120 80 57 00
        E 240 80 63 00
        E 120 90 60 7f
        E 0 90 54 7f
        E 120 80 60 00
        E 0 80 54 00
        E 120 90 61 7f
        E 0 90 55 7f
        E 0 90 49 7f
        E 0 90 3d 7f
        E 120 80 55 00
        E 0 80 49 00
        E 0 80 3d 00
        E 240 80 61 00
        E 120 90 63 7f
        E 0 90 57 7f
        E 0 90 4b 7f
        E 120 80 57 00
        E 0 80 4b 00
        E 240 80 63 00
        E 120 90 64 7f
        E 0 90 58 7f
        E 0 90 4c 7f
        E 0 90 40 7f
        E 120 80 58 00
        E 0 80 4c 00
        E 0 80 40 00
        E 240 80 64 00
        E 120 90 60 7f
        E 0 90 54 7f
        E 0 90 48 7f
        E 0 90 3c 7f
        E 120 80 60 00
        E 0 80 54 00
        E 0 80 48 00
        E 0 80 3c 00
        E 120 90 63 7f
        E 0 90 57 7f
        E 120 80 63 00
        E 0 80 57 00
        E 360 90 62 7f
        E 0 90 56 7f
        E 0 90 4a 7f
        E 120 80 56 00
        E 0 80 4a 00
        E 240 80 62 00
        E 120 90 60 7f
        E 0 90 54 7f
        E 120 80 60 00
        E 0 80 54 00
        E 120 90 63 7f
        E 0 90 57 7f
        E 0 90 4b 7f
        E 0 90 3e 7f
        E 120 80 63 00
        E 0 80 57 00
        E 0 80 4b 00
        E 0 80 3e 00
        E 360 90 62 7f
        E 0 90 56 7f
        E 0 90 4a 7f
        E 120 80 62 00
        E 0 80 56 00
        E 0 80 4a 00
        E 360 90 61 7f
        E 0 90 55 7f
        E 0 90 49 7f
        E 0 90 3d 7f
        E 120 80 55 00
        E 0 80 49 00
        E 0 80 3d 00
        E 240 80 61 00
        E 120 90 60 7f
        E 0 90 54 7f
        E 0 90 48 7f
        E 0 90 3c 7f
        E 120 80 60 00
        E 0 80 54 00
        E 0 80 48 00
        E 0 80 3c 00
        E 120 90 63 7f
        E 0 90 57 7f
        E 120 80 63 00
        E 0 80 57 00
        E 360 90 62 7f
        E 0 90 56 7f
        E 0 90 4a 7f
        E 120 80 56 00
        E 0 80 4a 00
        E 240 80 62 00
        E 120 90 60 7f
        E 0 90 54 7f
        E 120 80 60 00
        E 0 80 54 00
        E 120 90 63 7f
        E 0 90 57 7f
        E 0 90 4b 7f
        E 0 90 3e 7f
        E 120 80 63 00
        E 0 80 57 00
        E 0 80 4b 00
        E 0 80 3e 00
        E 360 90 62 7f
        E 0 90 56 7f
        E 0 90 4a 7f
        E 120 80 62 00
        E 0 80 56 00
        E 0 80 4a 00
        E 360 90 61 7f
        E 0 90 55 7f
        E 0 90 49 7f
        E 0 90 3d 7f
        E 120 80 55 00
        E 0 80 49 00
        E 0 80 3d 00
        E 240 80 61 00
        E 120 90 60 7f
        E 0 90 54 7f
        E 0 90 48 7f
        E 0 90 3c 7f
        E 120 80 60 00
        E 0 80 54 00
        E 0 80 48 00
        E 0 80 3c 00
        E 120 90 63 7f
        E 0 90 57 7f
        E 120 80 63 00
        E 0 80 57 00
        E 360 90 62 7f
        E 0 90 56 7f
        E 0 90 4a 7f
        E 120 80 56 00
        E 0 80 4a 00
        E 240 80 62 00
        E 120 90 60 7f
        E 0 90 54 7f
        E 120 80 60 00
        E 0 80 54 00
        E 120 90 63 7f
        E 0 90 57 7f
        E 0 90 4b 7f
        E 0 90 3e 7f
        E 120 80 63 00
        E 0 80 57 00
        E 0 80 4b 00
        E 0 80 3e 00
        E 360 90 62 7f
        E 0 90 56 7f
        E 0 90 4a 7f
        E 120 80 62 00
        E 0 80 56 00
        E 0 80 4a 00
        E 360 90 61 7f
        E 0 90 55 7f
        E 0 90 49 7f
        E 0 90 3d 7f
        E 120 80 55 00
        E 0 80 49 00
        E 0 80 3d 00
        E 240 80 61 00
        E 120 90 60 7f
        E 0 90 54 7f
        E 0 90 48 7f
        E 0 90 3c 7f
        E 120 80 60 00
        E 0 80 54 00
        E 0 80 48 00
        E 0 80 3c 00
        E 120 90 63 7f
        E 0 90 57 7f
        E 120 80 63 00
        E 0 80 57 00
        E 360 90 62 7f
        E 0 90 56 7f
        E 0 90 4a 7f
        E 120 80 56 00
        E 0 80 4a 00
        E 240 80 62 00
        E 120 90 60 7f
        E 0 90 54 7f
        E 120 80 60 00
        E 0 80 54 00
        E 120 90 63 7f
        E 0 90 57 7f
        E 0 90 4b 7f
        E 0 90 3e 7f
        E 120 80 63 00
        E 0 80 57 00
        E 0 80 4b 00
        E 0 80 3e 00
        E 360 90 62 7f
        E 0 90 56 7f
        E 0 90 4a 7f
        E 120 80 62 00
        E 0 80 56 00
        E 0 80 4a 00
        E 360 90 61 7f
        E 0 90 55 7f
        E 0 90 49 7f
        E 0 90 3d 7f
        E 120 80 55 00
        E 0 80 49 00
        E 0 80 3d 00
        E 240 80 61 00
        E 120 90 60 7f
        E 0 90 54 7f
        E 0 90 48 7f
        E 0 90 3c 7f
        E 120 80 60 00
        E 0 80 54 00
        E 0 80 48 00
        E 0 80 3c 00
        E 120 90 63 7f
        E 0 90 57 7f
        E 120 80 63 00
        E 0 80 57 00
        E 360 90 62 7f
        E 0 90 56 7f
        E 0 90 4a 7f
        E 120 80 56 00
        E 0 80 4a 00
        E 240 80 62 00
        E 120 90 60 7f
        E 0 90 54 7f
        E 120 80 60 00
        E 0 80 54 00
        E 120 90 63 7f
        E 0 90 57 7f
        E 0 90 4b 7f
        E 0 90 3e 7f
        E 120 80 63 00
        E 0 80 57 00
        E 0 80 4b 00
        E 0 80 3e 00
        E 360 90 62 7f
        E 0 90 56 7f
        E 0 90 4a 7f
        E 120 80 62 00
        E 0 80 56 00
        E 0 80 4a 00
        E 360 90 61 7f
        E 0 90 55 7f
        E 0 90 49 7f
        E 0 90 3d 7f
        E 120 80 55 00
        E 0 80 49 00
        E 0 80 3d 00
        E 240 80 61 00
        E 120 90 60 7f
        E 0 90 54 7f
        E 0 90 48 7f
        E 0 90 3c 7f
        E 120 80 60 00
        E 0 80 54 00
        E 0 80 48 00
        E 0 80 3c 00
        E 120 90 63 7f
        E 0 90 57 7f
        E 120 80 63 00
        E 0 80 57 00
        E 360 90 62 7f
        E 0 90 56 7f
        E 0 90 4a 7f
        E 120 80 56 00
        E 0 80 4a 00
        E 240 80 62 00
        E 120 90 60 7f
        E 0 90 54 7f
        E 120 80 60 00
        E 0 80 54 00
        E 120 90 63 7f
        E 0 90 57 7f
        E 0 90 4b 7f
        E 0 90 3e 7f
        E 120 80 63 00
        E 0 80 57 00
        E 0 80 4b 00
        E 0 80 3e 00
        E 360 90 62 7f
        E 0 90 56 7f
        E 0 90 4a 7f
        E 120 80 62 00
        E 0 80 56 00
        E 0 80 4a 00
        E 360 90 61 7f
        E 0 90 55 7f
        E 0 90 49 7f
        E 0 90 3d 7f
        E 120 80 55 00
        E 0 80 49 00
        E 0 80 3d 00
        E 240 80 61 00
        E 120 90 60 7f
        E 0 90 54 7f
        E 0 90 48 7f
        E 0 90 3c 7f
        E 120 80 60 00
        E 0 80 54 00
        E 0 80 48 00
        E 0 80 3c 00
        E 120 90 63 7f
        E 0 90 57 7f
        E 120 80 63 00
        E 0 80 57 00
        E 360 90 62 7f
        E 0 90 56 7f
        E 0 90 4a 7f
        E 120 80 56 00
        E 0 80 4a 00
        E 240 80 62 00
        E 120 90 60 7f
        E 0 90 54 7f
        E 120 80 60 00
        E 0 80 54 00
        E 120 90 63 7f
        E 0 90 57 7f
        E 0 90 4b 7f
        E 0 90 3e 7f
        E 120 80 63 00
        E 0 80 57 00
        E 0 80 4b 00
        E 0 80 3e 00
        E 360 90 62 7f
        E 0 90 56 7f
        E 0 90 4a 7f
        E 120 80 62 00
        E 0 80 56 00
        E 0 80 4a 00
        E 360 90 61 7f
        E 0 90 55 7f
        E 0 90 49 7f
        E 0 90 3d 7f
        E 120 80 55 00
        E 0 80 49 00
        E 0 80 3d 00
        E 240 80 61 00
        E 120 90 60 7f
        E 0 90 54 7f
        E 0 90 48 7f
        E 0 90 3c 7f
        E 120 80 60 00
        E 0 80 54 00
        E 0 80 48 00
        E 0 80 3c 00
        E 120 90 63 7f
        E 0 90 57 7f
        E 120 80 63 00
        E 0 80 57 00
        E 360 90 62 7f
        E 0 90 56 7f
        E 0 90 4a 7f
        E 120 80 56 00
        E 0 80 4a 00
        E 240 80 62 00
        E 120 90 60 7f
        E 0 90 54 7f
        E 120 80 60 00
        E 0 80 54 00
        E 120 90 63 7f
        E 0 90 57 7f
        E 0 90 4b 7f
        E 0 90 3e 7f
        E 120 80 63 00
        E 0 80 57 00
        E 0 80 4b 00
        E 0 80 3e 00
        E 360 90 62 7f
        E 0 90 56 7f
        E 0 90 4a 7f
        E 120 80 62 00
        E 0 80 56 00
        E 0 80 4a 00
        E 360 90 61 7f
        E 0 90 55 7f
        E 0 90 49 7f
        E 0 90 3d 7f
        E 120 80 55 00
        E 0 80 49 00
        E 0 80 3d 00
        E 240 80 61 00
        E 120 90 60 7f
        E 0 90 54 7f
        E 0 90 48 7f
        E 0 90 3c 7f
        E 120 80 60 00
        E 0 80 54 00
        E 0 80 48 00
        E 0 80 3c 00
        E 120 90 63 7f
        E 0 90 57 7f
        E 120 80 63 00
        E 0 80 57 00
        E 360 90 62 7f
        E 0 90 56 7f
        E 0 90 4a 7f
        E 120 80 56 00
        E 0 80 4a 00
        E 240 80 62 00
        E 120 90 60 7f
        E 0 90 54 7f
        E 120 80 60 00
        E 0 80 54 00
        E 120 90 63 7f
        E 0 90 57 7f
        E 0 90 4b 7f
        E 0 90 3e 7f
        E 120 80 63 00
        E 0 80 57 00
        E 0 80 4b 00
        E 0 80 3e 00
        E 360 90 62 7f
        E 0 90 56 7f
        E 0 90 4a 7f
        E 120 80 62 00
        E 0 80 56 00
        E 0 80 4a 00
        E 360 90 61 7f
        E 0 90 55 7f
        E 0 90 49 7f
        E 0 90 3d 7f
        E 120 80 55 00
        E 0 80 49 00
        E 0 80 3d 00
        E 240 80 61 00
        E 120 90 60 7f
        E 0 90 54 7f
        E 0 90 48 7f
        E 0 90 3c 7f
        E 120 80 60 00
        E 0 80 54 00
        E 0 80 48 00
        E 0 80 3c 00
        E 120 90 63 7f
        E 0 90 57 7f
        E 120 80 63 00
        E 0 80 57 00
        E 360 90 62 7f
        E 0 90 56 7f
        E 0 90 4a 7f
        E 120 80 56 00
        E 0 80 4a 00
        E 240 80 62 00
        E 120 90 60 7f
        E 0 90 54 7f
        E 120 80 60 00
        E 0 80 54 00
        E 120 90 63 7f
        E 0 90 57 7f
        E 0 90 4b 7f
        E 0 90 3e 7f
        E 120 80 63 00
        E 0 80 57 00
        E 0 80 4b 00
        E 0 80 3e 00
        E 360 90 62 7f
        E 0 90 56 7f
        E 0 90 4a 7f
        E 120 80 62 00
        E 0 80 56 00
        E 0 80 4a 00
        E 360 90 61 7f
        E 0 90 55 7f
        E 0 90 49 7f
        E 0 90 3d 7f
        E 120 80 55 00
        E 0 80 49 00
        E 0 80 3d 00
        E 240 80 61 00
        E 120 90 60 7f
        E 0 90 54 7f
        E 0 90 48 7f
        E 0 90 3c 7f
        E 120 80 60 00
        E 0 80 54 00
        E 0 80 48 00
        E 0 80 3c 00
        E 120 90 63 7f
        E 0 90 57 7f
        E 120 80 63 00
        E 0 80 57 00
        E 360 90 62 7f
        E 0 90 56 7f
        E 0 90 4a 7f
        E 120 80 56 00
        E 0 80 4a 00
        E 240 80 62 00
        E 120 90 60 7f
        E 0 90 54 7f
        E 120 80 60 00
        E 0 80 54 00
        E 120 90 63 7f
        E 0 90 57 7f
        E 0 90 4b 7f
        E 0 90 3e 7f
        E 120 80 63 00
        E 0 80 57 00
        E 0 80 4b 00
        E 0 80 3e 00
        E 360 90 62 7f
        E 0 90 56 7f
        E 0 90 4a 7f
        E 120 80 62 00
        E 0 80 56 00
        E 0 80 4a 00
        E 360 90 61 7f
        E 0 90 55 7f
        E 0 90 49 7f
        E 0 90 3d 7f
        E 120 80 55 00
        E 0 80 49 00
        E 0 80 3d 00
        E 240 80 61 00
        E 120 90 60 7f
        E 0 90 54 7f
        E 0 90 48 7f
        E 0 90 3c 7f
        E 120 80 60 00
        E 0 80 54 00
        E 0 80 48 00
        E 0 80 3c 00
        E 120 90 63 7f
        E 0 90 57 7f
        E 120 80 63 00
        E 0 80 57 00
        E 360 90 62 7f
        E 0 90 56 7f
        E 0 90 4a 7f
        E 120 80 56 00
        E 0 80 4a 00
        E 240 80 62 00
        E 120 90 60 7f
        E 0 90 54 7f
        E 120 80 60 00
        E 0 80 54 00
        E 120 90 63 7f
        E 0 90 57 7f
        E 0 90 4b 7f
        E 0 90 3e 7f
        E 120 80 63 00
        E 0 80 57 00
        E 0 80 4b 00
        E 0 80 3e 00
        E 360 90 62 7f
        E 0 90 56 7f
        E 0 90 4a 7f
        E 120 80 62 00
        E 0 80 56 00
        E 0 80 4a 00
        E 360 90 61 7f
        E 0 90 55 7f
        E 0 90 49 7f
        E 0 90 3d 7f
        E 120 80 55 00
        E 0 80 49 00
        E 0 80 3d 00
        E 240 80 61 00
        E 120 90 60 7f
        E 0 90 54 7f
        E 0 90 48 7f
        E 0 90 3c 7f
        E 120 80 60 00
        E 0 80 54 00
        E 0 80 48 00
        E 0 80 3c 00
        E 120 90 63 7f
        E 0 90 57 7f
        E 120 80 63 00
        E 0 80 57 00
        E 360 90 62 7f
        E 0 90 56 7f
        E 0 90 4a 7f
        E 120 80 56 00
        E 0 80 4a 00
        E 240 80 62 00
        E 120 90 60 7f
        E 0 90 54 7f
        E 120 80 60 00
        E 0 80 54 00
        E 120 90 63 7f
        E 0 90 57 7f
        E 0 90 4b 7f
        E 0 90 3e 7f
        E 120 80 63 00
        E 0 80 57 00
        E 0 80 4b 00
        E 0 80 3e 00
        E 360 90 62 7f
        E 0 90 56 7f
        E 0 90 4a 7f
        E 120 80 62 00
        E 0 80 56 00
        E 0 80 4a 00
        E 360 90 61 7f
        E 0 90 55 7f
        E 0 90 49 7f
        E 0 90 3d 7f
        E 120 80 55 00
        E 0 80 49 00
        E 0 80 3d 00
        E 240 80 61 00
        E 120 90 60 7f
        E 0 90 54 7f
        E 0 90 48 7f
        E 0 90 3c 7f
        E 120 80 60 00
        E 0 80 54 00
        E 0 80 48 00
        E 0 80 3c 00
        E 120 90 63 7f
        E 0 90 57 7f
        E 120 80 63 00
        E 0 80 57 00
        E 360 90 62 7f
        E 0 90 56 7f
        E 0 90 4a 7f
        E 120 80 56 00
        E 0 80 4a 00
        E 240 80 62 00
        E 120 90 60 7f
        E 0 90 54 7f
        E 120 80 60 00
        E 0 80 54 00
        E 120 90 63 7f
        E 0 90 57 7f
        E 0 90 4b 7f
        E 0 90 3e 7f
        E 120 80 63 00
        E 0 80 57 00
        E 0 80 4b 00
        E 0 80 3e 00
        E 360 90 62 7f
        E 0 90 56 7f
        E 0 90 4a 7f
        E 120 80 62 00
        E 0 80 56 00
        E 0 80 4a 00
        E 360 90 61 7f
        E 0 90 55 7f
        E 0 90 49 7f
        E 0 90 3d 7f
        E 120 80 55 00
        E 0 80 49 00
        E 0 80 3d 00
        E 240 80 61 00
        E 120 90 60 7f
        E 0 90 54 7f
        E 0 90 48 7f
        E 0 90 3c 7f
        E 120 80 60 00
        E 0 80 54 00
        E 0 80 48 00
        E 0 80 3c 00
        E 120 90 61 7f
        E 0 90 55 7f
        E 120 80 61 00
        E 0 80 55 00
        E 120 90 62 7f
        E 0 90 56 7f
        E 0 90 4a 7f
        E 120 80 62 00
        E 0 80 56 00
        E 0 80 4a 00
        E 120 90 63 7f
        E 0 90 57 7f
        E 120 80 57 00
        E 240 80 63 00
        E 120 90 60 7f
        E 0 90 54 7f
        E 120 80 60 00
        E 0 80 54 00
        E 120 90 61 7f
        E 0 90 55 7f
        E 0 90 49 7f
        E 0 90 3d 7f
        E 120 80 55 00
        E 0 80 49 00
        E 0 80 3d 00
        E 240 80 61 00
        E 120 90 63 7f
        E 0 90 57 7f
        E 0 90 4b 7f
        E 120 80 57 00
        E 0 80 4b 00
        E 240 80 63 00
        E 120 90 64 7f
        E 0 90 58 7f
        E 0 90 4c 7f
        E 0 90 40 7f
        E 120 80 58 00
        E 0 80 4c 00
        E 0 80 40 00
        E 240 80 64 00
        E 120 90 60 7f
        E 0 90 54 7f
        E 0 90 48 7f
        E 0 90 3c 7f
        E 120 80 60 00
        E 0 80 54 00
        E 0 80 48 00
        E 0 80 3c 00
        E 120 90 61 7f
        E 0 90 55 7f
        E 120 80 61 00
        E 0 80 55 00
        E 120 90 62 7f
        E 0 90 56 7f
        E 0 90 4a 7f
        E 120 80 62 00
        E 0 80 56 00
        E 0 80 4a 00
        E 120 90 63 7f
        E 0 90 57 7f
        E 120 80 57 00
        E 240 80 63 00
        E 120 90 60 7f
        E 0 90 54 7f
        E 120 80 60 00
        E 0 80 54 00
        E 120 90 61 7f
        E 0 90 55 7f
        E 0 90 49 7f
        E 0 90 3d 7f
        E 120 80 55 00
        E 0 80 49 00
        E 0 80 3d 00
        E 240 80 61 00
        E 120 90 63 7f
        E 0 90 57 7f
        E 0 90 4b 7f
        E 120 80 57 00
        E 0 80 4b 00
        E 240 80 63 00
        E 120 90 64 7f
        E 0 90 58 7f
        E 0 90 4c 7f
        E 0 90 40 7f
        E 120 80 58 00
        E 0 80 4c 00
        E 0 80 40 00
        E 240 80 64 00
        E 120 90 60 7f
        E 0 90 54 7f
        E 0 90 48 7f
        E 0 90 3c 7f
        E 120 80 60 00
        E 0 80 54 00
        E 0 80 48 00
        E 0 80 3c 00
        E 120 90 61 7f
        E 0 90 55 7f
        E 120 80 61 00
        E 0 80 55 00
        E 120 90 62 7f
        E 0 90 56 7f
        E 0 90 4a 7f
        E 120 80 62 00
        E 0 80 56 00
        E 0 80 4a 00
        E 120 90 63 7f
        E 0 90 57 7f
        E 120 80 57 00
        E 240 80 63 00
        E 120 90 60 7f
        E 0 90 54 7f
        E 120 80 60 00
        E 0 80 54 00
        E 120 90 61 7f
        E 0 90 55 7f
        E 0 90 49 7f
        E 0 90 3d 7f
        E 120 80 55 00
        E 0 80 49 00
        E 0 80 3d 00
        E 240 80 61 00
        E 120 90 63 7f
        E 0 90 57 7f
        E 0 90 4b 7f
        E 120 80 57 00
        E 0 80 4b 00
        E 240 80 63 00
        E 120 90 64 7f
        E 0 90 58 7f
        E 0 90 4c 7f
        E 0 90 40 7f
        E 120 80 58 00
        E 0 80 4c 00
        E 0 80 40 00
        E 240 80 64 00
        E 120 90 60 7f
        E 0 90 54 7f
        E 0 90 48 7f
        E 0 90 3c 7f
        E 120 80 60 00
        E 0 80 54 00
        E 0 80 48 00
        E 0 80 3c 00
        E 120 90 61 7f
        E 0 90 55 7f
        E 120 80 61 00
        E 0 80 55 00
        E 120 90 62 7f
        E 0 90 56 7f
        E 0 90 4a 7f
        E 120 80 62 00
        E 0 80 56 00
        E 0 80 4a 00
        E 120 90 63 7f
        E 0 90 57 7f
        E 120 80 57 00
        E 240 80 63 00
        E 120 90 60 7f
        E 0 90 54 7f
        E 120 80 60 00
        E 0 80 54 00
        E 120 90 61 7f
        E 0 90 55 7f
        E 0 90 49 7f
        E 0 90 3d 7f
        E 120 80 55 00
        E 0 80 49 00
        E 0 80 3d 00
        E 240 80 61 00
        E 120 90 63 7f
        E 0 90 57 7f
        E 0 90 4b 7f
        E 120 80 57 00
        E 0 80 4b 00
        E 240 80 63 00
        E 120 90 64 7f
        E 0 90 58 7f
        E 0 90 4c 7f
        E 0 90 40 7f
        E 120 80 58 00
        E 0 80 4c 00
        E 0 80 40 00
        E 240 80 64 00
        E 120 90 60 7f
        E 0 90 54 7f
        E 0 90 48 7f
        E 0 90 3c 7f
        E 120 80 60 00
        E 0 80 54 00
        E 0 80 48 00
        E 0 80 3c 00
        E 120 90 60 7f
        E 0 90 54 7f
        E 0 90 48 7f
        E 120 80 60 00
        E 0 80 54 00
        E 0 80 48 00
        E 120 90 60 7f
        E 0 90 54 7f
        E 0 90 48 7f
        E 0 90 3c 7f
        E 120 80 60 00
        E 0 80 54 00
        E 0 80 48 00
        E 0 80 3c 00
        E 120 90 60 7f
        E 0 90 54 7f
        E 0 90 48 7f
        E 120 80 54 00
        E 0 80 48 00
        E 240 80 60 00
        E 120 90 64 7f
        E 0 90 58 7f
        E 0 90 4c 7f
        E 120 80 58 00
        E 0 80 4c 00
        E 480 80 64 00
        E 120 90 63 7f
        E 0 90 57 7f
        E 0 90 4b 7f
        E 0 90 3e 7f
        E 120 80 63 00
        E 0 80 57 00
        E 0 80 4b 00
        E 0 80 3e 00
        E 120 90 63 7f
        E 0 90 57 7f
        E 0 90 4b 7f
        E 120 80 63 00
        E 0 80 57 00
        E 0 80 4b 00
        E 120 90 63 7f
        E 0 90 57 7f
        E 0 90 4b 7f
        E 0 90 3e 7f
        E 120 80 63 00
        E 0 80 57 00
        E 0 80 4b 00
        E 0 80 3e 00
        E 120 90 63 7f
        E 0 90 57 7f
        E 0 90 4b 7f
        E 120 80 57 00
        E 0 80 4b 00
        E 240 80 63 00
        E 120 90 61 7f
        E 0 90 55 7f
        E 0 90 49 7f
        E 120 80 55 00
        E 0 80 49 00
        E 240 80 61 00
        E 120 90 63 7f
        E 0 90 65 7f
        E 0 90 57 7f
        E 120 80 63 00
        E 0 80 65 00
        E 0 80 57 00
        E 120 90 62 7f
        E 0 90 56 7f
        E 0 90 4a 7f
        E 0 90 3d 7f
        E 120 80 62 00
        E 0 80 56 00
        E 0 80 4a 00
        E 0 80 3d 00
        E 120 90 62 7f
        E 0 90 56 7f
        E 0 90 4a 7f
        E 120 80 62 00
        E 0 80 56 00
        E 0 80 4a 00
        E 120 90 62 7f
        E 0 90 56 7f
        E 0 90 4a 7f
        E 0 90 3d 7f
        E 120 80 62 00
        E 0 80 56 00
        E 0 80 4a 00
        E 0 80 3d 00
        E 120 90 62 7f
        E 0 90 56 7f
        E 0 90 4a 7f
        E 120 80 56 00
        E 0 80 4a 00
        E 240 80 62 00
        E 120 90 61 7f
        E 0 90 55 7f
        E 0 90 49 7f
        E 120 80 55 00
        E 0 80 49 00
        E 240 80 61 00
        E 120 90 63 7f
        E 0 90 65 7f
        E 0 90 57 7f
        E 120 80 63 00
        E 0 80 65 00
        E 0 80 57 00
        E 120 90 62 7f
        E 0 90 56 7f
        E 0 90 4a 7f
        E 0 90 3d 7f
        E 120 80 62 00
        E 0 80 56 00
        E 0 80 4a 00
        E 0 80 3d 00
        E 120 90 62 7f
        E 0 90 56 7f
        E 0 90 4a 7f
        E 120 80 62 00
        E 0 80 56 00
        E 0 80 4a 00
        E 120 90 62 7f
        E 0 90 56 7f
        E 0 90 4a 7f
        E 0 90 3d 7f
        E 120 80 62 00
        E 0 80 56 00
        E 0 80 4a 00
        E 0 80 3d 00
        E 120 90 63 7f
        E 0 90 65 7f
        E 0 90 57 7f
        E 120 80 63 00
        E 0 80 65 00
        E 0 80 57 00
        E 120 90 64 7f
        E 0 90 65 7f
        E 0 90 58 7f
        E 0 90 4c 7f
        E 0 90 40 7f
        E 120 80 64 00
        E 0 80 65 00
        E 0 80 58 00
        E 0 80 4c 00
        E 0 80 40 00
        E 120 90 64 7f
        E 0 90 58 7f
        E 0 90 4c 7f
        E 120 80 64 00
        E 0 80 58 00
        E 0 80 4c 00
        E 120 90 64 7f
        E 0 90 58 7f
        E 0 90 4c 7f
        E 0 90 40 7f
        E 120 80 58 00
        E 0 80 4c 00
        E 0 80 40 00
        E 240 80 64 00
        E 120 90 60 7f
        E 0 90 54 7f
        E 0 90 48 7f
        E 0 90 3c 7f
        E 120 80 60 00
        E 0 80 54 00
        E 0 80 48 00
        E 0 80 3c 00
        E 120 90 60 7f
        E 0 90 54 7f
        E 0 90 48 7f
        E 120 80 60 00
        E 0 80 54 00
        E 0 80 48 00
        E 120 90 60 7f
        E 0 90 54 7f
        E 0 90 48 7f
        E 0 90 3c 7f
        E 120 80 60 00
        E 0 80 54 00
        E 0 80 48 00
        E 0 80 3c 00
        E 120 90 60 7f
        E 0 90 54 7f
        E 0 90 48 7f
        E 120 80 54 00
        E 0 80 48 00
        E 240 80 60 00
        E 120 90 64 7f
        E 0 90 58 7f
        E 0 90 4c 7f
        E 120 80 58 00
        E 0 80 4c 00
        E 480 80 64 00
        E 120 90 63 7f
        E 0 90 57 7f
        E 0 90 4b 7f
        E 0 90 3e 7f
        E 120 80 63 00
        E 0 80 57 00
        E 0 80 4b 00
        E 0 80 3e 00
        E 120 90 63 7f
        E 0 90 57 7f
        E 0 90 4b 7f
        E 120 80 63 00
        E 0 80 57 00
        E 0 80 4b 00
        E 120 90 63 7f
        E 0 90 57 7f
        E 0 90 4b 7f
        E 0 90 3e 7f
        E 120 80 63 00
        E 0 80 57 00
        E 0 80 4b 00
        E 0 80 3e 00
        E 120 90 63 7f
        E 0 90 57 7f
        E 0 90 4b 7f
        E 120 80 57 00
        E 0 80 4b 00
        E 240 80 63 00
        E 120 90 61 7f
        E 0 90 55 7f
        E 0 90 49 7f
        E 120 80 55 00
        E 0 80 49 00
        E 240 80 61 00
        E 120 90 63 7f
        E 0 90 65 7f
        E 0 90 57 7f
        E 120 80 63 00
        E 0 80 65 00
        E 0 80 57 00
        E 120 90 62 7f
        E 0 90 56 7f
        E 0 90 4a 7f
        E 0 90 3d 7f
        E 120 80 62 00
        E 0 80 56 00
        E 0 80 4a 00
        E 0 80 3d 00
        E 120 90 62 7f
        E 0 90 56 7f
        E 0 90 4a 7f
        E 120 80 62 00
        E 0 80 56 00
        E 0 80 4a 00
        E 120 90 62 7f
        E 0 90 56 7f
        E 0 90 4a 7f
        E 0 90 3d 7f
        E 120 80 62 00
        E 0 80 56 00
        E 0 80 4a 00
        E 0 80 3d 00
        E 120 90 62 7f
        E 0 90 56 7f
        E 0 90 4a 7f
        E 120 80 56 00
        E 0 80 4a 00
        E 240 80 62 00
        E 120 90 61 7f
        E 0 90 55 7f
        E 0 90 49 7f
        E 120 80 55 00
        E 0 80 49 00
        E 240 80 61 00
        E 120 90 63 7f
        E 0 90 65 7f
        E 0 90 57 7f
        E 120 80 63 00
        E 0 80 65 00
        E 0 80 57 00
        E 120 90 62 7f
        E 0 90 56 7f
        E 0 90 4a 7f
        E 0 90 3d 7f
        E 120 80 62 00
        E 0 80 56 00
        E 0 80 4a 00
        E 0 80 3d 00
        E 120 90 62 7f
        E 0 90 56 7f
        E 0 90 4a 7f
        E 120 80 62 00
        E 0 80 56 00
        E 0 80 4a 00
        E 120 90 62 7f
        E 0 90 56 7f
        E 0 90 4a 7f
        E 0 90 3d 7f
        E 120 80 62 00
        E 0 80 56 00
        E 0 80 4a 00
        E 0 80 3d 00
        E 120 90 63 7f
        E 0 90 65 7f
        E 0 90 57 7f
        E 120 80 63 00
        E 0 80 65 00
        E 0 80 57 00
        E 120 90 64 7f
        E 0 90 65 7f
        E 0 90 58 7f
        E 0 90 4c 7f
        E 0 90 40 7f
        E 120 80 64 00
        E 0 80 65 00
        E 0 80 58 00
        E 0 80 4c 00
        E 0 80 40 00
        E 120 90 64 7f
        E 0 90 58 7f
        E 0 90 4c 7f
        E 120 80 64 00
        E 0 80 58 00
        E 0 80 4c 00
        E 120 90 64 7f
        E 0 90 58 7f
        E 0 90 4c 7f
        E 0 90 40 7f
        E 120 80 58 00
        E 0 80 4c 00
        E 0 80 40 00
        E 240 80 64 00
        E 120 90 60 7f
        E 0 90 54 7f
        E 0 90 48 7f
        E 0 90 3c 7f
        E 120 80 60 00
        E 0 80 54 00
        E 0 80 48 00
        E 0 80 3c 00
        E 120 90 60 7f
        E 0 90 54 7f
        E 0 90 48 7f
        E 120 80 60 00
        E 0 80 54 00
        E 0 80 48 00
        E 120 90 60 7f
        E 0 90 54 7f
        E 0 90 48 7f
        E 0 90 3c 7f
        E 120 80 60 00
        E 0 80 54 00
        E 0 80 48 00
        E 0 80 3c 00
        E 120 90 60 7f
        E 0 90 54 7f
        E 0 90 48 7f
        E 120 80 54 00
        E 0 80 48 00
        E 240 80 60 00
        E 120 90 64 7f
        E 0 90 58 7f
        E 0 90 4c 7f
        E 120 80 58 00
        E 0 80 4c 00
        E 480 80 64 00
        E 120 90 63 7f
        E 0 90 57 7f
        E 0 90 4b 7f
        E 0 90 3e 7f
        E 120 80 63 00
        E 0 80 57 00
        E 0 80 4b 00
        E 0 80 3e 00
        E 120 90 63 7f
        E 0 90 57 7f
        E 0 90 4b 7f
        E 120 80 63 00
        E 0 80 57 00
        E 0 80 4b 00
        E 120 90 63 7f
        E 0 90 57 7f
        E 0 90 4b 7f
        E 0 90 3e 7f
        E 120 80 63 00
        E 0 80 57 00
        E 0 80 4b 00
        E 0 80 3e 00
        E 120 90 63 7f
        E 0 90 57 7f
        E 0 90 4b 7f
        E 120 80 57 00
        E 0 80 4b 00
        E 240 80 63 00
        E 120 90 61 7f
        E 0 90 55 7f
        E 0 90 49 7f
        E 120 80 55 00
        E 0 80 49 00
        E 240 80 61 00
        E 120 90 63 7f
        E 0 90 65 7f
        E 0 90 57 7f
        E 120 80 63 00
        E 0 80 65 00
        E 0 80 57 00
        E 120 90 62 7f
        E 0 90 56 7f
        E 0 90 4a 7f
        E 0 90 3d 7f
        E 120 80 62 00
        E 0 80 56 00
        E 0 80 4a 00
        E 0 80 3d 00
        E 120 90 62 7f
        E 0 90 56 7f
        E 0 90 4a 7f
        E 120 80 62 00
        E 0 80 56 00
        E 0 80 4a 00
        E 120 90 62 7f
        E 0 90 56 7f
        E 0 90 4a 7f
        E 0 90 3d 7f
        E 120 80 62 00
        E 0 80 56 00
        E 0 80 4a 00
        E 0 80 3d 00
        E 120 90 62 7f
        E 0 90 56 7f
        E 0 90 4a 7f
        E 120 80 56 00
        E 0 80 4a 00
        E 240 80 62 00
        E 120 90 61 7f
        E 0 90 55 7f
        E 0 90 49 7f
        E 120 80 55 00
        E 0 80 49 00
        E 240 80 61 00
        E 120 90 63 7f
        E 0 90 65 7f
        E 0 90 57 7f
        E 120 80 63 00
        E 0 80 65 00
        E 0 80 57 00
        E 120 90 62 7f
        E 0 90 56 7f
        E 0 90 4a 7f
        E 0 90 3d 7f
        E 120 80 62 00
        E 0 80 56 00
        E 0 80 4a 00
        E 0 80 3d 00
        E 120 90 62 7f
        E 0 90 56 7f
        E 0 90 4a 7f
        E 120 80 62 00
        E 0 80 56 00
        E 0 80 4a 00
        E 120 90 62 7f
        E 0 90 56 7f
        E 0 90 4a 7f
        E 0 90 3d 7f
        E 120 80 62 00
        E 0 80 56 00
        E 0 80 4a 00
        E 0 80 3d 00
        E 120 90 63 7f
        E 0 90 65 7f
        E 0 90 57 7f
        E 120 80 63 00
        E 0 80 65 00
        E 0 80 57 00
        E 120 90 64 7f
        E 0 90 65 7f
        E 0 90 58 7f
        E 0 90 4c 7f
        E 0 90 40 7f
        E 120 80 64 00
        E 0 80 65 00
        E 0 80 58 00
        E 0 80 4c 00
        E 0 80 40 00
        E 120 90 64 7f
        E 0 90 58 7f
        E 0 90 4c 7f
        E 120 80 64 00
        E 0 80 58 00
        E 0 80 4c 00
        E 120 90 64 7f
        E 0 90 58 7f
        E 0 90 4c 7f
        E 0 90 40 7f
        E 120 80 58 00
        E 0 80 4c 00
        E 0 80 40 00
        E 240 80 64 00
        E 120 90 62 7f
        E 0 90 56 7f
        E 0 90 4a 7f
        E 0 90 3d 7f
        E 120 80 62 00
        E 0 80 56 00
        E 0 80 4a 00
        E 0 80 3d 00
        E 120 90 62 7f
        E 0 90 56 7f
        E 0 90 4a 7f
        E 120 80 62 00
        E 0 80 56 00
        E 0 80 4a 00
        E 0 90 62 7f
        E 120 80 62 00
        E 0 90 62 7f
        E 0 90 56 7f
        E 0 90 4a 7f
        E 0 90 3d 7f
        E 120 80 62 00
        E 0 80 56 00
        E 0 80 4a 00
        E 0 80 3d 00
        E 120 90 62 7f
        E 0 90 56 7f
        E 0 90 4a 7f
        E 120 80 56 00
        E 0 80 4a 00
        E 240 80 62 00
        E 120 90 61 7f
        E 0 90 55 7f
        E 120 80 61 00
        E 0 80 55 00
        E 120 90 60 7f
        E 0 90 54 7f
        E 0 90 48 7f
        E 0 90 3c 7f
        E 120 80 54 00
        E 0 80 48 00
        E 0 80 3c 00
        E 240 80 60 00
        E 120 90 64 7f
        E 0 90 58 7f
        E 0 90 4c 7f
        E 0 90 40 7f
        E 120 80 64 00
        E 0 80 58 00
        E 0 80 4c 00
        E 0 80 40 00
        E 120 90 64 7f
        E 0 90 58 7f
        E 0 90 4c 7f
        E 120 80 64 00
        E 0 80 58 00
        E 0 80 4c 00
        E 0 90 64 7f
        E 120 80 64 00
        E 0 90 64 7f
        E 0 90 58 7f
        E 0 90 4c 7f
        E 0 90 40 7f
        E 120 80 64 00
        E 0 80 58 00
        E 0 80 4c 00
        E 0 80 40 00
        E 120 90 64 7f
        E 0 90 58 7f
        E 0 90 4c 7f
        E 120 80 58 00
        E 0 80 4c 00
        E 240 80 64 00
        E 120 90 63 7f
        E 0 90 57 7f
        E 120 80 63 00
        E 0 80 57 00
        E 120 90 62 7f
        E 0 90 56 7f
        E 0 90 4a 7f
        E 0 90 3d 7f
        E 120 80 56 00
        E 0 80 4a 00
        E 0 80 3d 00
        E 240 80 62 00
        E 120 90 60 7f
        E 0 90 54 7f
        E 0 90 48 7f
        E 0 90 3c 7f
        E 120 80 60 00
        E 0 80 54 00
        E 0 80 48 00
        E 0 80 3c 00
        E 120 90 60 7f
        E 0 90 54 7f
        E 0 90 48 7f
        E 120 80 60 00
        E 0 80 54 00
        E 0 80 48 00
        E 120 90 60 7f
        E 0 90 54 7f
        E 0 90 48 7f
        E 0 90 3c 7f
        E 120 80 60 00
        E 0 80 54 00
        E 0 80 48 00
        E 0 80 3c 00
        E 120 90 60 7f
        E 0 90 54 7f
        E 0 90 48 7f
        E 120 80 54 00
        E 0 80 48 00
        E 240 80 60 00
        E 120 90 60 7f
        E 0 90 54 7f
        E 0 90 48 7f
        E 120 80 60 00
        E 0 80 54 00
        E 0 80 48 00
        E 120 90 60 7f
        E 0 90 54 7f
        E 0 90 48 7f
        E 0 90 3c 7f
        E 120 80 60 00
        E 0 80 54 00
        E 0 80 48 00
        E 0 80 3c 00
        E 120 90 60 7f
        E 0 90 54 7f
        E 0 90 48 7f
        E 120 80 60 00
        E 0 80 54 00
        E 0 80 48 00
        E 120 90 60 7f
        E 0 90 54 7f
        E 0 90 48 7f
        E 0 90 3c 7f
        E 120 80 60 00
        E 0 80 54 00
        E 0 80 48 00
        E 0 80 3c 00
        E 120 90 60 7f
        E 0 90 54 7f
        E 0 90 48 7f
        E 120 80 60 00
        E 0 80 54 00
        E 0 80 48 00
        E 120 90 60 7f
        E 0 90 54 7f
        E 0 90 48 7f
        E 0 90 3c 7f
        E 120 80 60 00
        E 0 80 54 00
        E 0 80 48 00
        E 0 80 3c 00
        E 120 90 60 7f
        E 0 90 54 7f
        E 0 90 48 7f
        E 120 80 54 00
        E 0 80 48 00
        E 240 80 60 00
        E 120 90 60 7f
        E 0 90 54 7f
        E 0 90 48 7f
        E 120 80 60 00
        E 0 80 54 00
        E 0 80 48 00
        E 120 90 60 7f
        E 0 90 54 7f
        E 0 90 48 7f
        E 0 90 3c 7f
        E 120 80 54 00
        E 0 80 48 00
        E 0 80 3c 00
        E 240 80 60 00
        E 120 90 62 7f
        E 0 90 56 7f
        E 0 90 4a 7f
        E 0 90 3d 7f
        E 120 80 62 00
        E 0 80 56 00
        E 0 80 4a 00
        E 0 80 3d 00
        E 120 90 62 7f
        E 0 90 56 7f
        E 0 90 4a 7f
        E 120 80 62 00
        E 0 80 56 00
        E 0 80 4a 00
        E 0 90 62 7f
        E 120 80 62 00
        E 0 90 62 7f
        E 0 90 56 7f
        E 0 90 4a 7f
        E 0 90 3d 7f
        E 120 80 62 00
        E 0 80 56 00
        E 0 80 4a 00
        E 0 80 3d 00
        E 120 90 62 7f
        E 0 90 56 7f
        E 0 90 4a 7f
        E 120 80 56 00
        E 0 80 4a 00
        E 240 80 62 00
        E 120 90 61 7f
        E 0 90 55 7f
        E 120 80 61 00
        E 0 80 55 00
        E 120 90 60 7f
        E 0 90 54 7f
        E 0 90 48 7f
        E 0 90 3c 7f
        E 120 80 54 00
        E 0 80 48 00
        E 0 80 3c 00
        E 240 80 60 00
        E 120 90 64 7f
        E 0 90 58 7f
        E 0 90 4c 7f
        E 0 90 40 7f
        E 120 80 64 00
        E 0 80 58 00
        E 0 80 4c 00
        E 0 80 40 00
        E 120 90 64 7f
        E 0 90 58 7f
        E 0 90 4c 7f
        E 120 80 64 00
        E 0 80 58 00
        E 0 80 4c 00
        E 0 90 64 7f
        E 120 80 64 00
        E 0 90 64 7f
        E 0 90 58 7f
        E 0 90 4c 7f
        E 0 90 40 7f
        E 120 80 64 00
        E 0 80 58 00
        E 0 80 4c 00
        E 0 80 40 00
        E 120 90 64 7f
        E 0 90 58 7f
        E 0 90 4c 7f
        E 120 80 58 00
        E 0 80 4c 00
        E 240 80 64 00
        E 120 90 63 7f
        E 0 90 57 7f
        E 120 80 63 00
        E 0 80 57 00
        E 120 90 62 7f
        E 0 90 56 7f
        E 0 90 4a 7f
        E 0 90 3d 7f
        E 120 80 56 00
        E 0 80 4a 00
        E 0 80 3d 00
        E 240 80 62 00
        E 120 90 60 7f
        E 0 90 54 7f
        E 0 90 48 7f
        E 0 90 3c 7f
        E 120 80 60 00
        E 0 80 54 00
        E 0 80 48 00
        E 0 80 3c 00
        E 120 90 60 7f
        E 0 90 54 7f
        E 0 90 48 7f
        E 120 80 60 00
        E 0 80 54 00
        E 0 80 48 00
        E 120 90 60 7f
        E 0 90 54 7f
        E 0 90 48 7f
        E 0 90 3c 7f
        E 120 80 60 00
        E 0 80 54 00
        E 0 80 48 00
        E 0 80 3c 00
        E 120 90 60 7f
        E 0 90 54 7f
        E 0 90 48 7f
        E 120 80 54 00
        E 0 80 48 00
        E 240 80 60 00
        E 120 90 60 7f
        E 0 90 54 7f
        E 0 90 48 7f
        E 120 80 60 00
        E 0 80 54 00
        E 0 80 48 00
        E 120 90 60 7f
        E 0 90 54 7f
        E 0 90 48 7f
        E 0 90 3c 7f
        E 120 80 60 00
        E 0 80 54 00
        E 0 80 48 00
        E 0 80 3c 00
        E 120 90 60 7f
        E 0 90 54 7f
        E 0 90 48 7f
        E 120 80 60 00
        E 0 80 54 00
        E 0 80 48 00
        E 120 90 60 7f
        E 0 90 54 7f
        E 0 90 48 7f
        E 0 90 3c 7f
        E 120 80 60 00
        E 0 80 54 00
        E 0 80 48 00
        E 0 80 3c 00
        E 120 90 60 7f
        E 0 90 54 7f
        E 0 90 48 7f
        E 120 80 60 00
        E 0 80 54 00
        E 0 80 48 00
        E 120 90 60 7f
        E 0 90 54 7f
        E 0 90 48 7f
        E 0 90 3c 7f
        E 120 80 60 00
        E 0 80 54 00
        E 0 80 48 00
        E 0 80 3c 00
        E 120 90 60 7f
        E 0 90 54 7f
        E 0 90 48 7f
        E 120 80 54 00
        E 0 80 48 00
        E 240 80 60 00
        E 120 90 60 7f
        E 0 90 54 7f
        E 0 90 48 7f
        E 120 80 60 00
        E 0 80 54 00
        E 0 80 48 00
        E 120 90 60 7f
        E 0 90 54 7f
        E 0 90 48 7f
        E 0 90 3c 7f
        E 120 80 54 00
        E 0 80 48 00
        E 0 80 3c 00
        E 240 80 60 00
        E 120 90 62 7f
        E 0 90 56 7f
        E 0 90 4a 7f
        E 0 90 3d 7f
        E 120 80 62 00
        E 0 80 56 00
        E 0 80 4a 00
        E 0 80 3d 00
        E 120 90 62 7f
        E 0 90 56 7f
        E 0 90 4a 7f
        E 120 80 62 00
        E 0 80 56 00
        E 0 80 4a 00
        E 0 90 62 7f
        E 120 80 62 00
        E 0 90 62 7f
        E 0 90 56 7f
        E 0 90 4a 7f
        E 0 90 3d 7f
        E 120 80 62 00
        E 0 80 56 00
        E 0 80 4a 00
        E 0 80 3d 00
        E 120 90 62 7f
        E 0 90 56 7f
        E 0 90 4a 7f
        E 120 80 56 00
        E 0 80 4a 00
        E 240 80 62 00
        E 120 90 61 7f
        E 0 90 55 7f
        E 120 80 61 00
        E 0 80 55 00
        E 120 90 60 7f
        E 0 90 54 7f
        E 0 90 48 7f
        E 0 90 3c 7f
        E 120 80 54 00
        E 0 80 48 00
        E 0 80 3c 00
        E 240 80 60 00
        E 120 90 64 7f
        E 0 90 58 7f
        E 0 90 4c 7f
        E 0 90 40 7f
        E 120 80 64 00
        E 0 80 58 00
        E 0 80 4c 00
        E 0 80 40 00
        E 120 90 64 7f
        E 0 90 58 7f
        E 0 90 4c 7f
        E 120 80 64 00
        E 0 80 58 00
        E 0 80 4c 00
        E 0 90 64 7f
        E 120 80 64 00
        E 0 90 64 7f
        E 0 90 58 7f
        E 0 90 4c 7f
        E 0 90 40 7f
        E 120 80 64 00
        E 0 80 58 00
        E 0 80 4c 00
        E 0 80 40 00
        E 120 90 64 7f
        E 0 90 58 7f
        E 0 90 4c 7f
        E 120 80 58 00
        E 0 80 4c 00
        E 240 80 64 00
        E 120 90 63 7f
        E 0 90 57 7f
        E 120 80 63 00
        E 0 80 57 00
        E 120 90 62 7f
        E 0 90 56 7f
        E 0 90 4a 7f
        E 0 90 3d 7f
        E 120 80 56 00
        E 0 80 4a 00
        E 0 80 3d 00
        E 240 80 62 00
        E 120 90 60 7f
        E 0 90 54 7f
        E 0 90 48 7f
        E 0 90 3c 7f
        E 120 80 60 00
        E 0 80 54 00
        E 0 80 48 00
        E 0 80 3c 00
        E 120 90 63 7f
        E 0 90 57 7f
        E 120 80 63 00
        E 0 80 57 00
        E 360 90 62 7f
        E 0 90 56 7f
        E 0 90 4a 7f
        E 120 80 56 00
        E 0 80 4a 00
        E 240 80 62 00
        E 120 90 60 7f
        E 0 90 54 7f
        E 120 80 60 00
        E 0 80 54 00
        E 120 90 63 7f
        E 0 90 57 7f
        E 0 90 4b 7f
        E 0 90 3e 7f
        E 120 80 63 00
        E 0 80 57 00
        E 0 80 4b 00
        E 0 80 3e 00
        E 360 90 62 7f
        E 0 90 56 7f
        E 0 90 4a 7f
        E 120 80 62 00
        E 0 80 56 00
        E 0 80 4a 00
        E 360 90 61 7f
        E 0 90 55 7f
        E 0 90 49 7f
        E 0 90 3d 7f
        E 120 80 55 00
        E 0 80 49 00
        E 0 80 3d 00
        E 240 80 61 00
        E 120 90 60 7f
        E 0 90 54 7f
        E 0 90 48 7f
        E 0 90 3c 7f
        E 120 80 60 00
        E 0 80 54 00
        E 0 80 48 00
        E 0 80 3c 00
        E 120 90 63 7f
        E 0 90 57 7f
        E 120 80 63 00
        E 0 80 57 00
        E 360 90 62 7f
        E 0 90 56 7f
        E 0 90 4a 7f
        E 120 80 56 00
        E 0 80 4a 00
        E 240 80 62 00
        E 120 90 60 7f
        E 0 90 54 7f
        E 120 80 60 00
        E 0 80 54 00
        E 120 90 63 7f
        E 0 90 57 7f
        E 0 90 4b 7f
        E 0 90 3e 7f
        E 120 80 63 00
        E 0 80 57 00
        E 0 80 4b 00
        E 0 80 3e 00
        E 360 90 62 7f
        E 0 90 56 7f
        E 0 90 4a 7f
        E 120 80 62 00
        E 0 80 56 00
        E 0 80 4a 00
        E 360 90 61 7f
        E 0 90 55 7f
        E 0 90 49 7f
        E 0 90 3d 7f
        E 120 80 55 00
        E 0 80 49 00
        E 0 80 3d 00
        E 240 80 61 00
        E 120 90 60 7f
        E 0 90 54 7f
        E 0 90 48 7f
        E 0 90 3c 7f
        E 120 80 60 00
        E 0 80 54 00
        E 0 80 48 00
        E 0 80 3c 00
        E 120 90 63 7f
        E 0 90 57 7f
        E 120 80 63 00
        E 0 80 57 00
        E 360 90 62 7f
        E 0 90 56 7f
        E 0 90 4a 7f
        E 120 80 56 00
        E 0 80 4a 00
        E 240 80 62 00
        E 120 90 60 7f
        E 0 90 54 7f
        E 120 80 60 00
        E 0 80 54 00
        E 120 90 63 7f
        E 0 90 57 7f
        E 0 90 4b 7f
        E 0 90 3e 7f
        E 120 80 63 00
        E 0 80 57 00
        E 0 80 4b 00
        E 0 80 3e 00
        E 360 90 62 7f
        E 0 90 56 7f
        E 0 90 4a 7f
        E 120 80 62 00
        E 0 80 56 00
        E 0 80 4a 00
        E 360 90 61 7f
        E 0 90 55 7f
        E 0 90 49 7f
        E 0 90 3d 7f
        E 120 80 55 00
        E 0 80 49 00
        E 0 80 3d 00
        E 240 80 61 00
        E 120 90 60 7f
        E 0 90 54 7f
        E 0 90 48 7f
        E 0 90 3c 7f
        E 120 80 60 00
        E 0 80 54 00
        E 0 80 48 00
        E 0 80 3c 00
        E 120 90 63 7f
        E 0 90 57 7f
        E 120 80 63 00
        E 0 80 57 00
        E 360 90 62 7f
        E 0 90 56 7f
        E 0 90 4a 7f
        E 120 80 56 00
        E 0 80 4a 00
        E 240 80 62 00
        E 120 90 60 7f
        E 0 90 54 7f
        E 120 80 60 00
        E 0 80 54 00
        E 120 90 63 7f
        E 0 90 57 7f
        E 0 90 4b 7f
        E 0 90 3e 7f
        E 120 80 63 00
        E 0 80 57 00
        E 0 80 4b 00
        E 0 80 3e 00
        E 360 90 62 7f
        E 0 90 56 7f
        E 0 90 4a 7f
        E 120 80 62 00
        E 0 80 56 00
        E 0 80 4a 00
        E 360 90 61 7f
        E 0 90 55 7f
        E 0 90 49 7f
        E 0 90 3d 7f
        E 120 80 55 00
        E 0 80 49 00
        E 0 80 3d 00
        E 240 80 61 00
        E 120 90 60 7f
        E 0 90 54 7f
        E 0 90 48 7f
        E 0 90 3c 7f
        E 120 80 60 00
        E 0 80 54 00
        E 0 80 48 00
        E 0 80 3c 00
        E 120 90 63 7f
        E 0 90 57 7f
        E 120 80 63 00
        E 0 80 57 00
        E 360 90 62 7f
        E 0 90 56 7f
        E 0 90 4a 7f
        E 120 80 56 00
        E 0 80 4a 00
        E 240 80 62 00
        E 120 90 60 7f
        E 0 90 54 7f
        E 120 80 60 00
        E 0 80 54 00
        E 120 90 63 7f
        E 0 90 57 7f
        E 0 90 4b 7f
        E 0 90 3e 7f
        E 120 80 63 00
        E 0 80 57 00
        E 0 80 4b 00
        E 0 80 3e 00
        E 360 90 62 7f
        E 0 90 56 7f
        E 0 90 4a 7f
        E 120 80 62 00
        E 0 80 56 00
        E 0 80 4a 00
        E 360 90 61 7f
        E 0 90 55 7f
        E 0 90 49 7f
        E 0 90 3d 7f
        E 120 80 55 00
        E 0 80 49 00
        E 0 80 3d 00
        E 240 80 61 00
        E 120 90 60 7f
        E 0 90 54 7f
        E 0 90 48 7f
        E 0 90 3c 7f
        E 120 80 60 00
        E 0 80 54 00
        E 0 80 48 00
        E 0 80 3c 00
        E 120 90 63 7f
        E 0 90 57 7f
        E 120 80 63 00
        E 0 80 57 00
        E 360 90 62 7f
        E 0 90 56 7f
        E 0 90 4a 7f
        E 120 80 56 00
        E 0 80 4a 00
        E 240 80 62 00
        E 120 90 60 7f
        E 0 90 54 7f
        E 120 80 60 00
        E 0 80 54 00
        E 120 90 63 7f
        E 0 90 57 7f
        E 0 90 4b 7f
        E 0 90 3e 7f
        E 120 80 63 00
        E 0 80 57 00
        E 0 80 4b 00
        E 0 80 3e 00
        E 360 90 62 7f
        E 0 90 56 7f
        E 0 90 4a 7f
        E 120 80 62 00
        E 0 80 56 00
        E 0 80 4a 00
        E 360 90 61 7f
        E 0 90 55 7f
        E 0 90 49 7f
        E 0 90 3d 7f
        E 120 80 55 00
        E 0 80 49 00
        E 0 80 3d 00
        E 240 80 61 00
        E 120 90 60 7f
        E 0 90 54 7f
        E 0 90 48 7f
        E 0 90 3c 7f
        E 120 80 60 00
        E 0 80 54 00
        E 0 80 48 00
        E 0 80 3c 00
        E 120 90 63 7f
        E 0 90 57 7f
        E 120 80 63 00
        E 0 80 57 00
        E 360 90 62 7f
        E 0 90 56 7f
        E 0 90 4a 7f
        E 120 80 56 00
        E 0 80 4a 00
        E 240 80 62 00
        E 120 90 60 7f
        E 0 90 54 7f
        E 120 80 60 00
        E 0 80 54 00
        E 120 90 63 7f
        E 0 90 57 7f
        E 0 90 4b 7f
        E 0 90 3e 7f
        E 120 80 63 00
        E 0 80 57 00
        E 0 80 4b 00
        E 0 80 3e 00
        E 360 90 62 7f
        E 0 90 56 7f
        E 0 90 4a 7f
        E 120 80 62 00
        E 0 80 56 00
        E 0 80 4a 00
        E 360 90 61 7f
        E 0 90 55 7f
        E 0 90 49 7f
        E 0 90 3d 7f
        E 120 80 55 00
        E 0 80 49 00
        E 0 80 3d 00
        E 240 80 61 00
        E 120 90 60 7f
        E 0 90 54 7f
        E 0 90 48 7f
        E 0 90 3c 7f
        E 120 80 60 00
        E 0 80 54 00
        E 0 80 48 00
        E 0 80 3c 00
        E 120 90 63 7f
        E 0 90 57 7f
        E 120 80 63 00
        E 0 80 57 00
        E 360 90 62 7f
        E 0 90 56 7f
        E 0 90 4a 7f
        E 120 80 56 00
        E 0 80 4a 00
        E 240 80 62 00
        E 120 90 60 7f
        E 0 90 54 7f
        E 120 80 60 00
        E 0 80 54 00
        E 120 90 63 7f
        E 0 90 57 7f
        E 0 90 4b 7f
        E 0 90 3e 7f
        E 120 80 63 00
        E 0 80 57 00
        E 0 80 4b 00
        E 0 80 3e 00
        E 360 90 62 7f
        E 0 90 56 7f
        E 0 90 4a 7f
        E 120 80 62 00
        E 0 80 56 00
        E 0 80 4a 00
        E 360 90 61 7f
        E 0 90 55 7f
        E 0 90 49 7f
        E 0 90 3d 7f
        E 120 80 55 00
        E 0 80 49 00
        E 0 80 3d 00
        E 240 80 61 00
        E 120 90 60 7f
        E 0 90 54 7f
        E 0 90 48 7f
        E 0 90 3c 7f
        E 120 80 60 00
        E 0 80 54 00
        E 0 80 48 00
        E 0 80 3c 00
        E 120 90 63 7f
        E 0 90 57 7f
        E 120 80 63 00
        E 0 80 57 00
        E 360 90 62 7f
        E 0 90 56 7f
        E 0 90 4a 7f
        E 120 80 56 00
        E 0 80 4a 00
        E 240 80 62 00
        E 120 90 60 7f
        E 0 90 54 7f
        E 120 80 60 00
        E 0 80 54 00
        E 120 90 63 7f
        E 0 90 57 7f
        E 0 90 4b 7f
        E 0 90 3e 7f
        E 120 80 63 00
        E 0 80 57 00
        E 0 80 4b 00
        E 0 80 3e 00
        E 360 90 62 7f
        E 0 90 56 7f
        E 0 90 4a 7f
        E 120 80 62 00
        E 0 80 56 00
        E 0 80 4a 00
        E 360 90 61 7f
        E 0 90 55 7f
        E 0 90 49 7f
        E 0 90 3d 7f
        E 120 80 55 00
        E 0 80 49 00
        E 0 80 3d 00
        E 240 80 61 00
        E 120 90 60 7f
        E 0 90 54 7f
        E 0 90 48 7f
        E 0 90 3c 7f
        E 120 80 60 00
        E 0 80 54 00
        E 0 80 48 00
        E 0 80 3c 00
        E 120 90 63 7f
        E 0 90 57 7f
        E 120 80 63 00
        E 0 80 57 00
        E 360 90 62 7f
        E 0 90 56 7f
        E 0 90 4a 7f
        E 120 80 56 00
        E 0 80 4a 00
        E 240 80 62 00
        E 120 90 60 7f
        E 0 90 54 7f
        E 120 80 60 00
        E 0 80 54 00
        E 120 90 63 7f
        E 0 90 57 7f
        E 0 90 4b 7f
        E 0 90 3e 7f
        E 120 80 63 00
        E 0 80 57 00
        E 0 80 4b 00
        E 0 80 3e 00
        E 360 90 62 7f
        E 0 90 56 7f
        E 0 90 4a 7f
        E 120 80 62 00
        E 0 80 56 00
        E 0 80 4a 00
        E 360 90 61 7f
        E 0 90 55 7f
        E 0 90 49 7f
        E 0 90 3d 7f
        E 120 80 55 00
        E 0 80 49 00
        E 0 80 3d 00
        E 240 80 61 00
        E 120 90 60 7f
        E 0 90 54 7f
        E 0 90 48 7f
        E 0 90 3c 7f
        E 120 80 60 00
        E 0 80 54 00
        E 0 80 48 00
        E 0 80 3c 00
        E 120 90 63 7f
        E 0 90 57 7f
        E 120 80 63 00
        E 0 80 57 00
        E 360 90 62 7f
        E 0 90 56 7f
        E 0 90 4a 7f
        E 120 80 56 00
        E 0 80 4a 00
        E 240 80 62 00
        E 120 90 60 7f
        E 0 90 54 7f
        E 120 80 60 00
        E 0 80 54 00
        E 120 90 63 7f
        E 0 90 57 7f
        E 0 90 4b 7f
        E 0 90 3e 7f
        E 120 80 63 00
        E 0 80 57 00
        E 0 80 4b 00
        E 0 80 3e 00
        E 360 90 62 7f
        E 0 90 56 7f
        E 0 90 4a 7f
        E 120 80 62 00
        E 0 80 56 00
        E 0 80 4a 00
        E 360 90 61 7f
        E 0 90 55 7f
        E 0 90 49 7f
        E 0 90 3d 7f
        E 120 80 55 00
        E 0 80 49 00
        E 0 80 3d 00
        E 240 80 61 00
        E 120 90 60 7f
        E 0 90 54 7f
        E 0 90 48 7f
        E 0 90 3c 7f
        E 120 80 60 00
        E 0 80 54 00
        E 0 80 48 00
        E 0 80 3c 00
        E 120 90 63 7f
        E 0 90 57 7f
        E 120 80 63 00
        E 0 80 57 00
        E 360 90 62 7f
        E 0 90 56 7f
        E 0 90 4a 7f
        E 120 80 56 00
        E 0 80 4a 00
        E 240 80 62 00
        E 120 90 60 7f
        E 0 90 54 7f
        E 120 80 60 00
        E 0 80 54 00
        E 120 90 63 7f
        E 0 90 57 7f
        E 0 90 4b 7f
        E 0 90 3e 7f
        E 120 80 63 00
        E 0 80 57 00
        E 0 80 4b 00
        E 0 80 3e 00
        E 360 90 62 7f
        E 0 90 56 7f
        E 0 90 4a 7f
        E 120 80 62 00
        E 0 80 56 00
        E 0 80 4a 00
        E 360 90 61 7f
        E 0 90 55 7f
        E 0 90 49 7f
        E 0 90 3d 7f
        E 120 80 55 00
        E 0 80 49 00
        E 0 80 3d 00
        E 240 80 61 00
        E 120 90 60 7f
        E 0 90 54 7f
        E 0 90 48 7f
        E 0 90 3c 7f
        E 120 80 60 00
        E 0 80 54 00
        E 0 80 48 00
        E 0 80 3c 00
        E 120 90 63 7f
        E 0 90 57 7f
        E 120 80 63 00
        E 0 80 57 00
        E 360 90 62 7f
        E 0 90 56 7f
        E 0 90 4a 7f
        E 120 80 56 00
        E 0 80 4a 00
        E 240 80 62 00
        E 120 90 60 7f
        E 0 90 54 7f
        E 120 80 60 00
        E 0 80 54 00
        E 120 90 63 7f
        E 0 90 57 7f
        E 0 90 4b 7f
        E 0 90 3e 7f
        E 120 80 63 00
        E 0 80 57 00
        E 0 80 4b 00
        E 0 80 3e 00
        E 360 90 62 7f
        E 0 90 56 7f
        E 0 90 4a 7f
        E 120 80 62 00
        E 0 80 56 00
        E 0 80 4a 00
        E 360 90 61 7f
        E 0 90 55 7f
        E 0 90 49 7f
        E 0 90 3d 7f
        E 120 80 55 00
        E 0 80 49 00
        E 0 80 3d 00
        E 240 80 61 00
        E 120 90 60 7f
        E 0 90 54 7f
        E 0 90 48 7f
        E 0 90 3c 7f
        E 120 80 60 00
        E 0 80 54 00
        E 0 80 48 00
        E 0 80 3c 00
        E 120 90 63 7f
        E 0 90 57 7f
        E 120 80 63 00
        E 0 80 57 00
        E 360 90 62 7f
        E 0 90 56 7f
        E 0 90 4a 7f
        E 120 80 56 00
        E 0 80 4a 00
        E 240 80 62 00
        E 120 90 60 7f
        E 0 90 54 7f
        E 120 80 60 00
        E 0 80 54 00
        E 120 90 63 7f
        E 0 90 57 7f
        E 0 90 4b 7f
        E 0 90 3e 7f
        E 120 80 63 00
        E 0 80 57 00
        E 0 80 4b 00
        E 0 80 3e 00
        E 360 90 62 7f
        E 0 90 56 7f
        E 0 90 4a 7f
        E 120 80 62 00
        E 0 80 56 00
        E 0 80 4a 00
        E 360 90 61 7f
        E 0 90 55 7f
        E 0 90 49 7f
        E 0 90 3d 7f
        E 120 80 55 00
        E 0 80 49 00
        E 0 80 3d 00
        E 240 80 61 00
        E 120 90 60 7f
        E 0 90 54 7f
        E 0 90 48 7f
        E 0 90 3c 7f
        E 120 80 60 00
        E 0 80 54 00
        E 0 80 48 00
        E 0 80 3c 00
        E 120 90 61 7f
        E 0 90 55 7f
        E 120 80 61 00
        E 0 80 55 00
        E 120 90 62 7f
        E 0 90 56 7f
        E 0 90 4a 7f
        E 120 80 62 00
        E 0 80 56 00
        E 0 80 4a 00
        E 120 90 63 7f
        E 0 90 57 7f
        E 120 80 57 00
        E 240 80 63 00
        E 120 90 60 7f
        E 0 90 54 7f
        E 120 80 60 00
        E 0 80 54 00
        E 120 90 61 7f
        E 0 90 55 7f
        E 0 90 49 7f
        E 0 90 3d 7f
        E 120 80 55 00
        E 0 80 49 00
        E 0 80 3d 00
        E 240 80 61 00
        E 120 90 63 7f
        E 0 90 57 7f
        E 0 90 4b 7f
        E 120 80 57 00
        E 0 80 4b 00
        E 240 80 63 00
        E 120 90 64 7f
        E 0 90 58 7f
        E 0 90 4c 7f
        E 0 90 40 7f
        E 120 80 58 00
        E 0 80 4c 00
        E 0 80 40 00
        E 240 80 64 00
        E 120 90 60 7f
        E 0 90 54 7f
        E 0 90 48 7f
        E 0 90 3c 7f
        E 120 80 60 00
        E 0 80 54 00
        E 0 80 48 00
        E 0 80 3c 00
        E 120 90 61 7f
        E 0 90 55 7f
        E 120 80 61 00
        E 0 80 55 00
        E 120 90 62 7f
        E 0 90 56 7f
        E 0 90 4a 7f
        E 120 80 62 00
        E 0 80 56 00
        E 0 80 4a 00
        E 120 90 63 7f
        E 0 90 57 7f
        E 120 80 57 00
        E 240 80 63 00
        E 120 90 60 7f
        E 0 90 54 7f
        E 120 80 60 00
        E 0 80 54 00
        E 120 90 61 7f
        E 0 90 55 7f
        E 0 90 49 7f
        E 0 90 3d 7f
        E 120 80 55 00
        E 0 80 49 00
        E 0 80 3d 00
        E 240 80 61 00
        E 120 90 63 7f
        E 0 90 57 7f
        E 0 90 4b 7f
        E 120 80 57 00
        E 0 80 4b 00
        E 240 80 63 00
        E 120 90 64 7f
        E 0 90 58 7f
        E 0 90 4c 7f
        E 0 90 40 7f
        E 120 80 58 00
        E 0 80 4c 00
        E 0 80 40 00
        E 240 80 64 00
        E 120 90 60 7f
        E 0 90 54 7f
        E 0 90 48 7f
        E 0 90 3c 7f
        E 120 80 60 00
        E 0 80 54 00
        E 0 80 48 00
        E 0 80 3c 00
        E 120 90 61 7f
        E 0 90 55 7f
        E 120 80 61 00
        E 0 80 55 00
        E 120 90 62 7f
        E 0 90 56 7f
        E 0 90 4a 7f
        E 120 80 62 00
        E 0 80 56 00
        E 0 80 4a 00
        E 120 90 63 7f
        E 0 90 57 7f
        E 120 80 57 00
        E 240 80 63 00
        E 120 90 60 7f
        E 0 90 54 7f
        E 120 80 60 00
        E 0 80 54 00
        E 120 90 61 7f
        E 0 90 55 7f
        E 0 90 49 7f
        E 0 90 3d 7f
        E 120 80 55 00
        E 0 80 49 00
        E 0 80 3d 00
        E 240 80 61 00
        E 120 90 63 7f
        E 0 90 57 7f
        E 0 90 4b 7f
        E 120 80 57 00
        E 0 80 4b 00
        E 240 80 63 00
        E 120 90 64 7f
        E 0 90 58 7f
        E 0 90 4c 7f
        E 0 90 40 7f
        E 120 80 58 00
        E 0 80 4c 00
        E 0 80 40 00
        E 240 80 64 00
        E 120 90 60 7f
        E 0 90 54 7f
        E 0 90 48 7f
        E 0 90 3c 7f
        E 120 80 60 00
        E 0 80 54 00
        E 0 80 48 00
        E 0 80 3c 00
        E 120 90 61 7f
        E 0 90 55 7f
        E 120 80 61 00
        E 0 80 55 00
        E 120 90 62 7f
        E 0 90 56 7f
        E 0 90 4a 7f
        E 120 80 62 00
        E 0 80 56 00
        E 0 80 4a 00
        E 120 90 63 7f
        E 0 90 57 7f
        E 120 80 57 00
        E 240 80 63 00
        E 120 90 60 7f
        E 0 90 54 7f
        E 120 80 60 00
        E 0 80 54 00
        E 120 90 61 7f
        E 0 90 55 7f
        E 0 90 49 7f
        E 0 90 3d 7f
        E 120 80 55 00
        E 0 80 49 00
        E 0 80 3d 00
        E 240 80 61 00
        E 120 90 63 7f
        E 0 90 57 7f
        E 0 90 4b 7f
        E 120 80 57 00
        E 0 80 4b 00
        E 240 80 63 00
        E 120 90 64 7f
        E 0 90 58 7f
        E 0 90 4c 7f
        E 0 90 40 7f
        E 720 80 64 00
        E 0 80 58 00
        E 0 80 4c 00
        E 0 80 40 00
        <X 480 0
          /wFbaWRsZV9yZWFsdGltZV0=
        >
        E 1680 b0 7b 00
        GUID {54A57D35-811F-42A6-AB75-F5706122F903}
        IGNTEMPO 0 120 4 4
        SRCCOLOR 1501
        VELLANE 132 36 60
        COLORMAP "C:\Program Files (x86)\REAPER\Data\color_maps\rockband_guitarbass.png"
        TEXTSTRINGFILE "Text Events List.txt"
        CFGEDITVIEW -56806.968037 7.745529 12 12 0 0 0 0 0 0.5
        KEYSNAP 0
        TRACKSEL 0 0 0 ""
        EVTFILTER 0 -1 -1 -1 -1 0 1 0 0 -1 -1 -1 -1 0 -1 0 -1 -1
        CFGEDIT 1 1 0 0 0 1 1 1 1 1 1 0.25 -8 -8 1370 736 1 2 1 2 0 0 0 0 0 0.5 1 0 1 64
      >
    >
  >
  <TRACK {4BCC1CF3-63A3-43C4-A155-D3593AD88A10}
    NAME EVENTS
    PEAKCOL 29393024
    BEAT -1
    AUTOMODE 0
    VOLPAN 1 0 -1 -1 1
    MUTESOLO 0 0 0
    IPHASE 0
    ISBUS 1 1
    BUSCOMP 0 0
    SHOWINMIX 1 0.6667 0.5 1 0.5 0 0 0
    FREEMODE 0
    SEL 0
    REC 0 0 0 0 0 0 0
    TRACKHEIGHT 0 0
    INQ 0 0 0 0.5 100 0 0 100
    NCHAN 2
    FX 1
    TRACKID {4BCC1CF3-63A3-43C4-A155-D3593AD88A10}
    PERF 0
    MIDIOUT -1
    MAINSEND 1 0
    <FXCHAIN
      SHOW 0
      LASTSEL 0
      DOCKED 0
    >
    <ITEM
      POSITION 0
      SNAPOFFS 0
      LENGTH 122.55274390189261
      LOOP 0
      ALLTAKES 0
      FADEIN 1 0 0 1 0 0
      FADEOUT 1 0 0 1 0 0
      MUTE 0
      SEL 0
      IGUID {86A06D27-867C-4398-9CE6-8F0526B3B594}
      IID 7
      NAME EVENTS
      VOLPAN 1 0 1 -1
      SOFFS 0 0
      PLAYRATE 1 1 0 -65536 0 0.0025
      CHANMODE 0
      GUID {584C8192-4FF3-4E29-8138-2E6BD568B61A}
      <SOURCE MIDI
        HASDATA 1 480 QN
        POOLEDEVTS {211F5B67-E078-4D74-9A4D-140E1E931604}
        <X 0 0
          /wNFVkVOVFM=
        >
        <X 0 0
          /wFbY3Jvd2Rfbm9ybWFsXQ==
        >
        <X 0 0
          /wFbcHJjX2ludHJvXQ==
        >
        <X 3840 0
          /wFbbXVzaWNfc3RhcnRd
        >
        <X 14880 0
          /wFbcHJjX3ZlcnNlXzFhXQ==
        >
        <X 15360 0
          /wFbcHJjX3ZlcnNlXzFiXQ==
        >
        <X 23040 0
          /wFbcHJjX2JyaWRnZV9hXQ==
        >
        <X 7680 0
          /wFbcHJjX3ZlcnNlXzJhXQ==
        >
        <X 23040 0
          /wFbcHJjX3ZlcnNlXzJiXQ==
        >
        <X 15360 0
          /wFbcHJjX2Nob3J1c18xYV0=
        >
        <X 10080 0
          /wFbcHJjX2d0cl9zb2xvXQ==
        >
        <X 8160 0
          /wFbcHJjX3ZlcnNlXzNhXQ==
        >
        <X 15360 0
          /wFbcHJjX3ZlcnNlXzNiXQ==
        >
        <X 9600 0
          /wFbcHJjX3ZlcnNlXzNjXQ==
        >
        <X 15360 0
          /wFbcHJjX2Nob3J1c18yYV0=
        >
        <X 15360 0
          /wFbcHJjX291dHJvXQ==
        >
        <X 10560 0
          /wFbbXVzaWNfZW5kXQ==
        >
        <X 3840 0
          /wFbZW5kXQ==
        >
        E 480 b0 7b 00
        GUID {40AD7956-A22A-434A-8513-4D3792B9DF69}
        IGNTEMPO 0 120 4 4
        SRCCOLOR 1502
        VELLANE 132 100 100
        COLORMAP "C:\Users\AJFOne23\AppData\Roaming\REAPER\Data\color_maps\rockband_vox-other.png"
        TEXTSTRINGFILE "Text Events List.txt"
        CFGEDITVIEW 149679.512519 45.421099 0 48 0 0 0 0 0 0.5
        KEYSNAP 0
        TRACKSEL 0 0 0 ""
        EVTFILTER 0 -1 -1 -1 -1 0 1 0 0 -1 -1 -1 -1 0 -1 0 -1 -1
        CFGEDIT 1 1 0 0 0 1 1 1 1 1 1 1 44 63 1223 847 1 2 1 2 0 0 0 0 0 0.5 1 0 1 64
      >
    >
  >
  <TRACK {1529008F-97D2-43EB-8634-7C5A7418AD90}
    NAME VENUE
    PEAKCOL 16842496
    BEAT -1
    AUTOMODE 0
    VOLPAN 1 0 -1 -1 1
    MUTESOLO 0 0 0
    IPHASE 0
    ISBUS 0 0
    BUSCOMP 0 0
    SHOWINMIX 1 0.6667 0.5 1 0.5 0 0 0
    FREEMODE 0
    SEL 0
    REC 0 0 0 0 0 0 0
    TRACKHEIGHT 0 0
    INQ 0 0 0 0.5 100 0 0 100
    NCHAN 2
    FX 1
    TRACKID {1529008F-97D2-43EB-8634-7C5A7418AD90}
    PERF 0
    MIDIOUT -1
    <MIDINOTENAMES
      0 37 "Spotlight on Bass" 0 37
      0 38 "Spotlight on Drums" 0 38
      0 39 "Spotlight on Guitar" 0 39
      0 40 "Spotlight on Vocals" 0 40
      0 41 "Spotlight on Keys" 0 41
      0 85 "Bassist Sing Along" 0 85
      0 86 "Drummer Sing Along" 0 86
      0 87 "Guitarist Sing Along" 0 87
    >
    MAINSEND 1 0
    <FXCHAIN
      SHOW 0
      LASTSEL 0
      DOCKED 0
    >
    <ITEM
      POSITION 0
      SNAPOFFS 0
      LENGTH 121.26242132124742
      LOOP 0
      ALLTAKES 0
      FADEIN 1 0 0 1 0 0
      FADEOUT 1 0 0 1 0 0
      MUTE 0
      SEL 0
      IGUID {71027329-E0AB-447D-A192-4839733334E7}
      IID 8
      NAME VENUE
      VOLPAN 1 0 1 -1
      SOFFS 0 0
      PLAYRATE 1 1 0 -65536 0 0.0025
      CHANMODE 0
      GUID {44F0FFD1-5109-4A47-8BED-262AA04D3B23}
      <SOURCE MIDI
        HASDATA 1 480 QN
        POOLEDEVTS {A5932E05-DC92-4B47-BB43-EAD6A5C31512}
        <X 0 0
          /wNWRU5VRQ==
        >
        <X 0 0
          /wFbbGlnaHRpbmcgKCld
        >
        E 190080 b0 7b 00
        GUID {30097062-47C5-4B33-B665-170EF09D70D9}
        IGNTEMPO 0 120 4 4
        SRCCOLOR 1503
        VELLANE 132 230 230
        COLORMAP "C:\Users\AJFOne23\AppData\Roaming\REAPER\Data\color_maps\rockband_vox-other.png"
        TEXTSTRINGFILE "Text Events List.txt"
        CFGEDITVIEW -2978.035058 68.662724 79 12 0 0 0 0 0 0.5
        KEYSNAP 0
        TRACKSEL 0 0 0 ""
        EVTFILTER 0 -1 -1 -1 -1 0 1 0 0 -1 -1 -1 -1 0 -1 0 -1 -1
        CFGEDIT 1 1 0 0 0 1 1 1 1 1 1 0.25 133 19 1300 803 1 0 1 2 0 0 0 0 0 0.5 1 0 1 64
      >
    >
  >
  <TRACK {7BC63EFC-0ABC-4D0D-8204-E9893AE9FFFA}
    NAME BEAT
    PEAKCOL 23514346
    BEAT -1
    AUTOMODE 0
    VOLPAN 1 0 -1 -1 1
    MUTESOLO 0 0 0
    IPHASE 0
    ISBUS 2 -1
    BUSCOMP 1 0
    SHOWINMIX 1 0.6667 0.5 1 0.5 0 0 0
    FREEMODE 0
    SEL 0
    REC 0 0 0 0 0 0 0
    TRACKHEIGHT 0 0
    INQ 0 0 0 0.5 100 0 0 100
    NCHAN 2
    FX 1
    TRACKID {7BC63EFC-0ABC-4D0D-8204-E9893AE9FFFA}
    PERF 0
    MIDIOUT -1
    <MIDINOTENAMES
      0 12 Downbeat 0 12
      0 13 "Up Beats" 0 13
    >
    MAINSEND 1 0
    <FXCHAIN
      SHOW 0
      LASTSEL 0
      DOCKED 0
    >
    <ITEM
      POSITION 0
      SNAPOFFS 0
      LENGTH 122.87532454705386
      LOOP 0
      ALLTAKES 0
      FADEIN 1 0 0 1 0 0
      FADEOUT 1 0 0 1 0 0
      MUTE 0
      SEL 0
      IGUID {9960CDFD-BF2E-4E67-97CD-4F13D0A3F2ED}
      IID 9
      NAME BEAT
      VOLPAN 1 0 1 -1
      SOFFS 0 0
      PLAYRATE 1 1 0 -65536 0 0.0025
      CHANMODE 0
      GUID {CEBFDCF1-B2BD-47E1-A085-C26E1C9E9ED2}
      <SOURCE MIDI
        HASDATA 1 480 QN
        POOLEDEVTS {CCB012E2-0F0D-4145-9F1C-F287E778B5FB}
        <X 0 0
          /wNCRUFU
        >
        E 0 96 0c 64
        E 120 86 0c 00
        E 360 96 0d 64
        E 120 86 0d 00
        E 360 96 0d 64
        E 120 86 0d 00
        E 360 96 0c 64
        E 120 86 0c 00
        E 360 96 0d 64
        E 120 86 0d 00
        E 360 96 0d 64
        E 120 86 0d 00
        E 360 96 0c 64
        E 120 86 0c 00
        E 360 96 0d 64
        E 120 86 0d 00
        E 360 96 0d 64
        E 120 86 0d 00
        E 360 96 0c 64
        E 120 86 0c 00
        E 360 96 0d 64
        E 120 86 0d 00
        E 360 96 0d 64
        E 120 86 0d 00
        E 360 96 0c 64
        E 120 86 0c 00
        E 360 96 0d 64
        E 120 86 0d 00
        E 360 96 0d 64
        E 120 86 0d 00
        E 360 96 0c 64
        E 120 86 0c 00
        E 360 96 0d 64
        E 120 86 0d 00
        E 360 96 0d 64
        E 120 86 0d 00
        E 360 96 0c 64
        E 120 86 0c 00
        E 360 96 0d 64
        E 120 86 0d 00
        E 360 96 0d 64
        E 120 86 0d 00
        E 360 96 0c 64
        E 120 86 0c 00
        E 360 96 0d 64
        E 120 86 0d 00
        E 360 96 0d 64
        E 120 86 0d 00
        E 360 96 0c 64
        E 120 86 0c 00
        E 360 96 0d 64
        E 120 86 0d 00
        E 360 96 0d 64
        E 120 86 0d 00
        E 360 96 0c 64
        E 120 86 0c 00
        E 360 96 0d 64
        E 120 86 0d 00
        E 360 96 0d 64
        E 120 86 0d 00
        E 360 96 0c 64
        E 120 86 0c 00
        E 360 96 0d 64
        E 120 86 0d 00
        E 360 96 0d 64
        E 120 86 0d 00
        E 360 96 0c 64
        E 120 86 0c 00
        E 360 96 0d 64
        E 120 86 0d 00
        E 360 96 0d 64
        E 120 86 0d 00
        E 360 96 0c 64
        E 120 86 0c 00
        E 360 96 0d 64
        E 120 86 0d 00
        E 360 96 0d 64
        E 120 86 0d 00
        E 360 96 0c 64
        E 120 86 0c 00
        E 360 96 0d 64
        E 120 86 0d 00
        E 360 96 0d 64
        E 120 86 0d 00
        E 360 96 0c 64
        E 120 86 0c 00
        E 360 96 0d 64
        E 120 86 0d 00
        E 360 96 0d 64
        E 120 86 0d 00
        E 360 96 0c 64
        E 120 86 0c 00
        E 360 96 0d 64
        E 120 86 0d 00
        E 360 96 0d 64
        E 120 86 0d 00
        E 360 96 0c 64
        E 120 86 0c 00
        E 360 96 0d 64
        E 120 86 0d 00
        E 360 96 0d 64
        E 120 86 0d 00
        E 360 96 0c 64
        E 120 86 0c 00
        E 360 96 0d 64
        E 120 86 0d 00
        E 360 96 0d 64
        E 120 86 0d 00
        E 360 96 0c 64
        E 120 86 0c 00
        E 360 96 0d 64
        E 120 86 0d 00
        E 360 96 0d 64
        E 120 86 0d 00
        E 360 96 0c 64
        E 120 86 0c 00
        E 360 96 0d 64
        E 120 86 0d 00
        E 360 96 0d 64
        E 120 86 0d 00
        E 360 96 0c 64
        E 120 86 0c 00
        E 360 96 0d 64
        E 120 86 0d 00
        E 360 96 0d 64
        E 120 86 0d 00
        E 360 96 0c 64
        E 120 86 0c 00
        E 360 96 0d 64
        E 120 86 0d 00
        E 360 96 0d 64
        E 120 86 0d 00
        E 360 96 0c 64
        E 120 86 0c 00
        E 360 96 0d 64
        E 120 86 0d 00
        E 360 96 0d 64
        E 120 86 0d 00
        E 360 96 0c 64
        E 120 86 0c 00
        E 360 96 0d 64
        E 120 86 0d 00
        E 360 96 0d 64
        E 120 86 0d 00
        E 360 96 0c 64
        E 120 86 0c 00
        E 360 96 0d 64
        E 120 86 0d 00
        E 360 96 0d 64
        E 120 86 0d 00
        E 360 96 0c 64
        E 120 86 0c 00
        E 360 96 0d 64
        E 120 86 0d 00
        E 360 96 0d 64
        E 120 86 0d 00
        E 360 96 0c 64
        E 120 86 0c 00
        E 360 96 0d 64
        E 120 86 0d 00
        E 360 96 0d 64
        E 120 86 0d 00
        E 360 96 0c 64
        E 120 86 0c 00
        E 360 96 0d 64
        E 120 86 0d 00
        E 360 96 0d 64
        E 120 86 0d 00
        E 360 96 0c 64
        E 120 86 0c 00
        E 360 96 0d 64
        E 120 86 0d 00
        E 360 96 0d 64
        E 120 86 0d 00
        E 360 96 0c 64
        E 120 86 0c 00
        E 360 96 0d 64
        E 120 86 0d 00
        E 360 96 0d 64
        E 120 86 0d 00
        E 360 96 0c 64
        E 120 86 0c 00
        E 360 96 0d 64
        E 120 86 0d 00
        E 360 96 0d 64
        E 120 86 0d 00
        E 360 96 0c 64
        E 120 86 0c 00
        E 360 96 0d 64
        E 120 86 0d 00
        E 360 96 0d 64
        E 120 86 0d 00
        E 360 96 0c 64
        E 120 86 0c 00
        E 360 96 0d 64
        E 120 86 0d 00
        E 360 96 0d 64
        E 120 86 0d 00
        E 360 96 0c 64
        E 120 86 0c 00
        E 360 96 0d 64
        E 120 86 0d 00
        E 360 96 0d 64
        E 120 86 0d 00
        E 360 96 0c 64
        E 120 86 0c 00
        E 360 96 0d 64
        E 120 86 0d 00
        E 360 96 0d 64
        E 120 86 0d 00
        E 360 96 0c 64
        E 120 86 0c 00
        E 360 96 0d 64
        E 120 86 0d 00
        E 360 96 0d 64
        E 120 86 0d 00
        E 360 96 0c 64
        E 120 86 0c 00
        E 360 96 0d 64
        E 120 86 0d 00
        E 360 96 0d 64
        E 120 86 0d 00
        E 360 96 0c 64
        E 120 86 0c 00
        E 360 96 0d 64
        E 120 86 0d 00
        E 360 96 0d 64
        E 120 86 0d 00
        E 360 96 0c 64
        E 120 86 0c 00
        E 360 96 0d 64
        E 120 86 0d 00
        E 360 96 0d 64
        E 120 86 0d 00
        E 360 96 0c 64
        E 120 86 0c 00
        E 360 96 0d 64
        E 120 86 0d 00
        E 360 96 0d 64
        E 120 86 0d 00
        E 360 96 0c 64
        E 120 86 0c 00
        E 360 96 0d 64
        E 120 86 0d 00
        E 360 96 0d 64
        E 120 86 0d 00
        E 360 96 0c 64
        E 120 86 0c 00
        E 360 96 0d 64
        E 120 86 0d 00
        E 360 96 0d 64
        E 120 86 0d 00
        E 360 96 0c 64
        E 120 86 0c 00
        E 360 96 0d 64
        E 120 86 0d 00
        E 360 96 0d 64
        E 120 86 0d 00
        E 360 96 0c 64
        E 120 86 0c 00
        E 360 96 0d 64
        E 120 86 0d 00
        E 360 96 0d 64
        E 120 86 0d 00
        E 360 96 0c 64
        E 120 86 0c 00
        E 360 96 0d 64
        E 120 86 0d 00
        E 360 96 0d 64
        E 120 86 0d 00
        E 360 96 0c 64
        E 120 86 0c 00
        E 360 96 0d 64
        E 120 86 0d 00
        E 360 96 0d 64
        E 120 86 0d 00
        E 360 96 0c 64
        E 120 86 0c 00
        E 360 96 0d 64
        E 120 86 0d 00
        E 360 96 0d 64
        E 120 86 0d 00
        E 360 96 0c 64
        E 120 86 0c 00
        E 360 96 0d 64
        E 120 86 0d 00
        E 360 96 0d 64
        E 120 86 0d 00
        E 360 96 0c 64
        E 120 86 0c 00
        E 360 96 0d 64
        E 120 86 0d 00
        E 360 96 0d 64
        E 120 86 0d 00
        E 360 96 0c 64
        E 120 86 0c 00
        E 360 96 0d 64
        E 120 86 0d 00
        E 360 96 0d 64
        E 120 86 0d 00
        E 360 96 0c 64
        E 120 86 0c 00
        E 360 96 0d 64
        E 120 86 0d 00
        E 360 96 0d 64
        E 120 86 0d 00
        E 360 96 0c 64
        E 120 86 0c 00
        E 360 96 0d 64
        E 120 86 0d 00
        E 360 96 0d 64
        E 120 86 0d 00
        E 360 96 0c 64
        E 120 86 0c 00
        E 360 96 0d 64
        E 120 86 0d 00
        E 360 96 0d 64
        E 120 86 0d 00
        E 360 96 0c 64
        E 120 86 0c 00
        E 360 96 0d 64
        E 120 86 0d 00
        E 360 96 0d 64
        E 120 86 0d 00
        E 360 96 0c 64
        E 120 86 0c 00
        E 360 96 0d 64
        E 120 86 0d 00
        E 360 96 0d 64
        E 120 86 0d 00
        E 360 96 0c 64
        E 120 86 0c 00
        E 360 96 0d 64
        E 120 86 0d 00
        E 360 96 0d 64
        E 120 86 0d 00
        E 360 96 0c 64
        E 120 86 0c 00
        E 360 96 0d 64
        E 120 86 0d 00
        E 360 96 0d 64
        E 120 86 0d 00
        E 360 96 0c 64
        E 120 86 0c 00
        E 360 96 0d 64
        E 120 86 0d 00
        E 360 96 0d 64
        E 120 86 0d 00
        E 360 96 0c 64
        E 120 86 0c 00
        E 360 96 0d 64
        E 120 86 0d 00
        E 360 96 0d 64
        E 120 86 0d 00
        E 360 96 0c 64
        E 120 86 0c 00
        E 360 96 0d 64
        E 120 86 0d 00
        E 360 96 0d 64
        E 120 86 0d 00
        E 360 96 0c 64
        E 120 86 0c 00
        E 360 96 0d 64
        E 120 86 0d 00
        E 360 96 0d 64
        E 120 86 0d 00
        E 360 96 0c 64
        E 120 86 0c 00
        E 360 96 0d 64
        E 120 86 0d 00
        E 360 96 0d 64
        E 120 86 0d 00
        E 360 96 0c 64
        E 120 86 0c 00
        E 360 96 0d 64
        E 120 86 0d 00
        E 360 96 0d 64
        E 120 86 0d 00
        E 360 96 0c 64
        E 120 86 0c 00
        E 360 96 0d 64
        E 120 86 0d 00
        E 360 96 0d 64
        E 120 86 0d 00
        E 360 96 0c 64
        E 120 86 0c 00
        E 360 96 0d 64
        E 120 86 0d 00
        E 360 96 0d 64
        E 120 86 0d 00
        E 360 96 0c 64
        E 120 86 0c 00
        E 360 96 0d 64
        E 120 86 0d 00
        E 360 96 0d 64
        E 120 86 0d 00
        E 360 96 0d 64
        E 120 86 0d 00
        E 360 96 0c 64
        E 120 86 0c 00
        E 360 96 0d 64
        E 120 86 0d 00
        E 360 96 0d 64
        E 120 86 0d 00
        E 360 96 0d 64
        E 120 86 0d 00
        E 360 96 0c 64
        E 120 86 0c 00
        E 360 96 0d 64
        E 120 86 0d 00
        E 360 96 0d 64
        E 120 86 0d 00
        E 360 96 0d 64
        E 120 86 0d 00
        E 360 96 0c 64
        E 120 86 0c 00
        E 360 96 0d 64
        E 120 86 0d 00
        E 360 96 0d 64
        E 120 86 0d 00
        E 360 96 0d 64
        E 120 86 0d 00
        E 360 96 0c 64
        E 120 86 0c 00
        E 360 96 0d 64
        E 120 86 0d 00
        E 360 96 0d 64
        E 120 86 0d 00
        E 360 96 0d 64
        E 120 86 0d 00
        E 360 96 0c 64
        E 120 86 0c 00
        E 360 96 0d 64
        E 120 86 0d 00
        E 360 96 0d 64
        E 120 86 0d 00
        E 360 96 0d 64
        E 120 86 0d 00
        E 360 96 0c 64
        E 120 86 0c 00
        E 360 96 0d 64
        E 120 86 0d 00
        E 360 96 0d 64
        E 120 86 0d 00
        E 360 96 0d 64
        E 120 86 0d 00
        E 360 96 0c 64
        E 120 86 0c 00
        E 360 96 0d 64
        E 120 86 0d 00
        E 360 96 0d 64
        E 120 86 0d 00
        E 360 96 0d 64
        E 120 86 0d 00
        E 360 96 0c 64
        E 120 86 0c 00
        E 360 96 0d 64
        E 120 86 0d 00
        E 360 96 0d 64
        E 120 86 0d 00
        E 360 96 0d 64
        E 120 86 0d 00
        E 360 96 0c 64
        E 120 86 0c 00
        E 360 96 0d 64
        E 120 86 0d 00
        E 360 96 0d 64
        E 120 86 0d 00
        E 360 96 0d 64
        E 120 86 0d 00
        E 360 96 0c 64
        E 120 86 0c 00
        E 360 96 0d 64
        E 120 86 0d 00
        E 360 96 0d 64
        E 120 86 0d 00
        E 360 96 0d 64
        E 120 86 0d 00
        E 360 96 0c 64
        E 120 86 0c 00
        E 360 96 0d 64
        E 120 86 0d 00
        E 360 96 0d 64
        E 120 86 0d 00
        E 360 96 0d 64
        E 120 86 0d 00
        E 360 96 0c 64
        E 120 86 0c 00
        E 360 96 0d 64
        E 120 86 0d 00
        E 360 96 0d 64
        E 120 86 0d 00
        E 360 96 0d 64
        E 120 86 0d 00
        E 360 96 0c 64
        E 120 86 0c 00
        E 360 96 0d 64
        E 120 86 0d 00
        E 360 96 0d 64
        E 120 86 0d 00
        E 360 96 0d 64
        E 120 86 0d 00
        E 360 96 0c 64
        E 120 86 0c 00
        E 360 96 0d 64
        E 120 86 0d 00
        E 360 96 0d 64
        E 120 86 0d 00
        E 360 96 0d 64
        E 120 86 0d 00
        E 360 96 0c 64
        E 120 86 0c 00
        E 360 96 0d 64
        E 120 86 0d 00
        E 360 96 0d 64
        E 120 86 0d 00
        E 360 96 0d 64
        E 120 86 0d 00
        E 360 96 0c 64
        E 120 86 0c 00
        E 360 96 0d 64
        E 120 86 0d 00
        E 360 96 0d 64
        E 120 86 0d 00
        E 360 96 0d 64
        E 120 86 0d 00
        E 360 96 0c 64
        E 120 86 0c 00
        E 360 96 0d 64
        E 120 86 0d 00
        E 360 96 0d 64
        E 120 86 0d 00
        E 360 96 0d 64
        E 120 86 0d 00
        E 360 96 0c 64
        E 120 86 0c 00
        E 360 96 0d 64
        E 120 86 0d 00
        E 360 96 0d 64
        E 120 86 0d 00
        E 360 96 0d 64
        E 120 86 0d 00
        E 360 96 0c 64
        E 120 86 0c 00
        E 360 96 0d 64
        E 120 86 0d 00
        E 360 96 0d 64
        E 120 86 0d 00
        E 360 96 0d 64
        E 120 86 0d 00
        E 360 96 0c 64
        E 120 86 0c 00
        E 360 96 0d 64
        E 120 86 0d 00
        E 360 96 0d 64
        E 120 86 0d 00
        E 360 96 0d 64
        E 120 86 0d 00
        E 360 96 0c 64
        E 120 86 0c 00
        E 360 96 0d 64
        E 120 86 0d 00
        E 360 96 0d 64
        E 120 86 0d 00
        E 360 96 0d 64
        E 120 86 0d 00
        E 360 96 0c 64
        E 120 86 0c 00
        E 360 96 0d 64
        E 120 86 0d 00
        E 360 96 0d 64
        E 120 86 0d 00
        E 360 96 0c 64
        E 120 86 0c 00
        E 360 96 0d 64
        E 120 86 0d 00
        E 360 96 0d 64
        E 120 86 0d 00
        E 360 96 0c 64
        E 120 86 0c 00
        E 360 96 0d 64
        E 120 86 0d 00
        E 360 96 0d 64
        E 120 86 0d 00
        E 360 96 0c 64
        E 120 86 0c 00
        E 360 96 0d 64
        E 120 86 0d 00
        E 360 96 0d 64
        E 120 86 0d 00
        E 360 96 0c 64
        E 120 86 0c 00
        E 360 96 0d 64
        E 120 86 0d 00
        E 360 96 0d 64
        E 120 86 0d 00
        E 360 96 0c 64
        E 120 86 0c 00
        E 360 96 0d 64
        E 120 86 0d 00
        E 360 96 0d 64
        E 120 86 0d 00
        E 360 96 0c 64
        E 120 86 0c 00
        E 360 96 0d 64
        E 120 86 0d 00
        E 360 96 0d 64
        E 120 86 0d 00
        E 360 96 0c 64
        E 120 86 0c 00
        E 360 96 0d 64
        E 120 86 0d 00
        E 360 96 0d 64
        E 120 86 0d 00
        E 360 96 0c 64
        E 120 86 0c 00
        E 360 96 0d 64
        E 120 86 0d 00
        E 360 96 0d 64
        E 120 86 0d 00
        E 360 96 0c 64
        E 120 86 0c 00
        E 360 96 0d 64
        E 120 86 0d 00
        E 360 96 0d 64
        E 120 86 0d 00
        E 360 96 0c 64
        E 120 86 0c 00
        E 360 96 0d 64
        E 120 86 0d 00
        E 360 96 0d 64
        E 120 86 0d 00
        E 360 96 0c 64
        E 120 86 0c 00
        E 360 96 0d 64
        E 120 86 0d 00
        E 360 96 0d 64
        E 120 86 0d 00
        E 360 96 0c 64
        E 120 86 0c 00
        E 360 96 0d 64
        E 120 86 0d 00
        E 360 96 0d 64
        E 120 86 0d 00
        E 360 96 0c 64
        E 120 86 0c 00
        E 360 96 0d 64
        E 120 86 0d 00
        E 360 96 0d 64
        E 120 86 0d 00
        E 360 96 0c 64
        E 120 86 0c 00
        E 360 96 0d 64
        E 120 86 0d 00
        E 360 96 0d 64
        E 120 86 0d 00
        E 360 96 0c 64
        E 120 86 0c 00
        E 360 96 0d 64
        E 120 86 0d 00
        E 360 96 0d 64
        E 120 86 0d 00
        E 360 96 0c 64
        E 120 86 0c 00
        E 360 96 0d 64
        E 120 86 0d 00
        E 360 96 0d 64
        E 120 86 0d 00
        E 360 96 0c 64
        E 120 86 0c 00
        E 360 96 0d 64
        E 120 86 0d 00
        E 360 96 0d 64
        E 120 86 0d 00
        E 360 96 0c 64
        E 120 86 0c 00
        E 360 96 0d 64
        E 120 86 0d 00
        E 360 96 0d 64
        E 120 86 0d 00
        E 360 96 0c 64
        E 120 86 0c 00
        E 360 96 0d 64
        E 120 86 0d 00
        E 360 96 0d 64
        E 120 86 0d 00
        E 360 96 0c 64
        E 120 86 0c 00
        E 360 96 0d 64
        E 120 86 0d 00
        E 360 96 0d 64
        E 120 86 0d 00
        E 360 96 0c 64
        E 120 86 0c 00
        E 360 96 0d 64
        E 120 86 0d 00
        E 360 96 0d 64
        E 120 86 0d 00
        E 360 96 0c 64
        E 120 86 0c 00
        E 360 96 0d 64
        E 120 86 0d 00
        E 360 96 0d 64
        E 120 86 0d 00
        E 360 96 0c 64
        E 120 86 0c 00
        E 360 96 0d 64
        E 120 86 0d 00
        E 360 96 0d 64
        E 120 86 0d 00
        E 360 96 0c 64
        E 120 86 0c 00
        E 360 96 0d 64
        E 120 86 0d 00
        E 360 96 0d 64
        E 120 86 0d 00
        E 360 96 0c 64
        E 120 86 0c 00
        E 360 96 0d 64
        E 120 86 0d 00
        E 360 96 0d 64
        E 120 86 0d 00
        E 360 96 0c 64
        E 120 86 0c 00
        E 360 96 0d 64
        E 120 86 0d 00
        E 360 96 0d 64
        E 120 86 0d 00
        E 360 96 0c 64
        E 120 86 0c 00
        E 360 96 0d 64
        E 120 86 0d 00
        E 360 96 0d 64
        E 120 86 0d 00
        E 360 96 0c 64
        E 120 86 0c 00
        E 360 96 0d 64
        E 120 86 0d 00
        E 360 96 0d 64
        E 120 86 0d 00
        E 360 96 0c 64
        E 120 86 0c 00
        E 360 96 0d 64
        E 120 86 0d 00
        E 360 96 0d 64
        E 120 86 0d 00
        E 360 96 0c 64
        E 120 86 0c 00
        E 360 96 0d 64
        E 120 86 0d 00
        E 360 96 0d 64
        E 120 86 0d 00
        E 360 96 0c 64
        E 120 86 0c 00
        E 360 96 0d 64
        E 120 86 0d 00
        E 360 96 0d 64
        E 120 86 0d 00
        E 360 96 0c 64
        E 120 86 0c 00
        E 360 96 0d 64
        E 120 86 0d 00
        E 360 96 0d 64
        E 120 86 0d 00
        E 360 96 0c 64
        E 120 86 0c 00
        E 360 96 0d 64
        E 120 86 0d 00
        E 360 96 0d 64
        E 120 86 0d 00
        E 360 96 0c 64
        E 120 86 0c 00
        E 360 96 0d 64
        E 120 86 0d 00
        E 360 96 0d 64
        E 120 86 0d 00
        E 360 96 0c 64
        E 120 86 0c 00
        E 360 96 0d 64
        E 120 86 0d 00
        E 360 96 0d 64
        E 120 86 0d 00
        E 360 96 0c 64
        E 120 86 0c 00
        E 360 96 0d 64
        E 120 86 0d 00
        E 360 96 0d 64
        E 120 86 0d 00
        E 360 96 0c 64
        E 120 86 0c 00
        E 360 96 0d 64
        E 120 86 0d 00
        E 360 96 0d 64
        E 120 86 0d 00
        E 360 96 0c 64
        E 120 86 0c 00
        E 360 96 0d 64
        E 120 86 0d 00
        E 360 96 0d 64
        E 120 86 0d 00
        E 840 b0 7b 00
        GUID {8CB930E8-B6A0-4CAD-825A-9F47FB66C1D0}
        IGNTEMPO 0 120 4 4
        SRCCOLOR 1504
        VELLANE 132 100 100
        COLORMAP "C:\Users\AJFOne23\AppData\Roaming\REAPER\Data\color_maps\rockband_vox-other.png"
        TEXTSTRINGFILE "Text Events List.txt"
        CFGEDITVIEW -363.121815 171.84316 0 48 0 0 0 0 0 0.5
        KEYSNAP 0
        TRACKSEL 0 0 0 ""
        EVTFILTER 0 -1 -1 -1 -1 0 1 0 0 -1 -1 -1 -1 0 -1 0 -1 -1
        CFGEDIT 1 1 0 0 0 1 1 1 1 1 1 1 44 63 1223 847 1 2 1 2 0 0 0 0 0 0.5 1 0 1 64
      >
    >
  >
>
