# Blender v2.81 (sub 16) OBJ File: 'Notes.blend'
# www.blender.org
mtllib RB tom.mtl
o Cube.001
v 0.196388 -0.000161 0.07343
v 0.196388 -0.000161 -0.07343
v -0.196388 -0.000161 -0.07343
v -0.196388 -0.000161 0.07343
v -0.196388 0.09405 -0.022691
v -0.196388 0.097334 0.0
v 0.196388 0.097334 -0.0
v 0.196388 0.09405 -0.022691
v -0.196388 0.084523 -0.043161
v 0.196388 0.084523 -0.043161
v -0.196388 0.069683 -0.059406
v 0.196388 0.069683 -0.059406
v -0.196388 0.050984 -0.069836
v 0.196388 0.050984 -0.069836
v -0.196388 0.030256 -0.07343
v 0.196388 0.030256 -0.07343
v 0.196388 0.09405 0.022691
v 0.196388 0.097334 -0.0
v -0.196388 0.097334 0.0
v -0.196388 0.09405 0.022691
v 0.196388 0.084523 0.043161
v -0.196388 0.084523 0.043161
v 0.196388 0.069683 0.059406
v -0.196388 0.069683 0.059406
v 0.196388 0.050984 0.069836
v -0.196388 0.050984 0.069836
v 0.196388 0.030256 0.07343
v -0.196388 0.030256 0.07343
v -0.18282400000000001 -0.000139 -0.094701
v -0.14209760000000002 -0.000117 -0.116299
v -0.1723272 -0.000128 -0.1055
v -0.15742 -0.00012 -0.113405
v 0.1420984 -0.000117 -0.116299
v 0.1828248 -0.000139 -0.094701
v 0.15742080000000003 -0.00012 -0.113405
v 0.1723272 -0.000128 -0.1055
v -0.14209760000000002 -0.000117 0.116299
v -0.18282400000000001 -0.000139 0.094701
v -0.15742 -0.00012 0.113405
v -0.1723272 -0.000128 0.1055
v 0.1828248 -0.000139 0.094701
v 0.1420984 -0.000117 0.116299
v 0.1723272 -0.000128 0.1055
v 0.15742080000000003 -0.00012 0.113405
v -0.1881384 0.114525 0.0
v -0.1418152 0.154295 0.0
v -0.1749464 0.134409 -8.0e-06
v -0.1579904 0.148966 -8.0e-06
v -0.1420872 0.033604 -0.116299
v -0.182952 0.032712 -0.094501
v -0.15743200000000002 0.033359 -0.113378
v -0.17238960000000003 0.033642 -0.1054
v -0.1419104 0.149096 -0.035938
v -0.1876344 0.111678 -0.026933
v -0.1579712 0.144083 -0.034732
v -0.1747072 0.130387 -0.031436
v -0.1419808 0.134006 -0.068359
v -0.1866736 0.102107 -0.052115
v -0.1578776 0.129732 -0.066183
v -0.174236 0.118056 -0.060237
v -0.1420312 0.110502 -0.094088
v -0.18528480000000003 0.086263 -0.073493
v -0.1577168 0.107255 -0.091329
v -0.1735488 0.098383 -0.08379
v -0.1420656 0.080887 -0.110607
v -0.1836992 0.064864 -0.088761
v -0.1575216 0.07874 -0.10768
v -0.17276000000000002 0.072876 -0.099684
v 0.18295280000000003 0.032712 -0.094501
v 0.142088 0.033604 -0.116299
v 0.17238960000000003 0.033642 -0.1054
v 0.1574328 0.033359 -0.113379
v 0.1418152 0.154295 -0.0
v 0.1881384 0.114525 -0.0
v 0.1579912 0.148966 -8.0e-06
v 0.1749464 0.134409 -8.0e-06
v 0.1836992 0.064864 -0.088761
v 0.1420664 0.080887 -0.110607
v 0.17276080000000002 0.072876 -0.099684
v 0.1575216 0.07874 -0.10768
v 0.18528560000000002 0.086263 -0.073493
v 0.1420312 0.110502 -0.094088
v 0.1735488 0.098383 -0.08379
v 0.1577168 0.107255 -0.091329
v 0.18667440000000002 0.102107 -0.052115
v 0.1419808 0.134006 -0.068359
v 0.1742368 0.118056 -0.060237
v 0.1578776 0.129732 -0.066183
v 0.1876344 0.111678 -0.026933
v 0.1419112 0.149096 -0.035938
v 0.1747072 0.130387 -0.031436
v 0.1579712 0.144083 -0.034732
v -0.182952 0.033012 0.094501
v -0.1420872 0.034033 0.116299
v -0.17238960000000003 0.033792 0.1054
v -0.15743200000000002 0.034109 0.113379
v -0.1418152 0.154295 0.0
v -0.1881384 0.114525 0.0
v -0.1579904 0.148966 8.0e-06
v -0.1749464 0.134409 8.0e-06
v -0.1836992 0.064864 0.088761
v -0.1420656 0.080887 0.110607
v -0.17276000000000002 0.072876 0.099684
v -0.1575216 0.07874 0.10768
v -0.18528480000000003 0.086263 0.073493
v -0.1420312 0.110502 0.094088
v -0.1735488 0.098383 0.08379
v -0.1577168 0.107255 0.091329
v -0.1866736 0.102107 0.052115
v -0.1419808 0.134006 0.068359
v -0.174236 0.118056 0.060237
v -0.1578776 0.129732 0.066183
v -0.1876344 0.111678 0.026933
v -0.1419104 0.149096 0.035938
v -0.1747072 0.130387 0.031436
v -0.1579712 0.144083 0.034732
v 0.1881384 0.114525 -0.0
v 0.1418152 0.154295 -0.0
v 0.1749464 0.134409 8.0e-06
v 0.1579912 0.148966 8.0e-06
v 0.142088 0.034033 0.116299
v 0.18295280000000003 0.033012 0.094501
v 0.1574328 0.034109 0.113378
v 0.17239040000000003 0.033792 0.1054
v 0.1419112 0.149096 0.035938
v 0.1876344 0.111678 0.026933
v 0.1579712 0.144083 0.034732
v 0.1747072 0.130387 0.031436
v 0.1419808 0.134006 0.068359
v 0.18667440000000002 0.102107 0.052115
v 0.1578776 0.129732 0.066183
v 0.1742368 0.118056 0.060237
v 0.1420312 0.110502 0.094088
v 0.18528560000000002 0.086263 0.073493
v 0.1577168 0.107255 0.091329
v 0.1735488 0.098383 0.08379
v 0.1420664 0.080887 0.110607
v 0.1836992 0.064864 0.088761
v 0.1575216 0.07874 0.10768
v 0.17276080000000002 0.072876 0.099684
vt 0.883963 0.542378
vt 0.883963 0.542407
vt 0.832117 0.542407
vt 0.832117 0.542378
vt 0.061101 0.006135
vt 0.061101 0.036962
vt 0.004281 0.036962
vt 0.004281 0.006135
vt 0.059528 0.034427
vt 0.059528 0.071272
vt 0.002121 0.071272
vt 0.002121 0.034427
vt 0.259960 0.506748
vt 0.259960 0.890790
vt 0.235540 0.890790
vt 0.235540 0.506748
vt 0.883963 0.094761
vt 0.883963 0.122094
vt 0.832117 0.122094
vt 0.832117 0.094761
vt 0.157883 0.466008
vt 0.157883 0.615246
vt 0.842824 0.615246
vt 0.842824 0.466008
vt 0.883963 0.675369
vt 0.883963 0.796746
vt 0.832117 0.796746
vt 0.832117 0.675369
vt 0.883963 0.895443
vt 0.832117 0.895443
vt 0.883963 0.961940
vt 0.832117 0.961940
vt 0.842824 0.719074
vt 0.157883 0.719074
vt 0.157883 0.813855
vt 0.842824 0.813855
vt 0.883963 0.409178
vt 0.832117 0.409178
vt 0.114813 0.544374
vt 0.114813 0.411069
vt 0.167301 0.411069
vt 0.167301 0.544374
vt 0.883963 0.287583
vt 0.832117 0.287583
vt 0.883963 0.188709
vt 0.832117 0.188709
vt 0.842824 0.511339
vt 0.157883 0.511339
vt 0.200110 0.740910
vt 0.194270 0.740910
vt 0.190290 0.734835
vt 0.186700 0.717203
vt 0.183851 0.689740
vt 0.182021 0.655135
vt 0.181391 0.616776
vt 0.180738 0.616753
vt 0.182021 0.578416
vt 0.183851 0.543811
vt 0.186700 0.516349
vt 0.190290 0.498716
vt 0.194270 0.492641
vt 0.200110 0.492641
vt 0.201398 0.993307
vt 0.195558 0.993307
vt 0.191578 0.987231
vt 0.187988 0.969599
vt 0.185139 0.942137
vt 0.183309 0.907532
vt 0.182679 0.869172
vt 0.182026 0.869149
vt 0.183309 0.830813
vt 0.185139 0.796208
vt 0.187988 0.768745
vt 0.191578 0.751113
vt 0.195558 0.745038
vt 0.201398 0.745038
vt 0.932904 0.036962
vt 0.932904 0.006136
vt 0.989724 0.006136
vt 0.989724 0.036962
vt 0.883963 0.989223
vt 0.832117 0.989223
vt 0.114813 0.289379
vt 0.114813 0.190428
vt 0.167301 0.190428
vt 0.167301 0.289379
vt 0.842824 0.890925
vt 0.157883 0.890925
vt 0.157883 0.933872
vt 0.842824 0.933872
vt 0.719369 0.508781
vt 0.719369 0.866051
vt 0.691543 0.866051
vt 0.691543 0.508781
vt 0.842824 0.416507
vt 0.157883 0.416507
vt 0.114813 0.798668
vt 0.114813 0.677326
vt 0.167301 0.677326
vt 0.167301 0.798668
vt 0.811250 0.006135
vt 0.811250 0.036962
vt 0.182755 0.036962
vt 0.182755 0.006135
vt 0.114813 0.963813
vt 0.114813 0.897336
vt 0.167301 0.897336
vt 0.167301 0.963813
vt 0.114813 0.123760
vt 0.167301 0.123760
vt 0.114813 0.991089
vt 0.167301 0.991089
vt 0.940352 0.071272
vt 0.940352 0.034427
vt 0.997759 0.034427
vt 0.997759 0.071272
vt 0.842824 0.339394
vt 0.157883 0.339394
vt 0.182442 0.071272
vt 0.182442 0.034427
vt 0.817439 0.034427
vt 0.817439 0.071272
vt 0.157883 0.997153
vt 0.842824 0.997153
vt 0.842824 0.119176
vt 0.157883 0.119176
vt 0.114813 0.544403
vt 0.167301 0.544403
vt 0.114813 0.096406
vt 0.167301 0.096406
vt 0.842824 0.097859
vt 0.157883 0.097859
vt 0.778946 0.508781
vt 0.778946 0.866051
vt 0.761335 0.866051
vt 0.761335 0.508781
vt 0.740229 0.866051
vt 0.740229 0.508781
vt 0.312245 0.506748
vt 0.312245 0.890790
vt 0.296790 0.890790
vt 0.296790 0.506748
vt 0.278267 0.890790
vt 0.278267 0.506748
vt 0.922829 0.542407
vt 0.922829 0.675369
vt 0.962155 0.542407
vt 0.962155 0.675369
vt 0.994967 0.542407
vt 0.994967 0.675369
vt 0.075464 0.677326
vt 0.075464 0.544403
vt 0.035650 0.677326
vt 0.035650 0.544403
vt 0.002431 0.677326
vt 0.002431 0.544403
vt 0.922829 0.796746
vt 0.962155 0.796746
vt 0.994967 0.796746
vt 0.075464 0.798668
vt 0.035650 0.798668
vt 0.002431 0.798668
vt 0.922829 0.895443
vt 0.962155 0.895443
vt 0.994967 0.895443
vt 0.075464 0.897336
vt 0.035650 0.897336
vt 0.002431 0.897336
vt 0.922829 0.961940
vt 0.962155 0.961940
vt 0.994967 0.961940
vt 0.075464 0.963813
vt 0.035650 0.963813
vt 0.002431 0.963813
vt 0.922829 0.989223
vt 0.962155 0.989223
vt 0.994967 0.989223
vt 0.075464 0.991089
vt 0.035650 0.991089
vt 0.002431 0.991089
vt 0.075464 0.544374
vt 0.075464 0.411069
vt 0.035650 0.544374
vt 0.035650 0.411069
vt 0.002431 0.544374
vt 0.002431 0.411069
vt 0.922829 0.409178
vt 0.922829 0.542378
vt 0.962155 0.409178
vt 0.962155 0.542378
vt 0.994967 0.409178
vt 0.994967 0.542378
vt 0.075464 0.289379
vt 0.035650 0.289379
vt 0.002431 0.289379
vt 0.922829 0.287583
vt 0.962155 0.287583
vt 0.994967 0.287583
vt 0.075464 0.190428
vt 0.035650 0.190428
vt 0.002431 0.190428
vt 0.922829 0.188709
vt 0.962155 0.188709
vt 0.994967 0.188709
vt 0.075464 0.123760
vt 0.035650 0.123760
vt 0.002431 0.123760
vt 0.922829 0.122094
vt 0.962155 0.122094
vt 0.994967 0.122094
vt 0.075464 0.096406
vt 0.035650 0.096406
vt 0.002431 0.096406
vt 0.922829 0.094761
vt 0.962155 0.094761
vt 0.994967 0.094761
vt 0.146795 0.036962
vt 0.146795 0.006135
vt 0.103696 0.036962
vt 0.103696 0.006135
vt 0.146109 0.071272
vt 0.146109 0.034427
vt 0.102565 0.071272
vt 0.102565 0.034427
vt 0.897316 0.071272
vt 0.897316 0.034427
vt 0.853771 0.071272
vt 0.853771 0.034427
vt 0.847210 0.006136
vt 0.847210 0.036962
vt 0.890309 0.006136
vt 0.890309 0.036962
vt 0.350497 0.973263
vt 0.350497 0.579424
vt 0.622370 0.579424
vt 0.622370 0.973263
vn -0.6442 0.4735 0.6006
vn -0.7936 0.6062 0.0515
vn -0.8731 0.2513 0.4178
vn -0.8456 0.2434 0.4751
vn -0.5192 -0.6843 0.5119
vn -0.7156 0.0522 0.6965
vn -0.9396 0.0254 0.3413
vn -0.7250 -0.6402 0.2538
vn -0.7155 0.0516 -0.6966
vn -0.5192 -0.6843 -0.5119
vn -0.7250 -0.6402 -0.2538
vn -0.9395 0.0255 -0.3415
vn -0.7457 0.2143 0.6308
vn -0.9414 0.0991 0.3223
vn 0.1557 0.9037 0.3988
vn 0.1649 0.9568 0.2393
vn -0.1649 0.9566 0.2402
vn -0.1557 0.9034 0.3995
vn -0.8100 0.5630 -0.1642
vn -0.8008 0.5013 -0.3277
vn -0.9545 0.2464 -0.1681
vn -0.9566 0.2788 -0.0845
vn -0.7826 0.3916 -0.4839
vn -0.9502 0.1887 -0.2480
vn -0.7457 0.2140 -0.6310
vn -0.9414 0.0989 -0.3225
vn -0.1232 0.9516 -0.2816
vn 0.1232 0.9516 -0.2816
vn 0.1156 0.8282 -0.5483
vn -0.1156 0.8282 -0.5483
vn -0.8100 0.5630 0.1642
vn -0.9566 0.2788 0.0845
vn 0.7446 0.5600 0.3633
vn 0.8100 0.5630 0.1642
vn 0.9566 0.2788 0.0845
vn 0.8456 0.2434 0.4751
vn -0.8008 0.5013 0.3277
vn -0.9545 0.2464 0.1681
vn -0.7826 0.3916 0.4839
vn -0.9502 0.1887 0.2480
vn -0.1232 0.9516 0.2816
vn 0.1232 0.9516 0.2816
vn 0.7250 -0.6402 -0.2538
vn 0.9395 0.0255 -0.3415
vn 0.9414 0.0989 -0.3225
vn 0.9502 0.1887 -0.2480
vn 0.9545 0.2464 -0.1681
vn 0.9566 0.2788 -0.0845
vn 0.8731 0.2513 0.4178
vn 0.9545 0.2464 0.1681
vn 0.9502 0.1887 0.2480
vn 0.9414 0.0991 0.3223
vn 0.9396 0.0254 0.3413
vn 0.7250 -0.6402 0.2538
vn 0.7156 0.0522 0.6965
vn 0.5192 -0.6843 0.5119
vn 0.8008 0.5013 0.3277
vn 0.7826 0.3916 0.4839
vn -0.1038 0.6207 -0.7771
vn 0.1038 0.6207 -0.7771
vn 0.0884 0.3128 -0.9457
vn -0.0884 0.3128 -0.9457
vn 0.5192 -0.6843 -0.5119
vn -0.1156 0.8282 0.5483
vn 0.1156 0.8282 0.5483
vn 0.8008 0.5013 -0.3277
vn 0.8100 0.5630 -0.1642
vn 0.0543 -0.6905 0.7212
vn 0.0765 0.0607 0.9952
vn -0.0765 0.0607 0.9952
vn -0.0543 -0.6905 0.7212
vn 0.7457 0.2140 -0.6310
vn 0.7826 0.3916 -0.4839
vn 0.7457 0.2143 0.6308
vn 0.7155 0.0516 -0.6966
vn -0.1038 0.6207 0.7771
vn 0.1038 0.6207 0.7771
vn -0.0543 -0.6905 -0.7212
vn -0.0767 0.0604 -0.9952
vn 0.0767 0.0604 -0.9952
vn 0.0543 -0.6905 -0.7212
vn -0.0882 0.3134 0.9455
vn 0.0882 0.3134 0.9455
vn 0.7692 0.5785 0.2711
vn 0.2000 -0.6796 -0.7057
vn 0.2000 -0.6796 0.7057
vn 0.3822 -0.6759 -0.6302
vn 0.3822 -0.6759 0.6302
vn -0.2000 -0.6796 0.7057
vn -0.2000 -0.6796 -0.7057
vn -0.3822 -0.6759 0.6302
vn -0.3822 -0.6759 -0.6302
vn -0.6700 0.7406 -0.0508
vn -0.6614 0.7208 -0.2075
vn -0.4117 0.9091 -0.0626
vn -0.4023 0.8789 -0.2564
vn 0.6614 0.7208 -0.2075
vn 0.6700 0.7406 -0.0508
vn 0.4023 0.8789 -0.2564
vn 0.4117 0.9091 -0.0632
vn -0.6446 0.6422 -0.4147
vn -0.3840 0.7729 -0.5050
vn 0.6446 0.6422 -0.4147
vn 0.3840 0.7729 -0.5050
vn -0.6145 0.5009 -0.6095
vn -0.3540 0.5893 -0.7262
vn 0.6145 0.5009 -0.6095
vn 0.3540 0.5893 -0.7262
vn -0.5630 0.2679 -0.7818
vn -0.3102 0.3045 -0.9006
vn 0.5630 0.2679 -0.7818
vn 0.3102 0.3045 -0.9006
vn -0.5226 0.0594 -0.8505
vn -0.2762 0.0602 -0.9592
vn 0.5226 0.0594 -0.8505
vn 0.2762 0.0602 -0.9592
vn 0.6700 0.7406 0.0508
vn 0.6614 0.7208 0.2075
vn 0.4117 0.9091 0.0632
vn 0.4023 0.8789 0.2564
vn -0.6614 0.7208 0.2075
vn -0.6700 0.7406 0.0508
vn -0.4023 0.8789 0.2564
vn -0.4117 0.9090 0.0639
vn 0.6446 0.6422 0.4147
vn 0.3840 0.7729 0.5050
vn -0.6446 0.6422 0.4147
vn -0.3840 0.7729 0.5050
vn 0.6145 0.5009 0.6095
vn 0.3540 0.5893 0.7262
vn -0.6145 0.5009 0.6095
vn -0.3540 0.5893 0.7262
vn 0.5634 0.2683 0.7814
vn 0.3103 0.3052 0.9003
vn -0.5634 0.2683 0.7814
vn -0.3103 0.3052 0.9003
vn 0.5229 0.0591 0.8503
vn 0.2765 0.0618 0.9590
vn -0.5229 0.0591 0.8503
vn -0.2765 0.0618 0.9590
usemtl Material
s 1
f 98/1/1 45/2/2 6/3/3 19/4/4
f 38/5/5 93/6/6 28/7/7 4/8/8
f 50/9/9 29/10/10 3/11/11 15/12/12
f 29/13/10 38/14/5 4/15/8 3/16/11
f 93/17/6 101/18/13 26/19/14 28/20/7
f 118/21/15 73/22/16 46/23/17 97/24/18
f 54/25/19 58/26/20 9/27/21 5/28/22
f 58/26/20 62/29/23 11/30/24 9/27/21
f 62/29/23 66/31/25 13/32/26 11/30/24
f 53/33/27 90/34/28 86/35/29 57/36/30
f 113/37/31 98/1/1 19/4/4 20/38/32
f 117/39/33 126/40/34 17/41/35 18/42/36
f 109/43/37 113/37/31 20/38/32 22/44/38
f 105/45/39 109/43/37 22/44/38 24/46/40
f 118/21/15 97/24/18 114/47/41 125/48/42
f 101/18/13 105/45/39 24/46/40 26/19/14
f 2/49/43 16/50/44 14/51/45 12/52/46 10/53/47 8/54/48 7/55/49 18/56/36 17/57/35 21/58/50 23/59/51 25/60/52 27/61/53 1/62/54
f 4/63/8 28/64/7 26/65/14 24/66/40 22/67/38 20/68/32 19/69/4 6/70/3 5/71/22 9/72/21 11/73/24 13/74/26 15/75/12 3/76/11
f 122/77/55 41/78/56 1/79/54 27/80/53
f 66/31/25 50/81/9 15/82/12 13/32/26
f 130/83/57 134/84/58 23/85/51 21/86/50
f 61/87/59 82/88/60 78/89/61 65/90/62
f 41/91/56 34/92/63 2/93/43 1/94/54
f 125/48/42 114/47/41 110/95/64 129/96/65
f 85/97/66 89/98/67 8/99/48 10/100/47
f 42/101/68 121/102/69 94/103/70 37/104/71
f 77/105/72 81/106/73 12/107/46 14/108/45
f 134/84/58 138/109/74 25/110/52 23/85/51
f 69/111/75 77/105/72 14/108/45 16/112/44
f 45/2/2 54/25/19 5/28/22 6/3/3
f 34/113/63 69/114/75 16/115/44 2/116/43
f 129/96/65 110/95/64 106/117/76 133/118/77
f 81/106/73 85/97/66 10/100/47 12/107/46
f 30/119/78 49/120/79 70/121/80 33/122/81
f 65/90/62 78/89/61 70/123/80 49/124/79
f 46/23/17 73/22/16 90/34/28 53/33/27
f 133/118/77 106/117/76 102/125/82 137/126/83
f 89/98/67 74/127/84 7/128/49 8/99/48
f 74/127/84 117/39/33 18/42/36 7/128/49
f 126/40/34 130/83/57 21/86/50 17/41/35
f 138/109/74 122/129/55 27/130/53 25/110/52
f 137/126/83 102/125/82 94/131/70 121/132/69
f 57/36/30 86/35/29 82/88/60 61/87/59
f 42/133/68 33/134/81 35/135/85 44/136/86
f 44/136/86 35/135/85 36/137/87 43/138/88
f 43/138/88 36/137/87 34/92/63 41/91/56
f 30/139/78 37/140/71 39/141/89 32/142/90
f 32/142/90 39/141/89 40/143/91 31/144/92
f 31/144/92 40/143/91 38/14/5 29/13/10
f 54/25/19 45/2/2 47/145/93 56/146/94
f 56/146/94 47/145/93 48/147/95 55/148/96
f 55/148/96 48/147/95 46/149/17 53/150/27
f 74/127/84 89/98/67 91/151/97 76/152/98
f 76/152/98 91/151/97 92/153/99 75/154/100
f 75/154/100 92/153/99 90/155/28 73/156/16
f 58/26/20 54/25/19 56/146/94 60/157/101
f 60/157/101 56/146/94 55/148/96 59/158/102
f 59/158/102 55/148/96 53/150/27 57/159/30
f 89/98/67 85/97/66 87/160/103 91/151/97
f 91/151/97 87/160/103 88/161/104 92/153/99
f 92/153/99 88/161/104 86/162/29 90/155/28
f 62/29/23 58/26/20 60/157/101 64/163/105
f 64/163/105 60/157/101 59/158/102 63/164/106
f 63/164/106 59/158/102 57/159/30 61/165/59
f 85/97/66 81/106/73 83/166/107 87/160/103
f 87/160/103 83/166/107 84/167/108 88/161/104
f 88/161/104 84/167/108 82/168/60 86/162/29
f 66/31/25 62/29/23 64/163/105 68/169/109
f 68/169/109 64/163/105 63/164/106 67/170/110
f 67/170/110 63/164/106 61/165/59 65/171/62
f 81/106/73 77/105/72 79/172/111 83/166/107
f 83/166/107 79/172/111 80/173/112 84/167/108
f 84/167/108 80/173/112 78/174/61 82/168/60
f 50/81/9 66/31/25 68/169/109 52/175/113
f 52/175/113 68/169/109 67/170/110 51/176/114
f 51/176/114 67/170/110 65/171/62 49/177/79
f 77/105/72 69/111/75 71/178/115 79/172/111
f 79/172/111 71/178/115 72/179/116 80/173/112
f 80/173/112 72/179/116 70/180/80 78/174/61
f 126/40/34 117/39/33 119/181/117 128/182/118
f 128/182/118 119/181/117 120/183/119 127/184/120
f 127/184/120 120/183/119 118/185/15 125/186/42
f 98/1/1 113/37/31 115/187/121 100/188/122
f 100/188/122 115/187/121 116/189/123 99/190/124
f 99/190/124 116/189/123 114/191/41 97/192/18
f 130/83/57 126/40/34 128/182/118 132/193/125
f 132/193/125 128/182/118 127/184/120 131/194/126
f 131/194/126 127/184/120 125/186/42 129/195/65
f 113/37/31 109/43/37 111/196/127 115/187/121
f 115/187/121 111/196/127 112/197/128 116/189/123
f 116/189/123 112/197/128 110/198/64 114/191/41
f 134/84/58 130/83/57 132/193/125 136/199/129
f 136/199/129 132/193/125 131/194/126 135/200/130
f 135/200/130 131/194/126 129/195/65 133/201/77
f 109/43/37 105/45/39 107/202/131 111/196/127
f 111/196/127 107/202/131 108/203/132 112/197/128
f 112/197/128 108/203/132 106/204/76 110/198/64
f 138/109/74 134/84/58 136/199/129 140/205/133
f 140/205/133 136/199/129 135/200/130 139/206/134
f 139/206/134 135/200/130 133/201/77 137/207/83
f 105/45/39 101/18/13 103/208/135 107/202/131
f 107/202/131 103/208/135 104/209/136 108/203/132
f 108/203/132 104/209/136 102/210/82 106/204/76
f 122/129/55 138/109/74 140/205/133 124/211/137
f 124/211/137 140/205/133 139/206/134 123/212/138
f 123/212/138 139/206/134 137/207/83 121/213/69
f 101/18/13 93/17/6 95/214/139 103/208/135
f 103/208/135 95/214/139 96/215/140 104/209/136
f 104/209/136 96/215/140 94/216/70 102/210/82
f 37/104/71 94/103/70 96/217/140 39/218/89
f 39/218/89 96/217/140 95/219/139 40/220/91
f 40/220/91 95/219/139 93/6/6 38/5/5
f 97/192/18 46/149/17 48/147/95 99/190/124
f 99/190/124 48/147/95 47/145/93 100/188/122
f 100/188/122 47/145/93 45/2/2 98/1/1
f 49/120/79 30/119/78 32/221/90 51/222/114
f 51/222/114 32/221/90 31/223/92 52/224/113
f 52/224/113 31/223/92 29/10/10 50/9/9
f 69/114/75 34/113/63 36/225/87 71/226/115
f 71/226/115 36/225/87 35/227/85 72/228/116
f 72/228/116 35/227/85 33/122/81 70/121/80
f 117/39/33 74/127/84 76/152/98 119/181/117
f 119/181/117 76/152/98 75/154/100 120/183/119
f 120/183/119 75/154/100 73/156/16 118/185/15
f 121/102/69 42/101/68 44/229/86 123/230/138
f 123/230/138 44/229/86 43/231/88 124/232/137
f 124/232/137 43/231/88 41/78/56 122/77/55
f 33/233/81 42/234/68 37/235/71 30/236/78
