# Blender v2.91.0 OBJ File: 'pgnote.blend'
# www.blender.org
mtllib pgnote.mtl
o Cube.001
v -0.47034499999999996 0.45636999999999994 0.0
v -0.47034499999999996 0.45636999999999994 0.0
v -0.49097 0.387865 0.0
v -0.49097 0.387865 0.0
v -0.45705999999999997 -0.0005549999999999999 0.03763
v -0.45738 0.13155 0.03755
v -0.49097 0.1205675 0.029177500000000002
v -0.49097 -0.0006425 0.029177500000000002
v -0.45738 0.130355 -0.03755
v -0.45705999999999997 -0.0005549999999999999 -0.03763
v -0.49097 -0.0006425 -0.029177500000000002
v -0.49097 0.1205675 -0.029177500000000002
v -0.4592475 0.25847749999999997 0.03527
v -0.49097 0.203165 0.02775
v 0.35453749999999995 0.6148499999999999 0.0
v 0.35453749999999995 0.6148499999999999 0.0
v -0.35453749999999995 0.6148499999999999 0.0
v -0.35453749999999995 0.6148499999999999 0.0
v -0.469085 0.445025 -0.0107025
v -0.466685 0.406885 -0.0207075
v -0.49097 0.33681500000000003 -0.01715
v -0.49097 0.37477999999999995 -0.0090175
v -0.46321249999999997 0.34375 -0.0292025
v -0.49097 0.27768 -0.023605
v -0.4592475 0.25847749999999997 -0.03527
v -0.49097 0.203165 -0.02775
v -0.354775 0.5941325 -0.01428
v 0.3547775 0.5941325 -0.01428
v 0.35495249999999995 0.534 -0.0271625
v -0.35495249999999995 0.534 -0.0271625
v -0.469085 0.445025 0.0107025
v -0.49097 0.37477999999999995 0.0090175
v 0.47034499999999996 0.45636999999999994 0.0
v 0.469085 0.445025 0.0107025
v 0.49097 0.37477999999999995 0.0090175
v 0.49097 0.387865 0.0
v -0.466685 0.406885 0.0207075
v -0.49097 0.33681500000000003 0.01715
v -0.46321249999999997 0.34375 0.0292025
v -0.49097 0.27768 0.023605
v -0.354775 0.5941325 0.01428
v 0.3547775 0.5941325 0.01428
v 0.49097 -0.0006425 -0.029177500000000002
v 0.49097 0.1205675 -0.029177500000000002
v 0.49097 0.203165 -0.02775
v 0.49097 0.27768 -0.023605
v 0.49097 0.33681500000000003 -0.01715
v 0.49097 0.37477999999999995 -0.0090175
v 0.49097 0.387865 0.0
v 0.49097 0.33681500000000003 0.01715
v 0.49097 0.27768 0.023605
v 0.49097 0.203165 0.02775
v 0.49097 0.1205675 0.029177500000000002
v 0.49097 -0.0006425 0.029177500000000002
v 0.45738249999999997 0.13155 0.03755
v 0.4570624999999999 -0.0005549999999999999 0.03763
v 0.466685 0.406885 0.0207075
v 0.463215 0.34375 0.0292025
v -0.35507749999999993 0.44033999999999995 -0.037385
v 0.35507749999999993 0.44033999999999995 -0.037385
v 0.35516499999999995 0.32232749999999993 -0.043949999999999996
v -0.35516499999999995 0.32232749999999993 -0.043949999999999996
v 0.4570624999999999 -0.0005549999999999999 -0.03763
v -0.35495249999999995 0.534 0.0271625
v 0.35495249999999995 0.534 0.0271625
v 0.466685 0.406885 -0.0207075
v 0.469085 0.445025 -0.0107025
v 0.355245 -0.00046499999999999997 0.046212500000000004
v 0.35522 0.13561749999999997 0.046212500000000004
v -0.35521749999999996 0.13561749999999997 0.046212500000000004
v -0.355245 -0.00046499999999999997 0.046212500000000004
v 0.4592475 0.25847749999999997 -0.03527
v 0.463215 0.34375 -0.0292025
v 0.4592475 0.25847749999999997 0.03527
v 0.45738249999999997 0.130355 -0.03755
v -0.35507749999999993 0.44033999999999995 0.037385
v 0.35507749999999993 0.44033999999999995 0.037385
v -0.355245 -0.00046499999999999997 -0.046212500000000004
v -0.35521749999999996 0.13390749999999998 -0.046212500000000004
v 0.35522 0.13390749999999998 -0.046212500000000004
v 0.355245 -0.00046499999999999997 -0.046212500000000004
v -0.35516499999999995 0.32232749999999993 0.043949999999999996
v 0.35516499999999995 0.32232749999999993 0.043949999999999996
v 0.47034499999999996 0.45636999999999994 0.0
v 0.39355249999999997 -0.0004775 -0.0450625
v 0.39355249999999997 -0.0004775 0.0450625
v 0.4308175 -0.0005099999999999999 -0.04192
v 0.4308175 -0.0005099999999999999 0.04192
v -0.39355 -0.0004775 0.0450625
v -0.39355 -0.0004775 -0.0450625
v -0.4308175 -0.0005099999999999999 0.04192
v -0.4308175 -0.0005099999999999999 -0.04192
v -0.43736499999999995 0.5356049999999999 -2.4999999999999998e-06
v -0.4367675 0.5195774999999999 -0.012489999999999998
v -0.39497499999999997 0.5936149999999999 -2.4999999999999998e-06
v -0.3949275 0.574155 -0.013799999999999998
v 0.4367675 0.5195774999999999 -0.012489999999999998
v 0.43736499999999995 0.5356049999999999 -2.4999999999999998e-06
v 0.3949275 0.574155 -0.013799999999999998
v 0.3949775 0.5936149999999999 -2.4999999999999998e-06
v -0.43559 0.47044 -0.023934999999999998
v -0.39469499999999996 0.5169674999999999 -0.0262975
v 0.4355925 0.47044 -0.023934999999999998
v 0.39469499999999996 0.5169674999999999 -0.0262975
v -0.4338725 0.39204500000000003 -0.033295
v -0.3942925 0.4274 -0.036289999999999996
v 0.4338725 0.39204500000000003 -0.033295
v 0.3942925 0.4274 -0.036289999999999996
v -0.43189999999999995 0.2904025 -0.03961
v -0.39380499999999996 0.31377 -0.04278749999999999
v 0.43190249999999997 0.2904025 -0.03961
v 0.39380499999999996 0.31377 -0.04278749999999999
v -0.43097499999999994 0.13405999999999998 -0.041879999999999994
v -0.39357999999999993 0.13293249999999998 -0.04505
v 0.43097499999999994 0.13405999999999998 -0.041879999999999994
v 0.39358249999999995 0.13293249999999998 -0.045052499999999995
v 0.43736499999999995 0.5356049999999999 2.4999999999999998e-06
v 0.4367675 0.5195774999999999 0.012489999999999998
v 0.3949775 0.5936149999999999 2.4999999999999998e-06
v 0.3949275 0.574155 0.013799999999999998
v -0.4367675 0.5195774999999999 0.012489999999999998
v -0.43736499999999995 0.5356049999999999 2.4999999999999998e-06
v -0.3949275 0.574155 0.013799999999999998
v -0.39497499999999997 0.5936149999999999 2.4999999999999998e-06
v 0.4355925 0.47044 0.023934999999999998
v 0.39469499999999996 0.5169674999999999 0.0262975
v -0.43559 0.47044 0.023934999999999998
v -0.39469499999999996 0.5169674999999999 0.0262975
v 0.4338725 0.39204500000000003 0.033295
v 0.3942925 0.4274 0.036289999999999996
v -0.4338725 0.39204500000000003 0.033295
v -0.3942925 0.4274 0.036289999999999996
v 0.43190249999999997 0.2904025 0.03961
v 0.39380499999999996 0.31377 0.04278749999999999
v -0.43189999999999995 0.2904025 0.03961
v -0.39380499999999996 0.31377 0.04278749999999999
v 0.43097499999999994 0.13465749999999999 0.041879999999999994
v 0.39358249999999995 0.13591999999999999 0.04505
v -0.43097499999999994 0.13465749999999999 0.041879999999999994
v -0.39357999999999993 0.13591999999999999 0.045052499999999995
vt 0.021003 0.656414
vt 0.021003 0.656414
vt 0.000000 0.584629
vt 0.000000 0.584629
vt 0.034534 0.177609
vt 0.034208 0.316039
vt 0.000000 0.304530
vt 0.000000 0.177518
vt 0.034208 0.314786
vt 0.034534 0.177609
vt 0.000000 0.177518
vt 0.000000 0.304530
vt 0.032305 0.449044
vt 0.000000 0.391085
vt 0.861059 0.822482
vt 0.861059 0.822482
vt 0.138941 0.822482
vt 0.138941 0.822482
vt 0.022287 0.644526
vt 0.024733 0.604560
vt 0.000000 0.531134
vt 0.000000 0.570916
vt 0.028269 0.538400
vt 0.000000 0.469166
vt 0.032305 0.449044
vt 0.000000 0.391085
vt 0.138699 0.800773
vt 0.861303 0.800773
vt 0.861480 0.737761
vt 0.138520 0.737761
vt 0.022287 0.644526
vt 0.000000 0.570916
vt 0.978997 0.656414
vt 0.977714 0.644526
vt 1.000000 0.570916
vt 1.000000 0.584629
vt 0.024733 0.604560
vt 0.000000 0.531134
vt 0.028269 0.538400
vt 0.000000 0.469166
vt 0.138699 0.800773
vt 0.861303 0.800773
vt 1.000000 0.177518
vt 1.000000 0.304530
vt 1.000000 0.391085
vt 1.000000 0.469166
vt 1.000000 0.531134
vt 1.000000 0.570916
vt 1.000000 0.584629
vt 1.000000 0.531134
vt 1.000000 0.469166
vt 1.000000 0.391085
vt 1.000000 0.304530
vt 1.000000 0.177518
vt 0.965794 0.316039
vt 0.965468 0.177609
vt 0.975269 0.604560
vt 0.971734 0.538400
vt 0.138391 0.639615
vt 0.861609 0.639615
vt 0.861698 0.515951
vt 0.138304 0.515951
vt 0.965468 0.177609
vt 0.138520 0.737761
vt 0.861480 0.737761
vt 0.975269 0.604560
vt 0.977714 0.644526
vt 0.861780 0.177701
vt 0.861753 0.320302
vt 0.138249 0.320302
vt 0.138222 0.177701
vt 0.967695 0.449044
vt 0.971734 0.538400
vt 0.967695 0.449044
vt 0.965794 0.314786
vt 0.138391 0.639615
vt 0.861609 0.639615
vt 0.138222 0.177701
vt 0.138249 0.318511
vt 0.861753 0.318511
vt 0.861780 0.177701
vt 0.138304 0.515951
vt 0.861698 0.515951
vt 0.978997 0.656414
vt 0.900790 0.177689
vt 0.900790 0.177689
vt 0.938742 0.177655
vt 0.938742 0.177655
vt 0.099212 0.177689
vt 0.099212 0.177689
vt 0.061258 0.177655
vt 0.061258 0.177655
vt 0.054590 0.739444
vt 0.055199 0.722649
vt 0.097760 0.800230
vt 0.097808 0.779840
vt 0.944801 0.722649
vt 0.945410 0.739444
vt 0.902192 0.779840
vt 0.902242 0.800230
vt 0.056399 0.671159
vt 0.098047 0.719914
vt 0.943604 0.671159
vt 0.901953 0.719914
vt 0.058148 0.589010
vt 0.098456 0.626057
vt 0.941852 0.589010
vt 0.901544 0.626057
vt 0.060156 0.482500
vt 0.098953 0.506986
vt 0.939846 0.482500
vt 0.901047 0.506986
vt 0.061099 0.318669
vt 0.099181 0.317488
vt 0.938901 0.318669
vt 0.900821 0.317488
vt 0.945410 0.739444
vt 0.944801 0.722649
vt 0.902242 0.800230
vt 0.902192 0.779840
vt 0.055199 0.722649
vt 0.054590 0.739444
vt 0.097808 0.779840
vt 0.097760 0.800230
vt 0.943604 0.671159
vt 0.901953 0.719914
vt 0.056399 0.671159
vt 0.098047 0.719914
vt 0.941852 0.589010
vt 0.901544 0.626057
vt 0.058148 0.589010
vt 0.098456 0.626057
vt 0.939846 0.482500
vt 0.901047 0.506986
vt 0.060156 0.482500
vt 0.098953 0.506986
vt 0.938903 0.319296
vt 0.900821 0.320620
vt 0.061099 0.319296
vt 0.099181 0.320620
vn -0.7349 0.2910 0.5378
vn -0.8662 0.4658 -0.1808
vn -0.9717 0.1703 0.1586
vn -0.8075 0.1861 0.5597
vn -0.0628 -0.6975 0.7138
vn -0.1061 0.0346 0.9938
vn -0.7505 0.0080 0.6608
vn -0.6066 -0.5901 0.5328
vn -0.1026 0.0132 -0.9946
vn -0.0626 -0.6994 -0.7120
vn -0.6129 -0.5812 -0.5354
vn -0.7520 0.0217 -0.6588
vn -0.1723 0.1060 0.9793
vn -0.7562 0.0218 0.6540
vn 0.2167 0.5967 0.7717
vn 0.2949 0.9320 -0.2105
vn -0.3340 0.9195 -0.2032
vn -0.1791 0.6045 0.7762
vn -0.6426 0.2754 -0.7150
vn -0.4191 0.2309 -0.8781
vn -0.8130 0.0662 -0.5784
vn -0.8831 0.1644 -0.4393
vn -0.2694 0.1631 -0.9491
vn -0.7796 0.0325 -0.6254
vn -0.1722 0.1059 -0.9793
vn -0.7563 0.0055 -0.6542
vn -0.0847 0.4191 -0.9040
vn 0.0847 0.4189 -0.9041
vn 0.0224 0.1663 -0.9858
vn -0.0224 0.1655 -0.9860
vn -0.6437 0.2904 0.7080
vn -0.8831 0.1644 0.4393
vn 0.7045 0.3582 0.6127
vn 0.6777 0.3431 0.6504
vn 0.8704 0.1347 0.4736
vn 0.8075 0.1861 0.5597
vn -0.3729 0.1384 0.9175
vn -0.8288 0.1128 0.5481
vn -0.2290 0.0654 0.9712
vn -0.7942 0.0826 0.6021
vn -0.0847 0.4191 0.9040
vn 0.0847 0.4188 0.9041
vn 0.6129 -0.5812 -0.5354
vn 0.7504 -0.0007 -0.6610
vn 0.7563 0.0055 -0.6542
vn 0.7796 0.0325 -0.6254
vn 0.8130 0.0662 -0.5784
vn 0.8704 0.1347 -0.4736
vn 0.9717 0.1703 0.1586
vn 0.8132 0.0767 0.5769
vn 0.7797 0.0464 0.6245
vn 0.7562 0.0218 0.6540
vn 0.7505 0.0080 0.6608
vn 0.6205 -0.5728 0.5356
vn 0.1028 0.0135 0.9946
vn 0.0626 -0.6994 0.7120
vn 0.3726 0.1544 0.9151
vn 0.2694 0.1631 0.9491
vn -0.0058 0.0848 -0.9964
vn 0.0058 0.0853 -0.9963
vn -0.0002 0.0349 -0.9994
vn 0.0002 0.0345 -0.9994
vn 0.0626 -0.6994 -0.7119
vn -0.0224 0.1663 0.9858
vn 0.0224 0.1655 0.9860
vn 0.3729 0.1383 -0.9175
vn 0.6777 0.3431 -0.6504
vn -0.0026 -0.7075 0.7067
vn -0.0025 0.0061 1.0000
vn 0.0025 0.0062 1.0000
vn 0.0029 -0.7070 0.7073
vn 0.1465 0.0153 -0.9891
vn 0.2694 0.1631 -0.9491
vn 0.1723 0.1060 0.9793
vn 0.1028 -0.0004 -0.9947
vn -0.0058 0.0848 0.9964
vn 0.0058 0.0843 0.9964
vn 0.0026 -0.7075 -0.7067
vn 0.0025 0.0061 -1.0000
vn -0.0025 0.0062 -1.0000
vn -0.0029 -0.7070 -0.7072
vn 0.0002 0.0349 0.9994
vn -0.0001 0.0346 0.9994
vn 0.8884 0.4573 0.0405
vn -0.0031 -0.6930 -0.7209
vn -0.0047 -0.7031 0.7111
vn 0.0301 -0.6676 -0.7439
vn 0.0146 -0.6964 0.7175
vn 0.0031 -0.6930 0.7210
vn 0.0047 -0.7031 -0.7111
vn -0.0301 -0.6675 0.7440
vn -0.0146 -0.6965 -0.7175
vn -0.7497 0.5454 -0.3748
vn -0.5353 0.4034 -0.7421
vn -0.5076 0.7451 -0.4327
vn -0.3158 0.4430 -0.8390
vn 0.4986 0.3397 -0.7975
vn 0.7548 0.5799 -0.3066
vn 0.2946 0.3960 -0.8697
vn 0.5105 0.7689 -0.3849
vn -0.2793 0.2426 -0.9291
vn -0.1229 0.2174 -0.9683
vn 0.2367 0.1535 -0.9594
vn 0.1030 0.1642 -0.9810
vn -0.1552 0.1607 -0.9747
vn -0.0523 0.1265 -0.9906
vn 0.1219 0.0765 -0.9896
vn 0.0400 0.0835 -0.9957
vn -0.0811 0.0930 -0.9924
vn -0.0173 0.0602 -0.9980
vn 0.0639 0.0266 -0.9976
vn 0.0130 0.0332 -0.9994
vn -0.0330 0.0190 -0.9993
vn 0.0003 0.0074 -1.0000
vn 0.0323 0.0030 -0.9995
vn -0.0003 0.0052 -1.0000
vn 0.7497 0.5454 0.3748
vn 0.5353 0.4034 0.7421
vn 0.5077 0.7447 0.4332
vn 0.3158 0.4430 0.8390
vn -0.4986 0.3397 0.7975
vn -0.7548 0.5798 0.3066
vn -0.2946 0.3960 0.8697
vn -0.5103 0.7687 0.3857
vn 0.2793 0.2426 0.9291
vn 0.1229 0.2174 0.9683
vn -0.2367 0.1535 0.9594
vn -0.1030 0.1642 0.9810
vn 0.1552 0.1607 0.9747
vn 0.0523 0.1265 0.9906
vn -0.1220 0.0765 0.9896
vn -0.0400 0.0835 0.9957
vn 0.0812 0.0930 0.9923
vn 0.0174 0.0603 0.9980
vn -0.0640 0.0267 0.9976
vn -0.0130 0.0334 0.9994
vn 0.0329 0.0178 0.9993
vn -0.0001 0.0092 1.0000
vn -0.0324 0.0029 0.9995
vn 0.0001 0.0054 1.0000
usemtl Material.001
s 1
f 1/1/1 2/2/2 3/3/3 4/4/4
f 5/5/5 6/6/6 7/7/7 8/8/8
f 9/9/9 10/10/10 11/11/11 12/12/12
f 10/10/10 5/5/5 8/8/8 11/11/11
f 6/6/6 13/13/13 14/14/14 7/7/7
f 15/15/15 16/16/16 17/17/17 18/18/18
f 19/19/19 20/20/20 21/21/21 22/22/22
f 20/20/20 23/23/23 24/24/24 21/21/21
f 23/23/23 25/25/25 26/26/26 24/24/24
f 27/27/27 28/28/28 29/29/29 30/30/30
f 31/31/31 1/1/1 4/4/4 32/32/32
f 33/33/33 34/34/34 35/35/35 36/36/36
f 37/37/37 31/31/31 32/32/32 38/38/38
f 39/39/39 37/37/37 38/38/38 40/40/40
f 15/15/15 18/18/18 41/41/41 42/42/42
f 13/13/13 39/39/39 40/40/40 14/14/14
f 43/43/43 44/44/44 45/45/45 46/46/46 47/47/47 48/48/48 49/49/49 36/36/36 35/35/35 50/50/50 51/51/51 52/52/52 53/53/53 54/54/54
f 8/8/8 7/7/7 14/14/14 40/40/40 38/38/38 32/32/32 4/4/4 3/3/3 22/22/22 21/21/21 24/24/24 26/26/26 12/12/12 11/11/11
f 55/55/55 56/56/56 54/54/54 53/53/53
f 25/25/25 9/9/9 12/12/12 26/26/26
f 57/57/57 58/58/58 51/51/51 50/50/50
f 59/59/59 60/60/60 61/61/61 62/62/62
f 56/56/56 63/63/63 43/43/43 54/54/54
f 42/42/42 41/41/41 64/64/64 65/65/65
f 66/66/66 67/67/67 48/48/48 47/47/47
f 68/68/68 69/69/69 70/70/70 71/71/71
f 72/72/72 73/73/73 46/46/46 45/45/45
f 58/58/58 74/74/74 52/52/52 51/51/51
f 75/75/75 72/72/72 45/45/45 44/44/44
f 2/2/2 19/19/19 22/22/22 3/3/3
f 63/63/63 75/75/75 44/44/44 43/43/43
f 65/65/65 64/64/64 76/76/76 77/77/77
f 73/73/73 66/66/66 47/47/47 46/46/46
f 78/78/78 79/79/79 80/80/80 81/81/81
f 62/62/62 61/61/61 80/80/80 79/79/79
f 17/17/17 16/16/16 28/28/28 27/27/27
f 77/77/77 76/76/76 82/82/82 83/83/83
f 67/67/67 84/84/84 49/49/49 48/48/48
f 84/84/84 33/33/33 36/36/36 49/49/49
f 34/34/34 57/57/57 50/50/50 35/35/35
f 74/74/74 55/55/55 53/53/53 52/52/52
f 83/83/83 82/82/82 70/70/70 69/69/69
f 30/30/30 29/29/29 60/60/60 59/59/59
f 68/68/68 81/81/81 85/85/85 86/86/86
f 86/86/86 85/85/85 87/87/87 88/88/88
f 88/88/88 87/87/87 63/63/63 56/56/56
f 78/78/78 71/71/71 89/89/89 90/90/90
f 90/90/90 89/89/89 91/91/91 92/92/92
f 92/92/92 91/91/91 5/5/5 10/10/10
f 19/19/19 2/2/2 93/93/93 94/94/94
f 94/94/94 93/93/93 95/95/95 96/96/96
f 96/96/96 95/95/95 17/17/17 27/27/27
f 84/84/84 67/67/67 97/97/97 98/98/98
f 98/98/98 97/97/97 99/99/99 100/100/100
f 100/100/100 99/99/99 28/28/28 16/16/16
f 20/20/20 19/19/19 94/94/94 101/101/101
f 101/101/101 94/94/94 96/96/96 102/102/102
f 102/102/102 96/96/96 27/27/27 30/30/30
f 67/67/67 66/66/66 103/103/103 97/97/97
f 97/97/97 103/103/103 104/104/104 99/99/99
f 99/99/99 104/104/104 29/29/29 28/28/28
f 23/23/23 20/20/20 101/101/101 105/105/105
f 105/105/105 101/101/101 102/102/102 106/106/106
f 106/106/106 102/102/102 30/30/30 59/59/59
f 66/66/66 73/73/73 107/107/107 103/103/103
f 103/103/103 107/107/107 108/108/108 104/104/104
f 104/104/104 108/108/108 60/60/60 29/29/29
f 25/25/25 23/23/23 105/105/105 109/109/109
f 109/109/109 105/105/105 106/106/106 110/110/110
f 110/110/110 106/106/106 59/59/59 62/62/62
f 73/73/73 72/72/72 111/111/111 107/107/107
f 107/107/107 111/111/111 112/112/112 108/108/108
f 108/108/108 112/112/112 61/61/61 60/60/60
f 9/9/9 25/25/25 109/109/109 113/113/113
f 113/113/113 109/109/109 110/110/110 114/114/114
f 114/114/114 110/110/110 62/62/62 79/79/79
f 72/72/72 75/75/75 115/115/115 111/111/111
f 111/111/111 115/115/115 116/116/116 112/112/112
f 112/112/112 116/116/116 80/80/80 61/61/61
f 34/34/34 33/33/33 117/117/117 118/118/118
f 118/118/118 117/117/117 119/119/119 120/120/120
f 120/120/120 119/119/119 15/15/15 42/42/42
f 1/1/1 31/31/31 121/121/121 122/122/122
f 122/122/122 121/121/121 123/123/123 124/124/124
f 124/124/124 123/123/123 41/41/41 18/18/18
f 57/57/57 34/34/34 118/118/118 125/125/125
f 125/125/125 118/118/118 120/120/120 126/126/126
f 126/126/126 120/120/120 42/42/42 65/65/65
f 31/31/31 37/37/37 127/127/127 121/121/121
f 121/121/121 127/127/127 128/128/128 123/123/123
f 123/123/123 128/128/128 64/64/64 41/41/41
f 58/58/58 57/57/57 125/125/125 129/129/129
f 129/129/129 125/125/125 126/126/126 130/130/130
f 130/130/130 126/126/126 65/65/65 77/77/77
f 37/37/37 39/39/39 131/131/131 127/127/127
f 127/127/127 131/131/131 132/132/132 128/128/128
f 128/128/128 132/132/132 76/76/76 64/64/64
f 74/74/74 58/58/58 129/129/129 133/133/133
f 133/133/133 129/129/129 130/130/130 134/134/134
f 134/134/134 130/130/130 77/77/77 83/83/83
f 39/39/39 13/13/13 135/135/135 131/131/131
f 131/131/131 135/135/135 136/136/136 132/132/132
f 132/132/132 136/136/136 82/82/82 76/76/76
f 55/55/55 74/74/74 133/133/133 137/137/137
f 137/137/137 133/133/133 134/134/134 138/138/138
f 138/138/138 134/134/134 83/83/83 69/69/69
f 13/13/13 6/6/6 139/139/139 135/135/135
f 135/135/135 139/139/139 140/140/140 136/136/136
f 136/136/136 140/140/140 70/70/70 82/82/82
f 71/71/71 70/70/70 140/140/140 89/89/89
f 89/89/89 140/140/140 139/139/139 91/91/91
f 91/91/91 139/139/139 6/6/6 5/5/5
f 18/18/18 17/17/17 95/95/95 124/124/124
f 124/124/124 95/95/95 93/93/93 122/122/122
f 122/122/122 93/93/93 2/2/2 1/1/1
f 79/79/79 78/78/78 90/90/90 114/114/114
f 114/114/114 90/90/90 92/92/92 113/113/113
f 113/113/113 92/92/92 10/10/10 9/9/9
f 75/75/75 63/63/63 87/87/87 115/115/115
f 115/115/115 87/87/87 85/85/85 116/116/116
f 116/116/116 85/85/85 81/81/81 80/80/80
f 33/33/33 84/84/84 98/98/98 117/117/117
f 117/117/117 98/98/98 100/100/100 119/119/119
f 119/119/119 100/100/100 16/16/16 15/15/15
f 69/69/69 68/68/68 86/86/86 138/138/138
f 138/138/138 86/86/86 88/88/88 137/137/137
f 137/137/137 88/88/88 56/56/56 55/55/55
f 81/81/81 68/68/68 71/71/71 78/78/78
