<REAPER_PROJECT 0.1 "5.17/OSX64" 1463937391
  RIPPLE 0
  GROUPOVERRIDE 0 0 0
  AUTOXFADE 1
  ENVATTACH 1
  MIXERUIFLAGS 11 48
  PEAKGAIN 1
  FEEDBACK 0
  PANLAW 1
  PROJOFFS 0 0
  MAXPROJLEN 0 600
  GRID 1151 8 1 8 1 0 0
  TIMEMODE 1 0 -1 24 2
  CURSOR 119.78814119956121
  ZOOM 2.38611474450429 0 0
  VZOOMEX 0
  USE_REC_CFG 0
  RECMODE 1
  SMPTESYNC 0 30 100 40 1000 300 0 0 0
  LOOP 0
  LOOPGRAN 0 4
  RECORD_PATH "" ""
  <RECORD_CFG
    ZXZhdxgA
  >
  <APPLYFX_CFG
  >
  RENDER_FILE "C:\Users\AJFOne23\Downloads\RB3\Metal\Mastodon\2011 The Hunter\Thickening/Thickening-FINAL.wav"
  RENDER_FMT 0 2 44100
  RENDER_1X 0
  RENDER_RANGE 1 0 0 18 1000
  RENDER_RESAMPLE 3 0 1
  RENDER_ADDTOPROJ 0
  RENDER_STEMS 0
  RENDER_DITHER 0
  TIMELOCKMODE 0
  TEMPOENVLOCKMODE 1
  ITEMMIX 0
  DEFPITCHMODE 0
  TAKELANE 1
  SAMPLERATE 44100 0 0
  <RENDER_CFG
    ZXZhdxAA
  >
  LOCK 1
  <METRONOME 6 2
    VOL 0.752735 0.723913
    FREQ 800 1600 0
    BEATLEN 4
    SAMPLES "" ""
    PATTERN 2863311530 2863311529
  >
  GLOBAL_AUTO -1
  TEMPO 120 4 4
  PLAYRATE 1 1 0.25 4
  SELECTION 0 0
  SELECTION2 0 0
  MASTERAUTOMODE 0
  MASTERTRACKHEIGHT 0
  MASTERPEAKCOL 16576
  MASTERMUTESOLO 0
  MASTERTRACKVIEW 1 0.6667 0.5 0.5 0 0 0
  MASTERHWOUT 0 0 1 0 0 0 0 -1
  MASTER_NCH 2 2
  MASTER_VOLUME 1 0 -1 -1 1
  MASTER_FX 1
  MASTER_SEL 0
  <MASTERFXLIST
    SHOW 0
    LASTSEL 0
    DOCKED 0
    BYPASS 0 0 0
    <VST "VST: W1 Limiter (George Yohng)" "George Yohng's W1 Limiter.dll" 0 "" ""
      THdGNO5e7f4CAAAAAQAAAAAAAAACAAAAAAAAAAIAAAABAAAAAAAAAAIAAAAAAAAATAAAAAEAAAAAABAADAAAgXRocmVzaAAA/tR4PwwAAIFjZWlsaW5nAP7UeD8MAACB
      cmVsZWFzZQAwQB8/FAAAgWFkYXB0UmVsZWFzZQAAAAAAAAAAAAAAgAAAEAAAAA==
    >
    FLOATPOS 24 24 481 152
    FXID {69D45D23-FE06-4141-B0BB-1A6D9443AFA8}
    WAK 0
  >
  <MASTERPLAYSPEEDENV
    ACT 0
    VIS 0 1 1
    LANEHEIGHT 0 0
    ARM 0
    DEFSHAPE 0 -1 -1
  >
  <TEMPOENVEX
    ACT 1
    VIS 1 0 1
    LANEHEIGHT 0 0
    ARM 0
    DEFSHAPE 1 -1 -1
    PT 0.000000000000 126.0000000000 1
    PT 3.809523809524 126.0000000000 1 262147 0 1
    PT 4.285714285714 132.0000000000 1
    PT 4.512987012987 129.0000000000 1
    PT 5.210661431592 133.0000000000 1
    PT 5.661789251141 138.0000000000 1
    PT 5.879180555488 130.0000000000 1
    PT 6.571488247796 135.0000000000 1
    PT 7.015932692240 130.0000000000 1
    PT 7.939009615317 134.0000000000 1
    PT 8.386770809347 137.0000000000 1
    PT 9.262683218106 125.0000000000 1
    PT 9.742683218106 129.0000000000 1
    PT 10.207799497176 130.0000000000 1
    PT 10.669337958715 133.0000000000 1
    PT 11.120465778264 137.0000000000 1
    PT 11.558421982643 133.0000000000 1
    PT 12.009549802192 131.0000000000 1
    PT 14.757641405246 131.0000000000 1 262148 0 1
    PT 15.673671939597 127.0000000000 1
    PT 16.146112884478 135.0000000000 1
    PT 16.590557328923 128.0000000000 1 262147 0 1
    PT 17.059307328923 133.0000000000 1
    PT 17.284871238697 136.0000000000 1
    PT 17.946635944580 132.0000000000 1
    PT 18.401181399125 135.0000000000 1
    PT 19.067848065792 133.0000000000 1
    PT 19.744539795115 130.0000000000 1
    PT 20.667616718192 133.0000000000 1
    PT 21.118744537741 130.0000000000 1
    PT 21.580282999279 132.0000000000 1
    PT 22.489373908370 135.0000000000 1
    PT 22.933818352815 132.0000000000 1
    PT 23.842909261906 134.0000000000 1
    PT 24.738431649965 130.0000000000 1
    PT 25.199970111504 132.0000000000 1
    PT 27.018151929686 130.0000000000 1
    PT 27.479690391224 130.0000000000 1 262148 0 1
    PT 27.941228852762 132.0000000000 1
    PT 28.395774307308 129.0000000000 1
    PT 28.860890586378 131.0000000000 1
    PT 29.318905853553 131.0000000000 1 262147 0 1
    PT 29.776921120729 135.0000000000 1
    PT 31.110254454062 132.0000000000 1
    PT 32.473890817699 133.0000000000 1
    PT 33.376146456796 131.0000000000 1
    PT 34.292176991147 129.0000000000 1
    PT 35.222409549287 133.0000000000 1
    PT 36.575793007934 135.0000000000 1
    PT 37.020237452378 133.0000000000 1
    PT 37.922493091476 131.0000000000 1
    PT 38.838523625827 133.0000000000 1
    PT 39.289651445376 131.0000000000 1
    PT 40.205681979727 125.0000000000 1 262148 0 1
    PT 40.685681979727 130.0000000000 1
    PT 41.147220441265 133.0000000000 1
    PT 41.598348260814 130.0000000000 1
    PT 42.059886722353 130.0000000000 1 262147 0 1
    PT 42.521425183891 138.0000000000 1
    PT 43.390990401283 128.0000000000 1
    PT 43.859740401283 133.0000000000 1
    PT 46.566507318576 128.0000000000 1
    PT 47.035257318576 134.0000000000 1
    PT 47.483018512606 132.0000000000 1
    PT 48.846654876242 128.0000000000 1
    PT 49.081029876242 135.0000000000 1
    PT 50.192140987353 130.0000000000 1
    PT 51.115217910430 131.5000000000 1
    PT 52.027765438947 133.0000000000 1
    PT 52.930021078045 131.0000000000 1 262148 0 1
    PT 54.304066879572 125.0000000000 1
    PT 54.784066879572 131.0000000000 1
    PT 55.242082146747 140.0000000000 1
    PT 55.456367861033 138.0000000000 1
    PT 56.108541774076 127.0000000000 1
    PT 56.580982718958 136.0000000000 1
    PT 56.801570954252 130.0000000000 1
    PT 57.493878646560 135.0000000000 1
    PT 58.382767535449 125.0000000000 1
    PT 58.862767535449 136.0000000000 1
    PT 59.303944006037 132.0000000000 1
    PT 59.758489460583 134.0000000000 1
    PT 59.982370057598 132.0000000000 1
    PT 60.664188239416 135.0000000000 1
    PT 61.108632683860 132.0000000000 1
    PT 61.563178138406 130.0000000000 1
    PT 63.178562753790 132.0000000000 1
    PT 63.405835481063 135.0000000000 1
    PT 64.294724369952 133.0000000000 1
    PT 66.099235648147 131.0000000000 1
    PT 66.557250915323 127.0000000000 1
    PT 67.029691860205 131.0000000000 1
    PT 68.861752928907 138.0000000000 1
    PT 69.296535537603 123.0000000000 1 262147 0 1
    PT 70.759950171749 120.0000000000 1
    PT 72.259950171749 131.0000000000 1 262148 0 1
    PT 74.550026507627 135.0000000000 1
    PT 74.994470952071 137.0000000000 1
    PT 75.432427156451 130.0000000000 1
    PT 75.893965617989 132.0000000000 1
    PT 76.348511072535 130.0000000000 1
    PT 77.271587995612 134.0000000000 1
    PT 77.719349189642 131.0000000000 1
    PT 80.009425525519 135.0000000000 1
    PT 80.898314414408 128.0000000000 1
    PT 81.367064414408 133.0000000000 1
    PT 84.073831331702 129.0000000000 1
    PT 85.004063889841 132.0000000000 1
    PT 85.458609344387 135.0000000000 1
    PT 86.347498233275 130.0000000000 1
    PT 87.732113617891 132.0000000000 1
    PT 88.641204526982 133.0000000000 1
    PT 89.092332346531 135.0000000000 1
    PT 89.536776790975 133.0000000000 1
    PT 89.987904610524 132.0000000000 1
    PT 91.351540974160 131.0000000000 1
    PT 92.267571508511 130.0000000000 1
    PT 92.729109970050 134.0000000000 1
    PT 94.072393552139 130.5000000000 1
    PT 94.991933782025 132.0000000000 1
    PT 95.901024691115 131.0000000000 1
    PT 96.817055225467 132.0000000000 1
    PT 97.726146134558 108.0000000000 1
    PT 98.837257245669 107.0000000000 1
    PT 99.678378740996 105.0000000000 1
    PT 101.106950169567 107.0000000000 1
    PT 101.667697833119 104.0000000000 1
    PT 102.821543986965 106.0000000000 1
    PT 103.387581722814 107.5000000000 1
    PT 103.945721257697 106.0000000000 1
    PT 107.341947672792 104.5000000000 1
    PT 107.916110352218 108.0000000000 1
    PT 108.471665907773 107.0000000000 1
    PT 110.153908898427 106.0000000000 1
    PT 110.719946634276 105.0000000000 1
    PT 112.434232348562 106.0000000000 1
    PT 115.264421027807 108.0000000000 1
    PT 115.819976583363 104.0000000000 1
    PT 116.973822737209 106.0000000000 1
    PT 118.105898208907 107.0000000000 1
    PT 122.031131853767 103.5000000000 1
    PT 122.900697071159 105.0000000000 1
    PT 123.757839928301 108.0000000000 1
    PT 124.868951039413 102.5000000000 1
    PT 125.746999819900 106.0000000000 1
    PT 126.596056423674 106.5000000000 1
    PT 127.159436705364 105.0000000000 1
    PT 128.016579562507 106.0000000000 1
    PT 128.441107864394 107.0000000000 1
    PT 128.861668612057 104.0000000000 1
    PT 129.438591688980 108.0000000000 1
    PT 129.716369466758 109.5000000000 1
    PT 130.538287274977 107.0000000000 1
    PT 131.099034938529 102.0000000000 1
    PT 131.540211409117 104.5000000000 1
    PT 131.827292748830 107.0000000000 1
    PT 132.528227328269 108.0000000000 1
    PT 132.806005106047 108.5000000000 1
    PT 133.911995889457 101.0000000000 1
    PT 134.506055295398 100.0000000000 1
    PT 134.956055295398 107.0000000000 1
    PT 135.656989874837 105.0000000000 1
    PT 136.228418446265 108.0000000000 1
    PT 137.339529557377 106.5000000000 1
    PT 138.466290120757 103.0000000000 1
    PT 139.048814392602 104.0000000000 1
    PT 139.337275931063 106.0000000000 1
    PT 139.620294798988 107.5000000000 1
    PT 140.178434333871 102.5000000000 1
    PT 140.763800187530 108.0000000000 1
    PT 141.319355743085 103.0000000000 1
    PT 141.901880014930 111.0000000000 1
    PT 142.442420555471 106.0000000000 1
    PT 143.008458291320 104.5000000000 1
    PT 143.582620970746 105.5000000000 1
    PT 144.151341349892 107.0000000000 1
    PT 144.431715181668 108.0000000000 1
    PT 145.820604070557 105.0000000000 1
    PT 148.249175499128 108.0000000000 1
    PT 148.665842165795 111.0000000000 1
    PT 149.206382706336 106.0000000000 1
    PT 149.772420442185 108.0000000000 1
    PT 150.327975997740 112.0000000000 1
    PT 150.863690283455 101.0000000000 1
    PT 151.457749689395 99.0000000000 1
    PT 152.063810295456 106.0000000000 1
    PT 152.629848031305 104.0000000000 1
    PT 153.206771108228 111.0000000000 1
    PT 153.747311648768 106.0000000000 1
    PT 154.879387120466 107.0000000000 1
    PT 155.440134784018 105.0000000000 1
    PT 157.725849069732 108.5000000000 1
    PT 158.831839853142 104.5000000000 1
    PT 159.980165211994 106.0000000000 1
    PT 161.112240683692 107.0000000000 1
    PT 162.233736010795 102.5000000000 1
    PT 163.404467718112 109.5000000000 1
    PT 164.500358129071 104.0000000000 1
    PT 165.654204282917 108.0000000000 1
    PT 166.487537616250 105.0000000000 1
    PT 167.344680473393 107.0000000000 1
    PT 167.625054305169 106.0000000000 1
    PT 169.606186380640 105.0000000000 1
    PT 170.177614952069 107.0000000000 1
    PT 171.018736447396 109.0000000000 1
    PT 171.844424520790 105.0000000000 1
    PT 172.415853092219 106.0000000000 1
    PT 173.547928563917 103.0000000000 1
    PT 174.712977107606 107.5000000000 1
    PT 174.992046875048 109.0000000000 1
    PT 175.542505590645 107.0000000000 1
    PT 176.383627085972 103.5000000000 1
    PT 177.543047375827 109.0000000000 1
    PT 178.093506091423 107.0000000000 1
    PT 179.215001418526 105.5000000000 1 262147 0 1
    PT 182.058603314261 107.0000000000 1
    PT 182.619350977812 106.0000000000 1
    PT 186.015577392906 106.5000000000 1
    PT 188.269098519667 106.0000000000 1
    PT 191.099287198912 105.0000000000 1
    PT 192.813572913198 106.5000000000 1
    PT 195.630474321649 108.0000000000 1
    PT 196.186029877204 107.0000000000 1
    PT 197.868272867858 105.0000000000 1
    PT 199.582558582144 107.0000000000 1
    PT 201.264801572798 105.0000000000 1
    PT 204.693373001370 105.5000000000 1
    PT 206.399534138810 106.0000000000 1 262148 0 1
    PT 209.795760553905 107.0000000000 1
    PT 210.917255881008 104.5000000000 1
    PT 212.639743919285 108.0000000000 1
    PT 213.750855030396 105.0000000000 1
    PT 215.465140744682 108.0000000000 1
    PT 216.020696300237 106.5000000000 1
    PT 218.274217426998 105.0000000000 1
    PT 219.988503141284 104.0000000000 1
    PT 221.142349295130 105.5000000000 1
    PT 223.417230811718 109.0000000000 1
    PT 224.518148242910 106.0000000000 1
    PT 225.650223714608 105.0000000000 1
    PT 226.793080857465 108.0000000000 1
    PT 229.015303079688 104.5000000000 1
    PT 231.311953797391 106.5000000000 1
    PT 233.565474924152 106.0000000000 1
    PT 241.490003226038 105.0000000000 1
    PT 242.632860368896 124.0000000000 1
    PT 244.084473272121 130.0000000000 1
    PT 245.238319425968 129.0000000000 1
    PT 247.331342681781 130.0000000000 1
    PT 248.023650374089 132.5000000000 1
    PT 250.061386223146 129.0000000000 1
    PT 251.921851339425 135.0000000000 1
    PT 254.144073561647 130.0000000000 1
    PT 257.374842792416 125.0000000000 1
  >
  <PROJBAY
  >
  <TRACK {4D889F49-FE1F-4D1D-9FB8-BFD5BA06901A}
    NAME "SONG AUDIO"
    PEAKCOL 16576
    BEAT -1
    AUTOMODE 0
    VOLPAN 1 0 -1 -1 1
    MUTESOLO 0 2 0
    IPHASE 0
    ISBUS 0 0
    BUSCOMP 0 0
    SHOWINMIX 1 0.6667 0.5 1 0.5 0 0 0
    FREEMODE 0
    SEL 0
    REC 0 0 0 0 0 0 0
    TRACKHEIGHT 0 0
    INQ 0 0 0 0.5 100 0 0 100
    NCHAN 2
    FX 0
    TRACKID {4D889F49-FE1F-4D1D-9FB8-BFD5BA06901A}
    PERF 0
    MIDIOUT -1
    MAINSEND 1 0
    <FXCHAIN
      WNDRECT 0 43 703 408
      SHOW 0
      LASTSEL 1
      DOCKED 0
      BYPASS 0 0 0
      <VST "VST: W1 Limiter (George Yohng)" "George Yohng's W1 Limiter.dll" 0 "" ""
        THdGNO5e7f4CAAAAAQAAAAAAAAACAAAAAAAAAAIAAAABAAAAAAAAAAIAAAAAAAAATAAAAAEAAAAAABAADAAAgXRocmVzaAAA/tR4PwwAAIFjZWlsaW5nAP7UeD8MAACB
        cmVsZWFzZQAwQB8/FAAAgWFkYXB0UmVsZWFzZQAAAAAAAAAAAAAAgABEZWZhdWx0ABAAAAA=
      >
      FLOATPOS 24 24 481 152
      FXID {D32BE511-3942-4A83-B6D7-DF2FE763A2B4}
      WAK 0
      BYPASS 0 0 0
      <JS LOSER/CenterCanceler ""
        100.000000 - - - - - - - - - - - - - - - - - - - - - - - - - - - - - - - - - - - - - - - - - - - - - - - - - - - - - - - - - - - - - - - 
      >
      FLOATPOS 0 0 0 0
      FXID {C4D36295-4FEF-453A-A6C5-C3413070338A}
      WAK 0
    >
    <ITEM
      POSITION 3.80952380952381
      SNAPOFFS 0
      LENGTH 270.25081230082901
      LOOP 0
      ALLTAKES 0
      FADEIN 1 0 0 1 0 0
      FADEOUT 1 0 0 1 0 0
      MUTE 0
      SEL 0
      IGUID {2C600266-4AEC-45D7-BE5F-ABD0C3939C9A}
      IID 22
      NAME Thickening.ogg
      VOLPAN 1 0 1 -1
      SOFFS 0.00664801663125
      PLAYRATE 1 1 0 -1 0 0.0025
      CHANMODE 0
      GUID {D01D1D3E-F807-42FC-8484-0433AF2C863D}
      <SOURCE VORBIS
        FILE "Thickening.ogg"
      >
    >
  >
  <TRACK {BDCFF37A-71AC-4D17-AF26-EA560B308842}
    NAME COUNTIN
    PEAKCOL 16576
    BEAT -1
    AUTOMODE 0
    VOLPAN 1 0 -1 -1 1
    MUTESOLO 0 0 0
    IPHASE 0
    ISBUS 0 0
    BUSCOMP 0 0
    SHOWINMIX 1 0.6667 0.5 1 0.5 0 0 0
    FREEMODE 0
    SEL 0
    REC 0 0 0 0 0 0 0
    TRACKHEIGHT 0 0
    INQ 0 0 0 0.5 100 0 0 100
    NCHAN 2
    FX 1
    TRACKID {BDCFF37A-71AC-4D17-AF26-EA560B308842}
    PERF 0
    MIDIOUT -1
    MAINSEND 1 0
    <ITEM
      POSITION 0
      SNAPOFFS 0
      LENGTH 0.28216019417451
      LOOP 0
      ALLTAKES 0
      FADEIN 1 0 0 1 0 0
      FADEOUT 1 0 0 1 0 0
      MUTE 0
      SEL 0
      IGUID {D829F3DA-0BE5-4277-954B-C2D10DB114A6}
      IID 7
      NAME stick.wav
      VOLPAN 1 0 1 -1
      SOFFS 0
      PLAYRATE 1 1 0 -1 0 0.0025
      CHANMODE 0
      GUID {3A242298-C3E5-4DC8-9A3C-2EE82D8D2134}
      <SOURCE WAVE
        FILE "stick.wav"
      >
    >
    <ITEM
      POSITION 0.95238095238095
      SNAPOFFS 0
      LENGTH 0.28216019417451
      LOOP 0
      ALLTAKES 0
      FADEIN 1 0 0 1 0 0
      FADEOUT 1 0 0 1 0 0
      MUTE 0
      SEL 0
      IGUID {5AEC5162-2B2C-4FF2-BB3B-E29ADC0916FE}
      IID 8
      NAME stick.wav
      VOLPAN 1 0 1 -1
      SOFFS 0
      PLAYRATE 1.00000000000052 1 0 -1 0 0.0025
      CHANMODE 0
      GUID {16E29BEE-96F5-48F0-9FB0-3F04A1AF90D5}
      <SOURCE WAVE
        FILE "stick.wav"
      >
    >
    <ITEM
      POSITION 1.9047619047619
      SNAPOFFS 0
      LENGTH 0.28216019417451
      LOOP 0
      ALLTAKES 0
      FADEIN 1 0 0 1 0 0
      FADEOUT 1 0 0 1 0 0
      MUTE 0
      SEL 0
      IGUID {1FA8F8C4-F448-4E02-B340-4A6644F6D8AB}
      IID 9
      NAME stick.wav
      VOLPAN 1 0 1 -1
      SOFFS 0
      PLAYRATE 1.00000000000052 1 0 -1 0 0.0025
      CHANMODE 0
      GUID {8D594F7C-8B39-4D29-A27D-55F46BC65189}
      <SOURCE WAVE
        FILE "stick.wav"
      >
    >
    <ITEM
      POSITION 2.38095238095238
      SNAPOFFS 0
      LENGTH 0.28216019417451
      LOOP 0
      ALLTAKES 0
      FADEIN 1 0 0 1 0 0
      FADEOUT 1 0 0 1 0 0
      MUTE 0
      SEL 0
      IGUID {1D23FF37-8166-4C8E-915E-19EFDB52B4D8}
      IID 10
      NAME stick.wav
      VOLPAN 1 0 1 -1
      SOFFS 0
      PLAYRATE 1.00000000000052 1 0 -1 0 0.0025
      CHANMODE 0
      GUID {1D91F480-CA0B-4E03-8204-02893D660CDF}
      <SOURCE WAVE
        FILE "stick.wav"
      >
    >
    <ITEM
      POSITION 2.85714285714286
      SNAPOFFS 0
      LENGTH 0.28216019417451
      LOOP 0
      ALLTAKES 0
      FADEIN 1 0 0 1 0 0
      FADEOUT 1 0 0 1 0 0
      MUTE 0
      SEL 0
      IGUID {A6BA2F37-4089-4BF2-A73E-A602F32B7614}
      IID 11
      NAME stick.wav
      VOLPAN 1 0 1 -1
      SOFFS 0
      PLAYRATE 1.0000000000005 1 0 -1 0 0.0025
      CHANMODE 0
      GUID {ABD24FE2-95CA-428E-ADD9-9A13921FCC29}
      <SOURCE WAVE
        FILE "stick.wav"
      >
    >
    <ITEM
      POSITION 3.33333333333333
      SNAPOFFS 0
      LENGTH 0.28216019417451
      LOOP 0
      ALLTAKES 0
      FADEIN 1 0 0 1 0 0
      FADEOUT 1 0 0 1 0 0
      MUTE 0
      SEL 0
      IGUID {49CCEEAD-12F1-472E-8B9C-48A90BF6E20A}
      IID 12
      NAME stick.wav
      VOLPAN 1 0 1 -1
      SOFFS 0
      PLAYRATE 1.00000000000052 1 0 -1 0 0.0025
      CHANMODE 0
      GUID {3DFEA1C1-AD72-4DF8-A1BD-3977672F4D80}
      <SOURCE WAVE
        FILE "stick.wav"
      >
    >
  >
  <TRACK {8F33A645-3DF2-48FA-99BC-10992A4F8042}
    NAME "PART DRUMS"
    PEAKCOL 16842751
    BEAT -1
    AUTOMODE 0
    VOLPAN 1 0 -1 -1 1
    MUTESOLO 0 0 0
    IPHASE 0
    ISBUS 0 0
    BUSCOMP 1 0
    SHOWINMIX 1 0.6667 0.5 1 0.5 0 0 0
    FREEMODE 0
    SEL 0
    REC 0 4096 1 7 0 0 0
    TRACKHEIGHT 0 0
    INQ 0 0 0 0.5 100 0 0 100
    NCHAN 2
    FX 1
    TRACKID {8F33A645-3DF2-48FA-99BC-10992A4F8042}
    PERF 0
    MIDIOUT -1
    <MIDINOTENAMES
      0 24 "KICK RF"
      0 25 "HI-HAT OPEN"
      0 26 "SNARE HARD LH"
      0 27 "SNARE HARD RH"
      0 28 "SNARE SOFT LH"
      0 29 "SNARE SOFT RH"
      0 30 "HI-HAT LH"
      0 31 "HI-HAT RH"
      0 32 "PERCUSSION RH"
      0 34 "CRASH1 HARD LH"
      0 35 "CRASH1 SOFT LH"
      0 36 "CRASH1 HARD RH"
      0 37 "CRASH1 SOFT RH"
      0 38 "CRASH2 HARD RH"
      0 39 "CRASH2 SOFT RH"
      0 40 "CRASH1 CHOKE"
      0 41 "CRASH2 CHOKE"
      0 42 "RIDE CYM RH"
      0 43 "RIDE CYM LH"
      0 44 "CRASH2 HARD LH"
      0 45 "CRASH2 SOFT LH"
      0 46 "TOM1 LH"
      0 47 "TOM1 RH"
      0 48 "TOM2 LH"
      0 49 "TOM2 RH"
      0 50 "FLOOR TOM LH"
      0 51 "FLOOR TOM RH"
      0 52 "--DRUM ANIMATION--"
      0 56 ----
      0 60 "EASY Kick"
      0 61 "EASY Red"
      0 62 "EASY Yellow"
      0 63 "EASY Blue"
      0 64 "EASY Green"
      0 68 ----
      0 72 "MEDIUM Kick"
      0 73 "MEDIUM Red"
      0 74 "MEDIUM Yellow"
      0 75 "MEDIUM Blue"
      0 76 "MEDIUM Green"
      0 80 ----
      0 84 "HARD Kick"
      0 85 "HARD Red"
      0 86 "HARD Yellow"
      0 87 "HARD Blue"
      0 88 "HARD Green"
      0 92 ----
      0 96 "EXPERT Kick"
      0 97 "EXPERT Red"
      0 98 "EXPERT Yellow"
      0 99 "EXPERT Blue"
      0 100 "EXPERT Green"
      0 101 " "
      0 102 ----
      0 103 "Solo Marker"
      0 108 ----
      0 110 "PRO Yellow Tom"
      0 111 "PRO Blue Tom"
      0 112 "PRO Green Tom"
      0 114 ----
      0 116 OVERDRIVE
      0 118 ----
      0 120 "DRUM FILL (use all 5)"
      0 121 "DRUM FILL"
      0 122 "DRUM FILL"
      0 123 "DRUM FILL"
      0 124 "DRUM FILL"
      0 125 ----
      0 126 "Roll Marker 1-Lane"
      0 127 "Roll Marker 2-Lane / Cym"
    >
    MAINSEND 1 0
    <FXCHAIN
      WNDRECT 0 38 870 574
      SHOW 0
      LASTSEL 1
      DOCKED 0
      BYPASS 1 0 0
      <VST "VSTi: ReaSynth (Cockos)" reasynth.vst.dylib 0 "" 1919251321
        eXNlcu9e7f4AAAAAAgAAAAEAAAAAAAAAAgAAAAAAAAA8AAAAAAAAAAAAAADvvq3eDfCt3gAAAAAAAAAAAAAAAAAAAAA5tEg+fcvbPrW0sTkAAAAAtvP9PlWkKzoAAAAA
        AAAAAAAAgD8AAAAAAAA=
      >
      FLOATPOS 0 0 0 0
      FXID {58F55556-9407-4062-A048-6AFCC0B53535}
      WAK 0
      BYPASS 0 0 0
      <VST "VSTi: RBN Preview (RBN)" rbprev_vst.dll 0 "" ""
        dnBicu5e7f4AAAAAAgAAAAEAAAAAAAAAAgAAAAAAAAAEAAAAAQAAAAAAAAADAaoAAAAAAAAA
      >
      FLOATPOS 32 32 659 497
      FXID {D7126437-AB1E-4109-A0FA-F2D5D0AC68DC}
      WAK 0
    >
    <ITEM
      POSITION 0
      SNAPOFFS 0
      LENGTH 274.06033611035281
      LOOP 0
      ALLTAKES 0
      FADEIN 1 0 0 1 0 0
      FADEOUT 1 0 0 1 0 0
      MUTE 0
      COLOR 19150555 B
      SEL 0
      IGUID {9FF11F36-E94F-4396-9C0E-8449C916EC21}
      IID 1
      NAME "PART DRUMS"
      VOLPAN 1 0 1 -1
      SOFFS 0 0
      PLAYRATE 1 1 0 -65536 0 0.0025
      CHANMODE 0
      GUID {70A79ADF-E70C-430A-913F-E16D0CC85517}
      <SOURCE MIDI
        HASDATA 1 480 QN
        POOLEDEVTS {C2FE3004-75FD-4800-801B-30100D141496}
        <X 0 0
          /wNQQVJUIERSVU1T
        >
        <X 300 0
          /wFbbWl4IDEgZHJ1bXMwXQ==
        >
        <X 0 0
          /wFbbWl4IDAgZHJ1bXMwXQ==
        >
        <X 60 0
          /wFbbWl4IDIgZHJ1bXMwXQ==
        >
        <X 60 0
          /wFbbWl4IDMgZHJ1bXMwXQ==
        >
        <X 3420 0
          /wFbcGxheV0=
        >
        E 0 90 3c 60
        E 0 90 40 60
        E 0 90 48 60
        E 0 90 4c 60
        E 0 90 54 60
        E 0 90 58 60
        E 0 90 60 60
        E 0 90 64 60
        E 0 90 18 60
        E 0 90 26 60
        E 120 80 3c 00
        E 0 80 40 00
        E 0 80 48 00
        E 0 80 4c 00
        E 0 80 54 00
        E 0 80 58 00
        E 0 80 60 00
        E 0 80 64 00
        E 0 80 18 00
        E 0 80 26 00
        E 120 90 57 60
        E 0 90 63 60
        E 0 90 2a 60
        E 120 80 57 00
        E 0 80 63 00
        E 0 80 2a 00
        E 120 90 48 60
        E 0 90 4b 60
        E 0 90 54 60
        E 0 90 57 60
        E 0 90 60 60
        E 0 90 63 60
        E 0 90 18 60
        E 0 90 2a 60
        E 120 80 48 00
        E 0 80 4b 00
        E 0 80 54 00
        E 0 80 57 00
        E 0 80 60 00
        E 0 80 63 00
        E 0 90 60 60
        E 0 80 18 00
        E 0 80 2a 00
        E 0 90 18 60
        E 120 80 60 00
        E 0 90 55 60
        E 0 90 57 60
        E 0 90 61 60
        E 0 90 63 60
        E 0 80 18 00
        E 0 90 1a 60
        E 0 90 2a 60
        E 120 80 55 00
        E 0 80 57 00
        E 0 80 61 00
        E 0 80 63 00
        E 0 80 1a 00
        E 0 80 2a 00
        E 120 90 3f 60
        E 0 90 4b 60
        E 0 90 57 60
        E 0 90 63 60
        E 0 90 2a 60
        E 120 80 3f 00
        E 0 80 4b 00
        E 0 80 57 00
        E 0 80 63 00
        E 0 80 2a 00
        E 120 90 54 60
        E 0 90 57 60
        E 0 90 60 60
        E 0 90 63 60
        E 0 90 18 60
        E 0 90 2a 60
        E 120 80 54 00
        E 0 80 57 00
        E 0 80 60 00
        E 0 80 63 00
        E 0 80 18 00
        E 0 80 2a 00
        E 120 90 3c 60
        E 0 90 3f 60
        E 0 90 48 60
        E 0 90 4b 60
        E 0 90 54 60
        E 0 90 57 60
        E 0 90 60 60
        E 0 90 63 60
        E 0 90 18 60
        E 0 90 2a 60
        E 120 80 3c 00
        E 0 80 3f 00
        E 0 80 48 00
        E 0 80 4b 00
        E 0 80 54 00
        E 0 80 57 00
        E 0 80 60 00
        E 0 80 63 00
        E 0 80 18 00
        E 0 80 2a 00
        E 120 90 57 60
        E 0 90 63 60
        E 0 90 2a 60
        E 120 80 57 00
        E 0 80 63 00
        E 0 80 2a 00
        E 120 90 3c 60
        E 0 90 3f 60
        E 0 90 48 60
        E 0 90 4b 60
        E 0 90 54 60
        E 0 90 57 60
        E 0 90 60 60
        E 0 90 63 60
        E 0 90 18 60
        E 0 90 2a 60
        E 120 80 3c 00
        E 0 80 3f 00
        E 0 80 48 00
        E 0 80 4b 00
        E 0 80 54 00
        E 0 80 57 00
        E 0 80 60 00
        E 0 80 63 00
        E 0 90 60 60
        E 0 80 18 00
        E 0 80 2a 00
        E 0 90 18 60
        E 120 80 60 00
        E 0 90 55 60
        E 0 90 57 60
        E 0 90 61 60
        E 0 90 63 60
        E 0 80 18 00
        E 0 90 1a 60
        E 0 90 2a 60
        E 120 80 55 00
        E 0 80 57 00
        E 0 80 61 00
        E 0 80 63 00
        E 0 80 1a 00
        E 0 80 2a 00
        E 120 90 4b 60
        E 0 90 57 60
        E 0 90 63 60
        E 0 90 2a 60
        E 120 80 4b 00
        E 0 80 57 00
        E 0 80 63 00
        E 0 80 2a 00
        E 120 90 54 60
        E 0 90 57 60
        E 0 90 60 60
        E 0 90 63 60
        E 0 90 18 60
        E 0 90 2a 60
        E 120 80 54 00
        E 0 80 57 00
        E 0 80 60 00
        E 0 80 63 00
        E 0 80 18 00
        E 0 80 2a 00
        E 120 90 3c 60
        E 0 90 3f 60
        E 0 90 48 60
        E 0 90 4b 60
        E 0 90 54 60
        E 0 90 57 60
        E 0 90 60 60
        E 0 90 63 60
        E 0 90 18 60
        E 0 90 2a 60
        E 120 80 3c 00
        E 0 80 3f 00
        E 0 80 48 00
        E 0 80 4b 00
        E 0 80 54 00
        E 0 80 57 00
        E 0 80 60 00
        E 0 80 63 00
        E 0 80 18 00
        E 0 80 2a 00
        E 120 90 57 60
        E 0 90 63 60
        E 0 90 2a 60
        E 120 80 57 00
        E 0 80 63 00
        E 0 80 2a 00
        E 120 90 48 60
        E 0 90 4b 60
        E 0 90 54 60
        E 0 90 57 60
        E 0 90 60 60
        E 0 90 63 60
        E 0 90 18 60
        E 0 90 2a 60
        E 120 80 48 00
        E 0 80 4b 00
        E 0 80 54 00
        E 0 80 57 00
        E 0 80 60 00
        E 0 80 63 00
        E 0 90 60 60
        E 0 80 18 00
        E 0 80 2a 00
        E 0 90 18 60
        E 120 80 60 00
        E 0 90 55 60
        E 0 90 57 60
        E 0 90 61 60
        E 0 90 63 60
        E 0 80 18 00
        E 0 90 1a 60
        E 0 90 2a 60
        E 120 80 55 00
        E 0 80 57 00
        E 0 80 61 00
        E 0 80 63 00
        E 0 80 1a 00
        E 0 80 2a 00
        E 120 90 3f 60
        E 0 90 4b 60
        E 0 90 57 60
        E 0 90 63 60
        E 0 90 2a 60
        E 120 80 3f 00
        E 0 80 4b 00
        E 0 80 57 00
        E 0 80 63 00
        E 0 80 2a 00
        E 120 90 54 60
        E 0 90 57 60
        E 0 90 60 60
        E 0 90 63 60
        E 0 90 18 60
        E 0 90 2a 60
        E 120 80 54 00
        E 0 80 57 00
        E 0 80 60 00
        E 0 80 63 00
        E 0 80 18 00
        E 0 80 2a 00
        E 120 90 3c 60
        E 0 90 3f 60
        E 0 90 48 60
        E 0 90 4b 60
        E 0 90 54 60
        E 0 90 57 60
        E 0 90 60 60
        E 0 90 63 60
        E 0 90 18 60
        E 0 90 2a 60
        E 120 80 3c 00
        E 0 80 3f 00
        E 0 80 48 00
        E 0 80 4b 00
        E 0 80 54 00
        E 0 80 57 00
        E 0 80 60 00
        E 0 80 63 00
        E 0 80 18 00
        E 0 80 2a 00
        E 120 90 55 60
        E 0 90 61 60
        E 0 90 1b 60
        E 120 80 55 00
        E 0 80 61 00
        E 0 90 61 60
        E 0 80 1b 00
        E 0 90 1a 60
        E 120 80 61 00
        E 0 90 49 60
        E 0 90 55 60
        E 0 90 61 60
        E 0 80 1a 00
        E 0 90 1b 60
        E 120 80 49 00
        E 0 80 55 00
        E 0 80 61 00
        E 0 90 61 60
        E 0 80 1b 00
        E 0 90 1a 60
        E 120 80 61 00
        E 0 90 49 60
        E 0 90 55 60
        E 0 90 61 60
        E 0 80 1a 00
        E 0 90 1b 60
        E 120 80 49 00
        E 0 80 55 00
        E 0 80 61 00
        E 0 90 61 60
        E 0 80 1b 00
        E 0 90 1a 60
        E 120 80 61 00
        E 0 90 49 60
        E 0 90 55 60
        E 0 90 61 60
        E 0 80 1a 00
        E 0 90 1b 60
        E 120 80 49 00
        E 0 80 55 00
        E 0 80 61 00
        E 0 90 61 60
        E 0 80 1b 00
        E 0 90 1a 60
        E 120 80 61 00
        E 0 90 55 60
        E 0 90 61 60
        E 0 80 1a 00
        E 0 90 1b 60
        E 120 80 55 00
        E 0 80 61 00
        E 0 90 61 60
        E 0 80 1b 00
        E 0 90 1a 60
        E 120 80 61 00
        E 0 90 3c 60
        E 0 90 40 60
        E 0 90 48 60
        E 0 90 4c 60
        E 0 90 54 60
        E 0 90 58 60
        E 0 90 60 60
        E 0 90 64 60
        E 0 80 1a 00
        E 0 90 18 60
        E 0 90 26 60
        E 120 80 3c 00
        E 0 80 40 00
        E 0 80 48 00
        E 0 80 4c 00
        E 0 80 54 00
        E 0 80 58 00
        E 0 80 60 00
        E 0 80 64 00
        E 0 80 18 00
        E 0 80 26 00
        E 120 90 57 60
        E 0 90 63 60
        E 0 90 2a 60
        E 120 80 57 00
        E 0 80 63 00
        E 0 80 2a 00
        E 120 90 48 60
        E 0 90 4b 60
        E 0 90 54 60
        E 0 90 57 60
        E 0 90 60 60
        E 0 90 63 60
        E 0 90 18 60
        E 0 90 2a 60
        E 120 80 48 00
        E 0 80 4b 00
        E 0 80 54 00
        E 0 80 57 00
        E 0 80 60 00
        E 0 80 63 00
        E 0 80 18 00
        E 0 80 2a 00
        E 120 90 57 60
        E 0 90 63 60
        E 0 90 2a 60
        E 120 80 57 00
        E 0 80 63 00
        E 0 90 60 60
        E 0 80 2a 00
        E 0 90 18 60
        E 120 80 60 00
        E 0 90 3d 60
        E 0 90 49 60
        E 0 90 4b 60
        E 0 90 55 60
        E 0 90 57 60
        E 0 90 61 60
        E 0 90 63 60
        E 0 80 18 00
        E 0 90 1a 60
        E 0 90 2a 60
        E 120 80 3d 00
        E 0 80 49 00
        E 0 80 4b 00
        E 0 80 55 00
        E 0 80 57 00
        E 0 80 61 00
        E 0 80 63 00
        E 0 80 1a 00
        E 0 80 2a 00
        E 120 90 54 60
        E 0 90 57 60
        E 0 90 60 60
        E 0 90 63 60
        E 0 90 18 60
        E 0 90 2a 60
        E 120 80 54 00
        E 0 80 57 00
        E 0 80 60 00
        E 0 80 63 00
        E 0 80 18 00
        E 0 80 2a 00
        E 120 90 3c 60
        E 0 90 3f 60
        E 0 90 48 60
        E 0 90 4b 60
        E 0 90 54 60
        E 0 90 57 60
        E 0 90 60 60
        E 0 90 63 60
        E 0 90 18 60
        E 0 90 2a 60
        E 120 80 3c 00
        E 0 80 3f 00
        E 0 80 48 00
        E 0 80 4b 00
        E 0 80 54 00
        E 0 80 57 00
        E 0 80 60 00
        E 0 80 63 00
        E 0 80 18 00
        E 0 80 2a 00
        E 120 90 48 60
        E 0 90 4b 60
        E 0 90 54 60
        E 0 90 57 60
        E 0 90 60 60
        E 0 90 63 60
        E 0 90 18 60
        E 0 90 2a 60
        E 120 80 48 00
        E 0 80 4b 00
        E 0 80 54 00
        E 0 80 57 00
        E 0 80 60 00
        E 0 80 63 00
        E 0 80 18 00
        E 0 80 2a 00
        E 120 90 3c 60
        E 0 90 3f 60
        E 0 90 48 60
        E 0 90 4b 60
        E 0 90 54 60
        E 0 90 57 60
        E 0 90 60 60
        E 0 90 63 60
        E 0 90 18 60
        E 0 90 2a 60
        E 120 80 3c 00
        E 0 80 3f 00
        E 0 80 48 00
        E 0 80 4b 00
        E 0 80 54 00
        E 0 80 57 00
        E 0 80 60 00
        E 0 80 63 00
        E 0 80 18 00
        E 0 80 2a 00
        E 120 90 57 60
        E 0 90 63 60
        E 0 90 2a 60
        E 120 80 57 00
        E 0 80 63 00
        E 0 90 60 60
        E 0 80 2a 00
        E 0 90 18 60
        E 120 80 60 00
        E 0 90 49 60
        E 0 90 4b 60
        E 0 90 55 60
        E 0 90 57 60
        E 0 90 61 60
        E 0 90 63 60
        E 0 80 18 00
        E 0 90 1a 60
        E 0 90 2a 60
        E 120 80 49 00
        E 0 80 4b 00
        E 0 80 55 00
        E 0 80 57 00
        E 0 80 61 00
        E 0 80 63 00
        E 0 80 1a 00
        E 0 80 2a 00
        E 120 90 57 60
        E 0 90 63 60
        E 0 90 2a 60
        E 120 80 57 00
        E 0 80 63 00
        E 0 80 2a 00
        E 120 90 3c 60
        E 0 90 3f 60
        E 0 90 48 60
        E 0 90 4b 60
        E 0 90 54 60
        E 0 90 57 60
        E 0 90 60 60
        E 0 90 63 60
        E 0 90 18 60
        E 0 90 2a 60
        E 120 80 3c 00
        E 0 80 3f 00
        E 0 80 48 00
        E 0 80 4b 00
        E 0 80 54 00
        E 0 80 57 00
        E 0 80 60 00
        E 0 80 63 00
        E 0 80 18 00
        E 0 80 2a 00
        E 120 90 48 60
        E 0 90 4b 60
        E 0 90 54 60
        E 0 90 57 60
        E 0 90 60 60
        E 0 90 63 60
        E 0 90 18 60
        E 0 90 2a 60
        E 120 80 48 00
        E 0 80 4b 00
        E 0 80 54 00
        E 0 80 57 00
        E 0 80 60 00
        E 0 80 63 00
        E 0 80 18 00
        E 0 80 2a 00
        E 120 90 48 60
        E 0 90 4b 60
        E 0 90 54 60
        E 0 90 57 60
        E 0 90 60 60
        E 0 90 63 60
        E 0 90 18 60
        E 0 90 2a 60
        E 120 80 48 00
        E 0 80 4b 00
        E 0 80 54 00
        E 0 80 57 00
        E 0 80 60 00
        E 0 80 63 00
        E 0 80 18 00
        E 0 80 2a 00
        E 120 90 57 60
        E 0 90 63 60
        E 0 90 2a 60
        E 120 80 57 00
        E 0 80 63 00
        E 0 90 60 60
        E 0 80 2a 00
        E 0 90 18 60
        E 120 80 60 00
        E 0 90 3d 60
        E 0 90 49 60
        E 0 90 4b 60
        E 0 90 55 60
        E 0 90 57 60
        E 0 90 61 60
        E 0 90 63 60
        E 0 80 18 00
        E 0 90 1a 60
        E 0 90 2a 60
        E 120 80 3d 00
        E 0 80 49 00
        E 0 80 4b 00
        E 0 80 55 00
        E 0 80 57 00
        E 0 80 61 00
        E 0 80 63 00
        E 0 80 1a 00
        E 0 80 2a 00
        E 120 90 57 60
        E 0 90 63 60
        E 0 90 2a 60
        E 120 80 57 00
        E 0 80 63 00
        E 0 90 61 60
        E 0 80 2a 00
        E 0 90 1a 60
        E 120 80 61 00
        E 0 90 3c 60
        E 0 90 3f 60
        E 0 90 48 60
        E 0 90 4b 60
        E 0 90 54 60
        E 0 90 57 60
        E 0 90 60 60
        E 0 90 63 60
        E 0 80 1a 00
        E 0 90 18 60
        E 0 90 2a 60
        E 120 80 3c 00
        E 0 80 3f 00
        E 0 80 48 00
        E 0 80 4b 00
        E 0 80 54 00
        E 0 80 57 00
        E 0 80 60 00
        E 0 80 63 00
        E 0 80 18 00
        E 0 80 2a 00
        E 120 90 48 60
        E 0 90 4b 60
        E 0 90 54 60
        E 0 90 57 60
        E 0 90 60 60
        E 0 90 63 60
        E 0 90 18 60
        E 0 90 2a 60
        E 120 80 48 00
        E 0 80 4b 00
        E 0 80 54 00
        E 0 80 57 00
        E 0 80 60 00
        E 0 80 63 00
        E 0 80 18 00
        E 0 80 2a 00
        E 120 90 3c 60
        E 0 90 3f 60
        E 0 90 48 60
        E 0 90 4b 60
        E 0 90 54 60
        E 0 90 57 60
        E 0 90 60 60
        E 0 90 63 60
        E 0 90 18 60
        E 0 90 2a 60
        E 120 80 3c 00
        E 0 80 3f 00
        E 0 80 48 00
        E 0 80 4b 00
        E 0 80 54 00
        E 0 80 57 00
        E 0 80 60 00
        E 0 80 63 00
        E 0 80 18 00
        E 0 80 2a 00
        E 120 90 57 60
        E 0 90 63 60
        E 0 90 2a 60
        E 120 80 57 00
        E 0 80 63 00
        E 0 90 60 60
        E 0 80 2a 00
        E 0 90 18 60
        E 120 80 60 00
        E 0 90 49 60
        E 0 90 4b 60
        E 0 90 55 60
        E 0 90 57 60
        E 0 90 61 60
        E 0 90 63 60
        E 0 80 18 00
        E 0 90 1a 60
        E 0 90 2a 60
        E 120 80 49 00
        E 0 80 4b 00
        E 0 80 55 00
        E 0 80 57 00
        E 0 80 61 00
        E 0 80 63 00
        E 0 80 1a 00
        E 0 80 2a 00
        E 120 90 57 60
        E 0 90 63 60
        E 0 90 2a 60
        E 120 80 57 00
        E 0 80 63 00
        E 0 80 2a 00
        E 120 90 3c 60
        E 0 90 40 60
        E 0 90 48 60
        E 0 90 4c 60
        E 0 90 54 60
        E 0 90 58 60
        E 0 90 60 60
        E 0 90 64 60
        E 0 90 18 60
        E 0 90 26 60
        E 120 80 3c 00
        E 0 80 40 00
        E 0 80 48 00
        E 0 80 4c 00
        E 0 80 54 00
        E 0 80 58 00
        E 0 80 60 00
        E 0 80 64 00
        E 0 80 18 00
        E 0 80 26 00
        E 120 90 56 60
        E 0 90 62 60
        E 0 90 6e 60
        E 0 90 2f 60
        E 80 80 56 00
        E 0 80 62 00
        E 0 80 6e 00
        E 0 90 62 60
        E 0 90 6e 60
        E 0 80 2f 00
        E 0 90 2e 60
        E 80 80 62 00
        E 0 80 6e 00
        E 0 90 62 60
        E 0 90 6e 60
        E 0 80 2e 00
        E 0 90 2f 60
        E 80 80 62 00
        E 0 80 6e 00
        E 0 90 4a 60
        E 0 90 56 60
        E 0 90 62 60
        E 0 90 6e 60
        E 0 80 2f 00
        E 0 90 2e 60
        E 120 80 4a 00
        E 0 80 56 00
        E 0 80 62 00
        E 0 80 6e 00
        E 0 90 62 60
        E 0 90 6e 60
        E 0 80 2e 00
        E 0 90 2f 60
        E 120 80 62 00
        E 0 80 6e 00
        E 0 90 4a 60
        E 0 90 56 60
        E 0 90 62 60
        E 0 90 6e 60
        E 0 80 2f 00
        E 0 90 2e 60
        E 120 80 4a 00
        E 0 80 56 00
        E 0 80 62 00
        E 0 80 6e 00
        E 0 90 62 60
        E 0 90 6e 60
        E 0 80 2e 00
        E 0 90 2f 60
        E 120 80 62 00
        E 0 80 6e 00
        E 0 90 3e 60
        E 0 90 4a 60
        E 0 90 56 60
        E 0 90 62 60
        E 0 90 6e 60
        E 0 80 2f 00
        E 0 90 2e 60
        E 120 80 3e 00
        E 0 80 4a 00
        E 0 80 56 00
        E 0 80 62 00
        E 0 80 6e 00
        E 0 90 62 60
        E 0 90 6e 60
        E 0 80 2e 00
        E 0 90 2f 60
        E 120 80 62 00
        E 0 80 6e 00
        E 0 90 57 60
        E 0 90 63 60
        E 0 90 6f 60
        E 0 80 2f 00
        E 0 90 30 60
        E 120 80 57 00
        E 0 80 63 00
        E 0 80 6f 00
        E 0 90 63 60
        E 0 90 6f 60
        E 0 80 30 00
        E 0 90 31 60
        E 120 80 63 00
        E 0 80 6f 00
        E 0 90 4b 60
        E 0 90 57 60
        E 0 90 63 60
        E 0 90 6f 60
        E 0 80 31 00
        E 0 90 30 60
        E 120 80 4b 00
        E 0 80 57 00
        E 0 80 63 00
        E 0 80 6f 00
        E 0 90 63 60
        E 0 90 6f 60
        E 0 80 30 00
        E 0 90 31 60
        E 120 80 63 00
        E 0 80 6f 00
        E 0 90 58 60
        E 0 90 64 60
        E 0 90 70 60
        E 0 80 31 00
        E 0 90 32 60
        E 120 80 58 00
        E 0 80 64 00
        E 0 80 70 00
        E 0 90 64 60
        E 0 90 70 60
        E 0 80 32 00
        E 0 90 33 60
        E 120 80 64 00
        E 0 80 70 00
        E 0 90 3c 60
        E 0 90 40 60
        E 0 90 48 60
        E 0 90 4c 60
        E 0 90 54 60
        E 0 90 58 60
        E 0 90 60 60
        E 0 90 64 60
        E 0 80 33 00
        E 0 90 18 60
        E 0 90 2c 60
        E 120 80 3c 00
        E 0 80 40 00
        E 0 80 48 00
        E 0 80 4c 00
        E 0 80 54 00
        E 0 80 58 00
        E 0 80 60 00
        E 0 80 64 00
        E 0 80 18 00
        E 0 80 2c 00
        E 120 90 57 60
        E 0 90 63 60
        E 0 90 2a 60
        E 120 80 57 00
        E 0 80 63 00
        E 0 80 2a 00
        E 120 90 48 60
        E 0 90 4b 60
        E 0 90 54 60
        E 0 90 57 60
        E 0 90 60 60
        E 0 90 63 60
        E 0 90 18 60
        E 0 90 2a 60
        E 120 80 48 00
        E 0 80 4b 00
        E 0 80 54 00
        E 0 80 57 00
        E 0 80 60 00
        E 0 80 63 00
        E 0 90 60 60
        E 0 80 18 00
        E 0 80 2a 00
        E 0 90 18 60
        E 120 80 60 00
        E 0 90 55 60
        E 0 90 57 60
        E 0 90 61 60
        E 0 90 63 60
        E 0 80 18 00
        E 0 90 1a 60
        E 0 90 2a 60
        E 120 80 55 00
        E 0 80 57 00
        E 0 80 61 00
        E 0 80 63 00
        E 0 80 1a 00
        E 0 80 2a 00
        E 120 90 3f 60
        E 0 90 4b 60
        E 0 90 57 60
        E 0 90 63 60
        E 0 90 2a 60
        E 120 80 3f 00
        E 0 80 4b 00
        E 0 80 57 00
        E 0 80 63 00
        E 0 80 2a 00
        E 120 90 54 60
        E 0 90 57 60
        E 0 90 60 60
        E 0 90 63 60
        E 0 90 18 60
        E 0 90 2a 60
        E 120 80 54 00
        E 0 80 57 00
        E 0 80 60 00
        E 0 80 63 00
        E 0 80 18 00
        E 0 80 2a 00
        E 120 90 3c 60
        E 0 90 3f 60
        E 0 90 48 60
        E 0 90 4b 60
        E 0 90 54 60
        E 0 90 57 60
        E 0 90 60 60
        E 0 90 63 60
        E 0 90 18 60
        E 0 90 2a 60
        E 120 80 3c 00
        E 0 80 3f 00
        E 0 80 48 00
        E 0 80 4b 00
        E 0 80 54 00
        E 0 80 57 00
        E 0 80 60 00
        E 0 80 63 00
        E 0 80 18 00
        E 0 80 2a 00
        E 120 90 57 60
        E 0 90 63 60
        E 0 90 2a 60
        E 120 80 57 00
        E 0 80 63 00
        E 0 80 2a 00
        E 120 90 3c 60
        E 0 90 3f 60
        E 0 90 48 60
        E 0 90 4b 60
        E 0 90 54 60
        E 0 90 57 60
        E 0 90 60 60
        E 0 90 63 60
        E 0 90 18 60
        E 0 90 2a 60
        E 120 80 3c 00
        E 0 80 3f 00
        E 0 80 48 00
        E 0 80 4b 00
        E 0 80 54 00
        E 0 80 57 00
        E 0 80 60 00
        E 0 80 63 00
        E 0 90 60 60
        E 0 80 18 00
        E 0 80 2a 00
        E 0 90 18 60
        E 120 80 60 00
        E 0 90 55 60
        E 0 90 57 60
        E 0 90 61 60
        E 0 90 63 60
        E 0 80 18 00
        E 0 90 1a 60
        E 0 90 2a 60
        E 120 80 55 00
        E 0 80 57 00
        E 0 80 61 00
        E 0 80 63 00
        E 0 80 1a 00
        E 0 80 2a 00
        E 120 90 4b 60
        E 0 90 57 60
        E 0 90 63 60
        E 0 90 2a 60
        E 120 80 4b 00
        E 0 80 57 00
        E 0 80 63 00
        E 0 80 2a 00
        E 120 90 54 60
        E 0 90 57 60
        E 0 90 60 60
        E 0 90 63 60
        E 0 90 18 60
        E 0 90 2a 60
        E 120 80 54 00
        E 0 80 57 00
        E 0 80 60 00
        E 0 80 63 00
        E 0 80 18 00
        E 0 80 2a 00
        E 120 90 3c 60
        E 0 90 3f 60
        E 0 90 48 60
        E 0 90 4b 60
        E 0 90 54 60
        E 0 90 57 60
        E 0 90 60 60
        E 0 90 63 60
        E 0 90 18 60
        E 0 90 2a 60
        E 120 80 3c 00
        E 0 80 3f 00
        E 0 80 48 00
        E 0 80 4b 00
        E 0 80 54 00
        E 0 80 57 00
        E 0 80 60 00
        E 0 80 63 00
        E 0 80 18 00
        E 0 80 2a 00
        E 120 90 57 60
        E 0 90 63 60
        E 0 90 2a 60
        E 120 80 57 00
        E 0 80 63 00
        E 0 80 2a 00
        E 120 90 48 60
        E 0 90 4b 60
        E 0 90 54 60
        E 0 90 57 60
        E 0 90 60 60
        E 0 90 63 60
        E 0 90 18 60
        E 0 90 2a 60
        E 120 80 48 00
        E 0 80 4b 00
        E 0 80 54 00
        E 0 80 57 00
        E 0 80 60 00
        E 0 80 63 00
        E 0 90 60 60
        E 0 80 18 00
        E 0 80 2a 00
        E 0 90 18 60
        E 120 80 60 00
        E 0 90 55 60
        E 0 90 57 60
        E 0 90 61 60
        E 0 90 63 60
        E 0 80 18 00
        E 0 90 1a 60
        E 0 90 2a 60
        E 120 80 55 00
        E 0 80 57 00
        E 0 80 61 00
        E 0 80 63 00
        E 0 80 1a 00
        E 0 80 2a 00
        E 120 90 3f 60
        E 0 90 4b 60
        E 0 90 57 60
        E 0 90 63 60
        E 0 90 2a 60
        E 120 80 3f 00
        E 0 80 4b 00
        E 0 80 57 00
        E 0 80 63 00
        E 0 80 2a 00
        E 120 90 54 60
        E 0 90 57 60
        E 0 90 60 60
        E 0 90 63 60
        E 0 90 18 60
        E 0 90 2a 60
        E 120 80 54 00
        E 0 80 57 00
        E 0 80 60 00
        E 0 80 63 00
        E 0 80 18 00
        E 0 80 2a 00
        E 120 90 3c 60
        E 0 90 3f 60
        E 0 90 48 60
        E 0 90 4b 60
        E 0 90 54 60
        E 0 90 57 60
        E 0 90 60 60
        E 0 90 63 60
        E 0 90 18 60
        E 0 90 2a 60
        E 120 80 3c 00
        E 0 80 3f 00
        E 0 80 48 00
        E 0 80 4b 00
        E 0 80 54 00
        E 0 80 57 00
        E 0 80 60 00
        E 0 80 63 00
        E 0 80 18 00
        E 0 80 2a 00
        E 120 90 55 60
        E 0 90 61 60
        E 0 90 1b 60
        E 120 80 55 00
        E 0 80 61 00
        E 0 90 61 60
        E 0 80 1b 00
        E 0 90 1a 60
        E 120 80 61 00
        E 0 90 49 60
        E 0 90 55 60
        E 0 90 61 60
        E 0 80 1a 00
        E 0 90 1b 60
        E 120 80 49 00
        E 0 80 55 00
        E 0 80 61 00
        E 0 90 61 60
        E 0 80 1b 00
        E 0 90 1a 60
        E 120 80 61 00
        E 0 90 56 60
        E 0 90 62 60
        E 0 90 6e 60
        E 0 80 1a 00
        E 0 90 2f 60
        E 120 80 56 00
        E 0 80 62 00
        E 0 80 6e 00
        E 0 90 62 60
        E 0 90 6e 60
        E 0 80 2f 00
        E 0 90 2e 60
        E 120 80 62 00
        E 0 80 6e 00
        E 0 90 4b 60
        E 0 90 57 60
        E 0 90 63 60
        E 0 90 6f 60
        E 0 80 2e 00
        E 0 90 31 60
        E 120 80 4b 00
        E 0 80 57 00
        E 0 80 63 00
        E 0 80 6f 00
        E 0 90 63 60
        E 0 90 6f 60
        E 0 80 31 00
        E 0 90 30 60
        E 120 80 63 00
        E 0 80 6f 00
        E 0 90 58 60
        E 0 90 64 60
        E 0 90 70 60
        E 0 80 30 00
        E 0 90 33 60
        E 120 80 58 00
        E 0 80 64 00
        E 0 80 70 00
        E 0 90 64 60
        E 0 90 70 60
        E 0 80 33 00
        E 0 90 32 60
        E 120 80 64 00
        E 0 80 70 00
        E 0 90 3c 60
        E 0 90 40 60
        E 0 90 48 60
        E 0 90 4c 60
        E 0 90 54 60
        E 0 90 58 60
        E 0 90 60 60
        E 0 90 64 60
        E 0 80 32 00
        E 0 90 18 60
        E 0 90 26 60
        E 120 80 3c 00
        E 0 80 40 00
        E 0 80 48 00
        E 0 80 4c 00
        E 0 80 54 00
        E 0 80 58 00
        E 0 80 60 00
        E 0 80 64 00
        E 0 80 18 00
        E 0 80 26 00
        E 120 90 57 60
        E 0 90 63 60
        E 0 90 2a 60
        E 120 80 57 00
        E 0 80 63 00
        E 0 80 2a 00
        E 120 90 48 60
        E 0 90 4b 60
        E 0 90 54 60
        E 0 90 57 60
        E 0 90 60 60
        E 0 90 63 60
        E 0 90 18 60
        E 0 90 2a 60
        E 120 80 48 00
        E 0 80 4b 00
        E 0 80 54 00
        E 0 80 57 00
        E 0 80 60 00
        E 0 80 63 00
        E 0 80 18 00
        E 0 80 2a 00
        E 120 90 57 60
        E 0 90 63 60
        E 0 90 2a 60
        E 120 80 57 00
        E 0 80 63 00
        E 0 90 60 60
        E 0 80 2a 00
        E 0 90 18 60
        E 120 80 60 00
        E 0 90 3d 60
        E 0 90 49 60
        E 0 90 4b 60
        E 0 90 55 60
        E 0 90 57 60
        E 0 90 61 60
        E 0 90 63 60
        E 0 80 18 00
        E 0 90 1a 60
        E 0 90 2a 60
        E 120 80 3d 00
        E 0 80 49 00
        E 0 80 4b 00
        E 0 80 55 00
        E 0 80 57 00
        E 0 80 61 00
        E 0 80 63 00
        E 0 80 1a 00
        E 0 80 2a 00
        E 120 90 57 60
        E 0 90 63 60
        E 0 90 2a 60
        E 120 80 57 00
        E 0 80 63 00
        E 0 80 2a 00
        E 120 90 3c 60
        E 0 90 3f 60
        E 0 90 48 60
        E 0 90 4b 60
        E 0 90 54 60
        E 0 90 57 60
        E 0 90 60 60
        E 0 90 63 60
        E 0 90 18 60
        E 0 90 2a 60
        E 120 80 3c 00
        E 0 80 3f 00
        E 0 80 48 00
        E 0 80 4b 00
        E 0 80 54 00
        E 0 80 57 00
        E 0 80 60 00
        E 0 80 63 00
        E 0 80 18 00
        E 0 80 2a 00
        E 120 90 48 60
        E 0 90 4b 60
        E 0 90 54 60
        E 0 90 57 60
        E 0 90 60 60
        E 0 90 63 60
        E 0 90 18 60
        E 0 90 2a 60
        E 120 80 48 00
        E 0 80 4b 00
        E 0 80 54 00
        E 0 80 57 00
        E 0 80 60 00
        E 0 80 63 00
        E 0 80 18 00
        E 0 80 2a 00
        E 120 90 3c 60
        E 0 90 3f 60
        E 0 90 48 60
        E 0 90 4b 60
        E 0 90 54 60
        E 0 90 57 60
        E 0 90 60 60
        E 0 90 63 60
        E 0 90 18 60
        E 0 90 2a 60
        E 120 80 3c 00
        E 0 80 3f 00
        E 0 80 48 00
        E 0 80 4b 00
        E 0 80 54 00
        E 0 80 57 00
        E 0 80 60 00
        E 0 80 63 00
        E 0 80 18 00
        E 0 80 2a 00
        E 120 90 57 60
        E 0 90 63 60
        E 0 90 2a 60
        E 120 80 57 00
        E 0 80 63 00
        E 0 90 60 60
        E 0 80 2a 00
        E 0 90 18 60
        E 120 80 60 00
        E 0 90 49 60
        E 0 90 4b 60
        E 0 90 55 60
        E 0 90 57 60
        E 0 90 61 60
        E 0 90 63 60
        E 0 80 18 00
        E 0 90 1a 60
        E 0 90 2a 60
        E 120 80 49 00
        E 0 80 4b 00
        E 0 80 55 00
        E 0 80 57 00
        E 0 80 61 00
        E 0 80 63 00
        E 0 80 1a 00
        E 0 80 2a 00
        E 120 90 57 60
        E 0 90 63 60
        E 0 90 2a 60
        E 120 80 57 00
        E 0 80 63 00
        E 0 80 2a 00
        E 120 90 3c 60
        E 0 90 3f 60
        E 0 90 48 60
        E 0 90 4b 60
        E 0 90 54 60
        E 0 90 57 60
        E 0 90 60 60
        E 0 90 63 60
        E 0 90 18 60
        E 0 90 2a 60
        E 120 80 3c 00
        E 0 80 3f 00
        E 0 80 48 00
        E 0 80 4b 00
        E 0 80 54 00
        E 0 80 57 00
        E 0 80 60 00
        E 0 80 63 00
        E 0 80 18 00
        E 0 80 2a 00
        E 120 90 48 60
        E 0 90 4b 60
        E 0 90 54 60
        E 0 90 57 60
        E 0 90 60 60
        E 0 90 63 60
        E 0 90 18 60
        E 0 90 2a 60
        E 120 80 48 00
        E 0 80 4b 00
        E 0 80 54 00
        E 0 80 57 00
        E 0 80 60 00
        E 0 80 63 00
        E 0 80 18 00
        E 0 80 2a 00
        E 120 90 48 60
        E 0 90 4b 60
        E 0 90 54 60
        E 0 90 57 60
        E 0 90 60 60
        E 0 90 63 60
        E 0 90 18 60
        E 0 90 2a 60
        E 120 80 48 00
        E 0 80 4b 00
        E 0 80 54 00
        E 0 80 57 00
        E 0 80 60 00
        E 0 80 63 00
        E 0 80 18 00
        E 0 80 2a 00
        E 120 90 57 60
        E 0 90 63 60
        E 0 90 2a 60
        E 120 80 57 00
        E 0 80 63 00
        E 0 90 60 60
        E 0 80 2a 00
        E 0 90 18 60
        E 120 80 60 00
        E 0 90 3d 60
        E 0 90 49 60
        E 0 90 4b 60
        E 0 90 55 60
        E 0 90 57 60
        E 0 90 61 60
        E 0 90 63 60
        E 0 80 18 00
        E 0 90 1a 60
        E 0 90 2a 60
        E 120 80 3d 00
        E 0 80 49 00
        E 0 80 4b 00
        E 0 80 55 00
        E 0 80 57 00
        E 0 80 61 00
        E 0 80 63 00
        E 0 80 1a 00
        E 0 80 2a 00
        E 120 90 57 60
        E 0 90 63 60
        E 0 90 2a 60
        E 120 80 57 00
        E 0 80 63 00
        E 0 80 2a 00
        E 120 90 3c 60
        E 0 90 3f 60
        E 0 90 48 60
        E 0 90 4b 60
        E 0 90 54 60
        E 0 90 57 60
        E 0 90 60 60
        E 0 90 63 60
        E 0 90 18 60
        E 0 90 2a 60
        E 120 80 3c 00
        E 0 80 3f 00
        E 0 80 48 00
        E 0 80 4b 00
        E 0 80 54 00
        E 0 80 57 00
        E 0 80 60 00
        E 0 80 63 00
        E 0 80 18 00
        E 0 80 2a 00
        E 120 90 48 60
        E 0 90 4b 60
        E 0 90 54 60
        E 0 90 57 60
        E 0 90 60 60
        E 0 90 63 60
        E 0 90 18 60
        E 0 90 2a 60
        E 120 80 48 00
        E 0 80 4b 00
        E 0 80 54 00
        E 0 80 57 00
        E 0 80 60 00
        E 0 80 63 00
        E 0 80 18 00
        E 0 80 2a 00
        E 120 90 3c 60
        E 0 90 3f 60
        E 0 90 48 60
        E 0 90 4b 60
        E 0 90 54 60
        E 0 90 57 60
        E 0 90 60 60
        E 0 90 63 60
        E 0 90 18 60
        E 0 90 2a 60
        E 120 80 3c 00
        E 0 80 3f 00
        E 0 80 48 00
        E 0 80 4b 00
        E 0 80 54 00
        E 0 80 57 00
        E 0 80 60 00
        E 0 80 63 00
        E 0 80 18 00
        E 0 80 2a 00
        E 120 90 57 60
        E 0 90 63 60
        E 0 90 2a 60
        E 120 80 57 00
        E 0 80 63 00
        E 0 90 60 60
        E 0 80 2a 00
        E 0 90 18 60
        E 120 80 60 00
        E 0 90 49 60
        E 0 90 4b 60
        E 0 90 55 60
        E 0 90 57 60
        E 0 90 61 60
        E 0 90 63 60
        E 0 80 18 00
        E 0 90 1a 60
        E 0 90 2a 60
        E 120 80 49 00
        E 0 80 4b 00
        E 0 80 55 00
        E 0 80 57 00
        E 0 80 61 00
        E 0 80 63 00
        E 0 80 1a 00
        E 0 80 2a 00
        E 120 90 57 60
        E 0 90 63 60
        E 0 90 2a 60
        E 120 80 57 00
        E 0 80 63 00
        E 0 80 2a 00
        E 120 90 3c 60
        E 0 90 40 60
        E 0 90 48 60
        E 0 90 4c 60
        E 0 90 54 60
        E 0 90 58 60
        E 0 90 60 60
        E 0 90 64 60
        E 0 90 18 60
        E 0 90 26 60
        E 120 80 3c 00
        E 0 80 40 00
        E 0 80 48 00
        E 0 80 4c 00
        E 0 80 54 00
        E 0 80 58 00
        E 0 80 60 00
        E 0 80 64 00
        E 0 80 18 00
        E 0 80 26 00
        E 120 90 55 60
        E 0 90 61 60
        E 0 90 1b 60
        E 80 80 55 00
        E 0 80 61 00
        E 0 90 61 60
        E 0 80 1b 00
        E 0 90 1a 60
        E 80 80 61 00
        E 0 90 61 60
        E 0 80 1a 00
        E 0 90 1b 60
        E 80 80 61 00
        E 0 90 49 60
        E 0 90 55 60
        E 0 90 61 60
        E 0 80 1b 00
        E 0 90 1a 60
        E 120 80 49 00
        E 0 80 55 00
        E 0 80 61 00
        E 0 90 61 60
        E 0 80 1a 00
        E 0 90 1b 60
        E 120 80 61 00
        E 0 90 56 60
        E 0 90 62 60
        E 0 90 6e 60
        E 0 80 1b 00
        E 0 90 2e 60
        E 120 80 56 00
        E 0 80 62 00
        E 0 80 6e 00
        E 0 90 61 60
        E 0 80 2e 00
        E 0 90 1b 60
        E 120 80 61 00
        E 0 90 3d 60
        E 0 90 49 60
        E 0 90 55 60
        E 0 90 61 60
        E 0 80 1b 00
        E 0 90 1a 60
        E 120 80 3d 00
        E 0 80 49 00
        E 0 80 55 00
        E 0 80 61 00
        E 0 90 61 60
        E 0 80 1a 00
        E 0 90 1b 60
        E 120 80 61 00
        E 0 90 56 60
        E 0 90 62 60
        E 0 90 6e 60
        E 0 80 1b 00
        E 0 90 2e 60
        E 120 80 56 00
        E 0 80 62 00
        E 0 80 6e 00
        E 0 90 62 60
        E 0 90 6e 60
        E 0 80 2e 00
        E 0 90 2f 60
        E 120 80 62 00
        E 0 80 6e 00
        E 0 90 4b 60
        E 0 90 57 60
        E 0 90 63 60
        E 0 90 6f 60
        E 0 80 2f 00
        E 0 90 30 60
        E 120 80 4b 00
        E 0 80 57 00
        E 0 80 63 00
        E 0 80 6f 00
        E 0 90 63 60
        E 0 90 6f 60
        E 0 80 30 00
        E 0 90 31 60
        E 120 80 63 00
        E 0 80 6f 00
        E 0 90 58 60
        E 0 90 64 60
        E 0 90 70 60
        E 0 80 31 00
        E 0 90 32 60
        E 120 80 58 00
        E 0 80 64 00
        E 0 80 70 00
        E 0 90 64 60
        E 0 90 70 60
        E 0 80 32 00
        E 0 90 33 60
        E 120 80 64 00
        E 0 80 70 00
        E 0 90 3c 60
        E 0 90 40 60
        E 0 90 48 60
        E 0 90 4c 60
        E 0 90 54 60
        E 0 90 58 60
        E 0 90 60 60
        E 0 90 64 60
        E 0 80 33 00
        E 0 90 18 60
        E 0 90 2c 60
        E 120 80 3c 00
        E 0 80 40 00
        E 0 80 48 00
        E 0 80 4c 00
        E 0 80 54 00
        E 0 80 58 00
        E 0 80 60 00
        E 0 80 64 00
        E 0 80 18 00
        E 0 80 2c 00
        E 120 90 57 60
        E 0 90 63 60
        E 0 90 2a 60
        E 120 80 57 00
        E 0 80 63 00
        E 0 80 2a 00
        E 120 90 48 60
        E 0 90 4b 60
        E 0 90 54 60
        E 0 90 57 60
        E 0 90 60 60
        E 0 90 63 60
        E 0 90 18 60
        E 0 90 2a 60
        E 120 80 48 00
        E 0 80 4b 00
        E 0 80 54 00
        E 0 80 57 00
        E 0 80 60 00
        E 0 80 63 00
        E 0 90 60 60
        E 0 80 18 00
        E 0 80 2a 00
        E 0 90 18 60
        E 120 80 60 00
        E 0 90 55 60
        E 0 90 57 60
        E 0 90 61 60
        E 0 90 63 60
        E 0 80 18 00
        E 0 90 1a 60
        E 0 90 2a 60
        E 120 80 55 00
        E 0 80 57 00
        E 0 80 61 00
        E 0 80 63 00
        E 0 80 1a 00
        E 0 80 2a 00
        E 120 90 3f 60
        E 0 90 4b 60
        E 0 90 57 60
        E 0 90 63 60
        E 0 90 2a 60
        E 120 80 3f 00
        E 0 80 4b 00
        E 0 80 57 00
        E 0 80 63 00
        E 0 80 2a 00
        E 120 90 54 60
        E 0 90 57 60
        E 0 90 60 60
        E 0 90 63 60
        E 0 90 18 60
        E 0 90 2a 60
        E 120 80 54 00
        E 0 80 57 00
        E 0 80 60 00
        E 0 80 63 00
        E 0 80 18 00
        E 0 80 2a 00
        E 120 90 3c 60
        E 0 90 3f 60
        E 0 90 48 60
        E 0 90 4b 60
        E 0 90 54 60
        E 0 90 57 60
        E 0 90 60 60
        E 0 90 63 60
        E 0 90 18 60
        E 0 90 2a 60
        E 120 80 3c 00
        E 0 80 3f 00
        E 0 80 48 00
        E 0 80 4b 00
        E 0 80 54 00
        E 0 80 57 00
        E 0 80 60 00
        E 0 80 63 00
        E 0 80 18 00
        E 0 80 2a 00
        E 120 90 57 60
        E 0 90 63 60
        E 0 90 2a 60
        E 120 80 57 00
        E 0 80 63 00
        E 0 80 2a 00
        E 120 90 3c 60
        E 0 90 3f 60
        E 0 90 48 60
        E 0 90 4b 60
        E 0 90 54 60
        E 0 90 57 60
        E 0 90 60 60
        E 0 90 63 60
        E 0 90 18 60
        E 0 90 2a 60
        E 120 80 3c 00
        E 0 80 3f 00
        E 0 80 48 00
        E 0 80 4b 00
        E 0 80 54 00
        E 0 80 57 00
        E 0 80 60 00
        E 0 80 63 00
        E 0 90 60 60
        E 0 80 18 00
        E 0 80 2a 00
        E 0 90 18 60
        E 120 80 60 00
        E 0 90 55 60
        E 0 90 57 60
        E 0 90 61 60
        E 0 90 63 60
        E 0 80 18 00
        E 0 90 1a 60
        E 0 90 2a 60
        E 120 80 55 00
        E 0 80 57 00
        E 0 80 61 00
        E 0 80 63 00
        E 0 80 1a 00
        E 0 80 2a 00
        E 120 90 4b 60
        E 0 90 57 60
        E 0 90 63 60
        E 0 90 2a 60
        E 120 80 4b 00
        E 0 80 57 00
        E 0 80 63 00
        E 0 80 2a 00
        E 120 90 54 60
        E 0 90 57 60
        E 0 90 60 60
        E 0 90 63 60
        E 0 90 18 60
        E 0 90 2a 60
        E 120 80 54 00
        E 0 80 57 00
        E 0 80 60 00
        E 0 80 63 00
        E 0 80 18 00
        E 0 80 2a 00
        E 120 90 3c 60
        E 0 90 3f 60
        E 0 90 48 60
        E 0 90 4b 60
        E 0 90 54 60
        E 0 90 57 60
        E 0 90 60 60
        E 0 90 63 60
        E 0 90 18 60
        E 0 90 2a 60
        E 120 80 3c 00
        E 0 80 3f 00
        E 0 80 48 00
        E 0 80 4b 00
        E 0 80 54 00
        E 0 80 57 00
        E 0 80 60 00
        E 0 80 63 00
        E 0 80 18 00
        E 0 80 2a 00
        E 120 90 57 60
        E 0 90 63 60
        E 0 90 2a 60
        E 120 80 57 00
        E 0 80 63 00
        E 0 80 2a 00
        E 120 90 48 60
        E 0 90 4b 60
        E 0 90 54 60
        E 0 90 57 60
        E 0 90 60 60
        E 0 90 63 60
        E 0 90 18 60
        E 0 90 2a 60
        E 120 80 48 00
        E 0 80 4b 00
        E 0 80 54 00
        E 0 80 57 00
        E 0 80 60 00
        E 0 80 63 00
        E 0 90 60 60
        E 0 80 18 00
        E 0 80 2a 00
        E 0 90 18 60
        E 120 80 60 00
        E 0 90 55 60
        E 0 90 57 60
        E 0 90 61 60
        E 0 90 63 60
        E 0 80 18 00
        E 0 90 1a 60
        E 0 90 2a 60
        E 120 80 55 00
        E 0 80 57 00
        E 0 80 61 00
        E 0 80 63 00
        E 0 80 1a 00
        E 0 80 2a 00
        E 120 90 3f 60
        E 0 90 4b 60
        E 0 90 57 60
        E 0 90 63 60
        E 0 90 2a 60
        E 120 80 3f 00
        E 0 80 4b 00
        E 0 80 57 00
        E 0 80 63 00
        E 0 80 2a 00
        E 120 90 54 60
        E 0 90 57 60
        E 0 90 60 60
        E 0 90 63 60
        E 0 90 18 60
        E 0 90 2a 60
        E 120 80 54 00
        E 0 80 57 00
        E 0 80 60 00
        E 0 80 63 00
        E 0 80 18 00
        E 0 80 2a 00
        E 120 90 3c 60
        E 0 90 3f 60
        E 0 90 48 60
        E 0 90 4b 60
        E 0 90 54 60
        E 0 90 57 60
        E 0 90 60 60
        E 0 90 63 60
        E 0 90 18 60
        E 0 90 2a 60
        E 120 80 3c 00
        E 0 80 3f 00
        E 0 80 48 00
        E 0 80 4b 00
        E 0 80 54 00
        E 0 80 57 00
        E 0 80 60 00
        E 0 80 63 00
        E 0 80 18 00
        E 0 80 2a 00
        E 120 90 57 60
        E 0 90 63 60
        E 0 90 6f 60
        E 0 90 31 60
        E 120 80 57 00
        E 0 80 63 00
        E 0 80 6f 00
        E 0 90 63 60
        E 0 90 6f 60
        E 0 80 31 00
        E 0 90 30 60
        E 120 80 63 00
        E 0 80 6f 00
        E 0 90 4b 60
        E 0 90 57 60
        E 0 90 63 60
        E 0 90 6f 60
        E 0 80 30 00
        E 0 90 31 60
        E 120 80 4b 00
        E 0 80 57 00
        E 0 80 63 00
        E 0 80 6f 00
        E 0 90 63 60
        E 0 90 6f 60
        E 0 80 31 00
        E 0 90 30 60
        E 120 80 63 00
        E 0 80 6f 00
        E 0 90 57 60
        E 0 90 63 60
        E 0 90 6f 60
        E 0 80 30 00
        E 0 90 31 60
        E 120 80 57 00
        E 0 80 63 00
        E 0 80 6f 00
        E 0 90 63 60
        E 0 90 6f 60
        E 0 80 31 00
        E 0 90 30 60
        E 120 80 63 00
        E 0 80 6f 00
        E 0 90 4c 60
        E 0 90 58 60
        E 0 90 64 60
        E 0 90 70 60
        E 0 80 30 00
        E 0 90 33 60
        E 120 80 4c 00
        E 0 80 58 00
        E 0 80 64 00
        E 0 80 70 00
        E 0 90 64 60
        E 0 90 70 60
        E 0 80 33 00
        E 0 90 32 60
        E 120 80 64 00
        E 0 80 70 00
        E 0 90 58 60
        E 0 90 64 60
        E 0 90 70 60
        E 0 80 32 00
        E 0 90 33 60
        E 120 80 58 00
        E 0 80 64 00
        E 0 80 70 00
        E 0 80 33 00
        E 120 90 3c 60
        E 0 90 40 60
        E 0 90 48 60
        E 0 90 4c 60
        E 0 90 54 60
        E 0 90 58 60
        E 0 90 60 60
        E 0 90 64 60
        E 0 90 18 60
        E 0 90 26 60
        E 120 80 3c 00
        E 0 80 40 00
        E 0 80 48 00
        E 0 80 4c 00
        E 0 80 54 00
        E 0 80 58 00
        E 0 80 60 00
        E 0 80 64 00
        E 0 80 18 00
        E 0 80 26 00
        E 120 90 57 60
        E 0 90 63 60
        E 0 90 2a 60
        E 120 80 57 00
        E 0 80 63 00
        E 0 80 2a 00
        E 120 90 48 60
        E 0 90 4b 60
        E 0 90 54 60
        E 0 90 57 60
        E 0 90 60 60
        E 0 90 63 60
        E 0 90 18 60
        E 0 90 2a 60
        E 120 80 48 00
        E 0 80 4b 00
        E 0 80 54 00
        E 0 80 57 00
        E 0 80 60 00
        E 0 80 63 00
        E 0 80 18 00
        E 0 80 2a 00
        E 120 90 57 60
        E 0 90 63 60
        E 0 90 2a 60
        E 120 80 57 00
        E 0 80 63 00
        E 0 90 60 60
        E 0 80 2a 00
        E 0 90 18 60
        E 120 80 60 00
        E 0 90 3d 60
        E 0 90 49 60
        E 0 90 4b 60
        E 0 90 55 60
        E 0 90 57 60
        E 0 90 61 60
        E 0 90 63 60
        E 0 80 18 00
        E 0 90 1a 60
        E 0 90 2a 60
        E 120 80 3d 00
        E 0 80 49 00
        E 0 80 4b 00
        E 0 80 55 00
        E 0 80 57 00
        E 0 80 61 00
        E 0 80 63 00
        E 0 80 1a 00
        E 0 80 2a 00
        E 120 90 57 60
        E 0 90 63 60
        E 0 90 2a 60
        E 120 80 57 00
        E 0 80 63 00
        E 0 80 2a 00
        E 120 90 3c 60
        E 0 90 3f 60
        E 0 90 48 60
        E 0 90 4b 60
        E 0 90 54 60
        E 0 90 57 60
        E 0 90 60 60
        E 0 90 63 60
        E 0 90 18 60
        E 0 90 2a 60
        E 120 80 3c 00
        E 0 80 3f 00
        E 0 80 48 00
        E 0 80 4b 00
        E 0 80 54 00
        E 0 80 57 00
        E 0 80 60 00
        E 0 80 63 00
        E 0 80 18 00
        E 0 80 2a 00
        E 120 90 48 60
        E 0 90 4b 60
        E 0 90 54 60
        E 0 90 57 60
        E 0 90 60 60
        E 0 90 63 60
        E 0 90 18 60
        E 0 90 2a 60
        E 120 80 48 00
        E 0 80 4b 00
        E 0 80 54 00
        E 0 80 57 00
        E 0 80 60 00
        E 0 80 63 00
        E 0 80 18 00
        E 0 80 2a 00
        E 120 90 3c 60
        E 0 90 3f 60
        E 0 90 48 60
        E 0 90 4b 60
        E 0 90 54 60
        E 0 90 57 60
        E 0 90 60 60
        E 0 90 63 60
        E 0 90 18 60
        E 0 90 2a 60
        E 120 80 3c 00
        E 0 80 3f 00
        E 0 80 48 00
        E 0 80 4b 00
        E 0 80 54 00
        E 0 80 57 00
        E 0 80 60 00
        E 0 80 63 00
        E 0 80 18 00
        E 0 80 2a 00
        E 120 90 57 60
        E 0 90 63 60
        E 0 90 2a 60
        E 120 80 57 00
        E 0 80 63 00
        E 0 90 60 60
        E 0 80 2a 00
        E 0 90 18 60
        E 120 80 60 00
        E 0 90 49 60
        E 0 90 4b 60
        E 0 90 55 60
        E 0 90 57 60
        E 0 90 61 60
        E 0 90 63 60
        E 0 80 18 00
        E 0 90 1a 60
        E 0 90 2a 60
        E 120 80 49 00
        E 0 80 4b 00
        E 0 80 55 00
        E 0 80 57 00
        E 0 80 61 00
        E 0 80 63 00
        E 0 80 1a 00
        E 0 80 2a 00
        E 120 90 57 60
        E 0 90 63 60
        E 0 90 2a 60
        E 120 80 57 00
        E 0 80 63 00
        E 0 80 2a 00
        E 120 90 3c 60
        E 0 90 3f 60
        E 0 90 48 60
        E 0 90 4b 60
        E 0 90 54 60
        E 0 90 57 60
        E 0 90 60 60
        E 0 90 63 60
        E 0 90 18 60
        E 0 90 2a 60
        E 120 80 3c 00
        E 0 80 3f 00
        E 0 80 48 00
        E 0 80 4b 00
        E 0 80 54 00
        E 0 80 57 00
        E 0 80 60 00
        E 0 80 63 00
        E 0 80 18 00
        E 0 80 2a 00
        E 120 90 48 60
        E 0 90 4b 60
        E 0 90 54 60
        E 0 90 57 60
        E 0 90 60 60
        E 0 90 63 60
        E 0 90 18 60
        E 0 90 2a 60
        E 120 80 48 00
        E 0 80 4b 00
        E 0 80 54 00
        E 0 80 57 00
        E 0 80 60 00
        E 0 80 63 00
        E 0 80 18 00
        E 0 80 2a 00
        E 120 90 48 60
        E 0 90 4b 60
        E 0 90 54 60
        E 0 90 57 60
        E 0 90 60 60
        E 0 90 63 60
        E 0 90 18 60
        E 0 90 2a 60
        E 120 80 48 00
        E 0 80 4b 00
        E 0 80 54 00
        E 0 80 57 00
        E 0 80 60 00
        E 0 80 63 00
        E 0 80 18 00
        E 0 80 2a 00
        E 120 90 57 60
        E 0 90 63 60
        E 0 90 2a 60
        E 120 80 57 00
        E 0 80 63 00
        E 0 90 60 60
        E 0 80 2a 00
        E 0 90 18 60
        E 120 80 60 00
        E 0 90 3d 60
        E 0 90 49 60
        E 0 90 4b 60
        E 0 90 55 60
        E 0 90 57 60
        E 0 90 61 60
        E 0 90 63 60
        E 0 80 18 00
        E 0 90 1a 60
        E 0 90 2a 60
        E 120 80 3d 00
        E 0 80 49 00
        E 0 80 4b 00
        E 0 80 55 00
        E 0 80 57 00
        E 0 80 61 00
        E 0 80 63 00
        E 0 80 1a 00
        E 0 80 2a 00
        E 120 90 57 60
        E 0 90 63 60
        E 0 90 2a 60
        E 120 80 57 00
        E 0 80 63 00
        E 0 80 2a 00
        E 120 90 3c 60
        E 0 90 3f 60
        E 0 90 48 60
        E 0 90 4b 60
        E 0 90 54 60
        E 0 90 57 60
        E 0 90 60 60
        E 0 90 63 60
        E 0 90 18 60
        E 0 90 2a 60
        E 120 80 3c 00
        E 0 80 3f 00
        E 0 80 48 00
        E 0 80 4b 00
        E 0 80 54 00
        E 0 80 57 00
        E 0 80 60 00
        E 0 80 63 00
        E 0 80 18 00
        E 0 80 2a 00
        E 120 90 48 60
        E 0 90 4b 60
        E 0 90 54 60
        E 0 90 57 60
        E 0 90 60 60
        E 0 90 63 60
        E 0 90 18 60
        E 0 90 2a 60
        E 120 80 48 00
        E 0 80 4b 00
        E 0 80 54 00
        E 0 80 57 00
        E 0 80 60 00
        E 0 80 63 00
        E 0 80 18 00
        E 0 80 2a 00
        E 120 90 3c 60
        E 0 90 3f 60
        E 0 90 48 60
        E 0 90 4b 60
        E 0 90 54 60
        E 0 90 57 60
        E 0 90 60 60
        E 0 90 63 60
        E 0 90 18 60
        E 0 90 2a 60
        E 120 80 3c 00
        E 0 80 3f 00
        E 0 80 48 00
        E 0 80 4b 00
        E 0 80 54 00
        E 0 80 57 00
        E 0 80 60 00
        E 0 80 63 00
        E 0 80 18 00
        E 0 80 2a 00
        E 120 90 57 60
        E 0 90 63 60
        E 0 90 2a 60
        E 120 80 57 00
        E 0 80 63 00
        E 0 90 60 60
        E 0 80 2a 00
        E 0 90 18 60
        E 120 80 60 00
        E 0 90 49 60
        E 0 90 4b 60
        E 0 90 55 60
        E 0 90 57 60
        E 0 90 61 60
        E 0 90 63 60
        E 0 80 18 00
        E 0 90 1a 60
        E 0 90 2a 60
        E 120 80 49 00
        E 0 80 4b 00
        E 0 80 55 00
        E 0 80 57 00
        E 0 80 61 00
        E 0 80 63 00
        E 0 80 1a 00
        E 0 80 2a 00
        E 120 90 57 60
        E 0 90 63 60
        E 0 90 2a 60
        E 120 80 57 00
        E 0 80 63 00
        E 0 80 2a 00
        E 120 90 3c 60
        E 0 90 40 60
        E 0 90 48 60
        E 0 90 4c 60
        E 0 90 54 60
        E 0 90 58 60
        E 0 90 60 60
        E 0 90 64 60
        E 0 90 18 60
        E 0 90 26 60
        E 120 80 3c 00
        E 0 80 40 00
        E 0 80 48 00
        E 0 80 4c 00
        E 0 80 54 00
        E 0 80 58 00
        E 0 80 60 00
        E 0 80 64 00
        E 0 80 18 00
        E 0 80 26 00
        E 120 90 56 60
        E 0 90 62 60
        E 0 90 6e 60
        E 0 90 2f 60
        E 80 80 56 00
        E 0 80 62 00
        E 0 80 6e 00
        E 0 90 62 60
        E 0 90 6e 60
        E 0 80 2f 00
        E 0 90 2e 60
        E 80 80 62 00
        E 0 80 6e 00
        E 0 90 62 60
        E 0 90 6e 60
        E 0 80 2e 00
        E 0 90 2f 60
        E 80 80 62 00
        E 0 80 6e 00
        E 0 90 4a 60
        E 0 90 56 60
        E 0 90 62 60
        E 0 90 6e 60
        E 0 80 2f 00
        E 0 90 2e 60
        E 120 80 4a 00
        E 0 80 56 00
        E 0 80 62 00
        E 0 80 6e 00
        E 0 90 62 60
        E 0 90 6e 60
        E 0 80 2e 00
        E 0 90 2f 60
        E 120 80 62 00
        E 0 80 6e 00
        E 0 90 4a 60
        E 0 90 56 60
        E 0 90 62 60
        E 0 90 6e 60
        E 0 80 2f 00
        E 0 90 2e 60
        E 120 80 4a 00
        E 0 80 56 00
        E 0 80 62 00
        E 0 80 6e 00
        E 0 90 62 60
        E 0 90 6e 60
        E 0 80 2e 00
        E 0 90 2f 60
        E 120 80 62 00
        E 0 80 6e 00
        E 0 90 3e 60
        E 0 90 4a 60
        E 0 90 56 60
        E 0 90 62 60
        E 0 90 6e 60
        E 0 80 2f 00
        E 0 90 2e 60
        E 120 80 3e 00
        E 0 80 4a 00
        E 0 80 56 00
        E 0 80 62 00
        E 0 80 6e 00
        E 0 90 62 60
        E 0 90 6e 60
        E 0 80 2e 00
        E 0 90 2f 60
        E 120 80 62 00
        E 0 80 6e 00
        E 0 90 62 60
        E 0 90 6e 60
        E 0 90 57 60
        E 0 80 2f 00
        E 0 90 2e 60
        E 120 80 62 00
        E 0 80 6e 00
        E 0 80 57 00
        E 0 90 62 60
        E 0 90 6e 60
        E 0 80 2e 00
        E 0 90 2f 60
        E 120 80 62 00
        E 0 80 6e 00
        E 0 90 63 60
        E 0 90 6f 60
        E 0 90 4c 60
        E 0 90 58 60
        E 0 80 2f 00
        E 0 90 30 60
        E 120 80 63 00
        E 0 80 6f 00
        E 0 80 4c 00
        E 0 80 58 00
        E 0 90 63 60
        E 0 90 6f 60
        E 0 80 30 00
        E 0 90 31 60
        E 120 80 63 00
        E 0 80 6f 00
        E 0 90 58 60
        E 0 90 64 60
        E 0 90 70 60
        E 0 80 31 00
        E 0 90 32 60
        E 120 80 58 00
        E 0 80 64 00
        E 0 80 70 00
        E 0 80 32 00
        E 120 90 3c 60
        E 0 90 40 60
        E 0 90 48 60
        E 0 90 4c 60
        E 0 90 54 60
        E 0 90 58 60
        E 0 90 60 60
        E 0 90 64 60
        E 0 90 18 60
        E 0 90 26 60
        E 120 80 3c 00
        E 0 80 40 00
        E 0 80 48 00
        E 0 80 4c 00
        E 0 80 54 00
        E 0 80 58 00
        E 0 80 60 00
        E 0 80 64 00
        E 0 80 18 00
        E 0 80 26 00
        E 120 90 57 60
        E 0 90 63 60
        E 0 90 2a 60
        E 120 80 57 00
        E 0 80 63 00
        E 0 80 2a 00
        E 120 90 48 60
        E 0 90 4b 60
        E 0 90 54 60
        E 0 90 57 60
        E 0 90 60 60
        E 0 90 63 60
        E 0 90 18 60
        E 0 90 2a 60
        E 120 80 48 00
        E 0 80 4b 00
        E 0 80 54 00
        E 0 80 57 00
        E 0 80 60 00
        E 0 80 63 00
        E 0 90 60 60
        E 0 80 18 00
        E 0 80 2a 00
        E 0 90 18 60
        E 120 80 60 00
        E 0 90 55 60
        E 0 90 57 60
        E 0 90 61 60
        E 0 90 63 60
        E 0 80 18 00
        E 0 90 1a 60
        E 0 90 2a 60
        E 120 80 55 00
        E 0 80 57 00
        E 0 80 61 00
        E 0 80 63 00
        E 0 80 1a 00
        E 0 80 2a 00
        E 120 90 3f 60
        E 0 90 4b 60
        E 0 90 57 60
        E 0 90 63 60
        E 0 90 2a 60
        E 120 80 3f 00
        E 0 80 4b 00
        E 0 80 57 00
        E 0 80 63 00
        E 0 80 2a 00
        E 120 90 54 60
        E 0 90 57 60
        E 0 90 60 60
        E 0 90 63 60
        E 0 90 18 60
        E 0 90 2a 60
        E 120 80 54 00
        E 0 80 57 00
        E 0 80 60 00
        E 0 80 63 00
        E 0 80 18 00
        E 0 80 2a 00
        E 120 90 3c 60
        E 0 90 3f 60
        E 0 90 48 60
        E 0 90 4b 60
        E 0 90 54 60
        E 0 90 57 60
        E 0 90 60 60
        E 0 90 63 60
        E 0 90 18 60
        E 0 90 2a 60
        E 120 80 3c 00
        E 0 80 3f 00
        E 0 80 48 00
        E 0 80 4b 00
        E 0 80 54 00
        E 0 80 57 00
        E 0 80 60 00
        E 0 80 63 00
        E 0 80 18 00
        E 0 80 2a 00
        E 120 90 57 60
        E 0 90 63 60
        E 0 90 2a 60
        E 120 80 57 00
        E 0 80 63 00
        E 0 80 2a 00
        E 120 90 3c 60
        E 0 90 3f 60
        E 0 90 48 60
        E 0 90 4b 60
        E 0 90 54 60
        E 0 90 57 60
        E 0 90 60 60
        E 0 90 63 60
        E 0 90 18 60
        E 0 90 2a 60
        E 120 80 3c 00
        E 0 80 3f 00
        E 0 80 48 00
        E 0 80 4b 00
        E 0 80 54 00
        E 0 80 57 00
        E 0 80 60 00
        E 0 80 63 00
        E 0 90 60 60
        E 0 80 18 00
        E 0 80 2a 00
        E 0 90 18 60
        E 120 80 60 00
        E 0 90 55 60
        E 0 90 57 60
        E 0 90 61 60
        E 0 90 63 60
        E 0 80 18 00
        E 0 90 1a 60
        E 0 90 2a 60
        E 120 80 55 00
        E 0 80 57 00
        E 0 80 61 00
        E 0 80 63 00
        E 0 80 1a 00
        E 0 80 2a 00
        E 120 90 4b 60
        E 0 90 57 60
        E 0 90 63 60
        E 0 90 2a 60
        E 120 80 4b 00
        E 0 80 57 00
        E 0 80 63 00
        E 0 80 2a 00
        E 120 90 54 60
        E 0 90 57 60
        E 0 90 60 60
        E 0 90 63 60
        E 0 90 18 60
        E 0 90 2a 60
        E 120 80 54 00
        E 0 80 57 00
        E 0 80 60 00
        E 0 80 63 00
        E 0 80 18 00
        E 0 80 2a 00
        E 120 90 3c 60
        E 0 90 3f 60
        E 0 90 48 60
        E 0 90 4b 60
        E 0 90 54 60
        E 0 90 57 60
        E 0 90 60 60
        E 0 90 63 60
        E 0 90 18 60
        E 0 90 2a 60
        E 120 80 3c 00
        E 0 80 3f 00
        E 0 80 48 00
        E 0 80 4b 00
        E 0 80 54 00
        E 0 80 57 00
        E 0 80 60 00
        E 0 80 63 00
        E 0 80 18 00
        E 0 80 2a 00
        E 120 90 57 60
        E 0 90 63 60
        E 0 90 2a 60
        E 120 80 57 00
        E 0 80 63 00
        E 0 80 2a 00
        E 120 90 48 60
        E 0 90 4b 60
        E 0 90 54 60
        E 0 90 57 60
        E 0 90 60 60
        E 0 90 63 60
        E 0 90 18 60
        E 0 90 2a 60
        E 120 80 48 00
        E 0 80 4b 00
        E 0 80 54 00
        E 0 80 57 00
        E 0 80 60 00
        E 0 80 63 00
        E 0 90 60 60
        E 0 80 18 00
        E 0 80 2a 00
        E 0 90 18 60
        E 120 80 60 00
        E 0 90 55 60
        E 0 90 57 60
        E 0 90 61 60
        E 0 90 63 60
        E 0 80 18 00
        E 0 90 1a 60
        E 0 90 2a 60
        E 120 80 55 00
        E 0 80 57 00
        E 0 80 61 00
        E 0 80 63 00
        E 0 80 1a 00
        E 0 80 2a 00
        E 120 90 3f 60
        E 0 90 4b 60
        E 0 90 57 60
        E 0 90 63 60
        E 0 90 2a 60
        E 120 80 3f 00
        E 0 80 4b 00
        E 0 80 57 00
        E 0 80 63 00
        E 0 80 2a 00
        E 120 90 54 60
        E 0 90 57 60
        E 0 90 60 60
        E 0 90 63 60
        E 0 90 18 60
        E 0 90 2a 60
        E 120 80 54 00
        E 0 80 57 00
        E 0 80 60 00
        E 0 80 63 00
        E 0 80 18 00
        E 0 80 2a 00
        E 120 90 3c 60
        E 0 90 3f 60
        E 0 90 48 60
        E 0 90 4b 60
        E 0 90 54 60
        E 0 90 57 60
        E 0 90 60 60
        E 0 90 63 60
        E 0 90 18 60
        E 0 90 2a 60
        E 120 80 3c 00
        E 0 80 3f 00
        E 0 80 48 00
        E 0 80 4b 00
        E 0 80 54 00
        E 0 80 57 00
        E 0 80 60 00
        E 0 80 63 00
        E 0 80 18 00
        E 0 80 2a 00
        E 120 90 55 60
        E 0 90 61 60
        E 0 90 1b 60
        E 120 80 55 00
        E 0 80 61 00
        E 0 90 61 60
        E 0 80 1b 00
        E 0 90 1a 60
        E 120 80 61 00
        E 0 90 49 60
        E 0 90 55 60
        E 0 90 61 60
        E 0 80 1a 00
        E 0 90 1b 60
        E 120 80 49 00
        E 0 80 55 00
        E 0 80 61 00
        E 0 80 1b 00
        E 120 90 49 60
        E 0 90 55 60
        E 0 90 61 60
        E 0 90 1b 60
        E 120 80 49 00
        E 0 80 55 00
        E 0 80 61 00
        E 0 90 61 60
        E 0 80 1b 00
        E 0 90 1a 60
        E 120 80 61 00
        E 0 90 49 60
        E 0 90 55 60
        E 0 90 61 60
        E 0 80 1a 00
        E 0 90 1b 60
        E 120 80 49 00
        E 0 80 55 00
        E 0 80 61 00
        E 0 90 61 60
        E 0 80 1b 00
        E 0 90 1a 60
        E 120 80 61 00
        E 0 90 55 60
        E 0 90 61 60
        E 0 80 1a 00
        E 0 90 1b 60
        E 120 80 55 00
        E 0 80 61 00
        E 0 90 61 60
        E 0 80 1b 00
        E 0 90 1a 60
        E 120 80 61 00
        E 0 90 3c 60
        E 0 90 40 60
        E 0 90 48 60
        E 0 90 4c 60
        E 0 90 54 60
        E 0 90 58 60
        E 0 90 60 60
        E 0 90 64 60
        E 0 80 1a 00
        E 0 90 18 60
        E 0 90 26 60
        E 120 80 3c 00
        E 0 80 40 00
        E 0 80 48 00
        E 0 80 4c 00
        E 0 80 54 00
        E 0 80 58 00
        E 0 80 60 00
        E 0 80 64 00
        E 0 80 18 00
        E 0 80 26 00
        E 120 90 57 60
        E 0 90 63 60
        E 0 90 2a 60
        E 120 80 57 00
        E 0 80 63 00
        E 0 80 2a 00
        E 120 90 48 60
        E 0 90 4b 60
        E 0 90 54 60
        E 0 90 57 60
        E 0 90 60 60
        E 0 90 63 60
        E 0 90 18 60
        E 0 90 2a 60
        E 120 80 48 00
        E 0 80 4b 00
        E 0 80 54 00
        E 0 80 57 00
        E 0 80 60 00
        E 0 80 63 00
        E 0 80 18 00
        E 0 80 2a 00
        E 120 90 57 60
        E 0 90 63 60
        E 0 90 2a 60
        E 120 80 57 00
        E 0 80 63 00
        E 0 90 60 60
        E 0 80 2a 00
        E 0 90 18 60
        E 120 80 60 00
        E 0 90 3d 60
        E 0 90 49 60
        E 0 90 4b 60
        E 0 90 55 60
        E 0 90 57 60
        E 0 90 61 60
        E 0 90 63 60
        E 0 80 18 00
        E 0 90 1a 60
        E 0 90 2a 60
        E 120 80 3d 00
        E 0 80 49 00
        E 0 80 4b 00
        E 0 80 55 00
        E 0 80 57 00
        E 0 80 61 00
        E 0 80 63 00
        E 0 80 1a 00
        E 0 80 2a 00
        E 120 90 57 60
        E 0 90 63 60
        E 0 90 2a 60
        E 120 80 57 00
        E 0 80 63 00
        E 0 80 2a 00
        E 120 90 3c 60
        E 0 90 3f 60
        E 0 90 48 60
        E 0 90 4b 60
        E 0 90 54 60
        E 0 90 57 60
        E 0 90 60 60
        E 0 90 63 60
        E 0 90 18 60
        E 0 90 2a 60
        E 120 80 3c 00
        E 0 80 3f 00
        E 0 80 48 00
        E 0 80 4b 00
        E 0 80 54 00
        E 0 80 57 00
        E 0 80 60 00
        E 0 80 63 00
        E 0 80 18 00
        E 0 80 2a 00
        E 120 90 48 60
        E 0 90 4b 60
        E 0 90 54 60
        E 0 90 57 60
        E 0 90 60 60
        E 0 90 63 60
        E 0 90 18 60
        E 0 90 2a 60
        E 120 80 48 00
        E 0 80 4b 00
        E 0 80 54 00
        E 0 80 57 00
        E 0 80 60 00
        E 0 80 63 00
        E 0 80 18 00
        E 0 80 2a 00
        E 120 90 3c 60
        E 0 90 3f 60
        E 0 90 48 60
        E 0 90 4b 60
        E 0 90 54 60
        E 0 90 57 60
        E 0 90 60 60
        E 0 90 63 60
        E 0 90 18 60
        E 0 90 2a 60
        E 120 80 3c 00
        E 0 80 3f 00
        E 0 80 48 00
        E 0 80 4b 00
        E 0 80 54 00
        E 0 80 57 00
        E 0 80 60 00
        E 0 80 63 00
        E 0 80 18 00
        E 0 80 2a 00
        E 120 90 57 60
        E 0 90 63 60
        E 0 90 2a 60
        E 120 80 57 00
        E 0 80 63 00
        E 0 90 60 60
        E 0 80 2a 00
        E 0 90 18 60
        E 120 80 60 00
        E 0 90 49 60
        E 0 90 4b 60
        E 0 90 55 60
        E 0 90 57 60
        E 0 90 61 60
        E 0 90 63 60
        E 0 80 18 00
        E 0 90 1a 60
        E 0 90 2a 60
        E 120 80 49 00
        E 0 80 4b 00
        E 0 80 55 00
        E 0 80 57 00
        E 0 80 61 00
        E 0 80 63 00
        E 0 80 1a 00
        E 0 80 2a 00
        E 120 90 57 60
        E 0 90 63 60
        E 0 90 2a 60
        E 120 80 57 00
        E 0 80 63 00
        E 0 80 2a 00
        E 120 90 3c 60
        E 0 90 3f 60
        E 0 90 48 60
        E 0 90 4b 60
        E 0 90 54 60
        E 0 90 57 60
        E 0 90 60 60
        E 0 90 63 60
        E 0 90 18 60
        E 0 90 2a 60
        E 120 80 3c 00
        E 0 80 3f 00
        E 0 80 48 00
        E 0 80 4b 00
        E 0 80 54 00
        E 0 80 57 00
        E 0 80 60 00
        E 0 80 63 00
        E 0 80 18 00
        E 0 80 2a 00
        E 120 90 48 60
        E 0 90 4b 60
        E 0 90 54 60
        E 0 90 57 60
        E 0 90 60 60
        E 0 90 63 60
        E 0 90 18 60
        E 0 90 2a 60
        E 120 80 48 00
        E 0 80 4b 00
        E 0 80 54 00
        E 0 80 57 00
        E 0 80 60 00
        E 0 80 63 00
        E 0 80 18 00
        E 0 80 2a 00
        E 120 90 48 60
        E 0 90 4b 60
        E 0 90 54 60
        E 0 90 57 60
        E 0 90 60 60
        E 0 90 63 60
        E 0 90 18 60
        E 0 90 2a 60
        E 120 80 48 00
        E 0 80 4b 00
        E 0 80 54 00
        E 0 80 57 00
        E 0 80 60 00
        E 0 80 63 00
        E 0 80 18 00
        E 0 80 2a 00
        E 120 90 57 60
        E 0 90 63 60
        E 0 90 2a 60
        E 120 80 57 00
        E 0 80 63 00
        E 0 90 60 60
        E 0 80 2a 00
        E 0 90 18 60
        E 120 80 60 00
        E 0 90 3d 60
        E 0 90 49 60
        E 0 90 4b 60
        E 0 90 55 60
        E 0 90 57 60
        E 0 90 61 60
        E 0 90 63 60
        E 0 80 18 00
        E 0 90 1a 60
        E 0 90 2a 60
        E 120 80 3d 00
        E 0 80 49 00
        E 0 80 4b 00
        E 0 80 55 00
        E 0 80 57 00
        E 0 80 61 00
        E 0 80 63 00
        E 0 80 1a 00
        E 0 80 2a 00
        E 120 90 57 60
        E 0 90 63 60
        E 0 90 2a 60
        E 120 80 57 00
        E 0 80 63 00
        E 0 80 2a 00
        E 120 90 3c 60
        E 0 90 3f 60
        E 0 90 48 60
        E 0 90 4b 60
        E 0 90 54 60
        E 0 90 57 60
        E 0 90 60 60
        E 0 90 63 60
        E 0 90 18 60
        E 0 90 2a 60
        E 120 80 3c 00
        E 0 80 3f 00
        E 0 80 48 00
        E 0 80 4b 00
        E 0 80 54 00
        E 0 80 57 00
        E 0 80 60 00
        E 0 80 63 00
        E 0 80 18 00
        E 0 80 2a 00
        E 120 90 48 60
        E 0 90 4b 60
        E 0 90 54 60
        E 0 90 57 60
        E 0 90 60 60
        E 0 90 63 60
        E 0 90 18 60
        E 0 90 2a 60
        E 120 80 48 00
        E 0 80 4b 00
        E 0 80 54 00
        E 0 80 57 00
        E 0 80 60 00
        E 0 80 63 00
        E 0 80 18 00
        E 0 80 2a 00
        E 120 90 3c 60
        E 0 90 3f 60
        E 0 90 48 60
        E 0 90 4b 60
        E 0 90 54 60
        E 0 90 57 60
        E 0 90 60 60
        E 0 90 63 60
        E 0 90 18 60
        E 0 90 2a 60
        E 120 80 3c 00
        E 0 80 3f 00
        E 0 80 48 00
        E 0 80 4b 00
        E 0 80 54 00
        E 0 80 57 00
        E 0 80 60 00
        E 0 80 63 00
        E 0 80 18 00
        E 0 80 2a 00
        E 120 90 57 60
        E 0 90 63 60
        E 0 90 2a 60
        E 120 80 57 00
        E 0 80 63 00
        E 0 90 60 60
        E 0 80 2a 00
        E 0 90 18 60
        E 120 80 60 00
        E 0 90 49 60
        E 0 90 4b 60
        E 0 90 55 60
        E 0 90 57 60
        E 0 90 61 60
        E 0 90 63 60
        E 0 80 18 00
        E 0 90 1a 60
        E 0 90 2a 60
        E 120 80 49 00
        E 0 80 4b 00
        E 0 80 55 00
        E 0 80 57 00
        E 0 80 61 00
        E 0 80 63 00
        E 0 80 1a 00
        E 0 80 2a 00
        E 120 90 57 60
        E 0 90 63 60
        E 0 90 2a 60
        E 120 80 57 00
        E 0 80 63 00
        E 0 80 2a 00
        E 120 90 3c 60
        E 0 90 40 60
        E 0 90 48 60
        E 0 90 4c 60
        E 0 90 54 60
        E 0 90 58 60
        E 0 90 60 60
        E 0 90 64 60
        E 0 90 18 60
        E 0 90 26 60
        E 120 80 3c 00
        E 0 80 40 00
        E 0 80 48 00
        E 0 80 4c 00
        E 0 80 54 00
        E 0 80 58 00
        E 0 80 60 00
        E 0 80 64 00
        E 0 80 18 00
        E 0 80 26 00
        E 120 90 56 60
        E 0 90 62 60
        E 0 90 6e 60
        E 0 90 2f 60
        E 80 80 56 00
        E 0 80 62 00
        E 0 80 6e 00
        E 0 90 62 60
        E 0 90 6e 60
        E 0 80 2f 00
        E 0 90 2e 60
        E 80 80 62 00
        E 0 80 6e 00
        E 0 90 62 60
        E 0 90 6e 60
        E 0 80 2e 00
        E 0 90 2f 60
        E 80 80 62 00
        E 0 80 6e 00
        E 0 90 4a 60
        E 0 90 56 60
        E 0 90 62 60
        E 0 90 6e 60
        E 0 80 2f 00
        E 0 90 2e 60
        E 120 80 4a 00
        E 0 80 56 00
        E 0 80 62 00
        E 0 80 6e 00
        E 0 90 62 60
        E 0 90 6e 60
        E 0 80 2e 00
        E 0 90 2f 60
        E 120 80 62 00
        E 0 80 6e 00
        E 0 90 4a 60
        E 0 90 56 60
        E 0 90 62 60
        E 0 90 6e 60
        E 0 80 2f 00
        E 0 90 2e 60
        E 120 80 4a 00
        E 0 80 56 00
        E 0 80 62 00
        E 0 80 6e 00
        E 0 90 62 60
        E 0 90 6e 60
        E 0 80 2e 00
        E 0 90 2f 60
        E 120 80 62 00
        E 0 80 6e 00
        E 0 90 3e 60
        E 0 90 4a 60
        E 0 90 56 60
        E 0 90 62 60
        E 0 90 6e 60
        E 0 80 2f 00
        E 0 90 2e 60
        E 120 80 3e 00
        E 0 80 4a 00
        E 0 80 56 00
        E 0 80 62 00
        E 0 80 6e 00
        E 0 90 62 60
        E 0 90 6e 60
        E 0 80 2e 00
        E 0 90 2f 60
        E 120 80 62 00
        E 0 80 6e 00
        E 0 90 56 60
        E 0 90 62 60
        E 0 90 6e 60
        E 0 80 2f 00
        E 0 90 2e 60
        E 120 80 56 00
        E 0 80 62 00
        E 0 80 6e 00
        E 0 90 62 60
        E 0 90 6e 60
        E 0 80 2e 00
        E 0 90 2f 60
        E 120 80 62 00
        E 0 80 6e 00
        E 0 90 4b 60
        E 0 90 57 60
        E 0 90 63 60
        E 0 90 6f 60
        E 0 80 2f 00
        E 0 90 30 60
        E 120 80 4b 00
        E 0 80 57 00
        E 0 80 63 00
        E 0 80 6f 00
        E 0 90 63 60
        E 0 90 6f 60
        E 0 80 30 00
        E 0 90 31 60
        E 120 80 63 00
        E 0 80 6f 00
        E 0 90 58 60
        E 0 90 64 60
        E 0 90 70 60
        E 0 80 31 00
        E 0 90 32 60
        E 120 80 58 00
        E 0 80 64 00
        E 0 80 70 00
        E 0 90 64 60
        E 0 90 70 60
        E 0 80 32 00
        E 0 90 33 60
        E 120 80 64 00
        E 0 80 70 00
        E 0 90 3c 60
        E 0 90 40 60
        E 0 90 48 60
        E 0 90 4c 60
        E 0 90 54 60
        E 0 90 58 60
        E 0 90 60 60
        E 0 90 64 60
        E 0 80 33 00
        E 0 90 18 60
        E 0 90 2c 60
        E 120 80 3c 00
        E 0 80 40 00
        E 0 80 48 00
        E 0 80 4c 00
        E 0 80 54 00
        E 0 80 58 00
        E 0 80 60 00
        E 0 80 64 00
        E 0 80 18 00
        E 0 80 2c 00
        E 120 90 57 60
        E 0 90 63 60
        E 0 90 2a 60
        E 120 80 57 00
        E 0 80 63 00
        E 0 80 2a 00
        E 120 90 48 60
        E 0 90 4b 60
        E 0 90 54 60
        E 0 90 57 60
        E 0 90 60 60
        E 0 90 63 60
        E 0 90 18 60
        E 0 90 2a 60
        E 120 80 48 00
        E 0 80 4b 00
        E 0 80 54 00
        E 0 80 57 00
        E 0 80 60 00
        E 0 80 63 00
        E 0 90 60 60
        E 0 80 18 00
        E 0 80 2a 00
        E 0 90 18 60
        E 120 80 60 00
        E 0 90 55 60
        E 0 90 57 60
        E 0 90 61 60
        E 0 90 63 60
        E 0 80 18 00
        E 0 90 1a 60
        E 0 90 2a 60
        E 120 80 55 00
        E 0 80 57 00
        E 0 80 61 00
        E 0 80 63 00
        E 0 80 1a 00
        E 0 80 2a 00
        E 120 90 3f 60
        E 0 90 4b 60
        E 0 90 57 60
        E 0 90 63 60
        E 0 90 2a 60
        E 120 80 3f 00
        E 0 80 4b 00
        E 0 80 57 00
        E 0 80 63 00
        E 0 80 2a 00
        E 120 90 54 60
        E 0 90 57 60
        E 0 90 60 60
        E 0 90 63 60
        E 0 90 18 60
        E 0 90 2a 60
        E 120 80 54 00
        E 0 80 57 00
        E 0 80 60 00
        E 0 80 63 00
        E 0 80 18 00
        E 0 80 2a 00
        E 120 90 48 60
        E 0 90 4b 60
        E 0 90 54 60
        E 0 90 57 60
        E 0 90 60 60
        E 0 90 63 60
        E 0 90 18 60
        E 0 90 2a 60
        E 120 80 48 00
        E 0 80 4b 00
        E 0 80 54 00
        E 0 80 57 00
        E 0 80 60 00
        E 0 80 63 00
        E 0 80 18 00
        E 0 80 2a 00
        E 120 90 57 60
        E 0 90 63 60
        E 0 90 2a 60
        E 120 80 57 00
        E 0 80 63 00
        E 0 80 2a 00
        E 120 90 3c 60
        E 0 90 3f 60
        E 0 90 48 60
        E 0 90 4b 60
        E 0 90 54 60
        E 0 90 57 60
        E 0 90 60 60
        E 0 90 63 60
        E 0 90 18 60
        E 0 90 2a 60
        E 120 80 3c 00
        E 0 80 3f 00
        E 0 80 48 00
        E 0 80 4b 00
        E 0 80 54 00
        E 0 80 57 00
        E 0 80 60 00
        E 0 80 63 00
        E 0 90 60 60
        E 0 80 18 00
        E 0 80 2a 00
        E 0 90 18 60
        E 120 80 60 00
        E 0 90 55 60
        E 0 90 57 60
        E 0 90 61 60
        E 0 90 63 60
        E 0 80 18 00
        E 0 90 1a 60
        E 0 90 2a 60
        E 120 80 55 00
        E 0 80 57 00
        E 0 80 61 00
        E 0 80 63 00
        E 0 80 1a 00
        E 0 80 2a 00
        E 120 90 4b 60
        E 0 90 57 60
        E 0 90 63 60
        E 0 90 2a 60
        E 120 80 4b 00
        E 0 80 57 00
        E 0 80 63 00
        E 0 80 2a 00
        E 120 90 54 60
        E 0 90 57 60
        E 0 90 60 60
        E 0 90 63 60
        E 0 90 18 60
        E 0 90 2a 60
        E 120 80 54 00
        E 0 80 57 00
        E 0 80 60 00
        E 0 80 63 00
        E 0 80 18 00
        E 0 80 2a 00
        E 120 90 3c 60
        E 0 90 3f 60
        E 0 90 48 60
        E 0 90 4b 60
        E 0 90 54 60
        E 0 90 57 60
        E 0 90 60 60
        E 0 90 63 60
        E 0 90 18 60
        E 0 90 2a 60
        E 120 80 3c 00
        E 0 80 3f 00
        E 0 80 48 00
        E 0 80 4b 00
        E 0 80 54 00
        E 0 80 57 00
        E 0 80 60 00
        E 0 80 63 00
        E 0 80 18 00
        E 0 80 2a 00
        E 120 90 55 60
        E 0 90 61 60
        E 0 90 1b 60
        E 120 80 55 00
        E 0 80 61 00
        E 0 90 61 60
        E 0 80 1b 00
        E 0 90 1a 60
        E 120 80 61 00
        E 0 90 49 60
        E 0 90 55 60
        E 0 90 61 60
        E 0 80 1a 00
        E 0 90 1b 60
        E 120 80 49 00
        E 0 80 55 00
        E 0 80 61 00
        E 0 80 1b 00
        E 120 90 55 60
        E 0 90 61 60
        E 0 90 1b 60
        E 120 80 55 00
        E 0 80 61 00
        E 0 90 61 60
        E 0 80 1b 00
        E 0 90 1a 60
        E 120 80 61 00
        E 0 90 3c 60
        E 0 90 40 60
        E 0 90 48 60
        E 0 90 4c 60
        E 0 90 54 60
        E 0 90 58 60
        E 0 90 60 60
        E 0 90 64 60
        E 0 80 1a 00
        E 0 90 18 60
        E 0 90 26 60
        E 120 80 3c 00
        E 0 80 40 00
        E 0 80 48 00
        E 0 80 4c 00
        E 0 80 54 00
        E 0 80 58 00
        E 0 80 60 00
        E 0 80 64 00
        E 0 80 18 00
        E 0 80 26 00
        E 120 90 57 60
        E 0 90 63 60
        E 0 90 2a 60
        E 120 80 57 00
        E 0 80 63 00
        E 0 80 2a 00
        E 120 90 48 60
        E 0 90 4b 60
        E 0 90 54 60
        E 0 90 57 60
        E 0 90 60 60
        E 0 90 63 60
        E 0 90 18 60
        E 0 90 2a 60
        E 120 80 48 00
        E 0 80 4b 00
        E 0 80 54 00
        E 0 80 57 00
        E 0 80 60 00
        E 0 80 63 00
        E 0 80 18 00
        E 0 80 2a 00
        E 120 90 57 60
        E 0 90 63 60
        E 0 90 2a 60
        E 120 80 57 00
        E 0 80 63 00
        E 0 90 60 60
        E 0 80 2a 00
        E 0 90 18 60
        E 120 80 60 00
        E 0 90 3d 60
        E 0 90 49 60
        E 0 90 4b 60
        E 0 90 55 60
        E 0 90 57 60
        E 0 90 61 60
        E 0 90 63 60
        E 0 80 18 00
        E 0 90 1a 60
        E 0 90 2a 60
        E 120 80 3d 00
        E 0 80 49 00
        E 0 80 4b 00
        E 0 80 55 00
        E 0 80 57 00
        E 0 80 61 00
        E 0 80 63 00
        E 0 80 1a 00
        E 0 80 2a 00
        E 120 90 57 60
        E 0 90 63 60
        E 0 90 2a 60
        E 120 80 57 00
        E 0 80 63 00
        E 0 80 2a 00
        E 120 90 48 60
        E 0 90 4b 60
        E 0 90 54 60
        E 0 90 57 60
        E 0 90 60 60
        E 0 90 63 60
        E 0 90 18 60
        E 0 90 2a 60
        E 120 80 48 00
        E 0 80 4b 00
        E 0 80 54 00
        E 0 80 57 00
        E 0 80 60 00
        E 0 80 63 00
        E 0 80 18 00
        E 0 80 2a 00
        E 120 90 54 60
        E 0 90 57 60
        E 0 90 60 60
        E 0 90 63 60
        E 0 90 18 60
        E 0 90 2a 60
        E 120 80 54 00
        E 0 80 57 00
        E 0 80 60 00
        E 0 80 63 00
        E 0 80 18 00
        E 0 80 2a 00
        E 120 90 3f 60
        E 0 90 4b 60
        E 0 90 57 60
        E 0 90 63 60
        E 0 90 2a 60
        E 120 80 3f 00
        E 0 80 4b 00
        E 0 80 57 00
        E 0 80 63 00
        E 0 80 2a 00
        E 120 90 54 60
        E 0 90 57 60
        E 0 90 60 60
        E 0 90 63 60
        E 0 90 18 60
        E 0 90 2a 60
        E 120 80 54 00
        E 0 80 57 00
        E 0 80 60 00
        E 0 80 63 00
        E 0 80 18 00
        E 0 80 2a 00
        E 120 90 48 60
        E 0 90 4b 60
        E 0 90 54 60
        E 0 90 57 60
        E 0 90 60 60
        E 0 90 63 60
        E 0 90 18 60
        E 0 90 2a 60
        E 80 80 48 00
        E 0 80 4b 00
        E 0 80 54 00
        E 0 80 57 00
        E 0 80 60 00
        E 0 80 63 00
        E 0 80 18 00
        E 0 80 2a 00
        E 80 90 62 60
        E 0 90 6e 60
        E 0 90 2e 60
        E 80 80 62 00
        E 0 80 6e 00
        E 0 80 2e 00
        E 80 90 62 60
        E 0 90 6e 60
        E 0 90 2f 60
        E 80 80 62 00
        E 0 80 6e 00
        E 0 80 2f 00
        E 80 90 3f 60
        E 0 90 4b 60
        E 0 90 57 60
        E 0 90 63 60
        E 0 90 6f 60
        E 0 90 30 60
        E 80 80 3f 00
        E 0 80 4b 00
        E 0 80 57 00
        E 0 80 63 00
        E 0 80 6f 00
        E 0 80 30 00
        E 80 90 63 60
        E 0 90 6f 60
        E 0 90 31 60
        E 80 80 63 00
        E 0 80 6f 00
        E 0 80 31 00
        E 80 90 63 60
        E 0 90 6f 60
        E 0 90 30 60
        E 80 80 63 00
        E 0 80 6f 00
        E 0 80 30 00
        E 80 90 4c 60
        E 0 90 58 60
        E 0 90 64 60
        E 0 90 70 60
        E 0 90 33 60
        E 80 80 4c 00
        E 0 80 58 00
        E 0 80 64 00
        E 0 80 70 00
        E 0 80 33 00
        E 80 90 64 60
        E 0 90 70 60
        E 0 90 32 60
        E 80 80 64 00
        E 0 80 70 00
        E 0 80 32 00
        E 80 90 64 60
        E 0 90 70 60
        E 0 90 33 60
        E 80 80 64 00
        E 0 80 70 00
        E 0 80 33 00
        E 80 90 3c 60
        E 0 90 40 60
        E 0 90 48 60
        E 0 90 4c 60
        E 0 90 54 60
        E 0 90 58 60
        E 0 90 60 60
        E 0 90 64 60
        E 0 90 18 60
        E 0 90 2c 60
        E 120 80 3c 00
        E 0 80 40 00
        E 0 80 48 00
        E 0 80 4c 00
        E 0 80 54 00
        E 0 80 58 00
        E 0 80 60 00
        E 0 80 64 00
        E 0 80 18 00
        E 0 80 2c 00
        E 120 90 57 60
        E 0 90 63 60
        E 0 90 2a 60
        E 120 80 57 00
        E 0 80 63 00
        E 0 80 2a 00
        E 120 90 48 60
        E 0 90 4b 60
        E 0 90 54 60
        E 0 90 57 60
        E 0 90 60 60
        E 0 90 63 60
        E 0 90 18 60
        E 0 90 2a 60
        E 120 80 48 00
        E 0 80 4b 00
        E 0 80 54 00
        E 0 80 57 00
        E 0 80 60 00
        E 0 80 63 00
        E 0 80 18 00
        E 0 80 2a 00
        E 120 90 55 60
        E 0 90 57 60
        E 0 90 61 60
        E 0 90 63 60
        E 0 90 1a 60
        E 0 90 2a 60
        E 120 80 55 00
        E 0 80 57 00
        E 0 80 61 00
        E 0 80 63 00
        E 0 80 1a 00
        E 0 80 2a 00
        E 120 90 3f 60
        E 0 90 4b 60
        E 0 90 57 60
        E 0 90 63 60
        E 0 90 2a 60
        E 120 80 3f 00
        E 0 80 4b 00
        E 0 80 57 00
        E 0 80 63 00
        E 0 80 2a 00
        E 120 90 54 60
        E 0 90 57 60
        E 0 90 60 60
        E 0 90 63 60
        E 0 90 18 60
        E 0 90 2a 60
        E 120 80 54 00
        E 0 80 57 00
        E 0 80 60 00
        E 0 80 63 00
        E 0 80 18 00
        E 0 80 2a 00
        E 120 90 48 60
        E 0 90 4b 60
        E 0 90 54 60
        E 0 90 57 60
        E 0 90 60 60
        E 0 90 63 60
        E 0 90 18 60
        E 0 90 2a 60
        E 120 80 48 00
        E 0 80 4b 00
        E 0 80 54 00
        E 0 80 57 00
        E 0 80 60 00
        E 0 80 63 00
        E 0 80 18 00
        E 0 80 2a 00
        E 120 90 57 60
        E 0 90 63 60
        E 0 90 2a 60
        E 120 80 57 00
        E 0 80 63 00
        E 0 80 2a 00
        E 120 90 3c 60
        E 0 90 3f 60
        E 0 90 48 60
        E 0 90 4b 60
        E 0 90 54 60
        E 0 90 57 60
        E 0 90 60 60
        E 0 90 63 60
        E 0 90 18 60
        E 0 90 2a 60
        E 120 80 3c 00
        E 0 80 3f 00
        E 0 80 48 00
        E 0 80 4b 00
        E 0 80 54 00
        E 0 80 57 00
        E 0 80 60 00
        E 0 80 63 00
        E 0 90 60 60
        E 0 80 18 00
        E 0 80 2a 00
        E 0 90 18 60
        E 120 80 60 00
        E 0 90 55 60
        E 0 90 57 60
        E 0 90 61 60
        E 0 90 63 60
        E 0 80 18 00
        E 0 90 1a 60
        E 0 90 2a 60
        E 120 80 55 00
        E 0 80 57 00
        E 0 80 61 00
        E 0 80 63 00
        E 0 80 1a 00
        E 0 80 2a 00
        E 120 90 4b 60
        E 0 90 57 60
        E 0 90 63 60
        E 0 90 2a 60
        E 120 80 4b 00
        E 0 80 57 00
        E 0 80 63 00
        E 0 80 2a 00
        E 120 90 54 60
        E 0 90 57 60
        E 0 90 60 60
        E 0 90 63 60
        E 0 90 18 60
        E 0 90 2a 60
        E 120 80 54 00
        E 0 80 57 00
        E 0 80 60 00
        E 0 80 63 00
        E 0 80 18 00
        E 0 80 2a 00
        E 120 90 3c 60
        E 0 90 3f 60
        E 0 90 48 60
        E 0 90 4b 60
        E 0 90 54 60
        E 0 90 57 60
        E 0 90 60 60
        E 0 90 63 60
        E 0 90 18 60
        E 0 90 2a 60
        E 120 80 3c 00
        E 0 80 3f 00
        E 0 80 48 00
        E 0 80 4b 00
        E 0 80 54 00
        E 0 80 57 00
        E 0 80 60 00
        E 0 80 63 00
        E 0 80 18 00
        E 0 80 2a 00
        E 120 90 55 60
        E 0 90 61 60
        E 0 90 1b 60
        E 120 80 55 00
        E 0 80 61 00
        E 0 90 61 60
        E 0 80 1b 00
        E 0 90 1a 60
        E 120 80 61 00
        E 0 90 49 60
        E 0 90 55 60
        E 0 90 61 60
        E 0 80 1a 00
        E 0 90 1b 60
        E 60 80 61 00
        E 0 90 61 60
        E 0 80 1b 00
        E 0 90 1a 60
        E 60 80 49 00
        E 0 80 55 00
        E 0 80 61 00
        E 0 90 61 60
        E 0 80 1a 00
        E 0 90 1b 60
        E 60 80 61 00
        E 0 80 1b 00
        E 60 90 55 60
        E 0 90 61 60
        E 0 90 1a 60
        E 60 80 61 00
        E 0 90 61 60
        E 0 80 1a 00
        E 0 90 1b 60
        E 20 80 55 00
        E 40 80 61 00
        E 0 90 61 60
        E 0 80 1b 00
        E 0 90 1a 60
        E 60 80 61 00
        E 0 80 1a 00
        E 60 90 3c 60
        E 0 90 40 60
        E 0 90 48 60
        E 0 90 4c 60
        E 0 90 54 60
        E 0 90 58 60
        E 0 90 60 60
        E 0 90 64 60
        E 0 90 18 60
        E 0 90 26 60
        E 120 80 3c 00
        E 0 80 40 00
        E 0 80 48 00
        E 0 80 4c 00
        E 0 80 54 00
        E 0 80 58 00
        E 0 80 60 00
        E 0 80 64 00
        E 0 80 18 00
        E 0 80 26 00
        E 120 90 57 60
        E 0 90 63 60
        E 0 90 2a 60
        E 120 80 57 00
        E 0 80 63 00
        E 0 80 2a 00
        E 120 90 48 60
        E 0 90 4b 60
        E 0 90 54 60
        E 0 90 57 60
        E 0 90 60 60
        E 0 90 63 60
        E 0 90 18 60
        E 0 90 2a 60
        E 120 80 48 00
        E 0 80 4b 00
        E 0 80 54 00
        E 0 80 57 00
        E 0 80 60 00
        E 0 80 63 00
        E 0 80 18 00
        E 0 80 2a 00
        E 120 90 57 60
        E 0 90 63 60
        E 0 90 2a 60
        E 120 80 57 00
        E 0 80 63 00
        E 0 90 60 60
        E 0 80 2a 00
        E 0 90 18 60
        E 120 80 60 00
        E 0 90 3d 60
        E 0 90 49 60
        E 0 90 4b 60
        E 0 90 55 60
        E 0 90 57 60
        E 0 90 61 60
        E 0 90 63 60
        E 0 80 18 00
        E 0 90 1a 60
        E 0 90 2a 60
        E 120 80 3d 00
        E 0 80 49 00
        E 0 80 4b 00
        E 0 80 55 00
        E 0 80 57 00
        E 0 80 61 00
        E 0 80 63 00
        E 0 80 1a 00
        E 0 80 2a 00
        E 120 90 57 60
        E 0 90 63 60
        E 0 90 2a 60
        E 120 80 57 00
        E 0 80 63 00
        E 0 80 2a 00
        E 120 90 48 60
        E 0 90 4b 60
        E 0 90 54 60
        E 0 90 57 60
        E 0 90 60 60
        E 0 90 63 60
        E 0 90 18 60
        E 0 90 2a 60
        E 120 80 48 00
        E 0 80 4b 00
        E 0 80 54 00
        E 0 80 57 00
        E 0 80 60 00
        E 0 80 63 00
        E 0 80 18 00
        E 0 80 2a 00
        E 120 90 54 60
        E 0 90 57 60
        E 0 90 60 60
        E 0 90 63 60
        E 0 90 18 60
        E 0 90 2a 60
        E 120 80 54 00
        E 0 80 57 00
        E 0 80 60 00
        E 0 80 63 00
        E 0 80 18 00
        E 0 80 2a 00
        E 120 90 3f 60
        E 0 90 4b 60
        E 0 90 57 60
        E 0 90 63 60
        E 0 90 2a 60
        E 120 80 3f 00
        E 0 80 4b 00
        E 0 80 57 00
        E 0 80 63 00
        E 0 80 2a 00
        E 120 90 54 60
        E 0 90 57 60
        E 0 90 60 60
        E 0 90 63 60
        E 0 90 18 60
        E 0 90 2a 60
        E 120 80 54 00
        E 0 80 57 00
        E 0 80 60 00
        E 0 80 63 00
        E 0 80 18 00
        E 0 80 2a 00
        E 120 90 48 60
        E 0 90 4b 60
        E 0 90 54 60
        E 0 90 57 60
        E 0 90 60 60
        E 0 90 63 60
        E 0 90 18 60
        E 0 90 2a 60
        E 120 80 48 00
        E 0 80 4b 00
        E 0 80 54 00
        E 0 80 57 00
        E 0 80 60 00
        E 0 80 63 00
        E 0 80 18 00
        E 0 80 2a 00
        E 120 90 55 60
        E 0 90 61 60
        E 0 90 1b 60
        E 120 80 55 00
        E 0 80 61 00
        E 0 90 61 60
        E 0 80 1b 00
        E 0 90 1a 60
        E 120 80 61 00
        E 0 90 3d 60
        E 0 90 49 60
        E 0 90 55 60
        E 0 90 61 60
        E 0 80 1a 00
        E 0 90 1b 60
        E 120 80 3d 00
        E 0 80 49 00
        E 0 80 55 00
        E 0 80 61 00
        E 0 90 61 60
        E 0 80 1b 00
        E 0 90 1a 60
        E 120 80 61 00
        E 0 90 55 60
        E 0 90 61 60
        E 0 80 1a 00
        E 0 90 1b 60
        E 120 80 55 00
        E 0 80 61 00
        E 0 90 61 60
        E 0 80 1b 00
        E 0 90 1a 60
        E 120 80 61 00
        E 0 90 4a 60
        E 0 90 56 60
        E 0 90 62 60
        E 0 90 6e 60
        E 0 80 1a 00
        E 0 90 2f 60
        E 120 80 4a 00
        E 0 80 56 00
        E 0 80 62 00
        E 0 80 6e 00
        E 0 90 62 60
        E 0 90 6e 60
        E 0 80 2f 00
        E 0 90 2e 60
        E 120 80 62 00
        E 0 80 6e 00
        E 0 90 57 60
        E 0 90 63 60
        E 0 90 6f 60
        E 0 80 2e 00
        E 0 90 31 60
        E 120 80 57 00
        E 0 80 63 00
        E 0 80 6f 00
        E 0 90 60 60
        E 0 80 31 00
        E 0 90 18 60
        E 120 80 60 00
        E 0 90 3c 60
        E 0 90 3e 60
        E 0 90 40 60
        E 0 90 48 60
        E 0 90 4a 60
        E 0 90 4c 60
        E 0 90 54 60
        E 0 90 56 60
        E 0 90 58 60
        E 0 90 60 60
        E 0 90 62 60
        E 0 90 64 60
        E 0 80 18 00
        E 0 90 18 60
        E 0 90 26 60
        E 0 90 22 60
        E 120 80 3c 00
        E 0 80 3e 00
        E 0 80 40 00
        E 0 80 48 00
        E 0 80 4a 00
        E 0 80 4c 00
        E 0 80 54 00
        E 0 80 56 00
        E 0 80 58 00
        E 0 80 60 00
        E 0 80 62 00
        E 0 80 64 00
        E 0 80 18 00
        E 0 80 26 00
        E 0 80 22 00
        E 2760 90 3c 60
        E 0 90 3e 60
        E 0 90 40 60
        E 0 90 48 60
        E 0 90 4a 60
        E 0 90 4c 60
        E 0 90 54 60
        E 0 90 56 60
        E 0 90 58 60
        E 0 90 60 60
        E 0 90 62 60
        E 0 90 64 60
        E 0 90 18 60
        E 0 90 26 60
        E 0 90 22 60
        E 120 80 3c 00
        E 0 80 3e 00
        E 0 80 40 00
        E 0 80 48 00
        E 0 80 4a 00
        E 0 80 4c 00
        E 0 80 54 00
        E 0 80 56 00
        E 0 80 58 00
        E 0 80 60 00
        E 0 80 62 00
        E 0 80 64 00
        E 0 80 18 00
        E 0 80 26 00
        E 0 80 22 00
        E 120 90 57 60
        E 0 90 63 60
        E 0 90 2a 60
        E 120 80 57 00
        E 0 80 63 00
        E 0 80 2a 00
        E 120 90 4b 60
        E 0 90 57 60
        E 0 90 63 60
        E 0 90 2a 60
        E 120 80 4b 00
        E 0 80 57 00
        E 0 80 63 00
        E 0 80 2a 00
        E 120 90 54 60
        E 0 90 57 60
        E 0 90 60 60
        E 0 90 63 60
        E 0 90 18 60
        E 0 90 2a 60
        E 120 80 54 00
        E 0 80 57 00
        E 0 80 60 00
        E 0 80 63 00
        E 0 80 18 00
        E 0 80 2a 00
        E 120 90 3d 60
        E 0 90 49 60
        E 0 90 4b 60
        E 0 90 55 60
        E 0 90 57 60
        E 0 90 61 60
        E 0 90 63 60
        E 0 90 1a 60
        E 0 90 2a 60
        E 120 80 3d 00
        E 0 80 49 00
        E 0 80 4b 00
        E 0 80 55 00
        E 0 80 57 00
        E 0 80 61 00
        E 0 80 63 00
        E 0 90 63 60
        E 0 80 1a 00
        E 0 80 2a 00
        E 0 90 2a 60
        E 120 80 63 00
        E 0 90 57 60
        E 0 90 63 60
        E 0 80 2a 00
        E 0 90 2a 60
        E 120 80 57 00
        E 0 80 63 00
        E 0 80 2a 00
        E 120 90 4b 60
        E 0 90 57 60
        E 0 90 63 60
        E 0 90 2a 60
        E 120 80 4b 00
        E 0 80 57 00
        E 0 80 63 00
        E 0 80 2a 00
        E 120 90 54 60
        E 0 90 57 60
        E 0 90 60 60
        E 0 90 63 60
        E 0 90 18 60
        E 0 90 2a 60
        E 120 80 54 00
        E 0 80 57 00
        E 0 80 60 00
        E 0 80 63 00
        E 0 80 18 00
        E 0 80 2a 00
        E 120 90 3f 60
        E 0 90 4b 60
        E 0 90 57 60
        E 0 90 63 60
        E 0 90 2a 60
        E 120 80 3f 00
        E 0 80 4b 00
        E 0 80 57 00
        E 0 80 63 00
        E 0 80 2a 00
        E 120 90 54 60
        E 0 90 57 60
        E 0 90 60 60
        E 0 90 63 60
        E 0 90 18 60
        E 0 90 2a 60
        E 120 80 54 00
        E 0 80 57 00
        E 0 80 60 00
        E 0 80 63 00
        E 0 80 18 00
        E 0 80 2a 00
        E 120 90 48 60
        E 0 90 4b 60
        E 0 90 54 60
        E 0 90 57 60
        E 0 90 60 60
        E 0 90 63 60
        E 0 90 18 60
        E 0 90 2a 60
        E 120 80 48 00
        E 0 80 4b 00
        E 0 80 54 00
        E 0 80 57 00
        E 0 80 60 00
        E 0 80 63 00
        E 0 90 63 60
        E 0 80 18 00
        E 0 80 2a 00
        E 0 90 2a 60
        E 120 80 63 00
        E 0 90 57 60
        E 0 90 63 60
        E 0 80 2a 00
        E 0 90 2a 60
        E 120 80 57 00
        E 0 80 63 00
        E 0 80 2a 00
        E 120 90 3f 60
        E 0 90 4b 60
        E 0 90 57 60
        E 0 90 63 60
        E 0 90 2a 60
        E 120 80 3f 00
        E 0 80 4b 00
        E 0 80 57 00
        E 0 80 63 00
        E 0 80 2a 00
        E 120 90 54 60
        E 0 90 57 60
        E 0 90 60 60
        E 0 90 63 60
        E 0 90 18 60
        E 0 90 2a 60
        E 120 80 54 00
        E 0 80 57 00
        E 0 80 60 00
        E 0 80 63 00
        E 0 80 18 00
        E 0 80 2a 00
        E 120 90 49 60
        E 0 90 4b 60
        E 0 90 55 60
        E 0 90 57 60
        E 0 90 61 60
        E 0 90 63 60
        E 0 90 1a 60
        E 0 90 2a 60
        E 120 80 49 00
        E 0 80 4b 00
        E 0 80 55 00
        E 0 80 57 00
        E 0 80 61 00
        E 0 80 63 00
        E 0 80 1a 00
        E 0 80 2a 00
        E 120 90 54 60
        E 0 90 57 60
        E 0 90 60 60
        E 0 90 63 60
        E 0 90 18 60
        E 0 90 2a 60
        E 120 80 54 00
        E 0 80 57 00
        E 0 80 60 00
        E 0 80 63 00
        E 0 80 18 00
        E 0 80 2a 00
        E 120 90 3c 60
        E 0 90 40 60
        E 0 90 48 60
        E 0 90 4c 60
        E 0 90 54 60
        E 0 90 58 60
        E 0 90 60 60
        E 0 90 64 60
        E 0 90 18 60
        E 0 90 26 60
        E 120 80 3c 00
        E 0 80 40 00
        E 0 80 48 00
        E 0 80 4c 00
        E 0 80 54 00
        E 0 80 58 00
        E 0 80 60 00
        E 0 80 64 00
        E 0 80 18 00
        E 0 80 26 00
        E 120 90 57 60
        E 0 90 63 60
        E 0 90 2a 60
        E 120 80 57 00
        E 0 80 63 00
        E 0 80 2a 00
        E 120 90 4b 60
        E 0 90 57 60
        E 0 90 63 60
        E 0 90 2a 60
        E 120 80 4b 00
        E 0 80 57 00
        E 0 80 63 00
        E 0 80 2a 00
        E 120 90 54 60
        E 0 90 57 60
        E 0 90 60 60
        E 0 90 63 60
        E 0 90 18 60
        E 0 90 2a 60
        E 120 80 54 00
        E 0 80 57 00
        E 0 80 60 00
        E 0 80 63 00
        E 0 80 18 00
        E 0 80 2a 00
        E 120 90 3d 60
        E 0 90 49 60
        E 0 90 4b 60
        E 0 90 55 60
        E 0 90 57 60
        E 0 90 61 60
        E 0 90 63 60
        E 0 90 1a 60
        E 0 90 2a 60
        E 120 80 3d 00
        E 0 80 49 00
        E 0 80 4b 00
        E 0 80 55 00
        E 0 80 57 00
        E 0 80 61 00
        E 0 80 63 00
        E 0 80 1a 00
        E 0 80 2a 00
        E 120 90 54 60
        E 0 90 57 60
        E 0 90 60 60
        E 0 90 63 60
        E 0 90 18 60
        E 0 90 2a 60
        E 120 80 54 00
        E 0 80 57 00
        E 0 80 60 00
        E 0 80 63 00
        E 0 80 18 00
        E 0 80 2a 00
        E 120 90 48 60
        E 0 90 4b 60
        E 0 90 54 60
        E 0 90 57 60
        E 0 90 60 60
        E 0 90 63 60
        E 0 90 18 60
        E 0 90 2a 60
        E 120 80 48 00
        E 0 80 4b 00
        E 0 80 54 00
        E 0 80 57 00
        E 0 80 60 00
        E 0 80 63 00
        E 0 80 18 00
        E 0 80 2a 00
        E 120 90 57 60
        E 0 90 63 60
        E 0 90 2a 60
        E 120 80 57 00
        E 0 80 63 00
        E 0 80 2a 00
        E 120 90 3c 60
        E 0 90 40 60
        E 0 90 48 60
        E 0 90 4c 60
        E 0 90 54 60
        E 0 90 58 60
        E 0 90 60 60
        E 0 90 64 60
        E 0 90 18 60
        E 0 90 26 60
        E 120 80 3c 00
        E 0 80 40 00
        E 0 80 48 00
        E 0 80 4c 00
        E 0 80 54 00
        E 0 80 58 00
        E 0 80 60 00
        E 0 80 64 00
        E 0 80 18 00
        E 0 80 26 00
        E 120 90 57 60
        E 0 90 63 60
        E 0 90 2a 60
        E 120 80 57 00
        E 0 80 63 00
        E 0 90 63 60
        E 0 80 2a 00
        E 0 90 2a 60
        E 120 80 63 00
        E 0 90 4b 60
        E 0 90 57 60
        E 0 90 63 60
        E 0 80 2a 00
        E 0 90 2a 60
        E 120 80 4b 00
        E 0 80 57 00
        E 0 80 63 00
        E 0 80 2a 00
        E 120 90 54 60
        E 0 90 57 60
        E 0 90 60 60
        E 0 90 63 60
        E 0 90 18 60
        E 0 90 2a 60
        E 120 80 54 00
        E 0 80 57 00
        E 0 80 60 00
        E 0 80 63 00
        E 0 80 18 00
        E 0 80 2a 00
        E 120 90 3d 60
        E 0 90 49 60
        E 0 90 4b 60
        E 0 90 55 60
        E 0 90 57 60
        E 0 90 61 60
        E 0 90 63 60
        E 0 90 1a 60
        E 0 90 2a 60
        E 120 80 3d 00
        E 0 80 49 00
        E 0 80 4b 00
        E 0 80 55 00
        E 0 80 57 00
        E 0 80 61 00
        E 0 80 63 00
        E 0 80 1a 00
        E 0 80 2a 00
        E 120 90 57 60
        E 0 90 63 60
        E 0 90 2a 60
        E 120 80 57 00
        E 0 80 63 00
        E 0 90 63 60
        E 0 80 2a 00
        E 0 90 2a 60
        E 120 80 63 00
        E 0 90 4b 60
        E 0 90 57 60
        E 0 90 63 60
        E 0 80 2a 00
        E 0 90 2a 60
        E 120 80 4b 00
        E 0 80 57 00
        E 0 80 63 00
        E 0 80 2a 00
        E 120 90 54 60
        E 0 90 57 60
        E 0 90 60 60
        E 0 90 63 60
        E 0 90 18 60
        E 0 90 2a 60
        E 120 80 54 00
        E 0 80 57 00
        E 0 80 60 00
        E 0 80 63 00
        E 0 80 18 00
        E 0 80 2a 00
        E 120 90 3f 60
        E 0 90 4b 60
        E 0 90 57 60
        E 0 90 63 60
        E 0 90 2a 60
        E 120 80 3f 00
        E 0 80 4b 00
        E 0 80 57 00
        E 0 80 63 00
        E 0 80 2a 00
        E 120 90 54 60
        E 0 90 57 60
        E 0 90 60 60
        E 0 90 63 60
        E 0 90 18 60
        E 0 90 2a 60
        E 120 80 54 00
        E 0 80 57 00
        E 0 80 60 00
        E 0 80 63 00
        E 0 80 18 00
        E 0 80 2a 00
        E 120 90 48 60
        E 0 90 4b 60
        E 0 90 54 60
        E 0 90 57 60
        E 0 90 60 60
        E 0 90 63 60
        E 0 90 18 60
        E 0 90 2a 60
        E 120 80 48 00
        E 0 80 4b 00
        E 0 80 54 00
        E 0 80 57 00
        E 0 80 60 00
        E 0 80 63 00
        E 0 90 63 60
        E 0 80 18 00
        E 0 80 2a 00
        E 0 90 2a 60
        E 120 80 63 00
        E 0 90 57 60
        E 0 90 63 60
        E 0 80 2a 00
        E 0 90 2a 60
        E 120 80 57 00
        E 0 80 63 00
        E 0 80 2a 00
        E 120 90 3f 60
        E 0 90 4b 60
        E 0 90 57 60
        E 0 90 63 60
        E 0 90 2a 60
        E 120 80 3f 00
        E 0 80 4b 00
        E 0 80 57 00
        E 0 80 63 00
        E 0 80 2a 00
        E 120 90 54 60
        E 0 90 57 60
        E 0 90 60 60
        E 0 90 63 60
        E 0 90 18 60
        E 0 90 2a 60
        E 120 80 54 00
        E 0 80 57 00
        E 0 80 60 00
        E 0 80 63 00
        E 0 80 18 00
        E 0 80 2a 00
        E 120 90 49 60
        E 0 90 4b 60
        E 0 90 55 60
        E 0 90 57 60
        E 0 90 61 60
        E 0 90 63 60
        E 0 90 1a 60
        E 0 90 2a 60
        E 120 80 49 00
        E 0 80 4b 00
        E 0 80 55 00
        E 0 80 57 00
        E 0 80 61 00
        E 0 80 63 00
        E 0 80 1a 00
        E 0 80 2a 00
        E 120 90 54 60
        E 0 90 57 60
        E 0 90 60 60
        E 0 90 63 60
        E 0 90 18 60
        E 0 90 2a 60
        E 120 80 54 00
        E 0 80 57 00
        E 0 80 60 00
        E 0 80 63 00
        E 0 80 18 00
        E 0 80 2a 00
        E 120 90 3c 60
        E 0 90 3f 60
        E 0 90 48 60
        E 0 90 4b 60
        E 0 90 54 60
        E 0 90 57 60
        E 0 90 60 60
        E 0 90 63 60
        E 0 90 18 60
        E 0 90 2a 60
        E 120 80 3c 00
        E 0 80 3f 00
        E 0 80 48 00
        E 0 80 4b 00
        E 0 80 54 00
        E 0 80 57 00
        E 0 80 60 00
        E 0 80 63 00
        E 0 80 18 00
        E 0 80 2a 00
        E 120 90 57 60
        E 0 90 63 60
        E 0 90 2a 60
        E 120 80 57 00
        E 0 80 63 00
        E 0 80 2a 00
        E 120 90 4b 60
        E 0 90 57 60
        E 0 90 63 60
        E 0 90 2a 60
        E 120 80 4b 00
        E 0 80 57 00
        E 0 80 63 00
        E 0 80 2a 00
        E 120 90 54 60
        E 0 90 57 60
        E 0 90 60 60
        E 0 90 63 60
        E 0 90 18 60
        E 0 90 2a 60
        E 120 80 54 00
        E 0 80 57 00
        E 0 80 60 00
        E 0 80 63 00
        E 0 80 18 00
        E 0 80 2a 00
        E 120 90 3d 60
        E 0 90 49 60
        E 0 90 4b 60
        E 0 90 55 60
        E 0 90 57 60
        E 0 90 61 60
        E 0 90 63 60
        E 0 90 1a 60
        E 0 90 2a 60
        E 120 80 3d 00
        E 0 80 49 00
        E 0 80 4b 00
        E 0 80 55 00
        E 0 80 57 00
        E 0 80 61 00
        E 0 80 63 00
        E 0 80 1a 00
        E 0 80 2a 00
        E 120 90 54 60
        E 0 90 57 60
        E 0 90 60 60
        E 0 90 63 60
        E 0 90 18 60
        E 0 90 2a 60
        E 120 80 54 00
        E 0 80 57 00
        E 0 80 60 00
        E 0 80 63 00
        E 0 80 18 00
        E 0 80 2a 00
        E 120 90 48 60
        E 0 90 4b 60
        E 0 90 54 60
        E 0 90 57 60
        E 0 90 60 60
        E 0 90 63 60
        E 0 90 18 60
        E 0 90 2a 60
        E 120 80 48 00
        E 0 80 4b 00
        E 0 80 54 00
        E 0 80 57 00
        E 0 80 60 00
        E 0 80 63 00
        E 0 80 18 00
        E 0 80 2a 00
        E 120 90 57 60
        E 0 90 63 60
        E 0 90 2a 60
        E 120 80 57 00
        E 0 80 63 00
        E 0 80 2a 00
        E 120 90 3c 60
        E 0 90 40 60
        E 0 90 48 60
        E 0 90 4c 60
        E 0 90 54 60
        E 0 90 58 60
        E 0 90 60 60
        E 0 90 64 60
        E 0 90 18 60
        E 0 90 26 60
        E 120 80 3c 00
        E 0 80 40 00
        E 0 80 48 00
        E 0 80 4c 00
        E 0 80 54 00
        E 0 80 58 00
        E 0 80 60 00
        E 0 80 64 00
        E 0 80 18 00
        E 0 80 26 00
        E 120 90 55 60
        E 0 90 61 60
        E 0 90 1b 60
        E 120 80 55 00
        E 0 80 61 00
        E 0 90 61 60
        E 0 80 1b 00
        E 0 90 1a 60
        E 120 80 61 00
        E 0 90 48 60
        E 0 90 49 60
        E 0 90 54 60
        E 0 90 55 60
        E 0 90 60 60
        E 0 90 61 60
        E 0 80 1a 00
        E 0 90 18 60
        E 0 90 1b 60
        E 120 80 48 00
        E 0 80 49 00
        E 0 80 54 00
        E 0 80 55 00
        E 0 80 60 00
        E 0 80 61 00
        E 0 90 61 60
        E 0 80 18 00
        E 0 80 1b 00
        E 0 90 1a 60
        E 120 80 61 00
        E 0 90 55 60
        E 0 90 61 60
        E 0 80 1a 00
        E 0 90 1b 60
        E 120 80 55 00
        E 0 80 61 00
        E 0 90 61 60
        E 0 80 1b 00
        E 0 90 1a 60
        E 120 80 61 00
        E 0 90 3d 60
        E 0 90 48 60
        E 0 90 49 60
        E 0 90 54 60
        E 0 90 55 60
        E 0 90 60 60
        E 0 90 61 60
        E 0 80 1a 00
        E 0 90 18 60
        E 0 90 1b 60
        E 120 80 3d 00
        E 0 80 48 00
        E 0 80 49 00
        E 0 80 54 00
        E 0 80 55 00
        E 0 80 60 00
        E 0 80 61 00
        E 0 90 61 60
        E 0 80 18 00
        E 0 80 1b 00
        E 0 90 1a 60
        E 120 80 61 00
        E 0 90 55 60
        E 0 90 61 60
        E 0 80 1a 00
        E 0 90 1b 60
        E 120 80 55 00
        E 0 80 61 00
        E 0 90 61 60
        E 0 80 1b 00
        E 0 90 1a 60
        E 120 80 61 00
        E 0 90 3d 60
        E 0 90 48 60
        E 0 90 49 60
        E 0 90 54 60
        E 0 90 55 60
        E 0 90 60 60
        E 0 90 61 60
        E 0 80 1a 00
        E 0 90 18 60
        E 0 90 1b 60
        E 120 80 3d 00
        E 0 80 48 00
        E 0 80 49 00
        E 0 80 54 00
        E 0 80 55 00
        E 0 80 60 00
        E 0 80 61 00
        E 0 90 61 60
        E 0 80 18 00
        E 0 80 1b 00
        E 0 90 1a 60
        E 120 80 61 00
        E 0 90 55 60
        E 0 90 61 60
        E 0 80 1a 00
        E 0 90 1b 60
        E 120 80 55 00
        E 0 80 61 00
        E 0 90 61 60
        E 0 80 1b 00
        E 0 90 1a 60
        E 120 80 61 00
        E 0 90 3d 60
        E 0 90 48 60
        E 0 90 49 60
        E 0 90 54 60
        E 0 90 55 60
        E 0 90 60 60
        E 0 90 61 60
        E 0 80 1a 00
        E 0 90 18 60
        E 0 90 1b 60
        E 120 80 3d 00
        E 0 80 48 00
        E 0 80 49 00
        E 0 80 54 00
        E 0 80 55 00
        E 0 80 60 00
        E 0 80 61 00
        E 0 90 61 60
        E 0 80 18 00
        E 0 80 1b 00
        E 0 90 1a 60
        E 120 80 61 00
        E 0 90 55 60
        E 0 90 61 60
        E 0 80 1a 00
        E 0 90 1b 60
        E 120 80 55 00
        E 0 80 61 00
        E 0 90 61 60
        E 0 80 1b 00
        E 0 90 1a 60
        E 120 80 61 00
        E 0 90 3d 60
        E 0 90 48 60
        E 0 90 49 60
        E 0 90 54 60
        E 0 90 55 60
        E 0 90 60 60
        E 0 90 61 60
        E 0 80 1a 00
        E 0 90 18 60
        E 0 90 1b 60
        E 120 80 3d 00
        E 0 80 48 00
        E 0 80 49 00
        E 0 80 54 00
        E 0 80 55 00
        E 0 80 60 00
        E 0 80 61 00
        E 0 90 61 60
        E 0 80 18 00
        E 0 80 1b 00
        E 0 90 1a 60
        E 120 80 61 00
        E 0 90 55 60
        E 0 90 61 60
        E 0 80 1a 00
        E 0 90 1b 60
        E 80 80 55 00
        E 0 80 61 00
        E 0 90 61 60
        E 0 80 1b 00
        E 0 90 1a 60
        E 80 80 61 00
        E 0 90 61 60
        E 0 80 1a 00
        E 0 90 1b 60
        E 80 80 61 00
        E 0 90 3d 60
        E 0 90 48 60
        E 0 90 49 60
        E 0 90 54 60
        E 0 90 55 60
        E 0 90 60 60
        E 0 90 61 60
        E 0 80 1b 00
        E 0 90 18 60
        E 0 90 1a 60
        E 120 80 3d 00
        E 0 80 48 00
        E 0 80 49 00
        E 0 80 54 00
        E 0 80 55 00
        E 0 80 60 00
        E 0 80 61 00
        E 0 90 61 60
        E 0 80 18 00
        E 0 80 1a 00
        E 0 90 1b 60
        E 120 80 61 00
        E 0 90 55 60
        E 0 90 61 60
        E 0 80 1b 00
        E 0 90 1a 60
        E 120 80 55 00
        E 0 80 61 00
        E 0 90 61 60
        E 0 80 1a 00
        E 0 90 1b 60
        E 120 80 61 00
        E 0 90 3d 60
        E 0 90 48 60
        E 0 90 49 60
        E 0 90 54 60
        E 0 90 55 60
        E 0 90 60 60
        E 0 90 61 60
        E 0 80 1b 00
        E 0 90 18 60
        E 0 90 1a 60
        E 120 80 3d 00
        E 0 80 48 00
        E 0 80 49 00
        E 0 80 54 00
        E 0 80 55 00
        E 0 80 60 00
        E 0 80 61 00
        E 0 90 61 60
        E 0 80 18 00
        E 0 80 1a 00
        E 0 90 1b 60
        E 120 80 61 00
        E 0 90 55 60
        E 0 90 61 60
        E 0 80 1b 00
        E 0 90 1a 60
        E 120 80 55 00
        E 0 80 61 00
        E 0 90 61 60
        E 0 80 1a 00
        E 0 90 1b 60
        E 120 80 61 00
        E 0 90 3d 60
        E 0 90 48 60
        E 0 90 49 60
        E 0 90 54 60
        E 0 90 55 60
        E 0 90 60 60
        E 0 90 61 60
        E 0 80 1b 00
        E 0 90 18 60
        E 0 90 1a 60
        E 120 80 3d 00
        E 0 80 48 00
        E 0 80 49 00
        E 0 80 54 00
        E 0 80 55 00
        E 0 80 60 00
        E 0 80 61 00
        E 0 90 61 60
        E 0 80 18 00
        E 0 80 1a 00
        E 0 90 1b 60
        E 120 80 61 00
        E 0 90 55 60
        E 0 90 61 60
        E 0 80 1b 00
        E 0 90 1a 60
        E 120 80 55 00
        E 0 80 61 00
        E 0 90 61 60
        E 0 80 1a 00
        E 0 90 1b 60
        E 120 80 61 00
        E 0 90 3d 60
        E 0 90 48 60
        E 0 90 49 60
        E 0 90 54 60
        E 0 90 55 60
        E 0 90 60 60
        E 0 90 61 60
        E 0 80 1b 00
        E 0 90 18 60
        E 0 90 1a 60
        E 120 80 3d 00
        E 0 80 48 00
        E 0 80 49 00
        E 0 80 54 00
        E 0 80 55 00
        E 0 80 60 00
        E 0 80 61 00
        E 0 90 61 60
        E 0 80 18 00
        E 0 80 1a 00
        E 0 90 1b 60
        E 120 80 61 00
        E 0 90 55 60
        E 0 90 61 60
        E 0 80 1b 00
        E 0 90 1a 60
        E 120 80 55 00
        E 0 80 61 00
        E 0 90 61 60
        E 0 80 1a 00
        E 0 90 1b 60
        E 120 80 61 00
        E 0 90 3d 60
        E 0 90 48 60
        E 0 90 49 60
        E 0 90 54 60
        E 0 90 55 60
        E 0 90 60 60
        E 0 90 61 60
        E 0 80 1b 00
        E 0 90 18 60
        E 0 90 1a 60
        E 120 80 3d 00
        E 0 80 48 00
        E 0 80 49 00
        E 0 80 54 00
        E 0 80 55 00
        E 0 80 60 00
        E 0 80 61 00
        E 0 90 61 60
        E 0 80 18 00
        E 0 80 1a 00
        E 0 90 1b 60
        E 120 80 61 00
        E 0 90 55 60
        E 0 90 61 60
        E 0 80 1b 00
        E 0 90 1a 60
        E 120 80 55 00
        E 0 80 61 00
        E 0 90 61 60
        E 0 80 1a 00
        E 0 90 1b 60
        E 120 80 61 00
        E 0 90 3d 60
        E 0 90 48 60
        E 0 90 49 60
        E 0 90 54 60
        E 0 90 55 60
        E 0 90 60 60
        E 0 90 61 60
        E 0 80 1b 00
        E 0 90 18 60
        E 0 90 1a 60
        E 120 80 3d 00
        E 0 80 48 00
        E 0 80 49 00
        E 0 80 54 00
        E 0 80 55 00
        E 0 80 60 00
        E 0 80 61 00
        E 0 90 61 60
        E 0 80 18 00
        E 0 80 1a 00
        E 0 90 1b 60
        E 120 80 61 00
        E 0 90 55 60
        E 0 90 61 60
        E 0 80 1b 00
        E 0 90 1a 60
        E 120 80 55 00
        E 0 80 61 00
        E 0 90 61 60
        E 0 80 1a 00
        E 0 90 1b 60
        E 120 80 61 00
        E 0 90 3d 60
        E 0 90 48 60
        E 0 90 49 60
        E 0 90 54 60
        E 0 90 55 60
        E 0 90 60 60
        E 0 90 61 60
        E 0 80 1b 00
        E 0 90 18 60
        E 0 90 1a 60
        E 120 80 3d 00
        E 0 80 48 00
        E 0 80 49 00
        E 0 80 54 00
        E 0 80 55 00
        E 0 80 60 00
        E 0 80 61 00
        E 0 90 61 60
        E 0 80 18 00
        E 0 80 1a 00
        E 0 90 1b 60
        E 120 80 61 00
        E 0 90 55 60
        E 0 90 61 60
        E 0 80 1b 00
        E 0 90 1a 60
        E 120 80 55 00
        E 0 80 61 00
        E 0 90 61 60
        E 0 80 1a 00
        E 0 90 1b 60
        E 120 80 61 00
        E 0 90 3d 60
        E 0 90 48 60
        E 0 90 49 60
        E 0 90 54 60
        E 0 90 55 60
        E 0 90 60 60
        E 0 90 61 60
        E 0 80 1b 00
        E 0 90 18 60
        E 0 90 1a 60
        E 120 80 3d 00
        E 0 80 48 00
        E 0 80 49 00
        E 0 80 54 00
        E 0 80 55 00
        E 0 80 60 00
        E 0 80 61 00
        E 0 90 61 60
        E 0 80 18 00
        E 0 80 1a 00
        E 0 90 1b 60
        E 120 80 61 00
        E 0 90 55 60
        E 0 90 61 60
        E 0 80 1b 00
        E 0 90 1a 60
        E 80 80 55 00
        E 0 80 61 00
        E 0 90 61 60
        E 0 80 1a 00
        E 0 90 1b 60
        E 80 80 61 00
        E 0 90 61 60
        E 0 80 1b 00
        E 0 90 1a 60
        E 80 80 61 00
        E 0 90 3d 60
        E 0 90 48 60
        E 0 90 49 60
        E 0 90 54 60
        E 0 90 55 60
        E 0 90 60 60
        E 0 90 61 60
        E 0 80 1a 00
        E 0 90 18 60
        E 0 90 1b 60
        E 120 80 3d 00
        E 0 80 48 00
        E 0 80 49 00
        E 0 80 54 00
        E 0 80 55 00
        E 0 80 60 00
        E 0 80 61 00
        E 0 90 61 60
        E 0 80 18 00
        E 0 80 1b 00
        E 0 90 1a 60
        E 120 80 61 00
        E 0 90 55 60
        E 0 90 61 60
        E 0 80 1a 00
        E 0 90 1b 60
        E 120 80 55 00
        E 0 80 61 00
        E 0 90 61 60
        E 0 80 1b 00
        E 0 90 1a 60
        E 120 80 61 00
        E 0 90 3d 60
        E 0 90 48 60
        E 0 90 49 60
        E 0 90 54 60
        E 0 90 55 60
        E 0 90 60 60
        E 0 90 61 60
        E 0 80 1a 00
        E 0 90 18 60
        E 0 90 1b 60
        E 120 80 3d 00
        E 0 80 48 00
        E 0 80 49 00
        E 0 80 54 00
        E 0 80 55 00
        E 0 80 60 00
        E 0 80 61 00
        E 0 90 61 60
        E 0 80 18 00
        E 0 80 1b 00
        E 0 90 1a 60
        E 120 80 61 00
        E 0 90 55 60
        E 0 90 61 60
        E 0 80 1a 00
        E 0 90 1b 60
        E 120 80 55 00
        E 0 80 61 00
        E 0 90 61 60
        E 0 80 1b 00
        E 0 90 1a 60
        E 120 80 61 00
        E 0 90 3d 60
        E 0 90 48 60
        E 0 90 49 60
        E 0 90 54 60
        E 0 90 55 60
        E 0 90 60 60
        E 0 90 61 60
        E 0 80 1a 00
        E 0 90 18 60
        E 0 90 1b 60
        E 120 80 3d 00
        E 0 80 48 00
        E 0 80 49 00
        E 0 80 54 00
        E 0 80 55 00
        E 0 80 60 00
        E 0 80 61 00
        E 0 90 61 60
        E 0 80 18 00
        E 0 80 1b 00
        E 0 90 1a 60
        E 120 80 61 00
        E 0 90 55 60
        E 0 90 61 60
        E 0 80 1a 00
        E 0 90 1b 60
        E 120 80 55 00
        E 0 80 61 00
        E 0 90 61 60
        E 0 80 1b 00
        E 0 90 1a 60
        E 120 80 61 00
        E 0 90 3d 60
        E 0 90 48 60
        E 0 90 49 60
        E 0 90 54 60
        E 0 90 55 60
        E 0 90 60 60
        E 0 90 61 60
        E 0 80 1a 00
        E 0 90 18 60
        E 0 90 1b 60
        E 120 80 3d 00
        E 0 80 48 00
        E 0 80 49 00
        E 0 80 54 00
        E 0 80 55 00
        E 0 80 60 00
        E 0 80 61 00
        E 0 90 61 60
        E 0 80 18 00
        E 0 80 1b 00
        E 0 90 1a 60
        E 120 80 61 00
        E 0 90 55 60
        E 0 90 61 60
        E 0 80 1a 00
        E 0 90 1b 60
        E 120 80 55 00
        E 0 80 61 00
        E 0 90 61 60
        E 0 80 1b 00
        E 0 90 1a 60
        E 120 80 61 00
        E 0 90 3d 60
        E 0 90 48 60
        E 0 90 49 60
        E 0 90 54 60
        E 0 90 55 60
        E 0 90 60 60
        E 0 90 61 60
        E 0 80 1a 00
        E 0 90 18 60
        E 0 90 1b 60
        E 120 80 3d 00
        E 0 80 48 00
        E 0 80 49 00
        E 0 80 54 00
        E 0 80 55 00
        E 0 80 60 00
        E 0 80 61 00
        E 0 90 61 60
        E 0 80 18 00
        E 0 80 1b 00
        E 0 90 1a 60
        E 120 80 61 00
        E 0 90 55 60
        E 0 90 61 60
        E 0 80 1a 00
        E 0 90 1b 60
        E 120 80 55 00
        E 0 80 61 00
        E 0 90 61 60
        E 0 80 1b 00
        E 0 90 1a 60
        E 120 80 61 00
        E 0 90 3d 60
        E 0 90 48 60
        E 0 90 49 60
        E 0 90 54 60
        E 0 90 55 60
        E 0 90 60 60
        E 0 90 61 60
        E 0 80 1a 00
        E 0 90 18 60
        E 0 90 1b 60
        E 120 80 3d 00
        E 0 80 48 00
        E 0 80 49 00
        E 0 80 54 00
        E 0 80 55 00
        E 0 80 60 00
        E 0 80 61 00
        E 0 90 61 60
        E 0 80 18 00
        E 0 80 1b 00
        E 0 90 1a 60
        E 120 80 61 00
        E 0 90 55 60
        E 0 90 61 60
        E 0 80 1a 00
        E 0 90 1b 60
        E 120 80 55 00
        E 0 80 61 00
        E 0 90 61 60
        E 0 80 1b 00
        E 0 90 1a 60
        E 120 80 61 00
        E 0 90 3d 60
        E 0 90 48 60
        E 0 90 49 60
        E 0 90 54 60
        E 0 90 55 60
        E 0 90 60 60
        E 0 90 61 60
        E 0 80 1a 00
        E 0 90 18 60
        E 0 90 1b 60
        E 120 80 3d 00
        E 0 80 48 00
        E 0 80 49 00
        E 0 80 54 00
        E 0 80 55 00
        E 0 80 60 00
        E 0 80 61 00
        E 0 90 61 60
        E 0 80 18 00
        E 0 80 1b 00
        E 0 90 1a 60
        E 120 80 61 00
        E 0 90 55 60
        E 0 90 61 60
        E 0 80 1a 00
        E 0 90 1b 60
        E 120 80 55 00
        E 0 80 61 00
        E 0 90 61 60
        E 0 80 1b 00
        E 0 90 1a 60
        E 120 80 61 00
        E 0 90 3d 60
        E 0 90 48 60
        E 0 90 49 60
        E 0 90 54 60
        E 0 90 55 60
        E 0 90 60 60
        E 0 90 61 60
        E 0 80 1a 00
        E 0 90 18 60
        E 0 90 1b 60
        E 120 80 3d 00
        E 0 80 48 00
        E 0 80 49 00
        E 0 80 54 00
        E 0 80 55 00
        E 0 80 60 00
        E 0 80 61 00
        E 0 90 61 60
        E 0 80 18 00
        E 0 80 1b 00
        E 0 90 1a 60
        E 120 80 61 00
        E 0 90 55 60
        E 0 90 61 60
        E 0 80 1a 00
        E 0 90 1b 60
        E 120 80 55 00
        E 0 80 61 00
        E 0 90 61 60
        E 0 80 1b 00
        E 0 90 1a 60
        E 120 80 61 00
        E 0 90 3d 60
        E 0 90 48 60
        E 0 90 49 60
        E 0 90 54 60
        E 0 90 55 60
        E 0 90 60 60
        E 0 90 61 60
        E 0 80 1a 00
        E 0 90 18 60
        E 0 90 1b 60
        E 120 80 3d 00
        E 0 80 48 00
        E 0 80 49 00
        E 0 80 54 00
        E 0 80 55 00
        E 0 80 60 00
        E 0 80 61 00
        E 0 90 61 60
        E 0 80 18 00
        E 0 80 1b 00
        E 0 90 1a 60
        E 120 80 61 00
        E 0 90 55 60
        E 0 90 61 60
        E 0 80 1a 00
        E 0 90 1b 60
        E 120 80 55 00
        E 0 80 61 00
        E 0 90 61 60
        E 0 80 1b 00
        E 0 90 1a 60
        E 120 80 61 00
        E 0 90 3d 60
        E 0 90 48 60
        E 0 90 49 60
        E 0 90 54 60
        E 0 90 55 60
        E 0 90 60 60
        E 0 90 61 60
        E 0 80 1a 00
        E 0 90 18 60
        E 0 90 1b 60
        E 120 80 3d 00
        E 0 80 48 00
        E 0 80 49 00
        E 0 80 54 00
        E 0 80 55 00
        E 0 80 60 00
        E 0 80 61 00
        E 0 90 61 60
        E 0 80 18 00
        E 0 80 1b 00
        E 0 90 1a 60
        E 120 80 61 00
        E 0 90 55 60
        E 0 90 61 60
        E 0 80 1a 00
        E 0 90 1b 60
        E 120 80 55 00
        E 0 80 61 00
        E 0 90 61 60
        E 0 80 1b 00
        E 0 90 1a 60
        E 120 80 61 00
        E 0 90 3d 60
        E 0 90 48 60
        E 0 90 49 60
        E 0 90 54 60
        E 0 90 55 60
        E 0 90 60 60
        E 0 90 61 60
        E 0 80 1a 00
        E 0 90 18 60
        E 0 90 1b 60
        E 120 80 3d 00
        E 0 80 48 00
        E 0 80 49 00
        E 0 80 54 00
        E 0 80 55 00
        E 0 80 60 00
        E 0 80 61 00
        E 0 90 61 60
        E 0 80 18 00
        E 0 80 1b 00
        E 0 90 1a 60
        E 120 80 61 00
        E 0 90 55 60
        E 0 90 61 60
        E 0 80 1a 00
        E 0 90 1b 60
        E 120 80 55 00
        E 0 80 61 00
        E 0 90 61 60
        E 0 80 1b 00
        E 0 90 1a 60
        E 120 80 61 00
        E 0 90 3d 60
        E 0 90 48 60
        E 0 90 49 60
        E 0 90 54 60
        E 0 90 55 60
        E 0 90 60 60
        E 0 90 61 60
        E 0 80 1a 00
        E 0 90 18 60
        E 0 90 1b 60
        E 120 80 3d 00
        E 0 80 48 00
        E 0 80 49 00
        E 0 80 54 00
        E 0 80 55 00
        E 0 80 60 00
        E 0 80 61 00
        E 0 90 61 60
        E 0 80 18 00
        E 0 80 1b 00
        E 0 90 1a 60
        E 120 80 61 00
        E 0 90 55 60
        E 0 90 61 60
        E 0 80 1a 00
        E 0 90 1b 60
        E 120 80 55 00
        E 0 80 61 00
        E 0 90 61 60
        E 0 80 1b 00
        E 0 90 1a 60
        E 120 80 61 00
        E 0 90 3d 60
        E 0 90 48 60
        E 0 90 49 60
        E 0 90 54 60
        E 0 90 55 60
        E 0 90 60 60
        E 0 90 61 60
        E 0 80 1a 00
        E 0 90 18 60
        E 0 90 1b 60
        E 120 80 3d 00
        E 0 80 48 00
        E 0 80 49 00
        E 0 80 54 00
        E 0 80 55 00
        E 0 80 60 00
        E 0 80 61 00
        E 0 90 61 60
        E 0 80 18 00
        E 0 80 1b 00
        E 0 90 1a 60
        E 120 80 61 00
        E 0 90 55 60
        E 0 90 61 60
        E 0 80 1a 00
        E 0 90 1b 60
        E 120 80 55 00
        E 0 80 61 00
        E 0 90 61 60
        E 0 80 1b 00
        E 0 90 1a 60
        E 120 80 61 00
        E 0 90 3d 60
        E 0 90 48 60
        E 0 90 49 60
        E 0 90 54 60
        E 0 90 55 60
        E 0 90 60 60
        E 0 90 61 60
        E 0 80 1a 00
        E 0 90 18 60
        E 0 90 1b 60
        E 120 80 3d 00
        E 0 80 48 00
        E 0 80 49 00
        E 0 80 54 00
        E 0 80 55 00
        E 0 80 60 00
        E 0 80 61 00
        E 0 90 61 60
        E 0 80 18 00
        E 0 80 1b 00
        E 0 90 1a 60
        E 120 80 61 00
        E 0 90 55 60
        E 0 90 61 60
        E 0 80 1a 00
        E 0 90 1b 60
        E 120 80 55 00
        E 0 80 61 00
        E 0 90 61 60
        E 0 80 1b 00
        E 0 90 1a 60
        E 120 80 61 00
        E 0 90 3d 60
        E 0 90 48 60
        E 0 90 49 60
        E 0 90 54 60
        E 0 90 55 60
        E 0 90 60 60
        E 0 90 61 60
        E 0 80 1a 00
        E 0 90 18 60
        E 0 90 1b 60
        E 120 80 3d 00
        E 0 80 48 00
        E 0 80 49 00
        E 0 80 54 00
        E 0 80 55 00
        E 0 80 60 00
        E 0 80 61 00
        E 0 90 61 60
        E 0 80 18 00
        E 0 80 1b 00
        E 0 90 1a 60
        E 120 80 61 00
        E 0 90 55 60
        E 0 90 61 60
        E 0 80 1a 00
        E 0 90 1b 60
        E 120 80 55 00
        E 0 80 61 00
        E 0 90 61 60
        E 0 80 1b 00
        E 0 90 1a 60
        E 120 80 61 00
        E 0 90 3d 60
        E 0 90 48 60
        E 0 90 49 60
        E 0 90 54 60
        E 0 90 55 60
        E 0 90 60 60
        E 0 90 61 60
        E 0 80 1a 00
        E 0 90 18 60
        E 0 90 1b 60
        E 120 80 3d 00
        E 0 80 48 00
        E 0 80 49 00
        E 0 80 54 00
        E 0 80 55 00
        E 0 80 60 00
        E 0 80 61 00
        E 0 90 61 60
        E 0 80 18 00
        E 0 80 1b 00
        E 0 90 1a 60
        E 120 80 61 00
        E 0 90 55 60
        E 0 90 61 60
        E 0 80 1a 00
        E 0 90 1b 60
        E 120 80 55 00
        E 0 80 61 00
        E 0 90 61 60
        E 0 80 1b 00
        E 0 90 1a 60
        E 120 80 61 00
        E 0 90 3d 60
        E 0 90 48 60
        E 0 90 49 60
        E 0 90 54 60
        E 0 90 55 60
        E 0 90 60 60
        E 0 90 61 60
        E 0 80 1a 00
        E 0 90 18 60
        E 0 90 1b 60
        E 120 80 3d 00
        E 0 80 48 00
        E 0 80 49 00
        E 0 80 54 00
        E 0 80 55 00
        E 0 80 60 00
        E 0 80 61 00
        E 0 90 61 60
        E 0 80 18 00
        E 0 80 1b 00
        E 0 90 1a 60
        E 120 80 61 00
        E 0 90 55 60
        E 0 90 61 60
        E 0 80 1a 00
        E 0 90 1b 60
        E 120 80 55 00
        E 0 80 61 00
        E 0 90 61 60
        E 0 80 1b 00
        E 0 90 1a 60
        E 120 80 61 00
        E 0 90 48 60
        E 0 90 49 60
        E 0 90 54 60
        E 0 90 55 60
        E 0 90 60 60
        E 0 90 61 60
        E 0 80 1a 00
        E 0 90 18 60
        E 0 90 1b 60
        E 120 80 48 00
        E 0 80 49 00
        E 0 80 54 00
        E 0 80 55 00
        E 0 80 60 00
        E 0 80 61 00
        E 0 90 61 60
        E 0 80 18 00
        E 0 80 1b 00
        E 0 90 1a 60
        E 120 80 61 00
        E 0 90 55 60
        E 0 90 61 60
        E 0 80 1a 00
        E 0 90 1b 60
        E 120 80 55 00
        E 0 80 61 00
        E 0 90 61 60
        E 0 80 1b 00
        E 0 90 1a 60
        E 120 80 61 00
        E 0 90 3c 60
        E 0 90 40 60
        E 0 90 48 60
        E 0 90 4c 60
        E 0 90 54 60
        E 0 90 58 60
        E 0 90 60 60
        E 0 90 64 60
        E 0 80 1a 00
        E 0 90 18 60
        E 0 90 26 60
        E 120 80 3c 00
        E 0 80 40 00
        E 0 80 48 00
        E 0 80 4c 00
        E 0 80 54 00
        E 0 80 58 00
        E 0 80 60 00
        E 0 80 64 00
        E 0 80 18 00
        E 0 80 26 00
        E 240 90 60 60
        E 0 90 18 60
        E 120 80 60 00
        E 0 90 49 60
        E 0 90 4a 60
        E 0 90 55 60
        E 0 90 56 60
        E 0 90 61 60
        E 0 90 62 60
        E 0 90 6e 60
        E 0 80 18 00
        E 0 90 1a 60
        E 0 90 1b 60
        E 120 80 49 00
        E 0 80 4a 00
        E 0 80 55 00
        E 0 80 56 00
        E 0 80 61 00
        E 0 80 62 00
        E 0 80 6e 00
        E 0 90 60 60
        E 0 80 1a 00
        E 0 80 1b 00
        E 0 90 18 60
        E 120 80 60 00
        E 0 90 56 60
        E 0 90 62 60
        E 0 90 6e 60
        E 0 80 18 00
        E 0 90 2f 60
        E 120 80 56 00
        E 0 80 62 00
        E 0 80 6e 00
        E 0 90 62 60
        E 0 90 6e 60
        E 0 80 2f 00
        E 0 90 2e 60
        E 120 80 62 00
        E 0 80 6e 00
        E 0 90 3f 60
        E 0 90 4b 60
        E 0 90 57 60
        E 0 90 63 60
        E 0 90 6f 60
        E 0 80 2e 00
        E 0 90 31 60
        E 120 80 3f 00
        E 0 80 4b 00
        E 0 80 57 00
        E 0 80 63 00
        E 0 80 6f 00
        E 0 90 63 60
        E 0 90 6f 60
        E 0 80 31 00
        E 0 90 30 60
        E 120 80 63 00
        E 0 80 6f 00
        E 0 90 58 60
        E 0 90 64 60
        E 0 90 70 60
        E 0 80 30 00
        E 0 90 33 60
        E 120 80 58 00
        E 0 80 64 00
        E 0 80 70 00
        E 0 90 60 60
        E 0 80 33 00
        E 0 90 18 60
        E 120 80 60 00
        E 0 90 49 60
        E 0 90 4a 60
        E 0 90 55 60
        E 0 90 56 60
        E 0 90 61 60
        E 0 90 62 60
        E 0 90 6e 60
        E 0 80 18 00
        E 0 90 1a 60
        E 0 90 1b 60
        E 120 80 49 00
        E 0 80 4a 00
        E 0 80 55 00
        E 0 80 56 00
        E 0 80 61 00
        E 0 80 62 00
        E 0 80 6e 00
        E 0 90 60 60
        E 0 80 1a 00
        E 0 80 1b 00
        E 0 90 18 60
        E 120 80 60 00
        E 0 90 56 60
        E 0 90 62 60
        E 0 90 6e 60
        E 0 80 18 00
        E 0 90 2f 60
        E 80 80 56 00
        E 0 80 62 00
        E 0 80 6e 00
        E 0 90 62 60
        E 0 90 6e 60
        E 0 80 2f 00
        E 0 90 2e 60
        E 80 80 62 00
        E 0 80 6e 00
        E 0 90 62 60
        E 0 90 6e 60
        E 0 80 2e 00
        E 0 90 2f 60
        E 80 80 62 00
        E 0 80 6e 00
        E 0 90 3f 60
        E 0 90 4b 60
        E 0 90 57 60
        E 0 90 63 60
        E 0 90 6f 60
        E 0 80 2f 00
        E 0 90 30 60
        E 120 80 3f 00
        E 0 80 4b 00
        E 0 80 57 00
        E 0 80 63 00
        E 0 80 6f 00
        E 0 90 63 60
        E 0 90 6f 60
        E 0 80 30 00
        E 0 90 31 60
        E 120 80 63 00
        E 0 80 6f 00
        E 0 90 58 60
        E 0 90 64 60
        E 0 90 70 60
        E 0 80 31 00
        E 0 90 32 60
        E 120 80 58 00
        E 0 80 64 00
        E 0 80 70 00
        E 0 90 60 60
        E 0 80 32 00
        E 0 90 18 60
        E 120 80 60 00
        E 0 90 49 60
        E 0 90 4a 60
        E 0 90 55 60
        E 0 90 56 60
        E 0 90 61 60
        E 0 90 62 60
        E 0 90 6e 60
        E 0 80 18 00
        E 0 90 1a 60
        E 0 90 1b 60
        E 120 80 49 00
        E 0 80 4a 00
        E 0 80 55 00
        E 0 80 56 00
        E 0 80 61 00
        E 0 80 62 00
        E 0 80 6e 00
        E 0 90 60 60
        E 0 80 1a 00
        E 0 80 1b 00
        E 0 90 18 60
        E 120 80 60 00
        E 0 90 56 60
        E 0 90 62 60
        E 0 90 6e 60
        E 0 80 18 00
        E 0 90 2f 60
        E 120 80 56 00
        E 0 80 62 00
        E 0 80 6e 00
        E 0 90 62 60
        E 0 90 6e 60
        E 0 80 2f 00
        E 0 90 2e 60
        E 120 80 62 00
        E 0 80 6e 00
        E 0 90 3f 60
        E 0 90 4b 60
        E 0 90 57 60
        E 0 90 63 60
        E 0 90 6f 60
        E 0 80 2e 00
        E 0 90 31 60
        E 120 80 3f 00
        E 0 80 4b 00
        E 0 80 57 00
        E 0 80 63 00
        E 0 80 6f 00
        E 0 90 63 60
        E 0 90 6f 60
        E 0 80 31 00
        E 0 90 30 60
        E 120 80 63 00
        E 0 80 6f 00
        E 0 90 58 60
        E 0 90 64 60
        E 0 90 70 60
        E 0 80 30 00
        E 0 90 33 60
        E 120 80 58 00
        E 0 80 64 00
        E 0 80 70 00
        E 0 90 60 60
        E 0 80 33 00
        E 0 90 18 60
        E 120 80 60 00
        E 0 90 49 60
        E 0 90 4a 60
        E 0 90 55 60
        E 0 90 56 60
        E 0 90 61 60
        E 0 90 62 60
        E 0 90 6e 60
        E 0 80 18 00
        E 0 90 1a 60
        E 0 90 1b 60
        E 120 80 49 00
        E 0 80 4a 00
        E 0 80 55 00
        E 0 80 56 00
        E 0 80 61 00
        E 0 80 62 00
        E 0 80 6e 00
        E 0 90 60 60
        E 0 80 1a 00
        E 0 80 1b 00
        E 0 90 18 60
        E 120 80 60 00
        E 0 90 56 60
        E 0 90 62 60
        E 0 90 6e 60
        E 0 80 18 00
        E 0 90 2f 60
        E 60 80 56 00
        E 0 80 62 00
        E 0 80 6e 00
        E 0 90 62 60
        E 0 90 6e 60
        E 0 80 2f 00
        E 0 90 2e 60
        E 60 80 62 00
        E 0 80 6e 00
        E 0 90 62 60
        E 0 90 6e 60
        E 0 80 2e 00
        E 0 90 2f 60
        E 60 80 62 00
        E 0 80 6e 00
        E 0 90 62 60
        E 0 90 6e 60
        E 0 80 2f 00
        E 0 90 2e 60
        E 60 80 62 00
        E 0 80 6e 00
        E 0 90 3c 60
        E 0 90 40 60
        E 0 90 48 60
        E 0 90 4c 60
        E 0 90 54 60
        E 0 90 58 60
        E 0 90 60 60
        E 0 90 64 60
        E 0 80 2e 00
        E 0 90 18 60
        E 0 90 26 60
        E 120 80 3c 00
        E 0 80 40 00
        E 0 80 48 00
        E 0 80 4c 00
        E 0 80 54 00
        E 0 80 58 00
        E 0 80 60 00
        E 0 80 64 00
        E 0 80 18 00
        E 0 80 26 00
        E 240 90 60 60
        E 0 90 18 60
        E 120 80 60 00
        E 0 90 49 60
        E 0 90 4a 60
        E 0 90 55 60
        E 0 90 56 60
        E 0 90 61 60
        E 0 90 62 60
        E 0 90 6e 60
        E 0 80 18 00
        E 0 90 1a 60
        E 0 90 1b 60
        E 120 80 49 00
        E 0 80 4a 00
        E 0 80 55 00
        E 0 80 56 00
        E 0 80 61 00
        E 0 80 62 00
        E 0 80 6e 00
        E 0 90 60 60
        E 0 80 1a 00
        E 0 80 1b 00
        E 0 90 18 60
        E 120 80 60 00
        E 0 90 56 60
        E 0 90 62 60
        E 0 90 6e 60
        E 0 80 18 00
        E 0 90 2f 60
        E 120 80 56 00
        E 0 80 62 00
        E 0 80 6e 00
        E 0 90 62 60
        E 0 90 6e 60
        E 0 80 2f 00
        E 0 90 2e 60
        E 120 80 62 00
        E 0 80 6e 00
        E 0 90 3f 60
        E 0 90 4b 60
        E 0 90 57 60
        E 0 90 63 60
        E 0 90 6f 60
        E 0 80 2e 00
        E 0 90 31 60
        E 120 80 3f 00
        E 0 80 4b 00
        E 0 80 57 00
        E 0 80 63 00
        E 0 80 6f 00
        E 0 90 63 60
        E 0 90 6f 60
        E 0 80 31 00
        E 0 90 30 60
        E 120 80 63 00
        E 0 80 6f 00
        E 0 90 58 60
        E 0 90 64 60
        E 0 90 70 60
        E 0 80 30 00
        E 0 90 33 60
        E 120 80 58 00
        E 0 80 64 00
        E 0 80 70 00
        E 0 90 60 60
        E 0 80 33 00
        E 0 90 18 60
        E 120 80 60 00
        E 0 90 49 60
        E 0 90 4a 60
        E 0 90 55 60
        E 0 90 56 60
        E 0 90 61 60
        E 0 90 62 60
        E 0 90 6e 60
        E 0 80 18 00
        E 0 90 1a 60
        E 0 90 1b 60
        E 120 80 49 00
        E 0 80 4a 00
        E 0 80 55 00
        E 0 80 56 00
        E 0 80 61 00
        E 0 80 62 00
        E 0 80 6e 00
        E 0 90 60 60
        E 0 80 1a 00
        E 0 80 1b 00
        E 0 90 18 60
        E 120 80 60 00
        E 0 90 56 60
        E 0 90 62 60
        E 0 90 6e 60
        E 0 80 18 00
        E 0 90 2f 60
        E 80 80 56 00
        E 0 80 62 00
        E 0 80 6e 00
        E 0 90 62 60
        E 0 90 6e 60
        E 0 80 2f 00
        E 0 90 2e 60
        E 80 80 62 00
        E 0 80 6e 00
        E 0 90 62 60
        E 0 90 6e 60
        E 0 80 2e 00
        E 0 90 2f 60
        E 80 80 62 00
        E 0 80 6e 00
        E 0 90 3f 60
        E 0 90 4b 60
        E 0 90 57 60
        E 0 90 63 60
        E 0 90 6f 60
        E 0 80 2f 00
        E 0 90 30 60
        E 120 80 3f 00
        E 0 80 4b 00
        E 0 80 57 00
        E 0 80 63 00
        E 0 80 6f 00
        E 0 90 63 60
        E 0 90 6f 60
        E 0 80 30 00
        E 0 90 31 60
        E 120 80 63 00
        E 0 80 6f 00
        E 0 90 58 60
        E 0 90 64 60
        E 0 90 70 60
        E 0 80 31 00
        E 0 90 32 60
        E 120 80 58 00
        E 0 80 64 00
        E 0 80 70 00
        E 0 90 60 60
        E 0 80 32 00
        E 0 90 18 60
        E 120 80 60 00
        E 0 90 49 60
        E 0 90 4a 60
        E 0 90 55 60
        E 0 90 56 60
        E 0 90 61 60
        E 0 90 62 60
        E 0 90 6e 60
        E 0 80 18 00
        E 0 90 1a 60
        E 0 90 1b 60
        E 120 80 49 00
        E 0 80 4a 00
        E 0 80 55 00
        E 0 80 56 00
        E 0 80 61 00
        E 0 80 62 00
        E 0 80 6e 00
        E 0 90 60 60
        E 0 80 1a 00
        E 0 80 1b 00
        E 0 90 18 60
        E 120 80 60 00
        E 0 90 56 60
        E 0 90 62 60
        E 0 90 6e 60
        E 0 80 18 00
        E 0 90 2f 60
        E 120 80 56 00
        E 0 80 62 00
        E 0 80 6e 00
        E 0 90 62 60
        E 0 90 6e 60
        E 0 80 2f 00
        E 0 90 2e 60
        E 60 80 62 00
        E 0 80 6e 00
        E 0 90 62 60
        E 0 90 6e 60
        E 0 80 2e 00
        E 0 90 2f 60
        E 60 80 62 00
        E 0 80 6e 00
        E 0 90 3f 60
        E 0 90 4b 60
        E 0 90 57 60
        E 0 90 63 60
        E 0 90 6f 60
        E 0 80 2f 00
        E 0 90 30 60
        E 120 80 3f 00
        E 0 80 4b 00
        E 0 80 57 00
        E 0 80 63 00
        E 0 80 6f 00
        E 0 90 63 60
        E 0 90 6f 60
        E 0 80 30 00
        E 0 90 31 60
        E 120 80 63 00
        E 0 80 6f 00
        E 0 90 58 60
        E 0 90 64 60
        E 0 90 70 60
        E 0 80 31 00
        E 0 90 32 60
        E 120 80 58 00
        E 0 80 64 00
        E 0 80 70 00
        E 0 90 60 60
        E 0 80 32 00
        E 0 90 18 60
        E 120 80 60 00
        E 0 90 49 60
        E 0 90 4a 60
        E 0 90 55 60
        E 0 90 56 60
        E 0 90 61 60
        E 0 90 62 60
        E 0 90 6e 60
        E 0 80 18 00
        E 0 90 1a 60
        E 0 90 1b 60
        E 120 80 49 00
        E 0 80 4a 00
        E 0 80 55 00
        E 0 80 56 00
        E 0 80 61 00
        E 0 80 62 00
        E 0 80 6e 00
        E 0 90 60 60
        E 0 80 1a 00
        E 0 80 1b 00
        E 0 90 18 60
        E 120 80 60 00
        E 0 90 56 60
        E 0 90 62 60
        E 0 90 6e 60
        E 0 80 18 00
        E 0 90 2f 60
        E 120 80 56 00
        E 0 80 62 00
        E 0 80 6e 00
        E 0 90 62 60
        E 0 90 6e 60
        E 0 80 2f 00
        E 0 90 2e 60
        E 120 80 62 00
        E 0 80 6e 00
        E 0 90 3c 60
        E 0 90 40 60
        E 0 90 48 60
        E 0 90 4c 60
        E 0 90 54 60
        E 0 90 58 60
        E 0 90 60 60
        E 0 90 64 60
        E 0 80 2e 00
        E 0 90 18 60
        E 0 90 26 60
        E 120 80 3c 00
        E 0 80 40 00
        E 0 80 48 00
        E 0 80 4c 00
        E 0 80 54 00
        E 0 80 58 00
        E 0 80 60 00
        E 0 80 64 00
        E 0 80 18 00
        E 0 80 26 00
        E 240 90 60 60
        E 0 90 18 60
        E 120 80 60 00
        E 0 90 49 60
        E 0 90 4a 60
        E 0 90 55 60
        E 0 90 56 60
        E 0 90 61 60
        E 0 90 62 60
        E 0 90 6e 60
        E 0 80 18 00
        E 0 90 1a 60
        E 0 90 1b 60
        E 120 80 49 00
        E 0 80 4a 00
        E 0 80 55 00
        E 0 80 56 00
        E 0 80 61 00
        E 0 80 62 00
        E 0 80 6e 00
        E 0 90 60 60
        E 0 80 1a 00
        E 0 80 1b 00
        E 0 90 18 60
        E 120 80 60 00
        E 0 90 56 60
        E 0 90 62 60
        E 0 90 6e 60
        E 0 80 18 00
        E 0 90 2f 60
        E 60 80 56 00
        E 0 80 62 00
        E 0 80 6e 00
        E 0 90 62 60
        E 0 90 6e 60
        E 0 80 2f 00
        E 0 90 2e 60
        E 60 80 62 00
        E 0 80 6e 00
        E 0 90 62 60
        E 0 90 6e 60
        E 0 80 2e 00
        E 0 90 2f 60
        E 60 80 62 00
        E 0 80 6e 00
        E 0 90 62 60
        E 0 90 6e 60
        E 0 80 2f 00
        E 0 90 2e 60
        E 60 80 62 00
        E 0 80 6e 00
        E 0 90 3f 60
        E 0 90 4b 60
        E 0 90 57 60
        E 0 90 63 60
        E 0 90 6f 60
        E 0 80 2e 00
        E 0 90 31 60
        E 120 80 3f 00
        E 0 80 4b 00
        E 0 80 57 00
        E 0 80 63 00
        E 0 80 6f 00
        E 0 90 63 60
        E 0 90 6f 60
        E 0 80 31 00
        E 0 90 30 60
        E 120 80 63 00
        E 0 80 6f 00
        E 0 90 58 60
        E 0 90 64 60
        E 0 90 70 60
        E 0 80 30 00
        E 0 90 33 60
        E 120 80 58 00
        E 0 80 64 00
        E 0 80 70 00
        E 0 90 60 60
        E 0 80 33 00
        E 0 90 18 60
        E 120 80 60 00
        E 0 90 49 60
        E 0 90 4a 60
        E 0 90 55 60
        E 0 90 56 60
        E 0 90 61 60
        E 0 90 62 60
        E 0 90 6e 60
        E 0 80 18 00
        E 0 90 1a 60
        E 0 90 1b 60
        E 120 80 49 00
        E 0 80 4a 00
        E 0 80 55 00
        E 0 80 56 00
        E 0 80 61 00
        E 0 80 62 00
        E 0 80 6e 00
        E 0 90 60 60
        E 0 80 1a 00
        E 0 80 1b 00
        E 0 90 18 60
        E 120 80 60 00
        E 0 90 56 60
        E 0 90 62 60
        E 0 90 6e 60
        E 0 80 18 00
        E 0 90 2f 60
        E 80 80 56 00
        E 0 80 62 00
        E 0 80 6e 00
        E 0 90 62 60
        E 0 90 6e 60
        E 0 80 2f 00
        E 0 90 2e 60
        E 80 80 62 00
        E 0 80 6e 00
        E 0 90 62 60
        E 0 90 6e 60
        E 0 80 2e 00
        E 0 90 2f 60
        E 80 80 62 00
        E 0 80 6e 00
        E 0 90 3f 60
        E 0 90 4b 60
        E 0 90 57 60
        E 0 90 63 60
        E 0 90 6f 60
        E 0 80 2f 00
        E 0 90 30 60
        E 120 80 3f 00
        E 0 80 4b 00
        E 0 80 57 00
        E 0 80 63 00
        E 0 80 6f 00
        E 0 90 63 60
        E 0 90 6f 60
        E 0 80 30 00
        E 0 90 31 60
        E 120 80 63 00
        E 0 80 6f 00
        E 0 90 58 60
        E 0 90 64 60
        E 0 90 70 60
        E 0 80 31 00
        E 0 90 32 60
        E 120 80 58 00
        E 0 80 64 00
        E 0 80 70 00
        E 0 90 60 60
        E 0 80 32 00
        E 0 90 18 60
        E 120 80 60 00
        E 0 90 49 60
        E 0 90 4a 60
        E 0 90 55 60
        E 0 90 56 60
        E 0 90 61 60
        E 0 90 62 60
        E 0 90 6e 60
        E 0 80 18 00
        E 0 90 1a 60
        E 0 90 1b 60
        E 120 80 49 00
        E 0 80 4a 00
        E 0 80 55 00
        E 0 80 56 00
        E 0 80 61 00
        E 0 80 62 00
        E 0 80 6e 00
        E 0 90 60 60
        E 0 80 1a 00
        E 0 80 1b 00
        E 0 90 18 60
        E 120 80 60 00
        E 0 90 56 60
        E 0 90 62 60
        E 0 90 6e 60
        E 0 80 18 00
        E 0 90 2f 60
        E 120 80 56 00
        E 0 80 62 00
        E 0 80 6e 00
        E 0 90 62 60
        E 0 90 6e 60
        E 0 80 2f 00
        E 0 90 2e 60
        E 120 80 62 00
        E 0 80 6e 00
        E 0 90 3f 60
        E 0 90 4b 60
        E 0 90 57 60
        E 0 90 63 60
        E 0 90 6f 60
        E 0 80 2e 00
        E 0 90 31 60
        E 120 80 3f 00
        E 0 80 4b 00
        E 0 80 57 00
        E 0 80 63 00
        E 0 80 6f 00
        E 0 90 63 60
        E 0 90 6f 60
        E 0 80 31 00
        E 0 90 30 60
        E 120 80 63 00
        E 0 80 6f 00
        E 0 90 58 60
        E 0 90 64 60
        E 0 90 70 60
        E 0 80 30 00
        E 0 90 33 60
        E 120 80 58 00
        E 0 80 64 00
        E 0 80 70 00
        E 0 90 60 60
        E 0 80 33 00
        E 0 90 18 60
        E 120 80 60 00
        E 0 90 49 60
        E 0 90 4a 60
        E 0 90 55 60
        E 0 90 56 60
        E 0 90 61 60
        E 0 90 62 60
        E 0 90 6e 60
        E 0 80 18 00
        E 0 90 1a 60
        E 0 90 1b 60
        E 120 80 49 00
        E 0 80 4a 00
        E 0 80 55 00
        E 0 80 56 00
        E 0 80 61 00
        E 0 80 62 00
        E 0 80 6e 00
        E 0 90 60 60
        E 0 80 1a 00
        E 0 80 1b 00
        E 0 90 18 60
        E 120 80 60 00
        E 0 90 56 60
        E 0 90 62 60
        E 0 90 6e 60
        E 0 80 18 00
        E 0 90 2f 60
        E 120 80 56 00
        E 0 80 62 00
        E 0 80 6e 00
        E 0 90 62 60
        E 0 90 6e 60
        E 0 80 2f 00
        E 0 90 2e 60
        E 120 80 62 00
        E 0 80 6e 00
        E 0 90 3c 60
        E 0 90 40 60
        E 0 90 48 60
        E 0 90 4c 60
        E 0 90 54 60
        E 0 90 58 60
        E 0 90 60 60
        E 0 90 64 60
        E 0 80 2e 00
        E 0 90 18 60
        E 0 90 26 60
        E 120 80 3c 00
        E 0 80 40 00
        E 0 80 48 00
        E 0 80 4c 00
        E 0 80 54 00
        E 0 80 58 00
        E 0 80 60 00
        E 0 80 64 00
        E 0 80 18 00
        E 0 80 26 00
        E 240 90 60 60
        E 0 90 18 60
        E 120 80 60 00
        E 0 90 49 60
        E 0 90 4a 60
        E 0 90 55 60
        E 0 90 56 60
        E 0 90 61 60
        E 0 90 62 60
        E 0 90 6e 60
        E 0 80 18 00
        E 0 90 1a 60
        E 0 90 1b 60
        E 120 80 49 00
        E 0 80 4a 00
        E 0 80 55 00
        E 0 80 56 00
        E 0 80 61 00
        E 0 80 62 00
        E 0 80 6e 00
        E 0 90 60 60
        E 0 80 1a 00
        E 0 80 1b 00
        E 0 90 18 60
        E 120 80 60 00
        E 0 90 56 60
        E 0 90 62 60
        E 0 90 6e 60
        E 0 80 18 00
        E 0 90 2f 60
        E 60 80 56 00
        E 0 80 62 00
        E 0 80 6e 00
        E 0 90 62 60
        E 0 90 6e 60
        E 0 80 2f 00
        E 0 90 2e 60
        E 60 80 62 00
        E 0 80 6e 00
        E 0 90 62 60
        E 0 90 6e 60
        E 0 80 2e 00
        E 0 90 2f 60
        E 60 80 62 00
        E 0 80 6e 00
        E 0 90 62 60
        E 0 90 6e 60
        E 0 80 2f 00
        E 0 90 2e 60
        E 60 80 62 00
        E 0 80 6e 00
        E 0 90 3f 60
        E 0 90 4b 60
        E 0 90 57 60
        E 0 90 63 60
        E 0 90 6f 60
        E 0 80 2e 00
        E 0 90 31 60
        E 120 80 3f 00
        E 0 80 4b 00
        E 0 80 57 00
        E 0 80 63 00
        E 0 80 6f 00
        E 0 90 63 60
        E 0 90 6f 60
        E 0 80 31 00
        E 0 90 30 60
        E 120 80 63 00
        E 0 80 6f 00
        E 0 90 58 60
        E 0 90 64 60
        E 0 90 70 60
        E 0 80 30 00
        E 0 90 33 60
        E 120 80 58 00
        E 0 80 64 00
        E 0 80 70 00
        E 0 90 60 60
        E 0 80 33 00
        E 0 90 18 60
        E 120 80 60 00
        E 0 90 49 60
        E 0 90 4a 60
        E 0 90 55 60
        E 0 90 56 60
        E 0 90 61 60
        E 0 90 62 60
        E 0 90 6e 60
        E 0 80 18 00
        E 0 90 1a 60
        E 0 90 1b 60
        E 120 80 49 00
        E 0 80 4a 00
        E 0 80 55 00
        E 0 80 56 00
        E 0 80 61 00
        E 0 80 62 00
        E 0 80 6e 00
        E 0 90 60 60
        E 0 80 1a 00
        E 0 80 1b 00
        E 0 90 18 60
        E 120 80 60 00
        E 0 80 18 00
        E 120 90 62 60
        E 0 90 6e 60
        E 0 90 2e 60
        E 120 80 62 00
        E 0 80 6e 00
        E 0 90 3f 60
        E 0 90 4b 60
        E 0 90 57 60
        E 0 90 63 60
        E 0 90 6f 60
        E 0 80 2e 00
        E 0 90 31 60
        E 120 80 3f 00
        E 0 80 4b 00
        E 0 80 57 00
        E 0 80 63 00
        E 0 80 6f 00
        E 0 90 63 60
        E 0 90 6f 60
        E 0 80 31 00
        E 0 90 30 60
        E 120 80 63 00
        E 0 80 6f 00
        E 0 90 58 60
        E 0 90 64 60
        E 0 90 70 60
        E 0 80 30 00
        E 0 90 33 60
        E 120 80 58 00
        E 0 80 64 00
        E 0 80 70 00
        E 0 90 60 60
        E 0 80 33 00
        E 0 90 18 60
        E 120 80 60 00
        E 0 90 49 60
        E 0 90 4a 60
        E 0 90 55 60
        E 0 90 56 60
        E 0 90 61 60
        E 0 90 62 60
        E 0 90 6e 60
        E 0 80 18 00
        E 0 90 1a 60
        E 0 90 1b 60
        E 120 80 49 00
        E 0 80 4a 00
        E 0 80 55 00
        E 0 80 56 00
        E 0 80 61 00
        E 0 80 62 00
        E 0 80 6e 00
        E 0 80 1a 00
        E 0 80 1b 00
        E 60 90 61 60
        E 0 90 1a 60
        E 60 80 61 00
        E 0 90 55 60
        E 0 90 61 60
        E 0 80 1a 00
        E 0 90 1b 60
        E 120 80 55 00
        E 0 80 61 00
        E 0 90 61 60
        E 0 80 1b 00
        E 0 90 1a 60
        E 120 80 61 00
        E 0 90 3d 60
        E 0 90 49 60
        E 0 90 55 60
        E 0 90 61 60
        E 0 80 1a 00
        E 0 90 1b 60
        E 60 80 3d 00
        E 0 80 49 00
        E 0 80 55 00
        E 0 80 61 00
        E 0 90 61 60
        E 0 80 1b 00
        E 0 90 1a 60
        E 60 80 61 00
        E 0 90 61 60
        E 0 80 1a 00
        E 0 90 1b 60
        E 120 80 61 00
        E 0 90 55 60
        E 0 90 61 60
        E 0 80 1b 00
        E 0 90 1a 60
        E 120 80 55 00
        E 0 80 61 00
        E 0 90 62 60
        E 0 90 6e 60
        E 0 80 1a 00
        E 0 90 2f 60
        E 60 80 62 00
        E 0 80 6e 00
        E 0 90 62 60
        E 0 90 6e 60
        E 0 80 2f 00
        E 0 90 2e 60
        E 60 80 62 00
        E 0 80 6e 00
        E 0 90 4a 60
        E 0 90 56 60
        E 0 90 62 60
        E 0 90 6e 60
        E 0 80 2e 00
        E 0 90 2f 60
        E 120 80 4a 00
        E 0 80 56 00
        E 0 80 62 00
        E 0 80 6e 00
        E 0 90 62 60
        E 0 90 6e 60
        E 0 80 2f 00
        E 0 90 2e 60
        E 120 80 62 00
        E 0 80 6e 00
        E 0 90 57 60
        E 0 90 63 60
        E 0 90 6f 60
        E 0 80 2e 00
        E 0 90 31 60
        E 120 80 57 00
        E 0 80 63 00
        E 0 80 6f 00
        E 0 90 60 60
        E 0 80 31 00
        E 0 90 18 60
        E 120 80 60 00
        E 0 90 3c 60
        E 0 90 3e 60
        E 0 90 40 60
        E 0 90 48 60
        E 0 90 4a 60
        E 0 90 4c 60
        E 0 90 54 60
        E 0 90 56 60
        E 0 90 58 60
        E 0 90 60 60
        E 0 90 62 60
        E 0 90 64 60
        E 0 80 18 00
        E 0 90 18 60
        E 0 90 26 60
        E 0 90 22 60
        E 120 80 3c 00
        E 0 80 3e 00
        E 0 80 40 00
        E 0 80 48 00
        E 0 80 4a 00
        E 0 80 4c 00
        E 0 80 54 00
        E 0 80 56 00
        E 0 80 58 00
        E 0 80 60 00
        E 0 80 62 00
        E 0 80 64 00
        E 0 80 18 00
        E 0 80 26 00
        E 0 80 22 00
        E 120 90 54 60
        E 0 90 58 60
        E 0 90 60 60
        E 0 90 64 60
        E 0 90 18 60
        E 0 90 26 60
        E 120 80 54 00
        E 0 80 58 00
        E 0 80 60 00
        E 0 80 64 00
        E 0 90 60 60
        E 0 80 18 00
        E 0 80 26 00
        E 0 90 18 60
        E 120 80 60 00
        E 0 90 4c 60
        E 0 90 58 60
        E 0 90 64 60
        E 0 80 18 00
        E 0 90 26 60
        E 120 80 4c 00
        E 0 80 58 00
        E 0 80 64 00
        E 0 90 60 60
        E 0 80 26 00
        E 0 90 18 60
        E 120 80 60 00
        E 0 90 55 60
        E 0 90 58 60
        E 0 90 61 60
        E 0 90 64 60
        E 0 80 18 00
        E 0 90 1a 60
        E 0 90 26 60
        E 120 80 55 00
        E 0 80 58 00
        E 0 80 61 00
        E 0 80 64 00
        E 0 90 60 60
        E 0 80 1a 00
        E 0 80 26 00
        E 0 90 18 60
        E 120 80 60 00
        E 0 90 3c 60
        E 0 90 40 60
        E 0 90 48 60
        E 0 90 4c 60
        E 0 90 54 60
        E 0 90 58 60
        E 0 90 60 60
        E 0 90 64 60
        E 0 80 18 00
        E 0 90 18 60
        E 0 90 26 60
        E 120 80 3c 00
        E 0 80 40 00
        E 0 80 48 00
        E 0 80 4c 00
        E 0 80 54 00
        E 0 80 58 00
        E 0 80 60 00
        E 0 80 64 00
        E 0 80 18 00
        E 0 80 26 00
        E 120 90 58 60
        E 0 90 64 60
        E 0 90 26 60
        E 120 80 58 00
        E 0 80 64 00
        E 0 90 60 60
        E 0 80 26 00
        E 0 90 18 60
        E 120 80 60 00
        E 0 90 49 60
        E 0 90 4c 60
        E 0 90 55 60
        E 0 90 58 60
        E 0 90 61 60
        E 0 90 64 60
        E 0 80 18 00
        E 0 90 1a 60
        E 0 90 26 60
        E 120 80 49 00
        E 0 80 4c 00
        E 0 80 55 00
        E 0 80 58 00
        E 0 80 61 00
        E 0 80 64 00
        E 0 90 60 60
        E 0 80 1a 00
        E 0 80 26 00
        E 0 90 18 60
        E 120 80 60 00
        E 0 90 55 60
        E 0 90 61 60
        E 0 80 18 00
        E 0 90 1b 60
        E 60 80 55 00
        E 0 80 61 00
        E 0 90 61 60
        E 0 80 1b 00
        E 0 90 1a 60
        E 60 80 61 00
        E 0 90 61 60
        E 0 80 1a 00
        E 0 90 1b 60
        E 60 80 61 00
        E 0 90 61 60
        E 0 80 1b 00
        E 0 90 1a 60
        E 60 80 61 00
        E 0 90 3c 60
        E 0 90 40 60
        E 0 90 48 60
        E 0 90 4c 60
        E 0 90 54 60
        E 0 90 58 60
        E 0 90 60 60
        E 0 90 64 60
        E 0 80 1a 00
        E 0 90 18 60
        E 0 90 26 60
        E 120 80 3c 00
        E 0 80 40 00
        E 0 80 48 00
        E 0 80 4c 00
        E 0 80 54 00
        E 0 80 58 00
        E 0 80 60 00
        E 0 80 64 00
        E 0 80 18 00
        E 0 80 26 00
        E 120 90 54 60
        E 0 90 58 60
        E 0 90 60 60
        E 0 90 64 60
        E 0 90 18 60
        E 0 90 26 60
        E 120 80 54 00
        E 0 80 58 00
        E 0 80 60 00
        E 0 80 64 00
        E 0 80 18 00
        E 0 80 26 00
        E 120 90 4c 60
        E 0 90 58 60
        E 0 90 64 60
        E 0 90 26 60
        E 120 80 4c 00
        E 0 80 58 00
        E 0 80 64 00
        E 0 90 60 60
        E 0 80 26 00
        E 0 90 18 60
        E 120 80 60 00
        E 0 90 55 60
        E 0 90 58 60
        E 0 90 61 60
        E 0 90 64 60
        E 0 80 18 00
        E 0 90 1a 60
        E 0 90 26 60
        E 120 80 55 00
        E 0 80 58 00
        E 0 80 61 00
        E 0 80 64 00
        E 0 90 60 60
        E 0 80 1a 00
        E 0 80 26 00
        E 0 90 18 60
        E 120 80 60 00
        E 0 90 3c 60
        E 0 90 40 60
        E 0 90 48 60
        E 0 90 4c 60
        E 0 90 54 60
        E 0 90 58 60
        E 0 90 60 60
        E 0 90 64 60
        E 0 80 18 00
        E 0 90 18 60
        E 0 90 26 60
        E 120 80 3c 00
        E 0 80 40 00
        E 0 80 48 00
        E 0 80 4c 00
        E 0 80 54 00
        E 0 80 58 00
        E 0 80 60 00
        E 0 80 64 00
        E 0 80 18 00
        E 0 80 26 00
        E 120 90 58 60
        E 0 90 64 60
        E 0 90 26 60
        E 120 80 58 00
        E 0 80 64 00
        E 0 80 26 00
        E 120 90 3c 60
        E 0 90 40 60
        E 0 90 48 60
        E 0 90 4c 60
        E 0 90 54 60
        E 0 90 58 60
        E 0 90 60 60
        E 0 90 64 60
        E 0 90 18 60
        E 0 90 26 60
        E 80 80 3c 00
        E 0 80 40 00
        E 0 80 48 00
        E 0 80 4c 00
        E 0 80 54 00
        E 0 80 58 00
        E 0 80 60 00
        E 0 80 64 00
        E 0 80 18 00
        E 0 80 26 00
        E 80 90 61 60
        E 0 90 1a 60
        E 80 80 61 00
        E 0 90 55 60
        E 0 90 61 60
        E 0 80 1a 00
        E 0 90 1b 60
        E 80 80 55 00
        E 0 80 61 00
        E 0 90 61 60
        E 0 80 1b 00
        E 0 90 1a 60
        E 80 80 61 00
        E 0 90 61 60
        E 0 80 1a 00
        E 0 90 1b 60
        E 80 80 61 00
        E 0 90 3c 60
        E 0 90 40 60
        E 0 90 48 60
        E 0 90 4c 60
        E 0 90 54 60
        E 0 90 58 60
        E 0 90 60 60
        E 0 90 64 60
        E 0 80 1b 00
        E 0 90 18 60
        E 0 90 2c 60
        E 120 80 3c 00
        E 0 80 40 00
        E 0 80 48 00
        E 0 80 4c 00
        E 0 80 54 00
        E 0 80 58 00
        E 0 80 60 00
        E 0 80 64 00
        E 0 80 18 00
        E 0 80 2c 00
        E 120 90 54 60
        E 0 90 58 60
        E 0 90 60 60
        E 0 90 64 60
        E 0 90 18 60
        E 0 90 26 60
        E 120 80 54 00
        E 0 80 58 00
        E 0 80 60 00
        E 0 80 64 00
        E 0 80 18 00
        E 0 80 26 00
        E 120 90 4c 60
        E 0 90 58 60
        E 0 90 64 60
        E 0 90 26 60
        E 120 80 4c 00
        E 0 80 58 00
        E 0 80 64 00
        E 0 90 60 60
        E 0 80 26 00
        E 0 90 18 60
        E 120 80 60 00
        E 0 90 55 60
        E 0 90 58 60
        E 0 90 61 60
        E 0 90 64 60
        E 0 80 18 00
        E 0 90 1a 60
        E 0 90 26 60
        E 120 80 55 00
        E 0 80 58 00
        E 0 80 61 00
        E 0 80 64 00
        E 0 90 60 60
        E 0 80 1a 00
        E 0 80 26 00
        E 0 90 18 60
        E 120 80 60 00
        E 0 90 3c 60
        E 0 90 40 60
        E 0 90 48 60
        E 0 90 4c 60
        E 0 90 54 60
        E 0 90 58 60
        E 0 90 60 60
        E 0 90 64 60
        E 0 80 18 00
        E 0 90 18 60
        E 0 90 26 60
        E 120 80 3c 00
        E 0 80 40 00
        E 0 80 48 00
        E 0 80 4c 00
        E 0 80 54 00
        E 0 80 58 00
        E 0 80 60 00
        E 0 80 64 00
        E 0 80 18 00
        E 0 80 26 00
        E 120 90 58 60
        E 0 90 64 60
        E 0 90 26 60
        E 120 80 58 00
        E 0 80 64 00
        E 0 90 60 60
        E 0 80 26 00
        E 0 90 18 60
        E 120 80 60 00
        E 0 90 49 60
        E 0 90 4c 60
        E 0 90 55 60
        E 0 90 58 60
        E 0 90 61 60
        E 0 90 64 60
        E 0 80 18 00
        E 0 90 1a 60
        E 0 90 26 60
        E 120 80 49 00
        E 0 80 4c 00
        E 0 80 55 00
        E 0 80 58 00
        E 0 80 61 00
        E 0 80 64 00
        E 0 90 60 60
        E 0 80 1a 00
        E 0 80 26 00
        E 0 90 18 60
        E 120 80 60 00
        E 0 90 54 60
        E 0 90 58 60
        E 0 90 60 60
        E 0 90 64 60
        E 0 80 18 00
        E 0 90 18 60
        E 0 90 26 60
        E 120 80 54 00
        E 0 80 58 00
        E 0 80 60 00
        E 0 80 64 00
        E 0 90 61 60
        E 0 80 18 00
        E 0 80 26 00
        E 0 90 1a 60
        E 120 80 61 00
        E 0 90 3c 60
        E 0 90 40 60
        E 0 90 48 60
        E 0 90 4c 60
        E 0 90 54 60
        E 0 90 58 60
        E 0 90 60 60
        E 0 90 64 60
        E 0 80 1a 00
        E 0 90 18 60
        E 0 90 26 60
        E 120 80 3c 00
        E 0 80 40 00
        E 0 80 48 00
        E 0 80 4c 00
        E 0 80 54 00
        E 0 80 58 00
        E 0 80 60 00
        E 0 80 64 00
        E 0 90 60 60
        E 0 80 18 00
        E 0 80 26 00
        E 0 90 18 60
        E 120 80 60 00
        E 0 90 55 60
        E 0 90 58 60
        E 0 90 61 60
        E 0 90 64 60
        E 0 80 18 00
        E 0 90 1a 60
        E 0 90 26 60
        E 120 80 55 00
        E 0 80 58 00
        E 0 80 61 00
        E 0 80 64 00
        E 0 90 60 60
        E 0 80 1a 00
        E 0 80 26 00
        E 0 90 18 60
        E 120 80 60 00
        E 0 90 48 60
        E 0 90 4c 60
        E 0 90 54 60
        E 0 90 58 60
        E 0 90 60 60
        E 0 90 64 60
        E 0 80 18 00
        E 0 90 18 60
        E 0 90 26 60
        E 120 80 48 00
        E 0 80 4c 00
        E 0 80 54 00
        E 0 80 58 00
        E 0 80 60 00
        E 0 80 64 00
        E 0 80 18 00
        E 0 80 26 00
        E 120 90 58 60
        E 0 90 64 60
        E 0 90 26 60
        E 120 80 58 00
        E 0 80 64 00
        E 0 90 60 60
        E 0 80 26 00
        E 0 90 18 60
        E 120 80 60 00
        E 0 90 3d 60
        E 0 90 49 60
        E 0 90 4c 60
        E 0 90 55 60
        E 0 90 58 60
        E 0 90 61 60
        E 0 90 64 60
        E 0 80 18 00
        E 0 90 1a 60
        E 0 90 26 60
        E 120 80 3d 00
        E 0 80 49 00
        E 0 80 4c 00
        E 0 80 55 00
        E 0 80 58 00
        E 0 80 61 00
        E 0 80 64 00
        E 0 90 61 60
        E 0 80 1a 00
        E 0 80 26 00
        E 0 90 1a 60
        E 60 80 61 00
        E 0 90 61 60
        E 0 80 1a 00
        E 0 90 1b 60
        E 60 80 61 00
        E 0 90 55 60
        E 0 90 61 60
        E 0 80 1b 00
        E 0 90 1a 60
        E 120 80 55 00
        E 0 80 61 00
        E 0 90 61 60
        E 0 80 1a 00
        E 0 90 1b 60
        E 120 80 61 00
        E 0 80 1b 00
        E 120 90 61 60
        E 0 90 1a 60
        E 120 80 61 00
        E 0 90 55 60
        E 0 90 61 60
        E 0 80 1a 00
        E 0 90 1b 60
        E 120 80 55 00
        E 0 80 61 00
        E 0 90 61 60
        E 0 80 1b 00
        E 0 90 1a 60
        E 120 80 61 00
        E 0 90 3c 60
        E 0 90 40 60
        E 0 90 48 60
        E 0 90 4c 60
        E 0 90 54 60
        E 0 90 58 60
        E 0 90 60 60
        E 0 90 64 60
        E 0 80 1a 00
        E 0 90 18 60
        E 0 90 26 60
        E 120 80 3c 00
        E 0 80 40 00
        E 0 80 48 00
        E 0 80 4c 00
        E 0 80 54 00
        E 0 80 58 00
        E 0 80 60 00
        E 0 80 64 00
        E 0 80 18 00
        E 0 80 26 00
        E 120 90 54 60
        E 0 90 58 60
        E 0 90 60 60
        E 0 90 64 60
        E 0 90 18 60
        E 0 90 26 60
        E 120 80 54 00
        E 0 80 58 00
        E 0 80 60 00
        E 0 80 64 00
        E 0 90 61 60
        E 0 80 18 00
        E 0 80 26 00
        E 0 90 1a 60
        E 120 80 61 00
        E 0 90 4c 60
        E 0 90 58 60
        E 0 90 64 60
        E 0 80 1a 00
        E 0 90 26 60
        E 120 80 4c 00
        E 0 80 58 00
        E 0 80 64 00
        E 0 90 60 60
        E 0 80 26 00
        E 0 90 18 60
        E 120 80 60 00
        E 0 90 55 60
        E 0 90 58 60
        E 0 90 61 60
        E 0 90 64 60
        E 0 80 18 00
        E 0 90 1a 60
        E 0 90 26 60
        E 120 80 55 00
        E 0 80 58 00
        E 0 80 61 00
        E 0 80 64 00
        E 0 90 60 60
        E 0 80 1a 00
        E 0 80 26 00
        E 0 90 18 60
        E 120 80 60 00
        E 0 90 3c 60
        E 0 90 40 60
        E 0 90 48 60
        E 0 90 4c 60
        E 0 90 54 60
        E 0 90 58 60
        E 0 90 60 60
        E 0 90 64 60
        E 0 80 18 00
        E 0 90 18 60
        E 0 90 26 60
        E 120 80 3c 00
        E 0 80 40 00
        E 0 80 48 00
        E 0 80 4c 00
        E 0 80 54 00
        E 0 80 58 00
        E 0 80 60 00
        E 0 80 64 00
        E 0 80 18 00
        E 0 80 26 00
        E 120 90 58 60
        E 0 90 64 60
        E 0 90 26 60
        E 120 80 58 00
        E 0 80 64 00
        E 0 90 60 60
        E 0 80 26 00
        E 0 90 18 60
        E 120 80 60 00
        E 0 90 49 60
        E 0 90 4c 60
        E 0 90 55 60
        E 0 90 58 60
        E 0 90 61 60
        E 0 90 64 60
        E 0 80 18 00
        E 0 90 1a 60
        E 0 90 26 60
        E 120 80 49 00
        E 0 80 4c 00
        E 0 80 55 00
        E 0 80 58 00
        E 0 80 61 00
        E 0 80 64 00
        E 0 90 60 60
        E 0 80 1a 00
        E 0 80 26 00
        E 0 90 18 60
        E 120 80 60 00
        E 0 90 55 60
        E 0 90 61 60
        E 0 80 18 00
        E 0 90 1b 60
        E 60 80 55 00
        E 0 80 61 00
        E 0 90 61 60
        E 0 80 1b 00
        E 0 90 1a 60
        E 60 80 61 00
        E 0 90 61 60
        E 0 80 1a 00
        E 0 90 1b 60
        E 60 80 61 00
        E 0 90 61 60
        E 0 80 1b 00
        E 0 90 1a 60
        E 60 80 61 00
        E 0 90 3c 60
        E 0 90 40 60
        E 0 90 48 60
        E 0 90 4c 60
        E 0 90 54 60
        E 0 90 58 60
        E 0 90 60 60
        E 0 90 64 60
        E 0 80 1a 00
        E 0 90 18 60
        E 0 90 26 60
        E 120 80 3c 00
        E 0 80 40 00
        E 0 80 48 00
        E 0 80 4c 00
        E 0 80 54 00
        E 0 80 58 00
        E 0 80 60 00
        E 0 80 64 00
        E 0 80 18 00
        E 0 80 26 00
        E 120 90 54 60
        E 0 90 58 60
        E 0 90 60 60
        E 0 90 64 60
        E 0 90 18 60
        E 0 90 26 60
        E 120 80 54 00
        E 0 80 58 00
        E 0 80 60 00
        E 0 80 64 00
        E 0 80 18 00
        E 0 80 26 00
        E 120 90 4c 60
        E 0 90 58 60
        E 0 90 64 60
        E 0 90 26 60
        E 120 80 4c 00
        E 0 80 58 00
        E 0 80 64 00
        E 0 90 60 60
        E 0 80 26 00
        E 0 90 18 60
        E 120 80 60 00
        E 0 90 55 60
        E 0 90 58 60
        E 0 90 61 60
        E 0 90 64 60
        E 0 80 18 00
        E 0 90 1a 60
        E 0 90 26 60
        E 120 80 55 00
        E 0 80 58 00
        E 0 80 61 00
        E 0 80 64 00
        E 0 90 60 60
        E 0 80 1a 00
        E 0 80 26 00
        E 0 90 18 60
        E 120 80 60 00
        E 0 90 3c 60
        E 0 90 40 60
        E 0 90 48 60
        E 0 90 4c 60
        E 0 90 54 60
        E 0 90 58 60
        E 0 90 60 60
        E 0 90 64 60
        E 0 80 18 00
        E 0 90 18 60
        E 0 90 26 60
        E 120 80 3c 00
        E 0 80 40 00
        E 0 80 48 00
        E 0 80 4c 00
        E 0 80 54 00
        E 0 80 58 00
        E 0 80 60 00
        E 0 80 64 00
        E 0 90 61 60
        E 0 80 18 00
        E 0 80 26 00
        E 0 90 1a 60
        E 120 80 61 00
        E 0 90 58 60
        E 0 90 64 60
        E 0 80 1a 00
        E 0 90 26 60
        E 120 80 58 00
        E 0 80 64 00
        E 0 90 60 60
        E 0 80 26 00
        E 0 90 18 60
        E 120 80 60 00
        E 0 90 49 60
        E 0 90 4c 60
        E 0 90 55 60
        E 0 90 58 60
        E 0 90 61 60
        E 0 90 64 60
        E 0 80 18 00
        E 0 90 1a 60
        E 0 90 26 60
        E 120 80 49 00
        E 0 80 4c 00
        E 0 80 55 00
        E 0 80 58 00
        E 0 80 61 00
        E 0 80 64 00
        E 0 80 1a 00
        E 0 80 26 00
        E 120 90 57 60
        E 0 90 63 60
        E 0 90 6f 60
        E 0 90 31 60
        E 60 80 57 00
        E 0 80 63 00
        E 0 80 6f 00
        E 0 90 63 60
        E 0 90 6f 60
        E 0 80 31 00
        E 0 90 30 60
        E 60 80 63 00
        E 0 80 6f 00
        E 0 90 63 60
        E 0 90 6f 60
        E 0 80 30 00
        E 0 90 31 60
        E 60 80 63 00
        E 0 80 6f 00
        E 0 90 63 60
        E 0 90 6f 60
        E 0 80 31 00
        E 0 90 30 60
        E 60 80 63 00
        E 0 80 6f 00
        E 0 90 3c 60
        E 0 90 40 60
        E 0 90 48 60
        E 0 90 4c 60
        E 0 90 54 60
        E 0 90 58 60
        E 0 90 60 60
        E 0 90 64 60
        E 0 80 30 00
        E 0 90 18 60
        E 0 90 26 60
        E 120 80 3c 00
        E 0 80 40 00
        E 0 80 48 00
        E 0 80 4c 00
        E 0 80 54 00
        E 0 80 58 00
        E 0 80 60 00
        E 0 80 64 00
        E 0 80 18 00
        E 0 80 26 00
        E 120 90 54 60
        E 0 90 58 60
        E 0 90 60 60
        E 0 90 64 60
        E 0 90 18 60
        E 0 90 26 60
        E 120 80 54 00
        E 0 80 58 00
        E 0 80 60 00
        E 0 80 64 00
        E 0 80 18 00
        E 0 80 26 00
        E 120 90 4c 60
        E 0 90 58 60
        E 0 90 64 60
        E 0 90 26 60
        E 120 80 4c 00
        E 0 80 58 00
        E 0 80 64 00
        E 0 90 60 60
        E 0 80 26 00
        E 0 90 18 60
        E 120 80 60 00
        E 0 90 55 60
        E 0 90 58 60
        E 0 90 61 60
        E 0 90 64 60
        E 0 80 18 00
        E 0 90 1a 60
        E 0 90 26 60
        E 120 80 55 00
        E 0 80 58 00
        E 0 80 61 00
        E 0 80 64 00
        E 0 90 60 60
        E 0 80 1a 00
        E 0 80 26 00
        E 0 90 18 60
        E 120 80 60 00
        E 0 90 3c 60
        E 0 90 40 60
        E 0 90 48 60
        E 0 90 4c 60
        E 0 90 54 60
        E 0 90 58 60
        E 0 90 60 60
        E 0 90 64 60
        E 0 80 18 00
        E 0 90 18 60
        E 0 90 26 60
        E 120 80 3c 00
        E 0 80 40 00
        E 0 80 48 00
        E 0 80 4c 00
        E 0 80 54 00
        E 0 80 58 00
        E 0 80 60 00
        E 0 80 64 00
        E 0 80 18 00
        E 0 80 26 00
        E 120 90 58 60
        E 0 90 64 60
        E 0 90 26 60
        E 120 80 58 00
        E 0 80 64 00
        E 0 90 60 60
        E 0 80 26 00
        E 0 90 18 60
        E 120 80 60 00
        E 0 90 49 60
        E 0 90 4c 60
        E 0 90 55 60
        E 0 90 58 60
        E 0 90 61 60
        E 0 90 64 60
        E 0 80 18 00
        E 0 90 1a 60
        E 0 90 26 60
        E 120 80 49 00
        E 0 80 4c 00
        E 0 80 55 00
        E 0 80 58 00
        E 0 80 61 00
        E 0 80 64 00
        E 0 90 60 60
        E 0 80 1a 00
        E 0 80 26 00
        E 0 90 18 60
        E 120 80 60 00
        E 0 90 54 60
        E 0 90 58 60
        E 0 90 60 60
        E 0 90 64 60
        E 0 80 18 00
        E 0 90 18 60
        E 0 90 26 60
        E 120 80 54 00
        E 0 80 58 00
        E 0 80 60 00
        E 0 80 64 00
        E 0 90 61 60
        E 0 80 18 00
        E 0 80 26 00
        E 0 90 1a 60
        E 120 80 61 00
        E 0 90 40 60
        E 0 90 4c 60
        E 0 90 58 60
        E 0 90 64 60
        E 0 80 1a 00
        E 0 90 26 60
        E 120 80 40 00
        E 0 80 4c 00
        E 0 80 58 00
        E 0 80 64 00
        E 0 90 60 60
        E 0 80 26 00
        E 0 90 18 60
        E 120 80 60 00
        E 0 90 55 60
        E 0 90 58 60
        E 0 90 61 60
        E 0 90 64 60
        E 0 80 18 00
        E 0 90 1a 60
        E 0 90 26 60
        E 120 80 55 00
        E 0 80 58 00
        E 0 80 61 00
        E 0 80 64 00
        E 0 90 61 60
        E 0 80 1a 00
        E 0 80 26 00
        E 0 90 1a 60
        E 60 80 61 00
        E 0 90 61 60
        E 0 80 1a 00
        E 0 90 1b 60
        E 60 80 61 00
        E 0 90 49 60
        E 0 90 55 60
        E 0 90 61 60
        E 0 80 1b 00
        E 0 90 1a 60
        E 120 80 49 00
        E 0 80 55 00
        E 0 80 61 00
        E 0 90 61 60
        E 0 80 1a 00
        E 0 90 1b 60
        E 120 80 61 00
        E 0 90 55 60
        E 0 90 61 60
        E 0 80 1b 00
        E 0 90 1a 60
        E 120 80 55 00
        E 0 80 61 00
        E 0 90 60 60
        E 0 80 1a 00
        E 0 90 18 60
        E 120 80 60 00
        E 0 90 3d 60
        E 0 90 49 60
        E 0 90 4c 60
        E 0 90 55 60
        E 0 90 58 60
        E 0 90 61 60
        E 0 90 64 60
        E 0 80 18 00
        E 0 90 1a 60
        E 0 90 26 60
        E 120 80 3d 00
        E 0 80 49 00
        E 0 80 4c 00
        E 0 80 55 00
        E 0 80 58 00
        E 0 80 61 00
        E 0 80 64 00
        E 0 90 60 60
        E 0 80 1a 00
        E 0 80 26 00
        E 0 90 18 60
        E 120 80 60 00
        E 0 90 56 60
        E 0 90 57 60
        E 0 90 62 60
        E 0 90 63 60
        E 0 90 6e 60
        E 0 90 6f 60
        E 0 80 18 00
        E 0 90 31 60
        E 0 90 2e 60
        E 120 80 56 00
        E 0 80 57 00
        E 0 80 62 00
        E 0 80 63 00
        E 0 80 6e 00
        E 0 80 6f 00
        E 0 90 60 60
        E 0 80 31 00
        E 0 80 2e 00
        E 0 90 18 60
        E 120 80 60 00
        E 0 90 4b 60
        E 0 90 4c 60
        E 0 90 57 60
        E 0 90 58 60
        E 0 90 63 60
        E 0 90 64 60
        E 0 90 6f 60
        E 0 90 70 60
        E 0 80 18 00
        E 0 90 33 60
        E 0 90 30 60
        E 120 80 4b 00
        E 0 80 4c 00
        E 0 80 57 00
        E 0 80 58 00
        E 0 80 63 00
        E 0 80 64 00
        E 0 80 6f 00
        E 0 80 70 00
        E 0 90 60 60
        E 0 80 33 00
        E 0 80 30 00
        E 0 90 18 60
        E 120 80 60 00
        E 0 90 58 60
        E 0 90 64 60
        E 0 90 70 60
        E 0 80 18 00
        E 0 90 33 60
        E 120 80 58 00
        E 0 80 64 00
        E 0 80 70 00
        E 0 90 64 60
        E 0 90 70 60
        E 0 80 33 00
        E 0 90 32 60
        E 120 80 64 00
        E 0 80 70 00
        E 0 90 3c 60
        E 0 90 40 60
        E 0 90 48 60
        E 0 90 4c 60
        E 0 90 54 60
        E 0 90 58 60
        E 0 90 60 60
        E 0 90 64 60
        E 0 80 32 00
        E 0 90 18 60
        E 0 90 26 60
        E 120 80 3c 00
        E 0 80 40 00
        E 0 80 48 00
        E 0 80 4c 00
        E 0 80 54 00
        E 0 80 58 00
        E 0 80 60 00
        E 0 80 64 00
        E 0 80 18 00
        E 0 80 26 00
        E 240 90 60 60
        E 0 90 18 60
        E 120 80 60 00
        E 0 90 49 60
        E 0 90 4a 60
        E 0 90 55 60
        E 0 90 56 60
        E 0 90 61 60
        E 0 90 62 60
        E 0 90 6e 60
        E 0 80 18 00
        E 0 90 1a 60
        E 0 90 1b 60
        E 120 80 49 00
        E 0 80 4a 00
        E 0 80 55 00
        E 0 80 56 00
        E 0 80 61 00
        E 0 80 62 00
        E 0 80 6e 00
        E 0 90 60 60
        E 0 80 1a 00
        E 0 80 1b 00
        E 0 90 18 60
        E 120 80 60 00
        E 0 90 56 60
        E 0 90 62 60
        E 0 90 6e 60
        E 0 80 18 00
        E 0 90 2f 60
        E 120 80 56 00
        E 0 80 62 00
        E 0 80 6e 00
        E 0 90 62 60
        E 0 90 6e 60
        E 0 80 2f 00
        E 0 90 2e 60
        E 120 80 62 00
        E 0 80 6e 00
        E 0 90 3f 60
        E 0 90 4b 60
        E 0 90 57 60
        E 0 90 63 60
        E 0 90 6f 60
        E 0 80 2e 00
        E 0 90 31 60
        E 120 80 3f 00
        E 0 80 4b 00
        E 0 80 57 00
        E 0 80 63 00
        E 0 80 6f 00
        E 0 90 63 60
        E 0 90 6f 60
        E 0 80 31 00
        E 0 90 30 60
        E 120 80 63 00
        E 0 80 6f 00
        E 0 90 58 60
        E 0 90 64 60
        E 0 90 70 60
        E 0 80 30 00
        E 0 90 33 60
        E 120 80 58 00
        E 0 80 64 00
        E 0 80 70 00
        E 0 90 60 60
        E 0 80 33 00
        E 0 90 18 60
        E 120 80 60 00
        E 0 90 49 60
        E 0 90 4a 60
        E 0 90 55 60
        E 0 90 56 60
        E 0 90 61 60
        E 0 90 62 60
        E 0 90 6e 60
        E 0 80 18 00
        E 0 90 1a 60
        E 0 90 1b 60
        E 120 80 49 00
        E 0 80 4a 00
        E 0 80 55 00
        E 0 80 56 00
        E 0 80 61 00
        E 0 80 62 00
        E 0 80 6e 00
        E 0 90 60 60
        E 0 80 1a 00
        E 0 80 1b 00
        E 0 90 18 60
        E 120 80 60 00
        E 0 90 56 60
        E 0 90 62 60
        E 0 90 6e 60
        E 0 80 18 00
        E 0 90 2f 60
        E 80 80 56 00
        E 0 80 62 00
        E 0 80 6e 00
        E 0 90 62 60
        E 0 90 6e 60
        E 0 80 2f 00
        E 0 90 2e 60
        E 80 80 62 00
        E 0 80 6e 00
        E 0 90 62 60
        E 0 90 6e 60
        E 0 80 2e 00
        E 0 90 2f 60
        E 80 80 62 00
        E 0 80 6e 00
        E 0 90 3f 60
        E 0 90 4b 60
        E 0 90 57 60
        E 0 90 63 60
        E 0 90 6f 60
        E 0 80 2f 00
        E 0 90 30 60
        E 120 80 3f 00
        E 0 80 4b 00
        E 0 80 57 00
        E 0 80 63 00
        E 0 80 6f 00
        E 0 90 63 60
        E 0 90 6f 60
        E 0 80 30 00
        E 0 90 31 60
        E 120 80 63 00
        E 0 80 6f 00
        E 0 90 58 60
        E 0 90 64 60
        E 0 90 70 60
        E 0 80 31 00
        E 0 90 32 60
        E 120 80 58 00
        E 0 80 64 00
        E 0 80 70 00
        E 0 90 60 60
        E 0 80 32 00
        E 0 90 18 60
        E 120 80 60 00
        E 0 90 49 60
        E 0 90 4a 60
        E 0 90 55 60
        E 0 90 56 60
        E 0 90 61 60
        E 0 90 62 60
        E 0 90 6e 60
        E 0 80 18 00
        E 0 90 1a 60
        E 0 90 1b 60
        E 120 80 49 00
        E 0 80 4a 00
        E 0 80 55 00
        E 0 80 56 00
        E 0 80 61 00
        E 0 80 62 00
        E 0 80 6e 00
        E 0 90 60 60
        E 0 80 1a 00
        E 0 80 1b 00
        E 0 90 18 60
        E 120 80 60 00
        E 0 90 56 60
        E 0 90 62 60
        E 0 90 6e 60
        E 0 80 18 00
        E 0 90 2f 60
        E 120 80 56 00
        E 0 80 62 00
        E 0 80 6e 00
        E 0 90 62 60
        E 0 90 6e 60
        E 0 80 2f 00
        E 0 90 2e 60
        E 120 80 62 00
        E 0 80 6e 00
        E 0 90 3f 60
        E 0 90 4b 60
        E 0 90 57 60
        E 0 90 63 60
        E 0 90 6f 60
        E 0 80 2e 00
        E 0 90 31 60
        E 120 80 3f 00
        E 0 80 4b 00
        E 0 80 57 00
        E 0 80 63 00
        E 0 80 6f 00
        E 0 90 63 60
        E 0 90 6f 60
        E 0 80 31 00
        E 0 90 30 60
        E 120 80 63 00
        E 0 80 6f 00
        E 0 90 58 60
        E 0 90 64 60
        E 0 90 70 60
        E 0 80 30 00
        E 0 90 33 60
        E 120 80 58 00
        E 0 80 64 00
        E 0 80 70 00
        E 0 90 60 60
        E 0 80 33 00
        E 0 90 18 60
        E 120 80 60 00
        E 0 90 49 60
        E 0 90 4a 60
        E 0 90 55 60
        E 0 90 56 60
        E 0 90 61 60
        E 0 90 62 60
        E 0 90 6e 60
        E 0 80 18 00
        E 0 90 1a 60
        E 0 90 1b 60
        E 120 80 49 00
        E 0 80 4a 00
        E 0 80 55 00
        E 0 80 56 00
        E 0 80 61 00
        E 0 80 62 00
        E 0 80 6e 00
        E 0 90 60 60
        E 0 80 1a 00
        E 0 80 1b 00
        E 0 90 18 60
        E 120 80 60 00
        E 0 90 56 60
        E 0 90 62 60
        E 0 90 6e 60
        E 0 80 18 00
        E 0 90 2f 60
        E 80 80 56 00
        E 0 80 62 00
        E 0 80 6e 00
        E 0 80 2f 00
        E 40 90 64 60
        E 0 90 26 60
        E 120 80 64 00
        E 0 90 3c 60
        E 0 90 40 60
        E 0 90 48 60
        E 0 90 4c 60
        E 0 90 54 60
        E 0 90 58 60
        E 0 90 60 60
        E 0 90 64 60
        E 0 80 26 00
        E 0 90 18 60
        E 0 90 26 60
        E 120 80 3c 00
        E 0 80 40 00
        E 0 80 48 00
        E 0 80 4c 00
        E 0 80 54 00
        E 0 80 58 00
        E 0 80 60 00
        E 0 80 64 00
        E 0 80 18 00
        E 0 80 26 00
        E 240 90 60 60
        E 0 90 18 60
        E 120 80 60 00
        E 0 90 49 60
        E 0 90 4a 60
        E 0 90 55 60
        E 0 90 56 60
        E 0 90 61 60
        E 0 90 62 60
        E 0 90 6e 60
        E 0 80 18 00
        E 0 90 1a 60
        E 0 90 1b 60
        E 120 80 49 00
        E 0 80 4a 00
        E 0 80 55 00
        E 0 80 56 00
        E 0 80 61 00
        E 0 80 62 00
        E 0 80 6e 00
        E 0 90 60 60
        E 0 80 1a 00
        E 0 80 1b 00
        E 0 90 18 60
        E 120 80 60 00
        E 0 90 56 60
        E 0 90 62 60
        E 0 90 6e 60
        E 0 80 18 00
        E 0 90 2f 60
        E 120 80 56 00
        E 0 80 62 00
        E 0 80 6e 00
        E 0 90 62 60
        E 0 90 6e 60
        E 0 80 2f 00
        E 0 90 2e 60
        E 120 80 62 00
        E 0 80 6e 00
        E 0 90 3f 60
        E 0 90 4b 60
        E 0 90 57 60
        E 0 90 63 60
        E 0 90 6f 60
        E 0 80 2e 00
        E 0 90 31 60
        E 120 80 3f 00
        E 0 80 4b 00
        E 0 80 57 00
        E 0 80 63 00
        E 0 80 6f 00
        E 0 90 63 60
        E 0 90 6f 60
        E 0 80 31 00
        E 0 90 30 60
        E 120 80 63 00
        E 0 80 6f 00
        E 0 90 58 60
        E 0 90 64 60
        E 0 90 70 60
        E 0 80 30 00
        E 0 90 33 60
        E 120 80 58 00
        E 0 80 64 00
        E 0 80 70 00
        E 0 90 60 60
        E 0 80 33 00
        E 0 90 18 60
        E 120 80 60 00
        E 0 90 49 60
        E 0 90 4a 60
        E 0 90 55 60
        E 0 90 56 60
        E 0 90 61 60
        E 0 90 62 60
        E 0 90 6e 60
        E 0 80 18 00
        E 0 90 1a 60
        E 0 90 1b 60
        E 120 80 49 00
        E 0 80 4a 00
        E 0 80 55 00
        E 0 80 56 00
        E 0 80 61 00
        E 0 80 62 00
        E 0 80 6e 00
        E 0 90 60 60
        E 0 80 1a 00
        E 0 80 1b 00
        E 0 90 18 60
        E 120 80 60 00
        E 0 90 56 60
        E 0 90 62 60
        E 0 90 6e 60
        E 0 80 18 00
        E 0 90 2f 60
        E 60 80 56 00
        E 0 80 62 00
        E 0 80 6e 00
        E 0 90 62 60
        E 0 90 6e 60
        E 0 80 2f 00
        E 0 90 2e 60
        E 60 80 62 00
        E 0 80 6e 00
        E 0 90 62 60
        E 0 90 6e 60
        E 0 80 2e 00
        E 0 90 2f 60
        E 60 80 62 00
        E 0 80 6e 00
        E 0 90 62 60
        E 0 90 6e 60
        E 0 80 2f 00
        E 0 90 2e 60
        E 60 80 62 00
        E 0 80 6e 00
        E 0 90 3f 60
        E 0 90 4b 60
        E 0 90 57 60
        E 0 90 63 60
        E 0 90 6f 60
        E 0 80 2e 00
        E 0 90 31 60
        E 120 80 3f 00
        E 0 80 4b 00
        E 0 80 57 00
        E 0 80 63 00
        E 0 80 6f 00
        E 0 90 63 60
        E 0 90 6f 60
        E 0 80 31 00
        E 0 90 30 60
        E 120 80 63 00
        E 0 80 6f 00
        E 0 90 58 60
        E 0 90 64 60
        E 0 90 70 60
        E 0 80 30 00
        E 0 90 33 60
        E 120 80 58 00
        E 0 80 64 00
        E 0 80 70 00
        E 0 90 60 60
        E 0 80 33 00
        E 0 90 18 60
        E 120 80 60 00
        E 0 90 49 60
        E 0 90 4a 60
        E 0 90 55 60
        E 0 90 56 60
        E 0 90 61 60
        E 0 90 62 60
        E 0 90 6e 60
        E 0 80 18 00
        E 0 90 1a 60
        E 0 90 1b 60
        E 120 80 49 00
        E 0 80 4a 00
        E 0 80 55 00
        E 0 80 56 00
        E 0 80 61 00
        E 0 80 62 00
        E 0 80 6e 00
        E 0 90 60 60
        E 0 80 1a 00
        E 0 80 1b 00
        E 0 90 18 60
        E 120 80 60 00
        E 0 90 56 60
        E 0 90 62 60
        E 0 90 6e 60
        E 0 80 18 00
        E 0 90 2f 60
        E 60 80 56 00
        E 0 80 62 00
        E 0 80 6e 00
        E 0 90 62 60
        E 0 90 6e 60
        E 0 80 2f 00
        E 0 90 2e 60
        E 60 80 62 00
        E 0 80 6e 00
        E 0 90 62 60
        E 0 90 6e 60
        E 0 80 2e 00
        E 0 90 2f 60
        E 60 80 62 00
        E 0 80 6e 00
        E 0 90 62 60
        E 0 90 6e 60
        E 0 80 2f 00
        E 0 90 2e 60
        E 60 80 62 00
        E 0 80 6e 00
        E 0 90 3f 60
        E 0 90 4b 60
        E 0 90 57 60
        E 0 90 63 60
        E 0 90 6f 60
        E 0 80 2e 00
        E 0 90 31 60
        E 120 80 3f 00
        E 0 80 4b 00
        E 0 80 57 00
        E 0 80 63 00
        E 0 80 6f 00
        E 0 90 63 60
        E 0 90 6f 60
        E 0 80 31 00
        E 0 90 30 60
        E 120 80 63 00
        E 0 80 6f 00
        E 0 90 58 60
        E 0 90 64 60
        E 0 90 70 60
        E 0 80 30 00
        E 0 90 33 60
        E 120 80 58 00
        E 0 80 64 00
        E 0 80 70 00
        E 0 90 60 60
        E 0 80 33 00
        E 0 90 18 60
        E 120 80 60 00
        E 0 90 49 60
        E 0 90 4a 60
        E 0 90 55 60
        E 0 90 56 60
        E 0 90 61 60
        E 0 90 62 60
        E 0 90 6e 60
        E 0 80 18 00
        E 0 90 1a 60
        E 0 90 1b 60
        E 120 80 49 00
        E 0 80 4a 00
        E 0 80 55 00
        E 0 80 56 00
        E 0 80 61 00
        E 0 80 62 00
        E 0 80 6e 00
        E 0 90 60 60
        E 0 80 1a 00
        E 0 80 1b 00
        E 0 90 18 60
        E 120 80 60 00
        E 0 90 56 60
        E 0 90 62 60
        E 0 90 6e 60
        E 0 80 18 00
        E 0 90 2f 60
        E 120 80 56 00
        E 0 80 62 00
        E 0 80 6e 00
        E 0 90 62 60
        E 0 90 6e 60
        E 0 80 2f 00
        E 0 90 2e 60
        E 120 80 62 00
        E 0 80 6e 00
        E 0 90 3c 60
        E 0 90 40 60
        E 0 90 48 60
        E 0 90 4c 60
        E 0 90 54 60
        E 0 90 58 60
        E 0 90 60 60
        E 0 90 64 60
        E 0 80 2e 00
        E 0 90 18 60
        E 0 90 26 60
        E 120 80 3c 00
        E 0 80 40 00
        E 0 80 48 00
        E 0 80 4c 00
        E 0 80 54 00
        E 0 80 58 00
        E 0 80 60 00
        E 0 80 64 00
        E 0 80 18 00
        E 0 80 26 00
        E 240 90 60 60
        E 0 90 18 60
        E 120 80 60 00
        E 0 90 49 60
        E 0 90 4a 60
        E 0 90 55 60
        E 0 90 56 60
        E 0 90 61 60
        E 0 90 62 60
        E 0 90 6e 60
        E 0 80 18 00
        E 0 90 1a 60
        E 0 90 1b 60
        E 120 80 49 00
        E 0 80 4a 00
        E 0 80 55 00
        E 0 80 56 00
        E 0 80 61 00
        E 0 80 62 00
        E 0 80 6e 00
        E 0 90 60 60
        E 0 80 1a 00
        E 0 80 1b 00
        E 0 90 18 60
        E 120 80 60 00
        E 0 90 56 60
        E 0 90 62 60
        E 0 90 6e 60
        E 0 80 18 00
        E 0 90 2f 60
        E 60 80 56 00
        E 0 80 62 00
        E 0 80 6e 00
        E 0 90 62 60
        E 0 90 6e 60
        E 0 80 2f 00
        E 0 90 2e 60
        E 60 80 62 00
        E 0 80 6e 00
        E 0 90 62 60
        E 0 90 6e 60
        E 0 80 2e 00
        E 0 90 2f 60
        E 60 80 62 00
        E 0 80 6e 00
        E 0 90 62 60
        E 0 90 6e 60
        E 0 80 2f 00
        E 0 90 2e 60
        E 60 80 62 00
        E 0 80 6e 00
        E 0 90 3f 60
        E 0 90 4b 60
        E 0 90 57 60
        E 0 90 63 60
        E 0 90 6f 60
        E 0 80 2e 00
        E 0 90 31 60
        E 120 80 3f 00
        E 0 80 4b 00
        E 0 80 57 00
        E 0 80 63 00
        E 0 80 6f 00
        E 0 90 63 60
        E 0 90 6f 60
        E 0 80 31 00
        E 0 90 30 60
        E 120 80 63 00
        E 0 80 6f 00
        E 0 90 58 60
        E 0 90 64 60
        E 0 90 70 60
        E 0 80 30 00
        E 0 90 33 60
        E 120 80 58 00
        E 0 80 64 00
        E 0 80 70 00
        E 0 90 60 60
        E 0 80 33 00
        E 0 90 18 60
        E 120 80 60 00
        E 0 90 49 60
        E 0 90 4a 60
        E 0 90 55 60
        E 0 90 56 60
        E 0 90 61 60
        E 0 90 62 60
        E 0 90 6e 60
        E 0 80 18 00
        E 0 90 1a 60
        E 0 90 1b 60
        E 120 80 49 00
        E 0 80 4a 00
        E 0 80 55 00
        E 0 80 56 00
        E 0 80 61 00
        E 0 80 62 00
        E 0 80 6e 00
        E 0 90 60 60
        E 0 80 1a 00
        E 0 80 1b 00
        E 0 90 18 60
        E 120 80 60 00
        E 0 90 56 60
        E 0 90 62 60
        E 0 90 6e 60
        E 0 80 18 00
        E 0 90 2f 60
        E 120 80 56 00
        E 0 80 62 00
        E 0 80 6e 00
        E 0 90 62 60
        E 0 90 6e 60
        E 0 80 2f 00
        E 0 90 2e 60
        E 120 80 62 00
        E 0 80 6e 00
        E 0 90 3f 60
        E 0 90 4b 60
        E 0 90 57 60
        E 0 90 63 60
        E 0 90 6f 60
        E 0 80 2e 00
        E 0 90 31 60
        E 120 80 3f 00
        E 0 80 4b 00
        E 0 80 57 00
        E 0 80 63 00
        E 0 80 6f 00
        E 0 90 63 60
        E 0 90 6f 60
        E 0 80 31 00
        E 0 90 30 60
        E 120 80 63 00
        E 0 80 6f 00
        E 0 90 58 60
        E 0 90 64 60
        E 0 90 70 60
        E 0 80 30 00
        E 0 90 33 60
        E 120 80 58 00
        E 0 80 64 00
        E 0 80 70 00
        E 0 90 60 60
        E 0 80 33 00
        E 0 90 18 60
        E 120 80 60 00
        E 0 90 49 60
        E 0 90 4a 60
        E 0 90 55 60
        E 0 90 56 60
        E 0 90 61 60
        E 0 90 62 60
        E 0 90 6e 60
        E 0 80 18 00
        E 0 90 1a 60
        E 0 90 1b 60
        E 120 80 49 00
        E 0 80 4a 00
        E 0 80 55 00
        E 0 80 56 00
        E 0 80 61 00
        E 0 80 62 00
        E 0 80 6e 00
        E 0 90 60 60
        E 0 80 1a 00
        E 0 80 1b 00
        E 0 90 18 60
        E 120 80 60 00
        E 0 90 56 60
        E 0 90 62 60
        E 0 90 6e 60
        E 0 80 18 00
        E 0 90 2f 60
        E 80 80 56 00
        E 0 80 62 00
        E 0 80 6e 00
        E 0 90 62 60
        E 0 90 6e 60
        E 0 80 2f 00
        E 0 90 2e 60
        E 80 80 62 00
        E 0 80 6e 00
        E 0 90 62 60
        E 0 90 6e 60
        E 0 80 2e 00
        E 0 90 2f 60
        E 80 80 62 00
        E 0 80 6e 00
        E 0 90 3f 60
        E 0 90 4b 60
        E 0 90 57 60
        E 0 90 63 60
        E 0 90 6f 60
        E 0 80 2f 00
        E 0 90 30 60
        E 120 80 3f 00
        E 0 80 4b 00
        E 0 80 57 00
        E 0 80 63 00
        E 0 80 6f 00
        E 0 90 63 60
        E 0 90 6f 60
        E 0 80 30 00
        E 0 90 31 60
        E 120 80 63 00
        E 0 80 6f 00
        E 0 90 58 60
        E 0 90 64 60
        E 0 90 70 60
        E 0 80 31 00
        E 0 90 32 60
        E 120 80 58 00
        E 0 80 64 00
        E 0 80 70 00
        E 0 90 60 60
        E 0 80 32 00
        E 0 90 18 60
        E 120 80 60 00
        E 0 90 49 60
        E 0 90 4a 60
        E 0 90 55 60
        E 0 90 56 60
        E 0 90 61 60
        E 0 90 62 60
        E 0 90 6e 60
        E 0 80 18 00
        E 0 90 1a 60
        E 0 90 1b 60
        E 120 80 49 00
        E 0 80 4a 00
        E 0 80 55 00
        E 0 80 56 00
        E 0 80 61 00
        E 0 80 62 00
        E 0 80 6e 00
        E 0 90 60 60
        E 0 80 1a 00
        E 0 80 1b 00
        E 0 90 18 60
        E 120 80 60 00
        E 0 90 56 60
        E 0 90 62 60
        E 0 90 6e 60
        E 0 80 18 00
        E 0 90 2f 60
        E 120 80 56 00
        E 0 80 62 00
        E 0 80 6e 00
        E 0 90 60 60
        E 0 80 2f 00
        E 0 90 18 60
        E 120 80 60 00
        E 0 90 3c 60
        E 0 90 3e 60
        E 0 90 40 60
        E 0 90 48 60
        E 0 90 4a 60
        E 0 90 4c 60
        E 0 90 54 60
        E 0 90 56 60
        E 0 90 58 60
        E 0 90 60 60
        E 0 90 62 60
        E 0 90 64 60
        E 0 80 18 00
        E 0 90 18 60
        E 0 90 26 60
        E 0 90 22 60
        E 120 80 3c 00
        E 0 80 3e 00
        E 0 80 40 00
        E 0 80 48 00
        E 0 80 4a 00
        E 0 80 4c 00
        E 0 80 54 00
        E 0 80 56 00
        E 0 80 58 00
        E 0 80 60 00
        E 0 80 62 00
        E 0 80 64 00
        E 0 80 18 00
        E 0 80 26 00
        E 0 80 22 00
        E 240 90 60 60
        E 0 90 18 60
        E 120 80 60 00
        E 0 90 49 60
        E 0 90 4a 60
        E 0 90 55 60
        E 0 90 56 60
        E 0 90 61 60
        E 0 90 62 60
        E 0 90 6e 60
        E 0 80 18 00
        E 0 90 1a 60
        E 0 90 1b 60
        E 120 80 49 00
        E 0 80 4a 00
        E 0 80 55 00
        E 0 80 56 00
        E 0 80 61 00
        E 0 80 62 00
        E 0 80 6e 00
        E 0 90 60 60
        E 0 80 1a 00
        E 0 80 1b 00
        E 0 90 18 60
        E 120 80 60 00
        E 0 90 62 60
        E 0 90 6e 60
        E 0 90 56 60
        E 0 80 18 00
        E 0 90 2f 60
        E 60 80 62 00
        E 0 80 6e 00
        E 0 90 62 60
        E 0 90 6e 60
        E 0 80 2f 00
        E 0 90 2e 60
        E 20 80 56 00
        E 40 80 62 00
        E 0 80 6e 00
        E 0 90 62 60
        E 0 90 6e 60
        E 0 80 2e 00
        E 0 90 2f 60
        E 60 80 62 00
        E 0 80 6e 00
        E 0 90 62 60
        E 0 90 6e 60
        E 0 80 2f 00
        E 0 90 2e 60
        E 60 80 62 00
        E 0 80 6e 00
        E 0 90 3f 60
        E 0 90 4b 60
        E 0 90 57 60
        E 0 90 63 60
        E 0 90 6f 60
        E 0 80 2e 00
        E 0 90 31 60
        E 120 80 3f 00
        E 0 80 4b 00
        E 0 80 57 00
        E 0 80 63 00
        E 0 80 6f 00
        E 0 90 63 60
        E 0 90 6f 60
        E 0 80 31 00
        E 0 90 30 60
        E 120 80 63 00
        E 0 80 6f 00
        E 0 90 58 60
        E 0 90 64 60
        E 0 90 70 60
        E 0 80 30 00
        E 0 90 33 60
        E 120 80 58 00
        E 0 80 64 00
        E 0 80 70 00
        E 0 90 60 60
        E 0 80 33 00
        E 0 90 18 60
        E 120 80 60 00
        E 0 90 49 60
        E 0 90 4a 60
        E 0 90 55 60
        E 0 90 56 60
        E 0 90 61 60
        E 0 90 62 60
        E 0 90 6e 60
        E 0 80 18 00
        E 0 90 1a 60
        E 0 90 1b 60
        E 120 80 49 00
        E 0 80 4a 00
        E 0 80 55 00
        E 0 80 56 00
        E 0 80 61 00
        E 0 80 62 00
        E 0 80 6e 00
        E 0 90 60 60
        E 0 80 1a 00
        E 0 80 1b 00
        E 0 90 18 60
        E 120 80 60 00
        E 0 90 56 60
        E 0 90 62 60
        E 0 90 6e 60
        E 0 80 18 00
        E 0 90 2f 60
        E 120 80 56 00
        E 0 80 62 00
        E 0 80 6e 00
        E 0 90 62 60
        E 0 90 6e 60
        E 0 80 2f 00
        E 0 90 2e 60
        E 120 80 62 00
        E 0 80 6e 00
        E 0 90 3f 60
        E 0 90 4b 60
        E 0 90 57 60
        E 0 90 63 60
        E 0 90 6f 60
        E 0 80 2e 00
        E 0 90 31 60
        E 120 80 3f 00
        E 0 80 4b 00
        E 0 80 57 00
        E 0 80 63 00
        E 0 80 6f 00
        E 0 90 63 60
        E 0 90 6f 60
        E 0 80 31 00
        E 0 90 30 60
        E 120 80 63 00
        E 0 80 6f 00
        E 0 90 58 60
        E 0 90 64 60
        E 0 90 70 60
        E 0 80 30 00
        E 0 90 33 60
        E 120 80 58 00
        E 0 80 64 00
        E 0 80 70 00
        E 0 90 60 60
        E 0 80 33 00
        E 0 90 18 60
        E 120 80 60 00
        E 0 90 49 60
        E 0 90 4a 60
        E 0 90 55 60
        E 0 90 56 60
        E 0 90 61 60
        E 0 90 62 60
        E 0 90 6e 60
        E 0 80 18 00
        E 0 90 1a 60
        E 0 90 1b 60
        E 120 80 49 00
        E 0 80 4a 00
        E 0 80 55 00
        E 0 80 56 00
        E 0 80 61 00
        E 0 80 62 00
        E 0 80 6e 00
        E 0 90 60 60
        E 0 80 1a 00
        E 0 80 1b 00
        E 0 90 18 60
        E 120 80 60 00
        E 0 80 18 00
        E 60 90 62 60
        E 0 90 6e 60
        E 0 90 2e 60
        E 60 80 62 00
        E 0 80 6e 00
        E 0 90 62 60
        E 0 90 6e 60
        E 0 80 2e 00
        E 0 90 2f 60
        E 60 80 62 00
        E 0 80 6e 00
        E 0 90 62 60
        E 0 90 6e 60
        E 0 80 2f 00
        E 0 90 2e 60
        E 60 80 62 00
        E 0 80 6e 00
        E 0 90 3f 60
        E 0 90 4b 60
        E 0 90 57 60
        E 0 90 63 60
        E 0 90 6f 60
        E 0 80 2e 00
        E 0 90 31 60
        E 120 80 3f 00
        E 0 80 4b 00
        E 0 80 57 00
        E 0 80 63 00
        E 0 80 6f 00
        E 0 90 63 60
        E 0 90 6f 60
        E 0 80 31 00
        E 0 90 30 60
        E 120 80 63 00
        E 0 80 6f 00
        E 0 90 58 60
        E 0 90 64 60
        E 0 90 70 60
        E 0 80 30 00
        E 0 90 33 60
        E 120 80 58 00
        E 0 80 64 00
        E 0 80 70 00
        E 0 90 60 60
        E 0 80 33 00
        E 0 90 18 60
        E 120 80 60 00
        E 0 90 49 60
        E 0 90 4a 60
        E 0 90 55 60
        E 0 90 56 60
        E 0 90 61 60
        E 0 90 62 60
        E 0 90 6e 60
        E 0 80 18 00
        E 0 90 1a 60
        E 0 90 1b 60
        E 120 80 49 00
        E 0 80 4a 00
        E 0 80 55 00
        E 0 80 56 00
        E 0 80 61 00
        E 0 80 62 00
        E 0 80 6e 00
        E 0 90 60 60
        E 0 80 1a 00
        E 0 80 1b 00
        E 0 90 18 60
        E 120 80 60 00
        E 0 90 56 60
        E 0 90 62 60
        E 0 90 6e 60
        E 0 80 18 00
        E 0 90 2f 60
        E 120 80 56 00
        E 0 80 62 00
        E 0 80 6e 00
        E 0 90 62 60
        E 0 90 6e 60
        E 0 80 2f 00
        E 0 90 2e 60
        E 120 80 62 00
        E 0 80 6e 00
        E 0 90 3c 60
        E 0 90 40 60
        E 0 90 48 60
        E 0 90 4c 60
        E 0 90 54 60
        E 0 90 58 60
        E 0 90 60 60
        E 0 90 64 60
        E 0 80 2e 00
        E 0 90 18 60
        E 0 90 26 60
        E 120 80 3c 00
        E 0 80 40 00
        E 0 80 48 00
        E 0 80 4c 00
        E 0 80 54 00
        E 0 80 58 00
        E 0 80 60 00
        E 0 80 64 00
        E 0 80 18 00
        E 0 80 26 00
        E 240 90 60 60
        E 0 90 18 60
        E 120 80 60 00
        E 0 90 49 60
        E 0 90 4a 60
        E 0 90 55 60
        E 0 90 56 60
        E 0 90 61 60
        E 0 90 62 60
        E 0 90 6e 60
        E 0 80 18 00
        E 0 90 1a 60
        E 0 90 1b 60
        E 120 80 49 00
        E 0 80 4a 00
        E 0 80 55 00
        E 0 80 56 00
        E 0 80 61 00
        E 0 80 62 00
        E 0 80 6e 00
        E 0 90 60 60
        E 0 80 1a 00
        E 0 80 1b 00
        E 0 90 18 60
        E 120 80 60 00
        E 0 90 56 60
        E 0 90 62 60
        E 0 90 6e 60
        E 0 80 18 00
        E 0 90 2f 60
        E 80 80 56 00
        E 0 80 62 00
        E 0 80 6e 00
        E 0 90 62 60
        E 0 90 6e 60
        E 0 80 2f 00
        E 0 90 2e 60
        E 80 80 62 00
        E 0 80 6e 00
        E 0 90 62 60
        E 0 90 6e 60
        E 0 80 2e 00
        E 0 90 2f 60
        E 80 80 62 00
        E 0 80 6e 00
        E 0 90 3f 60
        E 0 90 4b 60
        E 0 90 57 60
        E 0 90 63 60
        E 0 90 6f 60
        E 0 80 2f 00
        E 0 90 30 60
        E 120 80 3f 00
        E 0 80 4b 00
        E 0 80 57 00
        E 0 80 63 00
        E 0 80 6f 00
        E 0 90 63 60
        E 0 90 6f 60
        E 0 80 30 00
        E 0 90 31 60
        E 120 80 63 00
        E 0 80 6f 00
        E 0 90 58 60
        E 0 90 64 60
        E 0 90 70 60
        E 0 80 31 00
        E 0 90 32 60
        E 120 80 58 00
        E 0 80 64 00
        E 0 80 70 00
        E 0 90 60 60
        E 0 80 32 00
        E 0 90 18 60
        E 120 80 60 00
        E 0 90 49 60
        E 0 90 4a 60
        E 0 90 55 60
        E 0 90 56 60
        E 0 90 61 60
        E 0 90 62 60
        E 0 90 6e 60
        E 0 80 18 00
        E 0 90 1a 60
        E 0 90 1b 60
        E 120 80 49 00
        E 0 80 4a 00
        E 0 80 55 00
        E 0 80 56 00
        E 0 80 61 00
        E 0 80 62 00
        E 0 80 6e 00
        E 0 90 60 60
        E 0 80 1a 00
        E 0 80 1b 00
        E 0 90 18 60
        E 120 80 60 00
        E 0 90 56 60
        E 0 90 62 60
        E 0 90 6e 60
        E 0 80 18 00
        E 0 90 2f 60
        E 120 80 56 00
        E 0 80 62 00
        E 0 80 6e 00
        E 0 90 62 60
        E 0 90 6e 60
        E 0 80 2f 00
        E 0 90 2e 60
        E 120 80 62 00
        E 0 80 6e 00
        E 0 90 3f 60
        E 0 90 4b 60
        E 0 90 57 60
        E 0 90 63 60
        E 0 90 6f 60
        E 0 80 2e 00
        E 0 90 31 60
        E 120 80 3f 00
        E 0 80 4b 00
        E 0 80 57 00
        E 0 80 63 00
        E 0 80 6f 00
        E 0 90 63 60
        E 0 90 6f 60
        E 0 80 31 00
        E 0 90 30 60
        E 120 80 63 00
        E 0 80 6f 00
        E 0 90 58 60
        E 0 90 64 60
        E 0 90 70 60
        E 0 80 30 00
        E 0 90 33 60
        E 120 80 58 00
        E 0 80 64 00
        E 0 80 70 00
        E 0 90 60 60
        E 0 80 33 00
        E 0 90 18 60
        E 120 80 60 00
        E 0 90 49 60
        E 0 90 4a 60
        E 0 90 55 60
        E 0 90 56 60
        E 0 90 61 60
        E 0 90 62 60
        E 0 90 6e 60
        E 0 80 18 00
        E 0 90 1a 60
        E 0 90 1b 60
        E 120 80 49 00
        E 0 80 4a 00
        E 0 80 55 00
        E 0 80 56 00
        E 0 80 61 00
        E 0 80 62 00
        E 0 80 6e 00
        E 0 90 60 60
        E 0 80 1a 00
        E 0 80 1b 00
        E 0 90 18 60
        E 120 80 60 00
        E 0 90 56 60
        E 0 90 62 60
        E 0 90 6e 60
        E 0 80 18 00
        E 0 90 2f 60
        E 120 80 56 00
        E 0 80 62 00
        E 0 80 6e 00
        E 0 90 62 60
        E 0 90 6e 60
        E 0 80 2f 00
        E 0 90 2e 60
        E 120 80 62 00
        E 0 80 6e 00
        E 0 90 3f 60
        E 0 90 4b 60
        E 0 90 57 60
        E 0 90 63 60
        E 0 90 6f 60
        E 0 80 2e 00
        E 0 90 31 60
        E 120 80 3f 00
        E 0 80 4b 00
        E 0 80 57 00
        E 0 80 63 00
        E 0 80 6f 00
        E 0 90 63 60
        E 0 90 6f 60
        E 0 80 31 00
        E 0 90 30 60
        E 120 80 63 00
        E 0 80 6f 00
        E 0 90 58 60
        E 0 90 64 60
        E 0 90 70 60
        E 0 80 30 00
        E 0 90 33 60
        E 120 80 58 00
        E 0 80 64 00
        E 0 80 70 00
        E 0 90 60 60
        E 0 80 33 00
        E 0 90 18 60
        E 120 80 60 00
        E 0 90 49 60
        E 0 90 4a 60
        E 0 90 55 60
        E 0 90 56 60
        E 0 90 61 60
        E 0 90 62 60
        E 0 90 6e 60
        E 0 80 18 00
        E 0 90 1a 60
        E 0 90 1b 60
        E 120 80 49 00
        E 0 80 4a 00
        E 0 80 55 00
        E 0 80 56 00
        E 0 80 61 00
        E 0 80 62 00
        E 0 80 6e 00
        E 0 90 60 60
        E 0 80 1a 00
        E 0 80 1b 00
        E 0 90 18 60
        E 120 80 60 00
        E 0 90 56 60
        E 0 90 62 60
        E 0 90 6e 60
        E 0 80 18 00
        E 0 90 2f 60
        E 120 80 56 00
        E 0 80 62 00
        E 0 80 6e 00
        E 0 90 62 60
        E 0 90 6e 60
        E 0 80 2f 00
        E 0 90 2e 60
        E 120 80 62 00
        E 0 80 6e 00
        E 0 90 3c 60
        E 0 90 40 60
        E 0 90 48 60
        E 0 90 4c 60
        E 0 90 54 60
        E 0 90 58 60
        E 0 90 60 60
        E 0 90 64 60
        E 0 80 2e 00
        E 0 90 18 60
        E 0 90 26 60
        E 120 80 3c 00
        E 0 80 40 00
        E 0 80 48 00
        E 0 80 4c 00
        E 0 80 54 00
        E 0 80 58 00
        E 0 80 60 00
        E 0 80 64 00
        E 0 80 18 00
        E 0 80 26 00
        E 240 90 60 60
        E 0 90 18 60
        E 120 80 60 00
        E 0 90 49 60
        E 0 90 4a 60
        E 0 90 55 60
        E 0 90 56 60
        E 0 90 61 60
        E 0 90 62 60
        E 0 90 6e 60
        E 0 80 18 00
        E 0 90 1a 60
        E 0 90 1b 60
        E 120 80 49 00
        E 0 80 4a 00
        E 0 80 55 00
        E 0 80 56 00
        E 0 80 61 00
        E 0 80 62 00
        E 0 80 6e 00
        E 0 90 60 60
        E 0 80 1a 00
        E 0 80 1b 00
        E 0 90 18 60
        E 120 80 60 00
        E 0 90 56 60
        E 0 90 62 60
        E 0 90 6e 60
        E 0 80 18 00
        E 0 90 2f 60
        E 60 80 56 00
        E 0 80 62 00
        E 0 80 6e 00
        E 0 90 62 60
        E 0 90 6e 60
        E 0 80 2f 00
        E 0 90 2e 60
        E 60 80 62 00
        E 0 80 6e 00
        E 0 90 62 60
        E 0 90 6e 60
        E 0 80 2e 00
        E 0 90 2f 60
        E 60 80 62 00
        E 0 80 6e 00
        E 0 90 62 60
        E 0 90 6e 60
        E 0 80 2f 00
        E 0 90 2e 60
        E 60 80 62 00
        E 0 80 6e 00
        E 0 90 3f 60
        E 0 90 4b 60
        E 0 90 57 60
        E 0 90 63 60
        E 0 90 6f 60
        E 0 80 2e 00
        E 0 90 31 60
        E 120 80 3f 00
        E 0 80 4b 00
        E 0 80 57 00
        E 0 80 63 00
        E 0 80 6f 00
        E 0 90 63 60
        E 0 90 6f 60
        E 0 80 31 00
        E 0 90 30 60
        E 120 80 63 00
        E 0 80 6f 00
        E 0 90 58 60
        E 0 90 64 60
        E 0 90 70 60
        E 0 80 30 00
        E 0 90 33 60
        E 120 80 58 00
        E 0 80 64 00
        E 0 80 70 00
        E 0 90 60 60
        E 0 80 33 00
        E 0 90 18 60
        E 120 80 60 00
        E 0 90 49 60
        E 0 90 4a 60
        E 0 90 55 60
        E 0 90 56 60
        E 0 90 61 60
        E 0 90 62 60
        E 0 90 6e 60
        E 0 80 18 00
        E 0 90 1a 60
        E 0 90 1b 60
        E 120 80 49 00
        E 0 80 4a 00
        E 0 80 55 00
        E 0 80 56 00
        E 0 80 61 00
        E 0 80 62 00
        E 0 80 6e 00
        E 0 90 60 60
        E 0 80 1a 00
        E 0 80 1b 00
        E 0 90 18 60
        E 120 80 60 00
        E 0 80 18 00
        E 120 90 62 60
        E 0 90 6e 60
        E 0 90 2e 60
        E 120 80 62 00
        E 0 80 6e 00
        E 0 90 3f 60
        E 0 90 4b 60
        E 0 90 57 60
        E 0 90 63 60
        E 0 90 6f 60
        E 0 80 2e 00
        E 0 90 31 60
        E 120 80 3f 00
        E 0 80 4b 00
        E 0 80 57 00
        E 0 80 63 00
        E 0 80 6f 00
        E 0 90 63 60
        E 0 90 6f 60
        E 0 80 31 00
        E 0 90 30 60
        E 120 80 63 00
        E 0 80 6f 00
        E 0 90 58 60
        E 0 90 64 60
        E 0 90 70 60
        E 0 80 30 00
        E 0 90 33 60
        E 120 80 58 00
        E 0 80 64 00
        E 0 80 70 00
        E 0 90 60 60
        E 0 80 33 00
        E 0 90 18 60
        E 120 80 60 00
        E 0 90 49 60
        E 0 90 4c 60
        E 0 90 55 60
        E 0 90 58 60
        E 0 90 61 60
        E 0 90 64 60
        E 0 80 18 00
        E 0 90 1a 60
        E 0 90 26 60
        E 120 80 49 00
        E 0 80 4c 00
        E 0 80 55 00
        E 0 80 58 00
        E 0 80 61 00
        E 0 80 64 00
        E 0 90 61 60
        E 0 80 1a 00
        E 0 80 26 00
        E 0 90 1a 60
        E 60 80 61 00
        E 0 90 61 60
        E 0 80 1a 00
        E 0 90 1b 60
        E 60 80 61 00
        E 0 90 55 60
        E 0 90 61 60
        E 0 80 1b 00
        E 0 90 1a 60
        E 120 80 55 00
        E 0 80 61 00
        E 0 90 61 60
        E 0 80 1a 00
        E 0 90 1b 60
        E 120 80 61 00
        E 0 90 3d 60
        E 0 90 49 60
        E 0 90 55 60
        E 0 90 61 60
        E 0 80 1b 00
        E 0 90 1a 60
        E 60 80 61 00
        E 0 90 61 60
        E 0 80 1a 00
        E 0 90 1b 60
        E 60 80 3d 00
        E 0 80 49 00
        E 0 80 55 00
        E 0 80 61 00
        E 0 90 61 60
        E 0 80 1b 00
        E 0 90 1a 60
        E 120 80 61 00
        E 0 90 55 60
        E 0 90 61 60
        E 0 80 1a 00
        E 0 90 1b 60
        E 120 80 55 00
        E 0 80 61 00
        E 0 90 62 60
        E 0 90 6e 60
        E 0 80 1b 00
        E 0 90 2e 60
        E 60 80 62 00
        E 0 80 6e 00
        E 0 90 62 60
        E 0 90 6e 60
        E 0 80 2e 00
        E 0 90 2f 60
        E 60 80 62 00
        E 0 80 6e 00
        E 0 90 4a 60
        E 0 90 56 60
        E 0 90 62 60
        E 0 90 6e 60
        E 0 80 2f 00
        E 0 90 2e 60
        E 120 80 4a 00
        E 0 80 56 00
        E 0 80 62 00
        E 0 80 6e 00
        E 0 90 62 60
        E 0 90 6e 60
        E 0 80 2e 00
        E 0 90 2f 60
        E 120 80 62 00
        E 0 80 6e 00
        E 0 90 57 60
        E 0 90 63 60
        E 0 90 6f 60
        E 0 80 2f 00
        E 0 90 30 60
        E 120 80 57 00
        E 0 80 63 00
        E 0 80 6f 00
        E 0 90 60 60
        E 0 80 30 00
        E 0 90 18 60
        E 120 80 60 00
        E 0 90 3c 60
        E 0 90 3e 60
        E 0 90 40 60
        E 0 90 48 60
        E 0 90 4a 60
        E 0 90 4c 60
        E 0 90 54 60
        E 0 90 56 60
        E 0 90 58 60
        E 0 90 60 60
        E 0 90 62 60
        E 0 90 64 60
        E 0 80 18 00
        E 0 90 18 60
        E 0 90 26 60
        E 0 90 22 60
        E 120 80 3c 00
        E 0 80 3e 00
        E 0 80 40 00
        E 0 80 48 00
        E 0 80 4a 00
        E 0 80 4c 00
        E 0 80 54 00
        E 0 80 56 00
        E 0 80 58 00
        E 0 80 60 00
        E 0 80 62 00
        E 0 80 64 00
        E 0 80 18 00
        E 0 80 26 00
        E 0 80 22 00
        E 120 90 54 60
        E 0 90 58 60
        E 0 90 60 60
        E 0 90 64 60
        E 0 90 18 60
        E 0 90 26 60
        E 120 80 54 00
        E 0 80 58 00
        E 0 80 60 00
        E 0 80 64 00
        E 0 90 60 60
        E 0 80 18 00
        E 0 80 26 00
        E 0 90 18 60
        E 120 80 60 00
        E 0 90 4c 60
        E 0 90 58 60
        E 0 90 64 60
        E 0 80 18 00
        E 0 90 26 60
        E 120 80 4c 00
        E 0 80 58 00
        E 0 80 64 00
        E 0 90 60 60
        E 0 80 26 00
        E 0 90 18 60
        E 120 80 60 00
        E 0 90 55 60
        E 0 90 58 60
        E 0 90 61 60
        E 0 90 64 60
        E 0 80 18 00
        E 0 90 1a 60
        E 0 90 26 60
        E 120 80 55 00
        E 0 80 58 00
        E 0 80 61 00
        E 0 80 64 00
        E 0 90 60 60
        E 0 80 1a 00
        E 0 80 26 00
        E 0 90 18 60
        E 120 80 60 00
        E 0 90 3c 60
        E 0 90 40 60
        E 0 90 48 60
        E 0 90 4c 60
        E 0 90 54 60
        E 0 90 58 60
        E 0 90 60 60
        E 0 90 64 60
        E 0 80 18 00
        E 0 90 18 60
        E 0 90 26 60
        E 120 80 3c 00
        E 0 80 40 00
        E 0 80 48 00
        E 0 80 4c 00
        E 0 80 54 00
        E 0 80 58 00
        E 0 80 60 00
        E 0 80 64 00
        E 0 80 18 00
        E 0 80 26 00
        E 120 90 58 60
        E 0 90 64 60
        E 0 90 26 60
        E 120 80 58 00
        E 0 80 64 00
        E 0 90 60 60
        E 0 80 26 00
        E 0 90 18 60
        E 120 80 60 00
        E 0 90 49 60
        E 0 90 4c 60
        E 0 90 55 60
        E 0 90 58 60
        E 0 90 61 60
        E 0 90 64 60
        E 0 80 18 00
        E 0 90 1a 60
        E 0 90 26 60
        E 120 80 49 00
        E 0 80 4c 00
        E 0 80 55 00
        E 0 80 58 00
        E 0 80 61 00
        E 0 80 64 00
        E 0 80 1a 00
        E 0 80 26 00
        E 120 90 55 60
        E 0 90 61 60
        E 0 90 1b 60
        E 60 80 55 00
        E 0 80 61 00
        E 0 90 61 60
        E 0 80 1b 00
        E 0 90 1a 60
        E 60 80 61 00
        E 0 90 61 60
        E 0 80 1a 00
        E 0 90 1b 60
        E 60 80 61 00
        E 0 90 61 60
        E 0 80 1b 00
        E 0 90 1a 60
        E 60 80 61 00
        E 0 90 3c 60
        E 0 90 40 60
        E 0 90 48 60
        E 0 90 4c 60
        E 0 90 54 60
        E 0 90 58 60
        E 0 90 60 60
        E 0 90 64 60
        E 0 80 1a 00
        E 0 90 18 60
        E 0 90 26 60
        E 120 80 3c 00
        E 0 80 40 00
        E 0 80 48 00
        E 0 80 4c 00
        E 0 80 54 00
        E 0 80 58 00
        E 0 80 60 00
        E 0 80 64 00
        E 0 80 18 00
        E 0 80 26 00
        E 120 90 54 60
        E 0 90 58 60
        E 0 90 60 60
        E 0 90 64 60
        E 0 90 18 60
        E 0 90 26 60
        E 120 80 54 00
        E 0 80 58 00
        E 0 80 60 00
        E 0 80 64 00
        E 0 90 60 60
        E 0 80 18 00
        E 0 80 26 00
        E 0 90 18 60
        E 120 80 60 00
        E 0 90 4c 60
        E 0 90 58 60
        E 0 90 64 60
        E 0 80 18 00
        E 0 90 26 60
        E 120 80 4c 00
        E 0 80 58 00
        E 0 80 64 00
        E 0 90 60 60
        E 0 80 26 00
        E 0 90 18 60
        E 120 80 60 00
        E 0 90 55 60
        E 0 90 58 60
        E 0 90 61 60
        E 0 90 64 60
        E 0 80 18 00
        E 0 90 1a 60
        E 0 90 26 60
        E 120 80 55 00
        E 0 80 58 00
        E 0 80 61 00
        E 0 80 64 00
        E 0 90 60 60
        E 0 80 1a 00
        E 0 80 26 00
        E 0 90 18 60
        E 120 80 60 00
        E 0 90 3c 60
        E 0 90 40 60
        E 0 90 48 60
        E 0 90 4c 60
        E 0 90 54 60
        E 0 90 58 60
        E 0 90 60 60
        E 0 90 64 60
        E 0 80 18 00
        E 0 90 18 60
        E 0 90 26 60
        E 120 80 3c 00
        E 0 80 40 00
        E 0 80 48 00
        E 0 80 4c 00
        E 0 80 54 00
        E 0 80 58 00
        E 0 80 60 00
        E 0 80 64 00
        E 0 90 61 60
        E 0 80 18 00
        E 0 80 26 00
        E 0 90 1a 60
        E 120 80 61 00
        E 0 90 58 60
        E 0 90 64 60
        E 0 80 1a 00
        E 0 90 26 60
        E 120 80 58 00
        E 0 80 64 00
        E 0 90 60 60
        E 0 80 26 00
        E 0 90 18 60
        E 120 80 60 00
        E 0 90 49 60
        E 0 90 4c 60
        E 0 90 55 60
        E 0 90 58 60
        E 0 90 61 60
        E 0 90 64 60
        E 0 80 18 00
        E 0 90 1a 60
        E 0 90 26 60
        E 120 80 49 00
        E 0 80 4c 00
        E 0 80 55 00
        E 0 80 58 00
        E 0 80 61 00
        E 0 80 64 00
        E 0 80 1a 00
        E 0 80 26 00
        E 120 90 55 60
        E 0 90 61 60
        E 0 90 1b 60
        E 60 80 55 00
        E 0 80 61 00
        E 0 90 61 60
        E 0 80 1b 00
        E 0 90 1a 60
        E 60 80 61 00
        E 0 90 61 60
        E 0 80 1a 00
        E 0 90 1b 60
        E 60 80 61 00
        E 0 90 61 60
        E 0 80 1b 00
        E 0 90 1a 60
        E 60 80 61 00
        E 0 90 3c 60
        E 0 90 40 60
        E 0 90 48 60
        E 0 90 4c 60
        E 0 90 54 60
        E 0 90 58 60
        E 0 90 60 60
        E 0 90 64 60
        E 0 80 1a 00
        E 0 90 18 60
        E 0 90 26 60
        E 120 80 3c 00
        E 0 80 40 00
        E 0 80 48 00
        E 0 80 4c 00
        E 0 80 54 00
        E 0 80 58 00
        E 0 80 60 00
        E 0 80 64 00
        E 0 80 18 00
        E 0 80 26 00
        E 120 90 54 60
        E 0 90 58 60
        E 0 90 60 60
        E 0 90 64 60
        E 0 90 18 60
        E 0 90 26 60
        E 120 80 54 00
        E 0 80 58 00
        E 0 80 60 00
        E 0 80 64 00
        E 0 90 60 60
        E 0 80 18 00
        E 0 80 26 00
        E 0 90 18 60
        E 120 80 60 00
        E 0 90 4c 60
        E 0 90 58 60
        E 0 90 64 60
        E 0 80 18 00
        E 0 90 26 60
        E 120 80 4c 00
        E 0 80 58 00
        E 0 80 64 00
        E 0 90 60 60
        E 0 80 26 00
        E 0 90 18 60
        E 120 80 60 00
        E 0 90 55 60
        E 0 90 58 60
        E 0 90 61 60
        E 0 90 64 60
        E 0 80 18 00
        E 0 90 1a 60
        E 0 90 26 60
        E 120 80 55 00
        E 0 80 58 00
        E 0 80 61 00
        E 0 80 64 00
        E 0 90 60 60
        E 0 80 1a 00
        E 0 80 26 00
        E 0 90 18 60
        E 120 80 60 00
        E 0 90 3c 60
        E 0 90 40 60
        E 0 90 48 60
        E 0 90 4c 60
        E 0 90 54 60
        E 0 90 58 60
        E 0 90 60 60
        E 0 90 64 60
        E 0 80 18 00
        E 0 90 18 60
        E 0 90 26 60
        E 120 80 3c 00
        E 0 80 40 00
        E 0 80 48 00
        E 0 80 4c 00
        E 0 80 54 00
        E 0 80 58 00
        E 0 80 60 00
        E 0 80 64 00
        E 0 90 61 60
        E 0 80 18 00
        E 0 80 26 00
        E 0 90 1a 60
        E 120 80 61 00
        E 0 90 58 60
        E 0 90 64 60
        E 0 80 1a 00
        E 0 90 26 60
        E 120 80 58 00
        E 0 80 64 00
        E 0 90 60 60
        E 0 80 26 00
        E 0 90 18 60
        E 120 80 60 00
        E 0 90 49 60
        E 0 90 4c 60
        E 0 90 55 60
        E 0 90 58 60
        E 0 90 61 60
        E 0 90 64 60
        E 0 80 18 00
        E 0 90 1a 60
        E 0 90 26 60
        E 120 80 49 00
        E 0 80 4c 00
        E 0 80 55 00
        E 0 80 58 00
        E 0 80 61 00
        E 0 80 64 00
        E 0 90 60 60
        E 0 80 1a 00
        E 0 80 26 00
        E 0 90 18 60
        E 120 80 60 00
        E 0 90 54 60
        E 0 90 58 60
        E 0 90 60 60
        E 0 90 64 60
        E 0 80 18 00
        E 0 90 18 60
        E 0 90 26 60
        E 120 80 54 00
        E 0 80 58 00
        E 0 80 60 00
        E 0 80 64 00
        E 0 80 18 00
        E 0 80 26 00
        E 120 90 40 60
        E 0 90 4c 60
        E 0 90 58 60
        E 0 90 64 60
        E 0 90 26 60
        E 120 80 40 00
        E 0 80 4c 00
        E 0 80 58 00
        E 0 80 64 00
        E 0 90 60 60
        E 0 80 26 00
        E 0 90 18 60
        E 120 80 60 00
        E 0 90 55 60
        E 0 90 58 60
        E 0 90 61 60
        E 0 90 64 60
        E 0 80 18 00
        E 0 90 1a 60
        E 0 90 26 60
        E 120 80 55 00
        E 0 80 58 00
        E 0 80 61 00
        E 0 80 64 00
        E 0 90 60 60
        E 0 80 1a 00
        E 0 80 26 00
        E 0 90 18 60
        E 120 80 60 00
        E 0 90 48 60
        E 0 90 4c 60
        E 0 90 54 60
        E 0 90 58 60
        E 0 90 60 60
        E 0 90 64 60
        E 0 80 18 00
        E 0 90 18 60
        E 0 90 26 60
        E 120 80 48 00
        E 0 80 4c 00
        E 0 80 54 00
        E 0 80 58 00
        E 0 80 60 00
        E 0 80 64 00
        E 0 90 61 60
        E 0 80 18 00
        E 0 80 26 00
        E 0 90 1a 60
        E 120 80 61 00
        E 0 90 58 60
        E 0 90 64 60
        E 0 80 1a 00
        E 0 90 26 60
        E 120 80 58 00
        E 0 80 64 00
        E 0 90 60 60
        E 0 80 26 00
        E 0 90 18 60
        E 120 80 60 00
        E 0 90 3d 60
        E 0 90 49 60
        E 0 90 4c 60
        E 0 90 55 60
        E 0 90 58 60
        E 0 90 61 60
        E 0 90 64 60
        E 0 80 18 00
        E 0 90 1a 60
        E 0 90 26 60
        E 120 80 3d 00
        E 0 80 49 00
        E 0 80 4c 00
        E 0 80 55 00
        E 0 80 58 00
        E 0 80 61 00
        E 0 80 64 00
        E 0 80 1a 00
        E 0 80 26 00
        E 120 90 54 60
        E 0 90 58 60
        E 0 90 60 60
        E 0 90 64 60
        E 0 90 18 60
        E 0 90 26 60
        E 120 80 54 00
        E 0 80 58 00
        E 0 80 60 00
        E 0 80 64 00
        E 0 90 61 60
        E 0 80 18 00
        E 0 80 26 00
        E 0 90 1a 60
        E 60 80 61 00
        E 0 90 61 60
        E 0 80 1a 00
        E 0 90 1b 60
        E 60 80 61 00
        E 0 90 49 60
        E 0 90 55 60
        E 0 90 61 60
        E 0 80 1b 00
        E 0 90 1a 60
        E 120 80 49 00
        E 0 80 55 00
        E 0 80 61 00
        E 0 90 61 60
        E 0 80 1a 00
        E 0 90 1b 60
        E 120 80 61 00
        E 0 90 55 60
        E 0 90 61 60
        E 0 80 1b 00
        E 0 90 1a 60
        E 60 80 55 00
        E 0 80 61 00
        E 0 90 61 60
        E 0 80 1a 00
        E 0 90 1b 60
        E 60 80 61 00
        E 0 90 61 60
        E 0 80 1b 00
        E 0 90 1a 60
        E 60 80 61 00
        E 0 90 61 60
        E 0 80 1a 00
        E 0 90 1b 60
        E 60 80 61 00
        E 0 90 3c 60
        E 0 90 40 60
        E 0 90 48 60
        E 0 90 4c 60
        E 0 90 54 60
        E 0 90 58 60
        E 0 90 60 60
        E 0 90 64 60
        E 0 80 1b 00
        E 0 90 18 60
        E 0 90 2c 60
        E 120 80 3c 00
        E 0 80 40 00
        E 0 80 48 00
        E 0 80 4c 00
        E 0 80 54 00
        E 0 80 58 00
        E 0 80 60 00
        E 0 80 64 00
        E 0 80 18 00
        E 0 80 2c 00
        E 120 90 54 60
        E 0 90 58 60
        E 0 90 60 60
        E 0 90 64 60
        E 0 90 18 60
        E 0 90 26 60
        E 120 80 54 00
        E 0 80 58 00
        E 0 80 60 00
        E 0 80 64 00
        E 0 90 60 60
        E 0 80 18 00
        E 0 80 26 00
        E 0 90 18 60
        E 120 80 60 00
        E 0 90 4c 60
        E 0 90 58 60
        E 0 90 64 60
        E 0 80 18 00
        E 0 90 26 60
        E 120 80 4c 00
        E 0 80 58 00
        E 0 80 64 00
        E 0 90 60 60
        E 0 80 26 00
        E 0 90 18 60
        E 120 80 60 00
        E 0 90 55 60
        E 0 90 58 60
        E 0 90 61 60
        E 0 90 64 60
        E 0 80 18 00
        E 0 90 1a 60
        E 0 90 26 60
        E 120 80 55 00
        E 0 80 58 00
        E 0 80 61 00
        E 0 80 64 00
        E 0 90 60 60
        E 0 80 1a 00
        E 0 80 26 00
        E 0 90 18 60
        E 120 80 60 00
        E 0 90 3c 60
        E 0 90 40 60
        E 0 90 48 60
        E 0 90 4c 60
        E 0 90 54 60
        E 0 90 58 60
        E 0 90 60 60
        E 0 90 64 60
        E 0 80 18 00
        E 0 90 18 60
        E 0 90 26 60
        E 120 80 3c 00
        E 0 80 40 00
        E 0 80 48 00
        E 0 80 4c 00
        E 0 80 54 00
        E 0 80 58 00
        E 0 80 60 00
        E 0 80 64 00
        E 0 90 61 60
        E 0 80 18 00
        E 0 80 26 00
        E 0 90 1a 60
        E 120 80 61 00
        E 0 90 58 60
        E 0 90 64 60
        E 0 80 1a 00
        E 0 90 26 60
        E 120 80 58 00
        E 0 80 64 00
        E 0 90 60 60
        E 0 80 26 00
        E 0 90 18 60
        E 120 80 60 00
        E 0 90 49 60
        E 0 90 4c 60
        E 0 90 55 60
        E 0 90 58 60
        E 0 90 61 60
        E 0 90 64 60
        E 0 80 18 00
        E 0 90 1a 60
        E 0 90 26 60
        E 120 80 49 00
        E 0 80 4c 00
        E 0 80 55 00
        E 0 80 58 00
        E 0 80 61 00
        E 0 80 64 00
        E 0 90 61 60
        E 0 80 1a 00
        E 0 80 26 00
        E 0 90 1a 60
        E 60 80 61 00
        E 0 90 61 60
        E 0 80 1a 00
        E 0 90 1b 60
        E 60 80 61 00
        E 0 90 55 60
        E 0 90 61 60
        E 0 80 1b 00
        E 0 90 1a 60
        E 120 80 55 00
        E 0 80 61 00
        E 0 90 61 60
        E 0 80 1a 00
        E 0 90 1b 60
        E 60 80 61 00
        E 0 90 61 60
        E 0 80 1b 00
        E 0 90 1a 60
        E 60 80 61 00
        E 0 90 3c 60
        E 0 90 40 60
        E 0 90 48 60
        E 0 90 4c 60
        E 0 90 54 60
        E 0 90 58 60
        E 0 90 60 60
        E 0 90 64 60
        E 0 80 1a 00
        E 0 90 18 60
        E 0 90 26 60
        E 120 80 3c 00
        E 0 80 40 00
        E 0 80 48 00
        E 0 80 4c 00
        E 0 80 54 00
        E 0 80 58 00
        E 0 80 60 00
        E 0 80 64 00
        E 0 80 18 00
        E 0 80 26 00
        E 120 90 54 60
        E 0 90 58 60
        E 0 90 60 60
        E 0 90 64 60
        E 0 90 18 60
        E 0 90 26 60
        E 120 80 54 00
        E 0 80 58 00
        E 0 80 60 00
        E 0 80 64 00
        E 0 80 18 00
        E 0 80 26 00
        E 120 90 4c 60
        E 0 90 58 60
        E 0 90 64 60
        E 0 90 26 60
        E 120 80 4c 00
        E 0 80 58 00
        E 0 80 64 00
        E 0 90 60 60
        E 0 80 26 00
        E 0 90 18 60
        E 120 80 60 00
        E 0 90 55 60
        E 0 90 58 60
        E 0 90 61 60
        E 0 90 64 60
        E 0 80 18 00
        E 0 90 1a 60
        E 0 90 26 60
        E 120 80 55 00
        E 0 80 58 00
        E 0 80 61 00
        E 0 80 64 00
        E 0 90 60 60
        E 0 80 1a 00
        E 0 80 26 00
        E 0 90 18 60
        E 120 80 60 00
        E 0 90 3c 60
        E 0 90 40 60
        E 0 90 48 60
        E 0 90 4c 60
        E 0 90 54 60
        E 0 90 58 60
        E 0 90 60 60
        E 0 90 64 60
        E 0 80 18 00
        E 0 90 18 60
        E 0 90 26 60
        E 120 80 3c 00
        E 0 80 40 00
        E 0 80 48 00
        E 0 80 4c 00
        E 0 80 54 00
        E 0 80 58 00
        E 0 80 60 00
        E 0 80 64 00
        E 0 90 61 60
        E 0 80 18 00
        E 0 80 26 00
        E 0 90 1a 60
        E 120 80 61 00
        E 0 90 55 60
        E 0 90 58 60
        E 0 90 61 60
        E 0 90 64 60
        E 0 80 1a 00
        E 0 90 1a 60
        E 0 90 26 60
        E 120 80 55 00
        E 0 80 58 00
        E 0 80 61 00
        E 0 80 64 00
        E 0 90 60 60
        E 0 80 1a 00
        E 0 80 26 00
        E 0 90 18 60
        E 120 80 60 00
        E 0 90 49 60
        E 0 90 4c 60
        E 0 90 55 60
        E 0 90 58 60
        E 0 90 61 60
        E 0 90 64 60
        E 0 80 18 00
        E 0 90 1a 60
        E 0 90 26 60
        E 120 80 49 00
        E 0 80 4c 00
        E 0 80 55 00
        E 0 80 58 00
        E 0 80 61 00
        E 0 80 64 00
        E 0 90 61 60
        E 0 80 1a 00
        E 0 80 26 00
        E 0 90 1a 60
        E 60 80 61 00
        E 0 90 61 60
        E 0 80 1a 00
        E 0 90 1b 60
        E 60 80 61 00
        E 0 90 55 60
        E 0 90 61 60
        E 0 80 1b 00
        E 0 90 1a 60
        E 60 80 55 00
        E 0 80 61 00
        E 0 90 61 60
        E 0 80 1a 00
        E 0 90 1b 60
        E 60 80 61 00
        E 0 90 61 60
        E 0 80 1b 00
        E 0 90 1a 60
        E 60 80 61 00
        E 0 90 61 60
        E 0 80 1a 00
        E 0 90 1b 60
        E 60 80 61 00
        E 0 90 3c 60
        E 0 90 40 60
        E 0 90 48 60
        E 0 90 4c 60
        E 0 90 54 60
        E 0 90 58 60
        E 0 90 60 60
        E 0 90 64 60
        E 0 80 1b 00
        E 0 90 18 60
        E 0 90 2c 60
        E 120 80 3c 00
        E 0 80 40 00
        E 0 80 48 00
        E 0 80 4c 00
        E 0 80 54 00
        E 0 80 58 00
        E 0 80 60 00
        E 0 80 64 00
        E 0 80 18 00
        E 0 80 2c 00
        E 120 90 54 60
        E 0 90 58 60
        E 0 90 60 60
        E 0 90 64 60
        E 0 90 18 60
        E 0 90 26 60
        E 120 80 54 00
        E 0 80 58 00
        E 0 80 60 00
        E 0 80 64 00
        E 0 80 18 00
        E 0 80 26 00
        E 120 90 4c 60
        E 0 90 58 60
        E 0 90 64 60
        E 0 90 26 60
        E 120 80 4c 00
        E 0 80 58 00
        E 0 80 64 00
        E 0 90 60 60
        E 0 80 26 00
        E 0 90 18 60
        E 120 80 60 00
        E 0 90 55 60
        E 0 90 58 60
        E 0 90 61 60
        E 0 90 64 60
        E 0 80 18 00
        E 0 90 1a 60
        E 0 90 26 60
        E 120 80 55 00
        E 0 80 58 00
        E 0 80 61 00
        E 0 80 64 00
        E 0 90 60 60
        E 0 80 1a 00
        E 0 80 26 00
        E 0 90 18 60
        E 120 80 60 00
        E 0 90 3c 60
        E 0 90 40 60
        E 0 90 48 60
        E 0 90 4c 60
        E 0 90 54 60
        E 0 90 58 60
        E 0 90 60 60
        E 0 90 64 60
        E 0 80 18 00
        E 0 90 18 60
        E 0 90 26 60
        E 120 80 3c 00
        E 0 80 40 00
        E 0 80 48 00
        E 0 80 4c 00
        E 0 80 54 00
        E 0 80 58 00
        E 0 80 60 00
        E 0 80 64 00
        E 0 90 61 60
        E 0 80 18 00
        E 0 80 26 00
        E 0 90 1a 60
        E 120 80 61 00
        E 0 90 58 60
        E 0 90 64 60
        E 0 80 1a 00
        E 0 90 26 60
        E 120 80 58 00
        E 0 80 64 00
        E 0 90 60 60
        E 0 80 26 00
        E 0 90 18 60
        E 120 80 60 00
        E 0 90 49 60
        E 0 90 4c 60
        E 0 90 55 60
        E 0 90 58 60
        E 0 90 61 60
        E 0 90 64 60
        E 0 80 18 00
        E 0 90 1a 60
        E 0 90 26 60
        E 120 80 49 00
        E 0 80 4c 00
        E 0 80 55 00
        E 0 80 58 00
        E 0 80 61 00
        E 0 80 64 00
        E 0 90 60 60
        E 0 80 1a 00
        E 0 80 26 00
        E 0 90 18 60
        E 120 80 60 00
        E 0 90 54 60
        E 0 90 58 60
        E 0 90 60 60
        E 0 90 64 60
        E 0 80 18 00
        E 0 90 18 60
        E 0 90 26 60
        E 120 80 54 00
        E 0 80 58 00
        E 0 80 60 00
        E 0 80 64 00
        E 0 90 61 60
        E 0 80 18 00
        E 0 80 26 00
        E 0 90 1a 60
        E 120 80 61 00
        E 0 90 40 60
        E 0 90 4c 60
        E 0 90 58 60
        E 0 90 64 60
        E 0 80 1a 00
        E 0 90 26 60
        E 120 80 40 00
        E 0 80 4c 00
        E 0 80 58 00
        E 0 80 64 00
        E 0 90 60 60
        E 0 80 26 00
        E 0 90 18 60
        E 120 80 60 00
        E 0 90 55 60
        E 0 90 58 60
        E 0 90 61 60
        E 0 90 64 60
        E 0 80 18 00
        E 0 90 1a 60
        E 0 90 26 60
        E 120 80 55 00
        E 0 80 58 00
        E 0 80 61 00
        E 0 80 64 00
        E 0 90 61 60
        E 0 80 1a 00
        E 0 80 26 00
        E 0 90 1a 60
        E 60 80 61 00
        E 0 90 61 60
        E 0 80 1a 00
        E 0 90 1b 60
        E 60 80 61 00
        E 0 90 49 60
        E 0 90 55 60
        E 0 90 61 60
        E 0 80 1b 00
        E 0 90 1a 60
        E 120 80 49 00
        E 0 80 55 00
        E 0 80 61 00
        E 0 90 61 60
        E 0 80 1a 00
        E 0 90 1b 60
        E 120 80 61 00
        E 0 80 1b 00
        E 120 90 61 60
        E 0 90 1a 60
        E 120 80 61 00
        E 0 90 3d 60
        E 0 90 49 60
        E 0 90 55 60
        E 0 90 61 60
        E 0 80 1a 00
        E 0 90 1b 60
        E 120 80 3d 00
        E 0 80 49 00
        E 0 80 55 00
        E 0 80 61 00
        E 0 90 61 60
        E 0 80 1b 00
        E 0 90 1a 60
        E 120 80 61 00
        E 0 90 49 60
        E 0 90 55 60
        E 0 90 61 60
        E 0 80 1a 00
        E 0 90 1b 60
        E 120 80 49 00
        E 0 80 55 00
        E 0 80 61 00
        E 0 90 61 60
        E 0 80 1b 00
        E 0 90 1a 60
        E 120 80 61 00
        E 0 90 49 60
        E 0 90 55 60
        E 0 90 61 60
        E 0 80 1a 00
        E 0 90 1b 60
        E 120 80 49 00
        E 0 80 55 00
        E 0 80 61 00
        E 0 90 61 60
        E 0 80 1b 00
        E 0 90 1a 60
        E 120 80 61 00
        E 0 90 55 60
        E 0 90 61 60
        E 0 80 1a 00
        E 0 90 1b 60
        E 120 80 55 00
        E 0 80 61 00
        E 0 90 61 60
        E 0 80 1b 00
        E 0 90 1a 60
        E 120 80 61 00
        E 0 90 3c 60
        E 0 90 40 60
        E 0 90 48 60
        E 0 90 4c 60
        E 0 90 54 60
        E 0 90 58 60
        E 0 90 60 60
        E 0 90 64 60
        E 0 80 1a 00
        E 0 90 18 60
        E 0 90 26 60
        E 120 80 3c 00
        E 0 80 40 00
        E 0 80 48 00
        E 0 80 4c 00
        E 0 80 54 00
        E 0 80 58 00
        E 0 80 60 00
        E 0 80 64 00
        E 0 80 18 00
        E 0 80 26 00
        E 120 90 56 60
        E 0 90 62 60
        E 0 90 1f 60
        E 120 80 56 00
        E 0 80 62 00
        E 0 80 1f 00
        E 120 90 48 60
        E 0 90 4a 60
        E 0 90 54 60
        E 0 90 56 60
        E 0 90 60 60
        E 0 90 62 60
        E 0 90 18 60
        E 0 90 1f 60
        E 120 80 48 00
        E 0 80 4a 00
        E 0 80 54 00
        E 0 80 56 00
        E 0 80 60 00
        E 0 80 62 00
        E 0 90 60 60
        E 0 80 18 00
        E 0 80 1f 00
        E 0 90 18 60
        E 120 80 60 00
        E 0 90 55 60
        E 0 90 56 60
        E 0 90 61 60
        E 0 90 62 60
        E 0 80 18 00
        E 0 90 1a 60
        E 0 90 1f 60
        E 120 80 55 00
        E 0 80 56 00
        E 0 80 61 00
        E 0 80 62 00
        E 0 90 60 60
        E 0 80 1a 00
        E 0 80 1f 00
        E 0 90 18 60
        E 120 80 60 00
        E 0 90 3e 60
        E 0 90 4a 60
        E 0 90 56 60
        E 0 90 62 60
        E 0 80 18 00
        E 0 90 1f 60
        E 120 80 3e 00
        E 0 80 4a 00
        E 0 80 56 00
        E 0 80 62 00
        E 0 90 61 60
        E 0 80 1f 00
        E 0 90 1a 60
        E 120 80 61 00
        E 0 90 54 60
        E 0 90 56 60
        E 0 90 60 60
        E 0 90 62 60
        E 0 80 1a 00
        E 0 90 18 60
        E 0 90 1f 60
        E 120 80 54 00
        E 0 80 56 00
        E 0 80 60 00
        E 0 80 62 00
        E 0 80 18 00
        E 0 80 1f 00
        E 120 90 3c 60
        E 0 90 3e 60
        E 0 90 48 60
        E 0 90 4a 60
        E 0 90 54 60
        E 0 90 56 60
        E 0 90 60 60
        E 0 90 62 60
        E 0 90 18 60
        E 0 90 1f 60
        E 120 80 3c 00
        E 0 80 3e 00
        E 0 80 48 00
        E 0 80 4a 00
        E 0 80 54 00
        E 0 80 56 00
        E 0 80 60 00
        E 0 80 62 00
        E 0 80 18 00
        E 0 80 1f 00
        E 120 90 48 60
        E 0 90 4a 60
        E 0 90 54 60
        E 0 90 56 60
        E 0 90 60 60
        E 0 90 62 60
        E 0 90 18 60
        E 0 90 1f 60
        E 120 80 48 00
        E 0 80 4a 00
        E 0 80 54 00
        E 0 80 56 00
        E 0 80 60 00
        E 0 80 62 00
        E 0 80 18 00
        E 0 80 1f 00
        E 120 90 3c 60
        E 0 90 3e 60
        E 0 90 48 60
        E 0 90 4a 60
        E 0 90 54 60
        E 0 90 56 60
        E 0 90 60 60
        E 0 90 62 60
        E 0 90 18 60
        E 0 90 1f 60
        E 120 80 3c 00
        E 0 80 3e 00
        E 0 80 48 00
        E 0 80 4a 00
        E 0 80 54 00
        E 0 80 56 00
        E 0 80 60 00
        E 0 80 62 00
        E 0 90 60 60
        E 0 80 18 00
        E 0 80 1f 00
        E 0 90 18 60
        E 120 80 60 00
        E 0 90 55 60
        E 0 90 56 60
        E 0 90 61 60
        E 0 90 62 60
        E 0 80 18 00
        E 0 90 1a 60
        E 0 90 1f 60
        E 120 80 55 00
        E 0 80 56 00
        E 0 80 61 00
        E 0 80 62 00
        E 0 90 60 60
        E 0 80 1a 00
        E 0 80 1f 00
        E 0 90 18 60
        E 120 80 60 00
        E 0 90 4a 60
        E 0 90 56 60
        E 0 90 62 60
        E 0 80 18 00
        E 0 90 1f 60
        E 120 80 4a 00
        E 0 80 56 00
        E 0 80 62 00
        E 0 90 61 60
        E 0 80 1f 00
        E 0 90 1a 60
        E 120 80 61 00
        E 0 90 54 60
        E 0 90 56 60
        E 0 90 60 60
        E 0 90 62 60
        E 0 80 1a 00
        E 0 90 18 60
        E 0 90 1f 60
        E 120 80 54 00
        E 0 80 56 00
        E 0 80 60 00
        E 0 80 62 00
        E 0 80 18 00
        E 0 80 1f 00
        E 120 90 3c 60
        E 0 90 3e 60
        E 0 90 48 60
        E 0 90 4a 60
        E 0 90 54 60
        E 0 90 56 60
        E 0 90 60 60
        E 0 90 62 60
        E 0 90 18 60
        E 0 90 1f 60
        E 120 80 3c 00
        E 0 80 3e 00
        E 0 80 48 00
        E 0 80 4a 00
        E 0 80 54 00
        E 0 80 56 00
        E 0 80 60 00
        E 0 80 62 00
        E 0 80 18 00
        E 0 80 1f 00
        E 120 90 48 60
        E 0 90 4a 60
        E 0 90 54 60
        E 0 90 56 60
        E 0 90 60 60
        E 0 90 62 60
        E 0 90 18 60
        E 0 90 1f 60
        E 120 80 48 00
        E 0 80 4a 00
        E 0 80 54 00
        E 0 80 56 00
        E 0 80 60 00
        E 0 80 62 00
        E 0 80 18 00
        E 0 80 1f 00
        E 120 90 48 60
        E 0 90 4a 60
        E 0 90 54 60
        E 0 90 56 60
        E 0 90 60 60
        E 0 90 62 60
        E 0 90 18 60
        E 0 90 1f 60
        E 120 80 48 00
        E 0 80 4a 00
        E 0 80 54 00
        E 0 80 56 00
        E 0 80 60 00
        E 0 80 62 00
        E 0 90 60 60
        E 0 80 18 00
        E 0 80 1f 00
        E 0 90 18 60
        E 120 80 60 00
        E 0 90 55 60
        E 0 90 56 60
        E 0 90 61 60
        E 0 90 62 60
        E 0 80 18 00
        E 0 90 1a 60
        E 0 90 1f 60
        E 120 80 55 00
        E 0 80 56 00
        E 0 80 61 00
        E 0 80 62 00
        E 0 90 60 60
        E 0 80 1a 00
        E 0 80 1f 00
        E 0 90 18 60
        E 120 80 60 00
        E 0 90 3e 60
        E 0 90 4a 60
        E 0 90 56 60
        E 0 90 62 60
        E 0 80 18 00
        E 0 90 1f 60
        E 120 80 3e 00
        E 0 80 4a 00
        E 0 80 56 00
        E 0 80 62 00
        E 0 90 61 60
        E 0 80 1f 00
        E 0 90 1a 60
        E 120 80 61 00
        E 0 90 56 60
        E 0 90 62 60
        E 0 80 1a 00
        E 0 90 1f 60
        E 120 80 56 00
        E 0 80 62 00
        E 0 80 1f 00
        E 120 90 3c 60
        E 0 90 3e 60
        E 0 90 48 60
        E 0 90 4a 60
        E 0 90 54 60
        E 0 90 56 60
        E 0 90 60 60
        E 0 90 62 60
        E 0 90 18 60
        E 0 90 1f 60
        E 120 80 3c 00
        E 0 80 3e 00
        E 0 80 48 00
        E 0 80 4a 00
        E 0 80 54 00
        E 0 80 56 00
        E 0 80 60 00
        E 0 80 62 00
        E 0 80 18 00
        E 0 80 1f 00
        E 120 90 54 60
        E 0 90 56 60
        E 0 90 60 60
        E 0 90 62 60
        E 0 90 18 60
        E 0 90 1f 60
        E 120 80 54 00
        E 0 80 56 00
        E 0 80 60 00
        E 0 80 62 00
        E 0 90 60 60
        E 0 80 18 00
        E 0 80 1f 00
        E 0 90 18 60
        E 120 80 60 00
        E 0 90 4a 60
        E 0 90 56 60
        E 0 90 62 60
        E 0 80 18 00
        E 0 90 1f 60
        E 120 80 4a 00
        E 0 80 56 00
        E 0 80 62 00
        E 0 90 60 60
        E 0 80 1f 00
        E 0 90 18 60
        E 120 80 60 00
        E 0 90 55 60
        E 0 90 58 60
        E 0 90 61 60
        E 0 90 64 60
        E 0 80 18 00
        E 0 90 1a 60
        E 0 90 26 60
        E 120 80 55 00
        E 0 80 58 00
        E 0 80 61 00
        E 0 80 64 00
        E 0 90 61 60
        E 0 80 1a 00
        E 0 80 26 00
        E 0 90 1a 60
        E 60 80 61 00
        E 0 90 61 60
        E 0 80 1a 00
        E 0 90 1b 60
        E 60 80 61 00
        E 0 90 49 60
        E 0 90 55 60
        E 0 90 61 60
        E 0 80 1b 00
        E 0 90 1a 60
        E 120 80 49 00
        E 0 80 55 00
        E 0 80 61 00
        E 0 90 61 60
        E 0 80 1a 00
        E 0 90 1b 60
        E 120 80 61 00
        E 0 90 56 60
        E 0 90 62 60
        E 0 90 6e 60
        E 0 80 1b 00
        E 0 90 2e 60
        E 60 80 56 00
        E 0 80 62 00
        E 0 80 6e 00
        E 0 90 62 60
        E 0 90 6e 60
        E 0 80 2e 00
        E 0 90 2f 60
        E 60 80 62 00
        E 0 80 6e 00
        E 0 90 62 60
        E 0 90 6e 60
        E 0 80 2f 00
        E 0 90 2e 60
        E 60 80 62 00
        E 0 80 6e 00
        E 0 90 62 60
        E 0 90 6e 60
        E 0 80 2e 00
        E 0 90 2f 60
        E 60 80 62 00
        E 0 80 6e 00
        E 0 90 3c 60
        E 0 90 40 60
        E 0 90 48 60
        E 0 90 4c 60
        E 0 90 54 60
        E 0 90 58 60
        E 0 90 60 60
        E 0 90 64 60
        E 0 80 2f 00
        E 0 90 18 60
        E 0 90 2c 60
        E 60 80 3c 00
        E 0 80 40 00
        E 0 80 48 00
        E 0 80 4c 00
        E 0 80 54 00
        E 0 80 58 00
        E 0 80 60 00
        E 0 80 64 00
        E 0 80 18 00
        E 0 80 2c 00
        E 180 90 54 60
        E 0 90 56 60
        E 0 90 60 60
        E 0 90 62 60
        E 0 90 18 60
        E 0 90 1f 60
        E 60 80 54 00
        E 0 80 56 00
        E 0 80 60 00
        E 0 80 62 00
        E 0 80 18 00
        E 0 80 1f 00
        E 180 90 48 60
        E 0 90 4a 60
        E 0 90 54 60
        E 0 90 56 60
        E 0 90 60 60
        E 0 90 62 60
        E 0 90 18 60
        E 0 90 1f 60
        E 60 80 48 00
        E 0 80 4a 00
        E 0 80 54 00
        E 0 80 56 00
        E 0 80 60 00
        E 0 80 62 00
        E 0 80 18 00
        E 0 80 1f 00
        E 60 90 60 60
        E 0 90 18 60
        E 60 80 60 00
        E 0 80 18 00
        E 60 90 55 60
        E 0 90 56 60
        E 0 90 61 60
        E 0 90 62 60
        E 0 90 1a 60
        E 0 90 1f 60
        E 60 80 55 00
        E 0 80 56 00
        E 0 80 61 00
        E 0 80 62 00
        E 0 80 1a 00
        E 0 80 1f 00
        E 60 90 60 60
        E 0 90 18 60
        E 60 80 60 00
        E 0 80 18 00
        E 60 90 3e 60
        E 0 90 4a 60
        E 0 90 56 60
        E 0 90 62 60
        E 0 90 1f 60
        E 60 80 3e 00
        E 0 80 4a 00
        E 0 80 56 00
        E 0 80 62 00
        E 0 80 1f 00
        E 60 90 61 60
        E 0 90 1a 60
        E 60 80 61 00
        E 0 80 1a 00
        E 60 90 54 60
        E 0 90 56 60
        E 0 90 60 60
        E 0 90 62 60
        E 0 90 18 60
        E 0 90 1f 60
        E 60 80 54 00
        E 0 80 56 00
        E 0 80 60 00
        E 0 80 62 00
        E 0 80 18 00
        E 0 80 1f 00
        E 180 90 3c 60
        E 0 90 3e 60
        E 0 90 48 60
        E 0 90 4a 60
        E 0 90 54 60
        E 0 90 56 60
        E 0 90 60 60
        E 0 90 62 60
        E 0 90 18 60
        E 0 90 1f 60
        E 60 80 3c 00
        E 0 80 3e 00
        E 0 80 48 00
        E 0 80 4a 00
        E 0 80 54 00
        E 0 80 56 00
        E 0 80 60 00
        E 0 80 62 00
        E 0 80 18 00
        E 0 80 1f 00
        E 180 90 48 60
        E 0 90 4a 60
        E 0 90 54 60
        E 0 90 56 60
        E 0 90 60 60
        E 0 90 62 60
        E 0 90 18 60
        E 0 90 1f 60
        E 60 80 48 00
        E 0 80 4a 00
        E 0 80 54 00
        E 0 80 56 00
        E 0 80 60 00
        E 0 80 62 00
        E 0 80 18 00
        E 0 80 1f 00
        E 180 90 3c 60
        E 0 90 3e 60
        E 0 90 48 60
        E 0 90 4a 60
        E 0 90 54 60
        E 0 90 56 60
        E 0 90 60 60
        E 0 90 62 60
        E 0 90 18 60
        E 0 90 1f 60
        E 60 80 3c 00
        E 0 80 3e 00
        E 0 80 48 00
        E 0 80 4a 00
        E 0 80 54 00
        E 0 80 56 00
        E 0 80 60 00
        E 0 80 62 00
        E 0 80 18 00
        E 0 80 1f 00
        E 60 90 60 60
        E 0 90 18 60
        E 60 80 60 00
        E 0 80 18 00
        E 60 90 55 60
        E 0 90 56 60
        E 0 90 61 60
        E 0 90 62 60
        E 0 90 1a 60
        E 0 90 1f 60
        E 60 80 55 00
        E 0 80 56 00
        E 0 80 61 00
        E 0 80 62 00
        E 0 80 1a 00
        E 0 80 1f 00
        E 60 90 60 60
        E 0 90 18 60
        E 60 80 60 00
        E 0 80 18 00
        E 60 90 4a 60
        E 0 90 56 60
        E 0 90 62 60
        E 0 90 1f 60
        E 60 80 4a 00
        E 0 80 56 00
        E 0 80 62 00
        E 0 80 1f 00
        E 60 90 61 60
        E 0 90 1a 60
        E 60 80 61 00
        E 0 80 1a 00
        E 60 90 54 60
        E 0 90 56 60
        E 0 90 60 60
        E 0 90 62 60
        E 0 90 18 60
        E 0 90 1f 60
        E 60 80 54 00
        E 0 80 56 00
        E 0 80 60 00
        E 0 80 62 00
        E 0 80 18 00
        E 0 80 1f 00
        E 60 90 61 60
        E 0 90 1a 60
        E 60 80 61 00
        E 0 80 1a 00
        E 60 90 3c 60
        E 0 90 40 60
        E 0 90 48 60
        E 0 90 4c 60
        E 0 90 54 60
        E 0 90 58 60
        E 0 90 60 60
        E 0 90 64 60
        E 0 90 18 60
        E 0 90 26 60
        E 60 80 3c 00
        E 0 80 40 00
        E 0 80 48 00
        E 0 80 4c 00
        E 0 80 54 00
        E 0 80 58 00
        E 0 80 60 00
        E 0 80 64 00
        E 0 80 18 00
        E 0 80 26 00
        E 180 90 54 60
        E 0 90 56 60
        E 0 90 60 60
        E 0 90 62 60
        E 0 90 18 60
        E 0 90 1f 60
        E 60 80 54 00
        E 0 80 56 00
        E 0 80 60 00
        E 0 80 62 00
        E 0 80 18 00
        E 0 80 1f 00
        E 180 90 4a 60
        E 0 90 56 60
        E 0 90 62 60
        E 0 90 1f 60
        E 60 80 4a 00
        E 0 80 56 00
        E 0 80 62 00
        E 0 80 1f 00
        E 60 90 60 60
        E 0 90 18 60
        E 60 80 60 00
        E 0 80 18 00
        E 60 90 55 60
        E 0 90 56 60
        E 0 90 61 60
        E 0 90 62 60
        E 0 90 1a 60
        E 0 90 1f 60
        E 60 80 55 00
        E 0 80 56 00
        E 0 80 61 00
        E 0 80 62 00
        E 0 80 1a 00
        E 0 80 1f 00
        E 60 90 60 60
        E 0 90 18 60
        E 60 80 60 00
        E 0 80 18 00
        E 60 90 3c 60
        E 0 90 3e 60
        E 0 90 48 60
        E 0 90 4a 60
        E 0 90 54 60
        E 0 90 56 60
        E 0 90 60 60
        E 0 90 62 60
        E 0 90 18 60
        E 0 90 1f 60
        E 60 80 3c 00
        E 0 80 3e 00
        E 0 80 48 00
        E 0 80 4a 00
        E 0 80 54 00
        E 0 80 56 00
        E 0 80 60 00
        E 0 80 62 00
        E 0 80 18 00
        E 0 80 1f 00
        E 180 90 56 60
        E 0 90 62 60
        E 0 90 1f 60
        E 60 80 56 00
        E 0 80 62 00
        E 0 80 1f 00
        E 60 90 60 60
        E 0 90 18 60
        E 60 80 60 00
        E 0 80 18 00
        E 60 90 3d 60
        E 0 90 49 60
        E 0 90 4c 60
        E 0 90 55 60
        E 0 90 58 60
        E 0 90 61 60
        E 0 90 64 60
        E 0 90 1a 60
        E 0 90 26 60
        E 60 80 3d 00
        E 0 80 49 00
        E 0 80 4c 00
        E 0 80 55 00
        E 0 80 58 00
        E 0 80 61 00
        E 0 80 64 00
        E 0 80 1a 00
        E 0 80 26 00
        E 60 90 61 60
        E 0 90 1a 60
        E 60 80 61 00
        E 0 90 61 60
        E 0 80 1a 00
        E 0 90 1b 60
        E 60 80 61 00
        E 0 90 55 60
        E 0 90 61 60
        E 0 80 1b 00
        E 0 90 1a 60
        E 60 80 55 00
        E 0 80 61 00
        E 0 80 1a 00
        E 60 90 61 60
        E 0 90 1b 60
        E 60 80 61 00
        E 0 80 1b 00
        E 60 90 4a 60
        E 0 90 56 60
        E 0 90 62 60
        E 0 90 6e 60
        E 0 90 2e 60
        E 60 80 4a 00
        E 0 80 56 00
        E 0 80 62 00
        E 0 80 6e 00
        E 0 90 62 60
        E 0 90 6e 60
        E 0 80 2e 00
        E 0 90 2f 60
        E 60 80 62 00
        E 0 80 6e 00
        E 0 90 62 60
        E 0 90 6e 60
        E 0 80 2f 00
        E 0 90 2e 60
        E 120 80 62 00
        E 0 80 6e 00
        E 0 90 4a 60
        E 0 90 56 60
        E 0 90 62 60
        E 0 90 6e 60
        E 0 80 2e 00
        E 0 90 2f 60
        E 60 80 4a 00
        E 0 80 56 00
        E 0 80 62 00
        E 0 80 6e 00
        E 0 80 2f 00
        E 60 90 62 60
        E 0 90 6e 60
        E 0 90 2e 60
        E 60 80 62 00
        E 0 80 6e 00
        E 0 80 2e 00
        E 60 90 4a 60
        E 0 90 56 60
        E 0 90 62 60
        E 0 90 6e 60
        E 0 90 2f 60
        E 60 80 4a 00
        E 0 80 56 00
        E 0 80 62 00
        E 0 80 6e 00
        E 0 80 2f 00
        E 60 90 62 60
        E 0 90 6e 60
        E 0 90 2e 60
        E 60 80 62 00
        E 0 80 6e 00
        E 0 80 2e 00
        E 60 90 57 60
        E 0 90 63 60
        E 0 90 6f 60
        E 0 90 31 60
        E 60 80 57 00
        E 0 80 63 00
        E 0 80 6f 00
        E 0 90 63 60
        E 0 90 6f 60
        E 0 80 31 00
        E 0 90 30 60
        E 60 80 63 00
        E 0 80 6f 00
        E 0 90 63 60
        E 0 90 6f 60
        E 0 80 30 00
        E 0 90 31 60
        E 60 80 63 00
        E 0 80 6f 00
        E 0 90 63 60
        E 0 90 6f 60
        E 0 80 31 00
        E 0 90 30 60
        E 60 80 63 00
        E 0 80 6f 00
        E 0 90 3c 60
        E 0 90 40 60
        E 0 90 48 60
        E 0 90 4c 60
        E 0 90 54 60
        E 0 90 58 60
        E 0 90 60 60
        E 0 90 64 60
        E 0 80 30 00
        E 0 90 18 60
        E 0 90 26 60
        E 60 80 3c 00
        E 0 80 40 00
        E 0 80 48 00
        E 0 80 4c 00
        E 0 80 54 00
        E 0 80 58 00
        E 0 80 60 00
        E 0 80 64 00
        E 0 80 18 00
        E 0 80 26 00
        E 180 90 54 60
        E 0 90 56 60
        E 0 90 60 60
        E 0 90 62 60
        E 0 90 18 60
        E 0 90 1f 60
        E 60 80 54 00
        E 0 80 56 00
        E 0 80 60 00
        E 0 80 62 00
        E 0 80 18 00
        E 0 80 1f 00
        E 180 90 48 60
        E 0 90 4a 60
        E 0 90 54 60
        E 0 90 56 60
        E 0 90 60 60
        E 0 90 62 60
        E 0 90 18 60
        E 0 90 1f 60
        E 60 80 48 00
        E 0 80 4a 00
        E 0 80 54 00
        E 0 80 56 00
        E 0 80 60 00
        E 0 80 62 00
        E 0 80 18 00
        E 0 80 1f 00
        E 60 90 60 60
        E 0 90 18 60
        E 60 80 60 00
        E 0 80 18 00
        E 60 90 55 60
        E 0 90 58 60
        E 0 90 61 60
        E 0 90 64 60
        E 0 90 1a 60
        E 0 90 26 60
        E 60 80 55 00
        E 0 80 58 00
        E 0 80 61 00
        E 0 80 64 00
        E 0 80 1a 00
        E 0 80 26 00
        E 60 90 60 60
        E 0 90 18 60
        E 60 80 60 00
        E 0 80 18 00
        E 60 90 3d 60
        E 0 90 49 60
        E 0 90 4c 60
        E 0 90 55 60
        E 0 90 58 60
        E 0 90 61 60
        E 0 90 64 60
        E 0 90 1a 60
        E 0 90 26 60
        E 60 80 3d 00
        E 0 80 49 00
        E 0 80 4c 00
        E 0 80 55 00
        E 0 80 58 00
        E 0 80 61 00
        E 0 80 64 00
        E 0 80 1a 00
        E 0 80 26 00
        E 60 90 60 60
        E 0 90 18 60
        E 60 80 60 00
        E 0 80 18 00
        E 60 90 55 60
        E 0 90 61 60
        E 0 90 1b 60
        E 60 80 55 00
        E 0 80 61 00
        E 0 80 1b 00
        E 60 90 61 60
        E 0 90 1a 60
        E 60 80 61 00
        E 0 80 1a 00
        E 60 90 3c 60
        E 0 90 40 60
        E 0 90 48 60
        E 0 90 4c 60
        E 0 90 54 60
        E 0 90 58 60
        E 0 90 60 60
        E 0 90 64 60
        E 0 90 18 60
        E 0 90 26 60
        E 60 80 3c 00
        E 0 80 40 00
        E 0 80 48 00
        E 0 80 4c 00
        E 0 80 54 00
        E 0 80 58 00
        E 0 80 60 00
        E 0 80 64 00
        E 0 80 18 00
        E 0 80 26 00
        E 180 90 54 60
        E 0 90 56 60
        E 0 90 60 60
        E 0 90 62 60
        E 0 90 18 60
        E 0 90 1f 60
        E 60 80 54 00
        E 0 80 56 00
        E 0 80 60 00
        E 0 80 62 00
        E 0 80 18 00
        E 0 80 1f 00
        E 180 90 48 60
        E 0 90 4a 60
        E 0 90 54 60
        E 0 90 56 60
        E 0 90 60 60
        E 0 90 62 60
        E 0 90 18 60
        E 0 90 1f 60
        E 60 80 48 00
        E 0 80 4a 00
        E 0 80 54 00
        E 0 80 56 00
        E 0 80 60 00
        E 0 80 62 00
        E 0 80 18 00
        E 0 80 1f 00
        E 60 90 60 60
        E 0 90 18 60
        E 60 80 60 00
        E 0 80 18 00
        E 60 90 55 60
        E 0 90 56 60
        E 0 90 61 60
        E 0 90 62 60
        E 0 90 1a 60
        E 0 90 1f 60
        E 60 80 55 00
        E 0 80 56 00
        E 0 80 61 00
        E 0 80 62 00
        E 0 80 1a 00
        E 0 80 1f 00
        E 60 90 60 60
        E 0 90 18 60
        E 60 80 60 00
        E 0 80 18 00
        E 60 90 48 60
        E 0 90 4a 60
        E 0 90 54 60
        E 0 90 56 60
        E 0 90 60 60
        E 0 90 62 60
        E 0 90 18 60
        E 0 90 1f 60
        E 60 80 48 00
        E 0 80 4a 00
        E 0 80 54 00
        E 0 80 56 00
        E 0 80 60 00
        E 0 80 62 00
        E 0 80 18 00
        E 0 80 1f 00
        E 60 90 61 60
        E 0 90 1a 60
        E 60 80 61 00
        E 0 80 1a 00
        E 60 90 56 60
        E 0 90 62 60
        E 0 90 1f 60
        E 60 80 56 00
        E 0 80 62 00
        E 0 80 1f 00
        E 180 90 3c 60
        E 0 90 40 60
        E 0 90 48 60
        E 0 90 4c 60
        E 0 90 54 60
        E 0 90 58 60
        E 0 90 60 60
        E 0 90 64 60
        E 0 90 18 60
        E 0 90 26 60
        E 60 80 3c 00
        E 0 80 40 00
        E 0 80 48 00
        E 0 80 4c 00
        E 0 80 54 00
        E 0 80 58 00
        E 0 80 60 00
        E 0 80 64 00
        E 0 80 18 00
        E 0 80 26 00
        E 180 90 54 60
        E 0 90 56 60
        E 0 90 60 60
        E 0 90 62 60
        E 0 90 18 60
        E 0 90 1f 60
        E 60 80 54 00
        E 0 80 56 00
        E 0 80 60 00
        E 0 80 62 00
        E 0 80 18 00
        E 0 80 1f 00
        E 180 90 4a 60
        E 0 90 56 60
        E 0 90 62 60
        E 0 90 1f 60
        E 60 80 4a 00
        E 0 80 56 00
        E 0 80 62 00
        E 0 80 1f 00
        E 60 90 60 60
        E 0 90 18 60
        E 60 80 60 00
        E 0 80 18 00
        E 60 90 55 60
        E 0 90 56 60
        E 0 90 61 60
        E 0 90 62 60
        E 0 90 1a 60
        E 0 90 1f 60
        E 60 80 55 00
        E 0 80 56 00
        E 0 80 61 00
        E 0 80 62 00
        E 0 80 1a 00
        E 0 80 1f 00
        E 60 90 60 60
        E 0 90 18 60
        E 60 80 60 00
        E 0 80 18 00
        E 60 90 3c 60
        E 0 90 3e 60
        E 0 90 48 60
        E 0 90 4a 60
        E 0 90 54 60
        E 0 90 56 60
        E 0 90 60 60
        E 0 90 62 60
        E 0 90 18 60
        E 0 90 1f 60
        E 60 80 3c 00
        E 0 80 3e 00
        E 0 80 48 00
        E 0 80 4a 00
        E 0 80 54 00
        E 0 80 56 00
        E 0 80 60 00
        E 0 80 62 00
        E 0 80 18 00
        E 0 80 1f 00
        E 60 90 61 60
        E 0 90 1a 60
        E 60 80 61 00
        E 0 80 1a 00
        E 60 90 56 60
        E 0 90 62 60
        E 0 90 1f 60
        E 60 80 56 00
        E 0 80 62 00
        E 0 80 1f 00
        E 180 90 3c 60
        E 0 90 40 60
        E 0 90 48 60
        E 0 90 4c 60
        E 0 90 54 60
        E 0 90 58 60
        E 0 90 60 60
        E 0 90 64 60
        E 0 90 18 60
        E 0 90 26 60
        E 60 80 3c 00
        E 0 80 40 00
        E 0 80 48 00
        E 0 80 4c 00
        E 0 80 54 00
        E 0 80 58 00
        E 0 80 60 00
        E 0 80 64 00
        E 0 80 18 00
        E 0 80 26 00
        E 60 90 61 60
        E 0 90 1a 60
        E 60 80 61 00
        E 0 90 61 60
        E 0 80 1a 00
        E 0 90 1b 60
        E 60 80 61 00
        E 0 90 55 60
        E 0 90 61 60
        E 0 80 1b 00
        E 0 90 1a 60
        E 60 80 55 00
        E 0 80 61 00
        E 0 80 1a 00
        E 60 90 61 60
        E 0 90 1b 60
        E 60 80 61 00
        E 0 80 1b 00
        E 60 90 4a 60
        E 0 90 56 60
        E 0 90 62 60
        E 0 90 6e 60
        E 0 90 2e 60
        E 60 80 4a 00
        E 0 80 56 00
        E 0 80 62 00
        E 0 80 6e 00
        E 0 90 62 60
        E 0 90 6e 60
        E 0 80 2e 00
        E 0 90 2f 60
        E 60 80 62 00
        E 0 80 6e 00
        E 0 90 62 60
        E 0 90 6e 60
        E 0 80 2f 00
        E 0 90 2e 60
        E 60 80 62 00
        E 0 80 6e 00
        E 0 90 62 60
        E 0 90 6e 60
        E 0 80 2e 00
        E 0 90 2f 60
        E 60 80 62 00
        E 0 80 6e 00
        E 0 90 56 60
        E 0 90 62 60
        E 0 90 6e 60
        E 0 80 2f 00
        E 0 90 2e 60
        E 60 80 56 00
        E 0 80 62 00
        E 0 80 6e 00
        E 0 90 62 60
        E 0 90 6e 60
        E 0 80 2e 00
        E 0 90 2f 60
        E 60 80 62 00
        E 0 80 6e 00
        E 0 90 63 60
        E 0 90 6f 60
        E 0 80 2f 00
        E 0 90 30 60
        E 60 80 63 00
        E 0 80 6f 00
        E 0 90 63 60
        E 0 90 6f 60
        E 0 80 30 00
        E 0 90 31 60
        E 60 80 63 00
        E 0 80 6f 00
        E 0 90 4b 60
        E 0 90 57 60
        E 0 90 63 60
        E 0 90 6f 60
        E 0 80 31 00
        E 0 90 30 60
        E 60 80 4b 00
        E 0 80 57 00
        E 0 80 63 00
        E 0 80 6f 00
        E 0 90 63 60
        E 0 90 6f 60
        E 0 80 30 00
        E 0 90 31 60
        E 60 80 63 00
        E 0 80 6f 00
        E 0 90 63 60
        E 0 90 6f 60
        E 0 80 31 00
        E 0 90 30 60
        E 60 80 63 00
        E 0 80 6f 00
        E 0 90 63 60
        E 0 90 6f 60
        E 0 80 30 00
        E 0 90 31 60
        E 60 80 63 00
        E 0 80 6f 00
        E 0 90 58 60
        E 0 90 64 60
        E 0 90 70 60
        E 0 80 31 00
        E 0 90 32 60
        E 60 80 58 00
        E 0 80 64 00
        E 0 80 70 00
        E 0 90 64 60
        E 0 90 70 60
        E 0 80 32 00
        E 0 90 33 60
        E 60 80 64 00
        E 0 80 70 00
        E 0 90 64 60
        E 0 90 70 60
        E 0 80 33 00
        E 0 90 32 60
        E 60 80 64 00
        E 0 80 70 00
        E 0 90 64 60
        E 0 90 70 60
        E 0 80 32 00
        E 0 90 33 60
        E 60 80 64 00
        E 0 80 70 00
        E 0 90 3c 60
        E 0 90 40 60
        E 0 90 48 60
        E 0 90 4c 60
        E 0 90 54 60
        E 0 90 58 60
        E 0 90 60 60
        E 0 90 64 60
        E 0 80 33 00
        E 0 90 18 60
        E 0 90 2c 60
        E 60 80 3c 00
        E 0 80 40 00
        E 0 80 48 00
        E 0 80 4c 00
        E 0 80 54 00
        E 0 80 58 00
        E 0 80 60 00
        E 0 80 64 00
        E 0 80 18 00
        E 0 80 2c 00
        E 180 90 54 60
        E 0 90 56 60
        E 0 90 60 60
        E 0 90 62 60
        E 0 90 18 60
        E 0 90 1f 60
        E 60 80 54 00
        E 0 80 56 00
        E 0 80 60 00
        E 0 80 62 00
        E 0 80 18 00
        E 0 80 1f 00
        E 180 90 48 60
        E 0 90 4a 60
        E 0 90 54 60
        E 0 90 56 60
        E 0 90 60 60
        E 0 90 62 60
        E 0 90 18 60
        E 0 90 1f 60
        E 60 80 48 00
        E 0 80 4a 00
        E 0 80 54 00
        E 0 80 56 00
        E 0 80 60 00
        E 0 80 62 00
        E 0 80 18 00
        E 0 80 1f 00
        E 120 90 61 60
        E 0 90 1a 60
        E 60 80 61 00
        E 0 90 55 60
        E 0 90 61 60
        E 0 80 1a 00
        E 0 90 1b 60
        E 60 80 55 00
        E 0 80 61 00
        E 0 80 1b 00
        E 120 90 61 60
        E 0 90 1a 60
        E 60 80 61 00
        E 0 90 3c 60
        E 0 90 40 60
        E 0 90 48 60
        E 0 90 4c 60
        E 0 90 54 60
        E 0 90 58 60
        E 0 90 60 60
        E 0 90 64 60
        E 0 80 1a 00
        E 0 90 18 60
        E 0 90 26 60
        E 60 80 3c 00
        E 0 80 40 00
        E 0 80 48 00
        E 0 80 4c 00
        E 0 80 54 00
        E 0 80 58 00
        E 0 80 60 00
        E 0 80 64 00
        E 0 80 18 00
        E 0 80 26 00
        E 180 90 54 60
        E 0 90 56 60
        E 0 90 60 60
        E 0 90 64 60
        E 0 90 18 60
        E 0 90 26 60
        E 60 80 54 00
        E 0 80 56 00
        E 0 80 60 00
        E 0 80 64 00
        E 0 80 18 00
        E 0 80 26 00
        E 60 90 60 60
        E 0 90 63 60
        E 0 90 18 60
        E 0 90 2a 60
        E 60 80 60 00
        E 0 80 63 00
        E 0 80 18 00
        E 0 80 2a 00
        E 60 90 3c 60
        E 0 90 40 60
        E 0 90 48 60
        E 0 90 4c 60
        E 0 90 54 60
        E 0 90 58 60
        E 0 90 60 60
        E 0 90 64 60
        E 0 90 18 60
        E 0 90 26 60
        E 60 80 3c 00
        E 0 80 40 00
        E 0 80 48 00
        E 0 80 4c 00
        E 0 80 54 00
        E 0 80 58 00
        E 0 80 60 00
        E 0 80 64 00
        E 0 80 18 00
        E 0 80 26 00
        E 180 90 56 60
        E 0 90 62 60
        E 0 90 1f 60
        E 60 80 56 00
        E 0 80 62 00
        E 0 80 1f 00
        E 180 90 4a 60
        E 0 90 56 60
        E 0 90 62 60
        E 0 90 1f 60
        E 60 80 4a 00
        E 0 80 56 00
        E 0 80 62 00
        E 0 80 1f 00
        E 60 90 60 60
        E 0 90 18 60
        E 60 80 60 00
        E 0 80 18 00
        E 60 90 55 60
        E 0 90 56 60
        E 0 90 61 60
        E 0 90 62 60
        E 0 90 1a 60
        E 0 90 1f 60
        E 60 80 55 00
        E 0 80 56 00
        E 0 80 61 00
        E 0 80 62 00
        E 0 80 1a 00
        E 0 80 1f 00
        E 60 90 60 60
        E 0 90 18 60
        E 60 80 60 00
        E 0 80 18 00
        E 60 90 48 60
        E 0 90 4a 60
        E 0 90 54 60
        E 0 90 56 60
        E 0 90 60 60
        E 0 90 62 60
        E 0 90 18 60
        E 0 90 1f 60
        E 60 80 48 00
        E 0 80 4a 00
        E 0 80 54 00
        E 0 80 56 00
        E 0 80 60 00
        E 0 80 62 00
        E 0 80 18 00
        E 0 80 1f 00
        E 60 90 61 60
        E 0 90 1a 60
        E 60 80 61 00
        E 0 80 1a 00
        E 60 90 56 60
        E 0 90 62 60
        E 0 90 1f 60
        E 60 80 56 00
        E 0 80 62 00
        E 0 80 1f 00
        E 180 90 3c 60
        E 0 90 40 60
        E 0 90 48 60
        E 0 90 4c 60
        E 0 90 54 60
        E 0 90 58 60
        E 0 90 60 60
        E 0 90 64 60
        E 0 90 18 60
        E 0 90 26 60
        E 60 80 3c 00
        E 0 80 40 00
        E 0 80 48 00
        E 0 80 4c 00
        E 0 80 54 00
        E 0 80 58 00
        E 0 80 60 00
        E 0 80 64 00
        E 0 80 18 00
        E 0 80 26 00
        E 180 90 54 60
        E 0 90 56 60
        E 0 90 60 60
        E 0 90 62 60
        E 0 90 18 60
        E 0 90 1f 60
        E 60 80 54 00
        E 0 80 56 00
        E 0 80 60 00
        E 0 80 62 00
        E 0 80 18 00
        E 0 80 1f 00
        E 180 90 4a 60
        E 0 90 56 60
        E 0 90 62 60
        E 0 90 1f 60
        E 60 80 4a 00
        E 0 80 56 00
        E 0 80 62 00
        E 0 80 1f 00
        E 60 90 60 60
        E 0 90 18 60
        E 60 80 60 00
        E 0 80 18 00
        E 60 90 55 60
        E 0 90 56 60
        E 0 90 61 60
        E 0 90 62 60
        E 0 90 1a 60
        E 0 90 1f 60
        E 60 80 55 00
        E 0 80 56 00
        E 0 80 61 00
        E 0 80 62 00
        E 0 80 1a 00
        E 0 80 1f 00
        E 60 90 60 60
        E 0 90 18 60
        E 60 80 60 00
        E 0 80 18 00
        E 60 90 3c 60
        E 0 90 3e 60
        E 0 90 48 60
        E 0 90 4a 60
        E 0 90 54 60
        E 0 90 56 60
        E 0 90 60 60
        E 0 90 62 60
        E 0 90 18 60
        E 0 90 1f 60
        E 60 80 3c 00
        E 0 80 3e 00
        E 0 80 48 00
        E 0 80 4a 00
        E 0 80 54 00
        E 0 80 56 00
        E 0 80 60 00
        E 0 80 62 00
        E 0 80 18 00
        E 0 80 1f 00
        E 180 90 56 60
        E 0 90 62 60
        E 0 90 1f 60
        E 60 80 56 00
        E 0 80 62 00
        E 0 80 1f 00
        E 60 90 60 60
        E 0 90 18 60
        E 60 80 60 00
        E 0 80 18 00
        E 60 90 3d 60
        E 0 90 49 60
        E 0 90 4c 60
        E 0 90 55 60
        E 0 90 58 60
        E 0 90 61 60
        E 0 90 64 60
        E 0 90 1a 60
        E 0 90 26 60
        E 60 80 3d 00
        E 0 80 49 00
        E 0 80 4c 00
        E 0 80 55 00
        E 0 80 58 00
        E 0 80 61 00
        E 0 80 64 00
        E 0 80 1a 00
        E 0 80 26 00
        E 60 90 61 60
        E 0 90 1a 60
        E 60 80 61 00
        E 0 90 61 60
        E 0 80 1a 00
        E 0 90 1b 60
        E 60 80 61 00
        E 0 90 55 60
        E 0 90 61 60
        E 0 80 1b 00
        E 0 90 1a 60
        E 60 80 55 00
        E 0 80 61 00
        E 0 80 1a 00
        E 60 90 61 60
        E 0 90 1b 60
        E 60 80 61 00
        E 0 80 1b 00
        E 180 90 60 60
        E 0 90 18 60
        E 60 80 60 00
        E 0 80 18 00
        E 60 90 55 60
        E 0 90 56 60
        E 0 90 61 60
        E 0 90 62 60
        E 0 90 6e 60
        E 0 90 1a 60
        E 0 90 1b 60
        E 60 80 55 00
        E 0 80 56 00
        E 0 80 61 00
        E 0 80 62 00
        E 0 80 6e 00
        E 0 80 1a 00
        E 0 80 1b 00
        E 60 90 60 60
        E 0 90 18 60
        E 60 80 60 00
        E 0 80 18 00
        E 60 90 4a 60
        E 0 90 4b 60
        E 0 90 56 60
        E 0 90 57 60
        E 0 90 62 60
        E 0 90 63 60
        E 0 90 6e 60
        E 0 90 6f 60
        E 0 90 31 60
        E 0 90 2e 60
        E 60 80 4a 00
        E 0 80 4b 00
        E 0 80 56 00
        E 0 80 57 00
        E 0 80 62 00
        E 0 80 63 00
        E 0 80 6e 00
        E 0 80 6f 00
        E 0 80 31 00
        E 0 80 2e 00
        E 60 90 60 60
        E 0 90 18 60
        E 60 80 60 00
        E 0 80 18 00
        E 60 90 57 60
        E 0 90 58 60
        E 0 90 63 60
        E 0 90 64 60
        E 0 90 6f 60
        E 0 90 70 60
        E 0 90 33 60
        E 0 90 30 60
        E 60 80 57 00
        E 0 80 58 00
        E 0 80 63 00
        E 0 80 64 00
        E 0 80 6f 00
        E 0 80 70 00
        E 0 80 33 00
        E 0 80 30 00
        E 60 90 60 60
        E 0 90 18 60
        E 60 80 60 00
        E 0 80 18 00
        E 60 90 3c 60
        E 0 90 3e 60
        E 0 90 40 60
        E 0 90 48 60
        E 0 90 4a 60
        E 0 90 4c 60
        E 0 90 54 60
        E 0 90 56 60
        E 0 90 58 60
        E 0 90 60 60
        E 0 90 62 60
        E 0 90 64 60
        E 0 90 18 60
        E 0 90 26 60
        E 0 90 22 60
        E 60 80 3c 00
        E 0 80 3e 00
        E 0 80 40 00
        E 0 80 48 00
        E 0 80 4a 00
        E 0 80 4c 00
        E 0 80 54 00
        E 0 80 56 00
        E 0 80 58 00
        E 0 80 60 00
        E 0 80 62 00
        E 0 80 64 00
        E 0 80 18 00
        E 0 80 26 00
        E 0 80 22 00
        E 300 90 60 60
        E 0 90 18 60
        E 60 80 60 00
        E 0 80 18 00
        E 60 90 49 60
        E 0 90 4a 60
        E 0 90 55 60
        E 0 90 56 60
        E 0 90 61 60
        E 0 90 62 60
        E 0 90 6e 60
        E 0 90 1a 60
        E 0 90 1b 60
        E 60 80 49 00
        E 0 80 4a 00
        E 0 80 55 00
        E 0 80 56 00
        E 0 80 61 00
        E 0 80 62 00
        E 0 80 6e 00
        E 0 80 1a 00
        E 0 80 1b 00
        E 60 90 60 60
        E 0 90 18 60
        E 60 80 60 00
        E 0 80 18 00
        E 60 90 56 60
        E 0 90 62 60
        E 0 90 6e 60
        E 0 90 2f 60
        E 120 80 56 00
        E 0 80 62 00
        E 0 80 6e 00
        E 0 90 62 60
        E 0 90 6e 60
        E 0 80 2f 00
        E 0 90 2e 60
        E 120 80 62 00
        E 0 80 6e 00
        E 0 90 3f 60
        E 0 90 4b 60
        E 0 90 57 60
        E 0 90 63 60
        E 0 90 6f 60
        E 0 80 2e 00
        E 0 90 31 60
        E 60 80 3f 00
        E 0 80 4b 00
        E 0 80 57 00
        E 0 80 63 00
        E 0 80 6f 00
        E 0 80 31 00
        E 60 90 63 60
        E 0 90 6f 60
        E 0 90 30 60
        E 60 80 63 00
        E 0 80 6f 00
        E 0 80 30 00
        E 60 90 58 60
        E 0 90 64 60
        E 0 90 70 60
        E 0 90 33 60
        E 60 80 58 00
        E 0 80 64 00
        E 0 80 70 00
        E 0 80 33 00
        E 60 90 60 60
        E 0 90 18 60
        E 60 80 60 00
        E 0 80 18 00
        E 60 90 49 60
        E 0 90 4a 60
        E 0 90 55 60
        E 0 90 56 60
        E 0 90 61 60
        E 0 90 62 60
        E 0 90 6e 60
        E 0 90 1a 60
        E 0 90 1b 60
        E 60 80 49 00
        E 0 80 4a 00
        E 0 80 55 00
        E 0 80 56 00
        E 0 80 61 00
        E 0 80 62 00
        E 0 80 6e 00
        E 0 80 1a 00
        E 0 80 1b 00
        E 60 90 60 60
        E 0 90 18 60
        E 60 80 60 00
        E 0 80 18 00
        E 60 90 56 60
        E 0 90 62 60
        E 0 90 6e 60
        E 0 90 2f 60
        E 60 80 56 00
        E 0 80 62 00
        E 0 80 6e 00
        E 0 80 2f 00
        E 60 90 62 60
        E 0 90 6e 60
        E 0 90 2e 60
        E 60 80 62 00
        E 0 80 6e 00
        E 0 80 2e 00
        E 60 90 3f 60
        E 0 90 4b 60
        E 0 90 57 60
        E 0 90 63 60
        E 0 90 6f 60
        E 0 90 31 60
        E 60 80 3f 00
        E 0 80 4b 00
        E 0 80 57 00
        E 0 80 63 00
        E 0 80 6f 00
        E 0 80 31 00
        E 60 90 63 60
        E 0 90 6f 60
        E 0 90 30 60
        E 60 80 63 00
        E 0 80 6f 00
        E 0 80 30 00
        E 60 90 58 60
        E 0 90 64 60
        E 0 90 70 60
        E 0 90 33 60
        E 60 80 58 00
        E 0 80 64 00
        E 0 80 70 00
        E 0 80 33 00
        E 60 90 60 60
        E 0 90 18 60
        E 60 80 60 00
        E 0 80 18 00
        E 60 90 49 60
        E 0 90 4a 60
        E 0 90 55 60
        E 0 90 56 60
        E 0 90 61 60
        E 0 90 62 60
        E 0 90 6e 60
        E 0 90 1a 60
        E 0 90 1b 60
        E 60 80 49 00
        E 0 80 4a 00
        E 0 80 55 00
        E 0 80 56 00
        E 0 80 61 00
        E 0 80 62 00
        E 0 80 6e 00
        E 0 80 1a 00
        E 0 80 1b 00
        E 60 90 60 60
        E 0 90 18 60
        E 60 80 60 00
        E 0 80 18 00
        E 60 90 56 60
        E 0 90 62 60
        E 0 90 6e 60
        E 0 90 2f 60
        E 60 80 56 00
        E 0 80 62 00
        E 0 80 6e 00
        E 0 90 62 60
        E 0 90 6e 60
        E 0 80 2f 00
        E 0 90 2e 60
        E 60 80 62 00
        E 0 80 6e 00
        E 0 90 62 60
        E 0 90 6e 60
        E 0 80 2e 00
        E 0 90 2f 60
        E 60 80 62 00
        E 0 80 6e 00
        E 0 90 62 60
        E 0 90 6e 60
        E 0 80 2f 00
        E 0 90 2e 60
        E 60 80 62 00
        E 0 80 6e 00
        E 0 90 3f 60
        E 0 90 4b 60
        E 0 90 57 60
        E 0 90 63 60
        E 0 90 6f 60
        E 0 80 2e 00
        E 0 90 31 60
        E 60 80 3f 00
        E 0 80 4b 00
        E 0 80 57 00
        E 0 80 63 00
        E 0 80 6f 00
        E 0 80 31 00
        E 60 90 63 60
        E 0 90 6f 60
        E 0 90 30 60
        E 60 80 63 00
        E 0 80 6f 00
        E 0 80 30 00
        E 60 90 58 60
        E 0 90 64 60
        E 0 90 70 60
        E 0 90 33 60
        E 60 80 58 00
        E 0 80 64 00
        E 0 80 70 00
        E 0 80 33 00
        E 60 90 60 60
        E 0 90 18 60
        E 60 80 60 00
        E 0 80 18 00
        E 60 90 49 60
        E 0 90 4a 60
        E 0 90 55 60
        E 0 90 56 60
        E 0 90 61 60
        E 0 90 62 60
        E 0 90 6e 60
        E 0 90 1a 60
        E 0 90 1b 60
        E 60 80 49 00
        E 0 80 4a 00
        E 0 80 55 00
        E 0 80 56 00
        E 0 80 61 00
        E 0 80 62 00
        E 0 80 6e 00
        E 0 80 1a 00
        E 0 80 1b 00
        E 60 90 60 60
        E 0 90 18 60
        E 60 80 60 00
        E 0 80 18 00
        E 60 90 56 60
        E 0 90 62 60
        E 0 90 6e 60
        E 0 90 2f 60
        E 60 80 56 00
        E 0 80 62 00
        E 0 80 6e 00
        E 0 80 2f 00
        E 60 90 64 60
        E 0 90 26 60
        E 60 80 64 00
        E 0 80 26 00
        E 60 90 3c 60
        E 0 90 40 60
        E 0 90 48 60
        E 0 90 4c 60
        E 0 90 54 60
        E 0 90 58 60
        E 0 90 60 60
        E 0 90 64 60
        E 0 90 18 60
        E 0 90 26 60
        E 60 80 3c 00
        E 0 80 40 00
        E 0 80 48 00
        E 0 80 4c 00
        E 0 80 54 00
        E 0 80 58 00
        E 0 80 60 00
        E 0 80 64 00
        E 0 80 18 00
        E 0 80 26 00
        E 300 90 60 60
        E 0 90 18 60
        E 60 80 60 00
        E 0 80 18 00
        E 60 90 49 60
        E 0 90 4a 60
        E 0 90 55 60
        E 0 90 56 60
        E 0 90 61 60
        E 0 90 62 60
        E 0 90 6e 60
        E 0 90 1a 60
        E 0 90 1b 60
        E 60 80 49 00
        E 0 80 4a 00
        E 0 80 55 00
        E 0 80 56 00
        E 0 80 61 00
        E 0 80 62 00
        E 0 80 6e 00
        E 0 80 1a 00
        E 0 80 1b 00
        E 60 90 60 60
        E 0 90 18 60
        E 60 80 60 00
        E 0 80 18 00
        E 60 90 56 60
        E 0 90 62 60
        E 0 90 6e 60
        E 0 90 2f 60
        E 60 80 56 00
        E 0 80 62 00
        E 0 80 6e 00
        E 0 90 62 60
        E 0 90 6e 60
        E 0 80 2f 00
        E 0 90 2e 60
        E 60 80 62 00
        E 0 80 6e 00
        E 0 90 62 60
        E 0 90 6e 60
        E 0 80 2e 00
        E 0 90 2f 60
        E 60 80 62 00
        E 0 80 6e 00
        E 0 90 62 60
        E 0 90 6e 60
        E 0 80 2f 00
        E 0 90 2e 60
        E 60 80 62 00
        E 0 80 6e 00
        E 0 90 3f 60
        E 0 90 4b 60
        E 0 90 57 60
        E 0 90 63 60
        E 0 90 6f 60
        E 0 80 2e 00
        E 0 90 31 60
        E 60 80 3f 00
        E 0 80 4b 00
        E 0 80 57 00
        E 0 80 63 00
        E 0 80 6f 00
        E 0 80 31 00
        E 60 90 63 60
        E 0 90 6f 60
        E 0 90 30 60
        E 60 80 63 00
        E 0 80 6f 00
        E 0 80 30 00
        E 60 90 58 60
        E 0 90 64 60
        E 0 90 70 60
        E 0 90 33 60
        E 60 80 58 00
        E 0 80 64 00
        E 0 80 70 00
        E 0 80 33 00
        E 60 90 60 60
        E 0 90 18 60
        E 60 80 60 00
        E 0 80 18 00
        E 60 90 49 60
        E 0 90 4a 60
        E 0 90 55 60
        E 0 90 56 60
        E 0 90 61 60
        E 0 90 62 60
        E 0 90 6e 60
        E 0 90 1a 60
        E 0 90 1b 60
        E 60 80 49 00
        E 0 80 4a 00
        E 0 80 55 00
        E 0 80 56 00
        E 0 80 61 00
        E 0 80 62 00
        E 0 80 6e 00
        E 0 80 1a 00
        E 0 80 1b 00
        E 60 90 60 60
        E 0 90 18 60
        E 60 80 60 00
        E 0 80 18 00
        E 60 90 56 60
        E 0 90 62 60
        E 0 90 6e 60
        E 0 90 2f 60
        E 60 80 56 00
        E 0 80 62 00
        E 0 80 6e 00
        E 0 80 2f 00
        E 60 90 62 60
        E 0 90 6e 60
        E 0 90 2e 60
        E 60 80 62 00
        E 0 80 6e 00
        E 0 80 2e 00
        E 60 90 3f 60
        E 0 90 4b 60
        E 0 90 57 60
        E 0 90 63 60
        E 0 90 6f 60
        E 0 90 31 60
        E 60 80 3f 00
        E 0 80 4b 00
        E 0 80 57 00
        E 0 80 63 00
        E 0 80 6f 00
        E 0 80 31 00
        E 60 90 63 60
        E 0 90 6f 60
        E 0 90 30 60
        E 60 80 63 00
        E 0 80 6f 00
        E 0 80 30 00
        E 60 90 58 60
        E 0 90 64 60
        E 0 90 70 60
        E 0 90 33 60
        E 60 80 58 00
        E 0 80 64 00
        E 0 80 70 00
        E 0 80 33 00
        E 60 90 60 60
        E 0 90 18 60
        E 60 80 60 00
        E 0 80 18 00
        E 60 90 49 60
        E 0 90 4c 60
        E 0 90 55 60
        E 0 90 58 60
        E 0 90 61 60
        E 0 90 64 60
        E 0 90 1a 60
        E 0 90 26 60
        E 60 80 49 00
        E 0 80 4c 00
        E 0 80 55 00
        E 0 80 58 00
        E 0 80 61 00
        E 0 80 64 00
        E 0 80 1a 00
        E 0 80 26 00
        E 60 90 61 60
        E 0 90 1a 60
        E 60 80 61 00
        E 0 90 61 60
        E 0 80 1a 00
        E 0 90 1b 60
        E 60 80 61 00
        E 0 90 55 60
        E 0 90 61 60
        E 0 80 1b 00
        E 0 90 1a 60
        E 60 80 55 00
        E 0 80 61 00
        E 0 80 1a 00
        E 60 90 61 60
        E 0 90 1b 60
        E 60 80 61 00
        E 0 80 1b 00
        E 60 90 3d 60
        E 0 90 49 60
        E 0 90 55 60
        E 0 90 61 60
        E 0 90 1a 60
        E 60 80 3d 00
        E 0 80 49 00
        E 0 80 55 00
        E 0 80 61 00
        E 0 80 1a 00
        E 60 90 61 60
        E 0 90 1b 60
        E 60 80 61 00
        E 0 90 61 60
        E 0 80 1b 00
        E 0 90 1a 60
        E 60 80 61 00
        E 0 90 55 60
        E 0 90 61 60
        E 0 80 1a 00
        E 0 90 1b 60
        E 60 80 55 00
        E 0 80 61 00
        E 0 80 1b 00
        E 60 90 62 60
        E 0 90 6e 60
        E 0 90 2e 60
        E 60 80 62 00
        E 0 80 6e 00
        E 0 90 62 60
        E 0 90 6e 60
        E 0 80 2e 00
        E 0 90 2f 60
        E 60 80 62 00
        E 0 80 6e 00
        E 0 90 4a 60
        E 0 90 56 60
        E 0 90 62 60
        E 0 90 6e 60
        E 0 80 2f 00
        E 0 90 2e 60
        E 60 80 4a 00
        E 0 80 56 00
        E 0 80 62 00
        E 0 80 6e 00
        E 0 80 2e 00
        E 60 90 62 60
        E 0 90 6e 60
        E 0 90 2f 60
        E 60 80 62 00
        E 0 80 6e 00
        E 0 80 2f 00
        E 60 90 57 60
        E 0 90 63 60
        E 0 90 6f 60
        E 0 90 30 60
        E 60 80 57 00
        E 0 80 63 00
        E 0 80 6f 00
        E 0 80 30 00
        E 60 90 60 60
        E 0 90 18 60
        E 60 80 60 00
        E 0 80 18 00
        E 60 90 3c 60
        E 0 90 3e 60
        E 0 90 40 60
        E 0 90 48 60
        E 0 90 4a 60
        E 0 90 4c 60
        E 0 90 54 60
        E 0 90 56 60
        E 0 90 58 60
        E 0 90 60 60
        E 0 90 62 60
        E 0 90 64 60
        E 0 90 18 60
        E 0 90 26 60
        E 0 90 22 60
        E 60 80 3c 00
        E 0 80 3e 00
        E 0 80 40 00
        E 0 80 48 00
        E 0 80 4a 00
        E 0 80 4c 00
        E 0 80 54 00
        E 0 80 56 00
        E 0 80 58 00
        E 0 80 60 00
        E 0 80 62 00
        E 0 80 64 00
        E 0 80 18 00
        E 0 80 26 00
        E 0 80 22 00
        E 300 90 60 60
        E 0 90 18 60
        E 60 80 60 00
        E 0 80 18 00
        E 60 90 49 60
        E 0 90 4a 60
        E 0 90 55 60
        E 0 90 56 60
        E 0 90 61 60
        E 0 90 62 60
        E 0 90 6e 60
        E 0 90 1a 60
        E 0 90 1b 60
        E 60 80 49 00
        E 0 80 4a 00
        E 0 80 55 00
        E 0 80 56 00
        E 0 80 61 00
        E 0 80 62 00
        E 0 80 6e 00
        E 0 80 1a 00
        E 0 80 1b 00
        E 60 90 60 60
        E 0 90 18 60
        E 60 80 60 00
        E 0 80 18 00
        E 60 90 56 60
        E 0 90 62 60
        E 0 90 6e 60
        E 0 90 2f 60
        E 60 80 56 00
        E 0 80 62 00
        E 0 80 6e 00
        E 0 90 62 60
        E 0 90 6e 60
        E 0 80 2f 00
        E 0 90 2e 60
        E 60 80 62 00
        E 0 80 6e 00
        E 0 90 62 60
        E 0 90 6e 60
        E 0 80 2e 00
        E 0 90 2f 60
        E 60 80 62 00
        E 0 80 6e 00
        E 0 90 62 60
        E 0 90 6e 60
        E 0 80 2f 00
        E 0 90 2e 60
        E 60 80 62 00
        E 0 80 6e 00
        E 0 90 3f 60
        E 0 90 4b 60
        E 0 90 57 60
        E 0 90 63 60
        E 0 90 6f 60
        E 0 80 2e 00
        E 0 90 31 60
        E 60 80 3f 00
        E 0 80 4b 00
        E 0 80 57 00
        E 0 80 63 00
        E 0 80 6f 00
        E 0 80 31 00
        E 60 90 63 60
        E 0 90 6f 60
        E 0 90 30 60
        E 60 80 63 00
        E 0 80 6f 00
        E 0 80 30 00
        E 60 90 58 60
        E 0 90 64 60
        E 0 90 70 60
        E 0 90 33 60
        E 60 80 58 00
        E 0 80 64 00
        E 0 80 70 00
        E 0 80 33 00
        E 60 90 60 60
        E 0 90 18 60
        E 60 80 60 00
        E 0 80 18 00
        E 60 90 49 60
        E 0 90 4a 60
        E 0 90 55 60
        E 0 90 56 60
        E 0 90 61 60
        E 0 90 62 60
        E 0 90 6e 60
        E 0 90 1a 60
        E 0 90 1b 60
        E 60 80 49 00
        E 0 80 4a 00
        E 0 80 55 00
        E 0 80 56 00
        E 0 80 61 00
        E 0 80 62 00
        E 0 80 6e 00
        E 0 80 1a 00
        E 0 80 1b 00
        E 60 90 60 60
        E 0 90 18 60
        E 60 80 60 00
        E 0 80 18 00
        E 60 90 56 60
        E 0 90 62 60
        E 0 90 6e 60
        E 0 90 2f 60
        E 60 80 56 00
        E 0 80 62 00
        E 0 80 6e 00
        E 0 80 2f 00
        E 60 90 62 60
        E 0 90 6e 60
        E 0 90 2e 60
        E 60 80 62 00
        E 0 80 6e 00
        E 0 90 62 60
        E 0 90 6e 60
        E 0 80 2e 00
        E 0 90 2f 60
        E 60 80 62 00
        E 0 80 6e 00
        E 0 90 3f 60
        E 0 90 4b 60
        E 0 90 57 60
        E 0 90 63 60
        E 0 90 6f 60
        E 0 80 2f 00
        E 0 90 30 60
        E 60 80 3f 00
        E 0 80 4b 00
        E 0 80 57 00
        E 0 80 63 00
        E 0 80 6f 00
        E 0 80 30 00
        E 60 90 63 60
        E 0 90 6f 60
        E 0 90 31 60
        E 60 80 63 00
        E 0 80 6f 00
        E 0 80 31 00
        E 60 90 58 60
        E 0 90 64 60
        E 0 90 70 60
        E 0 90 32 60
        E 60 80 58 00
        E 0 80 64 00
        E 0 80 70 00
        E 0 80 32 00
        E 60 90 60 60
        E 0 90 18 60
        E 60 80 60 00
        E 0 80 18 00
        E 60 90 49 60
        E 0 90 4a 60
        E 0 90 55 60
        E 0 90 56 60
        E 0 90 61 60
        E 0 90 62 60
        E 0 90 6e 60
        E 0 90 1a 60
        E 0 90 1b 60
        E 60 80 49 00
        E 0 80 4a 00
        E 0 80 55 00
        E 0 80 56 00
        E 0 80 61 00
        E 0 80 62 00
        E 0 80 6e 00
        E 0 80 1a 00
        E 0 80 1b 00
        E 60 90 60 60
        E 0 90 18 60
        E 60 80 60 00
        E 0 80 18 00
        E 60 90 56 60
        E 0 90 62 60
        E 0 90 6e 60
        E 0 90 2f 60
        E 60 80 56 00
        E 0 80 62 00
        E 0 80 6e 00
        E 0 80 2f 00
        E 60 90 62 60
        E 0 90 6e 60
        E 0 90 2e 60
        E 60 80 62 00
        E 0 80 6e 00
        E 0 80 2e 00
        E 60 90 3f 60
        E 0 90 4b 60
        E 0 90 57 60
        E 0 90 63 60
        E 0 90 6f 60
        E 0 90 31 60
        E 60 80 3f 00
        E 0 80 4b 00
        E 0 80 57 00
        E 0 80 63 00
        E 0 80 6f 00
        E 0 80 31 00
        E 60 90 63 60
        E 0 90 6f 60
        E 0 90 30 60
        E 60 80 63 00
        E 0 80 6f 00
        E 0 80 30 00
        E 60 90 58 60
        E 0 90 64 60
        E 0 90 70 60
        E 0 90 33 60
        E 60 80 58 00
        E 0 80 64 00
        E 0 80 70 00
        E 0 80 33 00
        E 60 90 60 60
        E 0 90 18 60
        E 60 80 60 00
        E 0 80 18 00
        E 60 90 49 60
        E 0 90 4a 60
        E 0 90 55 60
        E 0 90 56 60
        E 0 90 61 60
        E 0 90 62 60
        E 0 90 6e 60
        E 0 90 1a 60
        E 0 90 1b 60
        E 60 80 49 00
        E 0 80 4a 00
        E 0 80 55 00
        E 0 80 56 00
        E 0 80 61 00
        E 0 80 62 00
        E 0 80 6e 00
        E 0 80 1a 00
        E 0 80 1b 00
        E 60 90 60 60
        E 0 90 18 60
        E 60 80 60 00
        E 0 80 18 00
        E 60 90 56 60
        E 0 90 62 60
        E 0 90 6e 60
        E 0 90 2f 60
        E 60 80 56 00
        E 0 80 62 00
        E 0 80 6e 00
        E 0 80 2f 00
        E 60 90 62 60
        E 0 90 6e 60
        E 0 90 2e 60
        E 60 80 62 00
        E 0 80 6e 00
        E 0 80 2e 00
        E 60 90 3c 60
        E 0 90 40 60
        E 0 90 48 60
        E 0 90 4c 60
        E 0 90 54 60
        E 0 90 58 60
        E 0 90 60 60
        E 0 90 64 60
        E 0 90 18 60
        E 0 90 26 60
        E 60 80 3c 00
        E 0 80 40 00
        E 0 80 48 00
        E 0 80 4c 00
        E 0 80 54 00
        E 0 80 58 00
        E 0 80 60 00
        E 0 80 64 00
        E 0 80 18 00
        E 0 80 26 00
        E 300 90 60 60
        E 0 90 18 60
        E 60 80 60 00
        E 0 80 18 00
        E 60 90 49 60
        E 0 90 4a 60
        E 0 90 55 60
        E 0 90 56 60
        E 0 90 61 60
        E 0 90 62 60
        E 0 90 6e 60
        E 0 90 1a 60
        E 0 90 1b 60
        E 60 80 49 00
        E 0 80 4a 00
        E 0 80 55 00
        E 0 80 56 00
        E 0 80 61 00
        E 0 80 62 00
        E 0 80 6e 00
        E 0 80 1a 00
        E 0 80 1b 00
        E 60 90 60 60
        E 0 90 18 60
        E 60 80 60 00
        E 0 80 18 00
        E 60 90 56 60
        E 0 90 62 60
        E 0 90 6e 60
        E 0 90 2f 60
        E 60 80 56 00
        E 0 80 62 00
        E 0 80 6e 00
        E 0 90 62 60
        E 0 90 6e 60
        E 0 80 2f 00
        E 0 90 2e 60
        E 60 80 62 00
        E 0 80 6e 00
        E 0 90 62 60
        E 0 90 6e 60
        E 0 80 2e 00
        E 0 90 2f 60
        E 60 80 62 00
        E 0 80 6e 00
        E 0 90 62 60
        E 0 90 6e 60
        E 0 80 2f 00
        E 0 90 2e 60
        E 60 80 62 00
        E 0 80 6e 00
        E 0 90 3f 60
        E 0 90 4b 60
        E 0 90 57 60
        E 0 90 63 60
        E 0 90 6f 60
        E 0 80 2e 00
        E 0 90 31 60
        E 60 80 3f 00
        E 0 80 4b 00
        E 0 80 57 00
        E 0 80 63 00
        E 0 80 6f 00
        E 0 80 31 00
        E 60 90 63 60
        E 0 90 6f 60
        E 0 90 30 60
        E 60 80 63 00
        E 0 80 6f 00
        E 0 80 30 00
        E 60 90 58 60
        E 0 90 64 60
        E 0 90 70 60
        E 0 90 33 60
        E 60 80 58 00
        E 0 80 64 00
        E 0 80 70 00
        E 0 80 33 00
        E 60 90 60 60
        E 0 90 18 60
        E 60 80 60 00
        E 0 80 18 00
        E 60 90 49 60
        E 0 90 4a 60
        E 0 90 55 60
        E 0 90 56 60
        E 0 90 61 60
        E 0 90 62 60
        E 0 90 6e 60
        E 0 90 1a 60
        E 0 90 1b 60
        E 60 80 49 00
        E 0 80 4a 00
        E 0 80 55 00
        E 0 80 56 00
        E 0 80 61 00
        E 0 80 62 00
        E 0 80 6e 00
        E 0 80 1a 00
        E 0 80 1b 00
        E 60 90 60 60
        E 0 90 18 60
        E 60 80 60 00
        E 0 80 18 00
        E 60 90 56 60
        E 0 90 62 60
        E 0 90 6e 60
        E 0 90 2f 60
        E 60 80 56 00
        E 0 80 62 00
        E 0 80 6e 00
        E 0 80 2f 00
        E 60 90 62 60
        E 0 90 6e 60
        E 0 90 2e 60
        E 60 80 62 00
        E 0 80 6e 00
        E 0 80 2e 00
        E 60 90 3f 60
        E 0 90 4b 60
        E 0 90 57 60
        E 0 90 63 60
        E 0 90 6f 60
        E 0 90 31 60
        E 60 80 3f 00
        E 0 80 4b 00
        E 0 80 57 00
        E 0 80 63 00
        E 0 80 6f 00
        E 0 80 31 00
        E 60 90 63 60
        E 0 90 6f 60
        E 0 90 30 60
        E 60 80 63 00
        E 0 80 6f 00
        E 0 80 30 00
        E 60 90 58 60
        E 0 90 64 60
        E 0 90 70 60
        E 0 90 33 60
        E 60 80 58 00
        E 0 80 64 00
        E 0 80 70 00
        E 0 80 33 00
        E 60 90 60 60
        E 0 90 18 60
        E 60 80 60 00
        E 0 80 18 00
        E 60 90 49 60
        E 0 90 4c 60
        E 0 90 55 60
        E 0 90 58 60
        E 0 90 61 60
        E 0 90 64 60
        E 0 90 1a 60
        E 0 90 26 60
        E 60 80 49 00
        E 0 80 4c 00
        E 0 80 55 00
        E 0 80 58 00
        E 0 80 61 00
        E 0 80 64 00
        E 0 80 1a 00
        E 0 80 26 00
        E 60 90 61 60
        E 0 90 1a 60
        E 60 80 61 00
        E 0 90 61 60
        E 0 80 1a 00
        E 0 90 1b 60
        E 60 80 61 00
        E 0 90 55 60
        E 0 90 61 60
        E 0 80 1b 00
        E 0 90 1a 60
        E 60 80 55 00
        E 0 80 61 00
        E 0 80 1a 00
        E 60 90 61 60
        E 0 90 1b 60
        E 60 80 61 00
        E 0 80 1b 00
        E 60 90 3d 60
        E 0 90 49 60
        E 0 90 55 60
        E 0 90 61 60
        E 0 90 1a 60
        E 60 80 3d 00
        E 0 80 49 00
        E 0 80 55 00
        E 0 80 61 00
        E 0 90 61 60
        E 0 80 1a 00
        E 0 90 1b 60
        E 60 80 61 00
        E 0 90 61 60
        E 0 80 1b 00
        E 0 90 1a 60
        E 60 80 61 00
        E 0 80 1a 00
        E 60 90 55 60
        E 0 90 61 60
        E 0 90 1b 60
        E 60 80 55 00
        E 0 80 61 00
        E 0 80 1b 00
        E 60 90 62 60
        E 0 90 6e 60
        E 0 90 2e 60
        E 60 80 62 00
        E 0 80 6e 00
        E 0 90 62 60
        E 0 90 6e 60
        E 0 80 2e 00
        E 0 90 2f 60
        E 60 80 62 00
        E 0 80 6e 00
        E 0 90 4a 60
        E 0 90 56 60
        E 0 90 62 60
        E 0 90 6e 60
        E 0 80 2f 00
        E 0 90 2e 60
        E 60 80 4a 00
        E 0 80 56 00
        E 0 80 62 00
        E 0 80 6e 00
        E 0 80 2e 00
        E 60 90 62 60
        E 0 90 6e 60
        E 0 90 2f 60
        E 60 80 62 00
        E 0 80 6e 00
        E 0 80 2f 00
        E 60 90 57 60
        E 0 90 63 60
        E 0 90 6f 60
        E 0 90 30 60
        E 60 80 57 00
        E 0 80 63 00
        E 0 80 6f 00
        E 0 80 30 00
        E 60 90 60 60
        E 0 90 18 60
        E 60 80 60 00
        E 0 80 18 00
        E 60 90 3c 60
        E 0 90 3e 60
        E 0 90 40 60
        E 0 90 48 60
        E 0 90 4a 60
        E 0 90 4c 60
        E 0 90 54 60
        E 0 90 56 60
        E 0 90 58 60
        E 0 90 60 60
        E 0 90 62 60
        E 0 90 64 60
        E 0 90 18 60
        E 0 90 26 60
        E 0 90 22 60
        E 60 80 3c 00
        E 0 80 3e 00
        E 0 80 40 00
        E 0 80 48 00
        E 0 80 4a 00
        E 0 80 4c 00
        E 0 80 54 00
        E 0 80 56 00
        E 0 80 58 00
        E 0 80 60 00
        E 0 80 62 00
        E 0 80 64 00
        E 0 80 18 00
        E 0 80 26 00
        E 0 80 22 00
        E 180 90 54 60
        E 0 90 58 60
        E 0 90 60 60
        E 0 90 64 60
        E 0 90 18 60
        E 0 90 26 60
        E 60 80 54 00
        E 0 80 58 00
        E 0 80 60 00
        E 0 80 64 00
        E 0 80 18 00
        E 0 80 26 00
        E 180 90 4c 60
        E 0 90 58 60
        E 0 90 64 60
        E 0 90 26 60
        E 60 80 4c 00
        E 0 80 58 00
        E 0 80 64 00
        E 0 80 26 00
        E 60 90 60 60
        E 0 90 18 60
        E 60 80 60 00
        E 0 80 18 00
        E 60 90 55 60
        E 0 90 58 60
        E 0 90 61 60
        E 0 90 64 60
        E 0 90 1a 60
        E 0 90 26 60
        E 60 80 55 00
        E 0 80 58 00
        E 0 80 61 00
        E 0 80 64 00
        E 0 80 1a 00
        E 0 80 26 00
        E 60 90 60 60
        E 0 90 18 60
        E 60 80 60 00
        E 0 80 18 00
        E 60 90 3c 60
        E 0 90 40 60
        E 0 90 48 60
        E 0 90 4c 60
        E 0 90 54 60
        E 0 90 58 60
        E 0 90 60 60
        E 0 90 64 60
        E 0 90 18 60
        E 0 90 26 60
        E 60 80 3c 00
        E 0 80 40 00
        E 0 80 48 00
        E 0 80 4c 00
        E 0 80 54 00
        E 0 80 58 00
        E 0 80 60 00
        E 0 80 64 00
        E 0 80 18 00
        E 0 80 26 00
        E 180 90 58 60
        E 0 90 64 60
        E 0 90 26 60
        E 60 80 58 00
        E 0 80 64 00
        E 0 80 26 00
        E 60 90 60 60
        E 0 90 18 60
        E 60 80 60 00
        E 0 80 18 00
        E 60 90 49 60
        E 0 90 4c 60
        E 0 90 55 60
        E 0 90 58 60
        E 0 90 61 60
        E 0 90 64 60
        E 0 90 1a 60
        E 0 90 26 60
        E 60 80 49 00
        E 0 80 4c 00
        E 0 80 55 00
        E 0 80 58 00
        E 0 80 61 00
        E 0 80 64 00
        E 0 80 1a 00
        E 0 80 26 00
        E 180 90 55 60
        E 0 90 61 60
        E 0 90 1b 60
        E 60 80 55 00
        E 0 80 61 00
        E 0 90 61 60
        E 0 80 1b 00
        E 0 90 1a 60
        E 60 80 61 00
        E 0 90 61 60
        E 0 80 1a 00
        E 0 90 1b 60
        E 60 80 61 00
        E 0 90 61 60
        E 0 80 1b 00
        E 0 90 1a 60
        E 60 80 61 00
        E 0 90 3c 60
        E 0 90 40 60
        E 0 90 48 60
        E 0 90 4c 60
        E 0 90 54 60
        E 0 90 58 60
        E 0 90 60 60
        E 0 90 64 60
        E 0 80 1a 00
        E 0 90 18 60
        E 0 90 26 60
        E 60 80 3c 00
        E 0 80 40 00
        E 0 80 48 00
        E 0 80 4c 00
        E 0 80 54 00
        E 0 80 58 00
        E 0 80 60 00
        E 0 80 64 00
        E 0 80 18 00
        E 0 80 26 00
        E 180 90 54 60
        E 0 90 58 60
        E 0 90 60 60
        E 0 90 64 60
        E 0 90 18 60
        E 0 90 26 60
        E 60 80 54 00
        E 0 80 58 00
        E 0 80 60 00
        E 0 80 64 00
        E 0 80 18 00
        E 0 80 26 00
        E 60 90 60 60
        E 0 90 18 60
        E 60 80 60 00
        E 0 80 18 00
        E 60 90 4c 60
        E 0 90 58 60
        E 0 90 64 60
        E 0 90 26 60
        E 60 80 4c 00
        E 0 80 58 00
        E 0 80 64 00
        E 0 80 26 00
        E 60 90 60 60
        E 0 90 18 60
        E 60 80 60 00
        E 0 80 18 00
        E 60 90 55 60
        E 0 90 58 60
        E 0 90 61 60
        E 0 90 64 60
        E 0 90 1a 60
        E 0 90 26 60
        E 60 80 55 00
        E 0 80 58 00
        E 0 80 61 00
        E 0 80 64 00
        E 0 80 1a 00
        E 0 80 26 00
        E 60 90 60 60
        E 0 90 18 60
        E 60 80 60 00
        E 0 80 18 00
        E 60 90 3c 60
        E 0 90 40 60
        E 0 90 48 60
        E 0 90 4c 60
        E 0 90 54 60
        E 0 90 58 60
        E 0 90 60 60
        E 0 90 64 60
        E 0 90 18 60
        E 0 90 26 60
        E 60 80 3c 00
        E 0 80 40 00
        E 0 80 48 00
        E 0 80 4c 00
        E 0 80 54 00
        E 0 80 58 00
        E 0 80 60 00
        E 0 80 64 00
        E 0 80 18 00
        E 0 80 26 00
        E 60 90 61 60
        E 0 90 1a 60
        E 60 80 61 00
        E 0 80 1a 00
        E 60 90 58 60
        E 0 90 64 60
        E 0 90 26 60
        E 60 80 58 00
        E 0 80 64 00
        E 0 80 26 00
        E 180 90 3c 60
        E 0 90 40 60
        E 0 90 48 60
        E 0 90 4c 60
        E 0 90 54 60
        E 0 90 58 60
        E 0 90 60 60
        E 0 90 64 60
        E 0 90 18 60
        E 0 90 26 60
        E 60 80 3c 00
        E 0 80 40 00
        E 0 80 48 00
        E 0 80 4c 00
        E 0 80 54 00
        E 0 80 58 00
        E 0 80 60 00
        E 0 80 64 00
        E 0 80 18 00
        E 0 80 26 00
        E 180 90 55 60
        E 0 90 61 60
        E 0 90 1b 60
        E 80 80 55 00
        E 0 80 61 00
        E 0 90 61 60
        E 0 80 1b 00
        E 0 90 1a 60
        E 80 80 61 00
        E 0 90 61 60
        E 0 80 1a 00
        E 0 90 1b 60
        E 80 80 61 00
        E 0 90 3c 60
        E 0 90 40 60
        E 0 90 48 60
        E 0 90 4c 60
        E 0 90 54 60
        E 0 90 58 60
        E 0 90 60 60
        E 0 90 64 60
        E 0 80 1b 00
        E 0 90 18 60
        E 0 90 2c 60
        E 60 80 3c 00
        E 0 80 40 00
        E 0 80 48 00
        E 0 80 4c 00
        E 0 80 54 00
        E 0 80 58 00
        E 0 80 60 00
        E 0 80 64 00
        E 0 80 18 00
        E 0 80 2c 00
        E 180 90 54 60
        E 0 90 58 60
        E 0 90 60 60
        E 0 90 64 60
        E 0 90 18 60
        E 0 90 26 60
        E 60 80 54 00
        E 0 80 58 00
        E 0 80 60 00
        E 0 80 64 00
        E 0 80 18 00
        E 0 80 26 00
        E 180 90 4c 60
        E 0 90 58 60
        E 0 90 64 60
        E 0 90 26 60
        E 60 80 4c 00
        E 0 80 58 00
        E 0 80 64 00
        E 0 80 26 00
        E 60 90 60 60
        E 0 90 18 60
        E 60 80 60 00
        E 0 80 18 00
        E 60 90 55 60
        E 0 90 58 60
        E 0 90 61 60
        E 0 90 64 60
        E 0 90 1a 60
        E 0 90 26 60
        E 60 80 55 00
        E 0 80 58 00
        E 0 80 61 00
        E 0 80 64 00
        E 0 80 1a 00
        E 0 80 26 00
        E 60 90 60 60
        E 0 90 18 60
        E 60 80 60 00
        E 0 80 18 00
        E 60 90 3c 60
        E 0 90 40 60
        E 0 90 48 60
        E 0 90 4c 60
        E 0 90 54 60
        E 0 90 58 60
        E 0 90 60 60
        E 0 90 64 60
        E 0 90 18 60
        E 0 90 26 60
        E 60 80 3c 00
        E 0 80 40 00
        E 0 80 48 00
        E 0 80 4c 00
        E 0 80 54 00
        E 0 80 58 00
        E 0 80 60 00
        E 0 80 64 00
        E 0 80 18 00
        E 0 80 26 00
        E 180 90 58 60
        E 0 90 64 60
        E 0 90 26 60
        E 60 80 58 00
        E 0 80 64 00
        E 0 80 26 00
        E 60 90 60 60
        E 0 90 18 60
        E 60 80 60 00
        E 0 80 18 00
        E 60 90 49 60
        E 0 90 4c 60
        E 0 90 55 60
        E 0 90 58 60
        E 0 90 61 60
        E 0 90 64 60
        E 0 90 1a 60
        E 0 90 26 60
        E 60 80 49 00
        E 0 80 4c 00
        E 0 80 55 00
        E 0 80 58 00
        E 0 80 61 00
        E 0 80 64 00
        E 0 80 1a 00
        E 0 80 26 00
        E 180 90 56 60
        E 0 90 62 60
        E 0 90 6e 60
        E 0 90 2f 60
        E 60 80 56 00
        E 0 80 62 00
        E 0 80 6e 00
        E 0 90 62 60
        E 0 90 6e 60
        E 0 80 2f 00
        E 0 90 2e 60
        E 60 80 62 00
        E 0 80 6e 00
        E 0 90 62 60
        E 0 90 6e 60
        E 0 80 2e 00
        E 0 90 2f 60
        E 60 80 62 00
        E 0 80 6e 00
        E 0 90 62 60
        E 0 90 6e 60
        E 0 80 2f 00
        E 0 90 2e 60
        E 60 80 62 00
        E 0 80 6e 00
        E 0 90 3c 60
        E 0 90 40 60
        E 0 90 48 60
        E 0 90 4c 60
        E 0 90 54 60
        E 0 90 58 60
        E 0 90 60 60
        E 0 90 64 60
        E 0 80 2e 00
        E 0 90 18 60
        E 0 90 26 60
        E 60 80 3c 00
        E 0 80 40 00
        E 0 80 48 00
        E 0 80 4c 00
        E 0 80 54 00
        E 0 80 58 00
        E 0 80 60 00
        E 0 80 64 00
        E 0 80 18 00
        E 0 80 26 00
        E 180 90 54 60
        E 0 90 58 60
        E 0 90 60 60
        E 0 90 64 60
        E 0 90 18 60
        E 0 90 26 60
        E 60 80 54 00
        E 0 80 58 00
        E 0 80 60 00
        E 0 80 64 00
        E 0 80 18 00
        E 0 80 26 00
        E 180 90 4c 60
        E 0 90 58 60
        E 0 90 64 60
        E 0 90 26 60
        E 60 80 4c 00
        E 0 80 58 00
        E 0 80 64 00
        E 0 80 26 00
        E 60 90 60 60
        E 0 90 18 60
        E 60 80 60 00
        E 0 80 18 00
        E 60 90 55 60
        E 0 90 58 60
        E 0 90 61 60
        E 0 90 64 60
        E 0 90 1a 60
        E 0 90 26 60
        E 60 80 55 00
        E 0 80 58 00
        E 0 80 61 00
        E 0 80 64 00
        E 0 80 1a 00
        E 0 80 26 00
        E 60 90 60 60
        E 0 90 18 60
        E 60 80 60 00
        E 0 80 18 00
        E 60 90 3c 60
        E 0 90 40 60
        E 0 90 48 60
        E 0 90 4c 60
        E 0 90 54 60
        E 0 90 58 60
        E 0 90 60 60
        E 0 90 64 60
        E 0 90 18 60
        E 0 90 26 60
        E 60 80 3c 00
        E 0 80 40 00
        E 0 80 48 00
        E 0 80 4c 00
        E 0 80 54 00
        E 0 80 58 00
        E 0 80 60 00
        E 0 80 64 00
        E 0 80 18 00
        E 0 80 26 00
        E 60 90 61 60
        E 0 90 1a 60
        E 60 80 61 00
        E 0 80 1a 00
        E 60 90 58 60
        E 0 90 64 60
        E 0 90 26 60
        E 60 80 58 00
        E 0 80 64 00
        E 0 80 26 00
        E 60 90 60 60
        E 0 90 18 60
        E 60 80 60 00
        E 0 80 18 00
        E 60 90 49 60
        E 0 90 4c 60
        E 0 90 55 60
        E 0 90 58 60
        E 0 90 61 60
        E 0 90 64 60
        E 0 90 1a 60
        E 0 90 26 60
        E 60 80 49 00
        E 0 80 4c 00
        E 0 80 55 00
        E 0 80 58 00
        E 0 80 61 00
        E 0 80 64 00
        E 0 80 1a 00
        E 0 80 26 00
        E 180 90 55 60
        E 0 90 61 60
        E 0 90 1b 60
        E 60 80 55 00
        E 0 80 61 00
        E 0 90 61 60
        E 0 80 1b 00
        E 0 90 1a 60
        E 60 80 61 00
        E 0 90 61 60
        E 0 80 1a 00
        E 0 90 1b 60
        E 60 80 61 00
        E 0 90 61 60
        E 0 80 1b 00
        E 0 90 1a 60
        E 60 80 61 00
        E 0 90 3c 60
        E 0 90 40 60
        E 0 90 48 60
        E 0 90 4c 60
        E 0 90 54 60
        E 0 90 58 60
        E 0 90 60 60
        E 0 90 64 60
        E 0 80 1a 00
        E 0 90 18 60
        E 0 90 26 60
        E 60 80 3c 00
        E 0 80 40 00
        E 0 80 48 00
        E 0 80 4c 00
        E 0 80 54 00
        E 0 80 58 00
        E 0 80 60 00
        E 0 80 64 00
        E 0 80 18 00
        E 0 80 26 00
        E 180 90 54 60
        E 0 90 58 60
        E 0 90 60 60
        E 0 90 64 60
        E 0 90 18 60
        E 0 90 26 60
        E 60 80 54 00
        E 0 80 58 00
        E 0 80 60 00
        E 0 80 64 00
        E 0 80 18 00
        E 0 80 26 00
        E 60 90 61 60
        E 0 90 1a 60
        E 60 80 61 00
        E 0 80 1a 00
        E 60 90 4c 60
        E 0 90 58 60
        E 0 90 64 60
        E 0 90 26 60
        E 60 80 4c 00
        E 0 80 58 00
        E 0 80 64 00
        E 0 80 26 00
        E 60 90 60 60
        E 0 90 18 60
        E 60 80 60 00
        E 0 80 18 00
        E 60 90 55 60
        E 0 90 58 60
        E 0 90 61 60
        E 0 90 64 60
        E 0 90 1a 60
        E 0 90 26 60
        E 60 80 55 00
        E 0 80 58 00
        E 0 80 61 00
        E 0 80 64 00
        E 0 80 1a 00
        E 0 80 26 00
        E 60 90 60 60
        E 0 90 18 60
        E 60 80 60 00
        E 0 80 18 00
        E 60 90 3c 60
        E 0 90 40 60
        E 0 90 48 60
        E 0 90 4c 60
        E 0 90 54 60
        E 0 90 58 60
        E 0 90 60 60
        E 0 90 64 60
        E 0 90 18 60
        E 0 90 26 60
        E 60 80 3c 00
        E 0 80 40 00
        E 0 80 48 00
        E 0 80 4c 00
        E 0 80 54 00
        E 0 80 58 00
        E 0 80 60 00
        E 0 80 64 00
        E 0 80 18 00
        E 0 80 26 00
        E 60 90 61 60
        E 0 90 1a 60
        E 60 80 61 00
        E 0 80 1a 00
        E 60 90 58 60
        E 0 90 64 60
        E 0 90 26 60
        E 60 80 58 00
        E 0 80 64 00
        E 0 80 26 00
        E 60 90 60 60
        E 0 90 18 60
        E 60 80 60 00
        E 0 80 18 00
        E 60 90 49 60
        E 0 90 4c 60
        E 0 90 55 60
        E 0 90 58 60
        E 0 90 61 60
        E 0 90 64 60
        E 0 90 1a 60
        E 0 90 26 60
        E 60 80 49 00
        E 0 80 4c 00
        E 0 80 55 00
        E 0 80 58 00
        E 0 80 61 00
        E 0 80 64 00
        E 0 80 1a 00
        E 0 80 26 00
        E 180 90 55 60
        E 0 90 61 60
        E 0 90 1b 60
        E 60 80 55 00
        E 0 80 61 00
        E 0 90 61 60
        E 0 80 1b 00
        E 0 90 1a 60
        E 60 80 61 00
        E 0 90 61 60
        E 0 80 1a 00
        E 0 90 1b 60
        E 60 80 61 00
        E 0 90 61 60
        E 0 80 1b 00
        E 0 90 1a 60
        E 60 80 61 00
        E 0 90 3c 60
        E 0 90 40 60
        E 0 90 48 60
        E 0 90 4c 60
        E 0 90 54 60
        E 0 90 58 60
        E 0 90 60 60
        E 0 90 64 60
        E 0 80 1a 00
        E 0 90 18 60
        E 0 90 26 60
        E 60 80 3c 00
        E 0 80 40 00
        E 0 80 48 00
        E 0 80 4c 00
        E 0 80 54 00
        E 0 80 58 00
        E 0 80 60 00
        E 0 80 64 00
        E 0 80 18 00
        E 0 80 26 00
        E 180 90 54 60
        E 0 90 58 60
        E 0 90 60 60
        E 0 90 64 60
        E 0 90 18 60
        E 0 90 26 60
        E 60 80 54 00
        E 0 80 58 00
        E 0 80 60 00
        E 0 80 64 00
        E 0 80 18 00
        E 0 80 26 00
        E 180 90 4c 60
        E 0 90 58 60
        E 0 90 64 60
        E 0 90 26 60
        E 60 80 4c 00
        E 0 80 58 00
        E 0 80 64 00
        E 0 80 26 00
        E 60 90 60 60
        E 0 90 18 60
        E 60 80 60 00
        E 0 80 18 00
        E 60 90 55 60
        E 0 90 58 60
        E 0 90 61 60
        E 0 90 64 60
        E 0 90 1a 60
        E 0 90 26 60
        E 60 80 55 00
        E 0 80 58 00
        E 0 80 61 00
        E 0 80 64 00
        E 0 80 1a 00
        E 0 80 26 00
        E 60 90 60 60
        E 0 90 18 60
        E 60 80 60 00
        E 0 80 18 00
        E 60 90 3c 60
        E 0 90 40 60
        E 0 90 48 60
        E 0 90 4c 60
        E 0 90 54 60
        E 0 90 58 60
        E 0 90 60 60
        E 0 90 64 60
        E 0 90 18 60
        E 0 90 26 60
        E 60 80 3c 00
        E 0 80 40 00
        E 0 80 48 00
        E 0 80 4c 00
        E 0 80 54 00
        E 0 80 58 00
        E 0 80 60 00
        E 0 80 64 00
        E 0 80 18 00
        E 0 80 26 00
        E 60 90 61 60
        E 0 90 1a 60
        E 60 80 61 00
        E 0 80 1a 00
        E 60 90 58 60
        E 0 90 64 60
        E 0 90 26 60
        E 60 80 58 00
        E 0 80 64 00
        E 0 80 26 00
        E 60 90 60 60
        E 0 90 18 60
        E 60 80 60 00
        E 0 80 18 00
        E 60 90 49 60
        E 0 90 4c 60
        E 0 90 55 60
        E 0 90 58 60
        E 0 90 61 60
        E 0 90 64 60
        E 0 90 1a 60
        E 0 90 26 60
        E 60 80 49 00
        E 0 80 4c 00
        E 0 80 55 00
        E 0 80 58 00
        E 0 80 61 00
        E 0 80 64 00
        E 0 80 1a 00
        E 0 80 26 00
        E 60 90 60 60
        E 0 90 18 60
        E 60 80 60 00
        E 0 80 18 00
        E 60 90 54 60
        E 0 90 58 60
        E 0 90 60 60
        E 0 90 64 60
        E 0 90 18 60
        E 0 90 26 60
        E 60 80 54 00
        E 0 80 58 00
        E 0 80 60 00
        E 0 80 64 00
        E 0 80 18 00
        E 0 80 26 00
        E 60 90 61 60
        E 0 90 1a 60
        E 60 80 61 00
        E 0 80 1a 00
        E 60 90 3c 60
        E 0 90 40 60
        E 0 90 48 60
        E 0 90 4c 60
        E 0 90 54 60
        E 0 90 58 60
        E 0 90 60 60
        E 0 90 64 60
        E 0 90 18 60
        E 0 90 26 60
        E 60 80 3c 00
        E 0 80 40 00
        E 0 80 48 00
        E 0 80 4c 00
        E 0 80 54 00
        E 0 80 58 00
        E 0 80 60 00
        E 0 80 64 00
        E 0 80 18 00
        E 0 80 26 00
        E 180 90 54 60
        E 0 90 58 60
        E 0 90 60 60
        E 0 90 64 60
        E 0 90 18 60
        E 0 90 26 60
        E 60 80 54 00
        E 0 80 58 00
        E 0 80 60 00
        E 0 80 64 00
        E 0 80 18 00
        E 0 80 26 00
        E 180 90 4c 60
        E 0 90 58 60
        E 0 90 64 60
        E 0 90 26 60
        E 60 80 4c 00
        E 0 80 58 00
        E 0 80 64 00
        E 0 80 26 00
        E 60 90 60 60
        E 0 90 18 60
        E 60 80 60 00
        E 0 80 18 00
        E 60 90 55 60
        E 0 90 58 60
        E 0 90 61 60
        E 0 90 64 60
        E 0 90 1a 60
        E 0 90 26 60
        E 60 80 55 00
        E 0 80 58 00
        E 0 80 61 00
        E 0 80 64 00
        E 0 80 1a 00
        E 0 80 26 00
        E 60 90 60 60
        E 0 90 18 60
        E 60 80 60 00
        E 0 80 18 00
        E 60 90 3c 60
        E 0 90 40 60
        E 0 90 48 60
        E 0 90 4c 60
        E 0 90 54 60
        E 0 90 58 60
        E 0 90 60 60
        E 0 90 64 60
        E 0 90 18 60
        E 0 90 26 60
        E 60 80 3c 00
        E 0 80 40 00
        E 0 80 48 00
        E 0 80 4c 00
        E 0 80 54 00
        E 0 80 58 00
        E 0 80 60 00
        E 0 80 64 00
        E 0 80 18 00
        E 0 80 26 00
        E 60 90 61 60
        E 0 90 1a 60
        E 60 80 61 00
        E 0 80 1a 00
        E 60 90 58 60
        E 0 90 64 60
        E 0 90 26 60
        E 60 80 58 00
        E 0 80 64 00
        E 0 80 26 00
        E 60 90 60 60
        E 0 90 18 60
        E 60 80 60 00
        E 0 80 18 00
        E 60 90 49 60
        E 0 90 4c 60
        E 0 90 55 60
        E 0 90 58 60
        E 0 90 61 60
        E 0 90 64 60
        E 0 90 1a 60
        E 0 90 26 60
        E 60 80 49 00
        E 0 80 4c 00
        E 0 80 55 00
        E 0 80 58 00
        E 0 80 61 00
        E 0 80 64 00
        E 0 80 1a 00
        E 0 80 26 00
        E 60 90 60 60
        E 0 90 18 60
        E 60 80 60 00
        E 0 80 18 00
        E 60 90 54 60
        E 0 90 58 60
        E 0 90 60 60
        E 0 90 64 60
        E 0 90 18 60
        E 0 90 26 60
        E 60 80 54 00
        E 0 80 58 00
        E 0 80 60 00
        E 0 80 64 00
        E 0 80 18 00
        E 0 80 26 00
        E 60 90 61 60
        E 0 90 1a 60
        E 60 80 61 00
        E 0 80 1a 00
        E 60 90 40 60
        E 0 90 4c 60
        E 0 90 58 60
        E 0 90 64 60
        E 0 90 26 60
        E 60 80 40 00
        E 0 80 4c 00
        E 0 80 58 00
        E 0 80 64 00
        E 0 80 26 00
        E 60 90 60 60
        E 0 90 18 60
        E 60 80 60 00
        E 0 80 18 00
        E 60 90 55 60
        E 0 90 58 60
        E 0 90 61 60
        E 0 90 64 60
        E 0 90 1a 60
        E 0 90 26 60
        E 60 80 55 00
        E 0 80 58 00
        E 0 80 61 00
        E 0 80 64 00
        E 0 80 1a 00
        E 0 80 26 00
        E 60 90 60 60
        E 0 90 18 60
        E 60 80 60 00
        E 0 80 18 00
        E 60 90 48 60
        E 0 90 4c 60
        E 0 90 54 60
        E 0 90 58 60
        E 0 90 60 60
        E 0 90 64 60
        E 0 90 18 60
        E 0 90 26 60
        E 60 80 48 00
        E 0 80 4c 00
        E 0 80 54 00
        E 0 80 58 00
        E 0 80 60 00
        E 0 80 64 00
        E 0 80 18 00
        E 0 80 26 00
        E 60 90 61 60
        E 0 90 1a 60
        E 60 80 61 00
        E 0 80 1a 00
        E 60 90 58 60
        E 0 90 64 60
        E 0 90 26 60
        E 60 80 58 00
        E 0 80 64 00
        E 0 80 26 00
        E 60 90 60 60
        E 0 90 18 60
        E 60 80 60 00
        E 0 80 18 00
        E 60 90 3d 60
        E 0 90 49 60
        E 0 90 4c 60
        E 0 90 55 60
        E 0 90 58 60
        E 0 90 61 60
        E 0 90 64 60
        E 0 90 1a 60
        E 0 90 26 60
        E 60 80 3d 00
        E 0 80 49 00
        E 0 80 4c 00
        E 0 80 55 00
        E 0 80 58 00
        E 0 80 61 00
        E 0 80 64 00
        E 0 80 1a 00
        E 0 80 26 00
        E 120 90 61 60
        E 0 90 1a 60
        E 60 80 61 00
        E 0 90 55 60
        E 0 90 61 60
        E 0 80 1a 00
        E 0 90 1b 60
        E 60 80 55 00
        E 0 80 61 00
        E 0 80 1b 00
        E 60 90 61 60
        E 0 90 1a 60
        E 60 80 61 00
        E 0 80 1a 00
        E 60 90 49 60
        E 0 90 55 60
        E 0 90 61 60
        E 0 90 1b 60
        E 60 80 49 00
        E 0 80 55 00
        E 0 80 61 00
        E 0 80 1b 00
        E 60 90 61 60
        E 0 90 1a 60
        E 60 80 61 00
        E 0 80 1a 00
        E 60 90 57 60
        E 0 90 63 60
        E 0 90 6f 60
        E 0 90 31 60
        E 60 80 57 00
        E 0 80 63 00
        E 0 80 6f 00
        E 0 80 31 00
        E 60 90 60 60
        E 0 90 18 60
        E 60 80 60 00
        E 0 80 18 00
        E 60 90 3c 60
        E 0 90 40 60
        E 0 90 48 60
        E 0 90 4c 60
        E 0 90 54 60
        E 0 90 58 60
        E 0 90 60 60
        E 0 90 64 60
        E 0 90 18 60
        E 0 90 26 60
        E 60 80 3c 00
        E 0 80 40 00
        E 0 80 48 00
        E 0 80 4c 00
        E 0 80 54 00
        E 0 80 58 00
        E 0 80 60 00
        E 0 80 64 00
        E 0 80 18 00
        E 0 80 26 00
        E 180 90 57 60
        E 0 90 63 60
        E 0 90 2a 60
        E 60 80 57 00
        E 0 80 63 00
        E 0 80 2a 00
        E 180 90 48 60
        E 0 90 4b 60
        E 0 90 54 60
        E 0 90 57 60
        E 0 90 60 60
        E 0 90 63 60
        E 0 90 18 60
        E 0 90 2a 60
        E 60 80 48 00
        E 0 80 4b 00
        E 0 80 54 00
        E 0 80 57 00
        E 0 80 60 00
        E 0 80 63 00
        E 0 80 18 00
        E 0 80 2a 00
        E 180 90 55 60
        E 0 90 57 60
        E 0 90 61 60
        E 0 90 63 60
        E 0 90 1a 60
        E 0 90 2a 60
        E 60 80 55 00
        E 0 80 57 00
        E 0 80 61 00
        E 0 80 63 00
        E 0 80 1a 00
        E 0 80 2a 00
        E 180 90 3f 60
        E 0 90 4b 60
        E 0 90 57 60
        E 0 90 63 60
        E 0 90 2a 60
        E 60 80 3f 00
        E 0 80 4b 00
        E 0 80 57 00
        E 0 80 63 00
        E 0 80 2a 00
        E 180 90 54 60
        E 0 90 57 60
        E 0 90 60 60
        E 0 90 63 60
        E 0 90 18 60
        E 0 90 2a 60
        E 60 80 54 00
        E 0 80 57 00
        E 0 80 60 00
        E 0 80 63 00
        E 0 80 18 00
        E 0 80 2a 00
        E 180 90 48 60
        E 0 90 4b 60
        E 0 90 54 60
        E 0 90 57 60
        E 0 90 60 60
        E 0 90 63 60
        E 0 90 18 60
        E 0 90 2a 60
        E 60 80 48 00
        E 0 80 4b 00
        E 0 80 54 00
        E 0 80 57 00
        E 0 80 60 00
        E 0 80 63 00
        E 0 80 18 00
        E 0 80 2a 00
        E 180 90 57 60
        E 0 90 63 60
        E 0 90 2a 60
        E 60 80 57 00
        E 0 80 63 00
        E 0 80 2a 00
        E 180 90 3c 60
        E 0 90 3f 60
        E 0 90 48 60
        E 0 90 4b 60
        E 0 90 54 60
        E 0 90 57 60
        E 0 90 60 60
        E 0 90 63 60
        E 0 90 18 60
        E 0 90 2a 60
        E 60 80 3c 00
        E 0 80 3f 00
        E 0 80 48 00
        E 0 80 4b 00
        E 0 80 54 00
        E 0 80 57 00
        E 0 80 60 00
        E 0 80 63 00
        E 0 80 18 00
        E 0 80 2a 00
        E 180 90 55 60
        E 0 90 57 60
        E 0 90 61 60
        E 0 90 63 60
        E 0 90 1a 60
        E 0 90 2a 60
        E 60 80 55 00
        E 0 80 57 00
        E 0 80 61 00
        E 0 80 63 00
        E 0 80 1a 00
        E 0 80 2a 00
        E 180 90 4b 60
        E 0 90 57 60
        E 0 90 63 60
        E 0 90 2a 60
        E 60 80 4b 00
        E 0 80 57 00
        E 0 80 63 00
        E 0 80 2a 00
        E 180 90 54 60
        E 0 90 57 60
        E 0 90 60 60
        E 0 90 63 60
        E 0 90 18 60
        E 0 90 2a 60
        E 60 80 54 00
        E 0 80 57 00
        E 0 80 60 00
        E 0 80 63 00
        E 0 80 18 00
        E 0 80 2a 00
        E 180 90 3c 60
        E 0 90 3f 60
        E 0 90 48 60
        E 0 90 4b 60
        E 0 90 54 60
        E 0 90 57 60
        E 0 90 60 60
        E 0 90 63 60
        E 0 90 18 60
        E 0 90 2a 60
        E 60 80 3c 00
        E 0 80 3f 00
        E 0 80 48 00
        E 0 80 4b 00
        E 0 80 54 00
        E 0 80 57 00
        E 0 80 60 00
        E 0 80 63 00
        E 0 80 18 00
        E 0 80 2a 00
        E 180 90 54 60
        E 0 90 57 60
        E 0 90 60 60
        E 0 90 63 60
        E 0 90 18 60
        E 0 90 2a 60
        E 60 80 54 00
        E 0 80 57 00
        E 0 80 60 00
        E 0 80 63 00
        E 0 80 18 00
        E 0 80 2a 00
        E 180 90 49 60
        E 0 90 4b 60
        E 0 90 55 60
        E 0 90 57 60
        E 0 90 61 60
        E 0 90 63 60
        E 0 90 1a 60
        E 0 90 2a 60
        E 60 80 49 00
        E 0 80 4b 00
        E 0 80 55 00
        E 0 80 57 00
        E 0 80 61 00
        E 0 80 63 00
        E 0 80 1a 00
        E 0 80 2a 00
        E 180 90 54 60
        E 0 90 57 60
        E 0 90 60 60
        E 0 90 63 60
        E 0 90 18 60
        E 0 90 2a 60
        E 60 80 54 00
        E 0 80 57 00
        E 0 80 60 00
        E 0 80 63 00
        E 0 80 18 00
        E 0 80 2a 00
        E 180 90 3c 60
        E 0 90 40 60
        E 0 90 48 60
        E 0 90 4c 60
        E 0 90 54 60
        E 0 90 58 60
        E 0 90 60 60
        E 0 90 64 60
        E 0 90 18 60
        E 0 90 26 60
        E 60 80 3c 00
        E 0 80 40 00
        E 0 80 48 00
        E 0 80 4c 00
        E 0 80 54 00
        E 0 80 58 00
        E 0 80 60 00
        E 0 80 64 00
        E 0 80 18 00
        E 0 80 26 00
        E 180 90 57 60
        E 0 90 63 60
        E 0 90 2a 60
        E 60 80 57 00
        E 0 80 63 00
        E 0 80 2a 00
        E 180 90 4b 60
        E 0 90 57 60
        E 0 90 63 60
        E 0 90 2a 60
        E 60 80 4b 00
        E 0 80 57 00
        E 0 80 63 00
        E 0 80 2a 00
        E 180 90 57 60
        E 0 90 63 60
        E 0 90 2a 60
        e 0 90 60 60
        e 0 90 18 60
        E 60 80 57 00
        E 0 80 63 00
        E 0 80 2a 00
        e 0 80 60 00
        e 0 80 18 00
        E 180 90 3d 60
        E 0 90 49 60
        E 0 90 4b 60
        E 0 90 55 60
        E 0 90 57 60
        E 0 90 61 60
        E 0 90 63 60
        E 0 90 1a 60
        E 0 90 2a 60
        E 60 80 3d 00
        E 0 80 49 00
        E 0 80 4b 00
        E 0 80 55 00
        E 0 80 57 00
        E 0 80 61 00
        E 0 80 63 00
        E 0 80 1a 00
        E 0 80 2a 00
        E 180 90 57 60
        E 0 90 63 60
        E 0 90 2a 60
        E 60 80 57 00
        E 0 80 63 00
        E 0 80 2a 00
        E 180 90 4b 60
        E 0 90 57 60
        E 0 90 63 60
        E 0 90 2a 60
        E 60 80 4b 00
        E 0 80 57 00
        E 0 80 63 00
        E 0 80 2a 00
        E 180 90 54 60
        E 0 90 57 60
        E 0 90 60 60
        E 0 90 63 60
        E 0 90 18 60
        E 0 90 2a 60
        E 60 80 54 00
        E 0 80 57 00
        E 0 80 60 00
        E 0 80 63 00
        E 0 80 18 00
        E 0 80 2a 00
        E 180 90 3f 60
        E 0 90 4b 60
        E 0 90 57 60
        E 0 90 63 60
        E 0 90 2a 60
        E 60 80 3f 00
        E 0 80 4b 00
        E 0 80 57 00
        E 0 80 63 00
        E 0 80 2a 00
        E 180 90 54 60
        E 0 90 57 60
        E 0 90 60 60
        E 0 90 63 60
        E 0 90 18 60
        E 0 90 2a 60
        E 60 80 54 00
        E 0 80 57 00
        E 0 80 60 00
        E 0 80 63 00
        E 0 80 18 00
        E 0 80 2a 00
        E 180 90 48 60
        E 0 90 4b 60
        E 0 90 54 60
        E 0 90 57 60
        E 0 90 60 60
        E 0 90 63 60
        E 0 90 18 60
        E 0 90 2a 60
        E 80 80 48 00
        E 0 80 4b 00
        E 0 80 54 00
        E 0 80 57 00
        E 0 80 60 00
        E 0 80 63 00
        E 0 80 18 00
        E 0 80 2a 00
        E 80 90 62 60
        E 0 90 6e 60
        E 0 90 2e 60
        E 80 80 62 00
        E 0 80 6e 00
        E 0 80 2e 00
        E 80 90 62 60
        E 0 90 6e 60
        E 0 90 2f 60
        E 80 80 62 00
        E 0 80 6e 00
        E 0 80 2f 00
        E 80 90 3f 60
        E 0 90 4b 60
        E 0 90 57 60
        E 0 90 63 60
        E 0 90 6f 60
        E 0 90 30 60
        E 80 80 3f 00
        E 0 80 4b 00
        E 0 80 57 00
        E 0 80 63 00
        E 0 80 6f 00
        E 0 80 30 00
        E 80 90 63 60
        E 0 90 6f 60
        E 0 90 31 60
        E 80 80 63 00
        E 0 80 6f 00
        E 0 80 31 00
        E 80 90 63 60
        E 0 90 6f 60
        E 0 90 30 60
        E 80 80 63 00
        E 0 80 6f 00
        E 0 80 30 00
        E 80 90 4c 60
        E 0 90 58 60
        E 0 90 64 60
        E 0 90 70 60
        E 0 90 33 60
        E 80 80 4c 00
        E 0 80 58 00
        E 0 80 64 00
        E 0 80 70 00
        E 0 80 33 00
        E 80 90 64 60
        E 0 90 70 60
        E 0 90 32 60
        E 80 80 64 00
        E 0 80 70 00
        E 0 80 32 00
        E 80 90 64 60
        E 0 90 70 60
        E 0 90 33 60
        E 80 80 64 00
        E 0 80 70 00
        E 0 80 33 00
        E 80 90 3c 60
        E 0 90 40 60
        E 0 90 48 60
        E 0 90 4c 60
        E 0 90 54 60
        E 0 90 58 60
        E 0 90 60 60
        E 0 90 64 60
        E 0 90 18 60
        E 0 90 2c 60
        E 60 80 3c 00
        E 0 80 40 00
        E 0 80 48 00
        E 0 80 4c 00
        E 0 80 54 00
        E 0 80 58 00
        E 0 80 60 00
        E 0 80 64 00
        E 0 80 18 00
        E 0 80 2c 00
        E 180 90 57 60
        E 0 90 63 60
        E 0 90 2a 60
        E 60 80 57 00
        E 0 80 63 00
        E 0 80 2a 00
        E 180 90 48 60
        E 0 90 4b 60
        E 0 90 54 60
        E 0 90 57 60
        E 0 90 60 60
        E 0 90 63 60
        E 0 90 18 60
        E 0 90 2a 60
        E 60 80 48 00
        E 0 80 4b 00
        E 0 80 54 00
        E 0 80 57 00
        E 0 80 60 00
        E 0 80 63 00
        E 0 80 18 00
        E 0 80 2a 00
        E 180 90 55 60
        E 0 90 57 60
        E 0 90 61 60
        E 0 90 63 60
        E 0 90 1a 60
        E 0 90 2a 60
        E 60 80 55 00
        E 0 80 57 00
        E 0 80 61 00
        E 0 80 63 00
        E 0 80 1a 00
        E 0 80 2a 00
        E 180 90 3f 60
        E 0 90 4b 60
        E 0 90 57 60
        E 0 90 63 60
        E 0 90 2a 60
        E 60 80 3f 00
        E 0 80 4b 00
        E 0 80 57 00
        E 0 80 63 00
        E 0 80 2a 00
        E 180 90 54 60
        E 0 90 57 60
        E 0 90 60 60
        E 0 90 63 60
        E 0 90 18 60
        E 0 90 2a 60
        E 60 80 54 00
        E 0 80 57 00
        E 0 80 60 00
        E 0 80 63 00
        E 0 80 18 00
        E 0 80 2a 00
        E 180 90 48 60
        E 0 90 4b 60
        E 0 90 54 60
        E 0 90 57 60
        E 0 90 60 60
        E 0 90 63 60
        E 0 90 18 60
        E 0 90 2a 60
        E 60 80 48 00
        E 0 80 4b 00
        E 0 80 54 00
        E 0 80 57 00
        E 0 80 60 00
        E 0 80 63 00
        E 0 80 18 00
        E 0 80 2a 00
        E 180 90 57 60
        E 0 90 63 60
        E 0 90 2a 60
        E 60 80 57 00
        E 0 80 63 00
        E 0 80 2a 00
        E 180 90 3c 60
        E 0 90 3f 60
        E 0 90 48 60
        E 0 90 4b 60
        E 0 90 54 60
        E 0 90 57 60
        E 0 90 60 60
        E 0 90 63 60
        E 0 90 18 60
        E 0 90 2a 60
        E 60 80 3c 00
        E 0 80 3f 00
        E 0 80 48 00
        E 0 80 4b 00
        E 0 80 54 00
        E 0 80 57 00
        E 0 80 60 00
        E 0 80 63 00
        E 0 80 18 00
        E 0 80 2a 00
        E 180 90 55 60
        E 0 90 57 60
        E 0 90 61 60
        E 0 90 63 60
        E 0 90 1a 60
        E 0 90 2a 60
        E 60 80 55 00
        E 0 80 57 00
        E 0 80 61 00
        E 0 80 63 00
        E 0 80 1a 00
        E 0 80 2a 00
        E 180 90 4b 60
        E 0 90 57 60
        E 0 90 63 60
        E 0 90 2a 60
        E 60 80 4b 00
        E 0 80 57 00
        E 0 80 63 00
        E 0 80 2a 00
        E 180 90 54 60
        E 0 90 57 60
        E 0 90 60 60
        E 0 90 63 60
        E 0 90 18 60
        E 0 90 2a 60
        E 120 80 54 00
        E 0 80 57 00
        E 0 80 60 00
        E 0 80 63 00
        E 0 80 18 00
        E 0 80 2a 00
        E 120 90 3c 60
        E 0 90 3f 60
        E 0 90 48 60
        E 0 90 4b 60
        E 0 90 54 60
        E 0 90 57 60
        E 0 90 60 60
        E 0 90 63 60
        E 0 90 18 60
        E 0 90 2a 60
        E 120 80 3c 00
        E 0 80 3f 00
        E 0 80 48 00
        E 0 80 4b 00
        E 0 80 54 00
        E 0 80 57 00
        E 0 80 60 00
        E 0 80 63 00
        E 0 80 18 00
        E 0 80 2a 00
        E 120 90 55 60
        E 0 90 61 60
        E 0 90 1b 60
        E 120 80 55 00
        E 0 80 61 00
        E 0 90 61 60
        E 0 80 1b 00
        E 0 90 1a 60
        E 120 80 61 00
        E 0 90 49 60
        E 0 90 55 60
        E 0 90 61 60
        E 0 80 1a 00
        E 0 90 1b 60
        E 120 80 49 00
        E 0 80 55 00
        E 0 80 61 00
        E 0 90 61 60
        E 0 80 1b 00
        E 0 90 1a 60
        E 120 80 61 00
        E 0 90 55 60
        E 0 90 61 60
        E 0 80 1a 00
        E 0 90 1b 60
        E 120 80 55 00
        E 0 80 61 00
        E 0 90 61 60
        E 0 80 1b 00
        E 0 90 1a 60
        E 120 80 61 00
        E 0 90 3c 60
        E 0 90 40 60
        E 0 90 48 60
        E 0 90 4c 60
        E 0 90 54 60
        E 0 90 58 60
        E 0 90 60 60
        E 0 90 64 60
        E 0 80 1a 00
        E 0 90 18 60
        E 0 90 26 60
        E 60 80 3c 00
        E 0 80 40 00
        E 0 80 48 00
        E 0 80 4c 00
        E 0 80 54 00
        E 0 80 58 00
        E 0 80 60 00
        E 0 80 64 00
        E 0 80 18 00
        E 0 80 26 00
        E 180 90 57 60
        E 0 90 63 60
        E 0 90 2a 60
        E 60 80 57 00
        E 0 80 63 00
        E 0 80 2a 00
        E 180 90 48 60
        E 0 90 4b 60
        E 0 90 54 60
        E 0 90 57 60
        E 0 90 60 60
        E 0 90 63 60
        E 0 90 18 60
        E 0 90 2a 60
        E 60 80 48 00
        E 0 80 4b 00
        E 0 80 54 00
        E 0 80 57 00
        E 0 80 60 00
        E 0 80 63 00
        E 0 80 18 00
        E 0 80 2a 00
        E 180 90 57 60
        E 0 90 63 60
        E 0 90 2a 60
        E 60 80 57 00
        E 0 80 63 00
        E 0 80 2a 00
        E 180 90 3d 60
        E 0 90 49 60
        E 0 90 4b 60
        E 0 90 55 60
        E 0 90 57 60
        E 0 90 61 60
        E 0 90 63 60
        E 0 90 1a 60
        E 0 90 2a 60
        E 60 80 3d 00
        E 0 80 49 00
        E 0 80 4b 00
        E 0 80 55 00
        E 0 80 57 00
        E 0 80 61 00
        E 0 80 63 00
        E 0 80 1a 00
        E 0 80 2a 00
        E 180 90 57 60
        E 0 90 63 60
        E 0 90 2a 60
        E 60 80 57 00
        E 0 80 63 00
        E 0 80 2a 00
        E 180 90 4b 60
        E 0 90 57 60
        E 0 90 63 60
        E 0 90 2a 60
        E 60 80 4b 00
        E 0 80 57 00
        E 0 80 63 00
        E 0 80 2a 00
        E 180 90 54 60
        E 0 90 57 60
        E 0 90 60 60
        E 0 90 63 60
        E 0 90 18 60
        E 0 90 2a 60
        E 60 80 54 00
        E 0 80 57 00
        E 0 80 60 00
        E 0 80 63 00
        E 0 80 18 00
        E 0 80 2a 00
        E 180 90 3f 60
        E 0 90 4b 60
        E 0 90 57 60
        E 0 90 63 60
        E 0 90 2a 60
        E 60 80 3f 00
        E 0 80 4b 00
        E 0 80 57 00
        E 0 80 63 00
        E 0 80 2a 00
        E 180 90 54 60
        E 0 90 57 60
        E 0 90 60 60
        E 0 90 63 60
        E 0 90 18 60
        E 0 90 2a 60
        E 60 80 54 00
        E 0 80 57 00
        E 0 80 60 00
        E 0 80 63 00
        E 0 80 18 00
        E 0 80 2a 00
        E 180 90 48 60
        E 0 90 4b 60
        E 0 90 54 60
        E 0 90 57 60
        E 0 90 60 60
        E 0 90 63 60
        E 0 90 18 60
        E 0 90 2a 60
        E 60 80 48 00
        E 0 80 4b 00
        E 0 80 54 00
        E 0 80 57 00
        E 0 80 60 00
        E 0 80 63 00
        E 0 80 18 00
        E 0 80 2a 00
        E 180 90 57 60
        E 0 90 63 60
        E 0 90 2a 60
        E 120 80 57 00
        E 0 80 63 00
        E 0 80 2a 00
        E 120 90 3f 60
        E 0 90 4b 60
        E 0 90 57 60
        E 0 90 63 60
        E 0 90 2a 60
        E 120 80 3f 00
        E 0 80 4b 00
        E 0 80 57 00
        E 0 80 63 00
        E 0 80 2a 00
        E 120 90 54 60
        E 0 90 57 60
        E 0 90 60 60
        E 0 90 63 60
        E 0 90 18 60
        E 0 90 2a 60
        E 120 80 54 00
        E 0 80 57 00
        E 0 80 60 00
        E 0 80 63 00
        E 0 80 18 00
        E 0 80 2a 00
        E 120 90 49 60
        E 0 90 4b 60
        E 0 90 55 60
        E 0 90 57 60
        E 0 90 61 60
        E 0 90 63 60
        E 0 90 1a 60
        E 0 90 2a 60
        E 120 80 49 00
        E 0 80 4b 00
        E 0 80 55 00
        E 0 80 57 00
        E 0 80 61 00
        E 0 80 63 00
        E 0 80 1a 00
        E 0 80 2a 00
        E 120 90 54 60
        E 0 90 57 60
        E 0 90 60 60
        E 0 90 63 60
        E 0 90 18 60
        E 0 90 2a 60
        E 120 80 54 00
        E 0 80 57 00
        E 0 80 60 00
        E 0 80 63 00
        E 0 80 18 00
        E 0 80 2a 00
        E 120 90 3c 60
        E 0 90 3e 60
        E 0 90 40 60
        E 0 90 48 60
        E 0 90 4a 60
        E 0 90 4c 60
        E 0 90 54 60
        E 0 90 56 60
        E 0 90 58 60
        E 0 90 60 60
        E 0 90 62 60
        E 0 90 64 60
        E 0 90 18 60
        E 0 90 26 60
        E 0 90 22 60
        E 60 80 3c 00
        E 0 80 3e 00
        E 0 80 40 00
        E 0 80 48 00
        E 0 80 4a 00
        E 0 80 4c 00
        E 0 80 54 00
        E 0 80 56 00
        E 0 80 58 00
        E 0 80 60 00
        E 0 80 62 00
        E 0 80 64 00
        E 0 80 18 00
        E 0 80 26 00
        E 0 80 22 00
        E 2820 90 3c 60
        E 0 90 3e 60
        E 0 90 40 60
        E 0 90 48 60
        E 0 90 4a 60
        E 0 90 4c 60
        E 0 90 54 60
        E 0 90 56 60
        E 0 90 58 60
        E 0 90 60 60
        E 0 90 62 60
        E 0 90 64 60
        E 0 90 18 60
        E 0 90 26 60
        E 0 90 22 60
        E 120 80 3c 00
        E 0 80 3e 00
        E 0 80 40 00
        E 0 80 48 00
        E 0 80 4a 00
        E 0 80 4c 00
        E 0 80 54 00
        E 0 80 56 00
        E 0 80 58 00
        E 0 80 60 00
        E 0 80 62 00
        E 0 80 64 00
        E 0 80 18 00
        E 0 80 26 00
        E 0 80 22 00
        <X 480 0
          /wFbaWRsZV9yZWFsdGltZV0=
        >
        E 13206 b0 7b 00
        GUID {99C52F88-C54B-4CCD-B038-A5C950AC8E6E}
        IGNTEMPO 0 120 4 4
        SRCCOLOR 19
        VELLANE 132 19 60
        COLORMAP "C:\Program Files (x86)\REAPER\Data\color_maps\rockband_drums.png"
        TEXTSTRINGFILE "Text Events List.txt"
        CFGEDITVIEW -190969.453097 2.100776 0 12 0 0 0 0 0
        KEYSNAP 0 0 102034050607 0 Major
        TRACKSEL -252 0 0 ""
        EVTFILTER 0 -1 -1 -1 -1 0 1 0 0 -1 -1 -1 -1 0 -1 0 -1 -1
        CFGEDIT 1 1 0 0 0 1 1 1 1 1 1 0.125 -8 -8 1370 736 1 2 1 2 0 0 0 0 0 0.5 1 0 1 64
      >
    >
  >
  <TRACK {6B7F9B4B-FF4E-4CE6-9E2D-4C9BD5DAED77}
    NAME "PART GUITAR"
    PEAKCOL 33488896
    BEAT -1
    AUTOMODE 0
    VOLPAN 1 0 -1 -1 1
    MUTESOLO 0 0 0
    IPHASE 0
    ISBUS 0 0
    BUSCOMP 1 0
    SHOWINMIX 1 0.6667 0.5 1 0.5 0 0 0
    FREEMODE 0
    SEL 0
    REC 0 4096 1 7 0 0 0
    TRACKHEIGHT 0 0
    INQ 0 0 0 0.5 100 0 0 100
    NCHAN 2
    FX 1
    TRACKID {6B7F9B4B-FF4E-4CE6-9E2D-4C9BD5DAED77}
    PERF 0
    MIDIOUT -1
    <MIDINOTENAMES
      0 40 "Left Hand Lowest"
      0 41 -
      0 42 -
      0 43 -
      0 44 -
      0 45 -
      0 46 -
      0 47 -
      0 48 -
      0 49 -
      0 50 -
      0 51 -
      0 52 -
      0 53 -
      0 54 -
      0 55 -
      0 56 -
      0 57 -
      0 58 -
      0 59 "Left Hand Highest"
      0 60 "EASY Green"
      0 61 "EASY Red"
      0 62 "EASY Yellow"
      0 63 "EASY Blue"
      0 64 "EASY Orange"
      0 65 ----
      0 72 "MEDIUM Green"
      0 73 "MEDIUM Red"
      0 74 "MEDIUM Yellow"
      0 75 "MEDIUM Blue"
      0 76 "MEDIUM Orange"
      0 77 ----
      0 84 "HARD Green"
      0 85 "HARD Red"
      0 86 "HARD Yellow"
      0 87 "HARD Blue"
      0 88 "HARD Orange"
      0 89 "Force HOPO On"
      0 90 "Force HOPO Off"
      0 95 ----
      0 96 "EXPERT Green"
      0 97 "EXPERT Red"
      0 98 "EXPERT Yellow"
      0 99 "EXPERT Blue"
      0 100 "EXPERT Orange"
      0 101 "Force HOPO On"
      0 102 "Force HOPO Off"
      0 103 "Solo Marker"
      0 115 ----
      0 116 OVERDRIVE
      0 119 ----
      0 120 "BRE (use all 5)"
      0 121 BRE
      0 122 BRE
      0 123 BRE
      0 124 BRE
      0 125 ----
      0 127 "Trill Marker"
    >
    MAINSEND 1 0
    <FXCHAIN
      WNDRECT 0 38 878 585
      SHOW 0
      LASTSEL 1
      DOCKED 0
      BYPASS 1 0 0
      <VST "VSTi: ReaSynth (Cockos)" reasynth.vst.dylib 0 "" 1919251321
        eXNlcu9e7f4AAAAAAgAAAAEAAAAAAAAAAgAAAAAAAAA8AAAAAAAAAAAAAADvvq3eDfCt3gAAAAAAAAAAAAAAAAAAAAA5tEg+fcvbPrW0sTkAAAAAtvP9PlWkKzoAAAAA
        AAAAAAAAgD8AAAAAAAA=
      >
      FLOATPOS 0 0 0 0
      FXID {52B28C73-185B-48E4-B8F4-1FD7A8848B0F}
      WAK 0
      BYPASS 0 0 0
      <VST "VSTi: RBN Preview (RBN)" rbprev_vst.dll 0 "" ""
        dnBicu5e7f4AAAAAAgAAAAEAAAAAAAAAAgAAAAAAAAAEAAAAAQAAAAAAAAADAKoAAAAAAAAA
      >
      FLOATPOS 32 32 659 497
      FXID {190BBB08-7A86-476B-BD07-5F71F5CD6F7C}
      WAK 0
    >
    <ITEM
      POSITION 0
      SNAPOFFS 0
      LENGTH 274.06033611035281
      LOOP 0
      ALLTAKES 0
      FADEIN 1 0 0 1 0 0
      FADEOUT 1 0 0 1 0 0
      MUTE 0
      SEL 0
      IGUID {81210F06-DA35-41E7-BA75-C6E1C5689733}
      IID 2
      NAME "PART GUITAR"
      VOLPAN 1 0 1 -1
      SOFFS 0 0
      PLAYRATE 1 1 0 -65536 0 0.0025
      CHANMODE 0
      GUID {61757875-B3D4-49E4-8483-EE351B7D2386}
      <SOURCE MIDI
        HASDATA 1 480 QN
        POOLEDEVTS {09BD4B27-7894-4B1E-AF28-5053C8CB1010}
        <X 0 0
          /wNQQVJUIEdVSVRBUg==
        >
        E 257646 b0 7b 00
        GUID {14D9E950-FB92-4048-8603-8FD02AE3B865}
        IGNTEMPO 0 120 4 4
        SRCCOLOR 20
        VELLANE 132 38 60
        COLORMAP "C:\Program Files (x86)\REAPER\Data\color_maps\rockband_guitarbass.png"
        TEXTSTRINGFILE "Text Events List.txt"
        CFGEDITVIEW -168132.735831 2.386115 0 12 0 0 0 0 0
        KEYSNAP 0 0 102034050607 0 Major
        TRACKSEL -252 0 0 ""
        EVTFILTER 0 -1 -1 -1 -1 0 1 0 0 -1 -1 -1 -1 0 -1 0 -1 -1
        CFGEDIT 1 1 0 0 0 1 1 1 1 1 1 0.125 -8 -8 1370 736 1 2 1 2 0 0 0 0 0 0.5 1 0 1 64
      >
    >
  >
  <TRACK {70C3FE4D-3BC3-4146-95C4-8AC455A2D0F5}
    NAME "PART BASS"
    PEAKCOL 16777471
    BEAT -1
    AUTOMODE 0
    VOLPAN 1 0 -1 -1 1
    MUTESOLO 0 0 0
    IPHASE 0
    ISBUS 0 0
    BUSCOMP 1 0
    SHOWINMIX 1 0.6667 0.5 1 0.5 0 0 0
    FREEMODE 0
    SEL 0
    REC 0 4096 1 0 0 0 0
    TRACKHEIGHT 0 0
    INQ 0 0 0 0.5 100 0 0 100
    NCHAN 2
    FX 1
    TRACKID {70C3FE4D-3BC3-4146-95C4-8AC455A2D0F5}
    PERF 0
    MIDIOUT -1
    <MIDINOTENAMES
      0 40 "Left Hand Lowest"
      0 41 -
      0 42 -
      0 43 -
      0 44 -
      0 45 -
      0 46 -
      0 47 -
      0 48 -
      0 49 -
      0 50 -
      0 51 -
      0 52 -
      0 53 -
      0 54 -
      0 55 -
      0 56 -
      0 57 -
      0 58 -
      0 59 "Left Hand Highest"
      0 60 "EASY Green"
      0 61 "EASY Red"
      0 62 "EASY Yellow"
      0 63 "EASY Blue"
      0 64 "EASY Orange"
      0 68 ----
      0 72 "MEDIUM Green"
      0 73 "MEDIUM Red"
      0 74 "MEDIUM Yellow"
      0 75 "MEDIUM Blue"
      0 76 "MEDIUM Orange"
      0 80 ----
      0 84 "HARD Green"
      0 85 "HARD Red"
      0 86 "HARD Yellow"
      0 87 "HARD Blue"
      0 88 "HARD Orange"
      0 89 "Force HOPO On"
      0 90 "Force HOPO Off"
      0 91 ----
      0 96 "EXPERT Green"
      0 97 "EXPERT Red"
      0 98 "EXPERT Yellow"
      0 99 "EXPERT Blue"
      0 100 "EXPERT Orange"
      0 101 "Force HOPO On"
      0 102 "Force HOPO Off"
      0 103 "Solo Marker"
      0 111 ----
      0 116 OVERDRIVE
      0 119 ----
      0 120 "BRE (use all 5)"
      0 121 BRE
      0 122 BRE
      0 123 BRE
      0 124 BRE
      0 125 ----
      0 127 "Trill Marker"
    >
    MAINSEND 1 0
    <FXCHAIN
      WNDRECT 0 38 878 585
      SHOW 0
      LASTSEL 1
      DOCKED 0
      BYPASS 1 0 0
      <VST "VSTi: ReaSynth (Cockos)" reasynth.vst.dylib 0 "" 1919251321
        eXNlcu9e7f4AAAAAAgAAAAEAAAAAAAAAAgAAAAAAAAA8AAAAAAAAAAAAAADvvq3eDfCt3gAAAAAAAAAAAAAAAAAAAAA5tEg+fcvbPrW0sTkAAAAAtvP9PlWkKzoAAAAA
        AAAAAAAAgD8AAAAAAAA=
      >
      FLOATPOS 0 0 0 0
      FXID {D4EC3C58-478E-4D1F-A0FC-2252BD344989}
      WAK 0
      BYPASS 0 0 0
      <VST "VSTi: RBN Preview (RBN)" rbprev_vst.dll 0 "" ""
        dnBicu5e7f4AAAAAAgAAAAEAAAAAAAAAAgAAAAAAAAAEAAAAAQAAAAAAAAADAKoAAAAAAAAA
      >
      FLOATPOS 32 32 659 497
      FXID {72D22271-4F4F-4081-90C4-66415E7AEC47}
      WAK 0
    >
    <ITEM
      POSITION 0
      SNAPOFFS 0
      LENGTH 274.06033611035281
      LOOP 0
      ALLTAKES 0
      FADEIN 1 0 0 1 0 0
      FADEOUT 1 0 0 1 0 0
      MUTE 0
      SEL 0
      IGUID {A1B24BBF-93B7-476C-BC6D-33F5621C633F}
      IID 3
      NAME "PART BASS"
      VOLPAN 1 0 1 -1
      SOFFS 0 0
      PLAYRATE 1 1 0 -65536 0 0.0025
      CHANMODE 0
      GUID {344A7487-35C3-41F9-8B1E-12A4F3D7F336}
      <SOURCE MIDI
        HASDATA 1 480 QN
        POOLEDEVTS {6729CCEB-2B54-41BE-8CB3-9E58125A4ADE}
        <X 0 0
          /wNQQVJUIEJBU1M=
        >
        E 257646 b0 7b 00
        GUID {54A57D35-811F-42A6-AB75-F5706122F903}
        IGNTEMPO 0 120 4 4
        SRCCOLOR 21
        VELLANE 132 128 60
        COLORMAP "C:\Program Files (x86)\REAPER\Data\color_maps\rockband_guitarbass.png"
        TEXTSTRINGFILE "Text Events List.txt"
        CFGEDITVIEW -2978.035058 68.662724 16 12 0 0 0 0 0
        KEYSNAP 0 0 102034050607 0 Major
        TRACKSEL 0 0 0 ""
        EVTFILTER 0 -1 -1 -1 -1 0 1 0 0 -1 -1 -1 -1 0 -1 0 -1 -1
        CFGEDIT 1 1 0 0 0 1 1 1 1 1 1 0.125 -8 -8 1370 736 1 2 1 2 0 0 0 0 0 0.5 1 0 1 64
      >
    >
  >
  <TRACK {C298A11E-8E06-44B8-AA31-429ECCE3F0AF}
    NAME "PART VOCALS"
    PEAKCOL 16810239
    BEAT -1
    AUTOMODE 0
    VOLPAN 1 0 -1 -1 1
    MUTESOLO 0 2 0
    IPHASE 0
    ISBUS 1 1
    BUSCOMP 1 0
    SHOWINMIX 1 0.6667 0.5 1 0.5 0 0 0
    FREEMODE 0
    SEL 0
    REC 0 4096 1 7 0 0 0
    TRACKHEIGHT 62 0
    INQ 0 0 0 0.5 100 0 0 100
    NCHAN 2
    FX 0
    TRACKID {C298A11E-8E06-44B8-AA31-429ECCE3F0AF}
    PERF 0
    MIDIOUT -1
    <MIDINOTENAMES
      0 0 "Range Shift"
      0 1 "Lyric Shift"
      0 36 C1
      0 37 C#
      0 38 D
      0 39 Eb
      0 40 E
      0 41 F
      0 42 F#
      0 43 G
      0 44 G#
      0 45 A
      0 46 Bb
      0 47 B
      0 48 C2
      0 49 C#
      0 50 D
      0 51 Eb
      0 52 E
      0 53 F
      0 54 F#
      0 55 G
      0 56 G#
      0 57 A
      0 58 Bb
      0 59 B
      0 60 C3
      0 61 C#
      0 62 D
      0 63 Eb
      0 64 E
      0 65 F
      0 66 F#
      0 67 G
      0 68 G#
      0 69 A
      0 70 Bb
      0 71 B
      0 72 C4
      0 73 C#
      0 74 D
      0 75 Eb
      0 76 E
      0 77 F
      0 78 F#
      0 79 G
      0 80 G#
      0 81 A
      0 82 Bb
      0 83 B
      0 84 C5
      0 95 ----
      0 96 "Displayed Percussion"
      0 97 "Not Displayed Percussion"
      0 104 ----
      0 105 "Phrase Marker"
      0 115 ----
      0 116 OVERDRIVE
    >
    MAINSEND 1 0
    <FXCHAIN
      WNDRECT 455 130 716 493
      SHOW 0
      LASTSEL 1
      DOCKED 0
      BYPASS 0 0 0
      <JS "IX/MIDI_Tool II" ""
        0.000000 85.000000 127.000000 0.000000 0.000000 0.000000 100.000000 0.000000 0.000000 127.000000 0.000000 0.000000 1.000000 0.000000 0.000000 - - - - - - - - - - - - - - - - - - - - - - - - - - - - - - - - - - - - - - - - - - - - - - - - - 
      >
      FLOATPOS 0 0 0 0
      FXID {CA785021-0433-497E-9A6C-EE23A1BC21B0}
      WAK 0
      BYPASS 0 0 0
      <VST "VSTi: ReaSynth (Cockos)" reasynth.vst.dylib 0 "" 1919251321
        eXNlcu9e7f4AAAAAAgAAAAEAAAAAAAAAAgAAAAAAAAA8AAAAAAAAAAAAAADvvq3eDfCt3qabxDsXt9E6AAAAAAAAAAAAAAAAzJuAPulniD0AAAAAAAAAPwAAgD8AAAAA
        AAAAPwAAgD8AAAAAAAA=
      >
      FLOATPOS 32 32 338 405
      FXID {F124DD19-73B4-4CD5-B659-E246F2A3D0B3}
      WAK 0
    >
    <ITEM
      POSITION 0
      SNAPOFFS 0
      LENGTH 274.06033611035281
      LOOP 0
      ALLTAKES 0
      FADEIN 1 0 0 1 0 0
      FADEOUT 1 0 0 1 0 0
      MUTE 0
      SEL 0
      IGUID {9C9617EC-369A-41B9-80F6-31F4222F13F6}
      IID 13
      NAME "PART VOCALS"
      VOLPAN 1 0 1 -1
      SOFFS 0 0
      PLAYRATE 1 1 0 -65536 0 0.0025
      CHANMODE 0
      GUID {8E872349-00D8-4243-95D7-0B92852E4EE5}
      <SOURCE MIDI
        HASDATA 1 480 QN
        POOLEDEVTS {7DF469CE-ABFE-4E1D-83B2-BA04D77181E6}
        <X 0 0
          /wNQQVJUIFZPQ0FMUw==
        >
        <X 5760 0
          /wFbaWRsZV0=
        >
        <X 1937 0
          /wFbcGxheV0=
        >
        E 95983 90 69 60
        <X 240 0
          /wVXaXRo
        >
        E 0 90 39 60
        E 120 80 39 00
        <X 120 0
          /wV0aGU=
        >
        E 0 90 37 60
        E 120 80 37 00
        <X 120 0
          /wVsaWdodHM=
        >
        E 0 90 35 60
        E 120 80 35 00
        <X 30 0
          /wUr
        >
        E 0 90 34 60
        E 120 80 34 00
        <X 210 0
          /wVkb3du
        >
        E 0 90 34 60
        E 330 80 34 00
        <X 150 0
          /wVsb3c=
        >
        E 0 90 34 60
        E 720 80 69 00
        E 0 80 34 00
        E 1440 90 69 60
        <X 240 0
          /wVXcmFwcGVk
        >
        E 0 90 3b 60
        E 240 80 3b 00
        <X 240 0
          /wV1cA==
        >
        E 0 90 3b 60
        E 240 80 3b 00
        <X 240 0
          /wVsaWtl
        >
        E 0 90 3b 60
        E 330 80 3b 00
        <X 150 0
          /wVh
        >
        E 0 90 3b 60
        E 120 80 3b 00
        <X 120 0
          /wViYS0=
        >
        E 0 90 3b 60
        E 210 80 3b 00
        <X 30 0
          /wUr
        >
        E 0 90 3c 60
        E 120 80 3c 00
        <X 120 0
          /wVieQ==
        >
        E 0 90 3b 60
        E 240 80 3b 00
        <X 240 0
          /wUr
        >
        E 0 90 39 60
        E 480 80 69 00
        E 0 80 39 00
        E 480 90 69 60
        <X 240 0
          /wVBbmQ=
        >
        E 0 90 39 60
        E 120 80 39 00
        <X 120 0
          /wV5b3Vy
        >
        E 0 90 37 60
        E 120 80 37 00
        <X 120 0
          /wVoYWly
        >
        E 0 90 35 60
        E 180 80 35 00
        <X 30 0
          /wUr
        >
        E 0 90 34 60
        E 150 80 34 00
        <X 120 0
          /wVoYW5ncw==
        >
        E 0 90 34 60
        E 300 80 34 00
        <X 180 0
          /wVsb25n
        >
        E 0 90 34 60
        E 840 80 34 00
        E 120 80 69 00
        E 1200 90 69 60
        E 0 90 74 60
        <X 240 0
          /wVTdXIt
        >
        E 0 90 3b 60
        E 360 80 3b 00
        <X 120 0
          /wVyb3VuZC0=
        >
        E 0 90 3b 60
        E 330 80 3b 00
        <X 150 0
          /wVpbmc=
        >
        E 0 90 3b 60
        E 360 80 3b 00
        <X 120 0
          /wVteQ==
        >
        E 0 90 3b 60
        E 120 80 3b 00
        <X 120 0
          /wVmYWNl
        >
        E 0 90 3b 60
        E 210 80 3b 00
        <X 30 0
          /wUr
        >
        E 0 90 3c 60
        E 210 80 3c 00
        <X 30 0
          /wUr
        >
        E 0 90 3b 60
        E 210 80 3b 00
        <X 270 0
          /wUr
        >
        E 0 90 39 60
        E 480 80 69 00
        E 0 80 74 00
        E 0 80 39 00
        <X 480 0
          /wVTdHJhaWdodA==
        >
        E 0 90 41 60
        E 0 90 69 60
        E 240 80 41 00
        <X 120 0
          /wVvdXQ=
        >
        E 0 90 40 60
        E 240 80 40 00
        <X 120 0
          /wVvZg==
        >
        E 0 90 3c 60
        E 120 80 3c 00
        <X 120 0
          /wVuby0=
        >
        E 0 90 3e 60
        E 360 80 3e 00
        <X 120 0
          /wV3aGVyZQ==
        >
        E 0 90 40 60
        E 960 80 40 00
        E 480 80 69 00
        <X 960 0
          /wVCdXIt
        >
        E 0 90 3f 60
        E 0 90 69 60
        E 240 80 3f 00
        <X 150 0
          /wVpZWQ=
        >
        E 0 90 3f 60
        E 240 80 3f 00
        <X 150 0
          /wVkZWVw
        >
        E 0 90 3f 60
        E 240 80 3f 00
        <X 180 0
          /wVpbi0=
        >
        E 0 90 3f 60
        E 240 80 3f 00
        <X 240 0
          /wVzaWRl
        >
        E 0 90 3f 60
        E 240 80 3f 00
        <X 240 0
          /wVteQ==
        >
        E 0 90 40 60
        E 240 80 40 00
        <X 240 0
          /wVwYXN0
        >
        E 0 90 3b 60
        E 600 80 3b 00
        E 120 80 69 00
        <X 480 0
          /wVTdHJhaWdodA==
        >
        E 0 90 40 60
        E 0 90 69 60
        E 240 80 40 00
        <X 120 0
          /wVvdXQ=
        >
        E 0 90 40 60
        E 240 80 40 00
        <X 120 0
          /wVvZg==
        >
        E 0 90 3c 60
        E 120 80 3c 00
        <X 120 0
          /wVuby0=
        >
        E 0 90 3e 60
        E 360 80 3e 00
        <X 120 0
          /wV3aGVyZQ==
        >
        E 0 90 40 60
        E 900 80 40 00
        E 540 80 69 00
        <X 960 0
          /wVIb3At
        >
        E 0 90 3f 60
        E 0 90 69 60
        E 150 80 3f 00
        <X 90 0
          /wVpbmc=
        >
        E 0 90 3f 60
        E 150 80 3f 00
        <X 90 0
          /wV5b3UnbGw=
        >
        E 0 90 3f 60
        E 150 80 3f 00
        <X 90 0
          /wViZQ==
        >
        E 0 90 43 60
        E 150 80 43 00
        <X 30 0
          /wUr
        >
        E 0 90 44 60
        E 180 80 44 00
        <X 120 0
          /wV0aGU=
        >
        E 0 90 42 60
        E 360 80 42 00
        <X 120 0
          /wVsYXN0
        >
        E 0 90 41 60
        E 960 80 41 00
        E 240 80 69 00
        E 8640 90 69 60
        E 0 90 74 60
        <X 240 0
          /wVMb3Zl
        >
        E 0 90 39 60
        E 120 80 39 00
        <X 120 0
          /wV5b3Vy
        >
        E 0 90 37 60
        E 120 80 37 00
        <X 120 0
          /wV3YXJt
        >
        E 0 90 35 60
        E 210 80 35 00
        <X 30 0
          /wUr
        >
        E 0 90 34 60
        E 180 80 34 00
        <X 60 0
          /wVlbS0=
        >
        E 0 90 34 60
        E 360 80 34 00
        <X 120 0
          /wVicmFjZQ==
        >
        E 0 90 34 60
        E 720 80 69 00
        E 0 80 74 00
        E 0 80 34 00
        E 1440 90 69 60
        <X 240 0
          /wVIb2xk
        >
        E 0 90 3b 60
        E 150 80 3b 00
        <X 90 0
          /wVtZQ==
        >
        E 0 90 3b 60
        E 150 80 3b 00
        <X 90 0
          /wVjbG9zZQ==
        >
        E 0 90 3b 60
        E 240 80 3b 00
        <X 240 0
          /wVkb24ndA==
        >
        E 0 90 3b 60
        E 150 80 3b 00
        <X 90 0
          /wVsZXQ=
        >
        E 0 90 3b 60
        E 150 80 3b 00
        <X 90 0
          /wVtZQ==
        >
        E 0 90 3b 60
        E 120 80 3b 00
        <X 120 0
          /wVnbw==
        >
        E 0 90 3b 60
        E 210 80 3b 00
        <X 30 0
          /wUr
        >
        E 0 90 3c 60
        E 210 80 3c 00
        <X 30 0
          /wUr
        >
        E 0 90 3b 60
        E 210 80 3b 00
        <X 270 0
          /wUr
        >
        E 0 90 39 60
        E 480 80 69 00
        E 0 80 39 00
        E 480 90 69 60
        <X 240 0
          /wVOaXAt
        >
        E 0 90 39 60
        E 120 80 39 00
        <X 120 0
          /wVwbGU=
        >
        E 0 90 37 60
        E 120 80 37 00
        <X 120 0
          /wVwaW5r
        >
        E 0 90 35 60
        E 150 80 35 00
        <X 30 0
          /wUr
        >
        E 0 90 34 60
        E 180 80 34 00
        <X 120 0
          /wVhbmQ=
        >
        E 0 90 34 60
        E 330 80 34 00
        <X 150 0
          /wVjb2xk
        >
        E 0 90 34 60
        E 990 80 34 00
        E 210 80 69 00
        E 960 90 69 60
        <X 240 0
          /wVGaWxsZWQ=
        >
        E 0 90 3a 60
        E 120 80 3a 00
        <X 30 0
          /wUr
        >
        E 0 90 3b 60
        E 240 80 3b 00
        <X 90 0
          /wV1cA==
        >
        E 0 90 3b 60
        E 240 80 3b 00
        <X 240 0
          /wV3aXRo
        >
        E 0 90 3b 60
        E 150 80 3b 00
        <X 90 0
          /wVtb3RoLQ==
        >
        E 0 90 3b 60
        E 150 80 3b 00
        <X 90 0
          /wVlcidz
        >
        E 0 90 3b 60
        E 120 80 3b 00
        <X 120 0
          /wVtaWxr
        >
        E 0 90 3b 60
        E 210 80 3b 00
        <X 30 0
          /wUr
        >
        E 0 90 3c 60
        E 210 80 3c 00
        <X 30 0
          /wUr
        >
        E 0 90 3b 60
        E 180 80 3b 00
        <X 300 0
          /wUr
        >
        E 0 90 39 60
        E 480 80 69 00
        E 0 80 39 00
        <X 480 0
          /wVTdHJhaWdodA==
        >
        E 0 90 41 60
        E 0 90 69 60
        E 240 80 41 00
        <X 120 0
          /wVvdXQ=
        >
        E 0 90 40 60
        E 240 80 40 00
        <X 120 0
          /wVvZg==
        >
        E 0 90 3c 60
        E 120 80 3c 00
        <X 120 0
          /wVuby0=
        >
        E 0 90 3e 60
        E 360 80 3e 00
        <X 120 0
          /wV3aGVyZQ==
        >
        E 0 90 40 60
        E 960 80 40 00
        E 480 80 69 00
        <X 960 0
          /wVCdXIt
        >
        E 0 90 3f 60
        E 0 90 69 60
        E 0 90 74 60
        E 240 80 3f 00
        <X 150 0
          /wVpZWQ=
        >
        E 0 90 3f 60
        E 240 80 3f 00
        <X 150 0
          /wVkZWVw
        >
        E 0 90 3f 60
        E 240 80 3f 00
        <X 180 0
          /wVpbi0=
        >
        E 0 90 3f 60
        E 240 80 3f 00
        <X 240 0
          /wVzaWRl
        >
        E 0 90 3f 60
        E 240 80 3f 00
        <X 240 0
          /wVteQ==
        >
        E 0 90 40 60
        E 240 80 40 00
        <X 240 0
          /wVwYXN0
        >
        E 0 90 3b 60
        E 600 80 3b 00
        E 120 80 69 00
        E 0 80 74 00
        <X 480 0
          /wVTdHJhaWdodA==
        >
        E 0 90 40 60
        E 0 90 69 60
        E 240 80 40 00
        <X 120 0
          /wVvdXQ=
        >
        E 0 90 40 60
        E 240 80 40 00
        <X 120 0
          /wVvZg==
        >
        E 0 90 3c 60
        E 120 80 3c 00
        <X 120 0
          /wVuby0=
        >
        E 0 90 3e 60
        E 360 80 3e 00
        <X 120 0
          /wV3aGVyZQ==
        >
        E 0 90 40 60
        E 900 80 40 00
        E 540 80 69 00
        <X 960 0
          /wVIb3At
        >
        E 0 90 3f 60
        E 0 90 69 60
        E 150 80 3f 00
        <X 90 0
          /wVpbmc=
        >
        E 0 90 3f 60
        E 150 80 3f 00
        <X 90 0
          /wV5b3UnbGw=
        >
        E 0 90 3f 60
        E 150 80 3f 00
        <X 90 0
          /wViZQ==
        >
        E 0 90 43 60
        E 150 80 43 00
        <X 30 0
          /wUr
        >
        E 0 90 44 60
        E 180 80 44 00
        <X 120 0
          /wV0aGU=
        >
        E 0 90 42 60
        E 360 80 42 00
        <X 120 0
          /wVsYXN0
        >
        E 0 90 41 60
        E 960 80 41 00
        E 240 80 69 00
        E 24000 90 69 60
        <X 240 0
          /wVXaXRo
        >
        E 0 90 39 60
        E 120 80 39 00
        <X 120 0
          /wV0aGU=
        >
        E 0 90 37 60
        E 120 80 37 00
        <X 120 0
          /wVsaWdodHM=
        >
        E 0 90 35 60
        E 120 80 35 00
        <X 30 0
          /wUr
        >
        E 0 90 34 60
        E 120 80 34 00
        <X 210 0
          /wVkb3du
        >
        E 0 90 34 60
        E 330 80 34 00
        <X 150 0
          /wVsb3c=
        >
        E 0 90 34 60
        E 960 80 34 00
        E 240 80 69 00
        E 960 90 69 60
        <X 240 0
          /wVXcmFwcGVk
        >
        E 0 90 3b 60
        E 240 80 3b 00
        <X 240 0
          /wV1cA==
        >
        E 0 90 3b 60
        E 240 80 3b 00
        <X 240 0
          /wVsaWtl
        >
        E 0 90 3b 60
        E 330 80 3b 00
        <X 150 0
          /wVh
        >
        E 0 90 3b 60
        E 120 80 3b 00
        <X 120 0
          /wViYS0=
        >
        E 0 90 3b 60
        E 210 80 3b 00
        <X 30 0
          /wUr
        >
        E 0 90 3c 60
        E 120 80 3c 00
        <X 120 0
          /wVieQ==
        >
        E 0 90 3b 60
        E 240 80 3b 00
        <X 240 0
          /wUr
        >
        E 0 90 39 60
        E 600 80 39 00
        E 120 80 69 00
        E 240 90 69 60
        E 0 90 74 60
        <X 240 0
          /wVBbmQ=
        >
        E 0 90 39 60
        E 120 80 39 00
        <X 120 0
          /wV5b3Vy
        >
        E 0 90 37 60
        E 120 80 37 00
        <X 120 0
          /wVoYWly
        >
        E 0 90 35 60
        E 180 80 35 00
        <X 30 0
          /wUr
        >
        E 0 90 34 60
        E 150 80 34 00
        <X 120 0
          /wVoYW5ncw==
        >
        E 0 90 34 60
        E 300 80 34 00
        <X 180 0
          /wVsb25n
        >
        E 0 90 34 60
        E 840 80 34 00
        E 360 80 69 00
        E 0 80 74 00
        E 960 90 69 60
        <X 240 0
          /wVTdXIt
        >
        E 0 90 3b 60
        E 360 80 3b 00
        <X 120 0
          /wVyb3VuZC0=
        >
        E 0 90 3b 60
        E 330 80 3b 00
        <X 150 0
          /wVpbmc=
        >
        E 0 90 3b 60
        E 360 80 3b 00
        <X 120 0
          /wVteQ==
        >
        E 0 90 3b 60
        E 120 80 3b 00
        <X 120 0
          /wVmYWNl
        >
        E 0 90 3b 60
        E 210 80 3b 00
        <X 30 0
          /wUr
        >
        E 0 90 3c 60
        E 210 80 3c 00
        <X 30 0
          /wUr
        >
        E 0 90 3b 60
        E 210 80 3b 00
        <X 270 0
          /wUr
        >
        E 0 90 39 60
        E 480 80 69 00
        E 0 80 39 00
        <X 480 0
          /wVTdHJhaWdodA==
        >
        E 0 90 41 60
        E 0 90 69 60
        E 240 80 41 00
        <X 120 0
          /wVvdXQ=
        >
        E 0 90 40 60
        E 240 80 40 00
        <X 120 0
          /wVvZg==
        >
        E 0 90 3c 60
        E 120 80 3c 00
        <X 120 0
          /wVuby0=
        >
        E 0 90 3e 60
        E 360 80 3e 00
        <X 120 0
          /wV3aGVyZQ==
        >
        E 0 90 40 60
        E 960 80 40 00
        E 480 80 69 00
        <X 960 0
          /wVCdXIt
        >
        E 0 90 3f 60
        E 0 90 69 60
        E 240 80 3f 00
        <X 150 0
          /wVpZWQ=
        >
        E 0 90 3f 60
        E 240 80 3f 00
        <X 150 0
          /wVkZWVw
        >
        E 0 90 3f 60
        E 240 80 3f 00
        <X 180 0
          /wVpbi0=
        >
        E 0 90 3f 60
        E 240 80 3f 00
        <X 240 0
          /wVzaWRl
        >
        E 0 90 3f 60
        E 240 80 3f 00
        <X 240 0
          /wVteQ==
        >
        E 0 90 40 60
        E 240 80 40 00
        <X 240 0
          /wVwYXN0
        >
        E 0 90 3b 60
        E 600 80 3b 00
        E 120 80 69 00
        <X 480 0
          /wVTdHJhaWdodA==
        >
        E 0 90 40 60
        E 0 90 69 60
        E 240 80 40 00
        <X 120 0
          /wVvdXQ=
        >
        E 0 90 40 60
        E 240 80 40 00
        <X 120 0
          /wVvZg==
        >
        E 0 90 3c 60
        E 120 80 3c 00
        <X 120 0
          /wVuby0=
        >
        E 0 90 3e 60
        E 360 80 3e 00
        <X 120 0
          /wV3aGVyZQ==
        >
        E 0 90 40 60
        E 900 80 40 00
        E 540 80 69 00
        <X 960 0
          /wVIb3At
        >
        E 0 90 3f 60
        E 0 90 69 60
        E 150 80 3f 00
        <X 90 0
          /wVpbmc=
        >
        E 0 90 3f 60
        E 150 80 3f 00
        <X 90 0
          /wV5b3UnbGw=
        >
        E 0 90 3f 60
        E 150 80 3f 00
        <X 90 0
          /wViZQ==
        >
        E 0 90 43 60
        E 150 80 43 00
        <X 30 0
          /wUr
        >
        E 0 90 44 60
        E 180 80 44 00
        <X 120 0
          /wV0aGU=
        >
        E 0 90 42 60
        E 360 80 42 00
        <X 120 0
          /wVsYXN0
        >
        E 0 90 41 60
        E 960 80 41 00
        E 240 80 69 00
        E 32046 b0 7b 00
        GUID {C9A1A4CA-4224-4672-91C0-075BEB2A8650}
        IGNTEMPO 0 120 4 4
        SRCCOLOR 25
        VELLANE 132 128 128
        COLORMAP "C:\Users\AJFOne23\AppData\Roaming\REAPER\Data\color_maps\rockband_vox-other.png"
        TEXTSTRINGFILE "Text Events List.txt"
        CFGEDITVIEW -168132.735831 2.386115 0 12 0 0 0 0 0
        KEYSNAP 0 0 102034050607 0 Major
        TRACKSEL -252 0 0 ""
        EVTFILTER 0 -1 -1 -1 -1 0 1 0 0 -1 -1 -1 -1 0 -1 0 -1 -1
        CFGEDIT 1 1 0 0 1 1 1 1 1 1 1 0.25 75 0 1611 691 1 2 1 2 0 0 0 0 0 0.5 1 0 1 64
      >
    >
  >
  <TRACK {E60BCF67-80FD-4554-840A-5B0B5C2E06A0}
    NAME HARM1
    PEAKCOL 24624127
    BEAT -1
    AUTOMODE 0
    VOLPAN 1 -0.096 -1 -1 1
    MUTESOLO 0 0 0
    IPHASE 0
    ISBUS 0 0
    BUSCOMP 0 0
    SHOWINMIX 1 0.6667 0.5 1 0.5 0 0 0
    FREEMODE 0
    SEL 1
    REC 0 0 0 0 0 0 0
    TRACKHEIGHT 56 0
    INQ 0 0 0 0.5 100 0 0 100
    NCHAN 2
    FX 1
    TRACKID {E60BCF67-80FD-4554-840A-5B0B5C2E06A0}
    PERF 0
    MIDIOUT -1
    <MIDINOTENAMES
      0 0 "Range Shift"
      0 1 "Lyric Shift"
      0 36 C1
      0 37 C#
      0 38 D
      0 39 Eb
      0 40 E
      0 41 F
      0 42 F#
      0 43 G
      0 44 G#
      0 45 A
      0 46 Bb
      0 47 B
      0 48 C2
      0 49 C#
      0 50 D
      0 51 Eb
      0 52 E
      0 53 F
      0 54 F#
      0 55 G
      0 56 G#
      0 57 A
      0 58 Bb
      0 59 B
      0 60 C3
      0 61 C#
      0 62 D
      0 63 Eb
      0 64 E
      0 65 F
      0 66 F#
      0 67 G
      0 68 G#
      0 69 A
      0 70 Bb
      0 71 B
      0 72 C4
      0 73 C#
      0 74 D
      0 75 Eb
      0 76 E
      0 77 F
      0 78 F#
      0 79 G
      0 80 G#
      0 81 A
      0 82 Bb
      0 83 B
      0 84 C5
      0 95 ----
      0 96 "Displayed Percussion"
      0 97 "Not Displayed Percussion"
      0 104 ----
      0 105 "Phrase Marker"
      0 115 ----
      0 116 OVERDRIVE
    >
    MAINSEND 1 0
    <FXCHAIN
      WNDRECT 87 413 724 464
      SHOW 0
      LASTSEL 1
      DOCKED 0
      BYPASS 0 0 0
      <JS "IX/MIDI_Tool II" ""
        0.000000 85.000000 127.000000 0.000000 0.000000 0.000000 100.000000 0.000000 0.000000 127.000000 0.000000 0.000000 1.000000 0.000000 0.000000 - - - - - - - - - - - - - - - - - - - - - - - - - - - - - - - - - - - - - - - - - - - - - - - - - 
      >
      FLOATPOS 0 0 0 0
      FXID {2E79298C-F056-441C-A64B-722C2599E1AA}
      WAK 0
      BYPASS 0 0 0
      <VST "VSTi: ReaSynth (Cockos)" reasynth.vst.dylib 0 "" 1919251321
        eXNlcu9e7f4AAAAAAgAAAAEAAAAAAAAAAgAAAAAAAAA8AAAAAAAAAAAAAADvvq3eDfCt3qabxDsXt9E6nMSgPgAAAAAAAAAAAACAP+lniD0AAAAAAAAAPwAAgD/pJrE+
        AAAAPwAAgD8AAAAAAAA=
      >
      FLOATPOS 0 0 0 0
      FXID {A391E59B-3475-47CA-9BDB-E03F3B8FF2C4}
      WAK 0
    >
    <ITEM
      POSITION 0
      SNAPOFFS 0
      LENGTH 272.73484279241603
      LOOP 0
      ALLTAKES 0
      FADEIN 1 0 0 1 0 0
      FADEOUT 1 0 0 1 0 0
      MUTE 0
      SEL 0
      IGUID {FE84F6DE-5A5E-43D1-BFBE-4632BD10F85F}
      IID 14
      NAME HARM1
      VOLPAN 1 0 1 -1
      SOFFS 0 0
      PLAYRATE 1 1 0 -1 0 0.0025
      CHANMODE 0
      GUID {188D8841-6EF7-4ADC-A9DC-A83C2882A63B}
      <SOURCE MIDI
        HASDATA 1 480 QN
        POOLEDEVTS {E8860273-C00D-4CA3-AD3A-9FD43A5FEB16}
        <X 0 0
          /wNIQVJNMQ==
        >
        E 103680 90 69 60
        <X 240 0
          /wVXaXRo
        >
        E 0 90 39 60
        E 120 80 39 00
        <X 120 0
          /wV0aGU=
        >
        E 0 90 37 60
        E 120 80 37 00
        <X 120 0
          /wVsaWdodHM=
        >
        E 0 90 35 60
        E 120 80 35 00
        <X 30 0
          /wUr
        >
        E 0 90 34 60
        E 120 80 34 00
        <X 210 0
          /wVkb3du
        >
        E 0 90 34 60
        E 330 80 34 00
        <X 150 0
          /wVsb3c=
        >
        E 0 90 34 60
        E 720 80 69 00
        E 0 80 34 00
        E 1440 90 69 60
        <X 240 0
          /wVXcmFwcGVk
        >
        E 0 90 3b 60
        E 240 80 3b 00
        <X 240 0
          /wV1cA==
        >
        E 0 90 3b 60
        E 240 80 3b 00
        <X 240 0
          /wVsaWtl
        >
        E 0 90 3b 60
        E 330 80 3b 00
        <X 150 0
          /wVh
        >
        E 0 90 3b 60
        E 120 80 3b 00
        <X 120 0
          /wViYS0=
        >
        E 0 90 3b 60
        E 210 80 3b 00
        <X 30 0
          /wUr
        >
        E 0 90 3c 60
        E 120 80 3c 00
        <X 120 0
          /wVieQ==
        >
        E 0 90 3b 60
        E 240 80 3b 00
        <X 240 0
          /wUr
        >
        E 0 90 39 60
        E 480 80 69 00
        E 0 80 39 00
        E 480 90 69 60
        <X 240 0
          /wVBbmQ=
        >
        E 0 90 39 60
        E 120 80 39 00
        <X 120 0
          /wV5b3Vy
        >
        E 0 90 37 60
        E 120 80 37 00
        <X 120 0
          /wVoYWly
        >
        E 0 90 35 60
        E 180 80 35 00
        <X 30 0
          /wUr
        >
        E 0 90 34 60
        E 150 80 34 00
        <X 120 0
          /wVoYW5ncw==
        >
        E 0 90 34 60
        E 300 80 34 00
        <X 180 0
          /wVsb25n
        >
        E 0 90 34 60
        E 840 80 34 00
        E 120 80 69 00
        E 1200 90 69 60
        e 0 90 74 60
        <X 240 0
          /wVTdXIt
        >
        E 0 90 3b 60
        E 360 80 3b 00
        <X 120 0
          /wVyb3VuZC0=
        >
        E 0 90 3b 60
        E 330 80 3b 00
        <X 150 0
          /wVpbmc=
        >
        E 0 90 3b 60
        E 360 80 3b 00
        <X 120 0
          /wVteQ==
        >
        E 0 90 3b 60
        E 120 80 3b 00
        <X 120 0
          /wVmYWNl
        >
        E 0 90 3b 60
        E 210 80 3b 00
        <X 30 0
          /wUr
        >
        E 0 90 3c 60
        E 210 80 3c 00
        <X 30 0
          /wUr
        >
        E 0 90 3b 60
        E 210 80 3b 00
        <X 270 0
          /wUr
        >
        E 0 90 39 60
        e 480 80 74 00
        E 0 80 69 00
        E 0 80 39 00
        <X 480 0
          /wVTdHJhaWdodA==
        >
        E 0 90 41 60
        E 0 90 69 60
        E 240 80 41 00
        <X 120 0
          /wVvdXQ=
        >
        E 0 90 40 60
        E 240 80 40 00
        <X 120 0
          /wVvZg==
        >
        E 0 90 3c 60
        E 120 80 3c 00
        <X 120 0
          /wVuby0=
        >
        E 0 90 3e 60
        E 360 80 3e 00
        <X 120 0
          /wV3aGVyZQ==
        >
        E 0 90 40 60
        E 960 80 40 00
        E 1200 80 69 00
        <X 240 0
          /wVCdXIt
        >
        E 0 90 3f 60
        E 0 90 69 60
        E 240 80 3f 00
        <X 150 0
          /wVpZWQ=
        >
        E 0 90 3f 60
        E 240 80 3f 00
        <X 150 0
          /wVkZWVw
        >
        E 0 90 3f 60
        E 240 80 3f 00
        <X 180 0
          /wVpbi0=
        >
        E 0 90 3f 60
        E 240 80 3f 00
        <X 240 0
          /wVzaWRl
        >
        E 0 90 3f 60
        E 240 80 3f 00
        <X 240 0
          /wVteQ==
        >
        E 0 90 40 60
        E 240 80 40 00
        <X 240 0
          /wVwYXN0
        >
        E 0 90 3b 60
        E 600 80 3b 00
        E 120 80 69 00
        <X 480 0
          /wVTdHJhaWdodA==
        >
        E 0 90 40 60
        E 0 90 69 60
        E 240 80 40 00
        <X 120 0
          /wVvdXQ=
        >
        E 0 90 40 60
        E 240 80 40 00
        <X 120 0
          /wVvZg==
        >
        E 0 90 3c 60
        E 120 80 3c 00
        <X 120 0
          /wVuby0=
        >
        E 0 90 3e 60
        E 360 80 3e 00
        <X 120 0
          /wV3aGVyZQ==
        >
        E 0 90 40 60
        E 900 80 40 00
        E 1260 80 69 00
        <X 240 0
          /wVIb3At
        >
        E 0 90 3f 60
        E 0 90 69 60
        E 150 80 3f 00
        <X 90 0
          /wVpbmc=
        >
        E 0 90 3f 60
        E 150 80 3f 00
        <X 90 0
          /wV5b3UnbGw=
        >
        E 0 90 3f 60
        E 150 80 3f 00
        <X 90 0
          /wViZQ==
        >
        E 0 90 43 60
        E 150 80 43 00
        <X 30 0
          /wUr
        >
        E 0 90 44 60
        E 180 80 44 00
        <X 120 0
          /wV0aGU=
        >
        E 0 90 42 60
        E 360 80 42 00
        <X 120 0
          /wVsYXN0
        >
        E 0 90 41 60
        E 960 80 41 00
        E 240 80 69 00
        E 8640 90 69 60
        e 0 90 74 60
        <X 240 0
          /wVMb3Zl
        >
        E 0 90 39 60
        E 120 80 39 00
        <X 120 0
          /wV5b3Vy
        >
        E 0 90 37 60
        E 120 80 37 00
        <X 120 0
          /wV3YXJt
        >
        E 0 90 35 60
        E 210 80 35 00
        <X 30 0
          /wUr
        >
        E 0 90 34 60
        E 180 80 34 00
        <X 60 0
          /wVlbS0=
        >
        E 0 90 34 60
        E 360 80 34 00
        <X 120 0
          /wVicmFjZQ==
        >
        E 0 90 34 60
        e 720 80 74 00
        E 0 80 69 00
        E 0 80 34 00
        E 1440 90 69 60
        <X 240 0
          /wVIb2xk
        >
        E 0 90 3b 60
        E 150 80 3b 00
        <X 90 0
          /wVtZQ==
        >
        E 0 90 3b 60
        E 150 80 3b 00
        <X 90 0
          /wVjbG9zZQ==
        >
        E 0 90 3b 60
        E 240 80 3b 00
        <X 240 0
          /wVkb24ndA==
        >
        E 0 90 3b 60
        E 150 80 3b 00
        <X 90 0
          /wVsZXQ=
        >
        E 0 90 3b 60
        E 150 80 3b 00
        <X 90 0
          /wVtZQ==
        >
        E 0 90 3b 60
        E 120 80 3b 00
        <X 120 0
          /wVnbw==
        >
        E 0 90 3b 60
        E 210 80 3b 00
        <X 30 0
          /wUr
        >
        E 0 90 3c 60
        E 210 80 3c 00
        <X 30 0
          /wUr
        >
        E 0 90 3b 60
        E 210 80 3b 00
        <X 270 0
          /wUr
        >
        E 0 90 39 60
        E 480 80 69 00
        E 0 80 39 00
        E 480 90 69 60
        <X 240 0
          /wVOaXAt
        >
        E 0 90 39 60
        E 120 80 39 00
        <X 120 0
          /wVwbGU=
        >
        E 0 90 37 60
        E 120 80 37 00
        <X 120 0
          /wVwaW5r
        >
        E 0 90 35 60
        E 150 80 35 00
        <X 30 0
          /wUr
        >
        E 0 90 34 60
        E 180 80 34 00
        <X 120 0
          /wVhbmQ=
        >
        E 0 90 34 60
        E 330 80 34 00
        <X 150 0
          /wVjb2xk
        >
        E 0 90 34 60
        E 990 80 34 00
        E 210 80 69 00
        E 960 90 69 60
        <X 240 0
          /wVGaWxsZWQ=
        >
        E 0 90 3a 60
        E 120 80 3a 00
        <X 30 0
          /wUr
        >
        E 0 90 3b 60
        E 240 80 3b 00
        <X 90 0
          /wV1cA==
        >
        E 0 90 3b 60
        E 240 80 3b 00
        <X 240 0
          /wV3aXRo
        >
        E 0 90 3b 60
        E 150 80 3b 00
        <X 90 0
          /wVtb3RoLQ==
        >
        E 0 90 3b 60
        E 150 80 3b 00
        <X 90 0
          /wVlcidz
        >
        E 0 90 3b 60
        E 120 80 3b 00
        <X 120 0
          /wVtaWxr
        >
        E 0 90 3b 60
        E 210 80 3b 00
        <X 30 0
          /wUr
        >
        E 0 90 3c 60
        E 210 80 3c 00
        <X 30 0
          /wUr
        >
        E 0 90 3b 60
        E 180 80 3b 00
        <X 300 0
          /wUr
        >
        E 0 90 39 60
        E 480 80 69 00
        E 0 80 39 00
        <X 480 0
          /wVTdHJhaWdodA==
        >
        E 0 90 41 60
        E 0 90 69 60
        E 240 80 41 00
        <X 120 0
          /wVvdXQ=
        >
        E 0 90 40 60
        E 240 80 40 00
        <X 120 0
          /wVvZg==
        >
        E 0 90 3c 60
        E 120 80 3c 00
        <X 120 0
          /wVuby0=
        >
        E 0 90 3e 60
        E 360 80 3e 00
        <X 120 0
          /wV3aGVyZQ==
        >
        E 0 90 40 60
        E 960 80 40 00
        E 1200 80 69 00
        <X 240 0
          /wVCdXIt
        >
        E 0 90 3f 60
        E 0 90 69 60
        e 0 90 74 60
        E 240 80 3f 00
        <X 150 0
          /wVpZWQ=
        >
        E 0 90 3f 60
        E 240 80 3f 00
        <X 150 0
          /wVkZWVw
        >
        E 0 90 3f 60
        E 240 80 3f 00
        <X 180 0
          /wVpbi0=
        >
        E 0 90 3f 60
        E 240 80 3f 00
        <X 240 0
          /wVzaWRl
        >
        E 0 90 3f 60
        E 240 80 3f 00
        <X 240 0
          /wVteQ==
        >
        E 0 90 40 60
        E 240 80 40 00
        <X 240 0
          /wVwYXN0
        >
        E 0 90 3b 60
        E 600 80 3b 00
        e 120 80 74 00
        E 0 80 69 00
        <X 480 0
          /wVTdHJhaWdodA==
        >
        E 0 90 40 60
        E 0 90 69 60
        E 240 80 40 00
        <X 120 0
          /wVvdXQ=
        >
        E 0 90 40 60
        E 240 80 40 00
        <X 120 0
          /wVvZg==
        >
        E 0 90 3c 60
        E 120 80 3c 00
        <X 120 0
          /wVuby0=
        >
        E 0 90 3e 60
        E 360 80 3e 00
        <X 120 0
          /wV3aGVyZQ==
        >
        E 0 90 40 60
        E 900 80 40 00
        E 1260 80 69 00
        <X 240 0
          /wVIb3At
        >
        E 0 90 3f 60
        E 0 90 69 60
        E 150 80 3f 00
        <X 90 0
          /wVpbmc=
        >
        E 0 90 3f 60
        E 150 80 3f 00
        <X 90 0
          /wV5b3UnbGw=
        >
        E 0 90 3f 60
        E 150 80 3f 00
        <X 90 0
          /wViZQ==
        >
        E 0 90 43 60
        E 150 80 43 00
        <X 30 0
          /wUr
        >
        E 0 90 44 60
        E 180 80 44 00
        <X 120 0
          /wV0aGU=
        >
        E 0 90 42 60
        E 360 80 42 00
        <X 120 0
          /wVsYXN0
        >
        E 0 90 41 60
        E 960 80 41 00
        E 240 80 69 00
        E 24000 90 69 60
        <X 240 0
          /wVXaXRo
        >
        E 0 90 39 60
        E 120 80 39 00
        <X 120 0
          /wV0aGU=
        >
        E 0 90 37 60
        E 120 80 37 00
        <X 120 0
          /wVsaWdodHM=
        >
        E 0 90 35 60
        E 120 80 35 00
        <X 30 0
          /wUr
        >
        E 0 90 34 60
        E 120 80 34 00
        <X 210 0
          /wVkb3du
        >
        E 0 90 34 60
        E 330 80 34 00
        <X 150 0
          /wVsb3c=
        >
        E 0 90 34 60
        E 960 80 34 00
        E 240 80 69 00
        E 960 90 69 60
        <X 240 0
          /wVXcmFwcGVk
        >
        E 0 90 3b 60
        E 240 80 3b 00
        <X 240 0
          /wV1cA==
        >
        E 0 90 3b 60
        E 240 80 3b 00
        <X 240 0
          /wVsaWtl
        >
        E 0 90 3b 60
        E 330 80 3b 00
        <X 150 0
          /wVh
        >
        E 0 90 3b 60
        E 120 80 3b 00
        <X 120 0
          /wViYS0=
        >
        E 0 90 3b 60
        E 210 80 3b 00
        <X 30 0
          /wUr
        >
        E 0 90 3c 60
        E 120 80 3c 00
        <X 120 0
          /wVieQ==
        >
        E 0 90 3b 60
        E 240 80 3b 00
        <X 240 0
          /wUr
        >
        E 0 90 39 60
        E 600 80 39 00
        E 120 80 69 00
        E 240 90 69 60
        e 0 90 74 60
        <X 240 0
          /wVBbmQ=
        >
        E 0 90 39 60
        E 120 80 39 00
        <X 120 0
          /wV5b3Vy
        >
        E 0 90 37 60
        E 120 80 37 00
        <X 120 0
          /wVoYWly
        >
        E 0 90 35 60
        E 180 80 35 00
        <X 30 0
          /wUr
        >
        E 0 90 34 60
        E 150 80 34 00
        <X 120 0
          /wVoYW5ncw==
        >
        E 0 90 34 60
        E 300 80 34 00
        <X 180 0
          /wVsb25n
        >
        E 0 90 34 60
        E 840 80 34 00
        e 360 80 74 00
        E 0 80 69 00
        E 960 90 69 60
        <X 240 0
          /wVTdXIt
        >
        E 0 90 3b 60
        E 360 80 3b 00
        <X 120 0
          /wVyb3VuZC0=
        >
        E 0 90 3b 60
        E 330 80 3b 00
        <X 150 0
          /wVpbmc=
        >
        E 0 90 3b 60
        E 360 80 3b 00
        <X 120 0
          /wVteQ==
        >
        E 0 90 3b 60
        E 120 80 3b 00
        <X 120 0
          /wVmYWNl
        >
        E 0 90 3b 60
        E 210 80 3b 00
        <X 30 0
          /wUr
        >
        E 0 90 3c 60
        E 210 80 3c 00
        <X 30 0
          /wUr
        >
        E 0 90 3b 60
        E 210 80 3b 00
        <X 270 0
          /wUr
        >
        E 0 90 39 60
        E 480 80 69 00
        E 0 80 39 00
        <X 480 0
          /wVTdHJhaWdodA==
        >
        E 0 90 41 60
        E 0 90 69 60
        E 240 80 41 00
        <X 120 0
          /wVvdXQ=
        >
        E 0 90 40 60
        E 240 80 40 00
        <X 120 0
          /wVvZg==
        >
        E 0 90 3c 60
        E 120 80 3c 00
        <X 120 0
          /wVuby0=
        >
        E 0 90 3e 60
        E 360 80 3e 00
        <X 120 0
          /wV3aGVyZQ==
        >
        E 0 90 40 60
        E 960 80 40 00
        E 1200 80 69 00
        <X 240 0
          /wVCdXIt
        >
        E 0 90 3f 60
        E 0 90 69 60
        E 240 80 3f 00
        <X 150 0
          /wVpZWQ=
        >
        E 0 90 3f 60
        E 240 80 3f 00
        <X 150 0
          /wVkZWVw
        >
        E 0 90 3f 60
        E 240 80 3f 00
        <X 180 0
          /wVpbi0=
        >
        E 0 90 3f 60
        E 240 80 3f 00
        <X 240 0
          /wVzaWRl
        >
        E 0 90 3f 60
        E 240 80 3f 00
        <X 240 0
          /wVteQ==
        >
        E 0 90 40 60
        E 240 80 40 00
        <X 240 0
          /wVwYXN0
        >
        E 0 90 3b 60
        E 600 80 3b 00
        E 120 80 69 00
        <X 480 0
          /wVTdHJhaWdodA==
        >
        E 0 90 40 60
        E 0 90 69 60
        E 240 80 40 00
        <X 120 0
          /wVvdXQ=
        >
        E 0 90 40 60
        E 240 80 40 00
        <X 120 0
          /wVvZg==
        >
        E 0 90 3c 60
        E 120 80 3c 00
        <X 120 0
          /wVuby0=
        >
        E 0 90 3e 60
        E 360 80 3e 00
        <X 120 0
          /wV3aGVyZQ==
        >
        E 0 90 40 60
        E 900 80 40 00
        E 1260 80 69 00
        <X 240 0
          /wVIb3At
        >
        E 0 90 3f 60
        E 0 90 69 60
        E 150 80 3f 00
        <X 90 0
          /wVpbmc=
        >
        E 0 90 3f 60
        E 150 80 3f 00
        <X 90 0
          /wV5b3UnbGw=
        >
        E 0 90 3f 60
        E 150 80 3f 00
        <X 90 0
          /wViZQ==
        >
        E 0 90 43 60
        E 150 80 43 00
        <X 30 0
          /wUr
        >
        E 0 90 44 60
        E 180 80 44 00
        <X 120 0
          /wV0aGU=
        >
        E 0 90 42 60
        E 360 80 42 00
        <X 120 0
          /wVsYXN0
        >
        E 0 90 41 60
        E 960 80 41 00
        E 240 80 69 00
        E 30720 b0 7b 00
        GUID {D78D8959-2AD8-48C0-8F6C-4A6670952331}
        IGNTEMPO 0 120 4 4
        SRCCOLOR 26
        VELLANE 132 128 60
        COLORMAP "C:\Users\AJFOne23\AppData\Roaming\REAPER\Data\color_maps\rockband_vox-other.png"
        TEXTSTRINGFILE "C:\Program Files\REAPER\Data\Text_Strings\Text Events List.txt"
        CFGEDITVIEW 71296.06472 3.750273 0 12 0 0 0 0 0
        KEYSNAP 0 0 102034050607 0 Major
        TRACKSEL -252 0 0 ""
        EVTFILTER 0 -1 -1 -1 -1 0 1 0 0 -1 -1 -1 -1 0 -1 0 -1 -1
        CFGEDIT 1 1 0 1 1 1 1 1 1 1 1 0.25 55 60 1440 877 0 2 2 2 0 0 0 0 0 0.5 1 0 1 64
      >
    >
  >
  <TRACK {983C7D04-DAF6-462A-B5E6-64213F29FBA0}
    NAME HARM2
    PEAKCOL 24624127
    BEAT -1
    AUTOMODE 0
    VOLPAN 1.00497380427334 -0.096 -1 -1 1
    MUTESOLO 0 0 0
    IPHASE 0
    ISBUS 2 -1
    BUSCOMP 0 0
    SHOWINMIX 1 0.6667 0.5 1 0.5 0 0 0
    FREEMODE 0
    SEL 0
    REC 0 0 0 0 0 0 0
    TRACKHEIGHT 82 0
    INQ 0 0 0 0.5 100 0 0 100
    NCHAN 2
    FX 1
    TRACKID {983C7D04-DAF6-462A-B5E6-64213F29FBA0}
    PERF 0
    MIDIOUT -1
    <MIDINOTENAMES
      0 0 "Range Shift"
      0 1 "Lyric Shift"
      0 35 ----
      0 36 C1
      0 37 C#
      0 38 D
      0 39 Eb
      0 40 E
      0 41 F
      0 42 F#
      0 43 G
      0 44 G#
      0 45 A
      0 46 Bb
      0 47 B
      0 48 C2
      0 49 C#
      0 50 D
      0 51 Eb
      0 52 E
      0 53 F
      0 54 F#
      0 55 G
      0 56 G#
      0 57 A
      0 58 Bb
      0 59 B
      0 60 C3
      0 61 C#
      0 62 D
      0 63 Eb
      0 64 E
      0 65 F
      0 66 F#
      0 67 G
      0 68 G#
      0 69 A
      0 70 Bb
      0 71 B
      0 72 C4
      0 73 C#
      0 74 D
      0 75 Eb
      0 76 E
      0 77 F
      0 78 F#
      0 79 G
      0 80 G#
      0 81 A
      0 82 Bb
      0 83 B
      0 84 C5
      0 95 ----
      0 96 "Displayed Percussion"
      0 97 "Not Displayed Percussion"
      0 104 ----
      0 105 "Phrase Marker"
      0 115 ----
      0 116 OVERDRIVE
    >
    MAINSEND 1 0
    <FXCHAIN
      WNDRECT 87 413 724 464
      SHOW 0
      LASTSEL 1
      DOCKED 0
      BYPASS 0 0 0
      <JS "IX/MIDI_Tool II" ""
        0.000000 85.000000 127.000000 0.000000 0.000000 0.000000 100.000000 0.000000 0.000000 127.000000 0.000000 0.000000 1.000000 0.000000 0.000000 - - - - - - - - - - - - - - - - - - - - - - - - - - - - - - - - - - - - - - - - - - - - - - - - - 
      >
      FLOATPOS 0 0 0 0
      FXID {0D2127EF-90E6-4278-AB57-59BADA75D3A0}
      WAK 0
      BYPASS 0 0 0
      <VST "VSTi: ReaSynth (Cockos)" reasynth.vst.dylib 0 "" 1919251321
        eXNlcu9e7f4AAAAAAgAAAAEAAAAAAAAAAgAAAAAAAAA8AAAAAAAAAAAAAADvvq3eDfCt3qabxDsXt9E6AAAAAAAAAAAAAAAAAACAP+lniD0AAAAAAAAAPwAAgD8AAAAA
        AAAAPwAAgD8AAAAAAAA=
      >
      FLOATPOS 0 0 0 0
      FXID {9CF76FE8-51DE-4F46-8774-EF282D9874DF}
      WAK 0
    >
    <ITEM
      POSITION 0
      SNAPOFFS 0
      LENGTH 272.73484279241603
      LOOP 0
      ALLTAKES 0
      FADEIN 1 0 0 1 0 0
      FADEOUT 1 0 0 1 0 0
      MUTE 0
      SEL 0
      IGUID {85B4D2FA-0EE6-4979-8286-EAC89A15680D}
      IID 15
      NAME HARM2
      VOLPAN 1 0 1 -1
      SOFFS 0 0
      PLAYRATE 1 1 0 -1 0 0.0025
      CHANMODE 0
      GUID {67C8C31A-733D-46F5-9A6D-0FDF2143554E}
      <SOURCE MIDI
        HASDATA 1 480 QN
        POOLEDEVTS {B0B42451-50FE-4CFE-A1B2-3BC32B7CC0C0}
        <X 0 0
          /wNIQVJNMg==
        >
        E 103680 90 69 60
        <X 240 0
          /wVXaXRo
        >
        E 0 90 45 60
        E 120 80 45 00
        <X 120 0
          /wV0aGU=
        >
        E 0 90 43 60
        E 120 80 43 00
        <X 120 0
          /wVsaWdodHM=
        >
        E 0 90 41 60
        E 120 80 41 00
        <X 30 0
          /wUr
        >
        E 0 90 40 60
        E 120 80 40 00
        <X 210 0
          /wVkb3du
        >
        E 0 90 40 60
        E 330 80 40 00
        <X 150 0
          /wVsb3c=
        >
        E 0 90 40 60
        E 720 80 69 00
        E 0 80 40 00
        E 1440 90 69 60
        <X 240 0
          /wVXcmFwcGVk
        >
        E 0 90 47 60
        E 240 80 47 00
        <X 240 0
          /wV1cA==
        >
        E 0 90 47 60
        E 240 80 47 00
        <X 240 0
          /wVsaWtl
        >
        E 0 90 47 60
        E 330 80 47 00
        <X 150 0
          /wVh
        >
        E 0 90 47 60
        E 120 80 47 00
        <X 120 0
          /wViYS0=
        >
        E 0 90 47 60
        E 210 80 47 00
        <X 30 0
          /wUr
        >
        E 0 90 48 60
        E 120 80 48 00
        <X 120 0
          /wVieQ==
        >
        E 0 90 47 60
        E 240 80 47 00
        <X 240 0
          /wUr
        >
        E 0 90 45 60
        E 480 80 69 00
        E 0 80 45 00
        E 480 90 69 60
        <X 240 0
          /wVBbmQ=
        >
        E 0 90 45 60
        E 120 80 45 00
        <X 120 0
          /wV5b3Vy
        >
        E 0 90 43 60
        E 120 80 43 00
        <X 120 0
          /wVoYWly
        >
        E 0 90 41 60
        E 180 80 41 00
        <X 30 0
          /wUr
        >
        E 0 90 40 60
        E 150 80 40 00
        <X 120 0
          /wVoYW5ncw==
        >
        E 0 90 40 60
        E 300 80 40 00
        <X 180 0
          /wVsb25n
        >
        E 0 90 40 60
        E 840 80 40 00
        E 120 80 69 00
        E 1200 90 69 60
        <X 240 0
          /wVTdXIt
        >
        E 0 90 47 60
        E 360 80 47 00
        <X 120 0
          /wVyb3VuZC0=
        >
        E 0 90 47 60
        E 330 80 47 00
        <X 150 0
          /wVpbmc=
        >
        E 0 90 47 60
        E 360 80 47 00
        <X 120 0
          /wVteQ==
        >
        E 0 90 47 60
        E 120 80 47 00
        <X 120 0
          /wVmYWNl
        >
        E 0 90 47 60
        E 210 80 47 00
        <X 30 0
          /wUr
        >
        E 0 90 48 60
        E 210 80 48 00
        <X 30 0
          /wUr
        >
        E 0 90 47 60
        E 210 80 47 00
        <X 270 0
          /wUr
        >
        E 0 90 45 60
        E 480 80 69 00
        E 0 80 45 00
        E 480 90 69 60
        <X 2160 0
          /wVBaA==
        >
        E 0 90 3e 60
        E 180 80 3e 00
        <X 60 0
          /wUr
        >
        E 0 90 3c 60
        E 180 80 3c 00
        <X 60 0
          /wUr
        >
        E 0 90 40 60
        E 180 80 40 00
        <X 60 0
          /wUr
        >
        E 0 90 3f 60
        E 480 80 3f 00
        E 240 80 69 00
        E 4080 90 69 60
        <X 2160 0
          /wVBaA==
        >
        E 0 90 3e 60
        E 180 80 3e 00
        <X 60 0
          /wUr
        >
        E 0 90 3c 60
        E 180 80 3c 00
        <X 60 0
          /wUr
        >
        E 0 90 40 60
        E 180 80 40 00
        <X 60 0
          /wUr
        >
        E 0 90 3f 60
        E 480 80 3f 00
        E 240 80 69 00
        E 11760 90 69 60
        <X 240 0
          /wVMb3Zl
        >
        E 0 90 45 60
        E 120 80 45 00
        <X 120 0
          /wV5b3Vy
        >
        E 0 90 43 60
        E 120 80 43 00
        <X 120 0
          /wV3YXJt
        >
        E 0 90 41 60
        E 210 80 41 00
        <X 30 0
          /wUr
        >
        E 0 90 40 60
        E 180 80 40 00
        <X 60 0
          /wVlbS0=
        >
        E 0 90 40 60
        E 360 80 40 00
        <X 120 0
          /wVicmFjZQ==
        >
        E 0 90 40 60
        E 720 80 69 00
        E 0 80 40 00
        E 1440 90 69 60
        <X 240 0
          /wVIb2xk
        >
        E 0 90 47 60
        E 150 80 47 00
        <X 90 0
          /wVtZQ==
        >
        E 0 90 47 60
        E 150 80 47 00
        <X 90 0
          /wVjbG9zZQ==
        >
        E 0 90 47 60
        E 240 80 47 00
        <X 240 0
          /wVkb24ndA==
        >
        E 0 90 47 60
        E 150 80 47 00
        <X 90 0
          /wVsZXQ=
        >
        E 0 90 47 60
        E 150 80 47 00
        <X 90 0
          /wVtZQ==
        >
        E 0 90 47 60
        E 120 80 47 00
        <X 120 0
          /wVnbw==
        >
        E 0 90 47 60
        E 210 80 47 00
        <X 30 0
          /wUr
        >
        E 0 90 48 60
        E 210 80 48 00
        <X 30 0
          /wUr
        >
        E 0 90 47 60
        E 210 80 47 00
        <X 270 0
          /wUr
        >
        E 0 90 45 60
        E 480 80 69 00
        E 0 80 45 00
        E 480 90 69 60
        <X 240 0
          /wVOaXAt
        >
        E 0 90 45 60
        E 120 80 45 00
        <X 120 0
          /wVwbGU=
        >
        E 0 90 43 60
        E 120 80 43 00
        <X 120 0
          /wVwaW5r
        >
        E 0 90 41 60
        E 150 80 41 00
        <X 30 0
          /wUr
        >
        E 0 90 40 60
        E 180 80 40 00
        <X 120 0
          /wVhbmQ=
        >
        E 0 90 40 60
        E 330 80 40 00
        <X 150 0
          /wVjb2xk
        >
        E 0 90 40 60
        E 990 80 40 00
        E 210 80 69 00
        E 960 90 69 60
        <X 240 0
          /wVGaWxsZWQ=
        >
        E 0 90 46 60
        E 120 80 46 00
        <X 30 0
          /wUr
        >
        E 0 90 47 60
        E 240 80 47 00
        <X 90 0
          /wV1cA==
        >
        E 0 90 47 60
        E 240 80 47 00
        <X 240 0
          /wV3aXRo
        >
        E 0 90 47 60
        E 150 80 47 00
        <X 90 0
          /wVtb3RoLQ==
        >
        E 0 90 47 60
        E 150 80 47 00
        <X 90 0
          /wVlcidz
        >
        E 0 90 47 60
        E 120 80 47 00
        <X 120 0
          /wVtaWxr
        >
        E 0 90 47 60
        E 210 80 47 00
        <X 30 0
          /wUr
        >
        E 0 90 48 60
        E 210 80 48 00
        <X 30 0
          /wUr
        >
        E 0 90 47 60
        E 180 80 47 00
        <X 300 0
          /wUr
        >
        E 0 90 45 60
        E 480 80 69 00
        E 0 80 45 00
        E 480 90 69 60
        <X 2160 0
          /wVBaA==
        >
        E 0 90 3e 60
        E 180 80 3e 00
        <X 60 0
          /wUr
        >
        E 0 90 3c 60
        E 180 80 3c 00
        <X 60 0
          /wUr
        >
        E 0 90 40 60
        E 180 80 40 00
        <X 60 0
          /wUr
        >
        E 0 90 3f 60
        E 480 80 3f 00
        E 240 80 69 00
        E 4080 90 69 60
        <X 2160 0
          /wVBaA==
        >
        E 0 90 3e 60
        E 180 80 3e 00
        <X 60 0
          /wUr
        >
        E 0 90 3c 60
        E 180 80 3c 00
        <X 60 0
          /wUr
        >
        E 0 90 40 60
        E 180 80 40 00
        <X 60 0
          /wUr
        >
        E 0 90 3f 60
        E 480 80 3f 00
        E 240 80 69 00
        E 27120 90 69 60
        <X 240 0
          /wVXaXRo
        >
        E 0 90 45 60
        E 120 80 45 00
        <X 120 0
          /wV0aGU=
        >
        E 0 90 43 60
        E 120 80 43 00
        <X 120 0
          /wVsaWdodHM=
        >
        E 0 90 41 60
        E 120 80 41 00
        <X 30 0
          /wUr
        >
        E 0 90 40 60
        E 120 80 40 00
        <X 210 0
          /wVkb3du
        >
        E 0 90 40 60
        E 330 80 40 00
        <X 150 0
          /wVsb3c=
        >
        E 0 90 40 60
        E 960 80 40 00
        E 240 80 69 00
        E 960 90 69 60
        <X 240 0
          /wVXcmFwcGVk
        >
        E 0 90 47 60
        E 240 80 47 00
        <X 240 0
          /wV1cA==
        >
        E 0 90 47 60
        E 240 80 47 00
        <X 240 0
          /wVsaWtl
        >
        E 0 90 47 60
        E 330 80 47 00
        <X 150 0
          /wVh
        >
        E 0 90 47 60
        E 120 80 47 00
        <X 120 0
          /wViYS0=
        >
        E 0 90 47 60
        E 210 80 47 00
        <X 30 0
          /wUr
        >
        E 0 90 48 60
        E 120 80 48 00
        <X 120 0
          /wVieQ==
        >
        E 0 90 47 60
        E 240 80 47 00
        <X 240 0
          /wUr
        >
        E 0 90 45 60
        E 600 80 45 00
        E 120 80 69 00
        E 240 90 69 60
        <X 240 0
          /wVBbmQ=
        >
        E 0 90 45 60
        E 120 80 45 00
        <X 120 0
          /wV5b3Vy
        >
        E 0 90 43 60
        E 120 80 43 00
        <X 120 0
          /wVoYWly
        >
        E 0 90 41 60
        E 180 80 41 00
        <X 30 0
          /wUr
        >
        E 0 90 40 60
        E 150 80 40 00
        <X 120 0
          /wVoYW5ncw==
        >
        E 0 90 40 60
        E 300 80 40 00
        <X 180 0
          /wVsb25n
        >
        E 0 90 40 60
        E 840 80 40 00
        E 360 80 69 00
        E 960 90 69 60
        <X 240 0
          /wVTdXIt
        >
        E 0 90 47 60
        E 360 80 47 00
        <X 120 0
          /wVyb3VuZC0=
        >
        E 0 90 47 60
        E 330 80 47 00
        <X 150 0
          /wVpbmc=
        >
        E 0 90 47 60
        E 360 80 47 00
        <X 120 0
          /wVteQ==
        >
        E 0 90 47 60
        E 120 80 47 00
        <X 120 0
          /wVmYWNl
        >
        E 0 90 47 60
        E 210 80 47 00
        <X 30 0
          /wUr
        >
        E 0 90 48 60
        E 210 80 48 00
        <X 30 0
          /wUr
        >
        E 0 90 47 60
        E 210 80 47 00
        <X 270 0
          /wUr
        >
        E 0 90 45 60
        E 480 80 69 00
        E 0 80 45 00
        E 480 90 69 60
        <X 2160 0
          /wVBaA==
        >
        E 0 90 3e 60
        E 180 80 3e 00
        <X 60 0
          /wUr
        >
        E 0 90 3c 60
        E 180 80 3c 00
        <X 60 0
          /wUr
        >
        E 0 90 40 60
        E 180 80 40 00
        <X 60 0
          /wUr
        >
        E 0 90 3f 60
        E 480 80 3f 00
        E 240 80 69 00
        E 4080 90 69 60
        <X 2160 0
          /wVBaA==
        >
        E 0 90 3e 60
        E 180 80 3e 00
        <X 60 0
          /wUr
        >
        E 0 90 3c 60
        E 180 80 3c 00
        <X 60 0
          /wUr
        >
        E 0 90 40 60
        E 180 80 40 00
        <X 60 0
          /wUr
        >
        E 0 90 3f 60
        E 480 80 3f 00
        E 240 80 69 00
        E 33840 b0 7b 00
        GUID {E53B89F8-ECC8-4A25-86E2-BC4D240C9444}
        IGNTEMPO 0 120 4 4
        SRCCOLOR 27
        VELLANE 132 128 60
        COLORMAP "C:\Users\AJFOne23\AppData\Roaming\REAPER\Data\color_maps\rockband_vox-other.png"
        TEXTSTRINGFILE "C:\Program Files\REAPER\Data\Text_Strings\Text Events List.txt"
        CFGEDITVIEW -168132.735831 2.386115 2 12 0 0 0 0 0
        KEYSNAP 0 0 102034050607 0 Major
        TRACKSEL -252 0 0 ""
        EVTFILTER 0 -1 -1 -1 -1 0 1 0 0 -1 -1 -1 -1 0 -1 0 -1 -1
        CFGEDIT 1 1 0 1 1 1 1 1 1 1 1 0.0625 -8 -8 1374 736 1 2 1 2 0 0 0 0 0 0.5 1 0 1 64
      >
    >
  >
  <TRACK {4BCC1CF3-63A3-43C4-A155-D3593AD88A10}
    NAME EVENTS
    PEAKCOL 29393024
    BEAT -1
    AUTOMODE 0
    VOLPAN 1 0 -1 -1 1
    MUTESOLO 0 0 0
    IPHASE 0
    ISBUS 1 1
    BUSCOMP 0 0
    SHOWINMIX 1 0.6667 0.5 1 0.5 0 0 0
    FREEMODE 0
    SEL 0
    REC 0 0 0 0 0 0 0
    TRACKHEIGHT 0 0
    INQ 0 0 0 0.5 100 0 0 100
    NCHAN 2
    FX 1
    TRACKID {4BCC1CF3-63A3-43C4-A155-D3593AD88A10}
    PERF 0
    MIDIOUT -1
    MAINSEND 1 0
    <FXCHAIN
      SHOW 0
      LASTSEL 0
      DOCKED 0
    >
    <ITEM
      POSITION 0
      SNAPOFFS 0
      LENGTH 274.06033611035281
      LOOP 0
      ALLTAKES 0
      FADEIN 1 0 0 1 0 0
      FADEOUT 1 0 0 1 0 0
      MUTE 0
      SEL 0
      IGUID {86A06D27-867C-4398-9CE6-8F0526B3B594}
      IID 4
      NAME EVENTS
      VOLPAN 1 0 1 -1
      SOFFS 0 0
      PLAYRATE 1 1 0 -65536 0 0.0025
      CHANMODE 0
      GUID {584C8192-4FF3-4E29-8138-2E6BD568B61A}
      <SOURCE MIDI
        HASDATA 1 480 QN
        POOLEDEVTS {B29892CF-674E-4145-874B-4590AB276F2B}
        <X 0 0
          /wNFVkVOVFM=
        >
        <X 0 0
          /wFbY3Jvd2Rfbm9ybWFsXQ==
        >
        <X 0 0
          /wFbcHJjX2ludHJvXQ==
        >
        <X 3840 0
          /wFbbXVzaWNfc3RhcnRd
        >
        <X 14880 0
          /wFbcHJjX3ZlcnNlXzFhXQ==
        >
        <X 15360 0
          /wFbcHJjX3ZlcnNlXzFiXQ==
        >
        <X 23040 0
          /wFbcHJjX2JyaWRnZV9hXQ==
        >
        <X 7680 0
          /wFbcHJjX3ZlcnNlXzJhXQ==
        >
        <X 23040 0
          /wFbcHJjX3ZlcnNlXzJiXQ==
        >
        <X 15360 0
          /wFbcHJjX2Nob3J1c18xYV0=
        >
        <X 10080 0
          /wFbcHJjX2d0cl9zb2xvXQ==
        >
        <X 8160 0
          /wFbcHJjX3ZlcnNlXzNhXQ==
        >
        <X 15360 0
          /wFbcHJjX3ZlcnNlXzNiXQ==
        >
        <X 9600 0
          /wFbcHJjX3ZlcnNlXzNjXQ==
        >
        <X 15360 0
          /wFbcHJjX2Nob3J1c18yYV0=
        >
        <X 82080 0
          /wFbcHJjX291dHJvXQ==
        >
        <X 8640 0
          /wFbbXVzaWNfZW5kXQ==
        >
        <X 3840 0
          /wFbZW5kXQ==
        >
        E 1326 b0 7b 00
        GUID {40AD7956-A22A-434A-8513-4D3792B9DF69}
        IGNTEMPO 0 120 4 4
        SRCCOLOR 22
        VELLANE 132 100 100
        COLORMAP "C:\Users\AJFOne23\AppData\Roaming\REAPER\Data\color_maps\rockband_vox-other.png"
        TEXTSTRINGFILE "Text Events List.txt"
        CFGEDITVIEW -89568.103423 3.094852 0 48 0 0 0 0 0
        KEYSNAP 0 0 102034050607 0 Major
        TRACKSEL 0 0 0 ""
        EVTFILTER 0 -1 -1 -1 -1 0 1 0 0 -1 -1 -1 -1 0 -1 0 -1 -1
        CFGEDIT 1 1 0 0 0 1 1 1 1 1 1 1 44 63 1223 847 1 2 1 2 0 0 0 0 0 0.5 1 0 1 64
      >
    >
  >
  <TRACK {1529008F-97D2-43EB-8634-7C5A7418AD90}
    NAME VENUE
    PEAKCOL 16842496
    BEAT -1
    AUTOMODE 0
    VOLPAN 1 0 -1 -1 1
    MUTESOLO 0 0 0
    IPHASE 0
    ISBUS 0 0
    BUSCOMP 0 0
    SHOWINMIX 1 0.6667 0.5 1 0.5 0 0 0
    FREEMODE 0
    SEL 0
    REC 0 0 0 0 0 0 0
    TRACKHEIGHT 0 0
    INQ 0 0 0 0.5 100 0 0 100
    NCHAN 2
    FX 1
    TRACKID {1529008F-97D2-43EB-8634-7C5A7418AD90}
    PERF 0
    MIDIOUT -1
    <MIDINOTENAMES
      0 37 "Spotlight on Bass"
      0 38 "Spotlight on Drums"
      0 39 "Spotlight on Guitar"
      0 40 "Spotlight on Vocals"
      0 41 "Spotlight on Keys"
      0 85 "Bassist Sing Along"
      0 86 "Drummer Sing Along"
      0 87 "Guitarist Sing Along"
    >
    MAINSEND 1 0
    <FXCHAIN
      SHOW 0
      LASTSEL 0
      DOCKED 0
    >
    <ITEM
      POSITION 0
      SNAPOFFS 0
      LENGTH 274.06033611035281
      LOOP 0
      ALLTAKES 0
      FADEIN 1 0 0 1 0 0
      FADEOUT 1 0 0 1 0 0
      MUTE 0
      SEL 0
      IGUID {71027329-E0AB-447D-A192-4839733334E7}
      IID 5
      NAME VENUE
      VOLPAN 1 0 1 -1
      SOFFS 0 0
      PLAYRATE 1 1 0 -65536 0 0.0025
      CHANMODE 0
      GUID {44F0FFD1-5109-4A47-8BED-262AA04D3B23}
      <SOURCE MIDI
        HASDATA 1 480 QN
        POOLEDEVTS {3A03C391-E2ED-47CE-A403-96537B1B1EB6}
        <X 0 0
          /wNWRU5VRQ==
        >
        <X 0 0
          /wFbbGlnaHRpbmcgKCld
        >
        E 257646 b0 7b 00
        GUID {30097062-47C5-4B33-B665-170EF09D70D9}
        IGNTEMPO 0 120 4 4
        SRCCOLOR 23
        VELLANE 132 230 230
        COLORMAP "C:\Users\AJFOne23\AppData\Roaming\REAPER\Data\color_maps\rockband_vox-other.png"
        TEXTSTRINGFILE "Text Events List.txt"
        CFGEDITVIEW -141645.18443 2.8252 79 12 0 0 0 0 0
        KEYSNAP 0 0 102034050607 0 Major
        TRACKSEL -252 0 0 ""
        EVTFILTER 0 -1 -1 -1 -1 0 1 0 0 -1 -1 -1 -1 0 -1 0 -1 -1
        CFGEDIT 1 1 0 0 0 1 1 1 1 1 1 0.25 133 19 1300 803 1 0 1 2 0 0 0 0 0 0.5 1 0 1 64
      >
    >
  >
  <TRACK {7BC63EFC-0ABC-4D0D-8204-E9893AE9FFFA}
    NAME BEAT
    PEAKCOL 23514346
    BEAT -1
    AUTOMODE 0
    VOLPAN 1 0 -1 -1 1
    MUTESOLO 0 0 0
    IPHASE 0
    ISBUS 2 -1
    BUSCOMP 1 0
    SHOWINMIX 1 0.6667 0.5 1 0.5 0 0 0
    FREEMODE 0
    SEL 0
    REC 0 0 0 0 0 0 0
    TRACKHEIGHT 0 0
    INQ 0 0 0 0.5 100 0 0 100
    NCHAN 2
    FX 1
    TRACKID {7BC63EFC-0ABC-4D0D-8204-E9893AE9FFFA}
    PERF 0
    MIDIOUT -1
    <MIDINOTENAMES
      0 12 Downbeat
      0 13 "Up Beats"
    >
    MAINSEND 1 0
    <FXCHAIN
      SHOW 0
      LASTSEL 0
      DOCKED 0
    >
    <ITEM
      POSITION 0
      SNAPOFFS 0
      LENGTH 274.06033611035281
      LOOP 0
      ALLTAKES 0
      FADEIN 1 0 0 1 0 0
      FADEOUT 1 0 0 1 0 0
      MUTE 0
      SEL 0
      IGUID {9960CDFD-BF2E-4E67-97CD-4F13D0A3F2ED}
      IID 6
      NAME BEAT
      VOLPAN 1 0 1 -1
      SOFFS 0 0
      PLAYRATE 1 1 0 -65536 0 0.0025
      CHANMODE 0
      GUID {CEBFDCF1-B2BD-47E1-A085-C26E1C9E9ED2}
      <SOURCE MIDI
        HASDATA 1 480 QN
        POOLEDEVTS {50655717-845C-4D54-95F0-1B38AC41AF0E}
        <X 0 0
          /wNCRUFU
        >
        e 0 96 0c 64
        e 120 86 0c 00
        e 360 96 0d 64
        e 120 86 0d 00
        e 360 96 0d 64
        e 120 86 0d 00
        e 360 96 0d 64
        e 120 86 0d 00
        e 360 96 0c 64
        e 120 86 0c 00
        e 360 96 0d 64
        e 120 86 0d 00
        e 360 96 0d 64
        e 120 86 0d 00
        e 360 96 0d 64
        e 120 86 0d 00
        e 360 96 0c 64
        e 120 86 0c 00
        e 360 96 0d 64
        e 120 86 0d 00
        e 360 96 0d 64
        e 120 86 0d 00
        e 360 96 0c 64
        e 120 86 0c 00
        e 360 96 0d 64
        e 120 86 0d 00
        e 360 96 0d 64
        e 120 86 0d 00
        e 360 96 0c 64
        e 120 86 0c 00
        e 360 96 0d 64
        e 120 86 0d 00
        e 360 96 0d 64
        e 120 86 0d 00
        e 360 96 0c 64
        e 120 86 0c 00
        e 360 96 0d 64
        e 120 86 0d 00
        e 360 96 0d 64
        e 120 86 0d 00
        e 360 96 0c 64
        e 120 86 0c 00
        e 360 96 0d 64
        e 120 86 0d 00
        e 360 96 0d 64
        e 120 86 0d 00
        e 360 96 0c 64
        e 120 86 0c 00
        e 360 96 0d 64
        e 120 86 0d 00
        e 360 96 0d 64
        e 120 86 0d 00
        e 360 96 0c 64
        e 120 86 0c 00
        e 360 96 0d 64
        e 120 86 0d 00
        e 360 96 0d 64
        e 120 86 0d 00
        e 360 96 0c 64
        e 120 86 0c 00
        e 360 96 0d 64
        e 120 86 0d 00
        e 360 96 0d 64
        e 120 86 0d 00
        e 360 96 0c 64
        e 120 86 0c 00
        e 360 96 0d 64
        e 120 86 0d 00
        e 360 96 0d 64
        e 120 86 0d 00
        e 360 96 0c 64
        e 120 86 0c 00
        e 360 96 0d 64
        e 120 86 0d 00
        e 360 96 0d 64
        e 120 86 0d 00
        e 360 96 0c 64
        e 120 86 0c 00
        e 360 96 0d 64
        e 120 86 0d 00
        e 360 96 0d 64
        e 120 86 0d 00
        e 360 96 0c 64
        e 120 86 0c 00
        e 360 96 0d 64
        e 120 86 0d 00
        e 360 96 0d 64
        e 120 86 0d 00
        e 360 96 0c 64
        e 120 86 0c 00
        e 360 96 0d 64
        e 120 86 0d 00
        e 360 96 0d 64
        e 120 86 0d 00
        e 360 96 0c 64
        e 120 86 0c 00
        e 360 96 0d 64
        e 120 86 0d 00
        e 360 96 0d 64
        e 120 86 0d 00
        e 360 96 0c 64
        e 120 86 0c 00
        e 360 96 0d 64
        e 120 86 0d 00
        e 360 96 0d 64
        e 120 86 0d 00
        e 360 96 0c 64
        e 120 86 0c 00
        e 360 96 0d 64
        e 120 86 0d 00
        e 360 96 0d 64
        e 120 86 0d 00
        e 360 96 0c 64
        e 120 86 0c 00
        e 360 96 0d 64
        e 120 86 0d 00
        e 360 96 0d 64
        e 120 86 0d 00
        e 360 96 0c 64
        e 120 86 0c 00
        e 360 96 0d 64
        e 120 86 0d 00
        e 360 96 0d 64
        e 120 86 0d 00
        e 360 96 0c 64
        e 120 86 0c 00
        e 360 96 0d 64
        e 120 86 0d 00
        e 360 96 0d 64
        e 120 86 0d 00
        e 360 96 0c 64
        e 120 86 0c 00
        e 360 96 0d 64
        e 120 86 0d 00
        e 360 96 0d 64
        e 120 86 0d 00
        e 360 96 0c 64
        e 120 86 0c 00
        e 360 96 0d 64
        e 120 86 0d 00
        e 360 96 0d 64
        e 120 86 0d 00
        e 360 96 0c 64
        e 120 86 0c 00
        e 360 96 0d 64
        e 120 86 0d 00
        e 360 96 0d 64
        e 120 86 0d 00
        e 360 96 0c 64
        e 120 86 0c 00
        e 360 96 0d 64
        e 120 86 0d 00
        e 360 96 0d 64
        e 120 86 0d 00
        e 360 96 0c 64
        e 120 86 0c 00
        e 360 96 0d 64
        e 120 86 0d 00
        e 360 96 0d 64
        e 120 86 0d 00
        e 360 96 0c 64
        e 120 86 0c 00
        e 360 96 0d 64
        e 120 86 0d 00
        e 360 96 0d 64
        e 120 86 0d 00
        e 360 96 0c 64
        e 120 86 0c 00
        e 360 96 0d 64
        e 120 86 0d 00
        e 360 96 0d 64
        e 120 86 0d 00
        e 360 96 0c 64
        e 120 86 0c 00
        e 360 96 0d 64
        e 120 86 0d 00
        e 360 96 0d 64
        e 120 86 0d 00
        e 360 96 0c 64
        e 120 86 0c 00
        e 360 96 0d 64
        e 120 86 0d 00
        e 360 96 0d 64
        e 120 86 0d 00
        e 360 96 0c 64
        e 120 86 0c 00
        e 360 96 0d 64
        e 120 86 0d 00
        e 360 96 0d 64
        e 120 86 0d 00
        e 360 96 0c 64
        e 120 86 0c 00
        e 360 96 0d 64
        e 120 86 0d 00
        e 360 96 0d 64
        e 120 86 0d 00
        e 360 96 0c 64
        e 120 86 0c 00
        e 360 96 0d 64
        e 120 86 0d 00
        e 360 96 0d 64
        e 120 86 0d 00
        e 360 96 0c 64
        e 120 86 0c 00
        e 360 96 0d 64
        e 120 86 0d 00
        e 360 96 0d 64
        e 120 86 0d 00
        e 360 96 0c 64
        e 120 86 0c 00
        e 360 96 0d 64
        e 120 86 0d 00
        e 360 96 0d 64
        e 120 86 0d 00
        e 360 96 0c 64
        e 120 86 0c 00
        e 360 96 0d 64
        e 120 86 0d 00
        e 360 96 0d 64
        e 120 86 0d 00
        e 360 96 0c 64
        e 120 86 0c 00
        e 360 96 0d 64
        e 120 86 0d 00
        e 360 96 0d 64
        e 120 86 0d 00
        e 360 96 0c 64
        e 120 86 0c 00
        e 360 96 0d 64
        e 120 86 0d 00
        e 360 96 0d 64
        e 120 86 0d 00
        e 360 96 0c 64
        e 120 86 0c 00
        e 360 96 0d 64
        e 120 86 0d 00
        e 360 96 0d 64
        e 120 86 0d 00
        e 360 96 0c 64
        e 120 86 0c 00
        e 360 96 0d 64
        e 120 86 0d 00
        e 360 96 0d 64
        e 120 86 0d 00
        e 360 96 0c 64
        e 120 86 0c 00
        e 360 96 0d 64
        e 120 86 0d 00
        e 360 96 0d 64
        e 120 86 0d 00
        e 360 96 0c 64
        e 120 86 0c 00
        e 360 96 0d 64
        e 120 86 0d 00
        e 360 96 0d 64
        e 120 86 0d 00
        e 360 96 0c 64
        e 120 86 0c 00
        e 360 96 0d 64
        e 120 86 0d 00
        e 360 96 0d 64
        e 120 86 0d 00
        e 360 96 0c 64
        e 120 86 0c 00
        e 360 96 0d 64
        e 120 86 0d 00
        e 360 96 0d 64
        e 120 86 0d 00
        e 360 96 0c 64
        e 120 86 0c 00
        e 360 96 0d 64
        e 120 86 0d 00
        e 360 96 0d 64
        e 120 86 0d 00
        e 360 96 0c 64
        e 120 86 0c 00
        e 360 96 0d 64
        e 120 86 0d 00
        e 360 96 0d 64
        e 120 86 0d 00
        e 360 96 0c 64
        e 120 86 0c 00
        e 360 96 0d 64
        e 120 86 0d 00
        e 360 96 0d 64
        e 120 86 0d 00
        e 360 96 0c 64
        e 120 86 0c 00
        e 360 96 0d 64
        e 120 86 0d 00
        e 360 96 0d 64
        e 120 86 0d 00
        e 360 96 0c 64
        e 120 86 0c 00
        e 360 96 0d 64
        e 120 86 0d 00
        e 360 96 0d 64
        e 120 86 0d 00
        e 360 96 0c 64
        e 120 86 0c 00
        e 360 96 0d 64
        e 120 86 0d 00
        e 360 96 0d 64
        e 120 86 0d 00
        e 360 96 0c 64
        e 120 86 0c 00
        e 360 96 0d 64
        e 120 86 0d 00
        e 360 96 0d 64
        e 120 86 0d 00
        e 360 96 0c 64
        e 120 86 0c 00
        e 360 96 0d 64
        e 120 86 0d 00
        e 360 96 0d 64
        e 120 86 0d 00
        e 360 96 0c 64
        e 120 86 0c 00
        e 360 96 0d 64
        e 120 86 0d 00
        e 360 96 0d 64
        e 120 86 0d 00
        e 360 96 0d 64
        e 120 86 0d 00
        e 360 96 0c 64
        e 120 86 0c 00
        e 360 96 0d 64
        e 120 86 0d 00
        e 360 96 0d 64
        e 120 86 0d 00
        e 360 96 0d 64
        e 120 86 0d 00
        e 360 96 0c 64
        e 120 86 0c 00
        e 360 96 0d 64
        e 120 86 0d 00
        e 360 96 0d 64
        e 120 86 0d 00
        e 360 96 0d 64
        e 120 86 0d 00
        e 360 96 0c 64
        e 120 86 0c 00
        e 360 96 0d 64
        e 120 86 0d 00
        e 360 96 0d 64
        e 120 86 0d 00
        e 360 96 0d 64
        e 120 86 0d 00
        e 360 96 0c 64
        e 120 86 0c 00
        e 360 96 0d 64
        e 120 86 0d 00
        e 360 96 0d 64
        e 120 86 0d 00
        e 360 96 0d 64
        e 120 86 0d 00
        e 360 96 0c 64
        e 120 86 0c 00
        e 360 96 0d 64
        e 120 86 0d 00
        e 360 96 0d 64
        e 120 86 0d 00
        e 360 96 0d 64
        e 120 86 0d 00
        e 360 96 0c 64
        e 120 86 0c 00
        e 360 96 0d 64
        e 120 86 0d 00
        e 360 96 0d 64
        e 120 86 0d 00
        e 360 96 0d 64
        e 120 86 0d 00
        e 360 96 0c 64
        e 120 86 0c 00
        e 360 96 0d 64
        e 120 86 0d 00
        e 360 96 0d 64
        e 120 86 0d 00
        e 360 96 0d 64
        e 120 86 0d 00
        e 360 96 0c 64
        e 120 86 0c 00
        e 360 96 0d 64
        e 120 86 0d 00
        e 360 96 0d 64
        e 120 86 0d 00
        e 360 96 0d 64
        e 120 86 0d 00
        e 360 96 0c 64
        e 120 86 0c 00
        e 360 96 0d 64
        e 120 86 0d 00
        e 360 96 0d 64
        e 120 86 0d 00
        e 360 96 0d 64
        e 120 86 0d 00
        e 360 96 0c 64
        e 120 86 0c 00
        e 360 96 0d 64
        e 120 86 0d 00
        e 360 96 0d 64
        e 120 86 0d 00
        e 360 96 0d 64
        e 120 86 0d 00
        e 360 96 0c 64
        e 120 86 0c 00
        e 360 96 0d 64
        e 120 86 0d 00
        e 360 96 0d 64
        e 120 86 0d 00
        e 360 96 0d 64
        e 120 86 0d 00
        e 360 96 0c 64
        e 120 86 0c 00
        e 360 96 0d 64
        e 120 86 0d 00
        e 360 96 0d 64
        e 120 86 0d 00
        e 360 96 0d 64
        e 120 86 0d 00
        e 360 96 0c 64
        e 120 86 0c 00
        e 360 96 0d 64
        e 120 86 0d 00
        e 360 96 0d 64
        e 120 86 0d 00
        e 360 96 0d 64
        e 120 86 0d 00
        e 360 96 0c 64
        e 120 86 0c 00
        e 360 96 0d 64
        e 120 86 0d 00
        e 360 96 0d 64
        e 120 86 0d 00
        e 360 96 0d 64
        e 120 86 0d 00
        e 360 96 0c 64
        e 120 86 0c 00
        e 360 96 0d 64
        e 120 86 0d 00
        e 360 96 0d 64
        e 120 86 0d 00
        e 360 96 0d 64
        e 120 86 0d 00
        e 360 96 0c 64
        e 120 86 0c 00
        e 360 96 0d 64
        e 120 86 0d 00
        e 360 96 0d 64
        e 120 86 0d 00
        e 360 96 0d 64
        e 120 86 0d 00
        e 360 96 0c 64
        e 120 86 0c 00
        e 360 96 0d 64
        e 120 86 0d 00
        e 360 96 0d 64
        e 120 86 0d 00
        e 360 96 0d 64
        e 120 86 0d 00
        e 360 96 0c 64
        e 120 86 0c 00
        e 360 96 0d 64
        e 120 86 0d 00
        e 360 96 0d 64
        e 120 86 0d 00
        e 360 96 0d 64
        e 120 86 0d 00
        e 360 96 0c 64
        e 120 86 0c 00
        e 360 96 0d 64
        e 120 86 0d 00
        e 360 96 0d 64
        e 120 86 0d 00
        e 360 96 0d 64
        e 120 86 0d 00
        e 360 96 0c 64
        e 120 86 0c 00
        e 360 96 0d 64
        e 120 86 0d 00
        e 360 96 0d 64
        e 120 86 0d 00
        e 360 96 0d 64
        e 120 86 0d 00
        e 360 96 0c 64
        e 120 86 0c 00
        e 360 96 0d 64
        e 120 86 0d 00
        e 360 96 0d 64
        e 120 86 0d 00
        e 360 96 0d 64
        e 120 86 0d 00
        e 360 96 0c 64
        e 120 86 0c 00
        e 360 96 0d 64
        e 120 86 0d 00
        e 360 96 0d 64
        e 120 86 0d 00
        e 360 96 0d 64
        e 120 86 0d 00
        e 360 96 0c 64
        e 120 86 0c 00
        e 360 96 0d 64
        e 120 86 0d 00
        e 360 96 0d 64
        e 120 86 0d 00
        e 360 96 0d 64
        e 120 86 0d 00
        e 360 96 0c 64
        e 120 86 0c 00
        e 360 96 0d 64
        e 120 86 0d 00
        e 360 96 0d 64
        e 120 86 0d 00
        e 360 96 0d 64
        e 120 86 0d 00
        e 360 96 0c 64
        e 120 86 0c 00
        e 360 96 0d 64
        e 120 86 0d 00
        e 360 96 0d 64
        e 120 86 0d 00
        e 360 96 0d 64
        e 120 86 0d 00
        e 360 96 0c 64
        e 120 86 0c 00
        e 360 96 0d 64
        e 120 86 0d 00
        e 360 96 0d 64
        e 120 86 0d 00
        e 360 96 0d 64
        e 120 86 0d 00
        e 360 96 0c 64
        e 120 86 0c 00
        e 360 96 0d 64
        e 120 86 0d 00
        e 360 96 0d 64
        e 120 86 0d 00
        e 360 96 0d 64
        e 120 86 0d 00
        e 360 96 0c 64
        e 120 86 0c 00
        e 360 96 0d 64
        e 120 86 0d 00
        e 360 96 0d 64
        e 120 86 0d 00
        e 360 96 0d 64
        e 120 86 0d 00
        e 360 96 0c 64
        e 120 86 0c 00
        e 360 96 0d 64
        e 120 86 0d 00
        e 360 96 0d 64
        e 120 86 0d 00
        e 360 96 0d 64
        e 120 86 0d 00
        e 360 96 0c 64
        e 120 86 0c 00
        e 360 96 0d 64
        e 120 86 0d 00
        e 360 96 0d 64
        e 120 86 0d 00
        e 360 96 0d 64
        e 120 86 0d 00
        e 360 96 0c 64
        e 120 86 0c 00
        e 360 96 0d 64
        e 120 86 0d 00
        e 360 96 0d 64
        e 120 86 0d 00
        e 360 96 0d 64
        e 120 86 0d 00
        e 360 96 0c 64
        e 120 86 0c 00
        e 360 96 0d 64
        e 120 86 0d 00
        e 360 96 0d 64
        e 120 86 0d 00
        e 360 96 0d 64
        e 120 86 0d 00
        e 360 96 0c 64
        e 120 86 0c 00
        e 360 96 0d 64
        e 120 86 0d 00
        e 360 96 0d 64
        e 120 86 0d 00
        e 360 96 0d 64
        e 120 86 0d 00
        e 360 96 0c 64
        e 120 86 0c 00
        e 360 96 0d 64
        e 120 86 0d 00
        e 360 96 0d 64
        e 120 86 0d 00
        e 360 96 0d 64
        e 120 86 0d 00
        e 360 96 0c 64
        e 120 86 0c 00
        e 360 96 0d 64
        e 120 86 0d 00
        e 360 96 0d 64
        e 120 86 0d 00
        e 360 96 0d 64
        e 120 86 0d 00
        e 360 96 0c 64
        e 120 86 0c 00
        e 360 96 0d 64
        e 120 86 0d 00
        e 360 96 0d 64
        e 120 86 0d 00
        e 360 96 0d 64
        e 120 86 0d 00
        e 360 96 0c 64
        e 120 86 0c 00
        e 360 96 0d 64
        e 120 86 0d 00
        e 360 96 0d 64
        e 120 86 0d 00
        e 360 96 0d 64
        e 120 86 0d 00
        e 360 96 0c 64
        e 120 86 0c 00
        e 360 96 0d 64
        e 120 86 0d 00
        e 360 96 0d 64
        e 120 86 0d 00
        e 360 96 0d 64
        e 120 86 0d 00
        e 360 96 0c 64
        e 120 86 0c 00
        e 360 96 0d 64
        e 120 86 0d 00
        e 360 96 0d 64
        e 120 86 0d 00
        e 360 96 0d 64
        e 120 86 0d 00
        e 360 96 0c 64
        e 120 86 0c 00
        e 360 96 0d 64
        e 120 86 0d 00
        e 360 96 0d 64
        e 120 86 0d 00
        e 360 96 0d 64
        e 120 86 0d 00
        e 360 96 0c 64
        e 120 86 0c 00
        e 360 96 0d 64
        e 120 86 0d 00
        e 360 96 0d 64
        e 120 86 0d 00
        e 360 96 0d 64
        e 120 86 0d 00
        e 360 96 0c 64
        e 120 86 0c 00
        e 360 96 0d 64
        e 120 86 0d 00
        e 360 96 0d 64
        e 120 86 0d 00
        e 360 96 0d 64
        e 120 86 0d 00
        e 360 96 0c 64
        e 120 86 0c 00
        e 360 96 0d 64
        e 120 86 0d 00
        e 360 96 0d 64
        e 120 86 0d 00
        e 360 96 0d 64
        e 120 86 0d 00
        e 360 96 0c 64
        e 120 86 0c 00
        e 360 96 0d 64
        e 120 86 0d 00
        e 360 96 0d 64
        e 120 86 0d 00
        e 360 96 0d 64
        e 120 86 0d 00
        e 360 96 0c 64
        e 120 86 0c 00
        e 360 96 0d 64
        e 120 86 0d 00
        e 360 96 0d 64
        e 120 86 0d 00
        e 360 96 0d 64
        e 120 86 0d 00
        e 360 96 0c 64
        e 120 86 0c 00
        e 360 96 0d 64
        e 120 86 0d 00
        e 360 96 0d 64
        e 120 86 0d 00
        e 360 96 0d 64
        e 120 86 0d 00
        e 360 96 0c 64
        e 120 86 0c 00
        e 360 96 0d 64
        e 120 86 0d 00
        e 360 96 0d 64
        e 120 86 0d 00
        e 360 96 0d 64
        e 120 86 0d 00
        e 360 96 0c 64
        e 120 86 0c 00
        e 360 96 0d 64
        e 120 86 0d 00
        e 360 96 0d 64
        e 120 86 0d 00
        e 360 96 0d 64
        e 120 86 0d 00
        e 360 96 0c 64
        e 120 86 0c 00
        e 360 96 0d 64
        e 120 86 0d 00
        e 360 96 0d 64
        e 120 86 0d 00
        e 360 96 0d 64
        e 120 86 0d 00
        e 360 96 0c 64
        e 120 86 0c 00
        e 360 96 0d 64
        e 120 86 0d 00
        e 360 96 0d 64
        e 120 86 0d 00
        e 360 96 0c 64
        e 120 86 0c 00
        e 360 96 0d 64
        e 120 86 0d 00
        e 360 96 0d 64
        e 120 86 0d 00
        e 360 96 0c 64
        e 120 86 0c 00
        e 360 96 0d 64
        e 120 86 0d 00
        e 360 96 0d 64
        e 120 86 0d 00
        e 360 96 0c 64
        e 120 86 0c 00
        e 360 96 0d 64
        e 120 86 0d 00
        e 360 96 0d 64
        e 120 86 0d 00
        e 360 96 0c 64
        e 120 86 0c 00
        e 360 96 0d 64
        e 120 86 0d 00
        e 360 96 0d 64
        e 120 86 0d 00
        e 360 96 0c 64
        e 120 86 0c 00
        e 360 96 0d 64
        e 120 86 0d 00
        e 360 96 0d 64
        e 120 86 0d 00
        e 360 96 0c 64
        e 120 86 0c 00
        e 360 96 0d 64
        e 120 86 0d 00
        e 360 96 0d 64
        e 120 86 0d 00
        e 360 96 0c 64
        e 120 86 0c 00
        e 360 96 0d 64
        e 120 86 0d 00
        e 360 96 0d 64
        e 120 86 0d 00
        e 360 96 0c 64
        e 120 86 0c 00
        e 360 96 0d 64
        e 120 86 0d 00
        e 360 96 0d 64
        e 120 86 0d 00
        e 360 96 0c 64
        e 120 86 0c 00
        e 360 96 0d 64
        e 120 86 0d 00
        e 360 96 0d 64
        e 120 86 0d 00
        e 360 96 0c 64
        e 120 86 0c 00
        e 360 96 0d 64
        e 120 86 0d 00
        e 360 96 0d 64
        e 120 86 0d 00
        e 360 96 0c 64
        e 120 86 0c 00
        e 360 96 0d 64
        e 120 86 0d 00
        e 360 96 0d 64
        e 120 86 0d 00
        e 360 96 0c 64
        e 120 86 0c 00
        e 360 96 0d 64
        e 120 86 0d 00
        e 360 96 0d 64
        e 120 86 0d 00
        e 360 96 0c 64
        e 120 86 0c 00
        e 360 96 0d 64
        e 120 86 0d 00
        e 360 96 0d 64
        e 120 86 0d 00
        e 360 96 0c 64
        e 120 86 0c 00
        e 360 96 0d 64
        e 120 86 0d 00
        e 360 96 0d 64
        e 120 86 0d 00
        e 360 96 0c 64
        e 120 86 0c 00
        e 360 96 0d 64
        e 120 86 0d 00
        e 360 96 0d 64
        e 120 86 0d 00
        e 360 96 0c 64
        e 120 86 0c 00
        e 360 96 0d 64
        e 120 86 0d 00
        e 360 96 0d 64
        e 120 86 0d 00
        e 360 96 0d 64
        e 120 86 0d 00
        e 360 96 0c 64
        e 120 86 0c 00
        e 360 96 0d 64
        e 120 86 0d 00
        e 360 96 0d 64
        e 120 86 0d 00
        e 360 96 0d 64
        e 120 86 0d 00
        e 360 96 0c 64
        e 120 86 0c 00
        e 360 96 0d 64
        e 120 86 0d 00
        e 360 96 0d 64
        e 120 86 0d 00
        e 360 96 0d 64
        e 120 86 0d 00
        e 360 96 0c 64
        e 120 86 0c 00
        e 360 96 0d 64
        e 120 86 0d 00
        e 360 96 0d 64
        e 120 86 0d 00
        e 360 96 0d 64
        e 120 86 0d 00
        e 360 96 0c 64
        e 120 86 0c 00
        e 360 96 0d 64
        e 120 86 0d 00
        e 360 96 0d 64
        e 120 86 0d 00
        e 360 96 0d 64
        e 120 86 0d 00
        e 360 96 0c 64
        e 120 86 0c 00
        e 360 96 0d 64
        e 120 86 0d 00
        e 360 96 0d 64
        e 120 86 0d 00
        e 360 96 0d 64
        e 120 86 0d 00
        e 360 96 0c 64
        e 120 86 0c 00
        e 360 96 0d 64
        e 120 86 0d 00
        e 360 96 0d 64
        e 120 86 0d 00
        e 360 96 0d 64
        e 120 86 0d 00
        e 360 96 0c 64
        e 120 86 0c 00
        e 360 96 0d 64
        e 120 86 0d 00
        e 360 96 0d 64
        e 120 86 0d 00
        e 360 96 0d 64
        e 120 86 0d 00
        e 360 96 0c 64
        e 120 86 0c 00
        e 360 96 0d 64
        e 120 86 0d 00
        e 360 96 0d 64
        e 120 86 0d 00
        e 360 96 0d 64
        e 120 86 0d 00
        e 360 96 0c 64
        e 120 86 0c 00
        e 360 96 0d 64
        e 120 86 0d 00
        e 360 96 0d 64
        e 120 86 0d 00
        e 360 96 0d 64
        e 120 86 0d 00
        e 360 96 0c 64
        e 120 86 0c 00
        e 360 96 0d 64
        e 120 86 0d 00
        e 360 96 0d 64
        e 120 86 0d 00
        e 360 96 0d 64
        e 120 86 0d 00
        e 360 96 0c 64
        e 120 86 0c 00
        e 360 96 0d 64
        e 120 86 0d 00
        e 360 96 0d 64
        e 120 86 0d 00
        e 360 96 0d 64
        e 120 86 0d 00
        e 360 96 0c 64
        e 120 86 0c 00
        e 360 96 0d 64
        e 120 86 0d 00
        e 360 96 0d 64
        e 120 86 0d 00
        e 360 96 0d 64
        e 120 86 0d 00
        e 360 96 0c 64
        e 120 86 0c 00
        e 360 96 0d 64
        e 120 86 0d 00
        e 360 96 0d 64
        e 120 86 0d 00
        e 360 96 0d 64
        e 120 86 0d 00
        e 360 96 0c 64
        e 120 86 0c 00
        e 360 96 0d 64
        e 120 86 0d 00
        e 360 96 0d 64
        e 120 86 0d 00
        e 360 96 0d 64
        e 120 86 0d 00
        e 360 96 0c 64
        e 120 86 0c 00
        e 360 96 0d 64
        e 120 86 0d 00
        e 360 96 0d 64
        e 120 86 0d 00
        e 360 96 0d 64
        e 120 86 0d 00
        e 360 96 0c 64
        e 120 86 0c 00
        e 360 96 0d 64
        e 120 86 0d 00
        e 360 96 0d 64
        e 120 86 0d 00
        e 360 96 0d 64
        e 120 86 0d 00
        e 360 96 0c 64
        e 120 86 0c 00
        e 360 96 0d 64
        e 120 86 0d 00
        e 360 96 0d 64
        e 120 86 0d 00
        e 360 96 0d 64
        e 120 86 0d 00
        e 360 96 0c 64
        e 120 86 0c 00
        e 360 96 0d 64
        e 120 86 0d 00
        e 360 96 0d 64
        e 120 86 0d 00
        e 360 96 0d 64
        e 120 86 0d 00
        e 360 96 0c 64
        e 120 86 0c 00
        e 360 96 0d 64
        e 120 86 0d 00
        e 360 96 0d 64
        e 120 86 0d 00
        e 360 96 0d 64
        e 120 86 0d 00
        e 360 96 0c 64
        e 120 86 0c 00
        e 360 96 0d 64
        e 120 86 0d 00
        e 360 96 0d 64
        e 120 86 0d 00
        e 360 96 0d 64
        e 120 86 0d 00
        e 360 96 0c 64
        e 120 86 0c 00
        e 360 96 0d 64
        e 120 86 0d 00
        e 360 96 0d 64
        e 120 86 0d 00
        e 360 96 0d 64
        e 120 86 0d 00
        e 360 96 0c 64
        e 120 86 0c 00
        e 360 96 0d 64
        e 120 86 0d 00
        e 360 96 0d 64
        e 120 86 0d 00
        e 360 96 0d 64
        e 120 86 0d 00
        e 360 96 0c 64
        e 120 86 0c 00
        e 360 96 0d 64
        e 120 86 0d 00
        e 360 96 0d 64
        e 120 86 0d 00
        e 360 96 0d 64
        e 120 86 0d 00
        e 360 96 0c 64
        e 120 86 0c 00
        e 360 96 0d 64
        e 120 86 0d 00
        e 360 96 0d 64
        e 120 86 0d 00
        e 360 96 0d 64
        e 120 86 0d 00
        e 360 96 0c 64
        e 120 86 0c 00
        e 360 96 0d 64
        e 120 86 0d 00
        e 360 96 0d 64
        e 120 86 0d 00
        e 360 96 0d 64
        e 120 86 0d 00
        e 360 96 0c 64
        e 120 86 0c 00
        e 360 96 0d 64
        e 120 86 0d 00
        e 360 96 0d 64
        e 120 86 0d 00
        e 360 96 0d 64
        e 120 86 0d 00
        e 360 96 0c 64
        e 120 86 0c 00
        e 360 96 0d 64
        e 120 86 0d 00
        e 360 96 0d 64
        e 120 86 0d 00
        e 360 96 0d 64
        e 120 86 0d 00
        e 360 96 0c 64
        e 120 86 0c 00
        e 360 96 0d 64
        e 120 86 0d 00
        e 360 96 0d 64
        e 120 86 0d 00
        e 360 96 0d 64
        e 120 86 0d 00
        e 360 96 0c 64
        e 120 86 0c 00
        e 360 96 0d 64
        e 120 86 0d 00
        e 360 96 0d 64
        e 120 86 0d 00
        e 360 96 0d 64
        e 120 86 0d 00
        e 360 96 0c 64
        e 120 86 0c 00
        e 360 96 0d 64
        e 120 86 0d 00
        e 360 96 0d 64
        e 120 86 0d 00
        e 360 96 0d 64
        e 120 86 0d 00
        e 360 96 0c 64
        e 120 86 0c 00
        e 360 96 0d 64
        e 120 86 0d 00
        e 360 96 0d 64
        e 120 86 0d 00
        e 360 96 0d 64
        e 120 86 0d 00
        E 1686 b0 7b 00
        GUID {8CB930E8-B6A0-4CAD-825A-9F47FB66C1D0}
        IGNTEMPO 0 120 4 4
        SRCCOLOR 24
        VELLANE 132 100 100
        COLORMAP "C:\Users\AJFOne23\AppData\Roaming\REAPER\Data\color_maps\rockband_vox-other.png"
        TEXTSTRINGFILE "Text Events List.txt"
        CFGEDITVIEW -3397.476615 68.662724 0 48 0 0 0 0 0
        KEYSNAP 0 0 102034050607 0 Major
        TRACKSEL 0 0 0 ""
        EVTFILTER 0 -1 -1 -1 -1 0 1 0 0 -1 -1 -1 -1 0 -1 0 -1 -1
        CFGEDIT 1 1 0 0 0 1 1 1 1 1 1 1 44 63 1223 847 1 2 1 2 0 0 0 0 0 0.5 1 0 1 64
      >
    >
  >
>
