<REAPER_PROJECT 0.1 "5.27" 1478319856
  RIPPLE 0
  GROUPOVERRIDE 0 0 0
  AUTOXFADE 1
  ENVATTACH 1
  MIXERUIFLAGS 11 48
  PEAKGAIN 1
  FEEDBACK 0
  PANLAW 1
  PROJOFFS 0 0
  MAXPROJLEN 0 600
  GRID 1151 8 1 8 1 0 0
  TIMEMODE 1 0 -1 24 2
  CURSOR 52.761311548663
  ZOOM 4.71605493124785 0 0
  VZOOMEX 0
  USE_REC_CFG 0
  RECMODE 1
  SMPTESYNC 0 30 100 40 1000 300 0 0 0
  LOOP 0
  LOOPGRAN 0 4
  RECORD_PATH "" ""
  <RECORD_CFG
    ZXZhdxgA
  >
  <APPLYFX_CFG
  >
  RENDER_FILE "C:\Users\AJFOne23\Downloads\RB3\Metal\Mastodon\2004 Leviathan\I Am Ahab\I Am Ahab-FINAL.wav"
  RENDER_FMT 0 2 44100
  RENDER_1X 0
  RENDER_RANGE 1 0 0 18 1000
  RENDER_RESAMPLE 3 0 1
  RENDER_ADDTOPROJ 0
  RENDER_STEMS 0
  RENDER_DITHER 0
  TIMELOCKMODE 0
  TEMPOENVLOCKMODE 1
  ITEMMIX 0
  DEFPITCHMODE 0
  TAKELANE 1
  SAMPLERATE 44100 0 0
  <RENDER_CFG
    ZXZhdxAA
  >
  LOCK 1
  <METRONOME 6 2
    VOL 0.752735 0.723913
    FREQ 800 1600 0
    BEATLEN 4
    SAMPLES "" ""
    PATTERN 2863311530 2863311529
  >
  GLOBAL_AUTO -1
  TEMPO 120 4 4
  PLAYRATE 1 1 0.25 4
  SELECTION 0 0
  SELECTION2 0 0
  MASTERAUTOMODE 0
  MASTERTRACKHEIGHT 0
  MASTERPEAKCOL 16576
  MASTERMUTESOLO 0
  MASTERTRACKVIEW 1 0.6667 0.5 0.5 0 0 0
  MASTERHWOUT 0 0 1 0 0 0 0 -1
  MASTER_NCH 2 2
  MASTER_VOLUME 1 0 -1 -1 1
  MASTER_FX 1
  MASTER_SEL 0
  <MASTERFXLIST
    SHOW 0
    LASTSEL 0
    DOCKED 0
    BYPASS 0 0 0
    <VST "VST: W1 Limiter (George Yohng)" "George Yohng's W1 Limiter.dll" 0 "" ""
      THdGNO5e7f4CAAAAAQAAAAAAAAACAAAAAAAAAAIAAAABAAAAAAAAAAIAAAAAAAAATAAAAAEAAAAAABAADAAAgXRocmVzaAAA/tR4PwwAAIFjZWlsaW5nAP7UeD8MAACB
      cmVsZWFzZQAwQB8/FAAAgWFkYXB0UmVsZWFzZQAAAAAAAAAAAAAAgAAAEAAAAA==
    >
    FLOATPOS 24 24 481 152
    FXID {69D45D23-FE06-4141-B0BB-1A6D9443AFA8}
    WAK 0
  >
  <MASTERPLAYSPEEDENV
    ACT 0
    VIS 0 1 1
    LANEHEIGHT 0 0
    ARM 0
    DEFSHAPE 0 -1 -1
  >
  <TEMPOENVEX
    ACT 1
    VIS 1 0 1
    LANEHEIGHT 0 0
    ARM 0
    DEFSHAPE 1 -1 -1
    PT 0.000000000000 142.0000000000 1 262147 0 1
    PT 3.802816901408 140.0000000000 1
    PT 4.659959758551 137.0000000000 1
    PT 5.754850269500 140.0000000000 1
    PT 6.397707412357 138.0000000000 1
    PT 7.267272629749 148.0000000000 1
    PT 7.368623981100 144.0000000000 1
    PT 8.201957314433 135.0000000000 1
    PT 8.535290647767 140.0000000000 1
    PT 8.963862076338 122.0000000000 1
    PT 9.209763715682 140.0000000000 1
    PT 10.281192287111 130.0000000000 1
    PT 10.511961517880 154.0000000000 1
    PT 10.901571907491 140.0000000000 1
    PT 11.115857621776 144.0000000000 1
    PT 11.532524288443 136.0000000000 1
    PT 11.753112523737 144.0000000000 1
    PT 12.065612523737 140.0000000000 1
    PT 12.387041095166 137.0000000000 1
    PT 13.481931606115 141.0000000000 1
    PT 14.758527350795 146.0000000000 1
    PT 15.169486254905 138.0000000000 1
    PT 15.386877559253 139.0000000000 1
    PT 16.250186911771 136.0000000000 1
    PT 16.911951617653 141.0000000000 1
    PT 20.528972894249 139.0000000000 1
    PT 21.176454908637 140.0000000000 1
    PT 21.819312051495 138.5000000000 1
    PT 22.685738044274 142.0000000000 1
    PT 23.108273255542 138.5000000000 1
    PT 23.974699248322 140.0000000000 1
    PT 25.260413534036 135.0000000000 1
    PT 25.482635756258 133.5000000000 1
    PT 25.932073958505 136.0000000000 1
    PT 26.373250429094 144.0000000000 1
    PT 26.789917095760 140.0000000000 1
    PT 27.004202810046 134.0000000000 1
    PT 27.228083407061 146.0000000000 1
    PT 27.639042311170 144.0000000000 1
    PT 27.951542311170 147.0000000000 1
    PT 28.257664760150 134.0000000000 1
    PT 28.929306551195 140.0000000000 1
    PT 29.143592265481 144.0000000000 1
    PT 29.560258932147 134.0000000000 1
    PT 29.784139529162 142.0000000000 1
    PT 30.629209951697 138.0000000000 1
    PT 30.846601256045 127.0000000000 1
    PT 31.082821728486 146.0000000000 1
    PT 31.699260084650 133.0000000000 1
    PT 32.150387904199 125.0000000000 1
    PT 32.390387904199 147.0000000000 1
    PT 32.798551169505 142.0000000000 1
    PT 33.009818775139 137.0000000000 1
    PT 33.447774979519 126.0000000000 1
    PT 33.685870217614 145.0000000000 1
    PT 34.306559872786 142.0000000000 1
    PT 34.729095084054 138.0000000000 1
    PT 35.598660301445 144.0000000000 1
    PT 36.015326968112 139.5000000000 1
    PT 36.875542021876 141.0000000000 1
    PT 37.301073936769 137.5000000000 1
    PT 38.173801209496 141.0000000000 1
    PT 38.599333124390 143.0000000000 1
    PT 39.858074383131 133.0000000000 1
    PT 40.083638292906 146.0000000000 1
    PT 40.494597197015 140.0000000000 1
    PT 41.137454339873 134.0000000000 1
    PT 41.361334936887 150.0000000000 1
    PT 41.761334936887 148.0000000000 1
    PT 42.369443044996 136.0000000000 1
    PT 42.590031280290 142.0000000000 1
    PT 43.012566491557 143.5000000000 1
    PT 43.639744191906 135.0000000000 1
    PT 43.861966414128 148.0000000000 1
    PT 44.267371819533 144.0000000000 1
    PT 44.892371819533 129.0000000000 1
    PT 45.124929959068 147.0000000000 1
    PT 45.533093224374 139.0000000000 1
    PT 46.180575238763 134.0000000000 1
    PT 47.076097626823 141.0000000000 1
    PT 47.501629541716 127.0000000000 1
    PT 47.737850014157 147.0000000000 1
    PT 48.758258177422 140.0000000000 1
    PT 48.972543891708 145.0000000000 1
    PT 49.386336995156 148.0000000000 1
    PT 49.994445103264 138.0000000000 1
    PT 50.211836407612 142.0000000000 1
    PT 50.634371618880 150.0000000000 1
    PT 50.834371618880 146.0000000000 1
    PT 51.245330522990 134.0000000000 1
    PT 51.469211120004 142.0000000000 1
    PT 51.891746331272 138.0000000000 1
    PT 52.761311548663 146.0000000000 1
    PT 53.172270452773 143.0000000000 1
    PT 53.801641082144 135.0000000000 1
    PT 54.023863304366 142.0000000000 1
    PT 54.446398515633 144.0000000000 1
    PT 55.071398515633 134.0000000000 1
    PT 55.295279112648 148.0000000000 1
    PT 55.903387220756 144.0000000000 1
    PT 56.320053887423 140.0000000000 1
    PT 57.284339601709 155.0000000000 1
    PT 57.574662182354 140.0000000000 1
    PT 58.217519325211 147.0000000000 1
    PT 58.625682590517 142.0000000000 1
    PT 58.836950196151 140.0000000000 1
    PT 59.479807339008 143.0000000000 1
    PT 59.689597548798 139.0000000000 1
    PT 60.121252225057 134.0000000000 1
    PT 60.345132822072 139.0000000000 1
    PT 60.776787498331 144.0000000000 1
    PT 61.401787498331 138.0000000000 1
    PT 61.619178802679 139.5000000000 1
    PT 62.049286329561 152.0000000000 1
    PT 62.444023171666 142.0000000000 1
    PT 62.655290777300 133.0000000000 1
    PT 62.880854687074 146.0000000000 1
    PT 63.291813591184 153.0000000000 1
    PT 63.683970453929 148.0000000000 1
    PT 63.886673156632 143.0000000000 1
    PT 64.516043786002 151.0000000000 1
    PT 64.913394779380 140.0000000000 1
    PT 65.127680493666 122.0000000000 1
    PT 65.373582133010 146.0000000000 1
    PT 66.195499941229 140.0000000000 1
    PT 66.409785655515 135.0000000000 1
    PT 66.632007877737 133.0000000000 1
    PT 66.744789832624 143.0000000000 1
    PT 67.059475147309 148.0000000000 1
    PT 67.464880552715 144.0000000000 1
    PT 67.673213886048 132.0000000000 1
    PT 67.900486613321 148.0000000000 1
    PT 68.305892018726 155.0000000000 1
    PT 68.692988792920 144.0000000000 1
    PT 70.151322126253 133.0000000000 1
    PT 70.376886036028 135.5000000000 1
    PT 70.819690464072 143.5000000000 1
    PT 71.446868164420 140.0000000000 1
    PT 71.661153878706 142.0000000000 1
    PT 72.294956695607 140.0000000000 1
    PT 73.044956695607 142.0000000000 1
    PT 74.629463737861 148.5000000000 1
    PT 74.831483939881 141.0000000000 1
    PT 75.257015854775 137.0000000000 1
    PT 75.475993956964 139.5000000000 1
    PT 75.906101483846 146.5000000000 1
    PT 76.315657797839 142.0000000000 1
    PT 78.639601459811 137.0000000000 1
    PT 79.077557664191 141.0000000000 1
    PT 79.928621493978 143.0000000000 1
    PT 80.977572542929 145.0000000000 1
    PT 81.598262198101 128.0000000000 1
    PT 81.832637198101 146.0000000000 1
    PT 82.449075554266 139.5000000000 1
    PT 82.879183081148 142.0000000000 1
    PT 84.780591531852 140.0000000000 1
    PT 84.994877246138 138.0000000000 1
    PT 85.429659854833 134.0000000000 1
    PT 85.653540451848 144.0000000000 1
    PT 86.070207118515 147.0000000000 1
    PT 86.478370383821 138.0000000000 1
    PT 86.695761688169 134.0000000000 1
    PT 86.919642285184 147.5000000000 1
    PT 87.529811776709 138.0000000000 1
    PT 87.964594385405 144.0000000000 1
    PT 88.797927718738 141.0000000000 1
    PT 89.223459633632 145.0000000000 1
    PT 90.051045840528 140.0000000000 1
    PT 90.479617269100 124.0000000000 1
    PT 90.721552752971 154.0000000000 1
    PT 91.111163142581 140.0000000000 1
    PT 91.754020285438 134.0000000000 1
    PT 91.977900882453 154.0000000000 1
    PT 92.367511272063 135.0000000000 1
    PT 92.589733494286 150.0000000000 1
    PT 92.989733494286 133.0000000000 1
    PT 93.215297404060 148.0000000000 1
    PT 93.620702809466 145.0000000000 1
    PT 93.827599361190 142.0000000000 1
    PT 94.250134572457 138.0000000000 1
    PT 94.467525876805 146.0000000000 1
    PT 94.673005328860 147.0000000000 1
    PT 95.489331859472 135.0000000000 1
    PT 95.711554081694 153.0000000000 1
    PT 96.103710944439 142.0000000000 1
    PT 96.314978550073 145.0000000000 1
    PT 96.728771653522 134.0000000000 1
    PT 96.952652250536 153.0000000000 1
    PT 97.344809113282 146.0000000000 1
    PT 97.550288565336 138.5000000000 1
    PT 97.983501561726 131.5000000000 1
    PT 98.667912208114 145.0000000000 1
    PT 99.081705311562 140.0000000000 1
    PT 99.295991025848 142.0000000000 1
    PT 100.563596659651 134.0000000000 1
    PT 100.787477256666 146.0000000000 1
    PT 101.198436160775 147.0000000000 1
    PT 101.810681058735 144.0000000000 1
    PT 102.435681058735 152.0000000000 1
    PT 103.027786321892 127.0000000000 1
    PT 103.264006794333 142.0000000000 1
    PT 103.686542005601 148.0000000000 1
    PT 104.091947411006 137.0000000000 1
    PT 104.529903615386 152.0000000000 1
    PT 104.924640457491 148.5000000000 1
    PT 105.530701063552 138.0000000000 1
    PT 106.182874976595 136.0000000000 1
    PT 106.844639682478 139.5000000000 1
    PT 107.489800972800 141.0000000000 1
    PT 107.702566930247 140.0000000000 1
    PT 108.131138358819 136.0000000000 1
    PT 108.792903064701 140.0000000000 1
    PT 109.650045921844 142.0000000000 1
    PT 110.072581133111 144.0000000000 1
    PT 110.697581133111 130.0000000000 1
    PT 110.928350363881 148.0000000000 1
    PT 111.333755769286 142.0000000000 1
    PT 112.601361403089 144.0000000000 1
    PT 113.226361403089 136.0000000000 1
    PT 113.446949638383 144.0000000000 1
    PT 113.863616305050 155.0000000000 1
    PT 114.250713079243 132.0000000000 1
    PT 114.705258533789 148.0000000000 1
    PT 115.516069344599 140.0000000000 1
    PT 116.373212201742 146.0000000000 1
    PT 116.989650557907 138.0000000000 1
    PT 118.293998383994 144.0000000000 1
    PT 119.127331717327 138.0000000000 1
    PT 119.562114326023 135.5000000000 1
    PT 120.447723182111 136.5000000000 1
    PT 120.887283621672 135.5000000000 1
    PT 124.429719046026 137.0000000000 1
    PT 124.867675250405 136.0000000000 1
    PT 125.750028191582 137.5000000000 1
    PT 127.713664555218 144.0000000000 1
    PT 127.921997888552 140.0000000000 1
    PT 128.779140745694 134.0000000000 1
    PT 129.226901939724 132.0000000000 1
    PT 129.681447394270 138.0000000000 1
    PT 130.768403916009 135.0000000000 1
    PT 131.435070582676 132.0000000000 1
    PT 132.344161491766 135.0000000000 1
    PT 134.344161491766 134.0000000000 1
    PT 135.015803282811 135.0000000000 1
    PT 135.460247727256 133.5000000000 1
    PT 136.134405030626 138.0000000000 1
    PT 137.221361552366 137.0000000000 1
    PT 137.659317756745 135.5000000000 1
    PT 138.544926612834 137.0000000000 1
    PT 139.420839021593 144.0000000000 1
    PT 139.629172354926 142.0000000000 1
    PT 140.685510383095 136.0000000000 1
    PT 140.906098618389 140.0000000000 1
    PT 142.191812904104 148.0000000000 1
    PT 143.205326417617 140.0000000000 1
    PT 143.848183560474 144.0000000000 1
    PT 144.473183560474 138.0000000000 1
    PT 144.690574864822 142.0000000000 1
    PT 145.113110076090 151.0000000000 1
    PT 145.510461069467 144.0000000000 1
    PT 145.718794402800 135.0000000000 1
    PT 145.941016625023 146.0000000000 1
    PT 146.351975529132 135.0000000000 1
    PT 147.240864418021 145.0000000000 1
    PT 147.654657521469 152.0000000000 1
    PT 148.246762784627 142.0000000000 1
    PT 148.880565601529 145.0000000000 1
    PT 149.501255256701 132.0000000000 1
    PT 149.842164347610 126.0000000000 1
    PT 150.556450061896 130.0000000000 1
    PT 150.902603908050 127.0000000000 1
    PT 151.611265325373 126.0000000000 1
    PT 153.039836753944 148.0000000000 1
    PT 153.445242159349 142.0000000000 1
    PT 154.290312581885 148.0000000000 1
    PT 154.898420689993 122.0000000000 1
    PT 155.144322329337 143.0000000000 1
    PT 155.563902748917 149.0000000000 1
    PT 155.966587312676 137.0000000000 1
    PT 156.185565414866 135.0000000000 1
    PT 156.852232081532 138.5000000000 1
    PT 157.718658074312 141.0000000000 1
    PT 158.144189989206 144.0000000000 1
    PT 158.560856655872 140.0000000000 1
    PT 159.417999513015 144.0000000000 1
    PT 161.292999513015 145.0000000000 1
    PT 162.120585719912 144.0000000000 1
    PT 162.537252386578 141.0000000000 1
    PT 163.601082173812 142.0000000000 1
    PT 164.023617385080 143.5000000000 1
    PT 164.650795085429 140.0000000000 1
    PT 165.722223656857 139.0000000000 1
    PT 166.369705671246 143.0000000000 1
    PT 166.579495881036 145.0000000000 1
    PT 166.993288984484 134.0000000000 1
  >
  <PROJBAY
  >
  <TRACK {4D889F49-FE1F-4D1D-9FB8-BFD5BA06901A}
    NAME "SONG AUDIO"
    PEAKCOL 16576
    BEAT -1
    AUTOMODE 0
    VOLPAN 0.54793648037502 0 -1 -1 1
    MUTESOLO 0 0 0
    IPHASE 0
    ISBUS 0 0
    BUSCOMP 0 0
    SHOWINMIX 1 0.6667 0.5 1 0.5 0 0 0
    FREEMODE 0
    SEL 0
    REC 0 0 0 0 0 0 0
    TRACKHEIGHT 0 0
    INQ 0 0 0 0.5 100 0 0 100
    NCHAN 2
    FX 1
    TRACKID {4D889F49-FE1F-4D1D-9FB8-BFD5BA06901A}
    PERF 0
    MIDIOUT -1
    MAINSEND 1 0
    <FXCHAIN
      SHOW 0
      LASTSEL 0
      DOCKED 0
      BYPASS 0 0 0
      <VST "VST: W1 Limiter (George Yohng)" "George Yohng's W1 Limiter.dll" 0 "" ""
        THdGNO5e7f4CAAAAAQAAAAAAAAACAAAAAAAAAAIAAAABAAAAAAAAAAIAAAAAAAAATAAAAAEAAAAAABAADAAAgXRocmVzaAAA/tR4PwwAAIFjZWlsaW5nAP7UeD8MAACB
        cmVsZWFzZQAwQB8/FAAAgWFkYXB0UmVsZWFzZQAAAAAAAAAAAAAAgAAAEAAAAA==
      >
      FLOATPOS 24 24 481 152
      FXID {D32BE511-3942-4A83-B6D7-DF2FE763A2B4}
      WAK 0
    >
    <ITEM
      POSITION 3.76546022910863
      SNAPOFFS 0
      LENGTH 165.70469387755102
      LOOP 0
      ALLTAKES 0
      FADEIN 1 0 0 1 0 0
      FADEOUT 1 0 0 1 0 0
      MUTE 0
      SEL 0
      IGUID {18FEB3EE-E056-4E12-87E8-79E696AB6AC2}
      IID 1
      NAME audio-.ogg
      VOLPAN 1 0 1 -1
      SOFFS 0
      PLAYRATE 1 1 0 -1 0 0.0025
      CHANMODE 0
      GUID {1CAD46BD-5606-4758-94E7-AF0FD6918D8C}
      <SOURCE VORBIS
        FILE "audio-.ogg"
      >
    >
  >
  <TRACK {BDCFF37A-71AC-4D17-AF26-EA560B308842}
    NAME COUNTIN
    PEAKCOL 16576
    BEAT -1
    AUTOMODE 0
    VOLPAN 1 0 -1 -1 1
    MUTESOLO 0 0 0
    IPHASE 0
    ISBUS 0 0
    BUSCOMP 0 0
    SHOWINMIX 1 0.6667 0.5 1 0.5 0 0 0
    FREEMODE 0
    SEL 0
    REC 0 0 0 0 0 0 0
    TRACKHEIGHT 0 0
    INQ 0 0 0 0.5 100 0 0 100
    NCHAN 2
    FX 1
    TRACKID {BDCFF37A-71AC-4D17-AF26-EA560B308842}
    PERF 0
    MIDIOUT -1
    MAINSEND 1 0
    <ITEM
      POSITION 0.42253521126761
      SNAPOFFS 0
      LENGTH 0.28216019417451
      LOOP 0
      ALLTAKES 0
      FADEIN 1 0 0 1 0 0
      FADEOUT 1 0 0 1 0 0
      MUTE 0
      SEL 0
      IGUID {D829F3DA-0BE5-4277-954B-C2D10DB114A6}
      IID 2
      NAME stick.wav
      VOLPAN 1 0 1 -1
      SOFFS 0
      PLAYRATE 1 1 0 -1 0 0.0025
      CHANMODE 0
      GUID {3A242298-C3E5-4DC8-9A3C-2EE82D8D2134}
      <SOURCE WAVE
        FILE "stick.wav"
      >
    >
    <ITEM
      POSITION 1.26760563380282
      SNAPOFFS 0
      LENGTH 0.28216019417451
      LOOP 0
      ALLTAKES 0
      FADEIN 1 0 0 1 0 0
      FADEOUT 1 0 0 1 0 0
      MUTE 0
      SEL 0
      IGUID {5AEC5162-2B2C-4FF2-BB3B-E29ADC0916FE}
      IID 3
      NAME stick.wav
      VOLPAN 1 0 1 -1
      SOFFS 0
      PLAYRATE 1.00000000000052 1 0 -1 0 0.0025
      CHANMODE 0
      GUID {16E29BEE-96F5-48F0-9FB0-3F04A1AF90D5}
      <SOURCE WAVE
        FILE "stick.wav"
      >
    >
    <ITEM
      POSITION 2.11267605633803
      SNAPOFFS 0
      LENGTH 0.28216019417451
      LOOP 0
      ALLTAKES 0
      FADEIN 1 0 0 1 0 0
      FADEOUT 1 0 0 1 0 0
      MUTE 0
      SEL 0
      IGUID {1FA8F8C4-F448-4E02-B340-4A6644F6D8AB}
      IID 4
      NAME stick.wav
      VOLPAN 1 0 1 -1
      SOFFS 0
      PLAYRATE 1.00000000000052 1 0 -1 0 0.0025
      CHANMODE 0
      GUID {8D594F7C-8B39-4D29-A27D-55F46BC65189}
      <SOURCE WAVE
        FILE "stick.wav"
      >
    >
    <ITEM
      POSITION 2.53521126760563
      SNAPOFFS 0
      LENGTH 0.28216019417451
      LOOP 0
      ALLTAKES 0
      FADEIN 1 0 0 1 0 0
      FADEOUT 1 0 0 1 0 0
      MUTE 0
      SEL 0
      IGUID {1D23FF37-8166-4C8E-915E-19EFDB52B4D8}
      IID 5
      NAME stick.wav
      VOLPAN 1 0 1 -1
      SOFFS 0
      PLAYRATE 1.00000000000052 1 0 -1 0 0.0025
      CHANMODE 0
      GUID {1D91F480-CA0B-4E03-8204-02893D660CDF}
      <SOURCE WAVE
        FILE "stick.wav"
      >
    >
    <ITEM
      POSITION 2.95774647887324
      SNAPOFFS 0
      LENGTH 0.28216019417451
      LOOP 0
      ALLTAKES 0
      FADEIN 1 0 0 1 0 0
      FADEOUT 1 0 0 1 0 0
      MUTE 0
      SEL 0
      IGUID {A6BA2F37-4089-4BF2-A73E-A602F32B7614}
      IID 6
      NAME stick.wav
      VOLPAN 1 0 1 -1
      SOFFS 0
      PLAYRATE 1.0000000000005 1 0 -1 0 0.0025
      CHANMODE 0
      GUID {ABD24FE2-95CA-428E-ADD9-9A13921FCC29}
      <SOURCE WAVE
        FILE "stick.wav"
      >
    >
    <ITEM
      POSITION 3.38028169014085
      SNAPOFFS 0
      LENGTH 0.28216019417451
      LOOP 0
      ALLTAKES 0
      FADEIN 1 0 0 1 0 0
      FADEOUT 1 0 0 1 0 0
      MUTE 0
      SEL 0
      IGUID {49CCEEAD-12F1-472E-8B9C-48A90BF6E20A}
      IID 7
      NAME stick.wav
      VOLPAN 1 0 1 -1
      SOFFS 0
      PLAYRATE 1.00000000000052 1 0 -1 0 0.0025
      CHANMODE 0
      GUID {3DFEA1C1-AD72-4DF8-A1BD-3977672F4D80}
      <SOURCE WAVE
        FILE "stick.wav"
      >
    >
  >
  <TRACK {8F33A645-3DF2-48FA-99BC-10992A4F8042}
    NAME "PART DRUMS"
    PEAKCOL 16842751
    BEAT -1
    AUTOMODE 0
    VOLPAN 1 0 -1 -1 1
    MUTESOLO 0 0 0
    IPHASE 0
    ISBUS 0 0
    BUSCOMP 1 0
    SHOWINMIX 1 0.6667 0.5 1 0.5 0 0 0
    FREEMODE 0
    SEL 0
    REC 0 4096 1 7 0 0 0
    TRACKHEIGHT 0 0
    INQ 0 0 0 0.5 100 0 0 100
    NCHAN 2
    FX 1
    TRACKID {8F33A645-3DF2-48FA-99BC-10992A4F8042}
    PERF 0
    MIDIOUT -1
    <MIDINOTENAMES
      0 24 "KICK RF" 0 24
      0 25 "HI-HAT OPEN" 0 25
      0 26 "SNARE HARD LH" 0 26
      0 27 "SNARE HARD RH" 0 27
      0 28 "SNARE SOFT LH" 0 28
      0 29 "SNARE SOFT RH" 0 29
      0 30 "HI-HAT LH" 0 30
      0 31 "HI-HAT RH" 0 31
      0 32 "PERCUSSION RH" 0 32
      0 34 "CRASH1 HARD LH" 0 34
      0 35 "CRASH1 SOFT LH" 0 35
      0 36 "CRASH1 HARD RH" 0 36
      0 37 "CRASH1 SOFT RH" 0 37
      0 38 "CRASH2 HARD RH" 0 38
      0 39 "CRASH2 SOFT RH" 0 39
      0 40 "CRASH1 CHOKE" 0 40
      0 41 "CRASH2 CHOKE" 0 41
      0 42 "RIDE CYM RH" 0 42
      0 43 "RIDE CYM LH" 0 43
      0 44 "CRASH2 HARD LH" 0 44
      0 45 "CRASH2 SOFT LH" 0 45
      0 46 "TOM1 LH" 0 46
      0 47 "TOM1 RH" 0 47
      0 48 "TOM2 LH" 0 48
      0 49 "TOM2 RH" 0 49
      0 50 "FLOOR TOM LH" 0 50
      0 51 "FLOOR TOM RH" 0 51
      0 52 "--DRUM ANIMATION--" 0 52
      0 56 ---- 0 56
      0 60 "EASY Kick" 0 60
      0 61 "EASY Red" 0 61
      0 62 "EASY Yellow" 0 62
      0 63 "EASY Blue" 0 63
      0 64 "EASY Green" 0 64
      0 68 ---- 0 68
      0 72 "MEDIUM Kick" 0 72
      0 73 "MEDIUM Red" 0 73
      0 74 "MEDIUM Yellow" 0 74
      0 75 "MEDIUM Blue" 0 75
      0 76 "MEDIUM Green" 0 76
      0 80 ---- 0 80
      0 84 "HARD Kick" 0 84
      0 85 "HARD Red" 0 85
      0 86 "HARD Yellow" 0 86
      0 87 "HARD Blue" 0 87
      0 88 "HARD Green" 0 88
      0 92 ---- 0 92
      0 96 "EXPERT Kick" 0 96
      0 97 "EXPERT Red" 0 97
      0 98 "EXPERT Yellow" 0 98
      0 99 "EXPERT Blue" 0 99
      0 100 "EXPERT Green" 0 100
      0 101 " " 0 101
      0 102 ---- 0 102
      0 103 "Solo Marker" 0 103
      0 108 ---- 0 108
      0 110 "PRO Yellow Tom" 0 110
      0 111 "PRO Blue Tom" 0 111
      0 112 "PRO Green Tom" 0 112
      0 114 ---- 0 114
      0 116 OVERDRIVE 0 116
      0 118 ---- 0 118
      0 120 "DRUM FILL (use all 5)" 0 120
      0 121 "DRUM FILL" 0 121
      0 122 "DRUM FILL" 0 122
      0 123 "DRUM FILL" 0 123
      0 124 "DRUM FILL" 0 124
      0 125 ---- 0 125
      0 126 "Roll Marker 1-Lane" 0 126
      0 127 "Roll Marker 2-Lane / Cym" 0 127
    >
    MAINSEND 1 0
    <FXCHAIN
      WNDRECT 0 38 870 574
      SHOW 0
      LASTSEL 1
      DOCKED 0
      BYPASS 1 0 0
      <VST "VSTi: ReaSynth (Cockos)" reasynth.dll 0 "" 1919251321
        eXNlcu9e7f4AAAAAAgAAAAEAAAAAAAAAAgAAAAAAAAA8AAAAAAAAAAAAAAA=
        776t3g3wrd4AAAAAAAAAAAAAAAAAAAAAObRIPn3L2z61tLE5AAAAALbz/T5VpCs6AAAAAAAAAAAAAIA/
        AAAAAAAA
      >
      FLOATPOS 0 0 0 0
      FXID {58F55556-9407-4062-A048-6AFCC0B53535}
      WAK 0
      BYPASS 0 0 0
      <VST "VSTi: RBN Preview (RBN)" rbprev_vst.dll 0 "" ""
        dnBicu5e7f4AAAAAAgAAAAEAAAAAAAAAAgAAAAAAAAAEAAAAAQAAAAAAAAADAaoAAAAAAAAA
      >
      FLOATPOS 32 32 659 497
      FXID {D7126437-AB1E-4109-A0FA-F2D5D0AC68DC}
      WAK 0
    >
    <ITEM
      POSITION 0
      SNAPOFFS 0
      LENGTH 177.06791585015557
      LOOP 0
      ALLTAKES 0
      FADEIN 1 0 0 1 0 0
      FADEOUT 1 0 0 1 0 0
      MUTE 0
      COLOR 19150555 R
      SEL 0
      IGUID {9FF11F36-E94F-4396-9C0E-8449C916EC21}
      IID 8
      NAME "PART DRUMS"
      VOLPAN 1 0 1 -1
      SOFFS 0 0
      PLAYRATE 1 1 0 -65536 0 0.0025
      CHANMODE 0
      GUID {70A79ADF-E70C-430A-913F-E16D0CC85517}
      <SOURCE MIDI
        HASDATA 1 480 QN
        POOLEDEVTS {53253346-4EF3-412A-BC51-6354FB2EAEC4}
        <X 0 0
          /wNQQVJUIERSVU1T
        >
        <X 300 0
          /wFbbWl4IDEgZHJ1bXMwXQ==
        >
        <X 0 0
          /wFbbWl4IDAgZHJ1bXMwXQ==
        >
        <X 60 0
          /wFbbWl4IDIgZHJ1bXMwXQ==
        >
        <X 60 0
          /wFbbWl4IDMgZHJ1bXMwXQ==
        >
        <X 2460 0
          /wFbaWRsZV0=
        >
        <X 1440 0
          /wFbcGxheV0=
        >
        E 0 90 40 60
        E 0 90 48 60
        E 0 90 4c 60
        E 0 90 54 60
        E 0 90 58 60
        E 0 90 60 60
        E 0 90 64 60
        E 120 80 40 00
        E 0 80 48 00
        E 0 80 4c 00
        E 0 80 54 00
        E 0 80 58 00
        E 0 80 60 00
        E 0 80 64 00
        E 120 90 54 60
        E 0 90 56 60
        E 0 90 60 60
        E 0 90 62 60
        E 120 80 54 00
        E 0 80 56 00
        E 0 80 60 00
        E 0 80 62 00
        E 120 90 3e 60
        E 0 90 4a 60
        E 0 90 56 60
        E 0 90 62 60
        E 120 80 3e 00
        E 0 80 4a 00
        E 0 80 56 00
        E 0 80 62 00
        E 0 90 60 60
        E 120 80 60 00
        E 0 90 55 60
        E 0 90 56 60
        E 0 90 61 60
        E 0 90 62 60
        E 120 80 55 00
        E 0 80 56 00
        E 0 80 61 00
        E 0 80 62 00
        E 120 90 3e 60
        E 0 90 48 60
        E 0 90 4a 60
        E 0 90 54 60
        E 0 90 56 60
        E 0 90 60 60
        E 0 90 62 60
        E 120 80 3e 00
        E 0 80 48 00
        E 0 80 4a 00
        E 0 80 54 00
        E 0 80 56 00
        E 0 80 60 00
        E 0 80 62 00
        E 120 90 54 60
        E 0 90 56 60
        E 0 90 60 60
        E 0 90 62 60
        E 120 80 54 00
        E 0 80 56 00
        E 0 80 60 00
        E 0 80 62 00
        E 120 90 40 60
        E 0 90 48 60
        E 0 90 4c 60
        E 0 90 54 60
        E 0 90 58 60
        E 0 90 60 60
        E 0 90 64 60
        E 120 80 40 00
        E 0 80 48 00
        E 0 80 4c 00
        E 0 80 54 00
        E 0 80 58 00
        E 0 80 60 00
        E 0 80 64 00
        E 120 90 54 60
        E 0 90 56 60
        E 0 90 60 60
        E 0 90 62 60
        E 120 80 54 00
        E 0 80 56 00
        E 0 80 60 00
        E 0 80 62 00
        E 120 90 3e 60
        E 0 90 4a 60
        E 0 90 56 60
        E 0 90 62 60
        E 120 80 3e 00
        E 0 80 4a 00
        E 0 80 56 00
        E 0 80 62 00
        E 0 90 60 60
        E 120 80 60 00
        E 0 90 55 60
        E 0 90 56 60
        E 0 90 61 60
        E 0 90 62 60
        E 120 80 55 00
        E 0 80 56 00
        E 0 80 61 00
        E 0 80 62 00
        E 120 90 3e 60
        E 0 90 4a 60
        E 0 90 56 60
        E 0 90 62 60
        E 120 80 3e 00
        E 0 80 4a 00
        E 0 80 56 00
        E 0 80 62 00
        E 120 90 54 60
        E 0 90 56 60
        E 0 90 60 60
        E 0 90 62 60
        E 120 80 54 00
        E 0 80 56 00
        E 0 80 60 00
        E 0 80 62 00
        E 120 90 3e 60
        E 0 90 48 60
        E 0 90 4a 60
        E 0 90 54 60
        E 0 90 56 60
        E 0 90 60 60
        E 0 90 62 60
        E 120 80 3e 00
        E 0 80 48 00
        E 0 80 4a 00
        E 0 80 54 00
        E 0 80 56 00
        E 0 80 60 00
        E 0 80 62 00
        E 120 90 54 60
        E 0 90 56 60
        E 0 90 60 60
        E 0 90 62 60
        E 120 80 54 00
        E 0 80 56 00
        E 0 80 60 00
        E 0 80 62 00
        E 120 90 3e 60
        E 0 90 4a 60
        E 0 90 56 60
        E 0 90 62 60
        E 120 80 3e 00
        E 0 80 4a 00
        E 0 80 56 00
        E 0 80 62 00
        E 0 90 60 60
        E 120 80 60 00
        E 0 90 55 60
        E 0 90 56 60
        E 0 90 61 60
        E 0 90 62 60
        E 120 80 55 00
        E 0 80 56 00
        E 0 80 61 00
        E 0 80 62 00
        E 120 90 3d 60
        E 0 90 49 60
        E 0 90 55 60
        E 0 90 61 60
        E 120 80 3d 00
        E 0 80 49 00
        E 0 80 55 00
        E 0 80 61 00
        E 0 90 61 60
        E 120 80 61 00
        E 120 90 60 60
        E 120 80 60 00
        E 0 90 40 60
        E 0 90 48 60
        E 0 90 4c 60
        E 0 90 54 60
        E 0 90 58 60
        E 0 90 60 60
        E 0 90 64 60
        E 120 80 40 00
        E 0 80 48 00
        E 0 80 4c 00
        E 0 80 54 00
        E 0 80 58 00
        E 0 80 60 00
        E 0 80 64 00
        E 120 90 54 60
        E 0 90 56 60
        E 0 90 60 60
        E 0 90 62 60
        E 120 80 54 00
        E 0 80 56 00
        E 0 80 60 00
        E 0 80 62 00
        E 120 90 3e 60
        E 0 90 4a 60
        E 0 90 56 60
        E 0 90 62 60
        E 120 80 3e 00
        E 0 80 4a 00
        E 0 80 56 00
        E 0 80 62 00
        E 0 90 60 60
        E 120 80 60 00
        E 0 90 55 60
        E 0 90 56 60
        E 0 90 61 60
        E 0 90 62 60
        E 120 80 55 00
        E 0 80 56 00
        E 0 80 61 00
        E 0 80 62 00
        E 120 90 40 60
        E 0 90 48 60
        E 0 90 4c 60
        E 0 90 54 60
        E 0 90 58 60
        E 0 90 60 60
        E 0 90 64 60
        E 120 80 40 00
        E 0 80 48 00
        E 0 80 4c 00
        E 0 80 54 00
        E 0 80 58 00
        E 0 80 60 00
        E 0 80 64 00
        E 120 90 54 60
        E 0 90 57 60
        E 0 90 60 60
        E 0 90 63 60
        E 120 80 54 00
        E 0 80 57 00
        E 0 80 60 00
        E 0 80 63 00
        E 120 90 40 60
        E 0 90 48 60
        E 0 90 4c 60
        E 0 90 54 60
        E 0 90 58 60
        E 0 90 60 60
        E 0 90 64 60
        E 120 80 40 00
        E 0 80 48 00
        E 0 80 4c 00
        E 0 80 54 00
        E 0 80 58 00
        E 0 80 60 00
        E 0 80 64 00
        E 120 90 54 60
        E 0 90 56 60
        E 0 90 60 60
        E 0 90 62 60
        E 120 80 54 00
        E 0 80 56 00
        E 0 80 60 00
        E 0 80 62 00
        E 120 90 3e 60
        E 0 90 4a 60
        E 0 90 56 60
        E 0 90 62 60
        E 120 80 3e 00
        E 0 80 4a 00
        E 0 80 56 00
        E 0 80 62 00
        E 0 90 60 60
        E 120 80 60 00
        E 0 90 55 60
        E 0 90 56 60
        E 0 90 61 60
        E 0 90 62 60
        E 120 80 55 00
        E 0 80 56 00
        E 0 80 61 00
        E 0 80 62 00
        E 120 90 3e 60
        E 0 90 4a 60
        E 0 90 56 60
        E 0 90 62 60
        E 120 80 3e 00
        E 0 80 4a 00
        E 0 80 56 00
        E 0 80 62 00
        E 120 90 54 60
        E 0 90 56 60
        E 0 90 60 60
        E 0 90 62 60
        E 120 80 54 00
        E 0 80 56 00
        E 0 80 60 00
        E 0 80 62 00
        E 120 90 40 60
        E 0 90 48 60
        E 0 90 4c 60
        E 0 90 54 60
        E 0 90 58 60
        E 0 90 60 60
        E 0 90 64 60
        E 120 80 40 00
        E 0 80 48 00
        E 0 80 4c 00
        E 0 80 54 00
        E 0 80 58 00
        E 0 80 60 00
        E 0 80 64 00
        E 120 90 54 60
        E 0 90 56 60
        E 0 90 60 60
        E 0 90 62 60
        E 120 80 54 00
        E 0 80 56 00
        E 0 80 60 00
        E 0 80 62 00
        E 120 90 3e 60
        E 0 90 4a 60
        E 0 90 56 60
        E 0 90 62 60
        E 120 80 3e 00
        E 0 80 4a 00
        E 0 80 56 00
        E 0 80 62 00
        E 0 90 60 60
        E 120 80 60 00
        E 0 90 55 60
        E 0 90 56 60
        E 0 90 61 60
        E 0 90 62 60
        E 120 80 55 00
        E 0 80 56 00
        E 0 80 61 00
        E 0 80 62 00
        E 0 90 60 60
        E 120 80 60 00
        E 0 90 3d 60
        E 0 90 49 60
        E 0 90 55 60
        E 0 90 61 60
        E 80 80 3d 00
        E 0 80 49 00
        E 0 80 55 00
        E 0 80 61 00
        E 0 90 61 60
        E 80 80 61 00
        E 0 90 61 60
        E 80 80 61 00
        E 0 90 55 60
        E 0 90 61 60
        E 80 80 55 00
        E 0 80 61 00
        E 0 90 61 60
        E 80 80 61 00
        E 0 90 61 60
        E 80 80 61 00
        E 0 90 40 60
        E 0 90 48 60
        E 0 90 4c 60
        E 0 90 54 60
        E 0 90 58 60
        E 0 90 60 60
        E 0 90 64 60
        E 120 80 40 00
        E 0 80 48 00
        E 0 80 4c 00
        E 0 80 54 00
        E 0 80 58 00
        E 0 80 60 00
        E 0 80 64 00
        E 120 90 54 60
        E 0 90 56 60
        E 0 90 60 60
        E 0 90 62 60
        E 120 80 54 00
        E 0 80 56 00
        E 0 80 60 00
        E 0 80 62 00
        E 120 90 3e 60
        E 0 90 4a 60
        E 0 90 56 60
        E 0 90 62 60
        E 120 80 3e 00
        E 0 80 4a 00
        E 0 80 56 00
        E 0 80 62 00
        E 0 90 60 60
        E 120 80 60 00
        E 0 90 55 60
        E 0 90 56 60
        E 0 90 61 60
        E 0 90 62 60
        E 120 80 55 00
        E 0 80 56 00
        E 0 80 61 00
        E 0 80 62 00
        E 120 90 3e 60
        E 0 90 48 60
        E 0 90 4a 60
        E 0 90 54 60
        E 0 90 56 60
        E 0 90 60 60
        E 0 90 62 60
        E 120 80 3e 00
        E 0 80 48 00
        E 0 80 4a 00
        E 0 80 54 00
        E 0 80 56 00
        E 0 80 60 00
        E 0 80 62 00
        E 120 90 54 60
        E 0 90 56 60
        E 0 90 60 60
        E 0 90 62 60
        E 120 80 54 00
        E 0 80 56 00
        E 0 80 60 00
        E 0 80 62 00
        E 120 90 40 60
        E 0 90 48 60
        E 0 90 4c 60
        E 0 90 54 60
        E 0 90 58 60
        E 0 90 60 60
        E 0 90 64 60
        E 120 80 40 00
        E 0 80 48 00
        E 0 80 4c 00
        E 0 80 54 00
        E 0 80 58 00
        E 0 80 60 00
        E 0 80 64 00
        E 120 90 54 60
        E 0 90 56 60
        E 0 90 60 60
        E 0 90 62 60
        E 120 80 54 00
        E 0 80 56 00
        E 0 80 60 00
        E 0 80 62 00
        E 120 90 3e 60
        E 0 90 4a 60
        E 0 90 56 60
        E 0 90 62 60
        E 120 80 3e 00
        E 0 80 4a 00
        E 0 80 56 00
        E 0 80 62 00
        E 0 90 60 60
        E 120 80 60 00
        E 0 90 55 60
        E 0 90 56 60
        E 0 90 61 60
        E 0 90 62 60
        E 120 80 55 00
        E 0 80 56 00
        E 0 80 61 00
        E 0 80 62 00
        E 120 90 3e 60
        E 0 90 4a 60
        E 0 90 56 60
        E 0 90 62 60
        E 120 80 3e 00
        E 0 80 4a 00
        E 0 80 56 00
        E 0 80 62 00
        E 120 90 54 60
        E 0 90 56 60
        E 0 90 60 60
        E 0 90 62 60
        E 120 80 54 00
        E 0 80 56 00
        E 0 80 60 00
        E 0 80 62 00
        E 120 90 3e 60
        E 0 90 48 60
        E 0 90 4a 60
        E 0 90 54 60
        E 0 90 56 60
        E 0 90 60 60
        E 0 90 62 60
        E 120 80 3e 00
        E 0 80 48 00
        E 0 80 4a 00
        E 0 80 54 00
        E 0 80 56 00
        E 0 80 60 00
        E 0 80 62 00
        E 120 90 54 60
        E 0 90 55 60
        E 0 90 60 60
        E 0 90 61 60
        E 120 80 54 00
        E 0 80 55 00
        E 0 80 60 00
        E 0 80 61 00
        E 0 90 61 60
        E 120 80 61 00
        E 0 90 3e 60
        E 0 90 4a 60
        E 0 90 54 60
        E 0 90 56 60
        E 0 90 60 60
        E 0 90 62 60
        E 0 90 6e 60
        E 120 80 3e 00
        E 0 80 4a 00
        E 0 80 54 00
        E 0 80 56 00
        E 0 80 60 00
        E 0 80 62 00
        E 0 80 6e 00
        E 0 90 61 60
        E 120 80 61 00
        E 0 90 54 60
        E 0 90 55 60
        E 0 90 60 60
        E 0 90 61 60
        E 120 80 54 00
        E 0 80 55 00
        E 0 80 60 00
        E 0 80 61 00
        E 0 90 61 60
        E 120 80 61 00
        E 0 90 3e 60
        E 0 90 4a 60
        E 0 90 54 60
        E 0 90 56 60
        E 0 90 60 60
        E 0 90 62 60
        E 0 90 6e 60
        E 120 80 3e 00
        E 0 80 4a 00
        E 0 80 54 00
        E 0 80 56 00
        E 0 80 60 00
        E 0 80 62 00
        E 0 80 6e 00
        E 0 90 62 60
        E 0 90 6e 60
        E 120 80 62 00
        E 0 80 6e 00
        E 0 90 54 60
        E 0 90 57 60
        E 0 90 60 60
        E 0 90 63 60
        E 0 90 6f 60
        E 120 80 54 00
        E 0 80 57 00
        E 0 80 60 00
        E 0 80 63 00
        E 0 80 6f 00
        E 0 90 63 60
        E 0 90 6f 60
        E 120 80 63 00
        E 0 80 6f 00
        E 0 90 40 60
        E 0 90 48 60
        E 0 90 4c 60
        E 0 90 54 60
        E 0 90 58 60
        E 0 90 60 60
        E 0 90 64 60
        E 0 90 74 60
        E 120 80 40 00
        E 0 80 48 00
        E 0 80 4c 00
        E 0 80 54 00
        E 0 80 58 00
        E 0 80 60 00
        E 0 80 64 00
        E 120 90 54 60
        E 0 90 56 60
        E 0 90 60 60
        E 0 90 62 60
        E 120 80 54 00
        E 0 80 56 00
        E 0 80 60 00
        E 0 80 62 00
        E 120 90 3e 60
        E 0 90 4a 60
        E 0 90 56 60
        E 0 90 62 60
        E 120 80 3e 00
        E 0 80 4a 00
        E 0 80 56 00
        E 0 80 62 00
        E 0 90 60 60
        E 120 80 60 00
        E 0 90 55 60
        E 0 90 56 60
        E 0 90 61 60
        E 0 90 62 60
        E 120 80 55 00
        E 0 80 56 00
        E 0 80 61 00
        E 0 80 62 00
        E 120 90 40 60
        E 0 90 48 60
        E 0 90 4c 60
        E 0 90 54 60
        E 0 90 58 60
        E 0 90 60 60
        E 0 90 64 60
        E 120 80 40 00
        E 0 80 48 00
        E 0 80 4c 00
        E 0 80 54 00
        E 0 80 58 00
        E 0 80 60 00
        E 0 80 64 00
        E 120 90 54 60
        E 0 90 57 60
        E 0 90 60 60
        E 0 90 63 60
        E 120 80 54 00
        E 0 80 57 00
        E 0 80 60 00
        E 0 80 63 00
        E 120 90 40 60
        E 0 90 48 60
        E 0 90 4c 60
        E 0 90 54 60
        E 0 90 58 60
        E 0 90 60 60
        E 0 90 64 60
        E 120 80 40 00
        E 0 80 48 00
        E 0 80 4c 00
        E 0 80 54 00
        E 0 80 58 00
        E 0 80 60 00
        E 0 80 64 00
        E 120 90 54 60
        E 0 90 56 60
        E 0 90 60 60
        E 0 90 62 60
        E 120 80 54 00
        E 0 80 56 00
        E 0 80 60 00
        E 0 80 62 00
        E 120 90 3e 60
        E 0 90 4a 60
        E 0 90 56 60
        E 0 90 62 60
        E 120 80 3e 00
        E 0 80 4a 00
        E 0 80 56 00
        E 0 80 62 00
        E 0 90 60 60
        E 120 80 60 00
        E 0 90 55 60
        E 0 90 56 60
        E 0 90 61 60
        E 0 90 62 60
        E 120 80 55 00
        E 0 80 56 00
        E 0 80 61 00
        E 0 80 62 00
        E 120 90 3e 60
        E 0 90 4a 60
        E 0 90 56 60
        E 0 90 62 60
        E 120 80 3e 00
        E 0 80 4a 00
        E 0 80 56 00
        E 0 80 62 00
        E 120 90 54 60
        E 0 90 56 60
        E 0 90 60 60
        E 0 90 62 60
        E 120 80 54 00
        E 0 80 56 00
        E 0 80 60 00
        E 0 80 62 00
        E 120 90 40 60
        E 0 90 48 60
        E 0 90 4c 60
        E 0 90 54 60
        E 0 90 58 60
        E 0 90 60 60
        E 0 90 64 60
        E 120 80 40 00
        E 0 80 48 00
        E 0 80 4c 00
        E 0 80 54 00
        E 0 80 58 00
        E 0 80 60 00
        E 0 80 64 00
        E 120 90 54 60
        E 0 90 56 60
        E 0 90 60 60
        E 0 90 62 60
        E 120 80 54 00
        E 0 80 56 00
        E 0 80 60 00
        E 0 80 62 00
        E 120 90 3e 60
        E 0 90 4a 60
        E 0 90 56 60
        E 0 90 62 60
        E 120 80 3e 00
        E 0 80 4a 00
        E 0 80 56 00
        E 0 80 62 00
        E 0 90 60 60
        E 120 80 60 00
        E 0 90 55 60
        E 0 90 56 60
        E 0 90 61 60
        E 0 90 62 60
        E 120 80 55 00
        E 0 80 56 00
        E 0 80 61 00
        E 0 80 62 00
        E 120 90 3d 60
        E 0 90 49 60
        E 0 90 55 60
        E 0 90 61 60
        E 120 80 3d 00
        E 0 80 49 00
        E 0 80 55 00
        E 0 80 61 00
        E 0 90 61 60
        E 120 80 61 00
        E 240 80 74 00
        E 0 90 3d 60
        E 0 90 49 60
        E 0 90 54 60
        E 0 90 55 60
        E 0 90 60 60
        E 0 90 61 60
        E 80 80 3d 00
        E 0 80 49 00
        E 0 80 55 00
        E 0 80 61 00
        E 0 90 61 60
        E 40 80 54 00
        E 0 80 60 00
        E 40 80 61 00
        E 0 90 61 60
        E 80 80 61 00
        E 0 90 55 60
        E 0 90 61 60
        E 120 80 55 00
        E 0 80 61 00
        E 0 90 60 60
        E 0 90 61 60
        E 80 80 61 00
        E 0 90 61 60
        E 40 80 60 00
        E 40 80 61 00
        E 0 90 61 60
        E 80 80 61 00
        E 0 90 61 60
        E 120 80 61 00
        E 0 90 54 60
        E 0 90 55 60
        E 0 90 60 60
        E 0 90 61 60
        E 120 80 54 00
        E 0 80 55 00
        E 0 80 60 00
        E 0 80 61 00
        E 120 90 3d 60
        E 0 90 49 60
        E 0 90 54 60
        E 0 90 55 60
        E 0 90 60 60
        E 0 90 61 60
        E 120 80 3d 00
        E 0 80 49 00
        E 0 80 54 00
        E 0 80 55 00
        E 0 80 60 00
        E 0 80 61 00
        E 120 90 54 60
        E 0 90 55 60
        E 0 90 60 60
        E 0 90 61 60
        E 120 80 54 00
        E 0 80 55 00
        E 0 80 60 00
        E 0 80 61 00
        E 120 90 3d 60
        E 0 90 49 60
        E 0 90 54 60
        E 0 90 55 60
        E 0 90 60 60
        E 0 90 61 60
        E 80 80 3d 00
        E 0 80 49 00
        E 0 80 55 00
        E 0 80 61 00
        E 0 90 61 60
        E 40 80 54 00
        E 0 80 60 00
        E 40 80 61 00
        E 0 90 61 60
        E 80 80 61 00
        E 0 90 61 60
        E 0 90 55 60
        E 80 80 61 00 39
        E 39 80 55 00
        E 1 90 61 60
        E 0 90 60 60
        E 80 80 61 00
        E 0 90 61 60
        E 40 80 60 00
        E 40 80 61 00
        E 0 90 61 60
        E 80 80 61 00
        E 0 90 61 60
        E 120 80 61 00
        E 0 90 60 60
        E 0 90 61 60
        E 0 90 54 60
        E 0 90 55 60
        E 120 80 60 00
        E 0 80 61 00
        E 0 80 54 00
        E 0 80 55 00
        E 120 90 3d 60
        E 0 90 49 60
        E 0 90 54 60
        E 0 90 55 60
        E 0 90 60 60
        E 0 90 61 60
        E 120 80 3d 00
        E 0 80 49 00
        E 0 80 54 00
        E 0 80 55 00
        E 0 80 60 00
        E 0 80 61 00
        E 120 90 54 60
        E 0 90 55 60
        E 0 90 60 60
        E 0 90 61 60
        E 120 80 54 00
        E 0 80 55 00
        E 0 80 60 00
        E 0 80 61 00
        E 120 90 3d 60
        E 0 90 49 60
        E 0 90 54 60
        E 0 90 55 60
        E 0 90 60 60
        E 0 90 61 60
        E 80 80 3d 00
        E 0 80 49 00
        E 0 80 55 00
        E 0 80 61 00
        E 0 90 61 60
        E 40 80 54 00
        E 0 80 60 00
        E 40 80 61 00
        E 0 90 61 60
        E 80 80 61 00
        E 0 90 61 60
        E 0 90 55 60
        E 80 80 61 00
        E 39 80 55 00
        E 1 90 61 60
        E 0 90 60 60
        E 80 80 61 00
        E 0 90 61 60
        E 40 80 60 00
        E 40 80 61 00
        E 0 90 61 60
        E 80 80 61 00
        E 0 90 61 60
        E 120 80 61 00
        E 0 90 54 60
        E 0 90 55 60
        E 0 90 60 60
        E 0 90 61 60
        E 120 80 54 00
        E 0 80 55 00
        E 0 80 60 00
        E 0 80 61 00
        E 120 90 3d 60
        E 0 90 49 60
        E 0 90 54 60
        E 0 90 55 60
        E 0 90 60 60
        E 0 90 61 60
        E 120 80 3d 00
        E 0 80 49 00
        E 0 80 54 00
        E 0 80 55 00
        E 0 80 60 00
        E 0 80 61 00
        E 120 90 54 60
        E 0 90 55 60
        E 0 90 60 60
        E 0 90 61 60
        E 120 80 54 00
        E 0 80 55 00
        E 0 80 60 00
        E 0 80 61 00
        E 120 90 3d 60
        E 0 90 49 60
        E 0 90 54 60
        E 0 90 55 60
        E 0 90 60 60
        E 0 90 61 60
        E 80 80 3d 00
        E 0 80 49 00
        E 0 80 55 00
        E 0 80 61 00
        E 0 90 61 60
        E 40 80 54 00
        E 0 80 60 00
        E 40 80 61 00
        E 0 90 61 60
        E 80 80 61 00
        E 0 90 61 60
        E 0 90 55 60
        E 80 80 61 00
        E 39 80 55 00
        E 1 90 61 60
        E 0 90 60 60
        E 80 80 61 00
        E 0 90 61 60
        E 40 80 60 00
        E 40 80 61 00
        E 0 90 61 60
        E 80 80 61 00
        E 0 90 61 60
        E 80 80 61 00
        E 40 90 61 60
        E 0 90 54 60
        E 0 90 55 60
        E 0 90 60 60
        E 120 80 61 00
        E 0 80 54 00
        E 0 80 55 00
        E 0 80 60 00
        E 0 90 61 60
        E 120 80 61 00
        E 0 90 3d 60
        E 0 90 49 60
        E 0 90 55 60
        E 0 90 61 60
        E 120 80 3d 00
        E 0 80 49 00
        E 0 80 55 00
        E 0 80 61 00
        E 0 90 61 60
        E 120 80 61 00
        E 0 90 55 60
        E 0 90 61 60
        E 120 80 55 00
        E 0 80 61 00
        E 0 90 61 60
        E 120 80 61 00
        E 0 90 40 60
        E 0 90 48 60
        E 0 90 4c 60
        E 0 90 54 60
        E 0 90 58 60
        E 0 90 60 60
        E 0 90 64 60
        E 120 80 40 00
        E 0 80 48 00
        E 0 80 4c 00
        E 0 80 54 00
        E 0 80 58 00
        E 0 80 60 00
        E 0 80 64 00
        E 120 90 54 60
        E 0 90 56 60
        E 0 90 60 60
        E 0 90 62 60
        E 120 80 54 00
        E 0 80 56 00
        E 0 80 60 00
        E 0 80 62 00
        E 120 90 3e 60
        E 0 90 4a 60
        E 0 90 56 60
        E 0 90 62 60
        E 120 80 3e 00
        E 0 80 4a 00
        E 0 80 56 00
        E 0 80 62 00
        E 0 90 60 60
        E 120 80 60 00
        E 0 90 55 60
        E 0 90 56 60
        E 0 90 61 60
        E 0 90 62 60
        E 120 80 55 00
        E 0 80 56 00
        E 0 80 61 00
        E 0 80 62 00
        E 120 90 3e 60
        E 0 90 48 60
        E 0 90 4a 60
        E 0 90 54 60
        E 0 90 56 60
        E 0 90 60 60
        E 0 90 62 60
        E 120 80 3e 00
        E 0 80 48 00
        E 0 80 4a 00
        E 0 80 54 00
        E 0 80 56 00
        E 0 80 60 00
        E 0 80 62 00
        E 120 90 54 60
        E 0 90 56 60
        E 0 90 60 60
        E 0 90 62 60
        E 120 80 54 00
        E 0 80 56 00
        E 0 80 60 00
        E 0 80 62 00
        E 120 90 40 60
        E 0 90 48 60
        E 0 90 4c 60
        E 0 90 54 60
        E 0 90 58 60
        E 0 90 60 60
        E 0 90 64 60
        E 120 80 40 00
        E 0 80 48 00
        E 0 80 4c 00
        E 0 80 54 00
        E 0 80 58 00
        E 0 80 60 00
        E 0 80 64 00
        E 120 90 54 60
        E 0 90 56 60
        E 0 90 60 60
        E 0 90 62 60
        E 120 80 54 00
        E 0 80 56 00
        E 0 80 60 00
        E 0 80 62 00
        E 120 90 3e 60
        E 0 90 4a 60
        E 0 90 56 60
        E 0 90 62 60
        E 80 80 3e 00
        E 0 80 4a 00
        E 0 80 56 00
        E 0 80 62 00
        E 0 90 60 60
        E 80 80 60 00
        E 0 90 60 60
        E 80 80 60 00
        E 0 90 55 60
        E 0 90 56 60
        E 0 90 61 60
        E 0 90 62 60
        E 120 80 55 00
        E 0 80 56 00
        E 0 80 61 00
        E 0 80 62 00
        E 120 90 3e 60
        E 0 90 4a 60
        E 0 90 56 60
        E 0 90 62 60
        E 120 80 3e 00
        E 0 80 4a 00
        E 0 80 56 00
        E 0 80 62 00
        E 120 90 54 60
        E 0 90 56 60
        E 0 90 60 60
        E 0 90 62 60
        E 120 80 54 00
        E 0 80 56 00
        E 0 80 60 00
        E 0 80 62 00
        E 120 90 40 60
        E 0 90 48 60
        E 0 90 4c 60
        E 0 90 54 60
        E 0 90 58 60
        E 0 90 60 60
        E 0 90 64 60
        E 120 80 40 00
        E 0 80 48 00
        E 0 80 4c 00
        E 0 80 54 00
        E 0 80 58 00
        E 0 80 60 00
        E 0 80 64 00
        E 120 90 54 60
        E 0 90 56 60
        E 0 90 60 60
        E 0 90 62 60
        E 120 80 54 00
        E 0 80 56 00
        E 0 80 60 00
        E 0 80 62 00
        E 120 90 3e 60
        E 0 90 4a 60
        E 0 90 56 60
        E 0 90 62 60
        E 80 80 3e 00
        E 0 80 4a 00
        E 0 80 56 00
        E 0 80 62 00
        E 0 90 60 60
        E 80 80 60 00
        E 0 90 60 60
        E 80 80 60 00
        E 0 90 55 60
        E 0 90 56 60
        E 0 90 61 60
        E 0 90 62 60
        E 120 80 55 00
        E 0 80 56 00
        E 0 80 61 00
        E 0 80 62 00
        E 120 90 3d 60
        E 0 90 49 60
        E 0 90 55 60
        E 0 90 61 60
        E 120 80 3d 00
        E 0 80 49 00
        E 0 80 55 00
        E 0 80 61 00
        E 0 90 60 60
        E 0 90 61 60
        E 120 80 60 00
        E 0 80 61 00
        E 120 90 60 60
        E 120 80 60 00
        E 0 90 40 60
        E 0 90 48 60
        E 0 90 4c 60
        E 0 90 54 60
        E 0 90 58 60
        E 0 90 60 60
        E 0 90 64 60
        E 120 80 40 00
        E 0 80 48 00
        E 0 80 4c 00
        E 0 80 54 00
        E 0 80 58 00
        E 0 80 60 00
        E 0 80 64 00
        E 120 90 54 60
        E 0 90 56 60
        E 0 90 60 60
        E 0 90 62 60
        E 120 80 54 00
        E 0 80 56 00
        E 0 80 60 00
        E 0 80 62 00
        E 0 90 60 60
        E 120 80 60 00
        E 0 90 3e 60
        E 0 90 4a 60
        E 0 90 56 60
        E 0 90 62 60
        E 80 80 3e 00
        E 0 80 4a 00
        E 0 80 56 00
        E 0 80 62 00
        E 0 90 60 60
        E 80 80 60 00
        E 0 90 60 60
        E 80 80 60 00
        E 0 90 55 60
        E 0 90 56 60
        E 0 90 61 60
        E 0 90 62 60
        E 120 80 55 00
        E 0 80 56 00
        E 0 80 61 00
        E 0 80 62 00
        E 120 90 3d 60
        E 0 90 49 60
        E 0 90 55 60
        E 0 90 61 60
        E 80 80 3d 00
        E 0 80 49 00
        E 0 80 55 00
        E 0 80 61 00
        E 0 90 61 60
        E 80 80 61 00
        E 0 90 61 60
        E 80 80 61 00
        E 0 90 55 60
        E 0 90 61 60
        E 120 80 55 00
        E 0 80 61 00
        E 0 90 61 60
        E 120 80 61 00
        E 0 90 40 60
        E 0 90 48 60
        E 0 90 4c 60
        E 0 90 54 60
        E 0 90 58 60
        E 0 90 60 60
        E 0 90 64 60
        E 120 80 40 00
        E 0 80 48 00
        E 0 80 4c 00
        E 0 80 54 00
        E 0 80 58 00
        E 0 80 60 00
        E 0 80 64 00
        E 120 90 54 60
        E 0 90 56 60
        E 0 90 60 60
        E 0 90 62 60
        E 120 80 54 00
        E 0 80 56 00
        E 0 80 60 00
        E 0 80 62 00
        E 120 90 3e 60
        E 0 90 4a 60
        E 0 90 56 60
        E 0 90 62 60
        E 80 80 3e 00
        E 0 80 4a 00
        E 0 80 56 00
        E 0 80 62 00
        E 0 90 60 60
        E 80 80 60 00
        E 0 90 60 60
        E 80 80 60 00
        E 0 90 55 60
        E 0 90 56 60
        E 0 90 61 60
        E 0 90 62 60
        E 120 80 55 00
        E 0 80 56 00
        E 0 80 61 00
        E 0 80 62 00
        E 120 90 3e 60
        E 0 90 4a 60
        E 0 90 56 60
        E 0 90 62 60
        E 120 80 3e 00
        E 0 80 4a 00
        E 0 80 56 00
        E 0 80 62 00
        E 0 90 61 60
        E 120 80 61 00
        E 0 90 54 60
        E 0 90 56 60
        E 0 90 60 60
        E 0 90 62 60
        E 120 80 54 00
        E 0 80 56 00
        E 0 80 60 00
        E 0 80 62 00
        E 120 90 40 60
        E 0 90 48 60
        E 0 90 4c 60
        E 0 90 54 60
        E 0 90 58 60
        E 0 90 60 60
        E 0 90 64 60
        E 120 80 40 00
        E 0 80 48 00
        E 0 80 4c 00
        E 0 80 54 00
        E 0 80 58 00
        E 0 80 60 00
        E 0 80 64 00
        E 120 90 54 60
        E 0 90 56 60
        E 0 90 60 60
        E 0 90 62 60
        E 120 80 54 00
        E 0 80 56 00
        E 0 80 60 00
        E 0 80 62 00
        E 120 90 3e 60
        E 0 90 4a 60
        E 0 90 56 60
        E 0 90 62 60
        E 80 80 3e 00
        E 0 80 4a 00
        E 0 80 56 00
        E 0 80 62 00
        E 0 90 60 60
        E 80 80 60 00
        E 0 90 60 60
        E 80 80 60 00
        E 0 90 55 60
        E 0 90 56 60
        E 0 90 61 60
        E 0 90 62 60
        E 120 80 55 00
        E 0 80 56 00
        E 0 80 61 00
        E 0 80 62 00
        E 0 90 60 60
        E 120 80 60 00
        E 0 90 3d 60
        E 0 90 49 60
        E 0 90 55 60
        E 0 90 61 60
        E 80 80 3d 00
        E 0 80 49 00
        E 0 80 55 00
        E 0 80 61 00
        E 0 90 61 60
        E 80 80 61 00
        E 0 90 61 60
        E 80 80 61 00
        E 0 90 55 60
        E 0 90 61 60
        E 80 80 55 00
        E 0 80 61 00
        E 0 90 61 60
        E 80 80 61 00
        E 0 90 61 60
        E 80 80 61 00
        E 0 90 40 60
        E 0 90 48 60
        E 0 90 4c 60
        E 0 90 54 60
        E 0 90 58 60
        E 0 90 60 60
        E 0 90 64 60
        E 120 80 40 00
        E 0 80 48 00
        E 0 80 4c 00
        E 0 80 54 00
        E 0 80 58 00
        E 0 80 60 00
        E 0 80 64 00
        E 120 90 54 60
        E 0 90 56 60
        E 0 90 60 60
        E 0 90 62 60
        E 120 80 54 00
        E 0 80 56 00
        E 0 80 60 00
        E 0 80 62 00
        E 120 90 3e 60
        E 0 90 4a 60
        E 0 90 56 60
        E 0 90 62 60
        E 80 80 3e 00
        E 0 80 4a 00
        E 0 80 56 00
        E 0 80 62 00
        E 0 90 60 60
        E 80 80 60 00
        E 0 90 60 60
        E 80 80 60 00
        E 0 90 55 60
        E 0 90 56 60
        E 0 90 61 60
        E 0 90 62 60
        E 120 80 55 00
        E 0 80 56 00
        E 0 80 61 00
        E 0 80 62 00
        E 120 90 3e 60
        E 0 90 48 60
        E 0 90 4a 60
        E 0 90 54 60
        E 0 90 56 60
        E 0 90 60 60
        E 0 90 62 60
        E 120 80 3e 00
        E 0 80 48 00
        E 0 80 4a 00
        E 0 80 54 00
        E 0 80 56 00
        E 0 80 60 00
        E 0 80 62 00
        E 120 90 54 60
        E 0 90 56 60
        E 0 90 60 60
        E 0 90 62 60
        E 120 80 54 00
        E 0 80 56 00
        E 0 80 60 00
        E 0 80 62 00
        E 120 90 40 60
        E 0 90 48 60
        E 0 90 4c 60
        E 0 90 54 60
        E 0 90 58 60
        E 0 90 60 60
        E 0 90 64 60
        E 120 80 40 00
        E 0 80 48 00
        E 0 80 4c 00
        E 0 80 54 00
        E 0 80 58 00
        E 0 80 60 00
        E 0 80 64 00
        E 120 90 54 60
        E 0 90 56 60
        E 0 90 60 60
        E 0 90 62 60
        E 120 80 54 00
        E 0 80 56 00
        E 0 80 60 00
        E 0 80 62 00
        E 120 90 3e 60
        E 0 90 4a 60
        E 0 90 56 60
        E 0 90 62 60
        E 80 80 3e 00
        E 0 80 4a 00
        E 0 80 56 00
        E 0 80 62 00
        E 0 90 60 60
        E 80 80 60 00
        E 0 90 60 60
        E 80 80 60 00
        E 0 90 55 60
        E 0 90 56 60
        E 0 90 61 60
        E 0 90 62 60
        E 120 80 55 00
        E 0 80 56 00
        E 0 80 61 00
        E 0 80 62 00
        E 120 90 3e 60
        E 0 90 48 60
        E 0 90 4a 60
        E 0 90 54 60
        E 0 90 56 60
        E 0 90 60 60
        E 0 90 62 60
        E 80 80 3e 00
        E 0 80 48 00
        E 0 80 4a 00
        E 0 80 54 00
        E 0 80 56 00
        E 0 80 60 00
        E 0 80 62 00
        E 160 90 54 60
        E 0 90 56 60
        E 0 90 60 60
        E 0 90 62 60
        E 120 80 54 00
        E 0 80 56 00
        E 0 80 60 00
        E 0 80 62 00
        E 120 90 3c 60
        E 0 90 48 60
        E 0 90 54 60
        E 0 90 60 60
        E 0 90 3d 60 1
        E 0 90 49 60 1
        E 0 90 55 60 1
        E 0 90 61 60 1
        E 80 80 3c 00
        E 0 80 48 00
        E 0 80 54 00
        E 0 80 60 00
        E 0 80 3d 00 1
        E 0 80 49 00 1
        E 0 80 55 00 1
        E 0 80 61 00 1
        E 0 90 61 60 1
        E 80 80 61 00 1
        E 0 90 61 60 1
        E 80 80 61 00 1
        E 0 90 55 60 1
        E 0 90 61 60 1
        E 120 80 55 00 1
        E 0 80 61 00 1
        E 0 90 60 60
        E 0 90 61 60 1
        E 80 80 60 00
        E 0 80 61 00 1
        E 0 90 61 60 1
        E 80 80 61 00 1
        E 0 90 61 60 1
        E 80 80 61 00
        E 0 90 61 60
        E 120 80 61 00
        E 0 90 54 60
        E 0 90 55 60
        E 0 90 60 60
        E 0 90 61 60
        E 120 80 54 00
        E 0 80 55 00
        E 0 80 60 00
        E 0 80 61 00
        E 120 90 3d 60
        E 0 90 49 60
        E 0 90 54 60
        E 0 90 55 60
        E 0 90 60 60
        E 0 90 61 60
        E 120 80 3d 00
        E 0 80 49 00
        E 0 80 54 00
        E 0 80 55 00
        E 0 80 60 00
        E 0 80 61 00
        E 120 90 54 60
        E 0 90 55 60
        E 0 90 60 60
        E 0 90 61 60
        E 120 80 54 00
        E 0 80 55 00
        E 0 80 60 00
        E 0 80 61 00
        E 120 90 3d 60
        E 0 90 49 60
        E 0 90 54 60
        E 0 90 55 60
        E 0 90 60 60
        E 0 90 61 60
        E 80 80 3d 00
        E 0 80 49 00
        E 0 80 55 00
        E 0 80 61 00
        E 0 90 61 60
        E 40 80 54 00
        E 0 80 60 00
        E 40 80 61 00
        E 0 90 61 60
        E 80 80 61 00
        E 0 90 55 60
        E 0 90 61 60
        E 120 80 55 00
        E 0 80 61 00
        E 0 90 60 60
        E 0 90 61 60
        E 80 80 61 00
        E 0 90 61 60
        E 40 80 60 00
        E 40 80 61 00
        E 0 90 61 60
        E 80 80 61 00
        E 0 90 61 60
        E 120 80 61 00
        E 0 90 54 60
        E 0 90 55 60
        E 0 90 60 60
        E 0 90 61 60
        E 120 80 54 00
        E 0 80 55 00
        E 0 80 60 00
        E 0 80 61 00
        E 120 90 3d 60
        E 0 90 49 60
        E 0 90 54 60
        E 0 90 55 60
        E 0 90 60 60
        E 0 90 61 60
        E 120 80 3d 00
        E 0 80 49 00
        E 0 80 54 00
        E 0 80 55 00
        E 0 80 60 00
        E 0 80 61 00
        E 120 90 54 60
        E 0 90 55 60
        E 0 90 60 60
        E 0 90 61 60
        E 120 80 54 00
        E 0 80 55 00
        E 0 80 60 00
        E 0 80 61 00
        e 120 90 3c 60
        e 0 90 48 60
        e 0 90 54 60
        e 0 90 60 60
        E 0 90 3d 60 1
        E 0 90 49 60 1
        E 0 90 55 60 1
        E 0 90 61 60 1
        e 80 80 3c 00
        e 0 80 48 00
        e 0 80 54 00
        e 0 80 60 00
        E 0 80 3d 00 1
        E 0 80 49 00 1
        E 0 80 55 00 1
        E 0 80 61 00 1
        E 0 90 61 60 1
        E 80 80 61 00 1
        E 0 90 61 60 1
        E 80 80 61 00 1
        E 0 90 55 60 1
        E 0 90 61 60 1
        E 120 80 55 00
        E 0 80 61 00
        e 0 90 60 60
        E 0 90 61 60
        e 80 80 60 00
        E 0 80 61 00
        E 0 90 61 60
        E 80 80 61 00
        E 0 90 61 60
        E 80 80 61 00
        E 0 90 61 60
        E 120 80 61 00
        E 0 90 54 60
        E 0 90 55 60
        E 0 90 60 60
        E 0 90 61 60
        E 120 80 54 00
        E 0 80 55 00
        E 0 80 60 00
        E 0 80 61 00
        E 120 90 3d 60
        E 0 90 49 60
        E 0 90 54 60
        E 0 90 55 60
        E 0 90 60 60
        E 0 90 61 60
        E 120 80 3d 00
        E 0 80 49 00
        E 0 80 54 00
        E 0 80 55 00
        E 0 80 60 00
        E 0 80 61 00
        E 120 90 54 60
        E 0 90 55 60
        E 0 90 60 60
        E 0 90 61 60
        E 120 80 54 00
        E 0 80 55 00
        E 0 80 60 00
        E 0 80 61 00
        E 0 90 61 60
        E 120 80 61 00
        E 0 90 3d 60
        E 0 90 49 60
        E 0 90 54 60
        E 0 90 55 60
        E 0 90 60 60
        E 0 90 61 60
        E 120 80 3d 00
        E 0 80 49 00
        E 0 80 54 00
        E 0 80 55 00
        E 0 80 60 00
        E 0 80 61 00
        E 0 90 61 60
        E 120 80 61 00
        E 0 90 54 60
        E 0 90 56 60
        E 0 90 60 60
        E 0 90 62 60
        E 0 90 6e 60
        E 120 80 54 00
        E 0 80 56 00
        E 0 80 60 00
        E 0 80 62 00
        E 0 80 6e 00
        E 120 90 3d 60
        E 0 90 49 60
        E 0 90 54 60
        E 0 90 55 60
        E 0 90 60 60
        E 0 90 61 60
        E 120 80 3d 00
        E 0 80 49 00
        E 0 80 54 00
        E 0 80 55 00
        E 0 80 60 00
        E 0 80 61 00
        E 0 90 61 60
        E 120 80 61 00
        E 0 90 54 60
        E 0 90 55 60
        E 0 90 60 60
        E 0 90 61 60
        E 120 80 54 00
        E 0 80 55 00
        E 0 80 60 00
        E 0 80 61 00
        E 0 90 61 60
        E 120 80 61 00
        E 0 90 3e 60
        E 0 90 4a 60
        E 0 90 54 60
        E 0 90 56 60
        E 0 90 60 60
        E 0 90 62 60
        E 0 90 6e 60
        E 120 80 3e 00
        E 0 80 4a 00
        E 0 80 54 00
        E 0 80 56 00
        E 0 80 60 00
        E 0 80 62 00
        E 0 80 6e 00
        E 0 90 62 60
        E 0 90 6e 60
        E 120 80 62 00
        E 0 80 6e 00
        E 0 90 54 60
        E 0 90 57 60
        E 0 90 60 60
        E 0 90 63 60
        E 0 90 6f 60
        E 120 80 54 00
        E 0 80 57 00
        E 0 80 60 00
        E 0 80 63 00
        E 0 80 6f 00
        E 0 90 63 60
        E 0 90 6f 60
        E 120 80 63 00
        E 0 80 6f 00
        E 0 90 40 60
        E 0 90 48 60
        E 0 90 4c 60
        E 0 90 54 60
        E 0 90 58 60
        E 0 90 60 60
        E 0 90 64 60
        E 0 90 74 60
        E 120 80 40 00
        E 0 80 48 00
        E 0 80 4c 00
        E 0 80 54 00
        E 0 80 58 00
        E 0 80 60 00
        E 0 80 64 00
        E 120 90 54 60
        E 0 90 57 60
        E 0 90 60 60
        E 0 90 63 60
        E 120 80 54 00
        E 0 80 57 00
        E 0 80 60 00
        E 0 80 63 00
        E 120 90 3f 60
        E 0 90 4b 60
        E 0 90 57 60
        E 0 90 63 60
        E 80 80 3f 00
        E 0 80 4b 00
        E 0 80 57 00
        E 0 80 63 00
        E 0 90 60 60
        E 80 80 60 00
        E 0 90 60 60
        E 80 80 60 00
        E 0 90 55 60
        E 0 90 57 60
        E 0 90 61 60
        E 0 90 63 60
        E 120 80 55 00
        E 0 80 57 00
        E 0 80 61 00
        E 0 80 63 00
        E 120 90 3f 60
        E 0 90 48 60
        E 0 90 4b 60
        E 0 90 54 60
        E 0 90 57 60
        E 0 90 60 60
        E 0 90 63 60
        E 80 80 3f 00
        E 0 80 48 00
        E 0 80 4b 00
        E 0 80 54 00
        E 0 80 57 00
        E 0 80 60 00
        E 0 80 63 00
        E 160 90 54 60
        E 0 90 57 60
        E 0 90 60 60
        E 0 90 63 60
        E 80 80 54 00
        E 0 80 57 00
        E 0 80 60 00
        E 0 80 63 00
        E 160 90 40 60
        E 0 90 48 60
        E 0 90 4c 60
        E 0 90 54 60
        E 0 90 58 60
        E 0 90 60 60
        E 0 90 64 60
        E 80 80 40 00
        E 0 80 48 00
        E 0 80 4c 00
        E 0 80 54 00
        E 0 80 58 00
        E 0 80 60 00
        E 0 80 64 00
        E 160 90 54 60
        E 0 90 57 60
        E 0 90 60 60
        E 0 90 63 60
        E 80 80 54 00
        E 0 80 57 00
        E 0 80 60 00
        E 0 80 63 00
        E 160 90 3f 60
        E 0 90 4b 60
        E 0 90 57 60
        E 0 90 63 60
        E 80 80 3f 00
        E 0 80 4b 00
        E 0 80 57 00
        E 0 80 63 00
        E 0 90 60 60
        E 80 80 60 00
        E 0 90 60 60
        E 80 80 60 00
        E 0 90 55 60
        E 0 90 57 60
        E 0 90 61 60
        E 0 90 63 60
        E 80 80 55 00
        E 0 80 57 00
        E 0 80 61 00
        E 0 80 63 00
        E 160 90 3d 60
        E 0 90 49 60
        E 0 90 55 60
        E 0 90 61 60
        E 80 80 3d 00
        E 0 80 49 00
        E 0 80 55 00
        E 0 80 61 00
        E 0 90 61 60
        E 80 80 61 00
        E 0 90 61 60
        E 80 80 61 00
        E 0 90 55 60
        E 0 90 61 60
        E 80 80 55 00
        E 0 80 61 00
        E 160 90 40 60
        E 0 90 48 60
        E 0 90 4c 60
        E 0 90 54 60
        E 0 90 58 60
        E 0 90 60 60
        E 0 90 64 60
        E 80 80 40 00
        E 0 80 48 00
        E 0 80 4c 00
        E 0 80 54 00
        E 0 80 58 00
        E 0 80 60 00
        E 0 80 64 00
        E 160 90 54 60
        E 0 90 57 60
        E 0 90 60 60
        E 0 90 63 60
        E 80 80 54 00
        E 0 80 57 00
        E 0 80 60 00
        E 0 80 63 00
        E 160 90 3f 60
        E 0 90 4b 60
        E 0 90 57 60
        E 0 90 63 60
        E 80 80 3f 00
        E 0 80 4b 00
        E 0 80 57 00
        E 0 80 63 00
        E 0 90 60 60
        E 80 80 60 00
        E 0 90 60 60
        E 80 80 60 00
        E 0 90 55 60
        E 0 90 57 60
        E 0 90 61 60
        E 0 90 63 60
        E 80 80 55 00
        E 0 80 57 00
        E 0 80 61 00
        E 0 80 63 00
        E 160 90 3f 60
        E 0 90 48 60
        E 0 90 4b 60
        E 0 90 54 60
        E 0 90 57 60
        E 0 90 60 60
        E 0 90 63 60
        E 80 80 3f 00
        E 0 80 48 00
        E 0 80 4b 00
        E 0 80 54 00
        E 0 80 57 00
        E 0 80 60 00
        E 0 80 63 00
        E 160 90 54 60
        E 0 90 57 60
        E 0 90 60 60
        E 0 90 63 60
        E 80 80 54 00
        E 0 80 57 00
        E 0 80 60 00
        E 0 80 63 00
        E 160 90 3f 60
        E 0 90 48 60
        E 0 90 4b 60
        E 0 90 54 60
        E 0 90 57 60
        E 0 90 60 60
        E 0 90 63 60
        E 80 80 3f 00
        E 0 80 48 00
        E 0 80 4b 00
        E 0 80 54 00
        E 0 80 57 00
        E 0 80 60 00
        E 0 80 63 00
        E 160 90 54 60
        E 0 90 57 60
        E 0 90 60 60
        E 0 90 63 60
        E 80 80 54 00
        E 0 80 57 00
        E 0 80 60 00
        E 0 80 63 00
        E 160 90 3f 60
        E 0 90 4b 60
        E 0 90 57 60
        E 0 90 63 60
        E 80 80 3f 00
        E 0 80 4b 00
        E 0 80 57 00
        E 0 80 63 00
        E 0 90 60 60
        E 80 80 60 00
        E 0 90 60 60
        E 80 80 60 00
        E 0 90 55 60
        E 0 90 57 60
        E 0 90 61 60
        E 0 90 63 60
        E 80 80 55 00
        E 0 80 57 00
        E 0 80 61 00
        E 0 80 63 00
        E 160 90 3e 60
        E 0 90 4a 60
        E 0 90 56 60
        E 0 90 62 60
        E 0 90 6e 60
        E 120 80 3e 00
        E 0 80 4a 00
        E 0 80 56 00
        E 0 80 62 00
        E 0 80 6e 00
        E 0 90 62 60
        E 0 90 6e 60
        E 120 80 62 00
        E 0 80 6e 00
        E 0 90 57 60
        E 0 90 63 60
        E 0 90 6f 60
        E 120 80 57 00
        E 0 80 63 00
        E 0 80 6f 00
        E 0 90 63 60
        E 0 90 6f 60
        E 120 80 74 00
        E 0 80 63 00
        E 0 80 6f 00
        E 0 90 40 60
        E 0 90 48 60
        E 0 90 4c 60
        E 0 90 54 60
        E 0 90 58 60
        E 0 90 60 60
        E 0 90 64 60
        E 80 80 40 00
        E 0 80 48 00
        E 0 80 4c 00
        E 0 80 54 00
        E 0 80 58 00
        E 0 80 60 00
        E 0 80 64 00
        E 160 90 54 60
        E 0 90 57 60
        E 0 90 60 60
        E 0 90 63 60
        E 80 80 54 00
        E 0 80 57 00
        E 0 80 60 00
        E 0 80 63 00
        E 160 90 3f 60
        E 0 90 4b 60
        E 0 90 57 60
        E 0 90 63 60
        E 80 80 3f 00
        E 0 80 4b 00
        E 0 80 57 00
        E 0 80 63 00
        E 0 90 60 60
        E 80 80 60 00
        E 0 90 60 60
        E 80 80 60 00
        E 0 90 55 60
        E 0 90 57 60
        E 0 90 61 60
        E 0 90 63 60
        E 80 80 55 00
        E 0 80 57 00
        E 0 80 61 00
        E 0 80 63 00
        E 160 90 3d 60
        E 0 90 49 60
        E 0 90 55 60
        E 0 90 61 60
        E 80 80 3d 00
        E 0 80 49 00
        E 0 80 55 00
        E 0 80 61 00
        E 0 90 61 60
        E 80 80 61 00
        E 0 90 61 60
        E 80 80 61 00
        E 0 90 55 60
        E 0 90 61 60
        E 80 80 55 00
        E 0 80 61 00
        E 0 90 61 60
        E 80 80 61 00
        E 0 90 61 60
        E 80 80 61 00
        E 0 90 40 60
        E 0 90 48 60
        E 0 90 4c 60
        E 0 90 54 60
        E 0 90 58 60
        E 0 90 60 60
        E 0 90 64 60
        E 80 80 40 00
        E 0 80 48 00
        E 0 80 4c 00
        E 0 80 54 00
        E 0 80 58 00
        E 0 80 60 00
        E 0 80 64 00
        E 160 90 55 60
        E 0 90 61 60
        E 80 80 55 00
        E 0 80 61 00
        E 0 90 61 60
        E 80 80 61 00
        E 0 90 61 60
        E 80 80 61 00
        E 160 90 61 60
        E 80 80 61 00
        E 0 90 54 60
        E 0 90 58 60
        E 0 90 60 60
        E 0 90 64 60
        E 80 80 54 00
        E 0 80 58 00
        E 0 80 60 00
        E 0 80 64 00
        E 40 90 60 60
        E 120 80 60 00
        E 0 90 3d 60
        E 0 90 49 60
        E 0 90 4b 60
        E 0 90 55 60
        E 0 90 57 60
        E 0 90 61 60
        E 0 90 63 60
        E 120 80 3d 00
        E 0 80 49 00
        E 0 80 4b 00
        E 0 80 55 00
        E 0 80 57 00
        E 0 80 61 00
        E 0 80 63 00
        E 120 90 54 60
        E 0 90 57 60
        E 0 90 60 60
        E 0 90 63 60
        E 120 80 54 00
        E 0 80 57 00
        E 0 80 60 00
        E 0 80 63 00
        E 120 90 40 60
        E 0 90 48 60
        E 0 90 4c 60
        E 0 90 54 60
        E 0 90 58 60
        E 0 90 60 60
        E 0 90 64 60
        E 80 80 40 00
        E 0 80 48 00
        E 0 80 4c 00
        E 0 80 54 00
        E 0 80 58 00
        E 0 80 60 00
        E 0 80 64 00
        E 160 90 54 60
        E 0 90 57 60
        E 0 90 60 60
        E 0 90 63 60
        E 80 80 54 00
        E 0 80 57 00
        E 0 80 60 00
        E 0 80 63 00
        E 160 90 3f 60
        E 0 90 4b 60
        E 0 90 57 60
        E 0 90 63 60
        E 80 80 3f 00
        E 0 80 4b 00
        E 0 80 57 00
        E 0 80 63 00
        E 0 90 60 60
        E 80 80 60 00
        E 0 90 60 60
        E 80 80 60 00
        E 0 90 55 60
        E 0 90 57 60
        E 0 90 61 60
        E 0 90 63 60
        E 80 80 55 00
        E 0 80 57 00
        E 0 80 61 00
        E 0 80 63 00
        E 160 90 3f 60
        E 0 90 48 60
        E 0 90 4b 60
        E 0 90 54 60
        E 0 90 57 60
        E 0 90 60 60
        E 0 90 63 60
        E 80 80 3f 00
        E 0 80 48 00
        E 0 80 4b 00
        E 0 80 54 00
        E 0 80 57 00
        E 0 80 60 00
        E 0 80 63 00
        E 160 90 54 60
        E 0 90 57 60
        E 0 90 60 60
        E 0 90 63 60
        E 80 80 54 00
        E 0 80 57 00
        E 0 80 60 00
        E 0 80 63 00
        E 160 90 3f 60
        E 0 90 48 60
        E 0 90 4b 60
        E 0 90 54 60
        E 0 90 57 60
        E 0 90 60 60
        E 0 90 63 60
        E 0 90 78 60
        E 0 90 79 60
        E 0 90 7a 60
        E 0 90 7b 60
        E 0 90 7c 60
        E 80 80 3f 00
        E 0 80 48 00
        E 0 80 4b 00
        E 0 80 54 00
        E 0 80 57 00
        E 0 80 60 00
        E 0 80 63 00
        E 160 90 54 60
        E 0 90 57 60
        E 0 90 60 60
        E 0 90 63 60
        E 80 80 54 00
        E 0 80 57 00
        E 0 80 60 00
        E 0 80 63 00
        E 160 90 3f 60
        E 0 90 4b 60
        E 0 90 57 60
        E 0 90 63 60
        E 80 80 3f 00
        E 0 80 4b 00
        E 0 80 57 00
        E 0 80 63 00
        E 80 90 60 60
        E 80 80 60 00
        E 0 90 55 60
        E 0 90 57 60
        E 0 90 61 60
        E 0 90 63 60
        E 80 80 55 00
        E 0 80 57 00
        E 0 80 61 00
        E 0 80 63 00
        E 160 90 3d 60
        E 0 90 49 60
        E 0 90 55 60
        E 0 90 61 60
        E 120 80 3d 00
        E 0 80 49 00
        E 0 80 55 00
        E 0 80 61 00
        E 0 90 61 60
        E 120 80 61 00
        E 0 90 56 60
        E 0 90 62 60
        E 0 90 6e 60
        E 120 80 56 00
        E 0 80 62 00
        E 0 80 6e 00
        E 120 80 78 00
        E 0 80 79 00
        E 0 80 7a 00
        E 0 80 7b 00
        E 0 80 7c 00
        E 0 90 40 60
        E 0 90 48 60
        E 0 90 4c 60
        E 0 90 54 60
        E 0 90 58 60
        E 0 90 60 60
        E 0 90 64 60
        E 80 80 40 00
        E 0 80 48 00
        E 0 80 4c 00
        E 0 80 54 00
        E 0 80 58 00
        E 0 80 60 00
        E 0 80 64 00
        E 160 90 54 60
        E 0 90 57 60
        E 0 90 60 60
        E 0 90 63 60
        E 80 80 54 00
        E 0 80 57 00
        E 0 80 60 00
        E 0 80 63 00
        E 160 90 3f 60
        E 0 90 4b 60
        E 0 90 57 60
        E 0 90 63 60
        E 80 80 3f 00
        E 0 80 4b 00
        E 0 80 57 00
        E 0 80 63 00
        E 0 90 60 60
        E 80 80 60 00
        E 0 90 60 60
        E 80 80 60 00
        E 0 90 55 60
        E 0 90 57 60
        E 0 90 61 60
        E 0 90 63 60
        E 80 80 55 00
        E 0 80 57 00
        E 0 80 61 00
        E 0 80 63 00
        E 160 90 3f 60
        E 0 90 48 60
        E 0 90 4b 60
        E 0 90 54 60
        E 0 90 57 60
        E 0 90 60 60
        E 0 90 63 60
        E 80 80 3f 00
        E 0 80 48 00
        E 0 80 4b 00
        E 0 80 54 00
        E 0 80 57 00
        E 0 80 60 00
        E 0 80 63 00
        E 160 90 54 60
        E 0 90 57 60
        E 0 90 60 60
        E 0 90 63 60
        E 80 80 54 00
        E 0 80 57 00
        E 0 80 60 00
        E 0 80 63 00
        E 160 90 40 60
        E 0 90 48 60
        E 0 90 4c 60
        E 0 90 54 60
        E 0 90 58 60
        E 0 90 60 60
        E 0 90 64 60
        E 80 80 40 00
        E 0 80 48 00
        E 0 80 4c 00
        E 0 80 54 00
        E 0 80 58 00
        E 0 80 60 00
        E 0 80 64 00
        E 160 90 54 60
        E 0 90 57 60
        E 0 90 60 60
        E 0 90 63 60
        E 80 80 54 00
        E 0 80 57 00
        E 0 80 60 00
        E 0 80 63 00
        E 160 90 3f 60
        E 0 90 4b 60
        E 0 90 57 60
        E 0 90 63 60
        E 80 80 3f 00
        E 0 80 4b 00
        E 0 80 57 00
        E 0 80 63 00
        E 0 90 60 60
        E 80 80 60 00
        E 0 90 60 60
        E 80 80 60 00
        E 0 90 55 60
        E 0 90 57 60
        E 0 90 61 60
        E 0 90 63 60
        E 80 80 55 00
        E 0 80 57 00
        E 0 80 61 00
        E 0 80 63 00
        E 160 90 3e 60
        E 0 90 4a 60
        E 0 90 56 60
        E 0 90 62 60
        E 0 90 6e 60
        E 80 80 3e 00
        E 0 80 4a 00
        E 0 80 56 00
        E 0 80 62 00
        E 0 80 6e 00
        E 0 90 62 60
        E 0 90 6e 60
        E 80 80 62 00
        E 0 80 6e 00
        E 0 90 62 60
        E 0 90 6e 60
        E 80 80 62 00
        E 0 80 6e 00
        E 0 90 57 60
        E 0 90 63 60
        E 0 90 6f 60
        E 80 80 57 00
        E 0 80 63 00
        E 0 80 6f 00
        E 0 90 63 60
        E 0 90 6f 60
        E 80 80 63 00
        E 0 80 6f 00
        E 0 90 63 60
        E 0 90 6f 60
        E 80 80 63 00
        E 0 80 6f 00
        E 0 90 40 60
        E 0 90 48 60
        E 0 90 4c 60
        E 0 90 54 60
        E 0 90 58 60
        E 0 90 60 60
        E 0 90 64 60
        E 80 80 40 00
        E 0 80 48 00
        E 0 80 4c 00
        E 0 80 54 00
        E 0 80 58 00
        E 0 80 60 00
        E 0 80 64 00
        E 160 90 54 60
        E 0 90 57 60
        E 0 90 60 60
        E 0 90 63 60
        E 80 80 54 00
        E 0 80 57 00
        E 0 80 60 00
        E 0 80 63 00
        E 160 90 3f 60
        E 0 90 4b 60
        E 0 90 57 60
        E 0 90 63 60
        E 80 80 3f 00
        E 0 80 4b 00
        E 0 80 57 00
        E 0 80 63 00
        E 0 90 60 60
        E 80 80 60 00
        E 0 90 60 60
        E 80 80 60 00
        E 0 90 55 60
        E 0 90 57 60
        E 0 90 61 60
        E 0 90 63 60
        E 80 80 55 00
        E 0 80 57 00
        E 0 80 61 00
        E 0 80 63 00
        E 160 90 3e 60
        E 0 90 4a 60
        E 0 90 56 60
        E 0 90 62 60
        E 0 90 6e 60
        E 80 80 3e 00
        E 0 80 4a 00
        E 0 80 56 00
        E 0 80 62 00
        E 0 80 6e 00
        E 0 90 62 60
        E 0 90 6e 60
        E 80 80 62 00
        E 0 80 6e 00
        E 0 90 62 60
        E 0 90 6e 60
        E 80 80 62 00
        E 0 80 6e 00
        E 0 90 55 60
        E 0 90 61 60
        E 120 80 55 00
        E 0 80 61 00
        E 0 90 61 60
        E 120 80 61 00
        E 0 90 40 60
        E 0 90 48 60
        E 0 90 4c 60
        E 0 90 54 60
        E 0 90 58 60
        E 0 90 60 60
        E 0 90 64 60
        E 80 80 40 00
        E 0 80 48 00
        E 0 80 4c 00
        E 0 80 54 00
        E 0 80 58 00
        E 0 80 60 00
        E 0 80 64 00
        E 160 90 54 60
        E 0 90 57 60
        E 0 90 60 60
        E 0 90 63 60
        E 80 80 54 00
        E 0 80 57 00
        E 0 80 60 00
        E 0 80 63 00
        E 160 90 3f 60
        E 0 90 4b 60
        E 0 90 57 60
        E 0 90 63 60
        E 80 80 3f 00
        E 0 80 4b 00
        E 0 80 57 00
        E 0 80 63 00
        E 0 90 60 60
        E 80 80 60 00
        E 0 90 60 60
        E 80 80 60 00
        E 0 90 55 60
        E 0 90 57 60
        E 0 90 61 60
        E 0 90 63 60
        E 80 80 55 00
        E 0 80 57 00
        E 0 80 61 00
        E 0 80 63 00
        E 160 90 3d 60
        E 0 90 49 60
        E 0 90 55 60
        E 0 90 61 60
        E 120 80 3d 00
        E 0 80 49 00
        E 0 80 55 00
        E 0 80 61 00
        E 0 90 61 60
        E 120 80 61 00
        E 0 90 56 60
        E 0 90 62 60
        E 0 90 6e 60
        E 120 80 56 00
        E 0 80 62 00
        E 0 80 6e 00
        E 120 90 40 60
        E 0 90 48 60
        E 0 90 4c 60
        E 0 90 54 60
        E 0 90 58 60
        E 0 90 60 60
        E 0 90 64 60
        E 80 80 40 00
        E 0 80 48 00
        E 0 80 4c 00
        E 0 80 54 00
        E 0 80 58 00
        E 0 80 60 00
        E 0 80 64 00
        E 160 90 54 60
        E 0 90 57 60
        E 0 90 60 60
        E 0 90 63 60
        E 80 80 54 00
        E 0 80 57 00
        E 0 80 60 00
        E 0 80 63 00
        E 160 90 3f 60
        E 0 90 4b 60
        E 0 90 57 60
        E 0 90 63 60
        E 80 80 3f 00
        E 0 80 4b 00
        E 0 80 57 00
        E 0 80 63 00
        E 0 90 60 60
        E 80 80 60 00
        E 0 90 60 60
        E 80 80 60 00
        E 0 90 55 60
        E 0 90 57 60
        E 0 90 61 60
        E 0 90 63 60
        E 80 80 55 00
        E 0 80 57 00
        E 0 80 61 00
        E 0 80 63 00
        E 160 90 3f 60
        E 0 90 48 60
        E 0 90 4b 60
        E 0 90 54 60
        E 0 90 57 60
        E 0 90 60 60
        E 0 90 63 60
        E 80 80 3f 00
        E 0 80 48 00
        E 0 80 4b 00
        E 0 80 54 00
        E 0 80 57 00
        E 0 80 60 00
        E 0 80 63 00
        E 160 90 54 60
        E 0 90 57 60
        E 0 90 60 60
        E 0 90 63 60
        E 80 80 54 00
        E 0 80 57 00
        E 0 80 60 00
        E 0 80 63 00
        E 160 90 40 60
        E 0 90 48 60
        E 0 90 4c 60
        E 0 90 54 60
        E 0 90 58 60
        E 0 90 60 60
        E 0 90 64 60
        E 0 90 78 60
        E 0 90 79 60
        E 0 90 7a 60
        E 0 90 7b 60
        E 0 90 7c 60
        E 80 80 40 00
        E 0 80 48 00
        E 0 80 4c 00
        E 0 80 54 00
        E 0 80 58 00
        E 0 80 60 00
        E 0 80 64 00
        E 160 90 54 60
        E 0 90 57 60
        E 0 90 60 60
        E 0 90 63 60
        E 80 80 54 00
        E 0 80 57 00
        E 0 80 60 00
        E 0 80 63 00
        E 160 90 3f 60
        E 0 90 4b 60
        E 0 90 57 60
        E 0 90 63 60
        E 80 80 3f 00
        E 0 80 4b 00
        E 0 80 57 00
        E 0 80 63 00
        E 0 90 60 60
        E 80 80 60 00
        E 0 90 60 60
        E 80 80 60 00
        E 0 90 55 60
        E 0 90 57 60
        E 0 90 61 60
        E 0 90 63 60
        E 80 80 55 00
        E 0 80 57 00
        E 0 80 61 00
        E 0 80 63 00
        E 160 90 3d 60
        E 0 90 49 60
        E 0 90 55 60
        E 0 90 61 60
        E 120 80 3d 00
        E 0 80 49 00
        E 0 80 55 00
        E 0 80 61 00
        E 0 90 61 60
        E 120 80 61 00
        E 240 80 78 00
        E 0 80 79 00
        E 0 80 7a 00
        E 0 80 7b 00
        E 0 80 7c 00
        E 0 90 40 60
        E 0 90 48 60
        E 0 90 4c 60
        E 0 90 54 60
        E 0 90 58 60
        E 0 90 60 60
        E 0 90 64 60
        E 80 80 40 00
        E 0 80 48 00
        E 0 80 4c 00
        E 0 80 54 00
        E 0 80 58 00
        E 0 80 60 00
        E 0 80 64 00
        E 160 90 54 60
        E 0 90 57 60
        E 0 90 60 60
        E 0 90 63 60
        E 80 80 54 00
        E 0 80 57 00
        E 0 80 60 00
        E 0 80 63 00
        E 160 90 3f 60
        E 0 90 4b 60
        E 0 90 57 60
        E 0 90 63 60
        E 80 80 3f 00
        E 0 80 4b 00
        E 0 80 57 00
        E 0 80 63 00
        E 0 90 60 60
        E 80 80 60 00
        E 0 90 60 60
        E 80 80 60 00
        E 0 90 55 60
        E 0 90 58 60
        E 0 90 61 60
        E 0 90 64 60
        E 80 80 55 00
        E 0 80 58 00
        E 0 80 61 00
        E 0 80 64 00
        E 160 90 3f 60
        E 0 90 48 60
        E 0 90 4b 60
        E 0 90 54 60
        E 0 90 57 60
        E 0 90 60 60
        E 0 90 63 60
        E 80 80 3f 00
        E 0 80 48 00
        E 0 80 4b 00
        E 0 80 54 00
        E 0 80 57 00
        E 0 80 60 00
        E 0 80 63 00
        E 160 90 54 60
        E 0 90 57 60
        E 0 90 60 60
        E 0 90 63 60
        E 80 80 54 00
        E 0 80 57 00
        E 0 80 60 00
        E 0 80 63 00
        E 160 90 40 60
        E 0 90 48 60
        E 0 90 4c 60
        E 0 90 54 60
        E 0 90 58 60
        E 0 90 60 60
        E 0 90 64 60
        E 80 80 40 00
        E 0 80 48 00
        E 0 80 4c 00
        E 0 80 54 00
        E 0 80 58 00
        E 0 80 60 00
        E 0 80 64 00
        E 160 90 55 60
        E 0 90 61 60
        E 120 80 55 00
        E 0 80 61 00
        E 0 90 61 60
        E 120 80 61 00
        E 120 90 61 60
        E 120 80 61 00
        E 0 90 54 60
        E 0 90 55 60
        E 0 90 60 60
        E 0 90 61 60
        E 120 80 54 00
        E 0 80 55 00
        E 0 80 60 00
        E 0 80 61 00
        E 0 90 61 60
        E 120 80 61 00
        E 0 90 3d 60
        E 0 90 49 60
        E 0 90 54 60
        E 0 90 55 60
        E 0 90 60 60
        E 0 90 61 60
        E 120 80 3d 00
        E 0 80 49 00
        E 0 80 54 00
        E 0 80 55 00
        E 0 80 60 00
        E 0 80 61 00
        E 0 90 61 60
        E 120 80 61 00
        E 0 90 54 60
        E 0 90 60 60
        E 120 80 54 00
        E 0 80 60 00
        E 0 90 61 60
        E 120 80 61 00
        E 0 90 40 60
        E 0 90 48 60
        E 0 90 4c 60
        E 0 90 54 60
        E 0 90 58 60
        E 0 90 60 60
        E 0 90 64 60
        E 80 80 40 00
        E 0 80 48 00
        E 0 80 4c 00
        E 0 80 54 00
        E 0 80 58 00
        E 0 80 60 00
        E 0 80 64 00
        E 80 90 60 60
        E 80 80 60 00
        E 0 90 54 60
        E 0 90 58 60
        E 0 90 60 60
        E 0 90 64 60
        E 80 80 54 00
        E 0 80 58 00
        E 0 80 60 00
        E 0 80 64 00
        E 160 90 40 60
        E 0 90 4c 60
        E 0 90 58 60
        E 0 90 64 60
        E 80 80 40 00
        E 0 80 4c 00
        E 0 80 58 00
        E 0 80 64 00
        E 0 90 60 60
        E 80 80 60 00
        E 0 90 60 60
        E 80 80 60 00
        E 0 90 55 60
        E 0 90 58 60
        E 0 90 61 60
        E 0 90 64 60
        E 80 80 55 00
        E 0 80 58 00
        E 0 80 61 00
        E 0 80 64 00
        E 160 90 40 60
        E 0 90 4c 60
        E 0 90 58 60
        E 0 90 64 60
        E 80 80 40 00
        E 0 80 4c 00
        E 0 80 58 00
        E 0 80 64 00
        E 160 90 54 60
        E 0 90 58 60
        E 0 90 60 60
        E 0 90 64 60
        E 80 80 54 00
        E 0 80 58 00
        E 0 80 60 00
        E 0 80 64 00
        E 160 90 40 60
        E 0 90 48 60
        E 0 90 4c 60
        E 0 90 54 60
        E 0 90 58 60
        E 0 90 60 60
        E 0 90 64 60
        E 80 80 40 00
        E 0 80 48 00
        E 0 80 4c 00
        E 0 80 54 00
        E 0 80 58 00
        E 0 80 60 00
        E 0 80 64 00
        E 160 90 54 60
        E 0 90 58 60
        E 0 90 60 60
        E 0 90 64 60
        E 80 80 54 00
        E 0 80 58 00
        E 0 80 60 00
        E 0 80 64 00
        E 160 90 40 60
        E 0 90 4c 60
        E 0 90 58 60
        E 0 90 64 60
        E 80 80 40 00
        E 0 80 4c 00
        E 0 80 58 00
        E 0 80 64 00
        E 0 90 60 60
        E 80 80 60 00
        E 0 90 60 60
        E 80 80 60 00
        E 0 90 55 60
        E 0 90 58 60
        E 0 90 61 60
        E 0 90 64 60
        E 80 80 55 00
        E 0 80 58 00
        E 0 80 61 00
        E 0 80 64 00
        E 160 90 3f 60
        E 0 90 4b 60
        E 0 90 57 60
        E 0 90 63 60
        E 80 80 3f 00
        E 0 80 4b 00
        E 0 80 57 00
        E 0 80 63 00
        E 80 90 61 60
        E 80 80 61 00
        E 0 90 54 60
        E 0 90 57 60
        E 0 90 60 60
        E 0 90 63 60
        E 80 80 54 00
        E 0 80 57 00
        E 0 80 60 00
        E 0 80 63 00
        E 160 90 40 60
        E 0 90 48 60
        E 0 90 4c 60
        E 0 90 54 60
        E 0 90 58 60
        E 0 90 60 60
        E 0 90 64 60
        E 80 80 40 00
        E 0 80 48 00
        E 0 80 4c 00
        E 0 80 54 00
        E 0 80 58 00
        E 0 80 60 00
        E 0 80 64 00
        E 160 90 54 60
        E 0 90 58 60
        E 0 90 60 60
        E 0 90 64 60
        E 80 80 54 00
        E 0 80 58 00
        E 0 80 60 00
        E 0 80 64 00
        E 160 90 40 60
        E 0 90 4c 60
        E 0 90 58 60
        E 0 90 64 60
        E 80 80 40 00
        E 0 80 4c 00
        E 0 80 58 00
        E 0 80 64 00
        E 0 90 60 60
        E 80 80 60 00
        E 0 90 60 60
        E 80 80 60 00
        E 0 90 55 60
        E 0 90 58 60
        E 0 90 61 60
        E 0 90 64 60
        E 80 80 55 00
        E 0 80 58 00
        E 0 80 61 00
        E 0 80 64 00
        E 400 90 54 60
        E 0 90 58 60
        E 0 90 60 60
        E 0 90 64 60
        E 80 80 54 00
        E 0 80 58 00
        E 0 80 60 00
        E 0 80 64 00
        E 160 90 3d 60
        E 0 90 49 60
        E 0 90 55 60
        E 0 90 61 60
        E 80 80 3d 00
        E 0 80 49 00
        E 0 80 55 00
        E 0 80 61 00
        E 0 90 61 60
        E 80 80 61 00
        E 0 90 61 60
        E 80 80 61 00
        E 0 90 55 60
        E 0 90 61 60
        E 120 80 55 00
        E 0 80 61 00
        E 0 90 61 60
        E 120 80 61 00
        E 0 90 3e 60
        E 0 90 4a 60
        E 0 90 54 60
        E 0 90 56 60
        E 0 90 60 60
        E 0 90 62 60
        E 0 90 6e 60
        E 120 80 3e 00
        E 0 80 4a 00
        E 0 80 54 00
        E 0 80 56 00
        E 0 80 60 00
        E 0 80 62 00
        E 0 80 6e 00
        E 0 90 62 60
        E 0 90 6e 60
        E 120 80 62 00
        E 0 80 6e 00
        E 0 90 54 60
        E 0 90 55 60
        E 0 90 60 60
        E 0 90 61 60
        E 120 80 54 00
        E 0 80 55 00
        E 0 80 60 00
        E 0 80 61 00
        E 0 90 61 60
        E 120 80 61 00
        E 0 90 3d 60
        E 0 90 49 60
        E 0 90 54 60
        E 0 90 55 60
        E 0 90 60 60
        E 0 90 61 60
        E 120 80 3d 00
        E 0 80 49 00
        E 0 80 54 00
        E 0 80 55 00
        E 0 80 60 00
        E 0 80 61 00
        E 0 90 61 60
        E 120 80 61 00
        E 0 90 54 60
        E 0 90 55 60
        E 0 90 60 60
        E 0 90 61 60
        E 120 80 54 00
        E 0 80 55 00
        E 0 80 60 00
        E 0 80 61 00
        E 0 90 61 60
        E 120 80 61 00
        E 0 90 40 60
        E 0 90 48 60
        E 0 90 4c 60
        E 0 90 54 60
        E 0 90 58 60
        E 0 90 60 60
        E 0 90 64 60
        E 0 90 74 60
        E 80 80 40 00
        E 0 80 48 00
        E 0 80 4c 00
        E 0 80 54 00
        E 0 80 58 00
        E 0 80 60 00
        E 0 80 64 00
        E 160 90 54 60
        E 0 90 58 60
        E 0 90 60 60
        E 0 90 64 60
        E 80 80 54 00
        E 0 80 58 00
        E 0 80 60 00
        E 0 80 64 00
        E 160 90 40 60
        E 0 90 4c 60
        E 0 90 58 60
        E 0 90 64 60
        E 80 80 40 00
        E 0 80 4c 00
        E 0 80 58 00
        E 0 80 64 00
        E 0 90 60 60
        E 80 80 60 00
        E 0 90 60 60
        E 80 80 60 00
        E 0 90 55 60
        E 0 90 58 60
        E 0 90 61 60
        E 0 90 64 60
        E 80 80 55 00
        E 0 80 58 00
        E 0 80 61 00
        E 0 80 64 00
        E 400 90 54 60
        E 0 90 57 60
        E 0 90 60 60
        E 0 90 63 60
        E 80 80 54 00
        E 0 80 57 00
        E 0 80 60 00
        E 0 80 63 00
        E 160 90 40 60
        E 0 90 48 60
        E 0 90 4c 60
        E 0 90 54 60
        E 0 90 58 60
        E 0 90 60 60
        E 0 90 64 60
        E 80 80 40 00
        E 0 80 48 00
        E 0 80 4c 00
        E 0 80 54 00
        E 0 80 58 00
        E 0 80 60 00
        E 0 80 64 00
        E 160 90 54 60
        E 0 90 57 60
        E 0 90 60 60
        E 0 90 63 60
        E 80 80 54 00
        E 0 80 57 00
        E 0 80 60 00
        E 0 80 63 00
        E 40 90 60 60
        E 120 80 60 00
        E 0 90 3f 60
        E 0 90 4b 60
        E 0 90 57 60
        E 0 90 63 60
        E 80 80 3f 00
        E 0 80 4b 00
        E 0 80 57 00
        E 0 80 63 00
        E 0 90 60 60
        E 80 80 60 00
        E 0 90 60 60
        E 80 80 60 00
        E 0 90 55 60
        E 0 90 57 60
        E 0 90 61 60
        E 0 90 63 60
        E 80 80 55 00
        E 0 80 57 00
        E 0 80 61 00
        E 0 80 63 00
        E 160 90 3f 60
        E 0 90 4b 60
        E 0 90 57 60
        E 0 90 63 60
        E 80 80 3f 00
        E 0 80 4b 00
        E 0 80 57 00
        E 0 80 63 00
        E 160 90 54 60
        E 0 90 57 60
        E 0 90 60 60
        E 0 90 63 60
        E 120 80 54 00
        E 0 80 57 00
        E 0 80 60 00
        E 0 80 63 00
        E 0 90 60 60
        E 120 80 60 00
        E 0 90 40 60
        E 0 90 48 60
        E 0 90 4c 60
        E 0 90 54 60
        E 0 90 58 60
        E 0 90 60 60
        E 0 90 64 60
        E 80 80 40 00
        E 0 80 48 00
        E 0 80 4c 00
        E 0 80 54 00
        E 0 80 58 00
        E 0 80 60 00
        E 0 80 64 00
        E 160 90 54 60
        E 0 90 57 60
        E 0 90 60 60
        E 0 90 63 60
        E 80 80 54 00
        E 0 80 57 00
        E 0 80 60 00
        E 0 80 63 00
        E 160 90 3f 60
        E 0 90 4b 60
        E 0 90 57 60
        E 0 90 63 60
        E 80 80 3f 00
        E 0 80 4b 00
        E 0 80 57 00
        E 0 80 63 00
        E 0 90 60 60
        E 80 80 60 00
        E 0 90 60 60
        E 80 80 60 00
        E 0 90 55 60
        E 0 90 58 60
        E 0 90 61 60
        E 0 90 64 60
        E 80 80 55 00
        E 0 80 58 00
        E 0 80 61 00
        E 0 80 64 00
        E 400 90 54 60
        E 0 90 58 60
        E 0 90 60 60
        E 0 90 64 60
        E 80 80 54 00
        E 0 80 58 00
        E 0 80 60 00
        E 0 80 64 00
        E 160 90 3d 60
        E 0 90 49 60
        E 0 90 55 60
        E 0 90 61 60
        E 120 80 3d 00
        E 0 80 49 00
        E 0 80 55 00
        E 0 80 61 00
        E 0 90 61 60
        E 120 80 61 00
        E 0 90 54 60
        E 0 90 55 60
        E 0 90 60 60
        E 0 90 61 60
        E 120 80 54 00
        E 0 80 55 00
        E 0 80 60 00
        E 0 80 61 00
        E 0 90 61 60
        E 120 80 61 00
        E 0 90 3d 60
        E 0 90 49 60
        E 0 90 54 60
        E 0 90 55 60
        E 0 90 60 60
        E 0 90 61 60
        E 120 80 3d 00
        E 0 80 49 00
        E 0 80 54 00
        E 0 80 55 00
        E 0 80 60 00
        E 0 80 61 00
        E 0 90 61 60
        E 120 80 61 00
        E 0 90 54 60
        E 0 90 55 60
        E 0 90 60 60
        E 0 90 61 60
        E 120 80 54 00
        E 0 80 55 00
        E 0 80 60 00
        E 0 80 61 00
        E 0 90 61 60
        E 120 80 61 00
        E 0 90 3d 60
        E 0 90 49 60
        E 0 90 54 60
        E 0 90 55 60
        E 0 90 60 60
        E 0 90 61 60
        E 120 80 3d 00
        E 0 80 49 00
        E 0 80 54 00
        E 0 80 55 00
        E 0 80 60 00
        E 0 80 61 00
        E 0 90 61 60
        E 120 80 61 00
        E 0 90 54 60
        E 0 90 55 60
        E 0 90 60 60
        E 0 90 61 60
        E 120 80 54 00
        E 0 80 55 00
        E 0 80 60 00
        E 0 80 61 00
        E 0 90 61 60
        E 120 80 74 00
        E 0 80 61 00
        E 0 90 40 60
        E 0 90 48 60
        E 0 90 4c 60
        E 0 90 54 60
        E 0 90 58 60
        E 0 90 60 60
        E 0 90 64 60
        E 80 80 40 00
        E 0 80 48 00
        E 0 80 4c 00
        E 0 80 54 00
        E 0 80 58 00
        E 0 80 60 00
        E 0 80 64 00
        E 160 90 54 60
        E 0 90 56 60
        E 0 90 60 60
        E 0 90 62 60
        E 80 80 54 00
        E 0 80 56 00
        E 0 80 60 00
        E 0 80 62 00
        E 160 90 3e 60
        E 0 90 4a 60
        E 0 90 56 60
        E 0 90 62 60
        E 80 80 3e 00
        E 0 80 4a 00
        E 0 80 56 00
        E 0 80 62 00
        E 0 90 60 60
        E 80 80 60 00
        E 0 90 60 60
        E 80 80 60 00
        E 0 90 55 60
        E 0 90 56 60
        E 0 90 61 60
        E 0 90 62 60
        E 80 80 55 00
        E 0 80 56 00
        E 0 80 61 00
        E 0 80 62 00
        E 160 90 3e 60
        E 0 90 4a 60
        E 0 90 56 60
        E 0 90 62 60
        E 80 80 3e 00
        E 0 80 4a 00
        E 0 80 56 00
        E 0 80 62 00
        E 160 90 54 60
        E 0 90 56 60
        E 0 90 60 60
        E 0 90 62 60
        E 80 80 54 00
        E 0 80 56 00
        E 0 80 60 00
        E 0 80 62 00
        E 160 90 3e 60
        E 0 90 48 60
        E 0 90 4a 60
        E 0 90 54 60
        E 0 90 56 60
        E 0 90 60 60
        E 0 90 62 60
        E 80 80 3e 00
        E 0 80 48 00
        E 0 80 4a 00
        E 0 80 54 00
        E 0 80 56 00
        E 0 80 60 00
        E 0 80 62 00
        E 160 90 54 60
        E 0 90 56 60
        E 0 90 60 60
        E 0 90 62 60
        E 80 80 54 00
        E 0 80 56 00
        E 0 80 60 00
        E 0 80 62 00
        E 160 90 3e 60
        E 0 90 4a 60
        E 0 90 56 60
        E 0 90 62 60
        E 80 80 3e 00
        E 0 80 4a 00
        E 0 80 56 00
        E 0 80 62 00
        E 0 90 60 60
        E 80 80 60 00
        E 0 90 60 60
        E 80 80 60 00
        E 0 90 55 60
        E 0 90 56 60
        E 0 90 61 60
        E 0 90 62 60
        E 80 80 55 00
        E 0 80 56 00
        E 0 80 61 00
        E 0 80 62 00
        E 160 90 3e 60
        E 0 90 48 60
        E 0 90 4a 60
        E 0 90 54 60
        E 0 90 56 60
        E 0 90 60 60
        E 0 90 62 60
        E 80 80 3e 00
        E 0 80 48 00
        E 0 80 4a 00
        E 0 80 54 00
        E 0 80 56 00
        E 0 80 60 00
        E 0 80 62 00
        E 160 90 54 60
        E 0 90 56 60
        E 0 90 60 60
        E 0 90 62 60
        E 80 80 54 00
        E 0 80 56 00
        E 0 80 60 00
        E 0 80 62 00
        E 160 90 3e 60
        E 0 90 48 60
        E 0 90 4a 60
        E 0 90 54 60
        E 0 90 56 60
        E 0 90 60 60
        E 0 90 62 60
        E 120 80 3e 00
        E 0 80 48 00
        E 0 80 4a 00
        E 0 80 54 00
        E 0 80 56 00
        E 0 80 60 00
        E 0 80 62 00
        E 0 90 61 60
        E 120 80 61 00
        E 0 90 55 60
        E 0 90 61 60
        E 120 80 55 00
        E 0 80 61 00
        E 0 90 60 60
        E 0 90 62 60
        E 120 80 60 00
        E 0 80 62 00
        E 0 90 3d 60
        E 0 90 49 60
        E 0 90 55 60
        E 0 90 61 60
        E 120 80 3d 00
        E 0 80 49 00
        E 0 80 55 00
        E 0 80 61 00
        E 0 90 61 60
        E 120 80 61 00
        E 0 90 54 60
        E 0 90 56 60
        E 0 90 60 60
        E 0 90 62 60
        E 120 80 54 00
        E 0 80 56 00
        E 0 80 60 00
        E 0 80 62 00
        E 0 90 61 60
        E 120 80 61 00
        E 0 90 3e 60
        E 0 90 48 60
        E 0 90 4a 60
        E 0 90 54 60
        E 0 90 56 60
        E 0 90 60 60
        E 0 90 62 60
        E 120 80 3e 00
        E 0 80 48 00
        E 0 80 4a 00
        E 0 80 54 00
        E 0 80 56 00
        E 0 80 60 00
        E 0 80 62 00
        E 0 90 61 60
        E 120 80 61 00
        E 0 90 54 60
        E 0 90 56 60
        E 0 90 60 60
        E 0 90 62 60
        E 120 80 54 00
        E 0 80 56 00
        E 0 80 60 00
        E 0 80 62 00
        E 120 90 3e 60
        E 0 90 48 60
        E 0 90 4a 60
        E 0 90 54 60
        E 0 90 56 60
        E 0 90 60 60
        E 0 90 62 60
        E 0 90 78 60
        E 0 90 79 60
        E 0 90 7a 60
        E 0 90 7b 60
        E 0 90 7c 60
        E 120 80 3e 00
        E 0 80 48 00
        E 0 80 4a 00
        E 0 80 54 00
        E 0 80 56 00
        E 0 80 60 00
        E 0 80 62 00
        E 0 90 61 60
        E 120 80 61 00
        E 0 90 55 60
        E 0 90 61 60
        E 120 80 55 00
        E 0 80 61 00
        E 0 90 60 60
        E 0 90 62 60
        E 120 80 60 00
        E 0 80 62 00
        E 0 90 3d 60
        E 0 90 49 60
        E 0 90 55 60
        E 0 90 61 60
        E 120 80 3d 00
        E 0 80 49 00
        E 0 80 55 00
        E 0 80 61 00
        E 0 90 61 60
        E 120 80 61 00
        E 0 90 54 60
        E 0 90 56 60
        E 0 90 60 60
        E 0 90 62 60
        E 120 80 54 00
        E 0 80 56 00
        E 0 80 60 00
        E 0 80 62 00
        E 120 90 3d 60
        E 0 90 49 60
        E 0 90 55 60
        E 0 90 61 60
        E 120 80 3d 00
        E 0 80 49 00
        E 0 80 55 00
        E 0 80 61 00
        E 0 90 61 60
        E 120 80 61 00
        E 0 90 55 60
        E 0 90 61 60
        E 120 80 55 00
        E 0 80 61 00
        E 0 90 61 60
        E 120 80 78 00
        E 0 80 79 00
        E 0 80 7a 00
        E 0 80 7b 00
        E 0 80 7c 00
        E 0 80 61 00
        E 0 90 40 60
        E 0 90 48 60
        E 0 90 4c 60
        E 0 90 54 60
        E 0 90 58 60
        E 0 90 60 60
        E 0 90 64 60
        E 80 80 40 00
        E 0 80 48 00
        E 0 80 4c 00
        E 0 80 54 00
        E 0 80 58 00
        E 0 80 60 00
        E 0 80 64 00
        E 160 90 54 60
        E 0 90 56 60
        E 0 90 60 60
        E 0 90 62 60
        E 80 80 54 00
        E 0 80 56 00
        E 0 80 60 00
        E 0 80 62 00
        E 160 90 3e 60
        E 0 90 4a 60
        E 0 90 56 60
        E 0 90 62 60
        E 80 80 3e 00
        E 0 80 4a 00
        E 0 80 56 00
        E 0 80 62 00
        E 0 90 60 60
        E 80 80 60 00
        E 0 90 60 60
        E 80 80 60 00
        E 0 90 55 60
        E 0 90 56 60
        E 0 90 61 60
        E 0 90 62 60
        E 80 80 55 00
        E 0 80 56 00
        E 0 80 61 00
        E 0 80 62 00
        E 160 90 3e 60
        E 0 90 4a 60
        E 0 90 56 60
        E 0 90 62 60
        E 80 80 3e 00
        E 0 80 4a 00
        E 0 80 56 00
        E 0 80 62 00
        E 160 90 54 60
        E 0 90 56 60
        E 0 90 60 60
        E 0 90 62 60
        E 80 80 54 00
        E 0 80 56 00
        E 0 80 60 00
        E 0 80 62 00
        E 160 90 3e 60
        E 0 90 48 60
        E 0 90 4a 60
        E 0 90 54 60
        E 0 90 56 60
        E 0 90 60 60
        E 0 90 62 60
        E 80 80 3e 00
        E 0 80 48 00
        E 0 80 4a 00
        E 0 80 54 00
        E 0 80 56 00
        E 0 80 60 00
        E 0 80 62 00
        E 160 90 54 60
        E 0 90 56 60
        E 0 90 60 60
        E 0 90 62 60
        E 80 80 54 00
        E 0 80 56 00
        E 0 80 60 00
        E 0 80 62 00
        E 160 90 3e 60
        E 0 90 4a 60
        E 0 90 56 60
        E 0 90 62 60
        E 80 80 3e 00
        E 0 80 4a 00
        E 0 80 56 00
        E 0 80 62 00
        E 0 90 60 60
        E 80 80 60 00
        E 0 90 60 60
        E 80 80 60 00
        E 0 90 55 60
        E 0 90 56 60
        E 0 90 61 60
        E 0 90 62 60
        E 80 80 55 00
        E 0 80 56 00
        E 0 80 61 00
        E 0 80 62 00
        E 160 90 3e 60
        E 0 90 48 60
        E 0 90 4a 60
        E 0 90 54 60
        E 0 90 56 60
        E 0 90 60 60
        E 0 90 62 60
        E 80 80 3e 00
        E 0 80 48 00
        E 0 80 4a 00
        E 0 80 54 00
        E 0 80 56 00
        E 0 80 60 00
        E 0 80 62 00
        E 160 90 54 60
        E 0 90 56 60
        E 0 90 60 60
        E 0 90 62 60
        E 80 80 54 00
        E 0 80 56 00
        E 0 80 60 00
        E 0 80 62 00
        E 160 90 3e 60
        E 0 90 48 60
        E 0 90 4a 60
        E 0 90 54 60
        E 0 90 56 60
        E 0 90 60 60
        E 0 90 62 60
        E 120 80 3e 00
        E 0 80 48 00
        E 0 80 4a 00
        E 0 80 54 00
        E 0 80 56 00
        E 0 80 60 00
        E 0 80 62 00
        E 0 90 61 60
        E 120 80 61 00
        E 0 90 55 60
        E 0 90 61 60
        E 120 80 55 00
        E 0 80 61 00
        E 0 90 60 60
        E 0 90 62 60
        E 120 80 60 00
        E 0 80 62 00
        E 0 90 3d 60
        E 0 90 49 60
        E 0 90 55 60
        E 0 90 61 60
        E 120 80 3d 00
        E 0 80 49 00
        E 0 80 55 00
        E 0 80 61 00
        E 0 90 61 60
        E 120 80 61 00
        E 0 90 54 60
        E 0 90 56 60
        E 0 90 60 60
        E 0 90 62 60
        E 120 80 54 00
        E 0 80 56 00
        E 0 80 60 00
        E 0 80 62 00
        E 0 90 61 60
        E 120 80 61 00
        E 0 90 3e 60
        E 0 90 48 60
        E 0 90 4a 60
        E 0 90 54 60
        E 0 90 56 60
        E 0 90 60 60
        E 0 90 62 60
        E 120 80 3e 00
        E 0 80 48 00
        E 0 80 4a 00
        E 0 80 54 00
        E 0 80 56 00
        E 0 80 60 00
        E 0 80 62 00
        E 0 90 61 60
        E 120 80 61 00
        E 0 90 54 60
        E 0 90 56 60
        E 0 90 60 60
        E 0 90 62 60
        E 120 80 54 00
        E 0 80 56 00
        E 0 80 60 00
        E 0 80 62 00
        E 120 90 3e 60
        E 0 90 48 60
        E 0 90 4a 60
        E 0 90 54 60
        E 0 90 56 60
        E 0 90 60 60
        E 0 90 62 60
        E 0 90 78 60
        E 0 90 79 60
        E 0 90 7a 60
        E 0 90 7b 60
        E 0 90 7c 60
        E 120 80 3e 00
        E 0 80 48 00
        E 0 80 4a 00
        E 0 80 54 00
        E 0 80 56 00
        E 0 80 60 00
        E 0 80 62 00
        E 0 90 61 60
        E 120 80 61 00
        E 0 90 55 60
        E 0 90 61 60
        E 120 80 55 00
        E 0 80 61 00
        E 0 90 60 60
        E 0 90 62 60
        E 120 80 60 00
        E 0 80 62 00
        E 0 90 3d 60
        E 0 90 49 60
        E 0 90 55 60
        E 0 90 61 60
        E 120 80 3d 00
        E 0 80 49 00
        E 0 80 55 00
        E 0 80 61 00
        E 0 90 61 60
        E 120 80 61 00
        E 0 90 54 60
        E 0 90 56 60
        E 0 90 60 60
        E 0 90 62 60
        E 120 80 54 00
        E 0 80 56 00
        E 0 80 60 00
        E 0 80 62 00
        E 120 90 3d 60
        E 0 90 49 60
        E 0 90 55 60
        E 0 90 61 60
        E 120 80 3d 00
        E 0 80 49 00
        E 0 80 55 00
        E 0 80 61 00
        E 0 90 61 60
        E 120 80 61 00
        E 0 90 55 60
        E 0 90 61 60
        E 120 80 55 00
        E 0 80 61 00
        E 0 90 61 60
        E 120 80 78 00
        E 0 80 79 00
        E 0 80 7a 00
        E 0 80 7b 00
        E 0 80 7c 00
        E 0 80 61 00
        E 0 90 40 60
        E 0 90 48 60
        E 0 90 4c 60
        E 0 90 54 60
        E 0 90 58 60
        E 0 90 60 60
        E 0 90 64 60
        E 80 80 40 00
        E 0 80 48 00
        E 0 80 4c 00
        E 0 80 54 00
        E 0 80 58 00
        E 0 80 60 00
        E 0 80 64 00
        E 160 90 54 60
        E 0 90 56 60
        E 0 90 60 60
        E 0 90 62 60
        E 80 80 54 00
        E 0 80 56 00
        E 0 80 60 00
        E 0 80 62 00
        E 160 90 3e 60
        E 0 90 4a 60
        E 0 90 56 60
        E 0 90 62 60
        E 80 80 3e 00
        E 0 80 4a 00
        E 0 80 56 00
        E 0 80 62 00
        E 0 90 60 60
        E 80 80 60 00
        E 0 90 60 60
        E 80 80 60 00
        E 0 90 55 60
        E 0 90 56 60
        E 0 90 61 60
        E 0 90 62 60
        E 80 80 55 00
        E 0 80 56 00
        E 0 80 61 00
        E 0 80 62 00
        E 160 90 3e 60
        E 0 90 4a 60
        E 0 90 56 60
        E 0 90 62 60
        E 80 80 3e 00
        E 0 80 4a 00
        E 0 80 56 00
        E 0 80 62 00
        E 160 90 54 60
        E 0 90 56 60
        E 0 90 60 60
        E 0 90 62 60
        E 80 80 54 00
        E 0 80 56 00
        E 0 80 60 00
        E 0 80 62 00
        E 160 90 3e 60
        E 0 90 48 60
        E 0 90 4a 60
        E 0 90 54 60
        E 0 90 56 60
        E 0 90 60 60
        E 0 90 62 60
        E 80 80 3e 00
        E 0 80 48 00
        E 0 80 4a 00
        E 0 80 54 00
        E 0 80 56 00
        E 0 80 60 00
        E 0 80 62 00
        E 160 90 54 60
        E 0 90 56 60
        E 0 90 60 60
        E 0 90 62 60
        E 80 80 54 00
        E 0 80 56 00
        E 0 80 60 00
        E 0 80 62 00
        E 160 90 3e 60
        E 0 90 4a 60
        E 0 90 56 60
        E 0 90 62 60
        E 80 80 3e 00
        E 0 80 4a 00
        E 0 80 56 00
        E 0 80 62 00
        E 0 90 60 60
        E 80 80 60 00
        E 0 90 60 60
        E 80 80 60 00
        E 0 90 55 60
        E 0 90 56 60
        E 0 90 61 60
        E 0 90 62 60
        E 80 80 55 00
        E 0 80 56 00
        E 0 80 61 00
        E 0 80 62 00
        E 160 90 3e 60
        E 0 90 48 60
        E 0 90 4a 60
        E 0 90 54 60
        E 0 90 56 60
        E 0 90 60 60
        E 0 90 62 60
        E 80 80 3e 00
        E 0 80 48 00
        E 0 80 4a 00
        E 0 80 54 00
        E 0 80 56 00
        E 0 80 60 00
        E 0 80 62 00
        E 160 90 54 60
        E 0 90 56 60
        E 0 90 60 60
        E 0 90 62 60
        E 80 80 54 00
        E 0 80 56 00
        E 0 80 60 00
        E 0 80 62 00
        E 160 90 3e 60
        E 0 90 48 60
        E 0 90 4a 60
        E 0 90 54 60
        E 0 90 56 60
        E 0 90 60 60
        E 0 90 62 60
        E 120 80 3e 00
        E 0 80 48 00
        E 0 80 4a 00
        E 0 80 54 00
        E 0 80 56 00
        E 0 80 60 00
        E 0 80 62 00
        E 0 90 61 60
        E 120 80 61 00
        E 0 90 55 60
        E 0 90 61 60
        E 120 80 55 00
        E 0 80 61 00
        E 0 90 60 60
        E 0 90 62 60
        E 120 80 60 00
        E 0 80 62 00
        E 0 90 3d 60
        E 0 90 49 60
        E 0 90 55 60
        E 0 90 61 60
        E 120 80 3d 00
        E 0 80 49 00
        E 0 80 55 00
        E 0 80 61 00
        E 0 90 61 60
        E 120 80 61 00
        E 0 90 54 60
        E 0 90 56 60
        E 0 90 60 60
        E 0 90 62 60
        E 120 80 54 00
        E 0 80 56 00
        E 0 80 60 00
        E 0 80 62 00
        E 0 90 61 60
        E 120 80 61 00
        E 0 90 3e 60
        E 0 90 48 60
        E 0 90 4a 60
        E 0 90 54 60
        E 0 90 56 60
        E 0 90 60 60
        E 0 90 62 60
        E 120 80 3e 00
        E 0 80 48 00
        E 0 80 4a 00
        E 0 80 54 00
        E 0 80 56 00
        E 0 80 60 00
        E 0 80 62 00
        E 0 90 61 60
        E 120 80 61 00
        E 0 90 54 60
        E 0 90 56 60
        E 0 90 60 60
        E 0 90 62 60
        E 120 80 54 00
        E 0 80 56 00
        E 0 80 60 00
        E 0 80 62 00
        E 120 90 3e 60
        E 0 90 48 60
        E 0 90 4a 60
        E 0 90 54 60
        E 0 90 56 60
        E 0 90 60 60
        E 0 90 62 60
        E 120 80 3e 00
        E 0 80 48 00
        E 0 80 4a 00
        E 0 80 54 00
        E 0 80 56 00
        E 0 80 60 00
        E 0 80 62 00
        E 0 90 61 60
        E 120 80 61 00
        E 0 90 55 60
        E 0 90 61 60
        E 120 80 55 00
        E 0 80 61 00
        E 0 90 60 60
        E 0 90 62 60
        E 120 80 60 00
        E 0 80 62 00
        E 0 90 3d 60
        E 0 90 49 60
        E 0 90 55 60
        E 0 90 61 60
        E 120 80 3d 00
        E 0 80 49 00
        E 0 80 55 00
        E 0 80 61 00
        E 0 90 61 60
        E 120 80 61 00
        E 0 90 54 60
        E 0 90 56 60
        E 0 90 60 60
        E 0 90 62 60
        E 120 80 54 00
        E 0 80 56 00
        E 0 80 60 00
        E 0 80 62 00
        E 120 90 3e 60
        E 0 90 48 60
        E 0 90 4a 60
        E 0 90 54 60
        E 0 90 56 60
        E 0 90 60 60
        E 0 90 62 60
        E 120 80 3e 00
        E 0 80 48 00
        E 0 80 4a 00
        E 0 80 54 00
        E 0 80 56 00
        E 0 80 60 00
        E 0 80 62 00
        E 0 90 61 60
        E 120 80 61 00
        E 0 90 54 60
        E 0 90 56 60
        E 0 90 60 60
        E 0 90 62 60
        E 120 80 54 00
        E 0 80 56 00
        E 0 80 60 00
        E 0 80 62 00
        E 120 90 40 60
        E 0 90 48 60
        E 0 90 4c 60
        E 0 90 54 60
        E 0 90 58 60
        E 0 90 60 60
        E 0 90 64 60
        E 80 80 40 00
        E 0 80 48 00
        E 0 80 4c 00
        E 0 80 54 00
        E 0 80 58 00
        E 0 80 60 00
        E 0 80 64 00
        E 160 90 54 60
        E 0 90 56 60
        E 0 90 60 60
        E 0 90 62 60
        E 80 80 54 00
        E 0 80 56 00
        E 0 80 60 00
        E 0 80 62 00
        E 160 90 3e 60
        E 0 90 4a 60
        E 0 90 56 60
        E 0 90 62 60
        E 80 80 3e 00
        E 0 80 4a 00
        E 0 80 56 00
        E 0 80 62 00
        E 0 90 60 60
        E 80 80 60 00
        E 0 90 60 60
        E 80 80 60 00
        E 0 90 55 60
        E 0 90 56 60
        E 0 90 61 60
        E 0 90 62 60
        E 80 80 55 00
        E 0 80 56 00
        E 0 80 61 00
        E 0 80 62 00
        E 160 90 3e 60
        E 0 90 4a 60
        E 0 90 56 60
        E 0 90 62 60
        E 80 80 3e 00
        E 0 80 4a 00
        E 0 80 56 00
        E 0 80 62 00
        E 160 90 54 60
        E 0 90 56 60
        E 0 90 60 60
        E 0 90 62 60
        E 80 80 54 00
        E 0 80 56 00
        E 0 80 60 00
        E 0 80 62 00
        E 160 90 3e 60
        E 0 90 48 60
        E 0 90 4a 60
        E 0 90 54 60
        E 0 90 56 60
        E 0 90 60 60
        E 0 90 62 60
        E 80 80 3e 00
        E 0 80 48 00
        E 0 80 4a 00
        E 0 80 54 00
        E 0 80 56 00
        E 0 80 60 00
        E 0 80 62 00
        E 160 90 54 60
        E 0 90 56 60
        E 0 90 60 60
        E 0 90 62 60
        E 80 80 54 00
        E 0 80 56 00
        E 0 80 60 00
        E 0 80 62 00
        E 160 90 3e 60
        E 0 90 4a 60
        E 0 90 56 60
        E 0 90 62 60
        E 80 80 3e 00
        E 0 80 4a 00
        E 0 80 56 00
        E 0 80 62 00
        E 0 90 60 60
        E 80 80 60 00
        E 0 90 60 60
        E 80 80 60 00
        E 0 90 55 60
        E 0 90 56 60
        E 0 90 61 60
        E 0 90 62 60
        E 80 80 55 00
        E 0 80 56 00
        E 0 80 61 00
        E 0 80 62 00
        E 160 90 3e 60
        E 0 90 48 60
        E 0 90 4a 60
        E 0 90 54 60
        E 0 90 56 60
        E 0 90 60 60
        E 0 90 62 60
        E 80 80 3e 00
        E 0 80 48 00
        E 0 80 4a 00
        E 0 80 54 00
        E 0 80 56 00
        E 0 80 60 00
        E 0 80 62 00
        E 160 90 54 60
        E 0 90 56 60
        E 0 90 60 60
        E 0 90 62 60
        E 80 80 54 00
        E 0 80 56 00
        E 0 80 60 00
        E 0 80 62 00
        E 160 90 3e 60
        E 0 90 48 60
        E 0 90 4a 60
        E 0 90 54 60
        E 0 90 56 60
        E 0 90 60 60
        E 0 90 62 60
        E 120 80 3e 00
        E 0 80 48 00
        E 0 80 4a 00
        E 0 80 54 00
        E 0 80 56 00
        E 0 80 60 00
        E 0 80 62 00
        E 0 90 61 60
        E 120 80 61 00
        E 0 90 55 60
        E 0 90 61 60
        E 120 80 55 00
        E 0 80 61 00
        E 0 90 60 60
        E 0 90 62 60
        E 120 80 60 00
        E 0 80 62 00
        E 0 90 3d 60
        E 0 90 49 60
        E 0 90 55 60
        E 0 90 61 60
        E 120 80 3d 00
        E 0 80 49 00
        E 0 80 55 00
        E 0 80 61 00
        E 0 90 61 60
        E 120 80 61 00
        E 0 90 54 60
        E 0 90 56 60
        E 0 90 60 60
        E 0 90 62 60
        E 120 80 54 00
        E 0 80 56 00
        E 0 80 60 00
        E 0 80 62 00
        E 120 90 3d 60
        E 0 90 49 60
        E 0 90 54 60
        E 0 90 55 60
        E 0 90 60 60
        E 0 90 61 60
        E 120 80 3d 00
        E 0 80 49 00
        E 0 80 54 00
        E 0 80 55 00
        E 0 80 60 00
        E 0 80 61 00
        E 0 90 61 60
        E 120 80 61 00
        E 0 90 54 60
        E 0 90 56 60
        E 0 90 60 60
        E 0 90 62 60
        E 0 90 6e 60
        E 120 80 54 00
        E 0 80 56 00
        E 0 80 60 00
        E 0 80 62 00
        E 0 80 6e 00
        E 120 90 3d 60
        E 0 90 49 60
        E 0 90 54 60
        E 0 90 55 60
        E 0 90 60 60
        E 0 90 61 60
        E 120 80 3d 00
        E 0 80 49 00
        E 0 80 54 00
        E 0 80 55 00
        E 0 80 60 00
        E 0 80 61 00
        E 0 90 61 60
        E 120 80 61 00
        E 0 90 54 60
        E 0 90 55 60
        E 0 90 60 60
        E 0 90 61 60
        E 120 80 54 00
        E 0 80 55 00
        E 0 80 60 00
        E 0 80 61 00
        E 0 90 61 60
        E 120 80 61 00
        E 0 90 3d 60
        E 0 90 49 60
        E 0 90 54 60
        E 0 90 55 60
        E 0 90 60 60
        E 0 90 61 60
        E 120 80 3d 00
        E 0 80 49 00
        E 0 80 54 00
        E 0 80 55 00
        E 0 80 60 00
        E 0 80 61 00
        E 0 90 61 60
        E 120 80 61 00
        E 0 90 54 60
        E 0 90 55 60
        E 0 90 60 60
        E 0 90 61 60
        E 120 80 54 00
        E 0 80 55 00
        E 0 80 60 00
        E 0 80 61 00
        E 0 90 61 60
        E 120 80 61 00
        E 0 90 3e 60
        E 0 90 4a 60
        E 0 90 54 60
        E 0 90 56 60
        E 0 90 60 60
        E 0 90 62 60
        E 0 90 6e 60
        E 120 80 3e 00
        E 0 80 4a 00
        E 0 80 54 00
        E 0 80 56 00
        E 0 80 60 00
        E 0 80 62 00
        E 0 80 6e 00
        E 0 90 62 60
        E 0 90 6e 60
        E 120 80 62 00
        E 0 80 6e 00
        E 0 90 54 60
        E 0 90 57 60
        E 0 90 60 60
        E 0 90 63 60
        E 0 90 6f 60
        E 120 80 54 00
        E 0 80 57 00
        E 0 80 60 00
        E 0 80 63 00
        E 0 80 6f 00
        E 0 90 63 60
        E 0 90 6f 60
        E 120 80 63 00
        E 0 80 6f 00
        E 0 90 40 60
        E 0 90 48 60
        E 0 90 4c 60
        E 0 90 54 60
        E 0 90 58 60
        E 0 90 60 60
        E 0 90 64 60
        E 0 90 74 60
        E 80 80 40 00
        E 0 80 48 00
        E 0 80 4c 00
        E 0 80 54 00
        E 0 80 58 00
        E 0 80 60 00
        E 0 80 64 00
        E 160 90 54 60
        E 0 90 57 60
        E 0 90 60 60
        E 0 90 63 60
        E 80 80 54 00
        E 0 80 57 00
        E 0 80 60 00
        E 0 80 63 00
        E 160 90 3f 60
        E 0 90 4b 60
        E 0 90 57 60
        E 0 90 63 60
        E 80 80 3f 00
        E 0 80 4b 00
        E 0 80 57 00
        E 0 80 63 00
        E 0 90 60 60
        E 80 80 60 00
        E 0 90 60 60
        E 80 80 60 00
        E 0 90 55 60
        E 0 90 57 60
        E 0 90 61 60
        E 0 90 63 60
        E 80 80 55 00
        E 0 80 57 00
        E 0 80 61 00
        E 0 80 63 00
        E 160 90 3f 60
        E 0 90 48 60
        E 0 90 4b 60
        E 0 90 54 60
        E 0 90 57 60
        E 0 90 60 60
        E 0 90 63 60
        E 80 80 3f 00
        E 0 80 48 00
        E 0 80 4b 00
        E 0 80 54 00
        E 0 80 57 00
        E 0 80 60 00
        E 0 80 63 00
        E 160 90 54 60
        E 0 90 57 60
        E 0 90 60 60
        E 0 90 63 60
        E 80 80 54 00
        E 0 80 57 00
        E 0 80 60 00
        E 0 80 63 00
        E 160 90 3f 60
        E 0 90 48 60
        E 0 90 4b 60
        E 0 90 54 60
        E 0 90 57 60
        E 0 90 60 60
        E 0 90 63 60
        E 80 80 3f 00
        E 0 80 48 00
        E 0 80 4b 00
        E 0 80 54 00
        E 0 80 57 00
        E 0 80 60 00
        E 0 80 63 00
        E 160 90 54 60
        E 0 90 57 60
        E 0 90 60 60
        E 0 90 63 60
        E 80 80 54 00
        E 0 80 57 00
        E 0 80 60 00
        E 0 80 63 00
        E 160 90 3f 60
        E 0 90 4b 60
        E 0 90 57 60
        E 0 90 63 60
        E 80 80 3f 00
        E 0 80 4b 00
        E 0 80 57 00
        E 0 80 63 00
        E 0 90 60 60
        E 80 80 60 00
        E 0 90 60 60
        E 80 80 60 00
        E 0 90 55 60
        E 0 90 57 60
        E 0 90 61 60
        E 0 90 63 60
        E 120 80 55 00
        E 0 80 57 00
        E 0 80 61 00
        E 0 80 63 00
        E 0 90 60 60
        E 120 80 60 00
        E 0 90 3d 60
        E 0 90 49 60
        E 0 90 55 60
        E 0 90 61 60
        E 120 80 3d 00
        E 0 80 49 00
        E 0 80 55 00
        E 0 80 61 00
        E 0 90 61 60
        E 120 80 61 00
        E 0 90 55 60
        E 0 90 61 60
        E 120 80 55 00
        E 0 80 61 00
        E 120 90 40 60
        E 0 90 48 60
        E 0 90 4c 60
        E 0 90 54 60
        E 0 90 58 60
        E 0 90 60 60
        E 0 90 64 60
        E 80 80 40 00
        E 0 80 48 00
        E 0 80 4c 00
        E 0 80 54 00
        E 0 80 58 00
        E 0 80 60 00
        E 0 80 64 00
        E 160 90 54 60
        E 0 90 57 60
        E 0 90 60 60
        E 0 90 63 60
        E 80 80 54 00
        E 0 80 57 00
        E 0 80 60 00
        E 0 80 63 00
        E 160 90 3f 60
        E 0 90 4b 60
        E 0 90 57 60
        E 0 90 63 60
        E 80 80 3f 00
        E 0 80 4b 00
        E 0 80 57 00
        E 0 80 63 00
        E 0 90 60 60
        E 80 80 60 00
        E 0 90 60 60
        E 80 80 60 00
        E 0 90 55 60
        E 0 90 57 60
        E 0 90 61 60
        E 0 90 63 60
        E 80 80 55 00
        E 0 80 57 00
        E 0 80 61 00
        E 0 80 63 00
        E 160 90 40 60
        E 0 90 48 60
        E 0 90 4c 60
        E 0 90 54 60
        E 0 90 58 60
        E 0 90 60 60
        E 0 90 64 60
        E 80 80 40 00
        E 0 80 48 00
        E 0 80 4c 00
        E 0 80 54 00
        E 0 80 58 00
        E 0 80 60 00
        E 0 80 64 00
        E 160 90 54 60
        E 0 90 56 60
        E 0 90 60 60
        E 0 90 62 60
        E 80 80 54 00
        E 0 80 56 00
        E 0 80 60 00
        E 0 80 62 00
        E 160 90 40 60
        E 0 90 48 60
        E 0 90 4c 60
        E 0 90 54 60
        E 0 90 58 60
        E 0 90 60 60
        E 0 90 64 60
        E 80 80 40 00
        E 0 80 48 00
        E 0 80 4c 00
        E 0 80 54 00
        E 0 80 58 00
        E 0 80 60 00
        E 0 80 64 00
        E 160 90 54 60
        E 0 90 57 60
        E 0 90 60 60
        E 0 90 63 60
        E 80 80 54 00
        E 0 80 57 00
        E 0 80 60 00
        E 0 80 63 00
        E 160 90 3f 60
        E 0 90 4b 60
        E 0 90 57 60
        E 0 90 63 60
        E 80 80 3f 00
        E 0 80 4b 00
        E 0 80 57 00
        E 0 80 63 00
        E 0 90 60 60
        E 80 80 60 00
        E 0 90 60 60
        E 80 80 60 00
        E 0 90 55 60
        E 0 90 57 60
        E 0 90 61 60
        E 0 90 63 60
        E 80 80 55 00
        E 0 80 57 00
        E 0 80 61 00
        E 0 80 63 00
        E 160 90 3f 60
        E 0 90 4b 60
        E 0 90 57 60
        E 0 90 63 60
        E 80 80 3f 00
        E 0 80 4b 00
        E 0 80 57 00
        E 0 80 63 00
        E 40 90 61 60
        E 120 80 61 00
        E 0 90 57 60
        E 0 90 63 60
        E 80 80 57 00
        E 0 80 63 00
        E 160 80 74 00
        E 0 90 40 60
        E 0 90 48 60
        E 0 90 4c 60
        E 0 90 54 60
        E 0 90 58 60
        E 0 90 60 60
        E 0 90 64 60
        E 80 80 40 00
        E 0 80 48 00
        E 0 80 4c 00
        E 0 80 54 00
        E 0 80 58 00
        E 0 80 60 00
        E 0 80 64 00
        E 160 90 54 60
        E 0 90 57 60
        E 0 90 60 60
        E 0 90 63 60
        E 80 80 54 00
        E 0 80 57 00
        E 0 80 60 00
        E 0 80 63 00
        E 160 90 3f 60
        E 0 90 4b 60
        E 0 90 57 60
        E 0 90 63 60
        E 80 80 3f 00
        E 0 80 4b 00
        E 0 80 57 00
        E 0 80 63 00
        E 0 90 60 60
        E 80 80 60 00
        E 0 90 60 60
        E 80 80 60 00
        E 0 90 55 60
        E 0 90 57 60
        E 0 90 61 60
        E 0 90 63 60
        E 80 80 55 00
        E 0 80 57 00
        E 0 80 61 00
        E 0 80 63 00
        E 160 90 3f 60
        E 0 90 48 60
        E 0 90 4b 60
        E 0 90 54 60
        E 0 90 57 60
        E 0 90 60 60
        E 0 90 63 60
        E 80 80 3f 00
        E 0 80 48 00
        E 0 80 4b 00
        E 0 80 54 00
        E 0 80 57 00
        E 0 80 60 00
        E 0 80 63 00
        E 160 90 54 60
        E 0 90 57 60
        E 0 90 60 60
        E 0 90 63 60
        E 80 80 54 00
        E 0 80 57 00
        E 0 80 60 00
        E 0 80 63 00
        E 160 90 3f 60
        E 0 90 48 60
        E 0 90 4b 60
        E 0 90 54 60
        E 0 90 57 60
        E 0 90 60 60
        E 0 90 63 60
        E 80 80 3f 00
        E 0 80 48 00
        E 0 80 4b 00
        E 0 80 54 00
        E 0 80 57 00
        E 0 80 60 00
        E 0 80 63 00
        E 160 90 54 60
        E 0 90 57 60
        E 0 90 60 60
        E 0 90 63 60
        E 80 80 54 00
        E 0 80 57 00
        E 0 80 60 00
        E 0 80 63 00
        E 160 90 3f 60
        E 0 90 4b 60
        E 0 90 57 60
        E 0 90 63 60
        E 80 80 3f 00
        E 0 80 4b 00
        E 0 80 57 00
        E 0 80 63 00
        E 0 90 60 60
        E 80 80 60 00
        E 0 90 60 60
        E 80 80 60 00
        E 0 90 55 60
        E 0 90 57 60
        E 0 90 61 60
        E 0 90 63 60
        E 80 80 55 00
        E 0 80 57 00
        E 0 80 61 00
        E 0 80 63 00
        E 40 90 60 60
        E 120 80 60 00
        E 0 90 3d 60
        E 0 90 49 60
        E 0 90 55 60
        E 0 90 61 60
        E 80 80 3d 00
        E 0 80 49 00
        E 0 80 55 00
        E 0 80 61 00
        E 0 90 61 60
        E 80 80 61 00
        E 0 90 61 60
        E 80 80 61 00
        E 0 90 55 60
        E 0 90 61 60
        E 80 80 55 00
        E 0 80 61 00
        E 0 90 61 60
        E 80 80 61 00
        E 0 90 61 60
        E 80 80 61 00
        E 0 90 40 60
        E 0 90 48 60
        E 0 90 4c 60
        E 0 90 54 60
        E 0 90 58 60
        E 0 90 60 60
        E 0 90 64 60
        E 120 80 40 00
        E 0 80 48 00
        E 0 80 4c 00
        E 0 80 54 00
        E 0 80 58 00
        E 0 80 60 00
        E 0 80 64 00
        E 120 90 55 60
        E 0 90 57 60
        E 0 90 61 60
        E 0 90 63 60
        E 120 80 55 00
        E 0 80 57 00
        E 0 80 61 00
        E 0 80 63 00
        E 0 90 60 60
        E 120 80 60 00
        E 0 90 3f 60
        E 0 90 4b 60
        E 0 90 57 60
        E 0 90 63 60
        E 80 80 3f 00
        E 0 80 4b 00
        E 0 80 57 00
        E 0 80 63 00
        E 40 90 60 60
        E 120 80 60 00
        E 0 90 55 60
        E 0 90 58 60
        E 0 90 61 60
        E 0 90 64 60
        E 120 80 55 00
        E 0 80 58 00
        E 0 80 61 00
        E 0 80 64 00
        E 360 90 54 60
        E 0 90 57 60
        E 0 90 60 60
        E 0 90 63 60
        E 120 80 54 00
        E 0 80 57 00
        E 0 80 60 00
        E 0 80 63 00
        E 120 90 40 60
        E 0 90 48 60
        E 0 90 4c 60
        E 0 90 54 60
        E 0 90 58 60
        E 0 90 60 60
        E 0 90 64 60
        E 120 80 40 00
        E 0 80 48 00
        E 0 80 4c 00
        E 0 80 54 00
        E 0 80 58 00
        E 0 80 60 00
        E 0 80 64 00
        E 120 90 54 60
        E 0 90 57 60
        E 0 90 60 60
        E 0 90 63 60
        E 120 80 54 00
        E 0 80 57 00
        E 0 80 60 00
        E 0 80 63 00
        E 0 90 60 60
        E 120 80 60 00
        E 0 90 3f 60
        E 0 90 4b 60
        E 0 90 57 60
        E 0 90 63 60
        E 120 80 3f 00
        E 0 80 4b 00
        E 0 80 57 00
        E 0 80 63 00
        E 0 90 60 60
        E 120 80 60 00
        E 0 90 55 60
        E 0 90 57 60
        E 0 90 61 60
        E 0 90 63 60
        E 120 80 55 00
        E 0 80 57 00
        E 0 80 61 00
        E 0 80 63 00
        E 0 90 60 60
        E 120 80 60 00
        E 0 90 3f 60
        E 0 90 4b 60
        E 0 90 57 60
        E 0 90 63 60
        E 120 80 3f 00
        E 0 80 4b 00
        E 0 80 57 00
        E 0 80 63 00
        E 0 90 61 60
        E 60 80 61 00
        E 0 90 61 60
        E 60 80 61 00
        E 0 90 55 60
        E 0 90 61 60
        E 60 80 55 00
        E 0 80 61 00
        E 0 90 61 60
        E 60 80 61 00
        E 0 90 61 60
        E 60 80 61 00
        E 0 90 61 60
        E 60 80 61 00
        E 0 90 40 60
        E 0 90 48 60
        E 0 90 4c 60
        E 0 90 54 60
        E 0 90 58 60
        E 0 90 60 60
        E 0 90 64 60
        E 60 80 40 00
        E 0 80 48 00
        E 0 80 4c 00
        E 0 80 54 00
        E 0 80 58 00
        E 0 80 60 00
        E 0 80 64 00
        E 180 90 54 60
        E 0 90 57 60
        E 0 90 60 60
        E 0 90 63 60
        E 60 80 54 00
        E 0 80 57 00
        E 0 80 60 00
        E 0 80 63 00
        E 180 90 3f 60
        E 0 90 4b 60
        E 0 90 57 60
        E 0 90 63 60
        E 60 80 3f 00
        E 0 80 4b 00
        E 0 80 57 00
        E 0 80 63 00
        E 20 90 60 60
        E 80 80 60 00
        E 0 90 60 60
        E 80 80 60 00
        E 0 90 55 60
        E 0 90 58 60
        E 0 90 61 60
        E 0 90 64 60
        E 60 80 55 00
        E 0 80 58 00
        E 0 80 61 00
        E 0 80 64 00
        E 420 90 54 60
        E 0 90 57 60
        E 0 90 60 60
        E 0 90 63 60
        E 60 80 54 00
        E 0 80 57 00
        E 0 80 60 00
        E 0 80 63 00
        E 180 90 40 60
        E 0 90 48 60
        E 0 90 4c 60
        E 0 90 54 60
        E 0 90 58 60
        E 0 90 60 60
        E 0 90 64 60
        E 0 90 78 60
        E 0 90 79 60
        E 0 90 7a 60
        E 0 90 7b 60
        E 0 90 7c 60
        E 120 80 40 00
        E 0 80 48 00
        E 0 80 4c 00
        E 0 80 54 00
        E 0 80 58 00
        E 0 80 60 00
        E 0 80 64 00
        E 120 90 55 60
        E 0 90 61 60
        E 120 80 55 00
        E 0 80 61 00
        E 0 90 61 60
        E 120 80 61 00
        E 0 90 3f 60
        E 0 90 4b 60
        E 0 90 54 60
        E 0 90 57 60
        E 0 90 60 60
        E 0 90 63 60
        E 0 90 6f 60
        E 120 80 3f 00
        E 0 80 4b 00
        E 0 80 54 00
        E 0 80 57 00
        E 0 80 60 00
        E 0 80 63 00
        E 0 80 6f 00
        E 120 90 54 60
        E 0 90 55 60
        E 0 90 60 60
        E 0 90 61 60
        E 120 80 54 00
        E 0 80 55 00
        E 0 80 60 00
        E 0 80 61 00
        E 0 90 61 60
        E 120 80 61 00
        E 0 90 3e 60
        E 0 90 4a 60
        E 0 90 54 60
        E 0 90 56 60
        E 0 90 60 60
        E 0 90 62 60
        E 0 90 6e 60
        E 120 80 3e 00
        E 0 80 4a 00
        E 0 80 54 00
        E 0 80 56 00
        E 0 80 60 00
        E 0 80 62 00
        E 0 80 6e 00
        E 0 90 62 60
        E 0 90 6e 60
        E 120 80 62 00
        E 0 80 6e 00
        E 0 90 54 60
        E 0 90 57 60
        E 0 90 60 60
        E 0 90 63 60
        E 0 90 6f 60
        E 120 80 54 00
        E 0 80 57 00
        E 0 80 60 00
        E 0 80 63 00
        E 0 80 6f 00
        E 0 90 63 60
        E 0 90 6f 60
        E 120 80 78 00
        E 0 80 79 00
        E 0 80 7a 00
        E 0 80 7b 00
        E 0 80 7c 00
        E 0 80 63 00
        E 0 80 6f 00
        E 0 90 40 60
        E 0 90 48 60
        E 0 90 4c 60
        E 0 90 54 60
        E 0 90 58 60
        E 0 90 60 60
        E 0 90 64 60
        E 80 80 40 00
        E 0 80 48 00
        E 0 80 4c 00
        E 0 80 54 00
        E 0 80 58 00
        E 0 80 60 00
        E 0 80 64 00
        E 160 90 54 60
        E 0 90 57 60
        E 0 90 60 60
        E 0 90 63 60
        E 80 80 54 00
        E 0 80 57 00
        E 0 80 60 00
        E 0 80 63 00
        E 160 90 3f 60
        E 0 90 4b 60
        E 0 90 57 60
        E 0 90 63 60
        E 80 80 3f 00
        E 0 80 4b 00
        E 0 80 57 00
        E 0 80 63 00
        E 0 90 60 60
        E 80 80 60 00
        E 0 90 60 60
        E 80 80 60 00
        E 0 90 55 60
        E 0 90 57 60
        E 0 90 61 60
        E 0 90 63 60
        E 80 80 55 00
        E 0 80 57 00
        E 0 80 61 00
        E 0 80 63 00
        E 160 90 3f 60
        E 0 90 4b 60
        E 0 90 57 60
        E 0 90 63 60
        E 80 80 3f 00
        E 0 80 4b 00
        E 0 80 57 00
        E 0 80 63 00
        E 160 90 54 60
        E 0 90 57 60
        E 0 90 60 60
        E 0 90 63 60
        E 80 80 54 00
        E 0 80 57 00
        E 0 80 60 00
        E 0 80 63 00
        E 160 90 3f 60
        E 0 90 48 60
        E 0 90 4b 60
        E 0 90 54 60
        E 0 90 57 60
        E 0 90 60 60
        E 0 90 63 60
        E 80 80 3f 00
        E 0 80 48 00
        E 0 80 4b 00
        E 0 80 54 00
        E 0 80 57 00
        E 0 80 60 00
        E 0 80 63 00
        E 160 90 54 60
        E 0 90 57 60
        E 0 90 60 60
        E 0 90 63 60
        E 80 80 54 00
        E 0 80 57 00
        E 0 80 60 00
        E 0 80 63 00
        E 160 90 3f 60
        E 0 90 4b 60
        E 0 90 57 60
        E 0 90 63 60
        E 80 80 3f 00
        E 0 80 4b 00
        E 0 80 57 00
        E 0 80 63 00
        E 0 90 60 60
        E 80 80 60 00
        E 0 90 60 60
        E 80 80 60 00
        E 0 90 55 60
        E 0 90 57 60
        E 0 90 61 60
        E 0 90 63 60
        E 80 80 55 00
        E 0 80 57 00
        E 0 80 61 00
        E 0 80 63 00
        E 160 90 3f 60
        E 0 90 4b 60
        E 0 90 57 60
        E 0 90 63 60
        E 80 80 3f 00
        E 0 80 4b 00
        E 0 80 57 00
        E 0 80 63 00
        E 160 90 54 60
        E 0 90 57 60
        E 0 90 60 60
        E 0 90 63 60
        E 80 80 54 00
        E 0 80 57 00
        E 0 80 60 00
        E 0 80 63 00
        E 160 90 40 60
        E 0 90 48 60
        E 0 90 4c 60
        E 0 90 54 60
        E 0 90 58 60
        E 0 90 60 60
        E 0 90 64 60
        E 80 80 40 00
        E 0 80 48 00
        E 0 80 4c 00
        E 0 80 54 00
        E 0 80 58 00
        E 0 80 60 00
        E 0 80 64 00
        E 160 90 54 60
        E 0 90 58 60
        E 0 90 60 60
        E 0 90 64 60
        E 80 80 54 00
        E 0 80 58 00
        E 0 80 60 00
        E 0 80 64 00
        E 160 90 40 60
        E 0 90 48 60
        E 0 90 4c 60
        E 0 90 54 60
        E 0 90 58 60
        E 0 90 60 60
        E 0 90 64 60
        E 80 80 40 00
        E 0 80 48 00
        E 0 80 4c 00
        E 0 80 54 00
        E 0 80 58 00
        E 0 80 60 00
        E 0 80 64 00
        E 160 90 54 60
        E 0 90 55 60
        E 0 90 58 60
        E 0 90 60 60
        E 0 90 61 60
        E 0 90 64 60
        E 80 80 54 00
        E 0 80 55 00
        E 0 80 58 00
        E 0 80 60 00
        E 0 80 61 00
        E 0 80 64 00
        E 160 90 40 60
        E 0 90 48 60
        E 0 90 4c 60
        E 0 90 54 60
        E 0 90 58 60
        E 0 90 60 60
        E 0 90 64 60
        E 80 80 40 00
        E 0 80 48 00
        E 0 80 4c 00
        E 0 80 54 00
        E 0 80 58 00
        E 0 80 60 00
        E 0 80 64 00
        E 160 90 54 60
        E 0 90 58 60
        E 0 90 60 60
        E 0 90 64 60
        E 80 80 54 00
        E 0 80 58 00
        E 0 80 60 00
        E 0 80 64 00
        E 160 90 3d 60
        E 0 90 49 60
        E 0 90 4c 60
        E 0 90 54 60
        E 0 90 55 60
        E 0 90 58 60
        E 0 90 60 60
        E 0 90 61 60
        E 0 90 64 60
        E 0 90 78 60
        E 0 90 79 60
        E 0 90 7a 60
        E 0 90 7b 60
        E 0 90 7c 60
        E 80 80 3d 00
        E 0 80 49 00
        E 0 80 4c 00
        E 0 80 54 00
        E 0 80 55 00
        E 0 80 58 00
        E 0 80 60 00
        E 0 80 61 00
        E 0 80 64 00
        E 160 90 54 60
        E 0 90 58 60
        E 0 90 60 60
        E 0 90 64 60
        E 80 80 54 00
        E 0 80 58 00
        E 0 80 60 00
        E 0 80 64 00
        E 160 90 3d 60
        E 0 90 49 60
        E 0 90 4c 60
        E 0 90 54 60
        E 0 90 55 60
        E 0 90 58 60
        E 0 90 60 60
        E 0 90 61 60
        E 0 90 64 60
        E 80 80 3d 00
        E 0 80 49 00
        E 0 80 4c 00
        E 0 80 54 00
        E 0 80 55 00
        E 0 80 58 00
        E 0 80 60 00
        E 0 80 61 00
        E 0 80 64 00
        E 160 90 54 60
        E 0 90 58 60
        E 0 90 60 60
        E 0 90 64 60
        E 80 80 54 00
        E 0 80 58 00
        E 0 80 60 00
        E 0 80 64 00
        E 160 90 3d 60
        E 0 90 49 60
        E 0 90 4c 60
        E 0 90 54 60
        E 0 90 55 60
        E 0 90 58 60
        E 0 90 60 60
        E 0 90 61 60
        E 0 90 64 60
        E 80 80 3d 00
        E 0 80 49 00
        E 0 80 4c 00
        E 0 80 54 00
        E 0 80 55 00
        E 0 80 58 00
        E 0 80 60 00
        E 0 80 61 00
        E 0 80 64 00
        E 160 90 54 60
        E 0 90 58 60
        E 0 90 60 60
        E 0 90 64 60
        E 80 80 54 00
        E 0 80 58 00
        E 0 80 60 00
        E 0 80 64 00
        E 160 80 78 00
        E 0 80 79 00
        E 0 80 7a 00
        E 0 80 7b 00
        E 0 80 7c 00
        E 0 90 40 60
        E 0 90 48 60
        E 0 90 4c 60
        E 0 90 54 60
        E 0 90 58 60
        E 0 90 60 60
        E 0 90 64 60
        E 120 80 40 00
        E 0 80 48 00
        E 0 80 4c 00
        E 0 80 54 00
        E 0 80 58 00
        E 0 80 60 00
        E 0 80 64 00
        E 240 90 54 60
        E 0 90 57 60
        E 0 90 60 60
        E 0 90 63 60
        E 120 80 54 00
        E 0 80 57 00
        E 0 80 60 00
        E 0 80 63 00
        E 240 90 3d 60
        E 0 90 49 60
        E 0 90 4c 60
        E 0 90 54 60
        E 0 90 55 60
        E 0 90 58 60
        E 0 90 60 60
        E 0 90 61 60
        E 0 90 64 60
        E 120 80 3d 00
        E 0 80 49 00
        E 0 80 4c 00
        E 0 80 54 00
        E 0 80 55 00
        E 0 80 58 00
        E 0 80 60 00
        E 0 80 61 00
        E 0 80 64 00
        E 360 90 54 60
        E 0 90 57 60
        E 0 90 60 60
        E 0 90 63 60
        E 120 80 54 00
        E 0 80 57 00
        E 0 80 60 00
        E 0 80 63 00
        E 120 90 3f 60
        E 0 90 48 60
        E 0 90 4b 60
        E 0 90 54 60
        E 0 90 57 60
        E 0 90 60 60
        E 0 90 63 60
        E 120 80 3f 00
        E 0 80 48 00
        E 0 80 4b 00
        E 0 80 54 00
        E 0 80 57 00
        E 0 80 60 00
        E 0 80 63 00
        E 120 90 54 60
        E 0 90 55 60
        E 0 90 60 60
        E 0 90 61 60
        E 120 80 54 00
        E 0 80 55 00
        E 0 80 60 00
        E 0 80 61 00
        E 0 90 61 60
        E 120 80 61 00
        E 0 90 3d 60
        E 0 90 49 60
        E 0 90 54 60
        E 0 90 55 60
        E 0 90 60 60
        E 0 90 61 60
        E 120 80 3d 00
        E 0 80 49 00
        E 0 80 54 00
        E 0 80 55 00
        E 0 80 60 00
        E 0 80 61 00
        E 0 90 61 60
        E 120 80 61 00
        E 0 90 54 60
        E 0 90 55 60
        E 0 90 60 60
        E 0 90 61 60
        E 120 80 54 00
        E 0 80 55 00
        E 0 80 60 00
        E 0 80 61 00
        E 0 90 61 60
        E 120 80 61 00
        E 0 90 3e 60
        E 0 90 4a 60
        E 0 90 54 60
        E 0 90 56 60
        E 0 90 60 60
        E 0 90 62 60
        E 0 90 6e 60
        E 120 80 3e 00
        E 0 80 4a 00
        E 0 80 54 00
        E 0 80 56 00
        E 0 80 60 00
        E 0 80 62 00
        E 0 80 6e 00
        E 0 90 62 60
        E 0 90 6e 60
        E 120 80 62 00
        E 0 80 6e 00
        E 0 90 54 60
        E 0 90 57 60
        E 0 90 60 60
        E 0 90 63 60
        E 0 90 6f 60
        E 120 80 54 00
        E 0 80 57 00
        E 0 80 60 00
        E 0 80 63 00
        E 0 80 6f 00
        E 0 90 63 60
        E 0 90 6f 60
        E 120 80 63 00
        E 0 80 6f 00
        E 0 90 40 60
        E 0 90 48 60
        E 0 90 4c 60
        E 0 90 54 60
        E 0 90 58 60
        E 0 90 60 60
        E 0 90 64 60
        E 60 80 40 00
        E 0 80 48 00
        E 0 80 4c 00
        E 0 80 54 00
        E 0 80 58 00
        E 0 80 60 00
        E 0 80 64 00
        E 180 90 54 60
        E 0 90 57 60
        E 0 90 60 60
        E 0 90 63 60
        E 60 80 54 00
        E 0 80 57 00
        E 0 80 60 00
        E 0 80 63 00
        E 180 90 3f 60
        E 0 90 4b 60
        E 0 90 57 60
        E 0 90 63 60
        E 60 80 3f 00
        E 0 80 4b 00
        E 0 80 57 00
        E 0 80 63 00
        E 20 90 60 60
        E 80 80 60 00
        E 0 90 60 60
        E 80 80 60 00
        E 0 90 55 60
        E 0 90 58 60
        E 0 90 61 60
        E 0 90 64 60
        E 60 80 55 00
        E 0 80 58 00
        E 0 80 61 00
        E 0 80 64 00
        E 420 90 54 60
        E 0 90 57 60
        E 0 90 60 60
        E 0 90 63 60
        E 60 80 54 00
        E 0 80 57 00
        E 0 80 60 00
        E 0 80 63 00
        E 180 90 40 60
        E 0 90 48 60
        E 0 90 4c 60
        E 0 90 54 60
        E 0 90 58 60
        E 0 90 60 60
        E 0 90 64 60
        E 120 80 40 00
        E 0 80 48 00
        E 0 80 4c 00
        E 0 80 54 00
        E 0 80 58 00
        E 0 80 60 00
        E 0 80 64 00
        E 120 90 55 60
        E 0 90 61 60
        E 80 80 55 00
        E 0 80 61 00
        E 0 90 61 60
        E 80 80 61 00
        E 0 90 61 60
        E 80 80 61 00
        E 0 90 3d 60
        E 0 90 49 60
        E 0 90 55 60
        E 0 90 61 60
        E 80 80 3d 00
        E 0 80 49 00
        E 0 80 55 00
        E 0 80 61 00
        E 0 90 61 60
        E 80 80 61 00
        E 0 90 61 60
        E 80 80 61 00
        E 0 90 54 60
        E 0 90 58 60
        E 0 90 60 60
        E 0 90 64 60
        E 120 80 54 00
        E 0 80 58 00
        E 0 80 60 00
        E 0 80 64 00
        E 120 90 3d 60
        E 0 90 49 60
        E 0 90 54 60
        E 0 90 55 60
        E 0 90 60 60
        E 0 90 61 60
        E 120 80 3d 00
        E 0 80 49 00
        E 0 80 54 00
        E 0 80 55 00
        E 0 80 60 00
        E 0 80 61 00
        E 0 90 61 60
        E 120 80 61 00
        E 0 90 54 60
        E 0 90 55 60
        E 0 90 60 60
        E 0 90 61 60
        E 120 80 54 00
        E 0 80 55 00
        E 0 80 60 00
        E 0 80 61 00
        E 0 90 61 60
        E 120 80 61 00
        E 0 90 40 60
        E 0 90 48 60
        E 0 90 4c 60
        E 0 90 54 60
        E 0 90 58 60
        E 0 90 60 60
        E 0 90 64 60
        E 0 90 74 60
        E 80 80 40 00
        E 0 80 48 00
        E 0 80 4c 00
        E 0 80 54 00
        E 0 80 58 00
        E 0 80 60 00
        E 0 80 64 00
        E 160 90 54 60
        E 0 90 57 60
        E 0 90 60 60
        E 0 90 63 60
        E 80 80 54 00
        E 0 80 57 00
        E 0 80 60 00
        E 0 80 63 00
        E 160 90 3f 60
        E 0 90 4b 60
        E 0 90 57 60
        E 0 90 63 60
        E 80 80 3f 00
        E 0 80 4b 00
        E 0 80 57 00
        E 0 80 63 00
        E 0 90 60 60
        E 80 80 60 00
        E 0 90 60 60
        E 80 80 60 00
        E 0 90 55 60
        E 0 90 58 60
        E 0 90 61 60
        E 0 90 64 60
        E 80 80 55 00
        E 0 80 58 00
        E 0 80 61 00
        E 0 80 64 00
        E 400 90 54 60
        E 0 90 57 60
        E 0 90 60 60
        E 0 90 63 60
        E 80 80 54 00
        E 0 80 57 00
        E 0 80 60 00
        E 0 80 63 00
        E 160 90 40 60
        E 0 90 48 60
        E 0 90 4c 60
        E 0 90 54 60
        E 0 90 58 60
        E 0 90 60 60
        E 0 90 64 60
        E 80 80 40 00
        E 0 80 48 00
        E 0 80 4c 00
        E 0 80 54 00
        E 0 80 58 00
        E 0 80 60 00
        E 0 80 64 00
        E 160 90 54 60
        E 0 90 57 60
        E 0 90 60 60
        E 0 90 63 60
        E 80 80 54 00
        E 0 80 57 00
        E 0 80 60 00
        E 0 80 63 00
        E 160 90 3f 60
        E 0 90 4b 60
        E 0 90 57 60
        E 0 90 63 60
        E 80 80 3f 00
        E 0 80 4b 00
        E 0 80 57 00
        E 0 80 63 00
        E 0 90 60 60
        E 80 80 60 00
        E 0 90 60 60
        E 80 80 60 00
        E 0 90 55 60
        E 0 90 58 60
        E 0 90 61 60
        E 0 90 64 60
        E 80 80 55 00
        E 0 80 58 00
        E 0 80 61 00
        E 0 80 64 00
        E 160 90 3f 60
        E 0 90 4b 60
        E 0 90 57 60
        E 0 90 63 60
        E 80 80 3f 00
        E 0 80 4b 00
        E 0 80 57 00
        E 0 80 63 00
        E 160 90 54 60
        E 0 90 57 60
        E 0 90 60 60
        E 0 90 63 60
        E 80 80 54 00
        E 0 80 57 00
        E 0 80 60 00
        E 0 80 63 00
        E 160 90 40 60
        E 0 90 48 60
        E 0 90 4c 60
        E 0 90 54 60
        E 0 90 58 60
        E 0 90 60 60
        E 0 90 64 60
        E 80 80 40 00
        E 0 80 48 00
        E 0 80 4c 00
        E 0 80 54 00
        E 0 80 58 00
        E 0 80 60 00
        E 0 80 64 00
        E 160 90 54 60
        E 0 90 57 60
        E 0 90 60 60
        E 0 90 63 60
        E 80 80 54 00
        E 0 80 57 00
        E 0 80 60 00
        E 0 80 63 00
        E 160 90 3f 60
        E 0 90 4b 60
        E 0 90 57 60
        E 0 90 63 60
        E 80 80 3f 00
        E 0 80 4b 00
        E 0 80 57 00
        E 0 80 63 00
        E 0 90 60 60
        E 80 80 60 00
        E 0 90 60 60
        E 80 80 60 00
        E 0 90 55 60
        E 0 90 58 60
        E 0 90 61 60
        E 0 90 64 60
        E 80 80 55 00
        E 0 80 58 00
        E 0 80 61 00
        E 0 80 64 00
        E 160 90 3f 60
        E 0 90 4b 60
        E 0 90 57 60
        E 0 90 63 60
        E 80 80 3f 00
        E 0 80 4b 00
        E 0 80 57 00
        E 0 80 63 00
        E 160 90 54 60
        E 0 90 57 60
        E 0 90 60 60
        E 0 90 63 60
        E 80 80 54 00
        E 0 80 57 00
        E 0 80 60 00
        E 0 80 63 00
        E 160 90 40 60
        E 0 90 48 60
        E 0 90 4c 60
        E 0 90 54 60
        E 0 90 58 60
        E 0 90 60 60
        E 0 90 64 60
        E 80 80 40 00
        E 0 80 48 00
        E 0 80 4c 00
        E 0 80 54 00
        E 0 80 58 00
        E 0 80 60 00
        E 0 80 64 00
        E 160 90 54 60
        E 0 90 55 60
        E 0 90 61 60
        E 0 90 60 60
        E 120 80 54 00
        E 0 80 55 00
        E 0 80 61 00
        E 0 80 60 00
        E 0 90 61 60
        E 120 80 61 00
        E 0 90 3d 60
        E 0 90 49 60
        E 0 90 54 60
        E 0 90 55 60
        E 0 90 61 60
        E 0 90 60 60
        E 120 80 3d 00
        E 0 80 49 00
        E 0 80 54 00
        E 0 80 55 00
        E 0 80 61 00
        E 0 80 60 00
        E 0 90 61 60
        E 120 80 61 00
        E 0 90 54 60
        E 0 90 55 60
        E 0 90 61 60
        E 0 90 60 60
        E 120 80 54 00
        E 0 80 55 00
        E 0 80 61 00
        E 0 80 60 00
        E 0 90 61 60
        E 120 80 61 00
        E 0 90 3e 60
        E 0 90 3f 60
        E 0 90 4a 60
        E 0 90 4b 60
        E 0 90 54 60
        E 0 90 56 60
        E 0 90 57 60
        E 0 90 62 60
        E 0 90 63 60
        E 0 90 6e 60
        E 0 90 6f 60
        E 0 90 60 60
        E 120 80 3e 00
        E 0 80 3f 00
        E 0 80 4a 00
        E 0 80 4b 00
        E 0 80 54 00
        E 0 80 56 00
        E 0 80 57 00
        E 0 80 62 00
        E 0 80 63 00
        E 0 80 6e 00
        E 0 80 6f 00
        E 0 80 60 00
        E 120 90 54 60
        E 0 90 56 60
        E 0 90 57 60
        E 0 90 62 60
        E 0 90 63 60
        E 0 90 6e 60
        E 0 90 6f 60
        E 0 90 60 60
        E 120 80 54 00
        E 0 80 56 00
        E 0 80 57 00
        E 0 80 62 00
        E 0 80 63 00
        E 0 80 6e 00
        E 0 80 6f 00
        E 0 80 60 00
        E 120 80 74 00
        E 0 90 3e 60
        E 0 90 3f 60
        E 0 90 4a 60
        E 0 90 4b 60
        E 0 90 54 60
        E 0 90 56 60
        E 0 90 57 60
        E 0 90 62 60
        E 0 90 63 60
        E 0 90 6e 60
        E 0 90 6f 60
        E 0 90 60 60
        E 120 80 3e 00
        E 0 80 3f 00
        E 0 80 4a 00
        E 0 80 4b 00
        E 0 80 54 00
        E 0 80 56 00
        E 0 80 57 00
        E 0 80 62 00
        E 0 80 63 00
        E 0 80 6e 00
        E 0 80 6f 00
        E 0 80 60 00
        E 120 90 54 60
        E 0 90 60 60
        E 120 80 54 00
        E 0 80 60 00
        E 120 90 3e 60
        E 0 90 3f 60
        E 0 90 4a 60
        E 0 90 4b 60
        E 0 90 54 60
        E 0 90 56 60
        E 0 90 57 60
        E 0 90 62 60
        E 0 90 63 60
        E 0 90 6e 60
        E 0 90 6f 60
        E 0 90 60 60
        E 120 80 3e 00
        E 0 80 3f 00
        E 0 80 4a 00
        E 0 80 4b 00
        E 0 80 54 00
        E 0 80 56 00
        E 0 80 57 00
        E 0 80 62 00
        E 0 80 63 00
        E 0 80 6e 00
        E 0 80 6f 00
        E 0 80 60 00
        E 120 90 54 60
        E 0 90 55 60
        E 0 90 56 60
        E 0 90 61 60
        E 0 90 62 60
        E 0 90 6e 60
        E 0 90 60 60
        E 120 80 54 00
        E 0 80 55 00
        E 0 80 56 00
        E 0 80 61 00
        E 0 80 62 00
        E 0 80 6e 00
        E 0 80 60 00
        E 120 90 3e 60
        E 0 90 3f 60
        E 0 90 4a 60
        E 0 90 4b 60
        E 0 90 54 60
        E 0 90 56 60
        E 0 90 57 60
        E 0 90 62 60
        E 0 90 63 60
        E 0 90 6e 60
        E 0 90 6f 60
        E 0 90 60 60
        E 120 80 3e 00
        E 0 80 3f 00
        E 0 80 4a 00
        E 0 80 4b 00
        E 0 80 54 00
        E 0 80 56 00
        E 0 80 57 00
        E 0 80 62 00
        E 0 80 63 00
        E 0 80 6e 00
        E 0 80 6f 00
        E 0 80 60 00
        E 120 90 54 60
        E 0 90 56 60
        E 0 90 57 60
        E 0 90 62 60
        E 0 90 63 60
        E 0 90 6e 60
        E 0 90 6f 60
        E 0 90 60 60
        E 120 80 54 00
        E 0 80 56 00
        E 0 80 57 00
        E 0 80 62 00
        E 0 80 63 00
        E 0 80 6e 00
        E 0 80 6f 00
        E 0 80 60 00
        E 120 90 3e 60
        E 0 90 3f 60
        E 0 90 4a 60
        E 0 90 4b 60
        E 0 90 54 60
        E 0 90 56 60
        E 0 90 57 60
        E 0 90 62 60
        E 0 90 63 60
        E 0 90 6e 60
        E 0 90 6f 60
        E 0 90 60 60
        E 120 80 3e 00
        E 0 80 3f 00
        E 0 80 4a 00
        E 0 80 4b 00
        E 0 80 54 00
        E 0 80 56 00
        E 0 80 57 00
        E 0 80 62 00
        E 0 80 63 00
        E 0 80 6e 00
        E 0 80 6f 00
        E 0 80 60 00
        E 120 90 54 60
        E 0 90 60 60
        E 120 80 54 00
        E 0 80 60 00
        E 120 90 3e 60
        E 0 90 3f 60
        E 0 90 4a 60
        E 0 90 4b 60
        E 0 90 54 60
        E 0 90 56 60
        E 0 90 57 60
        E 0 90 62 60
        E 0 90 63 60
        E 0 90 6e 60
        E 0 90 6f 60
        E 0 90 60 60
        E 120 80 3e 00
        E 0 80 3f 00
        E 0 80 4a 00
        E 0 80 4b 00
        E 0 80 54 00
        E 0 80 56 00
        E 0 80 57 00
        E 0 80 62 00
        E 0 80 63 00
        E 0 80 6e 00
        E 0 80 6f 00
        E 0 80 60 00
        E 120 90 54 60
        E 0 90 55 60
        E 0 90 56 60
        E 0 90 61 60
        E 0 90 62 60
        E 0 90 6e 60
        E 0 90 60 60
        E 120 80 54 00
        E 0 80 55 00
        E 0 80 56 00
        E 0 80 61 00
        E 0 80 62 00
        E 0 80 6e 00
        E 0 80 60 00
        E 120 90 3e 60
        E 0 90 3f 60
        E 0 90 4a 60
        E 0 90 4b 60
        E 0 90 54 60
        E 0 90 56 60
        E 0 90 57 60
        E 0 90 62 60
        E 0 90 63 60
        E 0 90 6e 60
        E 0 90 6f 60
        E 0 90 60 60
        E 120 80 3e 00
        E 0 80 3f 00
        E 0 80 4a 00
        E 0 80 4b 00
        E 0 80 54 00
        E 0 80 56 00
        E 0 80 57 00
        E 0 80 62 00
        E 0 80 63 00
        E 0 80 6e 00
        E 0 80 6f 00
        E 0 80 60 00
        E 120 90 54 60
        E 0 90 56 60
        E 0 90 57 60
        E 0 90 62 60
        E 0 90 63 60
        E 0 90 6e 60
        E 0 90 6f 60
        E 0 90 60 60
        E 120 80 54 00
        E 0 80 56 00
        E 0 80 57 00
        E 0 80 62 00
        E 0 80 63 00
        E 0 80 6e 00
        E 0 80 6f 00
        E 0 80 60 00
        E 120 90 3e 60
        E 0 90 4a 60
        E 0 90 54 60
        E 0 90 56 60
        E 0 90 62 60
        E 0 90 6e 60
        E 0 90 60 60
        E 120 80 3e 00
        E 0 80 4a 00
        E 0 80 54 00
        E 0 80 56 00
        E 0 80 62 00
        E 0 80 6e 00
        E 0 80 60 00
        E 0 90 62 60
        E 0 90 6e 60
        E 120 80 62 00
        E 0 80 6e 00
        E 0 90 54 60
        E 0 90 57 60
        E 0 90 63 60
        E 0 90 6f 60
        E 0 90 60 60
        E 120 80 54 00
        E 0 80 57 00
        E 0 80 63 00
        E 0 80 6f 00
        E 0 80 60 00
        E 0 90 63 60
        E 0 90 6f 60
        E 120 80 63 00
        E 0 80 6f 00
        E 0 90 3c 60
        E 0 90 48 60
        E 0 90 54 60
        E 0 90 60 60
        E 120 80 3c 00
        E 0 80 48 00
        E 0 80 54 00
        E 0 80 60 00
        E 120 90 54 60
        E 0 90 55 60
        E 0 90 56 60
        E 0 90 61 60
        E 0 90 62 60
        E 0 90 6e 60
        E 0 90 60 60
        E 120 80 54 00
        E 0 80 55 00
        E 0 80 56 00
        E 0 80 61 00
        E 0 80 62 00
        E 0 80 6e 00
        E 0 80 60 00
        E 120 90 3e 60
        E 0 90 3f 60
        E 0 90 4a 60
        E 0 90 4b 60
        E 0 90 54 60
        E 0 90 56 60
        E 0 90 57 60
        E 0 90 62 60
        E 0 90 63 60
        E 0 90 6e 60
        E 0 90 6f 60
        E 0 90 60 60
        E 120 80 3e 00
        E 0 80 3f 00
        E 0 80 4a 00
        E 0 80 4b 00
        E 0 80 54 00
        E 0 80 56 00
        E 0 80 57 00
        E 0 80 62 00
        E 0 80 63 00
        E 0 80 6e 00
        E 0 80 6f 00
        E 0 80 60 00
        E 120 90 54 60
        E 0 90 56 60
        E 0 90 57 60
        E 0 90 62 60
        E 0 90 63 60
        E 0 90 6e 60
        E 0 90 6f 60
        E 0 90 60 60
        E 120 80 54 00
        E 0 80 56 00
        E 0 80 57 00
        E 0 80 62 00
        E 0 80 63 00
        E 0 80 6e 00
        E 0 80 6f 00
        E 0 80 60 00
        E 120 90 3e 60
        E 0 90 4a 60
        E 0 90 54 60
        E 0 90 56 60
        E 0 90 62 60
        E 0 90 6e 60
        E 0 90 78 60
        E 0 90 79 60
        E 0 90 7a 60
        E 0 90 7b 60
        E 0 90 7c 60
        E 0 90 60 60
        E 120 80 3e 00
        E 0 80 4a 00
        E 0 80 54 00
        E 0 80 56 00
        E 0 80 62 00
        E 0 80 6e 00
        E 0 80 60 00
        E 0 90 62 60
        E 0 90 6e 60
        E 120 80 62 00
        E 0 80 6e 00
        E 0 90 54 60
        E 0 90 57 60
        E 0 90 63 60
        E 0 90 6f 60
        E 0 90 60 60
        E 120 80 54 00
        E 0 80 57 00
        E 0 80 63 00
        E 0 80 6f 00
        E 0 80 60 00
        E 0 90 63 60
        E 0 90 6f 60
        E 120 80 63 00
        E 0 80 6f 00
        E 0 90 3c 60
        E 0 90 48 60
        E 0 90 54 60
        E 0 90 60 60
        E 120 80 3c 00
        E 0 80 48 00
        E 0 80 54 00
        E 0 80 60 00
        E 120 90 54 60
        E 0 90 55 60
        E 0 90 56 60
        E 0 90 61 60
        E 0 90 62 60
        E 0 90 6e 60
        E 0 90 60 60
        E 120 80 54 00
        E 0 80 55 00
        E 0 80 56 00
        E 0 80 61 00
        E 0 80 62 00
        E 0 80 6e 00
        E 0 80 60 00
        E 120 90 3e 60
        E 0 90 3f 60
        E 0 90 4a 60
        E 0 90 4b 60
        E 0 90 54 60
        E 0 90 56 60
        E 0 90 57 60
        E 0 90 62 60
        E 0 90 63 60
        E 0 90 6e 60
        E 0 90 6f 60
        E 0 90 60 60
        E 120 80 3e 00
        E 0 80 3f 00
        E 0 80 4a 00
        E 0 80 4b 00
        E 0 80 54 00
        E 0 80 56 00
        E 0 80 57 00
        E 0 80 62 00
        E 0 80 63 00
        E 0 80 6e 00
        E 0 80 6f 00
        E 0 80 60 00
        E 120 90 54 60
        E 0 90 56 60
        E 0 90 57 60
        E 0 90 62 60
        E 0 90 63 60
        E 0 90 6e 60
        E 0 90 6f 60
        E 0 90 60 60
        E 120 80 54 00
        E 0 80 56 00
        E 0 80 57 00
        E 0 80 62 00
        E 0 80 63 00
        E 0 80 6e 00
        E 0 80 6f 00
        E 0 80 60 00
        E 120 80 78 00
        E 0 80 79 00
        E 0 80 7a 00
        E 0 80 7b 00
        E 0 80 7c 00
        E 0 90 3e 60
        E 0 90 4a 60
        E 0 90 54 60
        E 0 90 56 60
        E 0 90 62 60
        E 0 90 6e 60
        E 0 90 60 60
        E 120 80 3e 00
        E 0 80 4a 00
        E 0 80 54 00
        E 0 80 56 00
        E 0 80 62 00
        E 0 80 6e 00
        E 0 80 60 00
        E 0 90 62 60
        E 0 90 6e 60
        E 120 80 62 00
        E 0 80 6e 00
        E 0 90 54 60
        E 0 90 57 60
        E 0 90 63 60
        E 0 90 6f 60
        E 0 90 60 60
        E 120 80 54 00
        E 0 80 57 00
        E 0 80 63 00
        E 0 80 6f 00
        E 0 80 60 00
        E 0 90 63 60
        E 0 90 6f 60
        E 120 80 63 00
        E 0 80 6f 00
        E 0 90 3c 60
        E 0 90 48 60
        E 0 90 54 60
        E 0 90 60 60
        E 120 80 3c 00
        E 0 80 48 00
        E 0 80 54 00
        E 0 80 60 00
        E 120 90 54 60
        E 0 90 55 60
        E 0 90 56 60
        E 0 90 61 60
        E 0 90 62 60
        E 0 90 6e 60
        E 0 90 60 60
        E 120 80 54 00
        E 0 80 55 00
        E 0 80 56 00
        E 0 80 61 00
        E 0 80 62 00
        E 0 80 6e 00
        E 0 80 60 00
        E 120 90 3e 60
        E 0 90 3f 60
        E 0 90 4a 60
        E 0 90 4b 60
        E 0 90 54 60
        E 0 90 56 60
        E 0 90 57 60
        E 0 90 62 60
        E 0 90 63 60
        E 0 90 6e 60
        E 0 90 6f 60
        E 0 90 60 60
        E 120 80 3e 00
        E 0 80 3f 00
        E 0 80 4a 00
        E 0 80 4b 00
        E 0 80 54 00
        E 0 80 56 00
        E 0 80 57 00
        E 0 80 62 00
        E 0 80 63 00
        E 0 80 6e 00
        E 0 80 6f 00
        E 0 80 60 00
        E 120 90 54 60
        E 0 90 56 60
        E 0 90 57 60
        E 0 90 62 60
        E 0 90 63 60
        E 0 90 6e 60
        E 0 90 6f 60
        E 0 90 60 60
        E 120 80 54 00
        E 0 80 56 00
        E 0 80 57 00
        E 0 80 62 00
        E 0 80 63 00
        E 0 80 6e 00
        E 0 80 6f 00
        E 0 80 60 00
        E 120 90 3e 60
        E 0 90 4a 60
        E 0 90 54 60
        E 0 90 56 60
        E 0 90 62 60
        E 0 90 6e 60
        E 0 90 60 60
        E 120 80 3e 00
        E 0 80 4a 00
        E 0 80 54 00
        E 0 80 56 00
        E 0 80 62 00
        E 0 80 6e 00
        E 0 80 60 00
        E 0 90 62 60
        E 0 90 6e 60
        E 120 80 62 00
        E 0 80 6e 00
        E 0 90 54 60
        E 0 90 57 60
        E 0 90 63 60
        E 0 90 6f 60
        E 0 90 60 60
        E 120 80 54 00
        E 0 80 57 00
        E 0 80 63 00
        E 0 80 6f 00
        E 0 80 60 00
        E 0 90 63 60
        E 0 90 6f 60
        E 120 80 63 00
        E 0 80 6f 00
        E 0 90 3c 60
        E 0 90 48 60
        E 0 90 54 60
        E 0 90 60 60
        E 120 80 3c 00
        E 0 80 48 00
        E 0 80 54 00
        E 0 80 60 00
        E 120 90 54 60
        E 0 90 55 60
        E 0 90 56 60
        E 0 90 61 60
        E 0 90 62 60
        E 0 90 6e 60
        E 0 90 60 60
        E 120 80 54 00
        E 0 80 55 00
        E 0 80 56 00
        E 0 80 61 00
        E 0 80 62 00
        E 0 80 6e 00
        E 0 80 60 00
        E 120 90 3e 60
        E 0 90 3f 60
        E 0 90 4a 60
        E 0 90 4b 60
        E 0 90 54 60
        E 0 90 56 60
        E 0 90 57 60
        E 0 90 62 60
        E 0 90 63 60
        E 0 90 6e 60
        E 0 90 6f 60
        E 0 90 60 60
        E 120 80 3e 00
        E 0 80 3f 00
        E 0 80 4a 00
        E 0 80 4b 00
        E 0 80 54 00
        E 0 80 56 00
        E 0 80 57 00
        E 0 80 62 00
        E 0 80 63 00
        E 0 80 6e 00
        E 0 80 6f 00
        E 0 80 60 00
        E 120 90 54 60
        E 0 90 56 60
        E 0 90 57 60
        E 0 90 62 60
        E 0 90 63 60
        E 0 90 6e 60
        E 0 90 6f 60
        E 0 90 60 60
        E 120 80 54 00
        E 0 80 56 00
        E 0 80 57 00
        E 0 80 62 00
        E 0 80 63 00
        E 0 80 6e 00
        E 0 80 6f 00
        E 0 80 60 00
        E 120 90 3e 60
        E 0 90 4a 60
        E 0 90 54 60
        E 0 90 56 60
        E 0 90 62 60
        E 0 90 6e 60
        E 0 90 60 60
        E 120 80 3e 00
        E 0 80 4a 00
        E 0 80 54 00
        E 0 80 56 00
        E 0 80 62 00
        E 0 80 6e 00
        E 0 80 60 00
        E 0 90 62 60
        E 0 90 6e 60
        E 120 80 62 00
        E 0 80 6e 00
        E 0 90 54 60
        E 0 90 57 60
        E 0 90 63 60
        E 0 90 6f 60
        E 0 90 60 60
        E 120 80 54 00
        E 0 80 57 00
        E 0 80 63 00
        E 0 80 6f 00
        E 0 80 60 00
        E 0 90 63 60
        E 0 90 6f 60
        E 120 80 63 00
        E 0 80 6f 00
        E 0 90 3c 60
        E 0 90 48 60
        E 0 90 54 60
        E 0 90 60 60
        E 120 80 3c 00
        E 0 80 48 00
        E 0 80 54 00
        E 0 80 60 00
        E 120 90 54 60
        E 0 90 55 60
        E 0 90 56 60
        E 0 90 61 60
        E 0 90 62 60
        E 0 90 6e 60
        E 0 90 60 60
        E 120 80 54 00
        E 0 80 55 00
        E 0 80 56 00
        E 0 80 61 00
        E 0 80 62 00
        E 0 80 6e 00
        E 0 80 60 00
        E 120 90 3e 60
        E 0 90 3f 60
        E 0 90 4a 60
        E 0 90 4b 60
        E 0 90 54 60
        E 0 90 56 60
        E 0 90 57 60
        E 0 90 62 60
        E 0 90 63 60
        E 0 90 6e 60
        E 0 90 6f 60
        E 0 90 60 60
        E 120 80 3e 00
        E 0 80 3f 00
        E 0 80 4a 00
        E 0 80 4b 00
        E 0 80 54 00
        E 0 80 56 00
        E 0 80 57 00
        E 0 80 62 00
        E 0 80 63 00
        E 0 80 6e 00
        E 0 80 6f 00
        E 0 80 60 00
        E 120 90 54 60
        E 0 90 56 60
        E 0 90 57 60
        E 0 90 62 60
        E 0 90 63 60
        E 0 90 6e 60
        E 0 90 6f 60
        E 0 90 60 60
        E 120 80 54 00
        E 0 80 56 00
        E 0 80 57 00
        E 0 80 62 00
        E 0 80 63 00
        E 0 80 6e 00
        E 0 80 6f 00
        E 0 80 60 00
        E 120 90 3e 60
        E 0 90 3f 60
        E 0 90 4a 60
        E 0 90 4b 60
        E 0 90 54 60
        E 0 90 56 60
        E 0 90 57 60
        E 0 90 62 60
        E 0 90 63 60
        E 0 90 6e 60
        E 0 90 6f 60
        E 0 90 78 60
        E 0 90 79 60
        E 0 90 7a 60
        E 0 90 7b 60
        E 0 90 7c 60
        E 0 90 60 60
        E 120 80 3e 00
        E 0 80 3f 00
        E 0 80 4a 00
        E 0 80 4b 00
        E 0 80 54 00
        E 0 80 56 00
        E 0 80 57 00
        E 0 80 62 00
        E 0 80 63 00
        E 0 80 6e 00
        E 0 80 6f 00
        E 0 80 60 00
        E 120 90 54 60
        E 0 90 55 60
        E 0 90 61 60
        E 0 90 60 60
        E 120 80 54 00
        E 0 80 55 00
        E 0 80 61 00
        E 0 80 60 00
        E 0 90 61 60
        E 120 80 61 00
        E 0 90 3d 60
        E 0 90 49 60
        E 0 90 54 60
        E 0 90 55 60
        E 0 90 61 60
        E 0 90 60 60
        E 120 80 3d 00
        E 0 80 49 00
        E 0 80 54 00
        E 0 80 55 00
        E 0 80 61 00
        E 0 80 60 00
        E 0 90 61 60
        E 120 80 61 00
        E 0 90 54 60
        E 0 90 55 60
        E 0 90 61 60
        E 0 90 60 60
        E 120 80 54 00
        E 0 80 55 00
        E 0 80 61 00
        E 0 80 60 00
        E 0 90 61 60
        E 120 80 61 00
        E 0 90 3e 60
        E 0 90 4a 60
        E 0 90 54 60
        E 0 90 56 60
        E 0 90 62 60
        E 0 90 6e 60
        E 0 90 60 60
        E 120 80 3e 00
        E 0 80 4a 00
        E 0 80 54 00
        E 0 80 56 00
        E 0 80 62 00
        E 0 80 6e 00
        E 0 80 60 00
        E 0 90 62 60
        E 0 90 6e 60
        E 120 80 62 00
        E 0 80 6e 00
        E 0 90 54 60
        E 0 90 57 60
        E 0 90 63 60
        E 0 90 6f 60
        E 0 90 60 60
        E 120 80 54 00
        E 0 80 57 00
        E 0 80 63 00
        E 0 80 6f 00
        E 0 80 60 00
        E 0 90 63 60
        E 0 90 6f 60
        E 120 80 78 00
        E 0 80 79 00
        E 0 80 7a 00
        E 0 80 7b 00
        E 0 80 7c 00
        E 0 80 63 00
        E 0 80 6f 00
        E 0 90 40 60
        E 0 90 48 60
        E 0 90 4c 60
        E 0 90 54 60
        E 0 90 58 60
        E 0 90 64 60
        E 0 90 60 60
        E 120 80 40 00
        E 0 80 48 00
        E 0 80 4c 00
        E 0 80 54 00
        E 0 80 58 00
        E 0 80 64 00
        E 0 80 60 00
        E 120 90 54 60
        E 0 90 60 60
        E 120 80 54 00
        E 0 80 60 00
        E 120 90 3e 60
        E 0 90 3f 60
        E 0 90 4a 60
        E 0 90 4b 60
        E 0 90 54 60
        E 0 90 56 60
        E 0 90 57 60
        E 0 90 62 60
        E 0 90 63 60
        E 0 90 6e 60
        E 0 90 6f 60
        E 0 90 60 60
        E 120 80 3e 00
        E 0 80 3f 00
        E 0 80 4a 00
        E 0 80 4b 00
        E 0 80 54 00
        E 0 80 56 00
        E 0 80 57 00
        E 0 80 62 00
        E 0 80 63 00
        E 0 80 6e 00
        E 0 80 6f 00
        E 0 80 60 00
        E 120 90 54 60
        E 0 90 55 60
        E 0 90 56 60
        E 0 90 61 60
        E 0 90 62 60
        E 0 90 6e 60
        E 0 90 60 60
        E 120 80 54 00
        E 0 80 55 00
        E 0 80 56 00
        E 0 80 61 00
        E 0 80 62 00
        E 0 80 6e 00
        E 0 80 60 00
        E 120 90 3e 60
        E 0 90 3f 60
        E 0 90 4a 60
        E 0 90 4b 60
        E 0 90 54 60
        E 0 90 56 60
        E 0 90 57 60
        E 0 90 62 60
        E 0 90 63 60
        E 0 90 6e 60
        E 0 90 6f 60
        E 0 90 60 60
        E 120 80 3e 00
        E 0 80 3f 00
        E 0 80 4a 00
        E 0 80 4b 00
        E 0 80 54 00
        E 0 80 56 00
        E 0 80 57 00
        E 0 80 62 00
        E 0 80 63 00
        E 0 80 6e 00
        E 0 80 6f 00
        E 0 80 60 00
        E 120 90 54 60
        E 0 90 56 60
        E 0 90 57 60
        E 0 90 62 60
        E 0 90 63 60
        E 0 90 6e 60
        E 0 90 6f 60
        E 0 90 60 60
        E 120 80 54 00
        E 0 80 56 00
        E 0 80 57 00
        E 0 80 62 00
        E 0 80 63 00
        E 0 80 6e 00
        E 0 80 6f 00
        E 0 80 60 00
        E 120 90 3e 60
        E 0 90 4a 60
        E 0 90 54 60
        E 0 90 56 60
        E 0 90 62 60
        E 0 90 6e 60
        E 0 90 60 60
        E 120 80 3e 00
        E 0 80 4a 00
        E 0 80 54 00
        E 0 80 56 00
        E 0 80 62 00
        E 0 80 6e 00
        E 0 80 60 00
        E 0 90 62 60
        E 0 90 6e 60
        E 120 80 62 00
        E 0 80 6e 00
        E 0 90 54 60
        E 0 90 57 60
        E 0 90 63 60
        E 0 90 6f 60
        E 0 90 60 60
        E 120 80 54 00
        E 0 80 57 00
        E 0 80 63 00
        E 0 80 6f 00
        E 0 80 60 00
        E 0 90 63 60
        E 0 90 6f 60
        E 120 80 63 00
        E 0 80 6f 00
        E 0 90 3c 60
        E 0 90 48 60
        E 0 90 54 60
        E 0 90 60 60
        E 120 80 3c 00
        E 0 80 48 00
        E 0 80 54 00
        E 0 80 60 00
        E 120 90 54 60
        E 0 90 55 60
        E 0 90 56 60
        E 0 90 61 60
        E 0 90 62 60
        E 0 90 6e 60
        E 0 90 60 60
        E 120 80 54 00
        E 0 80 55 00
        E 0 80 56 00
        E 0 80 61 00
        E 0 80 62 00
        E 0 80 6e 00
        E 0 80 60 00
        E 120 90 3e 60
        E 0 90 3f 60
        E 0 90 4a 60
        E 0 90 4b 60
        E 0 90 54 60
        E 0 90 56 60
        E 0 90 57 60
        E 0 90 62 60
        E 0 90 63 60
        E 0 90 6e 60
        E 0 90 6f 60
        E 0 90 60 60
        E 120 80 3e 00
        E 0 80 3f 00
        E 0 80 4a 00
        E 0 80 4b 00
        E 0 80 54 00
        E 0 80 56 00
        E 0 80 57 00
        E 0 80 62 00
        E 0 80 63 00
        E 0 80 6e 00
        E 0 80 6f 00
        E 0 80 60 00
        E 120 90 54 60
        E 0 90 56 60
        E 0 90 57 60
        E 0 90 62 60
        E 0 90 63 60
        E 0 90 6e 60
        E 0 90 6f 60
        E 0 90 60 60
        E 120 80 54 00
        E 0 80 56 00
        E 0 80 57 00
        E 0 80 62 00
        E 0 80 63 00
        E 0 80 6e 00
        E 0 80 6f 00
        E 0 80 60 00
        E 120 90 3e 60
        E 0 90 3f 60
        E 0 90 4a 60
        E 0 90 4b 60
        E 0 90 54 60
        E 0 90 56 60
        E 0 90 57 60
        E 0 90 62 60
        E 0 90 63 60
        E 0 90 6e 60
        E 0 90 6f 60
        E 0 90 60 60
        E 120 80 3e 00
        E 0 80 3f 00
        E 0 80 4a 00
        E 0 80 4b 00
        E 0 80 54 00
        E 0 80 56 00
        E 0 80 57 00
        E 0 80 62 00
        E 0 80 63 00
        E 0 80 6e 00
        E 0 80 6f 00
        E 0 80 60 00
        E 120 90 54 60
        E 0 90 56 60
        E 0 90 57 60
        E 0 90 62 60
        E 0 90 63 60
        E 0 90 6e 60
        E 0 90 6f 60
        E 0 90 60 60
        E 120 80 54 00
        E 0 80 56 00
        E 0 80 57 00
        E 0 80 62 00
        E 0 80 63 00
        E 0 80 6e 00
        E 0 80 6f 00
        E 0 80 60 00
        E 120 90 3c 60
        E 0 90 48 60
        E 0 90 54 60
        E 0 90 60 60
        E 120 80 3c 00
        E 0 80 48 00
        E 0 80 54 00
        E 0 80 60 00
        E 120 90 54 60
        E 0 90 55 60
        E 0 90 56 60
        E 0 90 61 60
        E 0 90 62 60
        E 0 90 6e 60
        E 0 90 60 60
        E 120 80 54 00
        E 0 80 55 00
        E 0 80 56 00
        E 0 80 61 00
        E 0 80 62 00
        E 0 80 6e 00
        E 0 80 60 00
        E 120 90 3e 60
        E 0 90 3f 60
        E 0 90 4a 60
        E 0 90 4b 60
        E 0 90 54 60
        E 0 90 56 60
        E 0 90 57 60
        E 0 90 62 60
        E 0 90 63 60
        E 0 90 6e 60
        E 0 90 6f 60
        E 0 90 60 60
        E 120 80 3e 00
        E 0 80 3f 00
        E 0 80 4a 00
        E 0 80 4b 00
        E 0 80 54 00
        E 0 80 56 00
        E 0 80 57 00
        E 0 80 62 00
        E 0 80 63 00
        E 0 80 6e 00
        E 0 80 6f 00
        E 0 80 60 00
        E 120 90 54 60
        E 0 90 56 60
        E 0 90 57 60
        E 0 90 62 60
        E 0 90 63 60
        E 0 90 6e 60
        E 0 90 6f 60
        E 0 90 60 60
        E 120 80 54 00
        E 0 80 56 00
        E 0 80 57 00
        E 0 80 62 00
        E 0 80 63 00
        E 0 80 6e 00
        E 0 80 6f 00
        E 0 80 60 00
        E 120 90 3e 60
        E 0 90 4a 60
        E 0 90 54 60
        E 0 90 56 60
        E 0 90 62 60
        E 0 90 6e 60
        E 0 90 60 60
        E 120 80 3e 00
        E 0 80 4a 00
        E 0 80 54 00
        E 0 80 56 00
        E 0 80 62 00
        E 0 80 6e 00
        E 0 80 60 00
        E 0 90 62 60
        E 0 90 6e 60
        E 120 80 62 00
        E 0 80 6e 00
        E 0 90 54 60
        E 0 90 57 60
        E 0 90 63 60
        E 0 90 6f 60
        E 0 90 60 60
        E 120 80 54 00
        E 0 80 57 00
        E 0 80 63 00
        E 0 80 6f 00
        E 0 80 60 00
        E 0 90 63 60
        E 0 90 6f 60
        E 120 80 63 00
        E 0 80 6f 00
        E 0 90 3c 60
        E 0 90 48 60
        E 0 90 54 60
        E 0 90 60 60
        E 120 80 3c 00
        E 0 80 48 00
        E 0 80 54 00
        E 0 80 60 00
        E 120 90 54 60
        E 0 90 55 60
        E 0 90 56 60
        E 0 90 61 60
        E 0 90 62 60
        E 0 90 6e 60
        E 0 90 60 60
        E 120 80 54 00
        E 0 80 55 00
        E 0 80 56 00
        E 0 80 61 00
        E 0 80 62 00
        E 0 80 6e 00
        E 0 80 60 00
        E 120 90 3e 60
        E 0 90 3f 60
        E 0 90 4a 60
        E 0 90 4b 60
        E 0 90 54 60
        E 0 90 56 60
        E 0 90 57 60
        E 0 90 62 60
        E 0 90 63 60
        E 0 90 6e 60
        E 0 90 6f 60
        E 0 90 60 60
        E 120 80 3e 00
        E 0 80 3f 00
        E 0 80 4a 00
        E 0 80 4b 00
        E 0 80 54 00
        E 0 80 56 00
        E 0 80 57 00
        E 0 80 62 00
        E 0 80 63 00
        E 0 80 6e 00
        E 0 80 6f 00
        E 0 80 60 00
        E 120 90 54 60
        E 0 90 56 60
        E 0 90 57 60
        E 0 90 62 60
        E 0 90 63 60
        E 0 90 6e 60
        E 0 90 6f 60
        E 0 90 60 60
        E 120 80 54 00
        E 0 80 56 00
        E 0 80 57 00
        E 0 80 62 00
        E 0 80 63 00
        E 0 80 6e 00
        E 0 80 6f 00
        E 0 80 60 00
        E 120 90 3e 60
        E 0 90 4a 60
        E 0 90 54 60
        E 0 90 56 60
        E 0 90 62 60
        E 0 90 6e 60
        E 0 90 60 60
        E 120 80 3e 00
        E 0 80 4a 00
        E 0 80 54 00
        E 0 80 56 00
        E 0 80 62 00
        E 0 80 6e 00
        E 0 80 60 00
        E 0 90 62 60
        E 0 90 6e 60
        E 120 80 62 00
        E 0 80 6e 00
        E 0 90 54 60
        E 0 90 57 60
        E 0 90 63 60
        E 0 90 6f 60
        E 0 90 60 60
        E 120 80 54 00
        E 0 80 57 00
        E 0 80 63 00
        E 0 80 6f 00
        E 0 80 60 00
        E 0 90 63 60
        E 0 90 6f 60
        E 120 80 63 00
        E 0 80 6f 00
        E 0 90 3c 60
        E 0 90 48 60
        E 0 90 54 60
        E 0 90 60 60
        E 120 80 3c 00
        E 0 80 48 00
        E 0 80 54 00
        E 0 80 60 00
        E 120 90 54 60
        E 0 90 55 60
        E 0 90 56 60
        E 0 90 61 60
        E 0 90 62 60
        E 0 90 6e 60
        E 0 90 60 60
        E 120 80 54 00
        E 0 80 55 00
        E 0 80 56 00
        E 0 80 61 00
        E 0 80 62 00
        E 0 80 6e 00
        E 0 80 60 00
        E 120 90 3e 60
        E 0 90 3f 60
        E 0 90 4a 60
        E 0 90 4b 60
        E 0 90 54 60
        E 0 90 56 60
        E 0 90 57 60
        E 0 90 62 60
        E 0 90 63 60
        E 0 90 6e 60
        E 0 90 6f 60
        E 0 90 60 60
        E 120 80 3e 00
        E 0 80 3f 00
        E 0 80 4a 00
        E 0 80 4b 00
        E 0 80 54 00
        E 0 80 56 00
        E 0 80 57 00
        E 0 80 62 00
        E 0 80 63 00
        E 0 80 6e 00
        E 0 80 6f 00
        E 0 80 60 00
        E 120 90 54 60
        E 0 90 56 60
        E 0 90 57 60
        E 0 90 62 60
        E 0 90 63 60
        E 0 90 6e 60
        E 0 90 6f 60
        E 0 90 60 60
        E 120 80 54 00
        E 0 80 56 00
        E 0 80 57 00
        E 0 80 62 00
        E 0 80 63 00
        E 0 80 6e 00
        E 0 80 6f 00
        E 0 80 60 00
        E 120 90 3e 60
        E 0 90 4a 60
        E 0 90 54 60
        E 0 90 56 60
        E 0 90 62 60
        E 0 90 6e 60
        E 0 90 60 60
        E 120 80 3e 00
        E 0 80 4a 00
        E 0 80 54 00
        E 0 80 56 00
        E 0 80 62 00
        E 0 80 6e 00
        E 0 80 60 00
        E 0 90 62 60
        E 0 90 6e 60
        E 120 80 62 00
        E 0 80 6e 00
        E 0 90 54 60
        E 0 90 57 60
        E 0 90 63 60
        E 0 90 6f 60
        E 0 90 60 60
        E 120 80 54 00
        E 0 80 57 00
        E 0 80 63 00
        E 0 80 6f 00
        E 0 80 60 00
        E 0 90 63 60
        E 0 90 6f 60
        E 120 80 63 00
        E 0 80 6f 00
        E 0 90 3c 60
        E 0 90 48 60
        E 0 90 54 60
        E 0 90 60 60
        E 120 80 3c 00
        E 0 80 48 00
        E 0 80 54 00
        E 0 80 60 00
        E 120 90 54 60
        E 0 90 55 60
        E 0 90 56 60
        E 0 90 61 60
        E 0 90 62 60
        E 0 90 6e 60
        E 0 90 60 60
        E 120 80 54 00
        E 0 80 55 00
        E 0 80 56 00
        E 0 80 61 00
        E 0 80 62 00
        E 0 80 6e 00
        E 0 80 60 00
        E 120 90 3e 60
        E 0 90 3f 60
        E 0 90 4a 60
        E 0 90 4b 60
        E 0 90 54 60
        E 0 90 56 60
        E 0 90 57 60
        E 0 90 62 60
        E 0 90 63 60
        E 0 90 6e 60
        E 0 90 6f 60
        E 0 90 60 60
        E 120 80 3e 00
        E 0 80 3f 00
        E 0 80 4a 00
        E 0 80 4b 00
        E 0 80 54 00
        E 0 80 56 00
        E 0 80 57 00
        E 0 80 62 00
        E 0 80 63 00
        E 0 80 6e 00
        E 0 80 6f 00
        E 0 80 60 00
        E 120 90 54 60
        E 0 90 56 60
        E 0 90 57 60
        E 0 90 62 60
        E 0 90 63 60
        E 0 90 6e 60
        E 0 90 6f 60
        E 0 90 60 60
        E 120 80 54 00
        E 0 80 56 00
        E 0 80 57 00
        E 0 80 62 00
        E 0 80 63 00
        E 0 80 6e 00
        E 0 80 6f 00
        E 0 80 60 00
        E 120 90 3e 60
        E 0 90 3f 60
        E 0 90 4a 60
        E 0 90 4b 60
        E 0 90 54 60
        E 0 90 56 60
        E 0 90 57 60
        E 0 90 62 60
        E 0 90 63 60
        E 0 90 6e 60
        E 0 90 6f 60
        E 0 90 60 60
        E 120 80 3e 00
        E 0 80 3f 00
        E 0 80 4a 00
        E 0 80 4b 00
        E 0 80 54 00
        E 0 80 56 00
        E 0 80 57 00
        E 0 80 62 00
        E 0 80 63 00
        E 0 80 6e 00
        E 0 80 6f 00
        E 0 80 60 00
        E 120 90 54 60
        E 0 90 55 60
        E 0 90 61 60
        E 0 90 60 60
        E 120 80 54 00
        E 0 80 55 00
        E 0 80 61 00
        E 0 80 60 00
        E 0 90 61 60
        E 120 80 61 00
        E 0 90 3d 60
        E 0 90 49 60
        E 0 90 54 60
        E 0 90 55 60
        E 0 90 61 60
        E 0 90 60 60
        E 120 80 3d 00
        E 0 80 49 00
        E 0 80 54 00
        E 0 80 55 00
        E 0 80 61 00
        E 0 80 60 00
        E 0 90 61 60
        E 120 80 61 00
        E 0 90 54 60
        E 0 90 55 60
        E 0 90 61 60
        E 0 90 60 60
        E 120 80 54 00
        E 0 80 55 00
        E 0 80 61 00
        E 0 80 60 00
        E 0 90 61 60
        E 120 80 61 00
        E 0 90 3d 60
        E 0 90 49 60
        E 0 90 54 60
        E 0 90 55 60
        E 0 90 61 60
        E 0 90 60 60
        E 120 80 3d 00
        E 0 80 49 00
        E 0 80 54 00
        E 0 80 55 00
        E 0 80 61 00
        E 0 80 60 00
        E 0 90 61 60
        E 120 80 61 00
        E 0 90 54 60
        E 0 90 55 60
        E 0 90 61 60
        E 0 90 60 60
        E 120 80 54 00
        E 0 80 55 00
        E 0 80 61 00
        E 0 80 60 00
        E 0 90 61 60
        E 120 80 61 00
        E 0 90 3d 60
        E 0 90 49 60
        E 0 90 54 60
        E 0 90 55 60
        E 0 90 61 60
        E 0 90 60 60
        E 120 80 3d 00
        E 0 80 49 00
        E 0 80 54 00
        E 0 80 55 00
        E 0 80 61 00
        E 0 80 60 00
        E 0 90 61 60
        E 120 80 61 00
        E 0 90 54 60
        E 0 90 55 60
        E 0 90 61 60
        E 0 90 60 60
        E 120 80 54 00
        E 0 80 55 00
        E 0 80 61 00
        E 0 80 60 00
        E 0 90 61 60
        E 120 80 61 00
        E 0 90 3d 60
        E 0 90 49 60
        E 0 90 54 60
        E 0 90 55 60
        E 0 90 61 60
        E 0 90 60 60
        E 120 80 3d 00
        E 0 80 49 00
        E 0 80 54 00
        E 0 80 55 00
        E 0 80 61 00
        E 0 80 60 00
        E 0 90 61 60
        E 120 80 61 00
        E 0 90 54 60
        E 0 90 55 60
        E 0 90 61 60
        E 0 90 60 60
        E 120 80 54 00
        E 0 80 55 00
        E 0 80 61 00
        E 0 80 60 00
        E 0 90 61 60
        E 120 80 61 00
        E 0 90 3d 60
        E 0 90 49 60
        E 0 90 54 60
        E 0 90 55 60
        E 0 90 61 60
        E 0 90 60 60
        E 120 80 3d 00
        E 0 80 49 00
        E 0 80 54 00
        E 0 80 55 00
        E 0 80 61 00
        E 0 80 60 00
        E 0 90 61 60
        E 120 80 61 00
        E 0 90 54 60
        E 0 90 55 60
        E 0 90 61 60
        E 0 90 60 60
        E 120 80 54 00
        E 0 80 55 00
        E 0 80 61 00
        E 0 80 60 00
        E 0 90 61 60
        E 120 80 61 00
        E 0 90 40 60
        E 0 90 48 60
        E 0 90 4c 60
        E 0 90 54 60
        E 0 90 58 60
        E 0 90 60 60
        E 0 90 64 60
        E 0 90 74 60
        E 80 80 40 00
        E 0 80 48 00
        E 0 80 4c 00
        E 0 80 54 00
        E 0 80 58 00
        E 0 80 60 00
        E 0 80 64 00
        E 80 90 60 60
        E 80 80 60 00
        E 0 90 54 60
        E 0 90 58 60
        E 0 90 60 60
        E 0 90 64 60
        E 80 80 54 00
        E 0 80 58 00
        E 0 80 60 00
        E 0 80 64 00
        E 160 90 40 60
        E 0 90 4c 60
        E 0 90 58 60
        E 0 90 64 60
        E 80 80 40 00
        E 0 80 4c 00
        E 0 80 58 00
        E 0 80 64 00
        E 0 90 60 60
        E 80 80 60 00
        E 0 90 60 60
        E 80 80 60 00
        E 0 90 55 60
        E 0 90 58 60
        E 0 90 61 60
        E 0 90 64 60
        E 80 80 55 00
        E 0 80 58 00
        E 0 80 61 00
        E 0 80 64 00
        E 160 90 40 60
        E 0 90 4c 60
        E 0 90 58 60
        E 0 90 64 60
        E 80 80 40 00
        E 0 80 4c 00
        E 0 80 58 00
        E 0 80 64 00
        E 80 90 61 60
        E 80 80 61 00
        E 0 90 54 60
        E 0 90 58 60
        E 0 90 60 60
        E 0 90 64 60
        E 80 80 54 00
        E 0 80 58 00
        E 0 80 60 00
        E 0 80 64 00
        E 160 90 40 60
        E 0 90 48 60
        E 0 90 4c 60
        E 0 90 54 60
        E 0 90 58 60
        E 0 90 60 60
        E 0 90 64 60
        E 80 80 40 00
        E 0 80 48 00
        E 0 80 4c 00
        E 0 80 54 00
        E 0 80 58 00
        E 0 80 60 00
        E 0 80 64 00
        E 160 90 54 60
        E 0 90 58 60
        E 0 90 60 60
        E 0 90 64 60
        E 80 80 54 00
        E 0 80 58 00
        E 0 80 60 00
        E 0 80 64 00
        E 160 90 40 60
        E 0 90 4c 60
        E 0 90 58 60
        E 0 90 64 60
        E 80 80 40 00
        E 0 80 4c 00
        E 0 80 58 00
        E 0 80 64 00
        E 0 90 60 60
        E 80 80 60 00
        E 80 90 55 60
        E 0 90 58 60
        E 0 90 61 60
        E 0 90 64 60
        E 80 80 55 00
        E 0 80 58 00
        E 0 80 61 00
        E 0 80 64 00
        E 160 90 40 60
        E 0 90 4c 60
        E 0 90 58 60
        E 0 90 64 60
        E 80 80 40 00
        E 0 80 4c 00
        E 0 80 58 00
        E 0 80 64 00
        E 80 90 61 60
        E 80 80 61 00
        E 0 90 54 60
        E 0 90 58 60
        E 0 90 60 60
        E 0 90 64 60
        E 80 80 54 00
        E 0 80 58 00
        E 0 80 60 00
        E 0 80 64 00
        E 160 90 40 60
        E 0 90 48 60
        E 0 90 4c 60
        E 0 90 54 60
        E 0 90 58 60
        E 0 90 60 60
        E 0 90 64 60
        E 80 80 40 00
        E 0 80 48 00
        E 0 80 4c 00
        E 0 80 54 00
        E 0 80 58 00
        E 0 80 60 00
        E 0 80 64 00
        E 160 90 54 60
        E 0 90 58 60
        E 0 90 60 60
        E 0 90 64 60
        E 80 80 54 00
        E 0 80 58 00
        E 0 80 60 00
        E 0 80 64 00
        E 160 90 40 60
        E 0 90 4c 60
        E 0 90 58 60
        E 0 90 64 60
        E 80 80 40 00
        E 0 80 4c 00
        E 0 80 58 00
        E 0 80 64 00
        E 0 90 60 60
        E 80 80 60 00
        E 0 90 60 60
        E 80 80 60 00
        E 0 90 55 60
        E 0 90 58 60
        E 0 90 61 60
        E 0 90 64 60
        E 120 80 55 00
        E 0 80 58 00
        E 0 80 61 00
        E 0 80 64 00
        E 120 90 3f 60
        E 0 90 4b 60
        E 0 90 57 60
        E 0 90 63 60
        E 120 80 3f 00
        E 0 80 4b 00
        E 0 80 57 00
        E 0 80 63 00
        E 120 90 54 60
        E 0 90 58 60
        E 0 90 60 60
        E 0 90 64 60
        E 120 80 54 00
        E 0 80 58 00
        E 0 80 60 00
        E 0 80 64 00
        E 120 90 40 60
        E 0 90 48 60
        E 0 90 4c 60
        E 0 90 54 60
        E 0 90 58 60
        E 0 90 60 60
        E 0 90 64 60
        E 120 80 40 00
        E 0 80 48 00
        E 0 80 4c 00
        E 0 80 54 00
        E 0 80 58 00
        E 0 80 60 00
        E 0 80 64 00
        E 120 90 55 60
        E 0 90 61 60
        E 120 80 55 00
        E 0 80 61 00
        E 0 90 61 60
        E 120 80 61 00
        E 120 90 61 60
        E 120 80 61 00
        E 0 90 54 60
        E 0 90 58 60
        E 0 90 60 60
        E 0 90 64 60
        E 120 80 54 00
        E 0 80 58 00
        E 0 80 60 00
        E 0 80 64 00
        E 120 90 3d 60
        E 0 90 49 60
        E 0 90 54 60
        E 0 90 55 60
        E 0 90 60 60
        E 0 90 61 60
        E 120 80 3d 00
        E 0 80 49 00
        E 0 80 54 00
        E 0 80 55 00
        E 0 80 60 00
        E 0 80 61 00
        E 0 90 61 60
        E 120 80 61 00
        E 0 90 54 60
        E 0 90 55 60
        E 0 90 60 60
        E 0 90 61 60
        E 120 80 54 00
        E 0 80 55 00
        E 0 80 60 00
        E 0 80 61 00
        E 0 90 61 60
        E 120 80 74 00
        E 0 80 61 00
        E 0 90 40 60
        E 0 90 48 60
        E 0 90 4c 60
        E 0 90 54 60
        E 0 90 58 60
        E 0 90 60 60
        E 0 90 64 60
        E 80 80 40 00
        E 0 80 48 00
        E 0 80 4c 00
        E 0 80 54 00
        E 0 80 58 00
        E 0 80 60 00
        E 0 80 64 00
        E 160 90 54 60
        E 0 90 57 60
        E 0 90 60 60
        E 0 90 63 60
        E 80 80 54 00
        E 0 80 57 00
        E 0 80 60 00
        E 0 80 63 00
        E 160 90 3f 60
        E 0 90 4b 60
        E 0 90 57 60
        E 0 90 63 60
        E 80 80 3f 00
        E 0 80 4b 00
        E 0 80 57 00
        E 0 80 63 00
        E 0 90 60 60
        E 80 80 60 00
        E 0 90 60 60
        E 80 80 60 00
        E 0 90 55 60
        E 0 90 58 60
        E 0 90 61 60
        E 0 90 64 60
        E 80 80 55 00
        E 0 80 58 00
        E 0 80 61 00
        E 0 80 64 00
        E 280 90 61 60
        E 120 80 61 00
        E 0 90 54 60
        E 0 90 58 60
        E 0 90 60 60
        E 0 90 64 60
        E 80 80 54 00
        E 0 80 58 00
        E 0 80 60 00
        E 0 80 64 00
        E 160 90 40 60
        E 0 90 48 60
        E 0 90 4c 60
        E 0 90 54 60
        E 0 90 58 60
        E 0 90 60 60
        E 0 90 64 60
        E 80 80 40 00
        E 0 80 48 00
        E 0 80 4c 00
        E 0 80 54 00
        E 0 80 58 00
        E 0 80 60 00
        E 0 80 64 00
        E 160 90 54 60
        E 0 90 58 60
        E 0 90 60 60
        E 0 90 64 60
        E 80 80 54 00
        E 0 80 58 00
        E 0 80 60 00
        E 0 80 64 00
        E 160 90 40 60
        E 0 90 4c 60
        E 0 90 58 60
        E 0 90 64 60
        E 80 80 40 00
        E 0 80 4c 00
        E 0 80 58 00
        E 0 80 64 00
        E 0 90 60 60
        E 80 80 60 00
        E 0 90 60 60
        E 80 80 60 00
        E 0 90 55 60
        E 0 90 58 60
        E 0 90 61 60
        E 0 90 64 60
        E 80 80 55 00
        E 0 80 58 00
        E 0 80 61 00
        E 0 80 64 00
        E 160 90 3d 60
        E 0 90 49 60
        E 0 90 55 60
        E 0 90 61 60
        E 120 80 3d 00
        E 0 80 49 00
        E 0 80 55 00
        E 0 80 61 00
        E 0 90 61 60
        E 120 80 61 00
        E 0 90 55 60
        E 0 90 61 60
        E 120 80 55 00
        E 0 80 61 00
        E 0 90 61 60
        E 120 80 61 00
        E 0 90 40 60
        E 0 90 48 60
        E 0 90 4c 60
        E 0 90 54 60
        E 0 90 58 60
        E 0 90 60 60
        E 0 90 64 60
        E 80 80 40 00
        E 0 80 48 00
        E 0 80 4c 00
        E 0 80 54 00
        E 0 80 58 00
        E 0 80 60 00
        E 0 80 64 00
        E 160 90 54 60
        E 0 90 58 60
        E 0 90 60 60
        E 0 90 64 60
        E 80 80 54 00
        E 0 80 58 00
        E 0 80 60 00
        E 0 80 64 00
        E 160 90 40 60
        E 0 90 4c 60
        E 0 90 58 60
        E 0 90 64 60
        E 80 80 40 00
        E 0 80 4c 00
        E 0 80 58 00
        E 0 80 64 00
        E 0 90 60 60
        E 80 80 60 00
        E 0 90 60 60
        E 80 80 60 00
        E 0 90 55 60
        E 0 90 58 60
        E 0 90 61 60
        E 0 90 64 60
        E 80 80 55 00
        E 0 80 58 00
        E 0 80 61 00
        E 0 80 64 00
        E 400 90 54 60
        E 0 90 57 60
        E 0 90 60 60
        E 0 90 63 60
        E 80 80 54 00
        E 0 80 57 00
        E 0 80 60 00
        E 0 80 63 00
        E 160 90 40 60
        E 0 90 48 60
        E 0 90 4c 60
        E 0 90 54 60
        E 0 90 58 60
        E 0 90 60 60
        E 0 90 64 60
        E 0 90 78 60
        E 0 90 79 60
        E 0 90 7a 60
        E 0 90 7b 60
        E 0 90 7c 60
        E 120 80 40 00
        E 0 80 48 00
        E 0 80 4c 00
        E 0 80 54 00
        E 0 80 58 00
        E 0 80 60 00
        E 0 80 64 00
        E 120 90 55 60
        E 0 90 61 60
        E 80 80 55 00
        E 0 80 61 00
        E 0 90 61 60
        E 80 80 61 00
        E 0 90 61 60
        E 80 80 61 00
        E 0 90 3d 60
        E 0 90 49 60
        E 0 90 55 60
        E 0 90 61 60
        E 120 80 3d 00
        E 0 80 49 00
        E 0 80 55 00
        E 0 80 61 00
        E 0 90 61 60
        E 120 80 61 00
        E 0 90 54 60
        E 0 90 58 60
        E 0 90 60 60
        E 0 90 64 60
        E 120 80 54 00
        E 0 80 58 00
        E 0 80 60 00
        E 0 80 64 00
        E 120 90 3d 60
        E 0 90 49 60
        E 0 90 55 60
        E 0 90 61 60
        E 120 80 3d 00
        E 0 80 49 00
        E 0 80 55 00
        E 0 80 61 00
        E 0 90 61 60
        E 120 80 61 00
        E 0 90 55 60
        E 0 90 61 60
        E 120 80 55 00
        E 0 80 61 00
        E 0 90 61 60
        E 120 80 78 00
        E 0 80 79 00
        E 0 80 7a 00
        E 0 80 7b 00
        E 0 80 7c 00
        E 0 80 61 00
        E 0 90 40 60
        E 0 90 48 60
        E 0 90 4c 60
        E 0 90 54 60
        E 0 90 58 60
        E 0 90 60 60
        E 0 90 64 60
        E 120 80 40 00
        E 0 80 48 00
        E 0 80 4c 00
        E 0 80 54 00
        E 0 80 58 00
        E 0 80 60 00
        E 0 80 64 00
        E 120 90 55 60
        E 0 90 61 60
        E 120 80 55 00
        E 0 80 61 00
        E 0 90 60 60
        E 0 90 64 60
        E 120 80 60 00
        E 0 80 64 00
        E 120 90 61 60
        E 120 80 61 00
        E 0 90 54 60
        E 0 90 58 60
        E 0 90 60 60
        E 0 90 64 60
        E 120 80 54 00
        E 0 80 58 00
        E 0 80 60 00
        E 0 80 64 00
        E 120 90 3d 60
        E 0 90 49 60
        E 0 90 55 60
        E 0 90 61 60
        E 120 80 3d 00
        E 0 80 49 00
        E 0 80 55 00
        E 0 80 61 00
        E 0 90 60 60
        E 0 90 62 60
        E 120 80 60 00
        E 0 80 62 00
        E 120 90 61 60
        E 120 80 61 00
        E 0 90 40 60
        E 0 90 48 60
        E 0 90 4c 60
        E 0 90 54 60
        E 0 90 58 60
        E 0 90 60 60
        E 0 90 64 60
        E 120 80 40 00
        E 0 80 48 00
        E 0 80 4c 00
        E 0 80 54 00
        E 0 80 58 00
        E 0 80 60 00
        E 0 80 64 00
        E 120 90 55 60
        E 0 90 61 60
        E 120 80 55 00
        E 0 80 61 00
        E 0 90 60 60
        E 0 90 64 60
        E 120 80 60 00
        E 0 80 64 00
        E 120 90 61 60
        E 120 80 61 00
        E 0 90 54 60
        E 0 90 58 60
        E 0 90 60 60
        E 0 90 64 60
        E 120 80 54 00
        E 0 80 58 00
        E 0 80 60 00
        E 0 80 64 00
        E 120 90 3d 60
        E 0 90 49 60
        E 0 90 55 60
        E 0 90 61 60
        E 120 80 3d 00
        E 0 80 49 00
        E 0 80 55 00
        E 0 80 61 00
        E 0 90 60 60
        E 0 90 62 60
        E 120 80 60 00
        E 0 80 62 00
        E 120 90 61 60
        E 120 80 61 00
        E 0 90 40 60
        E 0 90 48 60
        E 0 90 4c 60
        E 0 90 54 60
        E 0 90 58 60
        E 0 90 60 60
        E 0 90 64 60
        E 120 80 40 00
        E 0 80 48 00
        E 0 80 4c 00
        E 0 80 54 00
        E 0 80 58 00
        E 0 80 60 00
        E 0 80 64 00
        E 120 90 55 60
        E 0 90 61 60
        E 120 80 55 00
        E 0 80 61 00
        E 0 90 60 60
        E 0 90 64 60
        E 120 80 60 00
        E 0 80 64 00
        E 80 90 60 60
        E 80 80 60 00
        E 0 90 60 60
        E 80 80 60 00
        E 0 90 3d 60
        E 0 90 49 60
        E 0 90 4c 60
        E 0 90 55 60
        E 0 90 58 60
        E 0 90 61 60
        E 0 90 64 60
        E 120 80 3d 00
        E 0 80 49 00
        E 0 80 4c 00
        E 0 80 55 00
        E 0 80 58 00
        E 0 80 61 00
        E 0 80 64 00
        E 360 90 54 60
        E 0 90 58 60
        E 0 90 60 60
        E 0 90 64 60
        E 120 80 54 00
        E 0 80 58 00
        E 0 80 60 00
        E 0 80 64 00
        E 120 90 3d 60
        E 0 90 49 60
        E 0 90 55 60
        E 0 90 61 60
        E 0 90 78 60
        E 0 90 79 60
        E 0 90 7a 60
        E 0 90 7b 60
        E 0 90 7c 60
        E 60 80 3d 00
        E 0 80 49 00
        E 0 80 55 00
        E 0 80 61 00
        E 0 90 61 60
        E 60 80 61 00
        E 0 90 61 60
        E 120 80 61 00
        E 0 90 55 60
        E 0 90 61 60
        E 120 80 55 00
        E 0 80 61 00
        E 0 90 61 60
        E 120 80 61 00
        E 0 90 3e 60
        E 0 90 4a 60
        E 0 90 54 60
        E 0 90 56 60
        E 0 90 60 60
        E 0 90 62 60
        E 0 90 6e 60
        E 120 80 3e 00
        E 0 80 4a 00
        E 0 80 54 00
        E 0 80 56 00
        E 0 80 60 00
        E 0 80 62 00
        E 0 80 6e 00
        E 120 90 54 60
        E 0 90 55 60
        E 0 90 60 60
        E 0 90 61 60
        E 120 80 54 00
        E 0 80 55 00
        E 0 80 60 00
        E 0 80 61 00
        E 0 90 61 60
        E 120 80 61 00
        E 0 90 3e 60
        E 0 90 4a 60
        E 0 90 54 60
        E 0 90 56 60
        E 0 90 60 60
        E 0 90 62 60
        E 0 90 6e 60
        E 120 80 3e 00
        E 0 80 4a 00
        E 0 80 54 00
        E 0 80 56 00
        E 0 80 60 00
        E 0 80 62 00
        E 0 80 6e 00
        E 0 90 62 60
        E 0 90 6e 60
        E 120 80 62 00
        E 0 80 6e 00
        E 0 90 54 60
        E 0 90 57 60
        E 0 90 60 60
        E 0 90 63 60
        E 0 90 6f 60
        E 120 80 54 00
        E 0 80 57 00
        E 0 80 60 00
        E 0 80 63 00
        E 0 80 6f 00
        E 0 90 63 60
        E 0 90 6f 60
        E 120 80 78 00
        E 0 80 79 00
        E 0 80 7a 00
        E 0 80 7b 00
        E 0 80 7c 00
        E 0 80 63 00
        E 0 80 6f 00
        E 0 90 40 60
        E 0 90 48 60
        E 0 90 4c 60
        E 0 90 54 60
        E 0 90 58 60
        E 0 90 60 60
        E 0 90 64 60
        E 120 80 40 00
        E 0 80 48 00
        E 0 80 4c 00
        E 0 80 54 00
        E 0 80 58 00
        E 0 80 60 00
        E 0 80 64 00
        E 120 90 54 60
        E 0 90 57 60
        E 0 90 60 60
        E 0 90 63 60
        E 120 80 54 00
        E 0 80 57 00
        E 0 80 60 00
        E 0 80 63 00
        E 120 90 3f 60
        E 0 90 4b 60
        E 0 90 57 60
        E 0 90 63 60
        E 80 80 3f 00
        E 0 80 4b 00
        E 0 80 57 00
        E 0 80 63 00
        E 0 90 60 60
        E 80 80 60 00
        E 0 90 60 60
        E 80 80 60 00
        E 0 90 55 60
        E 0 90 58 60
        E 0 90 61 60
        E 0 90 64 60
        E 120 80 55 00
        E 0 80 58 00
        E 0 80 61 00
        E 0 80 64 00
        E 240 90 61 60
        E 120 80 61 00
        E 0 90 54 60
        E 0 90 57 60
        E 0 90 60 60
        E 0 90 63 60
        E 120 80 54 00
        E 0 80 57 00
        E 0 80 60 00
        E 0 80 63 00
        E 120 90 3f 60
        E 0 90 48 60
        E 0 90 4b 60
        E 0 90 54 60
        E 0 90 57 60
        E 0 90 60 60
        E 0 90 63 60
        E 120 80 3f 00
        E 0 80 48 00
        E 0 80 4b 00
        E 0 80 54 00
        E 0 80 57 00
        E 0 80 60 00
        E 0 80 63 00
        E 120 90 54 60
        E 0 90 57 60
        E 0 90 60 60
        E 0 90 63 60
        E 120 80 54 00
        E 0 80 57 00
        E 0 80 60 00
        E 0 80 63 00
        E 120 90 3f 60
        E 0 90 4b 60
        E 0 90 57 60
        E 0 90 63 60
        E 80 90 60 60
        E 40 80 3f 00
        E 0 80 4b 00
        E 0 80 57 00
        E 0 80 63 00
        E 40 80 60 00
        E 0 90 60 60
        E 80 80 60 00
        E 0 90 55 60
        E 0 90 58 60
        E 0 90 61 60
        E 0 90 64 60
        E 120 80 55 00
        E 0 80 58 00
        E 0 80 61 00
        E 0 80 64 00
        E 120 90 3f 60
        E 0 90 4b 60
        E 0 90 57 60
        E 0 90 63 60
        E 120 80 3f 00
        E 0 80 4b 00
        E 0 80 57 00
        E 0 80 63 00
        E 120 90 54 60
        E 0 90 57 60
        E 0 90 60 60
        E 0 90 63 60
        E 120 80 54 00
        E 0 80 57 00
        E 0 80 60 00
        E 0 80 63 00
        E 120 90 3f 60
        E 0 90 48 60
        E 0 90 4b 60
        E 0 90 54 60
        E 0 90 57 60
        E 0 90 60 60
        E 0 90 63 60
        E 120 80 3f 00
        E 0 80 48 00
        E 0 80 4b 00
        E 0 80 54 00
        E 0 80 57 00
        E 0 80 60 00
        E 0 80 63 00
        E 120 90 54 60
        E 0 90 57 60
        E 0 90 60 60
        E 0 90 63 60
        E 120 80 54 00
        E 0 80 57 00
        E 0 80 60 00
        E 0 80 63 00
        E 120 90 3f 60
        E 0 90 4b 60
        E 0 90 57 60
        E 0 90 63 60
        E 80 80 3f 00
        E 0 80 4b 00
        E 0 80 57 00
        E 0 80 63 00
        E 0 90 60 60
        E 80 80 60 00
        E 0 90 60 60
        E 80 80 60 00
        E 0 90 55 60
        E 0 90 58 60
        E 0 90 61 60
        E 0 90 64 60
        E 120 80 55 00
        E 0 80 58 00
        E 0 80 61 00
        E 0 80 64 00
        E 360 90 54 60
        E 0 90 57 60
        E 0 90 60 60
        E 0 90 63 60
        E 120 80 54 00
        E 0 80 57 00
        E 0 80 60 00
        E 0 80 63 00
        E 120 90 40 60
        E 0 90 48 60
        E 0 90 4c 60
        E 0 90 54 60
        E 0 90 58 60
        E 0 90 60 60
        E 0 90 64 60
        E 120 80 40 00
        E 0 80 48 00
        E 0 80 4c 00
        E 0 80 54 00
        E 0 80 58 00
        E 0 80 60 00
        E 0 80 64 00
        E 120 90 55 60
        E 0 90 61 60
        E 80 80 55 00
        E 0 80 61 00
        E 0 90 61 60
        E 80 80 61 00
        E 0 90 61 60
        E 80 80 61 00
        E 0 90 3d 60
        E 0 90 49 60
        E 0 90 55 60
        E 0 90 61 60
        E 80 80 3d 00
        E 0 80 49 00
        E 0 80 55 00
        E 0 80 61 00
        E 0 90 61 60
        E 80 80 61 00
        E 0 90 61 60
        E 80 80 61 00
        E 0 90 54 60
        E 0 90 58 60
        E 0 90 60 60
        E 0 90 64 60
        E 120 80 54 00
        E 0 80 58 00
        E 0 80 60 00
        E 0 80 64 00
        E 120 90 3d 60
        E 0 90 49 60
        E 0 90 55 60
        E 0 90 61 60
        E 80 80 3d 00
        E 0 80 49 00
        E 0 80 55 00
        E 0 80 61 00
        E 0 90 61 60
        E 80 80 61 00
        E 0 90 61 60
        E 80 80 61 00
        E 0 90 55 60
        E 0 90 61 60
        E 120 80 55 00
        E 0 80 61 00
        E 120 90 3d 60
        E 0 90 49 60
        E 0 90 54 60
        E 0 90 55 60
        E 0 90 60 60
        E 0 90 61 60
        E 120 80 3d 00
        E 0 80 49 00
        E 0 80 54 00
        E 0 80 55 00
        E 0 80 60 00
        E 0 80 61 00
        E 0 90 61 60
        E 120 80 61 00
        E 0 90 54 60
        E 0 90 55 60
        E 0 90 60 60
        E 0 90 61 60
        E 120 80 54 00
        E 0 80 55 00
        E 0 80 60 00
        E 0 80 61 00
        E 0 90 61 60
        E 120 80 61 00
        E 0 90 3d 60
        E 0 90 49 60
        E 0 90 54 60
        E 0 90 55 60
        E 0 90 60 60
        E 0 90 61 60
        E 120 80 3d 00
        E 0 80 49 00
        E 0 80 54 00
        E 0 80 55 00
        E 0 80 60 00
        E 0 80 61 00
        E 0 90 61 60
        E 120 80 61 00
        E 0 90 54 60
        E 0 90 55 60
        E 0 90 60 60
        E 0 90 61 60
        E 120 80 54 00
        E 0 80 55 00
        E 0 80 60 00
        E 0 80 61 00
        E 0 90 61 60
        E 120 80 61 00
        E 0 90 3d 60
        E 0 90 49 60
        E 0 90 54 60
        E 0 90 55 60
        E 0 90 60 60
        E 0 90 61 60
        E 120 80 3d 00
        E 0 80 49 00
        E 0 80 54 00
        E 0 80 55 00
        E 0 80 60 00
        E 0 80 61 00
        E 120 90 54 60
        E 0 90 55 60
        E 0 90 60 60
        E 0 90 61 60
        E 120 80 54 00
        E 0 80 55 00
        E 0 80 60 00
        E 0 80 61 00
        E 120 90 3d 60
        E 0 90 49 60
        E 0 90 54 60
        E 0 90 55 60
        E 0 90 60 60
        E 0 90 61 60
        E 120 80 3d 00
        E 0 80 49 00
        E 0 80 54 00
        E 0 80 55 00
        E 0 80 60 00
        E 0 80 61 00
        E 0 90 61 60
        E 120 80 61 00
        E 0 90 54 60
        E 0 90 55 60
        E 0 90 60 60
        E 0 90 61 60
        E 120 80 54 00
        E 0 80 55 00
        E 0 80 60 00
        E 0 80 61 00
        E 0 90 61 60
        E 120 80 61 00
        E 0 90 3d 60
        E 0 90 49 60
        E 0 90 54 60
        E 0 90 55 60
        E 0 90 60 60
        E 0 90 61 60
        E 120 80 3d 00
        E 0 80 49 00
        E 0 80 54 00
        E 0 80 55 00
        E 0 80 60 00
        E 0 80 61 00
        E 0 90 61 60
        E 120 80 61 00
        E 0 90 54 60
        E 0 90 55 60
        E 0 90 60 60
        E 0 90 61 60
        E 120 80 54 00
        E 0 80 55 00
        E 0 80 60 00
        E 0 80 61 00
        E 0 90 61 60
        E 120 80 61 00
        E 0 90 3d 60
        E 0 90 49 60
        E 0 90 54 60
        E 0 90 55 60
        E 0 90 60 60
        E 0 90 61 60
        E 120 80 3d 00
        E 0 80 49 00
        E 0 80 54 00
        E 0 80 55 00
        E 0 80 60 00
        E 0 80 61 00
        E 120 90 54 60
        E 0 90 55 60
        E 0 90 60 60
        E 0 90 61 60
        E 120 80 54 00
        E 0 80 55 00
        E 0 80 60 00
        E 0 80 61 00
        E 120 90 3d 60
        E 0 90 49 60
        E 0 90 54 60
        E 0 90 55 60
        E 0 90 60 60
        E 0 90 61 60
        E 120 80 3d 00
        E 0 80 49 00
        E 0 80 54 00
        E 0 80 55 00
        E 0 80 60 00
        E 0 80 61 00
        E 0 90 61 60
        E 120 80 61 00
        E 0 90 54 60
        E 0 90 55 60
        E 0 90 60 60
        E 0 90 61 60
        E 120 80 54 00
        E 0 80 55 00
        E 0 80 60 00
        E 0 80 61 00
        E 0 90 61 60
        E 120 80 61 00
        E 0 90 3d 60
        E 0 90 49 60
        E 0 90 54 60
        E 0 90 55 60
        E 0 90 60 60
        E 0 90 61 60
        E 120 80 3d 00
        E 0 80 49 00
        E 0 80 54 00
        E 0 80 55 00
        E 0 80 60 00
        E 0 80 61 00
        E 0 90 61 60
        E 120 80 61 00
        E 0 90 54 60
        E 0 90 55 60
        E 0 90 60 60
        E 0 90 61 60
        E 120 80 54 00
        E 0 80 55 00
        E 0 80 60 00
        E 0 80 61 00
        E 0 90 61 60
        E 120 80 61 00
        E 0 90 3d 60
        E 0 90 49 60
        E 0 90 54 60
        E 0 90 55 60
        E 0 90 60 60
        E 0 90 61 60
        E 120 80 3d 00
        E 0 80 49 00
        E 0 80 54 00
        E 0 80 55 00
        E 0 80 60 00
        E 0 80 61 00
        E 120 90 54 60
        E 0 90 55 60
        E 0 90 60 60
        E 0 90 61 60
        E 120 80 54 00
        E 0 80 55 00
        E 0 80 60 00
        E 0 80 61 00
        E 120 90 3d 60
        E 0 90 49 60
        E 0 90 54 60
        E 0 90 55 60
        E 0 90 60 60
        E 0 90 61 60
        E 120 80 3d 00
        E 0 80 49 00
        E 0 80 54 00
        E 0 80 55 00
        E 0 80 60 00
        E 0 80 61 00
        E 0 90 61 60
        E 120 80 61 00
        E 0 90 54 60
        E 0 90 55 60
        E 0 90 60 60
        E 0 90 61 60
        E 120 80 54 00
        E 0 80 55 00
        E 0 80 60 00
        E 0 80 61 00
        E 0 90 61 60
        E 120 80 61 00
        E 0 90 3d 60
        E 0 90 49 60
        E 0 90 54 60
        E 0 90 55 60
        E 0 90 60 60
        E 0 90 61 60
        E 120 80 3d 00
        E 0 80 49 00
        E 0 80 54 00
        E 0 80 55 00
        E 0 80 60 00
        E 0 80 61 00
        E 0 90 61 60
        E 120 80 61 00
        E 0 90 54 60
        E 0 90 55 60
        E 0 90 60 60
        E 0 90 61 60
        E 120 80 54 00
        E 0 80 55 00
        E 0 80 60 00
        E 0 80 61 00
        E 0 90 61 60
        E 120 80 61 00
        E 0 90 3d 60
        E 0 90 49 60
        E 0 90 54 60
        E 0 90 55 60
        E 0 90 60 60
        E 0 90 61 60
        E 120 80 3d 00
        E 0 80 49 00
        E 0 80 54 00
        E 0 80 55 00
        E 0 80 60 00
        E 0 80 61 00
        E 120 90 54 60
        E 0 90 55 60
        E 0 90 60 60
        E 0 90 61 60
        E 120 80 54 00
        E 0 80 55 00
        E 0 80 60 00
        E 0 80 61 00
        E 120 90 3d 60
        E 0 90 49 60
        E 0 90 54 60
        E 0 90 55 60
        E 0 90 60 60
        E 0 90 61 60
        E 120 80 3d 00
        E 0 80 49 00
        E 0 80 54 00
        E 0 80 55 00
        E 0 80 60 00
        E 0 80 61 00
        E 0 90 61 60
        E 120 80 61 00
        E 0 90 54 60
        E 0 90 55 60
        E 0 90 60 60
        E 0 90 61 60
        E 120 80 54 00
        E 0 80 55 00
        E 0 80 60 00
        E 0 80 61 00
        E 0 90 61 60
        E 120 80 61 00
        E 0 90 3c 60
        E 0 90 48 60
        E 0 90 54 60
        E 0 90 60 60
        E 120 80 3c 00
        E 0 80 48 00
        E 0 80 54 00
        E 0 80 60 00
        E 120 90 54 60
        E 0 90 55 60
        E 0 90 60 60
        E 0 90 61 60
        E 120 80 54 00
        E 0 80 55 00
        E 0 80 60 00
        E 0 80 61 00
        E 0 90 61 60
        E 120 80 61 00
        E 0 90 3d 60
        E 0 90 49 60
        E 0 90 54 60
        E 0 90 55 60
        E 0 90 60 60
        E 0 90 61 60
        E 120 80 3d 00
        E 0 80 49 00
        E 0 80 54 00
        E 0 80 55 00
        E 0 80 60 00
        E 0 80 61 00
        E 0 90 61 60
        E 120 80 61 00
        E 0 90 54 60
        E 0 90 60 60
        E 120 80 54 00
        E 0 80 60 00
        E 120 90 3d 60
        E 0 90 49 60
        E 0 90 54 60
        E 0 90 55 60
        E 0 90 60 60
        E 0 90 61 60
        E 120 80 3d 00
        E 0 80 49 00
        E 0 80 54 00
        E 0 80 55 00
        E 0 80 60 00
        E 0 80 61 00
        E 0 90 61 60
        E 120 80 61 00
        E 0 90 54 60
        E 0 90 55 60
        E 0 90 60 60
        E 0 90 61 60
        E 120 80 54 00
        E 0 80 55 00
        E 0 80 60 00
        E 0 80 61 00
        E 0 90 61 60
        E 120 80 61 00
        E 0 90 3c 60
        E 0 90 48 60
        E 0 90 54 60
        E 0 90 60 60
        E 120 80 3c 00
        E 0 80 48 00
        E 0 80 54 00
        E 0 80 60 00
        E 0 90 61 60
        E 120 80 61 00
        E 0 90 54 60
        E 0 90 58 60
        E 0 90 60 60
        E 0 90 64 60
        E 120 80 54 00
        E 0 80 58 00
        E 0 80 60 00
        E 0 80 64 00
        E 120 90 3d 60
        E 0 90 49 60
        E 0 90 55 60
        E 0 90 61 60
        E 120 80 3d 00
        E 0 80 49 00
        E 0 80 55 00
        E 0 80 61 00
        E 0 90 60 60
        E 0 90 64 60
        E 120 80 60 00
        E 0 80 64 00
        <X 480 0
          /wFbaWRsZV9yZWFsdGltZV0=
        >
        E 9840 b0 7b 00
        GUID {99C52F88-C54B-4CCD-B038-A5C950AC8E6E}
        IGNTEMPO 0 120 4 4
        SRCCOLOR 0
        VELLANE 132 38 60
        COLORMAP "C:\Program Files (x86)\REAPER\Data\color_maps\rockband_drums.png"
        TEXTSTRINGFILE "Text Events List.txt"
        CFGEDITVIEW 39714.150688 401.441001 6 12 0 -1 0 0 0 0.5
        KEYSNAP 0
        TRACKSEL 0
        EVTFILTER 0 -1 -1 -1 -1 0 1 0 0 -1 -1 -1 -1 0 -1 0 -1 -1
        CFGEDIT 1 1 0 0 0 1 1 1 1 1 1 0.08333333 275 172 1645 908 0 2 1 2 0 0 0 0 0 0.5 1 0 1 64
      >
    >
  >
  <TRACK {75AE721D-70A2-4F6C-9A7A-F37FAA7EAA0F}
    NAME "PART DRUMS_2X"
    PEAKCOL 16842751
    BEAT -1
    AUTOMODE 0
    VOLPAN 1 0 -1 -1 1
    MUTESOLO 0 0 0
    IPHASE 0
    ISBUS 0 0
    BUSCOMP 1 0
    SHOWINMIX 1 0.6667 0.5 1 0.5 0 0 0
    FREEMODE 0
    SEL 0
    REC 0 4096 1 7 0 0 0
    TRACKHEIGHT 0 0
    INQ 0 0 0 0.5 100 0 0 100
    NCHAN 2
    FX 1
    TRACKID {75AE721D-70A2-4F6C-9A7A-F37FAA7EAA0F}
    PERF 0
    MIDIOUT -1
    <MIDINOTENAMES
      0 24 "KICK RF" 0 24
      0 25 "HI-HAT OPEN" 0 25
      0 26 "SNARE HARD LH" 0 26
      0 27 "SNARE HARD RH" 0 27
      0 28 "SNARE SOFT LH" 0 28
      0 29 "SNARE SOFT RH" 0 29
      0 30 "HI-HAT LH" 0 30
      0 31 "HI-HAT RH" 0 31
      0 32 "PERCUSSION RH" 0 32
      0 34 "CRASH1 HARD LH" 0 34
      0 35 "CRASH1 SOFT LH" 0 35
      0 36 "CRASH1 HARD RH" 0 36
      0 37 "CRASH1 SOFT RH" 0 37
      0 38 "CRASH2 HARD RH" 0 38
      0 39 "CRASH2 SOFT RH" 0 39
      0 40 "CRASH1 CHOKE" 0 40
      0 41 "CRASH2 CHOKE" 0 41
      0 42 "RIDE CYM RH" 0 42
      0 43 "RIDE CYM LH" 0 43
      0 44 "CRASH2 HARD LH" 0 44
      0 45 "CRASH2 SOFT LH" 0 45
      0 46 "TOM1 LH" 0 46
      0 47 "TOM1 RH" 0 47
      0 48 "TOM2 LH" 0 48
      0 49 "TOM2 RH" 0 49
      0 50 "FLOOR TOM LH" 0 50
      0 51 "FLOOR TOM RH" 0 51
      0 52 "--DRUM ANIMATION--" 0 52
      0 56 ---- 0 56
      0 60 "EASY Kick" 0 60
      0 61 "EASY Red" 0 61
      0 62 "EASY Yellow" 0 62
      0 63 "EASY Blue" 0 63
      0 64 "EASY Green" 0 64
      0 68 ---- 0 68
      0 72 "MEDIUM Kick" 0 72
      0 73 "MEDIUM Red" 0 73
      0 74 "MEDIUM Yellow" 0 74
      0 75 "MEDIUM Blue" 0 75
      0 76 "MEDIUM Green" 0 76
      0 80 ---- 0 80
      0 84 "HARD Kick" 0 84
      0 85 "HARD Red" 0 85
      0 86 "HARD Yellow" 0 86
      0 87 "HARD Blue" 0 87
      0 88 "HARD Green" 0 88
      0 92 ---- 0 92
      0 96 "EXPERT Kick" 0 96
      0 97 "EXPERT Red" 0 97
      0 98 "EXPERT Yellow" 0 98
      0 99 "EXPERT Blue" 0 99
      0 100 "EXPERT Green" 0 100
      0 101 " " 0 101
      0 102 ---- 0 102
      0 103 "Solo Marker" 0 103
      0 108 ---- 0 108
      0 110 "PRO Yellow Tom" 0 110
      0 111 "PRO Blue Tom" 0 111
      0 112 "PRO Green Tom" 0 112
      0 114 ---- 0 114
      0 116 OVERDRIVE 0 116
      0 118 ---- 0 118
      0 120 "DRUM FILL (use all 5)" 0 120
      0 121 "DRUM FILL" 0 121
      0 122 "DRUM FILL" 0 122
      0 123 "DRUM FILL" 0 123
      0 124 "DRUM FILL" 0 124
      0 125 ---- 0 125
      0 126 "Roll Marker 1-Lane" 0 126
      0 127 "Roll Marker 2-Lane / Cym" 0 127
    >
    MAINSEND 1 0
    <FXCHAIN
      WNDRECT 0 38 870 574
      SHOW 0
      LASTSEL 1
      DOCKED 0
      BYPASS 1 0 0
      <VST "VSTi: ReaSynth (Cockos)" reasynth.dll 0 "" 1919251321
        eXNlcu9e7f4AAAAAAgAAAAEAAAAAAAAAAgAAAAAAAAA8AAAAAAAAAAAAAAA=
        776t3g3wrd4AAAAAAAAAAAAAAAAAAAAAObRIPn3L2z61tLE5AAAAALbz/T5VpCs6AAAAAAAAAAAAAIA/
        AAAAAAAA
      >
      FLOATPOS 0 0 0 0
      FXID {58F55556-9407-4062-A048-6AFCC0B53535}
      WAK 0
      BYPASS 0 0 0
      <VST "VSTi: RBN Preview (RBN)" rbprev_vst.dll 0 "" ""
        dnBicu5e7f4AAAAAAgAAAAEAAAAAAAAAAgAAAAAAAAAEAAAAAQAAAAAAAAADAaoAAAAAAAAA
      >
      FLOATPOS 32 32 659 497
      FXID {D7126437-AB1E-4109-A0FA-F2D5D0AC68DC}
      WAK 0
    >
    <ITEM
      POSITION 0
      SNAPOFFS 0
      LENGTH 177.06791585015557
      LOOP 0
      ALLTAKES 0
      FADEIN 1 0 0 1 0 0
      FADEOUT 1 0 0 1 0 0
      MUTE 0
      COLOR 19150555 R
      SEL 0
      IGUID {9FF11F36-E94F-4396-9C0E-8449C916EC21}
      IID 9
      NAME "PART DRUMS_2X"
      VOLPAN 1 0 1 -1
      SOFFS 0 0
      PLAYRATE 1 1 0 -65536 0 0.0025
      CHANMODE 0
      GUID {70A79ADF-E70C-430A-913F-E16D0CC85517}
      <SOURCE MIDI
        HASDATA 1 480 QN
        POOLEDEVTS {A61FB76F-290D-43C7-BBF9-AEC6DA4E3534}
        <X 0 0
          /wNQQVJUIERSVU1TXzJY
        >
        <X 300 0
          /wFbbWl4IDEgZHJ1bXMwXQ==
        >
        <X 0 0
          /wFbbWl4IDAgZHJ1bXMwXQ==
        >
        <X 60 0
          /wFbbWl4IDIgZHJ1bXMwXQ==
        >
        <X 60 0
          /wFbbWl4IDMgZHJ1bXMwXQ==
        >
        <X 2460 0
          /wFbaWRsZV0=
        >
        <X 1440 0
          /wFbcGxheV0=
        >
        E 0 90 40 60
        E 0 90 48 60
        E 0 90 4c 60
        E 0 90 54 60
        E 0 90 58 60
        E 0 90 60 60
        E 0 90 64 60
        E 120 80 40 00
        E 0 80 48 00
        E 0 80 4c 00
        E 0 80 54 00
        E 0 80 58 00
        E 0 80 60 00
        E 0 80 64 00
        E 120 90 54 60
        E 0 90 56 60
        E 0 90 60 60
        E 0 90 62 60
        E 120 80 54 00
        E 0 80 56 00
        E 0 80 60 00
        E 0 80 62 00
        E 120 90 3e 60
        E 0 90 4a 60
        E 0 90 56 60
        E 0 90 62 60
        E 120 80 3e 00
        E 0 80 4a 00
        E 0 80 56 00
        E 0 80 62 00
        E 0 90 60 60
        E 120 80 60 00
        E 0 90 55 60
        E 0 90 56 60
        E 0 90 61 60
        E 0 90 62 60
        E 120 80 55 00
        E 0 80 56 00
        E 0 80 61 00
        E 0 80 62 00
        E 120 90 3e 60
        E 0 90 48 60
        E 0 90 4a 60
        E 0 90 54 60
        E 0 90 56 60
        E 0 90 60 60
        E 0 90 62 60
        E 120 80 3e 00
        E 0 80 48 00
        E 0 80 4a 00
        E 0 80 54 00
        E 0 80 56 00
        E 0 80 60 00
        E 0 80 62 00
        E 120 90 54 60
        E 0 90 56 60
        E 0 90 60 60
        E 0 90 62 60
        E 120 80 54 00
        E 0 80 56 00
        E 0 80 60 00
        E 0 80 62 00
        E 120 90 40 60
        E 0 90 48 60
        E 0 90 4c 60
        E 0 90 54 60
        E 0 90 58 60
        E 0 90 60 60
        E 0 90 64 60
        E 120 80 40 00
        E 0 80 48 00
        E 0 80 4c 00
        E 0 80 54 00
        E 0 80 58 00
        E 0 80 60 00
        E 0 80 64 00
        E 120 90 54 60
        E 0 90 56 60
        E 0 90 60 60
        E 0 90 62 60
        E 120 80 54 00
        E 0 80 56 00
        E 0 80 60 00
        E 0 80 62 00
        E 120 90 3e 60
        E 0 90 4a 60
        E 0 90 56 60
        E 0 90 62 60
        E 120 80 3e 00
        E 0 80 4a 00
        E 0 80 56 00
        E 0 80 62 00
        E 0 90 60 60
        E 120 80 60 00
        E 0 90 55 60
        E 0 90 56 60
        E 0 90 61 60
        E 0 90 62 60
        E 120 80 55 00
        E 0 80 56 00
        E 0 80 61 00
        E 0 80 62 00
        E 120 90 3e 60
        E 0 90 4a 60
        E 0 90 56 60
        E 0 90 62 60
        E 120 80 3e 00
        E 0 80 4a 00
        E 0 80 56 00
        E 0 80 62 00
        E 120 90 54 60
        E 0 90 56 60
        E 0 90 60 60
        E 0 90 62 60
        E 120 80 54 00
        E 0 80 56 00
        E 0 80 60 00
        E 0 80 62 00
        E 120 90 3e 60
        E 0 90 48 60
        E 0 90 4a 60
        E 0 90 54 60
        E 0 90 56 60
        E 0 90 60 60
        E 0 90 62 60
        E 120 80 3e 00
        E 0 80 48 00
        E 0 80 4a 00
        E 0 80 54 00
        E 0 80 56 00
        E 0 80 60 00
        E 0 80 62 00
        E 120 90 54 60
        E 0 90 56 60
        E 0 90 60 60
        E 0 90 62 60
        E 120 80 54 00
        E 0 80 56 00
        E 0 80 60 00
        E 0 80 62 00
        E 120 90 3e 60
        E 0 90 4a 60
        E 0 90 56 60
        E 0 90 62 60
        E 120 80 3e 00
        E 0 80 4a 00
        E 0 80 56 00
        E 0 80 62 00
        E 0 90 60 60
        E 120 80 60 00
        E 0 90 55 60
        E 0 90 56 60
        E 0 90 61 60
        E 0 90 62 60
        E 120 80 55 00
        E 0 80 56 00
        E 0 80 61 00
        E 0 80 62 00
        E 120 90 3d 60
        E 0 90 49 60
        E 0 90 55 60
        E 0 90 61 60
        E 120 80 3d 00
        E 0 80 49 00
        E 0 80 55 00
        E 0 80 61 00
        E 0 90 61 60
        E 120 80 61 00
        E 120 90 60 60
        E 120 80 60 00
        E 0 90 40 60
        E 0 90 48 60
        E 0 90 4c 60
        E 0 90 54 60
        E 0 90 58 60
        E 0 90 60 60
        E 0 90 64 60
        E 120 80 40 00
        E 0 80 48 00
        E 0 80 4c 00
        E 0 80 54 00
        E 0 80 58 00
        E 0 80 60 00
        E 0 80 64 00
        E 120 90 54 60
        E 0 90 56 60
        E 0 90 60 60
        E 0 90 62 60
        E 120 80 54 00
        E 0 80 56 00
        E 0 80 60 00
        E 0 80 62 00
        E 120 90 3e 60
        E 0 90 4a 60
        E 0 90 56 60
        E 0 90 62 60
        E 120 80 3e 00
        E 0 80 4a 00
        E 0 80 56 00
        E 0 80 62 00
        E 0 90 60 60
        E 120 80 60 00
        E 0 90 55 60
        E 0 90 56 60
        E 0 90 61 60
        E 0 90 62 60
        E 120 80 55 00
        E 0 80 56 00
        E 0 80 61 00
        E 0 80 62 00
        E 120 90 40 60
        E 0 90 48 60
        E 0 90 4c 60
        E 0 90 54 60
        E 0 90 58 60
        E 0 90 60 60
        E 0 90 64 60
        E 120 80 40 00
        E 0 80 48 00
        E 0 80 4c 00
        E 0 80 54 00
        E 0 80 58 00
        E 0 80 60 00
        E 0 80 64 00
        E 120 90 54 60
        E 0 90 57 60
        E 0 90 60 60
        E 0 90 63 60
        E 120 80 54 00
        E 0 80 57 00
        E 0 80 60 00
        E 0 80 63 00
        E 120 90 40 60
        E 0 90 48 60
        E 0 90 4c 60
        E 0 90 54 60
        E 0 90 58 60
        E 0 90 60 60
        E 0 90 64 60
        E 120 80 40 00
        E 0 80 48 00
        E 0 80 4c 00
        E 0 80 54 00
        E 0 80 58 00
        E 0 80 60 00
        E 0 80 64 00
        E 120 90 54 60
        E 0 90 56 60
        E 0 90 60 60
        E 0 90 62 60
        E 120 80 54 00
        E 0 80 56 00
        E 0 80 60 00
        E 0 80 62 00
        E 120 90 3e 60
        E 0 90 4a 60
        E 0 90 56 60
        E 0 90 62 60
        E 120 80 3e 00
        E 0 80 4a 00
        E 0 80 56 00
        E 0 80 62 00
        E 0 90 60 60
        E 120 80 60 00
        E 0 90 55 60
        E 0 90 56 60
        E 0 90 61 60
        E 0 90 62 60
        E 120 80 55 00
        E 0 80 56 00
        E 0 80 61 00
        E 0 80 62 00
        E 120 90 3e 60
        E 0 90 4a 60
        E 0 90 56 60
        E 0 90 62 60
        E 120 80 3e 00
        E 0 80 4a 00
        E 0 80 56 00
        E 0 80 62 00
        E 120 90 54 60
        E 0 90 56 60
        E 0 90 60 60
        E 0 90 62 60
        E 120 80 54 00
        E 0 80 56 00
        E 0 80 60 00
        E 0 80 62 00
        E 120 90 40 60
        E 0 90 48 60
        E 0 90 4c 60
        E 0 90 54 60
        E 0 90 58 60
        E 0 90 60 60
        E 0 90 64 60
        E 120 80 40 00
        E 0 80 48 00
        E 0 80 4c 00
        E 0 80 54 00
        E 0 80 58 00
        E 0 80 60 00
        E 0 80 64 00
        E 120 90 54 60
        E 0 90 56 60
        E 0 90 60 60
        E 0 90 62 60
        E 120 80 54 00
        E 0 80 56 00
        E 0 80 60 00
        E 0 80 62 00
        E 120 90 3e 60
        E 0 90 4a 60
        E 0 90 56 60
        E 0 90 62 60
        E 120 80 3e 00
        E 0 80 4a 00
        E 0 80 56 00
        E 0 80 62 00
        E 0 90 60 60
        E 120 80 60 00
        E 0 90 55 60
        E 0 90 56 60
        E 0 90 61 60
        E 0 90 62 60
        E 120 80 55 00
        E 0 80 56 00
        E 0 80 61 00
        E 0 80 62 00
        E 0 90 60 60
        E 120 80 60 00
        E 0 90 3d 60
        E 0 90 49 60
        E 0 90 55 60
        E 0 90 61 60
        E 80 80 3d 00
        E 0 80 49 00
        E 0 80 55 00
        E 0 80 61 00
        E 0 90 61 60
        E 80 80 61 00
        E 0 90 61 60
        E 80 80 61 00
        E 0 90 55 60
        E 0 90 61 60
        E 80 80 55 00
        E 0 80 61 00
        E 0 90 61 60
        E 80 80 61 00
        E 0 90 61 60
        E 80 80 61 00
        E 0 90 40 60
        E 0 90 48 60
        E 0 90 4c 60
        E 0 90 54 60
        E 0 90 58 60
        E 0 90 60 60
        E 0 90 64 60
        E 120 80 40 00
        E 0 80 48 00
        E 0 80 4c 00
        E 0 80 54 00
        E 0 80 58 00
        E 0 80 60 00
        E 0 80 64 00
        E 120 90 54 60
        E 0 90 56 60
        E 0 90 60 60
        E 0 90 62 60
        E 120 80 54 00
        E 0 80 56 00
        E 0 80 60 00
        E 0 80 62 00
        E 120 90 3e 60
        E 0 90 4a 60
        E 0 90 56 60
        E 0 90 62 60
        E 120 80 3e 00
        E 0 80 4a 00
        E 0 80 56 00
        E 0 80 62 00
        E 0 90 60 60
        E 120 80 60 00
        E 0 90 55 60
        E 0 90 56 60
        E 0 90 61 60
        E 0 90 62 60
        E 120 80 55 00
        E 0 80 56 00
        E 0 80 61 00
        E 0 80 62 00
        E 120 90 3e 60
        E 0 90 48 60
        E 0 90 4a 60
        E 0 90 54 60
        E 0 90 56 60
        E 0 90 60 60
        E 0 90 62 60
        E 120 80 3e 00
        E 0 80 48 00
        E 0 80 4a 00
        E 0 80 54 00
        E 0 80 56 00
        E 0 80 60 00
        E 0 80 62 00
        E 120 90 54 60
        E 0 90 56 60
        E 0 90 60 60
        E 0 90 62 60
        E 120 80 54 00
        E 0 80 56 00
        E 0 80 60 00
        E 0 80 62 00
        E 120 90 40 60
        E 0 90 48 60
        E 0 90 4c 60
        E 0 90 54 60
        E 0 90 58 60
        E 0 90 60 60
        E 0 90 64 60
        E 120 80 40 00
        E 0 80 48 00
        E 0 80 4c 00
        E 0 80 54 00
        E 0 80 58 00
        E 0 80 60 00
        E 0 80 64 00
        E 120 90 54 60
        E 0 90 56 60
        E 0 90 60 60
        E 0 90 62 60
        E 120 80 54 00
        E 0 80 56 00
        E 0 80 60 00
        E 0 80 62 00
        E 120 90 3e 60
        E 0 90 4a 60
        E 0 90 56 60
        E 0 90 62 60
        E 120 80 3e 00
        E 0 80 4a 00
        E 0 80 56 00
        E 0 80 62 00
        E 0 90 60 60
        E 120 80 60 00
        E 0 90 55 60
        E 0 90 56 60
        E 0 90 61 60
        E 0 90 62 60
        E 120 80 55 00
        E 0 80 56 00
        E 0 80 61 00
        E 0 80 62 00
        E 120 90 3e 60
        E 0 90 4a 60
        E 0 90 56 60
        E 0 90 62 60
        E 120 80 3e 00
        E 0 80 4a 00
        E 0 80 56 00
        E 0 80 62 00
        E 120 90 54 60
        E 0 90 56 60
        E 0 90 60 60
        E 0 90 62 60
        E 120 80 54 00
        E 0 80 56 00
        E 0 80 60 00
        E 0 80 62 00
        E 120 90 3e 60
        E 0 90 48 60
        E 0 90 4a 60
        E 0 90 54 60
        E 0 90 56 60
        E 0 90 60 60
        E 0 90 62 60
        E 120 80 3e 00
        E 0 80 48 00
        E 0 80 4a 00
        E 0 80 54 00
        E 0 80 56 00
        E 0 80 60 00
        E 0 80 62 00
        E 120 90 54 60
        E 0 90 55 60
        E 0 90 60 60
        E 0 90 61 60
        E 120 80 54 00
        E 0 80 55 00
        E 0 80 60 00
        E 0 80 61 00
        E 0 90 61 60
        E 120 80 61 00
        E 0 90 3e 60
        E 0 90 4a 60
        E 0 90 54 60
        E 0 90 56 60
        E 0 90 60 60
        E 0 90 62 60
        E 0 90 6e 60
        E 120 80 3e 00
        E 0 80 4a 00
        E 0 80 54 00
        E 0 80 56 00
        E 0 80 60 00
        E 0 80 62 00
        E 0 80 6e 00
        E 0 90 61 60
        E 120 80 61 00
        E 0 90 54 60
        E 0 90 55 60
        E 0 90 60 60
        E 0 90 61 60
        E 120 80 54 00
        E 0 80 55 00
        E 0 80 60 00
        E 0 80 61 00
        E 0 90 61 60
        E 120 80 61 00
        E 0 90 3e 60
        E 0 90 4a 60
        E 0 90 54 60
        E 0 90 56 60
        E 0 90 60 60
        E 0 90 62 60
        E 0 90 6e 60
        E 120 80 3e 00
        E 0 80 4a 00
        E 0 80 54 00
        E 0 80 56 00
        E 0 80 60 00
        E 0 80 62 00
        E 0 80 6e 00
        E 0 90 62 60
        E 0 90 6e 60
        E 120 80 62 00
        E 0 80 6e 00
        E 0 90 54 60
        E 0 90 57 60
        E 0 90 60 60
        E 0 90 63 60
        E 0 90 6f 60
        E 120 80 54 00
        E 0 80 57 00
        E 0 80 60 00
        E 0 80 63 00
        E 0 80 6f 00
        E 0 90 63 60
        E 0 90 6f 60
        E 120 80 63 00
        E 0 80 6f 00
        E 0 90 40 60
        E 0 90 48 60
        E 0 90 4c 60
        E 0 90 54 60
        E 0 90 58 60
        E 0 90 60 60
        E 0 90 64 60
        E 0 90 74 60
        E 120 80 40 00
        E 0 80 48 00
        E 0 80 4c 00
        E 0 80 54 00
        E 0 80 58 00
        E 0 80 60 00
        E 0 80 64 00
        E 120 90 54 60
        E 0 90 56 60
        E 0 90 60 60
        E 0 90 62 60
        E 120 80 54 00
        E 0 80 56 00
        E 0 80 60 00
        E 0 80 62 00
        E 120 90 3e 60
        E 0 90 4a 60
        E 0 90 56 60
        E 0 90 62 60
        E 120 80 3e 00
        E 0 80 4a 00
        E 0 80 56 00
        E 0 80 62 00
        E 0 90 60 60
        E 120 80 60 00
        E 0 90 55 60
        E 0 90 56 60
        E 0 90 61 60
        E 0 90 62 60
        E 120 80 55 00
        E 0 80 56 00
        E 0 80 61 00
        E 0 80 62 00
        E 120 90 40 60
        E 0 90 48 60
        E 0 90 4c 60
        E 0 90 54 60
        E 0 90 58 60
        E 0 90 60 60
        E 0 90 64 60
        E 120 80 40 00
        E 0 80 48 00
        E 0 80 4c 00
        E 0 80 54 00
        E 0 80 58 00
        E 0 80 60 00
        E 0 80 64 00
        E 120 90 54 60
        E 0 90 57 60
        E 0 90 60 60
        E 0 90 63 60
        E 120 80 54 00
        E 0 80 57 00
        E 0 80 60 00
        E 0 80 63 00
        E 120 90 40 60
        E 0 90 48 60
        E 0 90 4c 60
        E 0 90 54 60
        E 0 90 58 60
        E 0 90 60 60
        E 0 90 64 60
        E 120 80 40 00
        E 0 80 48 00
        E 0 80 4c 00
        E 0 80 54 00
        E 0 80 58 00
        E 0 80 60 00
        E 0 80 64 00
        E 120 90 54 60
        E 0 90 56 60
        E 0 90 60 60
        E 0 90 62 60
        E 120 80 54 00
        E 0 80 56 00
        E 0 80 60 00
        E 0 80 62 00
        E 120 90 3e 60
        E 0 90 4a 60
        E 0 90 56 60
        E 0 90 62 60
        E 120 80 3e 00
        E 0 80 4a 00
        E 0 80 56 00
        E 0 80 62 00
        E 0 90 60 60
        E 120 80 60 00
        E 0 90 55 60
        E 0 90 56 60
        E 0 90 61 60
        E 0 90 62 60
        E 120 80 55 00
        E 0 80 56 00
        E 0 80 61 00
        E 0 80 62 00
        E 120 90 3e 60
        E 0 90 4a 60
        E 0 90 56 60
        E 0 90 62 60
        E 120 80 3e 00
        E 0 80 4a 00
        E 0 80 56 00
        E 0 80 62 00
        E 120 90 54 60
        E 0 90 56 60
        E 0 90 60 60
        E 0 90 62 60
        E 120 80 54 00
        E 0 80 56 00
        E 0 80 60 00
        E 0 80 62 00
        E 120 90 40 60
        E 0 90 48 60
        E 0 90 4c 60
        E 0 90 54 60
        E 0 90 58 60
        E 0 90 60 60
        E 0 90 64 60
        E 120 80 40 00
        E 0 80 48 00
        E 0 80 4c 00
        E 0 80 54 00
        E 0 80 58 00
        E 0 80 60 00
        E 0 80 64 00
        E 120 90 54 60
        E 0 90 56 60
        E 0 90 60 60
        E 0 90 62 60
        E 120 80 54 00
        E 0 80 56 00
        E 0 80 60 00
        E 0 80 62 00
        E 120 90 3e 60
        E 0 90 4a 60
        E 0 90 56 60
        E 0 90 62 60
        E 120 80 3e 00
        E 0 80 4a 00
        E 0 80 56 00
        E 0 80 62 00
        E 0 90 60 60
        E 120 80 60 00
        E 0 90 55 60
        E 0 90 56 60
        E 0 90 61 60
        E 0 90 62 60
        E 120 80 55 00
        E 0 80 56 00
        E 0 80 61 00
        E 0 80 62 00
        E 120 90 3d 60
        E 0 90 49 60
        E 0 90 55 60
        E 0 90 61 60
        E 120 80 3d 00
        E 0 80 49 00
        E 0 80 55 00
        E 0 80 61 00
        E 0 90 61 60
        E 120 80 61 00
        E 240 80 74 00
        E 0 90 3d 60
        E 0 90 49 60
        E 0 90 54 60
        E 0 90 55 60
        E 0 90 60 60
        E 0 90 61 60
        E 80 80 3d 00
        E 0 80 49 00
        E 0 80 55 00
        E 0 80 61 00
        E 0 90 61 60
        E 40 80 54 00
        E 0 80 60 00
        E 40 80 61 00
        E 0 90 61 60
        E 80 80 61 00
        E 0 90 55 60
        E 0 90 61 60
        E 120 80 55 00
        E 0 80 61 00
        E 0 90 60 60
        E 0 90 61 60
        E 80 80 61 00
        E 0 90 61 60
        E 40 80 60 00
        E 40 80 61 00
        E 0 90 61 60
        E 80 80 61 00
        E 0 90 61 60
        E 120 80 61 00
        E 0 90 54 60
        E 0 90 55 60
        E 0 90 60 60
        E 0 90 61 60
        E 120 80 54 00
        E 0 80 55 00
        E 0 80 60 00
        E 0 80 61 00
        E 120 90 3d 60
        E 0 90 49 60
        E 0 90 54 60
        E 0 90 55 60
        E 0 90 60 60
        E 0 90 61 60
        E 120 80 3d 00
        E 0 80 49 00
        E 0 80 54 00
        E 0 80 55 00
        E 0 80 60 00
        E 0 80 61 00
        E 120 90 54 60
        E 0 90 55 60
        E 0 90 60 60
        E 0 90 61 60
        E 120 80 54 00
        E 0 80 55 00
        E 0 80 60 00
        E 0 80 61 00
        E 120 90 3d 60
        E 0 90 49 60
        E 0 90 54 60
        E 0 90 55 60
        E 0 90 60 60
        E 0 90 61 60
        E 80 80 3d 00
        E 0 80 49 00
        E 0 80 55 00
        E 0 80 61 00
        E 0 90 61 60
        E 40 80 54 00
        E 0 80 60 00
        E 40 80 61 00
        E 0 90 61 60
        E 80 80 61 00
        E 0 90 61 60
        E 0 90 55 60
        E 80 80 61 00
        E 39 80 55 00
        E 1 90 61 60
        E 0 90 60 60
        E 80 80 61 00
        E 0 90 61 60
        E 40 80 60 00
        E 40 80 61 00
        E 0 90 61 60
        E 80 80 61 00
        E 0 90 61 60
        E 80 80 61 00
        E 40 90 54 60
        E 0 90 55 60
        E 0 90 60 60
        E 0 90 61 60
        E 120 80 54 00
        E 0 80 55 00
        E 0 80 60 00
        E 0 80 61 00
        E 120 90 3d 60
        E 0 90 49 60
        E 0 90 54 60
        E 0 90 55 60
        E 0 90 60 60
        E 0 90 61 60
        E 120 80 3d 00
        E 0 80 49 00
        E 0 80 54 00
        E 0 80 55 00
        E 0 80 60 00
        E 0 80 61 00
        E 120 90 54 60
        E 0 90 55 60
        E 0 90 60 60
        E 0 90 61 60
        E 120 80 54 00
        E 0 80 55 00
        E 0 80 60 00
        E 0 80 61 00
        E 120 90 3d 60
        E 0 90 49 60
        E 0 90 54 60
        E 0 90 55 60
        E 0 90 60 60
        E 0 90 61 60
        E 80 80 3d 00
        E 0 80 49 00
        E 0 80 55 00
        E 0 80 61 00
        E 0 90 61 60
        E 40 80 54 00
        E 0 80 60 00
        E 40 80 61 00
        E 0 90 61 60
        E 80 80 61 00
        E 0 90 61 60
        E 0 90 55 60
        E 80 80 61 00
        E 39 80 55 00
        E 1 90 61 60
        E 0 90 60 60
        E 80 80 61 00
        E 0 90 61 60
        E 40 80 60 00
        E 40 80 61 00
        E 0 90 61 60
        E 80 80 61 00
        E 0 90 61 60
        E 80 80 61 00
        E 40 90 54 60
        E 0 90 55 60
        E 0 90 60 60
        E 0 90 61 60
        E 120 80 54 00
        E 0 80 55 00
        E 0 80 60 00
        E 0 80 61 00
        E 120 90 3d 60
        E 0 90 49 60
        E 0 90 54 60
        E 0 90 55 60
        E 0 90 60 60
        E 0 90 61 60
        E 120 80 3d 00
        E 0 80 49 00
        E 0 80 54 00
        E 0 80 55 00
        E 0 80 60 00
        E 0 80 61 00
        E 120 90 54 60
        E 0 90 55 60
        E 0 90 60 60
        E 0 90 61 60
        E 120 80 54 00
        E 0 80 55 00
        E 0 80 60 00
        E 0 80 61 00
        E 120 90 3d 60
        E 0 90 49 60
        E 0 90 54 60
        E 0 90 55 60
        E 0 90 60 60
        E 0 90 61 60
        E 80 80 3d 00
        E 0 80 49 00
        E 0 80 55 00
        E 0 80 61 00
        E 0 90 61 60
        E 40 80 54 00
        E 0 80 60 00
        E 40 80 61 00
        E 0 90 61 60
        E 80 80 61 00
        E 0 90 61 60
        E 0 90 55 60
        E 80 80 61 00
        E 39 80 55 00
        E 1 90 61 60
        E 0 90 60 60
        E 80 80 61 00
        E 0 90 61 60
        E 40 80 60 00
        E 40 80 61 00
        E 0 90 61 60
        E 80 80 61 00
        E 0 90 61 60
        E 80 80 61 00
        E 40 90 54 60
        E 0 90 55 60
        E 0 90 60 60
        E 0 90 61 60
        E 120 80 54 00
        E 0 80 55 00
        E 0 80 60 00
        E 0 80 61 00
        E 0 90 61 60
        E 120 80 61 00
        E 0 90 3d 60
        E 0 90 49 60
        E 0 90 55 60
        E 0 90 61 60
        E 120 80 3d 00
        E 0 80 49 00
        E 0 80 55 00
        E 0 80 61 00
        E 0 90 61 60
        E 120 80 61 00
        E 0 90 55 60
        E 0 90 61 60
        E 120 80 55 00
        E 0 80 61 00
        E 0 90 61 60
        E 120 80 61 00
        E 0 90 40 60
        E 0 90 48 60
        E 0 90 4c 60
        E 0 90 54 60
        E 0 90 58 60
        E 0 90 60 60
        E 0 90 64 60
        E 120 80 40 00
        E 0 80 48 00
        E 0 80 4c 00
        E 0 80 54 00
        E 0 80 58 00
        E 0 80 60 00
        E 0 80 64 00
        E 120 90 54 60
        E 0 90 56 60
        E 0 90 60 60
        E 0 90 62 60
        E 120 80 54 00
        E 0 80 56 00
        E 0 80 60 00
        E 0 80 62 00
        E 120 90 3e 60
        E 0 90 4a 60
        E 0 90 56 60
        E 0 90 62 60
        E 120 80 3e 00
        E 0 80 4a 00
        E 0 80 56 00
        E 0 80 62 00
        E 0 90 60 60
        E 120 80 60 00
        E 0 90 55 60
        E 0 90 56 60
        E 0 90 61 60
        E 0 90 62 60
        E 120 80 55 00
        E 0 80 56 00
        E 0 80 61 00
        E 0 80 62 00
        E 120 90 3e 60
        E 0 90 48 60
        E 0 90 4a 60
        E 0 90 54 60
        E 0 90 56 60
        E 0 90 60 60
        E 0 90 62 60
        E 120 80 3e 00
        E 0 80 48 00
        E 0 80 4a 00
        E 0 80 54 00
        E 0 80 56 00
        E 0 80 60 00
        E 0 80 62 00
        E 120 90 54 60
        E 0 90 56 60
        E 0 90 60 60
        E 0 90 62 60
        E 120 80 54 00
        E 0 80 56 00
        E 0 80 60 00
        E 0 80 62 00
        E 120 90 40 60
        E 0 90 48 60
        E 0 90 4c 60
        E 0 90 54 60
        E 0 90 58 60
        E 0 90 60 60
        E 0 90 64 60
        E 120 80 40 00
        E 0 80 48 00
        E 0 80 4c 00
        E 0 80 54 00
        E 0 80 58 00
        E 0 80 60 00
        E 0 80 64 00
        E 120 90 54 60
        E 0 90 56 60
        E 0 90 60 60
        E 0 90 62 60
        E 120 80 54 00
        E 0 80 56 00
        E 0 80 60 00
        E 0 80 62 00
        E 120 90 3e 60
        E 0 90 4a 60
        E 0 90 56 60
        E 0 90 62 60
        E 80 80 3e 00
        E 0 80 4a 00
        E 0 80 56 00
        E 0 80 62 00
        E 0 90 60 60
        E 80 80 60 00
        E 0 90 60 60
        E 80 80 60 00
        E 0 90 55 60
        E 0 90 56 60
        E 0 90 61 60
        E 0 90 62 60
        E 120 80 55 00
        E 0 80 56 00
        E 0 80 61 00
        E 0 80 62 00
        E 120 90 3e 60
        E 0 90 4a 60
        E 0 90 56 60
        E 0 90 62 60
        E 120 80 3e 00
        E 0 80 4a 00
        E 0 80 56 00
        E 0 80 62 00
        E 120 90 54 60
        E 0 90 56 60
        E 0 90 60 60
        E 0 90 62 60
        E 120 80 54 00
        E 0 80 56 00
        E 0 80 60 00
        E 0 80 62 00
        E 120 90 40 60
        E 0 90 48 60
        E 0 90 4c 60
        E 0 90 54 60
        E 0 90 58 60
        E 0 90 60 60
        E 0 90 64 60
        E 120 80 40 00
        E 0 80 48 00
        E 0 80 4c 00
        E 0 80 54 00
        E 0 80 58 00
        E 0 80 60 00
        E 0 80 64 00
        E 120 90 54 60
        E 0 90 56 60
        E 0 90 60 60
        E 0 90 62 60
        E 120 80 54 00
        E 0 80 56 00
        E 0 80 60 00
        E 0 80 62 00
        E 120 90 3e 60
        E 0 90 4a 60
        E 0 90 56 60
        E 0 90 62 60
        E 80 80 3e 00
        E 0 80 4a 00
        E 0 80 56 00
        E 0 80 62 00
        E 0 90 60 60
        E 80 80 60 00
        E 0 90 60 60
        E 80 80 60 00
        E 0 90 55 60
        E 0 90 56 60
        E 0 90 61 60
        E 0 90 62 60
        E 120 80 55 00
        E 0 80 56 00
        E 0 80 61 00
        E 0 80 62 00
        E 120 90 3d 60
        E 0 90 49 60
        E 0 90 55 60
        E 0 90 61 60
        E 120 80 3d 00
        E 0 80 49 00
        E 0 80 55 00
        E 0 80 61 00
        E 0 90 60 60
        E 0 90 61 60
        E 120 80 60 00
        E 0 80 61 00
        E 120 90 60 60
        E 120 80 60 00
        E 0 90 40 60
        E 0 90 48 60
        E 0 90 4c 60
        E 0 90 54 60
        E 0 90 58 60
        E 0 90 60 60
        E 0 90 64 60
        E 120 80 40 00
        E 0 80 48 00
        E 0 80 4c 00
        E 0 80 54 00
        E 0 80 58 00
        E 0 80 60 00
        E 0 80 64 00
        E 120 90 54 60
        E 0 90 56 60
        E 0 90 60 60
        E 0 90 62 60
        E 120 80 54 00
        E 0 80 56 00
        E 0 80 60 00
        E 0 80 62 00
        E 0 90 60 60
        E 120 80 60 00
        E 0 90 3e 60
        E 0 90 4a 60
        E 0 90 56 60
        E 0 90 62 60
        E 80 80 3e 00
        E 0 80 4a 00
        E 0 80 56 00
        E 0 80 62 00
        E 0 90 60 60
        E 80 80 60 00
        E 0 90 60 60
        E 80 80 60 00
        E 0 90 55 60
        E 0 90 56 60
        E 0 90 61 60
        E 0 90 62 60
        E 120 80 55 00
        E 0 80 56 00
        E 0 80 61 00
        E 0 80 62 00
        E 120 90 3d 60
        E 0 90 49 60
        E 0 90 55 60
        E 0 90 61 60
        E 80 80 3d 00
        E 0 80 49 00
        E 0 80 55 00
        E 0 80 61 00
        E 0 90 61 60
        E 80 80 61 00
        E 0 90 61 60
        E 80 80 61 00
        E 0 90 55 60
        E 0 90 61 60
        E 120 80 55 00
        E 0 80 61 00
        E 0 90 61 60
        E 120 80 61 00
        E 0 90 40 60
        E 0 90 48 60
        E 0 90 4c 60
        E 0 90 54 60
        E 0 90 58 60
        E 0 90 60 60
        E 0 90 64 60
        E 120 80 40 00
        E 0 80 48 00
        E 0 80 4c 00
        E 0 80 54 00
        E 0 80 58 00
        E 0 80 60 00
        E 0 80 64 00
        E 120 90 54 60
        E 0 90 56 60
        E 0 90 60 60
        E 0 90 62 60
        E 120 80 54 00
        E 0 80 56 00
        E 0 80 60 00
        E 0 80 62 00
        E 120 90 3e 60
        E 0 90 4a 60
        E 0 90 56 60
        E 0 90 62 60
        E 80 80 3e 00
        E 0 80 4a 00
        E 0 80 56 00
        E 0 80 62 00
        E 0 90 60 60
        E 80 80 60 00
        E 0 90 60 60
        E 80 80 60 00
        E 0 90 55 60
        E 0 90 56 60
        E 0 90 61 60
        E 0 90 62 60
        E 120 80 55 00
        E 0 80 56 00
        E 0 80 61 00
        E 0 80 62 00
        E 120 90 3e 60
        E 0 90 4a 60
        E 0 90 56 60
        E 0 90 62 60
        E 120 80 3e 00
        E 0 80 4a 00
        E 0 80 56 00
        E 0 80 62 00
        E 0 90 61 60
        E 120 80 61 00
        E 0 90 54 60
        E 0 90 56 60
        E 0 90 60 60
        E 0 90 62 60
        E 120 80 54 00
        E 0 80 56 00
        E 0 80 60 00
        E 0 80 62 00
        E 120 90 40 60
        E 0 90 48 60
        E 0 90 4c 60
        E 0 90 54 60
        E 0 90 58 60
        E 0 90 60 60
        E 0 90 64 60
        E 120 80 40 00
        E 0 80 48 00
        E 0 80 4c 00
        E 0 80 54 00
        E 0 80 58 00
        E 0 80 60 00
        E 0 80 64 00
        E 120 90 54 60
        E 0 90 56 60
        E 0 90 60 60
        E 0 90 62 60
        E 120 80 54 00
        E 0 80 56 00
        E 0 80 60 00
        E 0 80 62 00
        E 120 90 3e 60
        E 0 90 4a 60
        E 0 90 56 60
        E 0 90 62 60
        E 80 80 3e 00
        E 0 80 4a 00
        E 0 80 56 00
        E 0 80 62 00
        E 0 90 60 60
        E 80 80 60 00
        E 0 90 60 60
        E 80 80 60 00
        E 0 90 55 60
        E 0 90 56 60
        E 0 90 61 60
        E 0 90 62 60
        E 120 80 55 00
        E 0 80 56 00
        E 0 80 61 00
        E 0 80 62 00
        E 0 90 60 60
        E 120 80 60 00
        E 0 90 3d 60
        E 0 90 49 60
        E 0 90 55 60
        E 0 90 61 60
        E 80 80 3d 00
        E 0 80 49 00
        E 0 80 55 00
        E 0 80 61 00
        E 0 90 61 60
        E 80 80 61 00
        E 0 90 61 60
        E 80 80 61 00
        E 0 90 55 60
        E 0 90 61 60
        E 80 80 55 00
        E 0 80 61 00
        E 0 90 61 60
        E 80 80 61 00
        E 0 90 61 60
        E 80 80 61 00
        E 0 90 40 60
        E 0 90 48 60
        E 0 90 4c 60
        E 0 90 54 60
        E 0 90 58 60
        E 0 90 60 60
        E 0 90 64 60
        E 120 80 40 00
        E 0 80 48 00
        E 0 80 4c 00
        E 0 80 54 00
        E 0 80 58 00
        E 0 80 60 00
        E 0 80 64 00
        E 120 90 54 60
        E 0 90 56 60
        E 0 90 60 60
        E 0 90 62 60
        E 120 80 54 00
        E 0 80 56 00
        E 0 80 60 00
        E 0 80 62 00
        E 120 90 3e 60
        E 0 90 4a 60
        E 0 90 56 60
        E 0 90 62 60
        E 80 80 3e 00
        E 0 80 4a 00
        E 0 80 56 00
        E 0 80 62 00
        E 0 90 60 60
        E 80 80 60 00
        E 0 90 60 60
        E 80 80 60 00
        E 0 90 55 60
        E 0 90 56 60
        E 0 90 61 60
        E 0 90 62 60
        E 120 80 55 00
        E 0 80 56 00
        E 0 80 61 00
        E 0 80 62 00
        E 120 90 3e 60
        E 0 90 48 60
        E 0 90 4a 60
        E 0 90 54 60
        E 0 90 56 60
        E 0 90 60 60
        E 0 90 62 60
        E 120 80 3e 00
        E 0 80 48 00
        E 0 80 4a 00
        E 0 80 54 00
        E 0 80 56 00
        E 0 80 60 00
        E 0 80 62 00
        E 120 90 54 60
        E 0 90 56 60
        E 0 90 60 60
        E 0 90 62 60
        E 120 80 54 00
        E 0 80 56 00
        E 0 80 60 00
        E 0 80 62 00
        E 120 90 40 60
        E 0 90 48 60
        E 0 90 4c 60
        E 0 90 54 60
        E 0 90 58 60
        E 0 90 60 60
        E 0 90 64 60
        E 120 80 40 00
        E 0 80 48 00
        E 0 80 4c 00
        E 0 80 54 00
        E 0 80 58 00
        E 0 80 60 00
        E 0 80 64 00
        E 120 90 54 60
        E 0 90 56 60
        E 0 90 60 60
        E 0 90 62 60
        E 120 80 54 00
        E 0 80 56 00
        E 0 80 60 00
        E 0 80 62 00
        E 120 90 3e 60
        E 0 90 4a 60
        E 0 90 56 60
        E 0 90 62 60
        E 80 80 3e 00
        E 0 80 4a 00
        E 0 80 56 00
        E 0 80 62 00
        E 0 90 60 60
        E 80 80 60 00
        E 0 90 60 60
        E 80 80 60 00
        E 0 90 55 60
        E 0 90 56 60
        E 0 90 61 60
        E 0 90 62 60
        E 120 80 55 00
        E 0 80 56 00
        E 0 80 61 00
        E 0 80 62 00
        E 120 90 3e 60
        E 0 90 48 60
        E 0 90 4a 60
        E 0 90 54 60
        E 0 90 56 60
        E 0 90 60 60
        E 0 90 62 60
        E 80 80 3e 00
        E 0 80 48 00
        E 0 80 4a 00
        E 0 80 54 00
        E 0 80 56 00
        E 0 80 60 00
        E 0 80 62 00
        E 160 90 54 60
        E 0 90 56 60
        E 0 90 60 60
        E 0 90 62 60
        E 120 80 54 00
        E 0 80 56 00
        E 0 80 60 00
        E 0 80 62 00
        E 120 90 3c 60
        E 0 90 48 60
        E 0 90 54 60
        E 0 90 60 60
        E 0 90 3d 60 1
        E 0 90 49 60 1
        E 0 90 55 60 1
        E 0 90 61 60 1
        E 80 80 3c 00
        E 0 80 48 00
        E 0 80 54 00
        E 0 80 60 00
        E 0 80 3d 00 1
        E 0 80 49 00 1
        E 0 80 55 00 1
        E 0 80 61 00 1
        E 0 90 61 60 1
        E 80 80 61 00 1
        E 0 90 61 60 1
        E 80 80 61 00 1
        E 0 90 55 60 1
        E 0 90 61 60 1
        E 120 80 55 00 1
        E 0 80 61 00 1
        E 0 90 60 60
        E 0 90 61 60 1
        E 80 80 60 00
        E 0 80 61 00 1
        E 0 90 61 60 1
        E 80 80 61 00 1
        E 0 90 61 60 1
        E 80 80 61 00
        E 0 90 61 60
        E 120 80 61 00
        E 0 90 54 60
        E 0 90 55 60
        E 0 90 60 60
        E 0 90 61 60
        E 120 80 54 00
        E 0 80 55 00
        E 0 80 60 00
        E 0 80 61 00
        E 120 90 3d 60
        E 0 90 49 60
        E 0 90 54 60
        E 0 90 55 60
        E 0 90 60 60
        E 0 90 61 60
        E 120 80 3d 00
        E 0 80 49 00
        E 0 80 54 00
        E 0 80 55 00
        E 0 80 60 00
        E 0 80 61 00
        E 120 90 54 60
        E 0 90 55 60
        E 0 90 60 60
        E 0 90 61 60
        E 120 80 54 00
        E 0 80 55 00
        E 0 80 60 00
        E 0 80 61 00
        E 120 90 3d 60
        E 0 90 49 60
        E 0 90 54 60
        E 0 90 55 60
        E 0 90 60 60
        E 0 90 61 60
        E 80 80 3d 00
        E 0 80 49 00
        E 0 80 55 00
        E 0 80 61 00
        E 0 90 61 60
        E 40 80 54 00
        E 0 80 60 00
        E 40 80 61 00
        E 0 90 61 60
        E 80 80 61 00
        E 0 90 55 60
        E 0 90 61 60
        E 120 80 55 00
        E 0 80 61 00
        E 0 90 60 60
        E 0 90 61 60
        E 80 80 61 00
        E 0 90 61 60
        E 40 80 60 00
        E 40 80 61 00
        E 0 90 61 60
        E 80 80 61 00
        E 0 90 61 60
        E 120 80 61 00
        E 0 90 54 60
        E 0 90 55 60
        E 0 90 60 60
        E 0 90 61 60
        E 120 80 54 00
        E 0 80 55 00
        E 0 80 60 00
        E 0 80 61 00
        E 120 90 3d 60
        E 0 90 49 60
        E 0 90 54 60
        E 0 90 55 60
        E 0 90 60 60
        E 0 90 61 60
        E 120 80 3d 00
        E 0 80 49 00
        E 0 80 54 00
        E 0 80 55 00
        E 0 80 60 00
        E 0 80 61 00
        E 120 90 54 60
        E 0 90 55 60
        E 0 90 60 60
        E 0 90 61 60
        E 120 80 54 00
        E 0 80 55 00
        E 0 80 60 00
        E 0 80 61 00
        e 120 90 3c 60
        e 0 90 48 60
        e 0 90 54 60
        e 0 90 60 60
        E 0 90 3d 60 1
        E 0 90 49 60 1
        E 0 90 55 60 1
        E 0 90 61 60 1
        e 80 80 3c 00
        e 0 80 48 00
        e 0 80 54 00
        e 0 80 60 00
        E 0 80 3d 00 1
        E 0 80 49 00 1
        E 0 80 55 00 1
        E 0 80 61 00 1
        E 0 90 61 60 1
        E 80 80 61 00 1
        E 0 90 61 60 1
        E 80 80 61 00 1
        E 0 90 55 60 1
        E 0 90 61 60 1
        E 120 80 55 00
        E 0 80 61 00
        e 0 90 60 60
        E 0 90 61 60
        e 80 80 60 00
        E 0 80 61 00
        E 0 90 61 60
        E 80 80 61 00
        E 0 90 61 60
        E 80 80 61 00
        E 0 90 61 60
        E 120 80 61 00
        E 0 90 54 60
        E 0 90 55 60
        E 0 90 60 60
        E 0 90 61 60
        E 120 80 54 00
        E 0 80 55 00
        E 0 80 60 00
        E 0 80 61 00
        E 120 90 3d 60
        E 0 90 49 60
        E 0 90 54 60
        E 0 90 55 60
        E 0 90 60 60
        E 0 90 61 60
        E 120 80 3d 00
        E 0 80 49 00
        E 0 80 54 00
        E 0 80 55 00
        E 0 80 60 00
        E 0 80 61 00
        E 120 90 54 60
        E 0 90 55 60
        E 0 90 60 60
        E 0 90 61 60
        E 120 80 54 00
        E 0 80 55 00
        E 0 80 60 00
        E 0 80 61 00
        E 0 90 61 60
        E 120 80 61 00
        E 0 90 3d 60
        E 0 90 49 60
        E 0 90 54 60
        E 0 90 55 60
        E 0 90 60 60
        E 0 90 61 60
        E 120 80 3d 00
        E 0 80 49 00
        E 0 80 54 00
        E 0 80 55 00
        E 0 80 60 00
        E 0 80 61 00
        E 0 90 61 60
        E 120 80 61 00
        E 0 90 54 60
        E 0 90 56 60
        E 0 90 60 60
        E 0 90 62 60
        E 0 90 6e 60
        E 120 80 54 00
        E 0 80 56 00
        E 0 80 60 00
        E 0 80 62 00
        E 0 80 6e 00
        E 120 90 3d 60
        E 0 90 49 60
        E 0 90 54 60
        E 0 90 55 60
        E 0 90 60 60
        E 0 90 61 60
        E 120 80 3d 00
        E 0 80 49 00
        E 0 80 54 00
        E 0 80 55 00
        E 0 80 60 00
        E 0 80 61 00
        E 0 90 61 60
        E 120 80 61 00
        E 0 90 54 60
        E 0 90 55 60
        E 0 90 60 60
        E 0 90 61 60
        E 120 80 54 00
        E 0 80 55 00
        E 0 80 60 00
        E 0 80 61 00
        E 0 90 61 60
        E 120 80 61 00
        E 0 90 3e 60
        E 0 90 4a 60
        E 0 90 54 60
        E 0 90 56 60
        E 0 90 60 60
        E 0 90 62 60
        E 0 90 6e 60
        E 120 80 3e 00
        E 0 80 4a 00
        E 0 80 54 00
        E 0 80 56 00
        E 0 80 60 00
        E 0 80 62 00
        E 0 80 6e 00
        E 0 90 62 60
        E 0 90 6e 60
        E 120 80 62 00
        E 0 80 6e 00
        E 0 90 54 60
        E 0 90 57 60
        E 0 90 60 60
        E 0 90 63 60
        E 0 90 6f 60
        E 120 80 54 00
        E 0 80 57 00
        E 0 80 60 00
        E 0 80 63 00
        E 0 80 6f 00
        E 0 90 63 60
        E 0 90 6f 60
        E 120 80 63 00
        E 0 80 6f 00
        E 0 90 40 60
        E 0 90 48 60
        E 0 90 4c 60
        E 0 90 54 60
        E 0 90 58 60
        E 0 90 60 60
        E 0 90 64 60
        E 0 90 74 60
        E 120 80 40 00
        E 0 80 48 00
        E 0 80 4c 00
        E 0 80 54 00
        E 0 80 58 00
        E 0 80 60 00
        E 0 80 64 00
        E 120 90 54 60
        E 0 90 57 60
        E 0 90 60 60
        E 0 90 63 60
        E 120 80 54 00
        E 0 80 57 00
        E 0 80 60 00
        E 0 80 63 00
        E 120 90 3f 60
        E 0 90 4b 60
        E 0 90 57 60
        E 0 90 63 60
        E 80 80 3f 00
        E 0 80 4b 00
        E 0 80 57 00
        E 0 80 63 00
        E 0 90 60 60
        E 80 80 60 00
        E 0 90 60 60
        E 80 80 60 00
        E 0 90 55 60
        E 0 90 57 60
        E 0 90 61 60
        E 0 90 63 60
        E 120 80 55 00
        E 0 80 57 00
        E 0 80 61 00
        E 0 80 63 00
        E 120 90 3f 60
        E 0 90 48 60
        E 0 90 4b 60
        E 0 90 54 60
        E 0 90 57 60
        E 0 90 60 60
        E 0 90 63 60
        E 80 80 3f 00
        E 0 80 48 00
        E 0 80 4b 00
        E 0 80 54 00
        E 0 80 57 00
        E 0 80 60 00
        E 0 80 63 00
        E 160 90 54 60
        E 0 90 57 60
        E 0 90 60 60
        E 0 90 63 60
        E 80 80 54 00
        E 0 80 57 00
        E 0 80 60 00
        E 0 80 63 00
        E 160 90 40 60
        E 0 90 48 60
        E 0 90 4c 60
        E 0 90 54 60
        E 0 90 58 60
        E 0 90 60 60
        E 0 90 64 60
        E 80 80 40 00
        E 0 80 48 00
        E 0 80 4c 00
        E 0 80 54 00
        E 0 80 58 00
        E 0 80 60 00
        E 0 80 64 00
        E 160 90 54 60
        E 0 90 57 60
        E 0 90 60 60
        E 0 90 63 60
        E 80 80 54 00
        E 0 80 57 00
        E 0 80 60 00
        E 0 80 63 00
        E 160 90 3f 60
        E 0 90 4b 60
        E 0 90 57 60
        E 0 90 63 60
        E 80 80 3f 00
        E 0 80 4b 00
        E 0 80 57 00
        E 0 80 63 00
        E 0 90 60 60
        E 80 80 60 00
        E 0 90 60 60
        E 80 80 60 00
        E 0 90 55 60
        E 0 90 57 60
        E 0 90 61 60
        E 0 90 63 60
        E 80 80 55 00
        E 0 80 57 00
        E 0 80 61 00
        E 0 80 63 00
        E 160 90 3d 60
        E 0 90 49 60
        E 0 90 55 60
        E 0 90 61 60
        E 80 80 3d 00
        E 0 80 49 00
        E 0 80 55 00
        E 0 80 61 00
        E 0 90 61 60
        E 80 80 61 00
        E 0 90 61 60
        E 80 80 61 00
        E 0 90 55 60
        E 0 90 61 60
        E 80 80 55 00
        E 0 80 61 00
        E 160 90 40 60
        E 0 90 48 60
        E 0 90 4c 60
        E 0 90 54 60
        E 0 90 58 60
        E 0 90 60 60
        E 0 90 64 60
        E 80 80 40 00
        E 0 80 48 00
        E 0 80 4c 00
        E 0 80 54 00
        E 0 80 58 00
        E 0 80 60 00
        E 0 80 64 00
        E 160 90 54 60
        E 0 90 57 60
        E 0 90 60 60
        E 0 90 63 60
        E 80 80 54 00
        E 0 80 57 00
        E 0 80 60 00
        E 0 80 63 00
        E 160 90 3f 60
        E 0 90 4b 60
        E 0 90 57 60
        E 0 90 63 60
        E 80 80 3f 00
        E 0 80 4b 00
        E 0 80 57 00
        E 0 80 63 00
        E 0 90 60 60
        E 80 80 60 00
        E 0 90 60 60
        E 80 80 60 00
        E 0 90 55 60
        E 0 90 57 60
        E 0 90 61 60
        E 0 90 63 60
        E 80 80 55 00
        E 0 80 57 00
        E 0 80 61 00
        E 0 80 63 00
        E 160 90 3f 60
        E 0 90 48 60
        E 0 90 4b 60
        E 0 90 54 60
        E 0 90 57 60
        E 0 90 60 60
        E 0 90 63 60
        E 80 80 3f 00
        E 0 80 48 00
        E 0 80 4b 00
        E 0 80 54 00
        E 0 80 57 00
        E 0 80 60 00
        E 0 80 63 00
        E 160 90 54 60
        E 0 90 57 60
        E 0 90 60 60
        E 0 90 63 60
        E 80 80 54 00
        E 0 80 57 00
        E 0 80 60 00
        E 0 80 63 00
        E 160 90 3f 60
        E 0 90 48 60
        E 0 90 4b 60
        E 0 90 54 60
        E 0 90 57 60
        E 0 90 60 60
        E 0 90 63 60
        E 80 80 3f 00
        E 0 80 48 00
        E 0 80 4b 00
        E 0 80 54 00
        E 0 80 57 00
        E 0 80 60 00
        E 0 80 63 00
        E 160 90 54 60
        E 0 90 57 60
        E 0 90 60 60
        E 0 90 63 60
        E 80 80 54 00
        E 0 80 57 00
        E 0 80 60 00
        E 0 80 63 00
        E 160 90 3f 60
        E 0 90 4b 60
        E 0 90 57 60
        E 0 90 63 60
        E 80 80 3f 00
        E 0 80 4b 00
        E 0 80 57 00
        E 0 80 63 00
        E 0 90 60 60
        E 80 80 60 00
        E 0 90 60 60
        E 80 80 60 00
        E 0 90 55 60
        E 0 90 57 60
        E 0 90 61 60
        E 0 90 63 60
        E 80 80 55 00
        E 0 80 57 00
        E 0 80 61 00
        E 0 80 63 00
        E 160 90 3e 60
        E 0 90 4a 60
        E 0 90 56 60
        E 0 90 62 60
        E 0 90 6e 60
        E 120 80 3e 00
        E 0 80 4a 00
        E 0 80 56 00
        E 0 80 62 00
        E 0 80 6e 00
        E 0 90 62 60
        E 0 90 6e 60
        E 120 80 62 00
        E 0 80 6e 00
        E 0 90 57 60
        E 0 90 63 60
        E 0 90 6f 60
        E 120 80 57 00
        E 0 80 63 00
        E 0 80 6f 00
        E 0 90 63 60
        E 0 90 6f 60
        E 120 80 74 00
        E 0 80 63 00
        E 0 80 6f 00
        E 0 90 40 60
        E 0 90 48 60
        E 0 90 4c 60
        E 0 90 54 60
        E 0 90 58 60
        E 0 90 60 60
        E 0 90 64 60
        E 80 80 40 00
        E 0 80 48 00
        E 0 80 4c 00
        E 0 80 54 00
        E 0 80 58 00
        E 0 80 60 00
        E 0 80 64 00
        E 160 90 54 60
        E 0 90 57 60
        E 0 90 60 60
        E 0 90 63 60
        E 80 80 54 00
        E 0 80 57 00
        E 0 80 60 00
        E 0 80 63 00
        E 160 90 3f 60
        E 0 90 4b 60
        E 0 90 57 60
        E 0 90 63 60
        E 80 80 3f 00
        E 0 80 4b 00
        E 0 80 57 00
        E 0 80 63 00
        E 0 90 60 60
        E 80 80 60 00
        E 0 90 60 60
        E 80 80 60 00
        E 0 90 55 60
        E 0 90 57 60
        E 0 90 61 60
        E 0 90 63 60
        E 80 80 55 00
        E 0 80 57 00
        E 0 80 61 00
        E 0 80 63 00
        E 160 90 3d 60
        E 0 90 49 60
        E 0 90 55 60
        E 0 90 61 60
        E 80 80 3d 00
        E 0 80 49 00
        E 0 80 55 00
        E 0 80 61 00
        E 0 90 61 60
        E 80 80 61 00
        E 0 90 61 60
        E 80 80 61 00
        E 0 90 55 60
        E 0 90 61 60
        E 80 80 55 00
        E 0 80 61 00
        E 0 90 61 60
        E 80 80 61 00
        E 0 90 61 60
        E 80 80 61 00
        E 0 90 40 60
        E 0 90 48 60
        E 0 90 4c 60
        E 0 90 54 60
        E 0 90 58 60
        E 0 90 60 60
        E 0 90 64 60
        E 80 80 40 00
        E 0 80 48 00
        E 0 80 4c 00
        E 0 80 54 00
        E 0 80 58 00
        E 0 80 60 00
        E 0 80 64 00
        E 160 90 55 60
        E 0 90 61 60
        E 80 80 55 00
        E 0 80 61 00
        E 0 90 61 60
        E 80 80 61 00
        E 0 90 61 60
        E 80 80 61 00
        E 160 90 61 60
        E 80 80 61 00
        E 0 90 54 60
        E 0 90 58 60
        E 0 90 60 60
        E 0 90 64 60
        E 80 80 54 00
        E 0 80 58 00
        E 0 80 60 00
        E 0 80 64 00
        E 40 90 60 60
        E 120 80 60 00
        E 0 90 3d 60
        E 0 90 49 60
        E 0 90 4b 60
        E 0 90 55 60
        E 0 90 57 60
        E 0 90 61 60
        E 0 90 63 60
        E 120 80 3d 00
        E 0 80 49 00
        E 0 80 4b 00
        E 0 80 55 00
        E 0 80 57 00
        E 0 80 61 00
        E 0 80 63 00
        E 120 90 54 60
        E 0 90 57 60
        E 0 90 60 60
        E 0 90 63 60
        E 120 80 54 00
        E 0 80 57 00
        E 0 80 60 00
        E 0 80 63 00
        E 120 90 40 60
        E 0 90 48 60
        E 0 90 4c 60
        E 0 90 54 60
        E 0 90 58 60
        E 0 90 60 60
        E 0 90 64 60
        E 80 80 40 00
        E 0 80 48 00
        E 0 80 4c 00
        E 0 80 54 00
        E 0 80 58 00
        E 0 80 60 00
        E 0 80 64 00
        E 160 90 54 60
        E 0 90 57 60
        E 0 90 60 60
        E 0 90 63 60
        E 80 80 54 00
        E 0 80 57 00
        E 0 80 60 00
        E 0 80 63 00
        E 160 90 3f 60
        E 0 90 4b 60
        E 0 90 57 60
        E 0 90 63 60
        E 80 80 3f 00
        E 0 80 4b 00
        E 0 80 57 00
        E 0 80 63 00
        E 0 90 60 60
        E 80 80 60 00
        E 0 90 60 60
        E 80 80 60 00
        E 0 90 55 60
        E 0 90 57 60
        E 0 90 61 60
        E 0 90 63 60
        E 80 80 55 00
        E 0 80 57 00
        E 0 80 61 00
        E 0 80 63 00
        E 160 90 3f 60
        E 0 90 48 60
        E 0 90 4b 60
        E 0 90 54 60
        E 0 90 57 60
        E 0 90 60 60
        E 0 90 63 60
        E 80 80 3f 00
        E 0 80 48 00
        E 0 80 4b 00
        E 0 80 54 00
        E 0 80 57 00
        E 0 80 60 00
        E 0 80 63 00
        E 160 90 54 60
        E 0 90 57 60
        E 0 90 60 60
        E 0 90 63 60
        E 80 80 54 00
        E 0 80 57 00
        E 0 80 60 00
        E 0 80 63 00
        E 40 90 60 60
        E 120 80 60 00
        E 0 90 3f 60
        E 0 90 48 60
        E 0 90 4b 60
        E 0 90 54 60
        E 0 90 57 60
        E 0 90 60 60
        E 0 90 63 60
        E 0 90 78 60
        E 0 90 79 60
        E 0 90 7a 60
        E 0 90 7b 60
        E 0 90 7c 60
        E 80 80 3f 00
        E 0 80 48 00
        E 0 80 4b 00
        E 0 80 54 00
        E 0 80 57 00
        E 0 80 60 00
        E 0 80 63 00
        E 160 90 54 60
        E 0 90 57 60
        E 0 90 60 60
        E 0 90 63 60
        E 80 80 54 00
        E 0 80 57 00
        E 0 80 60 00
        E 0 80 63 00
        E 160 90 3f 60
        E 0 90 4b 60
        E 0 90 57 60
        E 0 90 63 60
        E 80 80 3f 00
        E 0 80 4b 00
        E 0 80 57 00
        E 0 80 63 00
        E 80 90 60 60
        E 80 80 60 00
        E 0 90 55 60
        E 0 90 57 60
        E 0 90 61 60
        E 0 90 63 60
        E 80 80 55 00
        E 0 80 57 00
        E 0 80 61 00
        E 0 80 63 00
        E 160 90 3d 60
        E 0 90 49 60
        E 0 90 55 60
        E 0 90 61 60
        E 120 80 3d 00
        E 0 80 49 00
        E 0 80 55 00
        E 0 80 61 00
        E 0 90 61 60
        E 120 80 61 00
        E 0 90 56 60
        E 0 90 62 60
        E 0 90 6e 60
        E 120 80 56 00
        E 0 80 62 00
        E 0 80 6e 00
        E 120 80 78 00
        E 0 80 79 00
        E 0 80 7a 00
        E 0 80 7b 00
        E 0 80 7c 00
        E 0 90 40 60
        E 0 90 48 60
        E 0 90 4c 60
        E 0 90 54 60
        E 0 90 58 60
        E 0 90 60 60
        E 0 90 64 60
        E 80 80 40 00
        E 0 80 48 00
        E 0 80 4c 00
        E 0 80 54 00
        E 0 80 58 00
        E 0 80 60 00
        E 0 80 64 00
        E 160 90 54 60
        E 0 90 57 60
        E 0 90 60 60
        E 0 90 63 60
        E 80 80 54 00
        E 0 80 57 00
        E 0 80 60 00
        E 0 80 63 00
        E 160 90 3f 60
        E 0 90 4b 60
        E 0 90 57 60
        E 0 90 63 60
        E 80 80 3f 00
        E 0 80 4b 00
        E 0 80 57 00
        E 0 80 63 00
        E 0 90 60 60
        E 80 80 60 00
        E 0 90 60 60
        E 80 80 60 00
        E 0 90 55 60
        E 0 90 57 60
        E 0 90 61 60
        E 0 90 63 60
        E 80 80 55 00
        E 0 80 57 00
        E 0 80 61 00
        E 0 80 63 00
        E 160 90 3f 60
        E 0 90 48 60
        E 0 90 4b 60
        E 0 90 54 60
        E 0 90 57 60
        E 0 90 60 60
        E 0 90 63 60
        E 80 80 3f 00
        E 0 80 48 00
        E 0 80 4b 00
        E 0 80 54 00
        E 0 80 57 00
        E 0 80 60 00
        E 0 80 63 00
        E 160 90 54 60
        E 0 90 57 60
        E 0 90 60 60
        E 0 90 63 60
        E 80 80 54 00
        E 0 80 57 00
        E 0 80 60 00
        E 0 80 63 00
        E 160 90 40 60
        E 0 90 48 60
        E 0 90 4c 60
        E 0 90 54 60
        E 0 90 58 60
        E 0 90 60 60
        E 0 90 64 60
        E 80 80 40 00
        E 0 80 48 00
        E 0 80 4c 00
        E 0 80 54 00
        E 0 80 58 00
        E 0 80 60 00
        E 0 80 64 00
        E 160 90 54 60
        E 0 90 57 60
        E 0 90 60 60
        E 0 90 63 60
        E 80 80 54 00
        E 0 80 57 00
        E 0 80 60 00
        E 0 80 63 00
        E 160 90 3f 60
        E 0 90 4b 60
        E 0 90 57 60
        E 0 90 63 60
        E 80 80 3f 00
        E 0 80 4b 00
        E 0 80 57 00
        E 0 80 63 00
        E 0 90 60 60
        E 80 80 60 00
        E 0 90 60 60
        E 80 80 60 00
        E 0 90 55 60
        E 0 90 57 60
        E 0 90 61 60
        E 0 90 63 60
        E 80 80 55 00
        E 0 80 57 00
        E 0 80 61 00
        E 0 80 63 00
        E 160 90 3e 60
        E 0 90 4a 60
        E 0 90 56 60
        E 0 90 62 60
        E 0 90 6e 60
        E 80 80 3e 00
        E 0 80 4a 00
        E 0 80 56 00
        E 0 80 62 00
        E 0 80 6e 00
        E 0 90 62 60
        E 0 90 6e 60
        E 80 80 62 00
        E 0 80 6e 00
        E 0 90 62 60
        E 0 90 6e 60
        E 80 80 62 00
        E 0 80 6e 00
        E 0 90 57 60
        E 0 90 63 60
        E 0 90 6f 60
        E 80 80 57 00
        E 0 80 63 00
        E 0 80 6f 00
        E 0 90 63 60
        E 0 90 6f 60
        E 80 80 63 00
        E 0 80 6f 00
        E 0 90 63 60
        E 0 90 6f 60
        E 80 80 63 00
        E 0 80 6f 00
        E 0 90 40 60
        E 0 90 48 60
        E 0 90 4c 60
        E 0 90 54 60
        E 0 90 58 60
        E 0 90 60 60
        E 0 90 64 60
        E 80 80 40 00
        E 0 80 48 00
        E 0 80 4c 00
        E 0 80 54 00
        E 0 80 58 00
        E 0 80 60 00
        E 0 80 64 00
        E 160 90 54 60
        E 0 90 57 60
        E 0 90 60 60
        E 0 90 63 60
        E 80 80 54 00
        E 0 80 57 00
        E 0 80 60 00
        E 0 80 63 00
        E 160 90 3f 60
        E 0 90 4b 60
        E 0 90 57 60
        E 0 90 63 60
        E 80 80 3f 00
        E 0 80 4b 00
        E 0 80 57 00
        E 0 80 63 00
        E 0 90 60 60
        E 80 80 60 00
        E 0 90 60 60
        E 80 80 60 00
        E 0 90 55 60
        E 0 90 57 60
        E 0 90 61 60
        E 0 90 63 60
        E 80 80 55 00
        E 0 80 57 00
        E 0 80 61 00
        E 0 80 63 00
        E 160 90 3e 60
        E 0 90 4a 60
        E 0 90 56 60
        E 0 90 62 60
        E 0 90 6e 60
        E 80 80 3e 00
        E 0 80 4a 00
        E 0 80 56 00
        E 0 80 62 00
        E 0 80 6e 00
        E 0 90 62 60
        E 0 90 6e 60
        E 80 80 62 00
        E 0 80 6e 00
        E 0 90 62 60
        E 0 90 6e 60
        E 80 80 62 00
        E 0 80 6e 00
        E 0 90 55 60
        E 0 90 61 60
        E 120 80 55 00
        E 0 80 61 00
        E 0 90 61 60
        E 120 80 61 00
        E 0 90 40 60
        E 0 90 48 60
        E 0 90 4c 60
        E 0 90 54 60
        E 0 90 58 60
        E 0 90 60 60
        E 0 90 64 60
        E 80 80 40 00
        E 0 80 48 00
        E 0 80 4c 00
        E 0 80 54 00
        E 0 80 58 00
        E 0 80 60 00
        E 0 80 64 00
        E 160 90 54 60
        E 0 90 57 60
        E 0 90 60 60
        E 0 90 63 60
        E 80 80 54 00
        E 0 80 57 00
        E 0 80 60 00
        E 0 80 63 00
        E 160 90 3f 60
        E 0 90 4b 60
        E 0 90 57 60
        E 0 90 63 60
        E 80 80 3f 00
        E 0 80 4b 00
        E 0 80 57 00
        E 0 80 63 00
        E 0 90 60 60
        E 80 80 60 00
        E 0 90 60 60
        E 80 80 60 00
        E 0 90 55 60
        E 0 90 57 60
        E 0 90 61 60
        E 0 90 63 60
        E 80 80 55 00
        E 0 80 57 00
        E 0 80 61 00
        E 0 80 63 00
        E 160 90 3d 60
        E 0 90 49 60
        E 0 90 55 60
        E 0 90 61 60
        E 120 80 3d 00
        E 0 80 49 00
        E 0 80 55 00
        E 0 80 61 00
        E 0 90 61 60
        E 120 80 61 00
        E 0 90 56 60
        E 0 90 62 60
        E 0 90 6e 60
        E 120 80 56 00
        E 0 80 62 00
        E 0 80 6e 00
        E 120 90 40 60
        E 0 90 48 60
        E 0 90 4c 60
        E 0 90 54 60
        E 0 90 58 60
        E 0 90 60 60
        E 0 90 64 60
        E 80 80 40 00
        E 0 80 48 00
        E 0 80 4c 00
        E 0 80 54 00
        E 0 80 58 00
        E 0 80 60 00
        E 0 80 64 00
        E 160 90 54 60
        E 0 90 57 60
        E 0 90 60 60
        E 0 90 63 60
        E 80 80 54 00
        E 0 80 57 00
        E 0 80 60 00
        E 0 80 63 00
        E 160 90 3f 60
        E 0 90 4b 60
        E 0 90 57 60
        E 0 90 63 60
        E 80 80 3f 00
        E 0 80 4b 00
        E 0 80 57 00
        E 0 80 63 00
        E 0 90 60 60
        E 80 80 60 00
        E 0 90 60 60
        E 80 80 60 00
        E 0 90 55 60
        E 0 90 57 60
        E 0 90 61 60
        E 0 90 63 60
        E 80 80 55 00
        E 0 80 57 00
        E 0 80 61 00
        E 0 80 63 00
        E 160 90 3f 60
        E 0 90 48 60
        E 0 90 4b 60
        E 0 90 54 60
        E 0 90 57 60
        E 0 90 60 60
        E 0 90 63 60
        E 80 80 3f 00
        E 0 80 48 00
        E 0 80 4b 00
        E 0 80 54 00
        E 0 80 57 00
        E 0 80 60 00
        E 0 80 63 00
        E 160 90 54 60
        E 0 90 57 60
        E 0 90 60 60
        E 0 90 63 60
        E 80 80 54 00
        E 0 80 57 00
        E 0 80 60 00
        E 0 80 63 00
        E 160 90 40 60
        E 0 90 48 60
        E 0 90 4c 60
        E 0 90 54 60
        E 0 90 58 60
        E 0 90 60 60
        E 0 90 64 60
        E 0 90 78 60
        E 0 90 79 60
        E 0 90 7a 60
        E 0 90 7b 60
        E 0 90 7c 60
        E 80 80 40 00
        E 0 80 48 00
        E 0 80 4c 00
        E 0 80 54 00
        E 0 80 58 00
        E 0 80 60 00
        E 0 80 64 00
        E 160 90 54 60
        E 0 90 57 60
        E 0 90 60 60
        E 0 90 63 60
        E 80 80 54 00
        E 0 80 57 00
        E 0 80 60 00
        E 0 80 63 00
        E 160 90 3f 60
        E 0 90 4b 60
        E 0 90 57 60
        E 0 90 63 60
        E 80 80 3f 00
        E 0 80 4b 00
        E 0 80 57 00
        E 0 80 63 00
        E 0 90 60 60
        E 80 80 60 00
        E 0 90 60 60
        E 80 80 60 00
        E 0 90 55 60
        E 0 90 57 60
        E 0 90 61 60
        E 0 90 63 60
        E 80 80 55 00
        E 0 80 57 00
        E 0 80 61 00
        E 0 80 63 00
        E 160 90 3d 60
        E 0 90 49 60
        E 0 90 55 60
        E 0 90 61 60
        E 120 80 3d 00
        E 0 80 49 00
        E 0 80 55 00
        E 0 80 61 00
        E 0 90 61 60
        E 120 80 61 00
        E 240 80 78 00
        E 0 80 79 00
        E 0 80 7a 00
        E 0 80 7b 00
        E 0 80 7c 00
        E 0 90 40 60
        E 0 90 48 60
        E 0 90 4c 60
        E 0 90 54 60
        E 0 90 58 60
        E 0 90 60 60
        E 0 90 64 60
        E 80 80 40 00
        E 0 80 48 00
        E 0 80 4c 00
        E 0 80 54 00
        E 0 80 58 00
        E 0 80 60 00
        E 0 80 64 00
        E 40 90 60 60
        E 120 80 60 00
        E 0 90 54 60
        E 0 90 57 60
        E 0 90 60 60
        E 0 90 63 60
        E 80 80 54 00
        E 0 80 57 00
        E 0 80 60 00
        E 0 80 63 00
        E 160 90 3f 60
        E 0 90 4b 60
        E 0 90 57 60
        E 0 90 63 60
        E 80 80 3f 00
        E 0 80 4b 00
        E 0 80 57 00
        E 0 80 63 00
        E 0 90 60 60
        E 80 80 60 00
        E 0 90 60 60
        E 80 80 60 00
        E 0 90 55 60
        E 0 90 58 60
        E 0 90 61 60
        E 0 90 64 60
        E 80 80 55 00
        E 0 80 58 00
        E 0 80 61 00
        E 0 80 64 00
        E 160 90 3f 60
        E 0 90 48 60
        E 0 90 4b 60
        E 0 90 54 60
        E 0 90 57 60
        E 0 90 60 60
        E 0 90 63 60
        E 80 80 3f 00
        E 0 80 48 00
        E 0 80 4b 00
        E 0 80 54 00
        E 0 80 57 00
        E 0 80 60 00
        E 0 80 63 00
        E 160 90 54 60
        E 0 90 57 60
        E 0 90 60 60
        E 0 90 63 60
        E 80 80 54 00
        E 0 80 57 00
        E 0 80 60 00
        E 0 80 63 00
        E 160 90 40 60
        E 0 90 48 60
        E 0 90 4c 60
        E 0 90 54 60
        E 0 90 58 60
        E 0 90 60 60
        E 0 90 64 60
        E 80 80 40 00
        E 0 80 48 00
        E 0 80 4c 00
        E 0 80 54 00
        E 0 80 58 00
        E 0 80 60 00
        E 0 80 64 00
        E 160 90 55 60
        E 0 90 61 60
        E 120 80 55 00
        E 0 80 61 00
        E 0 90 61 60
        E 120 80 61 00
        E 120 90 61 60
        E 120 80 61 00
        E 0 90 54 60
        E 0 90 55 60
        E 0 90 60 60
        E 0 90 61 60
        E 120 80 54 00
        E 0 80 55 00
        E 0 80 60 00
        E 0 80 61 00
        E 0 90 61 60
        E 120 80 61 00
        E 0 90 3d 60
        E 0 90 49 60
        E 0 90 54 60
        E 0 90 55 60
        E 0 90 60 60
        E 0 90 61 60
        E 120 80 3d 00
        E 0 80 49 00
        E 0 80 54 00
        E 0 80 55 00
        E 0 80 60 00
        E 0 80 61 00
        E 0 90 61 60
        E 120 80 61 00
        E 0 90 54 60
        E 0 90 60 60
        E 120 80 54 00
        E 0 80 60 00
        E 0 90 61 60
        E 120 80 61 00
        E 0 90 40 60
        E 0 90 48 60
        E 0 90 4c 60
        E 0 90 54 60
        E 0 90 58 60
        E 0 90 60 60
        E 0 90 64 60
        E 80 80 40 00
        E 0 80 48 00
        E 0 80 4c 00
        E 0 80 54 00
        E 0 80 58 00
        E 0 80 60 00
        E 0 80 64 00
        E 80 90 60 60
        E 80 80 60 00
        E 0 90 54 60
        E 0 90 58 60
        E 0 90 60 60
        E 0 90 64 60
        E 80 80 54 00
        E 0 80 58 00
        E 0 80 60 00
        E 0 80 64 00
        E 160 90 40 60
        E 0 90 4c 60
        E 0 90 58 60
        E 0 90 64 60
        E 80 80 40 00
        E 0 80 4c 00
        E 0 80 58 00
        E 0 80 64 00
        E 0 90 60 60
        E 80 80 60 00
        E 0 90 60 60
        E 80 80 60 00
        E 0 90 55 60
        E 0 90 58 60
        E 0 90 61 60
        E 0 90 64 60
        E 80 80 55 00
        E 0 80 58 00
        E 0 80 61 00
        E 0 80 64 00
        E 160 90 40 60
        E 0 90 4c 60
        E 0 90 58 60
        E 0 90 64 60
        E 80 80 40 00
        E 0 80 4c 00
        E 0 80 58 00
        E 0 80 64 00
        E 160 90 54 60
        E 0 90 58 60
        E 0 90 60 60
        E 0 90 64 60
        E 80 80 54 00
        E 0 80 58 00
        E 0 80 60 00
        E 0 80 64 00
        E 160 90 40 60
        E 0 90 48 60
        E 0 90 4c 60
        E 0 90 54 60
        E 0 90 58 60
        E 0 90 60 60
        E 0 90 64 60
        E 80 80 40 00
        E 0 80 48 00
        E 0 80 4c 00
        E 0 80 54 00
        E 0 80 58 00
        E 0 80 60 00
        E 0 80 64 00
        E 160 90 54 60
        E 0 90 58 60
        E 0 90 60 60
        E 0 90 64 60
        E 80 80 54 00
        E 0 80 58 00
        E 0 80 60 00
        E 0 80 64 00
        E 160 90 40 60
        E 0 90 4c 60
        E 0 90 58 60
        E 0 90 64 60
        E 80 80 40 00
        E 0 80 4c 00
        E 0 80 58 00
        E 0 80 64 00
        E 0 90 60 60
        E 80 80 60 00
        E 0 90 60 60
        E 80 80 60 00
        E 0 90 55 60
        E 0 90 58 60
        E 0 90 61 60
        E 0 90 64 60
        E 80 80 55 00
        E 0 80 58 00
        E 0 80 61 00
        E 0 80 64 00
        E 160 90 3f 60
        E 0 90 4b 60
        E 0 90 57 60
        E 0 90 63 60
        E 80 80 3f 00
        E 0 80 4b 00
        E 0 80 57 00
        E 0 80 63 00
        E 80 90 61 60
        E 80 80 61 00
        E 0 90 54 60
        E 0 90 57 60
        E 0 90 60 60
        E 0 90 63 60
        E 80 80 54 00
        E 0 80 57 00
        E 0 80 60 00
        E 0 80 63 00
        E 160 90 40 60
        E 0 90 48 60
        E 0 90 4c 60
        E 0 90 54 60
        E 0 90 58 60
        E 0 90 60 60
        E 0 90 64 60
        E 80 80 40 00
        E 0 80 48 00
        E 0 80 4c 00
        E 0 80 54 00
        E 0 80 58 00
        E 0 80 60 00
        E 0 80 64 00
        E 160 90 54 60
        E 0 90 58 60
        E 0 90 60 60
        E 0 90 64 60
        E 80 80 54 00
        E 0 80 58 00
        E 0 80 60 00
        E 0 80 64 00
        E 160 90 40 60
        E 0 90 4c 60
        E 0 90 58 60
        E 0 90 64 60
        E 80 80 40 00
        E 0 80 4c 00
        E 0 80 58 00
        E 0 80 64 00
        E 0 90 60 60
        E 80 80 60 00
        E 0 90 60 60
        E 80 80 60 00
        E 0 90 55 60
        E 0 90 58 60
        E 0 90 61 60
        E 0 90 64 60
        E 80 80 55 00
        E 0 80 58 00
        E 0 80 61 00
        E 0 80 64 00
        E 400 90 54 60
        E 0 90 58 60
        E 0 90 60 60
        E 0 90 64 60
        E 80 80 54 00
        E 0 80 58 00
        E 0 80 60 00
        E 0 80 64 00
        E 160 90 3d 60
        E 0 90 49 60
        E 0 90 55 60
        E 0 90 61 60
        E 80 80 3d 00
        E 0 80 49 00
        E 0 80 55 00
        E 0 80 61 00
        E 0 90 61 60
        E 80 80 61 00
        E 0 90 61 60
        E 80 80 61 00
        E 0 90 55 60
        E 0 90 61 60
        E 120 80 55 00
        E 0 80 61 00
        E 0 90 61 60
        E 120 80 61 00
        E 0 90 3e 60
        E 0 90 4a 60
        E 0 90 54 60
        E 0 90 56 60
        E 0 90 60 60
        E 0 90 62 60
        E 0 90 6e 60
        E 120 80 3e 00
        E 0 80 4a 00
        E 0 80 54 00
        E 0 80 56 00
        E 0 80 60 00
        E 0 80 62 00
        E 0 80 6e 00
        E 0 90 62 60
        E 0 90 6e 60
        E 120 80 62 00
        E 0 80 6e 00
        E 0 90 54 60
        E 0 90 55 60
        E 0 90 60 60
        E 0 90 61 60
        E 120 80 54 00
        E 0 80 55 00
        E 0 80 60 00
        E 0 80 61 00
        E 0 90 61 60
        E 120 80 61 00
        E 0 90 3d 60
        E 0 90 49 60
        E 0 90 54 60
        E 0 90 55 60
        E 0 90 60 60
        E 0 90 61 60
        E 120 80 3d 00
        E 0 80 49 00
        E 0 80 54 00
        E 0 80 55 00
        E 0 80 60 00
        E 0 80 61 00
        E 0 90 61 60
        E 120 80 61 00
        E 0 90 54 60
        E 0 90 55 60
        E 0 90 60 60
        E 0 90 61 60
        E 120 80 54 00
        E 0 80 55 00
        E 0 80 60 00
        E 0 80 61 00
        E 0 90 61 60
        E 120 80 61 00
        E 0 90 40 60
        E 0 90 48 60
        E 0 90 4c 60
        E 0 90 54 60
        E 0 90 58 60
        E 0 90 60 60
        E 0 90 64 60
        E 0 90 74 60
        E 80 80 40 00
        E 0 80 48 00
        E 0 80 4c 00
        E 0 80 54 00
        E 0 80 58 00
        E 0 80 60 00
        E 0 80 64 00
        E 160 90 54 60
        E 0 90 58 60
        E 0 90 60 60
        E 0 90 64 60
        E 80 80 54 00
        E 0 80 58 00
        E 0 80 60 00
        E 0 80 64 00
        E 160 90 40 60
        E 0 90 4c 60
        E 0 90 58 60
        E 0 90 64 60
        E 80 80 40 00
        E 0 80 4c 00
        E 0 80 58 00
        E 0 80 64 00
        E 0 90 60 60
        E 80 80 60 00
        E 0 90 60 60
        E 80 80 60 00
        E 0 90 55 60
        E 0 90 58 60
        E 0 90 61 60
        E 0 90 64 60
        E 80 80 55 00
        E 0 80 58 00
        E 0 80 61 00
        E 0 80 64 00
        E 400 90 54 60
        E 0 90 57 60
        E 0 90 60 60
        E 0 90 63 60
        E 80 80 54 00
        E 0 80 57 00
        E 0 80 60 00
        E 0 80 63 00
        E 160 90 40 60
        E 0 90 48 60
        E 0 90 4c 60
        E 0 90 54 60
        E 0 90 58 60
        E 0 90 60 60
        E 0 90 64 60
        E 80 80 40 00
        E 0 80 48 00
        E 0 80 4c 00
        E 0 80 54 00
        E 0 80 58 00
        E 0 80 60 00
        E 0 80 64 00
        E 160 90 54 60
        E 0 90 57 60
        E 0 90 60 60
        E 0 90 63 60
        E 80 80 54 00
        E 0 80 57 00
        E 0 80 60 00
        E 0 80 63 00
        E 40 90 60 60
        E 120 80 60 00
        E 0 90 3f 60
        E 0 90 4b 60
        E 0 90 57 60
        E 0 90 63 60
        E 80 80 3f 00
        E 0 80 4b 00
        E 0 80 57 00
        E 0 80 63 00
        E 0 90 60 60
        E 80 80 60 00
        E 0 90 60 60
        E 80 80 60 00
        E 0 90 55 60
        E 0 90 57 60
        E 0 90 61 60
        E 0 90 63 60
        E 80 80 55 00
        E 0 80 57 00
        E 0 80 61 00
        E 0 80 63 00
        E 160 90 3f 60
        E 0 90 4b 60
        E 0 90 57 60
        E 0 90 63 60
        E 80 80 3f 00
        E 0 80 4b 00
        E 0 80 57 00
        E 0 80 63 00
        E 160 90 54 60
        E 0 90 57 60
        E 0 90 60 60
        E 0 90 63 60
        E 120 80 54 00
        E 0 80 57 00
        E 0 80 60 00
        E 0 80 63 00
        E 0 90 60 60
        E 120 80 60 00
        E 0 90 40 60
        E 0 90 48 60
        E 0 90 4c 60
        E 0 90 54 60
        E 0 90 58 60
        E 0 90 60 60
        E 0 90 64 60
        E 80 80 40 00
        E 0 80 48 00
        E 0 80 4c 00
        E 0 80 54 00
        E 0 80 58 00
        E 0 80 60 00
        E 0 80 64 00
        E 160 90 54 60
        E 0 90 57 60
        E 0 90 60 60
        E 0 90 63 60
        E 80 80 54 00
        E 0 80 57 00
        E 0 80 60 00
        E 0 80 63 00
        E 160 90 3f 60
        E 0 90 4b 60
        E 0 90 57 60
        E 0 90 63 60
        E 80 80 3f 00
        E 0 80 4b 00
        E 0 80 57 00
        E 0 80 63 00
        E 0 90 60 60
        E 80 80 60 00
        E 0 90 60 60
        E 80 80 60 00
        E 0 90 55 60
        E 0 90 58 60
        E 0 90 61 60
        E 0 90 64 60
        E 80 80 55 00
        E 0 80 58 00
        E 0 80 61 00
        E 0 80 64 00
        E 400 90 54 60
        E 0 90 58 60
        E 0 90 60 60
        E 0 90 64 60
        E 80 80 54 00
        E 0 80 58 00
        E 0 80 60 00
        E 0 80 64 00
        E 160 90 3d 60
        E 0 90 49 60
        E 0 90 55 60
        E 0 90 61 60
        E 120 80 3d 00
        E 0 80 49 00
        E 0 80 55 00
        E 0 80 61 00
        E 0 90 61 60
        E 120 80 61 00
        E 0 90 54 60
        E 0 90 55 60
        E 0 90 60 60
        E 0 90 61 60
        E 120 80 54 00
        E 0 80 55 00
        E 0 80 60 00
        E 0 80 61 00
        E 0 90 61 60
        E 120 80 61 00
        E 0 90 3d 60
        E 0 90 49 60
        E 0 90 54 60
        E 0 90 55 60
        E 0 90 60 60
        E 0 90 61 60
        E 120 80 3d 00
        E 0 80 49 00
        E 0 80 54 00
        E 0 80 55 00
        E 0 80 60 00
        E 0 80 61 00
        E 0 90 61 60
        E 120 80 61 00
        E 0 90 54 60
        E 0 90 55 60
        E 0 90 60 60
        E 0 90 61 60
        E 120 80 54 00
        E 0 80 55 00
        E 0 80 60 00
        E 0 80 61 00
        E 0 90 61 60
        E 120 80 61 00
        E 0 90 3d 60
        E 0 90 49 60
        E 0 90 54 60
        E 0 90 55 60
        E 0 90 60 60
        E 0 90 61 60
        E 120 80 3d 00
        E 0 80 49 00
        E 0 80 54 00
        E 0 80 55 00
        E 0 80 60 00
        E 0 80 61 00
        E 0 90 61 60
        E 120 80 61 00
        E 0 90 54 60
        E 0 90 55 60
        E 0 90 60 60
        E 0 90 61 60
        E 120 80 54 00
        E 0 80 55 00
        E 0 80 60 00
        E 0 80 61 00
        E 0 90 61 60
        E 120 80 74 00
        E 0 80 61 00
        E 0 90 40 60
        E 0 90 48 60
        E 0 90 4c 60
        E 0 90 54 60
        E 0 90 58 60
        E 0 90 60 60
        E 0 90 64 60
        E 80 80 40 00
        E 0 80 48 00
        E 0 80 4c 00
        E 0 80 54 00
        E 0 80 58 00
        E 0 80 60 00
        E 0 80 64 00
        E 160 90 54 60
        E 0 90 56 60
        E 0 90 60 60
        E 0 90 62 60
        E 80 80 54 00
        E 0 80 56 00
        E 0 80 60 00
        E 0 80 62 00
        E 160 90 3e 60
        E 0 90 4a 60
        E 0 90 56 60
        E 0 90 62 60
        E 80 80 3e 00
        E 0 80 4a 00
        E 0 80 56 00
        E 0 80 62 00
        E 0 90 60 60
        E 80 80 60 00
        E 0 90 60 60
        E 80 80 60 00
        E 0 90 55 60
        E 0 90 56 60
        E 0 90 61 60
        E 0 90 62 60
        E 80 80 55 00
        E 0 80 56 00
        E 0 80 61 00
        E 0 80 62 00
        E 160 90 3e 60
        E 0 90 4a 60
        E 0 90 56 60
        E 0 90 62 60
        E 80 80 3e 00
        E 0 80 4a 00
        E 0 80 56 00
        E 0 80 62 00
        E 160 90 54 60
        E 0 90 56 60
        E 0 90 60 60
        E 0 90 62 60
        E 80 80 54 00
        E 0 80 56 00
        E 0 80 60 00
        E 0 80 62 00
        E 160 90 3e 60
        E 0 90 48 60
        E 0 90 4a 60
        E 0 90 54 60
        E 0 90 56 60
        E 0 90 60 60
        E 0 90 62 60
        E 80 80 3e 00
        E 0 80 48 00
        E 0 80 4a 00
        E 0 80 54 00
        E 0 80 56 00
        E 0 80 60 00
        E 0 80 62 00
        E 160 90 54 60
        E 0 90 56 60
        E 0 90 60 60
        E 0 90 62 60
        E 80 80 54 00
        E 0 80 56 00
        E 0 80 60 00
        E 0 80 62 00
        E 160 90 3e 60
        E 0 90 4a 60
        E 0 90 56 60
        E 0 90 62 60
        E 80 80 3e 00
        E 0 80 4a 00
        E 0 80 56 00
        E 0 80 62 00
        E 0 90 60 60
        E 80 80 60 00
        E 0 90 60 60
        E 80 80 60 00
        E 0 90 55 60
        E 0 90 56 60
        E 0 90 61 60
        E 0 90 62 60
        E 80 80 55 00
        E 0 80 56 00
        E 0 80 61 00
        E 0 80 62 00
        E 160 90 3e 60
        E 0 90 48 60
        E 0 90 4a 60
        E 0 90 54 60
        E 0 90 56 60
        E 0 90 60 60
        E 0 90 62 60
        E 80 80 3e 00
        E 0 80 48 00
        E 0 80 4a 00
        E 0 80 54 00
        E 0 80 56 00
        E 0 80 60 00
        E 0 80 62 00
        E 160 90 54 60
        E 0 90 56 60
        E 0 90 60 60
        E 0 90 62 60
        E 80 80 54 00
        E 0 80 56 00
        E 0 80 60 00
        E 0 80 62 00
        E 160 90 3e 60
        E 0 90 48 60
        E 0 90 4a 60
        E 0 90 54 60
        E 0 90 56 60
        E 0 90 60 60
        E 0 90 62 60
        E 120 80 3e 00
        E 0 80 48 00
        E 0 80 4a 00
        E 0 80 54 00
        E 0 80 56 00
        E 0 80 60 00
        E 0 80 62 00
        E 0 90 61 60
        E 120 80 61 00
        E 0 90 55 60
        E 0 90 61 60
        E 120 80 55 00
        E 0 80 61 00
        E 0 90 60 60
        E 0 90 62 60
        E 120 80 60 00
        E 0 80 62 00
        E 0 90 3d 60
        E 0 90 49 60
        E 0 90 55 60
        E 0 90 61 60
        E 120 80 3d 00
        E 0 80 49 00
        E 0 80 55 00
        E 0 80 61 00
        E 0 90 61 60
        E 120 80 61 00
        E 0 90 54 60
        E 0 90 56 60
        E 0 90 60 60
        E 0 90 62 60
        E 120 80 54 00
        E 0 80 56 00
        E 0 80 60 00
        E 0 80 62 00
        E 0 90 61 60
        E 120 80 61 00
        E 0 90 3e 60
        E 0 90 48 60
        E 0 90 4a 60
        E 0 90 54 60
        E 0 90 56 60
        E 0 90 60 60
        E 0 90 62 60
        E 120 80 3e 00
        E 0 80 48 00
        E 0 80 4a 00
        E 0 80 54 00
        E 0 80 56 00
        E 0 80 60 00
        E 0 80 62 00
        E 0 90 61 60
        E 120 80 61 00
        E 0 90 54 60
        E 0 90 56 60
        E 0 90 60 60
        E 0 90 62 60
        E 120 80 54 00
        E 0 80 56 00
        E 0 80 60 00
        E 0 80 62 00
        E 120 90 3e 60
        E 0 90 48 60
        E 0 90 4a 60
        E 0 90 54 60
        E 0 90 56 60
        E 0 90 60 60
        E 0 90 62 60
        E 0 90 78 60
        E 0 90 79 60
        E 0 90 7a 60
        E 0 90 7b 60
        E 0 90 7c 60
        E 120 80 3e 00
        E 0 80 48 00
        E 0 80 4a 00
        E 0 80 54 00
        E 0 80 56 00
        E 0 80 60 00
        E 0 80 62 00
        E 0 90 61 60
        E 120 80 61 00
        E 0 90 55 60
        E 0 90 61 60
        E 120 80 55 00
        E 0 80 61 00
        E 0 90 60 60
        E 0 90 62 60
        E 120 80 60 00
        E 0 80 62 00
        E 0 90 3d 60
        E 0 90 49 60
        E 0 90 55 60
        E 0 90 61 60
        E 120 80 3d 00
        E 0 80 49 00
        E 0 80 55 00
        E 0 80 61 00
        E 0 90 61 60
        E 120 80 61 00
        E 0 90 54 60
        E 0 90 56 60
        E 0 90 60 60
        E 0 90 62 60
        E 120 80 54 00
        E 0 80 56 00
        E 0 80 60 00
        E 0 80 62 00
        E 120 90 3d 60
        E 0 90 49 60
        E 0 90 55 60
        E 0 90 61 60
        E 120 80 3d 00
        E 0 80 49 00
        E 0 80 55 00
        E 0 80 61 00
        E 0 90 61 60
        E 120 80 61 00
        E 0 90 55 60
        E 0 90 61 60
        E 120 80 55 00
        E 0 80 61 00
        E 0 90 61 60
        E 120 80 78 00
        E 0 80 79 00
        E 0 80 7a 00
        E 0 80 7b 00
        E 0 80 7c 00
        E 0 80 61 00
        E 0 90 40 60
        E 0 90 48 60
        E 0 90 4c 60
        E 0 90 54 60
        E 0 90 58 60
        E 0 90 60 60
        E 0 90 64 60
        E 80 80 40 00
        E 0 80 48 00
        E 0 80 4c 00
        E 0 80 54 00
        E 0 80 58 00
        E 0 80 60 00
        E 0 80 64 00
        E 160 90 54 60
        E 0 90 56 60
        E 0 90 60 60
        E 0 90 62 60
        E 80 80 54 00
        E 0 80 56 00
        E 0 80 60 00
        E 0 80 62 00
        E 160 90 3e 60
        E 0 90 4a 60
        E 0 90 56 60
        E 0 90 62 60
        E 80 80 3e 00
        E 0 80 4a 00
        E 0 80 56 00
        E 0 80 62 00
        E 0 90 60 60
        E 80 80 60 00
        E 0 90 60 60
        E 80 80 60 00
        E 0 90 55 60
        E 0 90 56 60
        E 0 90 61 60
        E 0 90 62 60
        E 80 80 55 00
        E 0 80 56 00
        E 0 80 61 00
        E 0 80 62 00
        E 160 90 3e 60
        E 0 90 4a 60
        E 0 90 56 60
        E 0 90 62 60
        E 80 80 3e 00
        E 0 80 4a 00
        E 0 80 56 00
        E 0 80 62 00
        E 160 90 54 60
        E 0 90 56 60
        E 0 90 60 60
        E 0 90 62 60
        E 80 80 54 00
        E 0 80 56 00
        E 0 80 60 00
        E 0 80 62 00
        E 160 90 3e 60
        E 0 90 48 60
        E 0 90 4a 60
        E 0 90 54 60
        E 0 90 56 60
        E 0 90 60 60
        E 0 90 62 60
        E 80 80 3e 00
        E 0 80 48 00
        E 0 80 4a 00
        E 0 80 54 00
        E 0 80 56 00
        E 0 80 60 00
        E 0 80 62 00
        E 160 90 54 60
        E 0 90 56 60
        E 0 90 60 60
        E 0 90 62 60
        E 80 80 54 00
        E 0 80 56 00
        E 0 80 60 00
        E 0 80 62 00
        E 160 90 3e 60
        E 0 90 4a 60
        E 0 90 56 60
        E 0 90 62 60
        E 80 80 3e 00
        E 0 80 4a 00
        E 0 80 56 00
        E 0 80 62 00
        E 0 90 60 60
        E 80 80 60 00
        E 0 90 60 60
        E 80 80 60 00
        E 0 90 55 60
        E 0 90 56 60
        E 0 90 61 60
        E 0 90 62 60
        E 80 80 55 00
        E 0 80 56 00
        E 0 80 61 00
        E 0 80 62 00
        E 160 90 3e 60
        E 0 90 48 60
        E 0 90 4a 60
        E 0 90 54 60
        E 0 90 56 60
        E 0 90 60 60
        E 0 90 62 60
        E 80 80 3e 00
        E 0 80 48 00
        E 0 80 4a 00
        E 0 80 54 00
        E 0 80 56 00
        E 0 80 60 00
        E 0 80 62 00
        E 160 90 54 60
        E 0 90 56 60
        E 0 90 60 60
        E 0 90 62 60
        E 80 80 54 00
        E 0 80 56 00
        E 0 80 60 00
        E 0 80 62 00
        E 160 90 3e 60
        E 0 90 48 60
        E 0 90 4a 60
        E 0 90 54 60
        E 0 90 56 60
        E 0 90 60 60
        E 0 90 62 60
        E 120 80 3e 00
        E 0 80 48 00
        E 0 80 4a 00
        E 0 80 54 00
        E 0 80 56 00
        E 0 80 60 00
        E 0 80 62 00
        E 0 90 61 60
        E 120 80 61 00
        E 0 90 55 60
        E 0 90 61 60
        E 120 80 55 00
        E 0 80 61 00
        E 0 90 60 60
        E 0 90 62 60
        E 120 80 60 00
        E 0 80 62 00
        E 0 90 3d 60
        E 0 90 49 60
        E 0 90 55 60
        E 0 90 61 60
        E 120 80 3d 00
        E 0 80 49 00
        E 0 80 55 00
        E 0 80 61 00
        E 0 90 61 60
        E 120 80 61 00
        E 0 90 54 60
        E 0 90 56 60
        E 0 90 60 60
        E 0 90 62 60
        E 120 80 54 00
        E 0 80 56 00
        E 0 80 60 00
        E 0 80 62 00
        E 0 90 61 60
        E 120 80 61 00
        E 0 90 3e 60
        E 0 90 48 60
        E 0 90 4a 60
        E 0 90 54 60
        E 0 90 56 60
        E 0 90 60 60
        E 0 90 62 60
        E 120 80 3e 00
        E 0 80 48 00
        E 0 80 4a 00
        E 0 80 54 00
        E 0 80 56 00
        E 0 80 60 00
        E 0 80 62 00
        E 0 90 61 60
        E 120 80 61 00
        E 0 90 54 60
        E 0 90 56 60
        E 0 90 60 60
        E 0 90 62 60
        E 120 80 54 00
        E 0 80 56 00
        E 0 80 60 00
        E 0 80 62 00
        E 120 90 3e 60
        E 0 90 48 60
        E 0 90 4a 60
        E 0 90 54 60
        E 0 90 56 60
        E 0 90 60 60
        E 0 90 62 60
        E 0 90 78 60
        E 0 90 79 60
        E 0 90 7a 60
        E 0 90 7b 60
        E 0 90 7c 60
        E 120 80 3e 00
        E 0 80 48 00
        E 0 80 4a 00
        E 0 80 54 00
        E 0 80 56 00
        E 0 80 60 00
        E 0 80 62 00
        E 0 90 61 60
        E 120 80 61 00
        E 0 90 55 60
        E 0 90 61 60
        E 120 80 55 00
        E 0 80 61 00
        E 0 90 60 60
        E 0 90 62 60
        E 120 80 60 00
        E 0 80 62 00
        E 0 90 3d 60
        E 0 90 49 60
        E 0 90 55 60
        E 0 90 61 60
        E 120 80 3d 00
        E 0 80 49 00
        E 0 80 55 00
        E 0 80 61 00
        E 0 90 61 60
        E 120 80 61 00
        E 0 90 54 60
        E 0 90 56 60
        E 0 90 60 60
        E 0 90 62 60
        E 120 80 54 00
        E 0 80 56 00
        E 0 80 60 00
        E 0 80 62 00
        E 120 90 3d 60
        E 0 90 49 60
        E 0 90 55 60
        E 0 90 61 60
        E 120 80 3d 00
        E 0 80 49 00
        E 0 80 55 00
        E 0 80 61 00
        E 0 90 61 60
        E 120 80 61 00
        E 0 90 55 60
        E 0 90 61 60
        E 120 80 55 00
        E 0 80 61 00
        E 0 90 61 60
        E 120 80 78 00
        E 0 80 79 00
        E 0 80 7a 00
        E 0 80 7b 00
        E 0 80 7c 00
        E 0 80 61 00
        E 0 90 40 60
        E 0 90 48 60
        E 0 90 4c 60
        E 0 90 54 60
        E 0 90 58 60
        E 0 90 60 60
        E 0 90 64 60
        E 80 80 40 00
        E 0 80 48 00
        E 0 80 4c 00
        E 0 80 54 00
        E 0 80 58 00
        E 0 80 60 00
        E 0 80 64 00
        E 160 90 54 60
        E 0 90 56 60
        E 0 90 60 60
        E 0 90 62 60
        E 80 80 54 00
        E 0 80 56 00
        E 0 80 60 00
        E 0 80 62 00
        E 160 90 3e 60
        E 0 90 4a 60
        E 0 90 56 60
        E 0 90 62 60
        E 80 80 3e 00
        E 0 80 4a 00
        E 0 80 56 00
        E 0 80 62 00
        E 0 90 60 60
        E 80 80 60 00
        E 0 90 60 60
        E 80 80 60 00
        E 0 90 55 60
        E 0 90 56 60
        E 0 90 61 60
        E 0 90 62 60
        E 80 80 55 00
        E 0 80 56 00
        E 0 80 61 00
        E 0 80 62 00
        E 160 90 3e 60
        E 0 90 4a 60
        E 0 90 56 60
        E 0 90 62 60
        E 80 80 3e 00
        E 0 80 4a 00
        E 0 80 56 00
        E 0 80 62 00
        E 160 90 54 60
        E 0 90 56 60
        E 0 90 60 60
        E 0 90 62 60
        E 80 80 54 00
        E 0 80 56 00
        E 0 80 60 00
        E 0 80 62 00
        E 160 90 3e 60
        E 0 90 48 60
        E 0 90 4a 60
        E 0 90 54 60
        E 0 90 56 60
        E 0 90 60 60
        E 0 90 62 60
        E 80 80 3e 00
        E 0 80 48 00
        E 0 80 4a 00
        E 0 80 54 00
        E 0 80 56 00
        E 0 80 60 00
        E 0 80 62 00
        E 160 90 54 60
        E 0 90 56 60
        E 0 90 60 60
        E 0 90 62 60
        E 80 80 54 00
        E 0 80 56 00
        E 0 80 60 00
        E 0 80 62 00
        E 160 90 3e 60
        E 0 90 4a 60
        E 0 90 56 60
        E 0 90 62 60
        E 80 80 3e 00
        E 0 80 4a 00
        E 0 80 56 00
        E 0 80 62 00
        E 0 90 60 60
        E 80 80 60 00
        E 0 90 60 60
        E 80 80 60 00
        E 0 90 55 60
        E 0 90 56 60
        E 0 90 61 60
        E 0 90 62 60
        E 80 80 55 00
        E 0 80 56 00
        E 0 80 61 00
        E 0 80 62 00
        E 160 90 3e 60
        E 0 90 48 60
        E 0 90 4a 60
        E 0 90 54 60
        E 0 90 56 60
        E 0 90 60 60
        E 0 90 62 60
        E 80 80 3e 00
        E 0 80 48 00
        E 0 80 4a 00
        E 0 80 54 00
        E 0 80 56 00
        E 0 80 60 00
        E 0 80 62 00
        E 160 90 54 60
        E 0 90 56 60
        E 0 90 60 60
        E 0 90 62 60
        E 80 80 54 00
        E 0 80 56 00
        E 0 80 60 00
        E 0 80 62 00
        E 160 90 3e 60
        E 0 90 48 60
        E 0 90 4a 60
        E 0 90 54 60
        E 0 90 56 60
        E 0 90 60 60
        E 0 90 62 60
        E 120 80 3e 00
        E 0 80 48 00
        E 0 80 4a 00
        E 0 80 54 00
        E 0 80 56 00
        E 0 80 60 00
        E 0 80 62 00
        E 0 90 61 60
        E 120 80 61 00
        E 0 90 55 60
        E 0 90 61 60
        E 120 80 55 00
        E 0 80 61 00
        E 0 90 60 60
        E 0 90 62 60
        E 120 80 60 00
        E 0 80 62 00
        E 0 90 3d 60
        E 0 90 49 60
        E 0 90 55 60
        E 0 90 61 60
        E 120 80 3d 00
        E 0 80 49 00
        E 0 80 55 00
        E 0 80 61 00
        E 0 90 61 60
        E 120 80 61 00
        E 0 90 54 60
        E 0 90 56 60
        E 0 90 60 60
        E 0 90 62 60
        E 120 80 54 00
        E 0 80 56 00
        E 0 80 60 00
        E 0 80 62 00
        E 0 90 61 60
        E 120 80 61 00
        E 0 90 3e 60
        E 0 90 48 60
        E 0 90 4a 60
        E 0 90 54 60
        E 0 90 56 60
        E 0 90 60 60
        E 0 90 62 60
        E 120 80 3e 00
        E 0 80 48 00
        E 0 80 4a 00
        E 0 80 54 00
        E 0 80 56 00
        E 0 80 60 00
        E 0 80 62 00
        E 0 90 61 60
        E 120 80 61 00
        E 0 90 54 60
        E 0 90 56 60
        E 0 90 60 60
        E 0 90 62 60
        E 120 80 54 00
        E 0 80 56 00
        E 0 80 60 00
        E 0 80 62 00
        E 120 90 3e 60
        E 0 90 48 60
        E 0 90 4a 60
        E 0 90 54 60
        E 0 90 56 60
        E 0 90 60 60
        E 0 90 62 60
        E 120 80 3e 00
        E 0 80 48 00
        E 0 80 4a 00
        E 0 80 54 00
        E 0 80 56 00
        E 0 80 60 00
        E 0 80 62 00
        E 0 90 61 60
        E 120 80 61 00
        E 0 90 55 60
        E 0 90 61 60
        E 120 80 55 00
        E 0 80 61 00
        E 0 90 60 60
        E 0 90 62 60
        E 120 80 60 00
        E 0 80 62 00
        E 0 90 3d 60
        E 0 90 49 60
        E 0 90 55 60
        E 0 90 61 60
        E 120 80 3d 00
        E 0 80 49 00
        E 0 80 55 00
        E 0 80 61 00
        E 0 90 61 60
        E 120 80 61 00
        E 0 90 54 60
        E 0 90 56 60
        E 0 90 60 60
        E 0 90 62 60
        E 120 80 54 00
        E 0 80 56 00
        E 0 80 60 00
        E 0 80 62 00
        E 120 90 3e 60
        E 0 90 48 60
        E 0 90 4a 60
        E 0 90 54 60
        E 0 90 56 60
        E 0 90 60 60
        E 0 90 62 60
        E 120 80 3e 00
        E 0 80 48 00
        E 0 80 4a 00
        E 0 80 54 00
        E 0 80 56 00
        E 0 80 60 00
        E 0 80 62 00
        E 0 90 61 60
        E 120 80 61 00
        E 0 90 54 60
        E 0 90 56 60
        E 0 90 60 60
        E 0 90 62 60
        E 120 80 54 00
        E 0 80 56 00
        E 0 80 60 00
        E 0 80 62 00
        E 120 90 40 60
        E 0 90 48 60
        E 0 90 4c 60
        E 0 90 54 60
        E 0 90 58 60
        E 0 90 60 60
        E 0 90 64 60
        E 80 80 40 00
        E 0 80 48 00
        E 0 80 4c 00
        E 0 80 54 00
        E 0 80 58 00
        E 0 80 60 00
        E 0 80 64 00
        E 160 90 54 60
        E 0 90 56 60
        E 0 90 60 60
        E 0 90 62 60
        E 80 80 54 00
        E 0 80 56 00
        E 0 80 60 00
        E 0 80 62 00
        E 160 90 3e 60
        E 0 90 4a 60
        E 0 90 56 60
        E 0 90 62 60
        E 80 80 3e 00
        E 0 80 4a 00
        E 0 80 56 00
        E 0 80 62 00
        E 0 90 60 60
        E 80 80 60 00
        E 0 90 60 60
        E 80 80 60 00
        E 0 90 55 60
        E 0 90 56 60
        E 0 90 61 60
        E 0 90 62 60
        E 80 80 55 00
        E 0 80 56 00
        E 0 80 61 00
        E 0 80 62 00
        E 160 90 3e 60
        E 0 90 4a 60
        E 0 90 56 60
        E 0 90 62 60
        E 80 80 3e 00
        E 0 80 4a 00
        E 0 80 56 00
        E 0 80 62 00
        E 160 90 54 60
        E 0 90 56 60
        E 0 90 60 60
        E 0 90 62 60
        E 80 80 54 00
        E 0 80 56 00
        E 0 80 60 00
        E 0 80 62 00
        E 160 90 3e 60
        E 0 90 48 60
        E 0 90 4a 60
        E 0 90 54 60
        E 0 90 56 60
        E 0 90 60 60
        E 0 90 62 60
        E 80 80 3e 00
        E 0 80 48 00
        E 0 80 4a 00
        E 0 80 54 00
        E 0 80 56 00
        E 0 80 60 00
        E 0 80 62 00
        E 160 90 54 60
        E 0 90 56 60
        E 0 90 60 60
        E 0 90 62 60
        E 80 80 54 00
        E 0 80 56 00
        E 0 80 60 00
        E 0 80 62 00
        E 160 90 3e 60
        E 0 90 4a 60
        E 0 90 56 60
        E 0 90 62 60
        E 80 80 3e 00
        E 0 80 4a 00
        E 0 80 56 00
        E 0 80 62 00
        E 0 90 60 60
        E 80 80 60 00
        E 0 90 60 60
        E 80 80 60 00
        E 0 90 55 60
        E 0 90 56 60
        E 0 90 61 60
        E 0 90 62 60
        E 80 80 55 00
        E 0 80 56 00
        E 0 80 61 00
        E 0 80 62 00
        E 160 90 3e 60
        E 0 90 48 60
        E 0 90 4a 60
        E 0 90 54 60
        E 0 90 56 60
        E 0 90 60 60
        E 0 90 62 60
        E 80 80 3e 00
        E 0 80 48 00
        E 0 80 4a 00
        E 0 80 54 00
        E 0 80 56 00
        E 0 80 60 00
        E 0 80 62 00
        E 160 90 54 60
        E 0 90 56 60
        E 0 90 60 60
        E 0 90 62 60
        E 80 80 54 00
        E 0 80 56 00
        E 0 80 60 00
        E 0 80 62 00
        E 160 90 3e 60
        E 0 90 48 60
        E 0 90 4a 60
        E 0 90 54 60
        E 0 90 56 60
        E 0 90 60 60
        E 0 90 62 60
        E 120 80 3e 00
        E 0 80 48 00
        E 0 80 4a 00
        E 0 80 54 00
        E 0 80 56 00
        E 0 80 60 00
        E 0 80 62 00
        E 0 90 61 60
        E 120 80 61 00
        E 0 90 55 60
        E 0 90 61 60
        E 120 80 55 00
        E 0 80 61 00
        E 0 90 60 60
        E 0 90 62 60
        E 120 80 60 00
        E 0 80 62 00
        E 0 90 3d 60
        E 0 90 49 60
        E 0 90 55 60
        E 0 90 61 60
        E 120 80 3d 00
        E 0 80 49 00
        E 0 80 55 00
        E 0 80 61 00
        E 0 90 61 60
        E 120 80 61 00
        E 0 90 54 60
        E 0 90 56 60
        E 0 90 60 60
        E 0 90 62 60
        E 120 80 54 00
        E 0 80 56 00
        E 0 80 60 00
        E 0 80 62 00
        E 120 90 3d 60
        E 0 90 49 60
        E 0 90 54 60
        E 0 90 55 60
        E 0 90 60 60
        E 0 90 61 60
        E 120 80 3d 00
        E 0 80 49 00
        E 0 80 54 00
        E 0 80 55 00
        E 0 80 60 00
        E 0 80 61 00
        E 0 90 61 60
        E 120 80 61 00
        E 0 90 54 60
        E 0 90 56 60
        E 0 90 60 60
        E 0 90 62 60
        E 0 90 6e 60
        E 120 80 54 00
        E 0 80 56 00
        E 0 80 60 00
        E 0 80 62 00
        E 0 80 6e 00
        E 120 90 3d 60
        E 0 90 49 60
        E 0 90 54 60
        E 0 90 55 60
        E 0 90 60 60
        E 0 90 61 60
        E 120 80 3d 00
        E 0 80 49 00
        E 0 80 54 00
        E 0 80 55 00
        E 0 80 60 00
        E 0 80 61 00
        E 0 90 61 60
        E 120 80 61 00
        E 0 90 54 60
        E 0 90 55 60
        E 0 90 60 60
        E 0 90 61 60
        E 120 80 54 00
        E 0 80 55 00
        E 0 80 60 00
        E 0 80 61 00
        E 0 90 61 60
        E 120 80 61 00
        E 0 90 3d 60
        E 0 90 49 60
        E 0 90 54 60
        E 0 90 55 60
        E 0 90 60 60
        E 0 90 61 60
        E 120 80 3d 00
        E 0 80 49 00
        E 0 80 54 00
        E 0 80 55 00
        E 0 80 60 00
        E 0 80 61 00
        E 0 90 61 60
        E 120 80 61 00
        E 0 90 54 60
        E 0 90 55 60
        E 0 90 60 60
        E 0 90 61 60
        E 120 80 54 00
        E 0 80 55 00
        E 0 80 60 00
        E 0 80 61 00
        E 0 90 61 60
        E 120 80 61 00
        E 0 90 3e 60
        E 0 90 4a 60
        E 0 90 54 60
        E 0 90 56 60
        E 0 90 60 60
        E 0 90 62 60
        E 0 90 6e 60
        E 120 80 3e 00
        E 0 80 4a 00
        E 0 80 54 00
        E 0 80 56 00
        E 0 80 60 00
        E 0 80 62 00
        E 0 80 6e 00
        E 0 90 62 60
        E 0 90 6e 60
        E 120 80 62 00
        E 0 80 6e 00
        E 0 90 54 60
        E 0 90 57 60
        E 0 90 60 60
        E 0 90 63 60
        E 0 90 6f 60
        E 120 80 54 00
        E 0 80 57 00
        E 0 80 60 00
        E 0 80 63 00
        E 0 80 6f 00
        E 0 90 63 60
        E 0 90 6f 60
        E 120 80 63 00
        E 0 80 6f 00
        E 0 90 40 60
        E 0 90 48 60
        E 0 90 4c 60
        E 0 90 54 60
        E 0 90 58 60
        E 0 90 60 60
        E 0 90 64 60
        E 0 90 74 60
        E 80 80 40 00
        E 0 80 48 00
        E 0 80 4c 00
        E 0 80 54 00
        E 0 80 58 00
        E 0 80 60 00
        E 0 80 64 00
        E 160 90 54 60
        E 0 90 57 60
        E 0 90 60 60
        E 0 90 63 60
        E 80 80 54 00
        E 0 80 57 00
        E 0 80 60 00
        E 0 80 63 00
        E 160 90 3f 60
        E 0 90 4b 60
        E 0 90 57 60
        E 0 90 63 60
        E 80 80 3f 00
        E 0 80 4b 00
        E 0 80 57 00
        E 0 80 63 00
        E 0 90 60 60
        E 80 80 60 00
        E 0 90 60 60
        E 80 80 60 00
        E 0 90 55 60
        E 0 90 57 60
        E 0 90 61 60
        E 0 90 63 60
        E 80 80 55 00
        E 0 80 57 00
        E 0 80 61 00
        E 0 80 63 00
        E 160 90 3f 60
        E 0 90 48 60
        E 0 90 4b 60
        E 0 90 54 60
        E 0 90 57 60
        E 0 90 60 60
        E 0 90 63 60
        E 80 80 3f 00
        E 0 80 48 00
        E 0 80 4b 00
        E 0 80 54 00
        E 0 80 57 00
        E 0 80 60 00
        E 0 80 63 00
        E 160 90 54 60
        E 0 90 57 60
        E 0 90 60 60
        E 0 90 63 60
        E 80 80 54 00
        E 0 80 57 00
        E 0 80 60 00
        E 0 80 63 00
        E 160 90 3f 60
        E 0 90 48 60
        E 0 90 4b 60
        E 0 90 54 60
        E 0 90 57 60
        E 0 90 60 60
        E 0 90 63 60
        E 80 80 3f 00
        E 0 80 48 00
        E 0 80 4b 00
        E 0 80 54 00
        E 0 80 57 00
        E 0 80 60 00
        E 0 80 63 00
        E 160 90 54 60
        E 0 90 57 60
        E 0 90 60 60
        E 0 90 63 60
        E 80 80 54 00
        E 0 80 57 00
        E 0 80 60 00
        E 0 80 63 00
        E 160 90 3f 60
        E 0 90 4b 60
        E 0 90 57 60
        E 0 90 63 60
        E 80 80 3f 00
        E 0 80 4b 00
        E 0 80 57 00
        E 0 80 63 00
        E 0 90 60 60
        E 80 80 60 00
        E 0 90 60 60
        E 80 80 60 00
        E 0 90 55 60
        E 0 90 57 60
        E 0 90 61 60
        E 0 90 63 60
        E 120 80 55 00
        E 0 80 57 00
        E 0 80 61 00
        E 0 80 63 00
        E 0 90 60 60
        E 120 80 60 00
        E 0 90 3d 60
        E 0 90 49 60
        E 0 90 55 60
        E 0 90 61 60
        E 120 80 3d 00
        E 0 80 49 00
        E 0 80 55 00
        E 0 80 61 00
        E 0 90 61 60
        E 120 80 61 00
        E 0 90 55 60
        E 0 90 61 60
        E 120 80 55 00
        E 0 80 61 00
        E 120 90 40 60
        E 0 90 48 60
        E 0 90 4c 60
        E 0 90 54 60
        E 0 90 58 60
        E 0 90 60 60
        E 0 90 64 60
        E 80 80 40 00
        E 0 80 48 00
        E 0 80 4c 00
        E 0 80 54 00
        E 0 80 58 00
        E 0 80 60 00
        E 0 80 64 00
        E 160 90 54 60
        E 0 90 57 60
        E 0 90 60 60
        E 0 90 63 60
        E 80 80 54 00
        E 0 80 57 00
        E 0 80 60 00
        E 0 80 63 00
        E 160 90 3f 60
        E 0 90 4b 60
        E 0 90 57 60
        E 0 90 63 60
        E 80 80 3f 00
        E 0 80 4b 00
        E 0 80 57 00
        E 0 80 63 00
        E 0 90 60 60
        E 80 80 60 00
        E 0 90 60 60
        E 80 80 60 00
        E 0 90 55 60
        E 0 90 57 60
        E 0 90 61 60
        E 0 90 63 60
        E 80 80 55 00
        E 0 80 57 00
        E 0 80 61 00
        E 0 80 63 00
        E 160 90 40 60
        E 0 90 48 60
        E 0 90 4c 60
        E 0 90 54 60
        E 0 90 58 60
        E 0 90 60 60
        E 0 90 64 60
        E 80 80 40 00
        E 0 80 48 00
        E 0 80 4c 00
        E 0 80 54 00
        E 0 80 58 00
        E 0 80 60 00
        E 0 80 64 00
        E 160 90 54 60
        E 0 90 56 60
        E 0 90 60 60
        E 0 90 62 60
        E 80 80 54 00
        E 0 80 56 00
        E 0 80 60 00
        E 0 80 62 00
        E 160 90 40 60
        E 0 90 48 60
        E 0 90 4c 60
        E 0 90 54 60
        E 0 90 58 60
        E 0 90 60 60
        E 0 90 64 60
        E 80 80 40 00
        E 0 80 48 00
        E 0 80 4c 00
        E 0 80 54 00
        E 0 80 58 00
        E 0 80 60 00
        E 0 80 64 00
        E 160 90 54 60
        E 0 90 57 60
        E 0 90 60 60
        E 0 90 63 60
        E 80 80 54 00
        E 0 80 57 00
        E 0 80 60 00
        E 0 80 63 00
        E 160 90 3f 60
        E 0 90 4b 60
        E 0 90 57 60
        E 0 90 63 60
        E 80 80 3f 00
        E 0 80 4b 00
        E 0 80 57 00
        E 0 80 63 00
        E 0 90 60 60
        E 80 80 60 00
        E 0 90 60 60
        E 80 80 60 00
        E 0 90 55 60
        E 0 90 57 60
        E 0 90 61 60
        E 0 90 63 60
        E 80 80 55 00
        E 0 80 57 00
        E 0 80 61 00
        E 0 80 63 00
        E 160 90 3f 60
        E 0 90 4b 60
        E 0 90 57 60
        E 0 90 63 60
        E 80 80 3f 00
        E 0 80 4b 00
        E 0 80 57 00
        E 0 80 63 00
        E 40 90 61 60
        E 120 80 61 00
        E 0 90 57 60
        E 0 90 63 60
        E 80 80 57 00
        E 0 80 63 00
        E 160 80 74 00
        E 0 90 40 60
        E 0 90 48 60
        E 0 90 4c 60
        E 0 90 54 60
        E 0 90 58 60
        E 0 90 60 60
        E 0 90 64 60
        E 80 80 40 00
        E 0 80 48 00
        E 0 80 4c 00
        E 0 80 54 00
        E 0 80 58 00
        E 0 80 60 00
        E 0 80 64 00
        E 160 90 54 60
        E 0 90 57 60
        E 0 90 60 60
        E 0 90 63 60
        E 80 80 54 00
        E 0 80 57 00
        E 0 80 60 00
        E 0 80 63 00
        E 160 90 3f 60
        E 0 90 4b 60
        E 0 90 57 60
        E 0 90 63 60
        E 80 80 3f 00
        E 0 80 4b 00
        E 0 80 57 00
        E 0 80 63 00
        E 0 90 60 60
        E 80 80 60 00
        E 0 90 60 60
        E 80 80 60 00
        E 0 90 55 60
        E 0 90 57 60
        E 0 90 61 60
        E 0 90 63 60
        E 80 80 55 00
        E 0 80 57 00
        E 0 80 61 00
        E 0 80 63 00
        E 160 90 3f 60
        E 0 90 48 60
        E 0 90 4b 60
        E 0 90 54 60
        E 0 90 57 60
        E 0 90 60 60
        E 0 90 63 60
        E 80 80 3f 00
        E 0 80 48 00
        E 0 80 4b 00
        E 0 80 54 00
        E 0 80 57 00
        E 0 80 60 00
        E 0 80 63 00
        E 160 90 54 60
        E 0 90 57 60
        E 0 90 60 60
        E 0 90 63 60
        E 80 80 54 00
        E 0 80 57 00
        E 0 80 60 00
        E 0 80 63 00
        E 160 90 3f 60
        E 0 90 48 60
        E 0 90 4b 60
        E 0 90 54 60
        E 0 90 57 60
        E 0 90 60 60
        E 0 90 63 60
        E 80 80 3f 00
        E 0 80 48 00
        E 0 80 4b 00
        E 0 80 54 00
        E 0 80 57 00
        E 0 80 60 00
        E 0 80 63 00
        E 160 90 54 60
        E 0 90 57 60
        E 0 90 60 60
        E 0 90 63 60
        E 80 80 54 00
        E 0 80 57 00
        E 0 80 60 00
        E 0 80 63 00
        E 160 90 3f 60
        E 0 90 4b 60
        E 0 90 57 60
        E 0 90 63 60
        E 80 80 3f 00
        E 0 80 4b 00
        E 0 80 57 00
        E 0 80 63 00
        E 0 90 60 60
        E 80 80 60 00
        E 0 90 60 60
        E 80 80 60 00
        E 0 90 55 60
        E 0 90 57 60
        E 0 90 61 60
        E 0 90 63 60
        E 80 80 55 00
        E 0 80 57 00
        E 0 80 61 00
        E 0 80 63 00
        E 40 90 60 60
        E 120 80 60 00
        E 0 90 3d 60
        E 0 90 49 60
        E 0 90 55 60
        E 0 90 61 60
        E 80 80 3d 00
        E 0 80 49 00
        E 0 80 55 00
        E 0 80 61 00
        E 0 90 61 60
        E 80 80 61 00
        E 0 90 61 60
        E 80 80 61 00
        E 0 90 55 60
        E 0 90 61 60
        E 80 80 55 00
        E 0 80 61 00
        E 0 90 61 60
        E 80 80 61 00
        E 0 90 61 60
        E 80 80 61 00
        E 0 90 40 60
        E 0 90 48 60
        E 0 90 4c 60
        E 0 90 54 60
        E 0 90 58 60
        E 0 90 60 60
        E 0 90 64 60
        E 120 80 40 00
        E 0 80 48 00
        E 0 80 4c 00
        E 0 80 54 00
        E 0 80 58 00
        E 0 80 60 00
        E 0 80 64 00
        E 120 90 55 60
        E 0 90 57 60
        E 0 90 61 60
        E 0 90 63 60
        E 120 80 55 00
        E 0 80 57 00
        E 0 80 61 00
        E 0 80 63 00
        E 0 90 60 60
        E 120 80 60 00
        E 0 90 3f 60
        E 0 90 4b 60
        E 0 90 57 60
        E 0 90 63 60
        E 80 80 3f 00
        E 0 80 4b 00
        E 0 80 57 00
        E 0 80 63 00
        E 40 90 60 60
        E 120 80 60 00
        E 0 90 55 60
        E 0 90 58 60
        E 0 90 61 60
        E 0 90 64 60
        E 120 80 55 00
        E 0 80 58 00
        E 0 80 61 00
        E 0 80 64 00
        E 360 90 54 60
        E 0 90 57 60
        E 0 90 60 60
        E 0 90 63 60
        E 120 80 54 00
        E 0 80 57 00
        E 0 80 60 00
        E 0 80 63 00
        E 120 90 40 60
        E 0 90 48 60
        E 0 90 4c 60
        E 0 90 54 60
        E 0 90 58 60
        E 0 90 60 60
        E 0 90 64 60
        E 120 80 40 00
        E 0 80 48 00
        E 0 80 4c 00
        E 0 80 54 00
        E 0 80 58 00
        E 0 80 60 00
        E 0 80 64 00
        E 120 90 54 60
        E 0 90 57 60
        E 0 90 60 60
        E 0 90 63 60
        E 120 80 54 00
        E 0 80 57 00
        E 0 80 60 00
        E 0 80 63 00
        E 0 90 60 60
        E 120 80 60 00
        E 0 90 3f 60
        E 0 90 4b 60
        E 0 90 57 60
        E 0 90 63 60
        E 120 80 3f 00
        E 0 80 4b 00
        E 0 80 57 00
        E 0 80 63 00
        E 0 90 60 60
        E 120 80 60 00
        E 0 90 55 60
        E 0 90 57 60
        E 0 90 61 60
        E 0 90 63 60
        E 120 80 55 00
        E 0 80 57 00
        E 0 80 61 00
        E 0 80 63 00
        E 0 90 60 60
        E 120 80 60 00
        E 0 90 3f 60
        E 0 90 4b 60
        E 0 90 57 60
        E 0 90 63 60
        E 120 80 3f 00
        E 0 80 4b 00
        E 0 80 57 00
        E 0 80 63 00
        E 0 90 61 60
        E 60 80 61 00
        E 0 90 61 60
        E 60 80 61 00
        E 0 90 55 60
        E 0 90 61 60
        E 60 80 55 00
        E 0 80 61 00
        E 0 90 61 60
        E 60 80 61 00
        E 0 90 61 60
        E 60 80 61 00
        E 0 90 61 60
        E 60 80 61 00
        E 0 90 40 60
        E 0 90 48 60
        E 0 90 4c 60
        E 0 90 54 60
        E 0 90 58 60
        E 0 90 60 60
        E 0 90 64 60
        E 60 80 40 00
        E 0 80 48 00
        E 0 80 4c 00
        E 0 80 54 00
        E 0 80 58 00
        E 0 80 60 00
        E 0 80 64 00
        E 180 90 54 60
        E 0 90 57 60
        E 0 90 60 60
        E 0 90 63 60
        E 60 80 54 00
        E 0 80 57 00
        E 0 80 60 00
        E 0 80 63 00
        E 180 90 3f 60
        E 0 90 4b 60
        E 0 90 57 60
        E 0 90 63 60
        E 60 80 3f 00
        E 0 80 4b 00
        E 0 80 57 00
        E 0 80 63 00
        E 20 90 60 60
        E 80 80 60 00
        E 0 90 60 60
        E 80 80 60 00
        E 0 90 55 60
        E 0 90 58 60
        E 0 90 61 60
        E 0 90 64 60
        E 60 80 55 00
        E 0 80 58 00
        E 0 80 61 00
        E 0 80 64 00
        E 420 90 54 60
        E 0 90 57 60
        E 0 90 60 60
        E 0 90 63 60
        E 60 80 54 00
        E 0 80 57 00
        E 0 80 60 00
        E 0 80 63 00
        E 180 90 40 60
        E 0 90 48 60
        E 0 90 4c 60
        E 0 90 54 60
        E 0 90 58 60
        E 0 90 60 60
        E 0 90 64 60
        E 0 90 78 60
        E 0 90 79 60
        E 0 90 7a 60
        E 0 90 7b 60
        E 0 90 7c 60
        E 120 80 40 00
        E 0 80 48 00
        E 0 80 4c 00
        E 0 80 54 00
        E 0 80 58 00
        E 0 80 60 00
        E 0 80 64 00
        E 120 90 55 60
        E 0 90 61 60
        E 120 80 55 00
        E 0 80 61 00
        E 0 90 61 60
        E 120 80 61 00
        E 0 90 3f 60
        E 0 90 4b 60
        E 0 90 54 60
        E 0 90 57 60
        E 0 90 60 60
        E 0 90 63 60
        E 0 90 6f 60
        E 120 80 3f 00
        E 0 80 4b 00
        E 0 80 54 00
        E 0 80 57 00
        E 0 80 60 00
        E 0 80 63 00
        E 0 80 6f 00
        E 120 90 54 60
        E 0 90 55 60
        E 0 90 60 60
        E 0 90 61 60
        E 120 80 54 00
        E 0 80 55 00
        E 0 80 60 00
        E 0 80 61 00
        E 0 90 61 60
        E 120 80 61 00
        E 0 90 3e 60
        E 0 90 4a 60
        E 0 90 54 60
        E 0 90 56 60
        E 0 90 60 60
        E 0 90 62 60
        E 0 90 6e 60
        E 120 80 3e 00
        E 0 80 4a 00
        E 0 80 54 00
        E 0 80 56 00
        E 0 80 60 00
        E 0 80 62 00
        E 0 80 6e 00
        E 0 90 62 60
        E 0 90 6e 60
        E 120 80 62 00
        E 0 80 6e 00
        E 0 90 54 60
        E 0 90 57 60
        E 0 90 60 60
        E 0 90 63 60
        E 0 90 6f 60
        E 120 80 54 00
        E 0 80 57 00
        E 0 80 60 00
        E 0 80 63 00
        E 0 80 6f 00
        E 0 90 63 60
        E 0 90 6f 60
        E 120 80 78 00
        E 0 80 79 00
        E 0 80 7a 00
        E 0 80 7b 00
        E 0 80 7c 00
        E 0 80 63 00
        E 0 80 6f 00
        E 0 90 40 60
        E 0 90 48 60
        E 0 90 4c 60
        E 0 90 54 60
        E 0 90 58 60
        E 0 90 60 60
        E 0 90 64 60
        E 80 80 40 00
        E 0 80 48 00
        E 0 80 4c 00
        E 0 80 54 00
        E 0 80 58 00
        E 0 80 60 00
        E 0 80 64 00
        E 160 90 54 60
        E 0 90 57 60
        E 0 90 60 60
        E 0 90 63 60
        E 80 80 54 00
        E 0 80 57 00
        E 0 80 60 00
        E 0 80 63 00
        E 160 90 3f 60
        E 0 90 4b 60
        E 0 90 57 60
        E 0 90 63 60
        E 80 80 3f 00
        E 0 80 4b 00
        E 0 80 57 00
        E 0 80 63 00
        E 0 90 60 60
        E 80 80 60 00
        E 0 90 60 60
        E 80 80 60 00
        E 0 90 55 60
        E 0 90 57 60
        E 0 90 61 60
        E 0 90 63 60
        E 80 80 55 00
        E 0 80 57 00
        E 0 80 61 00
        E 0 80 63 00
        E 160 90 3f 60
        E 0 90 4b 60
        E 0 90 57 60
        E 0 90 63 60
        E 80 80 3f 00
        E 0 80 4b 00
        E 0 80 57 00
        E 0 80 63 00
        E 160 90 54 60
        E 0 90 57 60
        E 0 90 60 60
        E 0 90 63 60
        E 80 80 54 00
        E 0 80 57 00
        E 0 80 60 00
        E 0 80 63 00
        E 160 90 3f 60
        E 0 90 48 60
        E 0 90 4b 60
        E 0 90 54 60
        E 0 90 57 60
        E 0 90 60 60
        E 0 90 63 60
        E 80 80 3f 00
        E 0 80 48 00
        E 0 80 4b 00
        E 0 80 54 00
        E 0 80 57 00
        E 0 80 60 00
        E 0 80 63 00
        E 160 90 54 60
        E 0 90 57 60
        E 0 90 60 60
        E 0 90 63 60
        E 80 80 54 00
        E 0 80 57 00
        E 0 80 60 00
        E 0 80 63 00
        E 160 90 3f 60
        E 0 90 4b 60
        E 0 90 57 60
        E 0 90 63 60
        E 80 80 3f 00
        E 0 80 4b 00
        E 0 80 57 00
        E 0 80 63 00
        E 0 90 60 60
        E 80 80 60 00
        E 0 90 60 60
        E 80 80 60 00
        E 0 90 55 60
        E 0 90 57 60
        E 0 90 61 60
        E 0 90 63 60
        E 80 80 55 00
        E 0 80 57 00
        E 0 80 61 00
        E 0 80 63 00
        E 160 90 3f 60
        E 0 90 4b 60
        E 0 90 57 60
        E 0 90 63 60
        E 80 80 3f 00
        E 0 80 4b 00
        E 0 80 57 00
        E 0 80 63 00
        E 160 90 54 60
        E 0 90 57 60
        E 0 90 60 60
        E 0 90 63 60
        E 80 80 54 00
        E 0 80 57 00
        E 0 80 60 00
        E 0 80 63 00
        E 160 90 40 60
        E 0 90 48 60
        E 0 90 4c 60
        E 0 90 54 60
        E 0 90 58 60
        E 0 90 60 60
        E 0 90 64 60
        E 80 80 40 00
        E 0 80 48 00
        E 0 80 4c 00
        E 0 80 54 00
        E 0 80 58 00
        E 0 80 60 00
        E 0 80 64 00
        E 160 90 54 60
        E 0 90 58 60
        E 0 90 60 60
        E 0 90 64 60
        E 80 80 54 00
        E 0 80 58 00
        E 0 80 60 00
        E 0 80 64 00
        E 160 90 40 60
        E 0 90 48 60
        E 0 90 4c 60
        E 0 90 54 60
        E 0 90 58 60
        E 0 90 60 60
        E 0 90 64 60
        E 80 80 40 00
        E 0 80 48 00
        E 0 80 4c 00
        E 0 80 54 00
        E 0 80 58 00
        E 0 80 60 00
        E 0 80 64 00
        E 160 90 54 60
        E 0 90 55 60
        E 0 90 58 60
        E 0 90 60 60
        E 0 90 61 60
        E 0 90 64 60
        E 80 80 54 00
        E 0 80 55 00
        E 0 80 58 00
        E 0 80 60 00
        E 0 80 61 00
        E 0 80 64 00
        E 160 90 40 60
        E 0 90 48 60
        E 0 90 4c 60
        E 0 90 54 60
        E 0 90 58 60
        E 0 90 60 60
        E 0 90 64 60
        E 80 80 40 00
        E 0 80 48 00
        E 0 80 4c 00
        E 0 80 54 00
        E 0 80 58 00
        E 0 80 60 00
        E 0 80 64 00
        E 160 90 54 60
        E 0 90 58 60
        E 0 90 60 60
        E 0 90 64 60
        E 80 80 54 00
        E 0 80 58 00
        E 0 80 60 00
        E 0 80 64 00
        E 160 90 3d 60
        E 0 90 49 60
        E 0 90 4c 60
        E 0 90 54 60
        E 0 90 55 60
        E 0 90 58 60
        E 0 90 60 60
        E 0 90 61 60
        E 0 90 64 60
        E 0 90 78 60
        E 0 90 79 60
        E 0 90 7a 60
        E 0 90 7b 60
        E 0 90 7c 60
        E 80 80 3d 00
        E 0 80 49 00
        E 0 80 4c 00
        E 0 80 54 00
        E 0 80 55 00
        E 0 80 58 00
        E 0 80 60 00
        E 0 80 61 00
        E 0 80 64 00
        E 160 90 54 60
        E 0 90 58 60
        E 0 90 60 60
        E 0 90 64 60
        E 80 80 54 00
        E 0 80 58 00
        E 0 80 60 00
        E 0 80 64 00
        E 160 90 3d 60
        E 0 90 49 60
        E 0 90 4c 60
        E 0 90 54 60
        E 0 90 55 60
        E 0 90 58 60
        E 0 90 60 60
        E 0 90 61 60
        E 0 90 64 60
        E 80 80 3d 00
        E 0 80 49 00
        E 0 80 4c 00
        E 0 80 54 00
        E 0 80 55 00
        E 0 80 58 00
        E 0 80 60 00
        E 0 80 61 00
        E 0 80 64 00
        E 160 90 54 60
        E 0 90 58 60
        E 0 90 60 60
        E 0 90 64 60
        E 80 80 54 00
        E 0 80 58 00
        E 0 80 60 00
        E 0 80 64 00
        E 160 90 3d 60
        E 0 90 49 60
        E 0 90 4c 60
        E 0 90 54 60
        E 0 90 55 60
        E 0 90 58 60
        E 0 90 60 60
        E 0 90 61 60
        E 0 90 64 60
        E 80 80 3d 00
        E 0 80 49 00
        E 0 80 4c 00
        E 0 80 54 00
        E 0 80 55 00
        E 0 80 58 00
        E 0 80 60 00
        E 0 80 61 00
        E 0 80 64 00
        E 160 90 54 60
        E 0 90 58 60
        E 0 90 60 60
        E 0 90 64 60
        E 80 80 54 00
        E 0 80 58 00
        E 0 80 60 00
        E 0 80 64 00
        E 160 80 78 00
        E 0 80 79 00
        E 0 80 7a 00
        E 0 80 7b 00
        E 0 80 7c 00
        E 0 90 40 60
        E 0 90 48 60
        E 0 90 4c 60
        E 0 90 54 60
        E 0 90 58 60
        E 0 90 60 60
        E 0 90 64 60
        E 120 80 40 00
        E 0 80 48 00
        E 0 80 4c 00
        E 0 80 54 00
        E 0 80 58 00
        E 0 80 60 00
        E 0 80 64 00
        E 240 90 54 60
        E 0 90 57 60
        E 0 90 60 60
        E 0 90 63 60
        E 120 80 54 00
        E 0 80 57 00
        E 0 80 60 00
        E 0 80 63 00
        E 240 90 3d 60
        E 0 90 49 60
        E 0 90 4c 60
        E 0 90 54 60
        E 0 90 55 60
        E 0 90 58 60
        E 0 90 60 60
        E 0 90 61 60
        E 0 90 64 60
        E 120 80 3d 00
        E 0 80 49 00
        E 0 80 4c 00
        E 0 80 54 00
        E 0 80 55 00
        E 0 80 58 00
        E 0 80 60 00
        E 0 80 61 00
        E 0 80 64 00
        E 360 90 54 60
        E 0 90 57 60
        E 0 90 60 60
        E 0 90 63 60
        E 120 80 54 00
        E 0 80 57 00
        E 0 80 60 00
        E 0 80 63 00
        E 120 90 3f 60
        E 0 90 48 60
        E 0 90 4b 60
        E 0 90 54 60
        E 0 90 57 60
        E 0 90 60 60
        E 0 90 63 60
        E 120 80 3f 00
        E 0 80 48 00
        E 0 80 4b 00
        E 0 80 54 00
        E 0 80 57 00
        E 0 80 60 00
        E 0 80 63 00
        E 120 90 54 60
        E 0 90 55 60
        E 0 90 60 60
        E 0 90 61 60
        E 120 80 54 00
        E 0 80 55 00
        E 0 80 60 00
        E 0 80 61 00
        E 0 90 61 60
        E 120 80 61 00
        E 0 90 3d 60
        E 0 90 49 60
        E 0 90 54 60
        E 0 90 55 60
        E 0 90 60 60
        E 0 90 61 60
        E 120 80 3d 00
        E 0 80 49 00
        E 0 80 54 00
        E 0 80 55 00
        E 0 80 60 00
        E 0 80 61 00
        E 0 90 61 60
        E 120 80 61 00
        E 0 90 54 60
        E 0 90 55 60
        E 0 90 60 60
        E 0 90 61 60
        E 120 80 54 00
        E 0 80 55 00
        E 0 80 60 00
        E 0 80 61 00
        E 0 90 61 60
        E 120 80 61 00
        E 0 90 3e 60
        E 0 90 4a 60
        E 0 90 54 60
        E 0 90 56 60
        E 0 90 60 60
        E 0 90 62 60
        E 0 90 6e 60
        E 120 80 3e 00
        E 0 80 4a 00
        E 0 80 54 00
        E 0 80 56 00
        E 0 80 60 00
        E 0 80 62 00
        E 0 80 6e 00
        E 0 90 62 60
        E 0 90 6e 60
        E 120 80 62 00
        E 0 80 6e 00
        E 0 90 54 60
        E 0 90 57 60
        E 0 90 60 60
        E 0 90 63 60
        E 0 90 6f 60
        E 120 80 54 00
        E 0 80 57 00
        E 0 80 60 00
        E 0 80 63 00
        E 0 80 6f 00
        E 0 90 63 60
        E 0 90 6f 60
        E 120 80 63 00
        E 0 80 6f 00
        E 0 90 40 60
        E 0 90 48 60
        E 0 90 4c 60
        E 0 90 54 60
        E 0 90 58 60
        E 0 90 60 60
        E 0 90 64 60
        E 60 80 40 00
        E 0 80 48 00
        E 0 80 4c 00
        E 0 80 54 00
        E 0 80 58 00
        E 0 80 60 00
        E 0 80 64 00
        E 180 90 54 60
        E 0 90 57 60
        E 0 90 60 60
        E 0 90 63 60
        E 60 80 54 00
        E 0 80 57 00
        E 0 80 60 00
        E 0 80 63 00
        E 180 90 3f 60
        E 0 90 4b 60
        E 0 90 57 60
        E 0 90 63 60
        E 60 80 3f 00
        E 0 80 4b 00
        E 0 80 57 00
        E 0 80 63 00
        E 20 90 60 60
        E 80 80 60 00
        E 0 90 60 60
        E 80 80 60 00
        E 0 90 55 60
        E 0 90 58 60
        E 0 90 61 60
        E 0 90 64 60
        E 60 80 55 00
        E 0 80 58 00
        E 0 80 61 00
        E 0 80 64 00
        E 420 90 54 60
        E 0 90 57 60
        E 0 90 60 60
        E 0 90 63 60
        E 60 80 54 00
        E 0 80 57 00
        E 0 80 60 00
        E 0 80 63 00
        E 180 90 40 60
        E 0 90 48 60
        E 0 90 4c 60
        E 0 90 54 60
        E 0 90 58 60
        E 0 90 60 60
        E 0 90 64 60
        E 120 80 40 00
        E 0 80 48 00
        E 0 80 4c 00
        E 0 80 54 00
        E 0 80 58 00
        E 0 80 60 00
        E 0 80 64 00
        E 120 90 55 60
        E 0 90 61 60
        E 80 80 55 00
        E 0 80 61 00
        E 0 90 61 60
        E 80 80 61 00
        E 0 90 61 60
        E 80 80 61 00
        E 0 90 3d 60
        E 0 90 49 60
        E 0 90 55 60
        E 0 90 61 60
        E 80 80 3d 00
        E 0 80 49 00
        E 0 80 55 00
        E 0 80 61 00
        E 0 90 61 60
        E 80 80 61 00
        E 0 90 61 60
        E 80 80 61 00
        E 0 90 54 60
        E 0 90 58 60
        E 0 90 60 60
        E 0 90 64 60
        E 120 80 54 00
        E 0 80 58 00
        E 0 80 60 00
        E 0 80 64 00
        E 120 90 3d 60
        E 0 90 49 60
        E 0 90 54 60
        E 0 90 55 60
        E 0 90 60 60
        E 0 90 61 60
        E 120 80 3d 00
        E 0 80 49 00
        E 0 80 54 00
        E 0 80 55 00
        E 0 80 60 00
        E 0 80 61 00
        E 0 90 61 60
        E 120 80 61 00
        E 0 90 54 60
        E 0 90 55 60
        E 0 90 60 60
        E 0 90 61 60
        E 120 80 54 00
        E 0 80 55 00
        E 0 80 60 00
        E 0 80 61 00
        E 0 90 61 60
        E 120 80 61 00
        E 0 90 40 60
        E 0 90 48 60
        E 0 90 4c 60
        E 0 90 54 60
        E 0 90 58 60
        E 0 90 60 60
        E 0 90 64 60
        E 0 90 74 60
        E 80 80 40 00
        E 0 80 48 00
        E 0 80 4c 00
        E 0 80 54 00
        E 0 80 58 00
        E 0 80 60 00
        E 0 80 64 00
        E 160 90 54 60
        E 0 90 57 60
        E 0 90 60 60
        E 0 90 63 60
        E 80 80 54 00
        E 0 80 57 00
        E 0 80 60 00
        E 0 80 63 00
        E 160 90 3f 60
        E 0 90 4b 60
        E 0 90 57 60
        E 0 90 63 60
        E 80 80 3f 00
        E 0 80 4b 00
        E 0 80 57 00
        E 0 80 63 00
        E 0 90 60 60
        E 80 80 60 00
        E 0 90 60 60
        E 80 80 60 00
        E 0 90 55 60
        E 0 90 58 60
        E 0 90 61 60
        E 0 90 64 60
        E 80 80 55 00
        E 0 80 58 00
        E 0 80 61 00
        E 0 80 64 00
        E 400 90 54 60
        E 0 90 57 60
        E 0 90 60 60
        E 0 90 63 60
        E 80 80 54 00
        E 0 80 57 00
        E 0 80 60 00
        E 0 80 63 00
        E 160 90 40 60
        E 0 90 48 60
        E 0 90 4c 60
        E 0 90 54 60
        E 0 90 58 60
        E 0 90 60 60
        E 0 90 64 60
        E 80 80 40 00
        E 0 80 48 00
        E 0 80 4c 00
        E 0 80 54 00
        E 0 80 58 00
        E 0 80 60 00
        E 0 80 64 00
        E 160 90 54 60
        E 0 90 57 60
        E 0 90 60 60
        E 0 90 63 60
        E 80 80 54 00
        E 0 80 57 00
        E 0 80 60 00
        E 0 80 63 00
        E 160 90 3f 60
        E 0 90 4b 60
        E 0 90 57 60
        E 0 90 63 60
        E 80 80 3f 00
        E 0 80 4b 00
        E 0 80 57 00
        E 0 80 63 00
        E 0 90 60 60
        E 80 80 60 00
        E 0 90 60 60
        E 80 80 60 00
        E 0 90 55 60
        E 0 90 58 60
        E 0 90 61 60
        E 0 90 64 60
        E 80 80 55 00
        E 0 80 58 00
        E 0 80 61 00
        E 0 80 64 00
        E 160 90 3f 60
        E 0 90 4b 60
        E 0 90 57 60
        E 0 90 63 60
        E 80 80 3f 00
        E 0 80 4b 00
        E 0 80 57 00
        E 0 80 63 00
        E 160 90 54 60
        E 0 90 57 60
        E 0 90 60 60
        E 0 90 63 60
        E 80 80 54 00
        E 0 80 57 00
        E 0 80 60 00
        E 0 80 63 00
        E 160 90 40 60
        E 0 90 48 60
        E 0 90 4c 60
        E 0 90 54 60
        E 0 90 58 60
        E 0 90 60 60
        E 0 90 64 60
        E 80 80 40 00
        E 0 80 48 00
        E 0 80 4c 00
        E 0 80 54 00
        E 0 80 58 00
        E 0 80 60 00
        E 0 80 64 00
        E 160 90 54 60
        E 0 90 57 60
        E 0 90 60 60
        E 0 90 63 60
        E 80 80 54 00
        E 0 80 57 00
        E 0 80 60 00
        E 0 80 63 00
        E 160 90 3f 60
        E 0 90 4b 60
        E 0 90 57 60
        E 0 90 63 60
        E 80 80 3f 00
        E 0 80 4b 00
        E 0 80 57 00
        E 0 80 63 00
        E 0 90 60 60
        E 80 80 60 00
        E 0 90 60 60
        E 80 80 60 00
        E 0 90 55 60
        E 0 90 58 60
        E 0 90 61 60
        E 0 90 64 60
        E 80 80 55 00
        E 0 80 58 00
        E 0 80 61 00
        E 0 80 64 00
        E 160 90 3f 60
        E 0 90 4b 60
        E 0 90 57 60
        E 0 90 63 60
        E 80 80 3f 00
        E 0 80 4b 00
        E 0 80 57 00
        E 0 80 63 00
        E 160 90 54 60
        E 0 90 57 60
        E 0 90 60 60
        E 0 90 63 60
        E 80 80 54 00
        E 0 80 57 00
        E 0 80 60 00
        E 0 80 63 00
        E 160 90 40 60
        E 0 90 48 60
        E 0 90 4c 60
        E 0 90 54 60
        E 0 90 58 60
        E 0 90 60 60
        E 0 90 64 60
        E 80 80 40 00
        E 0 80 48 00
        E 0 80 4c 00
        E 0 80 54 00
        E 0 80 58 00
        E 0 80 60 00
        E 0 80 64 00
        E 160 90 54 60
        E 0 90 55 60
        E 0 90 60 60
        E 0 90 61 60
        E 120 80 54 00
        E 0 80 55 00
        E 0 80 60 00
        E 0 80 61 00
        E 0 90 60 60
        E 0 90 61 60
        E 120 80 60 00
        E 0 80 61 00
        E 0 90 3d 60
        E 0 90 49 60
        E 0 90 54 60
        E 0 90 55 60
        E 0 90 60 60
        E 0 90 61 60
        E 120 80 3d 00
        E 0 80 49 00
        E 0 80 54 00
        E 0 80 55 00
        E 0 80 60 00
        E 0 80 61 00
        E 0 90 60 60
        E 0 90 61 60
        E 120 80 60 00
        E 0 80 61 00
        E 0 90 54 60
        E 0 90 55 60
        E 0 90 60 60
        E 0 90 61 60
        E 120 80 54 00
        E 0 80 55 00
        E 0 80 60 00
        E 0 80 61 00
        E 0 90 60 60
        E 0 90 61 60
        E 120 80 60 00
        E 0 80 61 00
        E 0 90 3e 60
        E 0 90 3f 60
        E 0 90 4a 60
        E 0 90 4b 60
        E 0 90 54 60
        E 0 90 56 60
        E 0 90 57 60
        E 0 90 60 60
        E 0 90 62 60
        E 0 90 63 60
        E 0 90 6e 60
        E 0 90 6f 60
        E 120 80 3e 00
        E 0 80 3f 00
        E 0 80 4a 00
        E 0 80 4b 00
        E 0 80 54 00
        E 0 80 56 00
        E 0 80 57 00
        E 0 80 60 00
        E 0 80 62 00
        E 0 80 63 00
        E 0 80 6e 00
        E 0 80 6f 00
        E 0 90 60 60
        E 120 80 60 00
        E 0 90 54 60
        E 0 90 56 60
        E 0 90 57 60
        E 0 90 60 60
        E 0 90 62 60
        E 0 90 63 60
        E 0 90 6e 60
        E 0 90 6f 60
        E 120 80 54 00
        E 0 80 56 00
        E 0 80 57 00
        E 0 80 60 00
        E 0 80 62 00
        E 0 80 63 00
        E 0 80 6e 00
        E 0 80 6f 00
        E 0 90 60 60
        E 120 80 74 00
        E 0 80 60 00
        E 0 90 3e 60
        E 0 90 3f 60
        E 0 90 4a 60
        E 0 90 4b 60
        E 0 90 54 60
        E 0 90 56 60
        E 0 90 57 60
        E 0 90 60 60
        E 0 90 62 60
        E 0 90 63 60
        E 0 90 6e 60
        E 0 90 6f 60
        E 120 80 3e 00
        E 0 80 3f 00
        E 0 80 4a 00
        E 0 80 4b 00
        E 0 80 54 00
        E 0 80 56 00
        E 0 80 57 00
        E 0 80 60 00
        E 0 80 62 00
        E 0 80 63 00
        E 0 80 6e 00
        E 0 80 6f 00
        E 0 90 60 60
        E 120 80 60 00
        E 0 90 54 60
        E 0 90 60 60
        E 120 80 54 00
        E 0 80 60 00
        E 0 90 60 60
        E 120 80 60 00
        E 0 90 3e 60
        E 0 90 3f 60
        E 0 90 4a 60
        E 0 90 4b 60
        E 0 90 54 60
        E 0 90 56 60
        E 0 90 57 60
        E 0 90 60 60
        E 0 90 62 60
        E 0 90 63 60
        E 0 90 6e 60
        E 0 90 6f 60
        E 120 80 3e 00
        E 0 80 3f 00
        E 0 80 4a 00
        E 0 80 4b 00
        E 0 80 54 00
        E 0 80 56 00
        E 0 80 57 00
        E 0 80 60 00
        E 0 80 62 00
        E 0 80 63 00
        E 0 80 6e 00
        E 0 80 6f 00
        E 0 90 60 60
        E 120 80 60 00
        E 0 90 54 60
        E 0 90 55 60
        E 0 90 56 60
        E 0 90 60 60
        E 0 90 61 60
        E 0 90 62 60
        E 0 90 6e 60
        E 120 80 54 00
        E 0 80 55 00
        E 0 80 56 00
        E 0 80 60 00
        E 0 80 61 00
        E 0 80 62 00
        E 0 80 6e 00
        E 0 90 60 60
        E 120 80 60 00
        E 0 90 3e 60
        E 0 90 3f 60
        E 0 90 4a 60
        E 0 90 4b 60
        E 0 90 54 60
        E 0 90 56 60
        E 0 90 57 60
        E 0 90 60 60
        E 0 90 62 60
        E 0 90 63 60
        E 0 90 6e 60
        E 0 90 6f 60
        E 120 80 3e 00
        E 0 80 3f 00
        E 0 80 4a 00
        E 0 80 4b 00
        E 0 80 54 00
        E 0 80 56 00
        E 0 80 57 00
        E 0 80 60 00
        E 0 80 62 00
        E 0 80 63 00
        E 0 80 6e 00
        E 0 80 6f 00
        E 0 90 60 60
        E 120 80 60 00
        E 0 90 54 60
        E 0 90 56 60
        E 0 90 57 60
        E 0 90 60 60
        E 0 90 62 60
        E 0 90 63 60
        E 0 90 6e 60
        E 0 90 6f 60
        E 120 80 54 00
        E 0 80 56 00
        E 0 80 57 00
        E 0 80 60 00
        E 0 80 62 00
        E 0 80 63 00
        E 0 80 6e 00
        E 0 80 6f 00
        E 0 90 60 60
        E 120 80 60 00
        E 0 90 3e 60
        E 0 90 3f 60
        E 0 90 4a 60
        E 0 90 4b 60
        E 0 90 54 60
        E 0 90 56 60
        E 0 90 57 60
        E 0 90 60 60
        E 0 90 62 60
        E 0 90 63 60
        E 0 90 6e 60
        E 0 90 6f 60
        E 120 80 3e 00
        E 0 80 3f 00
        E 0 80 4a 00
        E 0 80 4b 00
        E 0 80 54 00
        E 0 80 56 00
        E 0 80 57 00
        E 0 80 60 00
        E 0 80 62 00
        E 0 80 63 00
        E 0 80 6e 00
        E 0 80 6f 00
        E 0 90 60 60
        E 120 80 60 00
        E 0 90 54 60
        E 0 90 60 60
        E 120 80 54 00
        E 0 80 60 00
        E 0 90 60 60
        E 120 80 60 00
        E 0 90 3e 60
        E 0 90 3f 60
        E 0 90 4a 60
        E 0 90 4b 60
        E 0 90 54 60
        E 0 90 56 60
        E 0 90 57 60
        E 0 90 60 60
        E 0 90 62 60
        E 0 90 63 60
        E 0 90 6e 60
        E 0 90 6f 60
        E 120 80 3e 00
        E 0 80 3f 00
        E 0 80 4a 00
        E 0 80 4b 00
        E 0 80 54 00
        E 0 80 56 00
        E 0 80 57 00
        E 0 80 60 00
        E 0 80 62 00
        E 0 80 63 00
        E 0 80 6e 00
        E 0 80 6f 00
        E 0 90 60 60
        E 120 80 60 00
        E 0 90 54 60
        E 0 90 55 60
        E 0 90 56 60
        E 0 90 60 60
        E 0 90 61 60
        E 0 90 62 60
        E 0 90 6e 60
        E 120 80 54 00
        E 0 80 55 00
        E 0 80 56 00
        E 0 80 60 00
        E 0 80 61 00
        E 0 80 62 00
        E 0 80 6e 00
        E 0 90 60 60
        E 120 80 60 00
        E 0 90 3e 60
        E 0 90 3f 60
        E 0 90 4a 60
        E 0 90 4b 60
        E 0 90 54 60
        E 0 90 56 60
        E 0 90 57 60
        E 0 90 60 60
        E 0 90 62 60
        E 0 90 63 60
        E 0 90 6e 60
        E 0 90 6f 60
        E 120 80 3e 00
        E 0 80 3f 00
        E 0 80 4a 00
        E 0 80 4b 00
        E 0 80 54 00
        E 0 80 56 00
        E 0 80 57 00
        E 0 80 60 00
        E 0 80 62 00
        E 0 80 63 00
        E 0 80 6e 00
        E 0 80 6f 00
        E 0 90 60 60
        E 120 80 60 00
        E 0 90 54 60
        E 0 90 56 60
        E 0 90 57 60
        E 0 90 60 60
        E 0 90 62 60
        E 0 90 63 60
        E 0 90 6e 60
        E 0 90 6f 60
        E 120 80 54 00
        E 0 80 56 00
        E 0 80 57 00
        E 0 80 60 00
        E 0 80 62 00
        E 0 80 63 00
        E 0 80 6e 00
        E 0 80 6f 00
        E 0 90 60 60
        E 120 80 60 00
        E 0 90 3e 60
        E 0 90 4a 60
        E 0 90 54 60
        E 0 90 56 60
        E 0 90 60 60
        E 0 90 62 60
        E 0 90 6e 60
        E 120 80 3e 00
        E 0 80 4a 00
        E 0 80 54 00
        E 0 80 56 00
        E 0 80 60 00
        E 0 80 62 00
        E 0 80 6e 00
        E 0 90 60 60
        E 0 90 62 60
        E 0 90 6e 60
        E 120 80 60 00
        E 0 80 62 00
        E 0 80 6e 00
        E 0 90 54 60
        E 0 90 57 60
        E 0 90 60 60
        E 0 90 63 60
        E 0 90 6f 60
        E 120 80 54 00
        E 0 80 57 00
        E 0 80 60 00
        E 0 80 63 00
        E 0 80 6f 00
        E 0 90 60 60
        E 0 90 63 60
        E 0 90 6f 60
        E 120 80 60 00
        E 0 80 63 00
        E 0 80 6f 00
        E 0 90 3c 60
        E 0 90 48 60
        E 0 90 54 60
        E 0 90 60 60
        E 120 80 3c 00
        E 0 80 48 00
        E 0 80 54 00
        E 0 80 60 00
        E 0 90 60 60
        E 120 80 60 00
        E 0 90 54 60
        E 0 90 55 60
        E 0 90 56 60
        E 0 90 60 60
        E 0 90 61 60
        E 0 90 62 60
        E 0 90 6e 60
        E 120 80 54 00
        E 0 80 55 00
        E 0 80 56 00
        E 0 80 60 00
        E 0 80 61 00
        E 0 80 62 00
        E 0 80 6e 00
        E 0 90 60 60
        E 120 80 60 00
        E 0 90 3e 60
        E 0 90 3f 60
        E 0 90 4a 60
        E 0 90 4b 60
        E 0 90 54 60
        E 0 90 56 60
        E 0 90 57 60
        E 0 90 60 60
        E 0 90 62 60
        E 0 90 63 60
        E 0 90 6e 60
        E 0 90 6f 60
        E 120 80 3e 00
        E 0 80 3f 00
        E 0 80 4a 00
        E 0 80 4b 00
        E 0 80 54 00
        E 0 80 56 00
        E 0 80 57 00
        E 0 80 60 00
        E 0 80 62 00
        E 0 80 63 00
        E 0 80 6e 00
        E 0 80 6f 00
        E 0 90 60 60
        E 120 80 60 00
        E 0 90 54 60
        E 0 90 56 60
        E 0 90 57 60
        E 0 90 60 60
        E 0 90 62 60
        E 0 90 63 60
        E 0 90 6e 60
        E 0 90 6f 60
        E 120 80 54 00
        E 0 80 56 00
        E 0 80 57 00
        E 0 80 60 00
        E 0 80 62 00
        E 0 80 63 00
        E 0 80 6e 00
        E 0 80 6f 00
        E 0 90 60 60
        E 120 80 60 00
        E 0 90 3e 60
        E 0 90 4a 60
        E 0 90 54 60
        E 0 90 56 60
        E 0 90 60 60
        E 0 90 62 60
        E 0 90 6e 60
        E 0 90 78 60
        E 0 90 79 60
        E 0 90 7a 60
        E 0 90 7b 60
        E 0 90 7c 60
        E 120 80 3e 00
        E 0 80 4a 00
        E 0 80 54 00
        E 0 80 56 00
        E 0 80 60 00
        E 0 80 62 00
        E 0 80 6e 00
        E 0 90 60 60
        E 0 90 62 60
        E 0 90 6e 60
        E 120 80 60 00
        E 0 80 62 00
        E 0 80 6e 00
        E 0 90 54 60
        E 0 90 57 60
        E 0 90 60 60
        E 0 90 63 60
        E 0 90 6f 60
        E 120 80 54 00
        E 0 80 57 00
        E 0 80 60 00
        E 0 80 63 00
        E 0 80 6f 00
        E 0 90 60 60
        E 0 90 63 60
        E 0 90 6f 60
        E 120 80 60 00
        E 0 80 63 00
        E 0 80 6f 00
        E 0 90 3c 60
        E 0 90 48 60
        E 0 90 54 60
        E 0 90 60 60
        E 120 80 3c 00
        E 0 80 48 00
        E 0 80 54 00
        E 0 80 60 00
        E 0 90 60 60
        E 120 80 60 00
        E 0 90 54 60
        E 0 90 55 60
        E 0 90 56 60
        E 0 90 60 60
        E 0 90 61 60
        E 0 90 62 60
        E 0 90 6e 60
        E 120 80 54 00
        E 0 80 55 00
        E 0 80 56 00
        E 0 80 60 00
        E 0 80 61 00
        E 0 80 62 00
        E 0 80 6e 00
        E 0 90 60 60
        E 120 80 60 00
        E 0 90 3e 60
        E 0 90 3f 60
        E 0 90 4a 60
        E 0 90 4b 60
        E 0 90 54 60
        E 0 90 56 60
        E 0 90 57 60
        E 0 90 60 60
        E 0 90 62 60
        E 0 90 63 60
        E 0 90 6e 60
        E 0 90 6f 60
        E 120 80 3e 00
        E 0 80 3f 00
        E 0 80 4a 00
        E 0 80 4b 00
        E 0 80 54 00
        E 0 80 56 00
        E 0 80 57 00
        E 0 80 60 00
        E 0 80 62 00
        E 0 80 63 00
        E 0 80 6e 00
        E 0 80 6f 00
        E 0 90 60 60
        E 120 80 60 00
        E 0 90 54 60
        E 0 90 56 60
        E 0 90 57 60
        E 0 90 60 60
        E 0 90 62 60
        E 0 90 63 60
        E 0 90 6e 60
        E 0 90 6f 60
        E 120 80 54 00
        E 0 80 56 00
        E 0 80 57 00
        E 0 80 60 00
        E 0 80 62 00
        E 0 80 63 00
        E 0 80 6e 00
        E 0 80 6f 00
        E 0 90 60 60
        E 120 80 78 00
        E 0 80 79 00
        E 0 80 7a 00
        E 0 80 7b 00
        E 0 80 7c 00
        E 0 80 60 00
        E 0 90 3e 60
        E 0 90 4a 60
        E 0 90 54 60
        E 0 90 56 60
        E 0 90 60 60
        E 0 90 62 60
        E 0 90 6e 60
        E 120 80 3e 00
        E 0 80 4a 00
        E 0 80 54 00
        E 0 80 56 00
        E 0 80 60 00
        E 0 80 62 00
        E 0 80 6e 00
        E 0 90 60 60
        E 0 90 62 60
        E 0 90 6e 60
        E 120 80 60 00
        E 0 80 62 00
        E 0 80 6e 00
        E 0 90 54 60
        E 0 90 57 60
        E 0 90 60 60
        E 0 90 63 60
        E 0 90 6f 60
        E 120 80 54 00
        E 0 80 57 00
        E 0 80 60 00
        E 0 80 63 00
        E 0 80 6f 00
        E 0 90 60 60
        E 0 90 63 60
        E 0 90 6f 60
        E 120 80 60 00
        E 0 80 63 00
        E 0 80 6f 00
        E 0 90 3c 60
        E 0 90 48 60
        E 0 90 54 60
        E 0 90 60 60
        E 120 80 3c 00
        E 0 80 48 00
        E 0 80 54 00
        E 0 80 60 00
        E 0 90 60 60
        E 120 80 60 00
        E 0 90 54 60
        E 0 90 55 60
        E 0 90 56 60
        E 0 90 60 60
        E 0 90 61 60
        E 0 90 62 60
        E 0 90 6e 60
        E 120 80 54 00
        E 0 80 55 00
        E 0 80 56 00
        E 0 80 60 00
        E 0 80 61 00
        E 0 80 62 00
        E 0 80 6e 00
        E 0 90 60 60
        E 120 80 60 00
        E 0 90 3e 60
        E 0 90 3f 60
        E 0 90 4a 60
        E 0 90 4b 60
        E 0 90 54 60
        E 0 90 56 60
        E 0 90 57 60
        E 0 90 60 60
        E 0 90 62 60
        E 0 90 63 60
        E 0 90 6e 60
        E 0 90 6f 60
        E 120 80 3e 00
        E 0 80 3f 00
        E 0 80 4a 00
        E 0 80 4b 00
        E 0 80 54 00
        E 0 80 56 00
        E 0 80 57 00
        E 0 80 60 00
        E 0 80 62 00
        E 0 80 63 00
        E 0 80 6e 00
        E 0 80 6f 00
        E 0 90 60 60
        E 120 80 60 00
        E 0 90 54 60
        E 0 90 56 60
        E 0 90 57 60
        E 0 90 60 60
        E 0 90 62 60
        E 0 90 63 60
        E 0 90 6e 60
        E 0 90 6f 60
        E 120 80 54 00
        E 0 80 56 00
        E 0 80 57 00
        E 0 80 60 00
        E 0 80 62 00
        E 0 80 63 00
        E 0 80 6e 00
        E 0 80 6f 00
        E 0 90 60 60
        E 120 80 60 00
        E 0 90 3e 60
        E 0 90 4a 60
        E 0 90 54 60
        E 0 90 56 60
        E 0 90 60 60
        E 0 90 62 60
        E 0 90 6e 60
        E 120 80 3e 00
        E 0 80 4a 00
        E 0 80 54 00
        E 0 80 56 00
        E 0 80 60 00
        E 0 80 62 00
        E 0 80 6e 00
        E 0 90 60 60
        E 0 90 62 60
        E 0 90 6e 60
        E 120 80 60 00
        E 0 80 62 00
        E 0 80 6e 00
        E 0 90 54 60
        E 0 90 57 60
        E 0 90 60 60
        E 0 90 63 60
        E 0 90 6f 60
        E 120 80 54 00
        E 0 80 57 00
        E 0 80 60 00
        E 0 80 63 00
        E 0 80 6f 00
        E 0 90 60 60
        E 0 90 63 60
        E 0 90 6f 60
        E 120 80 60 00
        E 0 80 63 00
        E 0 80 6f 00
        E 0 90 3c 60
        E 0 90 48 60
        E 0 90 54 60
        E 0 90 60 60
        E 120 80 3c 00
        E 0 80 48 00
        E 0 80 54 00
        E 0 80 60 00
        E 0 90 60 60
        E 120 80 60 00
        E 0 90 54 60
        E 0 90 55 60
        E 0 90 56 60
        E 0 90 60 60
        E 0 90 61 60
        E 0 90 62 60
        E 0 90 6e 60
        E 120 80 54 00
        E 0 80 55 00
        E 0 80 56 00
        E 0 80 60 00
        E 0 80 61 00
        E 0 80 62 00
        E 0 80 6e 00
        E 0 90 60 60
        E 120 80 60 00
        E 0 90 3e 60
        E 0 90 3f 60
        E 0 90 4a 60
        E 0 90 4b 60
        E 0 90 54 60
        E 0 90 56 60
        E 0 90 57 60
        E 0 90 60 60
        E 0 90 62 60
        E 0 90 63 60
        E 0 90 6e 60
        E 0 90 6f 60
        E 120 80 3e 00
        E 0 80 3f 00
        E 0 80 4a 00
        E 0 80 4b 00
        E 0 80 54 00
        E 0 80 56 00
        E 0 80 57 00
        E 0 80 60 00
        E 0 80 62 00
        E 0 80 63 00
        E 0 80 6e 00
        E 0 80 6f 00
        E 0 90 60 60
        E 120 80 60 00
        E 0 90 54 60
        E 0 90 56 60
        E 0 90 57 60
        E 0 90 60 60
        E 0 90 62 60
        E 0 90 63 60
        E 0 90 6e 60
        E 0 90 6f 60
        E 120 80 54 00
        E 0 80 56 00
        E 0 80 57 00
        E 0 80 60 00
        E 0 80 62 00
        E 0 80 63 00
        E 0 80 6e 00
        E 0 80 6f 00
        E 0 90 60 60
        E 120 80 60 00
        E 0 90 3e 60
        E 0 90 4a 60
        E 0 90 54 60
        E 0 90 56 60
        E 0 90 60 60
        E 0 90 62 60
        E 0 90 6e 60
        E 120 80 3e 00
        E 0 80 4a 00
        E 0 80 54 00
        E 0 80 56 00
        E 0 80 60 00
        E 0 80 62 00
        E 0 80 6e 00
        E 0 90 60 60
        E 0 90 62 60
        E 0 90 6e 60
        E 120 80 60 00
        E 0 80 62 00
        E 0 80 6e 00
        E 0 90 54 60
        E 0 90 57 60
        E 0 90 60 60
        E 0 90 63 60
        E 0 90 6f 60
        E 120 80 54 00
        E 0 80 57 00
        E 0 80 60 00
        E 0 80 63 00
        E 0 80 6f 00
        E 0 90 60 60
        E 0 90 63 60
        E 0 90 6f 60
        E 120 80 60 00
        E 0 80 63 00
        E 0 80 6f 00
        E 0 90 3c 60
        E 0 90 48 60
        E 0 90 54 60
        E 0 90 60 60
        E 120 80 3c 00
        E 0 80 48 00
        E 0 80 54 00
        E 0 80 60 00
        E 0 90 60 60
        E 120 80 60 00
        E 0 90 54 60
        E 0 90 55 60
        E 0 90 56 60
        E 0 90 60 60
        E 0 90 61 60
        E 0 90 62 60
        E 0 90 6e 60
        E 120 80 54 00
        E 0 80 55 00
        E 0 80 56 00
        E 0 80 60 00
        E 0 80 61 00
        E 0 80 62 00
        E 0 80 6e 00
        E 0 90 60 60
        E 120 80 60 00
        E 0 90 3e 60
        E 0 90 3f 60
        E 0 90 4a 60
        E 0 90 4b 60
        E 0 90 54 60
        E 0 90 56 60
        E 0 90 57 60
        E 0 90 60 60
        E 0 90 62 60
        E 0 90 63 60
        E 0 90 6e 60
        E 0 90 6f 60
        E 120 80 3e 00
        E 0 80 3f 00
        E 0 80 4a 00
        E 0 80 4b 00
        E 0 80 54 00
        E 0 80 56 00
        E 0 80 57 00
        E 0 80 60 00
        E 0 80 62 00
        E 0 80 63 00
        E 0 80 6e 00
        E 0 80 6f 00
        E 0 90 60 60
        E 120 80 60 00
        E 0 90 54 60
        E 0 90 56 60
        E 0 90 57 60
        E 0 90 60 60
        E 0 90 62 60
        E 0 90 63 60
        E 0 90 6e 60
        E 0 90 6f 60
        E 120 80 54 00
        E 0 80 56 00
        E 0 80 57 00
        E 0 80 60 00
        E 0 80 62 00
        E 0 80 63 00
        E 0 80 6e 00
        E 0 80 6f 00
        E 0 90 60 60
        E 120 80 60 00
        E 0 90 3e 60
        E 0 90 3f 60
        E 0 90 4a 60
        E 0 90 4b 60
        E 0 90 54 60
        E 0 90 56 60
        E 0 90 57 60
        E 0 90 60 60
        E 0 90 62 60
        E 0 90 63 60
        E 0 90 6e 60
        E 0 90 6f 60
        E 0 90 78 60
        E 0 90 79 60
        E 0 90 7a 60
        E 0 90 7b 60
        E 0 90 7c 60
        E 120 80 3e 00
        E 0 80 3f 00
        E 0 80 4a 00
        E 0 80 4b 00
        E 0 80 54 00
        E 0 80 56 00
        E 0 80 57 00
        E 0 80 60 00
        E 0 80 62 00
        E 0 80 63 00
        E 0 80 6e 00
        E 0 80 6f 00
        E 0 90 60 60
        E 120 80 60 00
        E 0 90 54 60
        E 0 90 55 60
        E 0 90 60 60
        E 0 90 61 60
        E 120 80 54 00
        E 0 80 55 00
        E 0 80 60 00
        E 0 80 61 00
        E 0 90 60 60
        E 0 90 61 60
        E 120 80 60 00
        E 0 80 61 00
        E 0 90 3d 60
        E 0 90 49 60
        E 0 90 54 60
        E 0 90 55 60
        E 0 90 60 60
        E 0 90 61 60
        E 120 80 3d 00
        E 0 80 49 00
        E 0 80 54 00
        E 0 80 55 00
        E 0 80 60 00
        E 0 80 61 00
        E 0 90 60 60
        E 0 90 61 60
        E 120 80 60 00
        E 0 80 61 00
        E 0 90 54 60
        E 0 90 55 60
        E 0 90 60 60
        E 0 90 61 60
        E 120 80 54 00
        E 0 80 55 00
        E 0 80 60 00
        E 0 80 61 00
        E 0 90 60 60
        E 0 90 61 60
        E 120 80 60 00
        E 0 80 61 00
        E 0 90 3e 60
        E 0 90 4a 60
        E 0 90 54 60
        E 0 90 56 60
        E 0 90 60 60
        E 0 90 62 60
        E 0 90 6e 60
        E 120 80 3e 00
        E 0 80 4a 00
        E 0 80 54 00
        E 0 80 56 00
        E 0 80 60 00
        E 0 80 62 00
        E 0 80 6e 00
        E 0 90 60 60
        E 0 90 62 60
        E 0 90 6e 60
        E 120 80 60 00
        E 0 80 62 00
        E 0 80 6e 00
        E 0 90 54 60
        E 0 90 57 60
        E 0 90 60 60
        E 0 90 63 60
        E 0 90 6f 60
        E 120 80 54 00
        E 0 80 57 00
        E 0 80 60 00
        E 0 80 63 00
        E 0 80 6f 00
        E 0 90 60 60
        E 0 90 63 60
        E 0 90 6f 60
        E 120 80 78 00
        E 0 80 79 00
        E 0 80 7a 00
        E 0 80 7b 00
        E 0 80 7c 00
        E 0 80 60 00
        E 0 80 63 00
        E 0 80 6f 00
        E 0 90 40 60
        E 0 90 48 60
        E 0 90 4c 60
        E 0 90 54 60
        E 0 90 58 60
        E 0 90 60 60
        E 0 90 64 60
        E 120 80 40 00
        E 0 80 48 00
        E 0 80 4c 00
        E 0 80 54 00
        E 0 80 58 00
        E 0 80 60 00
        E 0 80 64 00
        E 0 90 60 60
        E 120 80 60 00
        E 0 90 54 60
        E 0 90 60 60
        E 120 80 54 00
        E 0 80 60 00
        E 0 90 60 60
        E 120 80 60 00
        E 0 90 3e 60
        E 0 90 3f 60
        E 0 90 4a 60
        E 0 90 4b 60
        E 0 90 54 60
        E 0 90 56 60
        E 0 90 57 60
        E 0 90 60 60
        E 0 90 62 60
        E 0 90 63 60
        E 0 90 6e 60
        E 0 90 6f 60
        E 120 80 3e 00
        E 0 80 3f 00
        E 0 80 4a 00
        E 0 80 4b 00
        E 0 80 54 00
        E 0 80 56 00
        E 0 80 57 00
        E 0 80 60 00
        E 0 80 62 00
        E 0 80 63 00
        E 0 80 6e 00
        E 0 80 6f 00
        E 0 90 60 60
        E 120 80 60 00
        E 0 90 54 60
        E 0 90 55 60
        E 0 90 56 60
        E 0 90 60 60
        E 0 90 61 60
        E 0 90 62 60
        E 0 90 6e 60
        E 120 80 54 00
        E 0 80 55 00
        E 0 80 56 00
        E 0 80 60 00
        E 0 80 61 00
        E 0 80 62 00
        E 0 80 6e 00
        E 0 90 60 60
        E 120 80 60 00
        E 0 90 3e 60
        E 0 90 3f 60
        E 0 90 4a 60
        E 0 90 4b 60
        E 0 90 54 60
        E 0 90 56 60
        E 0 90 57 60
        E 0 90 60 60
        E 0 90 62 60
        E 0 90 63 60
        E 0 90 6e 60
        E 0 90 6f 60
        E 120 80 3e 00
        E 0 80 3f 00
        E 0 80 4a 00
        E 0 80 4b 00
        E 0 80 54 00
        E 0 80 56 00
        E 0 80 57 00
        E 0 80 60 00
        E 0 80 62 00
        E 0 80 63 00
        E 0 80 6e 00
        E 0 80 6f 00
        E 0 90 60 60
        E 120 80 60 00
        E 0 90 54 60
        E 0 90 56 60
        E 0 90 57 60
        E 0 90 60 60
        E 0 90 62 60
        E 0 90 63 60
        E 0 90 6e 60
        E 0 90 6f 60
        E 120 80 54 00
        E 0 80 56 00
        E 0 80 57 00
        E 0 80 60 00
        E 0 80 62 00
        E 0 80 63 00
        E 0 80 6e 00
        E 0 80 6f 00
        E 0 90 60 60
        E 120 80 60 00
        E 0 90 3e 60
        E 0 90 4a 60
        E 0 90 54 60
        E 0 90 56 60
        E 0 90 60 60
        E 0 90 62 60
        E 0 90 6e 60
        E 120 80 3e 00
        E 0 80 4a 00
        E 0 80 54 00
        E 0 80 56 00
        E 0 80 60 00
        E 0 80 62 00
        E 0 80 6e 00
        E 0 90 60 60
        E 0 90 62 60
        E 0 90 6e 60
        E 120 80 60 00
        E 0 80 62 00
        E 0 80 6e 00
        E 0 90 54 60
        E 0 90 57 60
        E 0 90 60 60
        E 0 90 63 60
        E 0 90 6f 60
        E 120 80 54 00
        E 0 80 57 00
        E 0 80 60 00
        E 0 80 63 00
        E 0 80 6f 00
        E 0 90 60 60
        E 0 90 63 60
        E 0 90 6f 60
        E 120 80 60 00
        E 0 80 63 00
        E 0 80 6f 00
        E 0 90 3c 60
        E 0 90 48 60
        E 0 90 54 60
        E 0 90 60 60
        E 120 80 3c 00
        E 0 80 48 00
        E 0 80 54 00
        E 0 80 60 00
        E 0 90 60 60
        E 120 80 60 00
        E 0 90 54 60
        E 0 90 55 60
        E 0 90 56 60
        E 0 90 60 60
        E 0 90 61 60
        E 0 90 62 60
        E 0 90 6e 60
        E 120 80 54 00
        E 0 80 55 00
        E 0 80 56 00
        E 0 80 60 00
        E 0 80 61 00
        E 0 80 62 00
        E 0 80 6e 00
        E 0 90 60 60
        E 120 80 60 00
        E 0 90 3e 60
        E 0 90 3f 60
        E 0 90 4a 60
        E 0 90 4b 60
        E 0 90 54 60
        E 0 90 56 60
        E 0 90 57 60
        E 0 90 60 60
        E 0 90 62 60
        E 0 90 63 60
        E 0 90 6e 60
        E 0 90 6f 60
        E 120 80 3e 00
        E 0 80 3f 00
        E 0 80 4a 00
        E 0 80 4b 00
        E 0 80 54 00
        E 0 80 56 00
        E 0 80 57 00
        E 0 80 60 00
        E 0 80 62 00
        E 0 80 63 00
        E 0 80 6e 00
        E 0 80 6f 00
        E 0 90 60 60
        E 120 80 60 00
        E 0 90 54 60
        E 0 90 56 60
        E 0 90 57 60
        E 0 90 60 60
        E 0 90 62 60
        E 0 90 63 60
        E 0 90 6e 60
        E 0 90 6f 60
        E 120 80 54 00
        E 0 80 56 00
        E 0 80 57 00
        E 0 80 60 00
        E 0 80 62 00
        E 0 80 63 00
        E 0 80 6e 00
        E 0 80 6f 00
        E 0 90 60 60
        E 120 80 60 00
        E 0 90 3e 60
        E 0 90 3f 60
        E 0 90 4a 60
        E 0 90 4b 60
        E 0 90 54 60
        E 0 90 56 60
        E 0 90 57 60
        E 0 90 60 60
        E 0 90 62 60
        E 0 90 63 60
        E 0 90 6e 60
        E 0 90 6f 60
        E 120 80 3e 00
        E 0 80 3f 00
        E 0 80 4a 00
        E 0 80 4b 00
        E 0 80 54 00
        E 0 80 56 00
        E 0 80 57 00
        E 0 80 60 00
        E 0 80 62 00
        E 0 80 63 00
        E 0 80 6e 00
        E 0 80 6f 00
        E 0 90 60 60
        E 120 80 60 00
        E 0 90 54 60
        E 0 90 56 60
        E 0 90 57 60
        E 0 90 60 60
        E 0 90 62 60
        E 0 90 63 60
        E 0 90 6e 60
        E 0 90 6f 60
        E 120 80 54 00
        E 0 80 56 00
        E 0 80 57 00
        E 0 80 60 00
        E 0 80 62 00
        E 0 80 63 00
        E 0 80 6e 00
        E 0 80 6f 00
        E 0 90 60 60
        E 120 80 60 00
        E 0 90 3c 60
        E 0 90 48 60
        E 0 90 54 60
        E 0 90 60 60
        E 120 80 3c 00
        E 0 80 48 00
        E 0 80 54 00
        E 0 80 60 00
        E 0 90 60 60
        E 120 80 60 00
        E 0 90 54 60
        E 0 90 55 60
        E 0 90 56 60
        E 0 90 60 60
        E 0 90 61 60
        E 0 90 62 60
        E 0 90 6e 60
        E 120 80 54 00
        E 0 80 55 00
        E 0 80 56 00
        E 0 80 60 00
        E 0 80 61 00
        E 0 80 62 00
        E 0 80 6e 00
        E 0 90 60 60
        E 120 80 60 00
        E 0 90 3e 60
        E 0 90 3f 60
        E 0 90 4a 60
        E 0 90 4b 60
        E 0 90 54 60
        E 0 90 56 60
        E 0 90 57 60
        E 0 90 60 60
        E 0 90 62 60
        E 0 90 63 60
        E 0 90 6e 60
        E 0 90 6f 60
        E 120 80 3e 00
        E 0 80 3f 00
        E 0 80 4a 00
        E 0 80 4b 00
        E 0 80 54 00
        E 0 80 56 00
        E 0 80 57 00
        E 0 80 60 00
        E 0 80 62 00
        E 0 80 63 00
        E 0 80 6e 00
        E 0 80 6f 00
        E 0 90 60 60
        E 120 80 60 00
        E 0 90 54 60
        E 0 90 56 60
        E 0 90 57 60
        E 0 90 60 60
        E 0 90 62 60
        E 0 90 63 60
        E 0 90 6e 60
        E 0 90 6f 60
        E 120 80 54 00
        E 0 80 56 00
        E 0 80 57 00
        E 0 80 60 00
        E 0 80 62 00
        E 0 80 63 00
        E 0 80 6e 00
        E 0 80 6f 00
        E 0 90 60 60
        E 120 80 60 00
        E 0 90 3e 60
        E 0 90 4a 60
        E 0 90 54 60
        E 0 90 56 60
        E 0 90 60 60
        E 0 90 62 60
        E 0 90 6e 60
        E 120 80 3e 00
        E 0 80 4a 00
        E 0 80 54 00
        E 0 80 56 00
        E 0 80 60 00
        E 0 80 62 00
        E 0 80 6e 00
        E 0 90 60 60
        E 0 90 62 60
        E 0 90 6e 60
        E 120 80 60 00
        E 0 80 62 00
        E 0 80 6e 00
        E 0 90 54 60
        E 0 90 57 60
        E 0 90 60 60
        E 0 90 63 60
        E 0 90 6f 60
        E 120 80 54 00
        E 0 80 57 00
        E 0 80 60 00
        E 0 80 63 00
        E 0 80 6f 00
        E 0 90 60 60
        E 0 90 63 60
        E 0 90 6f 60
        E 120 80 60 00
        E 0 80 63 00
        E 0 80 6f 00
        E 0 90 3c 60
        E 0 90 48 60
        E 0 90 54 60
        E 0 90 60 60
        E 120 80 3c 00
        E 0 80 48 00
        E 0 80 54 00
        E 0 80 60 00
        E 0 90 60 60
        E 120 80 60 00
        E 0 90 54 60
        E 0 90 55 60
        E 0 90 56 60
        E 0 90 60 60
        E 0 90 61 60
        E 0 90 62 60
        E 0 90 6e 60
        E 120 80 54 00
        E 0 80 55 00
        E 0 80 56 00
        E 0 80 60 00
        E 0 80 61 00
        E 0 80 62 00
        E 0 80 6e 00
        E 0 90 60 60
        E 120 80 60 00
        E 0 90 3e 60
        E 0 90 3f 60
        E 0 90 4a 60
        E 0 90 4b 60
        E 0 90 54 60
        E 0 90 56 60
        E 0 90 57 60
        E 0 90 60 60
        E 0 90 62 60
        E 0 90 63 60
        E 0 90 6e 60
        E 0 90 6f 60
        E 120 80 3e 00
        E 0 80 3f 00
        E 0 80 4a 00
        E 0 80 4b 00
        E 0 80 54 00
        E 0 80 56 00
        E 0 80 57 00
        E 0 80 60 00
        E 0 80 62 00
        E 0 80 63 00
        E 0 80 6e 00
        E 0 80 6f 00
        E 0 90 60 60
        E 120 80 60 00
        E 0 90 54 60
        E 0 90 56 60
        E 0 90 57 60
        E 0 90 60 60
        E 0 90 62 60
        E 0 90 63 60
        E 0 90 6e 60
        E 0 90 6f 60
        E 120 80 54 00
        E 0 80 56 00
        E 0 80 57 00
        E 0 80 60 00
        E 0 80 62 00
        E 0 80 63 00
        E 0 80 6e 00
        E 0 80 6f 00
        E 0 90 60 60
        E 120 80 60 00
        E 0 90 3e 60
        E 0 90 4a 60
        E 0 90 54 60
        E 0 90 56 60
        E 0 90 60 60
        E 0 90 62 60
        E 0 90 6e 60
        E 120 80 3e 00
        E 0 80 4a 00
        E 0 80 54 00
        E 0 80 56 00
        E 0 80 60 00
        E 0 80 62 00
        E 0 80 6e 00
        E 0 90 60 60
        E 0 90 62 60
        E 0 90 6e 60
        E 120 80 60 00
        E 0 80 62 00
        E 0 80 6e 00
        E 0 90 54 60
        E 0 90 57 60
        E 0 90 60 60
        E 0 90 63 60
        E 0 90 6f 60
        E 120 80 54 00
        E 0 80 57 00
        E 0 80 60 00
        E 0 80 63 00
        E 0 80 6f 00
        E 0 90 60 60
        E 0 90 63 60
        E 0 90 6f 60
        E 120 80 60 00
        E 0 80 63 00
        E 0 80 6f 00
        E 0 90 3c 60
        E 0 90 48 60
        E 0 90 54 60
        E 0 90 60 60
        E 120 80 3c 00
        E 0 80 48 00
        E 0 80 54 00
        E 0 80 60 00
        E 0 90 60 60
        E 120 80 60 00
        E 0 90 54 60
        E 0 90 55 60
        E 0 90 56 60
        E 0 90 60 60
        E 0 90 61 60
        E 0 90 62 60
        E 0 90 6e 60
        E 120 80 54 00
        E 0 80 55 00
        E 0 80 56 00
        E 0 80 60 00
        E 0 80 61 00
        E 0 80 62 00
        E 0 80 6e 00
        E 0 90 60 60
        E 120 80 60 00
        E 0 90 3e 60
        E 0 90 3f 60
        E 0 90 4a 60
        E 0 90 4b 60
        E 0 90 54 60
        E 0 90 56 60
        E 0 90 57 60
        E 0 90 60 60
        E 0 90 62 60
        E 0 90 63 60
        E 0 90 6e 60
        E 0 90 6f 60
        E 120 80 3e 00
        E 0 80 3f 00
        E 0 80 4a 00
        E 0 80 4b 00
        E 0 80 54 00
        E 0 80 56 00
        E 0 80 57 00
        E 0 80 60 00
        E 0 80 62 00
        E 0 80 63 00
        E 0 80 6e 00
        E 0 80 6f 00
        E 0 90 60 60
        E 120 80 60 00
        E 0 90 54 60
        E 0 90 56 60
        E 0 90 57 60
        E 0 90 60 60
        E 0 90 62 60
        E 0 90 63 60
        E 0 90 6e 60
        E 0 90 6f 60
        E 120 80 54 00
        E 0 80 56 00
        E 0 80 57 00
        E 0 80 60 00
        E 0 80 62 00
        E 0 80 63 00
        E 0 80 6e 00
        E 0 80 6f 00
        E 0 90 60 60
        E 120 80 60 00
        E 0 90 3e 60
        E 0 90 4a 60
        E 0 90 54 60
        E 0 90 56 60
        E 0 90 60 60
        E 0 90 62 60
        E 0 90 6e 60
        E 120 80 3e 00
        E 0 80 4a 00
        E 0 80 54 00
        E 0 80 56 00
        E 0 80 60 00
        E 0 80 62 00
        E 0 80 6e 00
        E 0 90 60 60
        E 0 90 62 60
        E 0 90 6e 60
        E 120 80 60 00
        E 0 80 62 00
        E 0 80 6e 00
        E 0 90 54 60
        E 0 90 57 60
        E 0 90 60 60
        E 0 90 63 60
        E 0 90 6f 60
        E 120 80 54 00
        E 0 80 57 00
        E 0 80 60 00
        E 0 80 63 00
        E 0 80 6f 00
        E 0 90 60 60
        E 0 90 63 60
        E 0 90 6f 60
        E 120 80 60 00
        E 0 80 63 00
        E 0 80 6f 00
        E 0 90 3c 60
        E 0 90 48 60
        E 0 90 54 60
        E 0 90 60 60
        E 120 80 3c 00
        E 0 80 48 00
        E 0 80 54 00
        E 0 80 60 00
        E 0 90 60 60
        E 120 80 60 00
        E 0 90 54 60
        E 0 90 55 60
        E 0 90 56 60
        E 0 90 60 60
        E 0 90 61 60
        E 0 90 62 60
        E 0 90 6e 60
        E 120 80 54 00
        E 0 80 55 00
        E 0 80 56 00
        E 0 80 60 00
        E 0 80 61 00
        E 0 80 62 00
        E 0 80 6e 00
        E 0 90 60 60
        E 120 80 60 00
        E 0 90 3e 60
        E 0 90 3f 60
        E 0 90 4a 60
        E 0 90 4b 60
        E 0 90 54 60
        E 0 90 56 60
        E 0 90 57 60
        E 0 90 60 60
        E 0 90 62 60
        E 0 90 63 60
        E 0 90 6e 60
        E 0 90 6f 60
        E 120 80 3e 00
        E 0 80 3f 00
        E 0 80 4a 00
        E 0 80 4b 00
        E 0 80 54 00
        E 0 80 56 00
        E 0 80 57 00
        E 0 80 60 00
        E 0 80 62 00
        E 0 80 63 00
        E 0 80 6e 00
        E 0 80 6f 00
        E 0 90 60 60
        E 120 80 60 00
        E 0 90 54 60
        E 0 90 56 60
        E 0 90 57 60
        E 0 90 60 60
        E 0 90 62 60
        E 0 90 63 60
        E 0 90 6e 60
        E 0 90 6f 60
        E 120 80 54 00
        E 0 80 56 00
        E 0 80 57 00
        E 0 80 60 00
        E 0 80 62 00
        E 0 80 63 00
        E 0 80 6e 00
        E 0 80 6f 00
        E 0 90 60 60
        E 120 80 60 00
        E 0 90 3e 60
        E 0 90 3f 60
        E 0 90 4a 60
        E 0 90 4b 60
        E 0 90 54 60
        E 0 90 56 60
        E 0 90 57 60
        E 0 90 60 60
        E 0 90 62 60
        E 0 90 63 60
        E 0 90 6e 60
        E 0 90 6f 60
        E 120 80 3e 00
        E 0 80 3f 00
        E 0 80 4a 00
        E 0 80 4b 00
        E 0 80 54 00
        E 0 80 56 00
        E 0 80 57 00
        E 0 80 60 00
        E 0 80 62 00
        E 0 80 63 00
        E 0 80 6e 00
        E 0 80 6f 00
        E 0 90 60 60
        E 120 80 60 00
        E 0 90 54 60
        E 0 90 55 60
        E 0 90 60 60
        E 0 90 61 60
        E 120 80 54 00
        E 0 80 55 00
        E 0 80 60 00
        E 0 80 61 00
        E 0 90 60 60
        E 0 90 61 60
        E 120 80 60 00
        E 0 80 61 00
        E 0 90 3d 60
        E 0 90 49 60
        E 0 90 54 60
        E 0 90 55 60
        E 0 90 60 60
        E 0 90 61 60
        E 120 80 3d 00
        E 0 80 49 00
        E 0 80 54 00
        E 0 80 55 00
        E 0 80 60 00
        E 0 80 61 00
        E 0 90 60 60
        E 0 90 61 60
        E 120 80 60 00
        E 0 80 61 00
        E 0 90 54 60
        E 0 90 55 60
        E 0 90 60 60
        E 0 90 61 60
        E 120 80 54 00
        E 0 80 55 00
        E 0 80 60 00
        E 0 80 61 00
        E 0 90 60 60
        E 0 90 61 60
        E 120 80 60 00
        E 0 80 61 00
        E 0 90 3d 60
        E 0 90 49 60
        E 0 90 54 60
        E 0 90 55 60
        E 0 90 60 60
        E 0 90 61 60
        E 120 80 3d 00
        E 0 80 49 00
        E 0 80 54 00
        E 0 80 55 00
        E 0 80 60 00
        E 0 80 61 00
        E 0 90 60 60
        E 0 90 61 60
        E 120 80 60 00
        E 0 80 61 00
        E 0 90 54 60
        E 0 90 55 60
        E 0 90 60 60
        E 0 90 61 60
        E 120 80 54 00
        E 0 80 55 00
        E 0 80 60 00
        E 0 80 61 00
        E 0 90 60 60
        E 0 90 61 60
        E 120 80 60 00
        E 0 80 61 00
        E 0 90 3d 60
        E 0 90 49 60
        E 0 90 54 60
        E 0 90 55 60
        E 0 90 60 60
        E 0 90 61 60
        E 120 80 3d 00
        E 0 80 49 00
        E 0 80 54 00
        E 0 80 55 00
        E 0 80 60 00
        E 0 80 61 00
        E 0 90 60 60
        E 0 90 61 60
        E 120 80 60 00
        E 0 80 61 00
        E 0 90 54 60
        E 0 90 55 60
        E 0 90 60 60
        E 0 90 61 60
        E 120 80 54 00
        E 0 80 55 00
        E 0 80 60 00
        E 0 80 61 00
        E 0 90 60 60
        E 0 90 61 60
        E 120 80 60 00
        E 0 80 61 00
        E 0 90 3d 60
        E 0 90 49 60
        E 0 90 54 60
        E 0 90 55 60
        E 0 90 60 60
        E 0 90 61 60
        E 120 80 3d 00
        E 0 80 49 00
        E 0 80 54 00
        E 0 80 55 00
        E 0 80 60 00
        E 0 80 61 00
        E 0 90 60 60
        E 0 90 61 60
        E 120 80 60 00
        E 0 80 61 00
        E 0 90 54 60
        E 0 90 55 60
        E 0 90 60 60
        E 0 90 61 60
        E 120 80 54 00
        E 0 80 55 00
        E 0 80 60 00
        E 0 80 61 00
        E 0 90 60 60
        E 0 90 61 60
        E 120 80 60 00
        E 0 80 61 00
        E 0 90 3d 60
        E 0 90 49 60
        E 0 90 54 60
        E 0 90 55 60
        E 0 90 60 60
        E 0 90 61 60
        E 120 80 3d 00
        E 0 80 49 00
        E 0 80 54 00
        E 0 80 55 00
        E 0 80 60 00
        E 0 80 61 00
        E 0 90 60 60
        E 0 90 61 60
        E 120 80 60 00
        E 0 80 61 00
        E 0 90 54 60
        E 0 90 55 60
        E 0 90 60 60
        E 0 90 61 60
        E 120 80 54 00
        E 0 80 55 00
        E 0 80 60 00
        E 0 80 61 00
        E 0 90 60 60
        E 0 90 61 60
        E 120 80 60 00
        E 0 80 61 00
        E 0 90 40 60
        E 0 90 48 60
        E 0 90 4c 60
        E 0 90 54 60
        E 0 90 58 60
        E 0 90 60 60
        E 0 90 64 60
        E 0 90 74 60
        E 80 80 40 00
        E 0 80 48 00
        E 0 80 4c 00
        E 0 80 54 00
        E 0 80 58 00
        E 0 80 60 00
        E 0 80 64 00
        E 80 90 60 60
        E 80 80 60 00
        E 0 90 54 60
        E 0 90 58 60
        E 0 90 60 60
        E 0 90 64 60
        E 80 80 54 00
        E 0 80 58 00
        E 0 80 60 00
        E 0 80 64 00
        E 160 90 40 60
        E 0 90 4c 60
        E 0 90 58 60
        E 0 90 64 60
        E 80 80 40 00
        E 0 80 4c 00
        E 0 80 58 00
        E 0 80 64 00
        E 0 90 60 60
        E 80 80 60 00
        E 0 90 60 60
        E 80 80 60 00
        E 0 90 55 60
        E 0 90 58 60
        E 0 90 61 60
        E 0 90 64 60
        E 80 80 55 00
        E 0 80 58 00
        E 0 80 61 00
        E 0 80 64 00
        E 160 90 40 60
        E 0 90 4c 60
        E 0 90 58 60
        E 0 90 64 60
        E 80 80 40 00
        E 0 80 4c 00
        E 0 80 58 00
        E 0 80 64 00
        E 80 90 61 60
        E 80 80 61 00
        E 0 90 54 60
        E 0 90 58 60
        E 0 90 60 60
        E 0 90 64 60
        E 80 80 54 00
        E 0 80 58 00
        E 0 80 60 00
        E 0 80 64 00
        E 160 90 40 60
        E 0 90 48 60
        E 0 90 4c 60
        E 0 90 54 60
        E 0 90 58 60
        E 0 90 60 60
        E 0 90 64 60
        E 80 80 40 00
        E 0 80 48 00
        E 0 80 4c 00
        E 0 80 54 00
        E 0 80 58 00
        E 0 80 60 00
        E 0 80 64 00
        E 160 90 54 60
        E 0 90 58 60
        E 0 90 60 60
        E 0 90 64 60
        E 80 80 54 00
        E 0 80 58 00
        E 0 80 60 00
        E 0 80 64 00
        E 160 90 40 60
        E 0 90 4c 60
        E 0 90 58 60
        E 0 90 64 60
        E 80 80 40 00
        E 0 80 4c 00
        E 0 80 58 00
        E 0 80 64 00
        E 0 90 60 60
        E 80 80 60 00
        E 80 90 55 60
        E 0 90 58 60
        E 0 90 61 60
        E 0 90 64 60
        E 80 80 55 00
        E 0 80 58 00
        E 0 80 61 00
        E 0 80 64 00
        E 160 90 40 60
        E 0 90 4c 60
        E 0 90 58 60
        E 0 90 64 60
        E 80 80 40 00
        E 0 80 4c 00
        E 0 80 58 00
        E 0 80 64 00
        E 80 90 61 60
        E 80 80 61 00
        E 0 90 54 60
        E 0 90 58 60
        E 0 90 60 60
        E 0 90 64 60
        E 80 80 54 00
        E 0 80 58 00
        E 0 80 60 00
        E 0 80 64 00
        E 160 90 40 60
        E 0 90 48 60
        E 0 90 4c 60
        E 0 90 54 60
        E 0 90 58 60
        E 0 90 60 60
        E 0 90 64 60
        E 80 80 40 00
        E 0 80 48 00
        E 0 80 4c 00
        E 0 80 54 00
        E 0 80 58 00
        E 0 80 60 00
        E 0 80 64 00
        E 160 90 54 60
        E 0 90 58 60
        E 0 90 60 60
        E 0 90 64 60
        E 80 80 54 00
        E 0 80 58 00
        E 0 80 60 00
        E 0 80 64 00
        E 160 90 40 60
        E 0 90 4c 60
        E 0 90 58 60
        E 0 90 64 60
        E 80 80 40 00
        E 0 80 4c 00
        E 0 80 58 00
        E 0 80 64 00
        E 0 90 60 60
        E 80 80 60 00
        E 0 90 60 60
        E 80 80 60 00
        E 0 90 55 60
        E 0 90 58 60
        E 0 90 61 60
        E 0 90 64 60
        E 120 80 55 00
        E 0 80 58 00
        E 0 80 61 00
        E 0 80 64 00
        E 120 90 3f 60
        E 0 90 4b 60
        E 0 90 57 60
        E 0 90 63 60
        E 120 80 3f 00
        E 0 80 4b 00
        E 0 80 57 00
        E 0 80 63 00
        E 120 90 54 60
        E 0 90 58 60
        E 0 90 60 60
        E 0 90 64 60
        E 120 80 54 00
        E 0 80 58 00
        E 0 80 60 00
        E 0 80 64 00
        E 120 90 40 60
        E 0 90 48 60
        E 0 90 4c 60
        E 0 90 54 60
        E 0 90 58 60
        E 0 90 60 60
        E 0 90 64 60
        E 120 80 40 00
        E 0 80 48 00
        E 0 80 4c 00
        E 0 80 54 00
        E 0 80 58 00
        E 0 80 60 00
        E 0 80 64 00
        E 120 90 55 60
        E 0 90 61 60
        E 120 80 55 00
        E 0 80 61 00
        E 0 90 61 60
        E 120 80 61 00
        E 120 90 61 60
        E 120 80 61 00
        E 0 90 54 60
        E 0 90 58 60
        E 0 90 60 60
        E 0 90 64 60
        E 120 80 54 00
        E 0 80 58 00
        E 0 80 60 00
        E 0 80 64 00
        E 120 90 3d 60
        E 0 90 49 60
        E 0 90 54 60
        E 0 90 55 60
        E 0 90 60 60
        E 0 90 61 60
        E 120 80 3d 00
        E 0 80 49 00
        E 0 80 54 00
        E 0 80 55 00
        E 0 80 60 00
        E 0 80 61 00
        E 0 90 61 60
        E 120 80 61 00
        E 0 90 54 60
        E 0 90 55 60
        E 0 90 60 60
        E 0 90 61 60
        E 120 80 54 00
        E 0 80 55 00
        E 0 80 60 00
        E 0 80 61 00
        E 0 90 61 60
        E 120 80 74 00
        E 0 80 61 00
        E 0 90 40 60
        E 0 90 48 60
        E 0 90 4c 60
        E 0 90 54 60
        E 0 90 58 60
        E 0 90 60 60
        E 0 90 64 60
        E 80 80 40 00
        E 0 80 48 00
        E 0 80 4c 00
        E 0 80 54 00
        E 0 80 58 00
        E 0 80 60 00
        E 0 80 64 00
        E 160 90 54 60
        E 0 90 57 60
        E 0 90 60 60
        E 0 90 63 60
        E 80 80 54 00
        E 0 80 57 00
        E 0 80 60 00
        E 0 80 63 00
        E 160 90 3f 60
        E 0 90 4b 60
        E 0 90 57 60
        E 0 90 63 60
        E 80 80 3f 00
        E 0 80 4b 00
        E 0 80 57 00
        E 0 80 63 00
        E 0 90 60 60
        E 80 80 60 00
        E 0 90 60 60
        E 80 80 60 00
        E 0 90 55 60
        E 0 90 58 60
        E 0 90 61 60
        E 0 90 64 60
        E 80 80 55 00
        E 0 80 58 00
        E 0 80 61 00
        E 0 80 64 00
        E 280 90 61 60
        E 120 80 61 00
        E 0 90 54 60
        E 0 90 58 60
        E 0 90 60 60
        E 0 90 64 60
        E 80 80 54 00
        E 0 80 58 00
        E 0 80 60 00
        E 0 80 64 00
        E 160 90 40 60
        E 0 90 48 60
        E 0 90 4c 60
        E 0 90 54 60
        E 0 90 58 60
        E 0 90 60 60
        E 0 90 64 60
        E 80 80 40 00
        E 0 80 48 00
        E 0 80 4c 00
        E 0 80 54 00
        E 0 80 58 00
        E 0 80 60 00
        E 0 80 64 00
        E 160 90 54 60
        E 0 90 58 60
        E 0 90 60 60
        E 0 90 64 60
        E 80 80 54 00
        E 0 80 58 00
        E 0 80 60 00
        E 0 80 64 00
        E 160 90 40 60
        E 0 90 4c 60
        E 0 90 58 60
        E 0 90 64 60
        E 80 80 40 00
        E 0 80 4c 00
        E 0 80 58 00
        E 0 80 64 00
        E 0 90 60 60
        E 80 80 60 00
        E 0 90 60 60
        E 80 80 60 00
        E 0 90 55 60
        E 0 90 58 60
        E 0 90 61 60
        E 0 90 64 60
        E 80 80 55 00
        E 0 80 58 00
        E 0 80 61 00
        E 0 80 64 00
        E 160 90 3d 60
        E 0 90 49 60
        E 0 90 55 60
        E 0 90 61 60
        E 120 80 3d 00
        E 0 80 49 00
        E 0 80 55 00
        E 0 80 61 00
        E 0 90 61 60
        E 120 80 61 00
        E 0 90 55 60
        E 0 90 61 60
        E 120 80 55 00
        E 0 80 61 00
        E 0 90 61 60
        E 120 80 61 00
        E 0 90 40 60
        E 0 90 48 60
        E 0 90 4c 60
        E 0 90 54 60
        E 0 90 58 60
        E 0 90 60 60
        E 0 90 64 60
        E 80 80 40 00
        E 0 80 48 00
        E 0 80 4c 00
        E 0 80 54 00
        E 0 80 58 00
        E 0 80 60 00
        E 0 80 64 00
        E 160 90 54 60
        E 0 90 58 60
        E 0 90 60 60
        E 0 90 64 60
        E 80 80 54 00
        E 0 80 58 00
        E 0 80 60 00
        E 0 80 64 00
        E 160 90 40 60
        E 0 90 4c 60
        E 0 90 58 60
        E 0 90 64 60
        E 80 80 40 00
        E 0 80 4c 00
        E 0 80 58 00
        E 0 80 64 00
        E 0 90 60 60
        E 80 80 60 00
        E 0 90 60 60
        E 80 80 60 00
        E 0 90 55 60
        E 0 90 58 60
        E 0 90 61 60
        E 0 90 64 60
        E 80 80 55 00
        E 0 80 58 00
        E 0 80 61 00
        E 0 80 64 00
        E 400 90 54 60
        E 0 90 57 60
        E 0 90 60 60
        E 0 90 63 60
        E 80 80 54 00
        E 0 80 57 00
        E 0 80 60 00
        E 0 80 63 00
        E 160 90 40 60
        E 0 90 48 60
        E 0 90 4c 60
        E 0 90 54 60
        E 0 90 58 60
        E 0 90 60 60
        E 0 90 64 60
        E 0 90 78 60
        E 0 90 79 60
        E 0 90 7a 60
        E 0 90 7b 60
        E 0 90 7c 60
        E 120 80 40 00
        E 0 80 48 00
        E 0 80 4c 00
        E 0 80 54 00
        E 0 80 58 00
        E 0 80 60 00
        E 0 80 64 00
        E 120 90 55 60
        E 0 90 61 60
        E 80 80 55 00
        E 0 80 61 00
        E 0 90 61 60
        E 80 80 61 00
        E 0 90 61 60
        E 80 80 61 00
        E 0 90 3d 60
        E 0 90 49 60
        E 0 90 55 60
        E 0 90 61 60
        E 120 80 3d 00
        E 0 80 49 00
        E 0 80 55 00
        E 0 80 61 00
        E 0 90 61 60
        E 120 80 61 00
        E 0 90 54 60
        E 0 90 58 60
        E 0 90 60 60
        E 0 90 64 60
        E 120 80 54 00
        E 0 80 58 00
        E 0 80 60 00
        E 0 80 64 00
        E 120 90 3d 60
        E 0 90 49 60
        E 0 90 55 60
        E 0 90 61 60
        E 120 80 3d 00
        E 0 80 49 00
        E 0 80 55 00
        E 0 80 61 00
        E 0 90 61 60
        E 120 80 61 00
        E 0 90 55 60
        E 0 90 61 60
        E 120 80 55 00
        E 0 80 61 00
        E 0 90 61 60
        E 120 80 78 00
        E 0 80 79 00
        E 0 80 7a 00
        E 0 80 7b 00
        E 0 80 7c 00
        E 0 80 61 00
        E 0 90 40 60
        E 0 90 48 60
        E 0 90 4c 60
        E 0 90 54 60
        E 0 90 58 60
        E 0 90 60 60
        E 0 90 64 60
        E 120 80 40 00
        E 0 80 48 00
        E 0 80 4c 00
        E 0 80 54 00
        E 0 80 58 00
        E 0 80 60 00
        E 0 80 64 00
        E 120 90 55 60
        E 0 90 61 60
        E 120 80 55 00
        E 0 80 61 00
        E 0 90 60 60
        E 0 90 64 60
        E 120 80 60 00
        E 0 80 64 00
        E 120 90 61 60
        E 120 80 61 00
        E 0 90 54 60
        E 0 90 58 60
        E 0 90 60 60
        E 0 90 64 60
        E 120 80 54 00
        E 0 80 58 00
        E 0 80 60 00
        E 0 80 64 00
        E 120 90 3d 60
        E 0 90 49 60
        E 0 90 55 60
        E 0 90 61 60
        E 120 80 3d 00
        E 0 80 49 00
        E 0 80 55 00
        E 0 80 61 00
        E 0 90 60 60
        E 0 90 62 60
        E 120 80 60 00
        E 0 80 62 00
        E 120 90 61 60
        E 120 80 61 00
        E 0 90 40 60
        E 0 90 48 60
        E 0 90 4c 60
        E 0 90 54 60
        E 0 90 58 60
        E 0 90 60 60
        E 0 90 64 60
        E 120 80 40 00
        E 0 80 48 00
        E 0 80 4c 00
        E 0 80 54 00
        E 0 80 58 00
        E 0 80 60 00
        E 0 80 64 00
        E 120 90 55 60
        E 0 90 61 60
        E 120 80 55 00
        E 0 80 61 00
        E 0 90 60 60
        E 0 90 64 60
        E 120 80 60 00
        E 0 80 64 00
        E 120 90 61 60
        E 120 80 61 00
        E 0 90 54 60
        E 0 90 58 60
        E 0 90 60 60
        E 0 90 64 60
        E 120 80 54 00
        E 0 80 58 00
        E 0 80 60 00
        E 0 80 64 00
        E 120 90 3d 60
        E 0 90 49 60
        E 0 90 55 60
        E 0 90 61 60
        E 120 80 3d 00
        E 0 80 49 00
        E 0 80 55 00
        E 0 80 61 00
        E 0 90 60 60
        E 0 90 62 60
        E 120 80 60 00
        E 0 80 62 00
        E 120 90 61 60
        E 120 80 61 00
        E 0 90 40 60
        E 0 90 48 60
        E 0 90 4c 60
        E 0 90 54 60
        E 0 90 58 60
        E 0 90 60 60
        E 0 90 64 60
        E 120 80 40 00
        E 0 80 48 00
        E 0 80 4c 00
        E 0 80 54 00
        E 0 80 58 00
        E 0 80 60 00
        E 0 80 64 00
        E 120 90 55 60
        E 0 90 61 60
        E 120 80 55 00
        E 0 80 61 00
        E 0 90 60 60
        E 0 90 64 60
        E 120 80 60 00
        E 0 80 64 00
        E 80 90 60 60
        E 80 80 60 00
        E 0 90 60 60
        E 80 80 60 00
        E 0 90 3d 60
        E 0 90 49 60
        E 0 90 4c 60
        E 0 90 55 60
        E 0 90 58 60
        E 0 90 61 60
        E 0 90 64 60
        E 120 80 3d 00
        E 0 80 49 00
        E 0 80 4c 00
        E 0 80 55 00
        E 0 80 58 00
        E 0 80 61 00
        E 0 80 64 00
        E 360 90 54 60
        E 0 90 58 60
        E 0 90 60 60
        E 0 90 64 60
        E 120 80 54 00
        E 0 80 58 00
        E 0 80 60 00
        E 0 80 64 00
        E 120 90 3d 60
        E 0 90 49 60
        E 0 90 55 60
        E 0 90 61 60
        E 0 90 78 60
        E 0 90 79 60
        E 0 90 7a 60
        E 0 90 7b 60
        E 0 90 7c 60
        E 60 80 3d 00
        E 0 80 49 00
        E 0 80 55 00
        E 0 80 61 00
        E 0 90 61 60
        E 60 80 61 00
        E 0 90 61 60
        E 120 80 61 00
        E 0 90 55 60
        E 0 90 61 60
        E 120 80 55 00
        E 0 80 61 00
        E 0 90 61 60
        E 120 80 61 00
        E 0 90 3e 60
        E 0 90 4a 60
        E 0 90 54 60
        E 0 90 56 60
        E 0 90 60 60
        E 0 90 62 60
        E 0 90 6e 60
        E 120 80 3e 00
        E 0 80 4a 00
        E 0 80 54 00
        E 0 80 56 00
        E 0 80 60 00
        E 0 80 62 00
        E 0 80 6e 00
        E 120 90 54 60
        E 0 90 55 60
        E 0 90 60 60
        E 0 90 61 60
        E 120 80 54 00
        E 0 80 55 00
        E 0 80 60 00
        E 0 80 61 00
        E 0 90 61 60
        E 120 80 61 00
        E 0 90 3e 60
        E 0 90 4a 60
        E 0 90 54 60
        E 0 90 56 60
        E 0 90 60 60
        E 0 90 62 60
        E 0 90 6e 60
        E 120 80 3e 00
        E 0 80 4a 00
        E 0 80 54 00
        E 0 80 56 00
        E 0 80 60 00
        E 0 80 62 00
        E 0 80 6e 00
        E 0 90 62 60
        E 0 90 6e 60
        E 120 80 62 00
        E 0 80 6e 00
        E 0 90 54 60
        E 0 90 57 60
        E 0 90 60 60
        E 0 90 63 60
        E 0 90 6f 60
        E 120 80 54 00
        E 0 80 57 00
        E 0 80 60 00
        E 0 80 63 00
        E 0 80 6f 00
        E 0 90 63 60
        E 0 90 6f 60
        E 120 80 78 00
        E 0 80 79 00
        E 0 80 7a 00
        E 0 80 7b 00
        E 0 80 7c 00
        E 0 80 63 00
        E 0 80 6f 00
        E 0 90 40 60
        E 0 90 48 60
        E 0 90 4c 60
        E 0 90 54 60
        E 0 90 58 60
        E 0 90 60 60
        E 0 90 64 60
        E 120 80 40 00
        E 0 80 48 00
        E 0 80 4c 00
        E 0 80 54 00
        E 0 80 58 00
        E 0 80 60 00
        E 0 80 64 00
        E 120 90 54 60
        E 0 90 57 60
        E 0 90 60 60
        E 0 90 63 60
        E 120 80 54 00
        E 0 80 57 00
        E 0 80 60 00
        E 0 80 63 00
        E 120 90 3f 60
        E 0 90 4b 60
        E 0 90 57 60
        E 0 90 63 60
        E 80 80 3f 00
        E 0 80 4b 00
        E 0 80 57 00
        E 0 80 63 00
        E 0 90 60 60
        E 80 80 60 00
        E 0 90 60 60
        E 80 80 60 00
        E 0 90 55 60
        E 0 90 58 60
        E 0 90 61 60
        E 0 90 64 60
        E 120 80 55 00
        E 0 80 58 00
        E 0 80 61 00
        E 0 80 64 00
        E 240 90 61 60
        E 120 80 61 00
        E 0 90 54 60
        E 0 90 57 60
        E 0 90 60 60
        E 0 90 63 60
        E 120 80 54 00
        E 0 80 57 00
        E 0 80 60 00
        E 0 80 63 00
        E 120 90 3f 60
        E 0 90 48 60
        E 0 90 4b 60
        E 0 90 54 60
        E 0 90 57 60
        E 0 90 60 60
        E 0 90 63 60
        E 120 80 3f 00
        E 0 80 48 00
        E 0 80 4b 00
        E 0 80 54 00
        E 0 80 57 00
        E 0 80 60 00
        E 0 80 63 00
        E 120 90 54 60
        E 0 90 57 60
        E 0 90 60 60
        E 0 90 63 60
        E 120 80 54 00
        E 0 80 57 00
        E 0 80 60 00
        E 0 80 63 00
        E 120 90 3f 60
        E 0 90 4b 60
        E 0 90 57 60
        E 0 90 63 60
        E 80 90 60 60
        E 40 80 3f 00
        E 0 80 4b 00
        E 0 80 57 00
        E 0 80 63 00
        E 40 80 60 00
        E 0 90 60 60
        E 80 80 60 00
        E 0 90 55 60
        E 0 90 58 60
        E 0 90 61 60
        E 0 90 64 60
        E 120 80 55 00
        E 0 80 58 00
        E 0 80 61 00
        E 0 80 64 00
        E 120 90 3f 60
        E 0 90 4b 60
        E 0 90 57 60
        E 0 90 63 60
        E 120 80 3f 00
        E 0 80 4b 00
        E 0 80 57 00
        E 0 80 63 00
        E 120 90 54 60
        E 0 90 57 60
        E 0 90 60 60
        E 0 90 63 60
        E 120 80 54 00
        E 0 80 57 00
        E 0 80 60 00
        E 0 80 63 00
        E 120 90 3f 60
        E 0 90 48 60
        E 0 90 4b 60
        E 0 90 54 60
        E 0 90 57 60
        E 0 90 60 60
        E 0 90 63 60
        E 120 80 3f 00
        E 0 80 48 00
        E 0 80 4b 00
        E 0 80 54 00
        E 0 80 57 00
        E 0 80 60 00
        E 0 80 63 00
        E 120 90 54 60
        E 0 90 57 60
        E 0 90 60 60
        E 0 90 63 60
        E 120 80 54 00
        E 0 80 57 00
        E 0 80 60 00
        E 0 80 63 00
        E 120 90 3f 60
        E 0 90 4b 60
        E 0 90 57 60
        E 0 90 63 60
        E 80 80 3f 00
        E 0 80 4b 00
        E 0 80 57 00
        E 0 80 63 00
        E 0 90 60 60
        E 80 80 60 00
        E 0 90 60 60
        E 80 80 60 00
        E 0 90 55 60
        E 0 90 58 60
        E 0 90 61 60
        E 0 90 64 60
        E 120 80 55 00
        E 0 80 58 00
        E 0 80 61 00
        E 0 80 64 00
        E 360 90 54 60
        E 0 90 57 60
        E 0 90 60 60
        E 0 90 63 60
        E 120 80 54 00
        E 0 80 57 00
        E 0 80 60 00
        E 0 80 63 00
        E 120 90 40 60
        E 0 90 48 60
        E 0 90 4c 60
        E 0 90 54 60
        E 0 90 58 60
        E 0 90 60 60
        E 0 90 64 60
        E 120 80 40 00
        E 0 80 48 00
        E 0 80 4c 00
        E 0 80 54 00
        E 0 80 58 00
        E 0 80 60 00
        E 0 80 64 00
        E 120 90 55 60
        E 0 90 61 60
        E 80 80 55 00
        E 0 80 61 00
        E 0 90 61 60
        E 80 80 61 00
        E 0 90 61 60
        E 80 80 61 00
        E 0 90 3d 60
        E 0 90 49 60
        E 0 90 55 60
        E 0 90 61 60
        E 80 80 3d 00
        E 0 80 49 00
        E 0 80 55 00
        E 0 80 61 00
        E 0 90 61 60
        E 80 80 61 00
        E 0 90 61 60
        E 80 80 61 00
        E 0 90 54 60
        E 0 90 58 60
        E 0 90 60 60
        E 0 90 64 60
        E 120 80 54 00
        E 0 80 58 00
        E 0 80 60 00
        E 0 80 64 00
        E 120 90 3d 60
        E 0 90 49 60
        E 0 90 55 60
        E 0 90 61 60
        E 80 80 3d 00
        E 0 80 49 00
        E 0 80 55 00
        E 0 80 61 00
        E 0 90 61 60
        E 80 80 61 00
        E 0 90 61 60
        E 80 80 61 00
        E 0 90 55 60
        E 0 90 61 60
        E 120 80 55 00
        E 0 80 61 00
        E 120 90 3d 60
        E 0 90 49 60
        E 0 90 54 60
        E 0 90 55 60
        E 0 90 60 60
        E 0 90 61 60
        E 120 80 3d 00
        E 0 80 49 00
        E 0 80 54 00
        E 0 80 55 00
        E 0 80 60 00
        E 0 80 61 00
        E 0 90 61 60
        E 120 80 61 00
        E 0 90 54 60
        E 0 90 55 60
        E 0 90 60 60
        E 0 90 61 60
        E 120 80 54 00
        E 0 80 55 00
        E 0 80 60 00
        E 0 80 61 00
        E 0 90 61 60
        E 120 80 61 00
        E 0 90 3d 60
        E 0 90 49 60
        E 0 90 54 60
        E 0 90 55 60
        E 0 90 60 60
        E 0 90 61 60
        E 120 80 3d 00
        E 0 80 49 00
        E 0 80 54 00
        E 0 80 55 00
        E 0 80 60 00
        E 0 80 61 00
        E 0 90 61 60
        E 120 80 61 00
        E 0 90 54 60
        E 0 90 55 60
        E 0 90 60 60
        E 0 90 61 60
        E 120 80 54 00
        E 0 80 55 00
        E 0 80 60 00
        E 0 80 61 00
        E 0 90 61 60
        E 120 80 61 00
        E 0 90 3d 60
        E 0 90 49 60
        E 0 90 54 60
        E 0 90 55 60
        E 0 90 60 60
        E 0 90 61 60
        E 120 80 3d 00
        E 0 80 49 00
        E 0 80 54 00
        E 0 80 55 00
        E 0 80 60 00
        E 0 80 61 00
        E 120 90 54 60
        E 0 90 55 60
        E 0 90 60 60
        E 0 90 61 60
        E 120 80 54 00
        E 0 80 55 00
        E 0 80 60 00
        E 0 80 61 00
        E 120 90 3d 60
        E 0 90 49 60
        E 0 90 54 60
        E 0 90 55 60
        E 0 90 60 60
        E 0 90 61 60
        E 120 80 3d 00
        E 0 80 49 00
        E 0 80 54 00
        E 0 80 55 00
        E 0 80 60 00
        E 0 80 61 00
        E 0 90 61 60
        E 120 80 61 00
        E 0 90 54 60
        E 0 90 55 60
        E 0 90 60 60
        E 0 90 61 60
        E 120 80 54 00
        E 0 80 55 00
        E 0 80 60 00
        E 0 80 61 00
        E 0 90 61 60
        E 120 80 61 00
        E 0 90 3d 60
        E 0 90 49 60
        E 0 90 54 60
        E 0 90 55 60
        E 0 90 60 60
        E 0 90 61 60
        E 120 80 3d 00
        E 0 80 49 00
        E 0 80 54 00
        E 0 80 55 00
        E 0 80 60 00
        E 0 80 61 00
        E 0 90 61 60
        E 120 80 61 00
        E 0 90 54 60
        E 0 90 55 60
        E 0 90 60 60
        E 0 90 61 60
        E 120 80 54 00
        E 0 80 55 00
        E 0 80 60 00
        E 0 80 61 00
        E 0 90 61 60
        E 120 80 61 00
        E 0 90 3d 60
        E 0 90 49 60
        E 0 90 54 60
        E 0 90 55 60
        E 0 90 60 60
        E 0 90 61 60
        E 120 80 3d 00
        E 0 80 49 00
        E 0 80 54 00
        E 0 80 55 00
        E 0 80 60 00
        E 0 80 61 00
        E 120 90 54 60
        E 0 90 55 60
        E 0 90 60 60
        E 0 90 61 60
        E 120 80 54 00
        E 0 80 55 00
        E 0 80 60 00
        E 0 80 61 00
        E 120 90 3d 60
        E 0 90 49 60
        E 0 90 54 60
        E 0 90 55 60
        E 0 90 60 60
        E 0 90 61 60
        E 120 80 3d 00
        E 0 80 49 00
        E 0 80 54 00
        E 0 80 55 00
        E 0 80 60 00
        E 0 80 61 00
        E 0 90 61 60
        E 120 80 61 00
        E 0 90 54 60
        E 0 90 55 60
        E 0 90 60 60
        E 0 90 61 60
        E 120 80 54 00
        E 0 80 55 00
        E 0 80 60 00
        E 0 80 61 00
        E 0 90 61 60
        E 120 80 61 00
        E 0 90 3d 60
        E 0 90 49 60
        E 0 90 54 60
        E 0 90 55 60
        E 0 90 60 60
        E 0 90 61 60
        E 120 80 3d 00
        E 0 80 49 00
        E 0 80 54 00
        E 0 80 55 00
        E 0 80 60 00
        E 0 80 61 00
        E 0 90 61 60
        E 120 80 61 00
        E 0 90 54 60
        E 0 90 55 60
        E 0 90 60 60
        E 0 90 61 60
        E 120 80 54 00
        E 0 80 55 00
        E 0 80 60 00
        E 0 80 61 00
        E 0 90 61 60
        E 120 80 61 00
        E 0 90 3d 60
        E 0 90 49 60
        E 0 90 54 60
        E 0 90 55 60
        E 0 90 60 60
        E 0 90 61 60
        E 120 80 3d 00
        E 0 80 49 00
        E 0 80 54 00
        E 0 80 55 00
        E 0 80 60 00
        E 0 80 61 00
        E 120 90 54 60
        E 0 90 55 60
        E 0 90 60 60
        E 0 90 61 60
        E 120 80 54 00
        E 0 80 55 00
        E 0 80 60 00
        E 0 80 61 00
        E 120 90 3d 60
        E 0 90 49 60
        E 0 90 54 60
        E 0 90 55 60
        E 0 90 60 60
        E 0 90 61 60
        E 120 80 3d 00
        E 0 80 49 00
        E 0 80 54 00
        E 0 80 55 00
        E 0 80 60 00
        E 0 80 61 00
        E 0 90 61 60
        E 120 80 61 00
        E 0 90 54 60
        E 0 90 55 60
        E 0 90 60 60
        E 0 90 61 60
        E 120 80 54 00
        E 0 80 55 00
        E 0 80 60 00
        E 0 80 61 00
        E 0 90 61 60
        E 120 80 61 00
        E 0 90 3d 60
        E 0 90 49 60
        E 0 90 54 60
        E 0 90 55 60
        E 0 90 60 60
        E 0 90 61 60
        E 120 80 3d 00
        E 0 80 49 00
        E 0 80 54 00
        E 0 80 55 00
        E 0 80 60 00
        E 0 80 61 00
        E 0 90 61 60
        E 120 80 61 00
        E 0 90 54 60
        E 0 90 55 60
        E 0 90 60 60
        E 0 90 61 60
        E 120 80 54 00
        E 0 80 55 00
        E 0 80 60 00
        E 0 80 61 00
        E 0 90 61 60
        E 120 80 61 00
        E 0 90 3d 60
        E 0 90 49 60
        E 0 90 54 60
        E 0 90 55 60
        E 0 90 60 60
        E 0 90 61 60
        E 120 80 3d 00
        E 0 80 49 00
        E 0 80 54 00
        E 0 80 55 00
        E 0 80 60 00
        E 0 80 61 00
        E 120 90 54 60
        E 0 90 55 60
        E 0 90 60 60
        E 0 90 61 60
        E 120 80 54 00
        E 0 80 55 00
        E 0 80 60 00
        E 0 80 61 00
        E 120 90 3d 60
        E 0 90 49 60
        E 0 90 54 60
        E 0 90 55 60
        E 0 90 60 60
        E 0 90 61 60
        E 120 80 3d 00
        E 0 80 49 00
        E 0 80 54 00
        E 0 80 55 00
        E 0 80 60 00
        E 0 80 61 00
        E 0 90 61 60
        E 120 80 61 00
        E 0 90 54 60
        E 0 90 55 60
        E 0 90 60 60
        E 0 90 61 60
        E 120 80 54 00
        E 0 80 55 00
        E 0 80 60 00
        E 0 80 61 00
        E 0 90 61 60
        E 120 80 61 00
        E 0 90 3c 60
        E 0 90 48 60
        E 0 90 54 60
        E 0 90 60 60
        E 120 80 3c 00
        E 0 80 48 00
        E 0 80 54 00
        E 0 80 60 00
        E 120 90 54 60
        E 0 90 55 60
        E 0 90 60 60
        E 0 90 61 60
        E 120 80 54 00
        E 0 80 55 00
        E 0 80 60 00
        E 0 80 61 00
        E 0 90 61 60
        E 120 80 61 00
        E 0 90 3d 60
        E 0 90 49 60
        E 0 90 54 60
        E 0 90 55 60
        E 0 90 60 60
        E 0 90 61 60
        E 120 80 3d 00
        E 0 80 49 00
        E 0 80 54 00
        E 0 80 55 00
        E 0 80 60 00
        E 0 80 61 00
        E 0 90 61 60
        E 120 80 61 00
        E 0 90 54 60
        E 0 90 60 60
        E 120 80 54 00
        E 0 80 60 00
        E 120 90 3d 60
        E 0 90 49 60
        E 0 90 54 60
        E 0 90 55 60
        E 0 90 60 60
        E 0 90 61 60
        E 120 80 3d 00
        E 0 80 49 00
        E 0 80 54 00
        E 0 80 55 00
        E 0 80 60 00
        E 0 80 61 00
        E 0 90 61 60
        E 120 80 61 00
        E 0 90 54 60
        E 0 90 55 60
        E 0 90 60 60
        E 0 90 61 60
        E 120 80 54 00
        E 0 80 55 00
        E 0 80 60 00
        E 0 80 61 00
        E 0 90 61 60
        E 120 80 61 00
        E 0 90 3c 60
        E 0 90 48 60
        E 0 90 54 60
        E 0 90 60 60
        E 120 80 3c 00
        E 0 80 48 00
        E 0 80 54 00
        E 0 80 60 00
        E 0 90 61 60
        E 120 80 61 00
        E 0 90 54 60
        E 0 90 58 60
        E 0 90 60 60
        E 0 90 64 60
        E 120 80 54 00
        E 0 80 58 00
        E 0 80 60 00
        E 0 80 64 00
        E 120 90 3d 60
        E 0 90 49 60
        E 0 90 55 60
        E 0 90 61 60
        E 120 80 3d 00
        E 0 80 49 00
        E 0 80 55 00
        E 0 80 61 00
        E 0 90 60 60
        E 0 90 64 60
        E 120 80 60 00
        E 0 80 64 00
        <X 480 0
          /wFbaWRsZV9yZWFsdGltZV0=
        >
        E 9840 b0 7b 00
        GUID {99C52F88-C54B-4CCD-B038-A5C950AC8E6E}
        IGNTEMPO 0 120 4 4
        SRCCOLOR 1
        VELLANE 132 38 60
        COLORMAP "C:\Program Files (x86)\REAPER\Data\color_maps\rockband_drums.png"
        TEXTSTRINGFILE "Text Events List.txt"
        CFGEDITVIEW 40883.983381 565.049589 8 12 0 -1 0 0 0 0.5
        KEYSNAP 0
        TRACKSEL 0
        EVTFILTER 0 -1 -1 -1 -1 0 1 0 0 -1 -1 -1 -1 0 -1 0 -1 -1
        CFGEDIT 1 1 0 0 0 1 1 1 1 1 1 0.08333333 275 172 1645 908 0 2 1 2 0 0 0 0 0 0.5 1 0 1 64
      >
    >
  >
  <TRACK {6B7F9B4B-FF4E-4CE6-9E2D-4C9BD5DAED77}
    NAME "PART GUITAR"
    PEAKCOL 33488896
    BEAT -1
    AUTOMODE 0
    VOLPAN 1 0 -1 -1 1
    MUTESOLO 0 0 0
    IPHASE 0
    ISBUS 0 0
    BUSCOMP 1 0
    SHOWINMIX 1 0.6667 0.5 1 0.5 0 0 0
    FREEMODE 0
    SEL 0
    REC 0 4096 1 7 0 0 0
    TRACKHEIGHT 0 0
    INQ 0 0 0 0.5 100 0 0 100
    NCHAN 2
    FX 1
    TRACKID {6B7F9B4B-FF4E-4CE6-9E2D-4C9BD5DAED77}
    PERF 0
    MIDIOUT -1
    <MIDINOTENAMES
      0 40 "Left Hand Lowest" 0 40
      0 41 - 0 41
      0 42 - 0 42
      0 43 - 0 43
      0 44 - 0 44
      0 45 - 0 45
      0 46 - 0 46
      0 47 - 0 47
      0 48 - 0 48
      0 49 - 0 49
      0 50 - 0 50
      0 51 - 0 51
      0 52 - 0 52
      0 53 - 0 53
      0 54 - 0 54
      0 55 - 0 55
      0 56 - 0 56
      0 57 - 0 57
      0 58 - 0 58
      0 59 "Left Hand Highest" 0 59
      0 60 "EASY Green" 0 60
      0 61 "EASY Red" 0 61
      0 62 "EASY Yellow" 0 62
      0 63 "EASY Blue" 0 63
      0 64 "EASY Orange" 0 64
      0 65 ---- 0 65
      0 72 "MEDIUM Green" 0 72
      0 73 "MEDIUM Red" 0 73
      0 74 "MEDIUM Yellow" 0 74
      0 75 "MEDIUM Blue" 0 75
      0 76 "MEDIUM Orange" 0 76
      0 77 ---- 0 77
      0 84 "HARD Green" 0 84
      0 85 "HARD Red" 0 85
      0 86 "HARD Yellow" 0 86
      0 87 "HARD Blue" 0 87
      0 88 "HARD Orange" 0 88
      0 89 "Force HOPO On" 0 89
      0 90 "Force HOPO Off" 0 90
      0 95 ---- 0 95
      0 96 "EXPERT Green" 0 96
      0 97 "EXPERT Red" 0 97
      0 98 "EXPERT Yellow" 0 98
      0 99 "EXPERT Blue" 0 99
      0 100 "EXPERT Orange" 0 100
      0 101 "Force HOPO On" 0 101
      0 102 "Force HOPO Off" 0 102
      0 103 "Solo Marker" 0 103
      0 115 ---- 0 115
      0 116 OVERDRIVE 0 116
      0 119 ---- 0 119
      0 120 "BRE (use all 5)" 0 120
      0 121 BRE 0 121
      0 122 BRE 0 122
      0 123 BRE 0 123
      0 124 BRE 0 124
      0 125 ---- 0 125
      0 127 "Trill Marker" 0 127
    >
    MAINSEND 1 0
    <FXCHAIN
      WNDRECT 0 38 878 585
      SHOW 0
      LASTSEL 1
      DOCKED 0
      BYPASS 1 0 0
      <VST "VSTi: ReaSynth (Cockos)" reasynth.dll 0 "" 1919251321
        eXNlcu9e7f4AAAAAAgAAAAEAAAAAAAAAAgAAAAAAAAA8AAAAAAAAAAAAAAA=
        776t3g3wrd4AAAAAAAAAAAAAAAAAAAAAObRIPn3L2z61tLE5AAAAALbz/T5VpCs6AAAAAAAAAAAAAIA/
        AAAAAAAA
      >
      FLOATPOS 0 0 0 0
      FXID {52B28C73-185B-48E4-B8F4-1FD7A8848B0F}
      WAK 0
      BYPASS 0 0 0
      <VST "VSTi: RBN Preview (RBN)" rbprev_vst.dll 0 "" ""
        dnBicu5e7f4AAAAAAgAAAAEAAAAAAAAAAgAAAAAAAAAEAAAAAQAAAAAAAAADAKoAAAAAAAAA
      >
      FLOATPOS 32 32 659 497
      FXID {190BBB08-7A86-476B-BD07-5F71F5CD6F7C}
      WAK 0
    >
    <ITEM
      POSITION 0
      SNAPOFFS 0
      LENGTH 177.06791585015557
      LOOP 0
      ALLTAKES 0
      FADEIN 1 0 0 1 0 0
      FADEOUT 1 0 0 1 0 0
      MUTE 0
      SEL 0
      IGUID {81210F06-DA35-41E7-BA75-C6E1C5689733}
      IID 10
      NAME "PART GUITAR"
      VOLPAN 1 0 1 -1
      SOFFS 0 0
      PLAYRATE 1 1 0 -65536 0 0.0025
      CHANMODE 0
      GUID {61757875-B3D4-49E4-8483-EE351B7D2386}
      <SOURCE MIDI
        HASDATA 1 480 QN
        POOLEDEVTS {428A7AD8-15CA-4A27-A477-CEF932E0C5B4}
        <X 0 0
          /wNQQVJUIEdVSVRBUg==
        >
        <X 3600 0
          /wFbaWRsZV9yZWFsdGltZV0=
        >
        <X 480 0
          /wFbcGxheV0=
        >
        E 240 90 62 60
        E 0 90 64 60
        E 120 80 62 00
        E 0 80 64 00
        E 120 90 60 60
        E 120 80 60 00
        E 0 90 60 60
        E 120 80 60 00
        E 0 90 60 60
        E 120 80 60 00
        E 0 90 60 60
        E 120 80 60 00
        E 0 90 62 60
        E 0 90 64 60
        E 120 80 62 00
        E 0 80 64 00
        E 120 90 61 60
        E 0 90 63 60
        E 120 80 61 00
        E 0 80 63 00
        E 120 90 62 60
        E 0 90 64 60
        E 120 80 62 00
        E 0 80 64 00
        E 120 90 63 60
        E 0 90 64 60
        E 440 80 63 00 40
        E 0 80 64 00 40
        E 120 90 64 60
        E 80 80 64 00
        E 80 90 63 60
        E 600 80 63 00
        E 120 90 62 60
        E 600 80 62 00
        E 120 90 61 60
        E 600 80 61 00
        E 120 90 62 60
        E 0 90 64 60
        E 120 80 62 00
        E 0 80 64 00
        E 120 90 60 60
        E 120 80 60 00
        E 0 90 60 60
        E 120 80 60 00
        E 0 90 60 60
        E 120 80 60 00
        E 0 90 60 60
        E 120 80 60 00
        E 0 90 62 60
        E 0 90 64 60
        E 120 80 62 00
        E 0 80 64 00
        E 120 90 60 60
        E 0 90 61 60
        E 120 80 60 00
        E 0 80 61 00
        E 120 90 61 60
        E 0 90 62 60
        E 120 80 61 00
        E 0 80 62 00
        E 120 90 61 60
        E 0 90 63 60
        E 1080 80 61 00
        E 0 80 63 00
        E 120 90 60 60
        E 0 90 62 60
        E 0 90 65 60
        E 120 80 60 00
        E 0 80 62 00
        E 0 80 65 00
        E 120 90 60 60
        E 0 90 62 60
        E 1320 80 60 00
        E 0 80 62 00
        E 120 90 62 60
        E 0 90 64 60
        E 120 80 62 00
        E 0 80 64 00
        E 120 90 60 60
        E 120 80 60 00
        E 0 90 60 60
        E 120 80 60 00
        E 0 90 60 60
        E 120 80 60 00
        E 0 90 60 60
        E 120 80 60 00
        E 0 90 62 60
        E 0 90 64 60
        E 120 80 62 00
        E 0 80 64 00
        E 120 90 61 60
        E 0 90 63 60
        E 120 80 61 00
        E 0 80 63 00
        E 120 90 62 60
        E 0 90 64 60
        E 120 80 62 00
        E 0 80 64 00
        E 120 90 63 60
        E 0 90 64 60
        E 440 80 63 00
        E 0 80 64 00
        E 120 90 64 60
        E 80 80 64 00
        E 80 90 63 60
        E 600 80 63 00
        E 120 90 62 60
        E 600 80 62 00
        E 120 90 61 60
        E 600 80 61 00
        E 120 90 62 60
        E 0 90 64 60
        E 120 80 62 00
        E 0 80 64 00
        E 120 90 60 60
        E 120 80 60 00
        E 0 90 60 60
        E 120 80 60 00
        E 0 90 60 60
        E 120 80 60 00
        E 0 90 60 60
        E 120 80 60 00
        E 0 90 62 60
        E 0 90 64 60
        E 120 80 62 00
        E 0 80 64 00
        E 120 90 60 60
        E 0 90 61 60
        E 120 80 60 00
        E 0 80 61 00
        E 120 90 61 60
        E 0 90 62 60
        E 120 80 61 00
        E 0 80 62 00
        E 120 90 61 60
        E 0 90 63 60
        E 1080 80 61 00
        E 0 80 63 00
        E 120 90 60 60
        E 0 90 62 60
        E 0 90 65 60
        E 120 80 60 00
        E 0 80 62 00
        E 0 80 65 00
        E 120 90 60 60
        E 0 90 62 60
        E 1320 80 60 00
        E 0 80 62 00
        <X 120 0
          /wFbaW50ZW5zZV0=
        >
        E 0 90 62 60
        E 120 80 62 00
        E 0 90 61 60
        E 120 80 61 00
        E 0 90 60 60
        E 120 80 60 00
        E 0 90 62 60
        E 120 80 62 00
        E 0 90 61 60
        E 120 80 61 00
        E 0 90 60 60
        E 120 80 60 00
        E 0 90 62 60
        E 120 80 62 00
        E 0 90 61 60
        E 120 80 61 00
        E 0 90 64 60
        E 120 80 64 00
        E 120 90 64 60
        E 120 80 64 00
        E 120 90 62 60
        E 120 80 62 00
        E 0 90 61 60
        E 120 80 61 00
        E 0 90 60 60
        E 120 80 60 00
        E 0 90 62 60
        E 120 80 62 00
        E 0 90 61 60
        E 120 80 61 00
        E 0 90 60 60
        E 120 80 60 00
        E 0 90 62 60
        E 120 80 62 00
        E 0 90 61 60
        E 120 80 61 00
        E 0 90 63 60
        E 120 80 63 00
        E 120 90 63 60
        E 120 80 63 00
        E 120 90 62 60
        E 120 80 62 00
        E 0 90 61 60
        E 120 80 61 00
        E 0 90 60 60
        E 120 80 60 00
        E 0 90 62 60
        E 120 80 62 00
        E 0 90 61 60
        E 120 80 61 00
        E 0 90 60 60
        E 120 80 60 00
        E 0 90 62 60
        E 120 80 62 00
        E 0 90 61 60
        E 120 80 61 00
        E 0 90 64 60
        E 120 80 64 00
        E 120 90 64 60
        E 120 80 64 00
        E 120 90 62 60
        E 120 80 62 00
        E 0 90 61 60
        E 120 80 61 00
        E 0 90 60 60
        E 120 80 60 00
        E 0 90 62 60
        E 120 80 62 00
        E 0 90 61 60
        E 120 80 61 00
        E 0 90 60 60
        E 120 80 60 00
        E 0 90 62 60
        E 120 80 62 00
        E 0 90 61 60
        E 120 80 61 00
        E 0 90 63 60
        E 120 80 63 00
        E 120 90 63 60
        E 120 80 63 00
        <X 120 0
          /wFbcGxheV0=
        >
        E 0 90 62 60
        E 0 90 64 60
        E 120 80 62 00
        E 0 80 64 00
        E 120 90 60 60
        E 0 90 66 60
        E 120 80 60 00
        E 0 90 60 60
        E 120 80 60 00
        E 0 90 60 60
        E 120 80 60 00
        E 0 90 60 60
        E 120 80 60 00
        E 0 90 63 60
        E 120 80 63 00
        E 0 90 63 60
        E 120 80 63 00
        E 0 90 62 60
        E 120 80 62 00
        E 0 90 62 60
        E 120 80 62 00
        E 0 90 63 60
        E 120 80 63 00
        E 0 90 63 60
        E 120 80 66 00
        E 0 80 63 00
        E 0 90 63 60
        E 0 90 64 60
        E 1320 80 63 00
        E 0 80 64 00
        E 120 90 62 60
        E 0 90 64 60
        E 120 80 62 00
        E 0 80 64 00
        E 120 90 60 60
        E 0 90 66 60
        E 120 80 60 00
        E 0 90 60 60
        E 120 80 60 00
        E 0 90 60 60
        E 120 80 60 00
        E 0 90 60 60
        E 120 80 60 00
        E 0 90 63 60
        E 120 80 63 00
        E 0 90 63 60
        E 120 80 63 00
        E 0 90 61 60
        E 120 80 61 00
        E 0 90 61 60
        E 120 80 61 00
        E 0 90 62 60
        E 120 80 62 00
        E 0 90 62 60
        E 120 80 66 00
        E 0 80 62 00
        E 0 90 61 60
        E 0 90 63 60
        E 600 80 61 00
        E 0 80 63 00
        E 120 90 60 60
        E 0 90 62 60
        E 600 80 60 00
        E 0 80 62 00
        E 120 90 62 60
        E 0 90 64 60
        E 120 80 62 00
        E 0 80 64 00
        E 120 90 60 60
        E 0 90 66 60
        E 120 80 60 00
        E 0 90 60 60
        E 120 80 60 00
        E 0 90 60 60
        E 120 80 60 00
        E 0 90 60 60
        E 120 80 60 00
        E 0 90 63 60
        E 120 80 63 00
        E 0 90 63 60
        E 120 80 63 00
        E 0 90 62 60
        E 120 80 62 00
        E 0 90 62 60
        E 120 80 62 00
        E 0 90 63 60
        E 120 80 63 00
        E 0 90 63 60
        E 120 80 66 00
        E 0 80 63 00
        E 0 90 63 60
        E 0 90 64 60
        E 1320 80 63 00
        E 0 80 64 00
        E 120 90 62 60
        E 0 90 64 60
        E 120 80 62 00
        E 0 80 64 00
        E 120 90 60 60
        E 0 90 66 60
        E 120 80 60 00
        E 0 90 60 60
        E 120 80 60 00
        E 0 90 60 60
        E 120 80 60 00
        E 0 90 60 60
        E 120 80 60 00
        E 0 90 63 60
        E 120 80 63 00
        E 0 90 63 60
        E 120 80 63 00
        E 0 90 61 60
        E 120 80 61 00
        E 0 90 61 60
        E 120 80 61 00
        E 0 90 62 60
        E 120 80 62 00
        E 0 90 62 60
        E 120 80 66 00
        E 0 80 62 00
        E 0 90 61 60
        E 0 90 63 60
        E 600 80 61 00
        E 0 80 63 00
        E 120 90 60 60
        E 0 90 62 60
        E 600 80 60 00
        E 0 80 62 00
        <X 120 0
          /wFbaW50ZW5zZV0=
        >
        E 0 90 62 60
        E 120 80 62 00
        E 0 90 61 60
        E 120 80 61 00
        E 0 90 60 60
        E 120 80 60 00
        E 0 90 62 60
        E 120 80 62 00
        E 0 90 61 60
        E 120 80 61 00
        E 0 90 60 60
        E 120 80 60 00
        E 0 90 62 60
        E 120 80 62 00
        E 0 90 61 60
        E 120 80 61 00
        E 0 90 64 60
        E 120 80 64 00
        E 120 90 64 60
        E 120 80 64 00
        E 120 90 62 60
        E 120 80 62 00
        E 0 90 61 60
        E 120 80 61 00
        E 0 90 60 60
        E 120 80 60 00
        E 0 90 62 60
        E 120 80 62 00
        E 0 90 61 60
        E 120 80 61 00
        E 0 90 60 60
        E 120 80 60 00
        E 0 90 62 60
        E 120 80 62 00
        E 0 90 61 60
        E 120 80 61 00
        E 0 90 63 60
        E 120 80 63 00
        E 120 90 63 60
        E 120 80 63 00
        E 120 90 62 60
        E 120 80 62 00
        E 0 90 61 60
        E 120 80 61 00
        E 0 90 60 60
        E 120 80 60 00
        E 0 90 62 60
        E 120 80 62 00
        E 0 90 61 60
        E 120 80 61 00
        E 0 90 60 60
        E 120 80 60 00
        E 0 90 62 60
        E 120 80 62 00
        E 0 90 61 60
        E 120 80 61 00
        E 0 90 64 60
        E 120 80 64 00
        E 120 90 64 60
        E 120 80 64 00
        E 120 90 62 60
        E 120 80 62 00
        E 0 90 61 60
        E 120 80 61 00
        E 0 90 60 60
        E 120 80 60 00
        E 0 90 62 60
        E 120 80 62 00
        E 0 90 61 60
        E 120 80 61 00
        E 0 90 60 60
        E 120 80 60 00
        E 0 90 62 60
        E 120 80 62 00
        E 0 90 61 60
        E 120 80 61 00
        E 0 90 63 60
        E 120 80 63 00
        E 120 90 63 60
        E 120 80 63 00
        <X 120 0
          /wFbcGxheV0=
        >
        E 0 90 61 60
        E 0 90 62 60
        E 120 80 61 00
        E 0 80 62 00
        E 240 90 60 60
        E 0 90 61 60
        E 120 80 60 00
        E 0 80 61 00
        E 240 90 61 60
        E 0 90 63 60
        E 120 80 61 00
        E 0 80 63 00
        E 120 90 60 60
        E 0 90 62 60
        E 120 80 60 00
        E 0 80 62 00
        E 120 90 61 60
        E 0 90 63 60
        E 120 80 61 00
        E 0 80 63 00
        E 120 90 62 60
        E 0 90 64 60
        E 120 80 62 00
        E 0 80 64 00
        E 240 90 60 60
        E 0 90 62 60
        E 120 80 60 00
        E 0 80 62 00
        E 240 90 62 60
        E 0 90 64 60
        E 120 80 62 00
        E 0 80 64 00
        E 120 90 62 60
        E 0 90 63 60
        E 120 80 62 00
        E 0 80 63 00
        E 120 90 63 60
        E 0 90 64 60
        E 120 80 63 00
        E 0 80 64 00
        E 120 90 61 60
        E 0 90 62 60
        E 120 80 61 00
        E 0 80 62 00
        E 240 90 60 60
        E 0 90 61 60
        E 120 80 60 00
        E 0 80 61 00
        E 240 90 61 60
        E 0 90 63 60
        E 120 80 61 00
        E 0 80 63 00
        E 120 90 60 60
        E 0 90 62 60
        E 120 80 60 00
        E 0 80 62 00
        E 120 90 61 60
        E 0 90 63 60
        E 120 80 61 00
        E 0 80 63 00
        E 120 90 62 60
        E 0 90 64 60
        E 120 80 62 00
        E 0 80 64 00
        E 240 90 60 60
        E 0 90 62 60
        E 120 80 60 00
        E 0 80 62 00
        E 240 90 62 60
        E 0 90 64 60
        E 120 80 62 00
        E 0 80 64 00
        E 120 90 62 60
        E 0 90 63 60
        E 120 80 62 00
        E 0 80 63 00
        E 120 90 63 60
        E 0 90 64 60
        E 120 80 63 00
        E 0 80 64 00
        E 120 90 61 60
        E 0 90 62 60
        E 120 80 61 00
        E 0 80 62 00
        E 240 90 60 60
        E 0 90 61 60
        E 120 80 60 00
        E 0 80 61 00
        E 240 90 61 60
        E 0 90 63 60
        E 120 80 61 00
        E 0 80 63 00
        E 120 90 60 60
        E 0 90 62 60
        E 120 80 60 00
        E 0 80 62 00
        E 120 90 61 60
        E 0 90 63 60
        E 120 80 61 00
        E 0 80 63 00
        E 120 90 62 60
        E 0 90 64 60
        E 120 80 62 00
        E 0 80 64 00
        E 240 90 60 60
        E 0 90 62 60
        E 120 80 60 00
        E 0 80 62 00
        E 240 90 62 60
        E 0 90 64 60
        E 120 80 62 00
        E 0 80 64 00
        E 120 90 62 60
        E 0 90 63 60
        E 120 80 62 00
        E 0 80 63 00
        E 120 90 63 60
        E 0 90 64 60
        E 120 80 63 00
        E 0 80 64 00
        E 120 90 61 60
        E 0 90 62 60
        E 120 80 61 00
        E 0 80 62 00
        E 240 90 60 60
        E 0 90 61 60
        E 120 80 60 00
        E 0 80 61 00
        E 240 90 61 60
        E 0 90 63 60
        E 120 80 61 00
        E 0 80 63 00
        E 120 90 60 60
        E 0 90 62 60
        E 120 80 60 00
        E 0 80 62 00
        E 120 90 61 60
        E 0 90 63 60
        E 120 80 61 00
        E 0 80 63 00
        E 120 90 62 60
        E 0 90 64 60
        E 120 80 62 00
        E 0 80 64 00
        E 240 90 60 60
        E 0 90 62 60
        E 120 80 60 00
        E 0 80 62 00
        E 240 90 62 60
        E 0 90 64 60
        E 120 80 62 00
        E 0 80 64 00
        E 120 90 62 60
        E 0 90 63 60
        E 120 80 62 00
        E 0 80 63 00
        E 120 90 63 60
        E 0 90 64 60
        E 120 80 63 00
        E 0 80 64 00
        E 120 90 60 60
        E 0 90 61 60
        E 120 80 60 00
        E 0 80 61 00
        E 240 90 60 60
        E 0 90 61 60
        E 120 80 60 00
        E 0 80 61 00
        E 240 90 60 60
        E 0 90 62 60
        E 120 80 60 00
        E 0 80 62 00
        E 120 90 60 60
        E 0 90 61 60
        E 120 80 60 00
        E 0 80 61 00
        E 120 90 60 60
        E 0 90 62 60
        E 120 80 60 00
        E 0 80 62 00
        E 120 90 61 60
        E 0 90 63 60
        E 120 80 61 00
        E 0 80 63 00
        E 240 90 62 60
        E 0 90 63 60
        E 120 80 62 00
        E 0 80 63 00
        E 240 90 61 60
        E 0 90 63 60
        E 120 80 61 00
        E 0 80 63 00
        E 120 90 61 60
        E 0 90 62 60
        E 120 80 61 00
        E 0 80 62 00
        E 120 90 62 60
        E 0 90 64 60
        E 120 80 62 00
        E 0 80 64 00
        E 120 90 60 60
        E 0 90 61 60
        E 120 80 60 00
        E 0 80 61 00
        E 240 90 60 60
        E 0 90 61 60
        E 120 80 60 00
        E 0 80 61 00
        E 240 90 60 60
        E 0 90 62 60
        E 120 80 60 00
        E 0 80 62 00
        E 120 90 60 60
        E 0 90 61 60
        E 120 80 60 00
        E 0 80 61 00
        E 120 90 60 60
        E 0 90 62 60
        E 120 80 60 00
        E 0 80 62 00
        E 120 90 61 60
        E 0 90 63 60
        E 120 80 61 00
        E 0 80 63 00
        E 240 90 62 60
        E 0 90 63 60
        E 120 80 62 00
        E 0 80 63 00
        E 240 90 61 60
        E 0 90 63 60
        E 120 80 61 00
        E 0 80 63 00
        E 120 90 61 60
        E 0 90 62 60
        E 120 80 61 00
        E 0 80 62 00
        E 120 90 62 60
        E 0 90 64 60
        E 120 80 62 00
        E 0 80 64 00
        E 120 90 60 60
        E 0 90 61 60
        E 120 80 60 00
        E 0 80 61 00
        E 240 90 60 60
        E 0 90 61 60
        E 120 80 60 00
        E 0 80 61 00
        E 240 90 60 60
        E 0 90 62 60
        E 120 80 60 00
        E 0 80 62 00
        E 120 90 60 60
        E 0 90 61 60
        E 120 80 60 00
        E 0 80 61 00
        E 120 90 60 60
        E 0 90 62 60
        E 120 80 60 00
        E 0 80 62 00
        E 120 90 61 60
        E 0 90 63 60
        E 120 80 61 00
        E 0 80 63 00
        E 240 90 62 60
        E 0 90 63 60
        E 120 80 62 00
        E 0 80 63 00
        E 240 90 61 60
        E 0 90 63 60
        E 120 80 61 00
        E 0 80 63 00
        E 120 90 61 60
        E 0 90 62 60
        E 120 80 61 00
        E 0 80 62 00
        E 120 90 62 60
        E 0 90 64 60
        E 120 80 62 00
        E 0 80 64 00
        E 120 90 60 60
        E 0 90 61 60
        E 120 80 60 00
        E 0 80 61 00
        E 240 90 60 60
        E 0 90 61 60
        E 120 80 60 00
        E 0 80 61 00
        E 240 90 60 60
        E 0 90 62 60
        E 120 80 60 00
        E 0 80 62 00
        E 120 90 60 60
        E 0 90 61 60
        E 120 80 60 00
        E 0 80 61 00
        E 120 90 60 60
        E 0 90 62 60
        E 120 80 60 00
        E 0 80 62 00
        E 120 90 61 60
        E 0 90 63 60
        E 120 80 61 00
        E 0 80 63 00
        E 240 90 62 60
        E 0 90 63 60
        E 120 80 62 00
        E 0 80 63 00
        E 240 90 61 60
        E 0 90 63 60
        E 120 80 61 00
        E 0 80 63 00
        E 120 90 61 60
        E 0 90 62 60
        E 120 80 61 00
        E 0 80 62 00
        E 120 90 62 60
        E 0 90 64 60
        E 120 80 62 00
        E 0 80 64 00
        E 120 90 63 60
        E 0 90 64 60
        E 120 80 63 00
        E 0 80 64 00
        E 240 90 62 60
        E 0 90 64 60
        E 120 80 62 00
        E 0 80 64 00
        E 240 90 62 60
        E 0 90 63 60
        E 120 80 62 00
        E 0 80 63 00
        E 240 90 61 60
        E 0 90 63 60
        E 120 80 61 00
        E 0 80 63 00
        E 240 90 62 60
        E 0 90 63 60
        E 120 80 62 00
        E 0 80 63 00
        E 240 90 63 60
        E 0 90 64 60
        E 120 80 63 00
        E 0 80 64 00
        E 240 90 62 60
        E 0 90 64 60
        E 120 80 62 00
        E 0 80 64 00
        E 240 90 60 60
        E 0 90 61 60
        E 120 80 60 00
        E 0 80 61 00
        E 240 90 61 60
        E 0 90 62 60
        E 120 80 61 00
        E 0 80 62 00
        E 240 90 60 60
        E 0 90 61 60
        E 120 80 60 00
        E 0 80 61 00
        E 240 90 61 60
        E 0 90 62 60
        E 600 80 61 00
        E 0 80 62 00
        E 120 90 63 60
        E 1320 80 63 00
        E 120 90 63 60
        E 0 90 64 60
        E 120 80 63 00
        E 0 80 64 00
        E 240 90 62 60
        E 0 90 64 60
        E 120 80 62 00
        E 0 80 64 00
        E 240 90 62 60
        E 0 90 63 60
        E 120 80 62 00
        E 0 80 63 00
        E 240 90 61 60
        E 0 90 63 60
        E 120 80 61 00
        E 0 80 63 00
        E 240 90 62 60
        E 0 90 63 60
        E 120 80 62 00
        E 0 80 63 00
        E 240 90 63 60
        E 0 90 64 60
        E 120 80 63 00
        E 0 80 64 00
        E 240 90 62 60
        E 0 90 64 60
        E 120 80 62 00
        E 0 80 64 00
        E 240 90 60 60
        E 0 90 61 60
        E 120 80 60 00
        E 0 80 61 00
        E 240 90 61 60
        E 0 90 62 60
        E 120 80 61 00
        E 0 80 62 00
        E 240 90 60 60
        E 0 90 61 60
        E 120 80 60 00
        E 0 80 61 00
        E 240 90 61 60
        E 0 90 62 60
        E 600 80 61 00
        E 0 80 62 00
        E 120 90 64 60
        E 1320 80 64 00
        <X 120 0
          /wFbaW50ZW5zZV0=
        >
        E 0 90 60 60
        E 0 90 66 60
        E 120 80 60 00
        E 0 90 60 60
        E 120 80 60 00
        E 0 90 60 60
        E 120 80 60 00
        E 0 90 60 60
        E 120 80 60 00
        E 0 90 60 60
        E 120 80 60 00
        E 0 90 60 60
        E 120 80 60 00
        E 0 90 63 60
        E 120 80 63 00
        E 0 90 63 60
        E 120 80 63 00
        E 0 90 63 60
        E 120 80 63 00
        E 0 90 63 60
        E 120 80 63 00
        E 0 90 63 60
        E 120 80 63 00
        E 0 90 63 60
        E 120 80 63 00
        E 0 90 60 60
        E 120 80 60 00
        E 0 90 60 60
        E 120 80 60 00
        E 0 90 60 60
        E 120 80 60 00
        E 0 90 60 60
        E 120 80 60 00
        E 0 90 60 60
        E 120 80 60 00
        E 0 90 60 60
        E 120 80 60 00
        E 0 90 63 60
        E 0 90 64 60
        E 120 80 66 00
        E 0 80 63 00
        E 0 80 64 00
        E 0 90 63 60
        E 0 90 64 60
        E 120 80 63 00
        E 0 80 64 00
        E 0 90 63 60
        E 0 90 64 60
        E 120 80 63 00
        E 0 80 64 00
        E 0 90 63 60
        E 0 90 64 60
        E 120 80 63 00
        E 0 80 64 00
        E 0 90 63 60
        E 0 90 64 60
        E 120 80 63 00
        E 0 80 64 00
        E 0 90 63 60
        E 0 90 64 60
        E 120 80 63 00
        E 0 80 64 00
        E 0 90 63 60
        E 120 80 63 00
        E 0 90 60 60
        E 120 80 60 00
        E 0 90 60 60
        E 120 80 60 00
        E 0 90 64 60
        E 120 80 64 00
        E 0 90 60 60
        E 120 80 60 00
        E 0 90 60 60
        E 120 80 60 00
        E 0 90 62 60
        E 120 80 62 00
        E 0 90 60 60
        E 120 80 60 00
        E 0 90 61 60
        E 120 80 61 00
        E 0 90 60 60
        E 120 80 60 00
        E 0 90 62 60
        E 120 80 62 00
        E 0 90 60 60
        E 120 80 60 00
        E 0 90 63 60
        E 120 80 63 00
        E 0 90 60 60
        E 120 80 60 00
        E 0 90 60 60
        E 120 80 60 00
        E 0 90 64 60
        E 120 80 64 00
        E 0 90 60 60
        E 120 80 60 00
        E 0 90 60 60
        E 120 80 60 00
        E 0 90 62 60
        E 120 80 62 00
        E 0 90 60 60
        E 120 80 60 00
        E 0 90 61 60
        E 120 80 61 00
        E 0 90 60 60
        E 120 80 60 00
        E 0 90 62 60
        E 120 80 62 00
        E 0 90 60 60
        E 120 80 60 00
        E 0 90 60 60
        E 0 90 66 60
        E 120 80 60 00
        E 0 90 60 60
        E 120 80 60 00
        E 0 90 60 60
        E 120 80 60 00
        E 0 90 60 60
        E 120 80 60 00
        E 0 90 60 60
        E 120 80 60 00
        E 0 90 60 60
        E 120 80 60 00
        E 0 90 63 60
        E 120 80 63 00
        E 0 90 63 60
        E 120 80 63 00
        E 0 90 63 60
        E 120 80 63 00
        E 0 90 63 60
        E 120 80 63 00
        E 0 90 63 60
        E 120 80 63 00
        E 0 90 63 60
        E 120 80 63 00
        E 0 90 60 60
        E 120 80 60 00
        E 0 90 60 60
        E 120 80 60 00
        E 0 90 60 60
        E 120 80 60 00
        E 0 90 60 60
        E 120 80 60 00
        E 0 90 60 60
        E 120 80 60 00
        E 0 90 60 60
        E 120 80 60 00
        E 0 90 63 60
        E 0 90 64 60
        E 120 80 66 00
        E 0 80 63 00
        E 0 80 64 00
        E 0 90 63 60
        E 0 90 64 60
        E 120 80 63 00
        E 0 80 64 00
        E 0 90 63 60
        E 0 90 64 60
        E 120 80 63 00
        E 0 80 64 00
        E 0 90 63 60
        E 0 90 64 60
        E 120 80 63 00
        E 0 80 64 00
        E 0 90 63 60
        E 0 90 64 60
        E 120 80 63 00
        E 0 80 64 00
        E 0 90 63 60
        E 0 90 64 60
        E 120 80 63 00
        E 0 80 64 00
        E 0 90 63 60
        E 120 80 63 00
        E 0 90 61 60
        E 120 80 61 00
        E 0 90 61 60
        E 120 80 61 00
        E 0 90 64 60
        E 120 80 64 00
        E 0 90 61 60
        E 120 80 61 00
        E 0 90 61 60
        E 120 80 61 00
        E 0 90 63 60
        E 120 80 63 00
        E 0 90 61 60
        E 120 80 61 00
        E 0 90 62 60
        E 120 80 62 00
        E 0 90 61 60
        E 120 80 61 00
        E 0 90 63 60
        E 120 80 63 00
        E 0 90 61 60
        E 120 80 61 00
        E 0 90 63 60
        E 120 80 63 00
        E 0 90 61 60
        E 120 80 61 00
        E 0 90 61 60
        E 120 80 61 00
        E 0 90 64 60
        E 120 80 64 00
        E 0 90 61 60
        E 120 80 61 00
        E 0 90 61 60
        E 120 80 61 00
        E 0 90 63 60
        E 120 80 63 00
        E 0 90 61 60
        E 120 80 61 00
        E 0 90 62 60
        E 120 80 62 00
        E 0 90 61 60
        E 120 80 61 00
        E 0 90 63 60
        E 120 80 63 00
        E 0 90 61 60
        E 120 80 61 00
        E 0 90 60 60
        E 0 90 66 60
        E 120 80 60 00
        E 0 90 60 60
        E 120 80 60 00
        E 0 90 60 60
        E 120 80 60 00
        E 0 90 60 60
        E 120 80 60 00
        E 0 90 60 60
        E 120 80 60 00
        E 0 90 60 60
        E 120 80 60 00
        E 0 90 63 60
        E 120 80 63 00
        E 0 90 63 60
        E 120 80 63 00
        E 0 90 63 60
        E 120 80 63 00
        E 0 90 63 60
        E 120 80 63 00
        E 0 90 63 60
        E 120 80 63 00
        E 0 90 63 60
        E 120 80 63 00
        E 0 90 60 60
        E 120 80 60 00
        E 0 90 60 60
        E 120 80 60 00
        E 0 90 60 60
        E 120 80 60 00
        E 0 90 60 60
        E 120 80 60 00
        E 0 90 60 60
        E 120 80 60 00
        E 0 90 60 60
        E 120 80 60 00
        E 0 90 63 60
        E 0 90 64 60
        E 120 80 66 00
        E 0 80 63 00
        E 0 80 64 00
        E 0 90 63 60
        E 0 90 64 60
        E 120 80 63 00
        E 0 80 64 00
        E 0 90 63 60
        E 0 90 64 60
        E 120 80 63 00
        E 0 80 64 00
        E 0 90 63 60
        E 0 90 64 60
        E 120 80 63 00
        E 0 80 64 00
        E 0 90 63 60
        E 0 90 64 60
        E 120 80 63 00
        E 0 80 64 00
        E 0 90 63 60
        E 0 90 64 60
        E 120 80 63 00
        E 0 80 64 00
        E 0 90 63 60
        E 120 80 63 00
        E 0 90 60 60
        E 120 80 60 00
        E 0 90 60 60
        E 120 80 60 00
        E 0 90 64 60
        E 120 80 64 00
        E 0 90 60 60
        E 120 80 60 00
        E 0 90 60 60
        E 120 80 60 00
        E 0 90 62 60
        E 120 80 62 00
        E 0 90 60 60
        E 120 80 60 00
        E 0 90 61 60
        E 120 80 61 00
        E 0 90 60 60
        E 120 80 60 00
        E 0 90 62 60
        E 120 80 62 00
        E 0 90 60 60
        E 120 80 60 00
        E 0 90 63 60
        E 120 80 63 00
        E 0 90 60 60
        E 120 80 60 00
        E 0 90 60 60
        E 120 80 60 00
        E 0 90 64 60
        E 120 80 64 00
        E 0 90 60 60
        E 120 80 60 00
        E 0 90 60 60
        E 120 80 60 00
        E 0 90 62 60
        E 120 80 62 00
        E 0 90 60 60
        E 120 80 60 00
        E 0 90 61 60
        E 120 80 61 00
        E 0 90 60 60
        E 120 80 60 00
        E 0 90 62 60
        E 120 80 62 00
        E 0 90 60 60
        E 120 80 60 00
        E 0 90 60 60
        E 0 90 66 60
        E 120 80 60 00
        E 0 90 60 60
        E 120 80 60 00
        E 0 90 60 60
        E 120 80 60 00
        E 0 90 60 60
        E 120 80 60 00
        E 0 90 60 60
        E 120 80 60 00
        E 0 90 60 60
        E 120 80 60 00
        E 0 90 63 60
        E 120 80 63 00
        E 0 90 63 60
        E 120 80 63 00
        E 0 90 63 60
        E 120 80 63 00
        E 0 90 63 60
        E 120 80 63 00
        E 0 90 63 60
        E 120 80 63 00
        E 0 90 63 60
        E 120 80 63 00
        E 0 90 60 60
        E 120 80 60 00
        E 0 90 60 60
        E 120 80 60 00
        E 0 90 60 60
        E 120 80 60 00
        E 0 90 60 60
        E 120 80 60 00
        E 0 90 60 60
        E 120 80 60 00
        E 0 90 60 60
        E 120 80 60 00
        E 0 90 63 60
        E 0 90 64 60
        E 120 80 66 00
        E 0 80 63 00
        E 0 80 64 00
        E 0 90 63 60
        E 0 90 64 60
        E 120 80 63 00
        E 0 80 64 00
        E 0 90 63 60
        E 0 90 64 60
        E 120 80 63 00
        E 0 80 64 00
        E 0 90 63 60
        E 0 90 64 60
        E 120 80 63 00
        E 0 80 64 00
        E 0 90 63 60
        E 0 90 64 60
        E 120 80 63 00
        E 0 80 64 00
        E 0 90 63 60
        E 0 90 64 60
        E 120 80 63 00
        E 0 80 64 00
        E 0 90 63 60
        E 120 80 63 00
        E 0 90 61 60
        E 120 80 61 00
        E 0 90 61 60
        E 120 80 61 00
        E 0 90 64 60
        E 120 80 64 00
        E 0 90 61 60
        E 120 80 61 00
        E 0 90 61 60
        E 120 80 61 00
        E 0 90 63 60
        E 120 80 63 00
        E 0 90 61 60
        E 120 80 61 00
        E 0 90 62 60
        E 120 80 62 00
        E 0 90 61 60
        E 120 80 61 00
        E 0 90 63 60
        E 120 80 63 00
        E 0 90 61 60
        E 120 80 61 00
        E 0 90 63 60
        E 120 80 63 00
        E 0 90 61 60
        E 120 80 61 00
        E 0 90 61 60
        E 120 80 61 00
        E 0 90 64 60
        E 120 80 64 00
        E 0 90 61 60
        E 120 80 61 00
        E 0 90 61 60
        E 120 80 61 00
        E 0 90 63 60
        E 120 80 63 00
        E 0 90 61 60
        E 120 80 61 00
        E 0 90 62 60
        E 120 80 62 00
        E 0 90 61 60
        E 120 80 61 00
        E 0 90 63 60
        E 120 80 63 00
        E 0 90 61 60
        E 120 80 61 00
        E 0 90 64 60
        E 120 80 64 00
        E 0 90 64 60
        E 120 80 64 00
        E 0 90 60 60
        E 120 80 60 00
        E 0 90 63 60
        E 120 80 63 00
        E 0 90 60 60
        E 120 80 60 00
        E 0 90 60 60
        E 120 80 60 00
        E 0 90 62 60
        E 120 80 62 00
        E 0 90 60 60
        E 120 80 60 00
        E 0 90 61 60
        E 120 80 61 00
        E 0 90 60 60
        E 120 80 60 00
        E 0 90 61 60
        E 120 80 61 00
        E 0 90 60 60
        E 120 80 60 00
        E 0 90 64 60
        E 120 80 64 00
        E 0 90 64 60
        E 120 80 64 00
        E 0 90 60 60
        E 120 80 60 00
        E 0 90 63 60
        E 120 80 63 00
        E 0 90 60 60
        E 120 80 60 00
        E 0 90 60 60
        E 120 80 60 00
        E 0 90 62 60
        E 120 80 62 00
        E 0 90 60 60
        E 120 80 60 00
        E 0 90 61 60
        E 120 80 61 00
        E 0 90 60 60
        E 120 80 60 00
        E 0 90 61 60
        E 120 80 61 00
        E 0 90 60 60
        E 120 80 60 00
        E 0 90 63 60
        E 120 80 63 00
        E 0 90 61 60
        E 120 80 61 00
        E 0 90 61 60
        E 120 80 61 00
        E 0 90 64 60
        E 120 80 64 00
        E 0 90 61 60
        E 120 80 61 00
        E 0 90 61 60
        E 120 80 61 00
        E 0 90 63 60
        E 120 80 63 00
        E 0 90 61 60
        E 120 80 61 00
        E 0 90 62 60
        E 120 80 62 00
        E 0 90 61 60
        E 120 80 61 00
        E 0 90 63 60
        E 120 80 63 00
        E 0 90 61 60
        E 120 80 61 00
        E 0 90 63 60
        E 120 80 63 00
        E 0 90 61 60
        E 120 80 61 00
        E 0 90 61 60
        E 120 80 61 00
        E 0 90 64 60
        E 120 80 64 00
        E 0 90 61 60
        E 120 80 61 00
        E 0 90 61 60
        E 120 80 61 00
        E 0 90 63 60
        E 120 80 63 00
        E 0 90 61 60
        E 120 80 61 00
        E 0 90 62 60
        E 120 80 62 00
        E 0 90 61 60
        E 120 80 61 00
        E 0 90 63 60
        E 120 80 63 00
        E 0 90 61 60
        E 120 80 61 00
        E 0 90 64 60
        E 120 80 64 00
        E 0 90 64 60
        E 120 80 64 00
        E 0 90 60 60
        E 120 80 60 00
        E 0 90 63 60
        E 120 80 63 00
        E 0 90 60 60
        E 120 80 60 00
        E 0 90 60 60
        E 120 80 60 00
        E 0 90 62 60
        E 120 80 62 00
        E 0 90 60 60
        E 120 80 60 00
        E 0 90 61 60
        E 120 80 61 00
        E 0 90 60 60
        E 120 80 60 00
        E 0 90 61 60
        E 120 80 61 00
        E 0 90 60 60
        E 120 80 60 00
        E 0 90 64 60
        E 120 80 64 00
        E 0 90 64 60
        E 120 80 64 00
        E 0 90 60 60
        E 120 80 60 00
        E 0 90 63 60
        E 120 80 63 00
        E 0 90 60 60
        E 120 80 60 00
        E 0 90 60 60
        E 120 80 60 00
        E 0 90 62 60
        E 120 80 62 00
        E 0 90 60 60
        E 120 80 60 00
        E 0 90 61 60
        E 120 80 61 00
        E 0 90 60 60
        E 120 80 60 00
        E 0 90 61 60
        E 120 80 61 00
        E 0 90 60 60
        <X 120 0
          /wFbcGxheV0=
        >
        E 0 80 60 00
        E 0 90 63 60
        E 0 90 66 60
        E 120 80 63 00
        E 0 80 66 00
        E 240 90 64 60
        E 120 80 64 00
        E 240 90 62 60
        E 2040 80 62 00
        E 120 90 62 60
        E 120 80 62 00
        E 240 90 63 60
        E 120 80 63 00
        E 240 90 61 60
        E 2040 80 61 00
        E 120 90 61 60
        E 120 80 61 00
        E 240 90 62 60
        E 120 80 62 00
        E 240 90 60 60
        E 2040 80 60 00
        E 120 90 61 60
        E 600 80 61 00
        E 120 90 62 60
        E 600 80 62 00
        E 120 90 63 60
        E 600 80 63 00
        E 120 90 64 60
        E 600 80 64 00
        E 120 90 63 60
        E 120 80 63 00
        E 240 90 64 60
        E 120 80 64 00
        E 240 90 62 60
        E 2040 80 62 00
        E 120 90 62 60
        E 120 80 62 00
        E 240 90 63 60
        E 120 80 63 00
        E 240 90 61 60
        E 2040 80 61 00
        E 120 90 61 60
        E 120 80 61 00
        E 240 90 62 60
        E 120 80 62 00
        E 240 90 60 60
        E 2040 80 60 00
        E 120 90 61 60
        E 600 80 61 00
        E 120 90 62 60
        E 600 80 62 00
        E 120 90 63 60
        E 600 80 63 00
        E 120 90 64 60
        E 600 80 64 00
        <X 120 0
          /wFbbWVsbG93XQ==
        >
        E 0 90 60 60
        E 120 80 60 00
        E 120 90 61 60
        E 120 80 61 00
        E 120 90 62 60
        E 120 80 62 00
        E 120 90 63 60
        E 120 80 63 00
        E 120 90 62 60
        E 120 80 62 00
        E 120 90 61 60
        E 120 80 61 00
        E 120 90 60 60
        E 120 80 60 00
        E 120 90 61 60
        E 120 80 61 00
        E 120 90 62 60
        E 120 80 62 00
        E 120 90 63 60
        E 120 80 63 00
        E 120 90 62 60
        E 120 80 62 00
        E 120 90 61 60
        E 120 80 61 00
        E 120 90 60 60
        E 120 80 60 00
        E 120 90 61 60
        E 120 80 61 00
        E 120 90 62 60
        E 120 80 62 00
        E 120 90 64 60
        E 120 80 64 00
        E 120 90 62 60
        E 120 80 62 00
        E 120 90 61 60
        E 120 80 61 00
        E 120 90 60 60
        E 120 80 60 00
        E 120 90 61 60
        E 120 80 61 00
        E 120 90 62 60
        E 120 80 62 00
        E 120 90 64 60
        E 120 80 64 00
        E 120 90 62 60
        E 120 80 62 00
        E 120 90 61 60
        E 120 80 61 00
        E 120 90 60 60
        E 120 80 60 00
        E 120 90 61 60
        E 120 80 61 00
        E 120 90 63 60
        E 120 80 63 00
        E 120 90 64 60
        E 120 80 64 00
        E 120 90 63 60
        E 120 80 63 00
        E 120 90 61 60
        E 120 80 61 00
        E 120 90 60 60
        E 120 80 60 00
        E 120 90 61 60
        E 120 80 61 00
        E 120 90 63 60
        E 120 80 63 00
        E 120 90 64 60
        E 120 80 64 00
        E 120 90 63 60
        E 120 80 63 00
        E 120 90 61 60
        E 120 80 61 00
        E 120 90 60 60
        E 120 80 60 00
        E 120 90 62 60
        E 120 80 62 00
        E 120 90 63 60
        E 120 80 63 00
        E 120 90 64 60
        E 120 80 64 00
        E 120 90 63 60
        E 120 80 63 00
        E 120 90 62 60
        E 120 80 62 00
        E 120 90 60 60
        E 120 80 60 00
        E 120 90 62 60
        E 120 80 62 00
        E 120 90 63 60
        E 120 80 63 00
        E 120 90 64 60
        E 120 80 64 00
        E 120 90 63 60
        E 120 80 63 00
        E 120 90 62 60
        E 120 80 62 00
        E 120 90 60 60
        E 120 80 60 00
        E 120 90 61 60
        E 120 80 61 00
        E 120 90 62 60
        E 120 80 62 00
        E 120 90 63 60
        E 120 80 63 00
        E 120 90 62 60
        E 120 80 62 00
        E 120 90 61 60
        E 120 80 61 00
        E 120 90 60 60
        E 120 80 60 00
        E 120 90 61 60
        E 120 80 61 00
        E 120 90 62 60
        E 120 80 62 00
        E 120 90 63 60
        E 120 80 63 00
        E 120 90 62 60
        E 120 80 62 00
        E 120 90 61 60
        E 120 80 61 00
        E 120 90 60 60
        E 120 80 60 00
        E 120 90 61 60
        E 120 80 61 00
        E 120 90 62 60
        E 120 80 62 00
        E 120 90 64 60
        E 120 80 64 00
        E 120 90 62 60
        E 120 80 62 00
        E 120 90 61 60
        E 120 80 61 00
        E 120 90 60 60
        E 120 80 60 00
        E 120 90 61 60
        E 120 80 61 00
        E 120 90 62 60
        E 120 80 62 00
        E 120 90 64 60
        E 120 80 64 00
        E 120 90 62 60
        E 120 80 62 00
        E 120 90 61 60
        E 120 80 61 00
        E 120 90 60 60
        E 120 80 60 00
        E 120 90 61 60
        E 120 80 61 00
        E 120 90 63 60
        E 120 80 63 00
        E 120 90 64 60
        E 120 80 64 00
        E 120 90 63 60
        E 120 80 63 00
        E 120 90 61 60
        E 120 80 61 00
        E 120 90 60 60
        E 120 80 60 00
        E 120 90 61 60
        E 120 80 61 00
        E 120 90 63 60
        E 120 80 63 00
        E 120 90 64 60
        E 120 80 64 00
        E 120 90 63 60
        E 120 80 63 00
        E 120 90 61 60
        E 120 80 61 00
        E 120 90 60 60
        E 120 80 60 00
        E 120 90 62 60
        E 120 80 62 00
        E 120 90 63 60
        E 120 80 63 00
        E 120 90 64 60
        E 120 80 64 00
        E 120 90 63 60
        E 120 80 63 00
        E 120 90 62 60
        E 120 80 62 00
        E 120 90 60 60
        E 120 80 60 00
        E 120 90 62 60
        E 120 80 62 00
        E 120 90 63 60
        E 120 80 63 00
        E 120 90 64 60
        E 120 80 64 00
        E 120 90 63 60
        E 120 80 63 00
        E 120 90 62 60
        E 120 80 62 00
        <X 120 0
          /wFbcGxheV0=
        >
        E 0 90 63 60
        E 0 90 64 60
        E 120 80 63 00
        E 0 80 64 00
        E 240 90 62 60
        E 0 90 64 60
        E 120 80 62 00
        E 0 80 64 00
        E 240 90 62 60
        E 0 90 63 60
        E 120 80 62 00
        E 0 80 63 00
        E 240 90 61 60
        E 0 90 63 60
        E 120 80 61 00
        E 0 80 63 00
        E 240 90 62 60
        E 0 90 63 60
        E 120 80 62 00
        E 0 80 63 00
        E 240 90 63 60
        E 0 90 64 60
        E 120 80 63 00
        E 0 80 64 00
        E 240 90 62 60
        E 0 90 64 60
        E 120 80 62 00
        E 0 80 64 00
        E 240 90 60 60
        E 0 90 61 60
        E 120 80 60 00
        E 0 80 61 00
        E 240 90 61 60
        E 0 90 62 60
        E 120 80 61 00
        E 0 80 62 00
        E 240 90 60 60
        E 0 90 61 60
        E 120 80 60 00
        E 0 80 61 00
        E 240 90 61 60
        E 0 90 62 60
        E 600 80 61 00
        E 0 80 62 00
        E 120 90 63 60
        E 1320 80 63 00
        E 120 90 63 60
        E 0 90 64 60
        E 120 80 63 00
        E 0 80 64 00
        E 240 90 62 60
        E 0 90 64 60
        E 120 80 62 00
        E 0 80 64 00
        E 240 90 62 60
        E 0 90 63 60
        E 120 80 62 00
        E 0 80 63 00
        E 240 90 61 60
        E 0 90 63 60
        E 120 80 61 00
        E 0 80 63 00
        E 240 90 62 60
        E 0 90 63 60
        E 120 80 62 00
        E 0 80 63 00
        E 240 90 63 60
        E 0 90 64 60
        E 120 80 63 00
        E 0 80 64 00
        E 240 90 62 60
        E 0 90 64 60
        E 120 80 62 00
        E 0 80 64 00
        E 240 90 60 60
        E 0 90 61 60
        E 120 80 60 00
        E 0 80 61 00
        E 240 90 61 60
        E 0 90 62 60
        E 120 80 61 00
        E 0 80 62 00
        E 240 90 60 60
        E 0 90 61 60
        E 120 80 60 00
        E 0 80 61 00
        E 240 90 61 60
        E 0 90 62 60
        E 2040 80 61 00
        E 0 80 62 00
        E 120 90 63 60
        E 0 90 64 60
        E 120 80 63 00
        E 0 80 64 00
        E 240 90 62 60
        E 0 90 64 60
        E 120 80 62 00
        E 0 80 64 00
        E 240 90 62 60
        E 0 90 63 60
        E 120 80 62 00
        E 0 80 63 00
        E 240 90 61 60
        E 0 90 63 60
        E 120 80 61 00
        E 0 80 63 00
        E 240 90 62 60
        E 0 90 63 60
        E 120 80 62 00
        E 0 80 63 00
        E 240 90 63 60
        E 0 90 64 60
        E 120 80 63 00
        E 0 80 64 00
        E 240 90 62 60
        E 0 90 64 60
        E 120 80 62 00
        E 0 80 64 00
        E 240 90 60 60
        E 0 90 61 60
        E 120 80 60 00
        E 0 80 61 00
        E 240 90 61 60
        E 0 90 62 60
        E 120 80 61 00
        E 0 80 62 00
        E 240 90 60 60
        E 0 90 61 60
        E 120 80 60 00
        E 0 80 61 00
        E 240 90 61 60
        E 0 90 62 60
        E 600 80 61 00
        E 0 80 62 00
        E 120 90 63 60
        E 1320 80 63 00
        E 120 90 63 60
        E 0 90 64 60
        E 120 80 63 00
        E 0 80 64 00
        E 240 90 62 60
        E 0 90 64 60
        E 120 80 62 00
        E 0 80 64 00
        E 240 90 62 60
        E 0 90 63 60
        E 120 80 62 00
        E 0 80 63 00
        E 240 90 61 60
        E 0 90 63 60
        E 120 80 61 00
        E 0 80 63 00
        E 240 90 62 60
        E 0 90 63 60
        E 120 80 62 00
        E 0 80 63 00
        E 240 90 63 60
        E 0 90 64 60
        E 120 80 63 00
        E 0 80 64 00
        E 240 90 62 60
        E 0 90 64 60
        E 120 80 62 00
        E 0 80 64 00
        E 240 90 60 60
        E 0 90 61 60
        E 120 80 60 00
        E 0 80 61 00
        E 240 90 61 60
        E 0 90 62 60
        E 120 80 61 00
        E 0 80 62 00
        E 240 90 60 60
        E 0 90 61 60
        E 120 80 60 00
        E 0 80 61 00
        E 240 90 61 60
        E 0 90 62 60
        E 600 80 61 00
        E 0 80 62 00
        E 120 90 64 60
        E 1320 80 64 00
        <X 120 0
          /wFbaW50ZW5zZV0=
        >
        E 0 90 62 60
        E 120 80 62 00
        E 0 90 61 60
        E 120 80 61 00
        E 0 90 60 60
        E 120 80 60 00
        E 0 90 62 60
        E 120 80 62 00
        E 0 90 61 60
        E 120 80 61 00
        E 0 90 60 60
        E 120 80 60 00
        E 0 90 62 60
        E 120 80 62 00
        E 0 90 61 60
        E 120 80 61 00
        E 0 90 64 60
        E 120 80 64 00
        E 120 90 64 60
        E 120 80 64 00
        E 120 90 62 60
        E 120 80 62 00
        E 0 90 61 60
        E 120 80 61 00
        E 0 90 60 60
        E 120 80 60 00
        E 0 90 62 60
        E 120 80 62 00
        E 0 90 61 60
        E 120 80 61 00
        E 0 90 60 60
        E 120 80 60 00
        E 0 90 62 60
        E 120 80 62 00
        E 0 90 61 60
        E 120 80 61 00
        E 0 90 63 60
        E 120 80 63 00
        E 120 90 63 60
        E 120 80 63 00
        E 120 90 62 60
        E 120 80 62 00
        E 0 90 61 60
        E 120 80 61 00
        E 0 90 60 60
        E 120 80 60 00
        E 0 90 62 60
        E 120 80 62 00
        E 0 90 61 60
        E 120 80 61 00
        E 0 90 60 60
        E 120 80 60 00
        E 0 90 62 60
        E 120 80 62 00
        E 0 90 61 60
        E 120 80 61 00
        E 0 90 64 60
        E 120 80 64 00
        E 120 90 64 60
        E 120 80 64 00
        E 120 90 62 60
        E 120 80 62 00
        E 0 90 61 60
        E 120 80 61 00
        E 0 90 60 60
        E 120 80 60 00
        E 0 90 62 60
        E 120 80 62 00
        E 0 90 61 60
        E 120 80 61 00
        E 0 90 60 60
        E 120 80 60 00
        E 0 90 62 60
        E 120 80 62 00
        E 0 90 61 60
        E 120 80 61 00
        E 0 90 63 60
        E 120 80 63 00
        E 120 90 63 60
        E 120 80 63 00
        E 120 90 62 60
        E 120 80 62 00
        E 0 90 61 60
        E 120 80 61 00
        E 0 90 60 60
        E 120 80 60 00
        E 0 90 62 60
        E 120 80 62 00
        E 240 90 62 60
        E 120 80 62 00
        E 0 90 61 60
        E 120 80 61 00
        E 0 90 60 60
        E 120 80 60 00
        E 0 90 62 60
        E 120 80 62 00
        E 240 90 62 60
        E 120 80 62 00
        E 0 90 61 60
        E 120 80 61 00
        E 0 90 60 60
        E 120 80 60 00
        E 0 90 62 60
        E 120 80 62 00
        E 240 90 61 60
        E 0 90 62 60
        E 120 80 61 00
        E 0 80 62 00
        E 120 90 60 60
        E 0 90 61 60
        E 120 80 60 00
        E 0 80 61 00
        E 0 90 61 60
        E 0 90 62 60
        E 840 80 61 00
        E 0 80 62 00
        <X 960 0
          /wFbaWRsZV9yZWFsdGltZV0=
        >
        E 8640 b0 7b 00
        GUID {14D9E950-FB92-4048-8603-8FD02AE3B865}
        IGNTEMPO 0 120 4 4
        SRCCOLOR 2
        VELLANE 132 38 60
        COLORMAP "C:\Program Files (x86)\REAPER\Data\color_maps\rockband_guitarbass.png"
        TEXTSTRINGFILE "Text Events List.txt"
        CFGEDITVIEW 928.881517 125.96655 5 12 0 0 0 0 0 0.5
        KEYSNAP 0
        TRACKSEL 0
        EVTFILTER 0 -1 -1 -1 -1 0 1 0 0 -1 -1 -1 -1 0 -1 0 -1 -1
        CFGEDIT 1 1 0 0 0 1 1 1 1 1 1 0.25 -8 -8 1370 736 1 2 1 2 0.25 0 0 0 0 0.5 1 0 1 64
      >
    >
  >
  <TRACK {70C3FE4D-3BC3-4146-95C4-8AC455A2D0F5}
    NAME "PART BASS"
    PEAKCOL 16777471
    BEAT -1
    AUTOMODE 0
    VOLPAN 1 0 -1 -1 1
    MUTESOLO 0 0 0
    IPHASE 0
    ISBUS 1 1
    BUSCOMP 1 0
    SHOWINMIX 1 0.6667 0.5 1 0.5 0 0 0
    FREEMODE 0
    SEL 0
    REC 0 4096 1 0 0 0 0
    TRACKHEIGHT 0 0
    INQ 0 0 0 0.5 100 0 0 100
    NCHAN 2
    FX 1
    TRACKID {70C3FE4D-3BC3-4146-95C4-8AC455A2D0F5}
    PERF 0
    MIDIOUT -1
    <MIDINOTENAMES
      0 40 "Left Hand Lowest" 0 40
      0 41 - 0 41
      0 42 - 0 42
      0 43 - 0 43
      0 44 - 0 44
      0 45 - 0 45
      0 46 - 0 46
      0 47 - 0 47
      0 48 - 0 48
      0 49 - 0 49
      0 50 - 0 50
      0 51 - 0 51
      0 52 - 0 52
      0 53 - 0 53
      0 54 - 0 54
      0 55 - 0 55
      0 56 - 0 56
      0 57 - 0 57
      0 58 - 0 58
      0 59 "Left Hand Highest" 0 59
      0 60 "EASY Green" 0 60
      0 61 "EASY Red" 0 61
      0 62 "EASY Yellow" 0 62
      0 63 "EASY Blue" 0 63
      0 64 "EASY Orange" 0 64
      0 68 ---- 0 68
      0 72 "MEDIUM Green" 0 72
      0 73 "MEDIUM Red" 0 73
      0 74 "MEDIUM Yellow" 0 74
      0 75 "MEDIUM Blue" 0 75
      0 76 "MEDIUM Orange" 0 76
      0 80 ---- 0 80
      0 84 "HARD Green" 0 84
      0 85 "HARD Red" 0 85
      0 86 "HARD Yellow" 0 86
      0 87 "HARD Blue" 0 87
      0 88 "HARD Orange" 0 88
      0 89 "Force HOPO On" 0 89
      0 90 "Force HOPO Off" 0 90
      0 91 ---- 0 91
      0 96 "EXPERT Green" 0 96
      0 97 "EXPERT Red" 0 97
      0 98 "EXPERT Yellow" 0 98
      0 99 "EXPERT Blue" 0 99
      0 100 "EXPERT Orange" 0 100
      0 101 "Force HOPO On" 0 101
      0 102 "Force HOPO Off" 0 102
      0 103 "Solo Marker" 0 103
      0 111 ---- 0 111
      0 116 OVERDRIVE 0 116
      0 119 ---- 0 119
      0 120 "BRE (use all 5)" 0 120
      0 121 BRE 0 121
      0 122 BRE 0 122
      0 123 BRE 0 123
      0 124 BRE 0 124
      0 125 ---- 0 125
      0 127 "Trill Marker" 0 127
    >
    MAINSEND 1 0
    <FXCHAIN
      WNDRECT 0 38 878 585
      SHOW 0
      LASTSEL 1
      DOCKED 0
      BYPASS 1 0 0
      <VST "VSTi: ReaSynth (Cockos)" reasynth.dll 0 "" 1919251321
        eXNlcu9e7f4AAAAAAgAAAAEAAAAAAAAAAgAAAAAAAAA8AAAAAAAAAAAAAAA=
        776t3g3wrd4AAAAAAAAAAAAAAAAAAAAAObRIPn3L2z61tLE5AAAAALbz/T5VpCs6AAAAAAAAAAAAAIA/
        AAAAAAAA
      >
      FLOATPOS 0 0 0 0
      FXID {D4EC3C58-478E-4D1F-A0FC-2252BD344989}
      WAK 0
      BYPASS 0 0 0
      <VST "VSTi: RBN Preview (RBN)" rbprev_vst.dll 0 "" ""
        dnBicu5e7f4AAAAAAgAAAAEAAAAAAAAAAgAAAAAAAAAEAAAAAQAAAAAAAAADAKoAAAAAAAAA
      >
      FLOATPOS 32 32 659 497
      FXID {72D22271-4F4F-4081-90C4-66415E7AEC47}
      WAK 0
    >
    <ITEM
      POSITION 0
      SNAPOFFS 0
      LENGTH 177.06791585015557
      LOOP 0
      ALLTAKES 0
      FADEIN 1 0 0 1 0 0
      FADEOUT 1 0 0 1 0 0
      MUTE 0
      SEL 0
      IGUID {A1B24BBF-93B7-476C-BC6D-33F5621C633F}
      IID 11
      NAME "PART BASS"
      VOLPAN 1 0 1 -1
      SOFFS 0 0
      PLAYRATE 1 1 0 -65536 0 0.0025
      CHANMODE 0
      GUID {344A7487-35C3-41F9-8B1E-12A4F3D7F336}
      <SOURCE MIDI
        HASDATA 1 480 QN
        POOLEDEVTS {807E87F8-92AD-407B-83DF-B877BFE9FA12}
        <X 0 0
          /wNQQVJUIEJBU1M=
        >
        <X 3600 0
          /wFbaWRsZV9yZWFsdGltZV0=
        >
        <X 480 0
          /wFbcGxheV0=
        >
        E 240 90 63 60
        E 120 80 63 00
        E 120 90 60 60
        E 120 80 60 00
        E 0 90 60 60
        E 120 80 60 00
        E 0 90 60 60
        E 120 80 60 00
        E 0 90 60 60
        E 120 80 60 00
        E 0 90 63 60
        E 0 90 66 60
        E 120 80 63 00
        E 0 80 66 00
        E 120 90 62 60
        E 120 80 62 00
        E 120 90 63 60
        E 120 80 63 00
        E 120 90 64 60
        E 2760 80 64 00
        E 120 90 63 60
        E 120 80 63 00
        E 120 90 60 60
        E 120 80 60 00
        E 0 90 60 60
        E 120 80 60 00
        E 0 90 60 60
        E 120 80 60 00
        E 0 90 60 60
        E 120 80 60 00
        E 0 90 63 60
        E 0 90 66 60
        E 120 80 63 00
        E 0 80 66 00
        E 120 90 60 60
        E 120 80 60 00
        E 120 90 61 60
        E 120 80 61 00
        E 120 90 62 60
        E 1320 80 62 00
        E 120 90 61 60
        E 1320 80 61 00
        E 120 90 63 60
        E 120 80 63 00
        E 120 90 60 60
        E 120 80 60 00
        E 0 90 60 60
        E 120 80 60 00
        E 0 90 60 60
        E 120 80 60 00
        E 0 90 60 60
        E 120 80 60 00
        E 0 90 63 60
        E 0 90 66 60
        E 120 80 63 00
        E 0 80 66 00
        E 120 90 62 60
        E 120 80 62 00
        E 120 90 63 60
        E 120 80 63 00
        E 120 90 64 60
        E 600 80 64 00
        E 120 90 63 60
        E 600 80 63 00
        E 120 90 62 60
        E 600 80 62 00
        E 120 90 61 60
        E 600 80 61 00
        E 120 90 63 60
        E 120 80 63 00
        E 120 90 60 60
        E 120 80 60 00
        E 0 90 60 60
        E 120 80 60 00
        E 0 90 60 60
        E 120 80 60 00
        E 0 90 60 60
        E 120 80 60 00
        E 0 90 63 60
        E 0 90 66 60
        E 120 80 63 00
        E 0 80 66 00
        E 120 90 60 60
        E 120 80 60 00
        E 120 90 61 60
        E 120 80 61 00
        E 120 90 62 60
        E 1320 80 62 00
        E 120 90 61 60
        E 1320 80 61 00
        <X 120 0
          /wFbaW50ZW5zZV0=
        >
        E 0 90 62 60
        E 120 80 62 00
        E 0 90 61 60
        E 120 80 61 00
        E 0 90 60 60
        E 120 80 60 00
        E 0 90 62 60
        E 120 80 62 00
        E 0 90 61 60
        E 120 80 61 00
        E 0 90 60 60
        E 120 80 60 00
        E 0 90 62 60
        E 120 80 62 00
        E 0 90 61 60
        E 120 80 61 00
        E 0 90 64 60
        E 120 80 64 00
        E 120 90 64 60
        E 120 80 64 00
        E 120 90 62 60
        E 120 80 62 00
        E 0 90 61 60
        E 120 80 61 00
        E 0 90 60 60
        E 120 80 60 00
        E 0 90 62 60
        E 120 80 62 00
        E 0 90 61 60
        E 120 80 61 00
        E 0 90 60 60
        E 120 80 60 00
        E 0 90 62 60
        E 120 80 62 00
        E 0 90 61 60
        E 120 80 61 00
        E 0 90 63 60
        E 120 80 63 00
        E 120 90 63 60
        E 120 80 63 00
        E 120 90 62 60
        E 120 80 62 00
        E 0 90 61 60
        E 120 80 61 00
        E 0 90 60 60
        E 120 80 60 00
        E 0 90 62 60
        E 120 80 62 00
        E 0 90 61 60
        E 120 80 61 00
        E 0 90 60 60
        E 120 80 60 00
        E 0 90 62 60
        E 120 80 62 00
        E 0 90 61 60
        E 120 80 61 00
        E 0 90 64 60
        E 120 80 64 00
        E 120 90 64 60
        E 120 80 64 00
        E 120 90 62 60
        E 120 80 62 00
        E 0 90 61 60
        E 120 80 61 00
        E 0 90 60 60
        E 120 80 60 00
        E 0 90 62 60
        E 120 80 62 00
        E 0 90 61 60
        E 120 80 61 00
        E 0 90 60 60
        E 120 80 60 00
        E 0 90 62 60
        E 120 80 62 00
        E 0 90 61 60
        E 120 80 61 00
        E 0 90 63 60
        E 120 80 63 00
        E 120 90 63 60
        E 120 80 63 00
        <X 120 0
          /wFbcGxheV0=
        >
        E 0 90 63 60
        E 120 80 63 00
        E 120 90 60 60
        E 120 80 60 00
        E 0 90 60 60
        E 120 80 60 00
        E 0 90 60 60
        E 120 80 60 00
        E 0 90 60 60
        E 120 80 60 00
        E 0 90 63 60
        E 0 90 66 60
        E 120 80 63 00
        E 0 80 66 00
        E 120 90 62 60
        E 120 80 62 00
        E 120 90 63 60
        E 120 80 63 00
        E 120 90 64 60
        E 1320 80 64 00
        E 120 90 63 60
        E 120 80 63 00
        E 120 90 60 60
        E 120 80 60 00
        E 0 90 60 60
        E 120 80 60 00
        E 0 90 60 60
        E 120 80 60 00
        E 0 90 60 60
        E 120 80 60 00
        E 0 90 63 60
        E 0 90 66 60
        E 120 80 63 00
        E 0 80 66 00
        E 120 90 60 60
        E 120 80 60 00
        E 120 90 61 60
        E 120 80 61 00
        E 120 90 62 60
        E 600 80 62 00
        E 120 90 61 60
        E 600 80 61 00
        E 120 90 63 60
        E 120 80 63 00
        E 120 90 60 60
        E 120 80 60 00
        E 0 90 60 60
        E 120 80 60 00
        E 0 90 60 60
        E 120 80 60 00
        E 0 90 60 60
        E 120 80 60 00
        E 0 90 63 60
        E 0 90 66 60
        E 120 80 63 00
        E 0 80 66 00
        E 120 90 62 60
        E 120 80 62 00
        E 120 90 63 60
        E 120 80 63 00
        E 120 90 64 60
        E 1320 80 64 00
        E 120 90 63 60
        E 120 80 63 00
        E 120 90 60 60
        E 120 80 60 00
        E 0 90 60 60
        E 120 80 60 00
        E 0 90 60 60
        E 120 80 60 00
        E 0 90 60 60
        E 120 80 60 00
        E 0 90 63 60
        E 0 90 66 60
        E 120 80 63 00
        E 0 80 66 00
        E 120 90 60 60
        E 120 80 60 00
        E 120 90 61 60
        E 120 80 61 00
        E 120 90 62 60
        E 600 80 62 00
        E 120 90 61 60
        E 600 80 61 00
        <X 120 0
          /wFbaW50ZW5zZV0=
        >
        E 0 90 62 60
        E 120 80 62 00
        E 0 90 61 60
        E 120 80 61 00
        E 0 90 60 60
        E 120 80 60 00
        E 0 90 62 60
        E 120 80 62 00
        E 0 90 61 60
        E 120 80 61 00
        E 0 90 60 60
        E 120 80 60 00
        E 0 90 62 60
        E 120 80 62 00
        E 0 90 61 60
        E 120 80 61 00
        E 0 90 64 60
        E 120 80 64 00
        E 120 90 64 60
        E 120 80 64 00
        E 120 90 62 60
        E 120 80 62 00
        E 0 90 61 60
        E 120 80 61 00
        E 0 90 60 60
        E 120 80 60 00
        E 0 90 62 60
        E 120 80 62 00
        E 0 90 61 60
        E 120 80 61 00
        E 0 90 60 60
        E 120 80 60 00
        E 0 90 62 60
        E 120 80 62 00
        E 0 90 61 60
        E 120 80 61 00
        E 0 90 63 60
        E 120 80 63 00
        E 120 90 63 60
        E 120 80 63 00
        E 120 90 62 60
        E 120 80 62 00
        E 0 90 61 60
        E 120 80 61 00
        E 0 90 60 60
        E 120 80 60 00
        E 0 90 62 60
        E 120 80 62 00
        E 0 90 61 60
        E 120 80 61 00
        E 0 90 60 60
        E 120 80 60 00
        E 0 90 62 60
        E 120 80 62 00
        E 0 90 61 60
        E 120 80 61 00
        E 0 90 64 60
        E 120 80 64 00
        E 120 90 64 60
        E 120 80 64 00
        E 120 90 62 60
        E 120 80 62 00
        E 0 90 61 60
        E 120 80 61 00
        E 0 90 60 60
        E 120 80 60 00
        E 0 90 62 60
        E 120 80 62 00
        E 0 90 61 60
        E 120 80 61 00
        E 0 90 60 60
        E 120 80 60 00
        E 0 90 62 60
        E 120 80 62 00
        E 0 90 61 60
        E 120 80 61 00
        E 0 90 63 60
        E 120 80 63 00
        E 120 90 63 60
        E 120 80 63 00
        <X 120 0
          /wFbcGxheV0=
        >
        E 0 90 61 60
        E 120 80 61 00
        E 240 90 60 60
        E 120 80 60 00
        E 240 90 62 60
        E 120 80 62 00
        E 120 90 61 60
        E 120 80 61 00
        E 120 90 62 60
        E 120 80 62 00
        E 120 90 64 60
        E 120 80 64 00
        E 240 90 62 60
        E 120 80 62 00
        E 240 90 64 60
        E 120 80 64 00
        E 120 90 63 60
        E 120 80 63 00
        E 120 90 64 60
        E 120 80 64 00
        E 120 90 61 60
        E 120 80 61 00
        E 240 90 60 60
        E 120 80 60 00
        E 240 90 62 60
        E 120 80 62 00
        E 120 90 61 60
        E 120 80 61 00
        E 120 90 62 60
        E 120 80 62 00
        E 120 90 64 60
        E 120 80 64 00
        E 240 90 62 60
        E 120 80 62 00
        E 240 90 64 60
        E 120 80 64 00
        E 120 90 63 60
        E 120 80 63 00
        E 120 90 64 60
        E 120 80 64 00
        E 120 90 61 60
        E 120 80 61 00
        E 240 90 60 60
        E 120 80 60 00
        E 240 90 62 60
        E 120 80 62 00
        E 120 90 61 60
        E 120 80 61 00
        E 120 90 62 60
        E 120 80 62 00
        E 120 90 64 60
        E 120 80 64 00
        E 240 90 62 60
        E 120 80 62 00
        E 240 90 64 60
        E 120 80 64 00
        E 120 90 63 60
        E 120 80 63 00
        E 120 90 64 60
        E 120 80 64 00
        E 120 90 61 60
        E 120 80 61 00
        E 240 90 60 60
        E 120 80 60 00
        E 240 90 62 60
        E 120 80 62 00
        E 120 90 61 60
        E 120 80 61 00
        E 120 90 62 60
        E 120 80 62 00
        E 120 90 64 60
        E 120 80 64 00
        E 240 90 62 60
        E 120 80 62 00
        E 240 90 64 60
        E 120 80 64 00
        E 120 90 63 60
        E 120 80 63 00
        E 120 90 64 60
        E 120 80 64 00
        E 120 90 60 60
        E 120 80 60 00
        E 240 90 60 60
        E 120 80 60 00
        E 240 90 61 60
        E 120 80 61 00
        E 120 90 60 60
        E 120 80 60 00
        E 120 90 61 60
        E 120 80 61 00
        E 120 90 62 60
        E 120 80 62 00
        E 240 90 63 60
        E 120 80 63 00
        E 240 90 62 60
        E 120 80 62 00
        E 120 90 61 60
        E 120 80 61 00
        E 120 90 64 60
        E 120 80 64 00
        E 120 90 60 60
        E 120 80 60 00
        E 240 90 60 60
        E 120 80 60 00
        E 240 90 62 60
        E 120 80 62 00
        E 120 90 61 60
        E 120 80 61 00
        E 120 90 62 60
        E 120 80 62 00
        E 120 90 64 60
        E 120 80 64 00
        E 240 90 62 60
        E 120 80 62 00
        E 240 90 64 60
        E 120 80 64 00
        E 120 90 63 60
        E 120 80 63 00
        E 120 90 64 60
        E 120 80 64 00
        E 120 90 60 60
        E 120 80 60 00
        E 240 90 60 60
        E 120 80 60 00
        E 240 90 61 60
        E 120 80 61 00
        E 120 90 60 60
        E 120 80 60 00
        E 120 90 61 60
        E 120 80 61 00
        E 120 90 62 60
        E 120 80 62 00
        E 240 90 63 60
        E 120 80 63 00
        E 240 90 62 60
        E 120 80 62 00
        E 120 90 61 60
        E 120 80 61 00
        E 120 90 64 60
        E 120 80 64 00
        E 120 90 60 60
        E 120 80 60 00
        E 240 90 60 60
        E 120 80 60 00
        E 240 90 62 60
        E 120 80 62 00
        E 120 90 61 60
        E 120 80 61 00
        E 120 90 62 60
        E 120 80 62 00
        E 120 90 64 60
        E 120 80 64 00
        E 240 90 62 60
        E 120 80 62 00
        E 240 90 64 60
        E 120 80 64 00
        E 120 90 63 60
        E 120 80 63 00
        E 120 90 64 60
        E 120 80 64 00
        E 120 90 64 60
        E 120 80 64 00
        E 240 90 63 60
        E 120 80 63 00
        E 240 90 62 60
        E 120 80 62 00
        E 240 90 61 60
        E 120 80 61 00
        E 240 90 62 60
        E 120 80 62 00
        E 240 90 64 60
        E 120 80 64 00
        E 240 90 62 60
        E 120 80 62 00
        E 240 90 60 60
        E 120 80 60 00
        E 240 90 61 60
        E 120 80 61 00
        E 240 90 60 60
        E 120 80 60 00
        E 240 90 61 60
        E 2040 80 61 00
        E 120 90 64 60
        E 120 80 64 00
        E 240 90 63 60
        E 120 80 63 00
        E 240 90 62 60
        E 120 80 62 00
        E 240 90 61 60
        E 120 80 61 00
        E 240 90 62 60
        E 120 80 62 00
        E 240 90 64 60
        E 120 80 64 00
        E 240 90 62 60
        E 120 80 62 00
        E 240 90 60 60
        E 120 80 60 00
        E 240 90 61 60
        E 120 80 61 00
        E 240 90 60 60
        E 120 80 60 00
        E 240 90 61 60
        E 2040 80 61 00
        <X 120 0
          /wFbaW50ZW5zZV0=
        >
        E 0 90 60 60
        E 120 80 60 00
        E 0 90 60 60
        E 120 80 60 00
        E 0 90 60 60
        E 120 80 60 00
        E 0 90 60 60
        E 120 80 60 00
        E 0 90 60 60
        E 120 80 60 00
        E 0 90 60 60
        E 120 80 60 00
        E 0 90 60 60
        E 120 80 60 00
        E 0 90 60 60
        E 120 80 60 00
        E 0 90 60 60
        E 120 80 60 00
        E 0 90 60 60
        E 120 80 60 00
        E 0 90 60 60
        E 120 80 60 00
        E 0 90 60 60
        E 120 80 60 00
        E 0 90 60 60
        E 120 80 60 00
        E 0 90 60 60
        E 120 80 60 00
        E 0 90 60 60
        E 120 80 60 00
        E 0 90 60 60
        E 120 80 60 00
        E 0 90 60 60
        E 120 80 60 00
        E 0 90 60 60
        E 120 80 60 00
        E 0 90 60 60
        E 120 80 60 00
        E 0 90 60 60
        E 120 80 60 00
        E 0 90 60 60
        E 120 80 60 00
        E 0 90 60 60
        E 120 80 60 00
        E 0 90 60 60
        E 120 80 60 00
        E 0 90 60 60
        E 120 80 60 00
        E 0 90 63 60
        E 0 90 66 60
        E 120 80 63 00
        E 0 80 66 00
        E 0 90 60 60
        E 120 80 60 00
        E 0 90 60 60
        E 120 80 60 00
        E 0 90 64 60
        E 120 80 64 00
        E 0 90 60 60
        E 120 80 60 00
        E 0 90 60 60
        E 120 80 60 00
        E 0 90 62 60
        E 120 80 62 00
        E 0 90 60 60
        E 120 80 60 00
        E 0 90 61 60
        E 120 80 61 00
        E 0 90 60 60
        E 120 80 60 00
        E 0 90 62 60
        E 120 80 62 00
        E 0 90 60 60
        E 120 80 60 00
        E 0 90 63 60
        E 120 80 63 00
        E 0 90 60 60
        E 120 80 60 00
        E 0 90 60 60
        E 120 80 60 00
        E 0 90 64 60
        E 120 80 64 00
        E 0 90 60 60
        E 120 80 60 00
        E 0 90 60 60
        E 120 80 60 00
        E 0 90 62 60
        E 120 80 62 00
        E 0 90 60 60
        E 120 80 60 00
        E 0 90 61 60
        E 120 80 61 00
        E 0 90 60 60
        E 120 80 60 00
        E 0 90 62 60
        E 120 80 62 00
        E 0 90 60 60
        E 120 80 60 00
        E 0 90 60 60
        E 120 80 60 00
        E 0 90 60 60
        E 120 80 60 00
        E 0 90 60 60
        E 120 80 60 00
        E 0 90 60 60
        E 120 80 60 00
        E 0 90 60 60
        E 120 80 60 00
        E 0 90 60 60
        E 120 80 60 00
        E 0 90 60 60
        E 120 80 60 00
        E 0 90 60 60
        E 120 80 60 00
        E 0 90 60 60
        E 120 80 60 00
        E 0 90 60 60
        E 120 80 60 00
        E 0 90 60 60
        E 120 80 60 00
        E 0 90 60 60
        E 120 80 60 00
        E 0 90 60 60
        E 120 80 60 00
        E 0 90 60 60
        E 120 80 60 00
        E 0 90 60 60
        E 120 80 60 00
        E 0 90 60 60
        E 120 80 60 00
        E 0 90 60 60
        E 120 80 60 00
        E 0 90 60 60
        E 120 80 60 00
        E 0 90 60 60
        E 120 80 60 00
        E 0 90 60 60
        E 120 80 60 00
        E 0 90 60 60
        E 120 80 60 00
        E 0 90 60 60
        E 120 80 60 00
        E 0 90 60 60
        E 120 80 60 00
        E 0 90 60 60
        E 120 80 60 00
        E 0 90 63 60
        E 0 90 66 60
        E 120 80 63 00
        E 0 80 66 00
        E 0 90 61 60
        E 120 80 61 00
        E 0 90 61 60
        E 120 80 61 00
        E 0 90 64 60
        E 120 80 64 00
        E 0 90 61 60
        E 120 80 61 00
        E 0 90 61 60
        E 120 80 61 00
        E 0 90 63 60
        E 120 80 63 00
        E 0 90 61 60
        E 120 80 61 00
        E 0 90 62 60
        E 120 80 62 00
        E 0 90 61 60
        E 120 80 61 00
        E 0 90 63 60
        E 120 80 63 00
        E 0 90 61 60
        E 120 80 61 00
        E 0 90 63 60
        E 120 80 63 00
        E 0 90 61 60
        E 120 80 61 00
        E 0 90 61 60
        E 120 80 61 00
        E 0 90 64 60
        E 120 80 64 00
        E 0 90 61 60
        E 120 80 61 00
        E 0 90 61 60
        E 120 80 61 00
        E 0 90 63 60
        E 120 80 63 00
        E 0 90 61 60
        E 120 80 61 00
        E 0 90 62 60
        E 120 80 62 00
        E 0 90 61 60
        E 120 80 61 00
        E 0 90 63 60
        E 120 80 63 00
        E 0 90 61 60
        E 120 80 61 00
        E 0 90 60 60
        E 120 80 60 00
        E 0 90 60 60
        E 120 80 60 00
        E 0 90 60 60
        E 120 80 60 00
        E 0 90 60 60
        E 120 80 60 00
        E 0 90 60 60
        E 120 80 60 00
        E 0 90 60 60
        E 120 80 60 00
        E 0 90 60 60
        E 120 80 60 00
        E 0 90 60 60
        E 120 80 60 00
        E 0 90 60 60
        E 120 80 60 00
        E 0 90 60 60
        E 120 80 60 00
        E 0 90 60 60
        E 120 80 60 00
        E 0 90 60 60
        E 120 80 60 00
        E 0 90 60 60
        E 120 80 60 00
        E 0 90 60 60
        E 120 80 60 00
        E 0 90 60 60
        E 120 80 60 00
        E 0 90 60 60
        E 120 80 60 00
        E 0 90 60 60
        E 120 80 60 00
        E 0 90 60 60
        E 120 80 60 00
        E 0 90 60 60
        E 120 80 60 00
        E 0 90 60 60
        E 120 80 60 00
        E 0 90 60 60
        E 120 80 60 00
        E 0 90 60 60
        E 120 80 60 00
        E 0 90 60 60
        E 120 80 60 00
        E 0 90 60 60
        E 120 80 60 00
        E 0 90 63 60
        E 0 90 66 60
        E 120 80 63 00
        E 0 80 66 00
        E 0 90 60 60
        E 120 80 60 00
        E 0 90 60 60
        E 120 80 60 00
        E 0 90 64 60
        E 120 80 64 00
        E 0 90 60 60
        E 120 80 60 00
        E 0 90 60 60
        E 120 80 60 00
        E 0 90 62 60
        E 120 80 62 00
        E 0 90 60 60
        E 120 80 60 00
        E 0 90 61 60
        E 120 80 61 00
        E 0 90 60 60
        E 120 80 60 00
        E 0 90 62 60
        E 120 80 62 00
        E 0 90 60 60
        E 120 80 60 00
        E 0 90 63 60
        E 120 80 63 00
        E 0 90 60 60
        E 120 80 60 00
        E 0 90 60 60
        E 120 80 60 00
        E 0 90 64 60
        E 120 80 64 00
        E 0 90 60 60
        E 120 80 60 00
        E 0 90 60 60
        E 120 80 60 00
        E 0 90 62 60
        E 120 80 62 00
        E 0 90 60 60
        E 120 80 60 00
        E 0 90 61 60
        E 120 80 61 00
        E 0 90 60 60
        E 120 80 60 00
        E 0 90 62 60
        E 120 80 62 00
        E 0 90 60 60
        E 120 80 60 00
        E 0 90 60 60
        E 120 80 60 00
        E 0 90 60 60
        E 120 80 60 00
        E 0 90 60 60
        E 120 80 60 00
        E 0 90 60 60
        E 120 80 60 00
        E 0 90 60 60
        E 120 80 60 00
        E 0 90 60 60
        E 120 80 60 00
        E 0 90 60 60
        E 120 80 60 00
        E 0 90 60 60
        E 120 80 60 00
        E 0 90 60 60
        E 120 80 60 00
        E 0 90 60 60
        E 120 80 60 00
        E 0 90 60 60
        E 120 80 60 00
        E 0 90 60 60
        E 120 80 60 00
        E 0 90 60 60
        E 120 80 60 00
        E 0 90 60 60
        E 120 80 60 00
        E 0 90 60 60
        E 120 80 60 00
        E 0 90 60 60
        E 120 80 60 00
        E 0 90 60 60
        E 120 80 60 00
        E 0 90 60 60
        E 120 80 60 00
        E 0 90 60 60
        E 120 80 60 00
        E 0 90 60 60
        E 120 80 60 00
        E 0 90 60 60
        E 120 80 60 00
        E 0 90 60 60
        E 120 80 60 00
        E 0 90 60 60
        E 120 80 60 00
        E 0 90 60 60
        E 120 80 60 00
        E 0 90 63 60
        E 0 90 66 60
        E 120 80 63 00
        E 0 80 66 00
        E 0 90 61 60
        E 120 80 61 00
        E 0 90 61 60
        E 120 80 61 00
        E 0 90 64 60
        E 120 80 64 00
        E 0 90 61 60
        E 120 80 61 00
        E 0 90 61 60
        E 120 80 61 00
        E 0 90 63 60
        E 120 80 63 00
        E 0 90 61 60
        E 120 80 61 00
        E 0 90 62 60
        E 120 80 62 00
        E 0 90 61 60
        E 120 80 61 00
        E 0 90 63 60
        E 120 80 63 00
        E 0 90 61 60
        E 120 80 61 00
        E 0 90 63 60
        E 120 80 63 00
        E 0 90 61 60
        E 120 80 61 00
        E 0 90 61 60
        E 120 80 61 00
        E 0 90 64 60
        E 120 80 64 00
        E 0 90 61 60
        E 120 80 61 00
        E 0 90 61 60
        E 120 80 61 00
        E 0 90 63 60
        E 120 80 63 00
        E 0 90 61 60
        E 120 80 61 00
        E 0 90 62 60
        E 120 80 62 00
        E 0 90 61 60
        E 120 80 61 00
        E 0 90 63 60
        E 120 80 63 00
        E 0 90 61 60
        E 120 80 61 00
        E 0 90 64 60
        E 120 80 64 00
        E 0 90 64 60
        E 120 80 64 00
        E 0 90 60 60
        E 120 80 60 00
        E 0 90 63 60
        E 120 80 63 00
        E 0 90 60 60
        E 120 80 60 00
        E 0 90 60 60
        E 120 80 60 00
        E 0 90 62 60
        E 120 80 62 00
        E 0 90 60 60
        E 120 80 60 00
        E 0 90 61 60
        E 120 80 61 00
        E 0 90 60 60
        E 120 80 60 00
        E 0 90 61 60
        E 120 80 61 00
        E 0 90 60 60
        E 120 80 60 00
        E 0 90 64 60
        E 120 80 64 00
        E 0 90 64 60
        E 120 80 64 00
        E 0 90 60 60
        E 120 80 60 00
        E 0 90 63 60
        E 120 80 63 00
        E 0 90 60 60
        E 120 80 60 00
        E 0 90 60 60
        E 120 80 60 00
        E 0 90 62 60
        E 120 80 62 00
        E 0 90 60 60
        E 120 80 60 00
        E 0 90 61 60
        E 120 80 61 00
        E 0 90 60 60
        E 120 80 60 00
        E 0 90 61 60
        E 120 80 61 00
        E 0 90 60 60
        E 120 80 60 00
        E 0 90 63 60
        E 120 80 63 00
        E 0 90 61 60
        E 120 80 61 00
        E 0 90 61 60
        E 120 80 61 00
        E 0 90 64 60
        E 120 80 64 00
        E 0 90 61 60
        E 120 80 61 00
        E 0 90 61 60
        E 120 80 61 00
        E 0 90 63 60
        E 120 80 63 00
        E 0 90 61 60
        E 120 80 61 00
        E 0 90 62 60
        E 120 80 62 00
        E 0 90 61 60
        E 120 80 61 00
        E 0 90 63 60
        E 120 80 63 00
        E 0 90 61 60
        E 120 80 61 00
        E 0 90 63 60
        E 120 80 63 00
        E 0 90 61 60
        E 120 80 61 00
        E 0 90 61 60
        E 120 80 61 00
        E 0 90 64 60
        E 120 80 64 00
        E 0 90 61 60
        E 120 80 61 00
        E 0 90 61 60
        E 120 80 61 00
        E 0 90 63 60
        E 120 80 63 00
        E 0 90 61 60
        E 120 80 61 00
        E 0 90 62 60
        E 120 80 62 00
        E 0 90 61 60
        E 120 80 61 00
        E 0 90 63 60
        E 120 80 63 00
        E 0 90 61 60
        E 120 80 61 00
        E 0 90 64 60
        E 120 80 64 00
        E 0 90 64 60
        E 120 80 64 00
        E 0 90 60 60
        E 120 80 60 00
        E 0 90 63 60
        E 120 80 63 00
        E 0 90 60 60
        E 120 80 60 00
        E 0 90 60 60
        E 120 80 60 00
        E 0 90 62 60
        E 120 80 62 00
        E 0 90 60 60
        E 120 80 60 00
        E 0 90 61 60
        E 120 80 61 00
        E 0 90 60 60
        E 120 80 60 00
        E 0 90 61 60
        E 120 80 61 00
        E 0 90 60 60
        E 120 80 60 00
        E 0 90 64 60
        E 120 80 64 00
        E 0 90 64 60
        E 120 80 64 00
        E 0 90 60 60
        E 120 80 60 00
        E 0 90 63 60
        E 120 80 63 00
        E 0 90 60 60
        E 120 80 60 00
        E 0 90 60 60
        E 120 80 60 00
        E 0 90 62 60
        E 120 80 62 00
        E 0 90 60 60
        E 120 80 60 00
        E 0 90 61 60
        E 120 80 61 00
        E 0 90 60 60
        E 120 80 60 00
        E 0 90 61 60
        E 120 80 61 00
        E 0 90 60 60
        <X 120 0
          /wFbcGxheV0=
        >
        E 0 80 60 00
        E 0 90 63 60
        E 0 90 66 60
        E 120 80 63 00
        E 0 80 66 00
        E 240 90 64 60
        E 120 80 64 00
        E 240 90 62 60
        E 2040 80 62 00
        E 120 90 62 60
        E 120 80 62 00
        E 240 90 63 60
        E 120 80 63 00
        E 240 90 61 60
        E 2040 80 61 00
        E 120 90 61 60
        E 120 80 61 00
        E 240 90 62 60
        E 120 80 62 00
        E 240 90 60 60
        E 2040 80 60 00
        E 120 90 61 60
        E 600 80 61 00
        E 120 90 62 60
        E 600 80 62 00
        E 120 90 63 60
        E 600 80 63 00
        E 120 90 64 60
        E 600 80 64 00
        E 120 90 63 60
        E 120 80 63 00
        E 240 90 64 60
        E 120 80 64 00
        E 240 90 62 60
        E 2040 80 62 00
        E 120 90 62 60
        E 120 80 62 00
        E 240 90 63 60
        E 120 80 63 00
        E 240 90 61 60
        E 2040 80 61 00
        E 120 90 61 60
        E 120 80 61 00
        E 240 90 62 60
        E 120 80 62 00
        E 240 90 60 60
        E 2040 80 60 00
        E 120 90 61 60
        E 600 80 61 00
        E 120 90 62 60
        E 600 80 62 00
        E 120 90 63 60
        E 600 80 63 00
        E 120 90 64 60
        E 600 80 64 00
        E 120 90 60 60
        E 0 90 66 60
        E 120 80 60 00
        E 0 90 60 60
        E 120 80 60 00
        E 0 90 60 60
        E 120 80 60 00
        E 0 90 60 60
        E 120 80 60 00
        E 0 90 60 60
        E 120 80 60 00
        E 0 90 60 60
        E 120 80 60 00
        E 0 90 61 60
        E 120 80 61 00
        E 0 90 61 60
        E 120 80 61 00
        E 0 90 61 60
        E 120 80 61 00
        E 0 90 61 60
        E 120 80 61 00
        E 0 90 61 60
        E 120 80 61 00
        E 0 90 61 60
        E 120 80 61 00
        E 0 90 60 60
        E 120 80 60 00
        E 0 90 60 60
        E 120 80 60 00
        E 0 90 60 60
        E 120 80 60 00
        E 0 90 60 60
        E 120 80 60 00
        E 0 90 60 60
        E 120 80 60 00
        E 0 90 60 60
        E 120 80 60 00
        E 0 90 61 60
        E 120 80 61 00
        E 0 90 61 60
        E 120 80 61 00
        E 0 90 61 60
        E 120 80 61 00
        E 0 90 61 60
        E 120 80 61 00
        E 0 90 61 60
        E 120 80 61 00
        E 0 90 61 60
        E 120 80 61 00
        E 0 90 60 60
        E 120 80 60 00
        E 0 90 60 60
        E 120 80 60 00
        E 0 90 60 60
        E 120 80 60 00
        E 0 90 60 60
        E 120 80 60 00
        E 0 90 60 60
        E 120 80 60 00
        E 0 90 60 60
        E 120 80 60 00
        E 0 90 62 60
        E 120 80 62 00
        E 0 90 62 60
        E 120 80 62 00
        E 0 90 62 60
        E 120 80 62 00
        E 0 90 62 60
        E 120 80 62 00
        E 0 90 62 60
        E 120 80 62 00
        E 0 90 62 60
        E 120 80 62 00
        E 0 90 60 60
        E 120 80 60 00
        E 0 90 60 60
        E 120 80 60 00
        E 0 90 60 60
        E 120 80 60 00
        E 0 90 60 60
        E 120 80 60 00
        E 0 90 60 60
        E 120 80 60 00
        E 0 90 60 60
        E 120 80 60 00
        E 0 90 62 60
        E 120 80 62 00
        E 0 90 62 60
        E 120 80 62 00
        E 0 90 62 60
        E 120 80 62 00
        E 0 90 62 60
        E 120 80 62 00
        E 0 90 62 60
        E 120 80 62 00
        E 0 90 62 60
        E 120 80 62 00
        E 0 90 60 60
        E 120 80 60 00
        E 0 90 60 60
        E 120 80 60 00
        E 0 90 60 60
        E 120 80 60 00
        E 0 90 60 60
        E 120 80 60 00
        E 0 90 60 60
        E 120 80 60 00
        E 0 90 60 60
        E 120 80 60 00
        E 0 90 63 60
        E 120 80 63 00
        E 0 90 63 60
        E 120 80 63 00
        E 0 90 63 60
        E 120 80 63 00
        E 0 90 63 60
        E 120 80 63 00
        E 0 90 63 60
        E 120 80 63 00
        E 0 90 63 60
        E 120 80 63 00
        E 0 90 60 60
        E 120 80 60 00
        E 0 90 60 60
        E 120 80 60 00
        E 0 90 60 60
        E 120 80 60 00
        E 0 90 60 60
        E 120 80 60 00
        E 0 90 60 60
        E 120 80 60 00
        E 0 90 60 60
        E 120 80 60 00
        E 0 90 63 60
        E 120 80 63 00
        E 0 90 63 60
        E 120 80 63 00
        E 0 90 63 60
        E 120 80 63 00
        E 0 90 63 60
        E 120 80 63 00
        E 0 90 63 60
        E 120 80 63 00
        E 0 90 63 60
        E 120 80 63 00
        E 0 90 60 60
        E 120 80 60 00
        E 0 90 60 60
        E 120 80 60 00
        E 0 90 60 60
        E 120 80 60 00
        E 0 90 60 60
        E 120 80 60 00
        E 0 90 60 60
        E 120 80 60 00
        E 0 90 60 60
        E 120 80 60 00
        E 0 90 64 60
        E 120 80 64 00
        E 0 90 64 60
        E 120 80 64 00
        E 0 90 64 60
        E 120 80 64 00
        E 0 90 64 60
        E 120 80 64 00
        E 0 90 64 60
        E 120 80 64 00
        E 0 90 64 60
        E 120 80 64 00
        E 0 90 60 60
        E 120 80 60 00
        E 0 90 60 60
        E 120 80 60 00
        E 0 90 60 60
        E 120 80 60 00
        E 0 90 60 60
        E 120 80 60 00
        E 0 90 60 60
        E 120 80 60 00
        E 0 90 60 60
        E 120 80 60 00
        E 0 90 64 60
        E 120 80 64 00
        E 0 90 64 60
        E 120 80 64 00
        E 0 90 64 60
        E 120 80 64 00
        E 0 90 64 60
        E 120 80 64 00
        E 0 90 64 60
        E 120 80 64 00
        E 0 90 64 60
        E 120 80 64 00
        E 0 90 60 60
        E 120 80 60 00
        E 0 90 60 60
        E 120 80 60 00
        E 0 90 60 60
        E 120 80 60 00
        E 0 90 60 60
        E 120 80 60 00
        E 0 90 60 60
        E 120 80 60 00
        E 0 90 60 60
        E 120 80 60 00
        E 0 90 61 60
        E 120 80 61 00
        E 0 90 61 60
        E 120 80 61 00
        E 0 90 61 60
        E 120 80 61 00
        E 0 90 61 60
        E 120 80 61 00
        E 0 90 61 60
        E 120 80 61 00
        E 0 90 61 60
        E 120 80 61 00
        E 0 90 60 60
        E 120 80 60 00
        E 0 90 60 60
        E 120 80 60 00
        E 0 90 60 60
        E 120 80 60 00
        E 0 90 60 60
        E 120 80 60 00
        E 0 90 60 60
        E 120 80 60 00
        E 0 90 60 60
        E 120 80 60 00
        E 0 90 61 60
        E 120 80 61 00
        E 0 90 61 60
        E 120 80 61 00
        E 0 90 61 60
        E 120 80 61 00
        E 0 90 61 60
        E 120 80 61 00
        E 0 90 61 60
        E 120 80 61 00
        E 0 90 61 60
        E 120 80 61 00
        E 0 90 60 60
        E 120 80 60 00
        E 0 90 60 60
        E 120 80 60 00
        E 0 90 60 60
        E 120 80 60 00
        E 0 90 60 60
        E 120 80 60 00
        E 0 90 60 60
        E 120 80 60 00
        E 0 90 60 60
        E 120 80 60 00
        E 0 90 62 60
        E 120 80 62 00
        E 0 90 62 60
        E 120 80 62 00
        E 0 90 62 60
        E 120 80 62 00
        E 0 90 62 60
        E 120 80 62 00
        E 0 90 62 60
        E 120 80 62 00
        E 0 90 62 60
        E 120 80 62 00
        E 0 90 60 60
        E 120 80 60 00
        E 0 90 60 60
        E 120 80 60 00
        E 0 90 60 60
        E 120 80 60 00
        E 0 90 60 60
        E 120 80 60 00
        E 0 90 60 60
        E 120 80 60 00
        E 0 90 60 60
        E 120 80 60 00
        E 0 90 62 60
        E 120 80 62 00
        E 0 90 62 60
        E 120 80 62 00
        E 0 90 62 60
        E 120 80 62 00
        E 0 90 62 60
        E 120 80 62 00
        E 0 90 62 60
        E 120 80 62 00
        E 0 90 62 60
        E 120 80 62 00
        E 0 90 60 60
        E 120 80 60 00
        E 0 90 60 60
        E 120 80 60 00
        E 0 90 60 60
        E 120 80 60 00
        E 0 90 60 60
        E 120 80 60 00
        E 0 90 60 60
        E 120 80 60 00
        E 0 90 60 60
        E 120 80 60 00
        E 0 90 63 60
        E 120 80 63 00
        E 0 90 63 60
        E 120 80 63 00
        E 0 90 63 60
        E 120 80 63 00
        E 0 90 63 60
        E 120 80 63 00
        E 0 90 63 60
        E 120 80 63 00
        E 0 90 63 60
        E 120 80 63 00
        E 0 90 60 60
        E 120 80 60 00
        E 0 90 60 60
        E 120 80 60 00
        E 0 90 60 60
        E 120 80 60 00
        E 0 90 60 60
        E 120 80 60 00
        E 0 90 60 60
        E 120 80 60 00
        E 0 90 60 60
        E 120 80 60 00
        E 0 90 63 60
        E 120 80 63 00
        E 0 90 63 60
        E 120 80 63 00
        E 0 90 63 60
        E 120 80 63 00
        E 0 90 63 60
        E 120 80 63 00
        E 0 90 63 60
        E 120 80 63 00
        E 0 90 63 60
        E 120 80 63 00
        E 0 90 60 60
        E 120 80 60 00
        E 0 90 60 60
        E 120 80 60 00
        E 0 90 60 60
        E 120 80 60 00
        E 0 90 60 60
        E 120 80 60 00
        E 0 90 60 60
        E 120 80 60 00
        E 0 90 60 60
        E 120 80 60 00
        E 0 90 64 60
        E 120 80 64 00
        E 0 90 64 60
        E 120 80 64 00
        E 0 90 64 60
        E 120 80 64 00
        E 0 90 64 60
        E 120 80 64 00
        E 0 90 64 60
        E 120 80 64 00
        E 0 90 64 60
        E 120 80 64 00
        E 0 90 64 60
        E 120 80 64 00
        E 0 90 64 60
        E 120 80 64 00
        E 0 90 64 60
        E 120 80 64 00
        E 0 90 64 60
        E 120 80 64 00
        E 0 90 64 60
        E 120 80 64 00
        E 0 90 64 60
        E 120 80 64 00
        E 0 90 64 60
        E 120 80 64 00
        E 0 90 64 60
        E 120 80 64 00
        E 0 90 64 60
        E 120 80 64 00
        E 0 90 64 60
        E 120 80 64 00
        E 0 90 64 60
        E 120 80 64 00
        E 0 90 64 60
        E 120 80 64 00
        E 0 90 64 60
        E 120 80 66 00
        E 0 80 64 00
        E 240 90 63 60
        E 120 80 63 00
        E 240 90 62 60
        E 120 80 62 00
        E 240 90 61 60
        E 120 80 61 00
        E 240 90 62 60
        E 120 80 62 00
        E 240 90 64 60
        E 120 80 64 00
        E 240 90 62 60
        E 120 80 62 00
        E 240 90 60 60
        E 120 80 60 00
        E 240 90 61 60
        E 120 80 61 00
        E 240 90 60 60
        E 120 80 60 00
        E 240 90 61 60
        E 2040 80 61 00
        E 120 90 64 60
        E 120 80 64 00
        E 240 90 63 60
        E 120 80 63 00
        E 240 90 62 60
        E 120 80 62 00
        E 240 90 61 60
        E 120 80 61 00
        E 240 90 62 60
        E 120 80 62 00
        E 240 90 64 60
        E 120 80 64 00
        E 240 90 62 60
        E 120 80 62 00
        E 240 90 60 60
        E 120 80 60 00
        E 240 90 61 60
        E 120 80 61 00
        E 240 90 60 60
        E 120 80 60 00
        E 240 90 61 60
        E 2040 80 61 00
        E 120 90 64 60
        E 120 80 64 00
        E 240 90 63 60
        E 120 80 63 00
        E 240 90 62 60
        E 120 80 62 00
        E 240 90 61 60
        E 120 80 61 00
        E 240 90 62 60
        E 120 80 62 00
        E 240 90 64 60
        E 120 80 64 00
        E 240 90 62 60
        E 120 80 62 00
        E 240 90 60 60
        E 120 80 60 00
        E 240 90 61 60
        E 120 80 61 00
        E 240 90 60 60
        E 120 80 60 00
        E 240 90 61 60
        E 2040 80 61 00
        E 120 90 64 60
        E 120 80 64 00
        E 240 90 63 60
        E 120 80 63 00
        E 240 90 62 60
        E 120 80 62 00
        E 240 90 61 60
        E 120 80 61 00
        E 240 90 62 60
        E 120 80 62 00
        E 240 90 64 60
        E 120 80 64 00
        E 240 90 62 60
        E 120 80 62 00
        E 240 90 60 60
        E 120 80 60 00
        E 240 90 61 60
        E 120 80 61 00
        E 240 90 60 60
        E 120 80 60 00
        E 240 90 61 60
        E 2040 80 61 00
        <X 120 0
          /wFbaW50ZW5zZV0=
        >
        E 0 90 62 60
        E 120 80 62 00
        E 0 90 61 60
        E 120 80 61 00
        E 0 90 60 60
        E 120 80 60 00
        E 0 90 62 60
        E 120 80 62 00
        E 0 90 61 60
        E 120 80 61 00
        E 0 90 60 60
        E 120 80 60 00
        E 0 90 62 60
        E 120 80 62 00
        E 0 90 61 60
        E 120 80 61 00
        E 0 90 64 60
        E 120 80 64 00
        E 120 90 64 60
        E 120 80 64 00
        E 120 90 62 60
        E 120 80 62 00
        E 0 90 61 60
        E 120 80 61 00
        E 0 90 60 60
        E 120 80 60 00
        E 0 90 62 60
        E 120 80 62 00
        E 0 90 61 60
        E 120 80 61 00
        E 0 90 60 60
        E 120 80 60 00
        E 0 90 62 60
        E 120 80 62 00
        E 0 90 61 60
        E 120 80 61 00
        E 0 90 63 60
        E 120 80 63 00
        E 120 90 63 60
        E 120 80 63 00
        E 120 90 62 60
        E 120 80 62 00
        E 0 90 61 60
        E 120 80 61 00
        E 0 90 60 60
        E 120 80 60 00
        E 0 90 62 60
        E 120 80 62 00
        E 0 90 61 60
        E 120 80 61 00
        E 0 90 60 60
        E 120 80 60 00
        E 0 90 62 60
        E 120 80 62 00
        E 0 90 61 60
        E 120 80 61 00
        E 0 90 64 60
        E 120 80 64 00
        E 120 90 64 60
        E 120 80 64 00
        E 120 90 62 60
        E 120 80 62 00
        E 0 90 61 60
        E 120 80 61 00
        E 0 90 60 60
        E 120 80 60 00
        E 0 90 62 60
        E 120 80 62 00
        E 0 90 61 60
        E 120 80 61 00
        E 0 90 60 60
        E 120 80 60 00
        E 0 90 62 60
        E 120 80 62 00
        E 0 90 61 60
        E 120 80 61 00
        E 0 90 63 60
        E 120 80 63 00
        E 120 90 63 60
        E 120 80 63 00
        E 120 90 62 60
        E 120 80 62 00
        E 0 90 61 60
        E 120 80 61 00
        E 0 90 60 60
        E 120 80 60 00
        E 0 90 62 60
        E 120 80 62 00
        E 240 90 62 60
        E 120 80 62 00
        E 0 90 61 60
        E 120 80 61 00
        E 0 90 60 60
        E 120 80 60 00
        E 0 90 62 60
        E 120 80 62 00
        E 240 90 62 60
        E 120 80 62 00
        E 0 90 61 60
        E 120 80 61 00
        E 0 90 60 60
        E 120 80 60 00
        E 0 90 62 60
        E 120 80 62 00
        E 240 90 62 60
        E 120 80 62 00
        E 120 90 61 60
        E 120 80 61 00
        E 0 90 62 60
        E 0 90 66 60
        E 840 80 62 00
        E 0 80 66 00
        <X 960 0
          /wFbaWRsZV9yZWFsdGltZV0=
        >
        E 8640 b0 7b 00
        GUID {54A57D35-811F-42A6-AB75-F5706122F903}
        IGNTEMPO 0 120 4 4
        SRCCOLOR 3
        VELLANE 132 31 60
        COLORMAP "C:\Program Files (x86)\REAPER\Data\color_maps\rockband_guitarbass.png"
        TEXTSTRINGFILE "Text Events List.txt"
        CFGEDITVIEW 928.881517 125.96655 8 12 0 0 0 0 0 0.5
        KEYSNAP 0
        TRACKSEL 0
        EVTFILTER 0 -1 -1 -1 -1 0 1 0 0 -1 -1 -1 -1 0 -1 0 -1 -1
        CFGEDIT 1 1 0 0 0 1 1 1 1 1 1 0.25 -8 -8 1370 736 1 2 1 2 0 0 0 0 0 0.5 1 0 1 64
      >
    >
  >
  <TRACK {C298A11E-8E06-44B8-AA31-429ECCE3F0AF}
    NAME "PART VOCALS"
    PEAKCOL 16810239
    BEAT -1
    AUTOMODE 0
    VOLPAN 1 0 -1 -1 1
    MUTESOLO 0 0 0
    IPHASE 0
    ISBUS 2 -1
    BUSCOMP 1 0
    SHOWINMIX 1 0.6667 0.5 1 0.5 0 0 0
    FREEMODE 0
    SEL 0
    REC 0 4096 1 7 0 0 0
    TRACKHEIGHT 0 0
    INQ 0 0 0 0.5 100 0 0 100
    NCHAN 2
    FX 1
    TRACKID {C298A11E-8E06-44B8-AA31-429ECCE3F0AF}
    PERF 0
    MIDIOUT -1
    <MIDINOTENAMES
      0 0 "Range Shift" 0 0
      0 1 "Lyric Shift" 0 1
      0 36 C1 0 36
      0 37 C# 0 37
      0 38 D 0 38
      0 39 Eb 0 39
      0 40 E 0 40
      0 41 F 0 41
      0 42 F# 0 42
      0 43 G 0 43
      0 44 G# 0 44
      0 45 A 0 45
      0 46 Bb 0 46
      0 47 B 0 47
      0 48 C2 0 48
      0 49 C# 0 49
      0 50 D 0 50
      0 51 Eb 0 51
      0 52 E 0 52
      0 53 F 0 53
      0 54 F# 0 54
      0 55 G 0 55
      0 56 G# 0 56
      0 57 A 0 57
      0 58 Bb 0 58
      0 59 B 0 59
      0 60 C3 0 60
      0 61 C# 0 61
      0 62 D 0 62
      0 63 Eb 0 63
      0 64 E 0 64
      0 65 F 0 65
      0 66 F# 0 66
      0 67 G 0 67
      0 68 G# 0 68
      0 69 A 0 69
      0 70 Bb 0 70
      0 71 B 0 71
      0 72 C4 0 72
      0 73 C# 0 73
      0 74 D 0 74
      0 75 Eb 0 75
      0 76 E 0 76
      0 77 F 0 77
      0 78 F# 0 78
      0 79 G 0 79
      0 80 G# 0 80
      0 81 A 0 81
      0 82 Bb 0 82
      0 83 B 0 83
      0 84 C5 0 84
      0 95 ---- 0 95
      0 96 "Displayed Percussion" 0 96
      0 97 "Not Displayed Percussion" 0 97
      0 104 ---- 0 104
      0 105 "Phrase Marker" 0 105
      0 115 ---- 0 115
      0 116 OVERDRIVE 0 116
    >
    MAINSEND 1 0
    <FXCHAIN
      WNDRECT 459 134 544 464
      SHOW 0
      LASTSEL 1
      DOCKED 0
      BYPASS 0 0 0
      <JS "IX/MIDI_Tool II" ""
        0.000000 85.000000 127.000000 0.000000 0.000000 0.000000 100.000000 0.000000 0.000000 127.000000 0.000000 0.000000 1.000000 0.000000 0.000000 - - - - - - - - - - - - - - - - - - - - - - - - - - - - - - - - - - - - - - - - - - - - - - - - - 
      >
      FLOATPOS 0 0 0 0
      FXID {CA785021-0433-497E-9A6C-EE23A1BC21B0}
      WAK 0
      BYPASS 0 0 0
      <VST "VSTi: ReaSynth (Cockos)" reasynth.dll 0 "" 1919251321
        eXNlcu9e7f4AAAAAAgAAAAEAAAAAAAAAAgAAAAAAAAA8AAAAAAAAAAAAAAA=
        776t3g3wrd6mm8Q7F7fROvhTYz8AAAAAAAAAAMybgD7pZ4g9AAAAAAAAAD8AAIA/AAAAAAAAAD8AAIA/
        AAAAAAAA
      >
      FLOATPOS 32 32 338 405
      FXID {F124DD19-73B4-4CD5-B659-E246F2A3D0B3}
      WAK 0
    >
    <ITEM
      POSITION 0
      SNAPOFFS 0
      LENGTH 177.06791585015557
      LOOP 0
      ALLTAKES 0
      FADEIN 1 0 0 1 0 0
      FADEOUT 1 0 0 1 0 0
      MUTE 0
      SEL 0
      IGUID {9C9617EC-369A-41B9-80F6-31F4222F13F6}
      IID 12
      NAME "PART VOCALS"
      VOLPAN 1 0 1 -1
      SOFFS 0 0
      PLAYRATE 1 1 0 -65536 0 0.0025
      CHANMODE 0
      GUID {8E872349-00D8-4243-95D7-0B92852E4EE5}
      <SOURCE MIDI
        HASDATA 1 480 QN
        POOLEDEVTS {414B8EE7-5D57-4F17-8668-2FC87ECDD8AE}
        <X 0 0
          /wNQQVJUIFZPQ0FMUw==
        >
        E 44580 90 69 60
        <X 60 0
          /wVUaGVyZSdz
        >
        E 0 90 3e 60
        E 1170 80 3e 00
        <X 270 0
          /wVtYS0=
        >
        E 0 90 41 60
        E 840 80 41 00
        <X 240 0
          /wUr
        >
        E 0 90 3f 60
        E 150 80 3f 00
        <X 210 0
          /wVnaWM=
        >
        E 0 90 3e 62
        E 1200 80 3e 00
        <X 240 0
          /wVpbg==
        >
        E 0 90 3c 60
        E 1020 80 3c 00
        E 60 80 69 00
        E 300 90 69 60
        <X 60 0
          /wVXYS0=
        >
        E 0 90 3e 60
        E 1200 80 3e 00
        <X 240 0
          /wV0ZXI=
        >
        E 0 90 41 60
        E 540 80 41 00
        <X 90 0
          /wV0aGF0
        >
        E 0 90 41 60
        E 420 80 41 00
        <X 150 0
          /wVhdC0=
        >
        E 0 90 41 60
        E 210 80 41 00
        <X 90 0
          /wUr
        >
        E 0 90 3f 60
        E 330 80 3f 00
        <X 330 0
          /wV0cmFjdHM=
        >
        E 0 90 3e 60
        E 1140 80 3e 00
        <X 30 0
          /wUr
        >
        E 0 90 3d 60
        E 60 80 3d 00
        <X 30 0
          /wUr
        >
        E 0 90 3e 60
        E 180 80 3e 00
        E 90 80 69 00
        E 540 90 69 60
        <X 90 0
          /wVBbGw=
        >
        E 0 90 3f 60
        E 1200 80 3f 00
        <X 240 0
          /wVtZW4=
        >
        E 0 90 3e 60
        E 690 80 3e 00
        <X 30 0
          /wUr
        >
        E 0 90 3d 60
        E 60 80 3d 00
        <X 660 0
          /wVhbGw=
        >
        E 0 90 3f 60
        E 1200 80 3f 00
        <X 240 0
          /wVtZW4=
        >
        E 0 90 3e 60
        E 690 80 3e 00
        <X 30 0
          /wUr
        >
        E 0 90 3d 60
        E 60 80 3d 00
        E 90 80 69 00
        E 510 90 69 60
        <X 60 0
          /wVBLQ==
        >
        E 0 90 3e 60
        E 480 80 3e 00
        <X 240 0
          /wVjcm9zcw==
        >
        E 0 90 3e 60
        E 450 80 3e 00
        <X 270 0
          /wVoaWxscw==
        >
        E 0 90 41 60
        E 390 80 41 00
        <X 180 0
          /wVhbmQ=
        >
        E 0 90 41 60
        E 360 80 41 00
        <X 210 0
          /wVkb3du
        >
        E 0 90 41 60
        E 390 80 41 00
        <X 240 0
          /wUr
        >
        E 0 90 3f 60
        E 150 80 3f 00
        <X 360 0
          /wVzdHJlYW1z
        >
        E 0 90 3e 60
        E 1560 80 3e 00
        E 90 80 69 00
        E 3900 90 69 60
        <X 90 0
          /wVUaGU=
        >
        E 0 90 41 60
        E 480 80 41 00
        <X 240 0
          /wV0dXJuLQ==
        >
        E 0 90 41 60
        E 120 80 41 00
        <X 30 0
          /wUr
        >
        E 0 90 43 60
        E 210 80 43 00
        <X 300 0
          /wUr
        >
        E 0 90 41 60
        E 180 80 41 00
        <X 240 0
          /wVpbmc=
        >
        E 0 90 41 60
        E 1200 80 41 00
        <X 30 0
          /wUr
        >
        E 0 90 40 60
        E 120 80 40 00
        E 90 80 69 00
        E 3150 90 69 60
        <X 90 0
          /wVPZg==
        >
        E 0 90 41 60
        E 720 80 41 00
        <X 360 0
          /wV0aGU=
        >
        E 0 90 42 60
        E 270 80 42 00
        <X 240 0
          /wUr
        >
        E 0 90 3f 60
        E 270 80 3f 00
        <X 300 0
          /wV0aWRl
        >
        E 0 90 3f 60
        E 210 80 3f 00
        <X 30 0
          /wUr
        >
        E 0 90 3e 60
        E 1920 80 3e 00
        E 90 80 69 00
        E 30030 90 69 60
        <X 120 0
          /wVPdXQt
        >
        E 0 90 41 60
        E 210 80 41 00
        <X 30 0
          /wUr
        >
        E 0 90 43 60
        E 240 80 43 00
        <X 30 0
          /wUr
        >
        E 0 90 41 60
        E 390 80 41 00
        <X 210 0
          /wVsb29r
        >
        E 0 90 41 60
        E 1050 80 41 00
        E 120 80 69 00
        E 510 90 69 60
        <X 90 0
          /wVGdS0=
        >
        E 0 90 3f 60
        E 210 80 3f 00
        <X 30 0
          /wUr
        >
        E 0 90 41 60
        E 390 80 41 00
        <X 30 0
          /wUr
        >
        E 0 90 40 60
        E 240 80 40 00
        <X 300 0
          /wV0dXJl
        >
        E 0 90 40 60
        E 300 80 40 00
        <X 30 0
          /wUr
        >
        E 0 90 3f 60
        E 390 80 3f 00
        <X 300 0
          /wVicmlnaHQ=
        >
        E 0 90 3e 60
        E 1860 80 3e 00
        E 120 80 69 00
        E 4320 90 69 60
        <X 120 0
          /wVTZWwt
        >
        E 0 90 41 60
        E 210 80 41 00
        <X 30 0
          /wUr
        >
        E 0 90 43 60
        E 300 80 43 00
        <X 30 0
          /wUr
        >
        E 0 90 41 60
        E 330 80 41 00
        <X 150 0
          /wVmaXNo
        >
        E 0 90 41 60
        E 1110 80 41 00
        E 60 80 69 00
        E 630 90 69 60
        <X 90 0
          /wVCZWF1LQ==
        >
        E 0 90 41 60
        E 570 80 41 00
        <X 30 0
          /wUr
        >
        E 0 90 40 60
        E 270 80 40 00
        <X 270 0
          /wV0eQ==
        >
        E 0 90 40 60
        E 300 80 40 00
        <X 30 0
          /wUr
        >
        E 0 90 3f 60
        E 390 80 3f 00
        <X 300 0
          /wVzaGluZXM=
        >
        E 0 90 3e 60
        E 1860 80 3e 00
        E 60 80 69 00
        E 120 90 69 60
        <X 60 0
          /wVMaWdodCM=
        >
        E 0 90 43 60
        E 540 80 43 00
        <X 180 0
          /wVjbG91ZCM=
        >
        E 0 90 43 60
        E 540 80 43 00
        <X 180 0
          /wVyYWluIw==
        >
        E 0 90 43 60
        E 540 80 43 00
        <X 180 0
          /wVkcml2ZSM=
        >
        E 0 90 43 60
        E 810 80 43 00
        <X 180 0
          /wVvbiM=
        >
        E 0 90 43 60
        E 930 80 43 00
        E 90 80 69 00
        <X 21750 0
          /wVUaGlyLQ==
        >
        E 0 90 3f 60
        E 0 90 69 60
        E 240 80 3f 00
        <X 120 0
          /wV0ZWVu
        >
        E 0 90 3e 60
        E 240 80 3e 00
        <X 120 0
          /wV5ZWFycw==
        >
        E 0 90 3c 60
        E 240 80 3c 00
        <X 120 0
          /wV0bw==
        >
        E 0 90 3b 60
        E 240 80 3b 00
        <X 120 0
          /wV0aGlz
        >
        E 0 90 3c 60
        E 240 80 3c 00
        <X 120 0
          /wVkYXk=
        >
        E 0 90 3f 60
        E 240 80 3f 00
        <X 120 0
          /wVyZWQ=
        >
        E 0 90 3c 60
        E 240 80 3c 00
        <X 120 0
          /wVwbGEt
        >
        E 0 90 3b 60
        E 240 80 3b 00
        <X 120 0
          /wVuZXQ=
        >
        E 0 90 3c 60
        E 240 80 3c 00
        <X 120 0
          /wVhLQ==
        >
        E 0 90 39 60
        E 240 80 39 00
        <X 120 0
          /wVsaWduZWQ=
        >
        E 0 90 3c 60
        E 570 80 3c 00
        E 150 80 69 00
        <X 1440 0
          /wVJbi0=
        >
        E 0 90 3f 60
        E 0 90 69 60
        E 240 80 3f 00
        <X 120 0
          /wV0bw==
        >
        E 0 90 3e 60
        E 240 80 3e 00
        <X 120 0
          /wVzaWdodA==
        >
        E 0 90 3c 60
        E 240 80 3c 00
        <X 120 0
          /wVzaXgt
        >
        E 0 90 3b 60
        E 240 80 3b 00
        <X 120 0
          /wV0eQ==
        >
        E 0 90 3c 60
        E 240 80 3c 00
        <X 120 0
          /wV0aG91LQ==
        >
        E 0 90 3f 60
        E 240 80 3f 00
        <X 120 0
          /wVzYW5k
        >
        E 0 90 3c 60
        E 240 80 3c 00
        <X 120 0
          /wV5ZWFycw==
        >
        E 0 90 3b 60
        E 240 80 3b 00
        <X 120 0
          /wVvZg==
        >
        E 0 90 3c 60
        E 240 80 3c 00
        <X 120 0
          /wUr
        >
        E 0 90 39 60
        E 180 80 39 00
        <X 180 0
          /wVsaWdodA==
        >
        E 0 90 3c 60
        E 690 80 3c 00
        E 30 80 69 00
        <X 1440 0
          /wVGYXMt
        >
        E 0 90 3f 60
        E 0 90 69 60
        E 210 80 3f 00
        <X 150 0
          /wVjaS0=
        >
        E 0 90 3e 60
        E 240 80 3e 00
        <X 120 0
          /wVuYS0=
        >
        E 0 90 3c 60
        E 240 80 3c 00
        <X 120 0
          /wV0aW9u
        >
        E 0 90 3b 60
        E 240 80 3b 00
        <X 120 0
          /wV3aXRo
        >
        E 0 90 3c 60
        E 240 80 3c 00
        <X 120 0
          /wVh
        >
        E 0 90 3f 60
        E 240 80 3f 00
        <X 120 0
          /wVtb3VuLQ==
        >
        E 0 90 3c 60
        E 240 80 3c 00
        <X 120 0
          /wV0YWlu
        >
        E 0 90 3b 60
        E 240 80 3b 00
        <X 120 0
          /wVwdXQ=
        >
        E 0 90 3c 60
        E 210 80 3c 00
        <X 150 0
          /wV0bw==
        >
        E 0 90 39 60
        E 180 80 39 00
        <X 180 0
          /wVzZWE=
        >
        E 0 90 3c 60
        E 480 80 3c 00
        E 240 80 69 00
        <X 1440 0
          /wVCdWlsdA==
        >
        E 0 90 3f 60
        E 0 90 69 60
        E 240 80 3f 00
        <X 120 0
          /wV0bw==
        >
        E 0 90 3e 60
        E 240 80 3e 00
        <X 120 0
          /wVzbGF5
        >
        E 0 90 3c 60
        E 240 80 3c 00
        <X 120 0
          /wVhbmQ=
        >
        E 0 90 3b 60
        E 240 80 3b 00
        <X 120 0
          /wVjb24t
        >
        E 0 90 3c 60
        E 240 80 3c 00
        <X 120 0
          /wVxdWVy
        >
        E 0 90 3f 60
        E 240 80 3f 00
        <X 120 0
          /wVhbGw=
        >
        E 0 90 3c 60
        E 240 80 3c 00
        <X 120 0
          /wV3aXRo
        >
        E 0 90 3b 60
        E 240 80 3b 00
        <X 120 0
          /wV0ZWV0aA==
        >
        E 0 90 3c 60
        E 240 80 3c 00
        <X 120 0
          /wVvZg==
        >
        E 0 90 39 60
        E 240 80 39 00
        <X 120 0
          /wViZWFzdHM=
        >
        E 0 90 3c 60
        E 510 80 3c 00
        E 210 80 69 00
        E 20160 b0 7b 00
        GUID {C9A1A4CA-4224-4672-91C0-075BEB2A8650}
        IGNTEMPO 0 120 4 4
        SRCCOLOR 4
        VELLANE 132 128 128
        COLORMAP "C:\Users\AJFOne23\AppData\Roaming\REAPER\Data\color_maps\rockband_vox-other.png"
        TEXTSTRINGFILE "Text Events List.txt"
        CFGEDITVIEW 122540.389334 256.15127 0 13 0 -1 0 0 0 0.5
        KEYSNAP 0
        TRACKSEL 0
        EVTFILTER 0 -1 -1 -1 -1 0 1 0 0 -1 -1 -1 -1 0 -1 0 -1 -1
        CFGEDIT 1 1 0 0 1 1 1 1 1 1 1 0.0625 161 173 1861 978 0 2 2 2 0 0 0 0 0 0.5 1 0 1 64
      >
    >
  >
  <TRACK {E60BCF67-80FD-4554-840A-5B0B5C2E06A0}
    NAME HARM1
    PEAKCOL 24624127
    BEAT -1
    AUTOMODE 0
    VOLPAN 1 -0.096 -1 -1 1
    MUTESOLO 0 0 0
    IPHASE 0
    ISBUS 0 0
    BUSCOMP 0 0
    SHOWINMIX 1 0.6667 0.5 1 0.5 0 0 0
    FREEMODE 0
    SEL 0
    REC 0 0 0 0 0 0 0
    TRACKHEIGHT 0 0
    INQ 0 0 0 0.5 100 0 0 100
    NCHAN 2
    FX 1
    TRACKID {E60BCF67-80FD-4554-840A-5B0B5C2E06A0}
    PERF 0
    MIDIOUT -1
    <MIDINOTENAMES
      0 0 "Range Shift" 0 0
      0 1 "Lyric Shift" 0 1
      0 36 C1 0 36
      0 37 C# 0 37
      0 38 D 0 38
      0 39 Eb 0 39
      0 40 E 0 40
      0 41 F 0 41
      0 42 F# 0 42
      0 43 G 0 43
      0 44 G# 0 44
      0 45 A 0 45
      0 46 Bb 0 46
      0 47 B 0 47
      0 48 C2 0 48
      0 49 C# 0 49
      0 50 D 0 50
      0 51 Eb 0 51
      0 52 E 0 52
      0 53 F 0 53
      0 54 F# 0 54
      0 55 G 0 55
      0 56 G# 0 56
      0 57 A 0 57
      0 58 Bb 0 58
      0 59 B 0 59
      0 60 C3 0 60
      0 61 C# 0 61
      0 62 D 0 62
      0 63 Eb 0 63
      0 64 E 0 64
      0 65 F 0 65
      0 66 F# 0 66
      0 67 G 0 67
      0 68 G# 0 68
      0 69 A 0 69
      0 70 Bb 0 70
      0 71 B 0 71
      0 72 C4 0 72
      0 73 C# 0 73
      0 74 D 0 74
      0 75 Eb 0 75
      0 76 E 0 76
      0 77 F 0 77
      0 78 F# 0 78
      0 79 G 0 79
      0 80 G# 0 80
      0 81 A 0 81
      0 82 Bb 0 82
      0 83 B 0 83
      0 84 C5 0 84
      0 95 ---- 0 95
      0 96 "Displayed Percussion" 0 96
      0 97 "Not Displayed Percussion" 0 97
      0 104 ---- 0 104
      0 105 "Phrase Marker" 0 105
      0 115 ---- 0 115
      0 116 OVERDRIVE 0 116
    >
    MAINSEND 1 0
    <FXCHAIN
      SHOW 0
      LASTSEL 1
      DOCKED 0
      BYPASS 0 0 0
      <JS "IX/MIDI_Tool II" ""
        0.000000 85.000000 127.000000 0.000000 0.000000 0.000000 100.000000 0.000000 0.000000 127.000000 0.000000 0.000000 1.000000 0.000000 0.000000 - - - - - - - - - - - - - - - - - - - - - - - - - - - - - - - - - - - - - - - - - - - - - - - - - 
      >
      FLOATPOS 0 0 0 0
      FXID {2E79298C-F056-441C-A64B-722C2599E1AA}
      WAK 0
      BYPASS 0 0 0
      <VST "VSTi: ReaSynth (Cockos)" reasynth.dll 0 "" 1919251321
        eXNlcu9e7f4AAAAAAgAAAAEAAAAAAAAAAgAAAAAAAAA8AAAAAAAAAAAAAAA=
        776t3g3wrd6mm8Q7F7fROpzEoD4AAAAAAAAAAMybgD7pZ4g9AAAAAAAAAD8AAIA/6SaxPgAAAD8AAIA/
        AAAAAAAA
      >
      FLOATPOS 0 0 0 0
      FXID {A391E59B-3475-47CA-9BDB-E03F3B8FF2C4}
      WAK 0
    >
    <ITEM
      POSITION 0
      SNAPOFFS 0
      LENGTH 177.06791585015557
      LOOP 0
      ALLTAKES 0
      FADEIN 1 0 0 1 0 0
      FADEOUT 1 0 0 1 0 0
      MUTE 0
      SEL 0
      IGUID {84A37783-7E0C-4998-B9C7-9BBB9CCB6F49}
      IID 12
      NAME "PART VOCALS"
      VOLPAN 1 0 1 -1
      SOFFS 0 0
      PLAYRATE 1 1 0 -65536 0 0.0025
      CHANMODE 0
      GUID {0BCA3C9F-204C-4288-877B-91745EC32463}
      <SOURCE MIDI
        HASDATA 1 480 QN
        POOLEDEVTS {FD6EE702-A103-437E-9CC6-1547DAA431B1}
        <X 0 0
          /wNIQVJNMQ==
        >
        E 44580 90 69 60
        <X 60 0
          /wVUaGVyZSdz
        >
        E 0 90 3e 60
        E 1170 80 3e 00
        <X 270 0
          /wVtYS0=
        >
        E 0 90 41 60
        E 840 80 41 00
        <X 240 0
          /wUr
        >
        E 0 90 3f 60
        E 150 80 3f 00
        <X 210 0
          /wVnaWM=
        >
        E 0 90 3e 62
        E 1200 80 3e 00
        <X 240 0
          /wVpbg==
        >
        E 0 90 3c 60
        E 1020 80 3c 00
        E 60 80 69 00
        E 300 90 69 60
        <X 60 0
          /wVXYS0=
        >
        E 0 90 3e 60
        E 1200 80 3e 00
        <X 240 0
          /wV0ZXI=
        >
        E 0 90 41 60
        E 540 80 41 00
        <X 90 0
          /wV0aGF0
        >
        E 0 90 41 60
        E 420 80 41 00
        <X 150 0
          /wVhdC0=
        >
        E 0 90 41 60
        E 210 80 41 00
        <X 90 0
          /wUr
        >
        E 0 90 3f 60
        E 330 80 3f 00
        <X 330 0
          /wV0cmFjdHM=
        >
        E 0 90 3e 60
        E 1140 80 3e 00
        <X 30 0
          /wUr
        >
        E 0 90 3d 60
        E 60 80 3d 00
        <X 30 0
          /wUr
        >
        E 0 90 3e 60
        E 180 80 3e 00
        E 90 80 69 00
        E 540 90 69 60
        <X 90 0
          /wVBbGw=
        >
        E 0 90 3f 60
        E 1200 80 3f 00
        <X 240 0
          /wVtZW4=
        >
        E 0 90 3e 60
        E 690 80 3e 00
        <X 30 0
          /wUr
        >
        E 0 90 3d 60
        E 60 80 3d 00
        E 2970 80 69 00
        E 510 90 69 60
        <X 60 0
          /wVBLQ==
        >
        E 0 90 3e 60
        E 480 80 3e 00
        <X 240 0
          /wVjcm9zcw==
        >
        E 0 90 3e 60
        E 450 80 3e 00
        <X 270 0
          /wVoaWxscw==
        >
        E 0 90 41 60
        E 390 80 41 00
        <X 180 0
          /wVhbmQ=
        >
        E 0 90 41 60
        E 360 80 41 00
        <X 210 0
          /wVkb3du
        >
        E 0 90 41 60
        E 390 80 41 00
        <X 240 0
          /wUr
        >
        E 0 90 3f 60
        E 150 80 3f 00
        <X 360 0
          /wVzdHJlYW1z
        >
        E 0 90 3e 60
        E 1560 80 3e 00
        E 90 80 69 00
        E 3900 90 69 60
        <X 90 0
          /wVUaGU=
        >
        E 0 90 41 60
        E 480 80 41 00
        <X 240 0
          /wV0dXJuLQ==
        >
        E 0 90 41 60
        E 120 80 41 00
        <X 30 0
          /wUr
        >
        E 0 90 43 60
        E 210 80 43 00
        <X 300 0
          /wUr
        >
        E 0 90 41 60
        E 180 80 41 00
        <X 240 0
          /wVpbmc=
        >
        E 0 90 41 60
        E 1200 80 41 00
        <X 30 0
          /wUr
        >
        E 0 90 40 60
        E 120 80 40 00
        E 90 80 69 00
        E 3150 90 69 60
        <X 90 0
          /wVPZg==
        >
        E 0 90 41 60
        E 720 80 41 00
        <X 360 0
          /wV0aGU=
        >
        E 0 90 42 60
        E 270 80 42 00
        <X 240 0
          /wUr
        >
        E 0 90 3f 60
        E 270 80 3f 00
        <X 300 0
          /wV0aWRl
        >
        E 0 90 3f 60
        E 210 80 3f 00
        <X 30 0
          /wUr
        >
        E 0 90 3e 60
        E 1920 80 3e 00
        E 90 80 69 00
        E 30030 90 69 60
        <X 120 0
          /wVPdXQt
        >
        E 0 90 41 60
        E 210 80 41 00
        <X 30 0
          /wUr
        >
        E 0 90 43 60
        E 240 80 43 00
        <X 30 0
          /wUr
        >
        E 0 90 41 60
        E 390 80 41 00
        <X 210 0
          /wVsb29r
        >
        E 0 90 41 60
        E 1050 80 41 00
        E 120 80 69 00
        E 510 90 69 60
        <X 90 0
          /wVGdS0=
        >
        E 0 90 3f 60
        E 210 80 3f 00
        <X 30 0
          /wUr
        >
        E 0 90 41 60
        E 390 80 41 00
        <X 30 0
          /wUr
        >
        E 0 90 40 60
        E 240 80 40 00
        <X 300 0
          /wV0dXJl
        >
        E 0 90 40 60
        E 300 80 40 00
        <X 30 0
          /wUr
        >
        E 0 90 3f 60
        E 390 80 3f 00
        <X 300 0
          /wVicmlnaHQ=
        >
        E 0 90 3e 60
        E 1860 80 3e 00
        E 120 80 69 00
        E 4320 90 69 60
        <X 120 0
          /wVTZWwt
        >
        E 0 90 41 60
        E 210 80 41 00
        <X 30 0
          /wUr
        >
        E 0 90 43 60
        E 300 80 43 00
        <X 30 0
          /wUr
        >
        E 0 90 41 60
        E 330 80 41 00
        <X 150 0
          /wVmaXNo
        >
        E 0 90 41 60
        E 1110 80 41 00
        E 60 80 69 00
        E 630 90 69 60
        <X 90 0
          /wVCZWF1LQ==
        >
        E 0 90 41 60
        E 570 80 41 00
        <X 30 0
          /wUr
        >
        E 0 90 40 60
        E 270 80 40 00
        <X 270 0
          /wV0eQ==
        >
        E 0 90 40 60
        E 300 80 40 00
        <X 30 0
          /wUr
        >
        E 0 90 3f 60
        E 390 80 3f 00
        <X 300 0
          /wVzaGluZXM=
        >
        E 0 90 3e 60
        E 1860 80 3e 00
        E 60 80 69 00
        E 120 90 69 60
        E 4230 80 69 00
        <X 21750 0
          /wVUaGlyLQ==
        >
        E 0 90 3f 60
        E 0 90 69 60
        E 240 80 3f 00
        <X 120 0
          /wV0ZWVu
        >
        E 0 90 3e 60
        E 240 80 3e 00
        <X 120 0
          /wV5ZWFycw==
        >
        E 0 90 3c 60
        E 240 80 3c 00
        <X 120 0
          /wV0bw==
        >
        E 0 90 3b 60
        E 240 80 3b 00
        <X 120 0
          /wV0aGlz
        >
        E 0 90 3c 60
        E 240 80 3c 00
        <X 120 0
          /wVkYXk=
        >
        E 0 90 3f 60
        E 240 80 3f 00
        <X 120 0
          /wVyZWQ=
        >
        E 0 90 3c 60
        E 240 80 3c 00
        <X 120 0
          /wVwbGEt
        >
        E 0 90 3b 60
        E 240 80 3b 00
        <X 120 0
          /wVuZXQ=
        >
        E 0 90 3c 60
        E 240 80 3c 00
        <X 120 0
          /wVhLQ==
        >
        E 0 90 39 60
        E 240 80 39 00
        <X 120 0
          /wVsaWduZWQ=
        >
        E 0 90 3c 60
        E 570 80 3c 00
        E 150 80 69 00
        <X 1440 0
          /wVJbi0=
        >
        E 0 90 3f 60
        E 0 90 69 60
        E 240 80 3f 00
        <X 120 0
          /wV0bw==
        >
        E 0 90 3e 60
        E 240 80 3e 00
        <X 120 0
          /wVzaWdodA==
        >
        E 0 90 3c 60
        E 240 80 3c 00
        <X 120 0
          /wVzaXgt
        >
        E 0 90 3b 60
        E 240 80 3b 00
        <X 120 0
          /wV0eQ==
        >
        E 0 90 3c 60
        E 240 80 3c 00
        <X 120 0
          /wV0aG91LQ==
        >
        E 0 90 3f 60
        E 240 80 3f 00
        <X 120 0
          /wVzYW5k
        >
        E 0 90 3c 60
        E 240 80 3c 00
        <X 120 0
          /wV5ZWFycw==
        >
        E 0 90 3b 60
        E 240 80 3b 00
        <X 120 0
          /wVvZg==
        >
        E 0 90 3c 60
        E 240 80 3c 00
        <X 120 0
          /wUr
        >
        E 0 90 39 60
        E 180 80 39 00
        <X 180 0
          /wVsaWdodA==
        >
        E 0 90 3c 60
        E 690 80 3c 00
        E 30 80 69 00
        <X 1440 0
          /wVGYXMt
        >
        E 0 90 3f 60
        E 0 90 69 60
        E 210 80 3f 00
        <X 150 0
          /wVjaS0=
        >
        E 0 90 3e 60
        E 240 80 3e 00
        <X 120 0
          /wVuYS0=
        >
        E 0 90 3c 60
        E 240 80 3c 00
        <X 120 0
          /wV0aW9u
        >
        E 0 90 3b 60
        E 240 80 3b 00
        <X 120 0
          /wV3aXRo
        >
        E 0 90 3c 60
        E 240 80 3c 00
        <X 120 0
          /wVh
        >
        E 0 90 3f 60
        E 240 80 3f 00
        <X 120 0
          /wVtb3VuLQ==
        >
        E 0 90 3c 60
        E 240 80 3c 00
        <X 120 0
          /wV0YWlu
        >
        E 0 90 3b 60
        E 240 80 3b 00
        <X 120 0
          /wVwdXQ=
        >
        E 0 90 3c 60
        E 210 80 3c 00
        <X 150 0
          /wV0bw==
        >
        E 0 90 39 60
        E 180 80 39 00
        <X 180 0
          /wVzZWE=
        >
        E 0 90 3c 60
        E 480 80 3c 00
        E 240 80 69 00
        <X 1440 0
          /wVCdWlsdA==
        >
        E 0 90 3f 60
        E 0 90 69 60
        E 240 80 3f 00
        <X 120 0
          /wV0bw==
        >
        E 0 90 3e 60
        E 240 80 3e 00
        <X 120 0
          /wVzbGF5
        >
        E 0 90 3c 60
        E 240 80 3c 00
        <X 120 0
          /wVhbmQ=
        >
        E 0 90 3b 60
        E 240 80 3b 00
        <X 120 0
          /wVjb24t
        >
        E 0 90 3c 60
        E 240 80 3c 00
        <X 120 0
          /wVxdWVy
        >
        E 0 90 3f 60
        E 240 80 3f 00
        <X 120 0
          /wVhbGw=
        >
        E 0 90 3c 60
        E 240 80 3c 00
        <X 120 0
          /wV3aXRo
        >
        E 0 90 3b 60
        E 240 80 3b 00
        <X 120 0
          /wV0ZWV0aA==
        >
        E 0 90 3c 60
        E 240 80 3c 00
        <X 120 0
          /wVvZg==
        >
        E 0 90 39 60
        E 240 80 39 00
        <X 120 0
          /wViZWFzdHM=
        >
        E 0 90 3c 60
        E 510 80 3c 00
        E 210 80 69 00
        E 20160 b0 7b 00
        GUID {38C4C63E-B8CA-44B5-A6BE-22EAC5E51945}
        IGNTEMPO 0 120 4 4
        SRCCOLOR 10
        VELLANE 132 128 128
        CFGEDITVIEW 126220.27714 90.418041 0 13 0 -1 0 0 0 0.5
        KEYSNAP 0
        TRACKSEL 0
        EVTFILTER 0 -1 -1 -1 -1 0 1 0 0 -1 -1 -1 -1 0 -1 0 -1 -1
        CFGEDIT 1 1 0 0 1 1 1 1 1 1 1 0.0625 167 179 1855 972 0 2 2 2 0 0 0 0 0 0.5 0 0 1 64
      >
    >
  >
  <TRACK {983C7D04-DAF6-462A-B5E6-64213F29FBA0}
    NAME HARM2
    PEAKCOL 24624127
    BEAT -1
    AUTOMODE 0
    VOLPAN 1.00497380427334 -0.096 -1 -1 1
    MUTESOLO 0 0 0
    IPHASE 0
    ISBUS 0 0
    BUSCOMP 0 0
    SHOWINMIX 1 0.6667 0.5 1 0.5 0 0 0
    FREEMODE 0
    SEL 1
    REC 0 0 0 0 0 0 0
    TRACKHEIGHT 0 0
    INQ 0 0 0 0.5 100 0 0 100
    NCHAN 2
    FX 1
    TRACKID {983C7D04-DAF6-462A-B5E6-64213F29FBA0}
    PERF 0
    MIDIOUT -1
    <MIDINOTENAMES
      0 0 "Range Shift" 0 0
      0 1 "Lyric Shift" 0 1
      0 35 ---- 0 35
      0 36 C1 0 36
      0 37 C# 0 37
      0 38 D 0 38
      0 39 Eb 0 39
      0 40 E 0 40
      0 41 F 0 41
      0 42 F# 0 42
      0 43 G 0 43
      0 44 G# 0 44
      0 45 A 0 45
      0 46 Bb 0 46
      0 47 B 0 47
      0 48 C2 0 48
      0 49 C# 0 49
      0 50 D 0 50
      0 51 Eb 0 51
      0 52 E 0 52
      0 53 F 0 53
      0 54 F# 0 54
      0 55 G 0 55
      0 56 G# 0 56
      0 57 A 0 57
      0 58 Bb 0 58
      0 59 B 0 59
      0 60 C3 0 60
      0 61 C# 0 61
      0 62 D 0 62
      0 63 Eb 0 63
      0 64 E 0 64
      0 65 F 0 65
      0 66 F# 0 66
      0 67 G 0 67
      0 68 G# 0 68
      0 69 A 0 69
      0 70 Bb 0 70
      0 71 B 0 71
      0 72 C4 0 72
      0 73 C# 0 73
      0 74 D 0 74
      0 75 Eb 0 75
      0 76 E 0 76
      0 77 F 0 77
      0 78 F# 0 78
      0 79 G 0 79
      0 80 G# 0 80
      0 81 A 0 81
      0 82 Bb 0 82
      0 83 B 0 83
      0 84 C5 0 84
      0 95 ---- 0 95
      0 96 "Displayed Percussion" 0 96
      0 97 "Not Displayed Percussion" 0 97
      0 104 ---- 0 104
      0 105 "Phrase Marker" 0 105
      0 115 ---- 0 115
      0 116 OVERDRIVE 0 116
    >
    MAINSEND 1 0
    <FXCHAIN
      SHOW 0
      LASTSEL 1
      DOCKED 0
      BYPASS 0 0 0
      <JS "IX/MIDI_Tool II" ""
        0.000000 85.000000 127.000000 0.000000 0.000000 0.000000 100.000000 0.000000 0.000000 127.000000 0.000000 0.000000 1.000000 0.000000 0.000000 - - - - - - - - - - - - - - - - - - - - - - - - - - - - - - - - - - - - - - - - - - - - - - - - - 
      >
      FLOATPOS 0 0 0 0
      FXID {0D2127EF-90E6-4278-AB57-59BADA75D3A0}
      WAK 0
      BYPASS 0 0 0
      <VST "VSTi: ReaSynth (Cockos)" reasynth.dll 0 "" 1919251321
        eXNlcu9e7f4AAAAAAgAAAAEAAAAAAAAAAgAAAAAAAAA8AAAAAAAAAAAAAAA=
        776t3g3wrd6mm8Q7F7fROgAAAAAAAAAAAAAAAMybgD7pZ4g9AAAAAAAAAD8AAIA/AAAAAAAAAD8AAIA/
        AAAAAAAA
      >
      FLOATPOS 0 0 0 0
      FXID {9CF76FE8-51DE-4F46-8774-EF282D9874DF}
      WAK 0
    >
    <ITEM
      POSITION 0
      SNAPOFFS 0
      LENGTH 177.06791585015557
      LOOP 0
      ALLTAKES 0
      FADEIN 1 0 0 1 0 0
      FADEOUT 1 0 0 1 0 0
      MUTE 0
      SEL 1
      IGUID {795D7270-77E4-45B9-A4DE-54EC2F750F39}
      IID 12
      NAME "PART VOCALS"
      VOLPAN 1 0 1 -1
      SOFFS 0 0
      PLAYRATE 1 1 0 -65536 0 0.0025
      CHANMODE 0
      GUID {E772DDAF-4D51-4F80-986C-9DCB7068402F}
      <SOURCE MIDI
        HASDATA 1 480 QN
        POOLEDEVTS {7A10F360-E2A9-4A58-8D78-B9B40C95A1BC}
        <X 0 0
          /wNIQVJNMg==
        >
        E 44580 90 69 60
        <X 60 0
          /wVUaGVyZSdz
        >
        E 0 90 45 60
        E 1170 80 45 00
        <X 270 0
          /wVtYS0=
        >
        E 0 90 44 60
        E 1230 80 44 00
        <X 210 0
          /wVnaWM=
        >
        E 0 90 45 62
        E 1200 80 45 00
        <X 240 0
          /wVpbg==
        >
        E 0 90 41 60
        E 1020 80 41 00
        E 60 80 69 00
        E 300 90 69 60
        <X 60 0
          /wVXYS0=
        >
        E 0 90 45 60
        E 1200 80 45 00
        <X 240 0
          /wV0ZXI=
        >
        E 0 90 44 60
        E 540 80 44 00
        <X 90 0
          /wV0aGF0
        >
        E 0 90 44 60
        E 420 80 44 00
        <X 150 0
          /wVhdC0=
        >
        E 0 90 44 60
        E 210 80 44 00
        <X 90 0
          /wUr
        >
        E 0 90 41 60
        E 330 80 41 00
        <X 330 0
          /wV0cmFjdHM=
        >
        E 0 90 41 60
        E 1440 80 41 00
        E 90 80 69 00
        E 540 90 69 60
        <x 2970 0
          /wVBbGw=
        >
        E 0 90 3f 60
        E 1200 80 3f 00
        <X 240 0
          /wVtZW4=
        >
        E 0 90 3e 60
        E 690 80 3e 00
        <X 30 0
          /wUr
        >
        E 0 90 3d 60
        E 60 80 3d 00
        E 90 80 69 00
        E 510 90 69 60
        <X 60 0
          /wVBLQ==
        >
        E 0 90 3e 60
        E 480 80 3e 00
        <X 240 0
          /wVjcm9zcw==
        >
        E 0 90 3e 60
        E 450 80 3e 00
        E 4200 80 69 00
        E 63690 90 69 60
        <X 60 0
          /wVMaWdodCM=
        >
        E 0 90 43 60
        E 540 80 43 00
        <X 180 0
          /wVjbG91ZCM=
        >
        E 0 90 43 60
        E 540 80 43 00
        <X 180 0
          /wVyYWluIw==
        >
        E 0 90 43 60
        E 540 80 43 00
        <X 180 0
          /wVkcml2ZSM=
        >
        E 0 90 43 60
        E 810 80 43 00
        <X 180 0
          /wVvbiM=
        >
        E 0 90 43 60
        E 930 80 43 00
        E 90 80 69 00
        <X 21750 0
          /wVUaGlyLQ==
        >
        E 0 90 33 60
        E 0 90 69 60
        E 240 80 33 00
        <X 120 0
          /wV0ZWVu
        >
        E 0 90 32 60
        E 240 80 32 00
        <X 120 0
          /wV5ZWFycw==
        >
        E 0 90 30 60
        E 240 80 30 00
        <X 120 0
          /wV0bw==
        >
        E 0 90 2f 60
        E 240 80 2f 00
        <X 120 0
          /wV0aGlz
        >
        E 0 90 30 60
        E 240 80 30 00
        <X 120 0
          /wVkYXk=
        >
        E 0 90 33 60
        E 240 80 33 00
        <X 120 0
          /wVyZWQ=
        >
        E 0 90 30 60
        E 240 80 30 00
        <X 120 0
          /wVwbGEt
        >
        E 0 90 2f 60
        E 240 80 2f 00
        <X 120 0
          /wVuZXQ=
        >
        E 0 90 30 60
        E 240 80 30 00
        <X 120 0
          /wVhLQ==
        >
        E 0 90 2d 60
        E 240 80 2d 00
        <X 120 0
          /wVsaWduZWQ=
        >
        E 0 90 30 60
        E 570 80 30 00
        E 150 80 69 00
        <X 1440 0
          /wVJbi0=
        >
        E 0 90 33 60
        E 0 90 69 60
        E 240 80 33 00
        <X 120 0
          /wV0bw==
        >
        E 0 90 32 60
        E 240 80 32 00
        <X 120 0
          /wVzaWdodA==
        >
        E 0 90 30 60
        E 240 80 30 00
        <X 120 0
          /wVzaXgt
        >
        E 0 90 2f 60
        E 240 80 2f 00
        <X 120 0
          /wV0eQ==
        >
        E 0 90 30 60
        E 240 80 30 00
        <X 120 0
          /wV0aG91LQ==
        >
        E 0 90 33 60
        E 240 80 33 00
        <X 120 0
          /wVzYW5k
        >
        E 0 90 30 60
        E 240 80 30 00
        <X 120 0
          /wV5ZWFycw==
        >
        E 0 90 2f 60
        E 240 80 2f 00
        <X 120 0
          /wVvZg==
        >
        E 0 90 30 60
        E 240 80 30 00
        <X 120 0
          /wUr
        >
        E 0 90 2d 60
        E 180 80 2d 00
        <X 180 0
          /wVsaWdodA==
        >
        E 0 90 30 60
        E 690 80 30 00
        E 30 80 69 00
        <X 1440 0
          /wVGYXMt
        >
        E 0 90 33 60
        E 0 90 69 60
        E 210 80 33 00
        <X 150 0
          /wVjaS0=
        >
        E 0 90 32 60
        E 240 80 32 00
        <X 120 0
          /wVuYS0=
        >
        E 0 90 30 60
        E 240 80 30 00
        <X 120 0
          /wV0aW9u
        >
        E 0 90 2f 60
        E 240 80 2f 00
        <X 120 0
          /wV3aXRo
        >
        E 0 90 30 60
        E 240 80 30 00
        <X 120 0
          /wVh
        >
        E 0 90 33 60
        E 240 80 33 00
        <X 120 0
          /wVtb3VuLQ==
        >
        E 0 90 30 60
        E 240 80 30 00
        <X 120 0
          /wV0YWlu
        >
        E 0 90 2f 60
        E 240 80 2f 00
        <X 120 0
          /wVwdXQ=
        >
        E 0 90 30 60
        E 210 80 30 00
        <X 150 0
          /wV0bw==
        >
        E 0 90 2d 60
        E 180 80 2d 00
        <X 180 0
          /wVzZWE=
        >
        E 0 90 30 60
        E 480 80 30 00
        E 240 80 69 00
        <X 1440 0
          /wVCdWlsdA==
        >
        E 0 90 33 60
        E 0 90 69 60
        E 240 80 33 00
        <X 120 0
          /wV0bw==
        >
        E 0 90 32 60
        E 240 80 32 00
        <X 120 0
          /wVzbGF5
        >
        E 0 90 30 60
        E 240 80 30 00
        <X 120 0
          /wVhbmQ=
        >
        E 0 90 2f 60
        E 240 80 2f 00
        <X 120 0
          /wVjb24t
        >
        E 0 90 30 60
        E 240 80 30 00
        <X 120 0
          /wVxdWVy
        >
        E 0 90 33 60
        E 240 80 33 00
        <X 120 0
          /wVhbGw=
        >
        E 0 90 30 60
        E 240 80 30 00
        <X 120 0
          /wV3aXRo
        >
        E 0 90 2f 60
        E 240 80 2f 00
        <X 120 0
          /wV0ZWV0aA==
        >
        E 0 90 30 60
        E 240 80 30 00
        <X 120 0
          /wVvZg==
        >
        E 0 90 2d 60
        E 240 80 2d 00
        <X 120 0
          /wViZWFzdHM=
        >
        E 0 90 30 60
        E 510 80 30 00
        E 210 80 69 00
        E 20160 b0 7b 00
        GUID {A19B9530-936D-4E6C-A905-DC06FDD3BCAE}
        IGNTEMPO 0 120 4 4
        SRCCOLOR 11
        VELLANE 132 128 128
        CFGEDITVIEW 54196.569454 67.893378 11 13 0 -1 0 0 0 0.5
        KEYSNAP 0
        TRACKSEL 0
        EVTFILTER 0 -1 -1 -1 -1 0 1 0 0 -1 -1 -1 -1 0 -1 0 -1 -1
        CFGEDIT 1 1 0 0 1 1 1 1 1 1 1 0.0625 173 185 1849 966 0 2 2 2 0 0 0 0 0 0.5 0 0 1 64
      >
    >
  >
  <TRACK {4BCC1CF3-63A3-43C4-A155-D3593AD88A10}
    NAME EVENTS
    PEAKCOL 29393024
    BEAT -1
    AUTOMODE 0
    VOLPAN 1 0 -1 -1 1
    MUTESOLO 0 0 0
    IPHASE 0
    ISBUS 1 1
    BUSCOMP 0 0
    SHOWINMIX 1 0.6667 0.5 1 0.5 0 0 0
    FREEMODE 0
    SEL 0
    REC 0 0 0 0 0 0 0
    TRACKHEIGHT 0 0
    INQ 0 0 0 0.5 100 0 0 100
    NCHAN 2
    FX 1
    TRACKID {4BCC1CF3-63A3-43C4-A155-D3593AD88A10}
    PERF 0
    MIDIOUT -1
    MAINSEND 1 0
    <FXCHAIN
      SHOW 0
      LASTSEL 0
      DOCKED 0
    >
    <ITEM
      POSITION 0
      SNAPOFFS 0
      LENGTH 177.06791585015557
      LOOP 0
      ALLTAKES 0
      FADEIN 1 0 0 1 0 0
      FADEOUT 1 0 0 1 0 0
      MUTE 0
      SEL 0
      IGUID {86A06D27-867C-4398-9CE6-8F0526B3B594}
      IID 15
      NAME EVENTS
      VOLPAN 1 0 1 -1
      SOFFS 0 0
      PLAYRATE 1 1 0 -65536 0 0.0025
      CHANMODE 0
      GUID {584C8192-4FF3-4E29-8138-2E6BD568B61A}
      <SOURCE MIDI
        HASDATA 1 480 QN
        POOLEDEVTS {7754862B-4A4E-459E-833F-D1FF342E4629}
        <X 0 0
          /wNFVkVOVFM=
        >
        <X 0 0
          /wFbY3Jvd2Rfbm9ybWFsXQ==
        >
        <X 0 0
          /wFbcHJjX2ludHJvXQ==
        >
        <X 3840 0
          /wFbbXVzaWNfc3RhcnRd
        >
        <X 14880 0
          /wFbcHJjX3ZlcnNlXzFhXQ==
        >
        <X 15360 0
          /wFbcHJjX3ZlcnNlXzFiXQ==
        >
        <X 23040 0
          /wFbcHJjX2JyaWRnZV9hXQ==
        >
        <X 7680 0
          /wFbcHJjX3ZlcnNlXzJhXQ==
        >
        <X 23040 0
          /wFbcHJjX3ZlcnNlXzJiXQ==
        >
        <X 15360 0
          /wFbcHJjX2Nob3J1c18xYV0=
        >
        <X 10080 0
          /wFbcHJjX2d0cl9zb2xvXQ==
        >
        <X 8160 0
          /wFbcHJjX3ZlcnNlXzNhXQ==
        >
        <X 15360 0
          /wFbcHJjX3ZlcnNlXzNiXQ==
        >
        <X 9600 0
          /wFbcHJjX3ZlcnNlXzNjXQ==
        >
        <X 15360 0
          /wFbcHJjX2Nob3J1c18yYV0=
        >
        <X 18240 0
          /wFbcHJjX291dHJvXQ==
        >
        <X 8640 0
          /wFbbXVzaWNfZW5kXQ==
        >
        <X 2880 0
          /wFbZW5kXQ==
        >
        E 7200 b0 7b 00
        GUID {40AD7956-A22A-434A-8513-4D3792B9DF69}
        IGNTEMPO 0 120 4 4
        SRCCOLOR 7
        VELLANE 132 100 100
        COLORMAP "C:\Users\AJFOne23\AppData\Roaming\REAPER\Data\color_maps\rockband_vox-other.png"
        TEXTSTRINGFILE "Text Events List.txt"
        CFGEDITVIEW 172267.887344 92.161462 0 48 0 0 0 0 0 0.5
        KEYSNAP 0
        TRACKSEL 0
        EVTFILTER 0 -1 -1 -1 -1 0 1 0 0 -1 -1 -1 -1 0 -1 0 -1 -1
        CFGEDIT 1 1 0 0 0 1 1 1 1 1 1 1 44 63 1223 847 1 2 1 2 0 0 0 0 0 0.5 1 0 1 64
      >
    >
  >
  <TRACK {1529008F-97D2-43EB-8634-7C5A7418AD90}
    NAME VENUE
    PEAKCOL 16842496
    BEAT -1
    AUTOMODE 0
    VOLPAN 1 0 -1 -1 1
    MUTESOLO 0 0 0
    IPHASE 0
    ISBUS 0 0
    BUSCOMP 0 0
    SHOWINMIX 1 0.6667 0.5 1 0.5 0 0 0
    FREEMODE 0
    SEL 0
    REC 0 0 0 0 0 0 0
    TRACKHEIGHT 0 0
    INQ 0 0 0 0.5 100 0 0 100
    NCHAN 2
    FX 1
    TRACKID {1529008F-97D2-43EB-8634-7C5A7418AD90}
    PERF 0
    MIDIOUT -1
    <MIDINOTENAMES
      0 37 "Spotlight on Bass" 0 37
      0 38 "Spotlight on Drums" 0 38
      0 39 "Spotlight on Guitar" 0 39
      0 40 "Spotlight on Vocals" 0 40
      0 41 "Spotlight on Keys" 0 41
      0 85 "Bassist Sing Along" 0 85
      0 86 "Drummer Sing Along" 0 86
      0 87 "Guitarist Sing Along" 0 87
    >
    MAINSEND 1 0
    <FXCHAIN
      SHOW 0
      LASTSEL 0
      DOCKED 0
    >
    <ITEM
      POSITION 0
      SNAPOFFS 0
      LENGTH 177.06791585015557
      LOOP 0
      ALLTAKES 0
      FADEIN 1 0 0 1 0 0
      FADEOUT 1 0 0 1 0 0
      MUTE 0
      SEL 0
      IGUID {71027329-E0AB-447D-A192-4839733334E7}
      IID 16
      NAME VENUE
      VOLPAN 1 0 1 -1
      SOFFS 0 0
      PLAYRATE 1 1 0 -65536 0 0.0025
      CHANMODE 0
      GUID {44F0FFD1-5109-4A47-8BED-262AA04D3B23}
      <SOURCE MIDI
        HASDATA 1 480 QN
        POOLEDEVTS {365BBB4B-F437-4D9F-8835-90B7D813E690}
        <X 0 0
          /wNWRU5VRQ==
        >
        <X 0 0
          /wFbbGlnaHRpbmcgKCld
        >
        E 198720 b0 7b 00
        GUID {30097062-47C5-4B33-B665-170EF09D70D9}
        IGNTEMPO 0 120 4 4
        SRCCOLOR 8
        VELLANE 132 82 230
        COLORMAP "C:\Users\AJFOne23\AppData\Roaming\REAPER\Data\color_maps\rockband_vox-other.png"
        TEXTSTRINGFILE "Text Events List.txt"
        CFGEDITVIEW 183773.175206 125.96655 79 12 0 0 0 0 0 0.5
        KEYSNAP 0
        TRACKSEL 0
        EVTFILTER 0 -1 -1 -1 -1 0 1 0 0 -1 -1 -1 -1 0 -1 0 -1 -1
        CFGEDIT 1 1 0 0 0 1 1 1 1 1 1 0.25 133 19 1300 803 1 0 1 2 0 0 0 0 0 0.5 1 0 1 64
      >
    >
  >
  <TRACK {7BC63EFC-0ABC-4D0D-8204-E9893AE9FFFA}
    NAME BEAT
    PEAKCOL 23514346
    BEAT -1
    AUTOMODE 0
    VOLPAN 1 0 -1 -1 1
    MUTESOLO 0 0 0
    IPHASE 0
    ISBUS 2 -1
    BUSCOMP 1 0
    SHOWINMIX 1 0.6667 0.5 1 0.5 0 0 0
    FREEMODE 0
    SEL 0
    REC 0 0 0 0 0 0 0
    TRACKHEIGHT 0 0
    INQ 0 0 0 0.5 100 0 0 100
    NCHAN 2
    FX 1
    TRACKID {7BC63EFC-0ABC-4D0D-8204-E9893AE9FFFA}
    PERF 0
    MIDIOUT -1
    <MIDINOTENAMES
      0 12 Downbeat 0 12
      0 13 "Up Beats" 0 13
    >
    MAINSEND 1 0
    <FXCHAIN
      SHOW 0
      LASTSEL 0
      DOCKED 0
    >
    <ITEM
      POSITION 0
      SNAPOFFS 0
      LENGTH 177.06791585015557
      LOOP 0
      ALLTAKES 0
      FADEIN 1 0 0 1 0 0
      FADEOUT 1 0 0 1 0 0
      MUTE 0
      SEL 0
      IGUID {9960CDFD-BF2E-4E67-97CD-4F13D0A3F2ED}
      IID 17
      NAME BEAT
      VOLPAN 1 0 1 -1
      SOFFS 0 0
      PLAYRATE 1 1 0 -65536 0 0.0025
      CHANMODE 0
      GUID {CEBFDCF1-B2BD-47E1-A085-C26E1C9E9ED2}
      <SOURCE MIDI
        HASDATA 1 480 QN
        POOLEDEVTS {B2CBDF95-F8D1-4878-97E1-871C878445BC}
        <X 0 0
          /wNCRUFU
        >
        e 0 96 0c 64
        e 120 86 0c 00
        e 360 96 0d 64
        e 120 86 0d 00
        e 360 96 0d 64
        e 120 86 0d 00
        e 360 96 0c 64
        e 120 86 0c 00
        e 360 96 0d 64
        e 120 86 0d 00
        e 360 96 0d 64
        e 120 86 0d 00
        e 360 96 0c 64
        e 120 86 0c 00
        e 360 96 0d 64
        e 120 86 0d 00
        e 360 96 0d 64
        e 120 86 0d 00
        e 360 96 0c 64
        e 120 86 0c 00
        e 360 96 0d 64
        e 120 86 0d 00
        e 360 96 0d 64
        e 120 86 0d 00
        e 360 96 0c 64
        e 120 86 0c 00
        e 360 96 0d 64
        e 120 86 0d 00
        e 360 96 0d 64
        e 120 86 0d 00
        e 360 96 0c 64
        e 120 86 0c 00
        e 360 96 0d 64
        e 120 86 0d 00
        e 360 96 0d 64
        e 120 86 0d 00
        e 360 96 0c 64
        e 120 86 0c 00
        e 360 96 0d 64
        e 120 86 0d 00
        e 360 96 0d 64
        e 120 86 0d 00
        e 360 96 0c 64
        e 120 86 0c 00
        e 360 96 0d 64
        e 120 86 0d 00
        e 360 96 0d 64
        e 120 86 0d 00
        e 360 96 0c 64
        e 120 86 0c 00
        e 360 96 0d 64
        e 120 86 0d 00
        e 360 96 0d 64
        e 120 86 0d 00
        e 360 96 0c 64
        e 120 86 0c 00
        e 360 96 0d 64
        e 120 86 0d 00
        e 360 96 0d 64
        e 120 86 0d 00
        e 360 96 0c 64
        e 120 86 0c 00
        e 360 96 0d 64
        e 120 86 0d 00
        e 360 96 0d 64
        e 120 86 0d 00
        e 360 96 0c 64
        e 120 86 0c 00
        e 360 96 0d 64
        e 120 86 0d 00
        e 360 96 0d 64
        e 120 86 0d 00
        e 360 96 0c 64
        e 120 86 0c 00
        e 360 96 0d 64
        e 120 86 0d 00
        e 360 96 0d 64
        e 120 86 0d 00
        e 360 96 0c 64
        e 120 86 0c 00
        e 360 96 0d 64
        e 120 86 0d 00
        e 360 96 0d 64
        e 120 86 0d 00
        e 360 96 0c 64
        e 120 86 0c 00
        e 360 96 0d 64
        e 120 86 0d 00
        e 360 96 0d 64
        e 120 86 0d 00
        e 360 96 0c 64
        e 120 86 0c 00
        e 360 96 0d 64
        e 120 86 0d 00
        e 360 96 0d 64
        e 120 86 0d 00
        e 360 96 0c 64
        e 120 86 0c 00
        e 360 96 0d 64
        e 120 86 0d 00
        e 360 96 0d 64
        e 120 86 0d 00
        e 360 96 0c 64
        e 120 86 0c 00
        e 360 96 0d 64
        e 120 86 0d 00
        e 360 96 0d 64
        e 120 86 0d 00
        e 360 96 0c 64
        e 120 86 0c 00
        e 360 96 0d 64
        e 120 86 0d 00
        e 360 96 0d 64
        e 120 86 0d 00
        e 360 96 0c 64
        e 120 86 0c 00
        e 360 96 0d 64
        e 120 86 0d 00
        e 360 96 0d 64
        e 120 86 0d 00
        e 360 96 0c 64
        e 120 86 0c 00
        e 360 96 0d 64
        e 120 86 0d 00
        e 360 96 0d 64
        e 120 86 0d 00
        e 360 96 0c 64
        e 120 86 0c 00
        e 360 96 0d 64
        e 120 86 0d 00
        e 360 96 0d 64
        e 120 86 0d 00
        e 360 96 0c 64
        e 120 86 0c 00
        e 360 96 0d 64
        e 120 86 0d 00
        e 360 96 0d 64
        e 120 86 0d 00
        e 360 96 0c 64
        e 120 86 0c 00
        e 360 96 0d 64
        e 120 86 0d 00
        e 360 96 0d 64
        e 120 86 0d 00
        e 360 96 0c 64
        e 120 86 0c 00
        e 360 96 0d 64
        e 120 86 0d 00
        e 360 96 0d 64
        e 120 86 0d 00
        e 360 96 0c 64
        e 120 86 0c 00
        e 360 96 0d 64
        e 120 86 0d 00
        e 360 96 0d 64
        e 120 86 0d 00
        e 360 96 0c 64
        e 120 86 0c 00
        e 360 96 0d 64
        e 120 86 0d 00
        e 360 96 0d 64
        e 120 86 0d 00
        e 360 96 0c 64
        e 120 86 0c 00
        e 360 96 0d 64
        e 120 86 0d 00
        e 360 96 0d 64
        e 120 86 0d 00
        e 360 96 0c 64
        e 120 86 0c 00
        e 360 96 0d 64
        e 120 86 0d 00
        e 360 96 0d 64
        e 120 86 0d 00
        e 360 96 0c 64
        e 120 86 0c 00
        e 360 96 0d 64
        e 120 86 0d 00
        e 360 96 0d 64
        e 120 86 0d 00
        e 360 96 0c 64
        e 120 86 0c 00
        e 360 96 0d 64
        e 120 86 0d 00
        e 360 96 0d 64
        e 120 86 0d 00
        e 360 96 0c 64
        e 120 86 0c 00
        e 360 96 0d 64
        e 120 86 0d 00
        e 360 96 0d 64
        e 120 86 0d 00
        e 360 96 0c 64
        e 120 86 0c 00
        e 360 96 0d 64
        e 120 86 0d 00
        e 360 96 0d 64
        e 120 86 0d 00
        e 360 96 0c 64
        e 120 86 0c 00
        e 360 96 0d 64
        e 120 86 0d 00
        e 360 96 0d 64
        e 120 86 0d 00
        e 360 96 0c 64
        e 120 86 0c 00
        e 360 96 0d 64
        e 120 86 0d 00
        e 360 96 0d 64
        e 120 86 0d 00
        e 360 96 0c 64
        e 120 86 0c 00
        e 360 96 0d 64
        e 120 86 0d 00
        e 360 96 0d 64
        e 120 86 0d 00
        e 360 96 0c 64
        e 120 86 0c 00
        e 360 96 0d 64
        e 120 86 0d 00
        e 360 96 0d 64
        e 120 86 0d 00
        e 360 96 0c 64
        e 120 86 0c 00
        e 360 96 0d 64
        e 120 86 0d 00
        e 360 96 0d 64
        e 120 86 0d 00
        e 360 96 0c 64
        e 120 86 0c 00
        e 360 96 0d 64
        e 120 86 0d 00
        e 360 96 0d 64
        e 120 86 0d 00
        e 360 96 0c 64
        e 120 86 0c 00
        e 360 96 0d 64
        e 120 86 0d 00
        e 360 96 0d 64
        e 120 86 0d 00
        e 360 96 0c 64
        e 120 86 0c 00
        e 360 96 0d 64
        e 120 86 0d 00
        e 360 96 0d 64
        e 120 86 0d 00
        e 360 96 0c 64
        e 120 86 0c 00
        e 360 96 0d 64
        e 120 86 0d 00
        e 360 96 0d 64
        e 120 86 0d 00
        e 360 96 0c 64
        e 120 86 0c 00
        e 360 96 0d 64
        e 120 86 0d 00
        e 360 96 0d 64
        e 120 86 0d 00
        e 360 96 0c 64
        e 120 86 0c 00
        e 360 96 0d 64
        e 120 86 0d 00
        e 360 96 0d 64
        e 120 86 0d 00
        e 360 96 0c 64
        e 120 86 0c 00
        e 360 96 0d 64
        e 120 86 0d 00
        e 360 96 0d 64
        e 120 86 0d 00
        e 360 96 0c 64
        e 120 86 0c 00
        e 360 96 0d 64
        e 120 86 0d 00
        e 360 96 0d 64
        e 120 86 0d 00
        e 360 96 0c 64
        e 120 86 0c 00
        e 360 96 0d 64
        e 120 86 0d 00
        e 360 96 0d 64
        e 120 86 0d 00
        e 360 96 0c 64
        e 120 86 0c 00
        e 360 96 0d 64
        e 120 86 0d 00
        e 360 96 0d 64
        e 120 86 0d 00
        e 360 96 0c 64
        e 120 86 0c 00
        e 360 96 0d 64
        e 120 86 0d 00
        e 360 96 0d 64
        e 120 86 0d 00
        e 360 96 0c 64
        e 120 86 0c 00
        e 360 96 0d 64
        e 120 86 0d 00
        e 360 96 0d 64
        e 120 86 0d 00
        e 360 96 0c 64
        e 120 86 0c 00
        e 360 96 0d 64
        e 120 86 0d 00
        e 360 96 0d 64
        e 120 86 0d 00
        e 360 96 0c 64
        e 120 86 0c 00
        e 360 96 0d 64
        e 120 86 0d 00
        e 360 96 0d 64
        e 120 86 0d 00
        e 360 96 0c 64
        e 120 86 0c 00
        e 360 96 0d 64
        e 120 86 0d 00
        e 360 96 0d 64
        e 120 86 0d 00
        e 360 96 0c 64
        e 120 86 0c 00
        e 360 96 0d 64
        e 120 86 0d 00
        e 360 96 0d 64
        e 120 86 0d 00
        e 360 96 0c 64
        e 120 86 0c 00
        e 360 96 0d 64
        e 120 86 0d 00
        e 360 96 0d 64
        e 120 86 0d 00
        e 360 96 0c 64
        e 120 86 0c 00
        e 360 96 0d 64
        e 120 86 0d 00
        e 360 96 0d 64
        e 120 86 0d 00
        e 360 96 0c 64
        e 120 86 0c 00
        e 360 96 0d 64
        e 120 86 0d 00
        e 360 96 0d 64
        e 120 86 0d 00
        e 360 96 0c 64
        e 120 86 0c 00
        e 360 96 0d 64
        e 120 86 0d 00
        e 360 96 0d 64
        e 120 86 0d 00
        e 360 96 0c 64
        e 120 86 0c 00
        e 360 96 0d 64
        e 120 86 0d 00
        e 360 96 0d 64
        e 120 86 0d 00
        e 360 96 0c 64
        e 120 86 0c 00
        e 360 96 0d 64
        e 120 86 0d 00
        e 360 96 0d 64
        e 120 86 0d 00
        e 360 96 0c 64
        e 120 86 0c 00
        e 360 96 0d 64
        e 120 86 0d 00
        e 360 96 0d 64
        e 120 86 0d 00
        e 360 96 0c 64
        e 120 86 0c 00
        e 360 96 0d 64
        e 120 86 0d 00
        e 360 96 0d 64
        e 120 86 0d 00
        e 360 96 0c 64
        e 120 86 0c 00
        e 360 96 0d 64
        e 120 86 0d 00
        e 360 96 0d 64
        e 120 86 0d 00
        e 360 96 0c 64
        e 120 86 0c 00
        e 360 96 0d 64
        e 120 86 0d 00
        e 360 96 0d 64
        e 120 86 0d 00
        e 360 96 0c 64
        e 120 86 0c 00
        e 360 96 0d 64
        e 120 86 0d 00
        e 360 96 0d 64
        e 120 86 0d 00
        e 360 96 0c 64
        e 120 86 0c 00
        e 360 96 0d 64
        e 120 86 0d 00
        e 360 96 0d 64
        e 120 86 0d 00
        e 360 96 0c 64
        e 120 86 0c 00
        e 360 96 0d 64
        e 120 86 0d 00
        e 360 96 0d 64
        e 120 86 0d 00
        e 360 96 0c 64
        e 120 86 0c 00
        e 360 96 0d 64
        e 120 86 0d 00
        e 360 96 0d 64
        e 120 86 0d 00
        e 360 96 0c 64
        e 120 86 0c 00
        e 360 96 0d 64
        e 120 86 0d 00
        e 360 96 0d 64
        e 120 86 0d 00
        e 360 96 0c 64
        e 120 86 0c 00
        e 360 96 0d 64
        e 120 86 0d 00
        e 360 96 0d 64
        e 120 86 0d 00
        e 360 96 0c 64
        e 120 86 0c 00
        e 360 96 0d 64
        e 120 86 0d 00
        e 360 96 0d 64
        e 120 86 0d 00
        e 360 96 0c 64
        e 120 86 0c 00
        e 360 96 0d 64
        e 120 86 0d 00
        e 360 96 0d 64
        e 120 86 0d 00
        e 360 96 0c 64
        e 120 86 0c 00
        e 360 96 0d 64
        e 120 86 0d 00
        e 360 96 0d 64
        e 120 86 0d 00
        e 360 96 0c 64
        e 120 86 0c 00
        e 360 96 0d 64
        e 120 86 0d 00
        e 360 96 0d 64
        e 120 86 0d 00
        e 360 96 0c 64
        e 120 86 0c 00
        e 360 96 0d 64
        e 120 86 0d 00
        e 360 96 0d 64
        e 120 86 0d 00
        e 360 96 0c 64
        e 120 86 0c 00
        e 360 96 0d 64
        e 120 86 0d 00
        e 360 96 0d 64
        e 120 86 0d 00
        e 360 96 0c 64
        e 120 86 0c 00
        e 360 96 0d 64
        e 120 86 0d 00
        e 360 96 0d 64
        e 120 86 0d 00
        e 360 96 0c 64
        e 120 86 0c 00
        e 360 96 0d 64
        e 120 86 0d 00
        e 360 96 0d 64
        e 120 86 0d 00
        e 360 96 0c 64
        e 120 86 0c 00
        e 360 96 0d 64
        e 120 86 0d 00
        e 360 96 0d 64
        e 120 86 0d 00
        e 360 96 0c 64
        e 120 86 0c 00
        e 360 96 0d 64
        e 120 86 0d 00
        e 360 96 0d 64
        e 120 86 0d 00
        e 360 96 0c 64
        e 120 86 0c 00
        e 360 96 0d 64
        e 120 86 0d 00
        e 360 96 0d 64
        e 120 86 0d 00
        e 360 96 0c 64
        e 120 86 0c 00
        e 360 96 0d 64
        e 120 86 0d 00
        e 360 96 0d 64
        e 120 86 0d 00
        e 360 96 0c 64
        e 120 86 0c 00
        e 360 96 0d 64
        e 120 86 0d 00
        e 360 96 0d 64
        e 120 86 0d 00
        e 360 96 0c 64
        e 120 86 0c 00
        e 360 96 0d 64
        e 120 86 0d 00
        e 360 96 0d 64
        e 120 86 0d 00
        e 360 96 0c 64
        e 120 86 0c 00
        e 360 96 0d 64
        e 120 86 0d 00
        e 360 96 0d 64
        e 120 86 0d 00
        e 360 96 0c 64
        e 120 86 0c 00
        e 360 96 0d 64
        e 120 86 0d 00
        e 360 96 0d 64
        e 120 86 0d 00
        e 360 96 0c 64
        e 120 86 0c 00
        e 360 96 0d 64
        e 120 86 0d 00
        e 360 96 0d 64
        e 120 86 0d 00
        e 360 96 0c 64
        e 120 86 0c 00
        e 360 96 0d 64
        e 120 86 0d 00
        e 360 96 0d 64
        e 120 86 0d 00
        e 360 96 0c 64
        e 120 86 0c 00
        e 360 96 0d 64
        e 120 86 0d 00
        e 360 96 0d 64
        e 120 86 0d 00
        e 360 96 0c 64
        e 120 86 0c 00
        e 360 96 0d 64
        e 120 86 0d 00
        e 360 96 0d 64
        e 120 86 0d 00
        e 360 96 0c 64
        e 120 86 0c 00
        e 360 96 0d 64
        e 120 86 0d 00
        e 360 96 0d 64
        e 120 86 0d 00
        e 360 96 0c 64
        e 120 86 0c 00
        e 360 96 0d 64
        e 120 86 0d 00
        e 360 96 0d 64
        e 120 86 0d 00
        e 360 96 0c 64
        e 120 86 0c 00
        e 360 96 0d 64
        e 120 86 0d 00
        e 360 96 0d 64
        e 120 86 0d 00
        e 360 96 0c 64
        e 120 86 0c 00
        e 360 96 0d 64
        e 120 86 0d 00
        e 360 96 0d 64
        e 120 86 0d 00
        e 360 96 0c 64
        e 120 86 0c 00
        e 360 96 0d 64
        e 120 86 0d 00
        e 360 96 0d 64
        e 120 86 0d 00
        e 360 96 0c 64
        e 120 86 0c 00
        e 360 96 0d 64
        e 120 86 0d 00
        e 360 96 0d 64
        e 120 86 0d 00
        e 360 96 0c 64
        e 120 86 0c 00
        e 360 96 0d 64
        e 120 86 0d 00
        e 360 96 0d 64
        e 120 86 0d 00
        e 360 96 0c 64
        e 120 86 0c 00
        e 360 96 0d 64
        e 120 86 0d 00
        e 360 96 0d 64
        e 120 86 0d 00
        e 360 96 0c 64
        e 120 86 0c 00
        e 360 96 0d 64
        e 120 86 0d 00
        e 360 96 0d 64
        e 120 86 0d 00
        e 360 96 0c 64
        e 120 86 0c 00
        e 360 96 0d 64
        e 120 86 0d 00
        e 360 96 0d 64
        e 120 86 0d 00
        e 360 96 0c 64
        e 120 86 0c 00
        e 360 96 0d 64
        e 120 86 0d 00
        e 360 96 0d 64
        e 120 86 0d 00
        e 360 96 0c 64
        e 120 86 0c 00
        e 360 96 0d 64
        e 120 86 0d 00
        e 360 96 0d 64
        e 120 86 0d 00
        e 360 96 0c 64
        e 120 86 0c 00
        e 360 96 0d 64
        e 120 86 0d 00
        e 360 96 0d 64
        e 120 86 0d 00
        e 360 96 0c 64
        e 120 86 0c 00
        e 360 96 0d 64
        e 120 86 0d 00
        e 360 96 0d 64
        e 120 86 0d 00
        e 360 96 0c 64
        e 120 86 0c 00
        e 360 96 0d 64
        e 120 86 0d 00
        e 360 96 0d 64
        e 120 86 0d 00
        e 360 96 0c 64
        e 120 86 0c 00
        e 360 96 0d 64
        e 120 86 0d 00
        e 360 96 0d 64
        e 120 86 0d 00
        e 360 96 0c 64
        e 120 86 0c 00
        e 360 96 0d 64
        e 120 86 0d 00
        e 360 96 0d 64
        e 120 86 0d 00
        e 360 96 0c 64
        e 120 86 0c 00
        e 360 96 0d 64
        e 120 86 0d 00
        e 360 96 0d 64
        e 120 86 0d 00
        e 360 96 0c 64
        e 120 86 0c 00
        e 360 96 0d 64
        e 120 86 0d 00
        e 360 96 0d 64
        e 120 86 0d 00
        e 360 96 0c 64
        e 120 86 0c 00
        e 360 96 0d 64
        e 120 86 0d 00
        e 360 96 0d 64
        e 120 86 0d 00
        e 360 96 0c 64
        e 120 86 0c 00
        e 360 96 0d 64
        e 120 86 0d 00
        e 360 96 0d 64
        e 120 86 0d 00
        e 360 96 0c 64
        e 120 86 0c 00
        e 360 96 0d 64
        e 120 86 0d 00
        e 360 96 0d 64
        e 120 86 0d 00
        e 360 96 0c 64
        e 120 86 0c 00
        e 360 96 0d 64
        e 120 86 0d 00
        e 360 96 0d 64
        e 120 86 0d 00
        e 360 96 0c 64
        e 120 86 0c 00
        e 360 96 0d 64
        e 120 86 0d 00
        e 360 96 0d 64
        e 120 86 0d 00
        e 360 96 0c 64
        e 120 86 0c 00
        e 360 96 0d 64
        e 120 86 0d 00
        e 360 96 0d 64
        e 120 86 0d 00
        e 360 96 0c 64
        e 120 86 0c 00
        e 360 96 0d 64
        e 120 86 0d 00
        e 360 96 0d 64
        e 120 86 0d 00
        e 360 96 0c 64
        e 120 86 0c 00
        e 360 96 0d 64
        e 120 86 0d 00
        e 360 96 0d 64
        e 120 86 0d 00
        e 360 96 0c 64
        e 120 86 0c 00
        e 360 96 0d 64
        e 120 86 0d 00
        e 360 96 0d 64
        e 120 86 0d 00
        e 360 96 0c 64
        e 120 86 0c 00
        e 360 96 0d 64
        e 120 86 0d 00
        e 360 96 0d 64
        e 120 86 0d 00
        e 360 96 0c 64
        e 120 86 0c 00
        e 360 96 0d 64
        e 120 86 0d 00
        e 360 96 0d 64
        e 120 86 0d 00
        e 360 96 0c 64
        e 120 86 0c 00
        e 360 96 0d 64
        e 120 86 0d 00
        e 360 96 0d 64
        e 120 86 0d 00
        e 360 96 0c 64
        e 120 86 0c 00
        e 360 96 0d 64
        e 120 86 0d 00
        e 360 96 0d 64
        e 120 86 0d 00
        e 360 96 0c 64
        e 120 86 0c 00
        e 360 96 0d 64
        e 120 86 0d 00
        e 360 96 0d 64
        e 120 86 0d 00
        e 360 96 0c 64
        e 120 86 0c 00
        e 360 96 0d 64
        e 120 86 0d 00
        e 360 96 0d 64
        e 120 86 0d 00
        e 360 96 0c 64
        e 120 86 0c 00
        e 360 96 0d 64
        e 120 86 0d 00
        e 360 96 0d 64
        e 120 86 0d 00
        e 360 96 0c 64
        e 120 86 0c 00
        e 360 96 0d 64
        e 120 86 0d 00
        e 360 96 0d 64
        e 120 86 0d 00
        e 360 96 0c 64
        e 120 86 0c 00
        e 360 96 0d 64
        e 120 86 0d 00
        e 360 96 0d 64
        e 120 86 0d 00
        e 360 96 0c 64
        e 120 86 0c 00
        e 360 96 0d 64
        e 120 86 0d 00
        e 360 96 0d 64
        e 120 86 0d 00
        e 360 96 0c 64
        e 120 86 0c 00
        e 360 96 0d 64
        e 120 86 0d 00
        e 360 96 0d 64
        e 120 86 0d 00
        e 360 96 0c 64
        e 120 86 0c 00
        e 360 96 0d 64
        e 120 86 0d 00
        e 360 96 0d 64
        e 120 86 0d 00
        e 360 96 0c 64
        e 120 86 0c 00
        e 360 96 0d 64
        e 120 86 0d 00
        e 360 96 0d 64
        e 120 86 0d 00
        e 360 96 0c 64
        e 120 86 0c 00
        e 360 96 0d 64
        e 120 86 0d 00
        e 360 96 0d 64
        e 120 86 0d 00
        e 360 96 0c 64
        e 120 86 0c 00
        e 360 96 0d 64
        e 120 86 0d 00
        e 360 96 0d 64
        e 120 86 0d 00
        E 7560 b0 7b 00
        GUID {8CB930E8-B6A0-4CAD-825A-9F47FB66C1D0}
        IGNTEMPO 0 120 4 4
        SRCCOLOR 9
        VELLANE 132 100 100
        COLORMAP "C:\Users\AJFOne23\AppData\Roaming\REAPER\Data\color_maps\rockband_vox-other.png"
        TEXTSTRINGFILE "Text Events List.txt"
        CFGEDITVIEW 142962.601389 25.720572 0 48 0 0 0 0 0 0.5
        KEYSNAP 0
        TRACKSEL 0
        EVTFILTER 0 -1 -1 -1 -1 0 1 0 0 -1 -1 -1 -1 0 -1 0 -1 -1
        CFGEDIT 1 1 0 0 0 1 1 1 1 1 1 1 44 63 1223 847 1 2 1 2 0 0 0 0 0 0.5 1 0 1 64
      >
    >
  >
>
