<REAPER_PROJECT 0.1 "5.32" 1486449939
  RIPPLE 0
  GROUPOVERRIDE 0 0 0
  AUTOXFADE 1
  ENVATTACH 1
  MIXERUIFLAGS 11 48
  PEAKGAIN 1
  FEEDBACK 0
  PANLAW 1
  PROJOFFS 0 0
  MAXPROJLEN 0 600
  GRID 3199 8 1 8 1 0 0
  TIMEMODE 1 5 -1 30 0
  VIDEO_CONFIG 0 0 256
  PANMODE 3
  CURSOR 0
  ZOOM 4.52132672666217 0 0
  VZOOMEX 0
  USE_REC_CFG 0
  RECMODE 1
  SMPTESYNC 0 30 100 40 1000 300 0 0 1 0 0
  LOOP 0
  LOOPGRAN 0 4
  RECORD_PATH "" ""
  <RECORD_CFG
    ZXZhdxgAAA==
  >
  <APPLYFX_CFG
  >
  RENDER_FILE ""
  RENDER_PATTERN ""
  RENDER_FMT 0 2 0
  RENDER_1X 0
  RENDER_RANGE 1 0 0 18 1000
  RENDER_RESAMPLE 3 0 1
  RENDER_ADDTOPROJ 0
  RENDER_STEMS 0
  RENDER_DITHER 0
  TIMELOCKMODE 2
  TEMPOENVLOCKMODE 1
  ITEMMIX 0
  DEFPITCHMODE 589824
  TAKELANE 1
  SAMPLERATE 44100 0 0
  <RENDER_CFG
  >
  LOCK 1
  <METRONOME 6 2
    VOL 1 0.5
    FREQ 800 1600 1
    BEATLEN 4
    SAMPLES "" ""
    PATTERN 2863311530 2863311529
  >
  GLOBAL_AUTO -1
  TEMPO 120 4 4
  PLAYRATE 1 0 0.25 4
  SELECTION 0.02539031402442 0.02539031402442
  SELECTION2 0.02539031402442 0.02539031402442
  MASTERAUTOMODE 0
  MASTERTRACKHEIGHT 0
  MASTERPEAKCOL 16576
  MASTERMUTESOLO 0
  MASTERTRACKVIEW 0 0.6667 0.5 0.5 0 0 0
  MASTERHWOUT 0 0 1 0 0 0 0 -1
  MASTER_NCH 2 2
  MASTER_VOLUME 1 0 -1 -1 1
  MASTER_FX 1
  MASTER_SEL 0
  <MASTERPLAYSPEEDENV
    ACT 0
    VIS 0 1 1
    LANEHEIGHT 0 0
    ARM 0
    DEFSHAPE 0 -1 -1
  >
  <TEMPOENVEX
    ACT 1
    VIS 1 0 1
    LANEHEIGHT 0 0
    ARM 0
    DEFSHAPE 1 -1 -1
    PT 0.000000000000 144.0020000000 1 262148 0 1
    PT 0.025390314024 144.0023040369 1
  >
  <PROJBAY
  >
  <TRACK {A3EF0A6F-5A2F-4C87-844D-E9D1636EC97E}
    NAME KICK
    PEAKCOL 16576
    BEAT -1
    AUTOMODE 0
    VOLPAN 1 0 -1 -1 1
    MUTESOLO 0 0 0
    IPHASE 0
    ISBUS 1 1
    BUSCOMP 0 0
    SHOWINMIX 1 0.6667 0.5 1 0.5 0 0 0
    FREEMODE 0
    SEL 0
    REC 0 0 0 0 0 0 0
    VU 2
    TRACKHEIGHT 0 0
    INQ 0 0 0 0.5 100 0 0 100
    NCHAN 2
    FX 1
    TRACKID {A3EF0A6F-5A2F-4C87-844D-E9D1636EC97E}
    PERF 0
    MIDIOUT -1
    MAINSEND 1 0
  >
  <TRACK {3CC90122-14ED-47DE-BA48-D792690FE269}
    NAME "PERC Kick"
    PEAKCOL 16576
    BEAT -1
    AUTOMODE 0
    VOLPAN 1 0 -1 -1 1
    MUTESOLO 0 0 0
    IPHASE 0
    ISBUS 2 -1
    BUSCOMP 0 0
    SHOWINMIX 1 0.6667 0.5 1 0.5 0 0 0
    FREEMODE 0
    SEL 0
    REC 0 0 0 0 0 0 0
    VU 2
    TRACKHEIGHT 0 0
    INQ 0 0 0 0.5 100 0 0 100
    NCHAN 2
    FX 1
    TRACKID {3CC90122-14ED-47DE-BA48-D792690FE269}
    PERF 0
    MIDIOUT -1
    MAINSEND 1 0
    <FXCHAIN
      WNDRECT 50 94 958 586
      SHOW 0
      LASTSEL 0
      DOCKED 0
      BYPASS 0 0 0
      <VST "VSTi: sforzando (Plogue Art et Technologie, Inc)" "sforzando VST_x86.dll" 0 "" 1347176273
        UUdMUO5e7f4AAAAAAgAAAAEAAAAAAAAAAgAAAAAAAADkAQAAAQAAAAAAEAA=
        Q0VHUCgFAAB4nI2UUWvbMBDH3wf7DkLvja3GcRKIV9I1DD+EFdw+h7OsZmay1MmSyb79TkrimLJiGwLSXz+d7/7x3ebh1EjSCdPWWmWUzWJKHr59/bLZmhoK6MTgbM0Y
        Je9GV47b/AmFmCUUWYLPphDW1urYkj8OZG3/4jElrTUCGpQzOr+npIFTEZStlJrvHzO6YCjv86f8p7N7XYlwC5zVDVh8aSG1zWg8lKTohMxorTC2a4SylMi6E+fLSLbc
        JxYWIAElRu6I8EnNWi4v8ne8J0xGU+SOUpcgX5wKaaIQ9SXh20ldBVFBg/Er2Ua7kzXAragK7VRVgvp9iOODP3n061V8fiL8HZ6F4a719lHiyRyDJbHPrncV1/wXKOWL
        uvP+aonepQkl9pbSe3kwoI7igmACqg0HzWCpucX/qzdhvUTN2SBcKgpV7aFW16o6kO7sefRfhPVI/BlyP47Mx5FkHFmMI+k4shxHVuPIehxh8QRmgr9sgsFsgsNsgsXs
        c4+fwUDzwcGPn82NGRY/S9aL0BHJMl3NlywddFjkW+y62b29CW6HTdf38rn7tk1ZC8XFrZfCBBpMqFUyjP7jNb9GwobFIZHf5knY7/p9K6TwPf0CZfikfYxNdJ2BuPkH
        9/dcQQ==
        AAAQAAAA
      >
      FLOATPOS 0 0 0 0
      FXID {87A2CA80-3FA2-4D19-B251-39DB0BAF27CB}
      WAK 0
    >
    <ITEM
      POSITION 0
      SNAPOFFS 0
      LENGTH 113.38360289580626
      LOOP 0
      ALLTAKES 0
      FADEIN 1 0 0 1 0 0
      FADEOUT 1 0 0 1 0 0
      MUTE 0
      SEL 0
      IGUID {B9C7E002-05B3-49BA-A2D9-E53A2F80ED30}
      IID 10
      NAME "Kirby 64 - The Crystal Shards (U) 00000017 0027D0DC.mid"
      VOLPAN 1 0 1 -1
      SOFFS 0.0010847121468 0.00260334530939
      PLAYRATE 1 1 0 -1 0 0.0025
      CHANMODE 0
      GUID {D8FC7FBF-75E0-4E2F-AF98-24CE9A68B08E}
      <SOURCE MIDI
        HASDATA 1 384 QN
        POOLEDEVTS {4CCE6A9B-1D85-40E6-A4BB-447DC510AE49}
        E 3033 b9 15 63
        E 7 b9 19 7f
        E 6 b9 16 14
        E 7 b9 19 46
        E 6 b9 07 78
        E 14 99 24 6e
        E 177 99 24 00
        E 207 99 24 6e
        E 177 99 24 00
        E 207 99 24 6e
        E 177 99 24 00
        E 143 99 24 5a
        E 49 99 24 00
        E 15 99 24 6e
        E 113 99 24 00
        E 15 99 24 64
        E 49 99 24 00
        E 143 99 24 64
        E 49 99 24 00
        E 15 b9 19 46
        E 0 b9 07 78
        E 0 99 24 6e
        E 177 99 24 00
        E 207 99 24 6e
        E 177 99 24 00
        E 207 99 24 6e
        E 177 99 24 00
        E 143 99 24 5a
        E 49 99 24 00
        E 15 99 24 6e
        E 113 99 24 00
        E 15 99 24 64
        E 49 99 24 00
        E 143 99 24 64
        E 49 99 24 00
        E 15 b9 66 00
        E 0 b9 19 7f
        E 0 99 24 6e
        E 177 99 24 00
        E 207 99 24 6e
        E 177 99 24 00
        E 207 99 24 6e
        E 177 99 24 00
        E 143 99 24 5a
        E 49 99 24 00
        E 15 99 24 6e
        E 113 99 24 00
        E 15 99 24 64
        E 49 99 24 00
        E 143 99 24 64
        E 49 99 24 00
        E 15 99 24 6e
        E 177 99 24 00
        E 207 99 24 6e
        E 177 99 24 00
        E 207 99 24 6e
        E 177 99 24 00
        E 143 99 24 5a
        E 49 99 24 00
        E 143 99 24 64
        E 49 99 24 00
        E 207 b9 19 46
        E 0 99 24 6e
        E 177 99 24 00
        E 207 99 24 6e
        E 177 99 24 00
        E 207 99 24 6e
        E 177 99 24 00
        E 143 99 24 5a
        E 49 99 24 00
        E 15 99 24 6e
        E 113 99 24 00
        E 15 99 24 64
        E 49 99 24 00
        E 143 99 24 64
        E 49 99 24 00
        E 15 b9 19 46
        E 0 99 24 6e
        E 177 99 24 00
        E 207 99 24 6e
        E 177 99 24 00
        E 207 99 24 6e
        E 177 99 24 00
        E 143 99 24 5a
        E 49 99 24 00
        E 15 99 24 6e
        E 113 99 24 00
        E 15 99 24 64
        E 49 99 24 00
        E 143 99 24 64
        E 49 99 24 00
        E 15 b9 19 6f
        E 0 99 24 6e
        E 177 99 24 00
        E 207 99 24 6e
        E 177 99 24 00
        E 207 99 24 6e
        E 177 99 24 00
        E 143 99 24 5a
        E 49 99 24 00
        E 15 99 24 6e
        E 113 99 24 00
        E 15 99 24 64
        E 49 99 24 00
        E 143 99 24 64
        E 49 99 24 00
        E 15 99 24 6e
        E 177 99 24 00
        E 207 99 24 6e
        E 177 99 24 00
        E 207 99 24 6e
        E 177 99 24 00
        E 143 99 24 5a
        E 49 99 24 00
        E 143 99 24 64
        E 49 99 24 00
        E 207 b9 19 6f
        E 0 99 24 6e
        E 177 99 24 00
        E 207 99 24 6e
        E 177 99 24 00
        E 207 99 24 6e
        E 177 99 24 00
        E 143 99 24 5a
        E 49 99 24 00
        E 15 99 24 6e
        E 113 99 24 00
        E 15 99 24 64
        E 49 99 24 00
        E 143 99 24 64
        E 49 99 24 00
        E 15 99 24 6e
        E 177 99 24 00
        E 207 99 24 6e
        E 177 99 24 00
        E 207 99 24 6e
        E 177 99 24 00
        E 143 99 24 5a
        E 49 99 24 00
        E 143 99 24 64
        E 49 99 24 00
        E 207 b9 19 6f
        E 0 99 24 6e
        E 177 99 24 00
        E 207 99 24 6e
        E 177 99 24 00
        E 207 99 24 6e
        E 177 99 24 00
        E 143 99 24 5a
        E 49 99 24 00
        E 15 99 24 6e
        E 113 99 24 00
        E 15 99 24 64
        E 49 99 24 00
        E 143 99 24 64
        E 49 99 24 00
        E 15 b9 19 6f
        E 0 99 24 6e
        E 177 99 24 00
        E 207 99 24 6e
        E 177 99 24 00
        E 207 99 24 6e
        E 177 99 24 00
        E 143 99 24 5a
        E 49 99 24 00
        E 15 99 24 6e
        E 113 99 24 00
        E 15 99 24 64
        E 49 99 24 00
        E 143 99 24 64
        E 49 99 24 00
        E 15 b9 19 6f
        E 0 99 24 6e
        E 177 99 24 00
        E 207 99 24 6e
        E 177 99 24 00
        E 207 99 24 6e
        E 177 99 24 00
        E 143 99 24 5a
        E 49 99 24 00
        E 15 99 24 6e
        E 113 99 24 00
        E 15 99 24 64
        E 49 99 24 00
        E 143 99 24 64
        E 49 99 24 00
        E 15 99 24 6e
        E 177 99 24 00
        E 207 99 24 6e
        E 177 99 24 00
        E 207 99 24 6e
        E 177 99 24 00
        E 143 99 24 5a
        E 49 99 24 00
        E 143 99 24 64
        E 49 99 24 00
        E 207 b9 19 6f
        E 0 99 24 6e
        E 177 99 24 00
        E 207 99 24 6e
        E 177 99 24 00
        E 207 99 24 6e
        E 177 99 24 00
        E 143 99 24 5a
        E 49 99 24 00
        E 15 99 24 6e
        E 113 99 24 00
        E 15 99 24 64
        E 49 99 24 00
        E 143 99 24 64
        E 49 99 24 00
        E 15 99 24 6e
        E 177 99 24 00
        E 207 99 24 6e
        E 177 99 24 00
        E 207 99 24 6e
        E 177 99 24 00
        E 143 99 24 5a
        E 49 99 24 00
        E 399 99 24 6e
        E 177 99 24 00
        E 591 99 24 6e
        E 177 99 24 00
        E 15 99 24 6e
        E 177 99 24 00
        E 15 99 24 6e
        E 103 99 24 00
        E 281 99 24 6e
        E 177 99 24 00
        E 207 99 24 6e
        E 177 99 24 00
        E 207 99 24 6e
        E 177 99 24 00
        E 143 99 24 5a
        E 49 99 24 00
        E 15 99 24 6e
        E 113 99 24 00
        E 15 99 24 64
        E 49 99 24 00
        E 143 99 24 64
        E 49 99 24 00
        E 15 99 24 6e
        E 177 99 24 00
        E 207 99 24 6e
        E 177 99 24 00
        E 207 99 24 6e
        E 177 99 24 00
        E 143 99 24 5a
        E 49 99 24 00
        E 15 99 24 6e
        E 113 99 24 00
        E 15 99 24 64
        E 49 99 24 00
        E 143 99 24 64
        E 49 99 24 00
        E 15 99 24 6e
        E 177 99 24 00
        E 207 99 24 6e
        E 177 99 24 00
        E 207 99 24 6e
        E 177 99 24 00
        E 143 99 24 5a
        E 49 99 24 00
        E 15 99 24 6e
        E 113 99 24 00
        E 15 99 24 64
        E 49 99 24 00
        E 143 99 24 64
        E 49 99 24 00
        E 15 99 24 6e
        E 177 99 24 00
        E 207 99 24 6e
        E 177 99 24 00
        E 207 99 24 6e
        E 177 99 24 00
        E 143 99 24 5a
        E 49 99 24 00
        E 15 99 24 6e
        E 113 99 24 00
        E 15 99 24 64
        E 49 99 24 00
        E 143 99 24 64
        E 49 99 24 00
        E 15 99 24 6e
        E 177 99 24 00
        E 207 99 24 6e
        E 177 99 24 00
        E 207 99 24 6e
        E 177 99 24 00
        E 143 99 24 5a
        E 49 99 24 00
        E 15 99 24 6e
        E 113 99 24 00
        E 15 99 24 64
        E 49 99 24 00
        E 143 99 24 64
        E 49 99 24 00
        E 15 99 24 6e
        E 177 99 24 00
        E 207 99 24 6e
        E 177 99 24 00
        E 207 99 24 6e
        E 177 99 24 00
        E 143 99 24 5a
        E 49 99 24 00
        E 15 99 24 6e
        E 113 99 24 00
        E 15 99 24 64
        E 49 99 24 00
        E 143 99 24 64
        E 49 99 24 00
        E 15 99 24 6e
        E 177 99 24 00
        E 207 99 24 6e
        E 177 99 24 00
        E 207 99 24 6e
        E 177 99 24 00
        E 143 99 24 5a
        E 49 99 24 00
        E 15 99 24 6e
        E 113 99 24 00
        E 15 99 24 64
        E 49 99 24 00
        E 143 99 24 64
        E 49 99 24 00
        E 15 99 24 6e
        E 177 99 24 00
        E 207 99 24 6e
        E 177 99 24 00
        E 207 99 24 6e
        E 177 99 24 00
        E 143 99 24 5a
        E 49 99 24 00
        E 399 99 24 6e
        E 177 99 24 00
        E 591 99 24 6e
        E 177 99 24 00
        E 15 99 24 6e
        E 177 99 24 00
        E 15 99 24 6e
        E 103 99 24 00
        E 281 b9 19 6f
        E 0 99 24 6e
        E 177 99 24 00
        E 207 99 24 6e
        E 177 99 24 00
        E 207 99 24 6e
        E 177 99 24 00
        E 143 99 24 5a
        E 49 99 24 00
        E 15 99 24 6e
        E 113 99 24 00
        E 15 99 24 64
        E 49 99 24 00
        E 143 99 24 64
        E 49 99 24 00
        E 15 b9 19 6f
        E 0 99 24 6e
        E 177 99 24 00
        E 207 99 24 6e
        E 177 99 24 00
        E 207 99 24 6e
        E 177 99 24 00
        E 143 99 24 5a
        E 49 99 24 00
        E 15 99 24 6e
        E 113 99 24 00
        E 15 99 24 64
        E 49 99 24 00
        E 143 99 24 64
        E 49 99 24 00
        E 15 b9 19 6f
        E 0 99 24 6e
        E 177 99 24 00
        E 207 99 24 6e
        E 177 99 24 00
        E 207 99 24 6e
        E 177 99 24 00
        E 143 99 24 5a
        E 49 99 24 00
        E 15 99 24 6e
        E 113 99 24 00
        E 15 99 24 64
        E 49 99 24 00
        E 143 99 24 64
        E 49 99 24 00
        E 15 99 24 6e
        E 177 99 24 00
        E 207 99 24 6e
        E 177 99 24 00
        E 207 99 24 6e
        E 177 99 24 00
        E 143 99 24 5a
        E 49 99 24 00
        E 143 99 24 64
        E 49 99 24 00
        E 207 b9 19 6f
        E 0 99 24 6e
        E 177 99 24 00
        E 207 99 24 6e
        E 177 99 24 00
        E 207 99 24 6e
        E 177 99 24 00
        E 143 99 24 5a
        E 49 99 24 00
        E 15 99 24 6e
        E 113 99 24 00
        E 15 99 24 64
        E 49 99 24 00
        E 143 99 24 64
        E 49 99 24 00
        E 15 b9 19 6f
        E 0 99 24 6e
        E 177 99 24 00
        E 207 99 24 6e
        E 177 99 24 00
        E 207 99 24 6e
        E 177 99 24 00
        E 143 99 24 5a
        E 49 99 24 00
        E 15 99 24 6e
        E 113 99 24 00
        E 15 99 24 64
        E 49 99 24 00
        E 143 99 24 64
        E 49 99 24 00
        E 15 b9 19 6f
        E 0 99 24 6e
        E 177 99 24 00
        E 207 99 24 6e
        E 177 99 24 00
        E 207 99 24 6e
        E 177 99 24 00
        E 143 99 24 5a
        E 49 99 24 00
        E 15 99 24 6e
        E 113 99 24 00
        E 15 99 24 64
        E 49 99 24 00
        E 143 99 24 64
        E 49 99 24 00
        E 15 99 24 6e
        E 177 99 24 00
        E 207 99 24 6e
        E 177 99 24 00
        E 207 99 24 6e
        E 177 99 24 00
        E 143 99 24 5a
        E 49 99 24 00
        E 143 99 24 64
        E 49 99 24 00
        E 207 b9 19 6f
        E 0 99 24 6e
        E 177 99 24 00
        E 207 99 24 6e
        E 177 99 24 00
        E 207 99 24 6e
        E 177 99 24 00
        E 143 99 24 5a
        E 49 99 24 00
        E 15 99 24 6e
        E 113 99 24 00
        E 15 99 24 64
        E 49 99 24 00
        E 143 99 24 64
        E 49 99 24 00
        E 15 b9 19 6f
        E 0 99 24 6e
        E 177 99 24 00
        E 207 99 24 6e
        E 177 99 24 00
        E 207 99 24 6e
        E 177 99 24 00
        E 143 99 24 5a
        E 49 99 24 00
        E 15 99 24 6e
        E 113 99 24 00
        E 15 99 24 64
        E 49 99 24 00
        E 143 99 24 64
        E 49 99 24 00
        E 15 b9 19 6f
        E 0 99 24 6e
        E 177 99 24 00
        E 207 99 24 6e
        E 177 99 24 00
        E 207 99 24 6e
        E 177 99 24 00
        E 143 99 24 5a
        E 49 99 24 00
        E 15 99 24 6e
        E 113 99 24 00
        E 15 99 24 64
        E 49 99 24 00
        E 143 99 24 64
        E 49 99 24 00
        E 15 99 24 6e
        E 177 99 24 00
        E 207 99 24 6e
        E 177 99 24 00
        E 207 99 24 6e
        E 177 99 24 00
        E 143 99 24 5a
        E 49 99 24 00
        E 143 99 24 64
        E 49 99 24 00
        E 207 99 24 6e
        E 177 99 24 00
        E 207 99 24 6e
        E 177 99 24 00
        E 207 99 24 6e
        E 177 99 24 00
        E 15 99 24 5b
        E 177 99 24 00
        E 15 99 24 6e
        E 177 99 24 00
        E 15 99 24 5b
        E 177 99 24 00
        E 15 99 24 6e
        E 177 99 24 00
        E 207 99 24 6e
        E 177 99 24 00
        E 399 99 24 6e
        E 115 99 24 00
        E 77 99 24 6e
        E 177 99 24 00
        E 15 99 24 5b
        E 177 99 24 00
        E 15 99 24 6e
        E 177 99 24 00
        E 207 99 24 6e
        E 177 99 24 00
        E 207 99 24 6e
        E 177 99 24 00
        E 15 99 24 5b
        E 177 99 24 00
        E 15 99 24 6e
        E 177 99 24 00
        E 15 99 24 5b
        E 177 99 24 00
        E 15 99 24 6e
        E 177 99 24 00
        E 207 99 24 6e
        E 177 99 24 00
        E 207 99 24 6e
        E 177 99 24 00
        E 15 99 24 6e
        E 157 99 24 00
        E 35 99 24 6e
        E 177 99 24 00
        E 15 99 24 5b
        E 177 99 24 00
        E 15 99 24 6e
        E 177 99 24 00
        E 207 99 24 6e
        E 177 99 24 00
        E 207 99 24 6e
        E 177 99 24 00
        E 15 99 24 5b
        E 177 99 24 00
        E 15 99 24 6e
        E 177 99 24 00
        E 15 99 24 5b
        E 177 99 24 00
        E 15 99 24 6e
        E 177 99 24 00
        E 207 99 24 6e
        E 177 99 24 00
        E 399 99 24 6e
        E 115 99 24 00
        E 77 99 24 6e
        E 177 99 24 00
        E 15 99 24 5b
        E 177 99 24 00
        E 15 99 24 6e
        E 177 99 24 00
        E 207 99 24 6e
        E 177 99 24 00
        E 207 99 24 6e
        E 177 99 24 00
        E 15 99 24 5b
        E 177 99 24 00
        E 15 99 24 6e
        E 177 99 24 00
        E 15 99 24 5b
        E 177 99 24 00
        E 15 99 24 6e
        E 177 99 24 00
        E 207 99 24 6e
        E 177 99 24 00
        E 399 99 24 6e
        E 115 99 24 00
        E 77 99 24 6e
        E 177 99 24 00
        E 15 99 24 5b
        E 177 99 24 00
        E 15 99 24 6e
        E 177 99 24 00
        E 207 99 24 6e
        E 177 99 24 00
        E 207 99 24 6e
        E 177 99 24 00
        E 15 99 24 5b
        E 177 99 24 00
        E 15 99 24 6e
        E 177 99 24 00
        E 15 99 24 5b
        E 177 99 24 00
        E 15 99 24 6e
        E 177 99 24 00
        E 207 99 24 6e
        E 177 99 24 00
        E 399 99 24 6e
        E 115 99 24 00
        E 77 99 24 6e
        E 177 99 24 00
        E 15 99 24 5b
        E 177 99 24 00
        E 15 99 24 6e
        E 177 99 24 00
        E 591 99 24 6e
        E 177 99 24 00
        E 591 99 24 6e
        E 177 99 24 00
        E 591 99 24 6e
        E 177 99 24 00
        E 591 b9 07 78
        E 0 b9 19 6f
        E 0 99 24 6e
        E 177 99 24 00
        E 207 99 24 6e
        E 177 99 24 00
        E 207 99 24 6e
        E 177 99 24 00
        E 143 99 24 5a
        E 49 99 24 00
        E 15 99 24 6e
        E 113 99 24 00
        E 15 99 24 64
        E 49 99 24 00
        E 143 99 24 64
        E 49 99 24 00
        E 15 99 24 6e
        E 177 99 24 00
        E 207 99 24 6e
        E 177 99 24 00
        E 207 99 24 6e
        E 177 99 24 00
        E 143 99 24 5a
        E 49 99 24 00
        E 143 99 24 64
        E 49 99 24 00
        E 207 b9 19 6f
        E 0 99 24 6e
        E 177 99 24 00
        E 207 99 24 6e
        E 177 99 24 00
        E 207 99 24 6e
        E 177 99 24 00
        E 143 99 24 5a
        E 49 99 24 00
        E 15 99 24 6e
        E 113 99 24 00
        E 15 99 24 64
        E 49 99 24 00
        E 143 99 24 64
        E 49 99 24 00
        E 15 99 24 6e
        E 177 99 24 00
        E 207 99 24 6e
        E 177 99 24 00
        E 207 99 24 6e
        E 177 99 24 00
        E 143 99 24 5a
        E 49 99 24 00
        E 143 99 24 64
        E 49 99 24 00
        E 207 b9 19 6f
        E 0 99 24 6e
        E 177 99 24 00
        E 207 99 24 6e
        E 177 99 24 00
        E 207 99 24 6e
        E 177 99 24 00
        E 143 99 24 5a
        E 49 99 24 00
        E 15 99 24 6e
        E 113 99 24 00
        E 15 99 24 64
        E 49 99 24 00
        E 143 99 24 64
        E 49 99 24 00
        E 15 99 24 6e
        E 177 99 24 00
        E 207 99 24 6e
        E 177 99 24 00
        E 207 99 24 6e
        E 177 99 24 00
        E 143 99 24 5a
        E 49 99 24 00
        E 143 99 24 64
        E 49 99 24 00
        E 207 b9 19 6f
        E 0 99 24 6e
        E 177 99 24 00
        E 207 99 24 6e
        E 177 99 24 00
        E 207 99 24 6e
        E 177 99 24 00
        E 143 99 24 5a
        E 49 99 24 00
        E 15 99 24 6e
        E 113 99 24 00
        E 15 99 24 64
        E 49 99 24 00
        E 143 99 24 64
        E 49 99 24 00
        E 15 99 24 6e
        E 177 99 24 00
        E 207 99 24 6e
        E 177 99 24 00
        E 207 99 24 6e
        E 177 99 24 00
        E 143 99 24 5a
        E 49 99 24 00
        E 399 99 24 6e
        E 177 99 24 00
        E 591 99 24 6e
        E 177 99 24 00
        E 591 99 24 6e
        E 177 99 24 00
        E 1359 b9 07 78
        E 0 b9 19 6f
        E 0 99 24 6e
        E 177 99 24 00
        E 207 99 24 6e
        E 177 99 24 00
        E 207 99 24 6e
        E 177 99 24 00
        E 143 99 24 5a
        E 49 99 24 00
        E 15 99 24 6e
        E 113 99 24 00
        E 15 99 24 64
        E 49 99 24 00
        E 143 99 24 64
        E 49 99 24 00
        E 15 b9 19 46
        E 0 99 24 6e
        E 177 99 24 00
        E 207 99 24 6e
        E 177 99 24 00
        E 207 99 24 6e
        E 177 99 24 00
        E 143 99 24 5a
        E 49 99 24 00
        E 15 99 24 6e
        E 113 99 24 00
        E 15 99 24 64
        E 49 99 24 00
        E 143 99 24 64
        E 49 99 24 00
        E 15 b9 67 00
        E 0 b9 66 00
        E 0 b9 19 7f
        E 0 99 24 6e
        E 177 99 24 00
        E 207 99 24 6e
        E 177 99 24 00
        E 207 99 24 6e
        E 177 99 24 00
        E 143 99 24 5a
        E 49 99 24 00
        E 15 99 24 6e
        E 113 99 24 00
        E 271 99 24 6e
        E 177 99 24 00
        E 4479 b0 7b 00
        GUID {E972541C-3003-449C-8643-AC036D401440}
        IGNTEMPO 0 120 4 4
        SRCCOLOR 12
        VELLANE 132 77 128
        CFGEDITVIEW 96980.118308 205.21409 0 12 0 -1 0 0 0 0.5
        KEYSNAP 0
        TRACKSEL 0
        EVTFILTER 0 -1 -1 -1 -1 0 0 0 0 -1 -1 -1 -1 0 -1 0 -1 -1
        CFGEDIT 1 1 0 1 0 1 1 1 1 1 1 0.125 659 212 1820 901 0 2 2 2 0 0 0 0 0 0.5 0 0 1 64
      >
    >
  >
  <TRACK {CF4EFB85-8132-4AB7-B43D-29B039342C92}
    NAME SNARE
    PEAKCOL 16576
    BEAT -1
    AUTOMODE 0
    VOLPAN 1 0 -1 -1 1
    MUTESOLO 0 0 0
    IPHASE 0
    ISBUS 1 1
    BUSCOMP 0 0
    SHOWINMIX 1 0.6667 0.5 1 0.5 0 0 0
    FREEMODE 0
    SEL 0
    REC 0 0 0 0 0 0 0
    VU 2
    TRACKHEIGHT 0 0
    INQ 0 0 0 0.5 100 0 0 100
    NCHAN 2
    FX 1
    TRACKID {CF4EFB85-8132-4AB7-B43D-29B039342C92}
    PERF 0
    MIDIOUT -1
    MAINSEND 1 0
  >
  <TRACK {FA05F661-FC15-4BF5-B5E6-F0524B139FD2}
    NAME "PERC Snare"
    PEAKCOL 16576
    BEAT -1
    AUTOMODE 0
    VOLPAN 1 0 -1 -1 1
    MUTESOLO 0 0 0
    IPHASE 0
    ISBUS 2 -1
    BUSCOMP 0 0
    SHOWINMIX 1 0.6667 0.5 1 0.5 0 0 0
    FREEMODE 0
    SEL 0
    REC 0 0 0 0 0 0 0
    VU 2
    TRACKHEIGHT 0 0
    INQ 0 0 0 0.5 100 0 0 100
    NCHAN 2
    FX 1
    TRACKID {FA05F661-FC15-4BF5-B5E6-F0524B139FD2}
    PERF 0
    MIDIOUT -1
    MAINSEND 1 0
    <FXCHAIN
      WNDRECT 50 94 958 586
      SHOW 0
      LASTSEL 0
      DOCKED 0
      BYPASS 0 0 0
      <VST "VSTi: sforzando (Plogue Art et Technologie, Inc)" "sforzando VST_x86.dll" 0 "" 1347176273
        UUdMUO5e7f4AAAAAAgAAAAEAAAAAAAAAAgAAAAAAAAD1AQAAAQAAAAAAEAA=
        Q0VHUF8FAAB4nI1UUW+bMBB+n7T/YPm9wU6AgASr0jWaeIhWifY5MsbN0IzdgUHZv9/ZSQBViwAJyffdd+e7D+6Sx3MtUS+attIqxXRFMHr89vVLsmsqlrNeTHwxpRh9
        NLrsuMmeASDUx8BF8CS5MKZSpxb96ZiszF9wY9SaRrAa4BRv1hjV7Jw7ZCel5oenFAcU4EP2nP3szEGXwkWxzuiaGbg0l9qkmEwhKXohU1wpyN3VQhmMZNWLSzAwW+4K
        swcmGUAUPSBhi1q1XF7h7xAnmhSHEHCSumDytVOuTAC8oSW4HVWlAxWrIX8pW29/Ng3jRpS57lRZMPX7SMjRep7sOSKXx4P3+CIa3rVWPowsM4NkPjjwqCqc+S+mlG3q
        weqrJWgX+hiZsaSP4tgwdRJXChSgWueoJ0fNDXyvQYQ4AqwzDrh25Lo6sErduuqZ7C6ae/+l0IFC7lHW85TNPMWfpwTzlHCesp2nRPOUeJ5CyQLOAn3pAoHpAoXpAonp
        fY1fWMPqTwp+/m1GzrT5lR8HbiL8bRhttjS8H7WZ6LHaBkFMgoBEMcQH4XoymJ6dzJuxf38X3ExndVgBl6Hd1UUlFBfjCLrFNVlskT8pKvnxlt0ywZzDbsnGNeTs/WC3
        Qgq7Cl5Z4SbB5ki82+oE4x8l2GiE
        AAAQAAAA
      >
      FLOATPOS 0 0 0 0
      FXID {23812AE9-201F-402D-A52B-6E0C5EE81426}
      WAK 0
    >
    <ITEM
      POSITION 0
      SNAPOFFS 0
      LENGTH 110.83156005358016
      LOOP 0
      ALLTAKES 0
      FADEIN 1 0 0 1 0 0
      FADEOUT 1 0 0 1 0 0
      MUTE 0
      SEL 0
      IGUID {350B5988-F8DB-4193-A90C-E5301B1CDC85}
      IID 10
      NAME "Kirby 64 - The Crystal Shards (U) 00000017 0027D0DC.mid"
      VOLPAN 1 0 1 -1
      SOFFS 0.0010847121468 0.00260334530939
      PLAYRATE 1 1 0 -1 0 0.0025
      CHANMODE 0
      GUID {E53A9F68-9B4C-439F-BCC3-2285714550DB}
      <SOURCE MIDI
        HASDATA 1 384 QN
        POOLEDEVTS {B12CAFAD-AA98-4E9C-954E-A5AE300FD648}
        E 3033 b9 15 63
        E 7 b9 19 7f
        E 6 b9 16 14
        E 7 b9 19 46
        E 6 b9 07 78
        E 206 99 22 5f
        E 177 99 22 00
        E 207 99 22 5f
        E 177 99 22 00
        E 207 99 22 5f
        E 113 99 22 00
        E 271 99 22 5f
        E 113 99 22 00
        E 271 99 22 5f
        E 177 99 22 00
        E 207 99 22 5f
        E 177 99 22 00
        E 207 99 22 5f
        E 113 99 22 00
        E 271 99 22 5f
        E 113 99 22 00
        E 271 99 22 5f
        E 177 99 22 00
        E 207 99 22 5f
        E 177 99 22 00
        E 207 99 22 5f
        E 113 99 22 00
        E 271 99 22 5f
        E 113 99 22 00
        E 271 99 22 5f
        E 177 99 22 00
        E 207 99 22 5f
        E 177 99 22 00
        E 207 99 22 5f
        E 113 99 22 00
        E 79 99 22 5f
        E 113 99 22 00
        E 79 99 22 5f
        E 113 99 22 00
        E 15 99 22 52
        E 49 99 22 00
        E 207 99 22 5f
        E 177 99 22 00
        E 207 99 22 5f
        E 177 99 22 00
        E 207 99 22 5f
        E 113 99 22 00
        E 271 99 22 5f
        E 113 99 22 00
        E 271 99 22 5f
        E 177 99 22 00
        E 207 99 22 5f
        E 177 99 22 00
        E 207 99 22 5f
        E 113 99 22 00
        E 271 99 22 5f
        E 113 99 22 00
        E 271 99 22 5f
        E 177 99 22 00
        E 207 99 22 5f
        E 177 99 22 00
        E 207 99 22 5f
        E 113 99 22 00
        E 271 99 22 5f
        E 113 99 22 00
        E 271 99 22 5f
        E 177 99 22 00
        E 207 99 22 5f
        E 177 99 22 00
        E 207 99 22 5f
        E 113 99 22 00
        E 79 99 22 5f
        E 113 99 22 00
        E 79 99 22 5f
        E 113 99 22 00
        E 15 99 22 52
        E 49 99 22 00
        E 207 99 22 5f
        E 177 99 22 00
        E 207 99 22 5f
        E 177 99 22 00
        E 207 99 22 5f
        E 113 99 22 00
        E 271 99 22 5f
        E 113 99 22 00
        E 271 99 22 5f
        E 177 99 22 00
        E 207 99 22 5f
        E 177 99 22 00
        E 207 99 22 5f
        E 113 99 22 00
        E 79 99 22 5f
        E 113 99 22 00
        E 79 99 22 5f
        E 113 99 22 00
        E 15 99 22 52
        E 49 99 22 00
        E 207 99 22 5f
        E 177 99 22 00
        E 207 99 22 5f
        E 177 99 22 00
        E 207 99 22 5f
        E 113 99 22 00
        E 271 99 22 5f
        E 113 99 22 00
        E 271 99 22 5f
        E 177 99 22 00
        E 207 99 22 5f
        E 177 99 22 00
        E 207 99 22 5f
        E 113 99 22 00
        E 271 99 22 5f
        E 113 99 22 00
        E 271 99 22 5f
        E 177 99 22 00
        E 207 99 22 5f
        E 177 99 22 00
        E 207 99 22 5f
        E 113 99 22 00
        E 271 99 22 5f
        E 113 99 22 00
        E 271 99 22 5f
        E 177 99 22 00
        E 207 99 22 5f
        E 177 99 22 00
        E 207 99 22 5f
        E 113 99 22 00
        E 79 99 22 5f
        E 113 99 22 00
        E 79 99 22 5f
        E 113 99 22 00
        E 15 99 22 52
        E 49 99 22 00
        E 207 99 22 5f
        E 177 99 22 00
        E 207 99 22 5f
        E 177 99 22 00
        E 207 99 22 5f
        E 113 99 22 00
        E 271 99 22 5f
        E 113 99 22 00
        E 271 99 22 5f
        E 177 99 22 00
        E 207 99 22 5f
        E 177 99 22 00
        E 207 99 22 5f
        E 113 99 22 00
        E 79 99 22 5f
        E 113 99 22 00
        E 15 99 22 56
        E 49 99 22 00
        E 15 99 22 68
        E 49 99 22 00
        E 15 99 22 57
        E 49 99 22 00
        E 15 99 22 50
        E 49 99 22 00
        E 1295 99 22 56
        E 49 99 22 00
        E 15 99 22 68
        E 49 99 22 00
        E 15 99 22 57
        E 49 99 22 00
        E 15 99 22 50
        E 49 99 22 00
        E 207 99 22 5f
        E 177 99 22 00
        E 207 99 22 5f
        E 177 99 22 00
        E 207 99 22 5f
        E 113 99 22 00
        E 271 99 22 5f
        E 113 99 22 00
        E 271 99 22 5f
        E 177 99 22 00
        E 207 99 22 5f
        E 177 99 22 00
        E 207 99 22 5f
        E 113 99 22 00
        E 271 99 22 5f
        E 113 99 22 00
        E 271 99 22 5f
        E 177 99 22 00
        E 207 99 22 5f
        E 177 99 22 00
        E 207 99 22 5f
        E 113 99 22 00
        E 271 99 22 5f
        E 113 99 22 00
        E 271 99 22 5f
        E 177 99 22 00
        E 207 99 22 5f
        E 177 99 22 00
        E 207 99 22 5f
        E 113 99 22 00
        E 271 99 22 5f
        E 113 99 22 00
        E 271 99 22 5f
        E 177 99 22 00
        E 207 99 22 5f
        E 177 99 22 00
        E 207 99 22 5f
        E 113 99 22 00
        E 271 99 22 5f
        E 113 99 22 00
        E 271 99 22 5f
        E 177 99 22 00
        E 207 99 22 5f
        E 177 99 22 00
        E 207 99 22 5f
        E 113 99 22 00
        E 271 99 22 5f
        E 113 99 22 00
        E 271 99 22 5f
        E 177 99 22 00
        E 207 99 22 5f
        E 177 99 22 00
        E 207 99 22 5f
        E 113 99 22 00
        E 271 99 22 5f
        E 113 99 22 00
        E 271 99 22 5f
        E 177 99 22 00
        E 207 99 22 5f
        E 177 99 22 00
        E 207 99 22 5f
        E 113 99 22 00
        E 79 99 22 5f
        E 113 99 22 00
        E 15 99 22 56
        E 49 99 22 00
        E 15 99 22 68
        E 49 99 22 00
        E 15 99 22 57
        E 49 99 22 00
        E 15 99 22 50
        E 49 99 22 00
        E 1295 99 22 56
        E 49 99 22 00
        E 15 99 22 68
        E 49 99 22 00
        E 15 99 22 57
        E 49 99 22 00
        E 15 99 22 50
        E 49 99 22 00
        E 207 99 22 5f
        E 177 99 22 00
        E 207 99 22 5f
        E 177 99 22 00
        E 207 99 22 5f
        E 113 99 22 00
        E 271 99 22 5f
        E 113 99 22 00
        E 271 99 22 5f
        E 177 99 22 00
        E 207 99 22 5f
        E 177 99 22 00
        E 207 99 22 5f
        E 113 99 22 00
        E 271 99 22 5f
        E 113 99 22 00
        E 271 99 22 5f
        E 177 99 22 00
        E 207 99 22 5f
        E 177 99 22 00
        E 207 99 22 5f
        E 113 99 22 00
        E 271 99 22 5f
        E 113 99 22 00
        E 271 99 22 5f
        E 177 99 22 00
        E 207 99 22 5f
        E 177 99 22 00
        E 207 99 22 5f
        E 113 99 22 00
        E 79 99 22 5f
        E 113 99 22 00
        E 79 99 22 5f
        E 113 99 22 00
        E 15 99 22 52
        E 49 99 22 00
        E 207 99 22 5f
        E 177 99 22 00
        E 207 99 22 5f
        E 177 99 22 00
        E 207 99 22 5f
        E 113 99 22 00
        E 271 99 22 5f
        E 113 99 22 00
        E 271 99 22 5f
        E 177 99 22 00
        E 207 99 22 5f
        E 177 99 22 00
        E 207 99 22 5f
        E 113 99 22 00
        E 271 99 22 5f
        E 113 99 22 00
        E 271 99 22 5f
        E 177 99 22 00
        E 207 99 22 5f
        E 177 99 22 00
        E 207 99 22 5f
        E 113 99 22 00
        E 271 99 22 5f
        E 113 99 22 00
        E 271 99 22 5f
        E 177 99 22 00
        E 207 99 22 5f
        E 177 99 22 00
        E 207 99 22 5f
        E 113 99 22 00
        E 79 99 22 5f
        E 113 99 22 00
        E 79 99 22 5f
        E 113 99 22 00
        E 15 99 22 52
        E 49 99 22 00
        E 207 99 22 5f
        E 177 99 22 00
        E 207 99 22 5f
        E 177 99 22 00
        E 207 99 22 5f
        E 113 99 22 00
        E 271 99 22 5f
        E 113 99 22 00
        E 271 99 22 5f
        E 177 99 22 00
        E 207 99 22 5f
        E 177 99 22 00
        E 207 99 22 5f
        E 113 99 22 00
        E 271 99 22 5f
        E 113 99 22 00
        E 271 99 22 5f
        E 177 99 22 00
        E 207 99 22 5f
        E 177 99 22 00
        E 207 99 22 5f
        E 113 99 22 00
        E 271 99 22 5f
        E 113 99 22 00
        E 271 99 22 5f
        E 177 99 22 00
        E 207 99 22 5f
        E 177 99 22 00
        E 207 99 22 5f
        E 113 99 22 00
        E 79 99 22 5f
        E 113 99 22 00
        E 79 99 22 5f
        E 113 99 22 00
        E 15 99 22 52
        E 49 99 22 00
        E 15 99 28 5a
        E 123 99 28 00
        E 7 99 28 5a
        E 184 99 28 00
        E 6 99 28 54
        E 58 99 28 00
        E 6 99 28 5a
        E 186 99 28 00
        E 6 99 28 5a
        E 119 99 28 00
        E 9 99 28 56
        E 187 99 28 00
        E 5 99 28 54
        E 59 99 28 00
        E 5 99 28 5a
        E 186 99 28 00
        E 6 99 28 5a
        E 61 99 28 00
        E 3 99 28 54
        E 61 99 28 00
        E 3 99 28 4f
        E 61 99 28 00
        E 3 99 28 5a
        E 123 99 28 00
        E 5 99 28 52
        E 59 99 28 00
        E 5 99 28 5a
        E 175 99 28 00
        E 1361 99 28 5a
        E 170 99 28 00
        E 406 99 28 5a
        E 170 99 28 00
        E 406 99 22 5a
        E 60 99 22 00
        E 4 99 22 4a
        E 60 99 22 00
        E 4 99 22 3e
        E 60 99 22 00
        E 4 99 28 5a
        E 170 99 28 00
        E 406 99 28 5a
        E 170 99 28 00
        E 406 99 28 5a
        E 186 99 28 00
        E 6 99 28 5a
        E 126 99 28 00
        E 2 99 28 5a
        E 129 99 28 00
        E 4 99 28 5a
        E 111 99 28 00
        E 396 99 28 5a
        E 177 99 28 00
        E 207 99 28 5a
        E 177 99 28 00
        E 399 99 28 5a
        E 177 99 28 00
        E 207 99 28 5a
        E 177 99 28 00
        E 79 99 28 5a
        E 177 99 28 00
        E 143 99 28 5a
        E 177 99 28 00
        E 143 99 28 5a
        E 200 99 28 00
        E 56 99 28 5a
        E 173 99 28 00
        E 19 99 28 5a
        E 152 99 28 00
        E 424 99 28 5a
        E 152 99 28 00
        E 424 99 22 5a
        E 52 99 22 00
        E 15 99 22 49
        E 51 99 22 00
        E 14 99 22 44
        E 46 99 22 00
        E 14 99 28 5a
        E 152 99 28 00
        E 232 99 28 5a
        E 167 99 28 00
        E 409 99 22 54
        E 51 99 22 00
        E 15 99 22 3b
        E 49 99 22 00
        E 16 99 22 39
        E 48 99 22 00
        E 14 99 22 5c
        E 51 99 22 00
        E 14 99 22 3b
        E 48 99 22 00
        E 18 99 22 38
        E 48 99 22 00
        E 12 99 28 5a
        E 159 99 28 00
        E 417 99 28 5a
        E 177 99 28 00
        E 15 99 28 5a
        E 177 99 28 00
        E 207 99 28 5a
        E 177 99 28 00
        E 399 99 28 5a
        E 177 99 28 00
        E 207 99 28 5a
        E 177 99 28 00
        E 79 99 28 5a
        E 177 99 28 00
        E 143 99 28 5a
        E 177 99 28 00
        E 143 99 28 5a
        E 119 99 28 00
        E 137 99 28 5a
        E 173 99 28 00
        E 19 99 28 5a
        E 152 99 28 00
        E 424 99 28 5a
        E 152 99 28 00
        E 40 99 2f 4b
        E 80 99 2f 00
        E 16 99 2f 4b
        E 80 99 2f 00
        E 208 99 22 5f
        E 80 99 22 00
        E 16 99 22 4f
        E 80 99 22 00
        E 16 99 22 44
        E 80 99 22 00
        E 16 99 22 44
        E 80 99 22 00
        E 784 99 22 5c
        E 80 99 22 00
        E 112 99 22 5c
        E 80 99 22 00
        E 112 99 22 5c
        E 80 99 22 00
        E 48 99 22 3e
        E 52 99 22 00
        E 12 99 22 5c
        E 50 99 22 00
        E 14 99 22 44
        E 50 99 22 00
        E 14 99 22 3b
        E 54 99 22 00
        E 202 99 22 5f
        E 177 99 22 00
        E 207 99 22 5f
        E 177 99 22 00
        E 207 99 22 5f
        E 113 99 22 00
        E 271 99 22 5f
        E 113 99 22 00
        E 271 99 22 5f
        E 177 99 22 00
        E 207 99 22 5f
        E 177 99 22 00
        E 207 99 22 5f
        E 113 99 22 00
        E 79 99 22 5f
        E 113 99 22 00
        E 79 99 22 5f
        E 113 99 22 00
        E 15 99 22 52
        E 49 99 22 00
        E 207 99 22 5f
        E 177 99 22 00
        E 207 99 22 5f
        E 177 99 22 00
        E 207 99 22 5f
        E 113 99 22 00
        E 271 99 22 5f
        E 113 99 22 00
        E 271 99 22 5f
        E 177 99 22 00
        E 207 99 22 5f
        E 177 99 22 00
        E 207 99 22 5f
        E 113 99 22 00
        E 79 99 22 5f
        E 113 99 22 00
        E 79 99 22 5f
        E 113 99 22 00
        E 15 99 22 52
        E 49 99 22 00
        E 207 99 22 5f
        E 177 99 22 00
        E 207 99 22 5f
        E 177 99 22 00
        E 207 99 22 5f
        E 113 99 22 00
        E 271 99 22 5f
        E 113 99 22 00
        E 271 99 22 5f
        E 177 99 22 00
        E 207 99 22 5f
        E 177 99 22 00
        E 207 99 22 5f
        E 113 99 22 00
        E 79 99 22 5f
        E 113 99 22 00
        E 79 99 22 5f
        E 113 99 22 00
        E 15 99 22 52
        E 49 99 22 00
        E 207 99 22 5f
        E 177 99 22 00
        E 207 99 22 5f
        E 177 99 22 00
        E 207 99 22 5f
        E 113 99 22 00
        E 271 99 22 5f
        E 113 99 22 00
        E 271 99 22 5f
        E 177 99 22 00
        E 207 99 22 5f
        E 177 99 22 00
        E 207 99 22 5f
        E 113 99 22 00
        E 79 99 22 5f
        E 113 99 22 00
        E 15 99 22 56
        E 49 99 22 00
        E 15 99 22 68
        E 49 99 22 00
        E 15 99 22 57
        E 49 99 22 00
        E 15 99 22 50
        E 49 99 22 00
        E 2319 99 22 5f
        E 90 99 22 00
        E 102 99 22 5f
        E 90 99 22 00
        E 102 99 22 5f
        E 90 99 22 00
        E 102 99 22 66
        E 51 99 22 00
        E 13 99 22 56
        E 51 99 22 00
        E 13 99 22 4a
        E 51 99 22 00
        E 205 99 22 5f
        E 177 99 22 00
        E 207 99 22 5f
        E 177 99 22 00
        E 207 99 22 5f
        E 113 99 22 00
        E 271 99 22 5f
        E 113 99 22 00
        E 271 99 22 5f
        E 177 99 22 00
        E 207 99 22 5f
        E 177 99 22 00
        E 207 99 22 5f
        E 113 99 22 00
        E 271 99 22 5f
        E 113 99 22 00
        E 79 b9 67 00
        E 192 99 22 5f
        E 177 99 22 00
        E 207 99 22 5f
        E 177 99 22 00
        E 207 99 22 5f
        E 113 99 22 00
        E 207 90 22 60
        E 51 80 22 00
        E 13 99 22 5f
        E 113 99 22 00
        E 15 90 22 60
        E 448 80 22 00
        E 1920 b0 7b 00
        GUID {E972541C-3003-449C-8643-AC036D401440}
        IGNTEMPO 0 120 4 4
        SRCCOLOR 12
        VELLANE 132 77 128
        CFGEDITVIEW 98117.212744 363.967328 0 12 0 -1 0 0 0 0.5
        KEYSNAP 0
        TRACKSEL 0
        EVTFILTER 0 -1 -1 -1 -1 0 0 0 0 -1 -1 -1 -1 0 -1 0 -1 -1
        CFGEDIT 1 1 0 1 0 1 1 1 1 1 1 0.16666667 665 218 1814 895 0 2 2 2 0 0 0 0 0 0.5 0 0 1 64
      >
    >
  >
  <TRACK {1DDF3415-31F3-4EF9-AD74-1B037ECFC225}
    NAME KIT
    PEAKCOL 16576
    BEAT -1
    AUTOMODE 0
    VOLPAN 1 0 -1 -1 1
    MUTESOLO 0 0 0
    IPHASE 0
    ISBUS 1 1
    BUSCOMP 0 0
    SHOWINMIX 1 0.6667 0.5 1 0.5 0 0 0
    FREEMODE 0
    SEL 0
    REC 0 0 0 0 0 0 0
    VU 2
    TRACKHEIGHT 0 0
    INQ 0 0 0 0.5 100 0 0 100
    NCHAN 2
    FX 1
    TRACKID {1DDF3415-31F3-4EF9-AD74-1B037ECFC225}
    PERF 0
    MIDIOUT -1
    MAINSEND 1 0
  >
  <TRACK {C04CFE3A-1ADF-4C92-AB1C-67D884B29C67}
    NAME "PERC Kit 1"
    PEAKCOL 16576
    BEAT -1
    AUTOMODE 0
    VOLPAN 1 0 -1 -1 1
    MUTESOLO 0 0 0
    IPHASE 0
    ISBUS 0 0
    BUSCOMP 0 0
    SHOWINMIX 1 0.6667 0.5 1 0.5 0 0 0
    FREEMODE 0
    SEL 0
    REC 0 0 0 0 0 0 0
    VU 2
    TRACKHEIGHT 0 0
    INQ 0 0 0 0.5 100 0 0 100
    NCHAN 2
    FX 1
    TRACKID {C04CFE3A-1ADF-4C92-AB1C-67D884B29C67}
    PERF 0
    MIDIOUT -1
    MAINSEND 1 0
    <FXCHAIN
      WNDRECT 50 94 958 586
      SHOW 0
      LASTSEL 0
      DOCKED 0
      BYPASS 0 0 0
      <VST "VSTi: sforzando (Plogue Art et Technologie, Inc)" "sforzando VST_x86.dll" 0 "" 1347176273
        UUdMUO5e7f4AAAAAAgAAAAEAAAAAAAAAAgAAAAAAAADjAQAAAQAAAAAAEAA=
        Q0VHUCgFAAB4nI1UUW+bMBB+n7T/YPm9ATeEECmsStdo4iFaJdrn6DBuhmbsDmyU/fudnQRQtQqQkOzvPp/vPvhu+3CuJelE01ZapZQtQkoevn39st01FeTQiVFswxgl
        740uLTfZEwIhiyhyCT7bXBhTqVNL/liQlfmLYUpa0wioEU7p8p6SGs65R3ZSan54TOmKIXzInrKf1hx0KfwpsEbXYPDSXGqT0nAMSdEJmdJKYW5bC2UokVUnLoeR2XJf
        mFuABIQYuSPCFbVoubzC3/GcaFIa44GT1AXIF6t8mQgEfUt4O6lKDyqoMX8p22B/Ng1wI8pcW1UWoH4fw/DoIo9unYSXJ8D3+CwablsnHyWOmWGyCAN0UBXX/Bco5Zq6
        c/pqidrFESVmKOm9ODagTuJKwQJU6wP1aKm5we/Vi7BJELPGA9eOfFcHqNStqw6kvWge/JfCekr4GeV+mrKcpkTTlNU0JZ6mrKcpyTRlM01h4QzODH3ZDIHZDIXZDInZ
        5xo/QwP1BwU//jYDZ9z8ItqsvCOidZws1yweOSxwFrtt9m9vgpux6XovX9y3q4tKKC4GL/kJNJpQSTTO/uM1u2VCw+KQyIZ54vf7ft8KKZynX6Dwv7TLsQ1uMxA3/wAA
        KVxE
        AAAQAAAA
      >
      FLOATPOS 0 0 0 0
      FXID {4A64285B-EDBA-42D6-9AB2-97FDF5AE3AB1}
      WAK 0
    >
    <ITEM
      POSITION 0
      SNAPOFFS 0
      LENGTH 111.24822005358006
      LOOP 0
      ALLTAKES 0
      FADEIN 1 0 0 1 0 0
      FADEOUT 1 0 0 1 0 0
      MUTE 0
      SEL 0
      IGUID {7C7312DF-87F0-45BE-819F-40F140A997AF}
      IID 10
      NAME "Kirby 64 - The Crystal Shards (U) 00000017 0027D0DC.mid"
      VOLPAN 1 0 1 -1
      SOFFS 0.0010847121468 0.00260334530939
      PLAYRATE 1 1 0 -1 0 0.0025
      CHANMODE 0
      GUID {352B4C0C-6035-4A87-A828-5948B051CAB0}
      <SOURCE MIDI
        HASDATA 1 384 QN
        POOLEDEVTS {E08C52EB-3960-4DC1-871A-D7E0C0BCA247}
        E 3033 b9 15 63
        E 7 b9 19 7f
        E 6 b9 16 14
        E 7 b9 19 46
        E 6 b9 07 78
        E 26126 99 39 50
        E 177 99 39 00
        E 1295 99 39 50
        E 230 99 39 00
        E 26 99 39 50
        E 272 99 39 00
        E 880 99 39 50
        E 113 99 39 00
        E 15 99 39 50
        E 49 99 39 00
        E 1551 99 39 50
        E 177 99 39 00
        E 15 99 32 50
        E 49 99 32 00
        E 15 99 2f 50
        E 49 99 2f 00
        E 15 99 2d 50
        E 49 99 2d 00
        E 207 99 39 50
        E 177 99 39 00
        E 15 99 32 50
        E 49 99 32 00
        E 15 99 2f 50
        E 49 99 2f 00
        E 15 99 2d 50
        E 49 99 2d 00
        E 207 99 39 50
        E 113 99 39 00
        E 79 99 32 50
        E 49 99 32 00
        E 15 99 2f 50
        E 49 99 2f 00
        E 15 99 2d 50
        E 49 99 2d 00
        E 207 99 39 50
        E 192 99 39 00
        E 192 99 39 50
        E 177 99 39 00
        E 207 99 32 50
        E 49 99 32 00
        E 15 99 2f 50
        E 49 99 2f 00
        E 15 99 2d 50
        E 49 99 2d 00
        E 207 99 39 50
        E 320 99 39 00
        E 64 99 32 50
        E 49 99 32 00
        E 15 99 2f 50
        E 49 99 2f 00
        E 15 99 2d 50
        E 49 99 2d 00
        E 975 99 39 50
        E 113 99 39 00
        E 15 99 39 50
        E 49 99 39 00
        E 975 99 32 50
        E 49 99 32 00
        E 15 99 2f 50
        E 49 99 2f 00
        E 15 99 2d 50
        E 49 99 2d 00
        E 207 99 39 50
        E 113 99 39 00
        E 15 99 39 50
        E 49 99 39 00
        E 15 99 39 50
        E 177 99 39 00
        E 591 99 39 50
        E 155 99 39 00
        E 421 99 39 50
        E 169 99 39 00
        E 23 99 39 47
        E 640 99 39 00
        E 128 99 39 47
        E 640 99 39 00
        E 18560 99 39 5b
        E 700 99 39 00
        E 1028 99 2d 4b
        E 70 99 2d 00
        E 122 99 2d 4b
        E 70 99 2d 00
        E 122 99 2d 4b
        E 70 99 2d 00
        E 122 99 2d 59
        E 70 99 2d 00
        E 122 99 2d 58
        E 70 99 2d 00
        E 122 99 2f 59
        E 64 99 2d 4b
        E 6 99 2f 00
        E 58 99 2b 4b
        E 6 99 2d 00
        E 64 99 2b 00
        E 186 99 39 5b
        E 192 99 2f 4b
        E 64 99 2d 4b
        E 6 99 2f 00
        E 64 99 2d 00
        E 224 99 39 00
        E 26 99 39 5b
        E 192 99 2f 4b
        E 64 99 2d 4b
        E 6 99 2f 00
        E 64 99 2d 00
        E 224 99 39 00
        E 218 99 39 47
        E 192 99 2f 4b
        E 64 99 2d 4b
        E 6 99 2f 00
        E 64 99 2d 00
        E 224 99 39 00
        E 26 99 39 47
        E 192 99 2f 4b
        E 64 99 2d 4b
        E 6 99 2f 00
        E 64 99 2d 00
        E 224 99 39 00
        E 26 99 39 47
        E 171 99 39 00
        E 21 99 39 47
        E 333 99 39 00
        E 51 99 39 5f
        E 333 99 39 00
        E 627 99 2f 4b
        E 70 99 2f 00
        E 122 99 2f 4b
        E 70 99 2f 00
        E 506 99 39 5f
        E 297 99 39 00
        E 1047 99 39 5b
        E 192 99 2f 4b
        E 52 99 2f 00
        E 12 99 2d 4b
        E 52 99 2d 00
        E 232 99 39 00
        E 36 99 39 5b
        E 192 99 2f 4b
        E 52 99 2f 00
        E 12 99 2d 4b
        E 52 99 2d 00
        E 250 99 39 00
        E 210 99 39 5b
        E 192 99 2d 4b
        E 100 99 2d 00
        E 58 99 39 00
        E 34 99 39 47
        E 192 99 2f 4b
        E 52 99 2f 00
        E 12 99 2d 4b
        E 52 99 2d 00
        E 25 99 39 00
        E 51 99 37 38
        E 0 99 2f 4b
        E 52 99 2f 00
        E 12 99 2d 4b
        E 52 99 2d 00
        E 238 99 37 00
        E 30 99 39 47
        E 234 99 39 00
        E 22 99 39 47
        E 128 99 2d 4b
        E 52 99 2d 00
        E 113 99 39 00
        E 219 99 39 47
        E 177 99 39 00
        E 15 99 39 47
        E 355 99 39 00
        E 29 99 39 47
        E 192 99 2f 4b
        E 70 99 2f 00
        E 93 99 39 00
        E 29 99 2f 4b
        E 70 99 2f 00
        E 506 99 39 5f
        E 297 99 39 00
        E 1047 99 39 5b
        E 192 99 2f 4b
        E 52 99 2f 00
        E 12 99 2d 4b
        E 52 99 2d 00
        E 61 99 39 00
        E 207 99 37 40
        E 358 99 37 00
        E 26 99 2d 4b
        E 80 99 2d 00
        E 16 99 2d 4b
        E 80 99 2d 00
        E 400 99 39 5b
        E 750 99 39 00
        E 13074 99 39 47
        E 384 99 2f 4b
        E 90 99 2f 00
        E 38 99 2d 4b
        E 90 99 2d 00
        E 38 99 39 00
        E 128 99 39 47
        E 384 99 2d 4b
        E 90 99 2d 00
        E 166 99 39 00
        E 128 99 39 47
        E 640 99 39 00
        E 3968 b9 67 00
        E 1536 99 39 47
        E 1584 99 39 00
        E 1104 b0 7b 00
        GUID {E972541C-3003-449C-8643-AC036D401440}
        IGNTEMPO 0 120 4 4
        SRCCOLOR 12
        VELLANE 132 77 128
        CFGEDITVIEW 89961.845046 48.985629 0 12 0 -1 0 0 0 0.5
        KEYSNAP 0
        TRACKSEL 0
        EVTFILTER 0 -1 -1 -1 -1 0 0 0 0 -1 -1 -1 -1 0 -1 0 -1 -1
        CFGEDIT 1 1 0 1 0 1 1 1 1 1 1 0.125 663 216 1816 897 0 2 2 2 0 0 0 0 0 0.5 0 0 1 64
      >
    >
  >
  <TRACK {5B8C159A-DBF6-4BA1-9680-8CCB93B4D8CA}
    NAME "9 Kit 2"
    PEAKCOL 16576
    BEAT -1
    AUTOMODE 0
    VOLPAN 1 0 -1 -1 1
    MUTESOLO 0 0 0
    IPHASE 0
    ISBUS 2 -1
    BUSCOMP 0 0
    SHOWINMIX 1 0.6667 0.5 1 0.5 0 0 0
    FREEMODE 0
    SEL 0
    REC 0 0 0 0 0 0 0
    VU 2
    TRACKHEIGHT 0 0
    INQ 0 0 0 0.5 100 0 0 100
    NCHAN 2
    FX 1
    TRACKID {5B8C159A-DBF6-4BA1-9680-8CCB93B4D8CA}
    PERF 0
    MIDIOUT -1
    MAINSEND 1 0
    <FXCHAIN
      WNDRECT 167 253 958 586
      SHOW 0
      LASTSEL 0
      DOCKED 0
      BYPASS 0 0 0
      <VST "VSTi: sforzando (Plogue Art et Technologie, Inc)" "sforzando VST_x86.dll" 0 "" 1347176273
        UUdMUO5e7f4AAAAAAgAAAAEAAAAAAAAAAgAAAAAAAADPAQAAAQAAAAAAEAA=
        Q0VHUO8EAAB4nI1UTW+cMBC9V+p/sHxPsBOyyUrQaNOsKg6rViI9owGcrVV/pGCj7b/vGJYFRY2AC543z+OZB8/J40kr0ommldaklF8zSh6/fP6U7BoJOXRilttyTslb
        Y2tfuewZAcZjilyCT5IL56Q5tuSPByXdX0xT0rpGgEY4pbc3lGg45T2yU8pWh6eU3nGED9lz9t27g61Fvwu8sxocHpor61LK5pASnVAplQZrey2Mo0TJTgybkdlWKb2P
        wxsUIMLJFRGhp+u2Umf4K24TTUo3yD8qW4J68abvEoHoMhEeTmTdgwY0lq9VG+1ProHKiTq33tQlmN8FY0XIPA3r4YkY2xZZaLJgW0oCL8NSMaboJCmuq19gTJjoKohr
        FQq3wfbd1NBbWTRgjuJMweNN2yf0bGkrhx9rUgCZ2rseOM/Tz3QAacaZOlB+EDz6L4VfKOwjys0y5XaZEi9T7pYpm2XK/TLlYZmyXaZwtoKzQl++QmC+QmG+QmL+scY/
        oAH9TsHZb5NEwSpjsH99FZWbm2e05GCinS6lMJWYTNHfI7N75iHezIp/+5mNhdB3aPVsuhX6eH+JW6FEsOYLlINZQpEkGq8yDP4BS05Ozw==
        AAAQAAAA
      >
      FLOATPOS 0 0 0 0
      FXID {81212C7F-F352-4DDB-9A1E-73C61D7D1F21}
      WAK 0
    >
    <ITEM
      POSITION 0
      SNAPOFFS 0
      LENGTH 111.66488005357996
      LOOP 0
      ALLTAKES 0
      FADEIN 1 0 0 1 0 0
      FADEOUT 1 0 0 1 0 0
      MUTE 0
      SEL 0
      IGUID {ED0D69AC-B18F-4F0D-B4F0-92AAFE150721}
      IID 1
      NAME "Kirby 64 - The Crystal Shards (U) 00000017 0027D0DC.mid"
      VOLPAN 1 0 1 -1
      SOFFS 0.0010847121468 0.00260334530939
      PLAYRATE 1 1 0 -1 0 0.0025
      CHANMODE 0
      GUID {58183713-C179-43C5-AC25-F34B68E74128}
      <SOURCE MIDI
        HASDATA 1 384 QN
        POOLEDEVTS {4FBBFEE4-4DF2-4D28-8FA4-31683E293176}
        E 3036 c0 09 00
        E 9 b0 07 6e
        E 9 b0 19 14
        E 9 b0 16 14
        E 10 90 33 3d
        E 177 90 33 00
        E 15 90 33 35
        E 176 90 33 00
        E 16 90 33 37
        E 113 90 33 00
        E 15 90 33 3d
        E 177 90 33 00
        E 15 90 33 35
        E 50 90 33 00
        E 14 90 33 3d
        E 113 90 33 00
        E 15 90 33 30
        E 50 90 33 00
        E 14 90 33 39
        E 113 90 33 00
        E 15 90 33 44
        E 177 90 33 00
        E 15 90 33 2e
        E 49 90 33 00
        E 15 90 33 3d
        E 113 90 33 00
        E 15 90 33 2e
        E 49 90 33 00
        E 15 b0 07 6e
        E 0 b0 19 14
        E 0 90 33 47
        E 177 90 33 00
        E 15 90 33 47
        E 305 90 33 00
        E 15 90 33 47
        E 177 90 33 00
        E 15 90 33 47
        E 241 90 33 00
        E 15 90 33 47
        E 305 90 33 00
        E 15 90 33 3d
        E 49 90 33 00
        E 15 90 33 47
        E 113 90 33 00
        E 15 90 33 3d
        E 49 90 33 00
        E 15 b0 66 00
        E 0 b0 19 14
        E 0 90 33 47
        E 177 90 33 00
        E 15 90 33 47
        E 305 90 33 00
        E 15 90 33 47
        E 177 90 33 00
        E 15 90 33 47
        E 241 90 33 00
        E 15 90 33 47
        E 305 90 33 00
        E 15 90 33 3d
        E 49 90 33 00
        E 15 90 33 47
        E 113 90 33 00
        E 15 90 33 3d
        E 49 90 33 00
        E 15 90 33 47
        E 177 90 33 00
        E 15 90 33 47
        E 305 90 33 00
        E 15 90 33 47
        E 177 90 33 00
        E 15 90 33 47
        E 241 90 33 00
        E 15 90 33 47
        E 305 90 33 00
        E 15 90 33 3d
        E 49 90 33 00
        E 15 90 33 47
        E 113 90 33 00
        E 15 90 33 3d
        E 49 90 33 00
        E 15 b0 19 14
        E 0 90 33 47
        E 177 90 33 00
        E 15 90 33 47
        E 305 90 33 00
        E 15 90 33 47
        E 177 90 33 00
        E 15 90 33 47
        E 241 90 33 00
        E 15 90 33 47
        E 305 90 33 00
        E 15 90 33 3d
        E 49 90 33 00
        E 15 90 33 47
        E 113 90 33 00
        E 15 90 33 3d
        E 49 90 33 00
        E 15 b0 19 14
        E 0 90 33 47
        E 177 90 33 00
        E 15 90 33 47
        E 305 90 33 00
        E 15 90 33 47
        E 177 90 33 00
        E 15 90 33 47
        E 241 90 33 00
        E 15 90 33 47
        E 305 90 33 00
        E 15 90 33 3d
        E 49 90 33 00
        E 15 90 33 47
        E 113 90 33 00
        E 15 90 33 3d
        E 49 90 33 00
        E 15 b0 19 14
        E 0 90 33 47
        E 177 90 33 00
        E 15 90 33 47
        E 305 90 33 00
        E 15 90 33 47
        E 177 90 33 00
        E 15 90 33 47
        E 241 90 33 00
        E 15 90 33 47
        E 305 90 33 00
        E 15 90 33 3d
        E 49 90 33 00
        E 15 90 33 47
        E 113 90 33 00
        E 15 90 33 3d
        E 49 90 33 00
        E 15 90 33 47
        E 177 90 33 00
        E 15 90 33 47
        E 305 90 33 00
        E 15 90 33 47
        E 177 90 33 00
        E 15 90 33 47
        E 241 90 33 00
        E 15 90 33 47
        E 305 90 33 00
        E 15 90 33 3d
        E 49 90 33 00
        E 15 90 33 47
        E 113 90 33 00
        E 15 90 33 3d
        E 49 90 33 00
        E 15 b0 19 14
        E 0 90 33 47
        E 177 90 33 00
        E 15 90 33 47
        E 305 90 33 00
        E 15 90 33 47
        E 177 90 33 00
        E 15 90 33 47
        E 241 90 33 00
        E 15 90 33 47
        E 305 90 33 00
        E 15 90 33 3d
        E 49 90 33 00
        E 15 90 33 47
        E 113 90 33 00
        E 15 90 33 3d
        E 49 90 33 00
        E 15 90 33 47
        E 177 90 33 00
        E 15 90 33 47
        E 305 90 33 00
        E 15 90 33 47
        E 177 90 33 00
        E 15 90 33 47
        E 241 90 33 00
        E 15 90 33 47
        E 305 90 33 00
        E 15 90 33 3d
        E 49 90 33 00
        E 15 90 33 47
        E 113 90 33 00
        E 15 90 33 3d
        E 49 90 33 00
        E 15 b0 19 14
        E 0 90 33 47
        E 177 90 33 00
        E 15 90 33 47
        E 305 90 33 00
        E 15 90 33 47
        E 177 90 33 00
        E 15 90 33 47
        E 241 90 33 00
        E 15 90 33 47
        E 305 90 33 00
        E 15 90 33 3d
        E 49 90 33 00
        E 15 90 33 47
        E 113 90 33 00
        E 15 90 33 3d
        E 49 90 33 00
        E 15 b0 19 14
        E 0 90 33 47
        E 177 90 33 00
        E 15 90 33 47
        E 305 90 33 00
        E 15 90 33 47
        E 177 90 33 00
        E 15 90 33 47
        E 241 90 33 00
        E 15 90 33 47
        E 305 90 33 00
        E 15 90 33 3d
        E 49 90 33 00
        E 15 90 33 47
        E 113 90 33 00
        E 15 90 33 3d
        E 49 90 33 00
        E 15 b0 19 14
        E 0 90 33 47
        E 177 90 33 00
        E 15 90 33 47
        E 305 90 33 00
        E 15 90 33 47
        E 177 90 33 00
        E 15 90 33 47
        E 241 90 33 00
        E 15 90 33 47
        E 305 90 33 00
        E 15 90 33 3d
        E 49 90 33 00
        E 15 90 33 47
        E 113 90 33 00
        E 15 90 33 3d
        E 49 90 33 00
        E 15 90 33 47
        E 177 90 33 00
        E 15 90 33 47
        E 305 90 33 00
        E 15 90 33 47
        E 177 90 33 00
        E 15 90 33 47
        E 241 90 33 00
        E 15 90 33 47
        E 305 90 33 00
        E 15 90 33 3d
        E 49 90 33 00
        E 15 90 33 47
        E 113 90 33 00
        E 15 90 33 3d
        E 49 90 33 00
        E 15 b0 19 14
        E 0 90 33 47
        E 177 90 33 00
        E 15 90 33 47
        E 305 90 33 00
        E 15 90 33 47
        E 177 90 33 00
        E 15 90 33 47
        E 241 90 33 00
        E 15 90 33 47
        E 305 90 33 00
        E 15 90 33 3d
        E 49 90 33 00
        E 15 90 33 47
        E 113 90 33 00
        E 15 90 33 3d
        E 49 90 33 00
        E 15 90 33 47
        E 177 90 33 00
        E 15 90 33 47
        E 305 90 33 00
        E 15 90 33 47
        E 177 90 33 00
        E 15 90 33 47
        E 241 90 33 00
        E 15 90 33 47
        E 305 90 33 00
        E 15 90 33 3d
        E 49 90 33 00
        E 15 90 33 47
        E 113 90 33 00
        E 15 90 33 3d
        E 49 90 33 00
        E 15 90 33 47
        E 640 90 33 00
        E 128 90 33 47
        E 640 90 33 00
        E 320 90 33 47
        E 305 90 33 00
        E 15 90 33 47
        E 177 90 33 00
        E 15 90 33 47
        E 64 90 3d 53
        E 49 90 3d 00
        E 15 90 3d 3c
        E 49 90 3d 00
        E 15 90 3d 3c
        E 49 90 33 00
        E 0 90 3d 00
        E 15 90 3d 55
        E 0 90 33 47
        E 49 90 3d 00
        E 79 90 3d 3c
        E 49 90 3d 00
        E 15 90 3c 48
        E 49 90 3c 00
        E 64 90 33 00
        E 15 90 3c 4a
        E 0 90 33 3d
        E 49 90 3c 00
        E 0 90 33 00
        E 15 90 33 47
        E 113 90 33 00
        E 591 90 33 47
        E 177 90 33 00
        E 15 90 33 47
        E 64 90 3d 53
        E 49 90 3d 00
        E 15 90 3d 3c
        E 49 90 3d 00
        E 15 90 3d 3c
        E 49 90 33 00
        E 0 90 3d 00
        E 15 90 33 47
        E 0 90 3d 55
        E 49 90 3d 00
        E 79 90 3d 3c
        E 49 90 3d 00
        E 15 90 3c 48
        E 49 90 3c 00
        E 64 90 33 00
        E 15 90 3c 4a
        E 0 90 33 3d
        E 49 90 3c 00
        E 0 90 33 00
        E 207 90 33 47
        E 64 90 3d 3c
        E 49 90 3d 00
        E 15 90 3d 3c
        E 49 90 33 00
        E 0 90 3d 00
        E 15 90 3c 55
        E 0 90 33 47
        E 49 90 3c 00
        E 79 90 3d 3c
        E 49 90 3d 00
        E 15 90 3c 52
        E 49 90 3c 00
        E 64 90 33 00
        E 15 90 3d 43
        E 0 90 33 47
        E 49 90 3d 00
        E 15 90 3d 4f
        E 49 90 3d 00
        E 15 90 3d 3b
        E 49 90 33 00
        E 0 90 3d 00
        E 15 90 3d 3e
        E 0 90 33 47
        E 49 90 3d 00
        E 15 90 3c 4d
        E 49 90 3c 00
        E 79 90 3d 3e
        E 49 90 33 00
        E 0 90 3d 00
        E 15 90 3c 4f
        E 0 90 33 47
        E 49 90 3c 00
        E 79 90 3d 3d
        E 49 90 3d 00
        E 15 90 3c 4f
        E 49 90 3c 00
        E 64 90 33 00
        E 15 90 33 3d
        E 49 90 33 00
        E 15 90 33 47
        E 113 90 33 00
        E 15 90 33 3d
        E 49 90 33 00
        E 207 90 33 47
        E 192 90 2b 50
        E 113 90 33 00
        E 5 90 2b 00
        E 266 90 33 47
        E 175 90 33 00
        E 17 90 33 47
        E 0 90 2b 50
        E 118 90 2b 00
        E 56 90 33 00
        E 146 90 33 3d
        E 49 90 33 00
        E 15 90 33 47
        E 113 90 33 00
        E 15 90 33 3d
        E 49 90 33 00
        E 15 90 2b 50
        E 0 90 33 47
        E 118 90 2b 00
        E 59 90 33 00
        E 207 90 33 47
        E 177 90 33 00
        E 143 90 33 47
        E 241 90 33 00
        E 15 90 33 47
        E 192 90 2b 50
        E 113 90 33 00
        E 5 90 2b 00
        E 10 90 2b 50
        E 0 90 33 3d
        E 49 90 2b 00
        E 0 90 33 00
        E 399 90 33 47
        E 192 90 2b 50
        E 113 90 33 00
        E 5 90 2b 00
        E 10 90 2b 46
        E 0 90 33 47
        E 49 90 2b 00
        E 15 90 2b 46
        E 113 90 33 00
        E 5 90 2b 00
        E 10 90 2b 46
        E 0 90 33 47
        E 49 90 2b 00
        E 15 90 2b 46
        E 118 90 2b 00
        E 10 90 2b 46
        E 49 90 33 00
        E 0 90 2b 00
        E 15 90 2b 46
        E 0 90 33 47
        E 118 90 2b 00
        E 10 90 2b 46
        E 49 90 2b 00
        E 15 90 2b 46
        E 113 90 33 00
        E 5 90 2b 00
        E 10 90 2b 46
        E 0 90 33 3d
        E 49 90 2b 00
        E 0 90 33 00
        E 207 90 2b 46
        E 0 90 33 47
        E 118 90 2b 00
        E 10 90 2b 46
        E 49 90 33 00
        E 0 90 2b 00
        E 15 90 33 47
        E 0 90 2b 46
        E 118 90 2b 00
        E 10 90 2b 46
        E 49 90 2b 00
        E 15 90 2b 46
        E 113 90 33 00
        E 5 90 2b 00
        E 10 90 2b 46
        E 0 90 33 47
        E 49 90 2b 00
        E 15 90 2b 46
        E 113 90 33 00
        E 5 90 2b 00
        E 10 90 2b 46
        E 0 90 33 47
        E 49 90 2b 00
        E 15 90 2b 46
        E 118 90 2b 00
        E 10 90 2b 46
        E 49 90 33 00
        E 0 90 2b 00
        E 15 90 33 47
        E 192 90 2b 50
        E 113 90 33 00
        E 5 90 2b 00
        E 10 90 33 3d
        E 49 90 33 00
        E 15 90 2b 50
        E 49 90 2b 00
        E 335 90 2b 50
        E 0 90 33 47
        E 118 90 2b 00
        E 10 90 2b 46
        E 49 90 2b 00
        E 15 90 2b 46
        E 113 90 33 00
        E 5 90 2b 00
        E 10 90 33 47
        E 0 90 2b 46
        E 49 90 2b 00
        E 15 90 2b 46
        E 113 90 33 00
        E 5 90 2b 00
        E 10 90 2b 46
        E 49 90 2b 00
        E 207 90 2b 46
        E 0 90 33 47
        E 118 90 2b 00
        E 10 90 2b 46
        E 49 90 2b 00
        E 15 90 2b 46
        E 113 90 33 00
        E 5 90 2b 00
        E 10 90 2b 46
        E 0 90 33 3d
        E 49 90 2b 00
        E 0 90 33 00
        E 1743 b0 19 14
        E 0 90 33 47
        E 177 90 33 00
        E 15 90 33 47
        E 305 90 33 00
        E 15 90 33 47
        E 177 90 33 00
        E 15 90 33 47
        E 241 90 33 00
        E 15 90 33 47
        E 305 90 33 00
        E 15 90 33 3d
        E 49 90 33 00
        E 15 90 33 47
        E 113 90 33 00
        E 15 90 33 3d
        E 49 90 33 00
        E 15 b0 19 14
        E 0 90 33 47
        E 177 90 33 00
        E 15 90 33 47
        E 305 90 33 00
        E 15 90 33 47
        E 177 90 33 00
        E 15 90 33 47
        E 241 90 33 00
        E 15 90 33 47
        E 305 90 33 00
        E 15 90 33 3d
        E 49 90 33 00
        E 15 90 33 47
        E 113 90 33 00
        E 15 90 33 3d
        E 49 90 33 00
        E 15 b0 19 14
        E 0 90 33 47
        E 177 90 33 00
        E 15 90 33 47
        E 305 90 33 00
        E 15 90 33 47
        E 177 90 33 00
        E 15 90 33 47
        E 241 90 33 00
        E 15 90 33 47
        E 305 90 33 00
        E 15 90 33 3d
        E 49 90 33 00
        E 15 90 33 47
        E 113 90 33 00
        E 15 90 33 3d
        E 49 90 33 00
        E 15 90 33 47
        E 177 90 33 00
        E 15 90 33 47
        E 305 90 33 00
        E 15 90 33 47
        E 177 90 33 00
        E 15 90 33 47
        E 241 90 33 00
        E 15 90 33 47
        E 305 90 33 00
        E 15 90 33 3d
        E 49 90 33 00
        E 15 90 33 47
        E 113 90 33 00
        E 15 90 33 3d
        E 49 90 33 00
        E 15 b0 19 14
        E 0 90 33 47
        E 177 90 33 00
        E 15 90 33 47
        E 305 90 33 00
        E 15 90 33 47
        E 177 90 33 00
        E 15 90 33 47
        E 241 90 33 00
        E 15 90 33 47
        E 305 90 33 00
        E 15 90 33 3d
        E 49 90 33 00
        E 15 90 33 47
        E 113 90 33 00
        E 15 90 33 3d
        E 49 90 33 00
        E 15 b0 19 14
        E 0 90 33 47
        E 177 90 33 00
        E 15 90 33 47
        E 305 90 33 00
        E 15 90 33 47
        E 177 90 33 00
        E 15 90 33 47
        E 241 90 33 00
        E 15 90 33 47
        E 305 90 33 00
        E 15 90 33 3d
        E 49 90 33 00
        E 15 90 33 47
        E 113 90 33 00
        E 15 90 33 3d
        E 49 90 33 00
        E 15 b0 19 14
        E 0 90 33 47
        E 177 90 33 00
        E 15 90 33 47
        E 305 90 33 00
        E 15 90 33 47
        E 177 90 33 00
        E 15 90 33 47
        E 241 90 33 00
        E 15 90 33 47
        E 305 90 33 00
        E 15 90 33 3d
        E 49 90 33 00
        E 15 90 33 47
        E 113 90 33 00
        E 15 90 33 3d
        E 49 90 33 00
        E 15 90 33 47
        E 177 90 33 00
        E 15 90 33 47
        E 305 90 33 00
        E 15 90 33 47
        E 177 90 33 00
        E 15 90 33 47
        E 241 90 33 00
        E 15 90 33 47
        E 305 90 33 00
        E 15 90 33 3d
        E 49 90 33 00
        E 15 90 33 47
        E 113 90 33 00
        E 15 90 33 3d
        E 49 90 33 00
        E 15 b0 19 14
        E 0 90 33 47
        E 177 90 33 00
        E 15 90 33 47
        E 305 90 33 00
        E 15 90 33 47
        E 177 90 33 00
        E 15 90 33 47
        E 241 90 33 00
        E 15 90 33 47
        E 305 90 33 00
        E 15 90 33 3d
        E 49 90 33 00
        E 15 90 33 47
        E 113 90 33 00
        E 15 90 33 3d
        E 49 90 33 00
        E 15 b0 19 14
        E 0 90 33 47
        E 177 90 33 00
        E 15 90 33 47
        E 305 90 33 00
        E 15 90 33 47
        E 177 90 33 00
        E 15 90 33 47
        E 241 90 33 00
        E 15 90 33 47
        E 305 90 33 00
        E 15 90 33 3d
        E 49 90 33 00
        E 15 90 33 47
        E 113 90 33 00
        E 15 90 33 3d
        E 49 90 33 00
        E 15 b0 19 14
        E 0 90 33 47
        E 177 90 33 00
        E 15 90 33 47
        E 305 90 33 00
        E 15 90 33 47
        E 177 90 33 00
        E 15 90 33 47
        E 241 90 33 00
        E 15 90 33 47
        E 305 90 33 00
        E 15 90 33 3d
        E 49 90 33 00
        E 15 90 33 47
        E 113 90 33 00
        E 15 90 33 3d
        E 49 90 33 00
        E 15 90 33 47
        E 177 90 33 00
        E 15 90 33 47
        E 305 90 33 00
        E 15 90 33 47
        E 177 90 33 00
        E 15 90 33 47
        E 241 90 33 00
        E 15 90 33 47
        E 305 90 33 00
        E 15 90 33 3d
        E 49 90 33 00
        E 15 90 33 47
        E 113 90 33 00
        E 15 90 33 3d
        E 49 90 33 00
        E 15 b0 07 75
        E 768 90 33 47
        E 177 90 33 00
        E 15 90 33 42
        E 177 90 33 00
        E 207 90 33 47
        E 177 90 33 00
        E 207 90 33 47
        E 64 90 2b 4b
        E 64 90 29 4b
        E 6 90 2b 00
        E 43 90 33 00
        E 21 90 29 00
        E 58 90 2b 4b
        E 64 90 29 4b
        E 6 90 2b 00
        E 58 90 33 47
        E 6 90 29 00
        E 58 90 2b 4b
        E 64 90 29 4b
        E 6 90 2b 00
        E 43 90 33 00
        E 21 90 29 00
        E 58 90 2b 4b
        E 64 90 29 4b
        E 6 90 2b 00
        E 58 90 33 47
        E 6 90 29 00
        E 58 90 2b 4b
        E 64 90 29 4b
        E 6 90 2b 00
        E 43 90 33 00
        E 21 90 29 00
        E 186 90 29 58
        E 0 90 33 47
        E 60 90 29 00
        E 4 90 29 4b
        E 60 90 29 00
        E 4 90 29 4b
        E 49 90 33 00
        E 21 90 29 00
        E 314 90 2b 4b
        E 64 90 29 4b
        E 6 90 2b 00
        E 147 90 29 00
        E 359 90 2b 4b
        E 64 90 29 4b
        E 0 90 33 47
        E 6 90 2b 00
        E 136 90 29 00
        E 35 90 33 00
        E 15 90 33 47
        E 177 90 33 00
        E 335 90 2b 4b
        E 64 90 29 4b
        E 0 90 33 47
        E 6 90 2b 00
        E 136 90 29 00
        E 35 90 33 00
        E 335 90 2b 4b
        E 64 90 29 4b
        E 6 90 2b 00
        E 119 90 29 00
        E 455 90 29 4b
        E 134 90 29 00
        E 54 b0 07 75
        E 192 90 29 53
        E 0 90 33 47
        E 61 90 29 00
        E 3 90 29 47
        E 61 90 29 00
        E 3 90 29 47
        E 49 90 33 00
        E 21 90 29 00
        E 186 90 29 51
        E 0 90 33 47
        E 61 90 29 00
        E 3 90 29 4b
        E 61 90 29 00
        E 3 90 29 4b
        E 49 90 33 00
        E 21 90 29 00
        E 186 90 33 47
        E 64 90 2b 4b
        E 64 90 29 4b
        E 6 90 2b 00
        E 43 90 33 00
        E 21 90 29 00
        E 58 90 2b 4b
        E 64 90 29 4b
        E 6 90 2b 00
        E 58 90 33 47
        E 6 90 29 00
        E 171 90 33 00
        E 15 90 29 4b
        E 113 90 29 00
        E 463 90 33 47
        E 0 90 29 4b
        E 113 90 29 00
        E 15 90 29 4b
        E 49 90 33 00
        E 2 90 29 00
        E 205 90 33 47
        E 0 90 29 4b
        E 113 90 29 00
        E 64 90 33 00
        E 15 90 29 57
        E 113 90 29 00
        E 15 90 29 49
        E 50 90 29 00
        E 14 90 33 47
        E 177 90 33 00
        E 335 90 2b 4b
        E 52 90 2b 00
        E 12 90 29 4b
        E 153 90 29 00
        E 359 90 2b 4b
        E 52 90 2b 00
        E 12 90 29 4b
        E 0 90 33 47
        E 142 90 29 00
        E 35 90 33 00
        E 15 90 33 47
        E 177 90 33 00
        E 335 90 2b 4b
        E 52 90 2b 00
        E 332 90 29 4b
        E 52 90 29 00
        E 140 90 2b 4b
        E 52 90 2b 00
        E 652 90 2b 4b
        E 52 90 2b 00
        E 12 90 29 4b
        E 52 90 29 00
        E 12 90 29 54
        E 60 90 29 00
        E 4 90 29 47
        E 60 90 29 00
        E 4 90 29 47
        E 70 90 29 00
        E 378 90 29 51
        E 60 90 29 00
        E 4 90 29 4b
        E 60 90 29 00
        E 4 90 29 4b
        E 70 90 29 00
        E 250 90 2b 4b
        E 64 90 29 4b
        E 6 90 2b 00
        E 64 90 29 00
        E 58 90 2b 4b
        E 64 90 29 4b
        E 6 90 2b 00
        E 58 90 33 47
        E 6 90 29 00
        E 171 90 33 00
        E 15 90 29 4b
        E 113 90 29 00
        E 463 90 29 4b
        E 0 90 33 47
        E 113 90 29 00
        E 15 90 29 4b
        E 49 90 33 00
        E 2 90 29 00
        E 205 90 33 47
        E 0 90 29 4b
        E 113 90 29 00
        E 64 90 33 00
        E 15 90 29 57
        E 113 90 29 00
        E 15 90 29 49
        E 50 90 29 00
        E 14 90 33 47
        E 177 90 33 00
        E 335 90 2b 4b
        E 52 90 2b 00
        E 12 90 29 4b
        E 153 90 29 00
        E 423 90 33 47
        E 177 90 33 00
        E 15 90 33 47
        E 0 90 2b 4b
        E 80 90 2b 00
        E 16 90 2b 4b
        E 80 90 2b 00
        E 1 90 33 00
        E 15 90 29 4b
        E 80 90 29 00
        E 16 90 29 4b
        E 80 90 29 00
        E 1552 b0 07 6e
        E 0 b0 19 14
        E 0 90 37 3b
        E 364 90 37 00
        E 20 90 33 3c
        E 111 90 33 00
        E 17 90 33 47
        E 177 90 33 00
        E 15 90 33 47
        E 241 90 33 00
        E 15 90 33 47
        E 305 90 33 00
        E 15 90 33 3d
        E 49 90 33 00
        E 15 90 33 47
        E 113 90 33 00
        E 15 90 33 3d
        E 49 90 33 00
        E 15 90 33 47
        E 177 90 33 00
        E 15 90 33 47
        E 305 90 33 00
        E 15 90 33 47
        E 177 90 33 00
        E 15 90 33 47
        E 241 90 33 00
        E 15 90 33 47
        E 305 90 33 00
        E 15 90 33 3d
        E 49 90 33 00
        E 15 90 33 47
        E 113 90 33 00
        E 15 90 33 3d
        E 49 90 33 00
        E 15 b0 19 14
        E 0 90 33 47
        E 177 90 33 00
        E 15 90 33 47
        E 305 90 33 00
        E 15 90 33 47
        E 177 90 33 00
        E 15 90 33 47
        E 241 90 33 00
        E 15 90 33 47
        E 305 90 33 00
        E 15 90 33 3d
        E 49 90 33 00
        E 15 90 33 47
        E 113 90 33 00
        E 15 90 33 3d
        E 49 90 33 00
        E 15 90 33 47
        E 177 90 33 00
        E 15 90 33 47
        E 305 90 33 00
        E 15 90 33 47
        E 177 90 33 00
        E 15 90 33 47
        E 241 90 33 00
        E 15 90 33 47
        E 305 90 33 00
        E 15 90 33 3d
        E 49 90 33 00
        E 15 90 33 47
        E 113 90 33 00
        E 15 90 33 3d
        E 49 90 33 00
        E 15 b0 19 14
        E 0 90 33 47
        E 177 90 33 00
        E 15 90 33 47
        E 305 90 33 00
        E 15 90 33 47
        E 177 90 33 00
        E 15 90 33 47
        E 241 90 33 00
        E 15 90 33 47
        E 305 90 33 00
        E 15 90 33 3d
        E 49 90 33 00
        E 15 90 33 47
        E 113 90 33 00
        E 15 90 33 3d
        E 49 90 33 00
        E 15 90 33 47
        E 177 90 33 00
        E 15 90 33 47
        E 305 90 33 00
        E 15 90 33 47
        E 177 90 33 00
        E 15 90 33 47
        E 241 90 33 00
        E 15 90 33 47
        E 305 90 33 00
        E 15 90 33 3d
        E 49 90 33 00
        E 15 90 33 47
        E 113 90 33 00
        E 15 90 33 3d
        E 49 90 33 00
        E 15 b0 19 14
        E 0 90 33 47
        E 177 90 33 00
        E 15 90 33 47
        E 305 90 33 00
        E 15 90 33 47
        E 177 90 33 00
        E 15 90 33 47
        E 241 90 33 00
        E 15 90 33 47
        E 305 90 33 00
        E 15 90 33 3d
        E 49 90 33 00
        E 15 90 33 47
        E 113 90 33 00
        E 15 90 33 3d
        E 49 90 33 00
        E 15 90 33 47
        E 177 90 33 00
        E 15 90 33 47
        E 305 90 33 00
        E 15 90 33 47
        E 177 90 33 00
        E 15 90 33 47
        E 241 90 33 00
        E 15 90 33 47
        E 305 90 33 00
        E 15 90 33 3d
        E 49 90 33 00
        E 15 90 33 47
        E 113 90 33 00
        E 15 90 33 3d
        E 49 90 33 00
        E 655 90 2b 4b
        E 90 90 2b 00
        E 550 90 2b 4b
        E 90 90 2b 00
        E 38 90 29 4b
        E 90 90 29 00
        E 806 90 33 41
        E 177 90 33 00
        E 15 90 33 41
        E 177 90 33 00
        E 15 90 33 41
        E 177 90 33 00
        E 15 90 33 41
        E 177 90 33 00
        E 15 c0 09 00
        E 0 b0 19 14
        E 0 b0 07 6e
        E 0 90 33 3d
        E 177 90 33 00
        E 15 90 33 35
        E 176 90 33 00
        E 16 90 33 37
        E 113 90 33 00
        E 15 90 33 3d
        E 177 90 33 00
        E 15 90 33 35
        E 50 90 33 00
        E 14 90 33 3d
        E 113 90 33 00
        E 15 90 33 30
        E 50 90 33 00
        E 14 90 33 39
        E 113 90 33 00
        E 15 90 33 44
        E 177 90 33 00
        E 15 90 33 2e
        E 49 90 33 00
        E 15 90 33 3d
        E 113 90 33 00
        E 15 90 33 2e
        E 49 90 33 00
        E 15 b0 19 14
        E 0 90 33 47
        E 177 90 33 00
        E 15 90 33 47
        E 305 90 33 00
        E 15 90 33 47
        E 177 90 33 00
        E 15 90 33 47
        E 241 90 33 00
        E 15 90 33 47
        E 305 90 33 00
        E 15 90 33 3d
        E 49 90 33 00
        E 15 90 33 47
        E 113 90 33 00
        E 15 90 33 3d
        E 49 90 33 00
        E 15 b0 67 00
        E 0 b0 66 00
        E 0 b0 19 14
        E 0 90 33 47
        E 177 90 33 00
        E 15 90 33 47
        E 305 90 33 00
        E 15 90 33 47
        E 177 90 33 00
        E 15 90 33 47
        E 241 90 33 00
        E 15 90 33 47
        E 305 90 33 00
        E 3343 b0 7b 00
        GUID {C4C25E1B-1AB2-4DAE-A470-5FFFD34B8E5B}
        IGNTEMPO 0 120 4 4
        SRCCOLOR 3
        VELLANE 131 77 128
        CFGEDITVIEW 97653.302454 205.214018 0 12 0 -1 0 0 0 0.5
        KEYSNAP 0
        TRACKSEL 0
        EVTFILTER 0 -1 -1 -1 -1 0 0 0 0 -1 -1 -1 -1 0 -1 0 -1 -1
        CFGEDIT 1 1 0 1 0 1 1 1 1 1 1 0.125 639 192 1836 917 0 2 2 2 0 0 0 0 0 0.5 0 0 1 64
      >
    >
  >
  <TRACK {A73FF360-6006-44BB-BF48-A73ECDC27560}
    NAME BASS
    PEAKCOL 16576
    BEAT -1
    AUTOMODE 0
    VOLPAN 1 0 -1 -1 1
    MUTESOLO 0 0 0
    IPHASE 0
    ISBUS 1 1
    BUSCOMP 0 0
    SHOWINMIX 1 0.6667 0.5 1 0.5 0 0 0
    FREEMODE 0
    SEL 0
    REC 0 0 0 0 0 0 0
    VU 2
    TRACKHEIGHT 0 0
    INQ 0 0 0 0.5 100 0 0 100
    NCHAN 2
    FX 1
    TRACKID {A73FF360-6006-44BB-BF48-A73ECDC27560}
    PERF 0
    MIDIOUT -1
    MAINSEND 1 0
  >
  <TRACK {57515740-29B1-4207-B29E-435AF8D20E9F}
    NAME "50 Bass"
    PEAKCOL 16576
    BEAT -1
    AUTOMODE 0
    VOLPAN 1 0 -1 -1 1
    MUTESOLO 0 0 0
    IPHASE 0
    ISBUS 2 -1
    BUSCOMP 0 0
    SHOWINMIX 1 0.6667 0.5 1 0.5 0 0 0
    FREEMODE 0
    SEL 0
    REC 0 0 0 0 0 0 0
    VU 2
    TRACKHEIGHT 0 0
    INQ 0 0 0 0.5 100 0 0 100
    NCHAN 2
    FX 1
    TRACKID {57515740-29B1-4207-B29E-435AF8D20E9F}
    PERF 0
    MIDIOUT -1
    MAINSEND 1 0
    <FXCHAIN
      WNDRECT 52 96 958 586
      SHOW 0
      LASTSEL 0
      DOCKED 0
      BYPASS 0 0 0
      <VST "VSTi: sforzando (Plogue Art et Technologie, Inc)" "sforzando VST_x86.dll" 0 "" 1347176273
        UUdMUO5e7f4AAAAAAgAAAAEAAAAAAAAAAgAAAAAAAADOAQAAAQAAAAAAEAA=
        Q0VHUO8EAAB4nI1UTW+cMBC9V+p/sHxPsBOWZCVItGlWFYdVK5Ge0WCcDao/UjBo++87hmVBUSPggufN83jmwXP8eNKKdLJuKmsSyq8ZJY8PX7/Eu7qCDDo5y205p+S9
        tmUrXPqMAOMhRS7BJ86kc5U5NuRPC6pyfzFNSeNqCRrhhN7eUKLhlPXITikrDk8J3XCED+lz+qN1B1vKfhe0zmpweGimrEsom0NKdlIltDJYu9XSOEpU1clhMzIbkdC7
        rX+DAkQ4uSLS93TdCHWGv+E2WSc0Qv5R2QLUS2v6LhEILhPh4aQqe9CAxvKlaoL9ydUgnCwz25qyAPM7Zyz3madhPTwB27A89U3mfnLPS7FUiCk6SYpr8QbG+ImuvLhW
        oXBRSImbGnov8hrMUZ4peLxp+oSeLa1w+LEmBSLEWtcD53n6mQ5QmXGmDlQ7CB78l8IvFPYZ5WaZcrtMCZcpm2VKtEy5W6bcL1O2yxTOVnBW6MtXCMxXKMxXSMw/1/gn
        1KA/KDj7beLAW2UM9q+vUri5eUZLDiba6aKSRsjJFP09Mrtn7sNoVvz7r3QshL5Dq6fTrdDH+0vcSCW9NV+gGMzii8TBeJVh8A9VaE7W
        AAAQAAAA
      >
      FLOATPOS 0 0 0 0
      FXID {4F7DC21A-3F22-43DC-83EE-E5FB7D9D9A21}
      WAK 0
    >
    <ITEM
      POSITION 0
      SNAPOFFS 0
      LENGTH 112.91486005357966
      LOOP 0
      ALLTAKES 0
      FADEIN 1 0 0 1 0 0
      FADEOUT 1 0 0 1 0 0
      MUTE 0
      SEL 0
      IGUID {A6369A40-0A4C-49C0-938E-86DFAD4EFDA1}
      IID 2
      NAME "Kirby 64 - The Crystal Shards (U) 00000017 0027D0DC.mid"
      VOLPAN 1 0 1 -1
      SOFFS 0.0010847121468 0.00260334530939
      PLAYRATE 1 1 0 -1 0 0.0025
      CHANMODE 0
      GUID {2158C00A-72F7-41B6-B4FA-1FE11F3A1821}
      <SOURCE MIDI
        HASDATA 1 384 QN
        POOLEDEVTS {FE4D830A-DBA6-4978-9BBA-82ACF8A1C767}
        E 3036 c1 32 00
        E 9 b1 07 7c
        E 9 b1 16 0a
        E 9 b1 19 7f
        E 10 91 2a 64
        E 113 91 2a 00
        E 15 91 2a 50
        E 35 91 2a 00
        E 29 91 29 64
        E 113 91 29 00
        E 15 91 29 50
        E 35 91 29 00
        E 29 91 25 64
        E 113 91 25 00
        E 15 91 25 50
        E 35 91 25 00
        E 29 91 21 64
        E 113 91 21 00
        E 15 91 21 50
        E 35 91 21 00
        E 29 91 1e 64
        E 113 91 1e 00
        E 15 91 1e 50
        E 35 91 1e 00
        E 29 91 25 64
        E 113 91 25 00
        E 15 91 25 50
        E 35 91 25 00
        E 29 91 2d 64
        E 113 91 2d 00
        E 15 91 2d 50
        E 35 91 2d 00
        E 29 91 21 64
        E 113 91 21 00
        E 15 91 21 50
        E 35 91 21 00
        E 29 91 2a 64
        E 113 91 2a 00
        E 15 91 2a 50
        E 35 91 2a 00
        E 29 91 29 64
        E 113 91 29 00
        E 15 91 29 50
        E 35 91 29 00
        E 29 91 25 64
        E 113 91 25 00
        E 15 91 25 50
        E 35 91 25 00
        E 29 91 21 64
        E 113 91 21 00
        E 15 91 21 50
        E 35 91 21 00
        E 29 91 1e 64
        E 113 91 1e 00
        E 15 91 1e 50
        E 35 91 1e 00
        E 29 91 25 64
        E 113 91 25 00
        E 15 91 25 50
        E 35 91 25 00
        E 29 91 2d 64
        E 113 91 2d 00
        E 15 91 2d 50
        E 35 91 2d 00
        E 29 91 21 64
        E 113 91 21 00
        E 15 91 21 50
        E 35 91 21 00
        E 29 b1 66 00
        E 0 91 29 64
        E 113 91 29 00
        E 15 91 29 50
        E 35 91 29 00
        E 29 91 2a 64
        E 113 91 2a 00
        E 15 91 2a 50
        E 35 91 2a 00
        E 29 91 1e 64
        E 113 91 1e 00
        E 15 91 1e 50
        E 35 91 1e 00
        E 29 91 25 64
        E 113 91 25 00
        E 15 91 25 50
        E 35 91 25 00
        E 29 91 21 64
        E 113 91 21 00
        E 15 91 21 50
        E 35 91 21 00
        E 29 91 29 64
        E 113 91 29 00
        E 15 91 29 50
        E 35 91 29 00
        E 29 91 2d 64
        E 113 91 2d 00
        E 15 91 2a 50
        E 35 91 2a 00
        E 29 91 21 64
        E 113 91 21 00
        E 15 91 21 50
        E 35 91 21 00
        E 29 91 1e 64
        E 113 91 1e 00
        E 15 91 1e 50
        E 35 91 1e 00
        E 29 91 29 64
        E 113 91 29 00
        E 15 91 29 50
        E 35 91 29 00
        E 29 91 25 64
        E 113 91 25 00
        E 15 91 25 50
        E 35 91 25 00
        E 29 91 21 64
        E 113 91 21 00
        E 15 91 21 50
        E 35 91 21 00
        E 29 91 19 64
        E 113 91 19 00
        E 15 91 19 50
        E 35 91 19 00
        E 29 91 29 64
        E 113 91 29 00
        E 15 91 29 50
        E 35 91 29 00
        E 29 91 2a 64
        E 113 91 2a 00
        E 15 91 2a 50
        E 35 91 2a 00
        E 29 91 21 64
        E 113 91 21 00
        E 15 91 21 50
        E 35 91 21 00
        E 29 b1 19 7f
        E 0 91 2a 64
        E 113 91 2a 00
        E 15 91 2a 50
        E 35 91 2a 00
        E 29 91 29 64
        E 113 91 29 00
        E 15 91 29 50
        E 35 91 29 00
        E 29 91 25 64
        E 113 91 25 00
        E 15 91 25 50
        E 35 91 25 00
        E 29 91 21 64
        E 113 91 21 00
        E 15 91 21 50
        E 35 91 21 00
        E 29 91 1e 64
        E 113 91 1e 00
        E 15 91 1e 50
        E 35 91 1e 00
        E 29 91 25 64
        E 113 91 25 00
        E 15 91 25 50
        E 35 91 25 00
        E 29 91 2d 64
        E 113 91 2d 00
        E 15 91 2d 50
        E 35 91 2d 00
        E 29 91 21 64
        E 113 91 21 00
        E 15 91 21 50
        E 35 91 21 00
        E 29 91 2a 64
        E 113 91 2a 00
        E 15 91 2a 50
        E 35 91 2a 00
        E 29 91 29 64
        E 113 91 29 00
        E 15 91 29 50
        E 35 91 29 00
        E 29 91 25 64
        E 113 91 25 00
        E 15 91 25 50
        E 35 91 25 00
        E 29 91 21 64
        E 113 91 21 00
        E 15 91 21 50
        E 35 91 21 00
        E 29 91 1e 64
        E 113 91 1e 00
        E 15 91 1e 50
        E 35 91 1e 00
        E 29 91 25 64
        E 113 91 25 00
        E 15 91 25 50
        E 35 91 25 00
        E 29 91 2d 64
        E 113 91 2d 00
        E 15 91 2d 50
        E 35 91 2d 00
        E 29 91 21 64
        E 113 91 21 00
        E 15 91 21 50
        E 35 91 21 00
        E 29 91 29 64
        E 113 91 29 00
        E 15 91 29 50
        E 35 91 29 00
        E 29 91 2a 64
        E 113 91 2a 00
        E 15 91 2a 50
        E 35 91 2a 00
        E 29 91 1e 64
        E 113 91 1e 00
        E 15 91 1e 50
        E 35 91 1e 00
        E 29 91 25 64
        E 113 91 25 00
        E 15 91 25 50
        E 35 91 25 00
        E 29 91 21 64
        E 113 91 21 00
        E 15 91 21 50
        E 35 91 21 00
        E 29 91 29 64
        E 113 91 29 00
        E 15 91 29 50
        E 35 91 29 00
        E 29 91 2d 64
        E 113 91 2d 00
        E 15 91 2a 50
        E 35 91 2a 00
        E 29 91 21 64
        E 113 91 21 00
        E 15 91 21 50
        E 35 91 21 00
        E 29 91 1e 64
        E 113 91 1e 00
        E 15 91 1e 50
        E 35 91 1e 00
        E 29 91 29 64
        E 113 91 29 00
        E 15 91 29 50
        E 35 91 29 00
        E 29 91 25 64
        E 113 91 25 00
        E 15 91 25 50
        E 35 91 25 00
        E 29 91 21 64
        E 113 91 21 00
        E 15 91 21 50
        E 35 91 21 00
        E 29 91 19 64
        E 113 91 19 00
        E 15 91 19 50
        E 35 91 19 00
        E 29 91 29 64
        E 113 91 29 00
        E 15 91 29 50
        E 35 91 29 00
        E 29 91 2a 64
        E 113 91 2a 00
        E 15 91 2a 50
        E 35 91 2a 00
        E 29 91 21 64
        E 113 91 21 00
        E 15 91 21 50
        E 35 91 21 00
        E 29 91 2a 64
        E 113 91 2a 00
        E 15 91 2a 50
        E 35 91 2a 00
        E 29 91 29 64
        E 113 91 29 00
        E 15 91 29 50
        E 35 91 29 00
        E 29 91 25 64
        E 113 91 25 00
        E 15 91 25 50
        E 35 91 25 00
        E 29 91 21 64
        E 113 91 21 00
        E 15 91 21 50
        E 35 91 21 00
        E 29 91 1e 64
        E 113 91 1e 00
        E 15 91 1e 50
        E 35 91 1e 00
        E 29 91 25 64
        E 113 91 25 00
        E 15 91 25 50
        E 35 91 25 00
        E 29 91 2d 64
        E 113 91 2d 00
        E 15 91 2d 50
        E 35 91 2d 00
        E 29 91 21 64
        E 113 91 21 00
        E 15 91 21 50
        E 35 91 21 00
        E 29 91 29 64
        E 113 91 29 00
        E 15 91 29 50
        E 35 91 29 00
        E 29 91 2a 64
        E 113 91 2a 00
        E 15 91 2a 50
        E 35 91 2a 00
        E 29 91 1e 64
        E 113 91 1e 00
        E 15 91 1e 50
        E 35 91 1e 00
        E 29 91 25 64
        E 113 91 25 00
        E 15 91 25 50
        E 35 91 25 00
        E 29 91 21 64
        E 113 91 21 00
        E 15 91 21 50
        E 35 91 21 00
        E 29 91 29 64
        E 113 91 29 00
        E 15 91 29 50
        E 35 91 29 00
        E 29 91 2d 64
        E 113 91 2d 00
        E 15 91 2a 50
        E 35 91 2a 00
        E 29 91 21 64
        E 113 91 21 00
        E 15 91 21 50
        E 35 91 21 00
        E 29 b1 19 7f
        E 0 91 2a 64
        E 113 91 2a 00
        E 15 91 2a 50
        E 35 91 2a 00
        E 29 91 29 64
        E 113 91 29 00
        E 15 91 29 50
        E 35 91 29 00
        E 29 91 25 64
        E 113 91 25 00
        E 15 91 25 50
        E 35 91 25 00
        E 29 91 21 64
        E 113 91 21 00
        E 15 91 21 50
        E 35 91 21 00
        E 29 91 1e 64
        E 113 91 1e 00
        E 15 91 1e 50
        E 35 91 1e 00
        E 29 91 25 64
        E 113 91 25 00
        E 15 91 25 50
        E 35 91 25 00
        E 29 91 2d 64
        E 113 91 2d 00
        E 15 91 2d 50
        E 35 91 2d 00
        E 29 91 21 64
        E 113 91 21 00
        E 15 91 21 50
        E 35 91 21 00
        E 29 91 2a 64
        E 113 91 2a 00
        E 15 91 2a 50
        E 35 91 2a 00
        E 29 91 29 64
        E 113 91 29 00
        E 15 91 29 50
        E 35 91 29 00
        E 29 91 25 64
        E 113 91 25 00
        E 15 91 25 50
        E 35 91 25 00
        E 29 91 21 64
        E 113 91 21 00
        E 15 91 21 50
        E 35 91 21 00
        E 29 91 1e 64
        E 113 91 1e 00
        E 15 91 1e 50
        E 35 91 1e 00
        E 29 91 25 64
        E 113 91 25 00
        E 15 91 25 50
        E 35 91 25 00
        E 29 91 2d 64
        E 113 91 2d 00
        E 15 91 2d 50
        E 35 91 2d 00
        E 29 91 21 64
        E 113 91 21 00
        E 15 91 21 50
        E 35 91 21 00
        E 29 91 29 64
        E 113 91 29 00
        E 15 91 29 50
        E 35 91 29 00
        E 29 91 2a 64
        E 113 91 2a 00
        E 15 91 2a 50
        E 35 91 2a 00
        E 29 91 1e 64
        E 113 91 1e 00
        E 15 91 1e 50
        E 35 91 1e 00
        E 29 91 25 64
        E 113 91 25 00
        E 15 91 25 50
        E 35 91 25 00
        E 29 91 21 64
        E 113 91 21 00
        E 15 91 21 50
        E 35 91 21 00
        E 29 91 29 64
        E 113 91 29 00
        E 15 91 29 50
        E 35 91 29 00
        E 29 91 2d 64
        E 113 91 2d 00
        E 15 91 2a 50
        E 35 91 2a 00
        E 29 91 21 64
        E 113 91 21 00
        E 15 91 21 50
        E 35 91 21 00
        E 29 91 1e 64
        E 113 91 1e 00
        E 15 91 1e 50
        E 35 91 1e 00
        E 29 91 29 64
        E 113 91 29 00
        E 15 91 29 50
        E 35 91 29 00
        E 29 91 25 64
        E 113 91 25 00
        E 15 91 25 50
        E 35 91 25 00
        E 29 91 21 64
        E 113 91 21 00
        E 15 91 21 50
        E 35 91 21 00
        E 29 91 19 64
        E 113 91 19 00
        E 15 91 19 50
        E 35 91 19 00
        E 29 91 29 64
        E 113 91 29 00
        E 15 91 29 50
        E 35 91 29 00
        E 29 91 2a 64
        E 113 91 2a 00
        E 15 91 2a 50
        E 35 91 2a 00
        E 29 91 21 64
        E 113 91 21 00
        E 15 91 21 50
        E 35 91 21 00
        E 29 91 1e 64
        E 113 91 1e 00
        E 15 91 1e 50
        E 35 91 1e 00
        E 29 91 29 64
        E 113 91 29 00
        E 15 91 29 50
        E 35 91 29 00
        E 29 91 25 64
        E 113 91 25 00
        E 15 91 25 50
        E 35 91 25 00
        E 29 91 21 64
        E 113 91 21 00
        E 15 91 21 50
        E 35 91 21 00
        E 29 91 19 64
        E 113 91 19 00
        E 15 91 19 50
        E 35 91 19 00
        E 29 91 29 64
        E 113 91 29 00
        E 15 91 29 50
        E 35 91 29 00
        E 29 91 2a 64
        E 113 91 2a 00
        E 15 91 2a 50
        E 35 91 2a 00
        E 29 91 21 64
        E 113 91 21 00
        E 15 91 21 50
        E 35 91 21 00
        E 29 91 1e 64
        E 113 91 1e 00
        E 15 91 1e 50
        E 35 91 1e 00
        E 29 91 29 64
        E 113 91 29 00
        E 15 91 29 50
        E 35 91 29 00
        E 29 91 25 64
        E 113 91 25 00
        E 15 91 25 50
        E 35 91 25 00
        E 29 91 21 64
        E 113 91 21 00
        E 15 91 21 50
        E 35 91 21 00
        E 29 91 19 64
        E 113 91 19 00
        E 15 91 19 50
        E 35 91 19 00
        E 29 91 29 64
        E 113 91 29 00
        E 15 91 29 50
        E 35 91 29 00
        E 29 91 2a 64
        E 113 91 2a 00
        E 15 91 2a 50
        E 35 91 2a 00
        E 29 91 21 64
        E 113 91 21 00
        E 15 91 21 50
        E 35 91 21 00
        E 29 91 2a 64
        E 750 91 2a 00
        E 18 91 28 64
        E 177 91 28 00
        E 15 91 28 64
        E 177 91 28 00
        E 15 91 1c 7f
        E 177 91 1c 00
        E 15 91 28 64
        E 113 91 28 00
        E 15 91 28 6b
        E 35 91 28 00
        E 29 91 21 6e
        E 113 91 21 00
        E 15 91 21 5a
        E 35 91 21 00
        E 29 91 2d 64
        E 113 91 2d 00
        E 15 91 2d 50
        E 35 91 2d 00
        E 29 91 2f 64
        E 113 91 2f 00
        E 15 91 2f 50
        E 35 91 2f 00
        E 29 91 2d 64
        E 113 91 2d 00
        E 15 91 2d 50
        E 35 91 2d 00
        E 29 91 37 5f
        E 113 91 37 00
        E 15 91 37 4b
        E 35 91 37 00
        E 29 91 31 64
        E 113 91 31 00
        E 15 91 31 50
        E 35 91 31 00
        E 29 91 35 5f
        E 113 91 35 00
        E 15 91 35 4b
        E 35 91 35 00
        E 29 91 33 5f
        E 113 91 33 00
        E 15 91 33 4b
        E 35 91 33 00
        E 29 91 37 55
        E 100 91 37 00
        E 28 91 33 4b
        E 51 91 33 00
        E 13 91 31 64
        E 113 91 31 00
        E 15 91 35 4b
        E 51 91 35 00
        E 13 91 2f 64
        E 113 91 2f 00
        E 15 91 33 4b
        E 51 91 33 00
        E 13 91 2d 64
        E 113 91 2d 00
        E 15 91 31 50
        E 51 91 31 00
        E 13 91 27 64
        E 113 91 27 00
        E 15 91 27 64
        E 51 91 27 00
        E 13 91 1b 7f
        E 51 91 1b 00
        E 77 91 27 64
        E 51 91 27 00
        E 13 91 1b 7f
        E 163 91 1b 00
        E 29 91 27 64
        E 113 91 27 00
        E 15 91 27 50
        E 51 91 27 00
        E 13 91 29 64
        E 113 91 29 00
        E 15 91 27 5f
        E 51 91 27 00
        E 13 91 29 64
        E 113 91 29 00
        E 15 91 27 5f
        E 51 91 27 00
        E 13 91 2b 64
        E 113 91 2b 00
        E 15 91 29 5f
        E 51 91 29 00
        E 13 91 2b 64
        E 113 91 2b 00
        E 15 91 2b 5f
        E 51 91 2b 00
        E 13 91 2d 64
        E 113 91 2d 00
        E 15 91 21 69
        E 51 91 21 00
        E 13 91 21 6e
        E 113 91 21 00
        E 15 91 2d 5f
        E 51 91 2d 00
        E 13 91 21 6e
        E 113 91 21 00
        E 15 91 21 69
        E 51 91 21 00
        E 13 91 2d 64
        E 113 91 2d 00
        E 15 91 21 69
        E 51 91 21 00
        E 13 91 21 6e
        E 113 91 21 00
        E 15 91 2d 5f
        E 51 91 2d 00
        E 13 91 21 6e
        E 113 91 21 00
        E 15 91 21 69
        E 51 91 21 00
        E 13 91 2d 64
        E 113 91 2d 00
        E 15 91 21 69
        E 51 91 21 00
        E 13 91 2d 64
        E 113 91 2d 00
        E 15 91 21 69
        E 51 91 21 00
        E 13 91 2d 64
        E 113 91 2d 00
        E 15 91 2f 5f
        E 51 91 2f 00
        E 13 91 2f 64
        E 113 91 2f 00
        E 15 91 2d 5f
        E 51 91 2d 00
        E 13 91 2f 64
        E 113 91 2f 00
        E 15 91 21 69
        E 51 91 21 00
        E 13 91 21 6e
        E 113 91 21 00
        E 15 91 23 69
        E 51 91 23 00
        E 13 91 23 6e
        E 113 91 23 00
        E 15 91 21 69
        E 51 91 21 00
        E 13 91 2d 64
        E 113 91 2d 00
        E 15 91 21 69
        E 51 91 21 00
        E 13 91 2f 64
        E 113 91 2f 00
        E 15 91 2d 5f
        E 51 91 2d 00
        E 13 91 21 6e
        E 113 91 21 00
        E 15 91 23 69
        E 51 91 23 00
        E 13 91 23 6e
        E 113 91 23 00
        E 15 91 21 69
        E 51 91 21 00
        E 13 91 2d 64
        E 113 91 2d 00
        E 15 91 2f 5f
        E 51 91 2f 00
        E 13 91 2f 64
        E 113 91 2f 00
        E 15 91 2d 5f
        E 51 91 2d 00
        E 13 91 2f 64
        E 113 91 2f 00
        E 15 91 2d 5f
        E 51 91 2d 00
        E 13 91 2f 64
        E 113 91 2f 00
        E 15 91 2d 5f
        E 51 91 2d 00
        E 13 91 2f 64
        E 113 91 2f 00
        E 15 91 2f 50
        E 35 91 2f 00
        E 29 91 2d 64
        E 113 91 2d 00
        E 15 91 2d 50
        E 35 91 2d 00
        E 29 91 2b 64
        E 113 91 2b 00
        E 15 91 2b 50
        E 35 91 2b 00
        E 29 91 2d 64
        E 113 91 2d 00
        E 15 91 2d 50
        E 35 91 2d 00
        E 29 91 1f 6e
        E 113 91 1f 00
        E 15 91 1f 5a
        E 35 91 1f 00
        E 29 91 20 6e
        E 113 91 20 00
        E 15 91 20 5a
        E 35 91 20 00
        E 29 91 21 6e
        E 113 91 21 00
        E 15 91 21 5a
        E 35 91 21 00
        E 29 91 1f 6e
        E 113 91 1f 00
        E 15 91 1f 5a
        E 35 91 1f 00
        E 29 91 27 64
        E 113 91 27 00
        E 15 91 27 50
        E 35 91 27 00
        E 29 91 25 64
        E 113 91 25 00
        E 15 91 25 50
        E 35 91 25 00
        E 29 91 23 6e
        E 113 91 23 00
        E 15 91 23 5a
        E 35 91 23 00
        E 29 91 2a 64
        E 113 91 2a 00
        E 15 91 2a 50
        E 35 91 2a 00
        E 29 91 27 64
        E 113 91 27 00
        E 15 91 27 50
        E 35 91 27 00
        E 29 91 23 6e
        E 113 91 23 00
        E 15 91 23 5a
        E 35 91 23 00
        E 29 91 2b 64
        E 113 91 2b 00
        E 15 91 2b 50
        E 35 91 2b 00
        E 29 91 27 64
        E 113 91 27 00
        E 15 91 27 50
        E 35 91 27 00
        E 29 91 25 64
        E 113 91 25 00
        E 15 91 25 50
        E 35 91 25 00
        E 29 91 2d 64
        E 113 91 2d 00
        E 15 91 2d 50
        E 35 91 2d 00
        E 29 91 2b 64
        E 113 91 2b 00
        E 15 91 2b 50
        E 35 91 2b 00
        E 29 91 2f 64
        E 113 91 2f 00
        E 15 91 2f 50
        E 35 91 2f 00
        E 29 91 33 5f
        E 113 91 33 00
        E 15 91 33 4b
        E 35 91 33 00
        E 29 91 39 5f
        E 113 91 39 00
        E 15 91 39 4b
        E 35 91 39 00
        E 29 91 37 5f
        E 113 91 37 00
        E 15 91 37 4b
        E 35 91 37 00
        E 29 91 1e 73
        E 753 91 1e 00
        E 15 91 20 69
        E 179 91 20 00
        E 13 91 20 69
        E 179 91 20 00
        E 13 91 2c 64
        E 179 91 2c 00
        E 13 91 20 69
        E 179 91 20 00
        E 13 b1 19 7f
        E 0 91 21 64
        E 113 91 21 00
        E 15 91 21 50
        E 35 91 21 00
        E 29 91 2d 64
        E 113 91 2d 00
        E 15 91 2d 50
        E 35 91 2d 00
        E 29 91 20 64
        E 113 91 20 00
        E 15 91 20 50
        E 35 91 20 00
        E 29 91 21 64
        E 113 91 21 00
        E 15 91 21 50
        E 35 91 21 00
        E 29 91 2d 64
        E 113 91 2d 00
        E 15 91 2d 50
        E 35 91 2d 00
        E 29 91 21 64
        E 113 91 21 00
        E 15 91 21 50
        E 35 91 21 00
        E 29 91 2e 64
        E 113 91 2e 00
        E 15 91 2e 50
        E 35 91 2e 00
        E 29 91 22 64
        E 113 91 22 00
        E 15 91 22 50
        E 35 91 22 00
        E 29 91 21 64
        E 113 91 21 00
        E 15 91 21 50
        E 35 91 21 00
        E 29 91 2d 64
        E 113 91 2d 00
        E 15 91 2d 50
        E 35 91 2d 00
        E 29 91 20 64
        E 113 91 20 00
        E 15 91 20 50
        E 35 91 20 00
        E 29 91 21 64
        E 113 91 21 00
        E 15 91 21 50
        E 35 91 21 00
        E 29 91 2d 64
        E 113 91 2d 00
        E 15 91 2d 50
        E 35 91 2d 00
        E 29 91 21 64
        E 113 91 21 00
        E 15 91 21 50
        E 35 91 21 00
        E 29 91 2e 64
        E 113 91 2e 00
        E 15 91 2e 50
        E 35 91 2e 00
        E 29 91 22 64
        E 113 91 22 00
        E 15 91 22 50
        E 35 91 22 00
        E 29 91 21 64
        E 113 91 21 00
        E 15 91 21 50
        E 35 91 21 00
        E 29 91 2d 64
        E 113 91 2d 00
        E 15 91 2d 50
        E 35 91 2d 00
        E 29 91 20 64
        E 113 91 20 00
        E 15 91 20 50
        E 35 91 20 00
        E 29 91 21 64
        E 113 91 21 00
        E 15 91 21 50
        E 35 91 21 00
        E 29 91 2d 64
        E 113 91 2d 00
        E 15 91 2d 50
        E 35 91 2d 00
        E 29 91 21 64
        E 113 91 21 00
        E 15 91 21 50
        E 35 91 21 00
        E 29 91 2e 64
        E 113 91 2e 00
        E 15 91 2e 50
        E 35 91 2e 00
        E 29 91 22 64
        E 113 91 22 00
        E 15 91 22 50
        E 35 91 22 00
        E 29 91 21 64
        E 113 91 21 00
        E 15 91 21 50
        E 35 91 21 00
        E 29 91 2d 64
        E 113 91 2d 00
        E 15 91 2d 50
        E 35 91 2d 00
        E 29 91 20 64
        E 113 91 20 00
        E 15 91 20 50
        E 35 91 20 00
        E 29 91 21 64
        E 113 91 21 00
        E 15 91 21 50
        E 35 91 21 00
        E 29 91 2d 64
        E 113 91 2d 00
        E 15 91 2d 50
        E 35 91 2d 00
        E 29 91 21 64
        E 113 91 21 00
        E 15 91 21 50
        E 35 91 21 00
        E 29 91 2e 64
        E 113 91 2e 00
        E 15 91 2e 50
        E 35 91 2e 00
        E 29 91 22 64
        E 113 91 22 00
        E 15 91 22 50
        E 35 91 22 00
        E 29 91 21 64
        E 113 91 21 00
        E 15 91 21 50
        E 35 91 21 00
        E 29 91 2d 64
        E 113 91 2d 00
        E 15 91 2d 50
        E 35 91 2d 00
        E 29 91 20 64
        E 113 91 20 00
        E 15 91 20 50
        E 35 91 20 00
        E 29 91 21 64
        E 113 91 21 00
        E 15 91 21 50
        E 35 91 21 00
        E 29 91 2d 64
        E 113 91 2d 00
        E 15 91 2d 50
        E 35 91 2d 00
        E 29 91 21 64
        E 113 91 21 00
        E 15 91 21 50
        E 35 91 21 00
        E 29 91 2e 64
        E 113 91 2e 00
        E 15 91 2e 50
        E 35 91 2e 00
        E 29 91 22 64
        E 113 91 22 00
        E 15 91 22 50
        E 35 91 22 00
        E 29 91 21 64
        E 113 91 21 00
        E 15 91 21 50
        E 35 91 21 00
        E 29 91 2d 64
        E 113 91 2d 00
        E 15 91 2d 50
        E 35 91 2d 00
        E 29 91 20 64
        E 113 91 20 00
        E 15 91 20 50
        E 35 91 20 00
        E 29 91 21 64
        E 113 91 21 00
        E 15 91 21 50
        E 35 91 21 00
        E 29 91 2d 64
        E 113 91 2d 00
        E 15 91 2d 50
        E 35 91 2d 00
        E 29 91 21 64
        E 113 91 21 00
        E 15 91 21 50
        E 35 91 21 00
        E 29 91 2e 64
        E 113 91 2e 00
        E 15 91 2e 50
        E 35 91 2e 00
        E 29 91 22 64
        E 113 91 22 00
        E 15 91 22 50
        E 35 91 22 00
        E 29 91 21 64
        E 113 91 21 00
        E 15 91 21 50
        E 35 91 21 00
        E 29 91 2d 64
        E 113 91 2d 00
        E 15 91 2d 50
        E 35 91 2d 00
        E 29 91 20 64
        E 113 91 20 00
        E 15 91 20 50
        E 35 91 20 00
        E 29 91 21 64
        E 113 91 21 00
        E 15 91 21 50
        E 35 91 21 00
        E 29 91 2d 64
        E 113 91 2d 00
        E 15 91 2d 50
        E 35 91 2d 00
        E 29 91 21 64
        E 113 91 21 00
        E 15 91 21 50
        E 35 91 21 00
        E 29 91 2e 64
        E 113 91 2e 00
        E 15 91 2e 50
        E 35 91 2e 00
        E 29 91 22 64
        E 113 91 22 00
        E 15 91 22 50
        E 35 91 22 00
        E 29 b1 19 7f
        E 0 91 21 64
        E 113 91 21 00
        E 15 91 21 50
        E 35 91 21 00
        E 29 91 2d 64
        E 113 91 2d 00
        E 15 91 2d 50
        E 35 91 2d 00
        E 29 91 20 64
        E 113 91 20 00
        E 15 91 20 50
        E 35 91 20 00
        E 29 91 21 64
        E 113 91 21 00
        E 15 91 21 50
        E 35 91 21 00
        E 29 91 2d 64
        E 113 91 2d 00
        E 15 91 2d 50
        E 35 91 2d 00
        E 29 91 21 64
        E 113 91 21 00
        E 15 91 21 50
        E 35 91 21 00
        E 29 91 2e 64
        E 113 91 2e 00
        E 15 91 2e 50
        E 35 91 2e 00
        E 29 91 22 64
        E 113 91 22 00
        E 15 91 22 50
        E 35 91 22 00
        E 29 91 21 64
        E 113 91 21 00
        E 15 91 21 50
        E 35 91 21 00
        E 29 91 2d 64
        E 113 91 2d 00
        E 15 91 2d 50
        E 35 91 2d 00
        E 29 91 20 64
        E 113 91 20 00
        E 15 91 20 50
        E 35 91 20 00
        E 29 91 21 64
        E 113 91 21 00
        E 15 91 21 50
        E 35 91 21 00
        E 29 91 2d 64
        E 113 91 2d 00
        E 15 91 2d 50
        E 35 91 2d 00
        E 29 91 21 64
        E 113 91 21 00
        E 15 91 21 50
        E 35 91 21 00
        E 29 91 2e 64
        E 113 91 2e 00
        E 15 91 2e 50
        E 35 91 2e 00
        E 29 91 22 64
        E 113 91 22 00
        E 15 91 22 50
        E 35 91 22 00
        E 29 91 21 64
        E 113 91 21 00
        E 15 91 21 50
        E 35 91 21 00
        E 29 91 2d 64
        E 113 91 2d 00
        E 15 91 2d 50
        E 35 91 2d 00
        E 29 91 20 64
        E 113 91 20 00
        E 15 91 20 50
        E 35 91 20 00
        E 29 91 21 64
        E 113 91 21 00
        E 15 91 21 50
        E 35 91 21 00
        E 29 91 2d 64
        E 113 91 2d 00
        E 15 91 2d 50
        E 35 91 2d 00
        E 29 91 21 64
        E 113 91 21 00
        E 15 91 21 50
        E 35 91 21 00
        E 29 91 2e 64
        E 113 91 2e 00
        E 15 91 2e 50
        E 35 91 2e 00
        E 29 91 22 64
        E 113 91 22 00
        E 15 91 22 50
        E 35 91 22 00
        E 29 91 21 64
        E 113 91 21 00
        E 15 91 21 50
        E 35 91 21 00
        E 29 91 2d 64
        E 113 91 2d 00
        E 15 91 2d 50
        E 35 91 2d 00
        E 29 91 20 64
        E 113 91 20 00
        E 15 91 20 50
        E 35 91 20 00
        E 29 91 21 64
        E 113 91 21 00
        E 15 91 21 50
        E 35 91 21 00
        E 29 91 2d 64
        E 113 91 2d 00
        E 15 91 2d 50
        E 35 91 2d 00
        E 29 91 21 64
        E 113 91 21 00
        E 15 91 21 50
        E 35 91 21 00
        E 29 91 2e 64
        E 113 91 2e 00
        E 15 91 2e 50
        E 35 91 2e 00
        E 29 91 22 64
        E 113 91 22 00
        E 15 91 22 50
        E 35 91 22 00
        E 29 91 21 64
        E 113 91 21 00
        E 15 91 21 50
        E 35 91 21 00
        E 29 91 2d 64
        E 113 91 2d 00
        E 15 91 2d 50
        E 35 91 2d 00
        E 29 91 20 64
        E 113 91 20 00
        E 15 91 20 50
        E 35 91 20 00
        E 29 91 21 64
        E 113 91 21 00
        E 15 91 21 50
        E 35 91 21 00
        E 29 91 2d 64
        E 113 91 2d 00
        E 15 91 2d 50
        E 35 91 2d 00
        E 29 91 21 64
        E 113 91 21 00
        E 15 91 21 50
        E 35 91 21 00
        E 29 91 2e 64
        E 113 91 2e 00
        E 15 91 2e 50
        E 35 91 2e 00
        E 29 91 22 64
        E 113 91 22 00
        E 15 91 22 50
        E 35 91 22 00
        E 6173 b1 0a 40
        E 0 b1 19 7f
        E 0 91 2a 5f
        E 251 91 2a 00
        E 1477 91 2b 5f
        E 251 91 2b 00
        E 1093 91 29 5f
        E 251 91 29 00
        E 325 91 29 5f
        E 251 91 29 00
        E 517 91 28 5f
        E 251 91 28 00
        E 133 91 28 5f
        E 251 91 28 00
        E 709 91 28 5f
        E 251 91 28 00
        E 133 91 27 5f
        E 251 91 27 00
        E 1093 91 25 5f
        E 251 91 25 00
        E 517 91 25 5f
        E 251 91 25 00
        E 325 91 25 5f
        E 251 91 25 00
        E 133 91 23 5f
        E 251 91 23 00
        E 1285 91 24 5f
        E 555 91 24 00
        E 213 91 22 5f
        E 555 91 22 00
        E 213 b1 19 7f
        E 0 91 1e 6e
        E 113 91 1e 00
        E 15 91 1e 5a
        E 35 91 1e 00
        E 29 91 2a 64
        E 113 91 2a 00
        E 15 91 2a 50
        E 35 91 2a 00
        E 29 91 2c 64
        E 113 91 2c 00
        E 15 91 2c 50
        E 35 91 2c 00
        E 29 91 2a 64
        E 113 91 2a 00
        E 15 91 2a 50
        E 35 91 2a 00
        E 29 91 34 5f
        E 113 91 34 00
        E 15 91 34 4b
        E 35 91 34 00
        E 29 91 2e 64
        E 113 91 2e 00
        E 15 91 2e 50
        E 35 91 2e 00
        E 29 91 32 5f
        E 113 91 32 00
        E 15 91 32 4b
        E 35 91 32 00
        E 29 91 30 5f
        E 113 91 30 00
        E 15 91 30 4b
        E 35 91 30 00
        E 29 91 34 55
        E 100 91 34 00
        E 28 91 30 4b
        E 51 91 30 00
        E 13 91 2e 64
        E 113 91 2e 00
        E 15 91 32 4b
        E 51 91 32 00
        E 13 91 2c 64
        E 113 91 2c 00
        E 15 91 30 4b
        E 51 91 30 00
        E 13 91 2a 64
        E 113 91 2a 00
        E 15 91 2e 50
        E 51 91 2e 00
        E 13 91 24 64
        E 113 91 24 00
        E 15 91 24 64
        E 51 91 24 00
        E 13 91 18 7f
        E 51 91 18 00
        E 77 91 24 64
        E 51 91 24 00
        E 13 91 18 7f
        E 163 91 18 00
        E 29 91 24 64
        E 113 91 24 00
        E 15 91 24 50
        E 51 91 24 00
        E 13 91 26 64
        E 113 91 26 00
        E 15 91 24 5f
        E 51 91 24 00
        E 13 91 26 64
        E 113 91 26 00
        E 15 91 24 5f
        E 51 91 24 00
        E 13 91 28 64
        E 113 91 28 00
        E 15 91 26 5f
        E 51 91 26 00
        E 13 91 28 64
        E 113 91 28 00
        E 15 91 28 5f
        E 51 91 28 00
        E 13 91 2a 64
        E 113 91 2a 00
        E 15 91 1e 69
        E 51 91 1e 00
        E 13 91 1e 6e
        E 113 91 1e 00
        E 15 91 2a 5f
        E 51 91 2a 00
        E 13 91 1e 6e
        E 113 91 1e 00
        E 15 91 1e 69
        E 51 91 1e 00
        E 13 91 2a 64
        E 113 91 2a 00
        E 15 91 1e 69
        E 51 91 1e 00
        E 13 91 1e 6e
        E 113 91 1e 00
        E 15 91 2a 5f
        E 51 91 2a 00
        E 13 91 1e 6e
        E 113 91 1e 00
        E 15 91 1e 69
        E 51 91 1e 00
        E 13 91 2a 64
        E 113 91 2a 00
        E 15 91 1e 69
        E 51 91 1e 00
        E 13 91 2a 64
        E 113 91 2a 00
        E 15 91 1e 69
        E 51 91 1e 00
        E 13 91 2a 64
        E 113 91 2a 00
        E 15 91 2c 5f
        E 51 91 2c 00
        E 13 91 2c 64
        E 113 91 2c 00
        E 15 91 2a 5f
        E 51 91 2a 00
        E 13 91 2c 64
        E 113 91 2c 00
        E 15 91 1e 69
        E 51 91 1e 00
        E 13 91 1e 6e
        E 113 91 1e 00
        E 15 91 20 69
        E 51 91 20 00
        E 13 91 20 6e
        E 113 91 20 00
        E 15 91 1e 69
        E 51 91 1e 00
        E 13 91 2a 64
        E 113 91 2a 00
        E 15 91 1e 69
        E 51 91 1e 00
        E 13 91 2c 64
        E 113 91 2c 00
        E 15 91 2a 5f
        E 51 91 2a 00
        E 13 91 1e 6e
        E 113 91 1e 00
        E 15 91 20 69
        E 51 91 20 00
        E 13 91 20 6e
        E 113 91 20 00
        E 15 91 1e 69
        E 51 91 1e 00
        E 13 91 2a 64
        E 113 91 2a 00
        E 15 91 2c 5f
        E 51 91 2c 00
        E 13 91 2c 64
        E 113 91 2c 00
        E 15 91 2a 5f
        E 51 91 2a 00
        E 13 91 2c 64
        E 113 91 2c 00
        E 15 91 2a 5f
        E 51 91 2a 00
        E 13 91 2c 64
        E 113 91 2c 00
        E 15 91 2a 5f
        E 51 91 2a 00
        E 13 91 2c 64
        E 113 91 2c 00
        E 15 91 2c 50
        E 35 91 2c 00
        E 29 91 2a 64
        E 113 91 2a 00
        E 15 91 2a 50
        E 35 91 2a 00
        E 29 91 28 64
        E 113 91 28 00
        E 15 91 28 50
        E 35 91 28 00
        E 29 91 2a 64
        E 113 91 2a 00
        E 15 91 2a 50
        E 35 91 2a 00
        E 29 91 1c 6e
        E 113 91 1c 00
        E 15 91 1c 5a
        E 35 91 1c 00
        E 29 91 1d 6e
        E 113 91 1d 00
        E 15 91 1d 5a
        E 35 91 1d 00
        E 29 91 1e 6e
        E 113 91 1e 00
        E 15 91 1e 5a
        E 35 91 1e 00
        E 29 91 1c 6e
        E 113 91 1c 00
        E 15 91 1c 5a
        E 35 91 1c 00
        E 29 91 24 64
        E 113 91 24 00
        E 15 91 24 50
        E 35 91 24 00
        E 29 91 22 64
        E 113 91 22 00
        E 15 91 22 50
        E 35 91 22 00
        E 29 91 20 6e
        E 113 91 20 00
        E 15 91 20 5a
        E 35 91 20 00
        E 29 91 27 64
        E 113 91 27 00
        E 15 91 27 50
        E 35 91 27 00
        E 29 91 24 64
        E 113 91 24 00
        E 15 91 24 50
        E 35 91 24 00
        E 29 91 20 6e
        E 113 91 20 00
        E 15 91 20 5a
        E 35 91 20 00
        E 29 91 28 64
        E 113 91 28 00
        E 15 91 28 50
        E 35 91 28 00
        E 29 91 24 64
        E 113 91 24 00
        E 15 91 24 50
        E 35 91 24 00
        E 29 91 22 64
        E 113 91 22 00
        E 15 91 22 50
        E 35 91 22 00
        E 29 91 2a 64
        E 113 91 2a 00
        E 15 91 2a 50
        E 35 91 2a 00
        E 29 91 28 64
        E 113 91 28 00
        E 15 91 28 50
        E 35 91 28 00
        E 29 91 2c 64
        E 113 91 2c 00
        E 15 91 2c 50
        E 35 91 2c 00
        E 29 91 30 5f
        E 113 91 30 00
        E 15 91 30 4b
        E 35 91 30 00
        E 29 91 36 5f
        E 113 91 36 00
        E 15 91 36 4b
        E 35 91 36 00
        E 29 91 34 5f
        E 113 91 34 00
        E 15 91 34 4b
        E 35 91 34 00
        E 29 91 1e 7d
        E 753 91 1e 00
        E 15 91 22 7f
        E 753 91 22 00
        E 15 91 1f 79
        E 753 91 1f 00
        E 15 91 25 5f
        E 180 91 25 00
        E 12 91 25 5f
        E 180 91 25 00
        E 12 91 31 5f
        E 180 91 31 00
        E 12 91 25 5a
        E 180 91 25 00
        E 12 c1 32 00
        E 0 b1 19 7f
        E 0 b1 07 7c
        E 0 91 2a 64
        E 113 91 2a 00
        E 15 91 2a 50
        E 35 91 2a 00
        E 29 91 29 64
        E 113 91 29 00
        E 15 91 29 50
        E 35 91 29 00
        E 29 91 25 64
        E 113 91 25 00
        E 15 91 25 50
        E 35 91 25 00
        E 29 91 21 64
        E 113 91 21 00
        E 15 91 21 50
        E 35 91 21 00
        E 29 91 1e 64
        E 113 91 1e 00
        E 15 91 1e 50
        E 35 91 1e 00
        E 29 91 25 64
        E 113 91 25 00
        E 15 91 25 50
        E 35 91 25 00
        E 29 91 2d 64
        E 113 91 2d 00
        E 15 91 2d 50
        E 35 91 2d 00
        E 29 91 21 64
        E 113 91 21 00
        E 15 91 21 50
        E 35 91 21 00
        E 29 91 2a 64
        E 113 91 2a 00
        E 15 91 2a 50
        E 35 91 2a 00
        E 29 91 29 64
        E 113 91 29 00
        E 15 91 29 50
        E 35 91 29 00
        E 29 91 25 64
        E 113 91 25 00
        E 15 91 25 50
        E 35 91 25 00
        E 29 91 21 64
        E 113 91 21 00
        E 15 91 21 50
        E 35 91 21 00
        E 29 91 1e 64
        E 113 91 1e 00
        E 15 91 1e 50
        E 35 91 1e 00
        E 29 91 25 64
        E 113 91 25 00
        E 15 91 25 50
        E 35 91 25 00
        E 29 91 2d 64
        E 113 91 2d 00
        E 15 91 2d 50
        E 35 91 2d 00
        E 29 91 21 64
        E 113 91 21 00
        E 15 91 21 50
        E 35 91 21 00
        E 29 b1 67 00
        E 0 b1 66 00
        E 0 91 29 64
        E 113 91 29 00
        E 15 91 29 50
        E 35 91 29 00
        E 29 91 2a 64
        E 113 91 2a 00
        E 15 91 2a 50
        E 35 91 2a 00
        E 29 91 1e 64
        E 113 91 1e 00
        E 15 91 1e 50
        E 35 91 1e 00
        E 29 91 25 64
        E 113 91 25 00
        E 15 91 25 50
        E 35 91 25 00
        E 29 91 21 64
        E 113 91 21 00
        E 15 91 21 50
        E 35 91 21 00
        E 29 91 29 64
        E 113 91 29 00
        E 15 91 29 50
        E 35 91 29 00
        E 29 91 2d 64
        E 113 91 2d 00
        E 15 91 2a 50
        E 35 91 2a 00
        E 29 91 21 64
        E 113 91 21 00
        E 15 91 21 50
        E 35 91 21 00
        E 29 91 1e 64
        E 1536 91 1e 00
        E 2688 b0 7b 00
        GUID {5160CF90-977C-486D-9C66-1B2BACE450B2}
        IGNTEMPO 0 120 4 4
        SRCCOLOR 4
        VELLANE 131 77 128
        CFGEDITVIEW 99097.721943 363.967251 66 12 0 -1 0 0 0 0.5
        KEYSNAP 0
        TRACKSEL 0
        EVTFILTER 0 -1 -1 -1 -1 0 0 0 0 -1 -1 -1 -1 0 -1 0 -1 -1
        CFGEDIT 1 1 0 1 0 1 1 1 1 1 1 0.125 633 186 1842 923 0 0 2 2 0 0 0 0 0 0.5 0 0 1 64
      >
    >
  >
  <TRACK {90C32251-E887-424E-B0E6-7DE4ADCBF4B5}
    NAME KEYS
    PEAKCOL 16576
    BEAT -1
    AUTOMODE 0
    VOLPAN 1 0 -1 -1 1
    MUTESOLO 0 0 0
    IPHASE 0
    ISBUS 1 1
    BUSCOMP 0 0
    SHOWINMIX 1 0.6667 0.5 1 0.5 0 0 0
    FREEMODE 0
    SEL 1
    REC 0 0 0 0 0 0 0
    VU 2
    TRACKHEIGHT 0 0
    INQ 0 0 0 0.5 100 0 0 100
    NCHAN 2
    FX 1
    TRACKID {90C32251-E887-424E-B0E6-7DE4ADCBF4B5}
    PERF 0
    MIDIOUT -1
    MAINSEND 1 0
  >
  <TRACK {0D47BDE1-DFCA-4F3C-B6C1-79786C0C03E1}
    NAME "7 Strings 1 (keys)"
    PEAKCOL 16576
    BEAT -1
    AUTOMODE 0
    VOLPAN 1 0 -1 -1 1
    MUTESOLO 0 0 0
    IPHASE 0
    ISBUS 0 0
    BUSCOMP 0 0
    SHOWINMIX 1 0.6667 0.5 1 0.5 0 0 0
    FREEMODE 0
    SEL 0
    REC 0 0 0 0 0 0 0
    VU 2
    TRACKHEIGHT 0 0
    INQ 0 0 0 0.5 100 0 0 100
    NCHAN 2
    FX 1
    TRACKID {0D47BDE1-DFCA-4F3C-B6C1-79786C0C03E1}
    PERF 0
    MIDIOUT -1
    MAINSEND 1 0
    <FXCHAIN
      WNDRECT 50 94 958 586
      SHOW 0
      LASTSEL 0
      DOCKED 0
      BYPASS 0 0 0
      <VST "VSTi: sforzando (Plogue Art et Technologie, Inc)" "sforzando VST_x86.dll" 0 "" 1347176273
        UUdMUO5e7f4AAAAAAgAAAAEAAAAAAAAAAgAAAAAAAADkAQAAAQAAAAAAEAA=
        Q0VHUCYFAAB4nI1UwW6jMBC9r9R/sHxvsAkhQQpbpdtoxSHqSnTPaAA3i2rsLhiU/fuOIQRUbQVc8Lx5HnsevNk/XEpJWlHVhVYh5StGycP3u2/7Q1VADK2Y5ALOKXmv
        dN5kJnpCgHGPIpfgs4+FMYU61+RvA7Iw/zBNSW0qASXCIV27lJRwiTvkIKXOTo8h3XCET9FT9NyYk85Ftwsao0sweGgstQkpm0JStEKGtFBYuymFMpTIohX9ZmTWWUgD
        175BAiKc3BNh77SqM3mFf+A2UYXUR/5Z6hTkS6O6WyLg3DrCw0mRd6CCEsvnsnaOF1NBZkQe60blKai3hLHEZh77df84jG2TyF4yYVtKLC/CUh6m6CgprrM/oJTt6N6K
        qyUK53uUmPFC72lSgTqLKwWPV3WXKCdLnRn8WDcFdgFijemAaz9dTyco1NBTC7LpBXf+S+E3CvuK4s5T1vMUb56ymaf485TtPGU3TwnmKZwt4CzQly8QmC9QmC+QmH+t
        8S+ooPyk4OffZuRwd6LQyt0EO8/dcC8I+NZn64nBHOuwITi+vorMTD03OLn33qFMC6EyMXqpGz+T8bTz/Enxn7+joRDaFSdENA6TLj7e4lpIYR39AmnvMVtk7wwTEIMP
        nENbFg==
        AAAQAAAA
      >
      FLOATPOS 0 0 0 0
      FXID {AC8F5159-4EED-46C3-B1B9-92AD079BD4F0}
      WAK 0
    >
    <ITEM
      POSITION 0
      SNAPOFFS 0
      LENGTH 108.69834800000014
      LOOP 0
      ALLTAKES 0
      FADEIN 1 0 0 1 0 0
      FADEOUT 1 0 0 1 0 0
      MUTE 0
      SEL 0
      IGUID {3D9E9C05-EDB8-4B37-A69F-7E8A33A72F7F}
      IID 3
      NAME "Kirby 64 - The Crystal Shards (U) 00000017 0027D0DC.mid"
      VOLPAN 1 0 1 -1
      SOFFS 0.0010847121468 0.00260334530939
      PLAYRATE 1 1 0 -1 0 0.0025
      CHANMODE 0
      GUID {DAFD6E14-3631-4A02-A57F-AE349BD8F473}
      <SOURCE MIDI
        HASDATA 1 384 QN
        POOLEDEVTS {7FB01DE5-1E08-42D0-A7D0-E8A135641B6D}
        E 4578 c2 07 00
        E 1551 b2 16 28
        E 1552 b2 66 00
        E 1536 c2 07 00
        E 0 d2 21 00
        E 0 e2 00 40
        E 0 b2 07 2e
        E 0 b2 19 7f
        E 0 b2 16 28
        E 0 b2 0a 40
        E 0 92 39 5f
        E 0 92 4c 55
        E 48 b2 07 2f
        E 96 b2 07 30
        E 96 b2 07 31
        E 96 b2 07 32
        E 96 b2 07 33
        E 96 b2 07 34
        E 96 b2 07 35
        E 96 b2 07 36
        E 120 b2 07 37
        E 96 b2 07 38
        E 96 b2 07 39
        E 96 b2 07 3a
        E 96 b2 07 3b
        E 120 b2 07 3c
        E 96 b2 07 3d
        E 96 b2 07 3e
        E 96 b2 07 3f
        E 96 b2 07 40
        E 120 b2 07 41
        E 96 b2 07 42
        E 96 b2 07 43
        E 96 b2 07 44
        E 96 b2 07 45
        E 120 b2 07 46
        E 96 b2 07 47
        E 96 b2 07 48
        E 96 b2 07 49
        E 33 92 39 00
        E 0 92 4c 00
        E 15 92 38 5f
        E 0 92 4a 55
        E 48 b2 07 4a
        E 96 b2 07 4b
        E 96 b2 07 4c
        E 120 b2 07 4d
        E 9 92 38 00
        E 0 92 4a 00
        E 15 92 4c 55
        E 0 92 39 5f
        E 72 b2 07 4e
        E 96 b2 07 4f
        E 96 b2 07 50
        E 96 b2 07 51
        E 96 b2 07 52
        E 120 b2 07 53
        E 96 b2 07 54
        E 96 b2 07 55
        E 96 b2 07 56
        E 96 b2 07 57
        E 120 b2 07 58
        E 96 b2 07 59
        E 96 b2 07 5a
        E 96 b2 07 5b
        E 96 b2 07 5c
        E 120 b2 07 5d
        E 96 b2 07 5e
        E 96 b2 07 5f
        E 96 b2 07 60
        E 96 b2 07 61
        E 96 b2 07 62
        E 120 b2 07 63
        E 96 b2 07 64
        E 96 b2 07 65
        E 96 b2 07 66
        E 96 b2 07 67
        E 96 b2 07 68
        E 9 92 4c 00
        E 0 92 39 00
        E 15 e2 14 2f
        E 0 92 3a 5f
        E 0 92 4a 55
        E 24 e2 1f 30
        E 24 e2 6f 31
        E 24 e2 40 33
        E 0 b2 07 69
        E 24 e2 4b 34
        E 24 e2 1c 36
        E 24 e2 6c 37
        E 24 e2 77 38
        E 24 e2 48 3a
        E 0 b2 07 5e
        E 24 e2 19 3c
        E 24 e2 24 3d
        E 24 e2 00 40
        E 105 92 3a 00
        E 0 92 4a 00
        E 3087 e2 00 40
        E 0 b2 07 28
        E 0 92 39 5f
        E 0 92 4b 55
        E 24 b2 07 2e
        E 24 b2 07 2f
        E 96 b2 07 30
        E 120 b2 07 31
        E 96 b2 07 32
        E 120 b2 07 33
        E 96 b2 07 34
        E 96 b2 07 35
        E 120 b2 07 36
        E 96 b2 07 37
        E 96 b2 07 38
        E 120 b2 07 39
        E 96 b2 07 3a
        E 96 b2 07 3b
        E 120 b2 07 3c
        E 96 b2 07 3d
        E 120 b2 07 3e
        E 96 b2 07 3f
        E 96 b2 07 40
        E 120 b2 07 41
        E 96 b2 07 42
        E 96 b2 07 43
        E 120 b2 07 44
        E 96 b2 07 45
        E 96 b2 07 46
        E 120 b2 07 47
        E 96 b2 07 48
        E 9 92 39 00
        E 0 92 4b 00
        E 15 92 4c 55
        E 0 92 3b 5f
        E 96 b2 07 49
        E 96 b2 07 4a
        E 96 b2 07 4b
        E 81 92 4c 00
        E 0 92 3b 00
        E 15 92 4d 55
        E 0 92 3b 5f
        E 24 b2 07 4c
        E 96 b2 07 4d
        E 96 b2 07 4e
        E 120 b2 07 4f
        E 96 b2 07 50
        E 96 b2 07 51
        E 120 b2 07 52
        E 96 b2 07 53
        E 120 b2 07 54
        E 96 b2 07 55
        E 96 b2 07 56
        E 96 b2 07 57
        E 120 b2 07 58
        E 96 b2 07 59
        E 96 b2 07 5a
        E 120 b2 07 5b
        E 96 b2 07 5c
        E 120 b2 07 5d
        E 96 b2 07 5e
        E 96 b2 07 5f
        E 120 b2 07 60
        E 96 b2 07 61
        E 96 b2 07 62
        E 120 b2 07 63
        E 96 b2 07 64
        E 96 b2 07 65
        E 57 92 4d 00
        E 0 92 3b 00
        E 15 e2 14 2f
        E 0 92 4e 55
        E 0 92 3b 5f
        E 24 e2 1f 30
        E 24 e2 6f 31
        E 0 b2 07 66
        E 24 e2 40 33
        E 24 e2 4b 34
        E 24 e2 1c 36
        E 24 e2 6c 37
        E 0 b2 07 67
        E 24 e2 77 38
        E 24 e2 48 3a
        E 24 e2 19 3c
        E 24 e2 24 3d
        E 24 e2 00 40
        E 24 b2 07 5e
        E 81 92 4e 00
        E 0 92 3b 00
        E 3087 b2 07 55
        E 0 92 4d 4b
        E 48 b2 07 56
        E 24 b2 07 57
        E 48 b2 07 58
        E 48 b2 07 59
        E 24 b2 07 5a
        E 48 b2 07 5b
        E 48 b2 07 5c
        E 48 b2 07 5d
        E 24 b2 07 5e
        E 48 b2 07 5f
        E 48 b2 07 60
        E 48 b2 07 61
        E 24 b2 07 62
        E 48 b2 07 63
        E 48 b2 07 64
        E 24 b2 07 65
        E 48 b2 07 66
        E 48 b2 07 67
        E 9 92 4d 00
        E 15 92 4e 4b
        E 24 b2 07 68
        E 48 b2 07 69
        E 24 b2 07 6a
        E 48 b2 07 6b
        E 48 b2 07 6c
        E 24 b2 07 6d
        E 48 b2 07 6e
        E 48 b2 07 6f
        E 48 b2 07 70
        E 24 b2 07 71
        E 48 b2 07 72
        E 48 b2 07 73
        E 48 b2 07 74
        E 24 b2 07 75
        E 48 b2 07 76
        E 48 b2 07 77
        E 105 92 4e 00
        E 12303 b2 07 54
        E 0 92 31 46
        E 0 92 4c 46
        E 24 b2 07 55
        E 24 b2 07 56
        E 24 b2 07 57
        E 24 b2 07 58
        E 24 b2 07 59
        E 24 b2 07 5a
        E 24 b2 07 5b
        E 24 b2 07 5c
        E 24 b2 07 5d
        E 48 b2 07 5e
        E 24 b2 07 60
        E 48 b2 07 61
        E 24 b2 07 62
        E 24 b2 07 63
        E 24 b2 07 64
        E 24 b2 07 65
        E 24 b2 07 66
        E 24 b2 07 67
        E 24 b2 07 68
        E 24 b2 07 69
        E 24 b2 07 6a
        E 24 b2 07 6b
        E 24 b2 07 6c
        E 24 e2 7b 40
        E 0 b2 07 6d
        E 24 e2 6e 43
        E 0 b2 07 6e
        E 24 e2 61 46
        E 24 e2 58 48
        E 0 b2 07 6f
        E 24 e2 4b 4b
        E 0 b2 07 71
        E 24 e2 3e 4e
        E 24 e2 36 50
        E 24 e2 29 53
        E 0 b2 07 70
        E 24 e2 1c 56
        E 24 e2 13 58
        E 0 b2 07 6f
        E 24 e2 06 5b
        E 24 e2 79 5d
        E 24 e2 70 5f
        E 0 b2 07 6e
        E 24 e2 71 5f
        E 24 b2 07 6d
        E 48 b2 07 6c
        E 48 b2 07 6b
        E 72 b2 07 6a
        E 48 b2 07 69
        E 48 b2 07 68
        E 48 b2 07 67
        E 72 b2 07 66
        E 48 b2 07 65
        E 24 b2 07 61
        E 24 b2 07 5d
        E 24 b2 07 58
        E 24 b2 07 53
        E 24 b2 07 50
        E 9 92 31 00
        E 0 92 4c 00
        E 13 e2 00 40
        E 35330 b2 07 31
        E 0 92 47 41
        E 0 92 37 4b
        E 24 b2 07 34
        E 24 b2 07 39
        E 24 b2 07 3f
        E 24 b2 07 42
        E 24 b2 07 47
        E 48 b2 07 49
        E 24 b2 07 4a
        E 24 b2 07 4b
        E 24 b2 07 4d
        E 24 b2 07 4e
        E 24 b2 07 4f
        E 24 b2 07 51
        E 24 b2 07 52
        E 24 b2 07 54
        E 24 b2 07 55
        E 24 b2 07 56
        E 24 b2 07 58
        E 24 b2 07 59
        E 24 b2 07 5a
        E 24 b2 07 5c
        E 24 b2 07 5e
        E 24 b2 07 5f
        E 24 b2 07 60
        E 24 b2 07 62
        E 24 e2 7b 40
        E 0 b2 07 63
        E 24 e2 6e 43
        E 0 b2 07 64
        E 24 e2 61 46
        E 0 b2 07 66
        E 24 e2 58 48
        E 0 b2 07 67
        E 24 e2 4b 4b
        E 0 b2 07 68
        E 24 e2 3e 4e
        E 0 b2 07 6a
        E 24 e2 36 50
        E 0 b2 07 69
        E 24 e2 29 53
        E 0 b2 07 68
        E 24 e2 1c 56
        E 0 b2 07 67
        E 24 e2 13 58
        E 0 b2 07 66
        E 24 e2 06 5b
        E 0 b2 07 65
        E 24 e2 79 5d
        E 0 b2 07 64
        E 24 e2 70 5f
        E 0 b2 07 62
        E 24 e2 71 5f
        E 0 b2 07 61
        E 24 b2 07 60
        E 24 b2 07 5f
        E 24 b2 07 5e
        E 24 b2 07 5d
        E 24 b2 07 5b
        E 48 b2 07 59
        E 24 b2 07 58
        E 24 b2 07 57
        E 24 b2 07 56
        E 24 b2 07 54
        E 48 b2 07 52
        E 24 b2 07 51
        E 24 b2 07 50
        E 24 b2 07 4f
        E 24 b2 07 4d
        E 48 b2 07 4b
        E 24 b2 07 4a
        E 24 b2 07 47
        E 24 b2 07 40
        E 24 b2 07 39
        E 24 b2 07 33
        E 9 92 47 00
        E 0 92 37 00
        E 13 e2 00 40
        E 12290 b2 07 4a
        E 0 92 49 41
        E 0 92 2a 55
        E 24 b2 07 4b
        E 24 b2 07 4c
        E 24 b2 07 4d
        E 48 b2 07 4e
        E 24 b2 07 4f
        E 24 b2 07 50
        E 24 b2 07 51
        E 24 b2 07 52
        E 24 b2 07 53
        E 24 b2 07 54
        E 48 b2 07 55
        E 24 b2 07 56
        E 24 b2 07 57
        E 24 b2 07 58
        E 24 b2 07 59
        E 24 b2 07 5a
        E 48 b2 07 5b
        E 24 b2 07 5c
        E 24 b2 07 5d
        E 24 b2 07 5e
        E 24 b2 07 5f
        E 24 b2 07 60
        E 24 b2 07 61
        E 24 b2 07 62
        E 48 b2 07 63
        E 24 b2 07 64
        E 24 b2 07 65
        E 9 92 2a 00
        E 15 92 2e 55
        E 24 b2 07 64
        E 24 b2 07 63
        E 24 b2 07 61
        E 24 b2 07 60
        E 24 b2 07 5f
        E 24 b2 07 5d
        E 24 b2 07 5c
        E 24 b2 07 5b
        E 24 b2 07 5a
        E 24 b2 07 59
        E 24 b2 07 57
        E 24 b2 07 56
        E 24 b2 07 55
        E 24 b2 07 53
        E 24 b2 07 52
        E 24 b2 07 51
        E 24 b2 07 50
        E 24 b2 07 4e
        E 24 b2 07 4d
        E 24 b2 07 4c
        E 24 b2 07 4a
        E 24 b2 07 49
        E 24 b2 07 48
        E 24 b2 07 46
        E 48 b2 07 44
        E 24 b2 07 43
        E 24 b2 07 42
        E 24 b2 07 40
        E 24 b2 07 3f
        E 24 b2 07 3e
        E 9 92 49 00
        E 0 92 2e 00
        E 15 b2 07 3c
        E 0 92 46 41
        E 0 92 36 4b
        E 48 b2 07 3e
        E 24 b2 07 3f
        E 24 b2 07 40
        E 24 b2 07 41
        E 24 b2 07 42
        E 24 b2 07 44
        E 24 b2 07 45
        E 24 b2 07 46
        E 24 b2 07 47
        E 16 b2 07 48
        E 32 b2 07 49
        E 24 b2 07 4a
        E 24 b2 07 4b
        E 24 b2 07 4c
        E 9 92 46 00
        E 15 b2 07 4e
        E 0 92 44 41
        E 24 b2 07 4f
        E 24 b2 07 50
        E 24 b2 07 51
        E 24 b2 07 52
        E 24 b2 07 53
        E 8 b2 07 54
        E 40 b2 07 55
        E 24 b2 07 57
        E 24 b2 07 58
        E 24 b2 07 59
        E 24 b2 07 5a
        E 24 b2 07 5b
        E 24 b2 07 5c
        E 24 b2 07 5d
        E 24 b2 07 5e
        E 9 92 36 00
        E 0 92 44 00
        E 15 b2 07 5f
        E 0 92 47 47
        E 0 92 31 59
        E 24 b2 07 61
        E 24 b2 07 60
        E 24 b2 07 5f
        E 24 b2 07 5e
        E 24 b2 07 5d
        E 48 b2 07 5c
        E 24 b2 07 5b
        E 24 b2 07 5a
        E 24 b2 07 59
        E 48 b2 07 58
        E 24 b2 07 57
        E 24 b2 07 56
        E 24 b2 07 55
        E 9 92 47 00
        E 0 92 31 00
        E 15 92 45 47
        E 0 92 35 59
        E 24 b2 07 53
        E 24 b2 07 52
        E 48 b2 07 51
        E 24 b2 07 4f
        E 48 b2 07 4e
        E 24 b2 07 4d
        E 24 b2 07 4c
        E 24 b2 07 4b
        E 24 b2 07 4a
        E 24 b2 07 49
        E 24 b2 07 48
        E 24 b2 07 47
        E 24 b2 07 45
        E 9 92 45 00
        E 0 92 35 00
        E 15 e2 1c 28
        E 0 b2 07 42
        E 0 92 42 38
        E 24 e2 32 2b
        E 0 b2 07 52
        E 24 e2 12 30
        E 0 b2 07 53
        E 24 e2 73 34
        E 0 b2 07 54
        E 24 e2 09 38
        E 0 b2 07 55
        E 24 e2 6a 3c
        E 0 b2 07 56
        E 24 e2 00 40
        E 0 b2 07 57
        E 24 b2 07 58
        E 24 b2 07 59
        E 48 b2 07 5a
        E 24 b2 07 5b
        E 24 b2 07 5c
        E 24 b2 07 5d
        E 24 b2 07 5e
        E 24 b2 07 5f
        E 24 b2 07 5e
        E 24 b2 07 5b
        E 24 b2 07 57
        E 24 b2 07 53
        E 24 b2 07 50
        E 24 b2 07 4c
        E 24 b2 07 48
        E 24 b2 07 40
        E 24 b2 07 33
        E 0 92 42 00
        E 4032 b2 67 00
        E 338 b0 7b 00
        GUID {2A1DB71F-CD6F-4F9C-B01B-C372B70AC96F}
        IGNTEMPO 0 120 4 4
        SRCCOLOR 5
        VELLANE 131 77 128
        CFGEDITVIEW 62147.321376 15.326281 32 12 0 -1 0 0 0 0.5
        KEYSNAP 0
        TRACKSEL 0
        EVTFILTER 0 -1 -1 -1 -1 0 0 0 0 -1 -1 -1 -1 0 -1 0 -1 -1
        CFGEDIT 1 1 0 1 0 1 1 1 1 1 1 0.125 655 208 1820 901 0 0 2 2 0 0 0 0 0 0.5 0 0 1 64
      >
    >
  >
  <TRACK {F784895E-F297-4F09-8EBF-F89D533F370E}
    NAME "7 Strings 2 (keys)"
    PEAKCOL 16576
    BEAT -1
    AUTOMODE 0
    VOLPAN 1 0 -1 -1 1
    MUTESOLO 0 0 0
    IPHASE 0
    ISBUS 0 0
    BUSCOMP 0 0
    SHOWINMIX 1 0.6667 0.5 1 0.5 0 0 0
    FREEMODE 0
    SEL 0
    REC 0 0 0 0 0 0 0
    VU 2
    TRACKHEIGHT 0 0
    INQ 0 0 0 0.5 100 0 0 100
    NCHAN 2
    FX 1
    TRACKID {F784895E-F297-4F09-8EBF-F89D533F370E}
    PERF 0
    MIDIOUT -1
    MAINSEND 1 0
    <FXCHAIN
      WNDRECT 50 94 958 586
      SHOW 0
      LASTSEL 0
      DOCKED 0
      BYPASS 0 0 0
      <VST "VSTi: sforzando (Plogue Art et Technologie, Inc)" "sforzando VST_x86.dll" 0 "" 1347176273
        UUdMUO5e7f4AAAAAAgAAAAEAAAAAAAAAAgAAAAAAAADkAQAAAQAAAAAAEAA=
        Q0VHUCYFAAB4nI1UTY+bMBC9V+p/sHzfYBNCghS6ynajikPUSmzPaABviuqPLZgo/fcdQwho1RVwwX7zPJ558Gb/eFWSXETdVEbHlK8YJY9fPn/aH+oKUriISSzinJK3
        2pRtYZNnBBgPKHIJPvtUWFvpc0P+tCAr+xfDlDS2FqAQjunap0TBNe2Qg5SmOD3FdMMRPiXPyffWnkwpulPQWqPA4qWpNDambApJcREyppXG3K0S2lIiq4voDyOzKWIa
        bd0bJCDCyQMRrqZVU8gb/BWPiTqmIfLP0uQgX1rdVYmAd+8ILydV2YEaFKYvZeMdr7aGwooyNa0uc9C/M8YyF3nq1/3jMbbNEldkxrAax0swVYAhOkqK6+IXaO06enDi
        GonChQEldizoLc9q0Gdxo+D1uukCarI0hcWPNSqAKVRrO+DWT9fTCSo99HQB2faCe/+l8DuFfUTx5ynreUowT9nMU8J5ynaespunRPMUzhZwFujLFwjMFyjMF0jMP9b4
        B9Sg3in4/rcZOdyfKLTyN9Eu8Dc8iCK+Ddl6YjDPOWzYHF9fRWGnnhuc3HvvoPJK6EKMXurGz2Q87YJwkvzbz2RIhHbFCZGMw6TbH+/7RkjhHP0Cee8xl2TvDRMQN/8A
        pzpbHA==
        AAAQAAAA
      >
      FLOATPOS 0 0 0 0
      FXID {92C3B084-9BF7-4F80-A00A-6F1B2160D086}
      WAK 0
    >
    <ITEM
      POSITION 0
      SNAPOFFS 0
      LENGTH 108.69834800000014
      LOOP 0
      ALLTAKES 0
      FADEIN 1 0 0 1 0 0
      FADEOUT 1 0 0 1 0 0
      MUTE 0
      SEL 0
      IGUID {F2F260F4-1782-4BC9-84EE-25174844AF86}
      IID 4
      NAME "Kirby 64 - The Crystal Shards (U) 00000017 0027D0DC.mid"
      VOLPAN 1 0 1 -1
      SOFFS 0.0010847121468 0.00260334530939
      PLAYRATE 1 1 0 -1 0 0.0025
      CHANMODE 0
      GUID {7C050509-B776-496A-85DE-B88C21636873}
      <SOURCE MIDI
        HASDATA 1 384 QN
        POOLEDEVTS {A24CC1A3-92C3-47CC-A59C-9C314EC3C107}
        E 4578 c3 07 00
        E 1551 b3 16 28
        E 1552 b3 66 00
        E 1536 c3 07 00
        E 0 d3 21 00
        E 0 e3 00 40
        E 0 b3 07 2e
        E 0 b3 16 28
        E 0 b3 19 7f
        E 0 b3 0a 22
        E 0 93 44 55
        E 48 b3 07 2f
        E 72 b3 07 30
        E 96 b3 07 31
        E 120 b3 07 32
        E 96 b3 07 33
        E 96 b3 07 34
        E 96 b3 07 35
        E 96 b3 07 36
        E 96 b3 07 37
        E 96 b3 07 38
        E 96 b3 07 39
        E 120 b3 07 3a
        E 96 b3 07 3b
        E 96 b3 07 3c
        E 96 b3 07 3d
        E 96 b3 07 3e
        E 96 b3 07 3f
        E 96 b3 07 40
        E 96 b3 07 41
        E 120 b3 07 42
        E 96 b3 07 43
        E 96 b3 07 44
        E 96 b3 07 45
        E 96 b3 07 46
        E 96 b3 07 47
        E 96 b3 07 48
        E 96 b3 07 49
        E 81 93 44 00
        E 15 93 44 55
        E 24 b3 07 4a
        E 96 b3 07 4b
        E 96 b3 07 4c
        E 96 b3 07 4d
        E 57 93 44 00
        E 15 93 44 55
        E 24 b3 07 4e
        E 96 b3 07 4f
        E 96 b3 07 50
        E 96 b3 07 51
        E 120 b3 07 52
        E 96 b3 07 53
        E 96 b3 07 54
        E 96 b3 07 55
        E 96 b3 07 56
        E 96 b3 07 57
        E 96 b3 07 58
        E 96 b3 07 59
        E 120 b3 07 5a
        E 96 b3 07 5b
        E 96 b3 07 5c
        E 96 b3 07 5d
        E 96 b3 07 5e
        E 96 b3 07 5f
        E 96 b3 07 60
        E 96 b3 07 61
        E 120 b3 07 62
        E 96 b3 07 63
        E 96 b3 07 64
        E 96 b3 07 65
        E 96 b3 07 66
        E 96 b3 07 67
        E 96 b3 07 68
        E 81 93 44 00
        E 15 e3 14 2f
        E 0 b3 07 69
        E 0 93 44 55
        E 24 e3 1f 30
        E 24 e3 6f 31
        E 24 e3 40 33
        E 24 e3 4b 34
        E 24 e3 1c 36
        E 24 e3 6c 37
        E 24 e3 77 38
        E 24 e3 48 3a
        E 0 b3 07 5e
        E 24 e3 19 3c
        E 24 e3 24 3d
        E 24 e3 00 40
        E 105 93 44 00
        E 3087 e3 00 40
        E 0 b3 07 30
        E 0 93 41 55
        E 24 b3 07 31
        E 120 b3 07 32
        E 96 b3 07 33
        E 96 b3 07 34
        E 120 b3 07 35
        E 96 b3 07 36
        E 96 b3 07 37
        E 120 b3 07 38
        E 96 b3 07 39
        E 120 b3 07 3a
        E 96 b3 07 3b
        E 96 b3 07 3c
        E 96 b3 07 3d
        E 120 b3 07 3e
        E 96 b3 07 3f
        E 96 b3 07 40
        E 120 b3 07 41
        E 96 b3 07 42
        E 120 b3 07 43
        E 96 b3 07 44
        E 96 b3 07 45
        E 120 b3 07 46
        E 96 b3 07 47
        E 96 b3 07 48
        E 96 b3 07 49
        E 120 b3 07 4a
        E 48 93 41 00
        E 0 93 42 55
        E 48 b3 07 4b
        E 120 b3 07 4c
        E 96 b3 07 4d
        E 96 b3 07 4e
        E 9 93 42 00
        E 15 93 45 55
        E 96 b3 07 4f
        E 96 b3 07 50
        E 96 b3 07 51
        E 120 b3 07 52
        E 96 b3 07 53
        E 96 b3 07 54
        E 120 b3 07 55
        E 96 b3 07 56
        E 120 b3 07 57
        E 96 b3 07 58
        E 96 b3 07 59
        E 96 b3 07 5a
        E 120 b3 07 5b
        E 96 b3 07 5c
        E 96 b3 07 5d
        E 120 b3 07 5e
        E 96 b3 07 5f
        E 120 b3 07 60
        E 96 b3 07 61
        E 96 b3 07 62
        E 120 b3 07 63
        E 96 b3 07 64
        E 96 b3 07 65
        E 96 b3 07 66
        E 120 b3 07 67
        E 96 e3 14 2f
        E 0 b3 07 68
        E 0 93 45 00
        E 0 93 45 55
        E 24 e3 1f 30
        E 24 e3 6f 31
        E 24 e3 40 33
        E 24 e3 4b 34
        E 24 e3 1c 36
        E 0 b3 07 69
        E 24 e3 6c 37
        E 24 e3 77 38
        E 24 e3 48 3a
        E 24 e3 19 3c
        E 24 e3 24 3d
        E 24 e3 00 40
        E 24 b3 07 5e
        E 81 93 45 00
        E 3087 b3 07 55
        E 0 93 2a 55
        E 0 93 45 4b
        E 48 b3 07 56
        E 24 b3 07 57
        E 48 b3 07 58
        E 48 b3 07 59
        E 24 b3 07 5a
        E 48 b3 07 5b
        E 48 b3 07 5c
        E 48 b3 07 5d
        E 24 b3 07 5e
        E 48 b3 07 5f
        E 48 b3 07 60
        E 48 b3 07 61
        E 24 b3 07 62
        E 48 b3 07 63
        E 48 b3 07 64
        E 24 b3 07 65
        E 48 b3 07 66
        E 48 b3 07 67
        E 9 93 2a 00
        E 0 93 45 00
        E 15 93 28 55
        E 0 93 46 4b
        E 24 b3 07 68
        E 48 b3 07 69
        E 24 b3 07 6a
        E 48 b3 07 6b
        E 48 b3 07 6c
        E 24 b3 07 6d
        E 48 b3 07 6e
        E 48 b3 07 6f
        E 48 b3 07 70
        E 24 b3 07 71
        E 48 b3 07 72
        E 48 b3 07 73
        E 48 b3 07 74
        E 24 b3 07 75
        E 48 b3 07 76
        E 48 b3 07 77
        E 105 93 28 00
        E 0 93 46 00
        E 12303 b3 07 54
        E 0 93 41 46
        E 24 b3 07 55
        E 24 b3 07 56
        E 24 b3 07 57
        E 24 b3 07 58
        E 24 b3 07 59
        E 24 b3 07 5a
        E 24 b3 07 5b
        E 24 b3 07 5c
        E 24 b3 07 5d
        E 48 b3 07 5e
        E 24 b3 07 60
        E 48 b3 07 61
        E 24 b3 07 62
        E 24 b3 07 63
        E 24 b3 07 64
        E 24 b3 07 65
        E 24 b3 07 66
        E 24 b3 07 67
        E 24 b3 07 68
        E 24 b3 07 69
        E 24 b3 07 6a
        E 24 b3 07 6b
        E 24 b3 07 6c
        E 24 e3 7b 40
        E 0 b3 07 6d
        E 24 e3 6e 43
        E 0 b3 07 6e
        E 24 e3 61 46
        E 24 e3 58 48
        E 0 b3 07 6f
        E 24 e3 4b 4b
        E 0 b3 07 71
        E 24 e3 3e 4e
        E 24 e3 36 50
        E 24 e3 29 53
        E 0 b3 07 70
        E 24 e3 1c 56
        E 24 e3 13 58
        E 0 b3 07 6f
        E 24 e3 06 5b
        E 24 e3 79 5d
        E 24 e3 70 5f
        E 0 b3 07 6e
        E 24 e3 71 5f
        E 24 b3 07 6d
        E 48 b3 07 6c
        E 48 b3 07 6b
        E 72 b3 07 6a
        E 48 b3 07 69
        E 48 b3 07 68
        E 48 b3 07 67
        E 72 b3 07 66
        E 48 b3 07 65
        E 24 b3 07 61
        E 24 b3 07 5d
        E 24 b3 07 58
        E 24 b3 07 53
        E 24 b3 07 50
        E 9 93 41 00
        E 13 e3 00 40
        E 35330 b3 07 31
        E 0 93 3f 41
        E 24 b3 07 34
        E 24 b3 07 39
        E 24 b3 07 3f
        E 24 b3 07 42
        E 24 b3 07 47
        E 48 b3 07 49
        E 24 b3 07 4a
        E 24 b3 07 4b
        E 24 b3 07 4d
        E 24 b3 07 4e
        E 24 b3 07 4f
        E 24 b3 07 51
        E 24 b3 07 52
        E 24 b3 07 54
        E 24 b3 07 55
        E 24 b3 07 56
        E 24 b3 07 58
        E 24 b3 07 59
        E 24 b3 07 5a
        E 24 b3 07 5c
        E 24 b3 07 5e
        E 24 b3 07 5f
        E 24 b3 07 60
        E 24 b3 07 62
        E 24 e3 7b 40
        E 0 b3 07 63
        E 24 e3 6e 43
        E 0 b3 07 64
        E 24 e3 61 46
        E 0 b3 07 66
        E 24 e3 58 48
        E 0 b3 07 67
        E 24 e3 4b 4b
        E 0 b3 07 68
        E 24 e3 3e 4e
        E 0 b3 07 6a
        E 24 e3 36 50
        E 0 b3 07 69
        E 24 e3 29 53
        E 0 b3 07 68
        E 24 e3 1c 56
        E 0 b3 07 67
        E 24 e3 13 58
        E 0 b3 07 66
        E 24 e3 06 5b
        E 0 b3 07 65
        E 24 e3 79 5d
        E 0 b3 07 64
        E 24 e3 70 5f
        E 0 b3 07 62
        E 24 e3 71 5f
        E 0 b3 07 61
        E 24 b3 07 60
        E 24 b3 07 5f
        E 24 b3 07 5e
        E 24 b3 07 5d
        E 24 b3 07 5b
        E 48 b3 07 59
        E 24 b3 07 58
        E 24 b3 07 57
        E 24 b3 07 56
        E 24 b3 07 54
        E 48 b3 07 52
        E 24 b3 07 51
        E 24 b3 07 50
        E 24 b3 07 4f
        E 24 b3 07 4d
        E 48 b3 07 4b
        E 24 b3 07 4a
        E 24 b3 07 47
        E 24 b3 07 40
        E 24 b3 07 39
        E 24 b3 07 33
        E 9 93 3f 00
        E 13 e3 00 40
        E 12290 b3 07 4a
        E 0 93 41 41
        E 24 b3 07 4b
        E 24 b3 07 4c
        E 24 b3 07 4d
        E 48 b3 07 4e
        E 24 b3 07 4f
        E 24 b3 07 50
        E 24 b3 07 51
        E 24 b3 07 52
        E 24 b3 07 53
        E 24 b3 07 54
        E 48 b3 07 55
        E 24 b3 07 56
        E 24 b3 07 57
        E 24 b3 07 58
        E 24 b3 07 59
        E 24 b3 07 5a
        E 48 b3 07 5b
        E 24 b3 07 5c
        E 24 b3 07 5d
        E 24 b3 07 5e
        E 24 b3 07 5f
        E 24 b3 07 60
        E 24 b3 07 61
        E 24 b3 07 62
        E 48 b3 07 63
        E 24 b3 07 64
        E 24 b3 07 65
        E 24 b3 07 66
        E 24 b3 07 64
        E 24 b3 07 63
        E 24 b3 07 62
        E 24 b3 07 60
        E 24 b3 07 5f
        E 24 b3 07 5e
        E 24 b3 07 5c
        E 24 b3 07 5b
        E 24 b3 07 5a
        E 24 b3 07 58
        E 24 b3 07 57
        E 24 b3 07 56
        E 24 b3 07 55
        E 24 b3 07 54
        E 24 b3 07 52
        E 24 b3 07 51
        E 24 b3 07 50
        E 24 b3 07 4e
        E 24 b3 07 4d
        E 24 b3 07 4c
        E 24 b3 07 4a
        E 24 b3 07 49
        E 24 b3 07 48
        E 24 b3 07 47
        E 24 b3 07 45
        E 24 b3 07 44
        E 24 b3 07 43
        E 24 b3 07 41
        E 24 b3 07 40
        E 24 b3 07 3f
        E 24 b3 07 3d
        E 3 93 41 00
        E 21 b3 07 3c
        E 0 93 3e 4b
        E 48 b3 07 3e
        E 24 b3 07 3f
        E 24 b3 07 40
        E 24 b3 07 41
        E 24 b3 07 42
        E 24 b3 07 44
        E 24 b3 07 45
        E 24 b3 07 46
        E 24 b3 07 47
        E 16 b3 07 48
        E 32 b3 07 49
        E 24 b3 07 4a
        E 24 b3 07 4b
        E 24 b3 07 4c
        E 24 b3 07 4e
        E 24 b3 07 4f
        E 24 b3 07 50
        E 24 b3 07 51
        E 24 b3 07 52
        E 24 b3 07 53
        E 8 b3 07 54
        E 40 b3 07 55
        E 24 b3 07 57
        E 24 b3 07 58
        E 24 b3 07 59
        E 24 b3 07 5a
        E 24 b3 07 5b
        E 24 b3 07 5c
        E 24 b3 07 5d
        E 24 b3 07 5e
        E 9 93 3e 00
        E 15 b3 07 5f
        E 0 93 3e 4b
        E 24 b3 07 61
        E 24 b3 07 60
        E 24 b3 07 5f
        E 24 b3 07 5e
        E 24 b3 07 5d
        E 48 b3 07 5c
        E 24 b3 07 5b
        E 24 b3 07 5a
        E 24 b3 07 59
        E 48 b3 07 58
        E 24 b3 07 57
        E 24 b3 07 56
        E 24 b3 07 55
        E 48 b3 07 53
        E 24 b3 07 52
        E 48 b3 07 51
        E 24 b3 07 4f
        E 48 b3 07 4e
        E 24 b3 07 4d
        E 24 b3 07 4c
        E 24 b3 07 4b
        E 24 b3 07 4a
        E 24 b3 07 49
        E 24 b3 07 48
        E 24 b3 07 47
        E 24 b3 07 45
        E 9 93 3e 00
        E 15 e3 1c 28
        E 0 b3 0a 7f
        E 0 b3 07 51
        E 0 93 36 40
        E 24 e3 32 2b
        E 0 b3 07 52
        E 24 e3 12 30
        E 0 b3 07 53
        E 24 e3 73 34
        E 0 b3 07 54
        E 24 e3 09 38
        E 0 b3 07 55
        E 24 e3 6a 3c
        E 0 b3 07 56
        E 24 e3 00 40
        E 0 b3 07 57
        E 24 b3 07 58
        E 24 b3 07 59
        E 48 b3 07 5a
        E 24 b3 07 5b
        E 24 b3 07 5c
        E 24 b3 07 5d
        E 24 b3 07 5e
        E 24 b3 07 5f
        E 24 b3 07 5e
        E 24 b3 07 5b
        E 24 b3 07 57
        E 24 b3 07 53
        E 24 b3 07 50
        E 24 b3 07 4c
        E 24 b3 07 48
        E 24 b3 07 40
        E 24 b3 07 33
        E 0 93 36 00
        E 4032 b3 67 00
        E 338 b0 7b 00
        GUID {500EAB3A-191C-4050-96D0-08E4F859E318}
        IGNTEMPO 0 120 4 4
        SRCCOLOR 6
        VELLANE 131 77 128
        CFGEDITVIEW 66682.702474 15.326281 43 12 0 -1 0 0 0 0.5
        KEYSNAP 0
        TRACKSEL 0
        EVTFILTER 0 -1 -1 -1 -1 0 0 0 0 -1 -1 -1 -1 0 -1 0 -1 -1
        CFGEDIT 1 1 0 1 0 1 1 1 1 1 1 0.125 655 208 1820 901 0 0 2 2 0 0 0 0 0 0.5 0 0 1 64
      >
    >
  >
  <TRACK {393E3990-E265-4910-9B3F-3CE188D7A226}
    NAME "7 Strings 3 (keys)"
    PEAKCOL 16576
    BEAT -1
    AUTOMODE 0
    VOLPAN 1 0 -1 -1 1
    MUTESOLO 0 0 0
    IPHASE 0
    ISBUS 0 0
    BUSCOMP 0 0
    SHOWINMIX 1 0.6667 0.5 1 0.5 0 0 0
    FREEMODE 0
    SEL 0
    REC 0 0 0 0 0 0 0
    VU 2
    TRACKHEIGHT 0 0
    INQ 0 0 0 0.5 100 0 0 100
    NCHAN 2
    FX 1
    TRACKID {393E3990-E265-4910-9B3F-3CE188D7A226}
    PERF 0
    MIDIOUT -1
    MAINSEND 1 0
    <FXCHAIN
      WNDRECT 46 90 962 590
      SHOW 0
      LASTSEL 0
      DOCKED 0
      BYPASS 0 0 0
      <VST "VSTi: sforzando (Plogue Art et Technologie, Inc)" "sforzando VST_x86.dll" 0 "" 1347176273
        UUdMUO5e7f4AAAAAAgAAAAEAAAAAAAAAAgAAAAAAAADnAQAAAQAAAAAAEAA=
        Q0VHUE0FAAB4nI1UUW+bMBB+n7T/YPm9wSaEBCm0Stdo4iHaJNpndICbohnTgUHZv9/ZJICqdeAn+7vP57sPvts/XEpJOlE3RaVCyleMkof7r1/2h7qAGDoxiQWcU/Je
        V3mb6egJAcY9ilyCax8LrQt1bsjvFmSh/2CYkkbXAkqEQ7p2KSnhElvkIGWVnR5DuuEIn6Kn6EerT1Uu7C1odVWCxkdjWemQsikkRSdkSAuFudtSKE2JLDrRX0Zmk9nC
        zAYkIMTJHRGmqFWTySv8De+JOqQ+XjjLKgX53CpbJgLO0BK+TorcggpKzJ/LxjledA2ZFnlctSpPQf1KGEtM5LHf98thbJtEpsqEbSkxvAhTeRiio6a4z95AKdPSnVG3
        kqic71Gix4Le06QGdRZXCj6vGhsoJ9sq0/i1BgmCHWKttsC1H9vTCQp166kD2faKO/+k8IHCPqO485T1PMWbp2zmKf48ZTtP2c1TgnkKZws4C/TlCwTmCxTmCyTmn2v8
        E2ooPyj48bcZOf9pfkJyJzKu3E2w89wN94KAb322nrjQMTa8HY6vryLTU2MOfu8deijTQqhMjI6zU2oyxXaeP8n+/SW6ZUJT4yCJxpljz8fh3AgpjO+fIe2daJLsndug
        xMNfjppj8g==
        AAAQAAAA
      >
      FLOATPOS 0 0 0 0
      FXID {98722A6B-E177-4033-8B6B-F8D74C4C31EC}
      WAK 0
    >
    <ITEM
      POSITION 0
      SNAPOFFS 0
      LENGTH 108.69834800000014
      LOOP 0
      ALLTAKES 0
      FADEIN 1 0 0 1 0 0
      FADEOUT 1 0 0 1 0 0
      MUTE 0
      SEL 0
      IGUID {F474443C-7A0E-4EFA-8227-BD33951ECC47}
      IID 5
      NAME "Kirby 64 - The Crystal Shards (U) 00000017 0027D0DC.mid"
      VOLPAN 1 0 1 -1
      SOFFS 0.0010847121468 0.00260334530939
      PLAYRATE 1 1 0 -1 0 0.0025
      CHANMODE 0
      GUID {CBE6B506-1DA8-4642-AACC-EE997F0B87B0}
      <SOURCE MIDI
        HASDATA 1 384 QN
        POOLEDEVTS {077C4C69-15C2-4C27-8D94-6AC9F29D6B06}
        E 4578 c4 07 00
        E 1551 b4 16 28
        E 1552 b4 66 00
        E 1536 c4 07 00
        E 0 d4 21 00
        E 0 e4 00 40
        E 0 b4 07 30
        E 0 b4 19 7f
        E 0 b4 16 28
        E 0 b4 0a 5e
        E 0 94 3c 5f
        E 24 b4 07 31
        E 120 b4 07 32
        E 96 b4 07 33
        E 96 b4 07 34
        E 96 b4 07 35
        E 120 b4 07 36
        E 96 b4 07 37
        E 120 b4 07 38
        E 96 b4 07 39
        E 96 b4 07 3a
        E 96 b4 07 3b
        E 96 b4 07 3c
        E 120 b4 07 3d
        E 96 b4 07 3e
        E 120 b4 07 3f
        E 96 b4 07 40
        E 96 b4 07 41
        E 96 b4 07 42
        E 120 b4 07 43
        E 96 b4 07 44
        E 96 b4 07 45
        E 120 b4 07 46
        E 96 b4 07 47
        E 96 b4 07 48
        E 96 b4 07 49
        E 120 b4 07 4a
        E 57 94 3c 00
        E 15 94 3c 5f
        E 24 b4 07 4b
        E 96 b4 07 4c
        E 120 b4 07 4d
        E 96 b4 07 4e
        E 33 94 3c 00
        E 15 94 3c 5f
        E 48 b4 07 4f
        E 120 b4 07 50
        E 96 b4 07 51
        E 96 b4 07 52
        E 96 b4 07 53
        E 120 b4 07 54
        E 96 b4 07 55
        E 96 b4 07 56
        E 120 b4 07 57
        E 96 b4 07 58
        E 96 b4 07 59
        E 96 b4 07 5a
        E 120 b4 07 5b
        E 96 b4 07 5c
        E 120 b4 07 5d
        E 96 b4 07 5e
        E 96 b4 07 5f
        E 96 b4 07 60
        E 96 b4 07 61
        E 120 b4 07 62
        E 96 b4 07 63
        E 120 b4 07 64
        E 96 b4 07 65
        E 96 b4 07 66
        E 96 b4 07 67
        E 120 b4 07 68
        E 33 94 3c 00
        E 15 e4 14 2f
        E 0 94 3c 5f
        E 24 e4 1f 30
        E 24 e4 6f 31
        E 0 b4 07 69
        E 24 e4 40 33
        E 24 e4 4b 34
        E 24 e4 1c 36
        E 24 e4 6c 37
        E 24 e4 77 38
        E 24 e4 48 3a
        E 0 b4 07 5e
        E 24 e4 19 3c
        E 24 e4 24 3d
        E 24 e4 00 40
        E 105 94 3c 00
        E 3087 e4 00 40
        E 0 b4 07 30
        E 0 94 3b 5f
        E 24 b4 07 31
        E 120 b4 07 32
        E 96 b4 07 33
        E 96 b4 07 34
        E 120 b4 07 35
        E 96 b4 07 36
        E 96 b4 07 37
        E 120 b4 07 38
        E 96 b4 07 39
        E 120 b4 07 3a
        E 96 b4 07 3b
        E 120 b4 07 3c
        E 96 b4 07 3d
        E 96 b4 07 3e
        E 120 b4 07 3f
        E 96 b4 07 40
        E 96 b4 07 41
        E 120 b4 07 42
        E 96 b4 07 43
        E 96 b4 07 44
        E 120 b4 07 45
        E 96 b4 07 46
        E 120 b4 07 47
        E 96 b4 07 48
        E 96 b4 07 49
        E 120 b4 07 4a
        E 24 94 3b 00
        E 0 94 3d 5f
        E 72 b4 07 4b
        E 96 b4 07 4c
        E 120 b4 07 4d
        E 81 94 3d 00
        E 15 b4 07 4e
        E 0 94 3d 5f
        E 120 b4 07 4f
        E 96 b4 07 50
        E 96 b4 07 51
        E 120 b4 07 52
        E 96 b4 07 53
        E 120 b4 07 54
        E 96 b4 07 55
        E 96 b4 07 56
        E 120 b4 07 57
        E 96 b4 07 58
        E 96 b4 07 59
        E 120 b4 07 5a
        E 96 b4 07 5b
        E 96 b4 07 5c
        E 120 b4 07 5d
        E 96 b4 07 5e
        E 120 b4 07 5f
        E 96 b4 07 60
        E 120 b4 07 61
        E 96 b4 07 62
        E 96 b4 07 63
        E 120 b4 07 64
        E 96 b4 07 65
        E 96 b4 07 66
        E 120 b4 07 67
        E 48 e4 14 2f
        E 0 94 3d 00
        E 0 94 41 5f
        E 24 e4 1f 30
        E 24 e4 6f 31
        E 0 b4 07 68
        E 24 e4 40 33
        E 24 e4 4b 34
        E 24 e4 1c 36
        E 24 e4 6c 37
        E 0 b4 07 69
        E 24 e4 77 38
        E 24 e4 48 3a
        E 24 e4 19 3c
        E 24 e4 24 3d
        E 24 e4 00 40
        E 24 b4 07 5e
        E 81 94 41 00
        E 3087 b4 07 55
        E 0 94 3d 4b
        E 48 b4 07 56
        E 24 b4 07 57
        E 48 b4 07 58
        E 48 b4 07 59
        E 24 b4 07 5a
        E 48 b4 07 5b
        E 48 b4 07 5c
        E 48 b4 07 5d
        E 24 b4 07 5e
        E 48 b4 07 5f
        E 48 b4 07 60
        E 48 b4 07 61
        E 24 b4 07 62
        E 48 b4 07 63
        E 48 b4 07 64
        E 24 b4 07 65
        E 48 b4 07 66
        E 48 b4 07 67
        E 9 94 3d 00
        E 15 94 3e 4b
        E 24 b4 07 68
        E 48 b4 07 69
        E 24 b4 07 6a
        E 48 b4 07 6b
        E 48 b4 07 6c
        E 24 b4 07 6d
        E 48 b4 07 6e
        E 48 b4 07 6f
        E 48 b4 07 70
        E 24 b4 07 71
        E 48 b4 07 72
        E 48 b4 07 73
        E 48 b4 07 74
        E 24 b4 07 75
        E 48 b4 07 76
        E 48 b4 07 77
        E 105 94 3e 00
        E 12303 b4 07 54
        E 0 94 39 46
        E 24 b4 07 55
        E 24 b4 07 56
        E 24 b4 07 57
        E 24 b4 07 58
        E 24 b4 07 59
        E 24 b4 07 5a
        E 24 b4 07 5b
        E 24 b4 07 5c
        E 24 b4 07 5d
        E 48 b4 07 5e
        E 24 b4 07 60
        E 48 b4 07 61
        E 24 b4 07 62
        E 24 b4 07 63
        E 24 b4 07 64
        E 24 b4 07 65
        E 24 b4 07 66
        E 24 b4 07 67
        E 24 b4 07 68
        E 24 b4 07 69
        E 24 b4 07 6a
        E 24 b4 07 6b
        E 24 b4 07 6c
        E 24 e4 7b 40
        E 0 b4 07 6d
        E 24 e4 6e 43
        E 0 b4 07 6e
        E 24 e4 61 46
        E 24 e4 58 48
        E 0 b4 07 6f
        E 24 e4 4b 4b
        E 0 b4 07 71
        E 24 e4 3e 4e
        E 24 e4 36 50
        E 24 e4 29 53
        E 0 b4 07 70
        E 24 e4 1c 56
        E 24 e4 13 58
        E 0 b4 07 6f
        E 24 e4 06 5b
        E 24 e4 79 5d
        E 24 e4 70 5f
        E 0 b4 07 6e
        E 24 e4 71 5f
        E 24 b4 07 6d
        E 48 b4 07 6c
        E 48 b4 07 6b
        E 72 b4 07 6a
        E 48 b4 07 69
        E 48 b4 07 68
        E 48 b4 07 67
        E 72 b4 07 66
        E 48 b4 07 65
        E 24 b4 07 61
        E 24 b4 07 5d
        E 24 b4 07 58
        E 24 b4 07 53
        E 24 b4 07 50
        E 9 94 39 00
        E 13 e4 00 40
        E 35330 b4 07 31
        E 0 94 3c 4b
        E 24 b4 07 34
        E 24 b4 07 39
        E 24 b4 07 3f
        E 24 b4 07 42
        E 24 b4 07 47
        E 48 b4 07 49
        E 24 b4 07 4a
        E 24 b4 07 4b
        E 24 b4 07 4d
        E 24 b4 07 4e
        E 24 b4 07 4f
        E 24 b4 07 51
        E 24 b4 07 52
        E 24 b4 07 54
        E 24 b4 07 55
        E 24 b4 07 56
        E 24 b4 07 58
        E 24 b4 07 59
        E 24 b4 07 5a
        E 24 b4 07 5c
        E 24 b4 07 5e
        E 24 b4 07 5f
        E 24 b4 07 60
        E 24 b4 07 62
        E 24 e4 7b 40
        E 0 b4 07 63
        E 24 e4 6e 43
        E 0 b4 07 64
        E 24 e4 61 46
        E 0 b4 07 66
        E 24 e4 58 48
        E 0 b4 07 67
        E 24 e4 4b 4b
        E 0 b4 07 68
        E 24 e4 3e 4e
        E 0 b4 07 6a
        E 24 e4 36 50
        E 0 b4 07 69
        E 24 e4 29 53
        E 0 b4 07 68
        E 24 e4 1c 56
        E 0 b4 07 67
        E 24 e4 13 58
        E 0 b4 07 66
        E 24 e4 06 5b
        E 0 b4 07 65
        E 24 e4 79 5d
        E 0 b4 07 64
        E 24 e4 70 5f
        E 0 b4 07 62
        E 24 e4 71 5f
        E 0 b4 07 61
        E 24 b4 07 60
        E 24 b4 07 5f
        E 24 b4 07 5e
        E 24 b4 07 5d
        E 24 b4 07 5b
        E 48 b4 07 59
        E 24 b4 07 58
        E 24 b4 07 57
        E 24 b4 07 56
        E 24 b4 07 54
        E 48 b4 07 52
        E 24 b4 07 51
        E 24 b4 07 50
        E 24 b4 07 4f
        E 24 b4 07 4d
        E 48 b4 07 4b
        E 24 b4 07 4a
        E 24 b4 07 47
        E 24 b4 07 40
        E 24 b4 07 39
        E 24 b4 07 33
        E 9 94 3c 00
        E 13 e4 00 40
        E 12290 b4 07 4a
        E 0 94 39 4b
        E 24 b4 07 4b
        E 24 b4 07 4c
        E 24 b4 07 4d
        E 48 b4 07 4e
        E 24 b4 07 4f
        E 24 b4 07 50
        E 24 b4 07 51
        E 24 b4 07 52
        E 24 b4 07 53
        E 24 b4 07 54
        E 48 b4 07 55
        E 24 b4 07 56
        E 24 b4 07 57
        E 24 b4 07 58
        E 24 b4 07 59
        E 24 b4 07 5a
        E 48 b4 07 5b
        E 24 b4 07 5c
        E 24 b4 07 5d
        E 24 b4 07 5e
        E 24 b4 07 5f
        E 24 b4 07 60
        E 24 b4 07 61
        E 24 b4 07 62
        E 48 b4 07 63
        E 24 b4 07 64
        E 24 b4 07 65
        E 48 b4 07 64
        E 24 b4 07 62
        E 24 b4 07 61
        E 24 b4 07 60
        E 24 b4 07 5f
        E 24 b4 07 5d
        E 24 b4 07 5c
        E 24 b4 07 5b
        E 24 b4 07 59
        E 24 b4 07 58
        E 24 b4 07 57
        E 24 b4 07 55
        E 24 b4 07 54
        E 24 b4 07 53
        E 24 b4 07 51
        E 48 b4 07 4f
        E 24 b4 07 4e
        E 24 b4 07 4d
        E 24 b4 07 4b
        E 24 b4 07 4a
        E 24 b4 07 49
        E 24 b4 07 47
        E 24 b4 07 46
        E 24 b4 07 45
        E 24 b4 07 43
        E 24 b4 07 42
        E 24 b4 07 41
        E 24 b4 07 40
        E 24 b4 07 3e
        E 24 b4 07 3d
        E 3 94 39 00
        E 21 b4 07 3c
        E 0 94 3b 55
        E 24 b4 07 3d
        E 24 b4 07 3e
        E 24 b4 07 3f
        E 24 b4 07 40
        E 24 b4 07 41
        E 24 b4 07 42
        E 24 b4 07 44
        E 24 b4 07 45
        E 24 b4 07 46
        E 24 b4 07 47
        E 16 b4 07 48
        E 32 b4 07 49
        E 24 b4 07 4a
        E 24 b4 07 4b
        E 24 b4 07 4c
        E 24 b4 07 4e
        E 24 b4 07 4f
        E 24 b4 07 50
        E 24 b4 07 51
        E 24 b4 07 52
        E 24 b4 07 53
        E 8 b4 07 54
        E 40 b4 07 55
        E 24 b4 07 57
        E 24 b4 07 58
        E 24 b4 07 59
        E 24 b4 07 5a
        E 24 b4 07 5b
        E 24 b4 07 5c
        E 24 b4 07 5d
        E 24 b4 07 5e
        E 9 94 3b 00
        E 15 b4 07 5f
        E 0 94 3b 55
        E 24 b4 07 61
        E 24 b4 07 60
        E 24 b4 07 5f
        E 24 b4 07 5e
        E 24 b4 07 5d
        E 48 b4 07 5c
        E 24 b4 07 5b
        E 24 b4 07 5a
        E 24 b4 07 59
        E 48 b4 07 58
        E 24 b4 07 57
        E 24 b4 07 56
        E 24 b4 07 55
        E 48 b4 07 53
        E 24 b4 07 52
        E 48 b4 07 51
        E 24 b4 07 4f
        E 48 b4 07 4e
        E 24 b4 07 4d
        E 24 b4 07 4c
        E 24 b4 07 4b
        E 24 b4 07 4a
        E 24 b4 07 49
        E 24 b4 07 48
        E 24 b4 07 47
        E 24 b4 07 45
        E 9 94 3b 00
        E 15 e4 1c 28
        E 0 b4 07 51
        E 0 b4 0a 00
        E 0 b4 07 42
        E 0 94 36 40
        E 24 e4 32 2b
        E 0 b4 07 52
        E 24 e4 12 30
        E 0 b4 07 53
        E 24 e4 73 34
        E 0 b4 07 54
        E 24 e4 09 38
        E 0 b4 07 55
        E 24 e4 6a 3c
        E 0 b4 07 56
        E 24 e4 1a 41
        E 0 b4 07 57
        E 24 b4 07 58
        E 24 b4 07 59
        E 48 b4 07 5a
        E 24 b4 07 5b
        E 24 b4 07 5c
        E 24 b4 07 5d
        E 24 b4 07 5e
        E 24 b4 07 5f
        E 24 b4 07 5e
        E 24 b4 07 5b
        E 24 b4 07 57
        E 24 b4 07 53
        E 24 b4 07 50
        E 24 b4 07 4c
        E 24 b4 07 48
        E 24 b4 07 40
        E 24 b4 07 33
        E 0 94 36 00
        E 192 e4 00 40
        E 3840 b4 67 00
        E 338 b0 7b 00
        GUID {4A6CDBE0-DD25-4AD4-BFEC-F2C6D5A06DF0}
        IGNTEMPO 0 120 4 4
        SRCCOLOR 7
        VELLANE 131 77 128
        CFGEDITVIEW 37781.334629 6.488641 45 12 0 -1 0 0 0 0.5
        KEYSNAP 0
        TRACKSEL 0
        EVTFILTER 0 -1 -1 -1 -1 0 0 0 0 -1 -1 -1 -1 0 -1 0 -1 -1
        CFGEDIT 1 1 0 1 0 1 1 1 1 1 1 0.125 655 208 1820 901 0 0 2 2 0 0 0 0 0 0.5 0 0 1 64
      >
    >
  >
  <TRACK {8D4FCE00-5DAB-4E6A-9819-F91B50205667}
    NAME "3 Sax"
    PEAKCOL 16576
    BEAT -1
    AUTOMODE 0
    VOLPAN 1 0 -1 -1 1
    MUTESOLO 0 0 0
    IPHASE 0
    ISBUS 0 0
    BUSCOMP 0 0
    SHOWINMIX 1 0.6667 0.5 1 0.5 0 0 0
    FREEMODE 0
    SEL 0
    REC 0 0 0 0 0 0 0
    VU 2
    TRACKHEIGHT 0 0
    INQ 0 0 0 0.5 100 0 0 100
    NCHAN 2
    FX 1
    TRACKID {8D4FCE00-5DAB-4E6A-9819-F91B50205667}
    PERF 0
    MIDIOUT -1
    MAINSEND 1 0
    <FXCHAIN
      WNDRECT 48 92 962 590
      SHOW 0
      LASTSEL 0
      DOCKED 0
      BYPASS 0 0 0
      <VST "VSTi: sforzando (Plogue Art et Technologie, Inc)" "sforzando VST_x86.dll" 0 "" 1347176273
        UUdMUO5e7f4AAAAAAgAAAAEAAAAAAAAAAgAAAAAAAADPAQAAAQAAAAAAEAA=
        Q0VHUO8EAAB4nI1UTW+jMBC9r7T/wfK9xW5oNpGgVbqNVhyiXYn2jAZws2j90QWD0n/fsQkBVa2AC543z+OZB8/R/UlJ0om6qYyOKb9mlNzfff8W7eoKUujEJLflnJLX
        2pRtYZNHBBgPKXIJPlEqrK30sSH/W5CVfcM0JY2tBSiEY7q6oUTBKfXITkpTHB5iessRPiSPye/WHkwp/C5orVFg8dBUGhtTNoWk6ISMaaWxdquEtpTIqhP9ZmQ2RUzD
        rXuDBEQ4uSLC9XTdFPIM/8Rtoo7pGvlHaXKQT632XSIQXCbCw0lVelCDwvKlbIL9ydZQWFGmptVlDvpfxljmMg/9un8CxlZZ4prM2IoSx0uwVIgpOkqK6+IvaO0munLi
        GonCrUNK7NjQa57VoI/iTMHjdeMTarI0hcWPNSqwQay1HjjP42c6QKWHmTqQbS948CmFXyjsK8rNPGU1TwnnKbfzlPU85cc8ZTNP2c5TOFvAWaAvXyAwX6AwXyAx/1rj
        P1CD+qDg5LeJAmeVIdi/vIjCTs0zWLI30U7lldCFGE3h75HJPbMJ15Piv56ToRD6Dq2ejLeCj/eXuBFSOGs+Qd6bxRWJguEqw+AdNiVOyw==
        AAAQAAAA
      >
      FLOATPOS 0 0 0 0
      FXID {57152737-5F3C-4DFD-8441-FABEF33506A3}
      WAK 0
    >
    <ITEM
      POSITION 0
      SNAPOFFS 0
      LENGTH 105.365068
      LOOP 0
      ALLTAKES 0
      FADEIN 1 0 0 1 0 0
      FADEOUT 1 0 0 1 0 0
      MUTE 0
      SEL 0
      IGUID {8F716009-E535-41B9-B419-8154D3003D95}
      IID 11
      NAME "Kirby 64 - The Crystal Shards (U) 00000017 0027D0DC.mid"
      VOLPAN 1 0 1 -1
      SOFFS 0.0010847121468 0.00260334530939
      PLAYRATE 1 1 0 -1 0 0.0025
      CHANMODE 0
      GUID {B3C06E50-72D4-4386-959F-988F64380ECC}
      <SOURCE MIDI
        HASDATA 1 384 QN
        POOLEDEVTS {72C30AB8-F9D2-4F78-8882-209B204D3F2C}
        E 4609 ba 66 00
        E 23040 ca 08 00
        E 768 ea 00 40
        E 13056 ca 03 00
        E 1536 ba 0a 32
        E 0 ba 07 5e
        E 0 ba 16 19
        E 0 ba 19 7f
        E 0 9a 47 51
        E 113 9a 47 00
        E 15 9a 4b 57
        E 49 9a 4b 00
        E 15 9a 50 56
        E 113 9a 50 00
        E 15 9a 51 5c
        E 49 9a 51 00
        E 15 9a 50 57
        E 113 9a 50 00
        E 15 9a 4b 5a
        E 49 9a 4b 00
        E 15 9a 53 50
        E 113 9a 53 00
        E 15 9a 51 5b
        E 49 9a 51 00
        E 15 9a 50 57
        E 113 9a 50 00
        E 15 9a 4b 55
        E 49 9a 4b 00
        E 15 9a 55 51
        E 113 9a 55 00
        E 15 9a 53 58
        E 49 9a 53 00
        E 15 9a 51 57
        E 113 9a 51 00
        E 15 9a 4f 5b
        E 49 9a 4f 00
        E 15 9a 4c 54
        E 113 9a 4c 00
        E 15 9a 48 59
        E 49 9a 48 00
        E 15 9a 47 51
        E 113 9a 47 00
        E 15 9a 49 5c
        E 63 9a 49 00
        E 129 9a 47 57
        E 49 9a 47 00
        E 15 9a 49 51
        E 113 9a 49 00
        E 15 9a 50 5a
        E 49 9a 50 00
        E 15 9a 49 55
        E 113 9a 49 00
        E 15 9a 47 5c
        E 49 9a 47 00
        E 15 9a 4b 52
        E 113 9a 4b 00
        E 15 9a 53 57
        E 49 9a 53 00
        E 15 9a 4b 55
        E 113 9a 4b 00
        E 15 9a 47 56
        E 49 9a 47 00
        E 15 9a 51 55
        E 113 9a 51 00
        E 15 9a 50 5c
        E 49 9a 50 00
        E 15 9a 4f 56
        E 113 9a 4f 00
        E 15 9a 51 5a
        E 49 9a 51 00
        E 15 9a 50 55
        E 113 9a 50 00
        E 15 9a 4b 56
        E 49 9a 4b 00
        E 15 9a 47 56
        E 113 9a 47 00
        E 15 9a 45 57
        E 49 9a 45 00
        E 15 9a 47 52
        E 113 9a 47 00
        E 15 9a 45 5c
        E 49 9a 45 00
        E 15 9a 49 50
        E 113 9a 49 00
        E 15 9a 44 59
        E 49 9a 44 00
        E 15 9a 42 54
        E 113 9a 42 00
        E 15 9a 44 5a
        E 49 9a 44 00
        E 15 9a 4b 57
        E 113 9a 4b 00
        E 15 9a 47 59
        E 49 9a 47 00
        E 15 9a 43 53
        E 113 9a 43 00
        E 15 9a 45 5a
        E 49 9a 45 00
        E 15 9a 48 53
        E 113 9a 48 00
        E 15 9a 4c 5b
        E 49 9a 4c 00
        E 15 9a 4e 50
        E 113 9a 4e 00
        E 15 9a 4b 58
        E 49 9a 4b 00
        E 15 9a 45 52
        E 113 9a 45 00
        E 15 9a 4c 5b
        E 49 9a 4c 00
        E 15 9a 4e 51
        E 113 9a 4e 00
        E 15 9a 50 58
        E 49 9a 50 00
        E 15 9a 53 52
        E 113 9a 53 00
        E 15 9a 51 59
        E 49 9a 51 00
        E 15 9a 50 55
        E 113 9a 50 00
        E 15 9a 4f 56
        E 49 9a 4f 00
        E 15 9a 55 51
        E 113 9a 55 00
        E 15 9a 53 5c
        E 49 9a 53 00
        E 15 9a 58 50
        E 113 9a 58 00
        E 15 9a 54 59
        E 49 9a 54 00
        E 15 9a 51 51
        E 113 9a 51 00
        E 15 9a 54 59
        E 49 9a 54 00
        E 4623 ca 0a 00
        E 7904 ea 78 31
        E 16 ea 3b 30
        E 16656 ca 2a 00
        E 192 ea 00 40
        E 18240 ba 67 00
        E 338 b0 7b 00
        GUID {654FBC28-0908-4C69-AD02-B5F6D839395B}
        IGNTEMPO 0 120 4 4
        SRCCOLOR 13
        VELLANE 131 77 128
        CFGEDITVIEW 21869.304333 11.884025 34 12 0 -1 0 0 0 0.5
        KEYSNAP 0
        TRACKSEL 0
        EVTFILTER 0 -1 -1 -1 -1 0 0 0 0 -1 -1 -1 -1 0 -1 0 -1 -1
        CFGEDIT 1 1 0 1 0 1 1 1 1 1 1 0.125 663 216 1812 893 0 0 2 2 0 0 0 0 0 0.5 0 0 1 64
      >
    >
  >
  <TRACK {7E0C3C4B-C71E-4F06-AA0C-DB51F04210AE}
    NAME "17 Trumpet"
    PEAKCOL 16576
    BEAT -1
    AUTOMODE 0
    VOLPAN 1 0 -1 -1 1
    MUTESOLO 0 0 0
    IPHASE 0
    ISBUS 0 0
    BUSCOMP 0 0
    SHOWINMIX 1 0.6667 0.5 1 0.5 0 0 0
    FREEMODE 0
    SEL 0
    REC 0 0 0 0 0 0 0
    VU 2
    TRACKHEIGHT 0 0
    INQ 0 0 0 0.5 100 0 0 100
    NCHAN 2
    FX 1
    TRACKID {7E0C3C4B-C71E-4F06-AA0C-DB51F04210AE}
    PERF 0
    MIDIOUT -1
    MAINSEND 1 0
    <FXCHAIN
      WNDRECT 52 96 958 586
      SHOW 0
      LASTSEL 0
      DOCKED 0
      BYPASS 0 0 0
      <VST "VSTi: sforzando (Plogue Art et Technologie, Inc)" "sforzando VST_x86.dll" 0 "" 1347176273
        UUdMUO5e7f4AAAAAAgAAAAEAAAAAAAAAAgAAAAAAAAD1AQAAAQAAAAAAEAA=
        Q0VHUF0FAAB4nI1UTY+bMBC9V+p/sHzfYPMdCXaV7UYVh6iV2J6RAW8W1dhbMCj99x1DCGjVCLjgefNmPPNgJnq61AL1vGkrJWNMdwSjp8evX6JDU7GU9Xzh21OK0Uej
        yq7QyQsAhLoYuAieKOVaV/Lcoj8dE5X+C26MWt1wVgMcY8fGqGaXdEAOQqji9BxjjwJ8Sl6SH50+qZIPUazTqmYaLk2F0jEmS0jwnosYVxJydzWXGiNR9XwMBmZbxDj0
        zJsJBghFD4ibmnZtIa7wNwjjTYx94J+Fypl47eRQJQDWrSO4HFXlAEpWQ/pStNbxohtWaF6mqpNlzuTvjJDMeJ7H8/hYhAZZYorMjGqGl0AqF1x4lhTOxTuT0nT0YMRV
        AoTzXYz0XNBHnjVMnvmVAtfLdnDUi6MqNHysWQGjdqcH4NrP0NOJVXLqqWeiGwW3/kuhNwq5R7HXKc46xV2neOsUf50SrFPCdcp+nULJBs4GfekGgekGhekGiel9jX+y
        htWfFPz828wcai8U2tmOb9vEDfaEUs/x/PthzkKQXeDYdui4gQM7JnRMbbe5tMxgTsbx7Y0Xejmq0wIYR/ZQ5xWXBZ9HcNhai60Wuouaou+/kikRTDkslmTeQYN9vNkt
        F9wsgleWj6NpkkTWtDjB+AdBFmcp
        AAAQAAAA
      >
      FLOATPOS 0 0 0 0
      FXID {90BBFFC2-59D4-426D-AD21-EBF2559D2550}
      WAK 0
    >
    <ITEM
      POSITION 0
      SNAPOFFS 0
      LENGTH 105.365068
      LOOP 0
      ALLTAKES 0
      FADEIN 1 0 0 1 0 0
      FADEOUT 1 0 0 1 0 0
      MUTE 0
      SEL 0
      IGUID {13DB51A4-7B3D-4544-A756-D760FCD565A2}
      IID 13
      NAME "Kirby 64 - The Crystal Shards (U) 00000017 0027D0DC.mid"
      VOLPAN 1 0 1 -1
      SOFFS 0.0010847121468 0.00260334530939
      PLAYRATE 1 1 0 -1 0 0.0025
      CHANMODE 0
      GUID {D76F1433-A1BB-41EC-A44A-82A9B2CDB995}
      <SOURCE MIDI
        HASDATA 1 384 QN
        POOLEDEVTS {472457B7-5097-41B3-B79A-8F60D6BE0F9F}
        E 4609 bc 66 00
        E 44544 cc 11 00
        E 0 dc 1e 00
        E 0 ec 3c 34
        E 0 bc 07 64
        E 0 bc 16 32
        E 0 bc 19 7f
        E 0 bc 0a 4e
        E 0 9c 5a 52
        E 24 ec 0a 39
        E 24 ec 7f 3f
        E 24 ec 00 40
        E 42 9c 5a 00
        E 14 9c 5c 51
        E 96 9c 5c 00
        E 96 9c 5c 57
        E 96 9c 5c 00
        E 96 9c 5a 4f
        E 50 9c 5a 00
        E 14 ec 6d 36
        E 0 9c 5c 57
        E 24 ec 45 3b
        E 24 ec 1d 40
        E 72 ec 27 3b
        E 24 ec 3b 31
        E 24 ec 59 22
        E 24 ec 76 13
        E 24 ec 0a 0a
        E 8 9c 5c 00
        E 40 ec 00 40
        E 56 9c 5a 59
        E 50 9c 5a 00
        E 14 ec 30 35
        E 0 9c 5c 55
        E 24 ec 7f 38
        E 24 ec 36 3e
        E 24 ec 00 40
        E 184 9c 5c 00
        E 56 ec 07 30
        E 8 9c 5d 4f
        E 16 ec 00 40
        E 34 9c 5d 00
        E 14 9c 58 54
        E 114 9c 58 00
        E 14 9c 54 52
        E 50 9c 54 00
        E 11 bc 16 28
        E 3 9c 53 59
        E 96 9c 53 00
        E 32 9c 4e 54
        E 50 9c 4e 00
        E 14 9c 50 52
        E 96 9c 50 00
        E 32 9c 57 5c
        E 128 9c 57 00
        E 64 9c 51 5b
        E 50 9c 51 00
        E 14 9c 50 54
        E 114 9c 50 00
        E 14 9c 4e 54
        E 50 9c 4e 00
        E 14 9c 4b 55
        E 114 9c 4b 00
        E 14 9c 51 5b
        E 50 9c 51 00
        E 14 9c 50 55
        E 114 9c 50 00
        E 14 9c 4e 54
        E 50 9c 4e 00
        E 14 9c 4c 54
        E 114 9c 4c 00
        E 14 9c 48 5f
        E 50 9c 48 00
        E 14 9c 4c 58
        E 114 9c 4c 00
        E 14 9c 4f 54
        E 50 9c 4f 00
        E 14 9c 50 56
        E 114 9c 50 00
        E 14 9c 51 58
        E 50 9c 51 00
        E 14 9c 4e 59
        E 114 9c 4e 00
        E 14 9c 50 57
        E 50 9c 50 00
        E 14 9c 51 59
        E 114 9c 51 00
        E 14 9c 4b 56
        E 50 9c 4b 00
        E 14 9c 50 5a
        E 114 9c 50 00
        E 14 9c 51 52
        E 50 9c 51 00
        E 14 9c 50 55
        E 114 9c 50 00
        E 14 9c 4b 5d
        E 50 9c 4b 00
        E 14 9c 47 58
        E 114 9c 47 00
        E 14 9c 45 55
        E 50 9c 45 00
        E 14 9c 44 5f
        E 50 9c 44 00
        E 14 9c 47 5e
        E 50 9c 47 00
        E 14 9c 4b 60
        E 50 9c 4b 00
        E 14 9c 45 5e
        E 50 9c 45 00
        E 14 9c 48 60
        E 50 9c 48 00
        E 14 9c 4c 61
        E 50 9c 4c 00
        E 14 9c 50 5d
        E 114 9c 50 00
        E 14 9c 4b 5d
        E 50 9c 4b 00
        E 14 9c 4e 5b
        E 114 9c 4e 00
        E 14 9c 51 56
        E 50 9c 51 00
        E 14 9c 4e 52
        E 114 9c 4e 00
        E 14 9c 51 53
        E 50 9c 51 00
        E 14 9c 53 55
        E 114 9c 53 00
        E 14 9c 50 58
        E 50 9c 50 00
        E 14 9c 53 55
        E 114 9c 53 00
        E 14 9c 55 56
        E 50 9c 55 00
        E 14 9c 53 53
        E 114 9c 53 00
        E 14 9c 55 56
        E 50 9c 55 00
        E 14 9c 58 53
        E 50 9c 58 00
        E 14 9c 54 54
        E 50 9c 54 00
        E 14 9c 58 56
        E 50 9c 58 00
        E 14 9c 5b 5d
        E 50 9c 5b 00
        E 14 9c 58 58
        E 50 9c 58 00
        E 14 9c 5b 5a
        E 50 9c 5b 00
        E 41486 bc 67 00
        E 338 b0 7b 00
        GUID {239E6B90-A579-4FA2-A643-C3FF1F89BC3B}
        IGNTEMPO 0 120 4 4
        SRCCOLOR 15
        VELLANE 131 77 128
        CFGEDITVIEW -9685.2538 3.777921 34 12 0 -1 0 0 0 0.5
        KEYSNAP 0
        TRACKSEL 0
        EVTFILTER 0 -1 -1 -1 -1 0 0 0 0 -1 -1 -1 -1 0 -1 0 -1 -1
        CFGEDIT 1 1 0 1 0 1 1 1 1 1 1 0.125 633 186 1842 923 0 0 2 2 0 0 0 0 0 0.5 0 0 1 64
      >
    >
  >
  <TRACK {8317B74F-29C3-45E4-9F1B-001ABA04CA4D}
    NAME "10 Flute"
    PEAKCOL 16576
    BEAT -1
    AUTOMODE 0
    VOLPAN 1 0 -1 -1 1
    MUTESOLO 0 0 0
    IPHASE 0
    ISBUS 0 0
    BUSCOMP 0 0
    SHOWINMIX 1 0.6667 0.5 1 0.5 0 0 0
    FREEMODE 0
    SEL 0
    REC 0 0 0 0 0 0 0
    VU 2
    TRACKHEIGHT 0 0
    INQ 0 0 0 0.5 100 0 0 100
    NCHAN 2
    FX 1
    TRACKID {8317B74F-29C3-45E4-9F1B-001ABA04CA4D}
    PERF 0
    MIDIOUT -1
    MAINSEND 1 0
    <FXCHAIN
      WNDRECT 48 92 962 590
      SHOW 0
      LASTSEL 0
      DOCKED 0
      BYPASS 0 0 0
      <VST "VSTi: sforzando (Plogue Art et Technologie, Inc)" "sforzando VST_x86.dll" 0 "" 1347176273
        UUdMUO5e7f4AAAAAAgAAAAEAAAAAAAAAAgAAAAAAAADPAQAAAQAAAAAAEAA=
        Q0VHUO8EAAB4nI1UTW+cMBC9V+p/sHxPsBOy3ZWg0aZZVRxWrUR6RgM4W6v+SMFG23/fMSwLqhoBFzxvnsczD56Tx7NWpBNNK61JKb9llDx+/vgh2TcScujELLfjnJK3
        xta+ctkzAozHFLkEnyQXzklzaslvD0q6P5impHWNAI1wSu/vKNFwzntkr5Stjk8pfeAIH7Pn7Jt3R1uLfhd4ZzU4PDRX1qWUzSElOqFSKg3W9loYR4mSnRg2I7OtUhrv
        whsUIMLJDRGhp9u2Uhf4C24TTUo3yD8pW4J68abvEoHoOhEeTmTdgwY0lq9VGx3OroHKiTq33tQlmF8FY0XIPA3r4YkYZ0UWmizYnpLAy7BUjCk6SYrr6icYEya6CeJa
        hcJtYkrc1NBbWTRgTuJCweNN2yf0bGkrhx9rUmCLmHc9cJmnn+kI0owzdaD8IHj0Xwq/Uth7lLtlyv0yJV6mPCxTNsuUT8uU7TJlt0zhbAVnhb58hcB8hcJ8hcT8fY2/
        QwP6HwVnv00SBauMweH1VVRubp7RkoOJ9rqUwlRiMkV/j8zumW28mRX/+iMbC6Hv0OrZdCv08eEat0KJYM0XKAezhCJJNF5lGPwFYJhO1w==
        AAAQAAAA
      >
      FLOATPOS 0 0 0 0
      FXID {AF1BEE44-981F-43EE-A154-A4BB44551447}
      WAK 0
    >
    <ITEM
      POSITION 0
      SNAPOFFS 0
      LENGTH 105.365068
      LOOP 0
      ALLTAKES 0
      FADEIN 1 0 0 1 0 0
      FADEOUT 1 0 0 1 0 0
      MUTE 0
      SEL 0
      IGUID {689B4086-0FC9-4EA8-B760-48684D8FC2C6}
      IID 11
      NAME "Kirby 64 - The Crystal Shards (U) 00000017 0027D0DC.mid"
      VOLPAN 1 0 1 -1
      SOFFS 0.0010847121468 0.00260334530939
      PLAYRATE 1 1 0 -1 0 0.0025
      CHANMODE 0
      GUID {04077A50-7B08-441A-8E7E-E724300E4A8F}
      <SOURCE MIDI
        HASDATA 1 384 QN
        POOLEDEVTS {69575D57-06E8-49EB-97CB-B87A35DFE66E}
        E 4609 ba 66 00
        E 23040 ca 08 00
        E 768 ea 00 40
        E 13056 ca 03 00
        E 12288 ca 0a 00
        E 1536 ba 0a 40
        E 0 ba 19 64
        E 0 ba 16 28
        E 0 ba 07 5d
        E 0 9a 68 54
        E 57 9a 68 00
        E 7 9a 63 5c
        E 57 9a 63 00
        E 7 9a 5f 52
        E 57 9a 5f 00
        E 7 9a 5c 55
        E 57 9a 5c 00
        E 7 9a 5a 59
        E 57 9a 5a 00
        E 7 9a 5c 52
        E 57 9a 5c 00
        E 7 9a 5f 53
        E 57 9a 5f 00
        E 7 9a 68 56
        E 57 9a 68 00
        E 7 9a 63 59
        E 57 9a 63 00
        E 7 9a 5f 54
        E 57 9a 5f 00
        E 7 9a 5c 58
        E 57 9a 5c 00
        E 7 9a 5a 56
        E 57 9a 5a 00
        E 7 9a 5d 5d
        E 57 9a 5d 00
        E 7 9a 69 5b
        E 57 9a 69 00
        E 7 9a 66 5d
        E 57 9a 66 00
        E 7 9a 63 52
        E 57 9a 63 00
        E 7 9a 5f 53
        E 57 9a 5f 00
        E 7 9a 5a 55
        E 57 9a 5a 00
        E 7 9a 5d 52
        E 57 9a 5d 00
        E 7 9a 60 5d
        E 57 9a 60 00
        E 7 9a 64 5d
        E 57 9a 64 00
        E 7 9a 67 5d
        E 57 9a 67 00
        E 7 9a 60 55
        E 57 9a 60 00
        E 7 9a 67 5a
        E 57 9a 67 00
        E 7 9a 68 5c
        E 57 9a 68 00
        E 7 9a 66 59
        E 57 9a 66 00
        E 7 9a 68 55
        E 57 9a 68 00
        E 7 9a 64 54
        E 57 9a 64 00
        E 7 9a 66 5a
        E 57 9a 66 00
        E 7 9a 63 55
        E 57 9a 63 00
        E 7 9a 65 56
        E 57 9a 65 00
        E 7 9a 62 50
        E 57 9a 62 00
        E 7 9a 64 5b
        E 57 9a 64 00
        E 7 9a 61 55
        E 57 9a 61 00
        E 7 9a 63 4f
        E 57 9a 63 00
        E 7 9a 60 4e
        E 57 9a 60 00
        E 7 9a 62 53
        E 57 9a 62 00
        E 7 9a 5f 57
        E 57 9a 5f 00
        E 7 9a 61 51
        E 57 9a 61 00
        E 7 9a 5e 4e
        E 57 9a 5e 00
        E 7 9a 60 52
        E 57 9a 60 00
        E 7 9a 5d 4e
        E 57 9a 5d 00
        E 7 9a 60 53
        E 57 9a 60 00
        E 7 9a 64 4f
        E 57 9a 64 00
        E 7 9a 61 59
        E 57 9a 61 00
        E 7 9a 64 54
        E 57 9a 64 00
        E 7 9a 62 53
        E 57 9a 62 00
        E 7 9a 67 5c
        E 57 9a 67 00
        E 7 ea 49 32
        E 0 9a 68 54
        E 16 ea 47 35
        E 16 ea 45 38
        E 16 ea 43 3b
        E 16 ea 41 3e
        E 16 ea 00 40
        E 112 9a 68 00
        E 64 9a 66 55
        E 57 9a 66 00
        E 71 9a 68 52
        E 57 9a 68 00
        E 71 9a 63 59
        E 57 9a 63 00
        E 71 9a 66 5a
        E 57 9a 66 00
        E 71 9a 61 52
        E 57 9a 61 00
        E 71 9a 63 5d
        E 57 9a 63 00
        E 71 9a 5f 55
        E 57 9a 5f 00
        E 71 9a 60 57
        E 57 9a 60 00
        E 71 9a 5b 59
        E 57 9a 5b 00
        E 71 9a 5d 5c
        E 57 9a 5d 00
        E 71 9a 5c 58
        E 57 9a 5c 00
        E 71 9a 5f 5a
        E 57 9a 5f 00
        E 71 9a 5c 55
        E 57 9a 5c 00
        E 71 9a 61 58
        E 57 9a 61 00
        E 71 9a 5f 5a
        E 57 9a 5f 00
        E 71 9a 61 56
        E 57 9a 61 00
        E 71 9a 63 52
        E 57 9a 63 00
        E 71 9a 61 56
        E 57 9a 61 00
        E 71 9a 63 59
        E 57 9a 63 00
        E 71 9a 67 53
        E 57 9a 67 00
        E 71 9a 64 5c
        E 57 9a 64 00
        E 71 9a 67 59
        E 57 9a 67 00
        E 71 9a 68 54
        E 80 ea 21 3f
        E 16 ea 64 3d
        E 16 ea 26 3c
        E 16 ea 69 3a
        E 16 ea 2c 39
        E 16 ea 6e 37
        E 16 ea 31 36
        E 16 ea 73 34
        E 16 ea 36 33
        E 12 9a 68 00
        E 4 ea 78 31
        E 16 ea 3b 30
        E 16656 ca 2a 00
        E 192 ea 00 40
        E 18240 ba 67 00
        E 338 b0 7b 00
        GUID {654FBC28-0908-4C69-AD02-B5F6D839395B}
        IGNTEMPO 0 120 4 4
        SRCCOLOR 13
        VELLANE 131 77 128
        CFGEDITVIEW 47198.666697 8.923513 9 12 0 -1 0 0 0 0.5
        KEYSNAP 0
        TRACKSEL 0
        EVTFILTER 0 -1 -1 -1 -1 0 0 0 0 -1 -1 -1 -1 0 -1 0 -1 -1
        CFGEDIT 1 1 0 1 0 1 1 1 1 1 1 0.125 663 216 1812 893 0 0 2 2 0 0 0 0 0 0.5 0 0 1 64
      >
    >
  >
  <TRACK {F07B076B-DE6D-44B5-BEB1-49F0A617EDEB}
    NAME "5 Brass 1"
    PEAKCOL 16576
    BEAT -1
    AUTOMODE 0
    VOLPAN 1 0 -1 -1 1
    MUTESOLO 0 0 0
    IPHASE 0
    ISBUS 0 0
    BUSCOMP 0 0
    SHOWINMIX 1 0.6667 0.5 1 0.5 0 0 0
    FREEMODE 0
    SEL 0
    REC 0 0 0 0 0 0 0
    VU 2
    TRACKHEIGHT 0 0
    INQ 0 0 0 0.5 100 0 0 100
    NCHAN 2
    FX 1
    TRACKID {F07B076B-DE6D-44B5-BEB1-49F0A617EDEB}
    PERF 0
    MIDIOUT -1
    MAINSEND 1 0
    <FXCHAIN
      WNDRECT 46 90 962 590
      SHOW 0
      LASTSEL 0
      DOCKED 0
      BYPASS 0 0 0
      <VST "VSTi: sforzando (Plogue Art et Technologie, Inc)" "sforzando VST_x86.dll" 0 "" 1347176273
        UUdMUO5e7f4AAAAAAgAAAAEAAAAAAAAAAgAAAAAAAADhAQAAAQAAAAAAEAA=
        Q0VHUCkFAAB4nI1UwW6jMBC9r9R/sHxvsAnQRgpbpdtoxSHqSnTPaAA3i2rsLhiU/fuOIQlWtRX4ZL95Hs88eLN9ONWS9KJpK61iyleMkofvN9+2u6aCFHrhxDacU/Le
        6LIrTPKEAOMBRS7BtU2FMZU6tuRvB7Iy/zBMSWsaATXCMV37lNRwSgdkJ6UuDo8xDTnCh+Qpee7MQZdiuAWd0TUYfDSV2sSUuZAUvZAxrRTm7mqhDCWy6sV4GZltYQsL
        7QYkIMTJLRG2qFVbyDP8A++JJqYRXjhKnYN86dRQJgLetSV8nVTlACqoMX8pW29/Mg0URpSp7lSZg3rLGMts5HHcj8tjLMwSW2Vmq7G8BFMFGKKTprgv/oBStqVbq66W
        qFwUUGKmgt7zrAF1FGcKPq/aIVA7W10Y/FqOBFbvzgzIuaGhqQNU6tJUD7IbJff+S+FXCvuK4s9T1vOUYJ4SzlOiecrdPOV+nrKZp3C2gLNAX75AYL5AYb5AYv61xr+g
        gfqTgp9/m4nDfUehlb+OfJ8FdxvGebgOI8dhnrXY5bB/fRWFcU139fLovl2dV0IVYnLTMIGcCXUfuNl//k4umdCwOCSSaZ4M5/313AoprKdfIB9dZpNsvcsQxMMHy1Jb
        dw==
        AAAQAAAA
      >
      FLOATPOS 0 0 0 0
      FXID {7CA7DE35-EDF6-447C-8675-DA9B777D9073}
      WAK 0
    >
    <ITEM
      POSITION 0
      SNAPOFFS 0
      LENGTH 105.365068
      LOOP 0
      ALLTAKES 0
      FADEIN 1 0 0 1 0 0
      FADEOUT 1 0 0 1 0 0
      MUTE 0
      SEL 0
      IGUID {38316AFA-B6D6-4424-B7B1-7A73CF81F304}
      IID 6
      NAME "Kirby 64 - The Crystal Shards (U) 00000017 0027D0DC.mid"
      VOLPAN 1 0 1 -1
      SOFFS 0.0010847121468 0.00260334530939
      PLAYRATE 1 1 0 -1 0 0.0025
      CHANMODE 0
      GUID {7FF5D7EF-167E-4DA6-B913-CEA26AA1D375}
      <SOURCE MIDI
        HASDATA 1 384 QN
        POOLEDEVTS {D48FA0DE-6A7F-4F9D-AB16-6101EC6874F5}
        E 4609 b5 66 00
        E 10752 c5 05 00
        E 0 b5 07 7f
        E 0 b5 16 1e
        E 0 b5 19 50
        E 0 b5 0a 40
        E 0 95 50 6c
        E 95 95 50 00
        E 45 95 50 6c
        E 95 95 50 00
        E 341 95 51 6c
        E 95 95 51 00
        E 45 95 50 6c
        E 95 95 50 00
        E 8405 95 55 6a
        E 95 95 55 00
        E 45 95 55 6a
        E 95 95 55 00
        E 341 95 56 6a
        E 95 95 56 00
        E 45 95 55 6a
        E 95 95 55 00
        E 3797 d5 1e 00
        E 0 b5 07 74
        E 0 b5 16 2d
        E 0 b5 0a 54
        E 0 95 57 65
        E 105 95 57 00
        E 1367 95 57 65
        E 230 95 57 00
        E 26 95 57 65
        E 104 95 57 00
        E 1048 95 55 65
        E 94 95 55 00
        E 34 95 55 65
        E 70 95 55 00
        E 1274 95 55 65
        E 60 95 55 00
        E 196 95 57 65
        E 105 95 57 00
        E 471 95 57 65
        E 120 95 57 00
        E 456 95 57 65
        E 120 95 57 00
        E 456 95 55 65
        E 130 95 55 00
        E 254 95 55 65
        E 130 95 55 00
        E 638 95 57 65
        E 240 95 57 00
        E 1296 95 55 65
        E 94 95 55 00
        E 34 95 55 65
        E 70 95 55 00
        E 1338 95 53 65
        E 80 95 53 00
        E 48 95 53 65
        E 50 95 53 00
        E 14 95 55 65
        E 104 95 55 00
        E 664 95 55 65
        E 104 95 55 00
        E 472 95 57 65
        E 175 95 57 00
        E 26129 d5 00 00
        E 0 b5 07 6b
        E 0 b5 16 21
        E 0 b5 19 11
        E 0 b5 0a 40
        E 0 95 51 53
        E 7 95 42 53
        E 244 95 51 00
        E 7 95 42 00
        E 1470 95 43 53
        E 6 95 52 53
        E 245 95 43 00
        E 6 95 52 00
        E 1091 95 41 53
        E 2 95 51 53
        E 249 95 41 00
        E 2 95 51 00
        E 319 95 41 53
        E 9 95 51 53
        E 242 95 41 00
        E 9 95 51 00
        E 508 95 3f 53
        E 0 95 4f 53
        E 251 95 3f 00
        E 0 95 4f 00
        E 133 95 3f 53
        E 1 95 4f 53
        E 250 95 3f 00
        E 1 95 4f 00
        E 707 95 4f 53
        E 1 95 3f 53
        E 250 95 4f 00
        E 1 95 3f 00
        E 133 95 4d 53
        E 0 95 3d 53
        E 251 95 4d 00
        E 0 95 3d 00
        E 1093 95 4b 53
        E 0 95 3b 53
        E 251 95 4b 00
        E 0 95 3b 00
        E 517 95 4b 53
        E 0 95 3b 53
        E 251 95 4b 00
        E 0 95 3b 00
        E 325 95 4b 53
        E 0 95 3b 53
        E 251 95 4b 00
        E 0 95 3b 00
        E 133 95 49 53
        E 0 95 39 53
        E 251 95 49 00
        E 0 95 39 00
        E 19717 b5 67 00
        E 338 b0 7b 00
        GUID {CDC34D2A-5AB8-4472-9209-7E27ACA5BA2E}
        IGNTEMPO 0 120 4 4
        SRCCOLOR 8
        VELLANE 131 77 128
        CFGEDITVIEW 0 6.700515 40 12 0 -1 0 0 0 0.5
        KEYSNAP 0
        TRACKSEL 0
        EVTFILTER 0 -1 -1 -1 -1 0 0 0 0 -1 -1 -1 -1 0 -1 0 -1 -1
        CFGEDIT 1 1 0 1 0 1 1 1 1 1 1 0.125 655 208 1820 901 0 0 2 2 0 0 0 0 0 0.5 0 0 1 64
      >
    >
  >
  <TRACK {9E7DBF83-1933-4ABA-BA8F-96C65341EAC1}
    NAME "5 Brass 2"
    PEAKCOL 16576
    BEAT -1
    AUTOMODE 0
    VOLPAN 1 0 -1 -1 1
    MUTESOLO 0 0 0
    IPHASE 0
    ISBUS 0 0
    BUSCOMP 0 0
    SHOWINMIX 1 0.6667 0.5 1 0.5 0 0 0
    FREEMODE 0
    SEL 0
    REC 0 0 0 0 0 0 0
    VU 2
    TRACKHEIGHT 0 0
    INQ 0 0 0 0.5 100 0 0 100
    NCHAN 2
    FX 1
    TRACKID {9E7DBF83-1933-4ABA-BA8F-96C65341EAC1}
    PERF 0
    MIDIOUT -1
    MAINSEND 1 0
    <FXCHAIN
      WNDRECT 46 90 962 590
      SHOW 0
      LASTSEL 0
      DOCKED 0
      BYPASS 0 0 0
      <VST "VSTi: sforzando (Plogue Art et Technologie, Inc)" "sforzando VST_x86.dll" 0 "" 1347176273
        UUdMUO5e7f4AAAAAAgAAAAEAAAAAAAAAAgAAAAAAAADjAQAAAQAAAAAAEAA=
        Q0VHUCkFAAB4nI2UUW+bMBDH3yftO1h+b7AJkEYKrdI1mniINonuGR3gpmjG7sBG2bffYZKAqlXAk/2/n8++f3K3ezzXknSiaSutYspXjJLHh69fdvumghQ6MYltOafk
        vdGlLUzyjALjAUWW4LdLhTGVOrXkjwVZmb8YpqQ1jYAa5ZiufUpqOKdO2Uupi+NTTEOO8jF5Tn5Yc9SlcKfAGl2DwUtTqU1M2VSSohMyppXC3LYWylAiq04Mh5FsC8zB
        3QIkoMTJHRH9o1ZtIS/yNzwnmphGyJ2kzkG+WOWeiYJ3KwlvJ1XpRAU15i9l6x3OpoHCiDLVVpU5qN8ZY1kfeRrWw+cxFmZJ/8qMhZT0XIKpAgzR0VNcF2+gVF/SXe+u
        luhcFFBixge951kD6iQuCF6vWheoJ0tdGPy1RgvYBkVrnHIpyBV1hEpdi+pA2sFy778IvyHsM8SfR9bzSDCPhPNINI9s5pH7eWQ7j3C2gFngL19gMF/gMF9gMf/c45/Q
        QP3BwY9/m5Hh/sShlb+OfJ8Fmy3jPFyH0aTDvL7FrpvD66sozLTpbr08dN++ziuhCjF2k5tAkwl1H0yzf/+VXDNhw+KQSMZ54vaH274VUvQ9/QL50GV9kp13HYK4+QfI
        f1t0
        AAAQAAAA
      >
      FLOATPOS 0 0 0 0
      FXID {2C180B1D-96C1-44BD-B858-1C09E4C8BBF9}
      WAK 0
    >
    <ITEM
      POSITION 0
      SNAPOFFS 0
      LENGTH 105.365068
      LOOP 0
      ALLTAKES 0
      FADEIN 1 0 0 1 0 0
      FADEOUT 1 0 0 1 0 0
      MUTE 0
      SEL 0
      IGUID {67B5C6D8-7FE3-40A6-97DD-32DA9239A413}
      IID 7
      NAME "Kirby 64 - The Crystal Shards (U) 00000017 0027D0DC.mid"
      VOLPAN 1 0 1 -1
      SOFFS 0.0010847121468 0.00260334530939
      PLAYRATE 1 1 0 -1 0 0.0025
      CHANMODE 0
      GUID {1C2A0CE6-C10A-4F03-B7B0-9E1230F48AAC}
      <SOURCE MIDI
        HASDATA 1 384 QN
        POOLEDEVTS {78A2154E-FB1F-40B7-96BD-753888007040}
        E 4609 b6 66 00
        E 10752 c6 05 00
        E 0 b6 07 7f
        E 0 b6 19 46
        E 0 b6 16 1e
        E 0 b6 0a 5e
        E 0 96 4d 6c
        E 95 96 4d 00
        E 45 96 4d 6c
        E 95 96 4d 00
        E 341 96 4d 6c
        E 95 96 4d 00
        E 45 96 4d 6c
        E 95 96 4d 00
        E 8405 96 4d 6c
        E 95 96 4d 00
        E 45 96 4d 6c
        E 95 96 4d 00
        E 341 96 4e 6c
        E 95 96 4e 00
        E 45 96 4d 6c
        E 95 96 4d 00
        E 3797 d6 1e 00
        E 0 b6 07 74
        E 0 b6 0a 2c
        E 0 b6 16 2d
        E 0 96 4f 65
        E 105 96 4f 00
        E 1367 96 4f 65
        E 230 96 4f 00
        E 26 96 4f 65
        E 114 96 4f 00
        E 1045 96 4b 65
        E 94 96 4b 00
        E 36 96 4b 65
        E 70 96 4b 00
        E 1274 96 4b 65
        E 60 96 4b 00
        E 187 96 4f 65
        E 105 96 4f 00
        E 471 96 4f 65
        E 120 96 4f 00
        E 456 96 4f 65
        E 120 96 4f 00
        E 460 96 4b 65
        E 130 96 4b 00
        E 254 96 4b 65
        E 130 96 4b 00
        E 634 96 4f 65
        E 240 96 4f 00
        E 1303 96 4b 65
        E 94 96 4b 00
        E 36 96 4b 65
        E 70 96 4b 00
        E 1329 96 4f 65
        E 80 96 4f 00
        E 48 96 4f 65
        E 50 96 4f 00
        E 14 96 4b 65
        E 114 96 4b 00
        E 654 96 4b 65
        E 114 96 4b 00
        E 462 96 4f 65
        E 175 96 4f 00
        E 24593 c6 12 00
        E 384 d6 00 00
        E 1152 b6 07 6a
        E 0 b6 0a 17
        E 0 b6 16 21
        E 0 b6 19 1f
        E 29184 b6 67 00
        E 338 b0 7b 00
        GUID {FFFE192D-F8E4-4277-BB4F-73A3A6037FA7}
        IGNTEMPO 0 120 4 4
        SRCCOLOR 9
        VELLANE 131 77 128
        CFGEDITVIEW 0 3.777921 39 12 0 -1 0 0 0 0.5
        KEYSNAP 0
        TRACKSEL 0
        EVTFILTER 0 -1 -1 -1 -1 0 0 0 0 -1 -1 -1 -1 0 -1 0 -1 -1
        CFGEDIT 1 1 0 1 0 1 1 1 1 1 1 0.125 661 214 1814 895 0 0 2 2 0 0 0 0 0 0.5 0 0 1 64
      >
    >
  >
  <TRACK {27354229-DB88-4EE9-BEAA-6AF456553EED}
    NAME "5 Brass 3"
    PEAKCOL 16576
    BEAT -1
    AUTOMODE 0
    VOLPAN 1 0 -1 -1 1
    MUTESOLO 0 0 0
    IPHASE 0
    ISBUS 0 0
    BUSCOMP 0 0
    SHOWINMIX 1 0.6667 0.5 1 0.5 0 0 0
    FREEMODE 0
    SEL 0
    REC 0 0 0 0 0 0 0
    VU 2
    TRACKHEIGHT 0 0
    INQ 0 0 0 0.5 100 0 0 100
    NCHAN 2
    FX 1
    TRACKID {27354229-DB88-4EE9-BEAA-6AF456553EED}
    PERF 0
    MIDIOUT -1
    MAINSEND 1 0
    <FXCHAIN
      WNDRECT 46 90 962 590
      SHOW 0
      LASTSEL 0
      DOCKED 0
      BYPASS 0 0 0
      <VST "VSTi: sforzando (Plogue Art et Technologie, Inc)" "sforzando VST_x86.dll" 0 "" 1347176273
        UUdMUO5e7f4AAAAAAgAAAAEAAAAAAAAAAgAAAAAAAADjAQAAAQAAAAAAEAA=
        Q0VHUCkFAAB4nI1UTW+jMBC9r9T/YPneYBOgjRS2SrfRikPUleie0QBuFtUfXTAo++87QBKsaivwyX7zPJ558Gb7cFKSdKJuKqNjyleMkofvN9+2u7qCFDrhxDacU/Je
        m7ItbPKEAOMBRS7BtU2FtZU+NuRvC7Ky/zBMSWNrAQrhmK59ShSc0gHZSWmKw2NMQ47wIXlKnlt7MKUYbkFrjQKLj6bS2JgyF5KiEzKmlcbcrRLaUiKrToyXkdkUmAPr
        wg1IQIiTWyL6olZNIc/wD7wn6phGeOEoTQ7ypdVDmQh415bwdVKVA6hBYf5SNt7+ZGsorChT0+oyB/2WMZb1kcdxPy6PsTBL+iozFlLS8xJMFWCITprivvgDWvct3fbq
        GonKRVi+nQp6z7Ma9FGcKfi8boaAcramsPi1HAmQqlo7IOeGhqYOUOlLUx3IdpTc+y+FXynsK4o/T1nPU4J5SjhPieYpd/OU+3nKZp7C2QLOAn35AoH5AoX5Aon51xr/
        ghrUJwU//zYTh/uOQit/Hfk+C+42jPNwHUaOw7zeYpfD/vVVFNY13dXLo/t2Kq+ELsTkpmECORPqPnCz//ydXDKhYXFIJNM8Gc7767kRUvSefoF8dFmfZOtdhiAePgDL
        VVt3
        AAAQAAAA
      >
      FLOATPOS 0 0 0 0
      FXID {7B95A407-99E8-4B7C-A71D-39C160052DF2}
      WAK 0
    >
    <ITEM
      POSITION 0
      SNAPOFFS 0
      LENGTH 105.365068
      LOOP 0
      ALLTAKES 0
      FADEIN 1 0 0 1 0 0
      FADEOUT 1 0 0 1 0 0
      MUTE 0
      SEL 0
      IGUID {2BC24882-EF24-458C-BB8C-D3BAE0791A7C}
      IID 8
      NAME "Kirby 64 - The Crystal Shards (U) 00000017 0027D0DC.mid"
      VOLPAN 1 0 1 -1
      SOFFS 0.0010847121468 0.00260334530939
      PLAYRATE 1 1 0 -1 0 0.0025
      CHANMODE 0
      GUID {AECAE9B4-830D-4FEC-A0AA-F1EC1A66A07F}
      <SOURCE MIDI
        HASDATA 1 384 QN
        POOLEDEVTS {AB5C15C6-D311-4F34-BD82-267AEEDC7807}
        E 4609 b7 66 00
        E 10752 c7 05 00
        E 0 b7 07 7f
        E 0 b7 19 3c
        E 0 b7 16 1e
        E 0 b7 0a 22
        E 0 97 45 6c
        E 95 97 45 00
        E 45 97 45 6c
        E 95 97 45 00
        E 341 97 49 6c
        E 95 97 49 00
        E 45 97 45 6c
        E 95 97 45 00
        E 8405 97 45 6c
        E 95 97 45 00
        E 45 97 45 6c
        E 95 97 45 00
        E 341 97 47 6c
        E 95 97 47 00
        E 45 97 45 6c
        E 95 97 45 00
        E 2261 c7 12 00
        E 1536 d7 1e 00
        E 0 b7 07 6c
        E 0 b7 0a 08
        E 0 b7 16 2d
        E 36864 c7 12 00
        E 672 d7 00 00
        E 864 b7 07 6a
        E 0 b7 0a 69
        E 0 b7 16 21
        E 0 b7 19 1f
        E 29184 b7 67 00
        E 338 b0 7b 00
        GUID {D3B9FECE-EB36-4B3C-B450-33F005D97618}
        IGNTEMPO 0 120 4 4
        SRCCOLOR 10
        VELLANE 131 77 128
        CFGEDITVIEW -7400.415585 5.031304 42 12 0 -1 0 0 0 0.5
        KEYSNAP 0
        TRACKSEL 0
        EVTFILTER 0 -1 -1 -1 -1 0 0 0 0 -1 -1 -1 -1 0 -1 0 -1 -1
        CFGEDIT 1 1 0 1 0 1 1 1 1 1 1 0.125 663 216 1812 893 0 0 2 2 0 0 0 0 0 0.5 0 0 1 64
      >
    >
  >
  <TRACK {58644815-72B8-4380-BA6E-152C01F3B087}
    NAME "18 Squeak Synth 1"
    PEAKCOL 16576
    BEAT -1
    AUTOMODE 0
    VOLPAN 1 0 -1 -1 1
    MUTESOLO 0 0 0
    IPHASE 0
    ISBUS 0 0
    BUSCOMP 0 0
    SHOWINMIX 1 0.6667 0.5 1 0.5 0 0 0
    FREEMODE 0
    SEL 0
    REC 0 0 0 0 0 0 0
    VU 2
    TRACKHEIGHT 0 0
    INQ 0 0 0 0.5 100 0 0 100
    NCHAN 2
    FX 1
    TRACKID {58644815-72B8-4380-BA6E-152C01F3B087}
    PERF 0
    MIDIOUT -1
    MAINSEND 1 0
    <FXCHAIN
      WNDRECT 46 90 962 590
      SHOW 0
      LASTSEL 0
      DOCKED 0
      BYPASS 0 0 0
      <VST "VSTi: sforzando (Plogue Art et Technologie, Inc)" "sforzando VST_x86.dll" 0 "" 1347176273
        UUdMUO5e7f4AAAAAAgAAAAEAAAAAAAAAAgAAAAAAAADOAQAAAQAAAAAAEAA=
        Q0VHUPIEAAB4nI1UTW+cMBC9V+p/sHxPwAm73UjQaNOsKg6rViI9o8E4W6v+SMFG23/fsdkPVDUCn+w3b8YzD57zx6NWZBBdL60pKLtNKXn8/PFDvu0kVDCISeyBMUre
        Ott67spnBFKWUeQSXHklnJPm0JPfHpR0fzBMSe86ARrhgt7fUaLhWEVkq5Tl+6eCrhjC+/K5/Obd3rYiZoF3VoPDSytlXUHTKaTEIFRBpcHaXgvjKFFyEGMyMnuONdgq
        bEABQozcEBGauu25OsFfME90BV1jwkHZBtSLN7FNBJLLSHg7kW0EDWis36o+2R1dB9yJtrLetA2YX3Wa1iHyNO7HlaRsU5ehyzrMGHgllsowRK+a4p7/BGPCSDdBXatQ
        uXVGibs29NbUHZiDOFHwetPHgJ5sLXf4tSYSBL29i8hpoDjUHqQ5DzWA8qPkyX8p7EJJ36PczVPu5ynZPGU1T1nPUz7NUzbzlId5CksXcBboyxYIzBYozBZIzN7X+Dt0
        oP9RcPLb5Enwyvmwe30V3E3dczHlaKOtbqQwXFxtEZ+SyVOzydaT6l9/lOdK6Dx0e3l9GOJ5dzn3QolgzhdoRruEInlyfs3w8BeJY09N
        AAAQAAAA
      >
      FLOATPOS 0 0 0 0
      FXID {0B4DB61E-CB34-4B4D-9957-41B8B0CD7418}
      WAK 0
    >
    <ITEM
      POSITION 0
      SNAPOFFS 0
      LENGTH 105.365068
      LOOP 0
      ALLTAKES 0
      FADEIN 1 0 0 1 0 0
      FADEOUT 1 0 0 1 0 0
      MUTE 0
      SEL 0
      IGUID {EB43A94A-4AEA-4F9C-941E-9380A08979EF}
      IID 7
      NAME "Kirby 64 - The Crystal Shards (U) 00000017 0027D0DC.mid"
      VOLPAN 1 0 1 -1
      SOFFS 0.0010847121468 0.00260334530939
      PLAYRATE 1 1 0 -1 0 0.0025
      CHANMODE 0
      GUID {B694A788-9004-4C4F-972B-6CA397738774}
      <SOURCE MIDI
        HASDATA 1 384 QN
        POOLEDEVTS {41B120A9-B4CA-4DD2-B688-145ACE451237}
        E 4609 b6 66 00
        E 10752 c6 05 00
        E 50688 c6 12 00
        E 384 d6 00 00
        E 1152 b6 07 6a
        E 0 b6 0a 17
        E 0 b6 16 21
        E 0 b6 19 1f
        E 2 96 4c 53
        E 251 96 4c 00
        E 1479 96 4d 53
        E 251 96 4d 00
        E 1089 96 4c 53
        E 251 96 4c 00
        E 334 96 4c 53
        E 251 96 4c 00
        E 508 96 4a 53
        E 251 96 4a 00
        E 131 96 4a 53
        E 251 96 4a 00
        E 708 96 4a 53
        E 251 96 4a 00
        E 136 96 48 53
        E 251 96 48 00
        E 1093 96 46 53
        E 251 96 46 00
        E 517 96 46 53
        E 251 96 46 00
        E 325 96 46 53
        E 251 96 46 00
        E 133 96 44 53
        E 251 96 44 00
        E 19717 b6 67 00
        E 338 b0 7b 00
        GUID {FFFE192D-F8E4-4277-BB4F-73A3A6037FA7}
        IGNTEMPO 0 120 4 4
        SRCCOLOR 9
        VELLANE 131 77 128
        CFGEDITVIEW 0 3.777921 43 12 0 -1 0 0 0 0.5
        KEYSNAP 0
        TRACKSEL 0
        EVTFILTER 0 -1 -1 -1 -1 0 0 0 0 -1 -1 -1 -1 0 -1 0 -1 -1
        CFGEDIT 1 1 0 1 0 1 1 1 1 1 1 0.125 661 214 1814 895 0 0 2 2 0 0 0 0 0 0.5 0 0 1 64
      >
    >
  >
  <TRACK {87D1C3D2-5726-4DE8-BE23-4543576AB509}
    NAME "18 Squeak Synth 2"
    PEAKCOL 16576
    BEAT -1
    AUTOMODE 0
    VOLPAN 1 0 -1 -1 1
    MUTESOLO 0 0 0
    IPHASE 0
    ISBUS 0 0
    BUSCOMP 0 0
    SHOWINMIX 1 0.6667 0.5 1 0.5 0 0 0
    FREEMODE 0
    SEL 0
    REC 0 0 0 0 0 0 0
    VU 2
    TRACKHEIGHT 0 0
    INQ 0 0 0 0.5 100 0 0 100
    NCHAN 2
    FX 1
    TRACKID {87D1C3D2-5726-4DE8-BE23-4543576AB509}
    PERF 0
    MIDIOUT -1
    MAINSEND 1 0
    <FXCHAIN
      WNDRECT 46 90 962 590
      SHOW 0
      LASTSEL 0
      DOCKED 0
      BYPASS 0 0 0
      <VST "VSTi: sforzando (Plogue Art et Technologie, Inc)" "sforzando VST_x86.dll" 0 "" 1347176273
        UUdMUO5e7f4AAAAAAgAAAAEAAAAAAAAAAgAAAAAAAADiAQAAAQAAAAAAEAA=
        Q0VHUCkFAAB4nI1UwW6jMBC9r9R/sHxvsAmhiRRapW204hDtSnTPaAA3RTV2CwZl/37HkASr2go4jd88jz0Pv9k+nCpJOlE3pVYR5QtGycP9zY/tri4hgU44uQ3nlHzU
        umhzEz8jwHhAkUvw2ybCmFIdG/LZgizNX0xT0phaQIVwRJc+JRWckh7ZSanzw2NEVxzhQ/wc/2rNQRei3wWt0RUYPDSR2kSUuZAUnZARLRXWbiuhDCWy7MSwGZlNjjX4
        2gYgASFObomwl1o0uTzDT7hP1BENccNR6gzkS6v6ayLgXVvC00lZ9KCCCusXsvH2J1NDbkSR6FYVGaj3lLHUZh6HePg8xtdpbG+Z2h4tL8ZSAaboqCnG+RsoZVu6tepq
        icqFASVmvNBHltagjuJMweNV0ycqJ9S5wb/lSLBCsDU9cm6ob+oApbo01YFsB8m9/1L4lcK+o/jTlOU0JZimrKYp4TTlbpqynqZspimczeDM0JfPEJjPUJjPkJh/r/Fv
        qKH6ouDXZzNyuO8otPCXoe+z4G7D8FEuV6HjMM9a7LLYv76K3Limu3p5cN+uykqhcjG6qZ9AzoRaB271n3/iSyU0LA6JeJwn/Xp/XTdCCuvpF8gGl9kiW+8yBHHxD/Of
        W4U=
        AAAQAAAA
      >
      FLOATPOS 0 0 0 0
      FXID {C9F2E08A-E095-4450-B40F-58E4B7BD3992}
      WAK 0
    >
    <ITEM
      POSITION 0
      SNAPOFFS 0
      LENGTH 105.365068
      LOOP 0
      ALLTAKES 0
      FADEIN 1 0 0 1 0 0
      FADEOUT 1 0 0 1 0 0
      MUTE 0
      SEL 0
      IGUID {2A1992A0-C699-48EE-AA1B-9B226E176C96}
      IID 8
      NAME "Kirby 64 - The Crystal Shards (U) 00000017 0027D0DC.mid"
      VOLPAN 1 0 1 -1
      SOFFS 0.0010847121468 0.00260334530939
      PLAYRATE 1 1 0 -1 0 0.0025
      CHANMODE 0
      GUID {043AA160-7C08-4F8A-9458-48F904C73286}
      <SOURCE MIDI
        HASDATA 1 384 QN
        POOLEDEVTS {7FD46FF5-B205-4027-9FF1-2224AED0598D}
        E 4609 b7 66 00
        E 10752 c7 05 00
        E 12288 c7 12 00
        E 1536 d7 1e 00
        E 0 b7 07 6c
        E 0 b7 0a 08
        E 0 b7 16 2d
        E 4 97 4b 65
        E 105 97 4b 00
        E 1365 97 4b 65
        E 230 97 4b 00
        E 28 97 4b 65
        E 97 97 4b 00
        E 1056 97 47 65
        E 94 97 47 00
        E 33 97 47 65
        E 70 97 47 00
        E 1274 97 47 65
        E 60 97 47 00
        E 196 97 4b 65
        E 105 97 4b 00
        E 471 97 4b 65
        E 120 97 4b 00
        E 456 97 4b 65
        E 120 97 4b 00
        E 452 97 47 65
        E 130 97 47 00
        E 254 97 47 65
        E 130 97 47 00
        E 642 97 4b 65
        E 240 97 4b 00
        E 1297 97 47 65
        E 94 97 47 00
        E 33 97 47 65
        E 70 97 47 00
        E 1338 97 4b 65
        E 80 97 4b 00
        E 48 97 4b 65
        E 50 97 4b 00
        E 14 97 47 65
        E 97 97 47 00
        E 671 97 47 65
        E 97 97 47 00
        E 479 97 4b 65
        E 175 97 4b 00
        E 24589 c7 12 00
        E 672 d7 00 00
        E 864 b7 07 6a
        E 0 b7 0a 69
        E 0 b7 16 21
        E 0 b7 19 1f
        E 5 97 47 53
        E 251 97 47 00
        E 1482 97 48 53
        E 251 97 48 00
        E 1087 97 46 53
        E 251 97 46 00
        E 332 97 46 53
        E 251 97 46 00
        E 514 97 45 53
        E 251 97 45 00
        E 132 97 45 53
        E 251 97 45 00
        E 702 97 45 53
        E 251 97 45 00
        E 133 97 42 53
        E 251 97 42 00
        E 1093 97 41 53
        E 251 97 41 00
        E 517 97 41 53
        E 251 97 41 00
        E 325 97 41 53
        E 251 97 41 00
        E 133 97 3e 53
        E 251 97 3e 00
        E 19717 b7 67 00
        E 338 b0 7b 00
        GUID {D3B9FECE-EB36-4B3C-B450-33F005D97618}
        IGNTEMPO 0 120 4 4
        SRCCOLOR 10
        VELLANE 131 77 128
        CFGEDITVIEW 8534.393109 28.070267 42 12 0 -1 0 0 0 0.5
        KEYSNAP 0
        TRACKSEL 0
        EVTFILTER 0 -1 -1 -1 -1 0 0 0 0 -1 -1 -1 -1 0 -1 0 -1 -1
        CFGEDIT 1 1 0 1 0 1 1 1 1 1 1 0.125 663 216 1812 893 0 0 2 2 0 0 0 0 0 0.5 0 0 1 64
      >
    >
  >
  <TRACK {4CD94C41-C19A-4A84-85CD-B0842F8B56D2}
    NAME "18 Squeak Synth 3"
    PEAKCOL 16576
    BEAT -1
    AUTOMODE 0
    VOLPAN 1 0 -1 -1 1
    MUTESOLO 0 0 0
    IPHASE 0
    ISBUS 0 0
    BUSCOMP 0 0
    SHOWINMIX 1 0.6667 0.5 1 0.5 0 0 0
    FREEMODE 0
    SEL 0
    REC 0 0 0 0 0 0 0
    VU 2
    TRACKHEIGHT 0 0
    INQ 0 0 0 0.5 100 0 0 100
    NCHAN 2
    FX 1
    TRACKID {4CD94C41-C19A-4A84-85CD-B0842F8B56D2}
    PERF 0
    MIDIOUT -1
    MAINSEND 1 0
    <FXCHAIN
      WNDRECT 46 90 962 590
      SHOW 0
      LASTSEL 0
      DOCKED 0
      BYPASS 0 0 0
      <VST "VSTi: sforzando (Plogue Art et Technologie, Inc)" "sforzando VST_x86.dll" 0 "" 1347176273
        UUdMUO5e7f4AAAAAAgAAAAEAAAAAAAAAAgAAAAAAAADSAQAAAQAAAAAAEAA=
        Q0VHUBcFAAB4nI1UUW+bMBB+n7T/YPm9BTc0SyVYla7RxEO0SXTP6DBuatXYHdgo+/c7mySgqhX46fzdd+e7D+7S+2OjSC/aThqdUXYdU3L//euXdNtKKKAXE98dY5S8
        taZ23OaPCMQsocgleNJCWCv1oSN/HShp/6Gbks62AhqEM7q6oaSBYxGQrVKG7x8yessQ3ueP+S9n96YWIQqcNQ1YfLRQxmY0nkJK9EJlVGrM7RqhLSVK9mIIRmbHfWEr
        b4AChBi5IsIXdd1xdYJ/YJxoM7rGgIMyFagnp0OZCESXlvB1IusAamgwf626aHe0LXAr6sI4XVegX8s4Lr3nYbCHE8VsU+a+ytL36Hk5pkrQRUdN0eYvoLVv6cqraxQq
        t04osWNBb1XZgj6IEwWf111wNBPTcItfayKBB50NyKmh0NQepD431YNyg+TRhxR2ocSfUW7mKat5SjJPuZ2nrOcp3+Ypm3nK3TyFxQs4C/RlCwRmCxRmCyRmn2v8G1po
        3in4/rcZOR83n0Z+oM6X3fOz4HY6YpfJHWZt21RSaC7G2Qn7ZrKPNsl6kv3nn/ycCccTV0I+bo9w313unVDCT/ATVMNM+SRpdF55ePkPXDFX0g==
        AAAQAAAA
      >
      FLOATPOS 0 0 0 0
      FXID {1905F687-50BE-4174-AD27-F23FCA22E4BF}
      WAK 0
    >
    <ITEM
      POSITION 0
      SNAPOFFS 0
      LENGTH 105.365068
      LOOP 0
      ALLTAKES 0
      FADEIN 1 0 0 1 0 0
      FADEOUT 1 0 0 1 0 0
      MUTE 0
      SEL 0
      IGUID {4283C2A3-4F32-48E1-8FC3-07320EEA9AA9}
      IID 9
      NAME "Kirby 64 - The Crystal Shards (U) 00000017 0027D0DC.mid"
      VOLPAN 1 0 1 -1
      SOFFS 0.0010847121468 0.00260334530939
      PLAYRATE 1 1 0 -1 0 0.0025
      CHANMODE 0
      GUID {64FA1D07-1CBB-476F-AB4D-73ED06BD39B5}
      <SOURCE MIDI
        HASDATA 1 384 QN
        POOLEDEVTS {52FDCADA-AEC9-4126-A193-AC0221FF2905}
        E 4609 b8 66 00
        E 10752 c8 20 00
        E 12288 c8 12 00
        E 1536 d8 1e 00
        E 0 b8 07 6c
        E 0 b8 19 1e
        E 0 b8 16 2d
        E 0 b8 0a 78
        E 2 98 47 65
        E 105 98 47 00
        E 1368 98 47 65
        E 230 98 47 00
        E 25 98 47 65
        E 117 98 47 00
        E 1037 98 45 65
        E 94 98 45 00
        E 33 98 45 65
        E 70 98 45 00
        E 1274 98 45 65
        E 60 98 45 00
        E 195 98 47 65
        E 105 98 47 00
        E 471 98 47 65
        E 120 98 47 00
        E 456 98 47 65
        E 120 98 47 00
        E 456 98 45 65
        E 130 98 45 00
        E 254 98 45 65
        E 130 98 45 00
        E 638 98 47 65
        E 240 98 47 00
        E 910 b8 19 1e
        E 388 98 45 65
        E 94 98 45 00
        E 33 98 45 65
        E 70 98 45 00
        E 1337 98 45 65
        E 80 98 45 00
        E 48 98 45 65
        E 50 98 45 00
        E 14 98 45 65
        E 117 98 45 00
        E 651 98 45 65
        E 117 98 45 00
        E 459 98 47 65
        E 175 98 47 00
        E 15 c8 2d 00
        E 96 d8 00 00
        E 1629 b8 0a 7f
        E 192 b8 0a 00
        E 384 b8 0a 7f
        E 384 b8 0a 7f
        E 387 b8 19 0a
        E 189 b8 0a 7f
        E 192 b8 0a 00
        E 384 b8 0a 7f
        E 384 b8 0a 7f
        E 507 b8 19 0a
        E 5 b8 0a 00
        E 384 b8 0a 7f
        E 448 b8 0a 00
        E 192 b8 0a 7f
        E 459 b8 19 0a
        E 53 b8 0a 7f
        E 256 b8 0a 00
        E 192 b8 0a 7f
        E 384 b8 0a 00
        E 192 b8 0a 00
        E 576 b8 0a 7f
        E 192 b8 0a 00
        E 384 b8 0a 7f
        E 384 b8 0a 7f
        E 387 b8 19 0a
        E 189 b8 0a 7f
        E 192 b8 0a 00
        E 384 b8 0a 7f
        E 384 b8 0a 7f
        E 507 b8 19 0a
        E 5 b8 0a 00
        E 384 b8 0a 7f
        E 448 b8 0a 00
        E 192 b8 0a 7f
        E 459 b8 19 0a
        E 53 b8 0a 7f
        E 256 b8 0a 00
        E 192 b8 0a 7f
        E 384 b8 0a 00
        E 192 b8 0a 00
        E 576 b8 0a 7f
        E 192 b8 0a 00
        E 384 b8 0a 7f
        E 384 b8 0a 7f
        E 387 b8 19 0a
        E 189 b8 0a 7f
        E 192 b8 0a 00
        E 384 b8 0a 7f
        E 384 b8 0a 7f
        E 507 b8 19 0a
        E 5 b8 0a 00
        E 384 b8 0a 7f
        E 448 b8 0a 00
        E 192 b8 0a 7f
        E 459 b8 19 0a
        E 53 b8 0a 7f
        E 256 b8 0a 00
        E 192 b8 0a 7f
        E 384 b8 0a 00
        E 192 b8 0a 00
        E 4995 c8 20 00
        E 576 d8 00 00
        E 30144 b8 67 00
        E 338 b0 7b 00
        GUID {464E337A-4A52-40CC-B276-F464AABEEFB1}
        IGNTEMPO 0 120 4 4
        SRCCOLOR 11
        VELLANE 131 77 128
        CFGEDITVIEW 0 6.700515 46 12 0 -1 0 0 0 0.5
        KEYSNAP 0
        TRACKSEL 0
        EVTFILTER 0 -1 -1 -1 -1 0 0 0 0 -1 -1 -1 -1 0 -1 0 -1 -1
        CFGEDIT 1 1 0 1 0 1 1 1 1 1 1 0.125 651 204 1824 905 0 0 2 2 0 0 0 0 0 0.5 0 0 1 64
      >
    >
  >
  <TRACK {F7F7DE12-FAB7-41D9-A3E2-207A4C96FED2}
    NAME "32 Orchestra Hit"
    PEAKCOL 16576
    BEAT -1
    AUTOMODE 0
    VOLPAN 1 0 -1 -1 1
    MUTESOLO 0 0 0
    IPHASE 0
    ISBUS 0 0
    BUSCOMP 0 0
    SHOWINMIX 1 0.6667 0.5 1 0.5 0 0 0
    FREEMODE 0
    SEL 0
    REC 0 0 0 0 0 0 0
    VU 2
    TRACKHEIGHT 0 0
    INQ 0 0 0 0.5 100 0 0 100
    NCHAN 2
    FX 1
    TRACKID {F7F7DE12-FAB7-41D9-A3E2-207A4C96FED2}
    PERF 0
    MIDIOUT -1
    MAINSEND 1 0
    <FXCHAIN
      WNDRECT 46 90 962 590
      SHOW 0
      LASTSEL 0
      DOCKED 0
      BYPASS 0 0 0
      <VST "VSTi: sforzando (Plogue Art et Technologie, Inc)" "sforzando VST_x86.dll" 0 "" 1347176273
        UUdMUO5e7f4AAAAAAgAAAAEAAAAAAAAAAgAAAAAAAADPAQAAAQAAAAAAEAA=
        Q0VHUO8EAAB4nI1UwW6cMBC9V+o/WL4n4F1CsxIk2jSrisOqlUjPaDDO1qqxUzBo+/cdm2VBVSLggv3meTzz4E3yeK4V6UXTSqNTym5DSh4fPn9K9o2EHHoxi+0Yo+St
        MVXHbfaMQMgiilyCT5ILa6U+teRPB0ravximpLWNgBrhlG43lNRwzj2yV8rw41NK7xjCx+w5+97Zo6mEPwWdNTVYvDRXxqY0nENK9EKlVGrM3dVCW0qU7MVwGJktT+lu
        596gABFGbohwNd22XF3gr3hMNCmNkX9SpgT10mlfJQLBtSO8nMjKgxpqTF+pNjicbQPciio3na5K0L+LMCxc5GlYD08QbjdF5oosNnje8TJMFWGITpLimv8CrV1HN05c
        o1C4OKLETgW9lUUD+iQuFLxetz5Qz5aGW/xYkwIxYp31wKUf39MRpB576kF1g+DBuxR2pYQfUTbLlO0yJVqm3C1T4mXKl2XK/TJlt0xh4QrOCn3ZCoHZCoXZConZxxr/
        gAbq/xSc/TZJ4Kwybg6vr4LbuXlGSw4m2telFJqLyRR+jszmzH0Uz5J/+5mNidB3aPVsmgp+f7juW6GEs+YLlINZXJIkGEcZbv4BWjZO2Q==
        AAAQAAAA
      >
      FLOATPOS 0 0 0 0
      FXID {8A079C0C-37A8-4549-8A24-EF895AF56077}
      WAK 0
    >
    <ITEM
      POSITION 0
      SNAPOFFS 0
      LENGTH 105.365068
      LOOP 0
      ALLTAKES 0
      FADEIN 1 0 0 1 0 0
      FADEOUT 1 0 0 1 0 0
      MUTE 0
      SEL 0
      IGUID {0FB42926-DB96-4D50-A10C-E56F1895C992}
      IID 9
      NAME "Kirby 64 - The Crystal Shards (U) 00000017 0027D0DC.mid"
      VOLPAN 1 0 1 -1
      SOFFS 0.0010847121468 0.00260334530939
      PLAYRATE 1 1 0 -1 0 0.0025
      CHANMODE 0
      GUID {4F6F70F8-EFF9-4E1C-9239-2D411A93C206}
      <SOURCE MIDI
        HASDATA 1 384 QN
        POOLEDEVTS {EF114E2C-CDCA-4606-B4A9-CC061588EBCD}
        E 4609 b8 66 00
        E 10752 c8 20 00
        E 0 b8 07 78
        E 0 b8 16 3c
        E 0 b8 19 46
        E 0 b8 0a 40
        E 0 98 44 5f
        E 125 98 44 00
        E 15 98 44 5f
        E 421 98 44 00
        E 15 98 47 5f
        E 125 98 47 00
        E 15 98 44 5f
        E 400 98 44 00
        E 8100 b8 0a 40
        E 0 98 49 5f
        E 125 98 49 00
        E 15 98 49 5f
        E 421 98 49 00
        E 15 98 4a 5f
        E 125 98 4a 00
        E 15 98 49 5f
        E 400 98 49 00
        E 1956 c8 12 00
        E 1536 d8 1e 00
        E 0 b8 07 6c
        E 0 b8 19 1e
        E 0 b8 16 2d
        E 0 b8 0a 78
        E 8640 b8 19 1e
        E 3648 c8 2d 00
        E 96 d8 00 00
        E 1629 b8 0a 7f
        E 192 b8 0a 00
        E 384 b8 0a 7f
        E 384 b8 0a 7f
        E 387 b8 19 0a
        E 189 b8 0a 7f
        E 192 b8 0a 00
        E 384 b8 0a 7f
        E 384 b8 0a 7f
        E 507 b8 19 0a
        E 5 b8 0a 00
        E 384 b8 0a 7f
        E 448 b8 0a 00
        E 192 b8 0a 7f
        E 459 b8 19 0a
        E 53 b8 0a 7f
        E 256 b8 0a 00
        E 192 b8 0a 7f
        E 384 b8 0a 00
        E 192 b8 0a 00
        E 576 b8 0a 7f
        E 192 b8 0a 00
        E 384 b8 0a 7f
        E 384 b8 0a 7f
        E 387 b8 19 0a
        E 189 b8 0a 7f
        E 192 b8 0a 00
        E 384 b8 0a 7f
        E 384 b8 0a 7f
        E 507 b8 19 0a
        E 5 b8 0a 00
        E 384 b8 0a 7f
        E 448 b8 0a 00
        E 192 b8 0a 7f
        E 459 b8 19 0a
        E 53 b8 0a 7f
        E 256 b8 0a 00
        E 192 b8 0a 7f
        E 384 b8 0a 00
        E 192 b8 0a 00
        E 576 b8 0a 7f
        E 192 b8 0a 00
        E 384 b8 0a 7f
        E 384 b8 0a 7f
        E 387 b8 19 0a
        E 189 b8 0a 7f
        E 192 b8 0a 00
        E 384 b8 0a 7f
        E 384 b8 0a 7f
        E 507 b8 19 0a
        E 5 b8 0a 00
        E 384 b8 0a 7f
        E 448 b8 0a 00
        E 192 b8 0a 7f
        E 459 b8 19 0a
        E 53 b8 0a 7f
        E 256 b8 0a 00
        E 192 b8 0a 7f
        E 384 b8 0a 00
        E 192 b8 0a 00
        E 4995 c8 20 00
        E 576 d8 00 00
        E 960 b8 07 6f
        E 0 b8 16 7f
        E 0 b8 0a 40
        E 0 98 45 53
        E 759 98 45 00
        E 975 98 46 53
        E 768 98 46 00
        E 576 98 45 53
        E 384 98 45 00
        E 195 98 45 53
        E 384 98 45 00
        E 375 98 43 53
        E 340 98 43 00
        E 45 98 43 53
        E 384 98 43 00
        E 574 98 43 53
        E 355 98 43 00
        E 30 98 41 53
        E 768 98 41 00
        E 576 98 3f 53
        E 576 98 3f 00
        E 192 98 3f 53
        E 384 98 3f 00
        E 192 98 3f 53
        E 348 98 3f 00
        E 36 98 3d 53
        E 384 98 3d 00
        E 19584 b8 67 00
        E 338 b0 7b 00
        GUID {464E337A-4A52-40CC-B276-F464AABEEFB1}
        IGNTEMPO 0 120 4 4
        SRCCOLOR 11
        VELLANE 131 77 128
        CFGEDITVIEW 0 6.700515 47 12 0 -1 0 0 0 0.5
        KEYSNAP 0
        TRACKSEL 0
        EVTFILTER 0 -1 -1 -1 -1 0 0 0 0 -1 -1 -1 -1 0 -1 0 -1 -1
        CFGEDIT 1 1 0 1 0 1 1 1 1 1 1 0.125 651 204 1824 905 0 0 2 2 0 0 0 0 0 0.5 0 0 1 64
      >
    >
  >
  <TRACK {5DA93FC8-7F5C-4B18-808E-70940D7A0165}
    NAME "10 Breathy Flute"
    PEAKCOL 16576
    BEAT -1
    AUTOMODE 0
    VOLPAN 1 0 -1 -1 1
    MUTESOLO 0 0 0
    IPHASE 0
    ISBUS 2 -1
    BUSCOMP 0 0
    SHOWINMIX 1 0.6667 0.5 1 0.5 0 0 0
    FREEMODE 0
    SEL 0
    REC 0 0 0 0 0 0 0
    VU 2
    TRACKHEIGHT 0 0
    INQ 0 0 0 0.5 100 0 0 100
    NCHAN 2
    FX 1
    TRACKID {5DA93FC8-7F5C-4B18-808E-70940D7A0165}
    PERF 0
    MIDIOUT -1
    MAINSEND 1 0
    <FXCHAIN
      WNDRECT 50 94 958 586
      SHOW 0
      LASTSEL 0
      DOCKED 0
      BYPASS 0 0 0
      <VST "VSTi: sforzando (Plogue Art et Technologie, Inc)" "sforzando VST_x86.dll" 0 "" 1347176273
        UUdMUO5e7f4AAAAAAgAAAAEAAAAAAAAAAgAAAAAAAADOAQAAAQAAAAAAEAA=
        Q0VHUO8EAAB4nI1UTW+cMBC9V+p/sHxPsLNkm5Wg0aZZVRxWrUR6RgM4W6v+SMFG23/fMSwLqhoBFzxvnsczD56Tx7NWpBNNK61JKb9llDx+/vgh2TcScujELLfjnJK3
        xta+ctkzAozHFLkEnyQXzklzaslvD0q6P5impHWNAI1wSjd3lGg45z2yV8pWx6eU3nOEj9lz9s27o61Fvwu8sxocHpor61LK5pASnVAplQZrey2Mo0TJTgybkdlWKd1t
        whsUIMLJDRGhp9u2Uhf4C24TTUq3yD8pW4J68abvEoHoOhEeTmTdgwY0lq9VGx3OroHKiTq33tQlmF8FY0XIPA3r4YkYZ0UWmizYnpLAy7BUjCk6SYrr6icYEya6CeJa
        hcJtY0rc1NBbWTRgTuJCweNN2yf0bGkrhx9rUiBg3vXAZZ5+piNIM87UgfKD4NF/KfxKYe9R7pYpm2VKvEy5X6ZslymflikPy5TdMoWzFZwV+vIVAvMVCvMVEvP3Nf4O
        Deh/FJz9NkkUrDIGh9dXUbm5eUZLDiba61IKU4nJFP09MrtnHuLtrPjXH9lYCH2HVs+mW6GPD9e4FUoEa75AOZglFEmi8SrD4C9Sw07S
        AAAQAAAA
      >
      FLOATPOS 0 0 0 0
      FXID {B7ACF196-8398-4F38-96D2-DE690BE6DDFF}
      WAK 0
    >
    <ITEM
      POSITION 0
      SNAPOFFS 0
      LENGTH 105.365068
      LOOP 0
      ALLTAKES 0
      FADEIN 1 0 0 1 0 0
      FADEOUT 1 0 0 1 0 0
      MUTE 0
      SEL 0
      IGUID {E688DE52-570A-4EC9-BCC0-A8444B81C372}
      IID 12
      NAME "Kirby 64 - The Crystal Shards (U) 00000017 0027D0DC.mid"
      VOLPAN 1 0 1 -1
      SOFFS 0.0010847121468 0.00260334530939
      PLAYRATE 1 1 0 -1 0 0.0025
      CHANMODE 0
      GUID {269EC22B-186F-4DF2-B68A-C7F2999D2505}
      <SOURCE MIDI
        HASDATA 1 384 QN
        POOLEDEVTS {55841CAB-ECC1-4055-BEA4-2AE7F012F1DD}
        E 4609 bb 66 00
        E 38400 cb 2d 00
        E 189 bb 0a 7f
        E 192 bb 0a 00
        E 384 bb 0a 7f
        E 384 bb 0a 00
        E 576 bb 0a 7f
        E 192 bb 0a 00
        E 384 bb 0a 7f
        E 384 bb 0a 00
        E 512 bb 0a 00
        E 384 bb 0a 7f
        E 448 bb 0a 00
        E 192 bb 0a 00
        E 512 bb 0a 7f
        E 256 bb 0a 00
        E 192 bb 0a 7f
        E 384 bb 0a 00
        E 192 bb 0a 7f
        E 576 bb 0a 7f
        E 192 bb 0a 00
        E 384 bb 0a 7f
        E 384 bb 0a 00
        E 576 bb 0a 7f
        E 192 bb 0a 00
        E 384 bb 0a 7f
        E 384 bb 0a 00
        E 512 bb 0a 00
        E 384 bb 0a 7f
        E 448 bb 0a 00
        E 192 bb 0a 00
        E 512 bb 0a 7f
        E 256 bb 0a 00
        E 192 bb 0a 7f
        E 384 bb 0a 00
        E 192 bb 0a 7f
        E 576 bb 0a 7f
        E 192 bb 0a 00
        E 384 bb 0a 7f
        E 384 bb 0a 00
        E 576 bb 0a 7f
        E 192 bb 0a 00
        E 384 bb 0a 7f
        E 384 bb 0a 00
        E 512 bb 0a 00
        E 384 bb 0a 7f
        E 448 bb 0a 00
        E 192 bb 0a 00
        E 512 bb 0a 7f
        E 256 bb 0a 00
        E 192 bb 0a 7f
        E 384 bb 0a 00
        E 192 bb 0a 7f
        E 17283 cb 0a 00
        E 192 bb 16 2d
        E 1344 bb 0a 40
        E 0 bb 07 47
        E 0 bb 19 28
        E 0 9b 42 6e
        E 96 9b 42 00
        E 32 9b 42 5a
        E 35 9b 42 00
        E 29 9b 4e 64
        E 96 9b 4e 00
        E 32 9b 4e 50
        E 35 9b 4e 00
        E 29 9b 50 64
        E 96 9b 50 00
        E 32 9b 50 50
        E 35 9b 50 00
        E 29 9b 4e 64
        E 96 9b 4e 00
        E 32 9b 4e 50
        E 35 9b 4e 00
        E 29 9b 58 5f
        E 96 9b 58 00
        E 32 9b 58 4b
        E 35 9b 58 00
        E 29 9b 52 64
        E 96 9b 52 00
        E 32 9b 52 50
        E 35 9b 52 00
        E 29 9b 56 5f
        E 96 9b 56 00
        E 32 9b 56 4b
        E 35 9b 56 00
        E 29 9b 54 5f
        E 96 9b 54 00
        E 32 9b 54 4b
        E 35 9b 54 00
        E 29 9b 58 55
        E 100 9b 58 00
        E 28 9b 54 4b
        E 51 9b 54 00
        E 13 9b 52 64
        E 96 9b 52 00
        E 32 9b 56 4b
        E 51 9b 56 00
        E 13 9b 50 64
        E 96 9b 50 00
        E 32 9b 54 4b
        E 51 9b 54 00
        E 13 9b 4e 64
        E 96 9b 4e 00
        E 32 9b 52 50
        E 51 9b 52 00
        E 13 9b 48 64
        E 96 9b 48 00
        E 32 9b 48 64
        E 51 9b 48 00
        E 13 9b 3c 78
        E 51 9b 3c 00
        E 77 9b 48 64
        E 51 9b 48 00
        E 13 9b 3c 6f
        E 163 9b 3c 00
        E 29 9b 48 64
        E 96 9b 48 00
        E 32 9b 48 50
        E 51 9b 48 00
        E 13 9b 4a 64
        E 96 9b 4a 00
        E 32 9b 48 5f
        E 51 9b 48 00
        E 13 9b 4a 64
        E 96 9b 4a 00
        E 32 9b 48 5f
        E 51 9b 48 00
        E 13 9b 4c 64
        E 96 9b 4c 00
        E 32 9b 4a 5f
        E 51 9b 4a 00
        E 13 9b 4c 64
        E 96 9b 4c 00
        E 32 9b 4c 5f
        E 51 9b 4c 00
        E 13 9b 4e 64
        E 96 9b 4e 00
        E 32 9b 42 69
        E 51 9b 42 00
        E 13 9b 42 6e
        E 96 9b 42 00
        E 32 9b 4e 5f
        E 51 9b 4e 00
        E 13 9b 42 6e
        E 96 9b 42 00
        E 32 9b 42 69
        E 51 9b 42 00
        E 13 9b 4e 64
        E 96 9b 4e 00
        E 32 9b 42 69
        E 51 9b 42 00
        E 13 9b 42 6e
        E 96 9b 42 00
        E 32 9b 4e 5f
        E 51 9b 4e 00
        E 13 9b 42 6e
        E 96 9b 42 00
        E 32 9b 42 69
        E 51 9b 42 00
        E 13 9b 4e 64
        E 96 9b 4e 00
        E 32 9b 42 69
        E 51 9b 42 00
        E 13 9b 4e 64
        E 96 9b 4e 00
        E 32 9b 42 69
        E 51 9b 42 00
        E 13 9b 4e 64
        E 96 9b 4e 00
        E 32 9b 50 5f
        E 51 9b 50 00
        E 13 9b 50 64
        E 96 9b 50 00
        E 32 9b 4e 5f
        E 51 9b 4e 00
        E 13 9b 50 64
        E 96 9b 50 00
        E 32 9b 42 69
        E 51 9b 42 00
        E 13 9b 42 6e
        E 96 9b 42 00
        E 32 9b 44 69
        E 51 9b 44 00
        E 13 9b 44 6e
        E 96 9b 44 00
        E 32 9b 42 69
        E 51 9b 42 00
        E 13 9b 4e 64
        E 96 9b 4e 00
        E 32 9b 42 69
        E 51 9b 42 00
        E 13 9b 50 64
        E 96 9b 50 00
        E 32 9b 4e 5f
        E 51 9b 4e 00
        E 13 9b 42 6e
        E 96 9b 42 00
        E 32 9b 44 69
        E 51 9b 44 00
        E 13 9b 44 6e
        E 96 9b 44 00
        E 32 9b 42 69
        E 51 9b 42 00
        E 13 9b 4e 64
        E 96 9b 4e 00
        E 32 9b 50 5f
        E 51 9b 50 00
        E 13 9b 50 64
        E 96 9b 50 00
        E 32 9b 4e 5f
        E 51 9b 4e 00
        E 13 9b 50 64
        E 96 9b 50 00
        E 32 9b 4e 5f
        E 51 9b 4e 00
        E 13 9b 50 64
        E 96 9b 50 00
        E 32 9b 4e 5f
        E 51 9b 4e 00
        E 13 9b 50 64
        E 96 9b 50 00
        E 32 9b 50 50
        E 35 9b 50 00
        E 29 9b 4e 64
        E 96 9b 4e 00
        E 32 9b 4e 50
        E 35 9b 4e 00
        E 29 9b 4c 64
        E 96 9b 4c 00
        E 32 9b 4c 50
        E 35 9b 4c 00
        E 29 9b 4e 64
        E 96 9b 4e 00
        E 32 9b 4e 50
        E 35 9b 4e 00
        E 29 9b 40 6f
        E 96 9b 40 00
        E 32 9b 40 5a
        E 35 9b 40 00
        E 29 9b 41 6f
        E 96 9b 41 00
        E 32 9b 41 5a
        E 35 9b 41 00
        E 29 9b 42 6f
        E 96 9b 42 00
        E 32 9b 42 5a
        E 35 9b 42 00
        E 29 9b 40 6f
        E 96 9b 40 00
        E 32 9b 40 5a
        E 35 9b 40 00
        E 29 9b 48 64
        E 96 9b 48 00
        E 32 9b 48 50
        E 35 9b 48 00
        E 29 9b 46 64
        E 96 9b 46 00
        E 32 9b 46 50
        E 35 9b 46 00
        E 29 9b 44 6e
        E 96 9b 44 00
        E 32 9b 44 5a
        E 35 9b 44 00
        E 29 9b 4b 64
        E 96 9b 4b 00
        E 32 9b 4b 50
        E 35 9b 4b 00
        E 29 9b 48 64
        E 96 9b 48 00
        E 32 9b 48 50
        E 35 9b 48 00
        E 29 9b 44 6e
        E 96 9b 44 00
        E 32 9b 44 5a
        E 35 9b 44 00
        E 29 9b 4c 64
        E 96 9b 4c 00
        E 32 9b 4c 50
        E 35 9b 4c 00
        E 29 9b 48 64
        E 96 9b 48 00
        E 32 9b 48 50
        E 35 9b 48 00
        E 29 9b 46 64
        E 96 9b 46 00
        E 32 9b 46 50
        E 35 9b 46 00
        E 29 9b 4e 64
        E 96 9b 4e 00
        E 32 9b 4e 50
        E 35 9b 4e 00
        E 29 9b 4c 64
        E 96 9b 4c 00
        E 32 9b 4c 50
        E 35 9b 4c 00
        E 29 9b 50 64
        E 96 9b 50 00
        E 32 9b 50 50
        E 35 9b 50 00
        E 29 9b 54 5f
        E 96 9b 54 00
        E 32 9b 54 4b
        E 35 9b 54 00
        E 29 9b 5a 5f
        E 96 9b 5a 00
        E 32 9b 5a 4b
        E 35 9b 5a 00
        E 29 9b 58 5f
        E 96 9b 58 00
        E 32 9b 58 4b
        E 35 9b 58 00
        E 4637 bb 67 00
        E 338 b0 7b 00
        GUID {4AB47EF0-6E6C-4FBA-9E9C-527473E6F67E}
        IGNTEMPO 0 120 4 4
        SRCCOLOR 14
        VELLANE 131 77 128
        CFGEDITVIEW 0 6.700515 37 12 0 -1 0 0 0 0.5
        KEYSNAP 0
        TRACKSEL 0
        EVTFILTER 0 -1 -1 -1 -1 0 0 0 0 -1 -1 -1 -1 0 -1 0 -1 -1
        CFGEDIT 1 1 0 1 0 1 1 1 1 1 1 0.125 637 190 1838 919 0 0 2 2 0 0 0 0 0 0.5 0 0 1 64
      >
    >
  >
  <TRACK {78B8E8B6-A487-494B-BFEF-1BD7B6ECE430}
    NAME BACKING
    PEAKCOL 16576
    BEAT -1
    AUTOMODE 0
    VOLPAN 1 0 -1 -1 1
    MUTESOLO 0 0 0
    IPHASE 0
    ISBUS 1 1
    BUSCOMP 0 0
    SHOWINMIX 1 0.6667 0.5 1 0.5 0 0 0
    FREEMODE 0
    SEL 0
    REC 0 0 0 0 0 0 0
    VU 2
    TRACKHEIGHT 0 0
    INQ 0 0 0 0.5 100 0 0 100
    NCHAN 2
    FX 1
    TRACKID {78B8E8B6-A487-494B-BFEF-1BD7B6ECE430}
    PERF 0
    MIDIOUT -1
    MAINSEND 1 0
  >
  <TRACK {0E74B77E-83EB-4CBE-A16D-D97BD9028454}
    NAME "8 Raindrops"
    PEAKCOL 16576
    BEAT -1
    AUTOMODE 0
    VOLPAN 1 0 -1 -1 1
    MUTESOLO 0 0 0
    IPHASE 0
    ISBUS 0 0
    BUSCOMP 0 0
    SHOWINMIX 1 0.6667 0.5 1 0.5 0 0 0
    FREEMODE 0
    SEL 0
    REC 0 0 0 0 0 0 0
    VU 2
    TRACKHEIGHT 0 0
    INQ 0 0 0 0.5 100 0 0 100
    NCHAN 2
    FX 1
    TRACKID {0E74B77E-83EB-4CBE-A16D-D97BD9028454}
    PERF 0
    MIDIOUT -1
    MAINSEND 1 0
    <FXCHAIN
      WNDRECT 48 92 962 590
      SHOW 0
      LASTSEL 0
      DOCKED 0
      BYPASS 0 0 0
      <VST "VSTi: sforzando (Plogue Art et Technologie, Inc)" "sforzando VST_x86.dll" 0 "" 1347176273
        UUdMUO5e7f4AAAAAAgAAAAEAAAAAAAAAAgAAAAAAAADPAQAAAQAAAAAAEAA=
        Q0VHUO8EAAB4nI1UTW+cMBC9V+p/sHxPsBOy3ZWg0aZZVRxWrUR6RgM4W6v+SMGg7b/v2CwLqhoBF+w3z+OZB2+Sx7NWpBdNK61JKb9llDx+/vgh2TcScujFLLbjnJK3
        xtZd5bJnBBiPKXIJPkkunJPm1JLfHSjp/mCYktY1AjTCKb2/o0TDOQ/IXilbHZ9S+sARPmbP2bfOHW0twinonNXg8NJcWZdSNoeU6IVKqTSYu9PCOEqU7MVwGJltldJ4
        59+gABFObojwNd22lbrAX/CYaFK6Qf5J2RLUS2dClQhE147wciLrABrQmL5WbXQ4uwYqJ+rcdqYuwfwqGCt85GlYD0/E2LbIfJEF21LieRmmijFEJ0lxXf0EY3xHN15c
        q1C4TUyJmwp6K4sGzElcKHi9aUNAz5a2cvixJgXwTt25AFz6CT0dQZqxpx5UNwge/ZfCrxT2HuVumXK/TImXKQ/LlM0y5dMyZbtM2S1TOFvBWaEvXyEwX6EwXyExf1/j
        79CA/kfB2W+TRN4q4+bw+ioqNzfPaMnBRHtdSmEqMZkizJHZnNnGm1nyrz+yMRH6Dq2eTVMh7A/XfSuU8NZ8gXIwi0+SROMow81fWcBO1Q==
        AAAQAAAA
      >
      FLOATPOS 0 0 0 0
      FXID {BB20B852-BCF4-4DA6-A959-CA4FDD2C4CE2}
      WAK 0
    >
    <ITEM
      POSITION 0
      SNAPOFFS 0
      LENGTH 105.365068
      LOOP 0
      ALLTAKES 0
      FADEIN 1 0 0 1 0 0
      FADEOUT 1 0 0 1 0 0
      MUTE 0
      SEL 0
      IGUID {E6553195-C467-4F35-BC65-B2C19D0EFD8B}
      IID 11
      NAME "Kirby 64 - The Crystal Shards (U) 00000017 0027D0DC.mid"
      VOLPAN 1 0 1 -1
      SOFFS 0.0010847121468 0.00260334530939
      PLAYRATE 1 1 0 -1 0 0.0025
      CHANMODE 0
      GUID {ABFB5027-B06E-41A0-8BBE-0E5F98ECD267}
      <SOURCE MIDI
        HASDATA 1 384 QN
        POOLEDEVTS {93DC925A-22DD-469C-8ABF-8BF656BE483A}
        E 4609 ba 66 00
        E 23040 ca 08 00
        E 768 ea 00 40
        E 768 ba 19 28
        E 0 ba 16 3c
        E 0 ba 0a 00
        E 0 ba 07 52
        E 0 9a 5b 44
        E 47 9a 5b 00
        E 17 ba 0a 18
        E 0 9a 57 3d
        E 47 9a 57 00
        E 17 ba 0a 2f
        E 0 9a 53 3d
        E 47 9a 53 00
        E 17 ba 0a 42
        E 0 9a 4f 49
        E 47 9a 4f 00
        E 17 ba 0a 5a
        E 0 9a 53 3d
        E 47 9a 53 00
        E 17 ba 0a 6d
        E 0 9a 57 3d
        E 47 9a 57 00
        E 17 ba 0a 7f
        E 0 9a 5b 44
        E 47 9a 5b 00
        E 17 ba 0a 68
        E 0 9a 57 3d
        E 47 9a 57 00
        E 17 ba 0a 50
        E 0 9a 53 3d
        E 47 9a 53 00
        E 17 ba 0a 3d
        E 0 9a 4f 49
        E 47 9a 4f 00
        E 17 ba 0a 26
        E 0 9a 53 3d
        E 47 9a 53 00
        E 17 ba 0a 13
        E 0 9a 57 3d
        E 47 9a 57 00
        E 17 ba 0a 00
        E 0 9a 5b 44
        E 47 9a 5b 00
        E 17 ba 0a 18
        E 0 9a 57 3d
        E 47 9a 57 00
        E 17 ba 0a 2f
        E 0 9a 53 3d
        E 47 9a 53 00
        E 17 ba 0a 42
        E 0 9a 4f 49
        E 47 9a 4f 00
        E 17 ba 0a 5a
        E 0 9a 53 3d
        E 47 9a 53 00
        E 17 ba 0a 6d
        E 0 9a 57 3d
        E 47 9a 57 00
        E 17 ba 0a 7f
        E 0 9a 5b 44
        E 47 9a 5b 00
        E 17 ba 0a 68
        E 0 9a 57 3d
        E 47 9a 57 00
        E 17 ba 0a 50
        E 0 9a 53 3d
        E 47 9a 53 00
        E 17 ba 0a 3d
        E 0 9a 4f 49
        E 47 9a 4f 00
        E 17 ba 0a 26
        E 0 9a 53 3d
        E 47 9a 53 00
        E 17 ba 0a 13
        E 0 9a 57 3d
        E 47 9a 57 00
        E 17 ba 0a 40
        E 0 9a 5b 44
        E 47 9a 5b 00
        E 17 ba 0a 18
        E 0 9a 57 3d
        E 47 9a 57 00
        E 17 ba 0a 2f
        E 0 9a 53 3d
        E 47 9a 53 00
        E 17 ba 0a 42
        E 0 9a 4f 49
        E 47 9a 4f 00
        E 17 ba 0a 5a
        E 0 9a 53 3d
        E 47 9a 53 00
        E 17 ba 0a 6d
        E 0 9a 57 3d
        E 47 9a 57 00
        E 17 ba 0a 7f
        E 0 9a 5b 44
        E 47 9a 5b 00
        E 17 ba 0a 68
        E 0 9a 57 3d
        E 47 9a 57 00
        E 17 ba 0a 50
        E 0 9a 53 3d
        E 47 9a 53 00
        E 17 ba 0a 3d
        E 0 9a 4f 49
        E 47 9a 4f 00
        E 17 ba 0a 26
        E 0 9a 53 3d
        E 47 9a 53 00
        E 17 ba 0a 13
        E 0 9a 57 3d
        E 47 9a 57 00
        E 17 ba 0a 00
        E 0 9a 5b 44
        E 47 9a 5b 00
        E 17 ba 0a 18
        E 0 9a 57 3d
        E 47 9a 57 00
        E 17 ba 0a 2f
        E 0 9a 53 3d
        E 47 9a 53 00
        E 17 ba 0a 42
        E 0 9a 4f 49
        E 47 9a 4f 00
        E 17 ba 0a 5a
        E 0 9a 53 3d
        E 47 9a 53 00
        E 17 ba 0a 6d
        E 0 9a 57 3d
        E 47 9a 57 00
        E 17 ba 0a 7f
        E 0 9a 5b 44
        E 47 9a 5b 00
        E 17 ba 0a 68
        E 0 9a 57 3d
        E 47 9a 57 00
        E 17 ba 0a 50
        E 0 9a 53 3d
        E 47 9a 53 00
        E 17 ba 0a 3d
        E 0 9a 4f 49
        E 47 9a 4f 00
        E 17 ba 0a 26
        E 0 9a 53 3d
        E 47 9a 53 00
        E 17 ba 0a 13
        E 0 9a 57 3d
        E 47 9a 57 00
        E 17 ba 0a 00
        E 0 9a 5b 44
        E 47 9a 5b 00
        E 17 ba 0a 18
        E 0 9a 57 3d
        E 47 9a 57 00
        E 17 ba 0a 2f
        E 0 9a 53 3d
        E 47 9a 53 00
        E 17 ba 0a 42
        E 0 9a 4f 49
        E 47 9a 4f 00
        E 17 ba 0a 5a
        E 0 9a 53 3d
        E 47 9a 53 00
        E 17 ba 0a 6d
        E 0 9a 57 3d
        E 47 9a 57 00
        E 17 ba 0a 7f
        E 0 9a 5b 44
        E 47 9a 5b 00
        E 17 ba 0a 68
        E 0 9a 57 3d
        E 47 9a 57 00
        E 17 ba 0a 50
        E 0 9a 53 3d
        E 47 9a 53 00
        E 17 ba 0a 3d
        E 0 9a 4f 49
        E 47 9a 4f 00
        E 17 ba 0a 26
        E 0 9a 53 3d
        E 47 9a 53 00
        E 17 ba 0a 13
        E 0 9a 57 3d
        E 47 9a 57 00
        E 17 ba 0a 00
        E 0 9a 5b 44
        E 47 9a 5b 00
        E 17 ba 0a 18
        E 0 9a 57 3d
        E 47 9a 57 00
        E 17 ba 0a 2f
        E 0 9a 53 3d
        E 47 9a 53 00
        E 17 ba 0a 42
        E 0 9a 4f 49
        E 47 9a 4f 00
        E 17 ba 0a 5a
        E 0 9a 53 3d
        E 47 9a 53 00
        E 17 ba 0a 6d
        E 0 9a 57 3d
        E 47 9a 57 00
        E 17 ba 0a 7f
        E 0 9a 5b 44
        E 47 9a 5b 00
        E 17 ba 0a 68
        E 0 9a 57 3d
        E 47 9a 57 00
        E 17 ba 0a 50
        E 0 9a 53 3d
        E 47 9a 53 00
        E 17 ba 0a 3d
        E 0 9a 4f 49
        E 47 9a 4f 00
        E 17 ba 0a 26
        E 0 9a 53 3d
        E 47 9a 53 00
        E 17 ba 0a 13
        E 0 9a 57 3d
        E 47 9a 57 00
        E 17 ba 0a 00
        E 0 9a 5b 44
        E 47 9a 5b 00
        E 17 ba 0a 18
        E 0 9a 57 3d
        E 47 9a 57 00
        E 17 ba 0a 2f
        E 0 9a 53 3d
        E 47 9a 53 00
        E 17 ba 0a 42
        E 0 9a 4f 49
        E 47 9a 4f 00
        E 17 ba 0a 5a
        E 0 9a 53 3d
        E 47 9a 53 00
        E 17 ba 0a 6d
        E 0 9a 57 3d
        E 47 9a 57 00
        E 17 ba 0a 7f
        E 0 9a 5b 44
        E 47 9a 5b 00
        E 17 ba 0a 68
        E 0 9a 57 3d
        E 47 9a 57 00
        E 17 ba 0a 50
        E 0 9a 53 3d
        E 47 9a 53 00
        E 17 ba 0a 3d
        E 0 9a 4f 49
        E 47 9a 4f 00
        E 17 ba 0a 26
        E 0 9a 53 3d
        E 47 9a 53 00
        E 17 ba 0a 13
        E 0 9a 57 3d
        E 47 9a 57 00
        E 17 ba 0a 00
        E 0 9a 5b 44
        E 47 9a 5b 00
        E 17 ba 0a 18
        E 0 9a 57 3d
        E 47 9a 57 00
        E 17 ba 0a 2f
        E 0 9a 53 3d
        E 47 9a 53 00
        E 17 ba 0a 42
        E 0 9a 4f 49
        E 47 9a 4f 00
        E 17 ba 0a 5a
        E 0 9a 53 3d
        E 47 9a 53 00
        E 17 ba 0a 6d
        E 0 9a 57 3d
        E 47 9a 57 00
        E 17 ba 0a 7f
        E 0 9a 5b 44
        E 47 9a 5b 00
        E 17 ba 0a 68
        E 0 9a 57 3d
        E 47 9a 57 00
        E 17 ba 0a 50
        E 0 9a 53 3d
        E 47 9a 53 00
        E 17 ba 0a 3d
        E 0 9a 4f 49
        E 47 9a 4f 00
        E 17 ba 0a 26
        E 0 9a 53 3d
        E 47 9a 53 00
        E 17 ba 0a 13
        E 0 9a 57 3d
        E 47 9a 57 00
        E 17 ba 0a 40
        E 0 9a 5b 44
        E 47 9a 5b 00
        E 17 ba 0a 18
        E 0 9a 57 3d
        E 47 9a 57 00
        E 17 ba 0a 2f
        E 0 9a 53 3d
        E 47 9a 53 00
        E 17 ba 0a 42
        E 0 9a 4f 49
        E 47 9a 4f 00
        E 17 ba 0a 5a
        E 0 9a 53 3d
        E 47 9a 53 00
        E 17 ba 0a 6d
        E 0 9a 57 3d
        E 47 9a 57 00
        E 17 ba 0a 7f
        E 0 9a 5b 44
        E 47 9a 5b 00
        E 17 ba 0a 68
        E 0 9a 57 3d
        E 47 9a 57 00
        E 17 ba 0a 50
        E 0 9a 53 3d
        E 47 9a 53 00
        E 17 ba 0a 3d
        E 0 9a 4f 49
        E 47 9a 4f 00
        E 17 ba 0a 26
        E 0 9a 53 3d
        E 47 9a 53 00
        E 17 ba 0a 13
        E 0 9a 57 3d
        E 47 9a 57 00
        E 17 ba 0a 00
        E 0 9a 5b 44
        E 47 9a 5b 00
        E 17 ba 0a 18
        E 0 9a 57 3d
        E 47 9a 57 00
        E 17 ba 0a 2f
        E 0 9a 53 3d
        E 47 9a 53 00
        E 17 ba 0a 42
        E 0 9a 4f 49
        E 47 9a 4f 00
        E 17 ba 0a 5a
        E 0 9a 53 3d
        E 47 9a 53 00
        E 17 ba 0a 6d
        E 0 9a 57 3d
        E 47 9a 57 00
        E 17 ba 0a 7f
        E 0 9a 5b 44
        E 47 9a 5b 00
        E 17 ba 0a 68
        E 0 9a 57 3d
        E 47 9a 57 00
        E 17 ba 0a 50
        E 0 9a 53 3d
        E 47 9a 53 00
        E 17 ba 0a 3d
        E 0 9a 4f 49
        E 47 9a 4f 00
        E 17 ba 0a 26
        E 0 9a 53 3d
        E 47 9a 53 00
        E 17 ba 0a 13
        E 0 9a 57 3d
        E 47 9a 57 00
        E 17 ba 0a 40
        E 0 9a 5b 44
        E 47 9a 5b 00
        E 17 ba 0a 18
        E 0 9a 57 3d
        E 47 9a 57 00
        E 17 ba 0a 2f
        E 0 9a 53 3d
        E 47 9a 53 00
        E 17 ba 0a 42
        E 0 9a 4f 49
        E 47 9a 4f 00
        E 17 ba 0a 5a
        E 0 9a 53 3d
        E 47 9a 53 00
        E 17 ba 0a 6d
        E 0 9a 57 3d
        E 47 9a 57 00
        E 17 ba 0a 7f
        E 0 9a 5b 44
        E 47 9a 5b 00
        E 17 ba 0a 68
        E 0 9a 57 3d
        E 47 9a 57 00
        E 17 ba 0a 50
        E 0 9a 53 3d
        E 47 9a 53 00
        E 17 ba 0a 3d
        E 0 9a 4f 49
        E 47 9a 4f 00
        E 17 ba 0a 26
        E 0 9a 53 3d
        E 47 9a 53 00
        E 17 ba 0a 13
        E 0 9a 57 3d
        E 47 9a 57 00
        E 17 ba 0a 00
        E 0 9a 5b 44
        E 47 9a 5b 00
        E 17 ba 0a 18
        E 0 9a 57 3d
        E 47 9a 57 00
        E 17 ba 0a 2f
        E 0 9a 53 3d
        E 47 9a 53 00
        E 17 ba 0a 42
        E 0 9a 4f 49
        E 47 9a 4f 00
        E 17 ba 0a 5a
        E 0 9a 53 3d
        E 47 9a 53 00
        E 17 ba 0a 6d
        E 0 9a 57 3d
        E 47 9a 57 00
        E 17 ba 0a 7f
        E 0 9a 5b 44
        E 47 9a 5b 00
        E 17 ba 0a 68
        E 0 9a 57 3d
        E 47 9a 57 00
        E 17 ba 0a 50
        E 0 9a 53 3d
        E 47 9a 53 00
        E 17 ba 0a 3d
        E 0 9a 4f 49
        E 47 9a 4f 00
        E 17 ba 0a 26
        E 0 9a 53 3d
        E 47 9a 53 00
        E 17 ba 0a 13
        E 0 9a 57 3d
        E 47 9a 57 00
        E 17 ba 0a 40
        E 0 9a 5b 44
        E 47 9a 5b 00
        E 17 ba 0a 18
        E 0 9a 57 3d
        E 47 9a 57 00
        E 17 ba 0a 2f
        E 0 9a 53 3d
        E 47 9a 53 00
        E 17 ba 0a 42
        E 0 9a 4f 49
        E 47 9a 4f 00
        E 17 ba 0a 5a
        E 0 9a 53 3d
        E 47 9a 53 00
        E 17 ba 0a 6d
        E 0 9a 57 3d
        E 47 9a 57 00
        E 17 ba 0a 7f
        E 0 9a 5b 44
        E 47 9a 5b 00
        E 17 ba 0a 68
        E 0 9a 57 3d
        E 47 9a 57 00
        E 17 ba 0a 50
        E 0 9a 53 3d
        E 47 9a 53 00
        E 17 ba 0a 3d
        E 0 9a 4f 49
        E 47 9a 4f 00
        E 17 ba 0a 26
        E 0 9a 53 3d
        E 47 9a 53 00
        E 17 ba 0a 13
        E 0 9a 57 3d
        E 47 9a 57 00
        E 17 ba 0a 00
        E 0 9a 5b 44
        E 47 9a 5b 00
        E 17 ba 0a 18
        E 0 9a 57 3d
        E 47 9a 57 00
        E 17 ba 0a 2f
        E 0 9a 53 3d
        E 47 9a 53 00
        E 17 ba 0a 42
        E 0 9a 4f 49
        E 47 9a 4f 00
        E 17 ba 0a 5a
        E 0 9a 53 3d
        E 47 9a 53 00
        E 17 ba 0a 6d
        E 0 9a 57 3d
        E 47 9a 57 00
        E 17 ba 0a 7f
        E 0 9a 5b 44
        E 47 9a 5b 00
        E 17 ba 0a 68
        E 0 9a 57 3d
        E 47 9a 57 00
        E 17 ba 0a 50
        E 0 9a 53 3d
        E 47 9a 53 00
        E 17 ba 0a 3d
        E 0 9a 4f 49
        E 47 9a 4f 00
        E 17 ba 0a 26
        E 0 9a 53 3d
        E 47 9a 53 00
        E 17 ba 0a 13
        E 0 9a 57 3d
        E 47 9a 57 00
        E 17 ba 0a 40
        E 0 9a 5b 44
        E 47 9a 5b 00
        E 17 ba 0a 18
        E 0 9a 57 3d
        E 47 9a 57 00
        E 17 ba 0a 2f
        E 0 9a 53 3d
        E 47 9a 53 00
        E 17 ba 0a 42
        E 0 9a 4f 49
        E 47 9a 4f 00
        E 17 ba 0a 5a
        E 0 9a 53 3d
        E 47 9a 53 00
        E 17 ba 0a 6d
        E 0 9a 57 3d
        E 47 9a 57 00
        E 17 ba 0a 7f
        E 0 9a 5b 44
        E 47 9a 5b 00
        E 17 ba 0a 68
        E 0 9a 57 3d
        E 47 9a 57 00
        E 17 ba 0a 50
        E 0 9a 53 3d
        E 47 9a 53 00
        E 17 ba 0a 3d
        E 0 9a 4f 49
        E 47 9a 4f 00
        E 17 ba 0a 26
        E 0 9a 53 3d
        E 47 9a 53 00
        E 17 ba 0a 13
        E 0 9a 57 3d
        E 47 9a 57 00
        E 17 ba 0a 00
        E 0 9a 5b 44
        E 47 9a 5b 00
        E 17 ba 0a 18
        E 0 9a 57 3d
        E 47 9a 57 00
        E 17 ba 0a 2f
        E 0 9a 53 3d
        E 47 9a 53 00
        E 17 ba 0a 42
        E 0 9a 4f 49
        E 47 9a 4f 00
        E 17 ba 0a 5a
        E 0 9a 53 3d
        E 47 9a 53 00
        E 17 ba 0a 6d
        E 0 9a 57 3d
        E 47 9a 57 00
        E 17 ba 0a 7f
        E 0 9a 5b 44
        E 47 9a 5b 00
        E 17 ba 0a 68
        E 0 9a 57 3d
        E 47 9a 57 00
        E 17 ba 0a 50
        E 0 9a 53 3d
        E 47 9a 53 00
        E 17 ba 0a 3d
        E 0 9a 4f 49
        E 47 9a 4f 00
        E 17 ba 0a 26
        E 0 9a 53 3d
        E 47 9a 53 00
        E 17 ba 0a 13
        E 0 9a 57 3d
        E 47 9a 57 00
        E 17 ca 03 00
        E 12288 ca 0a 00
        E 7904 ea 78 31
        E 16 ea 3b 30
        E 16656 ca 2a 00
        E 192 ea 00 40
        E 18240 ba 67 00
        E 338 b0 7b 00
        GUID {654FBC28-0908-4C69-AD02-B5F6D839395B}
        IGNTEMPO 0 120 4 4
        SRCCOLOR 13
        VELLANE 131 77 128
        CFGEDITVIEW 20892.185431 21.07749 12 12 0 -1 0 0 0 0.5
        KEYSNAP 0
        TRACKSEL 0
        EVTFILTER 0 -1 -1 -1 -1 0 0 0 0 -1 -1 -1 -1 0 -1 0 -1 -1
        CFGEDIT 1 1 0 1 0 1 1 1 1 1 1 0.125 340 44 1693 967 0 0 2 2 0 0 0 0 0 0.5 0 0 1 64
      >
    >
  >
  <TRACK {8D6EBE3C-53B5-4117-BE34-19F468704DD9}
    NAME "45 Synth Chords 1"
    PEAKCOL 16576
    BEAT -1
    AUTOMODE 0
    VOLPAN 1 0 -1 -1 1
    MUTESOLO 0 0 0
    IPHASE 0
    ISBUS 0 0
    BUSCOMP 0 0
    SHOWINMIX 1 0.6667 0.5 1 0.5 0 0 0
    FREEMODE 0
    SEL 0
    REC 0 0 0 0 0 0 0
    VU 2
    TRACKHEIGHT 0 0
    INQ 0 0 0 0.5 100 0 0 100
    NCHAN 2
    FX 1
    TRACKID {8D6EBE3C-53B5-4117-BE34-19F468704DD9}
    PERF 0
    MIDIOUT -1
    MAINSEND 1 0
    <FXCHAIN
      WNDRECT 48 92 958 586
      SHOW 0
      LASTSEL 0
      DOCKED 0
      BYPASS 0 0 0
      <VST "VSTi: sforzando (Plogue Art et Technologie, Inc)" "sforzando VST_x86.dll" 0 "" 1347176273
        UUdMUO5e7f4AAAAAAgAAAAEAAAAAAAAAAgAAAAAAAADPAQAAAQAAAAAAEAA=
        Q0VHUO8EAAB4nI1UTW+jMBC9r7T/wfK9BaeETSRolW6iikO0K9E9o8G4WbT+aMGg9N93DCGgVSvggufN83jmwXP0cFaStKKqS6Njym59Sh7uv3+LdlUJKbRiktsyRslr
        ZYqG22SPgM8CilyCT5QKa0t9qslbA7K075impLaVAIVwTO9WlCg4px2yk9Lw42NM1wzhY7JPfjX2aArR7YLGGgUWD02lsTH1p5AUrZAxLTXWbpTQlhJZtqLfjMyax3Sz
        dW+QgAgjN0S4nm5rLi/wT9wmqpiGyD9Jk4N8bnTXJQLedSI8nJRFB2pQWL6QtXc42wq4FUVqGl3koP9lvp+5zGO/7h/PD9ZZ4prMVntKHC/BUgGm6Cgprvlf0NpNdOPE
        NRKFCwNK7NjQa55VoE/iQsHjdd0l1GRpuMWPNSoQItbYDrjM0810hFIPM7Ugm15w71MKu1L8ryirecrdPCWYp6znKeE85cc8ZTNP2c5TmL+As0BftkBgtkBhtkBi9rXG
        v6EC9Z+Ck98m8pxVhuDw8iK4nZpnsGRvop3KS6G5GE3R3SOTe2YThJPiT3+SoRD6Dq2ejLdCFx+ucS2kcNZ8hrw3iysSecNVhsEHp6pO7g==
        AAAQAAAA
      >
      FLOATPOS 0 0 0 0
      FXID {F7829337-47D9-4F07-9EEF-8E7D02E07F49}
      WAK 0
    >
    <ITEM
      POSITION 0
      SNAPOFFS 0
      LENGTH 105.365068
      LOOP 0
      ALLTAKES 0
      FADEIN 1 0 0 1 0 0
      FADEOUT 1 0 0 1 0 0
      MUTE 0
      SEL 0
      IGUID {D7326498-36B4-481B-B5A7-712605FD4074}
      IID 12
      NAME "Kirby 64 - The Crystal Shards (U) 00000017 0027D0DC.mid"
      VOLPAN 1 0 1 -1
      SOFFS 0.0010847121468 0.00260334530939
      PLAYRATE 1 1 0 -1 0 0.0025
      CHANMODE 0
      GUID {5199AF7F-8DF6-4E8D-BC38-D2EB8969319C}
      <SOURCE MIDI
        HASDATA 1 384 QN
        POOLEDEVTS {A5195B70-F340-4EC2-84CC-9356D0DF1FA0}
        E 4609 bb 66 00
        E 38400 cb 2d 00
        E 0 bb 16 2c
        E 0 bb 19 46
        E 0 bb 0a 40
        E 0 bb 07 5e
        E 0 9b 3b 58
        E 0 9b 42 58
        E 90 9b 3b 00
        E 0 9b 42 00
        E 99 bb 0a 7f
        E 3 9b 3b 58
        E 0 9b 42 58
        E 90 9b 3b 00
        E 0 9b 42 00
        E 99 bb 0a 00
        E 3 9b 42 45
        E 0 9b 3b 45
        E 90 9b 42 00
        E 0 9b 3b 00
        E 102 9b 3b 58
        E 0 9b 42 58
        E 90 9b 3b 00
        E 0 9b 42 00
        E 99 bb 0a 7f
        E 3 9b 42 45
        E 0 9b 3b 45
        E 90 9b 42 00
        E 0 9b 3b 00
        E 102 9b 3b 58
        E 0 9b 42 58
        E 90 9b 3b 00
        E 0 9b 42 00
        E 99 bb 0a 00
        E 3 9b 3c 53
        E 0 9b 43 53
        E 365 9b 3c 00
        E 0 9b 43 00
        E 208 bb 0a 7f
        E 3 9b 3b 58
        E 0 9b 42 58
        E 90 9b 3b 00
        E 0 9b 42 00
        E 99 bb 0a 00
        E 3 9b 42 45
        E 0 9b 3b 45
        E 90 9b 42 00
        E 0 9b 3b 00
        E 102 9b 3b 58
        E 0 9b 42 58
        E 90 9b 3b 00
        E 0 9b 42 00
        E 99 bb 0a 7f
        E 3 9b 3b 45
        E 0 9b 42 45
        E 90 9b 3b 00
        E 0 9b 42 00
        E 102 9b 3b 58
        E 0 9b 42 58
        E 90 9b 3b 00
        E 0 9b 42 00
        E 99 bb 0a 00
        E 3 9b 3c 53
        E 0 9b 43 53
        E 365 9b 3c 00
        E 0 9b 43 00
        E 144 bb 0a 00
        E 67 9b 3b 58
        E 0 9b 42 58
        E 90 9b 3b 00
        E 0 9b 42 00
        E 102 9b 3b 45
        E 0 9b 42 45
        E 90 9b 3b 00
        E 0 9b 42 00
        E 35 bb 0a 7f
        E 67 9b 3b 45
        E 0 9b 42 45
        E 90 9b 3b 00
        E 0 9b 42 00
        E 102 9b 3b 58
        E 0 9b 42 58
        E 90 9b 3b 00
        E 0 9b 42 00
        E 99 bb 0a 00
        E 3 9b 3b 45
        E 0 9b 42 45
        E 90 9b 3b 00
        E 0 9b 42 00
        E 99 bb 0a 00
        E 3 9b 43 53
        E 0 9b 3c 53
        E 365 9b 43 00
        E 0 9b 3c 00
        E 144 bb 0a 7f
        E 67 9b 3b 58
        E 0 9b 42 58
        E 90 9b 3b 00
        E 0 9b 42 00
        E 99 bb 0a 00
        E 3 9b 42 58
        E 0 9b 3b 58
        E 90 9b 42 00
        E 0 9b 3b 00
        E 99 bb 0a 7f
        E 3 9b 3b 45
        E 0 9b 42 45
        E 90 9b 3b 00
        E 0 9b 42 00
        E 102 9b 42 58
        E 0 9b 3b 58
        E 90 9b 42 00
        E 0 9b 3b 00
        E 99 bb 0a 00
        E 3 9b 3b 45
        E 0 9b 42 45
        E 90 9b 3b 00
        E 0 9b 42 00
        E 99 bb 0a 7f
        E 3 9b 3c 53
        E 0 9b 43 53
        E 365 9b 3c 00
        E 0 9b 43 00
        E 19 bb 16 2c
        E 0 bb 0a 40
        E 0 bb 19 46
        E 0 9b 3b 58
        E 0 9b 42 58
        E 90 9b 3b 00
        E 0 9b 42 00
        E 99 bb 0a 7f
        E 3 9b 42 58
        E 0 9b 3b 58
        E 90 9b 42 00
        E 0 9b 3b 00
        E 99 bb 0a 00
        E 3 9b 42 45
        E 0 9b 3b 45
        E 90 9b 42 00
        E 0 9b 3b 00
        E 102 9b 42 58
        E 0 9b 3b 58
        E 90 9b 42 00
        E 0 9b 3b 00
        E 99 bb 0a 7f
        E 3 9b 42 45
        E 0 9b 3b 45
        E 90 9b 42 00
        E 0 9b 3b 00
        E 102 9b 42 58
        E 0 9b 3b 58
        E 90 9b 42 00
        E 0 9b 3b 00
        E 99 bb 0a 00
        E 3 9b 3c 53
        E 0 9b 43 53
        E 365 9b 3c 00
        E 0 9b 43 00
        E 208 bb 0a 7f
        E 3 9b 3b 58
        E 0 9b 42 58
        E 90 9b 3b 00
        E 0 9b 42 00
        E 99 bb 0a 00
        E 3 9b 3b 45
        E 0 9b 42 45
        E 90 9b 3b 00
        E 0 9b 42 00
        E 102 9b 3b 58
        E 0 9b 42 58
        E 90 9b 3b 00
        E 0 9b 42 00
        E 99 bb 0a 7f
        E 3 9b 42 45
        E 0 9b 3b 45
        E 90 9b 42 00
        E 0 9b 3b 00
        E 102 9b 42 58
        E 0 9b 3b 58
        E 90 9b 42 00
        E 0 9b 3b 00
        E 99 bb 0a 00
        E 3 9b 3c 53
        E 0 9b 43 53
        E 365 9b 3c 00
        E 0 9b 43 00
        E 144 bb 0a 00
        E 67 9b 42 58
        E 0 9b 3b 58
        E 90 9b 42 00
        E 0 9b 3b 00
        E 102 9b 3b 45
        E 0 9b 42 45
        E 90 9b 3b 00
        E 0 9b 42 00
        E 35 bb 0a 7f
        E 67 9b 3b 45
        E 0 9b 42 45
        E 90 9b 3b 00
        E 0 9b 42 00
        E 102 9b 3b 58
        E 0 9b 42 58
        E 90 9b 3b 00
        E 0 9b 42 00
        E 99 bb 0a 00
        E 3 9b 3b 45
        E 0 9b 42 45
        E 90 9b 3b 00
        E 0 9b 42 00
        E 99 bb 0a 00
        E 3 9b 3c 53
        E 0 9b 43 53
        E 365 9b 3c 00
        E 0 9b 43 00
        E 144 bb 0a 7f
        E 67 9b 3b 58
        E 0 9b 42 58
        E 90 9b 3b 00
        E 0 9b 42 00
        E 99 bb 0a 00
        E 3 9b 3b 58
        E 0 9b 42 58
        E 90 9b 3b 00
        E 0 9b 42 00
        E 99 bb 0a 7f
        E 3 9b 3b 45
        E 0 9b 42 45
        E 90 9b 3b 00
        E 0 9b 42 00
        E 102 9b 3b 58
        E 0 9b 42 58
        E 90 9b 3b 00
        E 0 9b 42 00
        E 99 bb 0a 00
        E 3 9b 42 45
        E 0 9b 3b 45
        E 90 9b 42 00
        E 0 9b 3b 00
        E 99 bb 0a 7f
        E 3 9b 3c 53
        E 0 9b 43 53
        E 365 9b 3c 00
        E 0 9b 43 00
        E 19 bb 16 2c
        E 0 bb 0a 40
        E 0 bb 19 46
        E 0 9b 42 58
        E 0 9b 3b 58
        E 90 9b 42 00
        E 0 9b 3b 00
        E 99 bb 0a 7f
        E 3 9b 3b 58
        E 0 9b 42 58
        E 90 9b 3b 00
        E 0 9b 42 00
        E 99 bb 0a 00
        E 3 9b 42 45
        E 0 9b 3b 45
        E 90 9b 42 00
        E 0 9b 3b 00
        E 102 9b 3b 58
        E 0 9b 42 58
        E 90 9b 3b 00
        E 0 9b 42 00
        E 99 bb 0a 7f
        E 3 9b 42 45
        E 0 9b 3b 45
        E 90 9b 42 00
        E 0 9b 3b 00
        E 102 9b 3b 58
        E 0 9b 42 58
        E 90 9b 3b 00
        E 0 9b 42 00
        E 99 bb 0a 00
        E 3 9b 3c 53
        E 0 9b 43 53
        E 365 9b 3c 00
        E 0 9b 43 00
        E 208 bb 0a 7f
        E 3 9b 3b 58
        E 0 9b 42 58
        E 90 9b 3b 00
        E 0 9b 42 00
        E 99 bb 0a 00
        E 3 9b 3b 45
        E 0 9b 42 45
        E 90 9b 3b 00
        E 0 9b 42 00
        E 102 9b 3b 58
        E 0 9b 42 58
        E 90 9b 3b 00
        E 0 9b 42 00
        E 99 bb 0a 7f
        E 3 9b 42 45
        E 0 9b 3b 45
        E 90 9b 42 00
        E 0 9b 3b 00
        E 102 9b 3b 58
        E 0 9b 42 58
        E 90 9b 3b 00
        E 0 9b 42 00
        E 99 bb 0a 00
        E 3 9b 43 53
        E 0 9b 3c 53
        E 365 9b 43 00
        E 0 9b 3c 00
        E 144 bb 0a 00
        E 67 9b 42 58
        E 0 9b 3b 58
        E 90 9b 42 00
        E 0 9b 3b 00
        E 102 9b 42 45
        E 0 9b 3b 45
        E 90 9b 42 00
        E 0 9b 3b 00
        E 35 bb 0a 7f
        E 67 9b 3b 45
        E 0 9b 42 45
        E 90 9b 3b 00
        E 0 9b 42 00
        E 102 9b 3b 58
        E 0 9b 42 58
        E 90 9b 3b 00
        E 0 9b 42 00
        E 99 bb 0a 00
        E 3 9b 42 45
        E 0 9b 3b 45
        E 90 9b 42 00
        E 0 9b 3b 00
        E 99 bb 0a 00
        E 3 9b 3c 53
        E 0 9b 43 53
        E 365 9b 3c 00
        E 0 9b 43 00
        E 144 bb 0a 7f
        E 67 9b 42 58
        E 0 9b 3b 58
        E 90 9b 42 00
        E 0 9b 3b 00
        E 99 bb 0a 00
        E 3 9b 3b 58
        E 0 9b 42 58
        E 90 9b 3b 00
        E 0 9b 42 00
        E 99 bb 0a 7f
        E 3 9b 42 45
        E 0 9b 3b 45
        E 90 9b 42 00
        E 0 9b 3b 00
        E 102 9b 3b 58
        E 0 9b 42 58
        E 90 9b 3b 00
        E 0 9b 42 00
        E 99 bb 0a 00
        E 3 9b 3b 45
        E 0 9b 42 45
        E 90 9b 3b 00
        E 0 9b 42 00
        E 99 bb 0a 7f
        E 3 9b 3c 53
        E 0 9b 43 53
        E 365 9b 3c 00
        E 0 9b 43 00
        E 16915 cb 0a 00
        E 192 bb 16 2d
        E 18240 bb 67 00
        E 338 b0 7b 00
        GUID {4AB47EF0-6E6C-4FBA-9E9C-527473E6F67E}
        IGNTEMPO 0 120 4 4
        SRCCOLOR 14
        VELLANE 131 77 128
        CFGEDITVIEW -3224.888455 8.923513 31 12 0 -1 0 0 0 0.5
        KEYSNAP 0
        TRACKSEL 0
        EVTFILTER 0 -1 -1 -1 -1 0 0 0 0 -1 -1 -1 -1 0 -1 0 -1 -1
        CFGEDIT 1 1 0 1 0 1 1 1 1 1 1 0.125 433 83 1721 943 0 0 2 2 0 0 0 0 0 0.5 0 0 1 64
      >
    >
  >
  <TRACK {78B7EC6B-74A5-4482-88AA-6BFF691D5DAF}
    NAME "45 Synth Chords 2"
    PEAKCOL 16576
    BEAT -1
    AUTOMODE 0
    VOLPAN 1 0 -1 -1 1
    MUTESOLO 0 0 0
    IPHASE 0
    ISBUS 0 0
    BUSCOMP 0 0
    SHOWINMIX 1 0.6667 0.5 1 0.5 0 0 0
    FREEMODE 0
    SEL 0
    REC 0 0 0 0 0 0 0
    VU 2
    TRACKHEIGHT 0 0
    INQ 0 0 0 0.5 100 0 0 100
    NCHAN 2
    FX 1
    TRACKID {78B7EC6B-74A5-4482-88AA-6BFF691D5DAF}
    PERF 0
    MIDIOUT -1
    MAINSEND 1 0
    <FXCHAIN
      WNDRECT 46 90 962 590
      SHOW 0
      LASTSEL 0
      DOCKED 0
      BYPASS 0 0 0
      <VST "VSTi: sforzando (Plogue Art et Technologie, Inc)" "sforzando VST_x86.dll" 0 "" 1347176273
        UUdMUO5e7f4AAAAAAgAAAAEAAAAAAAAAAgAAAAAAAADUAQAAAQAAAAAAEAA=
        Q0VHUBQFAAB4nI2UUW+bMBDH3yftO1h+b8EJyRoJVqVLNPEQbRLdMzrAzawZuwMbZd9+ZxMCqloBL9j/+/ns+8M5frzUknS8aYVWCWX3ISWPXz9/iveNgAw6PontGKPk
        tdGVLU16QCFkEUWW4BNn3Bihzi35a0EK8w/DlLSm4VCjnND1ipIaLplX9lLq8vSU0A1D+ZQe0h/WnHTF/SqwRtdgcNNMapPQcCpJ3nGZUKEwt625MpRI0fF+MZJtmdDd
        2r1BAiqM3BHuznTflvIqf8NlvEnoFvmz1AXIZ6v8KVEIbhXh5kRUXlRQY/pKtsHxYhooDa8ybVVVgPqTh2HuIk/9uH+CMNrkqTtkvjpQ4rgUU0UYoqOlOC5/g1Kuojtn
        rpZo3DaixIwHei3yBtSZXxHcXrU+UE+GujT4sUYHnGaNF671+JpOINRQUwfS9oYH7yLshoQfIat5ZD2PRPPIZh7ZziNf5pGHeWQ3j7BwAbPAX7bAYLbAYbbAYvaxxz+h
        gfqNg29/m5F5v/g4cP00TI4vL7w00w4b+rbvtH1dCK5KPnaOv2wml9FDtJ0k//4rHRJhc+J9kI5Xh58fb/OWS+769xmKvqNckjgY7juc/AdZvFdt
        AAAQAAAA
      >
      FLOATPOS 0 0 0 0
      FXID {CAB3600B-AE45-40FA-88D5-F25B481CD675}
      WAK 0
    >
    <ITEM
      POSITION 0
      SNAPOFFS 0
      LENGTH 105.365068
      LOOP 0
      ALLTAKES 0
      FADEIN 1 0 0 1 0 0
      FADEOUT 1 0 0 1 0 0
      MUTE 0
      SEL 0
      IGUID {4734933D-C156-4C8D-8A2A-C15937C96BCB}
      IID 9
      NAME "Kirby 64 - The Crystal Shards (U) 00000017 0027D0DC.mid"
      VOLPAN 1 0 1 -1
      SOFFS 0.0010847121468 0.00260334530939
      PLAYRATE 1 1 0 -1 0 0.0025
      CHANMODE 0
      GUID {C57D315C-A7B3-4DAA-BCF5-661E1F282D90}
      <SOURCE MIDI
        HASDATA 1 384 QN
        POOLEDEVTS {F2A54125-94D9-4CBD-9511-6FD1C282286A}
        E 4609 b8 66 00
        E 10752 c8 20 00
        E 12288 c8 12 00
        E 1536 d8 1e 00
        E 0 b8 07 6c
        E 0 b8 19 1e
        E 0 b8 16 2d
        E 0 b8 0a 78
        E 8640 b8 19 1e
        E 3648 c8 2d 00
        E 96 d8 00 00
        E 1440 b8 07 5e
        E 0 b8 16 2c
        E 0 b8 19 0a
        E 0 b8 0a 40
        E 0 98 3f 58
        E 0 98 38 58
        E 90 98 3f 00
        E 0 98 38 00
        E 99 b8 0a 7f
        E 3 98 3f 58
        E 0 98 38 58
        E 90 98 3f 00
        E 0 98 38 00
        E 99 b8 0a 00
        E 3 98 38 45
        E 0 98 3f 45
        E 90 98 38 00
        E 0 98 3f 00
        E 102 98 3f 58
        E 0 98 38 58
        E 90 98 3f 00
        E 0 98 38 00
        E 99 b8 0a 7f
        E 3 98 38 45
        E 0 98 3f 45
        E 90 98 38 00
        E 0 98 3f 00
        E 102 98 38 58
        E 0 98 3f 58
        E 90 98 38 00
        E 0 98 3f 00
        E 99 b8 0a 7f
        E 3 98 39 53
        E 0 98 40 53
        E 365 98 39 00
        E 0 98 40 00
        E 19 b8 19 0a
        E 189 b8 0a 7f
        E 3 98 38 58
        E 0 98 3f 58
        E 90 98 38 00
        E 0 98 3f 00
        E 99 b8 0a 00
        E 3 98 38 45
        E 0 98 3f 45
        E 90 98 38 00
        E 0 98 3f 00
        E 102 98 38 58
        E 0 98 3f 58
        E 90 98 38 00
        E 0 98 3f 00
        E 99 b8 0a 7f
        E 3 98 38 45
        E 0 98 3f 45
        E 90 98 38 00
        E 0 98 3f 00
        E 102 98 38 58
        E 0 98 3f 58
        E 90 98 38 00
        E 0 98 3f 00
        E 99 b8 0a 7f
        E 3 98 39 53
        E 0 98 40 53
        E 365 98 39 00
        E 0 98 40 00
        E 139 b8 19 0a
        E 5 b8 0a 00
        E 67 98 38 58
        E 0 98 3f 58
        E 90 98 38 00
        E 0 98 3f 00
        E 102 98 38 45
        E 0 98 3f 45
        E 90 98 38 00
        E 0 98 3f 00
        E 35 b8 0a 7f
        E 67 98 3f 45
        E 0 98 38 45
        E 90 98 3f 00
        E 0 98 38 00
        E 102 98 38 58
        E 0 98 3f 58
        E 90 98 38 00
        E 0 98 3f 00
        E 99 b8 0a 00
        E 3 98 38 45
        E 0 98 3f 45
        E 90 98 38 00
        E 0 98 3f 00
        E 99 b8 0a 7f
        E 3 98 40 53
        E 0 98 39 53
        E 365 98 40 00
        E 0 98 39 00
        E 91 b8 19 0a
        E 53 b8 0a 7f
        E 67 98 3f 58
        E 0 98 38 58
        E 90 98 3f 00
        E 0 98 38 00
        E 99 b8 0a 00
        E 3 98 38 58
        E 0 98 3f 58
        E 90 98 38 00
        E 0 98 3f 00
        E 99 b8 0a 7f
        E 3 98 38 45
        E 0 98 3f 45
        E 90 98 38 00
        E 0 98 3f 00
        E 102 98 38 58
        E 0 98 3f 58
        E 90 98 38 00
        E 0 98 3f 00
        E 99 b8 0a 00
        E 3 98 38 45
        E 0 98 3f 45
        E 90 98 38 00
        E 0 98 3f 00
        E 99 b8 0a 00
        E 3 98 39 53
        E 0 98 40 53
        E 365 98 39 00
        E 0 98 40 00
        E 19 b8 16 2c
        E 0 b8 0a 40
        E 0 b8 19 0a
        E 0 98 38 5a
        E 0 98 3f 5a
        E 90 98 38 00
        E 0 98 3f 00
        E 99 b8 0a 7f
        E 3 98 3f 5a
        E 0 98 38 5a
        E 90 98 3f 00
        E 0 98 38 00
        E 99 b8 0a 00
        E 3 98 38 41
        E 0 98 3f 41
        E 90 98 38 00
        E 0 98 3f 00
        E 102 98 38 5a
        E 0 98 3f 5a
        E 90 98 38 00
        E 0 98 3f 00
        E 99 b8 0a 7f
        E 3 98 38 41
        E 0 98 3f 41
        E 90 98 38 00
        E 0 98 3f 00
        E 102 98 38 5a
        E 0 98 3f 5a
        E 90 98 38 00
        E 0 98 3f 00
        E 99 b8 0a 7f
        E 3 98 39 5a
        E 0 98 40 5a
        E 365 98 39 00
        E 0 98 40 00
        E 19 b8 19 0a
        E 189 b8 0a 7f
        E 3 98 38 5a
        E 0 98 3f 5a
        E 90 98 38 00
        E 0 98 3f 00
        E 99 b8 0a 00
        E 3 98 38 41
        E 0 98 3f 41
        E 90 98 38 00
        E 0 98 3f 00
        E 102 98 38 5a
        E 0 98 3f 5a
        E 90 98 38 00
        E 0 98 3f 00
        E 99 b8 0a 7f
        E 3 98 38 41
        E 0 98 3f 41
        E 90 98 38 00
        E 0 98 3f 00
        E 102 98 38 5a
        E 0 98 3f 5a
        E 90 98 38 00
        E 0 98 3f 00
        E 99 b8 0a 7f
        E 3 98 40 5a
        E 0 98 39 5a
        E 365 98 40 00
        E 0 98 39 00
        E 139 b8 19 0a
        E 5 b8 0a 00
        E 67 98 3f 5a
        E 0 98 38 5a
        E 90 98 3f 00
        E 0 98 38 00
        E 102 98 38 41
        E 0 98 3f 41
        E 90 98 38 00
        E 0 98 3f 00
        E 35 b8 0a 7f
        E 67 98 38 41
        E 0 98 3f 41
        E 90 98 38 00
        E 0 98 3f 00
        E 102 98 38 5a
        E 0 98 3f 5a
        E 90 98 38 00
        E 0 98 3f 00
        E 99 b8 0a 00
        E 3 98 3f 41
        E 0 98 38 41
        E 90 98 3f 00
        E 0 98 38 00
        E 99 b8 0a 7f
        E 3 98 40 5a
        E 0 98 39 5a
        E 365 98 40 00
        E 0 98 39 00
        E 91 b8 19 0a
        E 53 b8 0a 7f
        E 67 98 38 5a
        E 0 98 3f 5a
        E 90 98 38 00
        E 0 98 3f 00
        E 99 b8 0a 00
        E 3 98 38 5a
        E 0 98 3f 5a
        E 90 98 38 00
        E 0 98 3f 00
        E 99 b8 0a 7f
        E 3 98 38 41
        E 0 98 3f 41
        E 90 98 38 00
        E 0 98 3f 00
        E 102 98 38 5a
        E 0 98 3f 5a
        E 90 98 38 00
        E 0 98 3f 00
        E 99 b8 0a 00
        E 3 98 3f 41
        E 0 98 38 41
        E 90 98 3f 00
        E 0 98 38 00
        E 99 b8 0a 00
        E 3 98 40 5a
        E 0 98 39 5a
        E 365 98 40 00
        E 0 98 39 00
        E 19 b8 16 2c
        E 0 b8 19 0a
        E 0 b8 0a 40
        E 0 98 3f 5a
        E 0 98 38 5a
        E 90 98 3f 00
        E 0 98 38 00
        E 99 b8 0a 7f
        E 3 98 38 5a
        E 0 98 3f 5a
        E 90 98 38 00
        E 0 98 3f 00
        E 99 b8 0a 00
        E 3 98 38 41
        E 0 98 3f 41
        E 90 98 38 00
        E 0 98 3f 00
        E 102 98 3f 5a
        E 0 98 38 5a
        E 90 98 3f 00
        E 0 98 38 00
        E 99 b8 0a 7f
        E 3 98 38 41
        E 0 98 3f 41
        E 90 98 38 00
        E 0 98 3f 00
        E 102 98 38 5a
        E 0 98 3f 5a
        E 90 98 38 00
        E 0 98 3f 00
        E 99 b8 0a 7f
        E 3 98 40 5a
        E 0 98 39 5a
        E 365 98 40 00
        E 0 98 39 00
        E 19 b8 19 0a
        E 189 b8 0a 7f
        E 3 98 38 5a
        E 0 98 3f 5a
        E 90 98 38 00
        E 0 98 3f 00
        E 99 b8 0a 00
        E 3 98 38 41
        E 0 98 3f 41
        E 90 98 38 00
        E 0 98 3f 00
        E 102 98 38 5a
        E 0 98 3f 5a
        E 90 98 38 00
        E 0 98 3f 00
        E 99 b8 0a 7f
        E 3 98 38 41
        E 0 98 3f 41
        E 90 98 38 00
        E 0 98 3f 00
        E 102 98 38 5a
        E 0 98 3f 5a
        E 90 98 38 00
        E 0 98 3f 00
        E 99 b8 0a 7f
        E 3 98 40 5a
        E 0 98 39 5a
        E 365 98 40 00
        E 0 98 39 00
        E 139 b8 19 0a
        E 5 b8 0a 00
        E 67 98 3f 5a
        E 0 98 38 5a
        E 90 98 3f 00
        E 0 98 38 00
        E 102 98 38 41
        E 0 98 3f 41
        E 90 98 38 00
        E 0 98 3f 00
        E 35 b8 0a 7f
        E 67 98 38 41
        E 0 98 3f 41
        E 90 98 38 00
        E 0 98 3f 00
        E 102 98 38 5a
        E 0 98 3f 5a
        E 90 98 38 00
        E 0 98 3f 00
        E 99 b8 0a 00
        E 3 98 38 41
        E 0 98 3f 41
        E 90 98 38 00
        E 0 98 3f 00
        E 99 b8 0a 7f
        E 3 98 40 5a
        E 0 98 39 5a
        E 365 98 40 00
        E 0 98 39 00
        E 91 b8 19 0a
        E 53 b8 0a 7f
        E 67 98 3f 5a
        E 0 98 38 5a
        E 90 98 3f 00
        E 0 98 38 00
        E 99 b8 0a 00
        E 3 98 38 5a
        E 0 98 3f 5a
        E 90 98 38 00
        E 0 98 3f 00
        E 99 b8 0a 7f
        E 3 98 38 41
        E 0 98 3f 41
        E 90 98 38 00
        E 0 98 3f 00
        E 102 98 3f 5a
        E 0 98 38 5a
        E 90 98 3f 00
        E 0 98 38 00
        E 99 b8 0a 00
        E 3 98 38 41
        E 0 98 3f 41
        E 90 98 38 00
        E 0 98 3f 00
        E 99 b8 0a 00
        E 3 98 39 5a
        E 0 98 40 5a
        E 365 98 39 00
        E 0 98 40 00
        E 4627 c8 20 00
        E 576 d8 00 00
        E 30144 b8 67 00
        E 338 b0 7b 00
        GUID {464E337A-4A52-40CC-B276-F464AABEEFB1}
        IGNTEMPO 0 120 4 4
        SRCCOLOR 11
        VELLANE 131 77 128
        CFGEDITVIEW 0 6.700515 47 12 0 -1 0 0 0 0.5
        KEYSNAP 0
        TRACKSEL 0
        EVTFILTER 0 -1 -1 -1 -1 0 0 0 0 -1 -1 -1 -1 0 -1 0 -1 -1
        CFGEDIT 1 1 0 1 0 1 1 1 1 1 1 0.125 651 204 1824 905 0 0 2 2 0 0 0 0 0 0.5 0 0 1 64
      >
    >
  >
  <TRACK {F1C16E8B-1309-4573-B777-55CA74A3EFFE}
    NAME "7 Strings 1 (backing)"
    PEAKCOL 16576
    BEAT -1
    AUTOMODE 0
    VOLPAN 1 0 -1 -1 1
    MUTESOLO 0 0 0
    IPHASE 0
    ISBUS 0 0
    BUSCOMP 0 0
    SHOWINMIX 1 0.6667 0.5 1 0.5 0 0 0
    FREEMODE 0
    SEL 0
    REC 0 0 0 0 0 0 0
    VU 2
    TRACKHEIGHT 0 0
    INQ 0 0 0 0.5 100 0 0 100
    NCHAN 2
    FX 1
    TRACKID {F1C16E8B-1309-4573-B777-55CA74A3EFFE}
    PERF 0
    MIDIOUT -1
    MAINSEND 1 0
    <FXCHAIN
      WNDRECT 50 94 958 586
      SHOW 0
      LASTSEL 0
      DOCKED 0
      BYPASS 0 0 0
      <VST "VSTi: sforzando (Plogue Art et Technologie, Inc)" "sforzando VST_x86.dll" 0 "" 1347176273
        UUdMUO5e7f4AAAAAAgAAAAEAAAAAAAAAAgAAAAAAAADkAQAAAQAAAAAAEAA=
        Q0VHUCYFAAB4nI1UwW6jMBC9r9R/sHxvsAkhQQpbpdtoxSHqSnTPaAA3i2rsLhiU/fuOIQRUbQVc8Lx5HnsevNk/XEpJWlHVhVYh5StGycP3u2/7Q1VADK2Y5ALOKXmv
        dN5kJnpCgHGPIpfgs4+FMYU61+RvA7Iw/zBNSW0qASXCIV27lJRwiTvkIKXOTo8h3XCET9FT9NyYk85Ftwsao0sweGgstQkpm0JStEKGtFBYuymFMpTIohX9ZmTWWUgD
        175BAiKc3BNh77SqM3mFf+A2UYXUR/5Z6hTkS6O6WyLg3DrCw0mRd6CCEsvnsnaOF1NBZkQe60blKai3hLHEZh77df84jG2TyF4yYVtKLC/CUh6m6CgprrM/oJTt6N6K
        qyUK53uUmPFC72lSgTqLKwWPV3WXKCdLnRn8WDcFdgFijemAaz9dTyco1NBTC7LpBXf+S+E3CvuK4s5T1vMUb56ymaf485TtPGU3TwnmKZwt4CzQly8QmC9QmC+QmH+t
        8S+ooPyk4OffZuRwd6LQyt0EO8/dcC8I+NZn64nBHOuwITi+vorMTD03OLn33qFMC6EyMXqpGz+T8bTz/Enxn7+joRDaFSdENA6TLj7e4lpIYR39AmnvMVtk7wwTEIMP
        nENbFg==
        AAAQAAAA
      >
      FLOATPOS 0 0 0 0
      FXID {92A24B2F-B489-493D-A247-3156D329A504}
      WAK 0
    >
    <ITEM
      POSITION 0
      SNAPOFFS 0
      LENGTH 108.69834800000014
      LOOP 0
      ALLTAKES 0
      FADEIN 1 0 0 1 0 0
      FADEOUT 1 0 0 1 0 0
      MUTE 0
      SEL 0
      IGUID {B5EED174-54DB-4529-948E-F4061426C45D}
      IID 3
      NAME "Kirby 64 - The Crystal Shards (U) 00000017 0027D0DC.mid"
      VOLPAN 1 0 1 -1
      SOFFS 0.0010847121468 0.00260334530939
      PLAYRATE 1 1 0 -1 0 0.0025
      CHANMODE 0
      GUID {45890B26-6855-4BCF-8C9C-8DB01CDBC907}
      <SOURCE MIDI
        HASDATA 1 384 QN
        POOLEDEVTS {38C11CFD-928D-4A54-BFCE-1190D5AFA624}
        E 4578 c2 07 00
        E 1551 b2 16 28
        E 1552 b2 66 00
        E 1536 c2 07 00
        E 33790 e2 00 40
        E 36864 e2 00 40
        E 2 b2 07 3c
        E 0 92 54 37
        E 0 92 42 37
        E 24 b2 07 3d
        E 240 b2 07 3e
        E 240 b2 07 3f
        E 240 b2 07 40
        E 240 b2 07 41
        E 240 b2 07 42
        E 240 b2 07 43
        E 240 b2 07 44
        E 240 b2 07 45
        E 240 b2 07 46
        E 240 b2 07 47
        E 240 b2 07 48
        E 9 92 54 00
        E 0 92 42 00
        E 15 92 44 37
        E 0 92 52 37
        E 216 b2 07 49
        E 153 92 44 00
        E 0 92 52 00
        E 15 92 54 37
        E 0 92 42 37
        E 72 b2 07 4a
        E 240 b2 07 4b
        E 240 b2 07 4c
        E 240 b2 07 4d
        E 240 b2 07 4e
        E 240 b2 07 4f
        E 240 b2 07 50
        E 240 b2 07 51
        E 240 b2 07 52
        E 240 b2 07 53
        E 240 b2 07 54
        E 201 92 54 00
        E 0 92 42 00
        E 15 92 44 37
        E 0 92 52 37
        E 24 b2 07 55
        E 240 b2 07 56
        E 105 92 44 00
        E 0 92 52 00
        E 15 92 42 37
        E 0 92 54 37
        E 120 b2 07 57
        E 216 b2 07 58
        E 264 b2 07 59
        E 240 b2 07 5a
        E 216 b2 07 5b
        E 264 b2 07 5c
        E 240 b2 07 5d
        E 216 b2 07 5e
        E 264 b2 07 5f
        E 240 b2 07 60
        E 216 b2 07 61
        E 177 92 42 00
        E 0 92 54 00
        E 15 92 44 37
        E 0 92 52 37
        E 72 b2 07 62
        E 240 b2 07 63
        E 57 92 44 00
        E 0 92 52 00
        E 15 92 54 37
        E 0 92 42 37
        E 144 b2 07 64
        E 264 b2 07 65
        E 240 b2 07 66
        E 216 b2 07 67
        E 216 b2 07 68
        E 57 92 54 00
        E 0 92 42 00
        E 15 92 44 37
        E 0 92 52 37
        E 72 b2 07 69
        E 120 b2 07 6a
        E 144 b2 07 6b
        E 33 92 44 00
        E 0 92 52 00
        E 15 92 54 37
        E 0 92 42 37
        E 96 b2 07 6c
        E 120 b2 07 6d
        E 144 b2 07 6e
        E 9 92 54 00
        E 0 92 42 00
        E 15 92 52 37
        E 0 92 44 37
        E 96 b2 07 6f
        E 144 b2 07 70
        E 129 92 52 00
        E 0 92 44 00
        E 15 b2 07 71
        E 0 92 54 37
        E 0 92 42 37
        E 120 b2 07 72
        E 144 b2 07 73
        E 105 92 54 00
        E 0 92 42 00
        E 15 92 44 37
        E 0 92 52 37
        E 24 b2 07 74
        E 120 b2 07 75
        E 225 92 44 00
        E 0 92 52 00
        E 3663 b2 07 33
        E 4032 b2 67 00
        E 338 b0 7b 00
        GUID {2A1DB71F-CD6F-4F9C-B01B-C372B70AC96F}
        IGNTEMPO 0 120 4 4
        SRCCOLOR 5
        VELLANE 131 77 128
        CFGEDITVIEW 1 4.872211 46 12 0 -1 0 0 0 0.5
        KEYSNAP 0
        TRACKSEL 0
        EVTFILTER 0 -1 -1 -1 -1 0 0 0 0 -1 -1 -1 -1 0 -1 0 -1 -1
        CFGEDIT 1 1 0 1 0 1 1 1 1 1 1 0.125 542 68 1779 958 0 0 2 2 0 0 0 0 0 0.5 0 0 1 64
      >
    >
  >
  <TRACK {AEA5B7DA-28B1-4AE8-859D-C6031F6C8DB8}
    NAME "7 Strings 2 (backing)"
    PEAKCOL 16576
    BEAT -1
    AUTOMODE 0
    VOLPAN 1 0 -1 -1 1
    MUTESOLO 0 0 0
    IPHASE 0
    ISBUS 0 0
    BUSCOMP 0 0
    SHOWINMIX 1 0.6667 0.5 1 0.5 0 0 0
    FREEMODE 0
    SEL 0
    REC 0 0 0 0 0 0 0
    VU 2
    TRACKHEIGHT 0 0
    INQ 0 0 0 0.5 100 0 0 100
    NCHAN 2
    FX 1
    TRACKID {AEA5B7DA-28B1-4AE8-859D-C6031F6C8DB8}
    PERF 0
    MIDIOUT -1
    MAINSEND 1 0
    <FXCHAIN
      WNDRECT 50 94 958 586
      SHOW 0
      LASTSEL 0
      DOCKED 0
      BYPASS 0 0 0
      <VST "VSTi: sforzando (Plogue Art et Technologie, Inc)" "sforzando VST_x86.dll" 0 "" 1347176273
        UUdMUO5e7f4AAAAAAgAAAAEAAAAAAAAAAgAAAAAAAADkAQAAAQAAAAAAEAA=
        Q0VHUCYFAAB4nI1UTY+bMBC9V+p/sHzfYBNCghS6ynajikPUSmzPaABviuqPLZgo/fcdQwho1RVwwX7zPJ558Gb/eFWSXETdVEbHlK8YJY9fPn/aH+oKUriISSzinJK3
        2pRtYZNnBBgPKHIJPvtUWFvpc0P+tCAr+xfDlDS2FqAQjunap0TBNe2Qg5SmOD3FdMMRPiXPyffWnkwpulPQWqPA4qWpNDambApJcREyppXG3K0S2lIiq4voDyOzKWIa
        bd0bJCDCyQMRrqZVU8gb/BWPiTqmIfLP0uQgX1rdVYmAd+8ILydV2YEaFKYvZeMdr7aGwooyNa0uc9C/M8YyF3nq1/3jMbbNEldkxrAax0swVYAhOkqK6+IXaO06enDi
        GonChQEldizoLc9q0Gdxo+D1uukCarI0hcWPNSqAKVRrO+DWT9fTCSo99HQB2faCe/+l8DuFfUTx5ynreUowT9nMU8J5ynaespunRPMUzhZwFujLFwjMFyjMF0jMP9b4
        B9Sg3in4/rcZOdyfKLTyN9Eu8Dc8iCK+Ddl6YjDPOWzYHF9fRWGnnhuc3HvvoPJK6EKMXurGz2Q87YJwkvzbz2RIhHbFCZGMw6TbH+/7RkjhHP0Cee8xl2TvDRMQN/8A
        pzpbHA==
        AAAQAAAA
      >
      FLOATPOS 0 0 0 0
      FXID {DDE02630-839E-4C43-8D98-790806FE5820}
      WAK 0
    >
    <ITEM
      POSITION 0
      SNAPOFFS 0
      LENGTH 108.69834800000014
      LOOP 0
      ALLTAKES 0
      FADEIN 1 0 0 1 0 0
      FADEOUT 1 0 0 1 0 0
      MUTE 0
      SEL 0
      IGUID {49E83B40-153E-4731-8ACE-838046E51C26}
      IID 4
      NAME "Kirby 64 - The Crystal Shards (U) 00000017 0027D0DC.mid"
      VOLPAN 1 0 1 -1
      SOFFS 0.0010847121468 0.00260334530939
      PLAYRATE 1 1 0 -1 0 0.0025
      CHANMODE 0
      GUID {775B3B0D-3575-4FB3-B1F0-B206A3DBF2AE}
      <SOURCE MIDI
        HASDATA 1 384 QN
        POOLEDEVTS {9418EA74-111E-415B-8A05-E56E4B8B8DDE}
        E 4578 c3 07 00
        E 1551 b3 16 28
        E 1552 b3 66 00
        E 1536 c3 07 00
        E 33790 e3 00 40
        E 36864 e3 00 40
        E 2 b3 07 3c
        E 0 93 50 37
        E 24 b3 07 3d
        E 240 b3 07 3e
        E 240 b3 07 3f
        E 240 b3 07 40
        E 240 b3 07 41
        E 240 b3 07 42
        E 240 b3 07 43
        E 240 b3 07 44
        E 240 b3 07 45
        E 240 b3 07 46
        E 240 b3 07 47
        E 240 b3 07 48
        E 9 93 50 00
        E 15 93 4e 37
        E 216 b3 07 49
        E 153 93 4e 00
        E 15 93 50 37
        E 72 b3 07 4a
        E 240 b3 07 4b
        E 240 b3 07 4c
        E 240 b3 07 4d
        E 240 b3 07 4e
        E 240 b3 07 4f
        E 240 b3 07 50
        E 240 b3 07 51
        E 240 b3 07 52
        E 240 b3 07 53
        E 240 b3 07 54
        E 201 93 50 00
        E 15 93 4e 37
        E 24 b3 07 55
        E 240 b3 07 56
        E 105 93 4e 00
        E 15 93 50 37
        E 120 b3 07 57
        E 216 b3 07 58
        E 264 b3 07 59
        E 240 b3 07 5a
        E 216 b3 07 5b
        E 264 b3 07 5c
        E 240 b3 07 5d
        E 216 b3 07 5e
        E 264 b3 07 5f
        E 240 b3 07 60
        E 216 b3 07 61
        E 177 93 50 00
        E 15 93 4e 37
        E 72 b3 07 62
        E 240 b3 07 63
        E 57 93 4e 00
        E 15 93 50 37
        E 144 b3 07 64
        E 264 b3 07 65
        E 240 b3 07 66
        E 216 b3 07 67
        E 216 b3 07 68
        E 57 93 50 00
        E 15 93 4e 37
        E 72 b3 07 69
        E 120 b3 07 6a
        E 144 b3 07 6b
        E 33 93 4e 00
        E 15 93 50 37
        E 96 b3 07 6c
        E 120 b3 07 6d
        E 144 b3 07 6e
        E 9 93 50 00
        E 15 93 4e 37
        E 96 b3 07 6f
        E 144 b3 07 70
        E 129 93 4e 00
        E 15 b3 07 71
        E 0 93 50 37
        E 120 b3 07 72
        E 144 b3 07 73
        E 105 93 50 00
        E 15 93 4e 37
        E 24 b3 07 74
        E 120 b3 07 75
        E 225 93 4e 00
        E 3663 b3 07 33
        E 4032 b3 67 00
        E 338 b0 7b 00
        GUID {500EAB3A-191C-4050-96D0-08E4F859E318}
        IGNTEMPO 0 120 4 4
        SRCCOLOR 6
        VELLANE 131 77 128
        CFGEDITVIEW -5745.049878 6.488641 84 12 0 -1 0 0 0 0.5
        KEYSNAP 0
        TRACKSEL 0
        EVTFILTER 0 -1 -1 -1 -1 0 0 0 0 -1 -1 -1 -1 0 -1 0 -1 -1
        CFGEDIT 1 1 0 1 0 1 1 1 1 1 1 0.125 653 206 1822 903 0 0 2 2 0 0 0 0 0 0.5 0 0 1 64
      >
    >
  >
  <TRACK {9D520C1F-2CE0-4BC6-A2C2-48F505B32B92}
    NAME "7 Strings 3 (backing)"
    PEAKCOL 16576
    BEAT -1
    AUTOMODE 0
    VOLPAN 1 0 -1 -1 1
    MUTESOLO 0 0 0
    IPHASE 0
    ISBUS 0 0
    BUSCOMP 0 0
    SHOWINMIX 1 0.6667 0.5 1 0.5 0 0 0
    FREEMODE 0
    SEL 0
    REC 0 0 0 0 0 0 0
    VU 2
    TRACKHEIGHT 0 0
    INQ 0 0 0 0.5 100 0 0 100
    NCHAN 2
    FX 1
    TRACKID {9D520C1F-2CE0-4BC6-A2C2-48F505B32B92}
    PERF 0
    MIDIOUT -1
    MAINSEND 1 0
    <FXCHAIN
      WNDRECT 46 90 962 590
      SHOW 0
      LASTSEL 0
      DOCKED 0
      BYPASS 0 0 0
      <VST "VSTi: sforzando (Plogue Art et Technologie, Inc)" "sforzando VST_x86.dll" 0 "" 1347176273
        UUdMUO5e7f4AAAAAAgAAAAEAAAAAAAAAAgAAAAAAAADjAQAAAQAAAAAAEAA=
        Q0VHUCgFAAB4nI1UwY6bMBC9V+o/WL5vsAkhQQpdZbtRxSFqJbZnNIA3RTX2FgxK/75jkwS06gp8st88j2cevNk/XmpJetG0lVYx5StGyeOXz5/2h6aCFHoxiUWcU/LW
        6LIrTPKMAOMBRS7BtU+FMZU6t+RPB7IyfzFMSWsaATXCMV37lNRwSR1ykFIXp6eYbjjCp+Q5+d6Zky6FuwWd0TUYfDSV2sSUTSEpeiFjWinM3dVCGUpk1YvhMjLbwhVm
        NyABIU4eiLBFrdpCXuGveE80MQ3xwlnqHORLp1yZCHj3lvB1UpUOVFBj/lK23vFiGiiMKFPdqTIH9TtjLLORp2E/LI+xbZbYKjO2pcTyEkwVYIiOmuK++AVK2ZYerLpa
        onJhQIkZC3rLswbUWVwp+LxqXaCebHVh8GvdJYh2iHXGAdd+XE8nqNStpx5kNyju/ZfC7xT2EcWfp6znKcE8ZTNPCecp23nKbp4SzVM4W8BZoC9fIDBfoDBfIDH/WOMf
        0ED9TsH3v83I4f5EoZW/iXaBv+FBFPFtyNYTg3nWYbfD8fVVFGbqubuVB/Md6rwSqhCjmdwAmgyoXRBOsn/7mdwyoV9xRiTjOHHn4/3cCimspV8gH0xmk+y92wzEwz/S
        nltk
        AAAQAAAA
      >
      FLOATPOS 0 0 0 0
      FXID {0A2F6FD1-27CC-415B-A0CF-43BAD57F84DD}
      WAK 0
    >
    <ITEM
      POSITION 0
      SNAPOFFS 0
      LENGTH 108.69834800000014
      LOOP 0
      ALLTAKES 0
      FADEIN 1 0 0 1 0 0
      FADEOUT 1 0 0 1 0 0
      MUTE 0
      SEL 0
      IGUID {8E130996-AA44-420F-8AD9-B93F9AFAAC45}
      IID 5
      NAME "Kirby 64 - The Crystal Shards (U) 00000017 0027D0DC.mid"
      VOLPAN 1 0 1 -1
      SOFFS 0.0010847121468 0.00260334530939
      PLAYRATE 1 1 0 -1 0 0.0025
      CHANMODE 0
      GUID {558963B1-7B37-43B0-94EA-02C2AA4FD4FF}
      <SOURCE MIDI
        HASDATA 1 384 QN
        POOLEDEVTS {2815C3A2-795D-411C-A665-3F5DFA94DBF8}
        E 4578 c4 07 00
        E 1551 b4 16 28
        E 1552 b4 66 00
        E 1536 c4 07 00
        E 33790 e4 00 40
        E 36864 e4 00 40
        E 2 b4 07 3c
        E 0 94 4c 37
        E 24 b4 07 3d
        E 240 b4 07 3e
        E 240 b4 07 3f
        E 240 b4 07 40
        E 240 b4 07 41
        E 240 b4 07 42
        E 240 b4 07 43
        E 240 b4 07 44
        E 240 b4 07 45
        E 240 b4 07 46
        E 240 b4 07 47
        E 240 b4 07 48
        E 9 94 4c 00
        E 15 94 4a 37
        E 216 b4 07 49
        E 153 94 4a 00
        E 15 94 4c 37
        E 72 b4 07 4a
        E 240 b4 07 4b
        E 240 b4 07 4c
        E 240 b4 07 4d
        E 240 b4 07 4e
        E 240 b4 07 4f
        E 240 b4 07 50
        E 240 b4 07 51
        E 240 b4 07 52
        E 240 b4 07 53
        E 240 b4 07 54
        E 201 94 4c 00
        E 15 94 4a 37
        E 24 b4 07 55
        E 240 b4 07 56
        E 105 94 4a 00
        E 15 94 4c 37
        E 120 b4 07 57
        E 216 b4 07 58
        E 264 b4 07 59
        E 240 b4 07 5a
        E 216 b4 07 5b
        E 264 b4 07 5c
        E 240 b4 07 5d
        E 216 b4 07 5e
        E 264 b4 07 5f
        E 240 b4 07 60
        E 216 b4 07 61
        E 177 94 4c 00
        E 15 94 4a 37
        E 72 b4 07 62
        E 240 b4 07 63
        E 57 94 4a 00
        E 15 94 4c 37
        E 144 b4 07 64
        E 264 b4 07 65
        E 240 b4 07 66
        E 216 b4 07 67
        E 216 b4 07 68
        E 57 94 4c 00
        E 15 94 4a 37
        E 72 b4 07 69
        E 120 b4 07 6a
        E 144 b4 07 6b
        E 33 94 4a 00
        E 15 94 4c 37
        E 96 b4 07 6c
        E 120 b4 07 6d
        E 144 b4 07 6e
        E 9 94 4c 00
        E 15 94 4a 37
        E 96 b4 07 6f
        E 144 b4 07 70
        E 129 94 4a 00
        E 15 b4 07 71
        E 0 94 4c 37
        E 120 b4 07 72
        E 144 b4 07 73
        E 105 94 4c 00
        E 15 94 4a 37
        E 24 b4 07 74
        E 120 b4 07 75
        E 225 94 4a 00
        E 3663 b4 07 33
        E 192 e4 00 40
        E 3840 b4 67 00
        E 338 b0 7b 00
        GUID {4A6CDBE0-DD25-4AD4-BFEC-F2C6D5A06DF0}
        IGNTEMPO 0 120 4 4
        SRCCOLOR 7
        VELLANE 131 77 128
        CFGEDITVIEW -5735.499778 6.488641 50 12 0 -1 0 0 0 0.5
        KEYSNAP 0
        TRACKSEL 0
        EVTFILTER 0 -1 -1 -1 -1 0 0 0 0 -1 -1 -1 -1 0 -1 0 -1 -1
        CFGEDIT 1 1 0 1 0 1 1 1 1 1 1 0.125 655 208 1820 901 0 0 2 2 0 0 0 0 0 0.5 0 0 1 64
      >
    >
  >
  <TRACK {CFE0F0E6-B97F-4FD6-8814-800EBADB298C}
    NAME "42 Mallets"
    PEAKCOL 16576
    BEAT -1
    AUTOMODE 0
    VOLPAN 1 0 -1 -1 1
    MUTESOLO 0 0 0
    IPHASE 0
    ISBUS 2 -1
    BUSCOMP 0 0
    SHOWINMIX 1 0.6667 0.5 1 0.5 0 0 0
    FREEMODE 0
    SEL 0
    REC 0 0 0 0 0 0 0
    VU 2
    TRACKHEIGHT 0 0
    INQ 0 0 0 0.5 100 0 0 100
    NCHAN 2
    FX 1
    TRACKID {CFE0F0E6-B97F-4FD6-8814-800EBADB298C}
    PERF 0
    MIDIOUT -1
    MAINSEND 1 0
    <FXCHAIN
      WNDRECT 48 92 962 590
      SHOW 0
      LASTSEL 0
      DOCKED 0
      BYPASS 0 0 0
      <VST "VSTi: sforzando (Plogue Art et Technologie, Inc)" "sforzando VST_x86.dll" 0 "" 1347176273
        UUdMUO5e7f4AAAAAAgAAAAEAAAAAAAAAAgAAAAAAAADPAQAAAQAAAAAAEAA=
        Q0VHUO8EAAB4nI1UTW+jMBC9r7T/wfK9Bac0m0jQKt1GKw7RrkR7RoNxs2j90QUbpf++YwgBVa2AC543z+OZB8/x/UlJ0oq6qYxOKLsOKbm/+/4t3tUVZNCKSW7LGCWv
        tSkdt+kjAiGLKHIJPnEmrK30sSH/HcjKvmGaksbWAhTCCb1ZUaLglHXITkrDDw8JvWUIH9LH9LezB1OKbhc4axRYPDSTxiY0nEJStEImtNJY2ymhLSWyakW/GZkNT2i0
        9W+QgAgjV0T4nq4bLs/wT9wm6oSukX+UpgD55HTXJQLBZSI8nFRlB2pQWL6UTbA/2Rq4FWVmnC4L0P/yMMx95qFf908QRqs89U3mqx0lnpdiqQhTdJQU1/wvaO0nuvLi
        GonCrSNK7NjQa5HXoI/iTMHjddMl1GRpuMWPNSqwQczZDjjP0810gEoPM7UgXS948CmFXSjhV5TVPOVmnhLNU27nKet5yo95ymaesp2nsHABZ4G+bIHAbIHCbIHE7GuN
        /0AN6oOCk98mDrxVhmD/8iK4nZpnsGRvop0qKqG5GE3R3SOTe2YTrSfFfz2nQyH0HVo9HW+FLt5f4kZI4a35BEVvFl8kDoarDIN3eZdO3g==
        AAAQAAAA
      >
      FLOATPOS 0 0 0 0
      FXID {BE33A157-5966-4314-AF5A-6F3B1B4BA9C9}
      WAK 0
    >
    <ITEM
      POSITION 0
      SNAPOFFS 0
      LENGTH 105.365068
      LOOP 0
      ALLTAKES 0
      FADEIN 1 0 0 1 0 0
      FADEOUT 1 0 0 1 0 0
      MUTE 0
      SEL 0
      IGUID {21CE3A68-2B0E-4565-A8D0-E95329B4AB5B}
      IID 11
      NAME "Kirby 64 - The Crystal Shards (U) 00000017 0027D0DC.mid"
      VOLPAN 1 0 1 -1
      SOFFS 0.0010847121468 0.00260334530939
      PLAYRATE 1 1 0 -1 0 0.0025
      CHANMODE 0
      GUID {D00DFD74-B3DD-4AEB-AF89-4833109EF889}
      <SOURCE MIDI
        HASDATA 1 384 QN
        POOLEDEVTS {62A1B82F-0B0F-411F-853B-2D9A1D88CDC8}
        E 4609 ba 66 00
        E 23040 ca 08 00
        E 768 ea 00 40
        E 13056 ca 03 00
        E 12288 ca 0a 00
        E 7904 ea 78 31
        E 16 ea 3b 30
        E 16656 ca 2a 00
        E 192 ea 00 40
        E 1344 ba 07 59
        E 0 ba 19 28
        E 0 ba 0a 00
        E 0 ba 16 19
        E 0 9a 58 44
        E 47 9a 58 00
        E 17 ba 0a 18
        E 0 9a 54 3d
        E 47 9a 54 00
        E 17 ba 0a 2f
        E 0 9a 50 3d
        E 47 9a 50 00
        E 17 ba 0a 42
        E 0 9a 4c 49
        E 47 9a 4c 00
        E 17 ba 0a 5a
        E 0 9a 50 3d
        E 47 9a 50 00
        E 17 ba 0a 6d
        E 0 9a 54 3d
        E 47 9a 54 00
        E 17 ba 0a 7f
        E 0 9a 58 44
        E 47 9a 58 00
        E 17 ba 0a 68
        E 0 9a 54 3d
        E 47 9a 54 00
        E 17 ba 0a 50
        E 0 9a 50 3d
        E 47 9a 50 00
        E 17 ba 0a 3d
        E 0 9a 4c 49
        E 47 9a 4c 00
        E 17 ba 0a 26
        E 0 9a 50 3d
        E 47 9a 50 00
        E 17 ba 0a 13
        E 0 9a 54 3d
        E 47 9a 54 00
        E 17 ba 0a 00
        E 0 9a 58 44
        E 47 9a 58 00
        E 17 ba 0a 18
        E 0 9a 54 3d
        E 47 9a 54 00
        E 17 ba 0a 2f
        E 0 9a 50 3d
        E 47 9a 50 00
        E 17 ba 0a 42
        E 0 9a 4c 49
        E 47 9a 4c 00
        E 17 ba 0a 5a
        E 0 9a 50 3d
        E 47 9a 50 00
        E 17 ba 0a 6d
        E 0 9a 54 3d
        E 47 9a 54 00
        E 17 ba 0a 7f
        E 0 9a 58 44
        E 47 9a 58 00
        E 17 ba 0a 68
        E 0 9a 54 3d
        E 47 9a 54 00
        E 17 ba 0a 50
        E 0 9a 50 3d
        E 47 9a 50 00
        E 17 ba 0a 3d
        E 0 9a 4c 49
        E 47 9a 4c 00
        E 17 ba 0a 26
        E 0 9a 50 3d
        E 47 9a 50 00
        E 17 ba 0a 13
        E 0 9a 54 3d
        E 47 9a 54 00
        E 17 ba 0a 00
        E 0 9a 58 44
        E 47 9a 58 00
        E 17 ba 0a 18
        E 0 9a 54 3d
        E 47 9a 54 00
        E 17 ba 0a 2f
        E 0 9a 50 3d
        E 47 9a 50 00
        E 17 ba 0a 42
        E 0 9a 4c 49
        E 47 9a 4c 00
        E 17 ba 0a 5a
        E 0 9a 50 3d
        E 47 9a 50 00
        E 17 ba 0a 6d
        E 0 9a 54 3d
        E 47 9a 54 00
        E 17 ba 0a 7f
        E 0 9a 58 44
        E 47 9a 58 00
        E 17 ba 0a 68
        E 0 9a 54 3d
        E 47 9a 54 00
        E 17 ba 0a 50
        E 0 9a 50 3d
        E 47 9a 50 00
        E 17 ba 0a 3d
        E 0 9a 4c 49
        E 47 9a 4c 00
        E 17 ba 0a 26
        E 0 9a 50 3d
        E 47 9a 50 00
        E 17 ba 0a 13
        E 0 9a 54 3d
        E 47 9a 54 00
        E 17 ba 0a 00
        E 0 9a 58 44
        E 47 9a 58 00
        E 17 ba 0a 18
        E 0 9a 54 3d
        E 47 9a 54 00
        E 17 ba 0a 2f
        E 0 9a 50 3d
        E 47 9a 50 00
        E 17 ba 0a 42
        E 0 9a 4c 49
        E 47 9a 4c 00
        E 17 ba 0a 5a
        E 0 9a 50 3d
        E 47 9a 50 00
        E 17 ba 0a 6d
        E 0 9a 54 3d
        E 47 9a 54 00
        E 17 ba 0a 7f
        E 0 9a 58 44
        E 47 9a 58 00
        E 17 ba 0a 68
        E 0 9a 54 3d
        E 47 9a 54 00
        E 17 ba 0a 50
        E 0 9a 50 3d
        E 47 9a 50 00
        E 17 ba 0a 3d
        E 0 9a 4c 49
        E 47 9a 4c 00
        E 17 ba 0a 26
        E 0 9a 50 3d
        E 47 9a 50 00
        E 17 ba 0a 13
        E 0 9a 54 3d
        E 47 9a 54 00
        E 17 ba 0a 00
        E 0 9a 58 44
        E 47 9a 58 00
        E 17 ba 0a 18
        E 0 9a 54 3d
        E 47 9a 54 00
        E 17 ba 0a 2f
        E 0 9a 50 3d
        E 47 9a 50 00
        E 17 ba 0a 42
        E 0 9a 4c 49
        E 47 9a 4c 00
        E 17 ba 0a 5a
        E 0 9a 50 3d
        E 47 9a 50 00
        E 17 ba 0a 6d
        E 0 9a 54 3d
        E 47 9a 54 00
        E 17 ba 0a 7f
        E 0 9a 58 44
        E 47 9a 58 00
        E 17 ba 0a 68
        E 0 9a 54 3d
        E 47 9a 54 00
        E 17 ba 0a 50
        E 0 9a 50 3d
        E 47 9a 50 00
        E 17 ba 0a 3d
        E 0 9a 4c 49
        E 47 9a 4c 00
        E 17 ba 0a 26
        E 0 9a 50 3d
        E 47 9a 50 00
        E 17 ba 0a 13
        E 0 9a 54 3d
        E 47 9a 54 00
        E 17 ba 0a 00
        E 0 9a 58 44
        E 47 9a 58 00
        E 17 ba 0a 18
        E 0 9a 54 3d
        E 47 9a 54 00
        E 17 ba 0a 2f
        E 0 9a 50 3d
        E 47 9a 50 00
        E 17 ba 0a 42
        E 0 9a 4c 49
        E 47 9a 4c 00
        E 17 ba 0a 5a
        E 0 9a 50 3d
        E 47 9a 50 00
        E 17 ba 0a 6d
        E 0 9a 54 3d
        E 47 9a 54 00
        E 17 ba 0a 7f
        E 0 9a 58 44
        E 47 9a 58 00
        E 17 ba 0a 68
        E 0 9a 54 3d
        E 47 9a 54 00
        E 17 ba 0a 50
        E 0 9a 50 3d
        E 47 9a 50 00
        E 17 ba 0a 3d
        E 0 9a 4c 49
        E 47 9a 4c 00
        E 17 ba 0a 26
        E 0 9a 50 3d
        E 47 9a 50 00
        E 17 ba 0a 13
        E 0 9a 54 3d
        E 47 9a 54 00
        E 17 ba 0a 00
        E 0 9a 58 44
        E 47 9a 58 00
        E 17 ba 0a 18
        E 0 9a 54 3d
        E 47 9a 54 00
        E 17 ba 0a 2f
        E 0 9a 50 3d
        E 47 9a 50 00
        E 17 ba 0a 42
        E 0 9a 4c 49
        E 47 9a 4c 00
        E 17 ba 0a 5a
        E 0 9a 50 3d
        E 47 9a 50 00
        E 17 ba 0a 6d
        E 0 9a 54 3d
        E 47 9a 54 00
        E 17 ba 0a 7f
        E 0 9a 58 44
        E 47 9a 58 00
        E 17 ba 0a 68
        E 0 9a 54 3d
        E 47 9a 54 00
        E 17 ba 0a 50
        E 0 9a 50 3d
        E 47 9a 50 00
        E 17 ba 0a 3d
        E 0 9a 4c 49
        E 47 9a 4c 00
        E 17 ba 0a 26
        E 0 9a 50 3d
        E 47 9a 50 00
        E 17 ba 0a 13
        E 0 9a 54 3d
        E 47 9a 54 00
        E 17 ba 0a 00
        E 0 9a 58 44
        E 47 9a 58 00
        E 17 ba 0a 18
        E 0 9a 54 3d
        E 47 9a 54 00
        E 17 ba 0a 2f
        E 0 9a 50 3d
        E 47 9a 50 00
        E 17 ba 0a 42
        E 0 9a 4c 49
        E 47 9a 4c 00
        E 17 ba 0a 5a
        E 0 9a 50 3d
        E 47 9a 50 00
        E 17 ba 0a 6d
        E 0 9a 54 3d
        E 47 9a 54 00
        E 17 ba 0a 7f
        E 0 9a 58 44
        E 47 9a 58 00
        E 17 ba 0a 68
        E 0 9a 54 3d
        E 47 9a 54 00
        E 17 ba 0a 50
        E 0 9a 50 3d
        E 47 9a 50 00
        E 17 ba 0a 3d
        E 0 9a 4c 49
        E 47 9a 4c 00
        E 17 ba 0a 26
        E 0 9a 50 3d
        E 47 9a 50 00
        E 17 ba 0a 13
        E 0 9a 54 3d
        E 47 9a 54 00
        E 17 ba 0a 00
        E 0 9a 58 44
        E 47 9a 58 00
        E 17 ba 0a 18
        E 0 9a 54 3d
        E 47 9a 54 00
        E 17 ba 0a 2f
        E 0 9a 50 3d
        E 47 9a 50 00
        E 17 ba 0a 42
        E 0 9a 4c 49
        E 47 9a 4c 00
        E 17 ba 0a 5a
        E 0 9a 50 3d
        E 47 9a 50 00
        E 17 ba 0a 6d
        E 0 9a 54 3d
        E 47 9a 54 00
        E 17 ba 0a 7f
        E 0 9a 58 44
        E 47 9a 58 00
        E 17 ba 0a 68
        E 0 9a 54 3d
        E 47 9a 54 00
        E 17 ba 0a 50
        E 0 9a 50 3d
        E 47 9a 50 00
        E 17 ba 0a 3d
        E 0 9a 4c 49
        E 47 9a 4c 00
        E 17 ba 0a 26
        E 0 9a 50 3d
        E 47 9a 50 00
        E 17 ba 0a 13
        E 0 9a 54 3d
        E 47 9a 54 00
        E 17 ba 0a 00
        E 0 9a 58 44
        E 47 9a 58 00
        E 17 ba 0a 18
        E 0 9a 54 3d
        E 47 9a 54 00
        E 17 ba 0a 2f
        E 0 9a 50 3d
        E 47 9a 50 00
        E 17 ba 0a 42
        E 0 9a 4c 49
        E 47 9a 4c 00
        E 17 ba 0a 5a
        E 0 9a 50 3d
        E 47 9a 50 00
        E 17 ba 0a 6d
        E 0 9a 54 3d
        E 47 9a 54 00
        E 17 ba 0a 7f
        E 0 9a 58 44
        E 47 9a 58 00
        E 17 ba 0a 68
        E 0 9a 54 3d
        E 47 9a 54 00
        E 17 ba 0a 50
        E 0 9a 50 3d
        E 47 9a 50 00
        E 17 ba 0a 3d
        E 0 9a 4c 49
        E 47 9a 4c 00
        E 17 ba 0a 26
        E 0 9a 50 3d
        E 47 9a 50 00
        E 17 ba 0a 13
        E 0 9a 54 3d
        E 47 9a 54 00
        E 17 ba 0a 00
        E 0 9a 58 44
        E 47 9a 58 00
        E 17 ba 0a 18
        E 0 9a 54 3d
        E 47 9a 54 00
        E 17 ba 0a 2f
        E 0 9a 50 3d
        E 47 9a 50 00
        E 17 ba 0a 42
        E 0 9a 4c 49
        E 47 9a 4c 00
        E 17 ba 0a 5a
        E 0 9a 50 3d
        E 47 9a 50 00
        E 17 ba 0a 6d
        E 0 9a 54 3d
        E 47 9a 54 00
        E 17 ba 0a 7f
        E 0 9a 58 44
        E 47 9a 58 00
        E 17 ba 0a 68
        E 0 9a 54 3d
        E 47 9a 54 00
        E 17 ba 0a 50
        E 0 9a 50 3d
        E 47 9a 50 00
        E 17 ba 0a 3d
        E 0 9a 4c 49
        E 47 9a 4c 00
        E 17 ba 0a 26
        E 0 9a 50 3d
        E 47 9a 50 00
        E 17 ba 0a 13
        E 0 9a 54 3d
        E 47 9a 54 00
        E 17 ba 0a 00
        E 0 9a 58 44
        E 47 9a 58 00
        E 17 ba 0a 18
        E 0 9a 54 3d
        E 47 9a 54 00
        E 17 ba 0a 2f
        E 0 9a 50 3d
        E 47 9a 50 00
        E 17 ba 0a 42
        E 0 9a 4c 49
        E 47 9a 4c 00
        E 17 ba 0a 5a
        E 0 9a 50 3d
        E 47 9a 50 00
        E 17 ba 0a 6d
        E 0 9a 54 3d
        E 47 9a 54 00
        E 17 ba 0a 7f
        E 0 9a 58 44
        E 47 9a 58 00
        E 17 ba 0a 68
        E 0 9a 54 3d
        E 47 9a 54 00
        E 17 ba 0a 50
        E 0 9a 50 3d
        E 47 9a 50 00
        E 17 ba 0a 3d
        E 0 9a 4c 49
        E 47 9a 4c 00
        E 17 ba 0a 26
        E 0 9a 50 3d
        E 47 9a 50 00
        E 17 ba 0a 13
        E 0 9a 54 3d
        E 47 9a 54 00
        E 17 ba 0a 00
        E 0 9a 5c 44
        E 47 9a 5c 00
        E 17 ba 0a 18
        E 0 9a 58 3d
        E 47 9a 58 00
        E 17 ba 0a 2f
        E 0 9a 54 3d
        E 47 9a 54 00
        E 17 ba 0a 42
        E 0 9a 50 49
        E 47 9a 50 00
        E 17 ba 0a 5a
        E 0 9a 54 3d
        E 47 9a 54 00
        E 17 ba 0a 6d
        E 0 9a 58 3d
        E 47 9a 58 00
        E 17 ba 0a 7f
        E 0 9a 5c 44
        E 47 9a 5c 00
        E 17 ba 0a 68
        E 0 9a 58 3d
        E 47 9a 58 00
        E 17 ba 0a 50
        E 0 9a 54 3d
        E 47 9a 54 00
        E 17 ba 0a 3d
        E 0 9a 50 49
        E 47 9a 50 00
        E 17 ba 0a 26
        E 0 9a 54 3d
        E 47 9a 54 00
        E 17 ba 0a 13
        E 0 9a 58 3d
        E 47 9a 58 00
        E 17 ba 0a 00
        E 0 9a 60 44
        E 47 9a 60 00
        E 17 ba 0a 18
        E 0 9a 5c 3d
        E 47 9a 5c 00
        E 17 ba 0a 2f
        E 0 9a 58 3d
        E 47 9a 58 00
        E 17 ba 0a 42
        E 0 9a 54 49
        E 47 9a 54 00
        E 17 ba 0a 5a
        E 0 9a 58 3d
        E 47 9a 58 00
        E 17 ba 0a 6d
        E 0 9a 5c 3d
        E 47 9a 5c 00
        E 17 ba 0a 7f
        E 0 9a 60 44
        E 47 9a 60 00
        E 17 ba 0a 68
        E 0 9a 5c 3d
        E 47 9a 5c 00
        E 17 ba 0a 50
        E 0 9a 58 3d
        E 47 9a 58 00
        E 17 ba 0a 3d
        E 0 9a 54 49
        E 47 9a 54 00
        E 17 ba 0a 26
        E 0 9a 58 3d
        E 47 9a 58 00
        E 17 ba 0a 13
        E 0 9a 5c 3d
        E 47 9a 5c 00
        E 17 ba 0a 00
        E 0 9a 64 3e
        E 47 9a 64 00
        E 17 ba 0a 18
        E 0 9a 60 3d
        E 47 9a 60 00
        E 17 ba 0a 2f
        E 0 9a 5c 3d
        E 47 9a 5c 00
        E 17 ba 0a 42
        E 0 9a 58 49
        E 47 9a 58 00
        E 17 ba 0a 5a
        E 0 9a 5c 3d
        E 47 9a 5c 00
        E 17 ba 0a 6d
        E 0 9a 60 3d
        E 47 9a 60 00
        E 17 ba 0a 7f
        E 0 9a 64 3e
        E 47 9a 64 00
        E 17 ba 0a 68
        E 0 9a 60 3d
        E 47 9a 60 00
        E 17 ba 0a 50
        E 0 9a 5c 3d
        E 47 9a 5c 00
        E 17 ba 0a 3d
        E 0 9a 58 49
        E 47 9a 58 00
        E 17 ba 0a 26
        E 0 9a 5c 3d
        E 47 9a 5c 00
        E 17 ba 0a 13
        E 0 9a 60 3d
        E 47 9a 60 00
        E 17 ba 0a 00
        E 0 9a 68 38
        E 47 9a 68 00
        E 17 ba 0a 18
        E 0 9a 64 37
        E 47 9a 64 00
        E 17 ba 0a 2f
        E 0 9a 60 3d
        E 47 9a 60 00
        E 17 ba 0a 42
        E 0 9a 5c 49
        E 47 9a 5c 00
        E 17 ba 0a 5a
        E 0 9a 60 3d
        E 47 9a 60 00
        E 17 ba 0a 6d
        E 0 9a 64 37
        E 47 9a 64 00
        E 17 ba 0a 7f
        E 0 9a 68 38
        E 47 9a 68 00
        E 17 ba 0a 68
        E 0 9a 64 3f
        E 47 9a 64 00
        E 17 ba 0a 50
        E 0 9a 60 47
        E 47 9a 60 00
        E 17 ba 0a 3d
        E 0 9a 5c 49
        E 47 9a 5c 00
        E 17 ba 0a 26
        E 0 9a 58 4f
        E 47 9a 58 00
        E 17 ba 0a 13
        E 0 9a 54 55
        E 47 9a 54 00
        E 4625 ba 67 00
        E 338 b0 7b 00
        GUID {654FBC28-0908-4C69-AD02-B5F6D839395B}
        IGNTEMPO 0 120 4 4
        SRCCOLOR 13
        VELLANE 131 77 128
        CFGEDITVIEW 31408.043417 11.884025 13 12 0 -1 0 0 0 0.5
        KEYSNAP 0
        TRACKSEL 0
        EVTFILTER 0 -1 -1 -1 -1 0 0 0 0 -1 -1 -1 -1 0 -1 0 -1 -1
        CFGEDIT 1 1 0 1 0 1 1 1 1 1 1 0.125 663 216 1812 893 0 0 2 2 0 0 0 0 0 0.5 0 0 1 64
      >
    >
  >
>
