<REAPER_PROJECT 0.1 "4.22"
  RIPPLE 0
  GROUPOVERRIDE 0 0 0
  AUTOXFADE 1
  ENVATTACH 1
  MIXERUIFLAGS 11 48
  PEAKGAIN 1.00000000000000
  FEEDBACK 0
  PANLAW 1.00000000000000
  PROJOFFS 0.00000000000000 0
  MAXPROJLEN 0 600.00000000000000
  GRID 1151 8 1.00000000000000 8 1.00000000000000 0
  TIMEMODE 1 0 -1
  CURSOR 302.33600907032400
  ZOOM 95.41767121771062 28345 0
  VZOOMEX 9
  USE_REC_CFG 0
  RECMODE 1
  SMPTESYNC 0 30.000000 100 40 1000 300 0 0.000000 0
  LOOP 0
  LOOPGRAN 0 4.00000000000000
  RECORD_PATH "" ""
  <RECORD_CFG
    ZXZhdxgA
  >
  <APPLYFX_CFG
  >
  RENDER_FILE "C:\Users\User\Documents\REAPER Media\phili philo mute.wav"
  RENDER_FMT 0 2 44100
  RENDER_1X 0
  RENDER_RANGE 1 0.00000000000000 0.00000000000000
  RENDER_RESAMPLE 3 0 1
  RENDER_ADDTOPROJ 0
  RENDER_STEMS 0
  RENDER_DITHER 0
  TIMELOCKMODE 2
  ITEMMIX 0
  DEFPITCHMODE 0
  TAKELANE 1
  SAMPLERATE 44100 0 0
  <RENDER_CFG
    ZXZhdxAA
  >
  LOCK 1
  <METRONOME 6 2.000000
    VOL 0.752735 0.723913
    FREQ 800 1600 0
    BEATLEN 4
    SAMPLES "" ""
  >
  GLOBAL_AUTO -1
  TEMPO 120.00000000000000 4 4
  PLAYRATE 1.00000000000000 0 0.25000 4.00000
  SELECTION 306.80000000000001 306.80000000000001
  SELECTION2 306.80000000000001 306.80000000000001
  MASTERAUTOMODE 0
  MASTERTRACKHEIGHT 0
  MASTERPEAKCOL 16576
  MASTERMUTESOLO 0
  MASTERTRACKVIEW 1 0.666700 0.500000 0.500000 -1 -1 -1
  MASTERHWOUT 0 0 1.00000000000000 0.00000000000000 0 0 0 -1.00000000000000
  MASTER_NCH 2 2
  MASTER_VOLUME 0.99080985041895 0.00000000000000 -1.00000000000000 -1.00000000000000 1.00000000000000
  MASTER_FX 1
  MASTER_SEL 0
  <MASTERPLAYSPEEDENV
    ACT 0
    VIS 0 1 1.000000
    LANEHEIGHT 0 0
    ARM 0
    DEFSHAPE 0 -1 -1
  >
  <TEMPOENVEX
    ACT 1
    VIS 1 0 1.000000
    LANEHEIGHT 0 0
    ARM 0
    DEFSHAPE 1 -1 -1
    PT 0.000000000000 200.0000000000 1 262148
    PT 22.800000000000 200.0000000000 1 262149
    PT 25.800000000000 200.0000000000 1 262148
    PT 235.800000000000 200.0000000000 1 262149
    PT 238.800000000000 200.0000000000 1 262148
    PT 248.400000000000 150.0000000000 1 262150
    PT 272.400000000000 150.0000000000 1 262150
    PT 305.200000000000 150.0000000000 1 262148
  >
  <PROJBAY
  >
  <TRACK '{8F33A645-3DF2-48FA-99BC-10992A4F8042}'
    NAME "PART DRUMS"
    PEAKCOL 16842751
    BEAT -1
    AUTOMODE 0
    VOLPAN 1.00000000000000 0.00000000000000 -1.00000000000000 -1.00000000000000 1.00000000000000
    MUTESOLO 0 0 0
    IPHASE 0
    ISBUS 0 0
    BUSCOMP 1 0
    SHOWINMIX 1 0.666700 0.500000 1 0.500000 -1 -1 -1
    FREEMODE 0
    SEL 0
    REC 0 4096 1 7 0 0 0
    TRACKHEIGHT 0 0
    INQ 0 0 0 0.5000000000 100 0 0 100
    NCHAN 2
    FX 1
    TRACKID {8F33A645-3DF2-48FA-99BC-10992A4F8042}
    PERF 0
    MIDIOUT -1
    <MIDINOTENAMES
      0 84 "HARD Kick"
      0 96 "EXPERT Kick"
      0 72 "MEDIUM Kick"
      0 60 "EASY Kick"
      0 97 "EXPERT Red"
      0 98 "EXPERT Yellow"
      0 99 "EXPERT Blue"
      0 100 "EXPERT Green"
      0 85 "HARD Red"
      0 86 "HARD Yellow"
      0 87 "HARD Blue"
      0 88 "HARD Green"
      0 73 "MEDIUM Red"
      0 74 "MEDIUM Yellow"
      0 75 "MEDIUM Blue"
      0 76 "MEDIUM Green"
      0 61 "EASY Red"
      0 62 "EASY Yellow"
      0 63 "EASY Blue"
      0 64 "EASY Green"
      0 101 " "
      0 92 "----"
      0 80 "----"
      0 68 "----"
      0 120 "DRUM FILL (use all 5)"
      0 121 "DRUM FILL"
      0 122 "DRUM FILL"
      0 123 "DRUM FILL"
      0 124 "DRUM FILL"
      0 114 "----"
      0 116 "OVERDRIVE"
      0 118 "----"
      0 24 "KICK RF"
      0 25 "HI-HAT OPEN"
      0 26 "SNARE HARD LH"
      0 27 "SNARE HARD RH"
      0 30 "HI-HAT LH"
      0 31 "HI-HAT RH"
      0 32 "PERCUSSION RH"
      0 34 "CRASH1 HARD LH"
      0 35 "CRASH1 SOFT LH"
      0 36 "CRASH1 HARD RH"
      0 37 "CRASH1 SOFT RH"
      0 38 "CRASH2 HARD RH"
      0 39 "CRASH2 SOFT RH"
      0 40 "CRASH1 CHOKE"
      0 41 "CRASH2 CHOKE"
      0 42 "RIDE CYM RH"
      0 46 "TOM1 LH"
      0 47 "TOM1 RH"
      0 48 "TOM2 LH"
      0 49 "TOM2 RH"
      0 50 "FLOOR TOM LH"
      0 51 "FLOOR TOM RH"
      0 52 "--DRUM ANIMATION--"
      0 56 "----"
      0 103 "Solo Marker"
      0 102 "----"
      0 110 "PRO Yellow Tom"
      0 111 "PRO Blue Tom"
      0 112 "PRO Green Tom"
      0 108 "----"
      0 127 "Roll Marker 2-Lane / Cym"
      0 126 "Roll Marker 1-Lane"
      0 125 "----"
      0 28 "SNARE SOFT LH"
      0 29 "SNARE SOFT RH"
      0 43 "RIDE CYM LH"
      0 44 "CRASH2 HARD LH"
      0 45 "CRASH2 SOFT LH"
    >
    MAINSEND 1 0
    <FXCHAIN
      WNDRECT 0 38 870 574
      SHOW 0
      LASTSEL 1
      DOCKED 0
      BYPASS 1 0
      <VST "VSTi: ReaSynth (Cockos)" "reasynth.dll" 0 ""
        eXNlcu9e7f4AAAAAAgAAAAEAAAAAAAAAAgAAAAAAAAA4AAAAAAAAAA==
        AAAAAO++rd4N8K3eAAAAAAAAAAAAAAAAAAAAADm0SD59y9s+tbSxOQ==
        AAAAALbz/T5VpCs6AAAAAAAAAAAAAAAAAAA=
      >
      FLOATPOS 0 0 0 0
      FXID {58F55556-9407-4062-A048-6AFCC0B53535}
      WAK 0
      BYPASS 0 0
      <VST "VSTi: RBN Preview (RBN)" "rbprev_vst.dll" 0 ""
        dnBicu5e7f4AAAAAAgAAAAEAAAAAAAAAAgAAAAAAAAAEAAAAAQAAAA==
        AAAAAAMBqgAAAAAAAAA=
      >
      FLOATPOS 590 67 584 512
      FXID {D7126437-AB1E-4109-A0FA-F2D5D0AC68DC}
      WAK 0
    >
    <ITEM
      POSITION 0.00000000000000
      SNAPOFFS 0.00000000000000
      LENGTH 306.80000000000001
      LOOP 0
      ALLTAKES 0
      COLOR 19150555
      SEL 0
      FADEIN 1 0.000000 0.000000 1 0
      FADEOUT 1 0.000000 0.000000 1 0
      MUTE 0
      IGUID {9FF11F36-E94F-4396-9C0E-8449C916EC21}
      IID 1
      NAME "PART DRUMS"
      VOLPAN 1.000000 0.000000 1.000000 -1.000000
      SOFFS 0.00000000000000 0.00000000000000
      PLAYRATE 1.00000000000000 1 0.00000000000000 -65536
      CHANMODE 0
      GUID {70A79ADF-E70C-430A-913F-E16D0CC85517}
      <SOURCE MIDI
        HASDATA 1 480 QN
        POOLEDEVTS {55170BDC-5E82-4F00-97A6-3A8BEC52B0D2}
        <X 0 0
          /wNQQVJUIERSVU1T
        >
        E 5760 90 60 60
        E 0 90 62 60
        E 0 90 63 60
        E 60 80 60 00
        E 0 80 62 00
        E 0 80 63 00
        E 660 90 60 60
        E 60 80 60 00
        E 180 90 61 60
        E 0 90 64 60
        E 60 80 61 00
        E 0 80 64 00
        E 180 90 60 60
        E 60 80 60 00
        E 660 90 60 60
        E 0 90 64 60
        E 60 80 60 00
        E 0 80 64 00
        E 660 90 60 60
        E 60 80 60 00
        E 180 90 61 60
        E 0 90 64 60
        E 60 80 61 00
        E 0 80 64 00
        E 180 90 60 60
        E 60 80 60 00
        E 420 90 60 60
        E 60 80 60 00
        E 60 90 60 60
        E 60 80 60 00
        E 60 90 60 60
        E 0 90 64 60
        E 60 80 60 00
        E 0 80 64 00
        E 180 90 60 60
        E 60 80 60 00
        E 180 90 60 60
        E 60 80 60 00
        E 180 90 60 60
        E 60 80 60 00
        E 180 90 61 60
        E 0 90 64 60
        E 60 80 61 00
        E 0 80 64 00
        E 180 90 60 60
        E 60 80 60 00
        E 660 90 60 60
        E 0 90 64 60
        E 0 90 74 60
        E 60 80 60 00
        E 0 80 64 00
        E 180 90 61 60
        E 60 80 61 00
        E 180 90 61 60
        E 60 80 61 00
        E 180 90 60 60
        E 60 80 60 00
        E 180 90 61 60
        E 0 90 64 60
        E 60 80 61 00
        E 0 80 64 00
        E 180 90 60 60
        E 60 80 60 00
        E 60 90 60 60
        E 60 80 60 00
        E 60 90 60 60
        E 60 80 60 00
        E 180 90 60 60
        E 0 90 62 60
        E 60 80 60 00
        E 0 80 62 00
        E 180 80 74 00
        E 0 90 60 60
        E 0 90 63 60
        E 60 80 60 00
        E 0 80 63 00
        E 660 90 60 60
        E 60 80 60 00
        E 180 90 61 60
        E 0 90 64 60
        E 60 80 61 00
        E 0 80 64 00
        E 180 90 60 60
        E 60 80 60 00
        E 660 90 60 60
        E 0 90 64 60
        E 60 80 60 00
        E 0 80 64 00
        E 660 90 60 60
        E 60 80 60 00
        E 180 90 61 60
        E 0 90 64 60
        E 60 80 61 00
        E 0 80 64 00
        E 180 90 60 60
        E 60 80 60 00
        E 420 90 60 60
        E 60 80 60 00
        E 60 90 60 60
        E 60 80 60 00
        E 60 90 60 60
        E 0 90 64 60
        E 60 80 60 00
        E 0 80 64 00
        E 180 90 60 60
        E 60 80 60 00
        E 180 90 60 60
        E 60 80 60 00
        E 180 90 60 60
        E 60 80 60 00
        E 180 90 61 60
        E 0 90 64 60
        E 60 80 61 00
        E 0 80 64 00
        E 180 90 60 60
        E 60 80 60 00
        E 180 90 61 60
        E 60 80 61 00
        E 180 90 61 60
        E 60 80 61 00
        E 180 90 60 60
        E 0 90 63 60
        E 60 80 60 00
        E 0 80 63 00
        E 180 90 60 60
        E 60 80 60 00
        E 420 90 60 60
        E 60 80 60 00
        E 180 90 61 60
        E 0 90 63 60
        E 60 80 61 00
        E 0 80 63 00
        E 180 90 60 60
        E 60 80 60 00
        E 300 90 60 60
        E 60 80 60 00
        E 60 90 60 60
        E 60 80 60 00
        E 60 90 60 60
        E 60 80 60 00
        E 60 90 60 60
        E 0 90 62 60
        E 0 90 63 60
        E 60 80 60 00
        E 0 80 62 00
        E 0 80 63 00
        E 660 90 60 60
        E 60 80 60 00
        E 180 90 61 60
        E 0 90 63 60
        E 60 80 61 00
        E 0 80 63 00
        E 180 90 60 60
        E 60 80 60 00
        E 180 90 61 60
        E 60 80 61 00
        E 180 90 61 60
        E 60 80 61 00
        E 180 90 60 60
        E 0 90 63 60
        E 60 80 60 00
        E 0 80 63 00
        E 180 90 61 60
        E 60 80 61 00
        E 180 90 61 60
        E 60 80 61 00
        E 180 90 60 60
        E 60 80 60 00
        E 180 90 61 60
        E 0 90 63 60
        E 60 80 61 00
        E 0 80 63 00
        E 660 90 60 60
        E 0 90 64 60
        E 60 80 60 00
        E 0 80 64 00
        E 180 90 63 60
        E 60 80 63 00
        E 180 90 60 60
        E 60 80 60 00
        E 180 90 60 60
        E 60 80 60 00
        E 420 90 61 60
        E 0 90 63 60
        E 60 80 61 00
        E 0 80 63 00
        E 420 90 60 60
        E 60 80 60 00
        E 180 90 61 60
        E 60 80 61 00
        E 180 90 60 60
        E 0 90 63 60
        E 60 80 60 00
        E 0 80 63 00
        E 180 90 61 60
        E 60 80 61 00
        E 180 90 61 60
        E 60 80 61 00
        E 180 90 60 60
        E 60 80 60 00
        E 180 90 61 60
        E 0 90 63 60
        E 60 80 61 00
        E 0 80 63 00
        E 180 90 60 60
        E 60 80 60 00
        E 180 90 64 60
        E 0 90 70 60
        E 60 80 64 00
        E 0 80 70 00
        E 180 90 60 60
        E 60 80 60 00
        E 60 90 60 60
        E 60 80 60 00
        E 60 90 60 60
        E 0 90 62 60
        E 0 90 63 60
        E 60 80 60 00
        E 0 80 62 00
        E 0 80 63 00
        E 660 90 60 60
        E 60 80 60 00
        E 180 90 61 60
        E 0 90 63 60
        E 60 80 61 00
        E 0 80 63 00
        E 180 90 60 60
        E 60 80 60 00
        E 180 90 61 60
        E 60 80 61 00
        E 180 90 61 60
        E 60 80 61 00
        E 180 90 60 60
        E 0 90 63 60
        E 60 80 60 00
        E 0 80 63 00
        E 180 90 61 60
        E 60 80 61 00
        E 180 90 61 60
        E 60 80 61 00
        E 180 90 60 60
        E 60 80 60 00
        E 180 90 61 60
        E 0 90 63 60
        E 60 80 61 00
        E 0 80 63 00
        E 180 90 60 60
        E 60 80 60 00
        E 420 90 60 60
        E 60 80 60 00
        E 60 90 60 60
        E 60 80 60 00
        E 60 90 60 60
        E 0 90 63 60
        E 60 80 60 00
        E 0 80 63 00
        E 180 90 60 60
        E 60 80 60 00
        E 180 90 60 60
        E 60 80 60 00
        E 180 90 60 60
        E 60 80 60 00
        E 180 90 61 60
        E 0 90 63 60
        E 60 80 61 00
        E 0 80 63 00
        E 180 90 60 60
        E 60 80 60 00
        E 180 90 61 60
        E 60 80 61 00
        E 180 90 61 60
        E 60 80 61 00
        E 500 90 60 60
        E 0 90 63 60
        E 80 80 60 00
        E 0 80 63 00
        E 240 90 60 60
        E 0 90 64 60
        E 80 80 60 00
        E 0 80 64 00
        E 240 90 60 60
        E 0 90 63 60
        E 80 80 60 00
        E 0 80 63 00
        E 240 90 60 60
        E 80 80 60 00
        E 240 90 60 60
        E 80 80 60 00
        E 240 90 60 60
        E 0 90 64 60
        E 80 80 60 00
        E 0 80 64 00
        E 160 90 63 60
        E 60 80 63 00
        E 180 90 60 60
        E 0 90 62 60
        E 60 80 60 00
        E 0 80 62 00
        E 180 90 60 60
        E 0 90 62 60
        E 60 80 60 00
        E 0 80 62 00
        E 180 90 63 60
        E 60 80 63 00
        E 180 90 62 60
        E 60 80 62 00
        E 180 90 63 60
        E 60 80 63 00
        E 180 90 63 60
        E 60 80 63 00
        E 180 90 60 60
        E 0 90 62 60
        E 60 80 60 00
        E 0 80 62 00
        E 180 90 60 60
        E 0 90 64 60
        E 60 80 60 00
        E 0 80 64 00
        E 420 90 63 60
        E 60 80 63 00
        E 180 90 62 60
        E 60 80 62 00
        E 420 90 61 60
        E 60 80 61 00
        E 180 90 63 60
        E 60 80 63 00
        E 180 90 63 60
        E 60 80 63 00
        E 180 90 61 60
        E 60 80 61 00
        E 180 90 61 60
        E 60 80 61 00
        E 180 90 61 60
        E 60 80 61 00
        E 180 90 60 60
        E 0 90 62 60
        E 0 90 74 60
        E 60 80 60 00
        E 0 80 62 00
        E 420 90 60 60
        E 60 80 60 00
        E 420 90 61 60
        E 0 90 64 60
        E 60 80 61 00
        E 0 80 64 00
        E 180 90 60 60
        E 60 80 60 00
        E 420 90 60 60
        E 60 80 60 00
        E 180 80 74 00
        E 0 90 64 60
        E 60 80 64 00
        E 180 90 60 60
        E 60 80 60 00
        E 180 90 60 60
        E 60 80 60 00
        E 420 90 61 60
        E 0 90 64 60
        E 60 80 61 00
        E 0 80 64 00
        E 420 90 60 60
        E 60 80 60 00
        E 180 90 60 60
        E 60 80 60 00
        E 180 90 64 60
        E 60 80 64 00
        E 180 90 60 60
        E 60 80 60 00
        E 420 90 60 60
        E 60 80 60 00
        E 180 90 61 60
        E 0 90 64 60
        E 60 80 61 00
        E 0 80 64 00
        E 420 90 60 60
        E 60 80 60 00
        E 180 90 60 60
        E 60 80 60 00
        E 180 90 60 60
        E 0 90 64 60
        E 60 80 60 00
        E 0 80 64 00
        E 180 90 60 60
        E 60 80 60 00
        E 180 90 60 60
        E 60 80 60 00
        E 180 90 60 60
        E 60 80 60 00
        E 180 90 60 60
        E 0 90 61 60
        E 0 90 64 60
        E 60 80 60 00
        E 0 80 61 00
        E 0 80 64 00
        E 180 90 60 60
        E 60 80 60 00
        E 180 90 60 60
        E 60 80 60 00
        E 420 90 60 60
        E 0 90 63 60
        E 60 80 60 00
        E 0 80 63 00
        E 180 90 60 60
        E 60 80 60 00
        E 180 90 60 60
        E 60 80 60 00
        E 180 90 60 60
        E 60 80 60 00
        E 180 90 60 60
        E 0 90 61 60
        E 0 90 63 60
        E 60 80 60 00
        E 0 80 61 00
        E 0 80 63 00
        E 180 90 60 60
        E 60 80 60 00
        E 180 90 60 60
        E 60 80 60 00
        E 180 90 60 60
        E 60 80 60 00
        E 180 90 60 60
        E 0 90 62 60
        E 0 90 63 60
        E 60 80 60 00
        E 0 80 62 00
        E 0 80 63 00
        E 420 90 60 60
        E 60 80 60 00
        E 420 90 61 60
        E 0 90 64 60
        E 60 80 61 00
        E 0 80 64 00
        E 180 90 60 60
        E 60 80 60 00
        E 420 90 60 60
        E 60 80 60 00
        E 180 90 64 60
        E 60 80 64 00
        E 180 90 60 60
        E 60 80 60 00
        E 180 90 60 60
        E 60 80 60 00
        E 420 90 61 60
        E 0 90 64 60
        E 60 80 61 00
        E 0 80 64 00
        E 420 90 60 60
        E 60 80 60 00
        E 180 90 60 60
        E 60 80 60 00
        E 180 90 64 60
        E 60 80 64 00
        E 180 90 60 60
        E 60 80 60 00
        E 420 90 60 60
        E 60 80 60 00
        E 180 90 61 60
        E 0 90 64 60
        E 60 80 61 00
        E 0 80 64 00
        E 420 90 60 60
        E 60 80 60 00
        E 60 90 60 60
        E 60 80 60 00
        E 60 90 60 60
        E 60 80 60 00
        E 60 90 60 60
        E 60 80 60 00
        E 60 90 61 60
        E 0 90 63 60
        E 60 80 61 00
        E 0 80 63 00
        E 660 90 60 60
        E 60 80 60 00
        E 60 90 60 60
        E 60 80 60 00
        E 60 90 61 60
        E 0 90 63 60
        E 60 80 61 00
        E 0 80 63 00
        E 660 90 60 60
        E 60 80 60 00
        E 180 90 61 60
        E 0 90 63 60
        E 60 80 61 00
        E 0 80 63 00
        E 180 90 60 60
        E 60 80 60 00
        E 180 90 64 60
        E 60 80 64 00
        E 180 90 60 60
        E 60 80 60 00
        E 180 90 61 60
        E 0 90 62 60
        E 0 90 6e 60
        E 60 80 61 00
        E 0 80 62 00
        E 0 80 6e 00
        E 180 90 60 60
        E 60 80 60 00
        E 180 90 61 60
        E 0 90 62 60
        E 0 90 6e 60
        E 60 80 61 00
        E 0 80 62 00
        E 0 80 6e 00
        E 420 90 60 60
        E 0 90 62 60
        E 0 90 63 60
        E 60 80 60 00
        E 0 80 62 00
        E 0 80 63 00
        E 420 90 60 60
        E 60 80 60 00
        E 420 90 61 60
        E 0 90 64 60
        E 60 80 61 00
        E 0 80 64 00
        E 180 90 60 60
        E 60 80 60 00
        E 420 90 60 60
        E 60 80 60 00
        E 180 90 64 60
        E 60 80 64 00
        E 180 90 60 60
        E 60 80 60 00
        E 180 90 60 60
        E 60 80 60 00
        E 420 90 61 60
        E 0 90 64 60
        E 60 80 61 00
        E 0 80 64 00
        E 420 90 60 60
        E 60 80 60 00
        E 180 90 60 60
        E 60 80 60 00
        E 180 90 64 60
        E 60 80 64 00
        E 180 90 60 60
        E 60 80 60 00
        E 420 90 60 60
        E 60 80 60 00
        E 180 90 61 60
        E 0 90 64 60
        E 60 80 61 00
        E 0 80 64 00
        E 420 90 60 60
        E 60 80 60 00
        E 180 90 60 60
        E 60 80 60 00
        E 180 90 60 60
        E 0 90 64 60
        E 0 90 74 60
        E 60 80 60 00
        E 0 80 64 00
        E 180 90 60 60
        E 60 80 60 00
        E 180 90 60 60
        E 60 80 60 00
        E 180 90 60 60
        E 60 80 60 00
        E 180 90 60 60
        E 0 90 61 60
        E 0 90 64 60
        E 60 80 60 00
        E 0 80 61 00
        E 0 80 64 00
        E 180 90 60 60
        E 60 80 60 00
        E 180 90 60 60
        E 60 80 60 00
        E 420 80 74 00
        E 0 90 60 60
        E 0 90 63 60
        E 60 80 60 00
        E 0 80 63 00
        E 180 90 60 60
        E 60 80 60 00
        E 180 90 60 60
        E 60 80 60 00
        E 180 90 60 60
        E 60 80 60 00
        E 180 90 60 60
        E 0 90 61 60
        E 0 90 63 60
        E 60 80 60 00
        E 0 80 61 00
        E 0 80 63 00
        E 180 90 60 60
        E 60 80 60 00
        E 180 90 60 60
        E 60 80 60 00
        E 180 90 60 60
        E 60 80 60 00
        E 180 90 60 60
        E 0 90 62 60
        E 0 90 63 60
        E 60 80 60 00
        E 0 80 62 00
        E 0 80 63 00
        E 420 90 60 60
        E 60 80 60 00
        E 420 90 61 60
        E 0 90 64 60
        E 60 80 61 00
        E 0 80 64 00
        E 180 90 60 60
        E 60 80 60 00
        E 420 90 60 60
        E 60 80 60 00
        E 180 90 64 60
        E 60 80 64 00
        E 180 90 60 60
        E 60 80 60 00
        E 180 90 60 60
        E 60 80 60 00
        E 420 90 61 60
        E 0 90 64 60
        E 60 80 61 00
        E 0 80 64 00
        E 420 90 60 60
        E 60 80 60 00
        E 180 90 60 60
        E 60 80 60 00
        E 180 90 64 60
        E 60 80 64 00
        E 180 90 60 60
        E 60 80 60 00
        E 420 90 60 60
        E 60 80 60 00
        E 180 90 61 60
        E 0 90 64 60
        E 60 80 61 00
        E 0 80 64 00
        E 420 90 60 60
        E 60 80 60 00
        E 180 90 60 60
        E 60 80 60 00
        E 180 90 61 60
        E 0 90 63 60
        E 60 80 61 00
        E 0 80 63 00
        E 660 90 60 60
        E 60 80 60 00
        E 60 90 60 60
        E 60 80 60 00
        E 60 90 61 60
        E 0 90 63 60
        E 60 80 61 00
        E 0 80 63 00
        E 420 90 61 60
        E 60 80 61 00
        E 60 90 61 60
        E 60 80 61 00
        E 60 90 61 60
        E 60 80 61 00
        E 60 90 61 60
        E 60 80 61 00
        E 60 90 61 60
        E 60 80 61 00
        E 60 90 61 60
        E 60 80 61 00
        E 60 90 62 60
        E 0 90 6e 60
        E 60 80 62 00
        E 0 80 6e 00
        E 60 90 62 60
        E 0 90 6e 60
        E 60 80 62 00
        E 0 80 6e 00
        E 60 90 62 60
        E 0 90 6e 60
        E 60 80 62 00
        E 0 80 6e 00
        E 60 90 62 60
        E 0 90 6e 60
        E 60 80 62 00
        E 0 80 6e 00
        E 60 90 62 60
        E 0 90 6e 60
        E 60 80 62 00
        E 0 80 6e 00
        E 60 90 62 60
        E 0 90 6e 60
        E 60 80 62 00
        E 0 80 6e 00
        E 60 90 63 60
        E 0 90 6f 60
        E 60 80 63 00
        E 0 80 6f 00
        E 60 90 63 60
        E 0 90 6f 60
        E 60 80 63 00
        E 0 80 6f 00
        E 60 90 63 60
        E 0 90 6f 60
        E 60 80 63 00
        E 0 80 6f 00
        E 60 90 63 60
        E 0 90 6f 60
        E 60 80 63 00
        E 0 80 6f 00
        E 60 90 64 60
        E 0 90 70 60
        E 60 80 64 00
        E 0 80 70 00
        E 60 90 64 60
        E 0 90 70 60
        E 60 80 64 00
        E 0 80 70 00
        E 60 90 64 60
        E 0 90 70 60
        E 60 80 64 00
        E 0 80 70 00
        E 60 90 64 60
        E 0 90 70 60
        E 60 80 64 00
        E 0 80 70 00
        E 60 90 60 60
        E 0 90 63 60
        E 60 80 60 00
        E 0 80 63 00
        E 1860 90 60 60
        E 0 90 63 60
        E 60 80 60 00
        E 0 80 63 00
        E 180 90 60 60
        E 60 80 60 00
        E 180 90 60 60
        E 60 80 60 00
        E 420 90 63 60
        E 60 80 63 00
        E 180 90 60 60
        E 60 80 60 00
        E 60 90 60 60
        E 60 80 60 00
        E 60 90 60 60
        E 60 80 60 00
        E 60 90 60 60
        E 60 80 60 00
        E 60 90 60 60
        E 60 80 60 00
        E 180 90 61 60
        E 0 90 63 60
        E 60 80 61 00
        E 0 80 63 00
        E 420 90 60 60
        E 60 80 60 00
        E 60 90 60 60
        E 60 80 60 00
        E 60 90 60 60
        E 60 80 60 00
        E 60 90 60 60
        E 60 80 60 00
        E 60 90 60 60
        E 0 90 63 60
        E 60 80 60 00
        E 0 80 63 00
        E 660 90 60 60
        E 60 80 60 00
        E 60 90 60 60
        E 60 80 60 00
        E 60 90 60 60
        E 0 90 63 60
        E 60 80 60 00
        E 0 80 63 00
        E 60 90 60 60
        E 60 80 60 00
        E 60 90 60 60
        E 60 80 60 00
        E 420 90 61 7f
        E 60 80 61 00
        E 180 90 60 60
        E 0 90 63 60
        E 60 80 60 00
        E 0 80 63 00
        E 60 90 60 60
        E 60 80 60 00
        E 60 90 60 60
        E 60 80 60 00
        E 60 90 60 60
        E 60 80 60 00
        E 60 90 60 60
        E 60 80 60 00
        E 420 90 61 60
        E 0 90 63 60
        E 60 80 61 00
        E 0 80 63 00
        E 420 90 60 60
        E 60 80 60 00
        E 60 90 60 60
        E 60 80 60 00
        E 60 90 60 60
        E 60 80 60 00
        E 60 90 60 60
        E 60 80 60 00
        E 60 90 60 60
        E 0 90 63 60
        E 60 80 60 00
        E 0 80 63 00
        E 180 90 60 60
        E 60 80 60 00
        E 180 90 60 60
        E 60 80 60 00
        E 180 90 60 60
        E 60 80 60 00
        E 180 90 60 60
        E 0 90 63 60
        E 60 80 60 00
        E 0 80 63 00
        E 60 90 60 60
        E 60 80 60 00
        E 60 90 60 60
        E 60 80 60 00
        E 60 90 60 7f
        E 60 80 60 00
        E 60 90 60 60
        E 60 80 60 00
        E 180 90 61 7f
        E 60 80 61 00
        E 180 90 63 60
        E 60 80 63 00
        E 180 90 60 60
        E 60 80 60 00
        E 60 90 60 60
        E 60 80 60 00
        E 60 90 60 60
        E 60 80 60 00
        E 60 90 60 60
        E 60 80 60 00
        E 60 90 60 60
        E 60 80 60 00
        E 180 90 61 60
        E 0 90 63 60
        E 60 80 61 00
        E 0 80 63 00
        E 420 90 60 60
        E 60 80 60 00
        E 60 90 60 60
        E 60 80 60 00
        E 60 90 60 60
        E 60 80 60 00
        E 60 90 60 60
        E 60 80 60 00
        E 60 90 60 60
        E 0 90 63 60
        E 60 80 60 00
        E 0 80 63 00
        E 420 90 60 60
        E 60 80 60 00
        E 420 90 60 60
        E 0 90 63 7f
        E 60 80 60 00
        E 0 80 63 00
        E 100 90 60 60
        E 80 80 60 00
        E 80 90 60 60
        E 80 80 60 00
        E 80 90 60 60
        E 80 80 60 00
        E 80 90 60 60
        E 80 80 60 00
        E 80 90 60 60
        E 80 80 60 00
        E 80 90 60 60
        E 0 90 63 7f
        E 60 80 60 00
        E 0 80 63 00
        E 99 90 60 60
        E 80 80 60 00
        E 81 90 60 60
        E 80 80 60 00
        E 80 90 60 60
        E 80 80 60 00
        E 79 90 60 60
        E 80 80 60 00
        E 81 90 60 60
        E 80 80 60 00
        E 80 90 60 60
        E 0 90 61 60
        E 0 90 63 7f
        E 60 80 60 00
        E 0 80 61 00
        E 0 80 63 00
        E 99 90 60 60
        E 80 80 60 00
        E 81 90 60 60
        E 80 80 60 00
        E 80 90 60 60
        E 80 80 60 00
        E 79 90 60 60
        E 80 80 60 00
        E 81 90 60 60
        E 80 80 60 00
        E 80 90 60 60
        E 0 90 63 60
        E 60 80 60 00
        E 0 80 63 00
        E 99 90 60 60
        E 80 80 60 00
        E 81 90 60 60
        E 80 80 60 00
        E 80 90 60 60
        E 80 80 60 00
        E 400 90 60 60
        E 0 90 63 60
        E 0 90 74 60
        E 60 80 60 00
        E 0 80 63 00
        E 180 90 60 60
        E 60 80 60 00
        E 180 90 60 60
        E 60 80 60 00
        E 180 90 61 7f
        E 60 80 61 00
        E 180 90 63 60
        E 60 80 63 00
        E 180 90 60 60
        E 60 80 60 00
        E 60 90 60 60
        E 60 80 60 00
        E 60 90 60 60
        E 60 80 60 00
        E 60 90 60 60
        E 60 80 60 00
        E 60 90 60 60
        E 60 80 60 00
        E 180 80 74 00
        E 0 90 61 60
        E 0 90 63 60
        E 60 80 61 00
        E 0 80 63 00
        E 420 90 60 60
        E 60 80 60 00
        E 60 90 60 60
        E 60 80 60 00
        E 60 90 60 60
        E 60 80 60 00
        E 60 90 60 60
        E 60 80 60 00
        E 60 90 60 60
        E 0 90 63 60
        E 60 80 60 00
        E 0 80 63 00
        E 660 90 60 60
        E 60 80 60 00
        E 60 90 60 60
        E 60 80 60 00
        E 60 90 60 60
        E 0 90 63 60
        E 60 80 60 00
        E 0 80 63 00
        E 60 90 60 60
        E 60 80 60 00
        E 60 90 60 60
        E 60 80 60 00
        E 420 90 61 7f
        E 60 80 61 00
        E 180 90 60 60
        E 0 90 63 60
        E 60 80 60 00
        E 0 80 63 00
        E 60 90 60 60
        E 60 80 60 00
        E 60 90 60 60
        E 60 80 60 00
        E 60 90 60 60
        E 60 80 60 00
        E 60 90 60 60
        E 60 80 60 00
        E 420 90 61 60
        E 0 90 63 60
        E 60 80 61 00
        E 0 80 63 00
        E 420 90 60 60
        E 60 80 60 00
        E 60 90 60 60
        E 60 80 60 00
        E 60 90 60 60
        E 60 80 60 00
        E 60 90 60 60
        E 60 80 60 00
        E 60 90 60 60
        E 0 90 63 60
        E 60 80 60 00
        E 0 80 63 00
        E 180 90 60 60
        E 60 80 60 00
        E 180 90 60 60
        E 60 80 60 00
        E 180 90 60 60
        E 60 80 60 00
        E 180 90 60 60
        E 0 90 63 60
        E 60 80 60 00
        E 0 80 63 00
        E 60 90 60 60
        E 60 80 60 00
        E 60 90 60 60
        E 60 80 60 00
        E 60 90 60 7f
        E 60 80 60 00
        E 60 90 60 60
        E 60 80 60 00
        E 180 90 61 7f
        E 60 80 61 00
        E 180 90 63 60
        E 60 80 63 00
        E 180 90 60 60
        E 60 80 60 00
        E 60 90 60 60
        E 60 80 60 00
        E 60 90 60 60
        E 60 80 60 00
        E 60 90 60 60
        E 60 80 60 00
        E 60 90 60 60
        E 60 80 60 00
        E 180 90 61 60
        E 0 90 63 60
        E 60 80 61 00
        E 0 80 63 00
        E 420 90 60 60
        E 60 80 60 00
        E 60 90 60 60
        E 60 80 60 00
        E 60 90 60 60
        E 60 80 60 00
        E 60 90 60 60
        E 60 80 60 00
        E 60 90 60 60
        E 0 90 63 60
        E 60 80 60 00
        E 0 80 63 00
        E 420 90 60 60
        E 60 80 60 00
        E 420 90 60 60
        E 0 90 63 7f
        E 60 80 60 00
        E 0 80 63 00
        E 100 90 60 60
        E 80 80 60 00
        E 80 90 60 60
        E 80 80 60 00
        E 80 90 60 60
        E 80 80 60 00
        E 80 90 60 60
        E 80 80 60 00
        E 80 90 60 60
        E 80 80 60 00
        E 80 90 60 60
        E 0 90 63 7f
        E 60 80 60 00
        E 0 80 63 00
        E 99 90 60 60
        E 80 80 60 00
        E 81 90 60 60
        E 80 80 60 00
        E 80 90 61 60
        E 60 80 61 00
        E 2340 90 60 60
        E 0 90 62 60
        E 0 90 63 60
        E 60 80 60 00
        E 0 80 62 00
        E 0 80 63 00
        E 660 90 60 60
        E 60 80 60 00
        E 180 90 61 60
        E 0 90 64 60
        E 60 80 61 00
        E 0 80 64 00
        E 180 90 60 60
        E 60 80 60 00
        E 660 90 60 60
        E 0 90 64 60
        E 60 80 60 00
        E 0 80 64 00
        E 660 90 60 60
        E 60 80 60 00
        E 180 90 61 60
        E 0 90 64 60
        E 60 80 61 00
        E 0 80 64 00
        E 180 90 60 60
        E 60 80 60 00
        E 420 90 60 60
        E 60 80 60 00
        E 60 90 60 60
        E 60 80 60 00
        E 60 90 60 60
        E 0 90 64 60
        E 60 80 60 00
        E 0 80 64 00
        E 180 90 60 60
        E 60 80 60 00
        E 180 90 60 60
        E 60 80 60 00
        E 180 90 60 60
        E 60 80 60 00
        E 180 90 61 60
        E 0 90 64 60
        E 60 80 61 00
        E 0 80 64 00
        E 180 90 60 60
        E 60 80 60 00
        E 420 90 61 60
        E 60 80 61 00
        E 180 90 60 60
        E 0 90 64 60
        E 60 80 60 00
        E 0 80 64 00
        E 180 90 61 60
        E 60 80 61 00
        E 180 90 61 60
        E 60 80 61 00
        E 180 90 60 60
        E 60 80 60 00
        E 180 90 61 60
        E 0 90 64 60
        E 60 80 61 00
        E 0 80 64 00
        E 180 90 60 60
        E 60 80 60 00
        E 60 90 60 60
        E 60 80 60 00
        E 60 90 60 60
        E 60 80 60 00
        E 180 90 60 60
        E 0 90 62 60
        E 60 80 60 00
        E 0 80 62 00
        E 180 90 60 60
        E 0 90 63 60
        E 60 80 60 00
        E 0 80 63 00
        E 660 90 60 60
        E 60 80 60 00
        E 180 90 61 60
        E 0 90 64 60
        E 60 80 61 00
        E 0 80 64 00
        E 180 90 60 60
        E 60 80 60 00
        E 660 90 60 60
        E 0 90 64 60
        E 60 80 60 00
        E 0 80 64 00
        E 660 90 60 60
        E 60 80 60 00
        E 180 90 61 60
        E 0 90 64 60
        E 60 80 61 00
        E 0 80 64 00
        E 180 90 60 60
        E 60 80 60 00
        E 420 90 60 60
        E 60 80 60 00
        E 60 90 60 60
        E 60 80 60 00
        E 60 90 60 60
        E 0 90 64 60
        E 60 80 60 00
        E 0 80 64 00
        E 180 90 60 60
        E 60 80 60 00
        E 180 90 60 60
        E 60 80 60 00
        E 180 90 60 60
        E 60 80 60 00
        E 180 90 61 60
        E 0 90 64 60
        E 60 80 61 00
        E 0 80 64 00
        E 180 90 60 60
        E 60 80 60 00
        E 180 90 61 60
        E 60 80 61 00
        E 180 90 61 60
        E 60 80 61 00
        E 180 90 60 60
        E 0 90 63 60
        E 60 80 60 00
        E 0 80 63 00
        E 180 90 60 60
        E 60 80 60 00
        E 420 90 60 60
        E 60 80 60 00
        E 180 90 61 60
        E 0 90 63 60
        E 60 80 61 00
        E 0 80 63 00
        E 180 90 60 60
        E 60 80 60 00
        E 300 90 60 60
        E 60 80 60 00
        E 60 90 60 60
        E 60 80 60 00
        E 60 90 60 60
        E 60 80 60 00
        E 60 90 60 60
        E 0 90 62 60
        E 0 90 63 60
        E 0 90 74 60
        E 60 80 60 00
        E 0 80 62 00
        E 0 80 63 00
        E 660 90 60 60
        E 60 80 60 00
        E 180 90 61 60
        E 0 90 63 60
        E 60 80 61 00
        E 0 80 63 00
        E 180 90 60 60
        E 60 80 60 00
        E 180 90 61 60
        E 60 80 61 00
        E 180 90 61 60
        E 60 80 61 00
        E 180 80 74 00
        E 0 90 60 60
        E 0 90 63 60
        E 60 80 60 00
        E 0 80 63 00
        E 180 90 61 60
        E 60 80 61 00
        E 180 90 61 60
        E 60 80 61 00
        E 180 90 60 60
        E 60 80 60 00
        E 180 90 61 60
        E 0 90 63 60
        E 60 80 61 00
        E 0 80 63 00
        E 660 90 60 60
        E 0 90 64 60
        E 60 80 60 00
        E 0 80 64 00
        E 180 90 63 60
        E 60 80 63 00
        E 180 90 60 60
        E 60 80 60 00
        E 180 90 60 60
        E 60 80 60 00
        E 420 90 61 60
        E 0 90 63 60
        E 60 80 61 00
        E 0 80 63 00
        E 420 90 60 60
        E 60 80 60 00
        E 180 90 61 60
        E 60 80 61 00
        E 180 90 60 60
        E 0 90 63 60
        E 60 80 60 00
        E 0 80 63 00
        E 180 90 61 60
        E 60 80 61 00
        E 180 90 61 60
        E 60 80 61 00
        E 180 90 60 60
        E 60 80 60 00
        E 180 90 61 60
        E 0 90 63 60
        E 60 80 61 00
        E 0 80 63 00
        E 180 90 60 60
        E 60 80 60 00
        E 180 90 64 60
        E 0 90 70 60
        E 60 80 64 00
        E 0 80 70 00
        E 180 90 60 60
        E 60 80 60 00
        E 60 90 60 60
        E 60 80 60 00
        E 60 90 60 60
        E 0 90 62 60
        E 0 90 63 60
        E 60 80 60 00
        E 0 80 62 00
        E 0 80 63 00
        E 660 90 60 60
        E 60 80 60 00
        E 180 90 61 60
        E 0 90 63 60
        E 60 80 61 00
        E 0 80 63 00
        E 180 90 60 60
        E 60 80 60 00
        E 180 90 61 60
        E 60 80 61 00
        E 180 90 61 60
        E 60 80 61 00
        E 180 90 60 60
        E 0 90 63 60
        E 60 80 60 00
        E 0 80 63 00
        E 180 90 61 60
        E 60 80 61 00
        E 180 90 61 60
        E 60 80 61 00
        E 180 90 60 60
        E 60 80 60 00
        E 180 90 61 60
        E 0 90 63 60
        E 60 80 61 00
        E 0 80 63 00
        E 180 90 60 60
        E 60 80 60 00
        E 420 90 60 60
        E 60 80 60 00
        E 60 90 60 60
        E 60 80 60 00
        E 60 90 60 60
        E 0 90 63 60
        E 60 80 60 00
        E 0 80 63 00
        E 180 90 60 60
        E 60 80 60 00
        E 180 90 60 60
        E 60 80 60 00
        E 180 90 60 60
        E 60 80 60 00
        E 180 90 61 60
        E 0 90 63 60
        E 60 80 61 00
        E 0 80 63 00
        E 180 90 60 60
        E 60 80 60 00
        E 180 90 61 60
        E 60 80 61 00
        E 180 90 61 60
        E 60 80 61 00
        E 500 90 60 60
        E 0 90 63 60
        E 80 80 60 00
        E 0 80 63 00
        E 240 90 60 60
        E 0 90 64 60
        E 80 80 60 00
        E 0 80 64 00
        E 240 90 60 60
        E 0 90 63 60
        E 80 80 60 00
        E 0 80 63 00
        E 240 90 60 60
        E 80 80 60 00
        E 240 90 60 60
        E 80 80 60 00
        E 240 90 60 60
        E 0 90 64 60
        E 80 80 60 00
        E 0 80 64 00
        E 400 90 60 60
        E 60 80 60 00
        E 180 90 60 60
        E 60 80 60 00
        E 180 90 63 60
        E 60 80 63 00
        E 180 90 62 60
        E 60 80 62 00
        E 180 90 62 60
        E 60 80 62 00
        E 180 90 63 60
        E 60 80 63 00
        E 180 90 60 60
        E 0 90 62 60
        E 60 80 60 00
        E 0 80 62 00
        E 180 90 60 60
        E 0 90 64 60
        E 60 80 60 00
        E 0 80 64 00
        E 180 90 62 60
        E 60 80 62 00
        E 180 90 62 60
        E 60 80 62 00
        E 180 90 63 60
        E 60 80 63 00
        E 180 90 62 60
        E 60 80 62 00
        E 180 90 62 60
        E 60 80 62 00
        E 180 90 62 60
        E 60 80 62 00
        E 180 90 62 60
        E 60 80 62 00
        E 180 90 61 60
        E 60 80 61 00
        E 180 90 61 60
        E 60 80 61 00
        E 180 90 61 60
        E 60 80 61 00
        E 180 90 60 60
        E 0 90 64 60
        E 60 80 60 00
        E 0 80 64 00
        E 420 90 60 60
        E 0 90 62 60
        E 60 80 60 00
        E 0 80 62 00
        E 180 90 60 60
        E 0 90 62 60
        E 60 80 60 00
        E 0 80 62 00
        E 180 90 63 60
        E 0 90 66 60
        E 60 80 63 00
        E 0 80 66 00
        E 180 90 62 60
        E 60 80 62 00
        E 180 90 62 60
        E 60 80 62 00
        E 180 90 63 60
        E 60 80 63 00
        E 180 90 60 60
        E 0 90 62 60
        E 60 80 60 00
        E 0 80 62 00
        E 180 90 60 60
        E 0 90 64 60
        E 60 80 60 00
        E 0 80 64 00
        E 180 90 62 60
        E 60 80 62 00
        E 180 90 62 60
        E 60 80 62 00
        E 180 90 62 60
        E 60 80 62 00
        E 180 90 63 60
        E 60 80 63 00
        E 180 90 61 60
        E 60 80 61 00
        E 180 90 62 60
        E 60 80 62 00
        E 180 90 62 60
        E 60 80 62 00
        E 180 90 61 60
        E 60 80 61 00
        E 180 90 61 60
        E 60 80 61 00
        E 180 90 61 60
        E 60 80 61 00
        E 180 90 60 60
        E 0 90 63 60
        E 60 80 60 00
        E 0 80 63 00
        E 420 90 60 60
        E 60 80 60 00
        E 420 90 61 60
        E 0 90 64 60
        E 60 80 61 00
        E 0 80 64 00
        E 180 90 60 60
        E 60 80 60 00
        E 420 90 60 60
        E 60 80 60 00
        E 180 90 64 60
        E 60 80 64 00
        E 180 90 60 60
        E 60 80 60 00
        E 180 90 60 60
        E 60 80 60 00
        E 420 90 61 60
        E 0 90 64 60
        E 60 80 61 00
        E 0 80 64 00
        E 420 90 60 60
        E 60 80 60 00
        E 180 90 60 60
        E 60 80 60 00
        E 180 90 64 60
        E 0 90 74 60
        E 60 80 64 00
        E 180 90 60 60
        E 60 80 60 00
        E 420 90 60 60
        E 60 80 60 00
        E 180 90 61 60
        E 0 90 64 60
        E 60 80 61 00
        E 0 80 64 00
        E 420 90 60 60
        E 60 80 60 00
        E 180 90 60 60
        E 60 80 60 00
        E 180 80 74 00
        E 0 90 60 60
        E 0 90 64 60
        E 60 80 60 00
        E 0 80 64 00
        E 180 90 60 60
        E 60 80 60 00
        E 180 90 60 60
        E 60 80 60 00
        E 180 90 60 60
        E 60 80 60 00
        E 180 90 60 60
        E 0 90 61 60
        E 0 90 64 60
        E 60 80 60 00
        E 0 80 61 00
        E 0 80 64 00
        E 180 90 60 60
        E 60 80 60 00
        E 180 90 60 60
        E 60 80 60 00
        E 420 90 60 60
        E 0 90 63 60
        E 60 80 60 00
        E 0 80 63 00
        E 180 90 60 60
        E 60 80 60 00
        E 180 90 60 60
        E 60 80 60 00
        E 180 90 60 60
        E 60 80 60 00
        E 180 90 60 60
        E 0 90 61 60
        E 0 90 63 60
        E 60 80 60 00
        E 0 80 61 00
        E 0 80 63 00
        E 180 90 60 60
        E 60 80 60 00
        E 180 90 60 60
        E 60 80 60 00
        E 180 90 60 60
        E 60 80 60 00
        E 180 90 60 60
        E 0 90 62 60
        E 0 90 63 60
        E 60 80 60 00
        E 0 80 62 00
        E 0 80 63 00
        E 420 90 60 60
        E 60 80 60 00
        E 420 90 61 60
        E 0 90 64 60
        E 60 80 61 00
        E 0 80 64 00
        E 180 90 60 60
        E 60 80 60 00
        E 420 90 60 60
        E 60 80 60 00
        E 180 90 64 60
        E 60 80 64 00
        E 180 90 60 60
        E 60 80 60 00
        E 180 90 60 60
        E 60 80 60 00
        E 420 90 61 60
        E 0 90 64 60
        E 60 80 61 00
        E 0 80 64 00
        E 420 90 60 60
        E 60 80 60 00
        E 180 90 60 60
        E 60 80 60 00
        E 180 90 64 60
        E 60 80 64 00
        E 180 90 60 60
        E 60 80 60 00
        E 420 90 60 60
        E 60 80 60 00
        E 180 90 61 60
        E 0 90 64 60
        E 60 80 61 00
        E 0 80 64 00
        E 420 90 60 60
        E 60 80 60 00
        E 60 90 60 60
        E 60 80 60 00
        E 60 90 60 60
        E 60 80 60 00
        E 60 90 60 60
        E 60 80 60 00
        E 60 90 61 60
        E 0 90 63 60
        E 60 80 61 00
        E 0 80 63 00
        E 420 90 64 60
        E 60 80 64 00
        E 180 90 60 60
        E 60 80 60 00
        E 60 90 60 60
        E 60 80 60 00
        E 60 90 61 60
        E 0 90 63 60
        E 60 80 61 00
        E 0 80 63 00
        E 420 90 61 7f
        E 60 80 61 00
        E 60 90 61 7f
        E 60 80 61 00
        E 60 90 61 7f
        E 60 80 61 00
        E 60 90 61 7f
        E 60 80 61 00
        E 60 90 61 7f
        E 60 80 61 00
        E 60 90 61 7f
        E 60 80 61 00
        E 60 90 62 7f
        E 0 90 6e 7f
        E 60 80 62 00
        E 0 80 6e 00
        E 60 90 62 7f
        E 0 90 6e 7f
        E 60 80 62 00
        E 0 80 6e 00
        E 60 90 62 7f
        E 0 90 6e 7f
        E 60 80 62 00
        E 0 80 6e 00
        E 60 90 62 7f
        E 0 90 6e 7f
        E 60 80 62 00
        E 0 80 6e 00
        E 60 90 61 7f
        E 60 80 61 00
        E 60 90 61 7f
        E 60 80 61 00
        E 60 90 61 7f
        E 60 80 61 00
        E 60 90 61 7f
        E 60 80 61 00
        E 60 90 63 7f
        E 0 90 6f 7f
        E 60 80 63 00
        E 0 80 6f 00
        E 60 90 63 7f
        E 0 90 6f 7f
        E 60 80 63 00
        E 0 80 6f 00
        E 60 90 63 7f
        E 0 90 6f 7f
        E 60 80 63 00
        E 0 80 6f 00
        E 60 90 63 7f
        E 0 90 6f 7f
        E 60 80 63 00
        E 0 80 6f 00
        E 60 90 64 7f
        E 0 90 70 7f
        E 60 80 64 00
        E 0 80 70 00
        E 60 90 64 7f
        E 0 90 70 7f
        E 60 80 64 00
        E 0 80 70 00
        E 60 90 60 60
        E 0 90 63 60
        E 60 80 60 00
        E 0 80 63 00
        E 420 90 60 60
        E 60 80 60 00
        E 420 90 61 60
        E 0 90 64 60
        E 60 80 61 00
        E 0 80 64 00
        E 180 90 60 60
        E 60 80 60 00
        E 420 90 60 60
        E 60 80 60 00
        E 180 90 64 60
        E 60 80 64 00
        E 180 90 60 60
        E 60 80 60 00
        E 180 90 60 60
        E 60 80 60 00
        E 420 90 61 60
        E 0 90 64 60
        E 60 80 61 00
        E 0 80 64 00
        E 420 90 60 60
        E 60 80 60 00
        E 180 90 60 60
        E 60 80 60 00
        E 180 90 64 60
        E 60 80 64 00
        E 180 90 60 60
        E 60 80 60 00
        E 420 90 60 60
        E 60 80 60 00
        E 180 90 61 60
        E 0 90 64 60
        E 60 80 61 00
        E 0 80 64 00
        E 420 90 60 60
        E 60 80 60 00
        E 180 90 60 60
        E 60 80 60 00
        E 180 90 60 60
        E 0 90 64 60
        E 60 80 60 00
        E 0 80 64 00
        E 180 90 60 60
        E 60 80 60 00
        E 180 90 60 60
        E 60 80 60 00
        E 180 90 60 60
        E 60 80 60 00
        E 180 90 60 60
        E 0 90 61 60
        E 0 90 64 60
        E 60 80 60 00
        E 0 80 61 00
        E 0 80 64 00
        E 180 90 60 60
        E 60 80 60 00
        E 180 90 60 60
        E 60 80 60 00
        E 420 90 60 60
        E 0 90 63 60
        E 60 80 60 00
        E 0 80 63 00
        E 180 90 60 60
        E 60 80 60 00
        E 180 90 60 60
        E 60 80 60 00
        E 180 90 60 60
        E 60 80 60 00
        E 180 90 60 60
        E 0 90 61 60
        E 0 90 63 60
        E 60 80 60 00
        E 0 80 61 00
        E 0 80 63 00
        E 180 90 60 60
        E 60 80 60 00
        E 180 90 60 60
        E 60 80 60 00
        E 180 90 60 60
        E 60 80 60 00
        E 180 90 60 60
        E 0 90 62 60
        E 0 90 63 60
        E 60 80 60 00
        E 0 80 62 00
        E 0 80 63 00
        E 420 90 60 60
        E 60 80 60 00
        E 420 90 61 60
        E 0 90 64 60
        E 60 80 61 00
        E 0 80 64 00
        E 180 90 60 60
        E 60 80 60 00
        E 420 90 60 60
        E 60 80 60 00
        E 180 90 64 60
        E 60 80 64 00
        E 180 90 60 60
        E 60 80 60 00
        E 180 90 60 60
        E 60 80 60 00
        E 420 90 61 60
        E 0 90 64 60
        E 60 80 61 00
        E 0 80 64 00
        E 420 90 60 60
        E 60 80 60 00
        E 180 90 60 60
        E 60 80 60 00
        E 180 90 64 60
        E 60 80 64 00
        E 180 90 60 60
        E 60 80 60 00
        E 420 90 60 60
        E 60 80 60 00
        E 180 90 61 60
        E 0 90 64 60
        E 60 80 61 00
        E 0 80 64 00
        E 420 90 60 60
        E 60 80 60 00
        E 60 90 60 60
        E 60 80 60 00
        E 60 90 60 60
        E 60 80 60 00
        E 60 90 60 60
        E 60 80 60 00
        E 60 90 61 60
        E 0 90 63 60
        E 60 80 61 00
        E 0 80 63 00
        E 660 90 60 60
        E 60 80 60 00
        E 60 90 60 60
        E 60 80 60 00
        E 60 90 61 60
        E 0 90 63 60
        E 60 80 61 00
        E 0 80 63 00
        E 660 90 60 60
        E 60 80 60 00
        E 180 90 61 60
        E 0 90 62 60
        E 0 90 6e 60
        E 60 80 61 00
        E 0 80 62 00
        E 0 80 6e 00
        E 180 90 60 60
        E 60 80 60 00
        E 420 90 60 60
        E 60 80 60 00
        E 180 90 61 60
        E 0 90 62 60
        E 0 90 6e 60
        E 60 80 61 00
        E 0 80 62 00
        E 0 80 6e 00
        E 180 90 60 60
        E 60 80 60 00
        E 180 90 61 60
        E 0 90 62 60
        E 0 90 6e 60
        E 60 80 61 00
        E 0 80 62 00
        E 0 80 6e 00
        E 420 90 60 60
        E 0 90 63 60
        E 0 90 64 60
        E 0 90 74 60
        E 60 80 60 00
        E 0 80 63 00
        E 0 80 64 00
        E 660 90 60 60
        E 60 80 60 00
        E 180 90 63 60
        E 60 80 63 00
        E 180 90 60 60
        E 60 80 60 00
        E 180 90 61 60
        E 60 80 61 00
        E 420 80 74 00
        E 0 90 61 60
        E 0 90 63 60
        E 60 80 61 00
        E 0 80 63 00
        E 180 90 60 60
        E 60 80 60 00
        E 660 90 60 60
        E 0 90 63 60
        E 60 80 60 00
        E 0 80 63 00
        E 180 90 60 60
        E 60 80 60 00
        E 420 90 60 60
        E 60 80 60 00
        E 60 90 60 60
        E 60 80 60 00
        E 60 90 60 60
        E 0 90 63 60
        E 60 80 60 00
        E 0 80 63 00
        E 180 90 60 60
        E 60 80 60 00
        E 180 90 60 60
        E 60 80 60 00
        E 420 90 60 60
        E 0 90 63 60
        E 60 80 60 00
        E 0 80 63 00
        E 180 90 60 60
        E 60 80 60 00
        E 420 90 60 60
        E 60 80 60 00
        E 180 90 61 60
        E 0 90 62 60
        E 60 80 61 00
        E 0 80 62 00
        E 180 90 60 60
        E 60 80 60 00
        E 420 90 60 60
        E 60 80 60 00
        E 180 90 61 60
        E 0 90 63 60
        E 60 80 61 00
        E 0 80 63 00
        E 180 90 60 60
        E 60 80 60 00
        E 420 90 61 60
        E 60 80 61 00
        E 180 90 60 60
        E 0 90 63 60
        E 60 80 60 00
        E 0 80 63 00
        E 660 90 60 60
        E 60 80 60 00
        E 180 90 60 60
        E 0 90 63 60
        E 60 80 60 00
        E 0 80 63 00
        E 180 90 60 60
        E 60 80 60 00
        E 180 90 64 60
        E 60 80 64 00
        E 180 90 60 60
        E 60 80 60 00
        E 180 90 61 60
        E 0 90 63 60
        E 60 80 61 00
        E 0 80 63 00
        E 420 90 60 60
        E 60 80 60 00
        E 420 90 60 60
        E 0 90 63 60
        E 60 80 60 00
        E 0 80 63 00
        E 180 90 60 60
        E 60 80 60 00
        E 420 90 60 60
        E 60 80 60 00
        E 60 90 60 60
        E 60 80 60 00
        E 60 90 60 60
        E 0 90 63 60
        E 60 80 60 00
        E 0 80 63 00
        E 180 90 60 60
        E 60 80 60 00
        E 180 90 60 60
        E 60 80 60 00
        E 420 90 60 60
        E 0 90 63 60
        E 60 80 60 00
        E 0 80 63 00
        E 180 90 60 60
        E 60 80 60 00
        E 660 90 61 60
        E 60 80 61 00
        E 260 90 60 60
        E 0 90 63 60
        E 80 80 60 00
        E 0 80 63 00
        E 240 90 60 60
        E 0 90 64 60
        E 80 80 60 00
        E 0 80 64 00
        E 240 90 60 60
        E 0 90 63 60
        E 80 80 60 00
        E 0 80 63 00
        E 240 90 60 60
        E 0 90 64 60
        E 80 80 60 00
        E 0 80 64 00
        E 240 90 60 60
        E 0 90 62 60
        E 80 80 60 00
        E 0 80 62 00
        E 240 90 60 60
        E 0 90 63 60
        E 80 80 60 00
        E 0 80 63 00
        E 640 90 60 60
        E 60 80 60 00
        E 180 90 61 60
        E 0 90 63 60
        E 60 80 61 00
        E 0 80 63 00
        E 180 90 60 60
        E 60 80 60 00
        E 180 90 61 60
        E 60 80 61 00
        E 420 90 61 60
        E 0 90 63 60
        E 60 80 61 00
        E 0 80 63 00
        E 180 90 60 60
        E 60 80 60 00
        E 660 90 60 60
        E 0 90 63 60
        E 60 80 60 00
        E 0 80 63 00
        E 180 90 60 60
        E 60 80 60 00
        E 420 90 60 60
        E 60 80 60 00
        E 60 90 60 60
        E 60 80 60 00
        E 60 90 60 60
        E 0 90 63 60
        E 60 80 60 00
        E 0 80 63 00
        E 180 90 60 60
        E 60 80 60 00
        E 180 90 60 60
        E 60 80 60 00
        E 420 90 60 60
        E 0 90 63 60
        E 60 80 60 00
        E 0 80 63 00
        E 180 90 60 60
        E 60 80 60 00
        E 420 90 60 60
        E 60 80 60 00
        E 180 90 61 60
        E 0 90 62 60
        E 60 80 61 00
        E 0 80 62 00
        E 180 90 60 60
        E 60 80 60 00
        E 420 90 60 60
        E 60 80 60 00
        E 180 90 61 60
        E 0 90 63 60
        E 60 80 61 00
        E 0 80 63 00
        E 180 90 60 60
        E 60 80 60 00
        E 660 90 60 60
        E 0 90 63 60
        E 60 80 60 00
        E 0 80 63 00
        E 660 90 60 60
        E 0 90 63 60
        E 60 80 60 00
        E 0 80 63 00
        E 180 90 61 60
        E 60 80 61 00
        E 180 90 61 60
        E 60 80 61 00
        E 180 90 60 60
        E 60 80 60 00
        E 180 90 61 60
        E 60 80 61 00
        E 180 90 60 60
        E 0 90 64 60
        E 60 80 60 00
        E 0 80 64 00
        E 180 90 61 60
        E 60 80 61 00
        E 180 90 61 60
        E 60 80 61 00
        E 180 90 60 60
        E 0 90 63 60
        E 60 80 60 00
        E 0 80 63 00
        E 180 90 61 60
        E 60 80 61 00
        E 180 90 60 60
        E 60 80 60 00
        E 180 90 64 60
        E 0 90 70 60
        E 60 80 64 00
        E 0 80 70 00
        E 180 90 61 60
        E 60 80 61 00
        E 180 90 60 60
        E 0 90 63 60
        E 0 90 74 60
        E 60 80 60 00
        E 0 80 63 00
        E 180 90 61 60
        E 60 80 61 00
        E 180 90 61 60
        E 60 80 61 00
        E 180 90 60 60
        E 0 90 63 60
        E 60 80 60 00
        E 0 80 63 00
        E 180 90 61 60
        E 60 80 61 00
        E 420 90 60 60
        E 0 90 63 60
        E 60 80 60 00
        E 0 80 63 00
        E 420 80 74 00
        E 0 90 61 60
        E 60 80 61 00
        E 1860 90 60 60
        E 0 90 62 60
        E 0 90 63 60
        E 60 80 60 00
        E 0 80 62 00
        E 0 80 63 00
        E 180 90 60 60
        E 60 80 60 00
        E 180 90 60 60
        E 60 80 60 00
        E 180 90 61 60
        E 60 80 61 00
        E 180 90 63 60
        E 60 80 63 00
        E 180 90 60 60
        E 60 80 60 00
        E 60 90 60 60
        E 60 80 60 00
        E 60 90 60 60
        E 60 80 60 00
        E 60 90 60 60
        E 60 80 60 00
        E 60 90 60 60
        E 60 80 60 00
        E 180 90 61 60
        E 0 90 63 60
        E 60 80 61 00
        E 0 80 63 00
        E 420 90 60 60
        E 60 80 60 00
        E 60 90 60 60
        E 60 80 60 00
        E 60 90 60 60
        E 60 80 60 00
        E 60 90 60 60
        E 60 80 60 00
        E 60 90 60 60
        E 0 90 63 60
        E 60 80 60 00
        E 0 80 63 00
        E 660 90 60 60
        E 60 80 60 00
        E 60 90 60 60
        E 60 80 60 00
        E 60 90 60 60
        E 0 90 63 60
        E 60 80 60 00
        E 0 80 63 00
        E 60 90 60 60
        E 60 80 60 00
        E 60 90 60 60
        E 60 80 60 00
        E 420 90 61 7f
        E 60 80 61 00
        E 180 90 60 60
        E 0 90 63 60
        E 60 80 60 00
        E 0 80 63 00
        E 60 90 60 60
        E 60 80 60 00
        E 60 90 60 60
        E 60 80 60 00
        E 60 90 60 60
        E 60 80 60 00
        E 60 90 60 60
        E 60 80 60 00
        E 420 90 61 60
        E 0 90 63 60
        E 60 80 61 00
        E 0 80 63 00
        E 420 90 60 60
        E 60 80 60 00
        E 60 90 60 60
        E 60 80 60 00
        E 60 90 60 60
        E 60 80 60 00
        E 60 90 60 60
        E 60 80 60 00
        E 60 90 60 60
        E 0 90 63 60
        E 60 80 60 00
        E 0 80 63 00
        E 180 90 60 60
        E 60 80 60 00
        E 180 90 60 60
        E 60 80 60 00
        E 180 90 60 60
        E 60 80 60 00
        E 180 90 60 60
        E 0 90 63 60
        E 60 80 60 00
        E 0 80 63 00
        E 60 90 60 60
        E 60 80 60 00
        E 60 90 60 60
        E 60 80 60 00
        E 60 90 60 7f
        E 60 80 60 00
        E 60 90 60 60
        E 60 80 60 00
        E 180 90 61 7f
        E 60 80 61 00
        E 180 90 63 60
        E 60 80 63 00
        E 180 90 60 60
        E 60 80 60 00
        E 60 90 60 60
        E 60 80 60 00
        E 60 90 60 60
        E 60 80 60 00
        E 60 90 60 60
        E 60 80 60 00
        E 60 90 60 60
        E 60 80 60 00
        E 180 90 61 60
        E 0 90 63 60
        E 60 80 61 00
        E 0 80 63 00
        E 420 90 60 60
        E 60 80 60 00
        E 60 90 60 60
        E 60 80 60 00
        E 60 90 60 60
        E 60 80 60 00
        E 60 90 60 60
        E 60 80 60 00
        E 60 90 60 60
        E 0 90 63 60
        E 60 80 60 00
        E 0 80 63 00
        E 420 90 60 60
        E 60 80 60 00
        E 420 90 60 60
        E 0 90 63 7f
        E 60 80 60 00
        E 0 80 63 00
        E 100 90 60 60
        E 80 80 60 00
        E 80 90 60 60
        E 80 80 60 00
        E 80 90 60 60
        E 80 80 60 00
        E 80 90 60 60
        E 80 80 60 00
        E 80 90 60 60
        E 80 80 60 00
        E 80 90 60 60
        E 0 90 63 7f
        E 60 80 60 00
        E 0 80 63 00
        E 99 90 60 60
        E 80 80 60 00
        E 81 90 60 60
        E 80 80 60 00
        E 80 90 60 60
        E 80 80 60 00
        E 79 90 60 60
        E 80 80 60 00
        E 81 90 60 60
        E 80 80 60 00
        E 80 90 60 60
        E 0 90 61 60
        E 0 90 63 7f
        E 60 80 60 00
        E 0 80 61 00
        E 0 80 63 00
        E 99 90 60 60
        E 80 80 60 00
        E 81 90 60 60
        E 80 80 60 00
        E 80 90 60 60
        E 80 80 60 00
        E 79 90 60 60
        E 80 80 60 00
        E 81 90 60 60
        E 80 80 60 00
        E 80 90 60 60
        E 0 90 63 60
        E 60 80 60 00
        E 0 80 63 00
        E 99 90 60 60
        E 80 80 60 00
        E 81 90 60 60
        E 80 80 60 00
        E 80 90 60 60
        E 80 80 60 00
        E 400 90 60 60
        E 0 90 63 60
        E 60 80 60 00
        E 0 80 63 00
        E 180 90 60 60
        E 60 80 60 00
        E 180 90 60 60
        E 60 80 60 00
        E 180 90 61 7f
        E 60 80 61 00
        E 180 90 63 60
        E 60 80 63 00
        E 180 90 60 60
        E 60 80 60 00
        E 60 90 60 60
        E 60 80 60 00
        E 60 90 60 60
        E 60 80 60 00
        E 60 90 60 60
        E 60 80 60 00
        E 60 90 60 60
        E 60 80 60 00
        E 180 90 61 60
        E 0 90 63 60
        E 60 80 61 00
        E 0 80 63 00
        E 420 90 60 60
        E 60 80 60 00
        E 60 90 60 60
        E 60 80 60 00
        E 60 90 60 60
        E 60 80 60 00
        E 60 90 60 60
        E 60 80 60 00
        E 60 90 60 60
        E 0 90 63 60
        E 60 80 60 00
        E 0 80 63 00
        E 660 90 60 60
        E 60 80 60 00
        E 60 90 60 60
        E 60 80 60 00
        E 60 90 60 60
        E 0 90 63 60
        E 60 80 60 00
        E 0 80 63 00
        E 60 90 60 60
        E 60 80 60 00
        E 60 90 60 60
        E 60 80 60 00
        E 420 90 61 7f
        E 60 80 61 00
        E 180 90 60 60
        E 0 90 63 60
        E 60 80 60 00
        E 0 80 63 00
        E 60 90 60 60
        E 60 80 60 00
        E 60 90 60 60
        E 60 80 60 00
        E 60 90 60 60
        E 60 80 60 00
        E 60 90 60 60
        E 60 80 60 00
        E 420 90 61 60
        E 0 90 63 60
        E 60 80 61 00
        E 0 80 63 00
        E 420 90 60 60
        E 60 80 60 00
        E 60 90 60 60
        E 60 80 60 00
        E 60 90 60 60
        E 60 80 60 00
        E 60 90 60 60
        E 60 80 60 00
        E 60 90 60 60
        E 0 90 63 60
        E 60 80 60 00
        E 0 80 63 00
        E 180 90 60 60
        E 60 80 60 00
        E 180 90 60 60
        E 60 80 60 00
        E 180 90 60 60
        E 60 80 60 00
        E 180 90 60 60
        E 0 90 63 60
        E 60 80 60 00
        E 0 80 63 00
        E 60 90 60 60
        E 60 80 60 00
        E 60 90 60 60
        E 60 80 60 00
        E 60 90 60 7f
        E 60 80 60 00
        E 60 90 60 60
        E 60 80 60 00
        E 180 90 61 7f
        E 60 80 61 00
        E 180 90 63 60
        E 60 80 63 00
        E 180 90 60 60
        E 60 80 60 00
        E 60 90 60 60
        E 60 80 60 00
        E 60 90 60 60
        E 60 80 60 00
        E 60 90 60 60
        E 60 80 60 00
        E 60 90 60 60
        E 60 80 60 00
        E 180 90 61 60
        E 0 90 63 60
        E 60 80 61 00
        E 0 80 63 00
        E 420 90 60 60
        E 60 80 60 00
        E 60 90 60 60
        E 60 80 60 00
        E 60 90 60 60
        E 60 80 60 00
        E 60 90 60 60
        E 60 80 60 00
        E 60 90 60 60
        E 0 90 63 60
        E 60 80 60 00
        E 0 80 63 00
        E 420 90 60 60
        E 60 80 60 00
        E 420 90 60 60
        E 0 90 63 7f
        E 60 80 60 00
        E 0 80 63 00
        E 100 90 60 60
        E 80 80 60 00
        E 80 90 60 60
        E 80 80 60 00
        E 80 90 60 60
        E 80 80 60 00
        E 80 90 60 60
        E 80 80 60 00
        E 80 90 60 60
        E 80 80 60 00
        E 80 90 60 60
        E 0 90 63 7f
        E 60 80 60 00
        E 0 80 63 00
        E 99 90 60 60
        E 80 80 60 00
        E 81 90 60 60
        E 80 80 60 00
        E 80 90 60 60
        E 80 80 60 00
        E 79 90 60 60
        E 80 80 60 00
        E 81 90 60 60
        E 80 80 60 00
        E 80 90 61 60
        E 80 80 61 00
        E 80 90 61 60
        E 80 80 61 00
        E 80 90 61 60
        E 80 80 61 00
        E 80 90 61 60
        E 80 80 61 00
        E 80 90 62 60
        E 0 90 6e 60
        E 80 80 62 00
        E 0 80 6e 00
        E 80 90 62 60
        E 0 90 6e 60
        E 80 80 62 00
        E 0 80 6e 00
        E 80 90 63 60
        E 0 90 6f 60
        E 80 80 63 00
        E 0 80 6f 00
        E 80 90 63 60
        E 0 90 6f 60
        E 80 80 63 00
        E 0 80 6f 00
        E 80 90 63 60
        E 0 90 6f 60
        E 80 80 63 00
        E 0 80 6f 00
        E 80 90 63 60
        E 0 90 6f 60
        E 80 80 63 00
        E 0 80 6f 00
        E 80 90 64 60
        E 0 90 70 60
        E 80 80 64 00
        E 0 80 70 00
        E 80 90 64 60
        E 0 90 70 60
        E 80 80 64 00
        E 0 80 70 00
        E 80 90 60 60
        E 0 90 63 60
        E 0 90 74 60
        E 80 80 60 00
        E 0 80 63 00
        E 400 90 60 60
        E 0 90 64 60
        E 60 80 60 00
        E 0 80 64 00
        E 420 90 60 60
        E 0 90 63 60
        E 60 80 60 00
        E 0 80 63 00
        E 900 80 74 00
        E 0 90 61 60
        E 0 90 64 60
        E 60 80 61 00
        E 0 80 64 00
        E 900 90 64 60
        E 60 80 64 00
        E 420 90 60 60
        E 60 80 60 00
        E 420 90 64 60
        E 60 80 64 00
        E 420 90 60 60
        E 60 80 60 00
        E 420 90 64 60
        E 60 80 64 00
        E 420 90 60 60
        E 60 80 60 00
        E 420 90 61 7f
        E 0 90 64 7f
        E 60 80 61 00
        E 0 80 64 00
        E 420 90 60 7f
        E 60 80 60 00
        E 420 90 60 7f
        E 0 90 64 7f
        E 60 80 60 00
        E 0 80 64 00
        E 900 90 60 7f
        E 0 90 63 7f
        E 60 80 60 00
        E 0 80 63 00
        E 420 90 60 7f
        E 0 90 64 7f
        E 60 80 60 00
        E 0 80 64 00
        E 420 90 60 7f
        E 0 90 63 7f
        E 60 80 60 00
        E 0 80 63 00
        E 900 90 61 7f
        E 0 90 64 60
        E 60 80 61 00
        E 0 80 64 00
        E 900 90 64 60
        E 60 80 64 00
        E 420 90 60 60
        E 60 80 60 00
        E 420 90 64 60
        E 60 80 64 00
        E 420 90 60 60
        E 60 80 60 00
        E 420 90 60 60
        E 0 90 64 60
        E 60 80 60 00
        E 0 80 64 00
        E 900 90 61 60
        E 0 90 64 60
        E 60 80 61 00
        E 0 80 64 00
        E 900 90 64 60
        E 60 80 64 00
        E 420 90 61 60
        E 60 80 61 00
        E 420 90 60 60
        E 0 90 63 60
        E 60 80 60 00
        E 0 80 63 00
        E 420 90 60 60
        E 0 90 64 60
        E 60 80 60 00
        E 0 80 64 00
        E 420 90 60 60
        E 0 90 63 60
        E 60 80 60 00
        E 0 80 63 00
        E 900 90 61 7f
        E 0 90 64 60
        E 60 80 61 00
        E 0 80 64 00
        E 900 90 64 60
        E 60 80 64 00
        E 420 90 60 60
        E 60 80 60 00
        E 420 90 64 60
        E 60 80 64 00
        E 420 90 60 60
        E 60 80 60 00
        E 420 90 64 60
        E 60 80 64 00
        E 420 90 60 60
        E 60 80 60 00
        E 420 90 61 60
        E 0 90 64 60
        E 60 80 61 00
        E 0 80 64 00
        E 420 90 60 60
        E 60 80 60 00
        E 420 90 60 60
        E 0 90 64 60
        E 60 80 60 00
        E 0 80 64 00
        E 420 90 61 60
        E 60 80 61 00
        E 420 90 60 60
        E 0 90 63 60
        E 60 80 60 00
        E 0 80 63 00
        E 420 90 60 60
        E 0 90 64 60
        E 60 80 60 00
        E 0 80 64 00
        E 420 90 60 60
        E 0 90 63 60
        E 60 80 60 00
        E 0 80 63 00
        E 900 90 61 7f
        E 0 90 64 60
        E 60 80 61 00
        E 0 80 64 00
        E 900 90 64 60
        E 60 80 64 00
        E 420 90 60 60
        E 60 80 60 00
        E 420 90 64 60
        E 60 80 64 00
        E 420 90 60 60
        E 60 80 60 00
        E 420 90 60 60
        E 0 90 64 60
        E 60 80 60 00
        E 0 80 64 00
        E 900 90 61 60
        E 0 90 64 60
        E 60 80 61 00
        E 0 80 64 00
        E 420 90 60 60
        E 60 80 60 00
        E 420 90 61 60
        E 0 90 64 60
        E 60 80 61 00
        E 0 80 64 00
        E 420 90 60 60
        E 60 80 60 00
        E 420 90 60 60
        E 0 90 63 60
        E 60 80 60 00
        E 0 80 63 00
        E 420 90 60 60
        E 0 90 64 60
        E 60 80 60 00
        E 0 80 64 00
        E 420 90 60 60
        E 0 90 63 60
        E 60 80 60 00
        E 0 80 63 00
        E 900 90 61 7f
        E 0 90 64 60
        E 60 80 61 00
        E 0 80 64 00
        E 900 90 64 60
        E 60 80 64 00
        E 420 90 60 60
        E 60 80 60 00
        E 420 90 64 60
        E 60 80 64 00
        E 420 90 60 60
        E 60 80 60 00
        E 420 90 60 60
        E 0 90 64 60
        E 60 80 60 00
        E 0 80 64 00
        E 900 90 61 60
        E 0 90 64 60
        E 60 80 61 00
        E 0 80 64 00
        E 420 90 60 60
        E 60 80 60 00
        E 420 90 60 60
        E 0 90 64 60
        E 60 80 60 00
        E 0 80 64 00
        E 420 90 61 60
        E 60 80 61 00
        E 420 90 60 60
        E 0 90 63 60
        E 60 80 60 00
        E 0 80 63 00
        E 420 90 60 60
        E 0 90 64 60
        E 60 80 60 00
        E 0 80 64 00
        E 420 90 60 60
        E 0 90 63 60
        E 60 80 60 00
        E 0 80 63 00
        E 900 90 61 7f
        E 0 90 64 60
        E 60 80 61 00
        E 0 80 64 00
        E 900 90 64 60
        E 60 80 64 00
        E 420 90 60 60
        E 60 80 60 00
        E 420 90 64 60
        E 0 90 74 60
        E 60 80 64 00
        E 420 90 60 60
        E 60 80 60 00
        E 420 90 60 60
        E 0 90 64 60
        E 60 80 60 00
        E 0 80 64 00
        E 420 90 60 60
        E 60 80 60 00
        E 420 80 74 00
        E 0 90 61 60
        E 0 90 64 60
        E 60 80 61 00
        E 0 80 64 00
        E 420 90 60 60
        E 60 80 60 00
        E 420 90 60 60
        E 0 90 64 60
        E 60 80 60 00
        E 0 80 64 00
        E 420 90 61 60
        E 60 80 61 00
        E 420 90 60 60
        E 0 90 63 60
        E 60 80 60 00
        E 0 80 63 00
        E 420 90 60 60
        E 0 90 64 60
        E 60 80 60 00
        E 0 80 64 00
        E 420 90 60 60
        E 0 90 63 60
        E 60 80 60 00
        E 0 80 63 00
        E 900 90 61 7f
        E 0 90 64 60
        E 60 80 61 00
        E 0 80 64 00
        E 900 90 64 60
        E 60 80 64 00
        E 420 90 60 60
        E 60 80 60 00
        E 420 90 64 60
        E 60 80 64 00
        E 420 90 60 60
        E 0 90 62 60
        E 60 80 60 00
        E 0 80 62 00
        E 420 90 60 60
        E 0 90 63 60
        E 60 80 60 00
        E 0 80 63 00
        E 420 90 60 60
        E 60 80 60 00
        E 420 90 61 60
        E 0 90 64 60
        E 60 80 61 00
        E 0 80 64 00
        E 420 90 60 60
        E 60 80 60 00
        E 420 90 60 60
        E 0 90 64 60
        E 60 80 60 00
        E 0 80 64 00
        E 420 90 61 60
        E 60 80 61 00
        E 420 90 60 60
        E 0 90 63 60
        E 60 80 60 00
        E 0 80 63 00
        E 420 90 60 60
        E 0 90 64 60
        E 60 80 60 00
        E 0 80 64 00
        E 420 90 60 60
        E 0 90 63 60
        E 60 80 60 00
        E 0 80 63 00
        E 900 90 61 60
        E 0 90 64 60
        E 60 80 61 00
        E 0 80 64 00
        E 900 90 64 60
        E 60 80 64 00
        E 420 90 60 60
        E 60 80 60 00
        E 420 90 60 60
        E 0 90 64 60
        E 60 80 60 00
        E 0 80 64 00
        E 420 90 60 60
        E 60 80 60 00
        E 420 90 60 60
        E 0 90 64 60
        E 60 80 60 00
        E 0 80 64 00
        E 420 90 61 60
        E 0 90 63 60
        E 60 80 61 00
        E 0 80 63 00
        E 2340 90 60 60
        E 0 90 64 60
        E 60 80 60 00
        E 0 80 64 00
        E 132 90 60 60
        E 0 90 63 60
        E 60 80 60 00
        E 0 80 63 00
        E 132 90 60 60
        E 60 80 60 00
        E 132 90 60 60
        E 60 80 60 00
        E 132 90 60 60
        E 0 90 63 60
        E 60 80 60 00
        E 0 80 63 00
        E 132 90 60 60
        E 0 90 61 60
        E 60 80 60 00
        E 0 80 61 00
        E 132 90 60 60
        E 0 90 63 60
        E 60 80 60 00
        E 0 80 63 00
        E 132 90 60 60
        E 0 90 63 60
        E 60 80 60 00
        E 0 80 63 00
        E 132 90 60 60
        E 60 80 60 00
        E 132 90 60 60
        E 60 80 60 00
        E 132 90 60 60
        E 0 90 63 60
        E 60 80 60 00
        E 0 80 63 00
        E 132 90 60 60
        E 60 80 60 00
        E 132 90 60 60
        E 0 90 63 60
        E 60 80 60 00
        E 0 80 63 00
        E 132 90 60 60
        E 60 80 60 00
        E 132 90 60 60
        E 0 90 63 60
        E 60 80 60 00
        E 0 80 63 00
        E 132 90 60 60
        E 0 90 61 60
        E 60 80 60 00
        E 0 80 61 00
        E 132 90 60 60
        E 0 90 63 60
        E 60 80 60 00
        E 0 80 63 00
        E 132 90 60 60
        E 0 90 63 60
        E 60 80 60 00
        E 0 80 63 00
        E 132 90 60 60
        E 60 80 60 00
        E 132 90 60 60
        E 60 80 60 00
        E 132 90 60 60
        E 0 90 64 60
        E 60 80 60 00
        E 0 80 64 00
        E 132 90 60 60
        E 60 80 60 00
        E 132 90 60 60
        E 0 90 63 60
        E 60 80 60 00
        E 0 80 63 00
        E 132 90 60 60
        E 60 80 60 00
        E 132 90 60 60
        E 0 90 63 60
        E 60 80 60 00
        E 0 80 63 00
        E 132 90 60 60
        E 0 90 61 60
        E 60 80 60 00
        E 0 80 61 00
        E 132 90 60 60
        E 0 90 63 60
        E 60 80 60 00
        E 0 80 63 00
        E 132 90 60 60
        E 0 90 63 60
        E 60 80 60 00
        E 0 80 63 00
        E 132 90 60 60
        E 60 80 60 00
        E 132 90 60 60
        E 60 80 60 00
        E 132 90 60 60
        E 0 90 63 60
        E 60 80 60 00
        E 0 80 63 00
        E 132 90 60 60
        E 60 80 60 00
        E 132 90 60 60
        E 0 90 63 60
        E 60 80 60 00
        E 0 80 63 00
        E 132 90 60 60
        E 60 80 60 00
        E 132 90 60 60
        E 0 90 63 60
        E 60 80 60 00
        E 0 80 63 00
        E 132 90 60 60
        E 0 90 61 60
        E 60 80 60 00
        E 0 80 61 00
        E 132 90 60 60
        E 0 90 62 60
        E 0 90 6e 60
        E 60 80 60 00
        E 0 80 62 00
        E 0 80 6e 00
        E 132 90 60 60
        E 0 90 62 60
        E 0 90 6e 60
        E 60 80 60 00
        E 0 80 62 00
        E 0 80 6e 00
        E 132 90 60 60
        E 0 90 63 60
        E 0 90 6f 60
        E 60 80 60 00
        E 0 80 63 00
        E 0 80 6f 00
        E 132 90 60 60
        E 0 90 63 60
        E 0 90 6f 60
        E 60 80 60 00
        E 0 80 63 00
        E 0 80 6f 00
        E 132 90 60 60
        E 0 90 64 60
        E 60 80 60 00
        E 0 80 64 00
        E 132 90 60 60
        E 60 80 60 00
        E 132 90 60 60
        E 0 90 63 60
        E 60 80 60 00
        E 0 80 63 00
        E 132 90 60 60
        E 60 80 60 00
        E 132 90 60 60
        E 0 90 63 60
        E 60 80 60 00
        E 0 80 63 00
        E 132 90 60 60
        E 0 90 61 60
        E 60 80 60 00
        E 0 80 61 00
        E 132 90 60 60
        E 0 90 63 60
        E 60 80 60 00
        E 0 80 63 00
        E 132 90 60 60
        E 0 90 63 60
        E 60 80 60 00
        E 0 80 63 00
        E 132 90 60 60
        E 60 80 60 00
        E 132 90 60 60
        E 60 80 60 00
        E 132 90 60 60
        E 0 90 63 60
        E 60 80 60 00
        E 0 80 63 00
        E 132 90 60 60
        E 60 80 60 00
        E 132 90 60 60
        E 0 90 63 60
        E 60 80 60 00
        E 0 80 63 00
        E 132 90 60 60
        E 60 80 60 00
        E 132 90 60 60
        E 0 90 63 60
        E 60 80 60 00
        E 0 80 63 00
        E 132 90 60 60
        E 0 90 61 60
        E 60 80 60 00
        E 0 80 61 00
        E 132 90 60 60
        E 0 90 63 60
        E 60 80 60 00
        E 0 80 63 00
        E 132 90 60 60
        E 0 90 63 60
        E 60 80 60 00
        E 0 80 63 00
        E 132 90 60 60
        E 60 80 60 00
        E 132 90 60 60
        E 60 80 60 00
        E 132 90 60 60
        E 0 90 62 60
        E 0 90 74 60
        E 60 80 60 00
        E 0 80 62 00
        E 132 90 60 60
        E 60 80 60 00
        E 132 90 60 60
        E 0 90 63 60
        E 60 80 60 00
        E 0 80 63 00
        E 132 90 60 60
        E 60 80 60 00
        E 132 90 60 60
        E 0 90 63 60
        E 60 80 60 00
        E 0 80 63 00
        E 132 90 60 60
        E 0 90 61 60
        E 60 80 60 00
        E 0 80 61 00
        E 132 90 60 60
        E 0 90 63 60
        E 60 80 60 00
        E 0 80 63 00
        E 132 90 60 60
        E 0 90 63 60
        E 60 80 60 00
        E 0 80 63 00
        E 132 90 60 60
        E 60 80 60 00
        E 132 90 60 60
        E 60 80 60 00
        E 132 80 74 00
        E 0 90 60 60
        E 0 90 64 60
        E 60 80 60 00
        E 0 80 64 00
        E 132 90 60 60
        E 60 80 60 00
        E 132 90 60 60
        E 0 90 62 60
        E 0 90 6e 60
        E 60 80 60 00
        E 0 80 62 00
        E 0 80 6e 00
        E 132 90 60 60
        E 0 90 62 60
        E 0 90 6e 60
        E 60 80 60 00
        E 0 80 62 00
        E 0 80 6e 00
        E 132 90 60 60
        E 0 90 62 60
        E 0 90 6e 60
        E 60 80 60 00
        E 0 80 62 00
        E 0 80 6e 00
        E 132 90 60 60
        E 0 90 61 60
        E 60 80 60 00
        E 0 80 61 00
        E 132 90 60 60
        E 0 90 62 60
        E 0 90 6e 60
        E 60 80 60 00
        E 0 80 62 00
        E 0 80 6e 00
        E 132 90 60 60
        E 0 90 62 60
        E 0 90 6e 60
        E 60 80 60 00
        E 0 80 62 00
        E 0 80 6e 00
        E 132 90 60 60
        E 0 90 63 60
        E 0 90 6f 60
        E 60 80 60 00
        E 0 80 63 00
        E 0 80 6f 00
        E 132 90 60 60
        E 0 90 63 60
        E 0 90 6f 60
        E 60 80 60 00
        E 0 80 63 00
        E 0 80 6f 00
        E 132 90 60 60
        E 0 90 64 60
        E 60 80 60 00
        E 0 80 64 00
        E 132 90 60 60
        E 60 80 60 00
        E 132 90 60 60
        E 0 90 63 60
        E 60 80 60 00
        E 0 80 63 00
        E 132 90 60 60
        E 60 80 60 00
        E 132 90 60 60
        E 0 90 63 60
        E 60 80 60 00
        E 0 80 63 00
        E 132 90 60 60
        E 0 90 61 60
        E 60 80 60 00
        E 0 80 61 00
        E 132 90 60 60
        E 0 90 63 60
        E 60 80 60 00
        E 0 80 63 00
        E 132 90 60 60
        E 0 90 63 60
        E 60 80 60 00
        E 0 80 63 00
        E 132 90 60 60
        E 60 80 60 00
        E 132 90 60 60
        E 60 80 60 00
        E 132 90 60 60
        E 0 90 63 60
        E 60 80 60 00
        E 0 80 63 00
        E 132 90 60 60
        E 60 80 60 00
        E 132 90 60 60
        E 0 90 63 60
        E 60 80 60 00
        E 0 80 63 00
        E 132 90 60 60
        E 60 80 60 00
        E 132 90 60 60
        E 0 90 63 60
        E 60 80 60 00
        E 0 80 63 00
        E 132 90 60 60
        E 0 90 61 60
        E 60 80 60 00
        E 0 80 61 00
        E 132 90 60 60
        E 0 90 63 60
        E 60 80 60 00
        E 0 80 63 00
        E 132 90 60 60
        E 0 90 63 60
        E 60 80 60 00
        E 0 80 63 00
        E 132 90 60 60
        E 60 80 60 00
        E 132 90 60 60
        E 60 80 60 00
        E 132 90 60 60
        E 0 90 64 60
        E 60 80 60 00
        E 0 80 64 00
        E 132 90 60 60
        E 60 80 60 00
        E 132 90 60 60
        E 0 90 63 60
        E 60 80 60 00
        E 0 80 63 00
        E 132 90 60 60
        E 60 80 60 00
        E 132 90 60 60
        E 0 90 63 60
        E 60 80 60 00
        E 0 80 63 00
        E 132 90 60 60
        E 0 90 61 60
        E 60 80 60 00
        E 0 80 61 00
        E 132 90 60 60
        E 0 90 63 60
        E 60 80 60 00
        E 0 80 63 00
        E 132 90 60 60
        E 0 90 63 60
        E 60 80 60 00
        E 0 80 63 00
        E 132 90 60 60
        E 60 80 60 00
        E 132 90 60 60
        E 60 80 60 00
        E 132 90 60 60
        E 0 90 63 60
        E 60 80 60 00
        E 0 80 63 00
        E 132 90 60 60
        E 60 80 60 00
        E 132 90 60 60
        E 0 90 63 60
        E 60 80 60 00
        E 0 80 63 00
        E 132 90 60 60
        E 60 80 60 00
        E 132 90 60 60
        E 0 90 63 60
        E 60 80 60 00
        E 0 80 63 00
        E 132 90 60 60
        E 0 90 61 60
        E 60 80 60 00
        E 0 80 61 00
        E 132 90 60 60
        E 0 90 62 60
        E 0 90 6e 60
        E 60 80 60 00
        E 0 80 62 00
        E 0 80 6e 00
        E 132 90 60 60
        E 0 90 62 60
        E 0 90 6e 60
        E 60 80 60 00
        E 0 80 62 00
        E 0 80 6e 00
        E 132 90 60 60
        E 0 90 63 60
        E 0 90 6f 60
        E 60 80 60 00
        E 0 80 63 00
        E 0 80 6f 00
        E 132 90 60 60
        E 0 90 63 60
        E 0 90 6f 60
        E 60 80 60 00
        E 0 80 63 00
        E 0 80 6f 00
        E 132 90 60 60
        E 0 90 64 60
        E 60 80 60 00
        E 0 80 64 00
        E 132 90 60 60
        E 60 80 60 00
        E 132 90 60 60
        E 0 90 63 60
        E 60 80 60 00
        E 0 80 63 00
        E 132 90 60 60
        E 60 80 60 00
        E 132 90 60 60
        E 0 90 63 60
        E 60 80 60 00
        E 0 80 63 00
        E 132 90 60 60
        E 0 90 61 60
        E 60 80 60 00
        E 0 80 61 00
        E 132 90 60 60
        E 0 90 63 60
        E 60 80 60 00
        E 0 80 63 00
        E 132 90 60 60
        E 0 90 63 60
        E 60 80 60 00
        E 0 80 63 00
        E 132 90 60 60
        E 60 80 60 00
        E 132 90 60 60
        E 60 80 60 00
        E 132 90 60 60
        E 0 90 63 60
        E 60 80 60 00
        E 0 80 63 00
        E 132 90 60 60
        E 60 80 60 00
        E 132 90 60 60
        E 0 90 63 60
        E 60 80 60 00
        E 0 80 63 00
        E 132 90 60 60
        E 60 80 60 00
        E 132 90 60 60
        E 0 90 63 60
        E 60 80 60 00
        E 0 80 63 00
        E 132 90 60 60
        E 0 90 61 60
        E 60 80 60 00
        E 0 80 61 00
        E 132 90 60 60
        E 0 90 63 60
        E 60 80 60 00
        E 0 80 63 00
        E 132 90 60 60
        E 0 90 63 60
        E 60 80 60 00
        E 0 80 63 00
        E 132 90 60 60
        E 60 80 60 00
        E 132 90 60 60
        E 60 80 60 00
        E 132 90 60 60
        E 0 90 62 60
        E 60 80 60 00
        E 0 80 62 00
        E 132 90 60 60
        E 60 80 60 00
        E 132 90 60 60
        E 0 90 63 60
        E 60 80 60 00
        E 0 80 63 00
        E 132 90 60 60
        E 60 80 60 00
        E 132 90 60 60
        E 0 90 63 60
        E 60 80 60 00
        E 0 80 63 00
        E 132 90 60 60
        E 0 90 61 60
        E 60 80 60 00
        E 0 80 61 00
        E 132 90 60 60
        E 0 90 63 60
        E 60 80 60 00
        E 0 80 63 00
        E 132 90 60 60
        E 0 90 63 60
        E 60 80 60 00
        E 0 80 63 00
        E 132 90 60 60
        E 60 80 60 00
        E 132 90 60 60
        E 60 80 60 00
        E 132 90 60 60
        E 0 90 64 60
        E 60 80 60 00
        E 0 80 64 00
        E 420 90 61 60
        E 60 80 61 00
        E 420 90 61 60
        E 60 80 61 00
        E 420 90 61 60
        E 60 80 61 00
        E 420 90 60 60
        E 0 90 63 60
        E 60 80 60 00
        E 0 80 63 00
        E 60 90 61 60
        E 60 80 61 00
        E 60 90 60 60
        E 0 90 63 60
        E 60 80 60 00
        E 0 80 63 00
        E 60 90 61 60
        E 60 80 61 00
        E 60 90 60 60
        E 0 90 63 60
        E 60 80 60 00
        E 0 80 63 00
        E 60 90 61 60
        E 60 80 61 00
        E 60 90 60 60
        E 0 90 63 60
        E 60 80 60 00
        E 0 80 63 00
        E 60 90 61 60
        E 60 80 61 00
        E 60 90 60 60
        E 0 90 63 60
        E 60 80 60 00
        E 0 80 63 00
        E 60 90 61 60
        E 60 80 61 00
        E 60 90 60 60
        E 0 90 61 60
        E 60 80 60 00
        E 0 80 61 00
        E 60 90 61 60
        E 60 80 61 00
        E 60 90 60 60
        E 0 90 63 60
        E 60 80 60 00
        E 0 80 63 00
        E 60 90 61 60
        E 60 80 61 00
        E 60 90 60 60
        E 0 90 63 60
        E 60 80 60 00
        E 0 80 63 00
        E 60 90 61 60
        E 60 80 61 00
        E 60 90 60 60
        E 0 90 63 60
        E 60 80 60 00
        E 0 80 63 00
        E 60 90 61 60
        E 60 80 61 00
        E 60 90 60 60
        E 0 90 63 60
        E 60 80 60 00
        E 0 80 63 00
        E 60 90 61 60
        E 60 80 61 00
        E 60 90 60 60
        E 0 90 63 60
        E 60 80 60 00
        E 0 80 63 00
        E 60 90 61 60
        E 60 80 61 00
        E 60 90 60 60
        E 0 90 63 60
        E 60 80 60 00
        E 0 80 63 00
        E 60 90 61 60
        E 60 80 61 00
        E 60 90 60 60
        E 0 90 63 60
        E 60 80 60 00
        E 0 80 63 00
        E 60 90 61 60
        E 60 80 61 00
        E 60 90 60 60
        E 0 90 63 60
        E 60 80 60 00
        E 0 80 63 00
        E 60 90 61 60
        E 60 80 61 00
        E 60 90 60 60
        E 0 90 63 60
        E 60 80 60 00
        E 0 80 63 00
        E 60 90 61 60
        E 60 80 61 00
        E 60 90 60 60
        E 0 90 61 60
        E 60 80 60 00
        E 0 80 61 00
        E 60 90 61 60
        E 60 80 61 00
        E 60 90 60 60
        E 0 90 63 60
        E 60 80 60 00
        E 0 80 63 00
        E 60 90 61 60
        E 60 80 61 00
        E 60 90 60 60
        E 0 90 63 60
        E 60 80 60 00
        E 0 80 63 00
        E 60 90 61 60
        E 60 80 61 00
        E 60 90 60 60
        E 0 90 63 60
        E 60 80 60 00
        E 0 80 63 00
        E 60 90 61 60
        E 60 80 61 00
        E 60 90 60 60
        E 0 90 63 60
        E 60 80 60 00
        E 0 80 63 00
        E 60 90 61 60
        E 60 80 61 00
        E 60 90 60 60
        E 0 90 63 60
        E 60 80 60 00
        E 0 80 63 00
        E 60 90 61 60
        E 60 80 61 00
        E 60 90 60 60
        E 0 90 63 60
        E 60 80 60 00
        E 0 80 63 00
        E 60 90 61 60
        E 60 80 61 00
        E 60 90 60 60
        E 0 90 63 60
        E 60 80 60 00
        E 0 80 63 00
        E 60 90 61 60
        E 60 80 61 00
        E 60 90 60 60
        E 0 90 63 60
        E 60 80 60 00
        E 0 80 63 00
        E 60 90 61 60
        E 60 80 61 00
        E 60 90 60 60
        E 0 90 63 60
        E 60 80 60 00
        E 0 80 63 00
        E 60 90 61 60
        E 60 80 61 00
        E 60 90 60 60
        E 0 90 61 60
        E 60 80 60 00
        E 0 80 61 00
        E 60 90 61 60
        E 60 80 61 00
        E 60 90 60 60
        E 0 90 61 60
        E 60 80 60 00
        E 0 80 61 00
        E 60 90 61 60
        E 60 80 61 00
        E 60 90 60 60
        E 0 90 63 60
        E 60 80 60 00
        E 0 80 63 00
        E 60 90 61 60
        E 60 80 61 00
        E 60 90 60 60
        E 0 90 63 60
        E 60 80 60 00
        E 0 80 63 00
        E 60 90 61 60
        E 60 80 61 00
        E 60 90 60 60
        E 0 90 63 60
        E 60 80 60 00
        E 0 80 63 00
        E 60 90 61 60
        E 60 80 61 00
        E 60 90 60 60
        E 0 90 63 60
        E 60 80 60 00
        E 0 80 63 00
        E 60 90 61 60
        E 60 80 61 00
        E 60 90 60 60
        E 0 90 63 60
        E 60 80 60 00
        E 0 80 63 00
        E 60 90 61 60
        E 60 80 61 00
        E 60 90 60 60
        E 0 90 63 60
        E 60 80 60 00
        E 0 80 63 00
        E 60 90 61 60
        E 60 80 61 00
        E 60 90 60 60
        E 0 90 63 60
        E 60 80 60 00
        E 0 80 63 00
        E 60 90 61 60
        E 60 80 61 00
        E 60 90 60 60
        E 0 90 63 60
        E 60 80 60 00
        E 0 80 63 00
        E 60 90 61 60
        E 60 80 61 00
        E 60 90 60 60
        E 0 90 61 60
        E 60 80 60 00
        E 0 80 61 00
        E 60 90 61 60
        E 60 80 61 00
        E 60 90 60 60
        E 0 90 63 60
        E 60 80 60 00
        E 0 80 63 00
        E 60 90 61 60
        E 60 80 61 00
        E 60 90 60 60
        E 0 90 63 60
        E 60 80 60 00
        E 0 80 63 00
        E 60 90 61 60
        E 60 80 61 00
        E 60 90 60 60
        E 0 90 63 60
        E 60 80 60 00
        E 0 80 63 00
        E 60 90 61 60
        E 60 80 61 00
        E 60 90 60 60
        E 0 90 63 60
        E 60 80 60 00
        E 0 80 63 00
        E 60 90 61 60
        E 60 80 61 00
        E 60 90 60 60
        E 0 90 62 60
        E 0 90 74 60
        E 60 80 60 00
        E 0 80 62 00
        E 60 90 61 60
        E 60 80 61 00
        E 60 90 60 60
        E 0 90 63 60
        E 60 80 60 00
        E 0 80 63 00
        E 60 90 61 60
        E 60 80 61 00
        E 60 90 60 60
        E 0 90 63 60
        E 60 80 60 00
        E 0 80 63 00
        E 60 90 61 60
        E 60 80 61 00
        E 60 90 60 60
        E 0 90 63 60
        E 60 80 60 00
        E 0 80 63 00
        E 60 90 61 60
        E 60 80 61 00
        E 60 90 60 60
        E 0 90 61 60
        E 60 80 60 00
        E 0 80 61 00
        E 60 90 61 60
        E 60 80 61 00
        E 60 90 60 60
        E 0 90 63 60
        E 60 80 60 00
        E 0 80 63 00
        E 60 90 61 60
        E 60 80 61 00
        E 60 90 60 60
        E 0 90 63 60
        E 60 80 60 00
        E 0 80 63 00
        E 60 90 61 60
        E 60 80 61 00
        E 60 90 60 60
        E 0 90 63 60
        E 60 80 60 00
        E 0 80 63 00
        E 60 90 61 60
        E 60 80 61 00
        E 60 80 74 00
        E 0 90 60 60
        E 0 90 63 60
        E 60 80 60 00
        E 0 80 63 00
        E 60 90 61 60
        E 60 80 61 00
        E 60 90 60 60
        E 0 90 63 60
        E 60 80 60 00
        E 0 80 63 00
        E 60 90 61 60
        E 60 80 61 00
        E 60 90 60 60
        E 0 90 63 60
        E 60 80 60 00
        E 0 80 63 00
        E 60 90 61 60
        E 60 80 61 00
        E 60 90 60 60
        E 0 90 63 60
        E 60 80 60 00
        E 0 80 63 00
        E 60 90 61 60
        E 60 80 61 00
        E 60 90 60 60
        E 0 90 61 60
        E 60 80 60 00
        E 0 80 61 00
        E 60 90 61 60
        E 60 80 61 00
        E 60 90 60 60
        E 0 90 63 60
        E 60 80 60 00
        E 0 80 63 00
        E 60 90 61 60
        E 60 80 61 00
        E 60 90 60 60
        E 0 90 63 60
        E 60 80 60 00
        E 0 80 63 00
        E 60 90 61 60
        E 60 80 61 00
        E 60 90 60 60
        E 0 90 63 60
        E 60 80 60 00
        E 0 80 63 00
        E 60 90 61 60
        E 60 80 61 00
        E 60 90 60 60
        E 0 90 63 60
        E 60 80 60 00
        E 0 80 63 00
        E 60 90 61 60
        E 60 80 61 00
        E 60 90 60 60
        E 0 90 63 60
        E 60 80 60 00
        E 0 80 63 00
        E 60 90 61 60
        E 60 80 61 00
        E 60 90 60 60
        E 0 90 63 60
        E 60 80 60 00
        E 0 80 63 00
        E 60 90 61 60
        E 60 80 61 00
        E 60 90 60 60
        E 0 90 63 60
        E 60 80 60 00
        E 0 80 63 00
        E 60 90 61 60
        E 60 80 61 00
        E 60 90 60 60
        E 0 90 61 60
        E 60 80 60 00
        E 0 80 61 00
        E 60 90 61 60
        E 60 80 61 00
        E 60 90 60 60
        E 0 90 63 60
        E 60 80 60 00
        E 0 80 63 00
        E 60 90 61 60
        E 60 80 61 00
        E 60 90 60 60
        E 0 90 63 60
        E 60 80 60 00
        E 0 80 63 00
        E 60 90 61 60
        E 60 80 61 00
        E 60 90 60 60
        E 0 90 63 60
        E 60 80 60 00
        E 0 80 63 00
        E 60 90 61 60
        E 60 80 61 00
        E 60 90 60 60
        E 0 90 64 60
        E 60 80 60 00
        E 0 80 64 00
        E 60 90 61 60
        E 60 80 61 00
        E 60 90 61 60
        E 60 80 61 00
        E 60 90 61 60
        E 60 80 61 00
        E 60 90 62 60
        E 0 90 6e 60
        E 60 80 62 00
        E 0 80 6e 00
        E 60 90 62 60
        E 0 90 6e 60
        E 60 80 62 00
        E 0 80 6e 00
        E 60 90 61 60
        E 60 80 61 00
        E 60 90 61 60
        E 60 80 61 00
        E 60 90 62 60
        E 0 90 6e 60
        E 60 80 62 00
        E 0 80 6e 00
        E 60 90 61 60
        E 60 80 61 00
        E 60 90 61 60
        E 60 80 61 00
        E 60 90 61 60
        E 60 80 61 00
        E 60 90 63 2d
        E 0 90 6f 2d
        E 60 80 63 00
        E 0 80 6f 00
        E 60 90 61 2d
        E 60 80 61 00
        E 60 90 61 2d
        E 60 80 61 00
        E 60 90 61 2d
        E 60 80 61 00
        E 60 90 61 2d
        E 60 80 61 00
        E 60 90 61 2d
        E 60 80 61 00
        E 60 90 64 2d
        E 0 90 70 2d
        E 60 80 64 00
        E 0 80 70 00
        E 60 90 64 2d
        E 0 90 70 2d
        E 60 80 64 00
        E 0 80 70 00
        E 60 90 64 2d
        E 0 90 70 2d
        E 60 80 64 00
        E 0 80 70 00
        E 60 90 61 60
        E 60 80 61 00
        E 60 90 61 60
        E 60 80 61 00
        E 60 90 61 60
        E 60 80 61 00
        E 60 90 61 60
        E 60 80 61 00
        E 60 90 61 60
        E 60 80 61 00
        E 60 90 63 60
        E 0 90 6f 60
        E 60 80 63 00
        E 0 80 6f 00
        E 60 90 63 60
        E 0 90 6f 60
        E 60 80 63 00
        E 0 80 6f 00
        E 60 90 60 60
        E 0 90 64 60
        E 60 80 60 00
        E 0 80 64 00
        E 420 90 60 60
        E 0 90 63 60
        E 60 80 60 00
        E 0 80 63 00
        E 60 90 61 60
        E 60 80 61 00
        E 60 90 60 60
        E 0 90 63 60
        E 60 80 60 00
        E 0 80 63 00
        E 60 90 61 60
        E 60 80 61 00
        E 60 90 60 60
        E 0 90 63 60
        E 60 80 60 00
        E 0 80 63 00
        E 60 90 61 60
        E 60 80 61 00
        E 60 90 60 60
        E 0 90 63 60
        E 60 80 60 00
        E 0 80 63 00
        E 60 90 61 2d
        E 60 80 61 00
        E 60 90 60 60
        E 0 90 63 60
        E 60 80 60 00
        E 0 80 63 00
        E 60 90 61 60
        E 60 80 61 00
        E 60 90 60 60
        E 0 90 61 60
        E 60 80 60 00
        E 0 80 61 00
        E 60 90 61 60
        E 60 80 61 00
        E 60 90 60 60
        E 0 90 63 60
        E 60 80 60 00
        E 0 80 63 00
        E 60 90 61 60
        E 60 80 61 00
        E 60 90 60 60
        E 0 90 63 60
        E 60 80 60 00
        E 0 80 63 00
        E 60 90 61 60
        E 60 80 61 00
        E 60 90 60 60
        E 0 90 63 60
        E 60 80 60 00
        E 0 80 63 00
        E 60 90 61 60
        E 60 80 61 00
        E 60 90 60 60
        E 0 90 63 60
        E 60 80 60 00
        E 0 80 63 00
        E 60 90 61 60
        E 60 80 61 00
        E 60 90 60 60
        E 0 90 63 60
        E 60 80 60 00
        E 0 80 63 00
        E 60 90 61 60
        E 60 80 61 00
        E 60 90 60 60
        E 0 90 63 60
        E 60 80 60 00
        E 0 80 63 00
        E 60 90 61 60
        E 60 80 61 00
        E 60 90 60 60
        E 0 90 63 60
        E 60 80 60 00
        E 0 80 63 00
        E 60 90 61 60
        E 60 80 61 00
        E 60 90 60 60
        E 0 90 63 60
        E 60 80 60 00
        E 0 80 63 00
        E 60 90 61 60
        E 60 80 61 00
        E 60 90 60 60
        E 0 90 63 60
        E 60 80 60 00
        E 0 80 63 00
        E 60 90 61 60
        E 60 80 61 00
        E 60 90 60 60
        E 0 90 61 60
        E 60 80 60 00
        E 0 80 61 00
        E 60 90 61 60
        E 60 80 61 00
        E 60 90 60 60
        E 0 90 63 60
        E 60 80 60 00
        E 0 80 63 00
        E 60 90 61 60
        E 60 80 61 00
        E 60 90 60 60
        E 0 90 63 60
        E 60 80 60 00
        E 0 80 63 00
        E 60 90 61 60
        E 60 80 61 00
        E 60 90 60 60
        E 0 90 63 60
        E 60 80 60 00
        E 0 80 63 00
        E 60 90 61 60
        E 60 80 61 00
        E 60 90 60 60
        E 0 90 63 60
        E 60 80 60 00
        E 0 80 63 00
        E 60 90 61 60
        E 60 80 61 00
        E 60 90 60 60
        E 0 90 62 60
        E 60 80 60 00
        E 0 80 62 00
        E 60 90 61 60
        E 60 80 61 00
        E 60 90 60 60
        E 0 90 63 60
        E 60 80 60 00
        E 0 80 63 00
        E 60 90 61 60
        E 60 80 61 00
        E 60 90 60 60
        E 0 90 63 60
        E 60 80 60 00
        E 0 80 63 00
        E 60 90 61 60
        E 60 80 61 00
        E 60 90 60 60
        E 0 90 63 60
        E 60 80 60 00
        E 0 80 63 00
        E 60 90 61 60
        E 60 80 61 00
        E 60 90 60 60
        E 0 90 63 60
        E 60 80 60 00
        E 0 80 63 00
        E 60 90 61 60
        E 60 80 61 00
        E 60 90 60 60
        E 0 90 61 60
        E 60 80 60 00
        E 0 80 61 00
        E 60 90 61 60
        E 60 80 61 00
        E 60 90 60 60
        E 0 90 63 60
        E 60 80 60 00
        E 0 80 63 00
        E 60 90 61 60
        E 60 80 61 00
        E 60 90 60 60
        E 0 90 63 60
        E 60 80 60 00
        E 0 80 63 00
        E 60 90 61 60
        E 60 80 61 00
        E 60 90 60 60
        E 0 90 63 60
        E 60 80 60 00
        E 0 80 63 00
        E 60 90 61 60
        E 60 80 61 00
        E 60 90 60 60
        E 0 90 63 60
        E 60 80 60 00
        E 0 80 63 00
        E 60 90 61 60
        E 60 80 61 00
        E 60 90 60 60
        E 0 90 63 60
        E 60 80 60 00
        E 0 80 63 00
        E 60 90 61 60
        E 60 80 61 00
        E 60 90 60 60
        E 0 90 63 60
        E 60 80 60 00
        E 0 80 63 00
        E 60 90 61 60
        E 60 80 61 00
        E 60 90 60 60
        E 0 90 63 60
        E 60 80 60 00
        E 0 80 63 00
        E 60 90 61 60
        E 60 80 61 00
        E 60 90 60 60
        E 0 90 63 60
        E 60 80 60 00
        E 0 80 63 00
        E 60 90 61 60
        E 60 80 61 00
        E 60 90 60 60
        E 0 90 63 60
        E 60 80 60 00
        E 0 80 63 00
        E 60 90 61 60
        E 60 80 61 00
        E 60 90 60 60
        E 0 90 61 60
        E 60 80 60 00
        E 0 80 61 00
        E 60 90 61 60
        E 60 80 61 00
        E 60 90 60 60
        E 0 90 63 60
        E 60 80 60 00
        E 0 80 63 00
        E 60 90 61 60
        E 60 80 61 00
        E 60 90 60 60
        E 0 90 63 60
        E 60 80 60 00
        E 0 80 63 00
        E 60 90 61 60
        E 60 80 61 00
        E 60 90 60 60
        E 0 90 63 60
        E 60 80 60 00
        E 0 80 63 00
        E 60 90 61 60
        E 60 80 61 00
        E 60 90 60 60
        E 0 90 63 60
        E 60 80 60 00
        E 0 80 63 00
        E 60 90 61 60
        E 60 80 61 00
        E 60 90 60 60
        E 0 90 64 60
        E 60 80 60 00
        E 0 80 64 00
        E 60 90 61 60
        E 60 80 61 00
        E 60 90 60 60
        E 0 90 63 60
        E 60 80 60 00
        E 0 80 63 00
        E 60 90 61 60
        E 60 80 61 00
        E 60 90 60 60
        E 0 90 63 60
        E 60 80 60 00
        E 0 80 63 00
        E 60 90 61 60
        E 60 80 61 00
        E 60 90 60 60
        E 0 90 63 60
        E 60 80 60 00
        E 0 80 63 00
        E 60 90 61 60
        E 60 80 61 00
        E 60 90 60 60
        E 0 90 61 60
        E 60 80 60 00
        E 0 80 61 00
        E 60 90 61 60
        E 60 80 61 00
        E 60 90 60 60
        E 0 90 63 60
        E 60 80 60 00
        E 0 80 63 00
        E 60 90 61 60
        E 60 80 61 00
        E 60 90 60 60
        E 0 90 63 60
        E 60 80 60 00
        E 0 80 63 00
        E 60 90 61 60
        E 60 80 61 00
        E 60 90 60 60
        E 0 90 63 60
        E 60 80 60 00
        E 0 80 63 00
        E 60 90 61 60
        E 60 80 61 00
        E 60 90 60 60
        E 0 90 63 60
        E 60 80 60 00
        E 0 80 63 00
        E 60 90 61 60
        E 60 80 61 00
        E 60 90 60 60
        E 0 90 63 60
        E 60 80 60 00
        E 0 80 63 00
        E 60 90 61 60
        E 60 80 61 00
        E 60 90 60 60
        E 0 90 63 60
        E 60 80 60 00
        E 0 80 63 00
        E 60 90 61 60
        E 60 80 61 00
        E 60 90 60 60
        E 0 90 63 60
        E 60 80 60 00
        E 0 80 63 00
        E 60 90 61 60
        E 60 80 61 00
        E 60 90 60 60
        E 0 90 61 60
        E 60 80 60 00
        E 0 80 61 00
        E 60 90 61 60
        E 60 80 61 00
        E 60 90 60 60
        E 0 90 63 60
        E 60 80 60 00
        E 0 80 63 00
        E 60 90 61 60
        E 60 80 61 00
        E 60 90 60 60
        E 0 90 63 60
        E 60 80 60 00
        E 0 80 63 00
        E 60 90 61 60
        E 60 80 61 00
        E 60 90 60 60
        E 0 90 63 60
        E 60 80 60 00
        E 0 80 63 00
        E 60 90 61 60
        E 60 80 61 00
        E 60 90 60 60
        E 0 90 64 60
        E 60 80 60 00
        E 0 80 64 00
        E 60 90 61 60
        E 60 80 61 00
        E 60 90 61 60
        E 60 80 61 00
        E 60 90 61 60
        E 60 80 61 00
        E 60 90 62 60
        E 0 90 6e 60
        E 60 80 62 00
        E 0 80 6e 00
        E 60 90 62 60
        E 0 90 6e 60
        E 60 80 62 00
        E 0 80 6e 00
        E 60 90 61 60
        E 60 80 61 00
        E 60 90 61 60
        E 60 80 61 00
        E 60 90 61 60
        E 60 80 61 00
        E 60 90 61 60
        E 60 80 61 00
        E 60 90 63 60
        E 0 90 6f 60
        E 60 80 63 00
        E 0 80 6f 00
        E 60 90 61 60
        E 60 80 61 00
        E 60 90 61 60
        E 60 80 61 00
        E 60 90 61 60
        E 60 80 61 00
        E 60 90 63 60
        E 0 90 6f 60
        E 60 80 63 00
        E 0 80 6f 00
        E 60 90 61 60
        E 60 80 61 00
        E 60 90 61 60
        E 60 80 61 00
        E 60 90 61 60
        E 60 80 61 00
        E 60 90 61 60
        E 60 80 61 00
        E 60 90 61 60
        E 60 80 61 00
        E 60 90 63 60
        E 0 90 6f 60
        E 60 80 63 00
        E 0 80 6f 00
        E 60 90 63 60
        E 0 90 6f 60
        E 60 80 63 00
        E 0 80 6f 00
        E 60 90 61 60
        E 60 80 61 00
        E 60 90 61 60
        E 60 80 61 00
        E 60 90 63 60
        E 0 90 6f 60
        E 60 80 63 00
        E 0 80 6f 00
        E 60 90 63 60
        E 0 90 6f 60
        E 60 80 63 00
        E 0 80 6f 00
        E 60 90 61 60
        E 60 80 61 00
        E 60 90 61 60
        E 60 80 61 00
        E 60 90 61 60
        E 60 80 61 00
        E 60 90 61 60
        E 60 80 61 00
        E 60 90 62 60
        E 0 90 6e 60
        E 60 80 62 00
        E 0 80 6e 00
        E 60 90 62 60
        E 0 90 6e 60
        E 60 80 62 00
        E 0 80 6e 00
        E 60 90 61 60
        E 60 80 61 00
        E 60 90 61 60
        E 60 80 61 00
        E 60 90 62 60
        E 0 90 6e 60
        E 60 80 62 00
        E 0 80 6e 00
        E 60 90 62 60
        E 0 90 6e 60
        E 60 80 62 00
        E 0 80 6e 00
        E 60 90 63 60
        E 0 90 6f 60
        E 60 80 63 00
        E 0 80 6f 00
        E 60 90 63 60
        E 0 90 6f 60
        E 60 80 63 00
        E 0 80 6f 00
        E 60 90 64 60
        E 0 90 70 60
        E 60 80 64 00
        E 0 80 70 00
        E 60 90 64 60
        E 0 90 70 60
        E 60 80 64 00
        E 0 80 70 00
        E 60 90 60 60
        E 0 90 64 60
        E 60 80 60 00
        E 0 80 64 00
        E 660 90 60 60
        E 60 80 60 00
        E 180 90 62 60
        E 0 90 6e 60
        E 60 80 62 00
        E 0 80 6e 00
        E 180 90 60 60
        E 60 80 60 00
        E 180 90 63 60
        E 0 90 6f 60
        E 60 80 63 00
        E 0 80 6f 00
        E 180 90 60 60
        E 60 80 60 00
        E 180 90 61 60
        E 0 90 74 60
        E 60 80 61 00
        E 260 90 60 60
        E 0 90 64 60
        E 80 80 60 00
        E 0 80 64 00
        E 240 90 60 60
        E 0 90 62 60
        E 80 80 60 00
        E 0 80 62 00
        E 240 90 60 60
        E 0 90 64 60
        E 80 80 60 00
        E 0 80 64 00
        E 240 90 60 60
        E 0 90 62 60
        E 80 80 60 00
        E 0 80 62 00
        E 240 90 60 60
        E 80 80 60 00
        E 240 80 74 00
        E 0 90 60 60
        E 0 90 64 60
        E 80 80 60 00
        E 0 80 64 00
        E 160 90 63 60
        E 60 80 63 00
        E 420 90 60 60
        E 60 80 60 00
        E 180 90 63 60
        E 60 80 63 00
        E 180 90 60 60
        E 60 80 60 00
        E 180 90 63 60
        E 60 80 63 00
        E 180 90 60 60
        E 60 80 60 00
        E 180 90 61 60
        E 60 80 61 00
        E 260 90 60 60
        E 0 90 64 60
        E 80 80 60 00
        E 0 80 64 00
        E 240 90 60 60
        E 0 90 62 60
        E 80 80 60 00
        E 0 80 62 00
        E 240 90 60 60
        E 0 90 64 60
        E 80 80 60 00
        E 0 80 64 00
        E 240 90 60 60
        E 0 90 62 60
        E 80 80 60 00
        E 0 80 62 00
        E 240 90 60 60
        E 80 80 60 00
        E 240 90 60 60
        E 0 90 64 60
        E 80 80 60 00
        E 0 80 64 00
        E 160 90 63 60
        E 60 80 63 00
        E 180 90 60 60
        E 60 80 60 00
        E 180 90 60 60
        E 60 80 60 00
        E 420 90 60 60
        E 60 80 60 00
        E 420 90 60 60
        E 60 80 60 00
        E 180 90 61 60
        E 60 80 61 00
        E 260 90 60 60
        E 0 90 64 60
        E 80 80 60 00
        E 0 80 64 00
        E 240 90 60 60
        E 0 90 62 60
        E 80 80 60 00
        E 0 80 62 00
        E 240 90 60 60
        E 0 90 64 60
        E 80 80 60 00
        E 0 80 64 00
        E 240 90 60 60
        E 0 90 62 60
        E 80 80 60 00
        E 0 80 62 00
        E 240 90 60 60
        E 80 80 60 00
        E 80 90 61 60
        E 80 80 61 00
        E 80 90 60 60
        E 0 90 64 60
        E 80 80 60 00
        E 0 80 64 00
        E 640 90 60 60
        E 60 80 60 00
        E 180 90 63 60
        E 60 80 63 00
        E 180 90 60 60
        E 60 80 60 00
        E 180 90 63 60
        E 60 80 63 00
        E 180 90 60 60
        E 60 80 60 00
        E 180 90 61 60
        E 60 80 61 00
        E 260 90 62 60
        E 0 90 63 60
        E 0 90 6e 60
        E 0 90 6f 60
        E 60 80 62 00
        E 0 80 63 00
        E 0 80 6e 00
        E 0 80 6f 00
        E 260 90 62 60
        E 0 90 63 60
        E 0 90 6e 60
        E 0 90 6f 60
        E 60 80 62 00
        E 0 80 63 00
        E 0 80 6e 00
        E 0 80 6f 00
        E 260 90 62 60
        E 0 90 63 60
        E 0 90 6e 60
        E 0 90 6f 60
        E 60 80 62 00
        E 0 80 63 00
        E 0 80 6e 00
        E 0 80 6f 00
        E 260 90 62 60
        E 0 90 63 60
        E 0 90 6e 60
        E 0 90 6f 60
        E 60 80 62 00
        E 0 80 63 00
        E 0 80 6e 00
        E 0 80 6f 00
        E 260 90 62 60
        E 0 90 63 60
        E 0 90 6e 60
        E 0 90 6f 60
        E 60 80 62 00
        E 0 80 63 00
        E 0 80 6e 00
        E 0 80 6f 00
        E 500 90 60 60
        E 0 90 64 60
        E 60 80 60 00
        E 0 80 64 00
        E 180 90 60 60
        E 0 90 62 60
        E 0 90 6e 60
        E 60 80 60 00
        E 0 80 62 00
        E 0 80 6e 00
        E 180 90 62 60
        E 0 90 6e 60
        E 60 80 62 00
        E 0 80 6e 00
        E 60 90 62 60
        E 0 90 6e 60
        E 60 80 62 00
        E 0 80 6e 00
        E 60 90 61 60
        E 60 80 61 00
        E 60 90 62 60
        E 0 90 6e 60
        E 60 80 62 00
        E 0 80 6e 00
        E 60 90 60 60
        E 0 90 62 60
        E 0 90 6e 60
        E 60 80 60 00
        E 0 80 62 00
        E 0 80 6e 00
        E 60 90 62 60
        E 0 90 6e 60
        E 60 80 62 00
        E 0 80 6e 00
        E 60 90 62 60
        E 0 90 6e 60
        E 60 80 62 00
        E 0 80 6e 00
        E 60 90 62 60
        E 0 90 6e 60
        E 60 80 62 00
        E 0 80 6e 00
        E 60 90 60 60
        E 0 90 62 60
        E 0 90 6e 60
        E 60 80 60 00
        E 0 80 62 00
        E 0 80 6e 00
        E 60 90 62 60
        E 0 90 6e 60
        E 60 80 62 00
        E 0 80 6e 00
        E 60 90 62 60
        E 0 90 6e 60
        E 60 80 62 00
        E 0 80 6e 00
        E 60 90 62 60
        E 0 90 6e 60
        E 60 80 62 00
        E 0 80 6e 00
        E 60 90 60 60
        E 0 90 62 60
        E 0 90 6e 60
        E 60 80 60 00
        E 0 80 62 00
        E 0 80 6e 00
        E 60 90 62 60
        E 0 90 6e 60
        E 60 80 62 00
        E 0 80 6e 00
        E 60 90 60 60
        E 0 90 62 60
        E 0 90 6e 60
        E 60 80 60 00
        E 0 80 62 00
        E 0 80 6e 00
        E 60 90 62 60
        E 0 90 6e 60
        E 60 80 62 00
        E 0 80 6e 00
        E 60 90 60 60
        E 0 90 62 60
        E 0 90 6e 60
        E 60 80 60 00
        E 0 80 62 00
        E 0 80 6e 00
        E 60 90 62 60
        E 0 90 6e 60
        E 60 80 62 00
        E 0 80 6e 00
        E 60 90 61 60
        E 60 80 61 00
        E 60 90 62 60
        E 0 90 6e 60
        E 60 80 62 00
        E 0 80 6e 00
        E 60 90 60 60
        E 0 90 62 60
        E 0 90 6e 60
        E 60 80 60 00
        E 0 80 62 00
        E 0 80 6e 00
        E 60 90 62 60
        E 0 90 6e 60
        E 60 80 62 00
        E 0 80 6e 00
        E 60 90 62 60
        E 0 90 6e 60
        E 60 80 62 00
        E 0 80 6e 00
        E 60 90 62 60
        E 0 90 6e 60
        E 60 80 62 00
        E 0 80 6e 00
        E 60 90 60 60
        E 0 90 62 60
        E 0 90 6e 60
        E 60 80 60 00
        E 0 80 62 00
        E 0 80 6e 00
        E 60 90 62 60
        E 0 90 6e 60
        E 60 80 62 00
        E 0 80 6e 00
        E 60 90 60 60
        E 0 90 62 60
        E 0 90 6e 60
        E 60 80 60 00
        E 0 80 62 00
        E 0 80 6e 00
        E 60 90 62 60
        E 0 90 6e 60
        E 60 80 62 00
        E 0 80 6e 00
        E 60 90 60 60
        E 0 90 62 60
        E 0 90 6e 60
        E 60 80 60 00
        E 0 80 62 00
        E 0 80 6e 00
        E 60 90 62 60
        E 0 90 6e 60
        E 60 80 62 00
        E 0 80 6e 00
        E 60 90 62 60
        E 0 90 6e 60
        E 60 80 62 00
        E 0 80 6e 00
        E 60 90 62 60
        E 0 90 6e 60
        E 60 80 62 00
        E 0 80 6e 00
        E 60 90 61 7f
        E 60 80 61 00
        E 60 90 61 7f
        E 60 80 61 00
        E 60 90 61 7f
        E 60 80 61 00
        E 60 90 61 7f
        E 60 80 61 00
        E 60 90 62 60
        E 0 90 6e 60
        E 60 80 62 00
        E 0 80 6e 00
        E 60 90 62 60
        E 0 90 6e 60
        E 60 80 62 00
        E 0 80 6e 00
        E 60 90 63 60
        E 0 90 6f 60
        E 60 80 63 00
        E 0 80 6f 00
        E 60 90 63 60
        E 0 90 6f 60
        E 60 80 63 00
        E 0 80 6f 00
        E 60 90 60 60
        E 0 90 64 60
        E 60 80 60 00
        E 0 80 64 00
        E 420 90 60 60
        E 60 80 60 00
        E 180 90 60 60
        E 60 80 60 00
        E 420 90 61 60
        E 0 90 64 60
        E 60 80 61 00
        E 0 80 64 00
        E 180 90 60 60
        E 60 80 60 00
        E 420 90 60 60
        E 60 80 60 00
        E 180 90 64 60
        E 60 80 64 00
        E 180 90 60 60
        E 60 80 60 00
        E 180 90 60 60
        E 60 80 60 00
        E 420 90 61 60
        E 0 90 64 60
        e 0 90 74 60
        E 60 80 61 00
        E 0 80 64 00
        E 180 90 60 60
        E 60 80 60 00
        E 420 90 60 60
        E 60 80 60 00
        E 180 90 60 60
        E 0 90 64 60
        E 60 80 60 00
        E 0 80 64 00
        e 420 80 74 00
        E 240 90 60 60
        E 60 80 60 00
        E 180 90 61 60
        E 0 90 64 60
        E 60 80 61 00
        E 0 80 64 00
        E 180 90 60 60
        E 60 80 60 00
        E 60 90 60 60
        E 60 80 60 00
        E 60 90 60 60
        E 60 80 60 00
        E 60 90 60 60
        E 60 80 60 00
        E 60 90 60 60
        E 60 80 60 00
        E 180 90 64 60
        E 60 80 64 00
        E 180 90 60 60
        E 60 80 60 00
        E 180 90 60 60
        E 60 80 60 00
        E 420 90 61 60
        E 0 90 64 60
        E 60 80 61 00
        E 0 80 64 00
        E 180 90 60 60
        E 60 80 60 00
        E 420 90 60 60
        E 60 80 60 00
        E 180 90 64 60
        E 60 80 64 00
        E 420 90 60 60
        E 60 80 60 00
        E 420 90 61 60
        E 0 90 64 60
        E 60 80 61 00
        E 0 80 64 00
        E 180 90 60 60
        E 60 80 60 00
        E 420 90 60 60
        E 60 80 60 00
        E 179 90 60 60
        E 1 90 64 60
        E 59 80 60 00
        E 1 80 64 00
        E 660 90 60 60
        E 60 80 60 00
        E 180 90 61 60
        E 0 90 64 60
        E 60 80 61 00
        E 0 80 64 00
        E 179 90 60 60
        E 60 80 60 00
        E 61 90 60 60
        E 60 80 60 00
        E 60 90 60 60
        E 60 80 60 00
        E 60 90 60 60
        E 60 80 60 00
        E 60 90 60 60
        E 60 80 60 00
        E 180 90 64 60
        E 60 80 64 00
        E 180 90 60 60
        E 60 80 60 00
        E 179 90 60 60
        E 60 80 60 00
        E 421 90 61 60
        E 0 90 64 60
        E 60 80 61 00
        E 0 80 64 00
        E 180 90 60 60
        E 60 80 60 00
        E 660 90 64 60
        E 60 80 64 00
        E 180 90 60 60
        E 60 80 60 00
        E 180 90 60 60
        E 60 80 60 00
        E 180 90 60 60
        E 60 80 60 00
        E 179 90 61 60
        E 0 90 64 60
        E 60 80 61 00
        E 0 80 64 00
        E 181 90 60 60
        E 60 80 60 00
        E 420 90 60 60
        E 60 80 60 00
        E 179 90 60 60
        E 1 90 64 60
        E 59 80 60 00
        E 1 80 64 00
        E 660 90 60 60
        E 60 80 60 00
        E 180 90 61 60
        E 0 90 64 60
        E 60 80 61 00
        E 0 80 64 00
        E 179 90 60 60
        E 60 80 60 00
        E 61 90 60 60
        E 60 80 60 00
        E 60 90 60 60
        E 60 80 60 00
        E 60 90 60 60
        E 60 80 60 00
        E 60 90 60 60
        E 60 80 60 00
        E 180 90 64 60
        E 60 80 64 00
        E 180 90 60 60
        E 60 80 60 00
        E 179 90 60 60
        E 60 80 60 00
        E 421 90 61 60
        E 0 90 64 60
        E 60 80 61 00
        E 0 80 64 00
        E 180 90 60 60
        E 60 80 60 00
        E 419 90 60 60
        E 60 80 60 00
        E 181 90 64 60
        E 60 80 64 00
        E 180 90 60 60
        E 60 80 60 00
        E 180 90 60 60
        E 60 80 60 00
        E 180 90 60 60
        E 60 80 60 00
        E 179 90 61 60
        E 0 90 64 60
        E 60 80 61 00
        E 0 80 64 00
        E 181 90 60 60
        E 60 80 60 00
        E 420 90 60 60
        E 60 80 60 00
        E 179 90 60 60
        E 1 90 64 60
        E 59 80 60 00
        E 1 80 64 00
        E 660 90 60 60
        E 60 80 60 00
        E 180 90 61 60
        E 0 90 64 60
        E 60 80 61 00
        E 0 80 64 00
        E 179 90 60 60
        E 60 80 60 00
        E 61 90 60 60
        E 60 80 60 00
        E 60 90 60 60
        E 60 80 60 00
        E 60 90 60 60
        E 60 80 60 00
        E 60 90 60 60
        E 60 80 60 00
        E 180 90 64 60
        E 60 80 64 00
        E 419 90 60 60
        E 60 80 60 00
        E 421 90 61 60
        E 0 90 64 60
        E 60 80 61 00
        E 0 80 64 00
        E 659 90 60 60
        E 60 80 60 00
        E 181 90 64 60
        E 60 80 64 00
        E 180 90 60 60
        E 60 80 60 00
        E 180 90 60 60
        E 60 80 60 00
        E 180 90 60 60
        E 60 80 60 00
        E 179 90 61 60
        E 0 90 64 60
        E 1 90 74 60
        E 59 80 61 00
        E 0 80 64 00
        E 181 90 60 60
        E 60 80 60 00
        E 420 90 60 60
        E 60 80 60 00
        E 179 90 60 60
        E 1 90 64 60
        E 59 80 60 00
        E 1 80 64 00
        E 660 90 60 60
        E 60 80 60 00
        E 180 90 61 60
        E 0 90 64 60
        E 60 80 61 00
        E 0 80 64 00
        E 179 90 60 60
        E 60 80 60 00
        E 61 90 60 60
        E 60 80 60 00
        E 60 90 60 60
        E 60 80 60 00
        E 60 90 60 60
        E 60 80 60 00
        E 60 90 60 60
        E 60 80 60 00
        E 180 80 74 00
        E 0 90 64 60
        E 60 80 64 00
        E 180 90 60 60
        E 60 80 60 00
        E 179 90 60 60
        E 60 80 60 00
        E 181 90 60 60
        E 60 80 60 00
        E 180 90 61 60
        E 0 90 64 60
        E 60 80 61 00
        E 0 80 64 00
        E 180 90 60 60
        E 60 80 60 00
        E 419 90 60 60
        E 60 80 60 00
        E 181 90 64 60
        E 60 80 64 00
        E 180 90 60 60
        E 60 80 60 00
        E 180 90 60 60
        E 60 80 60 00
        E 180 90 60 60
        E 60 80 60 00
        E 179 90 61 60
        E 0 90 64 60
        E 60 80 61 00
        E 0 80 64 00
        E 181 90 60 60
        E 60 80 60 00
        E 420 90 60 60
        E 60 80 60 00
        E 179 90 60 60
        E 1 90 64 60
        E 59 80 60 00
        E 1 80 64 00
        E 660 90 60 60
        E 60 80 60 00
        E 180 90 61 60
        E 0 90 64 60
        E 60 80 61 00
        E 0 80 64 00
        E 179 90 60 60
        E 60 80 60 00
        E 61 90 60 60
        E 60 80 60 00
        E 60 90 60 60
        E 60 80 60 00
        E 60 90 60 60
        E 60 80 60 00
        E 60 90 60 60
        E 60 80 60 00
        E 180 90 64 60
        E 60 80 64 00
        E 180 90 60 60
        E 60 80 60 00
        E 179 90 60 60
        E 60 80 60 00
        E 181 90 60 60
        E 60 80 60 00
        E 180 90 61 60
        E 0 90 64 60
        E 60 80 61 00
        E 0 80 64 00
        E 180 90 60 60
        E 60 80 60 00
        E 419 90 60 60
        E 60 80 60 00
        E 181 90 64 60
        E 60 80 64 00
        E 180 90 60 60
        E 60 80 60 00
        E 180 90 60 60
        E 60 80 60 00
        E 180 90 60 60
        E 60 80 60 00
        E 179 90 61 60
        E 0 90 64 60
        E 60 80 61 00
        E 0 80 64 00
        E 181 90 60 60
        E 60 80 60 00
        E 420 90 60 60
        E 60 80 60 00
        E 179 90 60 60
        E 1 90 64 60
        E 59 80 60 00
        E 1 80 64 00
        E 660 90 60 60
        E 60 80 60 00
        E 180 90 61 60
        E 60 80 61 00
        E 179 90 60 60
        E 60 80 60 00
        E 181 90 62 60
        E 0 90 63 60
        E 0 90 6e 60
        E 0 90 6f 60
        E 60 80 62 00
        E 0 80 63 00
        E 0 80 6e 00
        E 0 80 6f 00
        E 180 90 60 60
        E 0 90 64 60
        E 60 80 60 00
        E 0 80 64 00
        E 420 90 60 60
        E 0 90 63 60
        E 60 80 60 00
        E 0 80 63 00
        E 180 90 60 60
        E 60 80 60 00
        E 180 90 60 60
        E 60 80 60 00
        E 180 90 61 60
        E 0 90 64 60
        E 60 80 61 00
        E 0 80 64 00
        E 180 90 60 60
        E 60 80 60 00
        E 419 90 60 60
        E 60 80 60 00
        E 181 90 64 60
        E 60 80 64 00
        E 180 90 60 60
        E 60 80 60 00
        E 180 90 60 60
        E 60 80 60 00
        E 180 90 60 60
        E 60 80 60 00
        E 179 90 61 60
        E 0 90 64 60
        E 60 80 61 00
        E 0 80 64 00
        E 181 90 60 60
        E 60 80 60 00
        E 420 90 60 60
        E 60 80 60 00
        E 179 90 60 60
        E 1 90 64 60
        E 59 80 60 00
        E 1 80 64 00
        E 660 90 60 60
        E 60 80 60 00
        E 180 90 61 60
        E 0 90 64 60
        E 60 80 61 00
        E 0 80 64 00
        E 179 90 60 60
        E 60 80 60 00
        E 61 90 60 60
        E 60 80 60 00
        E 60 90 60 60
        E 60 80 60 00
        E 60 90 60 60
        E 60 80 60 00
        E 60 90 60 60
        E 60 80 60 00
        E 180 90 64 60
        E 60 80 64 00
        E 419 90 60 60
        E 60 80 60 00
        E 421 90 61 60
        E 0 90 64 60
        E 60 80 61 00
        E 0 80 64 00
        E 180 90 60 60
        E 60 80 60 00
        E 419 90 60 60
        E 60 80 60 00
        E 181 90 64 60
        E 60 80 64 00
        E 180 90 60 60
        E 60 80 60 00
        E 180 90 60 60
        E 60 80 60 00
        E 180 90 60 60
        E 60 80 60 00
        E 179 90 61 60
        E 0 90 64 60
        E 60 80 61 00
        E 0 80 64 00
        E 181 90 60 60
        E 60 80 60 00
        E 420 90 60 60
        E 60 80 60 00
        E 179 90 60 60
        E 1 90 64 60
        E 59 80 60 00
        E 1 80 64 00
        E 660 90 60 60
        E 60 80 60 00
        E 180 90 61 60
        E 0 90 64 60
        E 60 80 61 00
        E 0 80 64 00
        E 179 90 60 60
        E 60 80 60 00
        E 61 90 60 60
        E 60 80 60 00
        E 60 90 60 60
        E 60 80 60 00
        E 60 90 60 60
        E 60 80 60 00
        E 60 90 60 60
        E 60 80 60 00
        E 180 90 64 60
        E 60 80 64 00
        E 180 90 60 60
        E 60 80 60 00
        E 179 90 60 60
        E 60 80 60 00
        E 421 90 61 60
        E 0 90 64 60
        E 60 80 61 00
        E 0 80 64 00
        E 180 90 60 60
        E 60 80 60 00
        E 419 90 60 60
        E 60 80 60 00
        E 181 90 64 60
        E 60 80 64 00
        E 180 90 60 60
        E 60 80 60 00
        E 180 90 60 60
        E 60 80 60 00
        E 180 90 60 60
        E 60 80 60 00
        E 179 90 61 60
        E 0 90 64 60
        E 60 80 61 00
        E 0 80 64 00
        E 181 90 60 60
        E 60 80 60 00
        E 420 90 60 60
        E 60 80 60 00
        E 179 90 60 60
        E 1 90 64 60
        E 59 80 60 00
        E 1 80 64 00
        E 660 90 60 60
        E 60 80 60 00
        E 180 90 61 60
        E 0 90 64 60
        E 60 80 61 00
        E 0 80 64 00
        E 180 90 60 60
        E 60 80 60 00
        E 180 90 62 60
        E 0 90 63 60
        E 0 90 6e 60
        E 0 90 6f 60
        E 60 80 62 00
        E 0 80 63 00
        E 0 80 6e 00
        E 0 80 6f 00
        E 180 90 62 60
        E 0 90 63 60
        E 0 90 6e 60
        E 0 90 6f 60
        E 60 80 62 00
        E 0 80 63 00
        E 0 80 6e 00
        E 0 80 6f 00
        E 7860 b0 7b 00
        GUID {99C52F88-C54B-4CCD-B038-A5C950AC8E6E}
        IGNTEMPO 0 120.00000000 4 4
        SRCCOLOR 67
        VELLANE 132 38 60
        COLORMAP "M:\RGS Documents\ColorMaps\rockband_drums.png"
        TEXTSTRINGFILE "Text Events List.txt"
        CFGEDITVIEW 398185.150898 95.417671 6 20 0 0 0
        CFGEDIT 1 1 0 0 0 1 1 1 1 1 1 0.25000000 16 13 1394 757 1 2 1 2 0.12500000 0 0 0 0 0.500000 1 0 1.000000 64
        KEYSNAP 0 0 "102034050607" 0 "Major"
        EVTFILTER 0 -1 -1 -1 -1 0 1 0 0 -1.00000000 -1.00000000
      >
    >
  >
  <TRACK '{70C3FE4D-3BC3-4146-95C4-8AC455A2D0F5}'
    NAME "PART BASS"
    PEAKCOL 16777471
    BEAT -1
    AUTOMODE 0
    VOLPAN 1.00000000000000 0.00000000000000 -1.00000000000000 -1.00000000000000 1.00000000000000
    MUTESOLO 0 0 0
    IPHASE 0
    ISBUS 0 0
    BUSCOMP 1 0
    SHOWINMIX 1 0.666700 0.500000 1 0.500000 -1 -1 -1
    FREEMODE 0
    SEL 0
    REC 0 4096 1 0 0 0 0
    TRACKHEIGHT 0 0
    INQ 0 0 0 0.5000000000 100 0 0 100
    NCHAN 2
    FX 1
    TRACKID {70C3FE4D-3BC3-4146-95C4-8AC455A2D0F5}
    PERF 0
    MIDIOUT -1
    <MIDINOTENAMES
      0 96 "EXPERT Green"
      0 97 "EXPERT Red"
      0 98 "EXPERT Yellow"
      0 99 "EXPERT Blue"
      0 100 "EXPERT Orange"
      0 84 "HARD Green"
      0 85 "HARD Red"
      0 86 "HARD Yellow"
      0 87 "HARD Blue"
      0 88 "HARD Orange"
      0 91 "----"
      0 116 "OVERDRIVE"
      0 40 "Left Hand Lowest"
      0 59 "Left Hand Highest"
      0 58 "-"
      0 57 "-"
      0 56 "-"
      0 55 "-"
      0 54 "-"
      0 53 "-"
      0 52 "-"
      0 51 "-"
      0 50 "-"
      0 49 "-"
      0 47 "-"
      0 48 "-"
      0 46 "-"
      0 45 "-"
      0 44 "-"
      0 43 "-"
      0 42 "-"
      0 41 "-"
      0 111 "----"
      0 72 "MEDIUM Green"
      0 73 "MEDIUM Red"
      0 74 "MEDIUM Yellow"
      0 75 "MEDIUM Blue"
      0 76 "MEDIUM Orange"
      0 60 "EASY Green"
      0 61 "EASY Red"
      0 62 "EASY Yellow"
      0 63 "EASY Blue"
      0 64 "EASY Orange"
      0 68 "----"
      0 80 "----"
      0 102 "Force HOPO Off"
      0 101 "Force HOPO On"
      0 120 "BRE (use all 5)"
      0 121 "BRE"
      0 122 "BRE"
      0 123 "BRE"
      0 124 "BRE"
      0 119 "----"
      0 90 "Force HOPO Off"
      0 89 "Force HOPO On"
      0 127 "Trill Marker"
      0 125 "----"
      0 103 "Solo Marker"
    >
    MAINSEND 1 0
    <FXCHAIN
      WNDRECT 0 38 878 585
      SHOW 0
      LASTSEL 1
      DOCKED 0
      BYPASS 1 0
      <VST "VSTi: ReaSynth (Cockos)" "reasynth.dll" 0 ""
        eXNlcu9e7f4AAAAAAgAAAAEAAAAAAAAAAgAAAAAAAAA4AAAAAAAAAA==
        AAAAAO++rd4N8K3eAAAAAAAAAAAAAAAAAAAAADm0SD59y9s+tbSxOQ==
        AAAAALbz/T5VpCs6AAAAAAAAAAAAAAAAAAA=
      >
      FLOATPOS 0 0 0 0
      FXID {D4EC3C58-478E-4D1F-A0FC-2252BD344989}
      WAK 0
      BYPASS 0 0
      <VST "VSTi: RBN Preview (RBN)" "rbprev_vst.dll" 0 ""
        dnBicu5e7f4AAAAAAgAAAAEAAAAAAAAAAgAAAAAAAAAEAAAAAQAAAA==
        AAAAAAMAqgAAAAAAAAA=
      >
      FLOATPOS 1103 72 517 512
      FXID {72D22271-4F4F-4081-90C4-66415E7AEC47}
      WAK 0
    >
    <ITEM
      POSITION 0.00000000000000
      SNAPOFFS 0.00000000000000
      LENGTH 306.80000000000001
      LOOP 0
      ALLTAKES 0
      SEL 0
      FADEIN 1 0.000000 0.000000 1 0
      FADEOUT 1 0.000000 0.000000 1 0
      MUTE 0
      IGUID {A1B24BBF-93B7-476C-BC6D-33F5621C633F}
      IID 2
      NAME "PART BASS"
      VOLPAN 1.000000 0.000000 1.000000 -1.000000
      SOFFS 0.00000000000000 0.00000000000000
      PLAYRATE 1.00000000000000 1 0.00000000000000 -65536
      CHANMODE 0
      GUID {344A7487-35C3-41F9-8B1E-12A4F3D7F336}
      <SOURCE MIDI
        HASDATA 1 480 QN
        POOLEDEVTS {92ED2866-C983-47CE-AAA9-EB7DC19636E1}
        <X 0 0
          /wNQQVJUIEJBU1M=
        >
        E 5760 90 3d 60
        E 0 90 48 60
        E 0 90 54 60
        E 0 90 63 60
        E 360 80 54 00
        E 0 80 63 00
        E 60 90 65 60
        E 60 80 48 00
        E 0 90 62 60
        E 60 80 62 00
        E 60 80 3d 00
        E 60 80 65 00
        E 60 90 60 60
        E 60 80 60 00
        E 180 90 61 60
        E 60 80 61 00
        E 180 90 63 60
        E 60 80 63 00
        E 180 90 60 60
        E 60 80 60 00
        E 180 90 62 60
        E 60 80 62 00
        E 180 90 64 60
        E 60 80 64 00
        E 60 90 3d 60
        E 0 90 57 60
        E 120 90 49 60
        E 0 90 60 60
        E 60 80 60 00
        E 60 80 3d 00
        E 0 80 57 00
        E 120 80 49 00
        E 0 90 61 60
        E 60 80 61 00
        E 120 90 65 60
        E 60 90 60 60
        E 60 80 60 00
        E 60 80 65 00
        E 120 90 60 60
        E 60 80 60 00
        E 180 90 60 60
        E 360 80 60 00
        E 120 90 60 60
        E 60 80 60 00
        E 60 90 60 60
        E 60 80 60 00
        E 60 90 3d 60
        E 0 90 48 60
        E 0 90 54 60
        E 0 90 60 60
        E 240 80 3d 00
        E 0 80 54 00
        E 120 80 60 00
        E 120 80 48 00
        E 0 90 60 60
        E 60 80 60 00
        E 180 90 61 60
        E 60 80 61 00
        E 180 90 63 60
        E 60 80 63 00
        E 180 90 60 60
        E 60 80 60 00
        E 180 90 62 60
        E 60 80 62 00
        E 180 90 64 60
        E 60 80 64 00
        E 180 90 60 60
        E 60 80 60 00
        E 180 90 61 60
        E 66 80 61 00 -6
        E 174 90 63 60
        E 60 80 63 00
        E 180 90 61 60
        E 60 80 61 00
        E 180 90 62 60
        E 60 80 62 00
        E 180 90 61 60
        E 60 80 61 00
        E 180 90 60 60
        E 60 80 60 00
        E 180 90 61 60
        E 60 80 61 00
        E 180 90 63 60
        E 0 90 74 60
        E 120 90 65 60
        E 240 80 63 00
        E 120 90 62 60
        E 60 80 62 00
        E 120 80 65 00
        E 60 90 60 60
        E 60 80 60 00
        E 180 90 61 60
        E 60 80 61 00
        E 180 90 63 60
        E 60 80 63 00
        E 180 90 60 60
        E 60 80 60 00
        E 180 90 62 60
        E 60 80 62 00
        E 180 80 74 00
        E 0 90 64 60
        E 60 80 64 00
        E 180 90 60 60
        E 60 80 60 00
        E 180 90 61 60
        E 60 80 61 00
        E 120 90 65 60
        E 60 90 60 60
        E 60 80 60 00
        E 60 80 65 00
        E 120 90 60 60
        E 60 80 60 00
        E 180 90 60 60
        E 60 80 60 00
        E 420 90 60 60
        E 60 80 60 00
        E 180 90 62 60
        E 60 80 62 00
        E 180 90 62 60
        E 60 80 62 00
        E 180 90 61 60
        E 60 80 61 00
        E 180 90 62 60
        E 60 80 62 00
        E 180 90 63 60
        E 60 80 63 00
        E 180 90 62 60
        E 60 80 62 00
        E 180 90 63 60
        E 60 80 63 00
        E 180 90 64 60
        E 60 80 64 00
        E 180 90 61 60
        E 60 80 61 00
        E 180 90 61 60
        E 360 80 61 00
        E 120 90 61 60
        E 60 80 61 00
        E 180 90 62 60
        E 60 80 62 00
        E 180 90 62 60
        E 0 90 66 60
        E 60 80 62 00
        E 60 90 62 60
        E 60 80 62 00
        E 60 90 61 60
        E 60 80 61 00
        E 60 80 66 00
        E 120 90 61 60
        E 60 80 61 00
        E 60 90 61 60
        E 60 80 61 00
        E 0 90 66 60
        E 60 90 63 60
        E 120 80 66 00
        E 240 80 63 00
        E 60 90 65 60
        E 60 90 62 60
        E 60 80 62 00
        E 120 80 65 00
        E 60 90 60 60
        E 60 80 60 00
        E 180 90 61 60
        E 60 80 61 00
        E 180 90 64 60
        E 60 80 64 00
        E 180 90 62 60
        E 60 80 62 00
        E 180 90 63 60
        E 60 80 63 00
        E 180 90 62 60
        E 60 80 62 00
        E 180 90 60 60
        E 60 80 60 00
        E 180 90 61 60
        E 60 80 61 00
        E 180 90 63 60
        E 360 80 63 00
        E 120 90 60 60
        E 360 80 60 00
        E 120 90 60 60
        E 360 80 60 00
        E 120 90 60 60
        E 60 80 60 00
        E 180 90 60 60
        E 60 80 60 00
        E 180 90 61 60
        E 60 80 61 00
        E 180 90 63 60
        E 60 80 63 00
        E 180 90 60 60
        E 60 80 60 00
        E 180 90 62 60
        E 60 80 62 00
        E 180 90 64 60
        E 60 80 64 00
        E 180 90 60 60
        E 60 80 60 00
        E 180 90 61 60
        E 66 80 61 00
        E 174 90 63 60
        E 60 80 63 00
        E 180 90 60 60
        E 60 80 60 00
        E 180 90 62 60
        E 60 80 62 00
        E 180 90 61 60
        E 60 80 61 00
        E 180 90 60 60
        E 60 80 60 00
        E 180 90 61 60
        E 60 80 61 00
        E 180 90 63 60
        E 360 80 63 00
        E 60 90 65 60
        E 60 90 62 60
        E 60 80 62 00
        E 120 80 65 00
        E 60 90 60 60
        E 60 80 60 00
        E 180 90 61 60
        E 60 80 61 00
        E 180 90 64 60
        E 60 80 64 00
        E 180 90 62 60
        E 60 80 62 00
        E 180 90 63 60
        E 60 80 63 00
        E 180 90 62 60
        E 60 80 62 00
        E 180 90 60 60
        E 60 80 60 00
        E 180 90 61 60
        E 60 80 61 00
        E 180 90 63 60
        E 360 80 63 00
        E 120 90 60 60
        E 360 80 60 00
        E 120 90 60 60
        E 60 80 60 00
        E 120 90 66 60
        E 60 90 62 60
        E 240 80 66 00
        E 120 80 62 00
        E 120 90 61 60
        E 60 80 61 00
        E 180 90 62 60
        E 60 80 62 00
        E 180 90 63 60
        E 60 80 63 00
        E 180 90 62 60
        E 60 80 62 00
        E 180 90 63 60
        E 60 80 63 00
        E 180 90 64 60
        E 60 80 64 00
        E 500 90 61 60
        E 120 80 61 00
        E 200 90 61 60
        E 80 80 61 00
        E 240 90 61 60
        E 120 80 61 00
        E 200 90 62 60
        E 40 80 62 00
        E 280 90 62 60
        E 40 80 62 00
        E 280 90 60 60
        E 60 80 60 00
        E 4740 90 61 60
        E 0 90 74 60
        E 360 80 61 00
        E 120 90 60 60
        E 360 80 60 00
        E 120 90 60 60
        E 60 80 60 00
        E 180 90 60 60
        E 360 80 60 00
        E 120 90 60 60
        E 240 80 74 00
        E 120 80 60 00
        E 120 90 60 60
        E 60 80 60 00
        E 180 90 61 60
        E 360 80 61 00
        E 120 90 60 60
        E 360 80 60 00
        E 120 90 60 60
        E 60 80 60 00
        E 180 90 60 60
        E 360 80 60 00
        E 120 90 60 60
        E 360 80 60 00
        E 120 90 60 60
        E 60 80 60 00
        E 180 90 63 60
        E 60 80 63 00
        E 120 90 65 60
        E 60 90 62 60
        E 60 80 62 00
        E 120 80 65 00
        E 60 90 61 60
        E 60 80 61 00
        E 180 90 63 60
        E 60 80 63 00
        E 180 90 60 60
        E 60 80 60 00
        E 180 90 61 60
        E 60 80 61 00
        E 180 90 62 60
        E 60 80 62 00
        E 180 90 61 60
        E 60 80 61 00
        E 180 90 62 60
        E 60 80 62 00
        E 180 90 63 60
        E 60 80 63 00
        E 180 90 64 60
        E 360 80 64 00
        E 120 90 61 60
        E 60 80 61 00
        E 180 90 64 60
        E 60 80 64 00
        E 180 90 60 60
        E 60 80 60 00
        E 180 90 62 60
        E 60 80 62 00
        E 180 90 63 60
        E 60 80 63 00
        E 180 90 62 60
        E 60 80 62 00
        E 180 90 64 60
        E 60 80 64 00
        E 180 90 63 60
        E 60 80 63 00
        E 180 90 61 60
        E 360 80 61 00
        E 120 90 60 60
        E 360 80 60 00
        E 120 90 60 60
        E 60 80 60 00
        E 180 90 60 60
        E 360 80 60 00
        E 120 90 60 60
        E 360 80 60 00
        E 120 90 60 60
        E 60 80 60 00
        E 180 90 61 60
        E 360 80 61 00
        E 120 90 60 60
        E 360 80 60 00
        E 120 90 60 60
        E 60 80 60 00
        E 180 90 60 60
        E 360 80 60 00
        E 120 90 60 60
        E 360 80 60 00
        E 120 90 60 60
        E 60 80 60 00
        E 180 90 61 60
        E 60 80 61 00
        E 180 90 62 60
        E 60 80 62 00
        E 180 90 63 60
        E 60 80 63 00
        E 180 90 62 60
        E 60 80 62 00
        E 180 90 63 60
        E 60 80 63 00
        E 180 90 61 60
        E 60 80 61 00
        E 180 90 62 60
        E 60 80 62 00
        E 180 90 63 60
        E 60 80 63 00
        E 180 90 62 60
        E 60 80 62 00
        E 180 90 61 60
        E 60 80 61 00
        E 180 90 60 60
        E 60 80 60 00
        E 180 90 61 60
        E 60 80 61 00
        E 180 90 62 60
        E 60 80 62 00
        E 180 90 61 60
        E 60 80 61 00
        E 180 90 62 60
        E 60 80 62 00
        E 180 90 60 60
        E 60 80 60 00
        E 180 90 61 60
        E 60 80 61 00
        E 180 90 62 60
        E 60 80 62 00
        E 180 90 63 60
        E 60 80 63 00
        E 180 90 64 60
        E 60 80 64 00
        E 180 90 61 60
        E 360 80 61 00
        E 120 90 60 60
        E 360 80 60 00
        E 120 90 60 60
        E 60 80 60 00
        E 180 90 60 60
        E 360 80 60 00
        E 120 90 60 60
        E 360 80 60 00
        E 120 90 60 60
        E 60 80 60 00
        E 180 90 61 60
        E 360 80 61 00
        E 120 90 60 60
        E 360 80 60 00
        E 120 90 60 60
        E 60 80 60 00
        E 180 90 60 60
        E 240 90 74 60
        E 120 80 60 00
        E 120 90 60 60
        E 360 80 60 00
        E 120 90 60 60
        E 60 80 60 00
        E 180 90 63 60
        E 60 80 63 00
        E 120 90 65 60
        E 60 90 62 60
        E 60 80 62 00
        E 120 80 65 00
        E 60 90 61 60
        E 60 80 61 00
        E 180 90 63 60
        E 60 80 63 00
        E 180 80 74 00
        E 0 90 60 60
        E 60 80 60 00
        E 180 90 61 60
        E 60 80 61 00
        E 180 90 62 60
        E 60 80 62 00
        E 180 90 61 60
        E 60 80 61 00
        E 180 90 62 60
        E 60 80 62 00
        E 180 90 63 60
        E 60 80 63 00
        E 180 90 64 60
        E 360 80 64 00
        E 120 90 61 60
        E 60 80 61 00
        E 180 90 64 60
        E 60 80 64 00
        E 180 90 60 60
        E 60 80 60 00
        E 180 90 62 60
        E 60 80 62 00
        E 180 90 63 60
        E 60 80 63 00
        E 180 90 62 60
        E 60 80 62 00
        E 180 90 64 60
        E 60 80 64 00
        E 180 90 63 60
        E 60 80 63 00
        E 180 90 61 60
        E 360 80 61 00
        E 120 90 60 60
        E 360 80 60 00
        E 120 90 60 60
        E 60 80 60 00
        E 180 90 60 60
        E 360 80 60 00
        E 120 90 60 60
        E 360 80 60 00
        E 120 90 60 60
        E 60 80 60 00
        E 180 90 61 60
        E 360 80 61 00
        E 120 90 60 60
        E 360 80 60 00
        E 120 90 60 60
        E 60 80 60 00
        E 180 90 60 60
        E 360 80 60 00
        E 120 90 60 60
        E 360 80 60 00
        E 120 90 60 60
        E 60 80 60 00
        E 180 90 61 60
        E 60 80 61 00
        E 180 90 62 60
        E 60 80 62 00
        E 180 90 63 60
        E 60 80 63 00
        E 180 90 62 60
        E 60 80 62 00
        E 180 90 63 60
        E 60 80 63 00
        E 180 90 61 60
        E 60 80 61 00
        E 180 90 62 60
        E 60 80 62 00
        E 180 90 63 60
        E 60 80 63 00
        E 180 90 62 60
        E 60 80 62 00
        E 180 90 61 60
        E 60 80 61 00
        E 180 90 60 60
        E 60 80 60 00
        E 180 90 61 60
        E 60 80 61 00
        E 180 90 62 60
        E 60 80 62 00
        E 180 90 61 60
        E 60 80 61 00
        E 180 90 62 60
        E 60 80 62 00
        E 180 90 60 60
        E 60 80 60 00
        E 180 90 61 60
        E 60 80 61 00
        E 180 90 62 60
        E 60 80 62 00
        E 180 90 63 60
        E 60 80 63 00
        E 180 90 64 60
        E 60 80 64 00
        E 180 90 61 60
        E 1800 80 61 00
        E 120 90 63 60
        E 60 80 63 00
        E 180 90 63 60
        E 60 80 63 00
        E 180 90 63 60
        E 600 80 63 00
        E 120 90 63 60
        E 60 80 63 00
        E 60 90 63 60
        E 66 80 63 00
        E 54 90 63 60
        E 60 80 63 00
        E 60 90 63 60
        E 60 80 63 00
        E 60 90 63 60
        E 600 80 63 00
        E 120 90 63 60
        E 60 80 63 00
        E 60 90 63 60
        E 60 80 63 00
        E 60 90 63 60
        E 60 80 63 00
        E 60 90 63 60
        E 60 80 63 00
        E 0 90 66 60
        E 60 90 62 60
        E 120 80 66 00
        E 480 80 62 00
        E 120 90 64 60
        E 60 80 64 00
        E 60 90 64 60
        E 60 80 64 00
        E 60 90 64 60
        E 60 80 64 00
        E 60 90 64 60
        E 60 80 64 00
        E 60 90 64 60
        E 600 80 64 00
        E 120 90 64 60
        E 60 80 64 00
        E 60 90 64 60
        E 60 80 64 00
        E 60 90 64 60
        E 60 80 64 00
        E 60 90 64 60
        E 60 80 64 00
        E 60 90 64 60
        E 360 80 64 00
        E 120 90 64 60
        E 360 80 64 00
        E 120 90 64 60
        E 60 80 64 00
        E 60 90 64 60
        E 60 80 64 00
        E 60 90 64 60
        E 60 80 64 00
        E 60 90 64 60
        E 60 80 64 00
        E 60 90 64 60
        E 60 80 64 00
        E 180 90 64 60
        E 60 80 64 00
        E 180 90 64 60
        E 60 80 64 00
        E 180 90 64 60
        E 60 80 64 00
        E 180 90 60 60
        E 60 80 60 00
        E 60 90 60 60
        E 60 80 60 00
        E 60 90 60 60
        E 60 80 60 00
        E 60 90 60 60
        E 60 80 60 00
        E 60 90 60 60
        E 600 80 60 00
        E 120 90 60 60
        E 60 80 60 00
        E 60 90 60 60
        E 60 80 60 00
        E 60 90 60 60
        E 60 80 60 00
        E 60 90 60 60
        E 60 80 60 00
        E 60 90 60 60
        E 600 80 60 00
        E 120 90 60 60
        E 60 80 60 00
        E 60 90 60 60
        E 60 80 60 00
        E 60 90 60 60
        E 60 80 60 00
        E 60 90 60 60
        E 60 80 60 00
        E 60 90 60 60
        E 360 80 60 00
        E 120 90 61 60
        E 840 80 61 00
        E 120 90 62 60
        E 840 80 62 00
        E 120 90 63 60
        E 840 80 63 00
        E 120 90 61 60
        E 360 80 61 00
        E 120 90 64 60
        E 360 80 64 00
        E 120 90 64 60
        E 360 80 64 00
        E 120 90 63 60
        E 60 80 63 00
        E 180 90 63 60
        E 60 80 63 00
        E 180 90 63 60
        E 600 80 63 00
        E 120 90 63 60
        E 60 80 63 00
        E 60 90 63 60
        E 66 80 63 00
        E 54 90 63 60
        E 60 80 63 00
        E 60 90 63 60
        E 60 80 63 00
        E 60 90 63 60
        E 240 90 74 60
        E 360 80 63 00
        E 120 90 63 60
        E 60 80 63 00
        E 60 90 63 60
        E 60 80 63 00
        E 60 90 63 60
        E 60 80 63 00
        E 60 90 63 60
        E 60 80 63 00
        E 0 90 66 60
        E 60 90 62 60
        E 120 80 66 00
        E 480 80 62 00
        E 120 90 64 60
        E 60 80 64 00
        E 60 90 64 60
        E 60 80 64 00
        E 60 80 74 00
        E 0 90 64 60
        E 60 80 64 00
        E 60 90 64 60
        E 60 80 64 00
        E 60 90 64 60
        E 600 80 64 00
        E 120 90 64 60
        E 60 80 64 00
        E 60 90 64 60
        E 60 80 64 00
        E 60 90 64 60
        E 60 80 64 00
        E 60 90 64 60
        E 60 80 64 00
        E 60 90 64 60
        E 360 80 64 00
        E 120 90 64 60
        E 360 80 64 00
        E 120 90 64 60
        E 60 80 64 00
        E 60 90 64 60
        E 60 80 64 00
        E 60 90 64 60
        E 60 80 64 00
        E 60 90 64 60
        E 60 80 64 00
        E 60 90 64 60
        E 60 80 64 00
        E 180 90 64 60
        E 60 80 64 00
        E 180 90 64 60
        E 60 80 64 00
        E 180 90 64 60
        E 60 80 64 00
        E 180 90 60 60
        E 60 80 60 00
        E 60 90 60 60
        E 60 80 60 00
        E 60 90 60 60
        E 60 80 60 00
        E 60 90 60 60
        E 60 80 60 00
        E 60 90 60 60
        E 600 80 60 00
        E 120 90 60 60
        E 60 80 60 00
        E 60 90 60 60
        E 60 80 60 00
        E 60 90 60 60
        E 60 80 60 00
        E 60 90 60 60
        E 60 80 60 00
        E 60 90 60 60
        E 600 80 60 00
        E 120 90 60 60
        E 60 80 60 00
        E 60 90 60 60
        E 60 80 60 00
        E 60 90 60 60
        E 60 80 60 00
        E 60 90 60 60
        E 60 80 60 00
        E 60 90 60 60
        E 360 80 60 00
        E 120 90 61 60
        E 840 80 61 00
        E 120 90 62 60
        E 840 80 62 00
        E 120 90 60 60
        E 60 80 60 00
        E 2340 90 63 60
        E 360 80 63 00
        E 60 90 65 60
        E 60 90 62 60
        E 60 80 62 00
        E 120 80 65 00
        E 60 90 60 60
        E 60 80 60 00
        E 180 90 61 60
        E 60 80 61 00
        E 180 90 63 60
        E 60 80 63 00
        E 180 90 60 60
        E 60 80 60 00
        E 180 90 62 60
        E 60 80 62 00
        E 180 90 64 60
        E 60 80 64 00
        E 180 90 60 60
        E 60 80 60 00
        E 180 90 61 60
        E 60 80 61 00
        E 120 90 65 60
        E 60 90 60 60
        E 60 80 60 00
        E 60 80 65 00
        E 120 90 60 60
        E 60 80 60 00
        E 180 90 60 60
        E 360 80 60 00
        E 120 90 60 60
        E 60 80 60 00
        E 60 90 60 60
        E 60 80 60 00
        E 60 90 60 60
        E 360 80 60 00
        E 120 90 60 60
        E 60 80 60 00
        E 180 90 61 60
        E 60 80 61 00
        E 180 90 63 60
        E 60 80 63 00
        E 180 90 60 60
        E 60 80 60 00
        E 180 90 62 60
        E 60 80 62 00
        E 180 90 64 60
        E 60 80 64 00
        E 180 90 60 60
        E 60 80 60 00
        E 180 90 61 60
        E 66 80 61 00
        E 174 90 63 60
        E 60 80 63 00
        E 180 90 61 60
        E 60 80 61 00
        E 180 90 62 60
        E 60 80 62 00
        E 180 90 61 60
        E 60 80 61 00
        E 180 90 60 60
        E 60 80 60 00
        E 180 90 61 60
        E 60 80 61 00
        E 180 90 63 60
        E 120 90 65 60
        E 240 80 63 00
        E 120 90 62 60
        E 60 80 62 00
        E 120 80 65 00
        E 60 90 60 60
        E 60 80 60 00
        E 180 90 61 60
        E 60 80 61 00
        E 180 90 63 60
        E 60 80 63 00
        E 180 90 60 60
        E 60 80 60 00
        E 180 90 62 60
        E 60 80 62 00
        E 180 90 64 60
        E 60 80 64 00
        E 180 90 60 60
        E 60 80 60 00
        E 180 90 61 60
        E 60 80 61 00
        E 120 90 65 60
        E 60 90 60 60
        E 60 80 60 00
        E 60 80 65 00
        E 120 90 60 60
        E 60 80 60 00
        E 180 90 60 60
        E 60 80 60 00
        E 420 90 60 60
        E 60 80 60 00
        E 180 90 62 60
        E 60 80 62 00
        E 180 90 62 60
        E 60 80 62 00
        E 180 90 61 60
        E 60 80 61 00
        E 180 90 62 60
        E 60 80 62 00
        E 180 90 63 60
        E 60 80 63 00
        E 180 90 62 60
        E 60 80 62 00
        E 180 90 63 60
        E 60 80 63 00
        E 180 90 64 60
        E 60 80 64 00
        E 180 90 61 60
        E 60 80 61 00
        E 180 90 61 60
        E 360 80 61 00
        E 120 90 61 60
        E 60 80 61 00
        E 180 90 62 60
        E 60 80 62 00
        E 180 90 62 60
        E 0 90 66 60
        E 60 80 62 00
        E 60 90 62 60
        E 60 80 62 00
        E 60 90 61 60
        E 60 80 61 00
        E 60 80 66 00
        E 120 90 61 60
        E 60 80 61 00
        E 60 90 61 60
        E 60 80 61 00
        E 0 90 66 60
        E 60 90 63 60
        E 0 90 74 60
        E 120 80 66 00
        E 240 80 63 00
        E 60 90 65 60
        E 60 90 62 60
        E 60 80 62 00
        E 120 80 65 00
        E 60 90 60 60
        E 60 80 60 00
        E 180 90 61 60
        E 60 80 61 00
        E 180 90 64 60
        E 60 80 64 00
        E 180 90 62 60
        E 60 80 62 00
        E 180 90 63 60
        E 60 80 63 00
        E 180 80 74 00
        E 0 90 62 60
        E 60 80 62 00
        E 180 90 60 60
        E 60 80 60 00
        E 180 90 61 60
        E 60 80 61 00
        E 180 90 63 60
        E 360 80 63 00
        E 120 90 60 60
        E 360 80 60 00
        E 120 90 60 60
        E 360 80 60 00
        E 120 90 60 60
        E 60 80 60 00
        E 180 90 60 60
        E 60 80 60 00
        E 180 90 61 60
        E 60 80 61 00
        E 180 90 63 60
        E 60 80 63 00
        E 180 90 60 60
        E 60 80 60 00
        E 180 90 62 60
        E 60 80 62 00
        E 180 90 64 60
        E 60 80 64 00
        E 180 90 60 60
        E 60 80 60 00
        E 180 90 61 60
        E 66 80 61 00
        E 174 90 63 60
        E 60 80 63 00
        E 180 90 60 60
        E 60 80 60 00
        E 180 90 62 60
        E 60 80 62 00
        E 180 90 61 60
        E 60 80 61 00
        E 180 90 60 60
        E 60 80 60 00
        E 180 90 61 60
        E 60 80 61 00
        E 180 90 63 60
        E 360 80 63 00
        E 60 90 65 60
        E 60 90 62 60
        E 60 80 62 00
        E 120 80 65 00
        E 60 90 60 60
        E 60 80 60 00
        E 180 90 61 60
        E 60 80 61 00
        E 180 90 64 60
        E 60 80 64 00
        E 180 90 62 60
        E 60 80 62 00
        E 180 90 63 60
        E 60 80 63 00
        E 180 90 62 60
        E 60 80 62 00
        E 180 90 60 60
        E 60 80 60 00
        E 180 90 61 60
        E 60 80 61 00
        E 180 90 63 60
        E 360 80 63 00
        E 120 90 60 60
        E 360 80 60 00
        E 120 90 60 60
        E 60 80 60 00
        E 120 90 66 60
        E 60 90 62 60
        E 240 80 66 00
        E 120 80 62 00
        E 120 90 61 60
        E 60 80 61 00
        E 180 90 62 60
        E 60 80 62 00
        E 180 90 63 60
        E 60 80 63 00
        E 180 90 62 60
        E 60 80 62 00
        E 180 90 63 60
        E 60 80 63 00
        E 180 90 64 60
        E 60 80 64 00
        E 500 90 61 60
        E 120 80 61 00
        E 200 90 61 60
        E 80 80 61 00
        E 240 90 61 60
        E 120 80 61 00
        E 200 90 62 60
        E 40 80 62 00
        E 280 90 62 60
        E 40 80 62 00
        E 280 90 60 60
        E 60 80 60 00
        E 9540 90 61 60
        E 360 80 61 00
        E 120 90 60 60
        E 360 80 60 00
        E 120 90 60 60
        E 60 80 60 00
        E 180 90 60 60
        E 360 80 60 00
        E 120 90 60 60
        E 360 80 60 00
        E 120 90 60 60
        E 60 80 60 00
        E 180 90 61 60
        E 360 80 61 00
        E 120 90 60 60
        E 360 80 60 00
        E 120 90 60 60
        E 60 80 60 00
        E 180 90 60 60
        E 360 80 60 00
        E 120 90 60 60
        E 360 80 60 00
        E 120 90 60 60
        E 60 80 60 00
        E 180 90 63 60
        E 60 80 63 00
        E 120 90 65 60
        E 60 90 62 60
        E 60 80 62 00
        E 120 80 65 00
        E 60 90 61 60
        E 60 80 61 00
        E 180 90 63 60
        E 60 80 63 00
        E 180 90 60 60
        E 60 80 60 00
        E 180 90 61 60
        E 60 80 61 00
        E 180 90 62 60
        E 60 80 62 00
        E 180 90 61 60
        E 60 80 61 00
        E 180 90 62 60
        E 60 80 62 00
        E 180 90 63 60
        E 60 80 63 00
        E 180 90 64 60
        E 360 80 64 00
        E 120 90 61 60
        E 0 90 74 60
        E 60 80 61 00
        E 180 90 64 60
        E 60 80 64 00
        E 180 90 60 60
        E 60 80 60 00
        E 180 90 62 60
        E 60 80 62 00
        E 180 90 63 60
        E 60 80 63 00
        E 180 90 62 60
        E 60 80 62 00
        E 180 90 64 60
        E 60 80 64 00
        E 180 90 63 60
        E 60 80 63 00
        E 180 80 74 00
        E 0 90 61 60
        E 360 80 61 00
        E 120 90 60 60
        E 360 80 60 00
        E 120 90 60 60
        E 60 80 60 00
        E 180 90 60 60
        E 360 80 60 00
        E 120 90 60 60
        E 360 80 60 00
        E 120 90 60 60
        E 60 80 60 00
        E 180 90 61 60
        E 360 80 61 00
        E 120 90 60 60
        E 360 80 60 00
        E 120 90 60 60
        E 60 80 60 00
        E 180 90 60 60
        E 360 80 60 00
        E 120 90 60 60
        E 360 80 60 00
        E 120 90 60 60
        E 60 80 60 00
        E 180 90 61 60
        E 60 80 61 00
        E 180 90 62 60
        E 60 80 62 00
        E 180 90 63 60
        E 60 80 63 00
        E 180 90 62 60
        E 60 80 62 00
        E 180 90 63 60
        E 60 80 63 00
        E 180 90 61 60
        E 60 80 61 00
        E 180 90 62 60
        E 60 80 62 00
        E 180 90 63 60
        E 60 80 63 00
        E 180 90 62 60
        E 60 80 62 00
        E 180 90 61 60
        E 60 80 61 00
        E 180 90 60 60
        E 60 80 60 00
        E 180 90 61 60
        E 60 80 61 00
        E 180 90 62 60
        E 60 80 62 00
        E 180 90 61 60
        E 60 80 61 00
        E 180 90 62 60
        E 60 80 62 00
        E 180 90 60 60
        E 60 80 60 00
        E 180 90 61 60
        E 60 80 61 00
        E 180 90 63 60
        E 60 80 63 00
        E 180 90 61 60
        E 60 80 61 00
        E 180 90 62 60
        E 60 80 62 00
        E 180 90 61 60
        E 360 80 61 00
        E 120 90 60 60
        E 360 80 60 00
        E 120 90 60 60
        E 60 80 60 00
        E 180 90 60 60
        E 360 80 60 00
        E 120 90 60 60
        E 360 80 60 00
        E 120 90 60 60
        E 60 80 60 00
        E 180 90 61 60
        E 360 80 61 00
        E 120 90 60 60
        E 360 80 60 00
        E 120 90 60 60
        E 60 80 60 00
        E 180 90 60 60
        E 360 80 60 00
        E 120 90 60 60
        E 360 80 60 00
        E 120 90 60 60
        E 60 80 60 00
        E 180 90 63 60
        E 60 80 63 00
        E 120 90 65 60
        E 60 90 62 60
        E 60 80 62 00
        E 120 80 65 00
        E 60 90 61 60
        E 60 80 61 00
        E 180 90 63 60
        E 60 80 63 00
        E 180 90 60 60
        E 60 80 60 00
        E 180 90 61 60
        E 60 80 61 00
        E 180 90 62 60
        E 60 80 62 00
        E 180 90 61 60
        E 60 80 61 00
        E 180 90 62 60
        E 60 80 62 00
        E 180 90 63 60
        E 60 80 63 00
        E 180 90 64 60
        E 360 80 64 00
        E 120 90 61 60
        E 60 80 61 00
        E 180 90 64 60
        E 60 80 64 00
        E 180 90 60 60
        E 60 80 60 00
        E 180 90 62 60
        E 60 80 62 00
        E 180 90 63 60
        E 60 80 63 00
        E 180 90 62 60
        E 60 80 62 00
        E 180 90 64 60
        E 60 80 64 00
        E 180 90 63 60
        E 60 80 63 00
        E 180 90 61 60
        E 360 80 61 00
        E 120 90 60 60
        E 360 80 60 00
        E 120 90 60 60
        E 60 80 60 00
        E 180 90 60 60
        E 360 80 60 00
        E 120 90 60 60
        E 360 80 60 00
        E 120 90 60 60
        E 60 80 60 00
        E 180 90 61 60
        E 360 80 61 00
        E 120 90 60 60
        E 360 80 60 00
        E 120 90 60 60
        E 60 80 60 00
        E 180 90 60 60
        E 360 80 60 00
        E 120 90 60 60
        E 360 80 60 00
        E 120 90 60 60
        E 60 80 60 00
        E 180 90 61 60
        E 60 80 61 00
        E 180 90 62 60
        E 60 80 62 00
        E 180 90 63 60
        E 60 80 63 00
        E 180 90 62 60
        E 60 80 62 00
        E 180 90 63 60
        E 60 80 63 00
        E 180 90 61 60
        E 60 80 61 00
        E 180 90 62 60
        E 60 80 62 00
        E 180 90 63 60
        E 60 80 63 00
        E 180 90 62 60
        E 60 80 62 00
        E 180 90 61 60
        E 60 80 61 00
        E 180 90 60 60
        E 60 80 60 00
        E 180 90 61 60
        E 60 80 61 00
        E 180 90 62 60
        E 60 80 62 00
        E 180 90 61 60
        E 60 80 61 00
        E 180 90 62 60
        E 60 80 62 00
        E 180 90 60 60
        E 60 80 60 00
        E 180 90 61 60
        E 60 80 61 00
        E 180 90 63 60
        E 60 80 63 00
        E 180 90 61 60
        E 60 80 61 00
        E 180 90 62 60
        E 60 80 62 00
        E 180 90 63 60
        E 0 90 74 60
        E 360 80 63 00
        E 0 90 65 60
        E 120 90 62 60
        E 60 80 62 00
        E 60 80 65 00
        E 120 90 60 60
        E 60 80 60 00
        E 1140 80 74 00
        E 240 90 60 60
        E 60 80 60 00
        E 660 90 60 60
        E 60 80 60 00
        E 180 90 60 60
        E 60 80 60 00
        E 420 90 60 60
        E 60 80 60 00
        E 60 90 60 60
        E 60 80 60 00
        E 60 90 60 60
        E 60 80 60 00
        E 180 90 60 60
        E 60 80 60 00
        E 180 90 60 60
        E 360 80 60 00
        E 120 90 63 60
        E 60 80 63 00
        E 180 90 60 60
        E 600 80 60 00
        E 120 90 60 60
        E 60 80 60 00
        E 180 90 61 60
        E 600 80 61 00
        E 120 90 60 60
        E 60 80 60 00
        E 180 90 62 60
        E 360 80 62 00
        E 120 90 60 60
        E 60 80 60 00
        E 180 90 63 60
        E 360 80 63 00
        E 0 90 65 60
        E 120 90 62 60
        E 60 80 62 00
        E 60 80 65 00
        E 120 90 61 60
        E 60 80 61 00
        E 180 90 62 60
        E 60 80 62 00
        E 180 90 64 60
        E 60 80 64 00
        E 180 90 61 60
        E 60 80 61 00
        E 180 90 63 60
        E 60 80 63 00
        E 180 90 61 60
        E 360 80 61 00
        E 120 90 62 60
        E 360 80 62 00
        E 120 90 60 60
        E 60 80 60 00
        E 180 90 60 60
        E 60 80 60 00
        E 420 90 60 60
        E 60 80 60 00
        E 60 90 60 60
        E 60 80 60 00
        E 60 90 60 60
        E 360 80 60 00
        E 120 90 60 60
        E 360 80 60 00
        E 120 90 63 60
        E 60 80 63 00
        E 180 90 60 60
        E 600 80 60 00
        E 120 90 60 60
        E 60 80 60 00
        E 260 90 61 60
        E 120 80 61 00
        E 200 90 61 60
        E 80 80 61 00
        E 240 90 61 60
        E 120 80 61 00
        E 200 90 62 60
        E 40 80 62 00
        E 280 90 62 60
        E 40 80 62 00
        E 280 90 63 60
        E 360 80 63 00
        E 0 90 65 60
        E 120 90 62 60
        E 60 80 62 00
        E 60 80 65 00
        E 120 90 60 60
        E 60 80 60 00
        E 1380 90 60 60
        E 60 80 60 00
        E 660 90 60 60
        E 60 80 60 00
        E 180 90 60 60
        E 60 80 60 00
        E 420 90 60 60
        E 60 80 60 00
        E 60 90 60 60
        E 60 80 60 00
        E 60 90 60 60
        E 60 80 60 00
        E 180 90 60 60
        E 60 80 60 00
        E 180 90 60 60
        E 360 80 60 00
        E 120 90 63 60
        E 60 80 63 00
        E 180 90 60 60
        E 600 80 60 00
        E 120 90 60 60
        E 60 80 60 00
        E 180 90 61 60
        E 600 80 61 00
        E 120 90 60 60
        E 60 80 60 00
        E 180 90 62 60
        E 360 80 62 00
        E 120 90 60 60
        E 60 80 60 00
        E 180 90 63 60
        E 360 80 63 00
        E 0 90 65 60
        E 120 90 62 60
        E 60 80 62 00
        E 60 80 65 00
        E 120 90 61 60
        E 60 80 61 00
        E 180 90 62 60
        E 60 80 62 00
        E 180 90 64 60
        E 60 80 64 00
        E 180 90 61 60
        E 60 80 61 00
        E 180 90 63 60
        E 60 80 63 00
        E 180 90 61 60
        E 600 80 61 00
        E 120 90 60 60
        E 60 80 60 00
        E 180 90 61 60
        E 360 80 61 00
        E 120 90 60 60
        E 60 80 60 00
        E 180 90 61 60
        E 60 80 61 00
        E 180 90 62 60
        E 600 80 62 00
        E 120 90 64 60
        E 600 80 64 00
        E 120 90 60 60
        E 360 80 60 00
        E 2040 90 63 60
        E 0 90 74 60
        E 60 80 63 00
        E 180 90 63 60
        E 60 80 63 00
        E 180 90 63 60
        E 600 80 63 00
        E 120 90 63 60
        E 60 80 63 00
        E 60 90 63 60
        E 66 80 63 00
        E 54 90 63 60
        E 60 80 63 00
        E 60 90 63 60
        E 60 80 63 00
        E 60 90 63 60
        E 240 80 74 00
        E 360 80 63 00
        E 120 90 63 60
        E 60 80 63 00
        E 60 90 63 60
        E 60 80 63 00
        E 60 90 63 60
        E 60 80 63 00
        E 60 90 63 60
        E 60 80 63 00
        E 0 90 66 60
        E 60 90 62 60
        E 120 80 66 00
        E 480 80 62 00
        E 120 90 64 60
        E 60 80 64 00
        E 60 90 64 60
        E 60 80 64 00
        E 60 90 64 60
        E 60 80 64 00
        E 60 90 64 60
        E 60 80 64 00
        E 60 90 64 60
        E 600 80 64 00
        E 120 90 64 60
        E 60 80 64 00
        E 60 90 64 60
        E 60 80 64 00
        E 60 90 64 60
        E 60 80 64 00
        E 60 90 64 60
        E 60 80 64 00
        E 60 90 64 60
        E 360 80 64 00
        E 120 90 64 60
        E 360 80 64 00
        E 120 90 64 60
        E 60 80 64 00
        E 60 90 64 60
        E 60 80 64 00
        E 60 90 64 60
        E 60 80 64 00
        E 60 90 64 60
        E 60 80 64 00
        E 60 90 64 60
        E 60 80 64 00
        E 180 90 64 60
        E 60 80 64 00
        E 180 90 64 60
        E 60 80 64 00
        E 180 90 64 60
        E 60 80 64 00
        E 180 90 60 60
        E 60 80 60 00
        E 60 90 60 60
        E 60 80 60 00
        E 60 90 60 60
        E 60 80 60 00
        E 60 90 60 60
        E 60 80 60 00
        E 60 90 60 60
        E 600 80 60 00
        E 120 90 60 60
        E 60 80 60 00
        E 60 90 60 60
        E 60 80 60 00
        E 60 90 60 60
        E 60 80 60 00
        E 60 90 60 60
        E 60 80 60 00
        E 60 90 60 60
        E 600 80 60 00
        E 120 90 60 60
        E 60 80 60 00
        E 60 90 60 60
        E 60 80 60 00
        E 60 90 60 60
        E 60 80 60 00
        E 60 90 60 60
        E 60 80 60 00
        E 60 90 60 60
        E 360 80 60 00
        E 120 90 61 60
        E 840 80 61 00
        E 120 90 62 60
        E 840 80 62 00
        E 120 90 63 60
        E 840 80 63 00
        E 120 90 61 60
        E 360 80 61 00
        E 120 90 64 60
        E 360 80 64 00
        E 120 90 64 60
        E 360 80 64 00
        E 120 90 63 60
        E 60 80 63 00
        E 180 90 63 60
        E 60 80 63 00
        E 180 90 63 60
        E 600 80 63 00
        E 120 90 63 60
        E 60 80 63 00
        E 60 90 63 60
        E 66 80 63 00
        E 54 90 63 60
        E 60 80 63 00
        E 60 90 63 60
        E 60 80 63 00
        E 60 90 63 60
        E 600 80 63 00
        E 120 90 63 60
        E 60 80 63 00
        E 60 90 63 60
        E 60 80 63 00
        E 60 90 63 60
        E 60 80 63 00
        E 60 90 63 60
        E 60 80 63 00
        E 0 90 66 60
        E 60 90 62 60
        E 120 80 66 00
        E 480 80 62 00
        E 120 90 64 60
        E 60 80 64 00
        E 60 90 64 60
        E 60 80 64 00
        E 60 90 64 60
        E 60 80 64 00
        E 60 90 64 60
        E 60 80 64 00
        E 60 90 64 60
        E 600 80 64 00
        E 120 90 64 60
        E 60 80 64 00
        E 60 90 64 60
        E 60 80 64 00
        E 60 90 64 60
        E 60 80 64 00
        E 60 90 64 60
        E 60 80 64 00
        E 60 90 64 60
        E 360 80 64 00
        E 120 90 64 60
        E 360 80 64 00
        E 120 90 64 60
        E 60 80 64 00
        E 60 90 64 60
        E 60 80 64 00
        E 60 90 64 60
        E 60 80 64 00
        E 60 90 64 60
        E 60 80 64 00
        E 60 90 64 60
        E 60 80 64 00
        E 180 90 64 60
        E 60 80 64 00
        E 180 90 64 60
        E 60 80 64 00
        E 180 90 64 60
        E 60 80 64 00
        E 180 90 60 60
        E 60 80 60 00
        E 60 90 60 60
        E 60 80 60 00
        E 60 90 60 60
        E 60 80 60 00
        E 60 90 60 60
        E 60 80 60 00
        E 60 90 60 60
        E 600 80 60 00
        E 120 90 60 60
        E 60 80 60 00
        E 60 90 60 60
        E 60 80 60 00
        E 60 90 60 60
        E 60 80 60 00
        E 60 90 60 60
        E 60 80 60 00
        E 60 90 60 60
        E 600 80 60 00
        E 120 90 60 60
        E 60 80 60 00
        E 60 90 60 60
        E 60 80 60 00
        E 60 90 60 60
        E 60 80 60 00
        E 60 90 60 60
        E 60 80 60 00
        E 60 90 60 60
        E 360 80 60 00
        E 120 90 61 60
        E 840 80 61 00
        E 120 90 62 60
        E 840 80 62 00
        E 120 90 63 60
        E 840 80 63 00
        E 120 90 61 60
        E 360 80 61 00
        E 120 90 61 60
        E 360 80 61 00
        E 120 90 61 60
        E 360 80 61 00
        E 120 90 60 60
        E 0 90 74 60
        E 360 80 60 00
        E 120 90 60 60
        E 360 80 60 00
        E 120 90 60 60
        E 960 80 74 00
        E 1320 80 60 00
        E 120 90 61 60
        E 840 80 61 00
        E 120 90 62 60
        E 840 80 62 00
        E 120 90 63 60
        E 840 80 63 00
        E 120 90 61 60
        E 360 80 61 00
        E 120 90 60 60
        E 360 80 60 00
        E 120 90 62 60
        E 360 80 62 00
        E 120 90 63 60
        E 360 80 63 00
        E 120 90 63 60
        E 360 80 63 00
        E 120 90 63 60
        E 2280 80 63 00
        E 120 90 64 60
        E 840 80 64 00
        E 120 90 64 60
        E 360 80 64 00
        E 120 90 64 60
        E 840 80 64 00
        E 120 90 64 60
        E 360 80 64 00
        E 120 90 64 60
        E 360 80 64 00
        E 120 90 64 60
        E 360 80 64 00
        E 120 90 60 60
        E 360 80 60 00
        E 120 90 60 60
        E 360 80 60 00
        E 120 90 60 60
        E 360 80 60 00
        E 120 90 60 60
        E 2280 80 60 00
        E 120 90 61 60
        E 840 80 61 00
        E 120 90 62 60
        E 840 80 62 00
        E 120 90 63 60
        E 840 80 63 00
        E 120 90 61 60
        E 360 80 61 00
        E 120 90 60 60
        E 360 80 60 00
        E 120 90 62 60
        E 360 80 62 00
        E 120 90 63 60
        E 360 80 63 00
        E 120 90 63 60
        E 360 80 63 00
        E 120 90 63 60
        E 2280 80 63 00
        E 120 90 64 60
        E 840 80 64 00
        E 120 90 64 60
        E 360 80 64 00
        E 120 90 64 60
        E 840 80 64 00
        E 120 90 64 60
        E 360 80 64 00
        E 120 90 62 60
        E 360 80 62 00
        E 120 90 62 60
        E 360 80 62 00
        E 120 90 62 60
        E 360 80 62 00
        E 120 90 63 60
        E 360 80 63 00
        E 120 90 63 60
        E 360 80 63 00
        E 120 90 63 60
        E 2280 80 63 00
        E 120 90 64 60
        E 840 80 64 00
        E 120 90 64 60
        E 360 80 64 00
        E 120 90 64 60
        E 840 80 64 00
        E 120 90 64 60
        E 360 80 64 00
        E 120 90 64 60
        E 360 80 64 00
        E 120 90 64 60
        E 360 80 64 00
        E 120 90 64 60
        E 360 80 64 00
        E 120 90 60 60
        E 0 90 74 60
        E 360 80 60 00
        E 120 90 60 60
        E 360 80 60 00
        E 120 90 60 60
        E 960 80 74 00
        E 1320 80 60 00
        E 120 90 61 60
        E 840 80 61 00
        E 120 90 62 60
        E 840 80 62 00
        E 120 90 63 60
        E 840 80 63 00
        E 120 90 61 60
        E 360 80 61 00
        E 120 90 60 60
        E 360 80 60 00
        E 120 90 62 60
        E 360 80 62 00
        E 120 90 63 60
        E 360 80 63 00
        E 120 90 63 60
        E 360 80 63 00
        E 120 90 63 60
        E 2280 80 63 00
        E 120 90 64 60
        E 840 80 64 00
        E 120 90 64 60
        E 360 80 64 00
        E 120 90 64 60
        E 840 80 64 00
        E 120 90 64 60
        E 360 80 64 00
        E 120 90 64 60
        E 360 80 64 00
        E 120 90 64 60
        E 360 80 64 00
        E 120 90 64 60
        E 360 80 64 00
        E 120 90 60 60
        E 360 80 60 00
        E 120 90 60 60
        E 360 80 60 00
        E 120 90 60 60
        E 2280 80 60 00
        E 120 90 61 60
        E 840 80 61 00
        E 120 90 62 60
        E 840 80 62 00
        E 120 90 64 60
        E 420 90 65 60
        E 900 80 64 00
        E 120 90 61 60
        E 840 80 65 00
        E 0 80 61 00
        E 120 90 63 60
        E 60 80 63 00
        E 132 90 63 60
        E 60 80 63 00
        E 132 90 63 60
        E 60 80 63 00
        E 132 90 63 60
        E 60 80 63 00
        E 132 90 63 60
        E 60 80 63 00
        E 132 90 63 60
        E 60 80 63 00
        E 132 90 63 60
        E 60 80 63 00
        E 132 90 63 60
        E 60 80 63 00
        E 132 90 63 60
        E 60 80 63 00
        E 132 90 63 60
        E 60 80 63 00
        E 132 90 63 60
        E 60 80 63 00
        E 132 90 63 60
        E 60 80 63 00
        E 132 90 63 60
        E 60 80 63 00
        E 132 90 63 60
        E 60 80 63 00
        E 132 90 63 60
        E 60 80 63 00
        E 132 90 63 60
        E 60 80 63 00
        E 132 90 63 60
        E 60 80 63 00
        E 132 90 63 60
        E 60 80 63 00
        E 132 90 63 60
        E 60 80 63 00
        E 132 90 63 60
        E 12 90 66 60
        E 48 80 63 00
        E 132 90 64 60
        E 60 80 64 00
        E 132 90 64 60
        E 48 80 66 00
        E 12 80 64 00
        E 132 90 64 60
        E 60 80 64 00
        E 132 90 64 60
        E 60 80 64 00
        E 132 90 64 60
        E 60 80 64 00
        E 132 90 64 60
        E 60 80 64 00
        E 132 90 64 60
        E 60 80 64 00
        E 132 90 64 60
        E 60 80 64 00
        E 132 90 64 60
        E 60 80 64 00
        E 132 90 64 60
        E 60 80 64 00
        E 132 90 64 60
        E 60 80 64 00
        E 132 90 64 60
        E 60 80 64 00
        E 132 90 64 60
        E 60 80 64 00
        E 132 90 64 60
        E 60 80 64 00
        E 132 90 64 60
        E 60 80 64 00
        E 132 90 64 60
        E 60 80 64 00
        E 132 90 64 60
        E 60 80 64 00
        E 132 90 64 60
        E 60 80 64 00
        E 132 90 64 60
        E 60 80 64 00
        E 84 90 66 60
        E 48 90 64 60
        E 60 80 64 00
        E 132 90 60 60
        E 60 80 60 00
        E 60 80 66 00
        E 72 90 60 60
        E 60 80 60 00
        E 132 90 60 60
        E 60 80 60 00
        E 132 90 60 60
        E 60 80 60 00
        E 132 90 60 60
        E 60 80 60 00
        E 132 90 60 60
        E 60 80 60 00
        E 132 90 60 60
        E 60 80 60 00
        E 132 90 60 60
        E 60 80 60 00
        E 132 90 60 60
        E 60 80 60 00
        E 132 90 60 60
        E 60 80 60 00
        E 132 90 60 60
        E 60 80 60 00
        E 132 90 60 60
        E 60 80 60 00
        E 132 90 60 60
        E 60 80 60 00
        E 132 90 60 60
        E 60 80 60 00
        E 132 90 60 60
        E 60 80 60 00
        E 132 90 60 60
        E 60 80 60 00
        E 132 90 60 60
        E 60 80 60 00
        E 132 90 60 60
        E 60 80 60 00
        E 132 90 60 60
        E 60 80 60 00
        E 132 90 60 60
        E 12 90 66 60
        E 48 80 60 00
        E 132 90 61 60
        E 0 90 74 60
        E 60 80 61 00
        E 120 80 66 00
        E 12 90 61 60
        E 60 80 61 00
        E 132 90 61 60
        E 60 80 61 00
        E 132 90 61 60
        E 60 80 61 00
        E 132 90 61 60
        E 60 80 61 00
        E 12 90 66 60
        E 120 90 62 60
        E 60 80 62 00
        E 120 80 66 00
        E 12 90 62 60
        E 60 80 62 00
        E 132 90 62 60
        E 60 80 62 00
        E 132 90 62 60
        E 60 80 62 00
        E 132 90 62 60
        E 60 80 62 00
        E 12 90 66 60
        E 120 80 74 00
        E 0 90 63 60
        E 60 80 63 00
        E 60 80 66 00
        E 72 90 63 60
        E 60 80 63 00
        E 132 90 63 60
        E 60 80 63 00
        E 132 90 63 60
        E 60 80 63 00
        E 132 90 63 60
        E 60 80 63 00
        E 72 90 66 60
        E 60 80 66 00
        E 0 90 62 60
        E 0 90 66 60
        E 60 80 62 00
        E 120 80 66 00
        E 12 90 62 60
        E 60 80 62 00
        E 132 90 62 60
        E 60 80 62 00
        E 132 90 62 60
        E 60 80 62 00
        E 132 90 62 60
        E 60 80 62 00
        E 12 90 66 60
        E 120 90 63 60
        E 60 80 63 00
        E 132 90 63 60
        E 48 80 66 00
        E 12 80 63 00
        E 132 90 63 60
        E 60 80 63 00
        E 132 90 63 60
        E 60 80 63 00
        E 132 90 63 60
        E 60 80 63 00
        E 132 90 63 60
        E 60 80 63 00
        E 132 90 63 60
        E 60 80 63 00
        E 132 90 63 60
        E 60 80 63 00
        E 132 90 63 60
        E 60 80 63 00
        E 132 90 63 60
        E 60 80 63 00
        E 132 90 63 60
        E 60 80 63 00
        E 132 90 63 60
        E 60 80 63 00
        E 132 90 63 60
        E 60 80 63 00
        E 132 90 63 60
        E 60 80 63 00
        E 132 90 63 60
        E 60 80 63 00
        E 132 90 63 60
        E 60 80 63 00
        E 132 90 63 60
        E 60 80 63 00
        E 132 90 63 60
        E 60 80 63 00
        E 132 90 63 60
        E 60 80 63 00
        E 132 90 63 60
        E 12 90 66 60
        E 48 80 63 00
        E 132 90 64 60
        E 60 80 64 00
        E 132 90 64 60
        E 48 80 66 00
        E 12 80 64 00
        E 132 90 64 60
        E 60 80 64 00
        E 132 90 64 60
        E 60 80 64 00
        E 132 90 64 60
        E 60 80 64 00
        E 132 90 64 60
        E 60 80 64 00
        E 132 90 64 60
        E 60 80 64 00
        E 132 90 64 60
        E 60 80 64 00
        E 132 90 64 60
        E 60 80 64 00
        E 132 90 64 60
        E 60 80 64 00
        E 132 90 64 60
        E 60 80 64 00
        E 132 90 64 60
        E 60 80 64 00
        E 132 90 64 60
        E 60 80 64 00
        E 132 90 64 60
        E 60 80 64 00
        E 132 90 64 60
        E 60 80 64 00
        E 132 90 64 60
        E 60 80 64 00
        E 132 90 64 60
        E 60 80 64 00
        E 132 90 64 60
        E 60 80 64 00
        E 132 90 64 60
        E 60 80 64 00
        E 84 90 66 60
        E 48 90 64 60
        E 60 80 64 00
        E 132 90 60 60
        E 60 80 60 00
        E 60 80 66 00
        E 72 90 60 60
        E 60 80 60 00
        E 132 90 60 60
        E 60 80 60 00
        E 132 90 60 60
        E 60 80 60 00
        E 132 90 60 60
        E 60 80 60 00
        E 132 90 60 60
        E 60 80 60 00
        E 132 90 60 60
        E 60 80 60 00
        E 132 90 60 60
        E 60 80 60 00
        E 132 90 60 60
        E 60 80 60 00
        E 132 90 60 60
        E 60 80 60 00
        E 132 90 60 60
        E 60 80 60 00
        E 132 90 60 60
        E 60 80 60 00
        E 132 90 60 60
        E 60 80 60 00
        E 132 90 60 60
        E 60 80 60 00
        E 132 90 60 60
        E 60 80 60 00
        E 132 90 60 60
        E 60 80 60 00
        E 132 90 60 60
        E 60 80 60 00
        E 132 90 60 60
        E 60 80 60 00
        E 132 90 60 60
        E 60 80 60 00
        E 132 90 60 60
        E 12 90 66 60
        E 48 80 60 00
        E 132 90 61 60
        E 60 80 61 00
        E 120 80 66 00
        E 12 90 61 60
        E 60 80 61 00
        E 132 90 61 60
        E 60 80 61 00
        E 132 90 61 60
        E 60 80 61 00
        E 132 90 61 60
        E 60 80 61 00
        E 12 90 66 60
        E 120 90 62 60
        E 60 80 62 00
        E 120 80 66 00
        E 12 90 62 60
        E 60 80 62 00
        E 132 90 62 60
        E 60 80 62 00
        E 132 90 62 60
        E 60 80 62 00
        E 132 90 62 60
        E 60 80 62 00
        E 2052 90 61 60
        E 0 90 62 60
        E 360 80 61 00
        E 0 80 62 00
        E 120 90 60 60
        E 360 80 60 00
        E 120 90 60 60
        E 60 80 60 00
        E 180 90 60 60
        E 360 80 60 00
        E 120 90 60 60
        E 360 80 60 00
        E 120 90 60 60
        E 60 80 60 00
        E 180 90 61 60
        E 0 90 62 60
        E 360 80 61 00
        E 0 80 62 00
        E 120 90 60 60
        E 360 80 60 00
        E 120 90 60 60
        E 60 80 60 00
        E 180 90 60 60
        E 360 80 60 00
        E 120 90 60 60
        E 360 80 60 00
        E 120 90 60 60
        E 60 80 60 00
        E 180 90 63 60
        E 60 80 63 00
        E 120 90 65 60
        E 60 90 62 60
        E 60 80 62 00
        E 120 80 65 00
        E 60 90 61 60
        E 60 80 61 00
        E 180 90 63 60
        E 60 80 63 00
        E 180 90 60 60
        E 60 80 60 00
        E 180 90 61 60
        E 60 80 61 00
        E 180 90 62 60
        E 60 80 62 00
        E 180 90 61 60
        E 60 80 61 00
        E 180 90 62 60
        E 60 80 62 00
        E 180 90 63 60
        E 60 80 63 00
        E 180 90 64 60
        E 360 80 64 00
        E 120 90 61 60
        E 60 80 61 00
        E 180 90 64 60
        E 60 80 64 00
        E 180 90 60 60
        E 60 80 60 00
        E 180 90 62 60
        E 60 80 62 00
        E 180 90 63 60
        E 60 80 63 00
        E 180 90 62 60
        E 60 80 62 00
        E 180 90 64 60
        E 60 80 64 00
        E 180 90 63 60
        E 60 80 63 00
        E 180 90 61 60
        E 0 90 62 60
        E 360 80 61 00
        E 0 80 62 00
        E 120 90 60 60
        E 360 80 60 00
        E 120 90 60 60
        E 60 80 60 00
        E 180 90 60 60
        E 360 80 60 00
        E 120 90 60 60
        E 240 90 74 60
        E 120 80 60 00
        E 120 90 60 60
        E 60 80 60 00
        E 180 90 61 60
        E 0 90 62 60
        E 360 80 61 00
        E 0 80 62 00
        E 120 90 60 60
        E 360 80 60 00
        E 120 90 60 60
        E 60 80 60 00
        E 180 90 60 60
        E 240 80 74 00
        E 120 80 60 00
        E 120 90 60 60
        E 360 80 60 00
        E 120 90 60 60
        E 60 80 60 00
        E 180 90 61 60
        E 60 80 61 00
        E 180 90 62 60
        E 60 80 62 00
        E 180 90 63 60
        E 60 80 63 00
        E 180 90 62 60
        E 60 80 62 00
        E 180 90 63 60
        E 60 80 63 00
        E 180 90 61 60
        E 60 80 61 00
        E 180 90 62 60
        E 60 80 62 00
        E 180 90 63 60
        E 60 80 63 00
        E 180 90 62 60
        E 60 80 62 00
        E 180 90 61 60
        E 60 80 61 00
        E 180 90 60 60
        E 60 80 60 00
        E 180 90 61 60
        E 60 80 61 00
        E 180 90 62 60
        E 60 80 62 00
        E 180 90 61 60
        E 60 80 61 00
        E 180 90 62 60
        E 60 80 62 00
        E 180 90 60 60
        E 60 80 60 00
        E 180 90 61 60
        E 60 80 61 00
        E 180 90 62 60
        E 60 80 62 00
        E 180 90 63 60
        E 60 80 63 00
        E 180 90 64 60
        E 60 80 64 00
        E 180 90 62 60
        E 60 80 62 00
        E 180 90 61 60
        E 60 80 61 00
        E 180 90 60 60
        E 60 80 60 00
        E 180 90 61 60
        E 60 80 61 00
        E 180 90 63 60
        E 60 80 63 00
        E 180 90 62 60
        E 60 80 62 00
        E 180 90 61 60
        E 60 80 61 00
        E 180 90 60 60
        E 60 80 60 00
        E 180 90 61 60
        E 60 80 61 00
        E 180 90 64 60
        E 60 80 64 00
        E 180 90 62 60
        E 60 80 62 00
        E 180 90 61 60
        E 60 80 61 00
        E 180 90 60 60
        E 60 80 60 00
        E 180 90 61 60
        E 60 80 61 00
        E 180 90 64 60
        E 60 80 64 00
        E 180 90 63 60
        E 60 80 63 00
        E 180 90 62 60
        E 60 80 62 00
        E 180 90 61 60
        E 60 80 61 00
        E 180 90 60 60
        E 60 80 60 00
        E 180 90 61 60
        E 60 80 61 00
        E 180 90 62 60
        E 60 80 62 00
        E 180 90 61 60
        E 60 80 61 00
        E 180 90 60 60
        E 60 80 60 00
        E 180 90 61 60
        E 60 80 61 00
        E 180 90 62 60
        E 60 80 62 00
        E 180 90 63 60
        E 60 80 63 00
        E 180 90 62 60
        E 60 80 62 00
        E 180 90 61 60
        E 60 80 61 00
        E 180 90 60 60
        E 60 80 60 00
        E 180 90 62 60
        E 60 80 62 00
        E 180 90 64 60
        E 60 80 64 00
        E 180 90 62 60
        E 60 80 62 00
        E 180 90 61 60
        E 60 80 61 00
        E 180 90 60 60
        E 60 80 60 00
        E 180 90 63 60
        E 60 80 63 00
        E 180 90 64 60
        E 60 80 64 00
        E 180 90 63 60
        E 60 80 63 00
        E 180 90 62 60
        E 60 80 62 00
        E 180 90 61 60
        E 60 80 61 00
        E 180 90 64 60
        E 60 80 64 00
        E 180 90 61 60
        E 60 80 61 00
        E 180 90 63 60
        E 60 80 63 00
        E 180 90 62 60
        E 60 80 62 00
        E 180 90 61 60
        E 60 80 61 00
        E 180 90 60 60
        E 360 80 60 00
        E 120 90 61 60
        E 360 80 61 00
        E 120 90 63 60
        E 360 80 63 00
        E 120 90 64 60
        E 360 80 64 00
        E 120 90 63 60
        E 360 80 63 00
        E 120 90 62 60
        E 360 80 62 00
        E 120 90 60 60
        E 60 80 60 00
        E 180 90 61 60
        E 60 80 61 00
        E 180 90 60 60
        E 60 80 60 00
        E 180 90 61 60
        E 60 80 61 00
        E 180 90 60 60
        E 60 80 60 00
        E 180 90 61 60
        E 60 80 61 00
        E 180 90 62 60
        E 60 80 62 00
        E 180 90 63 60
        E 60 80 63 00
        E 180 90 62 60
        E 60 80 62 00
        E 180 90 61 60
        E 60 80 61 00
        E 180 90 60 60
        E 60 80 60 00
        E 180 90 62 60
        E 60 80 62 00
        E 180 90 61 60
        E 60 80 61 00
        E 180 90 62 60
        E 60 80 62 00
        E 180 90 63 60
        E 60 80 63 00
        E 180 90 64 60
        E 60 80 64 00
        E 180 90 62 60
        E 60 80 62 00
        E 180 90 64 60
        E 60 80 64 00
        E 180 90 63 60
        E 60 80 63 00
        E 180 90 62 60
        E 60 80 62 00
        E 180 90 63 60
        E 360 80 63 00
        E 60 90 65 60
        E 60 90 62 60
        E 60 80 62 00
        E 60 80 65 00
        E 120 90 60 60
        E 60 80 60 00
        E 180 90 61 60
        E 60 80 61 00
        E 180 90 64 60
        E 60 80 64 00
        E 180 90 62 60
        E 60 80 62 00
        E 180 90 63 60
        E 60 80 63 00
        E 60 90 74 60
        E 120 90 62 60
        E 60 80 62 00
        E 260 90 61 60
        E 40 80 61 00
        E 280 90 61 60
        E 40 80 61 00
        E 280 90 61 60
        E 40 80 61 00
        E 280 90 62 60
        E 40 80 62 00
        E 280 90 62 60
        E 40 80 62 00
        E 280 80 74 00
        E 0 90 63 60
        E 360 80 63 00
        E 60 90 65 60
        E 60 90 62 60
        E 60 80 62 00
        E 60 80 65 00
        E 120 90 60 60
        E 60 80 60 00
        E 180 90 61 60
        E 60 80 61 00
        E 180 90 64 60
        E 60 80 64 00
        E 180 90 62 60
        E 60 80 62 00
        E 180 90 63 60
        E 60 80 63 00
        E 180 90 62 60
        E 60 80 62 00
        E 260 90 61 60
        E 40 80 61 00
        E 279 90 61 60
        E 40 80 61 00
        E 281 90 61 60
        E 40 80 61 00
        E 280 90 62 60
        E 40 80 62 00
        E 279 90 62 60
        E 40 80 62 00
        E 281 90 63 60
        E 360 80 63 00
        E 60 90 65 60
        E 60 90 62 60
        E 60 80 62 00
        E 60 80 65 00
        E 120 90 60 60
        E 60 80 60 00
        E 180 90 61 60
        E 60 80 61 00
        E 180 90 64 60
        E 60 80 64 00
        E 180 90 62 60
        E 60 80 62 00
        E 180 90 63 60
        E 60 80 63 00
        E 180 90 62 60
        E 60 80 62 00
        E 260 90 61 60
        E 40 80 61 00
        E 279 90 61 60
        E 40 80 61 00
        E 281 90 61 60
        E 40 80 61 00
        E 280 90 62 60
        E 40 80 62 00
        E 279 90 62 60
        E 40 80 62 00
        E 281 90 63 60
        E 360 80 63 00
        E 60 90 65 60
        E 60 90 62 60
        E 60 80 62 00
        E 60 80 65 00
        E 120 90 60 60
        E 60 80 60 00
        E 180 90 61 60
        E 60 80 61 00
        E 180 90 64 60
        E 60 80 64 00
        E 180 90 62 60
        E 60 80 62 00
        E 180 90 63 60
        E 60 80 63 00
        E 180 90 62 60
        E 60 80 62 00
        E 260 90 61 60
        E 40 80 61 00
        E 279 90 61 60
        E 40 80 61 00
        E 281 90 61 60
        E 40 80 61 00
        E 280 90 62 60
        E 40 80 62 00
        E 279 90 62 60
        E 40 80 62 00
        E 521 90 61 60
        E 60 80 61 00
        E 180 90 61 60
        E 60 80 61 00
        E 180 90 61 60
        E 60 80 61 00
        E 180 90 62 60
        E 60 80 62 00
        E 180 90 62 60
        E 60 80 62 00
        E 420 90 61 60
        E 60 80 61 00
        E 180 90 61 60
        E 60 80 61 00
        E 180 90 61 60
        E 60 80 61 00
        E 180 90 62 60
        E 60 80 62 00
        E 180 90 62 60
        E 60 80 62 00
        E 420 90 61 60
        E 60 80 61 00
        E 180 90 61 60
        E 60 80 61 00
        E 180 90 61 60
        E 60 80 61 00
        E 180 90 62 60
        E 60 80 62 00
        E 180 90 62 60
        E 60 80 62 00
        E 420 90 61 60
        E 60 80 61 00
        E 180 90 61 60
        E 60 80 61 00
        E 180 90 61 60
        E 60 80 61 00
        E 180 90 62 60
        E 60 80 62 00
        E 180 90 62 60
        E 60 80 62 00
        E 420 90 61 60
        E 60 80 61 00
        E 180 90 61 60
        E 60 80 61 00
        E 180 90 61 60
        E 60 80 61 00
        E 180 90 62 60
        E 60 80 62 00
        E 180 90 62 60
        E 60 80 62 00
        E 420 90 61 60
        E 60 80 61 00
        E 180 90 61 60
        E 60 80 61 00
        E 180 90 61 60
        E 60 80 61 00
        E 180 90 62 60
        E 60 80 62 00
        E 180 90 62 60
        E 60 80 62 00
        E 420 90 61 60
        E 60 80 61 00
        E 180 90 61 60
        E 60 80 61 00
        E 180 90 61 60
        E 60 80 61 00
        E 180 90 62 60
        E 60 80 62 00
        E 180 90 62 60
        E 60 80 62 00
        E 420 90 61 60
        E 60 80 61 00
        E 180 90 61 60
        E 60 80 61 00
        E 180 90 61 60
        E 60 80 61 00
        E 180 90 62 60
        E 60 80 62 00
        E 180 90 62 60
        E 60 80 62 00
        e 180 90 74 60
        E 240 90 61 60
        E 60 80 61 00
        E 180 90 61 60
        E 60 80 61 00
        E 180 90 61 60
        E 60 80 61 00
        E 180 90 62 60
        E 60 80 62 00
        E 180 90 62 60
        E 60 80 62 00
        e 180 80 74 00
        E 240 90 61 60
        E 60 80 61 00
        E 180 90 61 60
        E 60 80 61 00
        E 180 90 61 60
        E 60 80 61 00
        E 180 90 62 60
        E 60 80 62 00
        E 180 90 62 60
        E 60 80 62 00
        E 420 90 61 60
        E 60 80 61 00
        E 180 90 61 60
        E 60 80 61 00
        E 180 90 61 60
        E 60 80 61 00
        E 180 90 62 60
        E 60 80 62 00
        E 180 90 62 60
        E 60 80 62 00
        E 420 90 61 60
        E 60 80 61 00
        E 180 90 61 60
        E 60 80 61 00
        E 180 90 61 60
        E 60 80 61 00
        E 180 90 62 60
        E 60 80 62 00
        E 180 90 62 60
        E 60 80 62 00
        E 420 90 61 60
        E 60 80 61 00
        E 180 90 61 60
        E 60 80 61 00
        E 180 90 61 60
        E 60 80 61 00
        E 180 90 62 60
        E 60 80 62 00
        E 180 90 62 60
        E 60 80 62 00
        E 420 90 61 60
        E 60 80 61 00
        E 180 90 61 60
        E 60 80 61 00
        E 180 90 61 60
        E 60 80 61 00
        E 180 90 62 60
        E 60 80 62 00
        E 180 90 62 60
        E 60 80 62 00
        E 420 90 61 60
        E 60 80 61 00
        E 180 90 61 60
        E 60 80 61 00
        E 180 90 61 60
        E 60 80 61 00
        E 180 90 62 60
        E 60 80 62 00
        E 180 90 62 60
        E 60 80 62 00
        E 420 90 61 60
        E 60 80 61 00
        E 180 90 61 60
        E 60 80 61 00
        E 180 90 61 60
        E 60 80 61 00
        E 180 90 62 60
        E 60 80 62 00
        E 180 90 62 60
        E 60 80 62 00
        E 420 90 61 60
        E 60 80 61 00
        E 180 90 61 60
        E 60 80 61 00
        E 180 90 61 60
        E 60 80 61 00
        E 180 90 62 60
        E 60 80 62 00
        E 180 90 62 60
        E 60 80 62 00
        E 420 90 61 60
        E 60 80 61 00
        E 180 90 61 60
        E 60 80 61 00
        E 180 90 61 60
        E 60 80 61 00
        E 180 90 62 60
        E 60 80 62 00
        E 180 90 62 60
        E 60 80 62 00
        E 420 90 61 60
        E 60 80 61 00
        E 180 90 61 60
        E 60 80 61 00
        E 180 90 61 60
        E 60 80 61 00
        E 180 90 62 60
        E 60 80 62 00
        E 180 90 62 60
        E 60 80 62 00
        E 420 90 61 60
        E 60 80 61 00
        E 180 90 61 60
        E 60 80 61 00
        E 180 90 61 60
        E 60 80 61 00
        E 60 90 61 60
        E 60 80 61 00
        E 60 90 61 60
        E 60 80 61 00
        E 60 90 61 60
        E 0 90 66 60
        E 60 80 61 00
        E 60 90 62 60
        E 60 80 62 00
        E 60 80 66 00
        E 360 90 61 60
        E 60 80 61 00
        E 180 90 61 60
        E 60 80 61 00
        E 180 90 61 60
        E 60 80 61 00
        E 180 90 61 60
        E 60 80 61 00
        E 180 90 61 60
        E 60 80 61 00
        E 420 90 61 60
        E 60 80 61 00
        E 180 90 61 60
        E 60 80 61 00
        E 180 90 61 60
        E 60 80 61 00
        E 180 90 61 60
        E 60 80 61 00
        E 180 90 61 60
        E 60 80 61 00
        E 180 90 74 60
        E 240 90 62 60
        E 60 80 62 00
        E 180 90 62 60
        E 60 80 62 00
        E 180 90 62 60
        E 60 80 62 00
        E 180 90 62 60
        E 60 80 62 00
        E 180 90 62 60
        E 60 80 62 00
        E 420 90 63 60
        E 60 80 63 00
        E 180 90 63 60
        E 60 80 63 00
        E 180 90 63 60
        E 60 80 63 00
        E 180 90 63 60
        E 60 80 63 00
        E 180 90 63 60
        E 60 80 63 00
        E 180 80 74 00
        E 240 90 64 60
        E 60 80 64 00
        E 180 90 64 60
        E 60 80 64 00
        E 180 90 64 60
        E 60 80 64 00
        E 180 90 64 60
        E 60 80 64 00
        E 180 90 64 60
        E 60 80 64 00
        E 420 90 60 60
        E 60 80 60 00
        E 180 90 60 60
        E 60 80 60 00
        E 180 90 60 60
        E 60 80 60 00
        E 180 90 60 60
        E 60 80 60 00
        E 180 90 60 60
        E 60 80 60 00
        E 420 90 61 60
        E 60 80 61 00
        E 180 90 61 60
        E 60 80 61 00
        E 180 90 61 60
        E 60 80 61 00
        E 180 90 61 60
        E 60 80 61 00
        E 180 90 61 60
        E 60 80 61 00
        E 420 90 61 60
        E 60 80 61 00
        E 180 90 61 60
        E 60 80 61 00
        E 180 90 61 60
        E 60 80 61 00
        E 180 90 61 60
        E 60 80 61 00
        E 180 90 61 60
        E 60 80 61 00
        E 420 90 62 60
        E 60 80 62 00
        E 180 90 62 60
        E 60 80 62 00
        E 180 90 62 60
        E 60 80 62 00
        E 180 90 62 60
        E 60 80 62 00
        E 180 90 62 60
        E 60 80 62 00
        E 420 90 63 60
        E 60 80 63 00
        E 180 90 63 60
        E 60 80 63 00
        E 180 90 63 60
        E 60 80 63 00
        E 180 90 63 60
        E 60 80 63 00
        E 180 90 63 60
        E 60 80 63 00
        E 420 90 64 60
        E 60 80 64 00
        E 180 90 64 60
        E 60 80 64 00
        E 180 90 64 60
        E 60 80 64 00
        E 180 90 64 60
        E 60 80 64 00
        E 180 90 64 60
        E 60 80 64 00
        E 420 90 60 60
        E 60 80 60 00
        E 180 90 60 60
        E 60 80 60 00
        E 180 90 60 60
        E 60 80 60 00
        E 180 90 60 60
        E 60 80 60 00
        E 180 90 60 60
        E 60 80 60 00
        E 420 90 63 60
        E 60 80 63 00
        E 180 90 63 60
        E 60 80 63 00
        E 180 90 63 60
        E 60 80 63 00
        E 180 90 63 60
        E 60 80 63 00
        E 180 90 64 60
        E 60 80 64 00
        E 420 90 63 60
        E 60 80 63 00
        E 180 90 63 60
        E 60 80 63 00
        E 180 90 63 60
        E 60 80 63 00
        E 180 90 63 60
        E 60 80 63 00
        E 180 90 64 60
        E 60 80 64 00
        E 420 90 62 60
        E 60 80 62 00
        E 180 90 62 60
        E 60 80 62 00
        E 180 90 62 60
        E 60 80 62 00
        E 180 90 62 60
        E 60 80 62 00
        E 180 90 62 60
        E 60 80 62 00
        E 420 90 61 60
        E 60 80 61 00
        E 180 90 61 60
        E 60 80 61 00
        E 180 90 61 60
        E 60 80 61 00
        E 180 90 61 60
        E 60 80 61 00
        E 180 90 61 60
        E 60 80 61 00
        E 420 90 62 60
        E 60 80 62 00
        E 180 90 62 60
        E 60 80 62 00
        E 180 90 62 60
        E 60 80 62 00
        E 180 90 62 60
        E 60 80 62 00
        E 180 90 62 60
        E 60 80 62 00
        E 420 90 60 60
        E 60 80 60 00
        E 180 90 60 60
        E 60 80 60 00
        E 180 90 60 60
        E 60 80 60 00
        E 180 90 60 60
        E 60 80 60 00
        E 180 90 60 60
        E 60 80 60 00
        E 420 90 61 60
        E 60 80 61 00
        E 180 90 61 60
        E 60 80 61 00
        E 180 90 61 60
        E 60 80 61 00
        E 180 90 61 60
        E 60 80 61 00
        E 180 90 61 60
        E 60 80 61 00
        E 420 90 61 60
        E 60 80 61 00
        E 180 90 61 60
        E 60 80 61 00
        E 180 90 61 60
        E 60 80 61 00
        E 180 90 61 60
        E 60 80 61 00
        E 180 90 61 60
        E 60 80 61 00
        E 420 90 62 60
        E 60 80 62 00
        E 180 90 62 60
        E 60 80 62 00
        E 180 90 62 60
        E 60 80 62 00
        E 180 90 62 60
        E 60 80 62 00
        E 180 90 62 60
        E 60 80 62 00
        E 420 90 63 60
        E 60 80 63 00
        E 180 90 63 60
        E 60 80 63 00
        E 180 90 63 60
        E 60 80 63 00
        E 180 90 63 60
        E 60 80 63 00
        E 180 90 63 60
        E 60 80 63 00
        E 420 90 64 60
        E 60 80 64 00
        E 180 90 64 60
        E 60 80 64 00
        E 180 90 64 60
        E 60 80 64 00
        E 180 90 64 60
        E 60 80 64 00
        E 180 90 64 60
        E 60 80 64 00
        E 420 90 60 60
        E 60 80 60 00
        E 180 90 60 60
        E 60 80 60 00
        E 180 90 60 60
        E 60 80 60 00
        E 180 90 60 60
        E 60 80 60 00
        E 180 90 60 60
        E 60 80 60 00
        E 7860 b0 7b 00
        GUID {54A57D35-811F-42A6-AB75-F5706122F903}
        IGNTEMPO 0 120.00000000 4 4
        SRCCOLOR 68
        VELLANE 132 128 60
        COLORMAP "M:\RGS Documents\ColorMaps\rockband_guitarbass.png"
        TEXTSTRINGFILE "Text Events List.txt"
        CFGEDITVIEW 403265.970770 95.417671 2 16 0 0 0
        CFGEDIT 1 1 0 0 0 1 1 1 1 1 1 0.25000000 -8 0 1370 744 0 2 1 2 0.12500000 0 0 0 0 -1.000000 1 1 1.000000 64
        KEYSNAP 0 0 "102034050607" 0 "Major"
        EVTFILTER 0 -1 -1 -1 -1 0 1 0 0 -1.00000000 -1.00000000
      >
    >
  >
  <TRACK '{6B7F9B4B-FF4E-4CE6-9E2D-4C9BD5DAED77}'
    NAME "PART GUITAR"
    PEAKCOL 33488896
    BEAT -1
    AUTOMODE 0
    VOLPAN 0.00000000000000 0.00000000000000 -1.00000000000000 -1.00000000000000 1.00000000000000
    MUTESOLO 0 0 0
    IPHASE 0
    ISBUS 0 0
    BUSCOMP 1 0
    SHOWINMIX 1 0.666700 0.500000 1 0.500000 -1 -1 -1
    FREEMODE 0
    SEL 0
    REC 0 -1 1 7 0 0 0
    TRACKHEIGHT 0 0
    INQ 0 0 0 0.5000000000 100 0 0 100
    NCHAN 2
    FX 1
    TRACKID {6B7F9B4B-FF4E-4CE6-9E2D-4C9BD5DAED77}
    PERF 0
    MIDIOUT -1
    <MIDINOTENAMES
      0 116 "OVERDRIVE"
      0 102 "Force HOPO Off"
      0 101 "Force HOPO On"
      0 100 "EXPERT Orange"
      0 99 "EXPERT Blue"
      0 98 "EXPERT Yellow"
      0 97 "EXPERT Red"
      0 96 "EXPERT Green"
      0 88 "HARD Orange"
      0 87 "HARD Blue"
      0 86 "HARD Yellow"
      0 85 "HARD Red"
      0 84 "HARD Green"
      0 76 "MEDIUM Orange"
      0 75 "MEDIUM Blue"
      0 74 "MEDIUM Yellow"
      0 73 "MEDIUM Red"
      0 72 "MEDIUM Green"
      0 64 "EASY Orange"
      0 63 "EASY Blue"
      0 62 "EASY Yellow"
      0 61 "EASY Red"
      0 60 "EASY Green"
      0 59 "Left Hand Highest"
      0 40 "Left Hand Lowest"
      0 58 "-"
      0 57 "-"
      0 56 "-"
      0 55 "-"
      0 54 "-"
      0 53 "-"
      0 52 "-"
      0 51 "-"
      0 50 "-"
      0 49 "-"
      0 48 "-"
      0 47 "-"
      0 46 "-"
      0 45 "-"
      0 44 "-"
      0 43 "-"
      0 42 "-"
      0 41 "-"
      0 115 "----"
      0 95 "----"
      0 89 "Force HOPO On"
      0 77 "----"
      0 65 "----"
      0 119 "----"
      0 120 "BRE (use all 5)"
      0 121 "BRE"
      0 122 "BRE"
      0 123 "BRE"
      0 124 "BRE"
      0 90 "Force HOPO Off"
      0 103 "Solo Marker"
      0 127 "Trill Marker"
      0 125 "----"
    >
    MAINSEND 1 0
    <FXCHAIN
      WNDRECT 0 38 878 585
      SHOW 0
      LASTSEL 1
      DOCKED 0
      BYPASS 0 0
      <VST "VSTi: ReaSynth (Cockos)" "reasynth.dll" 0 ""
        eXNlcu9e7f4AAAAAAgAAAAEAAAAAAAAAAgAAAAAAAAA4AAAAAAAAAA==
        AAAAAO++rd4N8K3eAAAAAAAAAAAAAAAAAAAAADm0SD59y9s+tbSxOQ==
        AAAAALbz/T5VpCs6AAAAAAAAAAAAAAAAAAA=
      >
      FLOATPOS 0 0 0 0
      FXID {52B28C73-185B-48E4-B8F4-1FD7A8848B0F}
      WAK 0
      BYPASS 0 0
      <VST "VSTi: RBN Preview (RBN)" "rbprev_vst.dll" 0 ""
        dnBicu5e7f4AAAAAAgAAAAEAAAAAAAAAAgAAAAAAAAAEAAAAAQAAAA==
        AAAAAAMAqgAAAAAAAAA=
      >
      FLOATPOS 121 71 579 512
      FXID {190BBB08-7A86-476B-BD07-5F71F5CD6F7C}
      WAK 0
    >
    <ITEM
      POSITION 0.00000000000000
      SNAPOFFS 0.00000000000000
      LENGTH 306.80000000000001
      LOOP 0
      ALLTAKES 0
      SEL 0
      FADEIN 1 0.000000 0.000000 1 0
      FADEOUT 1 0.000000 0.000000 1 0
      MUTE 0
      IGUID {81210F06-DA35-41E7-BA75-C6E1C5689733}
      IID 3
      NAME "PART GUITAR"
      VOLPAN 1.000000 0.000000 1.000000 -1.000000
      SOFFS 0.00000000000000 0.00000000000000
      PLAYRATE 1.00000000000000 1 0.00000000000000 -65536
      CHANMODE 0
      GUID {61757875-B3D4-49E4-8483-EE351B7D2386}
      <SOURCE MIDI
        HASDATA 1 480 QN
        POOLEDEVTS {74A53674-E67F-42D6-A4CB-4B5E89F40DB0}
        <X 0 0
          /wNQQVJUIEdVSVRBUg==
        >
        E 5760 90 63 60
        E 360 80 63 00
        E 0 90 65 60
        E 120 90 62 60
        E 60 80 62 00
        E 60 80 65 00
        E 120 90 60 60
        E 60 80 60 00
        E 180 90 61 60
        E 60 80 61 00
        E 180 90 63 60
        E 60 80 63 00
        E 180 90 60 60
        E 60 80 60 00
        E 180 90 61 60
        E 60 80 61 00
        E 180 90 62 60
        E 60 80 62 00
        E 180 90 60 60
        E 60 80 60 00
        E 180 90 61 60
        E 120 80 61 00
        E 120 90 60 60
        E 0 90 65 60
        E 60 80 60 00
        E 60 80 65 00
        E 120 90 60 60
        E 60 80 60 00
        E 180 90 60 60
        E 360 80 60 00
        E 120 90 60 60
        E 60 80 60 00
        E 60 90 60 60
        E 60 80 60 00
        E 60 90 60 60
        E 360 80 60 00
        E 120 90 60 60
        E 60 80 60 00
        E 180 90 61 60
        E 60 80 61 00
        E 180 90 62 60
        E 60 80 62 00
        E 180 90 60 60
        E 60 80 60 00
        E 180 90 61 60
        E 60 80 61 00
        E 180 90 64 60
        E 60 80 64 00
        E 180 90 60 60
        E 60 80 60 00
        E 180 90 61 60
        E 60 80 61 00
        E 180 90 62 60
        E 60 80 62 00
        E 180 90 61 60
        E 60 80 61 00
        E 180 90 62 60
        E 60 80 62 00
        E 180 90 60 60
        E 60 80 60 00
        E 180 90 61 60
        E 0 90 65 60
        E 60 80 61 00
        E 180 90 62 60
        E 60 80 62 00
        E 60 80 65 00
        E 120 90 63 60
        E 360 80 63 00
        E 0 90 65 60
        E 120 90 62 60
        E 60 80 62 00
        E 60 80 65 00
        E 120 90 60 60
        E 60 80 60 00
        E 180 90 61 60
        E 60 80 61 00
        E 180 90 63 60
        E 60 80 63 00
        E 180 90 60 60
        E 60 80 60 00
        E 180 90 61 60
        E 60 80 61 00
        E 180 90 62 60
        E 0 90 74 60
        E 60 80 62 00
        E 180 90 60 60
        E 60 80 60 00
        E 180 90 61 60
        E 120 80 61 00
        E 120 90 60 60
        E 0 90 65 60
        E 60 80 60 00
        E 0 80 65 00
        E 180 90 60 60
        E 60 80 60 00
        E 180 90 60 60
        E 120 80 60 00
        E 360 90 60 60
        E 60 80 60 00
        E 60 90 60 60
        E 60 80 60 00
        E 60 80 74 00
        E 0 90 61 60
        E 0 90 66 60
        E 120 80 61 00
        E 120 80 66 00
        E 0 90 61 60
        E 60 80 61 00
        E 180 90 60 60
        E 60 80 60 00
        E 180 90 61 60
        E 0 90 65 60
        E 60 80 61 00
        E 180 90 63 60
        E 60 80 63 00
        E 180 90 61 60
        E 60 80 61 00
        E 180 90 62 60
        E 60 80 62 00
        E 180 90 64 60
        E 60 80 64 00
        E 180 80 65 00
        E 0 90 61 60
        E 60 80 61 00
        E 180 90 60 60
        E 60 80 60 00
        E 60 90 61 60
        E 60 80 61 00
        E 60 90 63 60
        E 60 80 63 00
        E 180 90 60 60
        E 60 80 60 00
        E 60 90 62 60
        E 60 80 62 00
        E 60 90 64 60
        E 60 80 64 00
        E 180 90 60 60
        E 60 80 60 00
        E 60 90 61 60
        E 60 80 61 00
        E 60 90 63 60
        E 60 80 63 00
        E 180 90 60 60
        E 60 80 60 00
        E 60 90 61 60
        E 60 80 61 00
        E 60 90 61 60
        E 0 90 63 60
        E 0 90 64 60
        E 600 80 61 00
        E 0 80 63 00
        E 0 80 64 00
        E 120 90 60 60
        E 60 80 60 00
        E 60 90 65 60
        E 120 90 61 60
        E 60 80 61 00
        E 180 90 62 60
        E 60 80 62 00
        E 180 90 63 60
        E 60 80 63 00
        E 180 90 64 60
        E 60 80 64 00
        E 180 90 63 60
        E 60 80 63 00
        E 60 80 65 00
        E 120 90 60 60
        E 60 80 60 00
        E 180 90 61 60
        E 60 80 61 00
        E 180 90 63 60
        E 360 80 63 00
        E 120 90 60 60
        E 360 80 60 00
        E 120 90 60 60
        E 360 80 60 00
        E 120 90 60 60
        E 60 80 60 00
        E 180 90 60 60
        E 60 80 60 00
        E 180 90 61 60
        E 60 80 61 00
        E 180 90 62 60
        E 60 80 62 00
        E 180 90 60 60
        E 60 80 60 00
        E 180 90 61 60
        E 60 80 61 00
        E 180 90 64 60
        E 60 80 64 00
        E 180 90 60 60
        E 60 80 60 00
        E 180 90 61 60
        E 60 80 61 00
        E 180 90 62 60
        E 60 80 62 00
        E 180 90 61 60
        E 60 80 61 00
        E 180 90 62 60
        E 60 80 62 00
        E 180 90 60 60
        E 60 80 60 00
        E 180 90 61 60
        E 0 90 65 60
        E 60 80 61 00
        E 180 90 62 60
        E 60 80 62 00
        E 60 80 65 00
        E 120 90 63 60
        E 360 80 63 00
        E 0 90 65 60
        E 120 90 62 60
        E 60 80 62 00
        E 60 80 65 00
        E 120 90 60 60
        E 60 80 60 00
        E 60 90 65 60
        E 120 90 61 60
        E 60 80 61 00
        E 180 90 62 60
        E 60 80 62 00
        E 180 90 63 60
        E 60 80 63 00
        E 180 90 64 60
        E 60 80 64 00
        E 180 90 63 60
        E 60 80 63 00
        E 60 80 65 00
        E 120 90 60 60
        E 60 80 60 00
        E 180 90 61 60
        E 60 80 61 00
        E 180 90 63 60
        E 360 80 63 00
        E 120 90 60 60
        E 360 80 60 00
        E 120 90 60 60
        E 120 80 60 00
        E 120 90 61 60
        E 0 90 66 60
        E 120 80 61 00
        E 120 80 66 00
        E 0 90 61 60
        E 60 80 61 00
        E 180 90 60 60
        E 60 80 60 00
        E 60 90 65 60
        E 120 90 61 60
        E 60 80 61 00
        E 180 90 63 60
        E 60 80 63 00
        E 180 90 61 60
        E 60 80 61 00
        E 180 90 62 60
        E 60 80 62 00
        E 180 90 64 60
        E 60 80 64 00
        E 180 80 65 00
        E 320 90 61 60
        E 60 80 61 00
        E 260 90 61 60
        E 60 80 61 00
        E 260 90 61 60
        E 60 80 61 00
        E 260 90 62 60
        E 60 80 62 00
        E 260 90 62 60
        E 60 80 62 00
        E 260 90 60 60
        E 60 80 60 00
        E 180 90 61 60
        E 60 80 61 00
        E 180 90 64 60
        E 60 80 64 00
        E 180 90 61 60
        E 60 80 61 00
        E 180 90 64 60
        E 60 80 64 00
        E 180 90 60 60
        E 60 80 60 00
        E 180 90 61 60
        E 60 80 61 00
        E 180 90 64 60
        E 60 80 64 00
        E 180 90 63 60
        E 0 90 65 60
        E 60 80 63 00
        E 180 90 62 60
        E 60 80 62 00
        E 60 80 65 00
        E 120 90 60 60
        E 60 80 60 00
        E 180 90 62 60
        E 60 80 62 00
        E 180 90 63 60
        E 60 80 63 00
        E 180 90 62 60
        E 60 80 62 00
        E 180 90 63 60
        E 60 80 63 00
        E 180 90 61 60
        E 60 80 61 00
        E 180 90 62 60
        E 60 80 62 00
        E 180 90 63 60
        E 60 80 63 00
        E 60 90 65 60
        E 120 90 64 60
        E 60 80 64 00
        E 60 80 65 00
        E 120 90 64 60
        E 60 80 64 00
        E 180 90 61 60
        E 0 90 62 60
        E 0 90 63 60
        E 0 90 74 60
        E 360 80 61 00
        E 0 80 62 00
        E 0 80 63 00
        E 120 90 60 60
        E 360 80 60 00
        E 120 90 60 60
        E 60 80 60 00
        E 180 90 60 60
        E 360 80 60 00
        E 120 90 60 60
        E 240 80 74 00
        E 120 80 60 00
        E 120 90 60 60
        E 60 80 60 00
        E 180 90 61 60
        E 0 90 62 60
        E 0 90 63 60
        E 360 80 61 00
        E 0 80 62 00
        E 0 80 63 00
        E 120 90 60 60
        E 360 80 60 00
        E 120 90 60 60
        E 60 80 60 00
        E 180 90 60 60
        E 360 80 60 00
        E 120 90 60 60
        E 360 80 60 00
        E 120 90 60 60
        E 60 80 60 00
        E 180 90 64 60
        E 120 80 64 00
        E 120 90 63 60
        E 0 90 65 60
        E 60 80 63 00
        E 60 80 65 00
        E 120 90 61 60
        E 60 80 61 00
        E 180 90 62 60
        E 60 80 62 00
        E 180 90 63 60
        E 60 80 63 00
        E 180 90 62 60
        E 60 80 62 00
        E 180 90 63 60
        E 60 80 63 00
        E 180 90 62 60
        E 60 80 62 00
        E 180 90 61 60
        E 60 80 61 00
        E 180 90 62 60
        E 60 80 62 00
        E 180 90 61 60
        E 120 80 61 00
        E 120 90 60 60
        E 0 90 65 60
        E 120 80 60 00
        E 0 80 65 00
        E 120 90 61 60
        E 60 80 61 00
        E 180 90 62 60
        E 60 80 62 00
        E 180 90 60 60
        E 60 80 60 00
        E 180 90 61 60
        E 60 80 61 00
        E 180 90 63 60
        E 60 80 63 00
        E 180 90 62 60
        E 60 80 62 00
        E 180 90 63 60
        E 60 80 63 00
        E 180 90 64 60
        E 60 80 64 00
        E 180 90 61 60
        E 0 90 62 60
        E 0 90 63 60
        E 360 80 61 00
        E 0 80 62 00
        E 0 80 63 00
        E 120 90 60 60
        E 360 80 60 00
        E 120 90 60 60
        E 60 80 60 00
        E 180 90 60 60
        E 360 80 60 00
        E 120 90 60 60
        E 360 80 60 00
        E 120 90 60 60
        E 60 80 60 00
        E 180 90 61 60
        E 0 90 62 60
        E 0 90 63 60
        E 360 80 61 00
        E 0 80 62 00
        E 0 80 63 00
        E 120 90 60 60
        E 360 80 60 00
        E 120 90 60 60
        E 60 80 60 00
        E 180 90 60 60
        E 360 80 60 00
        E 120 90 60 60
        E 360 80 60 00
        E 120 90 60 60
        E 60 80 60 00
        E 180 90 61 60
        E 60 80 61 00
        E 180 90 62 60
        E 60 80 62 00
        E 180 90 63 60
        E 60 80 63 00
        E 180 90 62 60
        E 60 80 62 00
        E 180 90 63 60
        E 60 80 63 00
        E 180 90 61 60
        E 60 80 61 00
        E 180 90 62 60
        E 60 80 62 00
        E 180 90 63 60
        E 60 80 63 00
        E 180 90 62 60
        E 60 80 62 00
        E 180 90 61 60
        E 60 80 61 00
        E 180 90 60 60
        E 60 80 60 00
        E 180 90 61 60
        E 60 80 61 00
        E 180 90 62 60
        E 60 80 62 00
        E 180 90 61 60
        E 60 80 61 00
        E 180 90 62 60
        E 60 80 62 00
        E 180 90 60 60
        E 60 80 60 00
        E 180 90 61 60
        E 60 80 61 00
        E 180 90 62 60
        E 60 80 62 00
        E 180 90 63 60
        E 60 80 63 00
        E 180 90 64 60
        E 60 80 64 00
        E 180 90 61 60
        E 0 90 62 60
        E 0 90 63 60
        E 360 80 61 00
        E 0 80 62 00
        E 0 80 63 00
        E 120 90 60 60
        E 360 80 60 00
        E 120 90 60 60
        E 60 80 60 00
        E 180 90 60 60
        E 360 80 60 00
        E 120 90 60 60
        E 360 80 60 00
        E 120 90 60 60
        E 60 80 60 00
        E 180 90 61 60
        E 0 90 62 60
        E 0 90 63 60
        E 360 80 61 00
        E 0 80 62 00
        E 0 80 63 00
        E 120 90 60 60
        E 360 80 60 00
        E 120 90 60 60
        E 60 80 60 00
        E 180 90 60 60
        E 360 80 60 00
        E 120 90 60 60
        E 360 80 60 00
        E 120 90 60 60
        E 60 80 60 00
        E 180 90 64 60
        E 120 80 64 00
        E 120 90 63 60
        E 0 90 65 60
        E 60 80 63 00
        E 60 80 65 00
        E 120 90 61 60
        E 60 80 61 00
        E 180 90 62 60
        E 60 80 62 00
        E 180 90 63 60
        E 60 80 63 00
        E 180 90 62 60
        E 60 80 62 00
        E 180 90 63 60
        E 60 80 63 00
        E 180 90 62 60
        E 60 80 62 00
        E 180 90 61 60
        E 60 80 61 00
        E 180 90 62 60
        E 60 80 62 00
        E 180 90 61 60
        E 120 80 61 00
        E 120 90 60 60
        E 0 90 65 60
        E 120 80 60 00
        E 0 80 65 00
        E 120 90 61 60
        E 0 90 74 60
        E 60 80 61 00
        E 180 90 62 60
        E 60 80 62 00
        E 180 90 60 60
        E 60 80 60 00
        E 180 90 61 60
        E 60 80 61 00
        E 180 90 63 60
        E 60 80 63 00
        E 180 90 62 60
        E 60 80 62 00
        E 180 90 63 60
        E 60 80 63 00
        E 180 90 64 60
        E 60 80 64 00
        E 180 80 74 00
        E 0 90 61 60
        E 0 90 62 60
        E 0 90 63 60
        E 360 80 61 00
        E 0 80 62 00
        E 0 80 63 00
        E 120 90 60 60
        E 360 80 60 00
        E 120 90 60 60
        E 60 80 60 00
        E 180 90 60 60
        E 360 80 60 00
        E 120 90 60 60
        E 360 80 60 00
        E 120 90 60 60
        E 60 80 60 00
        E 180 90 61 60
        E 0 90 62 60
        E 0 90 63 60
        E 360 80 61 00
        E 0 80 62 00
        E 0 80 63 00
        E 120 90 60 60
        E 360 80 60 00
        E 120 90 60 60
        E 60 80 60 00
        E 180 90 60 60
        E 360 80 60 00
        E 120 90 60 60
        E 360 80 60 00
        E 120 90 60 60
        E 60 80 60 00
        E 180 90 61 60
        E 60 80 61 00
        E 180 90 62 60
        E 60 80 62 00
        E 180 90 63 60
        E 60 80 63 00
        E 180 90 62 60
        E 60 80 62 00
        E 180 90 63 60
        E 60 80 63 00
        E 180 90 61 60
        E 60 80 61 00
        E 180 90 62 60
        E 60 80 62 00
        E 180 90 63 60
        E 60 80 63 00
        E 180 90 62 60
        E 60 80 62 00
        E 180 90 61 60
        E 60 80 61 00
        E 180 90 60 60
        E 60 80 60 00
        E 180 90 61 60
        E 60 80 61 00
        E 180 90 62 60
        E 60 80 62 00
        E 180 90 61 60
        E 60 80 61 00
        E 180 90 62 60
        E 60 80 62 00
        E 180 90 60 60
        E 60 80 60 00
        E 180 90 61 60
        E 60 80 61 00
        E 180 90 62 60
        E 60 80 62 00
        E 180 90 63 60
        E 60 80 63 00
        E 180 90 64 60
        E 60 80 64 00
        E 180 90 63 60
        E 0 90 64 60
        E 1800 80 63 00
        E 0 80 64 00
        E 120 90 63 60
        E 60 80 63 00
        E 180 90 63 60
        E 60 80 63 00
        E 180 90 63 60
        E 600 80 63 00
        E 120 90 63 60
        E 60 80 63 00
        E 60 90 63 60
        E 66 80 63 00
        E 54 90 63 60
        E 60 80 63 00
        E 60 90 63 60
        E 60 80 63 00
        E 60 90 63 60
        E 600 80 63 00
        E 120 90 63 60
        E 60 80 63 00
        E 60 90 63 60
        E 60 80 63 00
        E 60 90 63 60
        E 60 80 63 00
        E 60 90 63 60
        E 60 80 63 00
        E 0 90 66 60
        E 60 90 62 60
        E 120 80 66 00
        E 480 80 62 00
        E 120 90 64 60
        E 60 80 64 00
        E 60 90 64 60
        E 60 80 64 00
        E 60 90 64 60
        E 60 80 64 00
        E 60 90 64 60
        E 60 80 64 00
        E 60 90 64 60
        E 600 80 64 00
        E 120 90 64 60
        E 60 80 64 00
        E 60 90 64 60
        E 60 80 64 00
        E 60 90 64 60
        E 60 80 64 00
        E 60 90 64 60
        E 60 80 64 00
        E 60 90 64 60
        E 360 80 64 00
        E 120 90 64 60
        E 360 80 64 00
        E 120 90 64 60
        E 60 80 64 00
        E 60 90 64 60
        E 60 80 64 00
        E 60 90 64 60
        E 60 80 64 00
        E 60 90 64 60
        E 60 80 64 00
        E 60 90 64 60
        E 60 80 64 00
        E 180 90 64 60
        E 60 80 64 00
        E 180 90 64 60
        E 60 80 64 00
        E 180 90 64 60
        E 60 80 64 00
        E 180 90 60 60
        E 60 80 60 00
        E 60 90 60 60
        E 60 80 60 00
        E 60 90 60 60
        E 60 80 60 00
        E 60 90 60 60
        E 60 80 60 00
        E 60 90 60 60
        E 600 80 60 00
        E 120 90 60 60
        E 60 80 60 00
        E 60 90 60 60
        E 60 80 60 00
        E 60 90 60 60
        E 60 80 60 00
        E 60 90 60 60
        E 60 80 60 00
        E 60 90 60 60
        E 600 80 60 00
        E 120 90 60 60
        E 60 80 60 00
        E 60 90 60 60
        E 60 80 60 00
        E 60 90 60 60
        E 60 80 60 00
        E 60 90 60 60
        E 60 80 60 00
        E 60 90 60 60
        E 360 80 60 00
        E 120 90 60 60
        E 0 90 61 60
        E 0 90 63 60
        E 840 80 60 00
        E 0 80 61 00
        E 0 80 63 00
        E 120 90 60 60
        E 0 90 62 60
        E 0 90 63 60
        E 840 80 60 00
        E 0 80 62 00
        E 0 80 63 00
        E 120 90 61 60
        E 0 90 63 60
        E 0 90 64 60
        E 480 90 74 60
        E 360 80 61 00
        E 0 80 63 00
        E 0 80 64 00
        E 120 90 61 60
        E 0 90 62 60
        E 0 90 64 60
        E 360 80 61 00
        E 0 80 62 00
        E 0 80 64 00
        E 120 90 62 60
        E 0 90 63 60
        E 0 90 64 60
        E 360 80 62 00
        E 0 80 63 00
        E 0 80 64 00
        E 120 90 62 60
        E 0 90 63 60
        E 0 90 64 60
        E 360 80 62 00
        E 0 80 63 00
        E 0 80 64 00
        E 120 80 74 00
        E 0 90 63 60
        E 60 80 63 00
        E 60 90 64 60
        E 60 80 64 00
        E 60 90 62 60
        E 60 80 62 00
        E 60 90 61 60
        E 60 80 61 00
        E 60 90 60 60
        E 600 80 60 00
        E 120 90 63 60
        E 60 80 63 00
        E 60 90 64 60
        E 60 80 64 00
        E 60 90 62 60
        E 60 80 62 00
        E 60 90 61 60
        E 60 80 61 00
        E 60 90 60 60
        E 600 80 60 00
        E 120 90 62 60
        E 60 80 62 00
        E 60 90 63 60
        E 60 80 63 00
        E 60 90 62 60
        E 60 80 62 00
        E 60 90 61 60
        E 60 80 61 00
        E 60 90 60 60
        E 600 80 60 00
        E 120 90 63 60
        E 60 80 63 00
        E 60 90 64 60
        E 60 80 64 00
        E 60 90 63 60
        E 60 80 63 00
        E 60 90 62 60
        E 60 80 62 00
        E 60 90 61 60
        E 600 80 61 00
        E 120 90 63 60
        E 60 80 63 00
        E 60 90 64 60
        E 60 80 64 00
        E 60 90 63 60
        E 60 80 63 00
        E 60 90 62 60
        E 60 80 62 00
        E 60 90 61 60
        E 360 80 61 00
        E 120 90 61 60
        E 360 80 61 00
        E 120 90 63 60
        E 60 80 63 00
        E 60 90 64 60
        E 60 80 64 00
        E 60 90 61 60
        E 60 80 61 00
        E 60 90 62 60
        E 60 80 62 00
        E 60 90 60 60
        E 60 80 60 00
        E 180 90 60 60
        E 60 80 60 00
        E 180 90 60 60
        E 60 80 60 00
        E 180 90 60 60
        E 60 80 60 00
        E 180 90 63 60
        E 60 80 63 00
        E 60 90 60 60
        E 60 80 60 00
        E 60 90 61 60
        E 60 80 61 00
        E 59 90 62 60
        E 60 80 62 00
        E 61 90 60 60
        E 600 80 60 00
        E 120 90 63 60
        E 60 80 63 00
        E 60 90 61 60
        E 60 80 61 00
        E 60 90 62 60
        E 60 80 62 00
        E 59 90 63 60
        E 60 80 63 00
        E 61 90 60 60
        E 600 80 60 00
        E 120 90 64 60
        E 60 80 64 00
        E 60 90 61 60
        E 60 80 61 00
        E 60 90 62 60
        E 60 80 62 00
        E 59 90 63 60
        E 60 80 63 00
        E 61 90 60 60
        E 360 80 60 00
        E 120 90 60 60
        E 0 90 61 60
        E 0 90 63 60
        E 840 80 60 00
        E 0 80 61 00
        E 0 80 63 00
        E 120 90 60 60
        E 0 90 62 60
        E 0 90 63 60
        E 840 80 60 00
        E 0 80 62 00
        E 0 80 63 00
        E 120 90 61 60
        E 0 90 62 60
        E 0 90 64 60
        E 60 80 61 00
        E 0 80 62 00
        E 0 80 64 00
        E 1380 90 64 60
        E 60 80 64 00
        E 180 90 63 60
        E 60 80 63 00
        E 180 90 62 60
        E 60 80 62 00
        E 180 90 61 60
        E 60 80 61 00
        E 180 90 63 60
        E 360 80 63 00
        E 0 90 65 60
        E 120 90 62 60
        E 60 80 62 00
        E 60 80 65 00
        E 120 90 60 60
        E 60 80 60 00
        E 180 90 61 60
        E 60 80 61 00
        E 180 90 63 60
        E 60 80 63 00
        E 180 90 60 60
        E 60 80 60 00
        E 180 90 61 60
        E 60 80 61 00
        E 180 90 62 60
        E 60 80 62 00
        E 180 90 60 60
        E 60 80 60 00
        E 180 90 61 60
        E 120 80 61 00
        E 120 90 60 60
        E 0 90 65 60
        E 60 80 60 00
        E 60 80 65 00
        E 120 90 60 60
        E 60 80 60 00
        E 180 90 60 60
        E 360 80 60 00
        E 120 90 60 60
        E 60 80 60 00
        E 60 90 60 60
        E 60 80 60 00
        E 60 90 60 60
        E 360 80 60 00
        E 120 90 60 60
        E 60 80 60 00
        E 180 90 61 60
        E 60 80 61 00
        E 180 90 62 60
        E 60 80 62 00
        E 180 90 60 60
        E 60 80 60 00
        E 180 90 61 60
        E 60 80 61 00
        E 180 90 64 60
        E 60 80 64 00
        E 180 90 60 60
        E 60 80 60 00
        E 180 90 61 60
        E 60 80 61 00
        E 180 90 62 60
        E 60 80 62 00
        E 180 90 61 60
        E 60 80 61 00
        E 180 90 62 60
        E 60 80 62 00
        E 180 90 60 60
        E 60 80 60 00
        E 180 90 61 60
        E 0 90 65 60
        E 60 80 61 00
        E 180 90 62 60
        E 60 80 62 00
        E 60 80 65 00
        E 120 90 63 60
        E 360 80 63 00
        E 0 90 65 60
        E 120 90 62 60
        E 60 80 62 00
        E 60 80 65 00
        E 120 90 60 60
        E 60 80 60 00
        E 180 90 61 60
        E 60 80 61 00
        E 180 90 63 60
        E 60 80 63 00
        E 180 90 60 60
        E 60 80 60 00
        E 180 90 61 60
        E 60 80 61 00
        E 180 90 62 60
        E 60 80 62 00
        E 180 90 60 60
        E 60 80 60 00
        E 180 90 61 60
        E 120 80 61 00
        E 120 90 60 60
        E 0 90 65 60
        E 60 80 60 00
        E 0 80 65 00
        E 180 90 60 60
        E 60 80 60 00
        E 180 90 60 60
        E 120 80 60 00
        E 360 90 60 60
        E 60 80 60 00
        E 60 90 60 60
        E 60 80 60 00
        E 60 90 61 60
        E 0 90 66 60
        E 120 80 61 00
        E 120 80 66 00
        E 0 90 61 60
        E 60 80 61 00
        E 180 90 60 60
        E 60 80 60 00
        E 180 90 61 60
        E 0 90 65 60
        E 60 80 61 00
        E 180 90 63 60
        E 60 80 63 00
        E 180 90 61 60
        E 60 80 61 00
        E 180 90 62 60
        E 60 80 62 00
        E 180 90 64 60
        E 60 80 64 00
        E 180 80 65 00
        E 0 90 61 60
        E 60 80 61 00
        E 180 90 60 60
        E 60 80 60 00
        E 60 90 61 60
        E 60 80 61 00
        E 60 90 63 60
        E 60 80 63 00
        E 180 90 60 60
        E 60 80 60 00
        E 60 90 62 60
        E 60 80 62 00
        E 60 90 64 60
        E 60 80 64 00
        E 180 90 60 60
        E 60 80 60 00
        E 60 90 61 60
        E 60 80 61 00
        E 60 90 63 60
        E 60 80 63 00
        E 180 90 60 60
        E 60 80 60 00
        E 60 90 61 60
        E 60 80 61 00
        E 60 90 61 60
        E 0 90 63 60
        E 0 90 64 60
        E 0 90 74 60
        E 600 80 61 00
        E 0 80 63 00
        E 0 80 64 00
        E 120 90 60 60
        E 60 80 60 00
        E 60 90 65 60
        E 120 90 61 60
        E 60 80 61 00
        E 180 90 62 60
        E 60 80 62 00
        E 180 90 63 60
        E 60 80 63 00
        E 180 90 64 60
        E 60 80 64 00
        E 180 80 74 00
        E 0 90 63 60
        E 60 80 63 00
        E 60 80 65 00
        E 120 90 60 60
        E 60 80 60 00
        E 180 90 61 60
        E 60 80 61 00
        E 180 90 63 60
        E 360 80 63 00
        E 120 90 60 60
        E 360 80 60 00
        E 120 90 60 60
        E 360 80 60 00
        E 120 90 60 60
        E 60 80 60 00
        E 180 90 60 60
        E 60 80 60 00
        E 180 90 61 60
        E 60 80 61 00
        E 180 90 62 60
        E 60 80 62 00
        E 180 90 60 60
        E 60 80 60 00
        E 180 90 61 60
        E 60 80 61 00
        E 180 90 64 60
        E 60 80 64 00
        E 180 90 60 60
        E 60 80 60 00
        E 180 90 61 60
        E 60 80 61 00
        E 180 90 62 60
        E 60 80 62 00
        E 180 90 61 60
        E 60 80 61 00
        E 180 90 62 60
        E 60 80 62 00
        E 180 90 60 60
        E 60 80 60 00
        E 180 90 61 60
        E 0 90 65 60
        E 60 80 61 00
        E 180 90 62 60
        E 60 80 62 00
        E 60 80 65 00
        E 120 90 63 60
        E 360 80 63 00
        E 0 90 65 60
        E 120 90 62 60
        E 60 80 62 00
        E 60 80 65 00
        E 120 90 60 60
        E 60 80 60 00
        E 60 90 65 60
        E 120 90 61 60
        E 60 80 61 00
        E 180 90 62 60
        E 60 80 62 00
        E 180 90 63 60
        E 60 80 63 00
        E 180 90 64 60
        E 60 80 64 00
        E 180 90 63 60
        E 60 80 63 00
        E 60 80 65 00
        E 120 90 60 60
        E 60 80 60 00
        E 180 90 61 60
        E 60 80 61 00
        E 180 90 63 60
        E 360 80 63 00
        E 120 90 60 60
        E 360 80 60 00
        E 120 90 60 60
        E 120 80 60 00
        E 120 90 61 60
        E 0 90 66 60
        E 120 80 61 00
        E 120 80 66 00
        E 0 90 61 60
        E 60 80 61 00
        E 180 90 60 60
        E 60 80 60 00
        E 60 90 65 60
        E 120 90 61 60
        E 60 80 61 00
        E 180 90 63 60
        E 60 80 63 00
        E 180 90 61 60
        E 60 80 61 00
        E 180 90 62 60
        E 60 80 62 00
        E 180 90 64 60
        E 60 80 64 00
        E 180 80 65 00
        E 320 90 61 60
        E 60 80 61 00
        E 260 90 61 60
        E 60 80 61 00
        E 260 90 61 60
        E 60 80 61 00
        E 260 90 62 60
        E 60 80 62 00
        E 260 90 62 60
        E 60 80 62 00
        E 260 90 60 60
        E 60 80 60 00
        E 180 90 61 60
        E 60 80 61 00
        E 180 90 64 60
        E 60 80 64 00
        E 180 90 61 60
        E 60 80 61 00
        E 180 90 64 60
        E 60 80 64 00
        E 180 90 60 60
        E 60 80 60 00
        E 180 90 61 60
        E 60 80 61 00
        E 180 90 64 60
        E 60 80 64 00
        E 180 90 63 60
        E 0 90 65 60
        E 60 80 63 00
        E 180 90 62 60
        E 60 80 62 00
        E 60 80 65 00
        E 120 90 60 60
        E 60 80 60 00
        E 180 90 62 60
        E 60 80 62 00
        E 180 90 63 60
        E 60 80 63 00
        E 180 90 62 60
        E 60 80 62 00
        E 180 90 63 60
        E 60 80 63 00
        E 180 90 61 60
        E 60 80 61 00
        E 180 90 62 60
        E 60 80 62 00
        E 180 90 63 60
        E 60 80 63 00
        E 60 90 65 60
        E 120 90 64 60
        E 60 80 64 00
        E 60 80 65 00
        E 120 90 64 60
        E 60 80 64 00
        E 180 90 60 60
        E 60 80 60 00
        E 180 90 62 60
        E 60 80 62 00
        E 180 90 61 60
        E 60 80 61 00
        E 180 90 62 60
        E 60 80 62 00
        E 180 90 61 60
        E 60 80 61 00
        E 180 90 62 60
        E 60 80 62 00
        E 180 90 63 60
        E 60 80 63 00
        E 180 90 64 60
        E 60 80 64 00
        E 180 90 63 60
        E 60 80 63 00
        E 180 90 60 60
        E 60 80 60 00
        E 180 90 61 60
        E 60 80 61 00
        E 180 90 62 60
        E 60 80 62 00
        E 180 90 61 60
        E 60 80 61 00
        E 180 90 63 60
        E 60 80 63 00
        E 180 90 62 60
        E 60 80 62 00
        E 180 90 64 60
        E 60 80 64 00
        E 180 90 63 60
        E 60 80 63 00
        E 180 90 62 60
        E 60 80 62 00
        E 180 90 61 60
        E 60 80 61 00
        E 180 90 60 60
        E 60 80 60 00
        E 180 90 61 60
        E 0 90 62 60
        E 0 90 63 60
        E 360 80 61 00
        E 0 80 62 00
        E 0 80 63 00
        E 120 90 60 60
        E 360 80 60 00
        E 120 90 60 60
        E 60 80 60 00
        E 180 90 60 60
        E 360 80 60 00
        E 120 90 60 60
        E 360 80 60 00
        E 120 90 60 60
        E 60 80 60 00
        E 180 90 61 60
        E 0 90 62 60
        E 0 90 63 60
        E 360 80 61 00
        E 0 80 62 00
        E 0 80 63 00
        E 120 90 60 60
        E 360 80 60 00
        E 120 90 60 60
        E 60 80 60 00
        E 180 90 60 60
        E 360 80 60 00
        E 120 90 60 60
        E 360 80 60 00
        E 120 90 60 60
        E 60 80 60 00
        E 180 90 64 60
        E 120 80 64 00
        E 120 90 63 60
        E 0 90 65 60
        E 60 80 63 00
        E 60 80 65 00
        E 120 90 61 60
        E 60 80 61 00
        E 180 90 62 60
        E 60 80 62 00
        E 180 90 63 60
        E 0 90 74 60
        E 60 80 63 00
        E 180 90 62 60
        E 60 80 62 00
        E 180 90 63 60
        E 60 80 63 00
        E 180 90 62 60
        E 60 80 62 00
        E 180 90 61 60
        E 60 80 61 00
        E 180 90 62 60
        E 60 80 62 00
        E 180 90 61 60
        E 120 80 61 00
        E 120 90 60 60
        E 0 90 65 60
        E 120 80 60 00
        E 0 80 65 00
        E 120 80 74 00
        E 0 90 61 60
        E 60 80 61 00
        E 180 90 62 60
        E 60 80 62 00
        E 180 90 60 60
        E 60 80 60 00
        E 180 90 61 60
        E 60 80 61 00
        E 180 90 63 60
        E 60 80 63 00
        E 180 90 62 60
        E 60 80 62 00
        E 180 90 63 60
        E 60 80 63 00
        E 180 90 64 60
        E 60 80 64 00
        E 180 90 61 60
        E 0 90 62 60
        E 0 90 63 60
        E 360 80 61 00
        E 0 80 62 00
        E 0 80 63 00
        E 120 90 60 60
        E 360 80 60 00
        E 120 90 60 60
        E 60 80 60 00
        E 180 90 60 60
        E 360 80 60 00
        E 120 90 60 60
        E 360 80 60 00
        E 120 90 60 60
        E 60 80 60 00
        E 180 90 61 60
        E 0 90 62 60
        E 0 90 63 60
        E 360 80 61 00
        E 0 80 62 00
        E 0 80 63 00
        E 120 90 60 60
        E 360 80 60 00
        E 120 90 60 60
        E 60 80 60 00
        E 180 90 60 60
        E 360 80 60 00
        E 120 90 60 60
        E 360 80 60 00
        E 120 90 60 60
        E 60 80 60 00
        E 180 90 61 60
        E 60 80 61 00
        E 180 90 62 60
        E 60 80 62 00
        E 180 90 63 60
        E 60 80 63 00
        E 180 90 62 60
        E 60 80 62 00
        E 180 90 63 60
        E 60 80 63 00
        E 180 90 61 60
        E 60 80 61 00
        E 180 90 62 60
        E 60 80 62 00
        E 180 90 63 60
        E 60 80 63 00
        E 180 90 62 60
        E 60 80 62 00
        E 180 90 61 60
        E 60 80 61 00
        E 180 90 60 60
        E 60 80 60 00
        E 180 90 61 60
        E 60 80 61 00
        E 180 90 62 60
        E 60 80 62 00
        E 180 90 61 60
        E 60 80 61 00
        E 180 90 62 60
        E 60 80 62 00
        E 180 90 60 60
        E 60 80 60 00
        E 180 90 61 60
        E 60 80 61 00
        E 180 90 62 60
        E 60 80 62 00
        E 180 90 63 60
        E 60 80 63 00
        E 180 90 64 60
        E 60 80 64 00
        E 180 90 61 60
        E 0 90 62 60
        E 0 90 63 60
        E 360 80 61 00
        E 0 80 62 00
        E 0 80 63 00
        E 120 90 60 60
        E 360 80 60 00
        E 120 90 60 60
        E 60 80 60 00
        E 180 90 60 60
        E 360 80 60 00
        E 120 90 60 60
        E 360 80 60 00
        E 120 90 60 60
        E 60 80 60 00
        E 180 90 61 60
        E 0 90 62 60
        E 0 90 63 60
        E 360 80 61 00
        E 0 80 62 00
        E 0 80 63 00
        E 120 90 60 60
        E 360 80 60 00
        E 120 90 60 60
        E 60 80 60 00
        E 180 90 60 60
        E 360 80 60 00
        E 120 90 60 60
        E 360 80 60 00
        E 120 90 60 60
        E 60 80 60 00
        E 180 90 64 60
        E 120 80 64 00
        E 120 90 63 60
        E 0 90 65 60
        E 60 80 63 00
        E 60 80 65 00
        E 120 90 61 60
        E 60 80 61 00
        E 180 90 62 60
        E 60 80 62 00
        E 180 90 63 60
        E 60 80 63 00
        E 180 90 62 60
        E 60 80 62 00
        E 180 90 63 60
        E 60 80 63 00
        E 180 90 62 60
        E 60 80 62 00
        E 180 90 61 60
        E 60 80 61 00
        E 180 90 62 60
        E 60 80 62 00
        E 180 90 61 60
        E 120 80 61 00
        E 120 90 60 60
        E 0 90 65 60
        E 120 80 60 00
        E 0 80 65 00
        E 120 90 61 60
        E 60 80 61 00
        E 180 90 62 60
        E 60 80 62 00
        E 180 90 60 60
        E 60 80 60 00
        E 180 90 61 60
        E 60 80 61 00
        E 180 90 63 60
        E 60 80 63 00
        E 180 90 62 60
        E 60 80 62 00
        E 180 90 63 60
        E 60 80 63 00
        E 180 90 64 60
        E 60 80 64 00
        E 180 90 61 60
        E 0 90 62 60
        E 0 90 63 60
        E 360 80 61 00
        E 0 80 62 00
        E 0 80 63 00
        E 120 90 60 60
        E 360 80 60 00
        E 120 90 60 60
        E 60 80 60 00
        E 180 90 60 60
        E 360 80 60 00
        E 120 90 60 60
        E 360 80 60 00
        E 120 90 60 60
        E 60 80 60 00
        E 180 90 61 60
        E 0 90 62 60
        E 0 90 63 60
        E 360 80 61 00
        E 0 80 62 00
        E 0 80 63 00
        E 120 90 60 60
        E 360 80 60 00
        E 120 90 60 60
        E 60 80 60 00
        E 180 90 60 60
        E 360 80 60 00
        E 120 90 60 60
        E 360 80 60 00
        E 120 90 60 60
        E 60 80 60 00
        E 180 90 61 60
        E 60 80 61 00
        E 180 90 62 60
        E 60 80 62 00
        E 180 90 63 60
        E 60 80 63 00
        E 180 90 62 60
        E 60 80 62 00
        E 180 90 63 60
        E 60 80 63 00
        E 180 90 61 60
        E 60 80 61 00
        E 180 90 62 60
        E 60 80 62 00
        E 180 90 63 60
        E 60 80 63 00
        E 180 90 62 60
        E 60 80 62 00
        E 180 90 61 60
        E 60 80 61 00
        E 180 90 60 60
        E 60 80 60 00
        E 180 90 61 60
        E 60 80 61 00
        E 180 90 62 60
        E 60 80 62 00
        E 180 90 61 60
        E 60 80 61 00
        E 180 90 62 60
        E 60 80 62 00
        E 180 90 60 60
        E 60 80 60 00
        E 180 90 61 60
        E 60 80 61 00
        E 180 90 62 60
        E 60 80 62 00
        E 180 90 63 60
        E 60 80 63 00
        E 180 90 64 60
        E 60 80 64 00
        E 180 90 63 60
        E 0 90 74 60
        E 360 80 63 00
        E 120 90 62 60
        E 0 90 65 60
        E 60 80 62 00
        E 0 80 65 00
        E 180 90 60 60
        E 60 80 60 00
        E 1140 80 74 00
        E 240 90 60 60
        E 0 90 61 60
        E 60 80 60 00
        E 0 80 61 00
        E 660 90 60 60
        E 0 90 61 60
        E 60 80 60 00
        E 0 80 61 00
        E 180 90 60 60
        E 0 90 61 60
        E 60 80 60 00
        E 0 80 61 00
        E 420 90 60 60
        E 0 90 61 60
        E 60 80 60 00
        E 0 80 61 00
        E 60 90 60 60
        E 0 90 61 60
        E 60 80 60 00
        E 0 80 61 00
        E 60 90 60 60
        E 0 90 61 60
        E 60 80 60 00
        E 0 80 61 00
        E 180 90 60 60
        E 0 90 61 60
        E 60 80 60 00
        E 0 80 61 00
        E 180 90 60 60
        E 0 90 61 60
        E 360 80 60 00
        E 0 80 61 00
        E 120 90 62 60
        E 0 90 63 60
        E 60 80 62 00
        E 0 80 63 00
        E 180 90 60 60
        E 0 90 61 60
        E 600 80 60 00
        E 0 80 61 00
        E 120 90 60 60
        E 0 90 61 60
        E 60 80 60 00
        E 0 80 61 00
        E 180 90 61 60
        E 0 90 62 60
        E 360 80 61 00
        E 0 80 62 00
        E 120 90 60 60
        E 60 80 60 00
        E 180 90 60 60
        E 0 90 61 60
        E 60 80 60 00
        E 0 80 61 00
        E 180 90 61 60
        E 0 90 63 60
        E 360 80 61 00
        E 0 80 63 00
        E 120 90 60 60
        E 0 90 61 60
        E 60 80 60 00
        E 0 80 61 00
        E 180 90 63 60
        E 360 80 63 00
        E 120 90 62 60
        E 0 90 65 60
        E 60 80 62 00
        E 60 80 65 00
        E 120 90 60 60
        E 60 80 60 00
        E 60 90 65 60
        E 120 90 61 60
        E 60 80 61 00
        E 180 90 62 60
        E 60 80 62 00
        E 180 90 63 60
        E 60 80 63 00
        E 180 90 64 60
        E 60 80 64 00
        E 180 90 63 60
        E 60 80 63 00
        E 180 90 62 60
        E 60 80 62 00
        E 60 80 65 00
        E 120 90 60 60
        E 60 80 60 00
        E 420 90 60 60
        E 0 90 61 60
        E 60 80 60 00
        E 0 80 61 00
        E 180 90 60 60
        E 0 90 61 60
        E 360 80 60 00
        E 0 80 61 00
        E 120 90 60 60
        E 0 90 61 60
        E 60 80 60 00
        E 0 80 61 00
        E 60 90 60 60
        E 0 90 61 60
        E 60 80 60 00
        E 0 80 61 00
        E 60 90 60 60
        E 0 90 61 60
        E 360 80 60 00
        E 0 80 61 00
        E 120 90 60 60
        E 0 90 61 60
        E 360 80 60 00
        E 0 80 61 00
        E 120 90 62 60
        E 0 90 63 60
        E 60 80 62 00
        E 0 80 63 00
        E 180 90 60 60
        E 0 90 61 60
        E 600 80 60 00
        E 0 80 61 00
        E 120 90 60 60
        E 0 90 61 60
        E 60 80 60 00
        E 0 80 61 00
        E 260 90 61 60
        E 60 80 61 00
        E 260 90 61 60
        E 60 80 61 00
        E 260 90 61 60
        E 60 80 61 00
        E 260 90 62 60
        E 60 80 62 00
        E 260 90 62 60
        E 60 80 62 00
        E 260 90 63 60
        E 360 80 63 00
        E 120 90 62 60
        E 0 90 65 60
        E 60 80 62 00
        E 0 80 65 00
        E 180 90 60 60
        E 60 80 60 00
        E 1380 90 60 60
        E 0 90 61 60
        E 60 80 60 00
        E 0 80 61 00
        E 660 90 60 60
        E 0 90 61 60
        E 60 80 60 00
        E 0 80 61 00
        E 180 90 60 60
        E 0 90 61 60
        E 60 80 60 00
        E 0 80 61 00
        E 420 90 60 60
        E 0 90 61 60
        E 60 80 60 00
        E 0 80 61 00
        E 60 90 60 60
        E 0 90 61 60
        E 60 80 60 00
        E 0 80 61 00
        E 60 90 60 60
        E 0 90 61 60
        E 60 80 60 00
        E 0 80 61 00
        E 180 90 60 60
        E 0 90 61 60
        E 60 80 60 00
        E 0 80 61 00
        E 180 90 60 60
        E 0 90 61 60
        E 360 80 60 00
        E 0 80 61 00
        E 120 90 62 60
        E 0 90 63 60
        E 60 80 62 00
        E 0 80 63 00
        E 180 90 60 60
        E 0 90 61 60
        E 600 80 60 00
        E 0 80 61 00
        E 120 90 60 60
        E 0 90 61 60
        E 60 80 60 00
        E 0 80 61 00
        E 180 90 61 60
        E 0 90 62 60
        E 360 80 61 00
        E 0 80 62 00
        E 120 90 60 60
        E 60 80 60 00
        E 180 90 60 60
        E 0 90 61 60
        E 60 80 60 00
        E 0 80 61 00
        E 180 90 61 60
        E 0 90 63 60
        E 360 80 61 00
        E 0 80 63 00
        E 120 90 60 60
        E 0 90 61 60
        E 60 80 60 00
        E 0 80 61 00
        E 180 90 63 60
        E 360 80 63 00
        E 120 90 62 60
        E 0 90 65 60
        E 60 80 62 00
        E 60 80 65 00
        E 120 90 60 60
        E 60 80 60 00
        E 60 90 65 60
        E 120 90 61 60
        E 60 80 61 00
        E 180 90 62 60
        E 60 80 62 00
        E 180 90 63 60
        E 60 80 63 00
        E 180 90 64 60
        E 60 80 64 00
        E 60 80 65 00
        E 120 90 60 60
        E 0 90 61 60
        E 600 80 60 00
        E 0 80 61 00
        E 120 90 60 60
        E 0 90 61 60
        E 60 80 60 00
        E 0 80 61 00
        E 180 90 61 60
        E 0 90 62 60
        E 360 80 61 00
        E 0 80 62 00
        E 120 90 60 60
        E 0 90 61 60
        E 60 80 60 00
        E 0 80 61 00
        E 180 90 61 60
        E 0 90 63 60
        E 60 80 61 00
        E 0 80 63 00
        E 180 90 61 60
        E 0 90 63 60
        E 360 80 61 00
        E 0 80 63 00
        E 120 90 60 60
        E 0 90 61 60
        E 60 80 60 00
        E 0 80 61 00
        E 180 90 62 60
        E 0 90 63 60
        E 60 80 62 00
        E 0 80 63 00
        E 180 90 62 60
        E 0 90 63 60
        E 360 80 62 00
        E 0 80 63 00
        E 120 90 60 60
        E 0 90 61 60
        E 360 80 60 00
        E 0 80 61 00
        E 120 90 60 60
        E 0 90 74 60
        E 60 80 60 00
        E 260 90 61 60
        E 60 80 61 00
        E 260 90 61 60
        E 60 80 61 00
        E 260 90 61 60
        E 60 80 61 00
        E 260 90 62 60
        E 60 80 62 00
        E 260 90 62 60
        E 60 80 62 00
        E 260 80 74 00
        E 0 90 63 60
        E 60 80 63 00
        E 180 90 63 60
        E 60 80 63 00
        E 180 90 63 60
        E 600 80 63 00
        E 120 90 63 60
        E 60 80 63 00
        E 60 90 63 60
        E 66 80 63 00
        E 54 90 63 60
        E 60 80 63 00
        E 60 90 63 60
        E 60 80 63 00
        E 60 90 63 60
        E 600 80 63 00
        E 120 90 63 60
        E 60 80 63 00
        E 60 90 63 60
        E 60 80 63 00
        E 60 90 63 60
        E 60 80 63 00
        E 60 90 63 60
        E 60 80 63 00
        E 0 90 66 60
        E 60 90 62 60
        E 120 80 66 00
        E 480 80 62 00
        E 120 90 64 60
        E 60 80 64 00
        E 60 90 64 60
        E 60 80 64 00
        E 60 90 64 60
        E 60 80 64 00
        E 60 90 64 60
        E 60 80 64 00
        E 60 90 64 60
        E 600 80 64 00
        E 120 90 64 60
        E 60 80 64 00
        E 60 90 64 60
        E 60 80 64 00
        E 60 90 64 60
        E 60 80 64 00
        E 60 90 64 60
        E 60 80 64 00
        E 60 90 64 60
        E 360 80 64 00
        E 120 90 64 60
        E 360 80 64 00
        E 120 90 64 60
        E 60 80 64 00
        E 60 90 64 60
        E 60 80 64 00
        E 60 90 64 60
        E 60 80 64 00
        E 60 90 64 60
        E 60 80 64 00
        E 60 90 64 60
        E 60 80 64 00
        E 180 90 64 60
        E 60 80 64 00
        E 180 90 64 60
        E 60 80 64 00
        E 180 90 64 60
        E 60 80 64 00
        E 180 90 60 60
        E 60 80 60 00
        E 60 90 60 60
        E 60 80 60 00
        E 60 90 60 60
        E 60 80 60 00
        E 60 90 60 60
        E 60 80 60 00
        E 60 90 60 60
        E 600 80 60 00
        E 120 90 60 60
        E 60 80 60 00
        E 60 90 60 60
        E 60 80 60 00
        E 60 90 60 60
        E 60 80 60 00
        E 60 90 60 60
        E 60 80 60 00
        E 60 90 60 60
        E 600 80 60 00
        E 120 90 60 60
        E 60 80 60 00
        E 60 90 60 60
        E 60 80 60 00
        E 60 90 60 60
        E 60 80 60 00
        E 60 90 60 60
        E 60 80 60 00
        E 60 90 60 60
        E 360 80 60 00
        E 120 90 60 60
        E 0 90 61 60
        E 0 90 63 60
        E 840 80 60 00
        E 0 80 61 00
        E 0 80 63 00
        E 120 90 60 60
        E 0 90 62 60
        E 0 90 63 60
        E 840 80 60 00
        E 0 80 62 00
        E 0 80 63 00
        E 120 90 61 60
        E 0 90 63 60
        E 0 90 64 60
        E 840 80 61 00
        E 0 80 63 00
        E 0 80 64 00
        E 120 90 61 60
        E 0 90 62 60
        E 0 90 64 60
        E 360 80 61 00
        E 0 80 62 00
        E 0 80 64 00
        E 120 90 61 60
        E 0 90 62 60
        E 0 90 64 60
        E 360 80 61 00
        E 0 80 62 00
        E 0 80 64 00
        E 120 90 62 60
        E 0 90 63 60
        E 0 90 64 60
        E 360 80 62 00
        E 0 80 63 00
        E 0 80 64 00
        E 120 90 63 60
        E 60 80 63 00
        E 60 90 64 60
        E 60 80 64 00
        E 60 90 62 60
        E 60 80 62 00
        E 60 90 61 60
        E 60 80 61 00
        E 60 90 60 60
        E 600 80 60 00
        E 120 90 63 60
        E 60 80 63 00
        E 60 90 64 60
        E 60 80 64 00
        E 60 90 62 60
        E 60 80 62 00
        E 60 90 61 60
        E 60 80 61 00
        E 60 90 60 60
        E 600 80 60 00
        E 120 90 62 60
        E 60 80 62 00
        E 60 90 63 60
        E 60 80 63 00
        E 60 90 62 60
        E 60 80 62 00
        E 60 90 61 60
        E 60 80 61 00
        E 60 90 60 60
        E 600 80 60 00
        E 120 90 63 60
        E 60 80 63 00
        E 60 90 64 60
        E 60 80 64 00
        E 60 90 63 60
        E 60 80 63 00
        E 60 90 62 60
        E 60 80 62 00
        E 60 90 61 60
        E 600 80 61 00
        E 120 90 63 60
        E 60 80 63 00
        E 60 90 64 60
        E 60 80 64 00
        E 60 90 63 60
        E 60 80 63 00
        E 60 90 62 60
        E 60 80 62 00
        E 60 90 61 60
        E 360 80 61 00
        E 120 90 61 60
        E 360 80 61 00
        E 120 90 63 60
        E 60 80 63 00
        E 60 90 64 60
        E 60 80 64 00
        E 60 90 61 60
        E 60 80 61 00
        E 60 90 62 60
        E 60 80 62 00
        E 60 90 60 60
        E 60 80 60 00
        E 180 90 60 60
        E 60 80 60 00
        E 180 90 60 60
        E 60 80 60 00
        E 180 90 60 60
        E 60 80 60 00
        E 180 90 63 60
        E 60 80 63 00
        E 60 90 60 60
        E 60 80 60 00
        E 60 90 61 60
        E 60 80 61 00
        E 59 90 62 60
        E 60 80 62 00
        E 61 90 60 60
        E 600 80 60 00
        E 120 90 63 60
        E 60 80 63 00
        E 60 90 61 60
        E 60 80 61 00
        E 60 90 62 60
        E 60 80 62 00
        E 59 90 63 60
        E 60 80 63 00
        E 61 90 60 60
        E 600 80 60 00
        E 120 90 64 60
        E 60 80 64 00
        E 60 90 61 60
        E 60 80 61 00
        E 60 90 62 60
        E 60 80 62 00
        E 59 90 63 60
        E 60 80 63 00
        E 61 90 60 60
        E 360 80 60 00
        E 120 90 60 60
        E 0 90 61 60
        E 0 90 63 60
        E 840 80 60 00
        E 0 80 61 00
        E 0 80 63 00
        E 120 90 60 60
        E 0 90 62 60
        E 0 90 63 60
        E 840 80 60 00
        E 0 80 62 00
        E 0 80 63 00
        E 120 90 62 60
        E 0 90 63 60
        E 0 90 64 60
        E 840 80 62 00
        E 0 80 63 00
        E 0 80 64 00
        E 120 90 61 60
        E 0 90 62 60
        E 0 90 64 60
        E 360 80 61 00
        E 0 80 62 00
        E 0 80 64 00
        E 120 90 61 60
        E 0 90 62 60
        E 0 90 64 60
        E 360 80 61 00
        E 0 80 62 00
        E 0 80 64 00
        E 120 90 61 60
        E 0 90 62 60
        E 0 90 64 60
        E 360 80 61 00
        E 0 80 62 00
        E 0 80 64 00
        E 120 90 60 60
        E 0 90 61 60
        E 0 90 62 60
        E 0 90 74 60
        E 360 80 60 00
        E 0 80 61 00
        E 0 80 62 00
        E 120 90 60 60
        E 0 90 61 60
        E 0 90 62 60
        E 360 80 60 00
        E 0 80 61 00
        E 0 80 62 00
        E 120 90 60 60
        E 0 90 61 60
        E 0 90 62 60
        E 960 80 74 00
        E 1320 80 60 00
        E 0 80 61 00
        E 0 80 62 00
        E 120 90 60 60
        E 0 90 61 60
        E 0 90 63 60
        E 840 80 60 00
        E 0 80 61 00
        E 0 80 63 00
        E 120 90 60 60
        E 0 90 62 60
        E 0 90 63 60
        E 840 80 60 00
        E 0 80 62 00
        E 0 80 63 00
        E 120 90 61 60
        E 0 90 62 60
        E 0 90 64 60
        E 840 80 61 00
        E 0 80 62 00
        E 0 80 64 00
        E 120 90 61 60
        E 0 90 62 60
        E 0 90 63 60
        E 360 80 61 00
        E 0 80 62 00
        E 0 80 63 00
        E 120 90 60 60
        E 0 90 61 60
        E 0 90 62 60
        E 360 80 60 00
        E 0 80 61 00
        E 0 80 62 00
        E 120 90 61 60
        E 0 90 62 60
        E 0 90 64 60
        E 360 80 61 00
        E 0 80 62 00
        E 0 80 64 00
        E 120 90 61 60
        E 0 90 63 60
        E 0 90 64 60
        E 360 80 61 00
        E 0 80 63 00
        E 0 80 64 00
        E 120 90 61 60
        E 0 90 63 60
        E 0 90 64 60
        E 360 80 61 00
        E 0 80 63 00
        E 0 80 64 00
        E 120 90 61 60
        E 0 90 63 60
        E 0 90 64 60
        E 2280 80 61 00
        E 0 80 63 00
        E 0 80 64 00
        E 120 90 62 60
        E 0 90 63 60
        E 0 90 64 60
        E 840 80 62 00
        E 0 80 63 00
        E 0 80 64 00
        E 120 90 62 60
        E 0 90 63 60
        E 0 90 64 60
        E 360 80 62 00
        E 0 80 63 00
        E 0 80 64 00
        E 120 90 62 60
        E 0 90 63 60
        E 0 90 64 60
        E 840 80 62 00
        E 0 80 63 00
        E 0 80 64 00
        E 120 90 62 60
        E 0 90 63 60
        E 0 90 64 60
        E 360 80 62 00
        E 0 80 63 00
        E 0 80 64 00
        E 120 90 62 60
        E 0 90 63 60
        E 0 90 64 60
        E 360 80 62 00
        E 0 80 63 00
        E 0 80 64 00
        E 120 90 62 60
        E 0 90 63 60
        E 0 90 64 60
        E 360 80 62 00
        E 0 80 63 00
        E 0 80 64 00
        E 120 90 60 60
        E 0 90 62 60
        E 0 90 63 60
        E 360 80 60 00
        E 0 80 62 00
        E 0 80 63 00
        E 120 90 60 60
        E 0 90 61 60
        E 0 90 62 60
        E 360 80 60 00
        E 0 80 61 00
        E 0 80 62 00
        E 120 90 60 60
        E 0 90 61 60
        E 0 90 62 60
        E 360 80 60 00
        E 0 80 61 00
        E 0 80 62 00
        E 120 90 60 60
        E 0 90 61 60
        E 0 90 62 60
        E 2280 80 60 00
        E 0 80 61 00
        E 0 80 62 00
        E 120 90 60 60
        E 0 90 61 60
        E 0 90 63 60
        E 840 80 60 00
        E 0 80 61 00
        E 0 80 63 00
        E 120 90 60 60
        E 0 90 62 60
        E 0 90 63 60
        E 840 80 60 00
        E 0 80 62 00
        E 0 80 63 00
        E 120 90 61 60
        E 0 90 62 60
        E 0 90 64 60
        E 840 80 61 00
        E 0 80 62 00
        E 0 80 64 00
        E 120 90 61 60
        E 0 90 62 60
        E 0 90 63 60
        E 360 80 61 00
        E 0 80 62 00
        E 0 80 63 00
        E 120 90 60 60
        E 0 90 61 60
        E 0 90 62 60
        E 360 80 60 00
        E 0 80 61 00
        E 0 80 62 00
        E 120 90 61 60
        E 0 90 62 60
        E 0 90 64 60
        E 360 80 61 00
        E 0 80 62 00
        E 0 80 64 00
        E 120 90 61 60
        E 0 90 63 60
        E 0 90 64 60
        E 360 80 61 00
        E 0 80 63 00
        E 0 80 64 00
        E 120 90 61 60
        E 0 90 63 60
        E 0 90 64 60
        E 360 80 61 00
        E 0 80 63 00
        E 0 80 64 00
        E 120 90 61 60
        E 0 90 63 60
        E 0 90 64 60
        E 2280 80 61 00
        E 0 80 63 00
        E 0 80 64 00
        E 120 90 62 60
        E 0 90 63 60
        E 0 90 64 60
        E 840 80 62 00
        E 0 80 63 00
        E 0 80 64 00
        E 120 90 62 60
        E 0 90 63 60
        E 0 90 64 60
        E 360 80 62 00
        E 0 80 63 00
        E 0 80 64 00
        E 120 90 62 60
        E 0 90 63 60
        E 0 90 64 60
        E 840 80 62 00
        E 0 80 63 00
        E 0 80 64 00
        E 120 90 62 60
        E 0 90 63 60
        E 0 90 64 60
        E 360 80 62 00
        E 0 80 63 00
        E 0 80 64 00
        E 120 90 61 60
        E 0 90 62 60
        E 0 90 64 60
        E 360 80 61 00
        E 0 80 62 00
        E 0 80 64 00
        E 120 90 61 60
        E 0 90 62 60
        E 0 90 64 60
        E 360 80 61 00
        E 0 80 62 00
        E 0 80 64 00
        E 120 90 61 60
        E 0 90 62 60
        E 0 90 64 60
        E 360 80 61 00
        E 0 80 62 00
        E 0 80 64 00
        E 120 90 61 60
        E 0 90 63 60
        E 0 90 64 60
        E 360 80 61 00
        E 0 80 63 00
        E 0 80 64 00
        E 120 90 61 60
        E 0 90 63 60
        E 0 90 64 60
        E 360 80 61 00
        E 0 80 63 00
        E 0 80 64 00
        E 120 90 61 60
        E 0 90 63 60
        E 0 90 64 60
        E 2280 80 61 00
        E 0 80 63 00
        E 0 80 64 00
        E 120 90 62 60
        E 0 90 63 60
        E 0 90 64 60
        E 840 80 62 00
        E 0 80 63 00
        E 0 80 64 00
        E 120 90 62 60
        E 0 90 63 60
        E 0 90 64 60
        E 360 80 62 00
        E 0 80 63 00
        E 0 80 64 00
        E 120 90 62 60
        E 0 90 63 60
        E 0 90 64 60
        E 840 80 62 00
        E 0 80 63 00
        E 0 80 64 00
        E 120 90 62 60
        E 0 90 63 60
        E 0 90 64 60
        E 0 90 74 60
        E 360 80 62 00
        E 0 80 63 00
        E 0 80 64 00
        E 120 90 62 60
        E 0 90 63 60
        E 0 90 64 60
        E 360 80 62 00
        E 0 80 63 00
        E 0 80 64 00
        E 120 90 62 60
        E 0 90 63 60
        E 0 90 64 60
        E 360 80 62 00
        E 0 80 63 00
        E 0 80 64 00
        E 120 90 60 60
        E 0 90 62 60
        E 0 90 63 60
        E 360 80 60 00
        E 0 80 62 00
        E 0 80 63 00
        E 120 80 74 00
        E 0 90 60 60
        E 0 90 61 60
        E 0 90 62 60
        E 360 80 60 00
        E 0 80 61 00
        E 0 80 62 00
        E 120 90 60 60
        E 0 90 61 60
        E 0 90 62 60
        E 360 80 60 00
        E 0 80 61 00
        E 0 80 62 00
        E 120 90 60 60
        E 0 90 61 60
        E 0 90 62 60
        E 2280 80 60 00
        E 0 80 61 00
        E 0 80 62 00
        E 120 90 60 60
        E 0 90 61 60
        E 0 90 63 60
        E 840 80 60 00
        E 0 80 61 00
        E 0 80 63 00
        E 120 90 60 60
        E 0 90 62 60
        E 0 90 63 60
        E 840 80 60 00
        E 0 80 62 00
        E 0 80 63 00
        E 120 90 61 60
        E 0 90 62 60
        E 0 90 64 60
        E 840 80 61 00
        E 0 80 62 00
        E 0 80 64 00
        E 120 90 61 60
        E 0 90 62 60
        E 0 90 63 60
        E 360 80 61 00
        E 0 80 62 00
        E 0 80 63 00
        E 120 90 60 60
        E 0 90 61 60
        E 0 90 62 60
        E 360 80 60 00
        E 0 80 61 00
        E 0 80 62 00
        E 120 90 61 60
        E 0 90 62 60
        E 0 90 64 60
        E 360 80 61 00
        E 0 80 62 00
        E 0 80 64 00
        E 120 90 61 60
        E 0 90 63 60
        E 0 90 64 60
        E 360 80 61 00
        E 0 80 63 00
        E 0 80 64 00
        E 120 90 61 60
        E 0 90 63 60
        E 0 90 64 60
        E 360 80 61 00
        E 0 80 63 00
        E 0 80 64 00
        E 120 90 61 60
        E 0 90 63 60
        E 0 90 64 60
        E 2280 80 61 00
        E 0 80 63 00
        E 0 80 64 00
        E 120 90 62 60
        E 0 90 63 60
        E 0 90 64 60
        E 840 80 62 00
        E 0 80 63 00
        E 0 80 64 00
        E 120 90 62 60
        E 0 90 63 60
        E 0 90 64 60
        E 360 80 62 00
        E 0 80 63 00
        E 0 80 64 00
        E 120 90 62 60
        E 0 90 63 60
        E 0 90 64 60
        E 840 80 62 00
        E 0 80 63 00
        E 0 80 64 00
        E 120 90 62 60
        E 0 90 63 60
        E 0 90 64 60
        E 360 80 62 00
        E 0 80 63 00
        E 0 80 64 00
        E 120 90 62 60
        E 0 90 63 60
        E 0 90 64 60
        E 360 80 62 00
        E 0 80 63 00
        E 0 80 64 00
        E 120 90 62 60
        E 0 90 63 60
        E 0 90 64 60
        E 360 80 62 00
        E 0 80 63 00
        E 0 80 64 00
        E 120 90 60 60
        E 0 90 62 60
        E 0 90 63 60
        E 360 80 60 00
        E 0 80 62 00
        E 0 80 63 00
        E 120 90 60 60
        E 0 90 61 60
        E 0 90 62 60
        E 360 80 60 00
        E 0 80 61 00
        E 0 80 62 00
        E 120 90 60 60
        E 0 90 61 60
        E 0 90 62 60
        E 360 80 60 00
        E 0 80 61 00
        E 0 80 62 00
        E 120 90 60 60
        E 0 90 61 60
        E 0 90 62 60
        E 2280 80 60 00
        E 0 80 61 00
        E 0 80 62 00
        E 120 90 60 60
        E 0 90 61 60
        E 0 90 63 60
        E 840 80 60 00
        E 0 80 61 00
        E 0 80 63 00
        E 120 90 60 60
        E 0 90 62 60
        E 0 90 63 60
        E 840 80 60 00
        E 0 80 62 00
        E 0 80 63 00
        E 120 90 60 60
        E 0 90 64 60
        E 2280 80 60 00
        E 0 80 64 00
        E 120 90 63 60
        E 60 80 63 00
        E 132 90 63 60
        E 60 80 63 00
        E 132 90 63 60
        E 60 80 63 00
        E 132 90 63 60
        E 60 80 63 00
        E 132 90 63 60
        E 60 80 63 00
        E 132 90 63 60
        E 60 80 63 00
        E 132 90 63 60
        E 60 80 63 00
        E 132 90 63 60
        E 60 80 63 00
        E 132 90 63 60
        E 60 80 63 00
        E 132 90 63 60
        E 60 80 63 00
        E 132 90 63 60
        E 60 80 63 00
        E 132 90 63 60
        E 60 80 63 00
        E 132 90 63 60
        E 60 80 63 00
        E 132 90 63 60
        E 60 80 63 00
        E 132 90 63 60
        E 60 80 63 00
        E 132 90 63 60
        E 60 80 63 00
        E 132 90 63 60
        E 60 80 63 00
        E 132 90 63 60
        E 60 80 63 00
        E 132 90 63 60
        E 60 80 63 00
        E 132 90 63 60
        E 12 90 66 60
        E 48 80 63 00
        E 132 90 64 60
        E 60 80 64 00
        E 132 90 64 60
        E 48 80 66 00
        E 12 80 64 00
        E 132 90 64 60
        E 60 80 64 00
        E 132 90 64 60
        E 60 80 64 00
        E 132 90 64 60
        E 60 80 64 00
        E 132 90 64 60
        E 60 80 64 00
        E 132 90 64 60
        E 60 80 64 00
        E 132 90 64 60
        E 60 80 64 00
        E 132 90 64 60
        E 60 80 64 00
        E 132 90 64 60
        E 60 80 64 00
        E 132 90 64 60
        E 60 80 64 00
        E 132 90 64 60
        E 60 80 64 00
        E 132 90 64 60
        E 60 80 64 00
        E 132 90 64 60
        E 60 80 64 00
        E 132 90 64 60
        E 60 80 64 00
        E 132 90 64 60
        E 60 80 64 00
        E 132 90 64 60
        E 60 80 64 00
        E 132 90 64 60
        E 60 80 64 00
        E 132 90 64 60
        E 60 80 64 00
        E 84 90 66 60
        E 48 90 64 60
        E 60 80 64 00
        E 132 90 60 60
        E 60 80 60 00
        E 60 80 66 00
        E 72 90 60 60
        E 60 80 60 00
        E 132 90 60 60
        E 60 80 60 00
        E 132 90 60 60
        E 60 80 60 00
        E 132 90 60 60
        E 60 80 60 00
        E 132 90 60 60
        E 60 80 60 00
        E 132 90 60 60
        E 60 80 60 00
        E 132 90 60 60
        E 60 80 60 00
        E 132 90 60 60
        E 60 80 60 00
        E 132 90 60 60
        E 60 80 60 00
        E 132 90 60 60
        E 60 80 60 00
        E 132 90 60 60
        E 60 80 60 00
        E 132 90 60 60
        E 60 80 60 00
        E 132 90 60 60
        E 60 80 60 00
        E 132 90 60 60
        E 60 80 60 00
        E 132 90 60 60
        E 60 80 60 00
        E 132 90 60 60
        E 60 80 60 00
        E 132 90 60 60
        E 60 80 60 00
        E 132 90 60 60
        E 60 80 60 00
        E 132 90 60 60
        E 12 90 66 60
        E 48 80 60 00
        E 132 90 61 60
        E 0 90 74 60
        E 60 80 61 00
        E 120 80 66 00
        E 12 90 61 60
        E 60 80 61 00
        E 132 90 61 60
        E 60 80 61 00
        E 132 90 61 60
        E 60 80 61 00
        E 132 90 61 60
        E 60 80 61 00
        E 12 90 66 60
        E 120 90 62 60
        E 60 80 62 00
        E 120 80 66 00
        E 12 90 62 60
        E 60 80 62 00
        E 132 90 62 60
        E 60 80 62 00
        E 132 90 62 60
        E 60 80 62 00
        E 132 90 62 60
        E 60 80 62 00
        E 12 90 66 60
        E 120 80 74 00
        E 0 90 63 60
        E 60 80 63 00
        E 60 80 66 00
        E 72 90 63 60
        E 60 80 63 00
        E 132 90 63 60
        E 60 80 63 00
        E 132 90 63 60
        E 60 80 63 00
        E 132 90 63 60
        E 60 80 63 00
        E 72 90 66 60
        E 60 80 66 00
        E 0 90 62 60
        E 0 90 66 60
        E 60 80 62 00
        E 120 80 66 00
        E 12 90 62 60
        E 60 80 62 00
        E 132 90 62 60
        E 60 80 62 00
        E 132 90 62 60
        E 60 80 62 00
        E 132 90 62 60
        E 60 80 62 00
        E 12 90 66 60
        E 120 90 63 60
        E 60 80 63 00
        E 132 90 63 60
        E 48 80 66 00
        E 12 80 63 00
        E 132 90 63 60
        E 60 80 63 00
        E 132 90 63 60
        E 60 80 63 00
        E 132 90 63 60
        E 60 80 63 00
        E 132 90 63 60
        E 60 80 63 00
        E 132 90 63 60
        E 60 80 63 00
        E 132 90 63 60
        E 60 80 63 00
        E 132 90 63 60
        E 60 80 63 00
        E 132 90 63 60
        E 60 80 63 00
        E 132 90 63 60
        E 60 80 63 00
        E 132 90 63 60
        E 60 80 63 00
        E 132 90 63 60
        E 60 80 63 00
        E 132 90 63 60
        E 60 80 63 00
        E 132 90 63 60
        E 60 80 63 00
        E 132 90 63 60
        E 60 80 63 00
        E 132 90 63 60
        E 60 80 63 00
        E 132 90 63 60
        E 60 80 63 00
        E 132 90 63 60
        E 60 80 63 00
        E 132 90 63 60
        E 12 90 66 60
        E 48 80 63 00
        E 132 90 64 60
        E 60 80 64 00
        E 132 90 64 60
        E 48 80 66 00
        E 12 80 64 00
        E 132 90 64 60
        E 60 80 64 00
        E 132 90 64 60
        E 60 80 64 00
        E 132 90 64 60
        E 60 80 64 00
        E 132 90 64 60
        E 60 80 64 00
        E 132 90 64 60
        E 60 80 64 00
        E 132 90 64 60
        E 60 80 64 00
        E 132 90 64 60
        E 60 80 64 00
        E 132 90 64 60
        E 60 80 64 00
        E 132 90 64 60
        E 60 80 64 00
        E 132 90 64 60
        E 60 80 64 00
        E 132 90 64 60
        E 60 80 64 00
        E 132 90 64 60
        E 60 80 64 00
        E 132 90 64 60
        E 60 80 64 00
        E 132 90 64 60
        E 60 80 64 00
        E 132 90 64 60
        E 60 80 64 00
        E 132 90 64 60
        E 60 80 64 00
        E 132 90 64 60
        E 60 80 64 00
        E 84 90 66 60
        E 48 90 64 60
        E 60 80 64 00
        E 132 90 60 60
        E 60 80 60 00
        E 60 80 66 00
        E 72 90 60 60
        E 60 80 60 00
        E 132 90 60 60
        E 60 80 60 00
        E 132 90 60 60
        E 60 80 60 00
        E 132 90 60 60
        E 60 80 60 00
        E 132 90 60 60
        E 60 80 60 00
        E 132 90 60 60
        E 60 80 60 00
        E 132 90 60 60
        E 60 80 60 00
        E 132 90 60 60
        E 60 80 60 00
        E 132 90 60 60
        E 60 80 60 00
        E 132 90 60 60
        E 60 80 60 00
        E 132 90 60 60
        E 60 80 60 00
        E 132 90 60 60
        E 60 80 60 00
        E 132 90 60 60
        E 60 80 60 00
        E 132 90 60 60
        E 60 80 60 00
        E 132 90 60 60
        E 60 80 60 00
        E 132 90 60 60
        E 60 80 60 00
        E 132 90 60 60
        E 60 80 60 00
        E 132 90 60 60
        E 60 80 60 00
        E 132 90 60 60
        E 12 90 66 60
        E 48 80 60 00
        E 132 90 61 60
        E 60 80 61 00
        E 120 80 66 00
        E 12 90 61 60
        E 60 80 61 00
        E 132 90 61 60
        E 60 80 61 00
        E 132 90 61 60
        E 60 80 61 00
        E 132 90 61 60
        E 60 80 61 00
        E 12 90 66 60
        E 120 90 62 60
        E 60 80 62 00
        E 120 80 66 00
        E 12 90 62 60
        E 60 80 62 00
        E 132 90 62 60
        E 60 80 62 00
        E 132 90 62 60
        E 60 80 62 00
        E 132 90 62 60
        E 60 80 62 00
        E 132 90 64 60
        E 60 80 64 00
        E 100 90 61 60
        E 60 80 61 00
        E 100 90 62 60
        E 60 80 62 00
        E 100 90 63 60
        E 60 80 63 00
        E 100 90 61 60
        E 60 80 61 00
        E 100 90 62 60
        E 60 80 62 00
        E 100 90 64 60
        E 60 80 64 00
        E 100 90 60 60
        E 60 80 60 00
        E 100 90 61 60
        E 60 80 61 00
        E 100 90 62 60
        E 60 80 62 00
        E 100 90 60 60
        E 60 80 60 00
        E 100 90 61 60
        E 60 80 61 00
        E 100 90 61 60
        E 0 90 64 60
        E 360 80 61 00
        E 0 80 64 00
        E 120 90 60 60
        E 360 80 60 00
        E 120 90 60 60
        E 60 80 60 00
        E 180 90 60 60
        E 360 80 60 00
        E 120 90 60 60
        E 360 80 60 00
        E 120 90 60 60
        E 60 80 60 00
        E 180 90 61 60
        E 0 90 64 60
        E 360 80 61 00
        E 0 80 64 00
        E 120 90 60 60
        E 360 80 60 00
        E 120 90 60 60
        E 120 80 60 00
        E 120 90 60 60
        E 360 80 60 00
        E 120 90 60 60
        E 360 80 60 00
        E 120 90 60 60
        E 60 80 60 00
        E 180 90 64 60
        E 120 80 64 00
        E 120 90 63 60
        E 0 90 65 60
        E 60 80 63 00
        E 60 80 65 00
        E 120 90 61 60
        E 60 80 61 00
        E 180 90 62 60
        E 60 80 62 00
        E 180 90 63 60
        E 60 80 63 00
        E 180 90 62 60
        E 60 80 62 00
        E 180 90 63 60
        E 60 80 63 00
        E 180 90 62 60
        E 60 80 62 00
        E 180 90 61 60
        E 60 80 61 00
        E 180 90 62 60
        E 60 80 62 00
        E 180 90 61 60
        E 120 80 61 00
        E 120 90 60 60
        E 0 90 65 60
        E 120 80 60 00
        E 0 80 65 00
        E 120 90 61 60
        E 0 90 74 60
        E 60 80 61 00
        E 180 90 62 60
        E 60 80 62 00
        E 180 90 60 60
        E 60 80 60 00
        E 180 90 61 60
        E 60 80 61 00
        E 180 90 63 60
        E 60 80 63 00
        E 180 90 62 60
        E 60 80 62 00
        E 180 90 63 60
        E 60 80 63 00
        E 180 90 64 60
        E 60 80 64 00
        E 180 80 74 00
        E 0 90 61 60
        E 0 90 64 60
        E 360 80 61 00
        E 0 80 64 00
        E 120 90 60 60
        E 360 80 60 00
        E 120 90 60 60
        E 60 80 60 00
        E 180 90 60 60
        E 360 80 60 00
        E 120 90 60 60
        E 360 80 60 00
        E 120 90 60 60
        E 60 80 60 00
        E 180 90 61 60
        E 0 90 64 60
        E 360 80 61 00
        E 0 80 64 00
        E 120 90 60 60
        E 360 80 60 00
        E 120 90 60 60
        E 120 80 60 00
        E 120 90 60 60
        E 360 80 60 00
        E 120 90 60 60
        E 360 80 60 00
        E 120 90 60 60
        E 60 80 60 00
        E 180 90 61 60
        E 60 80 61 00
        E 180 90 62 60
        E 60 80 62 00
        E 180 90 63 60
        E 60 80 63 00
        E 180 90 62 60
        E 60 80 62 00
        E 180 90 63 60
        E 60 80 63 00
        E 180 90 61 60
        E 60 80 61 00
        E 180 90 62 60
        E 60 80 62 00
        E 180 90 63 60
        E 60 80 63 00
        E 180 90 62 60
        E 60 80 62 00
        E 180 90 61 60
        E 60 80 61 00
        E 180 90 60 60
        E 60 80 60 00
        E 180 90 61 60
        E 60 80 61 00
        E 180 90 62 60
        E 60 80 62 00
        E 180 90 61 60
        E 60 80 61 00
        E 180 90 62 60
        E 60 80 62 00
        E 180 90 60 60
        E 60 80 60 00
        E 180 90 61 60
        E 60 80 61 00
        E 180 90 62 60
        E 60 80 62 00
        E 180 90 63 60
        E 60 80 63 00
        E 180 90 64 60
        E 60 80 64 00
        E 180 90 62 60
        E 60 80 62 00
        E 180 90 61 60
        E 60 80 61 00
        E 180 90 60 60
        E 60 80 60 00
        E 180 90 61 60
        E 60 80 61 00
        E 180 90 63 60
        E 60 80 63 00
        E 180 90 62 60
        E 60 80 62 00
        E 180 90 61 60
        E 60 80 61 00
        E 180 90 60 60
        E 60 80 60 00
        E 180 90 61 60
        E 60 80 61 00
        E 180 90 64 60
        E 60 80 64 00
        E 180 90 62 60
        E 60 80 62 00
        E 180 90 61 60
        E 60 80 61 00
        E 180 90 60 60
        E 60 80 60 00
        E 180 90 61 60
        E 60 80 61 00
        E 180 90 64 60
        E 60 80 64 00
        E 180 90 63 60
        E 60 80 63 00
        E 180 90 62 60
        E 60 80 62 00
        E 180 90 61 60
        E 60 80 61 00
        E 180 90 60 60
        E 60 80 60 00
        E 180 90 61 60
        E 60 80 61 00
        E 180 90 62 60
        E 60 80 62 00
        E 180 90 61 60
        E 60 80 61 00
        E 180 90 60 60
        E 60 80 60 00
        E 180 90 61 60
        E 60 80 61 00
        E 180 90 62 60
        E 60 80 62 00
        E 180 90 63 60
        E 60 80 63 00
        E 180 90 62 60
        E 60 80 62 00
        E 180 90 61 60
        E 60 80 61 00
        E 180 90 60 60
        E 60 80 60 00
        E 180 90 62 60
        E 60 80 62 00
        E 180 90 64 60
        E 60 80 64 00
        E 180 90 62 60
        E 60 80 62 00
        E 180 90 61 60
        E 60 80 61 00
        E 180 90 60 60
        E 60 80 60 00
        E 180 90 63 60
        E 60 80 63 00
        E 180 90 64 60
        E 60 80 64 00
        E 180 90 63 60
        E 60 80 63 00
        E 180 90 62 60
        E 60 80 62 00
        E 180 90 61 60
        E 60 80 61 00
        E 180 90 64 60
        E 60 80 64 00
        E 180 90 61 60
        E 0 90 66 60
        E 60 80 61 00
        E 60 90 61 60
        E 60 80 61 00
        E 60 90 63 60
        E 60 80 63 00
        E 60 90 63 60
        E 60 80 63 00
        E 60 90 62 60
        E 60 80 62 00
        E 60 90 62 60
        E 60 80 62 00
        E 60 90 61 60
        E 60 80 61 00
        E 60 90 61 60
        E 60 80 61 00
        E 60 90 60 60
        E 60 80 60 00
        E 60 90 60 60
        E 60 80 60 00
        E 60 90 60 60
        E 60 80 60 00
        E 60 90 60 60
        E 60 80 60 00
        E 60 90 61 60
        E 60 80 61 00
        E 60 90 61 60
        E 60 80 61 00
        E 60 90 61 60
        E 60 80 61 00
        E 60 90 61 60
        E 60 80 61 00
        E 60 90 60 60
        E 60 80 60 00
        E 60 90 60 60
        E 60 80 60 00
        E 60 90 60 60
        E 60 80 60 00
        E 60 90 60 60
        E 60 80 60 00
        E 60 90 62 60
        E 60 80 62 00
        E 60 90 62 60
        E 60 80 62 00
        E 60 90 62 60
        E 60 80 62 00
        E 60 90 62 60
        E 60 80 62 00
        E 60 90 63 60
        E 60 80 63 00
        E 60 90 63 60
        E 60 80 63 00
        E 60 90 63 60
        E 60 80 63 00
        E 60 90 63 60
        E 60 80 63 00
        E 60 90 64 60
        E 60 80 64 00
        E 60 90 64 60
        E 60 80 64 00
        E 60 90 64 60
        E 60 80 64 00
        E 60 90 64 60
        E 60 80 64 00
        E 60 90 60 60
        E 60 80 60 00
        E 60 80 66 00
        E 120 90 61 60
        E 60 80 61 00
        E 180 90 60 60
        E 60 80 60 00
        E 180 90 61 60
        E 60 80 61 00
        E 180 90 60 60
        E 60 80 60 00
        E 180 90 61 60
        E 60 80 61 00
        E 180 90 62 60
        E 60 80 62 00
        E 180 90 63 60
        E 60 80 63 00
        E 180 90 62 60
        E 60 80 62 00
        E 180 90 61 60
        E 60 80 61 00
        E 180 90 60 60
        E 60 80 60 00
        E 180 90 62 60
        E 60 80 62 00
        E 180 90 61 60
        E 60 80 61 00
        E 180 90 63 60
        E 60 80 63 00
        E 180 90 62 60
        E 60 80 62 00
        E 180 90 64 60
        E 60 80 64 00
        E 180 90 62 60
        E 60 80 62 00
        E 180 90 63 60
        E 60 80 63 00
        E 180 90 61 60
        E 60 80 61 00
        E 180 90 60 60
        E 60 80 60 00
        E 180 90 63 60
        E 360 80 63 00
        E 0 90 65 60
        E 120 90 62 60
        E 60 80 62 00
        E 60 80 65 00
        E 120 90 60 60
        E 60 80 60 00
        E 60 90 65 60
        E 120 90 61 60
        E 60 80 61 00
        E 180 90 62 60
        E 60 80 62 00
        E 180 90 63 60
        E 60 80 63 00
        E 180 90 64 60
        E 60 80 64 00
        E 180 90 63 60
        E 0 90 74 60
        E 60 80 63 00
        E 60 80 65 00
        E 200 90 61 60
        E 60 80 61 00
        E 260 90 61 60
        E 60 80 61 00
        E 260 90 61 60
        E 60 80 61 00
        E 260 90 62 60
        E 60 80 62 00
        E 260 90 62 60
        E 60 80 62 00
        E 260 80 74 00
        E 0 90 63 60
        E 360 80 63 00
        E 0 90 65 60
        E 120 90 62 60
        E 60 80 62 00
        E 60 80 65 00
        E 120 90 60 60
        E 60 80 60 00
        E 60 90 65 60
        E 120 90 61 60
        E 60 80 61 00
        E 180 90 62 60
        E 60 80 62 00
        E 180 90 63 60
        E 60 80 63 00
        E 180 90 64 60
        E 60 80 64 00
        E 180 90 63 60
        E 60 80 63 00
        E 60 80 65 00
        E 200 90 61 60
        E 60 80 61 00
        E 260 90 61 60
        E 60 80 61 00
        E 260 90 61 60
        E 60 80 61 00
        E 260 90 62 60
        E 60 80 62 00
        E 260 90 62 60
        E 60 80 62 00
        E 260 90 63 60
        E 360 80 63 00
        E 0 90 65 60
        E 120 90 62 60
        E 60 80 62 00
        E 60 80 65 00
        E 120 90 60 60
        E 60 80 60 00
        E 60 90 65 60
        E 120 90 61 60
        E 60 80 61 00
        E 180 90 62 60
        E 60 80 62 00
        E 180 90 63 60
        E 60 80 63 00
        E 180 90 64 60
        E 60 80 64 00
        E 180 90 63 60
        E 60 80 63 00
        E 60 80 65 00
        E 200 90 61 60
        E 60 80 61 00
        E 260 90 61 60
        E 60 80 61 00
        E 260 90 61 60
        E 60 80 61 00
        E 260 90 62 60
        E 60 80 62 00
        E 260 90 62 60
        E 60 80 62 00
        E 260 90 63 60
        E 360 80 63 00
        E 0 90 65 60
        E 120 90 62 60
        E 60 80 62 00
        E 60 80 65 00
        E 120 90 60 60
        E 60 80 60 00
        E 60 90 65 60
        E 120 90 61 60
        E 60 80 61 00
        E 180 90 62 60
        E 60 80 62 00
        E 180 90 63 60
        E 60 80 63 00
        E 180 90 64 60
        E 60 80 64 00
        E 180 90 63 60
        E 60 80 63 00
        E 60 80 65 00
        E 200 90 61 60
        E 60 80 61 00
        E 260 90 61 60
        E 60 80 61 00
        E 260 90 61 60
        E 60 80 61 00
        E 260 90 62 60
        E 60 80 62 00
        E 260 90 62 60
        E 60 80 62 00
        E 500 90 61 60
        E 60 80 61 00
        E 180 90 61 60
        E 60 80 61 00
        E 180 90 61 60
        E 60 80 61 00
        E 180 90 62 60
        E 60 80 62 00
        E 180 90 62 60
        E 60 80 62 00
        E 420 90 61 60
        E 60 80 61 00
        E 180 90 61 60
        E 60 80 61 00
        E 180 90 61 60
        E 60 80 61 00
        E 180 90 62 60
        E 60 80 62 00
        E 180 90 62 60
        E 60 80 62 00
        E 420 90 61 60
        E 60 80 61 00
        E 180 90 61 60
        E 60 80 61 00
        E 180 90 61 60
        E 60 80 61 00
        E 180 90 62 60
        E 60 80 62 00
        E 180 90 62 60
        E 60 80 62 00
        E 420 90 61 60
        E 60 80 61 00
        E 180 90 61 60
        E 60 80 61 00
        E 180 90 61 60
        E 60 80 61 00
        E 180 90 62 60
        E 60 80 62 00
        E 180 90 62 60
        E 60 80 62 00
        E 420 90 61 60
        E 0 90 63 60
        E 60 80 61 00
        E 0 80 63 00
        E 180 90 61 60
        E 0 90 63 60
        E 60 80 61 00
        E 0 80 63 00
        E 180 90 61 60
        E 0 90 63 60
        E 60 80 61 00
        E 0 80 63 00
        E 180 90 62 60
        E 0 90 63 60
        E 60 80 62 00
        E 0 80 63 00
        E 180 90 62 60
        E 0 90 63 60
        E 60 80 62 00
        E 0 80 63 00
        E 420 90 61 60
        E 0 90 63 60
        E 60 80 61 00
        E 0 80 63 00
        E 180 90 61 60
        E 0 90 63 60
        E 60 80 61 00
        E 0 80 63 00
        E 180 90 61 60
        E 0 90 63 60
        E 60 80 61 00
        E 0 80 63 00
        E 180 90 62 60
        E 0 90 63 60
        E 60 80 62 00
        E 0 80 63 00
        E 180 90 62 60
        E 0 90 63 60
        E 60 80 62 00
        E 0 80 63 00
        E 420 90 61 60
        E 0 90 63 60
        E 60 80 61 00
        E 0 80 63 00
        E 180 90 61 60
        E 0 90 63 60
        E 60 80 61 00
        E 0 80 63 00
        E 180 90 61 60
        E 0 90 63 60
        E 60 80 61 00
        E 0 80 63 00
        E 180 90 62 60
        E 0 90 63 60
        E 60 80 62 00
        E 0 80 63 00
        E 180 90 62 60
        E 0 90 63 60
        E 60 80 62 00
        E 0 80 63 00
        E 180 90 74 60
        E 240 90 61 60
        E 0 90 63 60
        E 60 80 61 00
        E 0 80 63 00
        E 180 90 61 60
        E 0 90 63 60
        E 60 80 61 00
        E 0 80 63 00
        E 180 90 61 60
        E 0 90 63 60
        E 60 80 61 00
        E 0 80 63 00
        E 180 90 62 60
        E 0 90 63 60
        E 60 80 62 00
        E 0 80 63 00
        E 180 90 62 60
        E 0 90 63 60
        E 240 80 74 00
        E 120 80 62 00
        E 0 80 63 00
        E 120 90 61 60
        E 0 90 63 60
        E 60 80 61 00
        E 0 80 63 00
        E 180 90 61 60
        E 0 90 63 60
        E 60 80 61 00
        E 0 80 63 00
        E 180 90 61 60
        E 0 90 63 60
        E 60 80 61 00
        E 0 80 63 00
        E 180 90 62 60
        E 0 90 63 60
        E 60 80 62 00
        E 0 80 63 00
        E 180 90 62 60
        E 0 90 63 60
        E 60 80 62 00
        E 0 80 63 00
        E 420 90 61 60
        E 0 90 63 60
        E 60 80 61 00
        E 0 80 63 00
        E 180 90 61 60
        E 0 90 63 60
        E 60 80 61 00
        E 0 80 63 00
        E 180 90 61 60
        E 0 90 63 60
        E 60 80 61 00
        E 0 80 63 00
        E 180 90 62 60
        E 0 90 63 60
        E 60 80 62 00
        E 0 80 63 00
        E 180 90 62 60
        E 0 90 63 60
        E 60 80 62 00
        E 0 80 63 00
        E 420 90 61 60
        E 0 90 63 60
        E 60 80 61 00
        E 0 80 63 00
        E 180 90 61 60
        E 0 90 63 60
        E 60 80 61 00
        E 0 80 63 00
        E 180 90 61 60
        E 0 90 63 60
        E 60 80 61 00
        E 0 80 63 00
        E 180 90 62 60
        E 0 90 63 60
        E 60 80 62 00
        E 0 80 63 00
        E 180 90 62 60
        E 0 90 63 60
        E 60 80 62 00
        E 0 80 63 00
        E 420 90 61 60
        E 0 90 63 60
        E 60 80 61 00
        E 0 80 63 00
        E 180 90 61 60
        E 0 90 63 60
        E 60 80 61 00
        E 0 80 63 00
        E 180 90 61 60
        E 0 90 63 60
        E 60 80 61 00
        E 0 80 63 00
        E 180 90 62 60
        E 0 90 63 60
        E 60 80 62 00
        E 0 80 63 00
        E 180 90 62 60
        E 0 90 63 60
        E 360 80 62 00
        E 0 80 63 00
        E 120 90 61 60
        E 0 90 63 60
        E 60 80 61 00
        E 0 80 63 00
        E 180 90 61 60
        E 0 90 63 60
        E 60 80 61 00
        E 0 80 63 00
        E 180 90 61 60
        E 0 90 63 60
        E 60 80 61 00
        E 0 80 63 00
        E 180 90 62 60
        E 0 90 63 60
        E 60 80 62 00
        E 0 80 63 00
        E 180 90 62 60
        E 0 90 63 60
        E 60 80 62 00
        E 0 80 63 00
        E 420 90 61 60
        E 0 90 63 60
        E 60 80 61 00
        E 0 80 63 00
        E 180 90 61 60
        E 0 90 63 60
        E 60 80 61 00
        E 0 80 63 00
        E 180 90 61 60
        E 0 90 63 60
        E 60 80 61 00
        E 0 80 63 00
        E 180 90 62 60
        E 0 90 63 60
        E 60 80 62 00
        E 0 80 63 00
        E 180 90 62 60
        E 0 90 63 60
        E 60 80 62 00
        E 0 80 63 00
        E 420 90 61 60
        E 0 90 63 60
        E 60 80 61 00
        E 0 80 63 00
        E 180 90 61 60
        E 0 90 63 60
        E 60 80 61 00
        E 0 80 63 00
        E 180 90 61 60
        E 0 90 63 60
        E 60 80 61 00
        E 0 80 63 00
        E 180 90 62 60
        E 0 90 63 60
        E 60 80 62 00
        E 0 80 63 00
        E 180 90 62 60
        E 0 90 63 60
        E 60 80 62 00
        E 0 80 63 00
        E 420 90 61 60
        E 0 90 63 60
        E 60 80 61 00
        E 0 80 63 00
        E 180 90 61 60
        E 0 90 63 60
        E 60 80 61 00
        E 0 80 63 00
        E 180 90 61 60
        E 0 90 63 60
        E 60 80 61 00
        E 0 80 63 00
        E 180 90 62 60
        E 0 90 63 60
        E 60 80 62 00
        E 0 80 63 00
        E 180 90 62 60
        E 0 90 63 60
        E 360 80 62 00
        E 0 80 63 00
        E 120 90 61 60
        E 0 90 63 60
        E 60 80 61 00
        E 0 80 63 00
        E 180 90 61 60
        E 0 90 63 60
        E 60 80 61 00
        E 0 80 63 00
        E 180 90 61 60
        E 0 90 63 60
        E 60 80 61 00
        E 0 80 63 00
        E 180 90 62 60
        E 0 90 63 60
        E 60 80 62 00
        E 0 80 63 00
        E 180 90 62 60
        E 0 90 63 60
        E 60 80 62 00
        E 0 80 63 00
        E 420 90 61 60
        E 0 90 63 60
        E 60 80 61 00
        E 0 80 63 00
        E 180 90 61 60
        E 0 90 63 60
        E 60 80 61 00
        E 0 80 63 00
        E 180 90 61 60
        E 0 90 63 60
        E 60 80 61 00
        E 0 80 63 00
        E 180 90 62 60
        E 0 90 63 60
        E 60 80 62 00
        E 0 80 63 00
        E 180 90 62 60
        E 0 90 63 60
        E 60 80 62 00
        E 0 80 63 00
        E 420 90 61 60
        E 0 90 63 60
        E 60 80 61 00
        E 0 80 63 00
        E 180 90 61 60
        E 0 90 63 60
        E 60 80 61 00
        E 0 80 63 00
        E 180 90 61 60
        E 0 90 63 60
        E 60 80 61 00
        E 0 80 63 00
        E 180 90 62 60
        E 0 90 63 60
        E 60 80 62 00
        E 0 80 63 00
        E 180 90 62 60
        E 0 90 63 60
        E 60 80 62 00
        E 0 80 63 00
        E 420 90 61 60
        E 0 90 63 60
        E 60 80 61 00
        E 0 80 63 00
        E 180 90 61 60
        E 0 90 63 60
        E 60 80 61 00
        E 0 80 63 00
        E 180 90 61 60
        E 0 90 63 60
        E 60 80 61 00
        E 0 80 63 00
        E 180 90 62 60
        E 0 90 63 60
        E 60 80 62 00
        E 0 80 63 00
        E 180 90 62 60
        E 0 90 63 60
        E 360 80 62 00
        E 0 80 63 00
        E 120 90 61 60
        E 0 90 62 60
        E 0 90 64 60
        E 60 80 61 00
        E 0 80 62 00
        E 0 80 64 00
        E 180 90 61 60
        E 0 90 62 60
        E 0 90 64 60
        E 60 80 61 00
        E 0 80 62 00
        E 0 80 64 00
        E 180 90 61 60
        E 0 90 62 60
        E 0 90 64 60
        E 60 80 61 00
        E 0 80 62 00
        E 0 80 64 00
        E 180 90 61 60
        E 0 90 62 60
        E 0 90 64 60
        E 60 80 61 00
        E 0 80 62 00
        E 0 80 64 00
        E 180 90 61 60
        E 0 90 62 60
        E 0 90 64 60
        E 60 80 61 00
        E 0 80 62 00
        E 0 80 64 00
        E 420 90 61 60
        E 0 90 62 60
        E 0 90 64 60
        E 60 80 61 00
        E 0 80 62 00
        E 0 80 64 00
        E 180 90 61 60
        E 0 90 62 60
        E 0 90 64 60
        E 60 80 61 00
        E 0 80 62 00
        E 0 80 64 00
        E 180 90 61 60
        E 0 90 62 60
        E 0 90 64 60
        E 60 80 61 00
        E 0 80 62 00
        E 0 80 64 00
        E 180 90 61 60
        E 0 90 62 60
        E 0 90 64 60
        E 60 80 61 00
        E 0 80 62 00
        E 0 80 64 00
        E 180 90 61 60
        E 0 90 62 60
        E 0 90 64 60
        E 60 80 61 00
        E 0 80 62 00
        E 0 80 64 00
        E 180 90 74 60
        E 240 90 60 60
        E 0 90 62 60
        E 0 90 63 60
        E 60 80 60 00
        E 0 80 62 00
        E 0 80 63 00
        E 180 90 60 60
        E 0 90 62 60
        E 0 90 63 60
        E 60 80 60 00
        E 0 80 62 00
        E 0 80 63 00
        E 180 90 60 60
        E 0 90 62 60
        E 0 90 63 60
        E 60 80 60 00
        E 0 80 62 00
        E 0 80 63 00
        E 180 90 60 60
        E 0 90 62 60
        E 0 90 63 60
        E 60 80 60 00
        E 0 80 62 00
        E 0 80 63 00
        E 180 90 60 60
        E 0 90 62 60
        E 0 90 63 60
        E 60 80 60 00
        E 0 80 62 00
        E 0 80 63 00
        E 420 90 61 60
        E 0 90 63 60
        E 0 90 64 60
        E 60 80 61 00
        E 0 80 63 00
        E 0 80 64 00
        E 180 90 61 60
        E 0 90 63 60
        E 0 90 64 60
        E 60 80 61 00
        E 0 80 63 00
        E 0 80 64 00
        E 180 90 61 60
        E 0 90 63 60
        E 0 90 64 60
        E 60 80 61 00
        E 0 80 63 00
        E 0 80 64 00
        E 180 90 61 60
        E 0 90 63 60
        E 0 90 64 60
        E 60 80 61 00
        E 0 80 63 00
        E 0 80 64 00
        E 180 90 61 60
        E 0 90 63 60
        E 0 90 64 60
        E 60 80 61 00
        E 0 80 63 00
        E 0 80 64 00
        E 180 80 74 00
        E 240 90 62 60
        E 0 90 63 60
        E 0 90 64 60
        E 60 80 62 00
        E 0 80 63 00
        E 0 80 64 00
        E 180 90 62 60
        E 0 90 63 60
        E 0 90 64 60
        E 60 80 62 00
        E 0 80 63 00
        E 0 80 64 00
        E 180 90 62 60
        E 0 90 63 60
        E 0 90 64 60
        E 60 80 62 00
        E 0 80 63 00
        E 0 80 64 00
        E 180 90 62 60
        E 0 90 63 60
        E 0 90 64 60
        E 60 80 62 00
        E 0 80 63 00
        E 0 80 64 00
        E 180 90 62 60
        E 0 90 63 60
        E 0 90 64 60
        E 60 80 62 00
        E 0 80 63 00
        E 0 80 64 00
        E 420 90 60 60
        E 0 90 61 60
        E 60 80 60 00
        E 0 80 61 00
        E 180 90 60 60
        E 0 90 61 60
        E 60 80 60 00
        E 0 80 61 00
        E 180 90 60 60
        E 0 90 61 60
        E 60 80 60 00
        E 0 80 61 00
        E 180 90 60 60
        E 0 90 61 60
        E 60 80 60 00
        E 0 80 61 00
        E 180 90 60 60
        E 0 90 63 60
        E 360 80 60 00
        E 0 80 63 00
        E 120 90 61 60
        E 0 90 62 60
        E 0 90 64 60
        E 60 80 61 00
        E 0 80 62 00
        E 0 80 64 00
        E 180 90 61 60
        E 0 90 62 60
        E 0 90 64 60
        E 60 80 61 00
        E 0 80 62 00
        E 0 80 64 00
        E 180 90 61 60
        E 0 90 62 60
        E 0 90 64 60
        E 60 80 61 00
        E 0 80 62 00
        E 0 80 64 00
        E 180 90 61 60
        E 0 90 62 60
        E 0 90 64 60
        E 60 80 61 00
        E 0 80 62 00
        E 0 80 64 00
        E 180 90 61 60
        E 0 90 62 60
        E 0 90 64 60
        E 60 80 61 00
        E 0 80 62 00
        E 0 80 64 00
        E 420 90 61 60
        E 0 90 62 60
        E 0 90 64 60
        E 60 80 61 00
        E 0 80 62 00
        E 0 80 64 00
        E 180 90 61 60
        E 0 90 62 60
        E 0 90 64 60
        E 60 80 61 00
        E 0 80 62 00
        E 0 80 64 00
        E 180 90 61 60
        E 0 90 62 60
        E 0 90 64 60
        E 60 80 61 00
        E 0 80 62 00
        E 0 80 64 00
        E 180 90 61 60
        E 0 90 62 60
        E 0 90 64 60
        E 60 80 61 00
        E 0 80 62 00
        E 0 80 64 00
        E 180 90 61 60
        E 0 90 62 60
        E 0 90 64 60
        E 60 80 61 00
        E 0 80 62 00
        E 0 80 64 00
        E 420 90 60 60
        E 0 90 62 60
        E 0 90 63 60
        E 60 80 60 00
        E 0 80 62 00
        E 0 80 63 00
        E 180 90 60 60
        E 0 90 62 60
        E 0 90 63 60
        E 60 80 60 00
        E 0 80 62 00
        E 0 80 63 00
        E 180 90 60 60
        E 0 90 62 60
        E 0 90 63 60
        E 60 80 60 00
        E 0 80 62 00
        E 0 80 63 00
        E 180 90 60 60
        E 0 90 62 60
        E 0 90 63 60
        E 60 80 60 00
        E 0 80 62 00
        E 0 80 63 00
        E 180 90 60 60
        E 0 90 62 60
        E 0 90 63 60
        E 60 80 60 00
        E 0 80 62 00
        E 0 80 63 00
        E 420 90 61 60
        E 0 90 63 60
        E 0 90 64 60
        E 60 80 61 00
        E 0 80 63 00
        E 0 80 64 00
        E 180 90 61 60
        E 0 90 63 60
        E 0 90 64 60
        E 60 80 61 00
        E 0 80 63 00
        E 0 80 64 00
        E 180 90 61 60
        E 0 90 63 60
        E 0 90 64 60
        E 60 80 61 00
        E 0 80 63 00
        E 0 80 64 00
        E 180 90 61 60
        E 0 90 63 60
        E 0 90 64 60
        E 60 80 61 00
        E 0 80 63 00
        E 0 80 64 00
        E 180 90 61 60
        E 0 90 63 60
        E 0 90 64 60
        E 60 80 61 00
        E 0 80 63 00
        E 0 80 64 00
        E 420 90 62 60
        E 0 90 63 60
        E 0 90 64 60
        E 60 80 62 00
        E 0 80 63 00
        E 0 80 64 00
        E 180 90 62 60
        E 0 90 63 60
        E 0 90 64 60
        E 60 80 62 00
        E 0 80 63 00
        E 0 80 64 00
        E 180 90 62 60
        E 0 90 63 60
        E 0 90 64 60
        E 60 80 62 00
        E 0 80 63 00
        E 0 80 64 00
        E 180 90 62 60
        E 0 90 63 60
        E 0 90 64 60
        E 60 80 62 00
        E 0 80 63 00
        E 0 80 64 00
        E 180 90 62 60
        E 0 90 63 60
        E 0 90 64 60
        E 60 80 62 00
        E 0 80 63 00
        E 0 80 64 00
        E 420 90 60 60
        E 0 90 61 60
        E 60 80 60 00
        E 0 80 61 00
        E 180 90 60 60
        E 0 90 61 60
        E 60 80 60 00
        E 0 80 61 00
        E 180 90 60 60
        E 0 90 61 60
        E 60 80 60 00
        E 0 80 61 00
        E 180 90 60 60
        E 0 90 61 60
        E 60 80 60 00
        E 0 80 61 00
        E 180 90 60 60
        E 0 90 63 60
        E 360 80 60 00
        E 0 80 63 00
        E 120 90 61 60
        E 0 90 62 60
        E 0 90 64 60
        E 60 80 61 00
        E 0 80 62 00
        E 0 80 64 00
        E 180 90 61 60
        E 0 90 62 60
        E 0 90 64 60
        E 60 80 61 00
        E 0 80 62 00
        E 0 80 64 00
        E 180 90 61 60
        E 0 90 62 60
        E 0 90 64 60
        E 60 80 61 00
        E 0 80 62 00
        E 0 80 64 00
        E 180 90 61 60
        E 0 90 62 60
        E 0 90 64 60
        E 60 80 61 00
        E 0 80 62 00
        E 0 80 64 00
        E 180 90 61 60
        E 0 90 62 60
        E 0 90 64 60
        E 60 80 61 00
        E 0 80 62 00
        E 0 80 64 00
        E 420 90 61 60
        E 0 90 62 60
        E 0 90 64 60
        E 60 80 61 00
        E 0 80 62 00
        E 0 80 64 00
        E 180 90 61 60
        E 0 90 62 60
        E 0 90 64 60
        E 60 80 61 00
        E 0 80 62 00
        E 0 80 64 00
        E 180 90 61 60
        E 0 90 62 60
        E 0 90 64 60
        E 60 80 61 00
        E 0 80 62 00
        E 0 80 64 00
        E 180 90 61 60
        E 0 90 62 60
        E 0 90 64 60
        E 60 80 61 00
        E 0 80 62 00
        E 0 80 64 00
        E 180 90 61 60
        E 0 90 62 60
        E 0 90 64 60
        E 60 80 61 00
        E 0 80 62 00
        E 0 80 64 00
        E 420 90 60 60
        E 0 90 62 60
        E 0 90 63 60
        E 60 80 60 00
        E 0 80 62 00
        E 0 80 63 00
        E 180 90 60 60
        E 0 90 62 60
        E 0 90 63 60
        E 60 80 60 00
        E 0 80 62 00
        E 0 80 63 00
        E 180 90 60 60
        E 0 90 62 60
        E 0 90 63 60
        E 60 80 60 00
        E 0 80 62 00
        E 0 80 63 00
        E 180 90 60 60
        E 0 90 62 60
        E 0 90 63 60
        E 60 80 60 00
        E 0 80 62 00
        E 0 80 63 00
        E 180 90 60 60
        E 0 90 62 60
        E 0 90 63 60
        E 60 80 60 00
        E 0 80 62 00
        E 0 80 63 00
        E 420 90 61 60
        E 0 90 63 60
        E 0 90 64 60
        E 60 80 61 00
        E 0 80 63 00
        E 0 80 64 00
        E 180 90 61 60
        E 0 90 63 60
        E 0 90 64 60
        E 60 80 61 00
        E 0 80 63 00
        E 0 80 64 00
        E 180 90 61 60
        E 0 90 63 60
        E 0 90 64 60
        E 60 80 61 00
        E 0 80 63 00
        E 0 80 64 00
        E 180 90 61 60
        E 0 90 63 60
        E 0 90 64 60
        E 60 80 61 00
        E 0 80 63 00
        E 0 80 64 00
        E 180 90 61 60
        E 0 90 63 60
        E 0 90 64 60
        E 60 80 61 00
        E 0 80 63 00
        E 0 80 64 00
        E 420 90 62 60
        E 0 90 63 60
        E 0 90 64 60
        E 60 80 62 00
        E 0 80 63 00
        E 0 80 64 00
        E 180 90 62 60
        E 0 90 63 60
        E 0 90 64 60
        E 60 80 62 00
        E 0 80 63 00
        E 0 80 64 00
        E 180 90 62 60
        E 0 90 63 60
        E 0 90 64 60
        E 60 80 62 00
        E 0 80 63 00
        E 0 80 64 00
        E 180 90 62 60
        E 0 90 63 60
        E 0 90 64 60
        E 60 80 62 00
        E 0 80 63 00
        E 0 80 64 00
        E 180 90 62 60
        E 0 90 63 60
        E 0 90 64 60
        E 60 80 62 00
        E 0 80 63 00
        E 0 80 64 00
        E 420 90 60 60
        E 0 90 61 60
        E 60 80 60 00
        E 0 80 61 00
        E 180 90 60 60
        E 0 90 61 60
        E 60 80 60 00
        E 0 80 61 00
        E 180 90 60 60
        E 0 90 61 60
        E 60 80 60 00
        E 0 80 61 00
        E 180 90 60 60
        E 0 90 61 60
        E 60 80 60 00
        E 0 80 61 00
        E 180 90 60 60
        E 0 90 63 60
        E 360 80 60 00
        E 0 80 63 00
        E 120 90 61 60
        E 0 90 62 60
        E 0 90 64 60
        E 60 80 61 00
        E 0 80 62 00
        E 0 80 64 00
        E 180 90 61 60
        E 0 90 62 60
        E 0 90 64 60
        E 60 80 61 00
        E 0 80 62 00
        E 0 80 64 00
        E 180 90 61 60
        E 0 90 62 60
        E 0 90 64 60
        E 60 80 61 00
        E 0 80 62 00
        E 0 80 64 00
        E 180 90 61 60
        E 0 90 62 60
        E 0 90 64 60
        E 60 80 61 00
        E 0 80 62 00
        E 0 80 64 00
        E 180 90 61 60
        E 0 90 62 60
        E 0 90 64 60
        E 60 80 61 00
        E 0 80 62 00
        E 0 80 64 00
        E 420 90 61 60
        E 0 90 62 60
        E 0 90 64 60
        E 60 80 61 00
        E 0 80 62 00
        E 0 80 64 00
        E 180 90 61 60
        E 0 90 62 60
        E 0 90 64 60
        E 60 80 61 00
        E 0 80 62 00
        E 0 80 64 00
        E 180 90 61 60
        E 0 90 62 60
        E 0 90 64 60
        E 60 80 61 00
        E 0 80 62 00
        E 0 80 64 00
        E 180 90 61 60
        E 0 90 62 60
        E 0 90 64 60
        E 60 80 61 00
        E 0 80 62 00
        E 0 80 64 00
        E 180 90 61 60
        E 0 90 62 60
        E 0 90 64 60
        E 60 80 61 00
        E 0 80 62 00
        E 0 80 64 00
        E 420 90 60 60
        E 0 90 62 60
        E 0 90 63 60
        E 60 80 60 00
        E 0 80 62 00
        E 0 80 63 00
        E 180 90 60 60
        E 0 90 62 60
        E 0 90 63 60
        E 60 80 60 00
        E 0 80 62 00
        E 0 80 63 00
        E 180 90 60 60
        E 0 90 62 60
        E 0 90 63 60
        E 60 80 60 00
        E 0 80 62 00
        E 0 80 63 00
        E 180 90 60 60
        E 0 90 62 60
        E 0 90 63 60
        E 60 80 60 00
        E 0 80 62 00
        E 0 80 63 00
        E 180 90 60 60
        E 0 90 62 60
        E 0 90 63 60
        E 60 80 60 00
        E 0 80 62 00
        E 0 80 63 00
        E 420 90 61 60
        E 0 90 63 60
        E 0 90 64 60
        E 60 80 61 00
        E 0 80 63 00
        E 0 80 64 00
        E 180 90 61 60
        E 0 90 63 60
        E 0 90 64 60
        E 60 80 61 00
        E 0 80 63 00
        E 0 80 64 00
        E 180 90 61 60
        E 0 90 63 60
        E 0 90 64 60
        E 60 80 61 00
        E 0 80 63 00
        E 0 80 64 00
        E 180 90 61 60
        E 0 90 63 60
        E 0 90 64 60
        E 60 80 61 00
        E 0 80 63 00
        E 0 80 64 00
        E 180 90 61 60
        E 0 90 63 60
        E 0 90 64 60
        E 60 80 61 00
        E 0 80 63 00
        E 0 80 64 00
        E 420 90 62 60
        E 0 90 63 60
        E 0 90 64 60
        E 60 80 62 00
        E 0 80 63 00
        E 0 80 64 00
        E 180 90 62 60
        E 0 90 63 60
        E 0 90 64 60
        E 60 80 62 00
        E 0 80 63 00
        E 0 80 64 00
        E 180 90 62 60
        E 0 90 63 60
        E 0 90 64 60
        E 60 80 62 00
        E 0 80 63 00
        E 0 80 64 00
        E 180 90 62 60
        E 0 90 63 60
        E 0 90 64 60
        E 60 80 62 00
        E 0 80 63 00
        E 0 80 64 00
        E 180 90 62 60
        E 0 90 63 60
        E 0 90 64 60
        E 60 80 62 00
        E 0 80 63 00
        E 0 80 64 00
        E 420 90 60 60
        E 0 90 61 60
        E 60 80 60 00
        E 0 80 61 00
        E 180 90 60 60
        E 0 90 61 60
        E 60 80 60 00
        E 0 80 61 00
        E 180 90 60 60
        E 0 90 61 60
        E 60 80 60 00
        E 0 80 61 00
        E 180 90 60 60
        E 0 90 61 60
        E 60 80 60 00
        E 0 80 61 00
        E 180 90 61 60
        E 0 90 63 60
        E 360 80 61 00
        E 0 80 63 00
        E 7560 b0 7b 00
        GUID {14D9E950-FB92-4048-8603-8FD02AE3B865}
        IGNTEMPO 0 120.00000000 4 4
        SRCCOLOR 69
        VELLANE 132 38 60
        COLORMAP "M:\RGS Documents\ColorMaps\rockband_guitarbass.png"
        TEXTSTRINGFILE "Text Events List.txt"
        CFGEDITVIEW 402712.614150 95.417671 7 20 0 0 0
        CFGEDIT 1 1 0 0 0 1 1 1 1 1 1 0.25000000 20 3 1398 747 1 2 1 2 0.12500000 0 0 0 0 0.500000 1 0 1.000000 64
        KEYSNAP 0 0 "102034050607" 0 "Major"
        EVTFILTER 0 -1 -1 -1 -1 0 1 0 0 -1.00000000 -1.00000000
      >
    >
  >
  <TRACK '{4BCC1CF3-63A3-43C4-A155-D3593AD88A10}'
    NAME "EVENTS"
    PEAKCOL 29393024
    BEAT -1
    AUTOMODE 0
    VOLPAN 1.00000000000000 0.00000000000000 -1.00000000000000 -1.00000000000000 1.00000000000000
    MUTESOLO 0 0 0
    IPHASE 0
    ISBUS 0 0
    BUSCOMP 0 0
    SHOWINMIX 1 0.666700 0.500000 1 0.500000 -1 -1 -1
    FREEMODE 0
    SEL 1
    REC 0 0 0 0 0 0 0
    TRACKHEIGHT 0 0
    INQ 0 0 0 0.5000000000 100 0 0 100
    NCHAN 2
    FX 1
    TRACKID {4BCC1CF3-63A3-43C4-A155-D3593AD88A10}
    PERF 0
    MIDIOUT -1
    MAINSEND 1 0
    <FXCHAIN
      SHOW 0
      LASTSEL 0
      DOCKED 0
    >
    <ITEM
      POSITION 0.00000000000000
      SNAPOFFS 0.00000000000000
      LENGTH 307.19999999999999
      LOOP 0
      ALLTAKES 0
      SEL 1
      FADEIN 1 0.000000 0.000000 1 0
      FADEOUT 1 0.000000 0.000000 1 0
      MUTE 0
      IGUID {86A06D27-867C-4398-9CE6-8F0526B3B594}
      IID 15
      NAME "EVENTS"
      VOLPAN 1.000000 0.000000 1.000000 -1.000000
      SOFFS 0.00000000000000 0.00000000000000
      PLAYRATE 1.00000000000000 1 0.00000000000000 -65536
      CHANMODE 0
      GUID {584C8192-4FF3-4E29-8138-2E6BD568B61A}
      <SOURCE MIDI
        HASDATA 1 480 QN
        POOLEDEVTS {CFA0CFAF-F1BB-4921-AE39-4257A4918F89}
        <X 0 0
          /wNFVkVOVFM=
        >
        <X 0 0
          /wFbY3Jvd2Rfbm9ybWFsXQ==
        >
        <X 5760 0
          /wFbbXVzaWNfc3RhcnRd
        >
        <X 455040 0
          /wVbbXVzaWNfZW5kXQ==
        >
        <X 7680 0
          /wVbZW5kXQ==
        >
        E 480 b0 7b 00
        GUID {40AD7956-A22A-434A-8513-4D3792B9DF69}
        IGNTEMPO 0 120.00000000 4 4
        SRCCOLOR 81
        VELLANE 132 230 128
        COLORMAP "M:\RGS Documents\ColorMaps\rockband_vox-other.png"
        TEXTSTRINGFILE "Text Events List.txt"
        CFGEDITVIEW 458147.839414 98.454842 0 12 0 0 0
        CFGEDIT 1 1 0 0 1 1 1 1 1 1 1 0.50000000 53 112 1249 758 0 0 1 2 0.00000000 0 0 0 0 0.500000 1 0 1.000000 64
        KEYSNAP 0 0 "102034050607" 0 "Major"
        EVTFILTER 0 -1 -1 -1 -1 0 1 0 0 -1.00000000 -1.00000000
      >
    >
  >
  <TRACK '{1529008F-97D2-43EB-8634-7C5A7418AD90}'
    NAME "VENUE"
    PEAKCOL 16842496
    BEAT -1
    AUTOMODE 0
    VOLPAN 1.00000000000000 0.00000000000000 -1.00000000000000 -1.00000000000000 1.00000000000000
    MUTESOLO 0 0 0
    IPHASE 0
    ISBUS 0 0
    BUSCOMP 0 0
    SHOWINMIX 1 0.666700 0.500000 1 0.500000 -1 -1 -1
    FREEMODE 0
    SEL 0
    REC 0 0 0 0 0 0 0
    TRACKHEIGHT 0 0
    INQ 0 0 0 0.5000000000 100 0 0 100
    NCHAN 2
    FX 1
    TRACKID {1529008F-97D2-43EB-8634-7C5A7418AD90}
    PERF 0
    MIDIOUT -1
    <MIDINOTENAMES
      0 110 "Trails"
      0 109 "Security Camera"
      0 108 "Black and White"
      0 107 "Lines"
      0 106 "Blue Tint"
      0 105 "Mirror"
      0 104 "Bloom B"
      0 103 "Bloom A"
      0 102 "Photocopy"
      0 101 "Negative"
      0 100 "Silvertone"
      0 99 "Sepia"
      0 98 "16mm"
      0 97 "Contrast A"
      0 96 "Default"
      0 95 "----"
      0 87 "Guitarist Sing Along"
      0 86 "Drummer Sing Along"
      0 85 "Bassist Sing Along"
      0 84 "----"
      0 73 "No Close Ups"
      0 72 "Only Close Ups"
      0 71 "Only Far Shots"
      0 70 "No Behind Shots"
      0 64 "Focus on Vocalist"
      0 63 "Focus on Guitarist"
      0 62 "Focus on Drummer"
      0 61 "Focus on Bassist"
      0 60 "Camera Cut"
      0 50 "First Keyframe"
      0 49 "Previous Keyframe"
      0 48 "Next Keyframe"
      0 40 "Spotlight on Vocals"
      0 39 "Spotlight on Guitar"
      0 38 "Spotlight on Drums"
      0 37 "Spotlight on Bass"
      0 47 "----"
      0 59 "----"
      0 69 "----"
    >
    MAINSEND 1 0
    <FXCHAIN
      SHOW 0
      LASTSEL 0
      DOCKED 0
    >
    <ITEM
      POSITION 0.00000000000000
      SNAPOFFS 0.00000000000000
      LENGTH 306.80000000000001
      LOOP 0
      ALLTAKES 0
      SEL 0
      FADEIN 1 0.000000 0.000000 1 0
      FADEOUT 1 0.000000 0.000000 1 0
      MUTE 0
      IGUID {71027329-E0AB-447D-A192-4839733334E7}
      IID 16
      NAME "VENUE"
      VOLPAN 1.000000 0.000000 1.000000 -1.000000
      SOFFS 0.00000000000000 0.00000000000000
      PLAYRATE 1.00000000000000 1 0.00000000000000 -65536
      CHANMODE 0
      GUID {44F0FFD1-5109-4A47-8BED-262AA04D3B23}
      <SOURCE MIDI
        HASDATA 1 480 QN
        POOLEDEVTS {26A8D109-E553-42B4-B318-8DF92B979473}
        E 468480 b0 7b 00
        GUID {30097062-47C5-4B33-B665-170EF09D70D9}
        IGNTEMPO 0 120.00000000 4 4
        SRCCOLOR 82
        VELLANE 132 230 230
        COLORMAP "M:\RGS Documents\ColorMaps\rockband_vox-other.png"
        TEXTSTRINGFILE "Text Events List.txt"
        CFGEDITVIEW -505.881180 3.162798 0 13 0 0 0
        CFGEDIT 1 1 0 0 0 1 1 1 1 1 1 0.25000000 133 19 1300 803 0 2 1 2 0.00000000 0 0 0 0 0.500000 1 0 1.000000 64
        KEYSNAP 0 0 "102034050607" 0 "Major"
        EVTFILTER 0 -1 -1 -1 -1 0 1 0 0 -1.00000000 -1.00000000
      >
    >
  >
  <TRACK '{7BC63EFC-0ABC-4D0D-8204-E9893AE9FFFA}'
    NAME "BEAT"
    PEAKCOL 23514346
    BEAT -1
    AUTOMODE 0
    VOLPAN 1.00000000000000 0.00000000000000 -1.00000000000000 -1.00000000000000 1.00000000000000
    MUTESOLO 0 0 0
    IPHASE 0
    ISBUS 0 0
    BUSCOMP 1 0
    SHOWINMIX 1 0.666700 0.500000 1 0.500000 -1 -1 -1
    FREEMODE 0
    SEL 0
    REC 0 0 0 0 0 0 0
    TRACKHEIGHT 0 0
    INQ 0 0 0 0.5000000000 100 0 0 100
    NCHAN 2
    FX 1
    TRACKID {7BC63EFC-0ABC-4D0D-8204-E9893AE9FFFA}
    PERF 0
    MIDIOUT -1
    <MIDINOTENAMES
      0 12 "Downbeat"
      0 13 "Up Beats"
    >
    MAINSEND 1 0
    <FXCHAIN
      SHOW 0
      LASTSEL 0
      DOCKED 0
    >
    <ITEM
      POSITION 0.00000000000000
      SNAPOFFS 0.00000000000000
      LENGTH 306.80000000000001
      LOOP 0
      ALLTAKES 0
      SEL 0
      FADEIN 1 0.000000 0.000000 1 0
      FADEOUT 1 0.000000 0.000000 1 0
      MUTE 0
      IGUID {9960CDFD-BF2E-4E67-97CD-4F13D0A3F2ED}
      IID 17
      NAME "BEAT"
      VOLPAN 1.000000 0.000000 1.000000 -1.000000
      SOFFS 0.00000000000000 0.00000000000000
      PLAYRATE 1.00000000000000 1 0.00000000000000 -65536
      CHANMODE 0
      GUID {CEBFDCF1-B2BD-47E1-A085-C26E1C9E9ED2}
      <SOURCE MIDI
        HASDATA 1 480 QN
        POOLEDEVTS {E75C44F7-CD7F-4CF8-A8E2-1D706A6A8D27}
        <X 0 0
          /wNCRUFU
        >
        E 0 90 0c 60
        E 480 80 0c 00
        E 480 90 0d 60
        E 480 80 0d 00
        E 480 90 0d 60
        E 480 80 0d 00
        E 480 90 0d 60
        E 480 80 0d 00
        E 480 90 0c 60
        E 480 80 0c 00
        E 480 90 0d 60
        E 480 80 0d 00
        E 480 90 0d 60
        E 480 80 0d 00
        E 480 90 0d 60
        E 480 80 0d 00
        E 480 90 0c 60
        E 480 80 0c 00
        E 480 90 0d 60
        E 480 80 0d 00
        E 480 90 0d 60
        E 480 80 0d 00
        E 480 90 0d 60
        E 480 80 0d 00
        E 480 90 0c 60
        E 480 80 0c 00
        E 480 90 0d 60
        E 480 80 0d 00
        E 480 90 0d 60
        E 480 80 0d 00
        E 480 90 0d 60
        E 480 80 0d 00
        E 480 90 0c 60
        E 480 80 0c 00
        E 480 90 0d 60
        E 480 80 0d 00
        E 480 90 0d 60
        E 480 80 0d 00
        E 480 90 0d 60
        E 480 80 0d 00
        E 480 90 0c 60
        E 480 80 0c 00
        E 480 90 0d 60
        E 480 80 0d 00
        E 480 90 0d 60
        E 480 80 0d 00
        E 480 90 0d 60
        E 480 80 0d 00
        E 480 90 0c 60
        E 480 80 0c 00
        E 480 90 0d 60
        E 480 80 0d 00
        E 480 90 0d 60
        E 480 80 0d 00
        E 480 90 0d 60
        E 480 80 0d 00
        E 480 90 0c 60
        E 480 80 0c 00
        E 480 90 0d 60
        E 480 80 0d 00
        E 480 90 0d 60
        E 480 80 0d 00
        E 480 90 0d 60
        E 480 80 0d 00
        E 480 90 0c 60
        E 480 80 0c 00
        E 480 90 0d 60
        E 480 80 0d 00
        E 480 90 0d 60
        E 480 80 0d 00
        E 480 90 0d 60
        E 480 80 0d 00
        E 480 90 0c 60
        E 480 80 0c 00
        E 480 90 0d 60
        E 480 80 0d 00
        E 480 90 0d 60
        E 480 80 0d 00
        E 480 90 0d 60
        E 480 80 0d 00
        E 960 90 0c 60
        E 480 80 0c 00
        E 480 90 0d 60
        E 480 80 0d 00
        E 480 90 0d 60
        E 480 80 0d 00
        E 480 90 0d 60
        E 480 80 0d 00
        E 960 90 0c 60
        E 480 80 0c 00
        E 480 90 0d 60
        E 480 80 0d 00
        E 480 90 0d 60
        E 480 80 0d 00
        E 480 90 0d 60
        E 480 80 0d 00
        E 480 90 0c 60
        E 480 80 0c 00
        E 480 90 0d 60
        E 480 80 0d 00
        E 480 90 0d 60
        E 480 80 0d 00
        E 480 90 0d 60
        E 480 80 0d 00
        E 480 90 0c 60
        E 480 80 0c 00
        E 480 90 0d 60
        E 480 80 0d 00
        E 480 90 0d 60
        E 480 80 0d 00
        E 480 90 0d 60
        E 480 80 0d 00
        E 480 90 0c 60
        E 480 80 0c 00
        E 480 90 0d 60
        E 480 80 0d 00
        E 480 90 0d 60
        E 480 80 0d 00
        E 480 90 0d 60
        E 480 80 0d 00
        E 480 90 0c 60
        E 480 80 0c 00
        E 480 90 0d 60
        E 480 80 0d 00
        E 480 90 0d 60
        E 480 80 0d 00
        E 480 90 0d 60
        E 480 80 0d 00
        E 480 90 0c 60
        E 480 80 0c 00
        E 480 90 0d 60
        E 480 80 0d 00
        E 480 90 0d 60
        E 480 80 0d 00
        E 480 90 0d 60
        E 480 80 0d 00
        E 480 90 0c 60
        E 480 80 0c 00
        E 480 90 0d 60
        E 480 80 0d 00
        E 480 90 0d 60
        E 480 80 0d 00
        E 480 90 0d 60
        E 480 80 0d 00
        E 480 90 0c 60
        E 480 80 0c 00
        E 480 90 0d 60
        E 480 80 0d 00
        E 480 90 0d 60
        E 480 80 0d 00
        E 480 90 0d 60
        E 480 80 0d 00
        E 480 90 0c 60
        E 480 80 0c 00
        E 480 90 0d 60
        E 480 80 0d 00
        E 480 90 0d 60
        E 480 80 0d 00
        E 480 90 0d 60
        E 480 80 0d 00
        E 480 90 0c 60
        E 480 80 0c 00
        E 480 90 0d 60
        E 480 80 0d 00
        E 480 90 0d 60
        E 480 80 0d 00
        E 480 90 0d 60
        E 480 80 0d 00
        E 480 90 0c 60
        E 480 80 0c 00
        E 480 90 0d 60
        E 480 80 0d 00
        E 480 90 0d 60
        E 480 80 0d 00
        E 480 90 0d 60
        E 480 80 0d 00
        E 480 90 0c 60
        E 480 80 0c 00
        E 480 90 0d 60
        E 480 80 0d 00
        E 480 90 0d 60
        E 480 80 0d 00
        E 480 90 0d 60
        E 480 80 0d 00
        E 480 90 0c 60
        E 480 80 0c 00
        E 480 90 0d 60
        E 480 80 0d 00
        E 480 90 0d 60
        E 480 80 0d 00
        E 480 90 0d 60
        E 480 80 0d 00
        E 480 90 0c 60
        E 480 80 0c 00
        E 480 90 0d 60
        E 480 80 0d 00
        E 480 90 0d 60
        E 480 80 0d 00
        E 480 90 0d 60
        E 480 80 0d 00
        E 480 90 0c 60
        E 480 80 0c 00
        E 480 90 0d 60
        E 480 80 0d 00
        E 480 90 0d 60
        E 480 80 0d 00
        E 480 90 0d 60
        E 480 80 0d 00
        E 480 90 0c 60
        E 480 80 0c 00
        E 480 90 0d 60
        E 480 80 0d 00
        E 480 90 0d 60
        E 480 80 0d 00
        E 480 90 0d 60
        E 480 80 0d 00
        E 480 90 0c 60
        E 480 80 0c 00
        E 480 90 0d 60
        E 480 80 0d 00
        E 480 90 0d 60
        E 480 80 0d 00
        E 480 90 0d 60
        E 480 80 0d 00
        E 480 90 0c 60
        E 480 80 0c 00
        E 480 90 0d 60
        E 480 80 0d 00
        E 480 90 0d 60
        E 480 80 0d 00
        E 480 90 0d 60
        E 480 80 0d 00
        E 480 90 0c 60
        E 480 80 0c 00
        E 480 90 0d 60
        E 480 80 0d 00
        E 480 90 0d 60
        E 480 80 0d 00
        E 480 90 0d 60
        E 480 80 0d 00
        E 480 90 0c 60
        E 480 80 0c 00
        E 480 90 0d 60
        E 480 80 0d 00
        E 480 90 0d 60
        E 480 80 0d 00
        E 480 90 0d 60
        E 480 80 0d 00
        E 480 90 0c 60
        E 480 80 0c 00
        E 480 90 0d 60
        E 480 80 0d 00
        E 480 90 0d 60
        E 480 80 0d 00
        E 480 90 0d 60
        E 480 80 0d 00
        E 480 90 0c 60
        E 480 80 0c 00
        E 480 90 0d 60
        E 480 80 0d 00
        E 480 90 0d 60
        E 480 80 0d 00
        E 480 90 0d 60
        E 480 80 0d 00
        E 480 90 0c 60
        E 480 80 0c 00
        E 480 90 0d 60
        E 480 80 0d 00
        E 480 90 0d 60
        E 480 80 0d 00
        E 480 90 0d 60
        E 480 80 0d 00
        E 480 90 0c 60
        E 480 80 0c 00
        E 480 90 0d 60
        E 480 80 0d 00
        E 480 90 0d 60
        E 480 80 0d 00
        E 480 90 0d 60
        E 480 80 0d 00
        E 480 90 0c 60
        E 480 80 0c 00
        E 480 90 0d 60
        E 480 80 0d 00
        E 480 90 0d 60
        E 480 80 0d 00
        E 480 90 0d 60
        E 480 80 0d 00
        E 480 90 0c 60
        E 480 80 0c 00
        E 480 90 0d 60
        E 480 80 0d 00
        E 480 90 0d 60
        E 480 80 0d 00
        E 480 90 0d 60
        E 480 80 0d 00
        E 480 90 0c 60
        E 480 80 0c 00
        E 480 90 0d 60
        E 480 80 0d 00
        E 480 90 0d 60
        E 480 80 0d 00
        E 480 90 0d 60
        E 480 80 0d 00
        E 480 90 0c 60
        E 480 80 0c 00
        E 480 90 0d 60
        E 480 80 0d 00
        E 480 90 0d 60
        E 480 80 0d 00
        E 480 90 0d 60
        E 480 80 0d 00
        E 480 90 0c 60
        E 480 80 0c 00
        E 480 90 0d 60
        E 480 80 0d 00
        E 480 90 0d 60
        E 480 80 0d 00
        E 480 90 0d 60
        E 480 80 0d 00
        E 480 90 0c 60
        E 480 80 0c 00
        E 480 90 0d 60
        E 480 80 0d 00
        E 480 90 0d 60
        E 480 80 0d 00
        E 480 90 0d 60
        E 480 80 0d 00
        E 480 90 0c 60
        E 480 80 0c 00
        E 480 90 0d 60
        E 480 80 0d 00
        E 480 90 0d 60
        E 480 80 0d 00
        E 480 90 0d 60
        E 480 80 0d 00
        E 480 90 0c 60
        E 480 80 0c 00
        E 480 90 0d 60
        E 480 80 0d 00
        E 480 90 0d 60
        E 480 80 0d 00
        E 480 90 0d 60
        E 480 80 0d 00
        E 480 90 0c 60
        E 480 80 0c 00
        E 480 90 0d 60
        E 480 80 0d 00
        E 480 90 0d 60
        E 480 80 0d 00
        E 480 90 0d 60
        E 480 80 0d 00
        E 480 90 0c 60
        E 480 80 0c 00
        E 480 90 0d 60
        E 480 80 0d 00
        E 480 90 0d 60
        E 480 80 0d 00
        E 480 90 0d 60
        E 480 80 0d 00
        E 480 90 0c 60
        E 480 80 0c 00
        E 480 90 0d 60
        E 480 80 0d 00
        E 480 90 0d 60
        E 480 80 0d 00
        E 480 90 0d 60
        E 480 80 0d 00
        E 480 90 0c 60
        E 480 80 0c 00
        E 480 90 0d 60
        E 480 80 0d 00
        E 480 90 0d 60
        E 480 80 0d 00
        E 480 90 0d 60
        E 480 80 0d 00
        E 480 90 0c 60
        E 480 80 0c 00
        E 480 90 0d 60
        E 480 80 0d 00
        E 480 90 0d 60
        E 480 80 0d 00
        E 480 90 0d 60
        E 480 80 0d 00
        E 480 90 0c 60
        E 480 80 0c 00
        E 480 90 0d 60
        E 480 80 0d 00
        E 480 90 0d 60
        E 480 80 0d 00
        E 480 90 0d 60
        E 480 80 0d 00
        E 480 90 0c 60
        E 480 80 0c 00
        E 480 90 0d 60
        E 480 80 0d 00
        E 480 90 0d 60
        E 480 80 0d 00
        E 480 90 0d 60
        E 480 80 0d 00
        E 480 90 0c 60
        E 480 80 0c 00
        E 480 90 0d 60
        E 480 80 0d 00
        E 480 90 0d 60
        E 480 80 0d 00
        E 480 90 0d 60
        E 480 80 0d 00
        E 480 90 0c 60
        E 480 80 0c 00
        E 480 90 0d 60
        E 480 80 0d 00
        E 480 90 0d 60
        E 480 80 0d 00
        E 480 90 0d 60
        E 480 80 0d 00
        E 480 90 0c 60
        E 480 80 0c 00
        E 480 90 0d 60
        E 480 80 0d 00
        E 480 90 0d 60
        E 480 80 0d 00
        E 480 90 0d 60
        E 480 80 0d 00
        E 480 90 0c 60
        E 480 80 0c 00
        E 480 90 0d 60
        E 480 80 0d 00
        E 480 90 0d 60
        E 480 80 0d 00
        E 480 90 0d 60
        E 480 80 0d 00
        E 480 90 0c 60
        E 480 80 0c 00
        E 480 90 0d 60
        E 480 80 0d 00
        E 480 90 0d 60
        E 480 80 0d 00
        E 480 90 0d 60
        E 480 80 0d 00
        E 480 90 0c 60
        E 480 80 0c 00
        E 480 90 0d 60
        E 480 80 0d 00
        E 480 90 0d 60
        E 480 80 0d 00
        E 480 90 0d 60
        E 480 80 0d 00
        E 480 90 0c 60
        E 480 80 0c 00
        E 480 90 0d 60
        E 480 80 0d 00
        E 480 90 0d 60
        E 480 80 0d 00
        E 480 90 0d 60
        E 480 80 0d 00
        E 480 90 0c 60
        E 480 80 0c 00
        E 480 90 0d 60
        E 480 80 0d 00
        E 480 90 0d 60
        E 480 80 0d 00
        E 480 90 0d 60
        E 480 80 0d 00
        E 480 90 0c 60
        E 480 80 0c 00
        E 480 90 0d 60
        E 480 80 0d 00
        E 480 90 0d 60
        E 480 80 0d 00
        E 480 90 0d 60
        E 480 80 0d 00
        E 480 90 0c 60
        E 480 80 0c 00
        E 480 90 0d 60
        E 480 80 0d 00
        E 480 90 0d 60
        E 480 80 0d 00
        E 480 90 0d 60
        E 480 80 0d 00
        E 480 90 0c 60
        E 480 80 0c 00
        E 480 90 0d 60
        E 480 80 0d 00
        E 480 90 0d 60
        E 480 80 0d 00
        E 480 90 0d 60
        E 480 80 0d 00
        E 480 90 0c 60
        E 480 80 0c 00
        E 480 90 0d 60
        E 480 80 0d 00
        E 480 90 0d 60
        E 480 80 0d 00
        E 480 90 0d 60
        E 480 80 0d 00
        E 480 90 0c 60
        E 480 80 0c 00
        E 480 90 0d 60
        E 480 80 0d 00
        E 480 90 0d 60
        E 480 80 0d 00
        E 480 90 0d 60
        E 480 80 0d 00
        E 480 90 0c 60
        E 480 80 0c 00
        E 480 90 0d 60
        E 480 80 0d 00
        E 480 90 0d 60
        E 480 80 0d 00
        E 480 90 0d 60
        E 480 80 0d 00
        E 480 90 0c 60
        E 480 80 0c 00
        E 480 90 0d 60
        E 480 80 0d 00
        E 480 90 0d 60
        E 480 80 0d 00
        E 480 90 0d 60
        E 480 80 0d 00
        E 480 90 0c 60
        E 480 80 0c 00
        E 480 90 0d 60
        E 480 80 0d 00
        E 480 90 0d 60
        E 480 80 0d 00
        E 480 90 0d 60
        E 480 80 0d 00
        E 480 90 0c 60
        E 480 80 0c 00
        E 480 90 0d 60
        E 480 80 0d 00
        E 480 90 0d 60
        E 480 80 0d 00
        E 480 90 0d 60
        E 480 80 0d 00
        E 480 90 0c 60
        E 480 80 0c 00
        E 480 90 0d 60
        E 480 80 0d 00
        E 480 90 0d 60
        E 480 80 0d 00
        E 480 90 0d 60
        E 480 80 0d 00
        E 480 90 0c 60
        E 480 80 0c 00
        E 480 90 0d 60
        E 480 80 0d 00
        E 480 90 0d 60
        E 480 80 0d 00
        E 480 90 0d 60
        E 480 80 0d 00
        E 480 90 0c 60
        E 480 80 0c 00
        E 480 90 0d 60
        E 480 80 0d 00
        E 480 90 0d 60
        E 480 80 0d 00
        E 480 90 0d 60
        E 480 80 0d 00
        E 480 90 0c 60
        E 480 80 0c 00
        E 480 90 0d 60
        E 480 80 0d 00
        E 480 90 0d 60
        E 480 80 0d 00
        E 480 90 0d 60
        E 480 80 0d 00
        E 480 90 0c 60
        E 480 80 0c 00
        E 480 90 0d 60
        E 480 80 0d 00
        E 480 90 0d 60
        E 480 80 0d 00
        E 480 90 0d 60
        E 480 80 0d 00
        E 480 90 0c 60
        E 480 80 0c 00
        E 480 90 0d 60
        E 480 80 0d 00
        E 480 90 0d 60
        E 480 80 0d 00
        E 480 90 0d 60
        E 480 80 0d 00
        E 480 90 0c 60
        E 480 80 0c 00
        E 480 90 0d 60
        E 480 80 0d 00
        E 480 90 0d 60
        E 480 80 0d 00
        E 480 90 0d 60
        E 480 80 0d 00
        E 480 90 0c 60
        E 480 80 0c 00
        E 480 90 0d 60
        E 480 80 0d 00
        E 480 90 0d 60
        E 480 80 0d 00
        E 480 90 0d 60
        E 480 80 0d 00
        E 480 90 0c 60
        E 480 80 0c 00
        E 480 90 0d 60
        E 480 80 0d 00
        E 480 90 0d 60
        E 480 80 0d 00
        E 480 90 0d 60
        E 480 80 0d 00
        E 480 90 0c 60
        E 480 80 0c 00
        E 480 90 0d 60
        E 480 80 0d 00
        E 480 90 0d 60
        E 480 80 0d 00
        E 480 90 0d 60
        E 480 80 0d 00
        E 480 90 0c 60
        E 480 80 0c 00
        E 480 90 0d 60
        E 480 80 0d 00
        E 480 90 0d 60
        E 480 80 0d 00
        E 480 90 0d 60
        E 480 80 0d 00
        E 480 90 0c 60
        E 480 80 0c 00
        E 480 90 0d 60
        E 480 80 0d 00
        E 480 90 0d 60
        E 480 80 0d 00
        E 480 90 0d 60
        E 480 80 0d 00
        E 480 90 0c 60
        E 480 80 0c 00
        E 480 90 0d 60
        E 480 80 0d 00
        E 480 90 0d 60
        E 480 80 0d 00
        E 480 90 0d 60
        E 480 80 0d 00
        E 480 90 0c 60
        E 480 80 0c 00
        E 480 90 0d 60
        E 480 80 0d 00
        E 480 90 0d 60
        E 480 80 0d 00
        E 480 90 0d 60
        E 480 80 0d 00
        E 480 90 0c 60
        E 480 80 0c 00
        E 480 90 0d 60
        E 480 80 0d 00
        E 480 90 0d 60
        E 480 80 0d 00
        E 480 90 0d 60
        E 480 80 0d 00
        E 480 90 0c 60
        E 480 80 0c 00
        E 480 90 0d 60
        E 480 80 0d 00
        E 480 90 0d 60
        E 480 80 0d 00
        E 480 90 0d 60
        E 480 80 0d 00
        E 480 90 0c 60
        E 480 80 0c 00
        E 480 90 0d 60
        E 480 80 0d 00
        E 480 90 0d 60
        E 480 80 0d 00
        E 480 90 0d 60
        E 480 80 0d 00
        E 480 90 0c 60
        E 480 80 0c 00
        E 480 90 0d 60
        E 480 80 0d 00
        E 480 90 0d 60
        E 480 80 0d 00
        E 480 90 0d 60
        E 480 80 0d 00
        E 480 90 0c 60
        E 480 80 0c 00
        E 480 90 0d 60
        E 480 80 0d 00
        E 480 90 0d 60
        E 480 80 0d 00
        E 480 90 0d 60
        E 480 80 0d 00
        E 480 90 0c 60
        E 480 80 0c 00
        E 480 90 0d 60
        E 480 80 0d 00
        E 480 90 0d 60
        E 480 80 0d 00
        E 480 90 0d 60
        E 480 80 0d 00
        E 480 90 0c 60
        E 480 80 0c 00
        E 480 90 0d 60
        E 480 80 0d 00
        E 480 90 0d 60
        E 480 80 0d 00
        E 480 90 0d 60
        E 480 80 0d 00
        E 480 90 0c 60
        E 480 80 0c 00
        E 480 90 0d 60
        E 480 80 0d 00
        E 480 90 0d 60
        E 480 80 0d 00
        E 480 90 0d 60
        E 480 80 0d 00
        E 480 90 0c 60
        E 480 80 0c 00
        E 480 90 0d 60
        E 480 80 0d 00
        E 480 90 0d 60
        E 480 80 0d 00
        E 480 90 0d 60
        E 480 80 0d 00
        E 480 90 0c 60
        E 480 80 0c 00
        E 480 90 0d 60
        E 480 80 0d 00
        E 480 90 0d 60
        E 480 80 0d 00
        E 480 90 0d 60
        E 480 80 0d 00
        E 480 90 0c 60
        E 480 80 0c 00
        E 480 90 0d 60
        E 480 80 0d 00
        E 480 90 0d 60
        E 480 80 0d 00
        E 480 90 0d 60
        E 480 80 0d 00
        E 480 90 0c 60
        E 480 80 0c 00
        E 480 90 0d 60
        E 480 80 0d 00
        E 480 90 0d 60
        E 480 80 0d 00
        E 480 90 0d 60
        E 480 80 0d 00
        E 480 90 0c 60
        E 480 80 0c 00
        E 480 90 0d 60
        E 480 80 0d 00
        E 480 90 0d 60
        E 480 80 0d 00
        E 480 90 0d 60
        E 480 80 0d 00
        E 480 90 0c 60
        E 480 80 0c 00
        E 480 90 0d 60
        E 480 80 0d 00
        E 480 90 0d 60
        E 480 80 0d 00
        E 480 90 0d 60
        E 480 80 0d 00
        E 480 90 0c 60
        E 480 80 0c 00
        E 480 90 0d 60
        E 480 80 0d 00
        E 480 90 0d 60
        E 480 80 0d 00
        E 480 90 0d 60
        E 480 80 0d 00
        E 480 90 0c 60
        E 480 80 0c 00
        E 480 90 0d 60
        E 480 80 0d 00
        E 480 90 0d 60
        E 480 80 0d 00
        E 480 90 0d 60
        E 480 80 0d 00
        E 480 90 0c 60
        E 480 80 0c 00
        E 480 90 0d 60
        E 480 80 0d 00
        E 480 90 0d 60
        E 480 80 0d 00
        E 480 90 0d 60
        E 480 80 0d 00
        E 480 90 0c 60
        E 480 80 0c 00
        E 480 90 0d 60
        E 480 80 0d 00
        E 480 90 0d 60
        E 480 80 0d 00
        E 480 90 0d 60
        E 480 80 0d 00
        E 480 90 0d 60
        E 480 80 0d 00
        E 480 90 0c 60
        E 480 80 0c 00
        E 480 90 0d 60
        E 480 80 0d 00
        E 480 90 0d 60
        E 480 80 0d 00
        E 480 90 0d 60
        E 480 80 0d 00
        E 480 90 0c 60
        E 480 80 0c 00
        E 480 90 0d 60
        E 480 80 0d 00
        E 480 90 0d 60
        E 480 80 0d 00
        E 480 90 0d 60
        E 480 80 0d 00
        E 480 90 0c 60
        E 480 80 0c 00
        E 480 90 0d 60
        E 480 80 0d 00
        E 480 90 0d 60
        E 480 80 0d 00
        E 480 90 0d 60
        E 480 80 0d 00
        E 480 90 0c 60
        E 480 80 0c 00
        E 480 90 0d 60
        E 480 80 0d 00
        E 480 90 0d 60
        E 480 80 0d 00
        E 480 90 0d 60
        E 480 80 0d 00
        E 480 90 0c 60
        E 480 80 0c 00
        E 0 90 0d 60
        E 480 80 0d 00
        E 0 90 0c 60
        E 480 80 0c 00
        E 0 90 0d 60
        E 480 80 0d 00
        E 0 90 0c 60
        E 480 80 0c 00
        E 0 90 0d 60
        E 480 80 0d 00
        E 0 90 0c 60
        E 480 80 0c 00
        E 0 90 0d 60
        E 480 80 0d 00
        E 0 90 0c 60
        E 480 80 0c 00
        E 0 90 0d 60
        E 480 80 0d 00
        E 0 90 0c 60
        E 480 80 0c 00
        E 0 90 0d 60
        E 480 80 0d 00
        E 0 90 0c 60
        E 480 80 0c 00
        E 0 90 0d 60
        E 480 80 0d 00
        E 0 90 0c 60
        E 480 80 0c 00
        E 0 90 0d 60
        E 480 80 0d 00
        E 0 90 0c 60
        E 480 80 0c 00
        E 0 90 0d 60
        E 480 80 0d 00
        E 0 90 0c 60
        E 480 80 0c 00
        E 0 90 0d 60
        E 480 80 0d 00
        E 0 90 0c 60
        E 480 80 0c 00
        E 0 90 0d 60
        E 480 80 0d 00
        E 0 90 0c 60
        E 480 80 0c 00
        E 0 90 0d 60
        E 480 80 0d 00
        E 0 90 0c 60
        E 480 80 0c 00
        E 0 90 0d 60
        E 480 80 0d 00
        E 0 90 0c 60
        E 480 80 0c 00
        E 0 90 0d 60
        E 480 80 0d 00
        E 0 90 0c 60
        E 480 80 0c 00
        E 0 90 0d 60
        E 480 80 0d 00
        E 0 90 0c 60
        E 480 80 0c 00
        E 0 90 0d 60
        E 480 80 0d 00
        E 0 90 0c 60
        E 480 80 0c 00
        E 0 90 0d 60
        E 480 80 0d 00
        E 0 90 0c 60
        E 480 80 0c 00
        E 0 90 0d 60
        E 480 80 0d 00
        E 0 90 0c 60
        E 480 80 0c 00
        E 0 90 0d 60
        E 480 80 0d 00
        E 0 90 0c 60
        E 480 80 0c 00
        E 0 90 0d 60
        E 480 80 0d 00
        E 0 90 0c 60
        E 480 80 0c 00
        E 0 90 0d 60
        E 480 80 0d 00
        E 0 90 0c 60
        E 480 80 0c 00
        E 0 90 0d 60
        E 480 80 0d 00
        E 0 90 0c 60
        E 480 80 0c 00
        E 0 90 0d 60
        E 480 80 0d 00
        E 0 90 0c 60
        E 480 80 0c 00
        E 0 90 0d 60
        E 480 80 0d 00
        E 0 90 0c 60
        E 480 80 0c 00
        E 0 90 0d 60
        E 480 80 0d 00
        E 0 90 0c 60
        E 480 80 0c 00
        E 0 90 0d 60
        E 480 80 0d 00
        E 0 90 0c 60
        E 480 80 0c 00
        E 0 90 0d 60
        E 480 80 0d 00
        E 0 90 0c 60
        E 480 80 0c 00
        E 0 90 0d 60
        E 480 80 0d 00
        E 0 90 0c 60
        E 480 80 0c 00
        E 0 90 0d 60
        E 480 80 0d 00
        E 0 90 0c 60
        E 480 80 0c 00
        E 0 90 0d 60
        E 480 80 0d 00
        E 0 90 0c 60
        E 480 80 0c 00
        E 0 90 0d 60
        E 480 80 0d 00
        E 0 90 0c 60
        E 480 80 0c 00
        E 0 90 0d 60
        E 480 80 0d 00
        E 0 90 0c 60
        E 480 80 0c 00
        E 0 90 0d 60
        E 480 80 0d 00
        E 0 90 0c 60
        E 480 80 0c 00
        E 0 90 0d 60
        E 480 80 0d 00
        E 0 90 0c 60
        E 480 80 0c 00
        E 0 90 0d 60
        E 480 80 0d 00
        E 0 90 0c 60
        E 480 80 0c 00
        E 0 90 0d 60
        E 480 80 0d 00
        E 0 90 0c 60
        E 480 80 0c 00
        E 0 90 0d 60
        E 480 80 0d 00
        E 0 90 0c 60
        E 480 80 0c 00
        E 0 90 0d 60
        E 480 80 0d 00
        E 0 90 0c 60
        E 480 80 0c 00
        E 0 90 0d 60
        E 480 80 0d 00
        E 0 90 0c 60
        E 480 80 0c 00
        E 0 90 0d 60
        E 480 80 0d 00
        E 0 90 0c 60
        E 480 80 0c 00
        E 0 90 0d 60
        E 480 80 0d 00
        E 0 90 0c 60
        E 480 80 0c 00
        E 0 90 0d 60
        E 480 80 0d 00
        E 0 90 0c 60
        E 480 80 0c 00
        E 0 90 0d 60
        E 480 80 0d 00
        E 0 90 0c 60
        E 480 80 0c 00
        E 0 90 0d 60
        E 480 80 0d 00
        E 0 90 0c 60
        E 480 80 0c 00
        E 0 90 0d 60
        E 480 80 0d 00
        E 0 90 0c 60
        E 480 80 0c 00
        E 0 90 0d 60
        E 480 80 0d 00
        E 0 90 0c 60
        E 480 80 0c 00
        E 0 90 0d 60
        E 480 80 0d 00
        E 0 90 0c 60
        E 480 80 0c 00
        E 0 90 0d 60
        E 480 80 0d 00
        E 0 90 0c 60
        E 480 80 0c 00
        E 0 90 0d 60
        E 480 80 0d 00
        E 0 90 0c 60
        E 480 80 0c 00
        E 0 90 0d 60
        E 480 80 0d 00
        E 0 90 0c 60
        E 480 80 0c 00
        E 0 90 0d 60
        E 480 80 0d 00
        E 0 90 0c 60
        E 480 80 0c 00
        E 0 90 0d 60
        E 480 80 0d 00
        E 0 90 0c 60
        E 480 80 0c 00
        E 0 90 0d 60
        E 480 80 0d 00
        E 0 90 0c 60
        E 480 80 0c 00
        E 0 90 0d 60
        E 480 80 0d 00
        E 0 90 0c 60
        E 480 80 0c 00
        E 0 90 0d 60
        E 480 80 0d 00
        E 0 90 0c 60
        E 480 80 0c 00
        E 0 90 0d 60
        E 480 80 0d 00
        E 0 90 0c 60
        E 480 80 0c 00
        E 0 90 0d 60
        E 480 80 0d 00
        E 0 90 0c 60
        E 480 80 0c 00
        E 0 90 0d 60
        E 480 80 0d 00
        E 0 90 0c 60
        E 480 80 0c 00
        E 0 90 0d 60
        E 480 80 0d 00
        E 0 90 0c 60
        E 480 80 0c 00
        E 0 90 0d 60
        E 480 80 0d 00
        E 0 90 0c 60
        E 480 80 0c 00
        E 0 90 0d 60
        E 480 80 0d 00
        E 0 90 0c 60
        E 480 80 0c 00
        E 0 90 0d 60
        E 480 80 0d 00
        E 0 90 0c 60
        E 480 80 0c 00
        E 0 90 0d 60
        E 480 80 0d 00
        E 0 90 0c 60
        E 480 80 0c 00
        E 0 90 0d 60
        E 480 80 0d 00
        E 0 90 0c 60
        E 480 80 0c 00
        E 0 90 0d 60
        E 480 80 0d 00
        E 0 90 0c 60
        E 480 80 0c 00
        E 0 90 0d 60
        E 480 80 0d 00
        E 0 90 0c 60
        E 480 80 0c 00
        E 0 90 0d 60
        E 480 80 0d 00
        E 0 90 0c 60
        E 480 80 0c 00
        E 0 90 0d 60
        E 480 80 0d 00
        E 0 90 0c 60
        E 480 80 0c 00
        E 0 90 0d 60
        E 480 80 0d 00
        E 0 90 0c 60
        E 480 80 0c 00
        E 0 90 0d 60
        E 480 80 0d 00
        E 0 90 0c 60
        E 480 80 0c 00
        E 0 90 0d 60
        E 480 80 0d 00
        E 960 90 0c 60
        E 480 80 0c 00
        E 0 90 0d 60
        E 480 80 0d 00
        e 0 90 0c 60
        e 480 80 0c 00
        E 0 90 0d 60
        E 480 80 0d 00
        E 0 b0 7b 00
        GUID {8CB930E8-B6A0-4CAD-825A-9F47FB66C1D0}
        IGNTEMPO 0 120.00000000 4 4
        SRCCOLOR 83
        VELLANE 132 100 100
        COLORMAP "M:\RGS Documents\ColorMaps\rockband_vox-other.png"
        TEXTSTRINGFILE "Text Events List.txt"
        CFGEDITVIEW 463093.774488 116.584169 0 48 0 0 0
        CFGEDIT 1 1 0 0 0 1 1 1 1 1 1 1.00000000 44 63 1223 847 0 2 1 2 0.00000000 0 0 0 0 0.500000 1 0 1.000000 64
        KEYSNAP 0 0 "102034050607" 0 "Major"
        EVTFILTER 0 -1 -1 -1 -1 0 1 0 0 -1.00000000 -1.00000000
      >
    >
  >
  <TRACK '{4D889F49-FE1F-4D1D-9FB8-BFD5BA06901A}'
    NAME "TRKS"
    PEAKCOL 16576
    BEAT -1
    AUTOMODE 0
    VOLPAN 1.00000000000000 0.00000000000000 -1.00000000000000 -1.00000000000000 1.00000000000000
    MUTESOLO 0 0 0
    IPHASE 0
    ISBUS 0 0
    BUSCOMP 0 0
    SHOWINMIX 1 0.666700 0.500000 1 0.500000 -1 -1 -1
    FREEMODE 0
    SEL 0
    REC 0 0 0 0 0 0 0
    TRACKHEIGHT 0 0
    INQ 0 0 0 0.5000000000 100 0 0 100
    NCHAN 2
    FX 1
    TRACKID {4D889F49-FE1F-4D1D-9FB8-BFD5BA06901A}
    PERF 0
    MIDIOUT -1
    MAINSEND 1 0
    <ITEM
      POSITION 3.50000000000000
      SNAPOFFS 0.00000000000000
      LENGTH 301.78063492063490
      LOOP 0
      ALLTAKES 0
      SEL 0
      FADEIN 1 0.000000 0.000000 1 0
      FADEOUT 1 0.000000 0.000000 1 0
      MUTE 0
      IGUID {C8E07E1E-136D-4D2E-B69A-02C1F48489E7}
      IID 18
      NAME "02 - Philistine Philosophies.mp3"
      VOLPAN 0.900000 0.000000 1.000000 -1.000000
      SOFFS 0.00000000000000
      PLAYRATE 1.00000000000000 1 0.00000000000000 -1
      CHANMODE 0
      GUID {BDB92149-7FF6-480E-975E-309ABE748523}
      <SOURCE MP3
        FILE "C:\Users\User\Music\Opacities\02 - Philistine Philosophies.mp3" 1
      >
    >
  >
>
